<?xml version="1.0" encoding="UTF-8" standalone="no"?><svg xmlns="http://www.w3.org/2000/svg" xmlns:xlink="http://www.w3.org/1999/xlink" contentStyleType="text/css" height="276px" preserveAspectRatio="none" style="width:736px;height:276px;background:#FFFFFF;" version="1.1" viewBox="0 0 736 276" width="736px" zoomAndPan="magnify"><defs/><g><!--MD5=[b0e88f5fe54ba8aaa7193d83f60048c6]
class elki.distance.histogram.HistogramMatchDistance--><a href="HistogramMatchDistance.html" target="_top" title="HistogramMatchDistance.html" xlink:actuate="onRequest" xlink:href="HistogramMatchDistance.html" xlink:show="new" xlink:title="HistogramMatchDistance.html" xlink:type="simple"><g id="elem_elki.distance.histogram.HistogramMatchDistance"><rect codeLine="6" fill="#F1F1F1" height="119.125" id="elki.distance.histogram.HistogramMatchDistance" rx="2.5" ry="2.5" style="stroke:#181818;stroke-width:0.5;" width="409" x="118" y="132"/><ellipse cx="231.75" cy="150.9688" fill="#ADD1B2" rx="11" ry="11" style="stroke:#181818;stroke-width:1.0;"/><path d="M234.7188,156.6094 Q234.1406,156.9063 233.5,157.0469 Q232.8594,157.2031 232.1563,157.2031 Q229.6563,157.2031 228.3281,155.5625 Q227.0156,153.9063 227.0156,150.7813 Q227.0156,147.6563 228.3281,146 Q229.6563,144.3438 232.1563,144.3438 Q232.8594,144.3438 233.5,144.5 Q234.1563,144.6563 234.7188,144.9531 L234.7188,147.6719 Q234.0938,147.0938 233.5,146.8281 Q232.9063,146.5469 232.2813,146.5469 Q230.9375,146.5469 230.25,147.625 Q229.5625,148.6875 229.5625,150.7813 Q229.5625,152.875 230.25,153.9531 Q230.9375,155.0156 232.2813,155.0156 Q232.9063,155.0156 233.5,154.75 Q234.0938,154.4688 234.7188,153.8906 L234.7188,156.6094 Z " fill="#000000"/><text fill="#000000" font-family="sans-serif" font-size="14" lengthAdjust="spacing" textLength="173" x="252.25" y="149.9951">HistogramMatchDistance</text><text fill="#000000" font-family="sans-serif" font-size="10" lengthAdjust="spacing" textLength="110" x="283.75" y="162.5791">elki.distance.histogram</text><line style="stroke:#181818;stroke-width:0.5;" x1="119" x2="526" y1="169.9375" y2="169.9375"/><ellipse cx="129" cy="183.5859" fill="none" rx="3" ry="3" style="stroke:#038048;stroke-width:1.0;"/><text fill="#000000" font-family="sans-serif" font-size="14" lengthAdjust="spacing" text-decoration="underline" textLength="231" x="138" y="186.9326">STATIC: HistogramMatchDistance</text><line style="stroke:#181818;stroke-width:0.5;" x1="119" x2="526" y1="194.2344" y2="194.2344"/><ellipse cx="129" cy="207.8828" fill="#84BE84" rx="3" ry="3" style="stroke:#038048;stroke-width:1.0;"/><text fill="#000000" font-family="sans-serif" font-size="14" lengthAdjust="spacing" textLength="334" x="138" y="211.2295">distance(NumberVector, NumberVector): double</text><ellipse cx="129" cy="224.1797" fill="#84BE84" rx="3" ry="3" style="stroke:#038048;stroke-width:1.0;"/><text fill="#000000" font-family="sans-serif" font-size="14" lengthAdjust="spacing" textLength="383" x="138" y="227.5264">minDist(SpatialComparable, SpatialComparable): double</text><ellipse cx="129" cy="240.4766" fill="#84BE84" rx="3" ry="3" style="stroke:#038048;stroke-width:1.0;"/><text fill="#000000" font-family="sans-serif" font-size="14" lengthAdjust="spacing" textLength="128" x="138" y="243.8232">isMetric(): boolean</text></g></a><!--MD5=[b1a010d4da3e8e2631d5f818e480f936]
class elki.distance.AbstractNumberVectorDistance--><a href="../AbstractNumberVectorDistance.html" target="_top" title="../AbstractNumberVectorDistance.html" xlink:actuate="onRequest" xlink:href="../AbstractNumberVectorDistance.html" xlink:show="new" xlink:title="../AbstractNumberVectorDistance.html" xlink:type="simple"><g id="elem_elki.distance.AbstractNumberVectorDistance"><rect codeLine="13" fill="#F1F1F1" height="37.9375" id="elki.distance.AbstractNumberVectorDistance" rx="2.5" ry="2.5" style="stroke:#181818;stroke-width:0.5;" width="255" x="7" y="22"/><ellipse cx="22" cy="40.9688" fill="#A9DCDF" rx="11" ry="11" style="stroke:#181818;stroke-width:1.0;"/><path d="M22.1094,36.3125 L20.9531,41.3906 L23.2813,41.3906 L22.1094,36.3125 Z M20.625,34.0781 L23.6094,34.0781 L26.9688,46.4688 L24.5156,46.4688 L23.75,43.4063 L20.4688,43.4063 L19.7188,46.4688 L17.2813,46.4688 L20.625,34.0781 Z " fill="#000000"/><text fill="#000000" font-family="sans-serif" font-size="14" font-style="italic" lengthAdjust="spacing" textLength="223" x="36" y="39.9951">AbstractNumberVectorDistance</text><text fill="#000000" font-family="sans-serif" font-size="10" font-style="italic" lengthAdjust="spacing" textLength="63" x="116" y="52.5791">elki.distance</text></g></a><!--MD5=[5f78a2c9f6a81d626a41dcae02a47e86]
class elki.distance.SpatialPrimitiveDistance--><a href="../SpatialPrimitiveDistance.html" target="_top" title="../SpatialPrimitiveDistance.html" xlink:actuate="onRequest" xlink:href="../SpatialPrimitiveDistance.html" xlink:show="new" xlink:title="../SpatialPrimitiveDistance.html" xlink:type="simple"><g id="elem_elki.distance.SpatialPrimitiveDistance"><rect codeLine="14" fill="#F1F1F1" height="62.2344" id="elki.distance.SpatialPrimitiveDistance" rx="2.5" ry="2.5" style="stroke:#181818;stroke-width:0.5;" width="428" x="297.5" y="10"/><ellipse cx="375.75" cy="28.9688" fill="#B4A7E5" rx="11" ry="11" style="stroke:#181818;stroke-width:1.0;"/><path d="M371.6719,24.7344 L371.6719,22.5781 L379.0625,22.5781 L379.0625,24.7344 L376.5938,24.7344 L376.5938,32.8125 L379.0625,32.8125 L379.0625,34.9688 L371.6719,34.9688 L371.6719,32.8125 L374.1406,32.8125 L374.1406,24.7344 L371.6719,24.7344 Z " fill="#000000"/><text fill="#000000" font-family="sans-serif" font-size="14" font-style="italic" lengthAdjust="spacing" textLength="172" x="396.25" y="27.9951">SpatialPrimitiveDistance</text><text fill="#000000" font-family="sans-serif" font-size="10" font-style="italic" lengthAdjust="spacing" textLength="63" x="450.75" y="40.5791">elki.distance</text><rect fill="#FFFFFF" height="15.9688" style="stroke:#181818;stroke-width:1.0;stroke-dasharray:2.0,2.0;" width="89" x="639.5" y="7"/><text fill="#000000" font-family="sans-serif" font-size="12" font-style="italic" lengthAdjust="spacing" textLength="87" x="640.5" y="19.1387">NumberVector</text><line style="stroke:#181818;stroke-width:0.5;" x1="298.5" x2="724.5" y1="47.9375" y2="47.9375"/><ellipse cx="308.5" cy="61.5859" fill="#84BE84" rx="3" ry="3" style="stroke:#038048;stroke-width:1.0;"/><text fill="#000000" font-family="sans-serif" font-size="14" font-style="italic" lengthAdjust="spacing" textLength="402" x="317.5" y="64.9326">minDist(SpatialComparable, SpatialComparable): double</text></g></a><!--MD5=[95e0613b02afda06b8c18befb3b0c39e]
reverse link elki.distance.AbstractNumberVectorDistance to elki.distance.histogram.HistogramMatchDistance--><g id="link_elki.distance.AbstractNumberVectorDistance_elki.distance.histogram.HistogramMatchDistance"><path codeLine="19" d="M173.41,72.73 C194.97,89.76 222.5,111.51 248.03,131.68 " fill="none" id="elki.distance.AbstractNumberVectorDistance-backto-elki.distance.histogram.HistogramMatchDistance" style="stroke:#181818;stroke-width:1.0;"/><polygon fill="none" points="168.91,78.1,157.55,60.21,177.59,67.11,168.91,78.1" style="stroke:#181818;stroke-width:1.0;"/></g><!--MD5=[e73aedb8d31d649e6d83ad39158e2177]
reverse link elki.distance.SpatialPrimitiveDistance to elki.distance.histogram.HistogramMatchDistance--><g id="link_elki.distance.SpatialPrimitiveDistance_elki.distance.histogram.HistogramMatchDistance"><path codeLine="20" d="M457.49,84.43 C438.67,99.22 417.21,116.08 397.02,131.95 " fill="none" id="elki.distance.SpatialPrimitiveDistance-backto-elki.distance.histogram.HistogramMatchDistance" style="stroke:#181818;stroke-width:1.0;stroke-dasharray:7.0,7.0;"/><polygon fill="none" points="453.2,78.9,473.25,72.05,461.85,89.91,453.2,78.9" style="stroke:#181818;stroke-width:1.0;"/></g><rect fill="none" height="11.6406" style="stroke:none;stroke-width:1.0;" width="186" x="268.25" y="257.125"/><text fill="#888888" font-family="sans-serif" font-size="10" lengthAdjust="spacing" textLength="186" x="268.25" y="266.4072">UMLDoclet 2.0.19, PlantUML 1.2022.8</text><!--MD5=[384353b28246e0740b8743cbfd00d9f8]
@startuml
    remove .*\.(Instance|Par|Parameterizer|Factory)$
    set namespaceSeparator none
    hide empty fields
    hide empty methods

    class "<size:14>HistogramMatchDistance\n<size:10>elki.distance.histogram" as elki.distance.histogram.HistogramMatchDistance [[HistogramMatchDistance.html]] {
        {static} +STATIC: HistogramMatchDistance
        +distance(NumberVector, NumberVector): double
        +minDist(SpatialComparable, SpatialComparable): double
        +isMetric(): boolean
    }

    abstract class "<size:14>AbstractNumberVectorDistance\n<size:10>elki.distance" as elki.distance.AbstractNumberVectorDistance [[../AbstractNumberVectorDistance.html]]
    interface "<size:14>SpatialPrimitiveDistance\n<size:10>elki.distance" as elki.distance.SpatialPrimitiveDistance<NumberVector> [[../SpatialPrimitiveDistance.html]] {
        {abstract} +minDist(SpatialComparable, SpatialComparable): double
    }
    class "<size:14>HistogramMatchDistance.Par\n<size:10>elki.distance.histogram" as elki.distance.histogram.HistogramMatchDistance.Par [[HistogramMatchDistance.Par.html]]

    elki.distance.AbstractNumberVectorDistance <|- - elki.distance.histogram.HistogramMatchDistance
    elki.distance.SpatialPrimitiveDistance <|.. elki.distance.histogram.HistogramMatchDistance
    elki.distance.histogram.HistogramMatchDistance +- - elki.distance.histogram.HistogramMatchDistance.Par

    center footer UMLDoclet 2.0.19, PlantUML 1.2022.8
@enduml

PlantUML version 1.2022.8(Sun Sep 25 11:00:33 CEST 2022)
(APACHE source distribution)
Java Runtime: OpenJDK Runtime Environment
JVM: OpenJDK 64-Bit Server VM
Default Encoding: UTF-8
Language: de
Country: DE
--></g></svg>