<?xml version="1.0" encoding="UTF-8" standalone="no"?><svg xmlns="http://www.w3.org/2000/svg" xmlns:xlink="http://www.w3.org/1999/xlink" contentStyleType="text/css" height="285px" preserveAspectRatio="none" style="width:464px;height:285px;background:#FFFFFF;" version="1.1" viewBox="0 0 464 285" width="464px" zoomAndPan="magnify"><defs/><g><!--MD5=[e397a7578c3bee85ea2ec918ac2b8719]
class elki.utilities.io.ByteArrayUtil.VarintSerializer--><a href="ByteArrayUtil.VarintSerializer.html" target="_top" title="ByteArrayUtil.VarintSerializer.html" xlink:actuate="onRequest" xlink:href="ByteArrayUtil.VarintSerializer.html" xlink:show="new" xlink:title="ByteArrayUtil.VarintSerializer.html" xlink:type="simple"><g id="elem_elki.utilities.io.ByteArrayUtil.VarintSerializer"><rect codeLine="6" fill="#F1F1F1" height="94.8281" id="elki.utilities.io.ByteArrayUtil.VarintSerializer" rx="2.5" ry="2.5" style="stroke:#181818;stroke-width:0.5;" width="288" x="132.5" y="165"/><ellipse cx="176.75" cy="183.9688" fill="#ADD1B2" rx="11" ry="11" style="stroke:#181818;stroke-width:1.0;"/><path d="M179.7188,189.6094 Q179.1406,189.9063 178.5,190.0469 Q177.8594,190.2031 177.1563,190.2031 Q174.6563,190.2031 173.3281,188.5625 Q172.0156,186.9063 172.0156,183.7813 Q172.0156,180.6563 173.3281,179 Q174.6563,177.3438 177.1563,177.3438 Q177.8594,177.3438 178.5,177.5 Q179.1563,177.6563 179.7188,177.9531 L179.7188,180.6719 Q179.0938,180.0938 178.5,179.8281 Q177.9063,179.5469 177.2813,179.5469 Q175.9375,179.5469 175.25,180.625 Q174.5625,181.6875 174.5625,183.7813 Q174.5625,185.875 175.25,186.9531 Q175.9375,188.0156 177.2813,188.0156 Q177.9063,188.0156 178.5,187.75 Q179.0938,187.4688 179.7188,186.8906 L179.7188,189.6094 Z " fill="#000000"/><text fill="#000000" font-family="sans-serif" font-size="14" lengthAdjust="spacing" textLength="191" x="197.25" y="182.9951">ByteArrayUtil.VarintSerializer</text><text fill="#000000" font-family="sans-serif" font-size="10" lengthAdjust="spacing" textLength="62" x="261.75" y="195.5791">elki.utilities.io</text><line style="stroke:#181818;stroke-width:0.5;" x1="133.5" x2="419.5" y1="202.9375" y2="202.9375"/><ellipse cx="143.5" cy="216.5859" fill="#84BE84" rx="3" ry="3" style="stroke:#038048;stroke-width:1.0;"/><text fill="#000000" font-family="sans-serif" font-size="14" lengthAdjust="spacing" text-decoration="line-through" textLength="103" x="152.5" y="219.9326">fromByteBuffer</text><text fill="#000000" font-family="sans-serif" font-size="14" lengthAdjust="spacing" textLength="140" x="255.5" y="219.9326">(ByteBuffer): Integer</text><ellipse cx="143.5" cy="232.8828" fill="#84BE84" rx="3" ry="3" style="stroke:#038048;stroke-width:1.0;"/><text fill="#000000" font-family="sans-serif" font-size="14" lengthAdjust="spacing" text-decoration="line-through" textLength="86" x="152.5" y="236.2295">toByteBuffer</text><text fill="#000000" font-family="sans-serif" font-size="14" lengthAdjust="spacing" textLength="176" x="238.5" y="236.2295">(ByteBuffer, Integer): void</text><ellipse cx="143.5" cy="249.1797" fill="#84BE84" rx="3" ry="3" style="stroke:#038048;stroke-width:1.0;"/><text fill="#000000" font-family="sans-serif" font-size="14" lengthAdjust="spacing" text-decoration="line-through" textLength="83" x="152.5" y="252.5264">getByteSize</text><text fill="#000000" font-family="sans-serif" font-size="14" lengthAdjust="spacing" textLength="85" x="235.5" y="252.5264">(Integer): int</text></g></a><!--MD5=[fafa09e96069e64ae7d93037ec06383a]
class elki.utilities.io.ByteBufferSerializer--><a href="ByteBufferSerializer.html" target="_top" title="ByteBufferSerializer.html" xlink:actuate="onRequest" xlink:href="ByteBufferSerializer.html" xlink:show="new" xlink:title="ByteBufferSerializer.html" xlink:type="simple"><g id="elem_elki.utilities.io.ByteBufferSerializer"><rect codeLine="12" fill="#F1F1F1" height="94.8281" id="elki.utilities.io.ByteBufferSerializer" rx="2.5" ry="2.5" style="stroke:#181818;stroke-width:0.5;" width="297" x="7" y="10"/><ellipse cx="57.75" cy="28.9688" fill="#B4A7E5" rx="11" ry="11" style="stroke:#181818;stroke-width:1.0;"/><path d="M53.6719,24.7344 L53.6719,22.5781 L61.0625,22.5781 L61.0625,24.7344 L58.5938,24.7344 L58.5938,32.8125 L61.0625,32.8125 L61.0625,34.9688 L53.6719,34.9688 L53.6719,32.8125 L56.1406,32.8125 L56.1406,24.7344 L53.6719,24.7344 Z " fill="#000000"/><text fill="#000000" font-family="sans-serif" font-size="14" font-style="italic" lengthAdjust="spacing" textLength="140" x="78.25" y="27.9951">ByteBufferSerializer</text><text fill="#000000" font-family="sans-serif" font-size="10" font-style="italic" lengthAdjust="spacing" textLength="70" x="113.25" y="40.5791">elki.utilities.io</text><rect fill="#FFFFFF" height="15.9688" style="stroke:#181818;stroke-width:1.0;stroke-dasharray:2.0,2.0;" width="45" x="262" y="7"/><text fill="#000000" font-family="sans-serif" font-size="12" font-style="italic" lengthAdjust="spacing" textLength="43" x="263" y="19.1387">Integer</text><line style="stroke:#181818;stroke-width:0.5;" x1="8" x2="303" y1="47.9375" y2="47.9375"/><ellipse cx="18" cy="61.5859" fill="#84BE84" rx="3" ry="3" style="stroke:#038048;stroke-width:1.0;"/><text fill="#000000" font-family="sans-serif" font-size="14" font-style="italic" lengthAdjust="spacing" textLength="252" x="27" y="64.9326">fromByteBuffer(ByteBuffer): Integer</text><ellipse cx="18" cy="77.8828" fill="#84BE84" rx="3" ry="3" style="stroke:#038048;stroke-width:1.0;"/><text fill="#000000" font-family="sans-serif" font-size="14" font-style="italic" lengthAdjust="spacing" textLength="271" x="27" y="81.2295">toByteBuffer(ByteBuffer, Integer): void</text><ellipse cx="18" cy="94.1797" fill="#84BE84" rx="3" ry="3" style="stroke:#038048;stroke-width:1.0;"/><text fill="#000000" font-family="sans-serif" font-size="14" font-style="italic" lengthAdjust="spacing" textLength="171" x="27" y="97.5264">getByteSize(Integer): int</text></g></a><!--MD5=[221204ba7d653f98d99ee1123700ec2f]
class elki.utilities.io.ByteArrayUtil--><a href="ByteArrayUtil.html" target="_top" title="ByteArrayUtil.html" xlink:actuate="onRequest" xlink:href="ByteArrayUtil.html" xlink:show="new" xlink:title="ByteArrayUtil.html" xlink:type="simple"><g id="elem_elki.utilities.io.ByteArrayUtil"><rect codeLine="17" fill="#F1F1F1" height="37.9375" id="elki.utilities.io.ByteArrayUtil" rx="2.5" ry="2.5" style="stroke:#181818;stroke-width:0.5;" width="118" x="339.5" y="38.5"/><ellipse cx="354.5" cy="57.4688" fill="#ADD1B2" rx="11" ry="11" style="stroke:#181818;stroke-width:1.0;"/><path d="M357.4688,63.1094 Q356.8906,63.4063 356.25,63.5469 Q355.6094,63.7031 354.9063,63.7031 Q352.4063,63.7031 351.0781,62.0625 Q349.7656,60.4063 349.7656,57.2813 Q349.7656,54.1563 351.0781,52.5 Q352.4063,50.8438 354.9063,50.8438 Q355.6094,50.8438 356.25,51 Q356.9063,51.1563 357.4688,51.4531 L357.4688,54.1719 Q356.8438,53.5938 356.25,53.3281 Q355.6563,53.0469 355.0313,53.0469 Q353.6875,53.0469 353,54.125 Q352.3125,55.1875 352.3125,57.2813 Q352.3125,59.375 353,60.4531 Q353.6875,61.5156 355.0313,61.5156 Q355.6563,61.5156 356.25,61.25 Q356.8438,60.9688 357.4688,60.3906 L357.4688,63.1094 Z " fill="#000000"/><text fill="#000000" font-family="sans-serif" font-size="14" lengthAdjust="spacing" textLength="86" x="368.5" y="56.4951">ByteArrayUtil</text><text fill="#000000" font-family="sans-serif" font-size="10" lengthAdjust="spacing" textLength="62" x="380.5" y="69.0791">elki.utilities.io</text></g></a><!--MD5=[caef9b4c2df1a86a052d01f7aac6ce54]
reverse link elki.utilities.io.ByteBufferSerializer to elki.utilities.io.ByteArrayUtil.VarintSerializer--><g id="link_elki.utilities.io.ByteBufferSerializer_elki.utilities.io.ByteArrayUtil.VarintSerializer"><path codeLine="19" d="M205.14,121.26 C216.65,135.82 228.7,151.06 239.56,164.79 " fill="none" id="elki.utilities.io.ByteBufferSerializer-backto-elki.utilities.io.ByteArrayUtil.VarintSerializer" style="stroke:#181818;stroke-width:1.0;stroke-dasharray:7.0,7.0;"/><polygon fill="none" points="199.38,125.27,192.46,105.24,210.36,116.58,199.38,125.27" style="stroke:#181818;stroke-width:1.0;"/></g><!--MD5=[9b1aa19b275b9d8f727e2f3463c2823e]
reverse link elki.utilities.io.ByteArrayUtil to elki.utilities.io.ByteArrayUtil.VarintSerializer--><g id="link_elki.utilities.io.ByteArrayUtil_elki.utilities.io.ByteArrayUtil.VarintSerializer"><path codeLine="20" d="M374.64,88.42 C357.29,110.18 333.48,140.04 313.65,164.91 " fill="none" id="elki.utilities.io.ByteArrayUtil-backto-elki.utilities.io.ByteArrayUtil.VarintSerializer" style="stroke:#181818;stroke-width:1.0;"/><ellipse cx="379.0455" cy="82.9073" fill="#FFFFFF" rx="8" ry="8" style="stroke:#181818;stroke-width:1.0;"/><line style="stroke:#181818;stroke-width:1.0;" x1="374.0609" x2="384.03" y1="89.1647" y2="76.65"/><line style="stroke:#181818;stroke-width:1.0;" x1="372.7881" x2="385.3028" y1="77.9228" y2="87.8919"/></g><rect fill="none" height="11.6406" style="stroke:none;stroke-width:1.0;" width="186" x="132.25" y="265.8281"/><text fill="#888888" font-family="sans-serif" font-size="10" lengthAdjust="spacing" textLength="186" x="132.25" y="275.1104">UMLDoclet 2.0.19, PlantUML 1.2022.8</text><!--MD5=[7c6c52e6f8aa1fc428dc7ea4a9249231]
@startuml
    remove .*\.(Instance|Par|Parameterizer|Factory)$
    set namespaceSeparator none
    hide empty fields
    hide empty methods

    class "<size:14>ByteArrayUtil.VarintSerializer\n<size:10>elki.utilities.io" as elki.utilities.io.ByteArrayUtil.VarintSerializer [[ByteArrayUtil.VarintSerializer.html]] {
        +- -fromByteBuffer- -(ByteBuffer): Integer
        +- -toByteBuffer- -(ByteBuffer, Integer): void
        +- -getByteSize- -(Integer): int
    }

    interface "<size:14>ByteBufferSerializer\n<size:10>elki.utilities.io" as elki.utilities.io.ByteBufferSerializer<Integer> [[ByteBufferSerializer.html]] {
        {abstract} +fromByteBuffer(ByteBuffer): Integer
        {abstract} +toByteBuffer(ByteBuffer, Integer): void
        {abstract} +getByteSize(Integer): int
    }
    class "<size:14>ByteArrayUtil\n<size:10>elki.utilities.io" as elki.utilities.io.ByteArrayUtil [[ByteArrayUtil.html]]

    elki.utilities.io.ByteBufferSerializer <|.. elki.utilities.io.ByteArrayUtil.VarintSerializer
    elki.utilities.io.ByteArrayUtil +- - elki.utilities.io.ByteArrayUtil.VarintSerializer

    center footer UMLDoclet 2.0.19, PlantUML 1.2022.8
@enduml

PlantUML version 1.2022.8(Sun Sep 25 11:00:33 CEST 2022)
(APACHE source distribution)
Java Runtime: OpenJDK Runtime Environment
JVM: OpenJDK 64-Bit Server VM
Default Encoding: UTF-8
Language: de
Country: DE
--></g></svg>