<?xml version="1.0" encoding="UTF-8" standalone="no"?><svg xmlns="http://www.w3.org/2000/svg" xmlns:xlink="http://www.w3.org/1999/xlink" contentStyleType="text/css" height="268px" preserveAspectRatio="none" style="width:439px;height:268px;background:#FFFFFF;" version="1.1" viewBox="0 0 439 268" width="439px" zoomAndPan="magnify"><defs/><g><!--MD5=[df0873b34676e7be7e0d79e01e0e6c70]
class elki.utilities.io.ByteArrayUtil.LongSerializer--><a href="ByteArrayUtil.LongSerializer.html" target="_top" title="ByteArrayUtil.LongSerializer.html" xlink:actuate="onRequest" xlink:href="ByteArrayUtil.LongSerializer.html" xlink:show="new" xlink:title="ByteArrayUtil.LongSerializer.html" xlink:type="simple"><g id="elem_elki.utilities.io.ByteArrayUtil.LongSerializer"><rect codeLine="6" fill="#F1F1F1" height="111.125" id="elki.utilities.io.ByteArrayUtil.LongSerializer" rx="2.5" ry="2.5" style="stroke:#181818;stroke-width:0.5;" width="273" x="121.5" y="132"/><ellipse cx="161.25" cy="150.9688" fill="#ADD1B2" rx="11" ry="11" style="stroke:#181818;stroke-width:1.0;"/><path d="M164.2188,156.6094 Q163.6406,156.9063 163,157.0469 Q162.3594,157.2031 161.6563,157.2031 Q159.1563,157.2031 157.8281,155.5625 Q156.5156,153.9063 156.5156,150.7813 Q156.5156,147.6563 157.8281,146 Q159.1563,144.3438 161.6563,144.3438 Q162.3594,144.3438 163,144.5 Q163.6563,144.6563 164.2188,144.9531 L164.2188,147.6719 Q163.5938,147.0938 163,146.8281 Q162.4063,146.5469 161.7813,146.5469 Q160.4375,146.5469 159.75,147.625 Q159.0625,148.6875 159.0625,150.7813 Q159.0625,152.875 159.75,153.9531 Q160.4375,155.0156 161.7813,155.0156 Q162.4063,155.0156 163,154.75 Q163.5938,154.4688 164.2188,153.8906 L164.2188,156.6094 Z " fill="#000000"/><text fill="#000000" font-family="sans-serif" font-size="14" lengthAdjust="spacing" textLength="186" x="180.75" y="149.9951">ByteArrayUtil.LongSerializer</text><text fill="#000000" font-family="sans-serif" font-size="10" lengthAdjust="spacing" textLength="62" x="242.75" y="162.5791">elki.utilities.io</text><line style="stroke:#181818;stroke-width:0.5;" x1="122.5" x2="393.5" y1="169.9375" y2="169.9375"/><ellipse cx="132.5" cy="183.5859" fill="#84BE84" rx="3" ry="3" style="stroke:#038048;stroke-width:1.0;"/><text fill="#000000" font-family="sans-serif" font-size="14" lengthAdjust="spacing" text-decoration="line-through" textLength="103" x="141.5" y="186.9326">fromByteBuffer</text><text fill="#000000" font-family="sans-serif" font-size="14" lengthAdjust="spacing" textLength="125" x="244.5" y="186.9326">(ByteBuffer): Long</text><ellipse cx="132.5" cy="199.8828" fill="#84BE84" rx="3" ry="3" style="stroke:#038048;stroke-width:1.0;"/><text fill="#000000" font-family="sans-serif" font-size="14" lengthAdjust="spacing" text-decoration="line-through" textLength="86" x="141.5" y="203.2295">toByteBuffer</text><text fill="#000000" font-family="sans-serif" font-size="14" lengthAdjust="spacing" textLength="161" x="227.5" y="203.2295">(ByteBuffer, Long): void</text><ellipse cx="132.5" cy="216.1797" fill="#84BE84" rx="3" ry="3" style="stroke:#038048;stroke-width:1.0;"/><text fill="#000000" font-family="sans-serif" font-size="14" lengthAdjust="spacing" text-decoration="line-through" textLength="83" x="141.5" y="219.5264">getByteSize</text><text fill="#000000" font-family="sans-serif" font-size="14" lengthAdjust="spacing" textLength="70" x="224.5" y="219.5264">(Long): int</text><ellipse cx="132.5" cy="232.4766" fill="#84BE84" rx="3" ry="3" style="stroke:#038048;stroke-width:1.0;"/><text fill="#000000" font-family="sans-serif" font-size="14" lengthAdjust="spacing" textLength="155" x="141.5" y="235.8232">getFixedByteSize(): int</text></g></a><!--MD5=[009aff6d7a075ca3b787d8e956c56726]
class elki.utilities.io.FixedSizeByteBufferSerializer--><a href="FixedSizeByteBufferSerializer.html" target="_top" title="FixedSizeByteBufferSerializer.html" xlink:actuate="onRequest" xlink:href="FixedSizeByteBufferSerializer.html" xlink:show="new" xlink:title="FixedSizeByteBufferSerializer.html" xlink:type="simple"><g id="elem_elki.utilities.io.FixedSizeByteBufferSerializer"><rect codeLine="13" fill="#F1F1F1" height="62.2344" id="elki.utilities.io.FixedSizeByteBufferSerializer" rx="2.5" ry="2.5" style="stroke:#181818;stroke-width:0.5;" width="272" x="7" y="10"/><ellipse cx="22" cy="28.9688" fill="#B4A7E5" rx="11" ry="11" style="stroke:#181818;stroke-width:1.0;"/><path d="M17.9219,24.7344 L17.9219,22.5781 L25.3125,22.5781 L25.3125,24.7344 L22.8438,24.7344 L22.8438,32.8125 L25.3125,32.8125 L25.3125,34.9688 L17.9219,34.9688 L17.9219,32.8125 L20.3906,32.8125 L20.3906,24.7344 L17.9219,24.7344 Z " fill="#000000"/><text fill="#000000" font-family="sans-serif" font-size="14" font-style="italic" lengthAdjust="spacing" textLength="207" x="36" y="27.9951">FixedSizeByteBufferSerializer</text><text fill="#000000" font-family="sans-serif" font-size="10" font-style="italic" lengthAdjust="spacing" textLength="70" x="104.5" y="40.5791">elki.utilities.io</text><rect fill="#FFFFFF" height="15.9688" style="stroke:#181818;stroke-width:1.0;stroke-dasharray:2.0,2.0;" width="31" x="251" y="7"/><text fill="#000000" font-family="sans-serif" font-size="12" font-style="italic" lengthAdjust="spacing" textLength="29" x="252" y="19.1387">Long</text><line style="stroke:#181818;stroke-width:0.5;" x1="8" x2="278" y1="47.9375" y2="47.9375"/><ellipse cx="18" cy="61.5859" fill="#84BE84" rx="3" ry="3" style="stroke:#038048;stroke-width:1.0;"/><text fill="#000000" font-family="sans-serif" font-size="14" font-style="italic" lengthAdjust="spacing" textLength="159" x="27" y="64.9326">getFixedByteSize(): int</text></g></a><!--MD5=[221204ba7d653f98d99ee1123700ec2f]
class elki.utilities.io.ByteArrayUtil--><a href="ByteArrayUtil.html" target="_top" title="ByteArrayUtil.html" xlink:actuate="onRequest" xlink:href="ByteArrayUtil.html" xlink:show="new" xlink:title="ByteArrayUtil.html" xlink:type="simple"><g id="elem_elki.utilities.io.ByteArrayUtil"><rect codeLine="16" fill="#F1F1F1" height="37.9375" id="elki.utilities.io.ByteArrayUtil" rx="2.5" ry="2.5" style="stroke:#181818;stroke-width:0.5;" width="118" x="314" y="22"/><ellipse cx="329" cy="40.9688" fill="#ADD1B2" rx="11" ry="11" style="stroke:#181818;stroke-width:1.0;"/><path d="M331.9688,46.6094 Q331.3906,46.9063 330.75,47.0469 Q330.1094,47.2031 329.4063,47.2031 Q326.9063,47.2031 325.5781,45.5625 Q324.2656,43.9063 324.2656,40.7813 Q324.2656,37.6563 325.5781,36 Q326.9063,34.3438 329.4063,34.3438 Q330.1094,34.3438 330.75,34.5 Q331.4063,34.6563 331.9688,34.9531 L331.9688,37.6719 Q331.3438,37.0938 330.75,36.8281 Q330.1563,36.5469 329.5313,36.5469 Q328.1875,36.5469 327.5,37.625 Q326.8125,38.6875 326.8125,40.7813 Q326.8125,42.875 327.5,43.9531 Q328.1875,45.0156 329.5313,45.0156 Q330.1563,45.0156 330.75,44.75 Q331.3438,44.4688 331.9688,43.8906 L331.9688,46.6094 Z " fill="#000000"/><text fill="#000000" font-family="sans-serif" font-size="14" lengthAdjust="spacing" textLength="86" x="343" y="39.9951">ByteArrayUtil</text><text fill="#000000" font-family="sans-serif" font-size="10" lengthAdjust="spacing" textLength="62" x="355" y="52.5791">elki.utilities.io</text></g></a><!--MD5=[ab16a5ba978402b7d4ab599d24616760]
reverse link elki.utilities.io.FixedSizeByteBufferSerializer to elki.utilities.io.ByteArrayUtil.LongSerializer--><g id="link_elki.utilities.io.FixedSizeByteBufferSerializer_elki.utilities.io.ByteArrayUtil.LongSerializer"><path codeLine="18" d="M179.83,88.27 C190.84,102.11 203.01,117.41 214.41,131.73 " fill="none" id="elki.utilities.io.FixedSizeByteBufferSerializer-backto-elki.utilities.io.ByteArrayUtil.LongSerializer" style="stroke:#181818;stroke-width:1.0;stroke-dasharray:7.0,7.0;"/><polygon fill="none" points="174.08,92.3,167.11,72.29,185.04,83.58,174.08,92.3" style="stroke:#181818;stroke-width:1.0;"/></g><!--MD5=[2334a089907fe17aa54fe694f055ac97]
reverse link elki.utilities.io.ByteArrayUtil to elki.utilities.io.ByteArrayUtil.LongSerializer--><g id="link_elki.utilities.io.ByteArrayUtil_elki.utilities.io.ByteArrayUtil.LongSerializer"><path codeLine="19" d="M349.23,71.87 C335.48,89.15 317.75,111.43 301.58,131.74 " fill="none" id="elki.utilities.io.ByteArrayUtil-backto-elki.utilities.io.ByteArrayUtil.LongSerializer" style="stroke:#181818;stroke-width:1.0;"/><ellipse cx="353.6901" cy="66.2711" fill="#FFFFFF" rx="8" ry="8" style="stroke:#181818;stroke-width:1.0;"/><line style="stroke:#181818;stroke-width:1.0;" x1="348.7103" x2="358.67" y1="72.5321" y2="60.01"/><line style="stroke:#181818;stroke-width:1.0;" x1="347.4291" x2="359.9512" y1="61.2912" y2="71.2509"/></g><rect fill="none" height="11.6406" style="stroke:none;stroke-width:1.0;" width="186" x="119.5" y="249.125"/><text fill="#888888" font-family="sans-serif" font-size="10" lengthAdjust="spacing" textLength="186" x="119.5" y="258.4072">UMLDoclet 2.0.19, PlantUML 1.2022.8</text><!--MD5=[44a3a25a45a40c4026d5dd4028e0a2c4]
@startuml
    remove .*\.(Instance|Par|Parameterizer|Factory)$
    set namespaceSeparator none
    hide empty fields
    hide empty methods

    class "<size:14>ByteArrayUtil.LongSerializer\n<size:10>elki.utilities.io" as elki.utilities.io.ByteArrayUtil.LongSerializer [[ByteArrayUtil.LongSerializer.html]] {
        +- -fromByteBuffer- -(ByteBuffer): Long
        +- -toByteBuffer- -(ByteBuffer, Long): void
        +- -getByteSize- -(Long): int
        +getFixedByteSize(): int
    }

    interface "<size:14>FixedSizeByteBufferSerializer\n<size:10>elki.utilities.io" as elki.utilities.io.FixedSizeByteBufferSerializer<Long> [[FixedSizeByteBufferSerializer.html]] {
        {abstract} +getFixedByteSize(): int
    }
    class "<size:14>ByteArrayUtil\n<size:10>elki.utilities.io" as elki.utilities.io.ByteArrayUtil [[ByteArrayUtil.html]]

    elki.utilities.io.FixedSizeByteBufferSerializer <|.. elki.utilities.io.ByteArrayUtil.LongSerializer
    elki.utilities.io.ByteArrayUtil +- - elki.utilities.io.ByteArrayUtil.LongSerializer

    center footer UMLDoclet 2.0.19, PlantUML 1.2022.8
@enduml

PlantUML version 1.2022.8(Sun Sep 25 11:00:33 CEST 2022)
(APACHE source distribution)
Java Runtime: OpenJDK Runtime Environment
JVM: OpenJDK 64-Bit Server VM
Default Encoding: UTF-8
Language: de
Country: DE
--></g></svg>