<?xml version="1.0" encoding="UTF-8" standalone="no"?><svg xmlns="http://www.w3.org/2000/svg" xmlns:xlink="http://www.w3.org/1999/xlink" contentStyleType="text/css" height="437px" preserveAspectRatio="none" style="width:330px;height:437px;background:#FFFFFF;" version="1.1" viewBox="0 0 330 437" width="330px" zoomAndPan="magnify"><defs/><g><!--MD5=[65571a0f1c4ef44541a7c353be5e6078]
class elki.index.tree.metrical.mtreevariants.mktrees.mkcop.ApproximationLine--><a href="ApproximationLine.html" target="_top" title="ApproximationLine.html" xlink:actuate="onRequest" xlink:href="ApproximationLine.html" xlink:show="new" xlink:title="ApproximationLine.html" xlink:type="simple"><g id="elem_elki.index.tree.metrical.mtreevariants.mktrees.mkcop.ApproximationLine"><rect codeLine="6" fill="#F1F1F1" height="265.7969" id="elki.index.tree.metrical.mtreevariants.mktrees.mkcop.ApproximationLine" rx="2.5" ry="2.5" style="stroke:#181818;stroke-width:0.5;" width="316" x="7" y="146"/><ellipse cx="33.25" cy="164.9688" fill="#ADD1B2" rx="11" ry="11" style="stroke:#181818;stroke-width:1.0;"/><path d="M36.2188,170.6094 Q35.6406,170.9063 35,171.0469 Q34.3594,171.2031 33.6563,171.2031 Q31.1563,171.2031 29.8281,169.5625 Q28.5156,167.9063 28.5156,164.7813 Q28.5156,161.6563 29.8281,160 Q31.1563,158.3438 33.6563,158.3438 Q34.3594,158.3438 35,158.5 Q35.6563,158.6563 36.2188,158.9531 L36.2188,161.6719 Q35.5938,161.0938 35,160.8281 Q34.4063,160.5469 33.7813,160.5469 Q32.4375,160.5469 31.75,161.625 Q31.0625,162.6875 31.0625,164.7813 Q31.0625,166.875 31.75,167.9531 Q32.4375,169.0156 33.7813,169.0156 Q34.4063,169.0156 35,168.75 Q35.5938,168.4688 36.2188,167.8906 L36.2188,170.6094 Z " fill="#000000"/><text fill="#000000" font-family="sans-serif" font-size="14" lengthAdjust="spacing" textLength="126" x="116.25" y="163.9951">ApproximationLine</text><text fill="#000000" font-family="sans-serif" font-size="10" lengthAdjust="spacing" textLength="259" x="49.75" y="176.5791">elki.index.tree.metrical.mtreevariants.mktrees.mkcop</text><line style="stroke:#181818;stroke-width:0.5;" x1="8" x2="322" y1="183.9375" y2="183.9375"/><rect fill="none" height="6" style="stroke:#C82930;stroke-width:1.0;" width="6" x="15" y="194.5859"/><text fill="#000000" font-family="sans-serif" font-size="14" lengthAdjust="spacing" text-decoration="underline" textLength="151" x="27" y="200.9326">serialVersionUID: long</text><rect fill="none" height="6" style="stroke:#C82930;stroke-width:1.0;" width="6" x="15" y="210.8828"/><text fill="#000000" font-family="sans-serif" font-size="14" lengthAdjust="spacing" textLength="70" x="27" y="217.2295">m: double</text><rect fill="none" height="6" style="stroke:#C82930;stroke-width:1.0;" width="6" x="15" y="227.1797"/><text fill="#000000" font-family="sans-serif" font-size="14" lengthAdjust="spacing" textLength="62" x="27" y="233.5264">t: double</text><rect fill="none" height="6" style="stroke:#C82930;stroke-width:1.0;" width="6" x="15" y="243.4766"/><text fill="#000000" font-family="sans-serif" font-size="14" lengthAdjust="spacing" textLength="50" x="27" y="249.8232">k_0: int</text><line style="stroke:#181818;stroke-width:0.5;" x1="8" x2="322" y1="257.125" y2="257.125"/><ellipse cx="18" cy="270.7734" fill="#84BE84" rx="3" ry="3" style="stroke:#038048;stroke-width:1.0;"/><text fill="#000000" font-family="sans-serif" font-size="14" lengthAdjust="spacing" textLength="136" x="27" y="274.1201">ApproximationLine()</text><ellipse cx="18" cy="287.0703" fill="#84BE84" rx="3" ry="3" style="stroke:#038048;stroke-width:1.0;"/><text fill="#000000" font-family="sans-serif" font-size="14" lengthAdjust="spacing" textLength="265" x="27" y="290.417">ApproximationLine(int, double, double)</text><ellipse cx="18" cy="303.3672" fill="#84BE84" rx="3" ry="3" style="stroke:#038048;stroke-width:1.0;"/><text fill="#000000" font-family="sans-serif" font-size="14" lengthAdjust="spacing" textLength="102" x="27" y="306.7139">getM(): double</text><ellipse cx="18" cy="319.6641" fill="#84BE84" rx="3" ry="3" style="stroke:#038048;stroke-width:1.0;"/><text fill="#000000" font-family="sans-serif" font-size="14" lengthAdjust="spacing" textLength="99" x="27" y="323.0107">getT(): double</text><ellipse cx="18" cy="335.9609" fill="#84BE84" rx="3" ry="3" style="stroke:#038048;stroke-width:1.0;"/><text fill="#000000" font-family="sans-serif" font-size="14" lengthAdjust="spacing" textLength="84" x="27" y="339.3076">getK_0(): int</text><ellipse cx="18" cy="352.2578" fill="#84BE84" rx="3" ry="3" style="stroke:#038048;stroke-width:1.0;"/><text fill="#000000" font-family="sans-serif" font-size="14" lengthAdjust="spacing" textLength="159" x="27" y="355.6045">getValueAt(int): double</text><ellipse cx="18" cy="368.5547" fill="#84BE84" rx="3" ry="3" style="stroke:#038048;stroke-width:1.0;"/><text fill="#000000" font-family="sans-serif" font-size="14" lengthAdjust="spacing" textLength="290" x="27" y="371.9014">getApproximatedKnnDistance(int): double</text><ellipse cx="18" cy="384.8516" fill="#84BE84" rx="3" ry="3" style="stroke:#038048;stroke-width:1.0;"/><text fill="#000000" font-family="sans-serif" font-size="14" lengthAdjust="spacing" textLength="228" x="27" y="388.1982">writeExternal(ObjectOutput): void</text><ellipse cx="18" cy="401.1484" fill="#84BE84" rx="3" ry="3" style="stroke:#038048;stroke-width:1.0;"/><text fill="#000000" font-family="sans-serif" font-size="14" lengthAdjust="spacing" textLength="213" x="27" y="404.4951">readExternal(ObjectInput): void</text></g></a><!--MD5=[a0b94d8eead1d7e17630c46d7bb7bb24]
class java.io.Externalizable--><g id="elem_java.io.Externalizable"><rect codeLine="22" fill="#F1F1F1" height="78.5313" id="java.io.Externalizable" rx="2.5" ry="2.5" style="stroke:#181818;stroke-width:0.5;" width="261" x="34.5" y="7"/><ellipse cx="110.75" cy="25.9688" fill="#B4A7E5" rx="11" ry="11" style="stroke:#181818;stroke-width:1.0;"/><path d="M106.6719,21.7344 L106.6719,19.5781 L114.0625,19.5781 L114.0625,21.7344 L111.5938,21.7344 L111.5938,29.8125 L114.0625,29.8125 L114.0625,31.9688 L106.6719,31.9688 L106.6719,29.8125 L109.1406,29.8125 L109.1406,21.7344 L106.6719,21.7344 Z " fill="#000000"/><text fill="#000000" font-family="sans-serif" font-size="14" font-style="italic" lengthAdjust="spacing" textLength="100" x="131.25" y="24.9951">Externalizable</text><text fill="#000000" font-family="sans-serif" font-size="10" font-style="italic" lengthAdjust="spacing" textLength="33" x="164.75" y="37.5791">java.io</text><line style="stroke:#181818;stroke-width:0.5;" x1="35.5" x2="294.5" y1="44.9375" y2="44.9375"/><ellipse cx="45.5" cy="58.5859" fill="#84BE84" rx="3" ry="3" style="stroke:#038048;stroke-width:1.0;"/><text fill="#000000" font-family="sans-serif" font-size="14" font-style="italic" lengthAdjust="spacing" textLength="235" x="54.5" y="61.9326">writeExternal(ObjectOutput): void</text><ellipse cx="45.5" cy="74.8828" fill="#84BE84" rx="3" ry="3" style="stroke:#038048;stroke-width:1.0;"/><text fill="#000000" font-family="sans-serif" font-size="14" font-style="italic" lengthAdjust="spacing" textLength="221" x="54.5" y="78.2295">readExternal(ObjectInput): void</text></g><!--MD5=[8cfe40df308cfd408692b4abb94b560d]
reverse link java.io.Externalizable to elki.index.tree.metrical.mtreevariants.mktrees.mkcop.ApproximationLine--><g id="link_java.io.Externalizable_elki.index.tree.metrical.mtreevariants.mktrees.mkcop.ApproximationLine"><path codeLine="27" d="M165,106.19 C165,118.49 165,131.95 165,145.73 " fill="none" id="java.io.Externalizable-backto-elki.index.tree.metrical.mtreevariants.mktrees.mkcop.ApproximationLine" style="stroke:#181818;stroke-width:1.0;stroke-dasharray:7.0,7.0;"/><polygon fill="none" points="158,106.08,165,86.08,172,106.08,158,106.08" style="stroke:#181818;stroke-width:1.0;"/></g><rect fill="none" height="11.6406" style="stroke:none;stroke-width:1.0;" width="186" x="65" y="417.7969"/><text fill="#888888" font-family="sans-serif" font-size="10" lengthAdjust="spacing" textLength="186" x="65" y="427.0791">UMLDoclet 2.0.19, PlantUML 1.2022.8</text><!--MD5=[2346fd9ec2c00542edae787d4ff5072b]
@startuml
    remove .*\.(Instance|Par|Parameterizer|Factory)$
    set namespaceSeparator none
    hide empty fields
    hide empty methods

    class "<size:14>ApproximationLine\n<size:10>elki.index.tree.metrical.mtreevariants.mktrees.mkcop" as elki.index.tree.metrical.mtreevariants.mktrees.mkcop.ApproximationLine [[ApproximationLine.html]] {
        {static} -serialVersionUID: long
        -m: double
        -t: double
        -k_0: int
        +ApproximationLine()
        +ApproximationLine(int, double, double)
        +getM(): double
        +getT(): double
        +getK_0(): int
        +getValueAt(int): double
        +getApproximatedKnnDistance(int): double
        +writeExternal(ObjectOutput): void
        +readExternal(ObjectInput): void
    }

    interface "<size:14>Externalizable\n<size:10>java.io" as java.io.Externalizable {
        {abstract} +writeExternal(ObjectOutput): void
        {abstract} +readExternal(ObjectInput): void
    }

    java.io.Externalizable <|.. elki.index.tree.metrical.mtreevariants.mktrees.mkcop.ApproximationLine

    center footer UMLDoclet 2.0.19, PlantUML 1.2022.8
@enduml

PlantUML version 1.2022.8(Sun Sep 25 11:00:33 CEST 2022)
(APACHE source distribution)
Java Runtime: OpenJDK Runtime Environment
JVM: OpenJDK 64-Bit Server VM
Default Encoding: UTF-8
Language: de
Country: DE
--></g></svg>