<?xml version="1.0" encoding="UTF-8" standalone="no"?><svg xmlns="http://www.w3.org/2000/svg" xmlns:xlink="http://www.w3.org/1999/xlink" contentStyleType="text/css" height="301px" preserveAspectRatio="none" style="width:949px;height:301px;background:#FFFFFF;" version="1.1" viewBox="0 0 949 301" width="949px" zoomAndPan="magnify"><defs/><g><!--MD5=[b91d2ecc4b496126f6f570e849cc6412]
class elki.index.tree.metrical.mtreevariants.mktrees.mkcop.MkCoPTreeNode--><a href="MkCoPTreeNode.html" target="_top" title="MkCoPTreeNode.html" xlink:actuate="onRequest" xlink:href="MkCoPTreeNode.html" xlink:show="new" xlink:title="MkCoPTreeNode.html" xlink:type="simple"><g id="elem_elki.index.tree.metrical.mtreevariants.mktrees.mkcop.MkCoPTreeNode"><rect codeLine="6" fill="#F1F1F1" height="168.0156" id="elki.index.tree.metrical.mtreevariants.mktrees.mkcop.MkCoPTreeNode" rx="2.5" ry="2.5" style="stroke:#181818;stroke-width:0.5;" width="929" x="9" y="108"/><ellipse cx="333.75" cy="126.9688" fill="#ADD1B2" rx="11" ry="11" style="stroke:#181818;stroke-width:1.0;"/><path d="M336.7188,132.6094 Q336.1406,132.9063 335.5,133.0469 Q334.8594,133.2031 334.1563,133.2031 Q331.6563,133.2031 330.3281,131.5625 Q329.0156,129.9063 329.0156,126.7813 Q329.0156,123.6563 330.3281,122 Q331.6563,120.3438 334.1563,120.3438 Q334.8594,120.3438 335.5,120.5 Q336.1563,120.6563 336.7188,120.9531 L336.7188,123.6719 Q336.0938,123.0938 335.5,122.8281 Q334.9063,122.5469 334.2813,122.5469 Q332.9375,122.5469 332.25,123.625 Q331.5625,124.6875 331.5625,126.7813 Q331.5625,128.875 332.25,129.9531 Q332.9375,131.0156 334.2813,131.0156 Q334.9063,131.0156 335.5,130.75 Q336.0938,130.4688 336.7188,129.8906 L336.7188,132.6094 Z " fill="#000000"/><text fill="#000000" font-family="sans-serif" font-size="14" lengthAdjust="spacing" textLength="117" x="425.25" y="125.9951">MkCoPTreeNode</text><text fill="#000000" font-family="sans-serif" font-size="10" lengthAdjust="spacing" textLength="259" x="354.25" y="138.5791">elki.index.tree.metrical.mtreevariants.mktrees.mkcop</text><rect fill="#FFFFFF" height="15.9688" style="stroke:#181818;stroke-width:1.0;stroke-dasharray:2.0,2.0;" width="10" x="931" y="105"/><text fill="#000000" font-family="sans-serif" font-size="12" font-style="italic" lengthAdjust="spacing" textLength="8" x="932" y="117.1387">O</text><line style="stroke:#181818;stroke-width:0.5;" x1="10" x2="937" y1="145.9375" y2="145.9375"/><rect fill="none" height="6" style="stroke:#C82930;stroke-width:1.0;" width="6" x="17" y="156.5859"/><text fill="#000000" font-family="sans-serif" font-size="14" lengthAdjust="spacing" text-decoration="underline" textLength="151" x="29" y="162.9326">serialVersionUID: long</text><line style="stroke:#181818;stroke-width:0.5;" x1="10" x2="937" y1="170.2344" y2="170.2344"/><ellipse cx="20" cy="183.8828" fill="#84BE84" rx="3" ry="3" style="stroke:#038048;stroke-width:1.0;"/><text fill="#000000" font-family="sans-serif" font-size="14" lengthAdjust="spacing" textLength="127" x="29" y="187.2295">MkCoPTreeNode()</text><ellipse cx="20" cy="200.1797" fill="#84BE84" rx="3" ry="3" style="stroke:#038048;stroke-width:1.0;"/><text fill="#000000" font-family="sans-serif" font-size="14" lengthAdjust="spacing" textLength="208" x="29" y="203.5264">MkCoPTreeNode(int, boolean)</text><polygon fill="#FFFF44" points="20,211.4766,24,215.4766,20,219.4766,16,215.4766" style="stroke:#B38D22;stroke-width:1.0;"/><text fill="#000000" font-family="sans-serif" font-size="14" lengthAdjust="spacing" textLength="435" x="29" y="219.8232">conservativeKnnDistanceApproximation(int): ApproximationLine</text><polygon fill="#FFFF44" points="20,227.7734,24,231.7734,20,235.7734,16,231.7734" style="stroke:#B38D22;stroke-width:1.0;"/><text fill="#000000" font-family="sans-serif" font-size="14" lengthAdjust="spacing" textLength="429" x="29" y="236.1201">progressiveKnnDistanceApproximation(int): ApproximationLine</text><ellipse cx="20" cy="249.0703" fill="#84BE84" rx="3" ry="3" style="stroke:#038048;stroke-width:1.0;"/><text fill="#000000" font-family="sans-serif" font-size="14" lengthAdjust="spacing" textLength="744" x="29" y="252.417">adjustEntry(MkCoPEntry, DBID, double, AbstractMTree&lt;O, MkCoPTreeNode&lt;O&gt;, MkCoPEntry, ?&gt;): boolean</text><polygon fill="#FFFF44" points="20,260.3672,24,264.3672,20,268.3672,16,264.3672" style="stroke:#B38D22;stroke-width:1.0;"/><text fill="#000000" font-family="sans-serif" font-size="14" lengthAdjust="spacing" textLength="903" x="29" y="268.7139">integrityCheckParameters(MkCoPEntry, MkCoPTreeNode&lt;O&gt;, int, AbstractMTree&lt;O, MkCoPTreeNode&lt;O&gt;, MkCoPEntry, ?&gt;): void</text></g></a><!--MD5=[fab94a6680cf081d8dd96217894caf49]
class elki.index.tree.metrical.mtreevariants.AbstractMTreeNode--><a href="../../AbstractMTreeNode.html" target="_top" title="../../AbstractMTreeNode.html" xlink:actuate="onRequest" xlink:href="../../AbstractMTreeNode.html" xlink:show="new" xlink:title="../../AbstractMTreeNode.html" xlink:type="simple"><g id="elem_elki.index.tree.metrical.mtreevariants.AbstractMTreeNode"><rect codeLine="16" fill="#F1F1F1" height="37.9375" id="elki.index.tree.metrical.mtreevariants.AbstractMTreeNode" rx="2.5" ry="2.5" style="stroke:#181818;stroke-width:0.5;" width="444" x="251.5" y="10"/><ellipse cx="266.5" cy="28.9688" fill="#A9DCDF" rx="11" ry="11" style="stroke:#181818;stroke-width:1.0;"/><path d="M266.6094,24.3125 L265.4531,29.3906 L267.7813,29.3906 L266.6094,24.3125 Z M265.125,22.0781 L268.1094,22.0781 L271.4688,34.4688 L269.0156,34.4688 L268.25,31.4063 L264.9688,31.4063 L264.2188,34.4688 L261.7813,34.4688 L265.125,22.0781 Z " fill="#000000"/><text fill="#000000" font-family="sans-serif" font-size="14" font-style="italic" lengthAdjust="spacing" textLength="140" x="305" y="27.9951">AbstractMTreeNode</text><text fill="#000000" font-family="sans-serif" font-size="10" font-style="italic" lengthAdjust="spacing" textLength="189" x="280.5" y="40.5791">elki.index.tree.metrical.mtreevariants</text><rect fill="#FFFFFF" height="15.9688" style="stroke:#181818;stroke-width:1.0;stroke-dasharray:2.0,2.0;" width="221" x="477.5" y="7"/><text fill="#000000" font-family="sans-serif" font-size="12" font-style="italic" lengthAdjust="spacing" textLength="219" x="478.5" y="19.1387">O, MkCoPTreeNode&lt;O&gt;, MkCoPEntry</text></g></a><!--MD5=[e11f516a0edeb2e2548b1b1aaa079913]
reverse link elki.index.tree.metrical.mtreevariants.AbstractMTreeNode to elki.index.tree.metrical.mtreevariants.mktrees.mkcop.MkCoPTreeNode--><g id="link_elki.index.tree.metrical.mtreevariants.AbstractMTreeNode_elki.index.tree.metrical.mtreevariants.mktrees.mkcop.MkCoPTreeNode"><path codeLine="18" d="M473.5,68.53 C473.5,80.44 473.5,94.04 473.5,107.75 " fill="none" id="elki.index.tree.metrical.mtreevariants.AbstractMTreeNode-backto-elki.index.tree.metrical.mtreevariants.mktrees.mkcop.MkCoPTreeNode" style="stroke:#181818;stroke-width:1.0;"/><polygon fill="none" points="466.5,68.16,473.5,48.16,480.5,68.16,466.5,68.16" style="stroke:#181818;stroke-width:1.0;"/></g><rect fill="none" height="11.6406" style="stroke:none;stroke-width:1.0;" width="186" x="374.5" y="282.0156"/><text fill="#888888" font-family="sans-serif" font-size="10" lengthAdjust="spacing" textLength="186" x="374.5" y="291.2979">UMLDoclet 2.0.19, PlantUML 1.2022.8</text><!--MD5=[2c117a8018735f2c77f64e44f4dce8f7]
@startuml
    remove .*\.(Instance|Par|Parameterizer|Factory)$
    set namespaceSeparator none
    hide empty fields
    hide empty methods

    class "<size:14>MkCoPTreeNode\n<size:10>elki.index.tree.metrical.mtreevariants.mktrees.mkcop" as elki.index.tree.metrical.mtreevariants.mktrees.mkcop.MkCoPTreeNode<O> [[MkCoPTreeNode.html]] {
        {static} -serialVersionUID: long
        +MkCoPTreeNode()
        +MkCoPTreeNode(int, boolean)
        #conservativeKnnDistanceApproximation(int): ApproximationLine
        #progressiveKnnDistanceApproximation(int): ApproximationLine
        +adjustEntry(MkCoPEntry, DBID, double, AbstractMTree<O, MkCoPTreeNode<O>, MkCoPEntry, ?>): boolean
        #integrityCheckParameters(MkCoPEntry, MkCoPTreeNode<O>, int, AbstractMTree<O, MkCoPTreeNode<O>, MkCoPEntry, ?>): void
    }

    abstract class "<size:14>AbstractMTreeNode\n<size:10>elki.index.tree.metrical.mtreevariants" as elki.index.tree.metrical.mtreevariants.AbstractMTreeNode<O, MkCoPTreeNode<O>, MkCoPEntry> [[../../AbstractMTreeNode.html]]

    elki.index.tree.metrical.mtreevariants.AbstractMTreeNode <|- - elki.index.tree.metrical.mtreevariants.mktrees.mkcop.MkCoPTreeNode

    center footer UMLDoclet 2.0.19, PlantUML 1.2022.8
@enduml

PlantUML version 1.2022.8(Sun Sep 25 11:00:33 CEST 2022)
(APACHE source distribution)
Java Runtime: OpenJDK Runtime Environment
JVM: OpenJDK 64-Bit Server VM
Default Encoding: UTF-8
Language: de
Country: DE
--></g></svg>