<?xml version="1.0" encoding="UTF-8" standalone="no"?><svg xmlns="http://www.w3.org/2000/svg" xmlns:xlink="http://www.w3.org/1999/xlink" contentStyleType="text/css" height="260px" preserveAspectRatio="none" style="width:448px;height:260px;background:#FFFFFF;" version="1.1" viewBox="0 0 448 260" width="448px" zoomAndPan="magnify"><defs/><g><!--MD5=[aa7031f4c961e38fbdb8f7e61fa739b0]
class elki.database.datastore.DataStoreUtil.AscendingByIntegerDataStore--><a href="DataStoreUtil.AscendingByIntegerDataStore.html" target="_top" title="DataStoreUtil.AscendingByIntegerDataStore.html" xlink:actuate="onRequest" xlink:href="DataStoreUtil.AscendingByIntegerDataStore.html" xlink:show="new" xlink:title="DataStoreUtil.AscendingByIntegerDataStore.html" xlink:type="simple"><g id="elem_elki.database.datastore.DataStoreUtil.AscendingByIntegerDataStore"><rect codeLine="6" fill="#F1F1F1" height="102.8281" id="elki.database.datastore.DataStoreUtil.AscendingByIntegerDataStore" rx="2.5" ry="2.5" style="stroke:#181818;stroke-width:0.5;" width="362" x="70" y="132"/><ellipse cx="97.6" cy="150.9688" fill="#ADD1B2" rx="11" ry="11" style="stroke:#181818;stroke-width:1.0;"/><path d="M100.5688,156.6094 Q99.9906,156.9063 99.35,157.0469 Q98.7094,157.2031 98.0063,157.2031 Q95.5063,157.2031 94.1781,155.5625 Q92.8656,153.9063 92.8656,150.7813 Q92.8656,147.6563 94.1781,146 Q95.5063,144.3438 98.0063,144.3438 Q98.7094,144.3438 99.35,144.5 Q100.0063,144.6563 100.5688,144.9531 L100.5688,147.6719 Q99.9438,147.0938 99.35,146.8281 Q98.7563,146.5469 98.1313,146.5469 Q96.7875,146.5469 96.1,147.625 Q95.4125,148.6875 95.4125,150.7813 Q95.4125,152.875 96.1,153.9531 Q96.7875,155.0156 98.1313,155.0156 Q98.7563,155.0156 99.35,154.75 Q99.9438,154.4688 100.5688,153.8906 L100.5688,156.6094 Z " fill="#000000"/><text fill="#000000" font-family="sans-serif" font-size="14" lengthAdjust="spacing" textLength="302" x="114.4" y="149.9951">DataStoreUtil.AscendingByIntegerDataStore</text><text fill="#000000" font-family="sans-serif" font-size="10" lengthAdjust="spacing" textLength="113" x="208.9" y="162.5791">elki.database.datastore</text><line style="stroke:#181818;stroke-width:0.5;" x1="71" x2="431" y1="169.9375" y2="169.9375"/><rect fill="none" height="6" style="stroke:#C82930;stroke-width:1.0;" width="6" x="78" y="180.5859"/><text fill="#000000" font-family="sans-serif" font-size="14" lengthAdjust="spacing" textLength="174" x="90" y="186.9326">scores: IntegerDataStore</text><line style="stroke:#181818;stroke-width:0.5;" x1="71" x2="431" y1="194.2344" y2="194.2344"/><ellipse cx="81" cy="207.8828" fill="#84BE84" rx="3" ry="3" style="stroke:#038048;stroke-width:1.0;"/><text fill="#000000" font-family="sans-serif" font-size="14" lengthAdjust="spacing" textLength="336" x="90" y="211.2295">AscendingByIntegerDataStore(IntegerDataStore)</text><ellipse cx="81" cy="224.1797" fill="#84BE84" rx="3" ry="3" style="stroke:#038048;stroke-width:1.0;"/><text fill="#000000" font-family="sans-serif" font-size="14" lengthAdjust="spacing" textLength="221" x="90" y="227.5264">compare(DBIDRef, DBIDRef): int</text></g></a><!--MD5=[ab8fa349a1e2e86ca8104897b03d4899]
class java.util.Comparator--><g id="elem_java.util.Comparator"><rect codeLine="12" fill="#F1F1F1" height="62.2344" id="java.util.Comparator" rx="2.5" ry="2.5" style="stroke:#181818;stroke-width:0.5;" width="254" x="7" y="10"/><ellipse cx="61.25" cy="28.9688" fill="#B4A7E5" rx="11" ry="11" style="stroke:#181818;stroke-width:1.0;"/><path d="M57.1719,24.7344 L57.1719,22.5781 L64.5625,22.5781 L64.5625,24.7344 L62.0938,24.7344 L62.0938,32.8125 L64.5625,32.8125 L64.5625,34.9688 L57.1719,34.9688 L57.1719,32.8125 L59.6406,32.8125 L59.6406,24.7344 L57.1719,24.7344 Z " fill="#000000"/><text fill="#000000" font-family="sans-serif" font-size="14" font-style="italic" lengthAdjust="spacing" textLength="84" x="81.75" y="27.9951">Comparator</text><text fill="#000000" font-family="sans-serif" font-size="10" font-style="italic" lengthAdjust="spacing" textLength="40" x="103.75" y="40.5791">java.util</text><rect fill="#FFFFFF" height="15.9688" style="stroke:#181818;stroke-width:1.0;stroke-dasharray:2.0,2.0;" width="51" x="213" y="7"/><text fill="#000000" font-family="sans-serif" font-size="12" font-style="italic" lengthAdjust="spacing" textLength="49" x="214" y="19.1387">DBIDRef</text><line style="stroke:#181818;stroke-width:0.5;" x1="8" x2="260" y1="47.9375" y2="47.9375"/><ellipse cx="18" cy="61.5859" fill="#84BE84" rx="3" ry="3" style="stroke:#038048;stroke-width:1.0;"/><text fill="#000000" font-family="sans-serif" font-size="14" font-style="italic" lengthAdjust="spacing" textLength="228" x="27" y="64.9326">compare(DBIDRef, DBIDRef): int</text></g><!--MD5=[d13162fc977cb8e4162eadef3c875e84]
class elki.database.datastore.DataStoreUtil--><a href="DataStoreUtil.html" target="_top" title="DataStoreUtil.html" xlink:actuate="onRequest" xlink:href="DataStoreUtil.html" xlink:show="new" xlink:title="DataStoreUtil.html" xlink:type="simple"><g id="elem_elki.database.datastore.DataStoreUtil"><rect codeLine="15" fill="#F1F1F1" height="37.9375" id="elki.database.datastore.DataStoreUtil" rx="2.5" ry="2.5" style="stroke:#181818;stroke-width:0.5;" width="145" x="296.5" y="22"/><ellipse cx="311.5" cy="40.9688" fill="#ADD1B2" rx="11" ry="11" style="stroke:#181818;stroke-width:1.0;"/><path d="M314.4688,46.6094 Q313.8906,46.9063 313.25,47.0469 Q312.6094,47.2031 311.9063,47.2031 Q309.4063,47.2031 308.0781,45.5625 Q306.7656,43.9063 306.7656,40.7813 Q306.7656,37.6563 308.0781,36 Q309.4063,34.3438 311.9063,34.3438 Q312.6094,34.3438 313.25,34.5 Q313.9063,34.6563 314.4688,34.9531 L314.4688,37.6719 Q313.8438,37.0938 313.25,36.8281 Q312.6563,36.5469 312.0313,36.5469 Q310.6875,36.5469 310,37.625 Q309.3125,38.6875 309.3125,40.7813 Q309.3125,42.875 310,43.9531 Q310.6875,45.0156 312.0313,45.0156 Q312.6563,45.0156 313.25,44.75 Q313.8438,44.4688 314.4688,43.8906 L314.4688,46.6094 Z " fill="#000000"/><text fill="#000000" font-family="sans-serif" font-size="14" lengthAdjust="spacing" textLength="90" x="337" y="39.9951">DataStoreUtil</text><text fill="#000000" font-family="sans-serif" font-size="10" lengthAdjust="spacing" textLength="113" x="325.5" y="52.5791">elki.database.datastore</text></g></a><!--MD5=[e94ca6c3c95f75bc2822e109e80f21c2]
reverse link java.util.Comparator to elki.database.datastore.DataStoreUtil.AscendingByIntegerDataStore--><g id="link_java.util.Comparator_elki.database.datastore.DataStoreUtil.AscendingByIntegerDataStore"><path codeLine="17" d="M172.18,87.85 C183.92,101.95 196.92,117.56 208.91,131.96 " fill="none" id="java.util.Comparator-backto-elki.database.datastore.DataStoreUtil.AscendingByIntegerDataStore" style="stroke:#181818;stroke-width:1.0;stroke-dasharray:7.0,7.0;"/><polygon fill="none" points="166.52,91.99,159.1,72.14,177.28,83.03,166.52,91.99" style="stroke:#181818;stroke-width:1.0;"/></g><!--MD5=[0a64f7b0b553b861fec459e5db40fb61]
reverse link elki.database.datastore.DataStoreUtil to elki.database.datastore.DataStoreUtil.AscendingByIntegerDataStore--><g id="link_elki.database.datastore.DataStoreUtil_elki.database.datastore.DataStoreUtil.AscendingByIntegerDataStore"><path codeLine="18" d="M343.99,71.78 C329.34,89.22 310.46,111.71 293.54,131.85 " fill="none" id="elki.database.datastore.DataStoreUtil-backto-elki.database.datastore.DataStoreUtil.AscendingByIntegerDataStore" style="stroke:#181818;stroke-width:1.0;"/><ellipse cx="348.6761" cy="66.207" fill="#FFFFFF" rx="8" ry="8" style="stroke:#181818;stroke-width:1.0;"/><line style="stroke:#181818;stroke-width:1.0;" x1="343.5321" x2="353.82" y1="72.334" y2="60.08"/><line style="stroke:#181818;stroke-width:1.0;" x1="342.5491" x2="354.8031" y1="61.0631" y2="71.3509"/></g><rect fill="none" height="11.6406" style="stroke:none;stroke-width:1.0;" width="186" x="124.25" y="240.8281"/><text fill="#888888" font-family="sans-serif" font-size="10" lengthAdjust="spacing" textLength="186" x="124.25" y="250.1104">UMLDoclet 2.0.19, PlantUML 1.2022.8</text><!--MD5=[96663809b89673fc4e4ce936e2dd67c1]
@startuml
    remove .*\.(Instance|Par|Parameterizer|Factory)$
    set namespaceSeparator none
    hide empty fields
    hide empty methods

    class "<size:14>DataStoreUtil.AscendingByIntegerDataStore\n<size:10>elki.database.datastore" as elki.database.datastore.DataStoreUtil.AscendingByIntegerDataStore [[DataStoreUtil.AscendingByIntegerDataStore.html]] {
        -scores: IntegerDataStore
        +AscendingByIntegerDataStore(IntegerDataStore)
        +compare(DBIDRef, DBIDRef): int
    }

    interface "<size:14>Comparator\n<size:10>java.util" as java.util.Comparator<DBIDRef> {
        {abstract} +compare(DBIDRef, DBIDRef): int
    }
    class "<size:14>DataStoreUtil\n<size:10>elki.database.datastore" as elki.database.datastore.DataStoreUtil [[DataStoreUtil.html]]

    java.util.Comparator <|.. elki.database.datastore.DataStoreUtil.AscendingByIntegerDataStore
    elki.database.datastore.DataStoreUtil +- - elki.database.datastore.DataStoreUtil.AscendingByIntegerDataStore

    center footer UMLDoclet 2.0.19, PlantUML 1.2022.8
@enduml

PlantUML version 1.2022.8(Sun Sep 25 11:00:33 CEST 2022)
(APACHE source distribution)
Java Runtime: OpenJDK Runtime Environment
JVM: OpenJDK 64-Bit Server VM
Default Encoding: UTF-8
Language: de
Country: DE
--></g></svg>