<?xml version="1.0" encoding="UTF-8" standalone="no"?><svg xmlns="http://www.w3.org/2000/svg" xmlns:xlink="http://www.w3.org/1999/xlink" contentStyleType="text/css" height="420px" preserveAspectRatio="none" style="width:365px;height:420px;background:#FFFFFF;" version="1.1" viewBox="0 0 365 420" width="365px" zoomAndPan="magnify"><defs/><g><!--MD5=[4a5a48e894e5d642ee5d98c4ab5d019c]
class elki.logging.CLISmartHandler--><a href="CLISmartHandler.html" target="_top" title="CLISmartHandler.html" xlink:actuate="onRequest" xlink:href="CLISmartHandler.html" xlink:show="new" xlink:title="CLISmartHandler.html" xlink:type="simple"><g id="elem_elki.logging.CLISmartHandler"><rect codeLine="6" fill="#F1F1F1" height="233.2031" id="elki.logging.CLISmartHandler" rx="2.5" ry="2.5" style="stroke:#181818;stroke-width:0.5;" width="351" x="7" y="162"/><ellipse cx="121.75" cy="180.9688" fill="#ADD1B2" rx="11" ry="11" style="stroke:#181818;stroke-width:1.0;"/><path d="M124.7188,186.6094 Q124.1406,186.9063 123.5,187.0469 Q122.8594,187.2031 122.1563,187.2031 Q119.6563,187.2031 118.3281,185.5625 Q117.0156,183.9063 117.0156,180.7813 Q117.0156,177.6563 118.3281,176 Q119.6563,174.3438 122.1563,174.3438 Q122.8594,174.3438 123.5,174.5 Q124.1563,174.6563 124.7188,174.9531 L124.7188,177.6719 Q124.0938,177.0938 123.5,176.8281 Q122.9063,176.5469 122.2813,176.5469 Q120.9375,176.5469 120.25,177.625 Q119.5625,178.6875 119.5625,180.7813 Q119.5625,182.875 120.25,183.9531 Q120.9375,185.0156 122.2813,185.0156 Q122.9063,185.0156 123.5,184.75 Q124.0938,184.4688 124.7188,183.8906 L124.7188,186.6094 Z " fill="#000000"/><text fill="#000000" font-family="sans-serif" font-size="14" lengthAdjust="spacing" textLength="113" x="142.25" y="179.9951">CLISmartHandler</text><text fill="#000000" font-family="sans-serif" font-size="10" lengthAdjust="spacing" textLength="52" x="172.75" y="192.5791">elki.logging</text><line style="stroke:#181818;stroke-width:0.5;" x1="8" x2="357" y1="199.9375" y2="199.9375"/><rect fill="none" height="6" style="stroke:#C82930;stroke-width:1.0;" width="6" x="15" y="210.5859"/><text fill="#000000" font-family="sans-serif" font-size="14" lengthAdjust="spacing" textLength="72" x="27" y="216.9326">out: Writer</text><rect fill="none" height="6" style="stroke:#C82930;stroke-width:1.0;" width="6" x="15" y="226.8828"/><text fill="#000000" font-family="sans-serif" font-size="14" lengthAdjust="spacing" textLength="68" x="27" y="233.2295">err: Writer</text><rect fill="none" height="6" style="stroke:#C82930;stroke-width:1.0;" width="6" x="15" y="243.1797"/><text fill="#000000" font-family="sans-serif" font-size="14" lengthAdjust="spacing" textLength="150" x="27" y="249.5264">msgformat: Formatter</text><rect fill="none" height="6" style="stroke:#C82930;stroke-width:1.0;" width="6" x="15" y="259.4766"/><text fill="#000000" font-family="sans-serif" font-size="14" lengthAdjust="spacing" textLength="165" x="27" y="265.8232">debugformat: Formatter</text><rect fill="none" height="6" style="stroke:#C82930;stroke-width:1.0;" width="6" x="15" y="275.7734"/><text fill="#000000" font-family="sans-serif" font-size="14" lengthAdjust="spacing" textLength="139" x="27" y="282.1201">errformat: Formatter</text><rect fill="none" height="6" style="stroke:#C82930;stroke-width:1.0;" width="6" x="15" y="292.0703"/><text fill="#000000" font-family="sans-serif" font-size="14" lengthAdjust="spacing" textLength="166" x="27" y="298.417">ptrack: ProgressTracker</text><line style="stroke:#181818;stroke-width:0.5;" x1="8" x2="357" y1="305.7188" y2="305.7188"/><ellipse cx="18" cy="319.3672" fill="#84BE84" rx="3" ry="3" style="stroke:#038048;stroke-width:1.0;"/><text fill="#000000" font-family="sans-serif" font-size="14" lengthAdjust="spacing" textLength="325" x="27" y="322.7139">CLISmartHandler(OutputStream, OutputStream)</text><ellipse cx="18" cy="335.6641" fill="#84BE84" rx="3" ry="3" style="stroke:#038048;stroke-width:1.0;"/><text fill="#000000" font-family="sans-serif" font-size="14" lengthAdjust="spacing" textLength="123" x="27" y="339.0107">CLISmartHandler()</text><ellipse cx="18" cy="351.9609" fill="#84BE84" rx="3" ry="3" style="stroke:#038048;stroke-width:1.0;"/><text fill="#000000" font-family="sans-serif" font-size="14" lengthAdjust="spacing" textLength="84" x="27" y="355.3076">close(): void</text><ellipse cx="18" cy="368.2578" fill="#84BE84" rx="3" ry="3" style="stroke:#038048;stroke-width:1.0;"/><text fill="#000000" font-family="sans-serif" font-size="14" lengthAdjust="spacing" textLength="80" x="27" y="371.6045">flush(): void</text><ellipse cx="18" cy="384.5547" fill="#84BE84" rx="3" ry="3" style="stroke:#038048;stroke-width:1.0;"/><text fill="#000000" font-family="sans-serif" font-size="14" lengthAdjust="spacing" textLength="172" x="27" y="387.9014">publish(LogRecord): void</text></g></a><!--MD5=[eafdfb2280e4d25e0fdfaf8dff485424]
class java.util.logging.Handler--><g id="elem_java.util.logging.Handler"><rect codeLine="20" fill="#F1F1F1" height="94.8281" id="java.util.logging.Handler" rx="2.5" ry="2.5" style="stroke:#181818;stroke-width:0.5;" width="202" x="81.5" y="7"/><ellipse cx="138.75" cy="25.9688" fill="#A9DCDF" rx="11" ry="11" style="stroke:#181818;stroke-width:1.0;"/><path d="M138.8594,21.3125 L137.7031,26.3906 L140.0313,26.3906 L138.8594,21.3125 Z M137.375,19.0781 L140.3594,19.0781 L143.7188,31.4688 L141.2656,31.4688 L140.5,28.4063 L137.2188,28.4063 L136.4688,31.4688 L134.0313,31.4688 L137.375,19.0781 Z " fill="#000000"/><text fill="#000000" font-family="sans-serif" font-size="14" font-style="italic" lengthAdjust="spacing" textLength="56" x="170.75" y="24.9951">Handler</text><text fill="#000000" font-family="sans-serif" font-size="10" font-style="italic" lengthAdjust="spacing" textLength="79" x="159.25" y="37.5791">java.util.logging</text><line style="stroke:#181818;stroke-width:0.5;" x1="82.5" x2="282.5" y1="44.9375" y2="44.9375"/><ellipse cx="92.5" cy="58.5859" fill="#84BE84" rx="3" ry="3" style="stroke:#038048;stroke-width:1.0;"/><text fill="#000000" font-family="sans-serif" font-size="14" font-style="italic" lengthAdjust="spacing" textLength="176" x="101.5" y="61.9326">publish(LogRecord): void</text><ellipse cx="92.5" cy="74.8828" fill="#84BE84" rx="3" ry="3" style="stroke:#038048;stroke-width:1.0;"/><text fill="#000000" font-family="sans-serif" font-size="14" font-style="italic" lengthAdjust="spacing" textLength="83" x="101.5" y="78.2295">flush(): void</text><ellipse cx="92.5" cy="91.1797" fill="#84BE84" rx="3" ry="3" style="stroke:#038048;stroke-width:1.0;"/><text fill="#000000" font-family="sans-serif" font-size="14" font-style="italic" lengthAdjust="spacing" textLength="86" x="101.5" y="94.5264">close(): void</text></g><!--MD5=[2016f43ba7a1be7277bf06ad6e4f1704]
reverse link java.util.logging.Handler to elki.logging.CLISmartHandler--><g id="link_java.util.logging.Handler_elki.logging.CLISmartHandler"><path codeLine="26" d="M182.5,122.24 C182.5,134.84 182.5,148.35 182.5,161.95 " fill="none" id="java.util.logging.Handler-backto-elki.logging.CLISmartHandler" style="stroke:#181818;stroke-width:1.0;"/><polygon fill="none" points="175.5,122.04,182.5,102.04,189.5,122.04,175.5,122.04" style="stroke:#181818;stroke-width:1.0;"/></g><rect fill="none" height="11.6406" style="stroke:none;stroke-width:1.0;" width="186" x="82.5" y="401.2031"/><text fill="#888888" font-family="sans-serif" font-size="10" lengthAdjust="spacing" textLength="186" x="82.5" y="410.4854">UMLDoclet 2.0.19, PlantUML 1.2022.8</text><!--MD5=[a0b45ac2366aa1525fdac8e0af493888]
@startuml
    remove .*\.(Instance|Par|Parameterizer|Factory)$
    set namespaceSeparator none
    hide empty fields
    hide empty methods

    class "<size:14>CLISmartHandler\n<size:10>elki.logging" as elki.logging.CLISmartHandler [[CLISmartHandler.html]] {
        -out: Writer
        -err: Writer
        -msgformat: Formatter
        -debugformat: Formatter
        -errformat: Formatter
        -ptrack: ProgressTracker
        +CLISmartHandler(OutputStream, OutputStream)
        +CLISmartHandler()
        +close(): void
        +flush(): void
        +publish(LogRecord): void
    }

    abstract class "<size:14>Handler\n<size:10>java.util.logging" as java.util.logging.Handler {
        {abstract} +publish(LogRecord): void
        {abstract} +flush(): void
        {abstract} +close(): void
    }

    java.util.logging.Handler <|- - elki.logging.CLISmartHandler

    center footer UMLDoclet 2.0.19, PlantUML 1.2022.8
@enduml

PlantUML version 1.2022.8(Sun Sep 25 11:00:33 CEST 2022)
(APACHE source distribution)
Java Runtime: OpenJDK Runtime Environment
JVM: OpenJDK 64-Bit Server VM
Default Encoding: UTF-8
Language: de
Country: DE
--></g></svg>