<?xml version="1.0" encoding="UTF-8" standalone="no"?><svg xmlns="http://www.w3.org/2000/svg" xmlns:xlink="http://www.w3.org/1999/xlink" contentStyleType="text/css" height="282px" preserveAspectRatio="none" style="width:242px;height:282px;background:#FFFFFF;" version="1.1" viewBox="0 0 242 282" width="242px" zoomAndPan="magnify"><defs/><g><!--MD5=[457d6e5e54442bdc11868e1be1dbd4fc]
class elki.logging.Logging.Level--><a href="Logging.Level.html" target="_top" title="Logging.Level.html" xlink:actuate="onRequest" xlink:href="Logging.Level.html" xlink:show="new" xlink:title="Logging.Level.html" xlink:type="simple"><g id="elem_elki.logging.Logging.Level"><rect codeLine="6" fill="#F1F1F1" height="151.7188" id="elki.logging.Logging.Level" rx="2.5" ry="2.5" style="stroke:#181818;stroke-width:0.5;" width="177" x="37.5" y="105"/><ellipse cx="75.45" cy="123.9688" fill="#ADD1B2" rx="11" ry="11" style="stroke:#181818;stroke-width:1.0;"/><path d="M78.4188,129.6094 Q77.8406,129.9063 77.2,130.0469 Q76.5594,130.2031 75.8563,130.2031 Q73.3563,130.2031 72.0281,128.5625 Q70.7156,126.9063 70.7156,123.7813 Q70.7156,120.6563 72.0281,119 Q73.3563,117.3438 75.8563,117.3438 Q76.5594,117.3438 77.2,117.5 Q77.8563,117.6563 78.4188,117.9531 L78.4188,120.6719 Q77.7938,120.0938 77.2,119.8281 Q76.6063,119.5469 75.9813,119.5469 Q74.6375,119.5469 73.95,120.625 Q73.2625,121.6875 73.2625,123.7813 Q73.2625,125.875 73.95,126.9531 Q74.6375,128.0156 75.9813,128.0156 Q76.6063,128.0156 77.2,127.75 Q77.7938,127.4688 78.4188,126.8906 L78.4188,129.6094 Z " fill="#000000"/><text fill="#000000" font-family="sans-serif" font-size="14" lengthAdjust="spacing" textLength="94" x="94.55" y="122.9951">Logging.Level</text><text fill="#000000" font-family="sans-serif" font-size="10" lengthAdjust="spacing" textLength="52" x="115.55" y="135.5791">elki.logging</text><line style="stroke:#181818;stroke-width:0.5;" x1="38.5" x2="213.5" y1="142.9375" y2="142.9375"/><ellipse cx="48.5" cy="156.5859" fill="none" rx="3" ry="3" style="stroke:#038048;stroke-width:1.0;"/><text fill="#000000" font-family="sans-serif" font-size="14" lengthAdjust="spacing" text-decoration="underline" textLength="123" x="57.5" y="159.9326">STATISTICS: Level</text><ellipse cx="48.5" cy="172.8828" fill="none" rx="3" ry="3" style="stroke:#038048;stroke-width:1.0;"/><text fill="#000000" font-family="sans-serif" font-size="14" lengthAdjust="spacing" text-decoration="underline" textLength="111" x="57.5" y="176.2295">VERBOSE: Level</text><ellipse cx="48.5" cy="189.1797" fill="none" rx="3" ry="3" style="stroke:#038048;stroke-width:1.0;"/><text fill="#000000" font-family="sans-serif" font-size="14" lengthAdjust="spacing" text-decoration="underline" textLength="148" x="57.5" y="192.5264">VERYVERBOSE: Level</text><rect fill="none" height="6" style="stroke:#C82930;stroke-width:1.0;" width="6" x="45.5" y="202.4766"/><text fill="#000000" font-family="sans-serif" font-size="14" lengthAdjust="spacing" text-decoration="underline" textLength="151" x="57.5" y="208.8232">serialVersionUID: long</text><line style="stroke:#181818;stroke-width:0.5;" x1="38.5" x2="213.5" y1="216.125" y2="216.125"/><ellipse cx="48.5" cy="229.7734" fill="#84BE84" rx="3" ry="3" style="stroke:#038048;stroke-width:1.0;"/><text fill="#000000" font-family="sans-serif" font-size="14" lengthAdjust="spacing" textLength="110" x="57.5" y="233.1201">Level(String, int)</text><ellipse cx="48.5" cy="246.0703" fill="#84BE84" rx="3" ry="3" style="stroke:#038048;stroke-width:1.0;"/><text fill="#000000" font-family="sans-serif" font-size="14" lengthAdjust="spacing" text-decoration="underline" textLength="133" x="57.5" y="249.417">parse(String): Level</text></g></a><!--MD5=[97858d589252501528b07b5b18181cbf]
class java.util.logging.Level--><g id="elem_java.util.logging.Level"><rect codeLine="15" fill="#F1F1F1" height="37.9375" id="java.util.logging.Level" rx="2.5" ry="2.5" style="stroke:#181818;stroke-width:0.5;" width="106" x="7" y="7"/><ellipse cx="22" cy="25.9688" fill="#ADD1B2" rx="11" ry="11" style="stroke:#181818;stroke-width:1.0;"/><path d="M24.9688,31.6094 Q24.3906,31.9063 23.75,32.0469 Q23.1094,32.2031 22.4063,32.2031 Q19.9063,32.2031 18.5781,30.5625 Q17.2656,28.9063 17.2656,25.7813 Q17.2656,22.6563 18.5781,21 Q19.9063,19.3438 22.4063,19.3438 Q23.1094,19.3438 23.75,19.5 Q24.4063,19.6563 24.9688,19.9531 L24.9688,22.6719 Q24.3438,22.0938 23.75,21.8281 Q23.1563,21.5469 22.5313,21.5469 Q21.1875,21.5469 20.5,22.625 Q19.8125,23.6875 19.8125,25.7813 Q19.8125,27.875 20.5,28.9531 Q21.1875,30.0156 22.5313,30.0156 Q23.1563,30.0156 23.75,29.75 Q24.3438,29.4688 24.9688,28.8906 L24.9688,31.6094 Z " fill="#000000"/><text fill="#000000" font-family="sans-serif" font-size="14" lengthAdjust="spacing" textLength="35" x="55.5" y="24.9951">Level</text><text fill="#000000" font-family="sans-serif" font-size="10" lengthAdjust="spacing" textLength="74" x="36" y="37.5791">java.util.logging</text></g><!--MD5=[3ab9480a742fb81596ac787fa2fa4ae0]
class elki.logging.Logging--><a href="Logging.html" target="_top" title="Logging.html" xlink:actuate="onRequest" xlink:href="Logging.html" xlink:show="new" xlink:title="Logging.html" xlink:type="simple"><g id="elem_elki.logging.Logging"><rect codeLine="16" fill="#F1F1F1" height="37.9375" id="elki.logging.Logging" rx="2.5" ry="2.5" style="stroke:#181818;stroke-width:0.5;" width="87" x="148.5" y="7"/><ellipse cx="163.5" cy="25.9688" fill="#ADD1B2" rx="11" ry="11" style="stroke:#181818;stroke-width:1.0;"/><path d="M166.4688,31.6094 Q165.8906,31.9063 165.25,32.0469 Q164.6094,32.2031 163.9063,32.2031 Q161.4063,32.2031 160.0781,30.5625 Q158.7656,28.9063 158.7656,25.7813 Q158.7656,22.6563 160.0781,21 Q161.4063,19.3438 163.9063,19.3438 Q164.6094,19.3438 165.25,19.5 Q165.9063,19.6563 166.4688,19.9531 L166.4688,22.6719 Q165.8438,22.0938 165.25,21.8281 Q164.6563,21.5469 164.0313,21.5469 Q162.6875,21.5469 162,22.625 Q161.3125,23.6875 161.3125,25.7813 Q161.3125,27.875 162,28.9531 Q162.6875,30.0156 164.0313,30.0156 Q164.6563,30.0156 165.25,29.75 Q165.8438,29.4688 166.4688,28.8906 L166.4688,31.6094 Z " fill="#000000"/><text fill="#000000" font-family="sans-serif" font-size="14" lengthAdjust="spacing" textLength="55" x="177.5" y="24.9951">Logging</text><text fill="#000000" font-family="sans-serif" font-size="10" lengthAdjust="spacing" textLength="52" x="179" y="37.5791">elki.logging</text></g></a><!--MD5=[b509354756ac55dfe611139dba845f5b]
reverse link java.util.logging.Level to elki.logging.Logging.Level--><g id="link_java.util.logging.Level_elki.logging.Logging.Level"><path codeLine="18" d="M75.91,63.89 C81.27,76.3 87.46,90.65 93.61,104.93 " fill="none" id="java.util.logging.Level-backto-elki.logging.Logging.Level" style="stroke:#181818;stroke-width:1.0;"/><polygon fill="none" points="69.32,66.29,67.83,45.15,82.18,60.74,69.32,66.29" style="stroke:#181818;stroke-width:1.0;"/></g><!--MD5=[79c06f472986b4be0cec6aeb41067482]
reverse link elki.logging.Logging to elki.logging.Logging.Level--><g id="link_elki.logging.Logging_elki.logging.Logging.Level"><path codeLine="19" d="M178.2,59 C172.39,72.46 165.37,88.73 158.39,104.93 " fill="none" id="elki.logging.Logging-backto-elki.logging.Logging.Level" style="stroke:#181818;stroke-width:1.0;"/><ellipse cx="181.0067" cy="52.498" fill="#FFFFFF" rx="8" ry="8" style="stroke:#181818;stroke-width:1.0;"/><line style="stroke:#181818;stroke-width:1.0;" x1="177.8434" x2="184.17" y1="59.8461" y2="45.15"/><line style="stroke:#181818;stroke-width:1.0;" x1="173.6587" x2="188.3547" y1="49.3347" y2="55.6613"/></g><rect fill="none" height="11.6406" style="stroke:none;stroke-width:1.0;" width="186" x="21.25" y="262.7188"/><text fill="#888888" font-family="sans-serif" font-size="10" lengthAdjust="spacing" textLength="186" x="21.25" y="272.001">UMLDoclet 2.0.19, PlantUML 1.2022.8</text><!--MD5=[f767819caf74aed660d1f31cb3f0118b]
@startuml
    remove .*\.(Instance|Par|Parameterizer|Factory)$
    set namespaceSeparator none
    hide empty fields
    hide empty methods

    class "<size:14>Logging.Level\n<size:10>elki.logging" as elki.logging.Logging.Level [[Logging.Level.html]] {
        {static} +STATISTICS: Level
        {static} +VERBOSE: Level
        {static} +VERYVERBOSE: Level
        {static} -serialVersionUID: long
        +Level(String, int)
        {static} +parse(String): Level
    }

    class "<size:14>Level\n<size:10>java.util.logging" as java.util.logging.Level
    class "<size:14>Logging\n<size:10>elki.logging" as elki.logging.Logging [[Logging.html]]

    java.util.logging.Level <|- - elki.logging.Logging.Level
    elki.logging.Logging +- - elki.logging.Logging.Level

    center footer UMLDoclet 2.0.19, PlantUML 1.2022.8
@enduml

PlantUML version 1.2022.8(Sun Sep 25 11:00:33 CEST 2022)
(APACHE source distribution)
Java Runtime: OpenJDK Runtime Environment
JVM: OpenJDK 64-Bit Server VM
Default Encoding: UTF-8
Language: de
Country: DE
--></g></svg>