<?xml version="1.0" encoding="UTF-8" standalone="no"?>
<!DOCTYPE svg PUBLIC "-//W3C//DTD SVG 1.1//EN"
 "http://www.w3.org/Graphics/SVG/1.1/DTD/svg11.dtd">
<!-- Generated by graphviz version 2.40.1 (20161225.0304)
 -->
<!-- Title: G Pages: 1 -->
<svg width="398pt" height="75pt"
 viewBox="0.00 0.00 398.00 75.00" xmlns="http://www.w3.org/2000/svg" xmlns:xlink="http://www.w3.org/1999/xlink">
<g id="graph0" class="graph" transform="scale(1 1) rotate(0) translate(4 71)">
<title>G</title>
<polygon fill="#ffffff" stroke="transparent" points="-4,4 -4,-71 394,-71 394,4 -4,4"/>
<!-- c7038968 -->
<g id="node1" class="node">
<title>c7038968</title>
<g id="a_node1"><a xlink:href="MkCoPEntry.html" xlink:title="&lt;TABLE&gt;">
<g id="a_node1_0"><a xlink:href="MkCoPEntry.html" xlink:title="de.lmu.ifi.dbs.elki.index.tree.metrical.mtreevariants.mktrees.mkcop.MkCoPEntry" target="_parent">
<polygon fill="none" stroke="#000000" points="62.5,0 62.5,-28 120.5,-28 120.5,0 62.5,0"/>
<text text-anchor="start" x="70" y="-17.6" font-family="Roboto" font-size="8.00" fill="#000000"> «interface» </text>
<text text-anchor="start" x="66.5" y="-7.6" font-family="Roboto" font-size="8.00" fill="#000000"> </text>
<text text-anchor="start" x="69.5" y="-7.6" font-family="Roboto" font-size="8.00" fill="#000000">MkCoPEntry</text>
<text text-anchor="start" x="113.5" y="-7.6" font-family="Roboto" font-size="8.00" fill="#000000"> </text>
</a>
</g>
</a>
</g>
</g>
<!-- c7038969 -->
<g id="node2" class="node">
<title>c7038969</title>
<g id="a_node2"><a xlink:href="MkCoPDirectoryEntry.html" xlink:title="&lt;TABLE&gt;">
<g id="a_node2_1"><a xlink:href="MkCoPDirectoryEntry.html" xlink:title="de.lmu.ifi.dbs.elki.index.tree.metrical.mtreevariants.mktrees.mkcop.MkCoPDirectoryEntry" target="_parent">
<polygon fill="#fffacd" stroke="transparent" points="201,-37.5 201,-54.5 291,-54.5 291,-37.5 201,-37.5"/>
<polygon fill="none" stroke="#000000" points="201,-37 201,-54 291,-54 291,-37 201,-37"/>
<text text-anchor="start" x="205" y="-44.6" font-family="Roboto" font-size="8.00" fill="#000000"> </text>
<text text-anchor="start" x="208" y="-44.6" font-family="Roboto" font-size="8.00" fill="#000000">MkCoPDirectoryEntry</text>
<text text-anchor="start" x="284" y="-44.6" font-family="Roboto" font-size="8.00" fill="#000000"> </text>
</a>
</g>
</a>
</g>
</g>
<!-- c7038968&#45;&gt;c7038969 -->
<g id="edge3" class="edge">
<title>c7038968&#45;&gt;c7038969</title>
<path fill="none" stroke="#000000" stroke-dasharray="5,2" d="M130.5292,-22.0837C153.2158,-26.7826 181.7819,-32.6992 204.8251,-37.4719"/>
<polygon fill="none" stroke="#000000" points="131.0623,-18.6199 120.5603,-20.019 129.6426,-25.4744 131.0623,-18.6199"/>
</g>
<!-- c7038970 -->
<g id="node3" class="node">
<title>c7038970</title>
<g id="a_node3"><a xlink:href="ApproximationLine.html" xlink:title="&lt;TABLE&gt;">
<g id="a_node3_2"><a xlink:href="ApproximationLine.html" xlink:title="de.lmu.ifi.dbs.elki.index.tree.metrical.mtreevariants.mktrees.mkcop.ApproximationLine" target="_parent">
<polygon fill="none" stroke="#000000" points="309.5,-5 309.5,-22 390.5,-22 390.5,-5 309.5,-5"/>
<text text-anchor="start" x="313.5" y="-12.6" font-family="Roboto" font-size="8.00" fill="#000000"> </text>
<text text-anchor="start" x="316.5" y="-12.6" font-family="Roboto" font-size="8.00" fill="#000000">ApproximationLine</text>
<text text-anchor="start" x="383.5" y="-12.6" font-family="Roboto" font-size="8.00" fill="#000000"> </text>
</a>
</g>
</a>
</g>
</g>
<!-- c7038968&#45;&gt;c7038970 -->
<g id="edge1" class="edge">
<title>c7038968&#45;&gt;c7038970</title>
<path fill="none" stroke="#000000" d="M132.7495,-14C181.0446,-14 260.5362,-14 308.6559,-14"/>
<polygon fill="#000000" stroke="#000000" points="132.5944,-14.0001 126.5943,-18 120.5944,-14 126.5944,-10 132.5944,-14.0001"/>
</g>
<!-- c7038969&#45;&gt;c7038970 -->
<g id="edge4" class="edge">
<title>c7038969&#45;&gt;c7038970</title>
<path fill="none" stroke="#000000" d="M273.7361,-37.4246C285.4536,-33.8018 299.2817,-29.5264 311.8953,-25.6266"/>
<polygon fill="#000000" stroke="#000000" points="321.6873,-22.5991 313.4628,-29.8522 316.9104,-24.076 312.1335,-25.553 312.1335,-25.553 312.1335,-25.553 316.9104,-24.076 310.8043,-21.2538 321.6873,-22.5991 321.6873,-22.5991"/>
</g>
<!-- c7038982 -->
<g id="node4" class="node">
<title>c7038982</title>
<g id="a_node4"><a xlink:href="../../MTreeDirectoryEntry.html" xlink:title="&lt;TABLE&gt;">
<g id="a_node4_3"><a xlink:href="../../MTreeDirectoryEntry.html" xlink:title="de.lmu.ifi.dbs.elki.index.tree.metrical.mtreevariants.MTreeDirectoryEntry" target="_parent">
<polygon fill="none" stroke="#000000" points=".5,-39 .5,-67 183.5,-67 183.5,-39 .5,-39"/>
<text text-anchor="start" x="52.5" y="-57.6" font-family="Roboto" font-size="8.00" fill="#000000"> </text>
<text text-anchor="start" x="55.5" y="-57.6" font-family="Roboto" font-size="8.00" fill="#000000">MTreeDirectoryEntry</text>
<text text-anchor="start" x="128.5" y="-57.6" font-family="Roboto" font-size="8.00" fill="#000000"> </text>
<text text-anchor="start" x="4.5" y="-46.6" font-family="Roboto" font-size="8.00" fill="#000000"> </text>
<text text-anchor="start" x="7.5" y="-46.6" font-family="Roboto" font-size="7.00" fill="#000000">de.lmu.ifi.dbs.elki.index.tree.metrical.mtreevariants</text>
<text text-anchor="start" x="176.5" y="-46.6" font-family="Roboto" font-size="8.00" fill="#000000"> </text>
</a>
</g>
</a>
</g>
</g>
<!-- c7038982&#45;&gt;c7038969 -->
<g id="edge2" class="edge">
<title>c7038982&#45;&gt;c7038969</title>
<path fill="none" stroke="#000000" d="M193.3193,-48.3868C195.9081,-48.2695 198.4557,-48.1541 200.9488,-48.0412"/>
<polygon fill="none" stroke="#000000" points="192.9902,-44.8981 183.1589,-48.8472 193.3071,-51.8909 192.9902,-44.8981"/>
</g>
</g>
</svg>
