<?xml version="1.0" encoding="UTF-8" standalone="no"?>
<!DOCTYPE svg PUBLIC "-//W3C//DTD SVG 1.1//EN"
 "http://www.w3.org/Graphics/SVG/1.1/DTD/svg11.dtd">
<!-- Generated by graphviz version 2.40.1 (20161225.0304)
 -->
<!-- Title: G Pages: 1 -->
<svg width="507pt" height="175pt"
 viewBox="0.00 0.00 507.00 175.00" xmlns="http://www.w3.org/2000/svg" xmlns:xlink="http://www.w3.org/1999/xlink">
<g id="graph0" class="graph" transform="scale(1 1) rotate(0) translate(4 171)">
<title>G</title>
<polygon fill="#ffffff" stroke="transparent" points="-4,4 -4,-171 503,-171 503,4 -4,4"/>
<!-- c10103836 -->
<g id="node1" class="node">
<title>c10103836</title>
<g id="a_node1"><a xlink:href="../NumberVectorDistanceFunction.html" xlink:title="&lt;TABLE&gt;">
<g id="a_node1_0"><a xlink:href="../NumberVectorDistanceFunction.html" xlink:title="de.lmu.ifi.dbs.elki.distance.distancefunction.NumberVectorDistanceFunction" target="_parent">
<polygon fill="#fffacd" stroke="transparent" points="9.5,-128 9.5,-167 167.5,-167 167.5,-128 9.5,-128"/>
<polygon fill="none" stroke="#000000" points="9.5,-127.5 9.5,-166.5 167.5,-166.5 167.5,-127.5 9.5,-127.5"/>
<text text-anchor="start" x="67" y="-156.1" font-family="Roboto" font-size="8.00" fill="#000000"> «interface» </text>
<text text-anchor="start" x="29.5" y="-146.1" font-family="Roboto" font-size="8.00" fill="#000000"> </text>
<text text-anchor="start" x="32.5" y="-146.1" font-family="Roboto" font-size="8.00" fill="#000000">NumberVectorDistanceFunction</text>
<text text-anchor="start" x="144.5" y="-146.1" font-family="Roboto" font-size="8.00" fill="#000000"> </text>
<text text-anchor="start" x="13.5" y="-135.1" font-family="Roboto" font-size="8.00" fill="#000000"> </text>
<text text-anchor="start" x="16.5" y="-135.1" font-family="Roboto" font-size="7.00" fill="#000000">de.lmu.ifi.dbs.elki.distance.distancefunction</text>
<text text-anchor="start" x="160.5" y="-135.1" font-family="Roboto" font-size="8.00" fill="#000000"> </text>
</a>
</g>
</a>
</g>
</g>
<!-- c10104244 -->
<g id="node4" class="node">
<title>c10104244</title>
<g id="a_node4"><a xlink:href="SubspaceLPNormDistanceFunction.html" xlink:title="&lt;TABLE&gt;">
<g id="a_node4_1"><a xlink:href="SubspaceLPNormDistanceFunction.html" xlink:title="de.lmu.ifi.dbs.elki.distance.distancefunction.subspace.SubspaceLPNormDistanceFunction" target="_parent">
<polygon fill="#fffacd" stroke="transparent" points="195,-39 195,-56 333,-56 333,-39 195,-39"/>
<polygon fill="none" stroke="#000000" points="195,-38.5 195,-55.5 333,-55.5 333,-38.5 195,-38.5"/>
<text text-anchor="start" x="199" y="-46.1" font-family="Roboto" font-size="8.00" fill="#000000"> </text>
<text text-anchor="start" x="202" y="-46.1" font-family="Roboto" font-size="8.00" fill="#000000">SubspaceLPNormDistanceFunction</text>
<text text-anchor="start" x="326" y="-46.1" font-family="Roboto" font-size="8.00" fill="#000000"> </text>
</a>
</g>
</a>
</g>
</g>
<!-- c10103836&#45;&gt;c10104244 -->
<g id="edge4" class="edge">
<title>c10103836&#45;&gt;c10104244</title>
<path fill="none" stroke="#000000" stroke-dasharray="5,2" d="M174.926,-123.591C175.623,-123.2323 176.3145,-122.8686 177,-122.5 210.3706,-104.5551 242.13,-71.934 256.2879,-56.3065"/>
<polygon fill="none" stroke="#000000" points="173.1518,-120.5577 165.5935,-127.9821 176.132,-126.8916 173.1518,-120.5577"/>
</g>
<!-- c10103837 -->
<g id="node2" class="node">
<title>c10103837</title>
<g id="a_node2"><a xlink:href="../Norm.html" xlink:title="&lt;TABLE&gt;">
<g id="a_node2_2"><a xlink:href="../Norm.html" xlink:title="de.lmu.ifi.dbs.elki.distance.distancefunction.Norm" target="_parent">
<polygon fill="none" stroke="#000000" points="9.5,-77.5 9.5,-116.5 167.5,-116.5 167.5,-77.5 9.5,-77.5"/>
<text text-anchor="start" x="67" y="-106.1" font-family="Roboto" font-size="8.00" fill="#000000"> «interface» </text>
<text text-anchor="start" x="75.5" y="-96.1" font-family="Roboto" font-size="8.00" fill="#000000"> </text>
<text text-anchor="start" x="78.5" y="-96.1" font-family="Roboto" font-size="8.00" fill="#000000">Norm</text>
<text text-anchor="start" x="98.5" y="-96.1" font-family="Roboto" font-size="8.00" fill="#000000"> </text>
<text text-anchor="start" x="13.5" y="-85.1" font-family="Roboto" font-size="8.00" fill="#000000"> </text>
<text text-anchor="start" x="16.5" y="-85.1" font-family="Roboto" font-size="7.00" fill="#000000">de.lmu.ifi.dbs.elki.distance.distancefunction</text>
<text text-anchor="start" x="160.5" y="-85.1" font-family="Roboto" font-size="8.00" fill="#000000"> </text>
</a>
</g>
</a>
</g>
</g>
<!-- c10103837&#45;&gt;c10104244 -->
<g id="edge3" class="edge">
<title>c10103837&#45;&gt;c10104244</title>
<path fill="none" stroke="#000000" stroke-dasharray="5,2" d="M167.9308,-75.0805C170.9934,-74.2102 174.025,-73.3476 177,-72.5 196.0435,-67.0741 217.4167,-60.9331 234.213,-56.0954"/>
<polygon fill="none" stroke="#000000" points="166.74,-71.7801 158.0757,-77.8778 168.6514,-78.5141 166.74,-71.7801"/>
</g>
<!-- c10103839 -->
<g id="node3" class="node">
<title>c10103839</title>
<g id="a_node3"><a xlink:href="../SpatialPrimitiveDistanceFunction.html" xlink:title="&lt;TABLE&gt;">
<g id="a_node3_3"><a xlink:href="../SpatialPrimitiveDistanceFunction.html" xlink:title="de.lmu.ifi.dbs.elki.distance.distancefunction.SpatialPrimitiveDistanceFunction" target="_parent">
<polygon fill="none" stroke="#000000" points="9.5,-27.5 9.5,-66.5 167.5,-66.5 167.5,-27.5 9.5,-27.5"/>
<text text-anchor="start" x="67" y="-56.1" font-family="Roboto" font-size="8.00" fill="#000000"> «interface» </text>
<text text-anchor="start" x="27" y="-46.1" font-family="Roboto" font-size="8.00" fill="#000000"> </text>
<text text-anchor="start" x="30" y="-46.1" font-family="Roboto" font-size="8.00" fill="#000000">SpatialPrimitiveDistanceFunction</text>
<text text-anchor="start" x="147" y="-46.1" font-family="Roboto" font-size="8.00" fill="#000000"> </text>
<text text-anchor="start" x="13.5" y="-35.1" font-family="Roboto" font-size="8.00" fill="#000000"> </text>
<text text-anchor="start" x="16.5" y="-35.1" font-family="Roboto" font-size="7.00" fill="#000000">de.lmu.ifi.dbs.elki.distance.distancefunction</text>
<text text-anchor="start" x="160.5" y="-35.1" font-family="Roboto" font-size="8.00" fill="#000000"> </text>
</a>
</g>
</a>
</g>
</g>
<!-- c10103839&#45;&gt;c10104244 -->
<g id="edge2" class="edge">
<title>c10103839&#45;&gt;c10104244</title>
<path fill="none" stroke="#000000" stroke-dasharray="5,2" d="M177.7899,-47.5C183.5006,-47.5 189.2026,-47.5 194.7992,-47.5"/>
<polygon fill="none" stroke="#000000" points="177.5222,-44.0001 167.5221,-47.5 177.5221,-51.0001 177.5222,-44.0001"/>
</g>
<!-- c10104246 -->
<g id="node5" class="node">
<title>c10104246</title>
<g id="a_node5"><a xlink:href="SubspaceMaximumDistanceFunction.html" xlink:title="&lt;TABLE&gt;">
<g id="a_node5_4"><a xlink:href="SubspaceMaximumDistanceFunction.html" xlink:title="de.lmu.ifi.dbs.elki.distance.distancefunction.subspace.SubspaceMaximumDistanceFunction" target="_parent">
<polygon fill="none" stroke="#000000" points="353,-66.5 353,-83.5 498,-83.5 498,-66.5 353,-66.5"/>
<text text-anchor="start" x="357" y="-74.1" font-family="Roboto" font-size="8.00" fill="#000000"> </text>
<text text-anchor="start" x="360" y="-74.1" font-family="Roboto" font-size="8.00" fill="#000000">SubspaceMaximumDistanceFunction</text>
<text text-anchor="start" x="491" y="-74.1" font-family="Roboto" font-size="8.00" fill="#000000"> </text>
</a>
</g>
</a>
</g>
</g>
<!-- c10104244&#45;&gt;c10104246 -->
<g id="edge5" class="edge">
<title>c10104244&#45;&gt;c10104246</title>
<path fill="none" stroke="#000000" d="M323.2304,-57.8009C340.6261,-60.8263 359.4493,-64.0999 376.121,-66.9993"/>
<polygon fill="none" stroke="#000000" points="323.632,-54.3183 313.1801,-56.0531 322.4325,-61.2148 323.632,-54.3183"/>
</g>
<!-- c10104251 -->
<g id="node6" class="node">
<title>c10104251</title>
<g id="a_node6"><a xlink:href="SubspaceManhattanDistanceFunction.html" xlink:title="&lt;TABLE&gt;">
<g id="a_node6_5"><a xlink:href="SubspaceManhattanDistanceFunction.html" xlink:title="de.lmu.ifi.dbs.elki.distance.distancefunction.subspace.SubspaceManhattanDistanceFunction" target="_parent">
<polygon fill="none" stroke="#000000" points="351,-38.5 351,-55.5 499,-55.5 499,-38.5 351,-38.5"/>
<text text-anchor="start" x="355" y="-46.1" font-family="Roboto" font-size="8.00" fill="#000000"> </text>
<text text-anchor="start" x="358" y="-46.1" font-family="Roboto" font-size="8.00" fill="#000000">SubspaceManhattanDistanceFunction</text>
<text text-anchor="start" x="492" y="-46.1" font-family="Roboto" font-size="8.00" fill="#000000"> </text>
</a>
</g>
</a>
</g>
</g>
<!-- c10104244&#45;&gt;c10104251 -->
<g id="edge6" class="edge">
<title>c10104244&#45;&gt;c10104251</title>
<path fill="none" stroke="#000000" d="M343.4695,-47.5C345.9722,-47.5 348.4763,-47.5 350.972,-47.5"/>
<polygon fill="none" stroke="#000000" points="343.2129,-44.0001 333.2129,-47.5 343.2128,-51.0001 343.2129,-44.0001"/>
</g>
<!-- c10104253 -->
<g id="node7" class="node">
<title>c10104253</title>
<g id="a_node7"><a xlink:href="SubspaceEuclideanDistanceFunction.html" xlink:title="&lt;TABLE&gt;">
<g id="a_node7_6"><a xlink:href="SubspaceEuclideanDistanceFunction.html" xlink:title="de.lmu.ifi.dbs.elki.distance.distancefunction.subspace.SubspaceEuclideanDistanceFunction" target="_parent">
<polygon fill="none" stroke="#000000" points="353,-10.5 353,-27.5 497,-27.5 497,-10.5 353,-10.5"/>
<text text-anchor="start" x="357" y="-18.1" font-family="Roboto" font-size="8.00" fill="#000000"> </text>
<text text-anchor="start" x="360" y="-18.1" font-family="Roboto" font-size="8.00" fill="#000000">SubspaceEuclideanDistanceFunction</text>
<text text-anchor="start" x="490" y="-18.1" font-family="Roboto" font-size="8.00" fill="#000000"> </text>
</a>
</g>
</a>
</g>
</g>
<!-- c10104244&#45;&gt;c10104253 -->
<g id="edge7" class="edge">
<title>c10104244&#45;&gt;c10104253</title>
<path fill="none" stroke="#000000" d="M323.2304,-37.1991C340.6261,-34.1737 359.4493,-30.9001 376.121,-28.0007"/>
<polygon fill="none" stroke="#000000" points="322.4325,-33.7852 313.1801,-38.9469 323.632,-40.6817 322.4325,-33.7852"/>
</g>
<!-- c10104255 -->
<g id="node8" class="node">
<title>c10104255</title>
<g id="a_node8"><a xlink:href="AbstractDimensionsSelectingDistanceFunction.html" xlink:title="&lt;TABLE&gt;">
<g id="a_node8_7"><a xlink:href="AbstractDimensionsSelectingDistanceFunction.html" xlink:title="de.lmu.ifi.dbs.elki.distance.distancefunction.subspace.AbstractDimensionsSelectingDistanceFunction" target="_parent">
<polygon fill="none" stroke="#000000" points=".5,.5 .5,-16.5 177.5,-16.5 177.5,.5 .5,.5"/>
<text text-anchor="start" x="4.5" y="-7.1" font-family="Roboto" font-size="8.00" fill="#000000"> </text>
<text text-anchor="start" x="7.5" y="-7.1" font-family="Roboto" font-style="italic" font-size="8.00" fill="#000000">AbstractDimensionsSelectingDistanceFunction</text>
<text text-anchor="start" x="170.5" y="-7.1" font-family="Roboto" font-size="8.00" fill="#000000"> </text>
</a>
</g>
</a>
</g>
</g>
<!-- c10104255&#45;&gt;c10104244 -->
<g id="edge1" class="edge">
<title>c10104255&#45;&gt;c10104244</title>
<path fill="none" stroke="#000000" d="M159.2717,-18.8986C165.2859,-20.0236 171.2601,-21.2264 177,-22.5 197.5586,-27.0618 220.4318,-33.6976 237.5637,-38.9864"/>
<polygon fill="none" stroke="#000000" points="159.6082,-15.4031 149.1469,-17.0799 158.3706,-22.2928 159.6082,-15.4031"/>
</g>
</g>
</svg>
