<?xml version="1.0" encoding="UTF-8" standalone="no"?>
<!DOCTYPE svg PUBLIC "-//W3C//DTD SVG 1.1//EN"
 "http://www.w3.org/Graphics/SVG/1.1/DTD/svg11.dtd">
<!-- Generated by graphviz version 2.40.1 (20161225.0304)
 -->
<!-- Title: G Pages: 1 -->
<svg width="183pt" height="82pt"
 viewBox="0.00 0.00 183.00 82.00" xmlns="http://www.w3.org/2000/svg" xmlns:xlink="http://www.w3.org/1999/xlink">
<g id="graph0" class="graph" transform="scale(1 1) rotate(0) translate(4 78)">
<title>G</title>
<polygon fill="#ffffff" stroke="transparent" points="-4,4 -4,-78 179,-78 179,4 -4,4"/>
<!-- c857314 -->
<g id="node1" class="node">
<title>c857314</title>
<g id="a_node1"><a xlink:href="../../../data/NumberVector.html" xlink:title="&lt;TABLE&gt;">
<g id="a_node1_0"><a xlink:href="../../../data/NumberVector.html" xlink:title="de.lmu.ifi.dbs.elki.data.NumberVector" target="_parent">
<polygon fill="#fffacd" stroke="transparent" points="6,-28 6,-67 93,-67 93,-28 6,-28"/>
<polygon fill="none" stroke="#000000" points="6.5,-27.5 6.5,-66.5 93.5,-66.5 93.5,-27.5 6.5,-27.5"/>
<text text-anchor="start" x="28.5" y="-56.1" font-family="Roboto" font-size="8.00" fill="#000000"> «interface» </text>
<text text-anchor="start" x="21.5" y="-46.1" font-family="Roboto" font-size="8.00" fill="#000000"> </text>
<text text-anchor="start" x="24.5" y="-46.1" font-family="Roboto" font-size="8.00" fill="#000000">NumberVector</text>
<text text-anchor="start" x="75.5" y="-46.1" font-family="Roboto" font-size="8.00" fill="#000000"> </text>
<text text-anchor="start" x="10.5" y="-35.1" font-family="Roboto" font-size="8.00" fill="#000000"> </text>
<text text-anchor="start" x="13.5" y="-35.1" font-family="Roboto" font-size="7.00" fill="#000000">de.lmu.ifi.dbs.elki.data</text>
<text text-anchor="start" x="86.5" y="-35.1" font-family="Roboto" font-size="8.00" fill="#000000"> </text>
</a>
</g>
</a>
</g>
</g>
<!-- c859193 -->
<g id="node3" class="node">
<title>c859193</title>
<g id="a_node3"><a xlink:href="ALOCI.Node.html" xlink:title="&lt;TABLE&gt;">
<g id="a_node3_1"><a xlink:href="ALOCI.Node.html" xlink:title="de.lmu.ifi.dbs.elki.algorithm.outlier.lof.ALOCI.Node" target="_parent">
<polygon fill="#fffacd" stroke="transparent" points="117,-39 117,-56 175,-56 175,-39 117,-39"/>
<polygon fill="none" stroke="#000000" points="117,-38.5 117,-55.5 175,-55.5 175,-38.5 117,-38.5"/>
<text text-anchor="start" x="121" y="-46.1" font-family="Roboto" font-size="8.00" fill="#000000"> </text>
<text text-anchor="start" x="124" y="-46.1" font-family="Roboto" font-size="8.00" fill="#000000">ALOCI.Node</text>
<text text-anchor="start" x="168" y="-46.1" font-family="Roboto" font-size="8.00" fill="#000000"> </text>
</a>
</g>
</a>
</g>
</g>
<!-- c857314&#45;&gt;c859193 -->
<g id="edge2" class="edge">
<title>c857314&#45;&gt;c859193</title>
<path fill="none" stroke="#000000" stroke-dasharray="5,2" d="M103.3533,-47.5C107.9563,-47.5 112.4904,-47.5 116.7849,-47.5"/>
<polygon fill="none" stroke="#000000" points="103.2325,-44.0001 93.2325,-47.5 103.2324,-51.0001 103.2325,-44.0001"/>
</g>
<!-- c859192 -->
<g id="node2" class="node">
<title>c859192</title>
<g id="a_node2"><a xlink:href="ALOCI.ALOCIQuadTree.html" xlink:title="&lt;TABLE&gt;">
<g id="a_node2_2"><a xlink:href="ALOCI.ALOCIQuadTree.html" xlink:title="de.lmu.ifi.dbs.elki.algorithm.outlier.lof.ALOCI.ALOCIQuadTree" target="_parent">
<polygon fill="none" stroke="#000000" points=".5,.5 .5,-16.5 99.5,-16.5 99.5,.5 .5,.5"/>
<text text-anchor="start" x="4.5" y="-7.1" font-family="Roboto" font-size="8.00" fill="#000000"> </text>
<text text-anchor="start" x="7.5" y="-7.1" font-family="Roboto" font-size="8.00" fill="#000000">ALOCI.ALOCIQuadTree</text>
<text text-anchor="start" x="92.5" y="-7.1" font-family="Roboto" font-size="8.00" fill="#000000"> </text>
</a>
</g>
</a>
</g>
</g>
<!-- c859192&#45;&gt;c859193 -->
<g id="edge1" class="edge">
<title>c859192&#45;&gt;c859193</title>
<path fill="none" stroke="#000000" d="M95.2054,-21.0329C96.4898,-21.5111 97.7571,-22.0003 99,-22.5 110.3193,-27.0505 122.4614,-33.555 131.5684,-38.7887"/>
<polygon fill="#000000" stroke="#000000" points="94.7436,-20.8771 87.7794,-22.7476 83.3741,-17.0385 90.3384,-15.168 94.7436,-20.8771"/>
</g>
<!-- c859193&#45;&gt;c859193 -->
<g id="edge3" class="edge">
<title>c859193&#45;&gt;c859193</title>
<path fill="none" stroke="#000000" d="M129.4238,-56.1212C125.0996,-61.6648 130.625,-67 146,-67 151.2852,-67 155.4064,-66.3696 158.3639,-65.317"/>
<polygon fill="#000000" stroke="#000000" points="162.5762,-56.1212 162.5027,-67.0868 160.4939,-60.667 158.4115,-65.2127 158.4115,-65.2127 158.4115,-65.2127 160.4939,-60.667 154.3203,-63.3387 162.5762,-56.1212 162.5762,-56.1212"/>
<text text-anchor="middle" x="160.5762" y="-58.5212" font-family="Roboto" font-size="7.00" fill="#000000">*</text>
</g>
</g>
</svg>
