<?xml version="1.0" encoding="UTF-8" standalone="no"?>
<!DOCTYPE svg PUBLIC "-//W3C//DTD SVG 1.1//EN"
 "http://www.w3.org/Graphics/SVG/1.1/DTD/svg11.dtd">
<!-- Generated by graphviz version 2.40.1 (20161225.0304)
 -->
<!-- Title: G Pages: 1 -->
<svg width="683pt" height="183pt"
 viewBox="0.00 0.00 683.00 183.00" xmlns="http://www.w3.org/2000/svg" xmlns:xlink="http://www.w3.org/1999/xlink">
<g id="graph0" class="graph" transform="scale(1 1) rotate(0) translate(4 179)">
<title>G</title>
<polygon fill="#ffffff" stroke="transparent" points="-4,4 -4,-179 679,-179 679,4 -4,4"/>
<!-- c4476614 -->
<g id="node1" class="node">
<title>c4476614</title>
<g id="a_node1"><a xlink:href="../../../distance/distancefunction/DistanceFunction.html" xlink:title="&lt;TABLE&gt;">
<g id="a_node1_0"><a xlink:href="../../../distance/distancefunction/DistanceFunction.html" xlink:title="de.lmu.ifi.dbs.elki.distance.distancefunction.DistanceFunction" target="_parent">
<polygon fill="#fffacd" stroke="transparent" points="224,-136 224,-175 382,-175 382,-136 224,-136"/>
<polygon fill="none" stroke="#000000" points="224,-135.5 224,-174.5 382,-174.5 382,-135.5 224,-135.5"/>
<text text-anchor="start" x="281.5" y="-164.1" font-family="Roboto" font-size="8.00" fill="#000000"> «interface» </text>
<text text-anchor="start" x="269.5" y="-154.1" font-family="Roboto" font-size="8.00" fill="#000000"> </text>
<text text-anchor="start" x="272.5" y="-154.1" font-family="Roboto" font-size="8.00" fill="#000000">DistanceFunction</text>
<text text-anchor="start" x="333.5" y="-154.1" font-family="Roboto" font-size="8.00" fill="#000000"> </text>
<text text-anchor="start" x="228" y="-143.1" font-family="Roboto" font-size="8.00" fill="#000000"> </text>
<text text-anchor="start" x="231" y="-143.1" font-family="Roboto" font-size="7.00" fill="#000000">de.lmu.ifi.dbs.elki.distance.distancefunction</text>
<text text-anchor="start" x="375" y="-143.1" font-family="Roboto" font-size="8.00" fill="#000000"> </text>
</a>
</g>
</a>
</g>
</g>
<!-- c4476641 -->
<g id="node2" class="node">
<title>c4476641</title>
<g id="a_node2"><a xlink:href="../../../database/query/knn/KNNQuery.html" xlink:title="&lt;TABLE&gt;">
<g id="a_node2_1"><a xlink:href="../../../database/query/knn/KNNQuery.html" xlink:title="de.lmu.ifi.dbs.elki.database.query.knn.KNNQuery" target="_parent">
<polygon fill="#fffacd" stroke="transparent" points="540,-99 540,-138 675,-138 675,-99 540,-99"/>
<polygon fill="none" stroke="#000000" points="540.5,-98.5 540.5,-137.5 675.5,-137.5 675.5,-98.5 540.5,-98.5"/>
<text text-anchor="start" x="586.5" y="-127.1" font-family="Roboto" font-size="8.00" fill="#000000"> «interface» </text>
<text text-anchor="start" x="585.5" y="-117.1" font-family="Roboto" font-size="8.00" fill="#000000"> </text>
<text text-anchor="start" x="588.5" y="-117.1" font-family="Roboto" font-size="8.00" fill="#000000">KNNQuery</text>
<text text-anchor="start" x="627.5" y="-117.1" font-family="Roboto" font-size="8.00" fill="#000000"> </text>
<text text-anchor="start" x="544.5" y="-106.1" font-family="Roboto" font-size="8.00" fill="#000000"> </text>
<text text-anchor="start" x="547.5" y="-106.1" font-family="Roboto" font-size="7.00" fill="#000000">de.lmu.ifi.dbs.elki.database.query.knn</text>
<text text-anchor="start" x="668.5" y="-106.1" font-family="Roboto" font-size="8.00" fill="#000000"> </text>
</a>
</g>
</a>
</g>
</g>
<!-- c4476698 -->
<g id="node3" class="node">
<title>c4476698</title>
<g id="a_node3"><a xlink:href="../../AbstractAlgorithm.html" xlink:title="&lt;TABLE&gt;">
<g id="a_node3_2"><a xlink:href="../../AbstractAlgorithm.html" xlink:title="de.lmu.ifi.dbs.elki.algorithm.AbstractAlgorithm" target="_parent">
<polygon fill="#fffacd" stroke="transparent" points="12,-50.5 12,-134.5 117,-134.5 117,-50.5 12,-50.5"/>
<polygon fill="none" stroke="#000000" points="12.5,-106.5 12.5,-134.5 117.5,-134.5 117.5,-106.5 12.5,-106.5"/>
<text text-anchor="start" x="29.5" y="-125.1" font-family="Roboto" font-size="8.00" fill="#000000"> </text>
<text text-anchor="start" x="32.5" y="-125.1" font-family="Roboto" font-style="italic" font-size="8.00" fill="#000000">AbstractAlgorithm</text>
<text text-anchor="start" x="97.5" y="-125.1" font-family="Roboto" font-size="8.00" fill="#000000"> </text>
<text text-anchor="start" x="16.5" y="-114.1" font-family="Roboto" font-size="8.00" fill="#000000"> </text>
<text text-anchor="start" x="19.5" y="-114.1" font-family="Roboto" font-size="7.00" fill="#000000">de.lmu.ifi.dbs.elki.algorithm</text>
<text text-anchor="start" x="110.5" y="-114.1" font-family="Roboto" font-size="8.00" fill="#000000"> </text>
<polygon fill="none" stroke="#000000" points="12.5,-89.5 12.5,-106.5 117.5,-106.5 117.5,-89.5 12.5,-89.5"/>
<text text-anchor="start" x="16.5" y="-96.1" font-family="Roboto" font-size="8.00" fill="#000000"> &#160;</text>
<polygon fill="none" stroke="#000000" points="12.5,-50.5 12.5,-89.5 117.5,-89.5 117.5,-50.5 12.5,-50.5"/>
<text text-anchor="start" x="16.5" y="-79.1" font-family="Roboto" font-size="8.00" fill="#000000"> &#160;run() </text>
<text text-anchor="start" x="16.5" y="-69.1" font-family="Roboto" font-size="8.00" fill="#000000"> </text>
<text text-anchor="start" x="19.5" y="-69.1" font-family="Roboto" font-style="italic" font-size="8.00" fill="#000000"> getInputTypeRestriction()</text>
<text text-anchor="start" x="110.5" y="-69.1" font-family="Roboto" font-size="8.00" fill="#000000"> </text>
<text text-anchor="start" x="16.5" y="-58.1" font-family="Roboto" font-size="8.00" fill="#000000"> </text>
<text text-anchor="start" x="19.5" y="-58.1" font-family="Roboto" font-style="italic" font-size="8.00" fill="#000000"> getLogger()</text>
<text text-anchor="start" x="63.5" y="-58.1" font-family="Roboto" font-size="8.00" fill="#000000"> </text>
</a>
</g>
</a>
</g>
</g>
<!-- c4478586 -->
<g id="node6" class="node">
<title>c4478586</title>
<g id="a_node6"><a xlink:href="FlexibleLOF.html" xlink:title="&lt;TABLE&gt;">
<g id="a_node6_3"><a xlink:href="FlexibleLOF.html" xlink:title="de.lmu.ifi.dbs.elki.algorithm.outlier.lof.FlexibleLOF" target="_parent">
<polygon fill="#fffacd" stroke="transparent" points="148,-84 148,-101 205,-101 205,-84 148,-84"/>
<polygon fill="none" stroke="#000000" points="148.5,-83.5 148.5,-100.5 205.5,-100.5 205.5,-83.5 148.5,-83.5"/>
<text text-anchor="start" x="152.5" y="-91.1" font-family="Roboto" font-size="8.00" fill="#000000"> </text>
<text text-anchor="start" x="155.5" y="-91.1" font-family="Roboto" font-size="8.00" fill="#000000">FlexibleLOF</text>
<text text-anchor="start" x="198.5" y="-91.1" font-family="Roboto" font-size="8.00" fill="#000000"> </text>
</a>
</g>
</a>
</g>
</g>
<!-- c4476698&#45;&gt;c4478586 -->
<g id="edge3" class="edge">
<title>c4476698&#45;&gt;c4478586</title>
<path fill="none" stroke="#000000" d="M127.6057,-92.5C134.6559,-92.5 141.5533,-92.5 147.8413,-92.5"/>
<polygon fill="none" stroke="#000000" points="127.2205,-89.0001 117.2204,-92.5 127.2204,-96.0001 127.2205,-89.0001"/>
</g>
<!-- c4478483 -->
<g id="node4" class="node">
<title>c4478483</title>
<g id="a_node4"><a xlink:href="../OutlierAlgorithm.html" xlink:title="&lt;TABLE&gt;">
<g id="a_node4_4"><a xlink:href="../OutlierAlgorithm.html" xlink:title="de.lmu.ifi.dbs.elki.algorithm.outlier.OutlierAlgorithm" target="_parent">
<polygon fill="#fffacd" stroke="transparent" points="0,0 0,-39 129,-39 129,0 0,0"/>
<polygon fill="none" stroke="#000000" points=".5,.5 .5,-38.5 129.5,-38.5 129.5,.5 .5,.5"/>
<text text-anchor="start" x="43.5" y="-28.1" font-family="Roboto" font-size="8.00" fill="#000000"> «interface» </text>
<text text-anchor="start" x="32.5" y="-18.1" font-family="Roboto" font-size="8.00" fill="#000000"> </text>
<text text-anchor="start" x="35.5" y="-18.1" font-family="Roboto" font-size="8.00" fill="#000000">OutlierAlgorithm</text>
<text text-anchor="start" x="94.5" y="-18.1" font-family="Roboto" font-size="8.00" fill="#000000"> </text>
<text text-anchor="start" x="4.5" y="-7.1" font-family="Roboto" font-size="8.00" fill="#000000"> </text>
<text text-anchor="start" x="7.5" y="-7.1" font-family="Roboto" font-size="7.00" fill="#000000">de.lmu.ifi.dbs.elki.algorithm.outlier</text>
<text text-anchor="start" x="122.5" y="-7.1" font-family="Roboto" font-size="8.00" fill="#000000"> </text>
</a>
</g>
</a>
</g>
</g>
<!-- c4478483&#45;&gt;c4478586 -->
<g id="edge4" class="edge">
<title>c4478483&#45;&gt;c4478586</title>
<path fill="none" stroke="#000000" stroke-dasharray="5,2" d="M127.0475,-44.2462C127.7058,-44.6592 128.3569,-45.0771 129,-45.5 145.4789,-56.3352 161.0183,-73.5059 169.5991,-83.8197"/>
<polygon fill="none" stroke="#000000" points="128.5691,-41.0845 118.1509,-39.158 125.0938,-47.1609 128.5691,-41.0845"/>
</g>
<!-- c4478573 -->
<g id="node5" class="node">
<title>c4478573</title>
<g id="a_node5"><a xlink:href="OnlineLOF.html" xlink:title="&lt;TABLE&gt;">
<g id="a_node5_5"><a xlink:href="OnlineLOF.html" xlink:title="de.lmu.ifi.dbs.elki.algorithm.outlier.lof.OnlineLOF" target="_parent">
<polygon fill="none" stroke="#000000" points="277,-83.5 277,-100.5 330,-100.5 330,-83.5 277,-83.5"/>
<text text-anchor="start" x="281" y="-91.1" font-family="Roboto" font-size="8.00" fill="#000000"> </text>
<text text-anchor="start" x="284" y="-91.1" font-family="Roboto" font-size="8.00" fill="#000000">OnlineLOF</text>
<text text-anchor="start" x="323" y="-91.1" font-family="Roboto" font-size="8.00" fill="#000000"> </text>
</a>
</g>
</a>
</g>
</g>
<!-- c4478587 -->
<g id="node7" class="node">
<title>c4478587</title>
<g id="a_node7"><a xlink:href="FlexibleLOF.LOFResult.html" xlink:title="&lt;TABLE&gt;">
<g id="a_node7_6"><a xlink:href="FlexibleLOF.LOFResult.html" xlink:title="de.lmu.ifi.dbs.elki.algorithm.outlier.lof.FlexibleLOF.LOFResult" target="_parent">
<polygon fill="none" stroke="#000000" points="426.5,-83.5 426.5,-100.5 521.5,-100.5 521.5,-83.5 426.5,-83.5"/>
<text text-anchor="start" x="430.5" y="-91.1" font-family="Roboto" font-size="8.00" fill="#000000"> </text>
<text text-anchor="start" x="433.5" y="-91.1" font-family="Roboto" font-size="8.00" fill="#000000">FlexibleLOF.LOFResult</text>
<text text-anchor="start" x="514.5" y="-91.1" font-family="Roboto" font-size="8.00" fill="#000000"> </text>
</a>
</g>
</a>
</g>
</g>
<!-- c4478573&#45;&gt;c4478587 -->
<g id="edge2" class="edge">
<title>c4478573&#45;&gt;c4478587</title>
<path fill="none" stroke="#000000" d="M341.9041,-92.5C363.7015,-92.5 391.3067,-92.5 415.5983,-92.5"/>
<polygon fill="none" stroke="#000000" points="341.6406,-92.5001 335.6406,-96.5 329.6406,-92.5 335.6407,-88.5 341.6406,-92.5001"/>
<polygon fill="#000000" stroke="#000000" points="425.7795,-92.5 415.7796,-97.0001 420.7795,-92.5 415.7795,-92.5001 415.7795,-92.5001 415.7795,-92.5001 420.7795,-92.5 415.7795,-88.0001 425.7795,-92.5 425.7795,-92.5"/>
<text text-anchor="middle" x="404" y="-94.9" font-family="Roboto" font-size="7.00" fill="#000000">updates</text>
</g>
<!-- c4478586&#45;&gt;c4476614 -->
<g id="edge7" class="edge">
<title>c4478586&#45;&gt;c4476614</title>
<path fill="none" stroke="#000000" d="M184.0407,-101.1569C191.1015,-108.7839 202.2942,-119.7082 214,-126.5 217.211,-128.363 220.5576,-130.1245 223.99,-131.7877"/>
<polygon fill="#000000" stroke="#000000" points="233.2423,-135.963 222.2764,-135.9513 228.6848,-133.9063 224.1274,-131.8496 224.1274,-131.8496 224.1274,-131.8496 228.6848,-133.9063 225.9784,-127.7479 233.2423,-135.963 233.2423,-135.963"/>
</g>
<!-- c4478586&#45;&gt;c4476641 -->
<g id="edge5" class="edge">
<title>c4478586&#45;&gt;c4476641</title>
<path fill="none" stroke="#000000" d="M213.3053,-104.3416C216.8919,-105.1947 220.4983,-105.9387 224,-106.5 333.5116,-124.0551 462.7961,-123.8509 539.809,-121.5625"/>
<polygon fill="none" stroke="#000000" points="212.9562,-104.2477 206.1224,-106.5499 201.369,-101.1273 208.2027,-98.8251 212.9562,-104.2477"/>
</g>
<!-- c4478586&#45;&gt;c4478573 -->
<g id="edge1" class="edge">
<title>c4478586&#45;&gt;c4478573</title>
<path fill="none" stroke="#000000" d="M215.4024,-92.5C235.0848,-92.5 258.4795,-92.5 276.1388,-92.5"/>
<polygon fill="none" stroke="#000000" points="215.2048,-89.0001 205.2048,-92.5 215.2048,-96.0001 215.2048,-89.0001"/>
</g>
<!-- c4478586&#45;&gt;c4478587 -->
<g id="edge6" class="edge">
<title>c4478586&#45;&gt;c4478587</title>
<path fill="none" stroke="#000000" d="M201.7781,-78.3404C208.7652,-75.1153 216.4949,-72.1536 224,-70.5 292.5773,-55.3899 312.2659,-62.2344 382,-70.5 399.8698,-72.6181 419.3001,-76.9859 435.6404,-81.2756"/>
<polygon fill="none" stroke="#000000" points="201.6052,-78.4276 198.0498,-84.7013 190.8912,-83.8323 194.4466,-77.5586 201.6052,-78.4276"/>
<polygon fill="#000000" stroke="#000000" points="445.3736,-83.9155 434.5443,-85.6408 440.548,-82.6066 435.7223,-81.2977 435.7223,-81.2977 435.7223,-81.2977 440.548,-82.6066 436.9004,-76.9546 445.3736,-83.9155 445.3736,-83.9155"/>
<text text-anchor="middle" x="303" y="-72.9" font-family="Roboto" font-size="7.00" fill="#000000">computes</text>
</g>
<!-- c4478587&#45;&gt;c4476641 -->
<g id="edge8" class="edge">
<title>c4478587&#45;&gt;c4476641</title>
<path fill="none" stroke="#000000" d="M517.3766,-101.0134C521.4125,-101.7964 525.5759,-102.6043 529.7975,-103.4234"/>
<polygon fill="#000000" stroke="#000000" points="539.721,-105.3488 529.0469,-107.8616 534.8125,-104.3964 529.9041,-103.444 529.9041,-103.444 529.9041,-103.444 534.8125,-104.3964 530.7613,-99.0264 539.721,-105.3488 539.721,-105.3488"/>
</g>
</g>
</svg>
