<?xml version="1.0" encoding="UTF-8" standalone="no"?>
<!DOCTYPE svg PUBLIC "-//W3C//DTD SVG 1.1//EN"
 "http://www.w3.org/Graphics/SVG/1.1/DTD/svg11.dtd">
<!-- Generated by graphviz version 2.40.1 (20161225.0304)
 -->
<!-- Title: G Pages: 1 -->
<svg width="339pt" height="92pt"
 viewBox="0.00 0.00 339.00 92.00" xmlns="http://www.w3.org/2000/svg" xmlns:xlink="http://www.w3.org/1999/xlink">
<g id="graph0" class="graph" transform="scale(1 1) rotate(0) translate(4 88)">
<title>G</title>
<polygon fill="#ffffff" stroke="transparent" points="-4,4 -4,-88 335,-88 335,4 -4,4"/>
<!-- c6078458 -->
<g id="node1" class="node">
<title>c6078458</title>
<g id="a_node1"><a xlink:href="../../AbstractDistanceBasedAlgorithm.html" xlink:title="&lt;TABLE&gt;">
<g id="a_node1_0"><a xlink:href="../../AbstractDistanceBasedAlgorithm.html" xlink:title="de.lmu.ifi.dbs.elki.algorithm.AbstractDistanceBasedAlgorithm" target="_parent">
<polygon fill="#fffacd" stroke="transparent" points="0,-50.5 0,-78.5 130,-78.5 130,-50.5 0,-50.5"/>
<polygon fill="none" stroke="#000000" points="0,-50.5 0,-78.5 130,-78.5 130,-50.5 0,-50.5"/>
<text text-anchor="start" x="4" y="-69.1" font-family="Roboto" font-size="8.00" fill="#000000"> </text>
<text text-anchor="start" x="7" y="-69.1" font-family="Roboto" font-style="italic" font-size="8.00" fill="#000000">AbstractDistanceBasedAlgorithm</text>
<text text-anchor="start" x="123" y="-69.1" font-family="Roboto" font-size="8.00" fill="#000000"> </text>
<text text-anchor="start" x="16.5" y="-58.1" font-family="Roboto" font-size="8.00" fill="#000000"> </text>
<text text-anchor="start" x="19.5" y="-58.1" font-family="Roboto" font-size="7.00" fill="#000000">de.lmu.ifi.dbs.elki.algorithm</text>
<text text-anchor="start" x="110.5" y="-58.1" font-family="Roboto" font-size="8.00" fill="#000000"> </text>
</a>
</g>
</a>
</g>
</g>
<!-- c6080435 -->
<g id="node4" class="node">
<title>c6080435</title>
<g id="a_node4"><a xlink:href="LOF.html" xlink:title="&lt;TABLE&gt;">
<g id="a_node4_1"><a xlink:href="LOF.html" xlink:title="de.lmu.ifi.dbs.elki.algorithm.outlier.lof.LOF" target="_parent">
<polygon fill="#fffacd" stroke="transparent" points="148,-56 148,-73 178,-73 178,-56 148,-56"/>
<polygon fill="none" stroke="#000000" points="148,-55.5 148,-72.5 178,-72.5 178,-55.5 148,-55.5"/>
<text text-anchor="start" x="152" y="-63.1" font-family="Roboto" font-size="8.00" fill="#000000"> </text>
<text text-anchor="start" x="155" y="-63.1" font-family="Roboto" font-size="8.00" fill="#000000">LOF</text>
<text text-anchor="start" x="171" y="-63.1" font-family="Roboto" font-size="8.00" fill="#000000"> </text>
</a>
</g>
</a>
</g>
</g>
<!-- c6078458&#45;&gt;c6080435 -->
<g id="edge1" class="edge">
<title>c6078458&#45;&gt;c6080435</title>
<path fill="none" stroke="#000000" d="M140.2977,-64.5C142.9619,-64.5 145.4787,-64.5 147.7984,-64.5"/>
<polygon fill="none" stroke="#000000" points="140.0948,-61.0001 130.0948,-64.5 140.0948,-68.0001 140.0948,-61.0001"/>
</g>
<!-- c6078498 -->
<g id="node2" class="node">
<title>c6078498</title>
<g id="a_node2"><a xlink:href="../../../database/query/knn/KNNQuery.html" xlink:title="&lt;TABLE&gt;">
<g id="a_node2_2"><a xlink:href="../../../database/query/knn/KNNQuery.html" xlink:title="de.lmu.ifi.dbs.elki.database.query.knn.KNNQuery" target="_parent">
<polygon fill="#fffacd" stroke="transparent" points="196,-45 196,-84 331,-84 331,-45 196,-45"/>
<polygon fill="none" stroke="#000000" points="196.5,-44.5 196.5,-83.5 331.5,-83.5 331.5,-44.5 196.5,-44.5"/>
<text text-anchor="start" x="242.5" y="-73.1" font-family="Roboto" font-size="8.00" fill="#000000"> «interface» </text>
<text text-anchor="start" x="241.5" y="-63.1" font-family="Roboto" font-size="8.00" fill="#000000"> </text>
<text text-anchor="start" x="244.5" y="-63.1" font-family="Roboto" font-size="8.00" fill="#000000">KNNQuery</text>
<text text-anchor="start" x="283.5" y="-63.1" font-family="Roboto" font-size="8.00" fill="#000000"> </text>
<text text-anchor="start" x="200.5" y="-52.1" font-family="Roboto" font-size="8.00" fill="#000000"> </text>
<text text-anchor="start" x="203.5" y="-52.1" font-family="Roboto" font-size="7.00" fill="#000000">de.lmu.ifi.dbs.elki.database.query.knn</text>
<text text-anchor="start" x="324.5" y="-52.1" font-family="Roboto" font-size="8.00" fill="#000000"> </text>
</a>
</g>
</a>
</g>
</g>
<!-- c6080340 -->
<g id="node3" class="node">
<title>c6080340</title>
<g id="a_node3"><a xlink:href="../OutlierAlgorithm.html" xlink:title="&lt;TABLE&gt;">
<g id="a_node3_3"><a xlink:href="../OutlierAlgorithm.html" xlink:title="de.lmu.ifi.dbs.elki.algorithm.outlier.OutlierAlgorithm" target="_parent">
<polygon fill="#fffacd" stroke="transparent" points=".5,0 .5,-39 129.5,-39 129.5,0 .5,0"/>
<polygon fill="none" stroke="#000000" points="1,.5 1,-38.5 130,-38.5 130,.5 1,.5"/>
<text text-anchor="start" x="44" y="-28.1" font-family="Roboto" font-size="8.00" fill="#000000"> «interface» </text>
<text text-anchor="start" x="33" y="-18.1" font-family="Roboto" font-size="8.00" fill="#000000"> </text>
<text text-anchor="start" x="36" y="-18.1" font-family="Roboto" font-size="8.00" fill="#000000">OutlierAlgorithm</text>
<text text-anchor="start" x="95" y="-18.1" font-family="Roboto" font-size="8.00" fill="#000000"> </text>
<text text-anchor="start" x="5" y="-7.1" font-family="Roboto" font-size="8.00" fill="#000000"> </text>
<text text-anchor="start" x="8" y="-7.1" font-family="Roboto" font-size="7.00" fill="#000000">de.lmu.ifi.dbs.elki.algorithm.outlier</text>
<text text-anchor="start" x="123" y="-7.1" font-family="Roboto" font-size="8.00" fill="#000000"> </text>
</a>
</g>
</a>
</g>
</g>
<!-- c6080340&#45;&gt;c6080435 -->
<g id="edge2" class="edge">
<title>c6080340&#45;&gt;c6080435</title>
<path fill="none" stroke="#000000" stroke-dasharray="5,2" d="M125.3018,-43.2704C126.89,-44.0088 128.4587,-44.7527 130,-45.5 136.4245,-48.6149 143.3016,-52.4832 149.106,-55.9148"/>
<polygon fill="none" stroke="#000000" points="126.6005,-40.0169 116.0443,-39.1127 123.7326,-46.4025 126.6005,-40.0169"/>
</g>
<!-- c6080435&#45;&gt;c6078498 -->
<g id="edge3" class="edge">
<title>c6080435&#45;&gt;c6078498</title>
<path fill="none" stroke="#000000" d="M190.4228,-64.5C192.1496,-64.5 193.9222,-64.5 195.7293,-64.5"/>
<polygon fill="none" stroke="#000000" points="190.2638,-64.5001 184.2638,-68.5 178.2638,-64.5 184.2638,-60.5 190.2638,-64.5001"/>
</g>
</g>
</svg>
