<?xml version="1.0" encoding="UTF-8" standalone="no"?>
<!DOCTYPE svg PUBLIC "-//W3C//DTD SVG 1.1//EN"
 "http://www.w3.org/Graphics/SVG/1.1/DTD/svg11.dtd">
<!-- Generated by graphviz version 2.40.1 (20161225.0304)
 -->
<!-- Title: G Pages: 1 -->
<svg width="283pt" height="193pt"
 viewBox="0.00 0.00 283.00 193.00" xmlns="http://www.w3.org/2000/svg" xmlns:xlink="http://www.w3.org/1999/xlink">
<g id="graph0" class="graph" transform="scale(1 1) rotate(0) translate(4 189)">
<title>G</title>
<polygon fill="#ffffff" stroke="transparent" points="-4,4 -4,-189 279,-189 279,4 -4,4"/>
<!-- c757337 -->
<g id="node1" class="node">
<title>c757337</title>
<g id="a_node1"><a xlink:href="NanoDuration.html" xlink:title="&lt;TABLE&gt;">
<g id="a_node1_0"><a xlink:href="NanoDuration.html" xlink:title="de.lmu.ifi.dbs.elki.logging.statistics.NanoDuration" target="_parent">
<polygon fill="none" stroke="#000000" points="185,-139.5 185,-156.5 249,-156.5 249,-139.5 185,-139.5"/>
<text text-anchor="start" x="189" y="-147.1" font-family="Roboto" font-size="8.00" fill="#000000"> </text>
<text text-anchor="start" x="192" y="-147.1" font-family="Roboto" font-size="8.00" fill="#000000">NanoDuration</text>
<text text-anchor="start" x="242" y="-147.1" font-family="Roboto" font-size="8.00" fill="#000000"> </text>
</a>
</g>
</a>
</g>
</g>
<!-- c757338 -->
<g id="node2" class="node">
<title>c757338</title>
<g id="a_node2"><a xlink:href="UnsynchronizedLongCounter.html" xlink:title="&lt;TABLE&gt;">
<g id="a_node2_1"><a xlink:href="UnsynchronizedLongCounter.html" xlink:title="de.lmu.ifi.dbs.elki.logging.statistics.UnsynchronizedLongCounter" target="_parent">
<polygon fill="none" stroke="#000000" points="159,.5 159,-16.5 275,-16.5 275,.5 159,.5"/>
<text text-anchor="start" x="163" y="-7.1" font-family="Roboto" font-size="8.00" fill="#000000"> </text>
<text text-anchor="start" x="166" y="-7.1" font-family="Roboto" font-size="8.00" fill="#000000">UnsynchronizedLongCounter</text>
<text text-anchor="start" x="268" y="-7.1" font-family="Roboto" font-size="8.00" fill="#000000"> </text>
</a>
</g>
</a>
</g>
</g>
<!-- c757339 -->
<g id="node3" class="node">
<title>c757339</title>
<g id="a_node3"><a xlink:href="AbstractStatistic.html" xlink:title="&lt;TABLE&gt;">
<g id="a_node3_2"><a xlink:href="AbstractStatistic.html" xlink:title="de.lmu.ifi.dbs.elki.logging.statistics.AbstractStatistic" target="_parent">
<polygon fill="none" stroke="#000000" points="69,-83.5 69,-100.5 141,-100.5 141,-83.5 69,-83.5"/>
<text text-anchor="start" x="73" y="-91.1" font-family="Roboto" font-size="8.00" fill="#000000"> </text>
<text text-anchor="start" x="76" y="-91.1" font-family="Roboto" font-style="italic" font-size="8.00" fill="#000000">AbstractStatistic</text>
<text text-anchor="start" x="134" y="-91.1" font-family="Roboto" font-size="8.00" fill="#000000"> </text>
</a>
</g>
</a>
</g>
</g>
<!-- c757339&#45;&gt;c757337 -->
<g id="edge1" class="edge">
<title>c757339&#45;&gt;c757337</title>
<path fill="none" stroke="#000000" d="M121.3314,-108.2023C131.4482,-117.1244 145.1236,-127.815 159,-134.5 167.0256,-138.3664 176.2046,-141.215 184.8562,-143.2933"/>
<polygon fill="none" stroke="#000000" points="123.4815,-105.4253 113.7439,-101.2504 118.7526,-110.5865 123.4815,-105.4253"/>
</g>
<!-- c757339&#45;&gt;c757338 -->
<g id="edge3" class="edge">
<title>c757339&#45;&gt;c757338</title>
<path fill="none" stroke="#000000" d="M122.3974,-76.5472C128.6684,-70.3199 135.5386,-62.9042 141,-55.5 150.917,-42.0552 145.7422,-32.6657 159,-22.5 161.7127,-20.42 164.6898,-18.6436 167.818,-17.1271"/>
<polygon fill="none" stroke="#000000" points="119.7229,-74.2627 114.9259,-83.7094 124.5669,-79.316 119.7229,-74.2627"/>
</g>
<!-- c757340 -->
<g id="node4" class="node">
<title>c757340</title>
<g id="a_node4"><a xlink:href="MillisTimeDuration.html" xlink:title="&lt;TABLE&gt;">
<g id="a_node4_3"><a xlink:href="MillisTimeDuration.html" xlink:title="de.lmu.ifi.dbs.elki.logging.statistics.MillisTimeDuration" target="_parent">
<polygon fill="none" stroke="#000000" points="175,-167.5 175,-184.5 259,-184.5 259,-167.5 175,-167.5"/>
<text text-anchor="start" x="179" y="-175.1" font-family="Roboto" font-size="8.00" fill="#000000"> </text>
<text text-anchor="start" x="182" y="-175.1" font-family="Roboto" font-size="8.00" fill="#000000">MillisTimeDuration</text>
<text text-anchor="start" x="252" y="-175.1" font-family="Roboto" font-size="8.00" fill="#000000"> </text>
</a>
</g>
</a>
</g>
</g>
<!-- c757339&#45;&gt;c757340 -->
<g id="edge6" class="edge">
<title>c757339&#45;&gt;c757340</title>
<path fill="none" stroke="#000000" d="M122.732,-108.1689C128.9407,-114.1655 135.6832,-121.3013 141,-128.5 151.158,-142.2536 145.4965,-152.0118 159,-162.5 163.6631,-166.1218 169.1251,-168.8249 174.799,-170.8387"/>
<polygon fill="none" stroke="#000000" points="125.0086,-105.5067 115.3005,-101.2636 120.2437,-110.6346 125.0086,-105.5067"/>
</g>
<!-- c757341 -->
<g id="node5" class="node">
<title>c757341</title>
<g id="a_node5"><a xlink:href="AtomicLongCounter.html" xlink:title="&lt;TABLE&gt;">
<g id="a_node5_4"><a xlink:href="AtomicLongCounter.html" xlink:title="de.lmu.ifi.dbs.elki.logging.statistics.AtomicLongCounter" target="_parent">
<polygon fill="none" stroke="#000000" points="176,-27.5 176,-44.5 259,-44.5 259,-27.5 176,-27.5"/>
<text text-anchor="start" x="180" y="-35.1" font-family="Roboto" font-size="8.00" fill="#000000"> </text>
<text text-anchor="start" x="183" y="-35.1" font-family="Roboto" font-size="8.00" fill="#000000">AtomicLongCounter</text>
<text text-anchor="start" x="252" y="-35.1" font-family="Roboto" font-size="8.00" fill="#000000"> </text>
</a>
</g>
</a>
</g>
</g>
<!-- c757339&#45;&gt;c757341 -->
<g id="edge8" class="edge">
<title>c757339&#45;&gt;c757341</title>
<path fill="none" stroke="#000000" d="M121.3314,-76.7977C131.4482,-67.8756 145.1236,-57.185 159,-50.5 164.1327,-48.0273 169.7371,-45.9709 175.3736,-44.266"/>
<polygon fill="none" stroke="#000000" points="118.7526,-74.4135 113.7439,-83.7496 123.4815,-79.5747 118.7526,-74.4135"/>
</g>
<!-- c757342 -->
<g id="node6" class="node">
<title>c757342</title>
<g id="a_node6"><a xlink:href="DoubleStatistic.html" xlink:title="&lt;TABLE&gt;">
<g id="a_node6_5"><a xlink:href="DoubleStatistic.html" xlink:title="de.lmu.ifi.dbs.elki.logging.statistics.DoubleStatistic" target="_parent">
<polygon fill="none" stroke="#000000" points="184,-111.5 184,-128.5 251,-128.5 251,-111.5 184,-111.5"/>
<text text-anchor="start" x="188" y="-119.1" font-family="Roboto" font-size="8.00" fill="#000000"> </text>
<text text-anchor="start" x="191" y="-119.1" font-family="Roboto" font-size="8.00" fill="#000000">DoubleStatistic</text>
<text text-anchor="start" x="244" y="-119.1" font-family="Roboto" font-size="8.00" fill="#000000"> </text>
</a>
</g>
</a>
</g>
</g>
<!-- c757339&#45;&gt;c757342 -->
<g id="edge10" class="edge">
<title>c757339&#45;&gt;c757342</title>
<path fill="none" stroke="#000000" d="M147.2933,-103.5374C151.2485,-104.5477 155.1979,-105.5483 159,-106.5 166.8379,-108.4618 175.284,-110.5279 183.2401,-112.4525"/>
<polygon fill="none" stroke="#000000" points="148.0869,-100.1276 137.5304,-101.0283 146.3444,-106.9073 148.0869,-100.1276"/>
</g>
<!-- c757345 -->
<g id="node9" class="node">
<title>c757345</title>
<g id="a_node9"><a xlink:href="StringStatistic.html" xlink:title="&lt;TABLE&gt;">
<g id="a_node9_6"><a xlink:href="StringStatistic.html" xlink:title="de.lmu.ifi.dbs.elki.logging.statistics.StringStatistic" target="_parent">
<polygon fill="none" stroke="#000000" points="186,-83.5 186,-100.5 249,-100.5 249,-83.5 186,-83.5"/>
<text text-anchor="start" x="190" y="-91.1" font-family="Roboto" font-size="8.00" fill="#000000"> </text>
<text text-anchor="start" x="193" y="-91.1" font-family="Roboto" font-size="8.00" fill="#000000">StringStatistic</text>
<text text-anchor="start" x="242" y="-91.1" font-family="Roboto" font-size="8.00" fill="#000000"> </text>
</a>
</g>
</a>
</g>
</g>
<!-- c757339&#45;&gt;c757345 -->
<g id="edge12" class="edge">
<title>c757339&#45;&gt;c757345</title>
<path fill="none" stroke="#000000" d="M151.3037,-92.5C162.6948,-92.5 174.638,-92.5 185.1698,-92.5"/>
<polygon fill="none" stroke="#000000" points="151.054,-89.0001 141.054,-92.5 151.054,-96.0001 151.054,-89.0001"/>
</g>
<!-- c757347 -->
<g id="node11" class="node">
<title>c757347</title>
<g id="a_node11"><a xlink:href="LongStatistic.html" xlink:title="&lt;TABLE&gt;">
<g id="a_node11_7"><a xlink:href="LongStatistic.html" xlink:title="de.lmu.ifi.dbs.elki.logging.statistics.LongStatistic" target="_parent">
<polygon fill="none" stroke="#000000" points="187,-55.5 187,-72.5 247,-72.5 247,-55.5 187,-55.5"/>
<text text-anchor="start" x="191" y="-63.1" font-family="Roboto" font-size="8.00" fill="#000000"> </text>
<text text-anchor="start" x="194" y="-63.1" font-family="Roboto" font-size="8.00" fill="#000000">LongStatistic</text>
<text text-anchor="start" x="240" y="-63.1" font-family="Roboto" font-size="8.00" fill="#000000"> </text>
</a>
</g>
</a>
</g>
</g>
<!-- c757339&#45;&gt;c757347 -->
<g id="edge14" class="edge">
<title>c757339&#45;&gt;c757347</title>
<path fill="none" stroke="#000000" d="M147.2933,-81.4626C151.2485,-80.4523 155.1979,-79.4517 159,-78.5 168.0438,-76.2363 177.8972,-73.834 186.8733,-71.6702"/>
<polygon fill="none" stroke="#000000" points="146.3444,-78.0927 137.5304,-83.9717 148.0869,-84.8724 146.3444,-78.0927"/>
</g>
<!-- c757343 -->
<g id="node7" class="node">
<title>c757343</title>
<g id="a_node7"><a xlink:href="Duration.html" xlink:title="&lt;TABLE&gt;">
<g id="a_node7_8"><a xlink:href="Duration.html" xlink:title="de.lmu.ifi.dbs.elki.logging.statistics.Duration" target="_parent">
<polygon fill="none" stroke="#000000" points="80,-134.5 80,-162.5 131,-162.5 131,-134.5 80,-134.5"/>
<text text-anchor="start" x="84" y="-152.1" font-family="Roboto" font-size="8.00" fill="#000000"> «interface» </text>
<text text-anchor="start" x="87" y="-142.1" font-family="Roboto" font-size="8.00" fill="#000000"> </text>
<text text-anchor="start" x="90" y="-142.1" font-family="Roboto" font-size="8.00" fill="#000000">Duration</text>
<text text-anchor="start" x="121" y="-142.1" font-family="Roboto" font-size="8.00" fill="#000000"> </text>
</a>
</g>
</a>
</g>
</g>
<!-- c757343&#45;&gt;c757337 -->
<g id="edge2" class="edge">
<title>c757343&#45;&gt;c757337</title>
<path fill="none" stroke="#000000" stroke-dasharray="5,2" d="M140.971,-148.5C154.992,-148.5 170.9423,-148.5 184.6003,-148.5"/>
<polygon fill="none" stroke="#000000" points="140.6951,-145.0001 130.6951,-148.5 140.695,-152.0001 140.6951,-145.0001"/>
</g>
<!-- c757343&#45;&gt;c757340 -->
<g id="edge7" class="edge">
<title>c757343&#45;&gt;c757340</title>
<path fill="none" stroke="#000000" stroke-dasharray="5,2" d="M140.5836,-157.816C146.7209,-159.3969 153.0414,-161.0086 159,-162.5 166.1345,-164.2858 173.773,-166.1579 181.087,-167.9311"/>
<polygon fill="none" stroke="#000000" points="141.082,-154.3297 130.5239,-155.2113 139.3273,-161.1062 141.082,-154.3297"/>
</g>
<!-- c757344 -->
<g id="node8" class="node">
<title>c757344</title>
<g id="a_node8"><a xlink:href="Statistic.html" xlink:title="&lt;TABLE&gt;">
<g id="a_node8_9"><a xlink:href="Statistic.html" xlink:title="de.lmu.ifi.dbs.elki.logging.statistics.Statistic" target="_parent">
<polygon fill="none" stroke="#000000" points=".5,-78.5 .5,-106.5 51.5,-106.5 51.5,-78.5 .5,-78.5"/>
<text text-anchor="start" x="4.5" y="-96.1" font-family="Roboto" font-size="8.00" fill="#000000"> «interface» </text>
<text text-anchor="start" x="9" y="-86.1" font-family="Roboto" font-size="8.00" fill="#000000"> </text>
<text text-anchor="start" x="12" y="-86.1" font-family="Roboto" font-size="8.00" fill="#000000">Statistic</text>
<text text-anchor="start" x="40" y="-86.1" font-family="Roboto" font-size="8.00" fill="#000000"> </text>
</a>
</g>
</a>
</g>
</g>
<!-- c757344&#45;&gt;c757339 -->
<g id="edge5" class="edge">
<title>c757344&#45;&gt;c757339</title>
<path fill="none" stroke="#000000" stroke-dasharray="5,2" d="M61.1861,-92.5C63.6969,-92.5 66.2295,-92.5 68.7433,-92.5"/>
<polygon fill="none" stroke="#000000" points="61.0919,-89.0001 51.0919,-92.5 61.0919,-96.0001 61.0919,-89.0001"/>
</g>
<!-- c757344&#45;&gt;c757343 -->
<g id="edge11" class="edge">
<title>c757344&#45;&gt;c757343</title>
<path fill="none" stroke="#000000" stroke-dasharray="5,2" d="M53.8662,-112.4812C64.144,-119.721 75.5308,-127.7418 84.9452,-134.3734"/>
<polygon fill="none" stroke="#000000" points="55.7522,-109.5286 45.5612,-106.6312 51.721,-115.2513 55.7522,-109.5286"/>
</g>
<!-- c757346 -->
<g id="node10" class="node">
<title>c757346</title>
<g id="a_node10"><a xlink:href="Counter.html" xlink:title="&lt;TABLE&gt;">
<g id="a_node10_10"><a xlink:href="Counter.html" xlink:title="de.lmu.ifi.dbs.elki.logging.statistics.Counter" target="_parent">
<polygon fill="none" stroke="#000000" points="80,-22.5 80,-50.5 131,-50.5 131,-22.5 80,-22.5"/>
<text text-anchor="start" x="84" y="-40.1" font-family="Roboto" font-size="8.00" fill="#000000"> «interface» </text>
<text text-anchor="start" x="88.5" y="-30.1" font-family="Roboto" font-size="8.00" fill="#000000"> </text>
<text text-anchor="start" x="91.5" y="-30.1" font-family="Roboto" font-size="8.00" fill="#000000">Counter</text>
<text text-anchor="start" x="119.5" y="-30.1" font-family="Roboto" font-size="8.00" fill="#000000"> </text>
</a>
</g>
</a>
</g>
</g>
<!-- c757344&#45;&gt;c757346 -->
<g id="edge13" class="edge">
<title>c757344&#45;&gt;c757346</title>
<path fill="none" stroke="#000000" stroke-dasharray="5,2" d="M53.8662,-72.5188C64.144,-65.279 75.5308,-57.2582 84.9452,-50.6266"/>
<polygon fill="none" stroke="#000000" points="51.721,-69.7487 45.5612,-78.3688 55.7522,-75.4714 51.721,-69.7487"/>
</g>
<!-- c757346&#45;&gt;c757338 -->
<g id="edge4" class="edge">
<title>c757346&#45;&gt;c757338</title>
<path fill="none" stroke="#000000" stroke-dasharray="5,2" d="M140.5836,-27.184C146.7209,-25.6031 153.0414,-23.9914 159,-22.5 166.1345,-20.7142 173.773,-18.8421 181.087,-17.0689"/>
<polygon fill="none" stroke="#000000" points="139.3273,-23.8938 130.5239,-29.7887 141.082,-30.6703 139.3273,-23.8938"/>
</g>
<!-- c757346&#45;&gt;c757341 -->
<g id="edge9" class="edge">
<title>c757346&#45;&gt;c757341</title>
<path fill="none" stroke="#000000" stroke-dasharray="5,2" d="M140.7649,-36.5C151.7181,-36.5 163.8645,-36.5 175.1834,-36.5"/>
<polygon fill="none" stroke="#000000" points="140.6951,-33.0001 130.6951,-36.5 140.695,-40.0001 140.6951,-33.0001"/>
</g>
</g>
</svg>
