<?xml version="1.0" encoding="UTF-8" standalone="no"?>
<!DOCTYPE svg PUBLIC "-//W3C//DTD SVG 1.1//EN"
 "http://www.w3.org/Graphics/SVG/1.1/DTD/svg11.dtd">
<!-- Generated by graphviz version 2.40.1 (20161225.0304)
 -->
<!-- Title: G Pages: 1 -->
<svg width="230pt" height="53pt"
 viewBox="0.00 0.00 230.00 53.00" xmlns="http://www.w3.org/2000/svg" xmlns:xlink="http://www.w3.org/1999/xlink">
<g id="graph0" class="graph" transform="scale(1 1) rotate(0) translate(4 49)">
<title>G</title>
<polygon fill="#ffffff" stroke="transparent" points="-4,4 -4,-49 226,-49 226,4 -4,4"/>
<!-- c3679030 -->
<g id="node1" class="node">
<title>c3679030</title>
<g id="a_node1"><a xlink:href="NanoDuration.html" xlink:title="&lt;TABLE&gt;">
<g id="a_node1_0"><a xlink:href="NanoDuration.html" xlink:title="de.lmu.ifi.dbs.elki.logging.statistics.NanoDuration" target="_parent">
<polygon fill="none" stroke="#000000" points="148,-27.5 148,-44.5 212,-44.5 212,-27.5 148,-27.5"/>
<text text-anchor="start" x="152" y="-35.1" font-family="Roboto" font-size="8.00" fill="#000000"> </text>
<text text-anchor="start" x="155" y="-35.1" font-family="Roboto" font-size="8.00" fill="#000000">NanoDuration</text>
<text text-anchor="start" x="205" y="-35.1" font-family="Roboto" font-size="8.00" fill="#000000"> </text>
</a>
</g>
</a>
</g>
</g>
<!-- c3679033 -->
<g id="node2" class="node">
<title>c3679033</title>
<g id="a_node2"><a xlink:href="MillisTimeDuration.html" xlink:title="&lt;TABLE&gt;">
<g id="a_node2_1"><a xlink:href="MillisTimeDuration.html" xlink:title="de.lmu.ifi.dbs.elki.logging.statistics.MillisTimeDuration" target="_parent">
<polygon fill="none" stroke="#000000" points="138,.5 138,-16.5 222,-16.5 222,.5 138,.5"/>
<text text-anchor="start" x="142" y="-7.1" font-family="Roboto" font-size="8.00" fill="#000000"> </text>
<text text-anchor="start" x="145" y="-7.1" font-family="Roboto" font-size="8.00" fill="#000000">MillisTimeDuration</text>
<text text-anchor="start" x="215" y="-7.1" font-family="Roboto" font-size="8.00" fill="#000000"> </text>
</a>
</g>
</a>
</g>
</g>
<!-- c3679036 -->
<g id="node3" class="node">
<title>c3679036</title>
<g id="a_node3"><a xlink:href="Duration.html" xlink:title="&lt;TABLE&gt;">
<g id="a_node3_2"><a xlink:href="Duration.html" xlink:title="de.lmu.ifi.dbs.elki.logging.statistics.Duration" target="_parent">
<polygon fill="#fffacd" stroke="transparent" points="69,-8.5 69,-36.5 120,-36.5 120,-8.5 69,-8.5"/>
<polygon fill="none" stroke="#000000" points="69.5,-8.5 69.5,-36.5 120.5,-36.5 120.5,-8.5 69.5,-8.5"/>
<text text-anchor="start" x="73.5" y="-26.1" font-family="Roboto" font-size="8.00" fill="#000000"> «interface» </text>
<text text-anchor="start" x="76.5" y="-16.1" font-family="Roboto" font-size="8.00" fill="#000000"> </text>
<text text-anchor="start" x="79.5" y="-16.1" font-family="Roboto" font-size="8.00" fill="#000000">Duration</text>
<text text-anchor="start" x="110.5" y="-16.1" font-family="Roboto" font-size="8.00" fill="#000000"> </text>
</a>
</g>
</a>
</g>
</g>
<!-- c3679036&#45;&gt;c3679030 -->
<g id="edge1" class="edge">
<title>c3679036&#45;&gt;c3679030</title>
<path fill="none" stroke="#000000" stroke-dasharray="5,2" d="M130.2701,-28.3571C136.0482,-29.3032 142.0012,-30.278 147.6913,-31.2097"/>
<polygon fill="none" stroke="#000000" points="130.587,-24.8624 120.1528,-26.7005 129.4558,-31.7705 130.587,-24.8624"/>
</g>
<!-- c3679036&#45;&gt;c3679033 -->
<g id="edge2" class="edge">
<title>c3679036&#45;&gt;c3679033</title>
<path fill="none" stroke="#000000" stroke-dasharray="5,2" d="M130.2553,-16.6453C132.7815,-16.2317 135.3412,-15.8126 137.8977,-15.3939"/>
<polygon fill="none" stroke="#000000" points="129.4558,-13.2295 120.1528,-18.2995 130.587,-20.1376 129.4558,-13.2295"/>
</g>
<!-- c3679037 -->
<g id="node4" class="node">
<title>c3679037</title>
<g id="a_node4"><a xlink:href="Statistic.html" xlink:title="&lt;TABLE&gt;">
<g id="a_node4_3"><a xlink:href="Statistic.html" xlink:title="de.lmu.ifi.dbs.elki.logging.statistics.Statistic" target="_parent">
<polygon fill="none" stroke="#000000" points=".5,-8.5 .5,-36.5 51.5,-36.5 51.5,-8.5 .5,-8.5"/>
<text text-anchor="start" x="4.5" y="-26.1" font-family="Roboto" font-size="8.00" fill="#000000"> «interface» </text>
<text text-anchor="start" x="9" y="-16.1" font-family="Roboto" font-size="8.00" fill="#000000"> </text>
<text text-anchor="start" x="12" y="-16.1" font-family="Roboto" font-size="8.00" fill="#000000">Statistic</text>
<text text-anchor="start" x="40" y="-16.1" font-family="Roboto" font-size="8.00" fill="#000000"> </text>
</a>
</g>
</a>
</g>
</g>
<!-- c3679037&#45;&gt;c3679036 -->
<g id="edge3" class="edge">
<title>c3679037&#45;&gt;c3679036</title>
<path fill="none" stroke="#000000" stroke-dasharray="5,2" d="M61.2398,-22.5C63.7035,-22.5 66.1589,-22.5 68.5554,-22.5"/>
<polygon fill="none" stroke="#000000" points="61.1931,-19.0001 51.1931,-22.5 61.193,-26.0001 61.1931,-19.0001"/>
</g>
</g>
</svg>
