<?xml version="1.0" encoding="UTF-8" standalone="no"?><svg xmlns="http://www.w3.org/2000/svg" xmlns:xlink="http://www.w3.org/1999/xlink" contentStyleType="text/css" height="169px" preserveAspectRatio="none" style="width:493px;height:169px;background:#FFFFFF;" version="1.1" viewBox="0 0 493 169" width="493px" zoomAndPan="magnify"><defs/><g><!--MD5=[dc451c1e23cc7fbed62dbf1af225da00]
class elki.math.spacefillingcurves.ZCurveTransformer--><a href="ZCurveTransformer.html" target="_top" title="ZCurveTransformer.html" xlink:actuate="onRequest" xlink:href="ZCurveTransformer.html" xlink:show="new" xlink:title="ZCurveTransformer.html" xlink:type="simple"><g id="elem_elki.math.spacefillingcurves.ZCurveTransformer"><rect codeLine="6" fill="#F1F1F1" height="135.4219" id="elki.math.spacefillingcurves.ZCurveTransformer" rx="2.5" ry="2.5" style="stroke:#181818;stroke-width:0.5;" width="472" x="7" y="7"/><ellipse cx="171.75" cy="25.9688" fill="#ADD1B2" rx="11" ry="11" style="stroke:#181818;stroke-width:1.0;"/><path d="M174.7188,31.6094 Q174.1406,31.9063 173.5,32.0469 Q172.8594,32.2031 172.1563,32.2031 Q169.6563,32.2031 168.3281,30.5625 Q167.0156,28.9063 167.0156,25.7813 Q167.0156,22.6563 168.3281,21 Q169.6563,19.3438 172.1563,19.3438 Q172.8594,19.3438 173.5,19.5 Q174.1563,19.6563 174.7188,19.9531 L174.7188,22.6719 Q174.0938,22.0938 173.5,21.8281 Q172.9063,21.5469 172.2813,21.5469 Q170.9375,21.5469 170.25,22.625 Q169.5625,23.6875 169.5625,25.7813 Q169.5625,27.875 170.25,28.9531 Q170.9375,30.0156 172.2813,30.0156 Q172.9063,30.0156 173.5,29.75 Q174.0938,29.4688 174.7188,28.8906 L174.7188,31.6094 Z " fill="#000000"/><text fill="#000000" font-family="sans-serif" font-size="14" lengthAdjust="spacing" textLength="134" x="192.25" y="24.9951">ZCurveTransformer</text><text fill="#000000" font-family="sans-serif" font-size="10" lengthAdjust="spacing" textLength="131" x="193.75" y="37.5791">elki.math.spacefillingcurves</text><line style="stroke:#181818;stroke-width:0.5;" x1="8" x2="478" y1="44.9375" y2="44.9375"/><rect fill="none" height="6" style="stroke:#C82930;stroke-width:1.0;" width="6" x="15" y="55.5859"/><text fill="#000000" font-family="sans-serif" font-size="14" lengthAdjust="spacing" textLength="141" x="27" y="61.9326">maxValues: double[]</text><rect fill="none" height="6" style="stroke:#C82930;stroke-width:1.0;" width="6" x="15" y="71.8828"/><text fill="#000000" font-family="sans-serif" font-size="14" lengthAdjust="spacing" textLength="138" x="27" y="78.2295">minValues: double[]</text><rect fill="none" height="6" style="stroke:#C82930;stroke-width:1.0;" width="6" x="15" y="88.1797"/><text fill="#000000" font-family="sans-serif" font-size="14" lengthAdjust="spacing" textLength="124" x="27" y="94.5264">dimensionality: int</text><line style="stroke:#181818;stroke-width:0.5;" x1="8" x2="478" y1="101.8281" y2="101.8281"/><ellipse cx="18" cy="115.4766" fill="#84BE84" rx="3" ry="3" style="stroke:#038048;stroke-width:1.0;"/><text fill="#000000" font-family="sans-serif" font-size="14" lengthAdjust="spacing" textLength="446" x="27" y="118.8232">ZCurveTransformer(Relation&lt;? extends NumberVector&gt;, DBIDs)</text><ellipse cx="18" cy="131.7734" fill="#84BE84" rx="3" ry="3" style="stroke:#038048;stroke-width:1.0;"/><text fill="#000000" font-family="sans-serif" font-size="14" lengthAdjust="spacing" textLength="240" x="27" y="135.1201">asByteArray(NumberVector): byte[]</text></g></a><rect fill="none" height="11.6406" style="stroke:none;stroke-width:1.0;" width="186" x="149.5" y="149.4219"/><text fill="#888888" font-family="sans-serif" font-size="10" lengthAdjust="spacing" textLength="186" x="149.5" y="158.7041">UMLDoclet 2.0.19, PlantUML 1.2022.8</text><!--MD5=[7d841fcae6389c2c34b77e76e998a145]
@startuml
    remove .*\.(Instance|Par|Parameterizer|Factory)$
    set namespaceSeparator none
    hide empty fields
    hide empty methods

    class "<size:14>ZCurveTransformer\n<size:10>elki.math.spacefillingcurves" as elki.math.spacefillingcurves.ZCurveTransformer [[ZCurveTransformer.html]] {
        -maxValues: double[]
        -minValues: double[]
        -dimensionality: int
        +ZCurveTransformer(Relation<? extends NumberVector>, DBIDs)
        +asByteArray(NumberVector): byte[]
    }

    center footer UMLDoclet 2.0.19, PlantUML 1.2022.8
@enduml

PlantUML version 1.2022.8(Sun Sep 25 11:00:33 CEST 2022)
(APACHE source distribution)
Java Runtime: OpenJDK Runtime Environment
JVM: OpenJDK 64-Bit Server VM
Default Encoding: UTF-8
Language: de
Country: DE
--></g></svg>