<?xml version="1.0" encoding="UTF-8" standalone="no"?><svg xmlns="http://www.w3.org/2000/svg" xmlns:xlink="http://www.w3.org/1999/xlink" contentStyleType="text/css" height="362px" preserveAspectRatio="none" style="width:541px;height:362px;background:#FFFFFF;" version="1.1" viewBox="0 0 541 362" width="541px" zoomAndPan="magnify"><defs/><g><!--MD5=[03ca8f6b2ec350f17f58d8ec41ccda0d]
class elki.visualization.parallel3d.OpenGL3DParallelCoordinates--><a href="OpenGL3DParallelCoordinates.html" target="_top" title="OpenGL3DParallelCoordinates.html" xlink:actuate="onRequest" xlink:href="OpenGL3DParallelCoordinates.html" xlink:show="new" xlink:title="OpenGL3DParallelCoordinates.html" xlink:type="simple"><g id="elem_elki.visualization.parallel3d.OpenGL3DParallelCoordinates"><rect codeLine="6" fill="#F1F1F1" height="135.4219" id="elki.visualization.parallel3d.OpenGL3DParallelCoordinates" rx="2.5" ry="2.5" style="stroke:#181818;stroke-width:0.5;" width="521" x="9" y="105"/><ellipse cx="84.25" cy="123.9688" fill="#ADD1B2" rx="11" ry="11" style="stroke:#181818;stroke-width:1.0;"/><path d="M87.2188,129.6094 Q86.6406,129.9063 86,130.0469 Q85.3594,130.2031 84.6563,130.2031 Q82.1563,130.2031 80.8281,128.5625 Q79.5156,126.9063 79.5156,123.7813 Q79.5156,120.6563 80.8281,119 Q82.1563,117.3438 84.6563,117.3438 Q85.3594,117.3438 86,117.5 Q86.6563,117.6563 87.2188,117.9531 L87.2188,120.6719 Q86.5938,120.0938 86,119.8281 Q85.4063,119.5469 84.7813,119.5469 Q83.4375,119.5469 82.75,120.625 Q82.0625,121.6875 82.0625,123.7813 Q82.0625,125.875 82.75,126.9531 Q83.4375,128.0156 84.7813,128.0156 Q85.4063,128.0156 86,127.75 Q86.5938,127.4688 87.2188,126.8906 L87.2188,129.6094 Z " fill="#000000"/><text fill="#000000" font-family="sans-serif" font-size="14" lengthAdjust="spacing" textLength="208" x="104.75" y="122.9951">OpenGL3DParallelCoordinates</text><text fill="#000000" font-family="sans-serif" font-size="10" lengthAdjust="spacing" textLength="125" x="146.25" y="135.5791">elki.visualization.parallel3d</text><rect fill="#FFFFFF" height="15.9688" style="stroke:#181818;stroke-width:1.0;stroke-dasharray:2.0,2.0;" width="152" x="381" y="102"/><text fill="#000000" font-family="sans-serif" font-size="12" font-style="italic" lengthAdjust="spacing" textLength="150" x="382" y="114.1387">O extends NumberVector</text><line style="stroke:#181818;stroke-width:0.5;" x1="10" x2="529" y1="142.9375" y2="142.9375"/><rect fill="none" height="6" style="stroke:#C82930;stroke-width:1.0;" width="6" x="17" y="153.5859"/><text fill="#000000" font-family="sans-serif" font-size="14" lengthAdjust="spacing" text-decoration="underline" textLength="93" x="29" y="159.9326">LOG: Logging</text><polygon fill="none" points="20,168.8828,16,174.8828,24,174.8828" style="stroke:#1963A0;stroke-width:1.0;"/><text fill="#000000" font-family="sans-serif" font-size="14" lengthAdjust="spacing" textLength="321" x="29" y="176.2295">settings: Settings&lt;O extends NumberVector&gt;</text><line style="stroke:#181818;stroke-width:0.5;" x1="10" x2="529" y1="183.5313" y2="183.5313"/><ellipse cx="20" cy="197.1797" fill="#84BE84" rx="3" ry="3" style="stroke:#038048;stroke-width:1.0;"/><text fill="#000000" font-family="sans-serif" font-size="14" lengthAdjust="spacing" textLength="495" x="29" y="200.5264">OpenGL3DParallelCoordinates(Layouter3DPC&lt;? super NumberVector&gt;)</text><ellipse cx="20" cy="213.4766" fill="#84BE84" rx="3" ry="3" style="stroke:#038048;stroke-width:1.0;"/><text fill="#000000" font-family="sans-serif" font-size="14" lengthAdjust="spacing" textLength="222" x="29" y="216.8232">processNewResult(Object): void</text><ellipse cx="20" cy="229.7734" fill="#84BE84" rx="3" ry="3" style="stroke:#038048;stroke-width:1.0;"/><text fill="#000000" font-family="sans-serif" font-size="14" lengthAdjust="spacing" textLength="328" x="29" y="233.1201">getStylePolicy(Object, StyleLibrary): StylingPolicy</text></g></a><!--MD5=[017fcb68bb9ce3f98882c4c8405eda7a]
class elki.result.ResultHandler--><a href="../../result/ResultHandler.html" target="_top" title="../../result/ResultHandler.html" xlink:actuate="onRequest" xlink:href="../../result/ResultHandler.html" xlink:show="new" xlink:title="../../result/ResultHandler.html" xlink:type="simple"><g id="elem_elki.result.ResultHandler"><rect codeLine="14" fill="#F1F1F1" height="37.9375" id="elki.result.ResultHandler" rx="2.5" ry="2.5" style="stroke:#181818;stroke-width:0.5;" width="132" x="203.5" y="7"/><ellipse cx="218.5" cy="25.9688" fill="#B4A7E5" rx="11" ry="11" style="stroke:#181818;stroke-width:1.0;"/><path d="M214.4219,21.7344 L214.4219,19.5781 L221.8125,19.5781 L221.8125,21.7344 L219.3438,21.7344 L219.3438,29.8125 L221.8125,29.8125 L221.8125,31.9688 L214.4219,31.9688 L214.4219,29.8125 L216.8906,29.8125 L216.8906,21.7344 L214.4219,21.7344 Z " fill="#000000"/><text fill="#000000" font-family="sans-serif" font-size="14" font-style="italic" lengthAdjust="spacing" textLength="100" x="232.5" y="24.9951">ResultHandler</text><text fill="#000000" font-family="sans-serif" font-size="10" font-style="italic" lengthAdjust="spacing" textLength="49" x="258" y="37.5791">elki.result</text></g></a><!--MD5=[32f5d4833c55d682ebd48302753fb9c3]
class elki.visualization.parallel3d.OpenGL3DParallelCoordinates.Settings--><a href="OpenGL3DParallelCoordinates.Settings.html" target="_top" title="OpenGL3DParallelCoordinates.Settings.html" xlink:actuate="onRequest" xlink:href="OpenGL3DParallelCoordinates.Settings.html" xlink:show="new" xlink:title="OpenGL3DParallelCoordinates.Settings.html" xlink:type="simple"><g id="elem_elki.visualization.parallel3d.OpenGL3DParallelCoordinates.Settings"><rect codeLine="15" fill="#F1F1F1" height="37.9375" id="elki.visualization.parallel3d.OpenGL3DParallelCoordinates.Settings" rx="2.5" ry="2.5" style="stroke:#181818;stroke-width:0.5;" width="313" x="113" y="300"/><ellipse cx="128" cy="318.9688" fill="#ADD1B2" rx="11" ry="11" style="stroke:#181818;stroke-width:1.0;"/><path d="M130.9688,324.6094 Q130.3906,324.9063 129.75,325.0469 Q129.1094,325.2031 128.4063,325.2031 Q125.9063,325.2031 124.5781,323.5625 Q123.2656,321.9063 123.2656,318.7813 Q123.2656,315.6563 124.5781,314 Q125.9063,312.3438 128.4063,312.3438 Q129.1094,312.3438 129.75,312.5 Q130.4063,312.6563 130.9688,312.9531 L130.9688,315.6719 Q130.3438,315.0938 129.75,314.8281 Q129.1563,314.5469 128.5313,314.5469 Q127.1875,314.5469 126.5,315.625 Q125.8125,316.6875 125.8125,318.7813 Q125.8125,320.875 126.5,321.9531 Q127.1875,323.0156 128.5313,323.0156 Q129.1563,323.0156 129.75,322.75 Q130.3438,322.4688 130.9688,321.8906 L130.9688,324.6094 Z " fill="#000000"/><text fill="#000000" font-family="sans-serif" font-size="14" lengthAdjust="spacing" textLength="269" x="142" y="317.9951">OpenGL3DParallelCoordinates.Settings</text><text fill="#000000" font-family="sans-serif" font-size="10" lengthAdjust="spacing" textLength="125" x="214" y="330.5791">elki.visualization.parallel3d</text><rect fill="#FFFFFF" height="15.9688" style="stroke:#181818;stroke-width:1.0;stroke-dasharray:2.0,2.0;" width="10" x="419" y="297"/><text fill="#000000" font-family="sans-serif" font-size="12" font-style="italic" lengthAdjust="spacing" textLength="8" x="420" y="309.1387">O</text></g></a><!--MD5=[d0e62d30ebc2aedc3bae8ac77fd8f24a]
reverse link elki.result.ResultHandler to elki.visualization.parallel3d.OpenGL3DParallelCoordinates--><g id="link_elki.result.ResultHandler_elki.visualization.parallel3d.OpenGL3DParallelCoordinates"><path codeLine="19" d="M269.5,65.22 C269.5,77.35 269.5,91.15 269.5,104.69 " fill="none" id="elki.result.ResultHandler-backto-elki.visualization.parallel3d.OpenGL3DParallelCoordinates" style="stroke:#181818;stroke-width:1.0;stroke-dasharray:7.0,7.0;"/><polygon fill="none" points="262.5,65.01,269.5,45.01,276.5,65.01,262.5,65.01" style="stroke:#181818;stroke-width:1.0;"/></g><!--MD5=[a71873eb714520b937ca3ba6f05a754a]
reverse link elki.visualization.parallel3d.OpenGL3DParallelCoordinates to elki.visualization.parallel3d.OpenGL3DParallelCoordinates.Settings--><g id="link_elki.visualization.parallel3d.OpenGL3DParallelCoordinates_elki.visualization.parallel3d.OpenGL3DParallelCoordinates.Settings"><path codeLine="20" d="M269.5,255.39 C269.5,272.15 269.5,288.2 269.5,299.85 " fill="none" id="elki.visualization.parallel3d.OpenGL3DParallelCoordinates-backto-elki.visualization.parallel3d.OpenGL3DParallelCoordinates.Settings" style="stroke:#181818;stroke-width:1.0;"/><ellipse cx="269.5" cy="248.25" fill="#FFFFFF" rx="8" ry="8" style="stroke:#181818;stroke-width:1.0;"/><line style="stroke:#181818;stroke-width:1.0;" x1="269.5" x2="269.5" y1="256.25" y2="240.25"/><line style="stroke:#181818;stroke-width:1.0;" x1="261.5" x2="277.5" y1="248.25" y2="248.25"/></g><rect fill="none" height="11.6406" style="stroke:none;stroke-width:1.0;" width="186" x="170.5" y="342.9375"/><text fill="#888888" font-family="sans-serif" font-size="10" lengthAdjust="spacing" textLength="186" x="170.5" y="352.2197">UMLDoclet 2.0.19, PlantUML 1.2022.8</text><!--MD5=[3032a2e7844672fceb4ac504a1b92dcf]
@startuml
    remove .*\.(Instance|Par|Parameterizer|Factory)$
    set namespaceSeparator none
    hide empty fields
    hide empty methods

    class "<size:14>OpenGL3DParallelCoordinates\n<size:10>elki.visualization.parallel3d" as elki.visualization.parallel3d.OpenGL3DParallelCoordinates<O extends NumberVector> [[OpenGL3DParallelCoordinates.html]] {
        {static} -LOG: Logging
        ~settings: Settings<O extends NumberVector>
        +OpenGL3DParallelCoordinates(Layouter3DPC<? super NumberVector>)
        +processNewResult(Object): void
        +getStylePolicy(Object, StyleLibrary): StylingPolicy
    }

    interface "<size:14>ResultHandler\n<size:10>elki.result" as elki.result.ResultHandler [[../../result/ResultHandler.html]]
    class "<size:14>OpenGL3DParallelCoordinates.Settings\n<size:10>elki.visualization.parallel3d" as elki.visualization.parallel3d.OpenGL3DParallelCoordinates.Settings<O> [[OpenGL3DParallelCoordinates.Settings.html]]
    class "<size:14>OpenGL3DParallelCoordinates.Instance\n<size:10>elki.visualization.parallel3d" as elki.visualization.parallel3d.OpenGL3DParallelCoordinates.Instance<O extends NumberVector> [[OpenGL3DParallelCoordinates.Instance.html]]
    class "<size:14>OpenGL3DParallelCoordinates.Par\n<size:10>elki.visualization.parallel3d" as elki.visualization.parallel3d.OpenGL3DParallelCoordinates.Par<O extends NumberVector>

    elki.result.ResultHandler <|.. elki.visualization.parallel3d.OpenGL3DParallelCoordinates
    elki.visualization.parallel3d.OpenGL3DParallelCoordinates +- - elki.visualization.parallel3d.OpenGL3DParallelCoordinates.Settings
    elki.visualization.parallel3d.OpenGL3DParallelCoordinates +- - elki.visualization.parallel3d.OpenGL3DParallelCoordinates.Instance
    elki.visualization.parallel3d.OpenGL3DParallelCoordinates +- - elki.visualization.parallel3d.OpenGL3DParallelCoordinates.Par

    center footer UMLDoclet 2.0.19, PlantUML 1.2022.8
@enduml

PlantUML version 1.2022.8(Sun Sep 25 11:00:33 CEST 2022)
(APACHE source distribution)
Java Runtime: OpenJDK Runtime Environment
JVM: OpenJDK 64-Bit Server VM
Default Encoding: UTF-8
Language: de
Country: DE
--></g></svg>