<?xml version="1.0" encoding="UTF-8" standalone="no"?><svg xmlns="http://www.w3.org/2000/svg" xmlns:xlink="http://www.w3.org/1999/xlink" contentStyleType="text/css" height="277px" preserveAspectRatio="none" style="width:412px;height:277px;background:#FFFFFF;" version="1.1" viewBox="0 0 412 277" width="412px" zoomAndPan="magnify"><defs/><g><!--MD5=[32f5d4833c55d682ebd48302753fb9c3]
class elki.visualization.parallel3d.OpenGL3DParallelCoordinates.Settings--><a href="OpenGL3DParallelCoordinates.Settings.html" target="_top" title="OpenGL3DParallelCoordinates.Settings.html" xlink:actuate="onRequest" xlink:href="OpenGL3DParallelCoordinates.Settings.html" xlink:show="new" xlink:title="OpenGL3DParallelCoordinates.Settings.html" xlink:type="simple"><g id="elem_elki.visualization.parallel3d.OpenGL3DParallelCoordinates.Settings"><rect codeLine="6" fill="#F1F1F1" height="143.7188" id="elki.visualization.parallel3d.OpenGL3DParallelCoordinates.Settings" rx="2.5" ry="2.5" style="stroke:#181818;stroke-width:0.5;" width="313" x="47.5" y="108"/><ellipse cx="62.5" cy="126.9688" fill="#ADD1B2" rx="11" ry="11" style="stroke:#181818;stroke-width:1.0;"/><path d="M65.4688,132.6094 Q64.8906,132.9063 64.25,133.0469 Q63.6094,133.2031 62.9063,133.2031 Q60.4063,133.2031 59.0781,131.5625 Q57.7656,129.9063 57.7656,126.7813 Q57.7656,123.6563 59.0781,122 Q60.4063,120.3438 62.9063,120.3438 Q63.6094,120.3438 64.25,120.5 Q64.9063,120.6563 65.4688,120.9531 L65.4688,123.6719 Q64.8438,123.0938 64.25,122.8281 Q63.6563,122.5469 63.0313,122.5469 Q61.6875,122.5469 61,123.625 Q60.3125,124.6875 60.3125,126.7813 Q60.3125,128.875 61,129.9531 Q61.6875,131.0156 63.0313,131.0156 Q63.6563,131.0156 64.25,130.75 Q64.8438,130.4688 65.4688,129.8906 L65.4688,132.6094 Z " fill="#000000"/><text fill="#000000" font-family="sans-serif" font-size="14" lengthAdjust="spacing" textLength="269" x="76.5" y="125.9951">OpenGL3DParallelCoordinates.Settings</text><text fill="#000000" font-family="sans-serif" font-size="10" lengthAdjust="spacing" textLength="125" x="148.5" y="138.5791">elki.visualization.parallel3d</text><rect fill="#FFFFFF" height="15.9688" style="stroke:#181818;stroke-width:1.0;stroke-dasharray:2.0,2.0;" width="10" x="353.5" y="105"/><text fill="#000000" font-family="sans-serif" font-size="12" font-style="italic" lengthAdjust="spacing" textLength="8" x="354.5" y="117.1387">O</text><line style="stroke:#181818;stroke-width:0.5;" x1="48.5" x2="359.5" y1="145.9375" y2="145.9375"/><ellipse cx="58.5" cy="159.5859" fill="none" rx="3" ry="3" style="stroke:#038048;stroke-width:1.0;"/><text fill="#000000" font-family="sans-serif" font-size="14" lengthAdjust="spacing" textLength="124" x="67.5" y="162.9326">sim: Dependence</text><ellipse cx="58.5" cy="175.8828" fill="none" rx="3" ry="3" style="stroke:#038048;stroke-width:1.0;"/><text fill="#000000" font-family="sans-serif" font-size="14" lengthAdjust="spacing" textLength="238" x="67.5" y="179.2295">layout: Layouter3DPC&lt;? super O&gt;</text><ellipse cx="58.5" cy="192.1797" fill="none" rx="3" ry="3" style="stroke:#038048;stroke-width:1.0;"/><text fill="#000000" font-family="sans-serif" font-size="14" lengthAdjust="spacing" textLength="99" x="67.5" y="195.5264">linewidth: float</text><ellipse cx="58.5" cy="208.4766" fill="none" rx="3" ry="3" style="stroke:#038048;stroke-width:1.0;"/><text fill="#000000" font-family="sans-serif" font-size="14" lengthAdjust="spacing" textLength="84" x="67.5" y="211.8232">texwidth: int</text><ellipse cx="58.5" cy="224.7734" fill="none" rx="3" ry="3" style="stroke:#038048;stroke-width:1.0;"/><text fill="#000000" font-family="sans-serif" font-size="14" lengthAdjust="spacing" textLength="91" x="67.5" y="228.1201">texheight: int</text><ellipse cx="58.5" cy="241.0703" fill="none" rx="3" ry="3" style="stroke:#038048;stroke-width:1.0;"/><text fill="#000000" font-family="sans-serif" font-size="14" lengthAdjust="spacing" textLength="89" x="67.5" y="244.417">mipmaps: int</text></g></a><!--MD5=[03ca8f6b2ec350f17f58d8ec41ccda0d]
class elki.visualization.parallel3d.OpenGL3DParallelCoordinates--><a href="OpenGL3DParallelCoordinates.html" target="_top" title="OpenGL3DParallelCoordinates.html" xlink:actuate="onRequest" xlink:href="OpenGL3DParallelCoordinates.html" xlink:show="new" xlink:title="OpenGL3DParallelCoordinates.html" xlink:type="simple"><g id="elem_elki.visualization.parallel3d.OpenGL3DParallelCoordinates"><rect codeLine="15" fill="#F1F1F1" height="37.9375" id="elki.visualization.parallel3d.OpenGL3DParallelCoordinates" rx="2.5" ry="2.5" style="stroke:#181818;stroke-width:0.5;" width="394" x="7" y="10"/><ellipse cx="22" cy="28.9688" fill="#ADD1B2" rx="11" ry="11" style="stroke:#181818;stroke-width:1.0;"/><path d="M24.9688,34.6094 Q24.3906,34.9063 23.75,35.0469 Q23.1094,35.2031 22.4063,35.2031 Q19.9063,35.2031 18.5781,33.5625 Q17.2656,31.9063 17.2656,28.7813 Q17.2656,25.6563 18.5781,24 Q19.9063,22.3438 22.4063,22.3438 Q23.1094,22.3438 23.75,22.5 Q24.4063,22.6563 24.9688,22.9531 L24.9688,25.6719 Q24.3438,25.0938 23.75,24.8281 Q23.1563,24.5469 22.5313,24.5469 Q21.1875,24.5469 20.5,25.625 Q19.8125,26.6875 19.8125,28.7813 Q19.8125,30.875 20.5,31.9531 Q21.1875,33.0156 22.5313,33.0156 Q23.1563,33.0156 23.75,32.75 Q24.3438,32.4688 24.9688,31.8906 L24.9688,34.6094 Z " fill="#000000"/><text fill="#000000" font-family="sans-serif" font-size="14" lengthAdjust="spacing" textLength="208" x="36" y="27.9951">OpenGL3DParallelCoordinates</text><text fill="#000000" font-family="sans-serif" font-size="10" lengthAdjust="spacing" textLength="125" x="77.5" y="40.5791">elki.visualization.parallel3d</text><rect fill="#FFFFFF" height="15.9688" style="stroke:#181818;stroke-width:1.0;stroke-dasharray:2.0,2.0;" width="152" x="252" y="7"/><text fill="#000000" font-family="sans-serif" font-size="12" font-style="italic" lengthAdjust="spacing" textLength="150" x="253" y="19.1387">O extends NumberVector</text></g></a><!--MD5=[a71873eb714520b937ca3ba6f05a754a]
reverse link elki.visualization.parallel3d.OpenGL3DParallelCoordinates to elki.visualization.parallel3d.OpenGL3DParallelCoordinates.Settings--><g id="link_elki.visualization.parallel3d.OpenGL3DParallelCoordinates_elki.visualization.parallel3d.OpenGL3DParallelCoordinates.Settings"><path codeLine="17" d="M204,63.44 C204,76.62 204,92.31 204,107.8 " fill="none" id="elki.visualization.parallel3d.OpenGL3DParallelCoordinates-backto-elki.visualization.parallel3d.OpenGL3DParallelCoordinates.Settings" style="stroke:#181818;stroke-width:1.0;"/><ellipse cx="204" cy="56.27" fill="#FFFFFF" rx="8" ry="8" style="stroke:#181818;stroke-width:1.0;"/><line style="stroke:#181818;stroke-width:1.0;" x1="204" x2="204" y1="64.27" y2="48.27"/><line style="stroke:#181818;stroke-width:1.0;" x1="196" x2="212" y1="56.27" y2="56.27"/></g><rect fill="none" height="11.6406" style="stroke:none;stroke-width:1.0;" width="186" x="106" y="257.7188"/><text fill="#888888" font-family="sans-serif" font-size="10" lengthAdjust="spacing" textLength="186" x="106" y="267.001">UMLDoclet 2.0.19, PlantUML 1.2022.8</text><!--MD5=[4b14f9703f5ec7f6693b177c77353168]
@startuml
    remove .*\.(Instance|Par|Parameterizer|Factory)$
    set namespaceSeparator none
    hide empty fields
    hide empty methods

    class "<size:14>OpenGL3DParallelCoordinates.Settings\n<size:10>elki.visualization.parallel3d" as elki.visualization.parallel3d.OpenGL3DParallelCoordinates.Settings<O> [[OpenGL3DParallelCoordinates.Settings.html]] {
        +sim: Dependence
        +layout: Layouter3DPC<? super O>
        +linewidth: float
        +texwidth: int
        +texheight: int
        +mipmaps: int
    }

    class "<size:14>OpenGL3DParallelCoordinates\n<size:10>elki.visualization.parallel3d" as elki.visualization.parallel3d.OpenGL3DParallelCoordinates<O extends NumberVector> [[OpenGL3DParallelCoordinates.html]]

    elki.visualization.parallel3d.OpenGL3DParallelCoordinates +- - elki.visualization.parallel3d.OpenGL3DParallelCoordinates.Settings

    center footer UMLDoclet 2.0.19, PlantUML 1.2022.8
@enduml

PlantUML version 1.2022.8(Sun Sep 25 11:00:33 CEST 2022)
(APACHE source distribution)
Java Runtime: OpenJDK Runtime Environment
JVM: OpenJDK 64-Bit Server VM
Default Encoding: UTF-8
Language: de
Country: DE
--></g></svg>