<?xml version="1.0" encoding="UTF-8" standalone="no"?><svg xmlns="http://www.w3.org/2000/svg" xmlns:xlink="http://www.w3.org/1999/xlink" contentStyleType="text/css" height="234px" preserveAspectRatio="none" style="width:314px;height:234px;background:#FFFFFF;" version="1.1" viewBox="0 0 314 234" width="314px" zoomAndPan="magnify"><defs/><g><!--MD5=[f5040bfcb91560f7d42063621a67a662]
class elki.utilities.random.RandomFactory--><a href="RandomFactory.html" target="_top" title="RandomFactory.html" xlink:actuate="onRequest" xlink:href="RandomFactory.html" xlink:show="new" xlink:title="RandomFactory.html" xlink:type="simple"><g id="elem_elki.utilities.random.RandomFactory"><rect codeLine="6" fill="#F1F1F1" height="200.6094" id="elki.utilities.random.RandomFactory" rx="2.5" ry="2.5" style="stroke:#181818;stroke-width:0.5;" width="293" x="7" y="7"/><ellipse cx="95.25" cy="25.9688" fill="#ADD1B2" rx="11" ry="11" style="stroke:#181818;stroke-width:1.0;"/><path d="M98.2188,31.6094 Q97.6406,31.9063 97,32.0469 Q96.3594,32.2031 95.6563,32.2031 Q93.1563,32.2031 91.8281,30.5625 Q90.5156,28.9063 90.5156,25.7813 Q90.5156,22.6563 91.8281,21 Q93.1563,19.3438 95.6563,19.3438 Q96.3594,19.3438 97,19.5 Q97.6563,19.6563 98.2188,19.9531 L98.2188,22.6719 Q97.5938,22.0938 97,21.8281 Q96.4063,21.5469 95.7813,21.5469 Q94.4375,21.5469 93.75,22.625 Q93.0625,23.6875 93.0625,25.7813 Q93.0625,27.875 93.75,28.9531 Q94.4375,30.0156 95.7813,30.0156 Q96.4063,30.0156 97,29.75 Q97.5938,29.4688 98.2188,28.8906 L98.2188,31.6094 Z " fill="#000000"/><text fill="#000000" font-family="sans-serif" font-size="14" lengthAdjust="spacing" textLength="108" x="115.75" y="24.9951">RandomFactory</text><text fill="#000000" font-family="sans-serif" font-size="10" lengthAdjust="spacing" textLength="92" x="123.75" y="37.5791">elki.utilities.random</text><line style="stroke:#181818;stroke-width:0.5;" x1="8" x2="299" y1="44.9375" y2="44.9375"/><ellipse cx="18" cy="58.5859" fill="none" rx="3" ry="3" style="stroke:#038048;stroke-width:1.0;"/><text fill="#000000" font-family="sans-serif" font-size="14" lengthAdjust="spacing" text-decoration="underline" textLength="180" x="27" y="61.9326">DEFAULT: RandomFactory</text><polygon fill="none" points="18,69.8828,22,73.8828,18,77.8828,14,73.8828" style="stroke:#B38D22;stroke-width:1.0;"/><text fill="#000000" font-family="sans-serif" font-size="14" lengthAdjust="spacing" textLength="74" x="27" y="78.2295">seed: long</text><line style="stroke:#181818;stroke-width:0.5;" x1="8" x2="299" y1="85.5313" y2="85.5313"/><ellipse cx="18" cy="99.1797" fill="#84BE84" rx="3" ry="3" style="stroke:#038048;stroke-width:1.0;"/><text fill="#000000" font-family="sans-serif" font-size="14" lengthAdjust="spacing" textLength="148" x="27" y="102.5264">RandomFactory(long)</text><rect fill="#F24D5C" height="6" style="stroke:#C82930;stroke-width:1.0;" width="6" x="15" y="112.4766"/><text fill="#000000" font-family="sans-serif" font-size="14" lengthAdjust="spacing" text-decoration="underline" textLength="151" x="27" y="118.8232">getGlobalSeed(): long</text><ellipse cx="18" cy="131.7734" fill="#84BE84" rx="3" ry="3" style="stroke:#038048;stroke-width:1.0;"/><text fill="#000000" font-family="sans-serif" font-size="14" lengthAdjust="spacing" text-decoration="underline" textLength="184" x="27" y="135.1201">get(Long): RandomFactory</text><ellipse cx="18" cy="148.0703" fill="#84BE84" rx="3" ry="3" style="stroke:#038048;stroke-width:1.0;"/><text fill="#000000" font-family="sans-serif" font-size="14" lengthAdjust="spacing" textLength="158" x="27" y="151.417">getRandom(): Random</text><ellipse cx="18" cy="164.3672" fill="#84BE84" rx="3" ry="3" style="stroke:#038048;stroke-width:1.0;"/><text fill="#000000" font-family="sans-serif" font-size="14" lengthAdjust="spacing" textLength="267" x="27" y="167.7139">getSingleThreadedRandom(): Random</text><ellipse cx="18" cy="180.6641" fill="#84BE84" rx="3" ry="3" style="stroke:#038048;stroke-width:1.0;"/><text fill="#000000" font-family="sans-serif" font-size="14" lengthAdjust="spacing" text-decoration="underline" textLength="147" x="27" y="184.0107">murmurMix32(int): int</text><ellipse cx="18" cy="196.9609" fill="#84BE84" rx="3" ry="3" style="stroke:#038048;stroke-width:1.0;"/><text fill="#000000" font-family="sans-serif" font-size="14" lengthAdjust="spacing" text-decoration="underline" textLength="173" x="27" y="200.3076">murmurMix64(long): long</text></g></a><rect fill="none" height="11.6406" style="stroke:none;stroke-width:1.0;" width="186" x="60" y="214.6094"/><text fill="#888888" font-family="sans-serif" font-size="10" lengthAdjust="spacing" textLength="186" x="60" y="223.8916">UMLDoclet 2.0.19, PlantUML 1.2022.8</text><!--MD5=[0950e567eed730831cb5525bdd68f307]
@startuml
    remove .*\.(Instance|Par|Parameterizer|Factory)$
    set namespaceSeparator none
    hide empty fields
    hide empty methods

    class "<size:14>RandomFactory\n<size:10>elki.utilities.random" as elki.utilities.random.RandomFactory [[RandomFactory.html]] {
        {static} +DEFAULT: RandomFactory
        #seed: long
        +RandomFactory(long)
        {static} -getGlobalSeed(): long
        {static} +get(Long): RandomFactory
        +getRandom(): Random
        +getSingleThreadedRandom(): Random
        {static} +murmurMix32(int): int
        {static} +murmurMix64(long): long
    }

    center footer UMLDoclet 2.0.19, PlantUML 1.2022.8
@enduml

PlantUML version 1.2022.8(Sun Sep 25 11:00:33 CEST 2022)
(APACHE source distribution)
Java Runtime: OpenJDK Runtime Environment
JVM: OpenJDK 64-Bit Server VM
Default Encoding: UTF-8
Language: de
Country: DE
--></g></svg>