<?xml version="1.0" encoding="UTF-8" standalone="no"?><svg xmlns="http://www.w3.org/2000/svg" xmlns:xlink="http://www.w3.org/1999/xlink" contentStyleType="text/css" height="509px" preserveAspectRatio="none" style="width:828px;height:509px;background:#FFFFFF;" version="1.1" viewBox="0 0 828 509" width="828px" zoomAndPan="magnify"><defs/><g><!--MD5=[c89851c313cfc680193e1ad0504b535a]
class elki.outlier.meta.HiCS--><a href="HiCS.html" target="_top" title="HiCS.html" xlink:actuate="onRequest" xlink:href="HiCS.html" xlink:show="new" xlink:title="HiCS.html" xlink:type="simple"><g id="elem_elki.outlier.meta.HiCS"><rect codeLine="6" fill="#F1F1F1" height="282.0938" id="elki.outlier.meta.HiCS" rx="2.5" ry="2.5" style="stroke:#181818;stroke-width:0.5;" width="814" x="7" y="105"/><ellipse cx="371.25" cy="123.9688" fill="#ADD1B2" rx="11" ry="11" style="stroke:#181818;stroke-width:1.0;"/><path d="M374.2188,129.6094 Q373.6406,129.9063 373,130.0469 Q372.3594,130.2031 371.6563,130.2031 Q369.1563,130.2031 367.8281,128.5625 Q366.5156,126.9063 366.5156,123.7813 Q366.5156,120.6563 367.8281,119 Q369.1563,117.3438 371.6563,117.3438 Q372.3594,117.3438 373,117.5 Q373.6563,117.6563 374.2188,117.9531 L374.2188,120.6719 Q373.5938,120.0938 373,119.8281 Q372.4063,119.5469 371.7813,119.5469 Q370.4375,119.5469 369.75,120.625 Q369.0625,121.6875 369.0625,123.7813 Q369.0625,125.875 369.75,126.9531 Q370.4375,128.0156 371.7813,128.0156 Q372.4063,128.0156 373,127.75 Q373.5938,127.4688 374.2188,126.8906 L374.2188,129.6094 Z " fill="#000000"/><text fill="#000000" font-family="sans-serif" font-size="14" lengthAdjust="spacing" textLength="32" x="414.25" y="122.9951">HiCS</text><text fill="#000000" font-family="sans-serif" font-size="10" lengthAdjust="spacing" textLength="77" x="391.75" y="135.5791">elki.outlier.meta</text><line style="stroke:#181818;stroke-width:0.5;" x1="8" x2="820" y1="142.9375" y2="142.9375"/><rect fill="none" height="6" style="stroke:#C82930;stroke-width:1.0;" width="6" x="15" y="153.5859"/><text fill="#000000" font-family="sans-serif" font-size="14" lengthAdjust="spacing" text-decoration="underline" textLength="93" x="27" y="159.9326">LOG: Logging</text><rect fill="none" height="6" style="stroke:#C82930;stroke-width:1.0;" width="6" x="15" y="169.8828"/><text fill="#000000" font-family="sans-serif" font-size="14" lengthAdjust="spacing" text-decoration="underline" textLength="124" x="27" y="176.2295">MAX_RETRIES: int</text><rect fill="none" height="6" style="stroke:#C82930;stroke-width:1.0;" width="6" x="15" y="186.1797"/><text fill="#000000" font-family="sans-serif" font-size="14" lengthAdjust="spacing" textLength="39" x="27" y="192.5264">m: int</text><rect fill="none" height="6" style="stroke:#C82930;stroke-width:1.0;" width="6" x="15" y="202.4766"/><text fill="#000000" font-family="sans-serif" font-size="14" lengthAdjust="spacing" textLength="94" x="27" y="208.8232">alpha: double</text><rect fill="none" height="6" style="stroke:#C82930;stroke-width:1.0;" width="6" x="15" y="218.7734"/><text fill="#000000" font-family="sans-serif" font-size="14" lengthAdjust="spacing" textLength="227" x="27" y="225.1201">outlierAlgorithm: OutlierAlgorithm</text><rect fill="none" height="6" style="stroke:#C82930;stroke-width:1.0;" width="6" x="15" y="235.0703"/><text fill="#000000" font-family="sans-serif" font-size="14" lengthAdjust="spacing" textLength="200" x="27" y="241.417">statTest: GoodnessOfFitTest</text><rect fill="none" height="6" style="stroke:#C82930;stroke-width:1.0;" width="6" x="15" y="251.3672"/><text fill="#000000" font-family="sans-serif" font-size="14" lengthAdjust="spacing" textLength="65" x="27" y="257.7139">cutoff: int</text><rect fill="none" height="6" style="stroke:#C82930;stroke-width:1.0;" width="6" x="15" y="267.6641"/><text fill="#000000" font-family="sans-serif" font-size="14" lengthAdjust="spacing" textLength="140" x="27" y="274.0107">rnd: RandomFactory</text><line style="stroke:#181818;stroke-width:0.5;" x1="8" x2="820" y1="281.3125" y2="281.3125"/><ellipse cx="18" cy="294.9609" fill="#84BE84" rx="3" ry="3" style="stroke:#038048;stroke-width:1.0;"/><text fill="#000000" font-family="sans-serif" font-size="14" lengthAdjust="spacing" textLength="516" x="27" y="298.3076">HiCS(int, double, OutlierAlgorithm, GoodnessOfFitTest, int, RandomFactory)</text><ellipse cx="18" cy="311.2578" fill="#84BE84" rx="3" ry="3" style="stroke:#038048;stroke-width:1.0;"/><text fill="#000000" font-family="sans-serif" font-size="14" lengthAdjust="spacing" textLength="306" x="27" y="314.6045">getInputTypeRestriction(): TypeInformation[]</text><ellipse cx="18" cy="327.5547" fill="#84BE84" rx="3" ry="3" style="stroke:#038048;stroke-width:1.0;"/><text fill="#000000" font-family="sans-serif" font-size="14" lengthAdjust="spacing" textLength="382" x="27" y="330.9014">run(Relation&lt;? extends NumberVector&gt;): OutlierResult</text><rect fill="#F24D5C" height="6" style="stroke:#C82930;stroke-width:1.0;" width="6" x="15" y="340.8516"/><text fill="#000000" font-family="sans-serif" font-size="14" lengthAdjust="spacing" textLength="571" x="27" y="347.1982">buildOneDimIndexes(Relation&lt;? extends NumberVector&gt;): ArrayList&lt;ArrayDBIDs&gt;</text><rect fill="#F24D5C" height="6" style="stroke:#C82930;stroke-width:1.0;" width="6" x="15" y="357.1484"/><text fill="#000000" font-family="sans-serif" font-size="14" lengthAdjust="spacing" textLength="788" x="27" y="363.4951">calculateSubspaces(Relation&lt;? extends NumberVector&gt;, ArrayList&lt;ArrayDBIDs&gt;, Random): Set&lt;HiCSSubspace&gt;</text><rect fill="#F24D5C" height="6" style="stroke:#C82930;stroke-width:1.0;" width="6" x="15" y="373.4453"/><text fill="#000000" font-family="sans-serif" font-size="14" lengthAdjust="spacing" textLength="759" x="27" y="379.792">calculateContrast(Relation&lt;? extends NumberVector&gt;, HiCSSubspace, ArrayList&lt;ArrayDBIDs&gt;, Random): void</text></g></a><!--MD5=[81019799438b1b9471ca37184b444d57]
class elki.outlier.OutlierAlgorithm--><a href="../OutlierAlgorithm.html" target="_top" title="../OutlierAlgorithm.html" xlink:actuate="onRequest" xlink:href="../OutlierAlgorithm.html" xlink:show="new" xlink:title="../OutlierAlgorithm.html" xlink:type="simple"><g id="elem_elki.outlier.OutlierAlgorithm"><rect codeLine="23" fill="#F1F1F1" height="37.9375" id="elki.outlier.OutlierAlgorithm" rx="2.5" ry="2.5" style="stroke:#181818;stroke-width:0.5;" width="148" x="340" y="7"/><ellipse cx="355" cy="25.9688" fill="#B4A7E5" rx="11" ry="11" style="stroke:#181818;stroke-width:1.0;"/><path d="M350.9219,21.7344 L350.9219,19.5781 L358.3125,19.5781 L358.3125,21.7344 L355.8438,21.7344 L355.8438,29.8125 L358.3125,29.8125 L358.3125,31.9688 L350.9219,31.9688 L350.9219,29.8125 L353.3906,29.8125 L353.3906,21.7344 L350.9219,21.7344 Z " fill="#000000"/><text fill="#000000" font-family="sans-serif" font-size="14" font-style="italic" lengthAdjust="spacing" textLength="116" x="369" y="24.9951">OutlierAlgorithm</text><text fill="#000000" font-family="sans-serif" font-size="10" font-style="italic" lengthAdjust="spacing" textLength="53" x="400.5" y="37.5791">elki.outlier</text></g></a><!--MD5=[617854443c2e6418e613b3670609466a]
class elki.outlier.meta.HiCS.HiCSSubspace--><a href="HiCS.HiCSSubspace.html" target="_top" title="HiCS.HiCSSubspace.html" xlink:actuate="onRequest" xlink:href="HiCS.HiCSSubspace.html" xlink:show="new" xlink:title="HiCS.HiCSSubspace.html" xlink:type="simple"><g id="elem_elki.outlier.meta.HiCS.HiCSSubspace"><rect codeLine="24" fill="#F1F1F1" height="37.9375" id="elki.outlier.meta.HiCS.HiCSSubspace" rx="2.5" ry="2.5" style="stroke:#181818;stroke-width:0.5;" width="169" x="329.5" y="447"/><ellipse cx="344.5" cy="465.9688" fill="#ADD1B2" rx="11" ry="11" style="stroke:#181818;stroke-width:1.0;"/><path d="M347.4688,471.6094 Q346.8906,471.9063 346.25,472.0469 Q345.6094,472.2031 344.9063,472.2031 Q342.4063,472.2031 341.0781,470.5625 Q339.7656,468.9063 339.7656,465.7813 Q339.7656,462.6563 341.0781,461 Q342.4063,459.3438 344.9063,459.3438 Q345.6094,459.3438 346.25,459.5 Q346.9063,459.6563 347.4688,459.9531 L347.4688,462.6719 Q346.8438,462.0938 346.25,461.8281 Q345.6563,461.5469 345.0313,461.5469 Q343.6875,461.5469 343,462.625 Q342.3125,463.6875 342.3125,465.7813 Q342.3125,467.875 343,468.9531 Q343.6875,470.0156 345.0313,470.0156 Q345.6563,470.0156 346.25,469.75 Q346.8438,469.4688 347.4688,468.8906 L347.4688,471.6094 Z " fill="#000000"/><text fill="#000000" font-family="sans-serif" font-size="14" lengthAdjust="spacing" textLength="137" x="358.5" y="464.9951">HiCS.HiCSSubspace</text><text fill="#000000" font-family="sans-serif" font-size="10" lengthAdjust="spacing" textLength="77" x="388.5" y="477.5791">elki.outlier.meta</text></g></a><!--MD5=[3d88d917b301776439b9647225663ed2]
reverse link elki.outlier.OutlierAlgorithm to elki.outlier.meta.HiCS--><g id="link_elki.outlier.OutlierAlgorithm_elki.outlier.meta.HiCS"><path codeLine="27" d="M414,65.49 C414,77.09 414,90.55 414,104.8 " fill="none" id="elki.outlier.OutlierAlgorithm-backto-elki.outlier.meta.HiCS" style="stroke:#181818;stroke-width:1.0;stroke-dasharray:7.0,7.0;"/><polygon fill="none" points="407,65.21,414,45.21,421,65.21,407,65.21" style="stroke:#181818;stroke-width:1.0;"/></g><!--MD5=[54fbd57e7abb4cd36d7691c1bc09517f]
reverse link elki.outlier.meta.HiCS to elki.outlier.meta.HiCS.HiCSSubspace--><g id="link_elki.outlier.meta.HiCS_elki.outlier.meta.HiCS.HiCSSubspace"><path codeLine="28" d="M414,402.37 C414,419.92 414,435.5 414,446.73 " fill="none" id="elki.outlier.meta.HiCS-backto-elki.outlier.meta.HiCS.HiCSSubspace" style="stroke:#181818;stroke-width:1.0;"/><ellipse cx="414" cy="395.22" fill="#FFFFFF" rx="8" ry="8" style="stroke:#181818;stroke-width:1.0;"/><line style="stroke:#181818;stroke-width:1.0;" x1="414" x2="414" y1="403.22" y2="387.22"/><line style="stroke:#181818;stroke-width:1.0;" x1="406" x2="422" y1="395.22" y2="395.22"/></g><rect fill="none" height="11.6406" style="stroke:none;stroke-width:1.0;" width="186" x="314" y="489.9375"/><text fill="#888888" font-family="sans-serif" font-size="10" lengthAdjust="spacing" textLength="186" x="314" y="499.2197">UMLDoclet 2.0.19, PlantUML 1.2022.8</text><!--MD5=[799e2910450bb4200beb97bfbb0244ea]
@startuml
    remove .*\.(Instance|Par|Parameterizer|Factory)$
    set namespaceSeparator none
    hide empty fields
    hide empty methods

    class "<size:14>HiCS\n<size:10>elki.outlier.meta" as elki.outlier.meta.HiCS [[HiCS.html]] {
        {static} -LOG: Logging
        {static} -MAX_RETRIES: int
        -m: int
        -alpha: double
        -outlierAlgorithm: OutlierAlgorithm
        -statTest: GoodnessOfFitTest
        -cutoff: int
        -rnd: RandomFactory
        +HiCS(int, double, OutlierAlgorithm, GoodnessOfFitTest, int, RandomFactory)
        +getInputTypeRestriction(): TypeInformation[]
        +run(Relation<? extends NumberVector>): OutlierResult
        -buildOneDimIndexes(Relation<? extends NumberVector>): ArrayList<ArrayDBIDs>
        -calculateSubspaces(Relation<? extends NumberVector>, ArrayList<ArrayDBIDs>, Random): Set<HiCSSubspace>
        -calculateContrast(Relation<? extends NumberVector>, HiCSSubspace, ArrayList<ArrayDBIDs>, Random): void
    }

    interface "<size:14>OutlierAlgorithm\n<size:10>elki.outlier" as elki.outlier.OutlierAlgorithm [[../OutlierAlgorithm.html]]
    class "<size:14>HiCS.HiCSSubspace\n<size:10>elki.outlier.meta" as elki.outlier.meta.HiCS.HiCSSubspace [[HiCS.HiCSSubspace.html]]
    class "<size:14>HiCS.Par\n<size:10>elki.outlier.meta" as elki.outlier.meta.HiCS.Par

    elki.outlier.OutlierAlgorithm <|.. elki.outlier.meta.HiCS
    elki.outlier.meta.HiCS +- - elki.outlier.meta.HiCS.HiCSSubspace
    elki.outlier.meta.HiCS +- - elki.outlier.meta.HiCS.Par

    center footer UMLDoclet 2.0.19, PlantUML 1.2022.8
@enduml

PlantUML version 1.2022.8(Sun Sep 25 11:00:33 CEST 2022)
(APACHE source distribution)
Java Runtime: OpenJDK Runtime Environment
JVM: OpenJDK 64-Bit Server VM
Default Encoding: UTF-8
Language: de
Country: DE
--></g></svg>