<?xml version="1.0" encoding="UTF-8" standalone="no"?>
<!DOCTYPE svg PUBLIC "-//W3C//DTD SVG 1.1//EN"
 "http://www.w3.org/Graphics/SVG/1.1/DTD/svg11.dtd">
<!-- Generated by graphviz version 2.40.1 (20161225.0304)
 -->
<!-- Title: G Pages: 1 -->
<svg width="170pt" height="36pt"
 viewBox="0.00 0.00 170.00 36.00" xmlns="http://www.w3.org/2000/svg" xmlns:xlink="http://www.w3.org/1999/xlink">
<g id="graph0" class="graph" transform="scale(1 1) rotate(0) translate(4 32)">
<title>G</title>
<polygon fill="#ffffff" stroke="transparent" points="-4,4 -4,-32 166,-32 166,4 -4,4"/>
<!-- c7832346 -->
<g id="node1" class="node">
<title>c7832346</title>
<g id="a_node1"><a xlink:href="OutlierScaling.html" xlink:title="&lt;TABLE&gt;">
<g id="a_node1_0"><a xlink:href="OutlierScaling.html" xlink:title="de.lmu.ifi.dbs.elki.utilities.scaling.outlier.OutlierScaling" target="_parent">
<polygon fill="none" stroke="#000000" points=".5,0 .5,-28 65.5,-28 65.5,0 .5,0"/>
<text text-anchor="start" x="11.5" y="-17.6" font-family="Roboto" font-size="8.00" fill="#000000"> «interface» </text>
<text text-anchor="start" x="4.5" y="-7.6" font-family="Roboto" font-size="8.00" fill="#000000"> </text>
<text text-anchor="start" x="7.5" y="-7.6" font-family="Roboto" font-size="8.00" fill="#000000">OutlierScaling</text>
<text text-anchor="start" x="58.5" y="-7.6" font-family="Roboto" font-size="8.00" fill="#000000"> </text>
</a>
</g>
</a>
</g>
</g>
<!-- c7832360 -->
<g id="node2" class="node">
<title>c7832360</title>
<g id="a_node2"><a xlink:href="OutlierSqrtScaling.html" xlink:title="&lt;TABLE&gt;">
<g id="a_node2_1"><a xlink:href="OutlierSqrtScaling.html" xlink:title="de.lmu.ifi.dbs.elki.utilities.scaling.outlier.OutlierSqrtScaling" target="_parent">
<polygon fill="#fffacd" stroke="transparent" points="83,-5.5 83,-22.5 162,-22.5 162,-5.5 83,-5.5"/>
<polygon fill="none" stroke="#000000" points="83.5,-5 83.5,-22 162.5,-22 162.5,-5 83.5,-5"/>
<text text-anchor="start" x="87.5" y="-12.6" font-family="Roboto" font-size="8.00" fill="#000000"> </text>
<text text-anchor="start" x="90.5" y="-12.6" font-family="Roboto" font-size="8.00" fill="#000000">OutlierSqrtScaling</text>
<text text-anchor="start" x="155.5" y="-12.6" font-family="Roboto" font-size="8.00" fill="#000000"> </text>
</a>
</g>
</a>
</g>
</g>
<!-- c7832346&#45;&gt;c7832360 -->
<g id="edge1" class="edge">
<title>c7832346&#45;&gt;c7832360</title>
<path fill="none" stroke="#000000" stroke-dasharray="5,2" d="M75.3921,-14C77.8912,-14 80.399,-14 82.8845,-14"/>
<polygon fill="none" stroke="#000000" points="75.2467,-10.5001 65.2467,-14 75.2466,-17.5001 75.2467,-10.5001"/>
</g>
</g>
</svg>
