<?xml version="1.0" encoding="UTF-8" standalone="no"?>
<!DOCTYPE svg PUBLIC "-//W3C//DTD SVG 1.1//EN"
 "http://www.w3.org/Graphics/SVG/1.1/DTD/svg11.dtd">
<!-- Generated by graphviz version 2.40.1 (20161225.0304)
 -->
<!-- Title: G Pages: 1 -->
<svg width="440pt" height="121pt"
 viewBox="0.00 0.00 440.00 120.50" xmlns="http://www.w3.org/2000/svg" xmlns:xlink="http://www.w3.org/1999/xlink">
<g id="graph0" class="graph" transform="scale(1 1) rotate(0) translate(4 116.5)">
<title>G</title>
<polygon fill="#ffffff" stroke="transparent" points="-4,4 -4,-116.5 436,-116.5 436,4 -4,4"/>
<!-- c962776 -->
<g id="node1" class="node">
<title>c962776</title>
<g id="a_node1"><a xlink:href="DistanceFunction.html" xlink:title="&lt;TABLE&gt;">
<g id="a_node1_0"><a xlink:href="DistanceFunction.html" xlink:title="de.lmu.ifi.dbs.elki.distance.distancefunction.DistanceFunction" target="_parent">
<polygon fill="#fffacd" stroke="transparent" points="0,-48 0,-76 75,-76 75,-48 0,-48"/>
<polygon fill="none" stroke="#000000" points=".5,-48 .5,-76 75.5,-76 75.5,-48 .5,-48"/>
<text text-anchor="start" x="16.5" y="-65.6" font-family="Roboto" font-size="8.00" fill="#000000"> «interface» </text>
<text text-anchor="start" x="4.5" y="-55.6" font-family="Roboto" font-size="8.00" fill="#000000"> </text>
<text text-anchor="start" x="7.5" y="-55.6" font-family="Roboto" font-size="8.00" fill="#000000">DistanceFunction</text>
<text text-anchor="start" x="68.5" y="-55.6" font-family="Roboto" font-size="8.00" fill="#000000"> </text>
</a>
</g>
</a>
</g>
</g>
<!-- c963842 -->
<g id="node4" class="node">
<title>c963842</title>
<g id="a_node4"><a xlink:href="AbstractDatabaseDistanceFunction.html" xlink:title="&lt;TABLE&gt;">
<g id="a_node4_1"><a xlink:href="AbstractDatabaseDistanceFunction.html" xlink:title="de.lmu.ifi.dbs.elki.distance.distancefunction.AbstractDatabaseDistanceFunction" target="_parent">
<polygon fill="#fffacd" stroke="transparent" points="93,-53.5 93,-70.5 231,-70.5 231,-53.5 93,-53.5"/>
<polygon fill="none" stroke="#000000" points="93,-53 93,-70 231,-70 231,-53 93,-53"/>
<text text-anchor="start" x="97" y="-60.6" font-family="Roboto" font-size="8.00" fill="#000000"> </text>
<text text-anchor="start" x="100" y="-60.6" font-family="Roboto" font-style="italic" font-size="8.00" fill="#000000">AbstractDatabaseDistanceFunction</text>
<text text-anchor="start" x="224" y="-60.6" font-family="Roboto" font-size="8.00" fill="#000000"> </text>
</a>
</g>
</a>
</g>
</g>
<!-- c962776&#45;&gt;c963842 -->
<g id="edge3" class="edge">
<title>c962776&#45;&gt;c963842</title>
<path fill="none" stroke="#000000" stroke-dasharray="5,2" d="M85.4204,-62C87.8074,-62 90.2241,-62 92.6555,-62"/>
<polygon fill="none" stroke="#000000" points="85.192,-58.5001 75.192,-62 85.1919,-65.5001 85.192,-58.5001"/>
</g>
<!-- c963839 -->
<g id="node2" class="node">
<title>c963839</title>
<g id="a_node2"><a xlink:href="AbstractDBIDRangeDistanceFunction.html" xlink:title="&lt;TABLE&gt;">
<g id="a_node2_2"><a xlink:href="AbstractDBIDRangeDistanceFunction.html" xlink:title="de.lmu.ifi.dbs.elki.distance.distancefunction.AbstractDBIDRangeDistanceFunction" target="_parent">
<polygon fill="none" stroke="#000000" points="268.5,-95 268.5,-112 412.5,-112 412.5,-95 268.5,-95"/>
<text text-anchor="start" x="272.5" y="-102.6" font-family="Roboto" font-size="8.00" fill="#000000"> </text>
<text text-anchor="start" x="275.5" y="-102.6" font-family="Roboto" font-style="italic" font-size="8.00" fill="#000000">AbstractDBIDRangeDistanceFunction</text>
<text text-anchor="start" x="405.5" y="-102.6" font-family="Roboto" font-size="8.00" fill="#000000"> </text>
</a>
</g>
</a>
</g>
</g>
<!-- c963840 -->
<g id="node3" class="node">
<title>c963840</title>
<g id="a_node3"><a xlink:href="RandomStableDistanceFunction.html" xlink:title="&lt;TABLE&gt;">
<g id="a_node3_3"><a xlink:href="RandomStableDistanceFunction.html" xlink:title="de.lmu.ifi.dbs.elki.distance.distancefunction.RandomStableDistanceFunction" target="_parent">
<polygon fill="none" stroke="#000000" points="277.5,-67 277.5,-84 403.5,-84 403.5,-67 277.5,-67"/>
<text text-anchor="start" x="281.5" y="-74.6" font-family="Roboto" font-size="8.00" fill="#000000"> </text>
<text text-anchor="start" x="284.5" y="-74.6" font-family="Roboto" font-size="8.00" fill="#000000">RandomStableDistanceFunction</text>
<text text-anchor="start" x="396.5" y="-74.6" font-family="Roboto" font-size="8.00" fill="#000000"> </text>
</a>
</g>
</a>
</g>
</g>
<!-- c963842&#45;&gt;c963839 -->
<g id="edge1" class="edge">
<title>c963842&#45;&gt;c963839</title>
<path fill="none" stroke="#000000" d="M194.5276,-73.8315C210.7263,-79.3727 230.7115,-85.687 249,-90 257.7591,-92.0657 267.0645,-93.8975 276.2581,-95.499"/>
<polygon fill="none" stroke="#000000" points="195.5747,-70.4901 184.9799,-70.5061 193.2722,-77.1006 195.5747,-70.4901"/>
</g>
<!-- c963842&#45;&gt;c963840 -->
<g id="edge2" class="edge">
<title>c963842&#45;&gt;c963840</title>
<path fill="none" stroke="#000000" d="M241.0908,-68.2032C253.1827,-69.1516 265.5266,-70.1197 277.2192,-71.0368"/>
<polygon fill="none" stroke="#000000" points="241.2558,-64.7055 231.0128,-67.4128 240.7084,-71.6841 241.2558,-64.7055"/>
</g>
<!-- c963844 -->
<g id="node5" class="node">
<title>c963844</title>
<g id="a_node5"><a xlink:href="AbstractIndexBasedDistanceFunction.html" xlink:title="&lt;TABLE&gt;">
<g id="a_node5_4"><a xlink:href="AbstractIndexBasedDistanceFunction.html" xlink:title="de.lmu.ifi.dbs.elki.distance.distancefunction.AbstractIndexBasedDistanceFunction" target="_parent">
<polygon fill="none" stroke="#000000" points="268.5,-39 268.5,-56 412.5,-56 412.5,-39 268.5,-39"/>
<text text-anchor="start" x="272.5" y="-46.6" font-family="Roboto" font-size="8.00" fill="#000000"> </text>
<text text-anchor="start" x="275.5" y="-46.6" font-family="Roboto" font-style="italic" font-size="8.00" fill="#000000">AbstractIndexBasedDistanceFunction</text>
<text text-anchor="start" x="405.5" y="-46.6" font-family="Roboto" font-size="8.00" fill="#000000"> </text>
</a>
</g>
</a>
</g>
</g>
<!-- c963842&#45;&gt;c963844 -->
<g id="edge4" class="edge">
<title>c963842&#45;&gt;c963844</title>
<path fill="none" stroke="#000000" d="M241.1728,-55.7904C250.2425,-55.079 259.4529,-54.3566 268.4228,-53.6531"/>
<polygon fill="none" stroke="#000000" points="240.7084,-52.3159 231.0128,-56.5872 241.2558,-59.2945 240.7084,-52.3159"/>
</g>
<!-- c963847 -->
<g id="node6" class="node">
<title>c963847</title>
<g id="a_node6"><a xlink:href="adapter/AbstractSimilarityAdapter.html" xlink:title="&lt;TABLE&gt;">
<g id="a_node6_5"><a xlink:href="adapter/AbstractSimilarityAdapter.html" xlink:title="de.lmu.ifi.dbs.elki.distance.distancefunction.adapter.AbstractSimilarityAdapter" target="_parent">
<polygon fill="none" stroke="#000000" points="249.5,0 249.5,-28 432.5,-28 432.5,0 249.5,0"/>
<text text-anchor="start" x="292.5" y="-18.6" font-family="Roboto" font-size="8.00" fill="#000000"> </text>
<text text-anchor="start" x="295.5" y="-18.6" font-family="Roboto" font-style="italic" font-size="8.00" fill="#000000">AbstractSimilarityAdapter</text>
<text text-anchor="start" x="386.5" y="-18.6" font-family="Roboto" font-size="8.00" fill="#000000"> </text>
<text text-anchor="start" x="253.5" y="-7.6" font-family="Roboto" font-size="8.00" fill="#000000"> </text>
<text text-anchor="start" x="256.5" y="-7.6" font-family="Roboto" font-size="7.00" fill="#000000">de.lmu.ifi.dbs.elki.distance.distancefunction.adapter</text>
<text text-anchor="start" x="425.5" y="-7.6" font-family="Roboto" font-size="8.00" fill="#000000"> </text>
</a>
</g>
</a>
</g>
</g>
<!-- c963842&#45;&gt;c963847 -->
<g id="edge5" class="edge">
<title>c963842&#45;&gt;c963847</title>
<path fill="none" stroke="#000000" d="M196.4775,-50.0608C212.3643,-44.7774 231.5312,-38.7085 249,-34 256.6931,-31.9264 264.7934,-29.9139 272.8631,-28.015"/>
<polygon fill="none" stroke="#000000" points="194.9237,-46.8907 186.562,-53.3971 197.1561,-53.5252 194.9237,-46.8907"/>
</g>
</g>
</svg>
