<?xml version="1.0" encoding="UTF-8" standalone="no"?>
<!DOCTYPE svg PUBLIC "-//W3C//DTD SVG 1.1//EN"
 "http://www.w3.org/Graphics/SVG/1.1/DTD/svg11.dtd">
<!-- Generated by graphviz version 2.40.1 (20161225.0304)
 -->
<!-- Title: G Pages: 1 -->
<svg width="265pt" height="75pt"
 viewBox="0.00 0.00 265.00 75.00" xmlns="http://www.w3.org/2000/svg" xmlns:xlink="http://www.w3.org/1999/xlink">
<g id="graph0" class="graph" transform="scale(1 1) rotate(0) translate(4 71)">
<title>G</title>
<polygon fill="#ffffff" stroke="transparent" points="-4,4 -4,-71 261,-71 261,4 -4,4"/>
<!-- c2312061 -->
<g id="node1" class="node">
<title>c2312061</title>
<g id="a_node1"><a xlink:href="NumberVectorDistanceFunction.html" xlink:title="&lt;TABLE&gt;">
<g id="a_node1_0"><a xlink:href="NumberVectorDistanceFunction.html" xlink:title="de.lmu.ifi.dbs.elki.distance.distancefunction.NumberVectorDistanceFunction" target="_parent">
<polygon fill="#fffacd" stroke="transparent" points="2.5,-39 2.5,-67 128.5,-67 128.5,-39 2.5,-39"/>
<polygon fill="none" stroke="#000000" points="2.5,-39 2.5,-67 128.5,-67 128.5,-39 2.5,-39"/>
<text text-anchor="start" x="44" y="-56.6" font-family="Roboto" font-size="8.00" fill="#000000"> «interface» </text>
<text text-anchor="start" x="6.5" y="-46.6" font-family="Roboto" font-size="8.00" fill="#000000"> </text>
<text text-anchor="start" x="9.5" y="-46.6" font-family="Roboto" font-size="8.00" fill="#000000">NumberVectorDistanceFunction</text>
<text text-anchor="start" x="121.5" y="-46.6" font-family="Roboto" font-size="8.00" fill="#000000"> </text>
</a>
</g>
</a>
</g>
</g>
<!-- c2312386 -->
<g id="node3" class="node">
<title>c2312386</title>
<g id="a_node3"><a xlink:href="CanberraDistanceFunction.html" xlink:title="&lt;TABLE&gt;">
<g id="a_node3_1"><a xlink:href="CanberraDistanceFunction.html" xlink:title="de.lmu.ifi.dbs.elki.distance.distancefunction.CanberraDistanceFunction" target="_parent">
<polygon fill="#fffacd" stroke="transparent" points="149,-24.5 149,-41.5 257,-41.5 257,-24.5 149,-24.5"/>
<polygon fill="none" stroke="#000000" points="149,-24 149,-41 257,-41 257,-24 149,-24"/>
<text text-anchor="start" x="153" y="-31.6" font-family="Roboto" font-size="8.00" fill="#000000"> </text>
<text text-anchor="start" x="156" y="-31.6" font-family="Roboto" font-size="8.00" fill="#000000">CanberraDistanceFunction</text>
<text text-anchor="start" x="250" y="-31.6" font-family="Roboto" font-size="8.00" fill="#000000"> </text>
</a>
</g>
</a>
</g>
</g>
<!-- c2312061&#45;&gt;c2312386 -->
<g id="edge2" class="edge">
<title>c2312061&#45;&gt;c2312386</title>
<path fill="none" stroke="#000000" stroke-dasharray="5,2" d="M138.8041,-42.3376C142.1963,-41.8442 145.5737,-41.3529 148.9031,-40.8686"/>
<polygon fill="none" stroke="#000000" points="138.008,-38.9165 128.616,-43.8195 139.0157,-45.8436 138.008,-38.9165"/>
</g>
<!-- c2312064 -->
<g id="node2" class="node">
<title>c2312064</title>
<g id="a_node2"><a xlink:href="SpatialPrimitiveDistanceFunction.html" xlink:title="&lt;TABLE&gt;">
<g id="a_node2_2"><a xlink:href="SpatialPrimitiveDistanceFunction.html" xlink:title="de.lmu.ifi.dbs.elki.distance.distancefunction.SpatialPrimitiveDistanceFunction" target="_parent">
<polygon fill="none" stroke="#000000" points=".5,0 .5,-28 131.5,-28 131.5,0 .5,0"/>
<text text-anchor="start" x="44.5" y="-17.6" font-family="Roboto" font-size="8.00" fill="#000000"> «interface» </text>
<text text-anchor="start" x="4.5" y="-7.6" font-family="Roboto" font-size="8.00" fill="#000000"> </text>
<text text-anchor="start" x="7.5" y="-7.6" font-family="Roboto" font-size="8.00" fill="#000000">SpatialPrimitiveDistanceFunction</text>
<text text-anchor="start" x="124.5" y="-7.6" font-family="Roboto" font-size="8.00" fill="#000000"> </text>
</a>
</g>
</a>
</g>
</g>
<!-- c2312064&#45;&gt;c2312386 -->
<g id="edge1" class="edge">
<title>c2312064&#45;&gt;c2312386</title>
<path fill="none" stroke="#000000" stroke-dasharray="5,2" d="M141.0654,-24.4418C143.659,-24.8002 146.2395,-25.1567 148.7921,-25.5094"/>
<polygon fill="none" stroke="#000000" points="141.4134,-20.9567 131.0284,-23.0548 140.4552,-27.8908 141.4134,-20.9567"/>
</g>
</g>
</svg>
