<?xml version="1.0" encoding="UTF-8" standalone="no"?>
<!DOCTYPE svg PUBLIC "-//W3C//DTD SVG 1.1//EN"
 "http://www.w3.org/Graphics/SVG/1.1/DTD/svg11.dtd">
<!-- Generated by graphviz version 2.40.1 (20161225.0304)
 -->
<!-- Title: G Pages: 1 -->
<svg width="509pt" height="338pt"
 viewBox="0.00 0.00 509.00 338.00" xmlns="http://www.w3.org/2000/svg" xmlns:xlink="http://www.w3.org/1999/xlink">
<g id="graph0" class="graph" transform="scale(1 1) rotate(0) translate(4 334)">
<title>G</title>
<polygon fill="#ffffff" stroke="transparent" points="-4,4 -4,-334 505,-334 505,4 -4,4"/>
<!-- c7370171 -->
<g id="node1" class="node">
<title>c7370171</title>
<g id="a_node1"><a xlink:href="PrimitiveDistanceFunction.html" xlink:title="&lt;TABLE&gt;">
<g id="a_node1_0"><a xlink:href="PrimitiveDistanceFunction.html" xlink:title="de.lmu.ifi.dbs.elki.distance.distancefunction.PrimitiveDistanceFunction" target="_parent">
<polygon fill="#fffacd" stroke="transparent" points="56.5,-263 56.5,-291 162.5,-291 162.5,-263 56.5,-263"/>
<polygon fill="none" stroke="#000000" points="56.5,-263 56.5,-291 162.5,-291 162.5,-263 56.5,-263"/>
<text text-anchor="start" x="88" y="-280.6" font-family="Roboto" font-size="8.00" fill="#000000"> «interface» </text>
<text text-anchor="start" x="60.5" y="-270.6" font-family="Roboto" font-size="8.00" fill="#000000"> </text>
<text text-anchor="start" x="63.5" y="-270.6" font-family="Roboto" font-size="8.00" fill="#000000">PrimitiveDistanceFunction</text>
<text text-anchor="start" x="155.5" y="-270.6" font-family="Roboto" font-size="8.00" fill="#000000"> </text>
</a>
</g>
</a>
</g>
</g>
<!-- c7370173 -->
<g id="node2" class="node">
<title>c7370173</title>
<g id="a_node2"><a xlink:href="Norm.html" xlink:title="&lt;TABLE&gt;">
<g id="a_node2_1"><a xlink:href="Norm.html" xlink:title="de.lmu.ifi.dbs.elki.distance.distancefunction.Norm" target="_parent">
<polygon fill="#fffacd" stroke="transparent" points="237,-146 237,-174 288,-174 288,-146 237,-146"/>
<polygon fill="none" stroke="#000000" points="237.5,-146 237.5,-174 288.5,-174 288.5,-146 237.5,-146"/>
<text text-anchor="start" x="241.5" y="-163.6" font-family="Roboto" font-size="8.00" fill="#000000"> «interface» </text>
<text text-anchor="start" x="250" y="-153.6" font-family="Roboto" font-size="8.00" fill="#000000"> </text>
<text text-anchor="start" x="253" y="-153.6" font-family="Roboto" font-size="8.00" fill="#000000">Norm</text>
<text text-anchor="start" x="273" y="-153.6" font-family="Roboto" font-size="8.00" fill="#000000"> </text>
</a>
</g>
</a>
</g>
</g>
<!-- c7370171&#45;&gt;c7370173 -->
<g id="edge1" class="edge">
<title>c7370171&#45;&gt;c7370173</title>
<path fill="none" stroke="#000000" stroke-dasharray="5,2" d="M172.8498,-276.5053C189.2171,-273.7142 205.8972,-268.2202 219,-258 245.8602,-237.049 256.5473,-195.9733 260.4581,-174.2508"/>
<polygon fill="none" stroke="#000000" points="172.1567,-273.0679 162.7341,-277.9119 173.1208,-280.0012 172.1567,-273.0679"/>
</g>
<!-- c7370526 -->
<g id="node3" class="node">
<title>c7370526</title>
<g id="a_node3"><a xlink:href="minkowski/SparseSquaredEuclideanDistanceFunction.html" xlink:title="&lt;TABLE&gt;">
<g id="a_node3_2"><a xlink:href="minkowski/SparseSquaredEuclideanDistanceFunction.html" xlink:title="de.lmu.ifi.dbs.elki.distance.distancefunction.minkowski.SparseSquaredEuclideanDistanceFunction" target="_parent">
<polygon fill="none" stroke="#000000" points="306.5,-263 306.5,-291 501.5,-291 501.5,-263 306.5,-263"/>
<text text-anchor="start" x="326.5" y="-281.6" font-family="Roboto" font-size="8.00" fill="#000000"> </text>
<text text-anchor="start" x="329.5" y="-281.6" font-family="Roboto" font-size="8.00" fill="#000000">SparseSquaredEuclideanDistanceFunction</text>
<text text-anchor="start" x="478.5" y="-281.6" font-family="Roboto" font-size="8.00" fill="#000000"> </text>
<text text-anchor="start" x="310.5" y="-270.6" font-family="Roboto" font-size="8.00" fill="#000000"> </text>
<text text-anchor="start" x="313.5" y="-270.6" font-family="Roboto" font-size="7.00" fill="#000000">de.lmu.ifi.dbs.elki.distance.distancefunction.minkowski</text>
<text text-anchor="start" x="494.5" y="-270.6" font-family="Roboto" font-size="8.00" fill="#000000"> </text>
</a>
</g>
</a>
</g>
</g>
<!-- c7370171&#45;&gt;c7370526 -->
<g id="edge2" class="edge">
<title>c7370171&#45;&gt;c7370526</title>
<path fill="none" stroke="#000000" stroke-dasharray="5,2" d="M172.8395,-277C211.5956,-277 261.9822,-277 305.7722,-277"/>
<polygon fill="none" stroke="#000000" points="172.7412,-273.5001 162.7412,-277 172.7411,-280.5001 172.7412,-273.5001"/>
</g>
<!-- c7370548 -->
<g id="node5" class="node">
<title>c7370548</title>
<g id="a_node5"><a xlink:href="minkowski/SparseLPNormDistanceFunction.html" xlink:title="&lt;TABLE&gt;">
<g id="a_node5_3"><a xlink:href="minkowski/SparseLPNormDistanceFunction.html" xlink:title="de.lmu.ifi.dbs.elki.distance.distancefunction.minkowski.SparseLPNormDistanceFunction" target="_parent">
<polygon fill="none" stroke="#000000" points="306.5,-302 306.5,-330 501.5,-330 501.5,-302 306.5,-302"/>
<text text-anchor="start" x="344" y="-320.6" font-family="Roboto" font-size="8.00" fill="#000000"> </text>
<text text-anchor="start" x="347" y="-320.6" font-family="Roboto" font-size="8.00" fill="#000000">SparseLPNormDistanceFunction</text>
<text text-anchor="start" x="461" y="-320.6" font-family="Roboto" font-size="8.00" fill="#000000"> </text>
<text text-anchor="start" x="310.5" y="-309.6" font-family="Roboto" font-size="8.00" fill="#000000"> </text>
<text text-anchor="start" x="313.5" y="-309.6" font-family="Roboto" font-size="7.00" fill="#000000">de.lmu.ifi.dbs.elki.distance.distancefunction.minkowski</text>
<text text-anchor="start" x="494.5" y="-309.6" font-family="Roboto" font-size="8.00" fill="#000000"> </text>
</a>
</g>
</a>
</g>
</g>
<!-- c7370171&#45;&gt;c7370548 -->
<g id="edge5" class="edge">
<title>c7370171&#45;&gt;c7370548</title>
<path fill="none" stroke="#000000" stroke-dasharray="5,2" d="M172.8395,-285.4022C211.5956,-290.5433 261.9822,-297.2272 305.7722,-303.0361"/>
<polygon fill="none" stroke="#000000" points="173.1146,-281.9081 162.7412,-284.0626 172.1941,-288.8473 173.1146,-281.9081"/>
</g>
<!-- c7370173&#45;&gt;c7370526 -->
<g id="edge3" class="edge">
<title>c7370173&#45;&gt;c7370526</title>
<path fill="none" stroke="#000000" stroke-dasharray="5,2" d="M266.6326,-184.0399C271.8212,-206.6461 283.0001,-239.6749 306,-258 308.1581,-259.7194 310.4272,-261.2981 312.7852,-262.747"/>
<polygon fill="none" stroke="#000000" points="270.0471,-183.2678 264.595,-174.1834 263.192,-184.685 270.0471,-183.2678"/>
</g>
<!-- c7370540 -->
<g id="node4" class="node">
<title>c7370540</title>
<g id="a_node4"><a xlink:href="minkowski/LPNormDistanceFunction.html" xlink:title="&lt;TABLE&gt;">
<g id="a_node4_4"><a xlink:href="minkowski/LPNormDistanceFunction.html" xlink:title="de.lmu.ifi.dbs.elki.distance.distancefunction.minkowski.LPNormDistanceFunction" target="_parent">
<polygon fill="#fffacd" stroke="transparent" points="306,0 306,-28 501,-28 501,0 306,0"/>
<polygon fill="none" stroke="#000000" points="306.5,0 306.5,-28 501.5,-28 501.5,0 306.5,0"/>
<text text-anchor="start" x="356" y="-18.6" font-family="Roboto" font-size="8.00" fill="#000000"> </text>
<text text-anchor="start" x="359" y="-18.6" font-family="Roboto" font-size="8.00" fill="#000000">LPNormDistanceFunction</text>
<text text-anchor="start" x="449" y="-18.6" font-family="Roboto" font-size="8.00" fill="#000000"> </text>
<text text-anchor="start" x="310.5" y="-7.6" font-family="Roboto" font-size="8.00" fill="#000000"> </text>
<text text-anchor="start" x="313.5" y="-7.6" font-family="Roboto" font-size="7.00" fill="#000000">de.lmu.ifi.dbs.elki.distance.distancefunction.minkowski</text>
<text text-anchor="start" x="494.5" y="-7.6" font-family="Roboto" font-size="8.00" fill="#000000"> </text>
</a>
</g>
</a>
</g>
</g>
<!-- c7370173&#45;&gt;c7370540 -->
<g id="edge4" class="edge">
<title>c7370173&#45;&gt;c7370540</title>
<path fill="none" stroke="#000000" stroke-dasharray="5,2" d="M267.713,-135.9764C275.3274,-103.1209 290.3014,-46.6755 306,-33 308.0806,-31.1876 310.2819,-29.5275 312.5808,-28.0078"/>
<polygon fill="none" stroke="#000000" points="264.2991,-135.2051 265.5078,-145.7308 271.1268,-136.7487 264.2991,-135.2051"/>
</g>
<!-- c7370173&#45;&gt;c7370548 -->
<g id="edge6" class="edge">
<title>c7370173&#45;&gt;c7370548</title>
<path fill="none" stroke="#000000" stroke-dasharray="5,2" d="M267.1419,-184.3719C274.3345,-219.5386 289.116,-281.9539 306,-297 307.9312,-298.721 309.9709,-300.3056 312.0997,-301.7638"/>
<polygon fill="none" stroke="#000000" points="270.545,-183.5395 265.1594,-174.4155 263.6797,-184.9065 270.545,-183.5395"/>
</g>
<!-- c7370552 -->
<g id="node6" class="node">
<title>c7370552</title>
<g id="a_node6"><a xlink:href="minkowski/MinimumDistanceFunction.html" xlink:title="&lt;TABLE&gt;">
<g id="a_node6_5"><a xlink:href="minkowski/MinimumDistanceFunction.html" xlink:title="de.lmu.ifi.dbs.elki.distance.distancefunction.minkowski.MinimumDistanceFunction" target="_parent">
<polygon fill="none" stroke="#000000" points="306.5,-224 306.5,-252 501.5,-252 501.5,-224 306.5,-224"/>
<text text-anchor="start" x="353" y="-242.6" font-family="Roboto" font-size="8.00" fill="#000000"> </text>
<text text-anchor="start" x="356" y="-242.6" font-family="Roboto" font-size="8.00" fill="#000000">MinimumDistanceFunction</text>
<text text-anchor="start" x="452" y="-242.6" font-family="Roboto" font-size="8.00" fill="#000000"> </text>
<text text-anchor="start" x="310.5" y="-231.6" font-family="Roboto" font-size="8.00" fill="#000000"> </text>
<text text-anchor="start" x="313.5" y="-231.6" font-family="Roboto" font-size="7.00" fill="#000000">de.lmu.ifi.dbs.elki.distance.distancefunction.minkowski</text>
<text text-anchor="start" x="494.5" y="-231.6" font-family="Roboto" font-size="8.00" fill="#000000"> </text>
</a>
</g>
</a>
</g>
</g>
<!-- c7370173&#45;&gt;c7370552 -->
<g id="edge7" class="edge">
<title>c7370173&#45;&gt;c7370552</title>
<path fill="none" stroke="#000000" stroke-dasharray="5,2" d="M274.2715,-182.9082C281.7367,-195.1697 292.529,-209.4638 306,-218 309.503,-220.2197 313.2061,-222.1991 317.0411,-223.9635"/>
<polygon fill="none" stroke="#000000" points="277.2174,-181.0087 269.222,-174.057 271.1372,-184.4774 277.2174,-181.0087"/>
</g>
<!-- c7370554 -->
<g id="node7" class="node">
<title>c7370554</title>
<g id="a_node7"><a xlink:href="minkowski/WeightedSquaredEuclideanDistanceFunction.html" xlink:title="&lt;TABLE&gt;">
<g id="a_node7_6"><a xlink:href="minkowski/WeightedSquaredEuclideanDistanceFunction.html" xlink:title="de.lmu.ifi.dbs.elki.distance.distancefunction.minkowski.WeightedSquaredEuclideanDistanceFunction" target="_parent">
<polygon fill="none" stroke="#000000" points="306.5,-185 306.5,-213 501.5,-213 501.5,-185 306.5,-185"/>
<text text-anchor="start" x="322.5" y="-203.6" font-family="Roboto" font-size="8.00" fill="#000000"> </text>
<text text-anchor="start" x="325.5" y="-203.6" font-family="Roboto" font-size="8.00" fill="#000000">WeightedSquaredEuclideanDistanceFunction</text>
<text text-anchor="start" x="482.5" y="-203.6" font-family="Roboto" font-size="8.00" fill="#000000"> </text>
<text text-anchor="start" x="310.5" y="-192.6" font-family="Roboto" font-size="8.00" fill="#000000"> </text>
<text text-anchor="start" x="313.5" y="-192.6" font-family="Roboto" font-size="7.00" fill="#000000">de.lmu.ifi.dbs.elki.distance.distancefunction.minkowski</text>
<text text-anchor="start" x="494.5" y="-192.6" font-family="Roboto" font-size="8.00" fill="#000000"> </text>
</a>
</g>
</a>
</g>
</g>
<!-- c7370173&#45;&gt;c7370554 -->
<g id="edge8" class="edge">
<title>c7370173&#45;&gt;c7370554</title>
<path fill="none" stroke="#000000" stroke-dasharray="5,2" d="M297.711,-176.1108C300.49,-177.1572 303.2751,-178.136 306,-179 312.8356,-181.1675 320.0172,-183.1579 327.253,-184.9716"/>
<polygon fill="none" stroke="#000000" points="298.9665,-172.8433 288.3827,-172.3601 296.3551,-179.338 298.9665,-172.8433"/>
</g>
<!-- c7370556 -->
<g id="node8" class="node">
<title>c7370556</title>
<g id="a_node8"><a xlink:href="minkowski/SquaredEuclideanDistanceFunction.html" xlink:title="&lt;TABLE&gt;">
<g id="a_node8_7"><a xlink:href="minkowski/SquaredEuclideanDistanceFunction.html" xlink:title="de.lmu.ifi.dbs.elki.distance.distancefunction.minkowski.SquaredEuclideanDistanceFunction" target="_parent">
<polygon fill="none" stroke="#000000" points="306.5,-146 306.5,-174 501.5,-174 501.5,-146 306.5,-146"/>
<text text-anchor="start" x="338.5" y="-164.6" font-family="Roboto" font-size="8.00" fill="#000000"> </text>
<text text-anchor="start" x="341.5" y="-164.6" font-family="Roboto" font-size="8.00" fill="#000000">SquaredEuclideanDistanceFunction</text>
<text text-anchor="start" x="466.5" y="-164.6" font-family="Roboto" font-size="8.00" fill="#000000"> </text>
<text text-anchor="start" x="310.5" y="-153.6" font-family="Roboto" font-size="8.00" fill="#000000"> </text>
<text text-anchor="start" x="313.5" y="-153.6" font-family="Roboto" font-size="7.00" fill="#000000">de.lmu.ifi.dbs.elki.distance.distancefunction.minkowski</text>
<text text-anchor="start" x="494.5" y="-153.6" font-family="Roboto" font-size="8.00" fill="#000000"> </text>
</a>
</g>
</a>
</g>
</g>
<!-- c7370173&#45;&gt;c7370556 -->
<g id="edge9" class="edge">
<title>c7370173&#45;&gt;c7370556</title>
<path fill="none" stroke="#000000" stroke-dasharray="5,2" d="M298.2311,-160C300.6779,-160 303.1992,-160 305.7779,-160"/>
<polygon fill="none" stroke="#000000" points="298.0341,-156.5001 288.034,-160 298.034,-163.5001 298.0341,-156.5001"/>
</g>
<!-- c7370560 -->
<g id="node9" class="node">
<title>c7370560</title>
<g id="a_node9"><a xlink:href="MatrixWeightedQuadraticDistanceFunction.html" xlink:title="&lt;TABLE&gt;">
<g id="a_node9_8"><a xlink:href="MatrixWeightedQuadraticDistanceFunction.html" xlink:title="de.lmu.ifi.dbs.elki.distance.distancefunction.MatrixWeightedQuadraticDistanceFunction" target="_parent">
<polygon fill="none" stroke="#000000" points="320.5,-117 320.5,-134 486.5,-134 486.5,-117 320.5,-117"/>
<text text-anchor="start" x="324.5" y="-124.6" font-family="Roboto" font-size="8.00" fill="#000000"> </text>
<text text-anchor="start" x="327.5" y="-124.6" font-family="Roboto" font-size="8.00" fill="#000000">MatrixWeightedQuadraticDistanceFunction</text>
<text text-anchor="start" x="479.5" y="-124.6" font-family="Roboto" font-size="8.00" fill="#000000"> </text>
</a>
</g>
</a>
</g>
</g>
<!-- c7370173&#45;&gt;c7370560 -->
<g id="edge10" class="edge">
<title>c7370173&#45;&gt;c7370560</title>
<path fill="none" stroke="#000000" stroke-dasharray="5,2" d="M297.62,-142.8307C300.4198,-141.7773 303.2345,-140.8156 306,-140 313.217,-137.8716 320.8334,-136.0613 328.4987,-134.5226"/>
<polygon fill="none" stroke="#000000" points="296.1674,-139.6436 288.2514,-146.6855 298.831,-146.117 296.1674,-139.6436"/>
</g>
<!-- c7370580 -->
<g id="node10" class="node">
<title>c7370580</title>
<g id="a_node10"><a xlink:href="subspace/SubspaceLPNormDistanceFunction.html" xlink:title="&lt;TABLE&gt;">
<g id="a_node10_9"><a xlink:href="subspace/SubspaceLPNormDistanceFunction.html" xlink:title="de.lmu.ifi.dbs.elki.distance.distancefunction.subspace.SubspaceLPNormDistanceFunction" target="_parent">
<polygon fill="none" stroke="#000000" points="308.5,-78 308.5,-106 498.5,-106 498.5,-78 308.5,-78"/>
<text text-anchor="start" x="338.5" y="-96.6" font-family="Roboto" font-size="8.00" fill="#000000"> </text>
<text text-anchor="start" x="341.5" y="-96.6" font-family="Roboto" font-size="8.00" fill="#000000">SubspaceLPNormDistanceFunction</text>
<text text-anchor="start" x="465.5" y="-96.6" font-family="Roboto" font-size="8.00" fill="#000000"> </text>
<text text-anchor="start" x="312.5" y="-85.6" font-family="Roboto" font-size="8.00" fill="#000000"> </text>
<text text-anchor="start" x="315.5" y="-85.6" font-family="Roboto" font-size="7.00" fill="#000000">de.lmu.ifi.dbs.elki.distance.distancefunction.subspace</text>
<text text-anchor="start" x="491.5" y="-85.6" font-family="Roboto" font-size="8.00" fill="#000000"> </text>
</a>
</g>
</a>
</g>
</g>
<!-- c7370173&#45;&gt;c7370580 -->
<g id="edge11" class="edge">
<title>c7370173&#45;&gt;c7370580</title>
<path fill="none" stroke="#000000" stroke-dasharray="5,2" d="M277.661,-137.7724C285.1385,-128.4433 294.9311,-118.3146 306,-112 309.9023,-109.7738 314.0177,-107.7935 318.2626,-106.0321"/>
<polygon fill="none" stroke="#000000" points="274.697,-135.89 271.4745,-145.9829 280.2877,-140.1025 274.697,-135.89"/>
</g>
<!-- c7370585 -->
<g id="node11" class="node">
<title>c7370585</title>
<g id="a_node11"><a xlink:href="subspace/OnedimensionalDistanceFunction.html" xlink:title="&lt;TABLE&gt;">
<g id="a_node11_10"><a xlink:href="subspace/OnedimensionalDistanceFunction.html" xlink:title="de.lmu.ifi.dbs.elki.distance.distancefunction.subspace.OnedimensionalDistanceFunction" target="_parent">
<polygon fill="none" stroke="#000000" points="308.5,-39 308.5,-67 498.5,-67 498.5,-39 308.5,-39"/>
<text text-anchor="start" x="341.5" y="-57.6" font-family="Roboto" font-size="8.00" fill="#000000"> </text>
<text text-anchor="start" x="344.5" y="-57.6" font-family="Roboto" font-size="8.00" fill="#000000">OnedimensionalDistanceFunction</text>
<text text-anchor="start" x="462.5" y="-57.6" font-family="Roboto" font-size="8.00" fill="#000000"> </text>
<text text-anchor="start" x="312.5" y="-46.6" font-family="Roboto" font-size="8.00" fill="#000000"> </text>
<text text-anchor="start" x="315.5" y="-46.6" font-family="Roboto" font-size="7.00" fill="#000000">de.lmu.ifi.dbs.elki.distance.distancefunction.subspace</text>
<text text-anchor="start" x="491.5" y="-46.6" font-family="Roboto" font-size="8.00" fill="#000000"> </text>
</a>
</g>
</a>
</g>
</g>
<!-- c7370173&#45;&gt;c7370585 -->
<g id="edge12" class="edge">
<title>c7370173&#45;&gt;c7370585</title>
<path fill="none" stroke="#000000" stroke-dasharray="5,2" d="M267.9602,-136.1845C273.8708,-115.9547 285.3523,-87.7644 306,-72 308.3302,-70.2209 310.7809,-68.5943 313.3258,-67.1078"/>
<polygon fill="none" stroke="#000000" points="264.5564,-135.3652 265.3581,-145.9297 271.3194,-137.1711 264.5564,-135.3652"/>
</g>
<!-- c7371692 -->
<g id="node12" class="node">
<title>c7371692</title>
<g id="a_node12"><a xlink:href="../../index/tree/spatial/kd/MinimalisticMemoryKDTree.KDTreeKNNQuery.html" xlink:title="&lt;TABLE&gt;">
<g id="a_node12_11"><a xlink:href="../../index/tree/spatial/kd/MinimalisticMemoryKDTree.KDTreeKNNQuery.html" xlink:title="de.lmu.ifi.dbs.elki.index.tree.spatial.kd.MinimalisticMemoryKDTree.KDTreeKNNQuery" target="_parent">
<polygon fill="none" stroke="#000000" points="18.5,-107 18.5,-135 200.5,-135 200.5,-107 18.5,-107"/>
<text text-anchor="start" x="22.5" y="-125.6" font-family="Roboto" font-size="8.00" fill="#000000"> </text>
<text text-anchor="start" x="25.5" y="-125.6" font-family="Roboto" font-size="8.00" fill="#000000">MinimalisticMemoryKDTree.KDTreeKNNQuery</text>
<text text-anchor="start" x="193.5" y="-125.6" font-family="Roboto" font-size="8.00" fill="#000000"> </text>
<text text-anchor="start" x="44.5" y="-114.6" font-family="Roboto" font-size="8.00" fill="#000000"> </text>
<text text-anchor="start" x="47.5" y="-114.6" font-family="Roboto" font-size="7.00" fill="#000000">de.lmu.ifi.dbs.elki.index.tree.spatial.kd</text>
<text text-anchor="start" x="171.5" y="-114.6" font-family="Roboto" font-size="8.00" fill="#000000"> </text>
</a>
</g>
</a>
</g>
</g>
<!-- c7371692&#45;&gt;c7370173 -->
<g id="edge13" class="edge">
<title>c7371692&#45;&gt;c7370173</title>
<path fill="none" stroke="#000000" d="M200.7527,-134.974C206.9711,-136.4958 213.104,-138.1673 219,-140 221.7533,-140.8558 224.5591,-141.847 227.3526,-142.921"/>
<polygon fill="#000000" stroke="#000000" points="236.7091,-146.8158 225.7477,-147.1271 232.0931,-144.8942 227.477,-142.9727 227.477,-142.9727 227.477,-142.9727 232.0931,-144.8942 229.2064,-138.8183 236.7091,-146.8158 236.7091,-146.8158"/>
</g>
<!-- c7371693 -->
<g id="node13" class="node">
<title>c7371693</title>
<g id="a_node13"><a xlink:href="../../index/tree/spatial/kd/MinimalisticMemoryKDTree.KDTreeRangeQuery.html" xlink:title="&lt;TABLE&gt;">
<g id="a_node13_12"><a xlink:href="../../index/tree/spatial/kd/MinimalisticMemoryKDTree.KDTreeRangeQuery.html" xlink:title="de.lmu.ifi.dbs.elki.index.tree.spatial.kd.MinimalisticMemoryKDTree.KDTreeRangeQuery" target="_parent">
<polygon fill="none" stroke="#000000" points="16.5,-68 16.5,-96 203.5,-96 203.5,-68 16.5,-68"/>
<text text-anchor="start" x="20.5" y="-86.6" font-family="Roboto" font-size="8.00" fill="#000000"> </text>
<text text-anchor="start" x="23.5" y="-86.6" font-family="Roboto" font-size="8.00" fill="#000000">MinimalisticMemoryKDTree.KDTreeRangeQuery</text>
<text text-anchor="start" x="196.5" y="-86.6" font-family="Roboto" font-size="8.00" fill="#000000"> </text>
<text text-anchor="start" x="45" y="-75.6" font-family="Roboto" font-size="8.00" fill="#000000"> </text>
<text text-anchor="start" x="48" y="-75.6" font-family="Roboto" font-size="7.00" fill="#000000">de.lmu.ifi.dbs.elki.index.tree.spatial.kd</text>
<text text-anchor="start" x="172" y="-75.6" font-family="Roboto" font-size="8.00" fill="#000000"> </text>
</a>
</g>
</a>
</g>
</g>
<!-- c7371693&#45;&gt;c7370173 -->
<g id="edge14" class="edge">
<title>c7371693&#45;&gt;c7370173</title>
<path fill="none" stroke="#000000" d="M203.0555,-93.0527C208.627,-95.2792 213.9943,-97.9058 219,-101 232.8019,-109.5314 243.646,-124.1997 251.055,-136.7758"/>
<polygon fill="#000000" stroke="#000000" points="256.0432,-145.8486 247.2821,-139.2537 253.6343,-141.4672 251.2254,-137.0857 251.2254,-137.0857 251.2254,-137.0857 253.6343,-141.4672 255.1687,-134.9177 256.0432,-145.8486 256.0432,-145.8486"/>
</g>
<!-- c7371697 -->
<g id="node14" class="node">
<title>c7371697</title>
<g id="a_node14"><a xlink:href="../../index/tree/spatial/kd/SmallMemoryKDTree.KDTreeKNNQuery.html" xlink:title="&lt;TABLE&gt;">
<g id="a_node14_13"><a xlink:href="../../index/tree/spatial/kd/SmallMemoryKDTree.KDTreeKNNQuery.html" xlink:title="de.lmu.ifi.dbs.elki.index.tree.spatial.kd.SmallMemoryKDTree.KDTreeKNNQuery" target="_parent">
<polygon fill="none" stroke="#000000" points="30.5,-224 30.5,-252 188.5,-252 188.5,-224 30.5,-224"/>
<text text-anchor="start" x="34.5" y="-242.6" font-family="Roboto" font-size="8.00" fill="#000000"> </text>
<text text-anchor="start" x="37.5" y="-242.6" font-family="Roboto" font-size="8.00" fill="#000000">SmallMemoryKDTree.KDTreeKNNQuery</text>
<text text-anchor="start" x="181.5" y="-242.6" font-family="Roboto" font-size="8.00" fill="#000000"> </text>
<text text-anchor="start" x="44.5" y="-231.6" font-family="Roboto" font-size="8.00" fill="#000000"> </text>
<text text-anchor="start" x="47.5" y="-231.6" font-family="Roboto" font-size="7.00" fill="#000000">de.lmu.ifi.dbs.elki.index.tree.spatial.kd</text>
<text text-anchor="start" x="171.5" y="-231.6" font-family="Roboto" font-size="8.00" fill="#000000"> </text>
</a>
</g>
</a>
</g>
</g>
<!-- c7371697&#45;&gt;c7370173 -->
<g id="edge15" class="edge">
<title>c7371697&#45;&gt;c7370173</title>
<path fill="none" stroke="#000000" d="M188.7212,-230.8768C199.3799,-227.8526 209.7966,-223.6931 219,-218 232.5627,-209.6103 243.3559,-195.3176 250.7987,-183.0203"/>
<polygon fill="#000000" stroke="#000000" points="255.8275,-174.1362 254.8175,-185.0555 253.3644,-178.4874 250.9014,-182.8387 250.9014,-182.8387 250.9014,-182.8387 253.3644,-178.4874 246.9852,-180.622 255.8275,-174.1362 255.8275,-174.1362"/>
</g>
<!-- c7371698 -->
<g id="node15" class="node">
<title>c7371698</title>
<g id="a_node15"><a xlink:href="../../index/tree/spatial/kd/SmallMemoryKDTree.KDTreeRangeQuery.html" xlink:title="&lt;TABLE&gt;">
<g id="a_node15_14"><a xlink:href="../../index/tree/spatial/kd/SmallMemoryKDTree.KDTreeRangeQuery.html" xlink:title="de.lmu.ifi.dbs.elki.index.tree.spatial.kd.SmallMemoryKDTree.KDTreeRangeQuery" target="_parent">
<polygon fill="none" stroke="#000000" points="28.5,-185 28.5,-213 191.5,-213 191.5,-185 28.5,-185"/>
<text text-anchor="start" x="32.5" y="-203.6" font-family="Roboto" font-size="8.00" fill="#000000"> </text>
<text text-anchor="start" x="35.5" y="-203.6" font-family="Roboto" font-size="8.00" fill="#000000">SmallMemoryKDTree.KDTreeRangeQuery</text>
<text text-anchor="start" x="184.5" y="-203.6" font-family="Roboto" font-size="8.00" fill="#000000"> </text>
<text text-anchor="start" x="45" y="-192.6" font-family="Roboto" font-size="8.00" fill="#000000"> </text>
<text text-anchor="start" x="48" y="-192.6" font-family="Roboto" font-size="7.00" fill="#000000">de.lmu.ifi.dbs.elki.index.tree.spatial.kd</text>
<text text-anchor="start" x="172" y="-192.6" font-family="Roboto" font-size="8.00" fill="#000000"> </text>
</a>
</g>
</a>
</g>
</g>
<!-- c7371698&#45;&gt;c7370173 -->
<g id="edge16" class="edge">
<title>c7371698&#45;&gt;c7370173</title>
<path fill="none" stroke="#000000" d="M191.0302,-186.2742C200.5377,-184.1532 210.0357,-181.736 219,-179 221.7341,-178.1655 224.5259,-177.2083 227.3096,-176.177"/>
<polygon fill="#000000" stroke="#000000" points="236.647,-172.4557 229.0236,-180.3382 232.0023,-174.3068 227.3576,-176.158 227.3576,-176.158 227.3576,-176.158 232.0023,-174.3068 225.6916,-171.9777 236.647,-172.4557 236.647,-172.4557"/>
</g>
<!-- c7371793 -->
<g id="node16" class="node">
<title>c7371793</title>
<g id="a_node16"><a xlink:href="../../datasource/filter/normalization/instancewise/LengthNormalization.html" xlink:title="&lt;TABLE&gt;">
<g id="a_node16_15"><a xlink:href="../../datasource/filter/normalization/instancewise/LengthNormalization.html" xlink:title="de.lmu.ifi.dbs.elki.datasource.filter.normalization.instancewise.LengthNormalization" target="_parent">
<polygon fill="none" stroke="#000000" points=".5,-146 .5,-174 219.5,-174 219.5,-146 .5,-146"/>
<text text-anchor="start" x="69.5" y="-164.6" font-family="Roboto" font-size="8.00" fill="#000000"> </text>
<text text-anchor="start" x="72.5" y="-164.6" font-family="Roboto" font-size="8.00" fill="#000000">LengthNormalization</text>
<text text-anchor="start" x="147.5" y="-164.6" font-family="Roboto" font-size="8.00" fill="#000000"> </text>
<text text-anchor="start" x="4.5" y="-153.6" font-family="Roboto" font-size="8.00" fill="#000000"> </text>
<text text-anchor="start" x="7.5" y="-153.6" font-family="Roboto" font-size="7.00" fill="#000000">de.lmu.ifi.dbs.elki.datasource.filter.normalization.instancewise</text>
<text text-anchor="start" x="212.5" y="-153.6" font-family="Roboto" font-size="8.00" fill="#000000"> </text>
</a>
</g>
</a>
</g>
</g>
<!-- c7371793&#45;&gt;c7370173 -->
<g id="edge17" class="edge">
<title>c7371793&#45;&gt;c7370173</title>
<path fill="none" stroke="#000000" d="M219.0656,-160C221.6342,-160 224.1412,-160 226.5713,-160"/>
<polygon fill="#000000" stroke="#000000" points="236.6862,-160 226.6863,-164.5001 231.6862,-160 226.6862,-160.0001 226.6862,-160.0001 226.6862,-160.0001 231.6862,-160 226.6862,-155.5001 236.6862,-160 236.6862,-160"/>
</g>
</g>
</svg>
