<?xml version="1.0" encoding="UTF-8" standalone="no"?>
<!DOCTYPE svg PUBLIC "-//W3C//DTD SVG 1.1//EN"
 "http://www.w3.org/Graphics/SVG/1.1/DTD/svg11.dtd">
<!-- Generated by graphviz version 2.40.1 (20161225.0304)
 -->
<!-- Title: G Pages: 1 -->
<svg width="290pt" height="65pt"
 viewBox="0.00 0.00 290.00 64.50" xmlns="http://www.w3.org/2000/svg" xmlns:xlink="http://www.w3.org/1999/xlink">
<g id="graph0" class="graph" transform="scale(1 1) rotate(0) translate(4 60.5)">
<title>G</title>
<polygon fill="#ffffff" stroke="transparent" points="-4,4 -4,-60.5 286,-60.5 286,4 -4,4"/>
<!-- c8709827 -->
<g id="node1" class="node">
<title>c8709827</title>
<g id="a_node1"><a xlink:href="DBIDDistanceFunction.html" xlink:title="&lt;TABLE&gt;">
<g id="a_node1_0"><a xlink:href="DBIDDistanceFunction.html" xlink:title="de.lmu.ifi.dbs.elki.distance.distancefunction.DBIDDistanceFunction" target="_parent">
<polygon fill="#fffacd" stroke="transparent" points="21.5,-28.5 21.5,-56.5 116.5,-56.5 116.5,-28.5 21.5,-28.5"/>
<polygon fill="none" stroke="#000000" points="22,-28.5 22,-56.5 117,-56.5 117,-28.5 22,-28.5"/>
<text text-anchor="start" x="48" y="-46.1" font-family="Roboto" font-size="8.00" fill="#000000"> «interface» </text>
<text text-anchor="start" x="26" y="-36.1" font-family="Roboto" font-size="8.00" fill="#000000"> </text>
<text text-anchor="start" x="29" y="-36.1" font-family="Roboto" font-size="8.00" fill="#000000">DBIDDistanceFunction</text>
<text text-anchor="start" x="110" y="-36.1" font-family="Roboto" font-size="8.00" fill="#000000"> </text>
</a>
</g>
</a>
</g>
</g>
<!-- c8710887 -->
<g id="node2" class="node">
<title>c8710887</title>
<g id="a_node2"><a xlink:href="RandomStableDistanceFunction.html" xlink:title="&lt;TABLE&gt;">
<g id="a_node2_1"><a xlink:href="RandomStableDistanceFunction.html" xlink:title="de.lmu.ifi.dbs.elki.distance.distancefunction.RandomStableDistanceFunction" target="_parent">
<polygon fill="#fffacd" stroke="transparent" points="156,0 156,-17 282,-17 282,0 156,0"/>
<polygon fill="none" stroke="#000000" points="156,.5 156,-16.5 282,-16.5 282,.5 156,.5"/>
<text text-anchor="start" x="160" y="-7.1" font-family="Roboto" font-size="8.00" fill="#000000"> </text>
<text text-anchor="start" x="163" y="-7.1" font-family="Roboto" font-size="8.00" fill="#000000">RandomStableDistanceFunction</text>
<text text-anchor="start" x="275" y="-7.1" font-family="Roboto" font-size="8.00" fill="#000000"> </text>
</a>
</g>
</a>
</g>
</g>
<!-- c8709827&#45;&gt;c8710887 -->
<g id="edge2" class="edge">
<title>c8709827&#45;&gt;c8710887</title>
<path fill="none" stroke="#000000" stroke-dasharray="5,2" d="M126.8046,-29.3976C144.9978,-25.2738 164.6178,-20.8266 181.0624,-17.0992"/>
<polygon fill="none" stroke="#000000" points="125.8522,-26.0246 116.8734,-31.6487 127.3997,-32.8515 125.8522,-26.0246"/>
</g>
<!-- c8710889 -->
<g id="node3" class="node">
<title>c8710889</title>
<g id="a_node3"><a xlink:href="AbstractDatabaseDistanceFunction.html" xlink:title="&lt;TABLE&gt;">
<g id="a_node3_2"><a xlink:href="AbstractDatabaseDistanceFunction.html" xlink:title="de.lmu.ifi.dbs.elki.distance.distancefunction.AbstractDatabaseDistanceFunction" target="_parent">
<polygon fill="none" stroke="#000000" points="0,.5 0,-16.5 138,-16.5 138,.5 0,.5"/>
<text text-anchor="start" x="4" y="-7.1" font-family="Roboto" font-size="8.00" fill="#000000"> </text>
<text text-anchor="start" x="7" y="-7.1" font-family="Roboto" font-style="italic" font-size="8.00" fill="#000000">AbstractDatabaseDistanceFunction</text>
<text text-anchor="start" x="131" y="-7.1" font-family="Roboto" font-size="8.00" fill="#000000"> </text>
</a>
</g>
</a>
</g>
</g>
<!-- c8710889&#45;&gt;c8710887 -->
<g id="edge1" class="edge">
<title>c8710889&#45;&gt;c8710887</title>
<path fill="none" stroke="#000000" d="M148.4293,-8.5C150.8931,-8.5 153.3504,-8.5 155.7907,-8.5"/>
<polygon fill="none" stroke="#000000" points="148.2921,-5.0001 138.292,-8.5 148.292,-12.0001 148.2921,-5.0001"/>
</g>
</g>
</svg>
