<?xml version="1.0" encoding="UTF-8" standalone="no"?>
<!DOCTYPE svg PUBLIC "-//W3C//DTD SVG 1.1//EN"
 "http://www.w3.org/Graphics/SVG/1.1/DTD/svg11.dtd">
<!-- Generated by graphviz version 2.40.1 (20161225.0304)
 -->
<!-- Title: G Pages: 1 -->
<svg width="441pt" height="53pt"
 viewBox="0.00 0.00 441.00 53.00" xmlns="http://www.w3.org/2000/svg" xmlns:xlink="http://www.w3.org/1999/xlink">
<g id="graph0" class="graph" transform="scale(1 1) rotate(0) translate(4 49)">
<title>G</title>
<polygon fill="#ffffff" stroke="transparent" points="-4,4 -4,-49 437,-49 437,4 -4,4"/>
<!-- c6495363 -->
<g id="node1" class="node">
<title>c6495363</title>
<g id="a_node1"><a xlink:href="AbstractProjectedHashFunctionFamily.html" xlink:title="&lt;TABLE&gt;">
<g id="a_node1_0"><a xlink:href="AbstractProjectedHashFunctionFamily.html" xlink:title="de.lmu.ifi.dbs.elki.index.lsh.hashfamilies.AbstractProjectedHashFunctionFamily" target="_parent">
<polygon fill="none" stroke="#000000" points="284.5,-27.5 284.5,-44.5 433.5,-44.5 433.5,-27.5 284.5,-27.5"/>
<text text-anchor="start" x="288.5" y="-35.1" font-family="Roboto" font-size="8.00" fill="#000000"> </text>
<text text-anchor="start" x="291.5" y="-35.1" font-family="Roboto" font-style="italic" font-size="8.00" fill="#000000">AbstractProjectedHashFunctionFamily</text>
<text text-anchor="start" x="426.5" y="-35.1" font-family="Roboto" font-size="8.00" fill="#000000"> </text>
</a>
</g>
</a>
</g>
</g>
<!-- c6495367 -->
<g id="node2" class="node">
<title>c6495367</title>
<g id="a_node2"><a xlink:href="LocalitySensitiveHashFunctionFamily.html" xlink:title="&lt;TABLE&gt;">
<g id="a_node2_1"><a xlink:href="LocalitySensitiveHashFunctionFamily.html" xlink:title="de.lmu.ifi.dbs.elki.index.lsh.hashfamilies.LocalitySensitiveHashFunctionFamily" target="_parent">
<polygon fill="#fffacd" stroke="transparent" points="121,-8.5 121,-36.5 266,-36.5 266,-8.5 121,-8.5"/>
<polygon fill="none" stroke="#000000" points="121.5,-8.5 121.5,-36.5 266.5,-36.5 266.5,-8.5 121.5,-8.5"/>
<text text-anchor="start" x="172.5" y="-26.1" font-family="Roboto" font-size="8.00" fill="#000000"> «interface» </text>
<text text-anchor="start" x="125.5" y="-16.1" font-family="Roboto" font-size="8.00" fill="#000000"> </text>
<text text-anchor="start" x="128.5" y="-16.1" font-family="Roboto" font-size="8.00" fill="#000000">LocalitySensitiveHashFunctionFamily</text>
<text text-anchor="start" x="259.5" y="-16.1" font-family="Roboto" font-size="8.00" fill="#000000"> </text>
</a>
</g>
</a>
</g>
</g>
<!-- c6495367&#45;&gt;c6495363 -->
<g id="edge1" class="edge">
<title>c6495367&#45;&gt;c6495363</title>
<path fill="none" stroke="#000000" stroke-dasharray="5,2" d="M276.4255,-29.5361C278.8807,-29.7444 281.3353,-29.9527 283.7807,-30.1602"/>
<polygon fill="none" stroke="#000000" points="276.6118,-26.0394 266.3517,-28.6814 276.02,-33.0144 276.6118,-26.0394"/>
</g>
<!-- c6495368 -->
<g id="node3" class="node">
<title>c6495368</title>
<g id="a_node3"><a xlink:href="CosineHashFunctionFamily.html" xlink:title="&lt;TABLE&gt;">
<g id="a_node3_2"><a xlink:href="CosineHashFunctionFamily.html" xlink:title="de.lmu.ifi.dbs.elki.index.lsh.hashfamilies.CosineHashFunctionFamily" target="_parent">
<polygon fill="none" stroke="#000000" points="303.5,.5 303.5,-16.5 414.5,-16.5 414.5,.5 303.5,.5"/>
<text text-anchor="start" x="307.5" y="-7.1" font-family="Roboto" font-size="8.00" fill="#000000"> </text>
<text text-anchor="start" x="310.5" y="-7.1" font-family="Roboto" font-size="8.00" fill="#000000">CosineHashFunctionFamily</text>
<text text-anchor="start" x="407.5" y="-7.1" font-family="Roboto" font-size="8.00" fill="#000000"> </text>
</a>
</g>
</a>
</g>
</g>
<!-- c6495367&#45;&gt;c6495368 -->
<g id="edge2" class="edge">
<title>c6495367&#45;&gt;c6495368</title>
<path fill="none" stroke="#000000" stroke-dasharray="5,2" d="M276.4499,-15.4618C285.4114,-14.7015 294.3658,-13.9417 302.8901,-13.2184"/>
<polygon fill="none" stroke="#000000" points="276.02,-11.9856 266.3517,-16.3186 276.6118,-18.9606 276.02,-11.9856"/>
</g>
<!-- c6495375 -->
<g id="node4" class="node">
<title>c6495375</title>
<g id="a_node4"><a xlink:href="../InMemoryLSHIndex.html" xlink:title="&lt;TABLE&gt;">
<g id="a_node4_3"><a xlink:href="../InMemoryLSHIndex.html" xlink:title="de.lmu.ifi.dbs.elki.index.lsh.InMemoryLSHIndex" target="_parent">
<polygon fill="none" stroke="#000000" points=".5,-8.5 .5,-36.5 103.5,-36.5 103.5,-8.5 .5,-8.5"/>
<text text-anchor="start" x="14" y="-27.1" font-family="Roboto" font-size="8.00" fill="#000000"> </text>
<text text-anchor="start" x="17" y="-27.1" font-family="Roboto" font-size="8.00" fill="#000000">InMemoryLSHIndex</text>
<text text-anchor="start" x="87" y="-27.1" font-family="Roboto" font-size="8.00" fill="#000000"> </text>
<text text-anchor="start" x="4.5" y="-16.1" font-family="Roboto" font-size="8.00" fill="#000000"> </text>
<text text-anchor="start" x="7.5" y="-16.1" font-family="Roboto" font-size="7.00" fill="#000000">de.lmu.ifi.dbs.elki.index.lsh</text>
<text text-anchor="start" x="96.5" y="-16.1" font-family="Roboto" font-size="8.00" fill="#000000"> </text>
</a>
</g>
</a>
</g>
</g>
<!-- c6495375&#45;&gt;c6495367 -->
<g id="edge3" class="edge">
<title>c6495375&#45;&gt;c6495367</title>
<path fill="none" stroke="#000000" d="M115.4214,-22.5C117.1678,-22.5 118.92,-22.5 120.6736,-22.5"/>
<polygon fill="none" stroke="#000000" points="115.167,-22.5001 109.1669,-26.5 103.167,-22.5 109.167,-18.5 115.167,-22.5001"/>
</g>
</g>
</svg>
