<?xml version="1.0" encoding="UTF-8" standalone="no"?>
<!DOCTYPE svg PUBLIC "-//W3C//DTD SVG 1.1//EN"
 "http://www.w3.org/Graphics/SVG/1.1/DTD/svg11.dtd">
<!-- Generated by graphviz version 2.40.1 (20161225.0304)
 -->
<!-- Title: G Pages: 1 -->
<svg width="972pt" height="345pt"
 viewBox="0.00 0.00 972.00 345.15" xmlns="http://www.w3.org/2000/svg" xmlns:xlink="http://www.w3.org/1999/xlink">
<g id="graph0" class="graph" transform="scale(1 1) rotate(0) translate(4 341.1547)">
<title>G</title>
<polygon fill="#ffffff" stroke="transparent" points="-4,4 -4,-341.1547 968,-341.1547 968,4 -4,4"/>
<!-- c1156722 -->
<g id="node1" class="node">
<title>c1156722</title>
<g id="a_node1"><a xlink:href="KNNJoinMaterializeKNNPreprocessor.html" xlink:title="&lt;TABLE&gt;">
<g id="a_node1_0"><a xlink:href="KNNJoinMaterializeKNNPreprocessor.html" xlink:title="de.lmu.ifi.dbs.elki.index.preprocessed.knn.KNNJoinMaterializeKNNPreprocessor" target="_parent">
<polygon fill="none" stroke="#000000" points="605,-297.5 605,-314.5 754,-314.5 754,-297.5 605,-297.5"/>
<text text-anchor="start" x="609" y="-305.1" font-family="Roboto" font-size="8.00" fill="#000000"> </text>
<text text-anchor="start" x="612" y="-305.1" font-family="Roboto" font-size="8.00" fill="#000000">KNNJoinMaterializeKNNPreprocessor</text>
<text text-anchor="start" x="747" y="-305.1" font-family="Roboto" font-size="8.00" fill="#000000"> </text>
</a>
</g>
</a>
</g>
</g>
<!-- c1156723 -->
<g id="node2" class="node">
<title>c1156723</title>
<g id="a_node2"><a xlink:href="KNNJoinMaterializeKNNPreprocessor.Factory.html" xlink:title="&lt;TABLE&gt;">
<g id="a_node2_1"><a xlink:href="KNNJoinMaterializeKNNPreprocessor.Factory.html" xlink:title="de.lmu.ifi.dbs.elki.index.preprocessed.knn.KNNJoinMaterializeKNNPreprocessor.Factory" target="_parent">
<polygon fill="#fffacd" stroke="transparent" points="192,-259.5 192,-287.5 368,-287.5 368,-259.5 192,-259.5"/>
<polygon fill="none" stroke="#000000" points="192,-259.5 192,-287.5 368,-287.5 368,-259.5 192,-259.5"/>
<text text-anchor="start" x="261.5" y="-277.1" font-family="Roboto" font-size="8.00" fill="#000000"> «factory» </text>
<text text-anchor="start" x="196" y="-267.1" font-family="Roboto" font-size="8.00" fill="#000000"> </text>
<text text-anchor="start" x="199" y="-267.1" font-family="Roboto" font-size="8.00" fill="#000000">KNNJoinMaterializeKNNPreprocessor.Factory</text>
<text text-anchor="start" x="361" y="-267.1" font-family="Roboto" font-size="8.00" fill="#000000"> </text>
</a>
</g>
</a>
</g>
</g>
<!-- c1159196 -->
<g id="node13" class="node">
<title>c1159196</title>
<g id="a_node13"><a xlink:href="AbstractMaterializeKNNPreprocessor.html" xlink:title="&lt;TABLE&gt;">
<g id="a_node13_2"><a xlink:href="AbstractMaterializeKNNPreprocessor.html" xlink:title="de.lmu.ifi.dbs.elki.index.preprocessed.knn.AbstractMaterializeKNNPreprocessor" target="_parent">
<polygon fill="#fffacd" stroke="transparent" points="407,-112 407,-129 552,-129 552,-112 407,-112"/>
<polygon fill="none" stroke="#000000" points="407.5,-111.5 407.5,-128.5 552.5,-128.5 552.5,-111.5 407.5,-111.5"/>
<text text-anchor="start" x="411.5" y="-119.1" font-family="Roboto" font-size="8.00" fill="#000000"> </text>
<text text-anchor="start" x="414.5" y="-119.1" font-family="Roboto" font-style="italic" font-size="8.00" fill="#000000">AbstractMaterializeKNNPreprocessor</text>
<text text-anchor="start" x="545.5" y="-119.1" font-family="Roboto" font-size="8.00" fill="#000000"> </text>
</a>
</g>
</a>
</g>
</g>
<!-- c1156723&#45;&gt;c1159196 -->
<g id="edge3" class="edge">
<title>c1156723&#45;&gt;c1159196</title>
<path fill="none" stroke="#000000" d="M358.7905,-259.3629C361.9737,-257.8976 365.0591,-256.2818 368,-254.5 416.3924,-225.1809 453.5701,-167.2178 470.1038,-138.0853"/>
<polygon fill="#000000" stroke="#000000" points="475.0755,-129.0773 474.1831,-140.0068 472.6594,-133.4548 470.2433,-137.8323 470.2433,-137.8323 470.2433,-137.8323 472.6594,-133.4548 466.3036,-135.6579 475.0755,-129.0773 475.0755,-129.0773"/>
<text text-anchor="middle" x="387.5" y="-248.9" font-family="Roboto" font-size="7.00" fill="#000000">create</text>
</g>
<!-- c1157812 -->
<g id="node3" class="node">
<title>c1157812</title>
<g id="a_node3"><a xlink:href="../../KNNIndex.html" xlink:title="&lt;TABLE&gt;">
<g id="a_node3_3"><a xlink:href="../../KNNIndex.html" xlink:title="de.lmu.ifi.dbs.elki.index.KNNIndex" target="_parent">
<polygon fill="#fffacd" stroke="transparent" points="234.5,-101 234.5,-140 325.5,-140 325.5,-101 234.5,-101"/>
<polygon fill="none" stroke="#000000" points="235,-100.5 235,-139.5 326,-139.5 326,-100.5 235,-100.5"/>
<text text-anchor="start" x="259" y="-129.1" font-family="Roboto" font-size="8.00" fill="#000000"> «interface» </text>
<text text-anchor="start" x="259" y="-119.1" font-family="Roboto" font-size="8.00" fill="#000000"> </text>
<text text-anchor="start" x="262" y="-119.1" font-family="Roboto" font-size="8.00" fill="#000000">KNNIndex</text>
<text text-anchor="start" x="299" y="-119.1" font-family="Roboto" font-size="8.00" fill="#000000"> </text>
<text text-anchor="start" x="239" y="-108.1" font-family="Roboto" font-size="8.00" fill="#000000"> </text>
<text text-anchor="start" x="242" y="-108.1" font-family="Roboto" font-size="7.00" fill="#000000">de.lmu.ifi.dbs.elki.index</text>
<text text-anchor="start" x="319" y="-108.1" font-family="Roboto" font-size="8.00" fill="#000000"> </text>
</a>
</g>
</a>
</g>
</g>
<!-- c1157812&#45;&gt;c1159196 -->
<g id="edge14" class="edge">
<title>c1157812&#45;&gt;c1159196</title>
<path fill="none" stroke="#000000" stroke-dasharray="5,2" d="M335.9437,-120.5C357.9692,-120.5 383.5507,-120.5 406.9656,-120.5"/>
<polygon fill="none" stroke="#000000" points="335.7694,-117.0001 325.7693,-120.5 335.7693,-124.0001 335.7694,-117.0001"/>
</g>
<!-- c1157814 -->
<g id="node4" class="node">
<title>c1157814</title>
<g id="a_node4"><a xlink:href="../../../distance/distancefunction/DistanceFunction.html" xlink:title="&lt;TABLE&gt;">
<g id="a_node4_4"><a xlink:href="../../../distance/distancefunction/DistanceFunction.html" xlink:title="de.lmu.ifi.dbs.elki.distance.distancefunction.DistanceFunction" target="_parent">
<polygon fill="#fffacd" stroke="transparent" points="806,-101 806,-140 964,-140 964,-101 806,-101"/>
<polygon fill="none" stroke="#000000" points="806,-100.5 806,-139.5 964,-139.5 964,-100.5 806,-100.5"/>
<text text-anchor="start" x="863.5" y="-129.1" font-family="Roboto" font-size="8.00" fill="#000000"> «interface» </text>
<text text-anchor="start" x="851.5" y="-119.1" font-family="Roboto" font-size="8.00" fill="#000000"> </text>
<text text-anchor="start" x="854.5" y="-119.1" font-family="Roboto" font-size="8.00" fill="#000000">DistanceFunction</text>
<text text-anchor="start" x="915.5" y="-119.1" font-family="Roboto" font-size="8.00" fill="#000000"> </text>
<text text-anchor="start" x="810" y="-108.1" font-family="Roboto" font-size="8.00" fill="#000000"> </text>
<text text-anchor="start" x="813" y="-108.1" font-family="Roboto" font-size="7.00" fill="#000000">de.lmu.ifi.dbs.elki.distance.distancefunction</text>
<text text-anchor="start" x="957" y="-108.1" font-family="Roboto" font-size="8.00" fill="#000000"> </text>
</a>
</g>
</a>
</g>
</g>
<!-- c1157837 -->
<g id="node5" class="node">
<title>c1157837</title>
<g id="a_node5"><a xlink:href="../../../database/query/distance/DistanceQuery.html" xlink:title="&lt;TABLE&gt;">
<g id="a_node5_5"><a xlink:href="../../../database/query/distance/DistanceQuery.html" xlink:title="de.lmu.ifi.dbs.elki.database.query.distance.DistanceQuery" target="_parent">
<polygon fill="#fffacd" stroke="transparent" points="604,-224 604,-263 754,-263 754,-224 604,-224"/>
<polygon fill="none" stroke="#000000" points="604,-223.5 604,-262.5 754,-262.5 754,-223.5 604,-223.5"/>
<text text-anchor="start" x="657.5" y="-252.1" font-family="Roboto" font-size="8.00" fill="#000000"> «interface» </text>
<text text-anchor="start" x="650" y="-242.1" font-family="Roboto" font-size="8.00" fill="#000000"> </text>
<text text-anchor="start" x="653" y="-242.1" font-family="Roboto" font-size="8.00" fill="#000000">DistanceQuery</text>
<text text-anchor="start" x="705" y="-242.1" font-family="Roboto" font-size="8.00" fill="#000000"> </text>
<text text-anchor="start" x="608" y="-231.1" font-family="Roboto" font-size="8.00" fill="#000000"> </text>
<text text-anchor="start" x="611" y="-231.1" font-family="Roboto" font-size="7.00" fill="#000000">de.lmu.ifi.dbs.elki.database.query.distance</text>
<text text-anchor="start" x="747" y="-231.1" font-family="Roboto" font-size="8.00" fill="#000000"> </text>
</a>
</g>
</a>
</g>
</g>
<!-- c1159157 -->
<g id="node6" class="node">
<title>c1159157</title>
<g id="a_node6"><a xlink:href="MetricalIndexApproximationMaterializeKNNPreprocessor.html" xlink:title="&lt;TABLE&gt;">
<g id="a_node6_6"><a xlink:href="MetricalIndexApproximationMaterializeKNNPreprocessor.html" xlink:title="de.lmu.ifi.dbs.elki.index.preprocessed.knn.MetricalIndexApproximationMaterializeKNNPreprocessor" target="_parent">
<polygon fill="none" stroke="#000000" points="571,-195.5 571,-212.5 787,-212.5 787,-195.5 571,-195.5"/>
<text text-anchor="start" x="575" y="-203.1" font-family="Roboto" font-size="8.00" fill="#000000"> </text>
<text text-anchor="start" x="578" y="-203.1" font-family="Roboto" font-size="8.00" fill="#000000">MetricalIndexApproximationMaterializeKNNPreprocessor</text>
<text text-anchor="start" x="780" y="-203.1" font-family="Roboto" font-size="8.00" fill="#000000"> </text>
</a>
</g>
</a>
</g>
</g>
<!-- c1159167 -->
<g id="node7" class="node">
<title>c1159167</title>
<g id="a_node7"><a xlink:href="NNDescent.html" xlink:title="&lt;TABLE&gt;">
<g id="a_node7_7"><a xlink:href="NNDescent.html" xlink:title="de.lmu.ifi.dbs.elki.index.preprocessed.knn.NNDescent" target="_parent">
<polygon fill="none" stroke="#000000" points="652,-167.5 652,-184.5 706,-184.5 706,-167.5 652,-167.5"/>
<text text-anchor="start" x="656" y="-175.1" font-family="Roboto" font-size="8.00" fill="#000000"> </text>
<text text-anchor="start" x="659" y="-175.1" font-family="Roboto" font-size="8.00" fill="#000000">NNDescent</text>
<text text-anchor="start" x="699" y="-175.1" font-family="Roboto" font-size="8.00" fill="#000000"> </text>
</a>
</g>
</a>
</g>
</g>
<!-- c1159175 -->
<g id="node8" class="node">
<title>c1159175</title>
<g id="a_node8"><a xlink:href="PartitionApproximationMaterializeKNNPreprocessor.html" xlink:title="&lt;TABLE&gt;">
<g id="a_node8_8"><a xlink:href="PartitionApproximationMaterializeKNNPreprocessor.html" xlink:title="de.lmu.ifi.dbs.elki.index.preprocessed.knn.PartitionApproximationMaterializeKNNPreprocessor" target="_parent">
<polygon fill="none" stroke="#000000" points="581,-139.5 581,-156.5 778,-156.5 778,-139.5 581,-139.5"/>
<text text-anchor="start" x="585" y="-147.1" font-family="Roboto" font-size="8.00" fill="#000000"> </text>
<text text-anchor="start" x="588" y="-147.1" font-family="Roboto" font-size="8.00" fill="#000000">PartitionApproximationMaterializeKNNPreprocessor</text>
<text text-anchor="start" x="771" y="-147.1" font-family="Roboto" font-size="8.00" fill="#000000"> </text>
</a>
</g>
</a>
</g>
</g>
<!-- c1159178 -->
<g id="node9" class="node">
<title>c1159178</title>
<g id="a_node9"><a xlink:href="MaterializeKNNPreprocessor.html" xlink:title="&lt;TABLE&gt;">
<g id="a_node9_9"><a xlink:href="MaterializeKNNPreprocessor.html" xlink:title="de.lmu.ifi.dbs.elki.index.preprocessed.knn.MaterializeKNNPreprocessor" target="_parent">
<polygon fill="none" stroke="#000000" points="621,-111.5 621,-128.5 738,-128.5 738,-111.5 621,-111.5"/>
<text text-anchor="start" x="625" y="-119.1" font-family="Roboto" font-size="8.00" fill="#000000"> </text>
<text text-anchor="start" x="628" y="-119.1" font-family="Roboto" font-size="8.00" fill="#000000">MaterializeKNNPreprocessor</text>
<text text-anchor="start" x="731" y="-119.1" font-family="Roboto" font-size="8.00" fill="#000000"> </text>
</a>
</g>
</a>
</g>
</g>
<!-- c1159178&#45;&gt;c1157814 -->
<g id="edge8" class="edge">
<title>c1159178&#45;&gt;c1157814</title>
<path fill="none" stroke="#000000" d="M749.9564,-120.5C767.9591,-120.5 787.4124,-120.5 805.7958,-120.5"/>
<polygon fill="none" stroke="#000000" points="749.7556,-120.5001 743.7556,-124.5 737.7556,-120.5 743.7557,-116.5 749.7556,-120.5001"/>
</g>
<!-- c1159181 -->
<g id="node10" class="node">
<title>c1159181</title>
<g id="a_node10"><a xlink:href="RandomSampleKNNPreprocessor.html" xlink:title="&lt;TABLE&gt;">
<g id="a_node10_10"><a xlink:href="RandomSampleKNNPreprocessor.html" xlink:title="de.lmu.ifi.dbs.elki.index.preprocessed.knn.RandomSampleKNNPreprocessor" target="_parent">
<polygon fill="none" stroke="#000000" points="613,-83.5 613,-100.5 745,-100.5 745,-83.5 613,-83.5"/>
<text text-anchor="start" x="617" y="-91.1" font-family="Roboto" font-size="8.00" fill="#000000"> </text>
<text text-anchor="start" x="620" y="-91.1" font-family="Roboto" font-size="8.00" fill="#000000">RandomSampleKNNPreprocessor</text>
<text text-anchor="start" x="738" y="-91.1" font-family="Roboto" font-size="8.00" fill="#000000"> </text>
</a>
</g>
</a>
</g>
</g>
<!-- c1159182 -->
<g id="node11" class="node">
<title>c1159182</title>
<g id="a_node11"><a xlink:href="RandomSampleKNNPreprocessor.Factory.html" xlink:title="&lt;TABLE&gt;">
<g id="a_node11_11"><a xlink:href="RandomSampleKNNPreprocessor.Factory.html" xlink:title="de.lmu.ifi.dbs.elki.index.preprocessed.knn.RandomSampleKNNPreprocessor.Factory" target="_parent">
<polygon fill="#fffacd" stroke="transparent" points="200.5,-181.5 200.5,-209.5 359.5,-209.5 359.5,-181.5 200.5,-181.5"/>
<polygon fill="none" stroke="#000000" points="201,-181.5 201,-209.5 360,-209.5 360,-181.5 201,-181.5"/>
<text text-anchor="start" x="262" y="-199.1" font-family="Roboto" font-size="8.00" fill="#000000"> «factory» </text>
<text text-anchor="start" x="205" y="-189.1" font-family="Roboto" font-size="8.00" fill="#000000"> </text>
<text text-anchor="start" x="208" y="-189.1" font-family="Roboto" font-size="8.00" fill="#000000">RandomSampleKNNPreprocessor.Factory</text>
<text text-anchor="start" x="353" y="-189.1" font-family="Roboto" font-size="8.00" fill="#000000"> </text>
</a>
</g>
</a>
</g>
</g>
<!-- c1159182&#45;&gt;c1159196 -->
<g id="edge11" class="edge">
<title>c1159182&#45;&gt;c1159196</title>
<path fill="none" stroke="#000000" d="M359.8123,-182.4759C372.8012,-179.2567 385.9406,-175.3101 398,-170.5 420.5557,-161.5032 443.9463,-146.4614 459.8522,-135.2212"/>
<polygon fill="#000000" stroke="#000000" points="468.2895,-129.1169 462.8254,-138.6245 464.2386,-132.0478 460.1876,-134.9786 460.1876,-134.9786 460.1876,-134.9786 464.2386,-132.0478 457.5498,-131.3327 468.2895,-129.1169 468.2895,-129.1169"/>
<text text-anchor="middle" x="387.5" y="-178.9" font-family="Roboto" font-size="7.00" fill="#000000">create</text>
</g>
<!-- c1159184 -->
<g id="node12" class="node">
<title>c1159184</title>
<g id="a_node12"><a xlink:href="SpacefillingMaterializeKNNPreprocessor.html" xlink:title="&lt;TABLE&gt;">
<g id="a_node12_12"><a xlink:href="SpacefillingMaterializeKNNPreprocessor.html" xlink:title="de.lmu.ifi.dbs.elki.index.preprocessed.knn.SpacefillingMaterializeKNNPreprocessor" target="_parent">
<polygon fill="none" stroke="#000000" points="600,-55.5 600,-72.5 758,-72.5 758,-55.5 600,-55.5"/>
<text text-anchor="start" x="604" y="-63.1" font-family="Roboto" font-size="8.00" fill="#000000"> </text>
<text text-anchor="start" x="607" y="-63.1" font-family="Roboto" font-size="8.00" fill="#000000">SpacefillingMaterializeKNNPreprocessor</text>
<text text-anchor="start" x="751" y="-63.1" font-family="Roboto" font-size="8.00" fill="#000000"> </text>
</a>
</g>
</a>
</g>
</g>
<!-- c1159196&#45;&gt;c1156722 -->
<g id="edge1" class="edge">
<title>c1159196&#45;&gt;c1156722</title>
<path fill="none" stroke="#000000" d="M482.7169,-139.2145C489.8687,-174.6598 510.6128,-251.3552 561,-288.5 573.5104,-297.7225 588.8185,-303.0861 604.2112,-306.0604"/>
<polygon fill="none" stroke="#000000" points="486.1334,-138.4429 480.8522,-129.2581 479.253,-139.7316 486.1334,-138.4429"/>
</g>
<!-- c1159196&#45;&gt;c1157814 -->
<g id="edge18" class="edge">
<title>c1159196&#45;&gt;c1157814</title>
<path fill="none" stroke="#000000" d="M481.7225,-129.3499C489.0214,-156.2841 515.062,-237.3181 571,-268.5 612.926,-291.8711 744.7151,-291.2153 787,-268.5 833.5757,-243.4797 861.7388,-185.5237 875.2499,-150.0146"/>
<polygon fill="#000000" stroke="#000000" points="878.8264,-140.2085 879.6275,-151.1451 877.1131,-144.9059 875.3999,-149.6032 875.3999,-149.6032 875.3999,-149.6032 877.1131,-144.9059 871.1723,-148.0613 878.8264,-140.2085 878.8264,-140.2085"/>
</g>
<!-- c1159196&#45;&gt;c1157837 -->
<g id="edge19" class="edge">
<title>c1159196&#45;&gt;c1157837</title>
<path fill="none" stroke="#000000" d="M484.9319,-129.1753C497.514,-148.5022 530.6826,-195.2237 571,-218.5 578.2478,-222.6843 586.1494,-226.1685 594.2737,-229.0695"/>
<polygon fill="#000000" stroke="#000000" points="603.8872,-232.2144 592.9837,-233.3822 599.135,-230.6598 594.3828,-229.1052 594.3828,-229.1052 594.3828,-229.1052 599.135,-230.6598 595.782,-224.8282 603.8872,-232.2144 603.8872,-232.2144"/>
</g>
<!-- c1159196&#45;&gt;c1159157 -->
<g id="edge4" class="edge">
<title>c1159196&#45;&gt;c1159157</title>
<path fill="none" stroke="#000000" d="M494.9317,-136.4979C511.9058,-153.008 540.8067,-178.0543 571,-190.5 576.0692,-192.5895 581.3759,-194.3853 586.8011,-195.9271"/>
<polygon fill="none" stroke="#000000" points="497.15,-133.7665 487.6036,-129.1713 492.2008,-138.7168 497.15,-133.7665"/>
</g>
<!-- c1159196&#45;&gt;c1159167 -->
<g id="edge5" class="edge">
<title>c1159196&#45;&gt;c1159167</title>
<path fill="none" stroke="#000000" d="M503.6771,-134.0434C521.6905,-143.5195 547.1858,-155.662 571,-162.5 597.8954,-170.2228 629.7897,-173.6953 651.9136,-175.2507"/>
<polygon fill="none" stroke="#000000" points="504.9621,-130.7603 494.4975,-129.1038 501.645,-136.9245 504.9621,-130.7603"/>
</g>
<!-- c1159196&#45;&gt;c1159175 -->
<g id="edge6" class="edge">
<title>c1159196&#45;&gt;c1159175</title>
<path fill="none" stroke="#000000" d="M544.2103,-130.5897C553.2037,-131.9369 562.3291,-133.2748 571,-134.5 584.011,-136.3384 597.9175,-138.2105 611.2742,-139.9625"/>
<polygon fill="none" stroke="#000000" points="544.5541,-127.102 534.1437,-129.0703 543.5093,-134.0236 544.5541,-127.102"/>
</g>
<!-- c1159196&#45;&gt;c1159178 -->
<g id="edge7" class="edge">
<title>c1159196&#45;&gt;c1159178</title>
<path fill="none" stroke="#000000" d="M562.1748,-120.5C581.6501,-120.5 602.0205,-120.5 620.1962,-120.5"/>
<polygon fill="none" stroke="#000000" points="562.0885,-117.0001 552.0884,-120.5 562.0884,-124.0001 562.0885,-117.0001"/>
</g>
<!-- c1159196&#45;&gt;c1159181 -->
<g id="edge9" class="edge">
<title>c1159196&#45;&gt;c1159181</title>
<path fill="none" stroke="#000000" d="M544.2103,-110.4103C553.2037,-109.0631 562.3291,-107.7252 571,-106.5 584.4791,-104.5954 598.9191,-102.6548 612.7134,-100.8489"/>
<polygon fill="none" stroke="#000000" points="543.5093,-106.9764 534.1437,-111.9297 544.5541,-113.898 543.5093,-106.9764"/>
</g>
<!-- c1159196&#45;&gt;c1159184 -->
<g id="edge12" class="edge">
<title>c1159196&#45;&gt;c1159184</title>
<path fill="none" stroke="#000000" d="M503.6771,-106.9566C521.6905,-97.4805 547.1858,-85.338 571,-78.5 580.268,-75.8388 590.1296,-73.6822 599.9805,-71.9349"/>
<polygon fill="none" stroke="#000000" points="501.645,-104.0755 494.4975,-111.8962 504.9621,-110.2397 501.645,-104.0755"/>
</g>
<!-- c1159313 -->
<g id="node17" class="node">
<title>c1159313</title>
<g id="a_node17"><a xlink:href="SpatialApproximationMaterializeKNNPreprocessor.html" xlink:title="&lt;TABLE&gt;">
<g id="a_node17_13"><a xlink:href="SpatialApproximationMaterializeKNNPreprocessor.html" xlink:title="de.lmu.ifi.dbs.elki.index.preprocessed.knn.SpatialApproximationMaterializeKNNPreprocessor" target="_parent">
<polygon fill="none" stroke="#000000" points="583,-27.5 583,-44.5 775,-44.5 775,-27.5 583,-27.5"/>
<text text-anchor="start" x="587" y="-35.1" font-family="Roboto" font-size="8.00" fill="#000000"> </text>
<text text-anchor="start" x="590" y="-35.1" font-family="Roboto" font-size="8.00" fill="#000000">SpatialApproximationMaterializeKNNPreprocessor</text>
<text text-anchor="start" x="768" y="-35.1" font-family="Roboto" font-size="8.00" fill="#000000"> </text>
</a>
</g>
</a>
</g>
</g>
<!-- c1159196&#45;&gt;c1159313 -->
<g id="edge16" class="edge">
<title>c1159196&#45;&gt;c1159313</title>
<path fill="none" stroke="#000000" d="M494.9317,-104.5021C511.9058,-87.992 540.8067,-62.9457 571,-50.5 576.0692,-48.4105 581.3759,-46.6147 586.8011,-45.0729"/>
<polygon fill="none" stroke="#000000" points="492.2008,-102.2832 487.6036,-111.8287 497.15,-107.2335 492.2008,-102.2832"/>
</g>
<!-- c1159815 -->
<g id="node18" class="node">
<title>c1159815</title>
<g id="a_node18"><a xlink:href="CachedDoubleDistanceKNNPreprocessor.html" xlink:title="&lt;TABLE&gt;">
<g id="a_node18_14"><a xlink:href="CachedDoubleDistanceKNNPreprocessor.html" xlink:title="de.lmu.ifi.dbs.elki.index.preprocessed.knn.CachedDoubleDistanceKNNPreprocessor" target="_parent">
<polygon fill="none" stroke="#000000" points="600,.5 600,-16.5 758,-16.5 758,.5 600,.5"/>
<text text-anchor="start" x="604" y="-7.1" font-family="Roboto" font-size="8.00" fill="#000000"> </text>
<text text-anchor="start" x="607" y="-7.1" font-family="Roboto" font-size="8.00" fill="#000000">CachedDoubleDistanceKNNPreprocessor</text>
<text text-anchor="start" x="751" y="-7.1" font-family="Roboto" font-size="8.00" fill="#000000"> </text>
</a>
</g>
</a>
</g>
</g>
<!-- c1159196&#45;&gt;c1159815 -->
<g id="edge17" class="edge">
<title>c1159196&#45;&gt;c1159815</title>
<path fill="none" stroke="#000000" d="M490.0764,-103.2036C505.0157,-80.4585 534.5806,-41.1972 571,-22.5 579.9145,-17.9234 589.7669,-14.6418 599.7868,-12.315"/>
<polygon fill="none" stroke="#000000" points="487.0025,-101.5152 484.592,-111.8322 492.9101,-105.2702 487.0025,-101.5152"/>
</g>
<!-- c1159197 -->
<g id="node14" class="node">
<title>c1159197</title>
<g id="a_node14"><a xlink:href="AbstractMaterializeKNNPreprocessor.Factory.html" xlink:title="&lt;TABLE&gt;">
<g id="a_node14_15"><a xlink:href="AbstractMaterializeKNNPreprocessor.Factory.html" xlink:title="de.lmu.ifi.dbs.elki.index.preprocessed.knn.AbstractMaterializeKNNPreprocessor.Factory" target="_parent">
<polygon fill="#fffacd" stroke="transparent" points="0,-230.5 0,-258.5 173,-258.5 173,-230.5 0,-230.5"/>
<polygon fill="none" stroke="#000000" points=".5,-230.5 .5,-258.5 173.5,-258.5 173.5,-230.5 .5,-230.5"/>
<text text-anchor="start" x="68.5" y="-248.1" font-family="Roboto" font-size="8.00" fill="#000000"> «factory» </text>
<text text-anchor="start" x="4.5" y="-238.1" font-family="Roboto" font-size="8.00" fill="#000000"> </text>
<text text-anchor="start" x="7.5" y="-238.1" font-family="Roboto" font-style="italic" font-size="8.00" fill="#000000">AbstractMaterializeKNNPreprocessor.Factory</text>
<text text-anchor="start" x="166.5" y="-238.1" font-family="Roboto" font-size="8.00" fill="#000000"> </text>
</a>
</g>
</a>
</g>
</g>
<!-- c1159197&#45;&gt;c1156723 -->
<g id="edge2" class="edge">
<title>c1159197&#45;&gt;c1156723</title>
<path fill="none" stroke="#000000" d="M183.0384,-258.9683C185.9773,-259.4087 188.9166,-259.8493 191.8452,-260.2882"/>
<polygon fill="none" stroke="#000000" points="183.4711,-255.4941 173.0627,-257.4732 182.4335,-262.4168 183.4711,-255.4941"/>
</g>
<!-- c1159197&#45;&gt;c1157814 -->
<g id="edge20" class="edge">
<title>c1159197&#45;&gt;c1157814</title>
<path fill="none" stroke="#000000" d="M103.9564,-258.6387C136.4925,-283.5143 209.5122,-332.5 280,-332.5 280,-332.5 280,-332.5 679,-332.5 727.2954,-332.5 747.4957,-348.2823 787,-320.5 844.8296,-279.83 870.044,-195.2315 879.7325,-150.2007"/>
<polygon fill="#000000" stroke="#000000" points="881.7721,-140.1764 884.1879,-150.8729 880.7752,-145.076 879.7782,-149.9756 879.7782,-149.9756 879.7782,-149.9756 880.7752,-145.076 875.3686,-149.0784 881.7721,-140.1764 881.7721,-140.1764"/>
</g>
<!-- c1159197&#45;&gt;c1159182 -->
<g id="edge10" class="edge">
<title>c1159197&#45;&gt;c1159182</title>
<path fill="none" stroke="#000000" d="M145.5059,-227.7791C160.6262,-223.6324 176.8865,-219.2926 192,-215.5 199.902,-213.517 208.2247,-211.5145 216.4711,-209.582"/>
<polygon fill="none" stroke="#000000" points="144.4668,-224.435 135.7578,-230.4686 146.3285,-231.1829 144.4668,-224.435"/>
</g>
<!-- c1159197&#45;&gt;c1159196 -->
<g id="edge15" class="edge">
<title>c1159197&#45;&gt;c1159196</title>
<path fill="none" stroke="#000000" d="M101.1287,-230.2484C120.2766,-212.5325 155.6917,-182.8804 192,-168.5 265.3442,-139.451 290.3211,-159.2548 368,-145.5 390.2257,-141.5644 414.7198,-136.1889 435.0758,-131.4308"/>
<polygon fill="#000000" stroke="#000000" points="445.0079,-129.0819 436.312,-135.7626 440.1421,-130.2326 435.2763,-131.3834 435.2763,-131.3834 435.2763,-131.3834 440.1421,-130.2326 434.2406,-127.0042 445.0079,-129.0819 445.0079,-129.0819"/>
<text text-anchor="middle" x="280" y="-170.9" font-family="Roboto" font-size="7.00" fill="#000000">create</text>
</g>
<!-- c1159204 -->
<g id="node15" class="node">
<title>c1159204</title>
<g id="a_node15"><a xlink:href="../AbstractPreprocessorIndex.html" xlink:title="&lt;TABLE&gt;">
<g id="a_node15_16"><a xlink:href="../AbstractPreprocessorIndex.html" xlink:title="de.lmu.ifi.dbs.elki.index.preprocessed.AbstractPreprocessorIndex" target="_parent">
<polygon fill="none" stroke="#000000" points="212,-61.5 212,-89.5 348,-89.5 348,-61.5 212,-61.5"/>
<text text-anchor="start" x="229.5" y="-80.1" font-family="Roboto" font-size="8.00" fill="#000000"> </text>
<text text-anchor="start" x="232.5" y="-80.1" font-family="Roboto" font-style="italic" font-size="8.00" fill="#000000">AbstractPreprocessorIndex</text>
<text text-anchor="start" x="327.5" y="-80.1" font-family="Roboto" font-size="8.00" fill="#000000"> </text>
<text text-anchor="start" x="216" y="-69.1" font-family="Roboto" font-size="8.00" fill="#000000"> </text>
<text text-anchor="start" x="219" y="-69.1" font-family="Roboto" font-size="7.00" fill="#000000">de.lmu.ifi.dbs.elki.index.preprocessed</text>
<text text-anchor="start" x="341" y="-69.1" font-family="Roboto" font-size="8.00" fill="#000000"> </text>
</a>
</g>
</a>
</g>
</g>
<!-- c1159204&#45;&gt;c1159196 -->
<g id="edge13" class="edge">
<title>c1159204&#45;&gt;c1159196</title>
<path fill="none" stroke="#000000" d="M352.4053,-91.832C382.6595,-98.6563 416.5506,-106.3009 441.7222,-111.9787"/>
<polygon fill="none" stroke="#000000" points="352.8275,-88.3394 342.3024,-89.5532 351.2872,-95.1678 352.8275,-88.3394"/>
</g>
<!-- c1159214 -->
<g id="node16" class="node">
<title>c1159214</title>
<g id="a_node16"><a xlink:href="../../../database/query/knn/PreprocessorKNNQuery.html" xlink:title="&lt;TABLE&gt;">
<g id="a_node16_17"><a xlink:href="../../../database/query/knn/PreprocessorKNNQuery.html" xlink:title="de.lmu.ifi.dbs.elki.database.query.knn.PreprocessorKNNQuery" target="_parent">
<polygon fill="none" stroke="#000000" points="213,-220.5 213,-248.5 348,-248.5 348,-220.5 213,-220.5"/>
<text text-anchor="start" x="236" y="-239.1" font-family="Roboto" font-size="8.00" fill="#000000"> </text>
<text text-anchor="start" x="239" y="-239.1" font-family="Roboto" font-size="8.00" fill="#000000">PreprocessorKNNQuery</text>
<text text-anchor="start" x="322" y="-239.1" font-family="Roboto" font-size="8.00" fill="#000000"> </text>
<text text-anchor="start" x="217" y="-228.1" font-family="Roboto" font-size="8.00" fill="#000000"> </text>
<text text-anchor="start" x="220" y="-228.1" font-family="Roboto" font-size="7.00" fill="#000000">de.lmu.ifi.dbs.elki.database.query.knn</text>
<text text-anchor="start" x="341" y="-228.1" font-family="Roboto" font-size="8.00" fill="#000000"> </text>
</a>
</g>
</a>
</g>
</g>
<!-- c1159214&#45;&gt;c1159196 -->
<g id="edge21" class="edge">
<title>c1159214&#45;&gt;c1159196</title>
<path fill="none" stroke="#000000" d="M347.949,-223.4076C354.8876,-221.2255 361.695,-218.6171 368,-215.5 408.0499,-195.6995 445.6409,-158.3361 465.2869,-136.8396"/>
<polygon fill="#000000" stroke="#000000" points="472.1257,-129.196 468.8114,-139.6491 468.7917,-132.9223 465.4578,-136.6486 465.4578,-136.6486 465.4578,-136.6486 468.7917,-132.9223 462.1041,-133.648 472.1257,-129.196 472.1257,-129.196"/>
</g>
</g>
</svg>
