<?xml version="1.0" encoding="UTF-8" standalone="no"?>
<!DOCTYPE svg PUBLIC "-//W3C//DTD SVG 1.1//EN"
 "http://www.w3.org/Graphics/SVG/1.1/DTD/svg11.dtd">
<!-- Generated by graphviz version 2.40.1 (20161225.0304)
 -->
<!-- Title: G Pages: 1 -->
<svg width="904pt" height="149pt"
 viewBox="0.00 0.00 904.00 149.00" xmlns="http://www.w3.org/2000/svg" xmlns:xlink="http://www.w3.org/1999/xlink">
<g id="graph0" class="graph" transform="scale(1 1) rotate(0) translate(4 145)">
<title>G</title>
<polygon fill="#ffffff" stroke="transparent" points="-4,4 -4,-145 900,-145 900,4 -4,4"/>
<!-- c6900243 -->
<g id="node1" class="node">
<title>c6900243</title>
<g id="a_node1"><a xlink:href="../../../data/NumberVector.html" xlink:title="&lt;TABLE&gt;">
<g id="a_node1_0"><a xlink:href="../../../data/NumberVector.html" xlink:title="de.lmu.ifi.dbs.elki.data.NumberVector" target="_parent">
<polygon fill="#fffacd" stroke="transparent" points="761,-102 761,-141 848,-141 848,-102 761,-102"/>
<polygon fill="none" stroke="#000000" points="761.5,-101.5 761.5,-140.5 848.5,-140.5 848.5,-101.5 761.5,-101.5"/>
<text text-anchor="start" x="783.5" y="-130.1" font-family="Roboto" font-size="8.00" fill="#000000"> «interface» </text>
<text text-anchor="start" x="776.5" y="-120.1" font-family="Roboto" font-size="8.00" fill="#000000"> </text>
<text text-anchor="start" x="779.5" y="-120.1" font-family="Roboto" font-size="8.00" fill="#000000">NumberVector</text>
<text text-anchor="start" x="830.5" y="-120.1" font-family="Roboto" font-size="8.00" fill="#000000"> </text>
<text text-anchor="start" x="765.5" y="-109.1" font-family="Roboto" font-size="8.00" fill="#000000"> </text>
<text text-anchor="start" x="768.5" y="-109.1" font-family="Roboto" font-size="7.00" fill="#000000">de.lmu.ifi.dbs.elki.data</text>
<text text-anchor="start" x="841.5" y="-109.1" font-family="Roboto" font-size="8.00" fill="#000000"> </text>
</a>
</g>
</a>
</g>
</g>
<!-- c6901408 -->
<g id="node2" class="node">
<title>c6901408</title>
<g id="a_node2"><a xlink:href="../../tree/Node.html" xlink:title="&lt;TABLE&gt;">
<g id="a_node2_1"><a xlink:href="../../tree/Node.html" xlink:title="de.lmu.ifi.dbs.elki.index.tree.Node" target="_parent">
<polygon fill="none" stroke="#000000" points="752.5,-51.5 752.5,-90.5 857.5,-90.5 857.5,-51.5 752.5,-51.5"/>
<text text-anchor="start" x="783.5" y="-80.1" font-family="Roboto" font-size="8.00" fill="#000000"> «interface» </text>
<text text-anchor="start" x="792.5" y="-70.1" font-family="Roboto" font-size="8.00" fill="#000000"> </text>
<text text-anchor="start" x="795.5" y="-70.1" font-family="Roboto" font-size="8.00" fill="#000000">Node</text>
<text text-anchor="start" x="814.5" y="-70.1" font-family="Roboto" font-size="8.00" fill="#000000"> </text>
<text text-anchor="start" x="756.5" y="-59.1" font-family="Roboto" font-size="8.00" fill="#000000"> </text>
<text text-anchor="start" x="759.5" y="-59.1" font-family="Roboto" font-size="7.00" fill="#000000">de.lmu.ifi.dbs.elki.index.tree</text>
<text text-anchor="start" x="850.5" y="-59.1" font-family="Roboto" font-size="8.00" fill="#000000"> </text>
</a>
</g>
</a>
</g>
</g>
<!-- c6901443 -->
<g id="node3" class="node">
<title>c6901443</title>
<g id="a_node3"><a xlink:href="../../tree/metrical/mtreevariants/MTreeEntry.html" xlink:title="&lt;TABLE&gt;">
<g id="a_node3_2"><a xlink:href="../../tree/metrical/mtreevariants/MTreeEntry.html" xlink:title="de.lmu.ifi.dbs.elki.index.tree.metrical.mtreevariants.MTreeEntry" target="_parent">
<polygon fill="none" stroke="#000000" points="713.5,.5 713.5,-38.5 896.5,-38.5 896.5,.5 713.5,.5"/>
<text text-anchor="start" x="783.5" y="-28.1" font-family="Roboto" font-size="8.00" fill="#000000"> «interface» </text>
<text text-anchor="start" x="781" y="-18.1" font-family="Roboto" font-size="8.00" fill="#000000"> </text>
<text text-anchor="start" x="784" y="-18.1" font-family="Roboto" font-size="8.00" fill="#000000">MTreeEntry</text>
<text text-anchor="start" x="826" y="-18.1" font-family="Roboto" font-size="8.00" fill="#000000"> </text>
<text text-anchor="start" x="717.5" y="-7.1" font-family="Roboto" font-size="8.00" fill="#000000"> </text>
<text text-anchor="start" x="720.5" y="-7.1" font-family="Roboto" font-size="7.00" fill="#000000">de.lmu.ifi.dbs.elki.index.tree.metrical.mtreevariants</text>
<text text-anchor="start" x="889.5" y="-7.1" font-family="Roboto" font-size="8.00" fill="#000000"> </text>
</a>
</g>
</a>
</g>
</g>
<!-- c6901524 -->
<g id="node4" class="node">
<title>c6901524</title>
<g id="a_node4"><a xlink:href="MetricalIndexApproximationMaterializeKNNPreprocessor.html" xlink:title="&lt;TABLE&gt;">
<g id="a_node4_3"><a xlink:href="MetricalIndexApproximationMaterializeKNNPreprocessor.html" xlink:title="de.lmu.ifi.dbs.elki.index.preprocessed.knn.MetricalIndexApproximationMaterializeKNNPreprocessor" target="_parent">
<polygon fill="none" stroke="#000000" points="478,-70.5 478,-87.5 694,-87.5 694,-70.5 478,-70.5"/>
<text text-anchor="start" x="482" y="-78.1" font-family="Roboto" font-size="8.00" fill="#000000"> </text>
<text text-anchor="start" x="485" y="-78.1" font-family="Roboto" font-size="8.00" fill="#000000">MetricalIndexApproximationMaterializeKNNPreprocessor</text>
<text text-anchor="start" x="687" y="-78.1" font-family="Roboto" font-size="8.00" fill="#000000"> </text>
</a>
</g>
</a>
</g>
</g>
<!-- c6901524&#45;&gt;c6900243 -->
<g id="edge4" class="edge">
<title>c6901524&#45;&gt;c6900243</title>
<path fill="none" stroke="#000000" stroke-dasharray="5,2" d="M630.4801,-88.05C665.2668,-94.7366 713.7654,-104.059 750.7295,-111.1642"/>
<polygon fill="#000000" stroke="#000000" points="760.8284,-113.1055 750.1587,-115.6368 755.9183,-112.1616 751.0081,-111.2177 751.0081,-111.2177 751.0081,-111.2177 755.9183,-112.1616 751.8576,-106.7986 760.8284,-113.1055 760.8284,-113.1055"/>
</g>
<!-- c6901524&#45;&gt;c6901408 -->
<g id="edge5" class="edge">
<title>c6901524&#45;&gt;c6901408</title>
<path fill="none" stroke="#000000" stroke-dasharray="5,2" d="M694.2898,-75.5352C710.5944,-74.9382 726.9274,-74.3402 741.8363,-73.7943"/>
<polygon fill="#000000" stroke="#000000" points="751.9124,-73.4254 742.0838,-78.2884 746.9157,-73.6084 741.9191,-73.7914 741.9191,-73.7914 741.9191,-73.7914 746.9157,-73.6084 741.7544,-69.2944 751.9124,-73.4254 751.9124,-73.4254"/>
</g>
<!-- c6901524&#45;&gt;c6901443 -->
<g id="edge3" class="edge">
<title>c6901524&#45;&gt;c6901443</title>
<path fill="none" stroke="#000000" stroke-dasharray="5,2" d="M617.3057,-70.9035C644.928,-63.3184 686.421,-51.9244 723.3279,-41.7898"/>
<polygon fill="#000000" stroke="#000000" points="733.099,-39.1067 724.6476,-46.0941 728.2775,-40.4307 723.456,-41.7547 723.456,-41.7547 723.456,-41.7547 728.2775,-40.4307 722.2644,-37.4153 733.099,-39.1067 733.099,-39.1067"/>
</g>
<!-- c6901525 -->
<g id="node5" class="node">
<title>c6901525</title>
<g id="a_node5"><a xlink:href="MetricalIndexApproximationMaterializeKNNPreprocessor.Factory.html" xlink:title="&lt;TABLE&gt;">
<g id="a_node5_4"><a xlink:href="MetricalIndexApproximationMaterializeKNNPreprocessor.Factory.html" xlink:title="de.lmu.ifi.dbs.elki.index.preprocessed.knn.MetricalIndexApproximationMaterializeKNNPreprocessor.Factory" target="_parent">
<polygon fill="#fffacd" stroke="transparent" points="192,-65.5 192,-93.5 435,-93.5 435,-65.5 192,-65.5"/>
<polygon fill="none" stroke="#000000" points="192.5,-65.5 192.5,-93.5 435.5,-93.5 435.5,-65.5 192.5,-65.5"/>
<text text-anchor="start" x="295.5" y="-83.1" font-family="Roboto" font-size="8.00" fill="#000000"> «factory» </text>
<text text-anchor="start" x="196.5" y="-73.1" font-family="Roboto" font-size="8.00" fill="#000000"> </text>
<text text-anchor="start" x="199.5" y="-73.1" font-family="Roboto" font-size="8.00" fill="#000000">MetricalIndexApproximationMaterializeKNNPreprocessor.Factory</text>
<text text-anchor="start" x="428.5" y="-73.1" font-family="Roboto" font-size="8.00" fill="#000000"> </text>
</a>
</g>
</a>
</g>
</g>
<!-- c6901525&#45;&gt;c6900243 -->
<g id="edge8" class="edge">
<title>c6901525&#45;&gt;c6900243</title>
<path fill="none" stroke="#000000" stroke-dasharray="5,2" d="M435.1861,-89.909C536.2237,-98.5517 675.1622,-110.4365 750.5468,-116.8849"/>
<polygon fill="#000000" stroke="#000000" points="760.7515,-117.7578 750.4043,-121.389 755.7697,-117.3316 750.7879,-116.9054 750.7879,-116.9054 750.7879,-116.9054 755.7697,-117.3316 751.1714,-112.4218 760.7515,-117.7578 760.7515,-117.7578"/>
</g>
<!-- c6901525&#45;&gt;c6901408 -->
<g id="edge6" class="edge">
<title>c6901525&#45;&gt;c6901408</title>
<path fill="none" stroke="#000000" stroke-dasharray="5,2" d="M435.1502,-67.9798C449.5808,-66.9588 464.1113,-66.0899 478,-65.5 573.9135,-61.4259 598.0353,-62.8965 694,-65.5 709.518,-65.921 726.2483,-66.674 741.8797,-67.5074"/>
<polygon fill="#000000" stroke="#000000" points="751.9692,-68.064 741.7365,-72.0062 746.9768,-67.7886 741.9844,-67.5131 741.9844,-67.5131 741.9844,-67.5131 746.9768,-67.7886 742.2324,-63.0199 751.9692,-68.064 751.9692,-68.064"/>
</g>
<!-- c6901525&#45;&gt;c6901443 -->
<g id="edge7" class="edge">
<title>c6901525&#45;&gt;c6901443</title>
<path fill="none" stroke="#000000" stroke-dasharray="5,2" d="M428.3077,-65.4705C511.4742,-55.3076 622.8846,-41.6933 702.8437,-31.9224"/>
<polygon fill="#000000" stroke="#000000" points="712.926,-30.6903 703.5457,-36.3701 707.9629,-31.2968 702.9998,-31.9034 702.9998,-31.9034 702.9998,-31.9034 707.9629,-31.2968 702.4539,-27.4366 712.926,-30.6903 712.926,-30.6903"/>
</g>
<!-- c6901525&#45;&gt;c6901524 -->
<g id="edge2" class="edge">
<title>c6901525&#45;&gt;c6901524</title>
<path fill="none" stroke="#000000" d="M435.0064,-79.5C445.7618,-79.5 456.6412,-79.5 467.3723,-79.5"/>
<polygon fill="#000000" stroke="#000000" points="477.6065,-79.5 467.6066,-84.0001 472.6065,-79.5 467.6065,-79.5001 467.6065,-79.5001 467.6065,-79.5001 472.6065,-79.5 467.6065,-75.0001 477.6065,-79.5 477.6065,-79.5"/>
<text text-anchor="middle" x="456.5" y="-81.9" font-family="Roboto" font-size="7.00" fill="#000000">creates</text>
</g>
<!-- c6901564 -->
<g id="node6" class="node">
<title>c6901564</title>
<g id="a_node6"><a xlink:href="AbstractMaterializeKNNPreprocessor.Factory.html" xlink:title="&lt;TABLE&gt;">
<g id="a_node6_5"><a xlink:href="AbstractMaterializeKNNPreprocessor.Factory.html" xlink:title="de.lmu.ifi.dbs.elki.index.preprocessed.knn.AbstractMaterializeKNNPreprocessor.Factory" target="_parent">
<polygon fill="#fffacd" stroke="transparent" points="0,-65.5 0,-93.5 173,-93.5 173,-65.5 0,-65.5"/>
<polygon fill="none" stroke="#000000" points=".5,-65.5 .5,-93.5 173.5,-93.5 173.5,-65.5 .5,-65.5"/>
<text text-anchor="start" x="68.5" y="-83.1" font-family="Roboto" font-size="8.00" fill="#000000"> «factory» </text>
<text text-anchor="start" x="4.5" y="-73.1" font-family="Roboto" font-size="8.00" fill="#000000"> </text>
<text text-anchor="start" x="7.5" y="-73.1" font-family="Roboto" font-style="italic" font-size="8.00" fill="#000000">AbstractMaterializeKNNPreprocessor.Factory</text>
<text text-anchor="start" x="166.5" y="-73.1" font-family="Roboto" font-size="8.00" fill="#000000"> </text>
</a>
</g>
</a>
</g>
</g>
<!-- c6901564&#45;&gt;c6901525 -->
<g id="edge1" class="edge">
<title>c6901564&#45;&gt;c6901525</title>
<path fill="none" stroke="#000000" d="M183.4388,-79.5C186.262,-79.5 189.0991,-79.5 191.9431,-79.5"/>
<polygon fill="none" stroke="#000000" points="183.2907,-76.0001 173.2906,-79.5 183.2906,-83.0001 183.2907,-76.0001"/>
</g>
</g>
</svg>
