<?xml version="1.0" encoding="UTF-8" standalone="no"?>
<!DOCTYPE svg PUBLIC "-//W3C//DTD SVG 1.1//EN"
 "http://www.w3.org/Graphics/SVG/1.1/DTD/svg11.dtd">
<!-- Generated by graphviz version 2.40.1 (20161225.0304)
 -->
<!-- Title: G Pages: 1 -->
<svg width="447pt" height="36pt"
 viewBox="0.00 0.00 447.00 36.00" xmlns="http://www.w3.org/2000/svg" xmlns:xlink="http://www.w3.org/1999/xlink">
<g id="graph0" class="graph" transform="scale(1 1) rotate(0) translate(4 32)">
<title>G</title>
<polygon fill="#ffffff" stroke="transparent" points="-4,4 -4,-32 443,-32 443,4 -4,4"/>
<!-- c8681902 -->
<g id="node1" class="node">
<title>c8681902</title>
<g id="a_node1"><a xlink:href="../../../utilities/random/RandomFactory.html" xlink:title="&lt;TABLE&gt;">
<g id="a_node1_0"><a xlink:href="../../../utilities/random/RandomFactory.html" xlink:title="de.lmu.ifi.dbs.elki.utilities.random.RandomFactory" target="_parent">
<polygon fill="none" stroke="#000000" points="313,0 313,-28 439,-28 439,0 313,0"/>
<text text-anchor="start" x="345.5" y="-18.6" font-family="Roboto" font-size="8.00" fill="#000000"> </text>
<text text-anchor="start" x="348.5" y="-18.6" font-family="Roboto" font-size="8.00" fill="#000000">RandomFactory</text>
<text text-anchor="start" x="403.5" y="-18.6" font-family="Roboto" font-size="8.00" fill="#000000"> </text>
<text text-anchor="start" x="317" y="-7.6" font-family="Roboto" font-size="8.00" fill="#000000"> </text>
<text text-anchor="start" x="320" y="-7.6" font-family="Roboto" font-size="7.00" fill="#000000">de.lmu.ifi.dbs.elki.utilities.random</text>
<text text-anchor="start" x="432" y="-7.6" font-family="Roboto" font-size="8.00" fill="#000000"> </text>
</a>
</g>
</a>
</g>
</g>
<!-- c8682413 -->
<g id="node2" class="node">
<title>c8682413</title>
<g id="a_node2"><a xlink:href="RandomSampleKNNPreprocessor.html" xlink:title="&lt;TABLE&gt;">
<g id="a_node2_1"><a xlink:href="RandomSampleKNNPreprocessor.html" xlink:title="de.lmu.ifi.dbs.elki.index.preprocessed.knn.RandomSampleKNNPreprocessor" target="_parent">
<polygon fill="#fffacd" stroke="transparent" points="163,-5.5 163,-22.5 295,-22.5 295,-5.5 163,-5.5"/>
<polygon fill="none" stroke="#000000" points="163,-5 163,-22 295,-22 295,-5 163,-5"/>
<text text-anchor="start" x="167" y="-12.6" font-family="Roboto" font-size="8.00" fill="#000000"> </text>
<text text-anchor="start" x="170" y="-12.6" font-family="Roboto" font-size="8.00" fill="#000000">RandomSampleKNNPreprocessor</text>
<text text-anchor="start" x="288" y="-12.6" font-family="Roboto" font-size="8.00" fill="#000000"> </text>
</a>
</g>
</a>
</g>
</g>
<!-- c8682413&#45;&gt;c8681902 -->
<g id="edge2" class="edge">
<title>c8682413&#45;&gt;c8681902</title>
<path fill="none" stroke="#000000" d="M295.1895,-14C297.6328,-14 300.0871,-14 302.5413,-14"/>
<polygon fill="#000000" stroke="#000000" points="312.6022,-14 302.6022,-18.5001 307.6022,-14 302.6022,-14.0001 302.6022,-14.0001 302.6022,-14.0001 307.6022,-14 302.6021,-9.5001 312.6022,-14 312.6022,-14"/>
</g>
<!-- c8682428 -->
<g id="node3" class="node">
<title>c8682428</title>
<g id="a_node3"><a xlink:href="AbstractMaterializeKNNPreprocessor.html" xlink:title="&lt;TABLE&gt;">
<g id="a_node3_2"><a xlink:href="AbstractMaterializeKNNPreprocessor.html" xlink:title="de.lmu.ifi.dbs.elki.index.preprocessed.knn.AbstractMaterializeKNNPreprocessor" target="_parent">
<polygon fill="none" stroke="#000000" points=".5,-5 .5,-22 145.5,-22 145.5,-5 .5,-5"/>
<text text-anchor="start" x="4.5" y="-12.6" font-family="Roboto" font-size="8.00" fill="#000000"> </text>
<text text-anchor="start" x="7.5" y="-12.6" font-family="Roboto" font-style="italic" font-size="8.00" fill="#000000">AbstractMaterializeKNNPreprocessor</text>
<text text-anchor="start" x="138.5" y="-12.6" font-family="Roboto" font-size="8.00" fill="#000000"> </text>
</a>
</g>
</a>
</g>
</g>
<!-- c8682428&#45;&gt;c8682413 -->
<g id="edge1" class="edge">
<title>c8682428&#45;&gt;c8682413</title>
<path fill="none" stroke="#000000" d="M155.5127,-14C158.006,-14 160.4928,-14 162.963,-14"/>
<polygon fill="none" stroke="#000000" points="155.2521,-10.5001 145.2521,-14 155.252,-17.5001 155.2521,-10.5001"/>
</g>
</g>
</svg>
