<?xml version="1.0" encoding="UTF-8" standalone="no"?>
<!DOCTYPE svg PUBLIC "-//W3C//DTD SVG 1.1//EN"
 "http://www.w3.org/Graphics/SVG/1.1/DTD/svg11.dtd">
<!-- Generated by graphviz version 2.40.1 (20161225.0304)
 -->
<!-- Title: G Pages: 1 -->
<svg width="258pt" height="79pt"
 viewBox="0.00 0.00 258.00 79.00" xmlns="http://www.w3.org/2000/svg" xmlns:xlink="http://www.w3.org/1999/xlink">
<g id="graph0" class="graph" transform="scale(1 1) rotate(0) translate(4 75)">
<title>G</title>
<polygon fill="#ffffff" stroke="transparent" points="-4,4 -4,-75 254,-75 254,4 -4,4"/>
<!-- c7622831 -->
<g id="node1" class="node">
<title>c7622831</title>
<g id="a_node1"><a xlink:href="BundleMeta.html" xlink:title="&lt;TABLE&gt;">
<g id="a_node1_0"><a xlink:href="BundleMeta.html" xlink:title="de.lmu.ifi.dbs.elki.datasource.bundle.BundleMeta" target="_parent">
<polygon fill="none" stroke="#000000" points="193.5,-53.5 193.5,-70.5 250.5,-70.5 250.5,-53.5 193.5,-53.5"/>
<text text-anchor="start" x="197.5" y="-61.1" font-family="Roboto" font-size="8.00" fill="#000000"> </text>
<text text-anchor="start" x="200.5" y="-61.1" font-family="Roboto" font-size="8.00" fill="#000000">BundleMeta</text>
<text text-anchor="start" x="243.5" y="-61.1" font-family="Roboto" font-size="8.00" fill="#000000"> </text>
</a>
</g>
</a>
</g>
</g>
<!-- c7622832 -->
<g id="node2" class="node">
<title>c7622832</title>
<g id="a_node2"><a xlink:href="MultipleObjectsBundle.html" xlink:title="&lt;TABLE&gt;">
<g id="a_node2_1"><a xlink:href="MultipleObjectsBundle.html" xlink:title="de.lmu.ifi.dbs.elki.datasource.bundle.MultipleObjectsBundle" target="_parent">
<polygon fill="#fffacd" stroke="transparent" points="80,-28 80,-45 175,-45 175,-28 80,-28"/>
<polygon fill="none" stroke="#000000" points="80.5,-27.5 80.5,-44.5 175.5,-44.5 175.5,-27.5 80.5,-27.5"/>
<text text-anchor="start" x="84.5" y="-35.1" font-family="Roboto" font-size="8.00" fill="#000000"> </text>
<text text-anchor="start" x="87.5" y="-35.1" font-family="Roboto" font-size="8.00" fill="#000000">MultipleObjectsBundle</text>
<text text-anchor="start" x="168.5" y="-35.1" font-family="Roboto" font-size="8.00" fill="#000000"> </text>
</a>
</g>
</a>
</g>
</g>
<!-- c7622832&#45;&gt;c7622831 -->
<g id="edge4" class="edge">
<title>c7622832&#45;&gt;c7622831</title>
<path fill="none" stroke="#000000" d="M158.2791,-45.0134C166.1969,-47.2034 174.8147,-49.587 183.0677,-51.8698"/>
<polygon fill="#000000" stroke="#000000" points="192.8821,-54.5844 182.0443,-56.2556 188.063,-53.2514 183.244,-51.9185 183.244,-51.9185 183.244,-51.9185 188.063,-53.2514 184.4436,-47.5813 192.8821,-54.5844 192.8821,-54.5844"/>
</g>
<!-- c7622835 -->
<g id="node3" class="node">
<title>c7622835</title>
<g id="a_node3"><a xlink:href="ObjectBundle.html" xlink:title="&lt;TABLE&gt;">
<g id="a_node3_2"><a xlink:href="ObjectBundle.html" xlink:title="de.lmu.ifi.dbs.elki.datasource.bundle.ObjectBundle" target="_parent">
<polygon fill="#fffacd" stroke="transparent" points="0,-22.5 0,-50.5 62,-50.5 62,-22.5 0,-22.5"/>
<polygon fill="none" stroke="#000000" points="0,-22.5 0,-50.5 62,-50.5 62,-22.5 0,-22.5"/>
<text text-anchor="start" x="9.5" y="-40.1" font-family="Roboto" font-size="8.00" fill="#000000"> «interface» </text>
<text text-anchor="start" x="4" y="-30.1" font-family="Roboto" font-size="8.00" fill="#000000"> </text>
<text text-anchor="start" x="7" y="-30.1" font-family="Roboto" font-size="8.00" fill="#000000">ObjectBundle</text>
<text text-anchor="start" x="55" y="-30.1" font-family="Roboto" font-size="8.00" fill="#000000"> </text>
</a>
</g>
</a>
</g>
</g>
<!-- c7622835&#45;&gt;c7622831 -->
<g id="edge2" class="edge">
<title>c7622835&#45;&gt;c7622831</title>
<path fill="none" stroke="#000000" d="M73.9021,-49.2669C75.9556,-49.7174 77.9958,-50.1323 80,-50.5 118.6778,-57.5962 164.0879,-60.5081 192.8271,-61.6951"/>
<polygon fill="#000000" stroke="#000000" points="73.8064,-49.2434 67.0244,-51.6938 62.1541,-46.3759 68.9361,-43.9255 73.8064,-49.2434"/>
</g>
<!-- c7622835&#45;&gt;c7622832 -->
<g id="edge1" class="edge">
<title>c7622835&#45;&gt;c7622832</title>
<path fill="none" stroke="#000000" stroke-dasharray="5,2" d="M72.3007,-36.5C74.8449,-36.5 77.4155,-36.5 79.9833,-36.5"/>
<polygon fill="none" stroke="#000000" points="72.0644,-33.0001 62.0644,-36.5 72.0644,-40.0001 72.0644,-33.0001"/>
</g>
<!-- c7622836 -->
<g id="node4" class="node">
<title>c7622836</title>
<g id="a_node4"><a xlink:href="SingleObjectBundle.html" xlink:title="&lt;TABLE&gt;">
<g id="a_node4_3"><a xlink:href="SingleObjectBundle.html" xlink:title="de.lmu.ifi.dbs.elki.datasource.bundle.SingleObjectBundle" target="_parent">
<polygon fill="none" stroke="#000000" points="85.5,.5 85.5,-16.5 169.5,-16.5 169.5,.5 85.5,.5"/>
<text text-anchor="start" x="89.5" y="-7.1" font-family="Roboto" font-size="8.00" fill="#000000"> </text>
<text text-anchor="start" x="92.5" y="-7.1" font-family="Roboto" font-size="8.00" fill="#000000">SingleObjectBundle</text>
<text text-anchor="start" x="162.5" y="-7.1" font-family="Roboto" font-size="8.00" fill="#000000"> </text>
</a>
</g>
</a>
</g>
</g>
<!-- c7622835&#45;&gt;c7622836 -->
<g id="edge3" class="edge">
<title>c7622835&#45;&gt;c7622836</title>
<path fill="none" stroke="#000000" stroke-dasharray="5,2" d="M71.8308,-24.6527C80.6668,-22.0889 89.8429,-19.4264 98.1353,-17.0203"/>
<polygon fill="none" stroke="#000000" points="70.6929,-21.3384 62.0644,-27.4865 72.6436,-28.0612 70.6929,-21.3384"/>
</g>
<!-- c7622836&#45;&gt;c7622831 -->
<g id="edge5" class="edge">
<title>c7622836&#45;&gt;c7622831</title>
<path fill="none" stroke="#000000" d="M162.6872,-17.0216C166.9472,-18.5869 171.149,-20.4037 175,-22.5 186.6238,-28.8276 197.9208,-38.4388 206.4688,-46.6541"/>
<polygon fill="#000000" stroke="#000000" points="213.7429,-53.9502 203.4957,-50.0456 210.2127,-50.4093 206.6825,-46.8684 206.6825,-46.8684 206.6825,-46.8684 210.2127,-50.4093 209.8693,-43.6912 213.7429,-53.9502 213.7429,-53.9502"/>
</g>
</g>
</svg>
