<?xml version="1.0" encoding="UTF-8" standalone="no"?>
<!DOCTYPE svg PUBLIC "-//W3C//DTD SVG 1.1//EN"
 "http://www.w3.org/Graphics/SVG/1.1/DTD/svg11.dtd">
<!-- Generated by graphviz version 2.40.1 (20161225.0304)
 -->
<!-- Title: G Pages: 1 -->
<svg width="413pt" height="87pt"
 viewBox="0.00 0.00 413.00 86.50" xmlns="http://www.w3.org/2000/svg" xmlns:xlink="http://www.w3.org/1999/xlink">
<g id="graph0" class="graph" transform="scale(1 1) rotate(0) translate(4 82.5)">
<title>G</title>
<polygon fill="#ffffff" stroke="transparent" points="-4,4 -4,-82.5 409,-82.5 409,4 -4,4"/>
<!-- c4748957 -->
<g id="node1" class="node">
<title>c4748957</title>
<g id="a_node1"><a xlink:href="../../../math/statistics/distribution/Distribution.html" xlink:title="&lt;TABLE&gt;">
<g id="a_node1_0"><a xlink:href="../../../math/statistics/distribution/Distribution.html" xlink:title="de.lmu.ifi.dbs.elki.math.statistics.distribution.Distribution" target="_parent">
<polygon fill="none" stroke="#000000" points="243,-39 243,-78 405,-78 405,-39 243,-39"/>
<text text-anchor="start" x="302.5" y="-67.6" font-family="Roboto" font-size="8.00" fill="#000000"> «interface» </text>
<text text-anchor="start" x="300" y="-57.6" font-family="Roboto" font-size="8.00" fill="#000000"> </text>
<text text-anchor="start" x="303" y="-57.6" font-family="Roboto" font-size="8.00" fill="#000000">Distribution</text>
<text text-anchor="start" x="345" y="-57.6" font-family="Roboto" font-size="8.00" fill="#000000"> </text>
<text text-anchor="start" x="247" y="-46.6" font-family="Roboto" font-size="8.00" fill="#000000"> </text>
<text text-anchor="start" x="250" y="-46.6" font-family="Roboto" font-size="7.00" fill="#000000">de.lmu.ifi.dbs.elki.math.statistics.distribution</text>
<text text-anchor="start" x="398" y="-46.6" font-family="Roboto" font-size="8.00" fill="#000000"> </text>
</a>
</g>
</a>
</g>
</g>
<!-- c4749169 -->
<g id="node2" class="node">
<title>c4749169</title>
<g id="a_node2"><a xlink:href="../../../math/linearalgebra/AffineTransformation.html" xlink:title="&lt;TABLE&gt;">
<g id="a_node2_1"><a xlink:href="../../../math/linearalgebra/AffineTransformation.html" xlink:title="de.lmu.ifi.dbs.elki.math.linearalgebra.AffineTransformation" target="_parent">
<polygon fill="none" stroke="#000000" points="257,0 257,-28 392,-28 392,0 257,0"/>
<text text-anchor="start" x="283.5" y="-18.6" font-family="Roboto" font-size="8.00" fill="#000000"> </text>
<text text-anchor="start" x="286.5" y="-18.6" font-family="Roboto" font-size="8.00" fill="#000000">AffineTransformation</text>
<text text-anchor="start" x="362.5" y="-18.6" font-family="Roboto" font-size="8.00" fill="#000000"> </text>
<text text-anchor="start" x="261" y="-7.6" font-family="Roboto" font-size="8.00" fill="#000000"> </text>
<text text-anchor="start" x="264" y="-7.6" font-family="Roboto" font-size="7.00" fill="#000000">de.lmu.ifi.dbs.elki.math.linearalgebra</text>
<text text-anchor="start" x="385" y="-7.6" font-family="Roboto" font-size="8.00" fill="#000000"> </text>
</a>
</g>
</a>
</g>
</g>
<!-- c4749436 -->
<g id="node3" class="node">
<title>c4749436</title>
<g id="a_node3"><a xlink:href="GeneratorSingleCluster.html" xlink:title="&lt;TABLE&gt;">
<g id="a_node3_2"><a xlink:href="GeneratorSingleCluster.html" xlink:title="de.lmu.ifi.dbs.elki.data.synthetic.bymodel.GeneratorSingleCluster" target="_parent">
<polygon fill="#fffacd" stroke="transparent" points="129,-27.5 129,-44.5 225,-44.5 225,-27.5 129,-27.5"/>
<polygon fill="none" stroke="#000000" points="129,-27 129,-44 225,-44 225,-27 129,-27"/>
<text text-anchor="start" x="133" y="-34.6" font-family="Roboto" font-size="8.00" fill="#000000"> </text>
<text text-anchor="start" x="136" y="-34.6" font-family="Roboto" font-size="8.00" fill="#000000">GeneratorSingleCluster</text>
<text text-anchor="start" x="218" y="-34.6" font-family="Roboto" font-size="8.00" fill="#000000"> </text>
</a>
</g>
</a>
</g>
</g>
<!-- c4749436&#45;&gt;c4748957 -->
<g id="edge2" class="edge">
<title>c4749436&#45;&gt;c4748957</title>
<path fill="none" stroke="#000000" d="M237.1525,-45.4116C239.0074,-45.7018 240.874,-45.9939 242.7474,-46.287"/>
<polygon fill="#000000" stroke="#000000" points="236.9891,-45.3861 230.4428,-48.4105 225.1333,-43.5311 231.6795,-40.5067 236.9891,-45.3861"/>
</g>
<!-- c4749436&#45;&gt;c4749169 -->
<g id="edge3" class="edge">
<title>c4749436&#45;&gt;c4749169</title>
<path fill="none" stroke="#000000" d="M237.083,-27.008C243.4117,-26.0608 249.8779,-25.0931 256.2851,-24.1342"/>
<polygon fill="#000000" stroke="#000000" points="237.0011,-27.0202 231.6593,-31.8642 225.1333,-28.7964 230.4751,-23.9523 237.0011,-27.0202"/>
</g>
<!-- c4749442 -->
<g id="node4" class="node">
<title>c4749442</title>
<g id="a_node4"><a xlink:href="GeneratorInterfaceDynamic.html" xlink:title="&lt;TABLE&gt;">
<g id="a_node4_3"><a xlink:href="GeneratorInterfaceDynamic.html" xlink:title="de.lmu.ifi.dbs.elki.data.synthetic.bymodel.GeneratorInterfaceDynamic" target="_parent">
<polygon fill="none" stroke="#000000" points=".5,-22 .5,-50 111.5,-50 111.5,-22 .5,-22"/>
<text text-anchor="start" x="34.5" y="-39.6" font-family="Roboto" font-size="8.00" fill="#000000"> «interface» </text>
<text text-anchor="start" x="4.5" y="-29.6" font-family="Roboto" font-size="8.00" fill="#000000"> </text>
<text text-anchor="start" x="7.5" y="-29.6" font-family="Roboto" font-size="8.00" fill="#000000">GeneratorInterfaceDynamic</text>
<text text-anchor="start" x="104.5" y="-29.6" font-family="Roboto" font-size="8.00" fill="#000000"> </text>
</a>
</g>
</a>
</g>
</g>
<!-- c4749442&#45;&gt;c4749436 -->
<g id="edge1" class="edge">
<title>c4749442&#45;&gt;c4749436</title>
<path fill="none" stroke="#000000" stroke-dasharray="5,2" d="M121.4619,-36C123.935,-36 126.3966,-36 128.83,-36"/>
<polygon fill="none" stroke="#000000" points="121.2716,-32.5001 111.2716,-36 121.2715,-39.5001 121.2716,-32.5001"/>
</g>
</g>
</svg>
