<?xml version="1.0" encoding="UTF-8" standalone="no"?><svg xmlns="http://www.w3.org/2000/svg" xmlns:xlink="http://www.w3.org/1999/xlink" contentStyleType="text/css" height="287px" preserveAspectRatio="none" style="width:4677px;height:287px;background:#FFFFFF;" version="1.1" viewBox="0 0 4677 287" width="4677px" zoomAndPan="magnify"><defs/><g><!--MD5=[577de813c4fee934b26a4f8024c72fce]
cluster elki.math.linearalgebra.pca.weightfunctions--><g id="cluster_elki.math.linearalgebra.pca.weightfunctions"><path d="M8.5,6 L354.5,6 A3.75,3.75 0 0 1 357,8.5 L364,28.2969 L4667.5,28.2969 A2.5,2.5 0 0 1 4670,30.7969 L4670,259.5 A2.5,2.5 0 0 1 4667.5,262 L8.5,262 A2.5,2.5 0 0 1 6,259.5 L6,8.5 A2.5,2.5 0 0 1 8.5,6 " fill="none" style="stroke:#000000;stroke-width:1.5;"/><line style="stroke:#000000;stroke-width:1.5;" x1="6" x2="364" y1="28.2969" y2="28.2969"/><text fill="#000000" font-family="sans-serif" font-size="14" font-weight="bold" lengthAdjust="spacing" textLength="345" x="10" y="20.9951">elki.math.linearalgebra.pca.weightfunctions</text></g><!--MD5=[41b9a2e34ab729e71dc2b62089cb93d2]
class elki.math.linearalgebra.pca.weightfunctions.GaussStddevWeight--><a href="GaussStddevWeight.html" target="_top" title="GaussStddevWeight.html" xlink:actuate="onRequest" xlink:href="GaussStddevWeight.html" xlink:show="new" xlink:title="GaussStddevWeight.html" xlink:type="simple"><g id="elem_elki.math.linearalgebra.pca.weightfunctions.GaussStddevWeight"><rect codeLine="4" fill="#F1F1F1" height="64.2969" id="elki.math.linearalgebra.pca.weightfunctions.GaussStddevWeight" rx="2.5" ry="2.5" style="stroke:#181818;stroke-width:0.5;" width="324" x="22" y="173.5"/><ellipse cx="109.75" cy="189.5" fill="#ADD1B2" rx="11" ry="11" style="stroke:#181818;stroke-width:1.0;"/><path d="M112.7188,195.1406 Q112.1406,195.4375 111.5,195.5781 Q110.8594,195.7344 110.1563,195.7344 Q107.6563,195.7344 106.3281,194.0938 Q105.0156,192.4375 105.0156,189.3125 Q105.0156,186.1875 106.3281,184.5313 Q107.6563,182.875 110.1563,182.875 Q110.8594,182.875 111.5,183.0313 Q112.1563,183.1875 112.7188,183.4844 L112.7188,186.2031 Q112.0938,185.625 111.5,185.3594 Q110.9063,185.0781 110.2813,185.0781 Q108.9375,185.0781 108.25,186.1563 Q107.5625,187.2188 107.5625,189.3125 Q107.5625,191.4063 108.25,192.4844 Q108.9375,193.5469 110.2813,193.5469 Q110.9063,193.5469 111.5,193.2813 Q112.0938,193 112.7188,192.4219 L112.7188,195.1406 Z " fill="#000000"/><text fill="#000000" font-family="sans-serif" font-size="14" lengthAdjust="spacing" textLength="140" x="130.25" y="194.3467">GaussStddevWeight</text><line style="stroke:#181818;stroke-width:0.5;" x1="23" x2="345" y1="205.5" y2="205.5"/><line style="stroke:#181818;stroke-width:0.5;" x1="23" x2="345" y1="213.5" y2="213.5"/><ellipse cx="33" cy="227.1484" fill="#84BE84" rx="3" ry="3" style="stroke:#038048;stroke-width:1.0;"/><text fill="#000000" font-family="sans-serif" font-size="14" lengthAdjust="spacing" textLength="298" x="42" y="230.4951">getWeight(double, double, double): double</text></g></a><!--MD5=[fca2e41144860eeacb710db99831058e]
class elki.math.linearalgebra.pca.weightfunctions.WeightFunction--><a href="WeightFunction.html" target="_top" title="WeightFunction.html" xlink:actuate="onRequest" xlink:href="WeightFunction.html" xlink:show="new" xlink:title="WeightFunction.html" xlink:type="simple"><g id="elem_elki.math.linearalgebra.pca.weightfunctions.WeightFunction"><rect codeLine="8" fill="#F1F1F1" height="64.2969" id="elki.math.linearalgebra.pca.weightfunctions.WeightFunction" rx="2.5" ry="2.5" style="stroke:#181818;stroke-width:0.5;" width="330" x="2173" y="41"/><ellipse cx="2278.25" cy="57" fill="#B4A7E5" rx="11" ry="11" style="stroke:#181818;stroke-width:1.0;"/><path d="M2274.1719,52.7656 L2274.1719,50.6094 L2281.5625,50.6094 L2281.5625,52.7656 L2279.0938,52.7656 L2279.0938,60.8438 L2281.5625,60.8438 L2281.5625,63 L2274.1719,63 L2274.1719,60.8438 L2276.6406,60.8438 L2276.6406,52.7656 L2274.1719,52.7656 Z " fill="#000000"/><text fill="#000000" font-family="sans-serif" font-size="14" font-style="italic" lengthAdjust="spacing" textLength="111" x="2298.75" y="61.8467">WeightFunction</text><line style="stroke:#181818;stroke-width:0.5;" x1="2174" x2="2502" y1="73" y2="73"/><line style="stroke:#181818;stroke-width:0.5;" x1="2174" x2="2502" y1="81" y2="81"/><ellipse cx="2184" cy="94.6484" fill="#84BE84" rx="3" ry="3" style="stroke:#038048;stroke-width:1.0;"/><text fill="#000000" font-family="sans-serif" font-size="14" font-style="italic" lengthAdjust="spacing" textLength="304" x="2193" y="97.9951">getWeight(double, double, double): double</text></g></a><!--MD5=[3f8abce1a3bc48beced7ea7b39473343]
class elki.math.linearalgebra.pca.weightfunctions.InverseProportionalWeight--><a href="InverseProportionalWeight.html" target="_top" title="InverseProportionalWeight.html" xlink:actuate="onRequest" xlink:href="InverseProportionalWeight.html" xlink:show="new" xlink:title="InverseProportionalWeight.html" xlink:type="simple"><g id="elem_elki.math.linearalgebra.pca.weightfunctions.InverseProportionalWeight"><rect codeLine="12" fill="#F1F1F1" height="64.2969" id="elki.math.linearalgebra.pca.weightfunctions.InverseProportionalWeight" rx="2.5" ry="2.5" style="stroke:#181818;stroke-width:0.5;" width="324" x="381" y="173.5"/><ellipse cx="448.25" cy="189.5" fill="#ADD1B2" rx="11" ry="11" style="stroke:#181818;stroke-width:1.0;"/><path d="M451.2188,195.1406 Q450.6406,195.4375 450,195.5781 Q449.3594,195.7344 448.6563,195.7344 Q446.1563,195.7344 444.8281,194.0938 Q443.5156,192.4375 443.5156,189.3125 Q443.5156,186.1875 444.8281,184.5313 Q446.1563,182.875 448.6563,182.875 Q449.3594,182.875 450,183.0313 Q450.6563,183.1875 451.2188,183.4844 L451.2188,186.2031 Q450.5938,185.625 450,185.3594 Q449.4063,185.0781 448.7813,185.0781 Q447.4375,185.0781 446.75,186.1563 Q446.0625,187.2188 446.0625,189.3125 Q446.0625,191.4063 446.75,192.4844 Q447.4375,193.5469 448.7813,193.5469 Q449.4063,193.5469 450,193.2813 Q450.5938,193 451.2188,192.4219 L451.2188,195.1406 Z " fill="#000000"/><text fill="#000000" font-family="sans-serif" font-size="14" lengthAdjust="spacing" textLength="181" x="468.75" y="194.3467">InverseProportionalWeight</text><line style="stroke:#181818;stroke-width:0.5;" x1="382" x2="704" y1="205.5" y2="205.5"/><line style="stroke:#181818;stroke-width:0.5;" x1="382" x2="704" y1="213.5" y2="213.5"/><ellipse cx="392" cy="227.1484" fill="#84BE84" rx="3" ry="3" style="stroke:#038048;stroke-width:1.0;"/><text fill="#000000" font-family="sans-serif" font-size="14" lengthAdjust="spacing" textLength="298" x="401" y="230.4951">getWeight(double, double, double): double</text></g></a><!--MD5=[59b72c1850496ccc9063743a66c8e47a]
class elki.math.linearalgebra.pca.weightfunctions.QuadraticStddevWeight--><a href="QuadraticStddevWeight.html" target="_top" title="QuadraticStddevWeight.html" xlink:actuate="onRequest" xlink:href="QuadraticStddevWeight.html" xlink:show="new" xlink:title="QuadraticStddevWeight.html" xlink:type="simple"><g id="elem_elki.math.linearalgebra.pca.weightfunctions.QuadraticStddevWeight"><rect codeLine="16" fill="#F1F1F1" height="80.5938" id="elki.math.linearalgebra.pca.weightfunctions.QuadraticStddevWeight" rx="2.5" ry="2.5" style="stroke:#181818;stroke-width:0.5;" width="324" x="740" y="165"/><ellipse cx="816.75" cy="181" fill="#ADD1B2" rx="11" ry="11" style="stroke:#181818;stroke-width:1.0;"/><path d="M819.7188,186.6406 Q819.1406,186.9375 818.5,187.0781 Q817.8594,187.2344 817.1563,187.2344 Q814.6563,187.2344 813.3281,185.5938 Q812.0156,183.9375 812.0156,180.8125 Q812.0156,177.6875 813.3281,176.0313 Q814.6563,174.375 817.1563,174.375 Q817.8594,174.375 818.5,174.5313 Q819.1563,174.6875 819.7188,174.9844 L819.7188,177.7031 Q819.0938,177.125 818.5,176.8594 Q817.9063,176.5781 817.2813,176.5781 Q815.9375,176.5781 815.25,177.6563 Q814.5625,178.7188 814.5625,180.8125 Q814.5625,182.9063 815.25,183.9844 Q815.9375,185.0469 817.2813,185.0469 Q817.9063,185.0469 818.5,184.7813 Q819.0938,184.5 819.7188,183.9219 L819.7188,186.6406 Z " fill="#000000"/><text fill="#000000" font-family="sans-serif" font-size="14" lengthAdjust="spacing" textLength="162" x="837.25" y="185.8467">QuadraticStddevWeight</text><line style="stroke:#181818;stroke-width:0.5;" x1="741" x2="1063" y1="197" y2="197"/><rect fill="none" height="6" style="stroke:#C82930;stroke-width:1.0;" width="6" x="748" y="207.6484"/><text fill="#000000" font-family="sans-serif" font-size="14" lengthAdjust="spacing" text-decoration="underline" textLength="105" x="760" y="213.9951">scaling: double</text><line style="stroke:#181818;stroke-width:0.5;" x1="741" x2="1063" y1="221.2969" y2="221.2969"/><ellipse cx="751" cy="234.9453" fill="#84BE84" rx="3" ry="3" style="stroke:#038048;stroke-width:1.0;"/><text fill="#000000" font-family="sans-serif" font-size="14" lengthAdjust="spacing" textLength="298" x="760" y="238.292">getWeight(double, double, double): double</text></g></a><!--MD5=[bff4a8d9e138f3dfba80632cf8cd6f8e]
class elki.math.linearalgebra.pca.weightfunctions.ErfcWeight--><a href="ErfcWeight.html" target="_top" title="ErfcWeight.html" xlink:actuate="onRequest" xlink:href="ErfcWeight.html" xlink:show="new" xlink:title="ErfcWeight.html" xlink:type="simple"><g id="elem_elki.math.linearalgebra.pca.weightfunctions.ErfcWeight"><rect codeLine="21" fill="#F1F1F1" height="64.2969" id="elki.math.linearalgebra.pca.weightfunctions.ErfcWeight" rx="2.5" ry="2.5" style="stroke:#181818;stroke-width:0.5;" width="324" x="1099" y="173.5"/><ellipse cx="1219.75" cy="189.5" fill="#ADD1B2" rx="11" ry="11" style="stroke:#181818;stroke-width:1.0;"/><path d="M1222.7188,195.1406 Q1222.1406,195.4375 1221.5,195.5781 Q1220.8594,195.7344 1220.1563,195.7344 Q1217.6563,195.7344 1216.3281,194.0938 Q1215.0156,192.4375 1215.0156,189.3125 Q1215.0156,186.1875 1216.3281,184.5313 Q1217.6563,182.875 1220.1563,182.875 Q1220.8594,182.875 1221.5,183.0313 Q1222.1563,183.1875 1222.7188,183.4844 L1222.7188,186.2031 Q1222.0938,185.625 1221.5,185.3594 Q1220.9063,185.0781 1220.2813,185.0781 Q1218.9375,185.0781 1218.25,186.1563 Q1217.5625,187.2188 1217.5625,189.3125 Q1217.5625,191.4063 1218.25,192.4844 Q1218.9375,193.5469 1220.2813,193.5469 Q1220.9063,193.5469 1221.5,193.2813 Q1222.0938,193 1222.7188,192.4219 L1222.7188,195.1406 Z " fill="#000000"/><text fill="#000000" font-family="sans-serif" font-size="14" lengthAdjust="spacing" textLength="74" x="1240.25" y="194.3467">ErfcWeight</text><line style="stroke:#181818;stroke-width:0.5;" x1="1100" x2="1422" y1="205.5" y2="205.5"/><line style="stroke:#181818;stroke-width:0.5;" x1="1100" x2="1422" y1="213.5" y2="213.5"/><ellipse cx="1110" cy="227.1484" fill="#84BE84" rx="3" ry="3" style="stroke:#038048;stroke-width:1.0;"/><text fill="#000000" font-family="sans-serif" font-size="14" lengthAdjust="spacing" textLength="298" x="1119" y="230.4951">getWeight(double, double, double): double</text></g></a><!--MD5=[6298d886c95d4dff26eafa37937eda9c]
class elki.math.linearalgebra.pca.weightfunctions.ExponentialStddevWeight--><a href="ExponentialStddevWeight.html" target="_top" title="ExponentialStddevWeight.html" xlink:actuate="onRequest" xlink:href="ExponentialStddevWeight.html" xlink:show="new" xlink:title="ExponentialStddevWeight.html" xlink:type="simple"><g id="elem_elki.math.linearalgebra.pca.weightfunctions.ExponentialStddevWeight"><rect codeLine="25" fill="#F1F1F1" height="64.2969" id="elki.math.linearalgebra.pca.weightfunctions.ExponentialStddevWeight" rx="2.5" ry="2.5" style="stroke:#181818;stroke-width:0.5;" width="324" x="1458" y="173.5"/><ellipse cx="1527.75" cy="189.5" fill="#ADD1B2" rx="11" ry="11" style="stroke:#181818;stroke-width:1.0;"/><path d="M1530.7188,195.1406 Q1530.1406,195.4375 1529.5,195.5781 Q1528.8594,195.7344 1528.1563,195.7344 Q1525.6563,195.7344 1524.3281,194.0938 Q1523.0156,192.4375 1523.0156,189.3125 Q1523.0156,186.1875 1524.3281,184.5313 Q1525.6563,182.875 1528.1563,182.875 Q1528.8594,182.875 1529.5,183.0313 Q1530.1563,183.1875 1530.7188,183.4844 L1530.7188,186.2031 Q1530.0938,185.625 1529.5,185.3594 Q1528.9063,185.0781 1528.2813,185.0781 Q1526.9375,185.0781 1526.25,186.1563 Q1525.5625,187.2188 1525.5625,189.3125 Q1525.5625,191.4063 1526.25,192.4844 Q1526.9375,193.5469 1528.2813,193.5469 Q1528.9063,193.5469 1529.5,193.2813 Q1530.0938,193 1530.7188,192.4219 L1530.7188,195.1406 Z " fill="#000000"/><text fill="#000000" font-family="sans-serif" font-size="14" lengthAdjust="spacing" textLength="176" x="1548.25" y="194.3467">ExponentialStddevWeight</text><line style="stroke:#181818;stroke-width:0.5;" x1="1459" x2="1781" y1="205.5" y2="205.5"/><line style="stroke:#181818;stroke-width:0.5;" x1="1459" x2="1781" y1="213.5" y2="213.5"/><ellipse cx="1469" cy="227.1484" fill="#84BE84" rx="3" ry="3" style="stroke:#038048;stroke-width:1.0;"/><text fill="#000000" font-family="sans-serif" font-size="14" lengthAdjust="spacing" textLength="298" x="1478" y="230.4951">getWeight(double, double, double): double</text></g></a><!--MD5=[8655e4df97be0cf654ff84996d8a1de2]
class elki.math.linearalgebra.pca.weightfunctions.InverseProportionalStddevWeight--><a href="InverseProportionalStddevWeight.html" target="_top" title="InverseProportionalStddevWeight.html" xlink:actuate="onRequest" xlink:href="InverseProportionalStddevWeight.html" xlink:show="new" xlink:title="InverseProportionalStddevWeight.html" xlink:type="simple"><g id="elem_elki.math.linearalgebra.pca.weightfunctions.InverseProportionalStddevWeight"><rect codeLine="29" fill="#F1F1F1" height="64.2969" id="elki.math.linearalgebra.pca.weightfunctions.InverseProportionalStddevWeight" rx="2.5" ry="2.5" style="stroke:#181818;stroke-width:0.5;" width="324" x="1817" y="173.5"/><ellipse cx="1860.35" cy="189.5" fill="#ADD1B2" rx="11" ry="11" style="stroke:#181818;stroke-width:1.0;"/><path d="M1863.3188,195.1406 Q1862.7406,195.4375 1862.1,195.5781 Q1861.4594,195.7344 1860.7563,195.7344 Q1858.2563,195.7344 1856.9281,194.0938 Q1855.6156,192.4375 1855.6156,189.3125 Q1855.6156,186.1875 1856.9281,184.5313 Q1858.2563,182.875 1860.7563,182.875 Q1861.4594,182.875 1862.1,183.0313 Q1862.7563,183.1875 1863.3188,183.4844 L1863.3188,186.2031 Q1862.6938,185.625 1862.1,185.3594 Q1861.5063,185.0781 1860.8813,185.0781 Q1859.5375,185.0781 1858.85,186.1563 Q1858.1625,187.2188 1858.1625,189.3125 Q1858.1625,191.4063 1858.85,192.4844 Q1859.5375,193.5469 1860.8813,193.5469 Q1861.5063,193.5469 1862.1,193.2813 Q1862.6938,193 1863.3188,192.4219 L1863.3188,195.1406 Z " fill="#000000"/><text fill="#000000" font-family="sans-serif" font-size="14" lengthAdjust="spacing" textLength="229" x="1880.65" y="194.3467">InverseProportionalStddevWeight</text><line style="stroke:#181818;stroke-width:0.5;" x1="1818" x2="2140" y1="205.5" y2="205.5"/><line style="stroke:#181818;stroke-width:0.5;" x1="1818" x2="2140" y1="213.5" y2="213.5"/><ellipse cx="1828" cy="227.1484" fill="#84BE84" rx="3" ry="3" style="stroke:#038048;stroke-width:1.0;"/><text fill="#000000" font-family="sans-serif" font-size="14" lengthAdjust="spacing" textLength="298" x="1837" y="230.4951">getWeight(double, double, double): double</text></g></a><!--MD5=[7cfebc50a55b91b1b6d9c1d6baceca83]
class elki.math.linearalgebra.pca.weightfunctions.ConstantWeight--><a href="ConstantWeight.html" target="_top" title="ConstantWeight.html" xlink:actuate="onRequest" xlink:href="ConstantWeight.html" xlink:show="new" xlink:title="ConstantWeight.html" xlink:type="simple"><g id="elem_elki.math.linearalgebra.pca.weightfunctions.ConstantWeight"><rect codeLine="33" fill="#F1F1F1" height="64.2969" id="elki.math.linearalgebra.pca.weightfunctions.ConstantWeight" rx="2.5" ry="2.5" style="stroke:#181818;stroke-width:0.5;" width="324" x="2176" y="173.5"/><ellipse cx="2278.25" cy="189.5" fill="#ADD1B2" rx="11" ry="11" style="stroke:#181818;stroke-width:1.0;"/><path d="M2281.2188,195.1406 Q2280.6406,195.4375 2280,195.5781 Q2279.3594,195.7344 2278.6563,195.7344 Q2276.1563,195.7344 2274.8281,194.0938 Q2273.5156,192.4375 2273.5156,189.3125 Q2273.5156,186.1875 2274.8281,184.5313 Q2276.1563,182.875 2278.6563,182.875 Q2279.3594,182.875 2280,183.0313 Q2280.6563,183.1875 2281.2188,183.4844 L2281.2188,186.2031 Q2280.5938,185.625 2280,185.3594 Q2279.4063,185.0781 2278.7813,185.0781 Q2277.4375,185.0781 2276.75,186.1563 Q2276.0625,187.2188 2276.0625,189.3125 Q2276.0625,191.4063 2276.75,192.4844 Q2277.4375,193.5469 2278.7813,193.5469 Q2279.4063,193.5469 2280,193.2813 Q2280.5938,193 2281.2188,192.4219 L2281.2188,195.1406 Z " fill="#000000"/><text fill="#000000" font-family="sans-serif" font-size="14" lengthAdjust="spacing" textLength="111" x="2298.75" y="194.3467">ConstantWeight</text><line style="stroke:#181818;stroke-width:0.5;" x1="2177" x2="2499" y1="205.5" y2="205.5"/><line style="stroke:#181818;stroke-width:0.5;" x1="2177" x2="2499" y1="213.5" y2="213.5"/><ellipse cx="2187" cy="227.1484" fill="#84BE84" rx="3" ry="3" style="stroke:#038048;stroke-width:1.0;"/><text fill="#000000" font-family="sans-serif" font-size="14" lengthAdjust="spacing" textLength="298" x="2196" y="230.4951">getWeight(double, double, double): double</text></g></a><!--MD5=[be36bd2f17c4915239faf9ee4f37b936]
class elki.math.linearalgebra.pca.weightfunctions.QuadraticWeight--><a href="QuadraticWeight.html" target="_top" title="QuadraticWeight.html" xlink:actuate="onRequest" xlink:href="QuadraticWeight.html" xlink:show="new" xlink:title="QuadraticWeight.html" xlink:type="simple"><g id="elem_elki.math.linearalgebra.pca.weightfunctions.QuadraticWeight"><rect codeLine="37" fill="#F1F1F1" height="64.2969" id="elki.math.linearalgebra.pca.weightfunctions.QuadraticWeight" rx="2.5" ry="2.5" style="stroke:#181818;stroke-width:0.5;" width="324" x="2535" y="173.5"/><ellipse cx="2635.75" cy="189.5" fill="#ADD1B2" rx="11" ry="11" style="stroke:#181818;stroke-width:1.0;"/><path d="M2638.7188,195.1406 Q2638.1406,195.4375 2637.5,195.5781 Q2636.8594,195.7344 2636.1563,195.7344 Q2633.6563,195.7344 2632.3281,194.0938 Q2631.0156,192.4375 2631.0156,189.3125 Q2631.0156,186.1875 2632.3281,184.5313 Q2633.6563,182.875 2636.1563,182.875 Q2636.8594,182.875 2637.5,183.0313 Q2638.1563,183.1875 2638.7188,183.4844 L2638.7188,186.2031 Q2638.0938,185.625 2637.5,185.3594 Q2636.9063,185.0781 2636.2813,185.0781 Q2634.9375,185.0781 2634.25,186.1563 Q2633.5625,187.2188 2633.5625,189.3125 Q2633.5625,191.4063 2634.25,192.4844 Q2634.9375,193.5469 2636.2813,193.5469 Q2636.9063,193.5469 2637.5,193.2813 Q2638.0938,193 2638.7188,192.4219 L2638.7188,195.1406 Z " fill="#000000"/><text fill="#000000" font-family="sans-serif" font-size="14" lengthAdjust="spacing" textLength="114" x="2656.25" y="194.3467">QuadraticWeight</text><line style="stroke:#181818;stroke-width:0.5;" x1="2536" x2="2858" y1="205.5" y2="205.5"/><line style="stroke:#181818;stroke-width:0.5;" x1="2536" x2="2858" y1="213.5" y2="213.5"/><ellipse cx="2546" cy="227.1484" fill="#84BE84" rx="3" ry="3" style="stroke:#038048;stroke-width:1.0;"/><text fill="#000000" font-family="sans-serif" font-size="14" lengthAdjust="spacing" textLength="298" x="2555" y="230.4951">getWeight(double, double, double): double</text></g></a><!--MD5=[817912aa27572bb87a181d9a4a13d900]
class elki.math.linearalgebra.pca.weightfunctions.ExponentialWeight--><a href="ExponentialWeight.html" target="_top" title="ExponentialWeight.html" xlink:actuate="onRequest" xlink:href="ExponentialWeight.html" xlink:show="new" xlink:title="ExponentialWeight.html" xlink:type="simple"><g id="elem_elki.math.linearalgebra.pca.weightfunctions.ExponentialWeight"><rect codeLine="41" fill="#F1F1F1" height="64.2969" id="elki.math.linearalgebra.pca.weightfunctions.ExponentialWeight" rx="2.5" ry="2.5" style="stroke:#181818;stroke-width:0.5;" width="324" x="2894" y="173.5"/><ellipse cx="2987.75" cy="189.5" fill="#ADD1B2" rx="11" ry="11" style="stroke:#181818;stroke-width:1.0;"/><path d="M2990.7188,195.1406 Q2990.1406,195.4375 2989.5,195.5781 Q2988.8594,195.7344 2988.1563,195.7344 Q2985.6563,195.7344 2984.3281,194.0938 Q2983.0156,192.4375 2983.0156,189.3125 Q2983.0156,186.1875 2984.3281,184.5313 Q2985.6563,182.875 2988.1563,182.875 Q2988.8594,182.875 2989.5,183.0313 Q2990.1563,183.1875 2990.7188,183.4844 L2990.7188,186.2031 Q2990.0938,185.625 2989.5,185.3594 Q2988.9063,185.0781 2988.2813,185.0781 Q2986.9375,185.0781 2986.25,186.1563 Q2985.5625,187.2188 2985.5625,189.3125 Q2985.5625,191.4063 2986.25,192.4844 Q2986.9375,193.5469 2988.2813,193.5469 Q2988.9063,193.5469 2989.5,193.2813 Q2990.0938,193 2990.7188,192.4219 L2990.7188,195.1406 Z " fill="#000000"/><text fill="#000000" font-family="sans-serif" font-size="14" lengthAdjust="spacing" textLength="128" x="3008.25" y="194.3467">ExponentialWeight</text><line style="stroke:#181818;stroke-width:0.5;" x1="2895" x2="3217" y1="205.5" y2="205.5"/><line style="stroke:#181818;stroke-width:0.5;" x1="2895" x2="3217" y1="213.5" y2="213.5"/><ellipse cx="2905" cy="227.1484" fill="#84BE84" rx="3" ry="3" style="stroke:#038048;stroke-width:1.0;"/><text fill="#000000" font-family="sans-serif" font-size="14" lengthAdjust="spacing" textLength="298" x="2914" y="230.4951">getWeight(double, double, double): double</text></g></a><!--MD5=[82131913a02fca222f57156396ac18e4]
class elki.math.linearalgebra.pca.weightfunctions.LinearWeight--><a href="LinearWeight.html" target="_top" title="LinearWeight.html" xlink:actuate="onRequest" xlink:href="LinearWeight.html" xlink:show="new" xlink:title="LinearWeight.html" xlink:type="simple"><g id="elem_elki.math.linearalgebra.pca.weightfunctions.LinearWeight"><rect codeLine="45" fill="#F1F1F1" height="64.2969" id="elki.math.linearalgebra.pca.weightfunctions.LinearWeight" rx="2.5" ry="2.5" style="stroke:#181818;stroke-width:0.5;" width="324" x="3253" y="173.5"/><ellipse cx="3366.25" cy="189.5" fill="#ADD1B2" rx="11" ry="11" style="stroke:#181818;stroke-width:1.0;"/><path d="M3369.2188,195.1406 Q3368.6406,195.4375 3368,195.5781 Q3367.3594,195.7344 3366.6563,195.7344 Q3364.1563,195.7344 3362.8281,194.0938 Q3361.5156,192.4375 3361.5156,189.3125 Q3361.5156,186.1875 3362.8281,184.5313 Q3364.1563,182.875 3366.6563,182.875 Q3367.3594,182.875 3368,183.0313 Q3368.6563,183.1875 3369.2188,183.4844 L3369.2188,186.2031 Q3368.5938,185.625 3368,185.3594 Q3367.4063,185.0781 3366.7813,185.0781 Q3365.4375,185.0781 3364.75,186.1563 Q3364.0625,187.2188 3364.0625,189.3125 Q3364.0625,191.4063 3364.75,192.4844 Q3365.4375,193.5469 3366.7813,193.5469 Q3367.4063,193.5469 3368,193.2813 Q3368.5938,193 3369.2188,192.4219 L3369.2188,195.1406 Z " fill="#000000"/><text fill="#000000" font-family="sans-serif" font-size="14" lengthAdjust="spacing" textLength="89" x="3386.75" y="194.3467">LinearWeight</text><line style="stroke:#181818;stroke-width:0.5;" x1="3254" x2="3576" y1="205.5" y2="205.5"/><line style="stroke:#181818;stroke-width:0.5;" x1="3254" x2="3576" y1="213.5" y2="213.5"/><ellipse cx="3264" cy="227.1484" fill="#84BE84" rx="3" ry="3" style="stroke:#038048;stroke-width:1.0;"/><text fill="#000000" font-family="sans-serif" font-size="14" lengthAdjust="spacing" textLength="298" x="3273" y="230.4951">getWeight(double, double, double): double</text></g></a><!--MD5=[836be993460ba17d7072e1650a232679]
class elki.math.linearalgebra.pca.weightfunctions.ErfcStddevWeight--><a href="ErfcStddevWeight.html" target="_top" title="ErfcStddevWeight.html" xlink:actuate="onRequest" xlink:href="ErfcStddevWeight.html" xlink:show="new" xlink:title="ErfcStddevWeight.html" xlink:type="simple"><g id="elem_elki.math.linearalgebra.pca.weightfunctions.ErfcStddevWeight"><rect codeLine="49" fill="#F1F1F1" height="64.2969" id="elki.math.linearalgebra.pca.weightfunctions.ErfcStddevWeight" rx="2.5" ry="2.5" style="stroke:#181818;stroke-width:0.5;" width="324" x="3612" y="173.5"/><ellipse cx="3708.75" cy="189.5" fill="#ADD1B2" rx="11" ry="11" style="stroke:#181818;stroke-width:1.0;"/><path d="M3711.7188,195.1406 Q3711.1406,195.4375 3710.5,195.5781 Q3709.8594,195.7344 3709.1563,195.7344 Q3706.6563,195.7344 3705.3281,194.0938 Q3704.0156,192.4375 3704.0156,189.3125 Q3704.0156,186.1875 3705.3281,184.5313 Q3706.6563,182.875 3709.1563,182.875 Q3709.8594,182.875 3710.5,183.0313 Q3711.1563,183.1875 3711.7188,183.4844 L3711.7188,186.2031 Q3711.0938,185.625 3710.5,185.3594 Q3709.9063,185.0781 3709.2813,185.0781 Q3707.9375,185.0781 3707.25,186.1563 Q3706.5625,187.2188 3706.5625,189.3125 Q3706.5625,191.4063 3707.25,192.4844 Q3707.9375,193.5469 3709.2813,193.5469 Q3709.9063,193.5469 3710.5,193.2813 Q3711.0938,193 3711.7188,192.4219 L3711.7188,195.1406 Z " fill="#000000"/><text fill="#000000" font-family="sans-serif" font-size="14" lengthAdjust="spacing" textLength="122" x="3729.25" y="194.3467">ErfcStddevWeight</text><line style="stroke:#181818;stroke-width:0.5;" x1="3613" x2="3935" y1="205.5" y2="205.5"/><line style="stroke:#181818;stroke-width:0.5;" x1="3613" x2="3935" y1="213.5" y2="213.5"/><ellipse cx="3623" cy="227.1484" fill="#84BE84" rx="3" ry="3" style="stroke:#038048;stroke-width:1.0;"/><text fill="#000000" font-family="sans-serif" font-size="14" lengthAdjust="spacing" textLength="298" x="3632" y="230.4951">getWeight(double, double, double): double</text></g></a><!--MD5=[0461321b9a5f6fa413963870a7e890a5]
class elki.math.linearalgebra.pca.weightfunctions.InverseLinearWeight--><a href="InverseLinearWeight.html" target="_top" title="InverseLinearWeight.html" xlink:actuate="onRequest" xlink:href="InverseLinearWeight.html" xlink:show="new" xlink:title="InverseLinearWeight.html" xlink:type="simple"><g id="elem_elki.math.linearalgebra.pca.weightfunctions.InverseLinearWeight"><rect codeLine="53" fill="#F1F1F1" height="64.2969" id="elki.math.linearalgebra.pca.weightfunctions.InverseLinearWeight" rx="2.5" ry="2.5" style="stroke:#181818;stroke-width:0.5;" width="324" x="3971" y="173.5"/><ellipse cx="4059.25" cy="189.5" fill="#ADD1B2" rx="11" ry="11" style="stroke:#181818;stroke-width:1.0;"/><path d="M4062.2188,195.1406 Q4061.6406,195.4375 4061,195.5781 Q4060.3594,195.7344 4059.6563,195.7344 Q4057.1563,195.7344 4055.8281,194.0938 Q4054.5156,192.4375 4054.5156,189.3125 Q4054.5156,186.1875 4055.8281,184.5313 Q4057.1563,182.875 4059.6563,182.875 Q4060.3594,182.875 4061,183.0313 Q4061.6563,183.1875 4062.2188,183.4844 L4062.2188,186.2031 Q4061.5938,185.625 4061,185.3594 Q4060.4063,185.0781 4059.7813,185.0781 Q4058.4375,185.0781 4057.75,186.1563 Q4057.0625,187.2188 4057.0625,189.3125 Q4057.0625,191.4063 4057.75,192.4844 Q4058.4375,193.5469 4059.7813,193.5469 Q4060.4063,193.5469 4061,193.2813 Q4061.5938,193 4062.2188,192.4219 L4062.2188,195.1406 Z " fill="#000000"/><text fill="#000000" font-family="sans-serif" font-size="14" lengthAdjust="spacing" textLength="139" x="4079.75" y="194.3467">InverseLinearWeight</text><line style="stroke:#181818;stroke-width:0.5;" x1="3972" x2="4294" y1="205.5" y2="205.5"/><line style="stroke:#181818;stroke-width:0.5;" x1="3972" x2="4294" y1="213.5" y2="213.5"/><ellipse cx="3982" cy="227.1484" fill="#84BE84" rx="3" ry="3" style="stroke:#038048;stroke-width:1.0;"/><text fill="#000000" font-family="sans-serif" font-size="14" lengthAdjust="spacing" textLength="298" x="3991" y="230.4951">getWeight(double, double, double): double</text></g></a><!--MD5=[3aeaf59a8ffc88f660bdab6157ba5642]
class elki.math.linearalgebra.pca.weightfunctions.GaussWeight--><a href="GaussWeight.html" target="_top" title="GaussWeight.html" xlink:actuate="onRequest" xlink:href="GaussWeight.html" xlink:show="new" xlink:title="GaussWeight.html" xlink:type="simple"><g id="elem_elki.math.linearalgebra.pca.weightfunctions.GaussWeight"><rect codeLine="57" fill="#F1F1F1" height="64.2969" id="elki.math.linearalgebra.pca.weightfunctions.GaussWeight" rx="2.5" ry="2.5" style="stroke:#181818;stroke-width:0.5;" width="324" x="4330" y="173.5"/><ellipse cx="4441.75" cy="189.5" fill="#ADD1B2" rx="11" ry="11" style="stroke:#181818;stroke-width:1.0;"/><path d="M4444.7188,195.1406 Q4444.1406,195.4375 4443.5,195.5781 Q4442.8594,195.7344 4442.1563,195.7344 Q4439.6563,195.7344 4438.3281,194.0938 Q4437.0156,192.4375 4437.0156,189.3125 Q4437.0156,186.1875 4438.3281,184.5313 Q4439.6563,182.875 4442.1563,182.875 Q4442.8594,182.875 4443.5,183.0313 Q4444.1563,183.1875 4444.7188,183.4844 L4444.7188,186.2031 Q4444.0938,185.625 4443.5,185.3594 Q4442.9063,185.0781 4442.2813,185.0781 Q4440.9375,185.0781 4440.25,186.1563 Q4439.5625,187.2188 4439.5625,189.3125 Q4439.5625,191.4063 4440.25,192.4844 Q4440.9375,193.5469 4442.2813,193.5469 Q4442.9063,193.5469 4443.5,193.2813 Q4444.0938,193 4444.7188,192.4219 L4444.7188,195.1406 Z " fill="#000000"/><text fill="#000000" font-family="sans-serif" font-size="14" lengthAdjust="spacing" textLength="92" x="4462.25" y="194.3467">GaussWeight</text><line style="stroke:#181818;stroke-width:0.5;" x1="4331" x2="4653" y1="205.5" y2="205.5"/><line style="stroke:#181818;stroke-width:0.5;" x1="4331" x2="4653" y1="213.5" y2="213.5"/><ellipse cx="4341" cy="227.1484" fill="#84BE84" rx="3" ry="3" style="stroke:#038048;stroke-width:1.0;"/><text fill="#000000" font-family="sans-serif" font-size="14" lengthAdjust="spacing" textLength="298" x="4350" y="230.4951">getWeight(double, double, double): double</text></g></a><!--MD5=[3fd390adccbbf3f44d58e26829305e07]
reverse link elki.math.linearalgebra.pca.weightfunctions.WeightFunction to elki.math.linearalgebra.pca.weightfunctions.GaussStddevWeight--><g id="link_elki.math.linearalgebra.pca.weightfunctions.WeightFunction_elki.math.linearalgebra.pca.weightfunctions.GaussStddevWeight"><path codeLine="61" d="M2152.43,78.52 C1729.88,89.48 706.18,119.9 364,165 C347.35,167.19 329.95,170.15 312.83,173.46 " fill="none" id="elki.math.linearalgebra.pca.weightfunctions.WeightFunction-backto-elki.math.linearalgebra.pca.weightfunctions.GaussStddevWeight" style="stroke:#181818;stroke-width:1.0;stroke-dasharray:7.0,7.0;"/><polygon fill="none" points="2152.53,71.52,2172.7,78,2152.89,85.51,2152.53,71.52" style="stroke:#181818;stroke-width:1.0;"/></g><!--MD5=[c0b7937bee6b0742d90133e43ae69405]
reverse link elki.math.linearalgebra.pca.weightfunctions.WeightFunction to elki.math.linearalgebra.pca.weightfunctions.InverseProportionalWeight--><g id="link_elki.math.linearalgebra.pca.weightfunctions.WeightFunction_elki.math.linearalgebra.pca.weightfunctions.InverseProportionalWeight"><path codeLine="62" d="M2152.71,74.85 C1851.5,78.37 1237.55,94.51 723,165 C706.68,167.24 689.63,170.17 672.83,173.43 " fill="none" id="elki.math.linearalgebra.pca.weightfunctions.WeightFunction-backto-elki.math.linearalgebra.pca.weightfunctions.InverseProportionalWeight" style="stroke:#181818;stroke-width:1.0;stroke-dasharray:7.0,7.0;"/><polygon fill="none" points="2152.89,67.85,2172.97,74.62,2153.05,81.84,2152.89,67.85" style="stroke:#181818;stroke-width:1.0;"/></g><!--MD5=[e9896093c0b0e59cf65e3cc8a441e9bf]
reverse link elki.math.linearalgebra.pca.weightfunctions.WeightFunction to elki.math.linearalgebra.pca.weightfunctions.QuadraticStddevWeight--><g id="link_elki.math.linearalgebra.pca.weightfunctions.WeightFunction_elki.math.linearalgebra.pca.weightfunctions.QuadraticStddevWeight"><path codeLine="63" d="M2152.6,79.11 C1906.75,87.78 1459.88,110.14 1082,165 C1076.14,165.85 1070.19,166.78 1064.19,167.78 " fill="none" id="elki.math.linearalgebra.pca.weightfunctions.WeightFunction-backto-elki.math.linearalgebra.pca.weightfunctions.QuadraticStddevWeight" style="stroke:#181818;stroke-width:1.0;stroke-dasharray:7.0,7.0;"/><polygon fill="none" points="2152.62,72.1,2172.85,78.41,2153.1,86.09,2152.62,72.1" style="stroke:#181818;stroke-width:1.0;"/></g><!--MD5=[69b9062b218d913fa6b92b86e40dfb8f]
reverse link elki.math.linearalgebra.pca.weightfunctions.WeightFunction to elki.math.linearalgebra.pca.weightfunctions.ErfcWeight--><g id="link_elki.math.linearalgebra.pca.weightfunctions.WeightFunction_elki.math.linearalgebra.pca.weightfunctions.ErfcWeight"><path codeLine="64" d="M2152.74,86.55 C1970.8,100.34 1685.7,125.87 1441,165 C1425.84,167.42 1410.03,170.33 1394.36,173.45 " fill="none" id="elki.math.linearalgebra.pca.weightfunctions.WeightFunction-backto-elki.math.linearalgebra.pca.weightfunctions.ErfcWeight" style="stroke:#181818;stroke-width:1.0;stroke-dasharray:7.0,7.0;"/><polygon fill="none" points="2152.29,79.56,2172.76,85.04,2153.34,93.52,2152.29,79.56" style="stroke:#181818;stroke-width:1.0;"/></g><!--MD5=[e5260462cd7118c65dc7ab43532a88da]
reverse link elki.math.linearalgebra.pca.weightfunctions.WeightFunction to elki.math.linearalgebra.pca.weightfunctions.ExponentialStddevWeight--><g id="link_elki.math.linearalgebra.pca.weightfunctions.WeightFunction_elki.math.linearalgebra.pca.weightfunctions.ExponentialStddevWeight"><path codeLine="65" d="M2152.74,103.06 C2048.82,119.93 1916.94,142.29 1800,165 C1786.5,167.62 1772.45,170.48 1758.42,173.42 " fill="none" id="elki.math.linearalgebra.pca.weightfunctions.WeightFunction-backto-elki.math.linearalgebra.pca.weightfunctions.ExponentialStddevWeight" style="stroke:#181818;stroke-width:1.0;stroke-dasharray:7.0,7.0;"/><polygon fill="none" points="2151.94,96.1,2172.8,99.82,2154.18,109.92,2151.94,96.1" style="stroke:#181818;stroke-width:1.0;"/></g><!--MD5=[043d4f08aeeded8e5f863cdd656dafd8]
reverse link elki.math.linearalgebra.pca.weightfunctions.WeightFunction to elki.math.linearalgebra.pca.weightfunctions.InverseProportionalStddevWeight--><g id="link_elki.math.linearalgebra.pca.weightfunctions.WeightFunction_elki.math.linearalgebra.pca.weightfunctions.InverseProportionalStddevWeight"><path codeLine="66" d="M2233.59,111.95 C2179.88,131.48 2115.21,154.98 2064.5,173.42 " fill="none" id="elki.math.linearalgebra.pca.weightfunctions.WeightFunction-backto-elki.math.linearalgebra.pca.weightfunctions.InverseProportionalStddevWeight" style="stroke:#181818;stroke-width:1.0;stroke-dasharray:7.0,7.0;"/><polygon fill="none" points="2231.28,105.35,2252.47,105.09,2236.06,118.5,2231.28,105.35" style="stroke:#181818;stroke-width:1.0;"/></g><!--MD5=[61dd3f545961dfb22150635c64212105]
reverse link elki.math.linearalgebra.pca.weightfunctions.WeightFunction to elki.math.linearalgebra.pca.weightfunctions.ConstantWeight--><g id="link_elki.math.linearalgebra.pca.weightfunctions.WeightFunction_elki.math.linearalgebra.pca.weightfunctions.ConstantWeight"><path codeLine="67" d="M2338,125.27 C2338,141.57 2338,159.09 2338,173.5 " fill="none" id="elki.math.linearalgebra.pca.weightfunctions.WeightFunction-backto-elki.math.linearalgebra.pca.weightfunctions.ConstantWeight" style="stroke:#181818;stroke-width:1.0;stroke-dasharray:7.0,7.0;"/><polygon fill="none" points="2331,125.26,2338,105.26,2345,125.26,2331,125.26" style="stroke:#181818;stroke-width:1.0;"/></g><!--MD5=[b1d7cee19ace4b9a22a0066d91176bf4]
reverse link elki.math.linearalgebra.pca.weightfunctions.WeightFunction to elki.math.linearalgebra.pca.weightfunctions.QuadraticWeight--><g id="link_elki.math.linearalgebra.pca.weightfunctions.WeightFunction_elki.math.linearalgebra.pca.weightfunctions.QuadraticWeight"><path codeLine="68" d="M2442.41,111.95 C2496.12,131.48 2560.79,154.98 2611.5,173.42 " fill="none" id="elki.math.linearalgebra.pca.weightfunctions.WeightFunction-backto-elki.math.linearalgebra.pca.weightfunctions.QuadraticWeight" style="stroke:#181818;stroke-width:1.0;stroke-dasharray:7.0,7.0;"/><polygon fill="none" points="2439.94,118.5,2423.53,105.09,2444.72,105.35,2439.94,118.5" style="stroke:#181818;stroke-width:1.0;"/></g><!--MD5=[7e6d7677b5651bcf86be0b5e547f1e35]
reverse link elki.math.linearalgebra.pca.weightfunctions.WeightFunction to elki.math.linearalgebra.pca.weightfunctions.ExponentialWeight--><g id="link_elki.math.linearalgebra.pca.weightfunctions.WeightFunction_elki.math.linearalgebra.pca.weightfunctions.ExponentialWeight"><path codeLine="69" d="M2523,102.89 C2627.21,119.75 2759.62,142.16 2877,165 C2890.43,167.61 2904.4,170.46 2918.35,173.4 " fill="none" id="elki.math.linearalgebra.pca.weightfunctions.WeightFunction-backto-elki.math.linearalgebra.pca.weightfunctions.ExponentialWeight" style="stroke:#181818;stroke-width:1.0;stroke-dasharray:7.0,7.0;"/><polygon fill="none" points="2521.85,109.8,2503.22,99.7,2524.08,95.98,2521.85,109.8" style="stroke:#181818;stroke-width:1.0;"/></g><!--MD5=[1edff007305d47c17422482845e4c325]
reverse link elki.math.linearalgebra.pca.weightfunctions.WeightFunction to elki.math.linearalgebra.pca.weightfunctions.LinearWeight--><g id="link_elki.math.linearalgebra.pca.weightfunctions.WeightFunction_elki.math.linearalgebra.pca.weightfunctions.LinearWeight"><path codeLine="70" d="M2523.06,86.44 C2705.2,100.17 2990.86,125.67 3236,165 C3251.08,167.42 3266.8,170.32 3282.39,173.44 " fill="none" id="elki.math.linearalgebra.pca.weightfunctions.WeightFunction-backto-elki.math.linearalgebra.pca.weightfunctions.LinearWeight" style="stroke:#181818;stroke-width:1.0;stroke-dasharray:7.0,7.0;"/><polygon fill="none" points="2522.44,93.41,2503.02,84.95,2523.49,79.45,2522.44,93.41" style="stroke:#181818;stroke-width:1.0;"/></g><!--MD5=[6408f05643388cd854cfc222aa3bb0b3]
reverse link elki.math.linearalgebra.pca.weightfunctions.WeightFunction to elki.math.linearalgebra.pca.weightfunctions.ErfcStddevWeight--><g id="link_elki.math.linearalgebra.pca.weightfunctions.WeightFunction_elki.math.linearalgebra.pca.weightfunctions.ErfcStddevWeight"><path codeLine="71" d="M2523.3,79.02 C2769.3,87.6 3216.72,109.87 3595,165 C3610.9,167.32 3627.5,170.26 3643.89,173.49 " fill="none" id="elki.math.linearalgebra.pca.weightfunctions.WeightFunction-backto-elki.math.linearalgebra.pca.weightfunctions.ErfcStddevWeight" style="stroke:#181818;stroke-width:1.0;stroke-dasharray:7.0,7.0;"/><polygon fill="none" points="2522.79,86.01,2503.04,78.33,2523.27,72.02,2522.79,86.01" style="stroke:#181818;stroke-width:1.0;"/></g><!--MD5=[fcfec3b10d3b07e3b600e485f94c4e8a]
reverse link elki.math.linearalgebra.pca.weightfunctions.WeightFunction to elki.math.linearalgebra.pca.weightfunctions.InverseLinearWeight--><g id="link_elki.math.linearalgebra.pca.weightfunctions.WeightFunction_elki.math.linearalgebra.pca.weightfunctions.InverseLinearWeight"><path codeLine="72" d="M2523.42,74.77 C2824.82,78.19 3439.17,94.17 3954,165 C3970.24,167.23 3987.18,170.17 4003.9,173.43 " fill="none" id="elki.math.linearalgebra.pca.weightfunctions.WeightFunction-backto-elki.math.linearalgebra.pca.weightfunctions.InverseLinearWeight" style="stroke:#181818;stroke-width:1.0;stroke-dasharray:7.0,7.0;"/><polygon fill="none" points="2523.07,81.77,2503.14,74.55,2523.22,67.77,2523.07,81.77" style="stroke:#181818;stroke-width:1.0;"/></g><!--MD5=[22a84edbe08a8793537759210bfdb820]
reverse link elki.math.linearalgebra.pca.weightfunctions.WeightFunction to elki.math.linearalgebra.pca.weightfunctions.GaussWeight--><g id="link_elki.math.linearalgebra.pca.weightfunctions.WeightFunction_elki.math.linearalgebra.pca.weightfunctions.GaussWeight"><path codeLine="73" d="M2523.28,78.48 C2945.82,89.37 3970.57,119.67 4313,165 C4329.56,167.19 4346.86,170.15 4363.9,173.46 " fill="none" id="elki.math.linearalgebra.pca.weightfunctions.WeightFunction-backto-elki.math.linearalgebra.pca.weightfunctions.GaussWeight" style="stroke:#181818;stroke-width:1.0;stroke-dasharray:7.0,7.0;"/><polygon fill="none" points="2522.82,85.47,2503.01,77.96,2523.18,71.48,2522.82,85.47" style="stroke:#181818;stroke-width:1.0;"/></g><rect fill="none" height="11.6406" style="stroke:none;stroke-width:1.0;" width="186" x="2238.5" y="268"/><text fill="#888888" font-family="sans-serif" font-size="10" lengthAdjust="spacing" textLength="186" x="2238.5" y="277.2822">UMLDoclet 2.0.19, PlantUML 1.2022.8</text><!--MD5=[8f651bdfbfeadf713babc1c4e4d8ca1a]
@startuml
    remove .*\.(Instance|Par|Parameterizer|Factory)$
    namespace elki.math.linearalgebra.pca.weightfunctions {

        class GaussStddevWeight [[GaussStddevWeight.html]] {
            +getWeight(double, double, double): double
        }

        interface WeightFunction [[WeightFunction.html]] {
            {abstract} +getWeight(double, double, double): double
        }

        class InverseProportionalWeight [[InverseProportionalWeight.html]] {
            +getWeight(double, double, double): double
        }

        class QuadraticStddevWeight [[QuadraticStddevWeight.html]] {
            {static} -scaling: double
            +getWeight(double, double, double): double
        }

        class ErfcWeight [[ErfcWeight.html]] {
            +getWeight(double, double, double): double
        }

        class ExponentialStddevWeight [[ExponentialStddevWeight.html]] {
            +getWeight(double, double, double): double
        }

        class InverseProportionalStddevWeight [[InverseProportionalStddevWeight.html]] {
            +getWeight(double, double, double): double
        }

        class ConstantWeight [[ConstantWeight.html]] {
            +getWeight(double, double, double): double
        }

        class QuadraticWeight [[QuadraticWeight.html]] {
            +getWeight(double, double, double): double
        }

        class ExponentialWeight [[ExponentialWeight.html]] {
            +getWeight(double, double, double): double
        }

        class LinearWeight [[LinearWeight.html]] {
            +getWeight(double, double, double): double
        }

        class ErfcStddevWeight [[ErfcStddevWeight.html]] {
            +getWeight(double, double, double): double
        }

        class InverseLinearWeight [[InverseLinearWeight.html]] {
            +getWeight(double, double, double): double
        }

        class GaussWeight [[GaussWeight.html]] {
            +getWeight(double, double, double): double
        }

        WeightFunction <|.. GaussStddevWeight
        WeightFunction <|.. InverseProportionalWeight
        WeightFunction <|.. QuadraticStddevWeight
        WeightFunction <|.. ErfcWeight
        WeightFunction <|.. ExponentialStddevWeight
        WeightFunction <|.. InverseProportionalStddevWeight
        WeightFunction <|.. ConstantWeight
        WeightFunction <|.. QuadraticWeight
        WeightFunction <|.. ExponentialWeight
        WeightFunction <|.. LinearWeight
        WeightFunction <|.. ErfcStddevWeight
        WeightFunction <|.. InverseLinearWeight
        WeightFunction <|.. GaussWeight
    }

    center footer UMLDoclet 2.0.19, PlantUML 1.2022.8
@enduml

PlantUML version 1.2022.8(Sun Sep 25 11:00:33 CEST 2022)
(APACHE source distribution)
Java Runtime: OpenJDK Runtime Environment
JVM: OpenJDK 64-Bit Server VM
Default Encoding: UTF-8
Language: de
Country: DE
--></g></svg>