<?xml version="1.0" encoding="UTF-8" standalone="no"?><svg xmlns="http://www.w3.org/2000/svg" xmlns:xlink="http://www.w3.org/1999/xlink" contentStyleType="text/css" height="69px" preserveAspectRatio="none" style="width:194px;height:69px;background:#FFFFFF;" version="1.1" viewBox="0 0 194 69" width="194px" zoomAndPan="magnify"><defs/><g><!--MD5=[027a3a694b0522c1440370b2f649859b]
class elki.clustering.em.BetulaGMM--><a href="BetulaGMM.html" target="_top" title="BetulaGMM.html" xlink:actuate="onRequest" xlink:href="BetulaGMM.html" xlink:show="new" xlink:title="BetulaGMM.html" xlink:type="simple"><g id="elem_elki.clustering.em.BetulaGMM"><rect codeLine="24" fill="#F1F1F1" height="37.9375" id="elki.clustering.em.BetulaGMM" rx="2.5" ry="2.5" style="stroke:#181818;stroke-width:0.5;" width="115" x="42.5" y="7"/><ellipse cx="57.5" cy="25.9688" fill="#ADD1B2" rx="11" ry="11" style="stroke:#181818;stroke-width:1.0;"/><path d="M60.4688,31.6094 Q59.8906,31.9063 59.25,32.0469 Q58.6094,32.2031 57.9063,32.2031 Q55.4063,32.2031 54.0781,30.5625 Q52.7656,28.9063 52.7656,25.7813 Q52.7656,22.6563 54.0781,21 Q55.4063,19.3438 57.9063,19.3438 Q58.6094,19.3438 59.25,19.5 Q59.9063,19.6563 60.4688,19.9531 L60.4688,22.6719 Q59.8438,22.0938 59.25,21.8281 Q58.6563,21.5469 58.0313,21.5469 Q56.6875,21.5469 56,22.625 Q55.3125,23.6875 55.3125,25.7813 Q55.3125,27.875 56,28.9531 Q56.6875,30.0156 58.0313,30.0156 Q58.6563,30.0156 59.25,29.75 Q59.8438,29.4688 60.4688,28.8906 L60.4688,31.6094 Z " fill="#000000"/><text fill="#000000" font-family="sans-serif" font-size="14" lengthAdjust="spacing" textLength="79" x="73.5" y="24.9951">BetulaGMM</text><text fill="#000000" font-family="sans-serif" font-size="10" lengthAdjust="spacing" textLength="83" x="71.5" y="37.5791">elki.clustering.em</text></g></a><rect fill="none" height="11.6406" style="stroke:none;stroke-width:1.0;" width="186" x="0" y="49.9375"/><text fill="#888888" font-family="sans-serif" font-size="10" lengthAdjust="spacing" textLength="186" x="0" y="59.2197">UMLDoclet 2.0.19, PlantUML 1.2022.8</text><!--MD5=[b53160858845b3c5f52376a37f77d0e1]
@startuml
    remove .*\.(Instance|Par|Parameterizer|Factory)$
    set namespaceSeparator none
    hide empty fields
    hide empty methods

    class "<size:14>BetulaGMM.Par\n<size:10>elki.clustering.em" as elki.clustering.em.BetulaGMM.Par [[BetulaGMM.Par.html]] {
        {static} +INIT_ID: OptionID
        {static} +DELTA_ID: OptionID
        {static} +PRIOR_ID: OptionID
        ~cffactory: Factory<?>
        #k: int
        #maxiter: int
        #delta: double
        #soft: boolean
        #prior: double
        #initialization: BetulaClusterModelFactory<?>
        +configure(Parameterization): void
        +make(): BetulaGMM
    }

    interface "<size:14>Parameterizer\n<size:10>elki.utilities.optionhandling" as elki.utilities.optionhandling.Parameterizer [[../../utilities/optionhandling/Parameterizer.html]] {
        {abstract} +make(): Object
    }
    class "<size:14>BetulaGMM\n<size:10>elki.clustering.em" as elki.clustering.em.BetulaGMM [[BetulaGMM.html]]

    elki.utilities.optionhandling.Parameterizer <|.. elki.clustering.em.BetulaGMM.Par
    elki.clustering.em.BetulaGMM +- - elki.clustering.em.BetulaGMM.Par

    center footer UMLDoclet 2.0.19, PlantUML 1.2022.8
@enduml

PlantUML version 1.2022.8(Sun Sep 25 11:00:33 CEST 2022)
(APACHE source distribution)
Java Runtime: OpenJDK Runtime Environment
JVM: OpenJDK 64-Bit Server VM
Default Encoding: UTF-8
Language: de
Country: DE
--></g></svg>