<?xml version="1.0" encoding="UTF-8" standalone="no"?>
<!DOCTYPE svg PUBLIC "-//W3C//DTD SVG 1.1//EN"
 "http://www.w3.org/Graphics/SVG/1.1/DTD/svg11.dtd">
<!-- Generated by graphviz version 2.40.1 (20161225.0304)
 -->
<!-- Title: G Pages: 1 -->
<svg width="341pt" height="75pt"
 viewBox="0.00 0.00 341.00 75.00" xmlns="http://www.w3.org/2000/svg" xmlns:xlink="http://www.w3.org/1999/xlink">
<g id="graph0" class="graph" transform="scale(1 1) rotate(0) translate(4 71)">
<title>G</title>
<polygon fill="#ffffff" stroke="transparent" points="-4,4 -4,-71 337,-71 337,4 -4,4"/>
<!-- c10595389 -->
<g id="node1" class="node">
<title>c10595389</title>
<g id="a_node1"><a xlink:href="../visualization/gui/SelectionTableWindow.html" xlink:title="&lt;TABLE&gt;">
<g id="a_node1_0"><a xlink:href="../visualization/gui/SelectionTableWindow.html" xlink:title="de.lmu.ifi.dbs.elki.visualization.gui.SelectionTableWindow" target="_parent">
<polygon fill="none" stroke="#000000" points=".5,-39 .5,-67 129.5,-67 129.5,-39 .5,-39"/>
<text text-anchor="start" x="22.5" y="-57.6" font-family="Roboto" font-size="8.00" fill="#000000"> </text>
<text text-anchor="start" x="25.5" y="-57.6" font-family="Roboto" font-size="8.00" fill="#000000">SelectionTableWindow</text>
<text text-anchor="start" x="104.5" y="-57.6" font-family="Roboto" font-size="8.00" fill="#000000"> </text>
<text text-anchor="start" x="4.5" y="-46.6" font-family="Roboto" font-size="8.00" fill="#000000"> </text>
<text text-anchor="start" x="7.5" y="-46.6" font-family="Roboto" font-size="7.00" fill="#000000">de.lmu.ifi.dbs.elki.visualization.gui</text>
<text text-anchor="start" x="122.5" y="-46.6" font-family="Roboto" font-size="8.00" fill="#000000"> </text>
</a>
</g>
</a>
</g>
</g>
<!-- c10596245 -->
<g id="node2" class="node">
<title>c10596245</title>
<g id="a_node2"><a xlink:href="UpdatableDatabase.html" xlink:title="&lt;TABLE&gt;">
<g id="a_node2_1"><a xlink:href="UpdatableDatabase.html" xlink:title="de.lmu.ifi.dbs.elki.database.UpdatableDatabase" target="_parent">
<polygon fill="#fffacd" stroke="transparent" points="147,0 147,-28 232,-28 232,0 147,0"/>
<polygon fill="none" stroke="#000000" points="147.5,0 147.5,-28 232.5,-28 232.5,0 147.5,0"/>
<text text-anchor="start" x="168.5" y="-17.6" font-family="Roboto" font-size="8.00" fill="#000000"> «interface» </text>
<text text-anchor="start" x="151.5" y="-7.6" font-family="Roboto" font-size="8.00" fill="#000000"> </text>
<text text-anchor="start" x="154.5" y="-7.6" font-family="Roboto" font-size="8.00" fill="#000000">UpdatableDatabase</text>
<text text-anchor="start" x="225.5" y="-7.6" font-family="Roboto" font-size="8.00" fill="#000000"> </text>
</a>
</g>
</a>
</g>
</g>
<!-- c10595389&#45;&gt;c10596245 -->
<g id="edge3" class="edge">
<title>c10595389&#45;&gt;c10596245</title>
<path fill="none" stroke="#000000" d="M112.8046,-38.9583C118.2751,-37.3124 123.7631,-35.6364 129,-34 131.9153,-33.089 134.9054,-32.1419 137.9204,-31.1771"/>
<polygon fill="#000000" stroke="#000000" points="147.5729,-28.0576 139.4413,-35.4148 142.8152,-29.5952 138.0574,-31.1328 138.0574,-31.1328 138.0574,-31.1328 142.8152,-29.5952 136.6736,-26.8509 147.5729,-28.0576 147.5729,-28.0576"/>
</g>
<!-- c10597325 -->
<g id="node4" class="node">
<title>c10597325</title>
<g id="a_node4"><a xlink:href="HashmapDatabase.html" xlink:title="&lt;TABLE&gt;">
<g id="a_node4_2"><a xlink:href="HashmapDatabase.html" xlink:title="de.lmu.ifi.dbs.elki.database.HashmapDatabase" target="_parent">
<polygon fill="#fffacd" stroke="transparent" points="250,-5.5 250,-22.5 333,-22.5 333,-5.5 250,-5.5"/>
<polygon fill="none" stroke="#000000" points="250.5,-5 250.5,-22 333.5,-22 333.5,-5 250.5,-5"/>
<text text-anchor="start" x="254.5" y="-12.6" font-family="Roboto" font-size="8.00" fill="#000000"> </text>
<text text-anchor="start" x="257.5" y="-12.6" font-family="Roboto" font-size="8.00" fill="#000000">HashmapDatabase</text>
<text text-anchor="start" x="326.5" y="-12.6" font-family="Roboto" font-size="8.00" fill="#000000"> </text>
</a>
</g>
</a>
</g>
</g>
<!-- c10596245&#45;&gt;c10597325 -->
<g id="edge2" class="edge">
<title>c10596245&#45;&gt;c10597325</title>
<path fill="none" stroke="#000000" stroke-dasharray="5,2" d="M242.2022,-14C244.8116,-14 247.415,-14 249.9851,-14"/>
<polygon fill="none" stroke="#000000" points="242.1662,-10.5001 232.1662,-14 242.1661,-17.5001 242.1662,-10.5001"/>
</g>
<!-- c10596246 -->
<g id="node3" class="node">
<title>c10596246</title>
<g id="a_node3"><a xlink:href="Database.html" xlink:title="&lt;TABLE&gt;">
<g id="a_node3_3"><a xlink:href="Database.html" xlink:title="de.lmu.ifi.dbs.elki.database.Database" target="_parent">
<polygon fill="#fffacd" stroke="transparent" points="39,0 39,-28 90,-28 90,0 39,0"/>
<polygon fill="none" stroke="#000000" points="39.5,0 39.5,-28 90.5,-28 90.5,0 39.5,0"/>
<text text-anchor="start" x="43.5" y="-17.6" font-family="Roboto" font-size="8.00" fill="#000000"> «interface» </text>
<text text-anchor="start" x="45" y="-7.6" font-family="Roboto" font-size="8.00" fill="#000000"> </text>
<text text-anchor="start" x="48" y="-7.6" font-family="Roboto" font-size="8.00" fill="#000000">Database</text>
<text text-anchor="start" x="82" y="-7.6" font-family="Roboto" font-size="8.00" fill="#000000"> </text>
</a>
</g>
</a>
</g>
</g>
<!-- c10596246&#45;&gt;c10596245 -->
<g id="edge1" class="edge">
<title>c10596246&#45;&gt;c10596245</title>
<path fill="none" stroke="#000000" stroke-dasharray="5,2" d="M100.1768,-14C114.6768,-14 131.554,-14 146.7089,-14"/>
<polygon fill="none" stroke="#000000" points="100.0973,-10.5001 90.0973,-14 100.0972,-17.5001 100.0973,-10.5001"/>
</g>
</g>
</svg>
