<?xml version="1.0" encoding="UTF-8" standalone="no"?><svg xmlns="http://www.w3.org/2000/svg" xmlns:xlink="http://www.w3.org/1999/xlink" contentStyleType="text/css" height="72px" preserveAspectRatio="none" style="width:194px;height:72px;background:#FFFFFF;" version="1.1" viewBox="0 0 194 72" width="194px" zoomAndPan="magnify"><defs/><g><!--MD5=[ef5b401196ebdce9dd11d76f2ea05e5e]
class elki.classification.KNNClassifier--><a href="KNNClassifier.html" target="_top" title="KNNClassifier.html" xlink:actuate="onRequest" xlink:href="KNNClassifier.html" xlink:show="new" xlink:title="KNNClassifier.html" xlink:type="simple"><g id="elem_elki.classification.KNNClassifier"><rect codeLine="17" fill="#F1F1F1" height="37.9375" id="elki.classification.KNNClassifier" rx="2.5" ry="2.5" style="stroke:#181818;stroke-width:0.5;" width="134" x="31" y="10"/><ellipse cx="46" cy="28.9688" fill="#ADD1B2" rx="11" ry="11" style="stroke:#181818;stroke-width:1.0;"/><path d="M48.9688,34.6094 Q48.3906,34.9063 47.75,35.0469 Q47.1094,35.2031 46.4063,35.2031 Q43.9063,35.2031 42.5781,33.5625 Q41.2656,31.9063 41.2656,28.7813 Q41.2656,25.6563 42.5781,24 Q43.9063,22.3438 46.4063,22.3438 Q47.1094,22.3438 47.75,22.5 Q48.4063,22.6563 48.9688,22.9531 L48.9688,25.6719 Q48.3438,25.0938 47.75,24.8281 Q47.1563,24.5469 46.5313,24.5469 Q45.1875,24.5469 44.5,25.625 Q43.8125,26.6875 43.8125,28.7813 Q43.8125,30.875 44.5,31.9531 Q45.1875,33.0156 46.5313,33.0156 Q47.1563,33.0156 47.75,32.75 Q48.3438,32.4688 48.9688,31.8906 L48.9688,34.6094 Z " fill="#000000"/><text fill="#000000" font-family="sans-serif" font-size="14" lengthAdjust="spacing" textLength="90" x="60" y="27.9951">KNNClassifier</text><text fill="#000000" font-family="sans-serif" font-size="10" lengthAdjust="spacing" textLength="78" x="66" y="40.5791">elki.classification</text><rect fill="#FFFFFF" height="15.9688" style="stroke:#181818;stroke-width:1.0;stroke-dasharray:2.0,2.0;" width="10" x="158" y="7"/><text fill="#000000" font-family="sans-serif" font-size="12" font-style="italic" lengthAdjust="spacing" textLength="8" x="159" y="19.1387">O</text></g></a><rect fill="none" height="11.6406" style="stroke:none;stroke-width:1.0;" width="186" x="0" y="52.9375"/><text fill="#888888" font-family="sans-serif" font-size="10" lengthAdjust="spacing" textLength="186" x="0" y="62.2197">UMLDoclet 2.0.19, PlantUML 1.2022.8</text><!--MD5=[87e54cb98ecb82ffbf3bd68de80e5df1]
@startuml
    remove .*\.(Instance|Par|Parameterizer|Factory)$
    set namespaceSeparator none
    hide empty fields
    hide empty methods

    class "<size:14>KNNClassifier.Par\n<size:10>elki.classification" as elki.classification.KNNClassifier.Par<O> {
        {static} +K_ID: OptionID
        #distanceFunction: Distance<? super O>
        #k: int
        +configure(Parameterization): void
        +make(): KNNClassifier<O>
    }

    interface "<size:14>Parameterizer\n<size:10>elki.utilities.optionhandling" as elki.utilities.optionhandling.Parameterizer [[../utilities/optionhandling/Parameterizer.html]] {
        {abstract} +make(): Object
    }
    class "<size:14>KNNClassifier\n<size:10>elki.classification" as elki.classification.KNNClassifier<O> [[KNNClassifier.html]]

    elki.utilities.optionhandling.Parameterizer <|.. elki.classification.KNNClassifier.Par
    elki.classification.KNNClassifier +- - elki.classification.KNNClassifier.Par

    center footer UMLDoclet 2.0.19, PlantUML 1.2022.8
@enduml

PlantUML version 1.2022.8(Sun Sep 25 11:00:33 CEST 2022)
(APACHE source distribution)
Java Runtime: OpenJDK Runtime Environment
JVM: OpenJDK 64-Bit Server VM
Default Encoding: UTF-8
Language: de
Country: DE
--></g></svg>