<?xml version="1.0" encoding="UTF-8" standalone="no"?><svg xmlns="http://www.w3.org/2000/svg" xmlns:xlink="http://www.w3.org/1999/xlink" contentStyleType="text/css" height="232px" preserveAspectRatio="none" style="width:440px;height:232px;background:#FFFFFF;" version="1.1" viewBox="0 0 440 232" width="440px" zoomAndPan="magnify"><defs/><g><!--MD5=[0180c6efcb849d4cd3df97664a87a548]
class elki.visualization.parallel3d.layout.Layout--><a href="Layout.html" target="_top" title="Layout.html" xlink:actuate="onRequest" xlink:href="Layout.html" xlink:show="new" xlink:title="Layout.html" xlink:type="simple"><g id="elem_elki.visualization.parallel3d.layout.Layout"><rect codeLine="6" fill="#F1F1F1" height="102.8281" id="elki.visualization.parallel3d.layout.Layout" rx="2.5" ry="2.5" style="stroke:#181818;stroke-width:0.5;" width="234" x="100" y="7"/><ellipse cx="134.8" cy="25.9688" fill="#ADD1B2" rx="11" ry="11" style="stroke:#181818;stroke-width:1.0;"/><path d="M137.7688,31.6094 Q137.1906,31.9063 136.55,32.0469 Q135.9094,32.2031 135.2063,32.2031 Q132.7063,32.2031 131.3781,30.5625 Q130.0656,28.9063 130.0656,25.7813 Q130.0656,22.6563 131.3781,21 Q132.7063,19.3438 135.2063,19.3438 Q135.9094,19.3438 136.55,19.5 Q137.2063,19.6563 137.7688,19.9531 L137.7688,22.6719 Q137.1438,22.0938 136.55,21.8281 Q135.9563,21.5469 135.3313,21.5469 Q133.9875,21.5469 133.3,22.625 Q132.6125,23.6875 132.6125,25.7813 Q132.6125,27.875 133.3,28.9531 Q133.9875,30.0156 135.3313,30.0156 Q135.9563,30.0156 136.55,29.75 Q137.1438,29.4688 137.7688,28.8906 L137.7688,31.6094 Z " fill="#000000"/><text fill="#000000" font-family="sans-serif" font-size="14" lengthAdjust="spacing" textLength="45" x="209.7" y="24.9951">Layout</text><text fill="#000000" font-family="sans-serif" font-size="10" lengthAdjust="spacing" textLength="158" x="153.2" y="37.5791">elki.visualization.parallel3d.layout</text><line style="stroke:#181818;stroke-width:0.5;" x1="101" x2="333" y1="44.9375" y2="44.9375"/><ellipse cx="111" cy="58.5859" fill="none" rx="3" ry="3" style="stroke:#038048;stroke-width:1.0;"/><text fill="#000000" font-family="sans-serif" font-size="14" lengthAdjust="spacing" textLength="208" x="120" y="61.9326">nodes: List&lt;? extends Node&gt;</text><ellipse cx="111" cy="74.8828" fill="none" rx="3" ry="3" style="stroke:#038048;stroke-width:1.0;"/><text fill="#000000" font-family="sans-serif" font-size="14" lengthAdjust="spacing" textLength="207" x="120" y="78.2295">edges: List&lt;? extends Edge&gt;</text><line style="stroke:#181818;stroke-width:0.5;" x1="101" x2="333" y1="85.5313" y2="85.5313"/><ellipse cx="111" cy="99.1797" fill="#84BE84" rx="3" ry="3" style="stroke:#038048;stroke-width:1.0;"/><text fill="#000000" font-family="sans-serif" font-size="14" lengthAdjust="spacing" textLength="133" x="120" y="102.5264">getNode(int): Node</text></g></a><!--MD5=[306afa8c9cd7f1f95f5ce662c14d2123]
class elki.visualization.parallel3d.layout.Layout.Edge--><a href="Layout.Edge.html" target="_top" title="Layout.Edge.html" xlink:actuate="onRequest" xlink:href="Layout.Edge.html" xlink:show="new" xlink:title="Layout.Edge.html" xlink:type="simple"><g id="elem_elki.visualization.parallel3d.layout.Layout.Edge"><rect codeLine="11" fill="#F1F1F1" height="37.9375" id="elki.visualization.parallel3d.layout.Layout.Edge" rx="2.5" ry="2.5" style="stroke:#181818;stroke-width:0.5;" width="190" x="7" y="170"/><ellipse cx="22" cy="188.9688" fill="#ADD1B2" rx="11" ry="11" style="stroke:#181818;stroke-width:1.0;"/><path d="M24.9688,194.6094 Q24.3906,194.9063 23.75,195.0469 Q23.1094,195.2031 22.4063,195.2031 Q19.9063,195.2031 18.5781,193.5625 Q17.2656,191.9063 17.2656,188.7813 Q17.2656,185.6563 18.5781,184 Q19.9063,182.3438 22.4063,182.3438 Q23.1094,182.3438 23.75,182.5 Q24.4063,182.6563 24.9688,182.9531 L24.9688,185.6719 Q24.3438,185.0938 23.75,184.8281 Q23.1563,184.5469 22.5313,184.5469 Q21.1875,184.5469 20.5,185.625 Q19.8125,186.6875 19.8125,188.7813 Q19.8125,190.875 20.5,191.9531 Q21.1875,193.0156 22.5313,193.0156 Q23.1563,193.0156 23.75,192.75 Q24.3438,192.4688 24.9688,191.8906 L24.9688,194.6094 Z " fill="#000000"/><text fill="#000000" font-family="sans-serif" font-size="14" lengthAdjust="spacing" textLength="85" x="72.5" y="187.9951">Layout.Edge</text><text fill="#000000" font-family="sans-serif" font-size="10" lengthAdjust="spacing" textLength="158" x="36" y="200.5791">elki.visualization.parallel3d.layout</text></g></a><!--MD5=[76e6e2a6bdc5dd270147ac8fe61bbc17]
class elki.visualization.parallel3d.layout.Layout.Node--><a href="Layout.Node.html" target="_top" title="Layout.Node.html" xlink:actuate="onRequest" xlink:href="Layout.Node.html" xlink:show="new" xlink:title="Layout.Node.html" xlink:type="simple"><g id="elem_elki.visualization.parallel3d.layout.Layout.Node"><rect codeLine="12" fill="#F1F1F1" height="37.9375" id="elki.visualization.parallel3d.layout.Layout.Node" rx="2.5" ry="2.5" style="stroke:#181818;stroke-width:0.5;" width="201" x="232.5" y="170"/><ellipse cx="247.5" cy="188.9688" fill="#B4A7E5" rx="11" ry="11" style="stroke:#181818;stroke-width:1.0;"/><path d="M243.4219,184.7344 L243.4219,182.5781 L250.8125,182.5781 L250.8125,184.7344 L248.3438,184.7344 L248.3438,192.8125 L250.8125,192.8125 L250.8125,194.9688 L243.4219,194.9688 L243.4219,192.8125 L245.8906,192.8125 L245.8906,184.7344 L243.4219,184.7344 Z " fill="#000000"/><text fill="#000000" font-family="sans-serif" font-size="14" font-style="italic" lengthAdjust="spacing" textLength="90" x="301" y="187.9951">Layout.Node</text><text fill="#000000" font-family="sans-serif" font-size="10" font-style="italic" lengthAdjust="spacing" textLength="169" x="261.5" y="200.5791">elki.visualization.parallel3d.layout</text></g></a><!--MD5=[c0d3776b384d7bd80f0a075fbf566b04]
reverse link elki.visualization.parallel3d.layout.Layout to elki.visualization.parallel3d.layout.Layout.Edge--><g id="link_elki.visualization.parallel3d.layout.Layout_elki.visualization.parallel3d.layout.Layout.Edge"><path codeLine="14" d="M161.5,121.52 C145.67,139.21 129.64,157.12 118.21,169.89 " fill="none" id="elki.visualization.parallel3d.layout.Layout-backto-elki.visualization.parallel3d.layout.Layout.Edge" style="stroke:#181818;stroke-width:1.0;"/><ellipse cx="166.2139" cy="116.2503" fill="#FFFFFF" rx="8" ry="8" style="stroke:#181818;stroke-width:1.0;"/><line style="stroke:#181818;stroke-width:1.0;" x1="160.8777" x2="171.55" y1="122.2107" y2="110.29"/><line style="stroke:#181818;stroke-width:1.0;" x1="160.2535" x2="172.1742" y1="110.9142" y2="121.5865"/></g><!--MD5=[ba85bd3c40a366360b3016d5e4f22d4d]
reverse link elki.visualization.parallel3d.layout.Layout to elki.visualization.parallel3d.layout.Layout.Node--><g id="link_elki.visualization.parallel3d.layout.Layout_elki.visualization.parallel3d.layout.Layout.Node"><path codeLine="15" d="M272.99,121.52 C288.95,139.21 305.12,157.12 316.65,169.89 " fill="none" id="elki.visualization.parallel3d.layout.Layout-backto-elki.visualization.parallel3d.layout.Layout.Node" style="stroke:#181818;stroke-width:1.0;"/><ellipse cx="268.2139" cy="116.2254" fill="#FFFFFF" rx="8" ry="8" style="stroke:#181818;stroke-width:1.0;"/><line style="stroke:#181818;stroke-width:1.0;" x1="273.5778" x2="262.85" y1="122.1607" y2="110.29"/><line style="stroke:#181818;stroke-width:1.0;" x1="262.2786" x2="274.1493" y1="121.5893" y2="110.8614"/></g><rect fill="none" height="11.6406" style="stroke:none;stroke-width:1.0;" width="186" x="120.25" y="212.9375"/><text fill="#888888" font-family="sans-serif" font-size="10" lengthAdjust="spacing" textLength="186" x="120.25" y="222.2197">UMLDoclet 2.0.19, PlantUML 1.2022.8</text><!--MD5=[8d3be128d36d74d04b657300c6617c1b]
@startuml
    remove .*\.(Instance|Par|Parameterizer|Factory)$
    set namespaceSeparator none
    hide empty fields
    hide empty methods

    class "<size:14>Layout\n<size:10>elki.visualization.parallel3d.layout" as elki.visualization.parallel3d.layout.Layout [[Layout.html]] {
        +nodes: List<? extends Node>
        +edges: List<? extends Edge>
        +getNode(int): Node
    }
    class "<size:14>Layout.Edge\n<size:10>elki.visualization.parallel3d.layout" as elki.visualization.parallel3d.layout.Layout.Edge [[Layout.Edge.html]]
    interface "<size:14>Layout.Node\n<size:10>elki.visualization.parallel3d.layout" as elki.visualization.parallel3d.layout.Layout.Node [[Layout.Node.html]]

    elki.visualization.parallel3d.layout.Layout +- - elki.visualization.parallel3d.layout.Layout.Edge
    elki.visualization.parallel3d.layout.Layout +- - elki.visualization.parallel3d.layout.Layout.Node

    center footer UMLDoclet 2.0.19, PlantUML 1.2022.8
@enduml

PlantUML version 1.2022.8(Sun Sep 25 11:00:33 CEST 2022)
(APACHE source distribution)
Java Runtime: OpenJDK Runtime Environment
JVM: OpenJDK 64-Bit Server VM
Default Encoding: UTF-8
Language: de
Country: DE
--></g></svg>