<?xml version="1.0" encoding="UTF-8" standalone="no"?><svg xmlns="http://www.w3.org/2000/svg" xmlns:xlink="http://www.w3.org/1999/xlink" contentStyleType="text/css" height="374px" preserveAspectRatio="none" style="width:461px;height:374px;background:#FFFFFF;" version="1.1" viewBox="0 0 461 374" width="461px" zoomAndPan="magnify"><defs/><g><!--MD5=[cf5185e537fdd7d86d9298f310def66b]
class elki.database.datastore.memory.MapIntegerDBIDRecordStore.StorageAccessor--><a href="MapIntegerDBIDRecordStore.StorageAccessor.html" target="_top" title="MapIntegerDBIDRecordStore.StorageAccessor.html" xlink:actuate="onRequest" xlink:href="MapIntegerDBIDRecordStore.StorageAccessor.html" xlink:show="new" xlink:title="MapIntegerDBIDRecordStore.StorageAccessor.html" xlink:type="simple"><g id="elem_elki.database.datastore.memory.MapIntegerDBIDRecordStore.StorageAccessor"><rect codeLine="6" fill="#F1F1F1" height="168.0156" id="elki.database.datastore.memory.MapIntegerDBIDRecordStore.StorageAccessor" rx="2.5" ry="2.5" style="stroke:#181818;stroke-width:0.5;" width="365" x="34.5" y="181"/><ellipse cx="49.5" cy="199.9688" fill="#ADD1B2" rx="11" ry="11" style="stroke:#181818;stroke-width:1.0;"/><path d="M52.4688,205.6094 Q51.8906,205.9063 51.25,206.0469 Q50.6094,206.2031 49.9063,206.2031 Q47.4063,206.2031 46.0781,204.5625 Q44.7656,202.9063 44.7656,199.7813 Q44.7656,196.6563 46.0781,195 Q47.4063,193.3438 49.9063,193.3438 Q50.6094,193.3438 51.25,193.5 Q51.9063,193.6563 52.4688,193.9531 L52.4688,196.6719 Q51.8438,196.0938 51.25,195.8281 Q50.6563,195.5469 50.0313,195.5469 Q48.6875,195.5469 48,196.625 Q47.3125,197.6875 47.3125,199.7813 Q47.3125,201.875 48,202.9531 Q48.6875,204.0156 50.0313,204.0156 Q50.6563,204.0156 51.25,203.75 Q51.8438,203.4688 52.4688,202.8906 L52.4688,205.6094 Z " fill="#000000"/><text fill="#000000" font-family="sans-serif" font-size="14" lengthAdjust="spacing" textLength="322" x="63.5" y="198.9951">MapIntegerDBIDRecordStore.StorageAccessor</text><text fill="#000000" font-family="sans-serif" font-size="10" lengthAdjust="spacing" textLength="158" x="145.5" y="211.5791">elki.database.datastore.memory</text><rect fill="#FFFFFF" height="15.9688" style="stroke:#181818;stroke-width:1.0;stroke-dasharray:2.0,2.0;" width="9" x="393.5" y="178"/><text fill="#000000" font-family="sans-serif" font-size="12" font-style="italic" lengthAdjust="spacing" textLength="7" x="394.5" y="190.1387">T</text><line style="stroke:#181818;stroke-width:0.5;" x1="35.5" x2="398.5" y1="218.9375" y2="218.9375"/><rect fill="none" height="6" style="stroke:#C82930;stroke-width:1.0;" width="6" x="42.5" y="229.5859"/><text fill="#000000" font-family="sans-serif" font-size="14" lengthAdjust="spacing" textLength="63" x="54.5" y="235.9326">index: int</text><line style="stroke:#181818;stroke-width:0.5;" x1="35.5" x2="398.5" y1="243.2344" y2="243.2344"/><polygon fill="#FFFF44" points="45.5,251.8828,49.5,255.8828,45.5,259.8828,41.5,255.8828" style="stroke:#B38D22;stroke-width:1.0;"/><text fill="#000000" font-family="sans-serif" font-size="14" lengthAdjust="spacing" textLength="145" x="54.5" y="260.2295">StorageAccessor(int)</text><ellipse cx="45.5" cy="273.1797" fill="#84BE84" rx="3" ry="3" style="stroke:#038048;stroke-width:1.0;"/><text fill="#000000" font-family="sans-serif" font-size="14" lengthAdjust="spacing" textLength="109" x="54.5" y="276.5264">get(DBIDRef): T</text><ellipse cx="45.5" cy="289.4766" fill="#84BE84" rx="3" ry="3" style="stroke:#038048;stroke-width:1.0;"/><text fill="#000000" font-family="sans-serif" font-size="14" lengthAdjust="spacing" textLength="126" x="54.5" y="292.8232">put(DBIDRef, T): T</text><ellipse cx="45.5" cy="305.7734" fill="#84BE84" rx="3" ry="3" style="stroke:#038048;stroke-width:1.0;"/><text fill="#000000" font-family="sans-serif" font-size="14" lengthAdjust="spacing" textLength="99" x="54.5" y="309.1201">destroy(): void</text><ellipse cx="45.5" cy="322.0703" fill="#84BE84" rx="3" ry="3" style="stroke:#038048;stroke-width:1.0;"/><text fill="#000000" font-family="sans-serif" font-size="14" lengthAdjust="spacing" textLength="149" x="54.5" y="325.417">delete(DBIDRef): void</text><ellipse cx="45.5" cy="338.3672" fill="#84BE84" rx="3" ry="3" style="stroke:#038048;stroke-width:1.0;"/><text fill="#000000" font-family="sans-serif" font-size="14" lengthAdjust="spacing" textLength="80" x="54.5" y="341.7139">clear(): void</text></g></a><!--MD5=[13401bec90b75ba8c76073d2dfd9fbb7]
class elki.database.datastore.WritableDataStore--><a href="../WritableDataStore.html" target="_top" title="../WritableDataStore.html" xlink:actuate="onRequest" xlink:href="../WritableDataStore.html" xlink:show="new" xlink:title="../WritableDataStore.html" xlink:type="simple"><g id="elem_elki.database.datastore.WritableDataStore"><rect codeLine="16" fill="#F1F1F1" height="111.125" id="elki.database.datastore.WritableDataStore" rx="2.5" ry="2.5" style="stroke:#181818;stroke-width:0.5;" width="180" x="7" y="10"/><ellipse cx="25.15" cy="28.9688" fill="#B4A7E5" rx="11" ry="11" style="stroke:#181818;stroke-width:1.0;"/><path d="M21.0719,24.7344 L21.0719,22.5781 L28.4625,22.5781 L28.4625,24.7344 L25.9938,24.7344 L25.9938,32.8125 L28.4625,32.8125 L28.4625,34.9688 L21.0719,34.9688 L21.0719,32.8125 L23.5406,32.8125 L23.5406,24.7344 L21.0719,24.7344 Z " fill="#000000"/><text fill="#000000" font-family="sans-serif" font-size="14" font-style="italic" lengthAdjust="spacing" textLength="130" x="39.85" y="27.9951">WritableDataStore</text><text fill="#000000" font-family="sans-serif" font-size="10" font-style="italic" lengthAdjust="spacing" textLength="116" x="46.85" y="40.5791">elki.database.datastore</text><rect fill="#FFFFFF" height="15.9688" style="stroke:#181818;stroke-width:1.0;stroke-dasharray:2.0,2.0;" width="9" x="181" y="7"/><text fill="#000000" font-family="sans-serif" font-size="12" font-style="italic" lengthAdjust="spacing" textLength="7" x="182" y="19.1387">T</text><line style="stroke:#181818;stroke-width:0.5;" x1="8" x2="186" y1="47.9375" y2="47.9375"/><ellipse cx="18" cy="61.5859" fill="#84BE84" rx="3" ry="3" style="stroke:#038048;stroke-width:1.0;"/><text fill="#000000" font-family="sans-serif" font-size="14" font-style="italic" lengthAdjust="spacing" textLength="128" x="27" y="64.9326">put(DBIDRef, T): T</text><ellipse cx="18" cy="77.8828" fill="#84BE84" rx="3" ry="3" style="stroke:#038048;stroke-width:1.0;"/><text fill="#000000" font-family="sans-serif" font-size="14" font-style="italic" lengthAdjust="spacing" textLength="101" x="27" y="81.2295">destroy(): void</text><ellipse cx="18" cy="94.1797" fill="#84BE84" rx="3" ry="3" style="stroke:#038048;stroke-width:1.0;"/><text fill="#000000" font-family="sans-serif" font-size="14" font-style="italic" lengthAdjust="spacing" textLength="154" x="27" y="97.5264">delete(DBIDRef): void</text><ellipse cx="18" cy="110.4766" fill="#84BE84" rx="3" ry="3" style="stroke:#038048;stroke-width:1.0;"/><text fill="#000000" font-family="sans-serif" font-size="14" font-style="italic" lengthAdjust="spacing" textLength="84" x="27" y="113.8232">clear(): void</text></g></a><!--MD5=[73e1806a03300033577e14dd0a519696]
class elki.database.datastore.memory.MapIntegerDBIDRecordStore--><a href="MapIntegerDBIDRecordStore.html" target="_top" title="MapIntegerDBIDRecordStore.html" xlink:actuate="onRequest" xlink:href="MapIntegerDBIDRecordStore.html" xlink:show="new" xlink:title="MapIntegerDBIDRecordStore.html" xlink:type="simple"><g id="elem_elki.database.datastore.memory.MapIntegerDBIDRecordStore"><rect codeLine="22" fill="#F1F1F1" height="37.9375" id="elki.database.datastore.memory.MapIntegerDBIDRecordStore" rx="2.5" ry="2.5" style="stroke:#181818;stroke-width:0.5;" width="232" x="222" y="46.5"/><ellipse cx="237" cy="65.4688" fill="#ADD1B2" rx="11" ry="11" style="stroke:#181818;stroke-width:1.0;"/><path d="M239.9688,71.1094 Q239.3906,71.4063 238.75,71.5469 Q238.1094,71.7031 237.4063,71.7031 Q234.9063,71.7031 233.5781,70.0625 Q232.2656,68.4063 232.2656,65.2813 Q232.2656,62.1563 233.5781,60.5 Q234.9063,58.8438 237.4063,58.8438 Q238.1094,58.8438 238.75,59 Q239.4063,59.1563 239.9688,59.4531 L239.9688,62.1719 Q239.3438,61.5938 238.75,61.3281 Q238.1563,61.0469 237.5313,61.0469 Q236.1875,61.0469 235.5,62.125 Q234.8125,63.1875 234.8125,65.2813 Q234.8125,67.375 235.5,68.4531 Q236.1875,69.5156 237.5313,69.5156 Q238.1563,69.5156 238.75,69.25 Q239.3438,68.9688 239.9688,68.3906 L239.9688,71.1094 Z " fill="#000000"/><text fill="#000000" font-family="sans-serif" font-size="14" lengthAdjust="spacing" textLength="200" x="251" y="64.4951">MapIntegerDBIDRecordStore</text><text fill="#000000" font-family="sans-serif" font-size="10" lengthAdjust="spacing" textLength="158" x="272" y="77.0791">elki.database.datastore.memory</text></g></a><!--MD5=[c38ec4cff1203aca529a421567994238]
reverse link elki.database.datastore.WritableDataStore to elki.database.datastore.memory.MapIntegerDBIDRecordStore.StorageAccessor--><g id="link_elki.database.datastore.WritableDataStore_elki.database.datastore.memory.MapIntegerDBIDRecordStore.StorageAccessor"><path codeLine="24" d="M140.85,138.67 C149.14,152.31 157.87,166.68 166.35,180.63 " fill="none" id="elki.database.datastore.WritableDataStore-backto-elki.database.datastore.memory.MapIntegerDBIDRecordStore.StorageAccessor" style="stroke:#181818;stroke-width:1.0;stroke-dasharray:7.0,7.0;"/><polygon fill="none" points="134.67,141.98,130.27,121.25,146.63,134.71,134.67,141.98" style="stroke:#181818;stroke-width:1.0;"/></g><!--MD5=[0c02312ffda089e4d5443e2bc191c3ce]
reverse link elki.database.datastore.memory.MapIntegerDBIDRecordStore to elki.database.datastore.memory.MapIntegerDBIDRecordStore.StorageAccessor--><g id="link_elki.database.datastore.memory.MapIntegerDBIDRecordStore_elki.database.datastore.memory.MapIntegerDBIDRecordStore.StorageAccessor"><path codeLine="25" d="M318.87,97.73 C305.16,120.11 286.01,151.36 268.01,180.74 " fill="none" id="elki.database.datastore.memory.MapIntegerDBIDRecordStore-backto-elki.database.datastore.memory.MapIntegerDBIDRecordStore.StorageAccessor" style="stroke:#181818;stroke-width:1.0;"/><ellipse cx="322.647" cy="91.5493" fill="#FFFFFF" rx="8" ry="8" style="stroke:#181818;stroke-width:1.0;"/><line style="stroke:#181818;stroke-width:1.0;" x1="318.464" x2="326.83" y1="98.3686" y2="84.73"/><line style="stroke:#181818;stroke-width:1.0;" x1="315.8277" x2="329.4663" y1="87.3663" y2="95.7323"/></g><rect fill="none" height="11.6406" style="stroke:none;stroke-width:1.0;" width="186" x="130.5" y="355.0156"/><text fill="#888888" font-family="sans-serif" font-size="10" lengthAdjust="spacing" textLength="186" x="130.5" y="364.2979">UMLDoclet 2.0.19, PlantUML 1.2022.8</text><!--MD5=[170d757ad2784764d7ccc0dd9ba49e82]
@startuml
    remove .*\.(Instance|Par|Parameterizer|Factory)$
    set namespaceSeparator none
    hide empty fields
    hide empty methods

    class "<size:14>MapIntegerDBIDRecordStore.StorageAccessor\n<size:10>elki.database.datastore.memory" as elki.database.datastore.memory.MapIntegerDBIDRecordStore.StorageAccessor<T> [[MapIntegerDBIDRecordStore.StorageAccessor.html]] {
        -index: int
        #StorageAccessor(int)
        +get(DBIDRef): T
        +put(DBIDRef, T): T
        +destroy(): void
        +delete(DBIDRef): void
        +clear(): void
    }

    interface "<size:14>WritableDataStore\n<size:10>elki.database.datastore" as elki.database.datastore.WritableDataStore<T> [[../WritableDataStore.html]] {
        {abstract} +put(DBIDRef, T): T
        {abstract} +destroy(): void
        {abstract} +delete(DBIDRef): void
        {abstract} +clear(): void
    }
    class "<size:14>MapIntegerDBIDRecordStore\n<size:10>elki.database.datastore.memory" as elki.database.datastore.memory.MapIntegerDBIDRecordStore [[MapIntegerDBIDRecordStore.html]]

    elki.database.datastore.WritableDataStore <|.. elki.database.datastore.memory.MapIntegerDBIDRecordStore.StorageAccessor
    elki.database.datastore.memory.MapIntegerDBIDRecordStore +- - elki.database.datastore.memory.MapIntegerDBIDRecordStore.StorageAccessor

    center footer UMLDoclet 2.0.19, PlantUML 1.2022.8
@enduml

PlantUML version 1.2022.8(Sun Sep 25 11:00:33 CEST 2022)
(APACHE source distribution)
Java Runtime: OpenJDK Runtime Environment
JVM: OpenJDK 64-Bit Server VM
Default Encoding: UTF-8
Language: de
Country: DE
--></g></svg>