<?xml version="1.0" encoding="UTF-8" standalone="no"?>
<!DOCTYPE svg PUBLIC "-//W3C//DTD SVG 1.1//EN"
 "http://www.w3.org/Graphics/SVG/1.1/DTD/svg11.dtd">
<!-- Generated by graphviz version 2.40.1 (20161225.0304)
 -->
<!-- Title: G Pages: 1 -->
<svg width="697pt" height="431pt"
 viewBox="0.00 0.00 697.00 430.50" xmlns="http://www.w3.org/2000/svg" xmlns:xlink="http://www.w3.org/1999/xlink">
<g id="graph0" class="graph" transform="scale(1 1) rotate(0) translate(4 426.5)">
<title>G</title>
<polygon fill="#ffffff" stroke="transparent" points="-4,4 -4,-426.5 693,-426.5 693,4 -4,4"/>
<!-- c1001166 -->
<g id="node1" class="node">
<title>c1001166</title>
<g id="a_node1"><a xlink:href="../distance/DistanceQuery.html" xlink:title="&lt;TABLE&gt;">
<g id="a_node1_0"><a xlink:href="../distance/DistanceQuery.html" xlink:title="de.lmu.ifi.dbs.elki.database.query.distance.DistanceQuery" target="_parent">
<polygon fill="#fffacd" stroke="transparent" points="354,-383.5 354,-422.5 504,-422.5 504,-383.5 354,-383.5"/>
<polygon fill="none" stroke="#000000" points="354,-383 354,-422 504,-422 504,-383 354,-383"/>
<text text-anchor="start" x="407.5" y="-411.6" font-family="Roboto" font-size="8.00" fill="#000000"> «interface» </text>
<text text-anchor="start" x="400" y="-401.6" font-family="Roboto" font-size="8.00" fill="#000000"> </text>
<text text-anchor="start" x="403" y="-401.6" font-family="Roboto" font-size="8.00" fill="#000000">DistanceQuery</text>
<text text-anchor="start" x="455" y="-401.6" font-family="Roboto" font-size="8.00" fill="#000000"> </text>
<text text-anchor="start" x="358" y="-390.6" font-family="Roboto" font-size="8.00" fill="#000000"> </text>
<text text-anchor="start" x="361" y="-390.6" font-family="Roboto" font-size="7.00" fill="#000000">de.lmu.ifi.dbs.elki.database.query.distance</text>
<text text-anchor="start" x="497" y="-390.6" font-family="Roboto" font-size="8.00" fill="#000000"> </text>
</a>
</g>
</a>
</g>
</g>
<!-- c1001172 -->
<g id="node2" class="node">
<title>c1001172</title>
<g id="a_node2"><a xlink:href="RangeQuery.html" xlink:title="&lt;TABLE&gt;">
<g id="a_node2_1"><a xlink:href="RangeQuery.html" xlink:title="de.lmu.ifi.dbs.elki.database.query.range.RangeQuery" target="_parent">
<polygon fill="#fffacd" stroke="transparent" points="400,-249 400,-277 458,-277 458,-249 400,-249"/>
<polygon fill="none" stroke="#000000" points="400,-249 400,-277 458,-277 458,-249 400,-249"/>
<text text-anchor="start" x="407.5" y="-266.6" font-family="Roboto" font-size="8.00" fill="#000000"> «interface» </text>
<text text-anchor="start" x="404" y="-256.6" font-family="Roboto" font-size="8.00" fill="#000000"> </text>
<text text-anchor="start" x="407" y="-256.6" font-family="Roboto" font-size="8.00" fill="#000000">RangeQuery</text>
<text text-anchor="start" x="451" y="-256.6" font-family="Roboto" font-size="8.00" fill="#000000"> </text>
</a>
</g>
</a>
</g>
</g>
<!-- c1002245 -->
<g id="node4" class="node">
<title>c1002245</title>
<g id="a_node4"><a xlink:href="AbstractDistanceRangeQuery.html" xlink:title="&lt;TABLE&gt;">
<g id="a_node4_2"><a xlink:href="AbstractDistanceRangeQuery.html" xlink:title="de.lmu.ifi.dbs.elki.database.query.range.AbstractDistanceRangeQuery" target="_parent">
<polygon fill="#fffacd" stroke="transparent" points="0,-203.5 0,-220.5 116,-220.5 116,-203.5 0,-203.5"/>
<polygon fill="none" stroke="#000000" points="0,-203 0,-220 116,-220 116,-203 0,-203"/>
<text text-anchor="start" x="4" y="-210.6" font-family="Roboto" font-size="8.00" fill="#000000"> </text>
<text text-anchor="start" x="7" y="-210.6" font-family="Roboto" font-style="italic" font-size="8.00" fill="#000000">AbstractDistanceRangeQuery</text>
<text text-anchor="start" x="109" y="-210.6" font-family="Roboto" font-size="8.00" fill="#000000"> </text>
</a>
</g>
</a>
</g>
</g>
<!-- c1001172&#45;&gt;c1002245 -->
<g id="edge3" class="edge">
<title>c1001172&#45;&gt;c1002245</title>
<path fill="none" stroke="#000000" stroke-dasharray="5,2" d="M389.8467,-266.6784C332.5875,-270.8852 223.1295,-274.4612 134,-251 110.0493,-244.6956 85.0048,-230.0199 70.4858,-220.5777"/>
<polygon fill="none" stroke="#000000" points="390.2172,-270.1602 399.9142,-265.8919 389.6719,-263.1815 390.2172,-270.1602"/>
</g>
<!-- c1002676 -->
<g id="node11" class="node">
<title>c1002676</title>
<g id="a_node11"><a xlink:href="../../../index/tree/metrical/covertree/CoverTree.CoverTreeRangeQuery.html" xlink:title="&lt;TABLE&gt;">
<g id="a_node11_3"><a xlink:href="../../../index/tree/metrical/covertree/CoverTree.CoverTreeRangeQuery.html" xlink:title="de.lmu.ifi.dbs.elki.index.tree.metrical.covertree.CoverTree.CoverTreeRangeQuery" target="_parent">
<polygon fill="none" stroke="#000000" points="522.5,-340 522.5,-368 689.5,-368 689.5,-340 522.5,-340"/>
<text text-anchor="start" x="544.5" y="-358.6" font-family="Roboto" font-size="8.00" fill="#000000"> </text>
<text text-anchor="start" x="547.5" y="-358.6" font-family="Roboto" font-size="8.00" fill="#000000">CoverTree.CoverTreeRangeQuery</text>
<text text-anchor="start" x="664.5" y="-358.6" font-family="Roboto" font-size="8.00" fill="#000000"> </text>
<text text-anchor="start" x="526.5" y="-347.6" font-family="Roboto" font-size="8.00" fill="#000000"> </text>
<text text-anchor="start" x="529.5" y="-347.6" font-family="Roboto" font-size="7.00" fill="#000000">de.lmu.ifi.dbs.elki.index.tree.metrical.covertree</text>
<text text-anchor="start" x="682.5" y="-347.6" font-family="Roboto" font-size="8.00" fill="#000000"> </text>
</a>
</g>
</a>
</g>
</g>
<!-- c1001172&#45;&gt;c1002676 -->
<g id="edge11" class="edge">
<title>c1001172&#45;&gt;c1002676</title>
<path fill="none" stroke="#000000" stroke-dasharray="5,2" d="M465.2138,-281.6711C498.7722,-298.9732 547.9477,-324.3271 578.2778,-339.9647"/>
<polygon fill="none" stroke="#000000" points="466.6834,-278.4911 456.1913,-277.0193 463.4756,-284.7128 466.6834,-278.4911"/>
</g>
<!-- c1002682 -->
<g id="node12" class="node">
<title>c1002682</title>
<g id="a_node12"><a xlink:href="../../../index/tree/metrical/covertree/SimplifiedCoverTree.CoverTreeRangeQuery.html" xlink:title="&lt;TABLE&gt;">
<g id="a_node12_4"><a xlink:href="../../../index/tree/metrical/covertree/SimplifiedCoverTree.CoverTreeRangeQuery.html" xlink:title="de.lmu.ifi.dbs.elki.index.tree.metrical.covertree.SimplifiedCoverTree.CoverTreeRangeQuery" target="_parent">
<polygon fill="none" stroke="#000000" points="522.5,-70 522.5,-98 689.5,-98 689.5,-70 522.5,-70"/>
<text text-anchor="start" x="527" y="-88.6" font-family="Roboto" font-size="8.00" fill="#000000"> </text>
<text text-anchor="start" x="530" y="-88.6" font-family="Roboto" font-size="8.00" fill="#000000">SimplifiedCoverTree.CoverTreeRangeQuery</text>
<text text-anchor="start" x="682" y="-88.6" font-family="Roboto" font-size="8.00" fill="#000000"> </text>
<text text-anchor="start" x="526.5" y="-77.6" font-family="Roboto" font-size="8.00" fill="#000000"> </text>
<text text-anchor="start" x="529.5" y="-77.6" font-family="Roboto" font-size="7.00" fill="#000000">de.lmu.ifi.dbs.elki.index.tree.metrical.covertree</text>
<text text-anchor="start" x="682.5" y="-77.6" font-family="Roboto" font-size="8.00" fill="#000000"> </text>
</a>
</g>
</a>
</g>
</g>
<!-- c1001172&#45;&gt;c1002682 -->
<g id="edge13" class="edge">
<title>c1001172&#45;&gt;c1002682</title>
<path fill="none" stroke="#000000" stroke-dasharray="5,2" d="M450.0158,-241.6866C486.3939,-204.7932 560.1781,-129.9639 591.2244,-98.4778"/>
<polygon fill="none" stroke="#000000" points="447.3786,-239.3761 442.8497,-248.9542 452.3631,-244.2909 447.3786,-239.3761"/>
</g>
<!-- c1002241 -->
<g id="node3" class="node">
<title>c1002241</title>
<g id="a_node3"><a xlink:href="LinearScanDistanceRangeQuery.html" xlink:title="&lt;TABLE&gt;">
<g id="a_node3_5"><a xlink:href="LinearScanDistanceRangeQuery.html" xlink:title="de.lmu.ifi.dbs.elki.database.query.range.LinearScanDistanceRangeQuery" target="_parent">
<polygon fill="none" stroke="#000000" points="171,-394 171,-411 300,-411 300,-394 171,-394"/>
<text text-anchor="start" x="175" y="-401.6" font-family="Roboto" font-size="8.00" fill="#000000"> </text>
<text text-anchor="start" x="178" y="-401.6" font-family="Roboto" font-size="8.00" fill="#000000">LinearScanDistanceRangeQuery</text>
<text text-anchor="start" x="293" y="-401.6" font-family="Roboto" font-size="8.00" fill="#000000"> </text>
</a>
</g>
</a>
</g>
</g>
<!-- c1002241&#45;&gt;c1001166 -->
<g id="edge2" class="edge">
<title>c1002241&#45;&gt;c1001166</title>
<path fill="none" stroke="#000000" d="M311.6481,-403C325.5651,-403 340.0674,-403 353.9381,-403"/>
<polygon fill="none" stroke="#000000" points="311.5992,-403.0001 305.5992,-407 299.5992,-403 305.5992,-399 311.5992,-403.0001"/>
</g>
<!-- c1002245&#45;&gt;c1001166 -->
<g id="edge16" class="edge">
<title>c1002245&#45;&gt;c1001166</title>
<path fill="none" stroke="#000000" d="M59.4911,-220.5952C64.5321,-246.8158 83.5338,-326.1731 134,-362 170.9285,-388.2163 291.1623,-382.629 336,-389 338.546,-389.3618 341.1308,-389.732 343.7399,-390.1083"/>
<polygon fill="#000000" stroke="#000000" points="353.8937,-391.5848 343.3502,-394.5989 348.9457,-390.8653 343.9978,-390.1457 343.9978,-390.1457 343.9978,-390.1457 348.9457,-390.8653 344.6453,-385.6926 353.8937,-391.5848 353.8937,-391.5848"/>
</g>
<!-- c1002245&#45;&gt;c1002241 -->
<g id="edge1" class="edge">
<title>c1002245&#45;&gt;c1002241</title>
<path fill="none" stroke="#000000" d="M60.4124,-230.6C66.1269,-266.5853 83.9817,-345.6473 134,-385 144.4285,-393.2048 157.341,-398.1585 170.4085,-401.0586"/>
<polygon fill="none" stroke="#000000" points="63.8523,-229.9318 58.9583,-220.5351 56.9243,-230.9328 63.8523,-229.9318"/>
</g>
<!-- c1002247 -->
<g id="node5" class="node">
<title>c1002247</title>
<g id="a_node5"><a xlink:href="LinearScanPrimitiveDistanceRangeQuery.html" xlink:title="&lt;TABLE&gt;">
<g id="a_node5_6"><a xlink:href="LinearScanPrimitiveDistanceRangeQuery.html" xlink:title="de.lmu.ifi.dbs.elki.database.query.range.LinearScanPrimitiveDistanceRangeQuery" target="_parent">
<polygon fill="none" stroke="#000000" points="156,-319 156,-336 315,-336 315,-319 156,-319"/>
<text text-anchor="start" x="160" y="-326.6" font-family="Roboto" font-size="8.00" fill="#000000"> </text>
<text text-anchor="start" x="163" y="-326.6" font-family="Roboto" font-size="8.00" fill="#000000">LinearScanPrimitiveDistanceRangeQuery</text>
<text text-anchor="start" x="308" y="-326.6" font-family="Roboto" font-size="8.00" fill="#000000"> </text>
</a>
</g>
</a>
</g>
</g>
<!-- c1002245&#45;&gt;c1002247 -->
<g id="edge4" class="edge">
<title>c1002245&#45;&gt;c1002247</title>
<path fill="none" stroke="#000000" d="M65.9096,-229.6566C77.342,-252.9399 100.8129,-293.2609 134,-313 140.6276,-316.942 147.919,-319.9774 155.4573,-322.3005"/>
<polygon fill="none" stroke="#000000" points="69.0554,-228.1212 61.6327,-220.5612 62.7208,-231.1 69.0554,-228.1212"/>
</g>
<!-- c1002359 -->
<g id="node6" class="node">
<title>c1002359</title>
<g id="a_node6"><a xlink:href="../../../index/AbstractRefiningIndex.AbstractRangeQuery.html" xlink:title="&lt;TABLE&gt;">
<g id="a_node6_7"><a xlink:href="../../../index/AbstractRefiningIndex.AbstractRangeQuery.html" xlink:title="de.lmu.ifi.dbs.elki.index.AbstractRefiningIndex.AbstractRangeQuery" target="_parent">
<polygon fill="none" stroke="#000000" points="153,-280 153,-308 318,-308 318,-280 153,-280"/>
<text text-anchor="start" x="157" y="-298.6" font-family="Roboto" font-size="8.00" fill="#000000"> </text>
<text text-anchor="start" x="160" y="-298.6" font-family="Roboto" font-style="italic" font-size="8.00" fill="#000000">AbstractRefiningIndex.AbstractRangeQuery</text>
<text text-anchor="start" x="311" y="-298.6" font-family="Roboto" font-size="8.00" fill="#000000"> </text>
<text text-anchor="start" x="194" y="-287.6" font-family="Roboto" font-size="8.00" fill="#000000"> </text>
<text text-anchor="start" x="197" y="-287.6" font-family="Roboto" font-size="7.00" fill="#000000">de.lmu.ifi.dbs.elki.index</text>
<text text-anchor="start" x="274" y="-287.6" font-family="Roboto" font-size="8.00" fill="#000000"> </text>
</a>
</g>
</a>
</g>
</g>
<!-- c1002245&#45;&gt;c1002359 -->
<g id="edge5" class="edge">
<title>c1002245&#45;&gt;c1002359</title>
<path fill="none" stroke="#000000" d="M74.0349,-227.8857C88.519,-241.3411 111.0293,-260.1292 134,-271 141.3149,-274.4617 149.1789,-277.4171 157.173,-279.9372"/>
<polygon fill="none" stroke="#000000" points="76.1401,-225.0564 66.4916,-220.6797 71.3049,-230.1181 76.1401,-225.0564"/>
</g>
<!-- c1002363 -->
<g id="node7" class="node">
<title>c1002363</title>
<g id="a_node7"><a xlink:href="../../../index/projected/ProjectedIndex.ProjectedRangeQuery.html" xlink:title="&lt;TABLE&gt;">
<g id="a_node7_8"><a xlink:href="../../../index/projected/ProjectedIndex.ProjectedRangeQuery.html" xlink:title="de.lmu.ifi.dbs.elki.index.projected.ProjectedIndex.ProjectedRangeQuery" target="_parent">
<polygon fill="none" stroke="#000000" points="164,-101 164,-129 306,-129 306,-101 164,-101"/>
<text text-anchor="start" x="168" y="-119.6" font-family="Roboto" font-size="8.00" fill="#000000"> </text>
<text text-anchor="start" x="171" y="-119.6" font-family="Roboto" font-size="8.00" fill="#000000">ProjectedIndex.ProjectedRangeQuery</text>
<text text-anchor="start" x="299" y="-119.6" font-family="Roboto" font-size="8.00" fill="#000000"> </text>
<text text-anchor="start" x="177.5" y="-108.6" font-family="Roboto" font-size="8.00" fill="#000000"> </text>
<text text-anchor="start" x="180.5" y="-108.6" font-family="Roboto" font-size="7.00" fill="#000000">de.lmu.ifi.dbs.elki.index.projected</text>
<text text-anchor="start" x="289.5" y="-108.6" font-family="Roboto" font-size="8.00" fill="#000000"> </text>
</a>
</g>
</a>
</g>
</g>
<!-- c1002245&#45;&gt;c1002363 -->
<g id="edge6" class="edge">
<title>c1002245&#45;&gt;c1002363</title>
<path fill="none" stroke="#000000" d="M69.9261,-194.5299C83.3116,-176.3724 106.7562,-148.6074 134,-134 143.1989,-129.0678 153.4678,-125.3976 163.8373,-122.6702"/>
<polygon fill="none" stroke="#000000" points="66.8241,-192.8523 63.8764,-203.0288 72.5269,-196.9117 66.8241,-192.8523"/>
</g>
<!-- c1002408 -->
<g id="node8" class="node">
<title>c1002408</title>
<g id="a_node8"><a xlink:href="../../../index/tree/metrical/mtreevariants/query/MTreeRangeQuery.html" xlink:title="&lt;TABLE&gt;">
<g id="a_node8_9"><a xlink:href="../../../index/tree/metrical/mtreevariants/query/MTreeRangeQuery.html" xlink:title="de.lmu.ifi.dbs.elki.index.tree.metrical.mtreevariants.query.MTreeRangeQuery" target="_parent">
<polygon fill="none" stroke="#000000" points="134,-218 134,-246 336,-246 336,-218 134,-218"/>
<text text-anchor="start" x="198.5" y="-236.6" font-family="Roboto" font-size="8.00" fill="#000000"> </text>
<text text-anchor="start" x="201.5" y="-236.6" font-family="Roboto" font-size="8.00" fill="#000000">MTreeRangeQuery</text>
<text text-anchor="start" x="268.5" y="-236.6" font-family="Roboto" font-size="8.00" fill="#000000"> </text>
<text text-anchor="start" x="138" y="-225.6" font-family="Roboto" font-size="8.00" fill="#000000"> </text>
<text text-anchor="start" x="141" y="-225.6" font-family="Roboto" font-size="7.00" fill="#000000">de.lmu.ifi.dbs.elki.index.tree.metrical.mtreevariants.query</text>
<text text-anchor="start" x="329" y="-225.6" font-family="Roboto" font-size="8.00" fill="#000000"> </text>
</a>
</g>
</a>
</g>
</g>
<!-- c1002245&#45;&gt;c1002408 -->
<g id="edge7" class="edge">
<title>c1002245&#45;&gt;c1002408</title>
<path fill="none" stroke="#000000" d="M126.3914,-219.7278C128.8452,-220.0051 131.3208,-220.2848 133.8101,-220.5661"/>
<polygon fill="none" stroke="#000000" points="126.7767,-216.2492 116.447,-218.6042 125.9907,-223.2049 126.7767,-216.2492"/>
</g>
<!-- c1002666 -->
<g id="node9" class="node">
<title>c1002666</title>
<g id="a_node9"><a xlink:href="../../../index/tree/spatial/kd/MinimalisticMemoryKDTree.KDTreeRangeQuery.html" xlink:title="&lt;TABLE&gt;">
<g id="a_node9_10"><a xlink:href="../../../index/tree/spatial/kd/MinimalisticMemoryKDTree.KDTreeRangeQuery.html" xlink:title="de.lmu.ifi.dbs.elki.index.tree.spatial.kd.MinimalisticMemoryKDTree.KDTreeRangeQuery" target="_parent">
<polygon fill="none" stroke="#000000" points="142,-179 142,-207 329,-207 329,-179 142,-179"/>
<text text-anchor="start" x="146" y="-197.6" font-family="Roboto" font-size="8.00" fill="#000000"> </text>
<text text-anchor="start" x="149" y="-197.6" font-family="Roboto" font-size="8.00" fill="#000000">MinimalisticMemoryKDTree.KDTreeRangeQuery</text>
<text text-anchor="start" x="322" y="-197.6" font-family="Roboto" font-size="8.00" fill="#000000"> </text>
<text text-anchor="start" x="170.5" y="-186.6" font-family="Roboto" font-size="8.00" fill="#000000"> </text>
<text text-anchor="start" x="173.5" y="-186.6" font-family="Roboto" font-size="7.00" fill="#000000">de.lmu.ifi.dbs.elki.index.tree.spatial.kd</text>
<text text-anchor="start" x="297.5" y="-186.6" font-family="Roboto" font-size="8.00" fill="#000000"> </text>
</a>
</g>
</a>
</g>
</g>
<!-- c1002245&#45;&gt;c1002666 -->
<g id="edge8" class="edge">
<title>c1002245&#45;&gt;c1002666</title>
<path fill="none" stroke="#000000" d="M126.4303,-204.6544C131.3644,-204.1247 136.3864,-203.5856 141.4304,-203.0442"/>
<polygon fill="none" stroke="#000000" points="126.0162,-201.1786 116.447,-205.726 126.7634,-208.1386 126.0162,-201.1786"/>
</g>
<!-- c1002671 -->
<g id="node10" class="node">
<title>c1002671</title>
<g id="a_node10"><a xlink:href="../../../index/tree/spatial/kd/SmallMemoryKDTree.KDTreeRangeQuery.html" xlink:title="&lt;TABLE&gt;">
<g id="a_node10_11"><a xlink:href="../../../index/tree/spatial/kd/SmallMemoryKDTree.KDTreeRangeQuery.html" xlink:title="de.lmu.ifi.dbs.elki.index.tree.spatial.kd.SmallMemoryKDTree.KDTreeRangeQuery" target="_parent">
<polygon fill="none" stroke="#000000" points="154,-140 154,-168 317,-168 317,-140 154,-140"/>
<text text-anchor="start" x="158" y="-158.6" font-family="Roboto" font-size="8.00" fill="#000000"> </text>
<text text-anchor="start" x="161" y="-158.6" font-family="Roboto" font-size="8.00" fill="#000000">SmallMemoryKDTree.KDTreeRangeQuery</text>
<text text-anchor="start" x="310" y="-158.6" font-family="Roboto" font-size="8.00" fill="#000000"> </text>
<text text-anchor="start" x="170.5" y="-147.6" font-family="Roboto" font-size="8.00" fill="#000000"> </text>
<text text-anchor="start" x="173.5" y="-147.6" font-family="Roboto" font-size="7.00" fill="#000000">de.lmu.ifi.dbs.elki.index.tree.spatial.kd</text>
<text text-anchor="start" x="297.5" y="-147.6" font-family="Roboto" font-size="8.00" fill="#000000"> </text>
</a>
</g>
</a>
</g>
</g>
<!-- c1002245&#45;&gt;c1002671 -->
<g id="edge9" class="edge">
<title>c1002245&#45;&gt;c1002671</title>
<path fill="none" stroke="#000000" d="M80.6163,-198.2034C95.3442,-189.779 115.2404,-179.4263 134,-173 140.2454,-170.8606 146.7953,-168.9427 153.4312,-167.227"/>
<polygon fill="none" stroke="#000000" points="78.6063,-195.3245 71.7483,-203.4003 82.1456,-201.3639 78.6063,-195.3245"/>
</g>
<!-- c1002245&#45;&gt;c1002676 -->
<g id="edge10" class="edge">
<title>c1002245&#45;&gt;c1002676</title>
<path fill="none" stroke="#000000" d="M62.6412,-230.6194C71.1384,-260.2646 92.2857,-317.3564 134,-342 166.3862,-361.1328 395.1967,-358.982 521.7698,-356.2439"/>
<polygon fill="none" stroke="#000000" points="65.9589,-229.478 59.9875,-220.7263 59.1979,-231.2917 65.9589,-229.478"/>
</g>
<!-- c1002245&#45;&gt;c1002682 -->
<g id="edge12" class="edge">
<title>c1002245&#45;&gt;c1002682</title>
<path fill="none" stroke="#000000" d="M63.7407,-193.6787C73.3486,-166.5189 95.5194,-116.4751 134,-95 166.845,-76.67 395.4556,-78.9864 521.8795,-81.7539"/>
<polygon fill="none" stroke="#000000" points="60.3199,-192.8734 60.4751,-203.4671 66.9601,-195.0887 60.3199,-192.8734"/>
</g>
<!-- c1002692 -->
<g id="node13" class="node">
<title>c1002692</title>
<g id="a_node13"><a xlink:href="../../../index/invertedlist/InMemoryInvertedIndex.CosineRangeQuery.html" xlink:title="&lt;TABLE&gt;">
<g id="a_node13_12"><a xlink:href="../../../index/invertedlist/InMemoryInvertedIndex.CosineRangeQuery.html" xlink:title="de.lmu.ifi.dbs.elki.index.invertedlist.InMemoryInvertedIndex.CosineRangeQuery" target="_parent">
<polygon fill="none" stroke="#000000" points="153,-39 153,-67 318,-67 318,-39 153,-39"/>
<text text-anchor="start" x="157" y="-57.6" font-family="Roboto" font-size="8.00" fill="#000000"> </text>
<text text-anchor="start" x="160" y="-57.6" font-family="Roboto" font-size="8.00" fill="#000000">InMemoryInvertedIndex.CosineRangeQuery</text>
<text text-anchor="start" x="311" y="-57.6" font-family="Roboto" font-size="8.00" fill="#000000"> </text>
<text text-anchor="start" x="174.5" y="-46.6" font-family="Roboto" font-size="8.00" fill="#000000"> </text>
<text text-anchor="start" x="177.5" y="-46.6" font-family="Roboto" font-size="7.00" fill="#000000">de.lmu.ifi.dbs.elki.index.invertedlist</text>
<text text-anchor="start" x="293.5" y="-46.6" font-family="Roboto" font-size="8.00" fill="#000000"> </text>
</a>
</g>
</a>
</g>
</g>
<!-- c1002245&#45;&gt;c1002692 -->
<g id="edge14" class="edge">
<title>c1002245&#45;&gt;c1002692</title>
<path fill="none" stroke="#000000" d="M63.0037,-193.4945C72.0136,-163.8581 93.8708,-106.0376 134,-76 139.6149,-71.7971 145.863,-68.341 152.4212,-65.5017"/>
<polygon fill="none" stroke="#000000" points="59.5678,-192.7785 60.1682,-203.3563 66.2952,-194.7128 59.5678,-192.7785"/>
</g>
<!-- c1002693 -->
<g id="node14" class="node">
<title>c1002693</title>
<g id="a_node14"><a xlink:href="../../../index/invertedlist/InMemoryInvertedIndex.ArcCosineRangeQuery.html" xlink:title="&lt;TABLE&gt;">
<g id="a_node14_13"><a xlink:href="../../../index/invertedlist/InMemoryInvertedIndex.ArcCosineRangeQuery.html" xlink:title="de.lmu.ifi.dbs.elki.index.invertedlist.InMemoryInvertedIndex.ArcCosineRangeQuery" target="_parent">
<polygon fill="none" stroke="#000000" points="147,0 147,-28 324,-28 324,0 147,0"/>
<text text-anchor="start" x="151" y="-18.6" font-family="Roboto" font-size="8.00" fill="#000000"> </text>
<text text-anchor="start" x="154" y="-18.6" font-family="Roboto" font-size="8.00" fill="#000000">InMemoryInvertedIndex.ArcCosineRangeQuery</text>
<text text-anchor="start" x="317" y="-18.6" font-family="Roboto" font-size="8.00" fill="#000000"> </text>
<text text-anchor="start" x="174.5" y="-7.6" font-family="Roboto" font-size="8.00" fill="#000000"> </text>
<text text-anchor="start" x="177.5" y="-7.6" font-family="Roboto" font-size="7.00" fill="#000000">de.lmu.ifi.dbs.elki.index.invertedlist</text>
<text text-anchor="start" x="293.5" y="-7.6" font-family="Roboto" font-size="8.00" fill="#000000"> </text>
</a>
</g>
</a>
</g>
</g>
<!-- c1002245&#45;&gt;c1002693 -->
<g id="edge15" class="edge">
<title>c1002245&#45;&gt;c1002693</title>
<path fill="none" stroke="#000000" d="M60.2348,-192.8157C65.6378,-155.689 82.972,-74.0633 134,-33 137.7531,-29.9798 141.838,-27.3853 146.143,-25.1603"/>
<polygon fill="none" stroke="#000000" points="56.7033,-192.828 58.8722,-203.1984 63.6437,-193.7389 56.7033,-192.828"/>
</g>
<!-- c1002363&#45;&gt;c1001172 -->
<g id="edge17" class="edge">
<title>c1002363&#45;&gt;c1001172</title>
<path fill="none" stroke="#000000" d="M306.0669,-121.2617C316.6162,-124.1649 326.9644,-128.2587 336,-134 376.4066,-159.6749 404.7425,-209.7521 418.8216,-239.3951"/>
<polygon fill="#000000" stroke="#000000" points="423.0465,-248.5998 414.7852,-241.3886 420.9607,-244.0556 418.8749,-239.5114 418.8749,-239.5114 418.8749,-239.5114 420.9607,-244.0556 422.9647,-237.6342 423.0465,-248.5998 423.0465,-248.5998"/>
</g>
</g>
</svg>
