<?xml version="1.0" encoding="UTF-8" standalone="no"?>
<!DOCTYPE svg PUBLIC "-//W3C//DTD SVG 1.1//EN"
 "http://www.w3.org/Graphics/SVG/1.1/DTD/svg11.dtd">
<!-- Generated by graphviz version 2.40.1 (20161225.0304)
 -->
<!-- Title: G Pages: 1 -->
<svg width="477pt" height="183pt"
 viewBox="0.00 0.00 477.00 183.00" xmlns="http://www.w3.org/2000/svg" xmlns:xlink="http://www.w3.org/1999/xlink">
<g id="graph0" class="graph" transform="scale(1 1) rotate(0) translate(4 179)">
<title>G</title>
<polygon fill="#ffffff" stroke="transparent" points="-4,4 -4,-179 473,-179 473,4 -4,4"/>
<!-- c830137 -->
<g id="node1" class="node">
<title>c830137</title>
<g id="a_node1"><a xlink:href="../../../distance/similarityfunction/SimilarityFunction.html" xlink:title="&lt;TABLE&gt;">
<g id="a_node1_0"><a xlink:href="../../../distance/similarityfunction/SimilarityFunction.html" xlink:title="de.lmu.ifi.dbs.elki.distance.similarityfunction.SimilarityFunction" target="_parent">
<polygon fill="#fffacd" stroke="transparent" points="202,-136 202,-175 364,-175 364,-136 202,-136"/>
<polygon fill="none" stroke="#000000" points="202,-135.5 202,-174.5 364,-174.5 364,-135.5 202,-135.5"/>
<text text-anchor="start" x="261.5" y="-164.1" font-family="Roboto" font-size="8.00" fill="#000000"> «interface» </text>
<text text-anchor="start" x="248" y="-154.1" font-family="Roboto" font-size="8.00" fill="#000000"> </text>
<text text-anchor="start" x="251" y="-154.1" font-family="Roboto" font-size="8.00" fill="#000000">SimilarityFunction</text>
<text text-anchor="start" x="315" y="-154.1" font-family="Roboto" font-size="8.00" fill="#000000"> </text>
<text text-anchor="start" x="206" y="-143.1" font-family="Roboto" font-size="8.00" fill="#000000"> </text>
<text text-anchor="start" x="209" y="-143.1" font-family="Roboto" font-size="7.00" fill="#000000">de.lmu.ifi.dbs.elki.distance.similarityfunction</text>
<text text-anchor="start" x="357" y="-143.1" font-family="Roboto" font-size="8.00" fill="#000000"> </text>
</a>
</g>
</a>
</g>
</g>
<!-- c830234 -->
<g id="node2" class="node">
<title>c830234</title>
<g id="a_node2"><a xlink:href="../../../data/NumberVector.html" xlink:title="&lt;TABLE&gt;">
<g id="a_node2_1"><a xlink:href="../../../data/NumberVector.html" xlink:title="de.lmu.ifi.dbs.elki.data.NumberVector" target="_parent">
<polygon fill="#fffacd" stroke="transparent" points="382,-86 382,-125 469,-125 469,-86 382,-86"/>
<polygon fill="none" stroke="#000000" points="382.5,-85.5 382.5,-124.5 469.5,-124.5 469.5,-85.5 382.5,-85.5"/>
<text text-anchor="start" x="404.5" y="-114.1" font-family="Roboto" font-size="8.00" fill="#000000"> «interface» </text>
<text text-anchor="start" x="397.5" y="-104.1" font-family="Roboto" font-size="8.00" fill="#000000"> </text>
<text text-anchor="start" x="400.5" y="-104.1" font-family="Roboto" font-size="8.00" fill="#000000">NumberVector</text>
<text text-anchor="start" x="451.5" y="-104.1" font-family="Roboto" font-size="8.00" fill="#000000"> </text>
<text text-anchor="start" x="386.5" y="-93.1" font-family="Roboto" font-size="8.00" fill="#000000"> </text>
<text text-anchor="start" x="389.5" y="-93.1" font-family="Roboto" font-size="7.00" fill="#000000">de.lmu.ifi.dbs.elki.data</text>
<text text-anchor="start" x="462.5" y="-93.1" font-family="Roboto" font-size="8.00" fill="#000000"> </text>
</a>
</g>
</a>
</g>
</g>
<!-- c830275 -->
<g id="node3" class="node">
<title>c830275</title>
<g id="a_node3"><a xlink:href="../../AbstractAlgorithm.html" xlink:title="&lt;TABLE&gt;">
<g id="a_node3_2"><a xlink:href="../../AbstractAlgorithm.html" xlink:title="de.lmu.ifi.dbs.elki.algorithm.AbstractAlgorithm" target="_parent">
<polygon fill="#fffacd" stroke="transparent" points="12,-50.5 12,-134.5 117,-134.5 117,-50.5 12,-50.5"/>
<polygon fill="none" stroke="#000000" points="12.5,-106.5 12.5,-134.5 117.5,-134.5 117.5,-106.5 12.5,-106.5"/>
<text text-anchor="start" x="29.5" y="-125.1" font-family="Roboto" font-size="8.00" fill="#000000"> </text>
<text text-anchor="start" x="32.5" y="-125.1" font-family="Roboto" font-style="italic" font-size="8.00" fill="#000000">AbstractAlgorithm</text>
<text text-anchor="start" x="97.5" y="-125.1" font-family="Roboto" font-size="8.00" fill="#000000"> </text>
<text text-anchor="start" x="16.5" y="-114.1" font-family="Roboto" font-size="8.00" fill="#000000"> </text>
<text text-anchor="start" x="19.5" y="-114.1" font-family="Roboto" font-size="7.00" fill="#000000">de.lmu.ifi.dbs.elki.algorithm</text>
<text text-anchor="start" x="110.5" y="-114.1" font-family="Roboto" font-size="8.00" fill="#000000"> </text>
<polygon fill="none" stroke="#000000" points="12.5,-89.5 12.5,-106.5 117.5,-106.5 117.5,-89.5 12.5,-89.5"/>
<text text-anchor="start" x="16.5" y="-96.1" font-family="Roboto" font-size="8.00" fill="#000000"> &#160;</text>
<polygon fill="none" stroke="#000000" points="12.5,-50.5 12.5,-89.5 117.5,-89.5 117.5,-50.5 12.5,-50.5"/>
<text text-anchor="start" x="16.5" y="-79.1" font-family="Roboto" font-size="8.00" fill="#000000"> &#160;run() </text>
<text text-anchor="start" x="16.5" y="-69.1" font-family="Roboto" font-size="8.00" fill="#000000"> </text>
<text text-anchor="start" x="19.5" y="-69.1" font-family="Roboto" font-style="italic" font-size="8.00" fill="#000000"> getInputTypeRestriction()</text>
<text text-anchor="start" x="110.5" y="-69.1" font-family="Roboto" font-size="8.00" fill="#000000"> </text>
<text text-anchor="start" x="16.5" y="-58.1" font-family="Roboto" font-size="8.00" fill="#000000"> </text>
<text text-anchor="start" x="19.5" y="-58.1" font-family="Roboto" font-style="italic" font-size="8.00" fill="#000000"> getLogger()</text>
<text text-anchor="start" x="63.5" y="-58.1" font-family="Roboto" font-size="8.00" fill="#000000"> </text>
</a>
</g>
</a>
</g>
</g>
<!-- c833305 -->
<g id="node5" class="node">
<title>c833305</title>
<g id="a_node5"><a xlink:href="ABOD.html" xlink:title="&lt;TABLE&gt;">
<g id="a_node5_3"><a xlink:href="ABOD.html" xlink:title="de.lmu.ifi.dbs.elki.algorithm.outlier.anglebased.ABOD" target="_parent">
<polygon fill="#fffacd" stroke="transparent" points="147,-84 147,-101 184,-101 184,-84 147,-84"/>
<polygon fill="none" stroke="#000000" points="147.5,-83.5 147.5,-100.5 184.5,-100.5 184.5,-83.5 147.5,-83.5"/>
<text text-anchor="start" x="151.5" y="-91.1" font-family="Roboto" font-size="8.00" fill="#000000"> </text>
<text text-anchor="start" x="154.5" y="-91.1" font-family="Roboto" font-size="8.00" fill="#000000">ABOD</text>
<text text-anchor="start" x="177.5" y="-91.1" font-family="Roboto" font-size="8.00" fill="#000000"> </text>
</a>
</g>
</a>
</g>
</g>
<!-- c830275&#45;&gt;c833305 -->
<g id="edge2" class="edge">
<title>c830275&#45;&gt;c833305</title>
<path fill="none" stroke="#000000" d="M127.5307,-92.5C134.5486,-92.5 141.2218,-92.5 146.9603,-92.5"/>
<polygon fill="none" stroke="#000000" points="127.0708,-89.0001 117.0708,-92.5 127.0707,-96.0001 127.0708,-89.0001"/>
</g>
<!-- c833303 -->
<g id="node4" class="node">
<title>c833303</title>
<g id="a_node4"><a xlink:href="FastABOD.html" xlink:title="&lt;TABLE&gt;">
<g id="a_node4_4"><a xlink:href="FastABOD.html" xlink:title="de.lmu.ifi.dbs.elki.algorithm.outlier.anglebased.FastABOD" target="_parent">
<polygon fill="none" stroke="#000000" points="257,-83.5 257,-100.5 309,-100.5 309,-83.5 257,-83.5"/>
<text text-anchor="start" x="261" y="-91.1" font-family="Roboto" font-size="8.00" fill="#000000"> </text>
<text text-anchor="start" x="264" y="-91.1" font-family="Roboto" font-size="8.00" fill="#000000">FastABOD</text>
<text text-anchor="start" x="302" y="-91.1" font-family="Roboto" font-size="8.00" fill="#000000"> </text>
</a>
</g>
</a>
</g>
</g>
<!-- c833303&#45;&gt;c830234 -->
<g id="edge5" class="edge">
<title>c833303&#45;&gt;c830234</title>
<path fill="none" stroke="#000000" stroke-dasharray="5,2" d="M309.1367,-94.8844C326.6857,-96.4854 350.4374,-98.6522 371.9065,-100.6108"/>
<polygon fill="#000000" stroke="#000000" points="381.9013,-101.5226 371.5338,-105.0954 376.9219,-101.0683 371.9426,-100.614 371.9426,-100.614 371.9426,-100.614 376.9219,-101.0683 372.3515,-96.1326 381.9013,-101.5226 381.9013,-101.5226"/>
</g>
<!-- c833305&#45;&gt;c830137 -->
<g id="edge4" class="edge">
<title>c833305&#45;&gt;c830137</title>
<path fill="none" stroke="#000000" d="M172.8407,-101.0885C179.7139,-108.6696 190.6085,-119.5646 202,-126.5 204.9603,-128.3023 208.0494,-130.0161 211.2196,-131.6427"/>
<polygon fill="#000000" stroke="#000000" points="220.3291,-135.9967 209.3661,-135.7443 215.8179,-133.8405 211.3067,-131.6843 211.3067,-131.6843 211.3067,-131.6843 215.8179,-133.8405 213.2473,-127.6242 220.3291,-135.9967 220.3291,-135.9967"/>
</g>
<!-- c833305&#45;&gt;c830234 -->
<g id="edge6" class="edge">
<title>c833305&#45;&gt;c830234</title>
<path fill="none" stroke="#000000" stroke-dasharray="5,2" d="M184.062,-101.1225C189.6996,-103.3271 195.9939,-105.3877 202,-106.5 272.7961,-119.6116 292.0024,-107.0853 364,-106.5 366.5227,-106.4795 369.1036,-106.4543 371.7104,-106.4253"/>
<polygon fill="#000000" stroke="#000000" points="381.8253,-106.2977 371.8829,-110.9236 376.8257,-106.3608 371.8261,-106.424 371.8261,-106.424 371.8261,-106.424 376.8257,-106.3608 371.7693,-101.9243 381.8253,-106.2977 381.8253,-106.2977"/>
</g>
<!-- c833305&#45;&gt;c833303 -->
<g id="edge1" class="edge">
<title>c833305&#45;&gt;c833303</title>
<path fill="none" stroke="#000000" d="M194.2982,-92.5C213.3289,-92.5 238.0836,-92.5 256.6044,-92.5"/>
<polygon fill="none" stroke="#000000" points="194.1183,-89.0001 184.1182,-92.5 194.1182,-96.0001 194.1183,-89.0001"/>
</g>
<!-- c833388 -->
<g id="node6" class="node">
<title>c833388</title>
<g id="a_node6"><a xlink:href="../OutlierAlgorithm.html" xlink:title="&lt;TABLE&gt;">
<g id="a_node6_5"><a xlink:href="../OutlierAlgorithm.html" xlink:title="de.lmu.ifi.dbs.elki.algorithm.outlier.OutlierAlgorithm" target="_parent">
<polygon fill="#fffacd" stroke="transparent" points="0,0 0,-39 129,-39 129,0 0,0"/>
<polygon fill="none" stroke="#000000" points=".5,.5 .5,-38.5 129.5,-38.5 129.5,.5 .5,.5"/>
<text text-anchor="start" x="43.5" y="-28.1" font-family="Roboto" font-size="8.00" fill="#000000"> «interface» </text>
<text text-anchor="start" x="32.5" y="-18.1" font-family="Roboto" font-size="8.00" fill="#000000"> </text>
<text text-anchor="start" x="35.5" y="-18.1" font-family="Roboto" font-size="8.00" fill="#000000">OutlierAlgorithm</text>
<text text-anchor="start" x="94.5" y="-18.1" font-family="Roboto" font-size="8.00" fill="#000000"> </text>
<text text-anchor="start" x="4.5" y="-7.1" font-family="Roboto" font-size="8.00" fill="#000000"> </text>
<text text-anchor="start" x="7.5" y="-7.1" font-family="Roboto" font-size="7.00" fill="#000000">de.lmu.ifi.dbs.elki.algorithm.outlier</text>
<text text-anchor="start" x="122.5" y="-7.1" font-family="Roboto" font-size="8.00" fill="#000000"> </text>
</a>
</g>
</a>
</g>
</g>
<!-- c833388&#45;&gt;c833305 -->
<g id="edge3" class="edge">
<title>c833388&#45;&gt;c833305</title>
<path fill="none" stroke="#000000" stroke-dasharray="5,2" d="M127.8329,-44.6351C128.2255,-44.9206 128.6146,-45.209 129,-45.5 143.0154,-56.0847 154.5123,-73.3376 160.6551,-83.7349"/>
<polygon fill="none" stroke="#000000" points="129.4482,-41.5121 119.1471,-39.0348 125.655,-47.3953 129.4482,-41.5121"/>
</g>
</g>
</svg>
