<?xml version="1.0" encoding="UTF-8" standalone="no"?><svg xmlns="http://www.w3.org/2000/svg" xmlns:xlink="http://www.w3.org/1999/xlink" contentStyleType="text/css" height="282px" preserveAspectRatio="none" style="width:271px;height:282px;background:#FFFFFF;" version="1.1" viewBox="0 0 271 282" width="271px" zoomAndPan="magnify"><defs/><g><!--MD5=[d18e276ecc853115a3337aa08fbbd8a6]
class elki.utilities.datastructures.KuhnMunkresStern--><a href="KuhnMunkresStern.html" target="_top" title="KuhnMunkresStern.html" xlink:actuate="onRequest" xlink:href="KuhnMunkresStern.html" xlink:show="new" xlink:title="KuhnMunkresStern.html" xlink:type="simple"><g id="elem_elki.utilities.datastructures.KuhnMunkresStern"><rect codeLine="6" fill="#F1F1F1" height="151.7188" id="elki.utilities.datastructures.KuhnMunkresStern" rx="2.5" ry="2.5" style="stroke:#181818;stroke-width:0.5;" width="255" x="9" y="105"/><ellipse cx="65.75" cy="123.9688" fill="#ADD1B2" rx="11" ry="11" style="stroke:#181818;stroke-width:1.0;"/><path d="M68.7188,129.6094 Q68.1406,129.9063 67.5,130.0469 Q66.8594,130.2031 66.1563,130.2031 Q63.6563,130.2031 62.3281,128.5625 Q61.0156,126.9063 61.0156,123.7813 Q61.0156,120.6563 62.3281,119 Q63.6563,117.3438 66.1563,117.3438 Q66.8594,117.3438 67.5,117.5 Q68.1563,117.6563 68.7188,117.9531 L68.7188,120.6719 Q68.0938,120.0938 67.5,119.8281 Q66.9063,119.5469 66.2813,119.5469 Q64.9375,119.5469 64.25,120.625 Q63.5625,121.6875 63.5625,123.7813 Q63.5625,125.875 64.25,126.9531 Q64.9375,128.0156 66.2813,128.0156 Q66.9063,128.0156 67.5,127.75 Q68.0938,127.4688 68.7188,126.8906 L68.7188,129.6094 Z " fill="#000000"/><text fill="#000000" font-family="sans-serif" font-size="14" lengthAdjust="spacing" textLength="133" x="86.25" y="122.9951">KuhnMunkresStern</text><text fill="#000000" font-family="sans-serif" font-size="10" lengthAdjust="spacing" textLength="125" x="90.25" y="135.5791">elki.utilities.datastructures</text><line style="stroke:#181818;stroke-width:0.5;" x1="10" x2="263" y1="142.9375" y2="142.9375"/><rect fill="none" height="6" style="stroke:#C82930;stroke-width:1.0;" width="6" x="17" y="153.5859"/><text fill="#000000" font-family="sans-serif" font-size="14" lengthAdjust="spacing" textLength="63" x="29" y="159.9326">cptr: int[]</text><rect fill="none" height="6" style="stroke:#C82930;stroke-width:1.0;" width="6" x="17" y="169.8828"/><text fill="#000000" font-family="sans-serif" font-size="14" lengthAdjust="spacing" textLength="100" x="29" y="176.2295">cmin: double[]</text><line style="stroke:#181818;stroke-width:0.5;" x1="10" x2="263" y1="183.5313" y2="183.5313"/><ellipse cx="20" cy="197.1797" fill="#84BE84" rx="3" ry="3" style="stroke:#038048;stroke-width:1.0;"/><text fill="#000000" font-family="sans-serif" font-size="14" lengthAdjust="spacing" textLength="127" x="29" y="200.5264">run(double[]): int[]</text><polygon fill="#FFFF44" points="20,208.4766,24,212.4766,20,216.4766,16,212.4766" style="stroke:#B38D22;stroke-width:1.0;"/><text fill="#000000" font-family="sans-serif" font-size="14" lengthAdjust="spacing" textLength="204" x="29" y="216.8232">initUncoveredMinimum(): void</text><polygon fill="#FFFF44" points="20,224.7734,24,228.7734,20,232.7734,16,228.7734" style="stroke:#B38D22;stroke-width:1.0;"/><text fill="#000000" font-family="sans-serif" font-size="14" lengthAdjust="spacing" textLength="229" x="29" y="233.1201">findUncoveredMinimum(): double</text><polygon fill="#FFFF44" points="20,241.0703,24,245.0703,20,249.0703,16,245.0703" style="stroke:#B38D22;stroke-width:1.0;"/><text fill="#000000" font-family="sans-serif" font-size="14" lengthAdjust="spacing" textLength="179" x="29" y="249.417">removeCost(double): void</text></g></a><!--MD5=[64f1a517155e529a3cf27a26f02c000d]
class elki.utilities.datastructures.KuhnMunkresWong--><a href="KuhnMunkresWong.html" target="_top" title="KuhnMunkresWong.html" xlink:actuate="onRequest" xlink:href="KuhnMunkresWong.html" xlink:show="new" xlink:title="KuhnMunkresWong.html" xlink:type="simple"><g id="elem_elki.utilities.datastructures.KuhnMunkresWong"><rect codeLine="15" fill="#F1F1F1" height="37.9375" id="elki.utilities.datastructures.KuhnMunkresWong" rx="2.5" ry="2.5" style="stroke:#181818;stroke-width:0.5;" width="168" x="52.5" y="7"/><ellipse cx="67.5" cy="25.9688" fill="#ADD1B2" rx="11" ry="11" style="stroke:#181818;stroke-width:1.0;"/><path d="M70.4688,31.6094 Q69.8906,31.9063 69.25,32.0469 Q68.6094,32.2031 67.9063,32.2031 Q65.4063,32.2031 64.0781,30.5625 Q62.7656,28.9063 62.7656,25.7813 Q62.7656,22.6563 64.0781,21 Q65.4063,19.3438 67.9063,19.3438 Q68.6094,19.3438 69.25,19.5 Q69.9063,19.6563 70.4688,19.9531 L70.4688,22.6719 Q69.8438,22.0938 69.25,21.8281 Q68.6563,21.5469 68.0313,21.5469 Q66.6875,21.5469 66,22.625 Q65.3125,23.6875 65.3125,25.7813 Q65.3125,27.875 66,28.9531 Q66.6875,30.0156 68.0313,30.0156 Q68.6563,30.0156 69.25,29.75 Q69.8438,29.4688 70.4688,28.8906 L70.4688,31.6094 Z " fill="#000000"/><text fill="#000000" font-family="sans-serif" font-size="14" lengthAdjust="spacing" textLength="136" x="81.5" y="24.9951">KuhnMunkresWong</text><text fill="#000000" font-family="sans-serif" font-size="10" lengthAdjust="spacing" textLength="125" x="87" y="37.5791">elki.utilities.datastructures</text></g></a><!--MD5=[23ecc32f8daa689bd7658226e3d61e5a]
reverse link elki.utilities.datastructures.KuhnMunkresWong to elki.utilities.datastructures.KuhnMunkresStern--><g id="link_elki.utilities.datastructures.KuhnMunkresWong_elki.utilities.datastructures.KuhnMunkresStern"><path codeLine="17" d="M136.5,65.26 C136.5,77.35 136.5,91.17 136.5,104.93 " fill="none" id="elki.utilities.datastructures.KuhnMunkresWong-backto-elki.utilities.datastructures.KuhnMunkresStern" style="stroke:#181818;stroke-width:1.0;"/><polygon fill="none" points="129.5,65.15,136.5,45.15,143.5,65.15,129.5,65.15" style="stroke:#181818;stroke-width:1.0;"/></g><rect fill="none" height="11.6406" style="stroke:none;stroke-width:1.0;" width="186" x="35.5" y="262.7188"/><text fill="#888888" font-family="sans-serif" font-size="10" lengthAdjust="spacing" textLength="186" x="35.5" y="272.001">UMLDoclet 2.0.19, PlantUML 1.2022.8</text><!--MD5=[2a623d5e12286304c5f6140f82129c24]
@startuml
    remove .*\.(Instance|Par|Parameterizer|Factory)$
    set namespaceSeparator none
    hide empty fields
    hide empty methods

    class "<size:14>KuhnMunkresStern\n<size:10>elki.utilities.datastructures" as elki.utilities.datastructures.KuhnMunkresStern [[KuhnMunkresStern.html]] {
        -cptr: int[]
        -cmin: double[]
        +run(double[]): int[]
        #initUncoveredMinimum(): void
        #findUncoveredMinimum(): double
        #removeCost(double): void
    }

    class "<size:14>KuhnMunkresWong\n<size:10>elki.utilities.datastructures" as elki.utilities.datastructures.KuhnMunkresWong [[KuhnMunkresWong.html]]

    elki.utilities.datastructures.KuhnMunkresWong <|- - elki.utilities.datastructures.KuhnMunkresStern

    center footer UMLDoclet 2.0.19, PlantUML 1.2022.8
@enduml

PlantUML version 1.2022.8(Sun Sep 25 11:00:33 CEST 2022)
(APACHE source distribution)
Java Runtime: OpenJDK Runtime Environment
JVM: OpenJDK 64-Bit Server VM
Default Encoding: UTF-8
Language: de
Country: DE
--></g></svg>