<?xml version="1.0" encoding="UTF-8" standalone="no"?><svg xmlns="http://www.w3.org/2000/svg" xmlns:xlink="http://www.w3.org/1999/xlink" contentStyleType="text/css" height="257px" preserveAspectRatio="none" style="width:395px;height:257px;background:#FFFFFF;" version="1.1" viewBox="0 0 395 257" width="395px" zoomAndPan="magnify"><defs/><g><!--MD5=[509ffea6144b87179dab0c33f68ad66a]
class elki.visualization.projector.HistogramFactory--><a href="HistogramFactory.html" target="_top" title="HistogramFactory.html" xlink:actuate="onRequest" xlink:href="HistogramFactory.html" xlink:show="new" xlink:title="HistogramFactory.html" xlink:type="simple"><g id="elem_elki.visualization.projector.HistogramFactory"><rect codeLine="6" fill="#F1F1F1" height="102.8281" id="elki.visualization.projector.HistogramFactory" rx="2.5" ry="2.5" style="stroke:#181818;stroke-width:0.5;" width="375" x="10" y="129"/><ellipse cx="132.25" cy="147.9688" fill="#ADD1B2" rx="11" ry="11" style="stroke:#181818;stroke-width:1.0;"/><path d="M135.2188,153.6094 Q134.6406,153.9063 134,154.0469 Q133.3594,154.2031 132.6563,154.2031 Q130.1563,154.2031 128.8281,152.5625 Q127.5156,150.9063 127.5156,147.7813 Q127.5156,144.6563 128.8281,143 Q130.1563,141.3438 132.6563,141.3438 Q133.3594,141.3438 134,141.5 Q134.6563,141.6563 135.2188,141.9531 L135.2188,144.6719 Q134.5938,144.0938 134,143.8281 Q133.4063,143.5469 132.7813,143.5469 Q131.4375,143.5469 130.75,144.625 Q130.0625,145.6875 130.0625,147.7813 Q130.0625,149.875 130.75,150.9531 Q131.4375,152.0156 132.7813,152.0156 Q133.4063,152.0156 134,151.75 Q134.5938,151.4688 135.2188,150.8906 L135.2188,153.6094 Z " fill="#000000"/><text fill="#000000" font-family="sans-serif" font-size="14" lengthAdjust="spacing" textLength="120" x="153.75" y="146.9951">HistogramFactory</text><text fill="#000000" font-family="sans-serif" font-size="10" lengthAdjust="spacing" textLength="122" x="152.75" y="159.5791">elki.visualization.projector</text><line style="stroke:#181818;stroke-width:0.5;" x1="11" x2="384" y1="166.9375" y2="166.9375"/><rect fill="none" height="6" style="stroke:#C82930;stroke-width:1.0;" width="6" x="18" y="177.5859"/><text fill="#000000" font-family="sans-serif" font-size="14" lengthAdjust="spacing" textLength="79" x="30" y="183.9326">maxdim: int</text><line style="stroke:#181818;stroke-width:0.5;" x1="11" x2="384" y1="191.2344" y2="191.2344"/><ellipse cx="21" cy="204.8828" fill="#84BE84" rx="3" ry="3" style="stroke:#038048;stroke-width:1.0;"/><text fill="#000000" font-family="sans-serif" font-size="14" lengthAdjust="spacing" textLength="147" x="30" y="208.2295">HistogramFactory(int)</text><ellipse cx="21" cy="221.1797" fill="#84BE84" rx="3" ry="3" style="stroke:#038048;stroke-width:1.0;"/><text fill="#000000" font-family="sans-serif" font-size="14" lengthAdjust="spacing" textLength="349" x="30" y="224.5264">processNewResult(VisualizerContext, Object): void</text></g></a><!--MD5=[8cb191ed28a35c6fd04611f453cf654d]
class elki.visualization.projector.ProjectorFactory--><a href="ProjectorFactory.html" target="_top" title="ProjectorFactory.html" xlink:actuate="onRequest" xlink:href="ProjectorFactory.html" xlink:show="new" xlink:title="ProjectorFactory.html" xlink:type="simple"><g id="elem_elki.visualization.projector.ProjectorFactory"><rect codeLine="12" fill="#F1F1F1" height="62.2344" id="elki.visualization.projector.ProjectorFactory" rx="2.5" ry="2.5" style="stroke:#181818;stroke-width:0.5;" width="381" x="7" y="7"/><ellipse cx="127.75" cy="25.9688" fill="#B4A7E5" rx="11" ry="11" style="stroke:#181818;stroke-width:1.0;"/><path d="M123.6719,21.7344 L123.6719,19.5781 L131.0625,19.5781 L131.0625,21.7344 L128.5938,21.7344 L128.5938,29.8125 L131.0625,29.8125 L131.0625,31.9688 L123.6719,31.9688 L123.6719,29.8125 L126.1406,29.8125 L126.1406,21.7344 L123.6719,21.7344 Z " fill="#000000"/><text fill="#000000" font-family="sans-serif" font-size="14" font-style="italic" lengthAdjust="spacing" textLength="114" x="156.75" y="24.9951">ProjectorFactory</text><text fill="#000000" font-family="sans-serif" font-size="10" font-style="italic" lengthAdjust="spacing" textLength="131" x="148.25" y="37.5791">elki.visualization.projector</text><line style="stroke:#181818;stroke-width:0.5;" x1="8" x2="387" y1="44.9375" y2="44.9375"/><ellipse cx="18" cy="58.5859" fill="#84BE84" rx="3" ry="3" style="stroke:#038048;stroke-width:1.0;"/><text fill="#000000" font-family="sans-serif" font-size="14" font-style="italic" lengthAdjust="spacing" textLength="355" x="27" y="61.9326">processNewResult(VisualizerContext, Object): void</text></g></a><!--MD5=[45e2d119515f2d15160e91e171c2f30a]
reverse link elki.visualization.projector.ProjectorFactory to elki.visualization.projector.HistogramFactory--><g id="link_elki.visualization.projector.ProjectorFactory_elki.visualization.projector.HistogramFactory"><path codeLine="17" d="M197.5,89.5 C197.5,102.33 197.5,116.12 197.5,128.96 " fill="none" id="elki.visualization.projector.ProjectorFactory-backto-elki.visualization.projector.HistogramFactory" style="stroke:#181818;stroke-width:1.0;stroke-dasharray:7.0,7.0;"/><polygon fill="none" points="190.5,89.14,197.5,69.14,204.5,89.14,190.5,89.14" style="stroke:#181818;stroke-width:1.0;"/></g><rect fill="none" height="11.6406" style="stroke:none;stroke-width:1.0;" width="186" x="97.5" y="237.8281"/><text fill="#888888" font-family="sans-serif" font-size="10" lengthAdjust="spacing" textLength="186" x="97.5" y="247.1104">UMLDoclet 2.0.19, PlantUML 1.2022.8</text><!--MD5=[03c2be159c5f4995cc937e01851861ac]
@startuml
    remove .*\.(Instance|Par|Parameterizer|Factory)$
    set namespaceSeparator none
    hide empty fields
    hide empty methods

    class "<size:14>HistogramFactory\n<size:10>elki.visualization.projector" as elki.visualization.projector.HistogramFactory [[HistogramFactory.html]] {
        -maxdim: int
        +HistogramFactory(int)
        +processNewResult(VisualizerContext, Object): void
    }

    interface "<size:14>ProjectorFactory\n<size:10>elki.visualization.projector" as elki.visualization.projector.ProjectorFactory [[ProjectorFactory.html]] {
        {abstract} +processNewResult(VisualizerContext, Object): void
    }
    class "<size:14>HistogramFactory.Par\n<size:10>elki.visualization.projector" as elki.visualization.projector.HistogramFactory.Par [[HistogramFactory.Par.html]]

    elki.visualization.projector.ProjectorFactory <|.. elki.visualization.projector.HistogramFactory
    elki.visualization.projector.HistogramFactory +- - elki.visualization.projector.HistogramFactory.Par

    center footer UMLDoclet 2.0.19, PlantUML 1.2022.8
@enduml

PlantUML version 1.2022.8(Sun Sep 25 11:00:33 CEST 2022)
(APACHE source distribution)
Java Runtime: OpenJDK Runtime Environment
JVM: OpenJDK 64-Bit Server VM
Default Encoding: UTF-8
Language: de
Country: DE
--></g></svg>