<?xml version="1.0" encoding="UTF-8" standalone="no"?><svg xmlns="http://www.w3.org/2000/svg" xmlns:xlink="http://www.w3.org/1999/xlink" contentStyleType="text/css" height="276px" preserveAspectRatio="none" style="width:779px;height:276px;background:#FFFFFF;" version="1.1" viewBox="0 0 779 276" width="779px" zoomAndPan="magnify"><defs/><g><!--MD5=[7fc2e934eb48039b33135b9019ccf825]
class elki.index.tree.spatial.kd.MemoryKDTree.KDTreeKNNSearcher--><a href="MemoryKDTree.KDTreeKNNSearcher.html" target="_top" title="MemoryKDTree.KDTreeKNNSearcher.html" xlink:actuate="onRequest" xlink:href="MemoryKDTree.KDTreeKNNSearcher.html" xlink:show="new" xlink:title="MemoryKDTree.KDTreeKNNSearcher.html" xlink:type="simple"><g id="elem_elki.index.tree.spatial.kd.MemoryKDTree.KDTreeKNNSearcher"><rect codeLine="6" fill="#F1F1F1" height="119.125" id="elki.index.tree.spatial.kd.MemoryKDTree.KDTreeKNNSearcher" rx="2.5" ry="2.5" style="stroke:#181818;stroke-width:0.5;" width="765" x="7" y="132"/><ellipse cx="258.25" cy="150.9688" fill="#ADD1B2" rx="11" ry="11" style="stroke:#181818;stroke-width:1.0;"/><path d="M261.2188,156.6094 Q260.6406,156.9063 260,157.0469 Q259.3594,157.2031 258.6563,157.2031 Q256.1563,157.2031 254.8281,155.5625 Q253.5156,153.9063 253.5156,150.7813 Q253.5156,147.6563 254.8281,146 Q256.1563,144.3438 258.6563,144.3438 Q259.3594,144.3438 260,144.5 Q260.6563,144.6563 261.2188,144.9531 L261.2188,147.6719 Q260.5938,147.0938 260,146.8281 Q259.4063,146.5469 258.7813,146.5469 Q257.4375,146.5469 256.75,147.625 Q256.0625,148.6875 256.0625,150.7813 Q256.0625,152.875 256.75,153.9531 Q257.4375,155.0156 258.7813,155.0156 Q259.4063,155.0156 260,154.75 Q260.5938,154.4688 261.2188,153.8906 L261.2188,156.6094 Z " fill="#000000"/><text fill="#000000" font-family="sans-serif" font-size="14" lengthAdjust="spacing" textLength="254" x="278.75" y="149.9951">MemoryKDTree.KDTreeKNNSearcher</text><text fill="#000000" font-family="sans-serif" font-size="10" lengthAdjust="spacing" textLength="115" x="348.25" y="162.5791">elki.index.tree.spatial.kd</text><line style="stroke:#181818;stroke-width:0.5;" x1="8" x2="771" y1="169.9375" y2="169.9375"/><rect fill="none" height="6" style="stroke:#C82930;stroke-width:1.0;" width="6" x="15" y="180.5859"/><text fill="#000000" font-family="sans-serif" font-size="14" lengthAdjust="spacing" textLength="349" x="27" y="186.9326">distance: PartialDistance&lt;? super NumberVector&gt;</text><line style="stroke:#181818;stroke-width:0.5;" x1="8" x2="771" y1="194.2344" y2="194.2344"/><ellipse cx="18" cy="207.8828" fill="#84BE84" rx="3" ry="3" style="stroke:#038048;stroke-width:1.0;"/><text fill="#000000" font-family="sans-serif" font-size="14" lengthAdjust="spacing" textLength="434" x="27" y="211.2295">KDTreeKNNSearcher(PartialDistance&lt;? super NumberVector&gt;)</text><ellipse cx="18" cy="224.1797" fill="#84BE84" rx="3" ry="3" style="stroke:#038048;stroke-width:1.0;"/><text fill="#000000" font-family="sans-serif" font-size="14" lengthAdjust="spacing" textLength="323" x="27" y="227.5264">getKNN(O extends NumberVector, int): KNNList</text><rect fill="#F24D5C" height="6" style="stroke:#C82930;stroke-width:1.0;" width="6" x="15" y="237.4766"/><text fill="#000000" font-family="sans-serif" font-size="14" lengthAdjust="spacing" textLength="739" x="27" y="243.8232">kdKNNSearch(Object, O extends NumberVector, KNNHeap, DBIDArrayIter, double[], double, double): double</text></g></a><!--MD5=[646bf59ebfef2212020667c37ebc45d8]
class elki.database.query.knn.KNNSearcher--><a href="../../../../database/query/knn/KNNSearcher.html" target="_top" title="../../../../database/query/knn/KNNSearcher.html" xlink:actuate="onRequest" xlink:href="../../../../database/query/knn/KNNSearcher.html" xlink:show="new" xlink:title="../../../../database/query/knn/KNNSearcher.html" xlink:type="simple"><g id="elem_elki.database.query.knn.KNNSearcher"><rect codeLine="13" fill="#F1F1F1" height="62.2344" id="elki.database.query.knn.KNNSearcher" rx="2.5" ry="2.5" style="stroke:#181818;stroke-width:0.5;" width="358" x="28.5" y="10"/><ellipse cx="67.8" cy="28.9688" fill="#B4A7E5" rx="11" ry="11" style="stroke:#181818;stroke-width:1.0;"/><path d="M63.7219,24.7344 L63.7219,22.5781 L71.1125,22.5781 L71.1125,24.7344 L68.6438,24.7344 L68.6438,32.8125 L71.1125,32.8125 L71.1125,34.9688 L63.7219,34.9688 L63.7219,32.8125 L66.1906,32.8125 L66.1906,24.7344 L63.7219,24.7344 Z " fill="#000000"/><text fill="#000000" font-family="sans-serif" font-size="14" font-style="italic" lengthAdjust="spacing" textLength="94" x="99.2" y="27.9951">KNNSearcher</text><text fill="#000000" font-family="sans-serif" font-size="10" font-style="italic" lengthAdjust="spacing" textLength="118" x="87.2" y="40.5791">elki.database.query.knn</text><rect fill="#FFFFFF" height="15.9688" style="stroke:#181818;stroke-width:1.0;stroke-dasharray:2.0,2.0;" width="152" x="237.5" y="7"/><text fill="#000000" font-family="sans-serif" font-size="12" font-style="italic" lengthAdjust="spacing" textLength="150" x="238.5" y="19.1387">O extends NumberVector</text><line style="stroke:#181818;stroke-width:0.5;" x1="29.5" x2="385.5" y1="47.9375" y2="47.9375"/><ellipse cx="39.5" cy="61.5859" fill="#84BE84" rx="3" ry="3" style="stroke:#038048;stroke-width:1.0;"/><text fill="#000000" font-family="sans-serif" font-size="14" font-style="italic" lengthAdjust="spacing" textLength="332" x="48.5" y="64.9326">getKNN(O extends NumberVector, int): KNNList</text></g></a><!--MD5=[8acb448bab992ce0cd3218ae847ba945]
class elki.index.tree.spatial.kd.MemoryKDTree--><a href="MemoryKDTree.html" target="_top" title="MemoryKDTree.html" xlink:actuate="onRequest" xlink:href="MemoryKDTree.html" xlink:show="new" xlink:title="MemoryKDTree.html" xlink:type="simple"><g id="elem_elki.index.tree.spatial.kd.MemoryKDTree"><rect codeLine="16" fill="#F1F1F1" height="37.9375" id="elki.index.tree.spatial.kd.MemoryKDTree" rx="2.5" ry="2.5" style="stroke:#181818;stroke-width:0.5;" width="301" x="422" y="22"/><ellipse cx="437" cy="40.9688" fill="#ADD1B2" rx="11" ry="11" style="stroke:#181818;stroke-width:1.0;"/><path d="M439.9688,46.6094 Q439.3906,46.9063 438.75,47.0469 Q438.1094,47.2031 437.4063,47.2031 Q434.9063,47.2031 433.5781,45.5625 Q432.2656,43.9063 432.2656,40.7813 Q432.2656,37.6563 433.5781,36 Q434.9063,34.3438 437.4063,34.3438 Q438.1094,34.3438 438.75,34.5 Q439.4063,34.6563 439.9688,34.9531 L439.9688,37.6719 Q439.3438,37.0938 438.75,36.8281 Q438.1563,36.5469 437.5313,36.5469 Q436.1875,36.5469 435.5,37.625 Q434.8125,38.6875 434.8125,40.7813 Q434.8125,42.875 435.5,43.9531 Q436.1875,45.0156 437.5313,45.0156 Q438.1563,45.0156 438.75,44.75 Q439.3438,44.4688 439.9688,43.8906 L439.9688,46.6094 Z " fill="#000000"/><text fill="#000000" font-family="sans-serif" font-size="14" lengthAdjust="spacing" textLength="107" x="455" y="39.9951">MemoryKDTree</text><text fill="#000000" font-family="sans-serif" font-size="10" lengthAdjust="spacing" textLength="115" x="451" y="52.5791">elki.index.tree.spatial.kd</text><rect fill="#FFFFFF" height="15.9688" style="stroke:#181818;stroke-width:1.0;stroke-dasharray:2.0,2.0;" width="152" x="574" y="19"/><text fill="#000000" font-family="sans-serif" font-size="12" font-style="italic" lengthAdjust="spacing" textLength="150" x="575" y="31.1387">O extends NumberVector</text></g></a><!--MD5=[785a6a34a982cb849cf4815729e36ff4]
reverse link elki.database.query.knn.KNNSearcher to elki.index.tree.spatial.kd.MemoryKDTree.KDTreeKNNSearcher--><g id="link_elki.database.query.knn.KNNSearcher_elki.index.tree.spatial.kd.MemoryKDTree.KDTreeKNNSearcher"><path codeLine="18" d="M260.06,84.88 C278.05,99.56 298.49,116.24 317.74,131.95 " fill="none" id="elki.database.query.knn.KNNSearcher-backto-elki.index.tree.spatial.kd.MemoryKDTree.KDTreeKNNSearcher" style="stroke:#181818;stroke-width:1.0;stroke-dasharray:7.0,7.0;"/><polygon fill="none" points="255.4,90.12,244.33,72.05,264.25,79.27,255.4,90.12" style="stroke:#181818;stroke-width:1.0;"/></g><!--MD5=[f67c149cb3dec03ff1248ed92161c497]
reverse link elki.index.tree.spatial.kd.MemoryKDTree to elki.index.tree.spatial.kd.MemoryKDTree.KDTreeKNNSearcher--><g id="link_elki.index.tree.spatial.kd.MemoryKDTree_elki.index.tree.spatial.kd.MemoryKDTree.KDTreeKNNSearcher"><path codeLine="19" d="M538.3,69.75 C516.83,87.17 488.31,110.32 461.99,131.68 " fill="none" id="elki.index.tree.spatial.kd.MemoryKDTree-backto-elki.index.tree.spatial.kd.MemoryKDTree.KDTreeKNNSearcher" style="stroke:#181818;stroke-width:1.0;"/><ellipse cx="543.8474" cy="65.2502" fill="#FFFFFF" rx="8" ry="8" style="stroke:#181818;stroke-width:1.0;"/><line style="stroke:#181818;stroke-width:1.0;" x1="537.6347" x2="550.06" y1="70.2903" y2="60.21"/><line style="stroke:#181818;stroke-width:1.0;" x1="538.8072" x2="548.8875" y1="59.0375" y2="71.4628"/></g><rect fill="none" height="11.6406" style="stroke:none;stroke-width:1.0;" width="186" x="289.5" y="257.125"/><text fill="#888888" font-family="sans-serif" font-size="10" lengthAdjust="spacing" textLength="186" x="289.5" y="266.4072">UMLDoclet 2.0.19, PlantUML 1.2022.8</text><!--MD5=[2b66179b1077e03f62760a347c4fec70]
@startuml
    remove .*\.(Instance|Par|Parameterizer|Factory)$
    set namespaceSeparator none
    hide empty fields
    hide empty methods

    class "<size:14>MemoryKDTree.KDTreeKNNSearcher\n<size:10>elki.index.tree.spatial.kd" as elki.index.tree.spatial.kd.MemoryKDTree.KDTreeKNNSearcher [[MemoryKDTree.KDTreeKNNSearcher.html]] {
        -distance: PartialDistance<? super NumberVector>
        +KDTreeKNNSearcher(PartialDistance<? super NumberVector>)
        +getKNN(O extends NumberVector, int): KNNList
        -kdKNNSearch(Object, O extends NumberVector, KNNHeap, DBIDArrayIter, double[], double, double): double
    }

    interface "<size:14>KNNSearcher\n<size:10>elki.database.query.knn" as elki.database.query.knn.KNNSearcher<O extends NumberVector> [[../../../../database/query/knn/KNNSearcher.html]] {
        {abstract} +getKNN(O extends NumberVector, int): KNNList
    }
    class "<size:14>MemoryKDTree\n<size:10>elki.index.tree.spatial.kd" as elki.index.tree.spatial.kd.MemoryKDTree<O extends NumberVector> [[MemoryKDTree.html]]

    elki.database.query.knn.KNNSearcher <|.. elki.index.tree.spatial.kd.MemoryKDTree.KDTreeKNNSearcher
    elki.index.tree.spatial.kd.MemoryKDTree +- - elki.index.tree.spatial.kd.MemoryKDTree.KDTreeKNNSearcher

    center footer UMLDoclet 2.0.19, PlantUML 1.2022.8
@enduml

PlantUML version 1.2022.8(Sun Sep 25 11:00:33 CEST 2022)
(APACHE source distribution)
Java Runtime: OpenJDK Runtime Environment
JVM: OpenJDK 64-Bit Server VM
Default Encoding: UTF-8
Language: de
Country: DE
--></g></svg>