<?xml version="1.0" encoding="UTF-8" standalone="no"?><svg xmlns="http://www.w3.org/2000/svg" xmlns:xlink="http://www.w3.org/1999/xlink" contentStyleType="text/css" height="634px" preserveAspectRatio="none" style="width:1828px;height:634px;background:#FFFFFF;" version="1.1" viewBox="0 0 1828 634" width="1828px" zoomAndPan="magnify"><defs/><g><!--MD5=[8acb448bab992ce0cd3218ae847ba945]
class elki.index.tree.spatial.kd.MemoryKDTree--><a href="MemoryKDTree.html" target="_top" title="MemoryKDTree.html" xlink:actuate="onRequest" xlink:href="MemoryKDTree.html" xlink:show="new" xlink:title="MemoryKDTree.html" xlink:type="simple"><g id="elem_elki.index.tree.spatial.kd.MemoryKDTree"><rect codeLine="6" fill="#F1F1F1" height="379.875" id="elki.index.tree.spatial.kd.MemoryKDTree" rx="2.5" ry="2.5" style="stroke:#181818;stroke-width:0.5;" width="933" x="379.5" y="132"/><ellipse cx="707.25" cy="150.9688" fill="#ADD1B2" rx="11" ry="11" style="stroke:#181818;stroke-width:1.0;"/><path d="M710.2188,156.6094 Q709.6406,156.9063 709,157.0469 Q708.3594,157.2031 707.6563,157.2031 Q705.1563,157.2031 703.8281,155.5625 Q702.5156,153.9063 702.5156,150.7813 Q702.5156,147.6563 703.8281,146 Q705.1563,144.3438 707.6563,144.3438 Q708.3594,144.3438 709,144.5 Q709.6563,144.6563 710.2188,144.9531 L710.2188,147.6719 Q709.5938,147.0938 709,146.8281 Q708.4063,146.5469 707.7813,146.5469 Q706.4375,146.5469 705.75,147.625 Q705.0625,148.6875 705.0625,150.7813 Q705.0625,152.875 705.75,153.9531 Q706.4375,155.0156 707.7813,155.0156 Q708.4063,155.0156 709,154.75 Q709.5938,154.4688 710.2188,153.8906 L710.2188,156.6094 Z " fill="#000000"/><text fill="#000000" font-family="sans-serif" font-size="14" lengthAdjust="spacing" textLength="107" x="731.75" y="149.9951">MemoryKDTree</text><text fill="#000000" font-family="sans-serif" font-size="10" lengthAdjust="spacing" textLength="115" x="727.75" y="162.5791">elki.index.tree.spatial.kd</text><rect fill="#FFFFFF" height="15.9688" style="stroke:#181818;stroke-width:1.0;stroke-dasharray:2.0,2.0;" width="152" x="1163.5" y="129"/><text fill="#000000" font-family="sans-serif" font-size="12" font-style="italic" lengthAdjust="spacing" textLength="150" x="1164.5" y="141.1387">O extends NumberVector</text><line style="stroke:#181818;stroke-width:0.5;" x1="380.5" x2="1311.5" y1="169.9375" y2="169.9375"/><rect fill="none" height="6" style="stroke:#C82930;stroke-width:1.0;" width="6" x="387.5" y="180.5859"/><text fill="#000000" font-family="sans-serif" font-size="14" lengthAdjust="spacing" text-decoration="underline" textLength="93" x="399.5" y="186.9326">LOG: Logging</text><polygon fill="none" points="390.5,194.8828,394.5,198.8828,390.5,202.8828,386.5,198.8828" style="stroke:#B38D22;stroke-width:1.0;"/><text fill="#000000" font-family="sans-serif" font-size="14" lengthAdjust="spacing" textLength="315" x="399.5" y="203.2295">relation: Relation&lt;O extends NumberVector&gt;</text><polygon fill="none" points="390.5,211.1797,394.5,215.1797,390.5,219.1797,386.5,215.1797" style="stroke:#B38D22;stroke-width:1.0;"/><text fill="#000000" font-family="sans-serif" font-size="14" lengthAdjust="spacing" textLength="123" x="399.5" y="219.5264">split: SplitStrategy</text><polygon fill="none" points="390.5,227.4766,394.5,231.4766,390.5,235.4766,386.5,231.4766" style="stroke:#B38D22;stroke-width:1.0;"/><text fill="#000000" font-family="sans-serif" font-size="14" lengthAdjust="spacing" textLength="78" x="399.5" y="235.8232">leafsize: int</text><polygon fill="none" points="390.5,243.7734,394.5,247.7734,390.5,251.7734,386.5,247.7734" style="stroke:#B38D22;stroke-width:1.0;"/><text fill="#000000" font-family="sans-serif" font-size="14" lengthAdjust="spacing" textLength="131" x="399.5" y="252.1201">sorted: ArrayDBIDs</text><polygon fill="none" points="390.5,260.0703,394.5,264.0703,390.5,268.0703,386.5,264.0703" style="stroke:#B38D22;stroke-width:1.0;"/><text fill="#000000" font-family="sans-serif" font-size="14" lengthAdjust="spacing" textLength="82" x="399.5" y="268.417">root: Object</text><polygon fill="none" points="390.5,276.3672,394.5,280.3672,390.5,284.3672,386.5,280.3672" style="stroke:#B38D22;stroke-width:1.0;"/><text fill="#000000" font-family="sans-serif" font-size="14" lengthAdjust="spacing" textLength="59" x="399.5" y="284.7139">dims: int</text><polygon fill="none" points="390.5,292.6641,394.5,296.6641,390.5,300.6641,386.5,296.6641" style="stroke:#B38D22;stroke-width:1.0;"/><text fill="#000000" font-family="sans-serif" font-size="14" lengthAdjust="spacing" textLength="135" x="399.5" y="301.0107">objaccess: Counter</text><polygon fill="none" points="390.5,308.9609,394.5,312.9609,390.5,316.9609,386.5,312.9609" style="stroke:#B38D22;stroke-width:1.0;"/><text fill="#000000" font-family="sans-serif" font-size="14" lengthAdjust="spacing" textLength="117" x="399.5" y="317.3076">distcalc: Counter</text><line style="stroke:#181818;stroke-width:0.5;" x1="380.5" x2="1311.5" y1="324.6094" y2="324.6094"/><ellipse cx="390.5" cy="338.2578" fill="#84BE84" rx="3" ry="3" style="stroke:#038048;stroke-width:1.0;"/><text fill="#000000" font-family="sans-serif" font-size="14" lengthAdjust="spacing" textLength="397" x="399.5" y="341.6045">MemoryKDTree(Relation&lt;O extends NumberVector&gt;, int)</text><ellipse cx="390.5" cy="354.5547" fill="#84BE84" rx="3" ry="3" style="stroke:#038048;stroke-width:1.0;"/><text fill="#000000" font-family="sans-serif" font-size="14" lengthAdjust="spacing" textLength="491" x="399.5" y="357.9014">MemoryKDTree(Relation&lt;O extends NumberVector&gt;, SplitStrategy, int)</text><ellipse cx="390.5" cy="370.8516" fill="#84BE84" rx="3" ry="3" style="stroke:#038048;stroke-width:1.0;"/><text fill="#000000" font-family="sans-serif" font-size="14" lengthAdjust="spacing" textLength="101" x="399.5" y="374.1982">initialize(): void</text><ellipse cx="390.5" cy="387.1484" fill="#84BE84" rx="3" ry="3" style="stroke:#038048;stroke-width:1.0;"/><text fill="#000000" font-family="sans-serif" font-size="14" lengthAdjust="spacing" textLength="907" x="399.5" y="390.4951">buildTree(Relation&lt;? extends NumberVector&gt;, int, int, ArrayModifiableDBIDs, DBIDArrayMIter, SortDBIDsBySingleDimension): Object</text><rect fill="#F24D5C" height="6" style="stroke:#C82930;stroke-width:1.0;" width="6" x="387.5" y="400.4453"/><text fill="#000000" font-family="sans-serif" font-size="14" lengthAdjust="spacing" textLength="481" x="399.5" y="406.792">assertSplitConsistent(int, int, int, int, double, DBIDArrayMIter): boolean</text><ellipse cx="390.5" cy="419.7422" fill="#84BE84" rx="3" ry="3" style="stroke:#038048;stroke-width:1.0;"/><text fill="#000000" font-family="sans-serif" font-size="14" lengthAdjust="spacing" textLength="130" x="399.5" y="423.0889">logStatistics(): void</text><polygon fill="#FFFF44" points="390.5,431.0391,394.5,435.0391,390.5,439.0391,386.5,435.0391" style="stroke:#B38D22;stroke-width:1.0;"/><text fill="#000000" font-family="sans-serif" font-size="14" lengthAdjust="spacing" textLength="182" x="399.5" y="439.3857">countObjectAccess(): void</text><polygon fill="#FFFF44" points="390.5,447.3359,394.5,451.3359,390.5,455.3359,386.5,451.3359" style="stroke:#B38D22;stroke-width:1.0;"/><text fill="#000000" font-family="sans-serif" font-size="14" lengthAdjust="spacing" textLength="237" x="399.5" y="455.6826">countDistanceComputation(): void</text><ellipse cx="390.5" cy="468.6328" fill="#84BE84" rx="3" ry="3" style="stroke:#038048;stroke-width:1.0;"/><text fill="#000000" font-family="sans-serif" font-size="14" lengthAdjust="spacing" textLength="750" x="399.5" y="471.9795">kNNByObject(DistanceQuery&lt;O extends NumberVector&gt;, int, int): KNNSearcher&lt;O extends NumberVector&gt;</text><ellipse cx="390.5" cy="484.9297" fill="#84BE84" rx="3" ry="3" style="stroke:#038048;stroke-width:1.0;"/><text fill="#000000" font-family="sans-serif" font-size="14" lengthAdjust="spacing" textLength="809" x="399.5" y="488.2764">rangeByObject(DistanceQuery&lt;O extends NumberVector&gt;, double, int): RangeSearcher&lt;O extends NumberVector&gt;</text><ellipse cx="390.5" cy="501.2266" fill="#84BE84" rx="3" ry="3" style="stroke:#038048;stroke-width:1.0;"/><text fill="#000000" font-family="sans-serif" font-size="14" lengthAdjust="spacing" textLength="816" x="399.5" y="504.5732">priorityByObject(DistanceQuery&lt;O extends NumberVector&gt;, double, int): PrioritySearcher&lt;O extends NumberVector&gt;</text></g></a><!--MD5=[b16459038d58214302b236cfb75028c3]
class elki.index.DistancePriorityIndex--><a href="../../../DistancePriorityIndex.html" target="_top" title="../../../DistancePriorityIndex.html" xlink:actuate="onRequest" xlink:href="../../../DistancePriorityIndex.html" xlink:show="new" xlink:title="../../../DistancePriorityIndex.html" xlink:type="simple"><g id="elem_elki.index.DistancePriorityIndex"><rect codeLine="29" fill="#F1F1F1" height="62.2344" id="elki.index.DistancePriorityIndex" rx="2.5" ry="2.5" style="stroke:#181818;stroke-width:0.5;" width="526" x="583" y="10"/><ellipse cx="690.25" cy="28.9688" fill="#B4A7E5" rx="11" ry="11" style="stroke:#181818;stroke-width:1.0;"/><path d="M686.1719,24.7344 L686.1719,22.5781 L693.5625,22.5781 L693.5625,24.7344 L691.0938,24.7344 L691.0938,32.8125 L693.5625,32.8125 L693.5625,34.9688 L686.1719,34.9688 L686.1719,32.8125 L688.6406,32.8125 L688.6406,24.7344 L686.1719,24.7344 Z " fill="#000000"/><text fill="#000000" font-family="sans-serif" font-size="14" font-style="italic" lengthAdjust="spacing" textLength="149" x="710.75" y="27.9951">DistancePriorityIndex</text><text fill="#000000" font-family="sans-serif" font-size="10" font-style="italic" lengthAdjust="spacing" textLength="48" x="761.25" y="40.5791">elki.index</text><rect fill="#FFFFFF" height="15.9688" style="stroke:#181818;stroke-width:1.0;stroke-dasharray:2.0,2.0;" width="152" x="960" y="7"/><text fill="#000000" font-family="sans-serif" font-size="12" font-style="italic" lengthAdjust="spacing" textLength="150" x="961" y="19.1387">O extends NumberVector</text><line style="stroke:#181818;stroke-width:0.5;" x1="584" x2="1108" y1="47.9375" y2="47.9375"/><ellipse cx="594" cy="61.5859" fill="#84BE84" rx="3" ry="3" style="stroke:#038048;stroke-width:1.0;"/><text fill="#000000" font-family="sans-serif" font-size="14" font-style="italic" lengthAdjust="spacing" textLength="500" x="603" y="64.9326">priorityByObject(DistanceQuery&lt;O&gt;, double, int): PrioritySearcher&lt;O&gt;</text></g></a><!--MD5=[a8a09eef6e5f6e4b4bc6fd75057ab2ec]
class elki.index.tree.spatial.kd.MemoryKDTree.CountingRelation--><a href="MemoryKDTree.CountingRelation.html" target="_top" title="MemoryKDTree.CountingRelation.html" xlink:actuate="onRequest" xlink:href="MemoryKDTree.CountingRelation.html" xlink:show="new" xlink:title="MemoryKDTree.CountingRelation.html" xlink:type="simple"><g id="elem_elki.index.tree.spatial.kd.MemoryKDTree.CountingRelation"><rect codeLine="32" fill="#F1F1F1" height="37.9375" id="elki.index.tree.spatial.kd.MemoryKDTree.CountingRelation" rx="2.5" ry="2.5" style="stroke:#181818;stroke-width:0.5;" width="262" x="7" y="572"/><ellipse cx="22" cy="590.9688" fill="#ADD1B2" rx="11" ry="11" style="stroke:#181818;stroke-width:1.0;"/><path d="M24.9688,596.6094 Q24.3906,596.9063 23.75,597.0469 Q23.1094,597.2031 22.4063,597.2031 Q19.9063,597.2031 18.5781,595.5625 Q17.2656,593.9063 17.2656,590.7813 Q17.2656,587.6563 18.5781,586 Q19.9063,584.3438 22.4063,584.3438 Q23.1094,584.3438 23.75,584.5 Q24.4063,584.6563 24.9688,584.9531 L24.9688,587.6719 Q24.3438,587.0938 23.75,586.8281 Q23.1563,586.5469 22.5313,586.5469 Q21.1875,586.5469 20.5,587.625 Q19.8125,588.6875 19.8125,590.7813 Q19.8125,592.875 20.5,593.9531 Q21.1875,595.0156 22.5313,595.0156 Q23.1563,595.0156 23.75,594.75 Q24.3438,594.4688 24.9688,593.8906 L24.9688,596.6094 Z " fill="#000000"/><text fill="#000000" font-family="sans-serif" font-size="14" lengthAdjust="spacing" textLength="230" x="36" y="589.9951">MemoryKDTree.CountingRelation</text><text fill="#000000" font-family="sans-serif" font-size="10" lengthAdjust="spacing" textLength="115" x="93.5" y="602.5791">elki.index.tree.spatial.kd</text></g></a><!--MD5=[b9baaa13ba3cac41fead781d11e54b92]
class elki.index.tree.spatial.kd.MemoryKDTree.KDNode--><a href="MemoryKDTree.KDNode.html" target="_top" title="MemoryKDTree.KDNode.html" xlink:actuate="onRequest" xlink:href="MemoryKDTree.KDNode.html" xlink:show="new" xlink:title="MemoryKDTree.KDNode.html" xlink:type="simple"><g id="elem_elki.index.tree.spatial.kd.MemoryKDTree.KDNode"><rect codeLine="33" fill="#F1F1F1" height="37.9375" id="elki.index.tree.spatial.kd.MemoryKDTree.KDNode" rx="2.5" ry="2.5" style="stroke:#181818;stroke-width:0.5;" width="200" x="304" y="572"/><ellipse cx="319" cy="590.9688" fill="#ADD1B2" rx="11" ry="11" style="stroke:#181818;stroke-width:1.0;"/><path d="M321.9688,596.6094 Q321.3906,596.9063 320.75,597.0469 Q320.1094,597.2031 319.4063,597.2031 Q316.9063,597.2031 315.5781,595.5625 Q314.2656,593.9063 314.2656,590.7813 Q314.2656,587.6563 315.5781,586 Q316.9063,584.3438 319.4063,584.3438 Q320.1094,584.3438 320.75,584.5 Q321.4063,584.6563 321.9688,584.9531 L321.9688,587.6719 Q321.3438,587.0938 320.75,586.8281 Q320.1563,586.5469 319.5313,586.5469 Q318.1875,586.5469 317.5,587.625 Q316.8125,588.6875 316.8125,590.7813 Q316.8125,592.875 317.5,593.9531 Q318.1875,595.0156 319.5313,595.0156 Q320.1563,595.0156 320.75,594.75 Q321.3438,594.4688 321.9688,593.8906 L321.9688,596.6094 Z " fill="#000000"/><text fill="#000000" font-family="sans-serif" font-size="14" lengthAdjust="spacing" textLength="168" x="333" y="589.9951">MemoryKDTree.KDNode</text><text fill="#000000" font-family="sans-serif" font-size="10" lengthAdjust="spacing" textLength="115" x="359.5" y="602.5791">elki.index.tree.spatial.kd</text></g></a><!--MD5=[7fc2e934eb48039b33135b9019ccf825]
class elki.index.tree.spatial.kd.MemoryKDTree.KDTreeKNNSearcher--><a href="MemoryKDTree.KDTreeKNNSearcher.html" target="_top" title="MemoryKDTree.KDTreeKNNSearcher.html" xlink:actuate="onRequest" xlink:href="MemoryKDTree.KDTreeKNNSearcher.html" xlink:show="new" xlink:title="MemoryKDTree.KDTreeKNNSearcher.html" xlink:type="simple"><g id="elem_elki.index.tree.spatial.kd.MemoryKDTree.KDTreeKNNSearcher"><rect codeLine="34" fill="#F1F1F1" height="37.9375" id="elki.index.tree.spatial.kd.MemoryKDTree.KDTreeKNNSearcher" rx="2.5" ry="2.5" style="stroke:#181818;stroke-width:0.5;" width="286" x="539" y="572"/><ellipse cx="554" cy="590.9688" fill="#ADD1B2" rx="11" ry="11" style="stroke:#181818;stroke-width:1.0;"/><path d="M556.9688,596.6094 Q556.3906,596.9063 555.75,597.0469 Q555.1094,597.2031 554.4063,597.2031 Q551.9063,597.2031 550.5781,595.5625 Q549.2656,593.9063 549.2656,590.7813 Q549.2656,587.6563 550.5781,586 Q551.9063,584.3438 554.4063,584.3438 Q555.1094,584.3438 555.75,584.5 Q556.4063,584.6563 556.9688,584.9531 L556.9688,587.6719 Q556.3438,587.0938 555.75,586.8281 Q555.1563,586.5469 554.5313,586.5469 Q553.1875,586.5469 552.5,587.625 Q551.8125,588.6875 551.8125,590.7813 Q551.8125,592.875 552.5,593.9531 Q553.1875,595.0156 554.5313,595.0156 Q555.1563,595.0156 555.75,594.75 Q556.3438,594.4688 556.9688,593.8906 L556.9688,596.6094 Z " fill="#000000"/><text fill="#000000" font-family="sans-serif" font-size="14" lengthAdjust="spacing" textLength="254" x="568" y="589.9951">MemoryKDTree.KDTreeKNNSearcher</text><text fill="#000000" font-family="sans-serif" font-size="10" lengthAdjust="spacing" textLength="115" x="637.5" y="602.5791">elki.index.tree.spatial.kd</text></g></a><!--MD5=[128a8af59b4b6b50e4b97bde5b810721]
class elki.index.tree.spatial.kd.MemoryKDTree.KDTreeRangeSearcher--><a href="MemoryKDTree.KDTreeRangeSearcher.html" target="_top" title="MemoryKDTree.KDTreeRangeSearcher.html" xlink:actuate="onRequest" xlink:href="MemoryKDTree.KDTreeRangeSearcher.html" xlink:show="new" xlink:title="MemoryKDTree.KDTreeRangeSearcher.html" xlink:type="simple"><g id="elem_elki.index.tree.spatial.kd.MemoryKDTree.KDTreeRangeSearcher"><rect codeLine="35" fill="#F1F1F1" height="37.9375" id="elki.index.tree.spatial.kd.MemoryKDTree.KDTreeRangeSearcher" rx="2.5" ry="2.5" style="stroke:#181818;stroke-width:0.5;" width="302" x="860" y="572"/><ellipse cx="875" cy="590.9688" fill="#ADD1B2" rx="11" ry="11" style="stroke:#181818;stroke-width:1.0;"/><path d="M877.9688,596.6094 Q877.3906,596.9063 876.75,597.0469 Q876.1094,597.2031 875.4063,597.2031 Q872.9063,597.2031 871.5781,595.5625 Q870.2656,593.9063 870.2656,590.7813 Q870.2656,587.6563 871.5781,586 Q872.9063,584.3438 875.4063,584.3438 Q876.1094,584.3438 876.75,584.5 Q877.4063,584.6563 877.9688,584.9531 L877.9688,587.6719 Q877.3438,587.0938 876.75,586.8281 Q876.1563,586.5469 875.5313,586.5469 Q874.1875,586.5469 873.5,587.625 Q872.8125,588.6875 872.8125,590.7813 Q872.8125,592.875 873.5,593.9531 Q874.1875,595.0156 875.5313,595.0156 Q876.1563,595.0156 876.75,594.75 Q877.3438,594.4688 877.9688,593.8906 L877.9688,596.6094 Z " fill="#000000"/><text fill="#000000" font-family="sans-serif" font-size="14" lengthAdjust="spacing" textLength="270" x="889" y="589.9951">MemoryKDTree.KDTreeRangeSearcher</text><text fill="#000000" font-family="sans-serif" font-size="10" lengthAdjust="spacing" textLength="115" x="966.5" y="602.5791">elki.index.tree.spatial.kd</text></g></a><!--MD5=[adc315cd28a0d397741beae6dba5630c]
class elki.index.tree.spatial.kd.MemoryKDTree.PrioritySearchBranch--><a href="MemoryKDTree.PrioritySearchBranch.html" target="_top" title="MemoryKDTree.PrioritySearchBranch.html" xlink:actuate="onRequest" xlink:href="MemoryKDTree.PrioritySearchBranch.html" xlink:show="new" xlink:title="MemoryKDTree.PrioritySearchBranch.html" xlink:type="simple"><g id="elem_elki.index.tree.spatial.kd.MemoryKDTree.PrioritySearchBranch"><rect codeLine="36" fill="#F1F1F1" height="37.9375" id="elki.index.tree.spatial.kd.MemoryKDTree.PrioritySearchBranch" rx="2.5" ry="2.5" style="stroke:#181818;stroke-width:0.5;" width="286" x="1197" y="572"/><ellipse cx="1212" cy="590.9688" fill="#ADD1B2" rx="11" ry="11" style="stroke:#181818;stroke-width:1.0;"/><path d="M1214.9688,596.6094 Q1214.3906,596.9063 1213.75,597.0469 Q1213.1094,597.2031 1212.4063,597.2031 Q1209.9063,597.2031 1208.5781,595.5625 Q1207.2656,593.9063 1207.2656,590.7813 Q1207.2656,587.6563 1208.5781,586 Q1209.9063,584.3438 1212.4063,584.3438 Q1213.1094,584.3438 1213.75,584.5 Q1214.4063,584.6563 1214.9688,584.9531 L1214.9688,587.6719 Q1214.3438,587.0938 1213.75,586.8281 Q1213.1563,586.5469 1212.5313,586.5469 Q1211.1875,586.5469 1210.5,587.625 Q1209.8125,588.6875 1209.8125,590.7813 Q1209.8125,592.875 1210.5,593.9531 Q1211.1875,595.0156 1212.5313,595.0156 Q1213.1563,595.0156 1213.75,594.75 Q1214.3438,594.4688 1214.9688,593.8906 L1214.9688,596.6094 Z " fill="#000000"/><text fill="#000000" font-family="sans-serif" font-size="14" lengthAdjust="spacing" textLength="254" x="1226" y="589.9951">MemoryKDTree.PrioritySearchBranch</text><text fill="#000000" font-family="sans-serif" font-size="10" lengthAdjust="spacing" textLength="115" x="1295.5" y="602.5791">elki.index.tree.spatial.kd</text></g></a><!--MD5=[01ca9c50454f500006e0a6c8d5754253]
class elki.index.tree.spatial.kd.MemoryKDTree.KDTreePrioritySearcher--><a href="MemoryKDTree.KDTreePrioritySearcher.html" target="_top" title="MemoryKDTree.KDTreePrioritySearcher.html" xlink:actuate="onRequest" xlink:href="MemoryKDTree.KDTreePrioritySearcher.html" xlink:show="new" xlink:title="MemoryKDTree.KDTreePrioritySearcher.html" xlink:type="simple"><g id="elem_elki.index.tree.spatial.kd.MemoryKDTree.KDTreePrioritySearcher"><rect codeLine="37" fill="#F1F1F1" height="37.9375" id="elki.index.tree.spatial.kd.MemoryKDTree.KDTreePrioritySearcher" rx="2.5" ry="2.5" style="stroke:#181818;stroke-width:0.5;" width="303" x="1518.5" y="572"/><ellipse cx="1533.5" cy="590.9688" fill="#ADD1B2" rx="11" ry="11" style="stroke:#181818;stroke-width:1.0;"/><path d="M1536.4688,596.6094 Q1535.8906,596.9063 1535.25,597.0469 Q1534.6094,597.2031 1533.9063,597.2031 Q1531.4063,597.2031 1530.0781,595.5625 Q1528.7656,593.9063 1528.7656,590.7813 Q1528.7656,587.6563 1530.0781,586 Q1531.4063,584.3438 1533.9063,584.3438 Q1534.6094,584.3438 1535.25,584.5 Q1535.9063,584.6563 1536.4688,584.9531 L1536.4688,587.6719 Q1535.8438,587.0938 1535.25,586.8281 Q1534.6563,586.5469 1534.0313,586.5469 Q1532.6875,586.5469 1532,587.625 Q1531.3125,588.6875 1531.3125,590.7813 Q1531.3125,592.875 1532,593.9531 Q1532.6875,595.0156 1534.0313,595.0156 Q1534.6563,595.0156 1535.25,594.75 Q1535.8438,594.4688 1536.4688,593.8906 L1536.4688,596.6094 Z " fill="#000000"/><text fill="#000000" font-family="sans-serif" font-size="14" lengthAdjust="spacing" textLength="271" x="1547.5" y="589.9951">MemoryKDTree.KDTreePrioritySearcher</text><text fill="#000000" font-family="sans-serif" font-size="10" lengthAdjust="spacing" textLength="115" x="1625.5" y="602.5791">elki.index.tree.spatial.kd</text></g></a><!--MD5=[ebcb11d86b8e0e3d52994c0bb70fda43]
reverse link elki.index.DistancePriorityIndex to elki.index.tree.spatial.kd.MemoryKDTree--><g id="link_elki.index.DistancePriorityIndex_elki.index.tree.spatial.kd.MemoryKDTree"><path codeLine="40" d="M846,92.38 C846,104.28 846,117.67 846,131.84 " fill="none" id="elki.index.DistancePriorityIndex-backto-elki.index.tree.spatial.kd.MemoryKDTree" style="stroke:#181818;stroke-width:1.0;stroke-dasharray:7.0,7.0;"/><polygon fill="none" points="839,92.12,846,72.12,853,92.12,839,92.12" style="stroke:#181818;stroke-width:1.0;"/></g><!--MD5=[8562f3fdfcf4cc8a93e3a7048c745292]
reverse link elki.index.tree.spatial.kd.MemoryKDTree to elki.index.tree.spatial.kd.MemoryKDTree.CountingRelation--><g id="link_elki.index.tree.spatial.kd.MemoryKDTree_elki.index.tree.spatial.kd.MemoryKDTree.CountingRelation"><path codeLine="41" d="M364.96,504.41 C291.91,531.96 227.18,556.37 185.73,572 " fill="none" id="elki.index.tree.spatial.kd.MemoryKDTree-backto-elki.index.tree.spatial.kd.MemoryKDTree.CountingRelation" style="stroke:#181818;stroke-width:1.0;"/><ellipse cx="371.6963" cy="501.8774" fill="#FFFFFF" rx="8" ry="8" style="stroke:#181818;stroke-width:1.0;"/><line style="stroke:#181818;stroke-width:1.0;" x1="364.2126" x2="379.18" y1="504.7047" y2="499.05"/><line style="stroke:#181818;stroke-width:1.0;" x1="368.8689" x2="374.5236" y1="494.3936" y2="509.3611"/></g><!--MD5=[9e07e08b9e1c29d273ec816d79ecdf87]
reverse link elki.index.tree.spatial.kd.MemoryKDTree to elki.index.tree.spatial.kd.MemoryKDTree.KDNode--><g id="link_elki.index.tree.spatial.kd.MemoryKDTree_elki.index.tree.spatial.kd.MemoryKDTree.KDNode"><path codeLine="42" d="M520.01,519.92 C485.2,540.95 454.92,559.24 434.03,571.86 " fill="none" id="elki.index.tree.spatial.kd.MemoryKDTree-backto-elki.index.tree.spatial.kd.MemoryKDTree.KDNode" style="stroke:#181818;stroke-width:1.0;"/><ellipse cx="526.1842" cy="516.1895" fill="#FFFFFF" rx="8" ry="8" style="stroke:#181818;stroke-width:1.0;"/><line style="stroke:#181818;stroke-width:1.0;" x1="519.3384" x2="533.03" y1="520.329" y2="512.05"/><line style="stroke:#181818;stroke-width:1.0;" x1="522.0447" x2="530.3237" y1="509.3437" y2="523.0353"/></g><!--MD5=[f67c149cb3dec03ff1248ed92161c497]
reverse link elki.index.tree.spatial.kd.MemoryKDTree to elki.index.tree.spatial.kd.MemoryKDTree.KDTreeKNNSearcher--><g id="link_elki.index.tree.spatial.kd.MemoryKDTree_elki.index.tree.spatial.kd.MemoryKDTree.KDTreeKNNSearcher"><path codeLine="43" d="M722.02,524.85 C710.38,543.8 700.28,560.24 693.14,571.86 " fill="none" id="elki.index.tree.spatial.kd.MemoryKDTree-backto-elki.index.tree.spatial.kd.MemoryKDTree.KDTreeKNNSearcher" style="stroke:#181818;stroke-width:1.0;"/><ellipse cx="725.697" cy="518.8693" fill="#FFFFFF" rx="8" ry="8" style="stroke:#181818;stroke-width:1.0;"/><line style="stroke:#181818;stroke-width:1.0;" x1="721.514" x2="729.88" y1="525.6886" y2="512.05"/><line style="stroke:#181818;stroke-width:1.0;" x1="718.8777" x2="732.5163" y1="514.6863" y2="523.0523"/></g><!--MD5=[77ec6f5575a1f34a22112c7b2e13d499]
reverse link elki.index.tree.spatial.kd.MemoryKDTree to elki.index.tree.spatial.kd.MemoryKDTree.KDTreeRangeSearcher--><g id="link_elki.index.tree.spatial.kd.MemoryKDTree_elki.index.tree.spatial.kd.MemoryKDTree.KDTreeRangeSearcher"><path codeLine="44" d="M970.74,524.85 C982.45,543.8 992.61,560.24 999.79,571.86 " fill="none" id="elki.index.tree.spatial.kd.MemoryKDTree-backto-elki.index.tree.spatial.kd.MemoryKDTree.KDTreeRangeSearcher" style="stroke:#181818;stroke-width:1.0;"/><ellipse cx="967.0364" cy="518.8549" fill="#FFFFFF" rx="8" ry="8" style="stroke:#181818;stroke-width:1.0;"/><line style="stroke:#181818;stroke-width:1.0;" x1="971.2428" x2="962.83" y1="525.6598" y2="512.05"/><line style="stroke:#181818;stroke-width:1.0;" x1="960.2315" x2="973.8413" y1="523.0613" y2="514.6485"/></g><!--MD5=[a10d09c36426ce40135b2fa0afad2bb3]
reverse link elki.index.tree.spatial.kd.MemoryKDTree to elki.index.tree.spatial.kd.MemoryKDTree.PrioritySearchBranch--><g id="link_elki.index.tree.spatial.kd.MemoryKDTree_elki.index.tree.spatial.kd.MemoryKDTree.PrioritySearchBranch"><path codeLine="45" d="M1209.06,519.23 C1248.5,540.55 1282.84,559.1 1306.44,571.86 " fill="none" id="elki.index.tree.spatial.kd.MemoryKDTree-backto-elki.index.tree.spatial.kd.MemoryKDTree.PrioritySearchBranch" style="stroke:#181818;stroke-width:1.0;"/><ellipse cx="1202.8291" cy="515.8514" fill="#FFFFFF" rx="8" ry="8" style="stroke:#181818;stroke-width:1.0;"/><line style="stroke:#181818;stroke-width:1.0;" x1="1209.8682" x2="1195.79" y1="519.6529" y2="512.05"/><line style="stroke:#181818;stroke-width:1.0;" x1="1199.0277" x2="1206.6305" y1="522.8905" y2="508.8123"/></g><!--MD5=[44f36ad43e73416bc007805f9524939c]
reverse link elki.index.tree.spatial.kd.MemoryKDTree to elki.index.tree.spatial.kd.MemoryKDTree.KDTreePrioritySearcher--><g id="link_elki.index.tree.spatial.kd.MemoryKDTree_elki.index.tree.spatial.kd.MemoryKDTree.KDTreePrioritySearcher"><path codeLine="46" d="M1327.31,478.96 C1443.18,516.51 1551.53,551.61 1614.25,571.93 " fill="none" id="elki.index.tree.spatial.kd.MemoryKDTree-backto-elki.index.tree.spatial.kd.MemoryKDTree.KDTreePrioritySearcher" style="stroke:#181818;stroke-width:1.0;"/><ellipse cx="1320.392" cy="476.7111" fill="#FFFFFF" rx="8" ry="8" style="stroke:#181818;stroke-width:1.0;"/><line style="stroke:#181818;stroke-width:1.0;" x1="1328.004" x2="1312.78" y1="479.1723" y2="474.25"/><line style="stroke:#181818;stroke-width:1.0;" x1="1317.9309" x2="1322.8532" y1="484.3232" y2="469.0991"/></g><rect fill="none" height="11.6406" style="stroke:none;stroke-width:1.0;" width="186" x="814.25" y="614.9375"/><text fill="#888888" font-family="sans-serif" font-size="10" lengthAdjust="spacing" textLength="186" x="814.25" y="624.2197">UMLDoclet 2.0.19, PlantUML 1.2022.8</text><!--MD5=[794fbd7f101a10cc31774d37c3baf371]
@startuml
    remove .*\.(Instance|Par|Parameterizer|Factory)$
    set namespaceSeparator none
    hide empty fields
    hide empty methods

    class "<size:14>MemoryKDTree\n<size:10>elki.index.tree.spatial.kd" as elki.index.tree.spatial.kd.MemoryKDTree<O extends NumberVector> [[MemoryKDTree.html]] {
        {static} -LOG: Logging
        #relation: Relation<O extends NumberVector>
        #split: SplitStrategy
        #leafsize: int
        #sorted: ArrayDBIDs
        #root: Object
        #dims: int
        #objaccess: Counter
        #distcalc: Counter
        +MemoryKDTree(Relation<O extends NumberVector>, int)
        +MemoryKDTree(Relation<O extends NumberVector>, SplitStrategy, int)
        +initialize(): void
        +buildTree(Relation<? extends NumberVector>, int, int, ArrayModifiableDBIDs, DBIDArrayMIter, SortDBIDsBySingleDimension): Object
        -assertSplitConsistent(int, int, int, int, double, DBIDArrayMIter): boolean
        +logStatistics(): void
        #countObjectAccess(): void
        #countDistanceComputation(): void
        +kNNByObject(DistanceQuery<O extends NumberVector>, int, int): KNNSearcher<O extends NumberVector>
        +rangeByObject(DistanceQuery<O extends NumberVector>, double, int): RangeSearcher<O extends NumberVector>
        +priorityByObject(DistanceQuery<O extends NumberVector>, double, int): PrioritySearcher<O extends NumberVector>
    }

    interface "<size:14>DistancePriorityIndex\n<size:10>elki.index" as elki.index.DistancePriorityIndex<O extends NumberVector> [[../../../DistancePriorityIndex.html]] {
        {abstract} +priorityByObject(DistanceQuery<O>, double, int): PrioritySearcher<O>
    }
    class "<size:14>MemoryKDTree.CountingRelation\n<size:10>elki.index.tree.spatial.kd" as elki.index.tree.spatial.kd.MemoryKDTree.CountingRelation [[MemoryKDTree.CountingRelation.html]]
    class "<size:14>MemoryKDTree.KDNode\n<size:10>elki.index.tree.spatial.kd" as elki.index.tree.spatial.kd.MemoryKDTree.KDNode [[MemoryKDTree.KDNode.html]]
    class "<size:14>MemoryKDTree.KDTreeKNNSearcher\n<size:10>elki.index.tree.spatial.kd" as elki.index.tree.spatial.kd.MemoryKDTree.KDTreeKNNSearcher [[MemoryKDTree.KDTreeKNNSearcher.html]]
    class "<size:14>MemoryKDTree.KDTreeRangeSearcher\n<size:10>elki.index.tree.spatial.kd" as elki.index.tree.spatial.kd.MemoryKDTree.KDTreeRangeSearcher [[MemoryKDTree.KDTreeRangeSearcher.html]]
    class "<size:14>MemoryKDTree.PrioritySearchBranch\n<size:10>elki.index.tree.spatial.kd" as elki.index.tree.spatial.kd.MemoryKDTree.PrioritySearchBranch [[MemoryKDTree.PrioritySearchBranch.html]]
    class "<size:14>MemoryKDTree.KDTreePrioritySearcher\n<size:10>elki.index.tree.spatial.kd" as elki.index.tree.spatial.kd.MemoryKDTree.KDTreePrioritySearcher [[MemoryKDTree.KDTreePrioritySearcher.html]]
    class "<size:14>MemoryKDTree.Factory\n<size:10>elki.index.tree.spatial.kd" as elki.index.tree.spatial.kd.MemoryKDTree.Factory<O extends NumberVector> [[MemoryKDTree.Factory.html]]

    elki.index.DistancePriorityIndex <|.. elki.index.tree.spatial.kd.MemoryKDTree
    elki.index.tree.spatial.kd.MemoryKDTree +- - elki.index.tree.spatial.kd.MemoryKDTree.CountingRelation
    elki.index.tree.spatial.kd.MemoryKDTree +- - elki.index.tree.spatial.kd.MemoryKDTree.KDNode
    elki.index.tree.spatial.kd.MemoryKDTree +- - elki.index.tree.spatial.kd.MemoryKDTree.KDTreeKNNSearcher
    elki.index.tree.spatial.kd.MemoryKDTree +- - elki.index.tree.spatial.kd.MemoryKDTree.KDTreeRangeSearcher
    elki.index.tree.spatial.kd.MemoryKDTree +- - elki.index.tree.spatial.kd.MemoryKDTree.PrioritySearchBranch
    elki.index.tree.spatial.kd.MemoryKDTree +- - elki.index.tree.spatial.kd.MemoryKDTree.KDTreePrioritySearcher
    elki.index.tree.spatial.kd.MemoryKDTree +- - elki.index.tree.spatial.kd.MemoryKDTree.Factory

    center footer UMLDoclet 2.0.19, PlantUML 1.2022.8
@enduml

PlantUML version 1.2022.8(Sun Sep 25 11:00:33 CEST 2022)
(APACHE source distribution)
Java Runtime: OpenJDK Runtime Environment
JVM: OpenJDK 64-Bit Server VM
Default Encoding: UTF-8
Language: de
Country: DE
--></g></svg>