<?xml version="1.0" encoding="UTF-8" standalone="no"?><svg xmlns="http://www.w3.org/2000/svg" xmlns:xlink="http://www.w3.org/1999/xlink" contentStyleType="text/css" height="219px" preserveAspectRatio="none" style="width:1125px;height:219px;background:#FFFFFF;" version="1.1" viewBox="0 0 1125 219" width="1125px" zoomAndPan="magnify"><defs/><g><!--MD5=[7733f1b8a4b11fd0b7d2f170afa3b02c]
class elki.index.invertedlist.InMemoryInvertedIndex.CosineRangeQuery--><a href="InMemoryInvertedIndex.CosineRangeQuery.html" target="_top" title="InMemoryInvertedIndex.CosineRangeQuery.html" xlink:actuate="onRequest" xlink:href="InMemoryInvertedIndex.CosineRangeQuery.html" xlink:show="new" xlink:title="InMemoryInvertedIndex.CosineRangeQuery.html" xlink:type="simple"><g id="elem_elki.index.invertedlist.InMemoryInvertedIndex.CosineRangeQuery"><rect codeLine="6" fill="#F1F1F1" height="62.2344" id="elki.index.invertedlist.InMemoryInvertedIndex.CosineRangeQuery" rx="2.5" ry="2.5" style="stroke:#181818;stroke-width:0.5;" width="704" x="303" y="132"/><ellipse cx="501.75" cy="150.9688" fill="#ADD1B2" rx="11" ry="11" style="stroke:#181818;stroke-width:1.0;"/><path d="M504.7188,156.6094 Q504.1406,156.9063 503.5,157.0469 Q502.8594,157.2031 502.1563,157.2031 Q499.6563,157.2031 498.3281,155.5625 Q497.0156,153.9063 497.0156,150.7813 Q497.0156,147.6563 498.3281,146 Q499.6563,144.3438 502.1563,144.3438 Q502.8594,144.3438 503.5,144.5 Q504.1563,144.6563 504.7188,144.9531 L504.7188,147.6719 Q504.0938,147.0938 503.5,146.8281 Q502.9063,146.5469 502.2813,146.5469 Q500.9375,146.5469 500.25,147.625 Q499.5625,148.6875 499.5625,150.7813 Q499.5625,152.875 500.25,153.9531 Q500.9375,155.0156 502.2813,155.0156 Q502.9063,155.0156 503.5,154.75 Q504.0938,154.4688 504.7188,153.8906 L504.7188,156.6094 Z " fill="#000000"/><text fill="#000000" font-family="sans-serif" font-size="14" lengthAdjust="spacing" textLength="298" x="522.25" y="149.9951">InMemoryInvertedIndex.CosineRangeQuery</text><text fill="#000000" font-family="sans-serif" font-size="10" lengthAdjust="spacing" textLength="100" x="621.25" y="162.5791">elki.index.invertedlist</text><line style="stroke:#181818;stroke-width:0.5;" x1="304" x2="1006" y1="169.9375" y2="169.9375"/><ellipse cx="314" cy="183.5859" fill="#84BE84" rx="3" ry="3" style="stroke:#038048;stroke-width:1.0;"/><text fill="#000000" font-family="sans-serif" font-size="14" lengthAdjust="spacing" textLength="678" x="323" y="186.9326">getRange(V extends NumberVector, double, ModifiableDoubleDBIDList): ModifiableDoubleDBIDList</text></g></a><!--MD5=[955d5a67b0ef7a37e4bb5766aebdb7f3]
class elki.database.query.range.RangeSearcher--><a href="../../database/query/range/RangeSearcher.html" target="_top" title="../../database/query/range/RangeSearcher.html" xlink:actuate="onRequest" xlink:href="../../database/query/range/RangeSearcher.html" xlink:show="new" xlink:title="../../database/query/range/RangeSearcher.html" xlink:type="simple"><g id="elem_elki.database.query.range.RangeSearcher"><rect codeLine="10" fill="#F1F1F1" height="62.2344" id="elki.database.query.range.RangeSearcher" rx="2.5" ry="2.5" style="stroke:#181818;stroke-width:0.5;" width="726" x="7" y="10"/><ellipse cx="224.75" cy="28.9688" fill="#B4A7E5" rx="11" ry="11" style="stroke:#181818;stroke-width:1.0;"/><path d="M220.6719,24.7344 L220.6719,22.5781 L228.0625,22.5781 L228.0625,24.7344 L225.5938,24.7344 L225.5938,32.8125 L228.0625,32.8125 L228.0625,34.9688 L220.6719,34.9688 L220.6719,32.8125 L223.1406,32.8125 L223.1406,24.7344 L220.6719,24.7344 Z " fill="#000000"/><text fill="#000000" font-family="sans-serif" font-size="14" font-style="italic" lengthAdjust="spacing" textLength="109" x="254.75" y="27.9951">RangeSearcher</text><text fill="#000000" font-family="sans-serif" font-size="10" font-style="italic" lengthAdjust="spacing" textLength="128" x="245.25" y="40.5791">elki.database.query.range</text><rect fill="#FFFFFF" height="15.9688" style="stroke:#181818;stroke-width:1.0;stroke-dasharray:2.0,2.0;" width="152" x="584" y="7"/><text fill="#000000" font-family="sans-serif" font-size="12" font-style="italic" lengthAdjust="spacing" textLength="150" x="585" y="19.1387">V extends NumberVector</text><line style="stroke:#181818;stroke-width:0.5;" x1="8" x2="732" y1="47.9375" y2="47.9375"/><ellipse cx="18" cy="61.5859" fill="#84BE84" rx="3" ry="3" style="stroke:#038048;stroke-width:1.0;"/><text fill="#000000" font-family="sans-serif" font-size="14" font-style="italic" lengthAdjust="spacing" textLength="700" x="27" y="64.9326">getRange(V extends NumberVector, double, ModifiableDoubleDBIDList): ModifiableDoubleDBIDList</text></g></a><!--MD5=[589c7727b7b19f845ef1c8ab9478adac]
class elki.index.invertedlist.InMemoryInvertedIndex--><a href="InMemoryInvertedIndex.html" target="_top" title="InMemoryInvertedIndex.html" xlink:actuate="onRequest" xlink:href="InMemoryInvertedIndex.html" xlink:show="new" xlink:title="InMemoryInvertedIndex.html" xlink:type="simple"><g id="elem_elki.index.invertedlist.InMemoryInvertedIndex"><rect codeLine="13" fill="#F1F1F1" height="37.9375" id="elki.index.invertedlist.InMemoryInvertedIndex" rx="2.5" ry="2.5" style="stroke:#181818;stroke-width:0.5;" width="346" x="768" y="22"/><ellipse cx="783" cy="40.9688" fill="#ADD1B2" rx="11" ry="11" style="stroke:#181818;stroke-width:1.0;"/><path d="M785.9688,46.6094 Q785.3906,46.9063 784.75,47.0469 Q784.1094,47.2031 783.4063,47.2031 Q780.9063,47.2031 779.5781,45.5625 Q778.2656,43.9063 778.2656,40.7813 Q778.2656,37.6563 779.5781,36 Q780.9063,34.3438 783.4063,34.3438 Q784.1094,34.3438 784.75,34.5 Q785.4063,34.6563 785.9688,34.9531 L785.9688,37.6719 Q785.3438,37.0938 784.75,36.8281 Q784.1563,36.5469 783.5313,36.5469 Q782.1875,36.5469 781.5,37.625 Q780.8125,38.6875 780.8125,40.7813 Q780.8125,42.875 781.5,43.9531 Q782.1875,45.0156 783.5313,45.0156 Q784.1563,45.0156 784.75,44.75 Q785.3438,44.4688 785.9688,43.8906 L785.9688,46.6094 Z " fill="#000000"/><text fill="#000000" font-family="sans-serif" font-size="14" lengthAdjust="spacing" textLength="160" x="797" y="39.9951">InMemoryInvertedIndex</text><text fill="#000000" font-family="sans-serif" font-size="10" lengthAdjust="spacing" textLength="100" x="827" y="52.5791">elki.index.invertedlist</text><rect fill="#FFFFFF" height="15.9688" style="stroke:#181818;stroke-width:1.0;stroke-dasharray:2.0,2.0;" width="152" x="965" y="19"/><text fill="#000000" font-family="sans-serif" font-size="12" font-style="italic" lengthAdjust="spacing" textLength="150" x="966" y="31.1387">V extends NumberVector</text></g></a><!--MD5=[7c0a04bf1748ce6d94ef77551ca9a1fa]
reverse link elki.database.query.range.RangeSearcher to elki.index.invertedlist.InMemoryInvertedIndex.CosineRangeQuery--><g id="link_elki.database.query.range.RangeSearcher_elki.index.invertedlist.InMemoryInvertedIndex.CosineRangeQuery"><path codeLine="15" d="M460.21,79.98 C499.98,96.73 546.06,116.13 583.42,131.86 " fill="none" id="elki.database.query.range.RangeSearcher-backto-elki.index.invertedlist.InMemoryInvertedIndex.CosineRangeQuery" style="stroke:#181818;stroke-width:1.0;stroke-dasharray:7.0,7.0;"/><polygon fill="none" points="457.27,86.34,441.55,72.13,462.7,73.44,457.27,86.34" style="stroke:#181818;stroke-width:1.0;"/></g><!--MD5=[bdf2fe5388426f76aa71660f2da1d64b]
reverse link elki.index.invertedlist.InMemoryInvertedIndex to elki.index.invertedlist.InMemoryInvertedIndex.CosineRangeQuery--><g id="link_elki.index.invertedlist.InMemoryInvertedIndex_elki.index.invertedlist.InMemoryInvertedIndex.CosineRangeQuery"><path codeLine="16" d="M883.87,65.97 C838.64,84.95 775.2,111.57 726.58,131.96 " fill="none" id="elki.index.invertedlist.InMemoryInvertedIndex-backto-elki.index.invertedlist.InMemoryInvertedIndex.CosineRangeQuery" style="stroke:#181818;stroke-width:1.0;"/><ellipse cx="890.4926" cy="63.1942" fill="#FFFFFF" rx="8" ry="8" style="stroke:#181818;stroke-width:1.0;"/><line style="stroke:#181818;stroke-width:1.0;" x1="883.1152" x2="897.87" y1="66.2885" y2="60.1"/><line style="stroke:#181818;stroke-width:1.0;" x1="887.3984" x2="893.5869" y1="55.8169" y2="70.5716"/></g><rect fill="none" height="11.6406" style="stroke:none;stroke-width:1.0;" width="186" x="462.5" y="200.2344"/><text fill="#888888" font-family="sans-serif" font-size="10" lengthAdjust="spacing" textLength="186" x="462.5" y="209.5166">UMLDoclet 2.0.19, PlantUML 1.2022.8</text><!--MD5=[6d1acaa5974ffddbd86ea9d6d59cf488]
@startuml
    remove .*\.(Instance|Par|Parameterizer|Factory)$
    set namespaceSeparator none
    hide empty fields
    hide empty methods

    class "<size:14>InMemoryInvertedIndex.CosineRangeQuery\n<size:10>elki.index.invertedlist" as elki.index.invertedlist.InMemoryInvertedIndex.CosineRangeQuery [[InMemoryInvertedIndex.CosineRangeQuery.html]] {
        +getRange(V extends NumberVector, double, ModifiableDoubleDBIDList): ModifiableDoubleDBIDList
    }

    interface "<size:14>RangeSearcher\n<size:10>elki.database.query.range" as elki.database.query.range.RangeSearcher<V extends NumberVector> [[../../database/query/range/RangeSearcher.html]] {
        {abstract} +getRange(V extends NumberVector, double, ModifiableDoubleDBIDList): ModifiableDoubleDBIDList
    }
    class "<size:14>InMemoryInvertedIndex\n<size:10>elki.index.invertedlist" as elki.index.invertedlist.InMemoryInvertedIndex<V extends NumberVector> [[InMemoryInvertedIndex.html]]

    elki.database.query.range.RangeSearcher <|.. elki.index.invertedlist.InMemoryInvertedIndex.CosineRangeQuery
    elki.index.invertedlist.InMemoryInvertedIndex +- - elki.index.invertedlist.InMemoryInvertedIndex.CosineRangeQuery

    center footer UMLDoclet 2.0.19, PlantUML 1.2022.8
@enduml

PlantUML version 1.2022.8(Sun Sep 25 11:00:33 CEST 2022)
(APACHE source distribution)
Java Runtime: OpenJDK Runtime Environment
JVM: OpenJDK 64-Bit Server VM
Default Encoding: UTF-8
Language: de
Country: DE
--></g></svg>