<?xml version="1.0" encoding="UTF-8" standalone="no"?><svg xmlns="http://www.w3.org/2000/svg" xmlns:xlink="http://www.w3.org/1999/xlink" contentStyleType="text/css" height="241px" preserveAspectRatio="none" style="width:409px;height:241px;background:#FFFFFF;" version="1.1" viewBox="0 0 409 241" width="409px" zoomAndPan="magnify"><defs/><g><!--MD5=[8ff3762ef8dc19668a92d50f2aae968d]
class elki.math.linearalgebra.ConstrainedQuadraticProblemSolver.DimensionState--><a href="ConstrainedQuadraticProblemSolver.DimensionState.html" target="_top" title="ConstrainedQuadraticProblemSolver.DimensionState.html" xlink:actuate="onRequest" xlink:href="ConstrainedQuadraticProblemSolver.DimensionState.html" xlink:show="new" xlink:title="ConstrainedQuadraticProblemSolver.DimensionState.html" xlink:type="simple"><g id="elem_elki.math.linearalgebra.ConstrainedQuadraticProblemSolver.DimensionState"><rect codeLine="6" fill="#F1F1F1" height="111.125" id="elki.math.linearalgebra.ConstrainedQuadraticProblemSolver.DimensionState" rx="2.5" ry="2.5" style="stroke:#181818;stroke-width:0.5;" width="395" x="7" y="105"/><ellipse cx="22" cy="123.9688" fill="#EB937F" rx="11" ry="11" style="stroke:#181818;stroke-width:1.0;"/><path d="M26.1094,129.9688 L18.3906,129.9688 L18.3906,117.5781 L26.1094,117.5781 L26.1094,119.7344 L20.8438,119.7344 L20.8438,122.4063 L25.6094,122.4063 L25.6094,124.5625 L20.8438,124.5625 L20.8438,127.8125 L26.1094,127.8125 L26.1094,129.9688 Z " fill="#000000"/><text fill="#000000" font-family="sans-serif" font-size="14" lengthAdjust="spacing" textLength="363" x="36" y="122.9951">ConstrainedQuadraticProblemSolver.DimensionState</text><text fill="#000000" font-family="sans-serif" font-size="10" lengthAdjust="spacing" textLength="109" x="163" y="135.5791">elki.math.linearalgebra</text><line style="stroke:#181818;stroke-width:0.5;" x1="8" x2="401" y1="142.9375" y2="142.9375"/><ellipse cx="18" cy="156.5859" fill="none" rx="3" ry="3" style="stroke:#038048;stroke-width:1.0;"/><text fill="#000000" font-family="sans-serif" font-size="14" lengthAdjust="spacing" text-decoration="underline" textLength="40" x="27" y="159.9326">LOLIM</text><ellipse cx="18" cy="172.8828" fill="none" rx="3" ry="3" style="stroke:#038048;stroke-width:1.0;"/><text fill="#000000" font-family="sans-serif" font-size="14" lengthAdjust="spacing" text-decoration="underline" textLength="41" x="27" y="176.2295">UPLIM</text><ellipse cx="18" cy="189.1797" fill="none" rx="3" ry="3" style="stroke:#038048;stroke-width:1.0;"/><text fill="#000000" font-family="sans-serif" font-size="14" lengthAdjust="spacing" text-decoration="underline" textLength="79" x="27" y="192.5264">UNCONSTR</text><ellipse cx="18" cy="205.4766" fill="none" rx="3" ry="3" style="stroke:#038048;stroke-width:1.0;"/><text fill="#000000" font-family="sans-serif" font-size="14" lengthAdjust="spacing" text-decoration="underline" textLength="59" x="27" y="208.8232">CONSTR</text></g></a><!--MD5=[ef898c7ffd8cfeca43621137229babdc]
class elki.math.linearalgebra.ConstrainedQuadraticProblemSolver--><a href="ConstrainedQuadraticProblemSolver.html" target="_top" title="ConstrainedQuadraticProblemSolver.html" xlink:actuate="onRequest" xlink:href="ConstrainedQuadraticProblemSolver.html" xlink:show="new" xlink:title="ConstrainedQuadraticProblemSolver.html" xlink:type="simple"><g id="elem_elki.math.linearalgebra.ConstrainedQuadraticProblemSolver"><rect codeLine="13" fill="#F1F1F1" height="37.9375" id="elki.math.linearalgebra.ConstrainedQuadraticProblemSolver" rx="2.5" ry="2.5" style="stroke:#181818;stroke-width:0.5;" width="281" x="64" y="7"/><ellipse cx="79" cy="25.9688" fill="#ADD1B2" rx="11" ry="11" style="stroke:#181818;stroke-width:1.0;"/><path d="M81.9688,31.6094 Q81.3906,31.9063 80.75,32.0469 Q80.1094,32.2031 79.4063,32.2031 Q76.9063,32.2031 75.5781,30.5625 Q74.2656,28.9063 74.2656,25.7813 Q74.2656,22.6563 75.5781,21 Q76.9063,19.3438 79.4063,19.3438 Q80.1094,19.3438 80.75,19.5 Q81.4063,19.6563 81.9688,19.9531 L81.9688,22.6719 Q81.3438,22.0938 80.75,21.8281 Q80.1563,21.5469 79.5313,21.5469 Q78.1875,21.5469 77.5,22.625 Q76.8125,23.6875 76.8125,25.7813 Q76.8125,27.875 77.5,28.9531 Q78.1875,30.0156 79.5313,30.0156 Q80.1563,30.0156 80.75,29.75 Q81.3438,29.4688 81.9688,28.8906 L81.9688,31.6094 Z " fill="#000000"/><text fill="#000000" font-family="sans-serif" font-size="14" lengthAdjust="spacing" textLength="249" x="93" y="24.9951">ConstrainedQuadraticProblemSolver</text><text fill="#000000" font-family="sans-serif" font-size="10" lengthAdjust="spacing" textLength="109" x="163" y="37.5791">elki.math.linearalgebra</text></g></a><!--MD5=[fb378127e33fe614d7dbb29708d870c2]
reverse link elki.math.linearalgebra.ConstrainedQuadraticProblemSolver to elki.math.linearalgebra.ConstrainedQuadraticProblemSolver.DimensionState--><g id="link_elki.math.linearalgebra.ConstrainedQuadraticProblemSolver_elki.math.linearalgebra.ConstrainedQuadraticProblemSolver.DimensionState"><path codeLine="15" d="M204.5,60.22 C204.5,73.77 204.5,89.79 204.5,104.97 " fill="none" id="elki.math.linearalgebra.ConstrainedQuadraticProblemSolver-backto-elki.math.linearalgebra.ConstrainedQuadraticProblemSolver.DimensionState" style="stroke:#181818;stroke-width:1.0;"/><ellipse cx="204.5" cy="53.15" fill="#FFFFFF" rx="8" ry="8" style="stroke:#181818;stroke-width:1.0;"/><line style="stroke:#181818;stroke-width:1.0;" x1="204.5" x2="204.5" y1="61.15" y2="45.15"/><line style="stroke:#181818;stroke-width:1.0;" x1="196.5" x2="212.5" y1="53.15" y2="53.15"/></g><rect fill="none" height="11.6406" style="stroke:none;stroke-width:1.0;" width="186" x="104.5" y="222.125"/><text fill="#888888" font-family="sans-serif" font-size="10" lengthAdjust="spacing" textLength="186" x="104.5" y="231.4072">UMLDoclet 2.0.19, PlantUML 1.2022.8</text><!--MD5=[39eaf6f6c00995141292171ee7d0e36b]
@startuml
    remove .*\.(Instance|Par|Parameterizer|Factory)$
    set namespaceSeparator none
    hide empty fields
    hide empty methods

    enum "<size:14>ConstrainedQuadraticProblemSolver.DimensionState\n<size:10>elki.math.linearalgebra" as elki.math.linearalgebra.ConstrainedQuadraticProblemSolver.DimensionState [[ConstrainedQuadraticProblemSolver.DimensionState.html]] {
        {static} +LOLIM
        {static} +UPLIM
        {static} +UNCONSTR
        {static} +CONSTR
    }

    class "<size:14>ConstrainedQuadraticProblemSolver\n<size:10>elki.math.linearalgebra" as elki.math.linearalgebra.ConstrainedQuadraticProblemSolver [[ConstrainedQuadraticProblemSolver.html]]

    elki.math.linearalgebra.ConstrainedQuadraticProblemSolver +- - elki.math.linearalgebra.ConstrainedQuadraticProblemSolver.DimensionState

    center footer UMLDoclet 2.0.19, PlantUML 1.2022.8
@enduml

PlantUML version 1.2022.8(Sun Sep 25 11:00:33 CEST 2022)
(APACHE source distribution)
Java Runtime: OpenJDK Runtime Environment
JVM: OpenJDK 64-Bit Server VM
Default Encoding: UTF-8
Language: de
Country: DE
--></g></svg>