<?xml version="1.0" encoding="UTF-8" standalone="no"?>
<!DOCTYPE svg PUBLIC "-//W3C//DTD SVG 1.1//EN"
 "http://www.w3.org/Graphics/SVG/1.1/DTD/svg11.dtd">
<!-- Generated by graphviz version 2.40.1 (20161225.0304)
 -->
<!-- Title: G Pages: 1 -->
<svg width="211pt" height="221pt"
 viewBox="0.00 0.00 211.00 221.00" xmlns="http://www.w3.org/2000/svg" xmlns:xlink="http://www.w3.org/1999/xlink">
<g id="graph0" class="graph" transform="scale(1 1) rotate(0) translate(4 217)">
<title>G</title>
<polygon fill="#ffffff" stroke="transparent" points="-4,4 -4,-217 207,-217 207,4 -4,4"/>
<!-- c2015538 -->
<g id="node1" class="node">
<title>c2015538</title>
<g id="a_node1"><a xlink:href="ByteArrayUtil.html" xlink:title="&lt;TABLE&gt;">
<g id="a_node1_0"><a xlink:href="ByteArrayUtil.html" xlink:title="de.lmu.ifi.dbs.elki.utilities.io.ByteArrayUtil" target="_parent">
<polygon fill="#fffacd" stroke="transparent" points="0,-98 0,-115 62,-115 62,-98 0,-98"/>
<polygon fill="none" stroke="#000000" points="0,-97.5 0,-114.5 62,-114.5 62,-97.5 0,-97.5"/>
<text text-anchor="start" x="4" y="-105.1" font-family="Roboto" font-size="8.00" fill="#000000"> </text>
<text text-anchor="start" x="7" y="-105.1" font-family="Roboto" font-size="8.00" fill="#000000">ByteArrayUtil</text>
<text text-anchor="start" x="55" y="-105.1" font-family="Roboto" font-size="8.00" fill="#000000"> </text>
</a>
</g>
</a>
</g>
</g>
<!-- c2015539 -->
<g id="node2" class="node">
<title>c2015539</title>
<g id="a_node2"><a xlink:href="ByteArrayUtil.ByteSerializer.html" xlink:title="&lt;TABLE&gt;">
<g id="a_node2_1"><a xlink:href="ByteArrayUtil.ByteSerializer.html" xlink:title="de.lmu.ifi.dbs.elki.utilities.io.ByteArrayUtil.ByteSerializer" target="_parent">
<polygon fill="none" stroke="#000000" points="85.5,-195.5 85.5,-212.5 198.5,-212.5 198.5,-195.5 85.5,-195.5"/>
<text text-anchor="start" x="89.5" y="-203.1" font-family="Roboto" font-size="8.00" fill="#000000"> </text>
<text text-anchor="start" x="92.5" y="-203.1" font-family="Roboto" font-size="8.00" fill="#000000">ByteArrayUtil.ByteSerializer</text>
<text text-anchor="start" x="191.5" y="-203.1" font-family="Roboto" font-size="8.00" fill="#000000"> </text>
</a>
</g>
</a>
</g>
</g>
<!-- c2015538&#45;&gt;c2015539 -->
<g id="edge1" class="edge">
<title>c2015538&#45;&gt;c2015539</title>
<path fill="none" stroke="#000000" d="M37.4263,-126.6255C44.6654,-145.9861 58.3339,-174.594 80,-190.5 82.8246,-192.5737 85.904,-194.3477 89.1304,-195.8645"/>
<polygon fill="#000000" stroke="#000000" points="37.405,-126.5635 31.6703,-122.1916 33.5001,-115.2165 39.2349,-119.5884 37.405,-126.5635"/>
</g>
<!-- c2015540 -->
<g id="node3" class="node">
<title>c2015540</title>
<g id="a_node3"><a xlink:href="ByteArrayUtil.ShortSerializer.html" xlink:title="&lt;TABLE&gt;">
<g id="a_node3_2"><a xlink:href="ByteArrayUtil.ShortSerializer.html" xlink:title="de.lmu.ifi.dbs.elki.utilities.io.ByteArrayUtil.ShortSerializer" target="_parent">
<polygon fill="none" stroke="#000000" points="83.5,-167.5 83.5,-184.5 199.5,-184.5 199.5,-167.5 83.5,-167.5"/>
<text text-anchor="start" x="87.5" y="-175.1" font-family="Roboto" font-size="8.00" fill="#000000"> </text>
<text text-anchor="start" x="90.5" y="-175.1" font-family="Roboto" font-size="8.00" fill="#000000">ByteArrayUtil.ShortSerializer</text>
<text text-anchor="start" x="192.5" y="-175.1" font-family="Roboto" font-size="8.00" fill="#000000"> </text>
</a>
</g>
</a>
</g>
</g>
<!-- c2015538&#45;&gt;c2015540 -->
<g id="edge2" class="edge">
<title>c2015538&#45;&gt;c2015540</title>
<path fill="none" stroke="#000000" d="M42.912,-125.4543C51.6826,-137.8492 64.7106,-153.3788 80,-162.5 83.5735,-164.6319 87.4412,-166.4393 91.437,-167.9716"/>
<polygon fill="#000000" stroke="#000000" points="42.7556,-125.2191 36.1026,-122.4373 36.1115,-115.2262 42.7645,-118.0079 42.7556,-125.2191"/>
</g>
<!-- c2015541 -->
<g id="node4" class="node">
<title>c2015541</title>
<g id="a_node4"><a xlink:href="ByteArrayUtil.IntegerSerializer.html" xlink:title="&lt;TABLE&gt;">
<g id="a_node4_3"><a xlink:href="ByteArrayUtil.IntegerSerializer.html" xlink:title="de.lmu.ifi.dbs.elki.utilities.io.ByteArrayUtil.IntegerSerializer" target="_parent">
<polygon fill="none" stroke="#000000" points="80.5,-139.5 80.5,-156.5 202.5,-156.5 202.5,-139.5 80.5,-139.5"/>
<text text-anchor="start" x="84.5" y="-147.1" font-family="Roboto" font-size="8.00" fill="#000000"> </text>
<text text-anchor="start" x="87.5" y="-147.1" font-family="Roboto" font-size="8.00" fill="#000000">ByteArrayUtil.IntegerSerializer</text>
<text text-anchor="start" x="195.5" y="-147.1" font-family="Roboto" font-size="8.00" fill="#000000"> </text>
</a>
</g>
</a>
</g>
</g>
<!-- c2015538&#45;&gt;c2015541 -->
<g id="edge3" class="edge">
<title>c2015538&#45;&gt;c2015541</title>
<path fill="none" stroke="#000000" d="M54.0977,-121.5644C62.0563,-126.243 71.1886,-131.0673 80,-134.5 85.3057,-136.567 90.9935,-138.3719 96.6891,-139.9359"/>
<polygon fill="#000000" stroke="#000000" points="53.9997,-121.504 46.7931,-121.7611 43.7841,-115.2077 50.9906,-114.9507 53.9997,-121.504"/>
</g>
<!-- c2015542 -->
<g id="node5" class="node">
<title>c2015542</title>
<g id="a_node5"><a xlink:href="ByteArrayUtil.LongSerializer.html" xlink:title="&lt;TABLE&gt;">
<g id="a_node5_4"><a xlink:href="ByteArrayUtil.LongSerializer.html" xlink:title="de.lmu.ifi.dbs.elki.utilities.io.ByteArrayUtil.LongSerializer" target="_parent">
<polygon fill="none" stroke="#000000" points="84.5,-111.5 84.5,-128.5 199.5,-128.5 199.5,-111.5 84.5,-111.5"/>
<text text-anchor="start" x="88.5" y="-119.1" font-family="Roboto" font-size="8.00" fill="#000000"> </text>
<text text-anchor="start" x="91.5" y="-119.1" font-family="Roboto" font-size="8.00" fill="#000000">ByteArrayUtil.LongSerializer</text>
<text text-anchor="start" x="192.5" y="-119.1" font-family="Roboto" font-size="8.00" fill="#000000"> </text>
</a>
</g>
</a>
</g>
</g>
<!-- c2015538&#45;&gt;c2015542 -->
<g id="edge4" class="edge">
<title>c2015538&#45;&gt;c2015542</title>
<path fill="none" stroke="#000000" d="M74.31,-111.9872C77.3824,-112.3765 80.5066,-112.7723 83.642,-113.1696"/>
<polygon fill="#000000" stroke="#000000" points="73.9793,-111.9454 67.5241,-115.1595 62.0745,-110.437 68.5297,-107.223 73.9793,-111.9454"/>
</g>
<!-- c2015543 -->
<g id="node6" class="node">
<title>c2015543</title>
<g id="a_node6"><a xlink:href="ByteArrayUtil.FloatSerializer.html" xlink:title="&lt;TABLE&gt;">
<g id="a_node6_5"><a xlink:href="ByteArrayUtil.FloatSerializer.html" xlink:title="de.lmu.ifi.dbs.elki.utilities.io.ByteArrayUtil.FloatSerializer" target="_parent">
<polygon fill="none" stroke="#000000" points="84.5,-83.5 84.5,-100.5 199.5,-100.5 199.5,-83.5 84.5,-83.5"/>
<text text-anchor="start" x="88.5" y="-91.1" font-family="Roboto" font-size="8.00" fill="#000000"> </text>
<text text-anchor="start" x="91.5" y="-91.1" font-family="Roboto" font-size="8.00" fill="#000000">ByteArrayUtil.FloatSerializer</text>
<text text-anchor="start" x="192.5" y="-91.1" font-family="Roboto" font-size="8.00" fill="#000000"> </text>
</a>
</g>
</a>
</g>
</g>
<!-- c2015538&#45;&gt;c2015543 -->
<g id="edge5" class="edge">
<title>c2015538&#45;&gt;c2015543</title>
<path fill="none" stroke="#000000" d="M74.31,-101.0128C77.3824,-100.6235 80.5066,-100.2277 83.642,-99.8304"/>
<polygon fill="#000000" stroke="#000000" points="73.9793,-101.0546 68.5297,-105.777 62.0745,-102.563 67.5241,-97.8405 73.9793,-101.0546"/>
</g>
<!-- c2015544 -->
<g id="node7" class="node">
<title>c2015544</title>
<g id="a_node7"><a xlink:href="ByteArrayUtil.DoubleSerializer.html" xlink:title="&lt;TABLE&gt;">
<g id="a_node7_6"><a xlink:href="ByteArrayUtil.DoubleSerializer.html" xlink:title="de.lmu.ifi.dbs.elki.utilities.io.ByteArrayUtil.DoubleSerializer" target="_parent">
<polygon fill="none" stroke="#000000" points="80.5,-55.5 80.5,-72.5 203.5,-72.5 203.5,-55.5 80.5,-55.5"/>
<text text-anchor="start" x="84.5" y="-63.1" font-family="Roboto" font-size="8.00" fill="#000000"> </text>
<text text-anchor="start" x="87.5" y="-63.1" font-family="Roboto" font-size="8.00" fill="#000000">ByteArrayUtil.DoubleSerializer</text>
<text text-anchor="start" x="196.5" y="-63.1" font-family="Roboto" font-size="8.00" fill="#000000"> </text>
</a>
</g>
</a>
</g>
</g>
<!-- c2015538&#45;&gt;c2015544 -->
<g id="edge6" class="edge">
<title>c2015538&#45;&gt;c2015544</title>
<path fill="none" stroke="#000000" d="M54.0977,-91.4356C62.0563,-86.757 71.1886,-81.9327 80,-78.5 85.3057,-76.433 90.9935,-74.6281 96.6891,-73.0641"/>
<polygon fill="#000000" stroke="#000000" points="53.9997,-91.496 50.9906,-98.0493 43.7841,-97.7923 46.7931,-91.2389 53.9997,-91.496"/>
</g>
<!-- c2015545 -->
<g id="node8" class="node">
<title>c2015545</title>
<g id="a_node8"><a xlink:href="ByteArrayUtil.StringSerializer.html" xlink:title="&lt;TABLE&gt;">
<g id="a_node8_7"><a xlink:href="ByteArrayUtil.StringSerializer.html" xlink:title="de.lmu.ifi.dbs.elki.utilities.io.ByteArrayUtil.StringSerializer" target="_parent">
<polygon fill="none" stroke="#000000" points="82.5,-27.5 82.5,-44.5 201.5,-44.5 201.5,-27.5 82.5,-27.5"/>
<text text-anchor="start" x="86.5" y="-35.1" font-family="Roboto" font-size="8.00" fill="#000000"> </text>
<text text-anchor="start" x="89.5" y="-35.1" font-family="Roboto" font-size="8.00" fill="#000000">ByteArrayUtil.StringSerializer</text>
<text text-anchor="start" x="194.5" y="-35.1" font-family="Roboto" font-size="8.00" fill="#000000"> </text>
</a>
</g>
</a>
</g>
</g>
<!-- c2015538&#45;&gt;c2015545 -->
<g id="edge7" class="edge">
<title>c2015538&#45;&gt;c2015545</title>
<path fill="none" stroke="#000000" d="M42.912,-87.5457C51.6826,-75.1508 64.7106,-59.6212 80,-50.5 83.5735,-48.3681 87.4412,-46.5607 91.437,-45.0284"/>
<polygon fill="#000000" stroke="#000000" points="42.7556,-87.7809 42.7645,-94.9921 36.1115,-97.7738 36.1026,-90.5627 42.7556,-87.7809"/>
</g>
<!-- c2015546 -->
<g id="node9" class="node">
<title>c2015546</title>
<g id="a_node9"><a xlink:href="ByteArrayUtil.VarintSerializer.html" xlink:title="&lt;TABLE&gt;">
<g id="a_node9_8"><a xlink:href="ByteArrayUtil.VarintSerializer.html" xlink:title="de.lmu.ifi.dbs.elki.utilities.io.ByteArrayUtil.VarintSerializer" target="_parent">
<polygon fill="none" stroke="#000000" points="81.5,.5 81.5,-16.5 201.5,-16.5 201.5,.5 81.5,.5"/>
<text text-anchor="start" x="85.5" y="-7.1" font-family="Roboto" font-size="8.00" fill="#000000"> </text>
<text text-anchor="start" x="88.5" y="-7.1" font-family="Roboto" font-size="8.00" fill="#000000">ByteArrayUtil.VarintSerializer</text>
<text text-anchor="start" x="194.5" y="-7.1" font-family="Roboto" font-size="8.00" fill="#000000"> </text>
</a>
</g>
</a>
</g>
</g>
<!-- c2015538&#45;&gt;c2015546 -->
<g id="edge8" class="edge">
<title>c2015538&#45;&gt;c2015546</title>
<path fill="none" stroke="#000000" d="M37.4263,-86.3745C44.6654,-67.0139 58.3339,-38.406 80,-22.5 82.8246,-20.4263 85.904,-18.6523 89.1304,-17.1355"/>
<polygon fill="#000000" stroke="#000000" points="37.405,-86.4365 39.2349,-93.4116 33.5001,-97.7835 31.6703,-90.8084 37.405,-86.4365"/>
</g>
</g>
</svg>
