<?xml version="1.0" encoding="UTF-8" standalone="no"?>
<!DOCTYPE svg PUBLIC "-//W3C//DTD SVG 1.1//EN"
 "http://www.w3.org/Graphics/SVG/1.1/DTD/svg11.dtd">
<!-- Generated by graphviz version 2.40.1 (20161225.0304)
 -->
<!-- Title: G Pages: 1 -->
<svg width="268pt" height="65pt"
 viewBox="0.00 0.00 268.00 64.50" xmlns="http://www.w3.org/2000/svg" xmlns:xlink="http://www.w3.org/1999/xlink">
<g id="graph0" class="graph" transform="scale(1 1) rotate(0) translate(4 60.5)">
<title>G</title>
<polygon fill="#ffffff" stroke="transparent" points="-4,4 -4,-60.5 264,-60.5 264,4 -4,4"/>
<!-- c2028321 -->
<g id="node1" class="node">
<title>c2028321</title>
<g id="a_node1"><a xlink:href="FixedSizeByteBufferSerializer.html" xlink:title="&lt;TABLE&gt;">
<g id="a_node1_0"><a xlink:href="FixedSizeByteBufferSerializer.html" xlink:title="de.lmu.ifi.dbs.elki.utilities.io.FixedSizeByteBufferSerializer" target="_parent">
<polygon fill="none" stroke="#000000" points="0,-28.5 0,-56.5 120,-56.5 120,-28.5 0,-28.5"/>
<text text-anchor="start" x="38.5" y="-46.1" font-family="Roboto" font-size="8.00" fill="#000000"> «interface» </text>
<text text-anchor="start" x="4" y="-36.1" font-family="Roboto" font-size="8.00" fill="#000000"> </text>
<text text-anchor="start" x="7" y="-36.1" font-family="Roboto" font-size="8.00" fill="#000000">FixedSizeByteBufferSerializer</text>
<text text-anchor="start" x="113" y="-36.1" font-family="Roboto" font-size="8.00" fill="#000000"> </text>
</a>
</g>
</a>
</g>
</g>
<!-- c2028329 -->
<g id="node3" class="node">
<title>c2028329</title>
<g id="a_node3"><a xlink:href="ByteArrayUtil.IntegerSerializer.html" xlink:title="&lt;TABLE&gt;">
<g id="a_node3_1"><a xlink:href="ByteArrayUtil.IntegerSerializer.html" xlink:title="de.lmu.ifi.dbs.elki.utilities.io.ByteArrayUtil.IntegerSerializer" target="_parent">
<polygon fill="#fffacd" stroke="transparent" points="138,-34 138,-51 260,-51 260,-34 138,-34"/>
<polygon fill="none" stroke="#000000" points="138,-33.5 138,-50.5 260,-50.5 260,-33.5 138,-33.5"/>
<text text-anchor="start" x="142" y="-41.1" font-family="Roboto" font-size="8.00" fill="#000000"> </text>
<text text-anchor="start" x="145" y="-41.1" font-family="Roboto" font-size="8.00" fill="#000000">ByteArrayUtil.IntegerSerializer</text>
<text text-anchor="start" x="253" y="-41.1" font-family="Roboto" font-size="8.00" fill="#000000"> </text>
</a>
</g>
</a>
</g>
</g>
<!-- c2028321&#45;&gt;c2028329 -->
<g id="edge2" class="edge">
<title>c2028321&#45;&gt;c2028329</title>
<path fill="none" stroke="#000000" stroke-dasharray="5,2" d="M130.397,-42.5C132.8932,-42.5 135.3879,-42.5 137.8682,-42.5"/>
<polygon fill="none" stroke="#000000" points="130.159,-39.0001 120.159,-42.5 130.159,-46.0001 130.159,-39.0001"/>
</g>
<!-- c2028326 -->
<g id="node2" class="node">
<title>c2028326</title>
<g id="a_node2"><a xlink:href="ByteArrayUtil.html" xlink:title="&lt;TABLE&gt;">
<g id="a_node2_2"><a xlink:href="ByteArrayUtil.html" xlink:title="de.lmu.ifi.dbs.elki.utilities.io.ByteArrayUtil" target="_parent">
<polygon fill="#fffacd" stroke="transparent" points="29,0 29,-17 91,-17 91,0 29,0"/>
<polygon fill="none" stroke="#000000" points="29,.5 29,-16.5 91,-16.5 91,.5 29,.5"/>
<text text-anchor="start" x="33" y="-7.1" font-family="Roboto" font-size="8.00" fill="#000000"> </text>
<text text-anchor="start" x="36" y="-7.1" font-family="Roboto" font-size="8.00" fill="#000000">ByteArrayUtil</text>
<text text-anchor="start" x="84" y="-7.1" font-family="Roboto" font-size="8.00" fill="#000000"> </text>
</a>
</g>
</a>
</g>
</g>
<!-- c2028326&#45;&gt;c2028329 -->
<g id="edge1" class="edge">
<title>c2028326&#45;&gt;c2028329</title>
<path fill="none" stroke="#000000" d="M102.9056,-18.9949C122.516,-23.7917 145.4529,-29.4022 163.9988,-33.9385"/>
<polygon fill="#000000" stroke="#000000" points="102.8507,-18.9815 96.0721,-21.4414 91.1943,-16.1303 97.9729,-13.6704 102.8507,-18.9815"/>
</g>
</g>
</svg>
