<?xml version="1.0" encoding="UTF-8" standalone="no"?>
<!DOCTYPE svg PUBLIC "-//W3C//DTD SVG 1.1//EN"
 "http://www.w3.org/Graphics/SVG/1.1/DTD/svg11.dtd">
<!-- Generated by graphviz version 2.40.1 (20161225.0304)
 -->
<!-- Title: G Pages: 1 -->
<svg width="250pt" height="75pt"
 viewBox="0.00 0.00 250.00 75.00" xmlns="http://www.w3.org/2000/svg" xmlns:xlink="http://www.w3.org/1999/xlink">
<g id="graph0" class="graph" transform="scale(1 1) rotate(0) translate(4 71)">
<title>G</title>
<polygon fill="#ffffff" stroke="transparent" points="-4,4 -4,-71 246,-71 246,4 -4,4"/>
<!-- c9057497 -->
<g id="node1" class="node">
<title>c9057497</title>
<g id="a_node1"><a xlink:href="SVGPath.html" xlink:title="&lt;TABLE&gt;">
<g id="a_node1_0"><a xlink:href="SVGPath.html" xlink:title="de.lmu.ifi.dbs.elki.visualization.svg.SVGPath" target="_parent">
<polygon fill="none" stroke="#000000" points="141.5,-49.5 141.5,-66.5 187.5,-66.5 187.5,-49.5 141.5,-49.5"/>
<text text-anchor="start" x="145.5" y="-57.1" font-family="Roboto" font-size="8.00" fill="#000000"> </text>
<text text-anchor="start" x="148.5" y="-57.1" font-family="Roboto" font-size="8.00" fill="#000000">SVGPath</text>
<text text-anchor="start" x="180.5" y="-57.1" font-family="Roboto" font-size="8.00" fill="#000000"> </text>
</a>
</g>
</a>
</g>
</g>
<!-- c9057504 -->
<g id="node2" class="node">
<title>c9057504</title>
<g id="a_node2"><a xlink:href="SVGHyperCube.html" xlink:title="&lt;TABLE&gt;">
<g id="a_node2_1"><a xlink:href="SVGHyperCube.html" xlink:title="de.lmu.ifi.dbs.elki.visualization.svg.SVGHyperCube" target="_parent">
<polygon fill="#fffacd" stroke="transparent" points="0,-30 0,-47 69,-47 69,-30 0,-30"/>
<polygon fill="none" stroke="#000000" points=".5,-29.5 .5,-46.5 69.5,-46.5 69.5,-29.5 .5,-29.5"/>
<text text-anchor="start" x="4.5" y="-37.1" font-family="Roboto" font-size="8.00" fill="#000000"> </text>
<text text-anchor="start" x="7.5" y="-37.1" font-family="Roboto" font-size="8.00" fill="#000000">SVGHyperCube</text>
<text text-anchor="start" x="62.5" y="-37.1" font-family="Roboto" font-size="8.00" fill="#000000"> </text>
</a>
</g>
</a>
</g>
</g>
<!-- c9057504&#45;&gt;c9057497 -->
<g id="edge1" class="edge">
<title>c9057504&#45;&gt;c9057497</title>
<path fill="none" stroke="#000000" d="M69.3376,-43.8596C92.2015,-47.3772 121.463,-51.8789 141.4645,-54.9561"/>
</g>
<!-- c9057531 -->
<g id="node3" class="node">
<title>c9057531</title>
<g id="a_node3"><a xlink:href="../projections/Projection2D.html" xlink:title="&lt;TABLE&gt;">
<g id="a_node3_2"><a xlink:href="../projections/Projection2D.html" xlink:title="de.lmu.ifi.dbs.elki.visualization.projections.Projection2D" target="_parent">
<polygon fill="#fffacd" stroke="transparent" points="87,0 87,-39 242,-39 242,0 87,0"/>
<polygon fill="none" stroke="#000000" points="87.5,.5 87.5,-38.5 242.5,-38.5 242.5,.5 87.5,.5"/>
<text text-anchor="start" x="143.5" y="-28.1" font-family="Roboto" font-size="8.00" fill="#000000"> «interface» </text>
<text text-anchor="start" x="139" y="-18.1" font-family="Roboto" font-size="8.00" fill="#000000"> </text>
<text text-anchor="start" x="142" y="-18.1" font-family="Roboto" font-size="8.00" fill="#000000">Projection2D</text>
<text text-anchor="start" x="188" y="-18.1" font-family="Roboto" font-size="8.00" fill="#000000"> </text>
<text text-anchor="start" x="91.5" y="-7.1" font-family="Roboto" font-size="8.00" fill="#000000"> </text>
<text text-anchor="start" x="94.5" y="-7.1" font-family="Roboto" font-size="7.00" fill="#000000">de.lmu.ifi.dbs.elki.visualization.projections</text>
<text text-anchor="start" x="235.5" y="-7.1" font-family="Roboto" font-size="8.00" fill="#000000"> </text>
</a>
</g>
</a>
</g>
</g>
<!-- c9057504&#45;&gt;c9057531 -->
<g id="edge2" class="edge">
<title>c9057504&#45;&gt;c9057531</title>
<path fill="none" stroke="#000000" d="M69.3376,-33.4083C74.9032,-32.5949 80.8478,-31.7261 86.9457,-30.8349"/>
</g>
</g>
</svg>
