<?xml version="1.0" encoding="UTF-8" standalone="no"?>
<!DOCTYPE svg PUBLIC "-//W3C//DTD SVG 1.1//EN"
 "http://www.w3.org/Graphics/SVG/1.1/DTD/svg11.dtd">
<!-- Generated by graphviz version 2.40.1 (20161225.0304)
 -->
<!-- Title: G Pages: 1 -->
<svg width="242pt" height="81pt"
 viewBox="0.00 0.00 242.00 81.00" xmlns="http://www.w3.org/2000/svg" xmlns:xlink="http://www.w3.org/1999/xlink">
<g id="graph0" class="graph" transform="scale(1 1) rotate(0) translate(4 77)">
<title>G</title>
<polygon fill="#ffffff" stroke="transparent" points="-4,4 -4,-77 238,-77 238,4 -4,4"/>
<!-- c9063891 -->
<g id="node1" class="node">
<title>c9063891</title>
<g id="a_node1"><a xlink:href="SVGPath.html" xlink:title="&lt;TABLE&gt;">
<g id="a_node1_0"><a xlink:href="SVGPath.html" xlink:title="de.lmu.ifi.dbs.elki.visualization.svg.SVGPath" target="_parent">
<polygon fill="#fffacd" stroke="transparent" points="94,-28 94,-45 140,-45 140,-28 94,-28"/>
<polygon fill="none" stroke="#000000" points="94,-27.5 94,-44.5 140,-44.5 140,-27.5 94,-27.5"/>
<text text-anchor="start" x="98" y="-35.1" font-family="Roboto" font-size="8.00" fill="#000000"> </text>
<text text-anchor="start" x="101" y="-35.1" font-family="Roboto" font-size="8.00" fill="#000000">SVGPath</text>
<text text-anchor="start" x="133" y="-35.1" font-family="Roboto" font-size="8.00" fill="#000000"> </text>
</a>
</g>
</a>
</g>
</g>
<!-- c9066822 -->
<g id="node5" class="node">
<title>c9066822</title>
<g id="a_node5"><a xlink:href="http://docs.oracle.com/javase/7/docs/api/org/w3c/dom/Element.html" xlink:title="&lt;TABLE&gt;">
<g id="a_node5_1"><a xlink:href="http://docs.oracle.com/javase/7/docs/api/org/w3c/dom/Element.html" xlink:title="org.w3c.dom.Element" target="_parent">
<polygon fill="none" stroke="#000000" points="179.5,-16.5 179.5,-55.5 234.5,-55.5 234.5,-16.5 179.5,-16.5"/>
<text text-anchor="start" x="185.5" y="-45.1" font-family="Roboto" font-size="8.00" fill="#000000"> «interface» </text>
<text text-anchor="start" x="190" y="-35.1" font-family="Roboto" font-size="8.00" fill="#000000"> </text>
<text text-anchor="start" x="193" y="-35.1" font-family="Roboto" font-size="8.00" fill="#000000">Element</text>
<text text-anchor="start" x="221" y="-35.1" font-family="Roboto" font-size="8.00" fill="#000000"> </text>
<text text-anchor="start" x="183.5" y="-24.1" font-family="Roboto" font-size="8.00" fill="#000000"> </text>
<text text-anchor="start" x="186.5" y="-24.1" font-family="Roboto" font-size="7.00" fill="#000000">org.w3c.dom</text>
<text text-anchor="start" x="227.5" y="-24.1" font-family="Roboto" font-size="8.00" fill="#000000"> </text>
</a>
</g>
</a>
</g>
</g>
<!-- c9063891&#45;&gt;c9066822 -->
<g id="edge1" class="edge">
<title>c9063891&#45;&gt;c9066822</title>
<path fill="none" stroke="#000000" d="M140.0485,-36.5C148.7206,-36.5 158.8275,-36.5 168.5032,-36.5"/>
<polygon fill="#000000" stroke="#000000" points="178.7449,-36.5 168.7449,-41.0001 173.7449,-36.5 168.7449,-36.5001 168.7449,-36.5001 168.7449,-36.5001 173.7449,-36.5 168.7448,-32.0001 178.7449,-36.5 178.7449,-36.5"/>
<text text-anchor="middle" x="159.5" y="-38.9" font-family="Roboto" font-size="7.00" fill="#000000">create</text>
</g>
<!-- c9063895 -->
<g id="node2" class="node">
<title>c9063895</title>
<g id="a_node2"><a xlink:href="SVGHyperSphere.html" xlink:title="&lt;TABLE&gt;">
<g id="a_node2_2"><a xlink:href="SVGHyperSphere.html" xlink:title="de.lmu.ifi.dbs.elki.visualization.svg.SVGHyperSphere" target="_parent">
<polygon fill="none" stroke="#000000" points=".5,-55.5 .5,-72.5 75.5,-72.5 75.5,-55.5 .5,-55.5"/>
<text text-anchor="start" x="4.5" y="-63.1" font-family="Roboto" font-size="8.00" fill="#000000"> </text>
<text text-anchor="start" x="7.5" y="-63.1" font-family="Roboto" font-size="8.00" fill="#000000">SVGHyperSphere</text>
<text text-anchor="start" x="68.5" y="-63.1" font-family="Roboto" font-size="8.00" fill="#000000"> </text>
</a>
</g>
</a>
</g>
</g>
<!-- c9063895&#45;&gt;c9063891 -->
<g id="edge2" class="edge">
<title>c9063895&#45;&gt;c9063891</title>
<path fill="none" stroke="#000000" d="M61.7846,-55.9469C72.0131,-52.3444 83.8603,-48.1719 93.9519,-44.6176"/>
</g>
<!-- c9063898 -->
<g id="node3" class="node">
<title>c9063898</title>
<g id="a_node3"><a xlink:href="SVGHyperCube.html" xlink:title="&lt;TABLE&gt;">
<g id="a_node3_3"><a xlink:href="SVGHyperCube.html" xlink:title="de.lmu.ifi.dbs.elki.visualization.svg.SVGHyperCube" target="_parent">
<polygon fill="none" stroke="#000000" points="3.5,-27.5 3.5,-44.5 72.5,-44.5 72.5,-27.5 3.5,-27.5"/>
<text text-anchor="start" x="7.5" y="-35.1" font-family="Roboto" font-size="8.00" fill="#000000"> </text>
<text text-anchor="start" x="10.5" y="-35.1" font-family="Roboto" font-size="8.00" fill="#000000">SVGHyperCube</text>
<text text-anchor="start" x="65.5" y="-35.1" font-family="Roboto" font-size="8.00" fill="#000000"> </text>
</a>
</g>
</a>
</g>
</g>
<!-- c9063898&#45;&gt;c9063891 -->
<g id="edge3" class="edge">
<title>c9063898&#45;&gt;c9063891</title>
<path fill="none" stroke="#000000" d="M72.1386,-36.5C79.503,-36.5 87.1053,-36.5 93.9119,-36.5"/>
</g>
<!-- c9063904 -->
<g id="node4" class="node">
<title>c9063904</title>
<g id="a_node4"><a xlink:href="SVGArrow.html" xlink:title="&lt;TABLE&gt;">
<g id="a_node4_4"><a xlink:href="SVGArrow.html" xlink:title="de.lmu.ifi.dbs.elki.visualization.svg.SVGArrow" target="_parent">
<polygon fill="none" stroke="#000000" points="12.5,.5 12.5,-16.5 63.5,-16.5 63.5,.5 12.5,.5"/>
<text text-anchor="start" x="16.5" y="-7.1" font-family="Roboto" font-size="8.00" fill="#000000"> </text>
<text text-anchor="start" x="19.5" y="-7.1" font-family="Roboto" font-size="8.00" fill="#000000">SVGArrow</text>
<text text-anchor="start" x="56.5" y="-7.1" font-family="Roboto" font-size="8.00" fill="#000000"> </text>
</a>
</g>
</a>
</g>
</g>
<!-- c9063904&#45;&gt;c9063891 -->
<g id="edge4" class="edge">
<title>c9063904&#45;&gt;c9063891</title>
<path fill="none" stroke="#000000" d="M61.7846,-17.0531C72.0131,-20.6556 83.8603,-24.8281 93.9519,-28.3824"/>
</g>
</g>
</svg>
