<?xml version="1.0" encoding="UTF-8" standalone="no"?>
<!DOCTYPE svg PUBLIC "-//W3C//DTD SVG 1.1//EN"
 "http://www.w3.org/Graphics/SVG/1.1/DTD/svg11.dtd">
<!-- Generated by graphviz version 2.40.1 (20161225.0304)
 -->
<!-- Title: G Pages: 1 -->
<svg width="420pt" height="239pt"
 viewBox="0.00 0.00 420.00 238.50" xmlns="http://www.w3.org/2000/svg" xmlns:xlink="http://www.w3.org/1999/xlink">
<g id="graph0" class="graph" transform="scale(1 1) rotate(0) translate(4 234.5)">
<title>G</title>
<polygon fill="#ffffff" stroke="transparent" points="-4,4 -4,-234.5 416,-234.5 416,4 -4,4"/>
<!-- c9076656 -->
<g id="node1" class="node">
<title>c9076656</title>
<g id="a_node1"><a xlink:href="../css/CSSClassManager.html" xlink:title="&lt;TABLE&gt;">
<g id="a_node1_0"><a xlink:href="../css/CSSClassManager.html" xlink:title="de.lmu.ifi.dbs.elki.visualization.css.CSSClassManager" target="_parent">
<polygon fill="none" stroke="#000000" points="133.5,-202.5 133.5,-230.5 262.5,-230.5 262.5,-202.5 133.5,-202.5"/>
<text text-anchor="start" x="161.5" y="-221.1" font-family="Roboto" font-size="8.00" fill="#000000"> </text>
<text text-anchor="start" x="164.5" y="-221.1" font-family="Roboto" font-size="8.00" fill="#000000">CSSClassManager</text>
<text text-anchor="start" x="231.5" y="-221.1" font-family="Roboto" font-size="8.00" fill="#000000"> </text>
<text text-anchor="start" x="137.5" y="-210.1" font-family="Roboto" font-size="8.00" fill="#000000"> </text>
<text text-anchor="start" x="140.5" y="-210.1" font-family="Roboto" font-size="7.00" fill="#000000">de.lmu.ifi.dbs.elki.visualization.css</text>
<text text-anchor="start" x="255.5" y="-210.1" font-family="Roboto" font-size="8.00" fill="#000000"> </text>
</a>
</g>
</a>
</g>
</g>
<!-- c9076658 -->
<g id="node2" class="node">
<title>c9076658</title>
<g id="a_node2"><a xlink:href="../css/CSSClass.html" xlink:title="&lt;TABLE&gt;">
<g id="a_node2_1"><a xlink:href="../css/CSSClass.html" xlink:title="de.lmu.ifi.dbs.elki.visualization.css.CSSClass" target="_parent">
<polygon fill="none" stroke="#000000" points="283.5,-202.5 283.5,-230.5 412.5,-230.5 412.5,-202.5 283.5,-202.5"/>
<text text-anchor="start" x="328" y="-221.1" font-family="Roboto" font-size="8.00" fill="#000000"> </text>
<text text-anchor="start" x="331" y="-221.1" font-family="Roboto" font-size="8.00" fill="#000000">CSSClass</text>
<text text-anchor="start" x="365" y="-221.1" font-family="Roboto" font-size="8.00" fill="#000000"> </text>
<text text-anchor="start" x="287.5" y="-210.1" font-family="Roboto" font-size="8.00" fill="#000000"> </text>
<text text-anchor="start" x="290.5" y="-210.1" font-family="Roboto" font-size="7.00" fill="#000000">de.lmu.ifi.dbs.elki.visualization.css</text>
<text text-anchor="start" x="405.5" y="-210.1" font-family="Roboto" font-size="8.00" fill="#000000"> </text>
</a>
</g>
</a>
</g>
</g>
<!-- c9076656&#45;&gt;c9076658 -->
<g id="edge1" class="edge">
<title>c9076656&#45;&gt;c9076658</title>
<path fill="none" stroke="#000000" d="M274.6201,-216.5C277.408,-216.5 280.1919,-216.5 282.9564,-216.5"/>
<polygon fill="none" stroke="#000000" points="274.4198,-216.5001 268.4197,-220.5 262.4198,-216.5 268.4198,-212.5 274.4198,-216.5001"/>
</g>
<!-- c9076679 -->
<g id="node3" class="node">
<title>c9076679</title>
<g id="a_node3"><a xlink:href="SVGSimpleLinearAxis.html" xlink:title="&lt;TABLE&gt;">
<g id="a_node3_2"><a xlink:href="SVGSimpleLinearAxis.html" xlink:title="de.lmu.ifi.dbs.elki.visualization.svg.SVGSimpleLinearAxis" target="_parent">
<polygon fill="#fffacd" stroke="transparent" points="0,-146 0,-163 92,-163 92,-146 0,-146"/>
<polygon fill="none" stroke="#000000" points="0,-145.5 0,-162.5 92,-162.5 92,-145.5 0,-145.5"/>
<text text-anchor="start" x="4" y="-153.1" font-family="Roboto" font-size="8.00" fill="#000000"> </text>
<text text-anchor="start" x="7" y="-153.1" font-family="Roboto" font-size="8.00" fill="#000000">SVGSimpleLinearAxis</text>
<text text-anchor="start" x="85" y="-153.1" font-family="Roboto" font-size="8.00" fill="#000000"> </text>
</a>
</g>
</a>
</g>
</g>
<!-- c9076679&#45;&gt;c9076656 -->
<g id="edge4" class="edge">
<title>c9076679&#45;&gt;c9076656</title>
<path fill="none" stroke="#000000" d="M55.8141,-163.2479C66.2903,-172.1355 83.727,-185.6744 101,-193.5 110.9618,-198.0132 121.919,-201.7026 132.7648,-204.6991"/>
</g>
<!-- c9076679&#45;&gt;c9076658 -->
<g id="edge3" class="edge">
<title>c9076679&#45;&gt;c9076658</title>
<path fill="none" stroke="#000000" d="M80.2241,-163.0457C95.6863,-166.7792 114.2147,-171.0771 131,-174.5 189.7788,-186.4863 205.1775,-185.7299 264,-197.5 271.5806,-199.0168 279.5268,-200.7014 287.3773,-202.423"/>
</g>
<!-- c9076681 -->
<g id="node4" class="node">
<title>c9076681</title>
<g id="a_node4"><a xlink:href="SVGSimpleLinearAxis.LabelStyle.html" xlink:title="&lt;TABLE&gt;">
<g id="a_node4_3"><a xlink:href="SVGSimpleLinearAxis.LabelStyle.html" xlink:title="de.lmu.ifi.dbs.elki.visualization.svg.SVGSimpleLinearAxis.LabelStyle" target="_parent">
<polygon fill="none" stroke="#000000" points="132.5,-140.5 132.5,-168.5 262.5,-168.5 262.5,-140.5 132.5,-140.5"/>
<text text-anchor="start" x="169.5" y="-158.1" font-family="Roboto" font-size="8.00" fill="#000000"> «enumeration» </text>
<text text-anchor="start" x="136.5" y="-148.1" font-family="Roboto" font-size="8.00" fill="#000000"> </text>
<text text-anchor="start" x="139.5" y="-148.1" font-family="Roboto" font-size="8.00" fill="#000000">SVGSimpleLinearAxis.LabelStyle</text>
<text text-anchor="start" x="255.5" y="-148.1" font-family="Roboto" font-size="8.00" fill="#000000"> </text>
</a>
</g>
</a>
</g>
</g>
<!-- c9076679&#45;&gt;c9076681 -->
<g id="edge2" class="edge">
<title>c9076679&#45;&gt;c9076681</title>
<path fill="none" stroke="#000000" d="M104.4327,-154.5C113.5456,-154.5 123.0118,-154.5 132.2646,-154.5"/>
<polygon fill="#000000" stroke="#000000" points="104.2782,-154.5001 98.2782,-158.5 92.2782,-154.5 98.2782,-150.5 104.2782,-154.5001"/>
</g>
<!-- c9076728 -->
<g id="node5" class="node">
<title>c9076728</title>
<g id="a_node5"><a xlink:href="../style/StyleLibrary.html" xlink:title="&lt;TABLE&gt;">
<g id="a_node5_4"><a xlink:href="../style/StyleLibrary.html" xlink:title="de.lmu.ifi.dbs.elki.visualization.style.StyleLibrary" target="_parent">
<polygon fill="none" stroke="#000000" points="131.5,-89.5 131.5,-128.5 264.5,-128.5 264.5,-89.5 131.5,-89.5"/>
<text text-anchor="start" x="176.5" y="-118.1" font-family="Roboto" font-size="8.00" fill="#000000"> «interface» </text>
<text text-anchor="start" x="173.5" y="-108.1" font-family="Roboto" font-size="8.00" fill="#000000"> </text>
<text text-anchor="start" x="176.5" y="-108.1" font-family="Roboto" font-size="8.00" fill="#000000">StyleLibrary</text>
<text text-anchor="start" x="219.5" y="-108.1" font-family="Roboto" font-size="8.00" fill="#000000"> </text>
<text text-anchor="start" x="135.5" y="-97.1" font-family="Roboto" font-size="8.00" fill="#000000"> </text>
<text text-anchor="start" x="138.5" y="-97.1" font-family="Roboto" font-size="7.00" fill="#000000">de.lmu.ifi.dbs.elki.visualization.style</text>
<text text-anchor="start" x="257.5" y="-97.1" font-family="Roboto" font-size="8.00" fill="#000000"> </text>
</a>
</g>
</a>
</g>
</g>
<!-- c9076679&#45;&gt;c9076728 -->
<g id="edge6" class="edge">
<title>c9076679&#45;&gt;c9076728</title>
<path fill="none" stroke="#000000" d="M74.8526,-145.9299C90.9928,-141.1358 111.8162,-134.9506 131.7074,-129.0424"/>
</g>
<!-- c9077978 -->
<g id="node6" class="node">
<title>c9077978</title>
<g id="a_node6"><a xlink:href="../../math/scales/LinearScale.html" xlink:title="&lt;TABLE&gt;">
<g id="a_node6_5"><a xlink:href="../../math/scales/LinearScale.html" xlink:title="de.lmu.ifi.dbs.elki.math.scales.LinearScale" target="_parent">
<polygon fill="none" stroke="#000000" points="141.5,-50.5 141.5,-78.5 254.5,-78.5 254.5,-50.5 141.5,-50.5"/>
<text text-anchor="start" x="174" y="-69.1" font-family="Roboto" font-size="8.00" fill="#000000"> </text>
<text text-anchor="start" x="177" y="-69.1" font-family="Roboto" font-size="8.00" fill="#000000">LinearScale</text>
<text text-anchor="start" x="219" y="-69.1" font-family="Roboto" font-size="8.00" fill="#000000"> </text>
<text text-anchor="start" x="145.5" y="-58.1" font-family="Roboto" font-size="8.00" fill="#000000"> </text>
<text text-anchor="start" x="148.5" y="-58.1" font-family="Roboto" font-size="7.00" fill="#000000">de.lmu.ifi.dbs.elki.math.scales</text>
<text text-anchor="start" x="247.5" y="-58.1" font-family="Roboto" font-size="8.00" fill="#000000"> </text>
</a>
</g>
</a>
</g>
</g>
<!-- c9076679&#45;&gt;c9077978 -->
<g id="edge5" class="edge">
<title>c9076679&#45;&gt;c9077978</title>
<path fill="none" stroke="#000000" d="M54.0955,-145.8908C68.3173,-131.2462 99.2982,-101.4312 131,-84.5 135.0411,-82.3418 139.3477,-80.3836 143.7519,-78.6136"/>
</g>
<!-- c9079613 -->
<g id="node7" class="node">
<title>c9079613</title>
<g id="a_node7"><a xlink:href="http://docs.oracle.com/javase/7/docs/api/org/w3c/dom/Element.html" xlink:title="&lt;TABLE&gt;">
<g id="a_node7_6"><a xlink:href="http://docs.oracle.com/javase/7/docs/api/org/w3c/dom/Element.html" xlink:title="org.w3c.dom.Element" target="_parent">
<polygon fill="none" stroke="#000000" points="170.5,.5 170.5,-38.5 225.5,-38.5 225.5,.5 170.5,.5"/>
<text text-anchor="start" x="176.5" y="-28.1" font-family="Roboto" font-size="8.00" fill="#000000"> «interface» </text>
<text text-anchor="start" x="181" y="-18.1" font-family="Roboto" font-size="8.00" fill="#000000"> </text>
<text text-anchor="start" x="184" y="-18.1" font-family="Roboto" font-size="8.00" fill="#000000">Element</text>
<text text-anchor="start" x="212" y="-18.1" font-family="Roboto" font-size="8.00" fill="#000000"> </text>
<text text-anchor="start" x="174.5" y="-7.1" font-family="Roboto" font-size="8.00" fill="#000000"> </text>
<text text-anchor="start" x="177.5" y="-7.1" font-family="Roboto" font-size="7.00" fill="#000000">org.w3c.dom</text>
<text text-anchor="start" x="218.5" y="-7.1" font-family="Roboto" font-size="8.00" fill="#000000"> </text>
</a>
</g>
</a>
</g>
</g>
<!-- c9076679&#45;&gt;c9079613 -->
<g id="edge7" class="edge">
<title>c9076679&#45;&gt;c9079613</title>
<path fill="none" stroke="#000000" d="M50.448,-145.7045C61.3184,-125.0852 91.2752,-73.2798 131,-45.5 139.8531,-39.309 150.3852,-34.32 160.4271,-30.4321"/>
<polygon fill="#000000" stroke="#000000" points="169.834,-27.0387 161.9544,-34.6651 165.1306,-28.7354 160.4273,-30.4321 160.4273,-30.4321 160.4273,-30.4321 165.1306,-28.7354 158.9003,-26.1991 169.834,-27.0387 169.834,-27.0387"/>
<text text-anchor="middle" x="111.5" y="-71.9" font-family="Roboto" font-size="7.00" fill="#000000">create</text>
</g>
</g>
</svg>
