<?xml version="1.0" encoding="UTF-8" standalone="no"?>
<!DOCTYPE svg PUBLIC "-//W3C//DTD SVG 1.1//EN"
 "http://www.w3.org/Graphics/SVG/1.1/DTD/svg11.dtd">
<!-- Generated by graphviz version 2.40.1 (20161225.0304)
 -->
<!-- Title: G Pages: 1 -->
<svg width="145pt" height="47pt"
 viewBox="0.00 0.00 145.00 47.00" xmlns="http://www.w3.org/2000/svg" xmlns:xlink="http://www.w3.org/1999/xlink">
<g id="graph0" class="graph" transform="scale(1 1) rotate(0) translate(4 43)">
<title>G</title>
<polygon fill="#ffffff" stroke="transparent" points="-4,4 -4,-43 141,-43 141,4 -4,4"/>
<!-- c9086283 -->
<g id="node1" class="node">
<title>c9086283</title>
<g id="a_node1"><a xlink:href="SVGUtil.html" xlink:title="&lt;TABLE&gt;">
<g id="a_node1_0"><a xlink:href="SVGUtil.html" xlink:title="de.lmu.ifi.dbs.elki.visualization.svg.SVGUtil" target="_parent">
<polygon fill="#fffacd" stroke="transparent" points="0,-11 0,-28 43,-28 43,-11 0,-11"/>
<polygon fill="none" stroke="#000000" points=".5,-10.5 .5,-27.5 43.5,-27.5 43.5,-10.5 .5,-10.5"/>
<text text-anchor="start" x="4.5" y="-18.1" font-family="Roboto" font-size="8.00" fill="#000000"> </text>
<text text-anchor="start" x="7.5" y="-18.1" font-family="Roboto" font-size="8.00" fill="#000000">SVGUtil</text>
<text text-anchor="start" x="36.5" y="-18.1" font-family="Roboto" font-size="8.00" fill="#000000"> </text>
</a>
</g>
</a>
</g>
</g>
<!-- c9089205 -->
<g id="node2" class="node">
<title>c9089205</title>
<g id="a_node2"><a xlink:href="http://docs.oracle.com/javase/7/docs/api/org/w3c/dom/Element.html" xlink:title="&lt;TABLE&gt;">
<g id="a_node2_1"><a xlink:href="http://docs.oracle.com/javase/7/docs/api/org/w3c/dom/Element.html" xlink:title="org.w3c.dom.Element" target="_parent">
<polygon fill="none" stroke="#000000" points="82.5,.5 82.5,-38.5 137.5,-38.5 137.5,.5 82.5,.5"/>
<text text-anchor="start" x="88.5" y="-28.1" font-family="Roboto" font-size="8.00" fill="#000000"> «interface» </text>
<text text-anchor="start" x="93" y="-18.1" font-family="Roboto" font-size="8.00" fill="#000000"> </text>
<text text-anchor="start" x="96" y="-18.1" font-family="Roboto" font-size="8.00" fill="#000000">Element</text>
<text text-anchor="start" x="124" y="-18.1" font-family="Roboto" font-size="8.00" fill="#000000"> </text>
<text text-anchor="start" x="86.5" y="-7.1" font-family="Roboto" font-size="8.00" fill="#000000"> </text>
<text text-anchor="start" x="89.5" y="-7.1" font-family="Roboto" font-size="7.00" fill="#000000">org.w3c.dom</text>
<text text-anchor="start" x="130.5" y="-7.1" font-family="Roboto" font-size="8.00" fill="#000000"> </text>
</a>
</g>
</a>
</g>
</g>
<!-- c9086283&#45;&gt;c9089205 -->
<g id="edge1" class="edge">
<title>c9086283&#45;&gt;c9089205</title>
<path fill="none" stroke="#000000" d="M43.2528,-19.5C51.7749,-19.5 61.808,-19.5 71.4524,-19.5"/>
<polygon fill="#000000" stroke="#000000" points="81.6751,-19.5 71.6752,-24.0001 76.6751,-19.5 71.6751,-19.5001 71.6751,-19.5001 71.6751,-19.5001 76.6751,-19.5 71.6751,-15.0001 81.6751,-19.5 81.6751,-19.5"/>
<text text-anchor="middle" x="62.5" y="-21.9" font-family="Roboto" font-size="7.00" fill="#000000">create</text>
</g>
</g>
</svg>
