<?xml version="1.0" encoding="UTF-8" standalone="no"?>
<!DOCTYPE svg PUBLIC "-//W3C//DTD SVG 1.1//EN"
 "http://www.w3.org/Graphics/SVG/1.1/DTD/svg11.dtd">
<!-- Generated by graphviz version 2.40.1 (20161225.0304)
 -->
<!-- Title: G Pages: 1 -->
<svg width="343pt" height="76pt"
 viewBox="0.00 0.00 343.00 76.03" xmlns="http://www.w3.org/2000/svg" xmlns:xlink="http://www.w3.org/1999/xlink">
<g id="graph0" class="graph" transform="scale(1 1) rotate(0) translate(4 72.0291)">
<title>G</title>
<polygon fill="#ffffff" stroke="transparent" points="-4,4 -4,-72.0291 339,-72.0291 339,4 -4,4"/>
<!-- c10601754 -->
<g id="node1" class="node">
<title>c10601754</title>
<g id="a_node1"><a xlink:href="../batikutil/JSVGUpdateSynchronizer.html" xlink:title="&lt;TABLE&gt;">
<g id="a_node1_0"><a xlink:href="../batikutil/JSVGUpdateSynchronizer.html" xlink:title="de.lmu.ifi.dbs.elki.visualization.batikutil.JSVGUpdateSynchronizer" target="_parent">
<polygon fill="none" stroke="#000000" points=".5,-40.0291 .5,-68.0291 145.5,-68.0291 145.5,-40.0291 .5,-40.0291"/>
<text text-anchor="start" x="24" y="-58.6291" font-family="Roboto" font-size="8.00" fill="#000000"> </text>
<text text-anchor="start" x="27" y="-58.6291" font-family="Roboto" font-size="8.00" fill="#000000">JSVGUpdateSynchronizer</text>
<text text-anchor="start" x="119" y="-58.6291" font-family="Roboto" font-size="8.00" fill="#000000"> </text>
<text text-anchor="start" x="4.5" y="-47.6291" font-family="Roboto" font-size="8.00" fill="#000000"> </text>
<text text-anchor="start" x="7.5" y="-47.6291" font-family="Roboto" font-size="7.00" fill="#000000">de.lmu.ifi.dbs.elki.visualization.batikutil</text>
<text text-anchor="start" x="138.5" y="-47.6291" font-family="Roboto" font-size="8.00" fill="#000000"> </text>
</a>
</g>
</a>
</g>
</g>
<!-- c10601778 -->
<g id="node3" class="node">
<title>c10601778</title>
<g id="a_node3"><a xlink:href="UpdateRunner.html" xlink:title="&lt;TABLE&gt;">
<g id="a_node3_1"><a xlink:href="UpdateRunner.html" xlink:title="de.lmu.ifi.dbs.elki.visualization.svg.UpdateRunner" target="_parent">
<polygon fill="#fffacd" stroke="transparent" points="164,-19.5291 164,-36.5291 230,-36.5291 230,-19.5291 164,-19.5291"/>
<polygon fill="none" stroke="#000000" points="164,-19.0291 164,-36.0291 230,-36.0291 230,-19.0291 164,-19.0291"/>
<text text-anchor="start" x="168" y="-26.6291" font-family="Roboto" font-size="8.00" fill="#000000"> </text>
<text text-anchor="start" x="171" y="-26.6291" font-family="Roboto" font-size="8.00" fill="#000000">UpdateRunner</text>
<text text-anchor="start" x="223" y="-26.6291" font-family="Roboto" font-size="8.00" fill="#000000"> </text>
</a>
</g>
</a>
</g>
</g>
<!-- c10601754&#45;&gt;c10601778 -->
<g id="edge2" class="edge">
<title>c10601754&#45;&gt;c10601778</title>
<path fill="none" stroke="#000000" d="M139.8514,-39.9637C148.2164,-38.2168 156.4577,-36.4957 163.9657,-34.9278"/>
</g>
<!-- c10601773 -->
<g id="node2" class="node">
<title>c10601773</title>
<g id="a_node2"><a xlink:href="SVGPlot.html" xlink:title="&lt;TABLE&gt;">
<g id="a_node2_2"><a xlink:href="SVGPlot.html" xlink:title="de.lmu.ifi.dbs.elki.visualization.svg.SVGPlot" target="_parent">
<polygon fill="#fffacd" stroke="transparent" points="51,-11.5291 51,-28.5291 94,-28.5291 94,-11.5291 51,-11.5291"/>
<polygon fill="none" stroke="#000000" points="51.5,-11.0291 51.5,-28.0291 94.5,-28.0291 94.5,-11.0291 51.5,-11.0291"/>
<text text-anchor="start" x="55.5" y="-18.6291" font-family="Roboto" font-size="8.00" fill="#000000"> </text>
<text text-anchor="start" x="58.5" y="-18.6291" font-family="Roboto" font-size="8.00" fill="#000000">SVGPlot</text>
<text text-anchor="start" x="87.5" y="-18.6291" font-family="Roboto" font-size="8.00" fill="#000000"> </text>
</a>
</g>
</a>
</g>
</g>
<!-- c10601773&#45;&gt;c10601778 -->
<g id="edge3" class="edge">
<title>c10601773&#45;&gt;c10601778</title>
<path fill="none" stroke="#000000" d="M106.3845,-22.2064C124.2579,-23.3549 146.0999,-24.7584 163.8611,-25.8997"/>
<polygon fill="#000000" stroke="#000000" points="106.1615,-22.1921 99.9174,-25.7991 94.1862,-21.4226 100.4304,-17.8156 106.1615,-22.1921"/>
</g>
<!-- c10601780 -->
<g id="node4" class="node">
<title>c10601780</title>
<g id="a_node4"><a xlink:href="UpdateSynchronizer.html" xlink:title="&lt;TABLE&gt;">
<g id="a_node4_3"><a xlink:href="UpdateSynchronizer.html" xlink:title="de.lmu.ifi.dbs.elki.visualization.svg.UpdateSynchronizer" target="_parent">
<polygon fill="none" stroke="#000000" points="249,-29.0291 249,-57.0291 335,-57.0291 335,-29.0291 249,-29.0291"/>
<text text-anchor="start" x="270.5" y="-46.6291" font-family="Roboto" font-size="8.00" fill="#000000"> «interface» </text>
<text text-anchor="start" x="253" y="-36.6291" font-family="Roboto" font-size="8.00" fill="#000000"> </text>
<text text-anchor="start" x="256" y="-36.6291" font-family="Roboto" font-size="8.00" fill="#000000">UpdateSynchronizer</text>
<text text-anchor="start" x="328" y="-36.6291" font-family="Roboto" font-size="8.00" fill="#000000"> </text>
</a>
</g>
</a>
</g>
</g>
<!-- c10601773&#45;&gt;c10601780 -->
<g id="edge4" class="edge">
<title>c10601773&#45;&gt;c10601780</title>
<path fill="none" stroke="#000000" d="M105.9454,-10.3145C138.2572,-2.4933 188.2972,5.4686 230,-6.0291 242.6505,-9.5169 255.3227,-16.3396 265.8833,-23.1863"/>
<polygon fill="none" stroke="#000000" points="105.6958,-10.3788 100.885,-15.7506 94.0761,-13.3759 98.8869,-8.0041 105.6958,-10.3788"/>
<polygon fill="#000000" stroke="#000000" points="274.2107,-28.8706 263.4144,-26.9495 270.0811,-26.0517 265.9514,-23.2328 265.9514,-23.2328 265.9514,-23.2328 270.0811,-26.0517 268.4884,-19.5162 274.2107,-28.8706 274.2107,-28.8706"/>
<text text-anchor="middle" x="197" y="-8.4291" font-family="Roboto" font-size="7.00" fill="#000000">synchronizesWith</text>
</g>
<!-- c10601778&#45;&gt;c10601780 -->
<g id="edge5" class="edge">
<title>c10601778&#45;&gt;c10601780</title>
<path fill="none" stroke="#000000" d="M230.2264,-29.6801C236.2191,-30.4926 242.546,-31.4445 248.774,-32.4674"/>
</g>
<!-- c10601780&#45;&gt;c10601754 -->
<g id="edge1" class="edge">
<title>c10601780&#45;&gt;c10601754</title>
<path fill="none" stroke="#000000" stroke-dasharray="5,2" d="M238.8345,-45.6934C210.7457,-47.101 175.8502,-48.8498 145.2854,-50.3815"/>
<polygon fill="none" stroke="#000000" points="239.0421,-49.1875 248.8544,-45.1913 238.6917,-42.1963 239.0421,-49.1875"/>
</g>
<!-- c10601780&#45;&gt;c10601778 -->
<g id="edge6" class="edge">
<title>c10601780&#45;&gt;c10601778</title>
<path fill="none" stroke="#000000" d="M236.9371,-38.7838C232.7433,-38.0646 228.6303,-37.3102 224.7333,-36.5421"/>
<polygon fill="none" stroke="#000000" points="237.0096,-38.7954 243.5684,-35.7985 248.8574,-40.7002 242.2986,-43.6971 237.0096,-38.7954"/>
</g>
</g>
</svg>
