<?xml version="1.0" encoding="UTF-8" standalone="no"?>
<!DOCTYPE svg PUBLIC "-//W3C//DTD SVG 1.1//EN"
 "http://www.w3.org/Graphics/SVG/1.1/DTD/svg11.dtd">
<!-- Generated by graphviz version 2.40.1 (20161225.0304)
 -->
<!-- Title: G Pages: 1 -->
<svg width="487pt" height="203pt"
 viewBox="0.00 0.00 487.00 203.00" xmlns="http://www.w3.org/2000/svg" xmlns:xlink="http://www.w3.org/1999/xlink">
<g id="graph0" class="graph" transform="scale(1 1) rotate(0) translate(4 199)">
<title>G</title>
<polygon fill="#ffffff" stroke="transparent" points="-4,4 -4,-199 483,-199 483,4 -4,4"/>
<!-- c6951332 -->
<g id="node1" class="node">
<title>c6951332</title>
<g id="a_node1"><a xlink:href="../../../RangeIndex.html" xlink:title="&lt;TABLE&gt;">
<g id="a_node1_0"><a xlink:href="../../../RangeIndex.html" xlink:title="de.lmu.ifi.dbs.elki.index.RangeIndex" target="_parent">
<polygon fill="#fffacd" stroke="transparent" points="25.5,-103 25.5,-142 116.5,-142 116.5,-103 25.5,-103"/>
<polygon fill="none" stroke="#000000" points="26,-102.5 26,-141.5 117,-141.5 117,-102.5 26,-102.5"/>
<text text-anchor="start" x="50" y="-131.1" font-family="Roboto" font-size="8.00" fill="#000000"> «interface» </text>
<text text-anchor="start" x="47.5" y="-121.1" font-family="Roboto" font-size="8.00" fill="#000000"> </text>
<text text-anchor="start" x="50.5" y="-121.1" font-family="Roboto" font-size="8.00" fill="#000000">RangeIndex</text>
<text text-anchor="start" x="92.5" y="-121.1" font-family="Roboto" font-size="8.00" fill="#000000"> </text>
<text text-anchor="start" x="30" y="-110.1" font-family="Roboto" font-size="8.00" fill="#000000"> </text>
<text text-anchor="start" x="33" y="-110.1" font-family="Roboto" font-size="7.00" fill="#000000">de.lmu.ifi.dbs.elki.index</text>
<text text-anchor="start" x="110" y="-110.1" font-family="Roboto" font-size="8.00" fill="#000000"> </text>
</a>
</g>
</a>
</g>
</g>
<!-- c6952858 -->
<g id="node6" class="node">
<title>c6952858</title>
<g id="a_node6"><a xlink:href="MinimalisticMemoryKDTree.html" xlink:title="&lt;TABLE&gt;">
<g id="a_node6_1"><a xlink:href="MinimalisticMemoryKDTree.html" xlink:title="de.lmu.ifi.dbs.elki.index.tree.spatial.kd.MinimalisticMemoryKDTree" target="_parent">
<polygon fill="#fffacd" stroke="transparent" points="160,-64 160,-81 274,-81 274,-64 160,-64"/>
<polygon fill="none" stroke="#000000" points="160,-63.5 160,-80.5 274,-80.5 274,-63.5 160,-63.5"/>
<text text-anchor="start" x="164" y="-71.1" font-family="Roboto" font-size="8.00" fill="#000000"> </text>
<text text-anchor="start" x="167" y="-71.1" font-family="Roboto" font-size="8.00" fill="#000000">MinimalisticMemoryKDTree</text>
<text text-anchor="start" x="267" y="-71.1" font-family="Roboto" font-size="8.00" fill="#000000"> </text>
</a>
</g>
</a>
</g>
</g>
<!-- c6951332&#45;&gt;c6952858 -->
<g id="edge3" class="edge">
<title>c6951332&#45;&gt;c6952858</title>
<path fill="none" stroke="#000000" stroke-dasharray="5,2" d="M126.3437,-103.5467C149.0353,-95.7756 174.1482,-87.1753 192.1775,-81.0008"/>
<polygon fill="none" stroke="#000000" points="125.1213,-100.2657 116.7947,-106.8169 127.3893,-106.8881 125.1213,-100.2657"/>
</g>
<!-- c6951336 -->
<g id="node2" class="node">
<title>c6951336</title>
<g id="a_node2"><a xlink:href="../../../KNNIndex.html" xlink:title="&lt;TABLE&gt;">
<g id="a_node2_2"><a xlink:href="../../../KNNIndex.html" xlink:title="de.lmu.ifi.dbs.elki.index.KNNIndex" target="_parent">
<polygon fill="#fffacd" stroke="transparent" points="25.5,-53 25.5,-92 116.5,-92 116.5,-53 25.5,-53"/>
<polygon fill="none" stroke="#000000" points="26,-52.5 26,-91.5 117,-91.5 117,-52.5 26,-52.5"/>
<text text-anchor="start" x="50" y="-81.1" font-family="Roboto" font-size="8.00" fill="#000000"> «interface» </text>
<text text-anchor="start" x="50" y="-71.1" font-family="Roboto" font-size="8.00" fill="#000000"> </text>
<text text-anchor="start" x="53" y="-71.1" font-family="Roboto" font-size="8.00" fill="#000000">KNNIndex</text>
<text text-anchor="start" x="90" y="-71.1" font-family="Roboto" font-size="8.00" fill="#000000"> </text>
<text text-anchor="start" x="30" y="-60.1" font-family="Roboto" font-size="8.00" fill="#000000"> </text>
<text text-anchor="start" x="33" y="-60.1" font-family="Roboto" font-size="7.00" fill="#000000">de.lmu.ifi.dbs.elki.index</text>
<text text-anchor="start" x="110" y="-60.1" font-family="Roboto" font-size="8.00" fill="#000000"> </text>
</a>
</g>
</a>
</g>
</g>
<!-- c6951336&#45;&gt;c6952858 -->
<g id="edge2" class="edge">
<title>c6951336&#45;&gt;c6952858</title>
<path fill="none" stroke="#000000" stroke-dasharray="5,2" d="M126.9255,-72.5C137.6943,-72.5 148.9883,-72.5 159.7969,-72.5"/>
<polygon fill="none" stroke="#000000" points="126.7948,-69.0001 116.7947,-72.5 126.7947,-76.0001 126.7948,-69.0001"/>
</g>
<!-- c6951400 -->
<g id="node3" class="node">
<title>c6951400</title>
<g id="a_node3"><a xlink:href="../../../../data/NumberVector.html" xlink:title="&lt;TABLE&gt;">
<g id="a_node3_3"><a xlink:href="../../../../data/NumberVector.html" xlink:title="de.lmu.ifi.dbs.elki.data.NumberVector" target="_parent">
<polygon fill="#fffacd" stroke="transparent" points="342,-156 342,-195 429,-195 429,-156 342,-156"/>
<polygon fill="none" stroke="#000000" points="342.5,-155.5 342.5,-194.5 429.5,-194.5 429.5,-155.5 342.5,-155.5"/>
<text text-anchor="start" x="364.5" y="-184.1" font-family="Roboto" font-size="8.00" fill="#000000"> «interface» </text>
<text text-anchor="start" x="357.5" y="-174.1" font-family="Roboto" font-size="8.00" fill="#000000"> </text>
<text text-anchor="start" x="360.5" y="-174.1" font-family="Roboto" font-size="8.00" fill="#000000">NumberVector</text>
<text text-anchor="start" x="411.5" y="-174.1" font-family="Roboto" font-size="8.00" fill="#000000"> </text>
<text text-anchor="start" x="346.5" y="-163.1" font-family="Roboto" font-size="8.00" fill="#000000"> </text>
<text text-anchor="start" x="349.5" y="-163.1" font-family="Roboto" font-size="7.00" fill="#000000">de.lmu.ifi.dbs.elki.data</text>
<text text-anchor="start" x="422.5" y="-163.1" font-family="Roboto" font-size="8.00" fill="#000000"> </text>
</a>
</g>
</a>
</g>
</g>
<!-- c6951547 -->
<g id="node4" class="node">
<title>c6951547</title>
<g id="a_node4"><a xlink:href="../../../../database/ids/ArrayModifiableDBIDs.html" xlink:title="&lt;TABLE&gt;">
<g id="a_node4_4"><a xlink:href="../../../../database/ids/ArrayModifiableDBIDs.html" xlink:title="de.lmu.ifi.dbs.elki.database.ids.ArrayModifiableDBIDs" target="_parent">
<polygon fill="none" stroke="#000000" points="329.5,-105.5 329.5,-144.5 442.5,-144.5 442.5,-105.5 329.5,-105.5"/>
<text text-anchor="start" x="364.5" y="-134.1" font-family="Roboto" font-size="8.00" fill="#000000"> «interface» </text>
<text text-anchor="start" x="342.5" y="-124.1" font-family="Roboto" font-size="8.00" fill="#000000"> </text>
<text text-anchor="start" x="345.5" y="-124.1" font-family="Roboto" font-size="8.00" fill="#000000">ArrayModifiableDBIDs</text>
<text text-anchor="start" x="426.5" y="-124.1" font-family="Roboto" font-size="8.00" fill="#000000"> </text>
<text text-anchor="start" x="333.5" y="-113.1" font-family="Roboto" font-size="8.00" fill="#000000"> </text>
<text text-anchor="start" x="336.5" y="-113.1" font-family="Roboto" font-size="7.00" fill="#000000">de.lmu.ifi.dbs.elki.database.ids</text>
<text text-anchor="start" x="435.5" y="-113.1" font-family="Roboto" font-size="8.00" fill="#000000"> </text>
</a>
</g>
</a>
</g>
</g>
<!-- c6952552 -->
<g id="node5" class="node">
<title>c6952552</title>
<g id="a_node5"><a xlink:href="../../../AbstractIndex.html" xlink:title="&lt;TABLE&gt;">
<g id="a_node5_5"><a xlink:href="../../../AbstractIndex.html" xlink:title="de.lmu.ifi.dbs.elki.index.AbstractIndex" target="_parent">
<polygon fill="none" stroke="#000000" points="26,-13.5 26,-41.5 117,-41.5 117,-13.5 26,-13.5"/>
<text text-anchor="start" x="44" y="-32.1" font-family="Roboto" font-size="8.00" fill="#000000"> </text>
<text text-anchor="start" x="47" y="-32.1" font-family="Roboto" font-style="italic" font-size="8.00" fill="#000000">AbstractIndex</text>
<text text-anchor="start" x="96" y="-32.1" font-family="Roboto" font-size="8.00" fill="#000000"> </text>
<text text-anchor="start" x="30" y="-21.1" font-family="Roboto" font-size="8.00" fill="#000000"> </text>
<text text-anchor="start" x="33" y="-21.1" font-family="Roboto" font-size="7.00" fill="#000000">de.lmu.ifi.dbs.elki.index</text>
<text text-anchor="start" x="110" y="-21.1" font-family="Roboto" font-size="8.00" fill="#000000"> </text>
</a>
</g>
</a>
</g>
</g>
<!-- c6952552&#45;&gt;c6952858 -->
<g id="edge1" class="edge">
<title>c6952552&#45;&gt;c6952858</title>
<path fill="none" stroke="#000000" d="M126.1639,-42.7633C131.5253,-44.3296 136.8741,-45.9247 142,-47.5 158.9243,-52.7012 177.8361,-59.0086 192.4351,-63.9867"/>
<polygon fill="none" stroke="#000000" points="127.1234,-39.3975 116.5449,-39.9858 125.1814,-46.1227 127.1234,-39.3975"/>
</g>
<!-- c6952858&#45;&gt;c6951400 -->
<g id="edge9" class="edge">
<title>c6952858&#45;&gt;c6951400</title>
<path fill="none" stroke="#000000" stroke-dasharray="5,2" d="M227.7549,-81.0548C239.7429,-90.8648 259.3649,-107.7594 274,-124.5 283.2504,-135.0812 280.5065,-142.4111 292,-150.5 303.7206,-158.7488 318.0109,-164.2761 331.8572,-167.9798"/>
<polygon fill="#000000" stroke="#000000" points="341.8179,-170.3672 331.0444,-172.4124 336.9556,-169.2018 332.0933,-168.0363 332.0933,-168.0363 332.0933,-168.0363 336.9556,-169.2018 333.1422,-163.6603 341.8179,-170.3672 341.8179,-170.3672"/>
</g>
<!-- c6952858&#45;&gt;c6951547 -->
<g id="edge7" class="edge">
<title>c6952858&#45;&gt;c6951547</title>
<path fill="none" stroke="#000000" d="M238.1463,-81.0149C253.0679,-86.8702 273.5976,-94.6196 292,-100.5 300.698,-103.2794 309.9166,-106.0053 319.0428,-108.5753"/>
<polygon fill="#000000" stroke="#000000" points="328.8803,-111.2979 318.0423,-112.9675 324.0615,-109.9642 319.2426,-108.6305 319.2426,-108.6305 319.2426,-108.6305 324.0615,-109.9642 320.4429,-104.2935 328.8803,-111.2979 328.8803,-111.2979"/>
</g>
<!-- c6952860 -->
<g id="node7" class="node">
<title>c6952860</title>
<g id="a_node7"><a xlink:href="MinimalisticMemoryKDTree.KDTreeKNNQuery.html" xlink:title="&lt;TABLE&gt;">
<g id="a_node7_6"><a xlink:href="MinimalisticMemoryKDTree.KDTreeKNNQuery.html" xlink:title="de.lmu.ifi.dbs.elki.index.tree.spatial.kd.MinimalisticMemoryKDTree.KDTreeKNNQuery" target="_parent">
<polygon fill="none" stroke="#000000" points="294.5,-77.5 294.5,-94.5 476.5,-94.5 476.5,-77.5 294.5,-77.5"/>
<text text-anchor="start" x="298.5" y="-85.1" font-family="Roboto" font-size="8.00" fill="#000000"> </text>
<text text-anchor="start" x="301.5" y="-85.1" font-family="Roboto" font-size="8.00" fill="#000000">MinimalisticMemoryKDTree.KDTreeKNNQuery</text>
<text text-anchor="start" x="469.5" y="-85.1" font-family="Roboto" font-size="8.00" fill="#000000"> </text>
</a>
</g>
</a>
</g>
</g>
<!-- c6952858&#45;&gt;c6952860 -->
<g id="edge4" class="edge">
<title>c6952858&#45;&gt;c6952860</title>
<path fill="none" stroke="#000000" d="M286.3244,-78.2599C288.989,-78.4813 291.6742,-78.7044 294.3688,-78.9283"/>
<polygon fill="none" stroke="#000000" points="286.0052,-78.2335 279.6946,-81.7229 274.0464,-77.2398 280.357,-73.7503 286.0052,-78.2335"/>
</g>
<!-- c6952861 -->
<g id="node8" class="node">
<title>c6952861</title>
<g id="a_node8"><a xlink:href="MinimalisticMemoryKDTree.KDTreeRangeQuery.html" xlink:title="&lt;TABLE&gt;">
<g id="a_node8_7"><a xlink:href="MinimalisticMemoryKDTree.KDTreeRangeQuery.html" xlink:title="de.lmu.ifi.dbs.elki.index.tree.spatial.kd.MinimalisticMemoryKDTree.KDTreeRangeQuery" target="_parent">
<polygon fill="none" stroke="#000000" points="292.5,-49.5 292.5,-66.5 479.5,-66.5 479.5,-49.5 292.5,-49.5"/>
<text text-anchor="start" x="296.5" y="-57.1" font-family="Roboto" font-size="8.00" fill="#000000"> </text>
<text text-anchor="start" x="299.5" y="-57.1" font-family="Roboto" font-size="8.00" fill="#000000">MinimalisticMemoryKDTree.KDTreeRangeQuery</text>
<text text-anchor="start" x="472.5" y="-57.1" font-family="Roboto" font-size="8.00" fill="#000000"> </text>
</a>
</g>
</a>
</g>
</g>
<!-- c6952858&#45;&gt;c6952861 -->
<g id="edge5" class="edge">
<title>c6952858&#45;&gt;c6952861</title>
<path fill="none" stroke="#000000" d="M286.0093,-66.7663C287.9869,-66.602 289.976,-66.4367 291.9722,-66.2709"/>
<polygon fill="none" stroke="#000000" points="286.0052,-66.7665 280.357,-71.2497 274.0464,-67.7602 279.6946,-63.2771 286.0052,-66.7665"/>
</g>
<!-- c6953095 -->
<g id="node10" class="node">
<title>c6953095</title>
<g id="a_node10"><a xlink:href="../../../../logging/statistics/Counter.html" xlink:title="&lt;TABLE&gt;">
<g id="a_node10_8"><a xlink:href="../../../../logging/statistics/Counter.html" xlink:title="de.lmu.ifi.dbs.elki.logging.statistics.Counter" target="_parent">
<polygon fill="none" stroke="#000000" points="321.5,.5 321.5,-38.5 450.5,-38.5 450.5,.5 321.5,.5"/>
<text text-anchor="start" x="364.5" y="-28.1" font-family="Roboto" font-size="8.00" fill="#000000"> «interface» </text>
<text text-anchor="start" x="369" y="-18.1" font-family="Roboto" font-size="8.00" fill="#000000"> </text>
<text text-anchor="start" x="372" y="-18.1" font-family="Roboto" font-size="8.00" fill="#000000">Counter</text>
<text text-anchor="start" x="400" y="-18.1" font-family="Roboto" font-size="8.00" fill="#000000"> </text>
<text text-anchor="start" x="325.5" y="-7.1" font-family="Roboto" font-size="8.00" fill="#000000"> </text>
<text text-anchor="start" x="328.5" y="-7.1" font-family="Roboto" font-size="7.00" fill="#000000">de.lmu.ifi.dbs.elki.logging.statistics</text>
<text text-anchor="start" x="443.5" y="-7.1" font-family="Roboto" font-size="8.00" fill="#000000"> </text>
</a>
</g>
</a>
</g>
</g>
<!-- c6952858&#45;&gt;c6953095 -->
<g id="edge8" class="edge">
<title>c6952858&#45;&gt;c6953095</title>
<path fill="none" stroke="#000000" d="M238.1463,-63.9851C253.0679,-58.1298 273.5976,-50.3804 292,-44.5 298.0921,-42.5533 304.4396,-40.6328 310.8318,-38.7738"/>
<polygon fill="#000000" stroke="#000000" points="320.8833,-35.9081 312.5004,-42.9775 316.0749,-37.279 311.2665,-38.6499 311.2665,-38.6499 311.2665,-38.6499 316.0749,-37.279 310.0327,-34.3224 320.8833,-35.9081 320.8833,-35.9081"/>
</g>
<!-- c6952862 -->
<g id="node9" class="node">
<title>c6952862</title>
<g id="a_node9"><a xlink:href="MinimalisticMemoryKDTree.Factory.html" xlink:title="&lt;TABLE&gt;">
<g id="a_node9_9"><a xlink:href="MinimalisticMemoryKDTree.Factory.html" xlink:title="de.lmu.ifi.dbs.elki.index.tree.spatial.kd.MinimalisticMemoryKDTree.Factory" target="_parent">
<polygon fill="none" stroke="#000000" points="0,-153.5 0,-181.5 142,-181.5 142,-153.5 0,-153.5"/>
<text text-anchor="start" x="52.5" y="-171.1" font-family="Roboto" font-size="8.00" fill="#000000"> «factory» </text>
<text text-anchor="start" x="4" y="-161.1" font-family="Roboto" font-size="8.00" fill="#000000"> </text>
<text text-anchor="start" x="7" y="-161.1" font-family="Roboto" font-size="8.00" fill="#000000">MinimalisticMemoryKDTree.Factory</text>
<text text-anchor="start" x="135" y="-161.1" font-family="Roboto" font-size="8.00" fill="#000000"> </text>
</a>
</g>
</a>
</g>
</g>
<!-- c6952862&#45;&gt;c6951400 -->
<g id="edge10" class="edge">
<title>c6952862&#45;&gt;c6951400</title>
<path fill="none" stroke="#000000" stroke-dasharray="5,2" d="M142.3649,-169.3153C199.7927,-170.7761 279.2655,-172.7977 331.4994,-174.1264"/>
<polygon fill="#000000" stroke="#000000" points="341.5684,-174.3825 331.4572,-178.6267 336.5701,-174.2553 331.5717,-174.1281 331.5717,-174.1281 331.5717,-174.1281 336.5701,-174.2553 331.6861,-169.6296 341.5684,-174.3825 341.5684,-174.3825"/>
</g>
<!-- c6952862&#45;&gt;c6952858 -->
<g id="edge6" class="edge">
<title>c6952862&#45;&gt;c6952858</title>
<path fill="none" stroke="#000000" d="M141.6902,-147.7066C141.7937,-147.6379 141.897,-147.5691 142,-147.5 152.7813,-140.271 151.1744,-134.0185 160,-124.5 175.1184,-108.1946 194.597,-91.1708 206.4243,-81.2162"/>
<polygon fill="none" stroke="#000000" points="141.9523,-147.5594 138.6776,-153.9841 131.4876,-153.4323 134.7623,-147.0077 141.9523,-147.5594"/>
</g>
</g>
</svg>
