<?xml version="1.0" encoding="UTF-8" standalone="no"?>
<!DOCTYPE svg PUBLIC "-//W3C//DTD SVG 1.1//EN"
 "http://www.w3.org/Graphics/SVG/1.1/DTD/svg11.dtd">
<!-- Generated by graphviz version 2.40.1 (20161225.0304)
 -->
<!-- Title: G Pages: 1 -->
<svg width="534pt" height="73pt"
 viewBox="0.00 0.00 534.00 72.50" xmlns="http://www.w3.org/2000/svg" xmlns:xlink="http://www.w3.org/1999/xlink">
<g id="graph0" class="graph" transform="scale(1 1) rotate(0) translate(4 68.5)">
<title>G</title>
<polygon fill="#ffffff" stroke="transparent" points="-4,4 -4,-68.5 530,-68.5 530,4 -4,4"/>
<!-- c5553251 -->
<g id="node1" class="node">
<title>c5553251</title>
<g id="a_node1"><a xlink:href="JSVGUpdateSynchronizer.html" xlink:title="&lt;TABLE&gt;">
<g id="a_node1_0"><a xlink:href="JSVGUpdateSynchronizer.html" xlink:title="de.lmu.ifi.dbs.elki.visualization.batikutil.JSVGUpdateSynchronizer" target="_parent">
<polygon fill="#fffacd" stroke="transparent" points="126,-11 126,-28 232,-28 232,-11 126,-11"/>
<polygon fill="none" stroke="#000000" points="126,-10.5 126,-27.5 232,-27.5 232,-10.5 126,-10.5"/>
<text text-anchor="start" x="130" y="-18.1" font-family="Roboto" font-size="8.00" fill="#000000"> </text>
<text text-anchor="start" x="133" y="-18.1" font-family="Roboto" font-size="8.00" fill="#000000">JSVGUpdateSynchronizer</text>
<text text-anchor="start" x="225" y="-18.1" font-family="Roboto" font-size="8.00" fill="#000000"> </text>
</a>
</g>
</a>
</g>
</g>
<!-- c5553275 -->
<g id="node3" class="node">
<title>c5553275</title>
<g id="a_node3"><a xlink:href="../svg/UpdateRunner.html" xlink:title="&lt;TABLE&gt;">
<g id="a_node3_1"><a xlink:href="../svg/UpdateRunner.html" xlink:title="de.lmu.ifi.dbs.elki.visualization.svg.UpdateRunner" target="_parent">
<polygon fill="none" stroke="#000000" points="250.5,-36.5 250.5,-64.5 379.5,-64.5 379.5,-36.5 250.5,-36.5"/>
<text text-anchor="start" x="286" y="-55.1" font-family="Roboto" font-size="8.00" fill="#000000"> </text>
<text text-anchor="start" x="289" y="-55.1" font-family="Roboto" font-size="8.00" fill="#000000">UpdateRunner</text>
<text text-anchor="start" x="341" y="-55.1" font-family="Roboto" font-size="8.00" fill="#000000"> </text>
<text text-anchor="start" x="254.5" y="-44.1" font-family="Roboto" font-size="8.00" fill="#000000"> </text>
<text text-anchor="start" x="257.5" y="-44.1" font-family="Roboto" font-size="7.00" fill="#000000">de.lmu.ifi.dbs.elki.visualization.svg</text>
<text text-anchor="start" x="372.5" y="-44.1" font-family="Roboto" font-size="8.00" fill="#000000"> </text>
</a>
</g>
</a>
</g>
</g>
<!-- c5553251&#45;&gt;c5553275 -->
<g id="edge2" class="edge">
<title>c5553251&#45;&gt;c5553275</title>
<path fill="none" stroke="#000000" d="M216.3847,-28.0529C227.8215,-30.6695 240.7139,-33.619 253.3018,-36.4989"/>
</g>
<!-- c5553261 -->
<g id="node2" class="node">
<title>c5553261</title>
<g id="a_node2"><a xlink:href="JSVGSynchronizedCanvas.html" xlink:title="&lt;TABLE&gt;">
<g id="a_node2_2"><a xlink:href="JSVGSynchronizedCanvas.html" xlink:title="de.lmu.ifi.dbs.elki.visualization.batikutil.JSVGSynchronizedCanvas" target="_parent">
<polygon fill="none" stroke="#000000" points="0,-10.5 0,-27.5 108,-27.5 108,-10.5 0,-10.5"/>
<text text-anchor="start" x="4" y="-18.1" font-family="Roboto" font-size="8.00" fill="#000000"> </text>
<text text-anchor="start" x="7" y="-18.1" font-family="Roboto" font-size="8.00" fill="#000000">JSVGSynchronizedCanvas</text>
<text text-anchor="start" x="101" y="-18.1" font-family="Roboto" font-size="8.00" fill="#000000"> </text>
</a>
</g>
</a>
</g>
</g>
<!-- c5553261&#45;&gt;c5553251 -->
<g id="edge3" class="edge">
<title>c5553261&#45;&gt;c5553251</title>
<path fill="none" stroke="#000000" d="M120.1485,-19.5C121.975,-19.5 123.7973,-19.5 125.6092,-19.5"/>
<polygon fill="#000000" stroke="#000000" points="120.0998,-19.5001 114.0998,-23.5 108.0998,-19.5 114.0998,-15.5 120.0998,-19.5001"/>
</g>
<!-- c5553277 -->
<g id="node4" class="node">
<title>c5553277</title>
<g id="a_node4"><a xlink:href="../svg/UpdateSynchronizer.html" xlink:title="&lt;TABLE&gt;">
<g id="a_node4_3"><a xlink:href="../svg/UpdateSynchronizer.html" xlink:title="de.lmu.ifi.dbs.elki.visualization.svg.UpdateSynchronizer" target="_parent">
<polygon fill="none" stroke="#000000" points="397.5,.5 397.5,-38.5 526.5,-38.5 526.5,.5 397.5,.5"/>
<text text-anchor="start" x="440.5" y="-28.1" font-family="Roboto" font-size="8.00" fill="#000000"> «interface» </text>
<text text-anchor="start" x="423" y="-18.1" font-family="Roboto" font-size="8.00" fill="#000000"> </text>
<text text-anchor="start" x="426" y="-18.1" font-family="Roboto" font-size="8.00" fill="#000000">UpdateSynchronizer</text>
<text text-anchor="start" x="498" y="-18.1" font-family="Roboto" font-size="8.00" fill="#000000"> </text>
<text text-anchor="start" x="401.5" y="-7.1" font-family="Roboto" font-size="8.00" fill="#000000"> </text>
<text text-anchor="start" x="404.5" y="-7.1" font-family="Roboto" font-size="7.00" fill="#000000">de.lmu.ifi.dbs.elki.visualization.svg</text>
<text text-anchor="start" x="519.5" y="-7.1" font-family="Roboto" font-size="8.00" fill="#000000"> </text>
</a>
</g>
</a>
</g>
</g>
<!-- c5553275&#45;&gt;c5553277 -->
<g id="edge4" class="edge">
<title>c5553275&#45;&gt;c5553277</title>
<path fill="none" stroke="#000000" d="M364.2675,-36.4343C374.7624,-34.057 385.9804,-31.6397 396.9301,-29.3915"/>
</g>
<!-- c5553277&#45;&gt;c5553251 -->
<g id="edge1" class="edge">
<title>c5553277&#45;&gt;c5553251</title>
<path fill="none" stroke="#000000" stroke-dasharray="5,2" d="M386.7887,-19.5C338.1165,-19.5 275.7821,-19.5 232.1361,-19.5"/>
<polygon fill="none" stroke="#000000" points="386.9558,-23.0001 396.9558,-19.5 386.9558,-16.0001 386.9558,-23.0001"/>
</g>
<!-- c5553277&#45;&gt;c5553275 -->
<g id="edge5" class="edge">
<title>c5553277&#45;&gt;c5553275</title>
<path fill="none" stroke="#000000" d="M384.7562,-40.1802C382.9683,-40.5529 381.1828,-40.9216 379.4042,-41.2852"/>
<polygon fill="none" stroke="#000000" points="384.8119,-40.1684 389.8476,-35.0068 396.5489,-37.67 391.5132,-42.8315 384.8119,-40.1684"/>
</g>
</g>
</svg>
