<?xml version="1.0" encoding="UTF-8" standalone="no"?>
<!DOCTYPE svg PUBLIC "-//W3C//DTD SVG 1.1//EN"
 "http://www.w3.org/Graphics/SVG/1.1/DTD/svg11.dtd">
<!-- Generated by graphviz version 2.40.1 (20161225.0304)
 -->
<!-- Title: G Pages: 1 -->
<svg width="205pt" height="25pt"
 viewBox="0.00 0.00 205.00 25.00" xmlns="http://www.w3.org/2000/svg" xmlns:xlink="http://www.w3.org/1999/xlink">
<g id="graph0" class="graph" transform="scale(1 1) rotate(0) translate(4 21)">
<title>G</title>
<polygon fill="#ffffff" stroke="transparent" points="-4,4 -4,-21 201,-21 201,4 -4,4"/>
<!-- c10211687 -->
<g id="node1" class="node">
<title>c10211687</title>
<g id="a_node1"><a xlink:href="ThumbnailRegistryEntry.html" xlink:title="&lt;TABLE&gt;">
<g id="a_node1_0"><a xlink:href="ThumbnailRegistryEntry.html" xlink:title="de.lmu.ifi.dbs.elki.visualization.batikutil.ThumbnailRegistryEntry" target="_parent">
<polygon fill="#fffacd" stroke="transparent" points="97,0 97,-17 197,-17 197,0 97,0"/>
<polygon fill="none" stroke="#000000" points="97,.5 97,-16.5 197,-16.5 197,.5 97,.5"/>
<text text-anchor="start" x="101" y="-7.1" font-family="Roboto" font-size="8.00" fill="#000000"> </text>
<text text-anchor="start" x="104" y="-7.1" font-family="Roboto" font-size="8.00" fill="#000000">ThumbnailRegistryEntry</text>
<text text-anchor="start" x="190" y="-7.1" font-family="Roboto" font-size="8.00" fill="#000000"> </text>
</a>
</g>
</a>
</g>
</g>
<!-- c10211689 -->
<g id="node2" class="node">
<title>c10211689</title>
<g id="a_node2"><a xlink:href="CloneInlineImages.html" xlink:title="&lt;TABLE&gt;">
<g id="a_node2_1"><a xlink:href="CloneInlineImages.html" xlink:title="de.lmu.ifi.dbs.elki.visualization.batikutil.CloneInlineImages" target="_parent">
<polygon fill="none" stroke="#000000" points=".5,.5 .5,-16.5 79.5,-16.5 79.5,.5 .5,.5"/>
<text text-anchor="start" x="4.5" y="-7.1" font-family="Roboto" font-size="8.00" fill="#000000"> </text>
<text text-anchor="start" x="7.5" y="-7.1" font-family="Roboto" font-size="8.00" fill="#000000">CloneInlineImages</text>
<text text-anchor="start" x="72.5" y="-7.1" font-family="Roboto" font-size="8.00" fill="#000000"> </text>
</a>
</g>
</a>
</g>
</g>
<!-- c10211689&#45;&gt;c10211687 -->
<g id="edge1" class="edge">
<title>c10211689&#45;&gt;c10211687</title>
<path fill="none" stroke="#000000" d="M91.298,-8.5C93.1484,-8.5 95.0019,-8.5 96.8497,-8.5"/>
<polygon fill="none" stroke="#000000" points="91.2236,-8.5001 85.2236,-12.5 79.2236,-8.5 85.2236,-4.5 91.2236,-8.5001"/>
</g>
</g>
</svg>
