<?xml version="1.0" encoding="UTF-8" standalone="no"?>
<!DOCTYPE svg PUBLIC "-//W3C//DTD SVG 1.1//EN"
 "http://www.w3.org/Graphics/SVG/1.1/DTD/svg11.dtd">
<!-- Generated by graphviz version 2.40.1 (20161225.0304)
 -->
<!-- Title: G Pages: 1 -->
<svg width="588pt" height="161pt"
 viewBox="0.00 0.00 588.00 160.50" xmlns="http://www.w3.org/2000/svg" xmlns:xlink="http://www.w3.org/1999/xlink">
<g id="graph0" class="graph" transform="scale(1 1) rotate(0) translate(4 156.5)">
<title>G</title>
<polygon fill="#ffffff" stroke="transparent" points="-4,4 -4,-156.5 584,-156.5 584,4 -4,4"/>
<!-- c4287972 -->
<g id="node1" class="node">
<title>c4287972</title>
<g id="a_node1"><a xlink:href="../../../distance/distancefunction/PrimitiveDistanceFunction.html" xlink:title="&lt;TABLE&gt;">
<g id="a_node1_0"><a xlink:href="../../../distance/distancefunction/PrimitiveDistanceFunction.html" xlink:title="de.lmu.ifi.dbs.elki.distance.distancefunction.PrimitiveDistanceFunction" target="_parent">
<polygon fill="#fffacd" stroke="transparent" points="317,-113.5 317,-152.5 475,-152.5 475,-113.5 317,-113.5"/>
<polygon fill="none" stroke="#000000" points="317,-113 317,-152 475,-152 475,-113 317,-113"/>
<text text-anchor="start" x="374.5" y="-141.6" font-family="Roboto" font-size="8.00" fill="#000000"> «interface» </text>
<text text-anchor="start" x="347" y="-131.6" font-family="Roboto" font-size="8.00" fill="#000000"> </text>
<text text-anchor="start" x="350" y="-131.6" font-family="Roboto" font-size="8.00" fill="#000000">PrimitiveDistanceFunction</text>
<text text-anchor="start" x="442" y="-131.6" font-family="Roboto" font-size="8.00" fill="#000000"> </text>
<text text-anchor="start" x="321" y="-120.6" font-family="Roboto" font-size="8.00" fill="#000000"> </text>
<text text-anchor="start" x="324" y="-120.6" font-family="Roboto" font-size="7.00" fill="#000000">de.lmu.ifi.dbs.elki.distance.distancefunction</text>
<text text-anchor="start" x="468" y="-120.6" font-family="Roboto" font-size="8.00" fill="#000000"> </text>
</a>
</g>
</a>
</g>
</g>
<!-- c4288033 -->
<g id="node2" class="node">
<title>c4288033</title>
<g id="a_node2"><a xlink:href="../../../data/NumberVector.html" xlink:title="&lt;TABLE&gt;">
<g id="a_node2_1"><a xlink:href="../../../data/NumberVector.html" xlink:title="de.lmu.ifi.dbs.elki.data.NumberVector" target="_parent">
<polygon fill="#fffacd" stroke="transparent" points="493,-39.5 493,-78.5 580,-78.5 580,-39.5 493,-39.5"/>
<polygon fill="none" stroke="#000000" points="493.5,-39 493.5,-78 580.5,-78 580.5,-39 493.5,-39"/>
<text text-anchor="start" x="515.5" y="-67.6" font-family="Roboto" font-size="8.00" fill="#000000"> «interface» </text>
<text text-anchor="start" x="508.5" y="-57.6" font-family="Roboto" font-size="8.00" fill="#000000"> </text>
<text text-anchor="start" x="511.5" y="-57.6" font-family="Roboto" font-size="8.00" fill="#000000">NumberVector</text>
<text text-anchor="start" x="562.5" y="-57.6" font-family="Roboto" font-size="8.00" fill="#000000"> </text>
<text text-anchor="start" x="497.5" y="-46.6" font-family="Roboto" font-size="8.00" fill="#000000"> </text>
<text text-anchor="start" x="500.5" y="-46.6" font-family="Roboto" font-size="7.00" fill="#000000">de.lmu.ifi.dbs.elki.data</text>
<text text-anchor="start" x="573.5" y="-46.6" font-family="Roboto" font-size="8.00" fill="#000000"> </text>
</a>
</g>
</a>
</g>
</g>
<!-- c4288034 -->
<g id="node3" class="node">
<title>c4288034</title>
<g id="a_node3"><a xlink:href="../../../data/NumberVector.Factory.html" xlink:title="&lt;TABLE&gt;">
<g id="a_node3_2"><a xlink:href="../../../data/NumberVector.Factory.html" xlink:title="de.lmu.ifi.dbs.elki.data.NumberVector.Factory" target="_parent">
<polygon fill="none" stroke="#000000" points="350,-39 350,-78 442,-78 442,-39 350,-39"/>
<text text-anchor="start" x="374.5" y="-67.6" font-family="Roboto" font-size="8.00" fill="#000000"> «interface» </text>
<text text-anchor="start" x="354" y="-57.6" font-family="Roboto" font-size="8.00" fill="#000000"> </text>
<text text-anchor="start" x="357" y="-57.6" font-family="Roboto" font-size="8.00" fill="#000000">NumberVector.Factory</text>
<text text-anchor="start" x="435" y="-57.6" font-family="Roboto" font-size="8.00" fill="#000000"> </text>
<text text-anchor="start" x="356.5" y="-46.6" font-family="Roboto" font-size="8.00" fill="#000000"> </text>
<text text-anchor="start" x="359.5" y="-46.6" font-family="Roboto" font-size="7.00" fill="#000000">de.lmu.ifi.dbs.elki.data</text>
<text text-anchor="start" x="432.5" y="-46.6" font-family="Roboto" font-size="8.00" fill="#000000"> </text>
</a>
</g>
</a>
</g>
</g>
<!-- c4288034&#45;&gt;c4288033 -->
<g id="edge1" class="edge">
<title>c4288034&#45;&gt;c4288033</title>
<path fill="none" stroke="#000000" d="M454.1581,-59C467.0755,-59 480.5554,-59 492.7791,-59"/>
<polygon fill="none" stroke="#000000" points="454.005,-59.0001 448.0049,-63 442.005,-59 448.005,-55 454.005,-59.0001"/>
</g>
<!-- c4288042 -->
<g id="node4" class="node">
<title>c4288042</title>
<g id="a_node4"><a xlink:href="../ObjectFilter.html" xlink:title="&lt;TABLE&gt;">
<g id="a_node4_3"><a xlink:href="../ObjectFilter.html" xlink:title="de.lmu.ifi.dbs.elki.datasource.filter.ObjectFilter" target="_parent">
<polygon fill="#fffacd" stroke="transparent" points="0,-39.5 0,-78.5 126,-78.5 126,-39.5 0,-39.5"/>
<polygon fill="none" stroke="#000000" points="0,-39 0,-78 126,-78 126,-39 0,-39"/>
<text text-anchor="start" x="41.5" y="-67.6" font-family="Roboto" font-size="8.00" fill="#000000"> «interface» </text>
<text text-anchor="start" x="39.5" y="-57.6" font-family="Roboto" font-size="8.00" fill="#000000"> </text>
<text text-anchor="start" x="42.5" y="-57.6" font-family="Roboto" font-size="8.00" fill="#000000">ObjectFilter</text>
<text text-anchor="start" x="83.5" y="-57.6" font-family="Roboto" font-size="8.00" fill="#000000"> </text>
<text text-anchor="start" x="4" y="-46.6" font-family="Roboto" font-size="8.00" fill="#000000"> </text>
<text text-anchor="start" x="7" y="-46.6" font-family="Roboto" font-size="7.00" fill="#000000">de.lmu.ifi.dbs.elki.datasource.filter</text>
<text text-anchor="start" x="119" y="-46.6" font-family="Roboto" font-size="8.00" fill="#000000"> </text>
</a>
</g>
</a>
</g>
</g>
<!-- c4289548 -->
<g id="node6" class="node">
<title>c4289548</title>
<g id="a_node6"><a xlink:href="FastMultidimensionalScalingTransform.html" xlink:title="&lt;TABLE&gt;">
<g id="a_node6_4"><a xlink:href="FastMultidimensionalScalingTransform.html" xlink:title="de.lmu.ifi.dbs.elki.datasource.filter.transform.FastMultidimensionalScalingTransform" target="_parent">
<polygon fill="#fffacd" stroke="transparent" points="144,-50.5 144,-67.5 299,-67.5 299,-50.5 144,-50.5"/>
<polygon fill="none" stroke="#000000" points="144.5,-50 144.5,-67 299.5,-67 299.5,-50 144.5,-50"/>
<text text-anchor="start" x="148.5" y="-57.6" font-family="Roboto" font-size="8.00" fill="#000000"> </text>
<text text-anchor="start" x="151.5" y="-57.6" font-family="Roboto" font-size="8.00" fill="#000000">FastMultidimensionalScalingTransform</text>
<text text-anchor="start" x="292.5" y="-57.6" font-family="Roboto" font-size="8.00" fill="#000000"> </text>
</a>
</g>
</a>
</g>
</g>
<!-- c4288042&#45;&gt;c4289548 -->
<g id="edge2" class="edge">
<title>c4288042&#45;&gt;c4289548</title>
<path fill="none" stroke="#000000" stroke-dasharray="5,2" d="M136.3777,-59C138.8953,-59 141.4208,-59 143.9441,-59"/>
<polygon fill="none" stroke="#000000" points="136.0989,-55.5001 126.0988,-59 136.0988,-62.5001 136.0989,-55.5001"/>
</g>
<!-- c4288827 -->
<g id="node5" class="node">
<title>c4288827</title>
<g id="a_node5"><a xlink:href="../../../utilities/random/RandomFactory.html" xlink:title="&lt;TABLE&gt;">
<g id="a_node5_5"><a xlink:href="../../../utilities/random/RandomFactory.html" xlink:title="de.lmu.ifi.dbs.elki.utilities.random.RandomFactory" target="_parent">
<polygon fill="none" stroke="#000000" points="333,0 333,-28 459,-28 459,0 333,0"/>
<text text-anchor="start" x="365.5" y="-18.6" font-family="Roboto" font-size="8.00" fill="#000000"> </text>
<text text-anchor="start" x="368.5" y="-18.6" font-family="Roboto" font-size="8.00" fill="#000000">RandomFactory</text>
<text text-anchor="start" x="423.5" y="-18.6" font-family="Roboto" font-size="8.00" fill="#000000"> </text>
<text text-anchor="start" x="337" y="-7.6" font-family="Roboto" font-size="8.00" fill="#000000"> </text>
<text text-anchor="start" x="340" y="-7.6" font-family="Roboto" font-size="7.00" fill="#000000">de.lmu.ifi.dbs.elki.utilities.random</text>
<text text-anchor="start" x="452" y="-7.6" font-family="Roboto" font-size="8.00" fill="#000000"> </text>
</a>
</g>
</a>
</g>
</g>
<!-- c4289548&#45;&gt;c4287972 -->
<g id="edge3" class="edge">
<title>c4289548&#45;&gt;c4287972</title>
<path fill="none" stroke="#000000" d="M238.5462,-67.593C257.4919,-77.0113 289.0996,-92.3326 317,-104 321.6819,-105.9579 326.5476,-107.9183 331.4611,-109.8446"/>
<polygon fill="#000000" stroke="#000000" points="340.9332,-113.4972 329.9838,-114.0979 336.268,-111.6982 331.6029,-109.8992 331.6029,-109.8992 331.6029,-109.8992 336.268,-111.6982 333.222,-105.7006 340.9332,-113.4972 340.9332,-113.4972"/>
</g>
<!-- c4289548&#45;&gt;c4288033 -->
<g id="edge6" class="edge">
<title>c4289548&#45;&gt;c4288033</title>
<path fill="none" stroke="#000000" stroke-dasharray="5,2" d="M247.0876,-67.609C266.1192,-73.5409 292.8624,-80.893 317,-84 386.6476,-92.9651 406.0823,-97.4724 475,-84 478.2238,-83.3698 481.492,-82.5701 484.7547,-81.6464"/>
<polygon fill="#000000" stroke="#000000" points="494.477,-78.5489 486.3149,-85.8722 489.713,-80.0667 484.9489,-81.5846 484.9489,-81.5846 484.9489,-81.5846 489.713,-80.0667 483.5828,-77.2969 494.477,-78.5489 494.477,-78.5489"/>
</g>
<!-- c4289548&#45;&gt;c4288034 -->
<g id="edge5" class="edge">
<title>c4289548&#45;&gt;c4288034</title>
<path fill="none" stroke="#000000" d="M299.0545,-59C312.7011,-59 326.668,-59 339.5976,-59"/>
<polygon fill="#000000" stroke="#000000" points="349.7186,-59 339.7186,-63.5001 344.7186,-59 339.7186,-59.0001 339.7186,-59.0001 339.7186,-59.0001 344.7186,-59 339.7185,-54.5001 349.7186,-59 349.7186,-59"/>
</g>
<!-- c4289548&#45;&gt;c4288827 -->
<g id="edge4" class="edge">
<title>c4289548&#45;&gt;c4288827</title>
<path fill="none" stroke="#000000" d="M253.7527,-50.4876C272.2534,-45.6222 295.9215,-39.427 317,-34 321.3565,-32.8783 325.8496,-31.7268 330.3781,-30.57"/>
<polygon fill="#000000" stroke="#000000" points="340.309,-28.039 331.7302,-34.8693 335.4639,-29.2739 330.6188,-30.5087 330.6188,-30.5087 330.6188,-30.5087 335.4639,-29.2739 329.5074,-26.1481 340.309,-28.039 340.309,-28.039"/>
</g>
</g>
</svg>
