<?xml version="1.0" encoding="UTF-8" standalone="no"?><svg xmlns="http://www.w3.org/2000/svg" xmlns:xlink="http://www.w3.org/1999/xlink" contentStyleType="text/css" height="429px" preserveAspectRatio="none" style="width:660px;height:429px;background:#FFFFFF;" version="1.1" viewBox="0 0 660 429" width="660px" zoomAndPan="magnify"><defs/><g><!--MD5=[0028a7e8ef999812615f0c4e85dd5415]
class elki.visualization.gui.ResultWindow.DynamicMenu--><a href="ResultWindow.DynamicMenu.html" target="_top" title="ResultWindow.DynamicMenu.html" xlink:actuate="onRequest" xlink:href="ResultWindow.DynamicMenu.html" xlink:show="new" xlink:title="ResultWindow.DynamicMenu.html" xlink:type="simple"><g id="elem_elki.visualization.gui.ResultWindow.DynamicMenu"><rect codeLine="6" fill="#F1F1F1" height="298.3906" id="elki.visualization.gui.ResultWindow.DynamicMenu" rx="2.5" ry="2.5" style="stroke:#181818;stroke-width:0.5;" width="644" x="9" y="105"/><ellipse cx="226.75" cy="123.9688" fill="#ADD1B2" rx="11" ry="11" style="stroke:#181818;stroke-width:1.0;"/><path d="M229.7188,129.6094 Q229.1406,129.9063 228.5,130.0469 Q227.8594,130.2031 227.1563,130.2031 Q224.6563,130.2031 223.3281,128.5625 Q222.0156,126.9063 222.0156,123.7813 Q222.0156,120.6563 223.3281,119 Q224.6563,117.3438 227.1563,117.3438 Q227.8594,117.3438 228.5,117.5 Q229.1563,117.6563 229.7188,117.9531 L229.7188,120.6719 Q229.0938,120.0938 228.5,119.8281 Q227.9063,119.5469 227.2813,119.5469 Q225.9375,119.5469 225.25,120.625 Q224.5625,121.6875 224.5625,123.7813 Q224.5625,125.875 225.25,126.9531 Q225.9375,128.0156 227.2813,128.0156 Q227.9063,128.0156 228.5,127.75 Q229.0938,127.4688 229.7188,126.8906 L229.7188,129.6094 Z " fill="#000000"/><text fill="#000000" font-family="sans-serif" font-size="14" lengthAdjust="spacing" textLength="200" x="247.25" y="122.9951">ResultWindow.DynamicMenu</text><text fill="#000000" font-family="sans-serif" font-size="10" lengthAdjust="spacing" textLength="93" x="300.75" y="135.5791">elki.visualization.gui</text><line style="stroke:#181818;stroke-width:0.5;" x1="10" x2="652" y1="142.9375" y2="142.9375"/><rect fill="none" height="6" style="stroke:#C82930;stroke-width:1.0;" width="6" x="17" y="153.5859"/><text fill="#000000" font-family="sans-serif" font-size="14" lengthAdjust="spacing" textLength="136" x="29" y="159.9326">menubar: JMenuBar</text><rect fill="none" height="6" style="stroke:#C82930;stroke-width:1.0;" width="6" x="17" y="169.8828"/><text fill="#000000" font-family="sans-serif" font-size="14" lengthAdjust="spacing" textLength="110" x="29" y="176.2295">filemenu: JMenu</text><rect fill="none" height="6" style="stroke:#C82930;stroke-width:1.0;" width="6" x="17" y="186.1797"/><text fill="#000000" font-family="sans-serif" font-size="14" lengthAdjust="spacing" textLength="171" x="29" y="192.5264">overviewItem: JMenuItem</text><rect fill="none" height="6" style="stroke:#C82930;stroke-width:1.0;" width="6" x="17" y="202.4766"/><text fill="#000000" font-family="sans-serif" font-size="14" lengthAdjust="spacing" textLength="137" x="29" y="208.8232">quitItem: JMenuItem</text><rect fill="none" height="6" style="stroke:#C82930;stroke-width:1.0;" width="6" x="17" y="218.7734"/><text fill="#000000" font-family="sans-serif" font-size="14" lengthAdjust="spacing" textLength="155" x="29" y="225.1201">exportItem: JMenuItem</text><rect fill="none" height="6" style="stroke:#C82930;stroke-width:1.0;" width="6" x="17" y="235.0703"/><text fill="#000000" font-family="sans-serif" font-size="14" lengthAdjust="spacing" textLength="144" x="29" y="241.417">writeItem: JMenuItem</text><rect fill="none" height="6" style="stroke:#C82930;stroke-width:1.0;" width="6" x="17" y="251.3672"/><text fill="#000000" font-family="sans-serif" font-size="14" lengthAdjust="spacing" textLength="161" x="29" y="257.7139">visualizersMenu: JMenu</text><polygon fill="none" points="20,265.6641,24,269.6641,20,273.6641,16,269.6641" style="stroke:#B38D22;stroke-width:1.0;"/><text fill="#000000" font-family="sans-serif" font-size="14" lengthAdjust="spacing" textLength="115" x="29" y="274.0107">simplify: boolean</text><line style="stroke:#181818;stroke-width:0.5;" x1="10" x2="652" y1="281.3125" y2="281.3125"/><polygon fill="#FFFF44" points="20,289.9609,24,293.9609,20,297.9609,16,293.9609" style="stroke:#B38D22;stroke-width:1.0;"/><text fill="#000000" font-family="sans-serif" font-size="14" lengthAdjust="spacing" textLength="208" x="29" y="298.3076">updateVisualizerMenus(): void</text><rect fill="#F24D5C" height="6" style="stroke:#C82930;stroke-width:1.0;" width="6" x="17" y="308.2578"/><text fill="#000000" font-family="sans-serif" font-size="14" lengthAdjust="spacing" textLength="618" x="29" y="314.6045">recursiveBuildMenu(Collection&lt;JMenuItem&gt;, Object, Hierarchy&lt;Object&gt;, Projection): void</text><rect fill="#F24D5C" height="6" style="stroke:#C82930;stroke-width:1.0;" width="6" x="17" y="324.5547"/><text fill="#000000" font-family="sans-serif" font-size="14" lengthAdjust="spacing" textLength="330" x="29" y="330.9014">makeMenuItemForVisualizer(Object): JMenuItem</text><ellipse cx="20" cy="343.8516" fill="#84BE84" rx="3" ry="3" style="stroke:#038048;stroke-width:1.0;"/><text fill="#000000" font-family="sans-serif" font-size="14" lengthAdjust="spacing" textLength="169" x="29" y="347.1982">getMenuBar(): JMenuBar</text><ellipse cx="20" cy="360.1484" fill="#84BE84" rx="3" ry="3" style="stroke:#038048;stroke-width:1.0;"/><text fill="#000000" font-family="sans-serif" font-size="14" lengthAdjust="spacing" textLength="212" x="29" y="363.4951">enableOverview(boolean): void</text><ellipse cx="20" cy="376.4453" fill="#84BE84" rx="3" ry="3" style="stroke:#038048;stroke-width:1.0;"/><text fill="#000000" font-family="sans-serif" font-size="14" lengthAdjust="spacing" textLength="194" x="29" y="379.792">enableExport(boolean): void</text><ellipse cx="20" cy="392.7422" fill="#84BE84" rx="3" ry="3" style="stroke:#038048;stroke-width:1.0;"/><text fill="#000000" font-family="sans-serif" font-size="14" lengthAdjust="spacing" textLength="190" x="29" y="396.0889">enableWriter(boolean): void</text></g></a><!--MD5=[c9bcf8b636c71a7541d405c6ab6049d1]
class elki.visualization.gui.ResultWindow--><a href="ResultWindow.html" target="_top" title="ResultWindow.html" xlink:actuate="onRequest" xlink:href="ResultWindow.html" xlink:show="new" xlink:title="ResultWindow.html" xlink:type="simple"><g id="elem_elki.visualization.gui.ResultWindow"><rect codeLine="24" fill="#F1F1F1" height="37.9375" id="elki.visualization.gui.ResultWindow" rx="2.5" ry="2.5" style="stroke:#181818;stroke-width:0.5;" width="130" x="266" y="7"/><ellipse cx="281" cy="25.9688" fill="#ADD1B2" rx="11" ry="11" style="stroke:#181818;stroke-width:1.0;"/><path d="M283.9688,31.6094 Q283.3906,31.9063 282.75,32.0469 Q282.1094,32.2031 281.4063,32.2031 Q278.9063,32.2031 277.5781,30.5625 Q276.2656,28.9063 276.2656,25.7813 Q276.2656,22.6563 277.5781,21 Q278.9063,19.3438 281.4063,19.3438 Q282.1094,19.3438 282.75,19.5 Q283.4063,19.6563 283.9688,19.9531 L283.9688,22.6719 Q283.3438,22.0938 282.75,21.8281 Q282.1563,21.5469 281.5313,21.5469 Q280.1875,21.5469 279.5,22.625 Q278.8125,23.6875 278.8125,25.7813 Q278.8125,27.875 279.5,28.9531 Q280.1875,30.0156 281.5313,30.0156 Q282.1563,30.0156 282.75,29.75 Q283.3438,29.4688 283.9688,28.8906 L283.9688,31.6094 Z " fill="#000000"/><text fill="#000000" font-family="sans-serif" font-size="14" lengthAdjust="spacing" textLength="98" x="295" y="24.9951">ResultWindow</text><text fill="#000000" font-family="sans-serif" font-size="10" lengthAdjust="spacing" textLength="93" x="297.5" y="37.5791">elki.visualization.gui</text></g></a><!--MD5=[bfbd7f579bc5f199c17d782c2853f168]
reverse link elki.visualization.gui.ResultWindow to elki.visualization.gui.ResultWindow.DynamicMenu--><g id="link_elki.visualization.gui.ResultWindow_elki.visualization.gui.ResultWindow.DynamicMenu"><path codeLine="26" d="M331,60.53 C331,73.16 331,88.48 331,104.89 " fill="none" id="elki.visualization.gui.ResultWindow-backto-elki.visualization.gui.ResultWindow.DynamicMenu" style="stroke:#181818;stroke-width:1.0;"/><ellipse cx="331" cy="53.11" fill="#FFFFFF" rx="8" ry="8" style="stroke:#181818;stroke-width:1.0;"/><line style="stroke:#181818;stroke-width:1.0;" x1="331" x2="331" y1="61.11" y2="45.11"/><line style="stroke:#181818;stroke-width:1.0;" x1="323" x2="339" y1="53.11" y2="53.11"/></g><rect fill="none" height="11.6406" style="stroke:none;stroke-width:1.0;" width="186" x="230" y="409.3906"/><text fill="#888888" font-family="sans-serif" font-size="10" lengthAdjust="spacing" textLength="186" x="230" y="418.6729">UMLDoclet 2.0.19, PlantUML 1.2022.8</text><!--MD5=[6b3fccef20dcdbe806c30b922be1f20a]
@startuml
    remove .*\.(Instance|Par|Parameterizer|Factory)$
    set namespaceSeparator none
    hide empty fields
    hide empty methods

    class "<size:14>ResultWindow.DynamicMenu\n<size:10>elki.visualization.gui" as elki.visualization.gui.ResultWindow.DynamicMenu [[ResultWindow.DynamicMenu.html]] {
        -menubar: JMenuBar
        -filemenu: JMenu
        -overviewItem: JMenuItem
        -quitItem: JMenuItem
        -exportItem: JMenuItem
        -writeItem: JMenuItem
        -visualizersMenu: JMenu
        #simplify: boolean
        #updateVisualizerMenus(): void
        -recursiveBuildMenu(Collection<JMenuItem>, Object, Hierarchy<Object>, Projection): void
        -makeMenuItemForVisualizer(Object): JMenuItem
        +getMenuBar(): JMenuBar
        +enableOverview(boolean): void
        +enableExport(boolean): void
        +enableWriter(boolean): void
    }

    class "<size:14>ResultWindow\n<size:10>elki.visualization.gui" as elki.visualization.gui.ResultWindow [[ResultWindow.html]]

    elki.visualization.gui.ResultWindow +- - elki.visualization.gui.ResultWindow.DynamicMenu

    center footer UMLDoclet 2.0.19, PlantUML 1.2022.8
@enduml

PlantUML version 1.2022.8(Sun Sep 25 11:00:33 CEST 2022)
(APACHE source distribution)
Java Runtime: OpenJDK Runtime Environment
JVM: OpenJDK 64-Bit Server VM
Default Encoding: UTF-8
Language: de
Country: DE
--></g></svg>