<?xml version="1.0" encoding="UTF-8" standalone="no"?><svg xmlns="http://www.w3.org/2000/svg" xmlns:xlink="http://www.w3.org/1999/xlink" contentStyleType="text/css" height="266px" preserveAspectRatio="none" style="width:426px;height:266px;background:#FFFFFF;" version="1.1" viewBox="0 0 426 266" width="426px" zoomAndPan="magnify"><defs/><g><!--MD5=[070f154ff3a9daefbe9482d73f6d41e2]
class elki.visualization.gui.VisualizationPlot--><a href="VisualizationPlot.html" target="_top" title="VisualizationPlot.html" xlink:actuate="onRequest" xlink:href="VisualizationPlot.html" xlink:show="new" xlink:title="VisualizationPlot.html" xlink:type="simple"><g id="elem_elki.visualization.gui.VisualizationPlot"><rect codeLine="6" fill="#F1F1F1" height="135.4219" id="elki.visualization.gui.VisualizationPlot" rx="2.5" ry="2.5" style="stroke:#181818;stroke-width:0.5;" width="410" x="9" y="105"/><ellipse cx="154.25" cy="123.9688" fill="#ADD1B2" rx="11" ry="11" style="stroke:#181818;stroke-width:1.0;"/><path d="M157.2188,129.6094 Q156.6406,129.9063 156,130.0469 Q155.3594,130.2031 154.6563,130.2031 Q152.1563,130.2031 150.8281,128.5625 Q149.5156,126.9063 149.5156,123.7813 Q149.5156,120.6563 150.8281,119 Q152.1563,117.3438 154.6563,117.3438 Q155.3594,117.3438 156,117.5 Q156.6563,117.6563 157.2188,117.9531 L157.2188,120.6719 Q156.5938,120.0938 156,119.8281 Q155.4063,119.5469 154.7813,119.5469 Q153.4375,119.5469 152.75,120.625 Q152.0625,121.6875 152.0625,123.7813 Q152.0625,125.875 152.75,126.9531 Q153.4375,128.0156 154.7813,128.0156 Q155.4063,128.0156 156,127.75 Q156.5938,127.4688 157.2188,126.8906 L157.2188,129.6094 Z " fill="#000000"/><text fill="#000000" font-family="sans-serif" font-size="14" lengthAdjust="spacing" textLength="111" x="174.75" y="122.9951">VisualizationPlot</text><text fill="#000000" font-family="sans-serif" font-size="10" lengthAdjust="spacing" textLength="93" x="183.75" y="135.5791">elki.visualization.gui</text><line style="stroke:#181818;stroke-width:0.5;" x1="10" x2="418" y1="142.9375" y2="142.9375"/><polygon fill="none" points="20,151.5859,24,155.5859,20,159.5859,16,155.5859" style="stroke:#B38D22;stroke-width:1.0;"/><text fill="#000000" font-family="sans-serif" font-size="14" lengthAdjust="spacing" textLength="184" x="29" y="159.9326">pendingRedraw: Runnable</text><polygon fill="none" points="20,167.8828,24,171.8828,20,175.8828,16,171.8828" style="stroke:#B38D22;stroke-width:1.0;"/><text fill="#000000" font-family="sans-serif" font-size="14" lengthAdjust="spacing" textLength="384" x="29" y="176.2295">updateQueue: ConcurrentLinkedDeque&lt;Visualization&gt;</text><line style="stroke:#181818;stroke-width:0.5;" x1="10" x2="418" y1="183.5313" y2="183.5313"/><polygon fill="#FFFF44" points="20,192.1797,24,196.1797,20,200.1797,16,196.1797" style="stroke:#B38D22;stroke-width:1.0;"/><text fill="#000000" font-family="sans-serif" font-size="14" lengthAdjust="spacing" textLength="192" x="29" y="200.5264">synchronizedRedraw(): void</text><polygon fill="#FFFF44" points="20,208.4766,24,212.4766,20,216.4766,16,212.4766" style="stroke:#B38D22;stroke-width:1.0;"/><text fill="#000000" font-family="sans-serif" font-size="14" lengthAdjust="spacing" textLength="94" x="29" y="216.8232">redraw(): void</text><ellipse cx="20" cy="229.7734" fill="#84BE84" rx="3" ry="3" style="stroke:#038048;stroke-width:1.0;"/><text fill="#000000" font-family="sans-serif" font-size="14" lengthAdjust="spacing" textLength="364" x="29" y="233.1201">requestRedraw(VisualizationTask, Visualization): void</text></g></a><!--MD5=[6e220ea10293ce584bdd680a3046e19c]
class elki.visualization.svg.SVGPlot--><a href="../svg/SVGPlot.html" target="_top" title="../svg/SVGPlot.html" xlink:actuate="onRequest" xlink:href="../svg/SVGPlot.html" xlink:show="new" xlink:title="../svg/SVGPlot.html" xlink:type="simple"><g id="elem_elki.visualization.svg.SVGPlot"><rect codeLine="14" fill="#F1F1F1" height="37.9375" id="elki.visualization.svg.SVGPlot" rx="2.5" ry="2.5" style="stroke:#181818;stroke-width:0.5;" width="128" x="150" y="7"/><ellipse cx="165" cy="25.9688" fill="#ADD1B2" rx="11" ry="11" style="stroke:#181818;stroke-width:1.0;"/><path d="M167.9688,31.6094 Q167.3906,31.9063 166.75,32.0469 Q166.1094,32.2031 165.4063,32.2031 Q162.9063,32.2031 161.5781,30.5625 Q160.2656,28.9063 160.2656,25.7813 Q160.2656,22.6563 161.5781,21 Q162.9063,19.3438 165.4063,19.3438 Q166.1094,19.3438 166.75,19.5 Q167.4063,19.6563 167.9688,19.9531 L167.9688,22.6719 Q167.3438,22.0938 166.75,21.8281 Q166.1563,21.5469 165.5313,21.5469 Q164.1875,21.5469 163.5,22.625 Q162.8125,23.6875 162.8125,25.7813 Q162.8125,27.875 163.5,28.9531 Q164.1875,30.0156 165.5313,30.0156 Q166.1563,30.0156 166.75,29.75 Q167.3438,29.4688 167.9688,28.8906 L167.9688,31.6094 Z " fill="#000000"/><text fill="#000000" font-family="sans-serif" font-size="14" lengthAdjust="spacing" textLength="55" x="199.5" y="24.9951">SVGPlot</text><text fill="#000000" font-family="sans-serif" font-size="10" lengthAdjust="spacing" textLength="96" x="179" y="37.5791">elki.visualization.svg</text></g></a><!--MD5=[efc956b415f9093b415aaa320222a580]
reverse link elki.visualization.svg.SVGPlot to elki.visualization.gui.VisualizationPlot--><g id="link_elki.visualization.svg.SVGPlot_elki.visualization.gui.VisualizationPlot"><path codeLine="16" d="M214,65.22 C214,77.35 214,91.15 214,104.69 " fill="none" id="elki.visualization.svg.SVGPlot-backto-elki.visualization.gui.VisualizationPlot" style="stroke:#181818;stroke-width:1.0;"/><polygon fill="none" points="207,65.01,214,45.01,221,65.01,207,65.01" style="stroke:#181818;stroke-width:1.0;"/></g><rect fill="none" height="11.6406" style="stroke:none;stroke-width:1.0;" width="186" x="113" y="246.4219"/><text fill="#888888" font-family="sans-serif" font-size="10" lengthAdjust="spacing" textLength="186" x="113" y="255.7041">UMLDoclet 2.0.19, PlantUML 1.2022.8</text><!--MD5=[bb2a9e1913222101f68c03f03c3ac84e]
@startuml
    remove .*\.(Instance|Par|Parameterizer|Factory)$
    set namespaceSeparator none
    hide empty fields
    hide empty methods

    class "<size:14>VisualizationPlot\n<size:10>elki.visualization.gui" as elki.visualization.gui.VisualizationPlot [[VisualizationPlot.html]] {
        #pendingRedraw: Runnable
        #updateQueue: ConcurrentLinkedDeque<Visualization>
        #synchronizedRedraw(): void
        #redraw(): void
        +requestRedraw(VisualizationTask, Visualization): void
    }

    class "<size:14>SVGPlot\n<size:10>elki.visualization.svg" as elki.visualization.svg.SVGPlot [[../svg/SVGPlot.html]]

    elki.visualization.svg.SVGPlot <|- - elki.visualization.gui.VisualizationPlot

    center footer UMLDoclet 2.0.19, PlantUML 1.2022.8
@enduml

PlantUML version 1.2022.8(Sun Sep 25 11:00:33 CEST 2022)
(APACHE source distribution)
Java Runtime: OpenJDK Runtime Environment
JVM: OpenJDK 64-Bit Server VM
Default Encoding: UTF-8
Language: de
Country: DE
--></g></svg>