<?xml version="1.0" encoding="UTF-8" standalone="no"?>
<!DOCTYPE svg PUBLIC "-//W3C//DTD SVG 1.1//EN"
 "http://www.w3.org/Graphics/SVG/1.1/DTD/svg11.dtd">
<!-- Generated by graphviz version 2.40.1 (20161225.0304)
 -->
<!-- Title: G Pages: 1 -->
<svg width="258pt" height="87pt"
 viewBox="0.00 0.00 258.00 86.50" xmlns="http://www.w3.org/2000/svg" xmlns:xlink="http://www.w3.org/1999/xlink">
<g id="graph0" class="graph" transform="scale(1 1) rotate(0) translate(4 82.5)">
<title>G</title>
<polygon fill="#ffffff" stroke="transparent" points="-4,4 -4,-82.5 254,-82.5 254,4 -4,4"/>
<!-- c1621646 -->
<g id="node1" class="node">
<title>c1621646</title>
<g id="a_node1"><a xlink:href="../ArrayModifiableDBIDs.html" xlink:title="&lt;TABLE&gt;">
<g id="a_node1_0"><a xlink:href="../ArrayModifiableDBIDs.html" xlink:title="de.lmu.ifi.dbs.elki.database.ids.ArrayModifiableDBIDs" target="_parent">
<polygon fill="none" stroke="#000000" points=".5,-39 .5,-78 113.5,-78 113.5,-39 .5,-39"/>
<text text-anchor="start" x="35.5" y="-67.6" font-family="Roboto" font-size="8.00" fill="#000000"> «interface» </text>
<text text-anchor="start" x="13.5" y="-57.6" font-family="Roboto" font-size="8.00" fill="#000000"> </text>
<text text-anchor="start" x="16.5" y="-57.6" font-family="Roboto" font-size="8.00" fill="#000000">ArrayModifiableDBIDs</text>
<text text-anchor="start" x="97.5" y="-57.6" font-family="Roboto" font-size="8.00" fill="#000000"> </text>
<text text-anchor="start" x="4.5" y="-46.6" font-family="Roboto" font-size="8.00" fill="#000000"> </text>
<text text-anchor="start" x="7.5" y="-46.6" font-family="Roboto" font-size="7.00" fill="#000000">de.lmu.ifi.dbs.elki.database.ids</text>
<text text-anchor="start" x="106.5" y="-46.6" font-family="Roboto" font-size="8.00" fill="#000000"> </text>
</a>
</g>
</a>
</g>
</g>
<!-- c1621733 -->
<g id="node3" class="node">
<title>c1621733</title>
<g id="a_node3"><a xlink:href="ArrayModifiableIntegerDBIDs.html" xlink:title="&lt;TABLE&gt;">
<g id="a_node3_1"><a xlink:href="ArrayModifiableIntegerDBIDs.html" xlink:title="de.lmu.ifi.dbs.elki.database.ids.integer.ArrayModifiableIntegerDBIDs" target="_parent">
<polygon fill="#fffacd" stroke="transparent" points="131,-27.5 131,-44.5 250,-44.5 250,-27.5 131,-27.5"/>
<polygon fill="none" stroke="#000000" points="131.5,-27 131.5,-44 250.5,-44 250.5,-27 131.5,-27"/>
<text text-anchor="start" x="135.5" y="-34.6" font-family="Roboto" font-size="8.00" fill="#000000"> </text>
<text text-anchor="start" x="138.5" y="-34.6" font-family="Roboto" font-size="8.00" fill="#000000">ArrayModifiableIntegerDBIDs</text>
<text text-anchor="start" x="243.5" y="-34.6" font-family="Roboto" font-size="8.00" fill="#000000"> </text>
</a>
</g>
</a>
</g>
</g>
<!-- c1621646&#45;&gt;c1621733 -->
<g id="edge1" class="edge">
<title>c1621646&#45;&gt;c1621733</title>
<path fill="none" stroke="#000000" stroke-dasharray="5,2" d="M123.2393,-47.5447C129.1494,-46.5303 135.0622,-45.5154 140.7938,-44.5317"/>
<polygon fill="none" stroke="#000000" points="122.5918,-44.1046 113.3281,-49.2459 123.7761,-51.0037 122.5918,-44.1046"/>
</g>
<!-- c1621732 -->
<g id="node2" class="node">
<title>c1621732</title>
<g id="a_node2"><a xlink:href="IntegerArrayDBIDs.html" xlink:title="&lt;TABLE&gt;">
<g id="a_node2_2"><a xlink:href="IntegerArrayDBIDs.html" xlink:title="de.lmu.ifi.dbs.elki.database.ids.integer.IntegerArrayDBIDs" target="_parent">
<polygon fill="none" stroke="#000000" points="16.5,0 16.5,-28 97.5,-28 97.5,0 16.5,0"/>
<text text-anchor="start" x="35.5" y="-17.6" font-family="Roboto" font-size="8.00" fill="#000000"> «interface» </text>
<text text-anchor="start" x="20.5" y="-7.6" font-family="Roboto" font-size="8.00" fill="#000000"> </text>
<text text-anchor="start" x="23.5" y="-7.6" font-family="Roboto" font-size="8.00" fill="#000000">IntegerArrayDBIDs</text>
<text text-anchor="start" x="90.5" y="-7.6" font-family="Roboto" font-size="8.00" fill="#000000"> </text>
</a>
</g>
</a>
</g>
</g>
<!-- c1621732&#45;&gt;c1621733 -->
<g id="edge2" class="edge">
<title>c1621732&#45;&gt;c1621733</title>
<path fill="none" stroke="#000000" stroke-dasharray="5,2" d="M107.1511,-22.3158C117.4565,-24.0078 128.3115,-25.79 138.6576,-27.4886"/>
<polygon fill="none" stroke="#000000" points="107.503,-18.8268 97.0681,-20.6604 106.3689,-25.7344 107.503,-18.8268"/>
</g>
</g>
</svg>
