<?xml version="1.0" encoding="UTF-8" standalone="no"?>
<!DOCTYPE svg PUBLIC "-//W3C//DTD SVG 1.1//EN"
 "http://www.w3.org/Graphics/SVG/1.1/DTD/svg11.dtd">
<!-- Generated by graphviz version 2.40.1 (20161225.0304)
 -->
<!-- Title: G Pages: 1 -->
<svg width="253pt" height="87pt"
 viewBox="0.00 0.00 253.00 86.50" xmlns="http://www.w3.org/2000/svg" xmlns:xlink="http://www.w3.org/1999/xlink">
<g id="graph0" class="graph" transform="scale(1 1) rotate(0) translate(4 82.5)">
<title>G</title>
<polygon fill="#ffffff" stroke="transparent" points="-4,4 -4,-82.5 249,-82.5 249,4 -4,4"/>
<!-- c3524018 -->
<g id="node1" class="node">
<title>c3524018</title>
<g id="a_node1"><a xlink:href="../DoubleDBIDListMIter.html" xlink:title="&lt;TABLE&gt;">
<g id="a_node1_0"><a xlink:href="../DoubleDBIDListMIter.html" xlink:title="de.lmu.ifi.dbs.elki.database.ids.DoubleDBIDListMIter" target="_parent">
<polygon fill="none" stroke="#000000" points=".5,-39 .5,-78 113.5,-78 113.5,-39 .5,-39"/>
<text text-anchor="start" x="35.5" y="-67.6" font-family="Roboto" font-size="8.00" fill="#000000"> «interface» </text>
<text text-anchor="start" x="16" y="-57.6" font-family="Roboto" font-size="8.00" fill="#000000"> </text>
<text text-anchor="start" x="19" y="-57.6" font-family="Roboto" font-size="8.00" fill="#000000">DoubleDBIDListMIter</text>
<text text-anchor="start" x="95" y="-57.6" font-family="Roboto" font-size="8.00" fill="#000000"> </text>
<text text-anchor="start" x="4.5" y="-46.6" font-family="Roboto" font-size="8.00" fill="#000000"> </text>
<text text-anchor="start" x="7.5" y="-46.6" font-family="Roboto" font-size="7.00" fill="#000000">de.lmu.ifi.dbs.elki.database.ids</text>
<text text-anchor="start" x="106.5" y="-46.6" font-family="Roboto" font-size="8.00" fill="#000000"> </text>
</a>
</g>
</a>
</g>
</g>
<!-- c3524095 -->
<g id="node3" class="node">
<title>c3524095</title>
<g id="a_node3"><a xlink:href="DoubleIntegerDBIDListMIter.html" xlink:title="&lt;TABLE&gt;">
<g id="a_node3_1"><a xlink:href="DoubleIntegerDBIDListMIter.html" xlink:title="de.lmu.ifi.dbs.elki.database.ids.integer.DoubleIntegerDBIDListMIter" target="_parent">
<polygon fill="#fffacd" stroke="transparent" points="131,-22 131,-50 245,-50 245,-22 131,-22"/>
<polygon fill="none" stroke="#000000" points="131,-22 131,-50 245,-50 245,-22 131,-22"/>
<text text-anchor="start" x="166.5" y="-39.6" font-family="Roboto" font-size="8.00" fill="#000000"> «interface» </text>
<text text-anchor="start" x="135" y="-29.6" font-family="Roboto" font-size="8.00" fill="#000000"> </text>
<text text-anchor="start" x="138" y="-29.6" font-family="Roboto" font-size="8.00" fill="#000000">DoubleIntegerDBIDListMIter</text>
<text text-anchor="start" x="238" y="-29.6" font-family="Roboto" font-size="8.00" fill="#000000"> </text>
</a>
</g>
</a>
</g>
</g>
<!-- c3524018&#45;&gt;c3524095 -->
<g id="edge2" class="edge">
<title>c3524018&#45;&gt;c3524095</title>
<path fill="none" stroke="#000000" stroke-dasharray="5,2" d="M122.9588,-47.376C125.5396,-46.9246 128.1189,-46.4735 130.6808,-46.0254"/>
<polygon fill="none" stroke="#000000" points="122.2784,-43.9418 113.031,-49.1124 123.4845,-50.8371 122.2784,-43.9418"/>
</g>
<!-- c3524080 -->
<g id="node2" class="node">
<title>c3524080</title>
<g id="a_node2"><a xlink:href="DoubleIntegerDBIDListIter.html" xlink:title="&lt;TABLE&gt;">
<g id="a_node2_2"><a xlink:href="DoubleIntegerDBIDListIter.html" xlink:title="de.lmu.ifi.dbs.elki.database.ids.integer.DoubleIntegerDBIDListIter" target="_parent">
<polygon fill="none" stroke="#000000" points="3.5,0 3.5,-28 110.5,-28 110.5,0 3.5,0"/>
<text text-anchor="start" x="35.5" y="-17.6" font-family="Roboto" font-size="8.00" fill="#000000"> «interface» </text>
<text text-anchor="start" x="7.5" y="-7.6" font-family="Roboto" font-size="8.00" fill="#000000"> </text>
<text text-anchor="start" x="10.5" y="-7.6" font-family="Roboto" font-size="8.00" fill="#000000">DoubleIntegerDBIDListIter</text>
<text text-anchor="start" x="103.5" y="-7.6" font-family="Roboto" font-size="8.00" fill="#000000"> </text>
</a>
</g>
</a>
</g>
</g>
<!-- c3524080&#45;&gt;c3524095 -->
<g id="edge1" class="edge">
<title>c3524080&#45;&gt;c3524095</title>
<path fill="none" stroke="#000000" stroke-dasharray="5,2" d="M120.4571,-24.7C123.8393,-25.2659 127.2277,-25.8328 130.5867,-26.3947"/>
<polygon fill="none" stroke="#000000" points="120.806,-21.2098 110.3655,-23.0117 119.6509,-28.1139 120.806,-21.2098"/>
</g>
</g>
</svg>
