<?xml version="1.0" encoding="UTF-8" standalone="no"?>
<!DOCTYPE svg PUBLIC "-//W3C//DTD SVG 1.1//EN"
 "http://www.w3.org/Graphics/SVG/1.1/DTD/svg11.dtd">
<!-- Generated by graphviz version 2.40.1 (20161225.0304)
 -->
<!-- Title: G Pages: 1 -->
<svg width="231pt" height="36pt"
 viewBox="0.00 0.00 231.00 36.00" xmlns="http://www.w3.org/2000/svg" xmlns:xlink="http://www.w3.org/1999/xlink">
<g id="graph0" class="graph" transform="scale(1 1) rotate(0) translate(4 32)">
<title>G</title>
<polygon fill="#ffffff" stroke="transparent" points="-4,4 -4,-32 227,-32 227,4 -4,4"/>
<!-- c3530501 -->
<g id="node1" class="node">
<title>c3530501</title>
<g id="a_node1"><a xlink:href="DoubleIntegerDBIDSubList.html" xlink:title="&lt;TABLE&gt;">
<g id="a_node1_0"><a xlink:href="DoubleIntegerDBIDSubList.html" xlink:title="de.lmu.ifi.dbs.elki.database.ids.integer.DoubleIntegerDBIDSubList" target="_parent">
<polygon fill="#fffacd" stroke="transparent" points="114,-5.5 114,-22.5 223,-22.5 223,-5.5 114,-5.5"/>
<polygon fill="none" stroke="#000000" points="114.5,-5 114.5,-22 223.5,-22 223.5,-5 114.5,-5"/>
<text text-anchor="start" x="118.5" y="-12.6" font-family="Roboto" font-size="8.00" fill="#000000"> </text>
<text text-anchor="start" x="121.5" y="-12.6" font-family="Roboto" font-size="8.00" fill="#000000">DoubleIntegerDBIDSubList</text>
<text text-anchor="start" x="216.5" y="-12.6" font-family="Roboto" font-size="8.00" fill="#000000"> </text>
</a>
</g>
</a>
</g>
</g>
<!-- c3530504 -->
<g id="node2" class="node">
<title>c3530504</title>
<g id="a_node2"><a xlink:href="DoubleIntegerDBIDList.html" xlink:title="&lt;TABLE&gt;">
<g id="a_node2_1"><a xlink:href="DoubleIntegerDBIDList.html" xlink:title="de.lmu.ifi.dbs.elki.database.ids.integer.DoubleIntegerDBIDList" target="_parent">
<polygon fill="none" stroke="#000000" points="0,0 0,-28 96,-28 96,0 0,0"/>
<text text-anchor="start" x="26.5" y="-17.6" font-family="Roboto" font-size="8.00" fill="#000000"> «interface» </text>
<text text-anchor="start" x="4" y="-7.6" font-family="Roboto" font-size="8.00" fill="#000000"> </text>
<text text-anchor="start" x="7" y="-7.6" font-family="Roboto" font-size="8.00" fill="#000000">DoubleIntegerDBIDList</text>
<text text-anchor="start" x="89" y="-7.6" font-family="Roboto" font-size="8.00" fill="#000000"> </text>
</a>
</g>
</a>
</g>
</g>
<!-- c3530504&#45;&gt;c3530501 -->
<g id="edge1" class="edge">
<title>c3530504&#45;&gt;c3530501</title>
<path fill="none" stroke="#000000" stroke-dasharray="5,2" d="M106.4201,-14C108.8936,-14 111.3711,-14 113.8361,-14"/>
<polygon fill="none" stroke="#000000" points="106.3177,-10.5001 96.3176,-14 106.3176,-17.5001 106.3177,-10.5001"/>
</g>
</g>
</svg>
