<?xml version="1.0" encoding="UTF-8" standalone="no"?><svg xmlns="http://www.w3.org/2000/svg" xmlns:xlink="http://www.w3.org/1999/xlink" contentStyleType="text/css" height="404px" preserveAspectRatio="none" style="width:482px;height:404px;background:#FFFFFF;" version="1.1" viewBox="0 0 482 404" width="482px" zoomAndPan="magnify"><defs/><g><!--MD5=[40cfcc20bd6bba31deecabc6644278bf]
class elki.index.tree.spatial.rstarvariants.deliclu.DeLiCluLeafEntry--><a href="DeLiCluLeafEntry.html" target="_top" title="DeLiCluLeafEntry.html" xlink:actuate="onRequest" xlink:href="DeLiCluLeafEntry.html" xlink:show="new" xlink:title="DeLiCluLeafEntry.html" xlink:type="simple"><g id="elem_elki.index.tree.spatial.rstarvariants.deliclu.DeLiCluLeafEntry"><rect codeLine="6" fill="#F1F1F1" height="200.6094" id="elki.index.tree.spatial.rstarvariants.deliclu.DeLiCluLeafEntry" rx="2.5" ry="2.5" style="stroke:#181818;stroke-width:0.5;" width="294" x="73.5" y="178"/><ellipse cx="117.3" cy="196.9688" fill="#ADD1B2" rx="11" ry="11" style="stroke:#181818;stroke-width:1.0;"/><path d="M120.2688,202.6094 Q119.6906,202.9063 119.05,203.0469 Q118.4094,203.2031 117.7063,203.2031 Q115.2063,203.2031 113.8781,201.5625 Q112.5656,199.9063 112.5656,196.7813 Q112.5656,193.6563 113.8781,192 Q115.2063,190.3438 117.7063,190.3438 Q118.4094,190.3438 119.05,190.5 Q119.7063,190.6563 120.2688,190.9531 L120.2688,193.6719 Q119.6438,193.0938 119.05,192.8281 Q118.4563,192.5469 117.8313,192.5469 Q116.4875,192.5469 115.8,193.625 Q115.1125,194.6875 115.1125,196.7813 Q115.1125,198.875 115.8,199.9531 Q116.4875,201.0156 117.8313,201.0156 Q118.4563,201.0156 119.05,200.75 Q119.6438,200.4688 120.2688,199.8906 L120.2688,202.6094 Z " fill="#000000"/><text fill="#000000" font-family="sans-serif" font-size="14" lengthAdjust="spacing" textLength="115" x="179.2" y="195.9951">DeLiCluLeafEntry</text><text fill="#000000" font-family="sans-serif" font-size="10" lengthAdjust="spacing" textLength="198" x="137.7" y="208.5791">elki.index.tree.spatial.rstarvariants.deliclu</text><line style="stroke:#181818;stroke-width:0.5;" x1="74.5" x2="366.5" y1="215.9375" y2="215.9375"/><rect fill="none" height="6" style="stroke:#C82930;stroke-width:1.0;" width="6" x="81.5" y="226.5859"/><text fill="#000000" font-family="sans-serif" font-size="14" lengthAdjust="spacing" text-decoration="underline" textLength="151" x="93.5" y="232.9326">serialVersionUID: long</text><rect fill="none" height="6" style="stroke:#C82930;stroke-width:1.0;" width="6" x="81.5" y="242.8828"/><text fill="#000000" font-family="sans-serif" font-size="14" lengthAdjust="spacing" textLength="147" x="93.5" y="249.2295">hasHandled: boolean</text><rect fill="none" height="6" style="stroke:#C82930;stroke-width:1.0;" width="6" x="81.5" y="259.1797"/><text fill="#000000" font-family="sans-serif" font-size="14" lengthAdjust="spacing" textLength="165" x="93.5" y="265.5264">hasUnhandled: boolean</text><line style="stroke:#181818;stroke-width:0.5;" x1="74.5" x2="366.5" y1="272.8281" y2="272.8281"/><ellipse cx="84.5" cy="286.4766" fill="#84BE84" rx="3" ry="3" style="stroke:#038048;stroke-width:1.0;"/><text fill="#000000" font-family="sans-serif" font-size="14" lengthAdjust="spacing" textLength="125" x="93.5" y="289.8232">DeLiCluLeafEntry()</text><ellipse cx="84.5" cy="302.7734" fill="#84BE84" rx="3" ry="3" style="stroke:#038048;stroke-width:1.0;"/><text fill="#000000" font-family="sans-serif" font-size="14" lengthAdjust="spacing" textLength="268" x="93.5" y="306.1201">DeLiCluLeafEntry(DBID, NumberVector)</text><ellipse cx="84.5" cy="319.0703" fill="#84BE84" rx="3" ry="3" style="stroke:#038048;stroke-width:1.0;"/><text fill="#000000" font-family="sans-serif" font-size="14" lengthAdjust="spacing" textLength="157" x="93.5" y="322.417">hasHandled(): boolean</text><ellipse cx="84.5" cy="335.3672" fill="#84BE84" rx="3" ry="3" style="stroke:#038048;stroke-width:1.0;"/><text fill="#000000" font-family="sans-serif" font-size="14" lengthAdjust="spacing" textLength="175" x="93.5" y="338.7139">hasUnhandled(): boolean</text><ellipse cx="84.5" cy="351.6641" fill="#84BE84" rx="3" ry="3" style="stroke:#038048;stroke-width:1.0;"/><text fill="#000000" font-family="sans-serif" font-size="14" lengthAdjust="spacing" textLength="208" x="93.5" y="355.0107">setHasHandled(boolean): void</text><ellipse cx="84.5" cy="367.9609" fill="#84BE84" rx="3" ry="3" style="stroke:#038048;stroke-width:1.0;"/><text fill="#000000" font-family="sans-serif" font-size="14" lengthAdjust="spacing" textLength="226" x="93.5" y="371.3076">setHasUnhandled(boolean): void</text></g></a><!--MD5=[3083cc1704c5d96f01c4a643453a0437]
class elki.index.tree.spatial.SpatialPointLeafEntry--><a href="../../SpatialPointLeafEntry.html" target="_top" title="../../SpatialPointLeafEntry.html" xlink:actuate="onRequest" xlink:href="../../SpatialPointLeafEntry.html" xlink:show="new" xlink:title="../../SpatialPointLeafEntry.html" xlink:type="simple"><g id="elem_elki.index.tree.spatial.SpatialPointLeafEntry"><rect codeLine="18" fill="#F1F1F1" height="37.9375" id="elki.index.tree.spatial.SpatialPointLeafEntry" rx="2.5" ry="2.5" style="stroke:#181818;stroke-width:0.5;" width="175" x="7" y="43.5"/><ellipse cx="22" cy="62.4688" fill="#ADD1B2" rx="11" ry="11" style="stroke:#181818;stroke-width:1.0;"/><path d="M24.9688,68.1094 Q24.3906,68.4063 23.75,68.5469 Q23.1094,68.7031 22.4063,68.7031 Q19.9063,68.7031 18.5781,67.0625 Q17.2656,65.4063 17.2656,62.2813 Q17.2656,59.1563 18.5781,57.5 Q19.9063,55.8438 22.4063,55.8438 Q23.1094,55.8438 23.75,56 Q24.4063,56.1563 24.9688,56.4531 L24.9688,59.1719 Q24.3438,58.5938 23.75,58.3281 Q23.1563,58.0469 22.5313,58.0469 Q21.1875,58.0469 20.5,59.125 Q19.8125,60.1875 19.8125,62.2813 Q19.8125,64.375 20.5,65.4531 Q21.1875,66.5156 22.5313,66.5156 Q23.1563,66.5156 23.75,66.25 Q24.3438,65.9688 24.9688,65.3906 L24.9688,68.1094 Z " fill="#000000"/><text fill="#000000" font-family="sans-serif" font-size="14" lengthAdjust="spacing" textLength="143" x="36" y="61.4951">SpatialPointLeafEntry</text><text fill="#000000" font-family="sans-serif" font-size="10" lengthAdjust="spacing" textLength="101" x="57" y="74.0791">elki.index.tree.spatial</text></g></a><!--MD5=[074efde5b7dd0758918e4374860d65f9]
class elki.index.tree.spatial.rstarvariants.deliclu.DeLiCluEntry--><a href="DeLiCluEntry.html" target="_top" title="DeLiCluEntry.html" xlink:actuate="onRequest" xlink:href="DeLiCluEntry.html" xlink:show="new" xlink:title="DeLiCluEntry.html" xlink:type="simple"><g id="elem_elki.index.tree.spatial.rstarvariants.deliclu.DeLiCluEntry"><rect codeLine="19" fill="#F1F1F1" height="111.125" id="elki.index.tree.spatial.rstarvariants.deliclu.DeLiCluEntry" rx="2.5" ry="2.5" style="stroke:#181818;stroke-width:0.5;" width="258" x="217.5" y="7"/><ellipse cx="240.15" cy="25.9688" fill="#B4A7E5" rx="11" ry="11" style="stroke:#181818;stroke-width:1.0;"/><path d="M236.0719,21.7344 L236.0719,19.5781 L243.4625,19.5781 L243.4625,21.7344 L240.9938,21.7344 L240.9938,29.8125 L243.4625,29.8125 L243.4625,31.9688 L236.0719,31.9688 L236.0719,29.8125 L238.5406,29.8125 L238.5406,21.7344 L236.0719,21.7344 Z " fill="#000000"/><text fill="#000000" font-family="sans-serif" font-size="14" font-style="italic" lengthAdjust="spacing" textLength="91" x="314.85" y="24.9951">DeLiCluEntry</text><text fill="#000000" font-family="sans-serif" font-size="10" font-style="italic" lengthAdjust="spacing" textLength="209" x="255.85" y="37.5791">elki.index.tree.spatial.rstarvariants.deliclu</text><line style="stroke:#181818;stroke-width:0.5;" x1="218.5" x2="474.5" y1="44.9375" y2="44.9375"/><ellipse cx="228.5" cy="58.5859" fill="#84BE84" rx="3" ry="3" style="stroke:#038048;stroke-width:1.0;"/><text fill="#000000" font-family="sans-serif" font-size="14" font-style="italic" lengthAdjust="spacing" textLength="162" x="237.5" y="61.9326">hasHandled(): boolean</text><ellipse cx="228.5" cy="74.8828" fill="#84BE84" rx="3" ry="3" style="stroke:#038048;stroke-width:1.0;"/><text fill="#000000" font-family="sans-serif" font-size="14" font-style="italic" lengthAdjust="spacing" textLength="179" x="237.5" y="78.2295">hasUnhandled(): boolean</text><ellipse cx="228.5" cy="91.1797" fill="#84BE84" rx="3" ry="3" style="stroke:#038048;stroke-width:1.0;"/><text fill="#000000" font-family="sans-serif" font-size="14" font-style="italic" lengthAdjust="spacing" textLength="215" x="237.5" y="94.5264">setHasHandled(boolean): void</text><ellipse cx="228.5" cy="107.4766" fill="#84BE84" rx="3" ry="3" style="stroke:#038048;stroke-width:1.0;"/><text fill="#000000" font-family="sans-serif" font-size="14" font-style="italic" lengthAdjust="spacing" textLength="232" x="237.5" y="110.8232">setHasUnhandled(boolean): void</text></g></a><!--MD5=[b226fb683e57d0cc543f99a02901fe73]
reverse link elki.index.tree.spatial.SpatialPointLeafEntry to elki.index.tree.spatial.rstarvariants.deliclu.DeLiCluLeafEntry--><g id="link_elki.index.tree.spatial.SpatialPointLeafEntry_elki.index.tree.spatial.rstarvariants.deliclu.DeLiCluLeafEntry"><path codeLine="26" d="M115.46,99.1 C128.25,120.82 145.29,149.76 161.91,177.99 " fill="none" id="elki.index.tree.spatial.SpatialPointLeafEntry-backto-elki.index.tree.spatial.rstarvariants.deliclu.DeLiCluLeafEntry" style="stroke:#181818;stroke-width:1.0;"/><polygon fill="none" points="109.36,102.53,105.24,81.75,121.42,95.43,109.36,102.53" style="stroke:#181818;stroke-width:1.0;"/></g><!--MD5=[df06be60514224b1a7e3f88555932c4f]
reverse link elki.index.tree.spatial.rstarvariants.deliclu.DeLiCluEntry to elki.index.tree.spatial.rstarvariants.deliclu.DeLiCluLeafEntry--><g id="link_elki.index.tree.spatial.rstarvariants.deliclu.DeLiCluEntry_elki.index.tree.spatial.rstarvariants.deliclu.DeLiCluLeafEntry"><path codeLine="27" d="M304.19,135.36 C296.18,148.96 287.67,163.41 279.27,177.69 " fill="none" id="elki.index.tree.spatial.rstarvariants.deliclu.DeLiCluEntry-backto-elki.index.tree.spatial.rstarvariants.deliclu.DeLiCluLeafEntry" style="stroke:#181818;stroke-width:1.0;stroke-dasharray:7.0,7.0;"/><polygon fill="none" points="298.2,131.74,314.38,118.05,310.26,138.84,298.2,131.74" style="stroke:#181818;stroke-width:1.0;"/></g><rect fill="none" height="11.6406" style="stroke:none;stroke-width:1.0;" width="186" x="141.25" y="384.6094"/><text fill="#888888" font-family="sans-serif" font-size="10" lengthAdjust="spacing" textLength="186" x="141.25" y="393.8916">UMLDoclet 2.0.19, PlantUML 1.2022.8</text><!--MD5=[1b1385bf61c1c1cf0cef20360dd8c3f3]
@startuml
    remove .*\.(Instance|Par|Parameterizer|Factory)$
    set namespaceSeparator none
    hide empty fields
    hide empty methods

    class "<size:14>DeLiCluLeafEntry\n<size:10>elki.index.tree.spatial.rstarvariants.deliclu" as elki.index.tree.spatial.rstarvariants.deliclu.DeLiCluLeafEntry [[DeLiCluLeafEntry.html]] {
        {static} -serialVersionUID: long
        -hasHandled: boolean
        -hasUnhandled: boolean
        +DeLiCluLeafEntry()
        +DeLiCluLeafEntry(DBID, NumberVector)
        +hasHandled(): boolean
        +hasUnhandled(): boolean
        +setHasHandled(boolean): void
        +setHasUnhandled(boolean): void
    }

    class "<size:14>SpatialPointLeafEntry\n<size:10>elki.index.tree.spatial" as elki.index.tree.spatial.SpatialPointLeafEntry [[../../SpatialPointLeafEntry.html]]
    interface "<size:14>DeLiCluEntry\n<size:10>elki.index.tree.spatial.rstarvariants.deliclu" as elki.index.tree.spatial.rstarvariants.deliclu.DeLiCluEntry [[DeLiCluEntry.html]] {
        {abstract} +hasHandled(): boolean
        {abstract} +hasUnhandled(): boolean
        {abstract} +setHasHandled(boolean): void
        {abstract} +setHasUnhandled(boolean): void
    }

    elki.index.tree.spatial.SpatialPointLeafEntry <|- - elki.index.tree.spatial.rstarvariants.deliclu.DeLiCluLeafEntry
    elki.index.tree.spatial.rstarvariants.deliclu.DeLiCluEntry <|.. elki.index.tree.spatial.rstarvariants.deliclu.DeLiCluLeafEntry

    center footer UMLDoclet 2.0.19, PlantUML 1.2022.8
@enduml

PlantUML version 1.2022.8(Sun Sep 25 11:00:33 CEST 2022)
(APACHE source distribution)
Java Runtime: OpenJDK Runtime Environment
JVM: OpenJDK 64-Bit Server VM
Default Encoding: UTF-8
Language: de
Country: DE
--></g></svg>