<?xml version="1.0" encoding="UTF-8" standalone="no"?><svg xmlns="http://www.w3.org/2000/svg" xmlns:xlink="http://www.w3.org/1999/xlink" contentStyleType="text/css" height="69px" preserveAspectRatio="none" style="width:198px;height:69px;background:#FFFFFF;" version="1.1" viewBox="0 0 198 69" width="198px" zoomAndPan="magnify"><defs/><g><!--MD5=[a9aa77e35b9699b67f48ae711c3ae90d]
class elki.index.tree.betula.distance.BIRCHRadiusDistance--><a href="BIRCHRadiusDistance.html" target="_top" title="BIRCHRadiusDistance.html" xlink:actuate="onRequest" xlink:href="BIRCHRadiusDistance.html" xlink:show="new" xlink:title="BIRCHRadiusDistance.html" xlink:type="simple"><g id="elem_elki.index.tree.betula.distance.BIRCHRadiusDistance"><rect codeLine="13" fill="#F1F1F1" height="37.9375" id="elki.index.tree.betula.distance.BIRCHRadiusDistance" rx="2.5" ry="2.5" style="stroke:#181818;stroke-width:0.5;" width="183" x="8.5" y="7"/><ellipse cx="23.5" cy="25.9688" fill="#ADD1B2" rx="11" ry="11" style="stroke:#181818;stroke-width:1.0;"/><path d="M26.4688,31.6094 Q25.8906,31.9063 25.25,32.0469 Q24.6094,32.2031 23.9063,32.2031 Q21.4063,32.2031 20.0781,30.5625 Q18.7656,28.9063 18.7656,25.7813 Q18.7656,22.6563 20.0781,21 Q21.4063,19.3438 23.9063,19.3438 Q24.6094,19.3438 25.25,19.5 Q25.9063,19.6563 26.4688,19.9531 L26.4688,22.6719 Q25.8438,22.0938 25.25,21.8281 Q24.6563,21.5469 24.0313,21.5469 Q22.6875,21.5469 22,22.625 Q21.3125,23.6875 21.3125,25.7813 Q21.3125,27.875 22,28.9531 Q22.6875,30.0156 24.0313,30.0156 Q24.6563,30.0156 25.25,29.75 Q25.8438,29.4688 26.4688,28.8906 L26.4688,31.6094 Z " fill="#000000"/><text fill="#000000" font-family="sans-serif" font-size="14" lengthAdjust="spacing" textLength="151" x="37.5" y="24.9951">BIRCHRadiusDistance</text><text fill="#000000" font-family="sans-serif" font-size="10" lengthAdjust="spacing" textLength="143" x="41.5" y="37.5791">elki.index.tree.betula.distance</text></g></a><rect fill="none" height="11.6406" style="stroke:none;stroke-width:1.0;" width="186" x="0" y="49.9375"/><text fill="#888888" font-family="sans-serif" font-size="10" lengthAdjust="spacing" textLength="186" x="0" y="59.2197">UMLDoclet 2.0.19, PlantUML 1.2022.8</text><!--MD5=[ec5cb64e22af47ee4adab9b079112140]
@startuml
    remove .*\.(Instance|Par|Parameterizer|Factory)$
    set namespaceSeparator none
    hide empty fields
    hide empty methods

    class "<size:14>BIRCHRadiusDistance.Par\n<size:10>elki.index.tree.betula.distance" as elki.index.tree.betula.distance.BIRCHRadiusDistance.Par [[BIRCHRadiusDistance.Par.html]] {
        +make(): BIRCHRadiusDistance
    }

    interface "<size:14>Parameterizer\n<size:10>elki.utilities.optionhandling" as elki.utilities.optionhandling.Parameterizer [[../../../../utilities/optionhandling/Parameterizer.html]] {
        {abstract} +make(): Object
    }
    class "<size:14>BIRCHRadiusDistance\n<size:10>elki.index.tree.betula.distance" as elki.index.tree.betula.distance.BIRCHRadiusDistance [[BIRCHRadiusDistance.html]]

    elki.utilities.optionhandling.Parameterizer <|.. elki.index.tree.betula.distance.BIRCHRadiusDistance.Par
    elki.index.tree.betula.distance.BIRCHRadiusDistance +- - elki.index.tree.betula.distance.BIRCHRadiusDistance.Par

    center footer UMLDoclet 2.0.19, PlantUML 1.2022.8
@enduml

PlantUML version 1.2022.8(Sun Sep 25 11:00:33 CEST 2022)
(APACHE source distribution)
Java Runtime: OpenJDK Runtime Environment
JVM: OpenJDK 64-Bit Server VM
Default Encoding: UTF-8
Language: de
Country: DE
--></g></svg>