<?xml version="1.0" encoding="UTF-8" standalone="no"?>
<!DOCTYPE svg PUBLIC "-//W3C//DTD SVG 1.1//EN"
 "http://www.w3.org/Graphics/SVG/1.1/DTD/svg11.dtd">
<!-- Generated by graphviz version 2.40.1 (20161225.0304)
 -->
<!-- Title: G Pages: 1 -->
<svg width="251pt" height="25pt"
 viewBox="0.00 0.00 251.00 25.00" xmlns="http://www.w3.org/2000/svg" xmlns:xlink="http://www.w3.org/1999/xlink">
<g id="graph0" class="graph" transform="scale(1 1) rotate(0) translate(4 21)">
<title>G</title>
<polygon fill="#ffffff" stroke="transparent" points="-4,4 -4,-21 247,-21 247,4 -4,4"/>
<!-- c3819516 -->
<g id="node1" class="node">
<title>c3819516</title>
<g id="a_node1"><a xlink:href="AbstractDatabaseConnection.html" xlink:title="&lt;TABLE&gt;">
<g id="a_node1_0"><a xlink:href="AbstractDatabaseConnection.html" xlink:title="de.lmu.ifi.dbs.elki.datasource.AbstractDatabaseConnection" target="_parent">
<polygon fill="none" stroke="#000000" points=".5,.5 .5,-16.5 117.5,-16.5 117.5,.5 .5,.5"/>
<text text-anchor="start" x="4.5" y="-7.1" font-family="Roboto" font-size="8.00" fill="#000000"> </text>
<text text-anchor="start" x="7.5" y="-7.1" font-family="Roboto" font-style="italic" font-size="8.00" fill="#000000">AbstractDatabaseConnection</text>
<text text-anchor="start" x="110.5" y="-7.1" font-family="Roboto" font-size="8.00" fill="#000000"> </text>
</a>
</g>
</a>
</g>
</g>
<!-- c3819521 -->
<g id="node2" class="node">
<title>c3819521</title>
<g id="a_node2"><a xlink:href="EmptyDatabaseConnection.html" xlink:title="&lt;TABLE&gt;">
<g id="a_node2_1"><a xlink:href="EmptyDatabaseConnection.html" xlink:title="de.lmu.ifi.dbs.elki.datasource.EmptyDatabaseConnection" target="_parent">
<polygon fill="#fffacd" stroke="transparent" points="135,0 135,-17 243,-17 243,0 135,0"/>
<polygon fill="none" stroke="#000000" points="135,.5 135,-16.5 243,-16.5 243,.5 135,.5"/>
<text text-anchor="start" x="139" y="-7.1" font-family="Roboto" font-size="8.00" fill="#000000"> </text>
<text text-anchor="start" x="142" y="-7.1" font-family="Roboto" font-size="8.00" fill="#000000">EmptyDatabaseConnection</text>
<text text-anchor="start" x="236" y="-7.1" font-family="Roboto" font-size="8.00" fill="#000000"> </text>
</a>
</g>
</a>
</g>
</g>
<!-- c3819516&#45;&gt;c3819521 -->
<g id="edge1" class="edge">
<title>c3819516&#45;&gt;c3819521</title>
<path fill="none" stroke="#000000" d="M127.3843,-8.5C129.8463,-8.5 132.3014,-8.5 134.7354,-8.5"/>
<polygon fill="none" stroke="#000000" points="127.2601,-5.0001 117.26,-8.5 127.26,-12.0001 127.2601,-5.0001"/>
</g>
</g>
</svg>
