<?xml version="1.0" encoding="UTF-8" standalone="no"?>
<!DOCTYPE svg PUBLIC "-//W3C//DTD SVG 1.1//EN"
 "http://www.w3.org/Graphics/SVG/1.1/DTD/svg11.dtd">
<!-- Generated by graphviz version 2.40.1 (20161225.0304)
 -->
<!-- Title: G Pages: 1 -->
<svg width="449pt" height="36pt"
 viewBox="0.00 0.00 449.00 36.00" xmlns="http://www.w3.org/2000/svg" xmlns:xlink="http://www.w3.org/1999/xlink">
<g id="graph0" class="graph" transform="scale(1 1) rotate(0) translate(4 32)">
<title>G</title>
<polygon fill="#ffffff" stroke="transparent" points="-4,4 -4,-32 445,-32 445,4 -4,4"/>
<!-- c8637139 -->
<g id="node1" class="node">
<title>c8637139</title>
<g id="a_node1"><a xlink:href="../utilities/random/RandomFactory.html" xlink:title="&lt;TABLE&gt;">
<g id="a_node1_0"><a xlink:href="../utilities/random/RandomFactory.html" xlink:title="de.lmu.ifi.dbs.elki.utilities.random.RandomFactory" target="_parent">
<polygon fill="none" stroke="#000000" points="315,0 315,-28 441,-28 441,0 315,0"/>
<text text-anchor="start" x="347.5" y="-18.6" font-family="Roboto" font-size="8.00" fill="#000000"> </text>
<text text-anchor="start" x="350.5" y="-18.6" font-family="Roboto" font-size="8.00" fill="#000000">RandomFactory</text>
<text text-anchor="start" x="405.5" y="-18.6" font-family="Roboto" font-size="8.00" fill="#000000"> </text>
<text text-anchor="start" x="319" y="-7.6" font-family="Roboto" font-size="8.00" fill="#000000"> </text>
<text text-anchor="start" x="322" y="-7.6" font-family="Roboto" font-size="7.00" fill="#000000">de.lmu.ifi.dbs.elki.utilities.random</text>
<text text-anchor="start" x="434" y="-7.6" font-family="Roboto" font-size="8.00" fill="#000000"> </text>
</a>
</g>
</a>
</g>
</g>
<!-- c8637838 -->
<g id="node2" class="node">
<title>c8637838</title>
<g id="a_node2"><a xlink:href="AbstractDatabaseConnection.html" xlink:title="&lt;TABLE&gt;">
<g id="a_node2_1"><a xlink:href="AbstractDatabaseConnection.html" xlink:title="de.lmu.ifi.dbs.elki.datasource.AbstractDatabaseConnection" target="_parent">
<polygon fill="none" stroke="#000000" points=".5,-5 .5,-22 117.5,-22 117.5,-5 .5,-5"/>
<text text-anchor="start" x="4.5" y="-12.6" font-family="Roboto" font-size="8.00" fill="#000000"> </text>
<text text-anchor="start" x="7.5" y="-12.6" font-family="Roboto" font-style="italic" font-size="8.00" fill="#000000">AbstractDatabaseConnection</text>
<text text-anchor="start" x="110.5" y="-12.6" font-family="Roboto" font-size="8.00" fill="#000000"> </text>
</a>
</g>
</a>
</g>
</g>
<!-- c8637841 -->
<g id="node3" class="node">
<title>c8637841</title>
<g id="a_node3"><a xlink:href="RandomDoubleVectorDatabaseConnection.html" xlink:title="&lt;TABLE&gt;">
<g id="a_node3_2"><a xlink:href="RandomDoubleVectorDatabaseConnection.html" xlink:title="de.lmu.ifi.dbs.elki.datasource.RandomDoubleVectorDatabaseConnection" target="_parent">
<polygon fill="#fffacd" stroke="transparent" points="135,-5.5 135,-22.5 297,-22.5 297,-5.5 135,-5.5"/>
<polygon fill="none" stroke="#000000" points="135,-5 135,-22 297,-22 297,-5 135,-5"/>
<text text-anchor="start" x="139" y="-12.6" font-family="Roboto" font-size="8.00" fill="#000000"> </text>
<text text-anchor="start" x="142" y="-12.6" font-family="Roboto" font-size="8.00" fill="#000000">RandomDoubleVectorDatabaseConnection</text>
<text text-anchor="start" x="290" y="-12.6" font-family="Roboto" font-size="8.00" fill="#000000"> </text>
</a>
</g>
</a>
</g>
</g>
<!-- c8637838&#45;&gt;c8637841 -->
<g id="edge1" class="edge">
<title>c8637838&#45;&gt;c8637841</title>
<path fill="none" stroke="#000000" d="M127.2872,-14C129.7786,-14 132.2836,-14 134.7918,-14"/>
<polygon fill="none" stroke="#000000" points="127.1472,-10.5001 117.1472,-14 127.1472,-17.5001 127.1472,-10.5001"/>
</g>
<!-- c8637841&#45;&gt;c8637139 -->
<g id="edge2" class="edge">
<title>c8637841&#45;&gt;c8637139</title>
<path fill="none" stroke="#000000" d="M297.4746,-14C299.8433,-14 302.2114,-14 304.5709,-14"/>
<polygon fill="#000000" stroke="#000000" points="314.8356,-14 304.8356,-18.5001 309.8356,-14 304.8356,-14.0001 304.8356,-14.0001 304.8356,-14.0001 309.8356,-14 304.8356,-9.5001 314.8356,-14 314.8356,-14"/>
</g>
</g>
</svg>
