<?xml version="1.0" encoding="UTF-8" standalone="no"?>
<!DOCTYPE svg PUBLIC "-//W3C//DTD SVG 1.1//EN"
 "http://www.w3.org/Graphics/SVG/1.1/DTD/svg11.dtd">
<!-- Generated by graphviz version 2.40.1 (20161225.0304)
 -->
<!-- Title: G Pages: 1 -->
<svg width="296pt" height="65pt"
 viewBox="0.00 0.00 296.00 64.50" xmlns="http://www.w3.org/2000/svg" xmlns:xlink="http://www.w3.org/1999/xlink">
<g id="graph0" class="graph" transform="scale(1 1) rotate(0) translate(4 60.5)">
<title>G</title>
<polygon fill="#ffffff" stroke="transparent" points="-4,4 -4,-60.5 292,-60.5 292,4 -4,4"/>
<!-- c8583336 -->
<g id="node1" class="node">
<title>c8583336</title>
<g id="a_node1"><a xlink:href="RStarTree.html" xlink:title="&lt;TABLE&gt;">
<g id="a_node1_0"><a xlink:href="RStarTree.html" xlink:title="de.lmu.ifi.dbs.elki.index.tree.spatial.rstarvariants.rstar.RStarTree" target="_parent">
<polygon fill="none" stroke="#000000" points="62.5,-39 62.5,-56 110.5,-56 110.5,-39 62.5,-39"/>
<text text-anchor="start" x="66.5" y="-46.6" font-family="Roboto" font-size="8.00" fill="#000000"> </text>
<text text-anchor="start" x="69.5" y="-46.6" font-family="Roboto" font-style="italic" font-size="8.00" fill="#000000">RStarTree</text>
<text text-anchor="start" x="103.5" y="-46.6" font-family="Roboto" font-size="8.00" fill="#000000"> </text>
</a>
</g>
</a>
</g>
</g>
<!-- c8583338 -->
<g id="node2" class="node">
<title>c8583338</title>
<g id="a_node2"><a xlink:href="RStarTreeNode.html" xlink:title="&lt;TABLE&gt;">
<g id="a_node2_1"><a xlink:href="RStarTreeNode.html" xlink:title="de.lmu.ifi.dbs.elki.index.tree.spatial.rstarvariants.rstar.RStarTreeNode" target="_parent">
<polygon fill="#fffacd" stroke="transparent" points="220,-5.5 220,-22.5 288,-22.5 288,-5.5 220,-5.5"/>
<polygon fill="none" stroke="#000000" points="220,-5 220,-22 288,-22 288,-5 220,-5"/>
<text text-anchor="start" x="224" y="-12.6" font-family="Roboto" font-size="8.00" fill="#000000"> </text>
<text text-anchor="start" x="227" y="-12.6" font-family="Roboto" font-size="8.00" fill="#000000">RStarTreeNode</text>
<text text-anchor="start" x="281" y="-12.6" font-family="Roboto" font-size="8.00" fill="#000000"> </text>
</a>
</g>
</a>
</g>
</g>
<!-- c8583336&#45;&gt;c8583338 -->
<g id="edge1" class="edge">
<title>c8583336&#45;&gt;c8583338</title>
<path fill="none" stroke="#000000" d="M123.0477,-42.1509C138.499,-39.5516 156.6654,-36.3291 173,-33 185.0524,-30.5437 198.0492,-27.6191 210.0285,-24.8097"/>
<polygon fill="none" stroke="#000000" points="122.646,-42.2173 117.3795,-47.1432 110.807,-44.1764 116.0735,-39.2505 122.646,-42.2173"/>
<polygon fill="#000000" stroke="#000000" points="219.8088,-22.4896 211.1175,-29.1763 214.9438,-23.6437 210.0788,-24.7978 210.0788,-24.7978 210.0788,-24.7978 214.9438,-23.6437 209.0401,-20.4193 219.8088,-22.4896 219.8088,-22.4896"/>
<text text-anchor="middle" x="196.5" y="-33.4" font-family="Roboto" font-size="7.00" fill="#000000">contains</text>
</g>
<!-- c8583366 -->
<g id="node3" class="node">
<title>c8583366</title>
<g id="a_node3"><a xlink:href="../AbstractRStarTreeNode.html" xlink:title="&lt;TABLE&gt;">
<g id="a_node3_2"><a xlink:href="../AbstractRStarTreeNode.html" xlink:title="de.lmu.ifi.dbs.elki.index.tree.spatial.rstarvariants.AbstractRStarTreeNode" target="_parent">
<polygon fill="none" stroke="#000000" points=".5,0 .5,-28 173.5,-28 173.5,0 .5,0"/>
<text text-anchor="start" x="43" y="-18.6" font-family="Roboto" font-size="8.00" fill="#000000"> </text>
<text text-anchor="start" x="46" y="-18.6" font-family="Roboto" font-style="italic" font-size="8.00" fill="#000000">AbstractRStarTreeNode</text>
<text text-anchor="start" x="128" y="-18.6" font-family="Roboto" font-size="8.00" fill="#000000"> </text>
<text text-anchor="start" x="4.5" y="-7.6" font-family="Roboto" font-size="8.00" fill="#000000"> </text>
<text text-anchor="start" x="7.5" y="-7.6" font-family="Roboto" font-size="7.00" fill="#000000">de.lmu.ifi.dbs.elki.index.tree.spatial.rstarvariants</text>
<text text-anchor="start" x="166.5" y="-7.6" font-family="Roboto" font-size="8.00" fill="#000000"> </text>
</a>
</g>
</a>
</g>
</g>
<!-- c8583366&#45;&gt;c8583338 -->
<g id="edge2" class="edge">
<title>c8583366&#45;&gt;c8583338</title>
<path fill="none" stroke="#000000" d="M183.2708,-14C196.366,-14 209.0259,-14 219.9272,-14"/>
<polygon fill="none" stroke="#000000" points="183.1938,-10.5001 173.1938,-14 183.1938,-17.5001 183.1938,-10.5001"/>
</g>
</g>
</svg>
