<?xml version="1.0" encoding="UTF-8" standalone="no"?>
<!DOCTYPE svg PUBLIC "-//W3C//DTD SVG 1.1//EN"
 "http://www.w3.org/Graphics/SVG/1.1/DTD/svg11.dtd">
<!-- Generated by graphviz version 2.40.1 (20161225.0304)
 -->
<!-- Title: G Pages: 1 -->
<svg width="494pt" height="212pt"
 viewBox="0.00 0.00 494.00 211.50" xmlns="http://www.w3.org/2000/svg" xmlns:xlink="http://www.w3.org/1999/xlink">
<g id="graph0" class="graph" transform="scale(1 1) rotate(0) translate(4 207.5)">
<title>G</title>
<polygon fill="#ffffff" stroke="transparent" points="-4,4 -4,-207.5 490,-207.5 490,4 -4,4"/>
<!-- c497415 -->
<g id="node1" class="node">
<title>c497415</title>
<g id="a_node1"><a xlink:href="FilteredConvexHull2D.html" xlink:title="&lt;TABLE&gt;">
<g id="a_node1_0"><a xlink:href="FilteredConvexHull2D.html" xlink:title="de.lmu.ifi.dbs.elki.math.geometry.FilteredConvexHull2D" target="_parent">
<polygon fill="none" stroke="#000000" points="13.5,.5 13.5,-16.5 105.5,-16.5 105.5,.5 13.5,.5"/>
<text text-anchor="start" x="17.5" y="-7.1" font-family="Roboto" font-size="8.00" fill="#000000"> </text>
<text text-anchor="start" x="20.5" y="-7.1" font-family="Roboto" font-size="8.00" fill="#000000">FilteredConvexHull2D</text>
<text text-anchor="start" x="98.5" y="-7.1" font-family="Roboto" font-size="8.00" fill="#000000"> </text>
</a>
</g>
</a>
</g>
</g>
<!-- c497416 -->
<g id="node2" class="node">
<title>c497416</title>
<g id="a_node2"><a xlink:href="GrahamScanConvexHull2D.html" xlink:title="&lt;TABLE&gt;">
<g id="a_node2_1"><a xlink:href="GrahamScanConvexHull2D.html" xlink:title="de.lmu.ifi.dbs.elki.math.geometry.GrahamScanConvexHull2D" target="_parent">
<polygon fill="none" stroke="#000000" points="156.5,.5 156.5,-16.5 268.5,-16.5 268.5,.5 156.5,.5"/>
<text text-anchor="start" x="160.5" y="-7.1" font-family="Roboto" font-size="8.00" fill="#000000"> </text>
<text text-anchor="start" x="163.5" y="-7.1" font-family="Roboto" font-size="8.00" fill="#000000">GrahamScanConvexHull2D</text>
<text text-anchor="start" x="261.5" y="-7.1" font-family="Roboto" font-size="8.00" fill="#000000"> </text>
</a>
</g>
</a>
</g>
</g>
<!-- c497415&#45;&gt;c497416 -->
<g id="edge1" class="edge">
<title>c497415&#45;&gt;c497416</title>
<path fill="none" stroke="#000000" d="M118.0952,-8.5C130.6514,-8.5 143.8895,-8.5 156.3506,-8.5"/>
<polygon fill="none" stroke="#000000" points="117.8202,-8.5001 111.8202,-12.5 105.8202,-8.5 111.8203,-4.5 117.8202,-8.5001"/>
</g>
<!-- c497417 -->
<g id="node3" class="node">
<title>c497417</title>
<g id="a_node3"><a xlink:href="SweepHullDelaunay2D.html" xlink:title="&lt;TABLE&gt;">
<g id="a_node3_2"><a xlink:href="SweepHullDelaunay2D.html" xlink:title="de.lmu.ifi.dbs.elki.math.geometry.SweepHullDelaunay2D" target="_parent">
<polygon fill="none" stroke="#000000" points="164.5,-51.5 164.5,-68.5 261.5,-68.5 261.5,-51.5 164.5,-51.5"/>
<text text-anchor="start" x="168.5" y="-59.1" font-family="Roboto" font-size="8.00" fill="#000000"> </text>
<text text-anchor="start" x="171.5" y="-59.1" font-family="Roboto" font-size="8.00" fill="#000000">SweepHullDelaunay2D</text>
<text text-anchor="start" x="254.5" y="-59.1" font-family="Roboto" font-size="8.00" fill="#000000"> </text>
</a>
</g>
</a>
</g>
</g>
<!-- c497419 -->
<g id="node4" class="node">
<title>c497419</title>
<g id="a_node4"><a xlink:href="SweepHullDelaunay2D.Triangle.html" xlink:title="&lt;TABLE&gt;">
<g id="a_node4_3"><a xlink:href="SweepHullDelaunay2D.Triangle.html" xlink:title="de.lmu.ifi.dbs.elki.math.geometry.SweepHullDelaunay2D.Triangle" target="_parent">
<polygon fill="none" stroke="#000000" points="332,-38.5 332,-55.5 461,-55.5 461,-38.5 332,-38.5"/>
<text text-anchor="start" x="336" y="-46.1" font-family="Roboto" font-size="8.00" fill="#000000"> </text>
<text text-anchor="start" x="339" y="-46.1" font-family="Roboto" font-size="8.00" fill="#000000">SweepHullDelaunay2D.Triangle</text>
<text text-anchor="start" x="454" y="-46.1" font-family="Roboto" font-size="8.00" fill="#000000"> </text>
</a>
</g>
</a>
</g>
</g>
<!-- c497417&#45;&gt;c497419 -->
<g id="edge9" class="edge">
<title>c497417&#45;&gt;c497419</title>
<path fill="none" stroke="#000000" d="M261.1929,-57.0504C279.5408,-55.7505 300.8598,-54.2402 321.0542,-52.8095"/>
<polygon fill="#000000" stroke="#000000" points="331.1737,-52.0926 321.5167,-57.2881 326.1862,-52.446 321.1987,-52.7994 321.1987,-52.7994 321.1987,-52.7994 326.1862,-52.446 320.8806,-48.3106 331.1737,-52.0926 331.1737,-52.0926"/>
<text text-anchor="middle" x="329.1737" y="-46.4926" font-family="Roboto" font-size="7.00" fill="#000000">*</text>
</g>
<!-- c497420 -->
<g id="node5" class="node">
<title>c497420</title>
<g id="a_node5"><a xlink:href="XYPlot.html" xlink:title="&lt;TABLE&gt;">
<g id="a_node5_4"><a xlink:href="XYPlot.html" xlink:title="de.lmu.ifi.dbs.elki.math.geometry.XYPlot" target="_parent">
<polygon fill="none" stroke="#000000" points="40.5,-79.5 40.5,-96.5 78.5,-96.5 78.5,-79.5 40.5,-79.5"/>
<text text-anchor="start" x="44.5" y="-87.1" font-family="Roboto" font-size="8.00" fill="#000000"> </text>
<text text-anchor="start" x="47.5" y="-87.1" font-family="Roboto" font-size="8.00" fill="#000000">XYPlot</text>
<text text-anchor="start" x="71.5" y="-87.1" font-family="Roboto" font-size="8.00" fill="#000000"> </text>
</a>
</g>
</a>
</g>
</g>
<!-- c497421 -->
<g id="node6" class="node">
<title>c497421</title>
<g id="a_node6"><a xlink:href="XYPlot.Curve.html" xlink:title="&lt;TABLE&gt;">
<g id="a_node6_5"><a xlink:href="XYPlot.Curve.html" xlink:title="de.lmu.ifi.dbs.elki.math.geometry.XYPlot.Curve" target="_parent">
<polygon fill="none" stroke="#000000" points="182.5,-79.5 182.5,-96.5 242.5,-96.5 242.5,-79.5 182.5,-79.5"/>
<text text-anchor="start" x="186.5" y="-87.1" font-family="Roboto" font-size="8.00" fill="#000000"> </text>
<text text-anchor="start" x="189.5" y="-87.1" font-family="Roboto" font-size="8.00" fill="#000000">XYPlot.Curve</text>
<text text-anchor="start" x="235.5" y="-87.1" font-family="Roboto" font-size="8.00" fill="#000000"> </text>
</a>
</g>
</a>
</g>
</g>
<!-- c497420&#45;&gt;c497421 -->
<g id="edge2" class="edge">
<title>c497420&#45;&gt;c497421</title>
<path fill="none" stroke="#000000" d="M90.6892,-88.5C117.4878,-88.5 155.8846,-88.5 182.3713,-88.5"/>
<polygon fill="#000000" stroke="#000000" points="90.5682,-88.5001 84.5682,-92.5 78.5682,-88.5 84.5682,-84.5 90.5682,-88.5001"/>
</g>
<!-- c497422 -->
<g id="node7" class="node">
<title>c497422</title>
<g id="a_node7"><a xlink:href="XYPlot.Curve.Itr.html" xlink:title="&lt;TABLE&gt;">
<g id="a_node7_6"><a xlink:href="XYPlot.Curve.Itr.html" xlink:title="de.lmu.ifi.dbs.elki.math.geometry.XYPlot.Curve.Itr" target="_parent">
<polygon fill="none" stroke="#000000" points="361,-79.5 361,-96.5 431,-96.5 431,-79.5 361,-79.5"/>
<text text-anchor="start" x="365" y="-87.1" font-family="Roboto" font-size="8.00" fill="#000000"> </text>
<text text-anchor="start" x="368" y="-87.1" font-family="Roboto" font-size="8.00" fill="#000000">XYPlot.Curve.Itr</text>
<text text-anchor="start" x="424" y="-87.1" font-family="Roboto" font-size="8.00" fill="#000000"> </text>
</a>
</g>
</a>
</g>
</g>
<!-- c497421&#45;&gt;c497422 -->
<g id="edge3" class="edge">
<title>c497421&#45;&gt;c497422</title>
<path fill="none" stroke="#000000" d="M254.9421,-88.5C287.1019,-88.5 330.7598,-88.5 360.9482,-88.5"/>
<polygon fill="none" stroke="#000000" points="254.8013,-88.5001 248.8013,-92.5 242.8013,-88.5 248.8013,-84.5 254.8013,-88.5001"/>
</g>
<!-- c497423 -->
<g id="node8" class="node">
<title>c497423</title>
<g id="a_node8"><a xlink:href="XYCurve.html" xlink:title="&lt;TABLE&gt;">
<g id="a_node8_7"><a xlink:href="XYCurve.html" xlink:title="de.lmu.ifi.dbs.elki.math.geometry.XYCurve" target="_parent">
<polygon fill="none" stroke="#000000" points="37.5,-107.5 37.5,-124.5 82.5,-124.5 82.5,-107.5 37.5,-107.5"/>
<text text-anchor="start" x="41.5" y="-115.1" font-family="Roboto" font-size="8.00" fill="#000000"> </text>
<text text-anchor="start" x="44.5" y="-115.1" font-family="Roboto" font-size="8.00" fill="#000000">XYCurve</text>
<text text-anchor="start" x="75.5" y="-115.1" font-family="Roboto" font-size="8.00" fill="#000000"> </text>
</a>
</g>
</a>
</g>
</g>
<!-- c497424 -->
<g id="node9" class="node">
<title>c497424</title>
<g id="a_node9"><a xlink:href="XYCurve.Itr.html" xlink:title="&lt;TABLE&gt;">
<g id="a_node9_8"><a xlink:href="XYCurve.Itr.html" xlink:title="de.lmu.ifi.dbs.elki.math.geometry.XYCurve.Itr" target="_parent">
<polygon fill="none" stroke="#000000" points="185.5,-107.5 185.5,-124.5 240.5,-124.5 240.5,-107.5 185.5,-107.5"/>
<text text-anchor="start" x="189.5" y="-115.1" font-family="Roboto" font-size="8.00" fill="#000000"> </text>
<text text-anchor="start" x="192.5" y="-115.1" font-family="Roboto" font-size="8.00" fill="#000000">XYCurve.Itr</text>
<text text-anchor="start" x="233.5" y="-115.1" font-family="Roboto" font-size="8.00" fill="#000000"> </text>
</a>
</g>
</a>
</g>
</g>
<!-- c497423&#45;&gt;c497424 -->
<g id="edge4" class="edge">
<title>c497423&#45;&gt;c497424</title>
<path fill="none" stroke="#000000" d="M94.2513,-116.5C121.7058,-116.5 159.5015,-116.5 184.9064,-116.5"/>
<polygon fill="none" stroke="#000000" points="94.0757,-116.5001 88.0756,-120.5 82.0757,-116.5 88.0757,-112.5 94.0757,-116.5001"/>
</g>
<!-- c497425 -->
<g id="node10" class="node">
<title>c497425</title>
<g id="a_node10"><a xlink:href="PrimsMinimumSpanningTree.html" xlink:title="&lt;TABLE&gt;">
<g id="a_node10_9"><a xlink:href="PrimsMinimumSpanningTree.html" xlink:title="de.lmu.ifi.dbs.elki.math.geometry.PrimsMinimumSpanningTree" target="_parent">
<polygon fill="none" stroke="#000000" points=".5,-160.5 .5,-177.5 119.5,-177.5 119.5,-160.5 .5,-160.5"/>
<text text-anchor="start" x="4.5" y="-168.1" font-family="Roboto" font-size="8.00" fill="#000000"> </text>
<text text-anchor="start" x="7.5" y="-168.1" font-family="Roboto" font-size="8.00" fill="#000000">PrimsMinimumSpanningTree</text>
<text text-anchor="start" x="112.5" y="-168.1" font-family="Roboto" font-size="8.00" fill="#000000"> </text>
</a>
</g>
</a>
</g>
</g>
<!-- c497426 -->
<g id="node11" class="node">
<title>c497426</title>
<g id="a_node11"><a xlink:href="PrimsMinimumSpanningTree.Adapter.html" xlink:title="&lt;TABLE&gt;">
<g id="a_node11_10"><a xlink:href="PrimsMinimumSpanningTree.Adapter.html" xlink:title="de.lmu.ifi.dbs.elki.math.geometry.PrimsMinimumSpanningTree.Adapter" target="_parent">
<polygon fill="none" stroke="#000000" points="138.5,-175.5 138.5,-203.5 287.5,-203.5 287.5,-175.5 138.5,-175.5"/>
<text text-anchor="start" x="191.5" y="-193.1" font-family="Roboto" font-size="8.00" fill="#000000"> «interface» </text>
<text text-anchor="start" x="142.5" y="-183.1" font-family="Roboto" font-size="8.00" fill="#000000"> </text>
<text text-anchor="start" x="145.5" y="-183.1" font-family="Roboto" font-size="8.00" fill="#000000">PrimsMinimumSpanningTree.Adapter</text>
<text text-anchor="start" x="280.5" y="-183.1" font-family="Roboto" font-size="8.00" fill="#000000"> </text>
</a>
</g>
</a>
</g>
</g>
<!-- c497425&#45;&gt;c497426 -->
<g id="edge5" class="edge">
<title>c497425&#45;&gt;c497426</title>
<path fill="none" stroke="#000000" d="M131.0069,-178.8473C133.2535,-179.141 135.5058,-179.4354 137.7561,-179.7296"/>
<polygon fill="#000000" stroke="#000000" points="130.9907,-178.8453 124.5228,-182.0338 119.0919,-177.2898 125.5598,-174.1013 130.9907,-178.8453"/>
</g>
<!-- c497427 -->
<g id="node12" class="node">
<title>c497427</title>
<g id="a_node12"><a xlink:href="PrimsMinimumSpanningTree.Collector.html" xlink:title="&lt;TABLE&gt;">
<g id="a_node12_11"><a xlink:href="PrimsMinimumSpanningTree.Collector.html" xlink:title="de.lmu.ifi.dbs.elki.math.geometry.PrimsMinimumSpanningTree.Collector" target="_parent">
<polygon fill="none" stroke="#000000" points="137.5,-136.5 137.5,-164.5 288.5,-164.5 288.5,-136.5 137.5,-136.5"/>
<text text-anchor="start" x="191.5" y="-154.1" font-family="Roboto" font-size="8.00" fill="#000000"> «interface» </text>
<text text-anchor="start" x="141.5" y="-144.1" font-family="Roboto" font-size="8.00" fill="#000000"> </text>
<text text-anchor="start" x="144.5" y="-144.1" font-family="Roboto" font-size="8.00" fill="#000000">PrimsMinimumSpanningTree.Collector</text>
<text text-anchor="start" x="281.5" y="-144.1" font-family="Roboto" font-size="8.00" fill="#000000"> </text>
</a>
</g>
</a>
</g>
</g>
<!-- c497425&#45;&gt;c497427 -->
<g id="edge6" class="edge">
<title>c497425&#45;&gt;c497427</title>
<path fill="none" stroke="#000000" d="M131.0752,-160.6116C133.0422,-160.3673 135.0135,-160.1225 136.984,-159.8778"/>
<polygon fill="#000000" stroke="#000000" points="131.0004,-160.6208 125.5391,-165.3297 119.0919,-162.0997 124.5532,-157.3907 131.0004,-160.6208"/>
</g>
<!-- c497428 -->
<g id="node13" class="node">
<title>c497428</title>
<g id="a_node13"><a xlink:href="PrimsMinimumSpanningTree.Array2DAdapter.html" xlink:title="&lt;TABLE&gt;">
<g id="a_node13_12"><a xlink:href="PrimsMinimumSpanningTree.Array2DAdapter.html" xlink:title="de.lmu.ifi.dbs.elki.math.geometry.PrimsMinimumSpanningTree.Array2DAdapter" target="_parent">
<polygon fill="none" stroke="#000000" points="306,-180.5 306,-197.5 486,-197.5 486,-180.5 306,-180.5"/>
<text text-anchor="start" x="310" y="-188.1" font-family="Roboto" font-size="8.00" fill="#000000"> </text>
<text text-anchor="start" x="313" y="-188.1" font-family="Roboto" font-size="8.00" fill="#000000">PrimsMinimumSpanningTree.Array2DAdapter</text>
<text text-anchor="start" x="479" y="-188.1" font-family="Roboto" font-size="8.00" fill="#000000"> </text>
</a>
</g>
</a>
</g>
</g>
<!-- c497426&#45;&gt;c497428 -->
<g id="edge7" class="edge">
<title>c497426&#45;&gt;c497428</title>
<path fill="none" stroke="#000000" stroke-dasharray="5,2" d="M297.306,-189.5C300.1306,-189.5 302.964,-189.5 305.7955,-189.5"/>
<polygon fill="none" stroke="#000000" points="297.1365,-186.0001 287.1365,-189.5 297.1364,-193.0001 297.1365,-186.0001"/>
</g>
<!-- c497429 -->
<g id="node14" class="node">
<title>c497429</title>
<g id="a_node14"><a xlink:href="AlphaShape.html" xlink:title="&lt;TABLE&gt;">
<g id="a_node14_13"><a xlink:href="AlphaShape.html" xlink:title="de.lmu.ifi.dbs.elki.math.geometry.AlphaShape" target="_parent">
<polygon fill="none" stroke="#000000" points="31.5,-51.5 31.5,-68.5 88.5,-68.5 88.5,-51.5 31.5,-51.5"/>
<text text-anchor="start" x="35.5" y="-59.1" font-family="Roboto" font-size="8.00" fill="#000000"> </text>
<text text-anchor="start" x="38.5" y="-59.1" font-family="Roboto" font-size="8.00" fill="#000000">AlphaShape</text>
<text text-anchor="start" x="81.5" y="-59.1" font-family="Roboto" font-size="8.00" fill="#000000"> </text>
</a>
</g>
</a>
</g>
</g>
<!-- c497429&#45;&gt;c497417 -->
<g id="edge8" class="edge">
<title>c497429&#45;&gt;c497417</title>
<path fill="none" stroke="#000000" d="M88.2781,-60.5C109.5727,-60.5 139.0811,-60.5 163.9946,-60.5"/>
</g>
<!-- c497429&#45;&gt;c497419 -->
<g id="edge10" class="edge">
<title>c497429&#45;&gt;c497419</title>
<path fill="none" stroke="#000000" d="M88.0419,-54.0843C102.6081,-51.1319 120.6583,-47.9642 137,-46.5 198.9309,-40.9511 269.526,-41.6886 321.3553,-43.5402"/>
<polygon fill="#000000" stroke="#000000" points="331.4628,-43.9238 321.2993,-48.0412 326.4664,-43.7341 321.47,-43.5444 321.47,-43.5444 321.47,-43.5444 326.4664,-43.7341 321.6407,-39.0477 331.4628,-43.9238 331.4628,-43.9238"/>
<text text-anchor="middle" x="329.4628" y="-38.3238" font-family="Roboto" font-size="7.00" fill="#000000">*</text>
</g>
</g>
</svg>
