<?xml version="1.0" encoding="UTF-8" standalone="no"?><svg xmlns="http://www.w3.org/2000/svg" xmlns:xlink="http://www.w3.org/1999/xlink" contentStyleType="text/css" height="802px" preserveAspectRatio="none" style="width:437px;height:802px;background:#FFFFFF;" version="1.1" viewBox="0 0 437 802" width="437px" zoomAndPan="magnify"><defs/><g><!--MD5=[746bcc9fe6e0e0041129c316efc3143a]
class elki.math.geometry.XYCurve--><a href="XYCurve.html" target="_top" title="XYCurve.html" xlink:actuate="onRequest" xlink:href="XYCurve.html" xlink:show="new" xlink:title="XYCurve.html" xlink:type="simple"><g id="elem_elki.math.geometry.XYCurve"><rect codeLine="6" fill="#F1F1F1" height="673.2188" id="elki.math.geometry.XYCurve" rx="2.5" ry="2.5" style="stroke:#181818;stroke-width:0.5;" width="421" x="9" y="7"/><ellipse cx="167.75" cy="25.9688" fill="#ADD1B2" rx="11" ry="11" style="stroke:#181818;stroke-width:1.0;"/><path d="M170.7188,31.6094 Q170.1406,31.9063 169.5,32.0469 Q168.8594,32.2031 168.1563,32.2031 Q165.6563,32.2031 164.3281,30.5625 Q163.0156,28.9063 163.0156,25.7813 Q163.0156,22.6563 164.3281,21 Q165.6563,19.3438 168.1563,19.3438 Q168.8594,19.3438 169.5,19.5 Q170.1563,19.6563 170.7188,19.9531 L170.7188,22.6719 Q170.0938,22.0938 169.5,21.8281 Q168.9063,21.5469 168.2813,21.5469 Q166.9375,21.5469 166.25,22.625 Q165.5625,23.6875 165.5625,25.7813 Q165.5625,27.875 166.25,28.9531 Q166.9375,30.0156 168.2813,30.0156 Q168.9063,30.0156 169.5,29.75 Q170.0938,29.4688 170.7188,28.8906 L170.7188,31.6094 Z " fill="#000000"/><text fill="#000000" font-family="sans-serif" font-size="14" lengthAdjust="spacing" textLength="60" x="205.75" y="24.9951">XYCurve</text><text fill="#000000" font-family="sans-serif" font-size="10" lengthAdjust="spacing" textLength="95" x="188.25" y="37.5791">elki.math.geometry</text><line style="stroke:#181818;stroke-width:0.5;" x1="10" x2="429" y1="44.9375" y2="44.9375"/><polygon fill="none" points="20,53.5859,24,57.5859,20,61.5859,16,57.5859" style="stroke:#B38D22;stroke-width:1.0;"/><text fill="#000000" font-family="sans-serif" font-size="14" lengthAdjust="spacing" text-decoration="underline" textLength="143" x="29" y="61.9326">THRESHOLD: double</text><polygon fill="none" points="20,69.8828,24,73.8828,20,77.8828,16,73.8828" style="stroke:#B38D22;stroke-width:1.0;"/><text fill="#000000" font-family="sans-serif" font-size="14" lengthAdjust="spacing" textLength="123" x="29" y="78.2295">data: DoubleArray</text><polygon fill="none" points="20,86.1797,24,90.1797,20,94.1797,16,90.1797" style="stroke:#B38D22;stroke-width:1.0;"/><text fill="#000000" font-family="sans-serif" font-size="14" lengthAdjust="spacing" textLength="88" x="29" y="94.5264">labelx: String</text><polygon fill="none" points="20,102.4766,24,106.4766,20,110.4766,16,106.4766" style="stroke:#B38D22;stroke-width:1.0;"/><text fill="#000000" font-family="sans-serif" font-size="14" lengthAdjust="spacing" textLength="88" x="29" y="110.8232">labely: String</text><polygon fill="none" points="20,118.7734,24,122.7734,20,126.7734,16,122.7734" style="stroke:#B38D22;stroke-width:1.0;"/><text fill="#000000" font-family="sans-serif" font-size="14" lengthAdjust="spacing" textLength="89" x="29" y="127.1201">minx: double</text><polygon fill="none" points="20,135.0703,24,139.0703,20,143.0703,16,139.0703" style="stroke:#B38D22;stroke-width:1.0;"/><text fill="#000000" font-family="sans-serif" font-size="14" lengthAdjust="spacing" textLength="92" x="29" y="143.417">maxx: double</text><polygon fill="none" points="20,151.3672,24,155.3672,20,159.3672,16,155.3672" style="stroke:#B38D22;stroke-width:1.0;"/><text fill="#000000" font-family="sans-serif" font-size="14" lengthAdjust="spacing" textLength="89" x="29" y="159.7139">miny: double</text><polygon fill="none" points="20,167.6641,24,171.6641,20,175.6641,16,171.6641" style="stroke:#B38D22;stroke-width:1.0;"/><text fill="#000000" font-family="sans-serif" font-size="14" lengthAdjust="spacing" textLength="92" x="29" y="176.0107">maxy: double</text><polygon fill="none" points="20,183.9609,24,187.9609,20,191.9609,16,187.9609" style="stroke:#B38D22;stroke-width:1.0;"/><text fill="#000000" font-family="sans-serif" font-size="14" lengthAdjust="spacing" textLength="98" x="29" y="192.3076">mindx: double</text><polygon fill="none" points="20,200.2578,24,204.2578,20,208.2578,16,204.2578" style="stroke:#B38D22;stroke-width:1.0;"/><text fill="#000000" font-family="sans-serif" font-size="14" lengthAdjust="spacing" textLength="101" x="29" y="208.6045">maxdx: double</text><polygon fill="none" points="20,216.5547,24,220.5547,20,224.5547,16,220.5547" style="stroke:#B38D22;stroke-width:1.0;"/><text fill="#000000" font-family="sans-serif" font-size="14" lengthAdjust="spacing" textLength="98" x="29" y="224.9014">mindy: double</text><polygon fill="none" points="20,232.8516,24,236.8516,20,240.8516,16,236.8516" style="stroke:#B38D22;stroke-width:1.0;"/><text fill="#000000" font-family="sans-serif" font-size="14" lengthAdjust="spacing" textLength="101" x="29" y="241.1982">maxdy: double</text><line style="stroke:#181818;stroke-width:0.5;" x1="10" x2="429" y1="248.5" y2="248.5"/><ellipse cx="20" cy="262.1484" fill="#84BE84" rx="3" ry="3" style="stroke:#038048;stroke-width:1.0;"/><text fill="#000000" font-family="sans-serif" font-size="14" lengthAdjust="spacing" textLength="158" x="29" y="265.4951">XYCurve(String, String)</text><ellipse cx="20" cy="278.4453" fill="#84BE84" rx="3" ry="3" style="stroke:#038048;stroke-width:1.0;"/><text fill="#000000" font-family="sans-serif" font-size="14" lengthAdjust="spacing" textLength="183" x="29" y="281.792">XYCurve(String, String, int)</text><ellipse cx="20" cy="294.7422" fill="#84BE84" rx="3" ry="3" style="stroke:#038048;stroke-width:1.0;"/><text fill="#000000" font-family="sans-serif" font-size="14" lengthAdjust="spacing" textLength="70" x="29" y="298.0889">XYCurve()</text><ellipse cx="20" cy="311.0391" fill="#84BE84" rx="3" ry="3" style="stroke:#038048;stroke-width:1.0;"/><text fill="#000000" font-family="sans-serif" font-size="14" lengthAdjust="spacing" textLength="87" x="29" y="314.3857">XYCurve(int)</text><ellipse cx="20" cy="327.3359" fill="#84BE84" rx="3" ry="3" style="stroke:#038048;stroke-width:1.0;"/><text fill="#000000" font-family="sans-serif" font-size="14" lengthAdjust="spacing" textLength="130" x="29" y="330.6826">XYCurve(XYCurve)</text><ellipse cx="20" cy="343.6328" fill="#84BE84" rx="3" ry="3" style="stroke:#038048;stroke-width:1.0;"/><text fill="#000000" font-family="sans-serif" font-size="14" lengthAdjust="spacing" textLength="177" x="29" y="346.9795">add(double, double): void</text><ellipse cx="20" cy="359.9297" fill="#84BE84" rx="3" ry="3" style="stroke:#038048;stroke-width:1.0;"/><text fill="#000000" font-family="sans-serif" font-size="14" lengthAdjust="spacing" textLength="255" x="29" y="363.2764">addAndSimplify(double, double): void</text><ellipse cx="20" cy="376.2266" fill="#84BE84" rx="3" ry="3" style="stroke:#038048;stroke-width:1.0;"/><text fill="#000000" font-family="sans-serif" font-size="14" lengthAdjust="spacing" textLength="125" x="29" y="379.5732">getLabelx(): String</text><ellipse cx="20" cy="392.5234" fill="#84BE84" rx="3" ry="3" style="stroke:#038048;stroke-width:1.0;"/><text fill="#000000" font-family="sans-serif" font-size="14" lengthAdjust="spacing" textLength="125" x="29" y="395.8701">getLabely(): String</text><ellipse cx="20" cy="408.8203" fill="#84BE84" rx="3" ry="3" style="stroke:#038048;stroke-width:1.0;"/><text fill="#000000" font-family="sans-serif" font-size="14" lengthAdjust="spacing" textLength="121" x="29" y="412.167">getMinx(): double</text><ellipse cx="20" cy="425.1172" fill="#84BE84" rx="3" ry="3" style="stroke:#038048;stroke-width:1.0;"/><text fill="#000000" font-family="sans-serif" font-size="14" lengthAdjust="spacing" textLength="124" x="29" y="428.4639">getMaxx(): double</text><ellipse cx="20" cy="441.4141" fill="#84BE84" rx="3" ry="3" style="stroke:#038048;stroke-width:1.0;"/><text fill="#000000" font-family="sans-serif" font-size="14" lengthAdjust="spacing" textLength="121" x="29" y="444.7607">getMiny(): double</text><ellipse cx="20" cy="457.7109" fill="#84BE84" rx="3" ry="3" style="stroke:#038048;stroke-width:1.0;"/><text fill="#000000" font-family="sans-serif" font-size="14" lengthAdjust="spacing" textLength="124" x="29" y="461.0576">getMaxy(): double</text><ellipse cx="20" cy="474.0078" fill="#84BE84" rx="3" ry="3" style="stroke:#038048;stroke-width:1.0;"/><text fill="#000000" font-family="sans-serif" font-size="14" lengthAdjust="spacing" textLength="130" x="29" y="477.3545">getMindx(): double</text><ellipse cx="20" cy="490.3047" fill="#84BE84" rx="3" ry="3" style="stroke:#038048;stroke-width:1.0;"/><text fill="#000000" font-family="sans-serif" font-size="14" lengthAdjust="spacing" textLength="133" x="29" y="493.6514">getMaxdx(): double</text><ellipse cx="20" cy="506.6016" fill="#84BE84" rx="3" ry="3" style="stroke:#038048;stroke-width:1.0;"/><text fill="#000000" font-family="sans-serif" font-size="14" lengthAdjust="spacing" textLength="130" x="29" y="509.9482">getMindy(): double</text><ellipse cx="20" cy="522.8984" fill="#84BE84" rx="3" ry="3" style="stroke:#038048;stroke-width:1.0;"/><text fill="#000000" font-family="sans-serif" font-size="14" lengthAdjust="spacing" textLength="133" x="29" y="526.2451">getMaxdy(): double</text><ellipse cx="20" cy="539.1953" fill="#84BE84" rx="3" ry="3" style="stroke:#038048;stroke-width:1.0;"/><text fill="#000000" font-family="sans-serif" font-size="14" lengthAdjust="spacing" textLength="118" x="29" y="542.542">getX(int): double</text><ellipse cx="20" cy="555.4922" fill="#84BE84" rx="3" ry="3" style="stroke:#038048;stroke-width:1.0;"/><text fill="#000000" font-family="sans-serif" font-size="14" lengthAdjust="spacing" textLength="116" x="29" y="558.8389">getY(int): double</text><ellipse cx="20" cy="571.7891" fill="#84BE84" rx="3" ry="3" style="stroke:#038048;stroke-width:1.0;"/><text fill="#000000" font-family="sans-serif" font-size="14" lengthAdjust="spacing" textLength="201" x="29" y="575.1357">rescale(double, double): void</text><ellipse cx="20" cy="588.0859" fill="#84BE84" rx="3" ry="3" style="stroke:#038048;stroke-width:1.0;"/><text fill="#000000" font-family="sans-serif" font-size="14" lengthAdjust="spacing" textLength="318" x="29" y="591.4326">setAxes(double, double, double, double): void</text><ellipse cx="20" cy="604.3828" fill="#84BE84" rx="3" ry="3" style="stroke:#038048;stroke-width:1.0;"/><text fill="#000000" font-family="sans-serif" font-size="14" lengthAdjust="spacing" textLength="395" x="29" y="607.7295">setDrawingBounds(double, double, double, double): void</text><ellipse cx="20" cy="620.6797" fill="#84BE84" rx="3" ry="3" style="stroke:#038048;stroke-width:1.0;"/><text fill="#000000" font-family="sans-serif" font-size="14" lengthAdjust="spacing" textLength="312" x="29" y="624.0264">isInDrawingBounds(double, double): boolean</text><ellipse cx="20" cy="636.9766" fill="#84BE84" rx="3" ry="3" style="stroke:#038048;stroke-width:1.0;"/><text fill="#000000" font-family="sans-serif" font-size="14" lengthAdjust="spacing" textLength="64" x="29" y="640.3232">size(): int</text><ellipse cx="20" cy="653.2734" fill="#84BE84" rx="3" ry="3" style="stroke:#038048;stroke-width:1.0;"/><text fill="#000000" font-family="sans-serif" font-size="14" lengthAdjust="spacing" textLength="81" x="29" y="656.6201">iterator(): Itr</text><ellipse cx="20" cy="669.5703" fill="#84BE84" rx="3" ry="3" style="stroke:#038048;stroke-width:1.0;"/><text fill="#000000" font-family="sans-serif" font-size="14" lengthAdjust="spacing" text-decoration="underline" textLength="239" x="29" y="672.917">areaUnderCurve(XYCurve): double</text></g></a><!--MD5=[076a7e4472ca2a40d6534f0aca6ab292]
class elki.math.geometry.XYCurve.Itr--><a href="XYCurve.Itr.html" target="_top" title="XYCurve.Itr.html" xlink:actuate="onRequest" xlink:href="XYCurve.Itr.html" xlink:show="new" xlink:title="XYCurve.Itr.html" xlink:type="simple"><g id="elem_elki.math.geometry.XYCurve.Itr"><rect codeLine="46" fill="#F1F1F1" height="37.9375" id="elki.math.geometry.XYCurve.Itr" rx="2.5" ry="2.5" style="stroke:#181818;stroke-width:0.5;" width="127" x="156" y="740"/><ellipse cx="171" cy="758.9688" fill="#ADD1B2" rx="11" ry="11" style="stroke:#181818;stroke-width:1.0;"/><path d="M173.9688,764.6094 Q173.3906,764.9063 172.75,765.0469 Q172.1094,765.2031 171.4063,765.2031 Q168.9063,765.2031 167.5781,763.5625 Q166.2656,761.9063 166.2656,758.7813 Q166.2656,755.6563 167.5781,754 Q168.9063,752.3438 171.4063,752.3438 Q172.1094,752.3438 172.75,752.5 Q173.4063,752.6563 173.9688,752.9531 L173.9688,755.6719 Q173.3438,755.0938 172.75,754.8281 Q172.1563,754.5469 171.5313,754.5469 Q170.1875,754.5469 169.5,755.625 Q168.8125,756.6875 168.8125,758.7813 Q168.8125,760.875 169.5,761.9531 Q170.1875,763.0156 171.5313,763.0156 Q172.1563,763.0156 172.75,762.75 Q173.3438,762.4688 173.9688,761.8906 L173.9688,764.6094 Z " fill="#000000"/><text fill="#000000" font-family="sans-serif" font-size="14" lengthAdjust="spacing" textLength="77" x="194" y="757.9951">XYCurve.Itr</text><text fill="#000000" font-family="sans-serif" font-size="10" lengthAdjust="spacing" textLength="95" x="185" y="770.5791">elki.math.geometry</text></g></a><!--MD5=[deeaeadd2b07c50b85884299df3e97a3]
reverse link elki.math.geometry.XYCurve to elki.math.geometry.XYCurve.Itr--><g id="link_elki.math.geometry.XYCurve_elki.math.geometry.XYCurve.Itr"><path codeLine="48" d="M219.5,695.44 C219.5,713.64 219.5,728.88 219.5,739.75 " fill="none" id="elki.math.geometry.XYCurve-backto-elki.math.geometry.XYCurve.Itr" style="stroke:#181818;stroke-width:1.0;"/><ellipse cx="219.5" cy="688.22" fill="#FFFFFF" rx="8" ry="8" style="stroke:#181818;stroke-width:1.0;"/><line style="stroke:#181818;stroke-width:1.0;" x1="219.5" x2="219.5" y1="696.22" y2="680.22"/><line style="stroke:#181818;stroke-width:1.0;" x1="211.5" x2="227.5" y1="688.22" y2="688.22"/></g><rect fill="none" height="11.6406" style="stroke:none;stroke-width:1.0;" width="186" x="118.5" y="782.9375"/><text fill="#888888" font-family="sans-serif" font-size="10" lengthAdjust="spacing" textLength="186" x="118.5" y="792.2197">UMLDoclet 2.0.19, PlantUML 1.2022.8</text><!--MD5=[caf3128df9de33b3eeeb52ccff7a4582]
@startuml
    remove .*\.(Instance|Par|Parameterizer|Factory)$
    set namespaceSeparator none
    hide empty fields
    hide empty methods

    class "<size:14>XYCurve\n<size:10>elki.math.geometry" as elki.math.geometry.XYCurve [[XYCurve.html]] {
        {static} #THRESHOLD: double
        #data: DoubleArray
        #labelx: String
        #labely: String
        #minx: double
        #maxx: double
        #miny: double
        #maxy: double
        #mindx: double
        #maxdx: double
        #mindy: double
        #maxdy: double
        +XYCurve(String, String)
        +XYCurve(String, String, int)
        +XYCurve()
        +XYCurve(int)
        +XYCurve(XYCurve)
        +add(double, double): void
        +addAndSimplify(double, double): void
        +getLabelx(): String
        +getLabely(): String
        +getMinx(): double
        +getMaxx(): double
        +getMiny(): double
        +getMaxy(): double
        +getMindx(): double
        +getMaxdx(): double
        +getMindy(): double
        +getMaxdy(): double
        +getX(int): double
        +getY(int): double
        +rescale(double, double): void
        +setAxes(double, double, double, double): void
        +setDrawingBounds(double, double, double, double): void
        +isInDrawingBounds(double, double): boolean
        +size(): int
        +iterator(): Itr
        {static} +areaUnderCurve(XYCurve): double
    }
    class "<size:14>XYCurve.Itr\n<size:10>elki.math.geometry" as elki.math.geometry.XYCurve.Itr [[XYCurve.Itr.html]]

    elki.math.geometry.XYCurve +- - elki.math.geometry.XYCurve.Itr

    center footer UMLDoclet 2.0.19, PlantUML 1.2022.8
@enduml

PlantUML version 1.2022.8(Sun Sep 25 11:00:33 CEST 2022)
(APACHE source distribution)
Java Runtime: OpenJDK Runtime Environment
JVM: OpenJDK 64-Bit Server VM
Default Encoding: UTF-8
Language: de
Country: DE
--></g></svg>