<?xml version="1.0" encoding="UTF-8" standalone="no"?>
<!DOCTYPE svg PUBLIC "-//W3C//DTD SVG 1.1//EN"
 "http://www.w3.org/Graphics/SVG/1.1/DTD/svg11.dtd">
<!-- Generated by graphviz version 2.40.1 (20161225.0304)
 -->
<!-- Title: G Pages: 1 -->
<svg width="221pt" height="25pt"
 viewBox="0.00 0.00 221.00 25.00" xmlns="http://www.w3.org/2000/svg" xmlns:xlink="http://www.w3.org/1999/xlink">
<g id="graph0" class="graph" transform="scale(1 1) rotate(0) translate(4 21)">
<title>G</title>
<polygon fill="#ffffff" stroke="transparent" points="-4,4 -4,-21 217,-21 217,4 -4,4"/>
<!-- c2272311 -->
<g id="node1" class="node">
<title>c2272311</title>
<g id="a_node1"><a xlink:href="AbstractNeighborhoodOutlier.html" xlink:title="&lt;TABLE&gt;">
<g id="a_node1_0"><a xlink:href="AbstractNeighborhoodOutlier.html" xlink:title="de.lmu.ifi.dbs.elki.algorithm.outlier.spatial.AbstractNeighborhoodOutlier" target="_parent">
<polygon fill="none" stroke="#000000" points=".5,.5 .5,-16.5 117.5,-16.5 117.5,.5 .5,.5"/>
<text text-anchor="start" x="4.5" y="-7.1" font-family="Roboto" font-size="8.00" fill="#000000"> </text>
<text text-anchor="start" x="7.5" y="-7.1" font-family="Roboto" font-style="italic" font-size="8.00" fill="#000000">AbstractNeighborhoodOutlier</text>
<text text-anchor="start" x="110.5" y="-7.1" font-family="Roboto" font-size="8.00" fill="#000000"> </text>
</a>
</g>
</a>
</g>
</g>
<!-- c2272354 -->
<g id="node2" class="node">
<title>c2272354</title>
<g id="a_node2"><a xlink:href="CTLuZTestOutlier.html" xlink:title="&lt;TABLE&gt;">
<g id="a_node2_1"><a xlink:href="CTLuZTestOutlier.html" xlink:title="de.lmu.ifi.dbs.elki.algorithm.outlier.spatial.CTLuZTestOutlier" target="_parent">
<polygon fill="#fffacd" stroke="transparent" points="135,0 135,-17 213,-17 213,0 135,0"/>
<polygon fill="none" stroke="#000000" points="135,.5 135,-16.5 213,-16.5 213,.5 135,.5"/>
<text text-anchor="start" x="139" y="-7.1" font-family="Roboto" font-size="8.00" fill="#000000"> </text>
<text text-anchor="start" x="142" y="-7.1" font-family="Roboto" font-size="8.00" fill="#000000">CTLuZTestOutlier</text>
<text text-anchor="start" x="206" y="-7.1" font-family="Roboto" font-size="8.00" fill="#000000"> </text>
</a>
</g>
</a>
</g>
</g>
<!-- c2272311&#45;&gt;c2272354 -->
<g id="edge1" class="edge">
<title>c2272311&#45;&gt;c2272354</title>
<path fill="none" stroke="#000000" d="M127.4483,-8.5C129.8986,-8.5 132.321,-8.5 134.6967,-8.5"/>
<polygon fill="none" stroke="#000000" points="127.2651,-5.0001 117.2651,-8.5 127.2651,-12.0001 127.2651,-5.0001"/>
</g>
</g>
</svg>
