<?xml version="1.0" encoding="UTF-8" standalone="no"?>
<!DOCTYPE svg PUBLIC "-//W3C//DTD SVG 1.1//EN"
 "http://www.w3.org/Graphics/SVG/1.1/DTD/svg11.dtd">
<!-- Generated by graphviz version 2.40.1 (20161225.0304)
 -->
<!-- Title: G Pages: 1 -->
<svg width="372pt" height="47pt"
 viewBox="0.00 0.00 372.00 47.00" xmlns="http://www.w3.org/2000/svg" xmlns:xlink="http://www.w3.org/1999/xlink">
<g id="graph0" class="graph" transform="scale(1 1) rotate(0) translate(4 43)">
<title>G</title>
<polygon fill="#ffffff" stroke="transparent" points="-4,4 -4,-43 368,-43 368,4 -4,4"/>
<!-- c2244974 -->
<g id="node1" class="node">
<title>c2244974</title>
<g id="a_node1"><a xlink:href="../../../data/NumberVector.html" xlink:title="&lt;TABLE&gt;">
<g id="a_node1_0"><a xlink:href="../../../data/NumberVector.html" xlink:title="de.lmu.ifi.dbs.elki.data.NumberVector" target="_parent">
<polygon fill="#fffacd" stroke="transparent" points="277,0 277,-39 364,-39 364,0 277,0"/>
<polygon fill="none" stroke="#000000" points="277.5,.5 277.5,-38.5 364.5,-38.5 364.5,.5 277.5,.5"/>
<text text-anchor="start" x="299.5" y="-28.1" font-family="Roboto" font-size="8.00" fill="#000000"> «interface» </text>
<text text-anchor="start" x="292.5" y="-18.1" font-family="Roboto" font-size="8.00" fill="#000000"> </text>
<text text-anchor="start" x="295.5" y="-18.1" font-family="Roboto" font-size="8.00" fill="#000000">NumberVector</text>
<text text-anchor="start" x="346.5" y="-18.1" font-family="Roboto" font-size="8.00" fill="#000000"> </text>
<text text-anchor="start" x="281.5" y="-7.1" font-family="Roboto" font-size="8.00" fill="#000000"> </text>
<text text-anchor="start" x="284.5" y="-7.1" font-family="Roboto" font-size="7.00" fill="#000000">de.lmu.ifi.dbs.elki.data</text>
<text text-anchor="start" x="357.5" y="-7.1" font-family="Roboto" font-size="8.00" fill="#000000"> </text>
</a>
</g>
</a>
</g>
</g>
<!-- c2246731 -->
<g id="node2" class="node">
<title>c2246731</title>
<g id="a_node2"><a xlink:href="AbstractNeighborhoodOutlier.html" xlink:title="&lt;TABLE&gt;">
<g id="a_node2_1"><a xlink:href="AbstractNeighborhoodOutlier.html" xlink:title="de.lmu.ifi.dbs.elki.algorithm.outlier.spatial.AbstractNeighborhoodOutlier" target="_parent">
<polygon fill="none" stroke="#000000" points=".5,-10.5 .5,-27.5 117.5,-27.5 117.5,-10.5 .5,-10.5"/>
<text text-anchor="start" x="4.5" y="-18.1" font-family="Roboto" font-size="8.00" fill="#000000"> </text>
<text text-anchor="start" x="7.5" y="-18.1" font-family="Roboto" font-style="italic" font-size="8.00" fill="#000000">AbstractNeighborhoodOutlier</text>
<text text-anchor="start" x="110.5" y="-18.1" font-family="Roboto" font-size="8.00" fill="#000000"> </text>
</a>
</g>
</a>
</g>
</g>
<!-- c2246758 -->
<g id="node3" class="node">
<title>c2246758</title>
<g id="a_node3"><a xlink:href="CTLuMedianMultipleAttributes.html" xlink:title="&lt;TABLE&gt;">
<g id="a_node3_2"><a xlink:href="CTLuMedianMultipleAttributes.html" xlink:title="de.lmu.ifi.dbs.elki.algorithm.outlier.spatial.CTLuMedianMultipleAttributes" target="_parent">
<polygon fill="#fffacd" stroke="transparent" points="135,-11 135,-28 259,-28 259,-11 135,-11"/>
<polygon fill="none" stroke="#000000" points="135,-10.5 135,-27.5 259,-27.5 259,-10.5 135,-10.5"/>
<text text-anchor="start" x="139" y="-18.1" font-family="Roboto" font-size="8.00" fill="#000000"> </text>
<text text-anchor="start" x="142" y="-18.1" font-family="Roboto" font-size="8.00" fill="#000000">CTLuMedianMultipleAttributes</text>
<text text-anchor="start" x="252" y="-18.1" font-family="Roboto" font-size="8.00" fill="#000000"> </text>
</a>
</g>
</a>
</g>
</g>
<!-- c2246731&#45;&gt;c2246758 -->
<g id="edge1" class="edge">
<title>c2246731&#45;&gt;c2246758</title>
<path fill="none" stroke="#000000" d="M127.278,-19.5C129.7293,-19.5 132.1814,-19.5 134.622,-19.5"/>
<polygon fill="none" stroke="#000000" points="127.2365,-16.0001 117.2365,-19.5 127.2364,-23.0001 127.2365,-16.0001"/>
</g>
<!-- c2246758&#45;&gt;c2244974 -->
<g id="edge2" class="edge">
<title>c2246758&#45;&gt;c2244974</title>
<path fill="none" stroke="#000000" stroke-dasharray="5,2" d="M259.1118,-19.5C261.6459,-19.5 264.1791,-19.5 266.6944,-19.5"/>
<polygon fill="#000000" stroke="#000000" points="276.8906,-19.5 266.8907,-24.0001 271.8906,-19.5 266.8906,-19.5001 266.8906,-19.5001 266.8906,-19.5001 271.8906,-19.5 266.8906,-15.0001 276.8906,-19.5 276.8906,-19.5"/>
</g>
</g>
</svg>
