<?xml version="1.0" encoding="UTF-8" standalone="no"?>
<!DOCTYPE svg PUBLIC "-//W3C//DTD SVG 1.1//EN"
 "http://www.w3.org/Graphics/SVG/1.1/DTD/svg11.dtd">
<!-- Generated by graphviz version 2.40.1 (20161225.0304)
 -->
<!-- Title: G Pages: 1 -->
<svg width="261pt" height="25pt"
 viewBox="0.00 0.00 261.00 25.00" xmlns="http://www.w3.org/2000/svg" xmlns:xlink="http://www.w3.org/1999/xlink">
<g id="graph0" class="graph" transform="scale(1 1) rotate(0) translate(4 21)">
<title>G</title>
<polygon fill="#ffffff" stroke="transparent" points="-4,4 -4,-21 257,-21 257,4 -4,4"/>
<!-- c2253126 -->
<g id="node1" class="node">
<title>c2253126</title>
<g id="a_node1"><a xlink:href="AbstractNeighborhoodOutlier.html" xlink:title="&lt;TABLE&gt;">
<g id="a_node1_0"><a xlink:href="AbstractNeighborhoodOutlier.html" xlink:title="de.lmu.ifi.dbs.elki.algorithm.outlier.spatial.AbstractNeighborhoodOutlier" target="_parent">
<polygon fill="none" stroke="#000000" points=".5,.5 .5,-16.5 117.5,-16.5 117.5,.5 .5,.5"/>
<text text-anchor="start" x="4.5" y="-7.1" font-family="Roboto" font-size="8.00" fill="#000000"> </text>
<text text-anchor="start" x="7.5" y="-7.1" font-family="Roboto" font-style="italic" font-size="8.00" fill="#000000">AbstractNeighborhoodOutlier</text>
<text text-anchor="start" x="110.5" y="-7.1" font-family="Roboto" font-size="8.00" fill="#000000"> </text>
</a>
</g>
</a>
</g>
</g>
<!-- c2253159 -->
<g id="node2" class="node">
<title>c2253159</title>
<g id="a_node2"><a xlink:href="CTLuMoranScatterplotOutlier.html" xlink:title="&lt;TABLE&gt;">
<g id="a_node2_1"><a xlink:href="CTLuMoranScatterplotOutlier.html" xlink:title="de.lmu.ifi.dbs.elki.algorithm.outlier.spatial.CTLuMoranScatterplotOutlier" target="_parent">
<polygon fill="#fffacd" stroke="transparent" points="135,0 135,-17 253,-17 253,0 135,0"/>
<polygon fill="none" stroke="#000000" points="135,.5 135,-16.5 253,-16.5 253,.5 135,.5"/>
<text text-anchor="start" x="139" y="-7.1" font-family="Roboto" font-size="8.00" fill="#000000"> </text>
<text text-anchor="start" x="142" y="-7.1" font-family="Roboto" font-size="8.00" fill="#000000">CTLuMoranScatterplotOutlier</text>
<text text-anchor="start" x="246" y="-7.1" font-family="Roboto" font-size="8.00" fill="#000000"> </text>
</a>
</g>
</a>
</g>
</g>
<!-- c2253126&#45;&gt;c2253159 -->
<g id="edge1" class="edge">
<title>c2253126&#45;&gt;c2253159</title>
<path fill="none" stroke="#000000" d="M127.3745,-8.5C129.8686,-8.5 132.3607,-8.5 134.8372,-8.5"/>
<polygon fill="none" stroke="#000000" points="127.1442,-5.0001 117.1442,-8.5 127.1442,-12.0001 127.1442,-5.0001"/>
</g>
</g>
</svg>
