<?xml version="1.0" encoding="UTF-8" standalone="no"?><svg xmlns="http://www.w3.org/2000/svg" xmlns:xlink="http://www.w3.org/1999/xlink" contentStyleType="text/css" height="436px" preserveAspectRatio="none" style="width:286px;height:436px;background:#FFFFFF;" version="1.1" viewBox="0 0 286 436" width="286px" zoomAndPan="magnify"><defs/><g><!--MD5=[1f3ccc3c39a9b27e5fedddaa8e0a580f]
class elki.math.statistics.distribution.UniformDistribution--><a href="UniformDistribution.html" target="_top" title="UniformDistribution.html" xlink:actuate="onRequest" xlink:href="UniformDistribution.html" xlink:show="new" xlink:title="UniformDistribution.html" xlink:type="simple"><g id="elem_elki.math.statistics.distribution.UniformDistribution"><rect codeLine="6" fill="#F1F1F1" height="233.2031" id="elki.math.statistics.distribution.UniformDistribution" rx="2.5" ry="2.5" style="stroke:#181818;stroke-width:0.5;" width="272" x="7" y="178"/><ellipse cx="66.25" cy="196.9688" fill="#ADD1B2" rx="11" ry="11" style="stroke:#181818;stroke-width:1.0;"/><path d="M69.2188,202.6094 Q68.6406,202.9063 68,203.0469 Q67.3594,203.2031 66.6563,203.2031 Q64.1563,203.2031 62.8281,201.5625 Q61.5156,199.9063 61.5156,196.7813 Q61.5156,193.6563 62.8281,192 Q64.1563,190.3438 66.6563,190.3438 Q67.3594,190.3438 68,190.5 Q68.6563,190.6563 69.2188,190.9531 L69.2188,193.6719 Q68.5938,193.0938 68,192.8281 Q67.4063,192.5469 66.7813,192.5469 Q65.4375,192.5469 64.75,193.625 Q64.0625,194.6875 64.0625,196.7813 Q64.0625,198.875 64.75,199.9531 Q65.4375,201.0156 66.7813,201.0156 Q67.4063,201.0156 68,200.75 Q68.5938,200.4688 69.2188,199.8906 L69.2188,202.6094 Z " fill="#000000"/><text fill="#000000" font-family="sans-serif" font-size="14" lengthAdjust="spacing" textLength="132" x="93.25" y="195.9951">UniformDistribution</text><text fill="#000000" font-family="sans-serif" font-size="10" lengthAdjust="spacing" textLength="145" x="86.75" y="208.5791">elki.math.statistics.distribution</text><line style="stroke:#181818;stroke-width:0.5;" x1="8" x2="278" y1="215.9375" y2="215.9375"/><rect fill="none" height="6" style="stroke:#C82930;stroke-width:1.0;" width="6" x="15" y="226.5859"/><text fill="#000000" font-family="sans-serif" font-size="14" lengthAdjust="spacing" textLength="82" x="27" y="232.9326">min: double</text><rect fill="none" height="6" style="stroke:#C82930;stroke-width:1.0;" width="6" x="15" y="242.8828"/><text fill="#000000" font-family="sans-serif" font-size="14" lengthAdjust="spacing" textLength="85" x="27" y="249.2295">max: double</text><rect fill="none" height="6" style="stroke:#C82930;stroke-width:1.0;" width="6" x="15" y="259.1797"/><text fill="#000000" font-family="sans-serif" font-size="14" lengthAdjust="spacing" textLength="78" x="27" y="265.5264">len: double</text><line style="stroke:#181818;stroke-width:0.5;" x1="8" x2="278" y1="272.8281" y2="272.8281"/><ellipse cx="18" cy="286.4766" fill="#84BE84" rx="3" ry="3" style="stroke:#038048;stroke-width:1.0;"/><text fill="#000000" font-family="sans-serif" font-size="14" lengthAdjust="spacing" textLength="246" x="27" y="289.8232">UniformDistribution(double, double)</text><ellipse cx="18" cy="302.7734" fill="#84BE84" rx="3" ry="3" style="stroke:#038048;stroke-width:1.0;"/><text fill="#000000" font-family="sans-serif" font-size="14" lengthAdjust="spacing" textLength="137" x="27" y="306.1201">pdf(double): double</text><ellipse cx="18" cy="319.0703" fill="#84BE84" rx="3" ry="3" style="stroke:#038048;stroke-width:1.0;"/><text fill="#000000" font-family="sans-serif" font-size="14" lengthAdjust="spacing" textLength="158" x="27" y="322.417">logpdf(double): double</text><ellipse cx="18" cy="335.3672" fill="#84BE84" rx="3" ry="3" style="stroke:#038048;stroke-width:1.0;"/><text fill="#000000" font-family="sans-serif" font-size="14" lengthAdjust="spacing" textLength="136" x="27" y="338.7139">cdf(double): double</text><ellipse cx="18" cy="351.6641" fill="#84BE84" rx="3" ry="3" style="stroke:#038048;stroke-width:1.0;"/><text fill="#000000" font-family="sans-serif" font-size="14" lengthAdjust="spacing" textLength="170" x="27" y="355.0107">quantile(double): double</text><ellipse cx="18" cy="367.9609" fill="#84BE84" rx="3" ry="3" style="stroke:#038048;stroke-width:1.0;"/><text fill="#000000" font-family="sans-serif" font-size="14" lengthAdjust="spacing" textLength="213" x="27" y="371.3076">nextRandom(Random): double</text><ellipse cx="18" cy="384.2578" fill="#84BE84" rx="3" ry="3" style="stroke:#038048;stroke-width:1.0;"/><text fill="#000000" font-family="sans-serif" font-size="14" lengthAdjust="spacing" textLength="114" x="27" y="387.6045">getMin(): double</text><ellipse cx="18" cy="400.5547" fill="#84BE84" rx="3" ry="3" style="stroke:#038048;stroke-width:1.0;"/><text fill="#000000" font-family="sans-serif" font-size="14" lengthAdjust="spacing" textLength="117" x="27" y="403.9014">getMax(): double</text></g></a><!--MD5=[cc58850dd61d4e522e7c2578483fb694]
class elki.math.statistics.distribution.Distribution--><a href="Distribution.html" target="_top" title="Distribution.html" xlink:actuate="onRequest" xlink:href="Distribution.html" xlink:show="new" xlink:title="Distribution.html" xlink:type="simple"><g id="elem_elki.math.statistics.distribution.Distribution"><rect codeLine="20" fill="#F1F1F1" height="111.125" id="elki.math.statistics.distribution.Distribution" rx="2.5" ry="2.5" style="stroke:#181818;stroke-width:0.5;" width="201" x="42.5" y="7"/><ellipse cx="64.25" cy="25.9688" fill="#B4A7E5" rx="11" ry="11" style="stroke:#181818;stroke-width:1.0;"/><path d="M60.1719,21.7344 L60.1719,19.5781 L67.5625,19.5781 L67.5625,21.7344 L65.0938,21.7344 L65.0938,29.8125 L67.5625,29.8125 L67.5625,31.9688 L60.1719,31.9688 L60.1719,29.8125 L62.6406,29.8125 L62.6406,21.7344 L60.1719,21.7344 Z " fill="#000000"/><text fill="#000000" font-family="sans-serif" font-size="14" font-style="italic" lengthAdjust="spacing" textLength="81" x="116.25" y="24.9951">Distribution</text><text fill="#000000" font-family="sans-serif" font-size="10" font-style="italic" lengthAdjust="spacing" textLength="154" x="79.75" y="37.5791">elki.math.statistics.distribution</text><line style="stroke:#181818;stroke-width:0.5;" x1="43.5" x2="242.5" y1="44.9375" y2="44.9375"/><ellipse cx="53.5" cy="58.5859" fill="#84BE84" rx="3" ry="3" style="stroke:#038048;stroke-width:1.0;"/><text fill="#000000" font-family="sans-serif" font-size="14" font-style="italic" lengthAdjust="spacing" textLength="140" x="62.5" y="61.9326">pdf(double): double</text><ellipse cx="53.5" cy="74.8828" fill="#84BE84" rx="3" ry="3" style="stroke:#038048;stroke-width:1.0;"/><text fill="#000000" font-family="sans-serif" font-size="14" font-style="italic" lengthAdjust="spacing" textLength="162" x="62.5" y="78.2295">logpdf(double): double</text><ellipse cx="53.5" cy="91.1797" fill="#84BE84" rx="3" ry="3" style="stroke:#038048;stroke-width:1.0;"/><text fill="#000000" font-family="sans-serif" font-size="14" font-style="italic" lengthAdjust="spacing" textLength="139" x="62.5" y="94.5264">cdf(double): double</text><ellipse cx="53.5" cy="107.4766" fill="#84BE84" rx="3" ry="3" style="stroke:#038048;stroke-width:1.0;"/><text fill="#000000" font-family="sans-serif" font-size="14" font-style="italic" lengthAdjust="spacing" textLength="175" x="62.5" y="110.8232">quantile(double): double</text></g></a><!--MD5=[7498c0f8e1723ecdb15a7bc9c84ce414]
reverse link elki.math.statistics.distribution.Distribution to elki.math.statistics.distribution.UniformDistribution--><g id="link_elki.math.statistics.distribution.Distribution_elki.math.statistics.distribution.UniformDistribution"><path codeLine="28" d="M143,138.44 C143,151.06 143,164.43 143,177.81 " fill="none" id="elki.math.statistics.distribution.Distribution-backto-elki.math.statistics.distribution.UniformDistribution" style="stroke:#181818;stroke-width:1.0;stroke-dasharray:7.0,7.0;"/><polygon fill="none" points="136,138.01,143,118.01,150,138.01,136,138.01" style="stroke:#181818;stroke-width:1.0;"/></g><rect fill="none" height="11.6406" style="stroke:none;stroke-width:1.0;" width="186" x="43" y="417.2031"/><text fill="#888888" font-family="sans-serif" font-size="10" lengthAdjust="spacing" textLength="186" x="43" y="426.4854">UMLDoclet 2.0.19, PlantUML 1.2022.8</text><!--MD5=[c4e1078e6db8a12e247b9ab0fd6eebdd]
@startuml
    remove .*\.(Instance|Par|Parameterizer|Factory)$
    set namespaceSeparator none
    hide empty fields
    hide empty methods

    class "<size:14>UniformDistribution\n<size:10>elki.math.statistics.distribution" as elki.math.statistics.distribution.UniformDistribution [[UniformDistribution.html]] {
        -min: double
        -max: double
        -len: double
        +UniformDistribution(double, double)
        +pdf(double): double
        +logpdf(double): double
        +cdf(double): double
        +quantile(double): double
        +nextRandom(Random): double
        +getMin(): double
        +getMax(): double
    }

    interface "<size:14>Distribution\n<size:10>elki.math.statistics.distribution" as elki.math.statistics.distribution.Distribution [[Distribution.html]] {
        {abstract} +pdf(double): double
        {abstract} +logpdf(double): double
        {abstract} +cdf(double): double
        {abstract} +quantile(double): double
    }
    class "<size:14>UniformDistribution.Par\n<size:10>elki.math.statistics.distribution" as elki.math.statistics.distribution.UniformDistribution.Par [[UniformDistribution.Par.html]]

    elki.math.statistics.distribution.Distribution <|.. elki.math.statistics.distribution.UniformDistribution
    elki.math.statistics.distribution.UniformDistribution +- - elki.math.statistics.distribution.UniformDistribution.Par

    center footer UMLDoclet 2.0.19, PlantUML 1.2022.8
@enduml

PlantUML version 1.2022.8(Sun Sep 25 11:00:33 CEST 2022)
(APACHE source distribution)
Java Runtime: OpenJDK Runtime Environment
JVM: OpenJDK 64-Bit Server VM
Default Encoding: UTF-8
Language: de
Country: DE
--></g></svg>