<?xml version="1.0" encoding="UTF-8" standalone="no"?>
<!DOCTYPE svg PUBLIC "-//W3C//DTD SVG 1.1//EN"
 "http://www.w3.org/Graphics/SVG/1.1/DTD/svg11.dtd">
<!-- Generated by graphviz version 2.40.1 (20161225.0304)
 -->
<!-- Title: G Pages: 1 -->
<svg width="230pt" height="25pt"
 viewBox="0.00 0.00 230.00 25.00" xmlns="http://www.w3.org/2000/svg" xmlns:xlink="http://www.w3.org/1999/xlink">
<g id="graph0" class="graph" transform="scale(1 1) rotate(0) translate(4 21)">
<title>G</title>
<polygon fill="#ffffff" stroke="transparent" points="-4,4 -4,-21 226,-21 226,4 -4,4"/>
<!-- c1574551 -->
<g id="node1" class="node">
<title>c1574551</title>
<g id="a_node1"><a xlink:href="AbstractSimilarityAdapter.html" xlink:title="&lt;TABLE&gt;">
<g id="a_node1_0"><a xlink:href="AbstractSimilarityAdapter.html" xlink:title="de.lmu.ifi.dbs.elki.distance.distancefunction.adapter.AbstractSimilarityAdapter" target="_parent">
<polygon fill="none" stroke="#000000" points=".5,.5 .5,-16.5 105.5,-16.5 105.5,.5 .5,.5"/>
<text text-anchor="start" x="4.5" y="-7.1" font-family="Roboto" font-size="8.00" fill="#000000"> </text>
<text text-anchor="start" x="7.5" y="-7.1" font-family="Roboto" font-style="italic" font-size="8.00" fill="#000000">AbstractSimilarityAdapter</text>
<text text-anchor="start" x="98.5" y="-7.1" font-family="Roboto" font-size="8.00" fill="#000000"> </text>
</a>
</g>
</a>
</g>
</g>
<!-- c1574557 -->
<g id="node2" class="node">
<title>c1574557</title>
<g id="a_node2"><a xlink:href="ArccosSimilarityAdapter.html" xlink:title="&lt;TABLE&gt;">
<g id="a_node2_1"><a xlink:href="ArccosSimilarityAdapter.html" xlink:title="de.lmu.ifi.dbs.elki.distance.distancefunction.adapter.ArccosSimilarityAdapter" target="_parent">
<polygon fill="#fffacd" stroke="transparent" points="123,0 123,-17 222,-17 222,0 123,0"/>
<polygon fill="none" stroke="#000000" points="123.5,.5 123.5,-16.5 222.5,-16.5 222.5,.5 123.5,.5"/>
<text text-anchor="start" x="127.5" y="-7.1" font-family="Roboto" font-size="8.00" fill="#000000"> </text>
<text text-anchor="start" x="130.5" y="-7.1" font-family="Roboto" font-size="8.00" fill="#000000">ArccosSimilarityAdapter</text>
<text text-anchor="start" x="215.5" y="-7.1" font-family="Roboto" font-size="8.00" fill="#000000"> </text>
</a>
</g>
</a>
</g>
</g>
<!-- c1574551&#45;&gt;c1574557 -->
<g id="edge1" class="edge">
<title>c1574551&#45;&gt;c1574557</title>
<path fill="none" stroke="#000000" d="M115.1733,-8.5C117.7783,-8.5 120.3766,-8.5 122.9485,-8.5"/>
<polygon fill="none" stroke="#000000" points="115.1338,-5.0001 105.1337,-8.5 115.1337,-12.0001 115.1338,-5.0001"/>
</g>
</g>
</svg>
