<?xml version="1.0" encoding="UTF-8" standalone="no"?>
<!DOCTYPE svg PUBLIC "-//W3C//DTD SVG 1.1//EN"
 "http://www.w3.org/Graphics/SVG/1.1/DTD/svg11.dtd">
<!-- Generated by graphviz version 2.40.1 (20161225.0304)
 -->
<!-- Title: G Pages: 1 -->
<svg width="406pt" height="81pt"
 viewBox="0.00 0.00 406.00 81.00" xmlns="http://www.w3.org/2000/svg" xmlns:xlink="http://www.w3.org/1999/xlink">
<g id="graph0" class="graph" transform="scale(1 1) rotate(0) translate(4 77)">
<title>G</title>
<polygon fill="#ffffff" stroke="transparent" points="-4,4 -4,-77 402,-77 402,4 -4,4"/>
<!-- c571229 -->
<g id="node1" class="node">
<title>c571229</title>
<g id="a_node1"><a xlink:href="../AbstractDatabaseDistanceFunction.html" xlink:title="&lt;TABLE&gt;">
<g id="a_node1_0"><a xlink:href="../AbstractDatabaseDistanceFunction.html" xlink:title="de.lmu.ifi.dbs.elki.distance.distancefunction.AbstractDatabaseDistanceFunction" target="_parent">
<polygon fill="none" stroke="#000000" points="0,-22.5 0,-50.5 158,-50.5 158,-22.5 0,-22.5"/>
<text text-anchor="start" x="14" y="-41.1" font-family="Roboto" font-size="8.00" fill="#000000"> </text>
<text text-anchor="start" x="17" y="-41.1" font-family="Roboto" font-style="italic" font-size="8.00" fill="#000000">AbstractDatabaseDistanceFunction</text>
<text text-anchor="start" x="141" y="-41.1" font-family="Roboto" font-size="8.00" fill="#000000"> </text>
<text text-anchor="start" x="4" y="-30.1" font-family="Roboto" font-size="8.00" fill="#000000"> </text>
<text text-anchor="start" x="7" y="-30.1" font-family="Roboto" font-size="7.00" fill="#000000">de.lmu.ifi.dbs.elki.distance.distancefunction</text>
<text text-anchor="start" x="151" y="-30.1" font-family="Roboto" font-size="8.00" fill="#000000"> </text>
</a>
</g>
</a>
</g>
</g>
<!-- c571234 -->
<g id="node2" class="node">
<title>c571234</title>
<g id="a_node2"><a xlink:href="AbstractSimilarityAdapter.html" xlink:title="&lt;TABLE&gt;">
<g id="a_node2_1"><a xlink:href="AbstractSimilarityAdapter.html" xlink:title="de.lmu.ifi.dbs.elki.distance.distancefunction.adapter.AbstractSimilarityAdapter" target="_parent">
<polygon fill="none" stroke="#000000" points="176.5,-27.5 176.5,-44.5 281.5,-44.5 281.5,-27.5 176.5,-27.5"/>
<text text-anchor="start" x="180.5" y="-35.1" font-family="Roboto" font-size="8.00" fill="#000000"> </text>
<text text-anchor="start" x="183.5" y="-35.1" font-family="Roboto" font-style="italic" font-size="8.00" fill="#000000">AbstractSimilarityAdapter</text>
<text text-anchor="start" x="274.5" y="-35.1" font-family="Roboto" font-size="8.00" fill="#000000"> </text>
</a>
</g>
</a>
</g>
</g>
<!-- c571229&#45;&gt;c571234 -->
<g id="edge1" class="edge">
<title>c571229&#45;&gt;c571234</title>
<path fill="none" stroke="#000000" d="M168.2281,-36.5C170.8228,-36.5 173.3934,-36.5 175.9266,-36.5"/>
<polygon fill="none" stroke="#000000" points="168.1277,-33.0001 158.1277,-36.5 168.1276,-40.0001 168.1277,-33.0001"/>
</g>
<!-- c571237 -->
<g id="node3" class="node">
<title>c571237</title>
<g id="a_node3"><a xlink:href="LnSimilarityAdapter.html" xlink:title="&lt;TABLE&gt;">
<g id="a_node3_2"><a xlink:href="LnSimilarityAdapter.html" xlink:title="de.lmu.ifi.dbs.elki.distance.distancefunction.adapter.LnSimilarityAdapter" target="_parent">
<polygon fill="none" stroke="#000000" points="306.5,-55.5 306.5,-72.5 391.5,-72.5 391.5,-55.5 306.5,-55.5"/>
<text text-anchor="start" x="310.5" y="-63.1" font-family="Roboto" font-size="8.00" fill="#000000"> </text>
<text text-anchor="start" x="313.5" y="-63.1" font-family="Roboto" font-size="8.00" fill="#000000">LnSimilarityAdapter</text>
<text text-anchor="start" x="384.5" y="-63.1" font-family="Roboto" font-size="8.00" fill="#000000"> </text>
</a>
</g>
</a>
</g>
</g>
<!-- c571234&#45;&gt;c571237 -->
<g id="edge2" class="edge">
<title>c571234&#45;&gt;c571237</title>
<path fill="none" stroke="#000000" d="M275.2045,-47.3977C287.4414,-50.253 300.4553,-53.2896 312.0685,-55.9993"/>
<polygon fill="none" stroke="#000000" points="275.6897,-43.917 265.156,-45.0531 274.0991,-50.7339 275.6897,-43.917"/>
</g>
<!-- c571240 -->
<g id="node4" class="node">
<title>c571240</title>
<g id="a_node4"><a xlink:href="ArccosSimilarityAdapter.html" xlink:title="&lt;TABLE&gt;">
<g id="a_node4_3"><a xlink:href="ArccosSimilarityAdapter.html" xlink:title="de.lmu.ifi.dbs.elki.distance.distancefunction.adapter.ArccosSimilarityAdapter" target="_parent">
<polygon fill="none" stroke="#000000" points="299.5,-27.5 299.5,-44.5 398.5,-44.5 398.5,-27.5 299.5,-27.5"/>
<text text-anchor="start" x="303.5" y="-35.1" font-family="Roboto" font-size="8.00" fill="#000000"> </text>
<text text-anchor="start" x="306.5" y="-35.1" font-family="Roboto" font-size="8.00" fill="#000000">ArccosSimilarityAdapter</text>
<text text-anchor="start" x="391.5" y="-35.1" font-family="Roboto" font-size="8.00" fill="#000000"> </text>
</a>
</g>
</a>
</g>
</g>
<!-- c571234&#45;&gt;c571240 -->
<g id="edge3" class="edge">
<title>c571234&#45;&gt;c571240</title>
<path fill="none" stroke="#000000" d="M291.1733,-36.5C293.7783,-36.5 296.3766,-36.5 298.9485,-36.5"/>
<polygon fill="none" stroke="#000000" points="291.1338,-33.0001 281.1337,-36.5 291.1337,-40.0001 291.1338,-33.0001"/>
</g>
<!-- c571243 -->
<g id="node5" class="node">
<title>c571243</title>
<g id="a_node5"><a xlink:href="LinearAdapterLinear.html" xlink:title="&lt;TABLE&gt;">
<g id="a_node5_4"><a xlink:href="LinearAdapterLinear.html" xlink:title="de.lmu.ifi.dbs.elki.distance.distancefunction.adapter.LinearAdapterLinear" target="_parent">
<polygon fill="none" stroke="#000000" points="305.5,.5 305.5,-16.5 392.5,-16.5 392.5,.5 305.5,.5"/>
<text text-anchor="start" x="309.5" y="-7.1" font-family="Roboto" font-size="8.00" fill="#000000"> </text>
<text text-anchor="start" x="312.5" y="-7.1" font-family="Roboto" font-size="8.00" fill="#000000">LinearAdapterLinear</text>
<text text-anchor="start" x="385.5" y="-7.1" font-family="Roboto" font-size="8.00" fill="#000000"> </text>
</a>
</g>
</a>
</g>
</g>
<!-- c571234&#45;&gt;c571243 -->
<g id="edge4" class="edge">
<title>c571234&#45;&gt;c571243</title>
<path fill="none" stroke="#000000" d="M275.2045,-25.6023C287.4414,-22.747 300.4553,-19.7104 312.0685,-17.0007"/>
<polygon fill="none" stroke="#000000" points="274.0991,-22.2661 265.156,-27.9469 275.6897,-29.083 274.0991,-22.2661"/>
</g>
</g>
</svg>
