<?xml version="1.0" encoding="UTF-8" standalone="no"?><svg xmlns="http://www.w3.org/2000/svg" xmlns:xlink="http://www.w3.org/1999/xlink" contentStyleType="text/css" height="501px" preserveAspectRatio="none" style="width:1088px;height:501px;background:#FFFFFF;" version="1.1" viewBox="0 0 1088 501" width="1088px" zoomAndPan="magnify"><defs/><g><!--MD5=[afdda3ce1c5408c9de7132daa89e269b]
class elki.algorithm.KNNJoin--><a href="KNNJoin.html" target="_top" title="KNNJoin.html" xlink:actuate="onRequest" xlink:href="KNNJoin.html" xlink:show="new" xlink:title="KNNJoin.html" xlink:type="simple"><g id="elem_elki.algorithm.KNNJoin"><rect codeLine="6" fill="#F1F1F1" height="249.5" id="elki.algorithm.KNNJoin" rx="2.5" ry="2.5" style="stroke:#181818;stroke-width:0.5;" width="1072" x="9" y="129"/><ellipse cx="508.75" cy="147.9688" fill="#ADD1B2" rx="11" ry="11" style="stroke:#181818;stroke-width:1.0;"/><path d="M511.7188,153.6094 Q511.1406,153.9063 510.5,154.0469 Q509.8594,154.2031 509.1563,154.2031 Q506.6563,154.2031 505.3281,152.5625 Q504.0156,150.9063 504.0156,147.7813 Q504.0156,144.6563 505.3281,143 Q506.6563,141.3438 509.1563,141.3438 Q509.8594,141.3438 510.5,141.5 Q511.1563,141.6563 511.7188,141.9531 L511.7188,144.6719 Q511.0938,144.0938 510.5,143.8281 Q509.9063,143.5469 509.2813,143.5469 Q507.9375,143.5469 507.25,144.625 Q506.5625,145.6875 506.5625,147.7813 Q506.5625,149.875 507.25,150.9531 Q507.9375,152.0156 509.2813,152.0156 Q509.9063,152.0156 510.5,151.75 Q511.0938,151.4688 511.7188,150.8906 L511.7188,153.6094 Z " fill="#000000"/><text fill="#000000" font-family="sans-serif" font-size="14" lengthAdjust="spacing" textLength="53" x="534.75" y="146.9951">KNNJoin</text><text fill="#000000" font-family="sans-serif" font-size="10" lengthAdjust="spacing" textLength="64" x="529.25" y="159.5791">elki.algorithm</text><line style="stroke:#181818;stroke-width:0.5;" x1="10" x2="1080" y1="166.9375" y2="166.9375"/><rect fill="none" height="6" style="stroke:#C82930;stroke-width:1.0;" width="6" x="17" y="177.5859"/><text fill="#000000" font-family="sans-serif" font-size="14" lengthAdjust="spacing" text-decoration="underline" textLength="93" x="29" y="183.9326">LOG: Logging</text><polygon fill="none" points="20,191.8828,24,195.8828,20,199.8828,16,195.8828" style="stroke:#B38D22;stroke-width:1.0;"/><text fill="#000000" font-family="sans-serif" font-size="14" lengthAdjust="spacing" textLength="262" x="29" y="200.2295">distance: SpatialPrimitiveDistance&lt;?&gt;</text><polygon fill="none" points="20,208.1797,24,212.1797,20,216.1797,16,212.1797" style="stroke:#B38D22;stroke-width:1.0;"/><text fill="#000000" font-family="sans-serif" font-size="14" lengthAdjust="spacing" textLength="34" x="29" y="216.5264">k: int</text><line style="stroke:#181818;stroke-width:0.5;" x1="10" x2="1080" y1="223.8281" y2="223.8281"/><ellipse cx="20" cy="237.4766" fill="#84BE84" rx="3" ry="3" style="stroke:#038048;stroke-width:1.0;"/><text fill="#000000" font-family="sans-serif" font-size="14" lengthAdjust="spacing" textLength="282" x="29" y="240.8232">KNNJoin(SpatialPrimitiveDistance&lt;?&gt;, int)</text><ellipse cx="20" cy="253.7734" fill="#84BE84" rx="3" ry="3" style="stroke:#038048;stroke-width:1.0;"/><text fill="#000000" font-family="sans-serif" font-size="14" lengthAdjust="spacing" textLength="306" x="29" y="257.1201">getInputTypeRestriction(): TypeInformation[]</text><ellipse cx="20" cy="270.0703" fill="#84BE84" rx="3" ry="3" style="stroke:#038048;stroke-width:1.0;"/><text fill="#000000" font-family="sans-serif" font-size="14" lengthAdjust="spacing" textLength="271" x="29" y="273.417">autorun(Database): Relation&lt;KNNList&gt;</text><ellipse cx="20" cy="286.3672" fill="#84BE84" rx="3" ry="3" style="stroke:#038048;stroke-width:1.0;"/><text fill="#000000" font-family="sans-serif" font-size="14" lengthAdjust="spacing" textLength="453" x="29" y="289.7139">run(Relation&lt;? extends SpatialComparable&gt;): Relation&lt;KNNList&gt;</text><ellipse cx="20" cy="302.6641" fill="#84BE84" rx="3" ry="3" style="stroke:#038048;stroke-width:1.0;"/><text fill="#000000" font-family="sans-serif" font-size="14" lengthAdjust="spacing" textLength="572" x="29" y="306.0107">run(Relation&lt;? extends SpatialComparable&gt;, DBIDs): WritableDataStore&lt;KNNList&gt;</text><ellipse cx="20" cy="318.9609" fill="#84BE84" rx="3" ry="3" style="stroke:#038048;stroke-width:1.0;"/><text fill="#000000" font-family="sans-serif" font-size="14" lengthAdjust="spacing" textLength="480" x="29" y="322.3076">run(AbstractRStarTree&lt;?, ?, ?&gt;, DBIDs): WritableDataStore&lt;KNNList&gt;</text><rect fill="#F24D5C" height="6" style="stroke:#C82930;stroke-width:1.0;" width="6" x="17" y="332.2578"/><text fill="#000000" font-family="sans-serif" font-size="14" lengthAdjust="spacing" textLength="606" x="29" y="338.6045">initHeaps(SpatialPrimitiveDistance&lt;?&gt;, AbstractRStarTreeNode&lt;?, ?&gt;): List&lt;KNNHeap&gt;</text><rect fill="#F24D5C" height="6" style="stroke:#C82930;stroke-width:1.0;" width="6" x="17" y="348.5547"/><text fill="#000000" font-family="sans-serif" font-size="14" lengthAdjust="spacing" textLength="1046" x="29" y="354.9014">processDataPages(SpatialPrimitiveDistance&lt;?&gt;, List&lt;KNNHeap&gt;, List&lt;KNNHeap&gt;, AbstractRStarTreeNode&lt;?, ?&gt;, AbstractRStarTreeNode&lt;?, ?&gt;): void</text><rect fill="#F24D5C" height="6" style="stroke:#C82930;stroke-width:1.0;" width="6" x="17" y="364.8516"/><text fill="#000000" font-family="sans-serif" font-size="14" lengthAdjust="spacing" textLength="334" x="29" y="371.1982">computeStopDistance(List&lt;KNNHeap&gt;): double</text></g></a><!--MD5=[6617a5df6c1f5d3bd235afcb3413924f]
class elki.Algorithm--><a href="../Algorithm.html" target="_top" title="../Algorithm.html" xlink:actuate="onRequest" xlink:href="../Algorithm.html" xlink:show="new" xlink:title="../Algorithm.html" xlink:type="simple"><g id="elem_elki.Algorithm"><rect codeLine="21" fill="#F1F1F1" height="62.2344" id="elki.Algorithm" rx="2.5" ry="2.5" style="stroke:#181818;stroke-width:0.5;" width="341" x="374.5" y="7"/><ellipse cx="506.25" cy="25.9688" fill="#B4A7E5" rx="11" ry="11" style="stroke:#181818;stroke-width:1.0;"/><path d="M502.1719,21.7344 L502.1719,19.5781 L509.5625,19.5781 L509.5625,21.7344 L507.0938,21.7344 L507.0938,29.8125 L509.5625,29.8125 L509.5625,31.9688 L502.1719,31.9688 L502.1719,29.8125 L504.6406,29.8125 L504.6406,21.7344 L502.1719,21.7344 Z " fill="#000000"/><text fill="#000000" font-family="sans-serif" font-size="14" font-style="italic" lengthAdjust="spacing" textLength="69" x="526.75" y="24.9951">Algorithm</text><text fill="#000000" font-family="sans-serif" font-size="10" font-style="italic" lengthAdjust="spacing" textLength="18" x="552.25" y="37.5791">elki</text><line style="stroke:#181818;stroke-width:0.5;" x1="375.5" x2="714.5" y1="44.9375" y2="44.9375"/><ellipse cx="385.5" cy="58.5859" fill="#84BE84" rx="3" ry="3" style="stroke:#038048;stroke-width:1.0;"/><text fill="#000000" font-family="sans-serif" font-size="14" font-style="italic" lengthAdjust="spacing" textLength="315" x="394.5" y="61.9326">getInputTypeRestriction(): TypeInformation[]</text></g></a><!--MD5=[9536e5c9d8293f07b078767060b27856]
class elki.algorithm.KNNJoin.Task--><a href="KNNJoin.Task.html" target="_top" title="KNNJoin.Task.html" xlink:actuate="onRequest" xlink:href="KNNJoin.Task.html" xlink:show="new" xlink:title="KNNJoin.Task.html" xlink:type="simple"><g id="elem_elki.algorithm.KNNJoin.Task"><rect codeLine="24" fill="#F1F1F1" height="37.9375" id="elki.algorithm.KNNJoin.Task" rx="2.5" ry="2.5" style="stroke:#181818;stroke-width:0.5;" width="122" x="484" y="439"/><ellipse cx="499" cy="457.9688" fill="#ADD1B2" rx="11" ry="11" style="stroke:#181818;stroke-width:1.0;"/><path d="M501.9688,463.6094 Q501.3906,463.9063 500.75,464.0469 Q500.1094,464.2031 499.4063,464.2031 Q496.9063,464.2031 495.5781,462.5625 Q494.2656,460.9063 494.2656,457.7813 Q494.2656,454.6563 495.5781,453 Q496.9063,451.3438 499.4063,451.3438 Q500.1094,451.3438 500.75,451.5 Q501.4063,451.6563 501.9688,451.9531 L501.9688,454.6719 Q501.3438,454.0938 500.75,453.8281 Q500.1563,453.5469 499.5313,453.5469 Q498.1875,453.5469 497.5,454.625 Q496.8125,455.6875 496.8125,457.7813 Q496.8125,459.875 497.5,460.9531 Q498.1875,462.0156 499.5313,462.0156 Q500.1563,462.0156 500.75,461.75 Q501.3438,461.4688 501.9688,460.8906 L501.9688,463.6094 Z " fill="#000000"/><text fill="#000000" font-family="sans-serif" font-size="14" lengthAdjust="spacing" textLength="90" x="513" y="456.9951">KNNJoin.Task</text><text fill="#000000" font-family="sans-serif" font-size="10" lengthAdjust="spacing" textLength="64" x="526" y="469.5791">elki.algorithm</text></g></a><!--MD5=[e3f57d83aba48cf591504ae2e0d97033]
reverse link elki.Algorithm to elki.algorithm.KNNJoin--><g id="link_elki.Algorithm_elki.algorithm.KNNJoin"><path codeLine="27" d="M545,89.38 C545,101.52 545,115.03 545,128.94 " fill="none" id="elki.Algorithm-backto-elki.algorithm.KNNJoin" style="stroke:#181818;stroke-width:1.0;stroke-dasharray:7.0,7.0;"/><polygon fill="none" points="538,89.21,545,69.21,552,89.21,538,89.21" style="stroke:#181818;stroke-width:1.0;"/></g><!--MD5=[0916b65b34181c688884db79e380c145]
reverse link elki.algorithm.KNNJoin to elki.algorithm.KNNJoin.Task--><g id="link_elki.algorithm.KNNJoin_elki.algorithm.KNNJoin.Task"><path codeLine="28" d="M545,394.27 C545,411.79 545,427.5 545,438.82 " fill="none" id="elki.algorithm.KNNJoin-backto-elki.algorithm.KNNJoin.Task" style="stroke:#181818;stroke-width:1.0;"/><ellipse cx="545" cy="387.19" fill="#FFFFFF" rx="8" ry="8" style="stroke:#181818;stroke-width:1.0;"/><line style="stroke:#181818;stroke-width:1.0;" x1="545" x2="545" y1="395.19" y2="379.19"/><line style="stroke:#181818;stroke-width:1.0;" x1="537" x2="553" y1="387.19" y2="387.19"/></g><rect fill="none" height="11.6406" style="stroke:none;stroke-width:1.0;" width="186" x="444" y="481.9375"/><text fill="#888888" font-family="sans-serif" font-size="10" lengthAdjust="spacing" textLength="186" x="444" y="491.2197">UMLDoclet 2.0.19, PlantUML 1.2022.8</text><!--MD5=[0a8260b9e391ce6b7c34cacda7fb8787]
@startuml
    remove .*\.(Instance|Par|Parameterizer|Factory)$
    set namespaceSeparator none
    hide empty fields
    hide empty methods

    class "<size:14>KNNJoin\n<size:10>elki.algorithm" as elki.algorithm.KNNJoin [[KNNJoin.html]] {
        {static} -LOG: Logging
        #distance: SpatialPrimitiveDistance<?>
        #k: int
        +KNNJoin(SpatialPrimitiveDistance<?>, int)
        +getInputTypeRestriction(): TypeInformation[]
        +autorun(Database): Relation<KNNList>
        +run(Relation<? extends SpatialComparable>): Relation<KNNList>
        +run(Relation<? extends SpatialComparable>, DBIDs): WritableDataStore<KNNList>
        +run(AbstractRStarTree<?, ?, ?>, DBIDs): WritableDataStore<KNNList>
        -initHeaps(SpatialPrimitiveDistance<?>, AbstractRStarTreeNode<?, ?>): List<KNNHeap>
        -processDataPages(SpatialPrimitiveDistance<?>, List<KNNHeap>, List<KNNHeap>, AbstractRStarTreeNode<?, ?>, AbstractRStarTreeNode<?, ?>): void
        -computeStopDistance(List<KNNHeap>): double
    }

    interface "<size:14>Algorithm\n<size:10>elki" as elki.Algorithm [[../Algorithm.html]] {
        {abstract} +getInputTypeRestriction(): TypeInformation[]
    }
    class "<size:14>KNNJoin.Task\n<size:10>elki.algorithm" as elki.algorithm.KNNJoin.Task [[KNNJoin.Task.html]]
    class "<size:14>KNNJoin.Par\n<size:10>elki.algorithm" as elki.algorithm.KNNJoin.Par [[KNNJoin.Par.html]]

    elki.Algorithm <|.. elki.algorithm.KNNJoin
    elki.algorithm.KNNJoin +- - elki.algorithm.KNNJoin.Task
    elki.algorithm.KNNJoin +- - elki.algorithm.KNNJoin.Par

    center footer UMLDoclet 2.0.19, PlantUML 1.2022.8
@enduml

PlantUML version 1.2022.8(Sun Sep 25 11:00:33 CEST 2022)
(APACHE source distribution)
Java Runtime: OpenJDK Runtime Environment
JVM: OpenJDK 64-Bit Server VM
Default Encoding: UTF-8
Language: de
Country: DE
--></g></svg>