<?xml version="1.0" encoding="UTF-8" standalone="no"?>
<!DOCTYPE svg PUBLIC "-//W3C//DTD SVG 1.1//EN"
 "http://www.w3.org/Graphics/SVG/1.1/DTD/svg11.dtd">
<!-- Generated by graphviz version 2.40.1 (20161225.0304)
 -->
<!-- Title: G Pages: 1 -->
<svg width="142pt" height="36pt"
 viewBox="0.00 0.00 142.00 36.00" xmlns="http://www.w3.org/2000/svg" xmlns:xlink="http://www.w3.org/1999/xlink">
<g id="graph0" class="graph" transform="scale(1 1) rotate(0) translate(4 32)">
<title>G</title>
<polygon fill="#ffffff" stroke="transparent" points="-4,4 -4,-32 138,-32 138,4 -4,4"/>
<!-- c9601450 -->
<g id="node1" class="node">
<title>c9601450</title>
<g id="a_node1"><a xlink:href="Linkage.html" xlink:title="&lt;TABLE&gt;">
<g id="a_node1_0"><a xlink:href="Linkage.html" xlink:title="de.lmu.ifi.dbs.elki.algorithm.clustering.hierarchical.linkage.Linkage" target="_parent">
<polygon fill="none" stroke="#000000" points=".5,0 .5,-28 51.5,-28 51.5,0 .5,0"/>
<text text-anchor="start" x="4.5" y="-17.6" font-family="Roboto" font-size="8.00" fill="#000000"> «interface» </text>
<text text-anchor="start" x="8.5" y="-7.6" font-family="Roboto" font-size="8.00" fill="#000000"> </text>
<text text-anchor="start" x="11.5" y="-7.6" font-family="Roboto" font-size="8.00" fill="#000000">Linkage</text>
<text text-anchor="start" x="40.5" y="-7.6" font-family="Roboto" font-size="8.00" fill="#000000"> </text>
</a>
</g>
</a>
</g>
</g>
<!-- c9601451 -->
<g id="node2" class="node">
<title>c9601451</title>
<g id="a_node2"><a xlink:href="SingleLinkage.html" xlink:title="&lt;TABLE&gt;">
<g id="a_node2_1"><a xlink:href="SingleLinkage.html" xlink:title="de.lmu.ifi.dbs.elki.algorithm.clustering.hierarchical.linkage.SingleLinkage" target="_parent">
<polygon fill="#fffacd" stroke="transparent" points="69,-5.5 69,-22.5 134,-22.5 134,-5.5 69,-5.5"/>
<polygon fill="none" stroke="#000000" points="69.5,-5 69.5,-22 134.5,-22 134.5,-5 69.5,-5"/>
<text text-anchor="start" x="73.5" y="-12.6" font-family="Roboto" font-size="8.00" fill="#000000"> </text>
<text text-anchor="start" x="76.5" y="-12.6" font-family="Roboto" font-size="8.00" fill="#000000">SingleLinkage</text>
<text text-anchor="start" x="127.5" y="-12.6" font-family="Roboto" font-size="8.00" fill="#000000"> </text>
</a>
</g>
</a>
</g>
</g>
<!-- c9601450&#45;&gt;c9601451 -->
<g id="edge1" class="edge">
<title>c9601450&#45;&gt;c9601451</title>
<path fill="none" stroke="#000000" stroke-dasharray="5,2" d="M61.3864,-14C63.9015,-14 66.429,-14 68.9246,-14"/>
<polygon fill="none" stroke="#000000" points="61.2302,-10.5001 51.2301,-14 61.2301,-17.5001 61.2302,-10.5001"/>
</g>
</g>
</svg>
