<?xml version="1.0" encoding="UTF-8" standalone="no"?>
<!DOCTYPE svg PUBLIC "-//W3C//DTD SVG 1.1//EN"
 "http://www.w3.org/Graphics/SVG/1.1/DTD/svg11.dtd">
<!-- Generated by graphviz version 2.40.1 (20161225.0304)
 -->
<!-- Title: G Pages: 1 -->
<svg width="181pt" height="36pt"
 viewBox="0.00 0.00 181.00 36.00" xmlns="http://www.w3.org/2000/svg" xmlns:xlink="http://www.w3.org/1999/xlink">
<g id="graph0" class="graph" transform="scale(1 1) rotate(0) translate(4 32)">
<title>G</title>
<polygon fill="#ffffff" stroke="transparent" points="-4,4 -4,-32 177,-32 177,4 -4,4"/>
<!-- c10819589 -->
<g id="node1" class="node">
<title>c10819589</title>
<g id="a_node1"><a xlink:href="WeightedAverageLinkage.html" xlink:title="&lt;TABLE&gt;">
<g id="a_node1_0"><a xlink:href="WeightedAverageLinkage.html" xlink:title="de.lmu.ifi.dbs.elki.algorithm.clustering.hierarchical.linkage.WeightedAverageLinkage" target="_parent">
<polygon fill="#fffacd" stroke="transparent" points="69,-5.5 69,-22.5 173,-22.5 173,-5.5 69,-5.5"/>
<polygon fill="none" stroke="#000000" points="69,-5 69,-22 173,-22 173,-5 69,-5"/>
<text text-anchor="start" x="73" y="-12.6" font-family="Roboto" font-size="8.00" fill="#000000"> </text>
<text text-anchor="start" x="76" y="-12.6" font-family="Roboto" font-size="8.00" fill="#000000">WeightedAverageLinkage</text>
<text text-anchor="start" x="166" y="-12.6" font-family="Roboto" font-size="8.00" fill="#000000"> </text>
</a>
</g>
</a>
</g>
</g>
<!-- c10819603 -->
<g id="node2" class="node">
<title>c10819603</title>
<g id="a_node2"><a xlink:href="Linkage.html" xlink:title="&lt;TABLE&gt;">
<g id="a_node2_1"><a xlink:href="Linkage.html" xlink:title="de.lmu.ifi.dbs.elki.algorithm.clustering.hierarchical.linkage.Linkage" target="_parent">
<polygon fill="none" stroke="#000000" points=".5,0 .5,-28 51.5,-28 51.5,0 .5,0"/>
<text text-anchor="start" x="4.5" y="-17.6" font-family="Roboto" font-size="8.00" fill="#000000"> «interface» </text>
<text text-anchor="start" x="8.5" y="-7.6" font-family="Roboto" font-size="8.00" fill="#000000"> </text>
<text text-anchor="start" x="11.5" y="-7.6" font-family="Roboto" font-size="8.00" fill="#000000">Linkage</text>
<text text-anchor="start" x="40.5" y="-7.6" font-family="Roboto" font-size="8.00" fill="#000000"> </text>
</a>
</g>
</a>
</g>
</g>
<!-- c10819603&#45;&gt;c10819589 -->
<g id="edge1" class="edge">
<title>c10819603&#45;&gt;c10819589</title>
<path fill="none" stroke="#000000" stroke-dasharray="5,2" d="M61.1056,-14C63.6268,-14 66.1964,-14 68.7836,-14"/>
<polygon fill="none" stroke="#000000" points="61.0923,-10.5001 51.0922,-14 61.0922,-17.5001 61.0923,-10.5001"/>
</g>
</g>
</svg>
