<?xml version="1.0" encoding="UTF-8" standalone="no"?>
<!DOCTYPE svg PUBLIC "-//W3C//DTD SVG 1.1//EN"
 "http://www.w3.org/Graphics/SVG/1.1/DTD/svg11.dtd">
<!-- Generated by graphviz version 2.40.1 (20161225.0304)
 -->
<!-- Title: G Pages: 1 -->
<svg width="295pt" height="75pt"
 viewBox="0.00 0.00 295.00 75.00" xmlns="http://www.w3.org/2000/svg" xmlns:xlink="http://www.w3.org/1999/xlink">
<g id="graph0" class="graph" transform="scale(1 1) rotate(0) translate(4 71)">
<title>G</title>
<polygon fill="#ffffff" stroke="transparent" points="-4,4 -4,-71 291,-71 291,4 -4,4"/>
<!-- c4898670 -->
<g id="node1" class="node">
<title>c4898670</title>
<g id="a_node1"><a xlink:href="../NumberVectorDistanceFunction.html" xlink:title="&lt;TABLE&gt;">
<g id="a_node1_0"><a xlink:href="../NumberVectorDistanceFunction.html" xlink:title="de.lmu.ifi.dbs.elki.distance.distancefunction.NumberVectorDistanceFunction" target="_parent">
<polygon fill="#fffacd" stroke="transparent" points="0,-28 0,-67 158,-67 158,-28 0,-28"/>
<polygon fill="none" stroke="#000000" points="0,-27.5 0,-66.5 158,-66.5 158,-27.5 0,-27.5"/>
<text text-anchor="start" x="57.5" y="-56.1" font-family="Roboto" font-size="8.00" fill="#000000"> «interface» </text>
<text text-anchor="start" x="20" y="-46.1" font-family="Roboto" font-size="8.00" fill="#000000"> </text>
<text text-anchor="start" x="23" y="-46.1" font-family="Roboto" font-size="8.00" fill="#000000">NumberVectorDistanceFunction</text>
<text text-anchor="start" x="135" y="-46.1" font-family="Roboto" font-size="8.00" fill="#000000"> </text>
<text text-anchor="start" x="4" y="-35.1" font-family="Roboto" font-size="8.00" fill="#000000"> </text>
<text text-anchor="start" x="7" y="-35.1" font-family="Roboto" font-size="7.00" fill="#000000">de.lmu.ifi.dbs.elki.distance.distancefunction</text>
<text text-anchor="start" x="151" y="-35.1" font-family="Roboto" font-size="8.00" fill="#000000"> </text>
</a>
</g>
</a>
</g>
</g>
<!-- c4899070 -->
<g id="node3" class="node">
<title>c4899070</title>
<g id="a_node3"><a xlink:href="HammingDistanceFunction.html" xlink:title="&lt;TABLE&gt;">
<g id="a_node3_1"><a xlink:href="HammingDistanceFunction.html" xlink:title="de.lmu.ifi.dbs.elki.distance.distancefunction.set.HammingDistanceFunction" target="_parent">
<polygon fill="#fffacd" stroke="transparent" points="176,0 176,-17 287,-17 287,0 176,0"/>
<polygon fill="none" stroke="#000000" points="176.5,.5 176.5,-16.5 287.5,-16.5 287.5,.5 176.5,.5"/>
<text text-anchor="start" x="180.5" y="-7.1" font-family="Roboto" font-size="8.00" fill="#000000"> </text>
<text text-anchor="start" x="183.5" y="-7.1" font-family="Roboto" font-size="8.00" fill="#000000">HammingDistanceFunction</text>
<text text-anchor="start" x="280.5" y="-7.1" font-family="Roboto" font-size="8.00" fill="#000000"> </text>
</a>
</g>
</a>
</g>
</g>
<!-- c4898670&#45;&gt;c4899070 -->
<g id="edge2" class="edge">
<title>c4898670&#45;&gt;c4899070</title>
<path fill="none" stroke="#000000" stroke-dasharray="5,2" d="M165.5015,-25.3783C177.1123,-22.409 188.4,-19.5223 198.2614,-17.0004"/>
<polygon fill="none" stroke="#000000" points="164.5178,-22.0172 155.6968,-27.8857 166.2522,-28.7989 164.5178,-22.0172"/>
</g>
<!-- c4899069 -->
<g id="node2" class="node">
<title>c4899069</title>
<g id="a_node2"><a xlink:href="AbstractSetDistanceFunction.html" xlink:title="&lt;TABLE&gt;">
<g id="a_node2_2"><a xlink:href="AbstractSetDistanceFunction.html" xlink:title="de.lmu.ifi.dbs.elki.distance.distancefunction.set.AbstractSetDistanceFunction" target="_parent">
<polygon fill="none" stroke="#000000" points="22,.5 22,-16.5 137,-16.5 137,.5 22,.5"/>
<text text-anchor="start" x="26" y="-7.1" font-family="Roboto" font-size="8.00" fill="#000000"> </text>
<text text-anchor="start" x="29" y="-7.1" font-family="Roboto" font-style="italic" font-size="8.00" fill="#000000">AbstractSetDistanceFunction</text>
<text text-anchor="start" x="130" y="-7.1" font-family="Roboto" font-size="8.00" fill="#000000"> </text>
</a>
</g>
</a>
</g>
</g>
<!-- c4899069&#45;&gt;c4899070 -->
<g id="edge1" class="edge">
<title>c4899069&#45;&gt;c4899070</title>
<path fill="none" stroke="#000000" d="M146.6917,-8.5C156.4152,-8.5 166.3268,-8.5 175.7832,-8.5"/>
<polygon fill="none" stroke="#000000" points="146.6537,-5.0001 136.6537,-8.5 146.6537,-12.0001 146.6537,-5.0001"/>
</g>
</g>
</svg>
