<?xml version="1.0" encoding="UTF-8" standalone="no"?>
<!DOCTYPE svg PUBLIC "-//W3C//DTD SVG 1.1//EN"
 "http://www.w3.org/Graphics/SVG/1.1/DTD/svg11.dtd">
<!-- Generated by graphviz version 2.40.1 (20161225.0304)
 -->
<!-- Title: G Pages: 1 -->
<svg width="502pt" height="149pt"
 viewBox="0.00 0.00 502.00 149.00" xmlns="http://www.w3.org/2000/svg" xmlns:xlink="http://www.w3.org/1999/xlink">
<g id="graph0" class="graph" transform="scale(1 1) rotate(0) translate(4 145)">
<title>G</title>
<polygon fill="#ffffff" stroke="transparent" points="-4,4 -4,-145 498,-145 498,4 -4,4"/>
<!-- c5563688 -->
<g id="node1" class="node">
<title>c5563688</title>
<g id="a_node1"><a xlink:href="../PrimitiveDistanceFunction.html" xlink:title="&lt;TABLE&gt;">
<g id="a_node1_0"><a xlink:href="../PrimitiveDistanceFunction.html" xlink:title="de.lmu.ifi.dbs.elki.distance.distancefunction.PrimitiveDistanceFunction" target="_parent">
<polygon fill="#fffacd" stroke="transparent" points="0,-63 0,-102 158,-102 158,-63 0,-63"/>
<polygon fill="none" stroke="#000000" points="0,-62.5 0,-101.5 158,-101.5 158,-62.5 0,-62.5"/>
<text text-anchor="start" x="57.5" y="-91.1" font-family="Roboto" font-size="8.00" fill="#000000"> «interface» </text>
<text text-anchor="start" x="30" y="-81.1" font-family="Roboto" font-size="8.00" fill="#000000"> </text>
<text text-anchor="start" x="33" y="-81.1" font-family="Roboto" font-size="8.00" fill="#000000">PrimitiveDistanceFunction</text>
<text text-anchor="start" x="125" y="-81.1" font-family="Roboto" font-size="8.00" fill="#000000"> </text>
<text text-anchor="start" x="4" y="-70.1" font-family="Roboto" font-size="8.00" fill="#000000"> </text>
<text text-anchor="start" x="7" y="-70.1" font-family="Roboto" font-size="7.00" fill="#000000">de.lmu.ifi.dbs.elki.distance.distancefunction</text>
<text text-anchor="start" x="151" y="-70.1" font-family="Roboto" font-size="8.00" fill="#000000"> </text>
</a>
</g>
</a>
</g>
</g>
<!-- c5563689 -->
<g id="node2" class="node">
<title>c5563689</title>
<g id="a_node2"><a xlink:href="../NumberVectorDistanceFunction.html" xlink:title="&lt;TABLE&gt;">
<g id="a_node2_1"><a xlink:href="../NumberVectorDistanceFunction.html" xlink:title="de.lmu.ifi.dbs.elki.distance.distancefunction.NumberVectorDistanceFunction" target="_parent">
<polygon fill="#fffacd" stroke="transparent" points="178,-102 178,-141 336,-141 336,-102 178,-102"/>
<polygon fill="none" stroke="#000000" points="178,-101.5 178,-140.5 336,-140.5 336,-101.5 178,-101.5"/>
<text text-anchor="start" x="235.5" y="-130.1" font-family="Roboto" font-size="8.00" fill="#000000"> «interface» </text>
<text text-anchor="start" x="198" y="-120.1" font-family="Roboto" font-size="8.00" fill="#000000"> </text>
<text text-anchor="start" x="201" y="-120.1" font-family="Roboto" font-size="8.00" fill="#000000">NumberVectorDistanceFunction</text>
<text text-anchor="start" x="313" y="-120.1" font-family="Roboto" font-size="8.00" fill="#000000"> </text>
<text text-anchor="start" x="182" y="-109.1" font-family="Roboto" font-size="8.00" fill="#000000"> </text>
<text text-anchor="start" x="185" y="-109.1" font-family="Roboto" font-size="7.00" fill="#000000">de.lmu.ifi.dbs.elki.distance.distancefunction</text>
<text text-anchor="start" x="329" y="-109.1" font-family="Roboto" font-size="8.00" fill="#000000"> </text>
</a>
</g>
</a>
</g>
</g>
<!-- c5563688&#45;&gt;c5563689 -->
<g id="edge1" class="edge">
<title>c5563688&#45;&gt;c5563689</title>
<path fill="none" stroke="#000000" stroke-dasharray="5,2" d="M168.0351,-102.0077C171.3496,-102.7339 174.664,-103.4601 177.9599,-104.1822"/>
<polygon fill="none" stroke="#000000" points="168.6274,-98.5545 158.11,-99.8331 167.1292,-105.3923 168.6274,-98.5545"/>
</g>
<!-- c5564088 -->
<g id="node4" class="node">
<title>c5564088</title>
<g id="a_node4"><a xlink:href="AbstractSetDistanceFunction.html" xlink:title="&lt;TABLE&gt;">
<g id="a_node4_2"><a xlink:href="AbstractSetDistanceFunction.html" xlink:title="de.lmu.ifi.dbs.elki.distance.distancefunction.set.AbstractSetDistanceFunction" target="_parent">
<polygon fill="none" stroke="#000000" points="200,-73.5 200,-90.5 315,-90.5 315,-73.5 200,-73.5"/>
<text text-anchor="start" x="204" y="-81.1" font-family="Roboto" font-size="8.00" fill="#000000"> </text>
<text text-anchor="start" x="207" y="-81.1" font-family="Roboto" font-style="italic" font-size="8.00" fill="#000000">AbstractSetDistanceFunction</text>
<text text-anchor="start" x="308" y="-81.1" font-family="Roboto" font-size="8.00" fill="#000000"> </text>
</a>
</g>
</a>
</g>
</g>
<!-- c5563688&#45;&gt;c5564088 -->
<g id="edge2" class="edge">
<title>c5563688&#45;&gt;c5564088</title>
<path fill="none" stroke="#000000" stroke-dasharray="5,2" d="M168.2671,-82.5C178.88,-82.5 189.4878,-82.5 199.4869,-82.5"/>
<polygon fill="none" stroke="#000000" points="168.11,-79.0001 158.11,-82.5 168.11,-86.0001 168.11,-79.0001"/>
</g>
<!-- c5564091 -->
<g id="node5" class="node">
<title>c5564091</title>
<g id="a_node5"><a xlink:href="JaccardSimilarityDistanceFunction.html" xlink:title="&lt;TABLE&gt;">
<g id="a_node5_3"><a xlink:href="JaccardSimilarityDistanceFunction.html" xlink:title="de.lmu.ifi.dbs.elki.distance.distancefunction.set.JaccardSimilarityDistanceFunction" target="_parent">
<polygon fill="#fffacd" stroke="transparent" points="356,-74 356,-91 494,-91 494,-74 356,-74"/>
<polygon fill="none" stroke="#000000" points="356,-73.5 356,-90.5 494,-90.5 494,-73.5 356,-73.5"/>
<text text-anchor="start" x="360" y="-81.1" font-family="Roboto" font-size="8.00" fill="#000000"> </text>
<text text-anchor="start" x="363" y="-81.1" font-family="Roboto" font-size="8.00" fill="#000000">JaccardSimilarityDistanceFunction</text>
<text text-anchor="start" x="487" y="-81.1" font-family="Roboto" font-size="8.00" fill="#000000"> </text>
</a>
</g>
</a>
</g>
</g>
<!-- c5563688&#45;&gt;c5564091 -->
<g id="edge6" class="edge">
<title>c5563688&#45;&gt;c5564091</title>
<path fill="none" stroke="#000000" stroke-dasharray="5,2" d="M168.2229,-69.1288C170.8417,-68.8948 173.4384,-68.6839 176,-68.5 247.8152,-63.3442 266.229,-62.7622 338,-68.5 351.8773,-69.6094 366.8819,-71.6991 380.4588,-73.932"/>
<polygon fill="none" stroke="#000000" points="167.6459,-65.6688 158.04,-70.1383 168.3365,-72.6346 167.6459,-65.6688"/>
</g>
<!-- c5563689&#45;&gt;c5564091 -->
<g id="edge5" class="edge">
<title>c5563689&#45;&gt;c5564091</title>
<path fill="none" stroke="#000000" stroke-dasharray="5,2" d="M345.9084,-100.8606C360.8485,-97.3923 375.5808,-93.9723 388.2063,-91.0414"/>
<polygon fill="none" stroke="#000000" points="345.0301,-97.4713 336.0806,-103.142 346.6131,-104.29 345.0301,-97.4713"/>
</g>
<!-- c5563696 -->
<g id="node3" class="node">
<title>c5563696</title>
<g id="a_node3"><a xlink:href="../../similarityfunction/NormalizedPrimitiveSimilarityFunction.html" xlink:title="&lt;TABLE&gt;">
<g id="a_node3_4"><a xlink:href="../../similarityfunction/NormalizedPrimitiveSimilarityFunction.html" xlink:title="de.lmu.ifi.dbs.elki.distance.similarityfunction.NormalizedPrimitiveSimilarityFunction" target="_parent">
<polygon fill="none" stroke="#000000" points="176,.5 176,-38.5 338,-38.5 338,.5 176,.5"/>
<text text-anchor="start" x="235.5" y="-28.1" font-family="Roboto" font-size="8.00" fill="#000000"> «interface» </text>
<text text-anchor="start" x="186" y="-18.1" font-family="Roboto" font-size="8.00" fill="#000000"> </text>
<text text-anchor="start" x="189" y="-18.1" font-family="Roboto" font-size="8.00" fill="#000000">NormalizedPrimitiveSimilarityFunction</text>
<text text-anchor="start" x="325" y="-18.1" font-family="Roboto" font-size="8.00" fill="#000000"> </text>
<text text-anchor="start" x="180" y="-7.1" font-family="Roboto" font-size="8.00" fill="#000000"> </text>
<text text-anchor="start" x="183" y="-7.1" font-family="Roboto" font-size="7.00" fill="#000000">de.lmu.ifi.dbs.elki.distance.similarityfunction</text>
<text text-anchor="start" x="331" y="-7.1" font-family="Roboto" font-size="8.00" fill="#000000"> </text>
</a>
</g>
</a>
</g>
</g>
<!-- c5563696&#45;&gt;c5564091 -->
<g id="edge4" class="edge">
<title>c5563696&#45;&gt;c5564091</title>
<path fill="none" stroke="#000000" stroke-dasharray="5,2" d="M322.1044,-42.6241C327.4888,-44.5928 332.8417,-46.5691 338,-48.5 360.4774,-56.9139 386.0432,-66.963 403.6138,-73.9444"/>
<polygon fill="none" stroke="#000000" points="323.0077,-39.2285 312.4137,-39.1004 320.6156,-45.8071 323.0077,-39.2285"/>
</g>
<!-- c5564088&#45;&gt;c5564091 -->
<g id="edge3" class="edge">
<title>c5564088&#45;&gt;c5564091</title>
<path fill="none" stroke="#000000" d="M324.8672,-82.5C335.0511,-82.5 345.5639,-82.5 355.7758,-82.5"/>
<polygon fill="none" stroke="#000000" points="324.8161,-79.0001 314.8161,-82.5 324.816,-86.0001 324.8161,-79.0001"/>
</g>
</g>
</svg>
