<?xml version="1.0" encoding="UTF-8" standalone="no"?><svg xmlns="http://www.w3.org/2000/svg" xmlns:xlink="http://www.w3.org/1999/xlink" contentStyleType="text/css" height="249px" preserveAspectRatio="none" style="width:521px;height:249px;background:#FFFFFF;" version="1.1" viewBox="0 0 521 249" width="521px" zoomAndPan="magnify"><defs/><g><!--MD5=[babcc6a8fd74b0172b3284030ed70184]
class elki.data.synthetic.bymodel.GeneratorMain.AssignLabelsByDistance--><a href="GeneratorMain.AssignLabelsByDistance.html" target="_top" title="GeneratorMain.AssignLabelsByDistance.html" xlink:actuate="onRequest" xlink:href="GeneratorMain.AssignLabelsByDistance.html" xlink:show="new" xlink:title="GeneratorMain.AssignLabelsByDistance.html" xlink:type="simple"><g id="elem_elki.data.synthetic.bymodel.GeneratorMain.AssignLabelsByDistance"><rect codeLine="6" fill="#F1F1F1" height="119.125" id="elki.data.synthetic.bymodel.GeneratorMain.AssignLabelsByDistance" rx="2.5" ry="2.5" style="stroke:#181818;stroke-width:0.5;" width="507" x="7" y="105"/><ellipse cx="119.25" cy="123.9688" fill="#ADD1B2" rx="11" ry="11" style="stroke:#181818;stroke-width:1.0;"/><path d="M122.2188,129.6094 Q121.6406,129.9063 121,130.0469 Q120.3594,130.2031 119.6563,130.2031 Q117.1563,130.2031 115.8281,128.5625 Q114.5156,126.9063 114.5156,123.7813 Q114.5156,120.6563 115.8281,119 Q117.1563,117.3438 119.6563,117.3438 Q120.3594,117.3438 121,117.5 Q121.6563,117.6563 122.2188,117.9531 L122.2188,120.6719 Q121.5938,120.0938 121,119.8281 Q120.4063,119.5469 119.7813,119.5469 Q118.4375,119.5469 117.75,120.625 Q117.0625,121.6875 117.0625,123.7813 Q117.0625,125.875 117.75,126.9531 Q118.4375,128.0156 119.7813,128.0156 Q120.4063,128.0156 121,127.75 Q121.5938,127.4688 122.2188,126.8906 L122.2188,129.6094 Z " fill="#000000"/><text fill="#000000" font-family="sans-serif" font-size="14" lengthAdjust="spacing" textLength="274" x="139.75" y="122.9951">GeneratorMain.AssignLabelsByDistance</text><text fill="#000000" font-family="sans-serif" font-size="10" lengthAdjust="spacing" textLength="132" x="210.75" y="135.5791">elki.data.synthetic.bymodel</text><line style="stroke:#181818;stroke-width:0.5;" x1="8" x2="513" y1="142.9375" y2="142.9375"/><rect fill="none" height="6" style="stroke:#C82930;stroke-width:1.0;" width="6" x="15" y="153.5859"/><text fill="#000000" font-family="sans-serif" font-size="14" lengthAdjust="spacing" textLength="120" x="27" y="159.9326">centers: double[]</text><line style="stroke:#181818;stroke-width:0.5;" x1="8" x2="513" y1="167.2344" y2="167.2344"/><ellipse cx="18" cy="180.8828" fill="#84BE84" rx="3" ry="3" style="stroke:#038048;stroke-width:1.0;"/><text fill="#000000" font-family="sans-serif" font-size="14" lengthAdjust="spacing" textLength="261" x="27" y="184.2295">AssignLabelsByDistance(ClassLabel[])</text><rect fill="#F24D5C" height="6" style="stroke:#C82930;stroke-width:1.0;" width="6" x="15" y="194.1797"/><text fill="#000000" font-family="sans-serif" font-size="14" lengthAdjust="spacing" textLength="481" x="27" y="200.5264">clusterCenters(ArrayList&lt;GeneratorInterface&gt;, ClassLabel[]): double[]</text><ellipse cx="18" cy="213.4766" fill="#84BE84" rx="3" ry="3" style="stroke:#038048;stroke-width:1.0;"/><text fill="#000000" font-family="sans-serif" font-size="14" lengthAdjust="spacing" textLength="224" x="27" y="216.8232">getAssignment(int, double[]): int</text></g></a><!--MD5=[f8960dce5a059d622f7c6bca11fd41f1]
class elki.data.synthetic.bymodel.GeneratorMain.AssignPoint--><g id="elem_elki.data.synthetic.bymodel.GeneratorMain.AssignPoint"><rect codeLine="13" fill="#F1F1F1" height="37.9375" id="elki.data.synthetic.bymodel.GeneratorMain.AssignPoint" rx="2.5" ry="2.5" style="stroke:#181818;stroke-width:0.5;" width="219" x="38" y="7"/><ellipse cx="53" cy="25.9688" fill="#ADD1B2" rx="11" ry="11" style="stroke:#181818;stroke-width:1.0;"/><path d="M55.9688,31.6094 Q55.3906,31.9063 54.75,32.0469 Q54.1094,32.2031 53.4063,32.2031 Q50.9063,32.2031 49.5781,30.5625 Q48.2656,28.9063 48.2656,25.7813 Q48.2656,22.6563 49.5781,21 Q50.9063,19.3438 53.4063,19.3438 Q54.1094,19.3438 54.75,19.5 Q55.4063,19.6563 55.9688,19.9531 L55.9688,22.6719 Q55.3438,22.0938 54.75,21.8281 Q54.1563,21.5469 53.5313,21.5469 Q52.1875,21.5469 51.5,22.625 Q50.8125,23.6875 50.8125,25.7813 Q50.8125,27.875 51.5,28.9531 Q52.1875,30.0156 53.5313,30.0156 Q54.1563,30.0156 54.75,29.75 Q55.3438,29.4688 55.9688,28.8906 L55.9688,31.6094 Z " fill="#000000"/><text fill="#000000" font-family="sans-serif" font-size="14" lengthAdjust="spacing" textLength="187" x="67" y="24.9951">GeneratorMain.AssignPoint</text><text fill="#000000" font-family="sans-serif" font-size="10" lengthAdjust="spacing" textLength="132" x="94.5" y="37.5791">elki.data.synthetic.bymodel</text></g><!--MD5=[a16fb7adb645ca2ed2ec90e663b31b49]
class elki.data.synthetic.bymodel.GeneratorMain--><a href="GeneratorMain.html" target="_top" title="GeneratorMain.html" xlink:actuate="onRequest" xlink:href="GeneratorMain.html" xlink:show="new" xlink:title="GeneratorMain.html" xlink:type="simple"><g id="elem_elki.data.synthetic.bymodel.GeneratorMain"><rect codeLine="14" fill="#F1F1F1" height="37.9375" id="elki.data.synthetic.bymodel.GeneratorMain" rx="2.5" ry="2.5" style="stroke:#181818;stroke-width:0.5;" width="164" x="292.5" y="7"/><ellipse cx="307.5" cy="25.9688" fill="#ADD1B2" rx="11" ry="11" style="stroke:#181818;stroke-width:1.0;"/><path d="M310.4688,31.6094 Q309.8906,31.9063 309.25,32.0469 Q308.6094,32.2031 307.9063,32.2031 Q305.4063,32.2031 304.0781,30.5625 Q302.7656,28.9063 302.7656,25.7813 Q302.7656,22.6563 304.0781,21 Q305.4063,19.3438 307.9063,19.3438 Q308.6094,19.3438 309.25,19.5 Q309.9063,19.6563 310.4688,19.9531 L310.4688,22.6719 Q309.8438,22.0938 309.25,21.8281 Q308.6563,21.5469 308.0313,21.5469 Q306.6875,21.5469 306,22.625 Q305.3125,23.6875 305.3125,25.7813 Q305.3125,27.875 306,28.9531 Q306.6875,30.0156 308.0313,30.0156 Q308.6563,30.0156 309.25,29.75 Q309.8438,29.4688 310.4688,28.8906 L310.4688,31.6094 Z " fill="#000000"/><text fill="#000000" font-family="sans-serif" font-size="14" lengthAdjust="spacing" textLength="102" x="336.5" y="24.9951">GeneratorMain</text><text fill="#000000" font-family="sans-serif" font-size="10" lengthAdjust="spacing" textLength="132" x="321.5" y="37.5791">elki.data.synthetic.bymodel</text></g></a><!--MD5=[bf83b5a99de80c9eb341501475f36385]
reverse link elki.data.synthetic.bymodel.GeneratorMain.AssignPoint to elki.data.synthetic.bymodel.GeneratorMain.AssignLabelsByDistance--><g id="link_elki.data.synthetic.bymodel.GeneratorMain.AssignPoint_elki.data.synthetic.bymodel.GeneratorMain.AssignLabelsByDistance"><path codeLine="16" d="M175.61,60.95 C186.57,74.2 199.47,89.78 211.85,104.73 " fill="none" id="elki.data.synthetic.bymodel.GeneratorMain.AssignPoint-backto-elki.data.synthetic.bymodel.GeneratorMain.AssignLabelsByDistance" style="stroke:#181818;stroke-width:1.0;"/><polygon fill="none" points="169.87,65,162.51,45.13,180.65,56.07,169.87,65" style="stroke:#181818;stroke-width:1.0;"/></g><!--MD5=[be76c5aa837cf5d7d1d1cf1d622f1f7b]
reverse link elki.data.synthetic.bymodel.GeneratorMain to elki.data.synthetic.bymodel.GeneratorMain.AssignLabelsByDistance--><g id="link_elki.data.synthetic.bymodel.GeneratorMain_elki.data.synthetic.bymodel.GeneratorMain.AssignLabelsByDistance"><path codeLine="17" d="M349.44,57.01 C337.72,71.04 323.33,88.26 309.58,104.73 " fill="none" id="elki.data.synthetic.bymodel.GeneratorMain-backto-elki.data.synthetic.bymodel.GeneratorMain.AssignLabelsByDistance" style="stroke:#181818;stroke-width:1.0;"/><ellipse cx="354.2325" cy="51.2708" fill="#FFFFFF" rx="8" ry="8" style="stroke:#181818;stroke-width:1.0;"/><line style="stroke:#181818;stroke-width:1.0;" x1="349.1051" x2="359.36" y1="57.4115" y2="45.13"/><line style="stroke:#181818;stroke-width:1.0;" x1="348.0918" x2="360.3733" y1="46.1433" y2="56.3982"/></g><rect fill="none" height="11.6406" style="stroke:none;stroke-width:1.0;" width="186" x="160.5" y="230.125"/><text fill="#888888" font-family="sans-serif" font-size="10" lengthAdjust="spacing" textLength="186" x="160.5" y="239.4072">UMLDoclet 2.0.19, PlantUML 1.2022.8</text><!--MD5=[04badd1ca6b66847d11b3df54ef634af]
@startuml
    remove .*\.(Instance|Par|Parameterizer|Factory)$
    set namespaceSeparator none
    hide empty fields
    hide empty methods

    class "<size:14>GeneratorMain.AssignLabelsByDistance\n<size:10>elki.data.synthetic.bymodel" as elki.data.synthetic.bymodel.GeneratorMain.AssignLabelsByDistance [[GeneratorMain.AssignLabelsByDistance.html]] {
        -centers: double[]
        +AssignLabelsByDistance(ClassLabel[])
        -clusterCenters(ArrayList<GeneratorInterface>, ClassLabel[]): double[]
        +getAssignment(int, double[]): int
    }

    class "<size:14>GeneratorMain.AssignPoint\n<size:10>elki.data.synthetic.bymodel" as elki.data.synthetic.bymodel.GeneratorMain.AssignPoint
    class "<size:14>GeneratorMain\n<size:10>elki.data.synthetic.bymodel" as elki.data.synthetic.bymodel.GeneratorMain [[GeneratorMain.html]]

    elki.data.synthetic.bymodel.GeneratorMain.AssignPoint <|- - elki.data.synthetic.bymodel.GeneratorMain.AssignLabelsByDistance
    elki.data.synthetic.bymodel.GeneratorMain +- - elki.data.synthetic.bymodel.GeneratorMain.AssignLabelsByDistance

    center footer UMLDoclet 2.0.19, PlantUML 1.2022.8
@enduml

PlantUML version 1.2022.8(Sun Sep 25 11:00:33 CEST 2022)
(APACHE source distribution)
Java Runtime: OpenJDK Runtime Environment
JVM: OpenJDK 64-Bit Server VM
Default Encoding: UTF-8
Language: de
Country: DE
--></g></svg>