<?xml version="1.0" encoding="UTF-8" standalone="no"?>
<!DOCTYPE svg PUBLIC "-//W3C//DTD SVG 1.1//EN"
 "http://www.w3.org/Graphics/SVG/1.1/DTD/svg11.dtd">
<!-- Generated by graphviz version 2.40.1 (20161225.0304)
 -->
<!-- Title: G Pages: 1 -->
<svg width="343pt" height="36pt"
 viewBox="0.00 0.00 343.00 36.00" xmlns="http://www.w3.org/2000/svg" xmlns:xlink="http://www.w3.org/1999/xlink">
<g id="graph0" class="graph" transform="scale(1 1) rotate(0) translate(4 32)">
<title>G</title>
<polygon fill="#ffffff" stroke="transparent" points="-4,4 -4,-32 339,-32 339,4 -4,4"/>
<!-- c4904959 -->
<g id="node1" class="node">
<title>c4904959</title>
<g id="a_node1"><a xlink:href="HandlerList.html" xlink:title="&lt;TABLE&gt;">
<g id="a_node1_0"><a xlink:href="HandlerList.html" xlink:title="de.lmu.ifi.dbs.elki.utilities.HandlerList" target="_parent">
<polygon fill="#fffacd" stroke="transparent" points="144,-5.5 144,-22.5 200,-22.5 200,-5.5 144,-5.5"/>
<polygon fill="none" stroke="#000000" points="144,-5 144,-22 200,-22 200,-5 144,-5"/>
<text text-anchor="start" x="148" y="-12.6" font-family="Roboto" font-size="8.00" fill="#000000"> </text>
<text text-anchor="start" x="151" y="-12.6" font-family="Roboto" font-size="8.00" fill="#000000">HandlerList</text>
<text text-anchor="start" x="193" y="-12.6" font-family="Roboto" font-size="8.00" fill="#000000"> </text>
</a>
</g>
</a>
</g>
</g>
<!-- c4905985 -->
<g id="node3" class="node">
<title>c4905985</title>
<g id="a_node3"><a xlink:href="pairs/Pair.html" xlink:title="&lt;TABLE&gt;">
<g id="a_node3_1"><a xlink:href="pairs/Pair.html" xlink:title="de.lmu.ifi.dbs.elki.utilities.pairs.Pair" target="_parent">
<polygon fill="none" stroke="#000000" points="218.5,0 218.5,-28 335.5,-28 335.5,0 218.5,0"/>
<text text-anchor="start" x="266.5" y="-18.6" font-family="Roboto" font-size="8.00" fill="#000000"> </text>
<text text-anchor="start" x="269.5" y="-18.6" font-family="Roboto" font-size="8.00" fill="#000000">Pair</text>
<text text-anchor="start" x="284.5" y="-18.6" font-family="Roboto" font-size="8.00" fill="#000000"> </text>
<text text-anchor="start" x="222.5" y="-7.6" font-family="Roboto" font-size="8.00" fill="#000000"> </text>
<text text-anchor="start" x="225.5" y="-7.6" font-family="Roboto" font-size="7.00" fill="#000000">de.lmu.ifi.dbs.elki.utilities.pairs</text>
<text text-anchor="start" x="328.5" y="-7.6" font-family="Roboto" font-size="8.00" fill="#000000"> </text>
</a>
</g>
</a>
</g>
</g>
<!-- c4904959&#45;&gt;c4905985 -->
<g id="edge1" class="edge">
<title>c4904959&#45;&gt;c4905985</title>
<path fill="none" stroke="#000000" d="M200.0041,-14C202.4375,-14 204.9611,-14 207.5456,-14"/>
<polygon fill="#000000" stroke="#000000" points="217.7545,-14 207.7545,-18.5001 212.7545,-14 207.7545,-14.0001 207.7545,-14.0001 207.7545,-14.0001 212.7545,-14 207.7544,-9.5001 217.7545,-14 217.7545,-14"/>
<text text-anchor="middle" x="215.7545" y="-8.4" font-family="Roboto" font-size="7.00" fill="#000000">*</text>
</g>
<!-- c4905005 -->
<g id="node2" class="node">
<title>c4905005</title>
<g id="a_node2"><a xlink:href="../result/textwriter/TextWriterStream.html" xlink:title="&lt;TABLE&gt;">
<g id="a_node2_2"><a xlink:href="../result/textwriter/TextWriterStream.html" xlink:title="de.lmu.ifi.dbs.elki.result.textwriter.TextWriterStream" target="_parent">
<polygon fill="none" stroke="#000000" points="0,0 0,-28 126,-28 126,0 0,0"/>
<text text-anchor="start" x="29.5" y="-18.6" font-family="Roboto" font-size="8.00" fill="#000000"> </text>
<text text-anchor="start" x="32.5" y="-18.6" font-family="Roboto" font-size="8.00" fill="#000000">TextWriterStream</text>
<text text-anchor="start" x="93.5" y="-18.6" font-family="Roboto" font-size="8.00" fill="#000000"> </text>
<text text-anchor="start" x="4" y="-7.6" font-family="Roboto" font-size="8.00" fill="#000000"> </text>
<text text-anchor="start" x="7" y="-7.6" font-family="Roboto" font-size="7.00" fill="#000000">de.lmu.ifi.dbs.elki.result.textwriter</text>
<text text-anchor="start" x="119" y="-7.6" font-family="Roboto" font-size="8.00" fill="#000000"> </text>
</a>
</g>
</a>
</g>
</g>
<!-- c4905005&#45;&gt;c4904959 -->
<g id="edge2" class="edge">
<title>c4905005&#45;&gt;c4904959</title>
<path fill="none" stroke="#000000" d="M126.0901,-14C128.7119,-14 131.3064,-14 133.8486,-14"/>
<polygon fill="#000000" stroke="#000000" points="143.9409,-14 133.9409,-18.5001 138.9409,-14 133.9409,-14.0001 133.9409,-14.0001 133.9409,-14.0001 138.9409,-14 133.9408,-9.5001 143.9409,-14 143.9409,-14"/>
</g>
</g>
</svg>
