<?xml version="1.0" encoding="UTF-8" standalone="no"?>
<!DOCTYPE svg PUBLIC "-//W3C//DTD SVG 1.1//EN"
 "http://www.w3.org/Graphics/SVG/1.1/DTD/svg11.dtd">
<!-- Generated by graphviz version 2.40.1 (20161225.0304)
 -->
<!-- Title: G Pages: 1 -->
<svg width="639pt" height="467pt"
 viewBox="0.00 0.00 639.00 467.00" xmlns="http://www.w3.org/2000/svg" xmlns:xlink="http://www.w3.org/1999/xlink">
<g id="graph0" class="graph" transform="scale(1 1) rotate(0) translate(4 463)">
<title>G</title>
<polygon fill="#ffffff" stroke="transparent" points="-4,4 -4,-463 635,-463 635,4 -4,4"/>
<!-- c6056657 -->
<g id="node1" class="node">
<title>c6056657</title>
<g id="a_node1"><a xlink:href="../Distribution.html" xlink:title="&lt;TABLE&gt;">
<g id="a_node1_0"><a xlink:href="../Distribution.html" xlink:title="de.lmu.ifi.dbs.elki.math.statistics.distribution.Distribution" target="_parent">
<polygon fill="none" stroke="#000000" points="466,-419.5 466,-458.5 628,-458.5 628,-419.5 466,-419.5"/>
<text text-anchor="start" x="525.5" y="-448.1" font-family="Roboto" font-size="8.00" fill="#000000"> «interface» </text>
<text text-anchor="start" x="523" y="-438.1" font-family="Roboto" font-size="8.00" fill="#000000"> </text>
<text text-anchor="start" x="526" y="-438.1" font-family="Roboto" font-size="8.00" fill="#000000">Distribution</text>
<text text-anchor="start" x="568" y="-438.1" font-family="Roboto" font-size="8.00" fill="#000000"> </text>
<text text-anchor="start" x="470" y="-427.1" font-family="Roboto" font-size="8.00" fill="#000000"> </text>
<text text-anchor="start" x="473" y="-427.1" font-family="Roboto" font-size="7.00" fill="#000000">de.lmu.ifi.dbs.elki.math.statistics.distribution</text>
<text text-anchor="start" x="621" y="-427.1" font-family="Roboto" font-size="8.00" fill="#000000"> </text>
</a>
</g>
</a>
</g>
</g>
<!-- c6056672 -->
<g id="node2" class="node">
<title>c6056672</title>
<g id="a_node2"><a xlink:href="GumbelLMMEstimator.html" xlink:title="&lt;TABLE&gt;">
<g id="a_node2_1"><a xlink:href="GumbelLMMEstimator.html" xlink:title="de.lmu.ifi.dbs.elki.math.statistics.distribution.estimator.GumbelLMMEstimator" target="_parent">
<polygon fill="none" stroke="#000000" points="500,-391.5 500,-408.5 595,-408.5 595,-391.5 500,-391.5"/>
<text text-anchor="start" x="504" y="-399.1" font-family="Roboto" font-size="8.00" fill="#000000"> </text>
<text text-anchor="start" x="507" y="-399.1" font-family="Roboto" font-size="8.00" fill="#000000">GumbelLMMEstimator</text>
<text text-anchor="start" x="588" y="-399.1" font-family="Roboto" font-size="8.00" fill="#000000"> </text>
</a>
</g>
</a>
</g>
</g>
<!-- c6056676 -->
<g id="node3" class="node">
<title>c6056676</title>
<g id="a_node3"><a xlink:href="SkewGNormalLMMEstimator.html" xlink:title="&lt;TABLE&gt;">
<g id="a_node3_2"><a xlink:href="SkewGNormalLMMEstimator.html" xlink:title="de.lmu.ifi.dbs.elki.math.statistics.distribution.estimator.SkewGNormalLMMEstimator" target="_parent">
<polygon fill="none" stroke="#000000" points="488,-363.5 488,-380.5 606,-380.5 606,-363.5 488,-363.5"/>
<text text-anchor="start" x="492" y="-371.1" font-family="Roboto" font-size="8.00" fill="#000000"> </text>
<text text-anchor="start" x="495" y="-371.1" font-family="Roboto" font-size="8.00" fill="#000000">SkewGNormalLMMEstimator</text>
<text text-anchor="start" x="599" y="-371.1" font-family="Roboto" font-size="8.00" fill="#000000"> </text>
</a>
</g>
</a>
</g>
</g>
<!-- c6056684 -->
<g id="node4" class="node">
<title>c6056684</title>
<g id="a_node4"><a xlink:href="RayleighLMMEstimator.html" xlink:title="&lt;TABLE&gt;">
<g id="a_node4_3"><a xlink:href="RayleighLMMEstimator.html" xlink:title="de.lmu.ifi.dbs.elki.math.statistics.distribution.estimator.RayleighLMMEstimator" target="_parent">
<polygon fill="none" stroke="#000000" points="498,-335.5 498,-352.5 596,-352.5 596,-335.5 498,-335.5"/>
<text text-anchor="start" x="502" y="-343.1" font-family="Roboto" font-size="8.00" fill="#000000"> </text>
<text text-anchor="start" x="505" y="-343.1" font-family="Roboto" font-size="8.00" fill="#000000">RayleighLMMEstimator</text>
<text text-anchor="start" x="589" y="-343.1" font-family="Roboto" font-size="8.00" fill="#000000"> </text>
</a>
</g>
</a>
</g>
</g>
<!-- c6056690 -->
<g id="node5" class="node">
<title>c6056690</title>
<g id="a_node5"><a xlink:href="GeneralizedExtremeValueLMMEstimator.html" xlink:title="&lt;TABLE&gt;">
<g id="a_node5_4"><a xlink:href="GeneralizedExtremeValueLMMEstimator.html" xlink:title="de.lmu.ifi.dbs.elki.math.statistics.distribution.estimator.GeneralizedExtremeValueLMMEstimator" target="_parent">
<polygon fill="none" stroke="#000000" points="468,-307.5 468,-324.5 626,-324.5 626,-307.5 468,-307.5"/>
<text text-anchor="start" x="472" y="-315.1" font-family="Roboto" font-size="8.00" fill="#000000"> </text>
<text text-anchor="start" x="475" y="-315.1" font-family="Roboto" font-size="8.00" fill="#000000">GeneralizedExtremeValueLMMEstimator</text>
<text text-anchor="start" x="619" y="-315.1" font-family="Roboto" font-size="8.00" fill="#000000"> </text>
</a>
</g>
</a>
</g>
</g>
<!-- c6056692 -->
<g id="node6" class="node">
<title>c6056692</title>
<g id="a_node6"><a xlink:href="GeneralizedParetoLMMEstimator.html" xlink:title="&lt;TABLE&gt;">
<g id="a_node6_5"><a xlink:href="GeneralizedParetoLMMEstimator.html" xlink:title="de.lmu.ifi.dbs.elki.math.statistics.distribution.estimator.GeneralizedParetoLMMEstimator" target="_parent">
<polygon fill="none" stroke="#000000" points="481,-279.5 481,-296.5 613,-296.5 613,-279.5 481,-279.5"/>
<text text-anchor="start" x="485" y="-287.1" font-family="Roboto" font-size="8.00" fill="#000000"> </text>
<text text-anchor="start" x="488" y="-287.1" font-family="Roboto" font-size="8.00" fill="#000000">GeneralizedParetoLMMEstimator</text>
<text text-anchor="start" x="606" y="-287.1" font-family="Roboto" font-size="8.00" fill="#000000"> </text>
</a>
</g>
</a>
</g>
</g>
<!-- c6056702 -->
<g id="node7" class="node">
<title>c6056702</title>
<g id="a_node7"><a xlink:href="DistributionEstimator.html" xlink:title="&lt;TABLE&gt;">
<g id="a_node7_6"><a xlink:href="DistributionEstimator.html" xlink:title="de.lmu.ifi.dbs.elki.math.statistics.distribution.estimator.DistributionEstimator" target="_parent">
<polygon fill="none" stroke="#000000" points=".5,-205.5 .5,-233.5 89.5,-233.5 89.5,-205.5 .5,-205.5"/>
<text text-anchor="start" x="23.5" y="-223.1" font-family="Roboto" font-size="8.00" fill="#000000"> «interface» </text>
<text text-anchor="start" x="4.5" y="-213.1" font-family="Roboto" font-size="8.00" fill="#000000"> </text>
<text text-anchor="start" x="7.5" y="-213.1" font-family="Roboto" font-size="8.00" fill="#000000">DistributionEstimator</text>
<text text-anchor="start" x="82.5" y="-213.1" font-family="Roboto" font-size="8.00" fill="#000000"> </text>
</a>
</g>
</a>
</g>
</g>
<!-- c6056702&#45;&gt;c6056657 -->
<g id="edge19" class="edge">
<title>c6056702&#45;&gt;c6056657</title>
<path fill="none" stroke="#000000" stroke-dasharray="5,2" d="M67.6336,-233.5821C79.285,-240.4794 93.7235,-248.734 107,-255.5 261.3929,-334.1822 300.4984,-354.3228 463,-414.5 464.8727,-415.1935 466.7743,-415.8816 468.6967,-416.5631"/>
<polygon fill="#000000" stroke="#000000" points="478.4465,-419.9089 467.5272,-420.9193 473.7172,-418.2859 468.9879,-416.6629 468.9879,-416.6629 468.9879,-416.6629 473.7172,-418.2859 470.4486,-412.4066 478.4465,-419.9089 478.4465,-419.9089"/>
</g>
<!-- c6056744 -->
<g id="node14" class="node">
<title>c6056744</title>
<g id="a_node14"><a xlink:href="meta/BestFitEstimator.html" xlink:title="&lt;TABLE&gt;">
<g id="a_node14_7"><a xlink:href="meta/BestFitEstimator.html" xlink:title="de.lmu.ifi.dbs.elki.math.statistics.distribution.estimator.meta.BestFitEstimator" target="_parent">
<polygon fill="none" stroke="#000000" points="107,-221.5 107,-249.5 319,-249.5 319,-221.5 107,-221.5"/>
<text text-anchor="start" x="181" y="-240.1" font-family="Roboto" font-size="8.00" fill="#000000"> </text>
<text text-anchor="start" x="184" y="-240.1" font-family="Roboto" font-size="8.00" fill="#000000">BestFitEstimator</text>
<text text-anchor="start" x="242" y="-240.1" font-family="Roboto" font-size="8.00" fill="#000000"> </text>
<text text-anchor="start" x="111" y="-229.1" font-family="Roboto" font-size="8.00" fill="#000000"> </text>
<text text-anchor="start" x="114" y="-229.1" font-family="Roboto" font-size="7.00" fill="#000000">de.lmu.ifi.dbs.elki.math.statistics.distribution.estimator.meta</text>
<text text-anchor="start" x="312" y="-229.1" font-family="Roboto" font-size="8.00" fill="#000000"> </text>
</a>
</g>
</a>
</g>
</g>
<!-- c6056702&#45;&gt;c6056744 -->
<g id="edge12" class="edge">
<title>c6056702&#45;&gt;c6056744</title>
<path fill="none" stroke="#000000" stroke-dasharray="5,2" d="M99.3009,-224.7036C101.8164,-224.9425 104.372,-225.1852 106.957,-225.4306"/>
<polygon fill="none" stroke="#000000" points="99.4986,-221.2068 89.2125,-223.7457 98.8369,-228.1754 99.4986,-221.2068"/>
</g>
<!-- c6056758 -->
<g id="node18" class="node">
<title>c6056758</title>
<g id="a_node18"><a xlink:href="LMMDistributionEstimator.html" xlink:title="&lt;TABLE&gt;">
<g id="a_node18_8"><a xlink:href="LMMDistributionEstimator.html" xlink:title="de.lmu.ifi.dbs.elki.math.statistics.distribution.estimator.LMMDistributionEstimator" target="_parent">
<polygon fill="#fffacd" stroke="transparent" points="337,-190.5 337,-218.5 445,-218.5 445,-190.5 337,-190.5"/>
<polygon fill="none" stroke="#000000" points="337,-190.5 337,-218.5 445,-218.5 445,-190.5 337,-190.5"/>
<text text-anchor="start" x="369.5" y="-208.1" font-family="Roboto" font-size="8.00" fill="#000000"> «interface» </text>
<text text-anchor="start" x="341" y="-198.1" font-family="Roboto" font-size="8.00" fill="#000000"> </text>
<text text-anchor="start" x="344" y="-198.1" font-family="Roboto" font-size="8.00" fill="#000000">LMMDistributionEstimator</text>
<text text-anchor="start" x="438" y="-198.1" font-family="Roboto" font-size="8.00" fill="#000000"> </text>
</a>
</g>
</a>
</g>
</g>
<!-- c6056702&#45;&gt;c6056758 -->
<g id="edge17" class="edge">
<title>c6056702&#45;&gt;c6056758</title>
<path fill="none" stroke="#000000" stroke-dasharray="5,2" d="M99.3112,-216.8511C101.9104,-216.7311 104.4837,-216.6136 107,-216.5 186.9882,-212.8904 279.6647,-209.036 336.8157,-206.697"/>
<polygon fill="none" stroke="#000000" points="99.0486,-213.3595 89.2227,-217.3221 99.3751,-220.3519 99.0486,-213.3595"/>
</g>
<!-- c6056703 -->
<g id="node8" class="node">
<title>c6056703</title>
<g id="a_node8"><a xlink:href="UniformLMMEstimator.html" xlink:title="&lt;TABLE&gt;">
<g id="a_node8_9"><a xlink:href="UniformLMMEstimator.html" xlink:title="de.lmu.ifi.dbs.elki.math.statistics.distribution.estimator.UniformLMMEstimator" target="_parent">
<polygon fill="none" stroke="#000000" points="499,-251.5 499,-268.5 595,-268.5 595,-251.5 499,-251.5"/>
<text text-anchor="start" x="503" y="-259.1" font-family="Roboto" font-size="8.00" fill="#000000"> </text>
<text text-anchor="start" x="506" y="-259.1" font-family="Roboto" font-size="8.00" fill="#000000">UniformLMMEstimator</text>
<text text-anchor="start" x="588" y="-259.1" font-family="Roboto" font-size="8.00" fill="#000000"> </text>
</a>
</g>
</a>
</g>
</g>
<!-- c6056714 -->
<g id="node9" class="node">
<title>c6056714</title>
<g id="a_node9"><a xlink:href="ExponentialLMMEstimator.html" xlink:title="&lt;TABLE&gt;">
<g id="a_node9_10"><a xlink:href="ExponentialLMMEstimator.html" xlink:title="de.lmu.ifi.dbs.elki.math.statistics.distribution.estimator.ExponentialLMMEstimator" target="_parent">
<polygon fill="none" stroke="#000000" points="493,-223.5 493,-240.5 601,-240.5 601,-223.5 493,-223.5"/>
<text text-anchor="start" x="497" y="-231.1" font-family="Roboto" font-size="8.00" fill="#000000"> </text>
<text text-anchor="start" x="500" y="-231.1" font-family="Roboto" font-size="8.00" fill="#000000">ExponentialLMMEstimator</text>
<text text-anchor="start" x="594" y="-231.1" font-family="Roboto" font-size="8.00" fill="#000000"> </text>
</a>
</g>
</a>
</g>
</g>
<!-- c6056720 -->
<g id="node10" class="node">
<title>c6056720</title>
<g id="a_node10"><a xlink:href="GammaLMMEstimator.html" xlink:title="&lt;TABLE&gt;">
<g id="a_node10_11"><a xlink:href="GammaLMMEstimator.html" xlink:title="de.lmu.ifi.dbs.elki.math.statistics.distribution.estimator.GammaLMMEstimator" target="_parent">
<polygon fill="none" stroke="#000000" points="499,-195.5 499,-212.5 595,-212.5 595,-195.5 499,-195.5"/>
<text text-anchor="start" x="503" y="-203.1" font-family="Roboto" font-size="8.00" fill="#000000"> </text>
<text text-anchor="start" x="506" y="-203.1" font-family="Roboto" font-size="8.00" fill="#000000">GammaLMMEstimator</text>
<text text-anchor="start" x="588" y="-203.1" font-family="Roboto" font-size="8.00" fill="#000000"> </text>
</a>
</g>
</a>
</g>
</g>
<!-- c6056722 -->
<g id="node11" class="node">
<title>c6056722</title>
<g id="a_node11"><a xlink:href="WeibullLMMEstimator.html" xlink:title="&lt;TABLE&gt;">
<g id="a_node11_12"><a xlink:href="WeibullLMMEstimator.html" xlink:title="de.lmu.ifi.dbs.elki.math.statistics.distribution.estimator.WeibullLMMEstimator" target="_parent">
<polygon fill="none" stroke="#000000" points="501,-167.5 501,-184.5 594,-184.5 594,-167.5 501,-167.5"/>
<text text-anchor="start" x="505" y="-175.1" font-family="Roboto" font-size="8.00" fill="#000000"> </text>
<text text-anchor="start" x="508" y="-175.1" font-family="Roboto" font-size="8.00" fill="#000000">WeibullLMMEstimator</text>
<text text-anchor="start" x="587" y="-175.1" font-family="Roboto" font-size="8.00" fill="#000000"> </text>
</a>
</g>
</a>
</g>
</g>
<!-- c6056728 -->
<g id="node12" class="node">
<title>c6056728</title>
<g id="a_node12"><a xlink:href="NormalLMMEstimator.html" xlink:title="&lt;TABLE&gt;">
<g id="a_node12_13"><a xlink:href="NormalLMMEstimator.html" xlink:title="de.lmu.ifi.dbs.elki.math.statistics.distribution.estimator.NormalLMMEstimator" target="_parent">
<polygon fill="none" stroke="#000000" points="501,-139.5 501,-156.5 594,-156.5 594,-139.5 501,-139.5"/>
<text text-anchor="start" x="505" y="-147.1" font-family="Roboto" font-size="8.00" fill="#000000"> </text>
<text text-anchor="start" x="508" y="-147.1" font-family="Roboto" font-size="8.00" fill="#000000">NormalLMMEstimator</text>
<text text-anchor="start" x="587" y="-147.1" font-family="Roboto" font-size="8.00" fill="#000000"> </text>
</a>
</g>
</a>
</g>
</g>
<!-- c6056730 -->
<g id="node13" class="node">
<title>c6056730</title>
<g id="a_node13"><a xlink:href="LogNormalLMMEstimator.html" xlink:title="&lt;TABLE&gt;">
<g id="a_node13_14"><a xlink:href="LogNormalLMMEstimator.html" xlink:title="de.lmu.ifi.dbs.elki.math.statistics.distribution.estimator.LogNormalLMMEstimator" target="_parent">
<polygon fill="none" stroke="#000000" points="494,-111.5 494,-128.5 600,-128.5 600,-111.5 494,-111.5"/>
<text text-anchor="start" x="498" y="-119.1" font-family="Roboto" font-size="8.00" fill="#000000"> </text>
<text text-anchor="start" x="501" y="-119.1" font-family="Roboto" font-size="8.00" fill="#000000">LogNormalLMMEstimator</text>
<text text-anchor="start" x="593" y="-119.1" font-family="Roboto" font-size="8.00" fill="#000000"> </text>
</a>
</g>
</a>
</g>
</g>
<!-- c6056744&#45;&gt;c6056758 -->
<g id="edge13" class="edge">
<title>c6056744&#45;&gt;c6056758</title>
<path fill="none" stroke="#000000" d="M293.4074,-221.4965C308.1485,-218.9292 323.2069,-216.3067 336.9448,-213.9141"/>
</g>
<!-- c6056747 -->
<g id="node15" class="node">
<title>c6056747</title>
<g id="a_node15"><a xlink:href="LaplaceLMMEstimator.html" xlink:title="&lt;TABLE&gt;">
<g id="a_node15_15"><a xlink:href="LaplaceLMMEstimator.html" xlink:title="de.lmu.ifi.dbs.elki.math.statistics.distribution.estimator.LaplaceLMMEstimator" target="_parent">
<polygon fill="none" stroke="#000000" points="500,-83.5 500,-100.5 595,-100.5 595,-83.5 500,-83.5"/>
<text text-anchor="start" x="504" y="-91.1" font-family="Roboto" font-size="8.00" fill="#000000"> </text>
<text text-anchor="start" x="507" y="-91.1" font-family="Roboto" font-size="8.00" fill="#000000">LaplaceLMMEstimator</text>
<text text-anchor="start" x="588" y="-91.1" font-family="Roboto" font-size="8.00" fill="#000000"> </text>
</a>
</g>
</a>
</g>
</g>
<!-- c6056749 -->
<g id="node16" class="node">
<title>c6056749</title>
<g id="a_node16"><a xlink:href="LogNormalBilkovaLMMEstimator.html" xlink:title="&lt;TABLE&gt;">
<g id="a_node16_16"><a xlink:href="LogNormalBilkovaLMMEstimator.html" xlink:title="de.lmu.ifi.dbs.elki.math.statistics.distribution.estimator.LogNormalBilkovaLMMEstimator" target="_parent">
<polygon fill="none" stroke="#000000" points="481,-55.5 481,-72.5 613,-72.5 613,-55.5 481,-55.5"/>
<text text-anchor="start" x="485" y="-63.1" font-family="Roboto" font-size="8.00" fill="#000000"> </text>
<text text-anchor="start" x="488" y="-63.1" font-family="Roboto" font-size="8.00" fill="#000000">LogNormalBilkovaLMMEstimator</text>
<text text-anchor="start" x="606" y="-63.1" font-family="Roboto" font-size="8.00" fill="#000000"> </text>
</a>
</g>
</a>
</g>
</g>
<!-- c6056754 -->
<g id="node17" class="node">
<title>c6056754</title>
<g id="a_node17"><a xlink:href="LogisticLMMEstimator.html" xlink:title="&lt;TABLE&gt;">
<g id="a_node17_17"><a xlink:href="LogisticLMMEstimator.html" xlink:title="de.lmu.ifi.dbs.elki.math.statistics.distribution.estimator.LogisticLMMEstimator" target="_parent">
<polygon fill="none" stroke="#000000" points="500,-27.5 500,-44.5 594,-44.5 594,-27.5 500,-27.5"/>
<text text-anchor="start" x="504" y="-35.1" font-family="Roboto" font-size="8.00" fill="#000000"> </text>
<text text-anchor="start" x="507" y="-35.1" font-family="Roboto" font-size="8.00" fill="#000000">LogisticLMMEstimator</text>
<text text-anchor="start" x="587" y="-35.1" font-family="Roboto" font-size="8.00" fill="#000000"> </text>
</a>
</g>
</a>
</g>
</g>
<!-- c6056758&#45;&gt;c6056657 -->
<g id="edge20" class="edge">
<title>c6056758&#45;&gt;c6056657</title>
<path fill="none" stroke="#000000" stroke-dasharray="5,2" d="M420.2519,-218.6224C429.6861,-224.6537 439.1956,-232.6145 445,-242.5 463.0908,-273.3102 441.884,-369.9388 462.591,-411.3288"/>
<polygon fill="#000000" stroke="#000000" points="468.0437,-419.7196 458.8214,-413.7865 465.3192,-415.527 462.5947,-411.3345 462.5947,-411.3345 462.5947,-411.3345 465.3192,-415.527 466.368,-408.8824 468.0437,-419.7196 468.0437,-419.7196"/>
</g>
<!-- c6056758&#45;&gt;c6056672 -->
<g id="edge1" class="edge">
<title>c6056758&#45;&gt;c6056672</title>
<path fill="none" stroke="#000000" stroke-dasharray="5,2" d="M428.272,-224.4184C434.7858,-229.4905 440.8077,-235.5215 445,-242.5 478.2145,-297.7883 418.3326,-339.9723 463,-386.5 472.4197,-396.312 485.9176,-400.8798 499.346,-402.7053"/>
<polygon fill="none" stroke="#000000" points="430.0534,-221.3924 419.8589,-218.5073 426.0291,-227.1201 430.0534,-221.3924"/>
</g>
<!-- c6056758&#45;&gt;c6056676 -->
<g id="edge2" class="edge">
<title>c6056758&#45;&gt;c6056676</title>
<path fill="none" stroke="#000000" stroke-dasharray="5,2" d="M428.111,-224.5167C434.6373,-229.5813 440.7049,-235.5843 445,-242.5 472.526,-286.8204 426.3157,-321.4023 463,-358.5 469.7571,-365.3332 478.4982,-369.599 487.7801,-372.1606"/>
<polygon fill="none" stroke="#000000" points="429.8925,-221.4909 419.6981,-218.6055 425.8681,-227.2184 429.8925,-221.4909"/>
</g>
<!-- c6056758&#45;&gt;c6056684 -->
<g id="edge3" class="edge">
<title>c6056758&#45;&gt;c6056684</title>
<path fill="none" stroke="#000000" stroke-dasharray="5,2" d="M427.6594,-224.5309C434.2783,-229.6147 440.4966,-235.6215 445,-242.5 466.8668,-275.8994 434.2596,-302.7931 463,-330.5 472.2601,-339.4271 484.9278,-343.9035 497.6173,-345.9233"/>
<polygon fill="none" stroke="#000000" points="429.3614,-221.4502 419.1602,-218.589 425.3505,-227.1873 429.3614,-221.4502"/>
</g>
<!-- c6056758&#45;&gt;c6056690 -->
<g id="edge4" class="edge">
<title>c6056758&#45;&gt;c6056690</title>
<path fill="none" stroke="#000000" stroke-dasharray="5,2" d="M426.7953,-224.5588C433.5912,-229.6836 440.0985,-235.6996 445,-242.5 461.2788,-265.0856 442.1104,-284.0953 463,-302.5 465.3296,-304.5525 467.8422,-306.3624 470.4921,-307.9558"/>
<polygon fill="none" stroke="#000000" points="428.3443,-221.3738 418.1321,-218.5521 424.3557,-227.1264 428.3443,-221.3738"/>
</g>
<!-- c6056758&#45;&gt;c6056692 -->
<g id="edge5" class="edge">
<title>c6056758&#45;&gt;c6056692</title>
<path fill="none" stroke="#000000" stroke-dasharray="5,2" d="M424.2222,-224.3758C431.5838,-229.694 438.9775,-235.8375 445,-242.5 455.9424,-254.6052 449.6418,-265.1283 463,-274.5 468.4464,-278.321 474.5735,-281.2312 480.9738,-283.4329"/>
<polygon fill="none" stroke="#000000" points="425.9085,-221.2888 415.6791,-218.5302 421.9555,-227.0658 425.9085,-221.2888"/>
</g>
<!-- c6056758&#45;&gt;c6056703 -->
<g id="edge6" class="edge">
<title>c6056758&#45;&gt;c6056703</title>
<path fill="none" stroke="#000000" stroke-dasharray="5,2" d="M418.9236,-223.9879C431.8067,-232.1203 447.6284,-240.9479 463,-246.5 474.2632,-250.5682 486.8085,-253.4636 498.6968,-255.521"/>
<polygon fill="none" stroke="#000000" points="420.8065,-221.0374 410.5156,-218.5176 416.989,-226.9049 420.8065,-221.0374"/>
</g>
<!-- c6056758&#45;&gt;c6056714 -->
<g id="edge7" class="edge">
<title>c6056758&#45;&gt;c6056714</title>
<path fill="none" stroke="#000000" stroke-dasharray="5,2" d="M455.3119,-217.0945C457.9076,-217.5745 460.478,-218.0447 463,-218.5 473.1845,-220.3385 484.0799,-222.2184 494.5359,-223.9795"/>
<polygon fill="none" stroke="#000000" points="455.6976,-213.606 445.2243,-215.2056 454.4092,-220.4864 455.6976,-213.606"/>
</g>
<!-- c6056758&#45;&gt;c6056720 -->
<g id="edge8" class="edge">
<title>c6056758&#45;&gt;c6056720</title>
<path fill="none" stroke="#000000" stroke-dasharray="5,2" d="M455.1349,-204.5C469.79,-204.5 485.1198,-204.5 498.9643,-204.5"/>
<polygon fill="none" stroke="#000000" points="455.1235,-201.0001 445.1234,-204.5 455.1234,-208.0001 455.1235,-201.0001"/>
</g>
<!-- c6056758&#45;&gt;c6056722 -->
<g id="edge9" class="edge">
<title>c6056758&#45;&gt;c6056722</title>
<path fill="none" stroke="#000000" stroke-dasharray="5,2" d="M455.3119,-191.9055C457.9076,-191.4255 460.478,-190.9553 463,-190.5 475.0759,-188.32 488.1513,-186.082 500.3086,-184.0527"/>
<polygon fill="none" stroke="#000000" points="454.4092,-188.5136 445.2243,-193.7944 455.6976,-195.394 454.4092,-188.5136"/>
</g>
<!-- c6056758&#45;&gt;c6056728 -->
<g id="edge10" class="edge">
<title>c6056758&#45;&gt;c6056728</title>
<path fill="none" stroke="#000000" stroke-dasharray="5,2" d="M418.9236,-185.0121C431.8067,-176.8797 447.6284,-168.0521 463,-162.5 474.8195,-158.2309 488.0506,-155.2533 500.453,-153.1802"/>
<polygon fill="none" stroke="#000000" points="416.989,-182.0951 410.5156,-190.4824 420.8065,-187.9626 416.989,-182.0951"/>
</g>
<!-- c6056758&#45;&gt;c6056730 -->
<g id="edge11" class="edge">
<title>c6056758&#45;&gt;c6056730</title>
<path fill="none" stroke="#000000" stroke-dasharray="5,2" d="M407.4447,-182.5056C420.6402,-166.5375 440.6107,-145.8233 463,-134.5 472.4991,-129.6959 483.2995,-126.4867 493.9178,-124.3552"/>
<polygon fill="none" stroke="#000000" points="404.6876,-180.3493 401.185,-190.3485 410.1587,-184.7161 404.6876,-180.3493"/>
</g>
<!-- c6056758&#45;&gt;c6056747 -->
<g id="edge14" class="edge">
<title>c6056758&#45;&gt;c6056747</title>
<path fill="none" stroke="#000000" stroke-dasharray="5,2" d="M401.4234,-181.3831C413.0307,-158.4721 434.0428,-124.2999 463,-106.5 473.8319,-99.8417 486.8658,-96.077 499.3999,-94.0131"/>
<polygon fill="none" stroke="#000000" points="398.2491,-179.9077 397.029,-190.432 404.5459,-182.9656 398.2491,-179.9077"/>
</g>
<!-- c6056758&#45;&gt;c6056749 -->
<g id="edge15" class="edge">
<title>c6056758&#45;&gt;c6056749</title>
<path fill="none" stroke="#000000" stroke-dasharray="5,2" d="M397.7013,-180.6494C407.1884,-151.571 427.4638,-103.2524 463,-78.5 468.3379,-74.7819 474.3224,-71.9284 480.5734,-69.752"/>
<polygon fill="none" stroke="#000000" points="394.2928,-179.8252 394.6859,-190.4128 400.9811,-181.8909 394.2928,-179.8252"/>
</g>
<!-- c6056758&#45;&gt;c6056754 -->
<g id="edge16" class="edge">
<title>c6056758&#45;&gt;c6056754</title>
<path fill="none" stroke="#000000" stroke-dasharray="5,2" d="M395.1335,-180.0828C402.369,-145.4034 420.7876,-82.5437 463,-50.5 473.4806,-42.5441 486.8265,-38.428 499.7788,-36.4433"/>
<polygon fill="none" stroke="#000000" points="391.6244,-179.7946 393.1613,-190.2773 398.497,-181.1242 391.6244,-179.7946"/>
</g>
<!-- c6056759 -->
<g id="node19" class="node">
<title>c6056759</title>
<g id="a_node19"><a xlink:href="GeneralizedLogisticAlternateLMMEstimator.html" xlink:title="&lt;TABLE&gt;">
<g id="a_node19_18"><a xlink:href="GeneralizedLogisticAlternateLMMEstimator.html" xlink:title="de.lmu.ifi.dbs.elki.math.statistics.distribution.estimator.GeneralizedLogisticAlternateLMMEstimator" target="_parent">
<polygon fill="none" stroke="#000000" points="463,.5 463,-16.5 631,-16.5 631,.5 463,.5"/>
<text text-anchor="start" x="467" y="-7.1" font-family="Roboto" font-size="8.00" fill="#000000"> </text>
<text text-anchor="start" x="470" y="-7.1" font-family="Roboto" font-size="8.00" fill="#000000">GeneralizedLogisticAlternateLMMEstimator</text>
<text text-anchor="start" x="624" y="-7.1" font-family="Roboto" font-size="8.00" fill="#000000"> </text>
</a>
</g>
</a>
</g>
</g>
<!-- c6056758&#45;&gt;c6056759 -->
<g id="edge18" class="edge">
<title>c6056758&#45;&gt;c6056759</title>
<path fill="none" stroke="#000000" stroke-dasharray="5,2" d="M393.1421,-180.328C398.0283,-140.6936 413.7162,-62.3227 463,-22.5 465.5299,-20.4558 468.2453,-18.6595 471.0958,-17.0837"/>
<polygon fill="none" stroke="#000000" points="389.647,-180.0925 392.0314,-190.4155 396.6049,-180.8586 389.647,-180.0925"/>
</g>
</g>
</svg>
