<?xml version="1.0" encoding="UTF-8" standalone="no"?>
<!DOCTYPE svg PUBLIC "-//W3C//DTD SVG 1.1//EN"
 "http://www.w3.org/Graphics/SVG/1.1/DTD/svg11.dtd">
<!-- Generated by graphviz version 2.40.1 (20161225.0304)
 -->
<!-- Title: G Pages: 1 -->
<svg width="472pt" height="36pt"
 viewBox="0.00 0.00 472.00 36.00" xmlns="http://www.w3.org/2000/svg" xmlns:xlink="http://www.w3.org/1999/xlink">
<g id="graph0" class="graph" transform="scale(1 1) rotate(0) translate(4 32)">
<title>G</title>
<polygon fill="#ffffff" stroke="transparent" points="-4,4 -4,-32 468,-32 468,4 -4,4"/>
<!-- c6574629 -->
<g id="node1" class="node">
<title>c6574629</title>
<g id="a_node1"><a xlink:href="LogMeanVarianceEstimator.html" xlink:title="&lt;TABLE&gt;">
<g id="a_node1_0"><a xlink:href="LogMeanVarianceEstimator.html" xlink:title="de.lmu.ifi.dbs.elki.math.statistics.distribution.estimator.LogMeanVarianceEstimator" target="_parent">
<polygon fill="none" stroke="#000000" points="0,0 0,-28 112,-28 112,0 0,0"/>
<text text-anchor="start" x="34.5" y="-17.6" font-family="Roboto" font-size="8.00" fill="#000000"> «interface» </text>
<text text-anchor="start" x="4" y="-7.6" font-family="Roboto" font-size="8.00" fill="#000000"> </text>
<text text-anchor="start" x="7" y="-7.6" font-family="Roboto" font-size="8.00" fill="#000000">LogMeanVarianceEstimator</text>
<text text-anchor="start" x="105" y="-7.6" font-family="Roboto" font-size="8.00" fill="#000000"> </text>
</a>
</g>
</a>
</g>
</g>
<!-- c6574703 -->
<g id="node2" class="node">
<title>c6574703</title>
<g id="a_node2"><a xlink:href="LogNormalLogMOMEstimator.html" xlink:title="&lt;TABLE&gt;">
<g id="a_node2_1"><a xlink:href="LogNormalLogMOMEstimator.html" xlink:title="de.lmu.ifi.dbs.elki.math.statistics.distribution.estimator.LogNormalLogMOMEstimator" target="_parent">
<polygon fill="#fffacd" stroke="transparent" points="131,-5.5 131,-22.5 251,-22.5 251,-5.5 131,-5.5"/>
<polygon fill="none" stroke="#000000" points="131,-5 131,-22 251,-22 251,-5 131,-5"/>
<text text-anchor="start" x="135" y="-12.6" font-family="Roboto" font-size="8.00" fill="#000000"> </text>
<text text-anchor="start" x="138" y="-12.6" font-family="Roboto" font-size="8.00" fill="#000000">LogNormalLogMOMEstimator</text>
<text text-anchor="start" x="244" y="-12.6" font-family="Roboto" font-size="8.00" fill="#000000"> </text>
</a>
</g>
</a>
</g>
</g>
<!-- c6574629&#45;&gt;c6574703 -->
<g id="edge1" class="edge">
<title>c6574629&#45;&gt;c6574703</title>
<path fill="none" stroke="#000000" stroke-dasharray="5,2" d="M122.0887,-14C125.0465,-14 128.0079,-14 130.9501,-14"/>
<polygon fill="none" stroke="#000000" points="122.0794,-10.5001 112.0793,-14 122.0793,-17.5001 122.0794,-10.5001"/>
</g>
<!-- c6574742 -->
<g id="node3" class="node">
<title>c6574742</title>
<g id="a_node3"><a xlink:href="../LogNormalDistribution.html" xlink:title="&lt;TABLE&gt;">
<g id="a_node3_2"><a xlink:href="../LogNormalDistribution.html" xlink:title="de.lmu.ifi.dbs.elki.math.statistics.distribution.LogNormalDistribution" target="_parent">
<polygon fill="none" stroke="#000000" points="302,0 302,-28 464,-28 464,0 302,0"/>
<text text-anchor="start" x="339.5" y="-18.6" font-family="Roboto" font-size="8.00" fill="#000000"> </text>
<text text-anchor="start" x="342.5" y="-18.6" font-family="Roboto" font-size="8.00" fill="#000000">LogNormalDistribution</text>
<text text-anchor="start" x="423.5" y="-18.6" font-family="Roboto" font-size="8.00" fill="#000000"> </text>
<text text-anchor="start" x="306" y="-7.6" font-family="Roboto" font-size="8.00" fill="#000000"> </text>
<text text-anchor="start" x="309" y="-7.6" font-family="Roboto" font-size="7.00" fill="#000000">de.lmu.ifi.dbs.elki.math.statistics.distribution</text>
<text text-anchor="start" x="457" y="-7.6" font-family="Roboto" font-size="8.00" fill="#000000"> </text>
</a>
</g>
</a>
</g>
</g>
<!-- c6574703&#45;&gt;c6574742 -->
<g id="edge2" class="edge">
<title>c6574703&#45;&gt;c6574742</title>
<path fill="none" stroke="#000000" d="M251.2232,-14C264.1436,-14 278.0729,-14 291.8678,-14"/>
<polygon fill="#000000" stroke="#000000" points="301.8726,-14 291.8726,-18.5001 296.8726,-14 291.8726,-14.0001 291.8726,-14.0001 291.8726,-14.0001 296.8726,-14 291.8725,-9.5001 301.8726,-14 301.8726,-14"/>
<text text-anchor="middle" x="276.5" y="-16.4" font-family="Roboto" font-size="7.00" fill="#000000">estimates</text>
</g>
</g>
</svg>
