<?xml version="1.0" encoding="UTF-8" standalone="no"?>
<!DOCTYPE svg PUBLIC "-//W3C//DTD SVG 1.1//EN"
 "http://www.w3.org/Graphics/SVG/1.1/DTD/svg11.dtd">
<!-- Generated by graphviz version 2.40.1 (20161225.0304)
 -->
<!-- Title: G Pages: 1 -->
<svg width="465pt" height="36pt"
 viewBox="0.00 0.00 465.00 36.00" xmlns="http://www.w3.org/2000/svg" xmlns:xlink="http://www.w3.org/1999/xlink">
<g id="graph0" class="graph" transform="scale(1 1) rotate(0) translate(4 32)">
<title>G</title>
<polygon fill="#ffffff" stroke="transparent" points="-4,4 -4,-32 461,-32 461,4 -4,4"/>
<!-- c10811004 -->
<g id="node1" class="node">
<title>c10811004</title>
<g id="a_node1"><a xlink:href="LogMADDistributionEstimator.html" xlink:title="&lt;TABLE&gt;">
<g id="a_node1_0"><a xlink:href="LogMADDistributionEstimator.html" xlink:title="de.lmu.ifi.dbs.elki.math.statistics.distribution.estimator.LogMADDistributionEstimator" target="_parent">
<polygon fill="none" stroke="#000000" points="0,0 0,-28 120,-28 120,0 0,0"/>
<text text-anchor="start" x="38.5" y="-17.6" font-family="Roboto" font-size="8.00" fill="#000000"> «interface» </text>
<text text-anchor="start" x="4" y="-7.6" font-family="Roboto" font-size="8.00" fill="#000000"> </text>
<text text-anchor="start" x="7" y="-7.6" font-family="Roboto" font-size="8.00" fill="#000000">LogMADDistributionEstimator</text>
<text text-anchor="start" x="113" y="-7.6" font-family="Roboto" font-size="8.00" fill="#000000"> </text>
</a>
</g>
</a>
</g>
</g>
<!-- c10811011 -->
<g id="node2" class="node">
<title>c10811011</title>
<g id="a_node2"><a xlink:href="WeibullLogMADEstimator.html" xlink:title="&lt;TABLE&gt;">
<g id="a_node2_1"><a xlink:href="WeibullLogMADEstimator.html" xlink:title="de.lmu.ifi.dbs.elki.math.statistics.distribution.estimator.WeibullLogMADEstimator" target="_parent">
<polygon fill="#fffacd" stroke="transparent" points="139,-5.5 139,-22.5 244,-22.5 244,-5.5 139,-5.5"/>
<polygon fill="none" stroke="#000000" points="139.5,-5 139.5,-22 244.5,-22 244.5,-5 139.5,-5"/>
<text text-anchor="start" x="143.5" y="-12.6" font-family="Roboto" font-size="8.00" fill="#000000"> </text>
<text text-anchor="start" x="146.5" y="-12.6" font-family="Roboto" font-size="8.00" fill="#000000">WeibullLogMADEstimator</text>
<text text-anchor="start" x="237.5" y="-12.6" font-family="Roboto" font-size="8.00" fill="#000000"> </text>
</a>
</g>
</a>
</g>
</g>
<!-- c10811004&#45;&gt;c10811011 -->
<g id="edge1" class="edge">
<title>c10811004&#45;&gt;c10811011</title>
<path fill="none" stroke="#000000" stroke-dasharray="5,2" d="M130.5741,-14C133.3905,-14 136.1949,-14 138.9667,-14"/>
<polygon fill="none" stroke="#000000" points="130.3619,-10.5001 120.3618,-14 130.3618,-17.5001 130.3619,-10.5001"/>
</g>
<!-- c10811146 -->
<g id="node3" class="node">
<title>c10811146</title>
<g id="a_node3"><a xlink:href="../WeibullDistribution.html" xlink:title="&lt;TABLE&gt;">
<g id="a_node3_2"><a xlink:href="../WeibullDistribution.html" xlink:title="de.lmu.ifi.dbs.elki.math.statistics.distribution.WeibullDistribution" target="_parent">
<polygon fill="none" stroke="#000000" points="295,0 295,-28 457,-28 457,0 295,0"/>
<text text-anchor="start" x="339" y="-18.6" font-family="Roboto" font-size="8.00" fill="#000000"> </text>
<text text-anchor="start" x="342" y="-18.6" font-family="Roboto" font-size="8.00" fill="#000000">WeibullDistribution</text>
<text text-anchor="start" x="410" y="-18.6" font-family="Roboto" font-size="8.00" fill="#000000"> </text>
<text text-anchor="start" x="299" y="-7.6" font-family="Roboto" font-size="8.00" fill="#000000"> </text>
<text text-anchor="start" x="302" y="-7.6" font-family="Roboto" font-size="7.00" fill="#000000">de.lmu.ifi.dbs.elki.math.statistics.distribution</text>
<text text-anchor="start" x="450" y="-7.6" font-family="Roboto" font-size="8.00" fill="#000000"> </text>
</a>
</g>
</a>
</g>
</g>
<!-- c10811011&#45;&gt;c10811146 -->
<g id="edge2" class="edge">
<title>c10811011&#45;&gt;c10811146</title>
<path fill="none" stroke="#000000" d="M244.3703,-14C257.0518,-14 270.9555,-14 284.8268,-14"/>
<polygon fill="#000000" stroke="#000000" points="294.9036,-14 284.9037,-18.5001 289.9036,-14 284.9036,-14.0001 284.9036,-14.0001 284.9036,-14.0001 289.9036,-14 284.9036,-9.5001 294.9036,-14 294.9036,-14"/>
<text text-anchor="middle" x="269.5" y="-16.4" font-family="Roboto" font-size="7.00" fill="#000000">estimates</text>
</g>
</g>
</svg>
