<?xml version="1.0" encoding="UTF-8" standalone="no"?>
<!DOCTYPE svg PUBLIC "-//W3C//DTD SVG 1.1//EN"
 "http://www.w3.org/Graphics/SVG/1.1/DTD/svg11.dtd">
<!-- Generated by graphviz version 2.40.1 (20161225.0304)
 -->
<!-- Title: G Pages: 1 -->
<svg width="158pt" height="131pt"
 viewBox="0.00 0.00 158.00 131.00" xmlns="http://www.w3.org/2000/svg" xmlns:xlink="http://www.w3.org/1999/xlink">
<g id="graph0" class="graph" transform="scale(1 1) rotate(0) translate(4 127)">
<title>G</title>
<polygon fill="#ffffff" stroke="transparent" points="-4,4 -4,-127 154,-127 154,4 -4,4"/>
<!-- c1516011 -->
<g id="node1" class="node">
<title>c1516011</title>
<g id="a_node1"><a xlink:href="../algorithm/Algorithm.html" xlink:title="&lt;TABLE&gt;">
<g id="a_node1_0"><a xlink:href="../algorithm/Algorithm.html" xlink:title="de.lmu.ifi.dbs.elki.algorithm.Algorithm" target="_parent">
<polygon fill="#fffacd" stroke="transparent" points="22.5,0 22.5,-84 127.5,-84 127.5,0 22.5,0"/>
<polygon fill="none" stroke="#000000" points="23,-45 23,-84 128,-84 128,-45 23,-45"/>
<text text-anchor="start" x="54" y="-73.6" font-family="Roboto" font-size="8.00" fill="#000000"> «interface» </text>
<text text-anchor="start" x="55" y="-63.6" font-family="Roboto" font-size="8.00" fill="#000000"> </text>
<text text-anchor="start" x="58" y="-63.6" font-family="Roboto" font-size="8.00" fill="#000000">Algorithm</text>
<text text-anchor="start" x="93" y="-63.6" font-family="Roboto" font-size="8.00" fill="#000000"> </text>
<text text-anchor="start" x="27" y="-52.6" font-family="Roboto" font-size="8.00" fill="#000000"> </text>
<text text-anchor="start" x="30" y="-52.6" font-family="Roboto" font-size="7.00" fill="#000000">de.lmu.ifi.dbs.elki.algorithm</text>
<text text-anchor="start" x="121" y="-52.6" font-family="Roboto" font-size="8.00" fill="#000000"> </text>
<polygon fill="none" stroke="#000000" points="23,-28 23,-45 128,-45 128,-28 23,-28"/>
<text text-anchor="start" x="27" y="-34.6" font-family="Roboto" font-size="8.00" fill="#000000"> &#160;</text>
<polygon fill="none" stroke="#000000" points="23,0 23,-28 128,-28 128,0 23,0"/>
<text text-anchor="start" x="27" y="-18.6" font-family="Roboto" font-size="8.00" fill="#000000"> </text>
<text text-anchor="start" x="30" y="-18.6" font-family="Roboto" font-style="italic" font-size="8.00" fill="#000000"> run()</text>
<text text-anchor="start" x="51" y="-18.6" font-family="Roboto" font-size="8.00" fill="#000000"> </text>
<text text-anchor="start" x="27" y="-7.6" font-family="Roboto" font-size="8.00" fill="#000000"> </text>
<text text-anchor="start" x="30" y="-7.6" font-family="Roboto" font-style="italic" font-size="8.00" fill="#000000"> getInputTypeRestriction()</text>
<text text-anchor="start" x="121" y="-7.6" font-family="Roboto" font-size="8.00" fill="#000000"> </text>
</a>
</g>
</a>
</g>
</g>
<!-- c1516819 -->
<g id="node2" class="node">
<title>c1516819</title>
<g id="a_node2"><a xlink:href="../utilities/optionhandling/AbstractParameterizer.html" xlink:title="&lt;TABLE&gt;">
<g id="a_node2_1"><a xlink:href="../utilities/optionhandling/AbstractParameterizer.html" xlink:title="de.lmu.ifi.dbs.elki.utilities.optionhandling.AbstractParameterizer" target="_parent">
<polygon fill="none" stroke="#000000" points="0,-95 0,-123 150,-123 150,-95 0,-95"/>
<text text-anchor="start" x="32.5" y="-113.6" font-family="Roboto" font-size="8.00" fill="#000000"> </text>
<text text-anchor="start" x="35.5" y="-113.6" font-family="Roboto" font-style="italic" font-size="8.00" fill="#000000">AbstractParameterizer</text>
<text text-anchor="start" x="114.5" y="-113.6" font-family="Roboto" font-size="8.00" fill="#000000"> </text>
<text text-anchor="start" x="4" y="-102.6" font-family="Roboto" font-size="8.00" fill="#000000"> </text>
<text text-anchor="start" x="7" y="-102.6" font-family="Roboto" font-size="7.00" fill="#000000">de.lmu.ifi.dbs.elki.utilities.optionhandling</text>
<text text-anchor="start" x="143" y="-102.6" font-family="Roboto" font-size="8.00" fill="#000000"> </text>
</a>
</g>
</a>
</g>
</g>
</g>
</svg>
