<?xml version="1.0" encoding="UTF-8" standalone="no"?>
<!DOCTYPE svg PUBLIC "-//W3C//DTD SVG 1.1//EN"
 "http://www.w3.org/Graphics/SVG/1.1/DTD/svg11.dtd">
<!-- Generated by graphviz version 2.40.1 (20161225.0304)
 -->
<!-- Title: G Pages: 1 -->
<svg width="331pt" height="120pt"
 viewBox="0.00 0.00 331.00 119.50" xmlns="http://www.w3.org/2000/svg" xmlns:xlink="http://www.w3.org/1999/xlink">
<g id="graph0" class="graph" transform="scale(1 1) rotate(0) translate(4 115.5)">
<title>G</title>
<polygon fill="#ffffff" stroke="transparent" points="-4,4 -4,-115.5 327,-115.5 327,4 -4,4"/>
<!-- c7842290 -->
<g id="node1" class="node">
<title>c7842290</title>
<g id="a_node1"><a xlink:href="OutputStep.html" xlink:title="&lt;TABLE&gt;">
<g id="a_node1_0"><a xlink:href="OutputStep.html" xlink:title="de.lmu.ifi.dbs.elki.workflow.OutputStep" target="_parent">
<polygon fill="#fffacd" stroke="transparent" points="158,-83.5 158,-100.5 212,-100.5 212,-83.5 158,-83.5"/>
<polygon fill="none" stroke="#000000" points="158,-83 158,-100 212,-100 212,-83 158,-83"/>
<text text-anchor="start" x="162" y="-90.6" font-family="Roboto" font-size="8.00" fill="#000000"> </text>
<text text-anchor="start" x="165" y="-90.6" font-family="Roboto" font-size="8.00" fill="#000000">OutputStep</text>
<text text-anchor="start" x="205" y="-90.6" font-family="Roboto" font-size="8.00" fill="#000000"> </text>
</a>
</g>
</a>
</g>
</g>
<!-- c7843321 -->
<g id="node4" class="node">
<title>c7843321</title>
<g id="a_node4"><a xlink:href="../result/ResultHandler.html" xlink:title="&lt;TABLE&gt;">
<g id="a_node4_1"><a xlink:href="../result/ResultHandler.html" xlink:title="de.lmu.ifi.dbs.elki.result.ResultHandler" target="_parent">
<polygon fill="#fffacd" stroke="transparent" points="230,-72.5 230,-111.5 323,-111.5 323,-72.5 230,-72.5"/>
<polygon fill="none" stroke="#000000" points="230.5,-72 230.5,-111 323.5,-111 323.5,-72 230.5,-72"/>
<text text-anchor="start" x="255.5" y="-100.6" font-family="Roboto" font-size="8.00" fill="#000000"> «interface» </text>
<text text-anchor="start" x="248.5" y="-90.6" font-family="Roboto" font-size="8.00" fill="#000000"> </text>
<text text-anchor="start" x="251.5" y="-90.6" font-family="Roboto" font-size="8.00" fill="#000000">ResultHandler</text>
<text text-anchor="start" x="302.5" y="-90.6" font-family="Roboto" font-size="8.00" fill="#000000"> </text>
<text text-anchor="start" x="234.5" y="-79.6" font-family="Roboto" font-size="8.00" fill="#000000"> </text>
<text text-anchor="start" x="237.5" y="-79.6" font-family="Roboto" font-size="7.00" fill="#000000">de.lmu.ifi.dbs.elki.result</text>
<text text-anchor="start" x="316.5" y="-79.6" font-family="Roboto" font-size="8.00" fill="#000000"> </text>
</a>
</g>
</a>
</g>
</g>
<!-- c7842290&#45;&gt;c7843321 -->
<g id="edge2" class="edge">
<title>c7842290&#45;&gt;c7843321</title>
<path fill="none" stroke="#000000" d="M224.4841,-92C226.226,-92 227.9802,-92 229.7364,-92"/>
<polygon fill="none" stroke="#000000" points="224.453,-92.0001 218.453,-96 212.453,-92 218.4531,-88 224.453,-92.0001"/>
</g>
<!-- c7843389 -->
<g id="node5" class="node">
<title>c7843389</title>
<g id="a_node5"><a xlink:href="../result/ResultHierarchy.html" xlink:title="&lt;TABLE&gt;">
<g id="a_node5_2"><a xlink:href="../result/ResultHierarchy.html" xlink:title="de.lmu.ifi.dbs.elki.result.ResultHierarchy" target="_parent">
<polygon fill="none" stroke="#000000" points="230.5,-33 230.5,-61 323.5,-61 323.5,-33 230.5,-33"/>
<text text-anchor="start" x="245.5" y="-51.6" font-family="Roboto" font-size="8.00" fill="#000000"> </text>
<text text-anchor="start" x="248.5" y="-51.6" font-family="Roboto" font-size="8.00" fill="#000000">ResultHierarchy</text>
<text text-anchor="start" x="305.5" y="-51.6" font-family="Roboto" font-size="8.00" fill="#000000"> </text>
<text text-anchor="start" x="234.5" y="-40.6" font-family="Roboto" font-size="8.00" fill="#000000"> </text>
<text text-anchor="start" x="237.5" y="-40.6" font-family="Roboto" font-size="7.00" fill="#000000">de.lmu.ifi.dbs.elki.result</text>
<text text-anchor="start" x="316.5" y="-40.6" font-family="Roboto" font-size="8.00" fill="#000000"> </text>
</a>
</g>
</a>
</g>
</g>
<!-- c7842290&#45;&gt;c7843389 -->
<g id="edge3" class="edge">
<title>c7842290&#45;&gt;c7843389</title>
<path fill="none" stroke="#000000" d="M199.7994,-83.2831C208.4825,-78.2942 219.7325,-72.0442 230,-67 234.1015,-64.985 238.4554,-62.9634 242.7898,-61.0211"/>
</g>
<!-- c7842295 -->
<g id="node2" class="node">
<title>c7842295</title>
<g id="a_node2"><a xlink:href="WorkflowStep.html" xlink:title="&lt;TABLE&gt;">
<g id="a_node2_3"><a xlink:href="WorkflowStep.html" xlink:title="de.lmu.ifi.dbs.elki.workflow.WorkflowStep" target="_parent">
<polygon fill="none" stroke="#000000" points="39,-78 39,-106 101,-106 101,-78 39,-78"/>
<text text-anchor="start" x="48.5" y="-95.6" font-family="Roboto" font-size="8.00" fill="#000000"> «interface» </text>
<text text-anchor="start" x="43" y="-85.6" font-family="Roboto" font-size="8.00" fill="#000000"> </text>
<text text-anchor="start" x="46" y="-85.6" font-family="Roboto" font-size="8.00" fill="#000000">WorkflowStep</text>
<text text-anchor="start" x="94" y="-85.6" font-family="Roboto" font-size="8.00" fill="#000000"> </text>
</a>
</g>
</a>
</g>
</g>
<!-- c7842295&#45;&gt;c7842290 -->
<g id="edge1" class="edge">
<title>c7842295&#45;&gt;c7842290</title>
<path fill="none" stroke="#000000" stroke-dasharray="5,2" d="M111.4617,-92C126.8718,-92 143.9524,-92 157.7705,-92"/>
<polygon fill="none" stroke="#000000" points="111.1207,-88.5001 101.1207,-92 111.1206,-95.5001 111.1207,-88.5001"/>
</g>
<!-- c7842365 -->
<g id="node3" class="node">
<title>c7842365</title>
<g id="a_node3"><a xlink:href="../KDDTask.html" xlink:title="&lt;TABLE&gt;">
<g id="a_node3_4"><a xlink:href="../KDDTask.html" xlink:title="de.lmu.ifi.dbs.elki.KDDTask" target="_parent">
<polygon fill="none" stroke="#000000" points="34,0 34,-28 106,-28 106,0 34,0"/>
<text text-anchor="start" x="49.5" y="-18.6" font-family="Roboto" font-size="8.00" fill="#000000"> </text>
<text text-anchor="start" x="52.5" y="-18.6" font-family="Roboto" font-size="8.00" fill="#000000">KDDTask</text>
<text text-anchor="start" x="87.5" y="-18.6" font-family="Roboto" font-size="8.00" fill="#000000"> </text>
<text text-anchor="start" x="38" y="-7.6" font-family="Roboto" font-size="8.00" fill="#000000"> </text>
<text text-anchor="start" x="41" y="-7.6" font-family="Roboto" font-size="7.00" fill="#000000">de.lmu.ifi.dbs.elki</text>
<text text-anchor="start" x="99" y="-7.6" font-family="Roboto" font-size="8.00" fill="#000000"> </text>
</a>
</g>
</a>
</g>
</g>
<!-- c7842365&#45;&gt;c7842290 -->
<g id="edge4" class="edge">
<title>c7842365&#45;&gt;c7842290</title>
<path fill="none" stroke="#000000" d="M117.8695,-22.4716C125.6545,-25.0923 133.339,-28.5195 140,-33 159.4544,-46.0858 173.9915,-70.3857 180.7702,-83.3407"/>
<polygon fill="#000000" stroke="#000000" points="117.6282,-22.4022 110.7556,-24.5857 106.0968,-19.0816 112.9694,-16.8981 117.6282,-22.4022"/>
</g>
<!-- c7842365&#45;&gt;c7843389 -->
<g id="edge5" class="edge">
<title>c7842365&#45;&gt;c7843389</title>
<path fill="none" stroke="#000000" d="M106.4427,-19.8238C137.8757,-24.847 183.7855,-32.1836 219.9831,-37.9682"/>
<polygon fill="#000000" stroke="#000000" points="229.915,-39.5554 219.3301,-42.4209 224.9776,-38.7664 220.0403,-37.9773 220.0403,-37.9773 220.0403,-37.9773 224.9776,-38.7664 220.7504,-33.5337 229.915,-39.5554 229.915,-39.5554"/>
</g>
<!-- c7844542 -->
<g id="node6" class="node">
<title>c7844542</title>
<g id="a_node6"><a xlink:href="../gui/multistep/panels/OutputTabPanel.html" xlink:title="&lt;TABLE&gt;">
<g id="a_node6_5"><a xlink:href="../gui/multistep/panels/OutputTabPanel.html" xlink:title="de.lmu.ifi.dbs.elki.gui.multistep.panels.OutputTabPanel" target="_parent">
<polygon fill="none" stroke="#000000" points="0,-39 0,-67 140,-67 140,-39 0,-39"/>
<text text-anchor="start" x="38" y="-57.6" font-family="Roboto" font-size="8.00" fill="#000000"> </text>
<text text-anchor="start" x="41" y="-57.6" font-family="Roboto" font-size="8.00" fill="#000000">OutputTabPanel</text>
<text text-anchor="start" x="99" y="-57.6" font-family="Roboto" font-size="8.00" fill="#000000"> </text>
<text text-anchor="start" x="4" y="-46.6" font-family="Roboto" font-size="8.00" fill="#000000"> </text>
<text text-anchor="start" x="7" y="-46.6" font-family="Roboto" font-size="7.00" fill="#000000">de.lmu.ifi.dbs.elki.gui.multistep.panels</text>
<text text-anchor="start" x="133" y="-46.6" font-family="Roboto" font-size="8.00" fill="#000000"> </text>
</a>
</g>
</a>
</g>
</g>
<!-- c7844542&#45;&gt;c7842290 -->
<g id="edge6" class="edge">
<title>c7844542&#45;&gt;c7842290</title>
<path fill="none" stroke="#000000" d="M121.8314,-67.0437C127.9897,-68.9376 134.1591,-70.941 140,-73 145.3986,-74.9031 151.0788,-77.1235 156.5168,-79.3616"/>
<polygon fill="#000000" stroke="#000000" points="165.9305,-83.3446 154.9674,-83.5922 161.3257,-81.3963 156.7209,-79.4479 156.7209,-79.4479 156.7209,-79.4479 161.3257,-81.3963 158.4744,-75.3036 165.9305,-83.3446 165.9305,-83.3446"/>
</g>
</g>
</svg>
