<?xml version="1.0" encoding="UTF-8" standalone="no"?><svg xmlns="http://www.w3.org/2000/svg" xmlns:xlink="http://www.w3.org/1999/xlink" contentStyleType="text/css" height="464px" preserveAspectRatio="none" style="width:939px;height:464px;background:#FFFFFF;" version="1.1" viewBox="0 0 939 464" width="939px" zoomAndPan="magnify"><defs/><g><!--MD5=[f6ce61e1c7a455f1061af3ad7c626187]
class elki.outlier.lof.FlexibleLOF.LOFResult--><a href="FlexibleLOF.LOFResult.html" target="_top" title="FlexibleLOF.LOFResult.html" xlink:actuate="onRequest" xlink:href="FlexibleLOF.LOFResult.html" xlink:show="new" xlink:title="FlexibleLOF.LOFResult.html" xlink:type="simple"><g id="elem_elki.outlier.lof.FlexibleLOF.LOFResult"><rect codeLine="6" fill="#F1F1F1" height="330.9844" id="elki.outlier.lof.FlexibleLOF.LOFResult" rx="2.5" ry="2.5" style="stroke:#181818;stroke-width:0.5;" width="921" x="7" y="108"/><ellipse cx="381.75" cy="126.9688" fill="#ADD1B2" rx="11" ry="11" style="stroke:#181818;stroke-width:1.0;"/><path d="M384.7188,132.6094 Q384.1406,132.9063 383.5,133.0469 Q382.8594,133.2031 382.1563,133.2031 Q379.6563,133.2031 378.3281,131.5625 Q377.0156,129.9063 377.0156,126.7813 Q377.0156,123.6563 378.3281,122 Q379.6563,120.3438 382.1563,120.3438 Q382.8594,120.3438 383.5,120.5 Q384.1563,120.6563 384.7188,120.9531 L384.7188,123.6719 Q384.0938,123.0938 383.5,122.8281 Q382.9063,122.5469 382.2813,122.5469 Q380.9375,122.5469 380.25,123.625 Q379.5625,124.6875 379.5625,126.7813 Q379.5625,128.875 380.25,129.9531 Q380.9375,131.0156 382.2813,131.0156 Q382.9063,131.0156 383.5,130.75 Q384.0938,130.4688 384.7188,129.8906 L384.7188,132.6094 Z " fill="#000000"/><text fill="#000000" font-family="sans-serif" font-size="14" lengthAdjust="spacing" textLength="151" x="402.25" y="125.9951">FlexibleLOF.LOFResult</text><text fill="#000000" font-family="sans-serif" font-size="10" lengthAdjust="spacing" textLength="63" x="446.25" y="138.5791">elki.outlier.lof</text><rect fill="#FFFFFF" height="15.9688" style="stroke:#181818;stroke-width:1.0;stroke-dasharray:2.0,2.0;" width="10" x="921" y="105"/><text fill="#000000" font-family="sans-serif" font-size="12" font-style="italic" lengthAdjust="spacing" textLength="8" x="922" y="117.1387">O</text><line style="stroke:#181818;stroke-width:0.5;" x1="8" x2="927" y1="145.9375" y2="145.9375"/><rect fill="none" height="6" style="stroke:#C82930;stroke-width:1.0;" width="6" x="15" y="156.5859"/><text fill="#000000" font-family="sans-serif" font-size="14" lengthAdjust="spacing" textLength="137" x="27" y="162.9326">result: OutlierResult</text><rect fill="none" height="6" style="stroke:#C82930;stroke-width:1.0;" width="6" x="15" y="172.8828"/><text fill="#000000" font-family="sans-serif" font-size="14" lengthAdjust="spacing" textLength="247" x="27" y="179.2295">kNNRefer: KNNSearcher&lt;DBIDRef&gt;</text><rect fill="none" height="6" style="stroke:#C82930;stroke-width:1.0;" width="6" x="15" y="189.1797"/><text fill="#000000" font-family="sans-serif" font-size="14" lengthAdjust="spacing" textLength="254" x="27" y="195.5264">kNNReach: KNNSearcher&lt;DBIDRef&gt;</text><rect fill="none" height="6" style="stroke:#C82930;stroke-width:1.0;" width="6" x="15" y="205.4766"/><text fill="#000000" font-family="sans-serif" font-size="14" lengthAdjust="spacing" textLength="262" x="27" y="211.8232">rkNNRefer: RKNNSearcher&lt;DBIDRef&gt;</text><rect fill="none" height="6" style="stroke:#C82930;stroke-width:1.0;" width="6" x="15" y="221.7734"/><text fill="#000000" font-family="sans-serif" font-size="14" lengthAdjust="spacing" textLength="269" x="27" y="228.1201">rkNNReach: RKNNSearcher&lt;DBIDRef&gt;</text><rect fill="none" height="6" style="stroke:#C82930;stroke-width:1.0;" width="6" x="15" y="238.0703"/><text fill="#000000" font-family="sans-serif" font-size="14" lengthAdjust="spacing" textLength="208" x="27" y="244.417">lrds: WritableDoubleDataStore</text><rect fill="none" height="6" style="stroke:#C82930;stroke-width:1.0;" width="6" x="15" y="254.3672"/><text fill="#000000" font-family="sans-serif" font-size="14" lengthAdjust="spacing" textLength="207" x="27" y="260.7139">lofs: WritableDoubleDataStore</text><line style="stroke:#181818;stroke-width:0.5;" x1="8" x2="927" y1="268.0156" y2="268.0156"/><ellipse cx="18" cy="281.6641" fill="#84BE84" rx="3" ry="3" style="stroke:#038048;stroke-width:1.0;"/><text fill="#000000" font-family="sans-serif" font-size="14" lengthAdjust="spacing" textLength="895" x="27" y="285.0107">LOFResult(OutlierResult, KNNSearcher&lt;DBIDRef&gt;, KNNSearcher&lt;DBIDRef&gt;, WritableDoubleDataStore, WritableDoubleDataStore)</text><ellipse cx="18" cy="297.9609" fill="#84BE84" rx="3" ry="3" style="stroke:#038048;stroke-width:1.0;"/><text fill="#000000" font-family="sans-serif" font-size="14" lengthAdjust="spacing" textLength="281" x="27" y="301.3076">getKNNRefer(): KNNSearcher&lt;DBIDRef&gt;</text><ellipse cx="18" cy="314.2578" fill="#84BE84" rx="3" ry="3" style="stroke:#038048;stroke-width:1.0;"/><text fill="#000000" font-family="sans-serif" font-size="14" lengthAdjust="spacing" textLength="288" x="27" y="317.6045">getKNNReach(): KNNSearcher&lt;DBIDRef&gt;</text><ellipse cx="18" cy="330.5547" fill="#84BE84" rx="3" ry="3" style="stroke:#038048;stroke-width:1.0;"/><text fill="#000000" font-family="sans-serif" font-size="14" lengthAdjust="spacing" textLength="245" x="27" y="333.9014">getLrds(): WritableDoubleDataStore</text><ellipse cx="18" cy="346.8516" fill="#84BE84" rx="3" ry="3" style="stroke:#038048;stroke-width:1.0;"/><text fill="#000000" font-family="sans-serif" font-size="14" lengthAdjust="spacing" textLength="244" x="27" y="350.1982">getLofs(): WritableDoubleDataStore</text><ellipse cx="18" cy="363.1484" fill="#84BE84" rx="3" ry="3" style="stroke:#038048;stroke-width:1.0;"/><text fill="#000000" font-family="sans-serif" font-size="14" lengthAdjust="spacing" textLength="175" x="27" y="366.4951">getResult(): OutlierResult</text><ellipse cx="18" cy="379.4453" fill="#84BE84" rx="3" ry="3" style="stroke:#038048;stroke-width:1.0;"/><text fill="#000000" font-family="sans-serif" font-size="14" lengthAdjust="spacing" textLength="327" x="27" y="382.792">setRkNNRefer(RKNNSearcher&lt;DBIDRef&gt;): void</text><ellipse cx="18" cy="395.7422" fill="#84BE84" rx="3" ry="3" style="stroke:#038048;stroke-width:1.0;"/><text fill="#000000" font-family="sans-serif" font-size="14" lengthAdjust="spacing" textLength="300" x="27" y="399.0889">getRkNNRefer(): RKNNSearcher&lt;DBIDRef&gt;</text><ellipse cx="18" cy="412.0391" fill="#84BE84" rx="3" ry="3" style="stroke:#038048;stroke-width:1.0;"/><text fill="#000000" font-family="sans-serif" font-size="14" lengthAdjust="spacing" textLength="307" x="27" y="415.3857">getRkNNReach(): RKNNSearcher&lt;DBIDRef&gt;</text><ellipse cx="18" cy="428.3359" fill="#84BE84" rx="3" ry="3" style="stroke:#038048;stroke-width:1.0;"/><text fill="#000000" font-family="sans-serif" font-size="14" lengthAdjust="spacing" textLength="334" x="27" y="431.6826">setRkNNReach(RKNNSearcher&lt;DBIDRef&gt;): void</text></g></a><!--MD5=[3f347712f0f6e2dea6ab332dc051da0b]
class elki.outlier.lof.FlexibleLOF--><a href="FlexibleLOF.html" target="_top" title="FlexibleLOF.html" xlink:actuate="onRequest" xlink:href="FlexibleLOF.html" xlink:show="new" xlink:title="FlexibleLOF.html" xlink:type="simple"><g id="elem_elki.outlier.lof.FlexibleLOF"><rect codeLine="26" fill="#F1F1F1" height="37.9375" id="elki.outlier.lof.FlexibleLOF" rx="2.5" ry="2.5" style="stroke:#181818;stroke-width:0.5;" width="121" x="407" y="10"/><ellipse cx="422" cy="28.9688" fill="#ADD1B2" rx="11" ry="11" style="stroke:#181818;stroke-width:1.0;"/><path d="M424.9688,34.6094 Q424.3906,34.9063 423.75,35.0469 Q423.1094,35.2031 422.4063,35.2031 Q419.9063,35.2031 418.5781,33.5625 Q417.2656,31.9063 417.2656,28.7813 Q417.2656,25.6563 418.5781,24 Q419.9063,22.3438 422.4063,22.3438 Q423.1094,22.3438 423.75,22.5 Q424.4063,22.6563 424.9688,22.9531 L424.9688,25.6719 Q424.3438,25.0938 423.75,24.8281 Q423.1563,24.5469 422.5313,24.5469 Q421.1875,24.5469 420.5,25.625 Q419.8125,26.6875 419.8125,28.7813 Q419.8125,30.875 420.5,31.9531 Q421.1875,33.0156 422.5313,33.0156 Q423.1563,33.0156 423.75,32.75 Q424.3438,32.4688 424.9688,31.8906 L424.9688,34.6094 Z " fill="#000000"/><text fill="#000000" font-family="sans-serif" font-size="14" lengthAdjust="spacing" textLength="77" x="436" y="27.9951">FlexibleLOF</text><text fill="#000000" font-family="sans-serif" font-size="10" lengthAdjust="spacing" textLength="63" x="443" y="40.5791">elki.outlier.lof</text><rect fill="#FFFFFF" height="15.9688" style="stroke:#181818;stroke-width:1.0;stroke-dasharray:2.0,2.0;" width="10" x="521" y="7"/><text fill="#000000" font-family="sans-serif" font-size="12" font-style="italic" lengthAdjust="spacing" textLength="8" x="522" y="19.1387">O</text></g></a><!--MD5=[8892e57e6444a1bf8b09c0de4c46f3a9]
reverse link elki.outlier.lof.FlexibleLOF to elki.outlier.lof.FlexibleLOF.LOFResult--><g id="link_elki.outlier.lof.FlexibleLOF_elki.outlier.lof.FlexibleLOF.LOFResult"><path codeLine="28" d="M467.5,63.55 C467.5,76.12 467.5,91.39 467.5,107.89 " fill="none" id="elki.outlier.lof.FlexibleLOF-backto-elki.outlier.lof.FlexibleLOF.LOFResult" style="stroke:#181818;stroke-width:1.0;"/><ellipse cx="467.5" cy="56.23" fill="#FFFFFF" rx="8" ry="8" style="stroke:#181818;stroke-width:1.0;"/><line style="stroke:#181818;stroke-width:1.0;" x1="467.5" x2="467.5" y1="64.23" y2="48.23"/><line style="stroke:#181818;stroke-width:1.0;" x1="459.5" x2="475.5" y1="56.23" y2="56.23"/></g><rect fill="none" height="11.6406" style="stroke:none;stroke-width:1.0;" width="186" x="369.5" y="444.9844"/><text fill="#888888" font-family="sans-serif" font-size="10" lengthAdjust="spacing" textLength="186" x="369.5" y="454.2666">UMLDoclet 2.0.19, PlantUML 1.2022.8</text><!--MD5=[927d7a9b3c3e719c129d9ed79cfbc655]
@startuml
    remove .*\.(Instance|Par|Parameterizer|Factory)$
    set namespaceSeparator none
    hide empty fields
    hide empty methods

    class "<size:14>FlexibleLOF.LOFResult\n<size:10>elki.outlier.lof" as elki.outlier.lof.FlexibleLOF.LOFResult<O> [[FlexibleLOF.LOFResult.html]] {
        -result: OutlierResult
        -kNNRefer: KNNSearcher<DBIDRef>
        -kNNReach: KNNSearcher<DBIDRef>
        -rkNNRefer: RKNNSearcher<DBIDRef>
        -rkNNReach: RKNNSearcher<DBIDRef>
        -lrds: WritableDoubleDataStore
        -lofs: WritableDoubleDataStore
        +LOFResult(OutlierResult, KNNSearcher<DBIDRef>, KNNSearcher<DBIDRef>, WritableDoubleDataStore, WritableDoubleDataStore)
        +getKNNRefer(): KNNSearcher<DBIDRef>
        +getKNNReach(): KNNSearcher<DBIDRef>
        +getLrds(): WritableDoubleDataStore
        +getLofs(): WritableDoubleDataStore
        +getResult(): OutlierResult
        +setRkNNRefer(RKNNSearcher<DBIDRef>): void
        +getRkNNRefer(): RKNNSearcher<DBIDRef>
        +getRkNNReach(): RKNNSearcher<DBIDRef>
        +setRkNNReach(RKNNSearcher<DBIDRef>): void
    }

    class "<size:14>FlexibleLOF\n<size:10>elki.outlier.lof" as elki.outlier.lof.FlexibleLOF<O> [[FlexibleLOF.html]]

    elki.outlier.lof.FlexibleLOF +- - elki.outlier.lof.FlexibleLOF.LOFResult

    center footer UMLDoclet 2.0.19, PlantUML 1.2022.8
@enduml

PlantUML version 1.2022.8(Sun Sep 25 11:00:33 CEST 2022)
(APACHE source distribution)
Java Runtime: OpenJDK Runtime Environment
JVM: OpenJDK 64-Bit Server VM
Default Encoding: UTF-8
Language: de
Country: DE
--></g></svg>