<?xml version="1.0" encoding="UTF-8" standalone="no"?>
<!DOCTYPE svg PUBLIC "-//W3C//DTD SVG 1.1//EN"
 "http://www.w3.org/Graphics/SVG/1.1/DTD/svg11.dtd">
<!-- Generated by graphviz version 2.40.1 (20161225.0304)
 -->
<!-- Title: G Pages: 1 -->
<svg width="342pt" height="47pt"
 viewBox="0.00 0.00 342.00 47.00" xmlns="http://www.w3.org/2000/svg" xmlns:xlink="http://www.w3.org/1999/xlink">
<g id="graph0" class="graph" transform="scale(1 1) rotate(0) translate(4 43)">
<title>G</title>
<polygon fill="#ffffff" stroke="transparent" points="-4,4 -4,-43 338,-43 338,4 -4,4"/>
<!-- c7408540 -->
<g id="node1" class="node">
<title>c7408540</title>
<g id="a_node1"><a xlink:href="../PrimitiveDistanceFunction.html" xlink:title="&lt;TABLE&gt;">
<g id="a_node1_0"><a xlink:href="../PrimitiveDistanceFunction.html" xlink:title="de.lmu.ifi.dbs.elki.distance.distancefunction.PrimitiveDistanceFunction" target="_parent">
<polygon fill="#fffacd" stroke="transparent" points="0,0 0,-39 158,-39 158,0 0,0"/>
<polygon fill="none" stroke="#000000" points="0,.5 0,-38.5 158,-38.5 158,.5 0,.5"/>
<text text-anchor="start" x="57.5" y="-28.1" font-family="Roboto" font-size="8.00" fill="#000000"> «interface» </text>
<text text-anchor="start" x="30" y="-18.1" font-family="Roboto" font-size="8.00" fill="#000000"> </text>
<text text-anchor="start" x="33" y="-18.1" font-family="Roboto" font-size="8.00" fill="#000000">PrimitiveDistanceFunction</text>
<text text-anchor="start" x="125" y="-18.1" font-family="Roboto" font-size="8.00" fill="#000000"> </text>
<text text-anchor="start" x="4" y="-7.1" font-family="Roboto" font-size="8.00" fill="#000000"> </text>
<text text-anchor="start" x="7" y="-7.1" font-family="Roboto" font-size="7.00" fill="#000000">de.lmu.ifi.dbs.elki.distance.distancefunction</text>
<text text-anchor="start" x="151" y="-7.1" font-family="Roboto" font-size="8.00" fill="#000000"> </text>
</a>
</g>
</a>
</g>
</g>
<!-- c7408962 -->
<g id="node2" class="node">
<title>c7408962</title>
<g id="a_node2"><a xlink:href="NormalizedLevenshteinDistanceFunction.html" xlink:title="&lt;TABLE&gt;">
<g id="a_node2_1"><a xlink:href="NormalizedLevenshteinDistanceFunction.html" xlink:title="de.lmu.ifi.dbs.elki.distance.distancefunction.strings.NormalizedLevenshteinDistanceFunction" target="_parent">
<polygon fill="#fffacd" stroke="transparent" points="176,-11 176,-28 334,-28 334,-11 176,-11"/>
<polygon fill="none" stroke="#000000" points="176,-10.5 176,-27.5 334,-27.5 334,-10.5 176,-10.5"/>
<text text-anchor="start" x="180" y="-18.1" font-family="Roboto" font-size="8.00" fill="#000000"> </text>
<text text-anchor="start" x="183" y="-18.1" font-family="Roboto" font-size="8.00" fill="#000000">NormalizedLevenshteinDistanceFunction</text>
<text text-anchor="start" x="327" y="-18.1" font-family="Roboto" font-size="8.00" fill="#000000"> </text>
</a>
</g>
</a>
</g>
</g>
<!-- c7408540&#45;&gt;c7408962 -->
<g id="edge1" class="edge">
<title>c7408540&#45;&gt;c7408962</title>
<path fill="none" stroke="#000000" stroke-dasharray="5,2" d="M168.4068,-19.5C170.881,-19.5 173.3536,-19.5 175.8169,-19.5"/>
<polygon fill="none" stroke="#000000" points="168.2473,-16.0001 158.2473,-19.5 168.2472,-23.0001 168.2473,-16.0001"/>
</g>
</g>
</svg>
