<?xml version="1.0" encoding="UTF-8" standalone="no"?><svg xmlns="http://www.w3.org/2000/svg" xmlns:xlink="http://www.w3.org/1999/xlink" contentStyleType="text/css" height="233px" preserveAspectRatio="none" style="width:1043px;height:233px;background:#FFFFFF;" version="1.1" viewBox="0 0 1043 233" width="1043px" zoomAndPan="magnify"><defs/><g><!--MD5=[5dc9c3d19125d1f45257dbb90d45c074]
class elki.clustering.subspace.DiSH.DiSHClusterOrder--><a href="DiSH.DiSHClusterOrder.html" target="_top" title="DiSH.DiSHClusterOrder.html" xlink:actuate="onRequest" xlink:href="DiSH.DiSHClusterOrder.html" xlink:show="new" xlink:title="DiSH.DiSHClusterOrder.html" xlink:type="simple"><g id="elem_elki.clustering.subspace.DiSH.DiSHClusterOrder"><rect codeLine="6" fill="#F1F1F1" height="102.8281" id="elki.clustering.subspace.DiSH.DiSHClusterOrder" rx="2.5" ry="2.5" style="stroke:#181818;stroke-width:0.5;" width="1029" x="7" y="105"/><ellipse cx="438.25" cy="123.9688" fill="#ADD1B2" rx="11" ry="11" style="stroke:#181818;stroke-width:1.0;"/><path d="M441.2188,129.6094 Q440.6406,129.9063 440,130.0469 Q439.3594,130.2031 438.6563,130.2031 Q436.1563,130.2031 434.8281,128.5625 Q433.5156,126.9063 433.5156,123.7813 Q433.5156,120.6563 434.8281,119 Q436.1563,117.3438 438.6563,117.3438 Q439.3594,117.3438 440,117.5 Q440.6563,117.6563 441.2188,117.9531 L441.2188,120.6719 Q440.5938,120.0938 440,119.8281 Q439.4063,119.5469 438.7813,119.5469 Q437.4375,119.5469 436.75,120.625 Q436.0625,121.6875 436.0625,123.7813 Q436.0625,125.875 436.75,126.9531 Q437.4375,128.0156 438.7813,128.0156 Q439.4063,128.0156 440,127.75 Q440.5938,127.4688 441.2188,126.8906 L441.2188,129.6094 Z " fill="#000000"/><text fill="#000000" font-family="sans-serif" font-size="14" lengthAdjust="spacing" textLength="158" x="458.75" y="122.9951">DiSH.DiSHClusterOrder</text><text fill="#000000" font-family="sans-serif" font-size="10" lengthAdjust="spacing" textLength="112" x="481.75" y="135.5791">elki.clustering.subspace</text><line style="stroke:#181818;stroke-width:0.5;" x1="8" x2="1035" y1="142.9375" y2="142.9375"/><rect fill="none" height="6" style="stroke:#C82930;stroke-width:1.0;" width="6" x="15" y="153.5859"/><text fill="#000000" font-family="sans-serif" font-size="14" lengthAdjust="spacing" textLength="387" x="27" y="159.9326">commonPreferenceVectors: WritableDataStore&lt;long[]&gt;</text><line style="stroke:#181818;stroke-width:0.5;" x1="8" x2="1035" y1="167.2344" y2="167.2344"/><ellipse cx="18" cy="180.8828" fill="#84BE84" rx="3" ry="3" style="stroke:#038048;stroke-width:1.0;"/><text fill="#000000" font-family="sans-serif" font-size="14" lengthAdjust="spacing" textLength="1003" x="27" y="184.2295">DiSHClusterOrder(ArrayModifiableDBIDs, WritableDoubleDataStore, WritableDBIDDataStore, WritableIntegerDataStore, WritableDataStore&lt;long[]&gt;)</text><ellipse cx="18" cy="197.1797" fill="#84BE84" rx="3" ry="3" style="stroke:#038048;stroke-width:1.0;"/><text fill="#000000" font-family="sans-serif" font-size="14" lengthAdjust="spacing" textLength="324" x="27" y="200.5264">getCommonPreferenceVector(DBIDRef): long[]</text></g></a><!--MD5=[656738dc916969870167297045146576]
class elki.clustering.optics.CorrelationClusterOrder--><a href="../optics/CorrelationClusterOrder.html" target="_top" title="../optics/CorrelationClusterOrder.html" xlink:actuate="onRequest" xlink:href="../optics/CorrelationClusterOrder.html" xlink:show="new" xlink:title="../optics/CorrelationClusterOrder.html" xlink:type="simple"><g id="elem_elki.clustering.optics.CorrelationClusterOrder"><rect codeLine="12" fill="#F1F1F1" height="37.9375" id="elki.clustering.optics.CorrelationClusterOrder" rx="2.5" ry="2.5" style="stroke:#181818;stroke-width:0.5;" width="195" x="322" y="7"/><ellipse cx="337" cy="25.9688" fill="#ADD1B2" rx="11" ry="11" style="stroke:#181818;stroke-width:1.0;"/><path d="M339.9688,31.6094 Q339.3906,31.9063 338.75,32.0469 Q338.1094,32.2031 337.4063,32.2031 Q334.9063,32.2031 333.5781,30.5625 Q332.2656,28.9063 332.2656,25.7813 Q332.2656,22.6563 333.5781,21 Q334.9063,19.3438 337.4063,19.3438 Q338.1094,19.3438 338.75,19.5 Q339.4063,19.6563 339.9688,19.9531 L339.9688,22.6719 Q339.3438,22.0938 338.75,21.8281 Q338.1563,21.5469 337.5313,21.5469 Q336.1875,21.5469 335.5,22.625 Q334.8125,23.6875 334.8125,25.7813 Q334.8125,27.875 335.5,28.9531 Q336.1875,30.0156 337.5313,30.0156 Q338.1563,30.0156 338.75,29.75 Q339.3438,29.4688 339.9688,28.8906 L339.9688,31.6094 Z " fill="#000000"/><text fill="#000000" font-family="sans-serif" font-size="14" lengthAdjust="spacing" textLength="163" x="351" y="24.9951">CorrelationClusterOrder</text><text fill="#000000" font-family="sans-serif" font-size="10" lengthAdjust="spacing" textLength="95" x="385" y="37.5791">elki.clustering.optics</text></g></a><!--MD5=[d8a46e2d2904317245c471960227aed2]
class elki.clustering.subspace.DiSH--><a href="DiSH.html" target="_top" title="DiSH.html" xlink:actuate="onRequest" xlink:href="DiSH.html" xlink:show="new" xlink:title="DiSH.html" xlink:type="simple"><g id="elem_elki.clustering.subspace.DiSH"><rect codeLine="13" fill="#F1F1F1" height="37.9375" id="elki.clustering.subspace.DiSH" rx="2.5" ry="2.5" style="stroke:#181818;stroke-width:0.5;" width="144" x="552.5" y="7"/><ellipse cx="567.5" cy="25.9688" fill="#ADD1B2" rx="11" ry="11" style="stroke:#181818;stroke-width:1.0;"/><path d="M570.4688,31.6094 Q569.8906,31.9063 569.25,32.0469 Q568.6094,32.2031 567.9063,32.2031 Q565.4063,32.2031 564.0781,30.5625 Q562.7656,28.9063 562.7656,25.7813 Q562.7656,22.6563 564.0781,21 Q565.4063,19.3438 567.9063,19.3438 Q568.6094,19.3438 569.25,19.5 Q569.9063,19.6563 570.4688,19.9531 L570.4688,22.6719 Q569.8438,22.0938 569.25,21.8281 Q568.6563,21.5469 568.0313,21.5469 Q566.6875,21.5469 566,22.625 Q565.3125,23.6875 565.3125,25.7813 Q565.3125,27.875 566,28.9531 Q566.6875,30.0156 568.0313,30.0156 Q568.6563,30.0156 569.25,29.75 Q569.8438,29.4688 570.4688,28.8906 L570.4688,31.6094 Z " fill="#000000"/><text fill="#000000" font-family="sans-serif" font-size="14" lengthAdjust="spacing" textLength="33" x="621" y="24.9951">DiSH</text><text fill="#000000" font-family="sans-serif" font-size="10" lengthAdjust="spacing" textLength="112" x="581.5" y="37.5791">elki.clustering.subspace</text></g></a><!--MD5=[6555eb3fbd951ea9b6587b5fe1c0c69f]
reverse link elki.clustering.optics.CorrelationClusterOrder to elki.clustering.subspace.DiSH.DiSHClusterOrder--><g id="link_elki.clustering.optics.CorrelationClusterOrder_elki.clustering.subspace.DiSH.DiSHClusterOrder"><path codeLine="15" d="M446.6,61.14 C457.2,74.5 469.59,90.11 481.21,104.74 " fill="none" id="elki.clustering.optics.CorrelationClusterOrder-backto-elki.clustering.subspace.DiSH.DiSHClusterOrder" style="stroke:#181818;stroke-width:1.0;"/><polygon fill="none" points="440.85,65.16,433.9,45.14,451.81,56.45,440.85,65.16" style="stroke:#181818;stroke-width:1.0;"/></g><!--MD5=[dc297407fe66f67f7ca06cfe9532603b]
reverse link elki.clustering.subspace.DiSH to elki.clustering.subspace.DiSH.DiSHClusterOrder--><g id="link_elki.clustering.subspace.DiSH_elki.clustering.subspace.DiSH.DiSHClusterOrder"><path codeLine="16" d="M600.33,57.16 C588.96,71.33 575.1,88.63 562.19,104.74 " fill="none" id="elki.clustering.subspace.DiSH-backto-elki.clustering.subspace.DiSH.DiSHClusterOrder" style="stroke:#181818;stroke-width:1.0;"/><ellipse cx="604.9578" cy="51.3832" fill="#FFFFFF" rx="8" ry="8" style="stroke:#181818;stroke-width:1.0;"/><line style="stroke:#181818;stroke-width:1.0;" x1="599.9556" x2="609.96" y1="57.6265" y2="45.14"/><line style="stroke:#181818;stroke-width:1.0;" x1="598.7146" x2="611.201" y1="46.381" y2="56.3854"/></g><rect fill="none" height="11.6406" style="stroke:none;stroke-width:1.0;" width="186" x="421.5" y="213.8281"/><text fill="#888888" font-family="sans-serif" font-size="10" lengthAdjust="spacing" textLength="186" x="421.5" y="223.1104">UMLDoclet 2.0.19, PlantUML 1.2022.8</text><!--MD5=[5657cf9b8c8081c18acd0f1f79c514ff]
@startuml
    remove .*\.(Instance|Par|Parameterizer|Factory)$
    set namespaceSeparator none
    hide empty fields
    hide empty methods

    class "<size:14>DiSH.DiSHClusterOrder\n<size:10>elki.clustering.subspace" as elki.clustering.subspace.DiSH.DiSHClusterOrder [[DiSH.DiSHClusterOrder.html]] {
        -commonPreferenceVectors: WritableDataStore<long[]>
        +DiSHClusterOrder(ArrayModifiableDBIDs, WritableDoubleDataStore, WritableDBIDDataStore, WritableIntegerDataStore, WritableDataStore<long[]>)
        +getCommonPreferenceVector(DBIDRef): long[]
    }

    class "<size:14>CorrelationClusterOrder\n<size:10>elki.clustering.optics" as elki.clustering.optics.CorrelationClusterOrder [[../optics/CorrelationClusterOrder.html]]
    class "<size:14>DiSH\n<size:10>elki.clustering.subspace" as elki.clustering.subspace.DiSH [[DiSH.html]]

    elki.clustering.optics.CorrelationClusterOrder <|- - elki.clustering.subspace.DiSH.DiSHClusterOrder
    elki.clustering.subspace.DiSH +- - elki.clustering.subspace.DiSH.DiSHClusterOrder

    center footer UMLDoclet 2.0.19, PlantUML 1.2022.8
@enduml

PlantUML version 1.2022.8(Sun Sep 25 11:00:33 CEST 2022)
(APACHE source distribution)
Java Runtime: OpenJDK Runtime Environment
JVM: OpenJDK 64-Bit Server VM
Default Encoding: UTF-8
Language: de
Country: DE
--></g></svg>