<?xml version="1.0" encoding="UTF-8" standalone="no"?><svg xmlns="http://www.w3.org/2000/svg" xmlns:xlink="http://www.w3.org/1999/xlink" contentStyleType="text/css" height="282px" preserveAspectRatio="none" style="width:257px;height:282px;background:#FFFFFF;" version="1.1" viewBox="0 0 257 282" width="257px" zoomAndPan="magnify"><defs/><g><!--MD5=[367d7b27ce9de1e6ffd78abbdc126a2c]
class elki.clustering.subspace.P3C.Signature--><a href="P3C.Signature.html" target="_top" title="P3C.Signature.html" xlink:actuate="onRequest" xlink:href="P3C.Signature.html" xlink:show="new" xlink:title="P3C.Signature.html" xlink:type="simple"><g id="elem_elki.clustering.subspace.P3C.Signature"><rect codeLine="6" fill="#F1F1F1" height="151.7188" id="elki.clustering.subspace.P3C.Signature" rx="2.5" ry="2.5" style="stroke:#181818;stroke-width:0.5;" width="241" x="9" y="105"/><ellipse cx="69.25" cy="123.9688" fill="#ADD1B2" rx="11" ry="11" style="stroke:#181818;stroke-width:1.0;"/><path d="M72.2188,129.6094 Q71.6406,129.9063 71,130.0469 Q70.3594,130.2031 69.6563,130.2031 Q67.1563,130.2031 65.8281,128.5625 Q64.5156,126.9063 64.5156,123.7813 Q64.5156,120.6563 65.8281,119 Q67.1563,117.3438 69.6563,117.3438 Q70.3594,117.3438 71,117.5 Q71.6563,117.6563 72.2188,117.9531 L72.2188,120.6719 Q71.5938,120.0938 71,119.8281 Q70.4063,119.5469 69.7813,119.5469 Q68.4375,119.5469 67.75,120.625 Q67.0625,121.6875 67.0625,123.7813 Q67.0625,125.875 67.75,126.9531 Q68.4375,128.0156 69.7813,128.0156 Q70.4063,128.0156 71,127.75 Q71.5938,127.4688 72.2188,126.8906 L72.2188,129.6094 Z " fill="#000000"/><text fill="#000000" font-family="sans-serif" font-size="14" lengthAdjust="spacing" textLength="98" x="96.75" y="122.9951">P3C.Signature</text><text fill="#000000" font-family="sans-serif" font-size="10" lengthAdjust="spacing" textLength="112" x="89.75" y="135.5791">elki.clustering.subspace</text><line style="stroke:#181818;stroke-width:0.5;" x1="10" x2="249" y1="142.9375" y2="142.9375"/><polygon fill="none" points="20,152.5859,16,158.5859,24,158.5859" style="stroke:#1963A0;stroke-width:1.0;"/><text fill="#000000" font-family="sans-serif" font-size="14" lengthAdjust="spacing" textLength="70" x="29" y="159.9326">spec: int[]</text><polygon fill="none" points="20,168.8828,16,174.8828,24,174.8828" style="stroke:#1963A0;stroke-width:1.0;"/><text fill="#000000" font-family="sans-serif" font-size="14" lengthAdjust="spacing" textLength="72" x="29" y="176.2295">ids: DBIDs</text><polygon fill="none" points="20,185.1797,16,191.1797,24,191.1797" style="stroke:#1963A0;stroke-width:1.0;"/><text fill="#000000" font-family="sans-serif" font-size="14" lengthAdjust="spacing" textLength="106" x="29" y="192.5264">prune: boolean</text><line style="stroke:#181818;stroke-width:0.5;" x1="10" x2="249" y1="199.8281" y2="199.8281"/><rect fill="#F24D5C" height="6" style="stroke:#C82930;stroke-width:1.0;" width="6" x="17" y="210.4766"/><text fill="#000000" font-family="sans-serif" font-size="14" lengthAdjust="spacing" textLength="154" x="29" y="216.8232">Signature(int[], DBIDs)</text><ellipse cx="20" cy="229.7734" fill="#84BE84" rx="3" ry="3" style="stroke:#038048;stroke-width:1.0;"/><text fill="#000000" font-family="sans-serif" font-size="14" lengthAdjust="spacing" textLength="215" x="29" y="233.1201">isSuperset(Signature): boolean</text><ellipse cx="20" cy="246.0703" fill="#84BE84" rx="3" ry="3" style="stroke:#038048;stroke-width:1.0;"/><text fill="#000000" font-family="sans-serif" font-size="14" lengthAdjust="spacing" textLength="115" x="29" y="249.417">getFirstDim(): int</text></g></a><!--MD5=[19c018060261987a85b17eb38c687989]
class elki.clustering.subspace.P3C--><a href="P3C.html" target="_top" title="P3C.html" xlink:actuate="onRequest" xlink:href="P3C.html" xlink:show="new" xlink:title="P3C.html" xlink:type="simple"><g id="elem_elki.clustering.subspace.P3C"><rect codeLine="15" fill="#F1F1F1" height="37.9375" id="elki.clustering.subspace.P3C" rx="2.5" ry="2.5" style="stroke:#181818;stroke-width:0.5;" width="144" x="57.5" y="7"/><ellipse cx="72.5" cy="25.9688" fill="#ADD1B2" rx="11" ry="11" style="stroke:#181818;stroke-width:1.0;"/><path d="M75.4688,31.6094 Q74.8906,31.9063 74.25,32.0469 Q73.6094,32.2031 72.9063,32.2031 Q70.4063,32.2031 69.0781,30.5625 Q67.7656,28.9063 67.7656,25.7813 Q67.7656,22.6563 69.0781,21 Q70.4063,19.3438 72.9063,19.3438 Q73.6094,19.3438 74.25,19.5 Q74.9063,19.6563 75.4688,19.9531 L75.4688,22.6719 Q74.8438,22.0938 74.25,21.8281 Q73.6563,21.5469 73.0313,21.5469 Q71.6875,21.5469 71,22.625 Q70.3125,23.6875 70.3125,25.7813 Q70.3125,27.875 71,28.9531 Q71.6875,30.0156 73.0313,30.0156 Q73.6563,30.0156 74.25,29.75 Q74.8438,29.4688 75.4688,28.8906 L75.4688,31.6094 Z " fill="#000000"/><text fill="#000000" font-family="sans-serif" font-size="14" lengthAdjust="spacing" textLength="28" x="128.5" y="24.9951">P3C</text><text fill="#000000" font-family="sans-serif" font-size="10" lengthAdjust="spacing" textLength="112" x="86.5" y="37.5791">elki.clustering.subspace</text></g></a><!--MD5=[3385cd54089b0a68904960127c623371]
reverse link elki.clustering.subspace.P3C to elki.clustering.subspace.P3C.Signature--><g id="link_elki.clustering.subspace.P3C_elki.clustering.subspace.P3C.Signature"><path codeLine="17" d="M129.5,60.31 C129.5,73.51 129.5,89.26 129.5,104.93 " fill="none" id="elki.clustering.subspace.P3C-backto-elki.clustering.subspace.P3C.Signature" style="stroke:#181818;stroke-width:1.0;"/><ellipse cx="129.5" cy="53.15" fill="#FFFFFF" rx="8" ry="8" style="stroke:#181818;stroke-width:1.0;"/><line style="stroke:#181818;stroke-width:1.0;" x1="129.5" x2="129.5" y1="61.15" y2="45.15"/><line style="stroke:#181818;stroke-width:1.0;" x1="121.5" x2="137.5" y1="53.15" y2="53.15"/></g><rect fill="none" height="11.6406" style="stroke:none;stroke-width:1.0;" width="186" x="28.5" y="262.7188"/><text fill="#888888" font-family="sans-serif" font-size="10" lengthAdjust="spacing" textLength="186" x="28.5" y="272.001">UMLDoclet 2.0.19, PlantUML 1.2022.8</text><!--MD5=[e351a1d85380b3c29772589daf28e2f1]
@startuml
    remove .*\.(Instance|Par|Parameterizer|Factory)$
    set namespaceSeparator none
    hide empty fields
    hide empty methods

    class "<size:14>P3C.Signature\n<size:10>elki.clustering.subspace" as elki.clustering.subspace.P3C.Signature [[P3C.Signature.html]] {
        ~spec: int[]
        ~ids: DBIDs
        ~prune: boolean
        -Signature(int[], DBIDs)
        +isSuperset(Signature): boolean
        +getFirstDim(): int
    }

    class "<size:14>P3C\n<size:10>elki.clustering.subspace" as elki.clustering.subspace.P3C [[P3C.html]]

    elki.clustering.subspace.P3C +- - elki.clustering.subspace.P3C.Signature

    center footer UMLDoclet 2.0.19, PlantUML 1.2022.8
@enduml

PlantUML version 1.2022.8(Sun Sep 25 11:00:33 CEST 2022)
(APACHE source distribution)
Java Runtime: OpenJDK Runtime Environment
JVM: OpenJDK 64-Bit Server VM
Default Encoding: UTF-8
Language: de
Country: DE
--></g></svg>