<?xml version="1.0" encoding="UTF-8" standalone="no"?><svg xmlns="http://www.w3.org/2000/svg" xmlns:xlink="http://www.w3.org/1999/xlink" contentStyleType="text/css" height="212px" preserveAspectRatio="none" style="width:489px;height:212px;background:#FFFFFF;" version="1.1" viewBox="0 0 489 212" width="489px" zoomAndPan="magnify"><defs/><g><!--MD5=[c48981a02a873c5c70aefa920e998831]
class elki.index.tree.metrical.vptree.GNAT.GNATRangeSearcher--><a href="GNAT.GNATRangeSearcher.html" target="_top" title="GNAT.GNATRangeSearcher.html" xlink:actuate="onRequest" xlink:href="GNAT.GNATRangeSearcher.html" xlink:show="new" xlink:title="GNAT.GNATRangeSearcher.html" xlink:type="simple"><g id="elem_elki.index.tree.metrical.vptree.GNAT.GNATRangeSearcher"><rect codeLine="6" fill="#F1F1F1" height="78.5313" id="elki.index.tree.metrical.vptree.GNAT.GNATRangeSearcher" rx="2.5" ry="2.5" style="stroke:#181818;stroke-width:0.5;" width="473" x="9" y="108"/><ellipse cx="143.75" cy="126.9688" fill="#A9DCDF" rx="11" ry="11" style="stroke:#181818;stroke-width:1.0;"/><path d="M143.8594,122.3125 L142.7031,127.3906 L145.0313,127.3906 L143.8594,122.3125 Z M142.375,120.0781 L145.3594,120.0781 L148.7188,132.4688 L146.2656,132.4688 L145.5,129.4063 L142.2188,129.4063 L141.4688,132.4688 L139.0313,132.4688 L142.375,120.0781 Z " fill="#000000"/><text fill="#000000" font-family="sans-serif" font-size="14" font-style="italic" lengthAdjust="spacing" textLength="195" x="164.25" y="125.9951">GNAT.GNATRangeSearcher</text><text fill="#000000" font-family="sans-serif" font-size="10" font-style="italic" lengthAdjust="spacing" textLength="151" x="186.25" y="138.5791">elki.index.tree.metrical.vptree</text><line style="stroke:#181818;stroke-width:0.5;" x1="10" x2="481" y1="145.9375" y2="145.9375"/><polygon fill="#FFFF44" points="20,154.5859,24,158.5859,20,162.5859,16,158.5859" style="stroke:#B38D22;stroke-width:1.0;"/><text fill="#000000" font-family="sans-serif" font-size="14" lengthAdjust="spacing" textLength="447" x="29" y="162.9326">mvpRangeSearch(ModifiableDoubleDBIDList, Node, double): void</text><polygon fill="#FFFF44" points="20,170.8828,24,174.8828,20,178.8828,16,174.8828" style="stroke:#B38D22;stroke-width:1.0;"/><text fill="#000000" font-family="sans-serif" font-size="14" font-style="italic" lengthAdjust="spacing" textLength="230" x="29" y="179.2295">queryDistance(DBIDRef): double</text></g></a><!--MD5=[f5d33401931aa0de036b1d362f0e1cd9]
class elki.index.tree.metrical.vptree.GNAT--><a href="GNAT.html" target="_top" title="GNAT.html" xlink:actuate="onRequest" xlink:href="GNAT.html" xlink:show="new" xlink:title="GNAT.html" xlink:type="simple"><g id="elem_elki.index.tree.metrical.vptree.GNAT"><rect codeLine="11" fill="#F1F1F1" height="37.9375" id="elki.index.tree.metrical.vptree.GNAT" rx="2.5" ry="2.5" style="stroke:#181818;stroke-width:0.5;" width="188" x="151.5" y="10"/><ellipse cx="166.5" cy="28.9688" fill="#ADD1B2" rx="11" ry="11" style="stroke:#181818;stroke-width:1.0;"/><path d="M169.4688,34.6094 Q168.8906,34.9063 168.25,35.0469 Q167.6094,35.2031 166.9063,35.2031 Q164.4063,35.2031 163.0781,33.5625 Q161.7656,31.9063 161.7656,28.7813 Q161.7656,25.6563 163.0781,24 Q164.4063,22.3438 166.9063,22.3438 Q167.6094,22.3438 168.25,22.5 Q168.9063,22.6563 169.4688,22.9531 L169.4688,25.6719 Q168.8438,25.0938 168.25,24.8281 Q167.6563,24.5469 167.0313,24.5469 Q165.6875,24.5469 165,25.625 Q164.3125,26.6875 164.3125,28.7813 Q164.3125,30.875 165,31.9531 Q165.6875,33.0156 167.0313,33.0156 Q167.6563,33.0156 168.25,32.75 Q168.8438,32.4688 169.4688,31.8906 L169.4688,34.6094 Z " fill="#000000"/><text fill="#000000" font-family="sans-serif" font-size="14" lengthAdjust="spacing" textLength="39" x="233" y="27.9951">GNAT</text><text fill="#000000" font-family="sans-serif" font-size="10" lengthAdjust="spacing" textLength="144" x="180.5" y="40.5791">elki.index.tree.metrical.vptree</text><rect fill="#FFFFFF" height="15.9688" style="stroke:#181818;stroke-width:1.0;stroke-dasharray:2.0,2.0;" width="10" x="332.5" y="7"/><text fill="#000000" font-family="sans-serif" font-size="12" font-style="italic" lengthAdjust="spacing" textLength="8" x="333.5" y="19.1387">O</text></g></a><!--MD5=[9830ed2ae20bd2d765c8b978be44ae10]
reverse link elki.index.tree.metrical.vptree.GNAT to elki.index.tree.metrical.vptree.GNAT.GNATRangeSearcher--><g id="link_elki.index.tree.metrical.vptree.GNAT_elki.index.tree.metrical.vptree.GNAT.GNATRangeSearcher"><path codeLine="13" d="M245.5,63.62 C245.5,77.4 245.5,93.44 245.5,107.71 " fill="none" id="elki.index.tree.metrical.vptree.GNAT-backto-elki.index.tree.metrical.vptree.GNAT.GNATRangeSearcher" style="stroke:#181818;stroke-width:1.0;"/><ellipse cx="245.5" cy="56.2" fill="#FFFFFF" rx="8" ry="8" style="stroke:#181818;stroke-width:1.0;"/><line style="stroke:#181818;stroke-width:1.0;" x1="245.5" x2="245.5" y1="64.2" y2="48.2"/><line style="stroke:#181818;stroke-width:1.0;" x1="237.5" x2="253.5" y1="56.2" y2="56.2"/></g><rect fill="none" height="11.6406" style="stroke:none;stroke-width:1.0;" width="186" x="144.5" y="192.5313"/><text fill="#888888" font-family="sans-serif" font-size="10" lengthAdjust="spacing" textLength="186" x="144.5" y="201.8135">UMLDoclet 2.0.19, PlantUML 1.2022.8</text><!--MD5=[06160fd9d7281917532275818197486c]
@startuml
    remove .*\.(Instance|Par|Parameterizer|Factory)$
    set namespaceSeparator none
    hide empty fields
    hide empty methods

    abstract class "<size:14>GNAT.GNATRangeSearcher\n<size:10>elki.index.tree.metrical.vptree" as elki.index.tree.metrical.vptree.GNAT.GNATRangeSearcher [[GNAT.GNATRangeSearcher.html]] {
        #mvpRangeSearch(ModifiableDoubleDBIDList, Node, double): void
        {abstract} #queryDistance(DBIDRef): double
    }

    class "<size:14>GNAT\n<size:10>elki.index.tree.metrical.vptree" as elki.index.tree.metrical.vptree.GNAT<O> [[GNAT.html]]

    elki.index.tree.metrical.vptree.GNAT +- - elki.index.tree.metrical.vptree.GNAT.GNATRangeSearcher

    center footer UMLDoclet 2.0.19, PlantUML 1.2022.8
@enduml

PlantUML version 1.2022.8(Sun Sep 25 11:00:33 CEST 2022)
(APACHE source distribution)
Java Runtime: OpenJDK Runtime Environment
JVM: OpenJDK 64-Bit Server VM
Default Encoding: UTF-8
Language: de
Country: DE
--></g></svg>