<?xml version="1.0" encoding="UTF-8" standalone="no"?><svg xmlns="http://www.w3.org/2000/svg" xmlns:xlink="http://www.w3.org/1999/xlink" contentStyleType="text/css" height="260px" preserveAspectRatio="none" style="width:525px;height:260px;background:#FFFFFF;" version="1.1" viewBox="0 0 525 260" width="525px" zoomAndPan="magnify"><defs/><g><!--MD5=[8eebdcebbd8d88aff9ac802e790a5e9f]
class elki.index.tree.metrical.vptree.GNAT.GNATPriorityDBIDSearcher--><a href="GNAT.GNATPriorityDBIDSearcher.html" target="_top" title="GNAT.GNATPriorityDBIDSearcher.html" xlink:actuate="onRequest" xlink:href="GNAT.GNATPriorityDBIDSearcher.html" xlink:show="new" xlink:title="GNAT.GNATPriorityDBIDSearcher.html" xlink:type="simple"><g id="elem_elki.index.tree.metrical.vptree.GNAT.GNATPriorityDBIDSearcher"><rect codeLine="6" fill="#F1F1F1" height="102.8281" id="elki.index.tree.metrical.vptree.GNAT.GNATPriorityDBIDSearcher" rx="2.5" ry="2.5" style="stroke:#181818;stroke-width:0.5;" width="340" x="115" y="132"/><ellipse cx="168.25" cy="150.9688" fill="#ADD1B2" rx="11" ry="11" style="stroke:#181818;stroke-width:1.0;"/><path d="M171.2188,156.6094 Q170.6406,156.9063 170,157.0469 Q169.3594,157.2031 168.6563,157.2031 Q166.1563,157.2031 164.8281,155.5625 Q163.5156,153.9063 163.5156,150.7813 Q163.5156,147.6563 164.8281,146 Q166.1563,144.3438 168.6563,144.3438 Q169.3594,144.3438 170,144.5 Q170.6563,144.6563 171.2188,144.9531 L171.2188,147.6719 Q170.5938,147.0938 170,146.8281 Q169.4063,146.5469 168.7813,146.5469 Q167.4375,146.5469 166.75,147.625 Q166.0625,148.6875 166.0625,150.7813 Q166.0625,152.875 166.75,153.9531 Q167.4375,155.0156 168.7813,155.0156 Q169.4063,155.0156 170,154.75 Q170.5938,154.4688 171.2188,153.8906 L171.2188,156.6094 Z " fill="#000000"/><text fill="#000000" font-family="sans-serif" font-size="14" lengthAdjust="spacing" textLength="225" x="188.75" y="149.9951">GNAT.GNATPriorityDBIDSearcher</text><text fill="#000000" font-family="sans-serif" font-size="10" lengthAdjust="spacing" textLength="144" x="229.25" y="162.5791">elki.index.tree.metrical.vptree</text><line style="stroke:#181818;stroke-width:0.5;" x1="116" x2="454" y1="169.9375" y2="169.9375"/><rect fill="none" height="6" style="stroke:#C82930;stroke-width:1.0;" width="6" x="123" y="180.5859"/><text fill="#000000" font-family="sans-serif" font-size="14" lengthAdjust="spacing" textLength="106" x="135" y="186.9326">query: DBIDRef</text><line style="stroke:#181818;stroke-width:0.5;" x1="116" x2="454" y1="194.2344" y2="194.2344"/><ellipse cx="126" cy="207.8828" fill="#84BE84" rx="3" ry="3" style="stroke:#038048;stroke-width:1.0;"/><text fill="#000000" font-family="sans-serif" font-size="14" lengthAdjust="spacing" textLength="314" x="135" y="211.2295">search(DBIDRef): PrioritySearcher&lt;DBIDRef&gt;</text><polygon fill="#FFFF44" points="126,219.1797,130,223.1797,126,227.1797,122,223.1797" style="stroke:#B38D22;stroke-width:1.0;"/><text fill="#000000" font-family="sans-serif" font-size="14" lengthAdjust="spacing" textLength="225" x="135" y="227.5264">queryDistance(DBIDRef): double</text></g></a><!--MD5=[392e4270777f467e7ce3e8b28f207287]
class elki.index.tree.metrical.vptree.GNAT.GNATPrioritySearcher--><a href="GNAT.GNATPrioritySearcher.html" target="_top" title="GNAT.GNATPrioritySearcher.html" xlink:actuate="onRequest" xlink:href="GNAT.GNATPrioritySearcher.html" xlink:show="new" xlink:title="GNAT.GNATPrioritySearcher.html" xlink:type="simple"><g id="elem_elki.index.tree.metrical.vptree.GNAT.GNATPrioritySearcher"><rect codeLine="12" fill="#F1F1F1" height="62.2344" id="elki.index.tree.metrical.vptree.GNAT.GNATPrioritySearcher" rx="2.5" ry="2.5" style="stroke:#181818;stroke-width:0.5;" width="282" x="9" y="10"/><ellipse cx="24" cy="28.9688" fill="#A9DCDF" rx="11" ry="11" style="stroke:#181818;stroke-width:1.0;"/><path d="M24.1094,24.3125 L22.9531,29.3906 L25.2813,29.3906 L24.1094,24.3125 Z M22.625,22.0781 L25.6094,22.0781 L28.9688,34.4688 L26.5156,34.4688 L25.75,31.4063 L22.4688,31.4063 L21.7188,34.4688 L19.2813,34.4688 L22.625,22.0781 Z " fill="#000000"/><text fill="#000000" font-family="sans-serif" font-size="14" font-style="italic" lengthAdjust="spacing" textLength="197" x="38" y="27.9951">GNAT.GNATPrioritySearcher</text><text fill="#000000" font-family="sans-serif" font-size="10" font-style="italic" lengthAdjust="spacing" textLength="151" x="61" y="40.5791">elki.index.tree.metrical.vptree</text><rect fill="#FFFFFF" height="15.9688" style="stroke:#181818;stroke-width:1.0;stroke-dasharray:2.0,2.0;" width="51" x="243" y="7"/><text fill="#000000" font-family="sans-serif" font-size="12" font-style="italic" lengthAdjust="spacing" textLength="49" x="244" y="19.1387">DBIDRef</text><line style="stroke:#181818;stroke-width:0.5;" x1="10" x2="290" y1="47.9375" y2="47.9375"/><polygon fill="#FFFF44" points="20,56.5859,24,60.5859,20,64.5859,16,60.5859" style="stroke:#B38D22;stroke-width:1.0;"/><text fill="#000000" font-family="sans-serif" font-size="14" font-style="italic" lengthAdjust="spacing" textLength="230" x="29" y="64.9326">queryDistance(DBIDRef): double</text></g></a><!--MD5=[f5d33401931aa0de036b1d362f0e1cd9]
class elki.index.tree.metrical.vptree.GNAT--><a href="GNAT.html" target="_top" title="GNAT.html" xlink:actuate="onRequest" xlink:href="GNAT.html" xlink:show="new" xlink:title="GNAT.html" xlink:type="simple"><g id="elem_elki.index.tree.metrical.vptree.GNAT"><rect codeLine="15" fill="#F1F1F1" height="37.9375" id="elki.index.tree.metrical.vptree.GNAT" rx="2.5" ry="2.5" style="stroke:#181818;stroke-width:0.5;" width="188" x="326" y="22"/><ellipse cx="341" cy="40.9688" fill="#ADD1B2" rx="11" ry="11" style="stroke:#181818;stroke-width:1.0;"/><path d="M343.9688,46.6094 Q343.3906,46.9063 342.75,47.0469 Q342.1094,47.2031 341.4063,47.2031 Q338.9063,47.2031 337.5781,45.5625 Q336.2656,43.9063 336.2656,40.7813 Q336.2656,37.6563 337.5781,36 Q338.9063,34.3438 341.4063,34.3438 Q342.1094,34.3438 342.75,34.5 Q343.4063,34.6563 343.9688,34.9531 L343.9688,37.6719 Q343.3438,37.0938 342.75,36.8281 Q342.1563,36.5469 341.5313,36.5469 Q340.1875,36.5469 339.5,37.625 Q338.8125,38.6875 338.8125,40.7813 Q338.8125,42.875 339.5,43.9531 Q340.1875,45.0156 341.5313,45.0156 Q342.1563,45.0156 342.75,44.75 Q343.3438,44.4688 343.9688,43.8906 L343.9688,46.6094 Z " fill="#000000"/><text fill="#000000" font-family="sans-serif" font-size="14" lengthAdjust="spacing" textLength="39" x="407.5" y="39.9951">GNAT</text><text fill="#000000" font-family="sans-serif" font-size="10" lengthAdjust="spacing" textLength="144" x="355" y="52.5791">elki.index.tree.metrical.vptree</text><rect fill="#FFFFFF" height="15.9688" style="stroke:#181818;stroke-width:1.0;stroke-dasharray:2.0,2.0;" width="10" x="507" y="19"/><text fill="#000000" font-family="sans-serif" font-size="12" font-style="italic" lengthAdjust="spacing" textLength="8" x="508" y="31.1387">O</text></g></a><!--MD5=[b6d52543e4bc737618ce67999f7ef580]
reverse link elki.index.tree.metrical.vptree.GNAT.GNATPrioritySearcher to elki.index.tree.metrical.vptree.GNAT.GNATPriorityDBIDSearcher--><g id="link_elki.index.tree.metrical.vptree.GNAT.GNATPrioritySearcher_elki.index.tree.metrical.vptree.GNAT.GNATPriorityDBIDSearcher"><path codeLine="17" d="M193.17,86.93 C206.95,101.27 222.3,117.24 236.43,131.96 " fill="none" id="elki.index.tree.metrical.vptree.GNAT.GNATPrioritySearcher-backto-elki.index.tree.metrical.vptree.GNAT.GNATPriorityDBIDSearcher" style="stroke:#181818;stroke-width:1.0;"/><polygon fill="none" points="187.77,91.41,178.96,72.14,197.87,81.71,187.77,91.41" style="stroke:#181818;stroke-width:1.0;"/></g><!--MD5=[e7376aec7ffb7be15978635f123806ac]
reverse link elki.index.tree.metrical.vptree.GNAT to elki.index.tree.metrical.vptree.GNAT.GNATPriorityDBIDSearcher--><g id="link_elki.index.tree.metrical.vptree.GNAT_elki.index.tree.metrical.vptree.GNAT.GNATPriorityDBIDSearcher"><path codeLine="18" d="M392.11,71.02 C375.26,88.56 353.31,111.41 333.66,131.85 " fill="none" id="elki.index.tree.metrical.vptree.GNAT-backto-elki.index.tree.metrical.vptree.GNAT.GNATPriorityDBIDSearcher" style="stroke:#181818;stroke-width:1.0;"/><ellipse cx="397.0886" cy="65.85" fill="#FFFFFF" rx="8" ry="8" style="stroke:#181818;stroke-width:1.0;"/><line style="stroke:#181818;stroke-width:1.0;" x1="391.5473" x2="402.63" y1="71.6201" y2="60.08"/><line style="stroke:#181818;stroke-width:1.0;" x1="391.3186" x2="402.8587" y1="60.3087" y2="71.3914"/></g><rect fill="none" height="11.6406" style="stroke:none;stroke-width:1.0;" width="186" x="162.5" y="240.8281"/><text fill="#888888" font-family="sans-serif" font-size="10" lengthAdjust="spacing" textLength="186" x="162.5" y="250.1104">UMLDoclet 2.0.19, PlantUML 1.2022.8</text><!--MD5=[340263641101aab8ea4319eb91021828]
@startuml
    remove .*\.(Instance|Par|Parameterizer|Factory)$
    set namespaceSeparator none
    hide empty fields
    hide empty methods

    class "<size:14>GNAT.GNATPriorityDBIDSearcher\n<size:10>elki.index.tree.metrical.vptree" as elki.index.tree.metrical.vptree.GNAT.GNATPriorityDBIDSearcher [[GNAT.GNATPriorityDBIDSearcher.html]] {
        -query: DBIDRef
        +search(DBIDRef): PrioritySearcher<DBIDRef>
        #queryDistance(DBIDRef): double
    }

    abstract class "<size:14>GNAT.GNATPrioritySearcher\n<size:10>elki.index.tree.metrical.vptree" as elki.index.tree.metrical.vptree.GNAT.GNATPrioritySearcher<DBIDRef> [[GNAT.GNATPrioritySearcher.html]] {
        {abstract} #queryDistance(DBIDRef): double
    }
    class "<size:14>GNAT\n<size:10>elki.index.tree.metrical.vptree" as elki.index.tree.metrical.vptree.GNAT<O> [[GNAT.html]]

    elki.index.tree.metrical.vptree.GNAT.GNATPrioritySearcher <|- - elki.index.tree.metrical.vptree.GNAT.GNATPriorityDBIDSearcher
    elki.index.tree.metrical.vptree.GNAT +- - elki.index.tree.metrical.vptree.GNAT.GNATPriorityDBIDSearcher

    center footer UMLDoclet 2.0.19, PlantUML 1.2022.8
@enduml

PlantUML version 1.2022.8(Sun Sep 25 11:00:33 CEST 2022)
(APACHE source distribution)
Java Runtime: OpenJDK Runtime Environment
JVM: OpenJDK 64-Bit Server VM
Default Encoding: UTF-8
Language: de
Country: DE
--></g></svg>