<?xml version="1.0" encoding="UTF-8" standalone="no"?><svg xmlns="http://www.w3.org/2000/svg" xmlns:xlink="http://www.w3.org/1999/xlink" contentStyleType="text/css" height="683px" preserveAspectRatio="none" style="width:2974px;height:683px;background:#FFFFFF;" version="1.1" viewBox="0 0 2974 683" width="2974px" zoomAndPan="magnify"><defs/><g><!--MD5=[f5d33401931aa0de036b1d362f0e1cd9]
class elki.index.tree.metrical.vptree.GNAT--><a href="GNAT.html" target="_top" title="GNAT.html" xlink:actuate="onRequest" xlink:href="GNAT.html" xlink:show="new" xlink:title="GNAT.html" xlink:type="simple"><g id="elem_elki.index.tree.metrical.vptree.GNAT"><rect codeLine="6" fill="#F1F1F1" height="428.7656" id="elki.index.tree.metrical.vptree.GNAT" rx="2.5" ry="2.5" style="stroke:#181818;stroke-width:0.5;" width="551" x="1145.5" y="132"/><ellipse cx="1338.75" cy="150.9688" fill="#ADD1B2" rx="11" ry="11" style="stroke:#181818;stroke-width:1.0;"/><path d="M1341.7188,156.6094 Q1341.1406,156.9063 1340.5,157.0469 Q1339.8594,157.2031 1339.1563,157.2031 Q1336.6563,157.2031 1335.3281,155.5625 Q1334.0156,153.9063 1334.0156,150.7813 Q1334.0156,147.6563 1335.3281,146 Q1336.6563,144.3438 1339.1563,144.3438 Q1339.8594,144.3438 1340.5,144.5 Q1341.1563,144.6563 1341.7188,144.9531 L1341.7188,147.6719 Q1341.0938,147.0938 1340.5,146.8281 Q1339.9063,146.5469 1339.2813,146.5469 Q1337.9375,146.5469 1337.25,147.625 Q1336.5625,148.6875 1336.5625,150.7813 Q1336.5625,152.875 1337.25,153.9531 Q1337.9375,155.0156 1339.2813,155.0156 Q1339.9063,155.0156 1340.5,154.75 Q1341.0938,154.4688 1341.7188,153.8906 L1341.7188,156.6094 Z " fill="#000000"/><text fill="#000000" font-family="sans-serif" font-size="14" lengthAdjust="spacing" textLength="39" x="1411.75" y="149.9951">GNAT</text><text fill="#000000" font-family="sans-serif" font-size="10" lengthAdjust="spacing" textLength="144" x="1359.25" y="162.5791">elki.index.tree.metrical.vptree</text><rect fill="#FFFFFF" height="15.9688" style="stroke:#181818;stroke-width:1.0;stroke-dasharray:2.0,2.0;" width="10" x="1689.5" y="129"/><text fill="#000000" font-family="sans-serif" font-size="12" font-style="italic" lengthAdjust="spacing" textLength="8" x="1690.5" y="141.1387">O</text><line style="stroke:#181818;stroke-width:0.5;" x1="1146.5" x2="1695.5" y1="169.9375" y2="169.9375"/><rect fill="none" height="6" style="stroke:#C82930;stroke-width:1.0;" width="6" x="1153.5" y="180.5859"/><text fill="#000000" font-family="sans-serif" font-size="14" lengthAdjust="spacing" text-decoration="underline" textLength="93" x="1165.5" y="186.9326">LOG: Logging</text><polygon fill="none" points="1156.5,194.8828,1160.5,198.8828,1156.5,202.8828,1152.5,198.8828" style="stroke:#B38D22;stroke-width:1.0;"/><text fill="#000000" font-family="sans-serif" font-size="14" lengthAdjust="spacing" textLength="161" x="1165.5" y="203.2295">distComputations: long</text><polygon fill="none" points="1156.5,211.1797,1160.5,215.1797,1156.5,219.1797,1152.5,215.1797" style="stroke:#B38D22;stroke-width:1.0;"/><text fill="#000000" font-family="sans-serif" font-size="14" lengthAdjust="spacing" textLength="151" x="1165.5" y="219.5264">relation: Relation&lt;O&gt;</text><polygon fill="none" points="1156.5,228.4766,1152.5,234.4766,1160.5,234.4766" style="stroke:#1963A0;stroke-width:1.0;"/><text fill="#000000" font-family="sans-serif" font-size="14" lengthAdjust="spacing" textLength="219" x="1165.5" y="235.8232">distFunc: Distance&lt;? super O&gt;</text><polygon fill="none" points="1156.5,244.7734,1152.5,250.7734,1160.5,250.7734" style="stroke:#1963A0;stroke-width:1.0;"/><text fill="#000000" font-family="sans-serif" font-size="14" lengthAdjust="spacing" textLength="212" x="1165.5" y="252.1201">distQuery: DistanceQuery&lt;O&gt;</text><polygon fill="none" points="1156.5,261.0703,1152.5,267.0703,1160.5,267.0703" style="stroke:#1963A0;stroke-width:1.0;"/><text fill="#000000" font-family="sans-serif" font-size="14" lengthAdjust="spacing" textLength="231" x="1165.5" y="268.417">sorted: ModifiableDoubleDBIDList</text><polygon fill="none" points="1156.5,277.3672,1152.5,283.3672,1160.5,283.3672" style="stroke:#1963A0;stroke-width:1.0;"/><text fill="#000000" font-family="sans-serif" font-size="14" lengthAdjust="spacing" textLength="170" x="1165.5" y="284.7139">random: RandomFactory</text><polygon fill="none" points="1156.5,293.6641,1152.5,299.6641,1160.5,299.6641" style="stroke:#1963A0;stroke-width:1.0;"/><text fill="#000000" font-family="sans-serif" font-size="14" lengthAdjust="spacing" textLength="106" x="1165.5" y="301.0107">numberVPs: int</text><polygon fill="none" points="1156.5,309.9609,1152.5,315.9609,1160.5,315.9609" style="stroke:#1963A0;stroke-width:1.0;"/><text fill="#000000" font-family="sans-serif" font-size="14" lengthAdjust="spacing" textLength="74" x="1165.5" y="317.3076">root: Node</text><line style="stroke:#181818;stroke-width:0.5;" x1="1146.5" x2="1695.5" y1="324.6094" y2="324.6094"/><ellipse cx="1156.5" cy="338.2578" fill="#84BE84" rx="3" ry="3" style="stroke:#038048;stroke-width:1.0;"/><text fill="#000000" font-family="sans-serif" font-size="14" lengthAdjust="spacing" textLength="440" x="1165.5" y="341.6045">GNAT(Relation&lt;O&gt;, Distance&lt;? super O&gt;, RandomFactory, int)</text><ellipse cx="1156.5" cy="354.5547" fill="#84BE84" rx="3" ry="3" style="stroke:#038048;stroke-width:1.0;"/><text fill="#000000" font-family="sans-serif" font-size="14" lengthAdjust="spacing" textLength="101" x="1165.5" y="357.9014">initialize(): void</text><rect fill="#F24D5C" height="6" style="stroke:#C82930;stroke-width:1.0;" width="6" x="1153.5" y="367.8516"/><text fill="#000000" font-family="sans-serif" font-size="14" lengthAdjust="spacing" textLength="250" x="1165.5" y="374.1982">distance(DBIDRef, DBIDRef): double</text><rect fill="#F24D5C" height="6" style="stroke:#C82930;stroke-width:1.0;" width="6" x="1153.5" y="384.1484"/><text fill="#000000" font-family="sans-serif" font-size="14" lengthAdjust="spacing" textLength="203" x="1165.5" y="390.4951">distance(O, DBIDRef): double</text><rect fill="#F24D5C" height="6" style="stroke:#C82930;stroke-width:1.0;" width="6" x="1153.5" y="400.4453"/><text fill="#000000" font-family="sans-serif" font-size="14" lengthAdjust="spacing" textLength="225" x="1165.5" y="406.792">buildTree(Node, DBIDs, int): void</text><rect fill="#F24D5C" height="6" style="stroke:#C82930;stroke-width:1.0;" width="6" x="1153.5" y="416.7422"/><text fill="#000000" font-family="sans-serif" font-size="14" lengthAdjust="spacing" textLength="289" x="1165.5" y="423.0889">findVantagePoints(DBIDs, int): ArrayDBIDs</text><ellipse cx="1156.5" cy="436.0391" fill="#84BE84" rx="3" ry="3" style="stroke:#038048;stroke-width:1.0;"/><text fill="#000000" font-family="sans-serif" font-size="14" lengthAdjust="spacing" textLength="422" x="1165.5" y="439.3857">kNNByObject(DistanceQuery&lt;O&gt;, int, int): KNNSearcher&lt;O&gt;</text><ellipse cx="1156.5" cy="452.3359" fill="#84BE84" rx="3" ry="3" style="stroke:#038048;stroke-width:1.0;"/><text fill="#000000" font-family="sans-serif" font-size="14" lengthAdjust="spacing" textLength="459" x="1165.5" y="455.6826">kNNByDBID(DistanceQuery&lt;O&gt;, int, int): KNNSearcher&lt;DBIDRef&gt;</text><ellipse cx="1156.5" cy="468.6328" fill="#84BE84" rx="3" ry="3" style="stroke:#038048;stroke-width:1.0;"/><text fill="#000000" font-family="sans-serif" font-size="14" lengthAdjust="spacing" textLength="481" x="1165.5" y="471.9795">rangeByObject(DistanceQuery&lt;O&gt;, double, int): RangeSearcher&lt;O&gt;</text><ellipse cx="1156.5" cy="484.9297" fill="#84BE84" rx="3" ry="3" style="stroke:#038048;stroke-width:1.0;"/><text fill="#000000" font-family="sans-serif" font-size="14" lengthAdjust="spacing" textLength="518" x="1165.5" y="488.2764">rangeByDBID(DistanceQuery&lt;O&gt;, double, int): RangeSearcher&lt;DBIDRef&gt;</text><ellipse cx="1156.5" cy="501.2266" fill="#84BE84" rx="3" ry="3" style="stroke:#038048;stroke-width:1.0;"/><text fill="#000000" font-family="sans-serif" font-size="14" lengthAdjust="spacing" textLength="488" x="1165.5" y="504.5732">priorityByObject(DistanceQuery&lt;O&gt;, double, int): PrioritySearcher&lt;O&gt;</text><ellipse cx="1156.5" cy="517.5234" fill="#84BE84" rx="3" ry="3" style="stroke:#038048;stroke-width:1.0;"/><text fill="#000000" font-family="sans-serif" font-size="14" lengthAdjust="spacing" textLength="525" x="1165.5" y="520.8701">priorityByDBID(DistanceQuery&lt;O&gt;, double, int): PrioritySearcher&lt;DBIDRef&gt;</text><rect fill="#F24D5C" height="6" style="stroke:#C82930;stroke-width:1.0;" width="6" x="1153.5" y="530.8203"/><text fill="#000000" font-family="sans-serif" font-size="14" lengthAdjust="spacing" text-decoration="underline" textLength="352" x="1165.5" y="537.167">intersect(double, double, double, double): boolean</text><ellipse cx="1156.5" cy="550.1172" fill="#84BE84" rx="3" ry="3" style="stroke:#038048;stroke-width:1.0;"/><text fill="#000000" font-family="sans-serif" font-size="14" lengthAdjust="spacing" textLength="130" x="1165.5" y="553.4639">logStatistics(): void</text></g></a><!--MD5=[b16459038d58214302b236cfb75028c3]
class elki.index.DistancePriorityIndex--><a href="../../../DistancePriorityIndex.html" target="_top" title="../../../DistancePriorityIndex.html" xlink:actuate="onRequest" xlink:href="../../../DistancePriorityIndex.html" xlink:show="new" xlink:title="../../../DistancePriorityIndex.html" xlink:type="simple"><g id="elem_elki.index.DistancePriorityIndex"><rect codeLine="32" fill="#F1F1F1" height="62.2344" id="elki.index.DistancePriorityIndex" rx="2.5" ry="2.5" style="stroke:#181818;stroke-width:0.5;" width="526" x="1158" y="10"/><ellipse cx="1336.25" cy="28.9688" fill="#B4A7E5" rx="11" ry="11" style="stroke:#181818;stroke-width:1.0;"/><path d="M1332.1719,24.7344 L1332.1719,22.5781 L1339.5625,22.5781 L1339.5625,24.7344 L1337.0938,24.7344 L1337.0938,32.8125 L1339.5625,32.8125 L1339.5625,34.9688 L1332.1719,34.9688 L1332.1719,32.8125 L1334.6406,32.8125 L1334.6406,24.7344 L1332.1719,24.7344 Z " fill="#000000"/><text fill="#000000" font-family="sans-serif" font-size="14" font-style="italic" lengthAdjust="spacing" textLength="149" x="1356.75" y="27.9951">DistancePriorityIndex</text><text fill="#000000" font-family="sans-serif" font-size="10" font-style="italic" lengthAdjust="spacing" textLength="48" x="1407.25" y="40.5791">elki.index</text><rect fill="#FFFFFF" height="15.9688" style="stroke:#181818;stroke-width:1.0;stroke-dasharray:2.0,2.0;" width="10" x="1677" y="7"/><text fill="#000000" font-family="sans-serif" font-size="12" font-style="italic" lengthAdjust="spacing" textLength="8" x="1678" y="19.1387">O</text><line style="stroke:#181818;stroke-width:0.5;" x1="1159" x2="1683" y1="47.9375" y2="47.9375"/><ellipse cx="1169" cy="61.5859" fill="#84BE84" rx="3" ry="3" style="stroke:#038048;stroke-width:1.0;"/><text fill="#000000" font-family="sans-serif" font-size="14" font-style="italic" lengthAdjust="spacing" textLength="500" x="1178" y="64.9326">priorityByObject(DistanceQuery&lt;O&gt;, double, int): PrioritySearcher&lt;O&gt;</text></g></a><!--MD5=[8108463bd1473500c8de7af6a7b069aa]
class elki.index.tree.metrical.vptree.GNAT.Node--><a href="GNAT.Node.html" target="_top" title="GNAT.Node.html" xlink:actuate="onRequest" xlink:href="GNAT.Node.html" xlink:show="new" xlink:title="GNAT.Node.html" xlink:type="simple"><g id="elem_elki.index.tree.metrical.vptree.GNAT.Node"><rect codeLine="35" fill="#F1F1F1" height="37.9375" id="elki.index.tree.metrical.vptree.GNAT.Node" rx="2.5" ry="2.5" style="stroke:#181818;stroke-width:0.5;" width="176" x="7" y="621"/><ellipse cx="22" cy="639.9688" fill="#ADD1B2" rx="11" ry="11" style="stroke:#181818;stroke-width:1.0;"/><path d="M24.9688,645.6094 Q24.3906,645.9063 23.75,646.0469 Q23.1094,646.2031 22.4063,646.2031 Q19.9063,646.2031 18.5781,644.5625 Q17.2656,642.9063 17.2656,639.7813 Q17.2656,636.6563 18.5781,635 Q19.9063,633.3438 22.4063,633.3438 Q23.1094,633.3438 23.75,633.5 Q24.4063,633.6563 24.9688,633.9531 L24.9688,636.6719 Q24.3438,636.0938 23.75,635.8281 Q23.1563,635.5469 22.5313,635.5469 Q21.1875,635.5469 20.5,636.625 Q19.8125,637.6875 19.8125,639.7813 Q19.8125,641.875 20.5,642.9531 Q21.1875,644.0156 22.5313,644.0156 Q23.1563,644.0156 23.75,643.75 Q24.3438,643.4688 24.9688,642.8906 L24.9688,645.6094 Z " fill="#000000"/><text fill="#000000" font-family="sans-serif" font-size="14" lengthAdjust="spacing" textLength="80" x="68" y="638.9951">GNAT.Node</text><text fill="#000000" font-family="sans-serif" font-size="10" lengthAdjust="spacing" textLength="144" x="36" y="651.5791">elki.index.tree.metrical.vptree</text></g></a><!--MD5=[98ff77cc5add54ddff78dc566dcb9f33]
class elki.index.tree.metrical.vptree.GNAT.GNATKNNSearcher--><a href="GNAT.GNATKNNSearcher.html" target="_top" title="GNAT.GNATKNNSearcher.html" xlink:actuate="onRequest" xlink:href="GNAT.GNATKNNSearcher.html" xlink:show="new" xlink:title="GNAT.GNATKNNSearcher.html" xlink:type="simple"><g id="elem_elki.index.tree.metrical.vptree.GNAT.GNATKNNSearcher"><rect codeLine="36" fill="#F1F1F1" height="37.9375" id="elki.index.tree.metrical.vptree.GNAT.GNATKNNSearcher" rx="2.5" ry="2.5" style="stroke:#181818;stroke-width:0.5;" width="212" x="218" y="621"/><ellipse cx="233" cy="639.9688" fill="#A9DCDF" rx="11" ry="11" style="stroke:#181818;stroke-width:1.0;"/><path d="M233.1094,635.3125 L231.9531,640.3906 L234.2813,640.3906 L233.1094,635.3125 Z M231.625,633.0781 L234.6094,633.0781 L237.9688,645.4688 L235.5156,645.4688 L234.75,642.4063 L231.4688,642.4063 L230.7188,645.4688 L228.2813,645.4688 L231.625,633.0781 Z " fill="#000000"/><text fill="#000000" font-family="sans-serif" font-size="14" font-style="italic" lengthAdjust="spacing" textLength="180" x="247" y="638.9951">GNAT.GNATKNNSearcher</text><text fill="#000000" font-family="sans-serif" font-size="10" font-style="italic" lengthAdjust="spacing" textLength="151" x="261.5" y="651.5791">elki.index.tree.metrical.vptree</text></g></a><!--MD5=[a3af17a16f28b4b013698ba537e82efd]
class elki.index.tree.metrical.vptree.GNAT.GNATKNNObjectSearcher--><a href="GNAT.GNATKNNObjectSearcher.html" target="_top" title="GNAT.GNATKNNObjectSearcher.html" xlink:actuate="onRequest" xlink:href="GNAT.GNATKNNObjectSearcher.html" xlink:show="new" xlink:title="GNAT.GNATKNNObjectSearcher.html" xlink:type="simple"><g id="elem_elki.index.tree.metrical.vptree.GNAT.GNATKNNObjectSearcher"><rect codeLine="37" fill="#F1F1F1" height="37.9375" id="elki.index.tree.metrical.vptree.GNAT.GNATKNNObjectSearcher" rx="2.5" ry="2.5" style="stroke:#181818;stroke-width:0.5;" width="250" x="465" y="621"/><ellipse cx="480" cy="639.9688" fill="#ADD1B2" rx="11" ry="11" style="stroke:#181818;stroke-width:1.0;"/><path d="M482.9688,645.6094 Q482.3906,645.9063 481.75,646.0469 Q481.1094,646.2031 480.4063,646.2031 Q477.9063,646.2031 476.5781,644.5625 Q475.2656,642.9063 475.2656,639.7813 Q475.2656,636.6563 476.5781,635 Q477.9063,633.3438 480.4063,633.3438 Q481.1094,633.3438 481.75,633.5 Q482.4063,633.6563 482.9688,633.9531 L482.9688,636.6719 Q482.3438,636.0938 481.75,635.8281 Q481.1563,635.5469 480.5313,635.5469 Q479.1875,635.5469 478.5,636.625 Q477.8125,637.6875 477.8125,639.7813 Q477.8125,641.875 478.5,642.9531 Q479.1875,644.0156 480.5313,644.0156 Q481.1563,644.0156 481.75,643.75 Q482.3438,643.4688 482.9688,642.8906 L482.9688,645.6094 Z " fill="#000000"/><text fill="#000000" font-family="sans-serif" font-size="14" lengthAdjust="spacing" textLength="218" x="494" y="638.9951">GNAT.GNATKNNObjectSearcher</text><text fill="#000000" font-family="sans-serif" font-size="10" lengthAdjust="spacing" textLength="144" x="531" y="651.5791">elki.index.tree.metrical.vptree</text></g></a><!--MD5=[2539bc9490a6a2f7ecc4d78100f822ba]
class elki.index.tree.metrical.vptree.GNAT.GNATKNNDBIDSearcher--><a href="GNAT.GNATKNNDBIDSearcher.html" target="_top" title="GNAT.GNATKNNDBIDSearcher.html" xlink:actuate="onRequest" xlink:href="GNAT.GNATKNNDBIDSearcher.html" xlink:show="new" xlink:title="GNAT.GNATKNNDBIDSearcher.html" xlink:type="simple"><g id="elem_elki.index.tree.metrical.vptree.GNAT.GNATKNNDBIDSearcher"><rect codeLine="38" fill="#F1F1F1" height="37.9375" id="elki.index.tree.metrical.vptree.GNAT.GNATKNNDBIDSearcher" rx="2.5" ry="2.5" style="stroke:#181818;stroke-width:0.5;" width="240" x="750" y="621"/><ellipse cx="765" cy="639.9688" fill="#ADD1B2" rx="11" ry="11" style="stroke:#181818;stroke-width:1.0;"/><path d="M767.9688,645.6094 Q767.3906,645.9063 766.75,646.0469 Q766.1094,646.2031 765.4063,646.2031 Q762.9063,646.2031 761.5781,644.5625 Q760.2656,642.9063 760.2656,639.7813 Q760.2656,636.6563 761.5781,635 Q762.9063,633.3438 765.4063,633.3438 Q766.1094,633.3438 766.75,633.5 Q767.4063,633.6563 767.9688,633.9531 L767.9688,636.6719 Q767.3438,636.0938 766.75,635.8281 Q766.1563,635.5469 765.5313,635.5469 Q764.1875,635.5469 763.5,636.625 Q762.8125,637.6875 762.8125,639.7813 Q762.8125,641.875 763.5,642.9531 Q764.1875,644.0156 765.5313,644.0156 Q766.1563,644.0156 766.75,643.75 Q767.3438,643.4688 767.9688,642.8906 L767.9688,645.6094 Z " fill="#000000"/><text fill="#000000" font-family="sans-serif" font-size="14" lengthAdjust="spacing" textLength="208" x="779" y="638.9951">GNAT.GNATKNNDBIDSearcher</text><text fill="#000000" font-family="sans-serif" font-size="10" lengthAdjust="spacing" textLength="144" x="811" y="651.5791">elki.index.tree.metrical.vptree</text></g></a><!--MD5=[c48981a02a873c5c70aefa920e998831]
class elki.index.tree.metrical.vptree.GNAT.GNATRangeSearcher--><a href="GNAT.GNATRangeSearcher.html" target="_top" title="GNAT.GNATRangeSearcher.html" xlink:actuate="onRequest" xlink:href="GNAT.GNATRangeSearcher.html" xlink:show="new" xlink:title="GNAT.GNATRangeSearcher.html" xlink:type="simple"><g id="elem_elki.index.tree.metrical.vptree.GNAT.GNATRangeSearcher"><rect codeLine="39" fill="#F1F1F1" height="37.9375" id="elki.index.tree.metrical.vptree.GNAT.GNATRangeSearcher" rx="2.5" ry="2.5" style="stroke:#181818;stroke-width:0.5;" width="227" x="1025.5" y="621"/><ellipse cx="1040.5" cy="639.9688" fill="#A9DCDF" rx="11" ry="11" style="stroke:#181818;stroke-width:1.0;"/><path d="M1040.6094,635.3125 L1039.4531,640.3906 L1041.7813,640.3906 L1040.6094,635.3125 Z M1039.125,633.0781 L1042.1094,633.0781 L1045.4688,645.4688 L1043.0156,645.4688 L1042.25,642.4063 L1038.9688,642.4063 L1038.2188,645.4688 L1035.7813,645.4688 L1039.125,633.0781 Z " fill="#000000"/><text fill="#000000" font-family="sans-serif" font-size="14" font-style="italic" lengthAdjust="spacing" textLength="195" x="1054.5" y="638.9951">GNAT.GNATRangeSearcher</text><text fill="#000000" font-family="sans-serif" font-size="10" font-style="italic" lengthAdjust="spacing" textLength="151" x="1076.5" y="651.5791">elki.index.tree.metrical.vptree</text></g></a><!--MD5=[9cec5349f035049e51ea63b6eb55e298]
class elki.index.tree.metrical.vptree.GNAT.GNATRangeObjectSearcher--><a href="GNAT.GNATRangeObjectSearcher.html" target="_top" title="GNAT.GNATRangeObjectSearcher.html" xlink:actuate="onRequest" xlink:href="GNAT.GNATRangeObjectSearcher.html" xlink:show="new" xlink:title="GNAT.GNATRangeObjectSearcher.html" xlink:type="simple"><g id="elem_elki.index.tree.metrical.vptree.GNAT.GNATRangeObjectSearcher"><rect codeLine="40" fill="#F1F1F1" height="37.9375" id="elki.index.tree.metrical.vptree.GNAT.GNATRangeObjectSearcher" rx="2.5" ry="2.5" style="stroke:#181818;stroke-width:0.5;" width="266" x="1288" y="621"/><ellipse cx="1303" cy="639.9688" fill="#ADD1B2" rx="11" ry="11" style="stroke:#181818;stroke-width:1.0;"/><path d="M1305.9688,645.6094 Q1305.3906,645.9063 1304.75,646.0469 Q1304.1094,646.2031 1303.4063,646.2031 Q1300.9063,646.2031 1299.5781,644.5625 Q1298.2656,642.9063 1298.2656,639.7813 Q1298.2656,636.6563 1299.5781,635 Q1300.9063,633.3438 1303.4063,633.3438 Q1304.1094,633.3438 1304.75,633.5 Q1305.4063,633.6563 1305.9688,633.9531 L1305.9688,636.6719 Q1305.3438,636.0938 1304.75,635.8281 Q1304.1563,635.5469 1303.5313,635.5469 Q1302.1875,635.5469 1301.5,636.625 Q1300.8125,637.6875 1300.8125,639.7813 Q1300.8125,641.875 1301.5,642.9531 Q1302.1875,644.0156 1303.5313,644.0156 Q1304.1563,644.0156 1304.75,643.75 Q1305.3438,643.4688 1305.9688,642.8906 L1305.9688,645.6094 Z " fill="#000000"/><text fill="#000000" font-family="sans-serif" font-size="14" lengthAdjust="spacing" textLength="234" x="1317" y="638.9951">GNAT.GNATRangeObjectSearcher</text><text fill="#000000" font-family="sans-serif" font-size="10" lengthAdjust="spacing" textLength="144" x="1362" y="651.5791">elki.index.tree.metrical.vptree</text></g></a><!--MD5=[b1487185b5a153b40735c439dd6b2255]
class elki.index.tree.metrical.vptree.GNAT.GNATRangeDBIDSearcher--><a href="GNAT.GNATRangeDBIDSearcher.html" target="_top" title="GNAT.GNATRangeDBIDSearcher.html" xlink:actuate="onRequest" xlink:href="GNAT.GNATRangeDBIDSearcher.html" xlink:show="new" xlink:title="GNAT.GNATRangeDBIDSearcher.html" xlink:type="simple"><g id="elem_elki.index.tree.metrical.vptree.GNAT.GNATRangeDBIDSearcher"><rect codeLine="41" fill="#F1F1F1" height="37.9375" id="elki.index.tree.metrical.vptree.GNAT.GNATRangeDBIDSearcher" rx="2.5" ry="2.5" style="stroke:#181818;stroke-width:0.5;" width="256" x="1589" y="621"/><ellipse cx="1604" cy="639.9688" fill="#ADD1B2" rx="11" ry="11" style="stroke:#181818;stroke-width:1.0;"/><path d="M1606.9688,645.6094 Q1606.3906,645.9063 1605.75,646.0469 Q1605.1094,646.2031 1604.4063,646.2031 Q1601.9063,646.2031 1600.5781,644.5625 Q1599.2656,642.9063 1599.2656,639.7813 Q1599.2656,636.6563 1600.5781,635 Q1601.9063,633.3438 1604.4063,633.3438 Q1605.1094,633.3438 1605.75,633.5 Q1606.4063,633.6563 1606.9688,633.9531 L1606.9688,636.6719 Q1606.3438,636.0938 1605.75,635.8281 Q1605.1563,635.5469 1604.5313,635.5469 Q1603.1875,635.5469 1602.5,636.625 Q1601.8125,637.6875 1601.8125,639.7813 Q1601.8125,641.875 1602.5,642.9531 Q1603.1875,644.0156 1604.5313,644.0156 Q1605.1563,644.0156 1605.75,643.75 Q1606.3438,643.4688 1606.9688,642.8906 L1606.9688,645.6094 Z " fill="#000000"/><text fill="#000000" font-family="sans-serif" font-size="14" lengthAdjust="spacing" textLength="224" x="1618" y="638.9951">GNAT.GNATRangeDBIDSearcher</text><text fill="#000000" font-family="sans-serif" font-size="10" lengthAdjust="spacing" textLength="144" x="1658" y="651.5791">elki.index.tree.metrical.vptree</text></g></a><!--MD5=[159c436f7d14e603ac22bc5aa5be0569]
class elki.index.tree.metrical.vptree.GNAT.PrioritySearchBranch--><a href="GNAT.PrioritySearchBranch.html" target="_top" title="GNAT.PrioritySearchBranch.html" xlink:actuate="onRequest" xlink:href="GNAT.PrioritySearchBranch.html" xlink:show="new" xlink:title="GNAT.PrioritySearchBranch.html" xlink:type="simple"><g id="elem_elki.index.tree.metrical.vptree.GNAT.PrioritySearchBranch"><rect codeLine="42" fill="#F1F1F1" height="37.9375" id="elki.index.tree.metrical.vptree.GNAT.PrioritySearchBranch" rx="2.5" ry="2.5" style="stroke:#181818;stroke-width:0.5;" width="218" x="1880" y="621"/><ellipse cx="1895" cy="639.9688" fill="#ADD1B2" rx="11" ry="11" style="stroke:#181818;stroke-width:1.0;"/><path d="M1897.9688,645.6094 Q1897.3906,645.9063 1896.75,646.0469 Q1896.1094,646.2031 1895.4063,646.2031 Q1892.9063,646.2031 1891.5781,644.5625 Q1890.2656,642.9063 1890.2656,639.7813 Q1890.2656,636.6563 1891.5781,635 Q1892.9063,633.3438 1895.4063,633.3438 Q1896.1094,633.3438 1896.75,633.5 Q1897.4063,633.6563 1897.9688,633.9531 L1897.9688,636.6719 Q1897.3438,636.0938 1896.75,635.8281 Q1896.1563,635.5469 1895.5313,635.5469 Q1894.1875,635.5469 1893.5,636.625 Q1892.8125,637.6875 1892.8125,639.7813 Q1892.8125,641.875 1893.5,642.9531 Q1894.1875,644.0156 1895.5313,644.0156 Q1896.1563,644.0156 1896.75,643.75 Q1897.3438,643.4688 1897.9688,642.8906 L1897.9688,645.6094 Z " fill="#000000"/><text fill="#000000" font-family="sans-serif" font-size="14" lengthAdjust="spacing" textLength="186" x="1909" y="638.9951">GNAT.PrioritySearchBranch</text><text fill="#000000" font-family="sans-serif" font-size="10" lengthAdjust="spacing" textLength="144" x="1930" y="651.5791">elki.index.tree.metrical.vptree</text></g></a><!--MD5=[392e4270777f467e7ce3e8b28f207287]
class elki.index.tree.metrical.vptree.GNAT.GNATPrioritySearcher--><a href="GNAT.GNATPrioritySearcher.html" target="_top" title="GNAT.GNATPrioritySearcher.html" xlink:actuate="onRequest" xlink:href="GNAT.GNATPrioritySearcher.html" xlink:show="new" xlink:title="GNAT.GNATPrioritySearcher.html" xlink:type="simple"><g id="elem_elki.index.tree.metrical.vptree.GNAT.GNATPrioritySearcher"><rect codeLine="43" fill="#F1F1F1" height="37.9375" id="elki.index.tree.metrical.vptree.GNAT.GNATPrioritySearcher" rx="2.5" ry="2.5" style="stroke:#181818;stroke-width:0.5;" width="240" x="2133" y="621"/><ellipse cx="2148" cy="639.9688" fill="#A9DCDF" rx="11" ry="11" style="stroke:#181818;stroke-width:1.0;"/><path d="M2148.1094,635.3125 L2146.9531,640.3906 L2149.2813,640.3906 L2148.1094,635.3125 Z M2146.625,633.0781 L2149.6094,633.0781 L2152.9688,645.4688 L2150.5156,645.4688 L2149.75,642.4063 L2146.4688,642.4063 L2145.7188,645.4688 L2143.2813,645.4688 L2146.625,633.0781 Z " fill="#000000"/><text fill="#000000" font-family="sans-serif" font-size="14" font-style="italic" lengthAdjust="spacing" textLength="197" x="2162" y="638.9951">GNAT.GNATPrioritySearcher</text><text fill="#000000" font-family="sans-serif" font-size="10" font-style="italic" lengthAdjust="spacing" textLength="151" x="2185" y="651.5791">elki.index.tree.metrical.vptree</text><rect fill="#FFFFFF" height="15.9688" style="stroke:#181818;stroke-width:1.0;stroke-dasharray:2.0,2.0;" width="9" x="2367" y="618"/><text fill="#000000" font-family="sans-serif" font-size="12" font-style="italic" lengthAdjust="spacing" textLength="7" x="2368" y="630.1387">T</text></g></a><!--MD5=[0b5f0e29836b1efa53660727bbf858f8]
class elki.index.tree.metrical.vptree.GNAT.GNATPriorityObjectSearcher--><a href="GNAT.GNATPriorityObjectSearcher.html" target="_top" title="GNAT.GNATPriorityObjectSearcher.html" xlink:actuate="onRequest" xlink:href="GNAT.GNATPriorityObjectSearcher.html" xlink:show="new" xlink:title="GNAT.GNATPriorityObjectSearcher.html" xlink:type="simple"><g id="elem_elki.index.tree.metrical.vptree.GNAT.GNATPriorityObjectSearcher"><rect codeLine="44" fill="#F1F1F1" height="37.9375" id="elki.index.tree.metrical.vptree.GNAT.GNATPriorityObjectSearcher" rx="2.5" ry="2.5" style="stroke:#181818;stroke-width:0.5;" width="267" x="2408.5" y="621"/><ellipse cx="2423.5" cy="639.9688" fill="#ADD1B2" rx="11" ry="11" style="stroke:#181818;stroke-width:1.0;"/><path d="M2426.4688,645.6094 Q2425.8906,645.9063 2425.25,646.0469 Q2424.6094,646.2031 2423.9063,646.2031 Q2421.4063,646.2031 2420.0781,644.5625 Q2418.7656,642.9063 2418.7656,639.7813 Q2418.7656,636.6563 2420.0781,635 Q2421.4063,633.3438 2423.9063,633.3438 Q2424.6094,633.3438 2425.25,633.5 Q2425.9063,633.6563 2426.4688,633.9531 L2426.4688,636.6719 Q2425.8438,636.0938 2425.25,635.8281 Q2424.6563,635.5469 2424.0313,635.5469 Q2422.6875,635.5469 2422,636.625 Q2421.3125,637.6875 2421.3125,639.7813 Q2421.3125,641.875 2422,642.9531 Q2422.6875,644.0156 2424.0313,644.0156 Q2424.6563,644.0156 2425.25,643.75 Q2425.8438,643.4688 2426.4688,642.8906 L2426.4688,645.6094 Z " fill="#000000"/><text fill="#000000" font-family="sans-serif" font-size="14" lengthAdjust="spacing" textLength="235" x="2437.5" y="638.9951">GNAT.GNATPriorityObjectSearcher</text><text fill="#000000" font-family="sans-serif" font-size="10" lengthAdjust="spacing" textLength="144" x="2483" y="651.5791">elki.index.tree.metrical.vptree</text></g></a><!--MD5=[8eebdcebbd8d88aff9ac802e790a5e9f]
class elki.index.tree.metrical.vptree.GNAT.GNATPriorityDBIDSearcher--><a href="GNAT.GNATPriorityDBIDSearcher.html" target="_top" title="GNAT.GNATPriorityDBIDSearcher.html" xlink:actuate="onRequest" xlink:href="GNAT.GNATPriorityDBIDSearcher.html" xlink:show="new" xlink:title="GNAT.GNATPriorityDBIDSearcher.html" xlink:type="simple"><g id="elem_elki.index.tree.metrical.vptree.GNAT.GNATPriorityDBIDSearcher"><rect codeLine="45" fill="#F1F1F1" height="37.9375" id="elki.index.tree.metrical.vptree.GNAT.GNATPriorityDBIDSearcher" rx="2.5" ry="2.5" style="stroke:#181818;stroke-width:0.5;" width="257" x="2710.5" y="621"/><ellipse cx="2725.5" cy="639.9688" fill="#ADD1B2" rx="11" ry="11" style="stroke:#181818;stroke-width:1.0;"/><path d="M2728.4688,645.6094 Q2727.8906,645.9063 2727.25,646.0469 Q2726.6094,646.2031 2725.9063,646.2031 Q2723.4063,646.2031 2722.0781,644.5625 Q2720.7656,642.9063 2720.7656,639.7813 Q2720.7656,636.6563 2722.0781,635 Q2723.4063,633.3438 2725.9063,633.3438 Q2726.6094,633.3438 2727.25,633.5 Q2727.9063,633.6563 2728.4688,633.9531 L2728.4688,636.6719 Q2727.8438,636.0938 2727.25,635.8281 Q2726.6563,635.5469 2726.0313,635.5469 Q2724.6875,635.5469 2724,636.625 Q2723.3125,637.6875 2723.3125,639.7813 Q2723.3125,641.875 2724,642.9531 Q2724.6875,644.0156 2726.0313,644.0156 Q2726.6563,644.0156 2727.25,643.75 Q2727.8438,643.4688 2728.4688,642.8906 L2728.4688,645.6094 Z " fill="#000000"/><text fill="#000000" font-family="sans-serif" font-size="14" lengthAdjust="spacing" textLength="225" x="2739.5" y="638.9951">GNAT.GNATPriorityDBIDSearcher</text><text fill="#000000" font-family="sans-serif" font-size="10" lengthAdjust="spacing" textLength="144" x="2780" y="651.5791">elki.index.tree.metrical.vptree</text></g></a><!--MD5=[885471fedc76c5cfb523b381f45fa961]
reverse link elki.index.DistancePriorityIndex to elki.index.tree.metrical.vptree.GNAT--><g id="link_elki.index.DistancePriorityIndex_elki.index.tree.metrical.vptree.GNAT"><path codeLine="48" d="M1421,92.35 C1421,104.2 1421,117.57 1421,131.82 " fill="none" id="elki.index.DistancePriorityIndex-backto-elki.index.tree.metrical.vptree.GNAT" style="stroke:#181818;stroke-width:1.0;stroke-dasharray:7.0,7.0;"/><polygon fill="none" points="1414,92.21,1421,72.21,1428,92.21,1414,92.21" style="stroke:#181818;stroke-width:1.0;"/></g><!--MD5=[155b37d6deb33f771a8af92dc2176ec7]
reverse link elki.index.tree.metrical.vptree.GNAT to elki.index.tree.metrical.vptree.GNAT.Node--><g id="link_elki.index.tree.metrical.vptree.GNAT_elki.index.tree.metrical.vptree.GNAT.Node"><path codeLine="49" d="M1130.56,411.35 C825.02,478.52 363.17,580.05 177.03,620.97 " fill="none" id="elki.index.tree.metrical.vptree.GNAT-backto-elki.index.tree.metrical.vptree.GNAT.Node" style="stroke:#181818;stroke-width:1.0;"/><ellipse cx="1137.636" cy="409.7953" fill="#FFFFFF" rx="8" ry="8" style="stroke:#181818;stroke-width:1.0;"/><line style="stroke:#181818;stroke-width:1.0;" x1="1129.8221" x2="1145.45" y1="411.5105" y2="408.08"/><line style="stroke:#181818;stroke-width:1.0;" x1="1135.9208" x2="1139.3513" y1="401.9813" y2="417.6092"/></g><!--MD5=[9d1ea25505b0df66dedf6dc4696093d8]
reverse link elki.index.tree.metrical.vptree.GNAT to elki.index.tree.metrical.vptree.GNAT.GNATKNNSearcher--><g id="link_elki.index.tree.metrical.vptree.GNAT_elki.index.tree.metrical.vptree.GNAT.GNATKNNSearcher"><path codeLine="50" d="M1130.37,424.73 C879.66,491.35 535.87,582.7 391.82,620.98 " fill="none" id="elki.index.tree.metrical.vptree.GNAT-backto-elki.index.tree.metrical.vptree.GNAT.GNATKNNSearcher" style="stroke:#181818;stroke-width:1.0;"/><ellipse cx="1137.507" cy="422.8294" fill="#FFFFFF" rx="8" ry="8" style="stroke:#181818;stroke-width:1.0;"/><line style="stroke:#181818;stroke-width:1.0;" x1="1129.7739" x2="1145.24" y1="424.8789" y2="420.78"/><line style="stroke:#181818;stroke-width:1.0;" x1="1135.4575" x2="1139.5564" y1="415.0964" y2="430.5625"/></g><!--MD5=[4af92931a292fc918bed2f149124deb5]
reverse link elki.index.tree.metrical.vptree.GNAT to elki.index.tree.metrical.vptree.GNAT.GNATKNNObjectSearcher--><g id="link_elki.index.tree.metrical.vptree.GNAT_elki.index.tree.metrical.vptree.GNAT.GNATKNNObjectSearcher"><path codeLine="51" d="M1131.22,449.15 C951.87,512.06 738,587.08 641.61,620.9 " fill="none" id="elki.index.tree.metrical.vptree.GNAT-backto-elki.index.tree.metrical.vptree.GNAT.GNATKNNObjectSearcher" style="stroke:#181818;stroke-width:1.0;"/><ellipse cx="1137.8919" cy="446.8106" fill="#FFFFFF" rx="8" ry="8" style="stroke:#181818;stroke-width:1.0;"/><line style="stroke:#181818;stroke-width:1.0;" x1="1130.3437" x2="1145.44" y1="449.4612" y2="444.16"/><line style="stroke:#181818;stroke-width:1.0;" x1="1135.2413" x2="1140.5425" y1="439.2625" y2="454.3587"/></g><!--MD5=[511a12f679c976400e712be25cfa92f3]
reverse link elki.index.tree.metrical.vptree.GNAT to elki.index.tree.metrical.vptree.GNAT.GNATKNNDBIDSearcher--><g id="link_elki.index.tree.metrical.vptree.GNAT_elki.index.tree.metrical.vptree.GNAT.GNATKNNDBIDSearcher"><path codeLine="52" d="M1131.65,500.58 C1040.55,548.77 951.48,595.9 904.4,620.8 " fill="none" id="elki.index.tree.metrical.vptree.GNAT-backto-elki.index.tree.metrical.vptree.GNAT.GNATKNNDBIDSearcher" style="stroke:#181818;stroke-width:1.0;"/><ellipse cx="1138.0288" cy="497.2014" fill="#FFFFFF" rx="8" ry="8" style="stroke:#181818;stroke-width:1.0;"/><line style="stroke:#181818;stroke-width:1.0;" x1="1130.9575" x2="1145.1" y1="500.9427" y2="493.46"/><line style="stroke:#181818;stroke-width:1.0;" x1="1134.2874" x2="1141.7701" y1="490.1301" y2="504.2726"/></g><!--MD5=[9830ed2ae20bd2d765c8b978be44ae10]
reverse link elki.index.tree.metrical.vptree.GNAT to elki.index.tree.metrical.vptree.GNAT.GNATRangeSearcher--><g id="link_elki.index.tree.metrical.vptree.GNAT_elki.index.tree.metrical.vptree.GNAT.GNATRangeSearcher"><path codeLine="53" d="M1203.66,572.17 C1184.55,591.91 1168.13,608.89 1156.61,620.79 " fill="none" id="elki.index.tree.metrical.vptree.GNAT-backto-elki.index.tree.metrical.vptree.GNAT.GNATRangeSearcher" style="stroke:#181818;stroke-width:1.0;"/><ellipse cx="1208.6354" cy="567.0176" fill="#FFFFFF" rx="8" ry="8" style="stroke:#181818;stroke-width:1.0;"/><line style="stroke:#181818;stroke-width:1.0;" x1="1203.0707" x2="1214.2" y1="572.7652" y2="561.27"/><line style="stroke:#181818;stroke-width:1.0;" x1="1202.8878" x2="1214.3829" y1="561.4529" y2="572.5822"/></g><!--MD5=[d5a1ba3de01c0674093784b7176bda8b]
reverse link elki.index.tree.metrical.vptree.GNAT to elki.index.tree.metrical.vptree.GNAT.GNATRangeObjectSearcher--><g id="link_elki.index.tree.metrical.vptree.GNAT_elki.index.tree.metrical.vptree.GNAT.GNATRangeObjectSearcher"><path codeLine="54" d="M1421,576.49 C1421,594.39 1421,609.77 1421,620.79 " fill="none" id="elki.index.tree.metrical.vptree.GNAT-backto-elki.index.tree.metrical.vptree.GNAT.GNATRangeObjectSearcher" style="stroke:#181818;stroke-width:1.0;"/><ellipse cx="1421" cy="569.27" fill="#FFFFFF" rx="8" ry="8" style="stroke:#181818;stroke-width:1.0;"/><line style="stroke:#181818;stroke-width:1.0;" x1="1421" x2="1421" y1="577.27" y2="561.27"/><line style="stroke:#181818;stroke-width:1.0;" x1="1413" x2="1429" y1="569.27" y2="569.27"/></g><!--MD5=[b870426028d153e98c587e5eb703b31c]
reverse link elki.index.tree.metrical.vptree.GNAT to elki.index.tree.metrical.vptree.GNAT.GNATRangeDBIDSearcher--><g id="link_elki.index.tree.metrical.vptree.GNAT_elki.index.tree.metrical.vptree.GNAT.GNATRangeDBIDSearcher"><path codeLine="55" d="M1648.86,571.89 C1669.02,591.75 1686.37,608.83 1698.51,620.79 " fill="none" id="elki.index.tree.metrical.vptree.GNAT-backto-elki.index.tree.metrical.vptree.GNAT.GNATRangeDBIDSearcher" style="stroke:#181818;stroke-width:1.0;"/><ellipse cx="1643.7686" cy="566.8848" fill="#FFFFFF" rx="8" ry="8" style="stroke:#181818;stroke-width:1.0;"/><line style="stroke:#181818;stroke-width:1.0;" x1="1649.4672" x2="1638.07" y1="572.4996" y2="561.27"/><line style="stroke:#181818;stroke-width:1.0;" x1="1638.1538" x2="1649.3834" y1="572.5834" y2="561.1862"/></g><!--MD5=[0df7368495c6ad9690e070a5db34e4a6]
reverse link elki.index.tree.metrical.vptree.GNAT to elki.index.tree.metrical.vptree.GNAT.PrioritySearchBranch--><g id="link_elki.index.tree.metrical.vptree.GNAT_elki.index.tree.metrical.vptree.GNAT.PrioritySearchBranch"><path codeLine="56" d="M1710.1,495.87 C1807.41,545.81 1903.91,595.33 1953.91,620.99 " fill="none" id="elki.index.tree.metrical.vptree.GNAT-backto-elki.index.tree.metrical.vptree.GNAT.PrioritySearchBranch" style="stroke:#181818;stroke-width:1.0;"/><ellipse cx="1703.7985" cy="492.6307" fill="#FFFFFF" rx="8" ry="8" style="stroke:#181818;stroke-width:1.0;"/><line style="stroke:#181818;stroke-width:1.0;" x1="1710.9169" x2="1696.68" y1="496.2814" y2="488.98"/><line style="stroke:#181818;stroke-width:1.0;" x1="1700.1478" x2="1707.4491" y1="499.7491" y2="485.5122"/></g><!--MD5=[432ae92c7700bada75552b69ca56ccb9]
reverse link elki.index.tree.metrical.vptree.GNAT to elki.index.tree.metrical.vptree.GNAT.GNATPrioritySearcher--><g id="link_elki.index.tree.metrical.vptree.GNAT_elki.index.tree.metrical.vptree.GNAT.GNATPrioritySearcher"><path codeLine="57" d="M1710.84,449.05 C1890.45,511.98 2104.71,587.05 2201.29,620.88 " fill="none" id="elki.index.tree.metrical.vptree.GNAT-backto-elki.index.tree.metrical.vptree.GNAT.GNATPrioritySearcher" style="stroke:#181818;stroke-width:1.0;"/><ellipse cx="1704.1505" cy="446.7038" fill="#FFFFFF" rx="8" ry="8" style="stroke:#181818;stroke-width:1.0;"/><line style="stroke:#181818;stroke-width:1.0;" x1="1711.701" x2="1696.6" y1="449.3476" y2="444.06"/><line style="stroke:#181818;stroke-width:1.0;" x1="1701.5067" x2="1706.7943" y1="454.2543" y2="439.1533"/></g><!--MD5=[4a547af491390ebfbe92c233288c2ad7]
reverse link elki.index.tree.metrical.vptree.GNAT to elki.index.tree.metrical.vptree.GNAT.GNATPriorityObjectSearcher--><g id="link_elki.index.tree.metrical.vptree.GNAT_elki.index.tree.metrical.vptree.GNAT.GNATPriorityObjectSearcher"><path codeLine="58" d="M1711.5,423.04 C1968.26,489.81 2324.32,582.4 2472.74,620.99 " fill="none" id="elki.index.tree.metrical.vptree.GNAT-backto-elki.index.tree.metrical.vptree.GNAT.GNATPriorityObjectSearcher" style="stroke:#181818;stroke-width:1.0;"/><ellipse cx="1704.4029" cy="421.1919" fill="#FFFFFF" rx="8" ry="8" style="stroke:#181818;stroke-width:1.0;"/><line style="stroke:#181818;stroke-width:1.0;" x1="1712.1458" x2="1696.66" y1="423.2039" y2="419.18"/><line style="stroke:#181818;stroke-width:1.0;" x1="1702.3909" x2="1706.4148" y1="428.9348" y2="413.4491"/></g><!--MD5=[e7376aec7ffb7be15978635f123806ac]
reverse link elki.index.tree.metrical.vptree.GNAT to elki.index.tree.metrical.vptree.GNAT.GNATPriorityDBIDSearcher--><g id="link_elki.index.tree.metrical.vptree.GNAT_elki.index.tree.metrical.vptree.GNAT.GNATPriorityDBIDSearcher"><path codeLine="59" d="M1711.42,407.2 C2037.71,474.28 2548.26,579.23 2751.38,620.99 " fill="none" id="elki.index.tree.metrical.vptree.GNAT-backto-elki.index.tree.metrical.vptree.GNAT.GNATPriorityDBIDSearcher" style="stroke:#181818;stroke-width:1.0;"/><ellipse cx="1704.3454" cy="405.7543" fill="#FFFFFF" rx="8" ry="8" style="stroke:#181818;stroke-width:1.0;"/><line style="stroke:#181818;stroke-width:1.0;" x1="1712.1809" x2="1696.51" y1="407.3686" y2="404.14"/><line style="stroke:#181818;stroke-width:1.0;" x1="1702.7311" x2="1705.9597" y1="413.5897" y2="397.9189"/></g><rect fill="none" height="11.6406" style="stroke:none;stroke-width:1.0;" width="186" x="1387.25" y="663.9375"/><text fill="#888888" font-family="sans-serif" font-size="10" lengthAdjust="spacing" textLength="186" x="1387.25" y="673.2197">UMLDoclet 2.0.19, PlantUML 1.2022.8</text><!--MD5=[2d316f6531ad727eaa126cbd3bf19ed1]
@startuml
    remove .*\.(Instance|Par|Parameterizer|Factory)$
    set namespaceSeparator none
    hide empty fields
    hide empty methods

    class "<size:14>GNAT\n<size:10>elki.index.tree.metrical.vptree" as elki.index.tree.metrical.vptree.GNAT<O> [[GNAT.html]] {
        {static} -LOG: Logging
        #distComputations: long
        #relation: Relation<O>
        ~distFunc: Distance<? super O>
        ~distQuery: DistanceQuery<O>
        ~sorted: ModifiableDoubleDBIDList
        ~random: RandomFactory
        ~numberVPs: int
        ~root: Node
        +GNAT(Relation<O>, Distance<? super O>, RandomFactory, int)
        +initialize(): void
        -distance(DBIDRef, DBIDRef): double
        -distance(O, DBIDRef): double
        -buildTree(Node, DBIDs, int): void
        -findVantagePoints(DBIDs, int): ArrayDBIDs
        +kNNByObject(DistanceQuery<O>, int, int): KNNSearcher<O>
        +kNNByDBID(DistanceQuery<O>, int, int): KNNSearcher<DBIDRef>
        +rangeByObject(DistanceQuery<O>, double, int): RangeSearcher<O>
        +rangeByDBID(DistanceQuery<O>, double, int): RangeSearcher<DBIDRef>
        +priorityByObject(DistanceQuery<O>, double, int): PrioritySearcher<O>
        +priorityByDBID(DistanceQuery<O>, double, int): PrioritySearcher<DBIDRef>
        {static} -intersect(double, double, double, double): boolean
        +logStatistics(): void
    }

    interface "<size:14>DistancePriorityIndex\n<size:10>elki.index" as elki.index.DistancePriorityIndex<O> [[../../../DistancePriorityIndex.html]] {
        {abstract} +priorityByObject(DistanceQuery<O>, double, int): PrioritySearcher<O>
    }
    class "<size:14>GNAT.Node\n<size:10>elki.index.tree.metrical.vptree" as elki.index.tree.metrical.vptree.GNAT.Node [[GNAT.Node.html]]
    abstract class "<size:14>GNAT.GNATKNNSearcher\n<size:10>elki.index.tree.metrical.vptree" as elki.index.tree.metrical.vptree.GNAT.GNATKNNSearcher [[GNAT.GNATKNNSearcher.html]]
    class "<size:14>GNAT.GNATKNNObjectSearcher\n<size:10>elki.index.tree.metrical.vptree" as elki.index.tree.metrical.vptree.GNAT.GNATKNNObjectSearcher [[GNAT.GNATKNNObjectSearcher.html]]
    class "<size:14>GNAT.GNATKNNDBIDSearcher\n<size:10>elki.index.tree.metrical.vptree" as elki.index.tree.metrical.vptree.GNAT.GNATKNNDBIDSearcher [[GNAT.GNATKNNDBIDSearcher.html]]
    abstract class "<size:14>GNAT.GNATRangeSearcher\n<size:10>elki.index.tree.metrical.vptree" as elki.index.tree.metrical.vptree.GNAT.GNATRangeSearcher [[GNAT.GNATRangeSearcher.html]]
    class "<size:14>GNAT.GNATRangeObjectSearcher\n<size:10>elki.index.tree.metrical.vptree" as elki.index.tree.metrical.vptree.GNAT.GNATRangeObjectSearcher [[GNAT.GNATRangeObjectSearcher.html]]
    class "<size:14>GNAT.GNATRangeDBIDSearcher\n<size:10>elki.index.tree.metrical.vptree" as elki.index.tree.metrical.vptree.GNAT.GNATRangeDBIDSearcher [[GNAT.GNATRangeDBIDSearcher.html]]
    class "<size:14>GNAT.PrioritySearchBranch\n<size:10>elki.index.tree.metrical.vptree" as elki.index.tree.metrical.vptree.GNAT.PrioritySearchBranch [[GNAT.PrioritySearchBranch.html]]
    abstract class "<size:14>GNAT.GNATPrioritySearcher\n<size:10>elki.index.tree.metrical.vptree" as elki.index.tree.metrical.vptree.GNAT.GNATPrioritySearcher<T> [[GNAT.GNATPrioritySearcher.html]]
    class "<size:14>GNAT.GNATPriorityObjectSearcher\n<size:10>elki.index.tree.metrical.vptree" as elki.index.tree.metrical.vptree.GNAT.GNATPriorityObjectSearcher [[GNAT.GNATPriorityObjectSearcher.html]]
    class "<size:14>GNAT.GNATPriorityDBIDSearcher\n<size:10>elki.index.tree.metrical.vptree" as elki.index.tree.metrical.vptree.GNAT.GNATPriorityDBIDSearcher [[GNAT.GNATPriorityDBIDSearcher.html]]
    class "<size:14>GNAT.Factory\n<size:10>elki.index.tree.metrical.vptree" as elki.index.tree.metrical.vptree.GNAT.Factory<O extends NumberVector> [[GNAT.Factory.html]]

    elki.index.DistancePriorityIndex <|.. elki.index.tree.metrical.vptree.GNAT
    elki.index.tree.metrical.vptree.GNAT +- - elki.index.tree.metrical.vptree.GNAT.Node
    elki.index.tree.metrical.vptree.GNAT +- - elki.index.tree.metrical.vptree.GNAT.GNATKNNSearcher
    elki.index.tree.metrical.vptree.GNAT +- - elki.index.tree.metrical.vptree.GNAT.GNATKNNObjectSearcher
    elki.index.tree.metrical.vptree.GNAT +- - elki.index.tree.metrical.vptree.GNAT.GNATKNNDBIDSearcher
    elki.index.tree.metrical.vptree.GNAT +- - elki.index.tree.metrical.vptree.GNAT.GNATRangeSearcher
    elki.index.tree.metrical.vptree.GNAT +- - elki.index.tree.metrical.vptree.GNAT.GNATRangeObjectSearcher
    elki.index.tree.metrical.vptree.GNAT +- - elki.index.tree.metrical.vptree.GNAT.GNATRangeDBIDSearcher
    elki.index.tree.metrical.vptree.GNAT +- - elki.index.tree.metrical.vptree.GNAT.PrioritySearchBranch
    elki.index.tree.metrical.vptree.GNAT +- - elki.index.tree.metrical.vptree.GNAT.GNATPrioritySearcher
    elki.index.tree.metrical.vptree.GNAT +- - elki.index.tree.metrical.vptree.GNAT.GNATPriorityObjectSearcher
    elki.index.tree.metrical.vptree.GNAT +- - elki.index.tree.metrical.vptree.GNAT.GNATPriorityDBIDSearcher
    elki.index.tree.metrical.vptree.GNAT +- - elki.index.tree.metrical.vptree.GNAT.Factory

    center footer UMLDoclet 2.0.19, PlantUML 1.2022.8
@enduml

PlantUML version 1.2022.8(Sun Sep 25 11:00:33 CEST 2022)
(APACHE source distribution)
Java Runtime: OpenJDK Runtime Environment
JVM: OpenJDK 64-Bit Server VM
Default Encoding: UTF-8
Language: de
Country: DE
--></g></svg>