<?xml version="1.0" encoding="UTF-8" standalone="no"?><svg xmlns="http://www.w3.org/2000/svg" xmlns:xlink="http://www.w3.org/1999/xlink" contentStyleType="text/css" height="260px" preserveAspectRatio="none" style="width:726px;height:260px;background:#FFFFFF;" version="1.1" viewBox="0 0 726 260" width="726px" zoomAndPan="magnify"><defs/><g><!--MD5=[a3af17a16f28b4b013698ba537e82efd]
class elki.index.tree.metrical.vptree.GNAT.GNATKNNObjectSearcher--><a href="GNAT.GNATKNNObjectSearcher.html" target="_top" title="GNAT.GNATKNNObjectSearcher.html" xlink:actuate="onRequest" xlink:href="GNAT.GNATKNNObjectSearcher.html" xlink:show="new" xlink:title="GNAT.GNATKNNObjectSearcher.html" xlink:type="simple"><g id="elem_elki.index.tree.metrical.vptree.GNAT.GNATKNNObjectSearcher"><rect codeLine="6" fill="#F1F1F1" height="102.8281" id="elki.index.tree.metrical.vptree.GNAT.GNATKNNObjectSearcher" rx="2.5" ry="2.5" style="stroke:#181818;stroke-width:0.5;" width="251" x="270.5" y="132"/><ellipse cx="285.95" cy="150.9688" fill="#ADD1B2" rx="11" ry="11" style="stroke:#181818;stroke-width:1.0;"/><path d="M288.9188,156.6094 Q288.3406,156.9063 287.7,157.0469 Q287.0594,157.2031 286.3563,157.2031 Q283.8563,157.2031 282.5281,155.5625 Q281.2156,153.9063 281.2156,150.7813 Q281.2156,147.6563 282.5281,146 Q283.8563,144.3438 286.3563,144.3438 Q287.0594,144.3438 287.7,144.5 Q288.3563,144.6563 288.9188,144.9531 L288.9188,147.6719 Q288.2938,147.0938 287.7,146.8281 Q287.1063,146.5469 286.4813,146.5469 Q285.1375,146.5469 284.45,147.625 Q283.7625,148.6875 283.7625,150.7813 Q283.7625,152.875 284.45,153.9531 Q285.1375,155.0156 286.4813,155.0156 Q287.1063,155.0156 287.7,154.75 Q288.2938,154.4688 288.9188,153.8906 L288.9188,156.6094 Z " fill="#000000"/><text fill="#000000" font-family="sans-serif" font-size="14" lengthAdjust="spacing" textLength="218" x="300.05" y="149.9951">GNAT.GNATKNNObjectSearcher</text><text fill="#000000" font-family="sans-serif" font-size="10" lengthAdjust="spacing" textLength="144" x="337.05" y="162.5791">elki.index.tree.metrical.vptree</text><line style="stroke:#181818;stroke-width:0.5;" x1="271.5" x2="520.5" y1="169.9375" y2="169.9375"/><rect fill="none" height="6" style="stroke:#C82930;stroke-width:1.0;" width="6" x="278.5" y="180.5859"/><text fill="#000000" font-family="sans-serif" font-size="14" lengthAdjust="spacing" textLength="59" x="290.5" y="186.9326">query: O</text><line style="stroke:#181818;stroke-width:0.5;" x1="271.5" x2="520.5" y1="194.2344" y2="194.2344"/><ellipse cx="281.5" cy="207.8828" fill="#84BE84" rx="3" ry="3" style="stroke:#038048;stroke-width:1.0;"/><text fill="#000000" font-family="sans-serif" font-size="14" lengthAdjust="spacing" textLength="159" x="290.5" y="211.2295">getKNN(O, int): KNNList</text><polygon fill="#FFFF44" points="281.5,219.1797,285.5,223.1797,281.5,227.1797,277.5,223.1797" style="stroke:#B38D22;stroke-width:1.0;"/><text fill="#000000" font-family="sans-serif" font-size="14" lengthAdjust="spacing" textLength="225" x="290.5" y="227.5264">queryDistance(DBIDRef): double</text></g></a><!--MD5=[98ff77cc5add54ddff78dc566dcb9f33]
class elki.index.tree.metrical.vptree.GNAT.GNATKNNSearcher--><a href="GNAT.GNATKNNSearcher.html" target="_top" title="GNAT.GNATKNNSearcher.html" xlink:actuate="onRequest" xlink:href="GNAT.GNATKNNSearcher.html" xlink:show="new" xlink:title="GNAT.GNATKNNSearcher.html" xlink:type="simple"><g id="elem_elki.index.tree.metrical.vptree.GNAT.GNATKNNSearcher"><rect codeLine="12" fill="#F1F1F1" height="62.2344" id="elki.index.tree.metrical.vptree.GNAT.GNATKNNSearcher" rx="2.5" ry="2.5" style="stroke:#181818;stroke-width:0.5;" width="256" x="9" y="10"/><ellipse cx="43.8" cy="28.9688" fill="#A9DCDF" rx="11" ry="11" style="stroke:#181818;stroke-width:1.0;"/><path d="M43.9094,24.3125 L42.7531,29.3906 L45.0813,29.3906 L43.9094,24.3125 Z M42.425,22.0781 L45.4094,22.0781 L48.7688,34.4688 L46.3156,34.4688 L45.55,31.4063 L42.2688,31.4063 L41.5188,34.4688 L39.0813,34.4688 L42.425,22.0781 Z " fill="#000000"/><text fill="#000000" font-family="sans-serif" font-size="14" font-style="italic" lengthAdjust="spacing" textLength="180" x="62.2" y="27.9951">GNAT.GNATKNNSearcher</text><text fill="#000000" font-family="sans-serif" font-size="10" font-style="italic" lengthAdjust="spacing" textLength="151" x="76.7" y="40.5791">elki.index.tree.metrical.vptree</text><line style="stroke:#181818;stroke-width:0.5;" x1="10" x2="264" y1="47.9375" y2="47.9375"/><polygon fill="#FFFF44" points="20,56.5859,24,60.5859,20,64.5859,16,60.5859" style="stroke:#B38D22;stroke-width:1.0;"/><text fill="#000000" font-family="sans-serif" font-size="14" font-style="italic" lengthAdjust="spacing" textLength="230" x="29" y="64.9326">queryDistance(DBIDRef): double</text></g></a><!--MD5=[646bf59ebfef2212020667c37ebc45d8]
class elki.database.query.knn.KNNSearcher--><a href="../../../../database/query/knn/KNNSearcher.html" target="_top" title="../../../../database/query/knn/KNNSearcher.html" xlink:actuate="onRequest" xlink:href="../../../../database/query/knn/KNNSearcher.html" xlink:show="new" xlink:title="../../../../database/query/knn/KNNSearcher.html" xlink:type="simple"><g id="elem_elki.database.query.knn.KNNSearcher"><rect codeLine="15" fill="#F1F1F1" height="62.2344" id="elki.database.query.knn.KNNSearcher" rx="2.5" ry="2.5" style="stroke:#181818;stroke-width:0.5;" width="191" x="300.5" y="10"/><ellipse cx="328.55" cy="28.9688" fill="#B4A7E5" rx="11" ry="11" style="stroke:#181818;stroke-width:1.0;"/><path d="M324.4719,24.7344 L324.4719,22.5781 L331.8625,22.5781 L331.8625,24.7344 L329.3938,24.7344 L329.3938,32.8125 L331.8625,32.8125 L331.8625,34.9688 L324.4719,34.9688 L324.4719,32.8125 L326.9406,32.8125 L326.9406,24.7344 L324.4719,24.7344 Z " fill="#000000"/><text fill="#000000" font-family="sans-serif" font-size="14" font-style="italic" lengthAdjust="spacing" textLength="94" x="357.45" y="27.9951">KNNSearcher</text><text fill="#000000" font-family="sans-serif" font-size="10" font-style="italic" lengthAdjust="spacing" textLength="118" x="345.45" y="40.5791">elki.database.query.knn</text><rect fill="#FFFFFF" height="15.9688" style="stroke:#181818;stroke-width:1.0;stroke-dasharray:2.0,2.0;" width="10" x="484.5" y="7"/><text fill="#000000" font-family="sans-serif" font-size="12" font-style="italic" lengthAdjust="spacing" textLength="8" x="485.5" y="19.1387">O</text><line style="stroke:#181818;stroke-width:0.5;" x1="301.5" x2="490.5" y1="47.9375" y2="47.9375"/><ellipse cx="311.5" cy="61.5859" fill="#84BE84" rx="3" ry="3" style="stroke:#038048;stroke-width:1.0;"/><text fill="#000000" font-family="sans-serif" font-size="14" font-style="italic" lengthAdjust="spacing" textLength="165" x="320.5" y="64.9326">getKNN(O, int): KNNList</text></g></a><!--MD5=[f5d33401931aa0de036b1d362f0e1cd9]
class elki.index.tree.metrical.vptree.GNAT--><a href="GNAT.html" target="_top" title="GNAT.html" xlink:actuate="onRequest" xlink:href="GNAT.html" xlink:show="new" xlink:title="GNAT.html" xlink:type="simple"><g id="elem_elki.index.tree.metrical.vptree.GNAT"><rect codeLine="18" fill="#F1F1F1" height="37.9375" id="elki.index.tree.metrical.vptree.GNAT" rx="2.5" ry="2.5" style="stroke:#181818;stroke-width:0.5;" width="188" x="527" y="22"/><ellipse cx="542" cy="40.9688" fill="#ADD1B2" rx="11" ry="11" style="stroke:#181818;stroke-width:1.0;"/><path d="M544.9688,46.6094 Q544.3906,46.9063 543.75,47.0469 Q543.1094,47.2031 542.4063,47.2031 Q539.9063,47.2031 538.5781,45.5625 Q537.2656,43.9063 537.2656,40.7813 Q537.2656,37.6563 538.5781,36 Q539.9063,34.3438 542.4063,34.3438 Q543.1094,34.3438 543.75,34.5 Q544.4063,34.6563 544.9688,34.9531 L544.9688,37.6719 Q544.3438,37.0938 543.75,36.8281 Q543.1563,36.5469 542.5313,36.5469 Q541.1875,36.5469 540.5,37.625 Q539.8125,38.6875 539.8125,40.7813 Q539.8125,42.875 540.5,43.9531 Q541.1875,45.0156 542.5313,45.0156 Q543.1563,45.0156 543.75,44.75 Q544.3438,44.4688 544.9688,43.8906 L544.9688,46.6094 Z " fill="#000000"/><text fill="#000000" font-family="sans-serif" font-size="14" lengthAdjust="spacing" textLength="39" x="608.5" y="39.9951">GNAT</text><text fill="#000000" font-family="sans-serif" font-size="10" lengthAdjust="spacing" textLength="144" x="556" y="52.5791">elki.index.tree.metrical.vptree</text><rect fill="#FFFFFF" height="15.9688" style="stroke:#181818;stroke-width:1.0;stroke-dasharray:2.0,2.0;" width="10" x="708" y="19"/><text fill="#000000" font-family="sans-serif" font-size="12" font-style="italic" lengthAdjust="spacing" textLength="8" x="709" y="31.1387">O</text></g></a><!--MD5=[2b909857cd32ac2f301f1351f36c8f0d]
reverse link elki.index.tree.metrical.vptree.GNAT.GNATKNNSearcher to elki.index.tree.metrical.vptree.GNAT.GNATKNNObjectSearcher--><g id="link_elki.index.tree.metrical.vptree.GNAT.GNATKNNSearcher_elki.index.tree.metrical.vptree.GNAT.GNATKNNObjectSearcher"><path codeLine="20" d="M210.27,81.74 C239.03,97.35 272.38,115.44 302.83,131.96 " fill="none" id="elki.index.tree.metrical.vptree.GNAT.GNATKNNSearcher-backto-elki.index.tree.metrical.vptree.GNAT.GNATKNNObjectSearcher" style="stroke:#181818;stroke-width:1.0;"/><polygon fill="none" points="206.8,87.83,192.56,72.14,213.48,75.52,206.8,87.83" style="stroke:#181818;stroke-width:1.0;"/></g><!--MD5=[7017ecde839b3647bab6083b152682b7]
reverse link elki.database.query.knn.KNNSearcher to elki.index.tree.metrical.vptree.GNAT.GNATKNNObjectSearcher--><g id="link_elki.database.query.knn.KNNSearcher_elki.index.tree.metrical.vptree.GNAT.GNATKNNObjectSearcher"><path codeLine="21" d="M396,92.5 C396,105.33 396,119.12 396,131.96 " fill="none" id="elki.database.query.knn.KNNSearcher-backto-elki.index.tree.metrical.vptree.GNAT.GNATKNNObjectSearcher" style="stroke:#181818;stroke-width:1.0;stroke-dasharray:7.0,7.0;"/><polygon fill="none" points="389,92.14,396,72.14,403,92.14,389,92.14" style="stroke:#181818;stroke-width:1.0;"/></g><!--MD5=[4af92931a292fc918bed2f149124deb5]
reverse link elki.index.tree.metrical.vptree.GNAT to elki.index.tree.metrical.vptree.GNAT.GNATKNNObjectSearcher--><g id="link_elki.index.tree.metrical.vptree.GNAT_elki.index.tree.metrical.vptree.GNAT.GNATKNNObjectSearcher"><path codeLine="22" d="M579.28,68.05 C550.65,85.93 511.72,110.24 477.11,131.85 " fill="none" id="elki.index.tree.metrical.vptree.GNAT-backto-elki.index.tree.metrical.vptree.GNAT.GNATKNNObjectSearcher" style="stroke:#181818;stroke-width:1.0;"/><ellipse cx="585.263" cy="64.3152" fill="#FFFFFF" rx="8" ry="8" style="stroke:#181818;stroke-width:1.0;"/><line style="stroke:#181818;stroke-width:1.0;" x1="578.476" x2="592.05" y1="68.5504" y2="60.08"/><line style="stroke:#181818;stroke-width:1.0;" x1="581.0278" x2="589.4982" y1="57.5282" y2="71.1022"/></g><rect fill="none" height="11.6406" style="stroke:none;stroke-width:1.0;" width="186" x="263" y="240.8281"/><text fill="#888888" font-family="sans-serif" font-size="10" lengthAdjust="spacing" textLength="186" x="263" y="250.1104">UMLDoclet 2.0.19, PlantUML 1.2022.8</text><!--MD5=[745ceeb991a0c5748a6f9026b5b00913]
@startuml
    remove .*\.(Instance|Par|Parameterizer|Factory)$
    set namespaceSeparator none
    hide empty fields
    hide empty methods

    class "<size:14>GNAT.GNATKNNObjectSearcher\n<size:10>elki.index.tree.metrical.vptree" as elki.index.tree.metrical.vptree.GNAT.GNATKNNObjectSearcher [[GNAT.GNATKNNObjectSearcher.html]] {
        -query: O
        +getKNN(O, int): KNNList
        #queryDistance(DBIDRef): double
    }

    abstract class "<size:14>GNAT.GNATKNNSearcher\n<size:10>elki.index.tree.metrical.vptree" as elki.index.tree.metrical.vptree.GNAT.GNATKNNSearcher [[GNAT.GNATKNNSearcher.html]] {
        {abstract} #queryDistance(DBIDRef): double
    }
    interface "<size:14>KNNSearcher\n<size:10>elki.database.query.knn" as elki.database.query.knn.KNNSearcher<O> [[../../../../database/query/knn/KNNSearcher.html]] {
        {abstract} +getKNN(O, int): KNNList
    }
    class "<size:14>GNAT\n<size:10>elki.index.tree.metrical.vptree" as elki.index.tree.metrical.vptree.GNAT<O> [[GNAT.html]]

    elki.index.tree.metrical.vptree.GNAT.GNATKNNSearcher <|- - elki.index.tree.metrical.vptree.GNAT.GNATKNNObjectSearcher
    elki.database.query.knn.KNNSearcher <|.. elki.index.tree.metrical.vptree.GNAT.GNATKNNObjectSearcher
    elki.index.tree.metrical.vptree.GNAT +- - elki.index.tree.metrical.vptree.GNAT.GNATKNNObjectSearcher

    center footer UMLDoclet 2.0.19, PlantUML 1.2022.8
@enduml

PlantUML version 1.2022.8(Sun Sep 25 11:00:33 CEST 2022)
(APACHE source distribution)
Java Runtime: OpenJDK Runtime Environment
JVM: OpenJDK 64-Bit Server VM
Default Encoding: UTF-8
Language: de
Country: DE
--></g></svg>