<?xml version="1.0" encoding="UTF-8" standalone="no"?><svg xmlns="http://www.w3.org/2000/svg" xmlns:xlink="http://www.w3.org/1999/xlink" contentStyleType="text/css" height="260px" preserveAspectRatio="none" style="width:774px;height:260px;background:#FFFFFF;" version="1.1" viewBox="0 0 774 260" width="774px" zoomAndPan="magnify"><defs/><g><!--MD5=[ed4432c0d1bda425fe3cf0d5eb2e77f0]
class elki.index.tree.metrical.vptree.VPTree.VPTreeKNNDBIDSearcher--><a href="VPTree.VPTreeKNNDBIDSearcher.html" target="_top" title="VPTree.VPTreeKNNDBIDSearcher.html" xlink:actuate="onRequest" xlink:href="VPTree.VPTreeKNNDBIDSearcher.html" xlink:show="new" xlink:title="VPTree.VPTreeKNNDBIDSearcher.html" xlink:type="simple"><g id="elem_elki.index.tree.metrical.vptree.VPTree.VPTreeKNNDBIDSearcher"><rect codeLine="6" fill="#F1F1F1" height="102.8281" id="elki.index.tree.metrical.vptree.VPTree.VPTreeKNNDBIDSearcher" rx="2.5" ry="2.5" style="stroke:#181818;stroke-width:0.5;" width="262" x="289" y="132"/><ellipse cx="304" cy="150.9688" fill="#ADD1B2" rx="11" ry="11" style="stroke:#181818;stroke-width:1.0;"/><path d="M306.9688,156.6094 Q306.3906,156.9063 305.75,157.0469 Q305.1094,157.2031 304.4063,157.2031 Q301.9063,157.2031 300.5781,155.5625 Q299.2656,153.9063 299.2656,150.7813 Q299.2656,147.6563 300.5781,146 Q301.9063,144.3438 304.4063,144.3438 Q305.1094,144.3438 305.75,144.5 Q306.4063,144.6563 306.9688,144.9531 L306.9688,147.6719 Q306.3438,147.0938 305.75,146.8281 Q305.1563,146.5469 304.5313,146.5469 Q303.1875,146.5469 302.5,147.625 Q301.8125,148.6875 301.8125,150.7813 Q301.8125,152.875 302.5,153.9531 Q303.1875,155.0156 304.5313,155.0156 Q305.1563,155.0156 305.75,154.75 Q306.3438,154.4688 306.9688,153.8906 L306.9688,156.6094 Z " fill="#000000"/><text fill="#000000" font-family="sans-serif" font-size="14" lengthAdjust="spacing" textLength="230" x="318" y="149.9951">VPTree.VPTreeKNNDBIDSearcher</text><text fill="#000000" font-family="sans-serif" font-size="10" lengthAdjust="spacing" textLength="144" x="361" y="162.5791">elki.index.tree.metrical.vptree</text><line style="stroke:#181818;stroke-width:0.5;" x1="290" x2="550" y1="169.9375" y2="169.9375"/><rect fill="none" height="6" style="stroke:#C82930;stroke-width:1.0;" width="6" x="297" y="180.5859"/><text fill="#000000" font-family="sans-serif" font-size="14" lengthAdjust="spacing" textLength="106" x="309" y="186.9326">query: DBIDRef</text><line style="stroke:#181818;stroke-width:0.5;" x1="290" x2="550" y1="194.2344" y2="194.2344"/><ellipse cx="300" cy="207.8828" fill="#84BE84" rx="3" ry="3" style="stroke:#038048;stroke-width:1.0;"/><text fill="#000000" font-family="sans-serif" font-size="14" lengthAdjust="spacing" textLength="206" x="309" y="211.2295">getKNN(DBIDRef, int): KNNList</text><polygon fill="#FFFF44" points="300,219.1797,304,223.1797,300,227.1797,296,223.1797" style="stroke:#B38D22;stroke-width:1.0;"/><text fill="#000000" font-family="sans-serif" font-size="14" lengthAdjust="spacing" textLength="225" x="309" y="227.5264">queryDistance(DBIDRef): double</text></g></a><!--MD5=[4b80a005dd20c0c785d75a15a33a11f4]
class elki.index.tree.metrical.vptree.VPTree.VPTreeKNNSearcher--><a href="VPTree.VPTreeKNNSearcher.html" target="_top" title="VPTree.VPTreeKNNSearcher.html" xlink:actuate="onRequest" xlink:href="VPTree.VPTreeKNNSearcher.html" xlink:show="new" xlink:title="VPTree.VPTreeKNNSearcher.html" xlink:type="simple"><g id="elem_elki.index.tree.metrical.vptree.VPTree.VPTreeKNNSearcher"><rect codeLine="12" fill="#F1F1F1" height="62.2344" id="elki.index.tree.metrical.vptree.VPTree.VPTreeKNNSearcher" rx="2.5" ry="2.5" style="stroke:#181818;stroke-width:0.5;" width="256" x="9" y="10"/><ellipse cx="35.7" cy="28.9688" fill="#A9DCDF" rx="11" ry="11" style="stroke:#181818;stroke-width:1.0;"/><path d="M35.8094,24.3125 L34.6531,29.3906 L36.9813,29.3906 L35.8094,24.3125 Z M34.325,22.0781 L37.3094,22.0781 L40.6688,34.4688 L38.2156,34.4688 L37.45,31.4063 L34.1688,31.4063 L33.4188,34.4688 L30.9813,34.4688 L34.325,22.0781 Z " fill="#000000"/><text fill="#000000" font-family="sans-serif" font-size="14" font-style="italic" lengthAdjust="spacing" textLength="198" x="52.3" y="27.9951">VPTree.VPTreeKNNSearcher</text><text fill="#000000" font-family="sans-serif" font-size="10" font-style="italic" lengthAdjust="spacing" textLength="151" x="75.8" y="40.5791">elki.index.tree.metrical.vptree</text><line style="stroke:#181818;stroke-width:0.5;" x1="10" x2="264" y1="47.9375" y2="47.9375"/><polygon fill="#FFFF44" points="20,56.5859,24,60.5859,20,64.5859,16,60.5859" style="stroke:#B38D22;stroke-width:1.0;"/><text fill="#000000" font-family="sans-serif" font-size="14" font-style="italic" lengthAdjust="spacing" textLength="230" x="29" y="64.9326">queryDistance(DBIDRef): double</text></g></a><!--MD5=[646bf59ebfef2212020667c37ebc45d8]
class elki.database.query.knn.KNNSearcher--><a href="../../../../database/query/knn/KNNSearcher.html" target="_top" title="../../../../database/query/knn/KNNSearcher.html" xlink:actuate="onRequest" xlink:href="../../../../database/query/knn/KNNSearcher.html" xlink:show="new" xlink:title="../../../../database/query/knn/KNNSearcher.html" xlink:type="simple"><g id="elem_elki.database.query.knn.KNNSearcher"><rect codeLine="15" fill="#F1F1F1" height="62.2344" id="elki.database.query.knn.KNNSearcher" rx="2.5" ry="2.5" style="stroke:#181818;stroke-width:0.5;" width="240" x="300" y="10"/><ellipse cx="331.65" cy="28.9688" fill="#B4A7E5" rx="11" ry="11" style="stroke:#181818;stroke-width:1.0;"/><path d="M327.5719,24.7344 L327.5719,22.5781 L334.9625,22.5781 L334.9625,24.7344 L332.4938,24.7344 L332.4938,32.8125 L334.9625,32.8125 L334.9625,34.9688 L327.5719,34.9688 L327.5719,32.8125 L330.0406,32.8125 L330.0406,24.7344 L327.5719,24.7344 Z " fill="#000000"/><text fill="#000000" font-family="sans-serif" font-size="14" font-style="italic" lengthAdjust="spacing" textLength="94" x="361.35" y="27.9951">KNNSearcher</text><text fill="#000000" font-family="sans-serif" font-size="10" font-style="italic" lengthAdjust="spacing" textLength="118" x="349.35" y="40.5791">elki.database.query.knn</text><rect fill="#FFFFFF" height="15.9688" style="stroke:#181818;stroke-width:1.0;stroke-dasharray:2.0,2.0;" width="51" x="492" y="7"/><text fill="#000000" font-family="sans-serif" font-size="12" font-style="italic" lengthAdjust="spacing" textLength="49" x="493" y="19.1387">DBIDRef</text><line style="stroke:#181818;stroke-width:0.5;" x1="301" x2="539" y1="47.9375" y2="47.9375"/><ellipse cx="311" cy="61.5859" fill="#84BE84" rx="3" ry="3" style="stroke:#038048;stroke-width:1.0;"/><text fill="#000000" font-family="sans-serif" font-size="14" font-style="italic" lengthAdjust="spacing" textLength="214" x="320" y="64.9326">getKNN(DBIDRef, int): KNNList</text></g></a><!--MD5=[b56145b9a283fac99fb208bc9c575d57]
class elki.index.tree.metrical.vptree.VPTree--><a href="VPTree.html" target="_top" title="VPTree.html" xlink:actuate="onRequest" xlink:href="VPTree.html" xlink:show="new" xlink:title="VPTree.html" xlink:type="simple"><g id="elem_elki.index.tree.metrical.vptree.VPTree"><rect codeLine="18" fill="#F1F1F1" height="37.9375" id="elki.index.tree.metrical.vptree.VPTree" rx="2.5" ry="2.5" style="stroke:#181818;stroke-width:0.5;" width="188" x="575" y="22"/><ellipse cx="590" cy="40.9688" fill="#ADD1B2" rx="11" ry="11" style="stroke:#181818;stroke-width:1.0;"/><path d="M592.9688,46.6094 Q592.3906,46.9063 591.75,47.0469 Q591.1094,47.2031 590.4063,47.2031 Q587.9063,47.2031 586.5781,45.5625 Q585.2656,43.9063 585.2656,40.7813 Q585.2656,37.6563 586.5781,36 Q587.9063,34.3438 590.4063,34.3438 Q591.1094,34.3438 591.75,34.5 Q592.4063,34.6563 592.9688,34.9531 L592.9688,37.6719 Q592.3438,37.0938 591.75,36.8281 Q591.1563,36.5469 590.5313,36.5469 Q589.1875,36.5469 588.5,37.625 Q587.8125,38.6875 587.8125,40.7813 Q587.8125,42.875 588.5,43.9531 Q589.1875,45.0156 590.5313,45.0156 Q591.1563,45.0156 591.75,44.75 Q592.3438,44.4688 592.9688,43.8906 L592.9688,46.6094 Z " fill="#000000"/><text fill="#000000" font-family="sans-serif" font-size="14" lengthAdjust="spacing" textLength="50" x="651" y="39.9951">VPTree</text><text fill="#000000" font-family="sans-serif" font-size="10" lengthAdjust="spacing" textLength="144" x="604" y="52.5791">elki.index.tree.metrical.vptree</text><rect fill="#FFFFFF" height="15.9688" style="stroke:#181818;stroke-width:1.0;stroke-dasharray:2.0,2.0;" width="10" x="756" y="19"/><text fill="#000000" font-family="sans-serif" font-size="12" font-style="italic" lengthAdjust="spacing" textLength="8" x="757" y="31.1387">O</text></g></a><!--MD5=[9e8b9297328c961ff00728714b21f9b0]
reverse link elki.index.tree.metrical.vptree.VPTree.VPTreeKNNSearcher to elki.index.tree.metrical.vptree.VPTree.VPTreeKNNDBIDSearcher--><g id="link_elki.index.tree.metrical.vptree.VPTree.VPTreeKNNSearcher_elki.index.tree.metrical.vptree.VPTree.VPTreeKNNDBIDSearcher"><path codeLine="20" d="M215.72,81.08 C247.45,96.83 284.46,115.21 318.19,131.96 " fill="none" id="elki.index.tree.metrical.vptree.VPTree.VPTreeKNNSearcher-backto-elki.index.tree.metrical.vptree.VPTree.VPTreeKNNDBIDSearcher" style="stroke:#181818;stroke-width:1.0;"/><polygon fill="none" points="212.51,87.3,197.71,72.14,218.74,74.76,212.51,87.3" style="stroke:#181818;stroke-width:1.0;"/></g><!--MD5=[446b54f84e74d5eec24d60bfb5bdf0e5]
reverse link elki.database.query.knn.KNNSearcher to elki.index.tree.metrical.vptree.VPTree.VPTreeKNNDBIDSearcher--><g id="link_elki.database.query.knn.KNNSearcher_elki.index.tree.metrical.vptree.VPTree.VPTreeKNNDBIDSearcher"><path codeLine="21" d="M420,92.5 C420,105.33 420,119.12 420,131.96 " fill="none" id="elki.database.query.knn.KNNSearcher-backto-elki.index.tree.metrical.vptree.VPTree.VPTreeKNNDBIDSearcher" style="stroke:#181818;stroke-width:1.0;stroke-dasharray:7.0,7.0;"/><polygon fill="none" points="413,92.14,420,72.14,427,92.14,413,92.14" style="stroke:#181818;stroke-width:1.0;"/></g><!--MD5=[b4965635da9554ca5f6d53dcc72900c5]
reverse link elki.index.tree.metrical.vptree.VPTree to elki.index.tree.metrical.vptree.VPTree.VPTreeKNNDBIDSearcher--><g id="link_elki.index.tree.metrical.vptree.VPTree_elki.index.tree.metrical.vptree.VPTree.VPTreeKNNDBIDSearcher"><path codeLine="22" d="M623.68,67.57 C591.92,85.49 548.41,110.04 509.76,131.85 " fill="none" id="elki.index.tree.metrical.vptree.VPTree-backto-elki.index.tree.metrical.vptree.VPTree.VPTreeKNNDBIDSearcher" style="stroke:#181818;stroke-width:1.0;"/><ellipse cx="629.9935" cy="64.0129" fill="#FFFFFF" rx="8" ry="8" style="stroke:#181818;stroke-width:1.0;"/><line style="stroke:#181818;stroke-width:1.0;" x1="623.027" x2="636.96" y1="67.9459" y2="60.08"/><line style="stroke:#181818;stroke-width:1.0;" x1="626.0606" x2="633.9265" y1="57.0465" y2="70.9794"/></g><rect fill="none" height="11.6406" style="stroke:none;stroke-width:1.0;" width="186" x="287" y="240.8281"/><text fill="#888888" font-family="sans-serif" font-size="10" lengthAdjust="spacing" textLength="186" x="287" y="250.1104">UMLDoclet 2.0.19, PlantUML 1.2022.8</text><!--MD5=[1d4a02aa82ba02892db9d03940b91142]
@startuml
    remove .*\.(Instance|Par|Parameterizer|Factory)$
    set namespaceSeparator none
    hide empty fields
    hide empty methods

    class "<size:14>VPTree.VPTreeKNNDBIDSearcher\n<size:10>elki.index.tree.metrical.vptree" as elki.index.tree.metrical.vptree.VPTree.VPTreeKNNDBIDSearcher [[VPTree.VPTreeKNNDBIDSearcher.html]] {
        -query: DBIDRef
        +getKNN(DBIDRef, int): KNNList
        #queryDistance(DBIDRef): double
    }

    abstract class "<size:14>VPTree.VPTreeKNNSearcher\n<size:10>elki.index.tree.metrical.vptree" as elki.index.tree.metrical.vptree.VPTree.VPTreeKNNSearcher [[VPTree.VPTreeKNNSearcher.html]] {
        {abstract} #queryDistance(DBIDRef): double
    }
    interface "<size:14>KNNSearcher\n<size:10>elki.database.query.knn" as elki.database.query.knn.KNNSearcher<DBIDRef> [[../../../../database/query/knn/KNNSearcher.html]] {
        {abstract} +getKNN(DBIDRef, int): KNNList
    }
    class "<size:14>VPTree\n<size:10>elki.index.tree.metrical.vptree" as elki.index.tree.metrical.vptree.VPTree<O> [[VPTree.html]]

    elki.index.tree.metrical.vptree.VPTree.VPTreeKNNSearcher <|- - elki.index.tree.metrical.vptree.VPTree.VPTreeKNNDBIDSearcher
    elki.database.query.knn.KNNSearcher <|.. elki.index.tree.metrical.vptree.VPTree.VPTreeKNNDBIDSearcher
    elki.index.tree.metrical.vptree.VPTree +- - elki.index.tree.metrical.vptree.VPTree.VPTreeKNNDBIDSearcher

    center footer UMLDoclet 2.0.19, PlantUML 1.2022.8
@enduml

PlantUML version 1.2022.8(Sun Sep 25 11:00:33 CEST 2022)
(APACHE source distribution)
Java Runtime: OpenJDK Runtime Environment
JVM: OpenJDK 64-Bit Server VM
Default Encoding: UTF-8
Language: de
Country: DE
--></g></svg>