<?xml version="1.0" encoding="UTF-8" standalone="no"?>
<!DOCTYPE svg PUBLIC "-//W3C//DTD SVG 1.1//EN"
 "http://www.w3.org/Graphics/SVG/1.1/DTD/svg11.dtd">
<!-- Generated by graphviz version 2.40.1 (20161225.0304)
 -->
<!-- Title: G Pages: 1 -->
<svg width="383pt" height="183pt"
 viewBox="0.00 0.00 383.00 182.50" xmlns="http://www.w3.org/2000/svg" xmlns:xlink="http://www.w3.org/1999/xlink">
<g id="graph0" class="graph" transform="scale(1 1) rotate(0) translate(4 178.5)">
<title>G</title>
<polygon fill="#ffffff" stroke="transparent" points="-4,4 -4,-178.5 379,-178.5 379,4 -4,4"/>
<!-- c1982514 -->
<g id="node1" class="node">
<title>c1982514</title>
<g id="a_node1"><a xlink:href="ByLabelClustering.html" xlink:title="&lt;TABLE&gt;">
<g id="a_node1_0"><a xlink:href="ByLabelClustering.html" xlink:title="de.lmu.ifi.dbs.elki.algorithm.clustering.trivial.ByLabelClustering" target="_parent">
<polygon fill="#fffacd" stroke="transparent" points="159,-39.5 159,-56.5 238,-56.5 238,-39.5 159,-39.5"/>
<polygon fill="none" stroke="#000000" points="159.5,-39 159.5,-56 238.5,-56 238.5,-39 159.5,-39"/>
<text text-anchor="start" x="163.5" y="-46.6" font-family="Roboto" font-size="8.00" fill="#000000"> </text>
<text text-anchor="start" x="166.5" y="-46.6" font-family="Roboto" font-size="8.00" fill="#000000">ByLabelClustering</text>
<text text-anchor="start" x="231.5" y="-46.6" font-family="Roboto" font-size="8.00" fill="#000000"> </text>
</a>
</g>
</a>
</g>
</g>
<!-- c1982516 -->
<g id="node2" class="node">
<title>c1982516</title>
<g id="a_node2"><a xlink:href="ByLabelOrAllInOneClustering.html" xlink:title="&lt;TABLE&gt;">
<g id="a_node2_1"><a xlink:href="ByLabelOrAllInOneClustering.html" xlink:title="de.lmu.ifi.dbs.elki.algorithm.clustering.trivial.ByLabelOrAllInOneClustering" target="_parent">
<polygon fill="none" stroke="#000000" points="256.5,-39 256.5,-56 375.5,-56 375.5,-39 256.5,-39"/>
<text text-anchor="start" x="260.5" y="-46.6" font-family="Roboto" font-size="8.00" fill="#000000"> </text>
<text text-anchor="start" x="263.5" y="-46.6" font-family="Roboto" font-size="8.00" fill="#000000">ByLabelOrAllInOneClustering</text>
<text text-anchor="start" x="368.5" y="-46.6" font-family="Roboto" font-size="8.00" fill="#000000"> </text>
</a>
</g>
</a>
</g>
</g>
<!-- c1982514&#45;&gt;c1982516 -->
<g id="edge4" class="edge">
<title>c1982514&#45;&gt;c1982516</title>
<path fill="none" stroke="#000000" d="M248.2194,-48C250.7201,-48 253.2426,-48 255.7682,-48"/>
<polygon fill="none" stroke="#000000" points="248.1109,-44.5001 238.1109,-48 248.1108,-51.5001 248.1109,-44.5001"/>
</g>
<!-- c1982858 -->
<g id="node5" class="node">
<title>c1982858</title>
<g id="a_node5"><a xlink:href="../../../data/ClassLabel.html" xlink:title="&lt;TABLE&gt;">
<g id="a_node5_2"><a xlink:href="../../../data/ClassLabel.html" xlink:title="de.lmu.ifi.dbs.elki.data.ClassLabel" target="_parent">
<polygon fill="none" stroke="#000000" points="272.5,0 272.5,-28 359.5,-28 359.5,0 272.5,0"/>
<text text-anchor="start" x="293" y="-18.6" font-family="Roboto" font-size="8.00" fill="#000000"> </text>
<text text-anchor="start" x="296" y="-18.6" font-family="Roboto" font-style="italic" font-size="8.00" fill="#000000">ClassLabel</text>
<text text-anchor="start" x="336" y="-18.6" font-family="Roboto" font-size="8.00" fill="#000000"> </text>
<text text-anchor="start" x="276.5" y="-7.6" font-family="Roboto" font-size="8.00" fill="#000000"> </text>
<text text-anchor="start" x="279.5" y="-7.6" font-family="Roboto" font-size="7.00" fill="#000000">de.lmu.ifi.dbs.elki.data</text>
<text text-anchor="start" x="352.5" y="-7.6" font-family="Roboto" font-size="8.00" fill="#000000"> </text>
</a>
</g>
</a>
</g>
</g>
<!-- c1982514&#45;&gt;c1982858 -->
<g id="edge3" class="edge">
<title>c1982514&#45;&gt;c1982858</title>
<path fill="none" stroke="#000000" d="M228.024,-39.4204C241.2924,-35.5646 257.2214,-30.9357 271.8295,-26.6906"/>
</g>
<!-- c1982530 -->
<g id="node3" class="node">
<title>c1982530</title>
<g id="a_node3"><a xlink:href="../ClusteringAlgorithm.html" xlink:title="&lt;TABLE&gt;">
<g id="a_node3_3"><a xlink:href="../ClusteringAlgorithm.html" xlink:title="de.lmu.ifi.dbs.elki.algorithm.clustering.ClusteringAlgorithm" target="_parent">
<polygon fill="none" stroke="#000000" points=".5,-135 .5,-174 141.5,-174 141.5,-135 .5,-135"/>
<text text-anchor="start" x="49.5" y="-163.6" font-family="Roboto" font-size="8.00" fill="#000000"> «interface» </text>
<text text-anchor="start" x="32.5" y="-153.6" font-family="Roboto" font-size="8.00" fill="#000000"> </text>
<text text-anchor="start" x="35.5" y="-153.6" font-family="Roboto" font-size="8.00" fill="#000000">ClusteringAlgorithm</text>
<text text-anchor="start" x="106.5" y="-153.6" font-family="Roboto" font-size="8.00" fill="#000000"> </text>
<text text-anchor="start" x="4.5" y="-142.6" font-family="Roboto" font-size="8.00" fill="#000000"> </text>
<text text-anchor="start" x="7.5" y="-142.6" font-family="Roboto" font-size="7.00" fill="#000000">de.lmu.ifi.dbs.elki.algorithm.clustering</text>
<text text-anchor="start" x="134.5" y="-142.6" font-family="Roboto" font-size="8.00" fill="#000000"> </text>
<polygon fill="none" stroke="#000000" points=".5,-118 .5,-135 141.5,-135 141.5,-118 .5,-118"/>
<text text-anchor="start" x="4.5" y="-124.6" font-family="Roboto" font-size="8.00" fill="#000000"> &#160;</text>
<polygon fill="none" stroke="#000000" points=".5,-101 .5,-118 141.5,-118 141.5,-101 .5,-101"/>
<text text-anchor="start" x="4.5" y="-108.6" font-family="Roboto" font-size="8.00" fill="#000000"> </text>
<text text-anchor="start" x="7.5" y="-108.6" font-family="Roboto" font-style="italic" font-size="8.00" fill="#000000"> run()</text>
<text text-anchor="start" x="28.5" y="-108.6" font-family="Roboto" font-size="8.00" fill="#000000"> </text>
</a>
</g>
</a>
</g>
</g>
<!-- c1982530&#45;&gt;c1982514 -->
<g id="edge2" class="edge">
<title>c1982530&#45;&gt;c1982514</title>
<path fill="none" stroke="#000000" stroke-dasharray="5,2" d="M139.8545,-95.8084C140.2379,-95.5389 140.6198,-95.2694 141,-95 158.4629,-82.6258 177.4557,-66.5373 188.6517,-56.7544"/>
<polygon fill="none" stroke="#000000" points="137.8751,-92.9218 131.6012,-101.4593 141.8298,-98.6976 137.8751,-92.9218"/>
</g>
<!-- c1982811 -->
<g id="node4" class="node">
<title>c1982811</title>
<g id="a_node4"><a xlink:href="../../AbstractAlgorithm.html" xlink:title="&lt;TABLE&gt;">
<g id="a_node4_4"><a xlink:href="../../AbstractAlgorithm.html" xlink:title="de.lmu.ifi.dbs.elki.algorithm.AbstractAlgorithm" target="_parent">
<polygon fill="#fffacd" stroke="transparent" points="18,-6 18,-90 123,-90 123,-6 18,-6"/>
<polygon fill="none" stroke="#000000" points="18.5,-62 18.5,-90 123.5,-90 123.5,-62 18.5,-62"/>
<text text-anchor="start" x="35.5" y="-80.6" font-family="Roboto" font-size="8.00" fill="#000000"> </text>
<text text-anchor="start" x="38.5" y="-80.6" font-family="Roboto" font-style="italic" font-size="8.00" fill="#000000">AbstractAlgorithm</text>
<text text-anchor="start" x="103.5" y="-80.6" font-family="Roboto" font-size="8.00" fill="#000000"> </text>
<text text-anchor="start" x="22.5" y="-69.6" font-family="Roboto" font-size="8.00" fill="#000000"> </text>
<text text-anchor="start" x="25.5" y="-69.6" font-family="Roboto" font-size="7.00" fill="#000000">de.lmu.ifi.dbs.elki.algorithm</text>
<text text-anchor="start" x="116.5" y="-69.6" font-family="Roboto" font-size="8.00" fill="#000000"> </text>
<polygon fill="none" stroke="#000000" points="18.5,-45 18.5,-62 123.5,-62 123.5,-45 18.5,-45"/>
<text text-anchor="start" x="22.5" y="-51.6" font-family="Roboto" font-size="8.00" fill="#000000"> &#160;</text>
<polygon fill="none" stroke="#000000" points="18.5,-6 18.5,-45 123.5,-45 123.5,-6 18.5,-6"/>
<text text-anchor="start" x="22.5" y="-34.6" font-family="Roboto" font-size="8.00" fill="#000000"> &#160;run() </text>
<text text-anchor="start" x="22.5" y="-24.6" font-family="Roboto" font-size="8.00" fill="#000000"> </text>
<text text-anchor="start" x="25.5" y="-24.6" font-family="Roboto" font-style="italic" font-size="8.00" fill="#000000"> getInputTypeRestriction()</text>
<text text-anchor="start" x="116.5" y="-24.6" font-family="Roboto" font-size="8.00" fill="#000000"> </text>
<text text-anchor="start" x="22.5" y="-13.6" font-family="Roboto" font-size="8.00" fill="#000000"> </text>
<text text-anchor="start" x="25.5" y="-13.6" font-family="Roboto" font-style="italic" font-size="8.00" fill="#000000"> getLogger()</text>
<text text-anchor="start" x="69.5" y="-13.6" font-family="Roboto" font-size="8.00" fill="#000000"> </text>
</a>
</g>
</a>
</g>
</g>
<!-- c1982811&#45;&gt;c1982514 -->
<g id="edge1" class="edge">
<title>c1982811&#45;&gt;c1982514</title>
<path fill="none" stroke="#000000" d="M133.3833,-48C142.0141,-48 150.6721,-48 158.729,-48"/>
<polygon fill="none" stroke="#000000" points="133.3015,-44.5001 123.3015,-48 133.3015,-51.5001 133.3015,-44.5001"/>
</g>
</g>
</svg>
