<?xml version="1.0" encoding="UTF-8" standalone="no"?>
<!DOCTYPE svg PUBLIC "-//W3C//DTD SVG 1.1//EN"
 "http://www.w3.org/Graphics/SVG/1.1/DTD/svg11.dtd">
<!-- Generated by graphviz version 2.40.1 (20161225.0304)
 -->
<!-- Title: G Pages: 1 -->
<svg width="236pt" height="177pt"
 viewBox="0.00 0.00 236.00 176.50" xmlns="http://www.w3.org/2000/svg" xmlns:xlink="http://www.w3.org/1999/xlink">
<g id="graph0" class="graph" transform="scale(1 1) rotate(0) translate(4 172.5)">
<title>G</title>
<polygon fill="#ffffff" stroke="transparent" points="-4,4 -4,-172.5 232,-172.5 232,4 -4,4"/>
<!-- c10378582 -->
<g id="node1" class="node">
<title>c10378582</title>
<g id="a_node1"><a xlink:href="TrivialAllInOne.html" xlink:title="&lt;TABLE&gt;">
<g id="a_node1_0"><a xlink:href="TrivialAllInOne.html" xlink:title="de.lmu.ifi.dbs.elki.algorithm.clustering.trivial.TrivialAllInOne" target="_parent">
<polygon fill="#fffacd" stroke="transparent" points="159,-33.5 159,-50.5 228,-50.5 228,-33.5 159,-33.5"/>
<polygon fill="none" stroke="#000000" points="159.5,-33 159.5,-50 228.5,-50 228.5,-33 159.5,-33"/>
<text text-anchor="start" x="163.5" y="-40.6" font-family="Roboto" font-size="8.00" fill="#000000"> </text>
<text text-anchor="start" x="166.5" y="-40.6" font-family="Roboto" font-size="8.00" fill="#000000">TrivialAllInOne</text>
<text text-anchor="start" x="221.5" y="-40.6" font-family="Roboto" font-size="8.00" fill="#000000"> </text>
</a>
</g>
</a>
</g>
</g>
<!-- c10378595 -->
<g id="node2" class="node">
<title>c10378595</title>
<g id="a_node2"><a xlink:href="../ClusteringAlgorithm.html" xlink:title="&lt;TABLE&gt;">
<g id="a_node2_1"><a xlink:href="../ClusteringAlgorithm.html" xlink:title="de.lmu.ifi.dbs.elki.algorithm.clustering.ClusteringAlgorithm" target="_parent">
<polygon fill="none" stroke="#000000" points=".5,-129 .5,-168 141.5,-168 141.5,-129 .5,-129"/>
<text text-anchor="start" x="49.5" y="-157.6" font-family="Roboto" font-size="8.00" fill="#000000"> «interface» </text>
<text text-anchor="start" x="32.5" y="-147.6" font-family="Roboto" font-size="8.00" fill="#000000"> </text>
<text text-anchor="start" x="35.5" y="-147.6" font-family="Roboto" font-size="8.00" fill="#000000">ClusteringAlgorithm</text>
<text text-anchor="start" x="106.5" y="-147.6" font-family="Roboto" font-size="8.00" fill="#000000"> </text>
<text text-anchor="start" x="4.5" y="-136.6" font-family="Roboto" font-size="8.00" fill="#000000"> </text>
<text text-anchor="start" x="7.5" y="-136.6" font-family="Roboto" font-size="7.00" fill="#000000">de.lmu.ifi.dbs.elki.algorithm.clustering</text>
<text text-anchor="start" x="134.5" y="-136.6" font-family="Roboto" font-size="8.00" fill="#000000"> </text>
<polygon fill="none" stroke="#000000" points=".5,-112 .5,-129 141.5,-129 141.5,-112 .5,-112"/>
<text text-anchor="start" x="4.5" y="-118.6" font-family="Roboto" font-size="8.00" fill="#000000"> &#160;</text>
<polygon fill="none" stroke="#000000" points=".5,-95 .5,-112 141.5,-112 141.5,-95 .5,-95"/>
<text text-anchor="start" x="4.5" y="-102.6" font-family="Roboto" font-size="8.00" fill="#000000"> </text>
<text text-anchor="start" x="7.5" y="-102.6" font-family="Roboto" font-style="italic" font-size="8.00" fill="#000000"> run()</text>
<text text-anchor="start" x="28.5" y="-102.6" font-family="Roboto" font-size="8.00" fill="#000000"> </text>
</a>
</g>
</a>
</g>
</g>
<!-- c10378595&#45;&gt;c10378582 -->
<g id="edge2" class="edge">
<title>c10378595&#45;&gt;c10378582</title>
<path fill="none" stroke="#000000" stroke-dasharray="5,2" d="M140.4593,-89.4007C140.6399,-89.2671 140.8202,-89.1336 141,-89 157.3015,-76.8898 174.5367,-60.7229 184.6404,-50.8523"/>
<polygon fill="none" stroke="#000000" points="138.1965,-86.7155 132.0865,-95.371 142.2605,-92.4149 138.1965,-86.7155"/>
</g>
<!-- c10378876 -->
<g id="node3" class="node">
<title>c10378876</title>
<g id="a_node3"><a xlink:href="../../AbstractAlgorithm.html" xlink:title="&lt;TABLE&gt;">
<g id="a_node3_2"><a xlink:href="../../AbstractAlgorithm.html" xlink:title="de.lmu.ifi.dbs.elki.algorithm.AbstractAlgorithm" target="_parent">
<polygon fill="#fffacd" stroke="transparent" points="18,0 18,-84 123,-84 123,0 18,0"/>
<polygon fill="none" stroke="#000000" points="18.5,-56 18.5,-84 123.5,-84 123.5,-56 18.5,-56"/>
<text text-anchor="start" x="35.5" y="-74.6" font-family="Roboto" font-size="8.00" fill="#000000"> </text>
<text text-anchor="start" x="38.5" y="-74.6" font-family="Roboto" font-style="italic" font-size="8.00" fill="#000000">AbstractAlgorithm</text>
<text text-anchor="start" x="103.5" y="-74.6" font-family="Roboto" font-size="8.00" fill="#000000"> </text>
<text text-anchor="start" x="22.5" y="-63.6" font-family="Roboto" font-size="8.00" fill="#000000"> </text>
<text text-anchor="start" x="25.5" y="-63.6" font-family="Roboto" font-size="7.00" fill="#000000">de.lmu.ifi.dbs.elki.algorithm</text>
<text text-anchor="start" x="116.5" y="-63.6" font-family="Roboto" font-size="8.00" fill="#000000"> </text>
<polygon fill="none" stroke="#000000" points="18.5,-39 18.5,-56 123.5,-56 123.5,-39 18.5,-39"/>
<text text-anchor="start" x="22.5" y="-45.6" font-family="Roboto" font-size="8.00" fill="#000000"> &#160;</text>
<polygon fill="none" stroke="#000000" points="18.5,0 18.5,-39 123.5,-39 123.5,0 18.5,0"/>
<text text-anchor="start" x="22.5" y="-28.6" font-family="Roboto" font-size="8.00" fill="#000000"> &#160;run() </text>
<text text-anchor="start" x="22.5" y="-18.6" font-family="Roboto" font-size="8.00" fill="#000000"> </text>
<text text-anchor="start" x="25.5" y="-18.6" font-family="Roboto" font-style="italic" font-size="8.00" fill="#000000"> getInputTypeRestriction()</text>
<text text-anchor="start" x="116.5" y="-18.6" font-family="Roboto" font-size="8.00" fill="#000000"> </text>
<text text-anchor="start" x="22.5" y="-7.6" font-family="Roboto" font-size="8.00" fill="#000000"> </text>
<text text-anchor="start" x="25.5" y="-7.6" font-family="Roboto" font-style="italic" font-size="8.00" fill="#000000"> getLogger()</text>
<text text-anchor="start" x="69.5" y="-7.6" font-family="Roboto" font-size="8.00" fill="#000000"> </text>
</a>
</g>
</a>
</g>
</g>
<!-- c10378876&#45;&gt;c10378582 -->
<g id="edge1" class="edge">
<title>c10378876&#45;&gt;c10378582</title>
<path fill="none" stroke="#000000" d="M133.0497,-42C141.9575,-42 150.8359,-42 158.9372,-42"/>
<polygon fill="none" stroke="#000000" points="133.0199,-38.5001 123.0198,-42 133.0198,-45.5001 133.0199,-38.5001"/>
</g>
</g>
</svg>
