<?xml version="1.0" encoding="UTF-8" standalone="no"?>
<!DOCTYPE svg PUBLIC "-//W3C//DTD SVG 1.1//EN"
 "http://www.w3.org/Graphics/SVG/1.1/DTD/svg11.dtd">
<!-- Generated by graphviz version 2.40.1 (20161225.0304)
 -->
<!-- Title: G Pages: 1 -->
<svg width="306pt" height="131pt"
 viewBox="0.00 0.00 306.00 131.00" xmlns="http://www.w3.org/2000/svg" xmlns:xlink="http://www.w3.org/1999/xlink">
<g id="graph0" class="graph" transform="scale(1 1) rotate(0) translate(4 127)">
<title>G</title>
<polygon fill="#ffffff" stroke="transparent" points="-4,4 -4,-127 302,-127 302,4 -4,4"/>
<!-- c4639742 -->
<g id="node1" class="node">
<title>c4639742</title>
<g id="a_node1"><a xlink:href="../../data/NumberVector.html" xlink:title="&lt;TABLE&gt;">
<g id="a_node1_0"><a xlink:href="../../data/NumberVector.html" xlink:title="de.lmu.ifi.dbs.elki.data.NumberVector" target="_parent">
<polygon fill="#fffacd" stroke="transparent" points="211,-61.5 211,-100.5 298,-100.5 298,-61.5 211,-61.5"/>
<polygon fill="none" stroke="#000000" points="211.5,-61 211.5,-100 298.5,-100 298.5,-61 211.5,-61"/>
<text text-anchor="start" x="233.5" y="-89.6" font-family="Roboto" font-size="8.00" fill="#000000"> «interface» </text>
<text text-anchor="start" x="226.5" y="-79.6" font-family="Roboto" font-size="8.00" fill="#000000"> </text>
<text text-anchor="start" x="229.5" y="-79.6" font-family="Roboto" font-size="8.00" fill="#000000">NumberVector</text>
<text text-anchor="start" x="280.5" y="-79.6" font-family="Roboto" font-size="8.00" fill="#000000"> </text>
<text text-anchor="start" x="215.5" y="-68.6" font-family="Roboto" font-size="8.00" fill="#000000"> </text>
<text text-anchor="start" x="218.5" y="-68.6" font-family="Roboto" font-size="7.00" fill="#000000">de.lmu.ifi.dbs.elki.data</text>
<text text-anchor="start" x="291.5" y="-68.6" font-family="Roboto" font-size="8.00" fill="#000000"> </text>
</a>
</g>
</a>
</g>
</g>
<!-- c4639764 -->
<g id="node2" class="node">
<title>c4639764</title>
<g id="a_node2"><a xlink:href="../AbstractAlgorithm.html" xlink:title="&lt;TABLE&gt;">
<g id="a_node2_1"><a xlink:href="../AbstractAlgorithm.html" xlink:title="de.lmu.ifi.dbs.elki.algorithm.AbstractAlgorithm" target="_parent">
<polygon fill="#fffacd" stroke="transparent" points="0,-39 0,-123 105,-123 105,-39 0,-39"/>
<polygon fill="none" stroke="#000000" points=".5,-95 .5,-123 105.5,-123 105.5,-95 .5,-95"/>
<text text-anchor="start" x="17.5" y="-113.6" font-family="Roboto" font-size="8.00" fill="#000000"> </text>
<text text-anchor="start" x="20.5" y="-113.6" font-family="Roboto" font-style="italic" font-size="8.00" fill="#000000">AbstractAlgorithm</text>
<text text-anchor="start" x="85.5" y="-113.6" font-family="Roboto" font-size="8.00" fill="#000000"> </text>
<text text-anchor="start" x="4.5" y="-102.6" font-family="Roboto" font-size="8.00" fill="#000000"> </text>
<text text-anchor="start" x="7.5" y="-102.6" font-family="Roboto" font-size="7.00" fill="#000000">de.lmu.ifi.dbs.elki.algorithm</text>
<text text-anchor="start" x="98.5" y="-102.6" font-family="Roboto" font-size="8.00" fill="#000000"> </text>
<polygon fill="none" stroke="#000000" points=".5,-78 .5,-95 105.5,-95 105.5,-78 .5,-78"/>
<text text-anchor="start" x="4.5" y="-84.6" font-family="Roboto" font-size="8.00" fill="#000000"> &#160;</text>
<polygon fill="none" stroke="#000000" points=".5,-39 .5,-78 105.5,-78 105.5,-39 .5,-39"/>
<text text-anchor="start" x="4.5" y="-67.6" font-family="Roboto" font-size="8.00" fill="#000000"> &#160;run() </text>
<text text-anchor="start" x="4.5" y="-57.6" font-family="Roboto" font-size="8.00" fill="#000000"> </text>
<text text-anchor="start" x="7.5" y="-57.6" font-family="Roboto" font-style="italic" font-size="8.00" fill="#000000"> getInputTypeRestriction()</text>
<text text-anchor="start" x="98.5" y="-57.6" font-family="Roboto" font-size="8.00" fill="#000000"> </text>
<text text-anchor="start" x="4.5" y="-46.6" font-family="Roboto" font-size="8.00" fill="#000000"> </text>
<text text-anchor="start" x="7.5" y="-46.6" font-family="Roboto" font-style="italic" font-size="8.00" fill="#000000"> getLogger()</text>
<text text-anchor="start" x="51.5" y="-46.6" font-family="Roboto" font-size="8.00" fill="#000000"> </text>
</a>
</g>
</a>
</g>
</g>
<!-- c4641666 -->
<g id="node4" class="node">
<title>c4641666</title>
<g id="a_node4"><a xlink:href="GaussianModel.html" xlink:title="&lt;TABLE&gt;">
<g id="a_node4_2"><a xlink:href="GaussianModel.html" xlink:title="de.lmu.ifi.dbs.elki.algorithm.outlier.GaussianModel" target="_parent">
<polygon fill="#fffacd" stroke="transparent" points="123,-72.5 123,-89.5 193,-89.5 193,-72.5 123,-72.5"/>
<polygon fill="none" stroke="#000000" points="123,-72 123,-89 193,-89 193,-72 123,-72"/>
<text text-anchor="start" x="127" y="-79.6" font-family="Roboto" font-size="8.00" fill="#000000"> </text>
<text text-anchor="start" x="130" y="-79.6" font-family="Roboto" font-size="8.00" fill="#000000">GaussianModel</text>
<text text-anchor="start" x="186" y="-79.6" font-family="Roboto" font-size="8.00" fill="#000000"> </text>
</a>
</g>
</a>
</g>
</g>
<!-- c4639764&#45;&gt;c4641666 -->
<g id="edge1" class="edge">
<title>c4639764&#45;&gt;c4641666</title>
<path fill="none" stroke="#000000" d="M115.2792,-81C117.8511,-81 120.3899,-81 122.87,-81"/>
<polygon fill="none" stroke="#000000" points="115.25,-77.5001 105.25,-81 115.25,-84.5001 115.25,-77.5001"/>
</g>
<!-- c4641549 -->
<g id="node3" class="node">
<title>c4641549</title>
<g id="a_node3"><a xlink:href="OutlierAlgorithm.html" xlink:title="&lt;TABLE&gt;">
<g id="a_node3_3"><a xlink:href="OutlierAlgorithm.html" xlink:title="de.lmu.ifi.dbs.elki.algorithm.outlier.OutlierAlgorithm" target="_parent">
<polygon fill="#fffacd" stroke="transparent" points="16,0 16,-28 89,-28 89,0 16,0"/>
<polygon fill="none" stroke="#000000" points="16.5,0 16.5,-28 89.5,-28 89.5,0 16.5,0"/>
<text text-anchor="start" x="31.5" y="-17.6" font-family="Roboto" font-size="8.00" fill="#000000"> «interface» </text>
<text text-anchor="start" x="20.5" y="-7.6" font-family="Roboto" font-size="8.00" fill="#000000"> </text>
<text text-anchor="start" x="23.5" y="-7.6" font-family="Roboto" font-size="8.00" fill="#000000">OutlierAlgorithm</text>
<text text-anchor="start" x="82.5" y="-7.6" font-family="Roboto" font-size="8.00" fill="#000000"> </text>
</a>
</g>
</a>
</g>
</g>
<!-- c4641549&#45;&gt;c4641666 -->
<g id="edge2" class="edge">
<title>c4641549&#45;&gt;c4641666</title>
<path fill="none" stroke="#000000" stroke-dasharray="5,2" d="M98.2836,-30.2667C100.594,-31.4506 102.8467,-32.6954 105,-34 122.8811,-44.8336 140.3858,-62.0049 150.1287,-72.3192"/>
<polygon fill="none" stroke="#000000" points="99.7169,-27.0732 89.176,-26.0052 96.7502,-33.4134 99.7169,-27.0732"/>
</g>
<!-- c4641666&#45;&gt;c4639742 -->
<g id="edge3" class="edge">
<title>c4641666&#45;&gt;c4639742</title>
<path fill="none" stroke="#000000" stroke-dasharray="5,2" d="M193.1117,-81C195.5216,-81 197.9788,-81 200.4567,-81"/>
<polygon fill="#000000" stroke="#000000" points="210.6916,-81 200.6917,-85.5001 205.6916,-81 200.6916,-81.0001 200.6916,-81.0001 200.6916,-81.0001 205.6916,-81 200.6916,-76.5001 210.6916,-81 210.6916,-81"/>
</g>
</g>
</svg>
