<?xml version="1.0" encoding="UTF-8" standalone="no"?>
<!DOCTYPE svg PUBLIC "-//W3C//DTD SVG 1.1//EN"
 "http://www.w3.org/Graphics/SVG/1.1/DTD/svg11.dtd">
<!-- Generated by graphviz version 2.40.1 (20161225.0304)
 -->
<!-- Title: G Pages: 1 -->
<svg width="368pt" height="106pt"
 viewBox="0.00 0.00 368.00 105.50" xmlns="http://www.w3.org/2000/svg" xmlns:xlink="http://www.w3.org/1999/xlink">
<g id="graph0" class="graph" transform="scale(1 1) rotate(0) translate(4 101.5)">
<title>G</title>
<polygon fill="#ffffff" stroke="transparent" points="-4,4 -4,-101.5 364,-101.5 364,4 -4,4"/>
<!-- c7516288 -->
<g id="node1" class="node">
<title>c7516288</title>
<g id="a_node1"><a xlink:href="OPTICSOF.html" xlink:title="&lt;TABLE&gt;">
<g id="a_node1_0"><a xlink:href="OPTICSOF.html" xlink:title="de.lmu.ifi.dbs.elki.algorithm.outlier.OPTICSOF" target="_parent">
<polygon fill="#fffacd" stroke="transparent" points="148,-44.5 148,-61.5 201,-61.5 201,-44.5 148,-44.5"/>
<polygon fill="none" stroke="#000000" points="148.5,-44 148.5,-61 201.5,-61 201.5,-44 148.5,-44"/>
<text text-anchor="start" x="152.5" y="-51.6" font-family="Roboto" font-size="8.00" fill="#000000"> </text>
<text text-anchor="start" x="155.5" y="-51.6" font-family="Roboto" font-size="8.00" fill="#000000">OPTICSOF</text>
<text text-anchor="start" x="194.5" y="-51.6" font-family="Roboto" font-size="8.00" fill="#000000"> </text>
</a>
</g>
</a>
</g>
</g>
<!-- c7517274 -->
<g id="node3" class="node">
<title>c7517274</title>
<g id="a_node3"><a xlink:href="../../database/query/knn/KNNQuery.html" xlink:title="&lt;TABLE&gt;">
<g id="a_node3_1"><a xlink:href="../../database/query/knn/KNNQuery.html" xlink:title="de.lmu.ifi.dbs.elki.database.query.knn.KNNQuery" target="_parent">
<polygon fill="#fffacd" stroke="transparent" points="222,-58.5 222,-97.5 357,-97.5 357,-58.5 222,-58.5"/>
<polygon fill="none" stroke="#000000" points="222.5,-58 222.5,-97 357.5,-97 357.5,-58 222.5,-58"/>
<text text-anchor="start" x="268.5" y="-86.6" font-family="Roboto" font-size="8.00" fill="#000000"> «interface» </text>
<text text-anchor="start" x="267.5" y="-76.6" font-family="Roboto" font-size="8.00" fill="#000000"> </text>
<text text-anchor="start" x="270.5" y="-76.6" font-family="Roboto" font-size="8.00" fill="#000000">KNNQuery</text>
<text text-anchor="start" x="309.5" y="-76.6" font-family="Roboto" font-size="8.00" fill="#000000"> </text>
<text text-anchor="start" x="226.5" y="-65.6" font-family="Roboto" font-size="8.00" fill="#000000"> </text>
<text text-anchor="start" x="229.5" y="-65.6" font-family="Roboto" font-size="7.00" fill="#000000">de.lmu.ifi.dbs.elki.database.query.knn</text>
<text text-anchor="start" x="350.5" y="-65.6" font-family="Roboto" font-size="8.00" fill="#000000"> </text>
</a>
</g>
</a>
</g>
</g>
<!-- c7516288&#45;&gt;c7517274 -->
<g id="edge3" class="edge">
<title>c7516288&#45;&gt;c7517274</title>
<path fill="none" stroke="#000000" d="M213.1733,-61.4072C216.0362,-62.0296 218.969,-62.6672 221.9388,-63.3128"/>
<polygon fill="none" stroke="#000000" points="212.8985,-61.3476 206.1857,-63.9817 201.1724,-58.7983 207.8852,-56.1642 212.8985,-61.3476"/>
</g>
<!-- c7517276 -->
<g id="node4" class="node">
<title>c7517276</title>
<g id="a_node4"><a xlink:href="../../database/query/range/RangeQuery.html" xlink:title="&lt;TABLE&gt;">
<g id="a_node4_2"><a xlink:href="../../database/query/range/RangeQuery.html" xlink:title="de.lmu.ifi.dbs.elki.database.query.range.RangeQuery" target="_parent">
<polygon fill="#fffacd" stroke="transparent" points="219,-8.5 219,-47.5 360,-47.5 360,-8.5 219,-8.5"/>
<polygon fill="none" stroke="#000000" points="219.5,-8 219.5,-47 360.5,-47 360.5,-8 219.5,-8"/>
<text text-anchor="start" x="268.5" y="-36.6" font-family="Roboto" font-size="8.00" fill="#000000"> «interface» </text>
<text text-anchor="start" x="265" y="-26.6" font-family="Roboto" font-size="8.00" fill="#000000"> </text>
<text text-anchor="start" x="268" y="-26.6" font-family="Roboto" font-size="8.00" fill="#000000">RangeQuery</text>
<text text-anchor="start" x="312" y="-26.6" font-family="Roboto" font-size="8.00" fill="#000000"> </text>
<text text-anchor="start" x="223.5" y="-15.6" font-family="Roboto" font-size="8.00" fill="#000000"> </text>
<text text-anchor="start" x="226.5" y="-15.6" font-family="Roboto" font-size="7.00" fill="#000000">de.lmu.ifi.dbs.elki.database.query.range</text>
<text text-anchor="start" x="353.5" y="-15.6" font-family="Roboto" font-size="8.00" fill="#000000"> </text>
</a>
</g>
</a>
</g>
</g>
<!-- c7516288&#45;&gt;c7517276 -->
<g id="edge4" class="edge">
<title>c7516288&#45;&gt;c7517276</title>
<path fill="none" stroke="#000000" d="M213.0357,-44.6227C214.9153,-44.2141 216.8253,-43.7988 218.7564,-43.379"/>
<polygon fill="none" stroke="#000000" points="212.8985,-44.6524 207.8852,-49.8357 201.1724,-47.2017 206.1857,-42.0183 212.8985,-44.6524"/>
</g>
<!-- c7517234 -->
<g id="node2" class="node">
<title>c7517234</title>
<g id="a_node2"><a xlink:href="../AbstractDistanceBasedAlgorithm.html" xlink:title="&lt;TABLE&gt;">
<g id="a_node2_3"><a xlink:href="../AbstractDistanceBasedAlgorithm.html" xlink:title="de.lmu.ifi.dbs.elki.algorithm.AbstractDistanceBasedAlgorithm" target="_parent">
<polygon fill="#fffacd" stroke="transparent" points="0,-39 0,-67 130,-67 130,-39 0,-39"/>
<polygon fill="none" stroke="#000000" points="0,-39 0,-67 130,-67 130,-39 0,-39"/>
<text text-anchor="start" x="4" y="-57.6" font-family="Roboto" font-size="8.00" fill="#000000"> </text>
<text text-anchor="start" x="7" y="-57.6" font-family="Roboto" font-style="italic" font-size="8.00" fill="#000000">AbstractDistanceBasedAlgorithm</text>
<text text-anchor="start" x="123" y="-57.6" font-family="Roboto" font-size="8.00" fill="#000000"> </text>
<text text-anchor="start" x="16.5" y="-46.6" font-family="Roboto" font-size="8.00" fill="#000000"> </text>
<text text-anchor="start" x="19.5" y="-46.6" font-family="Roboto" font-size="7.00" fill="#000000">de.lmu.ifi.dbs.elki.algorithm</text>
<text text-anchor="start" x="110.5" y="-46.6" font-family="Roboto" font-size="8.00" fill="#000000"> </text>
</a>
</g>
</a>
</g>
</g>
<!-- c7517234&#45;&gt;c7516288 -->
<g id="edge1" class="edge">
<title>c7517234&#45;&gt;c7516288</title>
<path fill="none" stroke="#000000" d="M140.5249,-53C142.9449,-53 145.3013,-53 147.5708,-53"/>
<polygon fill="none" stroke="#000000" points="140.2778,-49.5001 130.2778,-53 140.2778,-56.5001 140.2778,-49.5001"/>
</g>
<!-- c7519116 -->
<g id="node5" class="node">
<title>c7519116</title>
<g id="a_node5"><a xlink:href="OutlierAlgorithm.html" xlink:title="&lt;TABLE&gt;">
<g id="a_node5_4"><a xlink:href="OutlierAlgorithm.html" xlink:title="de.lmu.ifi.dbs.elki.algorithm.outlier.OutlierAlgorithm" target="_parent">
<polygon fill="#fffacd" stroke="transparent" points="28.5,0 28.5,-28 101.5,-28 101.5,0 28.5,0"/>
<polygon fill="none" stroke="#000000" points="29,0 29,-28 102,-28 102,0 29,0"/>
<text text-anchor="start" x="44" y="-17.6" font-family="Roboto" font-size="8.00" fill="#000000"> «interface» </text>
<text text-anchor="start" x="33" y="-7.6" font-family="Roboto" font-size="8.00" fill="#000000"> </text>
<text text-anchor="start" x="36" y="-7.6" font-family="Roboto" font-size="8.00" fill="#000000">OutlierAlgorithm</text>
<text text-anchor="start" x="95" y="-7.6" font-family="Roboto" font-size="8.00" fill="#000000"> </text>
</a>
</g>
</a>
</g>
</g>
<!-- c7519116&#45;&gt;c7516288 -->
<g id="edge2" class="edge">
<title>c7519116&#45;&gt;c7516288</title>
<path fill="none" stroke="#000000" stroke-dasharray="5,2" d="M111.4266,-27.6321C117.7039,-29.6654 124.0339,-31.8153 130,-34 138.5193,-37.1196 147.7704,-40.9886 155.6197,-44.4195"/>
<polygon fill="none" stroke="#000000" points="112.2555,-24.2234 101.6655,-24.5447 110.1445,-30.8975 112.2555,-24.2234"/>
</g>
</g>
</svg>
