<?xml version="1.0" encoding="UTF-8" standalone="no"?>
<!DOCTYPE svg PUBLIC "-//W3C//DTD SVG 1.1//EN"
 "http://www.w3.org/Graphics/SVG/1.1/DTD/svg11.dtd">
<!-- Generated by graphviz version 2.40.1 (20161225.0304)
 -->
<!-- Title: G Pages: 1 -->
<svg width="405pt" height="137pt"
 viewBox="0.00 0.00 405.00 137.00" xmlns="http://www.w3.org/2000/svg" xmlns:xlink="http://www.w3.org/1999/xlink">
<g id="graph0" class="graph" transform="scale(1 1) rotate(0) translate(4 133)">
<title>G</title>
<polygon fill="#ffffff" stroke="transparent" points="-4,4 -4,-133 401,-133 401,4 -4,4"/>
<!-- c6427844 -->
<g id="node1" class="node">
<title>c6427844</title>
<g id="a_node1"><a xlink:href="IntListParameter.html" xlink:title="&lt;TABLE&gt;">
<g id="a_node1_0"><a xlink:href="IntListParameter.html" xlink:title="de.lmu.ifi.dbs.elki.utilities.optionhandling.parameters.IntListParameter" target="_parent">
<polygon fill="none" stroke="#000000" points="307,-111.5 307,-128.5 379,-128.5 379,-111.5 307,-111.5"/>
<text text-anchor="start" x="311" y="-119.1" font-family="Roboto" font-size="8.00" fill="#000000"> </text>
<text text-anchor="start" x="314" y="-119.1" font-family="Roboto" font-size="8.00" fill="#000000">IntListParameter</text>
<text text-anchor="start" x="372" y="-119.1" font-family="Roboto" font-size="8.00" fill="#000000"> </text>
</a>
</g>
</a>
</g>
</g>
<!-- c6427846 -->
<g id="node2" class="node">
<title>c6427846</title>
<g id="a_node2"><a xlink:href="AbstractParameter.html" xlink:title="&lt;TABLE&gt;">
<g id="a_node2_1"><a xlink:href="AbstractParameter.html" xlink:title="de.lmu.ifi.dbs.elki.utilities.optionhandling.parameters.AbstractParameter" target="_parent">
<polygon fill="none" stroke="#000000" points="54.5,-55.5 54.5,-72.5 135.5,-72.5 135.5,-55.5 54.5,-55.5"/>
<text text-anchor="start" x="58.5" y="-63.1" font-family="Roboto" font-size="8.00" fill="#000000"> </text>
<text text-anchor="start" x="61.5" y="-63.1" font-family="Roboto" font-style="italic" font-size="8.00" fill="#000000">AbstractParameter</text>
<text text-anchor="start" x="128.5" y="-63.1" font-family="Roboto" font-size="8.00" fill="#000000"> </text>
</a>
</g>
</a>
</g>
</g>
<!-- c6427864 -->
<g id="node6" class="node">
<title>c6427864</title>
<g id="a_node6"><a xlink:href="ListParameter.html" xlink:title="&lt;TABLE&gt;">
<g id="a_node6_2"><a xlink:href="ListParameter.html" xlink:title="de.lmu.ifi.dbs.elki.utilities.optionhandling.parameters.ListParameter" target="_parent">
<polygon fill="#fffacd" stroke="transparent" points="207,-56 207,-73 271,-73 271,-56 207,-56"/>
<polygon fill="none" stroke="#000000" points="207,-55.5 207,-72.5 271,-72.5 271,-55.5 207,-55.5"/>
<text text-anchor="start" x="211" y="-63.1" font-family="Roboto" font-size="8.00" fill="#000000"> </text>
<text text-anchor="start" x="214" y="-63.1" font-family="Roboto" font-style="italic" font-size="8.00" fill="#000000">ListParameter</text>
<text text-anchor="start" x="264" y="-63.1" font-family="Roboto" font-size="8.00" fill="#000000"> </text>
</a>
</g>
</a>
</g>
</g>
<!-- c6427846&#45;&gt;c6427864 -->
<g id="edge5" class="edge">
<title>c6427846&#45;&gt;c6427864</title>
<path fill="none" stroke="#000000" d="M145.2699,-64.5C165.7637,-64.5 188.7939,-64.5 206.8971,-64.5"/>
<polygon fill="none" stroke="#000000" points="145.1359,-61.0001 135.1358,-64.5 145.1358,-68.0001 145.1359,-61.0001"/>
</g>
<!-- c6427849 -->
<g id="node3" class="node">
<title>c6427849</title>
<g id="a_node3"><a xlink:href="DoubleListParameter.html" xlink:title="&lt;TABLE&gt;">
<g id="a_node3_3"><a xlink:href="DoubleListParameter.html" xlink:title="de.lmu.ifi.dbs.elki.utilities.optionhandling.parameters.DoubleListParameter" target="_parent">
<polygon fill="none" stroke="#000000" points="299,-83.5 299,-100.5 387,-100.5 387,-83.5 299,-83.5"/>
<text text-anchor="start" x="303" y="-91.1" font-family="Roboto" font-size="8.00" fill="#000000"> </text>
<text text-anchor="start" x="306" y="-91.1" font-family="Roboto" font-size="8.00" fill="#000000">DoubleListParameter</text>
<text text-anchor="start" x="380" y="-91.1" font-family="Roboto" font-size="8.00" fill="#000000"> </text>
</a>
</g>
</a>
</g>
</g>
<!-- c6427855 -->
<g id="node4" class="node">
<title>c6427855</title>
<g id="a_node4"><a xlink:href="FileListParameter.html" xlink:title="&lt;TABLE&gt;">
<g id="a_node4_4"><a xlink:href="FileListParameter.html" xlink:title="de.lmu.ifi.dbs.elki.utilities.optionhandling.parameters.FileListParameter" target="_parent">
<polygon fill="none" stroke="#000000" points="305,-55.5 305,-72.5 381,-72.5 381,-55.5 305,-55.5"/>
<text text-anchor="start" x="309" y="-63.1" font-family="Roboto" font-size="8.00" fill="#000000"> </text>
<text text-anchor="start" x="312" y="-63.1" font-family="Roboto" font-size="8.00" fill="#000000">FileListParameter</text>
<text text-anchor="start" x="374" y="-63.1" font-family="Roboto" font-size="8.00" fill="#000000"> </text>
</a>
</g>
</a>
</g>
</g>
<!-- c6427861 -->
<g id="node5" class="node">
<title>c6427861</title>
<g id="a_node5"><a xlink:href="DoubleArrayListParameter.html" xlink:title="&lt;TABLE&gt;">
<g id="a_node5_5"><a xlink:href="DoubleArrayListParameter.html" xlink:title="de.lmu.ifi.dbs.elki.utilities.optionhandling.parameters.DoubleArrayListParameter" target="_parent">
<polygon fill="none" stroke="#000000" points="289,-27.5 289,-44.5 397,-44.5 397,-27.5 289,-27.5"/>
<text text-anchor="start" x="293" y="-35.1" font-family="Roboto" font-size="8.00" fill="#000000"> </text>
<text text-anchor="start" x="296" y="-35.1" font-family="Roboto" font-size="8.00" fill="#000000">DoubleArrayListParameter</text>
<text text-anchor="start" x="390" y="-35.1" font-family="Roboto" font-size="8.00" fill="#000000"> </text>
</a>
</g>
</a>
</g>
</g>
<!-- c6427864&#45;&gt;c6427844 -->
<g id="edge1" class="edge">
<title>c6427864&#45;&gt;c6427844</title>
<path fill="none" stroke="#000000" d="M254.2426,-80.4305C263.527,-89.2844 276.0639,-99.8282 289,-106.5 294.5089,-109.3412 300.6383,-111.6368 306.7337,-113.482"/>
<polygon fill="none" stroke="#000000" points="256.5526,-77.7917 246.9926,-73.2247 251.618,-82.7566 256.5526,-77.7917"/>
</g>
<!-- c6427864&#45;&gt;c6427849 -->
<g id="edge2" class="edge">
<title>c6427864&#45;&gt;c6427849</title>
<path fill="none" stroke="#000000" d="M278.7845,-75.7147C282.2372,-76.6652 285.679,-77.6047 289,-78.5 295.6393,-80.29 302.7495,-82.1639 309.5587,-83.9376"/>
<polygon fill="none" stroke="#000000" points="279.6874,-72.333 269.1157,-73.034 277.8171,-79.0786 279.6874,-72.333"/>
</g>
<!-- c6427864&#45;&gt;c6427855 -->
<g id="edge3" class="edge">
<title>c6427864&#45;&gt;c6427855</title>
<path fill="none" stroke="#000000" d="M281.0652,-64.5C288.865,-64.5 296.9746,-64.5 304.6562,-64.5"/>
<polygon fill="none" stroke="#000000" points="281.0521,-61.0001 271.052,-64.5 281.052,-68.0001 281.0521,-61.0001"/>
</g>
<!-- c6427864&#45;&gt;c6427861 -->
<g id="edge4" class="edge">
<title>c6427864&#45;&gt;c6427861</title>
<path fill="none" stroke="#000000" d="M278.7845,-53.2853C282.2372,-52.3348 285.679,-51.3953 289,-50.5 295.6393,-48.71 302.7495,-46.8361 309.5587,-45.0624"/>
<polygon fill="none" stroke="#000000" points="277.8171,-49.9214 269.1157,-55.966 279.6874,-56.667 277.8171,-49.9214"/>
</g>
<!-- c6427865 -->
<g id="node7" class="node">
<title>c6427865</title>
<g id="a_node7"><a xlink:href="ClassListParameter.html" xlink:title="&lt;TABLE&gt;">
<g id="a_node7_6"><a xlink:href="ClassListParameter.html" xlink:title="de.lmu.ifi.dbs.elki.utilities.optionhandling.parameters.ClassListParameter" target="_parent">
<polygon fill="none" stroke="#000000" points="302,.5 302,-16.5 385,-16.5 385,.5 302,.5"/>
<text text-anchor="start" x="306" y="-7.1" font-family="Roboto" font-size="8.00" fill="#000000"> </text>
<text text-anchor="start" x="309" y="-7.1" font-family="Roboto" font-size="8.00" fill="#000000">ClassListParameter</text>
<text text-anchor="start" x="378" y="-7.1" font-family="Roboto" font-size="8.00" fill="#000000"> </text>
</a>
</g>
</a>
</g>
</g>
<!-- c6427864&#45;&gt;c6427865 -->
<g id="edge6" class="edge">
<title>c6427864&#45;&gt;c6427865</title>
<path fill="none" stroke="#000000" d="M254.2426,-48.5695C263.527,-39.7156 276.0639,-29.1718 289,-22.5 293.0456,-20.4135 297.4258,-18.6213 301.8815,-17.0855"/>
<polygon fill="none" stroke="#000000" points="251.618,-46.2434 246.9926,-55.7753 256.5526,-51.2083 251.618,-46.2434"/>
</g>
<!-- c6427873 -->
<g id="node8" class="node">
<title>c6427873</title>
<g id="a_node8"><a xlink:href="../constraints/ListSizeConstraint.html" xlink:title="&lt;TABLE&gt;">
<g id="a_node8_7"><a xlink:href="../constraints/ListSizeConstraint.html" xlink:title="de.lmu.ifi.dbs.elki.utilities.optionhandling.constraints.ListSizeConstraint" target="_parent">
<polygon fill="none" stroke="#000000" points=".5,-16.5 .5,-44.5 189.5,-44.5 189.5,-16.5 .5,-16.5"/>
<text text-anchor="start" x="60" y="-35.1" font-family="Roboto" font-size="8.00" fill="#000000"> </text>
<text text-anchor="start" x="63" y="-35.1" font-family="Roboto" font-size="8.00" fill="#000000">ListSizeConstraint</text>
<text text-anchor="start" x="127" y="-35.1" font-family="Roboto" font-size="8.00" fill="#000000"> </text>
<text text-anchor="start" x="4.5" y="-24.1" font-family="Roboto" font-size="8.00" fill="#000000"> </text>
<text text-anchor="start" x="7.5" y="-24.1" font-family="Roboto" font-size="7.00" fill="#000000">de.lmu.ifi.dbs.elki.utilities.optionhandling.constraints</text>
<text text-anchor="start" x="182.5" y="-24.1" font-family="Roboto" font-size="8.00" fill="#000000"> </text>
</a>
</g>
</a>
</g>
</g>
<!-- c6427873&#45;&gt;c6427864 -->
<g id="edge7" class="edge">
<title>c6427873&#45;&gt;c6427864</title>
<path fill="none" stroke="#000000" d="M163.2645,-44.5115C171.9472,-46.4399 180.6942,-48.4605 189,-50.5 195.7409,-52.1552 202.9501,-54.0813 209.7362,-55.9655"/>
</g>
</g>
</svg>
