<?xml version="1.0" encoding="UTF-8" standalone="no"?>
<!DOCTYPE svg PUBLIC "-//W3C//DTD SVG 1.1//EN"
 "http://www.w3.org/Graphics/SVG/1.1/DTD/svg11.dtd">
<!-- Generated by graphviz version 2.40.1 (20161225.0304)
 -->
<!-- Title: G Pages: 1 -->
<svg width="173pt" height="25pt"
 viewBox="0.00 0.00 173.00 25.00" xmlns="http://www.w3.org/2000/svg" xmlns:xlink="http://www.w3.org/1999/xlink">
<g id="graph0" class="graph" transform="scale(1 1) rotate(0) translate(4 21)">
<title>G</title>
<polygon fill="#ffffff" stroke="transparent" points="-4,4 -4,-21 169,-21 169,4 -4,4"/>
<!-- c6642071 -->
<g id="node1" class="node">
<title>c6642071</title>
<g id="a_node1"><a xlink:href="LongParameter.html" xlink:title="&lt;TABLE&gt;">
<g id="a_node1_0"><a xlink:href="LongParameter.html" xlink:title="de.lmu.ifi.dbs.elki.utilities.optionhandling.parameters.LongParameter" target="_parent">
<polygon fill="#fffacd" stroke="transparent" points="97,0 97,-17 165,-17 165,0 97,0"/>
<polygon fill="none" stroke="#000000" points="97,.5 97,-16.5 165,-16.5 165,.5 97,.5"/>
<text text-anchor="start" x="101" y="-7.1" font-family="Roboto" font-size="8.00" fill="#000000"> </text>
<text text-anchor="start" x="104" y="-7.1" font-family="Roboto" font-size="8.00" fill="#000000">LongParameter</text>
<text text-anchor="start" x="158" y="-7.1" font-family="Roboto" font-size="8.00" fill="#000000"> </text>
</a>
</g>
</a>
</g>
</g>
<!-- c6642072 -->
<g id="node2" class="node">
<title>c6642072</title>
<g id="a_node2"><a xlink:href="NumberParameter.html" xlink:title="&lt;TABLE&gt;">
<g id="a_node2_1"><a xlink:href="NumberParameter.html" xlink:title="de.lmu.ifi.dbs.elki.utilities.optionhandling.parameters.NumberParameter" target="_parent">
<polygon fill="none" stroke="#000000" points=".5,.5 .5,-16.5 79.5,-16.5 79.5,.5 .5,.5"/>
<text text-anchor="start" x="4.5" y="-7.1" font-family="Roboto" font-size="8.00" fill="#000000"> </text>
<text text-anchor="start" x="7.5" y="-7.1" font-family="Roboto" font-style="italic" font-size="8.00" fill="#000000">NumberParameter</text>
<text text-anchor="start" x="72.5" y="-7.1" font-family="Roboto" font-size="8.00" fill="#000000"> </text>
</a>
</g>
</a>
</g>
</g>
<!-- c6642072&#45;&gt;c6642071 -->
<g id="edge1" class="edge">
<title>c6642072&#45;&gt;c6642071</title>
<path fill="none" stroke="#000000" d="M89.1048,-8.5C91.6955,-8.5 94.2696,-8.5 96.7936,-8.5"/>
<polygon fill="none" stroke="#000000" points="89.1011,-5.0001 79.1011,-8.5 89.101,-12.0001 89.1011,-5.0001"/>
</g>
</g>
</svg>
