<?xml version="1.0" encoding="UTF-8" standalone="no"?><svg xmlns="http://www.w3.org/2000/svg" xmlns:xlink="http://www.w3.org/1999/xlink" contentStyleType="text/css" height="603px" preserveAspectRatio="none" style="width:405px;height:603px;background:#FFFFFF;" version="1.1" viewBox="0 0 405 603" width="405px" zoomAndPan="magnify"><defs/><g><!--MD5=[aceea5ee3b14a469089a5485a3becf4b]
cluster elki.gui.icons--><g id="cluster_elki.gui.icons"><path d="M8.5,6 L112.5,6 A3.75,3.75 0 0 1 115,8.5 L122,28.2969 L395.5,28.2969 A2.5,2.5 0 0 1 398,30.7969 L398,575.5 A2.5,2.5 0 0 1 395.5,578 L8.5,578 A2.5,2.5 0 0 1 6,575.5 L6,8.5 A2.5,2.5 0 0 1 8.5,6 " fill="none" style="stroke:#000000;stroke-width:1.5;"/><line style="stroke:#000000;stroke-width:1.5;" x1="6" x2="122" y1="28.2969" y2="28.2969"/><text fill="#000000" font-family="sans-serif" font-size="14" font-weight="bold" lengthAdjust="spacing" textLength="103" x="10" y="20.9951">elki.gui.icons</text></g><!--MD5=[f0bd14966981f3449c788a320400a3ef]
class elki.gui.icons.StockIcon--><a href="StockIcon.html" target="_top" title="StockIcon.html" xlink:actuate="onRequest" xlink:href="StockIcon.html" xlink:show="new" xlink:title="StockIcon.html" xlink:type="simple"><g id="elem_elki.gui.icons.StockIcon"><rect codeLine="4" fill="#F1F1F1" height="520.6094" id="elki.gui.icons.StockIcon" rx="2.5" ry="2.5" style="stroke:#181818;stroke-width:0.5;" width="359" x="22.5" y="41"/><ellipse cx="163.75" cy="57" fill="#ADD1B2" rx="11" ry="11" style="stroke:#181818;stroke-width:1.0;"/><path d="M166.7188,62.6406 Q166.1406,62.9375 165.5,63.0781 Q164.8594,63.2344 164.1563,63.2344 Q161.6563,63.2344 160.3281,61.5938 Q159.0156,59.9375 159.0156,56.8125 Q159.0156,53.6875 160.3281,52.0313 Q161.6563,50.375 164.1563,50.375 Q164.8594,50.375 165.5,50.5313 Q166.1563,50.6875 166.7188,50.9844 L166.7188,53.7031 Q166.0938,53.125 165.5,52.8594 Q164.9063,52.5781 164.2813,52.5781 Q162.9375,52.5781 162.25,53.6563 Q161.5625,54.7188 161.5625,56.8125 Q161.5625,58.9063 162.25,59.9844 Q162.9375,61.0469 164.2813,61.0469 Q164.9063,61.0469 165.5,60.7813 Q166.0938,60.5 166.7188,59.9219 L166.7188,62.6406 Z " fill="#000000"/><text fill="#000000" font-family="sans-serif" font-size="14" lengthAdjust="spacing" textLength="68" x="184.25" y="61.8467">StockIcon</text><line style="stroke:#181818;stroke-width:0.5;" x1="23.5" x2="380.5" y1="73" y2="73"/><ellipse cx="33.5" cy="86.6484" fill="none" rx="3" ry="3" style="stroke:#038048;stroke-width:1.0;"/><text fill="#000000" font-family="sans-serif" font-size="14" lengthAdjust="spacing" text-decoration="underline" textLength="158" x="42.5" y="89.9951">DIALOG_ERROR: String</text><ellipse cx="33.5" cy="102.9453" fill="none" rx="3" ry="3" style="stroke:#038048;stroke-width:1.0;"/><text fill="#000000" font-family="sans-serif" font-size="14" lengthAdjust="spacing" text-decoration="underline" textLength="204" x="42.5" y="106.292">DIALOG_INFORMATION: String</text><ellipse cx="33.5" cy="119.2422" fill="none" rx="3" ry="3" style="stroke:#038048;stroke-width:1.0;"/><text fill="#000000" font-family="sans-serif" font-size="14" lengthAdjust="spacing" text-decoration="underline" textLength="174" x="42.5" y="122.5889">DIALOG_WARNING: String</text><ellipse cx="33.5" cy="135.5391" fill="none" rx="3" ry="3" style="stroke:#038048;stroke-width:1.0;"/><text fill="#000000" font-family="sans-serif" font-size="14" lengthAdjust="spacing" text-decoration="underline" textLength="177" x="42.5" y="138.8857">DOCUMENT_OPEN: String</text><ellipse cx="33.5" cy="151.8359" fill="none" rx="3" ry="3" style="stroke:#038048;stroke-width:1.0;"/><text fill="#000000" font-family="sans-serif" font-size="14" lengthAdjust="spacing" text-decoration="underline" textLength="226" x="42.5" y="155.1826">DOCUMENT_PROPERTIES: String</text><ellipse cx="33.5" cy="168.1328" fill="none" rx="3" ry="3" style="stroke:#038048;stroke-width:1.0;"/><text fill="#000000" font-family="sans-serif" font-size="14" lengthAdjust="spacing" text-decoration="underline" textLength="174" x="42.5" y="171.4795">DOCUMENT_SAVE: String</text><ellipse cx="33.5" cy="184.4297" fill="none" rx="3" ry="3" style="stroke:#038048;stroke-width:1.0;"/><text fill="#000000" font-family="sans-serif" font-size="14" lengthAdjust="spacing" text-decoration="underline" textLength="133" x="42.5" y="187.7764">EDIT_CLEAR: String</text><ellipse cx="33.5" cy="200.7266" fill="none" rx="3" ry="3" style="stroke:#038048;stroke-width:1.0;"/><text fill="#000000" font-family="sans-serif" font-size="14" lengthAdjust="spacing" text-decoration="underline" textLength="129" x="42.5" y="204.0732">EDIT_REDO: String</text><ellipse cx="33.5" cy="217.0234" fill="none" rx="3" ry="3" style="stroke:#038048;stroke-width:1.0;"/><text fill="#000000" font-family="sans-serif" font-size="14" lengthAdjust="spacing" text-decoration="underline" textLength="130" x="42.5" y="220.3701">EDIT_UNDO: String</text><ellipse cx="33.5" cy="233.3203" fill="none" rx="3" ry="3" style="stroke:#038048;stroke-width:1.0;"/><text fill="#000000" font-family="sans-serif" font-size="14" lengthAdjust="spacing" text-decoration="underline" textLength="120" x="42.5" y="236.667">EDIT_FIND: String</text><ellipse cx="33.5" cy="249.6172" fill="none" rx="3" ry="3" style="stroke:#038048;stroke-width:1.0;"/><text fill="#000000" font-family="sans-serif" font-size="14" lengthAdjust="spacing" text-decoration="underline" textLength="197" x="42.5" y="252.9639">EMBLEM_IMPORTANT: String</text><ellipse cx="33.5" cy="265.9141" fill="none" rx="3" ry="3" style="stroke:#038048;stroke-width:1.0;"/><text fill="#000000" font-family="sans-serif" font-size="14" lengthAdjust="spacing" text-decoration="underline" textLength="140" x="42.5" y="269.2607">GO_BOTTOM: String</text><ellipse cx="33.5" cy="282.2109" fill="none" rx="3" ry="3" style="stroke:#038048;stroke-width:1.0;"/><text fill="#000000" font-family="sans-serif" font-size="14" lengthAdjust="spacing" text-decoration="underline" textLength="123" x="42.5" y="285.5576">GO_DOWN: String</text><ellipse cx="33.5" cy="298.5078" fill="none" rx="3" ry="3" style="stroke:#038048;stroke-width:1.0;"/><text fill="#000000" font-family="sans-serif" font-size="14" lengthAdjust="spacing" text-decoration="underline" textLength="117" x="42.5" y="301.8545">GO_FIRST: String</text><ellipse cx="33.5" cy="314.8047" fill="none" rx="3" ry="3" style="stroke:#038048;stroke-width:1.0;"/><text fill="#000000" font-family="sans-serif" font-size="14" lengthAdjust="spacing" text-decoration="underline" textLength="120" x="42.5" y="318.1514">GO_HOME: String</text><ellipse cx="33.5" cy="331.1016" fill="none" rx="3" ry="3" style="stroke:#038048;stroke-width:1.0;"/><text fill="#000000" font-family="sans-serif" font-size="14" lengthAdjust="spacing" text-decoration="underline" textLength="112" x="42.5" y="334.4482">GO_JUMP: String</text><ellipse cx="33.5" cy="347.3984" fill="none" rx="3" ry="3" style="stroke:#038048;stroke-width:1.0;"/><text fill="#000000" font-family="sans-serif" font-size="14" lengthAdjust="spacing" text-decoration="underline" textLength="112" x="42.5" y="350.7451">GO_LAST: String</text><ellipse cx="33.5" cy="363.6953" fill="none" rx="3" ry="3" style="stroke:#038048;stroke-width:1.0;"/><text fill="#000000" font-family="sans-serif" font-size="14" lengthAdjust="spacing" text-decoration="underline" textLength="117" x="42.5" y="367.042">GO_NEXT: String</text><ellipse cx="33.5" cy="379.9922" fill="none" rx="3" ry="3" style="stroke:#038048;stroke-width:1.0;"/><text fill="#000000" font-family="sans-serif" font-size="14" lengthAdjust="spacing" text-decoration="underline" textLength="148" x="42.5" y="383.3389">GO_PREVIOUS: String</text><ellipse cx="33.5" cy="396.2891" fill="none" rx="3" ry="3" style="stroke:#038048;stroke-width:1.0;"/><text fill="#000000" font-family="sans-serif" font-size="14" lengthAdjust="spacing" text-decoration="underline" textLength="107" x="42.5" y="399.6357">GO_TOP: String</text><ellipse cx="33.5" cy="412.5859" fill="none" rx="3" ry="3" style="stroke:#038048;stroke-width:1.0;"/><text fill="#000000" font-family="sans-serif" font-size="14" lengthAdjust="spacing" text-decoration="underline" textLength="97" x="42.5" y="415.9326">GO_UP: String</text><ellipse cx="33.5" cy="428.8828" fill="none" rx="3" ry="3" style="stroke:#038048;stroke-width:1.0;"/><text fill="#000000" font-family="sans-serif" font-size="14" lengthAdjust="spacing" text-decoration="underline" textLength="163" x="42.5" y="432.2295">HELP_BROWSER: String</text><ellipse cx="33.5" cy="445.1797" fill="none" rx="3" ry="3" style="stroke:#038048;stroke-width:1.0;"/><text fill="#000000" font-family="sans-serif" font-size="14" lengthAdjust="spacing" text-decoration="underline" textLength="115" x="42.5" y="448.5264">LIST_ADD: String</text><ellipse cx="33.5" cy="461.4766" fill="none" rx="3" ry="3" style="stroke:#038048;stroke-width:1.0;"/><text fill="#000000" font-family="sans-serif" font-size="14" lengthAdjust="spacing" text-decoration="underline" textLength="144" x="42.5" y="464.8232">LIST_REMOVE: String</text><ellipse cx="33.5" cy="477.7734" fill="none" rx="3" ry="3" style="stroke:#038048;stroke-width:1.0;"/><text fill="#000000" font-family="sans-serif" font-size="14" lengthAdjust="spacing" text-decoration="underline" textLength="115" x="42.5" y="481.1201">PACKAGE: String</text><ellipse cx="33.5" cy="494.0703" fill="none" rx="3" ry="3" style="stroke:#038048;stroke-width:1.0;"/><text fill="#000000" font-family="sans-serif" font-size="14" lengthAdjust="spacing" text-decoration="underline" textLength="161" x="42.5" y="497.417">PROCESS_STOP: String</text><ellipse cx="33.5" cy="510.3672" fill="none" rx="3" ry="3" style="stroke:#038048;stroke-width:1.0;"/><text fill="#000000" font-family="sans-serif" font-size="14" lengthAdjust="spacing" text-decoration="underline" textLength="170" x="42.5" y="513.7139">SYSTEM_SEARCH: String</text><rect fill="none" height="6" style="stroke:#C82930;stroke-width:1.0;" width="6" x="30.5" y="523.6641"/><text fill="#000000" font-family="sans-serif" font-size="14" lengthAdjust="spacing" text-decoration="underline" textLength="333" x="42.5" y="530.0107">iconcache: Map&lt;String, SoftReference&lt;Icon&gt;&gt;</text><line style="stroke:#181818;stroke-width:0.5;" x1="23.5" x2="380.5" y1="537.3125" y2="537.3125"/><ellipse cx="33.5" cy="550.9609" fill="#84BE84" rx="3" ry="3" style="stroke:#038048;stroke-width:1.0;"/><text fill="#000000" font-family="sans-serif" font-size="14" lengthAdjust="spacing" text-decoration="underline" textLength="179" x="42.5" y="554.3076">getStockIcon(String): Icon</text></g></a><rect fill="none" height="11.6406" style="stroke:none;stroke-width:1.0;" width="186" x="102.5" y="584"/><text fill="#888888" font-family="sans-serif" font-size="10" lengthAdjust="spacing" textLength="186" x="102.5" y="593.2822">UMLDoclet 2.0.19, PlantUML 1.2022.8</text><!--MD5=[9e10d2a8024538a4f2665311de19e326]
@startuml
    remove .*\.(Instance|Par|Parameterizer|Factory)$
    namespace elki.gui.icons {

        class StockIcon [[StockIcon.html]] {
            {static} +DIALOG_ERROR: String
            {static} +DIALOG_INFORMATION: String
            {static} +DIALOG_WARNING: String
            {static} +DOCUMENT_OPEN: String
            {static} +DOCUMENT_PROPERTIES: String
            {static} +DOCUMENT_SAVE: String
            {static} +EDIT_CLEAR: String
            {static} +EDIT_REDO: String
            {static} +EDIT_UNDO: String
            {static} +EDIT_FIND: String
            {static} +EMBLEM_IMPORTANT: String
            {static} +GO_BOTTOM: String
            {static} +GO_DOWN: String
            {static} +GO_FIRST: String
            {static} +GO_HOME: String
            {static} +GO_JUMP: String
            {static} +GO_LAST: String
            {static} +GO_NEXT: String
            {static} +GO_PREVIOUS: String
            {static} +GO_TOP: String
            {static} +GO_UP: String
            {static} +HELP_BROWSER: String
            {static} +LIST_ADD: String
            {static} +LIST_REMOVE: String
            {static} +PACKAGE: String
            {static} +PROCESS_STOP: String
            {static} +SYSTEM_SEARCH: String
            {static} -iconcache: Map<String, SoftReference<Icon>>
            {static} +getStockIcon(String): Icon
        }

    }

    center footer UMLDoclet 2.0.19, PlantUML 1.2022.8
@enduml

PlantUML version 1.2022.8(Sun Sep 25 11:00:33 CEST 2022)
(APACHE source distribution)
Java Runtime: OpenJDK Runtime Environment
JVM: OpenJDK 64-Bit Server VM
Default Encoding: UTF-8
Language: de
Country: DE
--></g></svg>