<?xml version="1.0" encoding="UTF-8" standalone="no"?><svg xmlns="http://www.w3.org/2000/svg" xmlns:xlink="http://www.w3.org/1999/xlink" contentStyleType="text/css" height="285px" preserveAspectRatio="none" style="width:375px;height:285px;background:#FFFFFF;" version="1.1" viewBox="0 0 375 285" width="375px" zoomAndPan="magnify"><defs/><g><!--MD5=[14c79400103731ab3d08cd193888a796]
class elki.index.tree.metrical.covertree.CoverTree.Node--><a href="CoverTree.Node.html" target="_top" title="CoverTree.Node.html" xlink:actuate="onRequest" xlink:href="CoverTree.Node.html" xlink:show="new" xlink:title="CoverTree.Node.html" xlink:type="simple"><g id="elem_elki.index.tree.metrical.covertree.CoverTree.Node"><rect codeLine="6" fill="#F1F1F1" height="151.7188" id="elki.index.tree.metrical.covertree.CoverTree.Node" rx="2.5" ry="2.5" style="stroke:#181818;stroke-width:0.5;" width="359" x="9" y="108"/><ellipse cx="104.75" cy="126.9688" fill="#ADD1B2" rx="11" ry="11" style="stroke:#181818;stroke-width:1.0;"/><path d="M107.7188,132.6094 Q107.1406,132.9063 106.5,133.0469 Q105.8594,133.2031 105.1563,133.2031 Q102.6563,133.2031 101.3281,131.5625 Q100.0156,129.9063 100.0156,126.7813 Q100.0156,123.6563 101.3281,122 Q102.6563,120.3438 105.1563,120.3438 Q105.8594,120.3438 106.5,120.5 Q107.1563,120.6563 107.7188,120.9531 L107.7188,123.6719 Q107.0938,123.0938 106.5,122.8281 Q105.9063,122.5469 105.2813,122.5469 Q103.9375,122.5469 103.25,123.625 Q102.5625,124.6875 102.5625,126.7813 Q102.5625,128.875 103.25,129.9531 Q103.9375,131.0156 105.2813,131.0156 Q105.9063,131.0156 106.5,130.75 Q107.0938,130.4688 107.7188,129.8906 L107.7188,132.6094 Z " fill="#000000"/><text fill="#000000" font-family="sans-serif" font-size="14" lengthAdjust="spacing" textLength="113" x="148.25" y="125.9951">CoverTree.Node</text><text fill="#000000" font-family="sans-serif" font-size="10" lengthAdjust="spacing" textLength="159" x="125.25" y="138.5791">elki.index.tree.metrical.covertree</text><line style="stroke:#181818;stroke-width:0.5;" x1="10" x2="367" y1="145.9375" y2="145.9375"/><polygon fill="none" points="20,155.5859,16,161.5859,24,161.5859" style="stroke:#1963A0;stroke-width:1.0;"/><text fill="#000000" font-family="sans-serif" font-size="14" lengthAdjust="spacing" textLength="258" x="29" y="162.9326">singletons: ModifiableDoubleDBIDList</text><polygon fill="none" points="20,171.8828,16,177.8828,24,177.8828" style="stroke:#1963A0;stroke-width:1.0;"/><text fill="#000000" font-family="sans-serif" font-size="14" lengthAdjust="spacing" textLength="112" x="29" y="179.2295">maxDist: double</text><polygon fill="none" points="20,188.1797,16,194.1797,24,194.1797" style="stroke:#1963A0;stroke-width:1.0;"/><text fill="#000000" font-family="sans-serif" font-size="14" lengthAdjust="spacing" textLength="129" x="29" y="195.5264">parentDist: double</text><polygon fill="none" points="20,204.4766,16,210.4766,24,210.4766" style="stroke:#1963A0;stroke-width:1.0;"/><text fill="#000000" font-family="sans-serif" font-size="14" lengthAdjust="spacing" textLength="148" x="29" y="211.8232">children: List&lt;Node&gt;</text><line style="stroke:#181818;stroke-width:0.5;" x1="10" x2="367" y1="219.125" y2="219.125"/><ellipse cx="20" cy="232.7734" fill="#84BE84" rx="3" ry="3" style="stroke:#038048;stroke-width:1.0;"/><text fill="#000000" font-family="sans-serif" font-size="14" lengthAdjust="spacing" textLength="217" x="29" y="236.1201">Node(DBIDRef, double, double)</text><ellipse cx="20" cy="249.0703" fill="#84BE84" rx="3" ry="3" style="stroke:#038048;stroke-width:1.0;"/><text fill="#000000" font-family="sans-serif" font-size="14" lengthAdjust="spacing" textLength="333" x="29" y="252.417">Node(DBIDRef, double, double, DoubleDBIDList)</text></g></a><!--MD5=[1b5e9d704b8ade4310bd33d2101cf94a]
class elki.index.tree.metrical.covertree.CoverTree--><a href="CoverTree.html" target="_top" title="CoverTree.html" xlink:actuate="onRequest" xlink:href="CoverTree.html" xlink:show="new" xlink:title="CoverTree.html" xlink:type="simple"><g id="elem_elki.index.tree.metrical.covertree.CoverTree"><rect codeLine="15" fill="#F1F1F1" height="37.9375" id="elki.index.tree.metrical.covertree.CoverTree" rx="2.5" ry="2.5" style="stroke:#181818;stroke-width:0.5;" width="203" x="87" y="10"/><ellipse cx="102" cy="28.9688" fill="#ADD1B2" rx="11" ry="11" style="stroke:#181818;stroke-width:1.0;"/><path d="M104.9688,34.6094 Q104.3906,34.9063 103.75,35.0469 Q103.1094,35.2031 102.4063,35.2031 Q99.9063,35.2031 98.5781,33.5625 Q97.2656,31.9063 97.2656,28.7813 Q97.2656,25.6563 98.5781,24 Q99.9063,22.3438 102.4063,22.3438 Q103.1094,22.3438 103.75,22.5 Q104.4063,22.6563 104.9688,22.9531 L104.9688,25.6719 Q104.3438,25.0938 103.75,24.8281 Q103.1563,24.5469 102.5313,24.5469 Q101.1875,24.5469 100.5,25.625 Q99.8125,26.6875 99.8125,28.7813 Q99.8125,30.875 100.5,31.9531 Q101.1875,33.0156 102.5313,33.0156 Q103.1563,33.0156 103.75,32.75 Q104.3438,32.4688 104.9688,31.8906 L104.9688,34.6094 Z " fill="#000000"/><text fill="#000000" font-family="sans-serif" font-size="14" lengthAdjust="spacing" textLength="72" x="159.5" y="27.9951">CoverTree</text><text fill="#000000" font-family="sans-serif" font-size="10" lengthAdjust="spacing" textLength="159" x="116" y="40.5791">elki.index.tree.metrical.covertree</text><rect fill="#FFFFFF" height="15.9688" style="stroke:#181818;stroke-width:1.0;stroke-dasharray:2.0,2.0;" width="10" x="283" y="7"/><text fill="#000000" font-family="sans-serif" font-size="12" font-style="italic" lengthAdjust="spacing" textLength="8" x="284" y="19.1387">O</text></g></a><!--MD5=[c656a4c7424936dd25233c73e3d50557]
reverse link elki.index.tree.metrical.covertree.CoverTree to elki.index.tree.metrical.covertree.CoverTree.Node--><g id="link_elki.index.tree.metrical.covertree.CoverTree_elki.index.tree.metrical.covertree.CoverTree.Node"><path codeLine="17" d="M188.5,63.31 C188.5,76.51 188.5,92.26 188.5,107.93 " fill="none" id="elki.index.tree.metrical.covertree.CoverTree-backto-elki.index.tree.metrical.covertree.CoverTree.Node" style="stroke:#181818;stroke-width:1.0;"/><ellipse cx="188.5" cy="56.15" fill="#FFFFFF" rx="8" ry="8" style="stroke:#181818;stroke-width:1.0;"/><line style="stroke:#181818;stroke-width:1.0;" x1="188.5" x2="188.5" y1="64.15" y2="48.15"/><line style="stroke:#181818;stroke-width:1.0;" x1="180.5" x2="196.5" y1="56.15" y2="56.15"/></g><rect fill="none" height="11.6406" style="stroke:none;stroke-width:1.0;" width="186" x="87.5" y="265.7188"/><text fill="#888888" font-family="sans-serif" font-size="10" lengthAdjust="spacing" textLength="186" x="87.5" y="275.001">UMLDoclet 2.0.19, PlantUML 1.2022.8</text><!--MD5=[4b163fe2f88f25a53aa620e799d20eb5]
@startuml
    remove .*\.(Instance|Par|Parameterizer|Factory)$
    set namespaceSeparator none
    hide empty fields
    hide empty methods

    class "<size:14>CoverTree.Node\n<size:10>elki.index.tree.metrical.covertree" as elki.index.tree.metrical.covertree.CoverTree.Node [[CoverTree.Node.html]] {
        ~singletons: ModifiableDoubleDBIDList
        ~maxDist: double
        ~parentDist: double
        ~children: List<Node>
        +Node(DBIDRef, double, double)
        +Node(DBIDRef, double, double, DoubleDBIDList)
    }

    class "<size:14>CoverTree\n<size:10>elki.index.tree.metrical.covertree" as elki.index.tree.metrical.covertree.CoverTree<O> [[CoverTree.html]]

    elki.index.tree.metrical.covertree.CoverTree +- - elki.index.tree.metrical.covertree.CoverTree.Node

    center footer UMLDoclet 2.0.19, PlantUML 1.2022.8
@enduml

PlantUML version 1.2022.8(Sun Sep 25 11:00:33 CEST 2022)
(APACHE source distribution)
Java Runtime: OpenJDK Runtime Environment
JVM: OpenJDK 64-Bit Server VM
Default Encoding: UTF-8
Language: de
Country: DE
--></g></svg>