<?xml version="1.0" encoding="UTF-8" standalone="no"?><svg xmlns="http://www.w3.org/2000/svg" xmlns:xlink="http://www.w3.org/1999/xlink" contentStyleType="text/css" height="260px" preserveAspectRatio="none" style="width:1145px;height:260px;background:#FFFFFF;" version="1.1" viewBox="0 0 1145 260" width="1145px" zoomAndPan="magnify"><defs/><g><!--MD5=[542e8520f9017cf2e1c59dac3668b82d]
class elki.index.tree.metrical.covertree.CoverTree.CoverTreeRangeObjectSearcher--><a href="CoverTree.CoverTreeRangeObjectSearcher.html" target="_top" title="CoverTree.CoverTreeRangeObjectSearcher.html" xlink:actuate="onRequest" xlink:href="CoverTree.CoverTreeRangeObjectSearcher.html" xlink:show="new" xlink:title="CoverTree.CoverTreeRangeObjectSearcher.html" xlink:type="simple"><g id="elem_elki.index.tree.metrical.covertree.CoverTree.CoverTreeRangeObjectSearcher"><rect codeLine="6" fill="#F1F1F1" height="102.8281" id="elki.index.tree.metrical.covertree.CoverTree.CoverTreeRangeObjectSearcher" rx="2.5" ry="2.5" style="stroke:#181818;stroke-width:0.5;" width="542" x="344.5" y="132"/><ellipse cx="461.25" cy="150.9688" fill="#ADD1B2" rx="11" ry="11" style="stroke:#181818;stroke-width:1.0;"/><path d="M464.2188,156.6094 Q463.6406,156.9063 463,157.0469 Q462.3594,157.2031 461.6563,157.2031 Q459.1563,157.2031 457.8281,155.5625 Q456.5156,153.9063 456.5156,150.7813 Q456.5156,147.6563 457.8281,146 Q459.1563,144.3438 461.6563,144.3438 Q462.3594,144.3438 463,144.5 Q463.6563,144.6563 464.2188,144.9531 L464.2188,147.6719 Q463.5938,147.0938 463,146.8281 Q462.4063,146.5469 461.7813,146.5469 Q460.4375,146.5469 459.75,147.625 Q459.0625,148.6875 459.0625,150.7813 Q459.0625,152.875 459.75,153.9531 Q460.4375,155.0156 461.7813,155.0156 Q462.4063,155.0156 463,154.75 Q463.5938,154.4688 464.2188,153.8906 L464.2188,156.6094 Z " fill="#000000"/><text fill="#000000" font-family="sans-serif" font-size="14" lengthAdjust="spacing" textLength="300" x="481.75" y="149.9951">CoverTree.CoverTreeRangeObjectSearcher</text><text fill="#000000" font-family="sans-serif" font-size="10" lengthAdjust="spacing" textLength="159" x="552.25" y="162.5791">elki.index.tree.metrical.covertree</text><line style="stroke:#181818;stroke-width:0.5;" x1="345.5" x2="885.5" y1="169.9375" y2="169.9375"/><rect fill="none" height="6" style="stroke:#C82930;stroke-width:1.0;" width="6" x="352.5" y="180.5859"/><text fill="#000000" font-family="sans-serif" font-size="14" lengthAdjust="spacing" textLength="59" x="364.5" y="186.9326">query: O</text><line style="stroke:#181818;stroke-width:0.5;" x1="345.5" x2="885.5" y1="194.2344" y2="194.2344"/><ellipse cx="355.5" cy="207.8828" fill="#84BE84" rx="3" ry="3" style="stroke:#038048;stroke-width:1.0;"/><text fill="#000000" font-family="sans-serif" font-size="14" lengthAdjust="spacing" textLength="516" x="364.5" y="211.2295">getRange(O, double, ModifiableDoubleDBIDList): ModifiableDoubleDBIDList</text><polygon fill="#FFFF44" points="355.5,219.1797,359.5,223.1797,355.5,227.1797,351.5,223.1797" style="stroke:#B38D22;stroke-width:1.0;"/><text fill="#000000" font-family="sans-serif" font-size="14" lengthAdjust="spacing" textLength="225" x="364.5" y="227.5264">queryDistance(DBIDRef): double</text></g></a><!--MD5=[3574405de41cbde306e7ba34e9bc1c51]
class elki.index.tree.metrical.covertree.CoverTree.CoverTreeRangeSearcher--><a href="CoverTree.CoverTreeRangeSearcher.html" target="_top" title="CoverTree.CoverTreeRangeSearcher.html" xlink:actuate="onRequest" xlink:href="CoverTree.CoverTreeRangeSearcher.html" xlink:show="new" xlink:title="CoverTree.CoverTreeRangeSearcher.html" xlink:type="simple"><g id="elem_elki.index.tree.metrical.covertree.CoverTree.CoverTreeRangeSearcher"><rect codeLine="12" fill="#F1F1F1" height="62.2344" id="elki.index.tree.metrical.covertree.CoverTree.CoverTreeRangeSearcher" rx="2.5" ry="2.5" style="stroke:#181818;stroke-width:0.5;" width="291" x="9" y="10"/><ellipse cx="24" cy="28.9688" fill="#A9DCDF" rx="11" ry="11" style="stroke:#181818;stroke-width:1.0;"/><path d="M24.1094,24.3125 L22.9531,29.3906 L25.2813,29.3906 L24.1094,24.3125 Z M22.625,22.0781 L25.6094,22.0781 L28.9688,34.4688 L26.5156,34.4688 L25.75,31.4063 L22.4688,31.4063 L21.7188,34.4688 L19.2813,34.4688 L22.625,22.0781 Z " fill="#000000"/><text fill="#000000" font-family="sans-serif" font-size="14" font-style="italic" lengthAdjust="spacing" textLength="259" x="38" y="27.9951">CoverTree.CoverTreeRangeSearcher</text><text fill="#000000" font-family="sans-serif" font-size="10" font-style="italic" lengthAdjust="spacing" textLength="167" x="84" y="40.5791">elki.index.tree.metrical.covertree</text><line style="stroke:#181818;stroke-width:0.5;" x1="10" x2="299" y1="47.9375" y2="47.9375"/><polygon fill="#FFFF44" points="20,56.5859,24,60.5859,20,64.5859,16,60.5859" style="stroke:#B38D22;stroke-width:1.0;"/><text fill="#000000" font-family="sans-serif" font-size="14" font-style="italic" lengthAdjust="spacing" textLength="230" x="29" y="64.9326">queryDistance(DBIDRef): double</text></g></a><!--MD5=[955d5a67b0ef7a37e4bb5766aebdb7f3]
class elki.database.query.range.RangeSearcher--><a href="../../../../database/query/range/RangeSearcher.html" target="_top" title="../../../../database/query/range/RangeSearcher.html" xlink:actuate="onRequest" xlink:href="../../../../database/query/range/RangeSearcher.html" xlink:show="new" xlink:title="../../../../database/query/range/RangeSearcher.html" xlink:type="simple"><g id="elem_elki.database.query.range.RangeSearcher"><rect codeLine="15" fill="#F1F1F1" height="62.2344" id="elki.database.query.range.RangeSearcher" rx="2.5" ry="2.5" style="stroke:#181818;stroke-width:0.5;" width="560" x="335.5" y="10"/><ellipse cx="541.25" cy="28.9688" fill="#B4A7E5" rx="11" ry="11" style="stroke:#181818;stroke-width:1.0;"/><path d="M537.1719,24.7344 L537.1719,22.5781 L544.5625,22.5781 L544.5625,24.7344 L542.0938,24.7344 L542.0938,32.8125 L544.5625,32.8125 L544.5625,34.9688 L537.1719,34.9688 L537.1719,32.8125 L539.6406,32.8125 L539.6406,24.7344 L537.1719,24.7344 Z " fill="#000000"/><text fill="#000000" font-family="sans-serif" font-size="14" font-style="italic" lengthAdjust="spacing" textLength="109" x="571.25" y="27.9951">RangeSearcher</text><text fill="#000000" font-family="sans-serif" font-size="10" font-style="italic" lengthAdjust="spacing" textLength="128" x="561.75" y="40.5791">elki.database.query.range</text><rect fill="#FFFFFF" height="15.9688" style="stroke:#181818;stroke-width:1.0;stroke-dasharray:2.0,2.0;" width="10" x="888.5" y="7"/><text fill="#000000" font-family="sans-serif" font-size="12" font-style="italic" lengthAdjust="spacing" textLength="8" x="889.5" y="19.1387">O</text><line style="stroke:#181818;stroke-width:0.5;" x1="336.5" x2="894.5" y1="47.9375" y2="47.9375"/><ellipse cx="346.5" cy="61.5859" fill="#84BE84" rx="3" ry="3" style="stroke:#038048;stroke-width:1.0;"/><text fill="#000000" font-family="sans-serif" font-size="14" font-style="italic" lengthAdjust="spacing" textLength="534" x="355.5" y="64.9326">getRange(O, double, ModifiableDoubleDBIDList): ModifiableDoubleDBIDList</text></g></a><!--MD5=[1b5e9d704b8ade4310bd33d2101cf94a]
class elki.index.tree.metrical.covertree.CoverTree--><a href="CoverTree.html" target="_top" title="CoverTree.html" xlink:actuate="onRequest" xlink:href="CoverTree.html" xlink:show="new" xlink:title="CoverTree.html" xlink:type="simple"><g id="elem_elki.index.tree.metrical.covertree.CoverTree"><rect codeLine="18" fill="#F1F1F1" height="37.9375" id="elki.index.tree.metrical.covertree.CoverTree" rx="2.5" ry="2.5" style="stroke:#181818;stroke-width:0.5;" width="203" x="931" y="22"/><ellipse cx="946" cy="40.9688" fill="#ADD1B2" rx="11" ry="11" style="stroke:#181818;stroke-width:1.0;"/><path d="M948.9688,46.6094 Q948.3906,46.9063 947.75,47.0469 Q947.1094,47.2031 946.4063,47.2031 Q943.9063,47.2031 942.5781,45.5625 Q941.2656,43.9063 941.2656,40.7813 Q941.2656,37.6563 942.5781,36 Q943.9063,34.3438 946.4063,34.3438 Q947.1094,34.3438 947.75,34.5 Q948.4063,34.6563 948.9688,34.9531 L948.9688,37.6719 Q948.3438,37.0938 947.75,36.8281 Q947.1563,36.5469 946.5313,36.5469 Q945.1875,36.5469 944.5,37.625 Q943.8125,38.6875 943.8125,40.7813 Q943.8125,42.875 944.5,43.9531 Q945.1875,45.0156 946.5313,45.0156 Q947.1563,45.0156 947.75,44.75 Q948.3438,44.4688 948.9688,43.8906 L948.9688,46.6094 Z " fill="#000000"/><text fill="#000000" font-family="sans-serif" font-size="14" lengthAdjust="spacing" textLength="72" x="1003.5" y="39.9951">CoverTree</text><text fill="#000000" font-family="sans-serif" font-size="10" lengthAdjust="spacing" textLength="159" x="960" y="52.5791">elki.index.tree.metrical.covertree</text><rect fill="#FFFFFF" height="15.9688" style="stroke:#181818;stroke-width:1.0;stroke-dasharray:2.0,2.0;" width="10" x="1127" y="19"/><text fill="#000000" font-family="sans-serif" font-size="12" font-style="italic" lengthAdjust="spacing" textLength="8" x="1128" y="31.1387">O</text></g></a><!--MD5=[d865630753d9b062e0a653c6048e104e]
reverse link elki.index.tree.metrical.covertree.CoverTree.CoverTreeRangeSearcher to elki.index.tree.metrical.covertree.CoverTree.CoverTreeRangeObjectSearcher--><g id="link_elki.index.tree.metrical.covertree.CoverTree.CoverTreeRangeSearcher_elki.index.tree.metrical.covertree.CoverTree.CoverTreeRangeObjectSearcher"><path codeLine="20" d="M272.41,77.94 C326.22,94.33 390.87,114.04 449.47,131.9 " fill="none" id="elki.index.tree.metrical.covertree.CoverTree.CoverTreeRangeSearcher-backto-elki.index.tree.metrical.covertree.CoverTree.CoverTreeRangeObjectSearcher" style="stroke:#181818;stroke-width:1.0;"/><polygon fill="none" points="270.2,84.58,253.11,72.05,274.29,71.19,270.2,84.58" style="stroke:#181818;stroke-width:1.0;"/></g><!--MD5=[4c2482290fb3c343d09d7b4b32608ba8]
reverse link elki.database.query.range.RangeSearcher to elki.index.tree.metrical.covertree.CoverTree.CoverTreeRangeObjectSearcher--><g id="link_elki.database.query.range.RangeSearcher_elki.index.tree.metrical.covertree.CoverTree.CoverTreeRangeObjectSearcher"><path codeLine="21" d="M615.5,92.5 C615.5,105.33 615.5,119.12 615.5,131.96 " fill="none" id="elki.database.query.range.RangeSearcher-backto-elki.index.tree.metrical.covertree.CoverTree.CoverTreeRangeObjectSearcher" style="stroke:#181818;stroke-width:1.0;stroke-dasharray:7.0,7.0;"/><polygon fill="none" points="608.5,92.14,615.5,72.14,622.5,92.14,608.5,92.14" style="stroke:#181818;stroke-width:1.0;"/></g><!--MD5=[2d76bcf34ed5bf75db19dbd6753af160]
reverse link elki.index.tree.metrical.covertree.CoverTree to elki.index.tree.metrical.covertree.CoverTree.CoverTreeRangeObjectSearcher--><g id="link_elki.index.tree.metrical.covertree.CoverTree_elki.index.tree.metrical.covertree.CoverTree.CoverTreeRangeObjectSearcher"><path codeLine="22" d="M964.33,64.97 C910.63,83.06 833.74,108.97 765.82,131.85 " fill="none" id="elki.index.tree.metrical.covertree.CoverTree-backto-elki.index.tree.metrical.covertree.CoverTree.CoverTreeRangeObjectSearcher" style="stroke:#181818;stroke-width:1.0;"/><ellipse cx="971.2582" cy="62.6327" fill="#FFFFFF" rx="8" ry="8" style="stroke:#181818;stroke-width:1.0;"/><line style="stroke:#181818;stroke-width:1.0;" x1="963.6764" x2="978.84" y1="65.1853" y2="60.08"/><line style="stroke:#181818;stroke-width:1.0;" x1="968.7055" x2="973.8109" y1="55.0509" y2="70.2145"/></g><rect fill="none" height="11.6406" style="stroke:none;stroke-width:1.0;" width="186" x="472.5" y="240.8281"/><text fill="#888888" font-family="sans-serif" font-size="10" lengthAdjust="spacing" textLength="186" x="472.5" y="250.1104">UMLDoclet 2.0.19, PlantUML 1.2022.8</text><!--MD5=[12a027ac82b6dc9f6c49cf03604da8fa]
@startuml
    remove .*\.(Instance|Par|Parameterizer|Factory)$
    set namespaceSeparator none
    hide empty fields
    hide empty methods

    class "<size:14>CoverTree.CoverTreeRangeObjectSearcher\n<size:10>elki.index.tree.metrical.covertree" as elki.index.tree.metrical.covertree.CoverTree.CoverTreeRangeObjectSearcher [[CoverTree.CoverTreeRangeObjectSearcher.html]] {
        -query: O
        +getRange(O, double, ModifiableDoubleDBIDList): ModifiableDoubleDBIDList
        #queryDistance(DBIDRef): double
    }

    abstract class "<size:14>CoverTree.CoverTreeRangeSearcher\n<size:10>elki.index.tree.metrical.covertree" as elki.index.tree.metrical.covertree.CoverTree.CoverTreeRangeSearcher [[CoverTree.CoverTreeRangeSearcher.html]] {
        {abstract} #queryDistance(DBIDRef): double
    }
    interface "<size:14>RangeSearcher\n<size:10>elki.database.query.range" as elki.database.query.range.RangeSearcher<O> [[../../../../database/query/range/RangeSearcher.html]] {
        {abstract} +getRange(O, double, ModifiableDoubleDBIDList): ModifiableDoubleDBIDList
    }
    class "<size:14>CoverTree\n<size:10>elki.index.tree.metrical.covertree" as elki.index.tree.metrical.covertree.CoverTree<O> [[CoverTree.html]]

    elki.index.tree.metrical.covertree.CoverTree.CoverTreeRangeSearcher <|- - elki.index.tree.metrical.covertree.CoverTree.CoverTreeRangeObjectSearcher
    elki.database.query.range.RangeSearcher <|.. elki.index.tree.metrical.covertree.CoverTree.CoverTreeRangeObjectSearcher
    elki.index.tree.metrical.covertree.CoverTree +- - elki.index.tree.metrical.covertree.CoverTree.CoverTreeRangeObjectSearcher

    center footer UMLDoclet 2.0.19, PlantUML 1.2022.8
@enduml

PlantUML version 1.2022.8(Sun Sep 25 11:00:33 CEST 2022)
(APACHE source distribution)
Java Runtime: OpenJDK Runtime Environment
JVM: OpenJDK 64-Bit Server VM
Default Encoding: UTF-8
Language: de
Country: DE
--></g></svg>