<?xml version="1.0" encoding="UTF-8" standalone="no"?><svg xmlns="http://www.w3.org/2000/svg" xmlns:xlink="http://www.w3.org/1999/xlink" contentStyleType="text/css" height="536px" preserveAspectRatio="none" style="width:3947px;height:536px;background:#FFFFFF;" version="1.1" viewBox="0 0 3947 536" width="3947px" zoomAndPan="magnify"><defs/><g><!--MD5=[d19fd90a294dc6d303a228b3a8bf4bb7]
class elki.index.tree.metrical.covertree.SimplifiedCoverTree--><a href="SimplifiedCoverTree.html" target="_top" title="SimplifiedCoverTree.html" xlink:actuate="onRequest" xlink:href="SimplifiedCoverTree.html" xlink:show="new" xlink:title="SimplifiedCoverTree.html" xlink:type="simple"><g id="elem_elki.index.tree.metrical.covertree.SimplifiedCoverTree"><rect codeLine="6" fill="#F1F1F1" height="282.0938" id="elki.index.tree.metrical.covertree.SimplifiedCoverTree" rx="2.5" ry="2.5" style="stroke:#181818;stroke-width:0.5;" width="551" x="1600.5" y="132"/><ellipse cx="1786.25" cy="150.9688" fill="#ADD1B2" rx="11" ry="11" style="stroke:#181818;stroke-width:1.0;"/><path d="M1789.2188,156.6094 Q1788.6406,156.9063 1788,157.0469 Q1787.3594,157.2031 1786.6563,157.2031 Q1784.1563,157.2031 1782.8281,155.5625 Q1781.5156,153.9063 1781.5156,150.7813 Q1781.5156,147.6563 1782.8281,146 Q1784.1563,144.3438 1786.6563,144.3438 Q1787.3594,144.3438 1788,144.5 Q1788.6563,144.6563 1789.2188,144.9531 L1789.2188,147.6719 Q1788.5938,147.0938 1788,146.8281 Q1787.4063,146.5469 1786.7813,146.5469 Q1785.4375,146.5469 1784.75,147.625 Q1784.0625,148.6875 1784.0625,150.7813 Q1784.0625,152.875 1784.75,153.9531 Q1785.4375,155.0156 1786.7813,155.0156 Q1787.4063,155.0156 1788,154.75 Q1788.5938,154.4688 1789.2188,153.8906 L1789.2188,156.6094 Z " fill="#000000"/><text fill="#000000" font-family="sans-serif" font-size="14" lengthAdjust="spacing" textLength="137" x="1817.75" y="149.9951">SimplifiedCoverTree</text><text fill="#000000" font-family="sans-serif" font-size="10" lengthAdjust="spacing" textLength="159" x="1806.75" y="162.5791">elki.index.tree.metrical.covertree</text><rect fill="#FFFFFF" height="15.9688" style="stroke:#181818;stroke-width:1.0;stroke-dasharray:2.0,2.0;" width="10" x="2144.5" y="129"/><text fill="#000000" font-family="sans-serif" font-size="12" font-style="italic" lengthAdjust="spacing" textLength="8" x="2145.5" y="141.1387">O</text><line style="stroke:#181818;stroke-width:0.5;" x1="1601.5" x2="2150.5" y1="169.9375" y2="169.9375"/><rect fill="none" height="6" style="stroke:#C82930;stroke-width:1.0;" width="6" x="1608.5" y="180.5859"/><text fill="#000000" font-family="sans-serif" font-size="14" lengthAdjust="spacing" text-decoration="underline" textLength="93" x="1620.5" y="186.9326">LOG: Logging</text><rect fill="none" height="6" style="stroke:#C82930;stroke-width:1.0;" width="6" x="1608.5" y="196.8828"/><text fill="#000000" font-family="sans-serif" font-size="14" lengthAdjust="spacing" textLength="74" x="1620.5" y="203.2295">root: Node</text><line style="stroke:#181818;stroke-width:0.5;" x1="1601.5" x2="2150.5" y1="210.5313" y2="210.5313"/><ellipse cx="1611.5" cy="224.1797" fill="#84BE84" rx="3" ry="3" style="stroke:#038048;stroke-width:1.0;"/><text fill="#000000" font-family="sans-serif" font-size="14" lengthAdjust="spacing" textLength="478" x="1620.5" y="227.5264">SimplifiedCoverTree(Relation&lt;O&gt;, Distance&lt;? super O&gt;, double, int)</text><ellipse cx="1611.5" cy="240.4766" fill="#84BE84" rx="3" ry="3" style="stroke:#038048;stroke-width:1.0;"/><text fill="#000000" font-family="sans-serif" font-size="14" lengthAdjust="spacing" textLength="101" x="1620.5" y="243.8232">initialize(): void</text><ellipse cx="1611.5" cy="256.7734" fill="#84BE84" rx="3" ry="3" style="stroke:#038048;stroke-width:1.0;"/><text fill="#000000" font-family="sans-serif" font-size="14" lengthAdjust="spacing" textLength="152" x="1620.5" y="260.1201">bulkLoad(DBIDs): void</text><polygon fill="#FFFF44" points="1611.5,268.0703,1615.5,272.0703,1611.5,276.0703,1607.5,272.0703" style="stroke:#B38D22;stroke-width:1.0;"/><text fill="#000000" font-family="sans-serif" font-size="14" lengthAdjust="spacing" textLength="421" x="1620.5" y="276.417">bulkConstruct(DBIDRef, int, ModifiableDoubleDBIDList): Node</text><rect fill="#F24D5C" height="6" style="stroke:#C82930;stroke-width:1.0;" width="6" x="1608.5" y="286.3672"/><text fill="#000000" font-family="sans-serif" font-size="14" lengthAdjust="spacing" textLength="258" x="1620.5" y="292.7139">checkCoverTree(Node, int[], int): void</text><ellipse cx="1611.5" cy="305.6641" fill="#84BE84" rx="3" ry="3" style="stroke:#038048;stroke-width:1.0;"/><text fill="#000000" font-family="sans-serif" font-size="14" lengthAdjust="spacing" textLength="481" x="1620.5" y="309.0107">rangeByObject(DistanceQuery&lt;O&gt;, double, int): RangeSearcher&lt;O&gt;</text><ellipse cx="1611.5" cy="321.9609" fill="#84BE84" rx="3" ry="3" style="stroke:#038048;stroke-width:1.0;"/><text fill="#000000" font-family="sans-serif" font-size="14" lengthAdjust="spacing" textLength="518" x="1620.5" y="325.3076">rangeByDBID(DistanceQuery&lt;O&gt;, double, int): RangeSearcher&lt;DBIDRef&gt;</text><ellipse cx="1611.5" cy="338.2578" fill="#84BE84" rx="3" ry="3" style="stroke:#038048;stroke-width:1.0;"/><text fill="#000000" font-family="sans-serif" font-size="14" lengthAdjust="spacing" textLength="422" x="1620.5" y="341.6045">kNNByObject(DistanceQuery&lt;O&gt;, int, int): KNNSearcher&lt;O&gt;</text><ellipse cx="1611.5" cy="354.5547" fill="#84BE84" rx="3" ry="3" style="stroke:#038048;stroke-width:1.0;"/><text fill="#000000" font-family="sans-serif" font-size="14" lengthAdjust="spacing" textLength="459" x="1620.5" y="357.9014">kNNByDBID(DistanceQuery&lt;O&gt;, int, int): KNNSearcher&lt;DBIDRef&gt;</text><ellipse cx="1611.5" cy="370.8516" fill="#84BE84" rx="3" ry="3" style="stroke:#038048;stroke-width:1.0;"/><text fill="#000000" font-family="sans-serif" font-size="14" lengthAdjust="spacing" textLength="488" x="1620.5" y="374.1982">priorityByObject(DistanceQuery&lt;O&gt;, double, int): PrioritySearcher&lt;O&gt;</text><ellipse cx="1611.5" cy="387.1484" fill="#84BE84" rx="3" ry="3" style="stroke:#038048;stroke-width:1.0;"/><text fill="#000000" font-family="sans-serif" font-size="14" lengthAdjust="spacing" textLength="525" x="1620.5" y="390.4951">priorityByDBID(DistanceQuery&lt;O&gt;, double, int): PrioritySearcher&lt;DBIDRef&gt;</text><polygon fill="#FFFF44" points="1611.5,398.4453,1615.5,402.4453,1611.5,406.4453,1607.5,402.4453" style="stroke:#B38D22;stroke-width:1.0;"/><text fill="#000000" font-family="sans-serif" font-size="14" lengthAdjust="spacing" textLength="145" x="1620.5" y="406.792">getLogger(): Logging</text></g></a><!--MD5=[c7be7b0bfbef652ad619f2980855b411]
class elki.index.tree.metrical.covertree.AbstractCoverTree--><a href="AbstractCoverTree.html" target="_top" title="AbstractCoverTree.html" xlink:actuate="onRequest" xlink:href="AbstractCoverTree.html" xlink:show="new" xlink:title="AbstractCoverTree.html" xlink:type="simple"><g id="elem_elki.index.tree.metrical.covertree.AbstractCoverTree"><rect codeLine="23" fill="#F1F1F1" height="62.2344" id="elki.index.tree.metrical.covertree.AbstractCoverTree" rx="2.5" ry="2.5" style="stroke:#181818;stroke-width:0.5;" width="211" x="1568.5" y="10"/><ellipse cx="1583.5" cy="28.9688" fill="#A9DCDF" rx="11" ry="11" style="stroke:#181818;stroke-width:1.0;"/><path d="M1583.6094,24.3125 L1582.4531,29.3906 L1584.7813,29.3906 L1583.6094,24.3125 Z M1582.125,22.0781 L1585.1094,22.0781 L1588.4688,34.4688 L1586.0156,34.4688 L1585.25,31.4063 L1581.9688,31.4063 L1581.2188,34.4688 L1578.7813,34.4688 L1582.125,22.0781 Z " fill="#000000"/><text fill="#000000" font-family="sans-serif" font-size="14" font-style="italic" lengthAdjust="spacing" textLength="131" x="1615.5" y="27.9951">AbstractCoverTree</text><text fill="#000000" font-family="sans-serif" font-size="10" font-style="italic" lengthAdjust="spacing" textLength="167" x="1597.5" y="40.5791">elki.index.tree.metrical.covertree</text><rect fill="#FFFFFF" height="15.9688" style="stroke:#181818;stroke-width:1.0;stroke-dasharray:2.0,2.0;" width="10" x="1772.5" y="7"/><text fill="#000000" font-family="sans-serif" font-size="12" font-style="italic" lengthAdjust="spacing" textLength="8" x="1773.5" y="19.1387">O</text><line style="stroke:#181818;stroke-width:0.5;" x1="1569.5" x2="1778.5" y1="47.9375" y2="47.9375"/><polygon fill="#FFFF44" points="1579.5,56.5859,1583.5,60.5859,1579.5,64.5859,1575.5,60.5859" style="stroke:#B38D22;stroke-width:1.0;"/><text fill="#000000" font-family="sans-serif" font-size="14" font-style="italic" lengthAdjust="spacing" textLength="148" x="1588.5" y="64.9326">getLogger(): Logging</text></g></a><!--MD5=[b16459038d58214302b236cfb75028c3]
class elki.index.DistancePriorityIndex--><a href="../../../DistancePriorityIndex.html" target="_top" title="../../../DistancePriorityIndex.html" xlink:actuate="onRequest" xlink:href="../../../DistancePriorityIndex.html" xlink:show="new" xlink:title="../../../DistancePriorityIndex.html" xlink:type="simple"><g id="elem_elki.index.DistancePriorityIndex"><rect codeLine="26" fill="#F1F1F1" height="62.2344" id="elki.index.DistancePriorityIndex" rx="2.5" ry="2.5" style="stroke:#181818;stroke-width:0.5;" width="526" x="1815" y="10"/><ellipse cx="1993.25" cy="28.9688" fill="#B4A7E5" rx="11" ry="11" style="stroke:#181818;stroke-width:1.0;"/><path d="M1989.1719,24.7344 L1989.1719,22.5781 L1996.5625,22.5781 L1996.5625,24.7344 L1994.0938,24.7344 L1994.0938,32.8125 L1996.5625,32.8125 L1996.5625,34.9688 L1989.1719,34.9688 L1989.1719,32.8125 L1991.6406,32.8125 L1991.6406,24.7344 L1989.1719,24.7344 Z " fill="#000000"/><text fill="#000000" font-family="sans-serif" font-size="14" font-style="italic" lengthAdjust="spacing" textLength="149" x="2013.75" y="27.9951">DistancePriorityIndex</text><text fill="#000000" font-family="sans-serif" font-size="10" font-style="italic" lengthAdjust="spacing" textLength="48" x="2064.25" y="40.5791">elki.index</text><rect fill="#FFFFFF" height="15.9688" style="stroke:#181818;stroke-width:1.0;stroke-dasharray:2.0,2.0;" width="10" x="2334" y="7"/><text fill="#000000" font-family="sans-serif" font-size="12" font-style="italic" lengthAdjust="spacing" textLength="8" x="2335" y="19.1387">O</text><line style="stroke:#181818;stroke-width:0.5;" x1="1816" x2="2340" y1="47.9375" y2="47.9375"/><ellipse cx="1826" cy="61.5859" fill="#84BE84" rx="3" ry="3" style="stroke:#038048;stroke-width:1.0;"/><text fill="#000000" font-family="sans-serif" font-size="14" font-style="italic" lengthAdjust="spacing" textLength="500" x="1835" y="64.9326">priorityByObject(DistanceQuery&lt;O&gt;, double, int): PrioritySearcher&lt;O&gt;</text></g></a><!--MD5=[7223217dfaeb569b377547bb2ee64f04]
class elki.index.tree.metrical.covertree.SimplifiedCoverTree.Node--><a href="SimplifiedCoverTree.Node.html" target="_top" title="SimplifiedCoverTree.Node.html" xlink:actuate="onRequest" xlink:href="SimplifiedCoverTree.Node.html" xlink:show="new" xlink:title="SimplifiedCoverTree.Node.html" xlink:type="simple"><g id="elem_elki.index.tree.metrical.covertree.SimplifiedCoverTree.Node"><rect codeLine="29" fill="#F1F1F1" height="37.9375" id="elki.index.tree.metrical.covertree.SimplifiedCoverTree.Node" rx="2.5" ry="2.5" style="stroke:#181818;stroke-width:0.5;" width="210" x="7" y="474"/><ellipse cx="22" cy="492.9688" fill="#ADD1B2" rx="11" ry="11" style="stroke:#181818;stroke-width:1.0;"/><path d="M24.9688,498.6094 Q24.3906,498.9063 23.75,499.0469 Q23.1094,499.2031 22.4063,499.2031 Q19.9063,499.2031 18.5781,497.5625 Q17.2656,495.9063 17.2656,492.7813 Q17.2656,489.6563 18.5781,488 Q19.9063,486.3438 22.4063,486.3438 Q23.1094,486.3438 23.75,486.5 Q24.4063,486.6563 24.9688,486.9531 L24.9688,489.6719 Q24.3438,489.0938 23.75,488.8281 Q23.1563,488.5469 22.5313,488.5469 Q21.1875,488.5469 20.5,489.625 Q19.8125,490.6875 19.8125,492.7813 Q19.8125,494.875 20.5,495.9531 Q21.1875,497.0156 22.5313,497.0156 Q23.1563,497.0156 23.75,496.75 Q24.3438,496.4688 24.9688,495.8906 L24.9688,498.6094 Z " fill="#000000"/><text fill="#000000" font-family="sans-serif" font-size="14" lengthAdjust="spacing" textLength="178" x="36" y="491.9951">SimplifiedCoverTree.Node</text><text fill="#000000" font-family="sans-serif" font-size="10" lengthAdjust="spacing" textLength="159" x="45.5" y="504.5791">elki.index.tree.metrical.covertree</text></g></a><!--MD5=[dc0de5ed155476c88816b8a7756645e0]
class elki.index.tree.metrical.covertree.SimplifiedCoverTree.CoverTreeRangeSearcher--><a href="SimplifiedCoverTree.CoverTreeRangeSearcher.html" target="_top" title="SimplifiedCoverTree.CoverTreeRangeSearcher.html" xlink:actuate="onRequest" xlink:href="SimplifiedCoverTree.CoverTreeRangeSearcher.html" xlink:show="new" xlink:title="SimplifiedCoverTree.CoverTreeRangeSearcher.html" xlink:type="simple"><g id="elem_elki.index.tree.metrical.covertree.SimplifiedCoverTree.CoverTreeRangeSearcher"><rect codeLine="30" fill="#F1F1F1" height="37.9375" id="elki.index.tree.metrical.covertree.SimplifiedCoverTree.CoverTreeRangeSearcher" rx="2.5" ry="2.5" style="stroke:#181818;stroke-width:0.5;" width="362" x="252" y="474"/><ellipse cx="267" cy="492.9688" fill="#A9DCDF" rx="11" ry="11" style="stroke:#181818;stroke-width:1.0;"/><path d="M267.1094,488.3125 L265.9531,493.3906 L268.2813,493.3906 L267.1094,488.3125 Z M265.625,486.0781 L268.6094,486.0781 L271.9688,498.4688 L269.5156,498.4688 L268.75,495.4063 L265.4688,495.4063 L264.7188,498.4688 L262.2813,498.4688 L265.625,486.0781 Z " fill="#000000"/><text fill="#000000" font-family="sans-serif" font-size="14" font-style="italic" lengthAdjust="spacing" textLength="330" x="281" y="491.9951">SimplifiedCoverTree.CoverTreeRangeSearcher</text><text fill="#000000" font-family="sans-serif" font-size="10" font-style="italic" lengthAdjust="spacing" textLength="167" x="362.5" y="504.5791">elki.index.tree.metrical.covertree</text></g></a><!--MD5=[14fba70d197e5281b7b31654343816b2]
class elki.index.tree.metrical.covertree.SimplifiedCoverTree.CoverTreeRangeObjectSearcher--><a href="SimplifiedCoverTree.CoverTreeRangeObjectSearcher.html" target="_top" title="SimplifiedCoverTree.CoverTreeRangeObjectSearcher.html" xlink:actuate="onRequest" xlink:href="SimplifiedCoverTree.CoverTreeRangeObjectSearcher.html" xlink:show="new" xlink:title="SimplifiedCoverTree.CoverTreeRangeObjectSearcher.html" xlink:type="simple"><g id="elem_elki.index.tree.metrical.covertree.SimplifiedCoverTree.CoverTreeRangeObjectSearcher"><rect codeLine="31" fill="#F1F1F1" height="37.9375" id="elki.index.tree.metrical.covertree.SimplifiedCoverTree.CoverTreeRangeObjectSearcher" rx="2.5" ry="2.5" style="stroke:#181818;stroke-width:0.5;" width="397" x="649.5" y="474"/><ellipse cx="664.5" cy="492.9688" fill="#ADD1B2" rx="11" ry="11" style="stroke:#181818;stroke-width:1.0;"/><path d="M667.4688,498.6094 Q666.8906,498.9063 666.25,499.0469 Q665.6094,499.2031 664.9063,499.2031 Q662.4063,499.2031 661.0781,497.5625 Q659.7656,495.9063 659.7656,492.7813 Q659.7656,489.6563 661.0781,488 Q662.4063,486.3438 664.9063,486.3438 Q665.6094,486.3438 666.25,486.5 Q666.9063,486.6563 667.4688,486.9531 L667.4688,489.6719 Q666.8438,489.0938 666.25,488.8281 Q665.6563,488.5469 665.0313,488.5469 Q663.6875,488.5469 663,489.625 Q662.3125,490.6875 662.3125,492.7813 Q662.3125,494.875 663,495.9531 Q663.6875,497.0156 665.0313,497.0156 Q665.6563,497.0156 666.25,496.75 Q666.8438,496.4688 667.4688,495.8906 L667.4688,498.6094 Z " fill="#000000"/><text fill="#000000" font-family="sans-serif" font-size="14" lengthAdjust="spacing" textLength="365" x="678.5" y="491.9951">SimplifiedCoverTree.CoverTreeRangeObjectSearcher</text><text fill="#000000" font-family="sans-serif" font-size="10" lengthAdjust="spacing" textLength="159" x="781.5" y="504.5791">elki.index.tree.metrical.covertree</text></g></a><!--MD5=[1f479536362332476ff385738c0dcdef]
class elki.index.tree.metrical.covertree.SimplifiedCoverTree.CoverTreeRangeDBIDSearcher--><a href="SimplifiedCoverTree.CoverTreeRangeDBIDSearcher.html" target="_top" title="SimplifiedCoverTree.CoverTreeRangeDBIDSearcher.html" xlink:actuate="onRequest" xlink:href="SimplifiedCoverTree.CoverTreeRangeDBIDSearcher.html" xlink:show="new" xlink:title="SimplifiedCoverTree.CoverTreeRangeDBIDSearcher.html" xlink:type="simple"><g id="elem_elki.index.tree.metrical.covertree.SimplifiedCoverTree.CoverTreeRangeDBIDSearcher"><rect codeLine="32" fill="#F1F1F1" height="37.9375" id="elki.index.tree.metrical.covertree.SimplifiedCoverTree.CoverTreeRangeDBIDSearcher" rx="2.5" ry="2.5" style="stroke:#181818;stroke-width:0.5;" width="387" x="1081.5" y="474"/><ellipse cx="1096.5" cy="492.9688" fill="#ADD1B2" rx="11" ry="11" style="stroke:#181818;stroke-width:1.0;"/><path d="M1099.4688,498.6094 Q1098.8906,498.9063 1098.25,499.0469 Q1097.6094,499.2031 1096.9063,499.2031 Q1094.4063,499.2031 1093.0781,497.5625 Q1091.7656,495.9063 1091.7656,492.7813 Q1091.7656,489.6563 1093.0781,488 Q1094.4063,486.3438 1096.9063,486.3438 Q1097.6094,486.3438 1098.25,486.5 Q1098.9063,486.6563 1099.4688,486.9531 L1099.4688,489.6719 Q1098.8438,489.0938 1098.25,488.8281 Q1097.6563,488.5469 1097.0313,488.5469 Q1095.6875,488.5469 1095,489.625 Q1094.3125,490.6875 1094.3125,492.7813 Q1094.3125,494.875 1095,495.9531 Q1095.6875,497.0156 1097.0313,497.0156 Q1097.6563,497.0156 1098.25,496.75 Q1098.8438,496.4688 1099.4688,495.8906 L1099.4688,498.6094 Z " fill="#000000"/><text fill="#000000" font-family="sans-serif" font-size="14" lengthAdjust="spacing" textLength="355" x="1110.5" y="491.9951">SimplifiedCoverTree.CoverTreeRangeDBIDSearcher</text><text fill="#000000" font-family="sans-serif" font-size="10" lengthAdjust="spacing" textLength="159" x="1208.5" y="504.5791">elki.index.tree.metrical.covertree</text></g></a><!--MD5=[d77e32dbcab7a4f71c68e334c724736c]
class elki.index.tree.metrical.covertree.SimplifiedCoverTree.CoverTreeKNNSearcher--><a href="SimplifiedCoverTree.CoverTreeKNNSearcher.html" target="_top" title="SimplifiedCoverTree.CoverTreeKNNSearcher.html" xlink:actuate="onRequest" xlink:href="SimplifiedCoverTree.CoverTreeKNNSearcher.html" xlink:show="new" xlink:title="SimplifiedCoverTree.CoverTreeKNNSearcher.html" xlink:type="simple"><g id="elem_elki.index.tree.metrical.covertree.SimplifiedCoverTree.CoverTreeKNNSearcher"><rect codeLine="33" fill="#F1F1F1" height="37.9375" id="elki.index.tree.metrical.covertree.SimplifiedCoverTree.CoverTreeKNNSearcher" rx="2.5" ry="2.5" style="stroke:#181818;stroke-width:0.5;" width="347" x="1503.5" y="474"/><ellipse cx="1518.5" cy="492.9688" fill="#A9DCDF" rx="11" ry="11" style="stroke:#181818;stroke-width:1.0;"/><path d="M1518.6094,488.3125 L1517.4531,493.3906 L1519.7813,493.3906 L1518.6094,488.3125 Z M1517.125,486.0781 L1520.1094,486.0781 L1523.4688,498.4688 L1521.0156,498.4688 L1520.25,495.4063 L1516.9688,495.4063 L1516.2188,498.4688 L1513.7813,498.4688 L1517.125,486.0781 Z " fill="#000000"/><text fill="#000000" font-family="sans-serif" font-size="14" font-style="italic" lengthAdjust="spacing" textLength="315" x="1532.5" y="491.9951">SimplifiedCoverTree.CoverTreeKNNSearcher</text><text fill="#000000" font-family="sans-serif" font-size="10" font-style="italic" lengthAdjust="spacing" textLength="167" x="1606.5" y="504.5791">elki.index.tree.metrical.covertree</text></g></a><!--MD5=[34e35ecc8476c33c5a83a789e23937f0]
class elki.index.tree.metrical.covertree.SimplifiedCoverTree.CoverTreeKNNObjectSearcher--><a href="SimplifiedCoverTree.CoverTreeKNNObjectSearcher.html" target="_top" title="SimplifiedCoverTree.CoverTreeKNNObjectSearcher.html" xlink:actuate="onRequest" xlink:href="SimplifiedCoverTree.CoverTreeKNNObjectSearcher.html" xlink:show="new" xlink:title="SimplifiedCoverTree.CoverTreeKNNObjectSearcher.html" xlink:type="simple"><g id="elem_elki.index.tree.metrical.covertree.SimplifiedCoverTree.CoverTreeKNNObjectSearcher"><rect codeLine="34" fill="#F1F1F1" height="37.9375" id="elki.index.tree.metrical.covertree.SimplifiedCoverTree.CoverTreeKNNObjectSearcher" rx="2.5" ry="2.5" style="stroke:#181818;stroke-width:0.5;" width="381" x="1885.5" y="474"/><ellipse cx="1900.5" cy="492.9688" fill="#ADD1B2" rx="11" ry="11" style="stroke:#181818;stroke-width:1.0;"/><path d="M1903.4688,498.6094 Q1902.8906,498.9063 1902.25,499.0469 Q1901.6094,499.2031 1900.9063,499.2031 Q1898.4063,499.2031 1897.0781,497.5625 Q1895.7656,495.9063 1895.7656,492.7813 Q1895.7656,489.6563 1897.0781,488 Q1898.4063,486.3438 1900.9063,486.3438 Q1901.6094,486.3438 1902.25,486.5 Q1902.9063,486.6563 1903.4688,486.9531 L1903.4688,489.6719 Q1902.8438,489.0938 1902.25,488.8281 Q1901.6563,488.5469 1901.0313,488.5469 Q1899.6875,488.5469 1899,489.625 Q1898.3125,490.6875 1898.3125,492.7813 Q1898.3125,494.875 1899,495.9531 Q1899.6875,497.0156 1901.0313,497.0156 Q1901.6563,497.0156 1902.25,496.75 Q1902.8438,496.4688 1903.4688,495.8906 L1903.4688,498.6094 Z " fill="#000000"/><text fill="#000000" font-family="sans-serif" font-size="14" lengthAdjust="spacing" textLength="349" x="1914.5" y="491.9951">SimplifiedCoverTree.CoverTreeKNNObjectSearcher</text><text fill="#000000" font-family="sans-serif" font-size="10" lengthAdjust="spacing" textLength="159" x="2009.5" y="504.5791">elki.index.tree.metrical.covertree</text></g></a><!--MD5=[3670f9c4755cda2217ea19f7c9282e7a]
class elki.index.tree.metrical.covertree.SimplifiedCoverTree.CoverTreeKNNDBIDSearcher--><a href="SimplifiedCoverTree.CoverTreeKNNDBIDSearcher.html" target="_top" title="SimplifiedCoverTree.CoverTreeKNNDBIDSearcher.html" xlink:actuate="onRequest" xlink:href="SimplifiedCoverTree.CoverTreeKNNDBIDSearcher.html" xlink:show="new" xlink:title="SimplifiedCoverTree.CoverTreeKNNDBIDSearcher.html" xlink:type="simple"><g id="elem_elki.index.tree.metrical.covertree.SimplifiedCoverTree.CoverTreeKNNDBIDSearcher"><rect codeLine="35" fill="#F1F1F1" height="37.9375" id="elki.index.tree.metrical.covertree.SimplifiedCoverTree.CoverTreeKNNDBIDSearcher" rx="2.5" ry="2.5" style="stroke:#181818;stroke-width:0.5;" width="371" x="2301.5" y="474"/><ellipse cx="2316.5" cy="492.9688" fill="#ADD1B2" rx="11" ry="11" style="stroke:#181818;stroke-width:1.0;"/><path d="M2319.4688,498.6094 Q2318.8906,498.9063 2318.25,499.0469 Q2317.6094,499.2031 2316.9063,499.2031 Q2314.4063,499.2031 2313.0781,497.5625 Q2311.7656,495.9063 2311.7656,492.7813 Q2311.7656,489.6563 2313.0781,488 Q2314.4063,486.3438 2316.9063,486.3438 Q2317.6094,486.3438 2318.25,486.5 Q2318.9063,486.6563 2319.4688,486.9531 L2319.4688,489.6719 Q2318.8438,489.0938 2318.25,488.8281 Q2317.6563,488.5469 2317.0313,488.5469 Q2315.6875,488.5469 2315,489.625 Q2314.3125,490.6875 2314.3125,492.7813 Q2314.3125,494.875 2315,495.9531 Q2315.6875,497.0156 2317.0313,497.0156 Q2317.6563,497.0156 2318.25,496.75 Q2318.8438,496.4688 2319.4688,495.8906 L2319.4688,498.6094 Z " fill="#000000"/><text fill="#000000" font-family="sans-serif" font-size="14" lengthAdjust="spacing" textLength="339" x="2330.5" y="491.9951">SimplifiedCoverTree.CoverTreeKNNDBIDSearcher</text><text fill="#000000" font-family="sans-serif" font-size="10" lengthAdjust="spacing" textLength="159" x="2420.5" y="504.5791">elki.index.tree.metrical.covertree</text></g></a><!--MD5=[e526bc1874687b15af8e3bd5b4f3df5c]
class elki.index.tree.metrical.covertree.SimplifiedCoverTree.CoverTreePrioritySearcher--><a href="SimplifiedCoverTree.CoverTreePrioritySearcher.html" target="_top" title="SimplifiedCoverTree.CoverTreePrioritySearcher.html" xlink:actuate="onRequest" xlink:href="SimplifiedCoverTree.CoverTreePrioritySearcher.html" xlink:show="new" xlink:title="SimplifiedCoverTree.CoverTreePrioritySearcher.html" xlink:type="simple"><g id="elem_elki.index.tree.metrical.covertree.SimplifiedCoverTree.CoverTreePrioritySearcher"><rect codeLine="36" fill="#F1F1F1" height="37.9375" id="elki.index.tree.metrical.covertree.SimplifiedCoverTree.CoverTreePrioritySearcher" rx="2.5" ry="2.5" style="stroke:#181818;stroke-width:0.5;" width="376" x="2708" y="474"/><ellipse cx="2723" cy="492.9688" fill="#A9DCDF" rx="11" ry="11" style="stroke:#181818;stroke-width:1.0;"/><path d="M2723.1094,488.3125 L2721.9531,493.3906 L2724.2813,493.3906 L2723.1094,488.3125 Z M2721.625,486.0781 L2724.6094,486.0781 L2727.9688,498.4688 L2725.5156,498.4688 L2724.75,495.4063 L2721.4688,495.4063 L2720.7188,498.4688 L2718.2813,498.4688 L2721.625,486.0781 Z " fill="#000000"/><text fill="#000000" font-family="sans-serif" font-size="14" font-style="italic" lengthAdjust="spacing" textLength="332" x="2737" y="491.9951">SimplifiedCoverTree.CoverTreePrioritySearcher</text><text fill="#000000" font-family="sans-serif" font-size="10" font-style="italic" lengthAdjust="spacing" textLength="167" x="2819.5" y="504.5791">elki.index.tree.metrical.covertree</text><rect fill="#FFFFFF" height="15.9688" style="stroke:#181818;stroke-width:1.0;stroke-dasharray:2.0,2.0;" width="10" x="3077" y="471"/><text fill="#000000" font-family="sans-serif" font-size="12" font-style="italic" lengthAdjust="spacing" textLength="8" x="3078" y="483.1387">Q</text></g></a><!--MD5=[5b002774e281b7fb9aa2b04b2abc3bb6]
class elki.index.tree.metrical.covertree.SimplifiedCoverTree.CoverTreePriorityObjectSearcher--><a href="SimplifiedCoverTree.CoverTreePriorityObjectSearcher.html" target="_top" title="SimplifiedCoverTree.CoverTreePriorityObjectSearcher.html" xlink:actuate="onRequest" xlink:href="SimplifiedCoverTree.CoverTreePriorityObjectSearcher.html" xlink:show="new" xlink:title="SimplifiedCoverTree.CoverTreePriorityObjectSearcher.html" xlink:type="simple"><g id="elem_elki.index.tree.metrical.covertree.SimplifiedCoverTree.CoverTreePriorityObjectSearcher"><rect codeLine="37" fill="#F1F1F1" height="37.9375" id="elki.index.tree.metrical.covertree.SimplifiedCoverTree.CoverTreePriorityObjectSearcher" rx="2.5" ry="2.5" style="stroke:#181818;stroke-width:0.5;" width="398" x="3119" y="474"/><ellipse cx="3134" cy="492.9688" fill="#ADD1B2" rx="11" ry="11" style="stroke:#181818;stroke-width:1.0;"/><path d="M3136.9688,498.6094 Q3136.3906,498.9063 3135.75,499.0469 Q3135.1094,499.2031 3134.4063,499.2031 Q3131.9063,499.2031 3130.5781,497.5625 Q3129.2656,495.9063 3129.2656,492.7813 Q3129.2656,489.6563 3130.5781,488 Q3131.9063,486.3438 3134.4063,486.3438 Q3135.1094,486.3438 3135.75,486.5 Q3136.4063,486.6563 3136.9688,486.9531 L3136.9688,489.6719 Q3136.3438,489.0938 3135.75,488.8281 Q3135.1563,488.5469 3134.5313,488.5469 Q3133.1875,488.5469 3132.5,489.625 Q3131.8125,490.6875 3131.8125,492.7813 Q3131.8125,494.875 3132.5,495.9531 Q3133.1875,497.0156 3134.5313,497.0156 Q3135.1563,497.0156 3135.75,496.75 Q3136.3438,496.4688 3136.9688,495.8906 L3136.9688,498.6094 Z " fill="#000000"/><text fill="#000000" font-family="sans-serif" font-size="14" lengthAdjust="spacing" textLength="366" x="3148" y="491.9951">SimplifiedCoverTree.CoverTreePriorityObjectSearcher</text><text fill="#000000" font-family="sans-serif" font-size="10" lengthAdjust="spacing" textLength="159" x="3251.5" y="504.5791">elki.index.tree.metrical.covertree</text></g></a><!--MD5=[2baf6afec72a4611b844f883b75540bd]
class elki.index.tree.metrical.covertree.SimplifiedCoverTree.CoverTreePriorityDBIDSearcher--><a href="SimplifiedCoverTree.CoverTreePriorityDBIDSearcher.html" target="_top" title="SimplifiedCoverTree.CoverTreePriorityDBIDSearcher.html" xlink:actuate="onRequest" xlink:href="SimplifiedCoverTree.CoverTreePriorityDBIDSearcher.html" xlink:show="new" xlink:title="SimplifiedCoverTree.CoverTreePriorityDBIDSearcher.html" xlink:type="simple"><g id="elem_elki.index.tree.metrical.covertree.SimplifiedCoverTree.CoverTreePriorityDBIDSearcher"><rect codeLine="38" fill="#F1F1F1" height="37.9375" id="elki.index.tree.metrical.covertree.SimplifiedCoverTree.CoverTreePriorityDBIDSearcher" rx="2.5" ry="2.5" style="stroke:#181818;stroke-width:0.5;" width="388" x="3552" y="474"/><ellipse cx="3567" cy="492.9688" fill="#ADD1B2" rx="11" ry="11" style="stroke:#181818;stroke-width:1.0;"/><path d="M3569.9688,498.6094 Q3569.3906,498.9063 3568.75,499.0469 Q3568.1094,499.2031 3567.4063,499.2031 Q3564.9063,499.2031 3563.5781,497.5625 Q3562.2656,495.9063 3562.2656,492.7813 Q3562.2656,489.6563 3563.5781,488 Q3564.9063,486.3438 3567.4063,486.3438 Q3568.1094,486.3438 3568.75,486.5 Q3569.4063,486.6563 3569.9688,486.9531 L3569.9688,489.6719 Q3569.3438,489.0938 3568.75,488.8281 Q3568.1563,488.5469 3567.5313,488.5469 Q3566.1875,488.5469 3565.5,489.625 Q3564.8125,490.6875 3564.8125,492.7813 Q3564.8125,494.875 3565.5,495.9531 Q3566.1875,497.0156 3567.5313,497.0156 Q3568.1563,497.0156 3568.75,496.75 Q3569.3438,496.4688 3569.9688,495.8906 L3569.9688,498.6094 Z " fill="#000000"/><text fill="#000000" font-family="sans-serif" font-size="14" lengthAdjust="spacing" textLength="356" x="3581" y="491.9951">SimplifiedCoverTree.CoverTreePriorityDBIDSearcher</text><text fill="#000000" font-family="sans-serif" font-size="10" lengthAdjust="spacing" textLength="159" x="3679.5" y="504.5791">elki.index.tree.metrical.covertree</text></g></a><!--MD5=[b148e615ec53f2317b9d8b38a44e66e1]
reverse link elki.index.tree.metrical.covertree.AbstractCoverTree to elki.index.tree.metrical.covertree.SimplifiedCoverTree--><g id="link_elki.index.tree.metrical.covertree.AbstractCoverTree_elki.index.tree.metrical.covertree.SimplifiedCoverTree"><path codeLine="41" d="M1713.73,87.23 C1725.43,100.56 1738.89,115.89 1752.96,131.9 " fill="none" id="elki.index.tree.metrical.covertree.AbstractCoverTree-backto-elki.index.tree.metrical.covertree.SimplifiedCoverTree" style="stroke:#181818;stroke-width:1.0;"/><polygon fill="none" points="1708.35,91.71,1700.41,72.07,1718.87,82.48,1708.35,91.71" style="stroke:#181818;stroke-width:1.0;"/></g><!--MD5=[c2e5741cc144e4120a4ed4b262502a28]
reverse link elki.index.DistancePriorityIndex to elki.index.tree.metrical.covertree.SimplifiedCoverTree--><g id="link_elki.index.DistancePriorityIndex_elki.index.tree.metrical.covertree.SimplifiedCoverTree"><path codeLine="42" d="M2038.27,87.23 C2026.57,100.56 2013.11,115.89 1999.04,131.9 " fill="none" id="elki.index.DistancePriorityIndex-backto-elki.index.tree.metrical.covertree.SimplifiedCoverTree" style="stroke:#181818;stroke-width:1.0;stroke-dasharray:7.0,7.0;"/><polygon fill="none" points="2033.13,82.48,2051.59,72.07,2043.65,91.71,2033.13,82.48" style="stroke:#181818;stroke-width:1.0;"/></g><!--MD5=[63881a008de61240e26e6cfef6059e01]
reverse link elki.index.tree.metrical.covertree.SimplifiedCoverTree to elki.index.tree.metrical.covertree.SimplifiedCoverTree.Node--><g id="link_elki.index.tree.metrical.covertree.SimplifiedCoverTree_elki.index.tree.metrical.covertree.SimplifiedCoverTree.Node"><path codeLine="43" d="M1585.47,307.14 C1257.09,345.12 706.66,410.36 234,474 C228.48,474.74 222.83,475.52 217.12,476.32 " fill="none" id="elki.index.tree.metrical.covertree.SimplifiedCoverTree-backto-elki.index.tree.metrical.covertree.SimplifiedCoverTree.Node" style="stroke:#181818;stroke-width:1.0;"/><ellipse cx="1592.5023" cy="306.3235" fill="#FFFFFF" rx="8" ry="8" style="stroke:#181818;stroke-width:1.0;"/><line style="stroke:#181818;stroke-width:1.0;" x1="1584.5547" x2="1600.45" y1="307.2371" y2="305.41"/><line style="stroke:#181818;stroke-width:1.0;" x1="1591.5888" x2="1593.4159" y1="298.3759" y2="314.2712"/></g><!--MD5=[9139d622d03d8c2b06194788f931eb9f]
reverse link elki.index.tree.metrical.covertree.SimplifiedCoverTree to elki.index.tree.metrical.covertree.SimplifiedCoverTree.CoverTreeRangeSearcher--><g id="link_elki.index.tree.metrical.covertree.SimplifiedCoverTree_elki.index.tree.metrical.covertree.SimplifiedCoverTree.CoverTreeRangeSearcher"><path codeLine="44" d="M1585.39,317.9 C1268.7,365.75 777.22,440 552.48,473.95 " fill="none" id="elki.index.tree.metrical.covertree.SimplifiedCoverTree-backto-elki.index.tree.metrical.covertree.SimplifiedCoverTree.CoverTreeRangeSearcher" style="stroke:#181818;stroke-width:1.0;"/><ellipse cx="1592.42" cy="316.8464" fill="#FFFFFF" rx="8" ry="8" style="stroke:#181818;stroke-width:1.0;"/><line style="stroke:#181818;stroke-width:1.0;" x1="1584.5099" x2="1600.33" y1="318.0428" y2="315.65"/><line style="stroke:#181818;stroke-width:1.0;" x1="1591.2236" x2="1593.6164" y1="308.9364" y2="324.7564"/></g><!--MD5=[49b421196cf78164df6b372dd3c0561b]
reverse link elki.index.tree.metrical.covertree.SimplifiedCoverTree to elki.index.tree.metrical.covertree.SimplifiedCoverTree.CoverTreeRangeObjectSearcher--><g id="link_elki.index.tree.metrical.covertree.SimplifiedCoverTree_elki.index.tree.metrical.covertree.SimplifiedCoverTree.CoverTreeRangeObjectSearcher"><path codeLine="45" d="M1585.38,335.63 C1364.21,382.53 1074.55,443.96 933.13,473.95 " fill="none" id="elki.index.tree.metrical.covertree.SimplifiedCoverTree-backto-elki.index.tree.metrical.covertree.SimplifiedCoverTree.CoverTreeRangeObjectSearcher" style="stroke:#181818;stroke-width:1.0;"/><ellipse cx="1592.3544" cy="334.1511" fill="#FFFFFF" rx="8" ry="8" style="stroke:#181818;stroke-width:1.0;"/><line style="stroke:#181818;stroke-width:1.0;" x1="1584.5287" x2="1600.18" y1="335.8123" y2="332.49"/><line style="stroke:#181818;stroke-width:1.0;" x1="1590.6932" x2="1594.0155" y1="326.3255" y2="341.9768"/></g><!--MD5=[6f9aa2f07d1af2006521aec564055038]
reverse link elki.index.tree.metrical.covertree.SimplifiedCoverTree to elki.index.tree.metrical.covertree.SimplifiedCoverTree.CoverTreeRangeDBIDSearcher--><g id="link_elki.index.tree.metrical.covertree.SimplifiedCoverTree_elki.index.tree.metrical.covertree.SimplifiedCoverTree.CoverTreeRangeDBIDSearcher"><path codeLine="46" d="M1585.95,379.21 C1485.35,415.7 1383.19,452.76 1324.63,474 " fill="none" id="elki.index.tree.metrical.covertree.SimplifiedCoverTree-backto-elki.index.tree.metrical.covertree.SimplifiedCoverTree.CoverTreeRangeDBIDSearcher" style="stroke:#181818;stroke-width:1.0;"/><ellipse cx="1592.6119" cy="376.8046" fill="#FFFFFF" rx="8" ry="8" style="stroke:#181818;stroke-width:1.0;"/><line style="stroke:#181818;stroke-width:1.0;" x1="1585.0938" x2="1600.13" y1="379.5391" y2="374.07"/><line style="stroke:#181818;stroke-width:1.0;" x1="1589.8773" x2="1595.3464" y1="369.2864" y2="384.3227"/></g><!--MD5=[52afd8689b08f86740142165d92a2ba3]
reverse link elki.index.tree.metrical.covertree.SimplifiedCoverTree to elki.index.tree.metrical.covertree.SimplifiedCoverTree.CoverTreeKNNSearcher--><g id="link_elki.index.tree.metrical.covertree.SimplifiedCoverTree_elki.index.tree.metrical.covertree.SimplifiedCoverTree.CoverTreeKNNSearcher"><path codeLine="47" d="M1737.8,425.39 C1720.3,444.56 1704.7,461.66 1693.68,473.73 " fill="none" id="elki.index.tree.metrical.covertree.SimplifiedCoverTree-backto-elki.index.tree.metrical.covertree.SimplifiedCoverTree.CoverTreeKNNSearcher" style="stroke:#181818;stroke-width:1.0;"/><ellipse cx="1742.608" cy="420.1299" fill="#FFFFFF" rx="8" ry="8" style="stroke:#181818;stroke-width:1.0;"/><line style="stroke:#181818;stroke-width:1.0;" x1="1737.216" x2="1748" y1="426.0397" y2="414.22"/><line style="stroke:#181818;stroke-width:1.0;" x1="1736.6982" x2="1748.5179" y1="414.7379" y2="425.5218"/></g><!--MD5=[b06f145491559a2f1c8942033edec7d9]
reverse link elki.index.tree.metrical.covertree.SimplifiedCoverTree to elki.index.tree.metrical.covertree.SimplifiedCoverTree.CoverTreeKNNObjectSearcher--><g id="link_elki.index.tree.metrical.covertree.SimplifiedCoverTree_elki.index.tree.metrical.covertree.SimplifiedCoverTree.CoverTreeKNNObjectSearcher"><path codeLine="48" d="M2014.89,425.39 C2032.48,444.56 2048.17,461.66 2059.24,473.73 " fill="none" id="elki.index.tree.metrical.covertree.SimplifiedCoverTree-backto-elki.index.tree.metrical.covertree.SimplifiedCoverTree.CoverTreeKNNObjectSearcher" style="stroke:#181818;stroke-width:1.0;"/><ellipse cx="2010.0479" cy="420.1153" fill="#FFFFFF" rx="8" ry="8" style="stroke:#181818;stroke-width:1.0;"/><line style="stroke:#181818;stroke-width:1.0;" x1="2015.4557" x2="2004.64" y1="426.0107" y2="414.22"/><line style="stroke:#181818;stroke-width:1.0;" x1="2004.1525" x2="2015.9432" y1="425.5232" y2="414.7075"/></g><!--MD5=[d02f20a9950876157d722edb129bb987]
reverse link elki.index.tree.metrical.covertree.SimplifiedCoverTree to elki.index.tree.metrical.covertree.SimplifiedCoverTree.CoverTreeKNNDBIDSearcher--><g id="link_elki.index.tree.metrical.covertree.SimplifiedCoverTree_elki.index.tree.metrical.covertree.SimplifiedCoverTree.CoverTreeKNNDBIDSearcher"><path codeLine="49" d="M2165.85,377.42 C2269.66,414.46 2375.89,452.36 2436.42,473.95 " fill="none" id="elki.index.tree.metrical.covertree.SimplifiedCoverTree-backto-elki.index.tree.metrical.covertree.SimplifiedCoverTree.CoverTreeKNNDBIDSearcher" style="stroke:#181818;stroke-width:1.0;"/><ellipse cx="2159.0945" cy="375.0092" fill="#FFFFFF" rx="8" ry="8" style="stroke:#181818;stroke-width:1.0;"/><line style="stroke:#181818;stroke-width:1.0;" x1="2166.6289" x2="2151.56" y1="377.6985" y2="372.32"/><line style="stroke:#181818;stroke-width:1.0;" x1="2156.4052" x2="2161.7837" y1="382.5437" y2="367.4748"/></g><!--MD5=[b3e685dcec3605196ae72970e8ed178a]
reverse link elki.index.tree.metrical.covertree.SimplifiedCoverTree to elki.index.tree.metrical.covertree.SimplifiedCoverTree.CoverTreePrioritySearcher--><g id="link_elki.index.tree.metrical.covertree.SimplifiedCoverTree_elki.index.tree.metrical.covertree.SimplifiedCoverTree.CoverTreePrioritySearcher"><path codeLine="50" d="M2166.36,336.06 C2385.58,382.91 2671.73,444.07 2811.6,473.96 " fill="none" id="elki.index.tree.metrical.covertree.SimplifiedCoverTree-backto-elki.index.tree.metrical.covertree.SimplifiedCoverTree.CoverTreePrioritySearcher" style="stroke:#181818;stroke-width:1.0;"/><ellipse cx="2159.5125" cy="334.5957" fill="#FFFFFF" rx="8" ry="8" style="stroke:#181818;stroke-width:1.0;"/><line style="stroke:#181818;stroke-width:1.0;" x1="2167.3351" x2="2151.69" y1="336.2714" y2="332.92"/><line style="stroke:#181818;stroke-width:1.0;" x1="2157.8368" x2="2161.1882" y1="342.4182" y2="326.7732"/></g><!--MD5=[fa9bdc07232851855267919ea244ee41]
reverse link elki.index.tree.metrical.covertree.SimplifiedCoverTree to elki.index.tree.metrical.covertree.SimplifiedCoverTree.CoverTreePriorityObjectSearcher--><g id="link_elki.index.tree.metrical.covertree.SimplifiedCoverTree_elki.index.tree.metrical.covertree.SimplifiedCoverTree.CoverTreePriorityObjectSearcher"><path codeLine="51" d="M2166.84,317.97 C2483.36,365.82 2974.23,440.03 3198.68,473.96 " fill="none" id="elki.index.tree.metrical.covertree.SimplifiedCoverTree-backto-elki.index.tree.metrical.covertree.SimplifiedCoverTree.CoverTreePriorityObjectSearcher" style="stroke:#181818;stroke-width:1.0;"/><ellipse cx="2159.81" cy="316.9064" fill="#FFFFFF" rx="8" ry="8" style="stroke:#181818;stroke-width:1.0;"/><line style="stroke:#181818;stroke-width:1.0;" x1="2167.7201" x2="2151.9" y1="318.1028" y2="315.71"/><line style="stroke:#181818;stroke-width:1.0;" x1="2158.6136" x2="2161.0064" y1="324.8164" y2="308.9964"/></g><!--MD5=[7e49830832455372061a435799766ee6]
reverse link elki.index.tree.metrical.covertree.SimplifiedCoverTree to elki.index.tree.metrical.covertree.SimplifiedCoverTree.CoverTreePriorityDBIDSearcher--><g id="link_elki.index.tree.metrical.covertree.SimplifiedCoverTree_elki.index.tree.metrical.covertree.SimplifiedCoverTree.CoverTreePriorityDBIDSearcher"><path codeLine="52" d="M2166.72,307.89 C2568.48,354.73 3279.13,437.57 3591.45,473.98 " fill="none" id="elki.index.tree.metrical.covertree.SimplifiedCoverTree-backto-elki.index.tree.metrical.covertree.SimplifiedCoverTree.CoverTreePriorityDBIDSearcher" style="stroke:#181818;stroke-width:1.0;"/><ellipse cx="2159.6158" cy="307.0694" fill="#FFFFFF" rx="8" ry="8" style="stroke:#181818;stroke-width:1.0;"/><line style="stroke:#181818;stroke-width:1.0;" x1="2167.5617" x2="2151.67" y1="307.9989" y2="306.14"/><line style="stroke:#181818;stroke-width:1.0;" x1="2158.6864" x2="2160.5453" y1="315.0153" y2="299.1236"/></g><rect fill="none" height="11.6406" style="stroke:none;stroke-width:1.0;" width="186" x="1873.5" y="516.9375"/><text fill="#888888" font-family="sans-serif" font-size="10" lengthAdjust="spacing" textLength="186" x="1873.5" y="526.2197">UMLDoclet 2.0.19, PlantUML 1.2022.8</text><!--MD5=[140c7cc7df19b589a84b72d29e5569ec]
@startuml
    remove .*\.(Instance|Par|Parameterizer|Factory)$
    set namespaceSeparator none
    hide empty fields
    hide empty methods

    class "<size:14>SimplifiedCoverTree\n<size:10>elki.index.tree.metrical.covertree" as elki.index.tree.metrical.covertree.SimplifiedCoverTree<O> [[SimplifiedCoverTree.html]] {
        {static} -LOG: Logging
        -root: Node
        +SimplifiedCoverTree(Relation<O>, Distance<? super O>, double, int)
        +initialize(): void
        +bulkLoad(DBIDs): void
        #bulkConstruct(DBIDRef, int, ModifiableDoubleDBIDList): Node
        -checkCoverTree(Node, int[], int): void
        +rangeByObject(DistanceQuery<O>, double, int): RangeSearcher<O>
        +rangeByDBID(DistanceQuery<O>, double, int): RangeSearcher<DBIDRef>
        +kNNByObject(DistanceQuery<O>, int, int): KNNSearcher<O>
        +kNNByDBID(DistanceQuery<O>, int, int): KNNSearcher<DBIDRef>
        +priorityByObject(DistanceQuery<O>, double, int): PrioritySearcher<O>
        +priorityByDBID(DistanceQuery<O>, double, int): PrioritySearcher<DBIDRef>
        #getLogger(): Logging
    }

    abstract class "<size:14>AbstractCoverTree\n<size:10>elki.index.tree.metrical.covertree" as elki.index.tree.metrical.covertree.AbstractCoverTree<O> [[AbstractCoverTree.html]] {
        {abstract} #getLogger(): Logging
    }
    interface "<size:14>DistancePriorityIndex\n<size:10>elki.index" as elki.index.DistancePriorityIndex<O> [[../../../DistancePriorityIndex.html]] {
        {abstract} +priorityByObject(DistanceQuery<O>, double, int): PrioritySearcher<O>
    }
    class "<size:14>SimplifiedCoverTree.Node\n<size:10>elki.index.tree.metrical.covertree" as elki.index.tree.metrical.covertree.SimplifiedCoverTree.Node [[SimplifiedCoverTree.Node.html]]
    abstract class "<size:14>SimplifiedCoverTree.CoverTreeRangeSearcher\n<size:10>elki.index.tree.metrical.covertree" as elki.index.tree.metrical.covertree.SimplifiedCoverTree.CoverTreeRangeSearcher [[SimplifiedCoverTree.CoverTreeRangeSearcher.html]]
    class "<size:14>SimplifiedCoverTree.CoverTreeRangeObjectSearcher\n<size:10>elki.index.tree.metrical.covertree" as elki.index.tree.metrical.covertree.SimplifiedCoverTree.CoverTreeRangeObjectSearcher [[SimplifiedCoverTree.CoverTreeRangeObjectSearcher.html]]
    class "<size:14>SimplifiedCoverTree.CoverTreeRangeDBIDSearcher\n<size:10>elki.index.tree.metrical.covertree" as elki.index.tree.metrical.covertree.SimplifiedCoverTree.CoverTreeRangeDBIDSearcher [[SimplifiedCoverTree.CoverTreeRangeDBIDSearcher.html]]
    abstract class "<size:14>SimplifiedCoverTree.CoverTreeKNNSearcher\n<size:10>elki.index.tree.metrical.covertree" as elki.index.tree.metrical.covertree.SimplifiedCoverTree.CoverTreeKNNSearcher [[SimplifiedCoverTree.CoverTreeKNNSearcher.html]]
    class "<size:14>SimplifiedCoverTree.CoverTreeKNNObjectSearcher\n<size:10>elki.index.tree.metrical.covertree" as elki.index.tree.metrical.covertree.SimplifiedCoverTree.CoverTreeKNNObjectSearcher [[SimplifiedCoverTree.CoverTreeKNNObjectSearcher.html]]
    class "<size:14>SimplifiedCoverTree.CoverTreeKNNDBIDSearcher\n<size:10>elki.index.tree.metrical.covertree" as elki.index.tree.metrical.covertree.SimplifiedCoverTree.CoverTreeKNNDBIDSearcher [[SimplifiedCoverTree.CoverTreeKNNDBIDSearcher.html]]
    abstract class "<size:14>SimplifiedCoverTree.CoverTreePrioritySearcher\n<size:10>elki.index.tree.metrical.covertree" as elki.index.tree.metrical.covertree.SimplifiedCoverTree.CoverTreePrioritySearcher<Q> [[SimplifiedCoverTree.CoverTreePrioritySearcher.html]]
    class "<size:14>SimplifiedCoverTree.CoverTreePriorityObjectSearcher\n<size:10>elki.index.tree.metrical.covertree" as elki.index.tree.metrical.covertree.SimplifiedCoverTree.CoverTreePriorityObjectSearcher [[SimplifiedCoverTree.CoverTreePriorityObjectSearcher.html]]
    class "<size:14>SimplifiedCoverTree.CoverTreePriorityDBIDSearcher\n<size:10>elki.index.tree.metrical.covertree" as elki.index.tree.metrical.covertree.SimplifiedCoverTree.CoverTreePriorityDBIDSearcher [[SimplifiedCoverTree.CoverTreePriorityDBIDSearcher.html]]
    class "<size:14>SimplifiedCoverTree.Factory\n<size:10>elki.index.tree.metrical.covertree" as elki.index.tree.metrical.covertree.SimplifiedCoverTree.Factory<O> [[SimplifiedCoverTree.Factory.html]]

    elki.index.tree.metrical.covertree.AbstractCoverTree <|- - elki.index.tree.metrical.covertree.SimplifiedCoverTree
    elki.index.DistancePriorityIndex <|.. elki.index.tree.metrical.covertree.SimplifiedCoverTree
    elki.index.tree.metrical.covertree.SimplifiedCoverTree +- - elki.index.tree.metrical.covertree.SimplifiedCoverTree.Node
    elki.index.tree.metrical.covertree.SimplifiedCoverTree +- - elki.index.tree.metrical.covertree.SimplifiedCoverTree.CoverTreeRangeSearcher
    elki.index.tree.metrical.covertree.SimplifiedCoverTree +- - elki.index.tree.metrical.covertree.SimplifiedCoverTree.CoverTreeRangeObjectSearcher
    elki.index.tree.metrical.covertree.SimplifiedCoverTree +- - elki.index.tree.metrical.covertree.SimplifiedCoverTree.CoverTreeRangeDBIDSearcher
    elki.index.tree.metrical.covertree.SimplifiedCoverTree +- - elki.index.tree.metrical.covertree.SimplifiedCoverTree.CoverTreeKNNSearcher
    elki.index.tree.metrical.covertree.SimplifiedCoverTree +- - elki.index.tree.metrical.covertree.SimplifiedCoverTree.CoverTreeKNNObjectSearcher
    elki.index.tree.metrical.covertree.SimplifiedCoverTree +- - elki.index.tree.metrical.covertree.SimplifiedCoverTree.CoverTreeKNNDBIDSearcher
    elki.index.tree.metrical.covertree.SimplifiedCoverTree +- - elki.index.tree.metrical.covertree.SimplifiedCoverTree.CoverTreePrioritySearcher
    elki.index.tree.metrical.covertree.SimplifiedCoverTree +- - elki.index.tree.metrical.covertree.SimplifiedCoverTree.CoverTreePriorityObjectSearcher
    elki.index.tree.metrical.covertree.SimplifiedCoverTree +- - elki.index.tree.metrical.covertree.SimplifiedCoverTree.CoverTreePriorityDBIDSearcher
    elki.index.tree.metrical.covertree.SimplifiedCoverTree +- - elki.index.tree.metrical.covertree.SimplifiedCoverTree.Factory

    center footer UMLDoclet 2.0.19, PlantUML 1.2022.8
@enduml

PlantUML version 1.2022.8(Sun Sep 25 11:00:33 CEST 2022)
(APACHE source distribution)
Java Runtime: OpenJDK Runtime Environment
JVM: OpenJDK 64-Bit Server VM
Default Encoding: UTF-8
Language: de
Country: DE
--></g></svg>