<?xml version="1.0" encoding="UTF-8" standalone="no"?><svg xmlns="http://www.w3.org/2000/svg" xmlns:xlink="http://www.w3.org/1999/xlink" contentStyleType="text/css" height="350px" preserveAspectRatio="none" style="width:1073px;height:350px;background:#FFFFFF;" version="1.1" viewBox="0 0 1073 350" width="1073px" zoomAndPan="magnify"><defs/><g><!--MD5=[a8178e168c6367f12201e309c22ef045]
class elki.visualization.VisualizationTree--><a href="VisualizationTree.html" target="_top" title="VisualizationTree.html" xlink:actuate="onRequest" xlink:href="VisualizationTree.html" xlink:show="new" xlink:title="VisualizationTree.html" xlink:type="simple"><g id="elem_elki.visualization.VisualizationTree"><rect codeLine="6" fill="#F1F1F1" height="216.9063" id="elki.visualization.VisualizationTree" rx="2.5" ry="2.5" style="stroke:#181818;stroke-width:0.5;" width="1059" x="7" y="108"/><ellipse cx="473.75" cy="126.9688" fill="#ADD1B2" rx="11" ry="11" style="stroke:#181818;stroke-width:1.0;"/><path d="M476.7188,132.6094 Q476.1406,132.9063 475.5,133.0469 Q474.8594,133.2031 474.1563,133.2031 Q471.6563,133.2031 470.3281,131.5625 Q469.0156,129.9063 469.0156,126.7813 Q469.0156,123.6563 470.3281,122 Q471.6563,120.3438 474.1563,120.3438 Q474.8594,120.3438 475.5,120.5 Q476.1563,120.6563 476.7188,120.9531 L476.7188,123.6719 Q476.0938,123.0938 475.5,122.8281 Q474.9063,122.5469 474.2813,122.5469 Q472.9375,122.5469 472.25,123.625 Q471.5625,124.6875 471.5625,126.7813 Q471.5625,128.875 472.25,129.9531 Q472.9375,131.0156 474.2813,131.0156 Q474.9063,131.0156 475.5,130.75 Q476.0938,130.4688 476.7188,129.8906 L476.7188,132.6094 Z " fill="#000000"/><text fill="#000000" font-family="sans-serif" font-size="14" lengthAdjust="spacing" textLength="117" x="494.25" y="125.9951">VisualizationTree</text><text fill="#000000" font-family="sans-serif" font-size="10" lengthAdjust="spacing" textLength="76" x="514.75" y="138.5791">elki.visualization</text><line style="stroke:#181818;stroke-width:0.5;" x1="8" x2="1065" y1="145.9375" y2="145.9375"/><rect fill="none" height="6" style="stroke:#C82930;stroke-width:1.0;" width="6" x="15" y="156.5859"/><text fill="#000000" font-family="sans-serif" font-size="14" lengthAdjust="spacing" textLength="311" x="27" y="162.9326">vlistenerList: ArrayList&lt;VisualizationListener&gt;</text><line style="stroke:#181818;stroke-width:0.5;" x1="8" x2="1065" y1="170.2344" y2="170.2344"/><ellipse cx="18" cy="183.8828" fill="#84BE84" rx="3" ry="3" style="stroke:#038048;stroke-width:1.0;"/><text fill="#000000" font-family="sans-serif" font-size="14" lengthAdjust="spacing" textLength="353" x="27" y="187.2295">addVisualizationListener(VisualizationListener): void</text><ellipse cx="18" cy="200.1797" fill="#84BE84" rx="3" ry="3" style="stroke:#038048;stroke-width:1.0;"/><text fill="#000000" font-family="sans-serif" font-size="14" lengthAdjust="spacing" textLength="379" x="27" y="203.5264">removeVisualizationListener(VisualizationListener): void</text><ellipse cx="18" cy="216.4766" fill="#84BE84" rx="3" ry="3" style="stroke:#038048;stroke-width:1.0;"/><text fill="#000000" font-family="sans-serif" font-size="14" lengthAdjust="spacing" textLength="243" x="27" y="219.8232">visChanged(VisualizationItem): void</text><ellipse cx="18" cy="232.7734" fill="#84BE84" rx="3" ry="3" style="stroke:#038048;stroke-width:1.0;"/><text fill="#000000" font-family="sans-serif" font-size="14" lengthAdjust="spacing" text-decoration="underline" textLength="260" x="27" y="236.1201">findVis(VisualizerContext): It&lt;Object&gt;</text><ellipse cx="18" cy="249.0703" fill="#84BE84" rx="3" ry="3" style="stroke:#038048;stroke-width:1.0;"/><text fill="#000000" font-family="sans-serif" font-size="14" lengthAdjust="spacing" text-decoration="underline" textLength="313" x="27" y="252.417">findVis(VisualizerContext, Object): It&lt;Object&gt;</text><ellipse cx="18" cy="265.3672" fill="#84BE84" rx="3" ry="3" style="stroke:#038048;stroke-width:1.0;"/><text fill="#000000" font-family="sans-serif" font-size="14" lengthAdjust="spacing" text-decoration="underline" textLength="375" x="27" y="268.7139">findNewResults(VisualizerContext, Object): It&lt;Object&gt;</text><ellipse cx="18" cy="281.6641" fill="#84BE84" rx="3" ry="3" style="stroke:#038048;stroke-width:1.0;"/><text fill="#000000" font-family="sans-serif" font-size="14" lengthAdjust="spacing" text-decoration="underline" textLength="1022" x="27" y="285.0107">findNewSiblings(VisualizerContext, Object, Class&lt;? super A&gt;, Class&lt;? super VisualizationItem&gt;, BiConsumer&lt;A, B extends VisualizationItem&gt;): void</text><ellipse cx="18" cy="297.9609" fill="#84BE84" rx="3" ry="3" style="stroke:#038048;stroke-width:1.0;"/><text fill="#000000" font-family="sans-serif" font-size="14" lengthAdjust="spacing" text-decoration="underline" textLength="1033" x="27" y="301.3076">findNewResultVis(VisualizerContext, Object, Class&lt;? super A&gt;, Class&lt;? super VisualizationItem&gt;, BiConsumer&lt;A, B extends VisualizationItem&gt;): void</text><ellipse cx="18" cy="314.2578" fill="#84BE84" rx="3" ry="3" style="stroke:#038048;stroke-width:1.0;"/><text fill="#000000" font-family="sans-serif" font-size="14" lengthAdjust="spacing" text-decoration="underline" textLength="422" x="27" y="317.6045">setVisible(VisualizerContext, VisualizationTask, boolean): void</text></g></a><!--MD5=[02d3e7f5ee8a3e5ca3f362ae54e6c78a]
class elki.utilities.datastructures.hierarchy.HashMapHierarchy--><a href="../utilities/datastructures/hierarchy/HashMapHierarchy.html" target="_top" title="../utilities/datastructures/hierarchy/HashMapHierarchy.html" xlink:actuate="onRequest" xlink:href="../utilities/datastructures/hierarchy/HashMapHierarchy.html" xlink:show="new" xlink:title="../utilities/datastructures/hierarchy/HashMapHierarchy.html" xlink:type="simple"><g id="elem_elki.utilities.datastructures.hierarchy.HashMapHierarchy"><rect codeLine="19" fill="#F1F1F1" height="37.9375" id="elki.utilities.datastructures.hierarchy.HashMapHierarchy" rx="2.5" ry="2.5" style="stroke:#181818;stroke-width:0.5;" width="247" x="413" y="10"/><ellipse cx="428" cy="28.9688" fill="#ADD1B2" rx="11" ry="11" style="stroke:#181818;stroke-width:1.0;"/><path d="M430.9688,34.6094 Q430.3906,34.9063 429.75,35.0469 Q429.1094,35.2031 428.4063,35.2031 Q425.9063,35.2031 424.5781,33.5625 Q423.2656,31.9063 423.2656,28.7813 Q423.2656,25.6563 424.5781,24 Q425.9063,22.3438 428.4063,22.3438 Q429.1094,22.3438 429.75,22.5 Q430.4063,22.6563 430.9688,22.9531 L430.9688,25.6719 Q430.3438,25.0938 429.75,24.8281 Q429.1563,24.5469 428.5313,24.5469 Q427.1875,24.5469 426.5,25.625 Q425.8125,26.6875 425.8125,28.7813 Q425.8125,30.875 426.5,31.9531 Q427.1875,33.0156 428.5313,33.0156 Q429.1563,33.0156 429.75,32.75 Q430.3438,32.4688 430.9688,31.8906 L430.9688,34.6094 Z " fill="#000000"/><text fill="#000000" font-family="sans-serif" font-size="14" lengthAdjust="spacing" textLength="128" x="464.5" y="27.9951">HashMapHierarchy</text><text fill="#000000" font-family="sans-serif" font-size="10" lengthAdjust="spacing" textLength="173" x="442" y="40.5791">elki.utilities.datastructures.hierarchy</text><rect fill="#FFFFFF" height="15.9688" style="stroke:#181818;stroke-width:1.0;stroke-dasharray:2.0,2.0;" width="40" x="623" y="7"/><text fill="#000000" font-family="sans-serif" font-size="12" font-style="italic" lengthAdjust="spacing" textLength="38" x="624" y="19.1387">Object</text></g></a><!--MD5=[6752f7bc055044770a102e4da64cecab]
reverse link elki.utilities.datastructures.hierarchy.HashMapHierarchy to elki.visualization.VisualizationTree--><g id="link_elki.utilities.datastructures.hierarchy.HashMapHierarchy_elki.visualization.VisualizationTree"><path codeLine="21" d="M536.5,68.17 C536.5,79.95 536.5,93.55 536.5,107.63 " fill="none" id="elki.utilities.datastructures.hierarchy.HashMapHierarchy-backto-elki.visualization.VisualizationTree" style="stroke:#181818;stroke-width:1.0;"/><polygon fill="none" points="529.5,68.12,536.5,48.12,543.5,68.12,529.5,68.12" style="stroke:#181818;stroke-width:1.0;"/></g><rect fill="none" height="11.6406" style="stroke:none;stroke-width:1.0;" width="186" x="436.5" y="330.9063"/><text fill="#888888" font-family="sans-serif" font-size="10" lengthAdjust="spacing" textLength="186" x="436.5" y="340.1885">UMLDoclet 2.0.19, PlantUML 1.2022.8</text><!--MD5=[238e382f0fe54673172e87616ce343a1]
@startuml
    remove .*\.(Instance|Par|Parameterizer|Factory)$
    set namespaceSeparator none
    hide empty fields
    hide empty methods

    class "<size:14>VisualizationTree\n<size:10>elki.visualization" as elki.visualization.VisualizationTree [[VisualizationTree.html]] {
        -vlistenerList: ArrayList<VisualizationListener>
        +addVisualizationListener(VisualizationListener): void
        +removeVisualizationListener(VisualizationListener): void
        +visChanged(VisualizationItem): void
        {static} +findVis(VisualizerContext): It<Object>
        {static} +findVis(VisualizerContext, Object): It<Object>
        {static} +findNewResults(VisualizerContext, Object): It<Object>
        {static} +findNewSiblings(VisualizerContext, Object, Class<? super A>, Class<? super VisualizationItem>, BiConsumer<A, B extends VisualizationItem>): void
        {static} +findNewResultVis(VisualizerContext, Object, Class<? super A>, Class<? super VisualizationItem>, BiConsumer<A, B extends VisualizationItem>): void
        {static} +setVisible(VisualizerContext, VisualizationTask, boolean): void
    }

    class "<size:14>HashMapHierarchy\n<size:10>elki.utilities.datastructures.hierarchy" as elki.utilities.datastructures.hierarchy.HashMapHierarchy<Object> [[../utilities/datastructures/hierarchy/HashMapHierarchy.html]]

    elki.utilities.datastructures.hierarchy.HashMapHierarchy <|- - elki.visualization.VisualizationTree

    center footer UMLDoclet 2.0.19, PlantUML 1.2022.8
@enduml

PlantUML version 1.2022.8(Sun Sep 25 11:00:33 CEST 2022)
(APACHE source distribution)
Java Runtime: OpenJDK Runtime Environment
JVM: OpenJDK 64-Bit Server VM
Default Encoding: UTF-8
Language: de
Country: DE
--></g></svg>