<?xml version="1.0" encoding="UTF-8" standalone="no"?><svg xmlns="http://www.w3.org/2000/svg" xmlns:xlink="http://www.w3.org/1999/xlink" contentStyleType="text/css" height="314px" preserveAspectRatio="none" style="width:378px;height:314px;background:#FFFFFF;" version="1.1" viewBox="0 0 378 314" width="378px" zoomAndPan="magnify"><defs/><g><!--MD5=[e3740787bee38bc2948e4f88c73c704c]
class elki.math.statistics.distribution.estimator.meta.BestFitEstimator.BestFit--><g id="elem_elki.math.statistics.distribution.estimator.meta.BestFitEstimator.BestFit"><rect codeLine="6" fill="#F1F1F1" height="184.3125" id="elki.math.statistics.distribution.estimator.meta.BestFitEstimator.BestFit" rx="2.5" ry="2.5" style="stroke:#181818;stroke-width:0.5;" width="362" x="9" y="105"/><ellipse cx="73.75" cy="123.9688" fill="#ADD1B2" rx="11" ry="11" style="stroke:#181818;stroke-width:1.0;"/><path d="M76.7188,129.6094 Q76.1406,129.9063 75.5,130.0469 Q74.8594,130.2031 74.1563,130.2031 Q71.6563,130.2031 70.3281,128.5625 Q69.0156,126.9063 69.0156,123.7813 Q69.0156,120.6563 70.3281,119 Q71.6563,117.3438 74.1563,117.3438 Q74.8594,117.3438 75.5,117.5 Q76.1563,117.6563 76.7188,117.9531 L76.7188,120.6719 Q76.0938,120.0938 75.5,119.8281 Q74.9063,119.5469 74.2813,119.5469 Q72.9375,119.5469 72.25,120.625 Q71.5625,121.6875 71.5625,123.7813 Q71.5625,125.875 72.25,126.9531 Q72.9375,128.0156 74.2813,128.0156 Q74.9063,128.0156 75.5,127.75 Q76.0938,127.4688 76.7188,126.8906 L76.7188,129.6094 Z " fill="#000000"/><text fill="#000000" font-family="sans-serif" font-size="14" lengthAdjust="spacing" textLength="165" x="123.75" y="122.9951">BestFitEstimator.BestFit</text><text fill="#000000" font-family="sans-serif" font-size="10" lengthAdjust="spacing" textLength="224" x="94.25" y="135.5791">elki.math.statistics.distribution.estimator.meta</text><line style="stroke:#181818;stroke-width:0.5;" x1="10" x2="370" y1="142.9375" y2="142.9375"/><polygon fill="none" points="20,152.5859,16,158.5859,24,158.5859" style="stroke:#1963A0;stroke-width:1.0;"/><text fill="#000000" font-family="sans-serif" font-size="14" lengthAdjust="spacing" textLength="113" x="29" y="159.9326">dist: Distribution</text><polygon fill="none" points="20,168.8828,16,174.8828,24,174.8828" style="stroke:#1963A0;stroke-width:1.0;"/><text fill="#000000" font-family="sans-serif" font-size="14" lengthAdjust="spacing" textLength="96" x="29" y="176.2295">score: double</text><polygon fill="none" points="20,185.1797,16,191.1797,24,191.1797" style="stroke:#1963A0;stroke-width:1.0;"/><text fill="#000000" font-family="sans-serif" font-size="14" lengthAdjust="spacing" textLength="206" x="29" y="192.5264">est: DistributionEstimator&lt;?&gt;</text><rect fill="none" height="6" style="stroke:#C82930;stroke-width:1.0;" width="6" x="17" y="202.4766"/><text fill="#000000" font-family="sans-serif" font-size="14" lengthAdjust="spacing" textLength="74" x="29" y="208.8232">x: double[]</text><rect fill="none" height="6" style="stroke:#C82930;stroke-width:1.0;" width="6" x="17" y="218.7734"/><text fill="#000000" font-family="sans-serif" font-size="14" lengthAdjust="spacing" textLength="118" x="29" y="225.1201">scratch: double[]</text><line style="stroke:#181818;stroke-width:0.5;" x1="10" x2="370" y1="232.4219" y2="232.4219"/><ellipse cx="20" cy="246.0703" fill="#84BE84" rx="3" ry="3" style="stroke:#038048;stroke-width:1.0;"/><text fill="#000000" font-family="sans-serif" font-size="14" lengthAdjust="spacing" textLength="182" x="29" y="249.417">BestFit(double[], double[])</text><rect fill="#F24D5C" height="6" style="stroke:#C82930;stroke-width:1.0;" width="6" x="17" y="259.3672"/><text fill="#000000" font-family="sans-serif" font-size="14" lengthAdjust="spacing" text-decoration="underline" textLength="321" x="29" y="265.7139">testFit(double[], double[], Distribution): double</text><ellipse cx="20" cy="278.6641" fill="#84BE84" rx="3" ry="3" style="stroke:#038048;stroke-width:1.0;"/><text fill="#000000" font-family="sans-serif" font-size="14" lengthAdjust="spacing" textLength="336" x="29" y="282.0107">test(DistributionEstimator&lt;?&gt;, Distribution): void</text></g><!--MD5=[f4bc7ff5f805c2b92803268f33ac11f5]
class elki.math.statistics.distribution.estimator.meta.BestFitEstimator--><a href="BestFitEstimator.html" target="_top" title="BestFitEstimator.html" xlink:actuate="onRequest" xlink:href="BestFitEstimator.html" xlink:show="new" xlink:title="BestFitEstimator.html" xlink:type="simple"><g id="elem_elki.math.statistics.distribution.estimator.meta.BestFitEstimator"><rect codeLine="17" fill="#F1F1F1" height="37.9375" id="elki.math.statistics.distribution.estimator.meta.BestFitEstimator" rx="2.5" ry="2.5" style="stroke:#181818;stroke-width:0.5;" width="256" x="62" y="7"/><ellipse cx="77" cy="25.9688" fill="#ADD1B2" rx="11" ry="11" style="stroke:#181818;stroke-width:1.0;"/><path d="M79.9688,31.6094 Q79.3906,31.9063 78.75,32.0469 Q78.1094,32.2031 77.4063,32.2031 Q74.9063,32.2031 73.5781,30.5625 Q72.2656,28.9063 72.2656,25.7813 Q72.2656,22.6563 73.5781,21 Q74.9063,19.3438 77.4063,19.3438 Q78.1094,19.3438 78.75,19.5 Q79.4063,19.6563 79.9688,19.9531 L79.9688,22.6719 Q79.3438,22.0938 78.75,21.8281 Q78.1563,21.5469 77.5313,21.5469 Q76.1875,21.5469 75.5,22.625 Q74.8125,23.6875 74.8125,25.7813 Q74.8125,27.875 75.5,28.9531 Q76.1875,30.0156 77.5313,30.0156 Q78.1563,30.0156 78.75,29.75 Q79.3438,29.4688 79.9688,28.8906 L79.9688,31.6094 Z " fill="#000000"/><text fill="#000000" font-family="sans-serif" font-size="14" lengthAdjust="spacing" textLength="113" x="146.5" y="24.9951">BestFitEstimator</text><text fill="#000000" font-family="sans-serif" font-size="10" lengthAdjust="spacing" textLength="224" x="91" y="37.5791">elki.math.statistics.distribution.estimator.meta</text></g></a><!--MD5=[047c57006f96123d5a9ed431facfc647]
reverse link elki.math.statistics.distribution.estimator.meta.BestFitEstimator to elki.math.statistics.distribution.estimator.meta.BestFitEstimator.BestFit--><g id="link_elki.math.statistics.distribution.estimator.meta.BestFitEstimator_elki.math.statistics.distribution.estimator.meta.BestFitEstimator.BestFit"><path codeLine="19" d="M190,60.49 C190,73.48 190,89.03 190,104.9 " fill="none" id="elki.math.statistics.distribution.estimator.meta.BestFitEstimator-backto-elki.math.statistics.distribution.estimator.meta.BestFitEstimator.BestFit" style="stroke:#181818;stroke-width:1.0;"/><ellipse cx="190" cy="53.09" fill="#FFFFFF" rx="8" ry="8" style="stroke:#181818;stroke-width:1.0;"/><line style="stroke:#181818;stroke-width:1.0;" x1="190" x2="190" y1="61.09" y2="45.09"/><line style="stroke:#181818;stroke-width:1.0;" x1="182" x2="198" y1="53.09" y2="53.09"/></g><rect fill="none" height="11.6406" style="stroke:none;stroke-width:1.0;" width="186" x="89" y="295.3125"/><text fill="#888888" font-family="sans-serif" font-size="10" lengthAdjust="spacing" textLength="186" x="89" y="304.5947">UMLDoclet 2.0.19, PlantUML 1.2022.8</text><!--MD5=[d44c06c068fa3f752f30c55c8c67e497]
@startuml
    remove .*\.(Instance|Par|Parameterizer|Factory)$
    set namespaceSeparator none
    hide empty fields
    hide empty methods

    class "<size:14>BestFitEstimator.BestFit\n<size:10>elki.math.statistics.distribution.estimator.meta" as elki.math.statistics.distribution.estimator.meta.BestFitEstimator.BestFit {
        ~dist: Distribution
        ~score: double
        ~est: DistributionEstimator<?>
        -x: double[]
        -scratch: double[]
        +BestFit(double[], double[])
        {static} -testFit(double[], double[], Distribution): double
        +test(DistributionEstimator<?>, Distribution): void
    }

    class "<size:14>BestFitEstimator\n<size:10>elki.math.statistics.distribution.estimator.meta" as elki.math.statistics.distribution.estimator.meta.BestFitEstimator [[BestFitEstimator.html]]

    elki.math.statistics.distribution.estimator.meta.BestFitEstimator +- - elki.math.statistics.distribution.estimator.meta.BestFitEstimator.BestFit

    center footer UMLDoclet 2.0.19, PlantUML 1.2022.8
@enduml

PlantUML version 1.2022.8(Sun Sep 25 11:00:33 CEST 2022)
(APACHE source distribution)
Java Runtime: OpenJDK Runtime Environment
JVM: OpenJDK 64-Bit Server VM
Default Encoding: UTF-8
Language: de
Country: DE
--></g></svg>