<?xml version="1.0" encoding="UTF-8" standalone="no"?><svg xmlns="http://www.w3.org/2000/svg" xmlns:xlink="http://www.w3.org/1999/xlink" contentStyleType="text/css" height="331px" preserveAspectRatio="none" style="width:247px;height:331px;background:#FFFFFF;" version="1.1" viewBox="0 0 247 331" width="247px" zoomAndPan="magnify"><defs/><g><!--MD5=[59f6178e24a3b6668b706dc10fcb645e]
class elki.utilities.ELKIServiceRegistry.Entry--><a href="ELKIServiceRegistry.Entry.html" target="_top" title="ELKIServiceRegistry.Entry.html" xlink:actuate="onRequest" xlink:href="ELKIServiceRegistry.Entry.html" xlink:show="new" xlink:title="ELKIServiceRegistry.Entry.html" xlink:type="simple"><g id="elem_elki.utilities.ELKIServiceRegistry.Entry"><rect codeLine="6" fill="#F1F1F1" height="200.6094" id="elki.utilities.ELKIServiceRegistry.Entry" rx="2.5" ry="2.5" style="stroke:#181818;stroke-width:0.5;" width="233" x="7" y="105"/><ellipse cx="34.6" cy="123.9688" fill="#ADD1B2" rx="11" ry="11" style="stroke:#181818;stroke-width:1.0;"/><path d="M37.5688,129.6094 Q36.9906,129.9063 36.35,130.0469 Q35.7094,130.2031 35.0063,130.2031 Q32.5063,130.2031 31.1781,128.5625 Q29.8656,126.9063 29.8656,123.7813 Q29.8656,120.6563 31.1781,119 Q32.5063,117.3438 35.0063,117.3438 Q35.7094,117.3438 36.35,117.5 Q37.0063,117.6563 37.5688,117.9531 L37.5688,120.6719 Q36.9438,120.0938 36.35,119.8281 Q35.7563,119.5469 35.1313,119.5469 Q33.7875,119.5469 33.1,120.625 Q32.4125,121.6875 32.4125,123.7813 Q32.4125,125.875 33.1,126.9531 Q33.7875,128.0156 35.1313,128.0156 Q35.7563,128.0156 36.35,127.75 Q36.9438,127.4688 37.5688,126.8906 L37.5688,129.6094 Z " fill="#000000"/><text fill="#000000" font-family="sans-serif" font-size="14" lengthAdjust="spacing" textLength="173" x="51.4" y="122.9951">ELKIServiceRegistry.Entry</text><text fill="#000000" font-family="sans-serif" font-size="10" lengthAdjust="spacing" textLength="51" x="112.4" y="135.5791">elki.utilities</text><line style="stroke:#181818;stroke-width:0.5;" x1="8" x2="239" y1="142.9375" y2="142.9375"/><rect fill="none" height="6" style="stroke:#C82930;stroke-width:1.0;" width="6" x="15" y="153.5859"/><text fill="#000000" font-family="sans-serif" font-size="14" lengthAdjust="spacing" text-decoration="underline" textLength="169" x="27" y="159.9326">EMPTY_ALIASES: String[]</text><rect fill="none" height="6" style="stroke:#C82930;stroke-width:1.0;" width="6" x="15" y="169.8828"/><text fill="#000000" font-family="sans-serif" font-size="14" lengthAdjust="spacing" textLength="106" x="27" y="176.2295">names: String[]</text><rect fill="none" height="6" style="stroke:#C82930;stroke-width:1.0;" width="6" x="15" y="186.1797"/><text fill="#000000" font-family="sans-serif" font-size="14" lengthAdjust="spacing" textLength="139" x="27" y="192.5264">clazzes: Class&lt;?&gt;[]</text><rect fill="none" height="6" style="stroke:#C82930;stroke-width:1.0;" width="6" x="15" y="202.4766"/><text fill="#000000" font-family="sans-serif" font-size="14" lengthAdjust="spacing" textLength="47" x="27" y="208.8232">len: int</text><rect fill="none" height="6" style="stroke:#C82930;stroke-width:1.0;" width="6" x="15" y="218.7734"/><text fill="#000000" font-family="sans-serif" font-size="14" lengthAdjust="spacing" textLength="106" x="27" y="225.1201">aliases: String[]</text><rect fill="none" height="6" style="stroke:#C82930;stroke-width:1.0;" width="6" x="15" y="235.0703"/><text fill="#000000" font-family="sans-serif" font-size="14" lengthAdjust="spacing" textLength="77" x="27" y="241.417">aliaslen: int</text><line style="stroke:#181818;stroke-width:0.5;" x1="8" x2="239" y1="248.7188" y2="248.7188"/><rect fill="#F24D5C" height="6" style="stroke:#C82930;stroke-width:1.0;" width="6" x="15" y="259.3672"/><text fill="#000000" font-family="sans-serif" font-size="14" lengthAdjust="spacing" textLength="153" x="27" y="265.7139">addName(String): void</text><rect fill="#F24D5C" height="6" style="stroke:#C82930;stroke-width:1.0;" width="6" x="15" y="275.6641"/><text fill="#000000" font-family="sans-serif" font-size="14" lengthAdjust="spacing" textLength="207" x="27" y="282.0107">addHit(String, Class&lt;?&gt;): void</text><rect fill="#F24D5C" height="6" style="stroke:#C82930;stroke-width:1.0;" width="6" x="15" y="291.9609"/><text fill="#000000" font-family="sans-serif" font-size="14" lengthAdjust="spacing" textLength="192" x="27" y="298.3076">addAlias(String, String): void</text></g></a><!--MD5=[e975566497962b42782cfbd5e326bc92]
class elki.utilities.ELKIServiceRegistry--><a href="ELKIServiceRegistry.html" target="_top" title="ELKIServiceRegistry.html" xlink:actuate="onRequest" xlink:href="ELKIServiceRegistry.html" xlink:show="new" xlink:title="ELKIServiceRegistry.html" xlink:type="simple"><g id="elem_elki.utilities.ELKIServiceRegistry"><rect codeLine="18" fill="#F1F1F1" height="37.9375" id="elki.utilities.ELKIServiceRegistry" rx="2.5" ry="2.5" style="stroke:#181818;stroke-width:0.5;" width="166" x="40.5" y="7"/><ellipse cx="55.5" cy="25.9688" fill="#ADD1B2" rx="11" ry="11" style="stroke:#181818;stroke-width:1.0;"/><path d="M58.4688,31.6094 Q57.8906,31.9063 57.25,32.0469 Q56.6094,32.2031 55.9063,32.2031 Q53.4063,32.2031 52.0781,30.5625 Q50.7656,28.9063 50.7656,25.7813 Q50.7656,22.6563 52.0781,21 Q53.4063,19.3438 55.9063,19.3438 Q56.6094,19.3438 57.25,19.5 Q57.9063,19.6563 58.4688,19.9531 L58.4688,22.6719 Q57.8438,22.0938 57.25,21.8281 Q56.6563,21.5469 56.0313,21.5469 Q54.6875,21.5469 54,22.625 Q53.3125,23.6875 53.3125,25.7813 Q53.3125,27.875 54,28.9531 Q54.6875,30.0156 56.0313,30.0156 Q56.6563,30.0156 57.25,29.75 Q57.8438,29.4688 58.4688,28.8906 L58.4688,31.6094 Z " fill="#000000"/><text fill="#000000" font-family="sans-serif" font-size="14" lengthAdjust="spacing" textLength="134" x="69.5" y="24.9951">ELKIServiceRegistry</text><text fill="#000000" font-family="sans-serif" font-size="10" lengthAdjust="spacing" textLength="51" x="111" y="37.5791">elki.utilities</text></g></a><!--MD5=[00ac811ccffb7f8dd2cd4b05feed136e]
reverse link elki.utilities.ELKIServiceRegistry to elki.utilities.ELKIServiceRegistry.Entry--><g id="link_elki.utilities.ELKIServiceRegistry_elki.utilities.ELKIServiceRegistry.Entry"><path codeLine="20" d="M123.5,60.6 C123.5,73.47 123.5,88.9 123.5,104.82 " fill="none" id="elki.utilities.ELKIServiceRegistry-backto-elki.utilities.ELKIServiceRegistry.Entry" style="stroke:#181818;stroke-width:1.0;"/><ellipse cx="123.5" cy="53.33" fill="#FFFFFF" rx="8" ry="8" style="stroke:#181818;stroke-width:1.0;"/><line style="stroke:#181818;stroke-width:1.0;" x1="123.5" x2="123.5" y1="61.33" y2="45.33"/><line style="stroke:#181818;stroke-width:1.0;" x1="115.5" x2="131.5" y1="53.33" y2="53.33"/></g><rect fill="none" height="11.6406" style="stroke:none;stroke-width:1.0;" width="186" x="23.5" y="311.6094"/><text fill="#888888" font-family="sans-serif" font-size="10" lengthAdjust="spacing" textLength="186" x="23.5" y="320.8916">UMLDoclet 2.0.19, PlantUML 1.2022.8</text><!--MD5=[98c55e470251b7fb121171e6bc18f4af]
@startuml
    remove .*\.(Instance|Par|Parameterizer|Factory)$
    set namespaceSeparator none
    hide empty fields
    hide empty methods

    class "<size:14>ELKIServiceRegistry.Entry\n<size:10>elki.utilities" as elki.utilities.ELKIServiceRegistry.Entry [[ELKIServiceRegistry.Entry.html]] {
        {static} -EMPTY_ALIASES: String[]
        -names: String[]
        -clazzes: Class<?>[]
        -len: int
        -aliases: String[]
        -aliaslen: int
        -addName(String): void
        -addHit(String, Class<?>): void
        -addAlias(String, String): void
    }

    class "<size:14>ELKIServiceRegistry\n<size:10>elki.utilities" as elki.utilities.ELKIServiceRegistry [[ELKIServiceRegistry.html]]

    elki.utilities.ELKIServiceRegistry +- - elki.utilities.ELKIServiceRegistry.Entry

    center footer UMLDoclet 2.0.19, PlantUML 1.2022.8
@enduml

PlantUML version 1.2022.8(Sun Sep 25 11:00:33 CEST 2022)
(APACHE source distribution)
Java Runtime: OpenJDK Runtime Environment
JVM: OpenJDK 64-Bit Server VM
Default Encoding: UTF-8
Language: de
Country: DE
--></g></svg>