<?xml version="1.0" encoding="UTF-8" standalone="no"?><svg xmlns="http://www.w3.org/2000/svg" xmlns:xlink="http://www.w3.org/1999/xlink" contentStyleType="text/css" height="391px" preserveAspectRatio="none" style="width:377px;height:391px;background:#FFFFFF;" version="1.1" viewBox="0 0 377 391" width="377px" zoomAndPan="magnify"><defs/><g><!--MD5=[080370db249b1615262fbac6f953c285]
class elki.utilities.ELKIServiceScanner.DirClassIterator--><a href="ELKIServiceScanner.DirClassIterator.html" target="_top" title="ELKIServiceScanner.DirClassIterator.html" xlink:actuate="onRequest" xlink:href="ELKIServiceScanner.DirClassIterator.html" xlink:show="new" xlink:title="ELKIServiceScanner.DirClassIterator.html" xlink:type="simple"><g id="elem_elki.utilities.ELKIServiceScanner.DirClassIterator"><rect codeLine="6" fill="#F1F1F1" height="216.9063" id="elki.utilities.ELKIServiceScanner.DirClassIterator" rx="2.5" ry="2.5" style="stroke:#181818;stroke-width:0.5;" width="276" x="48.5" y="149"/><ellipse cx="63.5" cy="167.9688" fill="#ADD1B2" rx="11" ry="11" style="stroke:#181818;stroke-width:1.0;"/><path d="M66.4688,173.6094 Q65.8906,173.9063 65.25,174.0469 Q64.6094,174.2031 63.9063,174.2031 Q61.4063,174.2031 60.0781,172.5625 Q58.7656,170.9063 58.7656,167.7813 Q58.7656,164.6563 60.0781,163 Q61.4063,161.3438 63.9063,161.3438 Q64.6094,161.3438 65.25,161.5 Q65.9063,161.6563 66.4688,161.9531 L66.4688,164.6719 Q65.8438,164.0938 65.25,163.8281 Q64.6563,163.5469 64.0313,163.5469 Q62.6875,163.5469 62,164.625 Q61.3125,165.6875 61.3125,167.7813 Q61.3125,169.875 62,170.9531 Q62.6875,172.0156 64.0313,172.0156 Q64.6563,172.0156 65.25,171.75 Q65.8438,171.4688 66.4688,170.8906 L66.4688,173.6094 Z " fill="#000000"/><text fill="#000000" font-family="sans-serif" font-size="14" lengthAdjust="spacing" textLength="244" x="77.5" y="166.9951">ELKIServiceScanner.DirClassIterator</text><text fill="#000000" font-family="sans-serif" font-size="10" lengthAdjust="spacing" textLength="51" x="174" y="179.5791">elki.utilities</text><line style="stroke:#181818;stroke-width:0.5;" x1="49.5" x2="323.5" y1="186.9375" y2="186.9375"/><rect fill="none" height="6" style="stroke:#C82930;stroke-width:1.0;" width="6" x="56.5" y="197.5859"/><text fill="#000000" font-family="sans-serif" font-size="14" lengthAdjust="spacing" text-decoration="underline" textLength="129" x="68.5" y="203.9326">CLASS_EXT: String</text><rect fill="none" height="6" style="stroke:#C82930;stroke-width:1.0;" width="6" x="56.5" y="213.8828"/><text fill="#000000" font-family="sans-serif" font-size="14" lengthAdjust="spacing" text-decoration="underline" textLength="185" x="68.5" y="220.2295">FACTORY_FILE_EXT: String</text><rect fill="none" height="6" style="stroke:#C82930;stroke-width:1.0;" width="6" x="56.5" y="230.1797"/><text fill="#000000" font-family="sans-serif" font-size="14" lengthAdjust="spacing" text-decoration="underline" textLength="169" x="68.5" y="236.5264">CLASS_EXT_LENGTH: int</text><rect fill="none" height="6" style="stroke:#C82930;stroke-width:1.0;" width="6" x="56.5" y="246.4766"/><text fill="#000000" font-family="sans-serif" font-size="14" lengthAdjust="spacing" textLength="86" x="68.5" y="252.8232">prefix: String</text><rect fill="none" height="6" style="stroke:#C82930;stroke-width:1.0;" width="6" x="56.5" y="262.7734"/><text fill="#000000" font-family="sans-serif" font-size="14" lengthAdjust="spacing" textLength="157" x="68.5" y="269.1201">files: ArrayList&lt;String&gt;</text><rect fill="none" height="6" style="stroke:#C82930;stroke-width:1.0;" width="6" x="56.5" y="279.0703"/><text fill="#000000" font-family="sans-serif" font-size="14" lengthAdjust="spacing" textLength="160" x="68.5" y="285.417">folders: ArrayList&lt;File&gt;</text><line style="stroke:#181818;stroke-width:0.5;" x1="49.5" x2="323.5" y1="292.7188" y2="292.7188"/><ellipse cx="59.5" cy="306.3672" fill="#84BE84" rx="3" ry="3" style="stroke:#038048;stroke-width:1.0;"/><text fill="#000000" font-family="sans-serif" font-size="14" lengthAdjust="spacing" textLength="138" x="68.5" y="309.7139">DirClassIterator(File)</text><ellipse cx="59.5" cy="322.6641" fill="#84BE84" rx="3" ry="3" style="stroke:#038048;stroke-width:1.0;"/><text fill="#000000" font-family="sans-serif" font-size="14" lengthAdjust="spacing" textLength="131" x="68.5" y="326.0107">hasNext(): boolean</text><rect fill="#F24D5C" height="6" style="stroke:#C82930;stroke-width:1.0;" width="6" x="56.5" y="335.9609"/><text fill="#000000" font-family="sans-serif" font-size="14" lengthAdjust="spacing" textLength="103" x="68.5" y="342.3076">findNext(): void</text><ellipse cx="59.5" cy="355.2578" fill="#84BE84" rx="3" ry="3" style="stroke:#038048;stroke-width:1.0;"/><text fill="#000000" font-family="sans-serif" font-size="14" lengthAdjust="spacing" textLength="89" x="68.5" y="358.6045">next(): String</text></g></a><!--MD5=[af67028c7c879a354eef1ccc049398d0]
class java.util.Iterator--><g id="elem_java.util.Iterator"><rect codeLine="19" fill="#F1F1F1" height="78.5313" id="java.util.Iterator" rx="2.5" ry="2.5" style="stroke:#181818;stroke-width:0.5;" width="161" x="7" y="10"/><ellipse cx="39.1" cy="28.9688" fill="#B4A7E5" rx="11" ry="11" style="stroke:#181818;stroke-width:1.0;"/><path d="M35.0219,24.7344 L35.0219,22.5781 L42.4125,22.5781 L42.4125,24.7344 L39.9438,24.7344 L39.9438,32.8125 L42.4125,32.8125 L42.4125,34.9688 L35.0219,34.9688 L35.0219,32.8125 L37.4906,32.8125 L37.4906,24.7344 L35.0219,24.7344 Z " fill="#000000"/><text fill="#000000" font-family="sans-serif" font-size="14" font-style="italic" lengthAdjust="spacing" textLength="51" x="56.9" y="27.9951">Iterator</text><text fill="#000000" font-family="sans-serif" font-size="10" font-style="italic" lengthAdjust="spacing" textLength="40" x="62.4" y="40.5791">java.util</text><rect fill="#FFFFFF" height="15.9688" style="stroke:#181818;stroke-width:1.0;stroke-dasharray:2.0,2.0;" width="38" x="133" y="7"/><text fill="#000000" font-family="sans-serif" font-size="12" font-style="italic" lengthAdjust="spacing" textLength="36" x="134" y="19.1387">String</text><line style="stroke:#181818;stroke-width:0.5;" x1="8" x2="167" y1="47.9375" y2="47.9375"/><ellipse cx="18" cy="61.5859" fill="#84BE84" rx="3" ry="3" style="stroke:#038048;stroke-width:1.0;"/><text fill="#000000" font-family="sans-serif" font-size="14" font-style="italic" lengthAdjust="spacing" textLength="135" x="27" y="64.9326">hasNext(): boolean</text><ellipse cx="18" cy="77.8828" fill="#84BE84" rx="3" ry="3" style="stroke:#038048;stroke-width:1.0;"/><text fill="#000000" font-family="sans-serif" font-size="14" font-style="italic" lengthAdjust="spacing" textLength="91" x="27" y="81.2295">next(): String</text></g><!--MD5=[c2e57f7c97286d65a2fd8aee2eccde1e]
class elki.utilities.ELKIServiceScanner--><a href="ELKIServiceScanner.html" target="_top" title="ELKIServiceScanner.html" xlink:actuate="onRequest" xlink:href="ELKIServiceScanner.html" xlink:show="new" xlink:title="ELKIServiceScanner.html" xlink:type="simple"><g id="elem_elki.utilities.ELKIServiceScanner"><rect codeLine="23" fill="#F1F1F1" height="37.9375" id="elki.utilities.ELKIServiceScanner" rx="2.5" ry="2.5" style="stroke:#181818;stroke-width:0.5;" width="167" x="203" y="30.5"/><ellipse cx="218" cy="49.4688" fill="#ADD1B2" rx="11" ry="11" style="stroke:#181818;stroke-width:1.0;"/><path d="M220.9688,55.1094 Q220.3906,55.4063 219.75,55.5469 Q219.1094,55.7031 218.4063,55.7031 Q215.9063,55.7031 214.5781,54.0625 Q213.2656,52.4063 213.2656,49.2813 Q213.2656,46.1563 214.5781,44.5 Q215.9063,42.8438 218.4063,42.8438 Q219.1094,42.8438 219.75,43 Q220.4063,43.1563 220.9688,43.4531 L220.9688,46.1719 Q220.3438,45.5938 219.75,45.3281 Q219.1563,45.0469 218.5313,45.0469 Q217.1875,45.0469 216.5,46.125 Q215.8125,47.1875 215.8125,49.2813 Q215.8125,51.375 216.5,52.4531 Q217.1875,53.5156 218.5313,53.5156 Q219.1563,53.5156 219.75,53.25 Q220.3438,52.9688 220.9688,52.3906 L220.9688,55.1094 Z " fill="#000000"/><text fill="#000000" font-family="sans-serif" font-size="14" lengthAdjust="spacing" textLength="135" x="232" y="48.4951">ELKIServiceScanner</text><text fill="#000000" font-family="sans-serif" font-size="10" lengthAdjust="spacing" textLength="51" x="274" y="61.0791">elki.utilities</text></g></a><!--MD5=[dc4ef1b8a1b55791a599ea5676c22dbb]
reverse link java.util.Iterator to elki.utilities.ELKIServiceScanner.DirClassIterator--><g id="link_java.util.Iterator_elki.utilities.ELKIServiceScanner.DirClassIterator"><path codeLine="25" d="M114.99,107.71 C121.18,120.57 127.93,134.63 134.75,148.81 " fill="none" id="java.util.Iterator-backto-elki.utilities.ELKIServiceScanner.DirClassIterator" style="stroke:#181818;stroke-width:1.0;stroke-dasharray:7.0,7.0;"/><polygon fill="none" points="108.48,110.31,106.12,89.25,121.09,104.24,108.48,110.31" style="stroke:#181818;stroke-width:1.0;"/></g><!--MD5=[bfba31567402bec58ffa49d35abaa9db]
reverse link elki.utilities.ELKIServiceScanner to elki.utilities.ELKIServiceScanner.DirClassIterator--><g id="link_elki.utilities.ELKIServiceScanner_elki.utilities.ELKIServiceScanner.DirClassIterator"><path codeLine="26" d="M271.06,82.3 C262.23,100.5 250.58,124.5 238.75,148.85 " fill="none" id="elki.utilities.ELKIServiceScanner-backto-elki.utilities.ELKIServiceScanner.DirClassIterator" style="stroke:#181818;stroke-width:1.0;"/><ellipse cx="274.1348" cy="75.9761" fill="#FFFFFF" rx="8" ry="8" style="stroke:#181818;stroke-width:1.0;"/><line style="stroke:#181818;stroke-width:1.0;" x1="270.6395" x2="277.63" y1="83.1721" y2="68.78"/><line style="stroke:#181818;stroke-width:1.0;" x1="266.9387" x2="281.3308" y1="72.4808" y2="79.4713"/></g><rect fill="none" height="11.6406" style="stroke:none;stroke-width:1.0;" width="186" x="88.5" y="371.9063"/><text fill="#888888" font-family="sans-serif" font-size="10" lengthAdjust="spacing" textLength="186" x="88.5" y="381.1885">UMLDoclet 2.0.19, PlantUML 1.2022.8</text><!--MD5=[49ba9d7983dd1e3166645acf6f6e13cc]
@startuml
    remove .*\.(Instance|Par|Parameterizer|Factory)$
    set namespaceSeparator none
    hide empty fields
    hide empty methods

    class "<size:14>ELKIServiceScanner.DirClassIterator\n<size:10>elki.utilities" as elki.utilities.ELKIServiceScanner.DirClassIterator [[ELKIServiceScanner.DirClassIterator.html]] {
        {static} -CLASS_EXT: String
        {static} -FACTORY_FILE_EXT: String
        {static} -CLASS_EXT_LENGTH: int
        -prefix: String
        -files: ArrayList<String>
        -folders: ArrayList<File>
        +DirClassIterator(File)
        +hasNext(): boolean
        -findNext(): void
        +next(): String
    }

    interface "<size:14>Iterator\n<size:10>java.util" as java.util.Iterator<String> {
        {abstract} +hasNext(): boolean
        {abstract} +next(): String
    }
    class "<size:14>ELKIServiceScanner\n<size:10>elki.utilities" as elki.utilities.ELKIServiceScanner [[ELKIServiceScanner.html]]

    java.util.Iterator <|.. elki.utilities.ELKIServiceScanner.DirClassIterator
    elki.utilities.ELKIServiceScanner +- - elki.utilities.ELKIServiceScanner.DirClassIterator

    center footer UMLDoclet 2.0.19, PlantUML 1.2022.8
@enduml

PlantUML version 1.2022.8(Sun Sep 25 11:00:33 CEST 2022)
(APACHE source distribution)
Java Runtime: OpenJDK Runtime Environment
JVM: OpenJDK 64-Bit Server VM
Default Encoding: UTF-8
Language: de
Country: DE
--></g></svg>