<?xml version="1.0" encoding="UTF-8" standalone="no"?><svg xmlns="http://www.w3.org/2000/svg" xmlns:xlink="http://www.w3.org/1999/xlink" contentStyleType="text/css" height="290px" preserveAspectRatio="none" style="width:316px;height:290px;background:#FFFFFF;" version="1.1" viewBox="0 0 316 290" width="316px" zoomAndPan="magnify"><defs/><g><!--MD5=[d6a5050cb812f630e08db97ec9d01500]
class elki.visualization.batikutil.AttributeModifier--><a href="AttributeModifier.html" target="_top" title="AttributeModifier.html" xlink:actuate="onRequest" xlink:href="AttributeModifier.html" xlink:show="new" xlink:title="AttributeModifier.html" xlink:type="simple"><g id="elem_elki.visualization.batikutil.AttributeModifier"><rect codeLine="6" fill="#F1F1F1" height="135.4219" id="elki.visualization.batikutil.AttributeModifier" rx="2.5" ry="2.5" style="stroke:#181818;stroke-width:0.5;" width="302" x="7" y="129"/><ellipse cx="95.75" cy="147.9688" fill="#ADD1B2" rx="11" ry="11" style="stroke:#181818;stroke-width:1.0;"/><path d="M98.7188,153.6094 Q98.1406,153.9063 97.5,154.0469 Q96.8594,154.2031 96.1563,154.2031 Q93.6563,154.2031 92.3281,152.5625 Q91.0156,150.9063 91.0156,147.7813 Q91.0156,144.6563 92.3281,143 Q93.6563,141.3438 96.1563,141.3438 Q96.8594,141.3438 97.5,141.5 Q98.1563,141.6563 98.7188,141.9531 L98.7188,144.6719 Q98.0938,144.0938 97.5,143.8281 Q96.9063,143.5469 96.2813,143.5469 Q94.9375,143.5469 94.25,144.625 Q93.5625,145.6875 93.5625,147.7813 Q93.5625,149.875 94.25,150.9531 Q94.9375,152.0156 96.2813,152.0156 Q96.9063,152.0156 97.5,151.75 Q98.0938,151.4688 98.7188,150.8906 L98.7188,153.6094 Z " fill="#000000"/><text fill="#000000" font-family="sans-serif" font-size="14" lengthAdjust="spacing" textLength="113" x="117.75" y="146.9951">AttributeModifier</text><text fill="#000000" font-family="sans-serif" font-size="10" lengthAdjust="spacing" textLength="116" x="116.25" y="159.5791">elki.visualization.batikutil</text><line style="stroke:#181818;stroke-width:0.5;" x1="8" x2="308" y1="166.9375" y2="166.9375"/><rect fill="none" height="6" style="stroke:#C82930;stroke-width:1.0;" width="6" x="15" y="177.5859"/><text fill="#000000" font-family="sans-serif" font-size="14" lengthAdjust="spacing" textLength="75" x="27" y="183.9326">e: Element</text><rect fill="none" height="6" style="stroke:#C82930;stroke-width:1.0;" width="6" x="15" y="193.8828"/><text fill="#000000" font-family="sans-serif" font-size="14" lengthAdjust="spacing" textLength="107" x="27" y="200.2295">attribute: String</text><rect fill="none" height="6" style="stroke:#C82930;stroke-width:1.0;" width="6" x="15" y="210.1797"/><text fill="#000000" font-family="sans-serif" font-size="14" lengthAdjust="spacing" textLength="116" x="27" y="216.5264">newValue: String</text><line style="stroke:#181818;stroke-width:0.5;" x1="8" x2="308" y1="223.8281" y2="223.8281"/><ellipse cx="18" cy="237.4766" fill="#84BE84" rx="3" ry="3" style="stroke:#038048;stroke-width:1.0;"/><text fill="#000000" font-family="sans-serif" font-size="14" lengthAdjust="spacing" textLength="276" x="27" y="240.8232">AttributeModifier(Element, String, String)</text><ellipse cx="18" cy="253.7734" fill="#84BE84" rx="3" ry="3" style="stroke:#038048;stroke-width:1.0;"/><text fill="#000000" font-family="sans-serif" font-size="14" lengthAdjust="spacing" textLength="70" x="27" y="257.1201">run(): void</text></g></a><!--MD5=[8dac795f9edbf65a524ac462449c98fb]
class java.lang.Runnable--><g id="elem_java.lang.Runnable"><rect codeLine="14" fill="#F1F1F1" height="62.2344" id="java.lang.Runnable" rx="2.5" ry="2.5" style="stroke:#181818;stroke-width:0.5;" width="100" x="108" y="7"/><ellipse cx="123" cy="25.9688" fill="#B4A7E5" rx="11" ry="11" style="stroke:#181818;stroke-width:1.0;"/><path d="M118.9219,21.7344 L118.9219,19.5781 L126.3125,19.5781 L126.3125,21.7344 L123.8438,21.7344 L123.8438,29.8125 L126.3125,29.8125 L126.3125,31.9688 L118.9219,31.9688 L118.9219,29.8125 L121.3906,29.8125 L121.3906,21.7344 L118.9219,21.7344 Z " fill="#000000"/><text fill="#000000" font-family="sans-serif" font-size="14" font-style="italic" lengthAdjust="spacing" textLength="68" x="137" y="24.9951">Runnable</text><text fill="#000000" font-family="sans-serif" font-size="10" font-style="italic" lengthAdjust="spacing" textLength="45" x="148.5" y="37.5791">java.lang</text><line style="stroke:#181818;stroke-width:0.5;" x1="109" x2="207" y1="44.9375" y2="44.9375"/><ellipse cx="119" cy="58.5859" fill="#84BE84" rx="3" ry="3" style="stroke:#038048;stroke-width:1.0;"/><text fill="#000000" font-family="sans-serif" font-size="14" font-style="italic" lengthAdjust="spacing" textLength="72" x="128" y="61.9326">run(): void</text></g><!--MD5=[0823d5720fe2dec695725af226e45436]
reverse link java.lang.Runnable to elki.visualization.batikutil.AttributeModifier--><g id="link_java.lang.Runnable_elki.visualization.batikutil.AttributeModifier"><path codeLine="18" d="M158,89.56 C158,102.06 158,115.66 158,128.8 " fill="none" id="java.lang.Runnable-backto-elki.visualization.batikutil.AttributeModifier" style="stroke:#181818;stroke-width:1.0;stroke-dasharray:7.0,7.0;"/><polygon fill="none" points="151,89.17,158,69.17,165,89.17,151,89.17" style="stroke:#181818;stroke-width:1.0;"/></g><rect fill="none" height="11.6406" style="stroke:none;stroke-width:1.0;" width="186" x="58" y="270.4219"/><text fill="#888888" font-family="sans-serif" font-size="10" lengthAdjust="spacing" textLength="186" x="58" y="279.7041">UMLDoclet 2.0.19, PlantUML 1.2022.8</text><!--MD5=[f8cfdb5dee3b27525c9bea077f8ad857]
@startuml
    remove .*\.(Instance|Par|Parameterizer|Factory)$
    set namespaceSeparator none
    hide empty fields
    hide empty methods

    class "<size:14>AttributeModifier\n<size:10>elki.visualization.batikutil" as elki.visualization.batikutil.AttributeModifier [[AttributeModifier.html]] {
        -e: Element
        -attribute: String
        -newValue: String
        +AttributeModifier(Element, String, String)
        +run(): void
    }

    interface "<size:14>Runnable\n<size:10>java.lang" as java.lang.Runnable {
        {abstract} +run(): void
    }

    java.lang.Runnable <|.. elki.visualization.batikutil.AttributeModifier

    center footer UMLDoclet 2.0.19, PlantUML 1.2022.8
@enduml

PlantUML version 1.2022.8(Sun Sep 25 11:00:33 CEST 2022)
(APACHE source distribution)
Java Runtime: OpenJDK Runtime Environment
JVM: OpenJDK 64-Bit Server VM
Default Encoding: UTF-8
Language: de
Country: DE
--></g></svg>