<?xml version="1.0" encoding="UTF-8" standalone="no"?><svg xmlns="http://www.w3.org/2000/svg" xmlns:xlink="http://www.w3.org/1999/xlink" contentStyleType="text/css" height="225px" preserveAspectRatio="none" style="width:407px;height:225px;background:#FFFFFF;" version="1.1" viewBox="0 0 407 225" width="407px" zoomAndPan="magnify"><defs/><g><!--MD5=[294a028590ff8a341de3b9fdb2b3ce8f]
class elki.visualization.batikutil.CloneInlineImages--><a href="CloneInlineImages.html" target="_top" title="CloneInlineImages.html" xlink:actuate="onRequest" xlink:href="CloneInlineImages.html" xlink:show="new" xlink:title="CloneInlineImages.html" xlink:type="simple"><g id="elem_elki.visualization.batikutil.CloneInlineImages"><rect codeLine="6" fill="#F1F1F1" height="94.8281" id="elki.visualization.batikutil.CloneInlineImages" rx="2.5" ry="2.5" style="stroke:#181818;stroke-width:0.5;" width="391" x="9" y="105"/><ellipse cx="137.25" cy="123.9688" fill="#ADD1B2" rx="11" ry="11" style="stroke:#181818;stroke-width:1.0;"/><path d="M140.2188,129.6094 Q139.6406,129.9063 139,130.0469 Q138.3594,130.2031 137.6563,130.2031 Q135.1563,130.2031 133.8281,128.5625 Q132.5156,126.9063 132.5156,123.7813 Q132.5156,120.6563 133.8281,119 Q135.1563,117.3438 137.6563,117.3438 Q138.3594,117.3438 139,117.5 Q139.6563,117.6563 140.2188,117.9531 L140.2188,120.6719 Q139.5938,120.0938 139,119.8281 Q138.4063,119.5469 137.7813,119.5469 Q136.4375,119.5469 135.75,120.625 Q135.0625,121.6875 135.0625,123.7813 Q135.0625,125.875 135.75,126.9531 Q136.4375,128.0156 137.7813,128.0156 Q138.4063,128.0156 139,127.75 Q139.5938,127.4688 140.2188,126.8906 L140.2188,129.6094 Z " fill="#000000"/><text fill="#000000" font-family="sans-serif" font-size="14" lengthAdjust="spacing" textLength="126" x="157.75" y="122.9951">CloneInlineImages</text><text fill="#000000" font-family="sans-serif" font-size="10" lengthAdjust="spacing" textLength="116" x="162.75" y="135.5791">elki.visualization.batikutil</text><line style="stroke:#181818;stroke-width:0.5;" x1="10" x2="399" y1="142.9375" y2="142.9375"/><ellipse cx="20" cy="156.5859" fill="#84BE84" rx="3" ry="3" style="stroke:#038048;stroke-width:1.0;"/><text fill="#000000" font-family="sans-serif" font-size="14" lengthAdjust="spacing" textLength="249" x="29" y="159.9326">cloneNode(Document, Node): Node</text><polygon fill="#FFFF44" points="20,167.8828,24,171.8828,20,175.8828,16,171.8828" style="stroke:#B38D22;stroke-width:1.0;"/><text fill="#000000" font-family="sans-serif" font-size="14" lengthAdjust="spacing" textLength="365" x="29" y="176.2295">inlineThumbnail(Document, ParsedURL, Node): Node</text><polygon fill="#FFFF44" points="20,184.1797,24,188.1797,20,192.1797,16,188.1797" style="stroke:#B38D22;stroke-width:1.0;"/><text fill="#000000" font-family="sans-serif" font-size="14" lengthAdjust="spacing" textLength="348" x="29" y="192.5264">inlineExternal(Document, ParsedURL, Node): Node</text></g></a><!--MD5=[deab6d44f43efb32cb57c48d4e2a99a7]
class elki.visualization.svg.SVGCloneVisible--><a href="../svg/SVGCloneVisible.html" target="_top" title="../svg/SVGCloneVisible.html" xlink:actuate="onRequest" xlink:href="../svg/SVGCloneVisible.html" xlink:show="new" xlink:title="../svg/SVGCloneVisible.html" xlink:type="simple"><g id="elem_elki.visualization.svg.SVGCloneVisible"><rect codeLine="12" fill="#F1F1F1" height="37.9375" id="elki.visualization.svg.SVGCloneVisible" rx="2.5" ry="2.5" style="stroke:#181818;stroke-width:0.5;" width="145" x="132" y="7"/><ellipse cx="147" cy="25.9688" fill="#ADD1B2" rx="11" ry="11" style="stroke:#181818;stroke-width:1.0;"/><path d="M149.9688,31.6094 Q149.3906,31.9063 148.75,32.0469 Q148.1094,32.2031 147.4063,32.2031 Q144.9063,32.2031 143.5781,30.5625 Q142.2656,28.9063 142.2656,25.7813 Q142.2656,22.6563 143.5781,21 Q144.9063,19.3438 147.4063,19.3438 Q148.1094,19.3438 148.75,19.5 Q149.4063,19.6563 149.9688,19.9531 L149.9688,22.6719 Q149.3438,22.0938 148.75,21.8281 Q148.1563,21.5469 147.5313,21.5469 Q146.1875,21.5469 145.5,22.625 Q144.8125,23.6875 144.8125,25.7813 Q144.8125,27.875 145.5,28.9531 Q146.1875,30.0156 147.5313,30.0156 Q148.1563,30.0156 148.75,29.75 Q149.3438,29.4688 149.9688,28.8906 L149.9688,31.6094 Z " fill="#000000"/><text fill="#000000" font-family="sans-serif" font-size="14" lengthAdjust="spacing" textLength="113" x="161" y="24.9951">SVGCloneVisible</text><text fill="#000000" font-family="sans-serif" font-size="10" lengthAdjust="spacing" textLength="96" x="169.5" y="37.5791">elki.visualization.svg</text></g></a><!--MD5=[9355e2f3126a5efe3c018742cef4ba2b]
reverse link elki.visualization.svg.SVGCloneVisible to elki.visualization.batikutil.CloneInlineImages--><g id="link_elki.visualization.svg.SVGCloneVisible_elki.visualization.batikutil.CloneInlineImages"><path codeLine="14" d="M204.5,65.4 C204.5,77.88 204.5,91.87 204.5,104.88 " fill="none" id="elki.visualization.svg.SVGCloneVisible-backto-elki.visualization.batikutil.CloneInlineImages" style="stroke:#181818;stroke-width:1.0;"/><polygon fill="none" points="197.5,65.1,204.5,45.1,211.5,65.1,197.5,65.1" style="stroke:#181818;stroke-width:1.0;"/></g><rect fill="none" height="11.6406" style="stroke:none;stroke-width:1.0;" width="186" x="103.5" y="205.8281"/><text fill="#888888" font-family="sans-serif" font-size="10" lengthAdjust="spacing" textLength="186" x="103.5" y="215.1104">UMLDoclet 2.0.19, PlantUML 1.2022.8</text><!--MD5=[c8d6bbdfb135153b5e63662a0ecf2319]
@startuml
    remove .*\.(Instance|Par|Parameterizer|Factory)$
    set namespaceSeparator none
    hide empty fields
    hide empty methods

    class "<size:14>CloneInlineImages\n<size:10>elki.visualization.batikutil" as elki.visualization.batikutil.CloneInlineImages [[CloneInlineImages.html]] {
        +cloneNode(Document, Node): Node
        #inlineThumbnail(Document, ParsedURL, Node): Node
        #inlineExternal(Document, ParsedURL, Node): Node
    }

    class "<size:14>SVGCloneVisible\n<size:10>elki.visualization.svg" as elki.visualization.svg.SVGCloneVisible [[../svg/SVGCloneVisible.html]]

    elki.visualization.svg.SVGCloneVisible <|- - elki.visualization.batikutil.CloneInlineImages

    center footer UMLDoclet 2.0.19, PlantUML 1.2022.8
@enduml

PlantUML version 1.2022.8(Sun Sep 25 11:00:33 CEST 2022)
(APACHE source distribution)
Java Runtime: OpenJDK Runtime Environment
JVM: OpenJDK 64-Bit Server VM
Default Encoding: UTF-8
Language: de
Country: DE
--></g></svg>