<?xml version="1.0" encoding="UTF-8" standalone="no"?><svg xmlns="http://www.w3.org/2000/svg" xmlns:xlink="http://www.w3.org/1999/xlink" contentStyleType="text/css" height="452px" preserveAspectRatio="none" style="width:428px;height:452px;background:#FFFFFF;" version="1.1" viewBox="0 0 428 452" width="428px" zoomAndPan="magnify"><defs/><g><!--MD5=[bc772edaaaf0e1735e3487c4858aa828]
class elki.visualization.batikutil.JSVGUpdateSynchronizer--><a href="JSVGUpdateSynchronizer.html" target="_top" title="JSVGUpdateSynchronizer.html" xlink:actuate="onRequest" xlink:href="JSVGUpdateSynchronizer.html" xlink:show="new" xlink:title="JSVGUpdateSynchronizer.html" xlink:type="simple"><g id="elem_elki.visualization.batikutil.JSVGUpdateSynchronizer"><rect codeLine="6" fill="#F1F1F1" height="184.3125" id="elki.visualization.batikutil.JSVGUpdateSynchronizer" rx="2.5" ry="2.5" style="stroke:#181818;stroke-width:0.5;" width="412" x="9" y="146"/><ellipse cx="124.75" cy="164.9688" fill="#ADD1B2" rx="11" ry="11" style="stroke:#181818;stroke-width:1.0;"/><path d="M127.7188,170.6094 Q127.1406,170.9063 126.5,171.0469 Q125.8594,171.2031 125.1563,171.2031 Q122.6563,171.2031 121.3281,169.5625 Q120.0156,167.9063 120.0156,164.7813 Q120.0156,161.6563 121.3281,160 Q122.6563,158.3438 125.1563,158.3438 Q125.8594,158.3438 126.5,158.5 Q127.1563,158.6563 127.7188,158.9531 L127.7188,161.6719 Q127.0938,161.0938 126.5,160.8281 Q125.9063,160.5469 125.2813,160.5469 Q123.9375,160.5469 123.25,161.625 Q122.5625,162.6875 122.5625,164.7813 Q122.5625,166.875 123.25,167.9531 Q123.9375,169.0156 125.2813,169.0156 Q125.9063,169.0156 126.5,168.75 Q127.0938,168.4688 127.7188,167.8906 L127.7188,170.6094 Z " fill="#000000"/><text fill="#000000" font-family="sans-serif" font-size="14" lengthAdjust="spacing" textLength="172" x="145.25" y="163.9951">JSVGUpdateSynchronizer</text><text fill="#000000" font-family="sans-serif" font-size="10" lengthAdjust="spacing" textLength="116" x="173.25" y="176.5791">elki.visualization.batikutil</text><line style="stroke:#181818;stroke-width:0.5;" x1="10" x2="420" y1="183.9375" y2="183.9375"/><rect fill="none" height="6" style="stroke:#C82930;stroke-width:1.0;" width="6" x="17" y="194.5859"/><text fill="#000000" font-family="sans-serif" font-size="14" lengthAdjust="spacing" textLength="283" x="29" y="200.9326">cref: WeakReference&lt;JSVGComponent&gt;</text><rect fill="none" height="6" style="stroke:#C82930;stroke-width:1.0;" width="6" x="17" y="210.8828"/><text fill="#000000" font-family="sans-serif" font-size="14" lengthAdjust="spacing" textLength="386" x="29" y="217.2295">updaterunner: Set&lt;WeakReference&lt;UpdateRunner&gt;&gt;</text><rect fill="none" height="6" style="stroke:#C82930;stroke-width:1.0;" width="6" x="17" y="227.1797"/><text fill="#000000" font-family="sans-serif" font-size="14" lengthAdjust="spacing" textLength="160" x="29" y="233.5264">umadapter: UMAdapter</text><rect fill="none" height="6" style="stroke:#C82930;stroke-width:1.0;" width="6" x="17" y="243.4766"/><text fill="#000000" font-family="sans-serif" font-size="14" lengthAdjust="spacing" textLength="275" x="29" y="249.8232">pending: AtomicReference&lt;Runnable&gt;</text><line style="stroke:#181818;stroke-width:0.5;" x1="10" x2="420" y1="257.125" y2="257.125"/><polygon fill="#FFFF44" points="20,265.7734,24,269.7734,20,273.7734,16,269.7734" style="stroke:#B38D22;stroke-width:1.0;"/><text fill="#000000" font-family="sans-serif" font-size="14" lengthAdjust="spacing" textLength="296" x="29" y="274.1201">JSVGUpdateSynchronizer(JSVGComponent)</text><ellipse cx="20" cy="287.0703" fill="#84BE84" rx="3" ry="3" style="stroke:#038048;stroke-width:1.0;"/><text fill="#000000" font-family="sans-serif" font-size="14" lengthAdjust="spacing" textLength="100" x="29" y="290.417">activate(): void</text><polygon fill="#FFFF44" points="20,298.3672,24,302.3672,20,306.3672,16,302.3672" style="stroke:#B38D22;stroke-width:1.0;"/><text fill="#000000" font-family="sans-serif" font-size="14" lengthAdjust="spacing" textLength="198" x="29" y="306.7139">makeRunnerIfNeeded(): void</text><ellipse cx="20" cy="319.6641" fill="#84BE84" rx="3" ry="3" style="stroke:#038048;stroke-width:1.0;"/><text fill="#000000" font-family="sans-serif" font-size="14" lengthAdjust="spacing" textLength="275" x="29" y="323.0107">addUpdateRunner(UpdateRunner): void</text></g></a><!--MD5=[e3d8b9d905c11f909c1c842dc8deb0fe]
class elki.visualization.svg.UpdateSynchronizer--><a href="../svg/UpdateSynchronizer.html" target="_top" title="../svg/UpdateSynchronizer.html" xlink:actuate="onRequest" xlink:href="../svg/UpdateSynchronizer.html" xlink:show="new" xlink:title="../svg/UpdateSynchronizer.html" xlink:type="simple"><g id="elem_elki.visualization.svg.UpdateSynchronizer"><rect codeLine="17" fill="#F1F1F1" height="78.5313" id="elki.visualization.svg.UpdateSynchronizer" rx="2.5" ry="2.5" style="stroke:#181818;stroke-width:0.5;" width="306" x="62" y="7"/><ellipse cx="139.75" cy="25.9688" fill="#B4A7E5" rx="11" ry="11" style="stroke:#181818;stroke-width:1.0;"/><path d="M135.6719,21.7344 L135.6719,19.5781 L143.0625,19.5781 L143.0625,21.7344 L140.5938,21.7344 L140.5938,29.8125 L143.0625,29.8125 L143.0625,31.9688 L135.6719,31.9688 L135.6719,29.8125 L138.1406,29.8125 L138.1406,21.7344 L135.6719,21.7344 Z " fill="#000000"/><text fill="#000000" font-family="sans-serif" font-size="14" font-style="italic" lengthAdjust="spacing" textLength="142" x="160.25" y="24.9951">UpdateSynchronizer</text><text fill="#000000" font-family="sans-serif" font-size="10" font-style="italic" lengthAdjust="spacing" textLength="103" x="179.75" y="37.5791">elki.visualization.svg</text><line style="stroke:#181818;stroke-width:0.5;" x1="63" x2="367" y1="44.9375" y2="44.9375"/><ellipse cx="73" cy="58.5859" fill="#84BE84" rx="3" ry="3" style="stroke:#038048;stroke-width:1.0;"/><text fill="#000000" font-family="sans-serif" font-size="14" font-style="italic" lengthAdjust="spacing" textLength="106" x="82" y="61.9326">activate(): void</text><ellipse cx="73" cy="74.8828" fill="#84BE84" rx="3" ry="3" style="stroke:#038048;stroke-width:1.0;"/><text fill="#000000" font-family="sans-serif" font-size="14" font-style="italic" lengthAdjust="spacing" textLength="280" x="82" y="78.2295">addUpdateRunner(UpdateRunner): void</text></g></a><!--MD5=[49364471ab3c5b0f2ffdfb8cb16e530c]
class elki.visualization.batikutil.JSVGUpdateSynchronizer.UMAdapter--><a href="JSVGUpdateSynchronizer.UMAdapter.html" target="_top" title="JSVGUpdateSynchronizer.UMAdapter.html" xlink:actuate="onRequest" xlink:href="JSVGUpdateSynchronizer.UMAdapter.html" xlink:show="new" xlink:title="JSVGUpdateSynchronizer.UMAdapter.html" xlink:type="simple"><g id="elem_elki.visualization.batikutil.JSVGUpdateSynchronizer.UMAdapter"><rect codeLine="21" fill="#F1F1F1" height="37.9375" id="elki.visualization.batikutil.JSVGUpdateSynchronizer.UMAdapter" rx="2.5" ry="2.5" style="stroke:#181818;stroke-width:0.5;" width="284" x="73" y="390"/><ellipse cx="88" cy="408.9688" fill="#ADD1B2" rx="11" ry="11" style="stroke:#181818;stroke-width:1.0;"/><path d="M90.9688,414.6094 Q90.3906,414.9063 89.75,415.0469 Q89.1094,415.2031 88.4063,415.2031 Q85.9063,415.2031 84.5781,413.5625 Q83.2656,411.9063 83.2656,408.7813 Q83.2656,405.6563 84.5781,404 Q85.9063,402.3438 88.4063,402.3438 Q89.1094,402.3438 89.75,402.5 Q90.4063,402.6563 90.9688,402.9531 L90.9688,405.6719 Q90.3438,405.0938 89.75,404.8281 Q89.1563,404.5469 88.5313,404.5469 Q87.1875,404.5469 86.5,405.625 Q85.8125,406.6875 85.8125,408.7813 Q85.8125,410.875 86.5,411.9531 Q87.1875,413.0156 88.5313,413.0156 Q89.1563,413.0156 89.75,412.75 Q90.3438,412.4688 90.9688,411.8906 L90.9688,414.6094 Z " fill="#000000"/><text fill="#000000" font-family="sans-serif" font-size="14" lengthAdjust="spacing" textLength="252" x="102" y="407.9951">JSVGUpdateSynchronizer.UMAdapter</text><text fill="#000000" font-family="sans-serif" font-size="10" lengthAdjust="spacing" textLength="116" x="170" y="420.5791">elki.visualization.batikutil</text></g></a><!--MD5=[33f3562002d07a39b6eef8ee3bc86b1e]
reverse link elki.visualization.svg.UpdateSynchronizer to elki.visualization.batikutil.JSVGUpdateSynchronizer--><g id="link_elki.visualization.svg.UpdateSynchronizer_elki.visualization.batikutil.JSVGUpdateSynchronizer"><path codeLine="23" d="M215,106.76 C215,119.18 215,132.55 215,145.82 " fill="none" id="elki.visualization.svg.UpdateSynchronizer-backto-elki.visualization.batikutil.JSVGUpdateSynchronizer" style="stroke:#181818;stroke-width:1.0;stroke-dasharray:7.0,7.0;"/><polygon fill="none" points="208,106.31,215,86.31,222,106.31,208,106.31" style="stroke:#181818;stroke-width:1.0;"/></g><!--MD5=[acb587f599f4af100ace55ea731b44f6]
reverse link elki.visualization.batikutil.JSVGUpdateSynchronizer to elki.visualization.batikutil.JSVGUpdateSynchronizer.UMAdapter--><g id="link_elki.visualization.batikutil.JSVGUpdateSynchronizer_elki.visualization.batikutil.JSVGUpdateSynchronizer.UMAdapter"><path codeLine="24" d="M215,345.68 C215,362.75 215,378.51 215,389.92 " fill="none" id="elki.visualization.batikutil.JSVGUpdateSynchronizer-backto-elki.visualization.batikutil.JSVGUpdateSynchronizer.UMAdapter" style="stroke:#181818;stroke-width:1.0;"/><ellipse cx="215" cy="338.42" fill="#FFFFFF" rx="8" ry="8" style="stroke:#181818;stroke-width:1.0;"/><line style="stroke:#181818;stroke-width:1.0;" x1="215" x2="215" y1="346.42" y2="330.42"/><line style="stroke:#181818;stroke-width:1.0;" x1="207" x2="223" y1="338.42" y2="338.42"/></g><rect fill="none" height="11.6406" style="stroke:none;stroke-width:1.0;" width="186" x="114" y="432.9375"/><text fill="#888888" font-family="sans-serif" font-size="10" lengthAdjust="spacing" textLength="186" x="114" y="442.2197">UMLDoclet 2.0.19, PlantUML 1.2022.8</text><!--MD5=[3ab2203eb46ce71ae5f8a7137fdd7a40]
@startuml
    remove .*\.(Instance|Par|Parameterizer|Factory)$
    set namespaceSeparator none
    hide empty fields
    hide empty methods

    class "<size:14>JSVGUpdateSynchronizer\n<size:10>elki.visualization.batikutil" as elki.visualization.batikutil.JSVGUpdateSynchronizer [[JSVGUpdateSynchronizer.html]] {
        -cref: WeakReference<JSVGComponent>
        -updaterunner: Set<WeakReference<UpdateRunner>>
        -umadapter: UMAdapter
        -pending: AtomicReference<Runnable>
        #JSVGUpdateSynchronizer(JSVGComponent)
        +activate(): void
        #makeRunnerIfNeeded(): void
        +addUpdateRunner(UpdateRunner): void
    }

    interface "<size:14>UpdateSynchronizer\n<size:10>elki.visualization.svg" as elki.visualization.svg.UpdateSynchronizer [[../svg/UpdateSynchronizer.html]] {
        {abstract} +activate(): void
        {abstract} +addUpdateRunner(UpdateRunner): void
    }
    class "<size:14>JSVGUpdateSynchronizer.UMAdapter\n<size:10>elki.visualization.batikutil" as elki.visualization.batikutil.JSVGUpdateSynchronizer.UMAdapter [[JSVGUpdateSynchronizer.UMAdapter.html]]

    elki.visualization.svg.UpdateSynchronizer <|.. elki.visualization.batikutil.JSVGUpdateSynchronizer
    elki.visualization.batikutil.JSVGUpdateSynchronizer +- - elki.visualization.batikutil.JSVGUpdateSynchronizer.UMAdapter

    center footer UMLDoclet 2.0.19, PlantUML 1.2022.8
@enduml

PlantUML version 1.2022.8(Sun Sep 25 11:00:33 CEST 2022)
(APACHE source distribution)
Java Runtime: OpenJDK Runtime Environment
JVM: OpenJDK 64-Bit Server VM
Default Encoding: UTF-8
Language: de
Country: DE
--></g></svg>