<?xml version="1.0" encoding="UTF-8" standalone="no"?><svg xmlns="http://www.w3.org/2000/svg" xmlns:xlink="http://www.w3.org/1999/xlink" contentStyleType="text/css" height="290px" preserveAspectRatio="none" style="width:342px;height:290px;background:#FFFFFF;" version="1.1" viewBox="0 0 342 290" width="342px" zoomAndPan="magnify"><defs/><g><!--MD5=[52ff50024a145d61bb81d1f8a5635593]
class elki.visualization.batikutil.NodeReplaceByID--><a href="NodeReplaceByID.html" target="_top" title="NodeReplaceByID.html" xlink:actuate="onRequest" xlink:href="NodeReplaceByID.html" xlink:show="new" xlink:title="NodeReplaceByID.html" xlink:type="simple"><g id="elem_elki.visualization.batikutil.NodeReplaceByID"><rect codeLine="6" fill="#F1F1F1" height="135.4219" id="elki.visualization.batikutil.NodeReplaceByID" rx="2.5" ry="2.5" style="stroke:#181818;stroke-width:0.5;" width="328" x="7" y="129"/><ellipse cx="104.75" cy="147.9688" fill="#ADD1B2" rx="11" ry="11" style="stroke:#181818;stroke-width:1.0;"/><path d="M107.7188,153.6094 Q107.1406,153.9063 106.5,154.0469 Q105.8594,154.2031 105.1563,154.2031 Q102.6563,154.2031 101.3281,152.5625 Q100.0156,150.9063 100.0156,147.7813 Q100.0156,144.6563 101.3281,143 Q102.6563,141.3438 105.1563,141.3438 Q105.8594,141.3438 106.5,141.5 Q107.1563,141.6563 107.7188,141.9531 L107.7188,144.6719 Q107.0938,144.0938 106.5,143.8281 Q105.9063,143.5469 105.2813,143.5469 Q103.9375,143.5469 103.25,144.625 Q102.5625,145.6875 102.5625,147.7813 Q102.5625,149.875 103.25,150.9531 Q103.9375,152.0156 105.2813,152.0156 Q105.9063,152.0156 106.5,151.75 Q107.0938,151.4688 107.7188,150.8906 L107.7188,153.6094 Z " fill="#000000"/><text fill="#000000" font-family="sans-serif" font-size="14" lengthAdjust="spacing" textLength="124" x="125.25" y="146.9951">NodeReplaceByID</text><text fill="#000000" font-family="sans-serif" font-size="10" lengthAdjust="spacing" textLength="116" x="129.25" y="159.5791">elki.visualization.batikutil</text><line style="stroke:#181818;stroke-width:0.5;" x1="8" x2="334" y1="166.9375" y2="166.9375"/><rect fill="none" height="6" style="stroke:#C82930;stroke-width:1.0;" width="6" x="15" y="177.5859"/><text fill="#000000" font-family="sans-serif" font-size="14" lengthAdjust="spacing" textLength="90" x="27" y="183.9326">plot: SVGPlot</text><rect fill="none" height="6" style="stroke:#C82930;stroke-width:1.0;" width="6" x="15" y="193.8828"/><text fill="#000000" font-family="sans-serif" font-size="14" lengthAdjust="spacing" textLength="61" x="27" y="200.2295">id: String</text><rect fill="none" height="6" style="stroke:#C82930;stroke-width:1.0;" width="6" x="15" y="210.1797"/><text fill="#000000" font-family="sans-serif" font-size="14" lengthAdjust="spacing" textLength="104" x="27" y="216.5264">newe: Element</text><line style="stroke:#181818;stroke-width:0.5;" x1="8" x2="334" y1="223.8281" y2="223.8281"/><ellipse cx="18" cy="237.4766" fill="#84BE84" rx="3" ry="3" style="stroke:#038048;stroke-width:1.0;"/><text fill="#000000" font-family="sans-serif" font-size="14" lengthAdjust="spacing" textLength="302" x="27" y="240.8232">NodeReplaceByID(Element, SVGPlot, String)</text><ellipse cx="18" cy="253.7734" fill="#84BE84" rx="3" ry="3" style="stroke:#038048;stroke-width:1.0;"/><text fill="#000000" font-family="sans-serif" font-size="14" lengthAdjust="spacing" textLength="70" x="27" y="257.1201">run(): void</text></g></a><!--MD5=[8dac795f9edbf65a524ac462449c98fb]
class java.lang.Runnable--><g id="elem_java.lang.Runnable"><rect codeLine="14" fill="#F1F1F1" height="62.2344" id="java.lang.Runnable" rx="2.5" ry="2.5" style="stroke:#181818;stroke-width:0.5;" width="100" x="121" y="7"/><ellipse cx="136" cy="25.9688" fill="#B4A7E5" rx="11" ry="11" style="stroke:#181818;stroke-width:1.0;"/><path d="M131.9219,21.7344 L131.9219,19.5781 L139.3125,19.5781 L139.3125,21.7344 L136.8438,21.7344 L136.8438,29.8125 L139.3125,29.8125 L139.3125,31.9688 L131.9219,31.9688 L131.9219,29.8125 L134.3906,29.8125 L134.3906,21.7344 L131.9219,21.7344 Z " fill="#000000"/><text fill="#000000" font-family="sans-serif" font-size="14" font-style="italic" lengthAdjust="spacing" textLength="68" x="150" y="24.9951">Runnable</text><text fill="#000000" font-family="sans-serif" font-size="10" font-style="italic" lengthAdjust="spacing" textLength="45" x="161.5" y="37.5791">java.lang</text><line style="stroke:#181818;stroke-width:0.5;" x1="122" x2="220" y1="44.9375" y2="44.9375"/><ellipse cx="132" cy="58.5859" fill="#84BE84" rx="3" ry="3" style="stroke:#038048;stroke-width:1.0;"/><text fill="#000000" font-family="sans-serif" font-size="14" font-style="italic" lengthAdjust="spacing" textLength="72" x="141" y="61.9326">run(): void</text></g><!--MD5=[d70a17d640481e4d5dc97dc9bcd98c89]
reverse link java.lang.Runnable to elki.visualization.batikutil.NodeReplaceByID--><g id="link_java.lang.Runnable_elki.visualization.batikutil.NodeReplaceByID"><path codeLine="18" d="M171,89.56 C171,102.06 171,115.66 171,128.8 " fill="none" id="java.lang.Runnable-backto-elki.visualization.batikutil.NodeReplaceByID" style="stroke:#181818;stroke-width:1.0;stroke-dasharray:7.0,7.0;"/><polygon fill="none" points="164,89.17,171,69.17,178,89.17,164,89.17" style="stroke:#181818;stroke-width:1.0;"/></g><rect fill="none" height="11.6406" style="stroke:none;stroke-width:1.0;" width="186" x="71" y="270.4219"/><text fill="#888888" font-family="sans-serif" font-size="10" lengthAdjust="spacing" textLength="186" x="71" y="279.7041">UMLDoclet 2.0.19, PlantUML 1.2022.8</text><!--MD5=[0b7bd6451f203d9c222b5b2e3e21a3f4]
@startuml
    remove .*\.(Instance|Par|Parameterizer|Factory)$
    set namespaceSeparator none
    hide empty fields
    hide empty methods

    class "<size:14>NodeReplaceByID\n<size:10>elki.visualization.batikutil" as elki.visualization.batikutil.NodeReplaceByID [[NodeReplaceByID.html]] {
        -plot: SVGPlot
        -id: String
        -newe: Element
        +NodeReplaceByID(Element, SVGPlot, String)
        +run(): void
    }

    interface "<size:14>Runnable\n<size:10>java.lang" as java.lang.Runnable {
        {abstract} +run(): void
    }

    java.lang.Runnable <|.. elki.visualization.batikutil.NodeReplaceByID

    center footer UMLDoclet 2.0.19, PlantUML 1.2022.8
@enduml

PlantUML version 1.2022.8(Sun Sep 25 11:00:33 CEST 2022)
(APACHE source distribution)
Java Runtime: OpenJDK Runtime Environment
JVM: OpenJDK 64-Bit Server VM
Default Encoding: UTF-8
Language: de
Country: DE
--></g></svg>