<?xml version="1.0" encoding="UTF-8" standalone="no"?>
<!DOCTYPE svg PUBLIC "-//W3C//DTD SVG 1.1//EN"
 "http://www.w3.org/Graphics/SVG/1.1/DTD/svg11.dtd">
<!-- Generated by graphviz version 2.40.1 (20161225.0304)
 -->
<!-- Title: G Pages: 1 -->
<svg width="277pt" height="83pt"
 viewBox="0.00 0.00 277.00 82.50" xmlns="http://www.w3.org/2000/svg" xmlns:xlink="http://www.w3.org/1999/xlink">
<g id="graph0" class="graph" transform="scale(1 1) rotate(0) translate(4 78.5)">
<title>G</title>
<polygon fill="#ffffff" stroke="transparent" points="-4,4 -4,-78.5 273,-78.5 273,4 -4,4"/>
<!-- c4222544 -->
<g id="node1" class="node">
<title>c4222544</title>
<g id="a_node1"><a xlink:href="FPGrowth.html" xlink:title="&lt;TABLE&gt;">
<g id="a_node1_0"><a xlink:href="FPGrowth.html" xlink:title="de.lmu.ifi.dbs.elki.algorithm.itemsetmining.FPGrowth" target="_parent">
<polygon fill="none" stroke="#000000" points=".5,.5 .5,-16.5 49.5,-16.5 49.5,.5 .5,.5"/>
<text text-anchor="start" x="4.5" y="-7.1" font-family="Roboto" font-size="8.00" fill="#000000"> </text>
<text text-anchor="start" x="7.5" y="-7.1" font-family="Roboto" font-size="8.00" fill="#000000">FPGrowth</text>
<text text-anchor="start" x="42.5" y="-7.1" font-family="Roboto" font-size="8.00" fill="#000000"> </text>
</a>
</g>
</a>
</g>
</g>
<!-- c4222545 -->
<g id="node2" class="node">
<title>c4222545</title>
<g id="a_node2"><a xlink:href="FPGrowth.FPTree.html" xlink:title="&lt;TABLE&gt;">
<g id="a_node2_1"><a xlink:href="FPGrowth.FPTree.html" xlink:title="de.lmu.ifi.dbs.elki.algorithm.itemsetmining.FPGrowth.FPTree" target="_parent">
<polygon fill="#fffacd" stroke="transparent" points="67,0 67,-17 143,-17 143,0 67,0"/>
<polygon fill="none" stroke="#000000" points="67,.5 67,-16.5 143,-16.5 143,.5 67,.5"/>
<text text-anchor="start" x="71" y="-7.1" font-family="Roboto" font-size="8.00" fill="#000000"> </text>
<text text-anchor="start" x="74" y="-7.1" font-family="Roboto" font-size="8.00" fill="#000000">FPGrowth.FPTree</text>
<text text-anchor="start" x="136" y="-7.1" font-family="Roboto" font-size="8.00" fill="#000000"> </text>
</a>
</g>
</a>
</g>
</g>
<!-- c4222544&#45;&gt;c4222545 -->
<g id="edge1" class="edge">
<title>c4222544&#45;&gt;c4222545</title>
<path fill="none" stroke="#000000" d="M61.2346,-8.5C63.1248,-8.5 65.0254,-8.5 66.9195,-8.5"/>
<polygon fill="#000000" stroke="#000000" points="61.0901,-8.5001 55.09,-12.5 49.0901,-8.5 55.0901,-4.5 61.0901,-8.5001"/>
</g>
<!-- c4222546 -->
<g id="node3" class="node">
<title>c4222546</title>
<g id="a_node3"><a xlink:href="FPGrowth.FPTree.Collector.html" xlink:title="&lt;TABLE&gt;">
<g id="a_node3_2"><a xlink:href="FPGrowth.FPTree.Collector.html" xlink:title="de.lmu.ifi.dbs.elki.algorithm.itemsetmining.FPGrowth.FPTree.Collector" target="_parent">
<polygon fill="none" stroke="#000000" points="161,-46.5 161,-74.5 269,-74.5 269,-46.5 161,-46.5"/>
<text text-anchor="start" x="193.5" y="-64.1" font-family="Roboto" font-size="8.00" fill="#000000"> «interface» </text>
<text text-anchor="start" x="165" y="-54.1" font-family="Roboto" font-size="8.00" fill="#000000"> </text>
<text text-anchor="start" x="168" y="-54.1" font-family="Roboto" font-size="8.00" fill="#000000">FPGrowth.FPTree.Collector</text>
<text text-anchor="start" x="262" y="-54.1" font-family="Roboto" font-size="8.00" fill="#000000"> </text>
</a>
</g>
</a>
</g>
</g>
<!-- c4222545&#45;&gt;c4222546 -->
<g id="edge4" class="edge">
<title>c4222545&#45;&gt;c4222546</title>
<path fill="none" stroke="#000000" d="M118.4736,-17.0362C129.6138,-23.8877 145.9844,-33.4873 161,-40.5 165.4385,-42.5729 170.1563,-44.585 174.8837,-46.4836"/>
</g>
<!-- c4222547 -->
<g id="node4" class="node">
<title>c4222547</title>
<g id="a_node4"><a xlink:href="FPGrowth.FPNode.html" xlink:title="&lt;TABLE&gt;">
<g id="a_node4_3"><a xlink:href="FPGrowth.FPNode.html" xlink:title="de.lmu.ifi.dbs.elki.algorithm.itemsetmining.FPGrowth.FPNode" target="_parent">
<polygon fill="none" stroke="#000000" points="176,.5 176,-16.5 254,-16.5 254,.5 176,.5"/>
<text text-anchor="start" x="180" y="-7.1" font-family="Roboto" font-size="8.00" fill="#000000"> </text>
<text text-anchor="start" x="183" y="-7.1" font-family="Roboto" font-size="8.00" fill="#000000">FPGrowth.FPNode</text>
<text text-anchor="start" x="247" y="-7.1" font-family="Roboto" font-size="8.00" fill="#000000"> </text>
</a>
</g>
</a>
</g>
</g>
<!-- c4222545&#45;&gt;c4222547 -->
<g id="edge3" class="edge">
<title>c4222545&#45;&gt;c4222547</title>
<path fill="none" stroke="#000000" d="M155.3238,-4.7621C162.1899,-4.7265 169.1539,-4.7694 175.7836,-4.8908"/>
<polygon fill="#000000" stroke="#000000" points="155.1631,-4.7639 149.2124,-8.837 143.164,-4.9107 149.1146,-.8376 155.1631,-4.7639"/>
</g>
<!-- c4222547&#45;&gt;c4222545 -->
<g id="edge2" class="edge">
<title>c4222547&#45;&gt;c4222545</title>
<path fill="none" stroke="#000000" d="M165.6424,-12.9789C158.1008,-13.0355 150.4163,-12.9783 143.164,-12.8071"/>
<polygon fill="none" stroke="#000000" points="165.8357,-16.4765 175.7836,-12.8311 165.7337,-9.4773 165.8357,-16.4765"/>
</g>
<!-- c4222547&#45;&gt;c4222547 -->
<g id="edge5" class="edge">
<title>c4222547&#45;&gt;c4222547</title>
<path fill="none" stroke="#000000" d="M196.0065,-17.1212C191.0516,-22.6648 197.3828,-28 215,-28 221.3312,-28 226.2048,-27.311 229.6208,-26.1708"/>
<polygon fill="#000000" stroke="#000000" points="233.9935,-17.1212 233.6946,-28.083 231.8181,-21.6232 229.6428,-26.1252 229.6428,-26.1252 229.6428,-26.1252 231.8181,-21.6232 225.591,-24.1673 233.9935,-17.1212 233.9935,-17.1212"/>
</g>
</g>
</svg>
