<?xml version="1.0" encoding="UTF-8" standalone="no"?>
<!DOCTYPE svg PUBLIC "-//W3C//DTD SVG 1.1//EN"
 "http://www.w3.org/Graphics/SVG/1.1/DTD/svg11.dtd">
<!-- Generated by graphviz version 2.40.1 (20161225.0304)
 -->
<!-- Title: G Pages: 1 -->
<svg width="119pt" height="25pt"
 viewBox="0.00 0.00 119.00 25.00" xmlns="http://www.w3.org/2000/svg" xmlns:xlink="http://www.w3.org/1999/xlink">
<g id="graph0" class="graph" transform="scale(1 1) rotate(0) translate(4 21)">
<title>G</title>
<polygon fill="#ffffff" stroke="transparent" points="-4,4 -4,-21 115,-21 115,4 -4,4"/>
<!-- c7688395 -->
<g id="node1" class="node">
<title>c7688395</title>
<g id="a_node1"><a xlink:href="Itemset.html" xlink:title="&lt;TABLE&gt;">
<g id="a_node1_0"><a xlink:href="Itemset.html" xlink:title="de.lmu.ifi.dbs.elki.algorithm.itemsetmining.Itemset" target="_parent">
<polygon fill="none" stroke="#000000" points=".5,.5 .5,-16.5 39.5,-16.5 39.5,.5 .5,.5"/>
<text text-anchor="start" x="4.5" y="-7.1" font-family="Roboto" font-size="8.00" fill="#000000"> </text>
<text text-anchor="start" x="7.5" y="-7.1" font-family="Roboto" font-style="italic" font-size="8.00" fill="#000000">Itemset</text>
<text text-anchor="start" x="32.5" y="-7.1" font-family="Roboto" font-size="8.00" fill="#000000"> </text>
</a>
</g>
</a>
</g>
</g>
<!-- c7688396 -->
<g id="node2" class="node">
<title>c7688396</title>
<g id="a_node2"><a xlink:href="OneItemset.html" xlink:title="&lt;TABLE&gt;">
<g id="a_node2_1"><a xlink:href="OneItemset.html" xlink:title="de.lmu.ifi.dbs.elki.algorithm.itemsetmining.OneItemset" target="_parent">
<polygon fill="#fffacd" stroke="transparent" points="57,0 57,-17 111,-17 111,0 57,0"/>
<polygon fill="none" stroke="#000000" points="57,.5 57,-16.5 111,-16.5 111,.5 57,.5"/>
<text text-anchor="start" x="61" y="-7.1" font-family="Roboto" font-size="8.00" fill="#000000"> </text>
<text text-anchor="start" x="64" y="-7.1" font-family="Roboto" font-size="8.00" fill="#000000">OneItemset</text>
<text text-anchor="start" x="104" y="-7.1" font-family="Roboto" font-size="8.00" fill="#000000"> </text>
</a>
</g>
</a>
</g>
</g>
<!-- c7688395&#45;&gt;c7688396 -->
<g id="edge1" class="edge">
<title>c7688395&#45;&gt;c7688396</title>
<path fill="none" stroke="#000000" d="M49.4103,-8.5C51.8012,-8.5 54.2094,-8.5 56.5819,-8.5"/>
<polygon fill="none" stroke="#000000" points="49.2026,-5.0001 39.2026,-8.5 49.2026,-12.0001 49.2026,-5.0001"/>
</g>
</g>
</svg>
