<?xml version="1.0" encoding="UTF-8" standalone="no"?>
<!DOCTYPE svg PUBLIC "-//W3C//DTD SVG 1.1//EN"
 "http://www.w3.org/Graphics/SVG/1.1/DTD/svg11.dtd">
<!-- Generated by graphviz version 2.40.1 (20161225.0304)
 -->
<!-- Title: G Pages: 1 -->
<svg width="270pt" height="25pt"
 viewBox="0.00 0.00 270.00 25.00" xmlns="http://www.w3.org/2000/svg" xmlns:xlink="http://www.w3.org/1999/xlink">
<g id="graph0" class="graph" transform="scale(1 1) rotate(0) translate(4 21)">
<title>G</title>
<polygon fill="#ffffff" stroke="transparent" points="-4,4 -4,-21 266,-21 266,4 -4,4"/>
<!-- c4271758 -->
<g id="node1" class="node">
<title>c4271758</title>
<g id="a_node1"><a xlink:href="CLARANS.html" xlink:title="&lt;TABLE&gt;">
<g id="a_node1_0"><a xlink:href="CLARANS.html" xlink:title="de.lmu.ifi.dbs.elki.algorithm.clustering.kmeans.CLARANS" target="_parent">
<polygon fill="none" stroke="#000000" points=".5,.5 .5,-16.5 51.5,-16.5 51.5,.5 .5,.5"/>
<text text-anchor="start" x="4.5" y="-7.1" font-family="Roboto" font-size="8.00" fill="#000000"> </text>
<text text-anchor="start" x="7.5" y="-7.1" font-family="Roboto" font-size="8.00" fill="#000000">CLARANS</text>
<text text-anchor="start" x="44.5" y="-7.1" font-family="Roboto" font-size="8.00" fill="#000000"> </text>
</a>
</g>
</a>
</g>
</g>
<!-- c4271763 -->
<g id="node2" class="node">
<title>c4271763</title>
<g id="a_node2"><a xlink:href="FastCLARANS.html" xlink:title="&lt;TABLE&gt;">
<g id="a_node2_1"><a xlink:href="FastCLARANS.html" xlink:title="de.lmu.ifi.dbs.elki.algorithm.clustering.kmeans.FastCLARANS" target="_parent">
<polygon fill="#fffacd" stroke="transparent" points="69,0 69,-17 135,-17 135,0 69,0"/>
<polygon fill="none" stroke="#000000" points="69,.5 69,-16.5 135,-16.5 135,.5 69,.5"/>
<text text-anchor="start" x="73" y="-7.1" font-family="Roboto" font-size="8.00" fill="#000000"> </text>
<text text-anchor="start" x="76" y="-7.1" font-family="Roboto" font-size="8.00" fill="#000000">FastCLARANS</text>
<text text-anchor="start" x="128" y="-7.1" font-family="Roboto" font-size="8.00" fill="#000000"> </text>
</a>
</g>
</a>
</g>
</g>
<!-- c4271758&#45;&gt;c4271763 -->
<g id="edge1" class="edge">
<title>c4271758&#45;&gt;c4271763</title>
<path fill="none" stroke="#000000" d="M61.4648,-8.5C63.9576,-8.5 66.4633,-8.5 68.9395,-8.5"/>
<polygon fill="none" stroke="#000000" points="61.3994,-5.0001 51.3994,-8.5 61.3994,-12.0001 61.3994,-5.0001"/>
</g>
<!-- c4271764 -->
<g id="node3" class="node">
<title>c4271764</title>
<g id="a_node3"><a xlink:href="FastCLARANS.Assignment.html" xlink:title="&lt;TABLE&gt;">
<g id="a_node3_2"><a xlink:href="FastCLARANS.Assignment.html" xlink:title="de.lmu.ifi.dbs.elki.algorithm.clustering.kmeans.FastCLARANS.Assignment" target="_parent">
<polygon fill="none" stroke="#000000" points="153.5,.5 153.5,-16.5 262.5,-16.5 262.5,.5 153.5,.5"/>
<text text-anchor="start" x="157.5" y="-7.1" font-family="Roboto" font-size="8.00" fill="#000000"> </text>
<text text-anchor="start" x="160.5" y="-7.1" font-family="Roboto" font-size="8.00" fill="#000000">FastCLARANS.Assignment</text>
<text text-anchor="start" x="255.5" y="-7.1" font-family="Roboto" font-size="8.00" fill="#000000"> </text>
</a>
</g>
</a>
</g>
</g>
<!-- c4271763&#45;&gt;c4271764 -->
<g id="edge2" class="edge">
<title>c4271763&#45;&gt;c4271764</title>
<path fill="none" stroke="#000000" d="M147.2058,-8.5C149.0858,-8.5 150.979,-8.5 152.8753,-8.5"/>
<polygon fill="none" stroke="#000000" points="147.0914,-8.5001 141.0914,-12.5 135.0914,-8.5 141.0914,-4.5 147.0914,-8.5001"/>
</g>
</g>
</svg>
