<?xml version="1.0" encoding="UTF-8" standalone="no"?>
<!DOCTYPE svg PUBLIC "-//W3C//DTD SVG 1.1//EN"
 "http://www.w3.org/Graphics/SVG/1.1/DTD/svg11.dtd">
<!-- Generated by graphviz version 2.40.1 (20161225.0304)
 -->
<!-- Title: G Pages: 1 -->
<svg width="293pt" height="87pt"
 viewBox="0.00 0.00 293.00 86.50" xmlns="http://www.w3.org/2000/svg" xmlns:xlink="http://www.w3.org/1999/xlink">
<g id="graph0" class="graph" transform="scale(1 1) rotate(0) translate(4 82.5)">
<title>G</title>
<polygon fill="#ffffff" stroke="transparent" points="-4,4 -4,-82.5 289,-82.5 289,4 -4,4"/>
<!-- c5761428 -->
<g id="node1" class="node">
<title>c5761428</title>
<g id="a_node1"><a xlink:href="../../../data/model/MeanModel.html" xlink:title="&lt;TABLE&gt;">
<g id="a_node1_0"><a xlink:href="../../../data/model/MeanModel.html" xlink:title="de.lmu.ifi.dbs.elki.data.model.MeanModel" target="_parent">
<polygon fill="none" stroke="#000000" points="177,-50.5 177,-78.5 285,-78.5 285,-50.5 177,-50.5"/>
<text text-anchor="start" x="206.5" y="-69.1" font-family="Roboto" font-size="8.00" fill="#000000"> </text>
<text text-anchor="start" x="209.5" y="-69.1" font-family="Roboto" font-size="8.00" fill="#000000">MeanModel</text>
<text text-anchor="start" x="252.5" y="-69.1" font-family="Roboto" font-size="8.00" fill="#000000"> </text>
<text text-anchor="start" x="181" y="-58.1" font-family="Roboto" font-size="8.00" fill="#000000"> </text>
<text text-anchor="start" x="184" y="-58.1" font-family="Roboto" font-size="7.00" fill="#000000">de.lmu.ifi.dbs.elki.data.model</text>
<text text-anchor="start" x="278" y="-58.1" font-family="Roboto" font-size="8.00" fill="#000000"> </text>
</a>
</g>
</a>
</g>
</g>
<!-- c5761637 -->
<g id="node2" class="node">
<title>c5761637</title>
<g id="a_node2"><a xlink:href="AbstractKMeans.html" xlink:title="&lt;TABLE&gt;">
<g id="a_node2_1"><a xlink:href="AbstractKMeans.html" xlink:title="de.lmu.ifi.dbs.elki.algorithm.clustering.kmeans.AbstractKMeans" target="_parent">
<polygon fill="none" stroke="#000000" points="0,-55.5 0,-72.5 72,-72.5 72,-55.5 0,-55.5"/>
<text text-anchor="start" x="4" y="-63.1" font-family="Roboto" font-size="8.00" fill="#000000"> </text>
<text text-anchor="start" x="7" y="-63.1" font-family="Roboto" font-style="italic" font-size="8.00" fill="#000000">AbstractKMeans</text>
<text text-anchor="start" x="65" y="-63.1" font-family="Roboto" font-size="8.00" fill="#000000"> </text>
</a>
</g>
</a>
</g>
</g>
<!-- c5761659 -->
<g id="node3" class="node">
<title>c5761659</title>
<g id="a_node3"><a xlink:href="KMediansLloyd.html" xlink:title="&lt;TABLE&gt;">
<g id="a_node3_2"><a xlink:href="KMediansLloyd.html" xlink:title="de.lmu.ifi.dbs.elki.algorithm.clustering.kmeans.KMediansLloyd" target="_parent">
<polygon fill="#fffacd" stroke="transparent" points="90,-56 90,-73 159,-73 159,-56 90,-56"/>
<polygon fill="none" stroke="#000000" points="90.5,-55.5 90.5,-72.5 159.5,-72.5 159.5,-55.5 90.5,-55.5"/>
<text text-anchor="start" x="94.5" y="-63.1" font-family="Roboto" font-size="8.00" fill="#000000"> </text>
<text text-anchor="start" x="97.5" y="-63.1" font-family="Roboto" font-size="8.00" fill="#000000">KMediansLloyd</text>
<text text-anchor="start" x="152.5" y="-63.1" font-family="Roboto" font-size="8.00" fill="#000000"> </text>
</a>
</g>
</a>
</g>
</g>
<!-- c5761637&#45;&gt;c5761659 -->
<g id="edge1" class="edge">
<title>c5761637&#45;&gt;c5761659</title>
<path fill="none" stroke="#000000" d="M82.4624,-64.5C84.9531,-64.5 87.4344,-64.5 89.8746,-64.5"/>
<polygon fill="none" stroke="#000000" points="82.2517,-61.0001 72.2517,-64.5 82.2517,-68.0001 82.2517,-61.0001"/>
</g>
<!-- c5761994 -->
<g id="node4" class="node">
<title>c5761994</title>
<g id="a_node4"><a xlink:href="../../../data/NumberVector.html" xlink:title="&lt;TABLE&gt;">
<g id="a_node4_3"><a xlink:href="../../../data/NumberVector.html" xlink:title="de.lmu.ifi.dbs.elki.data.NumberVector" target="_parent">
<polygon fill="#fffacd" stroke="transparent" points="187.5,0 187.5,-39 274.5,-39 274.5,0 187.5,0"/>
<polygon fill="none" stroke="#000000" points="188,.5 188,-38.5 275,-38.5 275,.5 188,.5"/>
<text text-anchor="start" x="210" y="-28.1" font-family="Roboto" font-size="8.00" fill="#000000"> «interface» </text>
<text text-anchor="start" x="203" y="-18.1" font-family="Roboto" font-size="8.00" fill="#000000"> </text>
<text text-anchor="start" x="206" y="-18.1" font-family="Roboto" font-size="8.00" fill="#000000">NumberVector</text>
<text text-anchor="start" x="257" y="-18.1" font-family="Roboto" font-size="8.00" fill="#000000"> </text>
<text text-anchor="start" x="192" y="-7.1" font-family="Roboto" font-size="8.00" fill="#000000"> </text>
<text text-anchor="start" x="195" y="-7.1" font-family="Roboto" font-size="7.00" fill="#000000">de.lmu.ifi.dbs.elki.data</text>
<text text-anchor="start" x="268" y="-7.1" font-family="Roboto" font-size="8.00" fill="#000000"> </text>
</a>
</g>
</a>
</g>
</g>
<!-- c5761637&#45;&gt;c5761994 -->
<g id="edge3" class="edge">
<title>c5761637&#45;&gt;c5761994</title>
<path fill="none" stroke="#000000" stroke-dasharray="5,2" d="M68.2174,-55.9377C75.3762,-54.0937 82.936,-52.1916 90,-50.5 118.854,-43.5903 151.1723,-36.4423 177.5814,-30.7539"/>
<polygon fill="#000000" stroke="#000000" points="187.394,-28.6487 178.5605,-35.1463 182.5053,-29.6976 177.6165,-30.7464 177.6165,-30.7464 177.6165,-30.7464 182.5053,-29.6976 176.6725,-26.3465 187.394,-28.6487 187.394,-28.6487"/>
</g>
<!-- c5761659&#45;&gt;c5761428 -->
<g id="edge2" class="edge">
<title>c5761659&#45;&gt;c5761428</title>
<path fill="none" stroke="#000000" d="M159.0775,-64.5C161.5753,-64.5 164.1359,-64.5 166.733,-64.5"/>
<polygon fill="#000000" stroke="#000000" points="176.8762,-64.5 166.8762,-69.0001 171.8762,-64.5 166.8762,-64.5001 166.8762,-64.5001 166.8762,-64.5001 171.8762,-64.5 166.8761,-60.0001 176.8762,-64.5 176.8762,-64.5"/>
</g>
<!-- c5761659&#45;&gt;c5761994 -->
<g id="edge4" class="edge">
<title>c5761659&#45;&gt;c5761994</title>
<path fill="none" stroke="#000000" stroke-dasharray="5,2" d="M145.0343,-55.8235C154.4778,-51.8333 166.1626,-46.8961 177.8416,-41.9613"/>
<polygon fill="#000000" stroke="#000000" points="187.1637,-38.0224 179.7037,-46.0598 182.5579,-39.9685 177.9522,-41.9146 177.9522,-41.9146 177.9522,-41.9146 182.5579,-39.9685 176.2007,-37.7695 187.1637,-38.0224 187.1637,-38.0224"/>
</g>
</g>
</svg>
