<?xml version="1.0" encoding="UTF-8" standalone="no"?>
<!DOCTYPE svg PUBLIC "-//W3C//DTD SVG 1.1//EN"
 "http://www.w3.org/Graphics/SVG/1.1/DTD/svg11.dtd">
<!-- Generated by graphviz version 2.40.1 (20161225.0304)
 -->
<!-- Title: G Pages: 1 -->
<svg width="464pt" height="126pt"
 viewBox="0.00 0.00 464.00 126.00" xmlns="http://www.w3.org/2000/svg" xmlns:xlink="http://www.w3.org/1999/xlink">
<g id="graph0" class="graph" transform="scale(1 1) rotate(0) translate(4 122)">
<title>G</title>
<polygon fill="#ffffff" stroke="transparent" points="-4,4 -4,-122 460,-122 460,4 -4,4"/>
<!-- c5812783 -->
<g id="node1" class="node">
<title>c5812783</title>
<g id="a_node1"><a xlink:href="initialization/KMedoidsInitialization.html" xlink:title="&lt;TABLE&gt;">
<g id="a_node1_0"><a xlink:href="initialization/KMedoidsInitialization.html" xlink:title="de.lmu.ifi.dbs.elki.algorithm.clustering.kmeans.initialization.KMedoidsInitialization" target="_parent">
<polygon fill="none" stroke="#000000" points="243.5,.5 243.5,-38.5 456.5,-38.5 456.5,.5 243.5,.5"/>
<text text-anchor="start" x="328.5" y="-28.1" font-family="Roboto" font-size="8.00" fill="#000000"> «interface» </text>
<text text-anchor="start" x="307" y="-18.1" font-family="Roboto" font-size="8.00" fill="#000000"> </text>
<text text-anchor="start" x="310" y="-18.1" font-family="Roboto" font-size="8.00" fill="#000000">KMedoidsInitialization</text>
<text text-anchor="start" x="390" y="-18.1" font-family="Roboto" font-size="8.00" fill="#000000"> </text>
<text text-anchor="start" x="247.5" y="-7.1" font-family="Roboto" font-size="8.00" fill="#000000"> </text>
<text text-anchor="start" x="250.5" y="-7.1" font-family="Roboto" font-size="7.00" fill="#000000">de.lmu.ifi.dbs.elki.algorithm.clustering.kmeans.initialization</text>
<text text-anchor="start" x="449.5" y="-7.1" font-family="Roboto" font-size="8.00" fill="#000000"> </text>
</a>
</g>
</a>
</g>
</g>
<!-- c5812848 -->
<g id="node2" class="node">
<title>c5812848</title>
<g id="a_node2"><a xlink:href="KMedoidsPark.html" xlink:title="&lt;TABLE&gt;">
<g id="a_node2_1"><a xlink:href="KMedoidsPark.html" xlink:title="de.lmu.ifi.dbs.elki.algorithm.clustering.kmeans.KMedoidsPark" target="_parent">
<polygon fill="#fffacd" stroke="transparent" points="159,-11 159,-28 225,-28 225,-11 159,-11"/>
<polygon fill="none" stroke="#000000" points="159,-10.5 159,-27.5 225,-27.5 225,-10.5 159,-10.5"/>
<text text-anchor="start" x="163" y="-18.1" font-family="Roboto" font-size="8.00" fill="#000000"> </text>
<text text-anchor="start" x="166" y="-18.1" font-family="Roboto" font-size="8.00" fill="#000000">KMedoidsPark</text>
<text text-anchor="start" x="218" y="-18.1" font-family="Roboto" font-size="8.00" fill="#000000"> </text>
</a>
</g>
</a>
</g>
</g>
<!-- c5812848&#45;&gt;c5812783 -->
<g id="edge3" class="edge">
<title>c5812848&#45;&gt;c5812783</title>
<path fill="none" stroke="#000000" d="M225.0172,-19.5C227.4245,-19.5 229.919,-19.5 232.4852,-19.5"/>
<polygon fill="#000000" stroke="#000000" points="242.7052,-19.5 232.7052,-24.0001 237.7052,-19.5 232.7052,-19.5001 232.7052,-19.5001 232.7052,-19.5001 237.7052,-19.5 232.7051,-15.0001 242.7052,-19.5 242.7052,-19.5"/>
</g>
<!-- c5812895 -->
<g id="node3" class="node">
<title>c5812895</title>
<g id="a_node3"><a xlink:href="../ClusteringAlgorithm.html" xlink:title="&lt;TABLE&gt;">
<g id="a_node3_2"><a xlink:href="../ClusteringAlgorithm.html" xlink:title="de.lmu.ifi.dbs.elki.algorithm.clustering.ClusteringAlgorithm" target="_parent">
<polygon fill="none" stroke="#000000" points=".5,-78.5 .5,-117.5 141.5,-117.5 141.5,-78.5 .5,-78.5"/>
<text text-anchor="start" x="49.5" y="-107.1" font-family="Roboto" font-size="8.00" fill="#000000"> «interface» </text>
<text text-anchor="start" x="32.5" y="-97.1" font-family="Roboto" font-size="8.00" fill="#000000"> </text>
<text text-anchor="start" x="35.5" y="-97.1" font-family="Roboto" font-size="8.00" fill="#000000">ClusteringAlgorithm</text>
<text text-anchor="start" x="106.5" y="-97.1" font-family="Roboto" font-size="8.00" fill="#000000"> </text>
<text text-anchor="start" x="4.5" y="-86.1" font-family="Roboto" font-size="8.00" fill="#000000"> </text>
<text text-anchor="start" x="7.5" y="-86.1" font-family="Roboto" font-size="7.00" fill="#000000">de.lmu.ifi.dbs.elki.algorithm.clustering</text>
<text text-anchor="start" x="134.5" y="-86.1" font-family="Roboto" font-size="8.00" fill="#000000"> </text>
<polygon fill="none" stroke="#000000" points=".5,-61.5 .5,-78.5 141.5,-78.5 141.5,-61.5 .5,-61.5"/>
<text text-anchor="start" x="4.5" y="-68.1" font-family="Roboto" font-size="8.00" fill="#000000"> &#160;</text>
<polygon fill="none" stroke="#000000" points=".5,-44.5 .5,-61.5 141.5,-61.5 141.5,-44.5 .5,-44.5"/>
<text text-anchor="start" x="4.5" y="-52.1" font-family="Roboto" font-size="8.00" fill="#000000"> </text>
<text text-anchor="start" x="7.5" y="-52.1" font-family="Roboto" font-style="italic" font-size="8.00" fill="#000000"> run()</text>
<text text-anchor="start" x="28.5" y="-52.1" font-family="Roboto" font-size="8.00" fill="#000000"> </text>
</a>
</g>
</a>
</g>
</g>
<!-- c5812895&#45;&gt;c5812848 -->
<g id="edge2" class="edge">
<title>c5812895&#45;&gt;c5812848</title>
<path fill="none" stroke="#000000" stroke-dasharray="5,2" d="M150.2938,-40.7822C159.6239,-36.0211 168.2874,-31.6003 175.2733,-28.0354"/>
<polygon fill="none" stroke="#000000" points="148.4935,-37.7714 141.1771,-45.4343 151.6753,-44.0066 148.4935,-37.7714"/>
</g>
<!-- c5813079 -->
<g id="node4" class="node">
<title>c5813079</title>
<g id="a_node4"><a xlink:href="../../AbstractDistanceBasedAlgorithm.html" xlink:title="&lt;TABLE&gt;">
<g id="a_node4_3"><a xlink:href="../../AbstractDistanceBasedAlgorithm.html" xlink:title="de.lmu.ifi.dbs.elki.algorithm.AbstractDistanceBasedAlgorithm" target="_parent">
<polygon fill="#fffacd" stroke="transparent" points="5.5,-5.5 5.5,-33.5 135.5,-33.5 135.5,-5.5 5.5,-5.5"/>
<polygon fill="none" stroke="#000000" points="5.5,-5.5 5.5,-33.5 135.5,-33.5 135.5,-5.5 5.5,-5.5"/>
<text text-anchor="start" x="9.5" y="-24.1" font-family="Roboto" font-size="8.00" fill="#000000"> </text>
<text text-anchor="start" x="12.5" y="-24.1" font-family="Roboto" font-style="italic" font-size="8.00" fill="#000000">AbstractDistanceBasedAlgorithm</text>
<text text-anchor="start" x="128.5" y="-24.1" font-family="Roboto" font-size="8.00" fill="#000000"> </text>
<text text-anchor="start" x="22" y="-13.1" font-family="Roboto" font-size="8.00" fill="#000000"> </text>
<text text-anchor="start" x="25" y="-13.1" font-family="Roboto" font-size="7.00" fill="#000000">de.lmu.ifi.dbs.elki.algorithm</text>
<text text-anchor="start" x="116" y="-13.1" font-family="Roboto" font-size="8.00" fill="#000000"> </text>
</a>
</g>
</a>
</g>
</g>
<!-- c5813079&#45;&gt;c5812848 -->
<g id="edge1" class="edge">
<title>c5813079&#45;&gt;c5812848</title>
<path fill="none" stroke="#000000" d="M145.563,-19.5C150.0886,-19.5 154.5018,-19.5 158.6942,-19.5"/>
<polygon fill="none" stroke="#000000" points="145.5184,-16.0001 135.5184,-19.5 145.5183,-23.0001 145.5184,-16.0001"/>
</g>
</g>
</svg>
