<?xml version="1.0" encoding="UTF-8" standalone="no"?><svg xmlns="http://www.w3.org/2000/svg" xmlns:xlink="http://www.w3.org/1999/xlink" contentStyleType="text/css" height="72px" preserveAspectRatio="none" style="width:194px;height:72px;background:#FFFFFF;" version="1.1" viewBox="0 0 194 72" width="194px" zoomAndPan="magnify"><defs/><g><!--MD5=[a8bfd85db9fe10b5eb679cb1c6315922]
class elki.clustering.kcenter.GreedyKCenter--><a href="GreedyKCenter.html" target="_top" title="GreedyKCenter.html" xlink:actuate="onRequest" xlink:href="GreedyKCenter.html" xlink:show="new" xlink:title="GreedyKCenter.html" xlink:type="simple"><g id="elem_elki.clustering.kcenter.GreedyKCenter"><rect codeLine="19" fill="#F1F1F1" height="37.9375" id="elki.clustering.kcenter.GreedyKCenter" rx="2.5" ry="2.5" style="stroke:#181818;stroke-width:0.5;" width="150" x="23" y="10"/><ellipse cx="38" cy="28.9688" fill="#ADD1B2" rx="11" ry="11" style="stroke:#181818;stroke-width:1.0;"/><path d="M40.9688,34.6094 Q40.3906,34.9063 39.75,35.0469 Q39.1094,35.2031 38.4063,35.2031 Q35.9063,35.2031 34.5781,33.5625 Q33.2656,31.9063 33.2656,28.7813 Q33.2656,25.6563 34.5781,24 Q35.9063,22.3438 38.4063,22.3438 Q39.1094,22.3438 39.75,22.5 Q40.4063,22.6563 40.9688,22.9531 L40.9688,25.6719 Q40.3438,25.0938 39.75,24.8281 Q39.1563,24.5469 38.5313,24.5469 Q37.1875,24.5469 36.5,25.625 Q35.8125,26.6875 35.8125,28.7813 Q35.8125,30.875 36.5,31.9531 Q37.1875,33.0156 38.5313,33.0156 Q39.1563,33.0156 39.75,32.75 Q40.3438,32.4688 40.9688,31.8906 L40.9688,34.6094 Z " fill="#000000"/><text fill="#000000" font-family="sans-serif" font-size="14" lengthAdjust="spacing" textLength="106" x="52" y="27.9951">GreedyKCenter</text><text fill="#000000" font-family="sans-serif" font-size="10" lengthAdjust="spacing" textLength="103" x="53.5" y="40.5791">elki.clustering.kcenter</text><rect fill="#FFFFFF" height="15.9688" style="stroke:#181818;stroke-width:1.0;stroke-dasharray:2.0,2.0;" width="10" x="166" y="7"/><text fill="#000000" font-family="sans-serif" font-size="12" font-style="italic" lengthAdjust="spacing" textLength="8" x="167" y="19.1387">O</text></g></a><rect fill="none" height="11.6406" style="stroke:none;stroke-width:1.0;" width="186" x="0" y="52.9375"/><text fill="#888888" font-family="sans-serif" font-size="10" lengthAdjust="spacing" textLength="186" x="0" y="62.2197">UMLDoclet 2.0.19, PlantUML 1.2022.8</text><!--MD5=[c43c921999ba89f2c2712c76aa3f416e]
@startuml
    remove .*\.(Instance|Par|Parameterizer|Factory)$
    set namespaceSeparator none
    hide empty fields
    hide empty methods

    class "<size:14>GreedyKCenter.Par\n<size:10>elki.clustering.kcenter" as elki.clustering.kcenter.GreedyKCenter.Par<O> [[GreedyKCenter.Par.html]] {
        {static} +K_ID: OptionID
        {static} +RANDOM_ID: OptionID
        ~distance: Distance<? super O>
        ~k: int
        ~rand: RandomFactory
        +configure(Parameterization): void
        +make(): GreedyKCenter<O>
    }

    interface "<size:14>Parameterizer\n<size:10>elki.utilities.optionhandling" as elki.utilities.optionhandling.Parameterizer [[../../utilities/optionhandling/Parameterizer.html]] {
        {abstract} +make(): Object
    }
    class "<size:14>GreedyKCenter\n<size:10>elki.clustering.kcenter" as elki.clustering.kcenter.GreedyKCenter<O> [[GreedyKCenter.html]]

    elki.utilities.optionhandling.Parameterizer <|.. elki.clustering.kcenter.GreedyKCenter.Par
    elki.clustering.kcenter.GreedyKCenter +- - elki.clustering.kcenter.GreedyKCenter.Par

    center footer UMLDoclet 2.0.19, PlantUML 1.2022.8
@enduml

PlantUML version 1.2022.8(Sun Sep 25 11:00:33 CEST 2022)
(APACHE source distribution)
Java Runtime: OpenJDK Runtime Environment
JVM: OpenJDK 64-Bit Server VM
Default Encoding: UTF-8
Language: de
Country: DE
--></g></svg>