<?xml version="1.0" encoding="UTF-8" standalone="no"?><svg xmlns="http://www.w3.org/2000/svg" xmlns:xlink="http://www.w3.org/1999/xlink" contentStyleType="text/css" height="69px" preserveAspectRatio="none" style="width:198px;height:69px;background:#FFFFFF;" version="1.1" viewBox="0 0 198 69" width="198px" zoomAndPan="magnify"><defs/><g><!--MD5=[9d5d1b3c6ad9772130599bd374aae80f]
class elki.datasource.filter.cleaning.NoMissingValuesFilter--><a href="NoMissingValuesFilter.html" target="_top" title="NoMissingValuesFilter.html" xlink:actuate="onRequest" xlink:href="NoMissingValuesFilter.html" xlink:show="new" xlink:title="NoMissingValuesFilter.html" xlink:type="simple"><g id="elem_elki.datasource.filter.cleaning.NoMissingValuesFilter"><rect codeLine="13" fill="#F1F1F1" height="37.9375" id="elki.datasource.filter.cleaning.NoMissingValuesFilter" rx="2.5" ry="2.5" style="stroke:#181818;stroke-width:0.5;" width="182" x="9" y="7"/><ellipse cx="24" cy="25.9688" fill="#ADD1B2" rx="11" ry="11" style="stroke:#181818;stroke-width:1.0;"/><path d="M26.9688,31.6094 Q26.3906,31.9063 25.75,32.0469 Q25.1094,32.2031 24.4063,32.2031 Q21.9063,32.2031 20.5781,30.5625 Q19.2656,28.9063 19.2656,25.7813 Q19.2656,22.6563 20.5781,21 Q21.9063,19.3438 24.4063,19.3438 Q25.1094,19.3438 25.75,19.5 Q26.4063,19.6563 26.9688,19.9531 L26.9688,22.6719 Q26.3438,22.0938 25.75,21.8281 Q25.1563,21.5469 24.5313,21.5469 Q23.1875,21.5469 22.5,22.625 Q21.8125,23.6875 21.8125,25.7813 Q21.8125,27.875 22.5,28.9531 Q23.1875,30.0156 24.5313,30.0156 Q25.1563,30.0156 25.75,29.75 Q26.3438,29.4688 26.9688,28.8906 L26.9688,31.6094 Z " fill="#000000"/><text fill="#000000" font-family="sans-serif" font-size="14" lengthAdjust="spacing" textLength="150" x="38" y="24.9951">NoMissingValuesFilter</text><text fill="#000000" font-family="sans-serif" font-size="10" lengthAdjust="spacing" textLength="139" x="43.5" y="37.5791">elki.datasource.filter.cleaning</text></g></a><rect fill="none" height="11.6406" style="stroke:none;stroke-width:1.0;" width="186" x="0" y="49.9375"/><text fill="#888888" font-family="sans-serif" font-size="10" lengthAdjust="spacing" textLength="186" x="0" y="59.2197">UMLDoclet 2.0.19, PlantUML 1.2022.8</text><!--MD5=[be278f2358cd8f474bf4be8e1c3e752e]
@startuml
    remove .*\.(Instance|Par|Parameterizer|Factory)$
    set namespaceSeparator none
    hide empty fields
    hide empty methods

    class "<size:14>NoMissingValuesFilter.Par\n<size:10>elki.datasource.filter.cleaning" as elki.datasource.filter.cleaning.NoMissingValuesFilter.Par [[NoMissingValuesFilter.Par.html]] {
        +make(): NoMissingValuesFilter
    }

    interface "<size:14>Parameterizer\n<size:10>elki.utilities.optionhandling" as elki.utilities.optionhandling.Parameterizer [[../../../utilities/optionhandling/Parameterizer.html]] {
        {abstract} +make(): Object
    }
    class "<size:14>NoMissingValuesFilter\n<size:10>elki.datasource.filter.cleaning" as elki.datasource.filter.cleaning.NoMissingValuesFilter [[NoMissingValuesFilter.html]]

    elki.utilities.optionhandling.Parameterizer <|.. elki.datasource.filter.cleaning.NoMissingValuesFilter.Par
    elki.datasource.filter.cleaning.NoMissingValuesFilter +- - elki.datasource.filter.cleaning.NoMissingValuesFilter.Par

    center footer UMLDoclet 2.0.19, PlantUML 1.2022.8
@enduml

PlantUML version 1.2022.8(Sun Sep 25 11:00:33 CEST 2022)
(APACHE source distribution)
Java Runtime: OpenJDK Runtime Environment
JVM: OpenJDK 64-Bit Server VM
Default Encoding: UTF-8
Language: de
Country: DE
--></g></svg>