<?xml version="1.0" encoding="UTF-8" standalone="no"?><svg xmlns="http://www.w3.org/2000/svg" xmlns:xlink="http://www.w3.org/1999/xlink" contentStyleType="text/css" height="276px" preserveAspectRatio="none" style="width:467px;height:276px;background:#FFFFFF;" version="1.1" viewBox="0 0 467 276" width="467px" zoomAndPan="magnify"><defs/><g><!--MD5=[a80fe192eff238113ec2289cb038b12c]
class elki.utilities.datastructures.heap.ComparatorMaxHeap.UnsortedIter--><a href="ComparatorMaxHeap.UnsortedIter.html" target="_top" title="ComparatorMaxHeap.UnsortedIter.html" xlink:actuate="onRequest" xlink:href="ComparatorMaxHeap.UnsortedIter.html" xlink:show="new" xlink:title="ComparatorMaxHeap.UnsortedIter.html" xlink:type="simple"><g id="elem_elki.utilities.datastructures.heap.ComparatorMaxHeap.UnsortedIter"><rect codeLine="6" fill="#F1F1F1" height="119.125" id="elki.utilities.datastructures.heap.ComparatorMaxHeap.UnsortedIter" rx="2.5" ry="2.5" style="stroke:#181818;stroke-width:0.5;" width="266" x="104" y="132"/><ellipse cx="119" cy="150.9688" fill="#ADD1B2" rx="11" ry="11" style="stroke:#181818;stroke-width:1.0;"/><path d="M121.9688,156.6094 Q121.3906,156.9063 120.75,157.0469 Q120.1094,157.2031 119.4063,157.2031 Q116.9063,157.2031 115.5781,155.5625 Q114.2656,153.9063 114.2656,150.7813 Q114.2656,147.6563 115.5781,146 Q116.9063,144.3438 119.4063,144.3438 Q120.1094,144.3438 120.75,144.5 Q121.4063,144.6563 121.9688,144.9531 L121.9688,147.6719 Q121.3438,147.0938 120.75,146.8281 Q120.1563,146.5469 119.5313,146.5469 Q118.1875,146.5469 117.5,147.625 Q116.8125,148.6875 116.8125,150.7813 Q116.8125,152.875 117.5,153.9531 Q118.1875,155.0156 119.5313,155.0156 Q120.1563,155.0156 120.75,154.75 Q121.3438,154.4688 121.9688,153.8906 L121.9688,156.6094 Z " fill="#000000"/><text fill="#000000" font-family="sans-serif" font-size="14" lengthAdjust="spacing" textLength="234" x="133" y="149.9951">ComparatorMaxHeap.UnsortedIter</text><text fill="#000000" font-family="sans-serif" font-size="10" lengthAdjust="spacing" textLength="152" x="174" y="162.5791">elki.utilities.datastructures.heap</text><line style="stroke:#181818;stroke-width:0.5;" x1="105" x2="369" y1="169.9375" y2="169.9375"/><polygon fill="none" points="115,178.5859,119,182.5859,115,186.5859,111,182.5859" style="stroke:#B38D22;stroke-width:1.0;"/><text fill="#000000" font-family="sans-serif" font-size="14" lengthAdjust="spacing" textLength="52" x="124" y="186.9326">pos: int</text><line style="stroke:#181818;stroke-width:0.5;" x1="105" x2="369" y1="194.2344" y2="194.2344"/><ellipse cx="115" cy="207.8828" fill="#84BE84" rx="3" ry="3" style="stroke:#038048;stroke-width:1.0;"/><text fill="#000000" font-family="sans-serif" font-size="14" lengthAdjust="spacing" textLength="105" x="124" y="211.2295">valid(): boolean</text><ellipse cx="115" cy="224.1797" fill="#84BE84" rx="3" ry="3" style="stroke:#038048;stroke-width:1.0;"/><text fill="#000000" font-family="sans-serif" font-size="14" lengthAdjust="spacing" textLength="163" x="124" y="227.5264">advance(): UnsortedIter</text><ellipse cx="115" cy="240.4766" fill="#84BE84" rx="3" ry="3" style="stroke:#038048;stroke-width:1.0;"/><text fill="#000000" font-family="sans-serif" font-size="14" lengthAdjust="spacing" textLength="51" x="124" y="243.8232">get(): K</text></g></a><!--MD5=[21acbd897d676317deedd87382ae0e7c]
class elki.utilities.datastructures.heap.ObjectHeap.UnsortedIter--><a href="ObjectHeap.UnsortedIter.html" target="_top" title="ObjectHeap.UnsortedIter.html" xlink:actuate="onRequest" xlink:href="ObjectHeap.UnsortedIter.html" xlink:show="new" xlink:title="ObjectHeap.UnsortedIter.html" xlink:type="simple"><g id="elem_elki.utilities.datastructures.heap.ObjectHeap.UnsortedIter"><rect codeLine="13" fill="#F1F1F1" height="62.2344" id="elki.utilities.datastructures.heap.ObjectHeap.UnsortedIter" rx="2.5" ry="2.5" style="stroke:#181818;stroke-width:0.5;" width="218" x="7" y="10"/><ellipse cx="22" cy="28.9688" fill="#B4A7E5" rx="11" ry="11" style="stroke:#181818;stroke-width:1.0;"/><path d="M17.9219,24.7344 L17.9219,22.5781 L25.3125,22.5781 L25.3125,24.7344 L22.8438,24.7344 L22.8438,32.8125 L25.3125,32.8125 L25.3125,34.9688 L17.9219,34.9688 L17.9219,32.8125 L20.3906,32.8125 L20.3906,24.7344 L17.9219,24.7344 Z " fill="#000000"/><text fill="#000000" font-family="sans-serif" font-size="14" font-style="italic" lengthAdjust="spacing" textLength="174" x="36" y="27.9951">ObjectHeap.UnsortedIter</text><text fill="#000000" font-family="sans-serif" font-size="10" font-style="italic" lengthAdjust="spacing" textLength="160" x="43" y="40.5791">elki.utilities.datastructures.heap</text><rect fill="#FFFFFF" height="15.9688" style="stroke:#181818;stroke-width:1.0;stroke-dasharray:2.0,2.0;" width="10" x="218" y="7"/><text fill="#000000" font-family="sans-serif" font-size="12" font-style="italic" lengthAdjust="spacing" textLength="8" x="219" y="19.1387">K</text><line style="stroke:#181818;stroke-width:0.5;" x1="8" x2="224" y1="47.9375" y2="47.9375"/><ellipse cx="18" cy="61.5859" fill="#84BE84" rx="3" ry="3" style="stroke:#038048;stroke-width:1.0;"/><text fill="#000000" font-family="sans-serif" font-size="14" font-style="italic" lengthAdjust="spacing" textLength="51" x="27" y="64.9326">get(): K</text></g></a><!--MD5=[f2ea20f8f25d3664d3c149c4a23d3789]
class elki.utilities.datastructures.heap.ComparatorMaxHeap--><a href="ComparatorMaxHeap.html" target="_top" title="ComparatorMaxHeap.html" xlink:actuate="onRequest" xlink:href="ComparatorMaxHeap.html" xlink:show="new" xlink:title="ComparatorMaxHeap.html" xlink:type="simple"><g id="elem_elki.utilities.datastructures.heap.ComparatorMaxHeap"><rect codeLine="16" fill="#F1F1F1" height="37.9375" id="elki.utilities.datastructures.heap.ComparatorMaxHeap" rx="2.5" ry="2.5" style="stroke:#181818;stroke-width:0.5;" width="196" x="260" y="22"/><ellipse cx="275" cy="40.9688" fill="#ADD1B2" rx="11" ry="11" style="stroke:#181818;stroke-width:1.0;"/><path d="M277.9688,46.6094 Q277.3906,46.9063 276.75,47.0469 Q276.1094,47.2031 275.4063,47.2031 Q272.9063,47.2031 271.5781,45.5625 Q270.2656,43.9063 270.2656,40.7813 Q270.2656,37.6563 271.5781,36 Q272.9063,34.3438 275.4063,34.3438 Q276.1094,34.3438 276.75,34.5 Q277.4063,34.6563 277.9688,34.9531 L277.9688,37.6719 Q277.3438,37.0938 276.75,36.8281 Q276.1563,36.5469 275.5313,36.5469 Q274.1875,36.5469 273.5,37.625 Q272.8125,38.6875 272.8125,40.7813 Q272.8125,42.875 273.5,43.9531 Q274.1875,45.0156 275.5313,45.0156 Q276.1563,45.0156 276.75,44.75 Q277.3438,44.4688 277.9688,43.8906 L277.9688,46.6094 Z " fill="#000000"/><text fill="#000000" font-family="sans-serif" font-size="14" lengthAdjust="spacing" textLength="144" x="293" y="39.9951">ComparatorMaxHeap</text><text fill="#000000" font-family="sans-serif" font-size="10" lengthAdjust="spacing" textLength="152" x="289" y="52.5791">elki.utilities.datastructures.heap</text><rect fill="#FFFFFF" height="15.9688" style="stroke:#181818;stroke-width:1.0;stroke-dasharray:2.0,2.0;" width="10" x="449" y="19"/><text fill="#000000" font-family="sans-serif" font-size="12" font-style="italic" lengthAdjust="spacing" textLength="8" x="450" y="31.1387">K</text></g></a><!--MD5=[10646cb6c3a11dc53f2d8ac766c88d6e]
reverse link elki.utilities.datastructures.heap.ObjectHeap.UnsortedIter to elki.utilities.datastructures.heap.ComparatorMaxHeap.UnsortedIter--><g id="link_elki.utilities.datastructures.heap.ObjectHeap.UnsortedIter_elki.utilities.datastructures.heap.ComparatorMaxHeap.UnsortedIter"><path codeLine="18" d="M153.16,87.6 C164.56,101.6 177.28,117.21 189.29,131.95 " fill="none" id="elki.utilities.datastructures.heap.ObjectHeap.UnsortedIter-backto-elki.utilities.datastructures.heap.ComparatorMaxHeap.UnsortedIter" style="stroke:#181818;stroke-width:1.0;stroke-dasharray:7.0,7.0;"/><polygon fill="none" points="147.69,91.98,140.49,72.05,158.55,83.13,147.69,91.98" style="stroke:#181818;stroke-width:1.0;"/></g><!--MD5=[9ededbf9a2b30153a1389c9a0b09a976]
reverse link elki.utilities.datastructures.heap.ComparatorMaxHeap to elki.utilities.datastructures.heap.ComparatorMaxHeap.UnsortedIter--><g id="link_elki.utilities.datastructures.heap.ComparatorMaxHeap_elki.utilities.datastructures.heap.ComparatorMaxHeap.UnsortedIter"><path codeLine="19" d="M333.57,71.98 C319.61,89.12 301.6,111.21 284.93,131.68 " fill="none" id="elki.utilities.datastructures.heap.ComparatorMaxHeap-backto-elki.utilities.datastructures.heap.ComparatorMaxHeap.UnsortedIter" style="stroke:#181818;stroke-width:1.0;"/><ellipse cx="338.1078" cy="66.4128" fill="#FFFFFF" rx="8" ry="8" style="stroke:#181818;stroke-width:1.0;"/><line style="stroke:#181818;stroke-width:1.0;" x1="333.0556" x2="343.16" y1="72.6157" y2="60.21"/><line style="stroke:#181818;stroke-width:1.0;" x1="331.905" x2="344.3107" y1="61.3607" y2="71.465"/></g><rect fill="none" height="11.6406" style="stroke:none;stroke-width:1.0;" width="186" x="133.5" y="257.125"/><text fill="#888888" font-family="sans-serif" font-size="10" lengthAdjust="spacing" textLength="186" x="133.5" y="266.4072">UMLDoclet 2.0.19, PlantUML 1.2022.8</text><!--MD5=[891c922e02625d673404721eb26c9095]
@startuml
    remove .*\.(Instance|Par|Parameterizer|Factory)$
    set namespaceSeparator none
    hide empty fields
    hide empty methods

    class "<size:14>ComparatorMaxHeap.UnsortedIter\n<size:10>elki.utilities.datastructures.heap" as elki.utilities.datastructures.heap.ComparatorMaxHeap.UnsortedIter [[ComparatorMaxHeap.UnsortedIter.html]] {
        #pos: int
        +valid(): boolean
        +advance(): UnsortedIter
        +get(): K
    }

    interface "<size:14>ObjectHeap.UnsortedIter\n<size:10>elki.utilities.datastructures.heap" as elki.utilities.datastructures.heap.ObjectHeap.UnsortedIter<K> [[ObjectHeap.UnsortedIter.html]] {
        {abstract} +get(): K
    }
    class "<size:14>ComparatorMaxHeap\n<size:10>elki.utilities.datastructures.heap" as elki.utilities.datastructures.heap.ComparatorMaxHeap<K> [[ComparatorMaxHeap.html]]

    elki.utilities.datastructures.heap.ObjectHeap.UnsortedIter <|.. elki.utilities.datastructures.heap.ComparatorMaxHeap.UnsortedIter
    elki.utilities.datastructures.heap.ComparatorMaxHeap +- - elki.utilities.datastructures.heap.ComparatorMaxHeap.UnsortedIter

    center footer UMLDoclet 2.0.19, PlantUML 1.2022.8
@enduml

PlantUML version 1.2022.8(Sun Sep 25 11:00:33 CEST 2022)
(APACHE source distribution)
Java Runtime: OpenJDK Runtime Environment
JVM: OpenJDK 64-Bit Server VM
Default Encoding: UTF-8
Language: de
Country: DE
--></g></svg>