<?xml version="1.0" encoding="UTF-8" standalone="no"?><svg xmlns="http://www.w3.org/2000/svg" xmlns:xlink="http://www.w3.org/1999/xlink" contentStyleType="text/css" height="716px" preserveAspectRatio="none" style="width:391px;height:716px;background:#FFFFFF;" version="1.1" viewBox="0 0 391 716" width="391px" zoomAndPan="magnify"><defs/><g><!--MD5=[18fdcf5fecc394be1daf6d9898157a9b]
class elki.utilities.datastructures.heap.ComparatorMinHeap--><a href="ComparatorMinHeap.html" target="_top" title="ComparatorMinHeap.html" xlink:actuate="onRequest" xlink:href="ComparatorMinHeap.html" xlink:show="new" xlink:title="ComparatorMinHeap.html" xlink:type="simple"><g id="elem_elki.utilities.datastructures.heap.ComparatorMinHeap"><rect codeLine="6" fill="#F1F1F1" height="330.9844" id="elki.utilities.datastructures.heap.ComparatorMinHeap" rx="2.5" ry="2.5" style="stroke:#181818;stroke-width:0.5;" width="371" x="9" y="263"/><ellipse cx="108.25" cy="281.9688" fill="#ADD1B2" rx="11" ry="11" style="stroke:#181818;stroke-width:1.0;"/><path d="M111.2188,287.6094 Q110.6406,287.9063 110,288.0469 Q109.3594,288.2031 108.6563,288.2031 Q106.1563,288.2031 104.8281,286.5625 Q103.5156,284.9063 103.5156,281.7813 Q103.5156,278.6563 104.8281,277 Q106.1563,275.3438 108.6563,275.3438 Q109.3594,275.3438 110,275.5 Q110.6563,275.6563 111.2188,275.9531 L111.2188,278.6719 Q110.5938,278.0938 110,277.8281 Q109.4063,277.5469 108.7813,277.5469 Q107.4375,277.5469 106.75,278.625 Q106.0625,279.6875 106.0625,281.7813 Q106.0625,283.875 106.75,284.9531 Q107.4375,286.0156 108.7813,286.0156 Q109.4063,286.0156 110,285.75 Q110.5938,285.4688 111.2188,284.8906 L111.2188,287.6094 Z " fill="#000000"/><text fill="#000000" font-family="sans-serif" font-size="14" lengthAdjust="spacing" textLength="141" x="134.25" y="280.9951">ComparatorMinHeap</text><text fill="#000000" font-family="sans-serif" font-size="10" lengthAdjust="spacing" textLength="152" x="128.75" y="293.5791">elki.utilities.datastructures.heap</text><rect fill="#FFFFFF" height="15.9688" style="stroke:#181818;stroke-width:1.0;stroke-dasharray:2.0,2.0;" width="10" x="373" y="260"/><text fill="#000000" font-family="sans-serif" font-size="12" font-style="italic" lengthAdjust="spacing" textLength="8" x="374" y="272.1387">K</text><line style="stroke:#181818;stroke-width:0.5;" x1="10" x2="379" y1="300.9375" y2="300.9375"/><polygon fill="none" points="20,309.5859,24,313.5859,20,317.5859,16,313.5859" style="stroke:#B38D22;stroke-width:1.0;"/><text fill="#000000" font-family="sans-serif" font-size="14" lengthAdjust="spacing" textLength="124" x="29" y="317.9326">twoheap: Object[]</text><polygon fill="none" points="20,325.8828,24,329.8828,20,333.8828,16,329.8828" style="stroke:#B38D22;stroke-width:1.0;"/><text fill="#000000" font-family="sans-serif" font-size="14" lengthAdjust="spacing" textLength="54" x="29" y="334.2295">size: int</text><rect fill="none" height="6" style="stroke:#C82930;stroke-width:1.0;" width="6" x="17" y="344.1797"/><text fill="#000000" font-family="sans-serif" font-size="14" lengthAdjust="spacing" text-decoration="underline" textLength="192" x="29" y="350.5264">TWO_HEAP_INITIAL_SIZE: int</text><polygon fill="none" points="20,358.4766,24,362.4766,20,366.4766,16,362.4766" style="stroke:#B38D22;stroke-width:1.0;"/><text fill="#000000" font-family="sans-serif" font-size="14" lengthAdjust="spacing" textLength="238" x="29" y="366.8232">comparator: Comparator&lt;Object&gt;</text><line style="stroke:#181818;stroke-width:0.5;" x1="10" x2="379" y1="374.125" y2="374.125"/><ellipse cx="20" cy="387.7734" fill="#84BE84" rx="3" ry="3" style="stroke:#038048;stroke-width:1.0;"/><text fill="#000000" font-family="sans-serif" font-size="14" lengthAdjust="spacing" textLength="320" x="29" y="391.1201">ComparatorMinHeap(Comparator&lt;? super K&gt;)</text><ellipse cx="20" cy="404.0703" fill="#84BE84" rx="3" ry="3" style="stroke:#038048;stroke-width:1.0;"/><text fill="#000000" font-family="sans-serif" font-size="14" lengthAdjust="spacing" textLength="345" x="29" y="407.417">ComparatorMinHeap(int, Comparator&lt;? super K&gt;)</text><ellipse cx="20" cy="420.3672" fill="#84BE84" rx="3" ry="3" style="stroke:#038048;stroke-width:1.0;"/><text fill="#000000" font-family="sans-serif" font-size="14" lengthAdjust="spacing" textLength="80" x="29" y="423.7139">clear(): void</text><ellipse cx="20" cy="436.6641" fill="#84BE84" rx="3" ry="3" style="stroke:#038048;stroke-width:1.0;"/><text fill="#000000" font-family="sans-serif" font-size="14" lengthAdjust="spacing" textLength="64" x="29" y="440.0107">size(): int</text><ellipse cx="20" cy="452.9609" fill="#84BE84" rx="3" ry="3" style="stroke:#038048;stroke-width:1.0;"/><text fill="#000000" font-family="sans-serif" font-size="14" lengthAdjust="spacing" textLength="129" x="29" y="456.3076">isEmpty(): boolean</text><ellipse cx="20" cy="469.2578" fill="#84BE84" rx="3" ry="3" style="stroke:#038048;stroke-width:1.0;"/><text fill="#000000" font-family="sans-serif" font-size="14" lengthAdjust="spacing" textLength="82" x="29" y="472.6045">add(K): void</text><ellipse cx="20" cy="485.5547" fill="#84BE84" rx="3" ry="3" style="stroke:#038048;stroke-width:1.0;"/><text fill="#000000" font-family="sans-serif" font-size="14" lengthAdjust="spacing" textLength="107" x="29" y="488.9014">add(K, int): void</text><ellipse cx="20" cy="501.8516" fill="#84BE84" rx="3" ry="3" style="stroke:#038048;stroke-width:1.0;"/><text fill="#000000" font-family="sans-serif" font-size="14" lengthAdjust="spacing" textLength="172" x="29" y="505.1982">replaceTopElement(K): K</text><rect fill="#F24D5C" height="6" style="stroke:#C82930;stroke-width:1.0;" width="6" x="17" y="515.1484"/><text fill="#000000" font-family="sans-serif" font-size="14" lengthAdjust="spacing" textLength="185" x="29" y="521.4951">heapifyUp(int, Object): void</text><ellipse cx="20" cy="534.4453" fill="#84BE84" rx="3" ry="3" style="stroke:#038048;stroke-width:1.0;"/><text fill="#000000" font-family="sans-serif" font-size="14" lengthAdjust="spacing" textLength="52" x="29" y="537.792">poll(): K</text><rect fill="#F24D5C" height="6" style="stroke:#C82930;stroke-width:1.0;" width="6" x="17" y="547.7422"/><text fill="#000000" font-family="sans-serif" font-size="14" lengthAdjust="spacing" textLength="181" x="29" y="554.0889">heapifyDown(Object): void</text><ellipse cx="20" cy="567.0391" fill="#84BE84" rx="3" ry="3" style="stroke:#038048;stroke-width:1.0;"/><text fill="#000000" font-family="sans-serif" font-size="14" lengthAdjust="spacing" textLength="63" x="29" y="570.3857">peek(): K</text><ellipse cx="20" cy="583.3359" fill="#84BE84" rx="3" ry="3" style="stroke:#038048;stroke-width:1.0;"/><text fill="#000000" font-family="sans-serif" font-size="14" lengthAdjust="spacing" textLength="190" x="29" y="586.6826">unsortedIter(): UnsortedIter</text></g></a><!--MD5=[605b8b8f703af438bd096f397893d33f]
class elki.utilities.datastructures.heap.ObjectHeap--><a href="ObjectHeap.html" target="_top" title="ObjectHeap.html" xlink:actuate="onRequest" xlink:href="ObjectHeap.html" xlink:show="new" xlink:title="ObjectHeap.html" xlink:type="simple"><g id="elem_elki.utilities.datastructures.heap.ObjectHeap"><rect codeLine="26" fill="#F1F1F1" height="192.6094" id="elki.utilities.datastructures.heap.ObjectHeap" rx="2.5" ry="2.5" style="stroke:#181818;stroke-width:0.5;" width="249" x="70" y="10"/><ellipse cx="105.25" cy="28.9688" fill="#B4A7E5" rx="11" ry="11" style="stroke:#181818;stroke-width:1.0;"/><path d="M101.1719,24.7344 L101.1719,22.5781 L108.5625,22.5781 L108.5625,24.7344 L106.0938,24.7344 L106.0938,32.8125 L108.5625,32.8125 L108.5625,34.9688 L101.1719,34.9688 L101.1719,32.8125 L103.6406,32.8125 L103.6406,24.7344 L101.1719,24.7344 Z " fill="#000000"/><text fill="#000000" font-family="sans-serif" font-size="14" font-style="italic" lengthAdjust="spacing" textLength="84" x="161.75" y="27.9951">ObjectHeap</text><text fill="#000000" font-family="sans-serif" font-size="10" font-style="italic" lengthAdjust="spacing" textLength="160" x="123.75" y="40.5791">elki.utilities.datastructures.heap</text><rect fill="#FFFFFF" height="15.9688" style="stroke:#181818;stroke-width:1.0;stroke-dasharray:2.0,2.0;" width="10" x="312" y="7"/><text fill="#000000" font-family="sans-serif" font-size="12" font-style="italic" lengthAdjust="spacing" textLength="8" x="313" y="19.1387">K</text><line style="stroke:#181818;stroke-width:0.5;" x1="71" x2="318" y1="47.9375" y2="47.9375"/><ellipse cx="81" cy="61.5859" fill="#84BE84" rx="3" ry="3" style="stroke:#038048;stroke-width:1.0;"/><text fill="#000000" font-family="sans-serif" font-size="14" font-style="italic" lengthAdjust="spacing" textLength="85" x="90" y="64.9326">add(K): void</text><ellipse cx="81" cy="77.8828" fill="#84BE84" rx="3" ry="3" style="stroke:#038048;stroke-width:1.0;"/><text fill="#000000" font-family="sans-serif" font-size="14" font-style="italic" lengthAdjust="spacing" textLength="111" x="90" y="81.2295">add(K, int): void</text><ellipse cx="81" cy="94.1797" fill="#84BE84" rx="3" ry="3" style="stroke:#038048;stroke-width:1.0;"/><text fill="#000000" font-family="sans-serif" font-size="14" font-style="italic" lengthAdjust="spacing" textLength="176" x="90" y="97.5264">replaceTopElement(K): K</text><ellipse cx="81" cy="110.4766" fill="#84BE84" rx="3" ry="3" style="stroke:#038048;stroke-width:1.0;"/><text fill="#000000" font-family="sans-serif" font-size="14" font-style="italic" lengthAdjust="spacing" textLength="63" x="90" y="113.8232">peek(): K</text><ellipse cx="81" cy="126.7734" fill="#84BE84" rx="3" ry="3" style="stroke:#038048;stroke-width:1.0;"/><text fill="#000000" font-family="sans-serif" font-size="14" font-style="italic" lengthAdjust="spacing" textLength="54" x="90" y="130.1201">poll(): K</text><ellipse cx="81" cy="143.0703" fill="#84BE84" rx="3" ry="3" style="stroke:#038048;stroke-width:1.0;"/><text fill="#000000" font-family="sans-serif" font-size="14" font-style="italic" lengthAdjust="spacing" textLength="84" x="90" y="146.417">clear(): void</text><ellipse cx="81" cy="159.3672" fill="#84BE84" rx="3" ry="3" style="stroke:#038048;stroke-width:1.0;"/><text fill="#000000" font-family="sans-serif" font-size="14" font-style="italic" lengthAdjust="spacing" textLength="64" x="90" y="162.7139">size(): int</text><ellipse cx="81" cy="175.6641" fill="#84BE84" rx="3" ry="3" style="stroke:#038048;stroke-width:1.0;"/><text fill="#000000" font-family="sans-serif" font-size="14" font-style="italic" lengthAdjust="spacing" textLength="133" x="90" y="179.0107">isEmpty(): boolean</text><ellipse cx="81" cy="191.9609" fill="#84BE84" rx="3" ry="3" style="stroke:#038048;stroke-width:1.0;"/><text fill="#000000" font-family="sans-serif" font-size="14" font-style="italic" lengthAdjust="spacing" textLength="223" x="90" y="195.3076">unsortedIter(): UnsortedIter&lt;K&gt;</text></g></a><!--MD5=[fa540da4121149d9aa5d222a1f774870]
class elki.utilities.datastructures.heap.ComparatorMinHeap.UnsortedIter--><a href="ComparatorMinHeap.UnsortedIter.html" target="_top" title="ComparatorMinHeap.UnsortedIter.html" xlink:actuate="onRequest" xlink:href="ComparatorMinHeap.UnsortedIter.html" xlink:show="new" xlink:title="ComparatorMinHeap.UnsortedIter.html" xlink:type="simple"><g id="elem_elki.utilities.datastructures.heap.ComparatorMinHeap.UnsortedIter"><rect codeLine="37" fill="#F1F1F1" height="37.9375" id="elki.utilities.datastructures.heap.ComparatorMinHeap.UnsortedIter" rx="2.5" ry="2.5" style="stroke:#181818;stroke-width:0.5;" width="263" x="63" y="654"/><ellipse cx="78" cy="672.9688" fill="#ADD1B2" rx="11" ry="11" style="stroke:#181818;stroke-width:1.0;"/><path d="M80.9688,678.6094 Q80.3906,678.9063 79.75,679.0469 Q79.1094,679.2031 78.4063,679.2031 Q75.9063,679.2031 74.5781,677.5625 Q73.2656,675.9063 73.2656,672.7813 Q73.2656,669.6563 74.5781,668 Q75.9063,666.3438 78.4063,666.3438 Q79.1094,666.3438 79.75,666.5 Q80.4063,666.6563 80.9688,666.9531 L80.9688,669.6719 Q80.3438,669.0938 79.75,668.8281 Q79.1563,668.5469 78.5313,668.5469 Q77.1875,668.5469 76.5,669.625 Q75.8125,670.6875 75.8125,672.7813 Q75.8125,674.875 76.5,675.9531 Q77.1875,677.0156 78.5313,677.0156 Q79.1563,677.0156 79.75,676.75 Q80.3438,676.4688 80.9688,675.8906 L80.9688,678.6094 Z " fill="#000000"/><text fill="#000000" font-family="sans-serif" font-size="14" lengthAdjust="spacing" textLength="231" x="92" y="671.9951">ComparatorMinHeap.UnsortedIter</text><text fill="#000000" font-family="sans-serif" font-size="10" lengthAdjust="spacing" textLength="152" x="131.5" y="684.5791">elki.utilities.datastructures.heap</text></g></a><!--MD5=[b6095c535f2dac60fec66499c0a39737]
reverse link elki.utilities.datastructures.heap.ObjectHeap to elki.utilities.datastructures.heap.ComparatorMinHeap--><g id="link_elki.utilities.datastructures.heap.ObjectHeap_elki.utilities.datastructures.heap.ComparatorMinHeap"><path codeLine="39" d="M194.5,223.1 C194.5,236.1 194.5,249.52 194.5,262.98 " fill="none" id="elki.utilities.datastructures.heap.ObjectHeap-backto-elki.utilities.datastructures.heap.ComparatorMinHeap" style="stroke:#181818;stroke-width:1.0;stroke-dasharray:7.0,7.0;"/><polygon fill="none" points="187.5,223.08,194.5,203.08,201.5,223.08,187.5,223.08" style="stroke:#181818;stroke-width:1.0;"/></g><!--MD5=[c773c32562246beffe840b60f47fb91a]
reverse link elki.utilities.datastructures.heap.ComparatorMinHeap to elki.utilities.datastructures.heap.ComparatorMinHeap.UnsortedIter--><g id="link_elki.utilities.datastructures.heap.ComparatorMinHeap_elki.utilities.datastructures.heap.ComparatorMinHeap.UnsortedIter"><path codeLine="40" d="M194.5,609.27 C194.5,627 194.5,642.53 194.5,653.71 " fill="none" id="elki.utilities.datastructures.heap.ComparatorMinHeap-backto-elki.utilities.datastructures.heap.ComparatorMinHeap.UnsortedIter" style="stroke:#181818;stroke-width:1.0;"/><ellipse cx="194.5" cy="602.27" fill="#FFFFFF" rx="8" ry="8" style="stroke:#181818;stroke-width:1.0;"/><line style="stroke:#181818;stroke-width:1.0;" x1="194.5" x2="194.5" y1="610.27" y2="594.27"/><line style="stroke:#181818;stroke-width:1.0;" x1="186.5" x2="202.5" y1="602.27" y2="602.27"/></g><rect fill="none" height="11.6406" style="stroke:none;stroke-width:1.0;" width="186" x="95.5" y="696.9375"/><text fill="#888888" font-family="sans-serif" font-size="10" lengthAdjust="spacing" textLength="186" x="95.5" y="706.2197">UMLDoclet 2.0.19, PlantUML 1.2022.8</text><!--MD5=[1d9a7ddc335643111b7197843401deed]
@startuml
    remove .*\.(Instance|Par|Parameterizer|Factory)$
    set namespaceSeparator none
    hide empty fields
    hide empty methods

    class "<size:14>ComparatorMinHeap\n<size:10>elki.utilities.datastructures.heap" as elki.utilities.datastructures.heap.ComparatorMinHeap<K> [[ComparatorMinHeap.html]] {
        #twoheap: Object[]
        #size: int
        {static} -TWO_HEAP_INITIAL_SIZE: int
        #comparator: Comparator<Object>
        +ComparatorMinHeap(Comparator<? super K>)
        +ComparatorMinHeap(int, Comparator<? super K>)
        +clear(): void
        +size(): int
        +isEmpty(): boolean
        +add(K): void
        +add(K, int): void
        +replaceTopElement(K): K
        -heapifyUp(int, Object): void
        +poll(): K
        -heapifyDown(Object): void
        +peek(): K
        +unsortedIter(): UnsortedIter
    }

    interface "<size:14>ObjectHeap\n<size:10>elki.utilities.datastructures.heap" as elki.utilities.datastructures.heap.ObjectHeap<K> [[ObjectHeap.html]] {
        {abstract} +add(K): void
        {abstract} +add(K, int): void
        {abstract} +replaceTopElement(K): K
        {abstract} +peek(): K
        {abstract} +poll(): K
        {abstract} +clear(): void
        {abstract} +size(): int
        {abstract} +isEmpty(): boolean
        {abstract} +unsortedIter(): UnsortedIter<K>
    }
    class "<size:14>ComparatorMinHeap.UnsortedIter\n<size:10>elki.utilities.datastructures.heap" as elki.utilities.datastructures.heap.ComparatorMinHeap.UnsortedIter [[ComparatorMinHeap.UnsortedIter.html]]

    elki.utilities.datastructures.heap.ObjectHeap <|.. elki.utilities.datastructures.heap.ComparatorMinHeap
    elki.utilities.datastructures.heap.ComparatorMinHeap +- - elki.utilities.datastructures.heap.ComparatorMinHeap.UnsortedIter

    center footer UMLDoclet 2.0.19, PlantUML 1.2022.8
@enduml

PlantUML version 1.2022.8(Sun Sep 25 11:00:33 CEST 2022)
(APACHE source distribution)
Java Runtime: OpenJDK Runtime Environment
JVM: OpenJDK 64-Bit Server VM
Default Encoding: UTF-8
Language: de
Country: DE
--></g></svg>