<?xml version="1.0" encoding="UTF-8" standalone="no"?><svg xmlns="http://www.w3.org/2000/svg" xmlns:xlink="http://www.w3.org/1999/xlink" contentStyleType="text/css" height="697px" preserveAspectRatio="none" style="width:296px;height:697px;background:#FFFFFF;" version="1.1" viewBox="0 0 296 697" width="296px" zoomAndPan="magnify"><defs/><g><!--MD5=[160dade82c3adae63c6cf28528f0b0d9]
class elki.utilities.datastructures.heap.DoubleMaxHeap--><a href="DoubleMaxHeap.html" target="_top" title="DoubleMaxHeap.html" xlink:actuate="onRequest" xlink:href="DoubleMaxHeap.html" xlink:show="new" xlink:title="DoubleMaxHeap.html" xlink:type="simple"><g id="elem_elki.utilities.datastructures.heap.DoubleMaxHeap"><rect codeLine="6" fill="#F1F1F1" height="314.6875" id="elki.utilities.datastructures.heap.DoubleMaxHeap" rx="2.5" ry="2.5" style="stroke:#181818;stroke-width:0.5;" width="276" x="10" y="260"/><ellipse cx="67.75" cy="278.9688" fill="#ADD1B2" rx="11" ry="11" style="stroke:#181818;stroke-width:1.0;"/><path d="M70.7188,284.6094 Q70.1406,284.9063 69.5,285.0469 Q68.8594,285.2031 68.1563,285.2031 Q65.6563,285.2031 64.3281,283.5625 Q63.0156,281.9063 63.0156,278.7813 Q63.0156,275.6563 64.3281,274 Q65.6563,272.3438 68.1563,272.3438 Q68.8594,272.3438 69.5,272.5 Q70.1563,272.6563 70.7188,272.9531 L70.7188,275.6719 Q70.0938,275.0938 69.5,274.8281 Q68.9063,274.5469 68.2813,274.5469 Q66.9375,274.5469 66.25,275.625 Q65.5625,276.6875 65.5625,278.7813 Q65.5625,280.875 66.25,281.9531 Q66.9375,283.0156 68.2813,283.0156 Q68.9063,283.0156 69.5,282.75 Q70.0938,282.4688 70.7188,281.8906 L70.7188,284.6094 Z " fill="#000000"/><text fill="#000000" font-family="sans-serif" font-size="14" lengthAdjust="spacing" textLength="113" x="107.75" y="277.9951">DoubleMaxHeap</text><text fill="#000000" font-family="sans-serif" font-size="10" lengthAdjust="spacing" textLength="152" x="88.25" y="290.5791">elki.utilities.datastructures.heap</text><line style="stroke:#181818;stroke-width:0.5;" x1="11" x2="285" y1="297.9375" y2="297.9375"/><polygon fill="none" points="21,306.5859,25,310.5859,21,314.5859,17,310.5859" style="stroke:#B38D22;stroke-width:1.0;"/><text fill="#000000" font-family="sans-serif" font-size="14" lengthAdjust="spacing" textLength="127" x="30" y="314.9326">twoheap: double[]</text><polygon fill="none" points="21,322.8828,25,326.8828,21,330.8828,17,326.8828" style="stroke:#B38D22;stroke-width:1.0;"/><text fill="#000000" font-family="sans-serif" font-size="14" lengthAdjust="spacing" textLength="54" x="30" y="331.2295">size: int</text><rect fill="none" height="6" style="stroke:#C82930;stroke-width:1.0;" width="6" x="18" y="341.1797"/><text fill="#000000" font-family="sans-serif" font-size="14" lengthAdjust="spacing" text-decoration="underline" textLength="192" x="30" y="347.5264">TWO_HEAP_INITIAL_SIZE: int</text><line style="stroke:#181818;stroke-width:0.5;" x1="11" x2="285" y1="354.8281" y2="354.8281"/><ellipse cx="21" cy="368.4766" fill="#84BE84" rx="3" ry="3" style="stroke:#038048;stroke-width:1.0;"/><text fill="#000000" font-family="sans-serif" font-size="14" lengthAdjust="spacing" textLength="123" x="30" y="371.8232">DoubleMaxHeap()</text><ellipse cx="21" cy="384.7734" fill="#84BE84" rx="3" ry="3" style="stroke:#038048;stroke-width:1.0;"/><text fill="#000000" font-family="sans-serif" font-size="14" lengthAdjust="spacing" textLength="140" x="30" y="388.1201">DoubleMaxHeap(int)</text><ellipse cx="21" cy="401.0703" fill="#84BE84" rx="3" ry="3" style="stroke:#038048;stroke-width:1.0;"/><text fill="#000000" font-family="sans-serif" font-size="14" lengthAdjust="spacing" textLength="80" x="30" y="404.417">clear(): void</text><ellipse cx="21" cy="417.3672" fill="#84BE84" rx="3" ry="3" style="stroke:#038048;stroke-width:1.0;"/><text fill="#000000" font-family="sans-serif" font-size="14" lengthAdjust="spacing" textLength="64" x="30" y="420.7139">size(): int</text><ellipse cx="21" cy="433.6641" fill="#84BE84" rx="3" ry="3" style="stroke:#038048;stroke-width:1.0;"/><text fill="#000000" font-family="sans-serif" font-size="14" lengthAdjust="spacing" textLength="129" x="30" y="437.0107">isEmpty(): boolean</text><ellipse cx="21" cy="449.9609" fill="#84BE84" rx="3" ry="3" style="stroke:#038048;stroke-width:1.0;"/><text fill="#000000" font-family="sans-serif" font-size="14" lengthAdjust="spacing" textLength="121" x="30" y="453.3076">add(double): void</text><ellipse cx="21" cy="466.2578" fill="#84BE84" rx="3" ry="3" style="stroke:#038048;stroke-width:1.0;"/><text fill="#000000" font-family="sans-serif" font-size="14" lengthAdjust="spacing" textLength="146" x="30" y="469.6045">add(double, int): void</text><ellipse cx="21" cy="482.5547" fill="#84BE84" rx="3" ry="3" style="stroke:#038048;stroke-width:1.0;"/><text fill="#000000" font-family="sans-serif" font-size="14" lengthAdjust="spacing" textLength="250" x="30" y="485.9014">replaceTopElement(double): double</text><rect fill="#F24D5C" height="6" style="stroke:#C82930;stroke-width:1.0;" width="6" x="18" y="495.8516"/><text fill="#000000" font-family="sans-serif" font-size="14" lengthAdjust="spacing" textLength="188" x="30" y="502.1982">heapifyUp(int, double): void</text><ellipse cx="21" cy="515.1484" fill="#84BE84" rx="3" ry="3" style="stroke:#038048;stroke-width:1.0;"/><text fill="#000000" font-family="sans-serif" font-size="14" lengthAdjust="spacing" textLength="91" x="30" y="518.4951">poll(): double</text><rect fill="#F24D5C" height="6" style="stroke:#C82930;stroke-width:1.0;" width="6" x="18" y="528.4453"/><text fill="#000000" font-family="sans-serif" font-size="14" lengthAdjust="spacing" textLength="184" x="30" y="534.792">heapifyDown(double): void</text><ellipse cx="21" cy="547.7422" fill="#84BE84" rx="3" ry="3" style="stroke:#038048;stroke-width:1.0;"/><text fill="#000000" font-family="sans-serif" font-size="14" lengthAdjust="spacing" textLength="102" x="30" y="551.0889">peek(): double</text><ellipse cx="21" cy="564.0391" fill="#84BE84" rx="3" ry="3" style="stroke:#038048;stroke-width:1.0;"/><text fill="#000000" font-family="sans-serif" font-size="14" lengthAdjust="spacing" textLength="190" x="30" y="567.3857">unsortedIter(): UnsortedIter</text></g></a><!--MD5=[5fdfb3442c8631d9fefa31e17e336235]
class elki.utilities.datastructures.heap.DoubleHeap--><a href="DoubleHeap.html" target="_top" title="DoubleHeap.html" xlink:actuate="onRequest" xlink:href="DoubleHeap.html" xlink:show="new" xlink:title="DoubleHeap.html" xlink:type="simple"><g id="elem_elki.utilities.datastructures.heap.DoubleHeap"><rect codeLine="25" fill="#F1F1F1" height="192.6094" id="elki.utilities.datastructures.heap.DoubleHeap" rx="2.5" ry="2.5" style="stroke:#181818;stroke-width:0.5;" width="282" x="7" y="7"/><ellipse cx="63.75" cy="25.9688" fill="#B4A7E5" rx="11" ry="11" style="stroke:#181818;stroke-width:1.0;"/><path d="M59.6719,21.7344 L59.6719,19.5781 L67.0625,19.5781 L67.0625,21.7344 L64.5938,21.7344 L64.5938,29.8125 L67.0625,29.8125 L67.0625,31.9688 L59.6719,31.9688 L59.6719,29.8125 L62.1406,29.8125 L62.1406,21.7344 L59.6719,21.7344 Z " fill="#000000"/><text fill="#000000" font-family="sans-serif" font-size="14" font-style="italic" lengthAdjust="spacing" textLength="89" x="119.75" y="24.9951">DoubleHeap</text><text fill="#000000" font-family="sans-serif" font-size="10" font-style="italic" lengthAdjust="spacing" textLength="160" x="84.25" y="37.5791">elki.utilities.datastructures.heap</text><line style="stroke:#181818;stroke-width:0.5;" x1="8" x2="288" y1="44.9375" y2="44.9375"/><ellipse cx="18" cy="58.5859" fill="#84BE84" rx="3" ry="3" style="stroke:#038048;stroke-width:1.0;"/><text fill="#000000" font-family="sans-serif" font-size="14" font-style="italic" lengthAdjust="spacing" textLength="125" x="27" y="61.9326">add(double): void</text><ellipse cx="18" cy="74.8828" fill="#84BE84" rx="3" ry="3" style="stroke:#038048;stroke-width:1.0;"/><text fill="#000000" font-family="sans-serif" font-size="14" font-style="italic" lengthAdjust="spacing" textLength="151" x="27" y="78.2295">add(double, int): void</text><ellipse cx="18" cy="91.1797" fill="#84BE84" rx="3" ry="3" style="stroke:#038048;stroke-width:1.0;"/><text fill="#000000" font-family="sans-serif" font-size="14" font-style="italic" lengthAdjust="spacing" textLength="256" x="27" y="94.5264">replaceTopElement(double): double</text><ellipse cx="18" cy="107.4766" fill="#84BE84" rx="3" ry="3" style="stroke:#038048;stroke-width:1.0;"/><text fill="#000000" font-family="sans-serif" font-size="14" font-style="italic" lengthAdjust="spacing" textLength="103" x="27" y="110.8232">peek(): double</text><ellipse cx="18" cy="123.7734" fill="#84BE84" rx="3" ry="3" style="stroke:#038048;stroke-width:1.0;"/><text fill="#000000" font-family="sans-serif" font-size="14" font-style="italic" lengthAdjust="spacing" textLength="94" x="27" y="127.1201">poll(): double</text><ellipse cx="18" cy="140.0703" fill="#84BE84" rx="3" ry="3" style="stroke:#038048;stroke-width:1.0;"/><text fill="#000000" font-family="sans-serif" font-size="14" font-style="italic" lengthAdjust="spacing" textLength="84" x="27" y="143.417">clear(): void</text><ellipse cx="18" cy="156.3672" fill="#84BE84" rx="3" ry="3" style="stroke:#038048;stroke-width:1.0;"/><text fill="#000000" font-family="sans-serif" font-size="14" font-style="italic" lengthAdjust="spacing" textLength="64" x="27" y="159.7139">size(): int</text><ellipse cx="18" cy="172.6641" fill="#84BE84" rx="3" ry="3" style="stroke:#038048;stroke-width:1.0;"/><text fill="#000000" font-family="sans-serif" font-size="14" font-style="italic" lengthAdjust="spacing" textLength="133" x="27" y="176.0107">isEmpty(): boolean</text><ellipse cx="18" cy="188.9609" fill="#84BE84" rx="3" ry="3" style="stroke:#038048;stroke-width:1.0;"/><text fill="#000000" font-family="sans-serif" font-size="14" font-style="italic" lengthAdjust="spacing" textLength="190" x="27" y="192.3076">unsortedIter(): UnsortedIter</text></g></a><!--MD5=[84276ec0f40588a54f644422ea5599e2]
class elki.utilities.datastructures.heap.DoubleMaxHeap.UnsortedIter--><a href="DoubleMaxHeap.UnsortedIter.html" target="_top" title="DoubleMaxHeap.UnsortedIter.html" xlink:actuate="onRequest" xlink:href="DoubleMaxHeap.UnsortedIter.html" xlink:show="new" xlink:title="DoubleMaxHeap.UnsortedIter.html" xlink:type="simple"><g id="elem_elki.utilities.datastructures.heap.DoubleMaxHeap.UnsortedIter"><rect codeLine="36" fill="#F1F1F1" height="37.9375" id="elki.utilities.datastructures.heap.DoubleMaxHeap.UnsortedIter" rx="2.5" ry="2.5" style="stroke:#181818;stroke-width:0.5;" width="235" x="30.5" y="635"/><ellipse cx="45.5" cy="653.9688" fill="#ADD1B2" rx="11" ry="11" style="stroke:#181818;stroke-width:1.0;"/><path d="M48.4688,659.6094 Q47.8906,659.9063 47.25,660.0469 Q46.6094,660.2031 45.9063,660.2031 Q43.4063,660.2031 42.0781,658.5625 Q40.7656,656.9063 40.7656,653.7813 Q40.7656,650.6563 42.0781,649 Q43.4063,647.3438 45.9063,647.3438 Q46.6094,647.3438 47.25,647.5 Q47.9063,647.6563 48.4688,647.9531 L48.4688,650.6719 Q47.8438,650.0938 47.25,649.8281 Q46.6563,649.5469 46.0313,649.5469 Q44.6875,649.5469 44,650.625 Q43.3125,651.6875 43.3125,653.7813 Q43.3125,655.875 44,656.9531 Q44.6875,658.0156 46.0313,658.0156 Q46.6563,658.0156 47.25,657.75 Q47.8438,657.4688 48.4688,656.8906 L48.4688,659.6094 Z " fill="#000000"/><text fill="#000000" font-family="sans-serif" font-size="14" lengthAdjust="spacing" textLength="203" x="59.5" y="652.9951">DoubleMaxHeap.UnsortedIter</text><text fill="#000000" font-family="sans-serif" font-size="10" lengthAdjust="spacing" textLength="152" x="85" y="665.5791">elki.utilities.datastructures.heap</text></g></a><!--MD5=[4cdd51db936c7223117f18b52b24067c]
reverse link elki.utilities.datastructures.heap.DoubleHeap to elki.utilities.datastructures.heap.DoubleMaxHeap--><g id="link_elki.utilities.datastructures.heap.DoubleHeap_elki.utilities.datastructures.heap.DoubleMaxHeap"><path codeLine="38" d="M148,220.62 C148,233.4 148,246.56 148,259.73 " fill="none" id="elki.utilities.datastructures.heap.DoubleHeap-backto-elki.utilities.datastructures.heap.DoubleMaxHeap" style="stroke:#181818;stroke-width:1.0;stroke-dasharray:7.0,7.0;"/><polygon fill="none" points="141,220.23,148,200.23,155,220.23,141,220.23" style="stroke:#181818;stroke-width:1.0;"/></g><!--MD5=[d069e2a592b99b7c82fb7574f609e15c]
reverse link elki.utilities.datastructures.heap.DoubleMaxHeap to elki.utilities.datastructures.heap.DoubleMaxHeap.UnsortedIter--><g id="link_elki.utilities.datastructures.heap.DoubleMaxHeap_elki.utilities.datastructures.heap.DoubleMaxHeap.UnsortedIter"><path codeLine="39" d="M148,590.28 C148,608.07 148,623.71 148,634.92 " fill="none" id="elki.utilities.datastructures.heap.DoubleMaxHeap-backto-elki.utilities.datastructures.heap.DoubleMaxHeap.UnsortedIter" style="stroke:#181818;stroke-width:1.0;"/><ellipse cx="148" cy="583.24" fill="#FFFFFF" rx="8" ry="8" style="stroke:#181818;stroke-width:1.0;"/><line style="stroke:#181818;stroke-width:1.0;" x1="148" x2="148" y1="591.24" y2="575.24"/><line style="stroke:#181818;stroke-width:1.0;" x1="140" x2="156" y1="583.24" y2="583.24"/></g><rect fill="none" height="11.6406" style="stroke:none;stroke-width:1.0;" width="186" x="48" y="677.9375"/><text fill="#888888" font-family="sans-serif" font-size="10" lengthAdjust="spacing" textLength="186" x="48" y="687.2197">UMLDoclet 2.0.19, PlantUML 1.2022.8</text><!--MD5=[04f8be0f7a764854663d4258fa6cdbc6]
@startuml
    remove .*\.(Instance|Par|Parameterizer|Factory)$
    set namespaceSeparator none
    hide empty fields
    hide empty methods

    class "<size:14>DoubleMaxHeap\n<size:10>elki.utilities.datastructures.heap" as elki.utilities.datastructures.heap.DoubleMaxHeap [[DoubleMaxHeap.html]] {
        #twoheap: double[]
        #size: int
        {static} -TWO_HEAP_INITIAL_SIZE: int
        +DoubleMaxHeap()
        +DoubleMaxHeap(int)
        +clear(): void
        +size(): int
        +isEmpty(): boolean
        +add(double): void
        +add(double, int): void
        +replaceTopElement(double): double
        -heapifyUp(int, double): void
        +poll(): double
        -heapifyDown(double): void
        +peek(): double
        +unsortedIter(): UnsortedIter
    }

    interface "<size:14>DoubleHeap\n<size:10>elki.utilities.datastructures.heap" as elki.utilities.datastructures.heap.DoubleHeap [[DoubleHeap.html]] {
        {abstract} +add(double): void
        {abstract} +add(double, int): void
        {abstract} +replaceTopElement(double): double
        {abstract} +peek(): double
        {abstract} +poll(): double
        {abstract} +clear(): void
        {abstract} +size(): int
        {abstract} +isEmpty(): boolean
        {abstract} +unsortedIter(): UnsortedIter
    }
    class "<size:14>DoubleMaxHeap.UnsortedIter\n<size:10>elki.utilities.datastructures.heap" as elki.utilities.datastructures.heap.DoubleMaxHeap.UnsortedIter [[DoubleMaxHeap.UnsortedIter.html]]

    elki.utilities.datastructures.heap.DoubleHeap <|.. elki.utilities.datastructures.heap.DoubleMaxHeap
    elki.utilities.datastructures.heap.DoubleMaxHeap +- - elki.utilities.datastructures.heap.DoubleMaxHeap.UnsortedIter

    center footer UMLDoclet 2.0.19, PlantUML 1.2022.8
@enduml

PlantUML version 1.2022.8(Sun Sep 25 11:00:33 CEST 2022)
(APACHE source distribution)
Java Runtime: OpenJDK Runtime Environment
JVM: OpenJDK 64-Bit Server VM
Default Encoding: UTF-8
Language: de
Country: DE
--></g></svg>