<?xml version="1.0" encoding="UTF-8" standalone="no"?><svg xmlns="http://www.w3.org/2000/svg" xmlns:xlink="http://www.w3.org/1999/xlink" contentStyleType="text/css" height="814px" preserveAspectRatio="none" style="width:293px;height:814px;background:#FFFFFF;" version="1.1" viewBox="0 0 293 814" width="293px" zoomAndPan="magnify"><defs/><g><!--MD5=[580c80fa0322b948890bb160d1e049a7]
class elki.utilities.datastructures.heap.IntegerObjectMaxHeap--><a href="IntegerObjectMaxHeap.html" target="_top" title="IntegerObjectMaxHeap.html" xlink:actuate="onRequest" xlink:href="IntegerObjectMaxHeap.html" xlink:show="new" xlink:title="IntegerObjectMaxHeap.html" xlink:type="simple"><g id="elem_elki.utilities.datastructures.heap.IntegerObjectMaxHeap"><rect codeLine="6" fill="#F1F1F1" height="379.875" id="elki.utilities.datastructures.heap.IntegerObjectMaxHeap" rx="2.5" ry="2.5" style="stroke:#181818;stroke-width:0.5;" width="242" x="25.5" y="312"/><ellipse cx="58.95" cy="330.9688" fill="#ADD1B2" rx="11" ry="11" style="stroke:#181818;stroke-width:1.0;"/><path d="M61.9188,336.6094 Q61.3406,336.9063 60.7,337.0469 Q60.0594,337.2031 59.3563,337.2031 Q56.8563,337.2031 55.5281,335.5625 Q54.2156,333.9063 54.2156,330.7813 Q54.2156,327.6563 55.5281,326 Q56.8563,324.3438 59.3563,324.3438 Q60.0594,324.3438 60.7,324.5 Q61.3563,324.6563 61.9188,324.9531 L61.9188,327.6719 Q61.2938,327.0938 60.7,326.8281 Q60.1063,326.5469 59.4813,326.5469 Q58.1375,326.5469 57.45,327.625 Q56.7625,328.6875 56.7625,330.7813 Q56.7625,332.875 57.45,333.9531 Q58.1375,335.0156 59.4813,335.0156 Q60.1063,335.0156 60.7,334.75 Q61.2938,334.4688 61.9188,333.8906 L61.9188,336.6094 Z " fill="#000000"/><text fill="#000000" font-family="sans-serif" font-size="14" lengthAdjust="spacing" textLength="157" x="77.05" y="329.9951">IntegerObjectMaxHeap</text><text fill="#000000" font-family="sans-serif" font-size="10" lengthAdjust="spacing" textLength="152" x="79.55" y="342.5791">elki.utilities.datastructures.heap</text><rect fill="#FFFFFF" height="15.9688" style="stroke:#181818;stroke-width:1.0;stroke-dasharray:2.0,2.0;" width="10" x="260.5" y="309"/><text fill="#000000" font-family="sans-serif" font-size="12" font-style="italic" lengthAdjust="spacing" textLength="8" x="261.5" y="321.1387">V</text><line style="stroke:#181818;stroke-width:0.5;" x1="26.5" x2="266.5" y1="349.9375" y2="349.9375"/><polygon fill="none" points="36.5,358.5859,40.5,362.5859,36.5,366.5859,32.5,362.5859" style="stroke:#B38D22;stroke-width:1.0;"/><text fill="#000000" font-family="sans-serif" font-size="14" lengthAdjust="spacing" textLength="96" x="45.5" y="366.9326">twoheap: int[]</text><polygon fill="none" points="36.5,374.8828,40.5,378.8828,36.5,382.8828,32.5,378.8828" style="stroke:#B38D22;stroke-width:1.0;"/><text fill="#000000" font-family="sans-serif" font-size="14" lengthAdjust="spacing" textLength="115" x="45.5" y="383.2295">twovals: Object[]</text><polygon fill="none" points="36.5,391.1797,40.5,395.1797,36.5,399.1797,32.5,395.1797" style="stroke:#B38D22;stroke-width:1.0;"/><text fill="#000000" font-family="sans-serif" font-size="14" lengthAdjust="spacing" textLength="54" x="45.5" y="399.5264">size: int</text><rect fill="none" height="6" style="stroke:#C82930;stroke-width:1.0;" width="6" x="33.5" y="409.4766"/><text fill="#000000" font-family="sans-serif" font-size="14" lengthAdjust="spacing" text-decoration="underline" textLength="192" x="45.5" y="415.8232">TWO_HEAP_INITIAL_SIZE: int</text><line style="stroke:#181818;stroke-width:0.5;" x1="26.5" x2="266.5" y1="423.125" y2="423.125"/><ellipse cx="36.5" cy="436.7734" fill="#84BE84" rx="3" ry="3" style="stroke:#038048;stroke-width:1.0;"/><text fill="#000000" font-family="sans-serif" font-size="14" lengthAdjust="spacing" textLength="167" x="45.5" y="440.1201">IntegerObjectMaxHeap()</text><ellipse cx="36.5" cy="453.0703" fill="#84BE84" rx="3" ry="3" style="stroke:#038048;stroke-width:1.0;"/><text fill="#000000" font-family="sans-serif" font-size="14" lengthAdjust="spacing" textLength="184" x="45.5" y="456.417">IntegerObjectMaxHeap(int)</text><ellipse cx="36.5" cy="469.3672" fill="#84BE84" rx="3" ry="3" style="stroke:#038048;stroke-width:1.0;"/><text fill="#000000" font-family="sans-serif" font-size="14" lengthAdjust="spacing" textLength="80" x="45.5" y="472.7139">clear(): void</text><ellipse cx="36.5" cy="485.6641" fill="#84BE84" rx="3" ry="3" style="stroke:#038048;stroke-width:1.0;"/><text fill="#000000" font-family="sans-serif" font-size="14" lengthAdjust="spacing" textLength="64" x="45.5" y="489.0107">size(): int</text><ellipse cx="36.5" cy="501.9609" fill="#84BE84" rx="3" ry="3" style="stroke:#038048;stroke-width:1.0;"/><text fill="#000000" font-family="sans-serif" font-size="14" lengthAdjust="spacing" textLength="129" x="45.5" y="505.3076">isEmpty(): boolean</text><ellipse cx="36.5" cy="518.2578" fill="#84BE84" rx="3" ry="3" style="stroke:#038048;stroke-width:1.0;"/><text fill="#000000" font-family="sans-serif" font-size="14" lengthAdjust="spacing" textLength="107" x="45.5" y="521.6045">add(int, V): void</text><ellipse cx="36.5" cy="534.5547" fill="#84BE84" rx="3" ry="3" style="stroke:#038048;stroke-width:1.0;"/><text fill="#000000" font-family="sans-serif" font-size="14" lengthAdjust="spacing" textLength="132" x="45.5" y="537.9014">add(int, V, int): void</text><ellipse cx="36.5" cy="550.8516" fill="#84BE84" rx="3" ry="3" style="stroke:#038048;stroke-width:1.0;"/><text fill="#000000" font-family="sans-serif" font-size="14" lengthAdjust="spacing" textLength="216" x="45.5" y="554.1982">replaceTopElement(int, V): void</text><rect fill="#F24D5C" height="6" style="stroke:#C82930;stroke-width:1.0;" width="6" x="33.5" y="564.1484"/><text fill="#000000" font-family="sans-serif" font-size="14" lengthAdjust="spacing" textLength="210" x="45.5" y="570.4951">heapifyUp(int, int, Object): void</text><ellipse cx="36.5" cy="583.4453" fill="#84BE84" rx="3" ry="3" style="stroke:#038048;stroke-width:1.0;"/><text fill="#000000" font-family="sans-serif" font-size="14" lengthAdjust="spacing" textLength="71" x="45.5" y="586.792">poll(): void</text><rect fill="#F24D5C" height="6" style="stroke:#C82930;stroke-width:1.0;" width="6" x="33.5" y="596.7422"/><text fill="#000000" font-family="sans-serif" font-size="14" lengthAdjust="spacing" textLength="206" x="45.5" y="603.0889">heapifyDown(int, Object): void</text><ellipse cx="36.5" cy="616.0391" fill="#84BE84" rx="3" ry="3" style="stroke:#038048;stroke-width:1.0;"/><text fill="#000000" font-family="sans-serif" font-size="14" lengthAdjust="spacing" textLength="96" x="45.5" y="619.3857">peekKey(): int</text><ellipse cx="36.5" cy="632.3359" fill="#84BE84" rx="3" ry="3" style="stroke:#038048;stroke-width:1.0;"/><text fill="#000000" font-family="sans-serif" font-size="14" lengthAdjust="spacing" textLength="101" x="45.5" y="635.6826">peekValue(): V</text><ellipse cx="36.5" cy="648.6328" fill="#84BE84" rx="3" ry="3" style="stroke:#038048;stroke-width:1.0;"/><text fill="#000000" font-family="sans-serif" font-size="14" lengthAdjust="spacing" textLength="176" x="45.5" y="651.9795">containsKey(int): boolean</text><ellipse cx="36.5" cy="664.9297" fill="#84BE84" rx="3" ry="3" style="stroke:#038048;stroke-width:1.0;"/><text fill="#000000" font-family="sans-serif" font-size="14" lengthAdjust="spacing" textLength="181" x="45.5" y="668.2764">containsValue(V): boolean</text><ellipse cx="36.5" cy="681.2266" fill="#84BE84" rx="3" ry="3" style="stroke:#038048;stroke-width:1.0;"/><text fill="#000000" font-family="sans-serif" font-size="14" lengthAdjust="spacing" textLength="190" x="45.5" y="684.5732">unsortedIter(): UnsortedIter</text></g></a><!--MD5=[a4dbb7f07bf52f5f7fbb9893efd18e8e]
class elki.utilities.datastructures.heap.IntegerObjectHeap--><a href="IntegerObjectHeap.html" target="_top" title="IntegerObjectHeap.html" xlink:actuate="onRequest" xlink:href="IntegerObjectHeap.html" xlink:show="new" xlink:title="IntegerObjectHeap.html" xlink:type="simple"><g id="elem_elki.utilities.datastructures.heap.IntegerObjectHeap"><rect codeLine="29" fill="#F1F1F1" height="241.5" id="elki.utilities.datastructures.heap.IntegerObjectHeap" rx="2.5" ry="2.5" style="stroke:#181818;stroke-width:0.5;" width="250" x="21.5" y="10"/><ellipse cx="57.2" cy="28.9688" fill="#B4A7E5" rx="11" ry="11" style="stroke:#181818;stroke-width:1.0;"/><path d="M53.1219,24.7344 L53.1219,22.5781 L60.5125,22.5781 L60.5125,24.7344 L58.0438,24.7344 L58.0438,32.8125 L60.5125,32.8125 L60.5125,34.9688 L53.1219,34.9688 L53.1219,32.8125 L55.5906,32.8125 L55.5906,24.7344 L53.1219,24.7344 Z " fill="#000000"/><text fill="#000000" font-family="sans-serif" font-size="14" font-style="italic" lengthAdjust="spacing" textLength="134" x="88.8" y="27.9951">IntegerObjectHeap</text><text fill="#000000" font-family="sans-serif" font-size="10" font-style="italic" lengthAdjust="spacing" textLength="160" x="75.8" y="40.5791">elki.utilities.datastructures.heap</text><rect fill="#FFFFFF" height="15.9688" style="stroke:#181818;stroke-width:1.0;stroke-dasharray:2.0,2.0;" width="10" x="264.5" y="7"/><text fill="#000000" font-family="sans-serif" font-size="12" font-style="italic" lengthAdjust="spacing" textLength="8" x="265.5" y="19.1387">V</text><line style="stroke:#181818;stroke-width:0.5;" x1="22.5" x2="270.5" y1="47.9375" y2="47.9375"/><ellipse cx="32.5" cy="61.5859" fill="#84BE84" rx="3" ry="3" style="stroke:#038048;stroke-width:1.0;"/><text fill="#000000" font-family="sans-serif" font-size="14" font-style="italic" lengthAdjust="spacing" textLength="112" x="41.5" y="64.9326">add(int, V): void</text><ellipse cx="32.5" cy="77.8828" fill="#84BE84" rx="3" ry="3" style="stroke:#038048;stroke-width:1.0;"/><text fill="#000000" font-family="sans-serif" font-size="14" font-style="italic" lengthAdjust="spacing" textLength="138" x="41.5" y="81.2295">add(int, V, int): void</text><ellipse cx="32.5" cy="94.1797" fill="#84BE84" rx="3" ry="3" style="stroke:#038048;stroke-width:1.0;"/><text fill="#000000" font-family="sans-serif" font-size="14" font-style="italic" lengthAdjust="spacing" textLength="224" x="41.5" y="97.5264">replaceTopElement(int, V): void</text><ellipse cx="32.5" cy="110.4766" fill="#84BE84" rx="3" ry="3" style="stroke:#038048;stroke-width:1.0;"/><text fill="#000000" font-family="sans-serif" font-size="14" font-style="italic" lengthAdjust="spacing" textLength="98" x="41.5" y="113.8232">peekKey(): int</text><ellipse cx="32.5" cy="126.7734" fill="#84BE84" rx="3" ry="3" style="stroke:#038048;stroke-width:1.0;"/><text fill="#000000" font-family="sans-serif" font-size="14" font-style="italic" lengthAdjust="spacing" textLength="105" x="41.5" y="130.1201">peekValue(): V</text><ellipse cx="32.5" cy="143.0703" fill="#84BE84" rx="3" ry="3" style="stroke:#038048;stroke-width:1.0;"/><text fill="#000000" font-family="sans-serif" font-size="14" font-style="italic" lengthAdjust="spacing" textLength="181" x="41.5" y="146.417">containsKey(int): boolean</text><ellipse cx="32.5" cy="159.3672" fill="#84BE84" rx="3" ry="3" style="stroke:#038048;stroke-width:1.0;"/><text fill="#000000" font-family="sans-serif" font-size="14" font-style="italic" lengthAdjust="spacing" textLength="188" x="41.5" y="162.7139">containsValue(V): boolean</text><ellipse cx="32.5" cy="175.6641" fill="#84BE84" rx="3" ry="3" style="stroke:#038048;stroke-width:1.0;"/><text fill="#000000" font-family="sans-serif" font-size="14" font-style="italic" lengthAdjust="spacing" textLength="75" x="41.5" y="179.0107">poll(): void</text><ellipse cx="32.5" cy="191.9609" fill="#84BE84" rx="3" ry="3" style="stroke:#038048;stroke-width:1.0;"/><text fill="#000000" font-family="sans-serif" font-size="14" font-style="italic" lengthAdjust="spacing" textLength="84" x="41.5" y="195.3076">clear(): void</text><ellipse cx="32.5" cy="208.2578" fill="#84BE84" rx="3" ry="3" style="stroke:#038048;stroke-width:1.0;"/><text fill="#000000" font-family="sans-serif" font-size="14" font-style="italic" lengthAdjust="spacing" textLength="64" x="41.5" y="211.6045">size(): int</text><ellipse cx="32.5" cy="224.5547" fill="#84BE84" rx="3" ry="3" style="stroke:#038048;stroke-width:1.0;"/><text fill="#000000" font-family="sans-serif" font-size="14" font-style="italic" lengthAdjust="spacing" textLength="133" x="41.5" y="227.9014">isEmpty(): boolean</text><ellipse cx="32.5" cy="240.8516" fill="#84BE84" rx="3" ry="3" style="stroke:#038048;stroke-width:1.0;"/><text fill="#000000" font-family="sans-serif" font-size="14" font-style="italic" lengthAdjust="spacing" textLength="224" x="41.5" y="244.1982">unsortedIter(): UnsortedIter&lt;V&gt;</text></g></a><!--MD5=[ab5e2ef8ddac97a8a56cd90b07e0a643]
class elki.utilities.datastructures.heap.IntegerObjectMaxHeap.UnsortedIter--><a href="IntegerObjectMaxHeap.UnsortedIter.html" target="_top" title="IntegerObjectMaxHeap.UnsortedIter.html" xlink:actuate="onRequest" xlink:href="IntegerObjectMaxHeap.UnsortedIter.html" xlink:show="new" xlink:title="IntegerObjectMaxHeap.UnsortedIter.html" xlink:type="simple"><g id="elem_elki.utilities.datastructures.heap.IntegerObjectMaxHeap.UnsortedIter"><rect codeLine="43" fill="#F1F1F1" height="37.9375" id="elki.utilities.datastructures.heap.IntegerObjectMaxHeap.UnsortedIter" rx="2.5" ry="2.5" style="stroke:#181818;stroke-width:0.5;" width="279" x="7" y="752"/><ellipse cx="22" cy="770.9688" fill="#ADD1B2" rx="11" ry="11" style="stroke:#181818;stroke-width:1.0;"/><path d="M24.9688,776.6094 Q24.3906,776.9063 23.75,777.0469 Q23.1094,777.2031 22.4063,777.2031 Q19.9063,777.2031 18.5781,775.5625 Q17.2656,773.9063 17.2656,770.7813 Q17.2656,767.6563 18.5781,766 Q19.9063,764.3438 22.4063,764.3438 Q23.1094,764.3438 23.75,764.5 Q24.4063,764.6563 24.9688,764.9531 L24.9688,767.6719 Q24.3438,767.0938 23.75,766.8281 Q23.1563,766.5469 22.5313,766.5469 Q21.1875,766.5469 20.5,767.625 Q19.8125,768.6875 19.8125,770.7813 Q19.8125,772.875 20.5,773.9531 Q21.1875,775.0156 22.5313,775.0156 Q23.1563,775.0156 23.75,774.75 Q24.3438,774.4688 24.9688,773.8906 L24.9688,776.6094 Z " fill="#000000"/><text fill="#000000" font-family="sans-serif" font-size="14" lengthAdjust="spacing" textLength="247" x="36" y="769.9951">IntegerObjectMaxHeap.UnsortedIter</text><text fill="#000000" font-family="sans-serif" font-size="10" lengthAdjust="spacing" textLength="152" x="83.5" y="782.5791">elki.utilities.datastructures.heap</text></g></a><!--MD5=[1a8ee4555092b519a4fe370151463be4]
reverse link elki.utilities.datastructures.heap.IntegerObjectHeap to elki.utilities.datastructures.heap.IntegerObjectMaxHeap--><g id="link_elki.utilities.datastructures.heap.IntegerObjectHeap_elki.utilities.datastructures.heap.IntegerObjectMaxHeap"><path codeLine="45" d="M146.5,272.14 C146.5,285.1 146.5,298.38 146.5,311.69 " fill="none" id="elki.utilities.datastructures.heap.IntegerObjectHeap-backto-elki.utilities.datastructures.heap.IntegerObjectMaxHeap" style="stroke:#181818;stroke-width:1.0;stroke-dasharray:7.0,7.0;"/><polygon fill="none" points="139.5,272.06,146.5,252.06,153.5,272.06,139.5,272.06" style="stroke:#181818;stroke-width:1.0;"/></g><!--MD5=[3381d1b658d31351f7d990958cbf9f6e]
reverse link elki.utilities.datastructures.heap.IntegerObjectMaxHeap to elki.utilities.datastructures.heap.IntegerObjectMaxHeap.UnsortedIter--><g id="link_elki.utilities.datastructures.heap.IntegerObjectMaxHeap_elki.utilities.datastructures.heap.IntegerObjectMaxHeap.UnsortedIter"><path codeLine="46" d="M146.5,707.27 C146.5,725.2 146.5,740.74 146.5,751.86 " fill="none" id="elki.utilities.datastructures.heap.IntegerObjectMaxHeap-backto-elki.utilities.datastructures.heap.IntegerObjectMaxHeap.UnsortedIter" style="stroke:#181818;stroke-width:1.0;"/><ellipse cx="146.5" cy="700.05" fill="#FFFFFF" rx="8" ry="8" style="stroke:#181818;stroke-width:1.0;"/><line style="stroke:#181818;stroke-width:1.0;" x1="146.5" x2="146.5" y1="708.05" y2="692.05"/><line style="stroke:#181818;stroke-width:1.0;" x1="138.5" x2="154.5" y1="700.05" y2="700.05"/></g><rect fill="none" height="11.6406" style="stroke:none;stroke-width:1.0;" width="186" x="46.5" y="794.9375"/><text fill="#888888" font-family="sans-serif" font-size="10" lengthAdjust="spacing" textLength="186" x="46.5" y="804.2197">UMLDoclet 2.0.19, PlantUML 1.2022.8</text><!--MD5=[15e84ee7a179520c95caf408307789b7]
@startuml
    remove .*\.(Instance|Par|Parameterizer|Factory)$
    set namespaceSeparator none
    hide empty fields
    hide empty methods

    class "<size:14>IntegerObjectMaxHeap\n<size:10>elki.utilities.datastructures.heap" as elki.utilities.datastructures.heap.IntegerObjectMaxHeap<V> [[IntegerObjectMaxHeap.html]] {
        #twoheap: int[]
        #twovals: Object[]
        #size: int
        {static} -TWO_HEAP_INITIAL_SIZE: int
        +IntegerObjectMaxHeap()
        +IntegerObjectMaxHeap(int)
        +clear(): void
        +size(): int
        +isEmpty(): boolean
        +add(int, V): void
        +add(int, V, int): void
        +replaceTopElement(int, V): void
        -heapifyUp(int, int, Object): void
        +poll(): void
        -heapifyDown(int, Object): void
        +peekKey(): int
        +peekValue(): V
        +containsKey(int): boolean
        +containsValue(V): boolean
        +unsortedIter(): UnsortedIter
    }

    interface "<size:14>IntegerObjectHeap\n<size:10>elki.utilities.datastructures.heap" as elki.utilities.datastructures.heap.IntegerObjectHeap<V> [[IntegerObjectHeap.html]] {
        {abstract} +add(int, V): void
        {abstract} +add(int, V, int): void
        {abstract} +replaceTopElement(int, V): void
        {abstract} +peekKey(): int
        {abstract} +peekValue(): V
        {abstract} +containsKey(int): boolean
        {abstract} +containsValue(V): boolean
        {abstract} +poll(): void
        {abstract} +clear(): void
        {abstract} +size(): int
        {abstract} +isEmpty(): boolean
        {abstract} +unsortedIter(): UnsortedIter<V>
    }
    class "<size:14>IntegerObjectMaxHeap.UnsortedIter\n<size:10>elki.utilities.datastructures.heap" as elki.utilities.datastructures.heap.IntegerObjectMaxHeap.UnsortedIter [[IntegerObjectMaxHeap.UnsortedIter.html]]

    elki.utilities.datastructures.heap.IntegerObjectHeap <|.. elki.utilities.datastructures.heap.IntegerObjectMaxHeap
    elki.utilities.datastructures.heap.IntegerObjectMaxHeap +- - elki.utilities.datastructures.heap.IntegerObjectMaxHeap.UnsortedIter

    center footer UMLDoclet 2.0.19, PlantUML 1.2022.8
@enduml

PlantUML version 1.2022.8(Sun Sep 25 11:00:33 CEST 2022)
(APACHE source distribution)
Java Runtime: OpenJDK Runtime Environment
JVM: OpenJDK 64-Bit Server VM
Default Encoding: UTF-8
Language: de
Country: DE
--></g></svg>