<?xml version="1.0" encoding="UTF-8" standalone="no"?><svg xmlns="http://www.w3.org/2000/svg" xmlns:xlink="http://www.w3.org/1999/xlink" contentStyleType="text/css" height="310px" preserveAspectRatio="none" style="width:522px;height:310px;background:#FFFFFF;" version="1.1" viewBox="0 0 522 310" width="522px" zoomAndPan="magnify"><defs/><g><!--MD5=[ab5e2ef8ddac97a8a56cd90b07e0a643]
class elki.utilities.datastructures.heap.IntegerObjectMaxHeap.UnsortedIter--><a href="IntegerObjectMaxHeap.UnsortedIter.html" target="_top" title="IntegerObjectMaxHeap.UnsortedIter.html" xlink:actuate="onRequest" xlink:href="IntegerObjectMaxHeap.UnsortedIter.html" xlink:show="new" xlink:title="IntegerObjectMaxHeap.UnsortedIter.html" xlink:type="simple"><g id="elem_elki.utilities.datastructures.heap.IntegerObjectMaxHeap.UnsortedIter"><rect codeLine="6" fill="#F1F1F1" height="135.4219" id="elki.utilities.datastructures.heap.IntegerObjectMaxHeap.UnsortedIter" rx="2.5" ry="2.5" style="stroke:#181818;stroke-width:0.5;" width="279" x="136.5" y="149"/><ellipse cx="151.5" cy="167.9688" fill="#ADD1B2" rx="11" ry="11" style="stroke:#181818;stroke-width:1.0;"/><path d="M154.4688,173.6094 Q153.8906,173.9063 153.25,174.0469 Q152.6094,174.2031 151.9063,174.2031 Q149.4063,174.2031 148.0781,172.5625 Q146.7656,170.9063 146.7656,167.7813 Q146.7656,164.6563 148.0781,163 Q149.4063,161.3438 151.9063,161.3438 Q152.6094,161.3438 153.25,161.5 Q153.9063,161.6563 154.4688,161.9531 L154.4688,164.6719 Q153.8438,164.0938 153.25,163.8281 Q152.6563,163.5469 152.0313,163.5469 Q150.6875,163.5469 150,164.625 Q149.3125,165.6875 149.3125,167.7813 Q149.3125,169.875 150,170.9531 Q150.6875,172.0156 152.0313,172.0156 Q152.6563,172.0156 153.25,171.75 Q153.8438,171.4688 154.4688,170.8906 L154.4688,173.6094 Z " fill="#000000"/><text fill="#000000" font-family="sans-serif" font-size="14" lengthAdjust="spacing" textLength="247" x="165.5" y="166.9951">IntegerObjectMaxHeap.UnsortedIter</text><text fill="#000000" font-family="sans-serif" font-size="10" lengthAdjust="spacing" textLength="152" x="213" y="179.5791">elki.utilities.datastructures.heap</text><line style="stroke:#181818;stroke-width:0.5;" x1="137.5" x2="414.5" y1="186.9375" y2="186.9375"/><polygon fill="none" points="147.5,195.5859,151.5,199.5859,147.5,203.5859,143.5,199.5859" style="stroke:#B38D22;stroke-width:1.0;"/><text fill="#000000" font-family="sans-serif" font-size="14" lengthAdjust="spacing" textLength="52" x="156.5" y="203.9326">pos: int</text><line style="stroke:#181818;stroke-width:0.5;" x1="137.5" x2="414.5" y1="211.2344" y2="211.2344"/><ellipse cx="147.5" cy="224.8828" fill="#84BE84" rx="3" ry="3" style="stroke:#038048;stroke-width:1.0;"/><text fill="#000000" font-family="sans-serif" font-size="14" lengthAdjust="spacing" textLength="105" x="156.5" y="228.2295">valid(): boolean</text><ellipse cx="147.5" cy="241.1797" fill="#84BE84" rx="3" ry="3" style="stroke:#038048;stroke-width:1.0;"/><text fill="#000000" font-family="sans-serif" font-size="14" lengthAdjust="spacing" textLength="163" x="156.5" y="244.5264">advance(): UnsortedIter</text><ellipse cx="147.5" cy="257.4766" fill="#84BE84" rx="3" ry="3" style="stroke:#038048;stroke-width:1.0;"/><text fill="#000000" font-family="sans-serif" font-size="14" lengthAdjust="spacing" textLength="84" x="156.5" y="260.8232">getKey(): int</text><ellipse cx="147.5" cy="273.7734" fill="#84BE84" rx="3" ry="3" style="stroke:#038048;stroke-width:1.0;"/><text fill="#000000" font-family="sans-serif" font-size="14" lengthAdjust="spacing" textLength="89" x="156.5" y="277.1201">getValue(): V</text></g></a><!--MD5=[fc11fedc37611d07b213d7c4da002f29]
class elki.utilities.datastructures.heap.IntegerObjectHeap.UnsortedIter--><a href="IntegerObjectHeap.UnsortedIter.html" target="_top" title="IntegerObjectHeap.UnsortedIter.html" xlink:actuate="onRequest" xlink:href="IntegerObjectHeap.UnsortedIter.html" xlink:show="new" xlink:title="IntegerObjectHeap.UnsortedIter.html" xlink:type="simple"><g id="elem_elki.utilities.datastructures.heap.IntegerObjectHeap.UnsortedIter"><rect codeLine="14" fill="#F1F1F1" height="78.5313" id="elki.utilities.datastructures.heap.IntegerObjectHeap.UnsortedIter" rx="2.5" ry="2.5" style="stroke:#181818;stroke-width:0.5;" width="268" x="7" y="10"/><ellipse cx="22" cy="28.9688" fill="#B4A7E5" rx="11" ry="11" style="stroke:#181818;stroke-width:1.0;"/><path d="M17.9219,24.7344 L17.9219,22.5781 L25.3125,22.5781 L25.3125,24.7344 L22.8438,24.7344 L22.8438,32.8125 L25.3125,32.8125 L25.3125,34.9688 L17.9219,34.9688 L17.9219,32.8125 L20.3906,32.8125 L20.3906,24.7344 L17.9219,24.7344 Z " fill="#000000"/><text fill="#000000" font-family="sans-serif" font-size="14" font-style="italic" lengthAdjust="spacing" textLength="224" x="36" y="27.9951">IntegerObjectHeap.UnsortedIter</text><text fill="#000000" font-family="sans-serif" font-size="10" font-style="italic" lengthAdjust="spacing" textLength="160" x="68" y="40.5791">elki.utilities.datastructures.heap</text><rect fill="#FFFFFF" height="15.9688" style="stroke:#181818;stroke-width:1.0;stroke-dasharray:2.0,2.0;" width="10" x="268" y="7"/><text fill="#000000" font-family="sans-serif" font-size="12" font-style="italic" lengthAdjust="spacing" textLength="8" x="269" y="19.1387">V</text><line style="stroke:#181818;stroke-width:0.5;" x1="8" x2="274" y1="47.9375" y2="47.9375"/><ellipse cx="18" cy="61.5859" fill="#84BE84" rx="3" ry="3" style="stroke:#038048;stroke-width:1.0;"/><text fill="#000000" font-family="sans-serif" font-size="14" font-style="italic" lengthAdjust="spacing" textLength="86" x="27" y="64.9326">getKey(): int</text><ellipse cx="18" cy="77.8828" fill="#84BE84" rx="3" ry="3" style="stroke:#038048;stroke-width:1.0;"/><text fill="#000000" font-family="sans-serif" font-size="14" font-style="italic" lengthAdjust="spacing" textLength="93" x="27" y="81.2295">getValue(): V</text></g></a><!--MD5=[580c80fa0322b948890bb160d1e049a7]
class elki.utilities.datastructures.heap.IntegerObjectMaxHeap--><a href="IntegerObjectMaxHeap.html" target="_top" title="IntegerObjectMaxHeap.html" xlink:actuate="onRequest" xlink:href="IntegerObjectMaxHeap.html" xlink:show="new" xlink:title="IntegerObjectMaxHeap.html" xlink:type="simple"><g id="elem_elki.utilities.datastructures.heap.IntegerObjectMaxHeap"><rect codeLine="18" fill="#F1F1F1" height="37.9375" id="elki.utilities.datastructures.heap.IntegerObjectMaxHeap" rx="2.5" ry="2.5" style="stroke:#181818;stroke-width:0.5;" width="201" x="310.5" y="30.5"/><ellipse cx="325.5" cy="49.4688" fill="#ADD1B2" rx="11" ry="11" style="stroke:#181818;stroke-width:1.0;"/><path d="M328.4688,55.1094 Q327.8906,55.4063 327.25,55.5469 Q326.6094,55.7031 325.9063,55.7031 Q323.4063,55.7031 322.0781,54.0625 Q320.7656,52.4063 320.7656,49.2813 Q320.7656,46.1563 322.0781,44.5 Q323.4063,42.8438 325.9063,42.8438 Q326.6094,42.8438 327.25,43 Q327.9063,43.1563 328.4688,43.4531 L328.4688,46.1719 Q327.8438,45.5938 327.25,45.3281 Q326.6563,45.0469 326.0313,45.0469 Q324.6875,45.0469 324,46.125 Q323.3125,47.1875 323.3125,49.2813 Q323.3125,51.375 324,52.4531 Q324.6875,53.5156 326.0313,53.5156 Q326.6563,53.5156 327.25,53.25 Q327.8438,52.9688 328.4688,52.3906 L328.4688,55.1094 Z " fill="#000000"/><text fill="#000000" font-family="sans-serif" font-size="14" lengthAdjust="spacing" textLength="157" x="339.5" y="48.4951">IntegerObjectMaxHeap</text><text fill="#000000" font-family="sans-serif" font-size="10" lengthAdjust="spacing" textLength="152" x="342" y="61.0791">elki.utilities.datastructures.heap</text><rect fill="#FFFFFF" height="15.9688" style="stroke:#181818;stroke-width:1.0;stroke-dasharray:2.0,2.0;" width="10" x="504.5" y="27.5"/><text fill="#000000" font-family="sans-serif" font-size="12" font-style="italic" lengthAdjust="spacing" textLength="8" x="505.5" y="39.6387">V</text></g></a><!--MD5=[0aa47f1b9c42242c38e23ffe86b437b3]
reverse link elki.utilities.datastructures.heap.IntegerObjectHeap.UnsortedIter to elki.utilities.datastructures.heap.IntegerObjectMaxHeap.UnsortedIter--><g id="link_elki.utilities.datastructures.heap.IntegerObjectHeap.UnsortedIter_elki.utilities.datastructures.heap.IntegerObjectMaxHeap.UnsortedIter"><path codeLine="20" d="M185.6,105.01 C197.1,119.07 209.61,134.36 221.56,148.96 " fill="none" id="elki.utilities.datastructures.heap.IntegerObjectHeap.UnsortedIter-backto-elki.utilities.datastructures.heap.IntegerObjectMaxHeap.UnsortedIter" style="stroke:#181818;stroke-width:1.0;stroke-dasharray:7.0,7.0;"/><polygon fill="none" points="179.9,109.1,172.65,89.19,190.73,100.23,179.9,109.1" style="stroke:#181818;stroke-width:1.0;"/></g><!--MD5=[3381d1b658d31351f7d990958cbf9f6e]
reverse link elki.utilities.datastructures.heap.IntegerObjectMaxHeap to elki.utilities.datastructures.heap.IntegerObjectMaxHeap.UnsortedIter--><g id="link_elki.utilities.datastructures.heap.IntegerObjectMaxHeap_elki.utilities.datastructures.heap.IntegerObjectMaxHeap.UnsortedIter"><path codeLine="21" d="M386.36,80.62 C370.71,99.74 349.84,125.26 330.45,148.95 " fill="none" id="elki.utilities.datastructures.heap.IntegerObjectMaxHeap-backto-elki.utilities.datastructures.heap.IntegerObjectMaxHeap.UnsortedIter" style="stroke:#181818;stroke-width:1.0;"/><ellipse cx="390.9749" cy="74.9823" fill="#FFFFFF" rx="8" ry="8" style="stroke:#181818;stroke-width:1.0;"/><line style="stroke:#181818;stroke-width:1.0;" x1="385.9099" x2="396.04" y1="81.1747" y2="68.79"/><line style="stroke:#181818;stroke-width:1.0;" x1="384.7826" x2="397.1673" y1="69.9173" y2="80.0474"/></g><rect fill="none" height="11.6406" style="stroke:none;stroke-width:1.0;" width="186" x="161.25" y="290.4219"/><text fill="#888888" font-family="sans-serif" font-size="10" lengthAdjust="spacing" textLength="186" x="161.25" y="299.7041">UMLDoclet 2.0.19, PlantUML 1.2022.8</text><!--MD5=[03123ad71285545823fefb7696a978f1]
@startuml
    remove .*\.(Instance|Par|Parameterizer|Factory)$
    set namespaceSeparator none
    hide empty fields
    hide empty methods

    class "<size:14>IntegerObjectMaxHeap.UnsortedIter\n<size:10>elki.utilities.datastructures.heap" as elki.utilities.datastructures.heap.IntegerObjectMaxHeap.UnsortedIter [[IntegerObjectMaxHeap.UnsortedIter.html]] {
        #pos: int
        +valid(): boolean
        +advance(): UnsortedIter
        +getKey(): int
        +getValue(): V
    }

    interface "<size:14>IntegerObjectHeap.UnsortedIter\n<size:10>elki.utilities.datastructures.heap" as elki.utilities.datastructures.heap.IntegerObjectHeap.UnsortedIter<V> [[IntegerObjectHeap.UnsortedIter.html]] {
        {abstract} +getKey(): int
        {abstract} +getValue(): V
    }
    class "<size:14>IntegerObjectMaxHeap\n<size:10>elki.utilities.datastructures.heap" as elki.utilities.datastructures.heap.IntegerObjectMaxHeap<V> [[IntegerObjectMaxHeap.html]]

    elki.utilities.datastructures.heap.IntegerObjectHeap.UnsortedIter <|.. elki.utilities.datastructures.heap.IntegerObjectMaxHeap.UnsortedIter
    elki.utilities.datastructures.heap.IntegerObjectMaxHeap +- - elki.utilities.datastructures.heap.IntegerObjectMaxHeap.UnsortedIter

    center footer UMLDoclet 2.0.19, PlantUML 1.2022.8
@enduml

PlantUML version 1.2022.8(Sun Sep 25 11:00:33 CEST 2022)
(APACHE source distribution)
Java Runtime: OpenJDK Runtime Environment
JVM: OpenJDK 64-Bit Server VM
Default Encoding: UTF-8
Language: de
Country: DE
--></g></svg>