<?xml version="1.0" encoding="UTF-8" standalone="no"?>
<!DOCTYPE svg PUBLIC "-//W3C//DTD SVG 1.1//EN"
 "http://www.w3.org/Graphics/SVG/1.1/DTD/svg11.dtd">
<!-- Generated by graphviz version 2.40.1 (20161225.0304)
 -->
<!-- Title: G Pages: 1 -->
<svg width="585pt" height="62pt"
 viewBox="0.00 0.00 585.00 61.83" xmlns="http://www.w3.org/2000/svg" xmlns:xlink="http://www.w3.org/1999/xlink">
<g id="graph0" class="graph" transform="scale(1 1) rotate(0) translate(4 57.8279)">
<title>G</title>
<polygon fill="#ffffff" stroke="transparent" points="-4,4 -4,-57.8279 581,-57.8279 581,4 -4,4"/>
<!-- c10490764 -->
<g id="node1" class="node">
<title>c10490764</title>
<g id="a_node1"><a xlink:href="../ObjectFilter.html" xlink:title="&lt;TABLE&gt;">
<g id="a_node1_0"><a xlink:href="../ObjectFilter.html" xlink:title="de.lmu.ifi.dbs.elki.datasource.filter.ObjectFilter" target="_parent">
<polygon fill="#fffacd" stroke="transparent" points="0,0 0,-39 126,-39 126,0 0,0"/>
<polygon fill="none" stroke="#000000" points="0,.5 0,-38.5 126,-38.5 126,.5 0,.5"/>
<text text-anchor="start" x="41.5" y="-28.1" font-family="Roboto" font-size="8.00" fill="#000000"> «interface» </text>
<text text-anchor="start" x="39.5" y="-18.1" font-family="Roboto" font-size="8.00" fill="#000000"> </text>
<text text-anchor="start" x="42.5" y="-18.1" font-family="Roboto" font-size="8.00" fill="#000000">ObjectFilter</text>
<text text-anchor="start" x="83.5" y="-18.1" font-family="Roboto" font-size="8.00" fill="#000000"> </text>
<text text-anchor="start" x="4" y="-7.1" font-family="Roboto" font-size="8.00" fill="#000000"> </text>
<text text-anchor="start" x="7" y="-7.1" font-family="Roboto" font-size="7.00" fill="#000000">de.lmu.ifi.dbs.elki.datasource.filter</text>
<text text-anchor="start" x="119" y="-7.1" font-family="Roboto" font-size="8.00" fill="#000000"> </text>
</a>
</g>
</a>
</g>
</g>
<!-- c10492775 -->
<g id="node4" class="node">
<title>c10492775</title>
<g id="a_node4"><a xlink:href="UncertainifyFilter.html" xlink:title="&lt;TABLE&gt;">
<g id="a_node4_1"><a xlink:href="UncertainifyFilter.html" xlink:title="de.lmu.ifi.dbs.elki.datasource.filter.typeconversions.UncertainifyFilter" target="_parent">
<polygon fill="#fffacd" stroke="transparent" points="145,-11 145,-28 221,-28 221,-11 145,-11"/>
<polygon fill="none" stroke="#000000" points="145,-10.5 145,-27.5 221,-27.5 221,-10.5 145,-10.5"/>
<text text-anchor="start" x="149" y="-18.1" font-family="Roboto" font-size="8.00" fill="#000000"> </text>
<text text-anchor="start" x="152" y="-18.1" font-family="Roboto" font-size="8.00" fill="#000000">UncertainifyFilter</text>
<text text-anchor="start" x="214" y="-18.1" font-family="Roboto" font-size="8.00" fill="#000000"> </text>
</a>
</g>
</a>
</g>
</g>
<!-- c10490764&#45;&gt;c10492775 -->
<g id="edge2" class="edge">
<title>c10490764&#45;&gt;c10492775</title>
<path fill="none" stroke="#000000" stroke-dasharray="5,2" d="M136.4497,-19.5C139.2538,-19.5 142.0165,-19.5 144.7116,-19.5"/>
<polygon fill="none" stroke="#000000" points="136.1628,-16.0001 126.1628,-19.5 136.1627,-23.0001 136.1628,-16.0001"/>
</g>
<!-- c10492753 -->
<g id="node2" class="node">
<title>c10492753</title>
<g id="a_node2"><a xlink:href="../../../data/uncertain/UncertainObject.html" xlink:title="&lt;TABLE&gt;">
<g id="a_node2_2"><a xlink:href="../../../data/uncertain/UncertainObject.html" xlink:title="de.lmu.ifi.dbs.elki.data.uncertain.UncertainObject" target="_parent">
<polygon fill="none" stroke="#000000" points="457,.5 457,-38.5 577,-38.5 577,.5 457,.5"/>
<text text-anchor="start" x="495.5" y="-28.1" font-family="Roboto" font-size="8.00" fill="#000000"> «interface» </text>
<text text-anchor="start" x="485" y="-18.1" font-family="Roboto" font-size="8.00" fill="#000000"> </text>
<text text-anchor="start" x="488" y="-18.1" font-family="Roboto" font-size="8.00" fill="#000000">UncertainObject</text>
<text text-anchor="start" x="546" y="-18.1" font-family="Roboto" font-size="8.00" fill="#000000"> </text>
<text text-anchor="start" x="461" y="-7.1" font-family="Roboto" font-size="8.00" fill="#000000"> </text>
<text text-anchor="start" x="464" y="-7.1" font-family="Roboto" font-size="7.00" fill="#000000">de.lmu.ifi.dbs.elki.data.uncertain</text>
<text text-anchor="start" x="570" y="-7.1" font-family="Roboto" font-size="8.00" fill="#000000"> </text>
</a>
</g>
</a>
</g>
</g>
<!-- c10492761 -->
<g id="node3" class="node">
<title>c10492761</title>
<g id="a_node3"><a xlink:href="../../../data/uncertain/uncertainifier/Uncertainifier.html" xlink:title="&lt;TABLE&gt;">
<g id="a_node3_3"><a xlink:href="../../../data/uncertain/uncertainifier/Uncertainifier.html" xlink:title="de.lmu.ifi.dbs.elki.data.uncertain.uncertainifier.Uncertainifier" target="_parent">
<polygon fill="none" stroke="#000000" points="240,.5 240,-38.5 408,-38.5 408,.5 240,.5"/>
<text text-anchor="start" x="302.5" y="-28.1" font-family="Roboto" font-size="8.00" fill="#000000"> «interface» </text>
<text text-anchor="start" x="296.5" y="-18.1" font-family="Roboto" font-size="8.00" fill="#000000"> </text>
<text text-anchor="start" x="299.5" y="-18.1" font-family="Roboto" font-size="8.00" fill="#000000">Uncertainifier</text>
<text text-anchor="start" x="348.5" y="-18.1" font-family="Roboto" font-size="8.00" fill="#000000"> </text>
<text text-anchor="start" x="244" y="-7.1" font-family="Roboto" font-size="8.00" fill="#000000"> </text>
<text text-anchor="start" x="247" y="-7.1" font-family="Roboto" font-size="7.00" fill="#000000">de.lmu.ifi.dbs.elki.data.uncertain.uncertainifier</text>
<text text-anchor="start" x="401" y="-7.1" font-family="Roboto" font-size="8.00" fill="#000000"> </text>
</a>
</g>
</a>
</g>
</g>
<!-- c10492761&#45;&gt;c10492753 -->
<g id="edge1" class="edge">
<title>c10492761&#45;&gt;c10492753</title>
<path fill="none" stroke="#000000" d="M420.1059,-19.5C429.1358,-19.5 438.1703,-19.5 446.8932,-19.5"/>
<polygon fill="none" stroke="#000000" points="420.0912,-19.5001 414.0911,-23.5 408.0912,-19.5 414.0912,-15.5 420.0912,-19.5001"/>
<polygon fill="#000000" stroke="#000000" points="456.9709,-19.5 446.971,-24.0001 451.9709,-19.5 446.9709,-19.5001 446.9709,-19.5001 446.9709,-19.5001 451.9709,-19.5 446.9709,-15.0001 456.9709,-19.5 456.9709,-19.5"/>
<text text-anchor="middle" x="432.5" y="-21.9" font-family="Roboto" font-size="7.00" fill="#000000">produces</text>
</g>
<!-- c10492761&#45;&gt;c10492753 -->
<g id="edge4" class="edge">
<title>c10492761&#45;&gt;c10492753</title>
<path fill="none" stroke="#000000" stroke-dasharray="5,2" d="M408.0432,-17.449C419.2165,-17.3439 430.6046,-17.3194 446.7215,-17.5123"/>
<polygon fill="#000000" stroke="#000000" points="456.7915,-17.6521 446.7299,-22.0128 451.792,-17.5827 446.7924,-17.5132 446.7924,-17.5132 446.7924,-17.5132 451.792,-17.5827 446.8549,-13.0136 456.7915,-17.6521 456.7915,-17.6521"/>
</g>
<!-- c10492775&#45;&gt;c10492753 -->
<g id="edge5" class="edge">
<title>c10492775&#45;&gt;c10492753</title>
<path fill="none" stroke="#000000" stroke-dasharray="5,2" d="M197.9087,-28.0843C209.0872,-34.0038 224.9823,-41.3514 240,-44.5 313.0778,-59.8214 333.8073,-52.8993 408,-44.5 420.6346,-43.0696 433.9385,-40.7349 446.7423,-38.0522"/>
<polygon fill="#000000" stroke="#000000" points="456.8811,-35.8367 448.0723,-42.3678 451.9964,-36.9041 447.1116,-37.9716 447.1116,-37.9716 447.1116,-37.9716 451.9964,-36.9041 446.151,-33.5753 456.8811,-35.8367 456.8811,-35.8367"/>
</g>
<!-- c10492775&#45;&gt;c10492761 -->
<g id="edge3" class="edge">
<title>c10492775&#45;&gt;c10492761</title>
<path fill="none" stroke="#000000" d="M221.1566,-19.5C223.9474,-19.5 226.8246,-19.5 229.7641,-19.5"/>
<polygon fill="#000000" stroke="#000000" points="239.9635,-19.5 229.9635,-24.0001 234.9635,-19.5 229.9635,-19.5001 229.9635,-19.5001 229.9635,-19.5001 234.9635,-19.5 229.9635,-15.0001 239.9635,-19.5 239.9635,-19.5"/>
</g>
</g>
</svg>
