<?xml version="1.0" encoding="UTF-8" standalone="no"?><svg xmlns="http://www.w3.org/2000/svg" xmlns:xlink="http://www.w3.org/1999/xlink" contentStyleType="text/css" height="413px" preserveAspectRatio="none" style="width:497px;height:413px;background:#FFFFFF;" version="1.1" viewBox="0 0 497 413" width="497px" zoomAndPan="magnify"><defs/><g><!--MD5=[379e9b83fa5cf0eb2715d0d468d0cfc7]
class elki.clustering.hierarchical.ClusterMergeHistoryBuilder--><a href="ClusterMergeHistoryBuilder.html" target="_top" title="ClusterMergeHistoryBuilder.html" xlink:actuate="onRequest" xlink:href="ClusterMergeHistoryBuilder.html" xlink:show="new" xlink:title="ClusterMergeHistoryBuilder.html" xlink:type="simple"><g id="elem_elki.clustering.hierarchical.ClusterMergeHistoryBuilder"><rect codeLine="6" fill="#F1F1F1" height="379.875" id="elki.clustering.hierarchical.ClusterMergeHistoryBuilder" rx="2.5" ry="2.5" style="stroke:#181818;stroke-width:0.5;" width="476" x="7" y="7"/><ellipse cx="146.75" cy="25.9688" fill="#ADD1B2" rx="11" ry="11" style="stroke:#181818;stroke-width:1.0;"/><path d="M149.7188,31.6094 Q149.1406,31.9063 148.5,32.0469 Q147.8594,32.2031 147.1563,32.2031 Q144.6563,32.2031 143.3281,30.5625 Q142.0156,28.9063 142.0156,25.7813 Q142.0156,22.6563 143.3281,21 Q144.6563,19.3438 147.1563,19.3438 Q147.8594,19.3438 148.5,19.5 Q149.1563,19.6563 149.7188,19.9531 L149.7188,22.6719 Q149.0938,22.0938 148.5,21.8281 Q147.9063,21.5469 147.2813,21.5469 Q145.9375,21.5469 145.25,22.625 Q144.5625,23.6875 144.5625,25.7813 Q144.5625,27.875 145.25,28.9531 Q145.9375,30.0156 147.2813,30.0156 Q147.9063,30.0156 148.5,29.75 Q149.0938,29.4688 149.7188,28.8906 L149.7188,31.6094 Z " fill="#000000"/><text fill="#000000" font-family="sans-serif" font-size="14" lengthAdjust="spacing" textLength="188" x="167.25" y="24.9951">ClusterMergeHistoryBuilder</text><text fill="#000000" font-family="sans-serif" font-size="10" lengthAdjust="spacing" textLength="121" x="200.75" y="37.5791">elki.clustering.hierarchical</text><line style="stroke:#181818;stroke-width:0.5;" x1="8" x2="482" y1="44.9375" y2="44.9375"/><rect fill="none" height="6" style="stroke:#C82930;stroke-width:1.0;" width="6" x="15" y="55.5859"/><text fill="#000000" font-family="sans-serif" font-size="14" lengthAdjust="spacing" text-decoration="underline" textLength="93" x="27" y="61.9326">LOG: Logging</text><polygon fill="none" points="18,69.8828,22,73.8828,18,77.8828,14,73.8828" style="stroke:#B38D22;stroke-width:1.0;"/><text fill="#000000" font-family="sans-serif" font-size="14" lengthAdjust="spacing" textLength="106" x="27" y="78.2295">ids: ArrayDBIDs</text><polygon fill="none" points="18,86.1797,22,90.1797,18,94.1797,14,90.1797" style="stroke:#B38D22;stroke-width:1.0;"/><text fill="#000000" font-family="sans-serif" font-size="14" lengthAdjust="spacing" textLength="173" x="27" y="94.5264">mergeDistance: double[]</text><polygon fill="none" points="18,102.4766,22,106.4766,18,110.4766,14,106.4766" style="stroke:#B38D22;stroke-width:1.0;"/><text fill="#000000" font-family="sans-serif" font-size="14" lengthAdjust="spacing" textLength="72" x="27" y="110.8232">csize: int[]</text><polygon fill="none" points="18,118.7734,22,122.7734,18,126.7734,14,122.7734" style="stroke:#B38D22;stroke-width:1.0;"/><text fill="#000000" font-family="sans-serif" font-size="14" lengthAdjust="spacing" textLength="89" x="27" y="127.1201">merges: int[]</text><polygon fill="none" points="18,135.0703,22,139.0703,18,143.0703,14,139.0703" style="stroke:#B38D22;stroke-width:1.0;"/><text fill="#000000" font-family="sans-serif" font-size="14" lengthAdjust="spacing" textLength="81" x="27" y="143.417">parent: int[]</text><polygon fill="none" points="18,151.3672,22,155.3672,18,159.3672,14,155.3672" style="stroke:#B38D22;stroke-width:1.0;"/><text fill="#000000" font-family="sans-serif" font-size="14" lengthAdjust="spacing" textLength="111" x="27" y="159.7139">mergecount: int</text><polygon fill="none" points="18,167.6641,22,171.6641,18,175.6641,14,171.6641" style="stroke:#B38D22;stroke-width:1.0;"/><text fill="#000000" font-family="sans-serif" font-size="14" lengthAdjust="spacing" textLength="230" x="27" y="176.0107">prototypes: ArrayModifiableDBIDs</text><polygon fill="none" points="18,183.9609,22,187.9609,18,191.9609,14,187.9609" style="stroke:#B38D22;stroke-width:1.0;"/><text fill="#000000" font-family="sans-serif" font-size="14" lengthAdjust="spacing" textLength="134" x="27" y="192.3076">isSquared: boolean</text><line style="stroke:#181818;stroke-width:0.5;" x1="8" x2="482" y1="199.6094" y2="199.6094"/><ellipse cx="18" cy="213.2578" fill="#84BE84" rx="3" ry="3" style="stroke:#038048;stroke-width:1.0;"/><text fill="#000000" font-family="sans-serif" font-size="14" lengthAdjust="spacing" textLength="339" x="27" y="216.6045">ClusterMergeHistoryBuilder(ArrayDBIDs, boolean)</text><ellipse cx="18" cy="229.5547" fill="#84BE84" rx="3" ry="3" style="stroke:#038048;stroke-width:1.0;"/><text fill="#000000" font-family="sans-serif" font-size="14" lengthAdjust="spacing" textLength="160" x="27" y="232.9014">add(int, double, int): int</text><ellipse cx="18" cy="245.8516" fill="#84BE84" rx="3" ry="3" style="stroke:#038048;stroke-width:1.0;"/><text fill="#000000" font-family="sans-serif" font-size="14" lengthAdjust="spacing" textLength="195" x="27" y="249.1982">strictAdd(int, double, int): int</text><ellipse cx="18" cy="262.1484" fill="#84BE84" rx="3" ry="3" style="stroke:#038048;stroke-width:1.0;"/><text fill="#000000" font-family="sans-serif" font-size="14" lengthAdjust="spacing" textLength="261" x="27" y="265.4951">strictAdd(int, double, int, DBIDRef): int</text><ellipse cx="18" cy="278.4453" fill="#84BE84" rx="3" ry="3" style="stroke:#038048;stroke-width:1.0;"/><text fill="#000000" font-family="sans-serif" font-size="14" lengthAdjust="spacing" textLength="224" x="27" y="281.792">complete(): ClusterMergeHistory</text><ellipse cx="18" cy="294.7422" fill="#84BE84" rx="3" ry="3" style="stroke:#038048;stroke-width:1.0;"/><text fill="#000000" font-family="sans-serif" font-size="14" lengthAdjust="spacing" textLength="450" x="27" y="298.0889">complete(WritableDoubleDataStore): ClusterDensityMergeHistory</text><ellipse cx="18" cy="311.0391" fill="#84BE84" rx="3" ry="3" style="stroke:#038048;stroke-width:1.0;"/><text fill="#000000" font-family="sans-serif" font-size="14" lengthAdjust="spacing" textLength="105" x="27" y="314.3857">getSize(int): int</text><ellipse cx="18" cy="327.3359" fill="#84BE84" rx="3" ry="3" style="stroke:#038048;stroke-width:1.0;"/><text fill="#000000" font-family="sans-serif" font-size="14" lengthAdjust="spacing" textLength="140" x="27" y="330.6826">setSize(int, int): void</text><ellipse cx="18" cy="343.6328" fill="#84BE84" rx="3" ry="3" style="stroke:#038048;stroke-width:1.0;"/><text fill="#000000" font-family="sans-serif" font-size="14" lengthAdjust="spacing" textLength="144" x="27" y="346.9795">optimizeOrder(): int[]</text><rect fill="#F24D5C" height="6" style="stroke:#C82930;stroke-width:1.0;" width="6" x="15" y="356.9297"/><text fill="#000000" font-family="sans-serif" font-size="14" lengthAdjust="spacing" textLength="188" x="27" y="363.2764">checkMonotone(): boolean</text><rect fill="#F24D5C" height="6" style="stroke:#C82930;stroke-width:1.0;" width="6" x="15" y="373.2266"/><text fill="#000000" font-family="sans-serif" font-size="14" lengthAdjust="spacing" textLength="280" x="27" y="379.5732">addRecursive(int[], int, byte[], int, int): int</text></g></a><rect fill="none" height="11.6406" style="stroke:none;stroke-width:1.0;" width="186" x="151.5" y="393.875"/><text fill="#888888" font-family="sans-serif" font-size="10" lengthAdjust="spacing" textLength="186" x="151.5" y="403.1572">UMLDoclet 2.0.19, PlantUML 1.2022.8</text><!--MD5=[58361ea287908b3a6e84195bb1a21c23]
@startuml
    remove .*\.(Instance|Par|Parameterizer|Factory)$
    set namespaceSeparator none
    hide empty fields
    hide empty methods

    class "<size:14>ClusterMergeHistoryBuilder\n<size:10>elki.clustering.hierarchical" as elki.clustering.hierarchical.ClusterMergeHistoryBuilder [[ClusterMergeHistoryBuilder.html]] {
        {static} -LOG: Logging
        #ids: ArrayDBIDs
        #mergeDistance: double[]
        #csize: int[]
        #merges: int[]
        #parent: int[]
        #mergecount: int
        #prototypes: ArrayModifiableDBIDs
        #isSquared: boolean
        +ClusterMergeHistoryBuilder(ArrayDBIDs, boolean)
        +add(int, double, int): int
        +strictAdd(int, double, int): int
        +strictAdd(int, double, int, DBIDRef): int
        +complete(): ClusterMergeHistory
        +complete(WritableDoubleDataStore): ClusterDensityMergeHistory
        +getSize(int): int
        +setSize(int, int): void
        +optimizeOrder(): int[]
        -checkMonotone(): boolean
        -addRecursive(int[], int, byte[], int, int): int
    }

    center footer UMLDoclet 2.0.19, PlantUML 1.2022.8
@enduml

PlantUML version 1.2022.8(Sun Sep 25 11:00:33 CEST 2022)
(APACHE source distribution)
Java Runtime: OpenJDK Runtime Environment
JVM: OpenJDK 64-Bit Server VM
Default Encoding: UTF-8
Language: de
Country: DE
--></g></svg>