<?xml version="1.0" encoding="UTF-8" standalone="no"?><svg xmlns="http://www.w3.org/2000/svg" xmlns:xlink="http://www.w3.org/1999/xlink" contentStyleType="text/css" height="233px" preserveAspectRatio="none" style="width:621px;height:233px;background:#FFFFFF;" version="1.1" viewBox="0 0 621 233" width="621px" zoomAndPan="magnify"><defs/><g><!--MD5=[ceb49d871936c918eda8479efd4ff44c]
class elki.clustering.hierarchical.ClusterPrototypeMergeHistory--><a href="ClusterPrototypeMergeHistory.html" target="_top" title="ClusterPrototypeMergeHistory.html" xlink:actuate="onRequest" xlink:href="ClusterPrototypeMergeHistory.html" xlink:show="new" xlink:title="ClusterPrototypeMergeHistory.html" xlink:type="simple"><g id="elem_elki.clustering.hierarchical.ClusterPrototypeMergeHistory"><rect codeLine="6" fill="#F1F1F1" height="102.8281" id="elki.clustering.hierarchical.ClusterPrototypeMergeHistory" rx="2.5" ry="2.5" style="stroke:#181818;stroke-width:0.5;" width="605" x="9" y="105"/><ellipse cx="203.75" cy="123.9688" fill="#ADD1B2" rx="11" ry="11" style="stroke:#181818;stroke-width:1.0;"/><path d="M206.7188,129.6094 Q206.1406,129.9063 205.5,130.0469 Q204.8594,130.2031 204.1563,130.2031 Q201.6563,130.2031 200.3281,128.5625 Q199.0156,126.9063 199.0156,123.7813 Q199.0156,120.6563 200.3281,119 Q201.6563,117.3438 204.1563,117.3438 Q204.8594,117.3438 205.5,117.5 Q206.1563,117.6563 206.7188,117.9531 L206.7188,120.6719 Q206.0938,120.0938 205.5,119.8281 Q204.9063,119.5469 204.2813,119.5469 Q202.9375,119.5469 202.25,120.625 Q201.5625,121.6875 201.5625,123.7813 Q201.5625,125.875 202.25,126.9531 Q202.9375,128.0156 204.2813,128.0156 Q204.9063,128.0156 205.5,127.75 Q206.0938,127.4688 206.7188,126.8906 L206.7188,129.6094 Z " fill="#000000"/><text fill="#000000" font-family="sans-serif" font-size="14" lengthAdjust="spacing" textLength="207" x="224.25" y="122.9951">ClusterPrototypeMergeHistory</text><text fill="#000000" font-family="sans-serif" font-size="10" lengthAdjust="spacing" textLength="121" x="267.25" y="135.5791">elki.clustering.hierarchical</text><line style="stroke:#181818;stroke-width:0.5;" x1="10" x2="613" y1="142.9375" y2="142.9375"/><polygon fill="none" points="20,151.5859,24,155.5859,20,159.5859,16,155.5859" style="stroke:#B38D22;stroke-width:1.0;"/><text fill="#000000" font-family="sans-serif" font-size="14" lengthAdjust="spacing" textLength="161" x="29" y="159.9326">prototypes: ArrayDBIDs</text><line style="stroke:#181818;stroke-width:0.5;" x1="10" x2="613" y1="167.2344" y2="167.2344"/><ellipse cx="20" cy="180.8828" fill="#84BE84" rx="3" ry="3" style="stroke:#038048;stroke-width:1.0;"/><text fill="#000000" font-family="sans-serif" font-size="14" lengthAdjust="spacing" textLength="579" x="29" y="184.2295">ClusterPrototypeMergeHistory(ArrayDBIDs, int[], double[], int[], boolean, ArrayDBIDs)</text><ellipse cx="20" cy="197.1797" fill="#84BE84" rx="3" ry="3" style="stroke:#038048;stroke-width:1.0;"/><text fill="#000000" font-family="sans-serif" font-size="14" lengthAdjust="spacing" textLength="138" x="29" y="200.5264">prototype(int): DBID</text></g></a><!--MD5=[69a45bc9cb027ec9ef128f649cf25efe]
class elki.clustering.hierarchical.ClusterMergeHistory--><a href="ClusterMergeHistory.html" target="_top" title="ClusterMergeHistory.html" xlink:actuate="onRequest" xlink:href="ClusterMergeHistory.html" xlink:show="new" xlink:title="ClusterMergeHistory.html" xlink:type="simple"><g id="elem_elki.clustering.hierarchical.ClusterMergeHistory"><rect codeLine="12" fill="#F1F1F1" height="37.9375" id="elki.clustering.hierarchical.ClusterMergeHistory" rx="2.5" ry="2.5" style="stroke:#181818;stroke-width:0.5;" width="172" x="225.5" y="7"/><ellipse cx="240.5" cy="25.9688" fill="#ADD1B2" rx="11" ry="11" style="stroke:#181818;stroke-width:1.0;"/><path d="M243.4688,31.6094 Q242.8906,31.9063 242.25,32.0469 Q241.6094,32.2031 240.9063,32.2031 Q238.4063,32.2031 237.0781,30.5625 Q235.7656,28.9063 235.7656,25.7813 Q235.7656,22.6563 237.0781,21 Q238.4063,19.3438 240.9063,19.3438 Q241.6094,19.3438 242.25,19.5 Q242.9063,19.6563 243.4688,19.9531 L243.4688,22.6719 Q242.8438,22.0938 242.25,21.8281 Q241.6563,21.5469 241.0313,21.5469 Q239.6875,21.5469 239,22.625 Q238.3125,23.6875 238.3125,25.7813 Q238.3125,27.875 239,28.9531 Q239.6875,30.0156 241.0313,30.0156 Q241.6563,30.0156 242.25,29.75 Q242.8438,29.4688 243.4688,28.8906 L243.4688,31.6094 Z " fill="#000000"/><text fill="#000000" font-family="sans-serif" font-size="14" lengthAdjust="spacing" textLength="140" x="254.5" y="24.9951">ClusterMergeHistory</text><text fill="#000000" font-family="sans-serif" font-size="10" lengthAdjust="spacing" textLength="121" x="264" y="37.5791">elki.clustering.hierarchical</text></g></a><!--MD5=[21c99903e9a07c9c56212cd9e4881dfa]
reverse link elki.clustering.hierarchical.ClusterMergeHistory to elki.clustering.hierarchical.ClusterPrototypeMergeHistory--><g id="link_elki.clustering.hierarchical.ClusterMergeHistory_elki.clustering.hierarchical.ClusterPrototypeMergeHistory"><path codeLine="14" d="M311.5,65.26 C311.5,77.65 311.5,91.59 311.5,104.74 " fill="none" id="elki.clustering.hierarchical.ClusterMergeHistory-backto-elki.clustering.hierarchical.ClusterPrototypeMergeHistory" style="stroke:#181818;stroke-width:1.0;"/><polygon fill="none" points="304.5,65.14,311.5,45.14,318.5,65.14,304.5,65.14" style="stroke:#181818;stroke-width:1.0;"/></g><rect fill="none" height="11.6406" style="stroke:none;stroke-width:1.0;" width="186" x="210.5" y="213.8281"/><text fill="#888888" font-family="sans-serif" font-size="10" lengthAdjust="spacing" textLength="186" x="210.5" y="223.1104">UMLDoclet 2.0.19, PlantUML 1.2022.8</text><!--MD5=[3b4152c6a6d01da95bb332c7881623bd]
@startuml
    remove .*\.(Instance|Par|Parameterizer|Factory)$
    set namespaceSeparator none
    hide empty fields
    hide empty methods

    class "<size:14>ClusterPrototypeMergeHistory\n<size:10>elki.clustering.hierarchical" as elki.clustering.hierarchical.ClusterPrototypeMergeHistory [[ClusterPrototypeMergeHistory.html]] {
        #prototypes: ArrayDBIDs
        +ClusterPrototypeMergeHistory(ArrayDBIDs, int[], double[], int[], boolean, ArrayDBIDs)
        +prototype(int): DBID
    }

    class "<size:14>ClusterMergeHistory\n<size:10>elki.clustering.hierarchical" as elki.clustering.hierarchical.ClusterMergeHistory [[ClusterMergeHistory.html]]

    elki.clustering.hierarchical.ClusterMergeHistory <|- - elki.clustering.hierarchical.ClusterPrototypeMergeHistory

    center footer UMLDoclet 2.0.19, PlantUML 1.2022.8
@enduml

PlantUML version 1.2022.8(Sun Sep 25 11:00:33 CEST 2022)
(APACHE source distribution)
Java Runtime: OpenJDK Runtime Environment
JVM: OpenJDK 64-Bit Server VM
Default Encoding: UTF-8
Language: de
Country: DE
--></g></svg>