<?xml version="1.0" encoding="UTF-8" standalone="no"?><svg xmlns="http://www.w3.org/2000/svg" xmlns:xlink="http://www.w3.org/1999/xlink" contentStyleType="text/css" height="293px" preserveAspectRatio="none" style="width:484px;height:293px;background:#FFFFFF;" version="1.1" viewBox="0 0 484 293" width="484px" zoomAndPan="magnify"><defs/><g><!--MD5=[ef89399f1677a45cb2f63c801d43ee9e]
class elki.clustering.hierarchical.HDBSCANLinearMemory--><a href="HDBSCANLinearMemory.html" target="_top" title="HDBSCANLinearMemory.html" xlink:actuate="onRequest" xlink:href="HDBSCANLinearMemory.html" xlink:show="new" xlink:title="HDBSCANLinearMemory.html" xlink:type="simple"><g id="elem_elki.clustering.hierarchical.HDBSCANLinearMemory"><rect codeLine="6" fill="#F1F1F1" height="135.4219" id="elki.clustering.hierarchical.HDBSCANLinearMemory" rx="2.5" ry="2.5" style="stroke:#181818;stroke-width:0.5;" width="377" x="34.5" y="132"/><ellipse cx="130.25" cy="150.9688" fill="#ADD1B2" rx="11" ry="11" style="stroke:#181818;stroke-width:1.0;"/><path d="M133.2188,156.6094 Q132.6406,156.9063 132,157.0469 Q131.3594,157.2031 130.6563,157.2031 Q128.1563,157.2031 126.8281,155.5625 Q125.5156,153.9063 125.5156,150.7813 Q125.5156,147.6563 126.8281,146 Q128.1563,144.3438 130.6563,144.3438 Q131.3594,144.3438 132,144.5 Q132.6563,144.6563 133.2188,144.9531 L133.2188,147.6719 Q132.5938,147.0938 132,146.8281 Q131.4063,146.5469 130.7813,146.5469 Q129.4375,146.5469 128.75,147.625 Q128.0625,148.6875 128.0625,150.7813 Q128.0625,152.875 128.75,153.9531 Q129.4375,155.0156 130.7813,155.0156 Q131.4063,155.0156 132,154.75 Q132.5938,154.4688 133.2188,153.8906 L133.2188,156.6094 Z " fill="#000000"/><text fill="#000000" font-family="sans-serif" font-size="14" lengthAdjust="spacing" textLength="165" x="150.75" y="149.9951">HDBSCANLinearMemory</text><text fill="#000000" font-family="sans-serif" font-size="10" lengthAdjust="spacing" textLength="121" x="172.75" y="162.5791">elki.clustering.hierarchical</text><rect fill="#FFFFFF" height="15.9688" style="stroke:#181818;stroke-width:1.0;stroke-dasharray:2.0,2.0;" width="10" x="404.5" y="129"/><text fill="#000000" font-family="sans-serif" font-size="12" font-style="italic" lengthAdjust="spacing" textLength="8" x="405.5" y="141.1387">O</text><line style="stroke:#181818;stroke-width:0.5;" x1="35.5" x2="410.5" y1="169.9375" y2="169.9375"/><rect fill="none" height="6" style="stroke:#C82930;stroke-width:1.0;" width="6" x="42.5" y="180.5859"/><text fill="#000000" font-family="sans-serif" font-size="14" lengthAdjust="spacing" text-decoration="underline" textLength="93" x="54.5" y="186.9326">LOG: Logging</text><line style="stroke:#181818;stroke-width:0.5;" x1="35.5" x2="410.5" y1="194.2344" y2="194.2344"/><ellipse cx="45.5" cy="207.8828" fill="#84BE84" rx="3" ry="3" style="stroke:#038048;stroke-width:1.0;"/><text fill="#000000" font-family="sans-serif" font-size="14" lengthAdjust="spacing" textLength="351" x="54.5" y="211.2295">HDBSCANLinearMemory(Distance&lt;? super O&gt;, int)</text><ellipse cx="45.5" cy="224.1797" fill="#84BE84" rx="3" ry="3" style="stroke:#038048;stroke-width:1.0;"/><text fill="#000000" font-family="sans-serif" font-size="14" lengthAdjust="spacing" textLength="306" x="54.5" y="227.5264">getInputTypeRestriction(): TypeInformation[]</text><ellipse cx="45.5" cy="240.4766" fill="#84BE84" rx="3" ry="3" style="stroke:#038048;stroke-width:1.0;"/><text fill="#000000" font-family="sans-serif" font-size="14" lengthAdjust="spacing" textLength="325" x="54.5" y="243.8232">run(Relation&lt;O&gt;): ClusterDensityMergeHistory</text><polygon fill="#FFFF44" points="45.5,251.7734,49.5,255.7734,45.5,259.7734,41.5,255.7734" style="stroke:#B38D22;stroke-width:1.0;"/><text fill="#000000" font-family="sans-serif" font-size="14" lengthAdjust="spacing" textLength="145" x="54.5" y="260.1201">getLogger(): Logging</text></g></a><!--MD5=[6ba6af444bc57879c288d3a8b776d603]
class elki.clustering.hierarchical.AbstractHDBSCAN--><a href="AbstractHDBSCAN.html" target="_top" title="AbstractHDBSCAN.html" xlink:actuate="onRequest" xlink:href="AbstractHDBSCAN.html" xlink:show="new" xlink:title="AbstractHDBSCAN.html" xlink:type="simple"><g id="elem_elki.clustering.hierarchical.AbstractHDBSCAN"><rect codeLine="14" fill="#F1F1F1" height="62.2344" id="elki.clustering.hierarchical.AbstractHDBSCAN" rx="2.5" ry="2.5" style="stroke:#181818;stroke-width:0.5;" width="176" x="9" y="10"/><ellipse cx="24" cy="28.9688" fill="#A9DCDF" rx="11" ry="11" style="stroke:#181818;stroke-width:1.0;"/><path d="M24.1094,24.3125 L22.9531,29.3906 L25.2813,29.3906 L24.1094,24.3125 Z M22.625,22.0781 L25.6094,22.0781 L28.9688,34.4688 L26.5156,34.4688 L25.75,31.4063 L22.4688,31.4063 L21.7188,34.4688 L19.2813,34.4688 L22.625,22.0781 Z " fill="#000000"/><text fill="#000000" font-family="sans-serif" font-size="14" font-style="italic" lengthAdjust="spacing" textLength="130" x="39" y="27.9951">AbstractHDBSCAN</text><text fill="#000000" font-family="sans-serif" font-size="10" font-style="italic" lengthAdjust="spacing" textLength="132" x="38" y="40.5791">elki.clustering.hierarchical</text><rect fill="#FFFFFF" height="15.9688" style="stroke:#181818;stroke-width:1.0;stroke-dasharray:2.0,2.0;" width="10" x="178" y="7"/><text fill="#000000" font-family="sans-serif" font-size="12" font-style="italic" lengthAdjust="spacing" textLength="8" x="179" y="19.1387">O</text><line style="stroke:#181818;stroke-width:0.5;" x1="10" x2="184" y1="47.9375" y2="47.9375"/><polygon fill="#FFFF44" points="20,56.5859,24,60.5859,20,64.5859,16,60.5859" style="stroke:#B38D22;stroke-width:1.0;"/><text fill="#000000" font-family="sans-serif" font-size="14" font-style="italic" lengthAdjust="spacing" textLength="148" x="29" y="64.9326">getLogger(): Logging</text></g></a><!--MD5=[716175f7abaccf4cfae85315c787f09f]
class elki.clustering.hierarchical.HierarchicalClusteringAlgorithm--><a href="HierarchicalClusteringAlgorithm.html" target="_top" title="HierarchicalClusteringAlgorithm.html" xlink:actuate="onRequest" xlink:href="HierarchicalClusteringAlgorithm.html" xlink:show="new" xlink:title="HierarchicalClusteringAlgorithm.html" xlink:type="simple"><g id="elem_elki.clustering.hierarchical.HierarchicalClusteringAlgorithm"><rect codeLine="17" fill="#F1F1F1" height="37.9375" id="elki.clustering.hierarchical.HierarchicalClusteringAlgorithm" rx="2.5" ry="2.5" style="stroke:#181818;stroke-width:0.5;" width="257" x="220.5" y="22"/><ellipse cx="235.5" cy="40.9688" fill="#B4A7E5" rx="11" ry="11" style="stroke:#181818;stroke-width:1.0;"/><path d="M231.4219,36.7344 L231.4219,34.5781 L238.8125,34.5781 L238.8125,36.7344 L236.3438,36.7344 L236.3438,44.8125 L238.8125,44.8125 L238.8125,46.9688 L231.4219,46.9688 L231.4219,44.8125 L233.8906,44.8125 L233.8906,36.7344 L231.4219,36.7344 Z " fill="#000000"/><text fill="#000000" font-family="sans-serif" font-size="14" font-style="italic" lengthAdjust="spacing" textLength="225" x="249.5" y="39.9951">HierarchicalClusteringAlgorithm</text><text fill="#000000" font-family="sans-serif" font-size="10" font-style="italic" lengthAdjust="spacing" textLength="132" x="296" y="52.5791">elki.clustering.hierarchical</text></g></a><!--MD5=[2eb7b71f5107e6d46224cea555af1957]
reverse link elki.clustering.hierarchical.AbstractHDBSCAN to elki.clustering.hierarchical.HDBSCANLinearMemory--><g id="link_elki.clustering.hierarchical.AbstractHDBSCAN_elki.clustering.hierarchical.HDBSCANLinearMemory"><path codeLine="20" d="M134.01,87.97 C145.07,101.7 157.41,117.03 169.3,131.8 " fill="none" id="elki.clustering.hierarchical.AbstractHDBSCAN-backto-elki.clustering.hierarchical.HDBSCANLinearMemory" style="stroke:#181818;stroke-width:1.0;"/><polygon fill="none" points="128.38,92.14,121.29,72.17,139.29,83.36,128.38,92.14" style="stroke:#181818;stroke-width:1.0;"/></g><!--MD5=[e2b83a199c4a761aebc5c79e67bf3b6f]
reverse link elki.clustering.hierarchical.HierarchicalClusteringAlgorithm to elki.clustering.hierarchical.HDBSCANLinearMemory--><g id="link_elki.clustering.hierarchical.HierarchicalClusteringAlgorithm_elki.clustering.hierarchical.HDBSCANLinearMemory"><path codeLine="21" d="M321.62,76 C308.45,92.37 292.17,112.59 276.66,131.85 " fill="none" id="elki.clustering.hierarchical.HierarchicalClusteringAlgorithm-backto-elki.clustering.hierarchical.HDBSCANLinearMemory" style="stroke:#181818;stroke-width:1.0;stroke-dasharray:7.0,7.0;"/><polygon fill="none" points="316.3,71.45,334.3,60.26,327.21,80.23,316.3,71.45" style="stroke:#181818;stroke-width:1.0;"/></g><rect fill="none" height="11.6406" style="stroke:none;stroke-width:1.0;" width="186" x="142.25" y="273.4219"/><text fill="#888888" font-family="sans-serif" font-size="10" lengthAdjust="spacing" textLength="186" x="142.25" y="282.7041">UMLDoclet 2.0.19, PlantUML 1.2022.8</text><!--MD5=[59a98de6d782df036da2b3384ad4aa0f]
@startuml
    remove .*\.(Instance|Par|Parameterizer|Factory)$
    set namespaceSeparator none
    hide empty fields
    hide empty methods

    class "<size:14>HDBSCANLinearMemory\n<size:10>elki.clustering.hierarchical" as elki.clustering.hierarchical.HDBSCANLinearMemory<O> [[HDBSCANLinearMemory.html]] {
        {static} -LOG: Logging
        +HDBSCANLinearMemory(Distance<? super O>, int)
        +getInputTypeRestriction(): TypeInformation[]
        +run(Relation<O>): ClusterDensityMergeHistory
        #getLogger(): Logging
    }

    abstract class "<size:14>AbstractHDBSCAN\n<size:10>elki.clustering.hierarchical" as elki.clustering.hierarchical.AbstractHDBSCAN<O> [[AbstractHDBSCAN.html]] {
        {abstract} #getLogger(): Logging
    }
    interface "<size:14>HierarchicalClusteringAlgorithm\n<size:10>elki.clustering.hierarchical" as elki.clustering.hierarchical.HierarchicalClusteringAlgorithm [[HierarchicalClusteringAlgorithm.html]]
    class "<size:14>HDBSCANLinearMemory.Par\n<size:10>elki.clustering.hierarchical" as elki.clustering.hierarchical.HDBSCANLinearMemory.Par<O>

    elki.clustering.hierarchical.AbstractHDBSCAN <|- - elki.clustering.hierarchical.HDBSCANLinearMemory
    elki.clustering.hierarchical.HierarchicalClusteringAlgorithm <|.. elki.clustering.hierarchical.HDBSCANLinearMemory
    elki.clustering.hierarchical.HDBSCANLinearMemory +- - elki.clustering.hierarchical.HDBSCANLinearMemory.Par

    center footer UMLDoclet 2.0.19, PlantUML 1.2022.8
@enduml

PlantUML version 1.2022.8(Sun Sep 25 11:00:33 CEST 2022)
(APACHE source distribution)
Java Runtime: OpenJDK Runtime Environment
JVM: OpenJDK 64-Bit Server VM
Default Encoding: UTF-8
Language: de
Country: DE
--></g></svg>