<?xml version="1.0" encoding="UTF-8" standalone="no"?><svg xmlns="http://www.w3.org/2000/svg" xmlns:xlink="http://www.w3.org/1999/xlink" contentStyleType="text/css" height="266px" preserveAspectRatio="none" style="width:386px;height:266px;background:#FFFFFF;" version="1.1" viewBox="0 0 386 266" width="386px" zoomAndPan="magnify"><defs/><g><!--MD5=[0251bf433d6c502a1b93d001784dcdd7]
class elki.clustering.hierarchical.MedoidLinkage--><a href="MedoidLinkage.html" target="_top" title="MedoidLinkage.html" xlink:actuate="onRequest" xlink:href="MedoidLinkage.html" xlink:show="new" xlink:title="MedoidLinkage.html" xlink:type="simple"><g id="elem_elki.clustering.hierarchical.MedoidLinkage"><rect codeLine="6" fill="#F1F1F1" height="135.4219" id="elki.clustering.hierarchical.MedoidLinkage" rx="2.5" ry="2.5" style="stroke:#181818;stroke-width:0.5;" width="366" x="9" y="105"/><ellipse cx="121.25" cy="123.9688" fill="#ADD1B2" rx="11" ry="11" style="stroke:#181818;stroke-width:1.0;"/><path d="M124.2188,129.6094 Q123.6406,129.9063 123,130.0469 Q122.3594,130.2031 121.6563,130.2031 Q119.1563,130.2031 117.8281,128.5625 Q116.5156,126.9063 116.5156,123.7813 Q116.5156,120.6563 117.8281,119 Q119.1563,117.3438 121.6563,117.3438 Q122.3594,117.3438 123,117.5 Q123.6563,117.6563 124.2188,117.9531 L124.2188,120.6719 Q123.5938,120.0938 123,119.8281 Q122.4063,119.5469 121.7813,119.5469 Q120.4375,119.5469 119.75,120.625 Q119.0625,121.6875 119.0625,123.7813 Q119.0625,125.875 119.75,126.9531 Q120.4375,128.0156 121.7813,128.0156 Q122.4063,128.0156 123,127.75 Q123.5938,127.4688 124.2188,126.8906 L124.2188,129.6094 Z " fill="#000000"/><text fill="#000000" font-family="sans-serif" font-size="14" lengthAdjust="spacing" textLength="104" x="150.25" y="122.9951">MedoidLinkage</text><text fill="#000000" font-family="sans-serif" font-size="10" lengthAdjust="spacing" textLength="121" x="141.75" y="135.5791">elki.clustering.hierarchical</text><rect fill="#FFFFFF" height="15.9688" style="stroke:#181818;stroke-width:1.0;stroke-dasharray:2.0,2.0;" width="10" x="368" y="102"/><text fill="#000000" font-family="sans-serif" font-size="12" font-style="italic" lengthAdjust="spacing" textLength="8" x="369" y="114.1387">O</text><line style="stroke:#181818;stroke-width:0.5;" x1="10" x2="374" y1="142.9375" y2="142.9375"/><rect fill="none" height="6" style="stroke:#C82930;stroke-width:1.0;" width="6" x="17" y="153.5859"/><text fill="#000000" font-family="sans-serif" font-size="14" lengthAdjust="spacing" text-decoration="underline" textLength="93" x="29" y="159.9326">LOG: Logging</text><polygon fill="none" points="20,167.8828,24,171.8828,20,175.8828,16,171.8828" style="stroke:#B38D22;stroke-width:1.0;"/><text fill="#000000" font-family="sans-serif" font-size="14" lengthAdjust="spacing" textLength="219" x="29" y="176.2295">distance: Distance&lt;? super O&gt;</text><line style="stroke:#181818;stroke-width:0.5;" x1="10" x2="374" y1="183.5313" y2="183.5313"/><ellipse cx="20" cy="197.1797" fill="#84BE84" rx="3" ry="3" style="stroke:#038048;stroke-width:1.0;"/><text fill="#000000" font-family="sans-serif" font-size="14" lengthAdjust="spacing" textLength="265" x="29" y="200.5264">MedoidLinkage(Distance&lt;? super O&gt;)</text><ellipse cx="20" cy="213.4766" fill="#84BE84" rx="3" ry="3" style="stroke:#038048;stroke-width:1.0;"/><text fill="#000000" font-family="sans-serif" font-size="14" lengthAdjust="spacing" textLength="340" x="29" y="216.8232">run(Relation&lt;O&gt;): ClusterPrototypeMergeHistory</text><ellipse cx="20" cy="229.7734" fill="#84BE84" rx="3" ry="3" style="stroke:#038048;stroke-width:1.0;"/><text fill="#000000" font-family="sans-serif" font-size="14" lengthAdjust="spacing" textLength="306" x="29" y="233.1201">getInputTypeRestriction(): TypeInformation[]</text></g></a><!--MD5=[716175f7abaccf4cfae85315c787f09f]
class elki.clustering.hierarchical.HierarchicalClusteringAlgorithm--><a href="HierarchicalClusteringAlgorithm.html" target="_top" title="HierarchicalClusteringAlgorithm.html" xlink:actuate="onRequest" xlink:href="HierarchicalClusteringAlgorithm.html" xlink:show="new" xlink:title="HierarchicalClusteringAlgorithm.html" xlink:type="simple"><g id="elem_elki.clustering.hierarchical.HierarchicalClusteringAlgorithm"><rect codeLine="14" fill="#F1F1F1" height="37.9375" id="elki.clustering.hierarchical.HierarchicalClusteringAlgorithm" rx="2.5" ry="2.5" style="stroke:#181818;stroke-width:0.5;" width="257" x="63.5" y="7"/><ellipse cx="78.5" cy="25.9688" fill="#B4A7E5" rx="11" ry="11" style="stroke:#181818;stroke-width:1.0;"/><path d="M74.4219,21.7344 L74.4219,19.5781 L81.8125,19.5781 L81.8125,21.7344 L79.3438,21.7344 L79.3438,29.8125 L81.8125,29.8125 L81.8125,31.9688 L74.4219,31.9688 L74.4219,29.8125 L76.8906,29.8125 L76.8906,21.7344 L74.4219,21.7344 Z " fill="#000000"/><text fill="#000000" font-family="sans-serif" font-size="14" font-style="italic" lengthAdjust="spacing" textLength="225" x="92.5" y="24.9951">HierarchicalClusteringAlgorithm</text><text fill="#000000" font-family="sans-serif" font-size="10" font-style="italic" lengthAdjust="spacing" textLength="132" x="139" y="37.5791">elki.clustering.hierarchical</text></g></a><!--MD5=[4d655cd8a383acec3260e3021a1bf089]
reverse link elki.clustering.hierarchical.HierarchicalClusteringAlgorithm to elki.clustering.hierarchical.MedoidLinkage--><g id="link_elki.clustering.hierarchical.HierarchicalClusteringAlgorithm_elki.clustering.hierarchical.MedoidLinkage"><path codeLine="18" d="M192,65.22 C192,77.35 192,91.15 192,104.69 " fill="none" id="elki.clustering.hierarchical.HierarchicalClusteringAlgorithm-backto-elki.clustering.hierarchical.MedoidLinkage" style="stroke:#181818;stroke-width:1.0;stroke-dasharray:7.0,7.0;"/><polygon fill="none" points="185,65.01,192,45.01,199,65.01,185,65.01" style="stroke:#181818;stroke-width:1.0;"/></g><rect fill="none" height="11.6406" style="stroke:none;stroke-width:1.0;" width="186" x="93" y="246.4219"/><text fill="#888888" font-family="sans-serif" font-size="10" lengthAdjust="spacing" textLength="186" x="93" y="255.7041">UMLDoclet 2.0.19, PlantUML 1.2022.8</text><!--MD5=[8bbd9ad59f4d27d16ee0580b9829dfc6]
@startuml
    remove .*\.(Instance|Par|Parameterizer|Factory)$
    set namespaceSeparator none
    hide empty fields
    hide empty methods

    class "<size:14>MedoidLinkage\n<size:10>elki.clustering.hierarchical" as elki.clustering.hierarchical.MedoidLinkage<O> [[MedoidLinkage.html]] {
        {static} -LOG: Logging
        #distance: Distance<? super O>
        +MedoidLinkage(Distance<? super O>)
        +run(Relation<O>): ClusterPrototypeMergeHistory
        +getInputTypeRestriction(): TypeInformation[]
    }

    interface "<size:14>HierarchicalClusteringAlgorithm\n<size:10>elki.clustering.hierarchical" as elki.clustering.hierarchical.HierarchicalClusteringAlgorithm [[HierarchicalClusteringAlgorithm.html]]
    class "<size:14>MedoidLinkage.Instance\n<size:10>elki.clustering.hierarchical" as elki.clustering.hierarchical.MedoidLinkage.Instance [[MedoidLinkage.Instance.html]]
    class "<size:14>MedoidLinkage.Par\n<size:10>elki.clustering.hierarchical" as elki.clustering.hierarchical.MedoidLinkage.Par<O>

    elki.clustering.hierarchical.HierarchicalClusteringAlgorithm <|.. elki.clustering.hierarchical.MedoidLinkage
    elki.clustering.hierarchical.MedoidLinkage +- - elki.clustering.hierarchical.MedoidLinkage.Instance
    elki.clustering.hierarchical.MedoidLinkage +- - elki.clustering.hierarchical.MedoidLinkage.Par

    center footer UMLDoclet 2.0.19, PlantUML 1.2022.8
@enduml

PlantUML version 1.2022.8(Sun Sep 25 11:00:33 CEST 2022)
(APACHE source distribution)
Java Runtime: OpenJDK Runtime Environment
JVM: OpenJDK 64-Bit Server VM
Default Encoding: UTF-8
Language: de
Country: DE
--></g></svg>