<?xml version="1.0" encoding="UTF-8" standalone="no"?><svg xmlns="http://www.w3.org/2000/svg" xmlns:xlink="http://www.w3.org/1999/xlink" contentStyleType="text/css" height="252px" preserveAspectRatio="none" style="width:384px;height:252px;background:#FFFFFF;" version="1.1" viewBox="0 0 384 252" width="384px" zoomAndPan="magnify"><defs/><g><!--MD5=[004d2dd28d0389ddf152db3d115ffdfb]
class elki.clustering.hierarchical.MiniMaxNNChain--><a href="MiniMaxNNChain.html" target="_top" title="MiniMaxNNChain.html" xlink:actuate="onRequest" xlink:href="MiniMaxNNChain.html" xlink:show="new" xlink:title="MiniMaxNNChain.html" xlink:type="simple"><g id="elem_elki.clustering.hierarchical.MiniMaxNNChain"><rect codeLine="6" fill="#F1F1F1" height="119.125" id="elki.clustering.hierarchical.MiniMaxNNChain" rx="2.5" ry="2.5" style="stroke:#181818;stroke-width:0.5;" width="366" x="7" y="108"/><ellipse cx="119.25" cy="126.9688" fill="#ADD1B2" rx="11" ry="11" style="stroke:#181818;stroke-width:1.0;"/><path d="M122.2188,132.6094 Q121.6406,132.9063 121,133.0469 Q120.3594,133.2031 119.6563,133.2031 Q117.1563,133.2031 115.8281,131.5625 Q114.5156,129.9063 114.5156,126.7813 Q114.5156,123.6563 115.8281,122 Q117.1563,120.3438 119.6563,120.3438 Q120.3594,120.3438 121,120.5 Q121.6563,120.6563 122.2188,120.9531 L122.2188,123.6719 Q121.5938,123.0938 121,122.8281 Q120.4063,122.5469 119.7813,122.5469 Q118.4375,122.5469 117.75,123.625 Q117.0625,124.6875 117.0625,126.7813 Q117.0625,128.875 117.75,129.9531 Q118.4375,131.0156 119.7813,131.0156 Q120.4063,131.0156 121,130.75 Q121.5938,130.4688 122.2188,129.8906 L122.2188,132.6094 Z " fill="#000000"/><text fill="#000000" font-family="sans-serif" font-size="14" lengthAdjust="spacing" textLength="113" x="143.75" y="125.9951">MiniMaxNNChain</text><text fill="#000000" font-family="sans-serif" font-size="10" lengthAdjust="spacing" textLength="121" x="139.75" y="138.5791">elki.clustering.hierarchical</text><rect fill="#FFFFFF" height="15.9688" style="stroke:#181818;stroke-width:1.0;stroke-dasharray:2.0,2.0;" width="10" x="366" y="105"/><text fill="#000000" font-family="sans-serif" font-size="12" font-style="italic" lengthAdjust="spacing" textLength="8" x="367" y="117.1387">O</text><line style="stroke:#181818;stroke-width:0.5;" x1="8" x2="372" y1="145.9375" y2="145.9375"/><rect fill="none" height="6" style="stroke:#C82930;stroke-width:1.0;" width="6" x="15" y="156.5859"/><text fill="#000000" font-family="sans-serif" font-size="14" lengthAdjust="spacing" text-decoration="underline" textLength="93" x="27" y="162.9326">LOG: Logging</text><line style="stroke:#181818;stroke-width:0.5;" x1="8" x2="372" y1="170.2344" y2="170.2344"/><ellipse cx="18" cy="183.8828" fill="#84BE84" rx="3" ry="3" style="stroke:#038048;stroke-width:1.0;"/><text fill="#000000" font-family="sans-serif" font-size="14" lengthAdjust="spacing" textLength="274" x="27" y="187.2295">MiniMaxNNChain(Distance&lt;? super O&gt;)</text><ellipse cx="18" cy="200.1797" fill="#84BE84" rx="3" ry="3" style="stroke:#038048;stroke-width:1.0;"/><text fill="#000000" font-family="sans-serif" font-size="14" lengthAdjust="spacing" textLength="340" x="27" y="203.5264">run(Relation&lt;O&gt;): ClusterPrototypeMergeHistory</text><ellipse cx="18" cy="216.4766" fill="#84BE84" rx="3" ry="3" style="stroke:#038048;stroke-width:1.0;"/><text fill="#000000" font-family="sans-serif" font-size="14" lengthAdjust="spacing" textLength="306" x="27" y="219.8232">getInputTypeRestriction(): TypeInformation[]</text></g></a><!--MD5=[10f0de55f87effb8e6e60865fdab7fcc]
class elki.clustering.hierarchical.MiniMax--><a href="MiniMax.html" target="_top" title="MiniMax.html" xlink:actuate="onRequest" xlink:href="MiniMax.html" xlink:show="new" xlink:title="MiniMax.html" xlink:type="simple"><g id="elem_elki.clustering.hierarchical.MiniMax"><rect codeLine="13" fill="#F1F1F1" height="37.9375" id="elki.clustering.hierarchical.MiniMax" rx="2.5" ry="2.5" style="stroke:#181818;stroke-width:0.5;" width="165" x="107.5" y="10"/><ellipse cx="122.5" cy="28.9688" fill="#ADD1B2" rx="11" ry="11" style="stroke:#181818;stroke-width:1.0;"/><path d="M125.4688,34.6094 Q124.8906,34.9063 124.25,35.0469 Q123.6094,35.2031 122.9063,35.2031 Q120.4063,35.2031 119.0781,33.5625 Q117.7656,31.9063 117.7656,28.7813 Q117.7656,25.6563 119.0781,24 Q120.4063,22.3438 122.9063,22.3438 Q123.6094,22.3438 124.25,22.5 Q124.9063,22.6563 125.4688,22.9531 L125.4688,25.6719 Q124.8438,25.0938 124.25,24.8281 Q123.6563,24.5469 123.0313,24.5469 Q121.6875,24.5469 121,25.625 Q120.3125,26.6875 120.3125,28.7813 Q120.3125,30.875 121,31.9531 Q121.6875,33.0156 123.0313,33.0156 Q123.6563,33.0156 124.25,32.75 Q124.8438,32.4688 125.4688,31.8906 L125.4688,34.6094 Z " fill="#000000"/><text fill="#000000" font-family="sans-serif" font-size="14" lengthAdjust="spacing" textLength="54" x="170" y="27.9951">MiniMax</text><text fill="#000000" font-family="sans-serif" font-size="10" lengthAdjust="spacing" textLength="121" x="136.5" y="40.5791">elki.clustering.hierarchical</text><rect fill="#FFFFFF" height="15.9688" style="stroke:#181818;stroke-width:1.0;stroke-dasharray:2.0,2.0;" width="10" x="265.5" y="7"/><text fill="#000000" font-family="sans-serif" font-size="12" font-style="italic" lengthAdjust="spacing" textLength="8" x="266.5" y="19.1387">O</text></g></a><!--MD5=[faca277eac3b818e8decad14526226f6]
reverse link elki.clustering.hierarchical.MiniMax to elki.clustering.hierarchical.MiniMaxNNChain--><g id="link_elki.clustering.hierarchical.MiniMax_elki.clustering.hierarchical.MiniMaxNNChain"><path codeLine="17" d="M190,68.5 C190,80.69 190,94.46 190,107.73 " fill="none" id="elki.clustering.hierarchical.MiniMax-backto-elki.clustering.hierarchical.MiniMaxNNChain" style="stroke:#181818;stroke-width:1.0;"/><polygon fill="none" points="183,68.13,190,48.13,197,68.13,183,68.13" style="stroke:#181818;stroke-width:1.0;"/></g><rect fill="none" height="11.6406" style="stroke:none;stroke-width:1.0;" width="186" x="92" y="233.125"/><text fill="#888888" font-family="sans-serif" font-size="10" lengthAdjust="spacing" textLength="186" x="92" y="242.4072">UMLDoclet 2.0.19, PlantUML 1.2022.8</text><!--MD5=[9afecda44936611b63609cb994895bbb]
@startuml
    remove .*\.(Instance|Par|Parameterizer|Factory)$
    set namespaceSeparator none
    hide empty fields
    hide empty methods

    class "<size:14>MiniMaxNNChain\n<size:10>elki.clustering.hierarchical" as elki.clustering.hierarchical.MiniMaxNNChain<O> [[MiniMaxNNChain.html]] {
        {static} -LOG: Logging
        +MiniMaxNNChain(Distance<? super O>)
        +run(Relation<O>): ClusterPrototypeMergeHistory
        +getInputTypeRestriction(): TypeInformation[]
    }

    class "<size:14>MiniMax\n<size:10>elki.clustering.hierarchical" as elki.clustering.hierarchical.MiniMax<O> [[MiniMax.html]]
    class "<size:14>MiniMaxNNChain.Instance\n<size:10>elki.clustering.hierarchical" as elki.clustering.hierarchical.MiniMaxNNChain.Instance [[MiniMaxNNChain.Instance.html]]
    class "<size:14>MiniMaxNNChain.Par\n<size:10>elki.clustering.hierarchical" as elki.clustering.hierarchical.MiniMaxNNChain.Par<O>

    elki.clustering.hierarchical.MiniMax <|- - elki.clustering.hierarchical.MiniMaxNNChain
    elki.clustering.hierarchical.MiniMaxNNChain +- - elki.clustering.hierarchical.MiniMaxNNChain.Instance
    elki.clustering.hierarchical.MiniMaxNNChain +- - elki.clustering.hierarchical.MiniMaxNNChain.Par

    center footer UMLDoclet 2.0.19, PlantUML 1.2022.8
@enduml

PlantUML version 1.2022.8(Sun Sep 25 11:00:33 CEST 2022)
(APACHE source distribution)
Java Runtime: OpenJDK Runtime Environment
JVM: OpenJDK 64-Bit Server VM
Default Encoding: UTF-8
Language: de
Country: DE
--></g></svg>