<?xml version="1.0" encoding="UTF-8" standalone="no"?>
<!DOCTYPE svg PUBLIC "-//W3C//DTD SVG 1.1//EN"
 "http://www.w3.org/Graphics/SVG/1.1/DTD/svg11.dtd">
<!-- Generated by graphviz version 2.40.1 (20161225.0304)
 -->
<!-- Title: G Pages: 1 -->
<svg width="437pt" height="221pt"
 viewBox="0.00 0.00 437.00 221.00" xmlns="http://www.w3.org/2000/svg" xmlns:xlink="http://www.w3.org/1999/xlink">
<g id="graph0" class="graph" transform="scale(1 1) rotate(0) translate(4 217)">
<title>G</title>
<polygon fill="#ffffff" stroke="transparent" points="-4,4 -4,-217 433,-217 433,4 -4,4"/>
<!-- c1388007 -->
<g id="node1" class="node">
<title>c1388007</title>
<g id="a_node1"><a xlink:href="transform/ProjectionFilter.html" xlink:title="&lt;TABLE&gt;">
<g id="a_node1_0"><a xlink:href="transform/ProjectionFilter.html" xlink:title="de.lmu.ifi.dbs.elki.datasource.filter.transform.ProjectionFilter" target="_parent">
<polygon fill="none" stroke="#000000" points="259,-185 259,-213 419,-213 419,-185 259,-185"/>
<text text-anchor="start" x="310" y="-203.6" font-family="Roboto" font-size="8.00" fill="#000000"> </text>
<text text-anchor="start" x="313" y="-203.6" font-family="Roboto" font-size="8.00" fill="#000000">ProjectionFilter</text>
<text text-anchor="start" x="365" y="-203.6" font-family="Roboto" font-size="8.00" fill="#000000"> </text>
<text text-anchor="start" x="263" y="-192.6" font-family="Roboto" font-size="8.00" fill="#000000"> </text>
<text text-anchor="start" x="266" y="-192.6" font-family="Roboto" font-size="7.00" fill="#000000">de.lmu.ifi.dbs.elki.datasource.filter.transform</text>
<text text-anchor="start" x="412" y="-192.6" font-family="Roboto" font-size="8.00" fill="#000000"> </text>
</a>
</g>
</a>
</g>
</g>
<!-- c1388101 -->
<g id="node2" class="node">
<title>c1388101</title>
<g id="a_node2"><a xlink:href="../bundle/BundleMeta.html" xlink:title="&lt;TABLE&gt;">
<g id="a_node2_1"><a xlink:href="../bundle/BundleMeta.html" xlink:title="de.lmu.ifi.dbs.elki.datasource.bundle.BundleMeta" target="_parent">
<polygon fill="none" stroke="#000000" points="273,-146 273,-174 406,-174 406,-146 273,-146"/>
<text text-anchor="start" x="315" y="-164.6" font-family="Roboto" font-size="8.00" fill="#000000"> </text>
<text text-anchor="start" x="318" y="-164.6" font-family="Roboto" font-size="8.00" fill="#000000">BundleMeta</text>
<text text-anchor="start" x="361" y="-164.6" font-family="Roboto" font-size="8.00" fill="#000000"> </text>
<text text-anchor="start" x="277" y="-153.6" font-family="Roboto" font-size="8.00" fill="#000000"> </text>
<text text-anchor="start" x="280" y="-153.6" font-family="Roboto" font-size="7.00" fill="#000000">de.lmu.ifi.dbs.elki.datasource.bundle</text>
<text text-anchor="start" x="399" y="-153.6" font-family="Roboto" font-size="8.00" fill="#000000"> </text>
</a>
</g>
</a>
</g>
</g>
<!-- c1389187 -->
<g id="node3" class="node">
<title>c1389187</title>
<g id="a_node3"><a xlink:href="transform/LngLatToECEFFilter.html" xlink:title="&lt;TABLE&gt;">
<g id="a_node3_2"><a xlink:href="transform/LngLatToECEFFilter.html" xlink:title="de.lmu.ifi.dbs.elki.datasource.filter.transform.LngLatToECEFFilter" target="_parent">
<polygon fill="none" stroke="#000000" points="259,-107 259,-135 419,-135 419,-107 259,-107"/>
<text text-anchor="start" x="301" y="-125.6" font-family="Roboto" font-size="8.00" fill="#000000"> </text>
<text text-anchor="start" x="304" y="-125.6" font-family="Roboto" font-size="8.00" fill="#000000">LngLatToECEFFilter</text>
<text text-anchor="start" x="374" y="-125.6" font-family="Roboto" font-size="8.00" fill="#000000"> </text>
<text text-anchor="start" x="263" y="-114.6" font-family="Roboto" font-size="8.00" fill="#000000"> </text>
<text text-anchor="start" x="266" y="-114.6" font-family="Roboto" font-size="7.00" fill="#000000">de.lmu.ifi.dbs.elki.datasource.filter.transform</text>
<text text-anchor="start" x="412" y="-114.6" font-family="Roboto" font-size="8.00" fill="#000000"> </text>
</a>
</g>
</a>
</g>
</g>
<!-- c1389189 -->
<g id="node4" class="node">
<title>c1389189</title>
<g id="a_node4"><a xlink:href="transform/LatLngToECEFFilter.html" xlink:title="&lt;TABLE&gt;">
<g id="a_node4_3"><a xlink:href="transform/LatLngToECEFFilter.html" xlink:title="de.lmu.ifi.dbs.elki.datasource.filter.transform.LatLngToECEFFilter" target="_parent">
<polygon fill="none" stroke="#000000" points="259,-68 259,-96 419,-96 419,-68 259,-68"/>
<text text-anchor="start" x="301" y="-86.6" font-family="Roboto" font-size="8.00" fill="#000000"> </text>
<text text-anchor="start" x="304" y="-86.6" font-family="Roboto" font-size="8.00" fill="#000000">LatLngToECEFFilter</text>
<text text-anchor="start" x="374" y="-86.6" font-family="Roboto" font-size="8.00" fill="#000000"> </text>
<text text-anchor="start" x="263" y="-75.6" font-family="Roboto" font-size="8.00" fill="#000000"> </text>
<text text-anchor="start" x="266" y="-75.6" font-family="Roboto" font-size="7.00" fill="#000000">de.lmu.ifi.dbs.elki.datasource.filter.transform</text>
<text text-anchor="start" x="412" y="-75.6" font-family="Roboto" font-size="8.00" fill="#000000"> </text>
</a>
</g>
</a>
</g>
</g>
<!-- c1389585 -->
<g id="node5" class="node">
<title>c1389585</title>
<g id="a_node5"><a xlink:href="AbstractStreamFilter.html" xlink:title="&lt;TABLE&gt;">
<g id="a_node5_4"><a xlink:href="AbstractStreamFilter.html" xlink:title="de.lmu.ifi.dbs.elki.datasource.filter.AbstractStreamFilter" target="_parent">
<polygon fill="none" stroke="#000000" points=".5,-73 .5,-90 87.5,-90 87.5,-73 .5,-73"/>
<text text-anchor="start" x="4.5" y="-80.6" font-family="Roboto" font-size="8.00" fill="#000000"> </text>
<text text-anchor="start" x="7.5" y="-80.6" font-family="Roboto" font-style="italic" font-size="8.00" fill="#000000">AbstractStreamFilter</text>
<text text-anchor="start" x="80.5" y="-80.6" font-family="Roboto" font-size="8.00" fill="#000000"> </text>
</a>
</g>
</a>
</g>
</g>
<!-- c1389611 -->
<g id="node7" class="node">
<title>c1389611</title>
<g id="a_node7"><a xlink:href="AbstractStreamConversionFilter.html" xlink:title="&lt;TABLE&gt;">
<g id="a_node7_5"><a xlink:href="AbstractStreamConversionFilter.html" xlink:title="de.lmu.ifi.dbs.elki.datasource.filter.AbstractStreamConversionFilter" target="_parent">
<polygon fill="#fffacd" stroke="transparent" points="105,-73.5 105,-90.5 231,-90.5 231,-73.5 105,-73.5"/>
<polygon fill="none" stroke="#000000" points="105,-73 105,-90 231,-90 231,-73 105,-73"/>
<text text-anchor="start" x="109" y="-80.6" font-family="Roboto" font-size="8.00" fill="#000000"> </text>
<text text-anchor="start" x="112" y="-80.6" font-family="Roboto" font-style="italic" font-size="8.00" fill="#000000">AbstractStreamConversionFilter</text>
<text text-anchor="start" x="224" y="-80.6" font-family="Roboto" font-size="8.00" fill="#000000"> </text>
</a>
</g>
</a>
</g>
</g>
<!-- c1389585&#45;&gt;c1389611 -->
<g id="edge5" class="edge">
<title>c1389585&#45;&gt;c1389611</title>
<path fill="none" stroke="#000000" d="M97.209,-82C99.7179,-82 102.2456,-82 104.7755,-82"/>
<polygon fill="none" stroke="#000000" points="97.0441,-78.5001 87.0441,-82 97.044,-85.5001 97.0441,-78.5001"/>
</g>
<!-- c1389589 -->
<g id="node6" class="node">
<title>c1389589</title>
<g id="a_node6"><a xlink:href="AbstractVectorStreamConversionFilter.html" xlink:title="&lt;TABLE&gt;">
<g id="a_node6_6"><a xlink:href="AbstractVectorStreamConversionFilter.html" xlink:title="de.lmu.ifi.dbs.elki.datasource.filter.AbstractVectorStreamConversionFilter" target="_parent">
<polygon fill="none" stroke="#000000" points="265,-39 265,-56 414,-56 414,-39 265,-39"/>
<text text-anchor="start" x="269" y="-46.6" font-family="Roboto" font-size="8.00" fill="#000000"> </text>
<text text-anchor="start" x="272" y="-46.6" font-family="Roboto" font-style="italic" font-size="8.00" fill="#000000">AbstractVectorStreamConversionFilter</text>
<text text-anchor="start" x="407" y="-46.6" font-family="Roboto" font-size="8.00" fill="#000000"> </text>
</a>
</g>
</a>
</g>
</g>
<!-- c1389611&#45;&gt;c1388007 -->
<g id="edge1" class="edge">
<title>c1389611&#45;&gt;c1388007</title>
<path fill="none" stroke="#000000" d="M177.4439,-99.5195C190.4636,-121.8946 216.097,-160.0944 249,-180 252.1426,-181.9012 255.447,-183.6142 258.8588,-185.1573"/>
<polygon fill="none" stroke="#000000" points="180.4591,-97.7406 172.5098,-90.7363 174.3562,-101.1691 180.4591,-97.7406"/>
</g>
<!-- c1389611&#45;&gt;c1388101 -->
<g id="edge7" class="edge">
<title>c1389611&#45;&gt;c1388101</title>
<path fill="none" stroke="#000000" d="M177.1403,-90.7118C191.3365,-103.7354 220.0728,-128.1238 249,-141 253.3312,-142.9279 257.8682,-144.6642 262.505,-146.2274"/>
<polygon fill="#000000" stroke="#000000" points="272.1289,-149.1988 261.2464,-150.5484 267.3515,-147.7237 262.574,-146.2486 262.574,-146.2486 262.574,-146.2486 267.3515,-147.7237 263.9016,-141.9489 272.1289,-149.1988 272.1289,-149.1988"/>
</g>
<!-- c1389611&#45;&gt;c1389187 -->
<g id="edge2" class="edge">
<title>c1389611&#45;&gt;c1389187</title>
<path fill="none" stroke="#000000" d="M211.3515,-92.9927C223.5122,-95.9977 236.7557,-99.1968 249,-102 256.1607,-103.6394 263.6538,-105.3031 271.1288,-106.9294"/>
<polygon fill="none" stroke="#000000" points="211.9859,-89.5439 201.4368,-90.5271 210.2965,-96.337 211.9859,-89.5439"/>
</g>
<!-- c1389611&#45;&gt;c1389189 -->
<g id="edge3" class="edge">
<title>c1389611&#45;&gt;c1389189</title>
<path fill="none" stroke="#000000" d="M241.4838,-82C247.2613,-82 253.1136,-82 258.9321,-82"/>
<polygon fill="none" stroke="#000000" points="241.1883,-78.5001 231.1883,-82 241.1882,-85.5001 241.1883,-78.5001"/>
</g>
<!-- c1389611&#45;&gt;c1389589 -->
<g id="edge4" class="edge">
<title>c1389611&#45;&gt;c1389589</title>
<path fill="none" stroke="#000000" d="M209.5733,-70.9926C222.1854,-67.8542 236.1135,-64.588 249,-62 258.7671,-60.0385 269.1776,-58.1945 279.3232,-56.529"/>
<polygon fill="none" stroke="#000000" points="208.623,-67.6226 199.7858,-73.4667 210.3386,-74.4092 208.623,-67.6226"/>
</g>
<!-- c1389632 -->
<g id="node8" class="node">
<title>c1389632</title>
<g id="a_node8"><a xlink:href="typeconversions/MultivariateTimeSeriesFilter.html" xlink:title="&lt;TABLE&gt;">
<g id="a_node8_7"><a xlink:href="typeconversions/MultivariateTimeSeriesFilter.html" xlink:title="de.lmu.ifi.dbs.elki.datasource.filter.typeconversions.MultivariateTimeSeriesFilter" target="_parent">
<polygon fill="none" stroke="#000000" points="249,0 249,-28 429,-28 429,0 249,0"/>
<text text-anchor="start" x="286" y="-18.6" font-family="Roboto" font-size="8.00" fill="#000000"> </text>
<text text-anchor="start" x="289" y="-18.6" font-family="Roboto" font-size="8.00" fill="#000000">MultivariateTimeSeriesFilter</text>
<text text-anchor="start" x="389" y="-18.6" font-family="Roboto" font-size="8.00" fill="#000000"> </text>
<text text-anchor="start" x="253" y="-7.6" font-family="Roboto" font-size="8.00" fill="#000000"> </text>
<text text-anchor="start" x="256" y="-7.6" font-family="Roboto" font-size="7.00" fill="#000000">de.lmu.ifi.dbs.elki.datasource.filter.typeconversions</text>
<text text-anchor="start" x="422" y="-7.6" font-family="Roboto" font-size="8.00" fill="#000000"> </text>
</a>
</g>
</a>
</g>
</g>
<!-- c1389611&#45;&gt;c1389632 -->
<g id="edge6" class="edge">
<title>c1389611&#45;&gt;c1389632</title>
<path fill="none" stroke="#000000" d="M188.1745,-67.5872C204.0236,-56.8871 227.0191,-42.6983 249,-34 254.5068,-31.8209 260.3018,-29.8538 266.1867,-28.0831"/>
<polygon fill="none" stroke="#000000" points="185.9716,-64.8549 179.7303,-73.4162 189.9483,-70.6156 185.9716,-64.8549"/>
</g>
</g>
</svg>
