<?xml version="1.0" encoding="UTF-8" standalone="no"?>
<!DOCTYPE svg PUBLIC "-//W3C//DTD SVG 1.1//EN"
 "http://www.w3.org/Graphics/SVG/1.1/DTD/svg11.dtd">
<!-- Generated by graphviz version 2.40.1 (20161225.0304)
 -->
<!-- Title: G Pages: 1 -->
<svg width="166pt" height="25pt"
 viewBox="0.00 0.00 166.00 25.00" xmlns="http://www.w3.org/2000/svg" xmlns:xlink="http://www.w3.org/1999/xlink">
<g id="graph0" class="graph" transform="scale(1 1) rotate(0) translate(4 21)">
<title>G</title>
<polygon fill="#ffffff" stroke="transparent" points="-4,4 -4,-21 162,-21 162,4 -4,4"/>
<!-- c7336561 -->
<g id="node1" class="node">
<title>c7336561</title>
<g id="a_node1"><a xlink:href="AbstractStreamFilter.html" xlink:title="&lt;TABLE&gt;">
<g id="a_node1_0"><a xlink:href="AbstractStreamFilter.html" xlink:title="de.lmu.ifi.dbs.elki.datasource.filter.AbstractStreamFilter" target="_parent">
<polygon fill="none" stroke="#000000" points=".5,.5 .5,-16.5 87.5,-16.5 87.5,.5 .5,.5"/>
<text text-anchor="start" x="4.5" y="-7.1" font-family="Roboto" font-size="8.00" fill="#000000"> </text>
<text text-anchor="start" x="7.5" y="-7.1" font-family="Roboto" font-style="italic" font-size="8.00" fill="#000000">AbstractStreamFilter</text>
<text text-anchor="start" x="80.5" y="-7.1" font-family="Roboto" font-size="8.00" fill="#000000"> </text>
</a>
</g>
</a>
</g>
</g>
<!-- c7336564 -->
<g id="node2" class="node">
<title>c7336564</title>
<g id="a_node2"><a xlink:href="NoOpFilter.html" xlink:title="&lt;TABLE&gt;">
<g id="a_node2_1"><a xlink:href="NoOpFilter.html" xlink:title="de.lmu.ifi.dbs.elki.datasource.filter.NoOpFilter" target="_parent">
<polygon fill="#fffacd" stroke="transparent" points="105,0 105,-17 158,-17 158,0 105,0"/>
<polygon fill="none" stroke="#000000" points="105.5,.5 105.5,-16.5 158.5,-16.5 158.5,.5 105.5,.5"/>
<text text-anchor="start" x="109.5" y="-7.1" font-family="Roboto" font-size="8.00" fill="#000000"> </text>
<text text-anchor="start" x="112.5" y="-7.1" font-family="Roboto" font-size="8.00" fill="#000000">NoOpFilter</text>
<text text-anchor="start" x="151.5" y="-7.1" font-family="Roboto" font-size="8.00" fill="#000000"> </text>
</a>
</g>
</a>
</g>
</g>
<!-- c7336561&#45;&gt;c7336564 -->
<g id="edge1" class="edge">
<title>c7336561&#45;&gt;c7336564</title>
<path fill="none" stroke="#000000" d="M97.3582,-8.5C99.9405,-8.5 102.475,-8.5 104.9236,-8.5"/>
<polygon fill="none" stroke="#000000" points="97.2422,-5.0001 87.2422,-8.5 97.2422,-12.0001 97.2422,-5.0001"/>
</g>
</g>
</svg>
