<?xml version="1.0" encoding="UTF-8" standalone="no"?>
<!DOCTYPE svg PUBLIC "-//W3C//DTD SVG 1.1//EN"
 "http://www.w3.org/Graphics/SVG/1.1/DTD/svg11.dtd">
<!-- Generated by graphviz version 2.40.1 (20161225.0304)
 -->
<!-- Title: G Pages: 1 -->
<svg width="334pt" height="65pt"
 viewBox="0.00 0.00 334.00 64.50" xmlns="http://www.w3.org/2000/svg" xmlns:xlink="http://www.w3.org/1999/xlink">
<g id="graph0" class="graph" transform="scale(1 1) rotate(0) translate(4 60.5)">
<title>G</title>
<polygon fill="#ffffff" stroke="transparent" points="-4,4 -4,-60.5 330,-60.5 330,4 -4,4"/>
<!-- c10499151 -->
<g id="node1" class="node">
<title>c10499151</title>
<g id="a_node1"><a xlink:href="AbstractUncertainObject.html" xlink:title="&lt;TABLE&gt;">
<g id="a_node1_0"><a xlink:href="AbstractUncertainObject.html" xlink:title="de.lmu.ifi.dbs.elki.data.uncertain.AbstractUncertainObject" target="_parent">
<polygon fill="none" stroke="#000000" points="35,-39 35,-56 134,-56 134,-39 35,-39"/>
<text text-anchor="start" x="39" y="-46.6" font-family="Roboto" font-size="8.00" fill="#000000"> </text>
<text text-anchor="start" x="42" y="-46.6" font-family="Roboto" font-style="italic" font-size="8.00" fill="#000000">AbstractUncertainObject</text>
<text text-anchor="start" x="127" y="-46.6" font-family="Roboto" font-size="8.00" fill="#000000"> </text>
</a>
</g>
</a>
</g>
</g>
<!-- c10499165 -->
<g id="node3" class="node">
<title>c10499165</title>
<g id="a_node3"><a xlink:href="UniformContinuousUncertainObject.html" xlink:title="&lt;TABLE&gt;">
<g id="a_node3_1"><a xlink:href="UniformContinuousUncertainObject.html" xlink:title="de.lmu.ifi.dbs.elki.data.uncertain.UniformContinuousUncertainObject" target="_parent">
<polygon fill="#fffacd" stroke="transparent" points="186,-39.5 186,-56.5 326,-56.5 326,-39.5 186,-39.5"/>
<polygon fill="none" stroke="#000000" points="186,-39 186,-56 326,-56 326,-39 186,-39"/>
<text text-anchor="start" x="190" y="-46.6" font-family="Roboto" font-size="8.00" fill="#000000"> </text>
<text text-anchor="start" x="193" y="-46.6" font-family="Roboto" font-size="8.00" fill="#000000">UniformContinuousUncertainObject</text>
<text text-anchor="start" x="319" y="-46.6" font-family="Roboto" font-size="8.00" fill="#000000"> </text>
</a>
</g>
</a>
</g>
</g>
<!-- c10499151&#45;&gt;c10499165 -->
<g id="edge2" class="edge">
<title>c10499151&#45;&gt;c10499165</title>
<path fill="none" stroke="#000000" d="M143.9018,-48C157.4544,-48 171.9623,-48 185.8937,-48"/>
<polygon fill="none" stroke="#000000" points="143.7496,-44.5001 133.7495,-48 143.7495,-51.5001 143.7496,-44.5001"/>
</g>
<!-- c10499161 -->
<g id="node2" class="node">
<title>c10499161</title>
<g id="a_node2"><a xlink:href="uncertainifier/UniformUncertainifier.html" xlink:title="&lt;TABLE&gt;">
<g id="a_node2_2"><a xlink:href="uncertainifier/UniformUncertainifier.html" xlink:title="de.lmu.ifi.dbs.elki.data.uncertain.uncertainifier.UniformUncertainifier" target="_parent">
<polygon fill="none" stroke="#000000" points="0,0 0,-28 168,-28 168,0 0,0"/>
<text text-anchor="start" x="42" y="-18.6" font-family="Roboto" font-size="8.00" fill="#000000"> </text>
<text text-anchor="start" x="45" y="-18.6" font-family="Roboto" font-size="8.00" fill="#000000">UniformUncertainifier</text>
<text text-anchor="start" x="123" y="-18.6" font-family="Roboto" font-size="8.00" fill="#000000"> </text>
<text text-anchor="start" x="4" y="-7.6" font-family="Roboto" font-size="8.00" fill="#000000"> </text>
<text text-anchor="start" x="7" y="-7.6" font-family="Roboto" font-size="7.00" fill="#000000">de.lmu.ifi.dbs.elki.data.uncertain.uncertainifier</text>
<text text-anchor="start" x="161" y="-7.6" font-family="Roboto" font-size="8.00" fill="#000000"> </text>
</a>
</g>
</a>
</g>
</g>
<!-- c10499161&#45;&gt;c10499165 -->
<g id="edge1" class="edge">
<title>c10499161&#45;&gt;c10499165</title>
<path fill="none" stroke="#000000" d="M167.0045,-30.4079C182.8468,-33.5395 198.8247,-36.6979 212.7845,-39.4574"/>
<polygon fill="none" stroke="#000000" points="166.7242,-30.3525 160.0624,-33.113 154.952,-28.0254 161.6138,-25.2649 166.7242,-30.3525"/>
</g>
</g>
</svg>
