<?xml version="1.0" encoding="UTF-8" standalone="no"?><svg xmlns="http://www.w3.org/2000/svg" xmlns:xlink="http://www.w3.org/1999/xlink" contentStyleType="text/css" height="293px" preserveAspectRatio="none" style="width:532px;height:293px;background:#FFFFFF;" version="1.1" viewBox="0 0 532 293" width="532px" zoomAndPan="magnify"><defs/><g><!--MD5=[3043ec3e1a66a25c4d5cdbfdfc906622]
class elki.clustering.kmeans.spherical.SphericalKMeans--><a href="SphericalKMeans.html" target="_top" title="SphericalKMeans.html" xlink:actuate="onRequest" xlink:href="SphericalKMeans.html" xlink:show="new" xlink:title="SphericalKMeans.html" xlink:type="simple"><g id="elem_elki.clustering.kmeans.spherical.SphericalKMeans"><rect codeLine="6" fill="#F1F1F1" height="135.4219" id="elki.clustering.kmeans.spherical.SphericalKMeans" rx="2.5" ry="2.5" style="stroke:#181818;stroke-width:0.5;" width="512" x="9" y="132"/><ellipse cx="108.75" cy="150.9688" fill="#ADD1B2" rx="11" ry="11" style="stroke:#181818;stroke-width:1.0;"/><path d="M111.7188,156.6094 Q111.1406,156.9063 110.5,157.0469 Q109.8594,157.2031 109.1563,157.2031 Q106.6563,157.2031 105.3281,155.5625 Q104.0156,153.9063 104.0156,150.7813 Q104.0156,147.6563 105.3281,146 Q106.6563,144.3438 109.1563,144.3438 Q109.8594,144.3438 110.5,144.5 Q111.1563,144.6563 111.7188,144.9531 L111.7188,147.6719 Q111.0938,147.0938 110.5,146.8281 Q109.9063,146.5469 109.2813,146.5469 Q107.9375,146.5469 107.25,147.625 Q106.5625,148.6875 106.5625,150.7813 Q106.5625,152.875 107.25,153.9531 Q107.9375,155.0156 109.2813,155.0156 Q109.9063,155.0156 110.5,154.75 Q111.0938,154.4688 111.7188,153.8906 L111.7188,156.6094 Z " fill="#000000"/><text fill="#000000" font-family="sans-serif" font-size="14" lengthAdjust="spacing" textLength="118" x="145.25" y="149.9951">SphericalKMeans</text><text fill="#000000" font-family="sans-serif" font-size="10" lengthAdjust="spacing" textLength="150" x="129.25" y="162.5791">elki.clustering.kmeans.spherical</text><rect fill="#FFFFFF" height="15.9688" style="stroke:#181818;stroke-width:1.0;stroke-dasharray:2.0,2.0;" width="152" x="372" y="129"/><text fill="#000000" font-family="sans-serif" font-size="12" font-style="italic" lengthAdjust="spacing" textLength="150" x="373" y="141.1387">V extends NumberVector</text><line style="stroke:#181818;stroke-width:0.5;" x1="10" x2="520" y1="169.9375" y2="169.9375"/><rect fill="none" height="6" style="stroke:#C82930;stroke-width:1.0;" width="6" x="17" y="180.5859"/><text fill="#000000" font-family="sans-serif" font-size="14" lengthAdjust="spacing" text-decoration="underline" textLength="93" x="29" y="186.9326">LOG: Logging</text><line style="stroke:#181818;stroke-width:0.5;" x1="10" x2="520" y1="194.2344" y2="194.2344"/><ellipse cx="20" cy="207.8828" fill="#84BE84" rx="3" ry="3" style="stroke:#038048;stroke-width:1.0;"/><text fill="#000000" font-family="sans-serif" font-size="14" lengthAdjust="spacing" textLength="312" x="29" y="211.2295">SphericalKMeans(int, int, KMeansInitialization)</text><ellipse cx="20" cy="224.1797" fill="#84BE84" rx="3" ry="3" style="stroke:#038048;stroke-width:1.0;"/><text fill="#000000" font-family="sans-serif" font-size="14" lengthAdjust="spacing" textLength="486" x="29" y="227.5264">run(Relation&lt;V extends NumberVector&gt;): Clustering&lt;KMeansModel&gt;</text><ellipse cx="20" cy="240.4766" fill="#84BE84" rx="3" ry="3" style="stroke:#038048;stroke-width:1.0;"/><text fill="#000000" font-family="sans-serif" font-size="14" lengthAdjust="spacing" textLength="306" x="29" y="243.8232">getInputTypeRestriction(): TypeInformation[]</text><polygon fill="#FFFF44" points="20,251.7734,24,255.7734,20,259.7734,16,255.7734" style="stroke:#B38D22;stroke-width:1.0;"/><text fill="#000000" font-family="sans-serif" font-size="14" lengthAdjust="spacing" textLength="145" x="29" y="260.1201">getLogger(): Logging</text></g></a><!--MD5=[65741f9ab1d9b71be36c274839b2c01a]
class elki.clustering.kmeans.AbstractKMeans--><a href="../AbstractKMeans.html" target="_top" title="../AbstractKMeans.html" xlink:actuate="onRequest" xlink:href="../AbstractKMeans.html" xlink:show="new" xlink:title="../AbstractKMeans.html" xlink:type="simple"><g id="elem_elki.clustering.kmeans.AbstractKMeans"><rect codeLine="14" fill="#F1F1F1" height="62.2344" id="elki.clustering.kmeans.AbstractKMeans" rx="2.5" ry="2.5" style="stroke:#181818;stroke-width:0.5;" width="387" x="71.5" y="10"/><ellipse cx="86.5" cy="28.9688" fill="#A9DCDF" rx="11" ry="11" style="stroke:#181818;stroke-width:1.0;"/><path d="M86.6094,24.3125 L85.4531,29.3906 L87.7813,29.3906 L86.6094,24.3125 Z M85.125,22.0781 L88.1094,22.0781 L91.4688,34.4688 L89.0156,34.4688 L88.25,31.4063 L84.9688,31.4063 L84.2188,34.4688 L81.7813,34.4688 L85.125,22.0781 Z " fill="#000000"/><text fill="#000000" font-family="sans-serif" font-size="14" font-style="italic" lengthAdjust="spacing" textLength="113" x="100.5" y="27.9951">AbstractKMeans</text><text fill="#000000" font-family="sans-serif" font-size="10" font-style="italic" lengthAdjust="spacing" textLength="112" x="101" y="40.5791">elki.clustering.kmeans</text><rect fill="#FFFFFF" height="15.9688" style="stroke:#181818;stroke-width:1.0;stroke-dasharray:2.0,2.0;" width="240" x="221.5" y="7"/><text fill="#000000" font-family="sans-serif" font-size="12" font-style="italic" lengthAdjust="spacing" textLength="238" x="222.5" y="19.1387">V extends NumberVector, KMeansModel</text><line style="stroke:#181818;stroke-width:0.5;" x1="72.5" x2="457.5" y1="47.9375" y2="47.9375"/><polygon fill="#FFFF44" points="82.5,56.5859,86.5,60.5859,82.5,64.5859,78.5,60.5859" style="stroke:#B38D22;stroke-width:1.0;"/><text fill="#000000" font-family="sans-serif" font-size="14" font-style="italic" lengthAdjust="spacing" textLength="148" x="91.5" y="64.9326">getLogger(): Logging</text></g></a><!--MD5=[2942289a9003a7c144748aa54ca338eb]
reverse link elki.clustering.kmeans.AbstractKMeans to elki.clustering.kmeans.spherical.SphericalKMeans--><g id="link_elki.clustering.kmeans.AbstractKMeans_elki.clustering.kmeans.spherical.SphericalKMeans"><path codeLine="20" d="M265,92.56 C265,105.06 265,118.66 265,131.8 " fill="none" id="elki.clustering.kmeans.AbstractKMeans-backto-elki.clustering.kmeans.spherical.SphericalKMeans" style="stroke:#181818;stroke-width:1.0;"/><polygon fill="none" points="258,92.17,265,72.17,272,92.17,258,92.17" style="stroke:#181818;stroke-width:1.0;"/></g><rect fill="none" height="11.6406" style="stroke:none;stroke-width:1.0;" width="186" x="166" y="273.4219"/><text fill="#888888" font-family="sans-serif" font-size="10" lengthAdjust="spacing" textLength="186" x="166" y="282.7041">UMLDoclet 2.0.19, PlantUML 1.2022.8</text><!--MD5=[7b90e8951f482ed73760d936d95f3283]
@startuml
    remove .*\.(Instance|Par|Parameterizer|Factory)$
    set namespaceSeparator none
    hide empty fields
    hide empty methods

    class "<size:14>SphericalKMeans\n<size:10>elki.clustering.kmeans.spherical" as elki.clustering.kmeans.spherical.SphericalKMeans<V extends NumberVector> [[SphericalKMeans.html]] {
        {static} -LOG: Logging
        +SphericalKMeans(int, int, KMeansInitialization)
        +run(Relation<V extends NumberVector>): Clustering<KMeansModel>
        +getInputTypeRestriction(): TypeInformation[]
        #getLogger(): Logging
    }

    abstract class "<size:14>AbstractKMeans\n<size:10>elki.clustering.kmeans" as elki.clustering.kmeans.AbstractKMeans<V extends NumberVector, KMeansModel> [[../AbstractKMeans.html]] {
        {abstract} #getLogger(): Logging
    }
    class "<size:14>SphericalKMeans.Instance\n<size:10>elki.clustering.kmeans.spherical" as elki.clustering.kmeans.spherical.SphericalKMeans.Instance [[SphericalKMeans.Instance.html]]
    class "<size:14>SphericalKMeans.Par\n<size:10>elki.clustering.kmeans.spherical" as elki.clustering.kmeans.spherical.SphericalKMeans.Par<V extends NumberVector> [[SphericalKMeans.Par.html]]

    elki.clustering.kmeans.AbstractKMeans <|- - elki.clustering.kmeans.spherical.SphericalKMeans
    elki.clustering.kmeans.spherical.SphericalKMeans +- - elki.clustering.kmeans.spherical.SphericalKMeans.Instance
    elki.clustering.kmeans.spherical.SphericalKMeans +- - elki.clustering.kmeans.spherical.SphericalKMeans.Par

    center footer UMLDoclet 2.0.19, PlantUML 1.2022.8
@enduml

PlantUML version 1.2022.8(Sun Sep 25 11:00:33 CEST 2022)
(APACHE source distribution)
Java Runtime: OpenJDK Runtime Environment
JVM: OpenJDK 64-Bit Server VM
Default Encoding: UTF-8
Language: de
Country: DE
--></g></svg>