<?xml version="1.0" encoding="UTF-8" standalone="no"?><svg xmlns="http://www.w3.org/2000/svg" xmlns:xlink="http://www.w3.org/1999/xlink" contentStyleType="text/css" height="277px" preserveAspectRatio="none" style="width:194px;height:277px;background:#FFFFFF;" version="1.1" viewBox="0 0 194 277" width="194px" zoomAndPan="magnify"><defs/><g><!--MD5=[9de5d1d8a6495c2d37b79b659020011b]
class elki.clustering.silhouette.FastMSC.Record--><a href="FastMSC.Record.html" target="_top" title="FastMSC.Record.html" xlink:actuate="onRequest" xlink:href="FastMSC.Record.html" xlink:show="new" xlink:title="FastMSC.Record.html" xlink:type="simple"><g id="elem_elki.clustering.silhouette.FastMSC.Record"><rect codeLine="6" fill="#F1F1F1" height="143.7188" id="elki.clustering.silhouette.FastMSC.Record" rx="2.5" ry="2.5" style="stroke:#181818;stroke-width:0.5;" width="146" x="25" y="108"/><ellipse cx="40" cy="126.9688" fill="#ADD1B2" rx="11" ry="11" style="stroke:#181818;stroke-width:1.0;"/><path d="M42.9688,132.6094 Q42.3906,132.9063 41.75,133.0469 Q41.1094,133.2031 40.4063,133.2031 Q37.9063,133.2031 36.5781,131.5625 Q35.2656,129.9063 35.2656,126.7813 Q35.2656,123.6563 36.5781,122 Q37.9063,120.3438 40.4063,120.3438 Q41.1094,120.3438 41.75,120.5 Q42.4063,120.6563 42.9688,120.9531 L42.9688,123.6719 Q42.3438,123.0938 41.75,122.8281 Q41.1563,122.5469 40.5313,122.5469 Q39.1875,122.5469 38.5,123.625 Q37.8125,124.6875 37.8125,126.7813 Q37.8125,128.875 38.5,129.9531 Q39.1875,131.0156 40.5313,131.0156 Q41.1563,131.0156 41.75,130.75 Q42.3438,130.4688 42.9688,129.8906 L42.9688,132.6094 Z " fill="#000000"/><text fill="#000000" font-family="sans-serif" font-size="14" lengthAdjust="spacing" textLength="114" x="54" y="125.9951">FastMSC.Record</text><text fill="#000000" font-family="sans-serif" font-size="10" lengthAdjust="spacing" textLength="114" x="54" y="138.5791">elki.clustering.silhouette</text><line style="stroke:#181818;stroke-width:0.5;" x1="26" x2="170" y1="145.9375" y2="145.9375"/><polygon fill="none" points="36,155.5859,32,161.5859,40,161.5859" style="stroke:#1963A0;stroke-width:1.0;"/><text fill="#000000" font-family="sans-serif" font-size="14" lengthAdjust="spacing" textLength="48" x="45" y="162.9326">m1: int</text><polygon fill="none" points="36,171.8828,32,177.8828,40,177.8828" style="stroke:#1963A0;stroke-width:1.0;"/><text fill="#000000" font-family="sans-serif" font-size="14" lengthAdjust="spacing" textLength="48" x="45" y="179.2295">m2: int</text><polygon fill="none" points="36,188.1797,32,194.1797,40,194.1797" style="stroke:#1963A0;stroke-width:1.0;"/><text fill="#000000" font-family="sans-serif" font-size="14" lengthAdjust="spacing" textLength="48" x="45" y="195.5264">m3: int</text><polygon fill="none" points="36,204.4766,32,210.4766,40,210.4766" style="stroke:#1963A0;stroke-width:1.0;"/><text fill="#000000" font-family="sans-serif" font-size="14" lengthAdjust="spacing" textLength="75" x="45" y="211.8232">d1: double</text><polygon fill="none" points="36,220.7734,32,226.7734,40,226.7734" style="stroke:#1963A0;stroke-width:1.0;"/><text fill="#000000" font-family="sans-serif" font-size="14" lengthAdjust="spacing" textLength="75" x="45" y="228.1201">d2: double</text><polygon fill="none" points="36,237.0703,32,243.0703,40,243.0703" style="stroke:#1963A0;stroke-width:1.0;"/><text fill="#000000" font-family="sans-serif" font-size="14" lengthAdjust="spacing" textLength="75" x="45" y="244.417">d3: double</text></g></a><!--MD5=[1ddbf8795612f8b85e62a75210aa40b2]
class elki.clustering.silhouette.FastMSC--><a href="FastMSC.html" target="_top" title="FastMSC.html" xlink:actuate="onRequest" xlink:href="FastMSC.html" xlink:show="new" xlink:title="FastMSC.html" xlink:type="simple"><g id="elem_elki.clustering.silhouette.FastMSC"><rect codeLine="15" fill="#F1F1F1" height="37.9375" id="elki.clustering.silhouette.FastMSC" rx="2.5" ry="2.5" style="stroke:#181818;stroke-width:0.5;" width="158" x="19" y="10"/><ellipse cx="34" cy="28.9688" fill="#ADD1B2" rx="11" ry="11" style="stroke:#181818;stroke-width:1.0;"/><path d="M36.9688,34.6094 Q36.3906,34.9063 35.75,35.0469 Q35.1094,35.2031 34.4063,35.2031 Q31.9063,35.2031 30.5781,33.5625 Q29.2656,31.9063 29.2656,28.7813 Q29.2656,25.6563 30.5781,24 Q31.9063,22.3438 34.4063,22.3438 Q35.1094,22.3438 35.75,22.5 Q36.4063,22.6563 36.9688,22.9531 L36.9688,25.6719 Q36.3438,25.0938 35.75,24.8281 Q35.1563,24.5469 34.5313,24.5469 Q33.1875,24.5469 32.5,25.625 Q31.8125,26.6875 31.8125,28.7813 Q31.8125,30.875 32.5,31.9531 Q33.1875,33.0156 34.5313,33.0156 Q35.1563,33.0156 35.75,32.75 Q36.3438,32.4688 36.9688,31.8906 L36.9688,34.6094 Z " fill="#000000"/><text fill="#000000" font-family="sans-serif" font-size="14" lengthAdjust="spacing" textLength="60" x="75" y="27.9951">FastMSC</text><text fill="#000000" font-family="sans-serif" font-size="10" lengthAdjust="spacing" textLength="114" x="48" y="40.5791">elki.clustering.silhouette</text><rect fill="#FFFFFF" height="15.9688" style="stroke:#181818;stroke-width:1.0;stroke-dasharray:2.0,2.0;" width="10" x="170" y="7"/><text fill="#000000" font-family="sans-serif" font-size="12" font-style="italic" lengthAdjust="spacing" textLength="8" x="171" y="19.1387">O</text></g></a><!--MD5=[ebfc7d41e8d2655d0a7bd89e56e7e7f3]
reverse link elki.clustering.silhouette.FastMSC to elki.clustering.silhouette.FastMSC.Record--><g id="link_elki.clustering.silhouette.FastMSC_elki.clustering.silhouette.FastMSC.Record"><path codeLine="17" d="M98,63.44 C98,76.62 98,92.31 98,107.8 " fill="none" id="elki.clustering.silhouette.FastMSC-backto-elki.clustering.silhouette.FastMSC.Record" style="stroke:#181818;stroke-width:1.0;"/><ellipse cx="98" cy="56.27" fill="#FFFFFF" rx="8" ry="8" style="stroke:#181818;stroke-width:1.0;"/><line style="stroke:#181818;stroke-width:1.0;" x1="98" x2="98" y1="64.27" y2="48.27"/><line style="stroke:#181818;stroke-width:1.0;" x1="90" x2="106" y1="56.27" y2="56.27"/></g><rect fill="none" height="11.6406" style="stroke:none;stroke-width:1.0;" width="186" x="0" y="257.7188"/><text fill="#888888" font-family="sans-serif" font-size="10" lengthAdjust="spacing" textLength="186" x="0" y="267.001">UMLDoclet 2.0.19, PlantUML 1.2022.8</text><!--MD5=[753df0c1345cd4d4e7e8b8870b555119]
@startuml
    remove .*\.(Instance|Par|Parameterizer|Factory)$
    set namespaceSeparator none
    hide empty fields
    hide empty methods

    class "<size:14>FastMSC.Record\n<size:10>elki.clustering.silhouette" as elki.clustering.silhouette.FastMSC.Record [[FastMSC.Record.html]] {
        ~m1: int
        ~m2: int
        ~m3: int
        ~d1: double
        ~d2: double
        ~d3: double
    }

    class "<size:14>FastMSC\n<size:10>elki.clustering.silhouette" as elki.clustering.silhouette.FastMSC<O> [[FastMSC.html]]

    elki.clustering.silhouette.FastMSC +- - elki.clustering.silhouette.FastMSC.Record

    center footer UMLDoclet 2.0.19, PlantUML 1.2022.8
@enduml

PlantUML version 1.2022.8(Sun Sep 25 11:00:33 CEST 2022)
(APACHE source distribution)
Java Runtime: OpenJDK Runtime Environment
JVM: OpenJDK 64-Bit Server VM
Default Encoding: UTF-8
Language: de
Country: DE
--></g></svg>