<?xml version="1.0" encoding="UTF-8" standalone="no"?><svg xmlns="http://www.w3.org/2000/svg" xmlns:xlink="http://www.w3.org/1999/xlink" contentStyleType="text/css" height="72px" preserveAspectRatio="none" style="width:194px;height:72px;background:#FFFFFF;" version="1.1" viewBox="0 0 194 72" width="194px" zoomAndPan="magnify"><defs/><g><!--MD5=[f444188ba0c65a3d7a9f0d1ffad67444]
class elki.clustering.silhouette.PAMSIL--><a href="PAMSIL.html" target="_top" title="PAMSIL.html" xlink:actuate="onRequest" xlink:href="PAMSIL.html" xlink:show="new" xlink:title="PAMSIL.html" xlink:type="simple"><g id="elem_elki.clustering.silhouette.PAMSIL"><rect codeLine="20" fill="#F1F1F1" height="37.9375" id="elki.clustering.silhouette.PAMSIL" rx="2.5" ry="2.5" style="stroke:#181818;stroke-width:0.5;" width="158" x="19" y="10"/><ellipse cx="34" cy="28.9688" fill="#ADD1B2" rx="11" ry="11" style="stroke:#181818;stroke-width:1.0;"/><path d="M36.9688,34.6094 Q36.3906,34.9063 35.75,35.0469 Q35.1094,35.2031 34.4063,35.2031 Q31.9063,35.2031 30.5781,33.5625 Q29.2656,31.9063 29.2656,28.7813 Q29.2656,25.6563 30.5781,24 Q31.9063,22.3438 34.4063,22.3438 Q35.1094,22.3438 35.75,22.5 Q36.4063,22.6563 36.9688,22.9531 L36.9688,25.6719 Q36.3438,25.0938 35.75,24.8281 Q35.1563,24.5469 34.5313,24.5469 Q33.1875,24.5469 32.5,25.625 Q31.8125,26.6875 31.8125,28.7813 Q31.8125,30.875 32.5,31.9531 Q33.1875,33.0156 34.5313,33.0156 Q35.1563,33.0156 35.75,32.75 Q36.3438,32.4688 36.9688,31.8906 L36.9688,34.6094 Z " fill="#000000"/><text fill="#000000" font-family="sans-serif" font-size="14" lengthAdjust="spacing" textLength="49" x="80.5" y="27.9951">PAMSIL</text><text fill="#000000" font-family="sans-serif" font-size="10" lengthAdjust="spacing" textLength="114" x="48" y="40.5791">elki.clustering.silhouette</text><rect fill="#FFFFFF" height="15.9688" style="stroke:#181818;stroke-width:1.0;stroke-dasharray:2.0,2.0;" width="10" x="170" y="7"/><text fill="#000000" font-family="sans-serif" font-size="12" font-style="italic" lengthAdjust="spacing" textLength="8" x="171" y="19.1387">O</text></g></a><rect fill="none" height="11.6406" style="stroke:none;stroke-width:1.0;" width="186" x="0" y="52.9375"/><text fill="#888888" font-family="sans-serif" font-size="10" lengthAdjust="spacing" textLength="186" x="0" y="62.2197">UMLDoclet 2.0.19, PlantUML 1.2022.8</text><!--MD5=[0207ffabeab6ee845cd50d85134d2c63]
@startuml
    remove .*\.(Instance|Par|Parameterizer|Factory)$
    set namespaceSeparator none
    hide empty fields
    hide empty methods

    class "<size:14>PAMSIL.Instance\n<size:10>elki.clustering.silhouette" as elki.clustering.silhouette.PAMSIL.Instance [[PAMSIL.Instance.html]] {
        ~ids: DBIDs
        ~distQ: DistanceQuery<?>
        ~assignment: WritableIntegerDataStore
        ~scratch: WritableIntegerDataStore
        ~silhouettes: WritableDoubleDataStore
        +Instance(DistanceQuery<?>, DBIDs, WritableIntegerDataStore)
        #run(ArrayModifiableDBIDs, int): double
        #assignToNearestCluster(ArrayDBIDs): void
        #silhouette(IntegerDataStore, int): double
        #reassignToNearestCluster(IntegerDataStore, WritableIntegerDataStore, ArrayDBIDs, int, DBIDRef): void
        +silhouetteScores(): DoubleDataStore
    }

    class "<size:14>PAMSIL\n<size:10>elki.clustering.silhouette" as elki.clustering.silhouette.PAMSIL<O> [[PAMSIL.html]]

    elki.clustering.silhouette.PAMSIL +- - elki.clustering.silhouette.PAMSIL.Instance

    center footer UMLDoclet 2.0.19, PlantUML 1.2022.8
@enduml

PlantUML version 1.2022.8(Sun Sep 25 11:00:33 CEST 2022)
(APACHE source distribution)
Java Runtime: OpenJDK Runtime Environment
JVM: OpenJDK 64-Bit Server VM
Default Encoding: UTF-8
Language: de
Country: DE
--></g></svg>