<?xml version="1.0" encoding="UTF-8" standalone="no"?>
<!DOCTYPE svg PUBLIC "-//W3C//DTD SVG 1.1//EN"
 "http://www.w3.org/Graphics/SVG/1.1/DTD/svg11.dtd">
<!-- Generated by graphviz version 2.40.1 (20161225.0304)
 -->
<!-- Title: G Pages: 1 -->
<svg width="207pt" height="25pt"
 viewBox="0.00 0.00 207.00 25.00" xmlns="http://www.w3.org/2000/svg" xmlns:xlink="http://www.w3.org/1999/xlink">
<g id="graph0" class="graph" transform="scale(1 1) rotate(0) translate(4 21)">
<title>G</title>
<polygon fill="#ffffff" stroke="transparent" points="-4,4 -4,-21 203,-21 203,4 -4,4"/>
<!-- c8955200 -->
<g id="node1" class="node">
<title>c8955200</title>
<g id="a_node1"><a xlink:href="ResultWindow.html" xlink:title="&lt;TABLE&gt;">
<g id="a_node1_0"><a xlink:href="ResultWindow.html" xlink:title="de.lmu.ifi.dbs.elki.visualization.gui.ResultWindow" target="_parent">
<polygon fill="none" stroke="#000000" points="0,.5 0,-16.5 64,-16.5 64,.5 0,.5"/>
<text text-anchor="start" x="4" y="-7.1" font-family="Roboto" font-size="8.00" fill="#000000"> </text>
<text text-anchor="start" x="7" y="-7.1" font-family="Roboto" font-size="8.00" fill="#000000">ResultWindow</text>
<text text-anchor="start" x="57" y="-7.1" font-family="Roboto" font-size="8.00" fill="#000000"> </text>
</a>
</g>
</a>
</g>
</g>
<!-- c8955201 -->
<g id="node2" class="node">
<title>c8955201</title>
<g id="a_node2"><a xlink:href="ResultWindow.DynamicMenu.html" xlink:title="&lt;TABLE&gt;">
<g id="a_node2_1"><a xlink:href="ResultWindow.DynamicMenu.html" xlink:title="de.lmu.ifi.dbs.elki.visualization.gui.ResultWindow.DynamicMenu" target="_parent">
<polygon fill="#fffacd" stroke="transparent" points="82,0 82,-17 199,-17 199,0 82,0"/>
<polygon fill="none" stroke="#000000" points="82.5,.5 82.5,-16.5 199.5,-16.5 199.5,.5 82.5,.5"/>
<text text-anchor="start" x="86.5" y="-7.1" font-family="Roboto" font-size="8.00" fill="#000000"> </text>
<text text-anchor="start" x="89.5" y="-7.1" font-family="Roboto" font-size="8.00" fill="#000000">ResultWindow.DynamicMenu</text>
<text text-anchor="start" x="192.5" y="-7.1" font-family="Roboto" font-size="8.00" fill="#000000"> </text>
</a>
</g>
</a>
</g>
</g>
<!-- c8955200&#45;&gt;c8955201 -->
<g id="edge1" class="edge">
<title>c8955200&#45;&gt;c8955201</title>
<path fill="none" stroke="#000000" d="M64.2598,-8.5C66.7194,-8.5 69.2516,-8.5 71.8307,-8.5"/>
<polygon fill="#000000" stroke="#000000" points="81.9565,-8.5 71.9566,-13.0001 76.9565,-8.5 71.9565,-8.5001 71.9565,-8.5001 71.9565,-8.5001 76.9565,-8.5 71.9565,-4.0001 81.9565,-8.5 81.9565,-8.5"/>
</g>
</g>
</svg>
