<?xml version="1.0" encoding="UTF-8" standalone="no"?>
<!DOCTYPE svg PUBLIC "-//W3C//DTD SVG 1.1//EN"
 "http://www.w3.org/Graphics/SVG/1.1/DTD/svg11.dtd">
<!-- Generated by graphviz version 2.40.1 (20161225.0304)
 -->
<!-- Title: G Pages: 1 -->
<svg width="288pt" height="25pt"
 viewBox="0.00 0.00 288.00 25.00" xmlns="http://www.w3.org/2000/svg" xmlns:xlink="http://www.w3.org/1999/xlink">
<g id="graph0" class="graph" transform="scale(1 1) rotate(0) translate(4 21)">
<title>G</title>
<polygon fill="#ffffff" stroke="transparent" points="-4,4 -4,-21 284,-21 284,4 -4,4"/>
<!-- c9204585 -->
<g id="node1" class="node">
<title>c9204585</title>
<g id="a_node1"><a xlink:href="SelectionTableWindow.html" xlink:title="&lt;TABLE&gt;">
<g id="a_node1_0"><a xlink:href="SelectionTableWindow.html" xlink:title="de.lmu.ifi.dbs.elki.visualization.gui.SelectionTableWindow" target="_parent">
<polygon fill="none" stroke="#000000" points=".5,.5 .5,-16.5 93.5,-16.5 93.5,.5 .5,.5"/>
<text text-anchor="start" x="4.5" y="-7.1" font-family="Roboto" font-size="8.00" fill="#000000"> </text>
<text text-anchor="start" x="7.5" y="-7.1" font-family="Roboto" font-size="8.00" fill="#000000">SelectionTableWindow</text>
<text text-anchor="start" x="86.5" y="-7.1" font-family="Roboto" font-size="8.00" fill="#000000"> </text>
</a>
</g>
</a>
</g>
</g>
<!-- c9204586 -->
<g id="node2" class="node">
<title>c9204586</title>
<g id="a_node2"><a xlink:href="SelectionTableWindow.DatabaseTableModel.html" xlink:title="&lt;TABLE&gt;">
<g id="a_node2_1"><a xlink:href="SelectionTableWindow.DatabaseTableModel.html" xlink:title="de.lmu.ifi.dbs.elki.visualization.gui.SelectionTableWindow.DatabaseTableModel" target="_parent">
<polygon fill="#fffacd" stroke="transparent" points="111,0 111,-17 280,-17 280,0 111,0"/>
<polygon fill="none" stroke="#000000" points="111.5,.5 111.5,-16.5 280.5,-16.5 280.5,.5 111.5,.5"/>
<text text-anchor="start" x="115.5" y="-7.1" font-family="Roboto" font-size="8.00" fill="#000000"> </text>
<text text-anchor="start" x="118.5" y="-7.1" font-family="Roboto" font-size="8.00" fill="#000000">SelectionTableWindow.DatabaseTableModel</text>
<text text-anchor="start" x="273.5" y="-7.1" font-family="Roboto" font-size="8.00" fill="#000000"> </text>
</a>
</g>
</a>
</g>
</g>
<!-- c9204585&#45;&gt;c9204586 -->
<g id="edge1" class="edge">
<title>c9204585&#45;&gt;c9204586</title>
<path fill="none" stroke="#000000" d="M93.2357,-8.5C95.7374,-8.5 98.2878,-8.5 100.8732,-8.5"/>
<polygon fill="#000000" stroke="#000000" points="110.9895,-8.5 100.9896,-13.0001 105.9895,-8.5 100.9895,-8.5001 100.9895,-8.5001 100.9895,-8.5001 105.9895,-8.5 100.9895,-4.0001 110.9895,-8.5 110.9895,-8.5"/>
</g>
</g>
</svg>
