<?xml version="1.0" encoding="UTF-8" standalone="no"?>
<!DOCTYPE svg PUBLIC "-//W3C//DTD SVG 1.1//EN"
 "http://www.w3.org/Graphics/SVG/1.1/DTD/svg11.dtd">
<!-- Generated by graphviz version 2.40.1 (20161225.0304)
 -->
<!-- Title: G Pages: 1 -->
<svg width="633pt" height="83pt"
 viewBox="0.00 0.00 633.00 82.50" xmlns="http://www.w3.org/2000/svg" xmlns:xlink="http://www.w3.org/1999/xlink">
<g id="graph0" class="graph" transform="scale(1 1) rotate(0) translate(4 78.5)">
<title>G</title>
<polygon fill="#ffffff" stroke="transparent" points="-4,4 -4,-78.5 629,-78.5 629,4 -4,4"/>
<!-- c224289 -->
<g id="node1" class="node">
<title>c224289</title>
<g id="a_node1"><a xlink:href="AbstractFilteredPCAIndex.html" xlink:title="&lt;TABLE&gt;">
<g id="a_node1_0"><a xlink:href="AbstractFilteredPCAIndex.html" xlink:title="de.lmu.ifi.dbs.elki.index.preprocessed.localpca.AbstractFilteredPCAIndex" target="_parent">
<polygon fill="none" stroke="#000000" points="350.5,-5 350.5,-22 455.5,-22 455.5,-5 350.5,-5"/>
<text text-anchor="start" x="354.5" y="-12.6" font-family="Roboto" font-size="8.00" fill="#000000"> </text>
<text text-anchor="start" x="357.5" y="-12.6" font-family="Roboto" font-style="italic" font-size="8.00" fill="#000000">AbstractFilteredPCAIndex</text>
<text text-anchor="start" x="448.5" y="-12.6" font-family="Roboto" font-size="8.00" fill="#000000"> </text>
</a>
</g>
</a>
</g>
</g>
<!-- c224294 -->
<g id="node5" class="node">
<title>c224294</title>
<g id="a_node5"><a xlink:href="KNNQueryFilteredPCAIndex.html" xlink:title="&lt;TABLE&gt;">
<g id="a_node5_1"><a xlink:href="KNNQueryFilteredPCAIndex.html" xlink:title="de.lmu.ifi.dbs.elki.index.preprocessed.localpca.KNNQueryFilteredPCAIndex" target="_parent">
<polygon fill="#fffacd" stroke="transparent" points="512,-5.5 512,-22.5 625,-22.5 625,-5.5 512,-5.5"/>
<polygon fill="none" stroke="#000000" points="512.5,-5 512.5,-22 625.5,-22 625.5,-5 512.5,-5"/>
<text text-anchor="start" x="516.5" y="-12.6" font-family="Roboto" font-size="8.00" fill="#000000"> </text>
<text text-anchor="start" x="519.5" y="-12.6" font-family="Roboto" font-size="8.00" fill="#000000">KNNQueryFilteredPCAIndex</text>
<text text-anchor="start" x="618.5" y="-12.6" font-family="Roboto" font-size="8.00" fill="#000000"> </text>
</a>
</g>
</a>
</g>
</g>
<!-- c224289&#45;&gt;c224294 -->
<g id="edge5" class="edge">
<title>c224289&#45;&gt;c224294</title>
<path fill="none" stroke="#000000" d="M465.3832,-14C480.6085,-14 496.7949,-14 511.7205,-14"/>
<polygon fill="none" stroke="#000000" points="465.0235,-10.5001 455.0234,-14 465.0234,-17.5001 465.0235,-10.5001"/>
</g>
<!-- c224290 -->
<g id="node2" class="node">
<title>c224290</title>
<g id="a_node2"><a xlink:href="AbstractFilteredPCAIndex.Factory.html" xlink:title="&lt;TABLE&gt;">
<g id="a_node2_2"><a xlink:href="AbstractFilteredPCAIndex.Factory.html" xlink:title="de.lmu.ifi.dbs.elki.index.preprocessed.localpca.AbstractFilteredPCAIndex.Factory" target="_parent">
<polygon fill="none" stroke="#000000" points="160.5,-41 160.5,-69 293.5,-69 293.5,-41 160.5,-41"/>
<text text-anchor="start" x="208.5" y="-58.6" font-family="Roboto" font-size="8.00" fill="#000000"> «factory» </text>
<text text-anchor="start" x="164.5" y="-48.6" font-family="Roboto" font-size="8.00" fill="#000000"> </text>
<text text-anchor="start" x="167.5" y="-48.6" font-family="Roboto" font-style="italic" font-size="8.00" fill="#000000">AbstractFilteredPCAIndex.Factory</text>
<text text-anchor="start" x="286.5" y="-48.6" font-family="Roboto" font-size="8.00" fill="#000000"> </text>
</a>
</g>
</a>
</g>
</g>
<!-- c224290&#45;&gt;c224289 -->
<g id="edge3" class="edge">
<title>c224290&#45;&gt;c224289</title>
<path fill="none" stroke="#000000" d="M287.0692,-40.8901C309.6284,-35.6349 334.86,-29.7571 355.966,-24.8403"/>
<polygon fill="#000000" stroke="#000000" points="365.9659,-22.5108 357.2477,-29.1623 361.0963,-23.6452 356.2267,-24.7797 356.2267,-24.7797 356.2267,-24.7797 361.0963,-23.6452 355.2057,-20.397 365.9659,-22.5108 365.9659,-22.5108"/>
<text text-anchor="middle" x="312.5" y="-38.4" font-family="Roboto" font-size="7.00" fill="#000000">create</text>
</g>
<!-- c224295 -->
<g id="node6" class="node">
<title>c224295</title>
<g id="a_node6"><a xlink:href="KNNQueryFilteredPCAIndex.Factory.html" xlink:title="&lt;TABLE&gt;">
<g id="a_node6_3"><a xlink:href="KNNQueryFilteredPCAIndex.Factory.html" xlink:title="de.lmu.ifi.dbs.elki.index.preprocessed.localpca.KNNQueryFilteredPCAIndex.Factory" target="_parent">
<polygon fill="#fffacd" stroke="transparent" points="332,-41 332,-69 473,-69 473,-41 332,-41"/>
<polygon fill="none" stroke="#000000" points="332.5,-41 332.5,-69 473.5,-69 473.5,-41 332.5,-41"/>
<text text-anchor="start" x="384.5" y="-58.6" font-family="Roboto" font-size="8.00" fill="#000000"> «factory» </text>
<text text-anchor="start" x="336.5" y="-48.6" font-family="Roboto" font-size="8.00" fill="#000000"> </text>
<text text-anchor="start" x="339.5" y="-48.6" font-family="Roboto" font-size="8.00" fill="#000000">KNNQueryFilteredPCAIndex.Factory</text>
<text text-anchor="start" x="466.5" y="-48.6" font-family="Roboto" font-size="8.00" fill="#000000"> </text>
</a>
</g>
</a>
</g>
</g>
<!-- c224290&#45;&gt;c224295 -->
<g id="edge6" class="edge">
<title>c224290&#45;&gt;c224295</title>
<path fill="none" stroke="#000000" d="M303.2345,-55C312.7149,-55 322.3728,-55 331.758,-55"/>
<polygon fill="none" stroke="#000000" points="303.0381,-51.5001 293.0381,-55 303.038,-58.5001 303.0381,-51.5001"/>
</g>
<!-- c224292 -->
<g id="node3" class="node">
<title>c224292</title>
<g id="a_node3"><a xlink:href="FilteredLocalPCAIndex.html" xlink:title="&lt;TABLE&gt;">
<g id="a_node3_4"><a xlink:href="FilteredLocalPCAIndex.html" xlink:title="de.lmu.ifi.dbs.elki.index.preprocessed.localpca.FilteredLocalPCAIndex" target="_parent">
<polygon fill="none" stroke="#000000" points="180.5,0 180.5,-28 273.5,-28 273.5,0 180.5,0"/>
<text text-anchor="start" x="205.5" y="-17.6" font-family="Roboto" font-size="8.00" fill="#000000"> «interface» </text>
<text text-anchor="start" x="184.5" y="-7.6" font-family="Roboto" font-size="8.00" fill="#000000"> </text>
<text text-anchor="start" x="187.5" y="-7.6" font-family="Roboto" font-size="8.00" fill="#000000">FilteredLocalPCAIndex</text>
<text text-anchor="start" x="266.5" y="-7.6" font-family="Roboto" font-size="8.00" fill="#000000"> </text>
</a>
</g>
</a>
</g>
</g>
<!-- c224292&#45;&gt;c224289 -->
<g id="edge1" class="edge">
<title>c224292&#45;&gt;c224289</title>
<path fill="none" stroke="#000000" stroke-dasharray="5,2" d="M283.4483,-14C304.8321,-14 329.0219,-14 349.9847,-14"/>
<polygon fill="none" stroke="#000000" points="283.2027,-10.5001 273.2027,-14 283.2027,-17.5001 283.2027,-10.5001"/>
</g>
<!-- c224293 -->
<g id="node4" class="node">
<title>c224293</title>
<g id="a_node4"><a xlink:href="FilteredLocalPCAIndex.Factory.html" xlink:title="&lt;TABLE&gt;">
<g id="a_node4_5"><a xlink:href="FilteredLocalPCAIndex.Factory.html" xlink:title="de.lmu.ifi.dbs.elki.index.preprocessed.localpca.FilteredLocalPCAIndex.Factory" target="_parent">
<polygon fill="none" stroke="#000000" points=".5,-35 .5,-74 121.5,-74 121.5,-35 .5,-35"/>
<text text-anchor="start" x="39.5" y="-63.6" font-family="Roboto" font-size="8.00" fill="#000000"> «interface» </text>
<text text-anchor="start" x="42.5" y="-52.6" font-family="Roboto" font-size="8.00" fill="#000000"> «factory» </text>
<text text-anchor="start" x="4.5" y="-42.6" font-family="Roboto" font-size="8.00" fill="#000000"> </text>
<text text-anchor="start" x="7.5" y="-42.6" font-family="Roboto" font-size="8.00" fill="#000000">FilteredLocalPCAIndex.Factory</text>
<text text-anchor="start" x="114.5" y="-42.6" font-family="Roboto" font-size="8.00" fill="#000000"> </text>
</a>
</g>
</a>
</g>
</g>
<!-- c224293&#45;&gt;c224290 -->
<g id="edge2" class="edge">
<title>c224293&#45;&gt;c224290</title>
<path fill="none" stroke="#000000" stroke-dasharray="5,2" d="M131.4534,-55C140.8438,-55 150.4444,-55 159.7606,-55"/>
<polygon fill="none" stroke="#000000" points="131.3697,-51.5001 121.3697,-55 131.3696,-58.5001 131.3697,-51.5001"/>
</g>
<!-- c224293&#45;&gt;c224292 -->
<g id="edge4" class="edge">
<title>c224293&#45;&gt;c224292</title>
<path fill="none" stroke="#000000" d="M121.3697,-39.9659C137.2338,-36.0477 154.2616,-31.842 169.8949,-27.9808"/>
<polygon fill="#000000" stroke="#000000" points="179.9406,-25.4996 171.3114,-32.2662 175.0865,-26.6986 170.2324,-27.8975 170.2324,-27.8975 170.2324,-27.8975 175.0865,-26.6986 169.1533,-23.5288 179.9406,-25.4996 179.9406,-25.4996"/>
<text text-anchor="middle" x="140.5" y="-38.4" font-family="Roboto" font-size="7.00" fill="#000000">create</text>
</g>
<!-- c224295&#45;&gt;c224294 -->
<g id="edge7" class="edge">
<title>c224295&#45;&gt;c224294</title>
<path fill="none" stroke="#000000" d="M459.6278,-40.8901C480.7118,-35.6826 504.2707,-29.8639 524.0661,-24.9746"/>
<polygon fill="#000000" stroke="#000000" points="534.0417,-22.5108 525.4125,-29.2774 529.1876,-23.7097 524.3334,-24.9087 524.3334,-24.9087 524.3334,-24.9087 529.1876,-23.7097 523.2544,-20.54 534.0417,-22.5108 534.0417,-22.5108"/>
<text text-anchor="middle" x="492.5" y="-36.4" font-family="Roboto" font-size="7.00" fill="#000000">create</text>
</g>
</g>
</svg>
