<?xml version="1.0" encoding="UTF-8" standalone="no"?>
<!DOCTYPE svg PUBLIC "-//W3C//DTD SVG 1.1//EN"
 "http://www.w3.org/Graphics/SVG/1.1/DTD/svg11.dtd">
<!-- Generated by graphviz version 2.40.1 (20161225.0304)
 -->
<!-- Title: G Pages: 1 -->
<svg width="660pt" height="229pt"
 viewBox="0.00 0.00 660.00 228.73" xmlns="http://www.w3.org/2000/svg" xmlns:xlink="http://www.w3.org/1999/xlink">
<g id="graph0" class="graph" transform="scale(1 1) rotate(0) translate(4 224.7308)">
<title>G</title>
<polygon fill="#ffffff" stroke="transparent" points="-4,4 -4,-224.7308 656,-224.7308 656,4 -4,4"/>
<!-- c8585131 -->
<g id="node1" class="node">
<title>c8585131</title>
<g id="a_node1"><a xlink:href="../../../../../distance/distancefunction/SpatialPrimitiveDistanceFunction.html" xlink:title="&lt;TABLE&gt;">
<g id="a_node1_0"><a xlink:href="../../../../../distance/distancefunction/SpatialPrimitiveDistanceFunction.html" xlink:title="de.lmu.ifi.dbs.elki.distance.distancefunction.SpatialPrimitiveDistanceFunction" target="_parent">
<polygon fill="none" stroke="#000000" points="358.5,-152.6645 358.5,-191.6645 516.5,-191.6645 516.5,-152.6645 358.5,-152.6645"/>
<text text-anchor="start" x="416" y="-181.2645" font-family="Roboto" font-size="8.00" fill="#000000"> «interface» </text>
<text text-anchor="start" x="376" y="-171.2645" font-family="Roboto" font-size="8.00" fill="#000000"> </text>
<text text-anchor="start" x="379" y="-171.2645" font-family="Roboto" font-size="8.00" fill="#000000">SpatialPrimitiveDistanceFunction</text>
<text text-anchor="start" x="496" y="-171.2645" font-family="Roboto" font-size="8.00" fill="#000000"> </text>
<text text-anchor="start" x="362.5" y="-160.2645" font-family="Roboto" font-size="8.00" fill="#000000"> </text>
<text text-anchor="start" x="365.5" y="-160.2645" font-family="Roboto" font-size="7.00" fill="#000000">de.lmu.ifi.dbs.elki.distance.distancefunction</text>
<text text-anchor="start" x="509.5" y="-160.2645" font-family="Roboto" font-size="8.00" fill="#000000"> </text>
</a>
</g>
</a>
</g>
</g>
<!-- c8585174 -->
<g id="node4" class="node">
<title>c8585174</title>
<g id="a_node4"><a xlink:href="../../../../../data/spatial/SpatialComparable.html" xlink:title="&lt;TABLE&gt;">
<g id="a_node4_1"><a xlink:href="../../../../../data/spatial/SpatialComparable.html" xlink:title="de.lmu.ifi.dbs.elki.data.spatial.SpatialComparable" target="_parent">
<polygon fill="#fffacd" stroke="transparent" points="542,-171.1645 542,-210.1645 652,-210.1645 652,-171.1645 542,-171.1645"/>
<polygon fill="none" stroke="#000000" points="542,-170.6645 542,-209.6645 652,-209.6645 652,-170.6645 542,-170.6645"/>
<text text-anchor="start" x="575.5" y="-199.2645" font-family="Roboto" font-size="8.00" fill="#000000"> «interface» </text>
<text text-anchor="start" x="560" y="-189.2645" font-family="Roboto" font-size="8.00" fill="#000000"> </text>
<text text-anchor="start" x="563" y="-189.2645" font-family="Roboto" font-size="8.00" fill="#000000">SpatialComparable</text>
<text text-anchor="start" x="631" y="-189.2645" font-family="Roboto" font-size="8.00" fill="#000000"> </text>
<text text-anchor="start" x="546" y="-178.2645" font-family="Roboto" font-size="8.00" fill="#000000"> </text>
<text text-anchor="start" x="549" y="-178.2645" font-family="Roboto" font-size="7.00" fill="#000000">de.lmu.ifi.dbs.elki.data.spatial</text>
<text text-anchor="start" x="645" y="-178.2645" font-family="Roboto" font-size="8.00" fill="#000000"> </text>
</a>
</g>
</a>
</g>
</g>
<!-- c8585131&#45;&gt;c8585174 -->
<g id="edge10" class="edge">
<title>c8585131&#45;&gt;c8585174</title>
<path fill="none" stroke="#000000" stroke-dasharray="5,2" d="M516.7827,-181.6117C521.7963,-182.1775 526.8123,-182.7436 531.7515,-183.301"/>
<polygon fill="#000000" stroke="#000000" points="541.7566,-184.4301 531.315,-187.7802 536.7881,-183.8694 531.8197,-183.3086 531.8197,-183.3086 531.8197,-183.3086 536.7881,-183.8694 532.3243,-178.837 541.7566,-184.4301 541.7566,-184.4301"/>
</g>
<!-- c8585155 -->
<g id="node2" class="node">
<title>c8585155</title>
<g id="a_node2"><a xlink:href="../../../../../database/query/range/RangeQuery.html" xlink:title="&lt;TABLE&gt;">
<g id="a_node2_2"><a xlink:href="../../../../../database/query/range/RangeQuery.html" xlink:title="de.lmu.ifi.dbs.elki.database.query.range.RangeQuery" target="_parent">
<polygon fill="#fffacd" stroke="transparent" points="81,-64.1645 81,-103.1645 222,-103.1645 222,-64.1645 81,-64.1645"/>
<polygon fill="none" stroke="#000000" points="81.5,-63.6645 81.5,-102.6645 222.5,-102.6645 222.5,-63.6645 81.5,-63.6645"/>
<text text-anchor="start" x="130.5" y="-92.2645" font-family="Roboto" font-size="8.00" fill="#000000"> «interface» </text>
<text text-anchor="start" x="127" y="-82.2645" font-family="Roboto" font-size="8.00" fill="#000000"> </text>
<text text-anchor="start" x="130" y="-82.2645" font-family="Roboto" font-size="8.00" fill="#000000">RangeQuery</text>
<text text-anchor="start" x="174" y="-82.2645" font-family="Roboto" font-size="8.00" fill="#000000"> </text>
<text text-anchor="start" x="85.5" y="-71.2645" font-family="Roboto" font-size="8.00" fill="#000000"> </text>
<text text-anchor="start" x="88.5" y="-71.2645" font-family="Roboto" font-size="7.00" fill="#000000">de.lmu.ifi.dbs.elki.database.query.range</text>
<text text-anchor="start" x="215.5" y="-71.2645" font-family="Roboto" font-size="8.00" fill="#000000"> </text>
</a>
</g>
</a>
</g>
</g>
<!-- c8586539 -->
<g id="node6" class="node">
<title>c8586539</title>
<g id="a_node6"><a xlink:href="RStarTreeRangeQuery.html" xlink:title="&lt;TABLE&gt;">
<g id="a_node6_3"><a xlink:href="RStarTreeRangeQuery.html" xlink:title="de.lmu.ifi.dbs.elki.index.tree.spatial.rstarvariants.query.RStarTreeRangeQuery" target="_parent">
<polygon fill="#fffacd" stroke="transparent" points="240,-75.1645 240,-92.1645 333,-92.1645 333,-75.1645 240,-75.1645"/>
<polygon fill="none" stroke="#000000" points="240.5,-74.6645 240.5,-91.6645 333.5,-91.6645 333.5,-74.6645 240.5,-74.6645"/>
<text text-anchor="start" x="244.5" y="-82.2645" font-family="Roboto" font-size="8.00" fill="#000000"> </text>
<text text-anchor="start" x="247.5" y="-82.2645" font-family="Roboto" font-size="8.00" fill="#000000">RStarTreeRangeQuery</text>
<text text-anchor="start" x="326.5" y="-82.2645" font-family="Roboto" font-size="8.00" fill="#000000"> </text>
</a>
</g>
</a>
</g>
</g>
<!-- c8585155&#45;&gt;c8586539 -->
<g id="edge5" class="edge">
<title>c8585155&#45;&gt;c8586539</title>
<path fill="none" stroke="#000000" stroke-dasharray="5,2" d="M232.2172,-83.6645C234.798,-83.6645 237.3521,-83.6645 239.8634,-83.6645"/>
<polygon fill="none" stroke="#000000" points="232.1631,-80.1646 222.163,-83.6645 232.163,-87.1646 232.1631,-80.1646"/>
</g>
<!-- c8585166 -->
<g id="node3" class="node">
<title>c8585166</title>
<g id="a_node3"><a xlink:href="../../../../../database/relation/Relation.html" xlink:title="&lt;TABLE&gt;">
<g id="a_node3_4"><a xlink:href="../../../../../database/relation/Relation.html" xlink:title="de.lmu.ifi.dbs.elki.database.relation.Relation" target="_parent">
<polygon fill="none" stroke="#000000" points="373.5,-102.6645 373.5,-141.6645 502.5,-141.6645 502.5,-102.6645 373.5,-102.6645"/>
<text text-anchor="start" x="416.5" y="-131.2645" font-family="Roboto" font-size="8.00" fill="#000000"> «interface» </text>
<text text-anchor="start" x="420.5" y="-121.2645" font-family="Roboto" font-size="8.00" fill="#000000"> </text>
<text text-anchor="start" x="423.5" y="-121.2645" font-family="Roboto" font-size="8.00" fill="#000000">Relation</text>
<text text-anchor="start" x="452.5" y="-121.2645" font-family="Roboto" font-size="8.00" fill="#000000"> </text>
<text text-anchor="start" x="377.5" y="-110.2645" font-family="Roboto" font-size="8.00" fill="#000000"> </text>
<text text-anchor="start" x="380.5" y="-110.2645" font-family="Roboto" font-size="7.00" fill="#000000">de.lmu.ifi.dbs.elki.database.relation</text>
<text text-anchor="start" x="495.5" y="-110.2645" font-family="Roboto" font-size="8.00" fill="#000000"> </text>
</a>
</g>
</a>
</g>
</g>
<!-- c8586536 -->
<g id="node5" class="node">
<title>c8586536</title>
<g id="a_node5"><a xlink:href="RStarTreeUtil.html" xlink:title="&lt;TABLE&gt;">
<g id="a_node5_5"><a xlink:href="RStarTreeUtil.html" xlink:title="de.lmu.ifi.dbs.elki.index.tree.spatial.rstarvariants.query.RStarTreeUtil" target="_parent">
<polygon fill="#fffacd" stroke="transparent" points="0,-38.1645 0,-55.1645 63,-55.1645 63,-38.1645 0,-38.1645"/>
<polygon fill="none" stroke="#000000" points=".5,-37.6645 .5,-54.6645 63.5,-54.6645 63.5,-37.6645 .5,-37.6645"/>
<text text-anchor="start" x="4.5" y="-45.2645" font-family="Roboto" font-size="8.00" fill="#000000"> </text>
<text text-anchor="start" x="7.5" y="-45.2645" font-family="Roboto" font-size="8.00" fill="#000000">RStarTreeUtil</text>
<text text-anchor="start" x="56.5" y="-45.2645" font-family="Roboto" font-size="8.00" fill="#000000"> </text>
</a>
</g>
</a>
</g>
</g>
<!-- c8586536&#45;&gt;c8585155 -->
<g id="edge1" class="edge">
<title>c8586536&#45;&gt;c8585155</title>
<path fill="none" stroke="#000000" d="M70.9736,-58.8355C76.5258,-60.5474 82.3447,-62.3416 88.2056,-64.1487"/>
<polygon fill="none" stroke="#000000" points="70.7993,-58.7818 63.8871,-60.8364 59.332,-55.246 66.2443,-53.1915 70.7993,-58.7818"/>
</g>
<!-- c8586536&#45;&gt;c8586539 -->
<g id="edge4" class="edge">
<title>c8586536&#45;&gt;c8586539</title>
<path fill="none" stroke="#000000" d="M63.2601,-45.7191C101.4133,-45.2558 167.1396,-46.6074 222,-58.6645 238.4216,-62.2736 256.1722,-69.412 268.887,-75.1402"/>
</g>
<!-- c8586541 -->
<g id="node7" class="node">
<title>c8586541</title>
<g id="a_node7"><a xlink:href="EuclideanRStarTreeRangeQuery.html" xlink:title="&lt;TABLE&gt;">
<g id="a_node7_6"><a xlink:href="EuclideanRStarTreeRangeQuery.html" xlink:title="de.lmu.ifi.dbs.elki.index.tree.spatial.rstarvariants.query.EuclideanRStarTreeRangeQuery" target="_parent">
<polygon fill="none" stroke="#000000" points="373.5,-74.6645 373.5,-91.6645 501.5,-91.6645 501.5,-74.6645 373.5,-74.6645"/>
<text text-anchor="start" x="377.5" y="-82.2645" font-family="Roboto" font-size="8.00" fill="#000000"> </text>
<text text-anchor="start" x="380.5" y="-82.2645" font-family="Roboto" font-size="8.00" fill="#000000">EuclideanRStarTreeRangeQuery</text>
<text text-anchor="start" x="494.5" y="-82.2645" font-family="Roboto" font-size="8.00" fill="#000000"> </text>
</a>
</g>
</a>
</g>
</g>
<!-- c8586536&#45;&gt;c8586541 -->
<g id="edge3" class="edge">
<title>c8586536&#45;&gt;c8586541</title>
<path fill="none" stroke="#000000" d="M63.175,-44.4588C69.0959,-44.1277 75.2343,-43.839 81,-43.6645 143.638,-41.7681 159.597,-37.9221 222,-43.6645 286.4166,-49.5922 360.3109,-65.2863 402.6889,-75.1618"/>
</g>
<!-- c8586542 -->
<g id="node8" class="node">
<title>c8586542</title>
<g id="a_node8"><a xlink:href="../AbstractRStarTree.html" xlink:title="&lt;TABLE&gt;">
<g id="a_node8_7"><a xlink:href="../AbstractRStarTree.html" xlink:title="de.lmu.ifi.dbs.elki.index.tree.spatial.rstarvariants.AbstractRStarTree" target="_parent">
<polygon fill="#fffacd" stroke="transparent" points="351,-11.6645 351,-39.6645 524,-39.6645 524,-11.6645 351,-11.6645"/>
<polygon fill="none" stroke="#000000" points="351.5,-11.6645 351.5,-39.6645 524.5,-39.6645 524.5,-11.6645 351.5,-11.6645"/>
<text text-anchor="start" x="403" y="-30.2645" font-family="Roboto" font-size="8.00" fill="#000000"> </text>
<text text-anchor="start" x="406" y="-30.2645" font-family="Roboto" font-style="italic" font-size="8.00" fill="#000000">AbstractRStarTree</text>
<text text-anchor="start" x="470" y="-30.2645" font-family="Roboto" font-size="8.00" fill="#000000"> </text>
<text text-anchor="start" x="355.5" y="-19.2645" font-family="Roboto" font-size="8.00" fill="#000000"> </text>
<text text-anchor="start" x="358.5" y="-19.2645" font-family="Roboto" font-size="7.00" fill="#000000">de.lmu.ifi.dbs.elki.index.tree.spatial.rstarvariants</text>
<text text-anchor="start" x="517.5" y="-19.2645" font-family="Roboto" font-size="8.00" fill="#000000"> </text>
</a>
</g>
</a>
</g>
</g>
<!-- c8586536&#45;&gt;c8586542 -->
<g id="edge2" class="edge">
<title>c8586536&#45;&gt;c8586542</title>
<path fill="none" stroke="#000000" d="M41.6648,-37.8757C51.1273,-30.3186 65.9916,-19.9762 81,-15.6645 188.6458,15.2608 221.1274,-10.3239 333,-15.6645 338.8254,-15.9426 344.8273,-16.3074 350.8705,-16.7329"/>
</g>
<!-- c8586539&#45;&gt;c8585131 -->
<g id="edge7" class="edge">
<title>c8586539&#45;&gt;c8585131</title>
<path fill="none" stroke="#000000" d="M292.9982,-92.5137C303.6039,-106.328 325.9772,-132.9551 351,-147.6645 354.2343,-149.5657 357.6224,-151.3302 361.107,-152.9668"/>
</g>
<!-- c8586539&#45;&gt;c8585166 -->
<g id="edge9" class="edge">
<title>c8586539&#45;&gt;c8585166</title>
<path fill="none" stroke="#000000" d="M319.6376,-92.2232C332.4564,-95.534 347.6841,-99.467 362.8651,-103.3879"/>
<polygon fill="#000000" stroke="#000000" points="372.8087,-105.9561 362.0011,-107.8124 367.9676,-104.7057 363.1264,-103.4553 363.1264,-103.4553 363.1264,-103.4553 367.9676,-104.7057 364.2518,-99.0983 372.8087,-105.9561 372.8087,-105.9561"/>
</g>
<!-- c8586539&#45;&gt;c8585174 -->
<g id="edge11" class="edge">
<title>c8586539&#45;&gt;c8585174</title>
<path fill="none" stroke="#000000" stroke-dasharray="5,2" d="M288.2894,-92.3114C293.4279,-114.6288 310.5342,-174.0658 351,-197.6645 405.6973,-229.5625 479.5071,-222.183 531.9703,-210.3118"/>
<polygon fill="#000000" stroke="#000000" points="541.8371,-207.9698 533.1467,-214.6576 536.9723,-209.1246 532.1074,-210.2793 532.1074,-210.2793 532.1074,-210.2793 536.9723,-209.1246 531.0682,-205.9009 541.8371,-207.9698 541.8371,-207.9698"/>
</g>
<!-- c8586539&#45;&gt;c8586541 -->
<g id="edge8" class="edge">
<title>c8586539&#45;&gt;c8586541</title>
<path fill="none" stroke="#000000" d="M343.1171,-83.6645C352.979,-83.6645 363.3001,-83.6645 373.347,-83.6645"/>
<polygon fill="none" stroke="#000000" points="343.0371,-80.1646 333.0371,-83.6645 343.0371,-87.1646 343.0371,-80.1646"/>
</g>
<!-- c8586539&#45;&gt;c8586542 -->
<g id="edge6" class="edge">
<title>c8586539&#45;&gt;c8586542</title>
<path fill="none" stroke="#000000" d="M308.7806,-75.1064C332.9816,-65.8106 372.0263,-50.8133 400.7754,-39.7706"/>
</g>
</g>
</svg>
