<?xml version="1.0" encoding="UTF-8" standalone="no"?>
<!DOCTYPE svg PUBLIC "-//W3C//DTD SVG 1.1//EN"
 "http://www.w3.org/Graphics/SVG/1.1/DTD/svg11.dtd">
<!-- Generated by graphviz version 2.40.1 (20161225.0304)
 -->
<!-- Title: G Pages: 1 -->
<svg width="510pt" height="126pt"
 viewBox="0.00 0.00 510.00 125.50" xmlns="http://www.w3.org/2000/svg" xmlns:xlink="http://www.w3.org/1999/xlink">
<g id="graph0" class="graph" transform="scale(1 1) rotate(0) translate(4 121.5)">
<title>G</title>
<polygon fill="#ffffff" stroke="transparent" points="-4,4 -4,-121.5 506,-121.5 506,4 -4,4"/>
<!-- c1061453 -->
<g id="node1" class="node">
<title>c1061453</title>
<g id="a_node1"><a xlink:href="AbstractHDBSCAN.html" xlink:title="&lt;TABLE&gt;">
<g id="a_node1_0"><a xlink:href="AbstractHDBSCAN.html" xlink:title="de.lmu.ifi.dbs.elki.algorithm.clustering.hierarchical.AbstractHDBSCAN" target="_parent">
<polygon fill="none" stroke="#000000" points="36.5,-83 36.5,-100 115.5,-100 115.5,-83 36.5,-83"/>
<text text-anchor="start" x="40.5" y="-90.6" font-family="Roboto" font-size="8.00" fill="#000000"> </text>
<text text-anchor="start" x="43.5" y="-90.6" font-family="Roboto" font-style="italic" font-size="8.00" fill="#000000">AbstractHDBSCAN</text>
<text text-anchor="start" x="108.5" y="-90.6" font-family="Roboto" font-size="8.00" fill="#000000"> </text>
</a>
</g>
</a>
</g>
</g>
<!-- c1061455 -->
<g id="node2" class="node">
<title>c1061455</title>
<g id="a_node2"><a xlink:href="AbstractHDBSCAN.HeapMSTCollector.html" xlink:title="&lt;TABLE&gt;">
<g id="a_node2_1"><a xlink:href="AbstractHDBSCAN.HeapMSTCollector.html" xlink:title="de.lmu.ifi.dbs.elki.algorithm.clustering.hierarchical.AbstractHDBSCAN.HeapMSTCollector" target="_parent">
<polygon fill="#fffacd" stroke="transparent" points="169,-44.5 169,-61.5 319,-61.5 319,-44.5 169,-44.5"/>
<polygon fill="none" stroke="#000000" points="169,-44 169,-61 319,-61 319,-44 169,-44"/>
<text text-anchor="start" x="173" y="-51.6" font-family="Roboto" font-size="8.00" fill="#000000"> </text>
<text text-anchor="start" x="176" y="-51.6" font-family="Roboto" font-size="8.00" fill="#000000">AbstractHDBSCAN.HeapMSTCollector</text>
<text text-anchor="start" x="312" y="-51.6" font-family="Roboto" font-size="8.00" fill="#000000"> </text>
</a>
</g>
</a>
</g>
</g>
<!-- c1061453&#45;&gt;c1061455 -->
<g id="edge1" class="edge">
<title>c1061453&#45;&gt;c1061455</title>
<path fill="none" stroke="#000000" d="M127.1493,-82.9861C135.1561,-81.4263 143.3162,-79.7423 151,-78 172.3597,-73.1567 196.2117,-66.7238 214.4121,-61.5964"/>
<polygon fill="#000000" stroke="#000000" points="126.9874,-83.0167 121.8364,-88.0632 115.1969,-85.2493 120.3479,-80.2028 126.9874,-83.0167"/>
</g>
<!-- c1062912 -->
<g id="node4" class="node">
<title>c1062912</title>
<g id="a_node4"><a xlink:href="../../../utilities/datastructures/heap/DoubleLongHeap.html" xlink:title="&lt;TABLE&gt;">
<g id="a_node4_2"><a xlink:href="../../../utilities/datastructures/heap/DoubleLongHeap.html" xlink:title="de.lmu.ifi.dbs.elki.utilities.datastructures.heap.DoubleLongHeap" target="_parent">
<polygon fill="none" stroke="#000000" points="337.5,-78 337.5,-117 502.5,-117 502.5,-78 337.5,-78"/>
<text text-anchor="start" x="398.5" y="-106.6" font-family="Roboto" font-size="8.00" fill="#000000"> «interface» </text>
<text text-anchor="start" x="386.5" y="-96.6" font-family="Roboto" font-size="8.00" fill="#000000"> </text>
<text text-anchor="start" x="389.5" y="-96.6" font-family="Roboto" font-size="8.00" fill="#000000">DoubleLongHeap</text>
<text text-anchor="start" x="450.5" y="-96.6" font-family="Roboto" font-size="8.00" fill="#000000"> </text>
<text text-anchor="start" x="341.5" y="-85.6" font-family="Roboto" font-size="8.00" fill="#000000"> </text>
<text text-anchor="start" x="344.5" y="-85.6" font-family="Roboto" font-size="7.00" fill="#000000">de.lmu.ifi.dbs.elki.utilities.datastructures.heap</text>
<text text-anchor="start" x="495.5" y="-85.6" font-family="Roboto" font-size="8.00" fill="#000000"> </text>
</a>
</g>
</a>
</g>
</g>
<!-- c1061455&#45;&gt;c1062912 -->
<g id="edge3" class="edge">
<title>c1061455&#45;&gt;c1062912</title>
<path fill="none" stroke="#000000" d="M277.4233,-61.5701C293.4911,-65.69 313.5655,-70.8373 333.5179,-75.9533"/>
<polygon fill="#000000" stroke="#000000" points="343.2848,-78.4576 332.4805,-80.3328 338.4415,-77.2157 333.5982,-75.9738 333.5982,-75.9738 333.5982,-75.9738 338.4415,-77.2157 334.7159,-71.6148 343.2848,-78.4576 343.2848,-78.4576"/>
</g>
<!-- c1063630 -->
<g id="node5" class="node">
<title>c1063630</title>
<g id="a_node5"><a xlink:href="../../../logging/progress/FiniteProgress.html" xlink:title="&lt;TABLE&gt;">
<g id="a_node5_3"><a xlink:href="../../../logging/progress/FiniteProgress.html" xlink:title="de.lmu.ifi.dbs.elki.logging.progress.FiniteProgress" target="_parent">
<polygon fill="none" stroke="#000000" points="356.5,-39 356.5,-67 483.5,-67 483.5,-39 356.5,-39"/>
<text text-anchor="start" x="392" y="-57.6" font-family="Roboto" font-size="8.00" fill="#000000"> </text>
<text text-anchor="start" x="395" y="-57.6" font-family="Roboto" font-size="8.00" fill="#000000">FiniteProgress</text>
<text text-anchor="start" x="445" y="-57.6" font-family="Roboto" font-size="8.00" fill="#000000"> </text>
<text text-anchor="start" x="360.5" y="-46.6" font-family="Roboto" font-size="8.00" fill="#000000"> </text>
<text text-anchor="start" x="363.5" y="-46.6" font-family="Roboto" font-size="7.00" fill="#000000">de.lmu.ifi.dbs.elki.logging.progress</text>
<text text-anchor="start" x="476.5" y="-46.6" font-family="Roboto" font-size="8.00" fill="#000000"> </text>
</a>
</g>
</a>
</g>
</g>
<!-- c1061455&#45;&gt;c1063630 -->
<g id="edge4" class="edge">
<title>c1061455&#45;&gt;c1063630</title>
<path fill="none" stroke="#000000" d="M319.1915,-53C327.9513,-53 336.8816,-53 345.6234,-53"/>
<polygon fill="#000000" stroke="#000000" points="355.7774,-53 345.7775,-57.5001 350.7774,-53 345.7774,-53.0001 345.7774,-53.0001 345.7774,-53.0001 350.7774,-53 345.7774,-48.5001 355.7774,-53 355.7774,-53"/>
</g>
<!-- c1063636 -->
<g id="node6" class="node">
<title>c1063636</title>
<g id="a_node6"><a xlink:href="../../../logging/Logging.html" xlink:title="&lt;TABLE&gt;">
<g id="a_node6_4"><a xlink:href="../../../logging/Logging.html" xlink:title="de.lmu.ifi.dbs.elki.logging.Logging" target="_parent">
<polygon fill="none" stroke="#000000" points="371.5,0 371.5,-28 468.5,-28 468.5,0 371.5,0"/>
<text text-anchor="start" x="402.5" y="-18.6" font-family="Roboto" font-size="8.00" fill="#000000"> </text>
<text text-anchor="start" x="405.5" y="-18.6" font-family="Roboto" font-size="8.00" fill="#000000">Logging</text>
<text text-anchor="start" x="434.5" y="-18.6" font-family="Roboto" font-size="8.00" fill="#000000"> </text>
<text text-anchor="start" x="375.5" y="-7.6" font-family="Roboto" font-size="8.00" fill="#000000"> </text>
<text text-anchor="start" x="378.5" y="-7.6" font-family="Roboto" font-size="7.00" fill="#000000">de.lmu.ifi.dbs.elki.logging</text>
<text text-anchor="start" x="461.5" y="-7.6" font-family="Roboto" font-size="8.00" fill="#000000"> </text>
</a>
</g>
</a>
</g>
</g>
<!-- c1061455&#45;&gt;c1063636 -->
<g id="edge5" class="edge">
<title>c1061455&#45;&gt;c1063636</title>
<path fill="none" stroke="#000000" d="M282.5142,-44.4413C305.4069,-39.354 334.9099,-32.7978 360.6694,-27.0735"/>
<polygon fill="#000000" stroke="#000000" points="370.7055,-24.8432 361.9198,-31.4055 365.8245,-25.9279 360.9436,-27.0126 360.9436,-27.0126 360.9436,-27.0126 365.8245,-25.9279 359.9674,-22.6198 370.7055,-24.8432 370.7055,-24.8432"/>
</g>
<!-- c1062686 -->
<g id="node3" class="node">
<title>c1062686</title>
<g id="a_node3"><a xlink:href="../../../math/geometry/PrimsMinimumSpanningTree.Collector.html" xlink:title="&lt;TABLE&gt;">
<g id="a_node3_5"><a xlink:href="../../../math/geometry/PrimsMinimumSpanningTree.Collector.html" xlink:title="de.lmu.ifi.dbs.elki.math.geometry.PrimsMinimumSpanningTree.Collector" target="_parent">
<polygon fill="none" stroke="#000000" points=".5,-33 .5,-72 151.5,-72 151.5,-33 .5,-33"/>
<text text-anchor="start" x="54.5" y="-61.6" font-family="Roboto" font-size="8.00" fill="#000000"> «interface» </text>
<text text-anchor="start" x="4.5" y="-51.6" font-family="Roboto" font-size="8.00" fill="#000000"> </text>
<text text-anchor="start" x="7.5" y="-51.6" font-family="Roboto" font-size="8.00" fill="#000000">PrimsMinimumSpanningTree.Collector</text>
<text text-anchor="start" x="144.5" y="-51.6" font-family="Roboto" font-size="8.00" fill="#000000"> </text>
<text text-anchor="start" x="19" y="-40.6" font-family="Roboto" font-size="8.00" fill="#000000"> </text>
<text text-anchor="start" x="22" y="-40.6" font-family="Roboto" font-size="7.00" fill="#000000">de.lmu.ifi.dbs.elki.math.geometry</text>
<text text-anchor="start" x="130" y="-40.6" font-family="Roboto" font-size="8.00" fill="#000000"> </text>
</a>
</g>
</a>
</g>
</g>
<!-- c1062686&#45;&gt;c1061455 -->
<g id="edge2" class="edge">
<title>c1062686&#45;&gt;c1061455</title>
<path fill="none" stroke="#000000" stroke-dasharray="5,2" d="M161.5533,-53C164.0328,-53 166.5102,-53 168.977,-53"/>
<polygon fill="none" stroke="#000000" points="161.3703,-49.5001 151.3702,-53 161.3702,-56.5001 161.3703,-49.5001"/>
</g>
</g>
</svg>
