<?xml version="1.0" encoding="UTF-8" standalone="no"?>
<!DOCTYPE svg PUBLIC "-//W3C//DTD SVG 1.1//EN"
 "http://www.w3.org/Graphics/SVG/1.1/DTD/svg11.dtd">
<!-- Generated by graphviz version 2.40.1 (20161225.0304)
 -->
<!-- Title: G Pages: 1 -->
<svg width="436pt" height="75pt"
 viewBox="0.00 0.00 436.00 75.00" xmlns="http://www.w3.org/2000/svg" xmlns:xlink="http://www.w3.org/1999/xlink">
<g id="graph0" class="graph" transform="scale(1 1) rotate(0) translate(4 71)">
<title>G</title>
<polygon fill="#ffffff" stroke="transparent" points="-4,4 -4,-71 432,-71 432,4 -4,4"/>
<!-- c6934942 -->
<g id="node1" class="node">
<title>c6934942</title>
<g id="a_node1"><a xlink:href="MiniMaxAnderberg.html" xlink:title="&lt;TABLE&gt;">
<g id="a_node1_0"><a xlink:href="MiniMaxAnderberg.html" xlink:title="de.lmu.ifi.dbs.elki.algorithm.clustering.hierarchical.MiniMaxAnderberg" target="_parent">
<polygon fill="#fffacd" stroke="transparent" points="148,-5.5 148,-22.5 232,-22.5 232,-5.5 148,-5.5"/>
<polygon fill="none" stroke="#000000" points="148,-5 148,-22 232,-22 232,-5 148,-5"/>
<text text-anchor="start" x="152" y="-12.6" font-family="Roboto" font-size="8.00" fill="#000000"> </text>
<text text-anchor="start" x="155" y="-12.6" font-family="Roboto" font-size="8.00" fill="#000000">MiniMaxAnderberg</text>
<text text-anchor="start" x="225" y="-12.6" font-family="Roboto" font-size="8.00" fill="#000000"> </text>
</a>
</g>
</a>
</g>
</g>
<!-- c6934973 -->
<g id="node3" class="node">
<title>c6934973</title>
<g id="a_node3"><a xlink:href="PointerPrototypeHierarchyRepresentationResult.html" xlink:title="&lt;TABLE&gt;">
<g id="a_node3_1"><a xlink:href="PointerPrototypeHierarchyRepresentationResult.html" xlink:title="de.lmu.ifi.dbs.elki.algorithm.clustering.hierarchical.PointerPrototypeHierarchyRepresentationResult" target="_parent">
<polygon fill="none" stroke="#000000" points="250,-5 250,-22 428,-22 428,-5 250,-5"/>
<text text-anchor="start" x="254" y="-12.6" font-family="Roboto" font-size="8.00" fill="#000000"> </text>
<text text-anchor="start" x="257" y="-12.6" font-family="Roboto" font-size="8.00" fill="#000000">PointerPrototypeHierarchyRepresentationResult</text>
<text text-anchor="start" x="421" y="-12.6" font-family="Roboto" font-size="8.00" fill="#000000"> </text>
</a>
</g>
</a>
</g>
</g>
<!-- c6934942&#45;&gt;c6934973 -->
<g id="edge3" class="edge">
<title>c6934942&#45;&gt;c6934973</title>
<path fill="none" stroke="#000000" d="M244.4822,-14C246.2431,-14 248.0203,-14 249.8091,-14"/>
<polygon fill="none" stroke="#000000" points="244.2989,-14.0001 238.2988,-18 232.2989,-14 238.2989,-10 244.2989,-14.0001"/>
</g>
<!-- c6934972 -->
<g id="node2" class="node">
<title>c6934972</title>
<g id="a_node2"><a xlink:href="HierarchicalClusteringAlgorithm.html" xlink:title="&lt;TABLE&gt;">
<g id="a_node2_2"><a xlink:href="HierarchicalClusteringAlgorithm.html" xlink:title="de.lmu.ifi.dbs.elki.algorithm.clustering.hierarchical.HierarchicalClusteringAlgorithm" target="_parent">
<polygon fill="none" stroke="#000000" points="1,-39 1,-67 130,-67 130,-39 1,-39"/>
<text text-anchor="start" x="44" y="-56.6" font-family="Roboto" font-size="8.00" fill="#000000"> «interface» </text>
<text text-anchor="start" x="5" y="-46.6" font-family="Roboto" font-size="8.00" fill="#000000"> </text>
<text text-anchor="start" x="8" y="-46.6" font-family="Roboto" font-size="8.00" fill="#000000">HierarchicalClusteringAlgorithm</text>
<text text-anchor="start" x="123" y="-46.6" font-family="Roboto" font-size="8.00" fill="#000000"> </text>
</a>
</g>
</a>
</g>
</g>
<!-- c6934972&#45;&gt;c6934942 -->
<g id="edge2" class="edge">
<title>c6934972&#45;&gt;c6934942</title>
<path fill="none" stroke="#000000" stroke-dasharray="5,2" d="M123.4646,-36.0226C125.6729,-35.3457 127.8575,-34.67 130,-34 141.5277,-30.3953 154.2266,-26.1957 164.9619,-22.5781"/>
<polygon fill="none" stroke="#000000" points="122.2426,-32.7356 113.6862,-38.9837 124.2714,-39.4352 122.2426,-32.7356"/>
</g>
<!-- c6935338 -->
<g id="node4" class="node">
<title>c6935338</title>
<g id="a_node4"><a xlink:href="../../AbstractDistanceBasedAlgorithm.html" xlink:title="&lt;TABLE&gt;">
<g id="a_node4_3"><a xlink:href="../../AbstractDistanceBasedAlgorithm.html" xlink:title="de.lmu.ifi.dbs.elki.algorithm.AbstractDistanceBasedAlgorithm" target="_parent">
<polygon fill="#fffacd" stroke="transparent" points="0,0 0,-28 130,-28 130,0 0,0"/>
<polygon fill="none" stroke="#000000" points="0,0 0,-28 130,-28 130,0 0,0"/>
<text text-anchor="start" x="4" y="-18.6" font-family="Roboto" font-size="8.00" fill="#000000"> </text>
<text text-anchor="start" x="7" y="-18.6" font-family="Roboto" font-style="italic" font-size="8.00" fill="#000000">AbstractDistanceBasedAlgorithm</text>
<text text-anchor="start" x="123" y="-18.6" font-family="Roboto" font-size="8.00" fill="#000000"> </text>
<text text-anchor="start" x="16.5" y="-7.6" font-family="Roboto" font-size="8.00" fill="#000000"> </text>
<text text-anchor="start" x="19.5" y="-7.6" font-family="Roboto" font-size="7.00" fill="#000000">de.lmu.ifi.dbs.elki.algorithm</text>
<text text-anchor="start" x="110.5" y="-7.6" font-family="Roboto" font-size="8.00" fill="#000000"> </text>
</a>
</g>
</a>
</g>
</g>
<!-- c6935338&#45;&gt;c6934942 -->
<g id="edge1" class="edge">
<title>c6935338&#45;&gt;c6934942</title>
<path fill="none" stroke="#000000" d="M140.2027,-14C142.8027,-14 145.372,-14 147.8917,-14"/>
<polygon fill="none" stroke="#000000" points="140.0629,-10.5001 130.0628,-14 140.0628,-17.5001 140.0629,-10.5001"/>
</g>
</g>
</svg>
