<?xml version="1.0" encoding="UTF-8" standalone="no"?><svg xmlns="http://www.w3.org/2000/svg" xmlns:xlink="http://www.w3.org/1999/xlink" contentStyleType="text/css" height="266px" preserveAspectRatio="none" style="width:371px;height:266px;background:#FFFFFF;" version="1.1" viewBox="0 0 371 266" width="371px" zoomAndPan="magnify"><defs/><g><!--MD5=[524ddfb4af2fb8e728eba4fc92a11820]
class elki.outlier.lof.parallel.ParallelSimplifiedLOF--><a href="ParallelSimplifiedLOF.html" target="_top" title="ParallelSimplifiedLOF.html" xlink:actuate="onRequest" xlink:href="ParallelSimplifiedLOF.html" xlink:show="new" xlink:title="ParallelSimplifiedLOF.html" xlink:type="simple"><g id="elem_elki.outlier.lof.parallel.ParallelSimplifiedLOF"><rect codeLine="6" fill="#F1F1F1" height="135.4219" id="elki.outlier.lof.parallel.ParallelSimplifiedLOF" rx="2.5" ry="2.5" style="stroke:#181818;stroke-width:0.5;" width="351" x="9" y="105"/><ellipse cx="104.75" cy="123.9688" fill="#ADD1B2" rx="11" ry="11" style="stroke:#181818;stroke-width:1.0;"/><path d="M107.7188,129.6094 Q107.1406,129.9063 106.5,130.0469 Q105.8594,130.2031 105.1563,130.2031 Q102.6563,130.2031 101.3281,128.5625 Q100.0156,126.9063 100.0156,123.7813 Q100.0156,120.6563 101.3281,119 Q102.6563,117.3438 105.1563,117.3438 Q105.8594,117.3438 106.5,117.5 Q107.1563,117.6563 107.7188,117.9531 L107.7188,120.6719 Q107.0938,120.0938 106.5,119.8281 Q105.9063,119.5469 105.2813,119.5469 Q103.9375,119.5469 103.25,120.625 Q102.5625,121.6875 102.5625,123.7813 Q102.5625,125.875 103.25,126.9531 Q103.9375,128.0156 105.2813,128.0156 Q105.9063,128.0156 106.5,127.75 Q107.0938,127.4688 107.7188,126.8906 L107.7188,129.6094 Z " fill="#000000"/><text fill="#000000" font-family="sans-serif" font-size="14" lengthAdjust="spacing" textLength="139" x="125.25" y="122.9951">ParallelSimplifiedLOF</text><text fill="#000000" font-family="sans-serif" font-size="10" lengthAdjust="spacing" textLength="100" x="144.75" y="135.5791">elki.outlier.lof.parallel</text><rect fill="#FFFFFF" height="15.9688" style="stroke:#181818;stroke-width:1.0;stroke-dasharray:2.0,2.0;" width="10" x="353" y="102"/><text fill="#000000" font-family="sans-serif" font-size="12" font-style="italic" lengthAdjust="spacing" textLength="8" x="354" y="114.1387">O</text><line style="stroke:#181818;stroke-width:0.5;" x1="10" x2="359" y1="142.9375" y2="142.9375"/><polygon fill="none" points="20,151.5859,24,155.5859,20,159.5859,16,155.5859" style="stroke:#B38D22;stroke-width:1.0;"/><text fill="#000000" font-family="sans-serif" font-size="14" lengthAdjust="spacing" textLength="219" x="29" y="159.9326">distance: Distance&lt;? super O&gt;</text><polygon fill="none" points="20,167.8828,24,171.8828,20,175.8828,16,171.8828" style="stroke:#B38D22;stroke-width:1.0;"/><text fill="#000000" font-family="sans-serif" font-size="14" lengthAdjust="spacing" textLength="63" x="29" y="176.2295">kplus: int</text><line style="stroke:#181818;stroke-width:0.5;" x1="10" x2="359" y1="183.5313" y2="183.5313"/><ellipse cx="20" cy="197.1797" fill="#84BE84" rx="3" ry="3" style="stroke:#038048;stroke-width:1.0;"/><text fill="#000000" font-family="sans-serif" font-size="14" lengthAdjust="spacing" textLength="325" x="29" y="200.5264">ParallelSimplifiedLOF(Distance&lt;? super O&gt;, int)</text><ellipse cx="20" cy="213.4766" fill="#84BE84" rx="3" ry="3" style="stroke:#038048;stroke-width:1.0;"/><text fill="#000000" font-family="sans-serif" font-size="14" lengthAdjust="spacing" textLength="306" x="29" y="216.8232">getInputTypeRestriction(): TypeInformation[]</text><ellipse cx="20" cy="229.7734" fill="#84BE84" rx="3" ry="3" style="stroke:#038048;stroke-width:1.0;"/><text fill="#000000" font-family="sans-serif" font-size="14" lengthAdjust="spacing" textLength="222" x="29" y="233.1201">run(Relation&lt;O&gt;): OutlierResult</text></g></a><!--MD5=[81019799438b1b9471ca37184b444d57]
class elki.outlier.OutlierAlgorithm--><a href="../../OutlierAlgorithm.html" target="_top" title="../../OutlierAlgorithm.html" xlink:actuate="onRequest" xlink:href="../../OutlierAlgorithm.html" xlink:show="new" xlink:title="../../OutlierAlgorithm.html" xlink:type="simple"><g id="elem_elki.outlier.OutlierAlgorithm"><rect codeLine="14" fill="#F1F1F1" height="37.9375" id="elki.outlier.OutlierAlgorithm" rx="2.5" ry="2.5" style="stroke:#181818;stroke-width:0.5;" width="148" x="110.5" y="7"/><ellipse cx="125.5" cy="25.9688" fill="#B4A7E5" rx="11" ry="11" style="stroke:#181818;stroke-width:1.0;"/><path d="M121.4219,21.7344 L121.4219,19.5781 L128.8125,19.5781 L128.8125,21.7344 L126.3438,21.7344 L126.3438,29.8125 L128.8125,29.8125 L128.8125,31.9688 L121.4219,31.9688 L121.4219,29.8125 L123.8906,29.8125 L123.8906,21.7344 L121.4219,21.7344 Z " fill="#000000"/><text fill="#000000" font-family="sans-serif" font-size="14" font-style="italic" lengthAdjust="spacing" textLength="116" x="139.5" y="24.9951">OutlierAlgorithm</text><text fill="#000000" font-family="sans-serif" font-size="10" font-style="italic" lengthAdjust="spacing" textLength="53" x="171" y="37.5791">elki.outlier</text></g></a><!--MD5=[e37e075e8f8b74c1f54416e70ad63043]
reverse link elki.outlier.OutlierAlgorithm to elki.outlier.lof.parallel.ParallelSimplifiedLOF--><g id="link_elki.outlier.OutlierAlgorithm_elki.outlier.lof.parallel.ParallelSimplifiedLOF"><path codeLine="17" d="M184.5,65.22 C184.5,77.35 184.5,91.15 184.5,104.69 " fill="none" id="elki.outlier.OutlierAlgorithm-backto-elki.outlier.lof.parallel.ParallelSimplifiedLOF" style="stroke:#181818;stroke-width:1.0;stroke-dasharray:7.0,7.0;"/><polygon fill="none" points="177.5,65.01,184.5,45.01,191.5,65.01,177.5,65.01" style="stroke:#181818;stroke-width:1.0;"/></g><rect fill="none" height="11.6406" style="stroke:none;stroke-width:1.0;" width="186" x="85.5" y="246.4219"/><text fill="#888888" font-family="sans-serif" font-size="10" lengthAdjust="spacing" textLength="186" x="85.5" y="255.7041">UMLDoclet 2.0.19, PlantUML 1.2022.8</text><!--MD5=[e0225730d09ed77199e26f4b467fa8d3]
@startuml
    remove .*\.(Instance|Par|Parameterizer|Factory)$
    set namespaceSeparator none
    hide empty fields
    hide empty methods

    class "<size:14>ParallelSimplifiedLOF\n<size:10>elki.outlier.lof.parallel" as elki.outlier.lof.parallel.ParallelSimplifiedLOF<O> [[ParallelSimplifiedLOF.html]] {
        #distance: Distance<? super O>
        #kplus: int
        +ParallelSimplifiedLOF(Distance<? super O>, int)
        +getInputTypeRestriction(): TypeInformation[]
        +run(Relation<O>): OutlierResult
    }

    interface "<size:14>OutlierAlgorithm\n<size:10>elki.outlier" as elki.outlier.OutlierAlgorithm [[../../OutlierAlgorithm.html]]
    class "<size:14>ParallelSimplifiedLOF.Par\n<size:10>elki.outlier.lof.parallel" as elki.outlier.lof.parallel.ParallelSimplifiedLOF.Par<O>

    elki.outlier.OutlierAlgorithm <|.. elki.outlier.lof.parallel.ParallelSimplifiedLOF
    elki.outlier.lof.parallel.ParallelSimplifiedLOF +- - elki.outlier.lof.parallel.ParallelSimplifiedLOF.Par

    center footer UMLDoclet 2.0.19, PlantUML 1.2022.8
@enduml

PlantUML version 1.2022.8(Sun Sep 25 11:00:33 CEST 2022)
(APACHE source distribution)
Java Runtime: OpenJDK Runtime Environment
JVM: OpenJDK 64-Bit Server VM
Default Encoding: UTF-8
Language: de
Country: DE
--></g></svg>