<?xml version="1.0" encoding="UTF-8" standalone="no"?>
<!DOCTYPE svg PUBLIC "-//W3C//DTD SVG 1.1//EN"
 "http://www.w3.org/Graphics/SVG/1.1/DTD/svg11.dtd">
<!-- Generated by graphviz version 2.40.1 (20161225.0304)
 -->
<!-- Title: G Pages: 1 -->
<svg width="337pt" height="36pt"
 viewBox="0.00 0.00 337.00 36.00" xmlns="http://www.w3.org/2000/svg" xmlns:xlink="http://www.w3.org/1999/xlink">
<g id="graph0" class="graph" transform="scale(1 1) rotate(0) translate(4 32)">
<title>G</title>
<polygon fill="#ffffff" stroke="transparent" points="-4,4 -4,-32 333,-32 333,4 -4,4"/>
<!-- c10452650 -->
<g id="node1" class="node">
<title>c10452650</title>
<g id="a_node1"><a xlink:href="UncenteredCorrelationDistanceFunction.html" xlink:title="&lt;TABLE&gt;">
<g id="a_node1_0"><a xlink:href="UncenteredCorrelationDistanceFunction.html" xlink:title="de.lmu.ifi.dbs.elki.distance.distancefunction.correlation.UncenteredCorrelationDistanceFunction" target="_parent">
<polygon fill="#fffacd" stroke="transparent" points="176,-5.5 176,-22.5 329,-22.5 329,-5.5 176,-5.5"/>
<polygon fill="none" stroke="#000000" points="176.5,-5 176.5,-22 329.5,-22 329.5,-5 176.5,-5"/>
<text text-anchor="start" x="180.5" y="-12.6" font-family="Roboto" font-size="8.00" fill="#000000"> </text>
<text text-anchor="start" x="183.5" y="-12.6" font-family="Roboto" font-size="8.00" fill="#000000">UncenteredCorrelationDistanceFunction</text>
<text text-anchor="start" x="322.5" y="-12.6" font-family="Roboto" font-size="8.00" fill="#000000"> </text>
</a>
</g>
</a>
</g>
</g>
<!-- c10452732 -->
<g id="node2" class="node">
<title>c10452732</title>
<g id="a_node2"><a xlink:href="../AbstractNumberVectorDistanceFunction.html" xlink:title="&lt;TABLE&gt;">
<g id="a_node2_1"><a xlink:href="../AbstractNumberVectorDistanceFunction.html" xlink:title="de.lmu.ifi.dbs.elki.distance.distancefunction.AbstractNumberVectorDistanceFunction" target="_parent">
<polygon fill="#fffacd" stroke="transparent" points="0,0 0,-28 158,-28 158,0 0,0"/>
<polygon fill="none" stroke="#000000" points="0,0 0,-28 158,-28 158,0 0,0"/>
<text text-anchor="start" x="5.5" y="-18.6" font-family="Roboto" font-size="8.00" fill="#000000"> </text>
<text text-anchor="start" x="8.5" y="-18.6" font-family="Roboto" font-style="italic" font-size="8.00" fill="#000000">AbstractNumberVectorDistanceFunction</text>
<text text-anchor="start" x="149.5" y="-18.6" font-family="Roboto" font-size="8.00" fill="#000000"> </text>
<text text-anchor="start" x="4" y="-7.6" font-family="Roboto" font-size="8.00" fill="#000000"> </text>
<text text-anchor="start" x="7" y="-7.6" font-family="Roboto" font-size="7.00" fill="#000000">de.lmu.ifi.dbs.elki.distance.distancefunction</text>
<text text-anchor="start" x="151" y="-7.6" font-family="Roboto" font-size="8.00" fill="#000000"> </text>
</a>
</g>
</a>
</g>
</g>
<!-- c10452732&#45;&gt;c10452650 -->
<g id="edge1" class="edge">
<title>c10452732&#45;&gt;c10452650</title>
<path fill="none" stroke="#000000" d="M168.3908,-14C170.8868,-14 173.3799,-14 175.8618,-14"/>
<polygon fill="none" stroke="#000000" points="168.1342,-10.5001 158.1342,-14 168.1342,-17.5001 168.1342,-10.5001"/>
</g>
</g>
</svg>
