<?xml version="1.0" encoding="UTF-8" standalone="no"?><svg xmlns="http://www.w3.org/2000/svg" xmlns:xlink="http://www.w3.org/1999/xlink" contentStyleType="text/css" height="455px" preserveAspectRatio="none" style="width:438px;height:455px;background:#FFFFFF;" version="1.1" viewBox="0 0 438 455" width="438px" zoomAndPan="magnify"><defs/><g><!--MD5=[b3257e1ea96a356f55bab4799c240582]
class elki.utilities.optionhandling.parameters.FileListParameter--><a href="FileListParameter.html" target="_top" title="FileListParameter.html" xlink:actuate="onRequest" xlink:href="FileListParameter.html" xlink:show="new" xlink:title="FileListParameter.html" xlink:type="simple"><g id="elem_elki.utilities.optionhandling.parameters.FileListParameter"><rect codeLine="6" fill="#F1F1F1" height="200.6094" id="elki.utilities.optionhandling.parameters.FileListParameter" rx="2.5" ry="2.5" style="stroke:#181818;stroke-width:0.5;" width="422" x="9" y="132"/><ellipse cx="123.75" cy="150.9688" fill="#ADD1B2" rx="11" ry="11" style="stroke:#181818;stroke-width:1.0;"/><path d="M126.7188,156.6094 Q126.1406,156.9063 125.5,157.0469 Q124.8594,157.2031 124.1563,157.2031 Q121.6563,157.2031 120.3281,155.5625 Q119.0156,153.9063 119.0156,150.7813 Q119.0156,147.6563 120.3281,146 Q121.6563,144.3438 124.1563,144.3438 Q124.8594,144.3438 125.5,144.5 Q126.1563,144.6563 126.7188,144.9531 L126.7188,147.6719 Q126.0938,147.0938 125.5,146.8281 Q124.9063,146.5469 124.2813,146.5469 Q122.9375,146.5469 122.25,147.625 Q121.5625,148.6875 121.5625,150.7813 Q121.5625,152.875 122.25,153.9531 Q122.9375,155.0156 124.2813,155.0156 Q124.9063,155.0156 125.5,154.75 Q126.0938,154.4688 126.7188,153.8906 L126.7188,156.6094 Z " fill="#000000"/><text fill="#000000" font-family="sans-serif" font-size="14" lengthAdjust="spacing" textLength="117" x="177.75" y="149.9951">FileListParameter</text><text fill="#000000" font-family="sans-serif" font-size="10" lengthAdjust="spacing" textLength="184" x="144.25" y="162.5791">elki.utilities.optionhandling.parameters</text><line style="stroke:#181818;stroke-width:0.5;" x1="10" x2="430" y1="169.9375" y2="169.9375"/><rect fill="none" height="6" style="stroke:#C82930;stroke-width:1.0;" width="6" x="17" y="180.5859"/><text fill="#000000" font-family="sans-serif" font-size="14" lengthAdjust="spacing" textLength="135" x="29" y="186.9326">filesType: FilesType</text><line style="stroke:#181818;stroke-width:0.5;" x1="10" x2="430" y1="194.2344" y2="194.2344"/><ellipse cx="20" cy="207.8828" fill="#84BE84" rx="3" ry="3" style="stroke:#038048;stroke-width:1.0;"/><text fill="#000000" font-family="sans-serif" font-size="14" lengthAdjust="spacing" textLength="260" x="29" y="211.2295">FileListParameter(OptionID, FilesType)</text><ellipse cx="20" cy="224.1797" fill="#84BE84" rx="3" ry="3" style="stroke:#038048;stroke-width:1.0;"/><text fill="#000000" font-family="sans-serif" font-size="14" lengthAdjust="spacing" textLength="177" x="29" y="227.5264">getValueAsString(): String</text><ellipse cx="20" cy="240.4766" fill="#84BE84" rx="3" ry="3" style="stroke:#038048;stroke-width:1.0;"/><text fill="#000000" font-family="sans-serif" font-size="14" lengthAdjust="spacing" textLength="226" x="29" y="243.8232">getDefaultValueAsString(): String</text><polygon fill="#FFFF44" points="20,251.7734,24,255.7734,20,259.7734,16,255.7734" style="stroke:#B38D22;stroke-width:1.0;"/><text fill="#000000" font-family="sans-serif" font-size="14" lengthAdjust="spacing" textLength="211" x="29" y="260.1201">parseValue(Object): List&lt;URI&gt;</text><polygon fill="#FFFF44" points="20,268.0703,24,272.0703,20,276.0703,16,272.0703" style="stroke:#B38D22;stroke-width:1.0;"/><text fill="#000000" font-family="sans-serif" font-size="14" lengthAdjust="spacing" textLength="197" x="29" y="276.417">validate(List&lt;URI&gt;): boolean</text><ellipse cx="20" cy="289.3672" fill="#84BE84" rx="3" ry="3" style="stroke:#038048;stroke-width:1.0;"/><text fill="#000000" font-family="sans-serif" font-size="14" lengthAdjust="spacing" textLength="64" x="29" y="292.7139">size(): int</text><ellipse cx="20" cy="305.6641" fill="#84BE84" rx="3" ry="3" style="stroke:#038048;stroke-width:1.0;"/><text fill="#000000" font-family="sans-serif" font-size="14" lengthAdjust="spacing" textLength="127" x="29" y="309.0107">getSyntax(): String</text><ellipse cx="20" cy="321.9609" fill="#84BE84" rx="3" ry="3" style="stroke:#038048;stroke-width:1.0;"/><text fill="#000000" font-family="sans-serif" font-size="14" lengthAdjust="spacing" textLength="396" x="29" y="325.3076">grab(Parameterization, Consumer&lt;List&lt;URI&gt;&gt;): boolean</text></g></a><!--MD5=[7b1cc983fe9722c4795ef2a9ae114b41]
class elki.utilities.optionhandling.parameters.ListParameter--><a href="ListParameter.html" target="_top" title="ListParameter.html" xlink:actuate="onRequest" xlink:href="ListParameter.html" xlink:show="new" xlink:title="ListParameter.html" xlink:type="simple"><g id="elem_elki.utilities.optionhandling.parameters.ListParameter"><rect codeLine="18" fill="#F1F1F1" height="62.2344" id="elki.utilities.optionhandling.parameters.ListParameter" rx="2.5" ry="2.5" style="stroke:#181818;stroke-width:0.5;" width="402" x="19" y="10"/><ellipse cx="34" cy="28.9688" fill="#A9DCDF" rx="11" ry="11" style="stroke:#181818;stroke-width:1.0;"/><path d="M34.1094,24.3125 L32.9531,29.3906 L35.2813,29.3906 L34.1094,24.3125 Z M32.625,22.0781 L35.6094,22.0781 L38.9688,34.4688 L36.5156,34.4688 L35.75,31.4063 L32.4688,31.4063 L31.7188,34.4688 L29.2813,34.4688 L32.625,22.0781 Z " fill="#000000"/><text fill="#000000" font-family="sans-serif" font-size="14" font-style="italic" lengthAdjust="spacing" textLength="97" x="96.5" y="27.9951">ListParameter</text><text fill="#000000" font-family="sans-serif" font-size="10" font-style="italic" lengthAdjust="spacing" textLength="194" x="48" y="40.5791">elki.utilities.optionhandling.parameters</text><rect fill="#FFFFFF" height="15.9688" style="stroke:#181818;stroke-width:1.0;stroke-dasharray:2.0,2.0;" width="174" x="250" y="7"/><text fill="#000000" font-family="sans-serif" font-size="12" font-style="italic" lengthAdjust="spacing" textLength="172" x="251" y="19.1387">FileListParameter, List&lt;URI&gt;</text><line style="stroke:#181818;stroke-width:0.5;" x1="20" x2="420" y1="47.9375" y2="47.9375"/><ellipse cx="30" cy="61.5859" fill="#84BE84" rx="3" ry="3" style="stroke:#038048;stroke-width:1.0;"/><text fill="#000000" font-family="sans-serif" font-size="14" font-style="italic" lengthAdjust="spacing" textLength="64" x="39" y="64.9326">size(): int</text></g></a><!--MD5=[966b524547e7351937fc565c82d1c185]
class elki.utilities.optionhandling.parameters.FileListParameter.FilesType--><a href="FileListParameter.FilesType.html" target="_top" title="FileListParameter.FilesType.html" xlink:actuate="onRequest" xlink:href="FileListParameter.FilesType.html" xlink:show="new" xlink:title="FileListParameter.FilesType.html" xlink:type="simple"><g id="elem_elki.utilities.optionhandling.parameters.FileListParameter.FilesType"><rect codeLine="21" fill="#F1F1F1" height="37.9375" id="elki.utilities.optionhandling.parameters.FileListParameter.FilesType" rx="2.5" ry="2.5" style="stroke:#181818;stroke-width:0.5;" width="218" x="111" y="393"/><ellipse cx="126" cy="411.9688" fill="#EB937F" rx="11" ry="11" style="stroke:#181818;stroke-width:1.0;"/><path d="M130.1094,417.9688 L122.3906,417.9688 L122.3906,405.5781 L130.1094,405.5781 L130.1094,407.7344 L124.8438,407.7344 L124.8438,410.4063 L129.6094,410.4063 L129.6094,412.5625 L124.8438,412.5625 L124.8438,415.8125 L130.1094,415.8125 L130.1094,417.9688 Z " fill="#000000"/><text fill="#000000" font-family="sans-serif" font-size="14" lengthAdjust="spacing" textLength="186" x="140" y="410.9951">FileListParameter.FilesType</text><text fill="#000000" font-family="sans-serif" font-size="10" lengthAdjust="spacing" textLength="184" x="141" y="423.5791">elki.utilities.optionhandling.parameters</text></g></a><!--MD5=[414bfe8d5c2ddfe5501b38fda330af78]
reverse link elki.utilities.optionhandling.parameters.ListParameter to elki.utilities.optionhandling.parameters.FileListParameter--><g id="link_elki.utilities.optionhandling.parameters.ListParameter_elki.utilities.optionhandling.parameters.FileListParameter"><path codeLine="23" d="M220,92.44 C220,104.69 220,118.21 220,131.86 " fill="none" id="elki.utilities.optionhandling.parameters.ListParameter-backto-elki.utilities.optionhandling.parameters.FileListParameter" style="stroke:#181818;stroke-width:1.0;"/><polygon fill="none" points="213,92.03,220,72.03,227,92.03,213,92.03" style="stroke:#181818;stroke-width:1.0;"/></g><!--MD5=[0e535c63ce3a8c2598755c075121f275]
reverse link elki.utilities.optionhandling.parameters.FileListParameter to elki.utilities.optionhandling.parameters.FileListParameter.FilesType--><g id="link_elki.utilities.optionhandling.parameters.FileListParameter_elki.utilities.optionhandling.parameters.FileListParameter.FilesType"><path codeLine="24" d="M220,348.24 C220,365.47 220,381.27 220,392.71 " fill="none" id="elki.utilities.optionhandling.parameters.FileListParameter-backto-elki.utilities.optionhandling.parameters.FileListParameter.FilesType" style="stroke:#181818;stroke-width:1.0;"/><ellipse cx="220" cy="341.15" fill="#FFFFFF" rx="8" ry="8" style="stroke:#181818;stroke-width:1.0;"/><line style="stroke:#181818;stroke-width:1.0;" x1="220" x2="220" y1="349.15" y2="333.15"/><line style="stroke:#181818;stroke-width:1.0;" x1="212" x2="228" y1="341.15" y2="341.15"/></g><rect fill="none" height="11.6406" style="stroke:none;stroke-width:1.0;" width="186" x="119" y="435.9375"/><text fill="#888888" font-family="sans-serif" font-size="10" lengthAdjust="spacing" textLength="186" x="119" y="445.2197">UMLDoclet 2.0.19, PlantUML 1.2022.8</text><!--MD5=[e5b2650eafe2862ef10ff0558b7b16a5]
@startuml
    remove .*\.(Instance|Par|Parameterizer|Factory)$
    set namespaceSeparator none
    hide empty fields
    hide empty methods

    class "<size:14>FileListParameter\n<size:10>elki.utilities.optionhandling.parameters" as elki.utilities.optionhandling.parameters.FileListParameter [[FileListParameter.html]] {
        -filesType: FilesType
        +FileListParameter(OptionID, FilesType)
        +getValueAsString(): String
        +getDefaultValueAsString(): String
        #parseValue(Object): List<URI>
        #validate(List<URI>): boolean
        +size(): int
        +getSyntax(): String
        +grab(Parameterization, Consumer<List<URI>>): boolean
    }

    abstract class "<size:14>ListParameter\n<size:10>elki.utilities.optionhandling.parameters" as elki.utilities.optionhandling.parameters.ListParameter<FileListParameter, List<URI>> [[ListParameter.html]] {
        {abstract} +size(): int
    }
    enum "<size:14>FileListParameter.FilesType\n<size:10>elki.utilities.optionhandling.parameters" as elki.utilities.optionhandling.parameters.FileListParameter.FilesType [[FileListParameter.FilesType.html]]

    elki.utilities.optionhandling.parameters.ListParameter <|- - elki.utilities.optionhandling.parameters.FileListParameter
    elki.utilities.optionhandling.parameters.FileListParameter +- - elki.utilities.optionhandling.parameters.FileListParameter.FilesType

    center footer UMLDoclet 2.0.19, PlantUML 1.2022.8
@enduml

PlantUML version 1.2022.8(Sun Sep 25 11:00:33 CEST 2022)
(APACHE source distribution)
Java Runtime: OpenJDK Runtime Environment
JVM: OpenJDK 64-Bit Server VM
Default Encoding: UTF-8
Language: de
Country: DE
--></g></svg>