<?xml version="1.0" encoding="UTF-8" standalone="no"?><svg xmlns="http://www.w3.org/2000/svg" xmlns:xlink="http://www.w3.org/1999/xlink" contentStyleType="text/css" height="301px" preserveAspectRatio="none" style="width:469px;height:301px;background:#FFFFFF;" version="1.1" viewBox="0 0 469 301" width="469px" zoomAndPan="magnify"><defs/><g><!--MD5=[4e054cb62f83af71652e96fa66013e74]
class elki.utilities.optionhandling.parameters.IntGeneratorParameter--><a href="IntGeneratorParameter.html" target="_top" title="IntGeneratorParameter.html" xlink:actuate="onRequest" xlink:href="IntGeneratorParameter.html" xlink:show="new" xlink:title="IntGeneratorParameter.html" xlink:type="simple"><g id="elem_elki.utilities.optionhandling.parameters.IntGeneratorParameter"><rect codeLine="6" fill="#F1F1F1" height="143.7188" id="elki.utilities.optionhandling.parameters.IntGeneratorParameter" rx="2.5" ry="2.5" style="stroke:#181818;stroke-width:0.5;" width="439" x="14" y="132"/><ellipse cx="137.25" cy="150.9688" fill="#ADD1B2" rx="11" ry="11" style="stroke:#181818;stroke-width:1.0;"/><path d="M140.2188,156.6094 Q139.6406,156.9063 139,157.0469 Q138.3594,157.2031 137.6563,157.2031 Q135.1563,157.2031 133.8281,155.5625 Q132.5156,153.9063 132.5156,150.7813 Q132.5156,147.6563 133.8281,146 Q135.1563,144.3438 137.6563,144.3438 Q138.3594,144.3438 139,144.5 Q139.6563,144.6563 140.2188,144.9531 L140.2188,147.6719 Q139.5938,147.0938 139,146.8281 Q138.4063,146.5469 137.7813,146.5469 Q136.4375,146.5469 135.75,147.625 Q135.0625,148.6875 135.0625,150.7813 Q135.0625,152.875 135.75,153.9531 Q136.4375,155.0156 137.7813,155.0156 Q138.4063,155.0156 139,154.75 Q139.5938,154.4688 140.2188,153.8906 L140.2188,156.6094 Z " fill="#000000"/><text fill="#000000" font-family="sans-serif" font-size="14" lengthAdjust="spacing" textLength="158" x="170.75" y="149.9951">IntGeneratorParameter</text><text fill="#000000" font-family="sans-serif" font-size="10" lengthAdjust="spacing" textLength="184" x="157.75" y="162.5791">elki.utilities.optionhandling.parameters</text><line style="stroke:#181818;stroke-width:0.5;" x1="15" x2="452" y1="169.9375" y2="169.9375"/><ellipse cx="25" cy="183.5859" fill="#84BE84" rx="3" ry="3" style="stroke:#038048;stroke-width:1.0;"/><text fill="#000000" font-family="sans-serif" font-size="14" lengthAdjust="spacing" textLength="228" x="34" y="186.9326">IntGeneratorParameter(OptionID)</text><ellipse cx="25" cy="199.8828" fill="#84BE84" rx="3" ry="3" style="stroke:#038048;stroke-width:1.0;"/><text fill="#000000" font-family="sans-serif" font-size="14" lengthAdjust="spacing" textLength="177" x="34" y="203.2295">getValueAsString(): String</text><ellipse cx="25" cy="216.1797" fill="#84BE84" rx="3" ry="3" style="stroke:#038048;stroke-width:1.0;"/><text fill="#000000" font-family="sans-serif" font-size="14" lengthAdjust="spacing" textLength="226" x="34" y="219.5264">getDefaultValueAsString(): String</text><polygon fill="#FFFF44" points="25,227.4766,29,231.4766,25,235.4766,21,231.4766" style="stroke:#B38D22;stroke-width:1.0;"/><text fill="#000000" font-family="sans-serif" font-size="14" lengthAdjust="spacing" textLength="228" x="34" y="235.8232">parseValue(Object): IntGenerator</text><ellipse cx="25" cy="248.7734" fill="#84BE84" rx="3" ry="3" style="stroke:#038048;stroke-width:1.0;"/><text fill="#000000" font-family="sans-serif" font-size="14" lengthAdjust="spacing" textLength="127" x="34" y="252.1201">getSyntax(): String</text><ellipse cx="25" cy="265.0703" fill="#84BE84" rx="3" ry="3" style="stroke:#038048;stroke-width:1.0;"/><text fill="#000000" font-family="sans-serif" font-size="14" lengthAdjust="spacing" textLength="413" x="34" y="268.417">grab(Parameterization, Consumer&lt;IntGenerator&gt;): boolean</text></g></a><!--MD5=[26c7e6bda096848dd2f26b69c1a28602]
class elki.utilities.optionhandling.parameters.AbstractParameter--><a href="AbstractParameter.html" target="_top" title="AbstractParameter.html" xlink:actuate="onRequest" xlink:href="AbstractParameter.html" xlink:show="new" xlink:title="AbstractParameter.html" xlink:type="simple"><g id="elem_elki.utilities.optionhandling.parameters.AbstractParameter"><rect codeLine="15" fill="#F1F1F1" height="62.2344" id="elki.utilities.optionhandling.parameters.AbstractParameter" rx="2.5" ry="2.5" style="stroke:#181818;stroke-width:0.5;" width="449" x="9" y="10"/><ellipse cx="24" cy="28.9688" fill="#A9DCDF" rx="11" ry="11" style="stroke:#181818;stroke-width:1.0;"/><path d="M24.1094,24.3125 L22.9531,29.3906 L25.2813,29.3906 L24.1094,24.3125 Z M22.625,22.0781 L25.6094,22.0781 L28.9688,34.4688 L26.5156,34.4688 L25.75,31.4063 L22.4688,31.4063 L21.7188,34.4688 L19.2813,34.4688 L22.625,22.0781 Z " fill="#000000"/><text fill="#000000" font-family="sans-serif" font-size="14" font-style="italic" lengthAdjust="spacing" textLength="131" x="69.5" y="27.9951">AbstractParameter</text><text fill="#000000" font-family="sans-serif" font-size="10" font-style="italic" lengthAdjust="spacing" textLength="194" x="38" y="40.5791">elki.utilities.optionhandling.parameters</text><rect fill="#FFFFFF" height="15.9688" style="stroke:#181818;stroke-width:1.0;stroke-dasharray:2.0,2.0;" width="221" x="240" y="7"/><text fill="#000000" font-family="sans-serif" font-size="12" font-style="italic" lengthAdjust="spacing" textLength="219" x="241" y="19.1387">IntGeneratorParameter, IntGenerator</text><line style="stroke:#181818;stroke-width:0.5;" x1="10" x2="457" y1="47.9375" y2="47.9375"/><polygon fill="#FFFF44" points="20,56.5859,24,60.5859,20,64.5859,16,60.5859" style="stroke:#B38D22;stroke-width:1.0;"/><text fill="#000000" font-family="sans-serif" font-size="14" font-style="italic" lengthAdjust="spacing" textLength="234" x="29" y="64.9326">parseValue(Object): IntGenerator</text></g></a><!--MD5=[8bc80e6b67087a2511ccff7697d6cbe4]
reverse link elki.utilities.optionhandling.parameters.AbstractParameter to elki.utilities.optionhandling.parameters.IntGeneratorParameter--><g id="link_elki.utilities.optionhandling.parameters.AbstractParameter_elki.utilities.optionhandling.parameters.IntGeneratorParameter"><path codeLine="19" d="M233.5,92.54 C233.5,104.99 233.5,118.55 233.5,131.77 " fill="none" id="elki.utilities.optionhandling.parameters.AbstractParameter-backto-elki.utilities.optionhandling.parameters.IntGeneratorParameter" style="stroke:#181818;stroke-width:1.0;"/><polygon fill="none" points="226.5,92.28,233.5,72.28,240.5,92.28,226.5,92.28" style="stroke:#181818;stroke-width:1.0;"/></g><rect fill="none" height="11.6406" style="stroke:none;stroke-width:1.0;" width="186" x="134.5" y="281.7188"/><text fill="#888888" font-family="sans-serif" font-size="10" lengthAdjust="spacing" textLength="186" x="134.5" y="291.001">UMLDoclet 2.0.19, PlantUML 1.2022.8</text><!--MD5=[401f3b33629534492f0d5b6619dc531d]
@startuml
    remove .*\.(Instance|Par|Parameterizer|Factory)$
    set namespaceSeparator none
    hide empty fields
    hide empty methods

    class "<size:14>IntGeneratorParameter\n<size:10>elki.utilities.optionhandling.parameters" as elki.utilities.optionhandling.parameters.IntGeneratorParameter [[IntGeneratorParameter.html]] {
        +IntGeneratorParameter(OptionID)
        +getValueAsString(): String
        +getDefaultValueAsString(): String
        #parseValue(Object): IntGenerator
        +getSyntax(): String
        +grab(Parameterization, Consumer<IntGenerator>): boolean
    }

    abstract class "<size:14>AbstractParameter\n<size:10>elki.utilities.optionhandling.parameters" as elki.utilities.optionhandling.parameters.AbstractParameter<IntGeneratorParameter, IntGenerator> [[AbstractParameter.html]] {
        {abstract} #parseValue(Object): IntGenerator
    }

    elki.utilities.optionhandling.parameters.AbstractParameter <|- - elki.utilities.optionhandling.parameters.IntGeneratorParameter

    center footer UMLDoclet 2.0.19, PlantUML 1.2022.8
@enduml

PlantUML version 1.2022.8(Sun Sep 25 11:00:33 CEST 2022)
(APACHE source distribution)
Java Runtime: OpenJDK Runtime Environment
JVM: OpenJDK 64-Bit Server VM
Default Encoding: UTF-8
Language: de
Country: DE
--></g></svg>