<?xml version="1.0" encoding="UTF-8" standalone="no"?><svg xmlns="http://www.w3.org/2000/svg" xmlns:xlink="http://www.w3.org/1999/xlink" contentStyleType="text/css" height="317px" preserveAspectRatio="none" style="width:395px;height:317px;background:#FFFFFF;" version="1.1" viewBox="0 0 395 317" width="395px" zoomAndPan="magnify"><defs/><g><!--MD5=[2344bf2b7790480c27dca1597980b19b]
class elki.utilities.optionhandling.parameters.IntListParameter--><a href="IntListParameter.html" target="_top" title="IntListParameter.html" xlink:actuate="onRequest" xlink:href="IntListParameter.html" xlink:show="new" xlink:title="IntListParameter.html" xlink:type="simple"><g id="elem_elki.utilities.optionhandling.parameters.IntListParameter"><rect codeLine="6" fill="#F1F1F1" height="160.0156" id="elki.utilities.optionhandling.parameters.IntListParameter" rx="2.5" ry="2.5" style="stroke:#181818;stroke-width:0.5;" width="379" x="9" y="132"/><ellipse cx="102.25" cy="150.9688" fill="#ADD1B2" rx="11" ry="11" style="stroke:#181818;stroke-width:1.0;"/><path d="M105.2188,156.6094 Q104.6406,156.9063 104,157.0469 Q103.3594,157.2031 102.6563,157.2031 Q100.1563,157.2031 98.8281,155.5625 Q97.5156,153.9063 97.5156,150.7813 Q97.5156,147.6563 98.8281,146 Q100.1563,144.3438 102.6563,144.3438 Q103.3594,144.3438 104,144.5 Q104.6563,144.6563 105.2188,144.9531 L105.2188,147.6719 Q104.5938,147.0938 104,146.8281 Q103.4063,146.5469 102.7813,146.5469 Q101.4375,146.5469 100.75,147.625 Q100.0625,148.6875 100.0625,150.7813 Q100.0625,152.875 100.75,153.9531 Q101.4375,155.0156 102.7813,155.0156 Q103.4063,155.0156 104,154.75 Q104.5938,154.4688 105.2188,153.8906 L105.2188,156.6094 Z " fill="#000000"/><text fill="#000000" font-family="sans-serif" font-size="14" lengthAdjust="spacing" textLength="111" x="159.25" y="149.9951">IntListParameter</text><text fill="#000000" font-family="sans-serif" font-size="10" lengthAdjust="spacing" textLength="184" x="122.75" y="162.5791">elki.utilities.optionhandling.parameters</text><line style="stroke:#181818;stroke-width:0.5;" x1="10" x2="387" y1="169.9375" y2="169.9375"/><ellipse cx="20" cy="183.5859" fill="#84BE84" rx="3" ry="3" style="stroke:#038048;stroke-width:1.0;"/><text fill="#000000" font-family="sans-serif" font-size="14" lengthAdjust="spacing" textLength="181" x="29" y="186.9326">IntListParameter(OptionID)</text><ellipse cx="20" cy="199.8828" fill="#84BE84" rx="3" ry="3" style="stroke:#038048;stroke-width:1.0;"/><text fill="#000000" font-family="sans-serif" font-size="14" lengthAdjust="spacing" textLength="177" x="29" y="203.2295">getValueAsString(): String</text><ellipse cx="20" cy="216.1797" fill="#84BE84" rx="3" ry="3" style="stroke:#038048;stroke-width:1.0;"/><text fill="#000000" font-family="sans-serif" font-size="14" lengthAdjust="spacing" textLength="226" x="29" y="219.5264">getDefaultValueAsString(): String</text><polygon fill="#FFFF44" points="20,227.4766,24,231.4766,20,235.4766,16,231.4766" style="stroke:#B38D22;stroke-width:1.0;"/><text fill="#000000" font-family="sans-serif" font-size="14" lengthAdjust="spacing" textLength="168" x="29" y="235.8232">parseValue(Object): int[]</text><ellipse cx="20" cy="248.7734" fill="#84BE84" rx="3" ry="3" style="stroke:#038048;stroke-width:1.0;"/><text fill="#000000" font-family="sans-serif" font-size="14" lengthAdjust="spacing" textLength="64" x="29" y="252.1201">size(): int</text><ellipse cx="20" cy="265.0703" fill="#84BE84" rx="3" ry="3" style="stroke:#038048;stroke-width:1.0;"/><text fill="#000000" font-family="sans-serif" font-size="14" lengthAdjust="spacing" textLength="127" x="29" y="268.417">getSyntax(): String</text><ellipse cx="20" cy="281.3672" fill="#84BE84" rx="3" ry="3" style="stroke:#038048;stroke-width:1.0;"/><text fill="#000000" font-family="sans-serif" font-size="14" lengthAdjust="spacing" textLength="353" x="29" y="284.7139">grab(Parameterization, Consumer&lt;int[]&gt;): boolean</text></g></a><!--MD5=[7b1cc983fe9722c4795ef2a9ae114b41]
class elki.utilities.optionhandling.parameters.ListParameter--><a href="ListParameter.html" target="_top" title="ListParameter.html" xlink:actuate="onRequest" xlink:href="ListParameter.html" xlink:show="new" xlink:title="ListParameter.html" xlink:type="simple"><g id="elem_elki.utilities.optionhandling.parameters.ListParameter"><rect codeLine="16" fill="#F1F1F1" height="62.2344" id="elki.utilities.optionhandling.parameters.ListParameter" rx="2.5" ry="2.5" style="stroke:#181818;stroke-width:0.5;" width="361" x="18" y="10"/><ellipse cx="33" cy="28.9688" fill="#A9DCDF" rx="11" ry="11" style="stroke:#181818;stroke-width:1.0;"/><path d="M33.1094,24.3125 L31.9531,29.3906 L34.2813,29.3906 L33.1094,24.3125 Z M31.625,22.0781 L34.6094,22.0781 L37.9688,34.4688 L35.5156,34.4688 L34.75,31.4063 L31.4688,31.4063 L30.7188,34.4688 L28.2813,34.4688 L31.625,22.0781 Z " fill="#000000"/><text fill="#000000" font-family="sans-serif" font-size="14" font-style="italic" lengthAdjust="spacing" textLength="97" x="95.5" y="27.9951">ListParameter</text><text fill="#000000" font-family="sans-serif" font-size="10" font-style="italic" lengthAdjust="spacing" textLength="194" x="47" y="40.5791">elki.utilities.optionhandling.parameters</text><rect fill="#FFFFFF" height="15.9688" style="stroke:#181818;stroke-width:1.0;stroke-dasharray:2.0,2.0;" width="133" x="249" y="7"/><text fill="#000000" font-family="sans-serif" font-size="12" font-style="italic" lengthAdjust="spacing" textLength="131" x="250" y="19.1387">IntListParameter, int[]</text><line style="stroke:#181818;stroke-width:0.5;" x1="19" x2="378" y1="47.9375" y2="47.9375"/><ellipse cx="29" cy="61.5859" fill="#84BE84" rx="3" ry="3" style="stroke:#038048;stroke-width:1.0;"/><text fill="#000000" font-family="sans-serif" font-size="14" font-style="italic" lengthAdjust="spacing" textLength="64" x="38" y="64.9326">size(): int</text></g></a><!--MD5=[8027e5722de2aa140f753fd008c07c2a]
reverse link elki.utilities.optionhandling.parameters.ListParameter to elki.utilities.optionhandling.parameters.IntListParameter--><g id="link_elki.utilities.optionhandling.parameters.ListParameter_elki.utilities.optionhandling.parameters.IntListParameter"><path codeLine="20" d="M198.5,92.34 C198.5,104.74 198.5,118.32 198.5,131.73 " fill="none" id="elki.utilities.optionhandling.parameters.ListParameter-backto-elki.utilities.optionhandling.parameters.IntListParameter" style="stroke:#181818;stroke-width:1.0;"/><polygon fill="none" points="191.5,92.21,198.5,72.21,205.5,92.21,191.5,92.21" style="stroke:#181818;stroke-width:1.0;"/></g><rect fill="none" height="11.6406" style="stroke:none;stroke-width:1.0;" width="186" x="97.5" y="298.0156"/><text fill="#888888" font-family="sans-serif" font-size="10" lengthAdjust="spacing" textLength="186" x="97.5" y="307.2979">UMLDoclet 2.0.19, PlantUML 1.2022.8</text><!--MD5=[39eaf72bc3b88082c7718bb0924dc480]
@startuml
    remove .*\.(Instance|Par|Parameterizer|Factory)$
    set namespaceSeparator none
    hide empty fields
    hide empty methods

    class "<size:14>IntListParameter\n<size:10>elki.utilities.optionhandling.parameters" as elki.utilities.optionhandling.parameters.IntListParameter [[IntListParameter.html]] {
        +IntListParameter(OptionID)
        +getValueAsString(): String
        +getDefaultValueAsString(): String
        #parseValue(Object): int[]
        +size(): int
        +getSyntax(): String
        +grab(Parameterization, Consumer<int[]>): boolean
    }

    abstract class "<size:14>ListParameter\n<size:10>elki.utilities.optionhandling.parameters" as elki.utilities.optionhandling.parameters.ListParameter<IntListParameter, int[]> [[ListParameter.html]] {
        {abstract} +size(): int
    }

    elki.utilities.optionhandling.parameters.ListParameter <|- - elki.utilities.optionhandling.parameters.IntListParameter

    center footer UMLDoclet 2.0.19, PlantUML 1.2022.8
@enduml

PlantUML version 1.2022.8(Sun Sep 25 11:00:33 CEST 2022)
(APACHE source distribution)
Java Runtime: OpenJDK Runtime Environment
JVM: OpenJDK 64-Bit Server VM
Default Encoding: UTF-8
Language: de
Country: DE
--></g></svg>