<?xml version="1.0" encoding="UTF-8" standalone="no"?><svg xmlns="http://www.w3.org/2000/svg" xmlns:xlink="http://www.w3.org/1999/xlink" contentStyleType="text/css" height="233px" preserveAspectRatio="none" style="width:374px;height:233px;background:#FFFFFF;" version="1.1" viewBox="0 0 374 233" width="374px" zoomAndPan="magnify"><defs/><g><!--MD5=[24acfeb43cf8b2e967c69421a202528e]
class elki.distance.correlation.SquaredUncenteredCorrelationDistance--><a href="SquaredUncenteredCorrelationDistance.html" target="_top" title="SquaredUncenteredCorrelationDistance.html" xlink:actuate="onRequest" xlink:href="SquaredUncenteredCorrelationDistance.html" xlink:show="new" xlink:title="SquaredUncenteredCorrelationDistance.html" xlink:type="simple"><g id="elem_elki.distance.correlation.SquaredUncenteredCorrelationDistance"><rect codeLine="6" fill="#F1F1F1" height="102.8281" id="elki.distance.correlation.SquaredUncenteredCorrelationDistance" rx="2.5" ry="2.5" style="stroke:#181818;stroke-width:0.5;" width="360" x="7" y="105"/><ellipse cx="45.4" cy="123.9688" fill="#ADD1B2" rx="11" ry="11" style="stroke:#181818;stroke-width:1.0;"/><path d="M48.3688,129.6094 Q47.7906,129.9063 47.15,130.0469 Q46.5094,130.2031 45.8063,130.2031 Q43.3063,130.2031 41.9781,128.5625 Q40.6656,126.9063 40.6656,123.7813 Q40.6656,120.6563 41.9781,119 Q43.3063,117.3438 45.8063,117.3438 Q46.5094,117.3438 47.15,117.5 Q47.8063,117.6563 48.3688,117.9531 L48.3688,120.6719 Q47.7438,120.0938 47.15,119.8281 Q46.5563,119.5469 45.9313,119.5469 Q44.5875,119.5469 43.9,120.625 Q43.2125,121.6875 43.2125,123.7813 Q43.2125,125.875 43.9,126.9531 Q44.5875,128.0156 45.9313,128.0156 Q46.5563,128.0156 47.15,127.75 Q47.7438,127.4688 48.3688,126.8906 L48.3688,129.6094 Z " fill="#000000"/><text fill="#000000" font-family="sans-serif" font-size="14" lengthAdjust="spacing" textLength="276" x="64.6" y="122.9951">SquaredUncenteredCorrelationDistance</text><text fill="#000000" font-family="sans-serif" font-size="10" lengthAdjust="spacing" textLength="112" x="146.6" y="135.5791">elki.distance.correlation</text><line style="stroke:#181818;stroke-width:0.5;" x1="8" x2="366" y1="142.9375" y2="142.9375"/><ellipse cx="18" cy="156.5859" fill="none" rx="3" ry="3" style="stroke:#038048;stroke-width:1.0;"/><text fill="#000000" font-family="sans-serif" font-size="14" lengthAdjust="spacing" text-decoration="underline" textLength="334" x="27" y="159.9326">STATIC: SquaredUncenteredCorrelationDistance</text><line style="stroke:#181818;stroke-width:0.5;" x1="8" x2="366" y1="167.2344" y2="167.2344"/><ellipse cx="18" cy="180.8828" fill="#84BE84" rx="3" ry="3" style="stroke:#038048;stroke-width:1.0;"/><text fill="#000000" font-family="sans-serif" font-size="14" lengthAdjust="spacing" textLength="334" x="27" y="184.2295">distance(NumberVector, NumberVector): double</text><ellipse cx="18" cy="197.1797" fill="#84BE84" rx="3" ry="3" style="stroke:#038048;stroke-width:1.0;"/><text fill="#000000" font-family="sans-serif" font-size="14" lengthAdjust="spacing" textLength="144" x="27" y="200.5264">isSquared(): boolean</text></g></a><!--MD5=[b1a010d4da3e8e2631d5f818e480f936]
class elki.distance.AbstractNumberVectorDistance--><a href="../AbstractNumberVectorDistance.html" target="_top" title="../AbstractNumberVectorDistance.html" xlink:actuate="onRequest" xlink:href="../AbstractNumberVectorDistance.html" xlink:show="new" xlink:title="../AbstractNumberVectorDistance.html" xlink:type="simple"><g id="elem_elki.distance.AbstractNumberVectorDistance"><rect codeLine="12" fill="#F1F1F1" height="37.9375" id="elki.distance.AbstractNumberVectorDistance" rx="2.5" ry="2.5" style="stroke:#181818;stroke-width:0.5;" width="255" x="59.5" y="7"/><ellipse cx="74.5" cy="25.9688" fill="#A9DCDF" rx="11" ry="11" style="stroke:#181818;stroke-width:1.0;"/><path d="M74.6094,21.3125 L73.4531,26.3906 L75.7813,26.3906 L74.6094,21.3125 Z M73.125,19.0781 L76.1094,19.0781 L79.4688,31.4688 L77.0156,31.4688 L76.25,28.4063 L72.9688,28.4063 L72.2188,31.4688 L69.7813,31.4688 L73.125,19.0781 Z " fill="#000000"/><text fill="#000000" font-family="sans-serif" font-size="14" font-style="italic" lengthAdjust="spacing" textLength="223" x="88.5" y="24.9951">AbstractNumberVectorDistance</text><text fill="#000000" font-family="sans-serif" font-size="10" font-style="italic" lengthAdjust="spacing" textLength="63" x="168.5" y="37.5791">elki.distance</text></g></a><!--MD5=[1201903f94beebd33e365f6c1efe04f7]
reverse link elki.distance.AbstractNumberVectorDistance to elki.distance.correlation.SquaredUncenteredCorrelationDistance--><g id="link_elki.distance.AbstractNumberVectorDistance_elki.distance.correlation.SquaredUncenteredCorrelationDistance"><path codeLine="15" d="M187,65.26 C187,77.65 187,91.59 187,104.74 " fill="none" id="elki.distance.AbstractNumberVectorDistance-backto-elki.distance.correlation.SquaredUncenteredCorrelationDistance" style="stroke:#181818;stroke-width:1.0;"/><polygon fill="none" points="180,65.14,187,45.14,194,65.14,180,65.14" style="stroke:#181818;stroke-width:1.0;"/></g><rect fill="none" height="11.6406" style="stroke:none;stroke-width:1.0;" width="186" x="87" y="213.8281"/><text fill="#888888" font-family="sans-serif" font-size="10" lengthAdjust="spacing" textLength="186" x="87" y="223.1104">UMLDoclet 2.0.19, PlantUML 1.2022.8</text><!--MD5=[04a88e8fa52075ad0776960a3124e86c]
@startuml
    remove .*\.(Instance|Par|Parameterizer|Factory)$
    set namespaceSeparator none
    hide empty fields
    hide empty methods

    class "<size:14>SquaredUncenteredCorrelationDistance\n<size:10>elki.distance.correlation" as elki.distance.correlation.SquaredUncenteredCorrelationDistance [[SquaredUncenteredCorrelationDistance.html]] {
        {static} +STATIC: SquaredUncenteredCorrelationDistance
        +distance(NumberVector, NumberVector): double
        +isSquared(): boolean
    }

    abstract class "<size:14>AbstractNumberVectorDistance\n<size:10>elki.distance" as elki.distance.AbstractNumberVectorDistance [[../AbstractNumberVectorDistance.html]]
    class "<size:14>SquaredUncenteredCorrelationDistance.Par\n<size:10>elki.distance.correlation" as elki.distance.correlation.SquaredUncenteredCorrelationDistance.Par [[SquaredUncenteredCorrelationDistance.Par.html]]

    elki.distance.AbstractNumberVectorDistance <|- - elki.distance.correlation.SquaredUncenteredCorrelationDistance
    elki.distance.correlation.SquaredUncenteredCorrelationDistance +- - elki.distance.correlation.SquaredUncenteredCorrelationDistance.Par

    center footer UMLDoclet 2.0.19, PlantUML 1.2022.8
@enduml

PlantUML version 1.2022.8(Sun Sep 25 11:00:33 CEST 2022)
(APACHE source distribution)
Java Runtime: OpenJDK Runtime Environment
JVM: OpenJDK 64-Bit Server VM
Default Encoding: UTF-8
Language: de
Country: DE
--></g></svg>