<?xml version="1.0" encoding="UTF-8" standalone="no"?>
<!DOCTYPE svg PUBLIC "-//W3C//DTD SVG 1.1//EN"
 "http://www.w3.org/Graphics/SVG/1.1/DTD/svg11.dtd">
<!-- Generated by graphviz version 2.40.1 (20161225.0304)
 -->
<!-- Title: G Pages: 1 -->
<svg width="290pt" height="36pt"
 viewBox="0.00 0.00 290.00 36.00" xmlns="http://www.w3.org/2000/svg" xmlns:xlink="http://www.w3.org/1999/xlink">
<g id="graph0" class="graph" transform="scale(1 1) rotate(0) translate(4 32)">
<title>G</title>
<polygon fill="#ffffff" stroke="transparent" points="-4,4 -4,-32 286,-32 286,4 -4,4"/>
<!-- c7160044 -->
<g id="node1" class="node">
<title>c7160044</title>
<g id="a_node1"><a xlink:href="../../de/lmu/ifi/dbs/elki/utilities/optionhandling/AbstractParameterizer.html" xlink:title="&lt;TABLE&gt;">
<g id="a_node1_0"><a xlink:href="../../de/lmu/ifi/dbs/elki/utilities/optionhandling/AbstractParameterizer.html" xlink:title="de.lmu.ifi.dbs.elki.utilities.optionhandling.AbstractParameterizer" target="_parent">
<polygon fill="none" stroke="#000000" points="0,0 0,-28 150,-28 150,0 0,0"/>
<text text-anchor="start" x="32.5" y="-18.6" font-family="Roboto" font-size="8.00" fill="#000000"> </text>
<text text-anchor="start" x="35.5" y="-18.6" font-family="Roboto" font-style="italic" font-size="8.00" fill="#000000">AbstractParameterizer</text>
<text text-anchor="start" x="114.5" y="-18.6" font-family="Roboto" font-size="8.00" fill="#000000"> </text>
<text text-anchor="start" x="4" y="-7.6" font-family="Roboto" font-size="8.00" fill="#000000"> </text>
<text text-anchor="start" x="7" y="-7.6" font-family="Roboto" font-size="7.00" fill="#000000">de.lmu.ifi.dbs.elki.utilities.optionhandling</text>
<text text-anchor="start" x="143" y="-7.6" font-family="Roboto" font-size="8.00" fill="#000000"> </text>
</a>
</g>
</a>
</g>
</g>
<!-- c7161189 -->
<g id="node2" class="node">
<title>c7161189</title>
<g id="a_node2"><a xlink:href="MultiLPNorm.Parameterizer.html" xlink:title="&lt;TABLE&gt;">
<g id="a_node2_1"><a xlink:href="MultiLPNorm.Parameterizer.html" xlink:title="tutorial.distancefunction.MultiLPNorm.Parameterizer" target="_parent">
<polygon fill="#fffacd" stroke="transparent" points="168,-5.5 168,-22.5 282,-22.5 282,-5.5 168,-5.5"/>
<polygon fill="none" stroke="#000000" points="168,-5 168,-22 282,-22 282,-5 168,-5"/>
<text text-anchor="start" x="172" y="-12.6" font-family="Roboto" font-size="8.00" fill="#000000"> </text>
<text text-anchor="start" x="175" y="-12.6" font-family="Roboto" font-size="8.00" fill="#000000">MultiLPNorm.Parameterizer</text>
<text text-anchor="start" x="275" y="-12.6" font-family="Roboto" font-size="8.00" fill="#000000"> </text>
</a>
</g>
</a>
</g>
</g>
<!-- c7160044&#45;&gt;c7161189 -->
<g id="edge1" class="edge">
<title>c7160044&#45;&gt;c7161189</title>
<path fill="none" stroke="#000000" d="M160.1075,-14C162.7137,-14 165.3034,-14 167.8635,-14"/>
<polygon fill="none" stroke="#000000" points="160,-10.5001 150,-14 160,-17.5001 160,-10.5001"/>
</g>
</g>
</svg>
