<?xml version="1.0" encoding="UTF-8" standalone="no"?><svg xmlns="http://www.w3.org/2000/svg" xmlns:xlink="http://www.w3.org/1999/xlink" contentStyleType="text/css" height="285px" preserveAspectRatio="none" style="width:753px;height:285px;background:#FFFFFF;" version="1.1" viewBox="0 0 753 285" width="753px" zoomAndPan="magnify"><defs/><g><!--MD5=[eda9fbb60100519215d8cfd5f2eec078]
class elki.application.statistics.RangeQuerySelectivity--><a href="RangeQuerySelectivity.html" target="_top" title="RangeQuerySelectivity.html" xlink:actuate="onRequest" xlink:href="RangeQuerySelectivity.html" xlink:show="new" xlink:title="RangeQuerySelectivity.html" xlink:type="simple"><g id="elem_elki.application.statistics.RangeQuerySelectivity"><rect codeLine="6" fill="#F1F1F1" height="151.7188" id="elki.application.statistics.RangeQuerySelectivity" rx="2.5" ry="2.5" style="stroke:#181818;stroke-width:0.5;" width="733" x="9" y="108"/><ellipse cx="217.25" cy="126.9688" fill="#ADD1B2" rx="11" ry="11" style="stroke:#181818;stroke-width:1.0;"/><path d="M220.2188,132.6094 Q219.6406,132.9063 219,133.0469 Q218.3594,133.2031 217.6563,133.2031 Q215.1563,133.2031 213.8281,131.5625 Q212.5156,129.9063 212.5156,126.7813 Q212.5156,123.6563 213.8281,122 Q215.1563,120.3438 217.6563,120.3438 Q218.3594,120.3438 219,120.5 Q219.6563,120.6563 220.2188,120.9531 L220.2188,123.6719 Q219.5938,123.0938 219,122.8281 Q218.4063,122.5469 217.7813,122.5469 Q216.4375,122.5469 215.75,123.625 Q215.0625,124.6875 215.0625,126.7813 Q215.0625,128.875 215.75,129.9531 Q216.4375,131.0156 217.7813,131.0156 Q218.4063,131.0156 219,130.75 Q219.5938,130.4688 220.2188,129.8906 L220.2188,132.6094 Z " fill="#000000"/><text fill="#000000" font-family="sans-serif" font-size="14" lengthAdjust="spacing" textLength="154" x="237.75" y="125.9951">RangeQuerySelectivity</text><text fill="#000000" font-family="sans-serif" font-size="10" lengthAdjust="spacing" textLength="114" x="257.75" y="138.5791">elki.application.statistics</text><rect fill="#FFFFFF" height="15.9688" style="stroke:#181818;stroke-width:1.0;stroke-dasharray:2.0,2.0;" width="152" x="593" y="105"/><text fill="#000000" font-family="sans-serif" font-size="12" font-style="italic" lengthAdjust="spacing" textLength="150" x="594" y="117.1387">V extends NumberVector</text><line style="stroke:#181818;stroke-width:0.5;" x1="10" x2="741" y1="145.9375" y2="145.9375"/><rect fill="none" height="6" style="stroke:#C82930;stroke-width:1.0;" width="6" x="17" y="156.5859"/><text fill="#000000" font-family="sans-serif" font-size="14" lengthAdjust="spacing" text-decoration="underline" textLength="93" x="29" y="162.9326">LOG: Logging</text><polygon fill="none" points="20,170.8828,24,174.8828,20,178.8828,16,174.8828" style="stroke:#B38D22;stroke-width:1.0;"/><text fill="#000000" font-family="sans-serif" font-size="14" lengthAdjust="spacing" textLength="99" x="29" y="179.2295">radius: double</text><polygon fill="none" points="20,187.1797,24,191.1797,20,195.1797,16,191.1797" style="stroke:#B38D22;stroke-width:1.0;"/><text fill="#000000" font-family="sans-serif" font-size="14" lengthAdjust="spacing" textLength="119" x="29" y="195.5264">sampling: double</text><polygon fill="none" points="20,203.4766,24,207.4766,20,211.4766,16,207.4766" style="stroke:#B38D22;stroke-width:1.0;"/><text fill="#000000" font-family="sans-serif" font-size="14" lengthAdjust="spacing" textLength="170" x="29" y="211.8232">random: RandomFactory</text><line style="stroke:#181818;stroke-width:0.5;" x1="10" x2="741" y1="219.125" y2="219.125"/><ellipse cx="20" cy="232.7734" fill="#84BE84" rx="3" ry="3" style="stroke:#038048;stroke-width:1.0;"/><text fill="#000000" font-family="sans-serif" font-size="14" lengthAdjust="spacing" textLength="707" x="29" y="236.1201">RangeQuerySelectivity(InputStep, Distance&lt;? super NumberVector&gt;, double, double, RandomFactory)</text><ellipse cx="20" cy="249.0703" fill="#84BE84" rx="3" ry="3" style="stroke:#038048;stroke-width:1.0;"/><text fill="#000000" font-family="sans-serif" font-size="14" lengthAdjust="spacing" textLength="70" x="29" y="252.417">run(): void</text></g></a><!--MD5=[1288925f9d93613b4c3e6c6f3adf3153]
class elki.application.AbstractDistanceBasedApplication--><a href="../AbstractDistanceBasedApplication.html" target="_top" title="../AbstractDistanceBasedApplication.html" xlink:actuate="onRequest" xlink:href="../AbstractDistanceBasedApplication.html" xlink:show="new" xlink:title="../AbstractDistanceBasedApplication.html" xlink:type="simple"><g id="elem_elki.application.AbstractDistanceBasedApplication"><rect codeLine="15" fill="#F1F1F1" height="37.9375" id="elki.application.AbstractDistanceBasedApplication" rx="2.5" ry="2.5" style="stroke:#181818;stroke-width:0.5;" width="430" x="160.5" y="10"/><ellipse cx="175.5" cy="28.9688" fill="#A9DCDF" rx="11" ry="11" style="stroke:#181818;stroke-width:1.0;"/><path d="M175.6094,24.3125 L174.4531,29.3906 L176.7813,29.3906 L175.6094,24.3125 Z M174.125,22.0781 L177.1094,22.0781 L180.4688,34.4688 L178.0156,34.4688 L177.25,31.4063 L173.9688,31.4063 L173.2188,34.4688 L170.7813,34.4688 L174.125,22.0781 Z " fill="#000000"/><text fill="#000000" font-family="sans-serif" font-size="14" font-style="italic" lengthAdjust="spacing" textLength="244" x="189.5" y="27.9951">AbstractDistanceBasedApplication</text><text fill="#000000" font-family="sans-serif" font-size="10" font-style="italic" lengthAdjust="spacing" textLength="76" x="273.5" y="40.5791">elki.application</text><rect fill="#FFFFFF" height="15.9688" style="stroke:#181818;stroke-width:1.0;stroke-dasharray:2.0,2.0;" width="152" x="441.5" y="7"/><text fill="#000000" font-family="sans-serif" font-size="12" font-style="italic" lengthAdjust="spacing" textLength="150" x="442.5" y="19.1387">V extends NumberVector</text></g></a><!--MD5=[5ef12ccf492895bb3c713a0f72083649]
reverse link elki.application.AbstractDistanceBasedApplication to elki.application.statistics.RangeQuerySelectivity--><g id="link_elki.application.AbstractDistanceBasedApplication_elki.application.statistics.RangeQuerySelectivity"><path codeLine="18" d="M375.5,68.26 C375.5,80.35 375.5,94.17 375.5,107.93 " fill="none" id="elki.application.AbstractDistanceBasedApplication-backto-elki.application.statistics.RangeQuerySelectivity" style="stroke:#181818;stroke-width:1.0;"/><polygon fill="none" points="368.5,68.15,375.5,48.15,382.5,68.15,368.5,68.15" style="stroke:#181818;stroke-width:1.0;"/></g><rect fill="none" height="11.6406" style="stroke:none;stroke-width:1.0;" width="186" x="276.5" y="265.7188"/><text fill="#888888" font-family="sans-serif" font-size="10" lengthAdjust="spacing" textLength="186" x="276.5" y="275.001">UMLDoclet 2.0.19, PlantUML 1.2022.8</text><!--MD5=[47b55b9254d3dd97a7555d2d75c402cc]
@startuml
    remove .*\.(Instance|Par|Parameterizer|Factory)$
    set namespaceSeparator none
    hide empty fields
    hide empty methods

    class "<size:14>RangeQuerySelectivity\n<size:10>elki.application.statistics" as elki.application.statistics.RangeQuerySelectivity<V extends NumberVector> [[RangeQuerySelectivity.html]] {
        {static} -LOG: Logging
        #radius: double
        #sampling: double
        #random: RandomFactory
        +RangeQuerySelectivity(InputStep, Distance<? super NumberVector>, double, double, RandomFactory)
        +run(): void
    }

    abstract class "<size:14>AbstractDistanceBasedApplication\n<size:10>elki.application" as elki.application.AbstractDistanceBasedApplication<V extends NumberVector> [[../AbstractDistanceBasedApplication.html]]
    class "<size:14>RangeQuerySelectivity.Par\n<size:10>elki.application.statistics" as elki.application.statistics.RangeQuerySelectivity.Par<V extends NumberVector>

    elki.application.AbstractDistanceBasedApplication <|- - elki.application.statistics.RangeQuerySelectivity
    elki.application.statistics.RangeQuerySelectivity +- - elki.application.statistics.RangeQuerySelectivity.Par

    center footer UMLDoclet 2.0.19, PlantUML 1.2022.8
@enduml

PlantUML version 1.2022.8(Sun Sep 25 11:00:33 CEST 2022)
(APACHE source distribution)
Java Runtime: OpenJDK Runtime Environment
JVM: OpenJDK 64-Bit Server VM
Default Encoding: UTF-8
Language: de
Country: DE
--></g></svg>