<?xml version="1.0" encoding="UTF-8" standalone="no"?><svg xmlns="http://www.w3.org/2000/svg" xmlns:xlink="http://www.w3.org/1999/xlink" contentStyleType="text/css" height="574px" preserveAspectRatio="none" style="width:748px;height:574px;background:#FFFFFF;" version="1.1" viewBox="0 0 748 574" width="748px" zoomAndPan="magnify"><defs/><g><!--MD5=[dfd14e4fbcfe2a7e870b466d0053de67]
cluster elki.index.preprocessed.snn--><g id="cluster_elki.index.preprocessed.snn"><path d="M195.5,162 L421.5,162 A3.75,3.75 0 0 1 424,164.5 L431,184.2969 L738.5,184.2969 A2.5,2.5 0 0 1 741,186.7969 L741,546.5 A2.5,2.5 0 0 1 738.5,549 L195.5,549 A2.5,2.5 0 0 1 193,546.5 L193,164.5 A2.5,2.5 0 0 1 195.5,162 " fill="none" style="stroke:#000000;stroke-width:1.5;"/><line style="stroke:#000000;stroke-width:1.5;" x1="193" x2="431" y1="184.2969" y2="184.2969"/><text fill="#000000" font-family="sans-serif" font-size="14" font-weight="bold" lengthAdjust="spacing" textLength="225" x="197" y="176.9951">elki.index.preprocessed.snn</text></g><!--MD5=[91050b105768f5757c5993f986d4701e]
cluster elki.index--><g id="cluster_elki.index"><path d="M8.5,6 L84.5,6 A3.75,3.75 0 0 1 87,8.5 L94,28.2969 L558.5,28.2969 A2.5,2.5 0 0 1 561,30.7969 L561,135.5 A2.5,2.5 0 0 1 558.5,138 L8.5,138 A2.5,2.5 0 0 1 6,135.5 L6,8.5 A2.5,2.5 0 0 1 8.5,6 " fill="none" style="stroke:#000000;stroke-width:1.5;"/><line style="stroke:#000000;stroke-width:1.5;" x1="6" x2="94" y1="28.2969" y2="28.2969"/><text fill="#000000" font-family="sans-serif" font-size="14" font-weight="bold" lengthAdjust="spacing" textLength="75" x="10" y="20.9951">elki.index</text></g><!--MD5=[63c77e84bd0a087d0b00fb28f0f1d103]
class elki.index.preprocessed.snn.SharedNearestNeighborIndex--><a href="SharedNearestNeighborIndex.html" target="_top" title="SharedNearestNeighborIndex.html" xlink:actuate="onRequest" xlink:href="SharedNearestNeighborIndex.html" xlink:show="new" xlink:title="SharedNearestNeighborIndex.html" xlink:type="simple"><g id="elem_elki.index.preprocessed.snn.SharedNearestNeighborIndex"><rect codeLine="4" fill="#F1F1F1" height="80.5938" id="elki.index.preprocessed.snn.SharedNearestNeighborIndex" rx="2.5" ry="2.5" style="stroke:#181818;stroke-width:0.5;" width="351" x="291.5" y="197"/><ellipse cx="352.25" cy="213" fill="#B4A7E5" rx="11" ry="11" style="stroke:#181818;stroke-width:1.0;"/><path d="M348.1719,208.7656 L348.1719,206.6094 L355.5625,206.6094 L355.5625,208.7656 L353.0938,208.7656 L353.0938,216.8438 L355.5625,216.8438 L355.5625,219 L348.1719,219 L348.1719,216.8438 L350.6406,216.8438 L350.6406,208.7656 L348.1719,208.7656 Z " fill="#000000"/><text fill="#000000" font-family="sans-serif" font-size="14" font-style="italic" lengthAdjust="spacing" textLength="209" x="372.75" y="217.8467">SharedNearestNeighborIndex</text><rect fill="#FFFFFF" height="15.9688" style="stroke:#181818;stroke-width:1.0;stroke-dasharray:2.0,2.0;" width="10" x="635.5" y="194"/><text fill="#000000" font-family="sans-serif" font-size="12" font-style="italic" lengthAdjust="spacing" textLength="8" x="636.5" y="206.1387">O</text><line style="stroke:#181818;stroke-width:0.5;" x1="292.5" x2="641.5" y1="229" y2="229"/><line style="stroke:#181818;stroke-width:0.5;" x1="292.5" x2="641.5" y1="237" y2="237"/><ellipse cx="302.5" cy="250.6484" fill="#84BE84" rx="3" ry="3" style="stroke:#038048;stroke-width:1.0;"/><text fill="#000000" font-family="sans-serif" font-size="14" font-style="italic" lengthAdjust="spacing" textLength="325" x="311.5" y="253.9951">getNearestNeighborSet(DBIDRef): ArrayDBIDs</text><ellipse cx="302.5" cy="266.9453" fill="#84BE84" rx="3" ry="3" style="stroke:#038048;stroke-width:1.0;"/><text fill="#000000" font-family="sans-serif" font-size="14" font-style="italic" lengthAdjust="spacing" textLength="205" x="311.5" y="270.292">getNumberOfNeighbors(): int</text></g></a><!--MD5=[458297d790b25ec28a1ee7a9b781d45f]
class elki.index.preprocessed.snn.SharedNearestNeighborPreprocessor--><a href="SharedNearestNeighborPreprocessor.html" target="_top" title="SharedNearestNeighborPreprocessor.html" xlink:actuate="onRequest" xlink:href="SharedNearestNeighborPreprocessor.html" xlink:show="new" xlink:title="SharedNearestNeighborPreprocessor.html" xlink:type="simple"><g id="elem_elki.index.preprocessed.snn.SharedNearestNeighborPreprocessor"><rect codeLine="14" fill="#F1F1F1" height="194.6719" id="elki.index.preprocessed.snn.SharedNearestNeighborPreprocessor" rx="2.5" ry="2.5" style="stroke:#181818;stroke-width:0.5;" width="515" x="209.5" y="338"/><ellipse cx="327.25" cy="354" fill="#ADD1B2" rx="11" ry="11" style="stroke:#181818;stroke-width:1.0;"/><path d="M330.2188,359.6406 Q329.6406,359.9375 329,360.0781 Q328.3594,360.2344 327.6563,360.2344 Q325.1563,360.2344 323.8281,358.5938 Q322.5156,356.9375 322.5156,353.8125 Q322.5156,350.6875 323.8281,349.0313 Q325.1563,347.375 327.6563,347.375 Q328.3594,347.375 329,347.5313 Q329.6563,347.6875 330.2188,347.9844 L330.2188,350.7031 Q329.5938,350.125 329,349.8594 Q328.4063,349.5781 327.7813,349.5781 Q326.4375,349.5781 325.75,350.6563 Q325.0625,351.7188 325.0625,353.8125 Q325.0625,355.9063 325.75,356.9844 Q326.4375,358.0469 327.7813,358.0469 Q328.4063,358.0469 329,357.7813 Q329.5938,357.5 330.2188,356.9219 L330.2188,359.6406 Z " fill="#000000"/><text fill="#000000" font-family="sans-serif" font-size="14" lengthAdjust="spacing" textLength="259" x="347.75" y="358.8467">SharedNearestNeighborPreprocessor</text><rect fill="#FFFFFF" height="15.9688" style="stroke:#181818;stroke-width:1.0;stroke-dasharray:2.0,2.0;" width="10" x="717.5" y="335"/><text fill="#000000" font-family="sans-serif" font-size="12" font-style="italic" lengthAdjust="spacing" textLength="8" x="718.5" y="347.1387">O</text><line style="stroke:#181818;stroke-width:0.5;" x1="210.5" x2="723.5" y1="370" y2="370"/><rect fill="none" height="6" style="stroke:#C82930;stroke-width:1.0;" width="6" x="217.5" y="380.6484"/><text fill="#000000" font-family="sans-serif" font-size="14" lengthAdjust="spacing" text-decoration="underline" textLength="93" x="229.5" y="386.9951">LOG: Logging</text><polygon fill="none" points="220.5,394.9453,224.5,398.9453,220.5,402.9453,216.5,398.9453" style="stroke:#B38D22;stroke-width:1.0;"/><text fill="#000000" font-family="sans-serif" font-size="14" lengthAdjust="spacing" textLength="166" x="229.5" y="403.292">numberOfNeighbors: int</text><polygon fill="none" points="220.5,411.2422,224.5,415.2422,220.5,419.2422,216.5,415.2422" style="stroke:#B38D22;stroke-width:1.0;"/><text fill="#000000" font-family="sans-serif" font-size="14" lengthAdjust="spacing" textLength="164" x="229.5" y="419.5889">distance: Distance&lt;O&gt;</text><polygon fill="none" points="220.5,427.5391,224.5,431.5391,220.5,435.5391,216.5,431.5391" style="stroke:#B38D22;stroke-width:1.0;"/><text fill="#000000" font-family="sans-serif" font-size="14" lengthAdjust="spacing" textLength="287" x="229.5" y="435.8857">storage: WritableDataStore&lt;ArrayDBIDs&gt;</text><polygon fill="none" points="220.5,443.8359,224.5,447.8359,220.5,451.8359,216.5,447.8359" style="stroke:#B38D22;stroke-width:1.0;"/><text fill="#000000" font-family="sans-serif" font-size="14" lengthAdjust="spacing" textLength="151" x="229.5" y="452.1826">relation: Relation&lt;O&gt;</text><line style="stroke:#181818;stroke-width:0.5;" x1="210.5" x2="723.5" y1="459.4844" y2="459.4844"/><ellipse cx="220.5" cy="473.1328" fill="#84BE84" rx="3" ry="3" style="stroke:#038048;stroke-width:1.0;"/><text fill="#000000" font-family="sans-serif" font-size="14" lengthAdjust="spacing" textLength="489" x="229.5" y="476.4795">SharedNearestNeighborPreprocessor(Relation&lt;O&gt;, int, Distance&lt;O&gt;)</text><ellipse cx="220.5" cy="489.4297" fill="#84BE84" rx="3" ry="3" style="stroke:#038048;stroke-width:1.0;"/><text fill="#000000" font-family="sans-serif" font-size="14" lengthAdjust="spacing" textLength="101" x="229.5" y="492.7764">initialize(): void</text><ellipse cx="220.5" cy="505.7266" fill="#84BE84" rx="3" ry="3" style="stroke:#038048;stroke-width:1.0;"/><text fill="#000000" font-family="sans-serif" font-size="14" lengthAdjust="spacing" textLength="317" x="229.5" y="509.0732">getNearestNeighborSet(DBIDRef): ArrayDBIDs</text><ellipse cx="220.5" cy="522.0234" fill="#84BE84" rx="3" ry="3" style="stroke:#038048;stroke-width:1.0;"/><text fill="#000000" font-family="sans-serif" font-size="14" lengthAdjust="spacing" textLength="200" x="229.5" y="525.3701">getNumberOfNeighbors(): int</text></g></a><!--MD5=[e637bef28e98dc3cd51247599213f56c]
class elki.index.Index--><a href="../../Index.html" target="_top" title="../../Index.html" xlink:actuate="onRequest" xlink:href="../../Index.html" xlink:show="new" xlink:title="../../Index.html" xlink:type="simple"><g id="elem_elki.index.Index"><rect codeLine="55" fill="#F1F1F1" height="80.5938" id="elki.index.Index" rx="2.5" ry="2.5" style="stroke:#181818;stroke-width:0.5;" width="156" x="389" y="41"/><ellipse cx="443.25" cy="57" fill="#B4A7E5" rx="11" ry="11" style="stroke:#181818;stroke-width:1.0;"/><path d="M439.1719,52.7656 L439.1719,50.6094 L446.5625,50.6094 L446.5625,52.7656 L444.0938,52.7656 L444.0938,60.8438 L446.5625,60.8438 L446.5625,63 L439.1719,63 L439.1719,60.8438 L441.6406,60.8438 L441.6406,52.7656 L439.1719,52.7656 Z " fill="#000000"/><text fill="#000000" font-family="sans-serif" font-size="14" font-style="italic" lengthAdjust="spacing" textLength="39" x="463.75" y="61.8467">Index</text><line style="stroke:#181818;stroke-width:0.5;" x1="390" x2="544" y1="73" y2="73"/><line style="stroke:#181818;stroke-width:0.5;" x1="390" x2="544" y1="81" y2="81"/><ellipse cx="400" cy="94.6484" fill="#84BE84" rx="3" ry="3" style="stroke:#038048;stroke-width:1.0;"/><text fill="#000000" font-family="sans-serif" font-size="14" font-style="italic" lengthAdjust="spacing" textLength="108" x="409" y="97.9951">initialize(): void</text><ellipse cx="400" cy="110.9453" fill="#84BE84" rx="3" ry="3" style="stroke:#038048;stroke-width:1.0;"/><text fill="#000000" font-family="sans-serif" font-size="14" lengthAdjust="spacing" textLength="130" x="409" y="114.292">logStatistics(): void</text></g></a><!--MD5=[afe293c28bbaabce0c4dc03698425862]
class elki.index.IndexFactory--><a href="../../IndexFactory.html" target="_top" title="../../IndexFactory.html" xlink:actuate="onRequest" xlink:href="../../IndexFactory.html" xlink:show="new" xlink:title="../../IndexFactory.html" xlink:type="simple"><g id="elem_elki.index.IndexFactory"><rect codeLine="59" fill="#F1F1F1" height="80.5938" id="elki.index.IndexFactory" rx="2.5" ry="2.5" style="stroke:#181818;stroke-width:0.5;" width="331" x="22.5" y="41"/><ellipse cx="132.25" cy="57" fill="#B4A7E5" rx="11" ry="11" style="stroke:#181818;stroke-width:1.0;"/><path d="M128.1719,52.7656 L128.1719,50.6094 L135.5625,50.6094 L135.5625,52.7656 L133.0938,52.7656 L133.0938,60.8438 L135.5625,60.8438 L135.5625,63 L128.1719,63 L128.1719,60.8438 L130.6406,60.8438 L130.6406,52.7656 L128.1719,52.7656 Z " fill="#000000"/><text fill="#000000" font-family="sans-serif" font-size="14" font-style="italic" lengthAdjust="spacing" textLength="91" x="152.75" y="61.8467">IndexFactory</text><rect fill="#FFFFFF" height="15.9688" style="stroke:#181818;stroke-width:1.0;stroke-dasharray:2.0,2.0;" width="10" x="346.5" y="38"/><text fill="#000000" font-family="sans-serif" font-size="12" font-style="italic" lengthAdjust="spacing" textLength="8" x="347.5" y="50.1387">V</text><line style="stroke:#181818;stroke-width:0.5;" x1="23.5" x2="352.5" y1="73" y2="73"/><line style="stroke:#181818;stroke-width:0.5;" x1="23.5" x2="352.5" y1="81" y2="81"/><ellipse cx="33.5" cy="94.6484" fill="#84BE84" rx="3" ry="3" style="stroke:#038048;stroke-width:1.0;"/><text fill="#000000" font-family="sans-serif" font-size="14" font-style="italic" lengthAdjust="spacing" textLength="226" x="42.5" y="97.9951">instantiate(Relation&lt;V&gt;): Index</text><ellipse cx="33.5" cy="110.9453" fill="#84BE84" rx="3" ry="3" style="stroke:#038048;stroke-width:1.0;"/><text fill="#000000" font-family="sans-serif" font-size="14" font-style="italic" lengthAdjust="spacing" textLength="305" x="42.5" y="114.292">getInputTypeRestriction(): TypeInformation</text></g></a><!--MD5=[dc56a0736665b550be7bf5e1a32ad167]
reverse link elki.index.Index to elki.index.preprocessed.snn.SharedNearestNeighborIndex--><g id="link_elki.index.Index_elki.index.preprocessed.snn.SharedNearestNeighborIndex"><path codeLine="44" d="M467,142.39 C467,160.7 467,180.38 467,196.98 " fill="none" id="elki.index.Index-backto-elki.index.preprocessed.snn.SharedNearestNeighborIndex" style="stroke:#181818;stroke-width:1.0;"/><polygon fill="none" points="460,142.16,467,122.16,474,142.16,460,142.16" style="stroke:#181818;stroke-width:1.0;"/></g><!--MD5=[0302267057a19f09e7cad6b62773436a]
reverse link elki.index.preprocessed.snn.SharedNearestNeighborIndex to elki.index.preprocessed.snn.SharedNearestNeighborPreprocessor--><g id="link_elki.index.preprocessed.snn.SharedNearestNeighborIndex_elki.index.preprocessed.snn.SharedNearestNeighborPreprocessor"><path codeLine="47" d="M467,298.62 C467,311.04 467,324.41 467,337.76 " fill="none" id="elki.index.preprocessed.snn.SharedNearestNeighborIndex-backto-elki.index.preprocessed.snn.SharedNearestNeighborPreprocessor" style="stroke:#181818;stroke-width:1.0;stroke-dasharray:7.0,7.0;"/><polygon fill="none" points="460,298.16,467,278.16,474,298.16,460,298.16" style="stroke:#181818;stroke-width:1.0;"/></g><rect fill="none" height="11.6406" style="stroke:none;stroke-width:1.0;" width="186" x="274" y="555"/><text fill="#888888" font-family="sans-serif" font-size="10" lengthAdjust="spacing" textLength="186" x="274" y="564.2822">UMLDoclet 2.0.19, PlantUML 1.2022.8</text><!--MD5=[fc70ff2d53f0ff79538006fc1fc03bc4]
@startuml
    remove .*\.(Instance|Par|Parameterizer|Factory)$
    namespace elki.index.preprocessed.snn {

        interface SharedNearestNeighborIndex<O> [[SharedNearestNeighborIndex.html]] {
            {abstract} +getNearestNeighborSet(DBIDRef): ArrayDBIDs
            {abstract} +getNumberOfNeighbors(): int
        }

        interface elki.index.preprocessed.snn.SharedNearestNeighborIndex.Factory<O> [[SharedNearestNeighborIndex.Factory.html]] {
            {abstract} +instantiate(Relation<O>): SharedNearestNeighborIndex<O>
            {abstract} +getNumberOfNeighbors(): int
        }

        class SharedNearestNeighborPreprocessor<O> [[SharedNearestNeighborPreprocessor.html]] {
            {static} -LOG: Logging
            #numberOfNeighbors: int
            #distance: Distance<O>
            #storage: WritableDataStore<ArrayDBIDs>
            #relation: Relation<O>
            +SharedNearestNeighborPreprocessor(Relation<O>, int, Distance<O>)
            +initialize(): void
            +getNearestNeighborSet(DBIDRef): ArrayDBIDs
            +getNumberOfNeighbors(): int
        }

        class elki.index.preprocessed.snn.SharedNearestNeighborPreprocessor.Factory<O> [[SharedNearestNeighborPreprocessor.Factory.html]] {
            {static} +NUMBER_OF_NEIGHBORS_ID: OptionID
            {static} +DISTANCE_FUNCTION_ID: OptionID
            #numberOfNeighbors: int
            #distanceFunction: Distance<O>
            +Factory(int, Distance<O>)
            +instantiate(Relation<O>): SharedNearestNeighborPreprocessor<O>
            +getNumberOfNeighbors(): int
            +getInputTypeRestriction(): TypeInformation
        }

        class elki.index.preprocessed.snn.SharedNearestNeighborPreprocessor.Factory.Par<O> [[SharedNearestNeighborPreprocessor.Factory.Par.html]] {
            #numberOfNeighbors: int
            #distanceFunction: Distance<O>
            +configure(Parameterization): void
            +make(): Factory<O>
        }

        elki.index.Index <|- - SharedNearestNeighborIndex
        elki.index.IndexFactory <|- - elki.index.preprocessed.snn.SharedNearestNeighborIndex.Factory
        SharedNearestNeighborIndex +- - elki.index.preprocessed.snn.SharedNearestNeighborIndex.Factory
        SharedNearestNeighborIndex <|.. SharedNearestNeighborPreprocessor
        elki.index.preprocessed.snn.SharedNearestNeighborIndex.Factory <|.. elki.index.preprocessed.snn.SharedNearestNeighborPreprocessor.Factory
        SharedNearestNeighborPreprocessor +- - elki.index.preprocessed.snn.SharedNearestNeighborPreprocessor.Factory
        elki.utilities.optionhandling.Parameterizer <|.. elki.index.preprocessed.snn.SharedNearestNeighborPreprocessor.Factory.Par
        elki.index.preprocessed.snn.SharedNearestNeighborPreprocessor.Factory +- - elki.index.preprocessed.snn.SharedNearestNeighborPreprocessor.Factory.Par
    }

    namespace elki.index {
        interface Index [[../../Index.html]] {
            {abstract} +initialize(): void
            +logStatistics(): void
        }
        interface IndexFactory<V> [[../../IndexFactory.html]] {
            {abstract} +instantiate(Relation<V>): Index
            {abstract} +getInputTypeRestriction(): TypeInformation
        }
    }

    namespace elki.utilities.optionhandling {
        interface Parameterizer [[../../../utilities/optionhandling/Parameterizer.html]] {
            +configure(Parameterization): void
            {abstract} +make(): Object
        }
    }

    center footer UMLDoclet 2.0.19, PlantUML 1.2022.8
@enduml

PlantUML version 1.2022.8(Sun Sep 25 11:00:33 CEST 2022)
(APACHE source distribution)
Java Runtime: OpenJDK Runtime Environment
JVM: OpenJDK 64-Bit Server VM
Default Encoding: UTF-8
Language: de
Country: DE
--></g></svg>