<?xml version="1.0" encoding="UTF-8" standalone="no"?><svg xmlns="http://www.w3.org/2000/svg" xmlns:xlink="http://www.w3.org/1999/xlink" contentStyleType="text/css" height="338px" preserveAspectRatio="none" style="width:875px;height:338px;background:#FFFFFF;" version="1.1" viewBox="0 0 875 338" width="875px" zoomAndPan="magnify"><defs/><g><!--MD5=[fe4ab20d6ffe8229cac2b01c4aa05850]
class elki.application.ClassifierHoldoutEvaluationTask--><a href="ClassifierHoldoutEvaluationTask.html" target="_top" title="ClassifierHoldoutEvaluationTask.html" xlink:actuate="onRequest" xlink:href="ClassifierHoldoutEvaluationTask.html" xlink:show="new" xlink:title="ClassifierHoldoutEvaluationTask.html" xlink:type="simple"><g id="elem_elki.application.ClassifierHoldoutEvaluationTask"><rect codeLine="6" fill="#F1F1F1" height="184.3125" id="elki.application.ClassifierHoldoutEvaluationTask" rx="2.5" ry="2.5" style="stroke:#181818;stroke-width:0.5;" width="855" x="9" y="129"/><ellipse cx="317.25" cy="147.9688" fill="#ADD1B2" rx="11" ry="11" style="stroke:#181818;stroke-width:1.0;"/><path d="M320.2188,153.6094 Q319.6406,153.9063 319,154.0469 Q318.3594,154.2031 317.6563,154.2031 Q315.1563,154.2031 313.8281,152.5625 Q312.5156,150.9063 312.5156,147.7813 Q312.5156,144.6563 313.8281,143 Q315.1563,141.3438 317.6563,141.3438 Q318.3594,141.3438 319,141.5 Q319.6563,141.6563 320.2188,141.9531 L320.2188,144.6719 Q319.5938,144.0938 319,143.8281 Q318.4063,143.5469 317.7813,143.5469 Q316.4375,143.5469 315.75,144.625 Q315.0625,145.6875 315.0625,147.7813 Q315.0625,149.875 315.75,150.9531 Q316.4375,152.0156 317.7813,152.0156 Q318.4063,152.0156 319,151.75 Q319.5938,151.4688 320.2188,150.8906 L320.2188,153.6094 Z " fill="#000000"/><text fill="#000000" font-family="sans-serif" font-size="14" lengthAdjust="spacing" textLength="218" x="337.75" y="146.9951">ClassifierHoldoutEvaluationTask</text><text fill="#000000" font-family="sans-serif" font-size="10" lengthAdjust="spacing" textLength="69" x="412.25" y="159.5791">elki.application</text><rect fill="#FFFFFF" height="15.9688" style="stroke:#181818;stroke-width:1.0;stroke-dasharray:2.0,2.0;" width="10" x="857" y="126"/><text fill="#000000" font-family="sans-serif" font-size="12" font-style="italic" lengthAdjust="spacing" textLength="8" x="858" y="138.1387">O</text><line style="stroke:#181818;stroke-width:0.5;" x1="10" x2="863" y1="166.9375" y2="166.9375"/><rect fill="none" height="6" style="stroke:#C82930;stroke-width:1.0;" width="6" x="17" y="177.5859"/><text fill="#000000" font-family="sans-serif" font-size="14" lengthAdjust="spacing" text-decoration="underline" textLength="93" x="29" y="183.9326">LOG: Logging</text><polygon fill="none" points="20,191.8828,24,195.8828,20,199.8828,16,195.8828" style="stroke:#B38D22;stroke-width:1.0;"/><text fill="#000000" font-family="sans-serif" font-size="14" lengthAdjust="spacing" textLength="299" x="29" y="200.2295">databaseConnection: DatabaseConnection</text><polygon fill="none" points="20,208.1797,24,212.1797,20,216.1797,16,212.1797" style="stroke:#B38D22;stroke-width:1.0;"/><text fill="#000000" font-family="sans-serif" font-size="14" lengthAdjust="spacing" textLength="390" x="29" y="216.5264">indexFactories: Collection&lt;? extends IndexFactory&lt;?&gt;&gt;</text><polygon fill="none" points="20,224.4766,24,228.4766,20,232.4766,16,228.4766" style="stroke:#B38D22;stroke-width:1.0;"/><text fill="#000000" font-family="sans-serif" font-size="14" lengthAdjust="spacing" textLength="169" x="29" y="232.8232">algorithm: Classifier&lt;O&gt;</text><polygon fill="none" points="20,240.7734,24,244.7734,20,248.7734,16,244.7734" style="stroke:#B38D22;stroke-width:1.0;"/><text fill="#000000" font-family="sans-serif" font-size="14" lengthAdjust="spacing" textLength="116" x="29" y="249.1201">holdout: Holdout</text><line style="stroke:#181818;stroke-width:0.5;" x1="10" x2="863" y1="256.4219" y2="256.4219"/><ellipse cx="20" cy="270.0703" fill="#84BE84" rx="3" ry="3" style="stroke:#038048;stroke-width:1.0;"/><text fill="#000000" font-family="sans-serif" font-size="14" lengthAdjust="spacing" textLength="829" x="29" y="273.417">ClassifierHoldoutEvaluationTask(DatabaseConnection, Collection&lt;? extends IndexFactory&lt;?&gt;&gt;, Classifier&lt;O&gt;, Holdout)</text><ellipse cx="20" cy="286.3672" fill="#84BE84" rx="3" ry="3" style="stroke:#038048;stroke-width:1.0;"/><text fill="#000000" font-family="sans-serif" font-size="14" lengthAdjust="spacing" textLength="70" x="29" y="289.7139">run(): void</text><ellipse cx="20" cy="302.6641" fill="#84BE84" rx="3" ry="3" style="stroke:#038048;stroke-width:1.0;"/><text fill="#000000" font-family="sans-serif" font-size="14" lengthAdjust="spacing" text-decoration="underline" textLength="130" x="29" y="306.0107">main(String[]): void</text></g></a><!--MD5=[3d4de60bdc1b25a9f289ffb57f6f1e3f]
class elki.application.AbstractApplication--><a href="AbstractApplication.html" target="_top" title="AbstractApplication.html" xlink:actuate="onRequest" xlink:href="AbstractApplication.html" xlink:show="new" xlink:title="AbstractApplication.html" xlink:type="simple"><g id="elem_elki.application.AbstractApplication"><rect codeLine="17" fill="#F1F1F1" height="62.2344" id="elki.application.AbstractApplication" rx="2.5" ry="2.5" style="stroke:#181818;stroke-width:0.5;" width="170" x="351.5" y="7"/><ellipse cx="366.5" cy="25.9688" fill="#A9DCDF" rx="11" ry="11" style="stroke:#181818;stroke-width:1.0;"/><path d="M366.6094,21.3125 L365.4531,26.3906 L367.7813,26.3906 L366.6094,21.3125 Z M365.125,19.0781 L368.1094,19.0781 L371.4688,31.4688 L369.0156,31.4688 L368.25,28.4063 L364.9688,28.4063 L364.2188,31.4688 L361.7813,31.4688 L365.125,19.0781 Z " fill="#000000"/><text fill="#000000" font-family="sans-serif" font-size="14" font-style="italic" lengthAdjust="spacing" textLength="138" x="380.5" y="24.9951">AbstractApplication</text><text fill="#000000" font-family="sans-serif" font-size="10" font-style="italic" lengthAdjust="spacing" textLength="76" x="411.5" y="37.5791">elki.application</text><line style="stroke:#181818;stroke-width:0.5;" x1="352.5" x2="520.5" y1="44.9375" y2="44.9375"/><ellipse cx="362.5" cy="58.5859" fill="#84BE84" rx="3" ry="3" style="stroke:#038048;stroke-width:1.0;"/><text fill="#000000" font-family="sans-serif" font-size="14" font-style="italic" lengthAdjust="spacing" textLength="72" x="371.5" y="61.9326">run(): void</text></g></a><!--MD5=[ee939c41781ff397ea39ecb9cebfe042]
reverse link elki.application.AbstractApplication to elki.application.ClassifierHoldoutEvaluationTask--><g id="link_elki.application.AbstractApplication_elki.application.ClassifierHoldoutEvaluationTask"><path codeLine="22" d="M436.5,89.67 C436.5,101.85 436.5,115.24 436.5,128.65 " fill="none" id="elki.application.AbstractApplication-backto-elki.application.ClassifierHoldoutEvaluationTask" style="stroke:#181818;stroke-width:1.0;"/><polygon fill="none" points="429.5,89.3,436.5,69.3,443.5,89.3,429.5,89.3" style="stroke:#181818;stroke-width:1.0;"/></g><rect fill="none" height="11.6406" style="stroke:none;stroke-width:1.0;" width="186" x="337.5" y="319.3125"/><text fill="#888888" font-family="sans-serif" font-size="10" lengthAdjust="spacing" textLength="186" x="337.5" y="328.5947">UMLDoclet 2.0.19, PlantUML 1.2022.8</text><!--MD5=[14de42624175a3fbcc1adeb575bee96f]
@startuml
    remove .*\.(Instance|Par|Parameterizer|Factory)$
    set namespaceSeparator none
    hide empty fields
    hide empty methods

    class "<size:14>ClassifierHoldoutEvaluationTask\n<size:10>elki.application" as elki.application.ClassifierHoldoutEvaluationTask<O> [[ClassifierHoldoutEvaluationTask.html]] {
        {static} -LOG: Logging
        #databaseConnection: DatabaseConnection
        #indexFactories: Collection<? extends IndexFactory<?>>
        #algorithm: Classifier<O>
        #holdout: Holdout
        +ClassifierHoldoutEvaluationTask(DatabaseConnection, Collection<? extends IndexFactory<?>>, Classifier<O>, Holdout)
        +run(): void
        {static} +main(String[]): void
    }

    abstract class "<size:14>AbstractApplication\n<size:10>elki.application" as elki.application.AbstractApplication [[AbstractApplication.html]] {
        {abstract} +run(): void
    }
    class "<size:14>ClassifierHoldoutEvaluationTask.Par\n<size:10>elki.application" as elki.application.ClassifierHoldoutEvaluationTask.Par<O> [[ClassifierHoldoutEvaluationTask.Par.html]]

    elki.application.AbstractApplication <|- - elki.application.ClassifierHoldoutEvaluationTask
    elki.application.ClassifierHoldoutEvaluationTask +- - elki.application.ClassifierHoldoutEvaluationTask.Par

    center footer UMLDoclet 2.0.19, PlantUML 1.2022.8
@enduml

PlantUML version 1.2022.8(Sun Sep 25 11:00:33 CEST 2022)
(APACHE source distribution)
Java Runtime: OpenJDK Runtime Environment
JVM: OpenJDK 64-Bit Server VM
Default Encoding: UTF-8
Language: de
Country: DE
--></g></svg>