<?xml version="1.0" encoding="UTF-8" standalone="no"?><svg xmlns="http://www.w3.org/2000/svg" xmlns:xlink="http://www.w3.org/1999/xlink" contentStyleType="text/css" height="276px" preserveAspectRatio="none" style="width:849px;height:276px;background:#FFFFFF;" version="1.1" viewBox="0 0 849 276" width="849px" zoomAndPan="magnify"><defs/><g><!--MD5=[16a1d6b1e0622e79c3957b78752ce0a6]
class elki.distance.ArcCosineUnitlengthDistance--><a href="ArcCosineUnitlengthDistance.html" target="_top" title="ArcCosineUnitlengthDistance.html" xlink:actuate="onRequest" xlink:href="ArcCosineUnitlengthDistance.html" xlink:show="new" xlink:title="ArcCosineUnitlengthDistance.html" xlink:type="simple"><g id="elem_elki.distance.ArcCosineUnitlengthDistance"><rect codeLine="6" fill="#F1F1F1" height="119.125" id="elki.distance.ArcCosineUnitlengthDistance" rx="2.5" ry="2.5" style="stroke:#181818;stroke-width:0.5;" width="547" x="163.5" y="132"/><ellipse cx="331.75" cy="150.9688" fill="#ADD1B2" rx="11" ry="11" style="stroke:#181818;stroke-width:1.0;"/><path d="M334.7188,156.6094 Q334.1406,156.9063 333.5,157.0469 Q332.8594,157.2031 332.1563,157.2031 Q329.6563,157.2031 328.3281,155.5625 Q327.0156,153.9063 327.0156,150.7813 Q327.0156,147.6563 328.3281,146 Q329.6563,144.3438 332.1563,144.3438 Q332.8594,144.3438 333.5,144.5 Q334.1563,144.6563 334.7188,144.9531 L334.7188,147.6719 Q334.0938,147.0938 333.5,146.8281 Q332.9063,146.5469 332.2813,146.5469 Q330.9375,146.5469 330.25,147.625 Q329.5625,148.6875 329.5625,150.7813 Q329.5625,152.875 330.25,153.9531 Q330.9375,155.0156 332.2813,155.0156 Q332.9063,155.0156 333.5,154.75 Q334.0938,154.4688 334.7188,153.8906 L334.7188,156.6094 Z " fill="#000000"/><text fill="#000000" font-family="sans-serif" font-size="14" lengthAdjust="spacing" textLength="202" x="352.25" y="149.9951">ArcCosineUnitlengthDistance</text><text fill="#000000" font-family="sans-serif" font-size="10" lengthAdjust="spacing" textLength="58" x="424.25" y="162.5791">elki.distance</text><line style="stroke:#181818;stroke-width:0.5;" x1="164.5" x2="709.5" y1="169.9375" y2="169.9375"/><ellipse cx="174.5" cy="183.5859" fill="none" rx="3" ry="3" style="stroke:#038048;stroke-width:1.0;"/><text fill="#000000" font-family="sans-serif" font-size="14" lengthAdjust="spacing" text-decoration="underline" textLength="260" x="183.5" y="186.9326">STATIC: ArcCosineUnitlengthDistance</text><line style="stroke:#181818;stroke-width:0.5;" x1="164.5" x2="709.5" y1="194.2344" y2="194.2344"/><ellipse cx="174.5" cy="207.8828" fill="#84BE84" rx="3" ry="3" style="stroke:#038048;stroke-width:1.0;"/><text fill="#000000" font-family="sans-serif" font-size="14" lengthAdjust="spacing" textLength="334" x="183.5" y="211.2295">distance(NumberVector, NumberVector): double</text><ellipse cx="174.5" cy="224.1797" fill="#84BE84" rx="3" ry="3" style="stroke:#038048;stroke-width:1.0;"/><text fill="#000000" font-family="sans-serif" font-size="14" lengthAdjust="spacing" textLength="383" x="183.5" y="227.5264">minDist(SpatialComparable, SpatialComparable): double</text><ellipse cx="174.5" cy="240.4766" fill="#84BE84" rx="3" ry="3" style="stroke:#038048;stroke-width:1.0;"/><text fill="#000000" font-family="sans-serif" font-size="14" lengthAdjust="spacing" textLength="521" x="183.5" y="243.8232">getInputTypeRestriction(): SimpleTypeInformation&lt;? super NumberVector&gt;</text></g></a><!--MD5=[5f78a2c9f6a81d626a41dcae02a47e86]
class elki.distance.SpatialPrimitiveDistance--><a href="SpatialPrimitiveDistance.html" target="_top" title="SpatialPrimitiveDistance.html" xlink:actuate="onRequest" xlink:href="SpatialPrimitiveDistance.html" xlink:show="new" xlink:title="SpatialPrimitiveDistance.html" xlink:type="simple"><g id="elem_elki.distance.SpatialPrimitiveDistance"><rect codeLine="13" fill="#F1F1F1" height="62.2344" id="elki.distance.SpatialPrimitiveDistance" rx="2.5" ry="2.5" style="stroke:#181818;stroke-width:0.5;" width="428" x="7" y="10"/><ellipse cx="85.25" cy="28.9688" fill="#B4A7E5" rx="11" ry="11" style="stroke:#181818;stroke-width:1.0;"/><path d="M81.1719,24.7344 L81.1719,22.5781 L88.5625,22.5781 L88.5625,24.7344 L86.0938,24.7344 L86.0938,32.8125 L88.5625,32.8125 L88.5625,34.9688 L81.1719,34.9688 L81.1719,32.8125 L83.6406,32.8125 L83.6406,24.7344 L81.1719,24.7344 Z " fill="#000000"/><text fill="#000000" font-family="sans-serif" font-size="14" font-style="italic" lengthAdjust="spacing" textLength="172" x="105.75" y="27.9951">SpatialPrimitiveDistance</text><text fill="#000000" font-family="sans-serif" font-size="10" font-style="italic" lengthAdjust="spacing" textLength="63" x="160.25" y="40.5791">elki.distance</text><rect fill="#FFFFFF" height="15.9688" style="stroke:#181818;stroke-width:1.0;stroke-dasharray:2.0,2.0;" width="89" x="349" y="7"/><text fill="#000000" font-family="sans-serif" font-size="12" font-style="italic" lengthAdjust="spacing" textLength="87" x="350" y="19.1387">NumberVector</text><line style="stroke:#181818;stroke-width:0.5;" x1="8" x2="434" y1="47.9375" y2="47.9375"/><ellipse cx="18" cy="61.5859" fill="#84BE84" rx="3" ry="3" style="stroke:#038048;stroke-width:1.0;"/><text fill="#000000" font-family="sans-serif" font-size="14" font-style="italic" lengthAdjust="spacing" textLength="402" x="27" y="64.9326">minDist(SpatialComparable, SpatialComparable): double</text></g></a><!--MD5=[b59dde8096edb342aa1d95f78d942f21]
class elki.distance.NumberVectorDistance--><a href="NumberVectorDistance.html" target="_top" title="NumberVectorDistance.html" xlink:actuate="onRequest" xlink:href="NumberVectorDistance.html" xlink:show="new" xlink:title="NumberVectorDistance.html" xlink:type="simple"><g id="elem_elki.distance.NumberVectorDistance"><rect codeLine="16" fill="#F1F1F1" height="62.2344" id="elki.distance.NumberVectorDistance" rx="2.5" ry="2.5" style="stroke:#181818;stroke-width:0.5;" width="368" x="470" y="10"/><ellipse cx="521.75" cy="28.9688" fill="#B4A7E5" rx="11" ry="11" style="stroke:#181818;stroke-width:1.0;"/><path d="M517.6719,24.7344 L517.6719,22.5781 L525.0625,22.5781 L525.0625,24.7344 L522.5938,24.7344 L522.5938,32.8125 L525.0625,32.8125 L525.0625,34.9688 L517.6719,34.9688 L517.6719,32.8125 L520.1406,32.8125 L520.1406,24.7344 L517.6719,24.7344 Z " fill="#000000"/><text fill="#000000" font-family="sans-serif" font-size="14" font-style="italic" lengthAdjust="spacing" textLength="165" x="542.25" y="27.9951">NumberVectorDistance</text><text fill="#000000" font-family="sans-serif" font-size="10" font-style="italic" lengthAdjust="spacing" textLength="63" x="593.25" y="40.5791">elki.distance</text><rect fill="#FFFFFF" height="15.9688" style="stroke:#181818;stroke-width:1.0;stroke-dasharray:2.0,2.0;" width="89" x="752" y="7"/><text fill="#000000" font-family="sans-serif" font-size="12" font-style="italic" lengthAdjust="spacing" textLength="87" x="753" y="19.1387">NumberVector</text><line style="stroke:#181818;stroke-width:0.5;" x1="471" x2="837" y1="47.9375" y2="47.9375"/><ellipse cx="481" cy="61.5859" fill="#84BE84" rx="3" ry="3" style="stroke:#038048;stroke-width:1.0;"/><text fill="#000000" font-family="sans-serif" font-size="14" font-style="italic" lengthAdjust="spacing" textLength="342" x="490" y="64.9326">distance(NumberVector, NumberVector): double</text></g></a><!--MD5=[ad17a2936e25f3cada0065419cdf1114]
reverse link elki.distance.SpatialPrimitiveDistance to elki.distance.ArcCosineUnitlengthDistance--><g id="link_elki.distance.SpatialPrimitiveDistance_elki.distance.ArcCosineUnitlengthDistance"><path codeLine="21" d="M281.42,83.54 C303.24,98.54 328.29,115.76 351.83,131.95 " fill="none" id="elki.distance.SpatialPrimitiveDistance-backto-elki.distance.ArcCosineUnitlengthDistance" style="stroke:#181818;stroke-width:1.0;stroke-dasharray:7.0,7.0;"/><polygon fill="none" points="277.23,89.15,264.71,72.05,285.16,77.61,277.23,89.15" style="stroke:#181818;stroke-width:1.0;"/></g><!--MD5=[259da9d6642dfa96a0402ac0d3a1555e]
reverse link elki.distance.NumberVectorDistance to elki.distance.ArcCosineUnitlengthDistance--><g id="link_elki.distance.NumberVectorDistance_elki.distance.ArcCosineUnitlengthDistance"><path codeLine="22" d="M593.3,83.54 C571.38,98.54 546.21,115.76 522.56,131.95 " fill="none" id="elki.distance.NumberVectorDistance-backto-elki.distance.ArcCosineUnitlengthDistance" style="stroke:#181818;stroke-width:1.0;stroke-dasharray:7.0,7.0;"/><polygon fill="none" points="589.63,77.57,610.09,72.05,597.53,89.12,589.63,77.57" style="stroke:#181818;stroke-width:1.0;"/></g><rect fill="none" height="11.6406" style="stroke:none;stroke-width:1.0;" width="186" x="324.5" y="257.125"/><text fill="#888888" font-family="sans-serif" font-size="10" lengthAdjust="spacing" textLength="186" x="324.5" y="266.4072">UMLDoclet 2.0.19, PlantUML 1.2022.8</text><!--MD5=[63e7f5b53b977796602e8d0b4791a48c]
@startuml
    remove .*\.(Instance|Par|Parameterizer|Factory)$
    set namespaceSeparator none
    hide empty fields
    hide empty methods

    class "<size:14>ArcCosineUnitlengthDistance\n<size:10>elki.distance" as elki.distance.ArcCosineUnitlengthDistance [[ArcCosineUnitlengthDistance.html]] {
        {static} +STATIC: ArcCosineUnitlengthDistance
        +distance(NumberVector, NumberVector): double
        +minDist(SpatialComparable, SpatialComparable): double
        +getInputTypeRestriction(): SimpleTypeInformation<? super NumberVector>
    }

    interface "<size:14>SpatialPrimitiveDistance\n<size:10>elki.distance" as elki.distance.SpatialPrimitiveDistance<NumberVector> [[SpatialPrimitiveDistance.html]] {
        {abstract} +minDist(SpatialComparable, SpatialComparable): double
    }
    interface "<size:14>NumberVectorDistance\n<size:10>elki.distance" as elki.distance.NumberVectorDistance<NumberVector> [[NumberVectorDistance.html]] {
        {abstract} +distance(NumberVector, NumberVector): double
    }
    class "<size:14>ArcCosineUnitlengthDistance.Par\n<size:10>elki.distance" as elki.distance.ArcCosineUnitlengthDistance.Par [[ArcCosineUnitlengthDistance.Par.html]]

    elki.distance.SpatialPrimitiveDistance <|.. elki.distance.ArcCosineUnitlengthDistance
    elki.distance.NumberVectorDistance <|.. elki.distance.ArcCosineUnitlengthDistance
    elki.distance.ArcCosineUnitlengthDistance +- - elki.distance.ArcCosineUnitlengthDistance.Par

    center footer UMLDoclet 2.0.19, PlantUML 1.2022.8
@enduml

PlantUML version 1.2022.8(Sun Sep 25 11:00:33 CEST 2022)
(APACHE source distribution)
Java Runtime: OpenJDK Runtime Environment
JVM: OpenJDK 64-Bit Server VM
Default Encoding: UTF-8
Language: de
Country: DE
--></g></svg>