<?xml version="1.0" encoding="UTF-8" standalone="no"?><svg xmlns="http://www.w3.org/2000/svg" xmlns:xlink="http://www.w3.org/1999/xlink" contentStyleType="text/css" height="258px" preserveAspectRatio="none" style="width:374px;height:258px;background:#FFFFFF;" version="1.1" viewBox="0 0 374 258" width="374px" zoomAndPan="magnify"><defs/><g><!--MD5=[fdf9ae2f633995f613578615663b38e0]
class elki.distance.MahalanobisDistance--><a href="MahalanobisDistance.html" target="_top" title="MahalanobisDistance.html" xlink:actuate="onRequest" xlink:href="MahalanobisDistance.html" xlink:show="new" xlink:title="MahalanobisDistance.html" xlink:type="simple"><g id="elem_elki.distance.MahalanobisDistance"><rect codeLine="6" fill="#F1F1F1" height="127.4219" id="elki.distance.MahalanobisDistance" rx="2.5" ry="2.5" style="stroke:#181818;stroke-width:0.5;" width="360" x="7" y="105"/><ellipse cx="109.25" cy="123.9688" fill="#ADD1B2" rx="11" ry="11" style="stroke:#181818;stroke-width:1.0;"/><path d="M112.2188,129.6094 Q111.6406,129.9063 111,130.0469 Q110.3594,130.2031 109.6563,130.2031 Q107.1563,130.2031 105.8281,128.5625 Q104.5156,126.9063 104.5156,123.7813 Q104.5156,120.6563 105.8281,119 Q107.1563,117.3438 109.6563,117.3438 Q110.3594,117.3438 111,117.5 Q111.6563,117.6563 112.2188,117.9531 L112.2188,120.6719 Q111.5938,120.0938 111,119.8281 Q110.4063,119.5469 109.7813,119.5469 Q108.4375,119.5469 107.75,120.625 Q107.0625,121.6875 107.0625,123.7813 Q107.0625,125.875 107.75,126.9531 Q108.4375,128.0156 109.7813,128.0156 Q110.4063,128.0156 111,127.75 Q111.5938,127.4688 112.2188,126.8906 L112.2188,129.6094 Z " fill="#000000"/><text fill="#000000" font-family="sans-serif" font-size="14" lengthAdjust="spacing" textLength="147" x="129.75" y="122.9951">MahalanobisDistance</text><text fill="#000000" font-family="sans-serif" font-size="10" lengthAdjust="spacing" textLength="58" x="174.25" y="135.5791">elki.distance</text><line style="stroke:#181818;stroke-width:0.5;" x1="8" x2="366" y1="142.9375" y2="142.9375"/><ellipse cx="18" cy="156.5859" fill="#84BE84" rx="3" ry="3" style="stroke:#038048;stroke-width:1.0;"/><text fill="#000000" font-family="sans-serif" font-size="14" lengthAdjust="spacing" textLength="215" x="27" y="159.9326">MahalanobisDistance(double[])</text><ellipse cx="18" cy="172.8828" fill="#84BE84" rx="3" ry="3" style="stroke:#038048;stroke-width:1.0;"/><text fill="#000000" font-family="sans-serif" font-size="14" lengthAdjust="spacing" textLength="334" x="27" y="176.2295">distance(NumberVector, NumberVector): double</text><ellipse cx="18" cy="189.1797" fill="#84BE84" rx="3" ry="3" style="stroke:#038048;stroke-width:1.0;"/><text fill="#000000" font-family="sans-serif" font-size="14" lengthAdjust="spacing" textLength="203" x="27" y="192.5264">norm(NumberVector): double</text><ellipse cx="18" cy="205.4766" fill="#84BE84" rx="3" ry="3" style="stroke:#038048;stroke-width:1.0;"/><text fill="#000000" font-family="sans-serif" font-size="14" lengthAdjust="spacing" textLength="128" x="27" y="208.8232">isMetric(): boolean</text><ellipse cx="18" cy="221.7734" fill="#84BE84" rx="3" ry="3" style="stroke:#038048;stroke-width:1.0;"/><text fill="#000000" font-family="sans-serif" font-size="14" lengthAdjust="spacing" textLength="144" x="27" y="225.1201">isSquared(): boolean</text></g></a><!--MD5=[970b42ccd85b6540bcdde94f4dc11606]
class elki.distance.MatrixWeightedQuadraticDistance--><a href="MatrixWeightedQuadraticDistance.html" target="_top" title="MatrixWeightedQuadraticDistance.html" xlink:actuate="onRequest" xlink:href="MatrixWeightedQuadraticDistance.html" xlink:show="new" xlink:title="MatrixWeightedQuadraticDistance.html" xlink:type="simple"><g id="elem_elki.distance.MatrixWeightedQuadraticDistance"><rect codeLine="14" fill="#F1F1F1" height="37.9375" id="elki.distance.MatrixWeightedQuadraticDistance" rx="2.5" ry="2.5" style="stroke:#181818;stroke-width:0.5;" width="265" x="54.5" y="7"/><ellipse cx="69.5" cy="25.9688" fill="#ADD1B2" rx="11" ry="11" style="stroke:#181818;stroke-width:1.0;"/><path d="M72.4688,31.6094 Q71.8906,31.9063 71.25,32.0469 Q70.6094,32.2031 69.9063,32.2031 Q67.4063,32.2031 66.0781,30.5625 Q64.7656,28.9063 64.7656,25.7813 Q64.7656,22.6563 66.0781,21 Q67.4063,19.3438 69.9063,19.3438 Q70.6094,19.3438 71.25,19.5 Q71.9063,19.6563 72.4688,19.9531 L72.4688,22.6719 Q71.8438,22.0938 71.25,21.8281 Q70.6563,21.5469 70.0313,21.5469 Q68.6875,21.5469 68,22.625 Q67.3125,23.6875 67.3125,25.7813 Q67.3125,27.875 68,28.9531 Q68.6875,30.0156 70.0313,30.0156 Q70.6563,30.0156 71.25,29.75 Q71.8438,29.4688 72.4688,28.8906 L72.4688,31.6094 Z " fill="#000000"/><text fill="#000000" font-family="sans-serif" font-size="14" lengthAdjust="spacing" textLength="233" x="83.5" y="24.9951">MatrixWeightedQuadraticDistance</text><text fill="#000000" font-family="sans-serif" font-size="10" lengthAdjust="spacing" textLength="58" x="171" y="37.5791">elki.distance</text></g></a><!--MD5=[93de88bc5e467a762edf9d6b619b901d]
reverse link elki.distance.MatrixWeightedQuadraticDistance to elki.distance.MahalanobisDistance--><g id="link_elki.distance.MatrixWeightedQuadraticDistance_elki.distance.MahalanobisDistance"><path codeLine="16" d="M187,65.45 C187,77.66 187,91.49 187,104.95 " fill="none" id="elki.distance.MatrixWeightedQuadraticDistance-backto-elki.distance.MahalanobisDistance" style="stroke:#181818;stroke-width:1.0;"/><polygon fill="none" points="180,65.08,187,45.08,194,65.08,180,65.08" style="stroke:#181818;stroke-width:1.0;"/></g><rect fill="none" height="11.6406" style="stroke:none;stroke-width:1.0;" width="186" x="87" y="238.4219"/><text fill="#888888" font-family="sans-serif" font-size="10" lengthAdjust="spacing" textLength="186" x="87" y="247.7041">UMLDoclet 2.0.19, PlantUML 1.2022.8</text><!--MD5=[7b3176504355c9b6f11d4322f34dff18]
@startuml
    remove .*\.(Instance|Par|Parameterizer|Factory)$
    set namespaceSeparator none
    hide empty fields
    hide empty methods

    class "<size:14>MahalanobisDistance\n<size:10>elki.distance" as elki.distance.MahalanobisDistance [[MahalanobisDistance.html]] {
        +MahalanobisDistance(double[])
        +distance(NumberVector, NumberVector): double
        +norm(NumberVector): double
        +isMetric(): boolean
        +isSquared(): boolean
    }

    class "<size:14>MatrixWeightedQuadraticDistance\n<size:10>elki.distance" as elki.distance.MatrixWeightedQuadraticDistance [[MatrixWeightedQuadraticDistance.html]]

    elki.distance.MatrixWeightedQuadraticDistance <|- - elki.distance.MahalanobisDistance

    center footer UMLDoclet 2.0.19, PlantUML 1.2022.8
@enduml

PlantUML version 1.2022.8(Sun Sep 25 11:00:33 CEST 2022)
(APACHE source distribution)
Java Runtime: OpenJDK Runtime Environment
JVM: OpenJDK 64-Bit Server VM
Default Encoding: UTF-8
Language: de
Country: DE
--></g></svg>