<?xml version="1.0" encoding="UTF-8" standalone="no"?><svg xmlns="http://www.w3.org/2000/svg" xmlns:xlink="http://www.w3.org/1999/xlink" contentStyleType="text/css" height="249px" preserveAspectRatio="none" style="width:292px;height:249px;background:#FFFFFF;" version="1.1" viewBox="0 0 292 249" width="292px" zoomAndPan="magnify"><defs/><g><!--MD5=[fc45c11b4c98ad05e15a97d7e660aae9]
class elki.logging.progress.ProgressLogRecord--><a href="ProgressLogRecord.html" target="_top" title="ProgressLogRecord.html" xlink:actuate="onRequest" xlink:href="ProgressLogRecord.html" xlink:show="new" xlink:title="ProgressLogRecord.html" xlink:type="simple"><g id="elem_elki.logging.progress.ProgressLogRecord"><rect codeLine="6" fill="#F1F1F1" height="119.125" id="elki.logging.progress.ProgressLogRecord" rx="2.5" ry="2.5" style="stroke:#181818;stroke-width:0.5;" width="278" x="7" y="105"/><ellipse cx="73.25" cy="123.9688" fill="#ADD1B2" rx="11" ry="11" style="stroke:#181818;stroke-width:1.0;"/><path d="M76.2188,129.6094 Q75.6406,129.9063 75,130.0469 Q74.3594,130.2031 73.6563,130.2031 Q71.1563,130.2031 69.8281,128.5625 Q68.5156,126.9063 68.5156,123.7813 Q68.5156,120.6563 69.8281,119 Q71.1563,117.3438 73.6563,117.3438 Q74.3594,117.3438 75,117.5 Q75.6563,117.6563 76.2188,117.9531 L76.2188,120.6719 Q75.5938,120.0938 75,119.8281 Q74.4063,119.5469 73.7813,119.5469 Q72.4375,119.5469 71.75,120.625 Q71.0625,121.6875 71.0625,123.7813 Q71.0625,125.875 71.75,126.9531 Q72.4375,128.0156 73.7813,128.0156 Q74.4063,128.0156 75,127.75 Q75.5938,127.4688 76.2188,126.8906 L76.2188,129.6094 Z " fill="#000000"/><text fill="#000000" font-family="sans-serif" font-size="14" lengthAdjust="spacing" textLength="137" x="93.75" y="122.9951">ProgressLogRecord</text><text fill="#000000" font-family="sans-serif" font-size="10" lengthAdjust="spacing" textLength="97" x="113.75" y="135.5791">elki.logging.progress</text><line style="stroke:#181818;stroke-width:0.5;" x1="8" x2="284" y1="142.9375" y2="142.9375"/><rect fill="none" height="6" style="stroke:#C82930;stroke-width:1.0;" width="6" x="15" y="153.5859"/><text fill="#000000" font-family="sans-serif" font-size="14" lengthAdjust="spacing" text-decoration="underline" textLength="151" x="27" y="159.9326">serialVersionUID: long</text><rect fill="none" height="6" style="stroke:#C82930;stroke-width:1.0;" width="6" x="15" y="169.8828"/><text fill="#000000" font-family="sans-serif" font-size="14" lengthAdjust="spacing" textLength="133" x="27" y="176.2295">progress: Progress</text><line style="stroke:#181818;stroke-width:0.5;" x1="8" x2="284" y1="183.5313" y2="183.5313"/><ellipse cx="18" cy="197.1797" fill="#84BE84" rx="3" ry="3" style="stroke:#038048;stroke-width:1.0;"/><text fill="#000000" font-family="sans-serif" font-size="14" lengthAdjust="spacing" textLength="252" x="27" y="200.5264">ProgressLogRecord(Level, Progress)</text><ellipse cx="18" cy="213.4766" fill="#84BE84" rx="3" ry="3" style="stroke:#038048;stroke-width:1.0;"/><text fill="#000000" font-family="sans-serif" font-size="14" lengthAdjust="spacing" textLength="166" x="27" y="216.8232">getProgress(): Progress</text></g></a><!--MD5=[7e4d3a2c2eede8c47f064b63a36928e1]
class elki.logging.ELKILogRecord--><a href="../ELKILogRecord.html" target="_top" title="../ELKILogRecord.html" xlink:actuate="onRequest" xlink:href="../ELKILogRecord.html" xlink:show="new" xlink:title="../ELKILogRecord.html" xlink:type="simple"><g id="elem_elki.logging.ELKILogRecord"><rect codeLine="13" fill="#F1F1F1" height="37.9375" id="elki.logging.ELKILogRecord" rx="2.5" ry="2.5" style="stroke:#181818;stroke-width:0.5;" width="135" x="78.5" y="7"/><ellipse cx="93.5" cy="25.9688" fill="#ADD1B2" rx="11" ry="11" style="stroke:#181818;stroke-width:1.0;"/><path d="M96.4688,31.6094 Q95.8906,31.9063 95.25,32.0469 Q94.6094,32.2031 93.9063,32.2031 Q91.4063,32.2031 90.0781,30.5625 Q88.7656,28.9063 88.7656,25.7813 Q88.7656,22.6563 90.0781,21 Q91.4063,19.3438 93.9063,19.3438 Q94.6094,19.3438 95.25,19.5 Q95.9063,19.6563 96.4688,19.9531 L96.4688,22.6719 Q95.8438,22.0938 95.25,21.8281 Q94.6563,21.5469 94.0313,21.5469 Q92.6875,21.5469 92,22.625 Q91.3125,23.6875 91.3125,25.7813 Q91.3125,27.875 92,28.9531 Q92.6875,30.0156 94.0313,30.0156 Q94.6563,30.0156 95.25,29.75 Q95.8438,29.4688 96.4688,28.8906 L96.4688,31.6094 Z " fill="#000000"/><text fill="#000000" font-family="sans-serif" font-size="14" lengthAdjust="spacing" textLength="103" x="107.5" y="24.9951">ELKILogRecord</text><text fill="#000000" font-family="sans-serif" font-size="10" lengthAdjust="spacing" textLength="52" x="133" y="37.5791">elki.logging</text></g></a><!--MD5=[f36c7011359c3bf07bf5cddc498ba11a]
reverse link elki.logging.ELKILogRecord to elki.logging.progress.ProgressLogRecord--><g id="link_elki.logging.ELKILogRecord_elki.logging.progress.ProgressLogRecord"><path codeLine="15" d="M146,65.5 C146,77.69 146,91.46 146,104.73 " fill="none" id="elki.logging.ELKILogRecord-backto-elki.logging.progress.ProgressLogRecord" style="stroke:#181818;stroke-width:1.0;"/><polygon fill="none" points="139,65.13,146,45.13,153,65.13,139,65.13" style="stroke:#181818;stroke-width:1.0;"/></g><rect fill="none" height="11.6406" style="stroke:none;stroke-width:1.0;" width="186" x="46" y="230.125"/><text fill="#888888" font-family="sans-serif" font-size="10" lengthAdjust="spacing" textLength="186" x="46" y="239.4072">UMLDoclet 2.0.19, PlantUML 1.2022.8</text><!--MD5=[65f54518ffa51fa7456e0e69d69e6ba2]
@startuml
    remove .*\.(Instance|Par|Parameterizer|Factory)$
    set namespaceSeparator none
    hide empty fields
    hide empty methods

    class "<size:14>ProgressLogRecord\n<size:10>elki.logging.progress" as elki.logging.progress.ProgressLogRecord [[ProgressLogRecord.html]] {
        {static} -serialVersionUID: long
        -progress: Progress
        +ProgressLogRecord(Level, Progress)
        +getProgress(): Progress
    }

    class "<size:14>ELKILogRecord\n<size:10>elki.logging" as elki.logging.ELKILogRecord [[../ELKILogRecord.html]]

    elki.logging.ELKILogRecord <|- - elki.logging.progress.ProgressLogRecord

    center footer UMLDoclet 2.0.19, PlantUML 1.2022.8
@enduml

PlantUML version 1.2022.8(Sun Sep 25 11:00:33 CEST 2022)
(APACHE source distribution)
Java Runtime: OpenJDK Runtime Environment
JVM: OpenJDK 64-Bit Server VM
Default Encoding: UTF-8
Language: de
Country: DE
--></g></svg>