<?xml version="1.0" encoding="UTF-8" standalone="no"?>
<!DOCTYPE svg PUBLIC "-//W3C//DTD SVG 1.1//EN"
 "http://www.w3.org/Graphics/SVG/1.1/DTD/svg11.dtd">
<!-- Generated by graphviz version 2.40.1 (20161225.0304)
 -->
<!-- Title: G Pages: 1 -->
<svg width="406pt" height="87pt"
 viewBox="0.00 0.00 406.00 86.50" xmlns="http://www.w3.org/2000/svg" xmlns:xlink="http://www.w3.org/1999/xlink">
<g id="graph0" class="graph" transform="scale(1 1) rotate(0) translate(4 82.5)">
<title>G</title>
<polygon fill="#ffffff" stroke="transparent" points="-4,4 -4,-82.5 402,-82.5 402,4 -4,4"/>
<!-- c2328108 -->
<g id="node1" class="node">
<title>c2328108</title>
<g id="a_node1"><a xlink:href="../../data/NumberVector.html" xlink:title="&lt;TABLE&gt;">
<g id="a_node1_0"><a xlink:href="../../data/NumberVector.html" xlink:title="de.lmu.ifi.dbs.elki.data.NumberVector" target="_parent">
<polygon fill="#fffacd" stroke="transparent" points="302,-39.5 302,-78.5 389,-78.5 389,-39.5 302,-39.5"/>
<polygon fill="none" stroke="#000000" points="302.5,-39 302.5,-78 389.5,-78 389.5,-39 302.5,-39"/>
<text text-anchor="start" x="324.5" y="-67.6" font-family="Roboto" font-size="8.00" fill="#000000"> «interface» </text>
<text text-anchor="start" x="317.5" y="-57.6" font-family="Roboto" font-size="8.00" fill="#000000"> </text>
<text text-anchor="start" x="320.5" y="-57.6" font-family="Roboto" font-size="8.00" fill="#000000">NumberVector</text>
<text text-anchor="start" x="371.5" y="-57.6" font-family="Roboto" font-size="8.00" fill="#000000"> </text>
<text text-anchor="start" x="306.5" y="-46.6" font-family="Roboto" font-size="8.00" fill="#000000"> </text>
<text text-anchor="start" x="309.5" y="-46.6" font-family="Roboto" font-size="7.00" fill="#000000">de.lmu.ifi.dbs.elki.data</text>
<text text-anchor="start" x="382.5" y="-46.6" font-family="Roboto" font-size="8.00" fill="#000000"> </text>
</a>
</g>
</a>
</g>
</g>
<!-- c2329695 -->
<g id="node2" class="node">
<title>c2329695</title>
<g id="a_node2"><a xlink:href="NumberVectorLabelParser.html" xlink:title="&lt;TABLE&gt;">
<g id="a_node2_1"><a xlink:href="NumberVectorLabelParser.html" xlink:title="de.lmu.ifi.dbs.elki.datasource.parser.NumberVectorLabelParser" target="_parent">
<polygon fill="#fffacd" stroke="transparent" points="0,-19.5 0,-36.5 107,-36.5 107,-19.5 0,-19.5"/>
<polygon fill="none" stroke="#000000" points=".5,-19 .5,-36 107.5,-36 107.5,-19 .5,-19"/>
<text text-anchor="start" x="4.5" y="-26.6" font-family="Roboto" font-size="8.00" fill="#000000"> </text>
<text text-anchor="start" x="7.5" y="-26.6" font-family="Roboto" font-size="8.00" fill="#000000">NumberVectorLabelParser</text>
<text text-anchor="start" x="100.5" y="-26.6" font-family="Roboto" font-size="8.00" fill="#000000"> </text>
</a>
</g>
</a>
</g>
</g>
<!-- c2329695&#45;&gt;c2328108 -->
<g id="edge1" class="edge">
<title>c2329695&#45;&gt;c2328108</title>
<path fill="none" stroke="#000000" d="M119.2578,-36.1773C121.191,-36.4672 123.1082,-36.7428 125,-37 186.0618,-45.3032 257.2298,-49.8772 301.8302,-53.3664"/>
<polygon fill="none" stroke="#000000" points="119.1134,-36.1543 112.5554,-39.1529 107.265,-34.2527 113.8231,-31.254 119.1134,-36.1543"/>
</g>
<!-- c2329695&#45;&gt;c2328108 -->
<g id="edge5" class="edge">
<title>c2329695&#45;&gt;c2328108</title>
<path fill="none" stroke="#000000" stroke-dasharray="5,2" d="M69.8807,-36.5158C84.3145,-40.9596 105.949,-45.4094 125,-48 181.6491,-55.7032 246.9966,-60.1966 291.7586,-61.4274"/>
<polygon fill="#000000" stroke="#000000" points="301.8302,-61.6556 291.7308,-65.9279 296.8315,-61.5423 291.8328,-61.429 291.8328,-61.429 291.8328,-61.429 296.8315,-61.5423 291.9348,-56.9302 301.8302,-61.6556 301.8302,-61.6556"/>
</g>
<!-- c2329707 -->
<g id="node3" class="node">
<title>c2329707</title>
<g id="a_node3"><a xlink:href="CategorialDataAsNumberVectorParser.html" xlink:title="&lt;TABLE&gt;">
<g id="a_node3_2"><a xlink:href="CategorialDataAsNumberVectorParser.html" xlink:title="de.lmu.ifi.dbs.elki.datasource.parser.CategorialDataAsNumberVectorParser" target="_parent">
<polygon fill="#fffacd" stroke="transparent" points="125,-19.5 125,-36.5 275,-36.5 275,-19.5 125,-19.5"/>
<polygon fill="none" stroke="#000000" points="125,-19 125,-36 275,-36 275,-19 125,-19"/>
<text text-anchor="start" x="129" y="-26.6" font-family="Roboto" font-size="8.00" fill="#000000"> </text>
<text text-anchor="start" x="132" y="-26.6" font-family="Roboto" font-size="8.00" fill="#000000">CategorialDataAsNumberVectorParser</text>
<text text-anchor="start" x="268" y="-26.6" font-family="Roboto" font-size="8.00" fill="#000000"> </text>
</a>
</g>
</a>
</g>
</g>
<!-- c2329695&#45;&gt;c2329707 -->
<g id="edge2" class="edge">
<title>c2329695&#45;&gt;c2329707</title>
<path fill="none" stroke="#000000" d="M117.4209,-28C119.9302,-28 122.4544,-28 124.9814,-28"/>
<polygon fill="none" stroke="#000000" points="117.2194,-24.5001 107.2193,-28 117.2193,-31.5001 117.2194,-24.5001"/>
</g>
<!-- c2329707&#45;&gt;c2328108 -->
<g id="edge3" class="edge">
<title>c2329707&#45;&gt;c2328108</title>
<path fill="none" stroke="#000000" d="M269.4163,-39.0432C280.475,-41.3761 291.6365,-43.8467 301.876,-46.2365"/>
<polygon fill="none" stroke="#000000" points="269.256,-39.0101 262.5694,-41.71 257.5055,-36.5762 264.1921,-33.8763 269.256,-39.0101"/>
</g>
<!-- c2329707&#45;&gt;c2328108 -->
<g id="edge6" class="edge">
<title>c2329707&#45;&gt;c2328108</title>
<path fill="none" stroke="#000000" stroke-dasharray="5,2" d="M224.0264,-36.5632C242.3774,-41.4309 268.3833,-47.2778 291.6273,-51.8845"/>
<polygon fill="#000000" stroke="#000000" points="301.7312,-53.841 291.058,-56.3578 296.8223,-52.8904 291.9135,-51.9399 291.9135,-51.9399 291.9135,-51.9399 296.8223,-52.8904 292.769,-47.5219 301.7312,-53.841 301.7312,-53.841"/>
</g>
<!-- c2330146 -->
<g id="node4" class="node">
<title>c2330146</title>
<g id="a_node4"><a xlink:href="http://docs.oracle.com/javase/7/docs/api/it/unimi/dsi/fastutil/objects/Object2IntOpenHashMap.html" xlink:title="&lt;TABLE&gt;">
<g id="a_node4_3"><a xlink:href="http://docs.oracle.com/javase/7/docs/api/it/unimi/dsi/fastutil/objects/Object2IntOpenHashMap.html" xlink:title="it.unimi.dsi.fastutil.objects.Object2IntOpenHashMap" target="_parent">
<polygon fill="none" stroke="#000000" points="293.5,0 293.5,-28 398.5,-28 398.5,0 293.5,0"/>
<text text-anchor="start" x="297.5" y="-18.6" font-family="Roboto" font-size="8.00" fill="#000000"> </text>
<text text-anchor="start" x="300.5" y="-18.6" font-family="Roboto" font-size="8.00" fill="#000000">Object2IntOpenHashMap</text>
<text text-anchor="start" x="391.5" y="-18.6" font-family="Roboto" font-size="8.00" fill="#000000"> </text>
<text text-anchor="start" x="299" y="-7.6" font-family="Roboto" font-size="8.00" fill="#000000"> </text>
<text text-anchor="start" x="302" y="-7.6" font-family="Roboto" font-size="7.00" fill="#000000">it.unimi.dsi.fastutil.objects</text>
<text text-anchor="start" x="390" y="-7.6" font-family="Roboto" font-size="8.00" fill="#000000"> </text>
</a>
</g>
</a>
</g>
</g>
<!-- c2329707&#45;&gt;c2330146 -->
<g id="edge4" class="edge">
<title>c2329707&#45;&gt;c2330146</title>
<path fill="none" stroke="#000000" d="M275.3071,-20.754C277.823,-20.5119 280.3347,-20.2702 282.8303,-20.0301"/>
<polygon fill="#000000" stroke="#000000" points="292.9679,-19.0546 283.445,-24.4918 287.9909,-19.5336 283.0139,-20.0125 283.0139,-20.0125 283.0139,-20.0125 287.9909,-19.5336 282.5829,-15.5332 292.9679,-19.0546 292.9679,-19.0546"/>
</g>
</g>
</svg>
