<?xml version="1.0" encoding="UTF-8" standalone="no"?>
<!DOCTYPE svg PUBLIC "-//W3C//DTD SVG 1.1//EN"
 "http://www.w3.org/Graphics/SVG/1.1/DTD/svg11.dtd">
<!-- Generated by graphviz version 2.40.1 (20161225.0304)
 -->
<!-- Title: G Pages: 1 -->
<svg width="375pt" height="255pt"
 viewBox="0.00 0.00 375.00 255.00" xmlns="http://www.w3.org/2000/svg" xmlns:xlink="http://www.w3.org/1999/xlink">
<g id="graph0" class="graph" transform="scale(1 1) rotate(0) translate(4 251)">
<title>G</title>
<polygon fill="#ffffff" stroke="transparent" points="-4,4 -4,-251 371,-251 371,4 -4,4"/>
<!-- c2695215 -->
<g id="node1" class="node">
<title>c2695215</title>
<g id="a_node1"><a xlink:href="../../data/Clustering.html" xlink:title="&lt;TABLE&gt;">
<g id="a_node1_0"><a xlink:href="../../data/Clustering.html" xlink:title="de.lmu.ifi.dbs.elki.data.Clustering" target="_parent">
<polygon fill="none" stroke="#000000" points="257.5,-219 257.5,-247 344.5,-247 344.5,-219 257.5,-219"/>
<text text-anchor="start" x="279.5" y="-237.6" font-family="Roboto" font-size="8.00" fill="#000000"> </text>
<text text-anchor="start" x="282.5" y="-237.6" font-family="Roboto" font-size="8.00" fill="#000000">Clustering</text>
<text text-anchor="start" x="319.5" y="-237.6" font-family="Roboto" font-size="8.00" fill="#000000"> </text>
<text text-anchor="start" x="261.5" y="-226.6" font-family="Roboto" font-size="8.00" fill="#000000"> </text>
<text text-anchor="start" x="264.5" y="-226.6" font-family="Roboto" font-size="7.00" fill="#000000">de.lmu.ifi.dbs.elki.data</text>
<text text-anchor="start" x="337.5" y="-226.6" font-family="Roboto" font-size="8.00" fill="#000000"> </text>
</a>
</g>
</a>
</g>
</g>
<!-- c2695238 -->
<g id="node2" class="node">
<title>c2695238</title>
<g id="a_node2"><a xlink:href="ClusteringVectorParser.html" xlink:title="&lt;TABLE&gt;">
<g id="a_node2_1"><a xlink:href="ClusteringVectorParser.html" xlink:title="de.lmu.ifi.dbs.elki.datasource.parser.ClusteringVectorParser" target="_parent">
<polygon fill="#fffacd" stroke="transparent" points="121,-179.5 121,-196.5 216,-196.5 216,-179.5 121,-179.5"/>
<polygon fill="none" stroke="#000000" points="121.5,-179 121.5,-196 216.5,-196 216.5,-179 121.5,-179"/>
<text text-anchor="start" x="125.5" y="-186.6" font-family="Roboto" font-size="8.00" fill="#000000"> </text>
<text text-anchor="start" x="128.5" y="-186.6" font-family="Roboto" font-size="8.00" fill="#000000">ClusteringVectorParser</text>
<text text-anchor="start" x="209.5" y="-186.6" font-family="Roboto" font-size="8.00" fill="#000000"> </text>
</a>
</g>
</a>
</g>
</g>
<!-- c2695238&#45;&gt;c2695215 -->
<g id="edge2" class="edge">
<title>c2695238&#45;&gt;c2695215</title>
<path fill="none" stroke="#000000" d="M201.4105,-201.0953C211.7811,-205.0777 223.3176,-209.3603 234,-213 241.3035,-215.4884 249.1116,-217.9826 256.7153,-220.3242"/>
<polygon fill="none" stroke="#000000" points="201.0764,-200.9654 194.0344,-202.5179 189.8929,-196.6147 196.9349,-195.0622 201.0764,-200.9654"/>
</g>
<!-- c2695817 -->
<g id="node3" class="node">
<title>c2695817</title>
<g id="a_node3"><a xlink:href="../bundle/BundleStreamSource.Event.html" xlink:title="&lt;TABLE&gt;">
<g id="a_node3_2"><a xlink:href="../bundle/BundleStreamSource.Event.html" xlink:title="de.lmu.ifi.dbs.elki.datasource.bundle.BundleStreamSource.Event" target="_parent">
<polygon fill="none" stroke="#000000" points="234.5,-168 234.5,-207 367.5,-207 367.5,-168 234.5,-168"/>
<text text-anchor="start" x="273" y="-196.6" font-family="Roboto" font-size="8.00" fill="#000000"> «enumeration» </text>
<text text-anchor="start" x="251" y="-186.6" font-family="Roboto" font-size="8.00" fill="#000000"> </text>
<text text-anchor="start" x="254" y="-186.6" font-family="Roboto" font-size="8.00" fill="#000000">BundleStreamSource.Event</text>
<text text-anchor="start" x="348" y="-186.6" font-family="Roboto" font-size="8.00" fill="#000000"> </text>
<text text-anchor="start" x="238.5" y="-175.6" font-family="Roboto" font-size="8.00" fill="#000000"> </text>
<text text-anchor="start" x="241.5" y="-175.6" font-family="Roboto" font-size="7.00" fill="#000000">de.lmu.ifi.dbs.elki.datasource.bundle</text>
<text text-anchor="start" x="360.5" y="-175.6" font-family="Roboto" font-size="8.00" fill="#000000"> </text>
</a>
</g>
</a>
</g>
</g>
<!-- c2695238&#45;&gt;c2695817 -->
<g id="edge4" class="edge">
<title>c2695238&#45;&gt;c2695817</title>
<path fill="none" stroke="#000000" d="M216.155,-188C218.6751,-188 221.2339,-188 223.8151,-188"/>
<polygon fill="#000000" stroke="#000000" points="233.8474,-188 223.8475,-192.5001 228.8474,-188 223.8474,-188.0001 223.8474,-188.0001 223.8474,-188.0001 228.8474,-188 223.8474,-183.5001 233.8474,-188 233.8474,-188"/>
</g>
<!-- c2695818 -->
<g id="node4" class="node">
<title>c2695818</title>
<g id="a_node4"><a xlink:href="../bundle/BundleMeta.html" xlink:title="&lt;TABLE&gt;">
<g id="a_node4_3"><a xlink:href="../bundle/BundleMeta.html" xlink:title="de.lmu.ifi.dbs.elki.datasource.bundle.BundleMeta" target="_parent">
<polygon fill="none" stroke="#000000" points="234.5,-129 234.5,-157 367.5,-157 367.5,-129 234.5,-129"/>
<text text-anchor="start" x="276.5" y="-147.6" font-family="Roboto" font-size="8.00" fill="#000000"> </text>
<text text-anchor="start" x="279.5" y="-147.6" font-family="Roboto" font-size="8.00" fill="#000000">BundleMeta</text>
<text text-anchor="start" x="322.5" y="-147.6" font-family="Roboto" font-size="8.00" fill="#000000"> </text>
<text text-anchor="start" x="238.5" y="-136.6" font-family="Roboto" font-size="8.00" fill="#000000"> </text>
<text text-anchor="start" x="241.5" y="-136.6" font-family="Roboto" font-size="7.00" fill="#000000">de.lmu.ifi.dbs.elki.datasource.bundle</text>
<text text-anchor="start" x="360.5" y="-136.6" font-family="Roboto" font-size="8.00" fill="#000000"> </text>
</a>
</g>
</a>
</g>
</g>
<!-- c2695238&#45;&gt;c2695818 -->
<g id="edge3" class="edge">
<title>c2695238&#45;&gt;c2695818</title>
<path fill="none" stroke="#000000" d="M189.8929,-179.3853C202.6218,-174.3724 219.1375,-168.0639 234,-163 236.8743,-162.0207 239.8268,-161.0404 242.8142,-160.069"/>
<polygon fill="#000000" stroke="#000000" points="252.4213,-157.008 244.2594,-164.3315 247.6573,-158.5259 242.8933,-160.0438 242.8933,-160.0438 242.8933,-160.0438 247.6573,-158.5259 241.5271,-155.7562 252.4213,-157.008 252.4213,-157.008"/>
</g>
<!-- c2695910 -->
<g id="node5" class="node">
<title>c2695910</title>
<g id="a_node5"><a xlink:href="../../data/LabelList.html" xlink:title="&lt;TABLE&gt;">
<g id="a_node5_4"><a xlink:href="../../data/LabelList.html" xlink:title="de.lmu.ifi.dbs.elki.data.LabelList" target="_parent">
<polygon fill="none" stroke="#000000" points="257.5,-90 257.5,-118 344.5,-118 344.5,-90 257.5,-90"/>
<text text-anchor="start" x="281.5" y="-108.6" font-family="Roboto" font-size="8.00" fill="#000000"> </text>
<text text-anchor="start" x="284.5" y="-108.6" font-family="Roboto" font-size="8.00" fill="#000000">LabelList</text>
<text text-anchor="start" x="317.5" y="-108.6" font-family="Roboto" font-size="8.00" fill="#000000"> </text>
<text text-anchor="start" x="261.5" y="-97.6" font-family="Roboto" font-size="8.00" fill="#000000"> </text>
<text text-anchor="start" x="264.5" y="-97.6" font-family="Roboto" font-size="7.00" fill="#000000">de.lmu.ifi.dbs.elki.data</text>
<text text-anchor="start" x="337.5" y="-97.6" font-family="Roboto" font-size="8.00" fill="#000000"> </text>
</a>
</g>
</a>
</g>
</g>
<!-- c2695238&#45;&gt;c2695910 -->
<g id="edge5" class="edge">
<title>c2695238&#45;&gt;c2695910</title>
<path fill="none" stroke="#000000" d="M174.7466,-179.4565C185.3623,-165.5502 208.2889,-138.0622 234,-123 238.1829,-120.5495 242.7006,-118.3994 247.3433,-116.5158"/>
<polygon fill="#000000" stroke="#000000" points="256.9816,-113.0131 249.1201,-120.6581 252.2823,-114.7209 247.583,-116.4288 247.583,-116.4288 247.583,-116.4288 252.2823,-114.7209 246.0459,-112.1994 256.9816,-113.0131 256.9816,-113.0131"/>
</g>
<!-- c2695936 -->
<g id="node6" class="node">
<title>c2695936</title>
<g id="a_node6"><a xlink:href="../../database/ids/DBIDRange.html" xlink:title="&lt;TABLE&gt;">
<g id="a_node6_5"><a xlink:href="../../database/ids/DBIDRange.html" xlink:title="de.lmu.ifi.dbs.elki.database.ids.DBIDRange" target="_parent">
<polygon fill="none" stroke="#000000" points="244.5,-39 244.5,-78 357.5,-78 357.5,-39 244.5,-39"/>
<text text-anchor="start" x="279.5" y="-67.6" font-family="Roboto" font-size="8.00" fill="#000000"> «interface» </text>
<text text-anchor="start" x="276.5" y="-57.6" font-family="Roboto" font-size="8.00" fill="#000000"> </text>
<text text-anchor="start" x="279.5" y="-57.6" font-family="Roboto" font-size="8.00" fill="#000000">DBIDRange</text>
<text text-anchor="start" x="322.5" y="-57.6" font-family="Roboto" font-size="8.00" fill="#000000"> </text>
<text text-anchor="start" x="248.5" y="-46.6" font-family="Roboto" font-size="8.00" fill="#000000"> </text>
<text text-anchor="start" x="251.5" y="-46.6" font-family="Roboto" font-size="7.00" fill="#000000">de.lmu.ifi.dbs.elki.database.ids</text>
<text text-anchor="start" x="350.5" y="-46.6" font-family="Roboto" font-size="8.00" fill="#000000"> </text>
</a>
</g>
</a>
</g>
</g>
<!-- c2695238&#45;&gt;c2695936 -->
<g id="edge7" class="edge">
<title>c2695238&#45;&gt;c2695936</title>
<path fill="none" stroke="#000000" d="M171.6685,-179.4151C179.3397,-159.7607 200.763,-111.1075 234,-84 234.4779,-83.6102 234.9625,-83.2261 235.4534,-82.8477"/>
<polygon fill="#000000" stroke="#000000" points="243.8827,-77.1961 238.0828,-86.5026 239.7297,-79.9805 235.5768,-82.765 235.5768,-82.765 235.5768,-82.765 239.7297,-79.9805 233.0708,-79.0273 243.8827,-77.1961 243.8827,-77.1961"/>
</g>
<!-- c2697841 -->
<g id="node8" class="node">
<title>c2697841</title>
<g id="a_node8"><a xlink:href="http://docs.oracle.com/javase/7/docs/api/it/unimi/dsi/fastutil/ints/IntArrayList.html" xlink:title="&lt;TABLE&gt;">
<g id="a_node8_6"><a xlink:href="http://docs.oracle.com/javase/7/docs/api/it/unimi/dsi/fastutil/ints/IntArrayList.html" xlink:title="it.unimi.dsi.fastutil.ints.IntArrayList" target="_parent">
<polygon fill="none" stroke="#000000" points="255.5,0 255.5,-28 346.5,-28 346.5,0 255.5,0"/>
<text text-anchor="start" x="277" y="-18.6" font-family="Roboto" font-size="8.00" fill="#000000"> </text>
<text text-anchor="start" x="280" y="-18.6" font-family="Roboto" font-size="8.00" fill="#000000">IntArrayList</text>
<text text-anchor="start" x="322" y="-18.6" font-family="Roboto" font-size="8.00" fill="#000000"> </text>
<text text-anchor="start" x="259.5" y="-7.6" font-family="Roboto" font-size="8.00" fill="#000000"> </text>
<text text-anchor="start" x="262.5" y="-7.6" font-family="Roboto" font-size="7.00" fill="#000000">it.unimi.dsi.fastutil.ints</text>
<text text-anchor="start" x="339.5" y="-7.6" font-family="Roboto" font-size="8.00" fill="#000000"> </text>
</a>
</g>
</a>
</g>
</g>
<!-- c2695238&#45;&gt;c2697841 -->
<g id="edge6" class="edge">
<title>c2695238&#45;&gt;c2697841</title>
<path fill="none" stroke="#000000" d="M169.6271,-179.1888C173.4491,-152.9967 188.3343,-74.8999 234,-34 237.4267,-30.931 241.3092,-28.3325 245.4355,-26.1325"/>
<polygon fill="#000000" stroke="#000000" points="254.776,-21.9248 247.5067,-30.135 250.2172,-23.9785 245.6584,-26.0321 245.6584,-26.0321 245.6584,-26.0321 250.2172,-23.9785 243.8101,-21.9292 254.776,-21.9248 254.776,-21.9248"/>
</g>
<!-- c2697408 -->
<g id="node7" class="node">
<title>c2697408</title>
<g id="a_node7"><a xlink:href="AbstractStreamingParser.html" xlink:title="&lt;TABLE&gt;">
<g id="a_node7_7"><a xlink:href="AbstractStreamingParser.html" xlink:title="de.lmu.ifi.dbs.elki.datasource.parser.AbstractStreamingParser" target="_parent">
<polygon fill="none" stroke="#000000" points=".5,-179 .5,-196 103.5,-196 103.5,-179 .5,-179"/>
<text text-anchor="start" x="4.5" y="-186.6" font-family="Roboto" font-size="8.00" fill="#000000"> </text>
<text text-anchor="start" x="7.5" y="-186.6" font-family="Roboto" font-style="italic" font-size="8.00" fill="#000000">AbstractStreamingParser</text>
<text text-anchor="start" x="96.5" y="-186.6" font-family="Roboto" font-size="8.00" fill="#000000"> </text>
</a>
</g>
</a>
</g>
</g>
<!-- c2697408&#45;&gt;c2695238 -->
<g id="edge1" class="edge">
<title>c2697408&#45;&gt;c2695238</title>
<path fill="none" stroke="#000000" d="M113.3979,-188C115.8887,-188 118.3711,-188 120.8273,-188"/>
<polygon fill="none" stroke="#000000" points="113.1585,-184.5001 103.1585,-188 113.1584,-191.5001 113.1585,-184.5001"/>
</g>
</g>
</svg>
