<?xml version="1.0" encoding="UTF-8" standalone="no"?>
<!DOCTYPE svg PUBLIC "-//W3C//DTD SVG 1.1//EN"
 "http://www.w3.org/Graphics/SVG/1.1/DTD/svg11.dtd">
<!-- Generated by graphviz version 2.40.1 (20161225.0304)
 -->
<!-- Title: G Pages: 1 -->
<svg width="672pt" height="157pt"
 viewBox="0.00 0.00 672.00 157.00" xmlns="http://www.w3.org/2000/svg" xmlns:xlink="http://www.w3.org/1999/xlink">
<g id="graph0" class="graph" transform="scale(1 1) rotate(0) translate(4 153)">
<title>G</title>
<polygon fill="#ffffff" stroke="transparent" points="-4,4 -4,-153 668,-153 668,4 -4,4"/>
<!-- c246763 -->
<g id="node1" class="node">
<title>c246763</title>
<g id="a_node1"><a xlink:href="ClusteringVectorParser.html" xlink:title="&lt;TABLE&gt;">
<g id="a_node1_0"><a xlink:href="ClusteringVectorParser.html" xlink:title="de.lmu.ifi.dbs.elki.datasource.parser.ClusteringVectorParser" target="_parent">
<polygon fill="none" stroke="#000000" points="287.5,-117.5 287.5,-134.5 382.5,-134.5 382.5,-117.5 287.5,-117.5"/>
<text text-anchor="start" x="291.5" y="-125.1" font-family="Roboto" font-size="8.00" fill="#000000"> </text>
<text text-anchor="start" x="294.5" y="-125.1" font-family="Roboto" font-size="8.00" fill="#000000">ClusteringVectorParser</text>
<text text-anchor="start" x="375.5" y="-125.1" font-family="Roboto" font-size="8.00" fill="#000000"> </text>
</a>
</g>
</a>
</g>
</g>
<!-- c248915 -->
<g id="node2" class="node">
<title>c248915</title>
<g id="a_node2"><a xlink:href="NumberVectorLabelParser.html" xlink:title="&lt;TABLE&gt;">
<g id="a_node2_1"><a xlink:href="NumberVectorLabelParser.html" xlink:title="de.lmu.ifi.dbs.elki.datasource.parser.NumberVectorLabelParser" target="_parent">
<polygon fill="#fffacd" stroke="transparent" points="281,-90 281,-107 388,-107 388,-90 281,-90"/>
<polygon fill="none" stroke="#000000" points="281.5,-89.5 281.5,-106.5 388.5,-106.5 388.5,-89.5 281.5,-89.5"/>
<text text-anchor="start" x="285.5" y="-97.1" font-family="Roboto" font-size="8.00" fill="#000000"> </text>
<text text-anchor="start" x="288.5" y="-97.1" font-family="Roboto" font-size="8.00" fill="#000000">NumberVectorLabelParser</text>
<text text-anchor="start" x="381.5" y="-97.1" font-family="Roboto" font-size="8.00" fill="#000000"> </text>
</a>
</g>
</a>
</g>
</g>
<!-- c248927 -->
<g id="node9" class="node">
<title>c248927</title>
<g id="a_node9"><a xlink:href="CategorialDataAsNumberVectorParser.html" xlink:title="&lt;TABLE&gt;">
<g id="a_node9_2"><a xlink:href="CategorialDataAsNumberVectorParser.html" xlink:title="de.lmu.ifi.dbs.elki.datasource.parser.CategorialDataAsNumberVectorParser" target="_parent">
<polygon fill="#fffacd" stroke="transparent" points="406,-132 406,-149 556,-149 556,-132 406,-132"/>
<polygon fill="none" stroke="#000000" points="406,-131.5 406,-148.5 556,-148.5 556,-131.5 406,-131.5"/>
<text text-anchor="start" x="410" y="-139.1" font-family="Roboto" font-size="8.00" fill="#000000"> </text>
<text text-anchor="start" x="413" y="-139.1" font-family="Roboto" font-size="8.00" fill="#000000">CategorialDataAsNumberVectorParser</text>
<text text-anchor="start" x="549" y="-139.1" font-family="Roboto" font-size="8.00" fill="#000000"> </text>
</a>
</g>
</a>
</g>
</g>
<!-- c248915&#45;&gt;c248927 -->
<g id="edge7" class="edge">
<title>c248915&#45;&gt;c248927</title>
<path fill="none" stroke="#000000" d="M383.9527,-110.6302C385.3297,-111.2264 386.6817,-111.8493 388,-112.5 397.0882,-116.9857 396.7575,-122.3416 406,-126.5 410.711,-128.6196 415.7272,-130.4183 420.8464,-131.9447"/>
<polygon fill="none" stroke="#000000" points="385.1867,-107.355 374.5956,-107.0735 382.6995,-113.8982 385.1867,-107.355"/>
</g>
<!-- c248929 -->
<g id="node10" class="node">
<title>c248929</title>
<g id="a_node10"><a xlink:href="BitVectorLabelParser.html" xlink:title="&lt;TABLE&gt;">
<g id="a_node10_3"><a xlink:href="BitVectorLabelParser.html" xlink:title="de.lmu.ifi.dbs.elki.datasource.parser.BitVectorLabelParser" target="_parent">
<polygon fill="none" stroke="#000000" points="437,-103.5 437,-120.5 525,-120.5 525,-103.5 437,-103.5"/>
<text text-anchor="start" x="441" y="-111.1" font-family="Roboto" font-size="8.00" fill="#000000"> </text>
<text text-anchor="start" x="444" y="-111.1" font-family="Roboto" font-size="8.00" fill="#000000">BitVectorLabelParser</text>
<text text-anchor="start" x="518" y="-111.1" font-family="Roboto" font-size="8.00" fill="#000000"> </text>
</a>
</g>
</a>
</g>
</g>
<!-- c248915&#45;&gt;c248929 -->
<g id="edge8" class="edge">
<title>c248915&#45;&gt;c248929</title>
<path fill="none" stroke="#000000" d="M398.4955,-104.6156C411.4534,-105.8539 424.804,-107.1297 436.89,-108.2847"/>
<polygon fill="none" stroke="#000000" points="398.507,-101.1008 388.2193,-103.6336 397.841,-108.0691 398.507,-101.1008"/>
</g>
<!-- c248935 -->
<g id="node13" class="node">
<title>c248935</title>
<g id="a_node13"><a xlink:href="SparseNumberVectorLabelParser.html" xlink:title="&lt;TABLE&gt;">
<g id="a_node13_4"><a xlink:href="SparseNumberVectorLabelParser.html" xlink:title="de.lmu.ifi.dbs.elki.datasource.parser.SparseNumberVectorLabelParser" target="_parent">
<polygon fill="none" stroke="#000000" points="416,-75.5 416,-92.5 547,-92.5 547,-75.5 416,-75.5"/>
<text text-anchor="start" x="420" y="-83.1" font-family="Roboto" font-size="8.00" fill="#000000"> </text>
<text text-anchor="start" x="423" y="-83.1" font-family="Roboto" font-size="8.00" fill="#000000">SparseNumberVectorLabelParser</text>
<text text-anchor="start" x="540" y="-83.1" font-family="Roboto" font-size="8.00" fill="#000000"> </text>
</a>
</g>
</a>
</g>
</g>
<!-- c248915&#45;&gt;c248935 -->
<g id="edge12" class="edge">
<title>c248915&#45;&gt;c248935</title>
<path fill="none" stroke="#000000" d="M398.2834,-92.4047C403.9371,-91.8644 409.6672,-91.3168 415.3361,-90.7751"/>
<polygon fill="none" stroke="#000000" points="397.841,-88.9309 388.2193,-93.3664 398.507,-95.8992 397.841,-88.9309"/>
</g>
<!-- c248939 -->
<g id="node15" class="node">
<title>c248939</title>
<g id="a_node15"><a xlink:href="TermFrequencyParser.html" xlink:title="&lt;TABLE&gt;">
<g id="a_node15_5"><a xlink:href="TermFrequencyParser.html" xlink:title="de.lmu.ifi.dbs.elki.datasource.parser.TermFrequencyParser" target="_parent">
<polygon fill="none" stroke="#000000" points="436,-47.5 436,-64.5 527,-64.5 527,-47.5 436,-47.5"/>
<text text-anchor="start" x="440" y="-55.1" font-family="Roboto" font-size="8.00" fill="#000000"> </text>
<text text-anchor="start" x="443" y="-55.1" font-family="Roboto" font-size="8.00" fill="#000000">TermFrequencyParser</text>
<text text-anchor="start" x="520" y="-55.1" font-family="Roboto" font-size="8.00" fill="#000000"> </text>
</a>
</g>
</a>
</g>
</g>
<!-- c248915&#45;&gt;c248939 -->
<g id="edge14" class="edge">
<title>c248915&#45;&gt;c248939</title>
<path fill="none" stroke="#000000" d="M383.9527,-86.3698C385.3297,-85.7736 386.6817,-85.1507 388,-84.5 397.0882,-80.0143 396.7575,-74.6584 406,-70.5 415.0596,-66.4239 425.2481,-63.5345 435.1265,-61.4863"/>
<polygon fill="none" stroke="#000000" points="382.6995,-83.1018 374.5956,-89.9265 385.1867,-89.645 382.6995,-83.1018"/>
</g>
<!-- c248917 -->
<g id="node3" class="node">
<title>c248917</title>
<g id="a_node3"><a xlink:href="StreamingParser.html" xlink:title="&lt;TABLE&gt;">
<g id="a_node3_6"><a xlink:href="StreamingParser.html" xlink:title="de.lmu.ifi.dbs.elki.datasource.parser.StreamingParser" target="_parent">
<polygon fill="none" stroke="#000000" points="69.5,-56.5 69.5,-84.5 142.5,-84.5 142.5,-56.5 69.5,-56.5"/>
<text text-anchor="start" x="84.5" y="-74.1" font-family="Roboto" font-size="8.00" fill="#000000"> «interface» </text>
<text text-anchor="start" x="73.5" y="-64.1" font-family="Roboto" font-size="8.00" fill="#000000"> </text>
<text text-anchor="start" x="76.5" y="-64.1" font-family="Roboto" font-size="8.00" fill="#000000">StreamingParser</text>
<text text-anchor="start" x="135.5" y="-64.1" font-family="Roboto" font-size="8.00" fill="#000000"> </text>
</a>
</g>
</a>
</g>
</g>
<!-- c248933 -->
<g id="node12" class="node">
<title>c248933</title>
<g id="a_node12"><a xlink:href="AbstractStreamingParser.html" xlink:title="&lt;TABLE&gt;">
<g id="a_node12_7"><a xlink:href="AbstractStreamingParser.html" xlink:title="de.lmu.ifi.dbs.elki.datasource.parser.AbstractStreamingParser" target="_parent">
<polygon fill="none" stroke="#000000" points="160.5,-61.5 160.5,-78.5 263.5,-78.5 263.5,-61.5 160.5,-61.5"/>
<text text-anchor="start" x="164.5" y="-69.1" font-family="Roboto" font-size="8.00" fill="#000000"> </text>
<text text-anchor="start" x="167.5" y="-69.1" font-family="Roboto" font-style="italic" font-size="8.00" fill="#000000">AbstractStreamingParser</text>
<text text-anchor="start" x="256.5" y="-69.1" font-family="Roboto" font-size="8.00" fill="#000000"> </text>
</a>
</g>
</a>
</g>
</g>
<!-- c248917&#45;&gt;c248933 -->
<g id="edge10" class="edge">
<title>c248917&#45;&gt;c248933</title>
<path fill="none" stroke="#000000" stroke-dasharray="5,2" d="M152.5128,-70.5C154.8849,-70.5 157.2732,-70.5 159.6584,-70.5"/>
<polygon fill="none" stroke="#000000" points="152.2762,-67.0001 142.2762,-70.5 152.2761,-74.0001 152.2762,-67.0001"/>
</g>
<!-- c248918 -->
<g id="node4" class="node">
<title>c248918</title>
<g id="a_node4"><a xlink:href="Parser.html" xlink:title="&lt;TABLE&gt;">
<g id="a_node4_8"><a xlink:href="Parser.html" xlink:title="de.lmu.ifi.dbs.elki.datasource.parser.Parser" target="_parent">
<polygon fill="#fffacd" stroke="transparent" points="0,-22.5 0,-50.5 51,-50.5 51,-22.5 0,-22.5"/>
<polygon fill="none" stroke="#000000" points=".5,-22.5 .5,-50.5 51.5,-50.5 51.5,-22.5 .5,-22.5"/>
<text text-anchor="start" x="4.5" y="-40.1" font-family="Roboto" font-size="8.00" fill="#000000"> «interface» </text>
<text text-anchor="start" x="11.5" y="-30.1" font-family="Roboto" font-size="8.00" fill="#000000"> </text>
<text text-anchor="start" x="14.5" y="-30.1" font-family="Roboto" font-size="8.00" fill="#000000">Parser</text>
<text text-anchor="start" x="37.5" y="-30.1" font-family="Roboto" font-size="8.00" fill="#000000"> </text>
</a>
</g>
</a>
</g>
</g>
<!-- c248918&#45;&gt;c248917 -->
<g id="edge3" class="edge">
<title>c248918&#45;&gt;c248917</title>
<path fill="none" stroke="#000000" stroke-dasharray="5,2" d="M60.741,-51.4774C64.6435,-53.136 68.6073,-54.8206 72.481,-56.4669"/>
<polygon fill="none" stroke="#000000" points="61.8252,-48.1353 51.2529,-47.445 59.0872,-54.5776 61.8252,-48.1353"/>
</g>
<!-- c248921 -->
<g id="node6" class="node">
<title>c248921</title>
<g id="a_node6"><a xlink:href="ArffParser.html" xlink:title="&lt;TABLE&gt;">
<g id="a_node6_9"><a xlink:href="ArffParser.html" xlink:title="de.lmu.ifi.dbs.elki.datasource.parser.ArffParser" target="_parent">
<polygon fill="none" stroke="#000000" points="80.5,-27.5 80.5,-44.5 131.5,-44.5 131.5,-27.5 80.5,-27.5"/>
<text text-anchor="start" x="84.5" y="-35.1" font-family="Roboto" font-size="8.00" fill="#000000"> </text>
<text text-anchor="start" x="87.5" y="-35.1" font-family="Roboto" font-size="8.00" fill="#000000">ArffParser</text>
<text text-anchor="start" x="124.5" y="-35.1" font-family="Roboto" font-size="8.00" fill="#000000"> </text>
</a>
</g>
</a>
</g>
</g>
<!-- c248918&#45;&gt;c248921 -->
<g id="edge5" class="edge">
<title>c248918&#45;&gt;c248921</title>
<path fill="none" stroke="#000000" stroke-dasharray="5,2" d="M61.4377,-36.5C67.6262,-36.5 73.9456,-36.5 79.7954,-36.5"/>
<polygon fill="none" stroke="#000000" points="61.2529,-33.0001 51.2529,-36.5 61.2528,-40.0001 61.2529,-33.0001"/>
</g>
<!-- c248931 -->
<g id="node11" class="node">
<title>c248931</title>
<g id="a_node11"><a xlink:href="StringParser.html" xlink:title="&lt;TABLE&gt;">
<g id="a_node11_10"><a xlink:href="StringParser.html" xlink:title="de.lmu.ifi.dbs.elki.datasource.parser.StringParser" target="_parent">
<polygon fill="none" stroke="#000000" points="76.5,.5 76.5,-16.5 134.5,-16.5 134.5,.5 76.5,.5"/>
<text text-anchor="start" x="80.5" y="-7.1" font-family="Roboto" font-size="8.00" fill="#000000"> </text>
<text text-anchor="start" x="83.5" y="-7.1" font-family="Roboto" font-size="8.00" fill="#000000">StringParser</text>
<text text-anchor="start" x="127.5" y="-7.1" font-family="Roboto" font-size="8.00" fill="#000000"> </text>
</a>
</g>
</a>
</g>
</g>
<!-- c248918&#45;&gt;c248931 -->
<g id="edge9" class="edge">
<title>c248918&#45;&gt;c248931</title>
<path fill="none" stroke="#000000" stroke-dasharray="5,2" d="M61.0078,-24.0723C67.8156,-21.6896 74.7991,-19.2453 81.1562,-17.0203"/>
<polygon fill="none" stroke="#000000" points="59.5352,-20.8794 51.2529,-27.4865 61.8477,-27.4864 59.5352,-20.8794"/>
</g>
<!-- c248919 -->
<g id="node5" class="node">
<title>c248919</title>
<g id="a_node5"><a xlink:href="SimpleTransactionParser.html" xlink:title="&lt;TABLE&gt;">
<g id="a_node5_11"><a xlink:href="SimpleTransactionParser.html" xlink:title="de.lmu.ifi.dbs.elki.datasource.parser.SimpleTransactionParser" target="_parent">
<polygon fill="none" stroke="#000000" points="283.5,-61.5 283.5,-78.5 386.5,-78.5 386.5,-61.5 283.5,-61.5"/>
<text text-anchor="start" x="287.5" y="-69.1" font-family="Roboto" font-size="8.00" fill="#000000"> </text>
<text text-anchor="start" x="290.5" y="-69.1" font-family="Roboto" font-size="8.00" fill="#000000">SimpleTransactionParser</text>
<text text-anchor="start" x="379.5" y="-69.1" font-family="Roboto" font-size="8.00" fill="#000000"> </text>
</a>
</g>
</a>
</g>
</g>
<!-- c248923 -->
<g id="node7" class="node">
<title>c248923</title>
<g id="a_node7"><a xlink:href="SimplePolygonParser.html" xlink:title="&lt;TABLE&gt;">
<g id="a_node7_12"><a xlink:href="SimplePolygonParser.html" xlink:title="de.lmu.ifi.dbs.elki.datasource.parser.SimplePolygonParser" target="_parent">
<polygon fill="none" stroke="#000000" points="290.5,-33.5 290.5,-50.5 378.5,-50.5 378.5,-33.5 290.5,-33.5"/>
<text text-anchor="start" x="294.5" y="-41.1" font-family="Roboto" font-size="8.00" fill="#000000"> </text>
<text text-anchor="start" x="297.5" y="-41.1" font-family="Roboto" font-size="8.00" fill="#000000">SimplePolygonParser</text>
<text text-anchor="start" x="371.5" y="-41.1" font-family="Roboto" font-size="8.00" fill="#000000"> </text>
</a>
</g>
</a>
</g>
</g>
<!-- c248925 -->
<g id="node8" class="node">
<title>c248925</title>
<g id="a_node8"><a xlink:href="CSVReaderFormat.html" xlink:title="&lt;TABLE&gt;">
<g id="a_node8_13"><a xlink:href="CSVReaderFormat.html" xlink:title="de.lmu.ifi.dbs.elki.datasource.parser.CSVReaderFormat" target="_parent">
<polygon fill="none" stroke="#000000" points="295.5,-5.5 295.5,-22.5 374.5,-22.5 374.5,-5.5 295.5,-5.5"/>
<text text-anchor="start" x="299.5" y="-13.1" font-family="Roboto" font-size="8.00" fill="#000000"> </text>
<text text-anchor="start" x="302.5" y="-13.1" font-family="Roboto" font-size="8.00" fill="#000000">CSVReaderFormat</text>
<text text-anchor="start" x="367.5" y="-13.1" font-family="Roboto" font-size="8.00" fill="#000000"> </text>
</a>
</g>
</a>
</g>
</g>
<!-- c248933&#45;&gt;c246763 -->
<g id="edge1" class="edge">
<title>c248933&#45;&gt;c246763</title>
<path fill="none" stroke="#000000" d="M231.6896,-84.8395C245.1337,-93.8387 263.4845,-105.0994 281,-112.5 285.8642,-114.5552 291.1077,-116.3735 296.3431,-117.9619"/>
<polygon fill="none" stroke="#000000" points="233.464,-81.8125 223.2367,-79.0459 229.5065,-87.5864 233.464,-81.8125"/>
</g>
<!-- c248933&#45;&gt;c248915 -->
<g id="edge2" class="edge">
<title>c248933&#45;&gt;c248915</title>
<path fill="none" stroke="#000000" d="M258.9961,-81.3121C271.648,-84.1922 285.1351,-87.2625 297.1577,-89.9993"/>
<polygon fill="none" stroke="#000000" points="259.5998,-77.8601 249.0724,-79.0531 258.0461,-84.6855 259.5998,-77.8601"/>
</g>
<!-- c248933&#45;&gt;c248919 -->
<g id="edge4" class="edge">
<title>c248933&#45;&gt;c248919</title>
<path fill="none" stroke="#000000" d="M273.3353,-70.5C276.4868,-70.5 279.6372,-70.5 282.7533,-70.5"/>
<polygon fill="none" stroke="#000000" points="273.3066,-67.0001 263.3066,-70.5 273.3065,-74.0001 273.3066,-67.0001"/>
</g>
<!-- c248933&#45;&gt;c248923 -->
<g id="edge6" class="edge">
<title>c248933&#45;&gt;c248923</title>
<path fill="none" stroke="#000000" d="M258.9961,-59.6879C271.648,-56.8078 285.1351,-53.7375 297.1577,-51.0007"/>
<polygon fill="none" stroke="#000000" points="258.0461,-56.3145 249.0724,-61.9469 259.5998,-63.1399 258.0461,-56.3145"/>
</g>
<!-- c248933&#45;&gt;c248925 -->
<g id="edge11" class="edge">
<title>c248933&#45;&gt;c248925</title>
<path fill="none" stroke="#000000" d="M223.2367,-61.9541C236.6196,-52.5642 259.4424,-37.6084 281,-28.5 285.8642,-26.4448 291.1077,-24.6265 296.3431,-23.0381"/>
</g>
<!-- c248937 -->
<g id="node14" class="node">
<title>c248937</title>
<g id="a_node14"><a xlink:href="LibSVMFormatParser.html" xlink:title="&lt;TABLE&gt;">
<g id="a_node14_14"><a xlink:href="LibSVMFormatParser.html" xlink:title="de.lmu.ifi.dbs.elki.datasource.parser.LibSVMFormatParser" target="_parent">
<polygon fill="none" stroke="#000000" points="574,-75.5 574,-92.5 664,-92.5 664,-75.5 574,-75.5"/>
<text text-anchor="start" x="578" y="-83.1" font-family="Roboto" font-size="8.00" fill="#000000"> </text>
<text text-anchor="start" x="581" y="-83.1" font-family="Roboto" font-size="8.00" fill="#000000">LibSVMFormatParser</text>
<text text-anchor="start" x="657" y="-83.1" font-family="Roboto" font-size="8.00" fill="#000000"> </text>
</a>
</g>
</a>
</g>
</g>
<!-- c248935&#45;&gt;c248937 -->
<g id="edge13" class="edge">
<title>c248935&#45;&gt;c248937</title>
<path fill="none" stroke="#000000" d="M557.0736,-84.5C562.7795,-84.5 568.4203,-84.5 573.8375,-84.5"/>
<polygon fill="none" stroke="#000000" points="556.7667,-81.0001 546.7667,-84.5 556.7666,-88.0001 556.7667,-81.0001"/>
</g>
</g>
</svg>
