<?xml version="1.0" encoding="UTF-8" standalone="no"?>
<!DOCTYPE svg PUBLIC "-//W3C//DTD SVG 1.1//EN"
 "http://www.w3.org/Graphics/SVG/1.1/DTD/svg11.dtd">
<!-- Generated by graphviz version 2.40.1 (20161225.0304)
 -->
<!-- Title: G Pages: 1 -->
<svg width="383pt" height="204pt"
 viewBox="0.00 0.00 383.00 203.50" xmlns="http://www.w3.org/2000/svg" xmlns:xlink="http://www.w3.org/1999/xlink">
<g id="graph0" class="graph" transform="scale(1 1) rotate(0) translate(4 199.5)">
<title>G</title>
<polygon fill="#ffffff" stroke="transparent" points="-4,4 -4,-199.5 379,-199.5 379,4 -4,4"/>
<!-- c9509213 -->
<g id="node1" class="node">
<title>c9509213</title>
<g id="a_node1"><a xlink:href="../bundle/BundleStreamSource.Event.html" xlink:title="&lt;TABLE&gt;">
<g id="a_node1_0"><a xlink:href="../bundle/BundleStreamSource.Event.html" xlink:title="de.lmu.ifi.dbs.elki.datasource.bundle.BundleStreamSource.Event" target="_parent">
<polygon fill="none" stroke="#000000" points="242.5,-156 242.5,-195 375.5,-195 375.5,-156 242.5,-156"/>
<text text-anchor="start" x="281" y="-184.6" font-family="Roboto" font-size="8.00" fill="#000000"> «enumeration» </text>
<text text-anchor="start" x="259" y="-174.6" font-family="Roboto" font-size="8.00" fill="#000000"> </text>
<text text-anchor="start" x="262" y="-174.6" font-family="Roboto" font-size="8.00" fill="#000000">BundleStreamSource.Event</text>
<text text-anchor="start" x="356" y="-174.6" font-family="Roboto" font-size="8.00" fill="#000000"> </text>
<text text-anchor="start" x="246.5" y="-163.6" font-family="Roboto" font-size="8.00" fill="#000000"> </text>
<text text-anchor="start" x="249.5" y="-163.6" font-family="Roboto" font-size="7.00" fill="#000000">de.lmu.ifi.dbs.elki.datasource.bundle</text>
<text text-anchor="start" x="368.5" y="-163.6" font-family="Roboto" font-size="8.00" fill="#000000"> </text>
</a>
</g>
</a>
</g>
</g>
<!-- c9509214 -->
<g id="node2" class="node">
<title>c9509214</title>
<g id="a_node2"><a xlink:href="../bundle/BundleMeta.html" xlink:title="&lt;TABLE&gt;">
<g id="a_node2_1"><a xlink:href="../bundle/BundleMeta.html" xlink:title="de.lmu.ifi.dbs.elki.datasource.bundle.BundleMeta" target="_parent">
<polygon fill="none" stroke="#000000" points="242.5,-117 242.5,-145 375.5,-145 375.5,-117 242.5,-117"/>
<text text-anchor="start" x="284.5" y="-135.6" font-family="Roboto" font-size="8.00" fill="#000000"> </text>
<text text-anchor="start" x="287.5" y="-135.6" font-family="Roboto" font-size="8.00" fill="#000000">BundleMeta</text>
<text text-anchor="start" x="330.5" y="-135.6" font-family="Roboto" font-size="8.00" fill="#000000"> </text>
<text text-anchor="start" x="246.5" y="-124.6" font-family="Roboto" font-size="8.00" fill="#000000"> </text>
<text text-anchor="start" x="249.5" y="-124.6" font-family="Roboto" font-size="7.00" fill="#000000">de.lmu.ifi.dbs.elki.datasource.bundle</text>
<text text-anchor="start" x="368.5" y="-124.6" font-family="Roboto" font-size="8.00" fill="#000000"> </text>
</a>
</g>
</a>
</g>
</g>
<!-- c9509288 -->
<g id="node3" class="node">
<title>c9509288</title>
<g id="a_node3"><a xlink:href="../../data/BitVector.html" xlink:title="&lt;TABLE&gt;">
<g id="a_node3_2"><a xlink:href="../../data/BitVector.html" xlink:title="de.lmu.ifi.dbs.elki.data.BitVector" target="_parent">
<polygon fill="none" stroke="#000000" points="265.5,-78 265.5,-106 352.5,-106 352.5,-78 265.5,-78"/>
<text text-anchor="start" x="290" y="-96.6" font-family="Roboto" font-size="8.00" fill="#000000"> </text>
<text text-anchor="start" x="293" y="-96.6" font-family="Roboto" font-size="8.00" fill="#000000">BitVector</text>
<text text-anchor="start" x="325" y="-96.6" font-family="Roboto" font-size="8.00" fill="#000000"> </text>
<text text-anchor="start" x="269.5" y="-85.6" font-family="Roboto" font-size="8.00" fill="#000000"> </text>
<text text-anchor="start" x="272.5" y="-85.6" font-family="Roboto" font-size="7.00" fill="#000000">de.lmu.ifi.dbs.elki.data</text>
<text text-anchor="start" x="345.5" y="-85.6" font-family="Roboto" font-size="8.00" fill="#000000"> </text>
</a>
</g>
</a>
</g>
</g>
<!-- c9510790 -->
<g id="node4" class="node">
<title>c9510790</title>
<g id="a_node4"><a xlink:href="SimpleTransactionParser.html" xlink:title="&lt;TABLE&gt;">
<g id="a_node4_3"><a xlink:href="SimpleTransactionParser.html" xlink:title="de.lmu.ifi.dbs.elki.datasource.parser.SimpleTransactionParser" target="_parent">
<polygon fill="#fffacd" stroke="transparent" points="121,-83.5 121,-100.5 224,-100.5 224,-83.5 121,-83.5"/>
<polygon fill="none" stroke="#000000" points="121.5,-83 121.5,-100 224.5,-100 224.5,-83 121.5,-83"/>
<text text-anchor="start" x="125.5" y="-90.6" font-family="Roboto" font-size="8.00" fill="#000000"> </text>
<text text-anchor="start" x="128.5" y="-90.6" font-family="Roboto" font-size="8.00" fill="#000000">SimpleTransactionParser</text>
<text text-anchor="start" x="217.5" y="-90.6" font-family="Roboto" font-size="8.00" fill="#000000"> </text>
</a>
</g>
</a>
</g>
</g>
<!-- c9510790&#45;&gt;c9509213 -->
<g id="edge5" class="edge">
<title>c9510790&#45;&gt;c9509213</title>
<path fill="none" stroke="#000000" d="M180.7465,-100.6931C193.0602,-113.2547 217.4441,-136.5551 242,-151 242.299,-151.1759 242.5995,-151.3509 242.9013,-151.5251"/>
<polygon fill="#000000" stroke="#000000" points="251.9825,-156.336 241.0393,-155.6311 247.5642,-153.9953 243.1459,-151.6547 243.1459,-151.6547 243.1459,-151.6547 247.5642,-153.9953 245.2525,-147.6782 251.9825,-156.336 251.9825,-156.336"/>
</g>
<!-- c9510790&#45;&gt;c9509214 -->
<g id="edge4" class="edge">
<title>c9510790&#45;&gt;c9509214</title>
<path fill="none" stroke="#000000" d="M202.2584,-100.577C214.559,-104.1188 228.9652,-108.2624 242,-112 244.4238,-112.695 246.8975,-113.4038 249.3965,-114.1196"/>
<polygon fill="#000000" stroke="#000000" points="259.1091,-116.8996 248.2568,-118.474 254.3021,-115.5237 249.4951,-114.1477 249.4951,-114.1477 249.4951,-114.1477 254.3021,-115.5237 250.7335,-109.8215 259.1091,-116.8996 259.1091,-116.8996"/>
</g>
<!-- c9510790&#45;&gt;c9509288 -->
<g id="edge2" class="edge">
<title>c9510790&#45;&gt;c9509288</title>
<path fill="none" stroke="#000000" d="M236.3798,-92C246.0063,-92 255.7433,-92 264.8153,-92"/>
<polygon fill="none" stroke="#000000" points="236.3037,-92.0001 230.3037,-96 224.3037,-92 230.3038,-88 236.3037,-92.0001"/>
</g>
<!-- c9511237 -->
<g id="node6" class="node">
<title>c9511237</title>
<g id="a_node6"><a xlink:href="http://docs.oracle.com/javase/7/docs/api/it/unimi/dsi/fastutil/objects/Object2IntOpenHashMap.html" xlink:title="&lt;TABLE&gt;">
<g id="a_node6_4"><a xlink:href="http://docs.oracle.com/javase/7/docs/api/it/unimi/dsi/fastutil/objects/Object2IntOpenHashMap.html" xlink:title="it.unimi.dsi.fastutil.objects.Object2IntOpenHashMap" target="_parent">
<polygon fill="none" stroke="#000000" points="256.5,-39 256.5,-67 361.5,-67 361.5,-39 256.5,-39"/>
<text text-anchor="start" x="260.5" y="-57.6" font-family="Roboto" font-size="8.00" fill="#000000"> </text>
<text text-anchor="start" x="263.5" y="-57.6" font-family="Roboto" font-size="8.00" fill="#000000">Object2IntOpenHashMap</text>
<text text-anchor="start" x="354.5" y="-57.6" font-family="Roboto" font-size="8.00" fill="#000000"> </text>
<text text-anchor="start" x="262" y="-46.6" font-family="Roboto" font-size="8.00" fill="#000000"> </text>
<text text-anchor="start" x="265" y="-46.6" font-family="Roboto" font-size="7.00" fill="#000000">it.unimi.dsi.fastutil.objects</text>
<text text-anchor="start" x="353" y="-46.6" font-family="Roboto" font-size="8.00" fill="#000000"> </text>
</a>
</g>
</a>
</g>
</g>
<!-- c9510790&#45;&gt;c9511237 -->
<g id="edge3" class="edge">
<title>c9510790&#45;&gt;c9511237</title>
<path fill="none" stroke="#000000" d="M202.2584,-83.423C214.559,-79.8812 228.9652,-75.7376 242,-72 244.4238,-71.305 246.8975,-70.5962 249.3965,-69.8804"/>
<polygon fill="#000000" stroke="#000000" points="259.1091,-67.1004 250.7335,-74.1785 254.3021,-68.4763 249.4951,-69.8523 249.4951,-69.8523 249.4951,-69.8523 254.3021,-68.4763 248.2568,-65.526 259.1091,-67.1004 259.1091,-67.1004"/>
</g>
<!-- c9511238 -->
<g id="node7" class="node">
<title>c9511238</title>
<g id="a_node7"><a xlink:href="http://docs.oracle.com/javase/7/docs/api/it/unimi/dsi/fastutil/longs/LongArrayList.html" xlink:title="&lt;TABLE&gt;">
<g id="a_node7_5"><a xlink:href="http://docs.oracle.com/javase/7/docs/api/it/unimi/dsi/fastutil/longs/LongArrayList.html" xlink:title="it.unimi.dsi.fastutil.longs.LongArrayList" target="_parent">
<polygon fill="none" stroke="#000000" points="260.5,0 260.5,-28 356.5,-28 356.5,0 260.5,0"/>
<text text-anchor="start" x="280.5" y="-18.6" font-family="Roboto" font-size="8.00" fill="#000000"> </text>
<text text-anchor="start" x="283.5" y="-18.6" font-family="Roboto" font-size="8.00" fill="#000000">LongArrayList</text>
<text text-anchor="start" x="333.5" y="-18.6" font-family="Roboto" font-size="8.00" fill="#000000"> </text>
<text text-anchor="start" x="264.5" y="-7.6" font-family="Roboto" font-size="8.00" fill="#000000"> </text>
<text text-anchor="start" x="267.5" y="-7.6" font-family="Roboto" font-size="7.00" fill="#000000">it.unimi.dsi.fastutil.longs</text>
<text text-anchor="start" x="349.5" y="-7.6" font-family="Roboto" font-size="8.00" fill="#000000"> </text>
</a>
</g>
</a>
</g>
</g>
<!-- c9510790&#45;&gt;c9511238 -->
<g id="edge6" class="edge">
<title>c9510790&#45;&gt;c9511238</title>
<path fill="none" stroke="#000000" d="M180.1969,-83.4657C192.1871,-70.6739 216.5983,-46.5844 242,-33 244.8588,-31.4712 247.8543,-30.0535 250.9259,-28.7405"/>
<polygon fill="#000000" stroke="#000000" points="260.3081,-25.1092 252.6065,-32.9154 255.6451,-26.914 250.9822,-28.7187 250.9822,-28.7187 250.9822,-28.7187 255.6451,-26.914 249.3579,-24.5221 260.3081,-25.1092 260.3081,-25.1092"/>
</g>
<!-- c9510804 -->
<g id="node5" class="node">
<title>c9510804</title>
<g id="a_node5"><a xlink:href="AbstractStreamingParser.html" xlink:title="&lt;TABLE&gt;">
<g id="a_node5_6"><a xlink:href="AbstractStreamingParser.html" xlink:title="de.lmu.ifi.dbs.elki.datasource.parser.AbstractStreamingParser" target="_parent">
<polygon fill="none" stroke="#000000" points=".5,-83 .5,-100 103.5,-100 103.5,-83 .5,-83"/>
<text text-anchor="start" x="4.5" y="-90.6" font-family="Roboto" font-size="8.00" fill="#000000"> </text>
<text text-anchor="start" x="7.5" y="-90.6" font-family="Roboto" font-style="italic" font-size="8.00" fill="#000000">AbstractStreamingParser</text>
<text text-anchor="start" x="96.5" y="-90.6" font-family="Roboto" font-size="8.00" fill="#000000"> </text>
</a>
</g>
</a>
</g>
</g>
<!-- c9510804&#45;&gt;c9510790 -->
<g id="edge1" class="edge">
<title>c9510804&#45;&gt;c9510790</title>
<path fill="none" stroke="#000000" d="M113.2606,-92C115.7224,-92 118.1815,-92 120.6215,-92"/>
<polygon fill="none" stroke="#000000" points="113.1659,-88.5001 103.1659,-92 113.1658,-95.5001 113.1659,-88.5001"/>
</g>
</g>
</svg>
