<?xml version="1.0" encoding="UTF-8" standalone="no"?>
<!DOCTYPE svg PUBLIC "-//W3C//DTD SVG 1.1//EN"
 "http://www.w3.org/Graphics/SVG/1.1/DTD/svg11.dtd">
<!-- Generated by graphviz version 2.40.1 (20161225.0304)
 -->
<!-- Title: G Pages: 1 -->
<svg width="496pt" height="231pt"
 viewBox="0.00 0.00 496.00 230.70" xmlns="http://www.w3.org/2000/svg" xmlns:xlink="http://www.w3.org/1999/xlink">
<g id="graph0" class="graph" transform="scale(1 1) rotate(0) translate(4 226.7015)">
<title>G</title>
<polygon fill="#ffffff" stroke="transparent" points="-4,4 -4,-226.7015 492,-226.7015 492,4 -4,4"/>
<!-- c9493197 -->
<g id="node1" class="node">
<title>c9493197</title>
<g id="a_node1"><a xlink:href="../../data/spatial/Polygon.html" xlink:title="&lt;TABLE&gt;">
<g id="a_node1_0"><a xlink:href="../../data/spatial/Polygon.html" xlink:title="de.lmu.ifi.dbs.elki.data.spatial.Polygon" target="_parent">
<polygon fill="none" stroke="#000000" points="378,-78 378,-106 488,-106 488,-78 378,-78"/>
<text text-anchor="start" x="416" y="-96.6" font-family="Roboto" font-size="8.00" fill="#000000"> </text>
<text text-anchor="start" x="419" y="-96.6" font-family="Roboto" font-size="8.00" fill="#000000">Polygon</text>
<text text-anchor="start" x="447" y="-96.6" font-family="Roboto" font-size="8.00" fill="#000000"> </text>
<text text-anchor="start" x="382" y="-85.6" font-family="Roboto" font-size="8.00" fill="#000000"> </text>
<text text-anchor="start" x="385" y="-85.6" font-family="Roboto" font-size="7.00" fill="#000000">de.lmu.ifi.dbs.elki.data.spatial</text>
<text text-anchor="start" x="481" y="-85.6" font-family="Roboto" font-size="8.00" fill="#000000"> </text>
</a>
</g>
</a>
</g>
</g>
<!-- c9493227 -->
<g id="node2" class="node">
<title>c9493227</title>
<g id="a_node2"><a xlink:href="../bundle/BundleStreamSource.Event.html" xlink:title="&lt;TABLE&gt;">
<g id="a_node2_1"><a xlink:href="../bundle/BundleStreamSource.Event.html" xlink:title="de.lmu.ifi.dbs.elki.datasource.bundle.BundleStreamSource.Event" target="_parent">
<polygon fill="none" stroke="#000000" points="227.5,-156 227.5,-195 360.5,-195 360.5,-156 227.5,-156"/>
<text text-anchor="start" x="266" y="-184.6" font-family="Roboto" font-size="8.00" fill="#000000"> «enumeration» </text>
<text text-anchor="start" x="244" y="-174.6" font-family="Roboto" font-size="8.00" fill="#000000"> </text>
<text text-anchor="start" x="247" y="-174.6" font-family="Roboto" font-size="8.00" fill="#000000">BundleStreamSource.Event</text>
<text text-anchor="start" x="341" y="-174.6" font-family="Roboto" font-size="8.00" fill="#000000"> </text>
<text text-anchor="start" x="231.5" y="-163.6" font-family="Roboto" font-size="8.00" fill="#000000"> </text>
<text text-anchor="start" x="234.5" y="-163.6" font-family="Roboto" font-size="7.00" fill="#000000">de.lmu.ifi.dbs.elki.datasource.bundle</text>
<text text-anchor="start" x="353.5" y="-163.6" font-family="Roboto" font-size="8.00" fill="#000000"> </text>
</a>
</g>
</a>
</g>
</g>
<!-- c9493228 -->
<g id="node3" class="node">
<title>c9493228</title>
<g id="a_node3"><a xlink:href="../bundle/BundleMeta.html" xlink:title="&lt;TABLE&gt;">
<g id="a_node3_2"><a xlink:href="../bundle/BundleMeta.html" xlink:title="de.lmu.ifi.dbs.elki.datasource.bundle.BundleMeta" target="_parent">
<polygon fill="none" stroke="#000000" points="227.5,-117 227.5,-145 360.5,-145 360.5,-117 227.5,-117"/>
<text text-anchor="start" x="269.5" y="-135.6" font-family="Roboto" font-size="8.00" fill="#000000"> </text>
<text text-anchor="start" x="272.5" y="-135.6" font-family="Roboto" font-size="8.00" fill="#000000">BundleMeta</text>
<text text-anchor="start" x="315.5" y="-135.6" font-family="Roboto" font-size="8.00" fill="#000000"> </text>
<text text-anchor="start" x="231.5" y="-124.6" font-family="Roboto" font-size="8.00" fill="#000000"> </text>
<text text-anchor="start" x="234.5" y="-124.6" font-family="Roboto" font-size="7.00" fill="#000000">de.lmu.ifi.dbs.elki.datasource.bundle</text>
<text text-anchor="start" x="353.5" y="-124.6" font-family="Roboto" font-size="8.00" fill="#000000"> </text>
</a>
</g>
</a>
</g>
</g>
<!-- c9493264 -->
<g id="node4" class="node">
<title>c9493264</title>
<g id="a_node4"><a xlink:href="../../data/spatial/PolygonsObject.html" xlink:title="&lt;TABLE&gt;">
<g id="a_node4_3"><a xlink:href="../../data/spatial/PolygonsObject.html" xlink:title="de.lmu.ifi.dbs.elki.data.spatial.PolygonsObject" target="_parent">
<polygon fill="none" stroke="#000000" points="238.5,-78 238.5,-106 348.5,-106 348.5,-78 238.5,-78"/>
<text text-anchor="start" x="263.5" y="-96.6" font-family="Roboto" font-size="8.00" fill="#000000"> </text>
<text text-anchor="start" x="266.5" y="-96.6" font-family="Roboto" font-size="8.00" fill="#000000">PolygonsObject</text>
<text text-anchor="start" x="320.5" y="-96.6" font-family="Roboto" font-size="8.00" fill="#000000"> </text>
<text text-anchor="start" x="242.5" y="-85.6" font-family="Roboto" font-size="8.00" fill="#000000"> </text>
<text text-anchor="start" x="245.5" y="-85.6" font-family="Roboto" font-size="7.00" fill="#000000">de.lmu.ifi.dbs.elki.data.spatial</text>
<text text-anchor="start" x="341.5" y="-85.6" font-family="Roboto" font-size="8.00" fill="#000000"> </text>
</a>
</g>
</a>
</g>
</g>
<!-- c9493264&#45;&gt;c9493197 -->
<g id="edge1" class="edge">
<title>c9493264&#45;&gt;c9493197</title>
<path fill="none" stroke="#000000" d="M360.9272,-92C366.584,-92 372.2611,-92 377.8096,-92"/>
<polygon fill="none" stroke="#000000" points="360.6341,-92.0001 354.6341,-96 348.6341,-92 354.6341,-88 360.6341,-92.0001"/>
</g>
<!-- c9493277 -->
<g id="node5" class="node">
<title>c9493277</title>
<g id="a_node5"><a xlink:href="../../data/ExternalID.html" xlink:title="&lt;TABLE&gt;">
<g id="a_node5_4"><a xlink:href="../../data/ExternalID.html" xlink:title="de.lmu.ifi.dbs.elki.data.ExternalID" target="_parent">
<polygon fill="none" stroke="#000000" points="250.5,-39 250.5,-67 337.5,-67 337.5,-39 250.5,-39"/>
<text text-anchor="start" x="272.5" y="-57.6" font-family="Roboto" font-size="8.00" fill="#000000"> </text>
<text text-anchor="start" x="275.5" y="-57.6" font-family="Roboto" font-size="8.00" fill="#000000">ExternalID</text>
<text text-anchor="start" x="312.5" y="-57.6" font-family="Roboto" font-size="8.00" fill="#000000"> </text>
<text text-anchor="start" x="254.5" y="-46.6" font-family="Roboto" font-size="8.00" fill="#000000"> </text>
<text text-anchor="start" x="257.5" y="-46.6" font-family="Roboto" font-size="7.00" fill="#000000">de.lmu.ifi.dbs.elki.data</text>
<text text-anchor="start" x="330.5" y="-46.6" font-family="Roboto" font-size="8.00" fill="#000000"> </text>
</a>
</g>
</a>
</g>
</g>
<!-- c9493320 -->
<g id="node6" class="node">
<title>c9493320</title>
<g id="a_node6"><a xlink:href="../../data/LabelList.html" xlink:title="&lt;TABLE&gt;">
<g id="a_node6_5"><a xlink:href="../../data/LabelList.html" xlink:title="de.lmu.ifi.dbs.elki.data.LabelList" target="_parent">
<polygon fill="none" stroke="#000000" points="250.5,0 250.5,-28 337.5,-28 337.5,0 250.5,0"/>
<text text-anchor="start" x="274.5" y="-18.6" font-family="Roboto" font-size="8.00" fill="#000000"> </text>
<text text-anchor="start" x="277.5" y="-18.6" font-family="Roboto" font-size="8.00" fill="#000000">LabelList</text>
<text text-anchor="start" x="310.5" y="-18.6" font-family="Roboto" font-size="8.00" fill="#000000"> </text>
<text text-anchor="start" x="254.5" y="-7.6" font-family="Roboto" font-size="8.00" fill="#000000"> </text>
<text text-anchor="start" x="257.5" y="-7.6" font-family="Roboto" font-size="7.00" fill="#000000">de.lmu.ifi.dbs.elki.data</text>
<text text-anchor="start" x="330.5" y="-7.6" font-family="Roboto" font-size="8.00" fill="#000000"> </text>
</a>
</g>
</a>
</g>
</g>
<!-- c9494808 -->
<g id="node7" class="node">
<title>c9494808</title>
<g id="a_node7"><a xlink:href="SimplePolygonParser.html" xlink:title="&lt;TABLE&gt;">
<g id="a_node7_6"><a xlink:href="SimplePolygonParser.html" xlink:title="de.lmu.ifi.dbs.elki.datasource.parser.SimplePolygonParser" target="_parent">
<polygon fill="#fffacd" stroke="transparent" points="121,-83.5 121,-100.5 209,-100.5 209,-83.5 121,-83.5"/>
<polygon fill="none" stroke="#000000" points="121,-83 121,-100 209,-100 209,-83 121,-83"/>
<text text-anchor="start" x="125" y="-90.6" font-family="Roboto" font-size="8.00" fill="#000000"> </text>
<text text-anchor="start" x="128" y="-90.6" font-family="Roboto" font-size="8.00" fill="#000000">SimplePolygonParser</text>
<text text-anchor="start" x="202" y="-90.6" font-family="Roboto" font-size="8.00" fill="#000000"> </text>
</a>
</g>
</a>
</g>
</g>
<!-- c9494808&#45;&gt;c9493197 -->
<g id="edge8" class="edge">
<title>c9494808&#45;&gt;c9493197</title>
<path fill="none" stroke="#000000" d="M166.8082,-100.5827C171.8712,-122.1631 188.4213,-178.5608 227,-201 278.0964,-230.72 307.8538,-228.8369 360,-201 393.5237,-183.1042 414.3584,-142.2333 424.8039,-115.938"/>
<polygon fill="#000000" stroke="#000000" points="428.4198,-106.3248 429.1111,-117.2689 426.6595,-111.0047 424.8992,-115.6846 424.8992,-115.6846 424.8992,-115.6846 426.6595,-111.0047 420.6873,-114.1003 428.4198,-106.3248 428.4198,-106.3248"/>
<text text-anchor="middle" x="426.4198" y="-108.7248" font-family="Roboto" font-size="7.00" fill="#000000">*</text>
</g>
<!-- c9494808&#45;&gt;c9493227 -->
<g id="edge4" class="edge">
<title>c9494808&#45;&gt;c9493227</title>
<path fill="none" stroke="#000000" d="M172.2141,-100.5599C183.0214,-112.9261 204.555,-135.8533 227,-150 227.9176,-150.5784 228.8502,-151.1475 229.7956,-151.7075"/>
<polygon fill="#000000" stroke="#000000" points="238.5954,-156.4973 227.6608,-155.669 234.2038,-154.1069 229.8122,-151.7165 229.8122,-151.7165 229.8122,-151.7165 234.2038,-154.1069 231.9636,-147.7641 238.5954,-156.4973 238.5954,-156.4973"/>
</g>
<!-- c9494808&#45;&gt;c9493228 -->
<g id="edge5" class="edge">
<title>c9494808&#45;&gt;c9493228</title>
<path fill="none" stroke="#000000" d="M192.7677,-100.5433C203.4636,-103.8252 215.7966,-107.5987 227,-111 230.2715,-111.9932 233.6343,-113.0119 237.028,-114.038"/>
<polygon fill="#000000" stroke="#000000" points="246.6237,-116.9353 235.7499,-118.3527 241.8372,-115.49 237.0506,-114.0448 237.0506,-114.0448 237.0506,-114.0448 241.8372,-115.49 238.3513,-109.7369 246.6237,-116.9353 246.6237,-116.9353"/>
</g>
<!-- c9494808&#45;&gt;c9493264 -->
<g id="edge3" class="edge">
<title>c9494808&#45;&gt;c9493264</title>
<path fill="none" stroke="#000000" d="M221.2481,-92C226.8316,-92 232.497,-92 238.0721,-92"/>
<polygon fill="none" stroke="#000000" points="221.2224,-92.0001 215.2224,-96 209.2224,-92 215.2224,-88 221.2224,-92.0001"/>
</g>
<!-- c9494808&#45;&gt;c9493277 -->
<g id="edge7" class="edge">
<title>c9494808&#45;&gt;c9493277</title>
<path fill="none" stroke="#000000" d="M190.8814,-83.436C201.976,-79.8207 215.097,-75.6192 227,-72 231.2505,-70.7076 235.6615,-69.3919 240.0978,-68.0866"/>
<polygon fill="#000000" stroke="#000000" points="249.7975,-65.2589 241.4566,-72.3779 244.9973,-66.6583 240.1971,-68.0577 240.1971,-68.0577 240.1971,-68.0577 244.9973,-66.6583 238.9377,-63.7376 249.7975,-65.2589 249.7975,-65.2589"/>
</g>
<!-- c9494808&#45;&gt;c9493320 -->
<g id="edge6" class="edge">
<title>c9494808&#45;&gt;c9493320</title>
<path fill="none" stroke="#000000" d="M171.662,-83.4255C182.0914,-70.5814 203.5244,-46.4243 227,-33 231.1465,-30.6289 235.6101,-28.5359 240.1922,-26.6918"/>
<polygon fill="#000000" stroke="#000000" points="249.7002,-23.2469 241.8313,-30.8843 244.9993,-24.9501 240.2983,-26.6534 240.2983,-26.6534 240.2983,-26.6534 244.9993,-24.9501 238.7654,-22.4225 249.7002,-23.2469 249.7002,-23.2469"/>
</g>
<!-- c9494818 -->
<g id="node8" class="node">
<title>c9494818</title>
<g id="a_node8"><a xlink:href="AbstractStreamingParser.html" xlink:title="&lt;TABLE&gt;">
<g id="a_node8_7"><a xlink:href="AbstractStreamingParser.html" xlink:title="de.lmu.ifi.dbs.elki.datasource.parser.AbstractStreamingParser" target="_parent">
<polygon fill="none" stroke="#000000" points=".5,-83 .5,-100 103.5,-100 103.5,-83 .5,-83"/>
<text text-anchor="start" x="4.5" y="-90.6" font-family="Roboto" font-size="8.00" fill="#000000"> </text>
<text text-anchor="start" x="7.5" y="-90.6" font-family="Roboto" font-style="italic" font-size="8.00" fill="#000000">AbstractStreamingParser</text>
<text text-anchor="start" x="96.5" y="-90.6" font-family="Roboto" font-size="8.00" fill="#000000"> </text>
</a>
</g>
</a>
</g>
</g>
<!-- c9494818&#45;&gt;c9494808 -->
<g id="edge2" class="edge">
<title>c9494818&#45;&gt;c9494808</title>
<path fill="none" stroke="#000000" d="M113.4309,-92C115.8967,-92 118.3494,-92 120.7701,-92"/>
<polygon fill="none" stroke="#000000" points="113.2679,-88.5001 103.2679,-92 113.2679,-95.5001 113.2679,-88.5001"/>
</g>
</g>
</svg>
