<?xml version="1.0" encoding="UTF-8" standalone="no"?><svg xmlns="http://www.w3.org/2000/svg" xmlns:xlink="http://www.w3.org/1999/xlink" contentStyleType="text/css" height="339px" preserveAspectRatio="none" style="width:496px;height:339px;background:#FFFFFF;" version="1.1" viewBox="0 0 496 339" width="496px" zoomAndPan="magnify"><defs/><g><!--MD5=[c4718a808dbd195bc7c2e73d56589acb]
class elki.database.ids.integer.DoubleIntegerDBIDKNNHeap.UnorderedIter--><a href="DoubleIntegerDBIDKNNHeap.UnorderedIter.html" target="_top" title="DoubleIntegerDBIDKNNHeap.UnorderedIter.html" xlink:actuate="onRequest" xlink:href="DoubleIntegerDBIDKNNHeap.UnorderedIter.html" xlink:show="new" xlink:title="DoubleIntegerDBIDKNNHeap.UnorderedIter.html" xlink:type="simple"><g id="elem_elki.database.ids.integer.DoubleIntegerDBIDKNNHeap.UnorderedIter"><rect codeLine="6" fill="#F1F1F1" height="168.0156" id="elki.database.ids.integer.DoubleIntegerDBIDKNNHeap.UnorderedIter" rx="2.5" ry="2.5" style="stroke:#181818;stroke-width:0.5;" width="331" x="78.5" y="146"/><ellipse cx="93.5" cy="164.9688" fill="#ADD1B2" rx="11" ry="11" style="stroke:#181818;stroke-width:1.0;"/><path d="M96.4688,170.6094 Q95.8906,170.9063 95.25,171.0469 Q94.6094,171.2031 93.9063,171.2031 Q91.4063,171.2031 90.0781,169.5625 Q88.7656,167.9063 88.7656,164.7813 Q88.7656,161.6563 90.0781,160 Q91.4063,158.3438 93.9063,158.3438 Q94.6094,158.3438 95.25,158.5 Q95.9063,158.6563 96.4688,158.9531 L96.4688,161.6719 Q95.8438,161.0938 95.25,160.8281 Q94.6563,160.5469 94.0313,160.5469 Q92.6875,160.5469 92,161.625 Q91.3125,162.6875 91.3125,164.7813 Q91.3125,166.875 92,167.9531 Q92.6875,169.0156 94.0313,169.0156 Q94.6563,169.0156 95.25,168.75 Q95.8438,168.4688 96.4688,167.8906 L96.4688,170.6094 Z " fill="#000000"/><text fill="#000000" font-family="sans-serif" font-size="14" lengthAdjust="spacing" textLength="299" x="107.5" y="163.9951">DoubleIntegerDBIDKNNHeap.UnorderedIter</text><text fill="#000000" font-family="sans-serif" font-size="10" lengthAdjust="spacing" textLength="116" x="199" y="176.5791">elki.database.ids.integer</text><line style="stroke:#181818;stroke-width:0.5;" x1="79.5" x2="408.5" y1="183.9375" y2="183.9375"/><rect fill="none" height="6" style="stroke:#C82930;stroke-width:1.0;" width="6" x="86.5" y="194.5859"/><text fill="#000000" font-family="sans-serif" font-size="14" lengthAdjust="spacing" textLength="124" x="98.5" y="200.9326">it: DoubleDBIDIter</text><rect fill="none" height="6" style="stroke:#C82930;stroke-width:1.0;" width="6" x="86.5" y="210.8828"/><text fill="#000000" font-family="sans-serif" font-size="14" lengthAdjust="spacing" textLength="31" x="98.5" y="217.2295">t: int</text><line style="stroke:#181818;stroke-width:0.5;" x1="79.5" x2="408.5" y1="224.5313" y2="224.5313"/><ellipse cx="89.5" cy="238.1797" fill="#84BE84" rx="3" ry="3" style="stroke:#038048;stroke-width:1.0;"/><text fill="#000000" font-family="sans-serif" font-size="14" lengthAdjust="spacing" textLength="213" x="98.5" y="241.5264">UnorderedIter(DoubleDBIDIter)</text><ellipse cx="89.5" cy="254.4766" fill="#84BE84" rx="3" ry="3" style="stroke:#038048;stroke-width:1.0;"/><text fill="#000000" font-family="sans-serif" font-size="14" lengthAdjust="spacing" textLength="149" x="98.5" y="257.8232">internalGetIndex(): int</text><ellipse cx="89.5" cy="270.7734" fill="#84BE84" rx="3" ry="3" style="stroke:#038048;stroke-width:1.0;"/><text fill="#000000" font-family="sans-serif" font-size="14" lengthAdjust="spacing" textLength="105" x="98.5" y="274.1201">valid(): boolean</text><ellipse cx="89.5" cy="287.0703" fill="#84BE84" rx="3" ry="3" style="stroke:#038048;stroke-width:1.0;"/><text fill="#000000" font-family="sans-serif" font-size="14" lengthAdjust="spacing" textLength="153" x="98.5" y="290.417">doubleValue(): double</text><ellipse cx="89.5" cy="303.3672" fill="#84BE84" rx="3" ry="3" style="stroke:#038048;stroke-width:1.0;"/><text fill="#000000" font-family="sans-serif" font-size="14" lengthAdjust="spacing" textLength="184" x="98.5" y="306.7139">advance(): DoubleDBIDIter</text></g></a><!--MD5=[5e6a880390148f402bc8a2ade8108a5a]
class elki.database.ids.DoubleDBIDIter--><a href="../DoubleDBIDIter.html" target="_top" title="../DoubleDBIDIter.html" xlink:actuate="onRequest" xlink:href="../DoubleDBIDIter.html" xlink:show="new" xlink:title="../DoubleDBIDIter.html" xlink:type="simple"><g id="elem_elki.database.ids.DoubleDBIDIter"><rect codeLine="16" fill="#F1F1F1" height="78.5313" id="elki.database.ids.DoubleDBIDIter" rx="2.5" ry="2.5" style="stroke:#181818;stroke-width:0.5;" width="216" x="7" y="7"/><ellipse cx="55.75" cy="25.9688" fill="#B4A7E5" rx="11" ry="11" style="stroke:#181818;stroke-width:1.0;"/><path d="M51.6719,21.7344 L51.6719,19.5781 L59.0625,19.5781 L59.0625,21.7344 L56.5938,21.7344 L56.5938,29.8125 L59.0625,29.8125 L59.0625,31.9688 L51.6719,31.9688 L51.6719,29.8125 L54.1406,29.8125 L54.1406,21.7344 L51.6719,21.7344 Z " fill="#000000"/><text fill="#000000" font-family="sans-serif" font-size="14" font-style="italic" lengthAdjust="spacing" textLength="110" x="76.25" y="24.9951">DoubleDBIDIter</text><text fill="#000000" font-family="sans-serif" font-size="10" font-style="italic" lengthAdjust="spacing" textLength="83" x="89.75" y="37.5791">elki.database.ids</text><line style="stroke:#181818;stroke-width:0.5;" x1="8" x2="222" y1="44.9375" y2="44.9375"/><ellipse cx="18" cy="58.5859" fill="#84BE84" rx="3" ry="3" style="stroke:#038048;stroke-width:1.0;"/><text fill="#000000" font-family="sans-serif" font-size="14" font-style="italic" lengthAdjust="spacing" textLength="158" x="27" y="61.9326">doubleValue(): double</text><ellipse cx="18" cy="74.8828" fill="#84BE84" rx="3" ry="3" style="stroke:#038048;stroke-width:1.0;"/><text fill="#000000" font-family="sans-serif" font-size="14" font-style="italic" lengthAdjust="spacing" textLength="190" x="27" y="78.2295">advance(): DoubleDBIDIter</text></g></a><!--MD5=[527e5807f578e6b6a7f67889090ab25b]
class elki.database.ids.integer.DoubleIntegerDBIDKNNHeap--><a href="DoubleIntegerDBIDKNNHeap.html" target="_top" title="DoubleIntegerDBIDKNNHeap.html" xlink:actuate="onRequest" xlink:href="DoubleIntegerDBIDKNNHeap.html" xlink:show="new" xlink:title="DoubleIntegerDBIDKNNHeap.html" xlink:type="simple"><g id="elem_elki.database.ids.integer.DoubleIntegerDBIDKNNHeap"><rect codeLine="20" fill="#F1F1F1" height="37.9375" id="elki.database.ids.integer.DoubleIntegerDBIDKNNHeap" rx="2.5" ry="2.5" style="stroke:#181818;stroke-width:0.5;" width="231" x="258.5" y="27.5"/><ellipse cx="273.5" cy="46.4688" fill="#ADD1B2" rx="11" ry="11" style="stroke:#181818;stroke-width:1.0;"/><path d="M276.4688,52.1094 Q275.8906,52.4063 275.25,52.5469 Q274.6094,52.7031 273.9063,52.7031 Q271.4063,52.7031 270.0781,51.0625 Q268.7656,49.4063 268.7656,46.2813 Q268.7656,43.1563 270.0781,41.5 Q271.4063,39.8438 273.9063,39.8438 Q274.6094,39.8438 275.25,40 Q275.9063,40.1563 276.4688,40.4531 L276.4688,43.1719 Q275.8438,42.5938 275.25,42.3281 Q274.6563,42.0469 274.0313,42.0469 Q272.6875,42.0469 272,43.125 Q271.3125,44.1875 271.3125,46.2813 Q271.3125,48.375 272,49.4531 Q272.6875,50.5156 274.0313,50.5156 Q274.6563,50.5156 275.25,50.25 Q275.8438,49.9688 276.4688,49.3906 L276.4688,52.1094 Z " fill="#000000"/><text fill="#000000" font-family="sans-serif" font-size="14" lengthAdjust="spacing" textLength="199" x="287.5" y="45.4951">DoubleIntegerDBIDKNNHeap</text><text fill="#000000" font-family="sans-serif" font-size="10" lengthAdjust="spacing" textLength="116" x="329" y="58.0791">elki.database.ids.integer</text></g></a><!--MD5=[44ba9e7841001479b0a09579c46cd428]
reverse link elki.database.ids.DoubleDBIDIter to elki.database.ids.integer.DoubleIntegerDBIDKNNHeap.UnorderedIter--><g id="link_elki.database.ids.DoubleDBIDIter_elki.database.ids.integer.DoubleIntegerDBIDKNNHeap.UnorderedIter"><path codeLine="22" d="M154.32,102.82 C163.96,116.38 174.48,131.19 184.82,145.74 " fill="none" id="elki.database.ids.DoubleDBIDIter-backto-elki.database.ids.integer.DoubleIntegerDBIDKNNHeap.UnorderedIter" style="stroke:#181818;stroke-width:1.0;stroke-dasharray:7.0,7.0;"/><polygon fill="none" points="148.55,106.79,142.67,86.44,159.97,98.68,148.55,106.79" style="stroke:#181818;stroke-width:1.0;"/></g><!--MD5=[260e5910ceba6053bd6ee72bb4c27b22]
reverse link elki.database.ids.integer.DoubleIntegerDBIDKNNHeap to elki.database.ids.integer.DoubleIntegerDBIDKNNHeap.UnorderedIter--><g id="link_elki.database.ids.integer.DoubleIntegerDBIDKNNHeap_elki.database.ids.integer.DoubleIntegerDBIDKNNHeap.UnorderedIter"><path codeLine="23" d="M352.19,77.95 C338.84,96.59 321.05,121.43 303.75,145.58 " fill="none" id="elki.database.ids.integer.DoubleIntegerDBIDKNNHeap-backto-elki.database.ids.integer.DoubleIntegerDBIDKNNHeap.UnorderedIter" style="stroke:#181818;stroke-width:1.0;"/><ellipse cx="356.3964" cy="72.0701" fill="#FFFFFF" rx="8" ry="8" style="stroke:#181818;stroke-width:1.0;"/><line style="stroke:#181818;stroke-width:1.0;" x1="351.7328" x2="361.06" y1="78.5701" y2="65.57"/><line style="stroke:#181818;stroke-width:1.0;" x1="349.8963" x2="362.8965" y1="67.4065" y2="76.7337"/></g><rect fill="none" height="11.6406" style="stroke:none;stroke-width:1.0;" width="186" x="148.25" y="320.0156"/><text fill="#888888" font-family="sans-serif" font-size="10" lengthAdjust="spacing" textLength="186" x="148.25" y="329.2979">UMLDoclet 2.0.19, PlantUML 1.2022.8</text><!--MD5=[671ebb616e1b61f251bed28607082281]
@startuml
    remove .*\.(Instance|Par|Parameterizer|Factory)$
    set namespaceSeparator none
    hide empty fields
    hide empty methods

    class "<size:14>DoubleIntegerDBIDKNNHeap.UnorderedIter\n<size:10>elki.database.ids.integer" as elki.database.ids.integer.DoubleIntegerDBIDKNNHeap.UnorderedIter [[DoubleIntegerDBIDKNNHeap.UnorderedIter.html]] {
        -it: DoubleDBIDIter
        -t: int
        +UnorderedIter(DoubleDBIDIter)
        +internalGetIndex(): int
        +valid(): boolean
        +doubleValue(): double
        +advance(): DoubleDBIDIter
    }

    interface "<size:14>DoubleDBIDIter\n<size:10>elki.database.ids" as elki.database.ids.DoubleDBIDIter [[../DoubleDBIDIter.html]] {
        {abstract} +doubleValue(): double
        {abstract} +advance(): DoubleDBIDIter
    }
    class "<size:14>DoubleIntegerDBIDKNNHeap\n<size:10>elki.database.ids.integer" as elki.database.ids.integer.DoubleIntegerDBIDKNNHeap [[DoubleIntegerDBIDKNNHeap.html]]

    elki.database.ids.DoubleDBIDIter <|.. elki.database.ids.integer.DoubleIntegerDBIDKNNHeap.UnorderedIter
    elki.database.ids.integer.DoubleIntegerDBIDKNNHeap +- - elki.database.ids.integer.DoubleIntegerDBIDKNNHeap.UnorderedIter

    center footer UMLDoclet 2.0.19, PlantUML 1.2022.8
@enduml

PlantUML version 1.2022.8(Sun Sep 25 11:00:33 CEST 2022)
(APACHE source distribution)
Java Runtime: OpenJDK Runtime Environment
JVM: OpenJDK 64-Bit Server VM
Default Encoding: UTF-8
Language: de
Country: DE
--></g></svg>