<?xml version="1.0" encoding="UTF-8" standalone="no"?><svg xmlns="http://www.w3.org/2000/svg" xmlns:xlink="http://www.w3.org/1999/xlink" contentStyleType="text/css" height="696px" preserveAspectRatio="none" style="width:501px;height:696px;background:#FFFFFF;" version="1.1" viewBox="0 0 501 696" width="501px" zoomAndPan="magnify"><defs/><g><!--MD5=[527e5807f578e6b6a7f67889090ab25b]
class elki.database.ids.integer.DoubleIntegerDBIDKNNHeap--><a href="DoubleIntegerDBIDKNNHeap.html" target="_top" title="DoubleIntegerDBIDKNNHeap.html" xlink:actuate="onRequest" xlink:href="DoubleIntegerDBIDKNNHeap.html" xlink:show="new" xlink:title="DoubleIntegerDBIDKNNHeap.html" xlink:type="simple"><g id="elem_elki.database.ids.integer.DoubleIntegerDBIDKNNHeap"><rect codeLine="6" fill="#F1F1F1" height="379.875" id="elki.database.ids.integer.DoubleIntegerDBIDKNNHeap" rx="2.5" ry="2.5" style="stroke:#181818;stroke-width:0.5;" width="325" x="75.5" y="194"/><ellipse cx="134.25" cy="212.9688" fill="#ADD1B2" rx="11" ry="11" style="stroke:#181818;stroke-width:1.0;"/><path d="M137.2188,218.6094 Q136.6406,218.9063 136,219.0469 Q135.3594,219.2031 134.6563,219.2031 Q132.1563,219.2031 130.8281,217.5625 Q129.5156,215.9063 129.5156,212.7813 Q129.5156,209.6563 130.8281,208 Q132.1563,206.3438 134.6563,206.3438 Q135.3594,206.3438 136,206.5 Q136.6563,206.6563 137.2188,206.9531 L137.2188,209.6719 Q136.5938,209.0938 136,208.8281 Q135.4063,208.5469 134.7813,208.5469 Q133.4375,208.5469 132.75,209.625 Q132.0625,210.6875 132.0625,212.7813 Q132.0625,214.875 132.75,215.9531 Q133.4375,217.0156 134.7813,217.0156 Q135.4063,217.0156 136,216.75 Q136.5938,216.4688 137.2188,215.8906 L137.2188,218.6094 Z " fill="#000000"/><text fill="#000000" font-family="sans-serif" font-size="14" lengthAdjust="spacing" textLength="199" x="154.75" y="211.9951">DoubleIntegerDBIDKNNHeap</text><text fill="#000000" font-family="sans-serif" font-size="10" lengthAdjust="spacing" textLength="116" x="196.25" y="224.5791">elki.database.ids.integer</text><line style="stroke:#181818;stroke-width:0.5;" x1="76.5" x2="399.5" y1="231.9375" y2="231.9375"/><rect fill="none" height="6" style="stroke:#C82930;stroke-width:1.0;" width="6" x="83.5" y="242.5859"/><text fill="#000000" font-family="sans-serif" font-size="14" lengthAdjust="spacing" textLength="34" x="95.5" y="248.9326">k: int</text><rect fill="none" height="6" style="stroke:#C82930;stroke-width:1.0;" width="6" x="83.5" y="258.8828"/><text fill="#000000" font-family="sans-serif" font-size="14" lengthAdjust="spacing" textLength="61" x="95.5" y="265.2295">ties: int[]</text><rect fill="none" height="6" style="stroke:#C82930;stroke-width:1.0;" width="6" x="83.5" y="275.1797"/><text fill="#000000" font-family="sans-serif" font-size="14" lengthAdjust="spacing" textLength="82" x="95.5" y="281.5264">numties: int</text><rect fill="none" height="6" style="stroke:#C82930;stroke-width:1.0;" width="6" x="83.5" y="291.4766"/><text fill="#000000" font-family="sans-serif" font-size="14" lengthAdjust="spacing" textLength="90" x="95.5" y="297.8232">kdist: double</text><rect fill="none" height="6" style="stroke:#C82930;stroke-width:1.0;" width="6" x="83.5" y="307.7734"/><text fill="#000000" font-family="sans-serif" font-size="14" lengthAdjust="spacing" text-decoration="underline" textLength="145" x="95.5" y="314.1201">INITIAL_TIES_SIZE: int</text><line style="stroke:#181818;stroke-width:0.5;" x1="76.5" x2="399.5" y1="321.4219" y2="321.4219"/><polygon fill="#FFFF44" points="86.5,330.0703,90.5,334.0703,86.5,338.0703,82.5,334.0703" style="stroke:#B38D22;stroke-width:1.0;"/><text fill="#000000" font-family="sans-serif" font-size="14" lengthAdjust="spacing" textLength="226" x="95.5" y="338.417">DoubleIntegerDBIDKNNHeap(int)</text><ellipse cx="86.5" cy="351.3672" fill="#84BE84" rx="3" ry="3" style="stroke:#038048;stroke-width:1.0;"/><text fill="#000000" font-family="sans-serif" font-size="14" lengthAdjust="spacing" textLength="68" x="95.5" y="354.7139">getK(): int</text><ellipse cx="86.5" cy="367.6641" fill="#84BE84" rx="3" ry="3" style="stroke:#038048;stroke-width:1.0;"/><text fill="#000000" font-family="sans-serif" font-size="14" lengthAdjust="spacing" textLength="180" x="95.5" y="371.0107">getKNNDistance(): double</text><ellipse cx="86.5" cy="383.9609" fill="#84BE84" rx="3" ry="3" style="stroke:#038048;stroke-width:1.0;"/><text fill="#000000" font-family="sans-serif" font-size="14" lengthAdjust="spacing" textLength="220" x="95.5" y="387.3076">insert(double, DBIDRef): double</text><rect fill="#F24D5C" height="6" style="stroke:#C82930;stroke-width:1.0;" width="6" x="83.5" y="397.2578"/><text fill="#000000" font-family="sans-serif" font-size="14" lengthAdjust="spacing" textLength="137" x="95.5" y="403.6045">addToTies(int): void</text><ellipse cx="86.5" cy="416.5547" fill="#84BE84" rx="3" ry="3" style="stroke:#038048;stroke-width:1.0;"/><text fill="#000000" font-family="sans-serif" font-size="14" lengthAdjust="spacing" textLength="71" x="95.5" y="419.9014">poll(): void</text><ellipse cx="86.5" cy="432.8516" fill="#84BE84" rx="3" ry="3" style="stroke:#038048;stroke-width:1.0;"/><text fill="#000000" font-family="sans-serif" font-size="14" lengthAdjust="spacing" textLength="64" x="95.5" y="436.1982">size(): int</text><ellipse cx="86.5" cy="449.1484" fill="#84BE84" rx="3" ry="3" style="stroke:#038048;stroke-width:1.0;"/><text fill="#000000" font-family="sans-serif" font-size="14" lengthAdjust="spacing" textLength="129" x="95.5" y="452.4951">isEmpty(): boolean</text><ellipse cx="86.5" cy="465.4453" fill="#84BE84" rx="3" ry="3" style="stroke:#038048;stroke-width:1.0;"/><text fill="#000000" font-family="sans-serif" font-size="14" lengthAdjust="spacing" textLength="80" x="95.5" y="468.792">clear(): void</text><ellipse cx="86.5" cy="481.7422" fill="#84BE84" rx="3" ry="3" style="stroke:#038048;stroke-width:1.0;"/><text fill="#000000" font-family="sans-serif" font-size="14" lengthAdjust="spacing" textLength="271" x="95.5" y="485.0889">toKNNList(): DoubleIntegerDBIDKNNList</text><ellipse cx="86.5" cy="498.0391" fill="#84BE84" rx="3" ry="3" style="stroke:#038048;stroke-width:1.0;"/><text fill="#000000" font-family="sans-serif" font-size="14" lengthAdjust="spacing" textLength="299" x="95.5" y="501.3857">toKNNListSqrt(): DoubleIntegerDBIDKNNList</text><ellipse cx="86.5" cy="514.3359" fill="#84BE84" rx="3" ry="3" style="stroke:#038048;stroke-width:1.0;"/><text fill="#000000" font-family="sans-serif" font-size="14" lengthAdjust="spacing" textLength="127" x="95.5" y="517.6826">peekKey(): double</text><ellipse cx="86.5" cy="530.6328" fill="#84BE84" rx="3" ry="3" style="stroke:#038048;stroke-width:1.0;"/><text fill="#000000" font-family="sans-serif" font-size="14" lengthAdjust="spacing" textLength="149" x="95.5" y="533.9795">internalGetIndex(): int</text><ellipse cx="86.5" cy="546.9297" fill="#84BE84" rx="3" ry="3" style="stroke:#038048;stroke-width:1.0;"/><text fill="#000000" font-family="sans-serif" font-size="14" lengthAdjust="spacing" textLength="192" x="95.5" y="550.2764">contains(DBIDRef): boolean</text><ellipse cx="86.5" cy="563.2266" fill="#84BE84" rx="3" ry="3" style="stroke:#038048;stroke-width:1.0;"/><text fill="#000000" font-family="sans-serif" font-size="14" lengthAdjust="spacing" textLength="248" x="95.5" y="566.5732">unorderedIterator(): DoubleDBIDIter</text></g></a><!--MD5=[384b0a6886abcdffb0a15eb21c44f143]
class elki.database.ids.integer.DoubleIntegerDBIDHeap--><a href="DoubleIntegerDBIDHeap.html" target="_top" title="DoubleIntegerDBIDHeap.html" xlink:actuate="onRequest" xlink:href="DoubleIntegerDBIDHeap.html" xlink:show="new" xlink:title="DoubleIntegerDBIDHeap.html" xlink:type="simple"><g id="elem_elki.database.ids.integer.DoubleIntegerDBIDHeap"><rect codeLine="29" fill="#F1F1F1" height="37.9375" id="elki.database.ids.integer.DoubleIntegerDBIDHeap" rx="2.5" ry="2.5" style="stroke:#181818;stroke-width:0.5;" width="202" x="7" y="51.5"/><ellipse cx="22" cy="70.4688" fill="#ADD1B2" rx="11" ry="11" style="stroke:#181818;stroke-width:1.0;"/><path d="M24.9688,76.1094 Q24.3906,76.4063 23.75,76.5469 Q23.1094,76.7031 22.4063,76.7031 Q19.9063,76.7031 18.5781,75.0625 Q17.2656,73.4063 17.2656,70.2813 Q17.2656,67.1563 18.5781,65.5 Q19.9063,63.8438 22.4063,63.8438 Q23.1094,63.8438 23.75,64 Q24.4063,64.1563 24.9688,64.4531 L24.9688,67.1719 Q24.3438,66.5938 23.75,66.3281 Q23.1563,66.0469 22.5313,66.0469 Q21.1875,66.0469 20.5,67.125 Q19.8125,68.1875 19.8125,70.2813 Q19.8125,72.375 20.5,73.4531 Q21.1875,74.5156 22.5313,74.5156 Q23.1563,74.5156 23.75,74.25 Q24.3438,73.9688 24.9688,73.3906 L24.9688,76.1094 Z " fill="#000000"/><text fill="#000000" font-family="sans-serif" font-size="14" lengthAdjust="spacing" textLength="170" x="36" y="69.4951">DoubleIntegerDBIDHeap</text><text fill="#000000" font-family="sans-serif" font-size="10" lengthAdjust="spacing" textLength="116" x="63" y="82.0791">elki.database.ids.integer</text></g></a><!--MD5=[aac24a8a049c1168e86c31038a1651e9]
class elki.database.ids.KNNHeap--><a href="../KNNHeap.html" target="_top" title="../KNNHeap.html" xlink:actuate="onRequest" xlink:href="../KNNHeap.html" xlink:show="new" xlink:title="../KNNHeap.html" xlink:type="simple"><g id="elem_elki.database.ids.KNNHeap"><rect codeLine="30" fill="#F1F1F1" height="127.4219" id="elki.database.ids.KNNHeap" rx="2.5" ry="2.5" style="stroke:#181818;stroke-width:0.5;" width="250" x="244" y="7"/><ellipse cx="323.25" cy="25.9688" fill="#B4A7E5" rx="11" ry="11" style="stroke:#181818;stroke-width:1.0;"/><path d="M319.1719,21.7344 L319.1719,19.5781 L326.5625,19.5781 L326.5625,21.7344 L324.0938,21.7344 L324.0938,29.8125 L326.5625,29.8125 L326.5625,31.9688 L319.1719,31.9688 L319.1719,29.8125 L321.6406,29.8125 L321.6406,21.7344 L319.1719,21.7344 Z " fill="#000000"/><text fill="#000000" font-family="sans-serif" font-size="14" font-style="italic" lengthAdjust="spacing" textLength="69" x="350.75" y="24.9951">KNNHeap</text><text fill="#000000" font-family="sans-serif" font-size="10" font-style="italic" lengthAdjust="spacing" textLength="83" x="343.75" y="37.5791">elki.database.ids</text><line style="stroke:#181818;stroke-width:0.5;" x1="245" x2="493" y1="44.9375" y2="44.9375"/><ellipse cx="255" cy="58.5859" fill="#84BE84" rx="3" ry="3" style="stroke:#038048;stroke-width:1.0;"/><text fill="#000000" font-family="sans-serif" font-size="14" font-style="italic" lengthAdjust="spacing" textLength="143" x="264" y="61.9326">toKNNList(): KNNList</text><ellipse cx="255" cy="74.8828" fill="#84BE84" rx="3" ry="3" style="stroke:#038048;stroke-width:1.0;"/><text fill="#000000" font-family="sans-serif" font-size="14" font-style="italic" lengthAdjust="spacing" textLength="171" x="264" y="78.2295">toKNNListSqrt(): KNNList</text><ellipse cx="255" cy="91.1797" fill="#84BE84" rx="3" ry="3" style="stroke:#038048;stroke-width:1.0;"/><text fill="#000000" font-family="sans-serif" font-size="14" font-style="italic" lengthAdjust="spacing" textLength="224" x="264" y="94.5264">insert(double, DBIDRef): double</text><ellipse cx="255" cy="107.4766" fill="#84BE84" rx="3" ry="3" style="stroke:#038048;stroke-width:1.0;"/><text fill="#000000" font-family="sans-serif" font-size="14" font-style="italic" lengthAdjust="spacing" textLength="69" x="264" y="110.8232">getK(): int</text><ellipse cx="255" cy="123.7734" fill="#84BE84" rx="3" ry="3" style="stroke:#038048;stroke-width:1.0;"/><text fill="#000000" font-family="sans-serif" font-size="14" font-style="italic" lengthAdjust="spacing" textLength="184" x="264" y="127.1201">getKNNDistance(): double</text></g></a><!--MD5=[c4718a808dbd195bc7c2e73d56589acb]
class elki.database.ids.integer.DoubleIntegerDBIDKNNHeap.UnorderedIter--><a href="DoubleIntegerDBIDKNNHeap.UnorderedIter.html" target="_top" title="DoubleIntegerDBIDKNNHeap.UnorderedIter.html" xlink:actuate="onRequest" xlink:href="DoubleIntegerDBIDKNNHeap.UnorderedIter.html" xlink:show="new" xlink:title="DoubleIntegerDBIDKNNHeap.UnorderedIter.html" xlink:type="simple"><g id="elem_elki.database.ids.integer.DoubleIntegerDBIDKNNHeap.UnorderedIter"><rect codeLine="37" fill="#F1F1F1" height="37.9375" id="elki.database.ids.integer.DoubleIntegerDBIDKNNHeap.UnorderedIter" rx="2.5" ry="2.5" style="stroke:#181818;stroke-width:0.5;" width="331" x="72.5" y="634"/><ellipse cx="87.5" cy="652.9688" fill="#ADD1B2" rx="11" ry="11" style="stroke:#181818;stroke-width:1.0;"/><path d="M90.4688,658.6094 Q89.8906,658.9063 89.25,659.0469 Q88.6094,659.2031 87.9063,659.2031 Q85.4063,659.2031 84.0781,657.5625 Q82.7656,655.9063 82.7656,652.7813 Q82.7656,649.6563 84.0781,648 Q85.4063,646.3438 87.9063,646.3438 Q88.6094,646.3438 89.25,646.5 Q89.9063,646.6563 90.4688,646.9531 L90.4688,649.6719 Q89.8438,649.0938 89.25,648.8281 Q88.6563,648.5469 88.0313,648.5469 Q86.6875,648.5469 86,649.625 Q85.3125,650.6875 85.3125,652.7813 Q85.3125,654.875 86,655.9531 Q86.6875,657.0156 88.0313,657.0156 Q88.6563,657.0156 89.25,656.75 Q89.8438,656.4688 90.4688,655.8906 L90.4688,658.6094 Z " fill="#000000"/><text fill="#000000" font-family="sans-serif" font-size="14" lengthAdjust="spacing" textLength="299" x="101.5" y="651.9951">DoubleIntegerDBIDKNNHeap.UnorderedIter</text><text fill="#000000" font-family="sans-serif" font-size="10" lengthAdjust="spacing" textLength="116" x="193" y="664.5791">elki.database.ids.integer</text></g></a><!--MD5=[c5b3ef60f168911668c9d41c99e0d70c]
reverse link elki.database.ids.integer.DoubleIntegerDBIDHeap to elki.database.ids.integer.DoubleIntegerDBIDKNNHeap--><g id="link_elki.database.ids.integer.DoubleIntegerDBIDHeap_elki.database.ids.integer.DoubleIntegerDBIDKNNHeap"><path codeLine="39" d="M123.26,108.07 C132.63,130.53 145.44,161.2 159.1,193.94 " fill="none" id="elki.database.ids.integer.DoubleIntegerDBIDHeap-backto-elki.database.ids.integer.DoubleIntegerDBIDKNNHeap" style="stroke:#181818;stroke-width:1.0;"/><polygon fill="none" points="116.79,110.75,115.55,89.59,129.71,105.36,116.79,110.75" style="stroke:#181818;stroke-width:1.0;"/></g><!--MD5=[1e405ccd7fa9560cd493dae357de9a05]
reverse link elki.database.ids.KNNHeap to elki.database.ids.integer.DoubleIntegerDBIDKNNHeap--><g id="link_elki.database.ids.KNNHeap_elki.database.ids.integer.DoubleIntegerDBIDKNNHeap"><path codeLine="40" d="M334.74,152.96 C329.32,165.84 323.54,179.61 317.58,193.76 " fill="none" id="elki.database.ids.KNNHeap-backto-elki.database.ids.integer.DoubleIntegerDBIDKNNHeap" style="stroke:#181818;stroke-width:1.0;stroke-dasharray:7.0,7.0;"/><polygon fill="none" points="328.44,149.88,342.65,134.16,341.35,155.31,328.44,149.88" style="stroke:#181818;stroke-width:1.0;"/></g><!--MD5=[260e5910ceba6053bd6ee72bb4c27b22]
reverse link elki.database.ids.integer.DoubleIntegerDBIDKNNHeap to elki.database.ids.integer.DoubleIntegerDBIDKNNHeap.UnorderedIter--><g id="link_elki.database.ids.integer.DoubleIntegerDBIDKNNHeap_elki.database.ids.integer.DoubleIntegerDBIDKNNHeap.UnorderedIter"><path codeLine="41" d="M238,589.27 C238,607.2 238,622.74 238,633.86 " fill="none" id="elki.database.ids.integer.DoubleIntegerDBIDKNNHeap-backto-elki.database.ids.integer.DoubleIntegerDBIDKNNHeap.UnorderedIter" style="stroke:#181818;stroke-width:1.0;"/><ellipse cx="238" cy="582.05" fill="#FFFFFF" rx="8" ry="8" style="stroke:#181818;stroke-width:1.0;"/><line style="stroke:#181818;stroke-width:1.0;" x1="238" x2="238" y1="590.05" y2="574.05"/><line style="stroke:#181818;stroke-width:1.0;" x1="230" x2="246" y1="582.05" y2="582.05"/></g><rect fill="none" height="11.6406" style="stroke:none;stroke-width:1.0;" width="186" x="150.5" y="676.9375"/><text fill="#888888" font-family="sans-serif" font-size="10" lengthAdjust="spacing" textLength="186" x="150.5" y="686.2197">UMLDoclet 2.0.19, PlantUML 1.2022.8</text><!--MD5=[aac4baf2d5c6f5004881ea3ae2f4333b]
@startuml
    remove .*\.(Instance|Par|Parameterizer|Factory)$
    set namespaceSeparator none
    hide empty fields
    hide empty methods

    class "<size:14>DoubleIntegerDBIDKNNHeap\n<size:10>elki.database.ids.integer" as elki.database.ids.integer.DoubleIntegerDBIDKNNHeap [[DoubleIntegerDBIDKNNHeap.html]] {
        -k: int
        -ties: int[]
        -numties: int
        -kdist: double
        {static} -INITIAL_TIES_SIZE: int
        #DoubleIntegerDBIDKNNHeap(int)
        +getK(): int
        +getKNNDistance(): double
        +insert(double, DBIDRef): double
        -addToTies(int): void
        +poll(): void
        +size(): int
        +isEmpty(): boolean
        +clear(): void
        +toKNNList(): DoubleIntegerDBIDKNNList
        +toKNNListSqrt(): DoubleIntegerDBIDKNNList
        +peekKey(): double
        +internalGetIndex(): int
        +contains(DBIDRef): boolean
        +unorderedIterator(): DoubleDBIDIter
    }

    class "<size:14>DoubleIntegerDBIDHeap\n<size:10>elki.database.ids.integer" as elki.database.ids.integer.DoubleIntegerDBIDHeap [[DoubleIntegerDBIDHeap.html]]
    interface "<size:14>KNNHeap\n<size:10>elki.database.ids" as elki.database.ids.KNNHeap [[../KNNHeap.html]] {
        {abstract} +toKNNList(): KNNList
        {abstract} +toKNNListSqrt(): KNNList
        {abstract} +insert(double, DBIDRef): double
        {abstract} +getK(): int
        {abstract} +getKNNDistance(): double
    }
    class "<size:14>DoubleIntegerDBIDKNNHeap.UnorderedIter\n<size:10>elki.database.ids.integer" as elki.database.ids.integer.DoubleIntegerDBIDKNNHeap.UnorderedIter [[DoubleIntegerDBIDKNNHeap.UnorderedIter.html]]

    elki.database.ids.integer.DoubleIntegerDBIDHeap <|- - elki.database.ids.integer.DoubleIntegerDBIDKNNHeap
    elki.database.ids.KNNHeap <|.. elki.database.ids.integer.DoubleIntegerDBIDKNNHeap
    elki.database.ids.integer.DoubleIntegerDBIDKNNHeap +- - elki.database.ids.integer.DoubleIntegerDBIDKNNHeap.UnorderedIter

    center footer UMLDoclet 2.0.19, PlantUML 1.2022.8
@enduml

PlantUML version 1.2022.8(Sun Sep 25 11:00:33 CEST 2022)
(APACHE source distribution)
Java Runtime: OpenJDK Runtime Environment
JVM: OpenJDK 64-Bit Server VM
Default Encoding: UTF-8
Language: de
Country: DE
--></g></svg>