<?xml version="1.0" encoding="UTF-8" standalone="no"?><svg xmlns="http://www.w3.org/2000/svg" xmlns:xlink="http://www.w3.org/1999/xlink" contentStyleType="text/css" height="534px" preserveAspectRatio="none" style="width:383px;height:534px;background:#FFFFFF;" version="1.1" viewBox="0 0 383 534" width="383px" zoomAndPan="magnify"><defs/><g><!--MD5=[ebdf001fe1bd69ff6297ebc7adabb904]
class elki.database.ids.integer.IntegerDBIDPair--><a href="IntegerDBIDPair.html" target="_top" title="IntegerDBIDPair.html" xlink:actuate="onRequest" xlink:href="IntegerDBIDPair.html" xlink:show="new" xlink:title="IntegerDBIDPair.html" xlink:type="simple"><g id="elem_elki.database.ids.integer.IntegerDBIDPair"><rect codeLine="6" fill="#F1F1F1" height="265.7969" id="elki.database.ids.integer.IntegerDBIDPair" rx="2.5" ry="2.5" style="stroke:#181818;stroke-width:0.5;" width="251" x="61.5" y="146"/><ellipse cx="124.75" cy="164.9688" fill="#ADD1B2" rx="11" ry="11" style="stroke:#181818;stroke-width:1.0;"/><path d="M127.7188,170.6094 Q127.1406,170.9063 126.5,171.0469 Q125.8594,171.2031 125.1563,171.2031 Q122.6563,171.2031 121.3281,169.5625 Q120.0156,167.9063 120.0156,164.7813 Q120.0156,161.6563 121.3281,160 Q122.6563,158.3438 125.1563,158.3438 Q125.8594,158.3438 126.5,158.5 Q127.1563,158.6563 127.7188,158.9531 L127.7188,161.6719 Q127.0938,161.0938 126.5,160.8281 Q125.9063,160.5469 125.2813,160.5469 Q123.9375,160.5469 123.25,161.625 Q122.5625,162.6875 122.5625,164.7813 Q122.5625,166.875 123.25,167.9531 Q123.9375,169.0156 125.2813,169.0156 Q125.9063,169.0156 126.5,168.75 Q127.0938,168.4688 127.7188,167.8906 L127.7188,170.6094 Z " fill="#000000"/><text fill="#000000" font-family="sans-serif" font-size="14" lengthAdjust="spacing" textLength="109" x="148.75" y="163.9951">IntegerDBIDPair</text><text fill="#000000" font-family="sans-serif" font-size="10" lengthAdjust="spacing" textLength="116" x="145.25" y="176.5791">elki.database.ids.integer</text><line style="stroke:#181818;stroke-width:0.5;" x1="62.5" x2="311.5" y1="183.9375" y2="183.9375"/><ellipse cx="72.5" cy="197.5859" fill="none" rx="3" ry="3" style="stroke:#038048;stroke-width:1.0;"/><text fill="#000000" font-family="sans-serif" font-size="14" lengthAdjust="spacing" textLength="51" x="81.5" y="200.9326">first: int</text><ellipse cx="72.5" cy="213.8828" fill="none" rx="3" ry="3" style="stroke:#038048;stroke-width:1.0;"/><text fill="#000000" font-family="sans-serif" font-size="14" lengthAdjust="spacing" textLength="78" x="81.5" y="217.2295">second: int</text><line style="stroke:#181818;stroke-width:0.5;" x1="62.5" x2="311.5" y1="224.5313" y2="224.5313"/><polygon fill="#FFFF44" points="72.5,233.1797,76.5,237.1797,72.5,241.1797,68.5,237.1797" style="stroke:#B38D22;stroke-width:1.0;"/><text fill="#000000" font-family="sans-serif" font-size="14" lengthAdjust="spacing" textLength="161" x="81.5" y="241.5264">IntegerDBIDPair(int, int)</text><ellipse cx="72.5" cy="254.4766" fill="#84BE84" rx="3" ry="3" style="stroke:#038048;stroke-width:1.0;"/><text fill="#000000" font-family="sans-serif" font-size="14" lengthAdjust="spacing" text-decoration="line-through" textLength="52" x="81.5" y="257.8232">getFirst</text><text fill="#000000" font-family="sans-serif" font-size="14" lengthAdjust="spacing" textLength="103" x="133.5" y="257.8232">(): IntegerDBID</text><ellipse cx="72.5" cy="270.7734" fill="#84BE84" rx="3" ry="3" style="stroke:#038048;stroke-width:1.0;"/><text fill="#000000" font-family="sans-serif" font-size="14" lengthAdjust="spacing" text-decoration="line-through" textLength="76" x="81.5" y="274.1201">getSecond</text><text fill="#000000" font-family="sans-serif" font-size="14" lengthAdjust="spacing" textLength="103" x="157.5" y="274.1201">(): IntegerDBID</text><ellipse cx="72.5" cy="287.0703" fill="#84BE84" rx="3" ry="3" style="stroke:#038048;stroke-width:1.0;"/><text fill="#000000" font-family="sans-serif" font-size="14" lengthAdjust="spacing" text-decoration="line-through" textLength="23" x="81.5" y="290.417">get</text><text fill="#000000" font-family="sans-serif" font-size="14" lengthAdjust="spacing" textLength="71" x="104.5" y="290.417">(int): DBID</text><ellipse cx="72.5" cy="303.3672" fill="#84BE84" rx="3" ry="3" style="stroke:#038048;stroke-width:1.0;"/><text fill="#000000" font-family="sans-serif" font-size="14" lengthAdjust="spacing" textLength="64" x="81.5" y="306.7139">size(): int</text><ellipse cx="72.5" cy="319.6641" fill="#84BE84" rx="3" ry="3" style="stroke:#038048;stroke-width:1.0;"/><text fill="#000000" font-family="sans-serif" font-size="14" lengthAdjust="spacing" textLength="192" x="81.5" y="323.0107">contains(DBIDRef): boolean</text><ellipse cx="72.5" cy="335.9609" fill="#84BE84" rx="3" ry="3" style="stroke:#038048;stroke-width:1.0;"/><text fill="#000000" font-family="sans-serif" font-size="14" lengthAdjust="spacing" textLength="129" x="81.5" y="339.3076">isEmpty(): boolean</text><ellipse cx="72.5" cy="352.2578" fill="#84BE84" rx="3" ry="3" style="stroke:#038048;stroke-width:1.0;"/><text fill="#000000" font-family="sans-serif" font-size="14" lengthAdjust="spacing" textLength="225" x="81.5" y="355.6045">assignVar(int, DBIDVar): DBIDVar</text><ellipse cx="72.5" cy="368.5547" fill="#84BE84" rx="3" ry="3" style="stroke:#038048;stroke-width:1.0;"/><text fill="#000000" font-family="sans-serif" font-size="14" lengthAdjust="spacing" textLength="169" x="81.5" y="371.9014">slice(int, int): ArrayDBIDs</text><ellipse cx="72.5" cy="384.8516" fill="#84BE84" rx="3" ry="3" style="stroke:#038048;stroke-width:1.0;"/><text fill="#000000" font-family="sans-serif" font-size="14" lengthAdjust="spacing" textLength="183" x="81.5" y="388.1982">binarySearch(DBIDRef): int</text><ellipse cx="72.5" cy="401.1484" fill="#84BE84" rx="3" ry="3" style="stroke:#038048;stroke-width:1.0;"/><text fill="#000000" font-family="sans-serif" font-size="14" lengthAdjust="spacing" textLength="181" x="81.5" y="404.4951">iter(): IntegerDBIDArrayIter</text></g></a><!--MD5=[f776016d83693b1122c2ff4d6191fa79]
class elki.database.ids.DBIDPair--><a href="../DBIDPair.html" target="_top" title="../DBIDPair.html" xlink:actuate="onRequest" xlink:href="../DBIDPair.html" xlink:show="new" xlink:title="../DBIDPair.html" xlink:type="simple"><g id="elem_elki.database.ids.DBIDPair"><rect codeLine="22" fill="#F1F1F1" height="78.5313" id="elki.database.ids.DBIDPair" rx="2.5" ry="2.5" style="stroke:#181818;stroke-width:0.5;" width="157" x="7.5" y="7"/><ellipse cx="41.4" cy="25.9688" fill="#B4A7E5" rx="11" ry="11" style="stroke:#181818;stroke-width:1.0;"/><path d="M37.3219,21.7344 L37.3219,19.5781 L44.7125,19.5781 L44.7125,21.7344 L42.2438,21.7344 L42.2438,29.8125 L44.7125,29.8125 L44.7125,31.9688 L37.3219,31.9688 L37.3219,29.8125 L39.7906,29.8125 L39.7906,21.7344 L37.3219,21.7344 Z " fill="#000000"/><text fill="#000000" font-family="sans-serif" font-size="14" font-style="italic" lengthAdjust="spacing" textLength="62" x="70.1" y="24.9951">DBIDPair</text><text fill="#000000" font-family="sans-serif" font-size="10" font-style="italic" lengthAdjust="spacing" textLength="83" x="59.6" y="37.5791">elki.database.ids</text><line style="stroke:#181818;stroke-width:0.5;" x1="8.5" x2="163.5" y1="44.9375" y2="44.9375"/><ellipse cx="18.5" cy="58.5859" fill="#84BE84" rx="3" ry="3" style="stroke:#038048;stroke-width:1.0;"/><text fill="#000000" font-family="sans-serif" font-size="14" font-style="italic" lengthAdjust="spacing" text-decoration="line-through" textLength="52" x="27.5" y="61.9326">getFirst</text><text fill="#000000" font-family="sans-serif" font-size="14" font-style="italic" lengthAdjust="spacing" textLength="55" x="79.5" y="61.9326">(): DBID</text><ellipse cx="18.5" cy="74.8828" fill="#84BE84" rx="3" ry="3" style="stroke:#038048;stroke-width:1.0;"/><text fill="#000000" font-family="sans-serif" font-size="14" font-style="italic" lengthAdjust="spacing" text-decoration="line-through" textLength="76" x="27.5" y="78.2295">getSecond</text><text fill="#000000" font-family="sans-serif" font-size="14" font-style="italic" lengthAdjust="spacing" textLength="55" x="103.5" y="78.2295">(): DBID</text></g></a><!--MD5=[d08a1f7a0356de070b5c9667f32813f3]
class elki.database.ids.integer.IntegerDBIDs--><a href="IntegerDBIDs.html" target="_top" title="IntegerDBIDs.html" xlink:actuate="onRequest" xlink:href="IntegerDBIDs.html" xlink:show="new" xlink:title="IntegerDBIDs.html" xlink:type="simple"><g id="elem_elki.database.ids.integer.IntegerDBIDs"><rect codeLine="26" fill="#F1F1F1" height="62.2344" id="elki.database.ids.integer.IntegerDBIDs" rx="2.5" ry="2.5" style="stroke:#181818;stroke-width:0.5;" width="177" x="199.5" y="15.5"/><ellipse cx="225.3" cy="34.4688" fill="#B4A7E5" rx="11" ry="11" style="stroke:#181818;stroke-width:1.0;"/><path d="M221.2219,30.2344 L221.2219,28.0781 L228.6125,28.0781 L228.6125,30.2344 L226.1438,30.2344 L226.1438,38.3125 L228.6125,38.3125 L228.6125,40.4688 L221.2219,40.4688 L221.2219,38.3125 L223.6906,38.3125 L223.6906,30.2344 L221.2219,30.2344 Z " fill="#000000"/><text fill="#000000" font-family="sans-serif" font-size="14" font-style="italic" lengthAdjust="spacing" textLength="93" x="255.7" y="33.4951">IntegerDBIDs</text><text fill="#000000" font-family="sans-serif" font-size="10" font-style="italic" lengthAdjust="spacing" textLength="121" x="241.7" y="46.0791">elki.database.ids.integer</text><line style="stroke:#181818;stroke-width:0.5;" x1="200.5" x2="375.5" y1="53.4375" y2="53.4375"/><ellipse cx="210.5" cy="67.0859" fill="#84BE84" rx="3" ry="3" style="stroke:#038048;stroke-width:1.0;"/><text fill="#000000" font-family="sans-serif" font-size="14" font-style="italic" lengthAdjust="spacing" textLength="151" x="219.5" y="70.4326">iter(): IntegerDBIDIter</text></g></a><!--MD5=[12a87863751736101c173ca2a5f660a2]
class elki.database.ids.integer.IntegerDBIDPair.Itr--><a href="IntegerDBIDPair.Itr.html" target="_top" title="IntegerDBIDPair.Itr.html" xlink:actuate="onRequest" xlink:href="IntegerDBIDPair.Itr.html" xlink:show="new" xlink:title="IntegerDBIDPair.Itr.html" xlink:type="simple"><g id="elem_elki.database.ids.integer.IntegerDBIDPair.Itr"><rect codeLine="29" fill="#F1F1F1" height="37.9375" id="elki.database.ids.integer.IntegerDBIDPair.Itr" rx="2.5" ry="2.5" style="stroke:#181818;stroke-width:0.5;" width="158" x="7" y="472"/><ellipse cx="22" cy="490.9688" fill="#ADD1B2" rx="11" ry="11" style="stroke:#181818;stroke-width:1.0;"/><path d="M24.9688,496.6094 Q24.3906,496.9063 23.75,497.0469 Q23.1094,497.2031 22.4063,497.2031 Q19.9063,497.2031 18.5781,495.5625 Q17.2656,493.9063 17.2656,490.7813 Q17.2656,487.6563 18.5781,486 Q19.9063,484.3438 22.4063,484.3438 Q23.1094,484.3438 23.75,484.5 Q24.4063,484.6563 24.9688,484.9531 L24.9688,487.6719 Q24.3438,487.0938 23.75,486.8281 Q23.1563,486.5469 22.5313,486.5469 Q21.1875,486.5469 20.5,487.625 Q19.8125,488.6875 19.8125,490.7813 Q19.8125,492.875 20.5,493.9531 Q21.1875,495.0156 22.5313,495.0156 Q23.1563,495.0156 23.75,494.75 Q24.3438,494.4688 24.9688,493.8906 L24.9688,496.6094 Z " fill="#000000"/><text fill="#000000" font-family="sans-serif" font-size="14" lengthAdjust="spacing" textLength="126" x="36" y="489.9951">IntegerDBIDPair.Itr</text><text fill="#000000" font-family="sans-serif" font-size="10" lengthAdjust="spacing" textLength="116" x="41" y="502.5791">elki.database.ids.integer</text></g></a><!--MD5=[d09f7e6bd1e2ecb9cb431b8683b85146]
class elki.database.ids.integer.IntegerDBIDPair.Slice--><a href="IntegerDBIDPair.Slice.html" target="_top" title="IntegerDBIDPair.Slice.html" xlink:actuate="onRequest" xlink:href="IntegerDBIDPair.Slice.html" xlink:show="new" xlink:title="IntegerDBIDPair.Slice.html" xlink:type="simple"><g id="elem_elki.database.ids.integer.IntegerDBIDPair.Slice"><rect codeLine="30" fill="#F1F1F1" height="37.9375" id="elki.database.ids.integer.IntegerDBIDPair.Slice" rx="2.5" ry="2.5" style="stroke:#181818;stroke-width:0.5;" width="177" x="199.5" y="472"/><ellipse cx="214.5" cy="490.9688" fill="#ADD1B2" rx="11" ry="11" style="stroke:#181818;stroke-width:1.0;"/><path d="M217.4688,496.6094 Q216.8906,496.9063 216.25,497.0469 Q215.6094,497.2031 214.9063,497.2031 Q212.4063,497.2031 211.0781,495.5625 Q209.7656,493.9063 209.7656,490.7813 Q209.7656,487.6563 211.0781,486 Q212.4063,484.3438 214.9063,484.3438 Q215.6094,484.3438 216.25,484.5 Q216.9063,484.6563 217.4688,484.9531 L217.4688,487.6719 Q216.8438,487.0938 216.25,486.8281 Q215.6563,486.5469 215.0313,486.5469 Q213.6875,486.5469 213,487.625 Q212.3125,488.6875 212.3125,490.7813 Q212.3125,492.875 213,493.9531 Q213.6875,495.0156 215.0313,495.0156 Q215.6563,495.0156 216.25,494.75 Q216.8438,494.4688 217.4688,493.8906 L217.4688,496.6094 Z " fill="#000000"/><text fill="#000000" font-family="sans-serif" font-size="14" lengthAdjust="spacing" textLength="145" x="228.5" y="489.9951">IntegerDBIDPair.Slice</text><text fill="#000000" font-family="sans-serif" font-size="10" lengthAdjust="spacing" textLength="116" x="243" y="502.5791">elki.database.ids.integer</text></g></a><!--MD5=[1f03ebe8748ce82412abcb4b1cbe9a60]
reverse link elki.database.ids.DBIDPair to elki.database.ids.integer.IntegerDBIDPair--><g id="link_elki.database.ids.DBIDPair_elki.database.ids.integer.IntegerDBIDPair"><path codeLine="32" d="M111.12,104.83 C116.67,117.5 122.78,131.43 129.04,145.73 " fill="none" id="elki.database.ids.DBIDPair-backto-elki.database.ids.integer.IntegerDBIDPair" style="stroke:#181818;stroke-width:1.0;stroke-dasharray:7.0,7.0;"/><polygon fill="none" points="104.52,107.21,102.91,86.08,117.34,101.59,104.52,107.21" style="stroke:#181818;stroke-width:1.0;"/></g><!--MD5=[a77b2eaafe2d1c13c42f27e1b9b72f95]
reverse link elki.database.ids.integer.IntegerDBIDs to elki.database.ids.integer.IntegerDBIDPair--><g id="link_elki.database.ids.integer.IntegerDBIDs_elki.database.ids.integer.IntegerDBIDPair"><path codeLine="33" d="M266.72,96.07 C260.19,110.96 252.67,128.12 244.92,145.82 " fill="none" id="elki.database.ids.integer.IntegerDBIDs-backto-elki.database.ids.integer.IntegerDBIDPair" style="stroke:#181818;stroke-width:1.0;stroke-dasharray:7.0,7.0;"/><polygon fill="none" points="260.36,93.14,274.8,77.63,273.18,98.76,260.36,93.14" style="stroke:#181818;stroke-width:1.0;"/></g><!--MD5=[0e316dd6ee7b1f2f3b7999018b48bbd2]
reverse link elki.database.ids.integer.IntegerDBIDPair to elki.database.ids.integer.IntegerDBIDPair.Itr--><g id="link_elki.database.ids.integer.IntegerDBIDPair_elki.database.ids.integer.IntegerDBIDPair.Itr"><path codeLine="34" d="M116.92,425.7 C108.14,443.96 100.3,460.27 94.7,471.9 " fill="none" id="elki.database.ids.integer.IntegerDBIDPair-backto-elki.database.ids.integer.IntegerDBIDPair.Itr" style="stroke:#181818;stroke-width:1.0;"/><ellipse cx="119.9963" cy="419.3065" fill="#FFFFFF" rx="8" ry="8" style="stroke:#181818;stroke-width:1.0;"/><line style="stroke:#181818;stroke-width:1.0;" x1="116.5225" x2="123.47" y1="426.5129" y2="412.1"/><line style="stroke:#181818;stroke-width:1.0;" x1="112.7898" x2="127.2027" y1="415.8327" y2="422.7802"/></g><!--MD5=[469c072aae7527e905f28cd1bd57a7c6]
reverse link elki.database.ids.integer.IntegerDBIDPair to elki.database.ids.integer.IntegerDBIDPair.Slice--><g id="link_elki.database.ids.integer.IntegerDBIDPair_elki.database.ids.integer.IntegerDBIDPair.Slice"><path codeLine="35" d="M257.08,425.7 C265.86,443.96 273.7,460.27 279.3,471.9 " fill="none" id="elki.database.ids.integer.IntegerDBIDPair-backto-elki.database.ids.integer.IntegerDBIDPair.Slice" style="stroke:#181818;stroke-width:1.0;"/><ellipse cx="254.0037" cy="419.3065" fill="#FFFFFF" rx="8" ry="8" style="stroke:#181818;stroke-width:1.0;"/><line style="stroke:#181818;stroke-width:1.0;" x1="257.4775" x2="250.53" y1="426.5129" y2="412.1"/><line style="stroke:#181818;stroke-width:1.0;" x1="246.7973" x2="261.2102" y1="422.7802" y2="415.8327"/></g><rect fill="none" height="11.6406" style="stroke:none;stroke-width:1.0;" width="186" x="91.75" y="514.9375"/><text fill="#888888" font-family="sans-serif" font-size="10" lengthAdjust="spacing" textLength="186" x="91.75" y="524.2197">UMLDoclet 2.0.19, PlantUML 1.2022.8</text><!--MD5=[caff148ec9f3b1b9d84ea2c925e50cf9]
@startuml
    remove .*\.(Instance|Par|Parameterizer|Factory)$
    set namespaceSeparator none
    hide empty fields
    hide empty methods

    class "<size:14>IntegerDBIDPair\n<size:10>elki.database.ids.integer" as elki.database.ids.integer.IntegerDBIDPair [[IntegerDBIDPair.html]] {
        +first: int
        +second: int
        #IntegerDBIDPair(int, int)
        +- -getFirst- -(): IntegerDBID
        +- -getSecond- -(): IntegerDBID
        +- -get- -(int): DBID
        +size(): int
        +contains(DBIDRef): boolean
        +isEmpty(): boolean
        +assignVar(int, DBIDVar): DBIDVar
        +slice(int, int): ArrayDBIDs
        +binarySearch(DBIDRef): int
        +iter(): IntegerDBIDArrayIter
    }

    interface "<size:14>DBIDPair\n<size:10>elki.database.ids" as elki.database.ids.DBIDPair [[../DBIDPair.html]] {
        {abstract} +- -getFirst- -(): DBID
        {abstract} +- -getSecond- -(): DBID
    }
    interface "<size:14>IntegerDBIDs\n<size:10>elki.database.ids.integer" as elki.database.ids.integer.IntegerDBIDs [[IntegerDBIDs.html]] {
        {abstract} +iter(): IntegerDBIDIter
    }
    class "<size:14>IntegerDBIDPair.Itr\n<size:10>elki.database.ids.integer" as elki.database.ids.integer.IntegerDBIDPair.Itr [[IntegerDBIDPair.Itr.html]]
    class "<size:14>IntegerDBIDPair.Slice\n<size:10>elki.database.ids.integer" as elki.database.ids.integer.IntegerDBIDPair.Slice [[IntegerDBIDPair.Slice.html]]

    elki.database.ids.DBIDPair <|.. elki.database.ids.integer.IntegerDBIDPair
    elki.database.ids.integer.IntegerDBIDs <|.. elki.database.ids.integer.IntegerDBIDPair
    elki.database.ids.integer.IntegerDBIDPair +- - elki.database.ids.integer.IntegerDBIDPair.Itr
    elki.database.ids.integer.IntegerDBIDPair +- - elki.database.ids.integer.IntegerDBIDPair.Slice

    center footer UMLDoclet 2.0.19, PlantUML 1.2022.8
@enduml

PlantUML version 1.2022.8(Sun Sep 25 11:00:33 CEST 2022)
(APACHE source distribution)
Java Runtime: OpenJDK Runtime Environment
JVM: OpenJDK 64-Bit Server VM
Default Encoding: UTF-8
Language: de
Country: DE
--></g></svg>