<?xml version="1.0" encoding="UTF-8" standalone="no"?><svg xmlns="http://www.w3.org/2000/svg" xmlns:xlink="http://www.w3.org/1999/xlink" contentStyleType="text/css" height="169px" preserveAspectRatio="none" style="width:804px;height:169px;background:#FFFFFF;" version="1.1" viewBox="0 0 804 169" width="804px" zoomAndPan="magnify"><defs/><g><!--MD5=[8e64693832a6a477c4d9d6deba33ca69]
class elki.database.ids.integer.IntegerDBIDArrayQuickSort--><a href="IntegerDBIDArrayQuickSort.html" target="_top" title="IntegerDBIDArrayQuickSort.html" xlink:actuate="onRequest" xlink:href="IntegerDBIDArrayQuickSort.html" xlink:show="new" xlink:title="IntegerDBIDArrayQuickSort.html" xlink:type="simple"><g id="elem_elki.database.ids.integer.IntegerDBIDArrayQuickSort"><rect codeLine="6" fill="#F1F1F1" height="135.4219" id="elki.database.ids.integer.IntegerDBIDArrayQuickSort" rx="2.5" ry="2.5" style="stroke:#181818;stroke-width:0.5;" width="783" x="7" y="7"/><ellipse cx="301.75" cy="25.9688" fill="#ADD1B2" rx="11" ry="11" style="stroke:#181818;stroke-width:1.0;"/><path d="M304.7188,31.6094 Q304.1406,31.9063 303.5,32.0469 Q302.8594,32.2031 302.1563,32.2031 Q299.6563,32.2031 298.3281,30.5625 Q297.0156,28.9063 297.0156,25.7813 Q297.0156,22.6563 298.3281,21 Q299.6563,19.3438 302.1563,19.3438 Q302.8594,19.3438 303.5,19.5 Q304.1563,19.6563 304.7188,19.9531 L304.7188,22.6719 Q304.0938,22.0938 303.5,21.8281 Q302.9063,21.5469 302.2813,21.5469 Q300.9375,21.5469 300.25,22.625 Q299.5625,23.6875 299.5625,25.7813 Q299.5625,27.875 300.25,28.9531 Q300.9375,30.0156 302.2813,30.0156 Q302.9063,30.0156 303.5,29.75 Q304.0938,29.4688 304.7188,28.8906 L304.7188,31.6094 Z " fill="#000000"/><text fill="#000000" font-family="sans-serif" font-size="14" lengthAdjust="spacing" textLength="185" x="322.25" y="24.9951">IntegerDBIDArrayQuickSort</text><text fill="#000000" font-family="sans-serif" font-size="10" lengthAdjust="spacing" textLength="116" x="356.75" y="37.5791">elki.database.ids.integer</text><line style="stroke:#181818;stroke-width:0.5;" x1="8" x2="789" y1="44.9375" y2="44.9375"/><rect fill="none" height="6" style="stroke:#C82930;stroke-width:1.0;" width="6" x="15" y="55.5859"/><text fill="#000000" font-family="sans-serif" font-size="14" lengthAdjust="spacing" text-decoration="underline" textLength="193" x="27" y="61.9326">INSERTION_THRESHOLD: int</text><line style="stroke:#181818;stroke-width:0.5;" x1="8" x2="789" y1="69.2344" y2="69.2344"/><ellipse cx="18" cy="82.8828" fill="#84BE84" rx="3" ry="3" style="stroke:#038048;stroke-width:1.0;"/><text fill="#000000" font-family="sans-serif" font-size="14" lengthAdjust="spacing" text-decoration="underline" textLength="327" x="27" y="86.2295">sort(int[], Comparator&lt;? super DBIDRef&gt;): void</text><ellipse cx="18" cy="99.1797" fill="#84BE84" rx="3" ry="3" style="stroke:#038048;stroke-width:1.0;"/><text fill="#000000" font-family="sans-serif" font-size="14" lengthAdjust="spacing" text-decoration="underline" textLength="377" x="27" y="102.5264">sort(int[], int, int, Comparator&lt;? super DBIDRef&gt;): void</text><rect fill="#F24D5C" height="6" style="stroke:#C82930;stroke-width:1.0;" width="6" x="15" y="112.4766"/><text fill="#000000" font-family="sans-serif" font-size="14" lengthAdjust="spacing" text-decoration="underline" textLength="757" x="27" y="118.8232">quickSort(int[], int, int, Comparator&lt;? super DBIDRef&gt;, IntegerDBIDVar, IntegerDBIDVar, IntegerDBIDVar): void</text><rect fill="#F24D5C" height="6" style="stroke:#C82930;stroke-width:1.0;" width="6" x="15" y="128.7734"/><text fill="#000000" font-family="sans-serif" font-size="14" lengthAdjust="spacing" text-decoration="underline" textLength="593" x="27" y="135.1201">compare(IntegerDBIDVar, int, IntegerDBIDVar, int, Comparator&lt;? super DBIDRef&gt;): int</text></g></a><rect fill="none" height="11.6406" style="stroke:none;stroke-width:1.0;" width="186" x="305" y="149.4219"/><text fill="#888888" font-family="sans-serif" font-size="10" lengthAdjust="spacing" textLength="186" x="305" y="158.7041">UMLDoclet 2.0.19, PlantUML 1.2022.8</text><!--MD5=[1e1a199f2adc63ca3e2655685b0bb872]
@startuml
    remove .*\.(Instance|Par|Parameterizer|Factory)$
    set namespaceSeparator none
    hide empty fields
    hide empty methods

    class "<size:14>IntegerDBIDArrayQuickSort\n<size:10>elki.database.ids.integer" as elki.database.ids.integer.IntegerDBIDArrayQuickSort [[IntegerDBIDArrayQuickSort.html]] {
        {static} -INSERTION_THRESHOLD: int
        {static} +sort(int[], Comparator<? super DBIDRef>): void
        {static} +sort(int[], int, int, Comparator<? super DBIDRef>): void
        {static} -quickSort(int[], int, int, Comparator<? super DBIDRef>, IntegerDBIDVar, IntegerDBIDVar, IntegerDBIDVar): void
        {static} -compare(IntegerDBIDVar, int, IntegerDBIDVar, int, Comparator<? super DBIDRef>): int
    }

    center footer UMLDoclet 2.0.19, PlantUML 1.2022.8
@enduml

PlantUML version 1.2022.8(Sun Sep 25 11:00:33 CEST 2022)
(APACHE source distribution)
Java Runtime: OpenJDK Runtime Environment
JVM: OpenJDK 64-Bit Server VM
Default Encoding: UTF-8
Language: de
Country: DE
--></g></svg>