<?xml version="1.0" encoding="UTF-8" standalone="no"?><svg xmlns="http://www.w3.org/2000/svg" xmlns:xlink="http://www.w3.org/1999/xlink" contentStyleType="text/css" height="282px" preserveAspectRatio="none" style="width:364px;height:282px;background:#FFFFFF;" version="1.1" viewBox="0 0 364 282" width="364px" zoomAndPan="magnify"><defs/><g><!--MD5=[8e11f1f94b8a7faeccaabe04a034a5c1]
class elki.database.ids.integer.TrivialDBIDFactory--><a href="TrivialDBIDFactory.html" target="_top" title="TrivialDBIDFactory.html" xlink:actuate="onRequest" xlink:href="TrivialDBIDFactory.html" xlink:show="new" xlink:title="TrivialDBIDFactory.html" xlink:type="simple"><g id="elem_elki.database.ids.integer.TrivialDBIDFactory"><rect codeLine="6" fill="#F1F1F1" height="151.7188" id="elki.database.ids.integer.TrivialDBIDFactory" rx="2.5" ry="2.5" style="stroke:#181818;stroke-width:0.5;" width="348" x="9" y="105"/><ellipse cx="117.25" cy="123.9688" fill="#ADD1B2" rx="11" ry="11" style="stroke:#181818;stroke-width:1.0;"/><path d="M120.2188,129.6094 Q119.6406,129.9063 119,130.0469 Q118.3594,130.2031 117.6563,130.2031 Q115.1563,130.2031 113.8281,128.5625 Q112.5156,126.9063 112.5156,123.7813 Q112.5156,120.6563 113.8281,119 Q115.1563,117.3438 117.6563,117.3438 Q118.3594,117.3438 119,117.5 Q119.6563,117.6563 120.2188,117.9531 L120.2188,120.6719 Q119.5938,120.0938 119,119.8281 Q118.4063,119.5469 117.7813,119.5469 Q116.4375,119.5469 115.75,120.625 Q115.0625,121.6875 115.0625,123.7813 Q115.0625,125.875 115.75,126.9531 Q116.4375,128.0156 117.7813,128.0156 Q118.4063,128.0156 119,127.75 Q119.5938,127.4688 120.2188,126.8906 L120.2188,129.6094 Z " fill="#000000"/><text fill="#000000" font-family="sans-serif" font-size="14" lengthAdjust="spacing" textLength="123" x="137.75" y="122.9951">TrivialDBIDFactory</text><text fill="#000000" font-family="sans-serif" font-size="10" lengthAdjust="spacing" textLength="116" x="141.25" y="135.5791">elki.database.ids.integer</text><line style="stroke:#181818;stroke-width:0.5;" x1="10" x2="356" y1="142.9375" y2="142.9375"/><polygon fill="none" points="20,152.5859,16,158.5859,24,158.5859" style="stroke:#1963A0;stroke-width:1.0;"/><text fill="#000000" font-family="sans-serif" font-size="14" lengthAdjust="spacing" textLength="135" x="29" y="159.9326">next: AtomicInteger</text><line style="stroke:#181818;stroke-width:0.5;" x1="10" x2="356" y1="167.2344" y2="167.2344"/><ellipse cx="20" cy="180.8828" fill="#84BE84" rx="3" ry="3" style="stroke:#038048;stroke-width:1.0;"/><text fill="#000000" font-family="sans-serif" font-size="14" lengthAdjust="spacing" textLength="194" x="29" y="184.2295">generateSingleDBID(): DBID</text><ellipse cx="20" cy="197.1797" fill="#84BE84" rx="3" ry="3" style="stroke:#038048;stroke-width:1.0;"/><text fill="#000000" font-family="sans-serif" font-size="14" lengthAdjust="spacing" textLength="253" x="29" y="200.5264">deallocateSingleDBID(DBIDRef): void</text><ellipse cx="20" cy="213.4766" fill="#84BE84" rx="3" ry="3" style="stroke:#038048;stroke-width:1.0;"/><text fill="#000000" font-family="sans-serif" font-size="14" lengthAdjust="spacing" textLength="297" x="29" y="216.8232">generateStaticDBIDRange(int): DBIDRange</text><ellipse cx="20" cy="229.7734" fill="#84BE84" rx="3" ry="3" style="stroke:#038048;stroke-width:1.0;"/><text fill="#000000" font-family="sans-serif" font-size="14" lengthAdjust="spacing" textLength="322" x="29" y="233.1201">generateStaticDBIDRange(int, int): DBIDRange</text><ellipse cx="20" cy="246.0703" fill="#84BE84" rx="3" ry="3" style="stroke:#038048;stroke-width:1.0;"/><text fill="#000000" font-family="sans-serif" font-size="14" lengthAdjust="spacing" textLength="278" x="29" y="249.417">deallocateDBIDRange(DBIDRange): void</text></g></a><!--MD5=[f36b65f9419d5f36849c9399023b4326]
class elki.database.ids.integer.AbstractIntegerDBIDFactory--><a href="AbstractIntegerDBIDFactory.html" target="_top" title="AbstractIntegerDBIDFactory.html" xlink:actuate="onRequest" xlink:href="AbstractIntegerDBIDFactory.html" xlink:show="new" xlink:title="AbstractIntegerDBIDFactory.html" xlink:type="simple"><g id="elem_elki.database.ids.integer.AbstractIntegerDBIDFactory"><rect codeLine="15" fill="#F1F1F1" height="37.9375" id="elki.database.ids.integer.AbstractIntegerDBIDFactory" rx="2.5" ry="2.5" style="stroke:#181818;stroke-width:0.5;" width="228" x="69" y="7"/><ellipse cx="84" cy="25.9688" fill="#A9DCDF" rx="11" ry="11" style="stroke:#181818;stroke-width:1.0;"/><path d="M84.1094,21.3125 L82.9531,26.3906 L85.2813,26.3906 L84.1094,21.3125 Z M82.625,19.0781 L85.6094,19.0781 L88.9688,31.4688 L86.5156,31.4688 L85.75,28.4063 L82.4688,28.4063 L81.7188,31.4688 L79.2813,31.4688 L82.625,19.0781 Z " fill="#000000"/><text fill="#000000" font-family="sans-serif" font-size="14" font-style="italic" lengthAdjust="spacing" textLength="196" x="98" y="24.9951">AbstractIntegerDBIDFactory</text><text fill="#000000" font-family="sans-serif" font-size="10" font-style="italic" lengthAdjust="spacing" textLength="121" x="135.5" y="37.5791">elki.database.ids.integer</text></g></a><!--MD5=[303796de0b9ce46c424fa6083daad155]
reverse link elki.database.ids.integer.AbstractIntegerDBIDFactory to elki.database.ids.integer.TrivialDBIDFactory--><g id="link_elki.database.ids.integer.AbstractIntegerDBIDFactory_elki.database.ids.integer.TrivialDBIDFactory"><path codeLine="17" d="M183,65.26 C183,77.35 183,91.17 183,104.93 " fill="none" id="elki.database.ids.integer.AbstractIntegerDBIDFactory-backto-elki.database.ids.integer.TrivialDBIDFactory" style="stroke:#181818;stroke-width:1.0;"/><polygon fill="none" points="176,65.15,183,45.15,190,65.15,176,65.15" style="stroke:#181818;stroke-width:1.0;"/></g><rect fill="none" height="11.6406" style="stroke:none;stroke-width:1.0;" width="186" x="82" y="262.7188"/><text fill="#888888" font-family="sans-serif" font-size="10" lengthAdjust="spacing" textLength="186" x="82" y="272.001">UMLDoclet 2.0.19, PlantUML 1.2022.8</text><!--MD5=[ed0cb08a1a402ec04bcd57a76b81bf34]
@startuml
    remove .*\.(Instance|Par|Parameterizer|Factory)$
    set namespaceSeparator none
    hide empty fields
    hide empty methods

    class "<size:14>TrivialDBIDFactory\n<size:10>elki.database.ids.integer" as elki.database.ids.integer.TrivialDBIDFactory [[TrivialDBIDFactory.html]] {
        ~next: AtomicInteger
        +generateSingleDBID(): DBID
        +deallocateSingleDBID(DBIDRef): void
        +generateStaticDBIDRange(int): DBIDRange
        +generateStaticDBIDRange(int, int): DBIDRange
        +deallocateDBIDRange(DBIDRange): void
    }

    abstract class "<size:14>AbstractIntegerDBIDFactory\n<size:10>elki.database.ids.integer" as elki.database.ids.integer.AbstractIntegerDBIDFactory [[AbstractIntegerDBIDFactory.html]]

    elki.database.ids.integer.AbstractIntegerDBIDFactory <|- - elki.database.ids.integer.TrivialDBIDFactory

    center footer UMLDoclet 2.0.19, PlantUML 1.2022.8
@enduml

PlantUML version 1.2022.8(Sun Sep 25 11:00:33 CEST 2022)
(APACHE source distribution)
Java Runtime: OpenJDK Runtime Environment
JVM: OpenJDK 64-Bit Server VM
Default Encoding: UTF-8
Language: de
Country: DE
--></g></svg>