<?xml version="1.0" encoding="UTF-8" standalone="no"?>
<!DOCTYPE svg PUBLIC "-//W3C//DTD SVG 1.1//EN"
 "http://www.w3.org/Graphics/SVG/1.1/DTD/svg11.dtd">
<!-- Generated by graphviz version 2.40.1 (20161225.0304)
 -->
<!-- Title: G Pages: 1 -->
<svg width="621pt" height="151pt"
 viewBox="0.00 0.00 621.00 150.72" xmlns="http://www.w3.org/2000/svg" xmlns:xlink="http://www.w3.org/1999/xlink">
<g id="graph0" class="graph" transform="scale(1 1) rotate(0) translate(4 146.7155)">
<title>G</title>
<polygon fill="#ffffff" stroke="transparent" points="-4,4 -4,-146.7155 617,-146.7155 617,4 -4,4"/>
<!-- c5265268 -->
<g id="node1" class="node">
<title>c5265268</title>
<g id="a_node1"><a xlink:href="../../../workflow/InputStep.html" xlink:title="&lt;TABLE&gt;">
<g id="a_node1_0"><a xlink:href="../../../workflow/InputStep.html" xlink:title="de.lmu.ifi.dbs.elki.workflow.InputStep" target="_parent">
<polygon fill="none" stroke="#000000" points="511,0 511,-28 613,-28 613,0 511,0"/>
<text text-anchor="start" x="542" y="-18.6" font-family="Roboto" font-size="8.00" fill="#000000"> </text>
<text text-anchor="start" x="545" y="-18.6" font-family="Roboto" font-size="8.00" fill="#000000">InputStep</text>
<text text-anchor="start" x="579" y="-18.6" font-family="Roboto" font-size="8.00" fill="#000000"> </text>
<text text-anchor="start" x="515" y="-7.6" font-family="Roboto" font-size="8.00" fill="#000000"> </text>
<text text-anchor="start" x="518" y="-7.6" font-family="Roboto" font-size="7.00" fill="#000000">de.lmu.ifi.dbs.elki.workflow</text>
<text text-anchor="start" x="606" y="-7.6" font-family="Roboto" font-size="8.00" fill="#000000"> </text>
</a>
</g>
</a>
</g>
</g>
<!-- c5267520 -->
<g id="node2" class="node">
<title>c5267520</title>
<g id="a_node2"><a xlink:href="../MultiStepGUI.html" xlink:title="&lt;TABLE&gt;">
<g id="a_node2_1"><a xlink:href="../MultiStepGUI.html" xlink:title="de.lmu.ifi.dbs.elki.gui.multistep.MultiStepGUI" target="_parent">
<polygon fill="#fffacd" stroke="transparent" points="0,-109 0,-137 117,-137 117,-109 0,-109"/>
<polygon fill="none" stroke="#000000" points=".5,-109 .5,-137 117.5,-137 117.5,-109 .5,-109"/>
<text text-anchor="start" x="31.5" y="-127.6" font-family="Roboto" font-size="8.00" fill="#000000"> </text>
<text text-anchor="start" x="34.5" y="-127.6" font-family="Roboto" font-size="8.00" fill="#000000">MultiStepGUI</text>
<text text-anchor="start" x="83.5" y="-127.6" font-family="Roboto" font-size="8.00" fill="#000000"> </text>
<text text-anchor="start" x="4.5" y="-116.6" font-family="Roboto" font-size="8.00" fill="#000000"> </text>
<text text-anchor="start" x="7.5" y="-116.6" font-family="Roboto" font-size="7.00" fill="#000000">de.lmu.ifi.dbs.elki.gui.multistep</text>
<text text-anchor="start" x="110.5" y="-116.6" font-family="Roboto" font-size="8.00" fill="#000000"> </text>
</a>
</g>
</a>
</g>
</g>
<!-- c5267521 -->
<g id="node3" class="node">
<title>c5267521</title>
<g id="a_node3"><a xlink:href="AlgorithmTabPanel.html" xlink:title="&lt;TABLE&gt;">
<g id="a_node3_2"><a xlink:href="AlgorithmTabPanel.html" xlink:title="de.lmu.ifi.dbs.elki.gui.multistep.panels.AlgorithmTabPanel" target="_parent">
<polygon fill="none" stroke="#000000" points="327,-54 327,-71 409,-71 409,-54 327,-54"/>
<text text-anchor="start" x="331" y="-61.6" font-family="Roboto" font-size="8.00" fill="#000000"> </text>
<text text-anchor="start" x="334" y="-61.6" font-family="Roboto" font-size="8.00" fill="#000000">AlgorithmTabPanel</text>
<text text-anchor="start" x="402" y="-61.6" font-family="Roboto" font-size="8.00" fill="#000000"> </text>
</a>
</g>
</a>
</g>
</g>
<!-- c5267520&#45;&gt;c5267521 -->
<g id="edge1" class="edge">
<title>c5267520&#45;&gt;c5267521</title>
<path fill="none" stroke="#000000" d="M129.5075,-125.7994C180.8009,-125.6146 250.9707,-120.7523 309,-100 327.4429,-93.4045 346.1707,-80.3397 357.4373,-71.6345"/>
<polygon fill="#000000" stroke="#000000" points="129.222,-125.7985 123.2078,-129.7773 117.222,-125.756 123.2362,-121.7773 129.222,-125.7985"/>
</g>
<!-- c5267522 -->
<g id="node4" class="node">
<title>c5267522</title>
<g id="a_node4"><a xlink:href="EvaluationTabPanel.html" xlink:title="&lt;TABLE&gt;">
<g id="a_node4_3"><a xlink:href="EvaluationTabPanel.html" xlink:title="de.lmu.ifi.dbs.elki.gui.multistep.panels.EvaluationTabPanel" target="_parent">
<polygon fill="none" stroke="#000000" points="225,-77 225,-94 309,-94 309,-77 225,-77"/>
<text text-anchor="start" x="229" y="-84.6" font-family="Roboto" font-size="8.00" fill="#000000"> </text>
<text text-anchor="start" x="232" y="-84.6" font-family="Roboto" font-size="8.00" fill="#000000">EvaluationTabPanel</text>
<text text-anchor="start" x="302" y="-84.6" font-family="Roboto" font-size="8.00" fill="#000000"> </text>
</a>
</g>
</a>
</g>
</g>
<!-- c5267520&#45;&gt;c5267522 -->
<g id="edge2" class="edge">
<title>c5267520&#45;&gt;c5267522</title>
<path fill="none" stroke="#000000" d="M129.4077,-113.1335C154.0417,-109.4105 181.8032,-104.8837 207,-100 215.2958,-98.3921 224.1854,-96.4434 232.5122,-94.5172"/>
<polygon fill="#000000" stroke="#000000" points="129.0863,-113.1813 123.7412,-118.0217 117.2173,-114.9495 122.5624,-110.109 129.0863,-113.1813"/>
</g>
<!-- c5267523 -->
<g id="node5" class="node">
<title>c5267523</title>
<g id="a_node5"><a xlink:href="InputTabPanel.html" xlink:title="&lt;TABLE&gt;">
<g id="a_node5_4"><a xlink:href="InputTabPanel.html" xlink:title="de.lmu.ifi.dbs.elki.gui.multistep.panels.InputTabPanel" target="_parent">
<polygon fill="#fffacd" stroke="transparent" points="427,-5.5 427,-22.5 493,-22.5 493,-5.5 427,-5.5"/>
<polygon fill="none" stroke="#000000" points="427,-5 427,-22 493,-22 493,-5 427,-5"/>
<text text-anchor="start" x="431" y="-12.6" font-family="Roboto" font-size="8.00" fill="#000000"> </text>
<text text-anchor="start" x="434" y="-12.6" font-family="Roboto" font-size="8.00" fill="#000000">InputTabPanel</text>
<text text-anchor="start" x="486" y="-12.6" font-family="Roboto" font-size="8.00" fill="#000000"> </text>
</a>
</g>
</a>
</g>
</g>
<!-- c5267520&#45;&gt;c5267523 -->
<g id="edge3" class="edge">
<title>c5267520&#45;&gt;c5267523</title>
<path fill="none" stroke="#000000" d="M129.318,-136.2596C205.6137,-146.4381 327.0735,-150.2843 409,-92 434.3124,-73.9922 450.3437,-39.1211 456.7773,-22.811"/>
<polygon fill="#000000" stroke="#000000" points="128.891,-136.199 122.3878,-139.315 117.0104,-134.5105 123.5135,-131.3945 128.891,-136.199"/>
</g>
<!-- c5267524 -->
<g id="node6" class="node">
<title>c5267524</title>
<g id="a_node6"><a xlink:href="OutputTabPanel.html" xlink:title="&lt;TABLE&gt;">
<g id="a_node6_5"><a xlink:href="OutputTabPanel.html" xlink:title="de.lmu.ifi.dbs.elki.gui.multistep.panels.OutputTabPanel" target="_parent">
<polygon fill="none" stroke="#000000" points="135,-77 135,-94 207,-94 207,-77 135,-77"/>
<text text-anchor="start" x="139" y="-84.6" font-family="Roboto" font-size="8.00" fill="#000000"> </text>
<text text-anchor="start" x="142" y="-84.6" font-family="Roboto" font-size="8.00" fill="#000000">OutputTabPanel</text>
<text text-anchor="start" x="200" y="-84.6" font-family="Roboto" font-size="8.00" fill="#000000"> </text>
</a>
</g>
</a>
</g>
</g>
<!-- c5267520&#45;&gt;c5267524 -->
<g id="edge4" class="edge">
<title>c5267520&#45;&gt;c5267524</title>
<path fill="none" stroke="#000000" d="M112.8697,-105.1184C124.0268,-101.449 135.2825,-97.7471 144.8787,-94.591"/>
<polygon fill="#000000" stroke="#000000" points="112.7517,-105.1572 108.3017,-110.8315 101.3524,-108.9063 105.8023,-103.232 112.7517,-105.1572"/>
</g>
<!-- c5267521&#45;&gt;c5267523 -->
<g id="edge9" class="edge">
<title>c5267521&#45;&gt;c5267523</title>
<path fill="none" stroke="#000000" d="M389.1097,-54.3688C395.5766,-51.5556 402.656,-48.3021 409,-45 418.8229,-39.887 429.3328,-33.6402 438.2441,-28.0974"/>
<polygon fill="#000000" stroke="#000000" points="446.8561,-22.653 440.8081,-31.8003 442.6298,-25.3248 438.4035,-27.9966 438.4035,-27.9966 438.4035,-27.9966 442.6298,-25.3248 435.9989,-24.193 446.8561,-22.653 446.8561,-22.653"/>
</g>
<!-- c5267522&#45;&gt;c5267521 -->
<g id="edge11" class="edge">
<title>c5267522&#45;&gt;c5267521</title>
<path fill="none" stroke="#000000" d="M304.6087,-77.4356C309.7352,-76.2682 315.0517,-75.0575 320.327,-73.8562"/>
<polygon fill="#000000" stroke="#000000" points="330.3599,-71.5715 321.6087,-78.1796 325.4847,-72.6817 320.6095,-73.792 320.6095,-73.792 320.6095,-73.792 325.4847,-72.6817 319.6103,-69.4043 330.3599,-71.5715 330.3599,-71.5715"/>
</g>
<!-- c5267522&#45;&gt;c5267523 -->
<g id="edge10" class="edge">
<title>c5267522&#45;&gt;c5267523</title>
<path fill="none" stroke="#000000" d="M309.1185,-91.907C338.6861,-94.0748 378.2738,-92.8711 409,-77 428.0765,-67.1464 442.53,-46.6592 451.0947,-31.7141"/>
<polygon fill="#000000" stroke="#000000" points="455.862,-22.8608 455.083,-33.799 453.4915,-27.2632 451.1209,-31.6655 451.1209,-31.6655 451.1209,-31.6655 453.4915,-27.2632 447.1588,-29.532 455.862,-22.8608 455.862,-22.8608"/>
</g>
<!-- c5267523&#45;&gt;c5265268 -->
<g id="edge12" class="edge">
<title>c5267523&#45;&gt;c5265268</title>
<path fill="none" stroke="#000000" d="M493.1165,-14C495.6105,-14 498.1699,-14 500.7662,-14"/>
<polygon fill="#000000" stroke="#000000" points="510.9031,-14 500.9032,-18.5001 505.9031,-14 500.9031,-14.0001 500.9031,-14.0001 500.9031,-14.0001 505.9031,-14 500.9031,-9.5001 510.9031,-14 510.9031,-14"/>
</g>
<!-- c5267524&#45;&gt;c5267522 -->
<g id="edge14" class="edge">
<title>c5267524&#45;&gt;c5267522</title>
<path fill="none" stroke="#000000" d="M207.02,-86C209.5804,-86 212.1894,-86 214.8153,-86"/>
<polygon fill="#000000" stroke="#000000" points="224.9596,-86 214.9596,-90.5001 219.9596,-86 214.9596,-86.0001 214.9596,-86.0001 214.9596,-86.0001 219.9596,-86 214.9595,-81.5001 224.9596,-86 224.9596,-86"/>
</g>
<!-- c5267524&#45;&gt;c5267523 -->
<g id="edge13" class="edge">
<title>c5267524&#45;&gt;c5267523</title>
<path fill="none" stroke="#000000" d="M203.5372,-77.4987C210.6089,-75.6694 218.0521,-73.758 225,-72 291.989,-55.0501 369.8768,-35.9453 417.0241,-24.447"/>
<polygon fill="#000000" stroke="#000000" points="426.8895,-22.0426 418.2394,-28.7826 422.0317,-23.2266 417.1739,-24.4106 417.1739,-24.4106 417.1739,-24.4106 422.0317,-23.2266 416.1083,-20.0385 426.8895,-22.0426 426.8895,-22.0426"/>
</g>
<!-- c5267527 -->
<g id="node7" class="node">
<title>c5267527</title>
<g id="a_node7"><a xlink:href="ParameterTabPanel.html" xlink:title="&lt;TABLE&gt;">
<g id="a_node7_6"><a xlink:href="ParameterTabPanel.html" xlink:title="de.lmu.ifi.dbs.elki.gui.multistep.panels.ParameterTabPanel" target="_parent">
<polygon fill="none" stroke="#000000" points="16.5,-40 16.5,-57 100.5,-57 100.5,-40 16.5,-40"/>
<text text-anchor="start" x="20.5" y="-47.6" font-family="Roboto" font-size="8.00" fill="#000000"> </text>
<text text-anchor="start" x="23.5" y="-47.6" font-family="Roboto" font-style="italic" font-size="8.00" fill="#000000">ParameterTabPanel</text>
<text text-anchor="start" x="93.5" y="-47.6" font-family="Roboto" font-size="8.00" fill="#000000"> </text>
</a>
</g>
</a>
</g>
</g>
<!-- c5267527&#45;&gt;c5267521 -->
<g id="edge5" class="edge">
<title>c5267527&#45;&gt;c5267521</title>
<path fill="none" stroke="#000000" d="M110.7146,-51.3619C171.5225,-54.1125 270.7356,-58.6003 326.5236,-61.1238"/>
<polygon fill="none" stroke="#000000" points="110.7106,-47.8582 100.5626,-50.9027 110.3942,-54.8511 110.7106,-47.8582"/>
</g>
<!-- c5267527&#45;&gt;c5267522 -->
<g id="edge6" class="edge">
<title>c5267527&#45;&gt;c5267522</title>
<path fill="none" stroke="#000000" d="M110.7312,-56.105C139.2677,-60.2341 175.1791,-65.8325 207,-72 215.2958,-73.6079 224.1854,-75.5566 232.5122,-77.4828"/>
<polygon fill="none" stroke="#000000" points="110.9676,-52.6033 100.5727,-54.652 109.9763,-59.5328 110.9676,-52.6033"/>
</g>
<!-- c5267527&#45;&gt;c5267523 -->
<g id="edge7" class="edge">
<title>c5267527&#45;&gt;c5267523</title>
<path fill="none" stroke="#000000" d="M110.8518,-44.2171C164.9597,-39.298 251.8745,-31.4642 327,-25 361.0486,-22.0703 400.0141,-18.8649 426.9272,-16.6741"/>
<polygon fill="none" stroke="#000000" points="110.4526,-40.7389 100.8109,-45.1307 111.087,-47.7101 110.4526,-40.7389"/>
</g>
<!-- c5267527&#45;&gt;c5267524 -->
<g id="edge8" class="edge">
<title>c5267527&#45;&gt;c5267524</title>
<path fill="none" stroke="#000000" d="M94.4316,-60.8175C110.8876,-66.2297 130.0238,-72.5234 145.049,-77.465"/>
<polygon fill="none" stroke="#000000" points="95.1855,-57.3811 84.5925,-57.5815 92.9984,-64.0307 95.1855,-57.3811"/>
</g>
</g>
</svg>
