<?xml version="1.0" encoding="UTF-8" standalone="no"?><svg xmlns="http://www.w3.org/2000/svg" xmlns:xlink="http://www.w3.org/1999/xlink" contentStyleType="text/css" height="411px" preserveAspectRatio="none" style="width:393px;height:411px;background:#FFFFFF;" version="1.1" viewBox="0 0 393 411" width="393px" zoomAndPan="magnify"><defs/><g><!--MD5=[491052f8b6151a0668c0acecb9033319]
class elki.itemsetmining.FPGrowth--><a href="FPGrowth.html" target="_top" title="FPGrowth.html" xlink:actuate="onRequest" xlink:href="FPGrowth.html" xlink:show="new" xlink:title="FPGrowth.html" xlink:type="simple"><g id="elem_elki.itemsetmining.FPGrowth"><rect codeLine="6" fill="#F1F1F1" height="184.3125" id="elki.itemsetmining.FPGrowth" rx="2.5" ry="2.5" style="stroke:#181818;stroke-width:0.5;" width="379" x="7" y="105"/><ellipse cx="148.75" cy="123.9688" fill="#ADD1B2" rx="11" ry="11" style="stroke:#181818;stroke-width:1.0;"/><path d="M151.7188,129.6094 Q151.1406,129.9063 150.5,130.0469 Q149.8594,130.2031 149.1563,130.2031 Q146.6563,130.2031 145.3281,128.5625 Q144.0156,126.9063 144.0156,123.7813 Q144.0156,120.6563 145.3281,119 Q146.6563,117.3438 149.1563,117.3438 Q149.8594,117.3438 150.5,117.5 Q151.1563,117.6563 151.7188,117.9531 L151.7188,120.6719 Q151.0938,120.0938 150.5,119.8281 Q149.9063,119.5469 149.2813,119.5469 Q147.9375,119.5469 147.25,120.625 Q146.5625,121.6875 146.5625,123.7813 Q146.5625,125.875 147.25,126.9531 Q147.9375,128.0156 149.2813,128.0156 Q149.9063,128.0156 150.5,127.75 Q151.0938,127.4688 151.7188,126.8906 L151.7188,129.6094 Z " fill="#000000"/><text fill="#000000" font-family="sans-serif" font-size="14" lengthAdjust="spacing" textLength="67" x="179.25" y="122.9951">FPGrowth</text><text fill="#000000" font-family="sans-serif" font-size="10" lengthAdjust="spacing" textLength="87" x="169.25" y="135.5791">elki.itemsetmining</text><line style="stroke:#181818;stroke-width:0.5;" x1="8" x2="385" y1="142.9375" y2="142.9375"/><rect fill="none" height="6" style="stroke:#C82930;stroke-width:1.0;" width="6" x="15" y="153.5859"/><text fill="#000000" font-family="sans-serif" font-size="14" lengthAdjust="spacing" text-decoration="underline" textLength="93" x="27" y="159.9326">LOG: Logging</text><rect fill="none" height="6" style="stroke:#C82930;stroke-width:1.0;" width="6" x="15" y="169.8828"/><text fill="#000000" font-family="sans-serif" font-size="14" lengthAdjust="spacing" text-decoration="underline" textLength="85" x="27" y="176.2295">STAT: String</text><line style="stroke:#181818;stroke-width:0.5;" x1="8" x2="385" y1="183.5313" y2="183.5313"/><ellipse cx="18" cy="197.1797" fill="#84BE84" rx="3" ry="3" style="stroke:#038048;stroke-width:1.0;"/><text fill="#000000" font-family="sans-serif" font-size="14" lengthAdjust="spacing" textLength="175" x="27" y="200.5264">FPGrowth(double, int, int)</text><ellipse cx="18" cy="213.4766" fill="#84BE84" rx="3" ry="3" style="stroke:#038048;stroke-width:1.0;"/><text fill="#000000" font-family="sans-serif" font-size="14" lengthAdjust="spacing" textLength="306" x="27" y="216.8232">getInputTypeRestriction(): TypeInformation[]</text><ellipse cx="18" cy="229.7734" fill="#84BE84" rx="3" ry="3" style="stroke:#038048;stroke-width:1.0;"/><text fill="#000000" font-family="sans-serif" font-size="14" lengthAdjust="spacing" textLength="352" x="27" y="233.1201">run(Relation&lt;BitVector&gt;): FrequentItemsetsResult</text><rect fill="#F24D5C" height="6" style="stroke:#C82930;stroke-width:1.0;" width="6" x="15" y="243.0703"/><text fill="#000000" font-family="sans-serif" font-size="14" lengthAdjust="spacing" textLength="339" x="27" y="249.417">countItemSupport(Relation&lt;BitVector&gt;, int): int[]</text><rect fill="#F24D5C" height="6" style="stroke:#C82930;stroke-width:1.0;" width="6" x="15" y="259.3672"/><text fill="#000000" font-family="sans-serif" font-size="14" lengthAdjust="spacing" textLength="353" x="27" y="265.7139">buildFPTree(Relation&lt;BitVector&gt;, int[], int): FPTree</text><rect fill="#F24D5C" height="6" style="stroke:#C82930;stroke-width:1.0;" width="6" x="15" y="275.6641"/><text fill="#000000" font-family="sans-serif" font-size="14" lengthAdjust="spacing" textLength="203" x="27" y="282.0107">buildIndex(int[], int[], int): int[]</text></g></a><!--MD5=[8559677ee3cad4c2158a59dfa4a3bb38]
class elki.itemsetmining.AbstractFrequentItemsetAlgorithm--><a href="AbstractFrequentItemsetAlgorithm.html" target="_top" title="AbstractFrequentItemsetAlgorithm.html" xlink:actuate="onRequest" xlink:href="AbstractFrequentItemsetAlgorithm.html" xlink:show="new" xlink:title="AbstractFrequentItemsetAlgorithm.html" xlink:type="simple"><g id="elem_elki.itemsetmining.AbstractFrequentItemsetAlgorithm"><rect codeLine="17" fill="#F1F1F1" height="37.9375" id="elki.itemsetmining.AbstractFrequentItemsetAlgorithm" rx="2.5" ry="2.5" style="stroke:#181818;stroke-width:0.5;" width="275" x="59" y="7"/><ellipse cx="74" cy="25.9688" fill="#A9DCDF" rx="11" ry="11" style="stroke:#181818;stroke-width:1.0;"/><path d="M74.1094,21.3125 L72.9531,26.3906 L75.2813,26.3906 L74.1094,21.3125 Z M72.625,19.0781 L75.6094,19.0781 L78.9688,31.4688 L76.5156,31.4688 L75.75,28.4063 L72.4688,28.4063 L71.7188,31.4688 L69.2813,31.4688 L72.625,19.0781 Z " fill="#000000"/><text fill="#000000" font-family="sans-serif" font-size="14" font-style="italic" lengthAdjust="spacing" textLength="243" x="88" y="24.9951">AbstractFrequentItemsetAlgorithm</text><text fill="#000000" font-family="sans-serif" font-size="10" font-style="italic" lengthAdjust="spacing" textLength="93" x="163" y="37.5791">elki.itemsetmining</text></g></a><!--MD5=[0304dac2e0616bd4ffadeb9ce9e374c5]
class elki.itemsetmining.FPGrowth.FPTree--><a href="FPGrowth.FPTree.html" target="_top" title="FPGrowth.FPTree.html" xlink:actuate="onRequest" xlink:href="FPGrowth.FPTree.html" xlink:show="new" xlink:title="FPGrowth.FPTree.html" xlink:type="simple"><g id="elem_elki.itemsetmining.FPGrowth.FPTree"><rect codeLine="18" fill="#F1F1F1" height="37.9375" id="elki.itemsetmining.FPGrowth.FPTree" rx="2.5" ry="2.5" style="stroke:#181818;stroke-width:0.5;" width="152" x="25.5" y="349"/><ellipse cx="40.5" cy="367.9688" fill="#ADD1B2" rx="11" ry="11" style="stroke:#181818;stroke-width:1.0;"/><path d="M43.4688,373.6094 Q42.8906,373.9063 42.25,374.0469 Q41.6094,374.2031 40.9063,374.2031 Q38.4063,374.2031 37.0781,372.5625 Q35.7656,370.9063 35.7656,367.7813 Q35.7656,364.6563 37.0781,363 Q38.4063,361.3438 40.9063,361.3438 Q41.6094,361.3438 42.25,361.5 Q42.9063,361.6563 43.4688,361.9531 L43.4688,364.6719 Q42.8438,364.0938 42.25,363.8281 Q41.6563,363.5469 41.0313,363.5469 Q39.6875,363.5469 39,364.625 Q38.3125,365.6875 38.3125,367.7813 Q38.3125,369.875 39,370.9531 Q39.6875,372.0156 41.0313,372.0156 Q41.6563,372.0156 42.25,371.75 Q42.8438,371.4688 43.4688,370.8906 L43.4688,373.6094 Z " fill="#000000"/><text fill="#000000" font-family="sans-serif" font-size="14" lengthAdjust="spacing" textLength="120" x="54.5" y="366.9951">FPGrowth.FPTree</text><text fill="#000000" font-family="sans-serif" font-size="10" lengthAdjust="spacing" textLength="87" x="71" y="379.5791">elki.itemsetmining</text></g></a><!--MD5=[b6f211782a51fea13f04a8856e1e16f6]
class elki.itemsetmining.FPGrowth.FPNode--><a href="FPGrowth.FPNode.html" target="_top" title="FPGrowth.FPNode.html" xlink:actuate="onRequest" xlink:href="FPGrowth.FPNode.html" xlink:show="new" xlink:title="FPGrowth.FPNode.html" xlink:type="simple"><g id="elem_elki.itemsetmining.FPGrowth.FPNode"><rect codeLine="19" fill="#F1F1F1" height="37.9375" id="elki.itemsetmining.FPGrowth.FPNode" rx="2.5" ry="2.5" style="stroke:#181818;stroke-width:0.5;" width="157" x="213" y="349"/><ellipse cx="228" cy="367.9688" fill="#ADD1B2" rx="11" ry="11" style="stroke:#181818;stroke-width:1.0;"/><path d="M230.9688,373.6094 Q230.3906,373.9063 229.75,374.0469 Q229.1094,374.2031 228.4063,374.2031 Q225.9063,374.2031 224.5781,372.5625 Q223.2656,370.9063 223.2656,367.7813 Q223.2656,364.6563 224.5781,363 Q225.9063,361.3438 228.4063,361.3438 Q229.1094,361.3438 229.75,361.5 Q230.4063,361.6563 230.9688,361.9531 L230.9688,364.6719 Q230.3438,364.0938 229.75,363.8281 Q229.1563,363.5469 228.5313,363.5469 Q227.1875,363.5469 226.5,364.625 Q225.8125,365.6875 225.8125,367.7813 Q225.8125,369.875 226.5,370.9531 Q227.1875,372.0156 228.5313,372.0156 Q229.1563,372.0156 229.75,371.75 Q230.3438,371.4688 230.9688,370.8906 L230.9688,373.6094 Z " fill="#000000"/><text fill="#000000" font-family="sans-serif" font-size="14" lengthAdjust="spacing" textLength="125" x="242" y="366.9951">FPGrowth.FPNode</text><text fill="#000000" font-family="sans-serif" font-size="10" lengthAdjust="spacing" textLength="87" x="261" y="379.5791">elki.itemsetmining</text></g></a><!--MD5=[96ed69c62345f0719850b509ec6fac68]
reverse link elki.itemsetmining.AbstractFrequentItemsetAlgorithm to elki.itemsetmining.FPGrowth--><g id="link_elki.itemsetmining.AbstractFrequentItemsetAlgorithm_elki.itemsetmining.FPGrowth"><path codeLine="22" d="M196.5,65.42 C196.5,77.33 196.5,90.99 196.5,104.9 " fill="none" id="elki.itemsetmining.AbstractFrequentItemsetAlgorithm-backto-elki.itemsetmining.FPGrowth" style="stroke:#181818;stroke-width:1.0;"/><polygon fill="none" points="189.5,65.09,196.5,45.09,203.5,65.09,189.5,65.09" style="stroke:#181818;stroke-width:1.0;"/></g><!--MD5=[9fc3f6b32f7ffecd7d03b7991c625a84]
reverse link elki.itemsetmining.FPGrowth to elki.itemsetmining.FPGrowth.FPTree--><g id="link_elki.itemsetmining.FPGrowth_elki.itemsetmining.FPGrowth.FPTree"><path codeLine="23" d="M137.7,302.61 C127.66,320.47 118.33,337.05 111.66,348.92 " fill="none" id="elki.itemsetmining.FPGrowth-backto-elki.itemsetmining.FPGrowth.FPTree" style="stroke:#181818;stroke-width:1.0;"/><ellipse cx="141.1919" cy="296.3948" fill="#FFFFFF" rx="8" ry="8" style="stroke:#181818;stroke-width:1.0;"/><line style="stroke:#181818;stroke-width:1.0;" x1="137.2738" x2="145.11" y1="303.3697" y2="289.42"/><line style="stroke:#181818;stroke-width:1.0;" x1="134.217" x2="148.1667" y1="292.4767" y2="300.313"/></g><!--MD5=[42c3629621bc1f5538a66a11233260f7]
reverse link elki.itemsetmining.FPGrowth to elki.itemsetmining.FPGrowth.FPNode--><g id="link_elki.itemsetmining.FPGrowth_elki.itemsetmining.FPGrowth.FPNode"><path codeLine="24" d="M255.3,302.61 C265.34,320.47 274.67,337.05 281.34,348.92 " fill="none" id="elki.itemsetmining.FPGrowth-backto-elki.itemsetmining.FPGrowth.FPNode" style="stroke:#181818;stroke-width:1.0;"/><ellipse cx="251.8081" cy="296.3948" fill="#FFFFFF" rx="8" ry="8" style="stroke:#181818;stroke-width:1.0;"/><line style="stroke:#181818;stroke-width:1.0;" x1="255.7262" x2="247.89" y1="303.3697" y2="289.42"/><line style="stroke:#181818;stroke-width:1.0;" x1="244.8333" x2="258.783" y1="300.313" y2="292.4767"/></g><rect fill="none" height="11.6406" style="stroke:none;stroke-width:1.0;" width="186" x="96.5" y="391.9375"/><text fill="#888888" font-family="sans-serif" font-size="10" lengthAdjust="spacing" textLength="186" x="96.5" y="401.2197">UMLDoclet 2.0.19, PlantUML 1.2022.8</text><!--MD5=[debabecdcc7018097636e2acb88b5e5d]
@startuml
    remove .*\.(Instance|Par|Parameterizer|Factory)$
    set namespaceSeparator none
    hide empty fields
    hide empty methods

    class "<size:14>FPGrowth\n<size:10>elki.itemsetmining" as elki.itemsetmining.FPGrowth [[FPGrowth.html]] {
        {static} -LOG: Logging
        {static} -STAT: String
        +FPGrowth(double, int, int)
        +getInputTypeRestriction(): TypeInformation[]
        +run(Relation<BitVector>): FrequentItemsetsResult
        -countItemSupport(Relation<BitVector>, int): int[]
        -buildFPTree(Relation<BitVector>, int[], int): FPTree
        -buildIndex(int[], int[], int): int[]
    }

    abstract class "<size:14>AbstractFrequentItemsetAlgorithm\n<size:10>elki.itemsetmining" as elki.itemsetmining.AbstractFrequentItemsetAlgorithm [[AbstractFrequentItemsetAlgorithm.html]]
    class "<size:14>FPGrowth.FPTree\n<size:10>elki.itemsetmining" as elki.itemsetmining.FPGrowth.FPTree [[FPGrowth.FPTree.html]]
    class "<size:14>FPGrowth.FPNode\n<size:10>elki.itemsetmining" as elki.itemsetmining.FPGrowth.FPNode [[FPGrowth.FPNode.html]]
    class "<size:14>FPGrowth.Par\n<size:10>elki.itemsetmining" as elki.itemsetmining.FPGrowth.Par [[FPGrowth.Par.html]]

    elki.itemsetmining.AbstractFrequentItemsetAlgorithm <|- - elki.itemsetmining.FPGrowth
    elki.itemsetmining.FPGrowth +- - elki.itemsetmining.FPGrowth.FPTree
    elki.itemsetmining.FPGrowth +- - elki.itemsetmining.FPGrowth.FPNode
    elki.itemsetmining.FPGrowth +- - elki.itemsetmining.FPGrowth.Par

    center footer UMLDoclet 2.0.19, PlantUML 1.2022.8
@enduml

PlantUML version 1.2022.8(Sun Sep 25 11:00:33 CEST 2022)
(APACHE source distribution)
Java Runtime: OpenJDK Runtime Environment
JVM: OpenJDK 64-Bit Server VM
Default Encoding: UTF-8
Language: de
Country: DE
--></g></svg>