<?xml version="1.0" encoding="UTF-8" standalone="no"?><svg xmlns="http://www.w3.org/2000/svg" xmlns:xlink="http://www.w3.org/1999/xlink" contentStyleType="text/css" height="452px" preserveAspectRatio="none" style="width:629px;height:452px;background:#FFFFFF;" version="1.1" viewBox="0 0 629 452" width="629px" zoomAndPan="magnify"><defs/><g><!--MD5=[18788640d1408b08ec8bec61be6d69c0]
class elki.itemsetmining.SmallDenseItemset--><a href="SmallDenseItemset.html" target="_top" title="SmallDenseItemset.html" xlink:actuate="onRequest" xlink:href="SmallDenseItemset.html" xlink:show="new" xlink:title="SmallDenseItemset.html" xlink:type="simple"><g id="elem_elki.itemsetmining.SmallDenseItemset"><rect codeLine="6" fill="#F1F1F1" height="233.2031" id="elki.itemsetmining.SmallDenseItemset" rx="2.5" ry="2.5" style="stroke:#181818;stroke-width:0.5;" width="613" x="9" y="194"/><ellipse cx="244.25" cy="212.9688" fill="#ADD1B2" rx="11" ry="11" style="stroke:#181818;stroke-width:1.0;"/><path d="M247.2188,218.6094 Q246.6406,218.9063 246,219.0469 Q245.3594,219.2031 244.6563,219.2031 Q242.1563,219.2031 240.8281,217.5625 Q239.5156,215.9063 239.5156,212.7813 Q239.5156,209.6563 240.8281,208 Q242.1563,206.3438 244.6563,206.3438 Q245.3594,206.3438 246,206.5 Q246.6563,206.6563 247.2188,206.9531 L247.2188,209.6719 Q246.5938,209.0938 246,208.8281 Q245.4063,208.5469 244.7813,208.5469 Q243.4375,208.5469 242.75,209.625 Q242.0625,210.6875 242.0625,212.7813 Q242.0625,214.875 242.75,215.9531 Q243.4375,217.0156 244.7813,217.0156 Q245.4063,217.0156 246,216.75 Q246.5938,216.4688 247.2188,215.8906 L247.2188,218.6094 Z " fill="#000000"/><text fill="#000000" font-family="sans-serif" font-size="14" lengthAdjust="spacing" textLength="134" x="264.75" y="211.9951">SmallDenseItemset</text><text fill="#000000" font-family="sans-serif" font-size="10" lengthAdjust="spacing" textLength="87" x="288.25" y="224.5791">elki.itemsetmining</text><line style="stroke:#181818;stroke-width:0.5;" x1="10" x2="621" y1="231.9375" y2="231.9375"/><polygon fill="none" points="20,241.5859,16,247.5859,24,247.5859" style="stroke:#1963A0;stroke-width:1.0;"/><text fill="#000000" font-family="sans-serif" font-size="14" lengthAdjust="spacing" textLength="77" x="29" y="248.9326">items: long</text><polygon fill="none" points="20,257.8828,16,263.8828,24,263.8828" style="stroke:#1963A0;stroke-width:1.0;"/><text fill="#000000" font-family="sans-serif" font-size="14" lengthAdjust="spacing" textLength="70" x="29" y="265.2295">length: int</text><line style="stroke:#181818;stroke-width:0.5;" x1="10" x2="621" y1="272.5313" y2="272.5313"/><ellipse cx="20" cy="286.1797" fill="#84BE84" rx="3" ry="3" style="stroke:#038048;stroke-width:1.0;"/><text fill="#000000" font-family="sans-serif" font-size="14" lengthAdjust="spacing" textLength="199" x="29" y="289.5264">SmallDenseItemset(long, int)</text><ellipse cx="20" cy="302.4766" fill="#84BE84" rx="3" ry="3" style="stroke:#038048;stroke-width:1.0;"/><text fill="#000000" font-family="sans-serif" font-size="14" lengthAdjust="spacing" textLength="80" x="29" y="305.8232">length(): int</text><ellipse cx="20" cy="318.7734" fill="#84BE84" rx="3" ry="3" style="stroke:#038048;stroke-width:1.0;"/><text fill="#000000" font-family="sans-serif" font-size="14" lengthAdjust="spacing" textLength="304" x="29" y="322.1201">containedIn(SparseNumberVector): boolean</text><ellipse cx="20" cy="335.0703" fill="#84BE84" rx="3" ry="3" style="stroke:#038048;stroke-width:1.0;"/><text fill="#000000" font-family="sans-serif" font-size="14" lengthAdjust="spacing" textLength="58" x="29" y="338.417">iter(): int</text><ellipse cx="20" cy="351.3672" fill="#84BE84" rx="3" ry="3" style="stroke:#038048;stroke-width:1.0;"/><text fill="#000000" font-family="sans-serif" font-size="14" lengthAdjust="spacing" textLength="146" x="29" y="354.7139">iterValid(int): boolean</text><ellipse cx="20" cy="367.6641" fill="#84BE84" rx="3" ry="3" style="stroke:#038048;stroke-width:1.0;"/><text fill="#000000" font-family="sans-serif" font-size="14" lengthAdjust="spacing" textLength="134" x="29" y="371.0107">iterAdvance(int): int</text><ellipse cx="20" cy="383.9609" fill="#84BE84" rx="3" ry="3" style="stroke:#038048;stroke-width:1.0;"/><text fill="#000000" font-family="sans-serif" font-size="14" lengthAdjust="spacing" textLength="102" x="29" y="387.3076">iterDim(int): int</text><ellipse cx="20" cy="400.2578" fill="#84BE84" rx="3" ry="3" style="stroke:#038048;stroke-width:1.0;"/><text fill="#000000" font-family="sans-serif" font-size="14" lengthAdjust="spacing" textLength="167" x="29" y="403.6045">compareTo(Itemset): int</text><ellipse cx="20" cy="416.5547" fill="#84BE84" rx="3" ry="3" style="stroke:#038048;stroke-width:1.0;"/><text fill="#000000" font-family="sans-serif" font-size="14" lengthAdjust="spacing" textLength="587" x="29" y="419.9014">appendItemsTo(StringBuilder, VectorFieldTypeInformation&lt;BitVector&gt;): StringBuilder</text></g></a><!--MD5=[2ef7229513a23826e946f817c3c8e4f5]
class elki.itemsetmining.Itemset--><a href="Itemset.html" target="_top" title="Itemset.html" xlink:actuate="onRequest" xlink:href="Itemset.html" xlink:show="new" xlink:title="Itemset.html" xlink:type="simple"><g id="elem_elki.itemsetmining.Itemset"><rect codeLine="20" fill="#F1F1F1" height="127.4219" id="elki.itemsetmining.Itemset" rx="2.5" ry="2.5" style="stroke:#181818;stroke-width:0.5;" width="180" x="225.5" y="7"/><ellipse cx="265.25" cy="25.9688" fill="#A9DCDF" rx="11" ry="11" style="stroke:#181818;stroke-width:1.0;"/><path d="M265.3594,21.3125 L264.2031,26.3906 L266.5313,26.3906 L265.3594,21.3125 Z M263.875,19.0781 L266.8594,19.0781 L270.2188,31.4688 L267.7656,31.4688 L267,28.4063 L263.7188,28.4063 L262.9688,31.4688 L260.5313,31.4688 L263.875,19.0781 Z " fill="#000000"/><text fill="#000000" font-family="sans-serif" font-size="14" font-style="italic" lengthAdjust="spacing" textLength="53" x="304.75" y="24.9951">Itemset</text><text fill="#000000" font-family="sans-serif" font-size="10" font-style="italic" lengthAdjust="spacing" textLength="93" x="284.75" y="37.5791">elki.itemsetmining</text><line style="stroke:#181818;stroke-width:0.5;" x1="226.5" x2="404.5" y1="44.9375" y2="44.9375"/><ellipse cx="236.5" cy="58.5859" fill="#84BE84" rx="3" ry="3" style="stroke:#038048;stroke-width:1.0;"/><text fill="#000000" font-family="sans-serif" font-size="14" font-style="italic" lengthAdjust="spacing" textLength="82" x="245.5" y="61.9326">length(): int</text><ellipse cx="236.5" cy="74.8828" fill="#84BE84" rx="3" ry="3" style="stroke:#038048;stroke-width:1.0;"/><text fill="#000000" font-family="sans-serif" font-size="14" font-style="italic" lengthAdjust="spacing" textLength="60" x="245.5" y="78.2295">iter(): int</text><ellipse cx="236.5" cy="91.1797" fill="#84BE84" rx="3" ry="3" style="stroke:#038048;stroke-width:1.0;"/><text fill="#000000" font-family="sans-serif" font-size="14" font-style="italic" lengthAdjust="spacing" textLength="140" x="245.5" y="94.5264">iterAdvance(int): int</text><ellipse cx="236.5" cy="107.4766" fill="#84BE84" rx="3" ry="3" style="stroke:#038048;stroke-width:1.0;"/><text fill="#000000" font-family="sans-serif" font-size="14" font-style="italic" lengthAdjust="spacing" textLength="154" x="245.5" y="110.8232">iterValid(int): boolean</text><ellipse cx="236.5" cy="123.7734" fill="#84BE84" rx="3" ry="3" style="stroke:#038048;stroke-width:1.0;"/><text fill="#000000" font-family="sans-serif" font-size="14" font-style="italic" lengthAdjust="spacing" textLength="107" x="245.5" y="127.1201">iterDim(int): int</text></g></a><!--MD5=[e14542763cd8c929dd8bf050788df428]
reverse link elki.itemsetmining.Itemset to elki.itemsetmining.SmallDenseItemset--><g id="link_elki.itemsetmining.Itemset_elki.itemsetmining.SmallDenseItemset"><path codeLine="28" d="M315.5,154.26 C315.5,167.1 315.5,180.57 315.5,193.97 " fill="none" id="elki.itemsetmining.Itemset-backto-elki.itemsetmining.SmallDenseItemset" style="stroke:#181818;stroke-width:1.0;"/><polygon fill="none" points="308.5,154.03,315.5,134.03,322.5,154.03,308.5,154.03" style="stroke:#181818;stroke-width:1.0;"/></g><rect fill="none" height="11.6406" style="stroke:none;stroke-width:1.0;" width="186" x="214.5" y="433.2031"/><text fill="#888888" font-family="sans-serif" font-size="10" lengthAdjust="spacing" textLength="186" x="214.5" y="442.4854">UMLDoclet 2.0.19, PlantUML 1.2022.8</text><!--MD5=[8f2bbfd82e4db5df8d4906507e8e3d19]
@startuml
    remove .*\.(Instance|Par|Parameterizer|Factory)$
    set namespaceSeparator none
    hide empty fields
    hide empty methods

    class "<size:14>SmallDenseItemset\n<size:10>elki.itemsetmining" as elki.itemsetmining.SmallDenseItemset [[SmallDenseItemset.html]] {
        ~items: long
        ~length: int
        +SmallDenseItemset(long, int)
        +length(): int
        +containedIn(SparseNumberVector): boolean
        +iter(): int
        +iterValid(int): boolean
        +iterAdvance(int): int
        +iterDim(int): int
        +compareTo(Itemset): int
        +appendItemsTo(StringBuilder, VectorFieldTypeInformation<BitVector>): StringBuilder
    }

    abstract class "<size:14>Itemset\n<size:10>elki.itemsetmining" as elki.itemsetmining.Itemset [[Itemset.html]] {
        {abstract} +length(): int
        {abstract} +iter(): int
        {abstract} +iterAdvance(int): int
        {abstract} +iterValid(int): boolean
        {abstract} +iterDim(int): int
    }

    elki.itemsetmining.Itemset <|- - elki.itemsetmining.SmallDenseItemset

    center footer UMLDoclet 2.0.19, PlantUML 1.2022.8
@enduml

PlantUML version 1.2022.8(Sun Sep 25 11:00:33 CEST 2022)
(APACHE source distribution)
Java Runtime: OpenJDK Runtime Environment
JVM: OpenJDK 64-Bit Server VM
Default Encoding: UTF-8
Language: de
Country: DE
--></g></svg>