<?xml version="1.0" encoding="UTF-8" standalone="no"?>
<!DOCTYPE svg PUBLIC "-//W3C//DTD SVG 1.1//EN"
 "http://www.w3.org/Graphics/SVG/1.1/DTD/svg11.dtd">
<!-- Generated by graphviz version 2.40.1 (20161225.0304)
 -->
<!-- Title: G Pages: 1 -->
<svg width="455pt" height="75pt"
 viewBox="0.00 0.00 455.00 75.00" xmlns="http://www.w3.org/2000/svg" xmlns:xlink="http://www.w3.org/1999/xlink">
<g id="graph0" class="graph" transform="scale(1 1) rotate(0) translate(4 71)">
<title>G</title>
<polygon fill="#ffffff" stroke="transparent" points="-4,4 -4,-71 451,-71 451,4 -4,4"/>
<!-- c4201503 -->
<g id="node1" class="node">
<title>c4201503</title>
<g id="a_node1"><a xlink:href="../gdbscan/NeighborPredicate.html" xlink:title="&lt;TABLE&gt;">
<g id="a_node1_0"><a xlink:href="../gdbscan/NeighborPredicate.html" xlink:title="de.lmu.ifi.dbs.elki.algorithm.clustering.gdbscan.NeighborPredicate" target="_parent">
<polygon fill="none" stroke="#000000" points=".5,-27.5 .5,-66.5 169.5,-66.5 169.5,-27.5 .5,-27.5"/>
<text text-anchor="start" x="63.5" y="-56.1" font-family="Roboto" font-size="8.00" fill="#000000"> «interface» </text>
<text text-anchor="start" x="49.5" y="-46.1" font-family="Roboto" font-size="8.00" fill="#000000"> </text>
<text text-anchor="start" x="52.5" y="-46.1" font-family="Roboto" font-size="8.00" fill="#000000">NeighborPredicate</text>
<text text-anchor="start" x="117.5" y="-46.1" font-family="Roboto" font-size="8.00" fill="#000000"> </text>
<text text-anchor="start" x="4.5" y="-35.1" font-family="Roboto" font-size="8.00" fill="#000000"> </text>
<text text-anchor="start" x="7.5" y="-35.1" font-family="Roboto" font-size="7.00" fill="#000000">de.lmu.ifi.dbs.elki.algorithm.clustering.gdbscan</text>
<text text-anchor="start" x="162.5" y="-35.1" font-family="Roboto" font-size="8.00" fill="#000000"> </text>
</a>
</g>
</a>
</g>
</g>
<!-- c4203738 -->
<g id="node4" class="node">
<title>c4203738</title>
<g id="a_node4"><a xlink:href="FDBSCANNeighborPredicate.html" xlink:title="&lt;TABLE&gt;">
<g id="a_node4_1"><a xlink:href="FDBSCANNeighborPredicate.html" xlink:title="de.lmu.ifi.dbs.elki.algorithm.clustering.uncertain.FDBSCANNeighborPredicate" target="_parent">
<polygon fill="#fffacd" stroke="transparent" points="187,-39 187,-56 303,-56 303,-39 187,-39"/>
<polygon fill="none" stroke="#000000" points="187,-38.5 187,-55.5 303,-55.5 303,-38.5 187,-38.5"/>
<text text-anchor="start" x="191" y="-46.1" font-family="Roboto" font-size="8.00" fill="#000000"> </text>
<text text-anchor="start" x="194" y="-46.1" font-family="Roboto" font-size="8.00" fill="#000000">FDBSCANNeighborPredicate</text>
<text text-anchor="start" x="296" y="-46.1" font-family="Roboto" font-size="8.00" fill="#000000"> </text>
</a>
</g>
</a>
</g>
</g>
<!-- c4201503&#45;&gt;c4203738 -->
<g id="edge2" class="edge">
<title>c4201503&#45;&gt;c4203738</title>
<path fill="none" stroke="#000000" stroke-dasharray="5,2" d="M179.5639,-47.5C182.0041,-47.5 184.4254,-47.5 186.8182,-47.5"/>
<polygon fill="none" stroke="#000000" points="179.4498,-44.0001 169.4498,-47.5 179.4497,-51.0001 179.4498,-44.0001"/>
</g>
<!-- c4202497 -->
<g id="node2" class="node">
<title>c4202497</title>
<g id="a_node2"><a xlink:href="../../../utilities/random/RandomFactory.html" xlink:title="&lt;TABLE&gt;">
<g id="a_node2_2"><a xlink:href="../../../utilities/random/RandomFactory.html" xlink:title="de.lmu.ifi.dbs.elki.utilities.random.RandomFactory" target="_parent">
<polygon fill="none" stroke="#000000" points="321,-33.5 321,-61.5 447,-61.5 447,-33.5 321,-33.5"/>
<text text-anchor="start" x="353.5" y="-52.1" font-family="Roboto" font-size="8.00" fill="#000000"> </text>
<text text-anchor="start" x="356.5" y="-52.1" font-family="Roboto" font-size="8.00" fill="#000000">RandomFactory</text>
<text text-anchor="start" x="411.5" y="-52.1" font-family="Roboto" font-size="8.00" fill="#000000"> </text>
<text text-anchor="start" x="325" y="-41.1" font-family="Roboto" font-size="8.00" fill="#000000"> </text>
<text text-anchor="start" x="328" y="-41.1" font-family="Roboto" font-size="7.00" fill="#000000">de.lmu.ifi.dbs.elki.utilities.random</text>
<text text-anchor="start" x="440" y="-41.1" font-family="Roboto" font-size="8.00" fill="#000000"> </text>
</a>
</g>
</a>
</g>
</g>
<!-- c4203730 -->
<g id="node3" class="node">
<title>c4203730</title>
<g id="a_node3"><a xlink:href="FDBSCAN.html" xlink:title="&lt;TABLE&gt;">
<g id="a_node3_3"><a xlink:href="FDBSCAN.html" xlink:title="de.lmu.ifi.dbs.elki.algorithm.clustering.uncertain.FDBSCAN" target="_parent">
<polygon fill="none" stroke="#000000" points="59.5,.5 59.5,-16.5 110.5,-16.5 110.5,.5 59.5,.5"/>
<text text-anchor="start" x="63.5" y="-7.1" font-family="Roboto" font-size="8.00" fill="#000000"> </text>
<text text-anchor="start" x="66.5" y="-7.1" font-family="Roboto" font-size="8.00" fill="#000000">FDBSCAN</text>
<text text-anchor="start" x="103.5" y="-7.1" font-family="Roboto" font-size="8.00" fill="#000000"> </text>
</a>
</g>
</a>
</g>
</g>
<!-- c4203730&#45;&gt;c4203738 -->
<g id="edge1" class="edge">
<title>c4203730&#45;&gt;c4203738</title>
<path fill="none" stroke="#000000" d="M122.4359,-13.515C137.0868,-15.7825 153.9222,-18.7943 169,-22.5 187.0747,-26.9422 207.0504,-33.5837 221.9848,-38.9049"/>
<polygon fill="#000000" stroke="#000000" points="122.094,-13.4647 115.5749,-16.5473 110.2222,-11.7153 116.7412,-8.6327 122.094,-13.4647"/>
</g>
<!-- c4203738&#45;&gt;c4202497 -->
<g id="edge3" class="edge">
<title>c4203738&#45;&gt;c4202497</title>
<path fill="none" stroke="#000000" d="M303.1431,-47.5C305.5911,-47.5 308.0585,-47.5 310.5326,-47.5"/>
<polygon fill="#000000" stroke="#000000" points="320.7092,-47.5 310.7092,-52.0001 315.7092,-47.5 310.7092,-47.5001 310.7092,-47.5001 310.7092,-47.5001 315.7092,-47.5 310.7092,-43.0001 320.7092,-47.5 320.7092,-47.5"/>
</g>
</g>
</svg>
