<?xml version="1.0" encoding="UTF-8" standalone="no"?>
<!DOCTYPE svg PUBLIC "-//W3C//DTD SVG 1.1//EN"
 "http://www.w3.org/Graphics/SVG/1.1/DTD/svg11.dtd">
<!-- Generated by graphviz version 2.40.1 (20161225.0304)
 -->
<!-- Title: G Pages: 1 -->
<svg width="563pt" height="177pt"
 viewBox="0.00 0.00 563.00 176.50" xmlns="http://www.w3.org/2000/svg" xmlns:xlink="http://www.w3.org/1999/xlink">
<g id="graph0" class="graph" transform="scale(1 1) rotate(0) translate(4 172.5)">
<title>G</title>
<polygon fill="#ffffff" stroke="transparent" points="-4,4 -4,-172.5 559,-172.5 559,4 -4,4"/>
<!-- c8913874 -->
<g id="node1" class="node">
<title>c8913874</title>
<g id="a_node1"><a xlink:href="../../../distance/similarityfunction/cluster/ClusteringDistanceSimilarityFunction.html" xlink:title="&lt;TABLE&gt;">
<g id="a_node1_0"><a xlink:href="../../../distance/similarityfunction/cluster/ClusteringDistanceSimilarityFunction.html" xlink:title="de.lmu.ifi.dbs.elki.distance.similarityfunction.cluster.ClusteringDistanceSimilarityFunction" target="_parent">
<polygon fill="none" stroke="#000000" points="341,-101 341,-140 527,-140 527,-101 341,-101"/>
<text text-anchor="start" x="412.5" y="-129.6" font-family="Roboto" font-size="8.00" fill="#000000"> «interface» </text>
<text text-anchor="start" x="365.5" y="-119.6" font-family="Roboto" font-size="8.00" fill="#000000"> </text>
<text text-anchor="start" x="368.5" y="-119.6" font-family="Roboto" font-size="8.00" fill="#000000">ClusteringDistanceSimilarityFunction</text>
<text text-anchor="start" x="499.5" y="-119.6" font-family="Roboto" font-size="8.00" fill="#000000"> </text>
<text text-anchor="start" x="345" y="-108.6" font-family="Roboto" font-size="8.00" fill="#000000"> </text>
<text text-anchor="start" x="348" y="-108.6" font-family="Roboto" font-size="7.00" fill="#000000">de.lmu.ifi.dbs.elki.distance.similarityfunction.cluster</text>
<text text-anchor="start" x="520" y="-108.6" font-family="Roboto" font-size="8.00" fill="#000000"> </text>
</a>
</g>
</a>
</g>
</g>
<!-- c8914252 -->
<g id="node2" class="node">
<title>c8914252</title>
<g id="a_node2"><a xlink:href="../ClusteringAlgorithm.html" xlink:title="&lt;TABLE&gt;">
<g id="a_node2_1"><a xlink:href="../ClusteringAlgorithm.html" xlink:title="de.lmu.ifi.dbs.elki.algorithm.clustering.ClusteringAlgorithm" target="_parent">
<polygon fill="none" stroke="#000000" points=".5,-129 .5,-168 141.5,-168 141.5,-129 .5,-129"/>
<text text-anchor="start" x="49.5" y="-157.6" font-family="Roboto" font-size="8.00" fill="#000000"> «interface» </text>
<text text-anchor="start" x="32.5" y="-147.6" font-family="Roboto" font-size="8.00" fill="#000000"> </text>
<text text-anchor="start" x="35.5" y="-147.6" font-family="Roboto" font-size="8.00" fill="#000000">ClusteringAlgorithm</text>
<text text-anchor="start" x="106.5" y="-147.6" font-family="Roboto" font-size="8.00" fill="#000000"> </text>
<text text-anchor="start" x="4.5" y="-136.6" font-family="Roboto" font-size="8.00" fill="#000000"> </text>
<text text-anchor="start" x="7.5" y="-136.6" font-family="Roboto" font-size="7.00" fill="#000000">de.lmu.ifi.dbs.elki.algorithm.clustering</text>
<text text-anchor="start" x="134.5" y="-136.6" font-family="Roboto" font-size="8.00" fill="#000000"> </text>
<polygon fill="none" stroke="#000000" points=".5,-112 .5,-129 141.5,-129 141.5,-112 .5,-112"/>
<text text-anchor="start" x="4.5" y="-118.6" font-family="Roboto" font-size="8.00" fill="#000000"> &#160;</text>
<polygon fill="none" stroke="#000000" points=".5,-95 .5,-112 141.5,-112 141.5,-95 .5,-95"/>
<text text-anchor="start" x="4.5" y="-102.6" font-family="Roboto" font-size="8.00" fill="#000000"> </text>
<text text-anchor="start" x="7.5" y="-102.6" font-family="Roboto" font-style="italic" font-size="8.00" fill="#000000"> run()</text>
<text text-anchor="start" x="28.5" y="-102.6" font-family="Roboto" font-size="8.00" fill="#000000"> </text>
</a>
</g>
</a>
</g>
</g>
<!-- c8916535 -->
<g id="node5" class="node">
<title>c8916535</title>
<g id="a_node5"><a xlink:href="RepresentativeUncertainClustering.html" xlink:title="&lt;TABLE&gt;">
<g id="a_node5_2"><a xlink:href="RepresentativeUncertainClustering.html" xlink:title="de.lmu.ifi.dbs.elki.algorithm.clustering.uncertain.RepresentativeUncertainClustering" target="_parent">
<polygon fill="#fffacd" stroke="transparent" points="159,-33.5 159,-50.5 295,-50.5 295,-33.5 159,-33.5"/>
<polygon fill="none" stroke="#000000" points="159,-33 159,-50 295,-50 295,-33 159,-33"/>
<text text-anchor="start" x="163" y="-40.6" font-family="Roboto" font-size="8.00" fill="#000000"> </text>
<text text-anchor="start" x="166" y="-40.6" font-family="Roboto" font-size="8.00" fill="#000000">RepresentativeUncertainClustering</text>
<text text-anchor="start" x="288" y="-40.6" font-family="Roboto" font-size="8.00" fill="#000000"> </text>
</a>
</g>
</a>
</g>
</g>
<!-- c8914252&#45;&gt;c8916535 -->
<g id="edge2" class="edge">
<title>c8914252&#45;&gt;c8916535</title>
<path fill="none" stroke="#000000" stroke-dasharray="5,2" d="M142.9363,-90.3434C168.9782,-75.3672 195.8836,-59.8944 212.0296,-50.6092"/>
<polygon fill="none" stroke="#000000" points="141.0785,-87.3742 134.1545,-95.3936 144.5682,-93.4423 141.0785,-87.3742"/>
</g>
<!-- c8914533 -->
<g id="node3" class="node">
<title>c8914533</title>
<g id="a_node3"><a xlink:href="../../AbstractAlgorithm.html" xlink:title="&lt;TABLE&gt;">
<g id="a_node3_3"><a xlink:href="../../AbstractAlgorithm.html" xlink:title="de.lmu.ifi.dbs.elki.algorithm.AbstractAlgorithm" target="_parent">
<polygon fill="#fffacd" stroke="transparent" points="18,0 18,-84 123,-84 123,0 18,0"/>
<polygon fill="none" stroke="#000000" points="18.5,-56 18.5,-84 123.5,-84 123.5,-56 18.5,-56"/>
<text text-anchor="start" x="35.5" y="-74.6" font-family="Roboto" font-size="8.00" fill="#000000"> </text>
<text text-anchor="start" x="38.5" y="-74.6" font-family="Roboto" font-style="italic" font-size="8.00" fill="#000000">AbstractAlgorithm</text>
<text text-anchor="start" x="103.5" y="-74.6" font-family="Roboto" font-size="8.00" fill="#000000"> </text>
<text text-anchor="start" x="22.5" y="-63.6" font-family="Roboto" font-size="8.00" fill="#000000"> </text>
<text text-anchor="start" x="25.5" y="-63.6" font-family="Roboto" font-size="7.00" fill="#000000">de.lmu.ifi.dbs.elki.algorithm</text>
<text text-anchor="start" x="116.5" y="-63.6" font-family="Roboto" font-size="8.00" fill="#000000"> </text>
<polygon fill="none" stroke="#000000" points="18.5,-39 18.5,-56 123.5,-56 123.5,-39 18.5,-39"/>
<text text-anchor="start" x="22.5" y="-45.6" font-family="Roboto" font-size="8.00" fill="#000000"> &#160;</text>
<polygon fill="none" stroke="#000000" points="18.5,0 18.5,-39 123.5,-39 123.5,0 18.5,0"/>
<text text-anchor="start" x="22.5" y="-28.6" font-family="Roboto" font-size="8.00" fill="#000000"> &#160;run() </text>
<text text-anchor="start" x="22.5" y="-18.6" font-family="Roboto" font-size="8.00" fill="#000000"> </text>
<text text-anchor="start" x="25.5" y="-18.6" font-family="Roboto" font-style="italic" font-size="8.00" fill="#000000"> getInputTypeRestriction()</text>
<text text-anchor="start" x="116.5" y="-18.6" font-family="Roboto" font-size="8.00" fill="#000000"> </text>
<text text-anchor="start" x="22.5" y="-7.6" font-family="Roboto" font-size="8.00" fill="#000000"> </text>
<text text-anchor="start" x="25.5" y="-7.6" font-family="Roboto" font-style="italic" font-size="8.00" fill="#000000"> getLogger()</text>
<text text-anchor="start" x="69.5" y="-7.6" font-family="Roboto" font-size="8.00" fill="#000000"> </text>
</a>
</g>
</a>
</g>
</g>
<!-- c8914533&#45;&gt;c8916535 -->
<g id="edge1" class="edge">
<title>c8914533&#45;&gt;c8916535</title>
<path fill="none" stroke="#000000" d="M133.1609,-42C141.5765,-42 150.2429,-42 158.749,-42"/>
<polygon fill="none" stroke="#000000" points="133.0476,-38.5001 123.0476,-42 133.0476,-45.5001 133.0476,-38.5001"/>
</g>
<!-- c8915305 -->
<g id="node4" class="node">
<title>c8915305</title>
<g id="a_node4"><a xlink:href="../../../utilities/random/RandomFactory.html" xlink:title="&lt;TABLE&gt;">
<g id="a_node4_4"><a xlink:href="../../../utilities/random/RandomFactory.html" xlink:title="de.lmu.ifi.dbs.elki.utilities.random.RandomFactory" target="_parent">
<polygon fill="none" stroke="#000000" points="371,-62 371,-90 497,-90 497,-62 371,-62"/>
<text text-anchor="start" x="403.5" y="-80.6" font-family="Roboto" font-size="8.00" fill="#000000"> </text>
<text text-anchor="start" x="406.5" y="-80.6" font-family="Roboto" font-size="8.00" fill="#000000">RandomFactory</text>
<text text-anchor="start" x="461.5" y="-80.6" font-family="Roboto" font-size="8.00" fill="#000000"> </text>
<text text-anchor="start" x="375" y="-69.6" font-family="Roboto" font-size="8.00" fill="#000000"> </text>
<text text-anchor="start" x="378" y="-69.6" font-family="Roboto" font-size="7.00" fill="#000000">de.lmu.ifi.dbs.elki.utilities.random</text>
<text text-anchor="start" x="490" y="-69.6" font-family="Roboto" font-size="8.00" fill="#000000"> </text>
</a>
</g>
</a>
</g>
</g>
<!-- c8916535&#45;&gt;c8913874 -->
<g id="edge4" class="edge">
<title>c8916535&#45;&gt;c8913874</title>
<path fill="none" stroke="#000000" d="M237.7138,-50.5227C253.3401,-62.5185 283.7197,-84.2298 313,-96 318.8122,-98.3364 324.873,-100.4651 331.0499,-102.4031"/>
<polygon fill="#000000" stroke="#000000" points="340.8331,-105.2939 329.9678,-106.7756 336.0381,-103.877 331.243,-102.4601 331.243,-102.4601 331.243,-102.4601 336.0381,-103.877 332.5183,-98.1445 340.8331,-105.2939 340.8331,-105.2939"/>
</g>
<!-- c8916535&#45;&gt;c8915305 -->
<g id="edge5" class="edge">
<title>c8916535&#45;&gt;c8915305</title>
<path fill="none" stroke="#000000" d="M278.9677,-50.5357C303.7108,-54.5998 333.7294,-59.5304 360.7369,-63.9664"/>
<polygon fill="#000000" stroke="#000000" points="370.923,-65.6395 360.3259,-68.4592 365.9891,-64.8291 361.0553,-64.0187 361.0553,-64.0187 361.0553,-64.0187 365.9891,-64.8291 361.7846,-59.5782 370.923,-65.6395 370.923,-65.6395"/>
</g>
<!-- c8916536 -->
<g id="node6" class="node">
<title>c8916536</title>
<g id="a_node6"><a xlink:href="RepresentativeUncertainClustering.RepresentativenessEvaluation.html" xlink:title="&lt;TABLE&gt;">
<g id="a_node6_5"><a xlink:href="RepresentativeUncertainClustering.RepresentativenessEvaluation.html" xlink:title="de.lmu.ifi.dbs.elki.algorithm.clustering.uncertain.RepresentativeUncertainClustering.RepresentativenessEvaluation" target="_parent">
<polygon fill="none" stroke="#000000" points="313,-33 313,-50 555,-50 555,-33 313,-33"/>
<text text-anchor="start" x="317" y="-40.6" font-family="Roboto" font-size="8.00" fill="#000000"> </text>
<text text-anchor="start" x="320" y="-40.6" font-family="Roboto" font-size="8.00" fill="#000000">RepresentativeUncertainClustering.RepresentativenessEvaluation</text>
<text text-anchor="start" x="548" y="-40.6" font-family="Roboto" font-size="8.00" fill="#000000"> </text>
</a>
</g>
</a>
</g>
</g>
<!-- c8916535&#45;&gt;c8916536 -->
<g id="edge3" class="edge">
<title>c8916535&#45;&gt;c8916536</title>
<path fill="none" stroke="#000000" d="M307.1848,-42C309.0486,-42 310.9229,-42 312.8054,-42"/>
<polygon fill="none" stroke="#000000" points="307.0662,-42.0001 301.0662,-46 295.0662,-42 301.0663,-38 307.0662,-42.0001"/>
</g>
</g>
</svg>
