<?xml version="1.0" encoding="UTF-8" standalone="no"?>
<!DOCTYPE svg PUBLIC "-//W3C//DTD SVG 1.1//EN"
 "http://www.w3.org/Graphics/SVG/1.1/DTD/svg11.dtd">
<!-- Generated by graphviz version 2.40.1 (20161225.0304)
 -->
<!-- Title: G Pages: 1 -->
<svg width="282pt" height="53pt"
 viewBox="0.00 0.00 282.00 53.00" xmlns="http://www.w3.org/2000/svg" xmlns:xlink="http://www.w3.org/1999/xlink">
<g id="graph0" class="graph" transform="scale(1 1) rotate(0) translate(4 49)">
<title>G</title>
<polygon fill="#ffffff" stroke="transparent" points="-4,4 -4,-49 278,-49 278,4 -4,4"/>
<!-- c1463773 -->
<g id="node1" class="node">
<title>c1463773</title>
<g id="a_node1"><a xlink:href="DenseAffinityMatrix.html" xlink:title="&lt;TABLE&gt;">
<g id="a_node1_0"><a xlink:href="DenseAffinityMatrix.html" xlink:title="de.lmu.ifi.dbs.elki.algorithm.projection.DenseAffinityMatrix" target="_parent">
<polygon fill="none" stroke="#000000" points="188.5,-27.5 188.5,-44.5 272.5,-44.5 272.5,-27.5 188.5,-27.5"/>
<text text-anchor="start" x="192.5" y="-35.1" font-family="Roboto" font-size="8.00" fill="#000000"> </text>
<text text-anchor="start" x="195.5" y="-35.1" font-family="Roboto" font-size="8.00" fill="#000000">DenseAffinityMatrix</text>
<text text-anchor="start" x="265.5" y="-35.1" font-family="Roboto" font-size="8.00" fill="#000000"> </text>
</a>
</g>
</a>
</g>
</g>
<!-- c1463774 -->
<g id="node2" class="node">
<title>c1463774</title>
<g id="a_node2"><a xlink:href="SparseAffinityMatrix.html" xlink:title="&lt;TABLE&gt;">
<g id="a_node2_1"><a xlink:href="SparseAffinityMatrix.html" xlink:title="de.lmu.ifi.dbs.elki.algorithm.projection.SparseAffinityMatrix" target="_parent">
<polygon fill="none" stroke="#000000" points="187.5,.5 187.5,-16.5 274.5,-16.5 274.5,.5 187.5,.5"/>
<text text-anchor="start" x="191.5" y="-7.1" font-family="Roboto" font-size="8.00" fill="#000000"> </text>
<text text-anchor="start" x="194.5" y="-7.1" font-family="Roboto" font-size="8.00" fill="#000000">SparseAffinityMatrix</text>
<text text-anchor="start" x="267.5" y="-7.1" font-family="Roboto" font-size="8.00" fill="#000000"> </text>
</a>
</g>
</a>
</g>
</g>
<!-- c1463775 -->
<g id="node3" class="node">
<title>c1463775</title>
<g id="a_node3"><a xlink:href="AffinityMatrixBuilder.html" xlink:title="&lt;TABLE&gt;">
<g id="a_node3_2"><a xlink:href="AffinityMatrixBuilder.html" xlink:title="de.lmu.ifi.dbs.elki.algorithm.projection.AffinityMatrixBuilder" target="_parent">
<polygon fill="none" stroke="#000000" points="0,-8.5 0,-36.5 88,-36.5 88,-8.5 0,-8.5"/>
<text text-anchor="start" x="22.5" y="-26.1" font-family="Roboto" font-size="8.00" fill="#000000"> «interface» </text>
<text text-anchor="start" x="4" y="-16.1" font-family="Roboto" font-size="8.00" fill="#000000"> </text>
<text text-anchor="start" x="7" y="-16.1" font-family="Roboto" font-size="8.00" fill="#000000">AffinityMatrixBuilder</text>
<text text-anchor="start" x="81" y="-16.1" font-family="Roboto" font-size="8.00" fill="#000000"> </text>
</a>
</g>
</a>
</g>
</g>
<!-- c1463784 -->
<g id="node4" class="node">
<title>c1463784</title>
<g id="a_node4"><a xlink:href="AffinityMatrix.html" xlink:title="&lt;TABLE&gt;">
<g id="a_node4_3"><a xlink:href="AffinityMatrix.html" xlink:title="de.lmu.ifi.dbs.elki.algorithm.projection.AffinityMatrix" target="_parent">
<polygon fill="#fffacd" stroke="transparent" points="106,-8.5 106,-36.5 169,-36.5 169,-8.5 106,-8.5"/>
<polygon fill="none" stroke="#000000" points="106.5,-8.5 106.5,-36.5 169.5,-36.5 169.5,-8.5 106.5,-8.5"/>
<text text-anchor="start" x="116.5" y="-26.1" font-family="Roboto" font-size="8.00" fill="#000000"> «interface» </text>
<text text-anchor="start" x="110.5" y="-16.1" font-family="Roboto" font-size="8.00" fill="#000000"> </text>
<text text-anchor="start" x="113.5" y="-16.1" font-family="Roboto" font-size="8.00" fill="#000000">AffinityMatrix</text>
<text text-anchor="start" x="162.5" y="-16.1" font-family="Roboto" font-size="8.00" fill="#000000"> </text>
</a>
</g>
</a>
</g>
</g>
<!-- c1463775&#45;&gt;c1463784 -->
<g id="edge3" class="edge">
<title>c1463775&#45;&gt;c1463784</title>
<path fill="none" stroke="#000000" d="M100.1915,-22.5C102.1474,-22.5 104.0802,-22.5 105.9755,-22.5"/>
<polygon fill="none" stroke="#000000" points="100.0121,-22.5001 94.0121,-26.5 88.0121,-22.5 94.0122,-18.5 100.0121,-22.5001"/>
</g>
<!-- c1463784&#45;&gt;c1463773 -->
<g id="edge1" class="edge">
<title>c1463784&#45;&gt;c1463773</title>
<path fill="none" stroke="#000000" stroke-dasharray="5,2" d="M179.221,-28.7806C182.2066,-29.23 185.2187,-29.6835 188.2074,-30.1334"/>
<polygon fill="none" stroke="#000000" points="179.6548,-25.3065 169.2452,-27.2788 178.6128,-32.2285 179.6548,-25.3065"/>
</g>
<!-- c1463784&#45;&gt;c1463774 -->
<g id="edge2" class="edge">
<title>c1463784&#45;&gt;c1463774</title>
<path fill="none" stroke="#000000" stroke-dasharray="5,2" d="M179.3549,-16.1993C181.8572,-15.8226 184.3777,-15.4431 186.8869,-15.0654"/>
<polygon fill="none" stroke="#000000" points="178.6128,-12.7715 169.2452,-17.7212 179.6548,-19.6935 178.6128,-12.7715"/>
</g>
</g>
</svg>
