<?xml version="1.0" encoding="UTF-8" standalone="no"?>
<!DOCTYPE svg PUBLIC "-//W3C//DTD SVG 1.1//EN"
 "http://www.w3.org/Graphics/SVG/1.1/DTD/svg11.dtd">
<!-- Generated by graphviz version 2.40.1 (20161225.0304)
 -->
<!-- Title: G Pages: 1 -->
<svg width="261pt" height="43pt"
 viewBox="0.00 0.00 261.00 43.00" xmlns="http://www.w3.org/2000/svg" xmlns:xlink="http://www.w3.org/1999/xlink">
<g id="graph0" class="graph" transform="scale(1 1) rotate(0) translate(4 39)">
<title>G</title>
<polygon fill="#ffffff" stroke="transparent" points="-4,4 -4,-39 257,-39 257,4 -4,4"/>
<!-- c1828256 -->
<g id="node1" class="node">
<title>c1828256</title>
<g id="a_node1"><a xlink:href="BarnesHutTSNE.html" xlink:title="&lt;TABLE&gt;">
<g id="a_node1_0"><a xlink:href="BarnesHutTSNE.html" xlink:title="de.lmu.ifi.dbs.elki.algorithm.projection.BarnesHutTSNE" target="_parent">
<polygon fill="#fffacd" stroke="transparent" points="53,0 53,-17 125,-17 125,0 53,0"/>
<polygon fill="none" stroke="#000000" points="53,.5 53,-16.5 125,-16.5 125,.5 53,.5"/>
<text text-anchor="start" x="57" y="-7.1" font-family="Roboto" font-size="8.00" fill="#000000"> </text>
<text text-anchor="start" x="60" y="-7.1" font-family="Roboto" font-size="8.00" fill="#000000">BarnesHutTSNE</text>
<text text-anchor="start" x="118" y="-7.1" font-family="Roboto" font-size="8.00" fill="#000000"> </text>
</a>
</g>
</a>
</g>
</g>
<!-- c1828257 -->
<g id="node2" class="node">
<title>c1828257</title>
<g id="a_node2"><a xlink:href="BarnesHutTSNE.QuadTree.html" xlink:title="&lt;TABLE&gt;">
<g id="a_node2_1"><a xlink:href="BarnesHutTSNE.QuadTree.html" xlink:title="de.lmu.ifi.dbs.elki.algorithm.projection.BarnesHutTSNE.QuadTree" target="_parent">
<polygon fill="none" stroke="#000000" points="143,.5 143,-16.5 253,-16.5 253,.5 143,.5"/>
<text text-anchor="start" x="147" y="-7.1" font-family="Roboto" font-size="8.00" fill="#000000"> </text>
<text text-anchor="start" x="150" y="-7.1" font-family="Roboto" font-size="8.00" fill="#000000">BarnesHutTSNE.QuadTree</text>
<text text-anchor="start" x="246" y="-7.1" font-family="Roboto" font-size="8.00" fill="#000000"> </text>
</a>
</g>
</a>
</g>
</g>
<!-- c1828256&#45;&gt;c1828257 -->
<g id="edge2" class="edge">
<title>c1828256&#45;&gt;c1828257</title>
<path fill="none" stroke="#000000" d="M137.3771,-8.5C139.2433,-8.5 141.1193,-8.5 142.9961,-8.5"/>
<polygon fill="none" stroke="#000000" points="137.2954,-8.5001 131.2954,-12.5 125.2954,-8.5 131.2955,-4.5 137.2954,-8.5001"/>
</g>
<!-- c1828257&#45;&gt;c1828257 -->
<g id="edge3" class="edge">
<title>c1828257&#45;&gt;c1828257</title>
<path fill="none" stroke="#000000" d="M179.3518,-17.1212C174.4871,-22.6648 180.7031,-28 198,-28 204.2161,-28 209.001,-27.311 212.3549,-26.1708"/>
<polygon fill="#000000" stroke="#000000" points="216.6482,-17.1212 216.4276,-28.0849 214.505,-21.6386 212.3619,-26.156 212.3619,-26.156 212.3619,-26.156 214.505,-21.6386 208.2962,-24.2272 216.6482,-17.1212 216.6482,-17.1212"/>
<text text-anchor="middle" x="214.6482" y="-19.5212" font-family="Roboto" font-size="7.00" fill="#000000">*</text>
</g>
<!-- c1828271 -->
<g id="node3" class="node">
<title>c1828271</title>
<g id="a_node3"><a xlink:href="TSNE.html" xlink:title="&lt;TABLE&gt;">
<g id="a_node3_2"><a xlink:href="TSNE.html" xlink:title="de.lmu.ifi.dbs.elki.algorithm.projection.TSNE" target="_parent">
<polygon fill="none" stroke="#000000" points=".5,.5 .5,-16.5 35.5,-16.5 35.5,.5 .5,.5"/>
<text text-anchor="start" x="4.5" y="-7.1" font-family="Roboto" font-size="8.00" fill="#000000"> </text>
<text text-anchor="start" x="7.5" y="-7.1" font-family="Roboto" font-size="8.00" fill="#000000">TSNE</text>
<text text-anchor="start" x="28.5" y="-7.1" font-family="Roboto" font-size="8.00" fill="#000000"> </text>
</a>
</g>
</a>
</g>
</g>
<!-- c1828271&#45;&gt;c1828256 -->
<g id="edge1" class="edge">
<title>c1828271&#45;&gt;c1828256</title>
<path fill="none" stroke="#000000" d="M45.3817,-8.5C47.8192,-8.5 50.3081,-8.5 52.8,-8.5"/>
<polygon fill="none" stroke="#000000" points="45.1742,-5.0001 35.1742,-8.5 45.1741,-12.0001 45.1742,-5.0001"/>
</g>
</g>
</svg>
