<?xml version="1.0" encoding="UTF-8" standalone="no"?>
<!DOCTYPE svg PUBLIC "-//W3C//DTD SVG 1.1//EN"
 "http://www.w3.org/Graphics/SVG/1.1/DTD/svg11.dtd">
<!-- Generated by graphviz version 2.40.1 (20161225.0304)
 -->
<!-- Title: G Pages: 1 -->
<svg width="304pt" height="47pt"
 viewBox="0.00 0.00 304.00 47.00" xmlns="http://www.w3.org/2000/svg" xmlns:xlink="http://www.w3.org/1999/xlink">
<g id="graph0" class="graph" transform="scale(1 1) rotate(0) translate(4 43)">
<title>G</title>
<polygon fill="#ffffff" stroke="transparent" points="-4,4 -4,-43 300,-43 300,4 -4,4"/>
<!-- c3247863 -->
<g id="node1" class="node">
<title>c3247863</title>
<g id="a_node1"><a xlink:href="DenseAffinityMatrix.html" xlink:title="&lt;TABLE&gt;">
<g id="a_node1_0"><a xlink:href="DenseAffinityMatrix.html" xlink:title="de.lmu.ifi.dbs.elki.algorithm.projection.DenseAffinityMatrix" target="_parent">
<polygon fill="#fffacd" stroke="transparent" points="81,-11 81,-28 165,-28 165,-11 81,-11"/>
<polygon fill="none" stroke="#000000" points="81,-10.5 81,-27.5 165,-27.5 165,-10.5 81,-10.5"/>
<text text-anchor="start" x="85" y="-18.1" font-family="Roboto" font-size="8.00" fill="#000000"> </text>
<text text-anchor="start" x="88" y="-18.1" font-family="Roboto" font-size="8.00" fill="#000000">DenseAffinityMatrix</text>
<text text-anchor="start" x="158" y="-18.1" font-family="Roboto" font-size="8.00" fill="#000000"> </text>
</a>
</g>
</a>
</g>
</g>
<!-- c3249048 -->
<g id="node3" class="node">
<title>c3249048</title>
<g id="a_node3"><a xlink:href="../../database/ids/ArrayDBIDs.html" xlink:title="&lt;TABLE&gt;">
<g id="a_node3_1"><a xlink:href="../../database/ids/ArrayDBIDs.html" xlink:title="de.lmu.ifi.dbs.elki.database.ids.ArrayDBIDs" target="_parent">
<polygon fill="none" stroke="#000000" points="183.5,.5 183.5,-38.5 296.5,-38.5 296.5,.5 183.5,.5"/>
<text text-anchor="start" x="218.5" y="-28.1" font-family="Roboto" font-size="8.00" fill="#000000"> «interface» </text>
<text text-anchor="start" x="215.5" y="-18.1" font-family="Roboto" font-size="8.00" fill="#000000"> </text>
<text text-anchor="start" x="218.5" y="-18.1" font-family="Roboto" font-size="8.00" fill="#000000">ArrayDBIDs</text>
<text text-anchor="start" x="261.5" y="-18.1" font-family="Roboto" font-size="8.00" fill="#000000"> </text>
<text text-anchor="start" x="187.5" y="-7.1" font-family="Roboto" font-size="8.00" fill="#000000"> </text>
<text text-anchor="start" x="190.5" y="-7.1" font-family="Roboto" font-size="7.00" fill="#000000">de.lmu.ifi.dbs.elki.database.ids</text>
<text text-anchor="start" x="289.5" y="-7.1" font-family="Roboto" font-size="8.00" fill="#000000"> </text>
</a>
</g>
</a>
</g>
</g>
<!-- c3247863&#45;&gt;c3249048 -->
<g id="edge2" class="edge">
<title>c3247863&#45;&gt;c3249048</title>
<path fill="none" stroke="#000000" d="M165.0592,-19.5C167.5684,-19.5 170.1213,-19.5 172.6969,-19.5"/>
<polygon fill="#000000" stroke="#000000" points="182.7004,-19.5 172.7005,-24.0001 177.7004,-19.5 172.7004,-19.5001 172.7004,-19.5001 172.7004,-19.5001 177.7004,-19.5 172.7004,-15.0001 182.7004,-19.5 182.7004,-19.5"/>
</g>
<!-- c3247874 -->
<g id="node2" class="node">
<title>c3247874</title>
<g id="a_node2"><a xlink:href="AffinityMatrix.html" xlink:title="&lt;TABLE&gt;">
<g id="a_node2_2"><a xlink:href="AffinityMatrix.html" xlink:title="de.lmu.ifi.dbs.elki.algorithm.projection.AffinityMatrix" target="_parent">
<polygon fill="none" stroke="#000000" points=".5,-5.5 .5,-33.5 63.5,-33.5 63.5,-5.5 .5,-5.5"/>
<text text-anchor="start" x="10.5" y="-23.1" font-family="Roboto" font-size="8.00" fill="#000000"> «interface» </text>
<text text-anchor="start" x="4.5" y="-13.1" font-family="Roboto" font-size="8.00" fill="#000000"> </text>
<text text-anchor="start" x="7.5" y="-13.1" font-family="Roboto" font-size="8.00" fill="#000000">AffinityMatrix</text>
<text text-anchor="start" x="56.5" y="-13.1" font-family="Roboto" font-size="8.00" fill="#000000"> </text>
</a>
</g>
</a>
</g>
</g>
<!-- c3247874&#45;&gt;c3247863 -->
<g id="edge1" class="edge">
<title>c3247874&#45;&gt;c3247863</title>
<path fill="none" stroke="#000000" stroke-dasharray="5,2" d="M73.3351,-19.5C75.8295,-19.5 78.3395,-19.5 80.8353,-19.5"/>
<polygon fill="none" stroke="#000000" points="73.2455,-16.0001 63.2455,-19.5 73.2454,-23.0001 73.2455,-16.0001"/>
</g>
</g>
</svg>
