<?xml version="1.0" encoding="UTF-8" standalone="no"?>
<!DOCTYPE svg PUBLIC "-//W3C//DTD SVG 1.1//EN"
 "http://www.w3.org/Graphics/SVG/1.1/DTD/svg11.dtd">
<!-- Generated by graphviz version 2.40.1 (20161225.0304)
 -->
<!-- Title: G Pages: 1 -->
<svg width="552pt" height="55pt"
 viewBox="0.00 0.00 552.00 54.50" xmlns="http://www.w3.org/2000/svg" xmlns:xlink="http://www.w3.org/1999/xlink">
<g id="graph0" class="graph" transform="scale(1 1) rotate(0) translate(4 50.5)">
<title>G</title>
<polygon fill="#ffffff" stroke="transparent" points="-4,4 -4,-50.5 548,-50.5 548,4 -4,4"/>
<!-- c4622693 -->
<g id="node1" class="node">
<title>c4622693</title>
<g id="a_node1"><a xlink:href="GaussianAffinityMatrixBuilder.html" xlink:title="&lt;TABLE&gt;">
<g id="a_node1_0"><a xlink:href="GaussianAffinityMatrixBuilder.html" xlink:title="de.lmu.ifi.dbs.elki.algorithm.projection.GaussianAffinityMatrixBuilder" target="_parent">
<polygon fill="#fffacd" stroke="transparent" points="106,-24 106,-41 228,-41 228,-24 106,-24"/>
<polygon fill="none" stroke="#000000" points="106,-23.5 106,-40.5 228,-40.5 228,-23.5 106,-23.5"/>
<text text-anchor="start" x="110" y="-31.1" font-family="Roboto" font-size="8.00" fill="#000000"> </text>
<text text-anchor="start" x="113" y="-31.1" font-family="Roboto" font-size="8.00" fill="#000000">GaussianAffinityMatrixBuilder</text>
<text text-anchor="start" x="221" y="-31.1" font-family="Roboto" font-size="8.00" fill="#000000"> </text>
</a>
</g>
</a>
</g>
</g>
<!-- c4622700 -->
<g id="node3" class="node">
<title>c4622700</title>
<g id="a_node3"><a xlink:href="PerplexityAffinityMatrixBuilder.html" xlink:title="&lt;TABLE&gt;">
<g id="a_node3_1"><a xlink:href="PerplexityAffinityMatrixBuilder.html" xlink:title="de.lmu.ifi.dbs.elki.algorithm.projection.PerplexityAffinityMatrixBuilder" target="_parent">
<polygon fill="none" stroke="#000000" points="246,-23.5 246,-40.5 368,-40.5 368,-23.5 246,-23.5"/>
<text text-anchor="start" x="250" y="-31.1" font-family="Roboto" font-size="8.00" fill="#000000"> </text>
<text text-anchor="start" x="253" y="-31.1" font-family="Roboto" font-size="8.00" fill="#000000">PerplexityAffinityMatrixBuilder</text>
<text text-anchor="start" x="361" y="-31.1" font-family="Roboto" font-size="8.00" fill="#000000"> </text>
</a>
</g>
</a>
</g>
</g>
<!-- c4622693&#45;&gt;c4622700 -->
<g id="edge2" class="edge">
<title>c4622693&#45;&gt;c4622700</title>
<path fill="none" stroke="#000000" d="M238.6634,-32.5C241.0066,-32.5 243.3474,-32.5 245.6751,-32.5"/>
<polygon fill="none" stroke="#000000" points="238.4061,-29.0001 228.406,-32.5 238.406,-36.0001 238.4061,-29.0001"/>
</g>
<!-- c4623693 -->
<g id="node4" class="node">
<title>c4623693</title>
<g id="a_node4"><a xlink:href="../../distance/distancefunction/DistanceFunction.html" xlink:title="&lt;TABLE&gt;">
<g id="a_node4_2"><a xlink:href="../../distance/distancefunction/DistanceFunction.html" xlink:title="de.lmu.ifi.dbs.elki.distance.distancefunction.DistanceFunction" target="_parent">
<polygon fill="#fffacd" stroke="transparent" points="386,0 386,-39 544,-39 544,0 386,0"/>
<polygon fill="none" stroke="#000000" points="386,.5 386,-38.5 544,-38.5 544,.5 386,.5"/>
<text text-anchor="start" x="443.5" y="-28.1" font-family="Roboto" font-size="8.00" fill="#000000"> «interface» </text>
<text text-anchor="start" x="431.5" y="-18.1" font-family="Roboto" font-size="8.00" fill="#000000"> </text>
<text text-anchor="start" x="434.5" y="-18.1" font-family="Roboto" font-size="8.00" fill="#000000">DistanceFunction</text>
<text text-anchor="start" x="495.5" y="-18.1" font-family="Roboto" font-size="8.00" fill="#000000"> </text>
<text text-anchor="start" x="390" y="-7.1" font-family="Roboto" font-size="8.00" fill="#000000"> </text>
<text text-anchor="start" x="393" y="-7.1" font-family="Roboto" font-size="7.00" fill="#000000">de.lmu.ifi.dbs.elki.distance.distancefunction</text>
<text text-anchor="start" x="537" y="-7.1" font-family="Roboto" font-size="8.00" fill="#000000"> </text>
</a>
</g>
</a>
</g>
</g>
<!-- c4622693&#45;&gt;c4623693 -->
<g id="edge3" class="edge">
<title>c4622693&#45;&gt;c4623693</title>
<path fill="none" stroke="#000000" d="M207.4138,-23.9329C219.7412,-21.7001 233.3733,-19.6102 246,-18.5 288.5074,-14.7626 335.835,-14.4944 375.5867,-15.3718"/>
<polygon fill="#000000" stroke="#000000" points="385.7873,-15.6255 375.6785,-19.8754 380.7888,-15.5012 375.7904,-15.3768 375.7904,-15.3768 375.7904,-15.3768 380.7888,-15.5012 375.9023,-10.8782 385.7873,-15.6255 385.7873,-15.6255"/>
</g>
<!-- c4622697 -->
<g id="node2" class="node">
<title>c4622697</title>
<g id="a_node2"><a xlink:href="AffinityMatrixBuilder.html" xlink:title="&lt;TABLE&gt;">
<g id="a_node2_3"><a xlink:href="AffinityMatrixBuilder.html" xlink:title="de.lmu.ifi.dbs.elki.algorithm.projection.AffinityMatrixBuilder" target="_parent">
<polygon fill="none" stroke="#000000" points="0,-18.5 0,-46.5 88,-46.5 88,-18.5 0,-18.5"/>
<text text-anchor="start" x="22.5" y="-36.1" font-family="Roboto" font-size="8.00" fill="#000000"> «interface» </text>
<text text-anchor="start" x="4" y="-26.1" font-family="Roboto" font-size="8.00" fill="#000000"> </text>
<text text-anchor="start" x="7" y="-26.1" font-family="Roboto" font-size="8.00" fill="#000000">AffinityMatrixBuilder</text>
<text text-anchor="start" x="81" y="-26.1" font-family="Roboto" font-size="8.00" fill="#000000"> </text>
</a>
</g>
</a>
</g>
</g>
<!-- c4622697&#45;&gt;c4622693 -->
<g id="edge1" class="edge">
<title>c4622697&#45;&gt;c4622693</title>
<path fill="none" stroke="#000000" stroke-dasharray="5,2" d="M98.2821,-32.5C100.8023,-32.5 103.3388,-32.5 105.8744,-32.5"/>
<polygon fill="none" stroke="#000000" points="98.0584,-29.0001 88.0584,-32.5 98.0584,-36.0001 98.0584,-29.0001"/>
</g>
<!-- c4622700&#45;&gt;c4623693 -->
<g id="edge4" class="edge">
<title>c4622700&#45;&gt;c4623693</title>
<path fill="none" stroke="#000000" d="M368.0869,-27.4739C370.6324,-27.2644 373.204,-27.0528 375.7905,-26.84"/>
<polygon fill="#000000" stroke="#000000" points="385.8165,-26.0151 376.2192,-31.3201 380.8333,-26.4252 375.8501,-26.8352 375.8501,-26.8352 375.8501,-26.8352 380.8333,-26.4252 375.4811,-22.3504 385.8165,-26.0151 385.8165,-26.0151"/>
</g>
</g>
</svg>
