<?xml version="1.0" encoding="UTF-8" standalone="no"?>
<!DOCTYPE svg PUBLIC "-//W3C//DTD SVG 1.1//EN"
 "http://www.w3.org/Graphics/SVG/1.1/DTD/svg11.dtd">
<!-- Generated by graphviz version 2.40.1 (20161225.0304)
 -->
<!-- Title: G Pages: 1 -->
<svg width="568pt" height="47pt"
 viewBox="0.00 0.00 568.00 47.00" xmlns="http://www.w3.org/2000/svg" xmlns:xlink="http://www.w3.org/1999/xlink">
<g id="graph0" class="graph" transform="scale(1 1) rotate(0) translate(4 43)">
<title>G</title>
<polygon fill="#ffffff" stroke="transparent" points="-4,4 -4,-43 564,-43 564,4 -4,4"/>
<!-- c5485958 -->
<g id="node1" class="node">
<title>c5485958</title>
<g id="a_node1"><a xlink:href="NearestNeighborAffinityMatrixBuilder.html" xlink:title="&lt;TABLE&gt;">
<g id="a_node1_0"><a xlink:href="NearestNeighborAffinityMatrixBuilder.html" xlink:title="de.lmu.ifi.dbs.elki.algorithm.projection.NearestNeighborAffinityMatrixBuilder" target="_parent">
<polygon fill="none" stroke="#000000" points=".5,-10.5 .5,-27.5 147.5,-27.5 147.5,-10.5 .5,-10.5"/>
<text text-anchor="start" x="4.5" y="-18.1" font-family="Roboto" font-size="8.00" fill="#000000"> </text>
<text text-anchor="start" x="7.5" y="-18.1" font-family="Roboto" font-size="8.00" fill="#000000">NearestNeighborAffinityMatrixBuilder</text>
<text text-anchor="start" x="140.5" y="-18.1" font-family="Roboto" font-size="8.00" fill="#000000"> </text>
</a>
</g>
</a>
</g>
</g>
<!-- c5485962 -->
<g id="node2" class="node">
<title>c5485962</title>
<g id="a_node2"><a xlink:href="IntrinsicNearestNeighborAffinityMatrixBuilder.html" xlink:title="&lt;TABLE&gt;">
<g id="a_node2_1"><a xlink:href="IntrinsicNearestNeighborAffinityMatrixBuilder.html" xlink:title="de.lmu.ifi.dbs.elki.algorithm.projection.IntrinsicNearestNeighborAffinityMatrixBuilder" target="_parent">
<polygon fill="#fffacd" stroke="transparent" points="165,-11 165,-28 341,-28 341,-11 165,-11"/>
<polygon fill="none" stroke="#000000" points="165,-10.5 165,-27.5 341,-27.5 341,-10.5 165,-10.5"/>
<text text-anchor="start" x="169" y="-18.1" font-family="Roboto" font-size="8.00" fill="#000000"> </text>
<text text-anchor="start" x="172" y="-18.1" font-family="Roboto" font-size="8.00" fill="#000000">IntrinsicNearestNeighborAffinityMatrixBuilder</text>
<text text-anchor="start" x="334" y="-18.1" font-family="Roboto" font-size="8.00" fill="#000000"> </text>
</a>
</g>
</a>
</g>
</g>
<!-- c5485958&#45;&gt;c5485962 -->
<g id="edge1" class="edge">
<title>c5485958&#45;&gt;c5485962</title>
<path fill="none" stroke="#000000" d="M157.0667,-19.5C159.6835,-19.5 162.3073,-19.5 164.9292,-19.5"/>
<polygon fill="none" stroke="#000000" points="157.0275,-16.0001 147.0274,-19.5 157.0274,-23.0001 157.0275,-16.0001"/>
</g>
<!-- c5487445 -->
<g id="node3" class="node">
<title>c5487445</title>
<g id="a_node3"><a xlink:href="../../math/statistics/intrinsicdimensionality/IntrinsicDimensionalityEstimator.html" xlink:title="&lt;TABLE&gt;">
<g id="a_node3_2"><a xlink:href="../../math/statistics/intrinsicdimensionality/IntrinsicDimensionalityEstimator.html" xlink:title="de.lmu.ifi.dbs.elki.math.statistics.intrinsicdimensionality.IntrinsicDimensionalityEstimator" target="_parent">
<polygon fill="none" stroke="#000000" points="359.5,.5 359.5,-38.5 560.5,-38.5 560.5,.5 359.5,.5"/>
<text text-anchor="start" x="438.5" y="-28.1" font-family="Roboto" font-size="8.00" fill="#000000"> «interface» </text>
<text text-anchor="start" x="399.5" y="-18.1" font-family="Roboto" font-size="8.00" fill="#000000"> </text>
<text text-anchor="start" x="402.5" y="-18.1" font-family="Roboto" font-size="8.00" fill="#000000">IntrinsicDimensionalityEstimator</text>
<text text-anchor="start" x="517.5" y="-18.1" font-family="Roboto" font-size="8.00" fill="#000000"> </text>
<text text-anchor="start" x="363.5" y="-7.1" font-family="Roboto" font-size="8.00" fill="#000000"> </text>
<text text-anchor="start" x="366.5" y="-7.1" font-family="Roboto" font-size="7.00" fill="#000000">de.lmu.ifi.dbs.elki.math.statistics.intrinsicdimensionality</text>
<text text-anchor="start" x="553.5" y="-7.1" font-family="Roboto" font-size="8.00" fill="#000000"> </text>
</a>
</g>
</a>
</g>
</g>
<!-- c5485962&#45;&gt;c5487445 -->
<g id="edge2" class="edge">
<title>c5485962&#45;&gt;c5487445</title>
<path fill="none" stroke="#000000" d="M341.1736,-19.5C343.6246,-19.5 346.0873,-19.5 348.5558,-19.5"/>
<polygon fill="#000000" stroke="#000000" points="358.7229,-19.5 348.7229,-24.0001 353.7229,-19.5 348.7229,-19.5001 348.7229,-19.5001 348.7229,-19.5001 353.7229,-19.5 348.7228,-15.0001 358.7229,-19.5 358.7229,-19.5"/>
</g>
</g>
</svg>
