<?xml version="1.0" encoding="UTF-8" standalone="no"?>
<!DOCTYPE svg PUBLIC "-//W3C//DTD SVG 1.1//EN"
 "http://www.w3.org/Graphics/SVG/1.1/DTD/svg11.dtd">
<!-- Generated by graphviz version 2.40.1 (20161225.0304)
 -->
<!-- Title: G Pages: 1 -->
<svg width="231pt" height="25pt"
 viewBox="0.00 0.00 231.00 25.00" xmlns="http://www.w3.org/2000/svg" xmlns:xlink="http://www.w3.org/1999/xlink">
<g id="graph0" class="graph" transform="scale(1 1) rotate(0) translate(4 21)">
<title>G</title>
<polygon fill="#ffffff" stroke="transparent" points="-4,4 -4,-21 227,-21 227,4 -4,4"/>
<!-- c4794044 -->
<g id="node1" class="node">
<title>c4794044</title>
<g id="a_node1"><a xlink:href="AbstractNumberConstraint.html" xlink:title="&lt;TABLE&gt;">
<g id="a_node1_0"><a xlink:href="AbstractNumberConstraint.html" xlink:title="de.lmu.ifi.dbs.elki.utilities.optionhandling.constraints.AbstractNumberConstraint" target="_parent">
<polygon fill="none" stroke="#000000" points="0,.5 0,-16.5 108,-16.5 108,.5 0,.5"/>
<text text-anchor="start" x="4" y="-7.1" font-family="Roboto" font-size="8.00" fill="#000000"> </text>
<text text-anchor="start" x="7" y="-7.1" font-family="Roboto" font-style="italic" font-size="8.00" fill="#000000">AbstractNumberConstraint</text>
<text text-anchor="start" x="101" y="-7.1" font-family="Roboto" font-size="8.00" fill="#000000"> </text>
</a>
</g>
</a>
</g>
</g>
<!-- c4794052 -->
<g id="node2" class="node">
<title>c4794052</title>
<g id="a_node2"><a xlink:href="GreaterEqualConstraint.html" xlink:title="&lt;TABLE&gt;">
<g id="a_node2_1"><a xlink:href="GreaterEqualConstraint.html" xlink:title="de.lmu.ifi.dbs.elki.utilities.optionhandling.constraints.GreaterEqualConstraint" target="_parent">
<polygon fill="#fffacd" stroke="transparent" points="126,0 126,-17 223,-17 223,0 126,0"/>
<polygon fill="none" stroke="#000000" points="126.5,.5 126.5,-16.5 223.5,-16.5 223.5,.5 126.5,.5"/>
<text text-anchor="start" x="130.5" y="-7.1" font-family="Roboto" font-size="8.00" fill="#000000"> </text>
<text text-anchor="start" x="133.5" y="-7.1" font-family="Roboto" font-size="8.00" fill="#000000">GreaterEqualConstraint</text>
<text text-anchor="start" x="216.5" y="-7.1" font-family="Roboto" font-size="8.00" fill="#000000"> </text>
</a>
</g>
</a>
</g>
</g>
<!-- c4794044&#45;&gt;c4794052 -->
<g id="edge1" class="edge">
<title>c4794044&#45;&gt;c4794052</title>
<path fill="none" stroke="#000000" d="M118.4749,-8.5C120.9577,-8.5 123.4308,-8.5 125.8774,-8.5"/>
<polygon fill="none" stroke="#000000" points="118.2574,-5.0001 108.2574,-8.5 118.2573,-12.0001 118.2574,-5.0001"/>
</g>
</g>
</svg>
