<?xml version="1.0" encoding="UTF-8" standalone="no"?><svg xmlns="http://www.w3.org/2000/svg" xmlns:xlink="http://www.w3.org/1999/xlink" contentStyleType="text/css" height="233px" preserveAspectRatio="none" style="width:725px;height:233px;background:#FFFFFF;" version="1.1" viewBox="0 0 725 233" width="725px" zoomAndPan="magnify"><defs/><g><!--MD5=[901432f3ff439ab13927389054cb5a71]
class elki.clustering.kmeans.initialization.AFKMC2--><a href="AFKMC2.html" target="_top" title="AFKMC2.html" xlink:actuate="onRequest" xlink:href="AFKMC2.html" xlink:show="new" xlink:title="AFKMC2.html" xlink:type="simple"><g id="elem_elki.clustering.kmeans.initialization.AFKMC2"><rect codeLine="6" fill="#F1F1F1" height="102.8281" id="elki.clustering.kmeans.initialization.AFKMC2" rx="2.5" ry="2.5" style="stroke:#181818;stroke-width:0.5;" width="711" x="7" y="105"/><ellipse cx="276.75" cy="123.9688" fill="#ADD1B2" rx="11" ry="11" style="stroke:#181818;stroke-width:1.0;"/><path d="M279.7188,129.6094 Q279.1406,129.9063 278.5,130.0469 Q277.8594,130.2031 277.1563,130.2031 Q274.6563,130.2031 273.3281,128.5625 Q272.0156,126.9063 272.0156,123.7813 Q272.0156,120.6563 273.3281,119 Q274.6563,117.3438 277.1563,117.3438 Q277.8594,117.3438 278.5,117.5 Q279.1563,117.6563 279.7188,117.9531 L279.7188,120.6719 Q279.0938,120.0938 278.5,119.8281 Q277.9063,119.5469 277.2813,119.5469 Q275.9375,119.5469 275.25,120.625 Q274.5625,121.6875 274.5625,123.7813 Q274.5625,125.875 275.25,126.9531 Q275.9375,128.0156 277.2813,128.0156 Q277.9063,128.0156 278.5,127.75 Q279.0938,127.4688 279.7188,126.8906 L279.7188,129.6094 Z " fill="#000000"/><text fill="#000000" font-family="sans-serif" font-size="14" lengthAdjust="spacing" textLength="57" x="350.25" y="122.9951">AFKMC2</text><text fill="#000000" font-family="sans-serif" font-size="10" lengthAdjust="spacing" textLength="163" x="297.25" y="135.5791">elki.clustering.kmeans.initialization</text><line style="stroke:#181818;stroke-width:0.5;" x1="8" x2="717" y1="142.9375" y2="142.9375"/><rect fill="none" height="6" style="stroke:#C82930;stroke-width:1.0;" width="6" x="15" y="153.5859"/><text fill="#000000" font-family="sans-serif" font-size="14" lengthAdjust="spacing" text-decoration="underline" textLength="93" x="27" y="159.9326">LOG: Logging</text><line style="stroke:#181818;stroke-width:0.5;" x1="8" x2="717" y1="167.2344" y2="167.2344"/><ellipse cx="18" cy="180.8828" fill="#84BE84" rx="3" ry="3" style="stroke:#038048;stroke-width:1.0;"/><text fill="#000000" font-family="sans-serif" font-size="14" lengthAdjust="spacing" textLength="200" x="27" y="184.2295">AFKMC2(int, RandomFactory)</text><ellipse cx="18" cy="197.1797" fill="#84BE84" rx="3" ry="3" style="stroke:#038048;stroke-width:1.0;"/><text fill="#000000" font-family="sans-serif" font-size="14" lengthAdjust="spacing" textLength="685" x="27" y="200.5264">chooseInitialMeans(Relation&lt;? extends NumberVector&gt;, int, NumberVectorDistance&lt;?&gt;): double[]</text></g></a><!--MD5=[b4152f62a552035cc13f5a13606f5620]
class elki.clustering.kmeans.initialization.KMC2--><a href="KMC2.html" target="_top" title="KMC2.html" xlink:actuate="onRequest" xlink:href="KMC2.html" xlink:show="new" xlink:title="KMC2.html" xlink:type="simple"><g id="elem_elki.clustering.kmeans.initialization.KMC2"><rect codeLine="12" fill="#F1F1F1" height="37.9375" id="elki.clustering.kmeans.initialization.KMC2" rx="2.5" ry="2.5" style="stroke:#181818;stroke-width:0.5;" width="195" x="265" y="7"/><ellipse cx="280" cy="25.9688" fill="#ADD1B2" rx="11" ry="11" style="stroke:#181818;stroke-width:1.0;"/><path d="M282.9688,31.6094 Q282.3906,31.9063 281.75,32.0469 Q281.1094,32.2031 280.4063,32.2031 Q277.9063,32.2031 276.5781,30.5625 Q275.2656,28.9063 275.2656,25.7813 Q275.2656,22.6563 276.5781,21 Q277.9063,19.3438 280.4063,19.3438 Q281.1094,19.3438 281.75,19.5 Q282.4063,19.6563 282.9688,19.9531 L282.9688,22.6719 Q282.3438,22.0938 281.75,21.8281 Q281.1563,21.5469 280.5313,21.5469 Q279.1875,21.5469 278.5,22.625 Q277.8125,23.6875 277.8125,25.7813 Q277.8125,27.875 278.5,28.9531 Q279.1875,30.0156 280.5313,30.0156 Q281.1563,30.0156 281.75,29.75 Q282.3438,29.4688 282.9688,28.8906 L282.9688,31.6094 Z " fill="#000000"/><text fill="#000000" font-family="sans-serif" font-size="14" lengthAdjust="spacing" textLength="40" x="355.5" y="24.9951">KMC2</text><text fill="#000000" font-family="sans-serif" font-size="10" lengthAdjust="spacing" textLength="163" x="294" y="37.5791">elki.clustering.kmeans.initialization</text></g></a><!--MD5=[2d5c8583036000fce57944b428902e59]
reverse link elki.clustering.kmeans.initialization.KMC2 to elki.clustering.kmeans.initialization.AFKMC2--><g id="link_elki.clustering.kmeans.initialization.KMC2_elki.clustering.kmeans.initialization.AFKMC2"><path codeLine="16" d="M362.5,65.26 C362.5,77.65 362.5,91.59 362.5,104.74 " fill="none" id="elki.clustering.kmeans.initialization.KMC2-backto-elki.clustering.kmeans.initialization.AFKMC2" style="stroke:#181818;stroke-width:1.0;"/><polygon fill="none" points="355.5,65.14,362.5,45.14,369.5,65.14,355.5,65.14" style="stroke:#181818;stroke-width:1.0;"/></g><rect fill="none" height="11.6406" style="stroke:none;stroke-width:1.0;" width="186" x="262.5" y="213.8281"/><text fill="#888888" font-family="sans-serif" font-size="10" lengthAdjust="spacing" textLength="186" x="262.5" y="223.1104">UMLDoclet 2.0.19, PlantUML 1.2022.8</text><!--MD5=[6be2c5b6cc9d899845e16262bf7e2918]
@startuml
    remove .*\.(Instance|Par|Parameterizer|Factory)$
    set namespaceSeparator none
    hide empty fields
    hide empty methods

    class "<size:14>AFKMC2\n<size:10>elki.clustering.kmeans.initialization" as elki.clustering.kmeans.initialization.AFKMC2 [[AFKMC2.html]] {
        {static} -LOG: Logging
        +AFKMC2(int, RandomFactory)
        +chooseInitialMeans(Relation<? extends NumberVector>, int, NumberVectorDistance<?>): double[]
    }

    class "<size:14>KMC2\n<size:10>elki.clustering.kmeans.initialization" as elki.clustering.kmeans.initialization.KMC2 [[KMC2.html]]
    class "<size:14>AFKMC2.Instance\n<size:10>elki.clustering.kmeans.initialization" as elki.clustering.kmeans.initialization.AFKMC2.Instance [[AFKMC2.Instance.html]]
    class "<size:14>AFKMC2.Par\n<size:10>elki.clustering.kmeans.initialization" as elki.clustering.kmeans.initialization.AFKMC2.Par [[AFKMC2.Par.html]]

    elki.clustering.kmeans.initialization.KMC2 <|- - elki.clustering.kmeans.initialization.AFKMC2
    elki.clustering.kmeans.initialization.AFKMC2 +- - elki.clustering.kmeans.initialization.AFKMC2.Instance
    elki.clustering.kmeans.initialization.AFKMC2 +- - elki.clustering.kmeans.initialization.AFKMC2.Par

    center footer UMLDoclet 2.0.19, PlantUML 1.2022.8
@enduml

PlantUML version 1.2022.8(Sun Sep 25 11:00:33 CEST 2022)
(APACHE source distribution)
Java Runtime: OpenJDK Runtime Environment
JVM: OpenJDK 64-Bit Server VM
Default Encoding: UTF-8
Language: de
Country: DE
--></g></svg>