<?xml version="1.0" encoding="UTF-8" standalone="no"?><svg xmlns="http://www.w3.org/2000/svg" xmlns:xlink="http://www.w3.org/1999/xlink" contentStyleType="text/css" height="249px" preserveAspectRatio="none" style="width:727px;height:249px;background:#FFFFFF;" version="1.1" viewBox="0 0 727 249" width="727px" zoomAndPan="magnify"><defs/><g><!--MD5=[b4152f62a552035cc13f5a13606f5620]
class elki.clustering.kmeans.initialization.KMC2--><a href="KMC2.html" target="_top" title="KMC2.html" xlink:actuate="onRequest" xlink:href="KMC2.html" xlink:show="new" xlink:title="KMC2.html" xlink:type="simple"><g id="elem_elki.clustering.kmeans.initialization.KMC2"><rect codeLine="6" fill="#F1F1F1" height="119.125" id="elki.clustering.kmeans.initialization.KMC2" rx="2.5" ry="2.5" style="stroke:#181818;stroke-width:0.5;" width="711" x="9" y="105"/><ellipse cx="278.75" cy="123.9688" fill="#ADD1B2" rx="11" ry="11" style="stroke:#181818;stroke-width:1.0;"/><path d="M281.7188,129.6094 Q281.1406,129.9063 280.5,130.0469 Q279.8594,130.2031 279.1563,130.2031 Q276.6563,130.2031 275.3281,128.5625 Q274.0156,126.9063 274.0156,123.7813 Q274.0156,120.6563 275.3281,119 Q276.6563,117.3438 279.1563,117.3438 Q279.8594,117.3438 280.5,117.5 Q281.1563,117.6563 281.7188,117.9531 L281.7188,120.6719 Q281.0938,120.0938 280.5,119.8281 Q279.9063,119.5469 279.2813,119.5469 Q277.9375,119.5469 277.25,120.625 Q276.5625,121.6875 276.5625,123.7813 Q276.5625,125.875 277.25,126.9531 Q277.9375,128.0156 279.2813,128.0156 Q279.9063,128.0156 280.5,127.75 Q281.0938,127.4688 281.7188,126.8906 L281.7188,129.6094 Z " fill="#000000"/><text fill="#000000" font-family="sans-serif" font-size="14" lengthAdjust="spacing" textLength="40" x="360.75" y="122.9951">KMC2</text><text fill="#000000" font-family="sans-serif" font-size="10" lengthAdjust="spacing" textLength="163" x="299.25" y="135.5791">elki.clustering.kmeans.initialization</text><line style="stroke:#181818;stroke-width:0.5;" x1="10" x2="719" y1="142.9375" y2="142.9375"/><rect fill="none" height="6" style="stroke:#C82930;stroke-width:1.0;" width="6" x="17" y="153.5859"/><text fill="#000000" font-family="sans-serif" font-size="14" lengthAdjust="spacing" text-decoration="underline" textLength="93" x="29" y="159.9326">LOG: Logging</text><polygon fill="none" points="20,167.8828,24,171.8828,20,175.8828,16,171.8828" style="stroke:#B38D22;stroke-width:1.0;"/><text fill="#000000" font-family="sans-serif" font-size="14" lengthAdjust="spacing" textLength="39" x="29" y="176.2295">m: int</text><line style="stroke:#181818;stroke-width:0.5;" x1="10" x2="719" y1="183.5313" y2="183.5313"/><ellipse cx="20" cy="197.1797" fill="#84BE84" rx="3" ry="3" style="stroke:#038048;stroke-width:1.0;"/><text fill="#000000" font-family="sans-serif" font-size="14" lengthAdjust="spacing" textLength="183" x="29" y="200.5264">KMC2(int, RandomFactory)</text><ellipse cx="20" cy="213.4766" fill="#84BE84" rx="3" ry="3" style="stroke:#038048;stroke-width:1.0;"/><text fill="#000000" font-family="sans-serif" font-size="14" lengthAdjust="spacing" textLength="685" x="29" y="216.8232">chooseInitialMeans(Relation&lt;? extends NumberVector&gt;, int, NumberVectorDistance&lt;?&gt;): double[]</text></g></a><!--MD5=[d9187bc9f70f8ce46a065cf1b13e2f5f]
class elki.clustering.kmeans.initialization.AbstractKMeansInitialization--><a href="AbstractKMeansInitialization.html" target="_top" title="AbstractKMeansInitialization.html" xlink:actuate="onRequest" xlink:href="AbstractKMeansInitialization.html" xlink:show="new" xlink:title="AbstractKMeansInitialization.html" xlink:type="simple"><g id="elem_elki.clustering.kmeans.initialization.AbstractKMeansInitialization"><rect codeLine="13" fill="#F1F1F1" height="37.9375" id="elki.clustering.kmeans.initialization.AbstractKMeansInitialization" rx="2.5" ry="2.5" style="stroke:#181818;stroke-width:0.5;" width="231" x="249" y="7"/><ellipse cx="264" cy="25.9688" fill="#A9DCDF" rx="11" ry="11" style="stroke:#181818;stroke-width:1.0;"/><path d="M264.1094,21.3125 L262.9531,26.3906 L265.2813,26.3906 L264.1094,21.3125 Z M262.625,19.0781 L265.6094,19.0781 L268.9688,31.4688 L266.5156,31.4688 L265.75,28.4063 L262.4688,28.4063 L261.7188,31.4688 L259.2813,31.4688 L262.625,19.0781 Z " fill="#000000"/><text fill="#000000" font-family="sans-serif" font-size="14" font-style="italic" lengthAdjust="spacing" textLength="199" x="278" y="24.9951">AbstractKMeansInitialization</text><text fill="#000000" font-family="sans-serif" font-size="10" font-style="italic" lengthAdjust="spacing" textLength="176" x="289.5" y="37.5791">elki.clustering.kmeans.initialization</text></g></a><!--MD5=[a84cc68f28e64728af23c1a46da55489]
reverse link elki.clustering.kmeans.initialization.AbstractKMeansInitialization to elki.clustering.kmeans.initialization.KMC2--><g id="link_elki.clustering.kmeans.initialization.AbstractKMeansInitialization_elki.clustering.kmeans.initialization.KMC2"><path codeLine="17" d="M364.5,65.5 C364.5,77.69 364.5,91.46 364.5,104.73 " fill="none" id="elki.clustering.kmeans.initialization.AbstractKMeansInitialization-backto-elki.clustering.kmeans.initialization.KMC2" style="stroke:#181818;stroke-width:1.0;"/><polygon fill="none" points="357.5,65.13,364.5,45.13,371.5,65.13,357.5,65.13" style="stroke:#181818;stroke-width:1.0;"/></g><rect fill="none" height="11.6406" style="stroke:none;stroke-width:1.0;" width="186" x="263.5" y="230.125"/><text fill="#888888" font-family="sans-serif" font-size="10" lengthAdjust="spacing" textLength="186" x="263.5" y="239.4072">UMLDoclet 2.0.19, PlantUML 1.2022.8</text><!--MD5=[77aa939b93e0929dcff5c2697d95e1eb]
@startuml
    remove .*\.(Instance|Par|Parameterizer|Factory)$
    set namespaceSeparator none
    hide empty fields
    hide empty methods

    class "<size:14>KMC2\n<size:10>elki.clustering.kmeans.initialization" as elki.clustering.kmeans.initialization.KMC2 [[KMC2.html]] {
        {static} -LOG: Logging
        #m: int
        +KMC2(int, RandomFactory)
        +chooseInitialMeans(Relation<? extends NumberVector>, int, NumberVectorDistance<?>): double[]
    }

    abstract class "<size:14>AbstractKMeansInitialization\n<size:10>elki.clustering.kmeans.initialization" as elki.clustering.kmeans.initialization.AbstractKMeansInitialization [[AbstractKMeansInitialization.html]]
    class "<size:14>KMC2.Instance\n<size:10>elki.clustering.kmeans.initialization" as elki.clustering.kmeans.initialization.KMC2.Instance [[KMC2.Instance.html]]
    class "<size:14>KMC2.Par\n<size:10>elki.clustering.kmeans.initialization" as elki.clustering.kmeans.initialization.KMC2.Par [[KMC2.Par.html]]

    elki.clustering.kmeans.initialization.AbstractKMeansInitialization <|- - elki.clustering.kmeans.initialization.KMC2
    elki.clustering.kmeans.initialization.KMC2 +- - elki.clustering.kmeans.initialization.KMC2.Instance
    elki.clustering.kmeans.initialization.KMC2 +- - elki.clustering.kmeans.initialization.KMC2.Par

    center footer UMLDoclet 2.0.19, PlantUML 1.2022.8
@enduml

PlantUML version 1.2022.8(Sun Sep 25 11:00:33 CEST 2022)
(APACHE source distribution)
Java Runtime: OpenJDK Runtime Environment
JVM: OpenJDK 64-Bit Server VM
Default Encoding: UTF-8
Language: de
Country: DE
--></g></svg>