<?xml version="1.0" encoding="UTF-8" standalone="no"?><svg xmlns="http://www.w3.org/2000/svg" xmlns:xlink="http://www.w3.org/1999/xlink" contentStyleType="text/css" height="269px" preserveAspectRatio="none" style="width:470px;height:269px;background:#FFFFFF;" version="1.1" viewBox="0 0 470 269" width="470px" zoomAndPan="magnify"><defs/><g><!--MD5=[61a02156f1671e23309f7c61e7c49ce7]
class elki.clustering.kmeans.initialization.KMeansPlusPlus.MedoidsInstance--><a href="KMeansPlusPlus.MedoidsInstance.html" target="_top" title="KMeansPlusPlus.MedoidsInstance.html" xlink:actuate="onRequest" xlink:href="KMeansPlusPlus.MedoidsInstance.html" xlink:show="new" xlink:title="KMeansPlusPlus.MedoidsInstance.html" xlink:type="simple"><g id="elem_elki.clustering.kmeans.initialization.KMeansPlusPlus.MedoidsInstance"><rect codeLine="6" fill="#F1F1F1" height="135.4219" id="elki.clustering.kmeans.initialization.KMeansPlusPlus.MedoidsInstance" rx="2.5" ry="2.5" style="stroke:#181818;stroke-width:0.5;" width="454" x="9" y="108"/><ellipse cx="114.25" cy="126.9688" fill="#ADD1B2" rx="11" ry="11" style="stroke:#181818;stroke-width:1.0;"/><path d="M117.2188,132.6094 Q116.6406,132.9063 116,133.0469 Q115.3594,133.2031 114.6563,133.2031 Q112.1563,133.2031 110.8281,131.5625 Q109.5156,129.9063 109.5156,126.7813 Q109.5156,123.6563 110.8281,122 Q112.1563,120.3438 114.6563,120.3438 Q115.3594,120.3438 116,120.5 Q116.6563,120.6563 117.2188,120.9531 L117.2188,123.6719 Q116.5938,123.0938 116,122.8281 Q115.4063,122.5469 114.7813,122.5469 Q113.4375,122.5469 112.75,123.625 Q112.0625,124.6875 112.0625,126.7813 Q112.0625,128.875 112.75,129.9531 Q113.4375,131.0156 114.7813,131.0156 Q115.4063,131.0156 116,130.75 Q116.5938,130.4688 117.2188,129.8906 L117.2188,132.6094 Z " fill="#000000"/><text fill="#000000" font-family="sans-serif" font-size="14" lengthAdjust="spacing" textLength="235" x="134.75" y="125.9951">KMeansPlusPlus.MedoidsInstance</text><text fill="#000000" font-family="sans-serif" font-size="10" lengthAdjust="spacing" textLength="163" x="170.75" y="138.5791">elki.clustering.kmeans.initialization</text><line style="stroke:#181818;stroke-width:0.5;" x1="10" x2="462" y1="145.9375" y2="145.9375"/><polygon fill="none" points="20,155.5859,16,161.5859,24,161.5859" style="stroke:#1963A0;stroke-width:1.0;"/><text fill="#000000" font-family="sans-serif" font-size="14" lengthAdjust="spacing" textLength="178" x="29" y="162.9326">distQ: DistanceQuery&lt;?&gt;</text><line style="stroke:#181818;stroke-width:0.5;" x1="10" x2="462" y1="170.2344" y2="170.2344"/><ellipse cx="20" cy="183.8828" fill="#84BE84" rx="3" ry="3" style="stroke:#038048;stroke-width:1.0;"/><text fill="#000000" font-family="sans-serif" font-size="14" lengthAdjust="spacing" textLength="428" x="29" y="187.2295">MedoidsInstance(DBIDs, DistanceQuery&lt;?&gt;, RandomFactory)</text><ellipse cx="20" cy="200.1797" fill="#84BE84" rx="3" ry="3" style="stroke:#038048;stroke-width:1.0;"/><text fill="#000000" font-family="sans-serif" font-size="14" lengthAdjust="spacing" textLength="102" x="29" y="203.5264">run(int): DBIDs</text><polygon fill="#FFFF44" points="20,211.4766,24,215.4766,20,219.4766,16,215.4766" style="stroke:#B38D22;stroke-width:1.0;"/><text fill="#000000" font-family="sans-serif" font-size="14" lengthAdjust="spacing" textLength="250" x="29" y="219.8232">distance(DBIDRef, DBIDRef): double</text><polygon fill="#FFFF44" points="20,227.7734,24,231.7734,20,235.7734,16,231.7734" style="stroke:#B38D22;stroke-width:1.0;"/><text fill="#000000" font-family="sans-serif" font-size="14" lengthAdjust="spacing" textLength="399" x="29" y="236.1201">chooseRemaining(int, ArrayModifiableDBIDs, double): void</text></g></a><!--MD5=[3e575e13c5c16594a5edd0841d023b7e]
class elki.clustering.kmeans.initialization.KMeansPlusPlus--><a href="KMeansPlusPlus.html" target="_top" title="KMeansPlusPlus.html" xlink:actuate="onRequest" xlink:href="KMeansPlusPlus.html" xlink:show="new" xlink:title="KMeansPlusPlus.html" xlink:type="simple"><g id="elem_elki.clustering.kmeans.initialization.KMeansPlusPlus"><rect codeLine="17" fill="#F1F1F1" height="37.9375" id="elki.clustering.kmeans.initialization.KMeansPlusPlus" rx="2.5" ry="2.5" style="stroke:#181818;stroke-width:0.5;" width="207" x="132.5" y="10"/><ellipse cx="147.5" cy="28.9688" fill="#ADD1B2" rx="11" ry="11" style="stroke:#181818;stroke-width:1.0;"/><path d="M150.4688,34.6094 Q149.8906,34.9063 149.25,35.0469 Q148.6094,35.2031 147.9063,35.2031 Q145.4063,35.2031 144.0781,33.5625 Q142.7656,31.9063 142.7656,28.7813 Q142.7656,25.6563 144.0781,24 Q145.4063,22.3438 147.9063,22.3438 Q148.6094,22.3438 149.25,22.5 Q149.9063,22.6563 150.4688,22.9531 L150.4688,25.6719 Q149.8438,25.0938 149.25,24.8281 Q148.6563,24.5469 148.0313,24.5469 Q146.6875,24.5469 146,25.625 Q145.3125,26.6875 145.3125,28.7813 Q145.3125,30.875 146,31.9531 Q146.6875,33.0156 148.0313,33.0156 Q148.6563,33.0156 149.25,32.75 Q149.8438,32.4688 150.4688,31.8906 L150.4688,34.6094 Z " fill="#000000"/><text fill="#000000" font-family="sans-serif" font-size="14" lengthAdjust="spacing" textLength="113" x="186.5" y="27.9951">KMeansPlusPlus</text><text fill="#000000" font-family="sans-serif" font-size="10" lengthAdjust="spacing" textLength="163" x="161.5" y="40.5791">elki.clustering.kmeans.initialization</text><rect fill="#FFFFFF" height="15.9688" style="stroke:#181818;stroke-width:1.0;stroke-dasharray:2.0,2.0;" width="10" x="332.5" y="7"/><text fill="#000000" font-family="sans-serif" font-size="12" font-style="italic" lengthAdjust="spacing" textLength="8" x="333.5" y="19.1387">O</text></g></a><!--MD5=[7cac080b4d39557261b7bcb165b9008c]
reverse link elki.clustering.kmeans.initialization.KMeansPlusPlus to elki.clustering.kmeans.initialization.KMeansPlusPlus.MedoidsInstance--><g id="link_elki.clustering.kmeans.initialization.KMeansPlusPlus_elki.clustering.kmeans.initialization.KMeansPlusPlus.MedoidsInstance"><path codeLine="20" d="M236,63.25 C236,76.51 236,92.26 236,107.69 " fill="none" id="elki.clustering.kmeans.initialization.KMeansPlusPlus-backto-elki.clustering.kmeans.initialization.KMeansPlusPlus.MedoidsInstance" style="stroke:#181818;stroke-width:1.0;"/><ellipse cx="236" cy="56.01" fill="#FFFFFF" rx="8" ry="8" style="stroke:#181818;stroke-width:1.0;"/><line style="stroke:#181818;stroke-width:1.0;" x1="236" x2="236" y1="64.01" y2="48.01"/><line style="stroke:#181818;stroke-width:1.0;" x1="228" x2="244" y1="56.01" y2="56.01"/></g><rect fill="none" height="11.6406" style="stroke:none;stroke-width:1.0;" width="186" x="135" y="249.4219"/><text fill="#888888" font-family="sans-serif" font-size="10" lengthAdjust="spacing" textLength="186" x="135" y="258.7041">UMLDoclet 2.0.19, PlantUML 1.2022.8</text><!--MD5=[20ae937c026b46d658b24155f903f947]
@startuml
    remove .*\.(Instance|Par|Parameterizer|Factory)$
    set namespaceSeparator none
    hide empty fields
    hide empty methods

    class "<size:14>KMeansPlusPlus.MedoidsInstance\n<size:10>elki.clustering.kmeans.initialization" as elki.clustering.kmeans.initialization.KMeansPlusPlus.MedoidsInstance [[KMeansPlusPlus.MedoidsInstance.html]] {
        ~distQ: DistanceQuery<?>
        +MedoidsInstance(DBIDs, DistanceQuery<?>, RandomFactory)
        +run(int): DBIDs
        #distance(DBIDRef, DBIDRef): double
        #chooseRemaining(int, ArrayModifiableDBIDs, double): void
    }

    abstract class "<size:14>KMeansPlusPlus.Instance\n<size:10>elki.clustering.kmeans.initialization" as elki.clustering.kmeans.initialization.KMeansPlusPlus.Instance<DBIDRef> [[KMeansPlusPlus.Instance.html]] {
        {abstract} #distance(DBIDRef, DBIDRef): double
    }
    class "<size:14>KMeansPlusPlus\n<size:10>elki.clustering.kmeans.initialization" as elki.clustering.kmeans.initialization.KMeansPlusPlus<O> [[KMeansPlusPlus.html]]

    elki.clustering.kmeans.initialization.KMeansPlusPlus.Instance <|- - elki.clustering.kmeans.initialization.KMeansPlusPlus.MedoidsInstance
    elki.clustering.kmeans.initialization.KMeansPlusPlus +- - elki.clustering.kmeans.initialization.KMeansPlusPlus.MedoidsInstance

    center footer UMLDoclet 2.0.19, PlantUML 1.2022.8
@enduml

PlantUML version 1.2022.8(Sun Sep 25 11:00:33 CEST 2022)
(APACHE source distribution)
Java Runtime: OpenJDK Runtime Environment
JVM: OpenJDK 64-Bit Server VM
Default Encoding: UTF-8
Language: de
Country: DE
--></g></svg>