<?xml version="1.0" encoding="UTF-8" standalone="no"?><svg xmlns="http://www.w3.org/2000/svg" xmlns:xlink="http://www.w3.org/1999/xlink" contentStyleType="text/css" height="330px" preserveAspectRatio="none" style="width:725px;height:330px;background:#FFFFFF;" version="1.1" viewBox="0 0 725 330" width="725px" zoomAndPan="magnify"><defs/><g><!--MD5=[b205e9db78cb3e347e776c33dcd91deb]
class elki.clustering.kmeans.initialization.Ostrovsky--><a href="Ostrovsky.html" target="_top" title="Ostrovsky.html" xlink:actuate="onRequest" xlink:href="Ostrovsky.html" xlink:show="new" xlink:title="Ostrovsky.html" xlink:type="simple"><g id="elem_elki.clustering.kmeans.initialization.Ostrovsky"><rect codeLine="6" fill="#F1F1F1" height="102.8281" id="elki.clustering.kmeans.initialization.Ostrovsky" rx="2.5" ry="2.5" style="stroke:#181818;stroke-width:0.5;" width="711" x="7" y="105"/><ellipse cx="276.75" cy="123.9688" fill="#ADD1B2" rx="11" ry="11" style="stroke:#181818;stroke-width:1.0;"/><path d="M279.7188,129.6094 Q279.1406,129.9063 278.5,130.0469 Q277.8594,130.2031 277.1563,130.2031 Q274.6563,130.2031 273.3281,128.5625 Q272.0156,126.9063 272.0156,123.7813 Q272.0156,120.6563 273.3281,119 Q274.6563,117.3438 277.1563,117.3438 Q277.8594,117.3438 278.5,117.5 Q279.1563,117.6563 279.7188,117.9531 L279.7188,120.6719 Q279.0938,120.0938 278.5,119.8281 Q277.9063,119.5469 277.2813,119.5469 Q275.9375,119.5469 275.25,120.625 Q274.5625,121.6875 274.5625,123.7813 Q274.5625,125.875 275.25,126.9531 Q275.9375,128.0156 277.2813,128.0156 Q277.9063,128.0156 278.5,127.75 Q279.0938,127.4688 279.7188,126.8906 L279.7188,129.6094 Z " fill="#000000"/><text fill="#000000" font-family="sans-serif" font-size="14" lengthAdjust="spacing" textLength="68" x="344.75" y="122.9951">Ostrovsky</text><text fill="#000000" font-family="sans-serif" font-size="10" lengthAdjust="spacing" textLength="163" x="297.25" y="135.5791">elki.clustering.kmeans.initialization</text><line style="stroke:#181818;stroke-width:0.5;" x1="8" x2="717" y1="142.9375" y2="142.9375"/><rect fill="none" height="6" style="stroke:#C82930;stroke-width:1.0;" width="6" x="15" y="153.5859"/><text fill="#000000" font-family="sans-serif" font-size="14" lengthAdjust="spacing" text-decoration="underline" textLength="93" x="27" y="159.9326">LOG: Logging</text><line style="stroke:#181818;stroke-width:0.5;" x1="8" x2="717" y1="167.2344" y2="167.2344"/><ellipse cx="18" cy="180.8828" fill="#84BE84" rx="3" ry="3" style="stroke:#038048;stroke-width:1.0;"/><text fill="#000000" font-family="sans-serif" font-size="14" lengthAdjust="spacing" textLength="186" x="27" y="184.2295">Ostrovsky(RandomFactory)</text><ellipse cx="18" cy="197.1797" fill="#84BE84" rx="3" ry="3" style="stroke:#038048;stroke-width:1.0;"/><text fill="#000000" font-family="sans-serif" font-size="14" lengthAdjust="spacing" textLength="685" x="27" y="200.5264">chooseInitialMeans(Relation&lt;? extends NumberVector&gt;, int, NumberVectorDistance&lt;?&gt;): double[]</text></g></a><!--MD5=[d9187bc9f70f8ce46a065cf1b13e2f5f]
class elki.clustering.kmeans.initialization.AbstractKMeansInitialization--><a href="AbstractKMeansInitialization.html" target="_top" title="AbstractKMeansInitialization.html" xlink:actuate="onRequest" xlink:href="AbstractKMeansInitialization.html" xlink:show="new" xlink:title="AbstractKMeansInitialization.html" xlink:type="simple"><g id="elem_elki.clustering.kmeans.initialization.AbstractKMeansInitialization"><rect codeLine="12" fill="#F1F1F1" height="37.9375" id="elki.clustering.kmeans.initialization.AbstractKMeansInitialization" rx="2.5" ry="2.5" style="stroke:#181818;stroke-width:0.5;" width="231" x="247" y="7"/><ellipse cx="262" cy="25.9688" fill="#A9DCDF" rx="11" ry="11" style="stroke:#181818;stroke-width:1.0;"/><path d="M262.1094,21.3125 L260.9531,26.3906 L263.2813,26.3906 L262.1094,21.3125 Z M260.625,19.0781 L263.6094,19.0781 L266.9688,31.4688 L264.5156,31.4688 L263.75,28.4063 L260.4688,28.4063 L259.7188,31.4688 L257.2813,31.4688 L260.625,19.0781 Z " fill="#000000"/><text fill="#000000" font-family="sans-serif" font-size="14" font-style="italic" lengthAdjust="spacing" textLength="199" x="276" y="24.9951">AbstractKMeansInitialization</text><text fill="#000000" font-family="sans-serif" font-size="10" font-style="italic" lengthAdjust="spacing" textLength="176" x="287.5" y="37.5791">elki.clustering.kmeans.initialization</text></g></a><!--MD5=[dd1f6ea8a67d6488a6503a8a11c56405]
class elki.clustering.kmeans.initialization.Ostrovsky.NumberVectorInstance--><a href="Ostrovsky.NumberVectorInstance.html" target="_top" title="Ostrovsky.NumberVectorInstance.html" xlink:actuate="onRequest" xlink:href="Ostrovsky.NumberVectorInstance.html" xlink:show="new" xlink:title="Ostrovsky.NumberVectorInstance.html" xlink:type="simple"><g id="elem_elki.clustering.kmeans.initialization.Ostrovsky.NumberVectorInstance"><rect codeLine="13" fill="#F1F1F1" height="37.9375" id="elki.clustering.kmeans.initialization.Ostrovsky.NumberVectorInstance" rx="2.5" ry="2.5" style="stroke:#181818;stroke-width:0.5;" width="263" x="231" y="268"/><ellipse cx="246" cy="286.9688" fill="#ADD1B2" rx="11" ry="11" style="stroke:#181818;stroke-width:1.0;"/><path d="M248.9688,292.6094 Q248.3906,292.9063 247.75,293.0469 Q247.1094,293.2031 246.4063,293.2031 Q243.9063,293.2031 242.5781,291.5625 Q241.2656,289.9063 241.2656,286.7813 Q241.2656,283.6563 242.5781,282 Q243.9063,280.3438 246.4063,280.3438 Q247.1094,280.3438 247.75,280.5 Q248.4063,280.6563 248.9688,280.9531 L248.9688,283.6719 Q248.3438,283.0938 247.75,282.8281 Q247.1563,282.5469 246.5313,282.5469 Q245.1875,282.5469 244.5,283.625 Q243.8125,284.6875 243.8125,286.7813 Q243.8125,288.875 244.5,289.9531 Q245.1875,291.0156 246.5313,291.0156 Q247.1563,291.0156 247.75,290.75 Q248.3438,290.4688 248.9688,289.8906 L248.9688,292.6094 Z " fill="#000000"/><text fill="#000000" font-family="sans-serif" font-size="14" lengthAdjust="spacing" textLength="231" x="260" y="285.9951">Ostrovsky.NumberVectorInstance</text><text fill="#000000" font-family="sans-serif" font-size="10" lengthAdjust="spacing" textLength="163" x="294" y="298.5791">elki.clustering.kmeans.initialization</text></g></a><!--MD5=[b24020df3a7add287ac091ce411ecd4d]
reverse link elki.clustering.kmeans.initialization.AbstractKMeansInitialization to elki.clustering.kmeans.initialization.Ostrovsky--><g id="link_elki.clustering.kmeans.initialization.AbstractKMeansInitialization_elki.clustering.kmeans.initialization.Ostrovsky"><path codeLine="16" d="M362.5,65.26 C362.5,77.65 362.5,91.59 362.5,104.74 " fill="none" id="elki.clustering.kmeans.initialization.AbstractKMeansInitialization-backto-elki.clustering.kmeans.initialization.Ostrovsky" style="stroke:#181818;stroke-width:1.0;"/><polygon fill="none" points="355.5,65.14,362.5,45.14,369.5,65.14,355.5,65.14" style="stroke:#181818;stroke-width:1.0;"/></g><!--MD5=[ab4d8b551c07f814c5d35fd920427c9e]
reverse link elki.clustering.kmeans.initialization.Ostrovsky to elki.clustering.kmeans.initialization.Ostrovsky.NumberVectorInstance--><g id="link_elki.clustering.kmeans.initialization.Ostrovsky_elki.clustering.kmeans.initialization.Ostrovsky.NumberVectorInstance"><path codeLine="17" d="M362.5,223.29 C362.5,239.73 362.5,256.03 362.5,267.89 " fill="none" id="elki.clustering.kmeans.initialization.Ostrovsky-backto-elki.clustering.kmeans.initialization.Ostrovsky.NumberVectorInstance" style="stroke:#181818;stroke-width:1.0;"/><ellipse cx="362.5" cy="216.29" fill="#FFFFFF" rx="8" ry="8" style="stroke:#181818;stroke-width:1.0;"/><line style="stroke:#181818;stroke-width:1.0;" x1="362.5" x2="362.5" y1="224.29" y2="208.29"/><line style="stroke:#181818;stroke-width:1.0;" x1="354.5" x2="370.5" y1="216.29" y2="216.29"/></g><rect fill="none" height="11.6406" style="stroke:none;stroke-width:1.0;" width="186" x="262.5" y="310.9375"/><text fill="#888888" font-family="sans-serif" font-size="10" lengthAdjust="spacing" textLength="186" x="262.5" y="320.2197">UMLDoclet 2.0.19, PlantUML 1.2022.8</text><!--MD5=[90928f12d37e65052c7ec24b559bec6e]
@startuml
    remove .*\.(Instance|Par|Parameterizer|Factory)$
    set namespaceSeparator none
    hide empty fields
    hide empty methods

    class "<size:14>Ostrovsky\n<size:10>elki.clustering.kmeans.initialization" as elki.clustering.kmeans.initialization.Ostrovsky [[Ostrovsky.html]] {
        {static} -LOG: Logging
        +Ostrovsky(RandomFactory)
        +chooseInitialMeans(Relation<? extends NumberVector>, int, NumberVectorDistance<?>): double[]
    }

    abstract class "<size:14>AbstractKMeansInitialization\n<size:10>elki.clustering.kmeans.initialization" as elki.clustering.kmeans.initialization.AbstractKMeansInitialization [[AbstractKMeansInitialization.html]]
    class "<size:14>Ostrovsky.NumberVectorInstance\n<size:10>elki.clustering.kmeans.initialization" as elki.clustering.kmeans.initialization.Ostrovsky.NumberVectorInstance [[Ostrovsky.NumberVectorInstance.html]]
    class "<size:14>Ostrovsky.Par\n<size:10>elki.clustering.kmeans.initialization" as elki.clustering.kmeans.initialization.Ostrovsky.Par [[Ostrovsky.Par.html]]

    elki.clustering.kmeans.initialization.AbstractKMeansInitialization <|- - elki.clustering.kmeans.initialization.Ostrovsky
    elki.clustering.kmeans.initialization.Ostrovsky +- - elki.clustering.kmeans.initialization.Ostrovsky.NumberVectorInstance
    elki.clustering.kmeans.initialization.Ostrovsky +- - elki.clustering.kmeans.initialization.Ostrovsky.Par

    center footer UMLDoclet 2.0.19, PlantUML 1.2022.8
@enduml

PlantUML version 1.2022.8(Sun Sep 25 11:00:33 CEST 2022)
(APACHE source distribution)
Java Runtime: OpenJDK Runtime Environment
JVM: OpenJDK 64-Bit Server VM
Default Encoding: UTF-8
Language: de
Country: DE
--></g></svg>