<?xml version="1.0" encoding="UTF-8" standalone="no"?>
<!DOCTYPE svg PUBLIC "-//W3C//DTD SVG 1.1//EN"
 "http://www.w3.org/Graphics/SVG/1.1/DTD/svg11.dtd">
<!-- Generated by graphviz version 2.40.1 (20161225.0304)
 -->
<!-- Title: G Pages: 1 -->
<svg width="352pt" height="725pt"
 viewBox="0.00 0.00 352.00 725.00" xmlns="http://www.w3.org/2000/svg" xmlns:xlink="http://www.w3.org/1999/xlink">
<g id="graph0" class="graph" transform="scale(1 1) rotate(0) translate(4 721)">
<title>G</title>
<polygon fill="#ffffff" stroke="transparent" points="-4,4 -4,-721 348,-721 348,4 -4,4"/>
<!-- c1004905 -->
<g id="node1" class="node">
<title>c1004905</title>
<g id="a_node1"><a xlink:href="LogGammaDistribution.html" xlink:title="&lt;TABLE&gt;">
<g id="a_node1_0"><a xlink:href="LogGammaDistribution.html" xlink:title="de.lmu.ifi.dbs.elki.math.statistics.distribution.LogGammaDistribution" target="_parent">
<polygon fill="none" stroke="#000000" points="212.5,-699.5 212.5,-716.5 309.5,-716.5 309.5,-699.5 212.5,-699.5"/>
<text text-anchor="start" x="216.5" y="-707.1" font-family="Roboto" font-size="8.00" fill="#000000"> </text>
<text text-anchor="start" x="219.5" y="-707.1" font-family="Roboto" font-size="8.00" fill="#000000">LogGammaDistribution</text>
<text text-anchor="start" x="302.5" y="-707.1" font-family="Roboto" font-size="8.00" fill="#000000"> </text>
</a>
</g>
</a>
</g>
</g>
<!-- c1004907 -->
<g id="node2" class="node">
<title>c1004907</title>
<g id="a_node2"><a xlink:href="Distribution.html" xlink:title="&lt;TABLE&gt;">
<g id="a_node2_1"><a xlink:href="Distribution.html" xlink:title="de.lmu.ifi.dbs.elki.math.statistics.distribution.Distribution" target="_parent">
<polygon fill="none" stroke="#000000" points="0,-344.5 0,-372.5 56,-372.5 56,-344.5 0,-344.5"/>
<text text-anchor="start" x="6.5" y="-362.1" font-family="Roboto" font-size="8.00" fill="#000000"> «interface» </text>
<text text-anchor="start" x="4" y="-352.1" font-family="Roboto" font-size="8.00" fill="#000000"> </text>
<text text-anchor="start" x="7" y="-352.1" font-family="Roboto" font-size="8.00" fill="#000000">Distribution</text>
<text text-anchor="start" x="49" y="-352.1" font-family="Roboto" font-size="8.00" fill="#000000"> </text>
</a>
</g>
</a>
</g>
</g>
<!-- c1005057 -->
<g id="node24" class="node">
<title>c1005057</title>
<g id="a_node24"><a xlink:href="AbstractDistribution.html" xlink:title="&lt;TABLE&gt;">
<g id="a_node24_2"><a xlink:href="AbstractDistribution.html" xlink:title="de.lmu.ifi.dbs.elki.math.statistics.distribution.AbstractDistribution" target="_parent">
<polygon fill="#fffacd" stroke="transparent" points="74,-350 74,-367 159,-367 159,-350 74,-350"/>
<polygon fill="none" stroke="#000000" points="74.5,-349.5 74.5,-366.5 159.5,-366.5 159.5,-349.5 74.5,-349.5"/>
<text text-anchor="start" x="78.5" y="-357.1" font-family="Roboto" font-size="8.00" fill="#000000"> </text>
<text text-anchor="start" x="81.5" y="-357.1" font-family="Roboto" font-style="italic" font-size="8.00" fill="#000000">AbstractDistribution</text>
<text text-anchor="start" x="152.5" y="-357.1" font-family="Roboto" font-size="8.00" fill="#000000"> </text>
</a>
</g>
</a>
</g>
</g>
<!-- c1004907&#45;&gt;c1005057 -->
<g id="edge23" class="edge">
<title>c1004907&#45;&gt;c1005057</title>
<path fill="none" stroke="#000000" stroke-dasharray="5,2" d="M66.1661,-358.5C68.6968,-358.5 71.2545,-358.5 73.8054,-358.5"/>
<polygon fill="none" stroke="#000000" points="66.002,-355.0001 56.002,-358.5 66.0019,-362.0001 66.002,-355.0001"/>
</g>
<!-- c1004910 -->
<g id="node3" class="node">
<title>c1004910</title>
<g id="a_node3"><a xlink:href="LaplaceDistribution.html" xlink:title="&lt;TABLE&gt;">
<g id="a_node3_3"><a xlink:href="LaplaceDistribution.html" xlink:title="de.lmu.ifi.dbs.elki.math.statistics.distribution.LaplaceDistribution" target="_parent">
<polygon fill="none" stroke="#000000" points="218.5,-671.5 218.5,-688.5 302.5,-688.5 302.5,-671.5 218.5,-671.5"/>
<text text-anchor="start" x="222.5" y="-679.1" font-family="Roboto" font-size="8.00" fill="#000000"> </text>
<text text-anchor="start" x="225.5" y="-679.1" font-family="Roboto" font-size="8.00" fill="#000000">LaplaceDistribution</text>
<text text-anchor="start" x="295.5" y="-679.1" font-family="Roboto" font-size="8.00" fill="#000000"> </text>
</a>
</g>
</a>
</g>
</g>
<!-- c1004912 -->
<g id="node4" class="node">
<title>c1004912</title>
<g id="a_node4"><a xlink:href="InverseGaussianDistribution.html" xlink:title="&lt;TABLE&gt;">
<g id="a_node4_4"><a xlink:href="InverseGaussianDistribution.html" xlink:title="de.lmu.ifi.dbs.elki.math.statistics.distribution.InverseGaussianDistribution" target="_parent">
<polygon fill="none" stroke="#000000" points="203.5,-643.5 203.5,-660.5 317.5,-660.5 317.5,-643.5 203.5,-643.5"/>
<text text-anchor="start" x="207.5" y="-651.1" font-family="Roboto" font-size="8.00" fill="#000000"> </text>
<text text-anchor="start" x="210.5" y="-651.1" font-family="Roboto" font-size="8.00" fill="#000000">InverseGaussianDistribution</text>
<text text-anchor="start" x="310.5" y="-651.1" font-family="Roboto" font-size="8.00" fill="#000000"> </text>
</a>
</g>
</a>
</g>
</g>
<!-- c1005015 -->
<g id="node5" class="node">
<title>c1005015</title>
<g id="a_node5"><a xlink:href="BetaDistribution.html" xlink:title="&lt;TABLE&gt;">
<g id="a_node5_5"><a xlink:href="BetaDistribution.html" xlink:title="de.lmu.ifi.dbs.elki.math.statistics.distribution.BetaDistribution" target="_parent">
<polygon fill="none" stroke="#000000" points="224.5,-615.5 224.5,-632.5 296.5,-632.5 296.5,-615.5 224.5,-615.5"/>
<text text-anchor="start" x="228.5" y="-623.1" font-family="Roboto" font-size="8.00" fill="#000000"> </text>
<text text-anchor="start" x="231.5" y="-623.1" font-family="Roboto" font-size="8.00" fill="#000000">BetaDistribution</text>
<text text-anchor="start" x="289.5" y="-623.1" font-family="Roboto" font-size="8.00" fill="#000000"> </text>
</a>
</g>
</a>
</g>
</g>
<!-- c1005017 -->
<g id="node6" class="node">
<title>c1005017</title>
<g id="a_node6"><a xlink:href="ExponentialDistribution.html" xlink:title="&lt;TABLE&gt;">
<g id="a_node6_6"><a xlink:href="ExponentialDistribution.html" xlink:title="de.lmu.ifi.dbs.elki.math.statistics.distribution.ExponentialDistribution" target="_parent">
<polygon fill="none" stroke="#000000" points="212.5,-587.5 212.5,-604.5 308.5,-604.5 308.5,-587.5 212.5,-587.5"/>
<text text-anchor="start" x="216.5" y="-595.1" font-family="Roboto" font-size="8.00" fill="#000000"> </text>
<text text-anchor="start" x="219.5" y="-595.1" font-family="Roboto" font-size="8.00" fill="#000000">ExponentialDistribution</text>
<text text-anchor="start" x="301.5" y="-595.1" font-family="Roboto" font-size="8.00" fill="#000000"> </text>
</a>
</g>
</a>
</g>
</g>
<!-- c1005019 -->
<g id="node7" class="node">
<title>c1005019</title>
<g id="a_node7"><a xlink:href="ExpGammaDistribution.html" xlink:title="&lt;TABLE&gt;">
<g id="a_node7_7"><a xlink:href="ExpGammaDistribution.html" xlink:title="de.lmu.ifi.dbs.elki.math.statistics.distribution.ExpGammaDistribution" target="_parent">
<polygon fill="none" stroke="#000000" points="212.5,-559.5 212.5,-576.5 309.5,-576.5 309.5,-559.5 212.5,-559.5"/>
<text text-anchor="start" x="216.5" y="-567.1" font-family="Roboto" font-size="8.00" fill="#000000"> </text>
<text text-anchor="start" x="219.5" y="-567.1" font-family="Roboto" font-size="8.00" fill="#000000">ExpGammaDistribution</text>
<text text-anchor="start" x="302.5" y="-567.1" font-family="Roboto" font-size="8.00" fill="#000000"> </text>
</a>
</g>
</a>
</g>
</g>
<!-- c1005021 -->
<g id="node8" class="node">
<title>c1005021</title>
<g id="a_node8"><a xlink:href="PoissonDistribution.html" xlink:title="&lt;TABLE&gt;">
<g id="a_node8_8"><a xlink:href="PoissonDistribution.html" xlink:title="de.lmu.ifi.dbs.elki.math.statistics.distribution.PoissonDistribution" target="_parent">
<polygon fill="none" stroke="#000000" points="219.5,-531.5 219.5,-548.5 301.5,-548.5 301.5,-531.5 219.5,-531.5"/>
<text text-anchor="start" x="223.5" y="-539.1" font-family="Roboto" font-size="8.00" fill="#000000"> </text>
<text text-anchor="start" x="226.5" y="-539.1" font-family="Roboto" font-size="8.00" fill="#000000">PoissonDistribution</text>
<text text-anchor="start" x="294.5" y="-539.1" font-family="Roboto" font-size="8.00" fill="#000000"> </text>
</a>
</g>
</a>
</g>
</g>
<!-- c1005023 -->
<g id="node9" class="node">
<title>c1005023</title>
<g id="a_node9"><a xlink:href="GammaDistribution.html" xlink:title="&lt;TABLE&gt;">
<g id="a_node9_9"><a xlink:href="GammaDistribution.html" xlink:title="de.lmu.ifi.dbs.elki.math.statistics.distribution.GammaDistribution" target="_parent">
<polygon fill="none" stroke="#000000" points="218.5,-503.5 218.5,-520.5 302.5,-520.5 302.5,-503.5 218.5,-503.5"/>
<text text-anchor="start" x="222.5" y="-511.1" font-family="Roboto" font-size="8.00" fill="#000000"> </text>
<text text-anchor="start" x="225.5" y="-511.1" font-family="Roboto" font-size="8.00" fill="#000000">GammaDistribution</text>
<text text-anchor="start" x="295.5" y="-511.1" font-family="Roboto" font-size="8.00" fill="#000000"> </text>
</a>
</g>
</a>
</g>
</g>
<!-- c1005025 -->
<g id="node10" class="node">
<title>c1005025</title>
<g id="a_node10"><a xlink:href="StudentsTDistribution.html" xlink:title="&lt;TABLE&gt;">
<g id="a_node10_10"><a xlink:href="StudentsTDistribution.html" xlink:title="de.lmu.ifi.dbs.elki.math.statistics.distribution.StudentsTDistribution" target="_parent">
<polygon fill="none" stroke="#000000" points="215.5,-475.5 215.5,-492.5 306.5,-492.5 306.5,-475.5 215.5,-475.5"/>
<text text-anchor="start" x="219.5" y="-483.1" font-family="Roboto" font-size="8.00" fill="#000000"> </text>
<text text-anchor="start" x="222.5" y="-483.1" font-family="Roboto" font-size="8.00" fill="#000000">StudentsTDistribution</text>
<text text-anchor="start" x="299.5" y="-483.1" font-family="Roboto" font-size="8.00" fill="#000000"> </text>
</a>
</g>
</a>
</g>
</g>
<!-- c1005027 -->
<g id="node11" class="node">
<title>c1005027</title>
<g id="a_node11"><a xlink:href="LogNormalDistribution.html" xlink:title="&lt;TABLE&gt;">
<g id="a_node11_11"><a xlink:href="LogNormalDistribution.html" xlink:title="de.lmu.ifi.dbs.elki.math.statistics.distribution.LogNormalDistribution" target="_parent">
<polygon fill="none" stroke="#000000" points="213.5,-447.5 213.5,-464.5 308.5,-464.5 308.5,-447.5 213.5,-447.5"/>
<text text-anchor="start" x="217.5" y="-455.1" font-family="Roboto" font-size="8.00" fill="#000000"> </text>
<text text-anchor="start" x="220.5" y="-455.1" font-family="Roboto" font-size="8.00" fill="#000000">LogNormalDistribution</text>
<text text-anchor="start" x="301.5" y="-455.1" font-family="Roboto" font-size="8.00" fill="#000000"> </text>
</a>
</g>
</a>
</g>
</g>
<!-- c1005031 -->
<g id="node12" class="node">
<title>c1005031</title>
<g id="a_node12"><a xlink:href="GeneralizedLogisticAlternateDistribution.html" xlink:title="&lt;TABLE&gt;">
<g id="a_node12_12"><a xlink:href="GeneralizedLogisticAlternateDistribution.html" xlink:title="de.lmu.ifi.dbs.elki.math.statistics.distribution.GeneralizedLogisticAlternateDistribution" target="_parent">
<polygon fill="none" stroke="#000000" points="182.5,-419.5 182.5,-436.5 339.5,-436.5 339.5,-419.5 182.5,-419.5"/>
<text text-anchor="start" x="186.5" y="-427.1" font-family="Roboto" font-size="8.00" fill="#000000"> </text>
<text text-anchor="start" x="189.5" y="-427.1" font-family="Roboto" font-size="8.00" fill="#000000">GeneralizedLogisticAlternateDistribution</text>
<text text-anchor="start" x="332.5" y="-427.1" font-family="Roboto" font-size="8.00" fill="#000000"> </text>
</a>
</g>
</a>
</g>
</g>
<!-- c1005033 -->
<g id="node13" class="node">
<title>c1005033</title>
<g id="a_node13"><a xlink:href="GeneralizedParetoDistribution.html" xlink:title="&lt;TABLE&gt;">
<g id="a_node13_13"><a xlink:href="GeneralizedParetoDistribution.html" xlink:title="de.lmu.ifi.dbs.elki.math.statistics.distribution.GeneralizedParetoDistribution" target="_parent">
<polygon fill="none" stroke="#000000" points="200.5,-391.5 200.5,-408.5 320.5,-408.5 320.5,-391.5 200.5,-391.5"/>
<text text-anchor="start" x="204.5" y="-399.1" font-family="Roboto" font-size="8.00" fill="#000000"> </text>
<text text-anchor="start" x="207.5" y="-399.1" font-family="Roboto" font-size="8.00" fill="#000000">GeneralizedParetoDistribution</text>
<text text-anchor="start" x="313.5" y="-399.1" font-family="Roboto" font-size="8.00" fill="#000000"> </text>
</a>
</g>
</a>
</g>
</g>
<!-- c1005035 -->
<g id="node14" class="node">
<title>c1005035</title>
<g id="a_node14"><a xlink:href="UniformDistribution.html" xlink:title="&lt;TABLE&gt;">
<g id="a_node14_14"><a xlink:href="UniformDistribution.html" xlink:title="de.lmu.ifi.dbs.elki.math.statistics.distribution.UniformDistribution" target="_parent">
<polygon fill="none" stroke="#000000" points="218.5,-363.5 218.5,-380.5 303.5,-380.5 303.5,-363.5 218.5,-363.5"/>
<text text-anchor="start" x="222.5" y="-371.1" font-family="Roboto" font-size="8.00" fill="#000000"> </text>
<text text-anchor="start" x="225.5" y="-371.1" font-family="Roboto" font-size="8.00" fill="#000000">UniformDistribution</text>
<text text-anchor="start" x="296.5" y="-371.1" font-family="Roboto" font-size="8.00" fill="#000000"> </text>
</a>
</g>
</a>
</g>
</g>
<!-- c1005037 -->
<g id="node15" class="node">
<title>c1005037</title>
<g id="a_node15"><a xlink:href="ExponentiallyModifiedGaussianDistribution.html" xlink:title="&lt;TABLE&gt;">
<g id="a_node15_15"><a xlink:href="ExponentiallyModifiedGaussianDistribution.html" xlink:title="de.lmu.ifi.dbs.elki.math.statistics.distribution.ExponentiallyModifiedGaussianDistribution" target="_parent">
<polygon fill="none" stroke="#000000" points="177.5,-335.5 177.5,-352.5 344.5,-352.5 344.5,-335.5 177.5,-335.5"/>
<text text-anchor="start" x="181.5" y="-343.1" font-family="Roboto" font-size="8.00" fill="#000000"> </text>
<text text-anchor="start" x="184.5" y="-343.1" font-family="Roboto" font-size="8.00" fill="#000000">ExponentiallyModifiedGaussianDistribution</text>
<text text-anchor="start" x="337.5" y="-343.1" font-family="Roboto" font-size="8.00" fill="#000000"> </text>
</a>
</g>
</a>
</g>
</g>
<!-- c1005039 -->
<g id="node16" class="node">
<title>c1005039</title>
<g id="a_node16"><a xlink:href="LogisticDistribution.html" xlink:title="&lt;TABLE&gt;">
<g id="a_node16_16"><a xlink:href="LogisticDistribution.html" xlink:title="de.lmu.ifi.dbs.elki.math.statistics.distribution.LogisticDistribution" target="_parent">
<polygon fill="none" stroke="#000000" points="219.5,-307.5 219.5,-324.5 302.5,-324.5 302.5,-307.5 219.5,-307.5"/>
<text text-anchor="start" x="223.5" y="-315.1" font-family="Roboto" font-size="8.00" fill="#000000"> </text>
<text text-anchor="start" x="226.5" y="-315.1" font-family="Roboto" font-size="8.00" fill="#000000">LogisticDistribution</text>
<text text-anchor="start" x="295.5" y="-315.1" font-family="Roboto" font-size="8.00" fill="#000000"> </text>
</a>
</g>
</a>
</g>
</g>
<!-- c1005041 -->
<g id="node17" class="node">
<title>c1005041</title>
<g id="a_node17"><a xlink:href="RayleighDistribution.html" xlink:title="&lt;TABLE&gt;">
<g id="a_node17_17"><a xlink:href="RayleighDistribution.html" xlink:title="de.lmu.ifi.dbs.elki.math.statistics.distribution.RayleighDistribution" target="_parent">
<polygon fill="none" stroke="#000000" points="217.5,-279.5 217.5,-296.5 304.5,-296.5 304.5,-279.5 217.5,-279.5"/>
<text text-anchor="start" x="221.5" y="-287.1" font-family="Roboto" font-size="8.00" fill="#000000"> </text>
<text text-anchor="start" x="224.5" y="-287.1" font-family="Roboto" font-size="8.00" fill="#000000">RayleighDistribution</text>
<text text-anchor="start" x="297.5" y="-287.1" font-family="Roboto" font-size="8.00" fill="#000000"> </text>
</a>
</g>
</a>
</g>
</g>
<!-- c1005043 -->
<g id="node18" class="node">
<title>c1005043</title>
<g id="a_node18"><a xlink:href="ChiDistribution.html" xlink:title="&lt;TABLE&gt;">
<g id="a_node18_18"><a xlink:href="ChiDistribution.html" xlink:title="de.lmu.ifi.dbs.elki.math.statistics.distribution.ChiDistribution" target="_parent">
<polygon fill="none" stroke="#000000" points="226.5,-251.5 226.5,-268.5 294.5,-268.5 294.5,-251.5 226.5,-251.5"/>
<text text-anchor="start" x="230.5" y="-259.1" font-family="Roboto" font-size="8.00" fill="#000000"> </text>
<text text-anchor="start" x="233.5" y="-259.1" font-family="Roboto" font-size="8.00" fill="#000000">ChiDistribution</text>
<text text-anchor="start" x="287.5" y="-259.1" font-family="Roboto" font-size="8.00" fill="#000000"> </text>
</a>
</g>
</a>
</g>
</g>
<!-- c1005045 -->
<g id="node19" class="node">
<title>c1005045</title>
<g id="a_node19"><a xlink:href="GeneralizedLogisticDistribution.html" xlink:title="&lt;TABLE&gt;">
<g id="a_node19_19"><a xlink:href="GeneralizedLogisticDistribution.html" xlink:title="de.lmu.ifi.dbs.elki.math.statistics.distribution.GeneralizedLogisticDistribution" target="_parent">
<polygon fill="none" stroke="#000000" points="197.5,-223.5 197.5,-240.5 323.5,-240.5 323.5,-223.5 197.5,-223.5"/>
<text text-anchor="start" x="201.5" y="-231.1" font-family="Roboto" font-size="8.00" fill="#000000"> </text>
<text text-anchor="start" x="204.5" y="-231.1" font-family="Roboto" font-size="8.00" fill="#000000">GeneralizedLogisticDistribution</text>
<text text-anchor="start" x="316.5" y="-231.1" font-family="Roboto" font-size="8.00" fill="#000000"> </text>
</a>
</g>
</a>
</g>
</g>
<!-- c1005047 -->
<g id="node20" class="node">
<title>c1005047</title>
<g id="a_node20"><a xlink:href="KappaDistribution.html" xlink:title="&lt;TABLE&gt;">
<g id="a_node20_20"><a xlink:href="KappaDistribution.html" xlink:title="de.lmu.ifi.dbs.elki.math.statistics.distribution.KappaDistribution" target="_parent">
<polygon fill="none" stroke="#000000" points="221.5,-195.5 221.5,-212.5 300.5,-212.5 300.5,-195.5 221.5,-195.5"/>
<text text-anchor="start" x="225.5" y="-203.1" font-family="Roboto" font-size="8.00" fill="#000000"> </text>
<text text-anchor="start" x="228.5" y="-203.1" font-family="Roboto" font-size="8.00" fill="#000000">KappaDistribution</text>
<text text-anchor="start" x="293.5" y="-203.1" font-family="Roboto" font-size="8.00" fill="#000000"> </text>
</a>
</g>
</a>
</g>
</g>
<!-- c1005049 -->
<g id="node21" class="node">
<title>c1005049</title>
<g id="a_node21"><a xlink:href="LogLogisticDistribution.html" xlink:title="&lt;TABLE&gt;">
<g id="a_node21_21"><a xlink:href="LogLogisticDistribution.html" xlink:title="de.lmu.ifi.dbs.elki.math.statistics.distribution.LogLogisticDistribution" target="_parent">
<polygon fill="none" stroke="#000000" points="212.5,-167.5 212.5,-184.5 308.5,-184.5 308.5,-167.5 212.5,-167.5"/>
<text text-anchor="start" x="216.5" y="-175.1" font-family="Roboto" font-size="8.00" fill="#000000"> </text>
<text text-anchor="start" x="219.5" y="-175.1" font-family="Roboto" font-size="8.00" fill="#000000">LogLogisticDistribution</text>
<text text-anchor="start" x="301.5" y="-175.1" font-family="Roboto" font-size="8.00" fill="#000000"> </text>
</a>
</g>
</a>
</g>
</g>
<!-- c1005051 -->
<g id="node22" class="node">
<title>c1005051</title>
<g id="a_node22"><a xlink:href="CauchyDistribution.html" xlink:title="&lt;TABLE&gt;">
<g id="a_node22_22"><a xlink:href="CauchyDistribution.html" xlink:title="de.lmu.ifi.dbs.elki.math.statistics.distribution.CauchyDistribution" target="_parent">
<polygon fill="none" stroke="#000000" points="219.5,-139.5 219.5,-156.5 301.5,-156.5 301.5,-139.5 219.5,-139.5"/>
<text text-anchor="start" x="223.5" y="-147.1" font-family="Roboto" font-size="8.00" fill="#000000"> </text>
<text text-anchor="start" x="226.5" y="-147.1" font-family="Roboto" font-size="8.00" fill="#000000">CauchyDistribution</text>
<text text-anchor="start" x="294.5" y="-147.1" font-family="Roboto" font-size="8.00" fill="#000000"> </text>
</a>
</g>
</a>
</g>
</g>
<!-- c1005055 -->
<g id="node23" class="node">
<title>c1005055</title>
<g id="a_node23"><a xlink:href="SkewGeneralizedNormalDistribution.html" xlink:title="&lt;TABLE&gt;">
<g id="a_node23_23"><a xlink:href="SkewGeneralizedNormalDistribution.html" xlink:title="de.lmu.ifi.dbs.elki.math.statistics.distribution.SkewGeneralizedNormalDistribution" target="_parent">
<polygon fill="none" stroke="#000000" points="188.5,-111.5 188.5,-128.5 332.5,-128.5 332.5,-111.5 188.5,-111.5"/>
<text text-anchor="start" x="192.5" y="-119.1" font-family="Roboto" font-size="8.00" fill="#000000"> </text>
<text text-anchor="start" x="195.5" y="-119.1" font-family="Roboto" font-size="8.00" fill="#000000">SkewGeneralizedNormalDistribution</text>
<text text-anchor="start" x="325.5" y="-119.1" font-family="Roboto" font-size="8.00" fill="#000000"> </text>
</a>
</g>
</a>
</g>
</g>
<!-- c1005057&#45;&gt;c1004905 -->
<g id="edge1" class="edge">
<title>c1005057&#45;&gt;c1004905</title>
<path fill="none" stroke="#000000" d="M117.1326,-377.2038C119.6936,-441.1355 131.4533,-649.498 177,-694.5 186.2013,-703.5912 198.9434,-708.0866 211.7047,-710.0714"/>
<polygon fill="none" stroke="#000000" points="120.6232,-376.8827 116.7553,-367.0191 113.628,-377.1418 120.6232,-376.8827"/>
</g>
<!-- c1005057&#45;&gt;c1004910 -->
<g id="edge2" class="edge">
<title>c1005057&#45;&gt;c1004910</title>
<path fill="none" stroke="#000000" d="M117.466,-377.2024C120.9815,-437.59 135.1615,-625.8104 177,-666.5 187.8535,-677.0554 203.4903,-681.3834 218.3044,-682.7863"/>
<polygon fill="none" stroke="#000000" points="120.9595,-376.9856 116.9146,-367.1933 113.9701,-377.3707 120.9595,-376.9856"/>
</g>
<!-- c1005057&#45;&gt;c1004912 -->
<g id="edge3" class="edge">
<title>c1005057&#45;&gt;c1004912</title>
<path fill="none" stroke="#000000" d="M117.8739,-377.3248C122.4156,-434.1237 138.8815,-602.1206 177,-638.5 184.2307,-645.4008 193.5116,-649.6234 203.2433,-652.1036"/>
<polygon fill="none" stroke="#000000" points="121.3557,-376.9517 117.1018,-367.2483 114.3761,-377.4865 121.3557,-376.9517"/>
</g>
<!-- c1005057&#45;&gt;c1005015 -->
<g id="edge4" class="edge">
<title>c1005057&#45;&gt;c1005015</title>
<path fill="none" stroke="#000000" d="M118.3423,-377.1505C123.9412,-429.885 142.5165,-578.3335 177,-610.5 189.4683,-622.1305 207.7816,-626.0954 224.0828,-626.9536"/>
<polygon fill="none" stroke="#000000" points="121.821,-376.7624 117.3183,-367.1719 114.8576,-377.477 121.821,-376.7624"/>
</g>
<!-- c1005057&#45;&gt;c1005017 -->
<g id="edge5" class="edge">
<title>c1005057&#45;&gt;c1005017</title>
<path fill="none" stroke="#000000" d="M118.9603,-377.2881C125.7297,-426.0089 146.1973,-554.568 177,-582.5 186.582,-591.189 199.4431,-595.5586 212.1967,-597.5517"/>
<polygon fill="none" stroke="#000000" points="122.4053,-376.6443 117.5981,-367.2028 115.4683,-377.5814 122.4053,-376.6443"/>
</g>
<!-- c1005057&#45;&gt;c1005019 -->
<g id="edge6" class="edge">
<title>c1005057&#45;&gt;c1005019</title>
<path fill="none" stroke="#000000" d="M119.672,-376.9664C127.6274,-421.0742 149.755,-530.664 177,-554.5 186.6246,-562.9203 199.3511,-567.2343 211.9598,-569.2606"/>
<polygon fill="none" stroke="#000000" points="123.1046,-376.2772 117.9226,-367.0361 116.2107,-377.4918 123.1046,-376.2772"/>
</g>
<!-- c1005057&#45;&gt;c1005021 -->
<g id="edge7" class="edge">
<title>c1005057&#45;&gt;c1005021</title>
<path fill="none" stroke="#000000" d="M120.6631,-376.9324C129.9355,-416.3267 153.3406,-506.7482 177,-526.5 188.6221,-536.2026 204.4091,-540.364 219.1281,-541.8724"/>
<polygon fill="none" stroke="#000000" points="124.0474,-376.0318 118.3888,-367.0746 117.2265,-377.6055 124.0474,-376.0318"/>
</g>
<!-- c1005057&#45;&gt;c1005023 -->
<g id="edge8" class="edge">
<title>c1005057&#45;&gt;c1005023</title>
<path fill="none" stroke="#000000" d="M118.8835,-377.2619C123.8276,-407.8497 138.1861,-468.0952 177,-498.5 188.5713,-507.5644 203.8436,-511.6834 218.1599,-513.3376"/>
<polygon fill="none" stroke="#000000" points="122.3117,-376.5121 117.4183,-367.115 115.3835,-377.5126 122.3117,-376.5121"/>
</g>
<!-- c1005057&#45;&gt;c1005025 -->
<g id="edge9" class="edge">
<title>c1005057&#45;&gt;c1005025</title>
<path fill="none" stroke="#000000" d="M121.0518,-377.1108C128.3081,-402.5589 145.0558,-447.6551 177,-470.5 187.88,-478.2809 201.5759,-482.299 214.711,-484.2464"/>
<polygon fill="none" stroke="#000000" points="124.3807,-376.0092 118.4354,-367.2398 117.6144,-377.8028 124.3807,-376.0092"/>
</g>
<!-- c1005057&#45;&gt;c1005027 -->
<g id="edge10" class="edge">
<title>c1005057&#45;&gt;c1005027</title>
<path fill="none" stroke="#000000" d="M124.2574,-376.4547C133.7181,-396.0505 151.6444,-426.7313 177,-442.5 187.6097,-449.0982 200.3793,-452.8582 212.7049,-454.9373"/>
<polygon fill="none" stroke="#000000" points="127.3268,-374.7508 119.9828,-367.1142 120.9617,-377.6637 127.3268,-374.7508"/>
</g>
<!-- c1005057&#45;&gt;c1005031 -->
<g id="edge11" class="edge">
<title>c1005057&#45;&gt;c1005031</title>
<path fill="none" stroke="#000000" d="M129.6437,-375.0958C140.8165,-387.9856 158.0305,-405.1852 177,-414.5 181.2221,-416.5732 185.6933,-418.3469 190.2855,-419.8635"/>
<polygon fill="none" stroke="#000000" points="132.3038,-372.8206 123.2162,-367.3738 126.9236,-377.2988 132.3038,-372.8206"/>
</g>
<!-- c1005057&#45;&gt;c1005033 -->
<g id="edge12" class="edge">
<title>c1005057&#45;&gt;c1005033</title>
<path fill="none" stroke="#000000" d="M141.147,-371.729C151.8974,-377.016 164.809,-382.7317 177,-386.5 184.4429,-388.8006 192.383,-390.7487 200.2954,-392.3917"/>
<polygon fill="none" stroke="#000000" points="142.4649,-368.4728 131.9644,-367.0625 139.2935,-374.7132 142.4649,-368.4728"/>
</g>
<!-- c1005057&#45;&gt;c1005035 -->
<g id="edge13" class="edge">
<title>c1005057&#45;&gt;c1005035</title>
<path fill="none" stroke="#000000" d="M169.4974,-363.6525C185.3361,-365.1924 202.4961,-366.8607 217.6014,-368.3293"/>
<polygon fill="none" stroke="#000000" points="169.6067,-360.1467 159.3149,-362.6626 168.9292,-367.1139 169.6067,-360.1467"/>
</g>
<!-- c1005057&#45;&gt;c1005037 -->
<g id="edge14" class="edge">
<title>c1005057&#45;&gt;c1005037</title>
<path fill="none" stroke="#000000" d="M169.3466,-353.3621C171.8403,-353.1197 174.3671,-352.874 176.9137,-352.6264"/>
<polygon fill="none" stroke="#000000" points="168.9292,-349.8861 159.3149,-354.3374 169.6067,-356.8533 168.9292,-349.8861"/>
</g>
<!-- c1005057&#45;&gt;c1005039 -->
<g id="edge15" class="edge">
<title>c1005057&#45;&gt;c1005039</title>
<path fill="none" stroke="#000000" d="M141.147,-345.271C151.8974,-339.984 164.809,-334.2683 177,-330.5 190.3411,-326.3762 205.2795,-323.3851 218.7924,-321.2539"/>
<polygon fill="none" stroke="#000000" points="139.2935,-342.2868 131.9644,-349.9375 142.4649,-348.5272 139.2935,-342.2868"/>
</g>
<!-- c1005057&#45;&gt;c1005041 -->
<g id="edge16" class="edge">
<title>c1005057&#45;&gt;c1005041</title>
<path fill="none" stroke="#000000" d="M129.6437,-341.9042C140.8165,-329.0144 158.0305,-311.8148 177,-302.5 189.2704,-296.4747 203.6454,-292.9795 216.9764,-290.9714"/>
<polygon fill="none" stroke="#000000" points="126.9236,-339.7012 123.2162,-349.6262 132.3038,-344.1794 126.9236,-339.7012"/>
</g>
<!-- c1005057&#45;&gt;c1005043 -->
<g id="edge17" class="edge">
<title>c1005057&#45;&gt;c1005043</title>
<path fill="none" stroke="#000000" d="M124.2574,-340.5453C133.7181,-320.9495 151.6444,-290.2687 177,-274.5 191.6039,-265.4178 210.3002,-261.713 226.2978,-260.3674"/>
<polygon fill="none" stroke="#000000" points="120.9617,-339.3363 119.9828,-349.8858 127.3268,-342.2492 120.9617,-339.3363"/>
</g>
<!-- c1005057&#45;&gt;c1005045 -->
<g id="edge18" class="edge">
<title>c1005057&#45;&gt;c1005045</title>
<path fill="none" stroke="#000000" d="M121.0518,-339.8892C128.3081,-314.4411 145.0558,-269.3449 177,-246.5 183.0976,-242.1393 190.0796,-238.9604 197.3517,-236.6656"/>
<polygon fill="none" stroke="#000000" points="117.6144,-339.1972 118.4354,-349.7602 124.3807,-340.9908 117.6144,-339.1972"/>
</g>
<!-- c1005057&#45;&gt;c1005047 -->
<g id="edge19" class="edge">
<title>c1005057&#45;&gt;c1005047</title>
<path fill="none" stroke="#000000" d="M118.8835,-339.7381C123.8276,-309.1503 138.1861,-248.9048 177,-218.5 189.2656,-208.8918 205.6896,-204.8401 220.7254,-203.3908"/>
<polygon fill="none" stroke="#000000" points="115.3835,-339.4874 117.4183,-349.885 122.3117,-340.4879 115.3835,-339.4874"/>
</g>
<!-- c1005057&#45;&gt;c1005049 -->
<g id="edge20" class="edge">
<title>c1005057&#45;&gt;c1005049</title>
<path fill="none" stroke="#000000" d="M120.6631,-340.0676C129.9355,-300.6733 153.3406,-210.2518 177,-190.5 186.8167,-182.3046 199.6049,-178.0626 212.2111,-176.0334"/>
<polygon fill="none" stroke="#000000" points="117.2265,-339.3945 118.3888,-349.9254 124.0474,-340.9682 117.2265,-339.3945"/>
</g>
<!-- c1005057&#45;&gt;c1005051 -->
<g id="edge21" class="edge">
<title>c1005057&#45;&gt;c1005051</title>
<path fill="none" stroke="#000000" d="M119.672,-340.0336C127.6274,-295.9258 149.755,-186.336 177,-162.5 188.5052,-152.4344 204.4432,-148.2365 219.3135,-146.8001"/>
<polygon fill="none" stroke="#000000" points="116.2107,-339.5082 117.9226,-349.9639 123.1046,-340.7228 116.2107,-339.5082"/>
</g>
<!-- c1005057&#45;&gt;c1005055 -->
<g id="edge22" class="edge">
<title>c1005057&#45;&gt;c1005055</title>
<path fill="none" stroke="#000000" d="M118.9603,-339.7119C125.7297,-290.9911 146.1973,-162.432 177,-134.5 180.3755,-131.4391 184.1579,-128.9142 188.1992,-126.8404"/>
<polygon fill="none" stroke="#000000" points="115.4683,-339.4186 117.5981,-349.7972 122.4053,-340.3557 115.4683,-339.4186"/>
</g>
<!-- c1005059 -->
<g id="node25" class="node">
<title>c1005059</title>
<g id="a_node25"><a xlink:href="NormalDistribution.html" xlink:title="&lt;TABLE&gt;">
<g id="a_node25_24"><a xlink:href="NormalDistribution.html" xlink:title="de.lmu.ifi.dbs.elki.math.statistics.distribution.NormalDistribution" target="_parent">
<polygon fill="none" stroke="#000000" points="219.5,-83.5 219.5,-100.5 301.5,-100.5 301.5,-83.5 219.5,-83.5"/>
<text text-anchor="start" x="223.5" y="-91.1" font-family="Roboto" font-size="8.00" fill="#000000"> </text>
<text text-anchor="start" x="226.5" y="-91.1" font-family="Roboto" font-size="8.00" fill="#000000">NormalDistribution</text>
<text text-anchor="start" x="294.5" y="-91.1" font-family="Roboto" font-size="8.00" fill="#000000"> </text>
</a>
</g>
</a>
</g>
</g>
<!-- c1005057&#45;&gt;c1005059 -->
<g id="edge24" class="edge">
<title>c1005057&#45;&gt;c1005059</title>
<path fill="none" stroke="#000000" d="M118.3423,-339.8495C123.9412,-287.115 142.5165,-138.6665 177,-106.5 188.2859,-95.9724 204.3609,-91.7255 219.3978,-90.3783"/>
<polygon fill="none" stroke="#000000" points="114.8576,-339.523 117.3183,-349.8281 121.821,-340.2376 114.8576,-339.523"/>
</g>
<!-- c1005061 -->
<g id="node26" class="node">
<title>c1005061</title>
<g id="a_node26"><a xlink:href="GeneralizedExtremeValueDistribution.html" xlink:title="&lt;TABLE&gt;">
<g id="a_node26_25"><a xlink:href="GeneralizedExtremeValueDistribution.html" xlink:title="de.lmu.ifi.dbs.elki.math.statistics.distribution.GeneralizedExtremeValueDistribution" target="_parent">
<polygon fill="none" stroke="#000000" points="187.5,-55.5 187.5,-72.5 334.5,-72.5 334.5,-55.5 187.5,-55.5"/>
<text text-anchor="start" x="191.5" y="-63.1" font-family="Roboto" font-size="8.00" fill="#000000"> </text>
<text text-anchor="start" x="194.5" y="-63.1" font-family="Roboto" font-size="8.00" fill="#000000">GeneralizedExtremeValueDistribution</text>
<text text-anchor="start" x="327.5" y="-63.1" font-family="Roboto" font-size="8.00" fill="#000000"> </text>
</a>
</g>
</a>
</g>
</g>
<!-- c1005057&#45;&gt;c1005061 -->
<g id="edge25" class="edge">
<title>c1005057&#45;&gt;c1005061</title>
<path fill="none" stroke="#000000" d="M117.8739,-339.6752C122.4156,-282.8763 138.8815,-114.8794 177,-78.5 179.9774,-75.6585 183.3023,-73.2711 186.8632,-71.2724"/>
<polygon fill="none" stroke="#000000" points="114.3761,-339.5135 117.1018,-349.7517 121.3557,-340.0483 114.3761,-339.5135"/>
</g>
<!-- c1005063 -->
<g id="node27" class="node">
<title>c1005063</title>
<g id="a_node27"><a xlink:href="WeibullDistribution.html" xlink:title="&lt;TABLE&gt;">
<g id="a_node27_26"><a xlink:href="WeibullDistribution.html" xlink:title="de.lmu.ifi.dbs.elki.math.statistics.distribution.WeibullDistribution" target="_parent">
<polygon fill="none" stroke="#000000" points="219.5,-27.5 219.5,-44.5 301.5,-44.5 301.5,-27.5 219.5,-27.5"/>
<text text-anchor="start" x="223.5" y="-35.1" font-family="Roboto" font-size="8.00" fill="#000000"> </text>
<text text-anchor="start" x="226.5" y="-35.1" font-family="Roboto" font-size="8.00" fill="#000000">WeibullDistribution</text>
<text text-anchor="start" x="294.5" y="-35.1" font-family="Roboto" font-size="8.00" fill="#000000"> </text>
</a>
</g>
</a>
</g>
</g>
<!-- c1005057&#45;&gt;c1005063 -->
<g id="edge26" class="edge">
<title>c1005057&#45;&gt;c1005063</title>
<path fill="none" stroke="#000000" d="M117.466,-339.7976C120.9815,-279.41 135.1615,-91.1896 177,-50.5 188.0642,-39.7396 204.0994,-35.4509 219.1664,-34.1353"/>
<polygon fill="none" stroke="#000000" points="113.9701,-339.6293 116.9146,-349.8067 120.9595,-340.0144 113.9701,-339.6293"/>
</g>
<!-- c1005065 -->
<g id="node28" class="node">
<title>c1005065</title>
<g id="a_node28"><a xlink:href="GumbelDistribution.html" xlink:title="&lt;TABLE&gt;">
<g id="a_node28_27"><a xlink:href="GumbelDistribution.html" xlink:title="de.lmu.ifi.dbs.elki.math.statistics.distribution.GumbelDistribution" target="_parent">
<polygon fill="none" stroke="#000000" points="218.5,.5 218.5,-16.5 302.5,-16.5 302.5,.5 218.5,.5"/>
<text text-anchor="start" x="222.5" y="-7.1" font-family="Roboto" font-size="8.00" fill="#000000"> </text>
<text text-anchor="start" x="225.5" y="-7.1" font-family="Roboto" font-size="8.00" fill="#000000">GumbelDistribution</text>
<text text-anchor="start" x="295.5" y="-7.1" font-family="Roboto" font-size="8.00" fill="#000000"> </text>
</a>
</g>
</a>
</g>
</g>
<!-- c1005057&#45;&gt;c1005065 -->
<g id="edge27" class="edge">
<title>c1005057&#45;&gt;c1005065</title>
<path fill="none" stroke="#000000" d="M117.1326,-339.7962C119.6936,-275.8645 131.4533,-67.502 177,-22.5 187.7697,-11.8591 203.3902,-7.5145 218.2147,-6.1221"/>
<polygon fill="none" stroke="#000000" points="113.628,-339.8582 116.7553,-349.9809 120.6232,-340.1173 113.628,-339.8582"/>
</g>
</g>
</svg>
