<?xml version="1.0" encoding="UTF-8" standalone="no"?>
<!DOCTYPE svg PUBLIC "-//W3C//DTD SVG 1.1//EN"
 "http://www.w3.org/Graphics/SVG/1.1/DTD/svg11.dtd">
<!-- Generated by graphviz version 2.40.1 (20161225.0304)
 -->
<!-- Title: G Pages: 1 -->
<svg width="237pt" height="25pt"
 viewBox="0.00 0.00 237.00 25.00" xmlns="http://www.w3.org/2000/svg" xmlns:xlink="http://www.w3.org/1999/xlink">
<g id="graph0" class="graph" transform="scale(1 1) rotate(0) translate(4 21)">
<title>G</title>
<polygon fill="#ffffff" stroke="transparent" points="-4,4 -4,-21 233,-21 233,4 -4,4"/>
<!-- c4697939 -->
<g id="node1" class="node">
<title>c4697939</title>
<g id="a_node1"><a xlink:href="GeneralizedLogisticDistribution.html" xlink:title="&lt;TABLE&gt;">
<g id="a_node1_0"><a xlink:href="GeneralizedLogisticDistribution.html" xlink:title="de.lmu.ifi.dbs.elki.math.statistics.distribution.GeneralizedLogisticDistribution" target="_parent">
<polygon fill="#fffacd" stroke="transparent" points="103,0 103,-17 229,-17 229,0 103,0"/>
<polygon fill="none" stroke="#000000" points="103,.5 103,-16.5 229,-16.5 229,.5 103,.5"/>
<text text-anchor="start" x="107" y="-7.1" font-family="Roboto" font-size="8.00" fill="#000000"> </text>
<text text-anchor="start" x="110" y="-7.1" font-family="Roboto" font-size="8.00" fill="#000000">GeneralizedLogisticDistribution</text>
<text text-anchor="start" x="222" y="-7.1" font-family="Roboto" font-size="8.00" fill="#000000"> </text>
</a>
</g>
</a>
</g>
</g>
<!-- c4697951 -->
<g id="node2" class="node">
<title>c4697951</title>
<g id="a_node2"><a xlink:href="AbstractDistribution.html" xlink:title="&lt;TABLE&gt;">
<g id="a_node2_1"><a xlink:href="AbstractDistribution.html" xlink:title="de.lmu.ifi.dbs.elki.math.statistics.distribution.AbstractDistribution" target="_parent">
<polygon fill="none" stroke="#000000" points=".5,.5 .5,-16.5 85.5,-16.5 85.5,.5 .5,.5"/>
<text text-anchor="start" x="4.5" y="-7.1" font-family="Roboto" font-size="8.00" fill="#000000"> </text>
<text text-anchor="start" x="7.5" y="-7.1" font-family="Roboto" font-style="italic" font-size="8.00" fill="#000000">AbstractDistribution</text>
<text text-anchor="start" x="78.5" y="-7.1" font-family="Roboto" font-size="8.00" fill="#000000"> </text>
</a>
</g>
</a>
</g>
</g>
<!-- c4697951&#45;&gt;c4697939 -->
<g id="edge1" class="edge">
<title>c4697951&#45;&gt;c4697939</title>
<path fill="none" stroke="#000000" d="M95.1269,-8.5C97.6284,-8.5 100.1503,-8.5 102.6757,-8.5"/>
<polygon fill="none" stroke="#000000" points="95.0017,-5.0001 85.0017,-8.5 95.0017,-12.0001 95.0017,-5.0001"/>
</g>
</g>
</svg>
