<?xml version="1.0" encoding="UTF-8" standalone="no"?>
<!DOCTYPE svg PUBLIC "-//W3C//DTD SVG 1.1//EN"
 "http://www.w3.org/Graphics/SVG/1.1/DTD/svg11.dtd">
<!-- Generated by graphviz version 2.40.1 (20161225.0304)
 -->
<!-- Title: G Pages: 1 -->
<svg width="365pt" height="65pt"
 viewBox="0.00 0.00 365.00 64.50" xmlns="http://www.w3.org/2000/svg" xmlns:xlink="http://www.w3.org/1999/xlink">
<g id="graph0" class="graph" transform="scale(1 1) rotate(0) translate(4 60.5)">
<title>G</title>
<polygon fill="#ffffff" stroke="transparent" points="-4,4 -4,-60.5 361,-60.5 361,4 -4,4"/>
<!-- c9637618 -->
<g id="node1" class="node">
<title>c9637618</title>
<g id="a_node1"><a xlink:href="estimator/SkewGNormalLMMEstimator.html" xlink:title="&lt;TABLE&gt;">
<g id="a_node1_0"><a xlink:href="estimator/SkewGNormalLMMEstimator.html" xlink:title="de.lmu.ifi.dbs.elki.math.statistics.distribution.estimator.SkewGNormalLMMEstimator" target="_parent">
<polygon fill="none" stroke="#000000" points=".5,-28.5 .5,-56.5 195.5,-56.5 195.5,-28.5 .5,-28.5"/>
<text text-anchor="start" x="43" y="-47.1" font-family="Roboto" font-size="8.00" fill="#000000"> </text>
<text text-anchor="start" x="46" y="-47.1" font-family="Roboto" font-size="8.00" fill="#000000">SkewGNormalLMMEstimator</text>
<text text-anchor="start" x="150" y="-47.1" font-family="Roboto" font-size="8.00" fill="#000000"> </text>
<text text-anchor="start" x="4.5" y="-36.1" font-family="Roboto" font-size="8.00" fill="#000000"> </text>
<text text-anchor="start" x="7.5" y="-36.1" font-family="Roboto" font-size="7.00" fill="#000000">de.lmu.ifi.dbs.elki.math.statistics.distribution.estimator</text>
<text text-anchor="start" x="188.5" y="-36.1" font-family="Roboto" font-size="8.00" fill="#000000"> </text>
</a>
</g>
</a>
</g>
</g>
<!-- c9637747 -->
<g id="node2" class="node">
<title>c9637747</title>
<g id="a_node2"><a xlink:href="SkewGeneralizedNormalDistribution.html" xlink:title="&lt;TABLE&gt;">
<g id="a_node2_1"><a xlink:href="SkewGeneralizedNormalDistribution.html" xlink:title="de.lmu.ifi.dbs.elki.math.statistics.distribution.SkewGeneralizedNormalDistribution" target="_parent">
<polygon fill="#fffacd" stroke="transparent" points="213,0 213,-17 357,-17 357,0 213,0"/>
<polygon fill="none" stroke="#000000" points="213,.5 213,-16.5 357,-16.5 357,.5 213,.5"/>
<text text-anchor="start" x="217" y="-7.1" font-family="Roboto" font-size="8.00" fill="#000000"> </text>
<text text-anchor="start" x="220" y="-7.1" font-family="Roboto" font-size="8.00" fill="#000000">SkewGeneralizedNormalDistribution</text>
<text text-anchor="start" x="350" y="-7.1" font-family="Roboto" font-size="8.00" fill="#000000"> </text>
</a>
</g>
</a>
</g>
</g>
<!-- c9637618&#45;&gt;c9637747 -->
<g id="edge1" class="edge">
<title>c9637618&#45;&gt;c9637747</title>
<path fill="none" stroke="#000000" d="M186.7151,-26.3223C204.3993,-23.1156 222.2993,-19.8697 237.8901,-17.0426"/>
<polygon fill="none" stroke="#000000" points="186.6534,-26.3334 181.4634,-31.3398 174.8459,-28.4746 180.0359,-23.4682 186.6534,-26.3334"/>
</g>
<!-- c9637749 -->
<g id="node3" class="node">
<title>c9637749</title>
<g id="a_node3"><a xlink:href="AbstractDistribution.html" xlink:title="&lt;TABLE&gt;">
<g id="a_node3_2"><a xlink:href="AbstractDistribution.html" xlink:title="de.lmu.ifi.dbs.elki.math.statistics.distribution.AbstractDistribution" target="_parent">
<polygon fill="none" stroke="#000000" points="55.5,.5 55.5,-16.5 140.5,-16.5 140.5,.5 55.5,.5"/>
<text text-anchor="start" x="59.5" y="-7.1" font-family="Roboto" font-size="8.00" fill="#000000"> </text>
<text text-anchor="start" x="62.5" y="-7.1" font-family="Roboto" font-style="italic" font-size="8.00" fill="#000000">AbstractDistribution</text>
<text text-anchor="start" x="133.5" y="-7.1" font-family="Roboto" font-size="8.00" fill="#000000"> </text>
</a>
</g>
</a>
</g>
</g>
<!-- c9637749&#45;&gt;c9637747 -->
<g id="edge2" class="edge">
<title>c9637749&#45;&gt;c9637747</title>
<path fill="none" stroke="#000000" d="M150.2087,-8.5C169.6301,-8.5 191.9793,-8.5 212.824,-8.5"/>
<polygon fill="none" stroke="#000000" points="150.0467,-5.0001 140.0467,-8.5 150.0466,-12.0001 150.0467,-5.0001"/>
</g>
</g>
</svg>
