<?xml version="1.0" encoding="UTF-8" standalone="no"?><svg xmlns="http://www.w3.org/2000/svg" xmlns:xlink="http://www.w3.org/1999/xlink" contentStyleType="text/css" height="323px" preserveAspectRatio="none" style="width:361px;height:323px;background:#FFFFFF;" version="1.1" viewBox="0 0 361 323" width="361px" zoomAndPan="magnify"><defs/><g><!--MD5=[95a432f8996d59513e6923193c1026ed]
class elki.utilities.scaling.outlier.MultiplicativeInverseScaling--><a href="MultiplicativeInverseScaling.html" target="_top" title="MultiplicativeInverseScaling.html" xlink:actuate="onRequest" xlink:href="MultiplicativeInverseScaling.html" xlink:show="new" xlink:title="MultiplicativeInverseScaling.html" xlink:type="simple"><g id="elem_elki.utilities.scaling.outlier.MultiplicativeInverseScaling"><rect codeLine="6" fill="#F1F1F1" height="151.7188" id="elki.utilities.scaling.outlier.MultiplicativeInverseScaling" rx="2.5" ry="2.5" style="stroke:#181818;stroke-width:0.5;" width="335" x="13" y="146"/><ellipse cx="83.25" cy="164.9688" fill="#ADD1B2" rx="11" ry="11" style="stroke:#181818;stroke-width:1.0;"/><path d="M86.2188,170.6094 Q85.6406,170.9063 85,171.0469 Q84.3594,171.2031 83.6563,171.2031 Q81.1563,171.2031 79.8281,169.5625 Q78.5156,167.9063 78.5156,164.7813 Q78.5156,161.6563 79.8281,160 Q81.1563,158.3438 83.6563,158.3438 Q84.3594,158.3438 85,158.5 Q85.6563,158.6563 86.2188,158.9531 L86.2188,161.6719 Q85.5938,161.0938 85,160.8281 Q84.4063,160.5469 83.7813,160.5469 Q82.4375,160.5469 81.75,161.625 Q81.0625,162.6875 81.0625,164.7813 Q81.0625,166.875 81.75,167.9531 Q82.4375,169.0156 83.7813,169.0156 Q84.4063,169.0156 85,168.75 Q85.5938,168.4688 86.2188,167.8906 L86.2188,170.6094 Z " fill="#000000"/><text fill="#000000" font-family="sans-serif" font-size="14" lengthAdjust="spacing" textLength="186" x="103.75" y="163.9951">MultiplicativeInverseScaling</text><text fill="#000000" font-family="sans-serif" font-size="10" lengthAdjust="spacing" textLength="119" x="137.25" y="176.5791">elki.utilities.scaling.outlier</text><line style="stroke:#181818;stroke-width:0.5;" x1="14" x2="347" y1="183.9375" y2="183.9375"/><polygon fill="none" points="24,193.5859,20,199.5859,28,199.5859" style="stroke:#1963A0;stroke-width:1.0;"/><text fill="#000000" font-family="sans-serif" font-size="14" lengthAdjust="spacing" textLength="111" x="33" y="200.9326">scaleval: double</text><line style="stroke:#181818;stroke-width:0.5;" x1="14" x2="347" y1="208.2344" y2="208.2344"/><ellipse cx="24" cy="221.8828" fill="#84BE84" rx="3" ry="3" style="stroke:#038048;stroke-width:1.0;"/><text fill="#000000" font-family="sans-serif" font-size="14" lengthAdjust="spacing" textLength="184" x="33" y="225.2295">getScaled(double): double</text><ellipse cx="24" cy="238.1797" fill="#84BE84" rx="3" ry="3" style="stroke:#038048;stroke-width:1.0;"/><text fill="#000000" font-family="sans-serif" font-size="14" lengthAdjust="spacing" textLength="190" x="33" y="241.5264">prepare(OutlierResult): void</text><ellipse cx="24" cy="254.4766" fill="#84BE84" rx="3" ry="3" style="stroke:#038048;stroke-width:1.0;"/><text fill="#000000" font-family="sans-serif" font-size="14" lengthAdjust="spacing" textLength="309" x="33" y="257.8232">prepare(A, NumberArrayAdapter&lt;?, A&gt;): void</text><ellipse cx="24" cy="270.7734" fill="#84BE84" rx="3" ry="3" style="stroke:#038048;stroke-width:1.0;"/><text fill="#000000" font-family="sans-serif" font-size="14" lengthAdjust="spacing" textLength="114" x="33" y="274.1201">getMin(): double</text><ellipse cx="24" cy="287.0703" fill="#84BE84" rx="3" ry="3" style="stroke:#038048;stroke-width:1.0;"/><text fill="#000000" font-family="sans-serif" font-size="14" lengthAdjust="spacing" textLength="117" x="33" y="290.417">getMax(): double</text></g></a><!--MD5=[e6c8dcff37b9bd9602250d8bd6fbf89e]
class elki.utilities.scaling.outlier.OutlierScaling--><a href="OutlierScaling.html" target="_top" title="OutlierScaling.html" xlink:actuate="onRequest" xlink:href="OutlierScaling.html" xlink:show="new" xlink:title="OutlierScaling.html" xlink:type="simple"><g id="elem_elki.utilities.scaling.outlier.OutlierScaling"><rect codeLine="15" fill="#F1F1F1" height="78.5313" id="elki.utilities.scaling.outlier.OutlierScaling" rx="2.5" ry="2.5" style="stroke:#181818;stroke-width:0.5;" width="347" x="7" y="7"/><ellipse cx="110.75" cy="25.9688" fill="#B4A7E5" rx="11" ry="11" style="stroke:#181818;stroke-width:1.0;"/><path d="M106.6719,21.7344 L106.6719,19.5781 L114.0625,19.5781 L114.0625,21.7344 L111.5938,21.7344 L111.5938,29.8125 L114.0625,29.8125 L114.0625,31.9688 L106.6719,31.9688 L106.6719,29.8125 L109.1406,29.8125 L109.1406,21.7344 L106.6719,21.7344 Z " fill="#000000"/><text fill="#000000" font-family="sans-serif" font-size="14" font-style="italic" lengthAdjust="spacing" textLength="99" x="147.25" y="24.9951">OutlierScaling</text><text fill="#000000" font-family="sans-serif" font-size="10" font-style="italic" lengthAdjust="spacing" textLength="131" x="131.25" y="37.5791">elki.utilities.scaling.outlier</text><line style="stroke:#181818;stroke-width:0.5;" x1="8" x2="353" y1="44.9375" y2="44.9375"/><ellipse cx="18" cy="58.5859" fill="#84BE84" rx="3" ry="3" style="stroke:#038048;stroke-width:1.0;"/><text fill="#000000" font-family="sans-serif" font-size="14" font-style="italic" lengthAdjust="spacing" textLength="195" x="27" y="61.9326">prepare(OutlierResult): void</text><ellipse cx="18" cy="74.8828" fill="#84BE84" rx="3" ry="3" style="stroke:#038048;stroke-width:1.0;"/><text fill="#000000" font-family="sans-serif" font-size="14" font-style="italic" lengthAdjust="spacing" textLength="321" x="27" y="78.2295">prepare(A, NumberArrayAdapter&lt;?, A&gt;): void</text></g></a><!--MD5=[97dd038a004237d729014c899cc20985]
reverse link elki.utilities.scaling.outlier.OutlierScaling to elki.utilities.scaling.outlier.MultiplicativeInverseScaling--><g id="link_elki.utilities.scaling.outlier.OutlierScaling_elki.utilities.scaling.outlier.MultiplicativeInverseScaling"><path codeLine="20" d="M180.5,106.35 C180.5,119.07 180.5,132.69 180.5,145.94 " fill="none" id="elki.utilities.scaling.outlier.OutlierScaling-backto-elki.utilities.scaling.outlier.MultiplicativeInverseScaling" style="stroke:#181818;stroke-width:1.0;stroke-dasharray:7.0,7.0;"/><polygon fill="none" points="173.5,106.01,180.5,86.01,187.5,106.01,173.5,106.01" style="stroke:#181818;stroke-width:1.0;"/></g><rect fill="none" height="11.6406" style="stroke:none;stroke-width:1.0;" width="186" x="80.5" y="303.7188"/><text fill="#888888" font-family="sans-serif" font-size="10" lengthAdjust="spacing" textLength="186" x="80.5" y="313.001">UMLDoclet 2.0.19, PlantUML 1.2022.8</text><!--MD5=[746404dee33db8b2fe6248a62b4ef203]
@startuml
    remove .*\.(Instance|Par|Parameterizer|Factory)$
    set namespaceSeparator none
    hide empty fields
    hide empty methods

    class "<size:14>MultiplicativeInverseScaling\n<size:10>elki.utilities.scaling.outlier" as elki.utilities.scaling.outlier.MultiplicativeInverseScaling [[MultiplicativeInverseScaling.html]] {
        ~scaleval: double
        +getScaled(double): double
        +prepare(OutlierResult): void
        +prepare(A, NumberArrayAdapter<?, A>): void
        +getMin(): double
        +getMax(): double
    }

    interface "<size:14>OutlierScaling\n<size:10>elki.utilities.scaling.outlier" as elki.utilities.scaling.outlier.OutlierScaling [[OutlierScaling.html]] {
        {abstract} +prepare(OutlierResult): void
        {abstract} +prepare(A, NumberArrayAdapter<?, A>): void
    }

    elki.utilities.scaling.outlier.OutlierScaling <|.. elki.utilities.scaling.outlier.MultiplicativeInverseScaling

    center footer UMLDoclet 2.0.19, PlantUML 1.2022.8
@enduml

PlantUML version 1.2022.8(Sun Sep 25 11:00:33 CEST 2022)
(APACHE source distribution)
Java Runtime: OpenJDK Runtime Environment
JVM: OpenJDK 64-Bit Server VM
Default Encoding: UTF-8
Language: de
Country: DE
--></g></svg>