<?xml version="1.0" encoding="UTF-8" standalone="no"?><svg xmlns="http://www.w3.org/2000/svg" xmlns:xlink="http://www.w3.org/1999/xlink" contentStyleType="text/css" height="421px" preserveAspectRatio="none" style="width:423px;height:421px;background:#FFFFFF;" version="1.1" viewBox="0 0 423 421" width="423px" zoomAndPan="magnify"><defs/><g><!--MD5=[23c0f093f1d1ad3cd49b24938a33558b]
class elki.utilities.scaling.outlier.OutlierLinearScaling--><a href="OutlierLinearScaling.html" target="_top" title="OutlierLinearScaling.html" xlink:actuate="onRequest" xlink:href="OutlierLinearScaling.html" xlink:show="new" xlink:title="OutlierLinearScaling.html" xlink:type="simple"><g id="elem_elki.utilities.scaling.outlier.OutlierLinearScaling"><rect codeLine="6" fill="#F1F1F1" height="249.5" id="elki.utilities.scaling.outlier.OutlierLinearScaling" rx="2.5" ry="2.5" style="stroke:#181818;stroke-width:0.5;" width="407" x="9" y="146"/><ellipse cx="140.75" cy="164.9688" fill="#ADD1B2" rx="11" ry="11" style="stroke:#181818;stroke-width:1.0;"/><path d="M143.7188,170.6094 Q143.1406,170.9063 142.5,171.0469 Q141.8594,171.2031 141.1563,171.2031 Q138.6563,171.2031 137.3281,169.5625 Q136.0156,167.9063 136.0156,164.7813 Q136.0156,161.6563 137.3281,160 Q138.6563,158.3438 141.1563,158.3438 Q141.8594,158.3438 142.5,158.5 Q143.1563,158.6563 143.7188,158.9531 L143.7188,161.6719 Q143.0938,161.0938 142.5,160.8281 Q141.9063,160.5469 141.2813,160.5469 Q139.9375,160.5469 139.25,161.625 Q138.5625,162.6875 138.5625,164.7813 Q138.5625,166.875 139.25,167.9531 Q139.9375,169.0156 141.2813,169.0156 Q141.9063,169.0156 142.5,168.75 Q143.0938,168.4688 143.7188,167.8906 L143.7188,170.6094 Z " fill="#000000"/><text fill="#000000" font-family="sans-serif" font-size="14" lengthAdjust="spacing" textLength="135" x="161.25" y="163.9951">OutlierLinearScaling</text><text fill="#000000" font-family="sans-serif" font-size="10" lengthAdjust="spacing" textLength="119" x="169.25" y="176.5791">elki.utilities.scaling.outlier</text><line style="stroke:#181818;stroke-width:0.5;" x1="10" x2="415" y1="183.9375" y2="183.9375"/><polygon fill="none" points="20,192.5859,24,196.5859,20,200.5859,16,196.5859" style="stroke:#B38D22;stroke-width:1.0;"/><text fill="#000000" font-family="sans-serif" font-size="14" lengthAdjust="spacing" textLength="84" x="29" y="200.9326">min: Double</text><polygon fill="none" points="20,208.8828,24,212.8828,20,216.8828,16,212.8828" style="stroke:#B38D22;stroke-width:1.0;"/><text fill="#000000" font-family="sans-serif" font-size="14" lengthAdjust="spacing" textLength="87" x="29" y="217.2295">max: Double</text><polygon fill="none" points="20,226.1797,16,232.1797,24,232.1797" style="stroke:#1963A0;stroke-width:1.0;"/><text fill="#000000" font-family="sans-serif" font-size="14" lengthAdjust="spacing" textLength="96" x="29" y="233.5264">factor: double</text><polygon fill="none" points="20,242.4766,16,248.4766,24,248.4766" style="stroke:#1963A0;stroke-width:1.0;"/><text fill="#000000" font-family="sans-serif" font-size="14" lengthAdjust="spacing" textLength="130" x="29" y="249.8232">usemean: boolean</text><polygon fill="none" points="20,258.7734,16,264.7734,24,264.7734" style="stroke:#1963A0;stroke-width:1.0;"/><text fill="#000000" font-family="sans-serif" font-size="14" lengthAdjust="spacing" textLength="122" x="29" y="266.1201">nozeros: boolean</text><line style="stroke:#181818;stroke-width:0.5;" x1="10" x2="415" y1="273.4219" y2="273.4219"/><ellipse cx="20" cy="287.0703" fill="#84BE84" rx="3" ry="3" style="stroke:#038048;stroke-width:1.0;"/><text fill="#000000" font-family="sans-serif" font-size="14" lengthAdjust="spacing" textLength="145" x="29" y="290.417">OutlierLinearScaling()</text><ellipse cx="20" cy="303.3672" fill="#84BE84" rx="3" ry="3" style="stroke:#038048;stroke-width:1.0;"/><text fill="#000000" font-family="sans-serif" font-size="14" lengthAdjust="spacing" textLength="381" x="29" y="306.7139">OutlierLinearScaling(Double, Double, boolean, boolean)</text><ellipse cx="20" cy="319.6641" fill="#84BE84" rx="3" ry="3" style="stroke:#038048;stroke-width:1.0;"/><text fill="#000000" font-family="sans-serif" font-size="14" lengthAdjust="spacing" textLength="184" x="29" y="323.0107">getScaled(double): double</text><ellipse cx="20" cy="335.9609" fill="#84BE84" rx="3" ry="3" style="stroke:#038048;stroke-width:1.0;"/><text fill="#000000" font-family="sans-serif" font-size="14" lengthAdjust="spacing" textLength="190" x="29" y="339.3076">prepare(OutlierResult): void</text><ellipse cx="20" cy="352.2578" fill="#84BE84" rx="3" ry="3" style="stroke:#038048;stroke-width:1.0;"/><text fill="#000000" font-family="sans-serif" font-size="14" lengthAdjust="spacing" textLength="309" x="29" y="355.6045">prepare(A, NumberArrayAdapter&lt;?, A&gt;): void</text><ellipse cx="20" cy="368.5547" fill="#84BE84" rx="3" ry="3" style="stroke:#038048;stroke-width:1.0;"/><text fill="#000000" font-family="sans-serif" font-size="14" lengthAdjust="spacing" textLength="114" x="29" y="371.9014">getMin(): double</text><ellipse cx="20" cy="384.8516" fill="#84BE84" rx="3" ry="3" style="stroke:#038048;stroke-width:1.0;"/><text fill="#000000" font-family="sans-serif" font-size="14" lengthAdjust="spacing" textLength="117" x="29" y="388.1982">getMax(): double</text></g></a><!--MD5=[e6c8dcff37b9bd9602250d8bd6fbf89e]
class elki.utilities.scaling.outlier.OutlierScaling--><a href="OutlierScaling.html" target="_top" title="OutlierScaling.html" xlink:actuate="onRequest" xlink:href="OutlierScaling.html" xlink:show="new" xlink:title="OutlierScaling.html" xlink:type="simple"><g id="elem_elki.utilities.scaling.outlier.OutlierScaling"><rect codeLine="21" fill="#F1F1F1" height="78.5313" id="elki.utilities.scaling.outlier.OutlierScaling" rx="2.5" ry="2.5" style="stroke:#181818;stroke-width:0.5;" width="347" x="39" y="7"/><ellipse cx="142.75" cy="25.9688" fill="#B4A7E5" rx="11" ry="11" style="stroke:#181818;stroke-width:1.0;"/><path d="M138.6719,21.7344 L138.6719,19.5781 L146.0625,19.5781 L146.0625,21.7344 L143.5938,21.7344 L143.5938,29.8125 L146.0625,29.8125 L146.0625,31.9688 L138.6719,31.9688 L138.6719,29.8125 L141.1406,29.8125 L141.1406,21.7344 L138.6719,21.7344 Z " fill="#000000"/><text fill="#000000" font-family="sans-serif" font-size="14" font-style="italic" lengthAdjust="spacing" textLength="99" x="179.25" y="24.9951">OutlierScaling</text><text fill="#000000" font-family="sans-serif" font-size="10" font-style="italic" lengthAdjust="spacing" textLength="131" x="163.25" y="37.5791">elki.utilities.scaling.outlier</text><line style="stroke:#181818;stroke-width:0.5;" x1="40" x2="385" y1="44.9375" y2="44.9375"/><ellipse cx="50" cy="58.5859" fill="#84BE84" rx="3" ry="3" style="stroke:#038048;stroke-width:1.0;"/><text fill="#000000" font-family="sans-serif" font-size="14" font-style="italic" lengthAdjust="spacing" textLength="195" x="59" y="61.9326">prepare(OutlierResult): void</text><ellipse cx="50" cy="74.8828" fill="#84BE84" rx="3" ry="3" style="stroke:#038048;stroke-width:1.0;"/><text fill="#000000" font-family="sans-serif" font-size="14" font-style="italic" lengthAdjust="spacing" textLength="321" x="59" y="78.2295">prepare(A, NumberArrayAdapter&lt;?, A&gt;): void</text></g></a><!--MD5=[c988d5583a2b2b6603dc0c0c0b2e7b2c]
reverse link elki.utilities.scaling.outlier.OutlierScaling to elki.utilities.scaling.outlier.OutlierLinearScaling--><g id="link_elki.utilities.scaling.outlier.OutlierScaling_elki.utilities.scaling.outlier.OutlierLinearScaling"><path codeLine="27" d="M212.5,106.25 C212.5,118.62 212.5,132.13 212.5,145.9 " fill="none" id="elki.utilities.scaling.outlier.OutlierScaling-backto-elki.utilities.scaling.outlier.OutlierLinearScaling" style="stroke:#181818;stroke-width:1.0;stroke-dasharray:7.0,7.0;"/><polygon fill="none" points="205.5,106,212.5,86,219.5,106,205.5,106" style="stroke:#181818;stroke-width:1.0;"/></g><rect fill="none" height="11.6406" style="stroke:none;stroke-width:1.0;" width="186" x="111.5" y="401.5"/><text fill="#888888" font-family="sans-serif" font-size="10" lengthAdjust="spacing" textLength="186" x="111.5" y="410.7822">UMLDoclet 2.0.19, PlantUML 1.2022.8</text><!--MD5=[80596e3ab4a600fda5f40e90ac3482af]
@startuml
    remove .*\.(Instance|Par|Parameterizer|Factory)$
    set namespaceSeparator none
    hide empty fields
    hide empty methods

    class "<size:14>OutlierLinearScaling\n<size:10>elki.utilities.scaling.outlier" as elki.utilities.scaling.outlier.OutlierLinearScaling [[OutlierLinearScaling.html]] {
        #min: Double
        #max: Double
        ~factor: double
        ~usemean: boolean
        ~nozeros: boolean
        +OutlierLinearScaling()
        +OutlierLinearScaling(Double, Double, boolean, boolean)
        +getScaled(double): double
        +prepare(OutlierResult): void
        +prepare(A, NumberArrayAdapter<?, A>): void
        +getMin(): double
        +getMax(): double
    }

    interface "<size:14>OutlierScaling\n<size:10>elki.utilities.scaling.outlier" as elki.utilities.scaling.outlier.OutlierScaling [[OutlierScaling.html]] {
        {abstract} +prepare(OutlierResult): void
        {abstract} +prepare(A, NumberArrayAdapter<?, A>): void
    }
    class "<size:14>OutlierLinearScaling.Par\n<size:10>elki.utilities.scaling.outlier" as elki.utilities.scaling.outlier.OutlierLinearScaling.Par [[OutlierLinearScaling.Par.html]]

    elki.utilities.scaling.outlier.OutlierScaling <|.. elki.utilities.scaling.outlier.OutlierLinearScaling
    elki.utilities.scaling.outlier.OutlierLinearScaling +- - elki.utilities.scaling.outlier.OutlierLinearScaling.Par

    center footer UMLDoclet 2.0.19, PlantUML 1.2022.8
@enduml

PlantUML version 1.2022.8(Sun Sep 25 11:00:33 CEST 2022)
(APACHE source distribution)
Java Runtime: OpenJDK Runtime Environment
JVM: OpenJDK 64-Bit Server VM
Default Encoding: UTF-8
Language: de
Country: DE
--></g></svg>