<?xml version="1.0" encoding="UTF-8" standalone="no"?><svg xmlns="http://www.w3.org/2000/svg" xmlns:xlink="http://www.w3.org/1999/xlink" contentStyleType="text/css" height="339px" preserveAspectRatio="none" style="width:361px;height:339px;background:#FFFFFF;" version="1.1" viewBox="0 0 361 339" width="361px" zoomAndPan="magnify"><defs/><g><!--MD5=[e3112940ec1df52a336dd5e558f21a3a]
class elki.utilities.scaling.outlier.RankingPseudoOutlierScaling--><a href="RankingPseudoOutlierScaling.html" target="_top" title="RankingPseudoOutlierScaling.html" xlink:actuate="onRequest" xlink:href="RankingPseudoOutlierScaling.html" xlink:show="new" xlink:title="RankingPseudoOutlierScaling.html" xlink:type="simple"><g id="elem_elki.utilities.scaling.outlier.RankingPseudoOutlierScaling"><rect codeLine="6" fill="#F1F1F1" height="168.0156" id="elki.utilities.scaling.outlier.RankingPseudoOutlierScaling" rx="2.5" ry="2.5" style="stroke:#181818;stroke-width:0.5;" width="335" x="13" y="146"/><ellipse cx="74.75" cy="164.9688" fill="#ADD1B2" rx="11" ry="11" style="stroke:#181818;stroke-width:1.0;"/><path d="M77.7188,170.6094 Q77.1406,170.9063 76.5,171.0469 Q75.8594,171.2031 75.1563,171.2031 Q72.6563,171.2031 71.3281,169.5625 Q70.0156,167.9063 70.0156,164.7813 Q70.0156,161.6563 71.3281,160 Q72.6563,158.3438 75.1563,158.3438 Q75.8594,158.3438 76.5,158.5 Q77.1563,158.6563 77.7188,158.9531 L77.7188,161.6719 Q77.0938,161.0938 76.5,160.8281 Q75.9063,160.5469 75.2813,160.5469 Q73.9375,160.5469 73.25,161.625 Q72.5625,162.6875 72.5625,164.7813 Q72.5625,166.875 73.25,167.9531 Q73.9375,169.0156 75.2813,169.0156 Q75.9063,169.0156 76.5,168.75 Q77.0938,168.4688 77.7188,167.8906 L77.7188,170.6094 Z " fill="#000000"/><text fill="#000000" font-family="sans-serif" font-size="14" lengthAdjust="spacing" textLength="203" x="95.25" y="163.9951">RankingPseudoOutlierScaling</text><text fill="#000000" font-family="sans-serif" font-size="10" lengthAdjust="spacing" textLength="119" x="137.25" y="176.5791">elki.utilities.scaling.outlier</text><line style="stroke:#181818;stroke-width:0.5;" x1="14" x2="347" y1="183.9375" y2="183.9375"/><rect fill="none" height="6" style="stroke:#C82930;stroke-width:1.0;" width="6" x="21" y="194.5859"/><text fill="#000000" font-family="sans-serif" font-size="14" lengthAdjust="spacing" textLength="114" x="33" y="200.9326">scores: double[]</text><rect fill="none" height="6" style="stroke:#C82930;stroke-width:1.0;" width="6" x="21" y="210.8828"/><text fill="#000000" font-family="sans-serif" font-size="14" lengthAdjust="spacing" textLength="121" x="33" y="217.2295">inverted: boolean</text><line style="stroke:#181818;stroke-width:0.5;" x1="14" x2="347" y1="224.5313" y2="224.5313"/><ellipse cx="24" cy="238.1797" fill="#84BE84" rx="3" ry="3" style="stroke:#038048;stroke-width:1.0;"/><text fill="#000000" font-family="sans-serif" font-size="14" lengthAdjust="spacing" textLength="190" x="33" y="241.5264">prepare(OutlierResult): void</text><ellipse cx="24" cy="254.4766" fill="#84BE84" rx="3" ry="3" style="stroke:#038048;stroke-width:1.0;"/><text fill="#000000" font-family="sans-serif" font-size="14" lengthAdjust="spacing" textLength="309" x="33" y="257.8232">prepare(A, NumberArrayAdapter&lt;?, A&gt;): void</text><ellipse cx="24" cy="270.7734" fill="#84BE84" rx="3" ry="3" style="stroke:#038048;stroke-width:1.0;"/><text fill="#000000" font-family="sans-serif" font-size="14" lengthAdjust="spacing" textLength="117" x="33" y="274.1201">getMax(): double</text><ellipse cx="24" cy="287.0703" fill="#84BE84" rx="3" ry="3" style="stroke:#038048;stroke-width:1.0;"/><text fill="#000000" font-family="sans-serif" font-size="14" lengthAdjust="spacing" textLength="114" x="33" y="290.417">getMin(): double</text><ellipse cx="24" cy="303.3672" fill="#84BE84" rx="3" ry="3" style="stroke:#038048;stroke-width:1.0;"/><text fill="#000000" font-family="sans-serif" font-size="14" lengthAdjust="spacing" textLength="184" x="33" y="306.7139">getScaled(double): double</text></g></a><!--MD5=[e6c8dcff37b9bd9602250d8bd6fbf89e]
class elki.utilities.scaling.outlier.OutlierScaling--><a href="OutlierScaling.html" target="_top" title="OutlierScaling.html" xlink:actuate="onRequest" xlink:href="OutlierScaling.html" xlink:show="new" xlink:title="OutlierScaling.html" xlink:type="simple"><g id="elem_elki.utilities.scaling.outlier.OutlierScaling"><rect codeLine="16" fill="#F1F1F1" height="78.5313" id="elki.utilities.scaling.outlier.OutlierScaling" rx="2.5" ry="2.5" style="stroke:#181818;stroke-width:0.5;" width="347" x="7" y="7"/><ellipse cx="110.75" cy="25.9688" fill="#B4A7E5" rx="11" ry="11" style="stroke:#181818;stroke-width:1.0;"/><path d="M106.6719,21.7344 L106.6719,19.5781 L114.0625,19.5781 L114.0625,21.7344 L111.5938,21.7344 L111.5938,29.8125 L114.0625,29.8125 L114.0625,31.9688 L106.6719,31.9688 L106.6719,29.8125 L109.1406,29.8125 L109.1406,21.7344 L106.6719,21.7344 Z " fill="#000000"/><text fill="#000000" font-family="sans-serif" font-size="14" font-style="italic" lengthAdjust="spacing" textLength="99" x="147.25" y="24.9951">OutlierScaling</text><text fill="#000000" font-family="sans-serif" font-size="10" font-style="italic" lengthAdjust="spacing" textLength="131" x="131.25" y="37.5791">elki.utilities.scaling.outlier</text><line style="stroke:#181818;stroke-width:0.5;" x1="8" x2="353" y1="44.9375" y2="44.9375"/><ellipse cx="18" cy="58.5859" fill="#84BE84" rx="3" ry="3" style="stroke:#038048;stroke-width:1.0;"/><text fill="#000000" font-family="sans-serif" font-size="14" font-style="italic" lengthAdjust="spacing" textLength="195" x="27" y="61.9326">prepare(OutlierResult): void</text><ellipse cx="18" cy="74.8828" fill="#84BE84" rx="3" ry="3" style="stroke:#038048;stroke-width:1.0;"/><text fill="#000000" font-family="sans-serif" font-size="14" font-style="italic" lengthAdjust="spacing" textLength="321" x="27" y="78.2295">prepare(A, NumberArrayAdapter&lt;?, A&gt;): void</text></g></a><!--MD5=[977c788f096234364161f0c621f6a01f]
reverse link elki.utilities.scaling.outlier.OutlierScaling to elki.utilities.scaling.outlier.RankingPseudoOutlierScaling--><g id="link_elki.utilities.scaling.outlier.OutlierScaling_elki.utilities.scaling.outlier.RankingPseudoOutlierScaling"><path codeLine="21" d="M180.5,106.47 C180.5,119.01 180.5,132.48 180.5,145.74 " fill="none" id="elki.utilities.scaling.outlier.OutlierScaling-backto-elki.utilities.scaling.outlier.RankingPseudoOutlierScaling" style="stroke:#181818;stroke-width:1.0;stroke-dasharray:7.0,7.0;"/><polygon fill="none" points="173.5,106.44,180.5,86.44,187.5,106.44,173.5,106.44" style="stroke:#181818;stroke-width:1.0;"/></g><rect fill="none" height="11.6406" style="stroke:none;stroke-width:1.0;" width="186" x="80.5" y="320.0156"/><text fill="#888888" font-family="sans-serif" font-size="10" lengthAdjust="spacing" textLength="186" x="80.5" y="329.2979">UMLDoclet 2.0.19, PlantUML 1.2022.8</text><!--MD5=[262265c87cefba1cfb26d52f35c498b4]
@startuml
    remove .*\.(Instance|Par|Parameterizer|Factory)$
    set namespaceSeparator none
    hide empty fields
    hide empty methods

    class "<size:14>RankingPseudoOutlierScaling\n<size:10>elki.utilities.scaling.outlier" as elki.utilities.scaling.outlier.RankingPseudoOutlierScaling [[RankingPseudoOutlierScaling.html]] {
        -scores: double[]
        -inverted: boolean
        +prepare(OutlierResult): void
        +prepare(A, NumberArrayAdapter<?, A>): void
        +getMax(): double
        +getMin(): double
        +getScaled(double): double
    }

    interface "<size:14>OutlierScaling\n<size:10>elki.utilities.scaling.outlier" as elki.utilities.scaling.outlier.OutlierScaling [[OutlierScaling.html]] {
        {abstract} +prepare(OutlierResult): void
        {abstract} +prepare(A, NumberArrayAdapter<?, A>): void
    }

    elki.utilities.scaling.outlier.OutlierScaling <|.. elki.utilities.scaling.outlier.RankingPseudoOutlierScaling

    center footer UMLDoclet 2.0.19, PlantUML 1.2022.8
@enduml

PlantUML version 1.2022.8(Sun Sep 25 11:00:33 CEST 2022)
(APACHE source distribution)
Java Runtime: OpenJDK Runtime Environment
JVM: OpenJDK 64-Bit Server VM
Default Encoding: UTF-8
Language: de
Country: DE
--></g></svg>