<?xml version="1.0" encoding="UTF-8" standalone="no"?><svg xmlns="http://www.w3.org/2000/svg" xmlns:xlink="http://www.w3.org/1999/xlink" contentStyleType="text/css" height="469px" preserveAspectRatio="none" style="width:337px;height:469px;background:#FFFFFF;" version="1.1" viewBox="0 0 337 469" width="337px" zoomAndPan="magnify"><defs/><g><!--MD5=[2f19004eb3f681fed7cafb6bb797f076]
class elki.datasource.parser.ClusteringVectorParser--><a href="ClusteringVectorParser.html" target="_top" title="ClusteringVectorParser.html" xlink:actuate="onRequest" xlink:href="ClusteringVectorParser.html" xlink:show="new" xlink:title="ClusteringVectorParser.html" xlink:type="simple"><g id="elem_elki.datasource.parser.ClusteringVectorParser"><rect codeLine="6" fill="#F1F1F1" height="314.6875" id="elki.datasource.parser.ClusteringVectorParser" rx="2.5" ry="2.5" style="stroke:#181818;stroke-width:0.5;" width="321" x="9" y="129"/><ellipse cx="85.75" cy="147.9688" fill="#ADD1B2" rx="11" ry="11" style="stroke:#181818;stroke-width:1.0;"/><path d="M88.7188,153.6094 Q88.1406,153.9063 87.5,154.0469 Q86.8594,154.2031 86.1563,154.2031 Q83.6563,154.2031 82.3281,152.5625 Q81.0156,150.9063 81.0156,147.7813 Q81.0156,144.6563 82.3281,143 Q83.6563,141.3438 86.1563,141.3438 Q86.8594,141.3438 87.5,141.5 Q88.1563,141.6563 88.7188,141.9531 L88.7188,144.6719 Q88.0938,144.0938 87.5,143.8281 Q86.9063,143.5469 86.2813,143.5469 Q84.9375,143.5469 84.25,144.625 Q83.5625,145.6875 83.5625,147.7813 Q83.5625,149.875 84.25,150.9531 Q84.9375,152.0156 86.2813,152.0156 Q86.9063,152.0156 87.5,151.75 Q88.0938,151.4688 88.7188,150.8906 L88.7188,153.6094 Z " fill="#000000"/><text fill="#000000" font-family="sans-serif" font-size="14" lengthAdjust="spacing" textLength="159" x="106.25" y="146.9951">ClusteringVectorParser</text><text fill="#000000" font-family="sans-serif" font-size="10" lengthAdjust="spacing" textLength="106" x="132.75" y="159.5791">elki.datasource.parser</text><line style="stroke:#181818;stroke-width:0.5;" x1="10" x2="329" y1="166.9375" y2="166.9375"/><rect fill="none" height="6" style="stroke:#C82930;stroke-width:1.0;" width="6" x="17" y="177.5859"/><text fill="#000000" font-family="sans-serif" font-size="14" lengthAdjust="spacing" text-decoration="underline" textLength="93" x="29" y="183.9326">LOG: Logging</text><polygon fill="none" points="20,192.8828,16,198.8828,24,198.8828" style="stroke:#1963A0;stroke-width:1.0;"/><text fill="#000000" font-family="sans-serif" font-size="14" lengthAdjust="spacing" textLength="97" x="29" y="200.2295">numterms: int</text><polygon fill="none" points="20,208.1797,24,212.1797,20,216.1797,16,212.1797" style="stroke:#B38D22;stroke-width:1.0;"/><text fill="#000000" font-family="sans-serif" font-size="14" lengthAdjust="spacing" textLength="127" x="29" y="216.5264">meta: BundleMeta</text><polygon fill="none" points="20,225.4766,16,231.4766,24,231.4766" style="stroke:#1963A0;stroke-width:1.0;"/><text fill="#000000" font-family="sans-serif" font-size="14" lengthAdjust="spacing" textLength="117" x="29" y="232.8232">nextevent: Event</text><polygon fill="none" points="20,241.7734,16,247.7734,24,247.7734" style="stroke:#1963A0;stroke-width:1.0;"/><text fill="#000000" font-family="sans-serif" font-size="14" lengthAdjust="spacing" textLength="187" x="29" y="249.1201">curclu: Clustering&lt;Model&gt;</text><polygon fill="none" points="20,258.0703,16,264.0703,24,264.0703" style="stroke:#1963A0;stroke-width:1.0;"/><text fill="#000000" font-family="sans-serif" font-size="14" lengthAdjust="spacing" textLength="105" x="29" y="265.417">curlbl: LabelList</text><polygon fill="none" points="20,274.3672,16,280.3672,24,280.3672" style="stroke:#1963A0;stroke-width:1.0;"/><text fill="#000000" font-family="sans-serif" font-size="14" lengthAdjust="spacing" textLength="114" x="29" y="281.7139">buf1: IntArrayList</text><polygon fill="none" points="20,290.6641,16,296.6641,24,296.6641" style="stroke:#1963A0;stroke-width:1.0;"/><text fill="#000000" font-family="sans-serif" font-size="14" lengthAdjust="spacing" textLength="129" x="29" y="298.0107">range: DBIDRange</text><polygon fill="none" points="20,306.9609,16,312.9609,24,312.9609" style="stroke:#1963A0;stroke-width:1.0;"/><text fill="#000000" font-family="sans-serif" font-size="14" lengthAdjust="spacing" textLength="145" x="29" y="314.3076">lbl: ArrayList&lt;String&gt;</text><polygon fill="none" points="20,323.2578,16,329.2578,24,329.2578" style="stroke:#1963A0;stroke-width:1.0;"/><text fill="#000000" font-family="sans-serif" font-size="14" lengthAdjust="spacing" textLength="105" x="29" y="330.6045">haslbl: boolean</text><line style="stroke:#181818;stroke-width:0.5;" x1="10" x2="329" y1="337.9063" y2="337.9063"/><ellipse cx="20" cy="351.5547" fill="#84BE84" rx="3" ry="3" style="stroke:#038048;stroke-width:1.0;"/><text fill="#000000" font-family="sans-serif" font-size="14" lengthAdjust="spacing" textLength="295" x="29" y="354.9014">ClusteringVectorParser(CSVReaderFormat)</text><ellipse cx="20" cy="367.8516" fill="#84BE84" rx="3" ry="3" style="stroke:#038048;stroke-width:1.0;"/><text fill="#000000" font-family="sans-serif" font-size="14" lengthAdjust="spacing" textLength="200" x="29" y="371.1982">initStream(InputStream): void</text><ellipse cx="20" cy="384.1484" fill="#84BE84" rx="3" ry="3" style="stroke:#038048;stroke-width:1.0;"/><text fill="#000000" font-family="sans-serif" font-size="14" lengthAdjust="spacing" textLength="127" x="29" y="387.4951">nextEvent(): Event</text><ellipse cx="20" cy="400.4453" fill="#84BE84" rx="3" ry="3" style="stroke:#038048;stroke-width:1.0;"/><text fill="#000000" font-family="sans-serif" font-size="14" lengthAdjust="spacing" textLength="111" x="29" y="403.792">data(int): Object</text><ellipse cx="20" cy="416.7422" fill="#84BE84" rx="3" ry="3" style="stroke:#038048;stroke-width:1.0;"/><text fill="#000000" font-family="sans-serif" font-size="14" lengthAdjust="spacing" textLength="159" x="29" y="420.0889">getMeta(): BundleMeta</text><polygon fill="#FFFF44" points="20,428.0391,24,432.0391,20,436.0391,16,432.0391" style="stroke:#B38D22;stroke-width:1.0;"/><text fill="#000000" font-family="sans-serif" font-size="14" lengthAdjust="spacing" textLength="145" x="29" y="436.3857">getLogger(): Logging</text></g></a><!--MD5=[f3e583dddc76f8f082076a897bd7d6d6]
class elki.datasource.parser.AbstractStreamingParser--><a href="AbstractStreamingParser.html" target="_top" title="AbstractStreamingParser.html" xlink:actuate="onRequest" xlink:href="AbstractStreamingParser.html" xlink:show="new" xlink:title="AbstractStreamingParser.html" xlink:type="simple"><g id="elem_elki.datasource.parser.AbstractStreamingParser"><rect codeLine="25" fill="#F1F1F1" height="62.2344" id="elki.datasource.parser.AbstractStreamingParser" rx="2.5" ry="2.5" style="stroke:#181818;stroke-width:0.5;" width="206" x="66.5" y="7"/><ellipse cx="81.5" cy="25.9688" fill="#A9DCDF" rx="11" ry="11" style="stroke:#181818;stroke-width:1.0;"/><path d="M81.6094,21.3125 L80.4531,26.3906 L82.7813,26.3906 L81.6094,21.3125 Z M80.125,19.0781 L83.1094,19.0781 L86.4688,31.4688 L84.0156,31.4688 L83.25,28.4063 L79.9688,28.4063 L79.2188,31.4688 L76.7813,31.4688 L80.125,19.0781 Z " fill="#000000"/><text fill="#000000" font-family="sans-serif" font-size="14" font-style="italic" lengthAdjust="spacing" textLength="174" x="95.5" y="24.9951">AbstractStreamingParser</text><text fill="#000000" font-family="sans-serif" font-size="10" font-style="italic" lengthAdjust="spacing" textLength="110" x="127.5" y="37.5791">elki.datasource.parser</text><line style="stroke:#181818;stroke-width:0.5;" x1="67.5" x2="271.5" y1="44.9375" y2="44.9375"/><polygon fill="#FFFF44" points="77.5,53.5859,81.5,57.5859,77.5,61.5859,73.5,57.5859" style="stroke:#B38D22;stroke-width:1.0;"/><text fill="#000000" font-family="sans-serif" font-size="14" font-style="italic" lengthAdjust="spacing" textLength="148" x="86.5" y="61.9326">getLogger(): Logging</text></g></a><!--MD5=[356c7c67c5ff3d8b33a9e939120de452]
reverse link elki.datasource.parser.AbstractStreamingParser to elki.datasource.parser.ClusteringVectorParser--><g id="link_elki.datasource.parser.AbstractStreamingParser_elki.datasource.parser.ClusteringVectorParser"><path codeLine="30" d="M169.5,89.62 C169.5,101.55 169.5,114.91 169.5,128.87 " fill="none" id="elki.datasource.parser.AbstractStreamingParser-backto-elki.datasource.parser.ClusteringVectorParser" style="stroke:#181818;stroke-width:1.0;"/><polygon fill="none" points="162.5,89.23,169.5,69.23,176.5,89.23,162.5,89.23" style="stroke:#181818;stroke-width:1.0;"/></g><rect fill="none" height="11.6406" style="stroke:none;stroke-width:1.0;" width="186" x="68.5" y="449.6875"/><text fill="#888888" font-family="sans-serif" font-size="10" lengthAdjust="spacing" textLength="186" x="68.5" y="458.9697">UMLDoclet 2.0.19, PlantUML 1.2022.8</text><!--MD5=[0c79d15c538feb074872521bcf5024b8]
@startuml
    remove .*\.(Instance|Par|Parameterizer|Factory)$
    set namespaceSeparator none
    hide empty fields
    hide empty methods

    class "<size:14>ClusteringVectorParser\n<size:10>elki.datasource.parser" as elki.datasource.parser.ClusteringVectorParser [[ClusteringVectorParser.html]] {
        {static} -LOG: Logging
        ~numterms: int
        #meta: BundleMeta
        ~nextevent: Event
        ~curclu: Clustering<Model>
        ~curlbl: LabelList
        ~buf1: IntArrayList
        ~range: DBIDRange
        ~lbl: ArrayList<String>
        ~haslbl: boolean
        +ClusteringVectorParser(CSVReaderFormat)
        +initStream(InputStream): void
        +nextEvent(): Event
        +data(int): Object
        +getMeta(): BundleMeta
        #getLogger(): Logging
    }

    abstract class "<size:14>AbstractStreamingParser\n<size:10>elki.datasource.parser" as elki.datasource.parser.AbstractStreamingParser [[AbstractStreamingParser.html]] {
        {abstract} #getLogger(): Logging
    }
    class "<size:14>ClusteringVectorParser.Par\n<size:10>elki.datasource.parser" as elki.datasource.parser.ClusteringVectorParser.Par [[ClusteringVectorParser.Par.html]]

    elki.datasource.parser.AbstractStreamingParser <|- - elki.datasource.parser.ClusteringVectorParser
    elki.datasource.parser.ClusteringVectorParser +- - elki.datasource.parser.ClusteringVectorParser.Par

    center footer UMLDoclet 2.0.19, PlantUML 1.2022.8
@enduml

PlantUML version 1.2022.8(Sun Sep 25 11:00:33 CEST 2022)
(APACHE source distribution)
Java Runtime: OpenJDK Runtime Environment
JVM: OpenJDK 64-Bit Server VM
Default Encoding: UTF-8
Language: de
Country: DE
--></g></svg>