<?xml version="1.0" encoding="UTF-8" standalone="no"?><svg xmlns="http://www.w3.org/2000/svg" xmlns:xlink="http://www.w3.org/1999/xlink" contentStyleType="text/css" height="69px" preserveAspectRatio="none" style="width:205px;height:69px;background:#FFFFFF;" version="1.1" viewBox="0 0 205 69" width="205px" zoomAndPan="magnify"><defs/><g><!--MD5=[2f19004eb3f681fed7cafb6bb797f076]
class elki.datasource.parser.ClusteringVectorParser--><a href="ClusteringVectorParser.html" target="_top" title="ClusteringVectorParser.html" xlink:actuate="onRequest" xlink:href="ClusteringVectorParser.html" xlink:show="new" xlink:title="ClusteringVectorParser.html" xlink:type="simple"><g id="elem_elki.datasource.parser.ClusteringVectorParser"><rect codeLine="13" fill="#F1F1F1" height="37.9375" id="elki.datasource.parser.ClusteringVectorParser" rx="2.5" ry="2.5" style="stroke:#181818;stroke-width:0.5;" width="191" x="7" y="7"/><ellipse cx="22" cy="25.9688" fill="#ADD1B2" rx="11" ry="11" style="stroke:#181818;stroke-width:1.0;"/><path d="M24.9688,31.6094 Q24.3906,31.9063 23.75,32.0469 Q23.1094,32.2031 22.4063,32.2031 Q19.9063,32.2031 18.5781,30.5625 Q17.2656,28.9063 17.2656,25.7813 Q17.2656,22.6563 18.5781,21 Q19.9063,19.3438 22.4063,19.3438 Q23.1094,19.3438 23.75,19.5 Q24.4063,19.6563 24.9688,19.9531 L24.9688,22.6719 Q24.3438,22.0938 23.75,21.8281 Q23.1563,21.5469 22.5313,21.5469 Q21.1875,21.5469 20.5,22.625 Q19.8125,23.6875 19.8125,25.7813 Q19.8125,27.875 20.5,28.9531 Q21.1875,30.0156 22.5313,30.0156 Q23.1563,30.0156 23.75,29.75 Q24.3438,29.4688 24.9688,28.8906 L24.9688,31.6094 Z " fill="#000000"/><text fill="#000000" font-family="sans-serif" font-size="14" lengthAdjust="spacing" textLength="159" x="36" y="24.9951">ClusteringVectorParser</text><text fill="#000000" font-family="sans-serif" font-size="10" lengthAdjust="spacing" textLength="106" x="62.5" y="37.5791">elki.datasource.parser</text></g></a><rect fill="none" height="11.6406" style="stroke:none;stroke-width:1.0;" width="186" x="2.5" y="49.9375"/><text fill="#888888" font-family="sans-serif" font-size="10" lengthAdjust="spacing" textLength="186" x="2.5" y="59.2197">UMLDoclet 2.0.19, PlantUML 1.2022.8</text><!--MD5=[eba102913d19c32b63c090715a701e25]
@startuml
    remove .*\.(Instance|Par|Parameterizer|Factory)$
    set namespaceSeparator none
    hide empty fields
    hide empty methods

    class "<size:14>ClusteringVectorParser.Par\n<size:10>elki.datasource.parser" as elki.datasource.parser.ClusteringVectorParser.Par [[ClusteringVectorParser.Par.html]] {
        +make(): ClusteringVectorParser
    }

    abstract class "<size:14>AbstractStreamingParser.Par\n<size:10>elki.datasource.parser" as elki.datasource.parser.AbstractStreamingParser.Par [[AbstractStreamingParser.Par.html]] {
        {abstract} +make(): AbstractStreamingParser
    }
    class "<size:14>ClusteringVectorParser\n<size:10>elki.datasource.parser" as elki.datasource.parser.ClusteringVectorParser [[ClusteringVectorParser.html]]

    elki.datasource.parser.AbstractStreamingParser.Par <|- - elki.datasource.parser.ClusteringVectorParser.Par
    elki.datasource.parser.ClusteringVectorParser +- - elki.datasource.parser.ClusteringVectorParser.Par

    center footer UMLDoclet 2.0.19, PlantUML 1.2022.8
@enduml

PlantUML version 1.2022.8(Sun Sep 25 11:00:33 CEST 2022)
(APACHE source distribution)
Java Runtime: OpenJDK Runtime Environment
JVM: OpenJDK 64-Bit Server VM
Default Encoding: UTF-8
Language: de
Country: DE
--></g></svg>