<?xml version="1.0" encoding="UTF-8" standalone="no"?><svg xmlns="http://www.w3.org/2000/svg" xmlns:xlink="http://www.w3.org/1999/xlink" contentStyleType="text/css" height="383px" preserveAspectRatio="none" style="width:750px;height:383px;background:#FFFFFF;" version="1.1" viewBox="0 0 750 383" width="750px" zoomAndPan="magnify"><defs/><g><!--MD5=[e3899ae2ea81c167390e825a978a5a43]
class elki.datasource.parser.TermFrequencyParser--><a href="TermFrequencyParser.html" target="_top" title="TermFrequencyParser.html" xlink:actuate="onRequest" xlink:href="TermFrequencyParser.html" xlink:show="new" xlink:title="TermFrequencyParser.html" xlink:type="simple"><g id="elem_elki.datasource.parser.TermFrequencyParser"><rect codeLine="6" fill="#F1F1F1" height="249.5" id="elki.datasource.parser.TermFrequencyParser" rx="2.5" ry="2.5" style="stroke:#181818;stroke-width:0.5;" width="730" x="9" y="108"/><ellipse cx="195.75" cy="126.9688" fill="#ADD1B2" rx="11" ry="11" style="stroke:#181818;stroke-width:1.0;"/><path d="M198.7188,132.6094 Q198.1406,132.9063 197.5,133.0469 Q196.8594,133.2031 196.1563,133.2031 Q193.6563,133.2031 192.3281,131.5625 Q191.0156,129.9063 191.0156,126.7813 Q191.0156,123.6563 192.3281,122 Q193.6563,120.3438 196.1563,120.3438 Q196.8594,120.3438 197.5,120.5 Q198.1563,120.6563 198.7188,120.9531 L198.7188,123.6719 Q198.0938,123.0938 197.5,122.8281 Q196.9063,122.5469 196.2813,122.5469 Q194.9375,122.5469 194.25,123.625 Q193.5625,124.6875 193.5625,126.7813 Q193.5625,128.875 194.25,129.9531 Q194.9375,131.0156 196.2813,131.0156 Q196.9063,131.0156 197.5,130.75 Q198.0938,130.4688 198.7188,129.8906 L198.7188,132.6094 Z " fill="#000000"/><text fill="#000000" font-family="sans-serif" font-size="14" lengthAdjust="spacing" textLength="153" x="216.25" y="125.9951">TermFrequencyParser</text><text fill="#000000" font-family="sans-serif" font-size="10" lengthAdjust="spacing" textLength="106" x="239.75" y="138.5791">elki.datasource.parser</text><rect fill="#FFFFFF" height="15.9688" style="stroke:#181818;stroke-width:1.0;stroke-dasharray:2.0,2.0;" width="193" x="549" y="105"/><text fill="#000000" font-family="sans-serif" font-size="12" font-style="italic" lengthAdjust="spacing" textLength="191" x="550" y="117.1387">V extends SparseNumberVector</text><line style="stroke:#181818;stroke-width:0.5;" x1="10" x2="738" y1="145.9375" y2="145.9375"/><rect fill="none" height="6" style="stroke:#C82930;stroke-width:1.0;" width="6" x="17" y="156.5859"/><text fill="#000000" font-family="sans-serif" font-size="14" lengthAdjust="spacing" text-decoration="underline" textLength="93" x="29" y="162.9326">LOG: Logging</text><polygon fill="none" points="20,171.8828,16,177.8828,24,177.8828" style="stroke:#1963A0;stroke-width:1.0;"/><text fill="#000000" font-family="sans-serif" font-size="14" lengthAdjust="spacing" textLength="97" x="29" y="179.2295">numterms: int</text><polygon fill="none" points="20,188.1797,16,194.1797,24,194.1797" style="stroke:#1963A0;stroke-width:1.0;"/><text fill="#000000" font-family="sans-serif" font-size="14" lengthAdjust="spacing" textLength="300" x="29" y="195.5264">keymap: Object2IntOpenHashMap&lt;String&gt;</text><polygon fill="none" points="20,204.4766,16,210.4766,24,210.4766" style="stroke:#1963A0;stroke-width:1.0;"/><text fill="#000000" font-family="sans-serif" font-size="14" lengthAdjust="spacing" textLength="132" x="29" y="211.8232">normalize: boolean</text><rect fill="none" height="6" style="stroke:#C82930;stroke-width:1.0;" width="6" x="17" y="221.7734"/><text fill="#000000" font-family="sans-serif" font-size="14" lengthAdjust="spacing" textLength="397" x="29" y="228.1201">sparsefactory: Factory&lt;V extends SparseNumberVector&gt;</text><polygon fill="none" points="20,237.0703,16,243.0703,24,243.0703" style="stroke:#1963A0;stroke-width:1.0;"/><text fill="#000000" font-family="sans-serif" font-size="14" lengthAdjust="spacing" textLength="231" x="29" y="244.417">values: Int2DoubleOpenHashMap</text><polygon fill="none" points="20,253.3672,16,259.3672,24,259.3672" style="stroke:#1963A0;stroke-width:1.0;"/><text fill="#000000" font-family="sans-serif" font-size="14" lengthAdjust="spacing" textLength="170" x="29" y="260.7139">labels: ArrayList&lt;String&gt;</text><line style="stroke:#181818;stroke-width:0.5;" x1="10" x2="738" y1="268.0156" y2="268.0156"/><ellipse cx="20" cy="281.6641" fill="#84BE84" rx="3" ry="3" style="stroke:#038048;stroke-width:1.0;"/><text fill="#000000" font-family="sans-serif" font-size="14" lengthAdjust="spacing" textLength="522" x="29" y="285.0107">TermFrequencyParser(boolean, Factory&lt;V extends SparseNumberVector&gt;)</text><ellipse cx="20" cy="297.9609" fill="#84BE84" rx="3" ry="3" style="stroke:#038048;stroke-width:1.0;"/><text fill="#000000" font-family="sans-serif" font-size="14" lengthAdjust="spacing" textLength="704" x="29" y="301.3076">TermFrequencyParser(boolean, CSVReaderFormat, long[], Factory&lt;V extends SparseNumberVector&gt;)</text><polygon fill="#FFFF44" points="20,309.2578,24,313.2578,20,317.2578,16,313.2578" style="stroke:#B38D22;stroke-width:1.0;"/><text fill="#000000" font-family="sans-serif" font-size="14" lengthAdjust="spacing" textLength="193" x="29" y="317.6045">parseLineInternal(): boolean</text><polygon fill="#FFFF44" points="20,325.5547,24,329.5547,20,333.5547,16,329.5547" style="stroke:#B38D22;stroke-width:1.0;"/><text fill="#000000" font-family="sans-serif" font-size="14" lengthAdjust="spacing" textLength="597" x="29" y="333.9014">getTypeInformation(int, int): SimpleTypeInformation&lt;V extends SparseNumberVector&gt;</text><polygon fill="#FFFF44" points="20,341.8516,24,345.8516,20,349.8516,16,345.8516" style="stroke:#B38D22;stroke-width:1.0;"/><text fill="#000000" font-family="sans-serif" font-size="14" lengthAdjust="spacing" textLength="145" x="29" y="350.1982">getLogger(): Logging</text></g></a><!--MD5=[5f7026a08228bbdad888853451b93312]
class elki.datasource.parser.NumberVectorLabelParser--><a href="NumberVectorLabelParser.html" target="_top" title="NumberVectorLabelParser.html" xlink:actuate="onRequest" xlink:href="NumberVectorLabelParser.html" xlink:show="new" xlink:title="NumberVectorLabelParser.html" xlink:type="simple"><g id="elem_elki.datasource.parser.NumberVectorLabelParser"><rect codeLine="21" fill="#F1F1F1" height="37.9375" id="elki.datasource.parser.NumberVectorLabelParser" rx="2.5" ry="2.5" style="stroke:#181818;stroke-width:0.5;" width="407" x="170.5" y="10"/><ellipse cx="185.5" cy="28.9688" fill="#ADD1B2" rx="11" ry="11" style="stroke:#181818;stroke-width:1.0;"/><path d="M188.4688,34.6094 Q187.8906,34.9063 187.25,35.0469 Q186.6094,35.2031 185.9063,35.2031 Q183.4063,35.2031 182.0781,33.5625 Q180.7656,31.9063 180.7656,28.7813 Q180.7656,25.6563 182.0781,24 Q183.4063,22.3438 185.9063,22.3438 Q186.6094,22.3438 187.25,22.5 Q187.9063,22.6563 188.4688,22.9531 L188.4688,25.6719 Q187.8438,25.0938 187.25,24.8281 Q186.6563,24.5469 186.0313,24.5469 Q184.6875,24.5469 184,25.625 Q183.3125,26.6875 183.3125,28.7813 Q183.3125,30.875 184,31.9531 Q184.6875,33.0156 186.0313,33.0156 Q186.6563,33.0156 187.25,32.75 Q187.8438,32.4688 188.4688,31.8906 L188.4688,34.6094 Z " fill="#000000"/><text fill="#000000" font-family="sans-serif" font-size="14" lengthAdjust="spacing" textLength="180" x="199.5" y="27.9951">NumberVectorLabelParser</text><text fill="#000000" font-family="sans-serif" font-size="10" lengthAdjust="spacing" textLength="106" x="236.5" y="40.5791">elki.datasource.parser</text><rect fill="#FFFFFF" height="15.9688" style="stroke:#181818;stroke-width:1.0;stroke-dasharray:2.0,2.0;" width="193" x="387.5" y="7"/><text fill="#000000" font-family="sans-serif" font-size="12" font-style="italic" lengthAdjust="spacing" textLength="191" x="388.5" y="19.1387">V extends SparseNumberVector</text></g></a><!--MD5=[0d8eeb32573e88ad28b8a3a54aadc040]
reverse link elki.datasource.parser.NumberVectorLabelParser to elki.datasource.parser.TermFrequencyParser--><g id="link_elki.datasource.parser.NumberVectorLabelParser_elki.datasource.parser.TermFrequencyParser"><path codeLine="24" d="M374,68.64 C374,80.25 374,93.67 374,107.72 " fill="none" id="elki.datasource.parser.NumberVectorLabelParser-backto-elki.datasource.parser.TermFrequencyParser" style="stroke:#181818;stroke-width:1.0;"/><polygon fill="none" points="367,68.28,374,48.28,381,68.28,367,68.28" style="stroke:#181818;stroke-width:1.0;"/></g><rect fill="none" height="11.6406" style="stroke:none;stroke-width:1.0;" width="186" x="275" y="363.5"/><text fill="#888888" font-family="sans-serif" font-size="10" lengthAdjust="spacing" textLength="186" x="275" y="372.7822">UMLDoclet 2.0.19, PlantUML 1.2022.8</text><!--MD5=[4ee83064679967cfe7f069f0c067a792]
@startuml
    remove .*\.(Instance|Par|Parameterizer|Factory)$
    set namespaceSeparator none
    hide empty fields
    hide empty methods

    class "<size:14>TermFrequencyParser\n<size:10>elki.datasource.parser" as elki.datasource.parser.TermFrequencyParser<V extends SparseNumberVector> [[TermFrequencyParser.html]] {
        {static} -LOG: Logging
        ~numterms: int
        ~keymap: Object2IntOpenHashMap<String>
        ~normalize: boolean
        -sparsefactory: Factory<V extends SparseNumberVector>
        ~values: Int2DoubleOpenHashMap
        ~labels: ArrayList<String>
        +TermFrequencyParser(boolean, Factory<V extends SparseNumberVector>)
        +TermFrequencyParser(boolean, CSVReaderFormat, long[], Factory<V extends SparseNumberVector>)
        #parseLineInternal(): boolean
        #getTypeInformation(int, int): SimpleTypeInformation<V extends SparseNumberVector>
        #getLogger(): Logging
    }

    class "<size:14>NumberVectorLabelParser\n<size:10>elki.datasource.parser" as elki.datasource.parser.NumberVectorLabelParser<V extends SparseNumberVector> [[NumberVectorLabelParser.html]]
    class "<size:14>TermFrequencyParser.Par\n<size:10>elki.datasource.parser" as elki.datasource.parser.TermFrequencyParser.Par<V extends SparseNumberVector> [[TermFrequencyParser.Par.html]]

    elki.datasource.parser.NumberVectorLabelParser <|- - elki.datasource.parser.TermFrequencyParser
    elki.datasource.parser.TermFrequencyParser +- - elki.datasource.parser.TermFrequencyParser.Par

    center footer UMLDoclet 2.0.19, PlantUML 1.2022.8
@enduml

PlantUML version 1.2022.8(Sun Sep 25 11:00:33 CEST 2022)
(APACHE source distribution)
Java Runtime: OpenJDK Runtime Environment
JVM: OpenJDK 64-Bit Server VM
Default Encoding: UTF-8
Language: de
Country: DE
--></g></svg>