<?xml version="1.0" encoding="UTF-8" standalone="no"?><svg xmlns="http://www.w3.org/2000/svg" xmlns:xlink="http://www.w3.org/1999/xlink" contentStyleType="text/css" height="266px" preserveAspectRatio="none" style="width:232px;height:266px;background:#FFFFFF;" version="1.1" viewBox="0 0 232 266" width="232px" zoomAndPan="magnify"><defs/><g><!--MD5=[c0399cf2b7e24db06d1e639479cbd6d2]
class elki.logging.statistics.StringStatistic--><a href="StringStatistic.html" target="_top" title="StringStatistic.html" xlink:actuate="onRequest" xlink:href="StringStatistic.html" xlink:show="new" xlink:title="StringStatistic.html" xlink:type="simple"><g id="elem_elki.logging.statistics.StringStatistic"><rect codeLine="6" fill="#F1F1F1" height="135.4219" id="elki.logging.statistics.StringStatistic" rx="2.5" ry="2.5" style="stroke:#181818;stroke-width:0.5;" width="218" x="7" y="105"/><ellipse cx="63.25" cy="123.9688" fill="#ADD1B2" rx="11" ry="11" style="stroke:#181818;stroke-width:1.0;"/><path d="M66.2188,129.6094 Q65.6406,129.9063 65,130.0469 Q64.3594,130.2031 63.6563,130.2031 Q61.1563,130.2031 59.8281,128.5625 Q58.5156,126.9063 58.5156,123.7813 Q58.5156,120.6563 59.8281,119 Q61.1563,117.3438 63.6563,117.3438 Q64.3594,117.3438 65,117.5 Q65.6563,117.6563 66.2188,117.9531 L66.2188,120.6719 Q65.5938,120.0938 65,119.8281 Q64.4063,119.5469 63.7813,119.5469 Q62.4375,119.5469 61.75,120.625 Q61.0625,121.6875 61.0625,123.7813 Q61.0625,125.875 61.75,126.9531 Q62.4375,128.0156 63.7813,128.0156 Q64.4063,128.0156 65,127.75 Q65.5938,127.4688 66.2188,126.8906 L66.2188,129.6094 Z " fill="#000000"/><text fill="#000000" font-family="sans-serif" font-size="14" lengthAdjust="spacing" textLength="94" x="85.25" y="122.9951">StringStatistic</text><text fill="#000000" font-family="sans-serif" font-size="10" lengthAdjust="spacing" textLength="97" x="83.75" y="135.5791">elki.logging.statistics</text><line style="stroke:#181818;stroke-width:0.5;" x1="8" x2="224" y1="142.9375" y2="142.9375"/><rect fill="none" height="6" style="stroke:#C82930;stroke-width:1.0;" width="6" x="15" y="153.5859"/><text fill="#000000" font-family="sans-serif" font-size="14" lengthAdjust="spacing" textLength="67" x="27" y="159.9326">val: String</text><line style="stroke:#181818;stroke-width:0.5;" x1="8" x2="224" y1="167.2344" y2="167.2344"/><ellipse cx="18" cy="180.8828" fill="#84BE84" rx="3" ry="3" style="stroke:#038048;stroke-width:1.0;"/><text fill="#000000" font-family="sans-serif" font-size="14" lengthAdjust="spacing" textLength="192" x="27" y="184.2295">StringStatistic(String, String)</text><ellipse cx="18" cy="197.1797" fill="#84BE84" rx="3" ry="3" style="stroke:#038048;stroke-width:1.0;"/><text fill="#000000" font-family="sans-serif" font-size="14" lengthAdjust="spacing" textLength="144" x="27" y="200.5264">StringStatistic(String)</text><ellipse cx="18" cy="213.4766" fill="#84BE84" rx="3" ry="3" style="stroke:#038048;stroke-width:1.0;"/><text fill="#000000" font-family="sans-serif" font-size="14" lengthAdjust="spacing" textLength="149" x="27" y="216.8232">setString(String): void</text><ellipse cx="18" cy="229.7734" fill="#84BE84" rx="3" ry="3" style="stroke:#038048;stroke-width:1.0;"/><text fill="#000000" font-family="sans-serif" font-size="14" lengthAdjust="spacing" textLength="141" x="27" y="233.1201">formatValue(): String</text></g></a><!--MD5=[832118ffab44a7b29c1a03f900c29074]
class elki.logging.statistics.AbstractStatistic--><a href="AbstractStatistic.html" target="_top" title="AbstractStatistic.html" xlink:actuate="onRequest" xlink:href="AbstractStatistic.html" xlink:show="new" xlink:title="AbstractStatistic.html" xlink:type="simple"><g id="elem_elki.logging.statistics.AbstractStatistic"><rect codeLine="14" fill="#F1F1F1" height="37.9375" id="elki.logging.statistics.AbstractStatistic" rx="2.5" ry="2.5" style="stroke:#181818;stroke-width:0.5;" width="146" x="43" y="7"/><ellipse cx="58" cy="25.9688" fill="#A9DCDF" rx="11" ry="11" style="stroke:#181818;stroke-width:1.0;"/><path d="M58.1094,21.3125 L56.9531,26.3906 L59.2813,26.3906 L58.1094,21.3125 Z M56.625,19.0781 L59.6094,19.0781 L62.9688,31.4688 L60.5156,31.4688 L59.75,28.4063 L56.4688,28.4063 L55.7188,31.4688 L53.2813,31.4688 L56.625,19.0781 Z " fill="#000000"/><text fill="#000000" font-family="sans-serif" font-size="14" font-style="italic" lengthAdjust="spacing" textLength="114" x="72" y="24.9951">AbstractStatistic</text><text fill="#000000" font-family="sans-serif" font-size="10" font-style="italic" lengthAdjust="spacing" textLength="105" x="76.5" y="37.5791">elki.logging.statistics</text></g></a><!--MD5=[02098ab9f8b46dd69a91ff160124c127]
reverse link elki.logging.statistics.AbstractStatistic to elki.logging.statistics.StringStatistic--><g id="link_elki.logging.statistics.AbstractStatistic_elki.logging.statistics.StringStatistic"><path codeLine="16" d="M116,65.22 C116,77.35 116,91.15 116,104.69 " fill="none" id="elki.logging.statistics.AbstractStatistic-backto-elki.logging.statistics.StringStatistic" style="stroke:#181818;stroke-width:1.0;"/><polygon fill="none" points="109,65.01,116,45.01,123,65.01,109,65.01" style="stroke:#181818;stroke-width:1.0;"/></g><rect fill="none" height="11.6406" style="stroke:none;stroke-width:1.0;" width="186" x="16" y="246.4219"/><text fill="#888888" font-family="sans-serif" font-size="10" lengthAdjust="spacing" textLength="186" x="16" y="255.7041">UMLDoclet 2.0.19, PlantUML 1.2022.8</text><!--MD5=[4e85e896d9594e3e81c3de2841808801]
@startuml
    remove .*\.(Instance|Par|Parameterizer|Factory)$
    set namespaceSeparator none
    hide empty fields
    hide empty methods

    class "<size:14>StringStatistic\n<size:10>elki.logging.statistics" as elki.logging.statistics.StringStatistic [[StringStatistic.html]] {
        -val: String
        +StringStatistic(String, String)
        +StringStatistic(String)
        +setString(String): void
        +formatValue(): String
    }

    abstract class "<size:14>AbstractStatistic\n<size:10>elki.logging.statistics" as elki.logging.statistics.AbstractStatistic [[AbstractStatistic.html]]

    elki.logging.statistics.AbstractStatistic <|- - elki.logging.statistics.StringStatistic

    center footer UMLDoclet 2.0.19, PlantUML 1.2022.8
@enduml

PlantUML version 1.2022.8(Sun Sep 25 11:00:33 CEST 2022)
(APACHE source distribution)
Java Runtime: OpenJDK Runtime Environment
JVM: OpenJDK 64-Bit Server VM
Default Encoding: UTF-8
Language: de
Country: DE
--></g></svg>