<?xml version="1.0" encoding="UTF-8" standalone="no"?>
<!DOCTYPE svg PUBLIC "-//W3C//DTD SVG 1.1//EN"
 "http://www.w3.org/Graphics/SVG/1.1/DTD/svg11.dtd">
<!-- Generated by graphviz version 2.40.1 (20161225.0304)
 -->
<!-- Title: G Pages: 1 -->
<svg width="196pt" height="36pt"
 viewBox="0.00 0.00 196.00 36.00" xmlns="http://www.w3.org/2000/svg" xmlns:xlink="http://www.w3.org/1999/xlink">
<g id="graph0" class="graph" transform="scale(1 1) rotate(0) translate(4 32)">
<title>G</title>
<polygon fill="#ffffff" stroke="transparent" points="-4,4 -4,-32 192,-32 192,4 -4,4"/>
<!-- c648210 -->
<g id="node1" class="node">
<title>c648210</title>
<g id="a_node1"><a xlink:href="MTreeInsert.html" xlink:title="&lt;TABLE&gt;">
<g id="a_node1_0"><a xlink:href="MTreeInsert.html" xlink:title="de.lmu.ifi.dbs.elki.index.tree.metrical.mtreevariants.strategies.insert.MTreeInsert" target="_parent">
<polygon fill="none" stroke="#000000" points=".5,0 .5,-28 57.5,-28 57.5,0 .5,0"/>
<text text-anchor="start" x="7.5" y="-17.6" font-family="Roboto" font-size="8.00" fill="#000000"> «interface» </text>
<text text-anchor="start" x="4.5" y="-7.6" font-family="Roboto" font-size="8.00" fill="#000000"> </text>
<text text-anchor="start" x="7.5" y="-7.6" font-family="Roboto" font-size="8.00" fill="#000000">MTreeInsert</text>
<text text-anchor="start" x="50.5" y="-7.6" font-family="Roboto" font-size="8.00" fill="#000000"> </text>
</a>
</g>
</a>
</g>
</g>
<!-- c648211 -->
<g id="node2" class="node">
<title>c648211</title>
<g id="a_node2"><a xlink:href="MinimumEnlargementInsert.html" xlink:title="&lt;TABLE&gt;">
<g id="a_node2_1"><a xlink:href="MinimumEnlargementInsert.html" xlink:title="de.lmu.ifi.dbs.elki.index.tree.metrical.mtreevariants.strategies.insert.MinimumEnlargementInsert" target="_parent">
<polygon fill="none" stroke="#000000" points="75.5,-5 75.5,-22 188.5,-22 188.5,-5 75.5,-5"/>
<text text-anchor="start" x="79.5" y="-12.6" font-family="Roboto" font-size="8.00" fill="#000000"> </text>
<text text-anchor="start" x="82.5" y="-12.6" font-family="Roboto" font-size="8.00" fill="#000000">MinimumEnlargementInsert</text>
<text text-anchor="start" x="181.5" y="-12.6" font-family="Roboto" font-size="8.00" fill="#000000"> </text>
</a>
</g>
</a>
</g>
</g>
<!-- c648210&#45;&gt;c648211 -->
<g id="edge1" class="edge">
<title>c648210&#45;&gt;c648211</title>
<path fill="none" stroke="#000000" stroke-dasharray="5,2" d="M67.2787,-14C69.8089,-14 72.3828,-14 74.9739,-14"/>
<polygon fill="none" stroke="#000000" points="67.1913,-10.5001 57.1912,-14 67.1912,-17.5001 67.1913,-10.5001"/>
</g>
</g>
</svg>
