<?xml version="1.0" encoding="UTF-8" standalone="no"?>
<!DOCTYPE svg PUBLIC "-//W3C//DTD SVG 1.1//EN"
 "http://www.w3.org/Graphics/SVG/1.1/DTD/svg11.dtd">
<!-- Generated by graphviz version 2.40.1 (20161225.0304)
 -->
<!-- Title: G Pages: 1 -->
<svg width="629pt" height="85pt"
 viewBox="0.00 0.00 629.00 85.29" xmlns="http://www.w3.org/2000/svg" xmlns:xlink="http://www.w3.org/1999/xlink">
<g id="graph0" class="graph" transform="scale(1 1) rotate(0) translate(4 81.2862)">
<title>G</title>
<polygon fill="#ffffff" stroke="transparent" points="-4,4 -4,-81.2862 625,-81.2862 625,4 -4,4"/>
<!-- c6978178 -->
<g id="node1" class="node">
<title>c6978178</title>
<g id="a_node1"><a xlink:href="../../MTreeEntry.html" xlink:title="&lt;TABLE&gt;">
<g id="a_node1_0"><a xlink:href="../../MTreeEntry.html" xlink:title="de.lmu.ifi.dbs.elki.index.tree.metrical.mtreevariants.MTreeEntry" target="_parent">
<polygon fill="none" stroke="#000000" points="438.5,.5 438.5,-38.5 621.5,-38.5 621.5,.5 438.5,.5"/>
<text text-anchor="start" x="508.5" y="-28.1" font-family="Roboto" font-size="8.00" fill="#000000"> «interface» </text>
<text text-anchor="start" x="506" y="-18.1" font-family="Roboto" font-size="8.00" fill="#000000"> </text>
<text text-anchor="start" x="509" y="-18.1" font-family="Roboto" font-size="8.00" fill="#000000">MTreeEntry</text>
<text text-anchor="start" x="551" y="-18.1" font-family="Roboto" font-size="8.00" fill="#000000"> </text>
<text text-anchor="start" x="442.5" y="-7.1" font-family="Roboto" font-size="8.00" fill="#000000"> </text>
<text text-anchor="start" x="445.5" y="-7.1" font-family="Roboto" font-size="7.00" fill="#000000">de.lmu.ifi.dbs.elki.index.tree.metrical.mtreevariants</text>
<text text-anchor="start" x="614.5" y="-7.1" font-family="Roboto" font-size="8.00" fill="#000000"> </text>
</a>
</g>
</a>
</g>
</g>
<!-- c6978235 -->
<g id="node2" class="node">
<title>c6978235</title>
<g id="a_node2"><a xlink:href="MTreeInsert.html" xlink:title="&lt;TABLE&gt;">
<g id="a_node2_1"><a xlink:href="MTreeInsert.html" xlink:title="de.lmu.ifi.dbs.elki.index.tree.metrical.mtreevariants.strategies.insert.MTreeInsert" target="_parent">
<polygon fill="none" stroke="#000000" points=".5,-36.5 .5,-64.5 57.5,-64.5 57.5,-36.5 .5,-36.5"/>
<text text-anchor="start" x="7.5" y="-54.1" font-family="Roboto" font-size="8.00" fill="#000000"> «interface» </text>
<text text-anchor="start" x="4.5" y="-44.1" font-family="Roboto" font-size="8.00" fill="#000000"> </text>
<text text-anchor="start" x="7.5" y="-44.1" font-family="Roboto" font-size="8.00" fill="#000000">MTreeInsert</text>
<text text-anchor="start" x="50.5" y="-44.1" font-family="Roboto" font-size="8.00" fill="#000000"> </text>
</a>
</g>
</a>
</g>
</g>
<!-- c6978235&#45;&gt;c6978178 -->
<g id="edge4" class="edge">
<title>c6978235&#45;&gt;c6978178</title>
<path fill="none" stroke="#000000" stroke-dasharray="5,2" d="M57.093,-60.36C63.2568,-62.0801 69.7883,-63.6037 76,-64.5 231.5296,-86.9429 275.4103,-77.7166 429,-44.5 433.6432,-43.4958 438.3985,-42.4326 443.1934,-41.3333"/>
<polygon fill="#000000" stroke="#000000" points="453.0676,-39.0333 444.3492,-45.6846 448.198,-40.1676 443.3283,-41.3019 443.3283,-41.3019 443.3283,-41.3019 448.198,-40.1676 442.3074,-36.9192 453.0676,-39.0333 453.0676,-39.0333"/>
</g>
<!-- c6978236 -->
<g id="node3" class="node">
<title>c6978236</title>
<g id="a_node3"><a xlink:href="MinimumEnlargementInsert.html" xlink:title="&lt;TABLE&gt;">
<g id="a_node3_2"><a xlink:href="MinimumEnlargementInsert.html" xlink:title="de.lmu.ifi.dbs.elki.index.tree.metrical.mtreevariants.strategies.insert.MinimumEnlargementInsert" target="_parent">
<polygon fill="#fffacd" stroke="transparent" points="76,-42 76,-59 189,-59 189,-42 76,-42"/>
<polygon fill="none" stroke="#000000" points="76.5,-41.5 76.5,-58.5 189.5,-58.5 189.5,-41.5 76.5,-41.5"/>
<text text-anchor="start" x="80.5" y="-49.1" font-family="Roboto" font-size="8.00" fill="#000000"> </text>
<text text-anchor="start" x="83.5" y="-49.1" font-family="Roboto" font-size="8.00" fill="#000000">MinimumEnlargementInsert</text>
<text text-anchor="start" x="182.5" y="-49.1" font-family="Roboto" font-size="8.00" fill="#000000"> </text>
</a>
</g>
</a>
</g>
</g>
<!-- c6978235&#45;&gt;c6978236 -->
<g id="edge1" class="edge">
<title>c6978235&#45;&gt;c6978236</title>
<path fill="none" stroke="#000000" stroke-dasharray="5,2" d="M67.2453,-50.5C70.1093,-50.5 73.0308,-50.5 75.9717,-50.5"/>
<polygon fill="none" stroke="#000000" points="67.1938,-47.0001 57.1938,-50.5 67.1937,-54.0001 67.1938,-47.0001"/>
</g>
<!-- c6978257 -->
<g id="node4" class="node">
<title>c6978257</title>
<g id="a_node4"><a xlink:href="../../AbstractMTreeNode.html" xlink:title="&lt;TABLE&gt;">
<g id="a_node4_3"><a xlink:href="../../AbstractMTreeNode.html" xlink:title="de.lmu.ifi.dbs.elki.index.tree.metrical.mtreevariants.AbstractMTreeNode" target="_parent">
<polygon fill="none" stroke="#000000" points="208.5,-5.5 208.5,-33.5 391.5,-33.5 391.5,-5.5 208.5,-5.5"/>
<text text-anchor="start" x="262" y="-24.1" font-family="Roboto" font-size="8.00" fill="#000000"> </text>
<text text-anchor="start" x="265" y="-24.1" font-family="Roboto" font-style="italic" font-size="8.00" fill="#000000">AbstractMTreeNode</text>
<text text-anchor="start" x="335" y="-24.1" font-family="Roboto" font-size="8.00" fill="#000000"> </text>
<text text-anchor="start" x="212.5" y="-13.1" font-family="Roboto" font-size="8.00" fill="#000000"> </text>
<text text-anchor="start" x="215.5" y="-13.1" font-family="Roboto" font-size="7.00" fill="#000000">de.lmu.ifi.dbs.elki.index.tree.metrical.mtreevariants</text>
<text text-anchor="start" x="384.5" y="-13.1" font-family="Roboto" font-size="8.00" fill="#000000"> </text>
</a>
</g>
</a>
</g>
</g>
<!-- c6978235&#45;&gt;c6978257 -->
<g id="edge3" class="edge">
<title>c6978235&#45;&gt;c6978257</title>
<path fill="none" stroke="#000000" stroke-dasharray="5,2" d="M57.152,-41.0004C63.3119,-39.256 69.8268,-37.6314 76,-36.5 115.441,-29.2712 159.3411,-25.1075 197.7208,-22.7126"/>
<polygon fill="#000000" stroke="#000000" points="207.8705,-22.112 198.1538,-27.1949 202.8792,-22.4074 197.888,-22.7028 197.888,-22.7028 197.888,-22.7028 202.8792,-22.4074 197.6221,-18.2107 207.8705,-22.112 207.8705,-22.112"/>
</g>
<!-- c6978236&#45;&gt;c6978178 -->
<g id="edge6" class="edge">
<title>c6978236&#45;&gt;c6978178</title>
<path fill="none" stroke="#000000" stroke-dasharray="5,2" d="M189.0788,-49.337C241.5174,-47.9122 321.6539,-44.8532 391,-38.5 403.0147,-37.3993 415.5857,-36.0096 428.044,-34.4847"/>
<polygon fill="#000000" stroke="#000000" points="437.9983,-33.2357 428.6364,-38.9457 433.0372,-33.8582 428.0761,-34.4807 428.0761,-34.4807 428.0761,-34.4807 433.0372,-33.8582 427.5158,-30.0157 437.9983,-33.2357 437.9983,-33.2357"/>
</g>
<!-- c6978236&#45;&gt;c6978257 -->
<g id="edge5" class="edge">
<title>c6978236&#45;&gt;c6978257</title>
<path fill="none" stroke="#000000" stroke-dasharray="5,2" d="M178.5756,-41.9471C189.6978,-39.8824 201.9371,-37.6105 214.2276,-35.329"/>
<polygon fill="#000000" stroke="#000000" points="224.0749,-33.5011 215.0642,-39.7507 219.1589,-34.4137 214.2429,-35.3263 214.2429,-35.3263 214.2429,-35.3263 219.1589,-34.4137 213.4215,-30.9018 224.0749,-33.5011 224.0749,-33.5011"/>
</g>
<!-- c6978257&#45;&gt;c6978178 -->
<g id="edge2" class="edge">
<title>c6978257&#45;&gt;c6978178</title>
<path fill="none" stroke="#000000" d="M403.0773,-19.5C411.2354,-19.5 419.4709,-19.5 427.6175,-19.5"/>
<polygon fill="none" stroke="#000000" points="403.063,-19.5001 397.0629,-23.5 391.063,-19.5 397.063,-15.5 403.063,-19.5001"/>
<polygon fill="#000000" stroke="#000000" points="437.8763,-19.5 427.8764,-24.0001 432.8763,-19.5 427.8763,-19.5001 427.8763,-19.5001 427.8763,-19.5001 432.8763,-19.5 427.8763,-15.0001 437.8763,-19.5 437.8763,-19.5"/>
<text text-anchor="middle" x="414.5" y="-21.9" font-family="Roboto" font-size="7.00" fill="#000000">contains</text>
</g>
</g>
</svg>
