<?xml version="1.0" encoding="UTF-8" standalone="no"?>
<!DOCTYPE svg PUBLIC "-//W3C//DTD SVG 1.1//EN"
 "http://www.w3.org/Graphics/SVG/1.1/DTD/svg11.dtd">
<!-- Generated by graphviz version 2.40.1 (20161225.0304)
 -->
<!-- Title: G Pages: 1 -->
<svg width="586pt" height="125pt"
 viewBox="0.00 0.00 586.00 125.39" xmlns="http://www.w3.org/2000/svg" xmlns:xlink="http://www.w3.org/1999/xlink">
<g id="graph0" class="graph" transform="scale(1 1) rotate(0) translate(4 121.3862)">
<title>G</title>
<polygon fill="#ffffff" stroke="transparent" points="-4,4 -4,-121.3862 582,-121.3862 582,4 -4,4"/>
<!-- c5739251 -->
<g id="node1" class="node">
<title>c5739251</title>
<g id="a_node1"><a xlink:href="../BestOfMultipleKMeans.html" xlink:title="&lt;TABLE&gt;">
<g id="a_node1_0"><a xlink:href="../BestOfMultipleKMeans.html" xlink:title="de.lmu.ifi.dbs.elki.algorithm.clustering.kmeans.BestOfMultipleKMeans" target="_parent">
<polygon fill="none" stroke="#000000" points="0,-39 0,-67 168,-67 168,-39 0,-39"/>
<text text-anchor="start" x="39.5" y="-57.6" font-family="Roboto" font-size="8.00" fill="#000000"> </text>
<text text-anchor="start" x="42.5" y="-57.6" font-family="Roboto" font-size="8.00" fill="#000000">BestOfMultipleKMeans</text>
<text text-anchor="start" x="125.5" y="-57.6" font-family="Roboto" font-size="8.00" fill="#000000"> </text>
<text text-anchor="start" x="4" y="-46.6" font-family="Roboto" font-size="8.00" fill="#000000"> </text>
<text text-anchor="start" x="7" y="-46.6" font-family="Roboto" font-size="7.00" fill="#000000">de.lmu.ifi.dbs.elki.algorithm.clustering.kmeans</text>
<text text-anchor="start" x="161" y="-46.6" font-family="Roboto" font-size="8.00" fill="#000000"> </text>
</a>
</g>
</a>
</g>
</g>
<!-- c5739315 -->
<g id="node3" class="node">
<title>c5739315</title>
<g id="a_node3"><a xlink:href="KMeansQualityMeasure.html" xlink:title="&lt;TABLE&gt;">
<g id="a_node3_1"><a xlink:href="KMeansQualityMeasure.html" xlink:title="de.lmu.ifi.dbs.elki.algorithm.clustering.kmeans.quality.KMeansQualityMeasure" target="_parent">
<polygon fill="#fffacd" stroke="transparent" points="186,-34 186,-62 286,-62 286,-34 186,-34"/>
<polygon fill="none" stroke="#000000" points="186,-34 186,-62 286,-62 286,-34 186,-34"/>
<text text-anchor="start" x="214.5" y="-51.6" font-family="Roboto" font-size="8.00" fill="#000000"> «interface» </text>
<text text-anchor="start" x="190" y="-41.6" font-family="Roboto" font-size="8.00" fill="#000000"> </text>
<text text-anchor="start" x="193" y="-41.6" font-family="Roboto" font-size="8.00" fill="#000000">KMeansQualityMeasure</text>
<text text-anchor="start" x="279" y="-41.6" font-family="Roboto" font-size="8.00" fill="#000000"> </text>
</a>
</g>
</a>
</g>
</g>
<!-- c5739251&#45;&gt;c5739315 -->
<g id="edge1" class="edge">
<title>c5739251&#45;&gt;c5739315</title>
<path fill="none" stroke="#000000" d="M180.0414,-49.8407C181.9709,-49.7773 183.8818,-49.7144 185.7687,-49.6523"/>
<polygon fill="none" stroke="#000000" points="179.9959,-49.8421 174.1307,-54.0373 168.0024,-50.2368 173.8676,-46.0416 179.9959,-49.8421"/>
</g>
<!-- c5739613 -->
<g id="node6" class="node">
<title>c5739613</title>
<g id="a_node6"><a xlink:href="../../../../data/NumberVector.html" xlink:title="&lt;TABLE&gt;">
<g id="a_node6_2"><a xlink:href="../../../../data/NumberVector.html" xlink:title="de.lmu.ifi.dbs.elki.data.NumberVector" target="_parent">
<polygon fill="#fffacd" stroke="transparent" points="491,-16.5 491,-55.5 578,-55.5 578,-16.5 491,-16.5"/>
<polygon fill="none" stroke="#000000" points="491.5,-16 491.5,-55 578.5,-55 578.5,-16 491.5,-16"/>
<text text-anchor="start" x="513.5" y="-44.6" font-family="Roboto" font-size="8.00" fill="#000000"> «interface» </text>
<text text-anchor="start" x="506.5" y="-34.6" font-family="Roboto" font-size="8.00" fill="#000000"> </text>
<text text-anchor="start" x="509.5" y="-34.6" font-family="Roboto" font-size="8.00" fill="#000000">NumberVector</text>
<text text-anchor="start" x="560.5" y="-34.6" font-family="Roboto" font-size="8.00" fill="#000000"> </text>
<text text-anchor="start" x="495.5" y="-23.6" font-family="Roboto" font-size="8.00" fill="#000000"> </text>
<text text-anchor="start" x="498.5" y="-23.6" font-family="Roboto" font-size="7.00" fill="#000000">de.lmu.ifi.dbs.elki.data</text>
<text text-anchor="start" x="571.5" y="-23.6" font-family="Roboto" font-size="8.00" fill="#000000"> </text>
</a>
</g>
</a>
</g>
</g>
<!-- c5739251&#45;&gt;c5739613 -->
<g id="edge5" class="edge">
<title>c5739251&#45;&gt;c5739613</title>
<path fill="none" stroke="#000000" stroke-dasharray="5,2" d="M117.2322,-67.0455C186.3261,-94.0616 349.3361,-146.3313 473,-96 489.3204,-89.3576 503.6736,-76.0703 514.4003,-63.6847"/>
<polygon fill="#000000" stroke="#000000" points="520.9098,-55.7546 518.0433,-66.3392 517.7374,-59.6193 514.565,-63.484 514.565,-63.484 514.565,-63.484 517.7374,-59.6193 511.0868,-60.6289 520.9098,-55.7546 520.9098,-55.7546"/>
</g>
<!-- c5739314 -->
<g id="node2" class="node">
<title>c5739314</title>
<g id="a_node2"><a xlink:href="AbstractKMeansQualityMeasure.html" xlink:title="&lt;TABLE&gt;">
<g id="a_node2_3"><a xlink:href="AbstractKMeansQualityMeasure.html" xlink:title="de.lmu.ifi.dbs.elki.algorithm.clustering.kmeans.quality.AbstractKMeansQualityMeasure" target="_parent">
<polygon fill="none" stroke="#000000" points="325.5,-58 325.5,-75 452.5,-75 452.5,-58 325.5,-58"/>
<text text-anchor="start" x="329.5" y="-65.6" font-family="Roboto" font-size="8.00" fill="#000000"> </text>
<text text-anchor="start" x="332.5" y="-65.6" font-family="Roboto" font-style="italic" font-size="8.00" fill="#000000">AbstractKMeansQualityMeasure</text>
<text text-anchor="start" x="445.5" y="-65.6" font-family="Roboto" font-size="8.00" fill="#000000"> </text>
</a>
</g>
</a>
</g>
</g>
<!-- c5739314&#45;&gt;c5739613 -->
<g id="edge6" class="edge">
<title>c5739314&#45;&gt;c5739613</title>
<path fill="none" stroke="#000000" stroke-dasharray="5,2" d="M445.0204,-58.4846C454.3979,-56.8288 463.9966,-54.9844 473,-53 475.647,-52.4166 478.3498,-51.7894 481.0736,-51.1321"/>
<polygon fill="#000000" stroke="#000000" points="490.9662,-48.6449 482.3653,-55.4475 486.1171,-49.8641 481.268,-51.0833 481.268,-51.0833 481.268,-51.0833 486.1171,-49.8641 480.1707,-46.7191 490.9662,-48.6449 490.9662,-48.6449"/>
</g>
<!-- c5739315&#45;&gt;c5739314 -->
<g id="edge2" class="edge">
<title>c5739315&#45;&gt;c5739314</title>
<path fill="none" stroke="#000000" stroke-dasharray="5,2" d="M296.3622,-55.5205C305.7301,-56.6877 315.4328,-57.8965 324.8702,-59.0724"/>
<polygon fill="none" stroke="#000000" points="296.7129,-52.0372 286.3568,-54.274 295.8474,-58.9835 296.7129,-52.0372"/>
</g>
<!-- c5739318 -->
<g id="node4" class="node">
<title>c5739318</title>
<g id="a_node4"><a xlink:href="WithinClusterMeanDistanceQualityMeasure.html" xlink:title="&lt;TABLE&gt;">
<g id="a_node4_4"><a xlink:href="WithinClusterMeanDistanceQualityMeasure.html" xlink:title="de.lmu.ifi.dbs.elki.algorithm.clustering.kmeans.quality.WithinClusterMeanDistanceQualityMeasure" target="_parent">
<polygon fill="none" stroke="#000000" points="304.5,-30 304.5,-47 473.5,-47 473.5,-30 304.5,-30"/>
<text text-anchor="start" x="308.5" y="-37.6" font-family="Roboto" font-size="8.00" fill="#000000"> </text>
<text text-anchor="start" x="311.5" y="-37.6" font-family="Roboto" font-size="8.00" fill="#000000">WithinClusterMeanDistanceQualityMeasure</text>
<text text-anchor="start" x="466.5" y="-37.6" font-family="Roboto" font-size="8.00" fill="#000000"> </text>
</a>
</g>
</a>
</g>
</g>
<!-- c5739315&#45;&gt;c5739318 -->
<g id="edge3" class="edge">
<title>c5739315&#45;&gt;c5739318</title>
<path fill="none" stroke="#000000" stroke-dasharray="5,2" d="M296.5981,-44.4237C298.9717,-44.2836 301.3664,-44.1423 303.7725,-44.0003"/>
<polygon fill="none" stroke="#000000" points="296.1332,-40.945 286.3568,-45.0281 296.5457,-47.9328 296.1332,-40.945"/>
</g>
<!-- c5739315&#45;&gt;c5739613 -->
<g id="edge7" class="edge">
<title>c5739315&#45;&gt;c5739613</title>
<path fill="none" stroke="#000000" stroke-dasharray="5,2" d="M258.3307,-62.0216C271.1613,-69.2445 287.886,-77.2965 304,-81 377.2026,-97.8242 401.6043,-104.331 473,-81 485.0844,-77.051 496.762,-69.7261 506.6355,-62.1162"/>
<polygon fill="#000000" stroke="#000000" points="514.4742,-55.7247 509.5677,-65.5317 510.5991,-58.8844 506.724,-62.0441 506.724,-62.0441 506.724,-62.0441 510.5991,-58.8844 503.8803,-58.5565 514.4742,-55.7247 514.4742,-55.7247"/>
</g>
<!-- c5739328 -->
<g id="node5" class="node">
<title>c5739328</title>
<g id="a_node5"><a xlink:href="../XMeans.html" xlink:title="&lt;TABLE&gt;">
<g id="a_node5_5"><a xlink:href="../XMeans.html" xlink:title="de.lmu.ifi.dbs.elki.algorithm.clustering.kmeans.XMeans" target="_parent">
<polygon fill="none" stroke="#000000" points="0,0 0,-28 168,-28 168,0 0,0"/>
<text text-anchor="start" x="66" y="-18.6" font-family="Roboto" font-size="8.00" fill="#000000"> </text>
<text text-anchor="start" x="69" y="-18.6" font-family="Roboto" font-size="8.00" fill="#000000">XMeans</text>
<text text-anchor="start" x="99" y="-18.6" font-family="Roboto" font-size="8.00" fill="#000000"> </text>
<text text-anchor="start" x="4" y="-7.6" font-family="Roboto" font-size="8.00" fill="#000000"> </text>
<text text-anchor="start" x="7" y="-7.6" font-family="Roboto" font-size="7.00" fill="#000000">de.lmu.ifi.dbs.elki.algorithm.clustering.kmeans</text>
<text text-anchor="start" x="161" y="-7.6" font-family="Roboto" font-size="8.00" fill="#000000"> </text>
</a>
</g>
</a>
</g>
</g>
<!-- c5739328&#45;&gt;c5739315 -->
<g id="edge4" class="edge">
<title>c5739328&#45;&gt;c5739315</title>
<path fill="none" stroke="#000000" d="M158.4563,-30.6547C167.7827,-32.7409 177.14,-34.834 185.9663,-36.8083"/>
<polygon fill="none" stroke="#000000" points="158.4124,-30.645 151.6839,-33.2387 146.7018,-28.0254 153.4303,-25.4316 158.4124,-30.645"/>
</g>
<!-- c5739328&#45;&gt;c5739613 -->
<g id="edge8" class="edge">
<title>c5739328&#45;&gt;c5739613</title>
<path fill="none" stroke="#000000" stroke-dasharray="5,2" d="M168.0848,-12.7798C247.0314,-12.485 368.3263,-14.2194 473,-25 475.549,-25.2625 478.1513,-25.5703 480.7754,-25.9127"/>
<polygon fill="#000000" stroke="#000000" points="490.9375,-27.3827 480.3963,-30.4046 485.9891,-26.6668 481.0406,-25.951 481.0406,-25.951 481.0406,-25.951 485.9891,-26.6668 481.6848,-21.4973 490.9375,-27.3827 490.9375,-27.3827"/>
</g>
</g>
</svg>
