<?xml version="1.0" encoding="UTF-8" standalone="no"?>
<!DOCTYPE svg PUBLIC "-//W3C//DTD SVG 1.1//EN"
 "http://www.w3.org/Graphics/SVG/1.1/DTD/svg11.dtd">
<!-- Generated by graphviz version 2.40.1 (20161225.0304)
 -->
<!-- Title: G Pages: 1 -->
<svg width="417pt" height="59pt"
 viewBox="0.00 0.00 417.00 58.50" xmlns="http://www.w3.org/2000/svg" xmlns:xlink="http://www.w3.org/1999/xlink">
<g id="graph0" class="graph" transform="scale(1 1) rotate(0) translate(4 54.5)">
<title>G</title>
<polygon fill="#ffffff" stroke="transparent" points="-4,4 -4,-54.5 413,-54.5 413,4 -4,4"/>
<!-- c7074109 -->
<g id="node1" class="node">
<title>c7074109</title>
<g id="a_node1"><a xlink:href="../AbstractMkTreeUnified.html" xlink:title="&lt;TABLE&gt;">
<g id="a_node1_0"><a xlink:href="../AbstractMkTreeUnified.html" xlink:title="de.lmu.ifi.dbs.elki.index.tree.metrical.mtreevariants.mktrees.AbstractMkTreeUnified" target="_parent">
<polygon fill="none" stroke="#000000" points=".5,0 .5,-28 211.5,-28 211.5,0 .5,0"/>
<text text-anchor="start" x="63" y="-18.6" font-family="Roboto" font-size="8.00" fill="#000000"> </text>
<text text-anchor="start" x="66" y="-18.6" font-family="Roboto" font-style="italic" font-size="8.00" fill="#000000">AbstractMkTreeUnified</text>
<text text-anchor="start" x="146" y="-18.6" font-family="Roboto" font-size="8.00" fill="#000000"> </text>
<text text-anchor="start" x="4.5" y="-7.6" font-family="Roboto" font-size="8.00" fill="#000000"> </text>
<text text-anchor="start" x="7.5" y="-7.6" font-family="Roboto" font-size="7.00" fill="#000000">de.lmu.ifi.dbs.elki.index.tree.metrical.mtreevariants.mktrees</text>
<text text-anchor="start" x="204.5" y="-7.6" font-family="Roboto" font-size="8.00" fill="#000000"> </text>
</a>
</g>
</a>
</g>
</g>
<!-- c7074124 -->
<g id="node4" class="node">
<title>c7074124</title>
<g id="a_node4"><a xlink:href="MkMaxTree.html" xlink:title="&lt;TABLE&gt;">
<g id="a_node4_1"><a xlink:href="MkMaxTree.html" xlink:title="de.lmu.ifi.dbs.elki.index.tree.metrical.mtreevariants.mktrees.mkmax.MkMaxTree" target="_parent">
<polygon fill="#fffacd" stroke="transparent" points="230,-5.5 230,-22.5 285,-22.5 285,-5.5 230,-5.5"/>
<polygon fill="none" stroke="#000000" points="230.5,-5 230.5,-22 285.5,-22 285.5,-5 230.5,-5"/>
<text text-anchor="start" x="234.5" y="-12.6" font-family="Roboto" font-size="8.00" fill="#000000"> </text>
<text text-anchor="start" x="237.5" y="-12.6" font-family="Roboto" font-style="italic" font-size="8.00" fill="#000000">MkMaxTree</text>
<text text-anchor="start" x="278.5" y="-12.6" font-family="Roboto" font-size="8.00" fill="#000000"> </text>
</a>
</g>
</a>
</g>
</g>
<!-- c7074109&#45;&gt;c7074124 -->
<g id="edge2" class="edge">
<title>c7074109&#45;&gt;c7074124</title>
<path fill="none" stroke="#000000" d="M221.089,-14C224.1141,-14 227.023,-14 229.7866,-14"/>
<polygon fill="none" stroke="#000000" points="221.0691,-10.5001 211.0691,-14 221.069,-17.5001 221.0691,-10.5001"/>
</g>
<!-- c7074121 -->
<g id="node2" class="node">
<title>c7074121</title>
<g id="a_node2"><a xlink:href="MkMaxTreeNode.html" xlink:title="&lt;TABLE&gt;">
<g id="a_node2_2"><a xlink:href="MkMaxTreeNode.html" xlink:title="de.lmu.ifi.dbs.elki.index.tree.metrical.mtreevariants.mktrees.mkmax.MkMaxTreeNode" target="_parent">
<polygon fill="none" stroke="#000000" points="332.5,-33 332.5,-50 408.5,-50 408.5,-33 332.5,-33"/>
<text text-anchor="start" x="336.5" y="-40.6" font-family="Roboto" font-size="8.00" fill="#000000"> </text>
<text text-anchor="start" x="339.5" y="-40.6" font-family="Roboto" font-size="8.00" fill="#000000">MkMaxTreeNode</text>
<text text-anchor="start" x="401.5" y="-40.6" font-family="Roboto" font-size="8.00" fill="#000000"> </text>
</a>
</g>
</a>
</g>
</g>
<!-- c7074123 -->
<g id="node3" class="node">
<title>c7074123</title>
<g id="a_node3"><a xlink:href="MkMaxTreeIndex.html" xlink:title="&lt;TABLE&gt;">
<g id="a_node3_3"><a xlink:href="MkMaxTreeIndex.html" xlink:title="de.lmu.ifi.dbs.elki.index.tree.metrical.mtreevariants.mktrees.mkmax.MkMaxTreeIndex" target="_parent">
<polygon fill="none" stroke="#000000" points="332.5,-5 332.5,-22 409.5,-22 409.5,-5 332.5,-5"/>
<text text-anchor="start" x="336.5" y="-12.6" font-family="Roboto" font-size="8.00" fill="#000000"> </text>
<text text-anchor="start" x="339.5" y="-12.6" font-family="Roboto" font-size="8.00" fill="#000000">MkMaxTreeIndex</text>
<text text-anchor="start" x="402.5" y="-12.6" font-family="Roboto" font-size="8.00" fill="#000000"> </text>
</a>
</g>
</a>
</g>
</g>
<!-- c7074124&#45;&gt;c7074121 -->
<g id="edge3" class="edge">
<title>c7074124&#45;&gt;c7074121</title>
<path fill="none" stroke="#000000" d="M296.8343,-23.7465C306.2619,-26.0826 316.3941,-28.5932 326.0359,-30.9823"/>
<polygon fill="none" stroke="#000000" points="296.7907,-23.7358 290.0047,-26.1753 285.1429,-20.8496 291.9289,-18.4101 296.7907,-23.7358"/>
<polygon fill="#000000" stroke="#000000" points="335.856,-33.4156 325.0672,-35.3783 331.0028,-32.213 326.1495,-31.0104 326.1495,-31.0104 326.1495,-31.0104 331.0028,-32.213 327.2319,-26.6425 335.856,-33.4156 335.856,-33.4156"/>
<text text-anchor="middle" x="308.5" y="-31.4" font-family="Roboto" font-size="7.00" fill="#000000">contains</text>
</g>
<!-- c7074124&#45;&gt;c7074123 -->
<g id="edge1" class="edge">
<title>c7074124&#45;&gt;c7074123</title>
<path fill="none" stroke="#000000" d="M295.4394,-14C307.0855,-14 319.9151,-14 331.6229,-14"/>
<polygon fill="none" stroke="#000000" points="295.1429,-10.5001 285.1429,-14 295.1429,-17.5001 295.1429,-10.5001"/>
</g>
</g>
</svg>
