<?xml version="1.0" encoding="UTF-8" standalone="no"?><svg xmlns="http://www.w3.org/2000/svg" xmlns:xlink="http://www.w3.org/1999/xlink" contentStyleType="text/css" height="493px" preserveAspectRatio="none" style="width:410px;height:493px;background:#FFFFFF;" version="1.1" viewBox="0 0 410 493" width="410px" zoomAndPan="magnify"><defs/><g><!--MD5=[afecba259f4361bfc448f1d63ee55079]
class elki.utilities.optionhandling.parameterization.ListParameterization--><a href="ListParameterization.html" target="_top" title="ListParameterization.html" xlink:actuate="onRequest" xlink:href="ListParameterization.html" xlink:show="new" xlink:title="ListParameterization.html" xlink:type="simple"><g id="elem_elki.utilities.optionhandling.parameterization.ListParameterization"><rect codeLine="6" fill="#F1F1F1" height="265.7969" id="elki.utilities.optionhandling.parameterization.ListParameterization" rx="2.5" ry="2.5" style="stroke:#181818;stroke-width:0.5;" width="394" x="9" y="105"/><ellipse cx="96.75" cy="123.9688" fill="#ADD1B2" rx="11" ry="11" style="stroke:#181818;stroke-width:1.0;"/><path d="M99.7188,129.6094 Q99.1406,129.9063 98.5,130.0469 Q97.8594,130.2031 97.1563,130.2031 Q94.6563,130.2031 93.3281,128.5625 Q92.0156,126.9063 92.0156,123.7813 Q92.0156,120.6563 93.3281,119 Q94.6563,117.3438 97.1563,117.3438 Q97.8594,117.3438 98.5,117.5 Q99.1563,117.6563 99.7188,117.9531 L99.7188,120.6719 Q99.0938,120.0938 98.5,119.8281 Q97.9063,119.5469 97.2813,119.5469 Q95.9375,119.5469 95.25,120.625 Q94.5625,121.6875 94.5625,123.7813 Q94.5625,125.875 95.25,126.9531 Q95.9375,128.0156 97.2813,128.0156 Q97.9063,128.0156 98.5,127.75 Q99.0938,127.4688 99.7188,126.8906 L99.7188,129.6094 Z " fill="#000000"/><text fill="#000000" font-family="sans-serif" font-size="14" lengthAdjust="spacing" textLength="139" x="152.75" y="122.9951">ListParameterization</text><text fill="#000000" font-family="sans-serif" font-size="10" lengthAdjust="spacing" textLength="210" x="117.25" y="135.5791">elki.utilities.optionhandling.parameterization</text><line style="stroke:#181818;stroke-width:0.5;" x1="10" x2="402" y1="142.9375" y2="142.9375"/><polygon fill="none" points="20,152.5859,16,158.5859,24,158.5859" style="stroke:#1963A0;stroke-width:1.0;"/><text fill="#000000" font-family="sans-serif" font-size="14" lengthAdjust="spacing" textLength="231" x="29" y="159.9326">parameters: List&lt;ParameterPair&gt;</text><line style="stroke:#181818;stroke-width:0.5;" x1="10" x2="402" y1="167.2344" y2="167.2344"/><ellipse cx="20" cy="180.8828" fill="#84BE84" rx="3" ry="3" style="stroke:#038048;stroke-width:1.0;"/><text fill="#000000" font-family="sans-serif" font-size="14" lengthAdjust="spacing" textLength="149" x="29" y="184.2295">ListParameterization()</text><ellipse cx="20" cy="197.1797" fill="#84BE84" rx="3" ry="3" style="stroke:#038048;stroke-width:1.0;"/><text fill="#000000" font-family="sans-serif" font-size="14" lengthAdjust="spacing" textLength="337" x="29" y="200.5264">ListParameterization(Collection&lt;ParameterPair&gt;)</text><ellipse cx="20" cy="213.4766" fill="#84BE84" rx="3" ry="3" style="stroke:#038048;stroke-width:1.0;"/><text fill="#000000" font-family="sans-serif" font-size="14" lengthAdjust="spacing" textLength="272" x="29" y="216.8232">addFlag(OptionID): ListParameterization</text><ellipse cx="20" cy="229.7734" fill="#84BE84" rx="3" ry="3" style="stroke:#038048;stroke-width:1.0;"/><text fill="#000000" font-family="sans-serif" font-size="14" lengthAdjust="spacing" textLength="252" x="29" y="233.1201">addFlag(String): ListParameterization</text><ellipse cx="20" cy="246.0703" fill="#84BE84" rx="3" ry="3" style="stroke:#038048;stroke-width:1.0;"/><text fill="#000000" font-family="sans-serif" font-size="14" lengthAdjust="spacing" textLength="368" x="29" y="249.417">addParameter(OptionID, Object): ListParameterization</text><polygon fill="#FFFF44" points="20,257.3672,24,261.3672,20,265.3672,16,261.3672" style="stroke:#B38D22;stroke-width:1.0;"/><text fill="#000000" font-family="sans-serif" font-size="14" lengthAdjust="spacing" textLength="351" x="29" y="265.7139">addParameter(ParameterPair): ListParameterization</text><ellipse cx="20" cy="278.6641" fill="#84BE84" rx="3" ry="3" style="stroke:#038048;stroke-width:1.0;"/><text fill="#000000" font-family="sans-serif" font-size="14" lengthAdjust="spacing" textLength="348" x="29" y="282.0107">addParameter(String, Object): ListParameterization</text><ellipse cx="20" cy="294.9609" fill="#84BE84" rx="3" ry="3" style="stroke:#038048;stroke-width:1.0;"/><text fill="#000000" font-family="sans-serif" font-size="14" lengthAdjust="spacing" textLength="305" x="29" y="298.3076">setValueForOption(Parameter&lt;?&gt;): boolean</text><ellipse cx="20" cy="311.2578" fill="#84BE84" rx="3" ry="3" style="stroke:#038048;stroke-width:1.0;"/><text fill="#000000" font-family="sans-serif" font-size="14" lengthAdjust="spacing" textLength="337" x="29" y="314.6045">getRemainingParameters(): List&lt;ParameterPair&gt;</text><ellipse cx="20" cy="327.5547" fill="#84BE84" rx="3" ry="3" style="stroke:#038048;stroke-width:1.0;"/><text fill="#000000" font-family="sans-serif" font-size="14" lengthAdjust="spacing" textLength="233" x="29" y="330.9014">hasUnusedParameters(): boolean</text><ellipse cx="20" cy="343.8516" fill="#84BE84" rx="3" ry="3" style="stroke:#038048;stroke-width:1.0;"/><text fill="#000000" font-family="sans-serif" font-size="14" lengthAdjust="spacing" textLength="264" x="29" y="347.1982">descend(Object): ListParameterization</text><ellipse cx="20" cy="360.1484" fill="#84BE84" rx="3" ry="3" style="stroke:#038048;stroke-width:1.0;"/><text fill="#000000" font-family="sans-serif" font-size="14" lengthAdjust="spacing" textLength="196" x="29" y="363.4951">serialize(): ArrayList&lt;String&gt;</text></g></a><!--MD5=[5e72d5f22f4528eb1e9583a085d58a42]
class elki.utilities.optionhandling.parameterization.AbstractParameterization--><a href="AbstractParameterization.html" target="_top" title="AbstractParameterization.html" xlink:actuate="onRequest" xlink:href="AbstractParameterization.html" xlink:show="new" xlink:title="AbstractParameterization.html" xlink:type="simple"><g id="elem_elki.utilities.optionhandling.parameterization.AbstractParameterization"><rect codeLine="22" fill="#F1F1F1" height="37.9375" id="elki.utilities.optionhandling.parameterization.AbstractParameterization" rx="2.5" ry="2.5" style="stroke:#181818;stroke-width:0.5;" width="254" x="79" y="7"/><ellipse cx="94" cy="25.9688" fill="#A9DCDF" rx="11" ry="11" style="stroke:#181818;stroke-width:1.0;"/><path d="M94.1094,21.3125 L92.9531,26.3906 L95.2813,26.3906 L94.1094,21.3125 Z M92.625,19.0781 L95.6094,19.0781 L98.9688,31.4688 L96.5156,31.4688 L95.75,28.4063 L92.4688,28.4063 L91.7188,31.4688 L89.2813,31.4688 L92.625,19.0781 Z " fill="#000000"/><text fill="#000000" font-family="sans-serif" font-size="14" font-style="italic" lengthAdjust="spacing" textLength="178" x="130" y="24.9951">AbstractParameterization</text><text fill="#000000" font-family="sans-serif" font-size="10" font-style="italic" lengthAdjust="spacing" textLength="222" x="108" y="37.5791">elki.utilities.optionhandling.parameterization</text></g></a><!--MD5=[d1b00d64dbf1a4745f659513753c3455]
class elki.utilities.optionhandling.parameterization.ListParameterization.ParameterPair--><a href="ListParameterization.ParameterPair.html" target="_top" title="ListParameterization.ParameterPair.html" xlink:actuate="onRequest" xlink:href="ListParameterization.ParameterPair.html" xlink:show="new" xlink:title="ListParameterization.ParameterPair.html" xlink:type="simple"><g id="elem_elki.utilities.optionhandling.parameterization.ListParameterization.ParameterPair"><rect codeLine="23" fill="#F1F1F1" height="37.9375" id="elki.utilities.optionhandling.parameterization.ListParameterization.ParameterPair" rx="2.5" ry="2.5" style="stroke:#181818;stroke-width:0.5;" width="271" x="70.5" y="431"/><ellipse cx="85.5" cy="449.9688" fill="#ADD1B2" rx="11" ry="11" style="stroke:#181818;stroke-width:1.0;"/><path d="M88.4688,455.6094 Q87.8906,455.9063 87.25,456.0469 Q86.6094,456.2031 85.9063,456.2031 Q83.4063,456.2031 82.0781,454.5625 Q80.7656,452.9063 80.7656,449.7813 Q80.7656,446.6563 82.0781,445 Q83.4063,443.3438 85.9063,443.3438 Q86.6094,443.3438 87.25,443.5 Q87.9063,443.6563 88.4688,443.9531 L88.4688,446.6719 Q87.8438,446.0938 87.25,445.8281 Q86.6563,445.5469 86.0313,445.5469 Q84.6875,445.5469 84,446.625 Q83.3125,447.6875 83.3125,449.7813 Q83.3125,451.875 84,452.9531 Q84.6875,454.0156 86.0313,454.0156 Q86.6563,454.0156 87.25,453.75 Q87.8438,453.4688 88.4688,452.8906 L88.4688,455.6094 Z " fill="#000000"/><text fill="#000000" font-family="sans-serif" font-size="14" lengthAdjust="spacing" textLength="239" x="99.5" y="448.9951">ListParameterization.ParameterPair</text><text fill="#000000" font-family="sans-serif" font-size="10" lengthAdjust="spacing" textLength="210" x="114" y="461.5791">elki.utilities.optionhandling.parameterization</text></g></a><!--MD5=[fa5f7fb08eca4e7207dbde252aaf6c39]
reverse link elki.utilities.optionhandling.parameterization.AbstractParameterization to elki.utilities.optionhandling.parameterization.ListParameterization--><g id="link_elki.utilities.optionhandling.parameterization.AbstractParameterization_elki.utilities.optionhandling.parameterization.ListParameterization"><path codeLine="25" d="M206,65.65 C206,77.3 206,90.79 206,104.99 " fill="none" id="elki.utilities.optionhandling.parameterization.AbstractParameterization-backto-elki.utilities.optionhandling.parameterization.ListParameterization" style="stroke:#181818;stroke-width:1.0;"/><polygon fill="none" points="199,65.27,206,45.27,213,65.27,199,65.27" style="stroke:#181818;stroke-width:1.0;"/></g><!--MD5=[1754f0951719f32241c168fb3dd44f09]
reverse link elki.utilities.optionhandling.parameterization.ListParameterization to elki.utilities.optionhandling.parameterization.ListParameterization.ParameterPair--><g id="link_elki.utilities.optionhandling.parameterization.ListParameterization_elki.utilities.optionhandling.parameterization.ListParameterization.ParameterPair"><path codeLine="26" d="M206,386.29 C206,403.91 206,419.61 206,430.9 " fill="none" id="elki.utilities.optionhandling.parameterization.ListParameterization-backto-elki.utilities.optionhandling.parameterization.ListParameterization.ParameterPair" style="stroke:#181818;stroke-width:1.0;"/><ellipse cx="206" cy="379.1" fill="#FFFFFF" rx="8" ry="8" style="stroke:#181818;stroke-width:1.0;"/><line style="stroke:#181818;stroke-width:1.0;" x1="206" x2="206" y1="387.1" y2="371.1"/><line style="stroke:#181818;stroke-width:1.0;" x1="198" x2="214" y1="379.1" y2="379.1"/></g><rect fill="none" height="11.6406" style="stroke:none;stroke-width:1.0;" width="186" x="105" y="473.9375"/><text fill="#888888" font-family="sans-serif" font-size="10" lengthAdjust="spacing" textLength="186" x="105" y="483.2197">UMLDoclet 2.0.19, PlantUML 1.2022.8</text><!--MD5=[cf9cfdc1d0396558e2d51f37685cfad8]
@startuml
    remove .*\.(Instance|Par|Parameterizer|Factory)$
    set namespaceSeparator none
    hide empty fields
    hide empty methods

    class "<size:14>ListParameterization\n<size:10>elki.utilities.optionhandling.parameterization" as elki.utilities.optionhandling.parameterization.ListParameterization [[ListParameterization.html]] {
        ~parameters: List<ParameterPair>
        +ListParameterization()
        +ListParameterization(Collection<ParameterPair>)
        +addFlag(OptionID): ListParameterization
        +addFlag(String): ListParameterization
        +addParameter(OptionID, Object): ListParameterization
        #addParameter(ParameterPair): ListParameterization
        +addParameter(String, Object): ListParameterization
        +setValueForOption(Parameter<?>): boolean
        +getRemainingParameters(): List<ParameterPair>
        +hasUnusedParameters(): boolean
        +descend(Object): ListParameterization
        +serialize(): ArrayList<String>
    }

    abstract class "<size:14>AbstractParameterization\n<size:10>elki.utilities.optionhandling.parameterization" as elki.utilities.optionhandling.parameterization.AbstractParameterization [[AbstractParameterization.html]]
    class "<size:14>ListParameterization.ParameterPair\n<size:10>elki.utilities.optionhandling.parameterization" as elki.utilities.optionhandling.parameterization.ListParameterization.ParameterPair [[ListParameterization.ParameterPair.html]]

    elki.utilities.optionhandling.parameterization.AbstractParameterization <|- - elki.utilities.optionhandling.parameterization.ListParameterization
    elki.utilities.optionhandling.parameterization.ListParameterization +- - elki.utilities.optionhandling.parameterization.ListParameterization.ParameterPair

    center footer UMLDoclet 2.0.19, PlantUML 1.2022.8
@enduml

PlantUML version 1.2022.8(Sun Sep 25 11:00:33 CEST 2022)
(APACHE source distribution)
Java Runtime: OpenJDK Runtime Environment
JVM: OpenJDK 64-Bit Server VM
Default Encoding: UTF-8
Language: de
Country: DE
--></g></svg>