<?xml version="1.0" encoding="UTF-8" standalone="no"?>
<!DOCTYPE svg PUBLIC "-//W3C//DTD SVG 1.1//EN"
 "http://www.w3.org/Graphics/SVG/1.1/DTD/svg11.dtd">
<!-- Generated by graphviz version 2.40.1 (20161225.0304)
 -->
<!-- Title: G Pages: 1 -->
<svg width="488pt" height="109pt"
 viewBox="0.00 0.00 488.00 108.72" xmlns="http://www.w3.org/2000/svg" xmlns:xlink="http://www.w3.org/1999/xlink">
<g id="graph0" class="graph" transform="scale(1 1) rotate(0) translate(4 104.716)">
<title>G</title>
<polygon fill="#ffffff" stroke="transparent" points="-4,4 -4,-104.716 484,-104.716 484,4 -4,4"/>
<!-- c5042584 -->
<g id="node1" class="node">
<title>c5042584</title>
<g id="a_node1"><a xlink:href="../../../database/relation/Relation.html" xlink:title="&lt;TABLE&gt;">
<g id="a_node1_0"><a xlink:href="../../../database/relation/Relation.html" xlink:title="de.lmu.ifi.dbs.elki.database.relation.Relation" target="_parent">
<polygon fill="none" stroke="#000000" points="168.5,-61.216 168.5,-100.216 297.5,-100.216 297.5,-61.216 168.5,-61.216"/>
<text text-anchor="start" x="211.5" y="-89.816" font-family="Roboto" font-size="8.00" fill="#000000"> «interface» </text>
<text text-anchor="start" x="215.5" y="-79.816" font-family="Roboto" font-size="8.00" fill="#000000"> </text>
<text text-anchor="start" x="218.5" y="-79.816" font-family="Roboto" font-size="8.00" fill="#000000">Relation</text>
<text text-anchor="start" x="247.5" y="-79.816" font-family="Roboto" font-size="8.00" fill="#000000"> </text>
<text text-anchor="start" x="172.5" y="-68.816" font-family="Roboto" font-size="8.00" fill="#000000"> </text>
<text text-anchor="start" x="175.5" y="-68.816" font-family="Roboto" font-size="7.00" fill="#000000">de.lmu.ifi.dbs.elki.database.relation</text>
<text text-anchor="start" x="290.5" y="-68.816" font-family="Roboto" font-size="8.00" fill="#000000"> </text>
</a>
</g>
</a>
</g>
</g>
<!-- c5043573 -->
<g id="node2" class="node">
<title>c5043573</title>
<g id="a_node2"><a xlink:href="../../../utilities/datastructures/heap/ObjectHeap.html" xlink:title="&lt;TABLE&gt;">
<g id="a_node2_1"><a xlink:href="../../../utilities/datastructures/heap/ObjectHeap.html" xlink:title="de.lmu.ifi.dbs.elki.utilities.datastructures.heap.ObjectHeap" target="_parent">
<polygon fill="none" stroke="#000000" points="315.5,-11.216 315.5,-50.216 480.5,-50.216 480.5,-11.216 315.5,-11.216"/>
<text text-anchor="start" x="376.5" y="-39.816" font-family="Roboto" font-size="8.00" fill="#000000"> «interface» </text>
<text text-anchor="start" x="374" y="-29.816" font-family="Roboto" font-size="8.00" fill="#000000"> </text>
<text text-anchor="start" x="377" y="-29.816" font-family="Roboto" font-size="8.00" fill="#000000">ObjectHeap</text>
<text text-anchor="start" x="419" y="-29.816" font-family="Roboto" font-size="8.00" fill="#000000"> </text>
<text text-anchor="start" x="319.5" y="-18.816" font-family="Roboto" font-size="8.00" fill="#000000"> </text>
<text text-anchor="start" x="322.5" y="-18.816" font-family="Roboto" font-size="7.00" fill="#000000">de.lmu.ifi.dbs.elki.utilities.datastructures.heap</text>
<text text-anchor="start" x="473.5" y="-18.816" font-family="Roboto" font-size="8.00" fill="#000000"> </text>
</a>
</g>
</a>
</g>
</g>
<!-- c5044420 -->
<g id="node3" class="node">
<title>c5044420</title>
<g id="a_node3"><a xlink:href="HilOut.html" xlink:title="&lt;TABLE&gt;">
<g id="a_node3_2"><a xlink:href="HilOut.html" xlink:title="de.lmu.ifi.dbs.elki.algorithm.outlier.distance.HilOut" target="_parent">
<polygon fill="none" stroke="#000000" points="0,-9.216 0,-26.216 38,-26.216 38,-9.216 0,-9.216"/>
<text text-anchor="start" x="4" y="-16.816" font-family="Roboto" font-size="8.00" fill="#000000"> </text>
<text text-anchor="start" x="7" y="-16.816" font-family="Roboto" font-size="8.00" fill="#000000">HilOut</text>
<text text-anchor="start" x="31" y="-16.816" font-family="Roboto" font-size="8.00" fill="#000000"> </text>
</a>
</g>
</a>
</g>
</g>
<!-- c5044422 -->
<g id="node4" class="node">
<title>c5044422</title>
<g id="a_node4"><a xlink:href="HilOut.HilbertFeatures.html" xlink:title="&lt;TABLE&gt;">
<g id="a_node4_3"><a xlink:href="HilOut.HilbertFeatures.html" xlink:title="de.lmu.ifi.dbs.elki.algorithm.outlier.distance.HilOut.HilbertFeatures" target="_parent">
<polygon fill="#fffacd" stroke="transparent" points="56,-9.716 56,-26.716 150,-26.716 150,-9.716 56,-9.716"/>
<polygon fill="none" stroke="#000000" points="56,-9.216 56,-26.216 150,-26.216 150,-9.216 56,-9.216"/>
<text text-anchor="start" x="60" y="-16.816" font-family="Roboto" font-size="8.00" fill="#000000"> </text>
<text text-anchor="start" x="63" y="-16.816" font-family="Roboto" font-size="8.00" fill="#000000">HilOut.HilbertFeatures</text>
<text text-anchor="start" x="143" y="-16.816" font-family="Roboto" font-size="8.00" fill="#000000"> </text>
</a>
</g>
</a>
</g>
</g>
<!-- c5044420&#45;&gt;c5044422 -->
<g id="edge1" class="edge">
<title>c5044420&#45;&gt;c5044422</title>
<path fill="none" stroke="#000000" d="M50.0967,-18.216C52.0211,-18.216 53.9783,-18.216 55.9506,-18.216"/>
<polygon fill="#000000" stroke="#000000" points="50.0609,-18.2161 44.0609,-22.216 38.0609,-18.216 44.0609,-14.216 50.0609,-18.2161"/>
</g>
<!-- c5044423 -->
<g id="node5" class="node">
<title>c5044423</title>
<g id="a_node5"><a xlink:href="HilOut.HilFeature.html" xlink:title="&lt;TABLE&gt;">
<g id="a_node5_4"><a xlink:href="HilOut.HilFeature.html" xlink:title="de.lmu.ifi.dbs.elki.algorithm.outlier.distance.HilOut.HilFeature" target="_parent">
<polygon fill="none" stroke="#000000" points="194.5,-9.216 194.5,-26.216 271.5,-26.216 271.5,-9.216 194.5,-9.216"/>
<text text-anchor="start" x="198.5" y="-16.816" font-family="Roboto" font-size="8.00" fill="#000000"> </text>
<text text-anchor="start" x="201.5" y="-16.816" font-family="Roboto" font-size="8.00" fill="#000000">HilOut.HilFeature</text>
<text text-anchor="start" x="264.5" y="-16.816" font-family="Roboto" font-size="8.00" fill="#000000"> </text>
</a>
</g>
</a>
</g>
</g>
<!-- c5044420&#45;&gt;c5044423 -->
<g id="edge2" class="edge">
<title>c5044420&#45;&gt;c5044423</title>
<path fill="none" stroke="#000000" d="M37.8263,-9.5929C43.5414,-7.3883 49.9196,-5.3278 56,-4.216 103.4724,4.465 159.1011,-2.7674 195.0268,-9.6594"/>
</g>
<!-- c5044422&#45;&gt;c5042584 -->
<g id="edge4" class="edge">
<title>c5044422&#45;&gt;c5042584</title>
<path fill="none" stroke="#000000" d="M118.6285,-26.7242C131.7128,-33.7666 150.932,-43.9241 168,-52.216 171.5028,-53.9177 175.1278,-55.6429 178.791,-57.3597"/>
<polygon fill="#000000" stroke="#000000" points="187.9271,-61.5916 176.9619,-61.4718 183.3902,-59.4901 178.8533,-57.3885 178.8533,-57.3885 178.8533,-57.3885 183.3902,-59.4901 180.7447,-53.3053 187.9271,-61.5916 187.9271,-61.5916"/>
</g>
<!-- c5044422&#45;&gt;c5043573 -->
<g id="edge5" class="edge">
<title>c5044422&#45;&gt;c5043573</title>
<path fill="none" stroke="#000000" d="M136.1814,-26.7805C146.3218,-29.0133 157.5544,-31.1038 168,-32.216 212.8378,-36.9899 262.8825,-37.3476 304.7682,-36.2607"/>
<polygon fill="#000000" stroke="#000000" points="314.955,-35.9641 305.0903,-40.7533 309.9571,-36.1097 304.9593,-36.2552 304.9593,-36.2552 304.9593,-36.2552 309.9571,-36.1097 304.8282,-31.7572 314.955,-35.9641 314.955,-35.9641"/>
</g>
<!-- c5044422&#45;&gt;c5044423 -->
<g id="edge3" class="edge">
<title>c5044422&#45;&gt;c5044423</title>
<path fill="none" stroke="#000000" d="M162.427,-18.216C173.0458,-18.216 183.8569,-18.216 193.7074,-18.216"/>
<polygon fill="#000000" stroke="#000000" points="162.1188,-18.2161 156.1188,-22.216 150.1188,-18.216 156.1188,-14.216 162.1188,-18.2161"/>
</g>
<!-- c5044423&#45;&gt;c5043573 -->
<g id="edge6" class="edge">
<title>c5044423&#45;&gt;c5043573</title>
<path fill="none" stroke="#000000" d="M271.1852,-21.2639C281.4545,-22.073 292.9999,-22.9826 304.8284,-23.9146"/>
<polygon fill="#000000" stroke="#000000" points="314.8093,-24.7009 304.4867,-28.4015 309.8247,-24.3082 304.8402,-23.9154 304.8402,-23.9154 304.8402,-23.9154 309.8247,-24.3082 305.1937,-19.4293 314.8093,-24.7009 314.8093,-24.7009"/>
</g>
</g>
</svg>
