<?xml version="1.0" encoding="UTF-8" standalone="no"?>
<!DOCTYPE svg PUBLIC "-//W3C//DTD SVG 1.1//EN"
 "http://www.w3.org/Graphics/SVG/1.1/DTD/svg11.dtd">
<!-- Generated by graphviz version 2.40.1 (20161225.0304)
 -->
<!-- Title: G Pages: 1 -->
<svg width="365pt" height="92pt"
 viewBox="0.00 0.00 365.00 92.00" xmlns="http://www.w3.org/2000/svg" xmlns:xlink="http://www.w3.org/1999/xlink">
<g id="graph0" class="graph" transform="scale(1 1) rotate(0) translate(4 88)">
<title>G</title>
<polygon fill="#ffffff" stroke="transparent" points="-4,4 -4,-88 361,-88 361,4 -4,4"/>
<!-- c5896209 -->
<g id="node1" class="node">
<title>c5896209</title>
<g id="a_node1"><a xlink:href="../../AbstractDistanceBasedAlgorithm.html" xlink:title="&lt;TABLE&gt;">
<g id="a_node1_0"><a xlink:href="../../AbstractDistanceBasedAlgorithm.html" xlink:title="de.lmu.ifi.dbs.elki.algorithm.AbstractDistanceBasedAlgorithm" target="_parent">
<polygon fill="#fffacd" stroke="transparent" points="0,-50.5 0,-78.5 130,-78.5 130,-50.5 0,-50.5"/>
<polygon fill="none" stroke="#000000" points="0,-50.5 0,-78.5 130,-78.5 130,-50.5 0,-50.5"/>
<text text-anchor="start" x="4" y="-69.1" font-family="Roboto" font-size="8.00" fill="#000000"> </text>
<text text-anchor="start" x="7" y="-69.1" font-family="Roboto" font-style="italic" font-size="8.00" fill="#000000">AbstractDistanceBasedAlgorithm</text>
<text text-anchor="start" x="123" y="-69.1" font-family="Roboto" font-size="8.00" fill="#000000"> </text>
<text text-anchor="start" x="16.5" y="-58.1" font-family="Roboto" font-size="8.00" fill="#000000"> </text>
<text text-anchor="start" x="19.5" y="-58.1" font-family="Roboto" font-size="7.00" fill="#000000">de.lmu.ifi.dbs.elki.algorithm</text>
<text text-anchor="start" x="110.5" y="-58.1" font-family="Roboto" font-size="8.00" fill="#000000"> </text>
</a>
</g>
</a>
</g>
</g>
<!-- c5898127 -->
<g id="node4" class="node">
<title>c5898127</title>
<g id="a_node4"><a xlink:href="KNNOutlier.html" xlink:title="&lt;TABLE&gt;">
<g id="a_node4_1"><a xlink:href="KNNOutlier.html" xlink:title="de.lmu.ifi.dbs.elki.algorithm.outlier.distance.KNNOutlier" target="_parent">
<polygon fill="#fffacd" stroke="transparent" points="148,-56 148,-73 204,-73 204,-56 148,-56"/>
<polygon fill="none" stroke="#000000" points="148,-55.5 148,-72.5 204,-72.5 204,-55.5 148,-55.5"/>
<text text-anchor="start" x="152" y="-63.1" font-family="Roboto" font-size="8.00" fill="#000000"> </text>
<text text-anchor="start" x="155" y="-63.1" font-family="Roboto" font-size="8.00" fill="#000000">KNNOutlier</text>
<text text-anchor="start" x="197" y="-63.1" font-family="Roboto" font-size="8.00" fill="#000000"> </text>
</a>
</g>
</a>
</g>
</g>
<!-- c5896209&#45;&gt;c5898127 -->
<g id="edge1" class="edge">
<title>c5896209&#45;&gt;c5898127</title>
<path fill="none" stroke="#000000" d="M140.3529,-64.5C142.9132,-64.5 145.4086,-64.5 147.8129,-64.5"/>
<polygon fill="none" stroke="#000000" points="140.2112,-61.0001 130.2112,-64.5 140.2112,-68.0001 140.2112,-61.0001"/>
</g>
<!-- c5896249 -->
<g id="node2" class="node">
<title>c5896249</title>
<g id="a_node2"><a xlink:href="../../../database/query/knn/KNNQuery.html" xlink:title="&lt;TABLE&gt;">
<g id="a_node2_2"><a xlink:href="../../../database/query/knn/KNNQuery.html" xlink:title="de.lmu.ifi.dbs.elki.database.query.knn.KNNQuery" target="_parent">
<polygon fill="#fffacd" stroke="transparent" points="222,-45 222,-84 357,-84 357,-45 222,-45"/>
<polygon fill="none" stroke="#000000" points="222.5,-44.5 222.5,-83.5 357.5,-83.5 357.5,-44.5 222.5,-44.5"/>
<text text-anchor="start" x="268.5" y="-73.1" font-family="Roboto" font-size="8.00" fill="#000000"> «interface» </text>
<text text-anchor="start" x="267.5" y="-63.1" font-family="Roboto" font-size="8.00" fill="#000000"> </text>
<text text-anchor="start" x="270.5" y="-63.1" font-family="Roboto" font-size="8.00" fill="#000000">KNNQuery</text>
<text text-anchor="start" x="309.5" y="-63.1" font-family="Roboto" font-size="8.00" fill="#000000"> </text>
<text text-anchor="start" x="226.5" y="-52.1" font-family="Roboto" font-size="8.00" fill="#000000"> </text>
<text text-anchor="start" x="229.5" y="-52.1" font-family="Roboto" font-size="7.00" fill="#000000">de.lmu.ifi.dbs.elki.database.query.knn</text>
<text text-anchor="start" x="350.5" y="-52.1" font-family="Roboto" font-size="8.00" fill="#000000"> </text>
</a>
</g>
</a>
</g>
</g>
<!-- c5898091 -->
<g id="node3" class="node">
<title>c5898091</title>
<g id="a_node3"><a xlink:href="../OutlierAlgorithm.html" xlink:title="&lt;TABLE&gt;">
<g id="a_node3_3"><a xlink:href="../OutlierAlgorithm.html" xlink:title="de.lmu.ifi.dbs.elki.algorithm.outlier.OutlierAlgorithm" target="_parent">
<polygon fill="#fffacd" stroke="transparent" points=".5,0 .5,-39 129.5,-39 129.5,0 .5,0"/>
<polygon fill="none" stroke="#000000" points="1,.5 1,-38.5 130,-38.5 130,.5 1,.5"/>
<text text-anchor="start" x="44" y="-28.1" font-family="Roboto" font-size="8.00" fill="#000000"> «interface» </text>
<text text-anchor="start" x="33" y="-18.1" font-family="Roboto" font-size="8.00" fill="#000000"> </text>
<text text-anchor="start" x="36" y="-18.1" font-family="Roboto" font-size="8.00" fill="#000000">OutlierAlgorithm</text>
<text text-anchor="start" x="95" y="-18.1" font-family="Roboto" font-size="8.00" fill="#000000"> </text>
<text text-anchor="start" x="5" y="-7.1" font-family="Roboto" font-size="8.00" fill="#000000"> </text>
<text text-anchor="start" x="8" y="-7.1" font-family="Roboto" font-size="7.00" fill="#000000">de.lmu.ifi.dbs.elki.algorithm.outlier</text>
<text text-anchor="start" x="123" y="-7.1" font-family="Roboto" font-size="8.00" fill="#000000"> </text>
</a>
</g>
</a>
</g>
</g>
<!-- c5898091&#45;&gt;c5898127 -->
<g id="edge2" class="edge">
<title>c5898091&#45;&gt;c5898127</title>
<path fill="none" stroke="#000000" stroke-dasharray="5,2" d="M123.3372,-42.7984C125.5877,-43.7088 127.815,-44.6118 130,-45.5 138.3246,-48.884 147.4773,-52.6543 155.4113,-55.9384"/>
<polygon fill="none" stroke="#000000" points="124.5858,-39.5281 114.0025,-39.033 121.9671,-46.0199 124.5858,-39.5281"/>
</g>
<!-- c5898127&#45;&gt;c5896249 -->
<g id="edge3" class="edge">
<title>c5898127&#45;&gt;c5896249</title>
<path fill="none" stroke="#000000" d="M216.3077,-64.5C218.1041,-64.5 219.9246,-64.5 221.761,-64.5"/>
<polygon fill="none" stroke="#000000" points="216.0562,-64.5001 210.0562,-68.5 204.0562,-64.5 210.0562,-60.5 216.0562,-64.5001"/>
</g>
</g>
</svg>
