<?xml version="1.0" encoding="UTF-8" standalone="no"?>
<!DOCTYPE svg PUBLIC "-//W3C//DTD SVG 1.1//EN"
 "http://www.w3.org/Graphics/SVG/1.1/DTD/svg11.dtd">
<!-- Generated by graphviz version 2.40.1 (20161225.0304)
 -->
<!-- Title: G Pages: 1 -->
<svg width="408pt" height="92pt"
 viewBox="0.00 0.00 408.00 92.00" xmlns="http://www.w3.org/2000/svg" xmlns:xlink="http://www.w3.org/1999/xlink">
<g id="graph0" class="graph" transform="scale(1 1) rotate(0) translate(4 88)">
<title>G</title>
<polygon fill="#ffffff" stroke="transparent" points="-4,4 -4,-88 404,-88 404,4 -4,4"/>
<!-- c6484515 -->
<g id="node1" class="node">
<title>c6484515</title>
<g id="a_node1"><a xlink:href="../../AbstractDistanceBasedAlgorithm.html" xlink:title="&lt;TABLE&gt;">
<g id="a_node1_0"><a xlink:href="../../AbstractDistanceBasedAlgorithm.html" xlink:title="de.lmu.ifi.dbs.elki.algorithm.AbstractDistanceBasedAlgorithm" target="_parent">
<polygon fill="#fffacd" stroke="transparent" points="0,-50.5 0,-78.5 130,-78.5 130,-50.5 0,-50.5"/>
<polygon fill="none" stroke="#000000" points="0,-50.5 0,-78.5 130,-78.5 130,-50.5 0,-50.5"/>
<text text-anchor="start" x="4" y="-69.1" font-family="Roboto" font-size="8.00" fill="#000000"> </text>
<text text-anchor="start" x="7" y="-69.1" font-family="Roboto" font-style="italic" font-size="8.00" fill="#000000">AbstractDistanceBasedAlgorithm</text>
<text text-anchor="start" x="123" y="-69.1" font-family="Roboto" font-size="8.00" fill="#000000"> </text>
<text text-anchor="start" x="16.5" y="-58.1" font-family="Roboto" font-size="8.00" fill="#000000"> </text>
<text text-anchor="start" x="19.5" y="-58.1" font-family="Roboto" font-size="7.00" fill="#000000">de.lmu.ifi.dbs.elki.algorithm</text>
<text text-anchor="start" x="110.5" y="-58.1" font-family="Roboto" font-size="8.00" fill="#000000"> </text>
</a>
</g>
</a>
</g>
</g>
<!-- c6486427 -->
<g id="node4" class="node">
<title>c6486427</title>
<g id="a_node4"><a xlink:href="LocalIsolationCoefficient.html" xlink:title="&lt;TABLE&gt;">
<g id="a_node4_1"><a xlink:href="LocalIsolationCoefficient.html" xlink:title="de.lmu.ifi.dbs.elki.algorithm.outlier.distance.LocalIsolationCoefficient" target="_parent">
<polygon fill="#fffacd" stroke="transparent" points="148,-56 148,-73 247,-73 247,-56 148,-56"/>
<polygon fill="none" stroke="#000000" points="148.5,-55.5 148.5,-72.5 247.5,-72.5 247.5,-55.5 148.5,-55.5"/>
<text text-anchor="start" x="152.5" y="-63.1" font-family="Roboto" font-size="8.00" fill="#000000"> </text>
<text text-anchor="start" x="155.5" y="-63.1" font-family="Roboto" font-size="8.00" fill="#000000">LocalIsolationCoefficient</text>
<text text-anchor="start" x="240.5" y="-63.1" font-family="Roboto" font-size="8.00" fill="#000000"> </text>
</a>
</g>
</a>
</g>
</g>
<!-- c6484515&#45;&gt;c6486427 -->
<g id="edge1" class="edge">
<title>c6484515&#45;&gt;c6486427</title>
<path fill="none" stroke="#000000" d="M140.2228,-64.5C142.8358,-64.5 145.4298,-64.5 147.9882,-64.5"/>
<polygon fill="none" stroke="#000000" points="140.0855,-61.0001 130.0855,-64.5 140.0855,-68.0001 140.0855,-61.0001"/>
</g>
<!-- c6484555 -->
<g id="node2" class="node">
<title>c6484555</title>
<g id="a_node2"><a xlink:href="../../../database/query/knn/KNNQuery.html" xlink:title="&lt;TABLE&gt;">
<g id="a_node2_2"><a xlink:href="../../../database/query/knn/KNNQuery.html" xlink:title="de.lmu.ifi.dbs.elki.database.query.knn.KNNQuery" target="_parent">
<polygon fill="#fffacd" stroke="transparent" points="265,-45 265,-84 400,-84 400,-45 265,-45"/>
<polygon fill="none" stroke="#000000" points="265.5,-44.5 265.5,-83.5 400.5,-83.5 400.5,-44.5 265.5,-44.5"/>
<text text-anchor="start" x="311.5" y="-73.1" font-family="Roboto" font-size="8.00" fill="#000000"> «interface» </text>
<text text-anchor="start" x="310.5" y="-63.1" font-family="Roboto" font-size="8.00" fill="#000000"> </text>
<text text-anchor="start" x="313.5" y="-63.1" font-family="Roboto" font-size="8.00" fill="#000000">KNNQuery</text>
<text text-anchor="start" x="352.5" y="-63.1" font-family="Roboto" font-size="8.00" fill="#000000"> </text>
<text text-anchor="start" x="269.5" y="-52.1" font-family="Roboto" font-size="8.00" fill="#000000"> </text>
<text text-anchor="start" x="272.5" y="-52.1" font-family="Roboto" font-size="7.00" fill="#000000">de.lmu.ifi.dbs.elki.database.query.knn</text>
<text text-anchor="start" x="393.5" y="-52.1" font-family="Roboto" font-size="8.00" fill="#000000"> </text>
</a>
</g>
</a>
</g>
</g>
<!-- c6486397 -->
<g id="node3" class="node">
<title>c6486397</title>
<g id="a_node3"><a xlink:href="../OutlierAlgorithm.html" xlink:title="&lt;TABLE&gt;">
<g id="a_node3_3"><a xlink:href="../OutlierAlgorithm.html" xlink:title="de.lmu.ifi.dbs.elki.algorithm.outlier.OutlierAlgorithm" target="_parent">
<polygon fill="#fffacd" stroke="transparent" points=".5,0 .5,-39 129.5,-39 129.5,0 .5,0"/>
<polygon fill="none" stroke="#000000" points="1,.5 1,-38.5 130,-38.5 130,.5 1,.5"/>
<text text-anchor="start" x="44" y="-28.1" font-family="Roboto" font-size="8.00" fill="#000000"> «interface» </text>
<text text-anchor="start" x="33" y="-18.1" font-family="Roboto" font-size="8.00" fill="#000000"> </text>
<text text-anchor="start" x="36" y="-18.1" font-family="Roboto" font-size="8.00" fill="#000000">OutlierAlgorithm</text>
<text text-anchor="start" x="95" y="-18.1" font-family="Roboto" font-size="8.00" fill="#000000"> </text>
<text text-anchor="start" x="5" y="-7.1" font-family="Roboto" font-size="8.00" fill="#000000"> </text>
<text text-anchor="start" x="8" y="-7.1" font-family="Roboto" font-size="7.00" fill="#000000">de.lmu.ifi.dbs.elki.algorithm.outlier</text>
<text text-anchor="start" x="123" y="-7.1" font-family="Roboto" font-size="8.00" fill="#000000"> </text>
</a>
</g>
</a>
</g>
</g>
<!-- c6486397&#45;&gt;c6486427 -->
<g id="edge2" class="edge">
<title>c6486397&#45;&gt;c6486427</title>
<path fill="none" stroke="#000000" stroke-dasharray="5,2" d="M132.5108,-42.4282C146.6653,-47.2354 160.7431,-52.0165 172.1584,-55.8934"/>
<polygon fill="none" stroke="#000000" points="133.3254,-39.0086 122.731,-39.1067 131.0742,-45.6367 133.3254,-39.0086"/>
</g>
<!-- c6486427&#45;&gt;c6484555 -->
<g id="edge3" class="edge">
<title>c6486427&#45;&gt;c6484555</title>
<path fill="none" stroke="#000000" d="M259.003,-64.5C260.8433,-64.5 262.6897,-64.5 264.5365,-64.5"/>
<polygon fill="none" stroke="#000000" points="259.0024,-64.5001 253.0024,-68.5 247.0024,-64.5 253.0025,-60.5 259.0024,-64.5001"/>
</g>
</g>
</svg>
