<?xml version="1.0" encoding="UTF-8" standalone="no"?><svg xmlns="http://www.w3.org/2000/svg" xmlns:xlink="http://www.w3.org/1999/xlink" contentStyleType="text/css" height="306px" preserveAspectRatio="none" style="width:639px;height:306px;background:#FFFFFF;" version="1.1" viewBox="0 0 639 306" width="639px" zoomAndPan="magnify"><defs/><g><!--MD5=[f5c4fae85222c528a61583474030852b]
class elki.math.statistics.dependence.DCor--><a href="DCor.html" target="_top" title="DCor.html" xlink:actuate="onRequest" xlink:href="DCor.html" xlink:show="new" xlink:title="DCor.html" xlink:type="simple"><g id="elem_elki.math.statistics.dependence.DCor"><rect codeLine="6" fill="#F1F1F1" height="151.7188" id="elki.math.statistics.dependence.DCor" rx="2.5" ry="2.5" style="stroke:#181818;stroke-width:0.5;" width="608" x="15.5" y="129"/><ellipse cx="239.75" cy="147.9688" fill="#ADD1B2" rx="11" ry="11" style="stroke:#181818;stroke-width:1.0;"/><path d="M242.7188,153.6094 Q242.1406,153.9063 241.5,154.0469 Q240.8594,154.2031 240.1563,154.2031 Q237.6563,154.2031 236.3281,152.5625 Q235.0156,150.9063 235.0156,147.7813 Q235.0156,144.6563 236.3281,143 Q237.6563,141.3438 240.1563,141.3438 Q240.8594,141.3438 241.5,141.5 Q242.1563,141.6563 242.7188,141.9531 L242.7188,144.6719 Q242.0938,144.0938 241.5,143.8281 Q240.9063,143.5469 240.2813,143.5469 Q238.9375,143.5469 238.25,144.625 Q237.5625,145.6875 237.5625,147.7813 Q237.5625,149.875 238.25,150.9531 Q238.9375,152.0156 240.2813,152.0156 Q240.9063,152.0156 241.5,151.75 Q242.0938,151.4688 242.7188,150.8906 L242.7188,153.6094 Z " fill="#000000"/><text fill="#000000" font-family="sans-serif" font-size="14" lengthAdjust="spacing" textLength="35" x="318.25" y="146.9951">DCor</text><text fill="#000000" font-family="sans-serif" font-size="10" lengthAdjust="spacing" textLength="151" x="260.25" y="159.5791">elki.math.statistics.dependence</text><line style="stroke:#181818;stroke-width:0.5;" x1="16.5" x2="622.5" y1="166.9375" y2="166.9375"/><ellipse cx="26.5" cy="180.5859" fill="none" rx="3" ry="3" style="stroke:#038048;stroke-width:1.0;"/><text fill="#000000" font-family="sans-serif" font-size="14" lengthAdjust="spacing" text-decoration="underline" textLength="93" x="35.5" y="183.9326">STATIC: DCor</text><line style="stroke:#181818;stroke-width:0.5;" x1="16.5" x2="622.5" y1="191.2344" y2="191.2344"/><ellipse cx="26.5" cy="204.8828" fill="#84BE84" rx="3" ry="3" style="stroke:#038048;stroke-width:1.0;"/><text fill="#000000" font-family="sans-serif" font-size="14" lengthAdjust="spacing" textLength="582" x="35.5" y="208.2295">dependence(NumberArrayAdapter&lt;?, A&gt;, A, NumberArrayAdapter&lt;?, B&gt;, B): double</text><ellipse cx="26.5" cy="221.1797" fill="#84BE84" rx="3" ry="3" style="stroke:#038048;stroke-width:1.0;"/><text fill="#000000" font-family="sans-serif" font-size="14" lengthAdjust="spacing" textLength="492" x="35.5" y="224.5264">dependence(NumberArrayAdapter&lt;?, A&gt;, List&lt;? extends A&gt;): double[]</text><polygon fill="#FFFF44" points="26.5,232.4766,30.5,236.4766,26.5,240.4766,22.5,236.4766" style="stroke:#B38D22;stroke-width:1.0;"/><text fill="#000000" font-family="sans-serif" font-size="14" lengthAdjust="spacing" text-decoration="underline" textLength="416" x="35.5" y="240.8232">computeDistances(NumberArrayAdapter&lt;?, A&gt;, A): double[]</text><ellipse cx="26.5" cy="253.7734" fill="#84BE84" rx="3" ry="3" style="stroke:#038048;stroke-width:1.0;"/><text fill="#000000" font-family="sans-serif" font-size="14" lengthAdjust="spacing" text-decoration="underline" textLength="295" x="35.5" y="257.1201">doubleCenterMatrix(double[], int): double[]</text><polygon fill="#FFFF44" points="26.5,265.0703,30.5,269.0703,26.5,273.0703,22.5,269.0703" style="stroke:#B38D22;stroke-width:1.0;"/><text fill="#000000" font-family="sans-serif" font-size="14" lengthAdjust="spacing" textLength="328" x="35.5" y="273.417">computeDCovar(double[], double[], int): double</text></g></a><!--MD5=[24ae0f0af09287d4763f15688576c0a4]
class elki.math.statistics.dependence.Dependence--><a href="Dependence.html" target="_top" title="Dependence.html" xlink:actuate="onRequest" xlink:href="Dependence.html" xlink:show="new" xlink:title="Dependence.html" xlink:type="simple"><g id="elem_elki.math.statistics.dependence.Dependence"><rect codeLine="15" fill="#F1F1F1" height="62.2344" id="elki.math.statistics.dependence.Dependence" rx="2.5" ry="2.5" style="stroke:#181818;stroke-width:0.5;" width="625" x="7" y="7"/><ellipse cx="236.25" cy="25.9688" fill="#B4A7E5" rx="11" ry="11" style="stroke:#181818;stroke-width:1.0;"/><path d="M232.1719,21.7344 L232.1719,19.5781 L239.5625,19.5781 L239.5625,21.7344 L237.0938,21.7344 L237.0938,29.8125 L239.5625,29.8125 L239.5625,31.9688 L232.1719,31.9688 L232.1719,29.8125 L234.6406,29.8125 L234.6406,21.7344 L232.1719,21.7344 Z " fill="#000000"/><text fill="#000000" font-family="sans-serif" font-size="14" font-style="italic" lengthAdjust="spacing" textLength="91" x="290.25" y="24.9951">Dependence</text><text fill="#000000" font-family="sans-serif" font-size="10" font-style="italic" lengthAdjust="spacing" textLength="158" x="256.75" y="37.5791">elki.math.statistics.dependence</text><line style="stroke:#181818;stroke-width:0.5;" x1="8" x2="631" y1="44.9375" y2="44.9375"/><ellipse cx="18" cy="58.5859" fill="#84BE84" rx="3" ry="3" style="stroke:#038048;stroke-width:1.0;"/><text fill="#000000" font-family="sans-serif" font-size="14" font-style="italic" lengthAdjust="spacing" textLength="599" x="27" y="61.9326">dependence(NumberArrayAdapter&lt;?, A&gt;, A, NumberArrayAdapter&lt;?, B&gt;, B): double</text></g></a><!--MD5=[7b40174533c3d11ca45e341426ac82ac]
reverse link elki.math.statistics.dependence.Dependence to elki.math.statistics.dependence.DCor--><g id="link_elki.math.statistics.dependence.Dependence_elki.math.statistics.dependence.DCor"><path codeLine="20" d="M319.5,89.53 C319.5,102 319.5,115.63 319.5,128.99 " fill="none" id="elki.math.statistics.dependence.Dependence-backto-elki.math.statistics.dependence.DCor" style="stroke:#181818;stroke-width:1.0;stroke-dasharray:7.0,7.0;"/><polygon fill="none" points="312.5,89.26,319.5,69.26,326.5,89.26,312.5,89.26" style="stroke:#181818;stroke-width:1.0;"/></g><rect fill="none" height="11.6406" style="stroke:none;stroke-width:1.0;" width="186" x="219.5" y="286.7188"/><text fill="#888888" font-family="sans-serif" font-size="10" lengthAdjust="spacing" textLength="186" x="219.5" y="296.001">UMLDoclet 2.0.19, PlantUML 1.2022.8</text><!--MD5=[281a6ea5ca5f2100e4b4fd9be6666526]
@startuml
    remove .*\.(Instance|Par|Parameterizer|Factory)$
    set namespaceSeparator none
    hide empty fields
    hide empty methods

    class "<size:14>DCor\n<size:10>elki.math.statistics.dependence" as elki.math.statistics.dependence.DCor [[DCor.html]] {
        {static} +STATIC: DCor
        +dependence(NumberArrayAdapter<?, A>, A, NumberArrayAdapter<?, B>, B): double
        +dependence(NumberArrayAdapter<?, A>, List<? extends A>): double[]
        {static} #computeDistances(NumberArrayAdapter<?, A>, A): double[]
        {static} +doubleCenterMatrix(double[], int): double[]
        #computeDCovar(double[], double[], int): double
    }

    interface "<size:14>Dependence\n<size:10>elki.math.statistics.dependence" as elki.math.statistics.dependence.Dependence [[Dependence.html]] {
        {abstract} +dependence(NumberArrayAdapter<?, A>, A, NumberArrayAdapter<?, B>, B): double
    }
    class "<size:14>DCor.Par\n<size:10>elki.math.statistics.dependence" as elki.math.statistics.dependence.DCor.Par [[DCor.Par.html]]

    elki.math.statistics.dependence.Dependence <|.. elki.math.statistics.dependence.DCor
    elki.math.statistics.dependence.DCor +- - elki.math.statistics.dependence.DCor.Par

    center footer UMLDoclet 2.0.19, PlantUML 1.2022.8
@enduml

PlantUML version 1.2022.8(Sun Sep 25 11:00:33 CEST 2022)
(APACHE source distribution)
Java Runtime: OpenJDK Runtime Environment
JVM: OpenJDK 64-Bit Server VM
Default Encoding: UTF-8
Language: de
Country: DE
--></g></svg>