<?xml version="1.0" encoding="UTF-8" standalone="no"?><svg xmlns="http://www.w3.org/2000/svg" xmlns:xlink="http://www.w3.org/1999/xlink" contentStyleType="text/css" height="240px" preserveAspectRatio="none" style="width:639px;height:240px;background:#FFFFFF;" version="1.1" viewBox="0 0 639 240" width="639px" zoomAndPan="magnify"><defs/><g><!--MD5=[24ae0f0af09287d4763f15688576c0a4]
class elki.math.statistics.dependence.Dependence--><a href="Dependence.html" target="_top" title="Dependence.html" xlink:actuate="onRequest" xlink:href="Dependence.html" xlink:show="new" xlink:title="Dependence.html" xlink:type="simple"><g id="elem_elki.math.statistics.dependence.Dependence"><rect codeLine="6" fill="#F1F1F1" height="111.125" id="elki.math.statistics.dependence.Dependence" rx="2.5" ry="2.5" style="stroke:#181818;stroke-width:0.5;" width="625" x="7" y="7"/><ellipse cx="236.25" cy="25.9688" fill="#B4A7E5" rx="11" ry="11" style="stroke:#181818;stroke-width:1.0;"/><path d="M232.1719,21.7344 L232.1719,19.5781 L239.5625,19.5781 L239.5625,21.7344 L237.0938,21.7344 L237.0938,29.8125 L239.5625,29.8125 L239.5625,31.9688 L232.1719,31.9688 L232.1719,29.8125 L234.6406,29.8125 L234.6406,21.7344 L232.1719,21.7344 Z " fill="#000000"/><text fill="#000000" font-family="sans-serif" font-size="14" font-style="italic" lengthAdjust="spacing" textLength="91" x="290.25" y="24.9951">Dependence</text><text fill="#000000" font-family="sans-serif" font-size="10" font-style="italic" lengthAdjust="spacing" textLength="158" x="256.75" y="37.5791">elki.math.statistics.dependence</text><line style="stroke:#181818;stroke-width:0.5;" x1="8" x2="631" y1="44.9375" y2="44.9375"/><ellipse cx="18" cy="58.5859" fill="#84BE84" rx="3" ry="3" style="stroke:#038048;stroke-width:1.0;"/><text fill="#000000" font-family="sans-serif" font-size="14" font-style="italic" lengthAdjust="spacing" textLength="599" x="27" y="61.9326">dependence(NumberArrayAdapter&lt;?, A&gt;, A, NumberArrayAdapter&lt;?, B&gt;, B): double</text><ellipse cx="18" cy="74.8828" fill="#84BE84" rx="3" ry="3" style="stroke:#038048;stroke-width:1.0;"/><text fill="#000000" font-family="sans-serif" font-size="14" lengthAdjust="spacing" textLength="381" x="27" y="78.2295">dependence(NumberArrayAdapter&lt;?, A&gt;, A, A): double</text><ellipse cx="18" cy="91.1797" fill="#84BE84" rx="3" ry="3" style="stroke:#038048;stroke-width:1.0;"/><text fill="#000000" font-family="sans-serif" font-size="14" lengthAdjust="spacing" textLength="492" x="27" y="94.5264">dependence(NumberArrayAdapter&lt;?, A&gt;, List&lt;? extends A&gt;): double[]</text><ellipse cx="18" cy="107.4766" fill="#84BE84" rx="3" ry="3" style="stroke:#038048;stroke-width:1.0;"/><text fill="#000000" font-family="sans-serif" font-size="14" lengthAdjust="spacing" textLength="280" x="27" y="110.8232">dependence(double[], double[]): double</text></g></a><!--MD5=[8caa9afed27f9e64a0a72d28ac2ba007]
class elki.math.statistics.dependence.Dependence.Utils--><a href="Dependence.Utils.html" target="_top" title="Dependence.Utils.html" xlink:actuate="onRequest" xlink:href="Dependence.Utils.html" xlink:show="new" xlink:title="Dependence.Utils.html" xlink:type="simple"><g id="elem_elki.math.statistics.dependence.Dependence.Utils"><rect codeLine="12" fill="#F1F1F1" height="37.9375" id="elki.math.statistics.dependence.Dependence.Utils" rx="2.5" ry="2.5" style="stroke:#181818;stroke-width:0.5;" width="183" x="228" y="178"/><ellipse cx="243" cy="196.9688" fill="#ADD1B2" rx="11" ry="11" style="stroke:#181818;stroke-width:1.0;"/><path d="M245.9688,202.6094 Q245.3906,202.9063 244.75,203.0469 Q244.1094,203.2031 243.4063,203.2031 Q240.9063,203.2031 239.5781,201.5625 Q238.2656,199.9063 238.2656,196.7813 Q238.2656,193.6563 239.5781,192 Q240.9063,190.3438 243.4063,190.3438 Q244.1094,190.3438 244.75,190.5 Q245.4063,190.6563 245.9688,190.9531 L245.9688,193.6719 Q245.3438,193.0938 244.75,192.8281 Q244.1563,192.5469 243.5313,192.5469 Q242.1875,192.5469 241.5,193.625 Q240.8125,194.6875 240.8125,196.7813 Q240.8125,198.875 241.5,199.9531 Q242.1875,201.0156 243.5313,201.0156 Q244.1563,201.0156 244.75,200.75 Q245.3438,200.4688 245.9688,199.8906 L245.9688,202.6094 Z " fill="#000000"/><text fill="#000000" font-family="sans-serif" font-size="14" lengthAdjust="spacing" textLength="124" x="270.5" y="195.9951">Dependence.Utils</text><text fill="#000000" font-family="sans-serif" font-size="10" lengthAdjust="spacing" textLength="151" x="257" y="208.5791">elki.math.statistics.dependence</text></g></a><!--MD5=[40085c478b6277674f312eb87b2e3ffc]
reverse link elki.math.statistics.dependence.Dependence to elki.math.statistics.dependence.Dependence.Utils--><g id="link_elki.math.statistics.dependence.Dependence_elki.math.statistics.dependence.Dependence.Utils"><path codeLine="14" d="M319.5,133.25 C319.5,149.72 319.5,165.9 319.5,177.7 " fill="none" id="elki.math.statistics.dependence.Dependence-backto-elki.math.statistics.dependence.Dependence.Utils" style="stroke:#181818;stroke-width:1.0;"/><ellipse cx="319.5" cy="126.16" fill="#FFFFFF" rx="8" ry="8" style="stroke:#181818;stroke-width:1.0;"/><line style="stroke:#181818;stroke-width:1.0;" x1="319.5" x2="319.5" y1="134.16" y2="118.16"/><line style="stroke:#181818;stroke-width:1.0;" x1="311.5" x2="327.5" y1="126.16" y2="126.16"/></g><rect fill="none" height="11.6406" style="stroke:none;stroke-width:1.0;" width="186" x="219.5" y="220.9375"/><text fill="#888888" font-family="sans-serif" font-size="10" lengthAdjust="spacing" textLength="186" x="219.5" y="230.2197">UMLDoclet 2.0.19, PlantUML 1.2022.8</text><!--MD5=[a28ac244843f2a4f264efe09a66b9401]
@startuml
    remove .*\.(Instance|Par|Parameterizer|Factory)$
    set namespaceSeparator none
    hide empty fields
    hide empty methods

    interface "<size:14>Dependence\n<size:10>elki.math.statistics.dependence" as elki.math.statistics.dependence.Dependence [[Dependence.html]] {
        {abstract} +dependence(NumberArrayAdapter<?, A>, A, NumberArrayAdapter<?, B>, B): double
        +dependence(NumberArrayAdapter<?, A>, A, A): double
        +dependence(NumberArrayAdapter<?, A>, List<? extends A>): double[]
        +dependence(double[], double[]): double
    }
    class "<size:14>Dependence.Utils\n<size:10>elki.math.statistics.dependence" as elki.math.statistics.dependence.Dependence.Utils [[Dependence.Utils.html]]

    elki.math.statistics.dependence.Dependence +- - elki.math.statistics.dependence.Dependence.Utils

    center footer UMLDoclet 2.0.19, PlantUML 1.2022.8
@enduml

PlantUML version 1.2022.8(Sun Sep 25 11:00:33 CEST 2022)
(APACHE source distribution)
Java Runtime: OpenJDK Runtime Environment
JVM: OpenJDK 64-Bit Server VM
Default Encoding: UTF-8
Language: de
Country: DE
--></g></svg>