<?xml version="1.0" encoding="UTF-8" standalone="no"?><svg xmlns="http://www.w3.org/2000/svg" xmlns:xlink="http://www.w3.org/1999/xlink" contentStyleType="text/css" height="241px" preserveAspectRatio="none" style="width:639px;height:241px;background:#FFFFFF;" version="1.1" viewBox="0 0 639 241" width="639px" zoomAndPan="magnify"><defs/><g><!--MD5=[1cfc97d40033b33443d36b1fc57a3f42]
class elki.math.statistics.dependence.SpearmanCorrelationDependence--><a href="SpearmanCorrelationDependence.html" target="_top" title="SpearmanCorrelationDependence.html" xlink:actuate="onRequest" xlink:href="SpearmanCorrelationDependence.html" xlink:show="new" xlink:title="SpearmanCorrelationDependence.html" xlink:type="simple"><g id="elem_elki.math.statistics.dependence.SpearmanCorrelationDependence"><rect codeLine="6" fill="#F1F1F1" height="86.5313" id="elki.math.statistics.dependence.SpearmanCorrelationDependence" rx="2.5" ry="2.5" style="stroke:#181818;stroke-width:0.5;" width="608" x="15.5" y="129"/><ellipse cx="197.25" cy="147.9688" fill="#ADD1B2" rx="11" ry="11" style="stroke:#181818;stroke-width:1.0;"/><path d="M200.2188,153.6094 Q199.6406,153.9063 199,154.0469 Q198.3594,154.2031 197.6563,154.2031 Q195.1563,154.2031 193.8281,152.5625 Q192.5156,150.9063 192.5156,147.7813 Q192.5156,144.6563 193.8281,143 Q195.1563,141.3438 197.6563,141.3438 Q198.3594,141.3438 199,141.5 Q199.6563,141.6563 200.2188,141.9531 L200.2188,144.6719 Q199.5938,144.0938 199,143.8281 Q198.4063,143.5469 197.7813,143.5469 Q196.4375,143.5469 195.75,144.625 Q195.0625,145.6875 195.0625,147.7813 Q195.0625,149.875 195.75,150.9531 Q196.4375,152.0156 197.7813,152.0156 Q198.4063,152.0156 199,151.75 Q199.5938,151.4688 200.2188,150.8906 L200.2188,153.6094 Z " fill="#000000"/><text fill="#000000" font-family="sans-serif" font-size="14" lengthAdjust="spacing" textLength="236" x="217.75" y="146.9951">SpearmanCorrelationDependence</text><text fill="#000000" font-family="sans-serif" font-size="10" lengthAdjust="spacing" textLength="151" x="260.25" y="159.5791">elki.math.statistics.dependence</text><line style="stroke:#181818;stroke-width:0.5;" x1="16.5" x2="622.5" y1="166.9375" y2="166.9375"/><ellipse cx="26.5" cy="180.5859" fill="none" rx="3" ry="3" style="stroke:#038048;stroke-width:1.0;"/><text fill="#000000" font-family="sans-serif" font-size="14" lengthAdjust="spacing" text-decoration="underline" textLength="294" x="35.5" y="183.9326">STATIC: SpearmanCorrelationDependence</text><line style="stroke:#181818;stroke-width:0.5;" x1="16.5" x2="622.5" y1="191.2344" y2="191.2344"/><ellipse cx="26.5" cy="204.8828" fill="#84BE84" rx="3" ry="3" style="stroke:#038048;stroke-width:1.0;"/><text fill="#000000" font-family="sans-serif" font-size="14" lengthAdjust="spacing" textLength="582" x="35.5" y="208.2295">dependence(NumberArrayAdapter&lt;?, A&gt;, A, NumberArrayAdapter&lt;?, B&gt;, B): double</text></g></a><!--MD5=[24ae0f0af09287d4763f15688576c0a4]
class elki.math.statistics.dependence.Dependence--><a href="Dependence.html" target="_top" title="Dependence.html" xlink:actuate="onRequest" xlink:href="Dependence.html" xlink:show="new" xlink:title="Dependence.html" xlink:type="simple"><g id="elem_elki.math.statistics.dependence.Dependence"><rect codeLine="11" fill="#F1F1F1" height="62.2344" id="elki.math.statistics.dependence.Dependence" rx="2.5" ry="2.5" style="stroke:#181818;stroke-width:0.5;" width="625" x="7" y="7"/><ellipse cx="236.25" cy="25.9688" fill="#B4A7E5" rx="11" ry="11" style="stroke:#181818;stroke-width:1.0;"/><path d="M232.1719,21.7344 L232.1719,19.5781 L239.5625,19.5781 L239.5625,21.7344 L237.0938,21.7344 L237.0938,29.8125 L239.5625,29.8125 L239.5625,31.9688 L232.1719,31.9688 L232.1719,29.8125 L234.6406,29.8125 L234.6406,21.7344 L232.1719,21.7344 Z " fill="#000000"/><text fill="#000000" font-family="sans-serif" font-size="14" font-style="italic" lengthAdjust="spacing" textLength="91" x="290.25" y="24.9951">Dependence</text><text fill="#000000" font-family="sans-serif" font-size="10" font-style="italic" lengthAdjust="spacing" textLength="158" x="256.75" y="37.5791">elki.math.statistics.dependence</text><line style="stroke:#181818;stroke-width:0.5;" x1="8" x2="631" y1="44.9375" y2="44.9375"/><ellipse cx="18" cy="58.5859" fill="#84BE84" rx="3" ry="3" style="stroke:#038048;stroke-width:1.0;"/><text fill="#000000" font-family="sans-serif" font-size="14" font-style="italic" lengthAdjust="spacing" textLength="599" x="27" y="61.9326">dependence(NumberArrayAdapter&lt;?, A&gt;, A, NumberArrayAdapter&lt;?, B&gt;, B): double</text></g></a><!--MD5=[db8cdef071d1361f377c7e375f44a97a]
reverse link elki.math.statistics.dependence.Dependence to elki.math.statistics.dependence.SpearmanCorrelationDependence--><g id="link_elki.math.statistics.dependence.Dependence_elki.math.statistics.dependence.SpearmanCorrelationDependence"><path codeLine="16" d="M319.5,89.24 C319.5,102.34 319.5,116.34 319.5,129 " fill="none" id="elki.math.statistics.dependence.Dependence-backto-elki.math.statistics.dependence.SpearmanCorrelationDependence" style="stroke:#181818;stroke-width:1.0;stroke-dasharray:7.0,7.0;"/><polygon fill="none" points="312.5,89.07,319.5,69.07,326.5,89.07,312.5,89.07" style="stroke:#181818;stroke-width:1.0;"/></g><rect fill="none" height="11.6406" style="stroke:none;stroke-width:1.0;" width="186" x="219.5" y="221.5313"/><text fill="#888888" font-family="sans-serif" font-size="10" lengthAdjust="spacing" textLength="186" x="219.5" y="230.8135">UMLDoclet 2.0.19, PlantUML 1.2022.8</text><!--MD5=[340ce325daea1b34a152a610f12066d1]
@startuml
    remove .*\.(Instance|Par|Parameterizer|Factory)$
    set namespaceSeparator none
    hide empty fields
    hide empty methods

    class "<size:14>SpearmanCorrelationDependence\n<size:10>elki.math.statistics.dependence" as elki.math.statistics.dependence.SpearmanCorrelationDependence [[SpearmanCorrelationDependence.html]] {
        {static} +STATIC: SpearmanCorrelationDependence
        +dependence(NumberArrayAdapter<?, A>, A, NumberArrayAdapter<?, B>, B): double
    }

    interface "<size:14>Dependence\n<size:10>elki.math.statistics.dependence" as elki.math.statistics.dependence.Dependence [[Dependence.html]] {
        {abstract} +dependence(NumberArrayAdapter<?, A>, A, NumberArrayAdapter<?, B>, B): double
    }
    class "<size:14>SpearmanCorrelationDependence.Par\n<size:10>elki.math.statistics.dependence" as elki.math.statistics.dependence.SpearmanCorrelationDependence.Par [[SpearmanCorrelationDependence.Par.html]]

    elki.math.statistics.dependence.Dependence <|.. elki.math.statistics.dependence.SpearmanCorrelationDependence
    elki.math.statistics.dependence.SpearmanCorrelationDependence +- - elki.math.statistics.dependence.SpearmanCorrelationDependence.Par

    center footer UMLDoclet 2.0.19, PlantUML 1.2022.8
@enduml

PlantUML version 1.2022.8(Sun Sep 25 11:00:33 CEST 2022)
(APACHE source distribution)
Java Runtime: OpenJDK Runtime Environment
JVM: OpenJDK 64-Bit Server VM
Default Encoding: UTF-8
Language: de
Country: DE
--></g></svg>