<?xml version="1.0" encoding="UTF-8" standalone="no"?><svg xmlns="http://www.w3.org/2000/svg" xmlns:xlink="http://www.w3.org/1999/xlink" contentStyleType="text/css" height="216px" preserveAspectRatio="none" style="width:429px;height:216px;background:#FFFFFF;" version="1.1" viewBox="0 0 429 216" width="429px" zoomAndPan="magnify"><defs/><g><!--MD5=[195d853d836c5b1ec63aa5144009e291]
class elki.clustering.kmeans.initialization.betula.SquaredEuclideanWeight--><a href="SquaredEuclideanWeight.html" target="_top" title="SquaredEuclideanWeight.html" xlink:actuate="onRequest" xlink:href="SquaredEuclideanWeight.html" xlink:show="new" xlink:title="SquaredEuclideanWeight.html" xlink:type="simple"><g id="elem_elki.clustering.kmeans.initialization.betula.SquaredEuclideanWeight"><rect codeLine="6" fill="#F1F1F1" height="62.2344" id="elki.clustering.kmeans.initialization.betula.SquaredEuclideanWeight" rx="2.5" ry="2.5" style="stroke:#181818;stroke-width:0.5;" width="410" x="9.5" y="129"/><ellipse cx="112.25" cy="147.9688" fill="#ADD1B2" rx="11" ry="11" style="stroke:#181818;stroke-width:1.0;"/><path d="M115.2188,153.6094 Q114.6406,153.9063 114,154.0469 Q113.3594,154.2031 112.6563,154.2031 Q110.1563,154.2031 108.8281,152.5625 Q107.5156,150.9063 107.5156,147.7813 Q107.5156,144.6563 108.8281,143 Q110.1563,141.3438 112.6563,141.3438 Q113.3594,141.3438 114,141.5 Q114.6563,141.6563 115.2188,141.9531 L115.2188,144.6719 Q114.5938,144.0938 114,143.8281 Q113.4063,143.5469 112.7813,143.5469 Q111.4375,143.5469 110.75,144.625 Q110.0625,145.6875 110.0625,147.7813 Q110.0625,149.875 110.75,150.9531 Q111.4375,152.0156 112.7813,152.0156 Q113.4063,152.0156 114,151.75 Q114.5938,151.4688 115.2188,150.8906 L115.2188,153.6094 Z " fill="#000000"/><text fill="#000000" font-family="sans-serif" font-size="14" lengthAdjust="spacing" textLength="173" x="144.25" y="146.9951">SquaredEuclideanWeight</text><text fill="#000000" font-family="sans-serif" font-size="10" lengthAdjust="spacing" textLength="196" x="132.75" y="159.5791">elki.clustering.kmeans.initialization.betula</text><line style="stroke:#181818;stroke-width:0.5;" x1="10.5" x2="418.5" y1="166.9375" y2="166.9375"/><ellipse cx="20.5" cy="180.5859" fill="#84BE84" rx="3" ry="3" style="stroke:#038048;stroke-width:1.0;"/><text fill="#000000" font-family="sans-serif" font-size="14" lengthAdjust="spacing" textLength="384" x="29.5" y="183.9326">squaredWeight(ClusterFeature, ClusterFeature): double</text></g></a><!--MD5=[95bb3b88734c65dedf255814d0a6b922]
class elki.clustering.kmeans.initialization.betula.CFInitWeight--><a href="CFInitWeight.html" target="_top" title="CFInitWeight.html" xlink:actuate="onRequest" xlink:href="CFInitWeight.html" xlink:show="new" xlink:title="CFInitWeight.html" xlink:type="simple"><g id="elem_elki.clustering.kmeans.initialization.betula.CFInitWeight"><rect codeLine="10" fill="#F1F1F1" height="62.2344" id="elki.clustering.kmeans.initialization.betula.CFInitWeight" rx="2.5" ry="2.5" style="stroke:#181818;stroke-width:0.5;" width="415" x="7" y="7"/><ellipse cx="105.25" cy="25.9688" fill="#B4A7E5" rx="11" ry="11" style="stroke:#181818;stroke-width:1.0;"/><path d="M101.1719,21.7344 L101.1719,19.5781 L108.5625,19.5781 L108.5625,21.7344 L106.0938,21.7344 L106.0938,29.8125 L108.5625,29.8125 L108.5625,31.9688 L101.1719,31.9688 L101.1719,29.8125 L103.6406,29.8125 L103.6406,21.7344 L101.1719,21.7344 Z " fill="#000000"/><text fill="#000000" font-family="sans-serif" font-size="14" font-style="italic" lengthAdjust="spacing" textLength="90" x="185.75" y="24.9951">CFInitWeight</text><text fill="#000000" font-family="sans-serif" font-size="10" font-style="italic" lengthAdjust="spacing" textLength="210" x="125.75" y="37.5791">elki.clustering.kmeans.initialization.betula</text><line style="stroke:#181818;stroke-width:0.5;" x1="8" x2="421" y1="44.9375" y2="44.9375"/><ellipse cx="18" cy="58.5859" fill="#84BE84" rx="3" ry="3" style="stroke:#038048;stroke-width:1.0;"/><text fill="#000000" font-family="sans-serif" font-size="14" font-style="italic" lengthAdjust="spacing" textLength="389" x="27" y="61.9326">squaredWeight(ClusterFeature, ClusterFeature): double</text></g></a><!--MD5=[a9958a31c96d0dd31793f584744c433f]
reverse link elki.clustering.kmeans.initialization.betula.CFInitWeight to elki.clustering.kmeans.initialization.betula.SquaredEuclideanWeight--><g id="link_elki.clustering.kmeans.initialization.betula.CFInitWeight_elki.clustering.kmeans.initialization.betula.SquaredEuclideanWeight"><path codeLine="14" d="M214.5,89.37 C214.5,102.75 214.5,116.79 214.5,128.73 " fill="none" id="elki.clustering.kmeans.initialization.betula.CFInitWeight-backto-elki.clustering.kmeans.initialization.betula.SquaredEuclideanWeight" style="stroke:#181818;stroke-width:1.0;stroke-dasharray:7.0,7.0;"/><polygon fill="none" points="207.5,89.28,214.5,69.28,221.5,89.28,207.5,89.28" style="stroke:#181818;stroke-width:1.0;"/></g><rect fill="none" height="11.6406" style="stroke:none;stroke-width:1.0;" width="186" x="114.5" y="197.2344"/><text fill="#888888" font-family="sans-serif" font-size="10" lengthAdjust="spacing" textLength="186" x="114.5" y="206.5166">UMLDoclet 2.0.19, PlantUML 1.2022.8</text><!--MD5=[59e3fc94614e764f261995bfbc319b28]
@startuml
    remove .*\.(Instance|Par|Parameterizer|Factory)$
    set namespaceSeparator none
    hide empty fields
    hide empty methods

    class "<size:14>SquaredEuclideanWeight\n<size:10>elki.clustering.kmeans.initialization.betula" as elki.clustering.kmeans.initialization.betula.SquaredEuclideanWeight [[SquaredEuclideanWeight.html]] {
        +squaredWeight(ClusterFeature, ClusterFeature): double
    }

    interface "<size:14>CFInitWeight\n<size:10>elki.clustering.kmeans.initialization.betula" as elki.clustering.kmeans.initialization.betula.CFInitWeight [[CFInitWeight.html]] {
        {abstract} +squaredWeight(ClusterFeature, ClusterFeature): double
    }

    elki.clustering.kmeans.initialization.betula.CFInitWeight <|.. elki.clustering.kmeans.initialization.betula.SquaredEuclideanWeight

    center footer UMLDoclet 2.0.19, PlantUML 1.2022.8
@enduml

PlantUML version 1.2022.8(Sun Sep 25 11:00:33 CEST 2022)
(APACHE source distribution)
Java Runtime: OpenJDK Runtime Environment
JVM: OpenJDK 64-Bit Server VM
Default Encoding: UTF-8
Language: de
Country: DE
--></g></svg>