<?xml version="1.0" encoding="UTF-8" standalone="no"?><svg xmlns="http://www.w3.org/2000/svg" xmlns:xlink="http://www.w3.org/1999/xlink" contentStyleType="text/css" height="599px" preserveAspectRatio="none" style="width:386px;height:599px;background:#FFFFFF;" version="1.1" viewBox="0 0 386 599" width="386px" zoomAndPan="magnify"><defs/><g><!--MD5=[ece72703ec3a22cc62d6e0b44c1f2f7f]
class elki.data.Cluster--><a href="Cluster.html" target="_top" title="Cluster.html" xlink:actuate="onRequest" xlink:href="Cluster.html" xlink:show="new" xlink:title="Cluster.html" xlink:type="simple"><g id="elem_elki.data.Cluster"><rect codeLine="6" fill="#F1F1F1" height="445.0625" id="elki.data.Cluster" rx="2.5" ry="2.5" style="stroke:#181818;stroke-width:0.5;" width="366" x="9" y="129"/><ellipse cx="111.25" cy="147.9688" fill="#ADD1B2" rx="11" ry="11" style="stroke:#181818;stroke-width:1.0;"/><path d="M114.2188,153.6094 Q113.6406,153.9063 113,154.0469 Q112.3594,154.2031 111.6563,154.2031 Q109.1563,154.2031 107.8281,152.5625 Q106.5156,150.9063 106.5156,147.7813 Q106.5156,144.6563 107.8281,143 Q109.1563,141.3438 111.6563,141.3438 Q112.3594,141.3438 113,141.5 Q113.6563,141.6563 114.2188,141.9531 L114.2188,144.6719 Q113.5938,144.0938 113,143.8281 Q112.4063,143.5469 111.7813,143.5469 Q110.4375,143.5469 109.75,144.625 Q109.0625,145.6875 109.0625,147.7813 Q109.0625,149.875 109.75,150.9531 Q110.4375,152.0156 111.7813,152.0156 Q112.4063,152.0156 113,151.75 Q113.5938,151.4688 114.2188,150.8906 L114.2188,153.6094 Z " fill="#000000"/><text fill="#000000" font-family="sans-serif" font-size="14" lengthAdjust="spacing" textLength="49" x="131.75" y="146.9951">Cluster</text><text fill="#000000" font-family="sans-serif" font-size="10" lengthAdjust="spacing" textLength="40" x="136.25" y="159.5791">elki.data</text><rect fill="#FFFFFF" height="15.9688" style="stroke:#181818;stroke-width:1.0;stroke-dasharray:2.0,2.0;" width="102" x="276" y="126"/><text fill="#000000" font-family="sans-serif" font-size="12" font-style="italic" lengthAdjust="spacing" textLength="100" x="277" y="138.1387">M extends Model</text><line style="stroke:#181818;stroke-width:0.5;" x1="10" x2="374" y1="166.9375" y2="166.9375"/><polygon fill="none" points="20,175.5859,24,179.5859,20,183.5859,16,179.5859" style="stroke:#B38D22;stroke-width:1.0;"/><text fill="#000000" font-family="sans-serif" font-size="14" lengthAdjust="spacing" textLength="88" x="29" y="183.9326">name: String</text><rect fill="none" height="6" style="stroke:#C82930;stroke-width:1.0;" width="6" x="17" y="193.8828"/><text fill="#000000" font-family="sans-serif" font-size="14" lengthAdjust="spacing" textLength="72" x="29" y="200.2295">ids: DBIDs</text><rect fill="none" height="6" style="stroke:#C82930;stroke-width:1.0;" width="6" x="17" y="210.1797"/><text fill="#000000" font-family="sans-serif" font-size="14" lengthAdjust="spacing" textLength="170" x="29" y="216.5264">model: M extends Model</text><rect fill="none" height="6" style="stroke:#C82930;stroke-width:1.0;" width="6" x="17" y="226.4766"/><text fill="#000000" font-family="sans-serif" font-size="14" lengthAdjust="spacing" textLength="103" x="29" y="232.8232">noise: boolean</text><ellipse cx="20" cy="245.7734" fill="none" rx="3" ry="3" style="stroke:#038048;stroke-width:1.0;"/><text fill="#000000" font-family="sans-serif" font-size="14" lengthAdjust="spacing" text-decoration="underline" textLength="325" x="29" y="249.1201">BY_NAME_SORTER: Comparator&lt;Cluster&lt;?&gt;&gt;</text><line style="stroke:#181818;stroke-width:0.5;" x1="10" x2="374" y1="256.4219" y2="256.4219"/><ellipse cx="20" cy="270.0703" fill="#84BE84" rx="3" ry="3" style="stroke:#038048;stroke-width:1.0;"/><text fill="#000000" font-family="sans-serif" font-size="14" lengthAdjust="spacing" textLength="340" x="29" y="273.417">Cluster(String, DBIDs, boolean, M extends Model)</text><ellipse cx="20" cy="286.3672" fill="#84BE84" rx="3" ry="3" style="stroke:#038048;stroke-width:1.0;"/><text fill="#000000" font-family="sans-serif" font-size="14" lengthAdjust="spacing" textLength="276" x="29" y="289.7139">Cluster(String, DBIDs, M extends Model)</text><ellipse cx="20" cy="302.6641" fill="#84BE84" rx="3" ry="3" style="stroke:#038048;stroke-width:1.0;"/><text fill="#000000" font-family="sans-serif" font-size="14" lengthAdjust="spacing" textLength="292" x="29" y="306.0107">Cluster(DBIDs, boolean, M extends Model)</text><ellipse cx="20" cy="318.9609" fill="#84BE84" rx="3" ry="3" style="stroke:#038048;stroke-width:1.0;"/><text fill="#000000" font-family="sans-serif" font-size="14" lengthAdjust="spacing" textLength="228" x="29" y="322.3076">Cluster(DBIDs, M extends Model)</text><ellipse cx="20" cy="335.2578" fill="#84BE84" rx="3" ry="3" style="stroke:#038048;stroke-width:1.0;"/><text fill="#000000" font-family="sans-serif" font-size="14" lengthAdjust="spacing" textLength="214" x="29" y="338.6045">Cluster(String, DBIDs, boolean)</text><ellipse cx="20" cy="351.5547" fill="#84BE84" rx="3" ry="3" style="stroke:#038048;stroke-width:1.0;"/><text fill="#000000" font-family="sans-serif" font-size="14" lengthAdjust="spacing" textLength="150" x="29" y="354.9014">Cluster(String, DBIDs)</text><ellipse cx="20" cy="367.8516" fill="#84BE84" rx="3" ry="3" style="stroke:#038048;stroke-width:1.0;"/><text fill="#000000" font-family="sans-serif" font-size="14" lengthAdjust="spacing" textLength="166" x="29" y="371.1982">Cluster(DBIDs, boolean)</text><ellipse cx="20" cy="384.1484" fill="#84BE84" rx="3" ry="3" style="stroke:#038048;stroke-width:1.0;"/><text fill="#000000" font-family="sans-serif" font-size="14" lengthAdjust="spacing" textLength="102" x="29" y="387.4951">Cluster(DBIDs)</text><ellipse cx="20" cy="400.4453" fill="#84BE84" rx="3" ry="3" style="stroke:#038048;stroke-width:1.0;"/><text fill="#000000" font-family="sans-serif" font-size="14" lengthAdjust="spacing" textLength="64" x="29" y="403.792">size(): int</text><ellipse cx="20" cy="416.7422" fill="#84BE84" rx="3" ry="3" style="stroke:#038048;stroke-width:1.0;"/><text fill="#000000" font-family="sans-serif" font-size="14" lengthAdjust="spacing" textLength="191" x="29" y="420.0889">getNameAutomatic(): String</text><ellipse cx="20" cy="433.0391" fill="#84BE84" rx="3" ry="3" style="stroke:#038048;stroke-width:1.0;"/><text fill="#000000" font-family="sans-serif" font-size="14" lengthAdjust="spacing" textLength="122" x="29" y="436.3857">getName(): String</text><ellipse cx="20" cy="449.3359" fill="#84BE84" rx="3" ry="3" style="stroke:#038048;stroke-width:1.0;"/><text fill="#000000" font-family="sans-serif" font-size="14" lengthAdjust="spacing" textLength="149" x="29" y="452.6826">setName(String): void</text><ellipse cx="20" cy="465.6328" fill="#84BE84" rx="3" ry="3" style="stroke:#038048;stroke-width:1.0;"/><text fill="#000000" font-family="sans-serif" font-size="14" lengthAdjust="spacing" textLength="107" x="29" y="468.9795">getIDs(): DBIDs</text><ellipse cx="20" cy="481.9297" fill="#84BE84" rx="3" ry="3" style="stroke:#038048;stroke-width:1.0;"/><text fill="#000000" font-family="sans-serif" font-size="14" lengthAdjust="spacing" textLength="134" x="29" y="485.2764">setIDs(DBIDs): void</text><ellipse cx="20" cy="498.2266" fill="#84BE84" rx="3" ry="3" style="stroke:#038048;stroke-width:1.0;"/><text fill="#000000" font-family="sans-serif" font-size="14" lengthAdjust="spacing" textLength="202" x="29" y="501.5732">getModel(): M extends Model</text><ellipse cx="20" cy="514.5234" fill="#84BE84" rx="3" ry="3" style="stroke:#038048;stroke-width:1.0;"/><text fill="#000000" font-family="sans-serif" font-size="14" lengthAdjust="spacing" textLength="229" x="29" y="517.8701">setModel(M extends Model): void</text><ellipse cx="20" cy="530.8203" fill="#84BE84" rx="3" ry="3" style="stroke:#038048;stroke-width:1.0;"/><text fill="#000000" font-family="sans-serif" font-size="14" lengthAdjust="spacing" textLength="295" x="29" y="534.167">writeToText(TextWriterStream, String): void</text><ellipse cx="20" cy="547.1172" fill="#84BE84" rx="3" ry="3" style="stroke:#038048;stroke-width:1.0;"/><text fill="#000000" font-family="sans-serif" font-size="14" lengthAdjust="spacing" textLength="125" x="29" y="550.4639">isNoise(): boolean</text><ellipse cx="20" cy="563.4141" fill="#84BE84" rx="3" ry="3" style="stroke:#038048;stroke-width:1.0;"/><text fill="#000000" font-family="sans-serif" font-size="14" lengthAdjust="spacing" textLength="164" x="29" y="566.7607">setNoise(boolean): void</text></g></a><!--MD5=[135bb79dd8f8b1d54ecbff64dca8d91a]
class elki.result.textwriter.TextWriteable--><a href="../result/textwriter/TextWriteable.html" target="_top" title="../result/textwriter/TextWriteable.html" xlink:actuate="onRequest" xlink:href="../result/textwriter/TextWriteable.html" xlink:show="new" xlink:title="../result/textwriter/TextWriteable.html" xlink:type="simple"><g id="elem_elki.result.textwriter.TextWriteable"><rect codeLine="33" fill="#F1F1F1" height="62.2344" id="elki.result.textwriter.TextWriteable" rx="2.5" ry="2.5" style="stroke:#181818;stroke-width:0.5;" width="331" x="26.5" y="7"/><ellipse cx="137.25" cy="25.9688" fill="#B4A7E5" rx="11" ry="11" style="stroke:#181818;stroke-width:1.0;"/><path d="M133.1719,21.7344 L133.1719,19.5781 L140.5625,19.5781 L140.5625,21.7344 L138.0938,21.7344 L138.0938,29.8125 L140.5625,29.8125 L140.5625,31.9688 L133.1719,31.9688 L133.1719,29.8125 L135.6406,29.8125 L135.6406,21.7344 L133.1719,21.7344 Z " fill="#000000"/><text fill="#000000" font-family="sans-serif" font-size="14" font-style="italic" lengthAdjust="spacing" textLength="99" x="158.75" y="24.9951">TextWriteable</text><text fill="#000000" font-family="sans-serif" font-size="10" font-style="italic" lengthAdjust="spacing" textLength="101" x="157.75" y="37.5791">elki.result.textwriter</text><line style="stroke:#181818;stroke-width:0.5;" x1="27.5" x2="356.5" y1="44.9375" y2="44.9375"/><ellipse cx="37.5" cy="58.5859" fill="#84BE84" rx="3" ry="3" style="stroke:#038048;stroke-width:1.0;"/><text fill="#000000" font-family="sans-serif" font-size="14" font-style="italic" lengthAdjust="spacing" textLength="305" x="46.5" y="61.9326">writeToText(TextWriterStream, String): void</text></g></a><!--MD5=[6004bd2074d3bddbe0f39aed65a9b8d1]
reverse link elki.result.textwriter.TextWriteable to elki.data.Cluster--><g id="link_elki.result.textwriter.TextWriteable_elki.data.Cluster"><path codeLine="37" d="M192,89.29 C192,101.14 192,114.53 192,128.84 " fill="none" id="elki.result.textwriter.TextWriteable-backto-elki.data.Cluster" style="stroke:#181818;stroke-width:1.0;stroke-dasharray:7.0,7.0;"/><polygon fill="none" points="185,89.15,192,69.15,199,89.15,185,89.15" style="stroke:#181818;stroke-width:1.0;"/></g><rect fill="none" height="11.6406" style="stroke:none;stroke-width:1.0;" width="186" x="93" y="580.0625"/><text fill="#888888" font-family="sans-serif" font-size="10" lengthAdjust="spacing" textLength="186" x="93" y="589.3447">UMLDoclet 2.0.19, PlantUML 1.2022.8</text><!--MD5=[0ed17f664800ad354f9b044dea702456]
@startuml
    remove .*\.(Instance|Par|Parameterizer|Factory)$
    set namespaceSeparator none
    hide empty fields
    hide empty methods

    class "<size:14>Cluster\n<size:10>elki.data" as elki.data.Cluster<M extends Model> [[Cluster.html]] {
        #name: String
        -ids: DBIDs
        -model: M extends Model
        -noise: boolean
        {static} +BY_NAME_SORTER: Comparator<Cluster<?>>
        +Cluster(String, DBIDs, boolean, M extends Model)
        +Cluster(String, DBIDs, M extends Model)
        +Cluster(DBIDs, boolean, M extends Model)
        +Cluster(DBIDs, M extends Model)
        +Cluster(String, DBIDs, boolean)
        +Cluster(String, DBIDs)
        +Cluster(DBIDs, boolean)
        +Cluster(DBIDs)
        +size(): int
        +getNameAutomatic(): String
        +getName(): String
        +setName(String): void
        +getIDs(): DBIDs
        +setIDs(DBIDs): void
        +getModel(): M extends Model
        +setModel(M extends Model): void
        +writeToText(TextWriterStream, String): void
        +isNoise(): boolean
        +setNoise(boolean): void
    }

    interface "<size:14>TextWriteable\n<size:10>elki.result.textwriter" as elki.result.textwriter.TextWriteable [[../result/textwriter/TextWriteable.html]] {
        {abstract} +writeToText(TextWriterStream, String): void
    }

    elki.result.textwriter.TextWriteable <|.. elki.data.Cluster

    center footer UMLDoclet 2.0.19, PlantUML 1.2022.8
@enduml

PlantUML version 1.2022.8(Sun Sep 25 11:00:33 CEST 2022)
(APACHE source distribution)
Java Runtime: OpenJDK Runtime Environment
JVM: OpenJDK 64-Bit Server VM
Default Encoding: UTF-8
Language: de
Country: DE
--></g></svg>