<?xml version="1.0" encoding="UTF-8" standalone="no"?><svg xmlns="http://www.w3.org/2000/svg" xmlns:xlink="http://www.w3.org/1999/xlink" contentStyleType="text/css" height="550px" preserveAspectRatio="none" style="width:791px;height:550px;background:#FFFFFF;" version="1.1" viewBox="0 0 791 550" width="791px" zoomAndPan="magnify"><defs/><g><!--MD5=[7ceac52860aa8c2c2bb25ca8f6913452]
class elki.data.DoubleVector--><a href="DoubleVector.html" target="_top" title="DoubleVector.html" xlink:actuate="onRequest" xlink:href="DoubleVector.html" xlink:show="new" xlink:title="DoubleVector.html" xlink:type="simple"><g id="elem_elki.data.DoubleVector"><rect codeLine="6" fill="#F1F1F1" height="265.7969" id="elki.data.DoubleVector" rx="2.5" ry="2.5" style="stroke:#181818;stroke-width:0.5;" width="440" x="166.5" y="162"/><ellipse cx="334.75" cy="180.9688" fill="#ADD1B2" rx="11" ry="11" style="stroke:#181818;stroke-width:1.0;"/><path d="M337.7188,186.6094 Q337.1406,186.9063 336.5,187.0469 Q335.8594,187.2031 335.1563,187.2031 Q332.6563,187.2031 331.3281,185.5625 Q330.0156,183.9063 330.0156,180.7813 Q330.0156,177.6563 331.3281,176 Q332.6563,174.3438 335.1563,174.3438 Q335.8594,174.3438 336.5,174.5 Q337.1563,174.6563 337.7188,174.9531 L337.7188,177.6719 Q337.0938,177.0938 336.5,176.8281 Q335.9063,176.5469 335.2813,176.5469 Q333.9375,176.5469 333.25,177.625 Q332.5625,178.6875 332.5625,180.7813 Q332.5625,182.875 333.25,183.9531 Q333.9375,185.0156 335.2813,185.0156 Q335.9063,185.0156 336.5,184.75 Q337.0938,184.4688 337.7188,183.8906 L337.7188,186.6094 Z " fill="#000000"/><text fill="#000000" font-family="sans-serif" font-size="14" lengthAdjust="spacing" textLength="95" x="355.25" y="179.9951">DoubleVector</text><text fill="#000000" font-family="sans-serif" font-size="10" lengthAdjust="spacing" textLength="40" x="382.75" y="192.5791">elki.data</text><line style="stroke:#181818;stroke-width:0.5;" x1="167.5" x2="605.5" y1="199.9375" y2="199.9375"/><ellipse cx="177.5" cy="213.5859" fill="none" rx="3" ry="3" style="stroke:#038048;stroke-width:1.0;"/><text fill="#000000" font-family="sans-serif" font-size="14" lengthAdjust="spacing" text-decoration="underline" textLength="125" x="186.5" y="216.9326">FACTORY: Factory</text><ellipse cx="177.5" cy="229.8828" fill="none" rx="3" ry="3" style="stroke:#038048;stroke-width:1.0;"/><text fill="#000000" font-family="sans-serif" font-size="14" lengthAdjust="spacing" text-decoration="underline" textLength="385" x="186.5" y="233.2295">BYTE_SERIALIZER: ByteBufferSerializer&lt;DoubleVector&gt;</text><ellipse cx="177.5" cy="246.1797" fill="none" rx="3" ry="3" style="stroke:#038048;stroke-width:1.0;"/><text fill="#000000" font-family="sans-serif" font-size="14" lengthAdjust="spacing" text-decoration="underline" textLength="397" x="186.5" y="249.5264">SHORT_SERIALIZER: ByteBufferSerializer&lt;DoubleVector&gt;</text><ellipse cx="177.5" cy="262.4766" fill="none" rx="3" ry="3" style="stroke:#038048;stroke-width:1.0;"/><text fill="#000000" font-family="sans-serif" font-size="14" lengthAdjust="spacing" text-decoration="underline" textLength="414" x="186.5" y="265.8232">VARIABLE_SERIALIZER: ByteBufferSerializer&lt;DoubleVector&gt;</text><rect fill="none" height="6" style="stroke:#C82930;stroke-width:1.0;" width="6" x="174.5" y="275.7734"/><text fill="#000000" font-family="sans-serif" font-size="14" lengthAdjust="spacing" textLength="111" x="186.5" y="282.1201">values: double[]</text><line style="stroke:#181818;stroke-width:0.5;" x1="167.5" x2="605.5" y1="289.4219" y2="289.4219"/><rect fill="#F24D5C" height="6" style="stroke:#C82930;stroke-width:1.0;" width="6" x="174.5" y="300.0703"/><text fill="#000000" font-family="sans-serif" font-size="14" lengthAdjust="spacing" textLength="227" x="186.5" y="306.417">DoubleVector(double[], boolean)</text><ellipse cx="177.5" cy="319.3672" fill="#84BE84" rx="3" ry="3" style="stroke:#038048;stroke-width:1.0;"/><text fill="#000000" font-family="sans-serif" font-size="14" lengthAdjust="spacing" textLength="163" x="186.5" y="322.7139">DoubleVector(double[])</text><ellipse cx="177.5" cy="335.6641" fill="#84BE84" rx="3" ry="3" style="stroke:#038048;stroke-width:1.0;"/><text fill="#000000" font-family="sans-serif" font-size="14" lengthAdjust="spacing" textLength="159" x="186.5" y="339.0107">getDimensionality(): int</text><ellipse cx="177.5" cy="351.9609" fill="#84BE84" rx="3" ry="3" style="stroke:#038048;stroke-width:1.0;"/><text fill="#000000" font-family="sans-serif" font-size="14" lengthAdjust="spacing" textLength="170" x="186.5" y="355.3076">doubleValue(int): double</text><ellipse cx="177.5" cy="368.2578" fill="#84BE84" rx="3" ry="3" style="stroke:#038048;stroke-width:1.0;"/><text fill="#000000" font-family="sans-serif" font-size="14" lengthAdjust="spacing" textLength="134" x="186.5" y="371.6045">longValue(int): long</text><ellipse cx="177.5" cy="384.5547" fill="#84BE84" rx="3" ry="3" style="stroke:#038048;stroke-width:1.0;"/><text fill="#000000" font-family="sans-serif" font-size="14" lengthAdjust="spacing" textLength="125" x="186.5" y="387.9014">toArray(): double[]</text><ellipse cx="177.5" cy="400.8516" fill="#84BE84" rx="3" ry="3" style="stroke:#038048;stroke-width:1.0;"/><text fill="#000000" font-family="sans-serif" font-size="14" lengthAdjust="spacing" text-decoration="underline" textLength="205" x="186.5" y="404.1982">copy(double[]): DoubleVector</text><ellipse cx="177.5" cy="417.1484" fill="#84BE84" rx="3" ry="3" style="stroke:#038048;stroke-width:1.0;"/><text fill="#000000" font-family="sans-serif" font-size="14" lengthAdjust="spacing" text-decoration="underline" textLength="205" x="186.5" y="420.4951">wrap(double[]): DoubleVector</text></g></a><!--MD5=[270e881d41d9ca2c504985de7ec1dff1]
class elki.data.NumberVector--><a href="NumberVector.html" target="_top" title="NumberVector.html" xlink:actuate="onRequest" xlink:href="NumberVector.html" xlink:show="new" xlink:title="NumberVector.html" xlink:type="simple"><g id="elem_elki.data.NumberVector"><rect codeLine="22" fill="#F1F1F1" height="94.8281" id="elki.data.NumberVector" rx="2.5" ry="2.5" style="stroke:#181818;stroke-width:0.5;" width="202" x="285.5" y="7"/><ellipse cx="330.75" cy="25.9688" fill="#B4A7E5" rx="11" ry="11" style="stroke:#181818;stroke-width:1.0;"/><path d="M326.6719,21.7344 L326.6719,19.5781 L334.0625,19.5781 L334.0625,21.7344 L331.5938,21.7344 L331.5938,29.8125 L334.0625,29.8125 L334.0625,31.9688 L326.6719,31.9688 L326.6719,29.8125 L329.1406,29.8125 L329.1406,21.7344 L326.6719,21.7344 Z " fill="#000000"/><text fill="#000000" font-family="sans-serif" font-size="14" font-style="italic" lengthAdjust="spacing" textLength="103" x="351.25" y="24.9951">NumberVector</text><text fill="#000000" font-family="sans-serif" font-size="10" font-style="italic" lengthAdjust="spacing" textLength="43" x="381.25" y="37.5791">elki.data</text><line style="stroke:#181818;stroke-width:0.5;" x1="286.5" x2="486.5" y1="44.9375" y2="44.9375"/><ellipse cx="296.5" cy="58.5859" fill="#84BE84" rx="3" ry="3" style="stroke:#038048;stroke-width:1.0;"/><text fill="#000000" font-family="sans-serif" font-size="14" font-style="italic" lengthAdjust="spacing" textLength="176" x="305.5" y="61.9326">doubleValue(int): double</text><ellipse cx="296.5" cy="74.8828" fill="#84BE84" rx="3" ry="3" style="stroke:#038048;stroke-width:1.0;"/><text fill="#000000" font-family="sans-serif" font-size="14" font-style="italic" lengthAdjust="spacing" textLength="140" x="305.5" y="78.2295">longValue(int): long</text><ellipse cx="296.5" cy="91.1797" fill="#84BE84" rx="3" ry="3" style="stroke:#038048;stroke-width:1.0;"/><text fill="#000000" font-family="sans-serif" font-size="14" font-style="italic" lengthAdjust="spacing" textLength="129" x="305.5" y="94.5264">toArray(): double[]</text></g></a><!--MD5=[f393c924c612fb42284f32da71571fcc]
class elki.data.DoubleVector.SmallSerializer--><a href="DoubleVector.SmallSerializer.html" target="_top" title="DoubleVector.SmallSerializer.html" xlink:actuate="onRequest" xlink:href="DoubleVector.SmallSerializer.html" xlink:show="new" xlink:title="DoubleVector.SmallSerializer.html" xlink:type="simple"><g id="elem_elki.data.DoubleVector.SmallSerializer"><rect codeLine="28" fill="#F1F1F1" height="37.9375" id="elki.data.DoubleVector.SmallSerializer" rx="2.5" ry="2.5" style="stroke:#181818;stroke-width:0.5;" width="229" x="7" y="488"/><ellipse cx="22" cy="506.9688" fill="#ADD1B2" rx="11" ry="11" style="stroke:#181818;stroke-width:1.0;"/><path d="M24.9688,512.6094 Q24.3906,512.9063 23.75,513.0469 Q23.1094,513.2031 22.4063,513.2031 Q19.9063,513.2031 18.5781,511.5625 Q17.2656,509.9063 17.2656,506.7813 Q17.2656,503.6563 18.5781,502 Q19.9063,500.3438 22.4063,500.3438 Q23.1094,500.3438 23.75,500.5 Q24.4063,500.6563 24.9688,500.9531 L24.9688,503.6719 Q24.3438,503.0938 23.75,502.8281 Q23.1563,502.5469 22.5313,502.5469 Q21.1875,502.5469 20.5,503.625 Q19.8125,504.6875 19.8125,506.7813 Q19.8125,508.875 20.5,509.9531 Q21.1875,511.0156 22.5313,511.0156 Q23.1563,511.0156 23.75,510.75 Q24.3438,510.4688 24.9688,509.8906 L24.9688,512.6094 Z " fill="#000000"/><text fill="#000000" font-family="sans-serif" font-size="14" lengthAdjust="spacing" textLength="197" x="36" y="505.9951">DoubleVector.SmallSerializer</text><text fill="#000000" font-family="sans-serif" font-size="10" lengthAdjust="spacing" textLength="40" x="114.5" y="518.5791">elki.data</text></g></a><!--MD5=[98b7b0c78c123ad8b38f8c1620281995]
class elki.data.DoubleVector.ShortSerializer--><a href="DoubleVector.ShortSerializer.html" target="_top" title="DoubleVector.ShortSerializer.html" xlink:actuate="onRequest" xlink:href="DoubleVector.ShortSerializer.html" xlink:show="new" xlink:title="DoubleVector.ShortSerializer.html" xlink:type="simple"><g id="elem_elki.data.DoubleVector.ShortSerializer"><rect codeLine="29" fill="#F1F1F1" height="37.9375" id="elki.data.DoubleVector.ShortSerializer" rx="2.5" ry="2.5" style="stroke:#181818;stroke-width:0.5;" width="230" x="271.5" y="488"/><ellipse cx="286.5" cy="506.9688" fill="#ADD1B2" rx="11" ry="11" style="stroke:#181818;stroke-width:1.0;"/><path d="M289.4688,512.6094 Q288.8906,512.9063 288.25,513.0469 Q287.6094,513.2031 286.9063,513.2031 Q284.4063,513.2031 283.0781,511.5625 Q281.7656,509.9063 281.7656,506.7813 Q281.7656,503.6563 283.0781,502 Q284.4063,500.3438 286.9063,500.3438 Q287.6094,500.3438 288.25,500.5 Q288.9063,500.6563 289.4688,500.9531 L289.4688,503.6719 Q288.8438,503.0938 288.25,502.8281 Q287.6563,502.5469 287.0313,502.5469 Q285.6875,502.5469 285,503.625 Q284.3125,504.6875 284.3125,506.7813 Q284.3125,508.875 285,509.9531 Q285.6875,511.0156 287.0313,511.0156 Q287.6563,511.0156 288.25,510.75 Q288.8438,510.4688 289.4688,509.8906 L289.4688,512.6094 Z " fill="#000000"/><text fill="#000000" font-family="sans-serif" font-size="14" lengthAdjust="spacing" textLength="198" x="300.5" y="505.9951">DoubleVector.ShortSerializer</text><text fill="#000000" font-family="sans-serif" font-size="10" lengthAdjust="spacing" textLength="40" x="379.5" y="518.5791">elki.data</text></g></a><!--MD5=[f1203d6040c240f69b7880ad5ef6ba9e]
class elki.data.DoubleVector.VariableSerializer--><a href="DoubleVector.VariableSerializer.html" target="_top" title="DoubleVector.VariableSerializer.html" xlink:actuate="onRequest" xlink:href="DoubleVector.VariableSerializer.html" xlink:show="new" xlink:title="DoubleVector.VariableSerializer.html" xlink:type="simple"><g id="elem_elki.data.DoubleVector.VariableSerializer"><rect codeLine="30" fill="#F1F1F1" height="37.9375" id="elki.data.DoubleVector.VariableSerializer" rx="2.5" ry="2.5" style="stroke:#181818;stroke-width:0.5;" width="247" x="537" y="488"/><ellipse cx="552" cy="506.9688" fill="#ADD1B2" rx="11" ry="11" style="stroke:#181818;stroke-width:1.0;"/><path d="M554.9688,512.6094 Q554.3906,512.9063 553.75,513.0469 Q553.1094,513.2031 552.4063,513.2031 Q549.9063,513.2031 548.5781,511.5625 Q547.2656,509.9063 547.2656,506.7813 Q547.2656,503.6563 548.5781,502 Q549.9063,500.3438 552.4063,500.3438 Q553.1094,500.3438 553.75,500.5 Q554.4063,500.6563 554.9688,500.9531 L554.9688,503.6719 Q554.3438,503.0938 553.75,502.8281 Q553.1563,502.5469 552.5313,502.5469 Q551.1875,502.5469 550.5,503.625 Q549.8125,504.6875 549.8125,506.7813 Q549.8125,508.875 550.5,509.9531 Q551.1875,511.0156 552.5313,511.0156 Q553.1563,511.0156 553.75,510.75 Q554.3438,510.4688 554.9688,509.8906 L554.9688,512.6094 Z " fill="#000000"/><text fill="#000000" font-family="sans-serif" font-size="14" lengthAdjust="spacing" textLength="215" x="566" y="505.9951">DoubleVector.VariableSerializer</text><text fill="#000000" font-family="sans-serif" font-size="10" lengthAdjust="spacing" textLength="40" x="653.5" y="518.5791">elki.data</text></g></a><!--MD5=[c29b5d5c7fd90917801f1fc2e456e169]
reverse link elki.data.NumberVector to elki.data.DoubleVector--><g id="link_elki.data.NumberVector_elki.data.DoubleVector"><path codeLine="32" d="M386.5,122.08 C386.5,134.61 386.5,148.1 386.5,161.82 " fill="none" id="elki.data.NumberVector-backto-elki.data.DoubleVector" style="stroke:#181818;stroke-width:1.0;stroke-dasharray:7.0,7.0;"/><polygon fill="none" points="379.5,122.05,386.5,102.05,393.5,122.05,379.5,122.05" style="stroke:#181818;stroke-width:1.0;"/></g><!--MD5=[85766e394c50e18bfa946337aef7973b]
reverse link elki.data.DoubleVector to elki.data.DoubleVector.SmallSerializer--><g id="link_elki.data.DoubleVector_elki.data.DoubleVector.SmallSerializer"><path codeLine="34" d="M207.71,437.68 C182.63,457.56 160.08,475.43 144.34,487.9 " fill="none" id="elki.data.DoubleVector-backto-elki.data.DoubleVector.SmallSerializer" style="stroke:#181818;stroke-width:1.0;"/><ellipse cx="213.5293" cy="433.0678" fill="#FFFFFF" rx="8" ry="8" style="stroke:#181818;stroke-width:1.0;"/><line style="stroke:#181818;stroke-width:1.0;" x1="207.2587" x2="219.8" y1="438.0355" y2="428.1"/><line style="stroke:#181818;stroke-width:1.0;" x1="208.5616" x2="218.4971" y1="426.7971" y2="439.3384"/></g><!--MD5=[7f2cad27e10e6e695dfdd9fb513d3d65]
reverse link elki.data.DoubleVector to elki.data.DoubleVector.ShortSerializer--><g id="link_elki.data.DoubleVector_elki.data.DoubleVector.ShortSerializer"><path codeLine="35" d="M386.5,443.29 C386.5,460.91 386.5,476.61 386.5,487.9 " fill="none" id="elki.data.DoubleVector-backto-elki.data.DoubleVector.ShortSerializer" style="stroke:#181818;stroke-width:1.0;"/><ellipse cx="386.5" cy="436.1" fill="#FFFFFF" rx="8" ry="8" style="stroke:#181818;stroke-width:1.0;"/><line style="stroke:#181818;stroke-width:1.0;" x1="386.5" x2="386.5" y1="444.1" y2="428.1"/><line style="stroke:#181818;stroke-width:1.0;" x1="378.5" x2="394.5" y1="436.1" y2="436.1"/></g><!--MD5=[079c9acf0b415d529895d1243f3a4e67]
reverse link elki.data.DoubleVector to elki.data.DoubleVector.VariableSerializer--><g id="link_elki.data.DoubleVector_elki.data.DoubleVector.VariableSerializer"><path codeLine="36" d="M571.01,437.41 C597.08,457.4 620.54,475.37 636.89,487.9 " fill="none" id="elki.data.DoubleVector-backto-elki.data.DoubleVector.VariableSerializer" style="stroke:#181818;stroke-width:1.0;"/><ellipse cx="565.2075" cy="432.9692" fill="#FFFFFF" rx="8" ry="8" style="stroke:#181818;stroke-width:1.0;"/><line style="stroke:#181818;stroke-width:1.0;" x1="571.555" x2="558.86" y1="437.8384" y2="428.1"/><line style="stroke:#181818;stroke-width:1.0;" x1="560.3383" x2="570.0767" y1="439.3167" y2="426.6217"/></g><rect fill="none" height="11.6406" style="stroke:none;stroke-width:1.0;" width="186" x="295.5" y="530.9375"/><text fill="#888888" font-family="sans-serif" font-size="10" lengthAdjust="spacing" textLength="186" x="295.5" y="540.2197">UMLDoclet 2.0.19, PlantUML 1.2022.8</text><!--MD5=[eb5488382fc78b502bbf810d9929d55a]
@startuml
    remove .*\.(Instance|Par|Parameterizer|Factory)$
    set namespaceSeparator none
    hide empty fields
    hide empty methods

    class "<size:14>DoubleVector\n<size:10>elki.data" as elki.data.DoubleVector [[DoubleVector.html]] {
        {static} +FACTORY: Factory
        {static} +BYTE_SERIALIZER: ByteBufferSerializer<DoubleVector>
        {static} +SHORT_SERIALIZER: ByteBufferSerializer<DoubleVector>
        {static} +VARIABLE_SERIALIZER: ByteBufferSerializer<DoubleVector>
        -values: double[]
        -DoubleVector(double[], boolean)
        +DoubleVector(double[])
        +getDimensionality(): int
        +doubleValue(int): double
        +longValue(int): long
        +toArray(): double[]
        {static} +copy(double[]): DoubleVector
        {static} +wrap(double[]): DoubleVector
    }

    interface "<size:14>NumberVector\n<size:10>elki.data" as elki.data.NumberVector [[NumberVector.html]] {
        {abstract} +doubleValue(int): double
        {abstract} +longValue(int): long
        {abstract} +toArray(): double[]
    }
    class "<size:14>DoubleVector.Factory\n<size:10>elki.data" as elki.data.DoubleVector.Factory [[DoubleVector.Factory.html]]
    class "<size:14>DoubleVector.SmallSerializer\n<size:10>elki.data" as elki.data.DoubleVector.SmallSerializer [[DoubleVector.SmallSerializer.html]]
    class "<size:14>DoubleVector.ShortSerializer\n<size:10>elki.data" as elki.data.DoubleVector.ShortSerializer [[DoubleVector.ShortSerializer.html]]
    class "<size:14>DoubleVector.VariableSerializer\n<size:10>elki.data" as elki.data.DoubleVector.VariableSerializer [[DoubleVector.VariableSerializer.html]]

    elki.data.NumberVector <|.. elki.data.DoubleVector
    elki.data.DoubleVector +- - elki.data.DoubleVector.Factory
    elki.data.DoubleVector +- - elki.data.DoubleVector.SmallSerializer
    elki.data.DoubleVector +- - elki.data.DoubleVector.ShortSerializer
    elki.data.DoubleVector +- - elki.data.DoubleVector.VariableSerializer

    center footer UMLDoclet 2.0.19, PlantUML 1.2022.8
@enduml

PlantUML version 1.2022.8(Sun Sep 25 11:00:33 CEST 2022)
(APACHE source distribution)
Java Runtime: OpenJDK Runtime Environment
JVM: OpenJDK 64-Bit Server VM
Default Encoding: UTF-8
Language: de
Country: DE
--></g></svg>