<?xml version="1.0" encoding="UTF-8" standalone="no"?><svg xmlns="http://www.w3.org/2000/svg" xmlns:xlink="http://www.w3.org/1999/xlink" contentStyleType="text/css" height="437px" preserveAspectRatio="none" style="width:502px;height:437px;background:#FFFFFF;" version="1.1" viewBox="0 0 502 437" width="502px" zoomAndPan="magnify"><defs/><g><!--MD5=[28898b6fad39cb5ce20a6b57bf8a94db]
class elki.data.HyperBoundingBox--><a href="HyperBoundingBox.html" target="_top" title="HyperBoundingBox.html" xlink:actuate="onRequest" xlink:href="HyperBoundingBox.html" xlink:show="new" xlink:title="HyperBoundingBox.html" xlink:type="simple"><g id="elem_elki.data.HyperBoundingBox"><rect codeLine="6" fill="#F1F1F1" height="249.5" id="elki.data.HyperBoundingBox" rx="2.5" ry="2.5" style="stroke:#181818;stroke-width:0.5;" width="297" x="85.5" y="162"/><ellipse cx="163.25" cy="180.9688" fill="#ADD1B2" rx="11" ry="11" style="stroke:#181818;stroke-width:1.0;"/><path d="M166.2188,186.6094 Q165.6406,186.9063 165,187.0469 Q164.3594,187.2031 163.6563,187.2031 Q161.1563,187.2031 159.8281,185.5625 Q158.5156,183.9063 158.5156,180.7813 Q158.5156,177.6563 159.8281,176 Q161.1563,174.3438 163.6563,174.3438 Q164.3594,174.3438 165,174.5 Q165.6563,174.6563 166.2188,174.9531 L166.2188,177.6719 Q165.5938,177.0938 165,176.8281 Q164.4063,176.5469 163.7813,176.5469 Q162.4375,176.5469 161.75,177.625 Q161.0625,178.6875 161.0625,180.7813 Q161.0625,182.875 161.75,183.9531 Q162.4375,185.0156 163.7813,185.0156 Q164.4063,185.0156 165,184.75 Q165.5938,184.4688 166.2188,183.8906 L166.2188,186.6094 Z " fill="#000000"/><text fill="#000000" font-family="sans-serif" font-size="14" lengthAdjust="spacing" textLength="133" x="183.75" y="179.9951">HyperBoundingBox</text><text fill="#000000" font-family="sans-serif" font-size="10" lengthAdjust="spacing" textLength="40" x="230.25" y="192.5791">elki.data</text><line style="stroke:#181818;stroke-width:0.5;" x1="86.5" x2="381.5" y1="199.9375" y2="199.9375"/><rect fill="none" height="6" style="stroke:#C82930;stroke-width:1.0;" width="6" x="93.5" y="210.5859"/><text fill="#000000" font-family="sans-serif" font-size="14" lengthAdjust="spacing" text-decoration="underline" textLength="151" x="105.5" y="216.9326">serialVersionUID: long</text><polygon fill="none" points="96.5,225.8828,92.5,231.8828,100.5,231.8828" style="stroke:#1963A0;stroke-width:1.0;"/><text fill="#000000" font-family="sans-serif" font-size="14" lengthAdjust="spacing" textLength="92" x="105.5" y="233.2295">min: double[]</text><polygon fill="none" points="96.5,242.1797,92.5,248.1797,100.5,248.1797" style="stroke:#1963A0;stroke-width:1.0;"/><text fill="#000000" font-family="sans-serif" font-size="14" lengthAdjust="spacing" textLength="95" x="105.5" y="249.5264">max: double[]</text><line style="stroke:#181818;stroke-width:0.5;" x1="86.5" x2="381.5" y1="256.8281" y2="256.8281"/><ellipse cx="96.5" cy="270.4766" fill="#84BE84" rx="3" ry="3" style="stroke:#038048;stroke-width:1.0;"/><text fill="#000000" font-family="sans-serif" font-size="14" lengthAdjust="spacing" textLength="143" x="105.5" y="273.8232">HyperBoundingBox()</text><ellipse cx="96.5" cy="286.7734" fill="#84BE84" rx="3" ry="3" style="stroke:#038048;stroke-width:1.0;"/><text fill="#000000" font-family="sans-serif" font-size="14" lengthAdjust="spacing" textLength="267" x="105.5" y="290.1201">HyperBoundingBox(double[], double[])</text><ellipse cx="96.5" cy="303.0703" fill="#84BE84" rx="3" ry="3" style="stroke:#038048;stroke-width:1.0;"/><text fill="#000000" font-family="sans-serif" font-size="14" lengthAdjust="spacing" textLength="271" x="105.5" y="306.417">HyperBoundingBox(SpatialComparable)</text><ellipse cx="96.5" cy="319.3672" fill="#84BE84" rx="3" ry="3" style="stroke:#038048;stroke-width:1.0;"/><text fill="#000000" font-family="sans-serif" font-size="14" lengthAdjust="spacing" textLength="131" x="105.5" y="322.7139">getMin(int): double</text><ellipse cx="96.5" cy="335.6641" fill="#84BE84" rx="3" ry="3" style="stroke:#038048;stroke-width:1.0;"/><text fill="#000000" font-family="sans-serif" font-size="14" lengthAdjust="spacing" textLength="134" x="105.5" y="339.0107">getMax(int): double</text><ellipse cx="96.5" cy="351.9609" fill="#84BE84" rx="3" ry="3" style="stroke:#038048;stroke-width:1.0;"/><text fill="#000000" font-family="sans-serif" font-size="14" lengthAdjust="spacing" textLength="159" x="105.5" y="355.3076">getDimensionality(): int</text><ellipse cx="96.5" cy="368.2578" fill="#84BE84" rx="3" ry="3" style="stroke:#038048;stroke-width:1.0;"/><text fill="#000000" font-family="sans-serif" font-size="14" lengthAdjust="spacing" textLength="264" x="105.5" y="371.6045">toString(String, NumberFormat): String</text><ellipse cx="96.5" cy="384.5547" fill="#84BE84" rx="3" ry="3" style="stroke:#038048;stroke-width:1.0;"/><text fill="#000000" font-family="sans-serif" font-size="14" lengthAdjust="spacing" textLength="228" x="105.5" y="387.9014">writeExternal(ObjectOutput): void</text><ellipse cx="96.5" cy="400.8516" fill="#84BE84" rx="3" ry="3" style="stroke:#038048;stroke-width:1.0;"/><text fill="#000000" font-family="sans-serif" font-size="14" lengthAdjust="spacing" textLength="213" x="105.5" y="404.1982">readExternal(ObjectInput): void</text></g></a><!--MD5=[fcd46920285db0b2ccf06276dd312c21]
class elki.data.spatial.SpatialComparable--><a href="spatial/SpatialComparable.html" target="_top" title="spatial/SpatialComparable.html" xlink:actuate="onRequest" xlink:href="spatial/SpatialComparable.html" xlink:show="new" xlink:title="spatial/SpatialComparable.html" xlink:type="simple"><g id="elem_elki.data.spatial.SpatialComparable"><rect codeLine="21" fill="#F1F1F1" height="94.8281" id="elki.data.spatial.SpatialComparable" rx="2.5" ry="2.5" style="stroke:#181818;stroke-width:0.5;" width="192" x="7" y="7"/><ellipse cx="32.8" cy="25.9688" fill="#B4A7E5" rx="11" ry="11" style="stroke:#181818;stroke-width:1.0;"/><path d="M28.7219,21.7344 L28.7219,19.5781 L36.1125,19.5781 L36.1125,21.7344 L33.6438,21.7344 L33.6438,29.8125 L36.1125,29.8125 L36.1125,31.9688 L28.7219,31.9688 L28.7219,29.8125 L31.1906,29.8125 L31.1906,21.7344 L28.7219,21.7344 Z " fill="#000000"/><text fill="#000000" font-family="sans-serif" font-size="14" font-style="italic" lengthAdjust="spacing" textLength="136" x="49.2" y="24.9951">SpatialComparable</text><text fill="#000000" font-family="sans-serif" font-size="10" font-style="italic" lengthAdjust="spacing" textLength="79" x="77.7" y="37.5791">elki.data.spatial</text><line style="stroke:#181818;stroke-width:0.5;" x1="8" x2="198" y1="44.9375" y2="44.9375"/><ellipse cx="18" cy="58.5859" fill="#84BE84" rx="3" ry="3" style="stroke:#038048;stroke-width:1.0;"/><text fill="#000000" font-family="sans-serif" font-size="14" font-style="italic" lengthAdjust="spacing" textLength="166" x="27" y="61.9326">getDimensionality(): int</text><ellipse cx="18" cy="74.8828" fill="#84BE84" rx="3" ry="3" style="stroke:#038048;stroke-width:1.0;"/><text fill="#000000" font-family="sans-serif" font-size="14" font-style="italic" lengthAdjust="spacing" textLength="134" x="27" y="78.2295">getMin(int): double</text><ellipse cx="18" cy="91.1797" fill="#84BE84" rx="3" ry="3" style="stroke:#038048;stroke-width:1.0;"/><text fill="#000000" font-family="sans-serif" font-size="14" font-style="italic" lengthAdjust="spacing" textLength="138" x="27" y="94.5264">getMax(int): double</text></g></a><!--MD5=[a0b94d8eead1d7e17630c46d7bb7bb24]
class java.io.Externalizable--><g id="elem_java.io.Externalizable"><rect codeLine="26" fill="#F1F1F1" height="78.5313" id="java.io.Externalizable" rx="2.5" ry="2.5" style="stroke:#181818;stroke-width:0.5;" width="261" x="234.5" y="15"/><ellipse cx="310.75" cy="33.9688" fill="#B4A7E5" rx="11" ry="11" style="stroke:#181818;stroke-width:1.0;"/><path d="M306.6719,29.7344 L306.6719,27.5781 L314.0625,27.5781 L314.0625,29.7344 L311.5938,29.7344 L311.5938,37.8125 L314.0625,37.8125 L314.0625,39.9688 L306.6719,39.9688 L306.6719,37.8125 L309.1406,37.8125 L309.1406,29.7344 L306.6719,29.7344 Z " fill="#000000"/><text fill="#000000" font-family="sans-serif" font-size="14" font-style="italic" lengthAdjust="spacing" textLength="100" x="331.25" y="32.9951">Externalizable</text><text fill="#000000" font-family="sans-serif" font-size="10" font-style="italic" lengthAdjust="spacing" textLength="33" x="364.75" y="45.5791">java.io</text><line style="stroke:#181818;stroke-width:0.5;" x1="235.5" x2="494.5" y1="52.9375" y2="52.9375"/><ellipse cx="245.5" cy="66.5859" fill="#84BE84" rx="3" ry="3" style="stroke:#038048;stroke-width:1.0;"/><text fill="#000000" font-family="sans-serif" font-size="14" font-style="italic" lengthAdjust="spacing" textLength="235" x="254.5" y="69.9326">writeExternal(ObjectOutput): void</text><ellipse cx="245.5" cy="82.8828" fill="#84BE84" rx="3" ry="3" style="stroke:#038048;stroke-width:1.0;"/><text fill="#000000" font-family="sans-serif" font-size="14" font-style="italic" lengthAdjust="spacing" textLength="221" x="254.5" y="86.2295">readExternal(ObjectInput): void</text></g><!--MD5=[85f24f1014533dbb35cecdda69a49cd0]
reverse link elki.data.spatial.SpatialComparable to elki.data.HyperBoundingBox--><g id="link_elki.data.spatial.SpatialComparable_elki.data.HyperBoundingBox"><path codeLine="31" d="M139.59,119.88 C147.05,133.02 155.15,147.25 163.34,161.68 " fill="none" id="elki.data.spatial.SpatialComparable-backto-elki.data.HyperBoundingBox" style="stroke:#181818;stroke-width:1.0;stroke-dasharray:7.0,7.0;"/><polygon fill="none" points="133.31,122.99,129.51,102.15,145.48,116.07,133.31,122.99" style="stroke:#181818;stroke-width:1.0;"/></g><!--MD5=[3f476e1aa0ff8e38c1441aa4ffd2a74b]
reverse link java.io.Externalizable to elki.data.HyperBoundingBox--><g id="link_java.io.Externalizable_elki.data.HyperBoundingBox"><path codeLine="32" d="M333.07,111.69 C324.37,126.99 314.59,144.2 304.66,161.68 " fill="none" id="java.io.Externalizable-backto-elki.data.HyperBoundingBox" style="stroke:#181818;stroke-width:1.0;stroke-dasharray:7.0,7.0;"/><polygon fill="none" points="327.11,108.01,343.07,94.08,339.28,114.93,327.11,108.01" style="stroke:#181818;stroke-width:1.0;"/></g><rect fill="none" height="11.6406" style="stroke:none;stroke-width:1.0;" width="186" x="151.25" y="417.5"/><text fill="#888888" font-family="sans-serif" font-size="10" lengthAdjust="spacing" textLength="186" x="151.25" y="426.7822">UMLDoclet 2.0.19, PlantUML 1.2022.8</text><!--MD5=[88a8065d3d213b9782e8c7afcd6be982]
@startuml
    remove .*\.(Instance|Par|Parameterizer|Factory)$
    set namespaceSeparator none
    hide empty fields
    hide empty methods

    class "<size:14>HyperBoundingBox\n<size:10>elki.data" as elki.data.HyperBoundingBox [[HyperBoundingBox.html]] {
        {static} -serialVersionUID: long
        ~min: double[]
        ~max: double[]
        +HyperBoundingBox()
        +HyperBoundingBox(double[], double[])
        +HyperBoundingBox(SpatialComparable)
        +getMin(int): double
        +getMax(int): double
        +getDimensionality(): int
        +toString(String, NumberFormat): String
        +writeExternal(ObjectOutput): void
        +readExternal(ObjectInput): void
    }

    interface "<size:14>SpatialComparable\n<size:10>elki.data.spatial" as elki.data.spatial.SpatialComparable [[spatial/SpatialComparable.html]] {
        {abstract} +getDimensionality(): int
        {abstract} +getMin(int): double
        {abstract} +getMax(int): double
    }
    interface "<size:14>Externalizable\n<size:10>java.io" as java.io.Externalizable {
        {abstract} +writeExternal(ObjectOutput): void
        {abstract} +readExternal(ObjectInput): void
    }

    elki.data.spatial.SpatialComparable <|.. elki.data.HyperBoundingBox
    java.io.Externalizable <|.. elki.data.HyperBoundingBox

    center footer UMLDoclet 2.0.19, PlantUML 1.2022.8
@enduml

PlantUML version 1.2022.8(Sun Sep 25 11:00:33 CEST 2022)
(APACHE source distribution)
Java Runtime: OpenJDK Runtime Environment
JVM: OpenJDK 64-Bit Server VM
Default Encoding: UTF-8
Language: de
Country: DE
--></g></svg>