<?xml version="1.0" encoding="UTF-8" standalone="no"?><svg xmlns="http://www.w3.org/2000/svg" xmlns:xlink="http://www.w3.org/1999/xlink" contentStyleType="text/css" height="696px" preserveAspectRatio="none" style="width:502px;height:696px;background:#FFFFFF;" version="1.1" viewBox="0 0 502 696" width="502px" zoomAndPan="magnify"><defs/><g><!--MD5=[5839894bf4a817c2eff32d2a40813251]
class elki.data.SparseDoubleVector--><a href="SparseDoubleVector.html" target="_top" title="SparseDoubleVector.html" xlink:actuate="onRequest" xlink:href="SparseDoubleVector.html" xlink:show="new" xlink:title="SparseDoubleVector.html" xlink:type="simple"><g id="elem_elki.data.SparseDoubleVector"><rect codeLine="6" fill="#F1F1F1" height="379.875" id="elki.data.SparseDoubleVector" rx="2.5" ry="2.5" style="stroke:#181818;stroke-width:0.5;" width="488" x="7" y="194"/><ellipse cx="175.25" cy="212.9688" fill="#ADD1B2" rx="11" ry="11" style="stroke:#181818;stroke-width:1.0;"/><path d="M178.2188,218.6094 Q177.6406,218.9063 177,219.0469 Q176.3594,219.2031 175.6563,219.2031 Q173.1563,219.2031 171.8281,217.5625 Q170.5156,215.9063 170.5156,212.7813 Q170.5156,209.6563 171.8281,208 Q173.1563,206.3438 175.6563,206.3438 Q176.3594,206.3438 177,206.5 Q177.6563,206.6563 178.2188,206.9531 L178.2188,209.6719 Q177.5938,209.0938 177,208.8281 Q176.4063,208.5469 175.7813,208.5469 Q174.4375,208.5469 173.75,209.625 Q173.0625,210.6875 173.0625,212.7813 Q173.0625,214.875 173.75,215.9531 Q174.4375,217.0156 175.7813,217.0156 Q176.4063,217.0156 177,216.75 Q177.5938,216.4688 178.2188,215.8906 L178.2188,218.6094 Z " fill="#000000"/><text fill="#000000" font-family="sans-serif" font-size="14" lengthAdjust="spacing" textLength="143" x="195.75" y="211.9951">SparseDoubleVector</text><text fill="#000000" font-family="sans-serif" font-size="10" lengthAdjust="spacing" textLength="40" x="247.25" y="224.5791">elki.data</text><line style="stroke:#181818;stroke-width:0.5;" x1="8" x2="494" y1="231.9375" y2="231.9375"/><ellipse cx="18" cy="245.5859" fill="none" rx="3" ry="3" style="stroke:#038048;stroke-width:1.0;"/><text fill="#000000" font-family="sans-serif" font-size="14" lengthAdjust="spacing" text-decoration="underline" textLength="125" x="27" y="248.9326">FACTORY: Factory</text><ellipse cx="18" cy="261.8828" fill="none" rx="3" ry="3" style="stroke:#038048;stroke-width:1.0;"/><text fill="#000000" font-family="sans-serif" font-size="14" lengthAdjust="spacing" text-decoration="underline" textLength="462" x="27" y="265.2295">VARIABLE_SERIALIZER: ByteBufferSerializer&lt;SparseDoubleVector&gt;</text><rect fill="none" height="6" style="stroke:#C82930;stroke-width:1.0;" width="6" x="15" y="275.1797"/><text fill="#000000" font-family="sans-serif" font-size="14" lengthAdjust="spacing" text-decoration="underline" textLength="124" x="27" y="281.5264">DOUBLE0: double</text><rect fill="none" height="6" style="stroke:#C82930;stroke-width:1.0;" width="6" x="15" y="291.4766"/><text fill="#000000" font-family="sans-serif" font-size="14" lengthAdjust="spacing" textLength="90" x="27" y="297.8232">indexes: int[]</text><rect fill="none" height="6" style="stroke:#C82930;stroke-width:1.0;" width="6" x="15" y="307.7734"/><text fill="#000000" font-family="sans-serif" font-size="14" lengthAdjust="spacing" textLength="111" x="27" y="314.1201">values: double[]</text><rect fill="none" height="6" style="stroke:#C82930;stroke-width:1.0;" width="6" x="15" y="324.0703"/><text fill="#000000" font-family="sans-serif" font-size="14" lengthAdjust="spacing" textLength="124" x="27" y="330.417">dimensionality: int</text><line style="stroke:#181818;stroke-width:0.5;" x1="8" x2="494" y1="337.7188" y2="337.7188"/><ellipse cx="18" cy="351.3672" fill="#84BE84" rx="3" ry="3" style="stroke:#038048;stroke-width:1.0;"/><text fill="#000000" font-family="sans-serif" font-size="14" lengthAdjust="spacing" textLength="271" x="27" y="354.7139">SparseDoubleVector(int[], double[], int)</text><ellipse cx="18" cy="367.6641" fill="#84BE84" rx="3" ry="3" style="stroke:#038048;stroke-width:1.0;"/><text fill="#000000" font-family="sans-serif" font-size="14" lengthAdjust="spacing" textLength="356" x="27" y="371.0107">SparseDoubleVector(Int2DoubleOpenHashMap, int)</text><ellipse cx="18" cy="383.9609" fill="#84BE84" rx="3" ry="3" style="stroke:#038048;stroke-width:1.0;"/><text fill="#000000" font-family="sans-serif" font-size="14" lengthAdjust="spacing" textLength="211" x="27" y="387.3076">SparseDoubleVector(double[])</text><rect fill="#F24D5C" height="6" style="stroke:#C82930;stroke-width:1.0;" width="6" x="15" y="397.2578"/><text fill="#000000" font-family="sans-serif" font-size="14" lengthAdjust="spacing" textLength="113" x="27" y="403.6045">getMaxDim(): int</text><ellipse cx="18" cy="416.5547" fill="#84BE84" rx="3" ry="3" style="stroke:#038048;stroke-width:1.0;"/><text fill="#000000" font-family="sans-serif" font-size="14" lengthAdjust="spacing" textLength="159" x="27" y="419.9014">getDimensionality(): int</text><ellipse cx="18" cy="432.8516" fill="#84BE84" rx="3" ry="3" style="stroke:#038048;stroke-width:1.0;"/><text fill="#000000" font-family="sans-serif" font-size="14" lengthAdjust="spacing" textLength="186" x="27" y="436.1982">setDimensionality(int): void</text><ellipse cx="18" cy="449.1484" fill="#84BE84" rx="3" ry="3" style="stroke:#038048;stroke-width:1.0;"/><text fill="#000000" font-family="sans-serif" font-size="14" lengthAdjust="spacing" text-decoration="line-through" textLength="61" x="27" y="452.4951">getValue</text><text fill="#000000" font-family="sans-serif" font-size="14" lengthAdjust="spacing" textLength="86" x="88" y="452.4951">(int): Double</text><ellipse cx="18" cy="465.4453" fill="#84BE84" rx="3" ry="3" style="stroke:#038048;stroke-width:1.0;"/><text fill="#000000" font-family="sans-serif" font-size="14" lengthAdjust="spacing" text-decoration="line-through" textLength="86" x="27" y="468.792">doubleValue</text><text fill="#000000" font-family="sans-serif" font-size="14" lengthAdjust="spacing" textLength="84" x="113" y="468.792">(int): double</text><ellipse cx="18" cy="481.7422" fill="#84BE84" rx="3" ry="3" style="stroke:#038048;stroke-width:1.0;"/><text fill="#000000" font-family="sans-serif" font-size="14" lengthAdjust="spacing" text-decoration="line-through" textLength="68" x="27" y="485.0889">longValue</text><text fill="#000000" font-family="sans-serif" font-size="14" lengthAdjust="spacing" textLength="66" x="95" y="485.0889">(int): long</text><ellipse cx="18" cy="498.0391" fill="#84BE84" rx="3" ry="3" style="stroke:#038048;stroke-width:1.0;"/><text fill="#000000" font-family="sans-serif" font-size="14" lengthAdjust="spacing" textLength="125" x="27" y="501.3857">toArray(): double[]</text><ellipse cx="18" cy="514.3359" fill="#84BE84" rx="3" ry="3" style="stroke:#038048;stroke-width:1.0;"/><text fill="#000000" font-family="sans-serif" font-size="14" lengthAdjust="spacing" textLength="102" x="27" y="517.6826">iterDim(int): int</text><ellipse cx="18" cy="530.6328" fill="#84BE84" rx="3" ry="3" style="stroke:#038048;stroke-width:1.0;"/><text fill="#000000" font-family="sans-serif" font-size="14" lengthAdjust="spacing" textLength="146" x="27" y="533.9795">iterValid(int): boolean</text><ellipse cx="18" cy="546.9297" fill="#84BE84" rx="3" ry="3" style="stroke:#038048;stroke-width:1.0;"/><text fill="#000000" font-family="sans-serif" font-size="14" lengthAdjust="spacing" textLength="194" x="27" y="550.2764">iterDoubleValue(int): double</text><ellipse cx="18" cy="563.2266" fill="#84BE84" rx="3" ry="3" style="stroke:#038048;stroke-width:1.0;"/><text fill="#000000" font-family="sans-serif" font-size="14" lengthAdjust="spacing" textLength="160" x="27" y="566.5732">iterLongValue(int): long</text></g></a><!--MD5=[7301092a08ae7c1a83c0d7887f62f53c]
class elki.data.SparseNumberVector--><a href="SparseNumberVector.html" target="_top" title="SparseNumberVector.html" xlink:actuate="onRequest" xlink:href="SparseNumberVector.html" xlink:show="new" xlink:title="SparseNumberVector.html" xlink:type="simple"><g id="elem_elki.data.SparseNumberVector"><rect codeLine="29" fill="#F1F1F1" height="127.4219" id="elki.data.SparseNumberVector" rx="2.5" ry="2.5" style="stroke:#181818;stroke-width:0.5;" width="227" x="137.5" y="7"/><ellipse cx="172.3" cy="25.9688" fill="#B4A7E5" rx="11" ry="11" style="stroke:#181818;stroke-width:1.0;"/><path d="M168.2219,21.7344 L168.2219,19.5781 L175.6125,19.5781 L175.6125,21.7344 L173.1438,21.7344 L173.1438,29.8125 L175.6125,29.8125 L175.6125,31.9688 L168.2219,31.9688 L168.2219,29.8125 L170.6906,29.8125 L170.6906,21.7344 L168.2219,21.7344 Z " fill="#000000"/><text fill="#000000" font-family="sans-serif" font-size="14" font-style="italic" lengthAdjust="spacing" textLength="151" x="190.7" y="24.9951">SparseNumberVector</text><text fill="#000000" font-family="sans-serif" font-size="10" font-style="italic" lengthAdjust="spacing" textLength="43" x="244.7" y="37.5791">elki.data</text><line style="stroke:#181818;stroke-width:0.5;" x1="138.5" x2="363.5" y1="44.9375" y2="44.9375"/><ellipse cx="148.5" cy="58.5859" fill="#84BE84" rx="3" ry="3" style="stroke:#038048;stroke-width:1.0;"/><text fill="#000000" font-family="sans-serif" font-size="14" font-style="italic" lengthAdjust="spacing" textLength="194" x="157.5" y="61.9326">setDimensionality(int): void</text><ellipse cx="148.5" cy="74.8828" fill="#84BE84" rx="3" ry="3" style="stroke:#038048;stroke-width:1.0;"/><text fill="#000000" font-family="sans-serif" font-size="14" font-style="italic" lengthAdjust="spacing" textLength="201" x="157.5" y="78.2295">iterDoubleValue(int): double</text><ellipse cx="148.5" cy="91.1797" fill="#84BE84" rx="3" ry="3" style="stroke:#038048;stroke-width:1.0;"/><text fill="#000000" font-family="sans-serif" font-size="14" font-style="italic" lengthAdjust="spacing" textLength="167" x="157.5" y="94.5264">iterLongValue(int): long</text><ellipse cx="148.5" cy="107.4766" fill="#84BE84" rx="3" ry="3" style="stroke:#038048;stroke-width:1.0;"/><text fill="#000000" font-family="sans-serif" font-size="14" font-style="italic" lengthAdjust="spacing" text-decoration="line-through" textLength="90" x="157.5" y="110.8232">doubleValue</text><text fill="#000000" font-family="sans-serif" font-size="14" font-style="italic" lengthAdjust="spacing" textLength="86" x="247.5" y="110.8232">(int): double</text><ellipse cx="148.5" cy="123.7734" fill="#84BE84" rx="3" ry="3" style="stroke:#038048;stroke-width:1.0;"/><text fill="#000000" font-family="sans-serif" font-size="14" font-style="italic" lengthAdjust="spacing" text-decoration="line-through" textLength="72" x="157.5" y="127.1201">longValue</text><text fill="#000000" font-family="sans-serif" font-size="14" font-style="italic" lengthAdjust="spacing" textLength="68" x="229.5" y="127.1201">(int): long</text></g></a><!--MD5=[dc35a9fec318131820214b5b24821a16]
class elki.data.SparseDoubleVector.VariableSerializer--><a href="SparseDoubleVector.VariableSerializer.html" target="_top" title="SparseDoubleVector.VariableSerializer.html" xlink:actuate="onRequest" xlink:href="SparseDoubleVector.VariableSerializer.html" xlink:show="new" xlink:title="SparseDoubleVector.VariableSerializer.html" xlink:type="simple"><g id="elem_elki.data.SparseDoubleVector.VariableSerializer"><rect codeLine="37" fill="#F1F1F1" height="37.9375" id="elki.data.SparseDoubleVector.VariableSerializer" rx="2.5" ry="2.5" style="stroke:#181818;stroke-width:0.5;" width="295" x="103.5" y="634"/><ellipse cx="118.5" cy="652.9688" fill="#ADD1B2" rx="11" ry="11" style="stroke:#181818;stroke-width:1.0;"/><path d="M121.4688,658.6094 Q120.8906,658.9063 120.25,659.0469 Q119.6094,659.2031 118.9063,659.2031 Q116.4063,659.2031 115.0781,657.5625 Q113.7656,655.9063 113.7656,652.7813 Q113.7656,649.6563 115.0781,648 Q116.4063,646.3438 118.9063,646.3438 Q119.6094,646.3438 120.25,646.5 Q120.9063,646.6563 121.4688,646.9531 L121.4688,649.6719 Q120.8438,649.0938 120.25,648.8281 Q119.6563,648.5469 119.0313,648.5469 Q117.6875,648.5469 117,649.625 Q116.3125,650.6875 116.3125,652.7813 Q116.3125,654.875 117,655.9531 Q117.6875,657.0156 119.0313,657.0156 Q119.6563,657.0156 120.25,656.75 Q120.8438,656.4688 121.4688,655.8906 L121.4688,658.6094 Z " fill="#000000"/><text fill="#000000" font-family="sans-serif" font-size="14" lengthAdjust="spacing" textLength="263" x="132.5" y="651.9951">SparseDoubleVector.VariableSerializer</text><text fill="#000000" font-family="sans-serif" font-size="10" lengthAdjust="spacing" textLength="40" x="244" y="664.5791">elki.data</text></g></a><!--MD5=[486fc33ac45fa1f8b5c8d9ce8eb78270]
reverse link elki.data.SparseNumberVector to elki.data.SparseDoubleVector--><g id="link_elki.data.SparseNumberVector_elki.data.SparseDoubleVector"><path codeLine="39" d="M251,154.33 C251,166.82 251,180.11 251,193.76 " fill="none" id="elki.data.SparseNumberVector-backto-elki.data.SparseDoubleVector" style="stroke:#181818;stroke-width:1.0;stroke-dasharray:7.0,7.0;"/><polygon fill="none" points="244,154.16,251,134.16,258,154.16,244,154.16" style="stroke:#181818;stroke-width:1.0;"/></g><!--MD5=[698f1d34bf4387a7e083950ef66a29d0]
reverse link elki.data.SparseDoubleVector to elki.data.SparseDoubleVector.VariableSerializer--><g id="link_elki.data.SparseDoubleVector_elki.data.SparseDoubleVector.VariableSerializer"><path codeLine="41" d="M251,589.27 C251,607.2 251,622.74 251,633.86 " fill="none" id="elki.data.SparseDoubleVector-backto-elki.data.SparseDoubleVector.VariableSerializer" style="stroke:#181818;stroke-width:1.0;"/><ellipse cx="251" cy="582.05" fill="#FFFFFF" rx="8" ry="8" style="stroke:#181818;stroke-width:1.0;"/><line style="stroke:#181818;stroke-width:1.0;" x1="251" x2="251" y1="590.05" y2="574.05"/><line style="stroke:#181818;stroke-width:1.0;" x1="243" x2="259" y1="582.05" y2="582.05"/></g><rect fill="none" height="11.6406" style="stroke:none;stroke-width:1.0;" width="186" x="151" y="676.9375"/><text fill="#888888" font-family="sans-serif" font-size="10" lengthAdjust="spacing" textLength="186" x="151" y="686.2197">UMLDoclet 2.0.19, PlantUML 1.2022.8</text><!--MD5=[b72022752fe9c9b0ae2119cd215198ba]
@startuml
    remove .*\.(Instance|Par|Parameterizer|Factory)$
    set namespaceSeparator none
    hide empty fields
    hide empty methods

    class "<size:14>SparseDoubleVector\n<size:10>elki.data" as elki.data.SparseDoubleVector [[SparseDoubleVector.html]] {
        {static} +FACTORY: Factory
        {static} +VARIABLE_SERIALIZER: ByteBufferSerializer<SparseDoubleVector>
        {static} -DOUBLE0: double
        -indexes: int[]
        -values: double[]
        -dimensionality: int
        +SparseDoubleVector(int[], double[], int)
        +SparseDoubleVector(Int2DoubleOpenHashMap, int)
        +SparseDoubleVector(double[])
        -getMaxDim(): int
        +getDimensionality(): int
        +setDimensionality(int): void
        +- -getValue- -(int): Double
        +- -doubleValue- -(int): double
        +- -longValue- -(int): long
        +toArray(): double[]
        +iterDim(int): int
        +iterValid(int): boolean
        +iterDoubleValue(int): double
        +iterLongValue(int): long
    }

    interface "<size:14>SparseNumberVector\n<size:10>elki.data" as elki.data.SparseNumberVector [[SparseNumberVector.html]] {
        {abstract} +setDimensionality(int): void
        {abstract} +iterDoubleValue(int): double
        {abstract} +iterLongValue(int): long
        {abstract} +- -doubleValue- -(int): double
        {abstract} +- -longValue- -(int): long
    }
    class "<size:14>SparseDoubleVector.Factory\n<size:10>elki.data" as elki.data.SparseDoubleVector.Factory [[SparseDoubleVector.Factory.html]]
    class "<size:14>SparseDoubleVector.VariableSerializer\n<size:10>elki.data" as elki.data.SparseDoubleVector.VariableSerializer [[SparseDoubleVector.VariableSerializer.html]]

    elki.data.SparseNumberVector <|.. elki.data.SparseDoubleVector
    elki.data.SparseDoubleVector +- - elki.data.SparseDoubleVector.Factory
    elki.data.SparseDoubleVector +- - elki.data.SparseDoubleVector.VariableSerializer

    center footer UMLDoclet 2.0.19, PlantUML 1.2022.8
@enduml

PlantUML version 1.2022.8(Sun Sep 25 11:00:33 CEST 2022)
(APACHE source distribution)
Java Runtime: OpenJDK Runtime Environment
JVM: OpenJDK 64-Bit Server VM
Default Encoding: UTF-8
Language: de
Country: DE
--></g></svg>