<?xml version="1.0" encoding="UTF-8" standalone="no"?><svg xmlns="http://www.w3.org/2000/svg" xmlns:xlink="http://www.w3.org/1999/xlink" contentStyleType="text/css" height="285px" preserveAspectRatio="none" style="width:614px;height:285px;background:#FFFFFF;" version="1.1" viewBox="0 0 614 285" width="614px" zoomAndPan="magnify"><defs/><g><!--MD5=[b8f7077225b726207cf6cb3b251674b4]
class elki.data.SparseIntegerVector.VariableSerializer--><a href="SparseIntegerVector.VariableSerializer.html" target="_top" title="SparseIntegerVector.VariableSerializer.html" xlink:actuate="onRequest" xlink:href="SparseIntegerVector.VariableSerializer.html" xlink:show="new" xlink:title="SparseIntegerVector.VariableSerializer.html" xlink:type="simple"><g id="elem_elki.data.SparseIntegerVector.VariableSerializer"><rect codeLine="6" fill="#F1F1F1" height="94.8281" id="elki.data.SparseIntegerVector.VariableSerializer" rx="2.5" ry="2.5" style="stroke:#181818;stroke-width:0.5;" width="381" x="171" y="165"/><ellipse cx="226.25" cy="183.9688" fill="#ADD1B2" rx="11" ry="11" style="stroke:#181818;stroke-width:1.0;"/><path d="M229.2188,189.6094 Q228.6406,189.9063 228,190.0469 Q227.3594,190.2031 226.6563,190.2031 Q224.1563,190.2031 222.8281,188.5625 Q221.5156,186.9063 221.5156,183.7813 Q221.5156,180.6563 222.8281,179 Q224.1563,177.3438 226.6563,177.3438 Q227.3594,177.3438 228,177.5 Q228.6563,177.6563 229.2188,177.9531 L229.2188,180.6719 Q228.5938,180.0938 228,179.8281 Q227.4063,179.5469 226.7813,179.5469 Q225.4375,179.5469 224.75,180.625 Q224.0625,181.6875 224.0625,183.7813 Q224.0625,185.875 224.75,186.9531 Q225.4375,188.0156 226.7813,188.0156 Q227.4063,188.0156 228,187.75 Q228.5938,187.4688 229.2188,186.8906 L229.2188,189.6094 Z " fill="#000000"/><text fill="#000000" font-family="sans-serif" font-size="14" lengthAdjust="spacing" textLength="262" x="246.75" y="182.9951">SparseIntegerVector.VariableSerializer</text><text fill="#000000" font-family="sans-serif" font-size="10" lengthAdjust="spacing" textLength="40" x="357.75" y="195.5791">elki.data</text><line style="stroke:#181818;stroke-width:0.5;" x1="172" x2="551" y1="202.9375" y2="202.9375"/><ellipse cx="182" cy="216.5859" fill="#84BE84" rx="3" ry="3" style="stroke:#038048;stroke-width:1.0;"/><text fill="#000000" font-family="sans-serif" font-size="14" lengthAdjust="spacing" textLength="336" x="191" y="219.9326">fromByteBuffer(ByteBuffer): SparseIntegerVector</text><ellipse cx="182" cy="232.8828" fill="#84BE84" rx="3" ry="3" style="stroke:#038048;stroke-width:1.0;"/><text fill="#000000" font-family="sans-serif" font-size="14" lengthAdjust="spacing" textLength="355" x="191" y="236.2295">toByteBuffer(ByteBuffer, SparseIntegerVector): void</text><ellipse cx="182" cy="249.1797" fill="#84BE84" rx="3" ry="3" style="stroke:#038048;stroke-width:1.0;"/><text fill="#000000" font-family="sans-serif" font-size="14" lengthAdjust="spacing" textLength="261" x="191" y="252.5264">getByteSize(SparseIntegerVector): int</text></g></a><!--MD5=[fafa09e96069e64ae7d93037ec06383a]
class elki.utilities.io.ByteBufferSerializer--><a href="../utilities/io/ByteBufferSerializer.html" target="_top" title="../utilities/io/ByteBufferSerializer.html" xlink:actuate="onRequest" xlink:href="../utilities/io/ByteBufferSerializer.html" xlink:show="new" xlink:title="../utilities/io/ByteBufferSerializer.html" xlink:type="simple"><g id="elem_elki.utilities.io.ByteBufferSerializer"><rect codeLine="12" fill="#F1F1F1" height="94.8281" id="elki.utilities.io.ByteBufferSerializer" rx="2.5" ry="2.5" style="stroke:#181818;stroke-width:0.5;" width="391" x="7" y="10"/><ellipse cx="64.75" cy="28.9688" fill="#B4A7E5" rx="11" ry="11" style="stroke:#181818;stroke-width:1.0;"/><path d="M60.6719,24.7344 L60.6719,22.5781 L68.0625,22.5781 L68.0625,24.7344 L65.5938,24.7344 L65.5938,32.8125 L68.0625,32.8125 L68.0625,34.9688 L60.6719,34.9688 L60.6719,32.8125 L63.1406,32.8125 L63.1406,24.7344 L60.6719,24.7344 Z " fill="#000000"/><text fill="#000000" font-family="sans-serif" font-size="14" font-style="italic" lengthAdjust="spacing" textLength="140" x="85.25" y="27.9951">ByteBufferSerializer</text><text fill="#000000" font-family="sans-serif" font-size="10" font-style="italic" lengthAdjust="spacing" textLength="70" x="120.25" y="40.5791">elki.utilities.io</text><rect fill="#FFFFFF" height="15.9688" style="stroke:#181818;stroke-width:1.0;stroke-dasharray:2.0,2.0;" width="125" x="276" y="7"/><text fill="#000000" font-family="sans-serif" font-size="12" font-style="italic" lengthAdjust="spacing" textLength="123" x="277" y="19.1387">SparseIntegerVector</text><line style="stroke:#181818;stroke-width:0.5;" x1="8" x2="397" y1="47.9375" y2="47.9375"/><ellipse cx="18" cy="61.5859" fill="#84BE84" rx="3" ry="3" style="stroke:#038048;stroke-width:1.0;"/><text fill="#000000" font-family="sans-serif" font-size="14" font-style="italic" lengthAdjust="spacing" textLength="346" x="27" y="64.9326">fromByteBuffer(ByteBuffer): SparseIntegerVector</text><ellipse cx="18" cy="77.8828" fill="#84BE84" rx="3" ry="3" style="stroke:#038048;stroke-width:1.0;"/><text fill="#000000" font-family="sans-serif" font-size="14" font-style="italic" lengthAdjust="spacing" textLength="365" x="27" y="81.2295">toByteBuffer(ByteBuffer, SparseIntegerVector): void</text><ellipse cx="18" cy="94.1797" fill="#84BE84" rx="3" ry="3" style="stroke:#038048;stroke-width:1.0;"/><text fill="#000000" font-family="sans-serif" font-size="14" font-style="italic" lengthAdjust="spacing" textLength="265" x="27" y="97.5264">getByteSize(SparseIntegerVector): int</text></g></a><!--MD5=[019cfaef331a6807583122d3717c93d5]
class elki.data.SparseIntegerVector--><a href="SparseIntegerVector.html" target="_top" title="SparseIntegerVector.html" xlink:actuate="onRequest" xlink:href="SparseIntegerVector.html" xlink:show="new" xlink:title="SparseIntegerVector.html" xlink:type="simple"><g id="elem_elki.data.SparseIntegerVector"><rect codeLine="17" fill="#F1F1F1" height="37.9375" id="elki.data.SparseIntegerVector" rx="2.5" ry="2.5" style="stroke:#181818;stroke-width:0.5;" width="174" x="433.5" y="38.5"/><ellipse cx="448.5" cy="57.4688" fill="#ADD1B2" rx="11" ry="11" style="stroke:#181818;stroke-width:1.0;"/><path d="M451.4688,63.1094 Q450.8906,63.4063 450.25,63.5469 Q449.6094,63.7031 448.9063,63.7031 Q446.4063,63.7031 445.0781,62.0625 Q443.7656,60.4063 443.7656,57.2813 Q443.7656,54.1563 445.0781,52.5 Q446.4063,50.8438 448.9063,50.8438 Q449.6094,50.8438 450.25,51 Q450.9063,51.1563 451.4688,51.4531 L451.4688,54.1719 Q450.8438,53.5938 450.25,53.3281 Q449.6563,53.0469 449.0313,53.0469 Q447.6875,53.0469 447,54.125 Q446.3125,55.1875 446.3125,57.2813 Q446.3125,59.375 447,60.4531 Q447.6875,61.5156 449.0313,61.5156 Q449.6563,61.5156 450.25,61.25 Q450.8438,60.9688 451.4688,60.3906 L451.4688,63.1094 Z " fill="#000000"/><text fill="#000000" font-family="sans-serif" font-size="14" lengthAdjust="spacing" textLength="142" x="462.5" y="56.4951">SparseIntegerVector</text><text fill="#000000" font-family="sans-serif" font-size="10" lengthAdjust="spacing" textLength="40" x="513.5" y="69.0791">elki.data</text></g></a><!--MD5=[e26110f4bb6bf6bdeae099705237d99e]
reverse link elki.utilities.io.ByteBufferSerializer to elki.data.SparseIntegerVector.VariableSerializer--><g id="link_elki.utilities.io.ByteBufferSerializer_elki.data.SparseIntegerVector.VariableSerializer"><path codeLine="19" d="M265.78,119.39 C281.48,134.5 298.08,150.47 312.95,164.79 " fill="none" id="elki.utilities.io.ByteBufferSerializer-backto-elki.data.SparseIntegerVector.VariableSerializer" style="stroke:#181818;stroke-width:1.0;stroke-dasharray:7.0,7.0;"/><polygon fill="none" points="260.63,124.15,251.07,105.24,270.33,114.06,260.63,124.15" style="stroke:#181818;stroke-width:1.0;"/></g><!--MD5=[9b04bfa447e9d48e02791f07e7adccf0]
reverse link elki.data.SparseIntegerVector to elki.data.SparseIntegerVector.VariableSerializer--><g id="link_elki.data.SparseIntegerVector_elki.data.SparseIntegerVector.VariableSerializer"><path codeLine="20" d="M490.66,87.21 C467.96,109.06 436.24,139.58 409.92,164.91 " fill="none" id="elki.data.SparseIntegerVector-backto-elki.data.SparseIntegerVector.VariableSerializer" style="stroke:#181818;stroke-width:1.0;"/><ellipse cx="495.8738" cy="82.1953" fill="#FFFFFF" rx="8" ry="8" style="stroke:#181818;stroke-width:1.0;"/><line style="stroke:#181818;stroke-width:1.0;" x1="490.1075" x2="501.64" y1="87.7407" y2="76.65"/><line style="stroke:#181818;stroke-width:1.0;" x1="490.3284" x2="501.4191" y1="76.4291" y2="87.9616"/></g><rect fill="none" height="11.6406" style="stroke:none;stroke-width:1.0;" width="186" x="207.25" y="265.8281"/><text fill="#888888" font-family="sans-serif" font-size="10" lengthAdjust="spacing" textLength="186" x="207.25" y="275.1104">UMLDoclet 2.0.19, PlantUML 1.2022.8</text><!--MD5=[8d3ef4946f6ff0251c0d4d26b2d61161]
@startuml
    remove .*\.(Instance|Par|Parameterizer|Factory)$
    set namespaceSeparator none
    hide empty fields
    hide empty methods

    class "<size:14>SparseIntegerVector.VariableSerializer\n<size:10>elki.data" as elki.data.SparseIntegerVector.VariableSerializer [[SparseIntegerVector.VariableSerializer.html]] {
        +fromByteBuffer(ByteBuffer): SparseIntegerVector
        +toByteBuffer(ByteBuffer, SparseIntegerVector): void
        +getByteSize(SparseIntegerVector): int
    }

    interface "<size:14>ByteBufferSerializer\n<size:10>elki.utilities.io" as elki.utilities.io.ByteBufferSerializer<SparseIntegerVector> [[../utilities/io/ByteBufferSerializer.html]] {
        {abstract} +fromByteBuffer(ByteBuffer): SparseIntegerVector
        {abstract} +toByteBuffer(ByteBuffer, SparseIntegerVector): void
        {abstract} +getByteSize(SparseIntegerVector): int
    }
    class "<size:14>SparseIntegerVector\n<size:10>elki.data" as elki.data.SparseIntegerVector [[SparseIntegerVector.html]]

    elki.utilities.io.ByteBufferSerializer <|.. elki.data.SparseIntegerVector.VariableSerializer
    elki.data.SparseIntegerVector +- - elki.data.SparseIntegerVector.VariableSerializer

    center footer UMLDoclet 2.0.19, PlantUML 1.2022.8
@enduml

PlantUML version 1.2022.8(Sun Sep 25 11:00:33 CEST 2022)
(APACHE source distribution)
Java Runtime: OpenJDK Runtime Environment
JVM: OpenJDK 64-Bit Server VM
Default Encoding: UTF-8
Language: de
Country: DE
--></g></svg>