<?xml version="1.0" encoding="UTF-8" standalone="no"?><svg xmlns="http://www.w3.org/2000/svg" xmlns:xlink="http://www.w3.org/1999/xlink" contentStyleType="text/css" height="285px" preserveAspectRatio="none" style="width:589px;height:285px;background:#FFFFFF;" version="1.1" viewBox="0 0 589 285" width="589px" zoomAndPan="magnify"><defs/><g><!--MD5=[1bdbee0b749a7645ae0971e95e8a0ea6]
class elki.data.SparseShortVector.VariableSerializer--><a href="SparseShortVector.VariableSerializer.html" target="_top" title="SparseShortVector.VariableSerializer.html" xlink:actuate="onRequest" xlink:href="SparseShortVector.VariableSerializer.html" xlink:show="new" xlink:title="SparseShortVector.VariableSerializer.html" xlink:type="simple"><g id="elem_elki.data.SparseShortVector.VariableSerializer"><rect codeLine="6" fill="#F1F1F1" height="94.8281" id="elki.data.SparseShortVector.VariableSerializer" rx="2.5" ry="2.5" style="stroke:#181818;stroke-width:0.5;" width="369" x="163.5" y="165"/><ellipse cx="218.75" cy="183.9688" fill="#ADD1B2" rx="11" ry="11" style="stroke:#181818;stroke-width:1.0;"/><path d="M221.7188,189.6094 Q221.1406,189.9063 220.5,190.0469 Q219.8594,190.2031 219.1563,190.2031 Q216.6563,190.2031 215.3281,188.5625 Q214.0156,186.9063 214.0156,183.7813 Q214.0156,180.6563 215.3281,179 Q216.6563,177.3438 219.1563,177.3438 Q219.8594,177.3438 220.5,177.5 Q221.1563,177.6563 221.7188,177.9531 L221.7188,180.6719 Q221.0938,180.0938 220.5,179.8281 Q219.9063,179.5469 219.2813,179.5469 Q217.9375,179.5469 217.25,180.625 Q216.5625,181.6875 216.5625,183.7813 Q216.5625,185.875 217.25,186.9531 Q217.9375,188.0156 219.2813,188.0156 Q219.9063,188.0156 220.5,187.75 Q221.0938,187.4688 221.7188,186.8906 L221.7188,189.6094 Z " fill="#000000"/><text fill="#000000" font-family="sans-serif" font-size="14" lengthAdjust="spacing" textLength="250" x="239.25" y="182.9951">SparseShortVector.VariableSerializer</text><text fill="#000000" font-family="sans-serif" font-size="10" lengthAdjust="spacing" textLength="40" x="344.25" y="195.5791">elki.data</text><line style="stroke:#181818;stroke-width:0.5;" x1="164.5" x2="531.5" y1="202.9375" y2="202.9375"/><ellipse cx="174.5" cy="216.5859" fill="#84BE84" rx="3" ry="3" style="stroke:#038048;stroke-width:1.0;"/><text fill="#000000" font-family="sans-serif" font-size="14" lengthAdjust="spacing" textLength="324" x="183.5" y="219.9326">fromByteBuffer(ByteBuffer): SparseShortVector</text><ellipse cx="174.5" cy="232.8828" fill="#84BE84" rx="3" ry="3" style="stroke:#038048;stroke-width:1.0;"/><text fill="#000000" font-family="sans-serif" font-size="14" lengthAdjust="spacing" textLength="343" x="183.5" y="236.2295">toByteBuffer(ByteBuffer, SparseShortVector): void</text><ellipse cx="174.5" cy="249.1797" fill="#84BE84" rx="3" ry="3" style="stroke:#038048;stroke-width:1.0;"/><text fill="#000000" font-family="sans-serif" font-size="14" lengthAdjust="spacing" textLength="249" x="183.5" y="252.5264">getByteSize(SparseShortVector): int</text></g></a><!--MD5=[fafa09e96069e64ae7d93037ec06383a]
class elki.utilities.io.ByteBufferSerializer--><a href="../utilities/io/ByteBufferSerializer.html" target="_top" title="../utilities/io/ByteBufferSerializer.html" xlink:actuate="onRequest" xlink:href="../utilities/io/ByteBufferSerializer.html" xlink:show="new" xlink:title="../utilities/io/ByteBufferSerializer.html" xlink:type="simple"><g id="elem_elki.utilities.io.ByteBufferSerializer"><rect codeLine="12" fill="#F1F1F1" height="94.8281" id="elki.utilities.io.ByteBufferSerializer" rx="2.5" ry="2.5" style="stroke:#181818;stroke-width:0.5;" width="378" x="7" y="10"/><ellipse cx="63.75" cy="28.9688" fill="#B4A7E5" rx="11" ry="11" style="stroke:#181818;stroke-width:1.0;"/><path d="M59.6719,24.7344 L59.6719,22.5781 L67.0625,22.5781 L67.0625,24.7344 L64.5938,24.7344 L64.5938,32.8125 L67.0625,32.8125 L67.0625,34.9688 L59.6719,34.9688 L59.6719,32.8125 L62.1406,32.8125 L62.1406,24.7344 L59.6719,24.7344 Z " fill="#000000"/><text fill="#000000" font-family="sans-serif" font-size="14" font-style="italic" lengthAdjust="spacing" textLength="140" x="84.25" y="27.9951">ByteBufferSerializer</text><text fill="#000000" font-family="sans-serif" font-size="10" font-style="italic" lengthAdjust="spacing" textLength="70" x="119.25" y="40.5791">elki.utilities.io</text><rect fill="#FFFFFF" height="15.9688" style="stroke:#181818;stroke-width:1.0;stroke-dasharray:2.0,2.0;" width="114" x="274" y="7"/><text fill="#000000" font-family="sans-serif" font-size="12" font-style="italic" lengthAdjust="spacing" textLength="112" x="275" y="19.1387">SparseShortVector</text><line style="stroke:#181818;stroke-width:0.5;" x1="8" x2="384" y1="47.9375" y2="47.9375"/><ellipse cx="18" cy="61.5859" fill="#84BE84" rx="3" ry="3" style="stroke:#038048;stroke-width:1.0;"/><text fill="#000000" font-family="sans-serif" font-size="14" font-style="italic" lengthAdjust="spacing" textLength="333" x="27" y="64.9326">fromByteBuffer(ByteBuffer): SparseShortVector</text><ellipse cx="18" cy="77.8828" fill="#84BE84" rx="3" ry="3" style="stroke:#038048;stroke-width:1.0;"/><text fill="#000000" font-family="sans-serif" font-size="14" font-style="italic" lengthAdjust="spacing" textLength="352" x="27" y="81.2295">toByteBuffer(ByteBuffer, SparseShortVector): void</text><ellipse cx="18" cy="94.1797" fill="#84BE84" rx="3" ry="3" style="stroke:#038048;stroke-width:1.0;"/><text fill="#000000" font-family="sans-serif" font-size="14" font-style="italic" lengthAdjust="spacing" textLength="252" x="27" y="97.5264">getByteSize(SparseShortVector): int</text></g></a><!--MD5=[f810ef17f5bd702cf2f5d6b159cc68b3]
class elki.data.SparseShortVector--><a href="SparseShortVector.html" target="_top" title="SparseShortVector.html" xlink:actuate="onRequest" xlink:href="SparseShortVector.html" xlink:show="new" xlink:title="SparseShortVector.html" xlink:type="simple"><g id="elem_elki.data.SparseShortVector"><rect codeLine="17" fill="#F1F1F1" height="37.9375" id="elki.data.SparseShortVector" rx="2.5" ry="2.5" style="stroke:#181818;stroke-width:0.5;" width="162" x="420" y="38.5"/><ellipse cx="435" cy="57.4688" fill="#ADD1B2" rx="11" ry="11" style="stroke:#181818;stroke-width:1.0;"/><path d="M437.9688,63.1094 Q437.3906,63.4063 436.75,63.5469 Q436.1094,63.7031 435.4063,63.7031 Q432.9063,63.7031 431.5781,62.0625 Q430.2656,60.4063 430.2656,57.2813 Q430.2656,54.1563 431.5781,52.5 Q432.9063,50.8438 435.4063,50.8438 Q436.1094,50.8438 436.75,51 Q437.4063,51.1563 437.9688,51.4531 L437.9688,54.1719 Q437.3438,53.5938 436.75,53.3281 Q436.1563,53.0469 435.5313,53.0469 Q434.1875,53.0469 433.5,54.125 Q432.8125,55.1875 432.8125,57.2813 Q432.8125,59.375 433.5,60.4531 Q434.1875,61.5156 435.5313,61.5156 Q436.1563,61.5156 436.75,61.25 Q437.3438,60.9688 437.9688,60.3906 L437.9688,63.1094 Z " fill="#000000"/><text fill="#000000" font-family="sans-serif" font-size="14" lengthAdjust="spacing" textLength="130" x="449" y="56.4951">SparseShortVector</text><text fill="#000000" font-family="sans-serif" font-size="10" lengthAdjust="spacing" textLength="40" x="494" y="69.0791">elki.data</text></g></a><!--MD5=[70f1d041c249040fc95e8b23052cdfef]
reverse link elki.utilities.io.ByteBufferSerializer to elki.data.SparseShortVector.VariableSerializer--><g id="link_elki.utilities.io.ByteBufferSerializer_elki.data.SparseShortVector.VariableSerializer"><path codeLine="19" d="M256.95,119.86 C271.83,134.83 287.52,150.62 301.59,164.79 " fill="none" id="elki.utilities.io.ByteBufferSerializer-backto-elki.data.SparseShortVector.VariableSerializer" style="stroke:#181818;stroke-width:1.0;stroke-dasharray:7.0,7.0;"/><polygon fill="none" points="251.56,124.36,242.43,105.24,261.49,114.49,251.56,124.36" style="stroke:#181818;stroke-width:1.0;"/></g><!--MD5=[4c1a6489b8e57699f5dc6d679db376f2]
reverse link elki.data.SparseShortVector to elki.data.SparseShortVector.VariableSerializer--><g id="link_elki.data.SparseShortVector_elki.data.SparseShortVector.VariableSerializer"><path codeLine="20" d="M471.99,87.51 C450.16,109.34 419.8,139.7 394.59,164.91 " fill="none" id="elki.data.SparseShortVector-backto-elki.data.SparseShortVector.VariableSerializer" style="stroke:#181818;stroke-width:1.0;"/><ellipse cx="477.1931" cy="82.3069" fill="#FFFFFF" rx="8" ry="8" style="stroke:#181818;stroke-width:1.0;"/><line style="stroke:#181818;stroke-width:1.0;" x1="471.5363" x2="482.85" y1="87.9637" y2="76.65"/><line style="stroke:#181818;stroke-width:1.0;" x1="471.5363" x2="482.85" y1="76.65" y2="87.9637"/></g><rect fill="none" height="11.6406" style="stroke:none;stroke-width:1.0;" width="186" x="194.5" y="265.8281"/><text fill="#888888" font-family="sans-serif" font-size="10" lengthAdjust="spacing" textLength="186" x="194.5" y="275.1104">UMLDoclet 2.0.19, PlantUML 1.2022.8</text><!--MD5=[91f61c8308265f49d99f30706edcf2f6]
@startuml
    remove .*\.(Instance|Par|Parameterizer|Factory)$
    set namespaceSeparator none
    hide empty fields
    hide empty methods

    class "<size:14>SparseShortVector.VariableSerializer\n<size:10>elki.data" as elki.data.SparseShortVector.VariableSerializer [[SparseShortVector.VariableSerializer.html]] {
        +fromByteBuffer(ByteBuffer): SparseShortVector
        +toByteBuffer(ByteBuffer, SparseShortVector): void
        +getByteSize(SparseShortVector): int
    }

    interface "<size:14>ByteBufferSerializer\n<size:10>elki.utilities.io" as elki.utilities.io.ByteBufferSerializer<SparseShortVector> [[../utilities/io/ByteBufferSerializer.html]] {
        {abstract} +fromByteBuffer(ByteBuffer): SparseShortVector
        {abstract} +toByteBuffer(ByteBuffer, SparseShortVector): void
        {abstract} +getByteSize(SparseShortVector): int
    }
    class "<size:14>SparseShortVector\n<size:10>elki.data" as elki.data.SparseShortVector [[SparseShortVector.html]]

    elki.utilities.io.ByteBufferSerializer <|.. elki.data.SparseShortVector.VariableSerializer
    elki.data.SparseShortVector +- - elki.data.SparseShortVector.VariableSerializer

    center footer UMLDoclet 2.0.19, PlantUML 1.2022.8
@enduml

PlantUML version 1.2022.8(Sun Sep 25 11:00:33 CEST 2022)
(APACHE source distribution)
Java Runtime: OpenJDK Runtime Environment
JVM: OpenJDK 64-Bit Server VM
Default Encoding: UTF-8
Language: de
Country: DE
--></g></svg>