<?xml version="1.0" encoding="UTF-8" standalone="no"?><svg xmlns="http://www.w3.org/2000/svg" xmlns:xlink="http://www.w3.org/1999/xlink" contentStyleType="text/css" height="233px" preserveAspectRatio="none" style="width:214px;height:233px;background:#FFFFFF;" version="1.1" viewBox="0 0 214 233" width="214px" zoomAndPan="magnify"><defs/><g><!--MD5=[2cdb7c8d9113abe9fd36951fee8037f9]
class elki.workflow.InputStep--><a href="InputStep.html" target="_top" title="InputStep.html" xlink:actuate="onRequest" xlink:href="InputStep.html" xlink:show="new" xlink:title="InputStep.html" xlink:type="simple"><g id="elem_elki.workflow.InputStep"><rect codeLine="6" fill="#F1F1F1" height="102.8281" id="elki.workflow.InputStep" rx="2.5" ry="2.5" style="stroke:#181818;stroke-width:0.5;" width="200" x="7" y="105"/><ellipse cx="69.25" cy="123.9688" fill="#ADD1B2" rx="11" ry="11" style="stroke:#181818;stroke-width:1.0;"/><path d="M72.2188,129.6094 Q71.6406,129.9063 71,130.0469 Q70.3594,130.2031 69.6563,130.2031 Q67.1563,130.2031 65.8281,128.5625 Q64.5156,126.9063 64.5156,123.7813 Q64.5156,120.6563 65.8281,119 Q67.1563,117.3438 69.6563,117.3438 Q70.3594,117.3438 71,117.5 Q71.6563,117.6563 72.2188,117.9531 L72.2188,120.6719 Q71.5938,120.0938 71,119.8281 Q70.4063,119.5469 69.7813,119.5469 Q68.4375,119.5469 67.75,120.625 Q67.0625,121.6875 67.0625,123.7813 Q67.0625,125.875 67.75,126.9531 Q68.4375,128.0156 69.7813,128.0156 Q70.4063,128.0156 71,127.75 Q71.5938,127.4688 72.2188,126.8906 L72.2188,129.6094 Z " fill="#000000"/><text fill="#000000" font-family="sans-serif" font-size="14" lengthAdjust="spacing" textLength="67" x="89.75" y="122.9951">InputStep</text><text fill="#000000" font-family="sans-serif" font-size="10" lengthAdjust="spacing" textLength="61" x="92.75" y="135.5791">elki.workflow</text><line style="stroke:#181818;stroke-width:0.5;" x1="8" x2="206" y1="142.9375" y2="142.9375"/><rect fill="none" height="6" style="stroke:#C82930;stroke-width:1.0;" width="6" x="15" y="153.5859"/><text fill="#000000" font-family="sans-serif" font-size="14" lengthAdjust="spacing" textLength="139" x="27" y="159.9326">database: Database</text><line style="stroke:#181818;stroke-width:0.5;" x1="8" x2="206" y1="167.2344" y2="167.2344"/><ellipse cx="18" cy="180.8828" fill="#84BE84" rx="3" ry="3" style="stroke:#038048;stroke-width:1.0;"/><text fill="#000000" font-family="sans-serif" font-size="14" lengthAdjust="spacing" textLength="143" x="27" y="184.2295">InputStep(Database)</text><ellipse cx="18" cy="197.1797" fill="#84BE84" rx="3" ry="3" style="stroke:#038048;stroke-width:1.0;"/><text fill="#000000" font-family="sans-serif" font-size="14" lengthAdjust="spacing" textLength="174" x="27" y="200.5264">getDatabase(): Database</text></g></a><!--MD5=[ef446b9704bc6d796d2c70fa936b67df]
class elki.workflow.WorkflowStep--><a href="WorkflowStep.html" target="_top" title="WorkflowStep.html" xlink:actuate="onRequest" xlink:href="WorkflowStep.html" xlink:show="new" xlink:title="WorkflowStep.html" xlink:type="simple"><g id="elem_elki.workflow.WorkflowStep"><rect codeLine="12" fill="#F1F1F1" height="37.9375" id="elki.workflow.WorkflowStep" rx="2.5" ry="2.5" style="stroke:#181818;stroke-width:0.5;" width="129" x="42.5" y="7"/><ellipse cx="57.5" cy="25.9688" fill="#B4A7E5" rx="11" ry="11" style="stroke:#181818;stroke-width:1.0;"/><path d="M53.4219,21.7344 L53.4219,19.5781 L60.8125,19.5781 L60.8125,21.7344 L58.3438,21.7344 L58.3438,29.8125 L60.8125,29.8125 L60.8125,31.9688 L53.4219,31.9688 L53.4219,29.8125 L55.8906,29.8125 L55.8906,21.7344 L53.4219,21.7344 Z " fill="#000000"/><text fill="#000000" font-family="sans-serif" font-size="14" font-style="italic" lengthAdjust="spacing" textLength="97" x="71.5" y="24.9951">WorkflowStep</text><text fill="#000000" font-family="sans-serif" font-size="10" font-style="italic" lengthAdjust="spacing" textLength="66" x="87" y="37.5791">elki.workflow</text></g></a><!--MD5=[6ed88d44e8b9c179b989be4c675a802c]
reverse link elki.workflow.WorkflowStep to elki.workflow.InputStep--><g id="link_elki.workflow.WorkflowStep_elki.workflow.InputStep"><path codeLine="15" d="M107,65.26 C107,77.65 107,91.59 107,104.74 " fill="none" id="elki.workflow.WorkflowStep-backto-elki.workflow.InputStep" style="stroke:#181818;stroke-width:1.0;stroke-dasharray:7.0,7.0;"/><polygon fill="none" points="100,65.14,107,45.14,114,65.14,100,65.14" style="stroke:#181818;stroke-width:1.0;"/></g><rect fill="none" height="11.6406" style="stroke:none;stroke-width:1.0;" width="186" x="7" y="213.8281"/><text fill="#888888" font-family="sans-serif" font-size="10" lengthAdjust="spacing" textLength="186" x="7" y="223.1104">UMLDoclet 2.0.19, PlantUML 1.2022.8</text><!--MD5=[490ada8bb757d24acbe3fde39855948a]
@startuml
    remove .*\.(Instance|Par|Parameterizer|Factory)$
    set namespaceSeparator none
    hide empty fields
    hide empty methods

    class "<size:14>InputStep\n<size:10>elki.workflow" as elki.workflow.InputStep [[InputStep.html]] {
        -database: Database
        +InputStep(Database)
        +getDatabase(): Database
    }

    interface "<size:14>WorkflowStep\n<size:10>elki.workflow" as elki.workflow.WorkflowStep [[WorkflowStep.html]]
    class "<size:14>InputStep.Par\n<size:10>elki.workflow" as elki.workflow.InputStep.Par [[InputStep.Par.html]]

    elki.workflow.WorkflowStep <|.. elki.workflow.InputStep
    elki.workflow.InputStep +- - elki.workflow.InputStep.Par

    center footer UMLDoclet 2.0.19, PlantUML 1.2022.8
@enduml

PlantUML version 1.2022.8(Sun Sep 25 11:00:33 CEST 2022)
(APACHE source distribution)
Java Runtime: OpenJDK Runtime Environment
JVM: OpenJDK 64-Bit Server VM
Default Encoding: UTF-8
Language: de
Country: DE
--></g></svg>