<?xml version="1.0" encoding="UTF-8" standalone="no"?>
<!DOCTYPE svg PUBLIC "-//W3C//DTD SVG 1.1//EN"
 "http://www.w3.org/Graphics/SVG/1.1/DTD/svg11.dtd">
<!-- Generated by graphviz version 2.40.1 (20161225.0304)
 -->
<!-- Title: G Pages: 1 -->
<svg width="282pt" height="36pt"
 viewBox="0.00 0.00 282.00 36.00" xmlns="http://www.w3.org/2000/svg" xmlns:xlink="http://www.w3.org/1999/xlink">
<g id="graph0" class="graph" transform="scale(1 1) rotate(0) translate(4 32)">
<title>G</title>
<polygon fill="#ffffff" stroke="transparent" points="-4,4 -4,-32 278,-32 278,4 -4,4"/>
<!-- c3238629 -->
<g id="node1" class="node">
<title>c3238629</title>
<g id="a_node1"><a xlink:href="DendrogramVisualization.html" xlink:title="&lt;TABLE&gt;">
<g id="a_node1_0"><a xlink:href="DendrogramVisualization.html" xlink:title="de.lmu.ifi.dbs.elki.visualization.visualizers.visunproj.DendrogramVisualization" target="_parent">
<polygon fill="none" stroke="#000000" points=".5,0 .5,-28 105.5,-28 105.5,0 .5,0"/>
<text text-anchor="start" x="34.5" y="-17.6" font-family="Roboto" font-size="8.00" fill="#000000"> «factory» </text>
<text text-anchor="start" x="4.5" y="-7.6" font-family="Roboto" font-size="8.00" fill="#000000"> </text>
<text text-anchor="start" x="7.5" y="-7.6" font-family="Roboto" font-size="8.00" fill="#000000">DendrogramVisualization</text>
<text text-anchor="start" x="98.5" y="-7.6" font-family="Roboto" font-size="8.00" fill="#000000"> </text>
</a>
</g>
</a>
</g>
</g>
<!-- c3238631 -->
<g id="node2" class="node">
<title>c3238631</title>
<g id="a_node2"><a xlink:href="DendrogramVisualization.PositionStyle.html" xlink:title="&lt;TABLE&gt;">
<g id="a_node2_1"><a xlink:href="DendrogramVisualization.PositionStyle.html" xlink:title="de.lmu.ifi.dbs.elki.visualization.visualizers.visunproj.DendrogramVisualization.PositionStyle" target="_parent">
<polygon fill="#fffacd" stroke="transparent" points="123,0 123,-28 274,-28 274,0 123,0"/>
<polygon fill="none" stroke="#000000" points="123.5,0 123.5,-28 274.5,-28 274.5,0 123.5,0"/>
<text text-anchor="start" x="171" y="-17.6" font-family="Roboto" font-size="8.00" fill="#000000"> «enumeration» </text>
<text text-anchor="start" x="127.5" y="-7.6" font-family="Roboto" font-size="8.00" fill="#000000"> </text>
<text text-anchor="start" x="130.5" y="-7.6" font-family="Roboto" font-size="8.00" fill="#000000">DendrogramVisualization.PositionStyle</text>
<text text-anchor="start" x="267.5" y="-7.6" font-family="Roboto" font-size="8.00" fill="#000000"> </text>
</a>
</g>
</a>
</g>
</g>
<!-- c3238629&#45;&gt;c3238631 -->
<g id="edge1" class="edge">
<title>c3238629&#45;&gt;c3238631</title>
<path fill="none" stroke="#000000" d="M117.4831,-14C119.2329,-14 120.9889,-14 122.747,-14"/>
<polygon fill="#000000" stroke="#000000" points="117.2094,-14.0001 111.2093,-18 105.2094,-14 111.2094,-10 117.2094,-14.0001"/>
</g>
</g>
</svg>
