<?xml version="1.0" encoding="UTF-8" standalone="no"?>
<!DOCTYPE svg PUBLIC "-//W3C//DTD SVG 1.1//EN"
 "http://www.w3.org/Graphics/SVG/1.1/DTD/svg11.dtd">
<!-- Generated by graphviz version 2.40.1 (20161225.0304)
 -->
<!-- Title: G Pages: 1 -->
<svg width="484pt" height="86pt"
 viewBox="0.00 0.00 484.00 86.00" xmlns="http://www.w3.org/2000/svg" xmlns:xlink="http://www.w3.org/1999/xlink">
<g id="graph0" class="graph" transform="scale(1 1) rotate(0) translate(4 82)">
<title>G</title>
<polygon fill="#ffffff" stroke="transparent" points="-4,4 -4,-82 480,-82 480,4 -4,4"/>
<!-- c11001603 -->
<g id="node1" class="node">
<title>c11001603</title>
<g id="a_node1"><a xlink:href="../VisFactory.html" xlink:title="&lt;TABLE&gt;">
<g id="a_node1_0"><a xlink:href="../VisFactory.html" xlink:title="de.lmu.ifi.dbs.elki.visualization.visualizers.VisFactory" target="_parent">
<polygon fill="#fffacd" stroke="transparent" points="0,0 0,-50 156,-50 156,0 0,0"/>
<polygon fill="none" stroke="#000000" points="0,0 0,-50 156,-50 156,0 0,0"/>
<text text-anchor="start" x="56.5" y="-39.6" font-family="Roboto" font-size="8.00" fill="#000000"> «interface» </text>
<text text-anchor="start" x="59.5" y="-28.6" font-family="Roboto" font-size="8.00" fill="#000000"> «factory» </text>
<text text-anchor="start" x="56.5" y="-18.6" font-family="Roboto" font-size="8.00" fill="#000000"> </text>
<text text-anchor="start" x="59.5" y="-18.6" font-family="Roboto" font-size="8.00" fill="#000000">VisFactory</text>
<text text-anchor="start" x="96.5" y="-18.6" font-family="Roboto" font-size="8.00" fill="#000000"> </text>
<text text-anchor="start" x="4" y="-7.6" font-family="Roboto" font-size="8.00" fill="#000000"> </text>
<text text-anchor="start" x="7" y="-7.6" font-family="Roboto" font-size="7.00" fill="#000000">de.lmu.ifi.dbs.elki.visualization.visualizers</text>
<text text-anchor="start" x="149" y="-7.6" font-family="Roboto" font-size="8.00" fill="#000000"> </text>
</a>
</g>
</a>
</g>
</g>
<!-- c11001617 -->
<g id="node3" class="node">
<title>c11001617</title>
<g id="a_node3"><a xlink:href="XYCurveVisualization.html" xlink:title="&lt;TABLE&gt;">
<g id="a_node3_1"><a xlink:href="XYCurveVisualization.html" xlink:title="de.lmu.ifi.dbs.elki.visualization.visualizers.visunproj.XYCurveVisualization" target="_parent">
<polygon fill="#fffacd" stroke="transparent" points="175,-11 175,-39 267,-39 267,-11 175,-11"/>
<polygon fill="none" stroke="#000000" points="175,-11 175,-39 267,-39 267,-11 175,-11"/>
<text text-anchor="start" x="202.5" y="-28.6" font-family="Roboto" font-size="8.00" fill="#000000"> «factory» </text>
<text text-anchor="start" x="179" y="-18.6" font-family="Roboto" font-size="8.00" fill="#000000"> </text>
<text text-anchor="start" x="182" y="-18.6" font-family="Roboto" font-size="8.00" fill="#000000">XYCurveVisualization</text>
<text text-anchor="start" x="260" y="-18.6" font-family="Roboto" font-size="8.00" fill="#000000"> </text>
</a>
</g>
</a>
</g>
</g>
<!-- c11001603&#45;&gt;c11001617 -->
<g id="edge1" class="edge">
<title>c11001603&#45;&gt;c11001617</title>
<path fill="none" stroke="#000000" stroke-dasharray="5,2" d="M166.2866,-25C169.2188,-25 172.1111,-25 174.9421,-25"/>
<polygon fill="none" stroke="#000000" points="166.1944,-21.5001 156.1944,-25 166.1944,-28.5001 166.1944,-21.5001"/>
</g>
<!-- c11001609 -->
<g id="node2" class="node">
<title>c11001609</title>
<g id="a_node2"><a xlink:href="../StaticVisualizationInstance.html" xlink:title="&lt;TABLE&gt;">
<g id="a_node2_2"><a xlink:href="../StaticVisualizationInstance.html" xlink:title="de.lmu.ifi.dbs.elki.visualization.visualizers.StaticVisualizationInstance" target="_parent">
<polygon fill="none" stroke="#000000" points="320,-50 320,-78 476,-78 476,-50 320,-50"/>
<text text-anchor="start" x="347" y="-68.6" font-family="Roboto" font-size="8.00" fill="#000000"> </text>
<text text-anchor="start" x="350" y="-68.6" font-family="Roboto" font-size="8.00" fill="#000000">StaticVisualizationInstance</text>
<text text-anchor="start" x="446" y="-68.6" font-family="Roboto" font-size="8.00" fill="#000000"> </text>
<text text-anchor="start" x="324" y="-57.6" font-family="Roboto" font-size="8.00" fill="#000000"> </text>
<text text-anchor="start" x="327" y="-57.6" font-family="Roboto" font-size="7.00" fill="#000000">de.lmu.ifi.dbs.elki.visualization.visualizers</text>
<text text-anchor="start" x="469" y="-57.6" font-family="Roboto" font-size="8.00" fill="#000000"> </text>
</a>
</g>
</a>
</g>
</g>
<!-- c11001617&#45;&gt;c11001609 -->
<g id="edge3" class="edge">
<title>c11001617&#45;&gt;c11001609</title>
<path fill="none" stroke="#000000" d="M267.0426,-35.145C284.4878,-38.9888 304.8174,-43.4682 324.1823,-47.7351"/>
<polygon fill="#000000" stroke="#000000" points="334.2006,-49.9425 323.4665,-52.1852 329.3177,-48.8666 324.4348,-47.7906 324.4348,-47.7906 324.4348,-47.7906 329.3177,-48.8666 325.4031,-43.3961 334.2006,-49.9425 334.2006,-49.9425"/>
<text text-anchor="middle" x="293.5" y="-46.4" font-family="Roboto" font-size="7.00" fill="#000000">create</text>
</g>
<!-- c11003052 -->
<g id="node4" class="node">
<title>c11003052</title>
<g id="a_node4"><a xlink:href="../../../math/geometry/XYCurve.html" xlink:title="&lt;TABLE&gt;">
<g id="a_node4_3"><a xlink:href="../../../math/geometry/XYCurve.html" xlink:title="de.lmu.ifi.dbs.elki.math.geometry.XYCurve" target="_parent">
<polygon fill="none" stroke="#000000" points="337,-11 337,-39 459,-39 459,-11 337,-11"/>
<text text-anchor="start" x="379.5" y="-29.6" font-family="Roboto" font-size="8.00" fill="#000000"> </text>
<text text-anchor="start" x="382.5" y="-29.6" font-family="Roboto" font-size="8.00" fill="#000000">XYCurve</text>
<text text-anchor="start" x="413.5" y="-29.6" font-family="Roboto" font-size="8.00" fill="#000000"> </text>
<text text-anchor="start" x="341" y="-18.6" font-family="Roboto" font-size="8.00" fill="#000000"> </text>
<text text-anchor="start" x="344" y="-18.6" font-family="Roboto" font-size="7.00" fill="#000000">de.lmu.ifi.dbs.elki.math.geometry</text>
<text text-anchor="start" x="452" y="-18.6" font-family="Roboto" font-size="8.00" fill="#000000"> </text>
</a>
</g>
</a>
</g>
</g>
<!-- c11001617&#45;&gt;c11003052 -->
<g id="edge2" class="edge">
<title>c11001617&#45;&gt;c11003052</title>
<path fill="none" stroke="#000000" d="M279.1689,-25C294.3371,-25 310.8575,-25 326.6241,-25"/>
<polygon fill="none" stroke="#000000" points="279.0426,-25.0001 273.0426,-29 267.0426,-25 273.0426,-21 279.0426,-25.0001"/>
<polygon fill="#000000" stroke="#000000" points="336.8543,-25 326.8543,-29.5001 331.8543,-25 326.8543,-25.0001 326.8543,-25.0001 326.8543,-25.0001 331.8543,-25 326.8542,-20.5001 336.8543,-25 336.8543,-25"/>
<text text-anchor="middle" x="293.5" y="-27.4" font-family="Roboto" font-size="7.00" fill="#000000">visualizes</text>
</g>
</g>
</svg>
