<?xml version="1.0" encoding="UTF-8" standalone="no"?>
<!DOCTYPE svg PUBLIC "-//W3C//DTD SVG 1.1//EN"
 "http://www.w3.org/Graphics/SVG/1.1/DTD/svg11.dtd">
<!-- Generated by graphviz version 2.40.1 (20161225.0304)
 -->
<!-- Title: G Pages: 1 -->
<svg width="159pt" height="36pt"
 viewBox="0.00 0.00 159.00 36.00" xmlns="http://www.w3.org/2000/svg" xmlns:xlink="http://www.w3.org/1999/xlink">
<g id="graph0" class="graph" transform="scale(1 1) rotate(0) translate(4 32)">
<title>G</title>
<polygon fill="#ffffff" stroke="transparent" points="-4,4 -4,-32 155,-32 155,4 -4,4"/>
<!-- c8592980 -->
<g id="node1" class="node">
<title>c8592980</title>
<g id="a_node1"><a xlink:href="SplitStrategy.html" xlink:title="&lt;TABLE&gt;">
<g id="a_node1_0"><a xlink:href="SplitStrategy.html" xlink:title="de.lmu.ifi.dbs.elki.index.tree.spatial.rstarvariants.strategies.split.SplitStrategy" target="_parent">
<polygon fill="none" stroke="#000000" points=".5,0 .5,-28 59.5,-28 59.5,0 .5,0"/>
<text text-anchor="start" x="8.5" y="-17.6" font-family="Roboto" font-size="8.00" fill="#000000"> «interface» </text>
<text text-anchor="start" x="4.5" y="-7.6" font-family="Roboto" font-size="8.00" fill="#000000"> </text>
<text text-anchor="start" x="7.5" y="-7.6" font-family="Roboto" font-size="8.00" fill="#000000">SplitStrategy</text>
<text text-anchor="start" x="52.5" y="-7.6" font-family="Roboto" font-size="8.00" fill="#000000"> </text>
</a>
</g>
</a>
</g>
</g>
<!-- c8592981 -->
<g id="node2" class="node">
<title>c8592981</title>
<g id="a_node2"><a xlink:href="RTreeLinearSplit.html" xlink:title="&lt;TABLE&gt;">
<g id="a_node2_1"><a xlink:href="RTreeLinearSplit.html" xlink:title="de.lmu.ifi.dbs.elki.index.tree.spatial.rstarvariants.strategies.split.RTreeLinearSplit" target="_parent">
<polygon fill="#fffacd" stroke="transparent" points="77,-5.5 77,-22.5 151,-22.5 151,-5.5 77,-5.5"/>
<polygon fill="none" stroke="#000000" points="77,-5 77,-22 151,-22 151,-5 77,-5"/>
<text text-anchor="start" x="81" y="-12.6" font-family="Roboto" font-size="8.00" fill="#000000"> </text>
<text text-anchor="start" x="84" y="-12.6" font-family="Roboto" font-size="8.00" fill="#000000">RTreeLinearSplit</text>
<text text-anchor="start" x="144" y="-12.6" font-family="Roboto" font-size="8.00" fill="#000000"> </text>
</a>
</g>
</a>
</g>
</g>
<!-- c8592980&#45;&gt;c8592981 -->
<g id="edge1" class="edge">
<title>c8592980&#45;&gt;c8592981</title>
<path fill="none" stroke="#000000" stroke-dasharray="5,2" d="M69.2098,-14C71.7188,-14 74.2398,-14 76.7372,-14"/>
<polygon fill="none" stroke="#000000" points="69.054,-10.5001 59.054,-14 69.054,-17.5001 69.054,-10.5001"/>
</g>
</g>
</svg>
