<?xml version="1.0" encoding="UTF-8" standalone="no"?>
<!DOCTYPE svg PUBLIC "-//W3C//DTD SVG 1.1//EN"
 "http://www.w3.org/Graphics/SVG/1.1/DTD/svg11.dtd">
<!-- Generated by graphviz version 2.40.1 (20161225.0304)
 -->
<!-- Title: G Pages: 1 -->
<svg width="203pt" height="25pt"
 viewBox="0.00 0.00 203.00 25.00" xmlns="http://www.w3.org/2000/svg" xmlns:xlink="http://www.w3.org/1999/xlink">
<g id="graph0" class="graph" transform="scale(1 1) rotate(0) translate(4 21)">
<title>G</title>
<polygon fill="#ffffff" stroke="transparent" points="-4,4 -4,-21 199,-21 199,4 -4,4"/>
<!-- c10030770 -->
<g id="node1" class="node">
<title>c10030770</title>
<g id="a_node1"><a xlink:href="MeanVarianceMinMax.html" xlink:title="&lt;TABLE&gt;">
<g id="a_node1_0"><a xlink:href="MeanVarianceMinMax.html" xlink:title="de.lmu.ifi.dbs.elki.math.MeanVarianceMinMax" target="_parent">
<polygon fill="none" stroke="#000000" points="0,.5 0,-16.5 96,-16.5 96,.5 0,.5"/>
<text text-anchor="start" x="4" y="-7.1" font-family="Roboto" font-size="8.00" fill="#000000"> </text>
<text text-anchor="start" x="7" y="-7.1" font-family="Roboto" font-size="8.00" fill="#000000">MeanVarianceMinMax</text>
<text text-anchor="start" x="89" y="-7.1" font-family="Roboto" font-size="8.00" fill="#000000"> </text>
</a>
</g>
</a>
</g>
</g>
<!-- c10030772 -->
<g id="node2" class="node">
<title>c10030772</title>
<g id="a_node2"><a xlink:href="StatisticalMoments.html" xlink:title="&lt;TABLE&gt;">
<g id="a_node2_1"><a xlink:href="StatisticalMoments.html" xlink:title="de.lmu.ifi.dbs.elki.math.StatisticalMoments" target="_parent">
<polygon fill="#fffacd" stroke="transparent" points="114,0 114,-17 195,-17 195,0 114,0"/>
<polygon fill="none" stroke="#000000" points="114.5,.5 114.5,-16.5 195.5,-16.5 195.5,.5 114.5,.5"/>
<text text-anchor="start" x="118.5" y="-7.1" font-family="Roboto" font-size="8.00" fill="#000000"> </text>
<text text-anchor="start" x="121.5" y="-7.1" font-family="Roboto" font-size="8.00" fill="#000000">StatisticalMoments</text>
<text text-anchor="start" x="188.5" y="-7.1" font-family="Roboto" font-size="8.00" fill="#000000"> </text>
</a>
</g>
</a>
</g>
</g>
<!-- c10030770&#45;&gt;c10030772 -->
<g id="edge1" class="edge">
<title>c10030770&#45;&gt;c10030772</title>
<path fill="none" stroke="#000000" d="M106.4084,-8.5C108.8688,-8.5 111.3145,-8.5 113.724,-8.5"/>
<polygon fill="none" stroke="#000000" points="106.2643,-5.0001 96.2643,-8.5 106.2643,-12.0001 106.2643,-5.0001"/>
</g>
</g>
</svg>
