<?xml version="1.0" encoding="UTF-8" standalone="no"?><svg xmlns="http://www.w3.org/2000/svg" xmlns:xlink="http://www.w3.org/1999/xlink" contentStyleType="text/css" height="234px" preserveAspectRatio="none" style="width:379px;height:234px;background:#FFFFFF;" version="1.1" viewBox="0 0 379 234" width="379px" zoomAndPan="magnify"><defs/><g><!--MD5=[6751bdc126169a8bc20d39f7a0eed674]
class elki.result.outlier.OutlierResult--><a href="OutlierResult.html" target="_top" title="OutlierResult.html" xlink:actuate="onRequest" xlink:href="OutlierResult.html" xlink:show="new" xlink:title="OutlierResult.html" xlink:type="simple"><g id="elem_elki.result.outlier.OutlierResult"><rect codeLine="6" fill="#F1F1F1" height="200.6094" id="elki.result.outlier.OutlierResult" rx="2.5" ry="2.5" style="stroke:#181818;stroke-width:0.5;" width="358" x="7" y="7"/><ellipse cx="137.25" cy="25.9688" fill="#ADD1B2" rx="11" ry="11" style="stroke:#181818;stroke-width:1.0;"/><path d="M140.2188,31.6094 Q139.6406,31.9063 139,32.0469 Q138.3594,32.2031 137.6563,32.2031 Q135.1563,32.2031 133.8281,30.5625 Q132.5156,28.9063 132.5156,25.7813 Q132.5156,22.6563 133.8281,21 Q135.1563,19.3438 137.6563,19.3438 Q138.3594,19.3438 139,19.5 Q139.6563,19.6563 140.2188,19.9531 L140.2188,22.6719 Q139.5938,22.0938 139,21.8281 Q138.4063,21.5469 137.7813,21.5469 Q136.4375,21.5469 135.75,22.625 Q135.0625,23.6875 135.0625,25.7813 Q135.0625,27.875 135.75,28.9531 Q136.4375,30.0156 137.7813,30.0156 Q138.4063,30.0156 139,29.75 Q139.5938,29.4688 140.2188,28.8906 L140.2188,31.6094 Z " fill="#000000"/><text fill="#000000" font-family="sans-serif" font-size="14" lengthAdjust="spacing" textLength="89" x="157.75" y="24.9951">OutlierResult</text><text fill="#000000" font-family="sans-serif" font-size="10" lengthAdjust="spacing" textLength="78" x="163.25" y="37.5791">elki.result.outlier</text><line style="stroke:#181818;stroke-width:0.5;" x1="8" x2="364" y1="44.9375" y2="44.9375"/><rect fill="none" height="6" style="stroke:#C82930;stroke-width:1.0;" width="6" x="15" y="55.5859"/><text fill="#000000" font-family="sans-serif" font-size="14" lengthAdjust="spacing" textLength="163" x="27" y="61.9326">meta: OutlierScoreMeta</text><rect fill="none" height="6" style="stroke:#C82930;stroke-width:1.0;" width="6" x="15" y="71.8828"/><text fill="#000000" font-family="sans-serif" font-size="14" lengthAdjust="spacing" textLength="162" x="27" y="78.2295">scores: DoubleRelation</text><rect fill="none" height="6" style="stroke:#C82930;stroke-width:1.0;" width="6" x="15" y="88.1797"/><text fill="#000000" font-family="sans-serif" font-size="14" lengthAdjust="spacing" textLength="171" x="27" y="94.5264">ordering: OrderingResult</text><line style="stroke:#181818;stroke-width:0.5;" x1="8" x2="364" y1="101.8281" y2="101.8281"/><ellipse cx="18" cy="115.4766" fill="#84BE84" rx="3" ry="3" style="stroke:#038048;stroke-width:1.0;"/><text fill="#000000" font-family="sans-serif" font-size="14" lengthAdjust="spacing" textLength="332" x="27" y="118.8232">OutlierResult(OutlierScoreMeta, DoubleRelation)</text><ellipse cx="18" cy="131.7734" fill="#84BE84" rx="3" ry="3" style="stroke:#038048;stroke-width:1.0;"/><text fill="#000000" font-family="sans-serif" font-size="14" lengthAdjust="spacing" textLength="240" x="27" y="135.1201">getOutlierMeta(): OutlierScoreMeta</text><ellipse cx="18" cy="148.0703" fill="#84BE84" rx="3" ry="3" style="stroke:#038048;stroke-width:1.0;"/><text fill="#000000" font-family="sans-serif" font-size="14" lengthAdjust="spacing" textLength="196" x="27" y="151.417">getScores(): DoubleRelation</text><ellipse cx="18" cy="164.3672" fill="#84BE84" rx="3" ry="3" style="stroke:#038048;stroke-width:1.0;"/><text fill="#000000" font-family="sans-serif" font-size="14" lengthAdjust="spacing" textLength="206" x="27" y="167.7139">getOrdering(): OrderingResult</text><ellipse cx="18" cy="180.6641" fill="#84BE84" rx="3" ry="3" style="stroke:#038048;stroke-width:1.0;"/><text fill="#000000" font-family="sans-serif" font-size="14" lengthAdjust="spacing" text-decoration="underline" textLength="320" x="27" y="184.0107">getOutlierResults(Object): List&lt;OutlierResult&gt;</text><polygon fill="#4177AF" points="18,192.9609,14,198.9609,22,198.9609" style="stroke:#1963A0;stroke-width:1.0;"/><text fill="#000000" font-family="sans-serif" font-size="14" lengthAdjust="spacing" textLength="252" x="27" y="200.3076">evaluateBy(ScoreEvaluation): double</text></g></a><rect fill="none" height="11.6406" style="stroke:none;stroke-width:1.0;" width="186" x="92.5" y="214.6094"/><text fill="#888888" font-family="sans-serif" font-size="10" lengthAdjust="spacing" textLength="186" x="92.5" y="223.8916">UMLDoclet 2.0.19, PlantUML 1.2022.8</text><!--MD5=[fc16c5b3d192ca4bd992895dabbc0fb2]
@startuml
    remove .*\.(Instance|Par|Parameterizer|Factory)$
    set namespaceSeparator none
    hide empty fields
    hide empty methods

    class "<size:14>OutlierResult\n<size:10>elki.result.outlier" as elki.result.outlier.OutlierResult [[OutlierResult.html]] {
        -meta: OutlierScoreMeta
        -scores: DoubleRelation
        -ordering: OrderingResult
        +OutlierResult(OutlierScoreMeta, DoubleRelation)
        +getOutlierMeta(): OutlierScoreMeta
        +getScores(): DoubleRelation
        +getOrdering(): OrderingResult
        {static} +getOutlierResults(Object): List<OutlierResult>
        ~evaluateBy(ScoreEvaluation): double
    }

    center footer UMLDoclet 2.0.19, PlantUML 1.2022.8
@enduml

PlantUML version 1.2022.8(Sun Sep 25 11:00:33 CEST 2022)
(APACHE source distribution)
Java Runtime: OpenJDK Runtime Environment
JVM: OpenJDK 64-Bit Server VM
Default Encoding: UTF-8
Language: de
Country: DE
--></g></svg>