<?xml version="1.0" encoding="UTF-8" standalone="no"?>
<!DOCTYPE svg PUBLIC "-//W3C//DTD SVG 1.1//EN"
 "http://www.w3.org/Graphics/SVG/1.1/DTD/svg11.dtd">
<!-- Generated by graphviz version 2.40.1 (20161225.0304)
 -->
<!-- Title: G Pages: 1 -->
<svg width="251pt" height="65pt"
 viewBox="0.00 0.00 251.00 64.50" xmlns="http://www.w3.org/2000/svg" xmlns:xlink="http://www.w3.org/1999/xlink">
<g id="graph0" class="graph" transform="scale(1 1) rotate(0) translate(4 60.5)">
<title>G</title>
<polygon fill="#ffffff" stroke="transparent" points="-4,4 -4,-60.5 247,-60.5 247,4 -4,4"/>
<!-- c6271042 -->
<g id="node1" class="node">
<title>c6271042</title>
<g id="a_node1"><a xlink:href="LevenbergMarquardtMethod.html" xlink:title="&lt;TABLE&gt;">
<g id="a_node1_0"><a xlink:href="LevenbergMarquardtMethod.html" xlink:title="de.lmu.ifi.dbs.elki.math.linearalgebra.fitting.LevenbergMarquardtMethod" target="_parent">
<polygon fill="#fffacd" stroke="transparent" points="0,-34 0,-51 115,-51 115,-34 0,-34"/>
<polygon fill="none" stroke="#000000" points=".5,-33.5 .5,-50.5 115.5,-50.5 115.5,-33.5 .5,-33.5"/>
<text text-anchor="start" x="4.5" y="-41.1" font-family="Roboto" font-size="8.00" fill="#000000"> </text>
<text text-anchor="start" x="7.5" y="-41.1" font-family="Roboto" font-size="8.00" fill="#000000">LevenbergMarquardtMethod</text>
<text text-anchor="start" x="108.5" y="-41.1" font-family="Roboto" font-size="8.00" fill="#000000"> </text>
</a>
</g>
</a>
</g>
</g>
<!-- c6271043 -->
<g id="node2" class="node">
<title>c6271043</title>
<g id="a_node2"><a xlink:href="FittingFunction.html" xlink:title="&lt;TABLE&gt;">
<g id="a_node2_1"><a xlink:href="FittingFunction.html" xlink:title="de.lmu.ifi.dbs.elki.math.linearalgebra.fitting.FittingFunction" target="_parent">
<polygon fill="none" stroke="#000000" points="165.5,-28.5 165.5,-56.5 232.5,-56.5 232.5,-28.5 165.5,-28.5"/>
<text text-anchor="start" x="177.5" y="-46.1" font-family="Roboto" font-size="8.00" fill="#000000"> «interface» </text>
<text text-anchor="start" x="169.5" y="-36.1" font-family="Roboto" font-size="8.00" fill="#000000"> </text>
<text text-anchor="start" x="172.5" y="-36.1" font-family="Roboto" font-size="8.00" fill="#000000">FittingFunction</text>
<text text-anchor="start" x="225.5" y="-36.1" font-family="Roboto" font-size="8.00" fill="#000000"> </text>
</a>
</g>
</a>
</g>
</g>
<!-- c6271042&#45;&gt;c6271043 -->
<g id="edge1" class="edge">
<title>c6271042&#45;&gt;c6271043</title>
<path fill="none" stroke="#000000" d="M127.644,-42.5C140.629,-42.5 153.63,-42.5 164.8851,-42.5"/>
<polygon fill="none" stroke="#000000" points="127.2569,-42.5001 121.2569,-46.5 115.2569,-42.5 121.257,-38.5 127.2569,-42.5001"/>
</g>
<!-- c6271044 -->
<g id="node3" class="node">
<title>c6271044</title>
<g id="a_node3"><a xlink:href="FittingFunctionResult.html" xlink:title="&lt;TABLE&gt;">
<g id="a_node3_2"><a xlink:href="FittingFunctionResult.html" xlink:title="de.lmu.ifi.dbs.elki.math.linearalgebra.fitting.FittingFunctionResult" target="_parent">
<polygon fill="none" stroke="#000000" points="154.5,.5 154.5,-16.5 243.5,-16.5 243.5,.5 154.5,.5"/>
<text text-anchor="start" x="158.5" y="-7.1" font-family="Roboto" font-size="8.00" fill="#000000"> </text>
<text text-anchor="start" x="161.5" y="-7.1" font-family="Roboto" font-size="8.00" fill="#000000">FittingFunctionResult</text>
<text text-anchor="start" x="236.5" y="-7.1" font-family="Roboto" font-size="8.00" fill="#000000"> </text>
</a>
</g>
</a>
</g>
</g>
<!-- c6271042&#45;&gt;c6271044 -->
<g id="edge2" class="edge">
<title>c6271042&#45;&gt;c6271044</title>
<path fill="none" stroke="#000000" d="M93.0803,-33.9204C111.282,-29.5313 133.6384,-24.1404 153.0723,-19.4542"/>
<polygon fill="#000000" stroke="#000000" points="162.9311,-17.0769 154.2647,-23.7957 158.0704,-18.249 153.2098,-19.4211 153.2098,-19.4211 153.2098,-19.4211 158.0704,-18.249 152.1549,-15.0465 162.9311,-17.0769 162.9311,-17.0769"/>
<text text-anchor="middle" x="134.5" y="-27.9" font-family="Roboto" font-size="7.00" fill="#000000">create</text>
</g>
</g>
</svg>
