<?xml version="1.0" encoding="UTF-8" standalone="no"?><svg xmlns="http://www.w3.org/2000/svg" xmlns:xlink="http://www.w3.org/1999/xlink" contentStyleType="text/css" height="420px" preserveAspectRatio="none" style="width:387px;height:420px;background:#FFFFFF;" version="1.1" viewBox="0 0 387 420" width="387px" zoomAndPan="magnify"><defs/><g><!--MD5=[62eb34d15ac68ecfe27222ecd6c4927d]
class elki.utilities.datastructures.range.CombinedIntGenerator--><a href="CombinedIntGenerator.html" target="_top" title="CombinedIntGenerator.html" xlink:actuate="onRequest" xlink:href="CombinedIntGenerator.html" xlink:show="new" xlink:title="CombinedIntGenerator.html" xlink:type="simple"><g id="elem_elki.utilities.datastructures.range.CombinedIntGenerator"><rect codeLine="6" fill="#F1F1F1" height="216.9063" id="elki.utilities.datastructures.range.CombinedIntGenerator" rx="2.5" ry="2.5" style="stroke:#181818;stroke-width:0.5;" width="373" x="7" y="178"/><ellipse cx="110.25" cy="196.9688" fill="#ADD1B2" rx="11" ry="11" style="stroke:#181818;stroke-width:1.0;"/><path d="M113.2188,202.6094 Q112.6406,202.9063 112,203.0469 Q111.3594,203.2031 110.6563,203.2031 Q108.1563,203.2031 106.8281,201.5625 Q105.5156,199.9063 105.5156,196.7813 Q105.5156,193.6563 106.8281,192 Q108.1563,190.3438 110.6563,190.3438 Q111.3594,190.3438 112,190.5 Q112.6563,190.6563 113.2188,190.9531 L113.2188,193.6719 Q112.5938,193.0938 112,192.8281 Q111.4063,192.5469 110.7813,192.5469 Q109.4375,192.5469 108.75,193.625 Q108.0625,194.6875 108.0625,196.7813 Q108.0625,198.875 108.75,199.9531 Q109.4375,201.0156 110.7813,201.0156 Q111.4063,201.0156 112,200.75 Q112.5938,200.4688 113.2188,199.8906 L113.2188,202.6094 Z " fill="#000000"/><text fill="#000000" font-family="sans-serif" font-size="14" lengthAdjust="spacing" textLength="158" x="130.75" y="195.9951">CombinedIntGenerator</text><text fill="#000000" font-family="sans-serif" font-size="10" lengthAdjust="spacing" textLength="156" x="131.75" y="208.5791">elki.utilities.datastructures.range</text><line style="stroke:#181818;stroke-width:0.5;" x1="8" x2="379" y1="215.9375" y2="215.9375"/><rect fill="none" height="6" style="stroke:#C82930;stroke-width:1.0;" width="6" x="15" y="226.5859"/><text fill="#000000" font-family="sans-serif" font-size="14" lengthAdjust="spacing" textLength="51" x="27" y="232.9326">min: int</text><rect fill="none" height="6" style="stroke:#C82930;stroke-width:1.0;" width="6" x="15" y="242.8828"/><text fill="#000000" font-family="sans-serif" font-size="14" lengthAdjust="spacing" textLength="54" x="27" y="249.2295">max: int</text><rect fill="none" height="6" style="stroke:#C82930;stroke-width:1.0;" width="6" x="15" y="259.1797"/><text fill="#000000" font-family="sans-serif" font-size="14" lengthAdjust="spacing" textLength="264" x="27" y="265.5264">generators: Collection&lt;IntGenerator&gt;</text><line style="stroke:#181818;stroke-width:0.5;" x1="8" x2="379" y1="272.8281" y2="272.8281"/><ellipse cx="18" cy="286.4766" fill="#84BE84" rx="3" ry="3" style="stroke:#038048;stroke-width:1.0;"/><text fill="#000000" font-family="sans-serif" font-size="14" lengthAdjust="spacing" textLength="267" x="27" y="289.8232">CombinedIntGenerator(IntGenerator...)</text><ellipse cx="18" cy="302.7734" fill="#84BE84" rx="3" ry="3" style="stroke:#038048;stroke-width:1.0;"/><text fill="#000000" font-family="sans-serif" font-size="14" lengthAdjust="spacing" textLength="347" x="27" y="306.1201">CombinedIntGenerator(Collection&lt;IntGenerator&gt;)</text><ellipse cx="18" cy="319.0703" fill="#84BE84" rx="3" ry="3" style="stroke:#038048;stroke-width:1.0;"/><text fill="#000000" font-family="sans-serif" font-size="14" lengthAdjust="spacing" textLength="83" x="27" y="322.417">getMin(): int</text><ellipse cx="18" cy="335.3672" fill="#84BE84" rx="3" ry="3" style="stroke:#038048;stroke-width:1.0;"/><text fill="#000000" font-family="sans-serif" font-size="14" lengthAdjust="spacing" textLength="86" x="27" y="338.7139">getMax(): int</text><rect fill="#F24D5C" height="6" style="stroke:#C82930;stroke-width:1.0;" width="6" x="15" y="348.6641"/><text fill="#000000" font-family="sans-serif" font-size="14" lengthAdjust="spacing" textLength="147" x="27" y="355.0107">updateMinMax(): void</text><ellipse cx="18" cy="367.9609" fill="#84BE84" rx="3" ry="3" style="stroke:#038048;stroke-width:1.0;"/><text fill="#000000" font-family="sans-serif" font-size="14" lengthAdjust="spacing" textLength="188" x="27" y="371.3076">forEach(IntConsumer): void</text><ellipse cx="18" cy="384.2578" fill="#84BE84" rx="3" ry="3" style="stroke:#038048;stroke-width:1.0;"/><text fill="#000000" font-family="sans-serif" font-size="14" lengthAdjust="spacing" textLength="269" x="27" y="387.6045">serializeTo(StringBuilder): StringBuilder</text></g></a><!--MD5=[c73c3020400051c9e64e71baaec06864]
class elki.utilities.datastructures.range.IntGenerator--><a href="IntGenerator.html" target="_top" title="IntGenerator.html" xlink:actuate="onRequest" xlink:href="IntGenerator.html" xlink:show="new" xlink:title="IntGenerator.html" xlink:type="simple"><g id="elem_elki.utilities.datastructures.range.IntGenerator"><rect codeLine="19" fill="#F1F1F1" height="111.125" id="elki.utilities.datastructures.range.IntGenerator" rx="2.5" ry="2.5" style="stroke:#181818;stroke-width:0.5;" width="303" x="42" y="7"/><ellipse cx="107.25" cy="25.9688" fill="#B4A7E5" rx="11" ry="11" style="stroke:#181818;stroke-width:1.0;"/><path d="M103.1719,21.7344 L103.1719,19.5781 L110.5625,19.5781 L110.5625,21.7344 L108.0938,21.7344 L108.0938,29.8125 L110.5625,29.8125 L110.5625,31.9688 L103.1719,31.9688 L103.1719,29.8125 L105.6406,29.8125 L105.6406,21.7344 L103.1719,21.7344 Z " fill="#000000"/><text fill="#000000" font-family="sans-serif" font-size="14" font-style="italic" lengthAdjust="spacing" textLength="89" x="165.25" y="24.9951">IntGenerator</text><text fill="#000000" font-family="sans-serif" font-size="10" font-style="italic" lengthAdjust="spacing" textLength="164" x="127.75" y="37.5791">elki.utilities.datastructures.range</text><line style="stroke:#181818;stroke-width:0.5;" x1="43" x2="344" y1="44.9375" y2="44.9375"/><ellipse cx="53" cy="58.5859" fill="#84BE84" rx="3" ry="3" style="stroke:#038048;stroke-width:1.0;"/><text fill="#000000" font-family="sans-serif" font-size="14" font-style="italic" lengthAdjust="spacing" textLength="85" x="62" y="61.9326">getMin(): int</text><ellipse cx="53" cy="74.8828" fill="#84BE84" rx="3" ry="3" style="stroke:#038048;stroke-width:1.0;"/><text fill="#000000" font-family="sans-serif" font-size="14" font-style="italic" lengthAdjust="spacing" textLength="89" x="62" y="78.2295">getMax(): int</text><ellipse cx="53" cy="91.1797" fill="#84BE84" rx="3" ry="3" style="stroke:#038048;stroke-width:1.0;"/><text fill="#000000" font-family="sans-serif" font-size="14" font-style="italic" lengthAdjust="spacing" textLength="193" x="62" y="94.5264">forEach(IntConsumer): void</text><ellipse cx="53" cy="107.4766" fill="#84BE84" rx="3" ry="3" style="stroke:#038048;stroke-width:1.0;"/><text fill="#000000" font-family="sans-serif" font-size="14" font-style="italic" lengthAdjust="spacing" textLength="277" x="62" y="110.8232">serializeTo(StringBuilder): StringBuilder</text></g></a><!--MD5=[8a2f7a14b748d9ab1e18ac319b9066c1]
reverse link elki.utilities.datastructures.range.IntGenerator to elki.utilities.datastructures.range.CombinedIntGenerator--><g id="link_elki.utilities.datastructures.range.IntGenerator_elki.utilities.datastructures.range.CombinedIntGenerator"><path codeLine="26" d="M193.5,138.53 C193.5,151.14 193.5,164.45 193.5,177.7 " fill="none" id="elki.utilities.datastructures.range.IntGenerator-backto-elki.utilities.datastructures.range.CombinedIntGenerator" style="stroke:#181818;stroke-width:1.0;stroke-dasharray:7.0,7.0;"/><polygon fill="none" points="186.5,138.09,193.5,118.09,200.5,138.09,186.5,138.09" style="stroke:#181818;stroke-width:1.0;"/></g><rect fill="none" height="11.6406" style="stroke:none;stroke-width:1.0;" width="186" x="93.5" y="400.9063"/><text fill="#888888" font-family="sans-serif" font-size="10" lengthAdjust="spacing" textLength="186" x="93.5" y="410.1885">UMLDoclet 2.0.19, PlantUML 1.2022.8</text><!--MD5=[d65a5a739b7b7cfc16a548ba28e27452]
@startuml
    remove .*\.(Instance|Par|Parameterizer|Factory)$
    set namespaceSeparator none
    hide empty fields
    hide empty methods

    class "<size:14>CombinedIntGenerator\n<size:10>elki.utilities.datastructures.range" as elki.utilities.datastructures.range.CombinedIntGenerator [[CombinedIntGenerator.html]] {
        -min: int
        -max: int
        -generators: Collection<IntGenerator>
        +CombinedIntGenerator(IntGenerator...)
        +CombinedIntGenerator(Collection<IntGenerator>)
        +getMin(): int
        +getMax(): int
        -updateMinMax(): void
        +forEach(IntConsumer): void
        +serializeTo(StringBuilder): StringBuilder
    }

    interface "<size:14>IntGenerator\n<size:10>elki.utilities.datastructures.range" as elki.utilities.datastructures.range.IntGenerator [[IntGenerator.html]] {
        {abstract} +getMin(): int
        {abstract} +getMax(): int
        {abstract} +forEach(IntConsumer): void
        {abstract} +serializeTo(StringBuilder): StringBuilder
    }

    elki.utilities.datastructures.range.IntGenerator <|.. elki.utilities.datastructures.range.CombinedIntGenerator

    center footer UMLDoclet 2.0.19, PlantUML 1.2022.8
@enduml

PlantUML version 1.2022.8(Sun Sep 25 11:00:33 CEST 2022)
(APACHE source distribution)
Java Runtime: OpenJDK Runtime Environment
JVM: OpenJDK 64-Bit Server VM
Default Encoding: UTF-8
Language: de
Country: DE
--></g></svg>