<?xml version="1.0" encoding="UTF-8" standalone="no"?>
<!DOCTYPE svg PUBLIC "-//W3C//DTD SVG 1.1//EN"
 "http://www.w3.org/Graphics/SVG/1.1/DTD/svg11.dtd">
<!-- Generated by graphviz version 2.40.1 (20161225.0304)
 -->
<!-- Title: G Pages: 1 -->
<svg width="367pt" height="65pt"
 viewBox="0.00 0.00 367.00 64.50" xmlns="http://www.w3.org/2000/svg" xmlns:xlink="http://www.w3.org/1999/xlink">
<g id="graph0" class="graph" transform="scale(1 1) rotate(0) translate(4 60.5)">
<title>G</title>
<polygon fill="#ffffff" stroke="transparent" points="-4,4 -4,-60.5 363,-60.5 363,4 -4,4"/>
<!-- c8826356 -->
<g id="node1" class="node">
<title>c8826356</title>
<g id="a_node1"><a xlink:href="RdKNNNode.html" xlink:title="&lt;TABLE&gt;">
<g id="a_node1_0"><a xlink:href="RdKNNNode.html" xlink:title="de.lmu.ifi.dbs.elki.index.tree.spatial.rstarvariants.rdknn.RdKNNNode" target="_parent">
<polygon fill="#fffacd" stroke="transparent" points="192,-5.5 192,-22.5 252,-22.5 252,-5.5 192,-5.5"/>
<polygon fill="none" stroke="#000000" points="192,-5 192,-22 252,-22 252,-5 192,-5"/>
<text text-anchor="start" x="196" y="-12.6" font-family="Roboto" font-size="8.00" fill="#000000"> </text>
<text text-anchor="start" x="199" y="-12.6" font-family="Roboto" font-size="8.00" fill="#000000">RdKNNNode</text>
<text text-anchor="start" x="245" y="-12.6" font-family="Roboto" font-size="8.00" fill="#000000"> </text>
</a>
</g>
</a>
</g>
</g>
<!-- c8826359 -->
<g id="node2" class="node">
<title>c8826359</title>
<g id="a_node2"><a xlink:href="RdKNNEntry.html" xlink:title="&lt;TABLE&gt;">
<g id="a_node2_1"><a xlink:href="RdKNNEntry.html" xlink:title="de.lmu.ifi.dbs.elki.index.tree.spatial.rstarvariants.rdknn.RdKNNEntry" target="_parent">
<polygon fill="none" stroke="#000000" points="299,0 299,-28 359,-28 359,0 299,0"/>
<text text-anchor="start" x="307.5" y="-17.6" font-family="Roboto" font-size="8.00" fill="#000000"> «interface» </text>
<text text-anchor="start" x="303" y="-7.6" font-family="Roboto" font-size="8.00" fill="#000000"> </text>
<text text-anchor="start" x="306" y="-7.6" font-family="Roboto" font-size="8.00" fill="#000000">RdKNNEntry</text>
<text text-anchor="start" x="352" y="-7.6" font-family="Roboto" font-size="8.00" fill="#000000"> </text>
</a>
</g>
</a>
</g>
</g>
<!-- c8826356&#45;&gt;c8826359 -->
<g id="edge2" class="edge">
<title>c8826356&#45;&gt;c8826359</title>
<path fill="none" stroke="#000000" d="M264.219,-14C272.2447,-14 280.6252,-14 288.5929,-14"/>
<polygon fill="none" stroke="#000000" points="264.0902,-14.0001 258.0902,-18 252.0902,-14 258.0902,-10 264.0902,-14.0001"/>
<polygon fill="#000000" stroke="#000000" points="298.7649,-14 288.765,-18.5001 293.7649,-14 288.7649,-14.0001 288.7649,-14.0001 288.7649,-14.0001 293.7649,-14 288.7649,-9.5001 298.7649,-14 298.7649,-14"/>
<text text-anchor="middle" x="275.5" y="-16.4" font-family="Roboto" font-size="7.00" fill="#000000">contains</text>
</g>
<!-- c8826360 -->
<g id="node3" class="node">
<title>c8826360</title>
<g id="a_node3"><a xlink:href="RdKNNTree.html" xlink:title="&lt;TABLE&gt;">
<g id="a_node3_2"><a xlink:href="RdKNNTree.html" xlink:title="de.lmu.ifi.dbs.elki.index.tree.spatial.rstarvariants.rdknn.RdKNNTree" target="_parent">
<polygon fill="none" stroke="#000000" points="58.5,-39 58.5,-56 115.5,-56 115.5,-39 58.5,-39"/>
<text text-anchor="start" x="62.5" y="-46.6" font-family="Roboto" font-size="8.00" fill="#000000"> </text>
<text text-anchor="start" x="65.5" y="-46.6" font-family="Roboto" font-size="8.00" fill="#000000">RdKNNTree</text>
<text text-anchor="start" x="108.5" y="-46.6" font-family="Roboto" font-size="8.00" fill="#000000"> </text>
</a>
</g>
</a>
</g>
</g>
<!-- c8826360&#45;&gt;c8826356 -->
<g id="edge3" class="edge">
<title>c8826360&#45;&gt;c8826356</title>
<path fill="none" stroke="#000000" d="M127.4535,-42.6043C141.9769,-40.2435 158.3473,-37.068 173,-33 182.8466,-30.2664 193.4563,-26.2879 202.2767,-22.6771"/>
<polygon fill="none" stroke="#000000" points="127.1175,-42.6557 121.7917,-47.5174 115.2556,-44.4712 120.5814,-39.6095 127.1175,-42.6557"/>
</g>
<!-- c8826365 -->
<g id="node4" class="node">
<title>c8826365</title>
<g id="a_node4"><a xlink:href="../AbstractRStarTreeNode.html" xlink:title="&lt;TABLE&gt;">
<g id="a_node4_3"><a xlink:href="../AbstractRStarTreeNode.html" xlink:title="de.lmu.ifi.dbs.elki.index.tree.spatial.rstarvariants.AbstractRStarTreeNode" target="_parent">
<polygon fill="none" stroke="#000000" points=".5,0 .5,-28 173.5,-28 173.5,0 .5,0"/>
<text text-anchor="start" x="43" y="-18.6" font-family="Roboto" font-size="8.00" fill="#000000"> </text>
<text text-anchor="start" x="46" y="-18.6" font-family="Roboto" font-style="italic" font-size="8.00" fill="#000000">AbstractRStarTreeNode</text>
<text text-anchor="start" x="128" y="-18.6" font-family="Roboto" font-size="8.00" fill="#000000"> </text>
<text text-anchor="start" x="4.5" y="-7.6" font-family="Roboto" font-size="8.00" fill="#000000"> </text>
<text text-anchor="start" x="7.5" y="-7.6" font-family="Roboto" font-size="7.00" fill="#000000">de.lmu.ifi.dbs.elki.index.tree.spatial.rstarvariants</text>
<text text-anchor="start" x="166.5" y="-7.6" font-family="Roboto" font-size="8.00" fill="#000000"> </text>
</a>
</g>
</a>
</g>
</g>
<!-- c8826365&#45;&gt;c8826356 -->
<g id="edge1" class="edge">
<title>c8826365&#45;&gt;c8826356</title>
<path fill="none" stroke="#000000" d="M183.1031,-14C186.1514,-14 189.1038,-14 191.9282,-14"/>
<polygon fill="none" stroke="#000000" points="183.0814,-10.5001 173.0814,-14 183.0814,-17.5001 183.0814,-10.5001"/>
</g>
</g>
</svg>
