<?xml version="1.0" encoding="UTF-8" standalone="no"?>
<!DOCTYPE svg PUBLIC "-//W3C//DTD SVG 1.1//EN"
 "http://www.w3.org/Graphics/SVG/1.1/DTD/svg11.dtd">
<!-- Generated by graphviz version 2.40.1 (20161225.0304)
 -->
<!-- Title: G Pages: 1 -->
<svg width="354pt" height="78pt"
 viewBox="0.00 0.00 354.00 78.00" xmlns="http://www.w3.org/2000/svg" xmlns:xlink="http://www.w3.org/1999/xlink">
<g id="graph0" class="graph" transform="scale(1 1) rotate(0) translate(4 74)">
<title>G</title>
<polygon fill="#ffffff" stroke="transparent" points="-4,4 -4,-74 350,-74 350,4 -4,4"/>
<!-- c8819962 -->
<g id="node1" class="node">
<title>c8819962</title>
<g id="a_node1"><a xlink:href="RdKNNNode.html" xlink:title="&lt;TABLE&gt;">
<g id="a_node1_0"><a xlink:href="RdKNNNode.html" xlink:title="de.lmu.ifi.dbs.elki.index.tree.spatial.rstarvariants.rdknn.RdKNNNode" target="_parent">
<polygon fill="none" stroke="#000000" points="34.5,-52.5 34.5,-69.5 94.5,-69.5 94.5,-52.5 34.5,-52.5"/>
<text text-anchor="start" x="38.5" y="-60.1" font-family="Roboto" font-size="8.00" fill="#000000"> </text>
<text text-anchor="start" x="41.5" y="-60.1" font-family="Roboto" font-size="8.00" fill="#000000">RdKNNNode</text>
<text text-anchor="start" x="87.5" y="-60.1" font-family="Roboto" font-size="8.00" fill="#000000"> </text>
</a>
</g>
</a>
</g>
</g>
<!-- c8819965 -->
<g id="node2" class="node">
<title>c8819965</title>
<g id="a_node2"><a xlink:href="RdKNNEntry.html" xlink:title="&lt;TABLE&gt;">
<g id="a_node2_1"><a xlink:href="RdKNNEntry.html" xlink:title="de.lmu.ifi.dbs.elki.index.tree.spatial.rstarvariants.rdknn.RdKNNEntry" target="_parent">
<polygon fill="#fffacd" stroke="transparent" points="176,-8.5 176,-36.5 236,-36.5 236,-8.5 176,-8.5"/>
<polygon fill="none" stroke="#000000" points="176,-8.5 176,-36.5 236,-36.5 236,-8.5 176,-8.5"/>
<text text-anchor="start" x="184.5" y="-26.1" font-family="Roboto" font-size="8.00" fill="#000000"> «interface» </text>
<text text-anchor="start" x="180" y="-16.1" font-family="Roboto" font-size="8.00" fill="#000000"> </text>
<text text-anchor="start" x="183" y="-16.1" font-family="Roboto" font-size="8.00" fill="#000000">RdKNNEntry</text>
<text text-anchor="start" x="229" y="-16.1" font-family="Roboto" font-size="8.00" fill="#000000"> </text>
</a>
</g>
</a>
</g>
</g>
<!-- c8819962&#45;&gt;c8819965 -->
<g id="edge1" class="edge">
<title>c8819962&#45;&gt;c8819965</title>
<path fill="none" stroke="#000000" d="M106.4593,-53.0315C113.9958,-51.3291 121.7552,-49.4571 129,-47.5 141.1906,-44.2069 154.3084,-40.146 166.2012,-36.2619"/>
<polygon fill="none" stroke="#000000" points="106.2394,-53.0794 101.23,-58.2664 94.5152,-55.6373 99.5247,-50.4503 106.2394,-53.0794"/>
<polygon fill="#000000" stroke="#000000" points="175.8558,-33.0616 167.7796,-40.4796 171.1097,-34.6349 166.3637,-36.2081 166.3637,-36.2081 166.3637,-36.2081 171.1097,-34.6349 164.9477,-31.9367 175.8558,-33.0616 175.8558,-33.0616"/>
<text text-anchor="middle" x="152.5" y="-46.9" font-family="Roboto" font-size="7.00" fill="#000000">contains</text>
</g>
<!-- c8819967 -->
<g id="node3" class="node">
<title>c8819967</title>
<g id="a_node3"><a xlink:href="RdKNNLeafEntry.html" xlink:title="&lt;TABLE&gt;">
<g id="a_node3_2"><a xlink:href="RdKNNLeafEntry.html" xlink:title="de.lmu.ifi.dbs.elki.index.tree.spatial.rstarvariants.rdknn.RdKNNLeafEntry" target="_parent">
<polygon fill="none" stroke="#000000" points="263.5,-27.5 263.5,-44.5 338.5,-44.5 338.5,-27.5 263.5,-27.5"/>
<text text-anchor="start" x="267.5" y="-35.1" font-family="Roboto" font-size="8.00" fill="#000000"> </text>
<text text-anchor="start" x="270.5" y="-35.1" font-family="Roboto" font-size="8.00" fill="#000000">RdKNNLeafEntry</text>
<text text-anchor="start" x="331.5" y="-35.1" font-family="Roboto" font-size="8.00" fill="#000000"> </text>
</a>
</g>
</a>
</g>
</g>
<!-- c8819965&#45;&gt;c8819967 -->
<g id="edge3" class="edge">
<title>c8819965&#45;&gt;c8819967</title>
<path fill="none" stroke="#000000" stroke-dasharray="5,2" d="M246.0534,-28.4338C251.6723,-29.2663 257.4304,-30.1193 262.9995,-30.9444"/>
<polygon fill="none" stroke="#000000" points="246.5652,-24.9715 236.1602,-26.9682 245.5393,-31.896 246.5652,-24.9715"/>
</g>
<!-- c8819968 -->
<g id="node4" class="node">
<title>c8819968</title>
<g id="a_node4"><a xlink:href="RdKNNDirectoryEntry.html" xlink:title="&lt;TABLE&gt;">
<g id="a_node4_3"><a xlink:href="RdKNNDirectoryEntry.html" xlink:title="de.lmu.ifi.dbs.elki.index.tree.spatial.rstarvariants.rdknn.RdKNNDirectoryEntry" target="_parent">
<polygon fill="none" stroke="#000000" points="255.5,.5 255.5,-16.5 346.5,-16.5 346.5,.5 255.5,.5"/>
<text text-anchor="start" x="259.5" y="-7.1" font-family="Roboto" font-size="8.00" fill="#000000"> </text>
<text text-anchor="start" x="262.5" y="-7.1" font-family="Roboto" font-size="8.00" fill="#000000">RdKNNDirectoryEntry</text>
<text text-anchor="start" x="339.5" y="-7.1" font-family="Roboto" font-size="8.00" fill="#000000"> </text>
</a>
</g>
</a>
</g>
</g>
<!-- c8819965&#45;&gt;c8819968 -->
<g id="edge4" class="edge">
<title>c8819965&#45;&gt;c8819968</title>
<path fill="none" stroke="#000000" stroke-dasharray="5,2" d="M246.2081,-16.5432C249.0455,-16.1229 251.9176,-15.6974 254.7822,-15.273"/>
<polygon fill="none" stroke="#000000" points="245.5393,-13.104 236.1602,-18.0318 246.5652,-20.0285 245.5393,-13.104"/>
</g>
<!-- c8820032 -->
<g id="node5" class="node">
<title>c8820032</title>
<g id="a_node5"><a xlink:href="../../SpatialEntry.html" xlink:title="&lt;TABLE&gt;">
<g id="a_node5_4"><a xlink:href="../../SpatialEntry.html" xlink:title="de.lmu.ifi.dbs.elki.index.tree.spatial.SpatialEntry" target="_parent">
<polygon fill="none" stroke="#000000" points=".5,-2.5 .5,-41.5 129.5,-41.5 129.5,-2.5 .5,-2.5"/>
<text text-anchor="start" x="43.5" y="-31.1" font-family="Roboto" font-size="8.00" fill="#000000"> «interface» </text>
<text text-anchor="start" x="40.5" y="-21.1" font-family="Roboto" font-size="8.00" fill="#000000"> </text>
<text text-anchor="start" x="43.5" y="-21.1" font-family="Roboto" font-size="8.00" fill="#000000">SpatialEntry</text>
<text text-anchor="start" x="86.5" y="-21.1" font-family="Roboto" font-size="8.00" fill="#000000"> </text>
<text text-anchor="start" x="4.5" y="-10.1" font-family="Roboto" font-size="8.00" fill="#000000"> </text>
<text text-anchor="start" x="7.5" y="-10.1" font-family="Roboto" font-size="7.00" fill="#000000">de.lmu.ifi.dbs.elki.index.tree.spatial</text>
<text text-anchor="start" x="122.5" y="-10.1" font-family="Roboto" font-size="8.00" fill="#000000"> </text>
</a>
</g>
</a>
</g>
</g>
<!-- c8820032&#45;&gt;c8819965 -->
<g id="edge2" class="edge">
<title>c8820032&#45;&gt;c8819965</title>
<path fill="none" stroke="#000000" stroke-dasharray="5,2" d="M139.3972,-22.5C152.305,-22.5 165.028,-22.5 175.8399,-22.5"/>
<polygon fill="none" stroke="#000000" points="139.0389,-19.0001 129.0389,-22.5 139.0388,-26.0001 139.0389,-19.0001"/>
</g>
</g>
</svg>
