<?xml version="1.0" encoding="UTF-8" standalone="no"?>
<!DOCTYPE svg PUBLIC "-//W3C//DTD SVG 1.1//EN"
 "http://www.w3.org/Graphics/SVG/1.1/DTD/svg11.dtd">
<!-- Generated by graphviz version 2.40.1 (20161225.0304)
 -->
<!-- Title: G Pages: 1 -->
<svg width="1279pt" height="430pt"
 viewBox="0.00 0.00 1279.00 430.47" xmlns="http://www.w3.org/2000/svg" xmlns:xlink="http://www.w3.org/1999/xlink">
<g id="graph0" class="graph" transform="scale(1 1) rotate(0) translate(4 426.4742)">
<title>G</title>
<polygon fill="#ffffff" stroke="transparent" points="-4,4 -4,-426.4742 1275,-426.4742 1275,4 -4,4"/>
<!-- c9840788 -->
<g id="node1" class="node">
<title>c9840788</title>
<g id="a_node1"><a xlink:href="../../visualization/projector/ParallelPlotProjector.html" xlink:title="&lt;TABLE&gt;">
<g id="a_node1_0"><a xlink:href="../../visualization/projector/ParallelPlotProjector.html" xlink:title="de.lmu.ifi.dbs.elki.visualization.projector.ParallelPlotProjector" target="_parent">
<polygon fill="none" stroke="#000000" points="159.5,-367.8343 159.5,-395.8343 306.5,-395.8343 306.5,-367.8343 159.5,-367.8343"/>
<text text-anchor="start" x="195" y="-386.4343" font-family="Roboto" font-size="8.00" fill="#000000"> </text>
<text text-anchor="start" x="198" y="-386.4343" font-family="Roboto" font-size="8.00" fill="#000000">ParallelPlotProjector</text>
<text text-anchor="start" x="268" y="-386.4343" font-family="Roboto" font-size="8.00" fill="#000000"> </text>
<text text-anchor="start" x="163.5" y="-375.4343" font-family="Roboto" font-size="8.00" fill="#000000"> </text>
<text text-anchor="start" x="166.5" y="-375.4343" font-family="Roboto" font-size="7.00" fill="#000000">de.lmu.ifi.dbs.elki.visualization.projector</text>
<text text-anchor="start" x="299.5" y="-375.4343" font-family="Roboto" font-size="8.00" fill="#000000"> </text>
</a>
</g>
</a>
</g>
</g>
<!-- c9841708 -->
<g id="node9" class="node">
<title>c9841708</title>
<g id="a_node9"><a xlink:href="SpatialComparable.html" xlink:title="&lt;TABLE&gt;">
<g id="a_node9_1"><a xlink:href="SpatialComparable.html" xlink:title="de.lmu.ifi.dbs.elki.data.spatial.SpatialComparable" target="_parent">
<polygon fill="#fffacd" stroke="transparent" points="881,-165.8343 881,-193.8343 963,-193.8343 963,-165.8343 881,-165.8343"/>
<polygon fill="none" stroke="#000000" points="881,-165.8343 881,-193.8343 963,-193.8343 963,-165.8343 881,-165.8343"/>
<text text-anchor="start" x="900.5" y="-183.4343" font-family="Roboto" font-size="8.00" fill="#000000"> «interface» </text>
<text text-anchor="start" x="885" y="-173.4343" font-family="Roboto" font-size="8.00" fill="#000000"> </text>
<text text-anchor="start" x="888" y="-173.4343" font-family="Roboto" font-size="8.00" fill="#000000">SpatialComparable</text>
<text text-anchor="start" x="956" y="-173.4343" font-family="Roboto" font-size="8.00" fill="#000000"> </text>
</a>
</g>
</a>
</g>
</g>
<!-- c9840788&#45;&gt;c9841708 -->
<g id="edge20" class="edge">
<title>c9840788&#45;&gt;c9841708</title>
<path fill="none" stroke="#000000" stroke-dasharray="5,2" d="M305.8668,-395.8676C419.745,-415.0221 645.1816,-442.4031 830,-399.8343 849.7906,-395.276 858.8505,-397.3112 872,-381.8343 894.841,-354.9507 911.9303,-251.533 918.7513,-203.9928"/>
<polygon fill="#000000" stroke="#000000" points="920.1562,-193.9631 923.2254,-204.4907 919.4626,-198.9148 918.7689,-203.8664 918.7689,-203.8664 918.7689,-203.8664 919.4626,-198.9148 914.3125,-203.2421 920.1562,-193.9631 920.1562,-193.9631"/>
</g>
<!-- c9840797 -->
<g id="node2" class="node">
<title>c9840797</title>
<g id="a_node2"><a xlink:href="../../visualization/projector/ScatterPlotProjector.html" xlink:title="&lt;TABLE&gt;">
<g id="a_node2_2"><a xlink:href="../../visualization/projector/ScatterPlotProjector.html" xlink:title="de.lmu.ifi.dbs.elki.visualization.projector.ScatterPlotProjector" target="_parent">
<polygon fill="none" stroke="#000000" points="516.5,-377.8343 516.5,-405.8343 663.5,-405.8343 663.5,-377.8343 516.5,-377.8343"/>
<text text-anchor="start" x="553.5" y="-396.4343" font-family="Roboto" font-size="8.00" fill="#000000"> </text>
<text text-anchor="start" x="556.5" y="-396.4343" font-family="Roboto" font-size="8.00" fill="#000000">ScatterPlotProjector</text>
<text text-anchor="start" x="623.5" y="-396.4343" font-family="Roboto" font-size="8.00" fill="#000000"> </text>
<text text-anchor="start" x="520.5" y="-385.4343" font-family="Roboto" font-size="8.00" fill="#000000"> </text>
<text text-anchor="start" x="523.5" y="-385.4343" font-family="Roboto" font-size="7.00" fill="#000000">de.lmu.ifi.dbs.elki.visualization.projector</text>
<text text-anchor="start" x="656.5" y="-385.4343" font-family="Roboto" font-size="8.00" fill="#000000"> </text>
</a>
</g>
</a>
</g>
</g>
<!-- c9840797&#45;&gt;c9841708 -->
<g id="edge21" class="edge">
<title>c9840797&#45;&gt;c9841708</title>
<path fill="none" stroke="#000000" stroke-dasharray="5,2" d="M663.1524,-396.0063C737.3864,-398.4172 844.7668,-396.3902 872,-366.8343 893.9314,-343.0324 911.1662,-249.1824 918.356,-204.1696"/>
<polygon fill="#000000" stroke="#000000" points="919.9266,-194.0981 922.8319,-204.6721 919.1561,-199.0384 918.3857,-203.9787 918.3857,-203.9787 918.3857,-203.9787 919.1561,-199.0384 913.9394,-203.2853 919.9266,-194.0981 919.9266,-194.0981"/>
</g>
<!-- c9841665 -->
<g id="node3" class="node">
<title>c9841665</title>
<g id="a_node3"><a xlink:href="../../distance/distancefunction/SpatialPrimitiveDistanceFunction.html" xlink:title="&lt;TABLE&gt;">
<g id="a_node3_3"><a xlink:href="../../distance/distancefunction/SpatialPrimitiveDistanceFunction.html" xlink:title="de.lmu.ifi.dbs.elki.distance.distancefunction.SpatialPrimitiveDistanceFunction" target="_parent">
<polygon fill="none" stroke="#000000" points="672,-254.8343 672,-293.8343 830,-293.8343 830,-254.8343 672,-254.8343"/>
<text text-anchor="start" x="729.5" y="-283.4343" font-family="Roboto" font-size="8.00" fill="#000000"> «interface» </text>
<text text-anchor="start" x="689.5" y="-273.4343" font-family="Roboto" font-size="8.00" fill="#000000"> </text>
<text text-anchor="start" x="692.5" y="-273.4343" font-family="Roboto" font-size="8.00" fill="#000000">SpatialPrimitiveDistanceFunction</text>
<text text-anchor="start" x="809.5" y="-273.4343" font-family="Roboto" font-size="8.00" fill="#000000"> </text>
<text text-anchor="start" x="676" y="-262.4343" font-family="Roboto" font-size="8.00" fill="#000000"> </text>
<text text-anchor="start" x="679" y="-262.4343" font-family="Roboto" font-size="7.00" fill="#000000">de.lmu.ifi.dbs.elki.distance.distancefunction</text>
<text text-anchor="start" x="823" y="-262.4343" font-family="Roboto" font-size="8.00" fill="#000000"> </text>
</a>
</g>
</a>
</g>
</g>
<!-- c9841665&#45;&gt;c9841708 -->
<g id="edge22" class="edge">
<title>c9841665&#45;&gt;c9841708</title>
<path fill="none" stroke="#000000" stroke-dasharray="5,2" d="M819.0822,-255.2805C837.2325,-248.2778 856.1771,-239.2203 872,-227.8343 882.7271,-220.1152 893.4528,-210.1847 902.2038,-201.361"/>
<polygon fill="#000000" stroke="#000000" points="909.3363,-193.9751 905.6267,-204.2945 905.863,-197.5718 902.3897,-201.1686 902.3897,-201.1686 902.3897,-201.1686 905.863,-197.5718 899.1526,-198.0426 909.3363,-193.9751 909.3363,-193.9751"/>
</g>
<!-- c9841684 -->
<g id="node4" class="node">
<title>c9841684</title>
<g id="a_node4"><a xlink:href="../../database/query/distance/SpatialPrimitiveDistanceQuery.html" xlink:title="&lt;TABLE&gt;">
<g id="a_node4_4"><a xlink:href="../../database/query/distance/SpatialPrimitiveDistanceQuery.html" xlink:title="de.lmu.ifi.dbs.elki.database.query.distance.SpatialPrimitiveDistanceQuery" target="_parent">
<polygon fill="none" stroke="#000000" points="336,-328.8343 336,-356.8343 486,-356.8343 486,-328.8343 336,-328.8343"/>
<text text-anchor="start" x="354" y="-347.4343" font-family="Roboto" font-size="8.00" fill="#000000"> </text>
<text text-anchor="start" x="357" y="-347.4343" font-family="Roboto" font-size="8.00" fill="#000000">SpatialPrimitiveDistanceQuery</text>
<text text-anchor="start" x="465" y="-347.4343" font-family="Roboto" font-size="8.00" fill="#000000"> </text>
<text text-anchor="start" x="340" y="-336.4343" font-family="Roboto" font-size="8.00" fill="#000000"> </text>
<text text-anchor="start" x="343" y="-336.4343" font-family="Roboto" font-size="7.00" fill="#000000">de.lmu.ifi.dbs.elki.database.query.distance</text>
<text text-anchor="start" x="479" y="-336.4343" font-family="Roboto" font-size="8.00" fill="#000000"> </text>
</a>
</g>
</a>
</g>
</g>
<!-- c9841684&#45;&gt;c9841665 -->
<g id="edge2" class="edge">
<title>c9841684&#45;&gt;c9841665</title>
<path fill="none" stroke="#000000" d="M481.036,-328.8271C536.5359,-317.7271 614.0822,-302.2179 671.831,-290.6681"/>
</g>
<!-- c9841685 -->
<g id="node5" class="node">
<title>c9841685</title>
<g id="a_node5"><a xlink:href="../../database/query/distance/SpatialPrimitiveDistanceSimilarityQuery.html" xlink:title="&lt;TABLE&gt;">
<g id="a_node5_5"><a xlink:href="../../database/query/distance/SpatialPrimitiveDistanceSimilarityQuery.html" xlink:title="de.lmu.ifi.dbs.elki.database.query.distance.SpatialPrimitiveDistanceSimilarityQuery" target="_parent">
<polygon fill="none" stroke="#000000" points="673,-328.8343 673,-356.8343 829,-356.8343 829,-328.8343 673,-328.8343"/>
<text text-anchor="start" x="677" y="-347.4343" font-family="Roboto" font-size="8.00" fill="#000000"> </text>
<text text-anchor="start" x="680" y="-347.4343" font-family="Roboto" font-size="8.00" fill="#000000">SpatialPrimitiveDistanceSimilarityQuery</text>
<text text-anchor="start" x="822" y="-347.4343" font-family="Roboto" font-size="8.00" fill="#000000"> </text>
<text text-anchor="start" x="680" y="-336.4343" font-family="Roboto" font-size="8.00" fill="#000000"> </text>
<text text-anchor="start" x="683" y="-336.4343" font-family="Roboto" font-size="7.00" fill="#000000">de.lmu.ifi.dbs.elki.database.query.distance</text>
<text text-anchor="start" x="819" y="-336.4343" font-family="Roboto" font-size="8.00" fill="#000000"> </text>
</a>
</g>
</a>
</g>
</g>
<!-- c9841684&#45;&gt;c9841685 -->
<g id="edge3" class="edge">
<title>c9841684&#45;&gt;c9841685</title>
<path fill="none" stroke="#000000" d="M496.3153,-342.8343C550.5224,-342.8343 620.1577,-342.8343 672.9101,-342.8343"/>
<polygon fill="none" stroke="#000000" points="496.0354,-339.3344 486.0353,-342.8343 496.0353,-346.3344 496.0354,-339.3344"/>
</g>
<!-- c9841684&#45;&gt;c9841708 -->
<g id="edge23" class="edge">
<title>c9841684&#45;&gt;c9841708</title>
<path fill="none" stroke="#000000" stroke-dasharray="5,2" d="M486.3589,-353.8604C589.7518,-367.7263 769.6517,-386.9736 830,-362.8343 893.1568,-337.5716 913.2967,-247.886 919.443,-204.1593"/>
<polygon fill="#000000" stroke="#000000" points="920.7217,-194.0998 923.9247,-204.5874 920.0912,-199.0598 919.4606,-204.0199 919.4606,-204.0199 919.4606,-204.0199 920.0912,-199.0598 914.9965,-203.4524 920.7217,-194.0998 920.7217,-194.0998"/>
</g>
<!-- c9841685&#45;&gt;c9841708 -->
<g id="edge24" class="edge">
<title>c9841685&#45;&gt;c9841708</title>
<path fill="none" stroke="#000000" stroke-dasharray="5,2" d="M829.0917,-329.8886C844.7958,-324.2957 860.1061,-316.2905 872,-304.8343 900.3852,-277.4936 913.0697,-231.9401 918.4218,-204.0273"/>
<polygon fill="#000000" stroke="#000000" points="920.1852,-193.928 922.8981,-204.553 919.3252,-198.8535 918.4651,-203.7789 918.4651,-203.7789 918.4651,-203.7789 919.3252,-198.8535 914.0322,-203.0049 920.1852,-193.928 920.1852,-193.928"/>
</g>
<!-- c9841686 -->
<g id="node6" class="node">
<title>c9841686</title>
<g id="a_node6"><a xlink:href="../../database/query/distance/SpatialDistanceQuery.html" xlink:title="&lt;TABLE&gt;">
<g id="a_node6_6"><a xlink:href="../../database/query/distance/SpatialDistanceQuery.html" xlink:title="de.lmu.ifi.dbs.elki.database.query.distance.SpatialDistanceQuery" target="_parent">
<polygon fill="none" stroke="#000000" points="0,-322.8343 0,-361.8343 150,-361.8343 150,-322.8343 0,-322.8343"/>
<text text-anchor="start" x="53.5" y="-351.4343" font-family="Roboto" font-size="8.00" fill="#000000"> «interface» </text>
<text text-anchor="start" x="33.5" y="-341.4343" font-family="Roboto" font-size="8.00" fill="#000000"> </text>
<text text-anchor="start" x="36.5" y="-341.4343" font-family="Roboto" font-size="8.00" fill="#000000">SpatialDistanceQuery</text>
<text text-anchor="start" x="113.5" y="-341.4343" font-family="Roboto" font-size="8.00" fill="#000000"> </text>
<text text-anchor="start" x="4" y="-330.4343" font-family="Roboto" font-size="8.00" fill="#000000"> </text>
<text text-anchor="start" x="7" y="-330.4343" font-family="Roboto" font-size="7.00" fill="#000000">de.lmu.ifi.dbs.elki.database.query.distance</text>
<text text-anchor="start" x="143" y="-330.4343" font-family="Roboto" font-size="8.00" fill="#000000"> </text>
</a>
</g>
</a>
</g>
</g>
<!-- c9841686&#45;&gt;c9841684 -->
<g id="edge1" class="edge">
<title>c9841686&#45;&gt;c9841684</title>
<path fill="none" stroke="#000000" stroke-dasharray="5,2" d="M160.662,-342.8343C214.731,-342.8343 283.9163,-342.8343 335.8467,-342.8343"/>
<polygon fill="none" stroke="#000000" points="160.405,-339.3344 150.405,-342.8343 160.4049,-346.3344 160.405,-339.3344"/>
</g>
<!-- c9841686&#45;&gt;c9841708 -->
<g id="edge25" class="edge">
<title>c9841686&#45;&gt;c9841708</title>
<path fill="none" stroke="#000000" stroke-dasharray="5,2" d="M106.3863,-323.33C176.6132,-280.853 353.0695,-180.5345 516,-139.8343 651.5296,-105.9789 691.8762,-104.9468 830,-125.8343 849.3207,-128.756 854.7911,-129.5779 872,-138.8343 882.0393,-144.2343 891.9813,-151.8014 900.3236,-158.9668"/>
<polygon fill="#000000" stroke="#000000" points="907.7827,-165.6297 897.3269,-162.3239 904.0537,-162.2988 900.3248,-158.9678 900.3248,-158.9678 900.3248,-158.9678 904.0537,-162.2988 903.3226,-155.6118 907.7827,-165.6297 907.7827,-165.6297"/>
</g>
<!-- c9841706 -->
<g id="node7" class="node">
<title>c9841706</title>
<g id="a_node7"><a xlink:href="Polygon.html" xlink:title="&lt;TABLE&gt;">
<g id="a_node7_7"><a xlink:href="Polygon.html" xlink:title="de.lmu.ifi.dbs.elki.data.spatial.Polygon" target="_parent">
<polygon fill="none" stroke="#000000" points="1190,-280.8343 1190,-297.8343 1232,-297.8343 1232,-280.8343 1190,-280.8343"/>
<text text-anchor="start" x="1194" y="-288.4343" font-family="Roboto" font-size="8.00" fill="#000000"> </text>
<text text-anchor="start" x="1197" y="-288.4343" font-family="Roboto" font-size="8.00" fill="#000000">Polygon</text>
<text text-anchor="start" x="1225" y="-288.4343" font-family="Roboto" font-size="8.00" fill="#000000"> </text>
</a>
</g>
</a>
</g>
</g>
<!-- c9841707 -->
<g id="node8" class="node">
<title>c9841707</title>
<g id="a_node8"><a xlink:href="SpatialUtil.html" xlink:title="&lt;TABLE&gt;">
<g id="a_node8_8"><a xlink:href="SpatialUtil.html" xlink:title="de.lmu.ifi.dbs.elki.data.spatial.SpatialUtil" target="_parent">
<polygon fill="#fffacd" stroke="transparent" points="725,-227.3343 725,-244.3343 777,-244.3343 777,-227.3343 725,-227.3343"/>
<polygon fill="none" stroke="#000000" points="725,-226.8343 725,-243.8343 777,-243.8343 777,-226.8343 725,-226.8343"/>
<text text-anchor="start" x="729" y="-234.4343" font-family="Roboto" font-size="8.00" fill="#000000"> </text>
<text text-anchor="start" x="732" y="-234.4343" font-family="Roboto" font-size="8.00" fill="#000000">SpatialUtil</text>
<text text-anchor="start" x="770" y="-234.4343" font-family="Roboto" font-size="8.00" fill="#000000"> </text>
</a>
</g>
</a>
</g>
</g>
<!-- c9841707&#45;&gt;c9841708 -->
<g id="edge5" class="edge">
<title>c9841707&#45;&gt;c9841708</title>
<path fill="none" stroke="#000000" d="M777.0095,-232.9103C792.609,-230.7433 812.7109,-227.2171 830,-221.8343 849.1989,-215.8569 869.6321,-206.8222 886.353,-198.6618"/>
<polygon fill="#000000" stroke="#000000" points="895.7316,-193.9878 888.7887,-202.4759 891.2566,-196.2181 886.7815,-198.4483 886.7815,-198.4483 886.7815,-198.4483 891.2566,-196.2181 884.7743,-194.4207 895.7316,-193.9878 895.7316,-193.9878"/>
<text text-anchor="middle" x="855.5" y="-220.2343" font-family="Roboto" font-size="7.00" fill="#000000">compares</text>
</g>
<!-- c9841708&#45;&gt;c9841706 -->
<g id="edge4" class="edge">
<title>c9841708&#45;&gt;c9841706</title>
<path fill="none" stroke="#000000" stroke-dasharray="5,2" d="M929.229,-203.4519C937.7531,-226.8154 954.3743,-261.3913 982,-277.8343 1048.8809,-317.6423 1147.1633,-303.6482 1189.8817,-294.8104"/>
<polygon fill="none" stroke="#000000" points="932.5142,-202.2415 925.9673,-193.9115 925.8905,-204.506 932.5142,-202.2415"/>
</g>
<!-- c9841722 -->
<g id="node10" class="node">
<title>c9841722</title>
<g id="a_node10"><a xlink:href="../NumberVector.html" xlink:title="&lt;TABLE&gt;">
<g id="a_node10_9"><a xlink:href="../NumberVector.html" xlink:title="de.lmu.ifi.dbs.elki.data.NumberVector" target="_parent">
<polygon fill="#fffacd" stroke="transparent" points="1013.5,-205.3343 1013.5,-244.3343 1100.5,-244.3343 1100.5,-205.3343 1013.5,-205.3343"/>
<polygon fill="none" stroke="#000000" points="1014,-204.8343 1014,-243.8343 1101,-243.8343 1101,-204.8343 1014,-204.8343"/>
<text text-anchor="start" x="1036" y="-233.4343" font-family="Roboto" font-size="8.00" fill="#000000"> «interface» </text>
<text text-anchor="start" x="1029" y="-223.4343" font-family="Roboto" font-size="8.00" fill="#000000"> </text>
<text text-anchor="start" x="1032" y="-223.4343" font-family="Roboto" font-size="8.00" fill="#000000">NumberVector</text>
<text text-anchor="start" x="1083" y="-223.4343" font-family="Roboto" font-size="8.00" fill="#000000"> </text>
<text text-anchor="start" x="1018" y="-212.4343" font-family="Roboto" font-size="8.00" fill="#000000"> </text>
<text text-anchor="start" x="1021" y="-212.4343" font-family="Roboto" font-size="7.00" fill="#000000">de.lmu.ifi.dbs.elki.data</text>
<text text-anchor="start" x="1094" y="-212.4343" font-family="Roboto" font-size="8.00" fill="#000000"> </text>
</a>
</g>
</a>
</g>
</g>
<!-- c9841708&#45;&gt;c9841722 -->
<g id="edge6" class="edge">
<title>c9841708&#45;&gt;c9841722</title>
<path fill="none" stroke="#000000" stroke-dasharray="5,2" d="M972.7352,-196.7461C986.0478,-201.1836 1000.2892,-205.9307 1013.2043,-210.2358"/>
<polygon fill="none" stroke="#000000" points="973.8317,-193.4223 963.238,-193.5803 971.618,-200.063 973.8317,-193.4223"/>
</g>
<!-- c9841724 -->
<g id="node11" class="node">
<title>c9841724</title>
<g id="a_node11"><a xlink:href="../HyperBoundingBox.html" xlink:title="&lt;TABLE&gt;">
<g id="a_node11_10"><a xlink:href="../HyperBoundingBox.html" xlink:title="de.lmu.ifi.dbs.elki.data.HyperBoundingBox" target="_parent">
<polygon fill="none" stroke="#000000" points="1014,-165.8343 1014,-193.8343 1101,-193.8343 1101,-165.8343 1014,-165.8343"/>
<text text-anchor="start" x="1020.5" y="-184.4343" font-family="Roboto" font-size="8.00" fill="#000000"> </text>
<text text-anchor="start" x="1023.5" y="-184.4343" font-family="Roboto" font-size="8.00" fill="#000000">HyperBoundingBox</text>
<text text-anchor="start" x="1091.5" y="-184.4343" font-family="Roboto" font-size="8.00" fill="#000000"> </text>
<text text-anchor="start" x="1018" y="-173.4343" font-family="Roboto" font-size="8.00" fill="#000000"> </text>
<text text-anchor="start" x="1021" y="-173.4343" font-family="Roboto" font-size="7.00" fill="#000000">de.lmu.ifi.dbs.elki.data</text>
<text text-anchor="start" x="1094" y="-173.4343" font-family="Roboto" font-size="8.00" fill="#000000"> </text>
</a>
</g>
</a>
</g>
</g>
<!-- c9841708&#45;&gt;c9841724 -->
<g id="edge7" class="edge">
<title>c9841708&#45;&gt;c9841724</title>
<path fill="none" stroke="#000000" stroke-dasharray="5,2" d="M973.5117,-179.8343C986.6004,-179.8343 1000.54,-179.8343 1013.2043,-179.8343"/>
<polygon fill="none" stroke="#000000" points="973.238,-176.3344 963.238,-179.8343 973.238,-183.3344 973.238,-176.3344"/>
</g>
<!-- c9841773 -->
<g id="node15" class="node">
<title>c9841773</title>
<g id="a_node15"><a xlink:href="PolygonsObject.html" xlink:title="&lt;TABLE&gt;">
<g id="a_node15_11"><a xlink:href="PolygonsObject.html" xlink:title="de.lmu.ifi.dbs.elki.data.spatial.PolygonsObject" target="_parent">
<polygon fill="none" stroke="#000000" points="1023,-254.8343 1023,-271.8343 1091,-271.8343 1091,-254.8343 1023,-254.8343"/>
<text text-anchor="start" x="1027" y="-262.4343" font-family="Roboto" font-size="8.00" fill="#000000"> </text>
<text text-anchor="start" x="1030" y="-262.4343" font-family="Roboto" font-size="8.00" fill="#000000">PolygonsObject</text>
<text text-anchor="start" x="1084" y="-262.4343" font-family="Roboto" font-size="8.00" fill="#000000"> </text>
</a>
</g>
</a>
</g>
</g>
<!-- c9841708&#45;&gt;c9841773 -->
<g id="edge11" class="edge">
<title>c9841708&#45;&gt;c9841773</title>
<path fill="none" stroke="#000000" stroke-dasharray="5,2" d="M935.5496,-202.6003C946.1731,-218.3871 962.4143,-238.5328 982,-249.8343 994.2758,-256.9178 1009.3922,-260.5257 1022.83,-262.3259"/>
<polygon fill="none" stroke="#000000" points="938.3133,-200.4271 929.961,-193.9088 932.4255,-204.213 938.3133,-200.4271"/>
</g>
<!-- c9843012 -->
<g id="node16" class="node">
<title>c9843012</title>
<g id="a_node16"><a xlink:href="../../index/preprocessed/knn/SpatialPair.html" xlink:title="&lt;TABLE&gt;">
<g id="a_node16_12"><a xlink:href="../../index/preprocessed/knn/SpatialPair.html" xlink:title="de.lmu.ifi.dbs.elki.index.preprocessed.knn.SpatialPair" target="_parent">
<polygon fill="none" stroke="#000000" points="982,-126.8343 982,-154.8343 1132,-154.8343 1132,-126.8343 982,-126.8343"/>
<text text-anchor="start" x="1034" y="-145.4343" font-family="Roboto" font-size="8.00" fill="#000000"> </text>
<text text-anchor="start" x="1037" y="-145.4343" font-family="Roboto" font-size="8.00" fill="#000000">SpatialPair</text>
<text text-anchor="start" x="1077" y="-145.4343" font-family="Roboto" font-size="8.00" fill="#000000"> </text>
<text text-anchor="start" x="986" y="-134.4343" font-family="Roboto" font-size="8.00" fill="#000000"> </text>
<text text-anchor="start" x="989" y="-134.4343" font-family="Roboto" font-size="7.00" fill="#000000">de.lmu.ifi.dbs.elki.index.preprocessed.knn</text>
<text text-anchor="start" x="1125" y="-134.4343" font-family="Roboto" font-size="8.00" fill="#000000"> </text>
</a>
</g>
</a>
</g>
</g>
<!-- c9841708&#45;&gt;c9843012 -->
<g id="edge13" class="edge">
<title>c9841708&#45;&gt;c9843012</title>
<path fill="none" stroke="#000000" stroke-dasharray="5,2" d="M958.3137,-162.3693C966.0955,-159.6907 974.2945,-157.0913 982,-154.8343 982.1289,-154.7966 982.2579,-154.7588 982.3871,-154.7211"/>
<polygon fill="none" stroke="#000000" points="956.9889,-159.1259 948.7483,-165.7848 959.3429,-165.7182 956.9889,-159.1259"/>
</g>
<!-- c9843158 -->
<g id="node19" class="node">
<title>c9843158</title>
<g id="a_node19"><a xlink:href="../../index/tree/spatial/SpatialEntry.html" xlink:title="&lt;TABLE&gt;">
<g id="a_node19_13"><a xlink:href="../../index/tree/spatial/SpatialEntry.html" xlink:title="de.lmu.ifi.dbs.elki.index.tree.spatial.SpatialEntry" target="_parent">
<polygon fill="none" stroke="#000000" points="993,-75.8343 993,-114.8343 1122,-114.8343 1122,-75.8343 993,-75.8343"/>
<text text-anchor="start" x="1036" y="-104.4343" font-family="Roboto" font-size="8.00" fill="#000000"> «interface» </text>
<text text-anchor="start" x="1033" y="-94.4343" font-family="Roboto" font-size="8.00" fill="#000000"> </text>
<text text-anchor="start" x="1036" y="-94.4343" font-family="Roboto" font-size="8.00" fill="#000000">SpatialEntry</text>
<text text-anchor="start" x="1079" y="-94.4343" font-family="Roboto" font-size="8.00" fill="#000000"> </text>
<text text-anchor="start" x="997" y="-83.4343" font-family="Roboto" font-size="8.00" fill="#000000"> </text>
<text text-anchor="start" x="1000" y="-83.4343" font-family="Roboto" font-size="7.00" fill="#000000">de.lmu.ifi.dbs.elki.index.tree.spatial</text>
<text text-anchor="start" x="1115" y="-83.4343" font-family="Roboto" font-size="8.00" fill="#000000"> </text>
</a>
</g>
</a>
</g>
</g>
<!-- c9841708&#45;&gt;c9843158 -->
<g id="edge16" class="edge">
<title>c9841708&#45;&gt;c9843158</title>
<path fill="none" stroke="#000000" stroke-dasharray="5,2" d="M939.6254,-158.1205C950.6749,-145.7201 965.8514,-130.7212 982,-120.8343 985.2776,-118.8277 988.7354,-116.9609 992.2948,-115.2274"/>
<polygon fill="none" stroke="#000000" points="936.871,-155.9552 932.9916,-165.8142 942.1725,-160.5263 936.871,-155.9552"/>
</g>
<!-- c9843720 -->
<g id="node21" class="node">
<title>c9843720</title>
<g id="a_node21"><a xlink:href="../uncertain/UncertainObject.html" xlink:title="&lt;TABLE&gt;">
<g id="a_node21_14"><a xlink:href="../uncertain/UncertainObject.html" xlink:title="de.lmu.ifi.dbs.elki.data.uncertain.UncertainObject" target="_parent">
<polygon fill="none" stroke="#000000" points="997,-25.8343 997,-64.8343 1117,-64.8343 1117,-25.8343 997,-25.8343"/>
<text text-anchor="start" x="1035.5" y="-54.4343" font-family="Roboto" font-size="8.00" fill="#000000"> «interface» </text>
<text text-anchor="start" x="1025" y="-44.4343" font-family="Roboto" font-size="8.00" fill="#000000"> </text>
<text text-anchor="start" x="1028" y="-44.4343" font-family="Roboto" font-size="8.00" fill="#000000">UncertainObject</text>
<text text-anchor="start" x="1086" y="-44.4343" font-family="Roboto" font-size="8.00" fill="#000000"> </text>
<text text-anchor="start" x="1001" y="-33.4343" font-family="Roboto" font-size="8.00" fill="#000000"> </text>
<text text-anchor="start" x="1004" y="-33.4343" font-family="Roboto" font-size="7.00" fill="#000000">de.lmu.ifi.dbs.elki.data.uncertain</text>
<text text-anchor="start" x="1110" y="-33.4343" font-family="Roboto" font-size="8.00" fill="#000000"> </text>
</a>
</g>
</a>
</g>
</g>
<!-- c9841708&#45;&gt;c9843720 -->
<g id="edge17" class="edge">
<title>c9841708&#45;&gt;c9843720</title>
<path fill="none" stroke="#000000" stroke-dasharray="5,2" d="M929.3324,-155.9409C938.0735,-131.2836 954.9911,-93.3389 982,-70.8343 986.4287,-67.1442 991.423,-63.992 996.678,-61.3005"/>
<polygon fill="none" stroke="#000000" points="925.9506,-155.017 926.0813,-165.611 932.5856,-157.2478 925.9506,-155.017"/>
</g>
<!-- c9841770 -->
<g id="node12" class="node">
<title>c9841770</title>
<g id="a_node12"><a xlink:href="SpatialSingleMaxComparator.html" xlink:title="&lt;TABLE&gt;">
<g id="a_node12_15"><a xlink:href="SpatialSingleMaxComparator.html" xlink:title="de.lmu.ifi.dbs.elki.data.spatial.SpatialSingleMaxComparator" target="_parent">
<polygon fill="none" stroke="#000000" points="692,-198.8343 692,-215.8343 810,-215.8343 810,-198.8343 692,-198.8343"/>
<text text-anchor="start" x="696" y="-206.4343" font-family="Roboto" font-size="8.00" fill="#000000"> </text>
<text text-anchor="start" x="699" y="-206.4343" font-family="Roboto" font-size="8.00" fill="#000000">SpatialSingleMaxComparator</text>
<text text-anchor="start" x="803" y="-206.4343" font-family="Roboto" font-size="8.00" fill="#000000"> </text>
</a>
</g>
</a>
</g>
</g>
<!-- c9841770&#45;&gt;c9841708 -->
<g id="edge8" class="edge">
<title>c9841770&#45;&gt;c9841708</title>
<path fill="none" stroke="#000000" d="M803.2348,-199.2812C828.1823,-195.1963 857.6064,-190.3783 880.9257,-186.5599"/>
</g>
<!-- c9841771 -->
<g id="node13" class="node">
<title>c9841771</title>
<g id="a_node13"><a xlink:href="SpatialSingleMinComparator.html" xlink:title="&lt;TABLE&gt;">
<g id="a_node13_16"><a xlink:href="SpatialSingleMinComparator.html" xlink:title="de.lmu.ifi.dbs.elki.data.spatial.SpatialSingleMinComparator" target="_parent">
<polygon fill="none" stroke="#000000" points="693,-170.8343 693,-187.8343 810,-187.8343 810,-170.8343 693,-170.8343"/>
<text text-anchor="start" x="697" y="-178.4343" font-family="Roboto" font-size="8.00" fill="#000000"> </text>
<text text-anchor="start" x="700" y="-178.4343" font-family="Roboto" font-size="8.00" fill="#000000">SpatialSingleMinComparator</text>
<text text-anchor="start" x="803" y="-178.4343" font-family="Roboto" font-size="8.00" fill="#000000"> </text>
</a>
</g>
</a>
</g>
</g>
<!-- c9841771&#45;&gt;c9841708 -->
<g id="edge9" class="edge">
<title>c9841771&#45;&gt;c9841708</title>
<path fill="none" stroke="#000000" d="M809.8485,-179.8343C833.2281,-179.8343 859.5617,-179.8343 880.8338,-179.8343"/>
</g>
<!-- c9841772 -->
<g id="node14" class="node">
<title>c9841772</title>
<g id="a_node14"><a xlink:href="SpatialSingleMeanComparator.html" xlink:title="&lt;TABLE&gt;">
<g id="a_node14_17"><a xlink:href="SpatialSingleMeanComparator.html" xlink:title="de.lmu.ifi.dbs.elki.data.spatial.SpatialSingleMeanComparator" target="_parent">
<polygon fill="none" stroke="#000000" points="690,-142.8343 690,-159.8343 813,-159.8343 813,-142.8343 690,-142.8343"/>
<text text-anchor="start" x="694" y="-150.4343" font-family="Roboto" font-size="8.00" fill="#000000"> </text>
<text text-anchor="start" x="697" y="-150.4343" font-family="Roboto" font-size="8.00" fill="#000000">SpatialSingleMeanComparator</text>
<text text-anchor="start" x="806" y="-150.4343" font-family="Roboto" font-size="8.00" fill="#000000"> </text>
</a>
</g>
</a>
</g>
</g>
<!-- c9841772&#45;&gt;c9841708 -->
<g id="edge10" class="edge">
<title>c9841772&#45;&gt;c9841708</title>
<path fill="none" stroke="#000000" d="M803.2348,-160.3874C828.1823,-164.4724 857.6064,-169.2903 880.9257,-173.1087"/>
</g>
<!-- c9841773&#45;&gt;c9841706 -->
<g id="edge12" class="edge">
<title>c9841773&#45;&gt;c9841706</title>
<path fill="none" stroke="#000000" d="M1103.0177,-271.6035C1131.7709,-276.458 1167.4416,-282.4803 1189.7184,-286.2413"/>
<polygon fill="none" stroke="#000000" points="1103.0101,-271.6023 1096.4279,-274.5476 1091.1776,-269.6046 1097.7598,-266.6593 1103.0101,-271.6023"/>
</g>
<!-- c9843012&#45;&gt;c9841708 -->
<g id="edge26" class="edge">
<title>c9843012&#45;&gt;c9841708</title>
<path fill="none" stroke="#000000" stroke-dasharray="5,2" d="M1021.7519,-154.838C1009.1545,-158.3335 994.8906,-162.0586 982,-165.8343 979.0396,-166.7014 976.0064,-167.619 972.952,-168.5578"/>
<polygon fill="#000000" stroke="#000000" points="963.1879,-171.5918 971.4022,-164.3271 967.9627,-170.1081 972.7375,-168.6244 972.7375,-168.6244 972.7375,-168.6244 967.9627,-170.1081 974.0728,-172.9217 963.1879,-171.5918 963.1879,-171.5918"/>
</g>
<!-- c9843071 -->
<g id="node17" class="node">
<title>c9843071</title>
<g id="a_node17"><a xlink:href="../../index/tree/spatial/rstarvariants/query/RStarTreeKNNQuery.html" xlink:title="&lt;TABLE&gt;">
<g id="a_node17_18"><a xlink:href="../../index/tree/spatial/rstarvariants/query/RStarTreeKNNQuery.html" xlink:title="de.lmu.ifi.dbs.elki.index.tree.spatial.rstarvariants.query.RStarTreeKNNQuery" target="_parent">
<polygon fill="none" stroke="#000000" points="315,-268.8343 315,-296.8343 507,-296.8343 507,-268.8343 315,-268.8343"/>
<text text-anchor="start" x="371" y="-287.4343" font-family="Roboto" font-size="8.00" fill="#000000"> </text>
<text text-anchor="start" x="374" y="-287.4343" font-family="Roboto" font-size="8.00" fill="#000000">RStarTreeKNNQuery</text>
<text text-anchor="start" x="448" y="-287.4343" font-family="Roboto" font-size="8.00" fill="#000000"> </text>
<text text-anchor="start" x="319" y="-276.4343" font-family="Roboto" font-size="8.00" fill="#000000"> </text>
<text text-anchor="start" x="322" y="-276.4343" font-family="Roboto" font-size="7.00" fill="#000000">de.lmu.ifi.dbs.elki.index.tree.spatial.rstarvariants.query</text>
<text text-anchor="start" x="500" y="-276.4343" font-family="Roboto" font-size="8.00" fill="#000000"> </text>
</a>
</g>
</a>
</g>
</g>
<!-- c9843071&#45;&gt;c9841665 -->
<g id="edge14" class="edge">
<title>c9843071&#45;&gt;c9841665</title>
<path fill="none" stroke="#000000" d="M507.067,-280.5739C559.1053,-279.3495 622.6223,-277.855 671.7954,-276.6979"/>
</g>
<!-- c9843071&#45;&gt;c9841708 -->
<g id="edge27" class="edge">
<title>c9843071&#45;&gt;c9841708</title>
<path fill="none" stroke="#000000" stroke-dasharray="5,2" d="M504.639,-296.884C610.3875,-310.9746 774.913,-327.0144 830,-299.8343 870.6437,-279.7806 898.3098,-232.1984 912.0174,-203.3382"/>
<polygon fill="#000000" stroke="#000000" points="916.2822,-193.9867 916.2271,-204.9524 914.2075,-198.5359 912.1328,-203.0852 912.1328,-203.0852 912.1328,-203.0852 914.2075,-198.5359 908.0385,-201.2179 916.2822,-193.9867 916.2822,-193.9867"/>
</g>
<!-- c9843073 -->
<g id="node18" class="node">
<title>c9843073</title>
<g id="a_node18"><a xlink:href="../../index/tree/spatial/rstarvariants/query/RStarTreeRangeQuery.html" xlink:title="&lt;TABLE&gt;">
<g id="a_node18_19"><a xlink:href="../../index/tree/spatial/rstarvariants/query/RStarTreeRangeQuery.html" xlink:title="de.lmu.ifi.dbs.elki.index.tree.spatial.rstarvariants.query.RStarTreeRangeQuery" target="_parent">
<polygon fill="none" stroke="#000000" points="315,-229.8343 315,-257.8343 507,-257.8343 507,-229.8343 315,-229.8343"/>
<text text-anchor="start" x="368.5" y="-248.4343" font-family="Roboto" font-size="8.00" fill="#000000"> </text>
<text text-anchor="start" x="371.5" y="-248.4343" font-family="Roboto" font-size="8.00" fill="#000000">RStarTreeRangeQuery</text>
<text text-anchor="start" x="450.5" y="-248.4343" font-family="Roboto" font-size="8.00" fill="#000000"> </text>
<text text-anchor="start" x="319" y="-237.4343" font-family="Roboto" font-size="8.00" fill="#000000"> </text>
<text text-anchor="start" x="322" y="-237.4343" font-family="Roboto" font-size="7.00" fill="#000000">de.lmu.ifi.dbs.elki.index.tree.spatial.rstarvariants.query</text>
<text text-anchor="start" x="500" y="-237.4343" font-family="Roboto" font-size="8.00" fill="#000000"> </text>
</a>
</g>
</a>
</g>
</g>
<!-- c9843073&#45;&gt;c9841665 -->
<g id="edge15" class="edge">
<title>c9843073&#45;&gt;c9841665</title>
<path fill="none" stroke="#000000" d="M507.067,-252.5934C559.1053,-257.338 622.6223,-263.1293 671.7954,-267.6127"/>
</g>
<!-- c9843073&#45;&gt;c9841708 -->
<g id="edge28" class="edge">
<title>c9843073&#45;&gt;c9841708</title>
<path fill="none" stroke="#000000" stroke-dasharray="5,2" d="M444.5742,-229.7989C512.3691,-201.5133 660.195,-140.14 672,-137.8343 740.9199,-124.373 761.3816,-122.9121 830,-137.8343 850.7009,-142.3361 872.3251,-151.9241 889.4039,-160.8039"/>
<polygon fill="#000000" stroke="#000000" points="898.3897,-165.6275 887.4505,-164.8627 893.9843,-163.2626 889.5789,-160.8978 889.5789,-160.8978 889.5789,-160.8978 893.9843,-163.2626 891.7072,-156.9329 898.3897,-165.6275 898.3897,-165.6275"/>
</g>
<!-- c9843635 -->
<g id="node20" class="node">
<title>c9843635</title>
<g id="a_node20"><a xlink:href="../../algorithm/outlier/lof/VarianceOfVolume.html" xlink:title="&lt;TABLE&gt;">
<g id="a_node20_20"><a xlink:href="../../algorithm/outlier/lof/VarianceOfVolume.html" xlink:title="de.lmu.ifi.dbs.elki.algorithm.outlier.lof.VarianceOfVolume" target="_parent">
<polygon fill="none" stroke="#000000" points="6,-174.8343 6,-202.8343 144,-202.8343 144,-174.8343 6,-174.8343"/>
<text text-anchor="start" x="38.5" y="-193.4343" font-family="Roboto" font-size="8.00" fill="#000000"> </text>
<text text-anchor="start" x="41.5" y="-193.4343" font-family="Roboto" font-size="8.00" fill="#000000">VarianceOfVolume</text>
<text text-anchor="start" x="108.5" y="-193.4343" font-family="Roboto" font-size="8.00" fill="#000000"> </text>
<text text-anchor="start" x="10" y="-182.4343" font-family="Roboto" font-size="8.00" fill="#000000"> </text>
<text text-anchor="start" x="13" y="-182.4343" font-family="Roboto" font-size="7.00" fill="#000000">de.lmu.ifi.dbs.elki.algorithm.outlier.lof</text>
<text text-anchor="start" x="137" y="-182.4343" font-family="Roboto" font-size="8.00" fill="#000000"> </text>
</a>
</g>
</a>
</g>
</g>
<!-- c9843635&#45;&gt;c9841708 -->
<g id="edge29" class="edge">
<title>c9843635&#45;&gt;c9841708</title>
<path fill="none" stroke="#000000" stroke-dasharray="5,2" d="M125.0659,-174.8242C206.3108,-152.8744 372.2684,-111.2907 516,-95.8343 584.9373,-88.4211 602.6656,-95.0565 672,-94.8343 760.9429,-94.5492 797.7465,-52.8718 872,-101.8343 891.7147,-114.8341 905.2615,-138.5766 913.2309,-156.4648"/>
<polygon fill="#000000" stroke="#000000" points="917.0883,-165.695 909.0803,-158.2035 915.1603,-161.0817 913.2323,-156.4683 913.2323,-156.4683 913.2323,-156.4683 915.1603,-161.0817 917.3843,-154.7331 917.0883,-165.695 917.0883,-165.695"/>
</g>
<!-- c9843723 -->
<g id="node22" class="node">
<title>c9843723</title>
<g id="a_node22"><a xlink:href="../uncertain/AbstractUncertainObject.html" xlink:title="&lt;TABLE&gt;">
<g id="a_node22_21"><a xlink:href="../uncertain/AbstractUncertainObject.html" xlink:title="de.lmu.ifi.dbs.elki.data.uncertain.AbstractUncertainObject" target="_parent">
<polygon fill="none" stroke="#000000" points="1151,-31.8343 1151,-59.8343 1271,-59.8343 1271,-31.8343 1151,-31.8343"/>
<text text-anchor="start" x="1165.5" y="-50.4343" font-family="Roboto" font-size="8.00" fill="#000000"> </text>
<text text-anchor="start" x="1168.5" y="-50.4343" font-family="Roboto" font-style="italic" font-size="8.00" fill="#000000">AbstractUncertainObject</text>
<text text-anchor="start" x="1253.5" y="-50.4343" font-family="Roboto" font-size="8.00" fill="#000000"> </text>
<text text-anchor="start" x="1155" y="-39.4343" font-family="Roboto" font-size="8.00" fill="#000000"> </text>
<text text-anchor="start" x="1158" y="-39.4343" font-family="Roboto" font-size="7.00" fill="#000000">de.lmu.ifi.dbs.elki.data.uncertain</text>
<text text-anchor="start" x="1264" y="-39.4343" font-family="Roboto" font-size="8.00" fill="#000000"> </text>
</a>
</g>
</a>
</g>
</g>
<!-- c9843720&#45;&gt;c9843723 -->
<g id="edge18" class="edge">
<title>c9843720&#45;&gt;c9843723</title>
<path fill="none" stroke="#000000" stroke-dasharray="5,2" d="M1127.5401,-45.8343C1135.2951,-45.8343 1143.138,-45.8343 1150.7514,-45.8343"/>
<polygon fill="none" stroke="#000000" points="1127.4229,-42.3344 1117.4229,-45.8343 1127.4228,-49.3344 1127.4229,-42.3344"/>
</g>
<!-- c9843723&#45;&gt;c9841708 -->
<g id="edge19" class="edge">
<title>c9843723&#45;&gt;c9841708</title>
<path fill="none" stroke="#000000" d="M1182.7218,-31.7592C1136.3478,-10.8948 1043.1845,21.4731 982,-20.8343 959.1105,-36.6618 937.3749,-115.5001 927.5216,-155.8915"/>
<polygon fill="#000000" stroke="#000000" points="925.1724,-165.7264 923.1189,-154.9545 926.3341,-160.8632 927.4957,-156 927.4957,-156 927.4957,-156 926.3341,-160.8632 931.8726,-157.0455 925.1724,-165.7264 925.1724,-165.7264"/>
</g>
</g>
</svg>
