<?xml version="1.0" encoding="UTF-8" standalone="no"?>
<!DOCTYPE svg PUBLIC "-//W3C//DTD SVG 1.1//EN"
 "http://www.w3.org/Graphics/SVG/1.1/DTD/svg11.dtd">
<!-- Generated by graphviz version 2.40.1 (20161225.0304)
 -->
<!-- Title: G Pages: 1 -->
<svg width="231pt" height="36pt"
 viewBox="0.00 0.00 231.00 36.00" xmlns="http://www.w3.org/2000/svg" xmlns:xlink="http://www.w3.org/1999/xlink">
<g id="graph0" class="graph" transform="scale(1 1) rotate(0) translate(4 32)">
<title>G</title>
<polygon fill="#ffffff" stroke="transparent" points="-4,4 -4,-32 227,-32 227,4 -4,4"/>
<!-- c9880072 -->
<g id="node1" class="node">
<title>c9880072</title>
<g id="a_node1"><a xlink:href="SpatialComparable.html" xlink:title="&lt;TABLE&gt;">
<g id="a_node1_0"><a xlink:href="SpatialComparable.html" xlink:title="de.lmu.ifi.dbs.elki.data.spatial.SpatialComparable" target="_parent">
<polygon fill="#fffacd" stroke="transparent" points="141,0 141,-28 223,-28 223,0 141,0"/>
<polygon fill="none" stroke="#000000" points="141,0 141,-28 223,-28 223,0 141,0"/>
<text text-anchor="start" x="160.5" y="-17.6" font-family="Roboto" font-size="8.00" fill="#000000"> «interface» </text>
<text text-anchor="start" x="145" y="-7.6" font-family="Roboto" font-size="8.00" fill="#000000"> </text>
<text text-anchor="start" x="148" y="-7.6" font-family="Roboto" font-size="8.00" fill="#000000">SpatialComparable</text>
<text text-anchor="start" x="216" y="-7.6" font-family="Roboto" font-size="8.00" fill="#000000"> </text>
</a>
</g>
</a>
</g>
</g>
<!-- c9880136 -->
<g id="node2" class="node">
<title>c9880136</title>
<g id="a_node2"><a xlink:href="SpatialSingleMeanComparator.html" xlink:title="&lt;TABLE&gt;">
<g id="a_node2_1"><a xlink:href="SpatialSingleMeanComparator.html" xlink:title="de.lmu.ifi.dbs.elki.data.spatial.SpatialSingleMeanComparator" target="_parent">
<polygon fill="#fffacd" stroke="transparent" points="0,-5.5 0,-22.5 123,-22.5 123,-5.5 0,-5.5"/>
<polygon fill="none" stroke="#000000" points=".5,-5 .5,-22 123.5,-22 123.5,-5 .5,-5"/>
<text text-anchor="start" x="4.5" y="-12.6" font-family="Roboto" font-size="8.00" fill="#000000"> </text>
<text text-anchor="start" x="7.5" y="-12.6" font-family="Roboto" font-size="8.00" fill="#000000">SpatialSingleMeanComparator</text>
<text text-anchor="start" x="116.5" y="-12.6" font-family="Roboto" font-size="8.00" fill="#000000"> </text>
</a>
</g>
</a>
</g>
</g>
<!-- c9880136&#45;&gt;c9880072 -->
<g id="edge1" class="edge">
<title>c9880136&#45;&gt;c9880072</title>
<path fill="none" stroke="#000000" d="M123.162,-14C129.1841,-14 135.1873,-14 140.9309,-14"/>
</g>
</g>
</svg>
