<?xml version="1.0" encoding="UTF-8" standalone="no"?>
<!DOCTYPE svg PUBLIC "-//W3C//DTD SVG 1.1//EN"
 "http://www.w3.org/Graphics/SVG/1.1/DTD/svg11.dtd">
<!-- Generated by graphviz version 2.40.1 (20161225.0304)
 -->
<!-- Title: G Pages: 1 -->
<svg width="231pt" height="75pt"
 viewBox="0.00 0.00 231.00 75.00" xmlns="http://www.w3.org/2000/svg" xmlns:xlink="http://www.w3.org/1999/xlink">
<g id="graph0" class="graph" transform="scale(1 1) rotate(0) translate(4 71)">
<title>G</title>
<polygon fill="#ffffff" stroke="transparent" points="-4,4 -4,-71 227,-71 227,4 -4,4"/>
<!-- c9896057 -->
<g id="node1" class="node">
<title>c9896057</title>
<g id="a_node1"><a xlink:href="SpatialUtil.html" xlink:title="&lt;TABLE&gt;">
<g id="a_node1_0"><a xlink:href="SpatialUtil.html" xlink:title="de.lmu.ifi.dbs.elki.data.spatial.SpatialUtil" target="_parent">
<polygon fill="#fffacd" stroke="transparent" points="0,-5.5 0,-22.5 52,-22.5 52,-5.5 0,-5.5"/>
<polygon fill="none" stroke="#000000" points="0,-5 0,-22 52,-22 52,-5 0,-5"/>
<text text-anchor="start" x="4" y="-12.6" font-family="Roboto" font-size="8.00" fill="#000000"> </text>
<text text-anchor="start" x="7" y="-12.6" font-family="Roboto" font-size="8.00" fill="#000000">SpatialUtil</text>
<text text-anchor="start" x="45" y="-12.6" font-family="Roboto" font-size="8.00" fill="#000000"> </text>
</a>
</g>
</a>
</g>
</g>
<!-- c9896058 -->
<g id="node2" class="node">
<title>c9896058</title>
<g id="a_node2"><a xlink:href="SpatialComparable.html" xlink:title="&lt;TABLE&gt;">
<g id="a_node2_1"><a xlink:href="SpatialComparable.html" xlink:title="de.lmu.ifi.dbs.elki.data.spatial.SpatialComparable" target="_parent">
<polygon fill="#fffacd" stroke="transparent" points="122,-39 122,-67 204,-67 204,-39 122,-39"/>
<polygon fill="none" stroke="#000000" points="122,-39 122,-67 204,-67 204,-39 122,-39"/>
<text text-anchor="start" x="141.5" y="-56.6" font-family="Roboto" font-size="8.00" fill="#000000"> «interface» </text>
<text text-anchor="start" x="126" y="-46.6" font-family="Roboto" font-size="8.00" fill="#000000"> </text>
<text text-anchor="start" x="129" y="-46.6" font-family="Roboto" font-size="8.00" fill="#000000">SpatialComparable</text>
<text text-anchor="start" x="197" y="-46.6" font-family="Roboto" font-size="8.00" fill="#000000"> </text>
</a>
</g>
</a>
</g>
</g>
<!-- c9896057&#45;&gt;c9896058 -->
<g id="edge2" class="edge">
<title>c9896057&#45;&gt;c9896058</title>
<path fill="none" stroke="#000000" d="M52.3722,-21.5389C55.2833,-22.3699 58.2043,-23.2032 61,-24 77.5681,-28.7221 95.6527,-33.867 111.9314,-38.4945"/>
<polygon fill="#000000" stroke="#000000" points="121.8041,-41.3006 110.9548,-42.8951 116.9946,-39.9335 112.1851,-38.5665 112.1851,-38.5665 112.1851,-38.5665 116.9946,-39.9335 113.4154,-34.238 121.8041,-41.3006 121.8041,-41.3006"/>
<text text-anchor="middle" x="77.5" y="-34.4" font-family="Roboto" font-size="7.00" fill="#000000">compares</text>
</g>
<!-- c9896059 -->
<g id="node3" class="node">
<title>c9896059</title>
<g id="a_node3"><a xlink:href="../ModifiableHyperBoundingBox.html" xlink:title="&lt;TABLE&gt;">
<g id="a_node3_2"><a xlink:href="../ModifiableHyperBoundingBox.html" xlink:title="de.lmu.ifi.dbs.elki.data.ModifiableHyperBoundingBox" target="_parent">
<polygon fill="none" stroke="#000000" points="103,0 103,-28 223,-28 223,0 103,0"/>
<text text-anchor="start" x="107" y="-18.6" font-family="Roboto" font-size="8.00" fill="#000000"> </text>
<text text-anchor="start" x="110" y="-18.6" font-family="Roboto" font-size="8.00" fill="#000000">ModifiableHyperBoundingBox</text>
<text text-anchor="start" x="216" y="-18.6" font-family="Roboto" font-size="8.00" fill="#000000"> </text>
<text text-anchor="start" x="123.5" y="-7.6" font-family="Roboto" font-size="8.00" fill="#000000"> </text>
<text text-anchor="start" x="126.5" y="-7.6" font-family="Roboto" font-size="7.00" fill="#000000">de.lmu.ifi.dbs.elki.data</text>
<text text-anchor="start" x="199.5" y="-7.6" font-family="Roboto" font-size="8.00" fill="#000000"> </text>
</a>
</g>
</a>
</g>
</g>
<!-- c9896057&#45;&gt;c9896059 -->
<g id="edge1" class="edge">
<title>c9896057&#45;&gt;c9896059</title>
<path fill="none" stroke="#000000" d="M64.3834,-14C73.2651,-14 82.9903,-14 92.7626,-14"/>
<polygon fill="none" stroke="#000000" points="64.0911,-14.0001 58.0911,-18 52.0911,-14 58.0912,-10 64.0911,-14.0001"/>
<polygon fill="#000000" stroke="#000000" points="102.93,-14 92.9301,-18.5001 97.93,-14 92.93,-14.0001 92.93,-14.0001 92.93,-14.0001 97.93,-14 92.93,-9.5001 102.93,-14 102.93,-14"/>
<text text-anchor="middle" x="77.5" y="-16.4" font-family="Roboto" font-size="7.00" fill="#000000">creates</text>
</g>
</g>
</svg>
