<?xml version="1.0" encoding="UTF-8" standalone="no"?><svg xmlns="http://www.w3.org/2000/svg" xmlns:xlink="http://www.w3.org/1999/xlink" contentStyleType="text/css" height="444px" preserveAspectRatio="none" style="width:348px;height:444px;background:#FFFFFF;" version="1.1" viewBox="0 0 348 444" width="348px" zoomAndPan="magnify"><defs/><g><!--MD5=[9f3337deafa9db46252a1bdba83f3f68]
class elki.database.ids.EmptyDBIDs--><a href="EmptyDBIDs.html" target="_top" title="EmptyDBIDs.html" xlink:actuate="onRequest" xlink:href="EmptyDBIDs.html" xlink:show="new" xlink:title="EmptyDBIDs.html" xlink:type="simple"><g id="elem_elki.database.ids.EmptyDBIDs"><rect codeLine="6" fill="#F1F1F1" height="216.9063" id="elki.database.ids.EmptyDBIDs" rx="2.5" ry="2.5" style="stroke:#181818;stroke-width:0.5;" width="334" x="7" y="105"/><ellipse cx="126.75" cy="123.9688" fill="#ADD1B2" rx="11" ry="11" style="stroke:#181818;stroke-width:1.0;"/><path d="M129.7188,129.6094 Q129.1406,129.9063 128.5,130.0469 Q127.8594,130.2031 127.1563,130.2031 Q124.6563,130.2031 123.3281,128.5625 Q122.0156,126.9063 122.0156,123.7813 Q122.0156,120.6563 123.3281,119 Q124.6563,117.3438 127.1563,117.3438 Q127.8594,117.3438 128.5,117.5 Q129.1563,117.6563 129.7188,117.9531 L129.7188,120.6719 Q129.0938,120.0938 128.5,119.8281 Q127.9063,119.5469 127.2813,119.5469 Q125.9375,119.5469 125.25,120.625 Q124.5625,121.6875 124.5625,123.7813 Q124.5625,125.875 125.25,126.9531 Q125.9375,128.0156 127.2813,128.0156 Q127.9063,128.0156 128.5,127.75 Q129.0938,127.4688 129.7188,126.8906 L129.7188,129.6094 Z " fill="#000000"/><text fill="#000000" font-family="sans-serif" font-size="14" lengthAdjust="spacing" textLength="86" x="147.25" y="122.9951">EmptyDBIDs</text><text fill="#000000" font-family="sans-serif" font-size="10" lengthAdjust="spacing" textLength="79" x="150.75" y="135.5791">elki.database.ids</text><line style="stroke:#181818;stroke-width:0.5;" x1="8" x2="340" y1="142.9375" y2="142.9375"/><ellipse cx="18" cy="156.5859" fill="none" rx="3" ry="3" style="stroke:#038048;stroke-width:1.0;"/><text fill="#000000" font-family="sans-serif" font-size="14" lengthAdjust="spacing" text-decoration="underline" textLength="261" x="27" y="159.9326">EMPTY_ITERATOR: EmptyDBIDIterator</text><line style="stroke:#181818;stroke-width:0.5;" x1="8" x2="340" y1="167.2344" y2="167.2344"/><ellipse cx="18" cy="180.8828" fill="#84BE84" rx="3" ry="3" style="stroke:#038048;stroke-width:1.0;"/><text fill="#000000" font-family="sans-serif" font-size="14" lengthAdjust="spacing" textLength="192" x="27" y="184.2295">contains(DBIDRef): boolean</text><ellipse cx="18" cy="197.1797" fill="#84BE84" rx="3" ry="3" style="stroke:#038048;stroke-width:1.0;"/><text fill="#000000" font-family="sans-serif" font-size="14" lengthAdjust="spacing" textLength="64" x="27" y="200.5264">size(): int</text><ellipse cx="18" cy="213.4766" fill="#84BE84" rx="3" ry="3" style="stroke:#038048;stroke-width:1.0;"/><text fill="#000000" font-family="sans-serif" font-size="14" lengthAdjust="spacing" textLength="129" x="27" y="216.8232">isEmpty(): boolean</text><ellipse cx="18" cy="229.7734" fill="#84BE84" rx="3" ry="3" style="stroke:#038048;stroke-width:1.0;"/><text fill="#000000" font-family="sans-serif" font-size="14" lengthAdjust="spacing" textLength="94" x="27" y="233.1201">get(int): DBID</text><ellipse cx="18" cy="246.0703" fill="#84BE84" rx="3" ry="3" style="stroke:#038048;stroke-width:1.0;"/><text fill="#000000" font-family="sans-serif" font-size="14" lengthAdjust="spacing" textLength="225" x="27" y="249.417">assignVar(int, DBIDVar): DBIDVar</text><ellipse cx="18" cy="262.3672" fill="#84BE84" rx="3" ry="3" style="stroke:#038048;stroke-width:1.0;"/><text fill="#000000" font-family="sans-serif" font-size="14" lengthAdjust="spacing" textLength="144" x="27" y="265.7139">iter(): DBIDArrayMIter</text><ellipse cx="18" cy="278.6641" fill="#84BE84" rx="3" ry="3" style="stroke:#038048;stroke-width:1.0;"/><text fill="#000000" font-family="sans-serif" font-size="14" lengthAdjust="spacing" textLength="183" x="27" y="282.0107">binarySearch(DBIDRef): int</text><ellipse cx="18" cy="294.9609" fill="#84BE84" rx="3" ry="3" style="stroke:#038048;stroke-width:1.0;"/><text fill="#000000" font-family="sans-serif" font-size="14" lengthAdjust="spacing" textLength="169" x="27" y="298.3076">slice(int, int): ArrayDBIDs</text><ellipse cx="18" cy="311.2578" fill="#84BE84" rx="3" ry="3" style="stroke:#038048;stroke-width:1.0;"/><text fill="#000000" font-family="sans-serif" font-size="14" lengthAdjust="spacing" textLength="308" x="27" y="314.6045">forEach(Consumer&lt;? super DBIDRef&gt;): void</text></g></a><!--MD5=[3f209ad9c43bcbf93ef370e8f7c4616e]
class elki.database.ids.ArrayStaticDBIDs--><a href="ArrayStaticDBIDs.html" target="_top" title="ArrayStaticDBIDs.html" xlink:actuate="onRequest" xlink:href="ArrayStaticDBIDs.html" xlink:show="new" xlink:title="ArrayStaticDBIDs.html" xlink:type="simple"><g id="elem_elki.database.ids.ArrayStaticDBIDs"><rect codeLine="19" fill="#F1F1F1" height="37.9375" id="elki.database.ids.ArrayStaticDBIDs" rx="2.5" ry="2.5" style="stroke:#181818;stroke-width:0.5;" width="152" x="14" y="7"/><ellipse cx="29" cy="25.9688" fill="#B4A7E5" rx="11" ry="11" style="stroke:#181818;stroke-width:1.0;"/><path d="M24.9219,21.7344 L24.9219,19.5781 L32.3125,19.5781 L32.3125,21.7344 L29.8438,21.7344 L29.8438,29.8125 L32.3125,29.8125 L32.3125,31.9688 L24.9219,31.9688 L24.9219,29.8125 L27.3906,29.8125 L27.3906,21.7344 L24.9219,21.7344 Z " fill="#000000"/><text fill="#000000" font-family="sans-serif" font-size="14" font-style="italic" lengthAdjust="spacing" textLength="120" x="43" y="24.9951">ArrayStaticDBIDs</text><text fill="#000000" font-family="sans-serif" font-size="10" font-style="italic" lengthAdjust="spacing" textLength="83" x="61.5" y="37.5791">elki.database.ids</text></g></a><!--MD5=[64fb8f1c068d35f1735c6fa363479295]
class elki.database.ids.SetDBIDs--><a href="SetDBIDs.html" target="_top" title="SetDBIDs.html" xlink:actuate="onRequest" xlink:href="SetDBIDs.html" xlink:show="new" xlink:title="SetDBIDs.html" xlink:type="simple"><g id="elem_elki.database.ids.SetDBIDs"><rect codeLine="20" fill="#F1F1F1" height="37.9375" id="elki.database.ids.SetDBIDs" rx="2.5" ry="2.5" style="stroke:#181818;stroke-width:0.5;" width="115" x="201.5" y="7"/><ellipse cx="216.5" cy="25.9688" fill="#B4A7E5" rx="11" ry="11" style="stroke:#181818;stroke-width:1.0;"/><path d="M212.4219,21.7344 L212.4219,19.5781 L219.8125,19.5781 L219.8125,21.7344 L217.3438,21.7344 L217.3438,29.8125 L219.8125,29.8125 L219.8125,31.9688 L212.4219,31.9688 L212.4219,29.8125 L214.8906,29.8125 L214.8906,21.7344 L212.4219,21.7344 Z " fill="#000000"/><text fill="#000000" font-family="sans-serif" font-size="14" font-style="italic" lengthAdjust="spacing" textLength="66" x="239" y="24.9951">SetDBIDs</text><text fill="#000000" font-family="sans-serif" font-size="10" font-style="italic" lengthAdjust="spacing" textLength="83" x="230.5" y="37.5791">elki.database.ids</text></g></a><!--MD5=[c804f05253a66628c291d28c481779a9]
class elki.database.ids.EmptyDBIDs.EmptyDBIDIterator--><a href="EmptyDBIDs.EmptyDBIDIterator.html" target="_top" title="EmptyDBIDs.EmptyDBIDIterator.html" xlink:actuate="onRequest" xlink:href="EmptyDBIDs.EmptyDBIDIterator.html" xlink:show="new" xlink:title="EmptyDBIDs.EmptyDBIDIterator.html" xlink:type="simple"><g id="elem_elki.database.ids.EmptyDBIDs.EmptyDBIDIterator"><rect codeLine="21" fill="#F1F1F1" height="37.9375" id="elki.database.ids.EmptyDBIDs.EmptyDBIDIterator" rx="2.5" ry="2.5" style="stroke:#181818;stroke-width:0.5;" width="249" x="49.5" y="382"/><ellipse cx="64.5" cy="400.9688" fill="#ADD1B2" rx="11" ry="11" style="stroke:#181818;stroke-width:1.0;"/><path d="M67.4688,406.6094 Q66.8906,406.9063 66.25,407.0469 Q65.6094,407.2031 64.9063,407.2031 Q62.4063,407.2031 61.0781,405.5625 Q59.7656,403.9063 59.7656,400.7813 Q59.7656,397.6563 61.0781,396 Q62.4063,394.3438 64.9063,394.3438 Q65.6094,394.3438 66.25,394.5 Q66.9063,394.6563 67.4688,394.9531 L67.4688,397.6719 Q66.8438,397.0938 66.25,396.8281 Q65.6563,396.5469 65.0313,396.5469 Q63.6875,396.5469 63,397.625 Q62.3125,398.6875 62.3125,400.7813 Q62.3125,402.875 63,403.9531 Q63.6875,405.0156 65.0313,405.0156 Q65.6563,405.0156 66.25,404.75 Q66.8438,404.4688 67.4688,403.8906 L67.4688,406.6094 Z " fill="#000000"/><text fill="#000000" font-family="sans-serif" font-size="14" lengthAdjust="spacing" textLength="217" x="78.5" y="399.9951">EmptyDBIDs.EmptyDBIDIterator</text><text fill="#000000" font-family="sans-serif" font-size="10" lengthAdjust="spacing" textLength="79" x="147.5" y="412.5791">elki.database.ids</text></g></a><!--MD5=[36f85c8fc65312abf33e1792748a6376]
reverse link elki.database.ids.ArrayStaticDBIDs to elki.database.ids.EmptyDBIDs--><g id="link_elki.database.ids.ArrayStaticDBIDs_elki.database.ids.EmptyDBIDs"><path codeLine="23" d="M106.47,63.38 C111.99,75.56 118.45,89.83 125.15,104.63 " fill="none" id="elki.database.ids.ArrayStaticDBIDs-backto-elki.database.ids.EmptyDBIDs" style="stroke:#181818;stroke-width:1.0;stroke-dasharray:7.0,7.0;"/><polygon fill="none" points="100.08,66.23,98.21,45.12,112.83,60.46,100.08,66.23" style="stroke:#181818;stroke-width:1.0;"/></g><!--MD5=[4a4d4a0a83629156c2d8073f93d210e0]
reverse link elki.database.ids.SetDBIDs to elki.database.ids.EmptyDBIDs--><g id="link_elki.database.ids.SetDBIDs_elki.database.ids.EmptyDBIDs"><path codeLine="24" d="M242.33,63.38 C236.75,75.56 230.21,89.83 223.43,104.63 " fill="none" id="elki.database.ids.SetDBIDs-backto-elki.database.ids.EmptyDBIDs" style="stroke:#181818;stroke-width:1.0;stroke-dasharray:7.0,7.0;"/><polygon fill="none" points="236,60.39,250.7,45.12,248.73,66.22,236,60.39" style="stroke:#181818;stroke-width:1.0;"/></g><!--MD5=[d16a1b39a7f8d627c5d3d83e395f7b7a]
reverse link elki.database.ids.EmptyDBIDs to elki.database.ids.EmptyDBIDs.EmptyDBIDIterator--><g id="link_elki.database.ids.EmptyDBIDs_elki.database.ids.EmptyDBIDs.EmptyDBIDIterator"><path codeLine="25" d="M174,337.36 C174,354.71 174,370.47 174,381.85 " fill="none" id="elki.database.ids.EmptyDBIDs-backto-elki.database.ids.EmptyDBIDs.EmptyDBIDIterator" style="stroke:#181818;stroke-width:1.0;"/><ellipse cx="174" cy="330.14" fill="#FFFFFF" rx="8" ry="8" style="stroke:#181818;stroke-width:1.0;"/><line style="stroke:#181818;stroke-width:1.0;" x1="174" x2="174" y1="338.14" y2="322.14"/><line style="stroke:#181818;stroke-width:1.0;" x1="166" x2="182" y1="330.14" y2="330.14"/></g><rect fill="none" height="11.6406" style="stroke:none;stroke-width:1.0;" width="186" x="74" y="424.9375"/><text fill="#888888" font-family="sans-serif" font-size="10" lengthAdjust="spacing" textLength="186" x="74" y="434.2197">UMLDoclet 2.0.19, PlantUML 1.2022.8</text><!--MD5=[2c8d8b6a56857fb993704993160de409]
@startuml
    remove .*\.(Instance|Par|Parameterizer|Factory)$
    set namespaceSeparator none
    hide empty fields
    hide empty methods

    class "<size:14>EmptyDBIDs\n<size:10>elki.database.ids" as elki.database.ids.EmptyDBIDs [[EmptyDBIDs.html]] {
        {static} +EMPTY_ITERATOR: EmptyDBIDIterator
        +contains(DBIDRef): boolean
        +size(): int
        +isEmpty(): boolean
        +get(int): DBID
        +assignVar(int, DBIDVar): DBIDVar
        +iter(): DBIDArrayMIter
        +binarySearch(DBIDRef): int
        +slice(int, int): ArrayDBIDs
        +forEach(Consumer<? super DBIDRef>): void
    }

    interface "<size:14>ArrayStaticDBIDs\n<size:10>elki.database.ids" as elki.database.ids.ArrayStaticDBIDs [[ArrayStaticDBIDs.html]]
    interface "<size:14>SetDBIDs\n<size:10>elki.database.ids" as elki.database.ids.SetDBIDs [[SetDBIDs.html]]
    class "<size:14>EmptyDBIDs.EmptyDBIDIterator\n<size:10>elki.database.ids" as elki.database.ids.EmptyDBIDs.EmptyDBIDIterator [[EmptyDBIDs.EmptyDBIDIterator.html]]

    elki.database.ids.ArrayStaticDBIDs <|.. elki.database.ids.EmptyDBIDs
    elki.database.ids.SetDBIDs <|.. elki.database.ids.EmptyDBIDs
    elki.database.ids.EmptyDBIDs +- - elki.database.ids.EmptyDBIDs.EmptyDBIDIterator

    center footer UMLDoclet 2.0.19, PlantUML 1.2022.8
@enduml

PlantUML version 1.2022.8(Sun Sep 25 11:00:33 CEST 2022)
(APACHE source distribution)
Java Runtime: OpenJDK Runtime Environment
JVM: OpenJDK 64-Bit Server VM
Default Encoding: UTF-8
Language: de
Country: DE
--></g></svg>