<?xml version="1.0" encoding="UTF-8" standalone="no"?>
<!DOCTYPE svg PUBLIC "-//W3C//DTD SVG 1.1//EN"
 "http://www.w3.org/Graphics/SVG/1.1/DTD/svg11.dtd">
<!-- Generated by graphviz version 2.40.1 (20161225.0304)
 -->
<!-- Title: G Pages: 1 -->
<svg width="379pt" height="126pt"
 viewBox="0.00 0.00 379.00 125.50" xmlns="http://www.w3.org/2000/svg" xmlns:xlink="http://www.w3.org/1999/xlink">
<g id="graph0" class="graph" transform="scale(1 1) rotate(0) translate(4 121.5)">
<title>G</title>
<polygon fill="#ffffff" stroke="transparent" points="-4,4 -4,-121.5 375,-121.5 375,4 -4,4"/>
<!-- c7590405 -->
<g id="node1" class="node">
<title>c7590405</title>
<g id="a_node1"><a xlink:href="../AbstractProjectedClustering.html" xlink:title="&lt;TABLE&gt;">
<g id="a_node1_0"><a xlink:href="../AbstractProjectedClustering.html" xlink:title="de.lmu.ifi.dbs.elki.algorithm.clustering.AbstractProjectedClustering" target="_parent">
<polygon fill="none" stroke="#000000" points=".5,-39 .5,-67 141.5,-67 141.5,-39 .5,-39"/>
<text text-anchor="start" x="19" y="-57.6" font-family="Roboto" font-size="8.00" fill="#000000"> </text>
<text text-anchor="start" x="22" y="-57.6" font-family="Roboto" font-style="italic" font-size="8.00" fill="#000000">AbstractProjectedClustering</text>
<text text-anchor="start" x="120" y="-57.6" font-family="Roboto" font-size="8.00" fill="#000000"> </text>
<text text-anchor="start" x="4.5" y="-46.6" font-family="Roboto" font-size="8.00" fill="#000000"> </text>
<text text-anchor="start" x="7.5" y="-46.6" font-family="Roboto" font-size="7.00" fill="#000000">de.lmu.ifi.dbs.elki.algorithm.clustering</text>
<text text-anchor="start" x="134.5" y="-46.6" font-family="Roboto" font-size="8.00" fill="#000000"> </text>
</a>
</g>
</a>
</g>
</g>
<!-- c7590423 -->
<g id="node2" class="node">
<title>c7590423</title>
<g id="a_node2"><a xlink:href="ORCLUS.html" xlink:title="&lt;TABLE&gt;">
<g id="a_node2_1"><a xlink:href="ORCLUS.html" xlink:title="de.lmu.ifi.dbs.elki.algorithm.clustering.correlation.ORCLUS" target="_parent">
<polygon fill="#fffacd" stroke="transparent" points="159,-44.5 159,-61.5 205,-61.5 205,-44.5 159,-44.5"/>
<polygon fill="none" stroke="#000000" points="159,-44 159,-61 205,-61 205,-44 159,-44"/>
<text text-anchor="start" x="163" y="-51.6" font-family="Roboto" font-size="8.00" fill="#000000"> </text>
<text text-anchor="start" x="166" y="-51.6" font-family="Roboto" font-size="8.00" fill="#000000">ORCLUS</text>
<text text-anchor="start" x="198" y="-51.6" font-family="Roboto" font-size="8.00" fill="#000000"> </text>
</a>
</g>
</a>
</g>
</g>
<!-- c7590405&#45;&gt;c7590423 -->
<g id="edge1" class="edge">
<title>c7590405&#45;&gt;c7590423</title>
<path fill="none" stroke="#000000" d="M151.3028,-53C153.8469,-53 156.3032,-53 158.6429,-53"/>
<polygon fill="none" stroke="#000000" points="151.1147,-49.5001 141.1146,-53 151.1146,-56.5001 151.1147,-49.5001"/>
</g>
<!-- c7590844 -->
<g id="node3" class="node">
<title>c7590844</title>
<g id="a_node3"><a xlink:href="../../../data/NumberVector.html" xlink:title="&lt;TABLE&gt;">
<g id="a_node3_2"><a xlink:href="../../../data/NumberVector.html" xlink:title="de.lmu.ifi.dbs.elki.data.NumberVector" target="_parent">
<polygon fill="#fffacd" stroke="transparent" points="253.5,-78.5 253.5,-117.5 340.5,-117.5 340.5,-78.5 253.5,-78.5"/>
<polygon fill="none" stroke="#000000" points="254,-78 254,-117 341,-117 341,-78 254,-78"/>
<text text-anchor="start" x="276" y="-106.6" font-family="Roboto" font-size="8.00" fill="#000000"> «interface» </text>
<text text-anchor="start" x="269" y="-96.6" font-family="Roboto" font-size="8.00" fill="#000000"> </text>
<text text-anchor="start" x="272" y="-96.6" font-family="Roboto" font-size="8.00" fill="#000000">NumberVector</text>
<text text-anchor="start" x="323" y="-96.6" font-family="Roboto" font-size="8.00" fill="#000000"> </text>
<text text-anchor="start" x="258" y="-85.6" font-family="Roboto" font-size="8.00" fill="#000000"> </text>
<text text-anchor="start" x="261" y="-85.6" font-family="Roboto" font-size="7.00" fill="#000000">de.lmu.ifi.dbs.elki.data</text>
<text text-anchor="start" x="334" y="-85.6" font-family="Roboto" font-size="8.00" fill="#000000"> </text>
</a>
</g>
</a>
</g>
</g>
<!-- c7590405&#45;&gt;c7590844 -->
<g id="edge4" class="edge">
<title>c7590405&#45;&gt;c7590844</title>
<path fill="none" stroke="#000000" stroke-dasharray="5,2" d="M141.2343,-67.0532C174.237,-73.61 212.8748,-81.2864 243.4122,-87.3534"/>
<polygon fill="#000000" stroke="#000000" points="253.438,-89.3453 242.7528,-91.8103 248.5338,-88.3709 243.6297,-87.3965 243.6297,-87.3965 243.6297,-87.3965 248.5338,-88.3709 244.5066,-82.9828 253.438,-89.3453 253.438,-89.3453"/>
</g>
<!-- c7590423&#45;&gt;c7590844 -->
<g id="edge5" class="edge">
<title>c7590423&#45;&gt;c7590844</title>
<path fill="none" stroke="#000000" stroke-dasharray="5,2" d="M199.3948,-61.5106C206.6267,-64.9308 215.1503,-68.8108 223,-72 229.6784,-74.7134 236.7591,-77.4163 243.7901,-79.9972"/>
<polygon fill="#000000" stroke="#000000" points="253.3047,-83.4303 242.3709,-84.269 248.6015,-81.7332 243.8983,-80.0361 243.8983,-80.0361 243.8983,-80.0361 248.6015,-81.7332 245.4257,-75.8033 253.3047,-83.4303 253.3047,-83.4303"/>
</g>
<!-- c7591548 -->
<g id="node4" class="node">
<title>c7591548</title>
<g id="a_node4"><a xlink:href="../../../math/linearalgebra/pca/PCARunner.html" xlink:title="&lt;TABLE&gt;">
<g id="a_node4_3"><a xlink:href="../../../math/linearalgebra/pca/PCARunner.html" xlink:title="de.lmu.ifi.dbs.elki.math.linearalgebra.pca.PCARunner" target="_parent">
<polygon fill="#fffacd" stroke="transparent" points="223,-39 223,-67 371,-67 371,-39 223,-39"/>
<polygon fill="none" stroke="#000000" points="223,-39 223,-67 371,-67 371,-39 223,-39"/>
<text text-anchor="start" x="273.5" y="-57.6" font-family="Roboto" font-size="8.00" fill="#000000"> </text>
<text text-anchor="start" x="276.5" y="-57.6" font-family="Roboto" font-size="8.00" fill="#000000">PCARunner</text>
<text text-anchor="start" x="317.5" y="-57.6" font-family="Roboto" font-size="8.00" fill="#000000"> </text>
<text text-anchor="start" x="227" y="-46.6" font-family="Roboto" font-size="8.00" fill="#000000"> </text>
<text text-anchor="start" x="230" y="-46.6" font-family="Roboto" font-size="7.00" fill="#000000">de.lmu.ifi.dbs.elki.math.linearalgebra.pca</text>
<text text-anchor="start" x="364" y="-46.6" font-family="Roboto" font-size="8.00" fill="#000000"> </text>
</a>
</g>
</a>
</g>
</g>
<!-- c7590423&#45;&gt;c7591548 -->
<g id="edge2" class="edge">
<title>c7590423&#45;&gt;c7591548</title>
<path fill="none" stroke="#000000" d="M217.439,-53C219.2495,-53 221.0944,-53 222.9647,-53"/>
<polygon fill="none" stroke="#000000" points="217.272,-53.0001 211.2719,-57 205.272,-53 211.272,-49 217.272,-53.0001"/>
</g>
<!-- c7591638 -->
<g id="node5" class="node">
<title>c7591638</title>
<g id="a_node5"><a xlink:href="../../../utilities/random/RandomFactory.html" xlink:title="&lt;TABLE&gt;">
<g id="a_node5_4"><a xlink:href="../../../utilities/random/RandomFactory.html" xlink:title="de.lmu.ifi.dbs.elki.utilities.random.RandomFactory" target="_parent">
<polygon fill="none" stroke="#000000" points="234,0 234,-28 360,-28 360,0 234,0"/>
<text text-anchor="start" x="266.5" y="-18.6" font-family="Roboto" font-size="8.00" fill="#000000"> </text>
<text text-anchor="start" x="269.5" y="-18.6" font-family="Roboto" font-size="8.00" fill="#000000">RandomFactory</text>
<text text-anchor="start" x="324.5" y="-18.6" font-family="Roboto" font-size="8.00" fill="#000000"> </text>
<text text-anchor="start" x="238" y="-7.6" font-family="Roboto" font-size="8.00" fill="#000000"> </text>
<text text-anchor="start" x="241" y="-7.6" font-family="Roboto" font-size="7.00" fill="#000000">de.lmu.ifi.dbs.elki.utilities.random</text>
<text text-anchor="start" x="353" y="-7.6" font-family="Roboto" font-size="8.00" fill="#000000"> </text>
</a>
</g>
</a>
</g>
</g>
<!-- c7590423&#45;&gt;c7591638 -->
<g id="edge3" class="edge">
<title>c7590423&#45;&gt;c7591638</title>
<path fill="none" stroke="#000000" d="M197.6387,-44.4443C205.1517,-40.5764 214.3782,-36.1725 223,-33 224.626,-32.4017 226.2788,-31.815 227.9513,-31.2402"/>
<polygon fill="#000000" stroke="#000000" points="237.6979,-28.0819 229.5721,-35.4454 232.9414,-29.6232 228.1849,-31.1646 228.1849,-31.1646 228.1849,-31.1646 232.9414,-29.6232 226.7977,-26.8837 237.6979,-28.0819 237.6979,-28.0819"/>
</g>
</g>
</svg>
