<?xml version="1.0" encoding="UTF-8" standalone="no"?>
<!DOCTYPE svg PUBLIC "-//W3C//DTD SVG 1.1//EN"
 "http://www.w3.org/Graphics/SVG/1.1/DTD/svg11.dtd">
<!-- Generated by graphviz version 2.40.1 (20161225.0304)
 -->
<!-- Title: G Pages: 1 -->
<svg width="365pt" height="109pt"
 viewBox="0.00 0.00 365.00 109.00" xmlns="http://www.w3.org/2000/svg" xmlns:xlink="http://www.w3.org/1999/xlink">
<g id="graph0" class="graph" transform="scale(1 1) rotate(0) translate(4 105)">
<title>G</title>
<polygon fill="#ffffff" stroke="transparent" points="-4,4 -4,-105 361,-105 361,4 -4,4"/>
<!-- c5300510 -->
<g id="node1" class="node">
<title>c5300510</title>
<g id="a_node1"><a xlink:href="../../../application/greedyensemble/ComputeKNNOutlierScores.html" xlink:title="&lt;TABLE&gt;">
<g id="a_node1_0"><a xlink:href="../../../application/greedyensemble/ComputeKNNOutlierScores.html" xlink:title="de.lmu.ifi.dbs.elki.application.greedyensemble.ComputeKNNOutlierScores" target="_parent">
<polygon fill="none" stroke="#000000" points="0,-70.5 0,-98.5 164,-98.5 164,-70.5 0,-70.5"/>
<text text-anchor="start" x="31.5" y="-89.1" font-family="Roboto" font-size="8.00" fill="#000000"> </text>
<text text-anchor="start" x="34.5" y="-89.1" font-family="Roboto" font-size="8.00" fill="#000000">ComputeKNNOutlierScores</text>
<text text-anchor="start" x="129.5" y="-89.1" font-family="Roboto" font-size="8.00" fill="#000000"> </text>
<text text-anchor="start" x="4" y="-78.1" font-family="Roboto" font-size="8.00" fill="#000000"> </text>
<text text-anchor="start" x="7" y="-78.1" font-family="Roboto" font-size="7.00" fill="#000000">de.lmu.ifi.dbs.elki.application.greedyensemble</text>
<text text-anchor="start" x="157" y="-78.1" font-family="Roboto" font-size="8.00" fill="#000000"> </text>
</a>
</g>
</a>
</g>
</g>
<!-- c5302489 -->
<g id="node3" class="node">
<title>c5302489</title>
<g id="a_node3"><a xlink:href="IntGenerator.html" xlink:title="&lt;TABLE&gt;">
<g id="a_node3_1"><a xlink:href="IntGenerator.html" xlink:title="de.lmu.ifi.dbs.elki.utilities.datastructures.range.IntGenerator" target="_parent">
<polygon fill="#fffacd" stroke="transparent" points="182,-36.5 182,-64.5 240,-64.5 240,-36.5 182,-36.5"/>
<polygon fill="none" stroke="#000000" points="182,-36.5 182,-64.5 240,-64.5 240,-36.5 182,-36.5"/>
<text text-anchor="start" x="189.5" y="-54.1" font-family="Roboto" font-size="8.00" fill="#000000"> «interface» </text>
<text text-anchor="start" x="186" y="-44.1" font-family="Roboto" font-size="8.00" fill="#000000"> </text>
<text text-anchor="start" x="189" y="-44.1" font-family="Roboto" font-size="8.00" fill="#000000">IntGenerator</text>
<text text-anchor="start" x="233" y="-44.1" font-family="Roboto" font-size="8.00" fill="#000000"> </text>
</a>
</g>
</a>
</g>
</g>
<!-- c5300510&#45;&gt;c5302489 -->
<g id="edge6" class="edge">
<title>c5300510&#45;&gt;c5302489</title>
<path fill="none" stroke="#000000" d="M141.213,-70.4333C148.8946,-68.4984 156.6449,-66.491 164,-64.5 166.644,-63.7843 169.3657,-63.0273 172.1038,-62.2508"/>
<polygon fill="#000000" stroke="#000000" points="181.9819,-59.392 173.6271,-66.4947 177.179,-60.7821 172.3761,-62.1721 172.3761,-62.1721 172.3761,-62.1721 177.179,-60.7821 171.1251,-57.8495 181.9819,-59.392 181.9819,-59.392"/>
</g>
<!-- c5302488 -->
<g id="node2" class="node">
<title>c5302488</title>
<g id="a_node2"><a xlink:href="StaticIntGenerator.html" xlink:title="&lt;TABLE&gt;">
<g id="a_node2_2"><a xlink:href="StaticIntGenerator.html" xlink:title="de.lmu.ifi.dbs.elki.utilities.datastructures.range.StaticIntGenerator" target="_parent">
<polygon fill="none" stroke="#000000" points="268.5,-83.5 268.5,-100.5 346.5,-100.5 346.5,-83.5 268.5,-83.5"/>
<text text-anchor="start" x="272.5" y="-91.1" font-family="Roboto" font-size="8.00" fill="#000000"> </text>
<text text-anchor="start" x="275.5" y="-91.1" font-family="Roboto" font-size="8.00" fill="#000000">StaticIntGenerator</text>
<text text-anchor="start" x="339.5" y="-91.1" font-family="Roboto" font-size="8.00" fill="#000000"> </text>
</a>
</g>
</a>
</g>
</g>
<!-- c5302489&#45;&gt;c5302488 -->
<g id="edge1" class="edge">
<title>c5302489&#45;&gt;c5302488</title>
<path fill="none" stroke="#000000" stroke-dasharray="5,2" d="M240.8911,-69.8756C246.4467,-73.0209 252.2993,-76.0463 258,-78.5 262.6758,-80.5126 267.7235,-82.323 272.7455,-83.9215"/>
<polygon fill="none" stroke="#000000" points="242.2884,-66.6353 231.901,-64.5488 238.72,-72.6575 242.2884,-66.6353"/>
</g>
<!-- c5302490 -->
<g id="node4" class="node">
<title>c5302490</title>
<g id="a_node4"><a xlink:href="ExponentialIntGenerator.html" xlink:title="&lt;TABLE&gt;">
<g id="a_node4_3"><a xlink:href="ExponentialIntGenerator.html" xlink:title="de.lmu.ifi.dbs.elki.utilities.datastructures.range.ExponentialIntGenerator" target="_parent">
<polygon fill="none" stroke="#000000" points="258.5,-55.5 258.5,-72.5 357.5,-72.5 357.5,-55.5 258.5,-55.5"/>
<text text-anchor="start" x="262.5" y="-63.1" font-family="Roboto" font-size="8.00" fill="#000000"> </text>
<text text-anchor="start" x="265.5" y="-63.1" font-family="Roboto" font-size="8.00" fill="#000000">ExponentialIntGenerator</text>
<text text-anchor="start" x="350.5" y="-63.1" font-family="Roboto" font-size="8.00" fill="#000000"> </text>
</a>
</g>
</a>
</g>
</g>
<!-- c5302489&#45;&gt;c5302490 -->
<g id="edge2" class="edge">
<title>c5302489&#45;&gt;c5302490</title>
<path fill="none" stroke="#000000" stroke-dasharray="5,2" d="M250.166,-56.1821C252.6495,-56.5424 255.1662,-56.9075 257.6887,-57.2735"/>
<polygon fill="none" stroke="#000000" points="250.614,-52.7105 240.2151,-54.7385 249.6089,-59.638 250.614,-52.7105"/>
</g>
<!-- c5302491 -->
<g id="node5" class="node">
<title>c5302491</title>
<g id="a_node5"><a xlink:href="LinearIntGenerator.html" xlink:title="&lt;TABLE&gt;">
<g id="a_node5_4"><a xlink:href="LinearIntGenerator.html" xlink:title="de.lmu.ifi.dbs.elki.utilities.datastructures.range.LinearIntGenerator" target="_parent">
<polygon fill="none" stroke="#000000" points="267.5,-27.5 267.5,-44.5 348.5,-44.5 348.5,-27.5 267.5,-27.5"/>
<text text-anchor="start" x="271.5" y="-35.1" font-family="Roboto" font-size="8.00" fill="#000000"> </text>
<text text-anchor="start" x="274.5" y="-35.1" font-family="Roboto" font-size="8.00" fill="#000000">LinearIntGenerator</text>
<text text-anchor="start" x="341.5" y="-35.1" font-family="Roboto" font-size="8.00" fill="#000000"> </text>
</a>
</g>
</a>
</g>
</g>
<!-- c5302489&#45;&gt;c5302491 -->
<g id="edge3" class="edge">
<title>c5302489&#45;&gt;c5302491</title>
<path fill="none" stroke="#000000" stroke-dasharray="5,2" d="M250.4421,-44.7778C255.9,-43.986 261.5135,-43.1716 266.9904,-42.377"/>
<polygon fill="none" stroke="#000000" points="249.6089,-41.362 240.2151,-46.2615 250.614,-48.2895 249.6089,-41.362"/>
</g>
<!-- c5302492 -->
<g id="node6" class="node">
<title>c5302492</title>
<g id="a_node6"><a xlink:href="CombinedIntGenerator.html" xlink:title="&lt;TABLE&gt;">
<g id="a_node6_5"><a xlink:href="CombinedIntGenerator.html" xlink:title="de.lmu.ifi.dbs.elki.utilities.datastructures.range.CombinedIntGenerator" target="_parent">
<polygon fill="none" stroke="#000000" points="261.5,.5 261.5,-16.5 354.5,-16.5 354.5,.5 261.5,.5"/>
<text text-anchor="start" x="265.5" y="-7.1" font-family="Roboto" font-size="8.00" fill="#000000"> </text>
<text text-anchor="start" x="268.5" y="-7.1" font-family="Roboto" font-size="8.00" fill="#000000">CombinedIntGenerator</text>
<text text-anchor="start" x="347.5" y="-7.1" font-family="Roboto" font-size="8.00" fill="#000000"> </text>
</a>
</g>
</a>
</g>
</g>
<!-- c5302489&#45;&gt;c5302492 -->
<g id="edge4" class="edge">
<title>c5302489&#45;&gt;c5302492</title>
<path fill="none" stroke="#000000" stroke-dasharray="5,2" d="M240.8911,-31.1244C246.4467,-27.9791 252.2993,-24.9537 258,-22.5 262.6758,-20.4874 267.7235,-18.677 272.7455,-17.0785"/>
<polygon fill="none" stroke="#000000" points="238.72,-28.3425 231.901,-36.4512 242.2884,-34.3647 238.72,-28.3425"/>
</g>
<!-- c5302493 -->
<g id="node7" class="node">
<title>c5302493</title>
<g id="a_node7"><a xlink:href="ParseIntRanges.html" xlink:title="&lt;TABLE&gt;">
<g id="a_node7_6"><a xlink:href="ParseIntRanges.html" xlink:title="de.lmu.ifi.dbs.elki.utilities.datastructures.range.ParseIntRanges" target="_parent">
<polygon fill="none" stroke="#000000" points="48,-41.5 48,-58.5 117,-58.5 117,-41.5 48,-41.5"/>
<text text-anchor="start" x="52" y="-49.1" font-family="Roboto" font-size="8.00" fill="#000000"> </text>
<text text-anchor="start" x="55" y="-49.1" font-family="Roboto" font-size="8.00" fill="#000000">ParseIntRanges</text>
<text text-anchor="start" x="110" y="-49.1" font-family="Roboto" font-size="8.00" fill="#000000"> </text>
</a>
</g>
</a>
</g>
</g>
<!-- c5302493&#45;&gt;c5302489 -->
<g id="edge5" class="edge">
<title>c5302493&#45;&gt;c5302489</title>
<path fill="none" stroke="#000000" d="M128.7067,-50.5C146.3644,-50.5 165.9523,-50.5 181.5867,-50.5"/>
<polygon fill="none" stroke="#000000" points="128.5696,-50.5001 122.5696,-54.5 116.5696,-50.5 122.5697,-46.5 128.5696,-50.5001"/>
</g>
</g>
</svg>
