<?xml version="1.0" encoding="UTF-8" standalone="no"?>
<!DOCTYPE svg PUBLIC "-//W3C//DTD SVG 1.1//EN"
 "http://www.w3.org/Graphics/SVG/1.1/DTD/svg11.dtd">
<!-- Generated by graphviz version 2.40.1 (20161225.0304)
 -->
<!-- Title: G Pages: 1 -->
<svg width="162pt" height="36pt"
 viewBox="0.00 0.00 162.00 36.00" xmlns="http://www.w3.org/2000/svg" xmlns:xlink="http://www.w3.org/1999/xlink">
<g id="graph0" class="graph" transform="scale(1 1) rotate(0) translate(4 32)">
<title>G</title>
<polygon fill="#ffffff" stroke="transparent" points="-4,4 -4,-32 158,-32 158,4 -4,4"/>
<!-- c10018474 -->
<g id="node1" class="node">
<title>c10018474</title>
<g id="a_node1"><a xlink:href="StaticIntGenerator.html" xlink:title="&lt;TABLE&gt;">
<g id="a_node1_0"><a xlink:href="StaticIntGenerator.html" xlink:title="de.lmu.ifi.dbs.elki.utilities.datastructures.range.StaticIntGenerator" target="_parent">
<polygon fill="#fffacd" stroke="transparent" points="76,-5.5 76,-22.5 154,-22.5 154,-5.5 76,-5.5"/>
<polygon fill="none" stroke="#000000" points="76,-5 76,-22 154,-22 154,-5 76,-5"/>
<text text-anchor="start" x="80" y="-12.6" font-family="Roboto" font-size="8.00" fill="#000000"> </text>
<text text-anchor="start" x="83" y="-12.6" font-family="Roboto" font-size="8.00" fill="#000000">StaticIntGenerator</text>
<text text-anchor="start" x="147" y="-12.6" font-family="Roboto" font-size="8.00" fill="#000000"> </text>
</a>
</g>
</a>
</g>
</g>
<!-- c10018475 -->
<g id="node2" class="node">
<title>c10018475</title>
<g id="a_node2"><a xlink:href="IntGenerator.html" xlink:title="&lt;TABLE&gt;">
<g id="a_node2_1"><a xlink:href="IntGenerator.html" xlink:title="de.lmu.ifi.dbs.elki.utilities.datastructures.range.IntGenerator" target="_parent">
<polygon fill="none" stroke="#000000" points="0,0 0,-28 58,-28 58,0 0,0"/>
<text text-anchor="start" x="7.5" y="-17.6" font-family="Roboto" font-size="8.00" fill="#000000"> «interface» </text>
<text text-anchor="start" x="4" y="-7.6" font-family="Roboto" font-size="8.00" fill="#000000"> </text>
<text text-anchor="start" x="7" y="-7.6" font-family="Roboto" font-size="8.00" fill="#000000">IntGenerator</text>
<text text-anchor="start" x="51" y="-7.6" font-family="Roboto" font-size="8.00" fill="#000000"> </text>
</a>
</g>
</a>
</g>
</g>
<!-- c10018475&#45;&gt;c10018474 -->
<g id="edge1" class="edge">
<title>c10018475&#45;&gt;c10018474</title>
<path fill="none" stroke="#000000" stroke-dasharray="5,2" d="M68.1914,-14C70.6872,-14 73.2002,-14 75.6965,-14"/>
<polygon fill="none" stroke="#000000" points="68.1157,-10.5001 58.1157,-14 68.1156,-17.5001 68.1157,-10.5001"/>
</g>
</g>
</svg>
