<?xml version="1.0" encoding="UTF-8" standalone="no"?><svg xmlns="http://www.w3.org/2000/svg" xmlns:xlink="http://www.w3.org/1999/xlink" contentStyleType="text/css" height="306px" preserveAspectRatio="none" style="width:525px;height:306px;background:#FFFFFF;" version="1.1" viewBox="0 0 525 306" width="525px" zoomAndPan="magnify"><defs/><g><!--MD5=[ee8e74e4079f08748cc9e64bdab3aacf]
class tutorial.clustering.NaiveAgglomerativeHierarchicalClustering1--><a href="NaiveAgglomerativeHierarchicalClustering1.html" target="_top" title="NaiveAgglomerativeHierarchicalClustering1.html" xlink:actuate="onRequest" xlink:href="NaiveAgglomerativeHierarchicalClustering1.html" xlink:show="new" xlink:title="NaiveAgglomerativeHierarchicalClustering1.html" xlink:type="simple"><g id="elem_tutorial.clustering.NaiveAgglomerativeHierarchicalClustering1"><rect codeLine="6" fill="#F1F1F1" height="151.7188" id="tutorial.clustering.NaiveAgglomerativeHierarchicalClustering1" rx="2.5" ry="2.5" style="stroke:#181818;stroke-width:0.5;" width="505" x="9" y="129"/><ellipse cx="104.75" cy="147.9688" fill="#ADD1B2" rx="11" ry="11" style="stroke:#181818;stroke-width:1.0;"/><path d="M107.7188,153.6094 Q107.1406,153.9063 106.5,154.0469 Q105.8594,154.2031 105.1563,154.2031 Q102.6563,154.2031 101.3281,152.5625 Q100.0156,150.9063 100.0156,147.7813 Q100.0156,144.6563 101.3281,143 Q102.6563,141.3438 105.1563,141.3438 Q105.8594,141.3438 106.5,141.5 Q107.1563,141.6563 107.7188,141.9531 L107.7188,144.6719 Q107.0938,144.0938 106.5,143.8281 Q105.9063,143.5469 105.2813,143.5469 Q103.9375,143.5469 103.25,144.625 Q102.5625,145.6875 102.5625,147.7813 Q102.5625,149.875 103.25,150.9531 Q103.9375,152.0156 105.2813,152.0156 Q105.9063,152.0156 106.5,151.75 Q107.0938,151.4688 107.7188,150.8906 L107.7188,153.6094 Z " fill="#000000"/><text fill="#000000" font-family="sans-serif" font-size="14" lengthAdjust="spacing" textLength="293" x="125.25" y="146.9951">NaiveAgglomerativeHierarchicalClustering1</text><text fill="#000000" font-family="sans-serif" font-size="10" lengthAdjust="spacing" textLength="83" x="230.25" y="159.5791">tutorial.clustering</text><rect fill="#FFFFFF" height="15.9688" style="stroke:#181818;stroke-width:1.0;stroke-dasharray:2.0,2.0;" width="10" x="507" y="126"/><text fill="#000000" font-family="sans-serif" font-size="12" font-style="italic" lengthAdjust="spacing" textLength="8" x="508" y="138.1387">O</text><line style="stroke:#181818;stroke-width:0.5;" x1="10" x2="513" y1="166.9375" y2="166.9375"/><rect fill="none" height="6" style="stroke:#C82930;stroke-width:1.0;" width="6" x="17" y="177.5859"/><text fill="#000000" font-family="sans-serif" font-size="14" lengthAdjust="spacing" text-decoration="underline" textLength="93" x="29" y="183.9326">LOG: Logging</text><polygon fill="none" points="20,192.8828,16,198.8828,24,198.8828" style="stroke:#1963A0;stroke-width:1.0;"/><text fill="#000000" font-family="sans-serif" font-size="14" lengthAdjust="spacing" textLength="219" x="29" y="200.2295">distance: Distance&lt;? super O&gt;</text><polygon fill="none" points="20,209.1797,16,215.1797,24,215.1797" style="stroke:#1963A0;stroke-width:1.0;"/><text fill="#000000" font-family="sans-serif" font-size="14" lengthAdjust="spacing" textLength="112" x="29" y="216.5264">numclusters: int</text><line style="stroke:#181818;stroke-width:0.5;" x1="10" x2="513" y1="223.8281" y2="223.8281"/><ellipse cx="20" cy="237.4766" fill="#84BE84" rx="3" ry="3" style="stroke:#038048;stroke-width:1.0;"/><text fill="#000000" font-family="sans-serif" font-size="14" lengthAdjust="spacing" textLength="479" x="29" y="240.8232">NaiveAgglomerativeHierarchicalClustering1(Distance&lt;? super O&gt;, int)</text><ellipse cx="20" cy="253.7734" fill="#84BE84" rx="3" ry="3" style="stroke:#038048;stroke-width:1.0;"/><text fill="#000000" font-family="sans-serif" font-size="14" lengthAdjust="spacing" textLength="306" x="29" y="257.1201">getInputTypeRestriction(): TypeInformation[]</text><ellipse cx="20" cy="270.0703" fill="#84BE84" rx="3" ry="3" style="stroke:#038048;stroke-width:1.0;"/><text fill="#000000" font-family="sans-serif" font-size="14" lengthAdjust="spacing" textLength="269" x="29" y="273.417">run(Relation&lt;O&gt;): Clustering&lt;Model&gt;</text></g></a><!--MD5=[6617a5df6c1f5d3bd235afcb3413924f]
class elki.Algorithm--><a href="../../elki/Algorithm.html" target="_top" title="../../elki/Algorithm.html" xlink:actuate="onRequest" xlink:href="../../elki/Algorithm.html" xlink:show="new" xlink:title="../../elki/Algorithm.html" xlink:type="simple"><g id="elem_elki.Algorithm"><rect codeLine="15" fill="#F1F1F1" height="62.2344" id="elki.Algorithm" rx="2.5" ry="2.5" style="stroke:#181818;stroke-width:0.5;" width="341" x="91" y="7"/><ellipse cx="222.75" cy="25.9688" fill="#B4A7E5" rx="11" ry="11" style="stroke:#181818;stroke-width:1.0;"/><path d="M218.6719,21.7344 L218.6719,19.5781 L226.0625,19.5781 L226.0625,21.7344 L223.5938,21.7344 L223.5938,29.8125 L226.0625,29.8125 L226.0625,31.9688 L218.6719,31.9688 L218.6719,29.8125 L221.1406,29.8125 L221.1406,21.7344 L218.6719,21.7344 Z " fill="#000000"/><text fill="#000000" font-family="sans-serif" font-size="14" font-style="italic" lengthAdjust="spacing" textLength="69" x="243.25" y="24.9951">Algorithm</text><text fill="#000000" font-family="sans-serif" font-size="10" font-style="italic" lengthAdjust="spacing" textLength="18" x="268.75" y="37.5791">elki</text><line style="stroke:#181818;stroke-width:0.5;" x1="92" x2="431" y1="44.9375" y2="44.9375"/><ellipse cx="102" cy="58.5859" fill="#84BE84" rx="3" ry="3" style="stroke:#038048;stroke-width:1.0;"/><text fill="#000000" font-family="sans-serif" font-size="14" font-style="italic" lengthAdjust="spacing" textLength="315" x="111" y="61.9326">getInputTypeRestriction(): TypeInformation[]</text></g></a><!--MD5=[e1252973d9b4b46f9d97ea33ffe85e62]
reverse link elki.Algorithm to tutorial.clustering.NaiveAgglomerativeHierarchicalClustering1--><g id="link_elki.Algorithm_tutorial.clustering.NaiveAgglomerativeHierarchicalClustering1"><path codeLine="20" d="M261.5,89.53 C261.5,102 261.5,115.63 261.5,128.99 " fill="none" id="elki.Algorithm-backto-tutorial.clustering.NaiveAgglomerativeHierarchicalClustering1" style="stroke:#181818;stroke-width:1.0;stroke-dasharray:7.0,7.0;"/><polygon fill="none" points="254.5,89.26,261.5,69.26,268.5,89.26,254.5,89.26" style="stroke:#181818;stroke-width:1.0;"/></g><rect fill="none" height="11.6406" style="stroke:none;stroke-width:1.0;" width="186" x="162.5" y="286.7188"/><text fill="#888888" font-family="sans-serif" font-size="10" lengthAdjust="spacing" textLength="186" x="162.5" y="296.001">UMLDoclet 2.0.19, PlantUML 1.2022.8</text><!--MD5=[32d30ae45a7ccda658e988e9e187077d]
@startuml
    remove .*\.(Instance|Par|Parameterizer|Factory)$
    set namespaceSeparator none
    hide empty fields
    hide empty methods

    class "<size:14>NaiveAgglomerativeHierarchicalClustering1\n<size:10>tutorial.clustering" as tutorial.clustering.NaiveAgglomerativeHierarchicalClustering1<O> [[NaiveAgglomerativeHierarchicalClustering1.html]] {
        {static} -LOG: Logging
        ~distance: Distance<? super O>
        ~numclusters: int
        +NaiveAgglomerativeHierarchicalClustering1(Distance<? super O>, int)
        +getInputTypeRestriction(): TypeInformation[]
        +run(Relation<O>): Clustering<Model>
    }

    interface "<size:14>Algorithm\n<size:10>elki" as elki.Algorithm [[../../elki/Algorithm.html]] {
        {abstract} +getInputTypeRestriction(): TypeInformation[]
    }
    class "<size:14>NaiveAgglomerativeHierarchicalClustering1.Par\n<size:10>tutorial.clustering" as tutorial.clustering.NaiveAgglomerativeHierarchicalClustering1.Par<O>

    elki.Algorithm <|.. tutorial.clustering.NaiveAgglomerativeHierarchicalClustering1
    tutorial.clustering.NaiveAgglomerativeHierarchicalClustering1 +- - tutorial.clustering.NaiveAgglomerativeHierarchicalClustering1.Par

    center footer UMLDoclet 2.0.19, PlantUML 1.2022.8
@enduml

PlantUML version 1.2022.8(Sun Sep 25 11:00:33 CEST 2022)
(APACHE source distribution)
Java Runtime: OpenJDK Runtime Environment
JVM: OpenJDK 64-Bit Server VM
Default Encoding: UTF-8
Language: de
Country: DE
--></g></svg>