<?xml version="1.0" encoding="UTF-8" standalone="no"?>
<!DOCTYPE svg PUBLIC "-//W3C//DTD SVG 1.1//EN"
 "http://www.w3.org/Graphics/SVG/1.1/DTD/svg11.dtd">
<!-- Generated by graphviz version 2.40.1 (20161225.0304)
 -->
<!-- Title: G Pages: 1 -->
<svg width="397pt" height="36pt"
 viewBox="0.00 0.00 397.00 36.00" xmlns="http://www.w3.org/2000/svg" xmlns:xlink="http://www.w3.org/1999/xlink">
<g id="graph0" class="graph" transform="scale(1 1) rotate(0) translate(4 32)">
<title>G</title>
<polygon fill="#ffffff" stroke="transparent" points="-4,4 -4,-32 393,-32 393,4 -4,4"/>
<!-- c7263519 -->
<g id="node1" class="node">
<title>c7263519</title>
<g id="a_node1"><a xlink:href="NaiveAgglomerativeHierarchicalClustering3.html" xlink:title="&lt;TABLE&gt;">
<g id="a_node1_0"><a xlink:href="NaiveAgglomerativeHierarchicalClustering3.html" xlink:title="tutorial.clustering.NaiveAgglomerativeHierarchicalClustering3" target="_parent">
<polygon fill="none" stroke="#000000" points="0,-5 0,-22 170,-22 170,-5 0,-5"/>
<text text-anchor="start" x="4" y="-12.6" font-family="Roboto" font-size="8.00" fill="#000000"> </text>
<text text-anchor="start" x="7" y="-12.6" font-family="Roboto" font-size="8.00" fill="#000000">NaiveAgglomerativeHierarchicalClustering3</text>
<text text-anchor="start" x="163" y="-12.6" font-family="Roboto" font-size="8.00" fill="#000000"> </text>
</a>
</g>
</a>
</g>
</g>
<!-- c7263520 -->
<g id="node2" class="node">
<title>c7263520</title>
<g id="a_node2"><a xlink:href="NaiveAgglomerativeHierarchicalClustering3.Linkage.html" xlink:title="&lt;TABLE&gt;">
<g id="a_node2_1"><a xlink:href="NaiveAgglomerativeHierarchicalClustering3.Linkage.html" xlink:title="tutorial.clustering.NaiveAgglomerativeHierarchicalClustering3.Linkage" target="_parent">
<polygon fill="#fffacd" stroke="transparent" points="188,0 188,-28 389,-28 389,0 188,0"/>
<polygon fill="none" stroke="#000000" points="188.5,0 188.5,-28 389.5,-28 389.5,0 188.5,0"/>
<text text-anchor="start" x="261" y="-17.6" font-family="Roboto" font-size="8.00" fill="#000000"> «enumeration» </text>
<text text-anchor="start" x="192.5" y="-7.6" font-family="Roboto" font-size="8.00" fill="#000000"> </text>
<text text-anchor="start" x="195.5" y="-7.6" font-family="Roboto" font-size="8.00" fill="#000000">NaiveAgglomerativeHierarchicalClustering3.Linkage</text>
<text text-anchor="start" x="382.5" y="-7.6" font-family="Roboto" font-size="8.00" fill="#000000"> </text>
</a>
</g>
</a>
</g>
</g>
<!-- c7263519&#45;&gt;c7263520 -->
<g id="edge1" class="edge">
<title>c7263519&#45;&gt;c7263520</title>
<path fill="none" stroke="#000000" d="M170.1232,-14C172.6963,-14 175.284,-14 177.8794,-14"/>
<polygon fill="#000000" stroke="#000000" points="187.9144,-14 177.9145,-18.5001 182.9144,-14 177.9144,-14.0001 177.9144,-14.0001 177.9144,-14.0001 182.9144,-14 177.9144,-9.5001 187.9144,-14 187.9144,-14"/>
</g>
</g>
</svg>
