<?xml version="1.0" encoding="UTF-8" standalone="no"?><svg xmlns="http://www.w3.org/2000/svg" xmlns:xlink="http://www.w3.org/1999/xlink" contentStyleType="text/css" height="285px" preserveAspectRatio="none" style="width:327px;height:285px;background:#FFFFFF;" version="1.1" viewBox="0 0 327 285" width="327px" zoomAndPan="magnify"><defs/><g><!--MD5=[710929c04328f907ae74105c96215dc0]
class tutorial.clustering.SameSizeKMeans.Meta--><a href="SameSizeKMeans.Meta.html" target="_top" title="SameSizeKMeans.Meta.html" xlink:actuate="onRequest" xlink:href="SameSizeKMeans.Meta.html" xlink:show="new" xlink:title="SameSizeKMeans.Meta.html" xlink:type="simple"><g id="elem_tutorial.clustering.SameSizeKMeans.Meta"><rect codeLine="6" fill="#F1F1F1" height="151.7188" id="tutorial.clustering.SameSizeKMeans.Meta" rx="2.5" ry="2.5" style="stroke:#181818;stroke-width:0.5;" width="193" x="65" y="108"/><ellipse cx="80" cy="126.9688" fill="#ADD1B2" rx="11" ry="11" style="stroke:#181818;stroke-width:1.0;"/><path d="M82.9688,132.6094 Q82.3906,132.9063 81.75,133.0469 Q81.1094,133.2031 80.4063,133.2031 Q77.9063,133.2031 76.5781,131.5625 Q75.2656,129.9063 75.2656,126.7813 Q75.2656,123.6563 76.5781,122 Q77.9063,120.3438 80.4063,120.3438 Q81.1094,120.3438 81.75,120.5 Q82.4063,120.6563 82.9688,120.9531 L82.9688,123.6719 Q82.3438,123.0938 81.75,122.8281 Q81.1563,122.5469 80.5313,122.5469 Q79.1875,122.5469 78.5,123.625 Q77.8125,124.6875 77.8125,126.7813 Q77.8125,128.875 78.5,129.9531 Q79.1875,131.0156 80.5313,131.0156 Q81.1563,131.0156 81.75,130.75 Q82.3438,130.4688 82.9688,129.8906 L82.9688,132.6094 Z " fill="#000000"/><text fill="#000000" font-family="sans-serif" font-size="14" lengthAdjust="spacing" textLength="161" x="94" y="125.9951">SameSizeKMeans.Meta</text><text fill="#000000" font-family="sans-serif" font-size="10" lengthAdjust="spacing" textLength="83" x="133" y="138.5791">tutorial.clustering</text><line style="stroke:#181818;stroke-width:0.5;" x1="66" x2="257" y1="145.9375" y2="145.9375"/><polygon fill="none" points="76,155.5859,72,161.5859,80,161.5859" style="stroke:#1963A0;stroke-width:1.0;"/><text fill="#000000" font-family="sans-serif" font-size="14" lengthAdjust="spacing" textLength="100" x="85" y="162.9326">dists: double[]</text><polygon fill="none" points="76,171.8828,72,177.8828,80,177.8828" style="stroke:#1963A0;stroke-width:1.0;"/><text fill="#000000" font-family="sans-serif" font-size="14" lengthAdjust="spacing" textLength="76" x="85" y="179.2295">primary: int</text><polygon fill="none" points="76,188.1797,72,194.1797,80,194.1797" style="stroke:#1963A0;stroke-width:1.0;"/><text fill="#000000" font-family="sans-serif" font-size="14" lengthAdjust="spacing" textLength="98" x="85" y="195.5264">secondary: int</text><line style="stroke:#181818;stroke-width:0.5;" x1="66" x2="257" y1="202.8281" y2="202.8281"/><polygon fill="#FFFF44" points="76,211.4766,80,215.4766,76,219.4766,72,215.4766" style="stroke:#B38D22;stroke-width:1.0;"/><text fill="#000000" font-family="sans-serif" font-size="14" lengthAdjust="spacing" textLength="61" x="85" y="219.8232">Meta(int)</text><polygon fill="#FFFF44" points="76,227.7734,80,231.7734,76,235.7734,72,231.7734" style="stroke:#B38D22;stroke-width:1.0;"/><text fill="#000000" font-family="sans-serif" font-size="14" lengthAdjust="spacing" textLength="113" x="85" y="236.1201">priority(): double</text><polygon fill="#FFFF44" points="76,244.0703,80,248.0703,76,252.0703,72,248.0703" style="stroke:#B38D22;stroke-width:1.0;"/><text fill="#000000" font-family="sans-serif" font-size="14" lengthAdjust="spacing" textLength="113" x="85" y="252.417">gain(int): double</text></g></a><!--MD5=[f4aed12b4f9a45ab9898ef24898d0575]
class tutorial.clustering.SameSizeKMeans--><a href="SameSizeKMeans.html" target="_top" title="SameSizeKMeans.html" xlink:actuate="onRequest" xlink:href="SameSizeKMeans.html" xlink:show="new" xlink:title="SameSizeKMeans.html" xlink:type="simple"><g id="elem_tutorial.clustering.SameSizeKMeans"><rect codeLine="15" fill="#F1F1F1" height="37.9375" id="tutorial.clustering.SameSizeKMeans" rx="2.5" ry="2.5" style="stroke:#181818;stroke-width:0.5;" width="309" x="7" y="10"/><ellipse cx="22" cy="28.9688" fill="#ADD1B2" rx="11" ry="11" style="stroke:#181818;stroke-width:1.0;"/><path d="M24.9688,34.6094 Q24.3906,34.9063 23.75,35.0469 Q23.1094,35.2031 22.4063,35.2031 Q19.9063,35.2031 18.5781,33.5625 Q17.2656,31.9063 17.2656,28.7813 Q17.2656,25.6563 18.5781,24 Q19.9063,22.3438 22.4063,22.3438 Q23.1094,22.3438 23.75,22.5 Q24.4063,22.6563 24.9688,22.9531 L24.9688,25.6719 Q24.3438,25.0938 23.75,24.8281 Q23.1563,24.5469 22.5313,24.5469 Q21.1875,24.5469 20.5,25.625 Q19.8125,26.6875 19.8125,28.7813 Q19.8125,30.875 20.5,31.9531 Q21.1875,33.0156 22.5313,33.0156 Q23.1563,33.0156 23.75,32.75 Q24.3438,32.4688 24.9688,31.8906 L24.9688,34.6094 Z " fill="#000000"/><text fill="#000000" font-family="sans-serif" font-size="14" lengthAdjust="spacing" textLength="123" x="36" y="27.9951">SameSizeKMeans</text><text fill="#000000" font-family="sans-serif" font-size="10" lengthAdjust="spacing" textLength="83" x="56" y="40.5791">tutorial.clustering</text><rect fill="#FFFFFF" height="15.9688" style="stroke:#181818;stroke-width:1.0;stroke-dasharray:2.0,2.0;" width="152" x="167" y="7"/><text fill="#000000" font-family="sans-serif" font-size="12" font-style="italic" lengthAdjust="spacing" textLength="150" x="168" y="19.1387">V extends NumberVector</text></g></a><!--MD5=[ade0fb77ef96c689ce612de85947de9d]
reverse link tutorial.clustering.SameSizeKMeans to tutorial.clustering.SameSizeKMeans.Meta--><g id="link_tutorial.clustering.SameSizeKMeans_tutorial.clustering.SameSizeKMeans.Meta"><path codeLine="17" d="M161.5,63.31 C161.5,76.51 161.5,92.26 161.5,107.93 " fill="none" id="tutorial.clustering.SameSizeKMeans-backto-tutorial.clustering.SameSizeKMeans.Meta" style="stroke:#181818;stroke-width:1.0;"/><ellipse cx="161.5" cy="56.15" fill="#FFFFFF" rx="8" ry="8" style="stroke:#181818;stroke-width:1.0;"/><line style="stroke:#181818;stroke-width:1.0;" x1="161.5" x2="161.5" y1="64.15" y2="48.15"/><line style="stroke:#181818;stroke-width:1.0;" x1="153.5" x2="169.5" y1="56.15" y2="56.15"/></g><rect fill="none" height="11.6406" style="stroke:none;stroke-width:1.0;" width="186" x="63.5" y="265.7188"/><text fill="#888888" font-family="sans-serif" font-size="10" lengthAdjust="spacing" textLength="186" x="63.5" y="275.001">UMLDoclet 2.0.19, PlantUML 1.2022.8</text><!--MD5=[bb64fce936861c0d3ca218d9f41eb2e2]
@startuml
    remove .*\.(Instance|Par|Parameterizer|Factory)$
    set namespaceSeparator none
    hide empty fields
    hide empty methods

    class "<size:14>SameSizeKMeans.Meta\n<size:10>tutorial.clustering" as tutorial.clustering.SameSizeKMeans.Meta [[SameSizeKMeans.Meta.html]] {
        ~dists: double[]
        ~primary: int
        ~secondary: int
        #Meta(int)
        #priority(): double
        #gain(int): double
    }

    class "<size:14>SameSizeKMeans\n<size:10>tutorial.clustering" as tutorial.clustering.SameSizeKMeans<V extends NumberVector> [[SameSizeKMeans.html]]

    tutorial.clustering.SameSizeKMeans +- - tutorial.clustering.SameSizeKMeans.Meta

    center footer UMLDoclet 2.0.19, PlantUML 1.2022.8
@enduml

PlantUML version 1.2022.8(Sun Sep 25 11:00:33 CEST 2022)
(APACHE source distribution)
Java Runtime: OpenJDK Runtime Environment
JVM: OpenJDK 64-Bit Server VM
Default Encoding: UTF-8
Language: de
Country: DE
--></g></svg>