<?xml version="1.0" encoding="UTF-8" standalone="no"?>
<!DOCTYPE svg PUBLIC "-//W3C//DTD SVG 1.1//EN"
 "http://www.w3.org/Graphics/SVG/1.1/DTD/svg11.dtd">
<!-- Generated by graphviz version 2.40.1 (20161225.0304)
 -->
<!-- Title: G Pages: 1 -->
<svg width="511pt" height="109pt"
 viewBox="0.00 0.00 511.00 108.50" xmlns="http://www.w3.org/2000/svg" xmlns:xlink="http://www.w3.org/1999/xlink">
<g id="graph0" class="graph" transform="scale(1 1) rotate(0) translate(4 104.5)">
<title>G</title>
<polygon fill="#ffffff" stroke="transparent" points="-4,4 -4,-104.5 507,-104.5 507,4 -4,4"/>
<!-- c10710425 -->
<g id="node1" class="node">
<title>c10710425</title>
<g id="a_node1"><a xlink:href="VisualizerParameterizer.html" xlink:title="&lt;TABLE&gt;">
<g id="a_node1_0"><a xlink:href="VisualizerParameterizer.html" xlink:title="de.lmu.ifi.dbs.elki.visualization.VisualizerParameterizer" target="_parent">
<polygon fill="#fffacd" stroke="transparent" points="0,-27.5 0,-44.5 100,-44.5 100,-27.5 0,-27.5"/>
<polygon fill="none" stroke="#000000" points="0,-27 0,-44 100,-44 100,-27 0,-27"/>
<text text-anchor="start" x="4" y="-34.6" font-family="Roboto" font-size="8.00" fill="#000000"> </text>
<text text-anchor="start" x="7" y="-34.6" font-family="Roboto" font-size="8.00" fill="#000000">VisualizerParameterizer</text>
<text text-anchor="start" x="93" y="-34.6" font-family="Roboto" font-size="8.00" fill="#000000"> </text>
</a>
</g>
</a>
</g>
</g>
<!-- c10710428 -->
<g id="node2" class="node">
<title>c10710428</title>
<g id="a_node2"><a xlink:href="VisualizerContext.html" xlink:title="&lt;TABLE&gt;">
<g id="a_node2_1"><a xlink:href="VisualizerContext.html" xlink:title="de.lmu.ifi.dbs.elki.visualization.VisualizerContext" target="_parent">
<polygon fill="#fffacd" stroke="transparent" points="139,-44.5 139,-61.5 215,-61.5 215,-44.5 139,-44.5"/>
<polygon fill="none" stroke="#000000" points="139,-44 139,-61 215,-61 215,-44 139,-44"/>
<text text-anchor="start" x="143" y="-51.6" font-family="Roboto" font-size="8.00" fill="#000000"> </text>
<text text-anchor="start" x="146" y="-51.6" font-family="Roboto" font-size="8.00" fill="#000000">VisualizerContext</text>
<text text-anchor="start" x="208" y="-51.6" font-family="Roboto" font-size="8.00" fill="#000000"> </text>
</a>
</g>
</a>
</g>
</g>
<!-- c10710425&#45;&gt;c10710428 -->
<g id="edge1" class="edge">
<title>c10710425&#45;&gt;c10710428</title>
<path fill="none" stroke="#000000" d="M112.1311,-44.3168C117.7043,-45.0628 123.2916,-45.8107 128.7211,-46.5375"/>
<polygon fill="none" stroke="#000000" points="112.0877,-44.311 105.61,-47.4796 100.1938,-42.7189 106.6714,-39.5503 112.0877,-44.311"/>
<polygon fill="#000000" stroke="#000000" points="138.9227,-47.903 128.414,-51.0364 133.9669,-47.2396 129.0111,-46.5762 129.0111,-46.5762 129.0111,-46.5762 133.9669,-47.2396 129.6082,-42.116 138.9227,-47.903 138.9227,-47.903"/>
<text text-anchor="middle" x="119.5" y="-48.4" font-family="Roboto" font-size="7.00" fill="#000000">create</text>
</g>
<!-- c10710501 -->
<g id="node4" class="node">
<title>c10710501</title>
<g id="a_node4"><a xlink:href="VisualizationProcessor.html" xlink:title="&lt;TABLE&gt;">
<g id="a_node4_2"><a xlink:href="VisualizationProcessor.html" xlink:title="de.lmu.ifi.dbs.elki.visualization.VisualizationProcessor" target="_parent">
<polygon fill="#fffacd" stroke="transparent" points="234,-39 234,-67 328,-67 328,-39 234,-39"/>
<polygon fill="none" stroke="#000000" points="234,-39 234,-67 328,-67 328,-39 234,-39"/>
<text text-anchor="start" x="259.5" y="-56.6" font-family="Roboto" font-size="8.00" fill="#000000"> «interface» </text>
<text text-anchor="start" x="238" y="-46.6" font-family="Roboto" font-size="8.00" fill="#000000"> </text>
<text text-anchor="start" x="241" y="-46.6" font-family="Roboto" font-size="8.00" fill="#000000">VisualizationProcessor</text>
<text text-anchor="start" x="321" y="-46.6" font-family="Roboto" font-size="8.00" fill="#000000"> </text>
</a>
</g>
</a>
</g>
</g>
<!-- c10710425&#45;&gt;c10710501 -->
<g id="edge2" class="edge">
<title>c10710425&#45;&gt;c10710501</title>
<path fill="none" stroke="#000000" d="M112.123,-28.5537C143.2012,-26.2355 181.2854,-25.5289 215,-31 221.8888,-32.1179 229.0302,-33.8519 235.9592,-35.867"/>
<polygon fill="none" stroke="#000000" points="112.1024,-28.5553 106.4551,-33.0395 100.1437,-29.5513 105.791,-25.0671 112.1024,-28.5553"/>
<polygon fill="#000000" stroke="#000000" points="245.9049,-38.9814 235.0171,-40.2874 241.1334,-37.4872 236.3618,-35.993 236.3618,-35.993 236.3618,-35.993 241.1334,-37.4872 237.7066,-31.6986 245.9049,-38.9814 245.9049,-38.9814"/>
<text text-anchor="middle" x="177" y="-33.4" font-family="Roboto" font-size="7.00" fill="#000000">configure</text>
<text text-anchor="middle" x="243.9049" y="-33.3814" font-family="Roboto" font-size="7.00" fill="#000000">*</text>
</g>
<!-- c10710428&#45;&gt;c10710501 -->
<g id="edge3" class="edge">
<title>c10710428&#45;&gt;c10710501</title>
<path fill="none" stroke="#000000" d="M227.2504,-53C229.391,-53 231.5355,-53 233.6695,-53"/>
<polygon fill="#000000" stroke="#000000" points="227.1352,-53.0001 221.1352,-57 215.1352,-53 221.1353,-49 227.1352,-53.0001"/>
</g>
<!-- c10710435 -->
<g id="node3" class="node">
<title>c10710435</title>
<g id="a_node3"><a xlink:href="projector/ProjectorFactory.html" xlink:title="&lt;TABLE&gt;">
<g id="a_node3_3"><a xlink:href="projector/ProjectorFactory.html" xlink:title="de.lmu.ifi.dbs.elki.visualization.projector.ProjectorFactory" target="_parent">
<polygon fill="none" stroke="#000000" points="352,-61 352,-100 499,-100 499,-61 352,-61"/>
<text text-anchor="start" x="404" y="-89.6" font-family="Roboto" font-size="8.00" fill="#000000"> «interface» </text>
<text text-anchor="start" x="394.5" y="-79.6" font-family="Roboto" font-size="8.00" fill="#000000"> </text>
<text text-anchor="start" x="397.5" y="-79.6" font-family="Roboto" font-size="8.00" fill="#000000">ProjectorFactory</text>
<text text-anchor="start" x="453.5" y="-79.6" font-family="Roboto" font-size="8.00" fill="#000000"> </text>
<text text-anchor="start" x="356" y="-68.6" font-family="Roboto" font-size="8.00" fill="#000000"> </text>
<text text-anchor="start" x="359" y="-68.6" font-family="Roboto" font-size="7.00" fill="#000000">de.lmu.ifi.dbs.elki.visualization.projector</text>
<text text-anchor="start" x="492" y="-68.6" font-family="Roboto" font-size="8.00" fill="#000000"> </text>
</a>
</g>
</a>
</g>
</g>
<!-- c10710501&#45;&gt;c10710435 -->
<g id="edge4" class="edge">
<title>c10710501&#45;&gt;c10710435</title>
<path fill="none" stroke="#000000" stroke-dasharray="5,2" d="M338.1491,-64.1123C342.5067,-64.9596 346.9402,-65.8217 351.3818,-66.6854"/>
<polygon fill="none" stroke="#000000" points="338.6352,-60.6414 328.151,-62.1682 337.2991,-67.5127 338.6352,-60.6414"/>
</g>
<!-- c10710645 -->
<g id="node5" class="node">
<title>c10710645</title>
<g id="a_node5"><a xlink:href="visualizers/VisFactory.html" xlink:title="&lt;TABLE&gt;">
<g id="a_node5_4"><a xlink:href="visualizers/VisFactory.html" xlink:title="de.lmu.ifi.dbs.elki.visualization.visualizers.VisFactory" target="_parent">
<polygon fill="#fffacd" stroke="transparent" points="347,0 347,-50 503,-50 503,0 347,0"/>
<polygon fill="none" stroke="#000000" points="347,0 347,-50 503,-50 503,0 347,0"/>
<text text-anchor="start" x="403.5" y="-39.6" font-family="Roboto" font-size="8.00" fill="#000000"> «interface» </text>
<text text-anchor="start" x="406.5" y="-28.6" font-family="Roboto" font-size="8.00" fill="#000000"> «factory» </text>
<text text-anchor="start" x="403.5" y="-18.6" font-family="Roboto" font-size="8.00" fill="#000000"> </text>
<text text-anchor="start" x="406.5" y="-18.6" font-family="Roboto" font-size="8.00" fill="#000000">VisFactory</text>
<text text-anchor="start" x="443.5" y="-18.6" font-family="Roboto" font-size="8.00" fill="#000000"> </text>
<text text-anchor="start" x="351" y="-7.6" font-family="Roboto" font-size="8.00" fill="#000000"> </text>
<text text-anchor="start" x="354" y="-7.6" font-family="Roboto" font-size="7.00" fill="#000000">de.lmu.ifi.dbs.elki.visualization.visualizers</text>
<text text-anchor="start" x="496" y="-7.6" font-family="Roboto" font-size="8.00" fill="#000000"> </text>
</a>
</g>
</a>
</g>
</g>
<!-- c10710501&#45;&gt;c10710645 -->
<g id="edge5" class="edge">
<title>c10710501&#45;&gt;c10710645</title>
<path fill="none" stroke="#000000" stroke-dasharray="5,2" d="M338.0215,-41.9125C340.9734,-41.3385 343.9605,-40.7577 346.9616,-40.1741"/>
<polygon fill="none" stroke="#000000" points="337.2991,-38.4873 328.151,-43.8318 338.6352,-45.3586 337.2991,-38.4873"/>
</g>
</g>
</svg>
