<?xml version="1.0" encoding="UTF-8" standalone="no"?>
<!DOCTYPE svg PUBLIC "-//W3C//DTD SVG 1.1//EN"
 "http://www.w3.org/Graphics/SVG/1.1/DTD/svg11.dtd">
<!-- Generated by graphviz version 2.40.1 (20161225.0304)
 -->
<!-- Title: G Pages: 1 -->
<svg width="400pt" height="114pt"
 viewBox="0.00 0.00 400.00 114.00" xmlns="http://www.w3.org/2000/svg" xmlns:xlink="http://www.w3.org/1999/xlink">
<g id="graph0" class="graph" transform="scale(1 1) rotate(0) translate(4 110)">
<title>G</title>
<polygon fill="#ffffff" stroke="transparent" points="-4,4 -4,-110 396,-110 396,4 -4,4"/>
<!-- c1191014 -->
<g id="node1" class="node">
<title>c1191014</title>
<g id="a_node1"><a xlink:href="Node.html" xlink:title="&lt;TABLE&gt;">
<g id="a_node1_0"><a xlink:href="Node.html" xlink:title="de.lmu.ifi.dbs.elki.index.tree.Node" target="_parent">
<polygon fill="none" stroke="#000000" points="30.5,-78 30.5,-106 81.5,-106 81.5,-78 30.5,-78"/>
<text text-anchor="start" x="34.5" y="-95.6" font-family="Roboto" font-size="8.00" fill="#000000"> «interface» </text>
<text text-anchor="start" x="43.5" y="-85.6" font-family="Roboto" font-size="8.00" fill="#000000"> </text>
<text text-anchor="start" x="46.5" y="-85.6" font-family="Roboto" font-size="8.00" fill="#000000">Node</text>
<text text-anchor="start" x="65.5" y="-85.6" font-family="Roboto" font-size="8.00" fill="#000000"> </text>
</a>
</g>
</a>
</g>
</g>
<!-- c1191018 -->
<g id="node2" class="node">
<title>c1191018</title>
<g id="a_node2"><a xlink:href="AbstractNode.html" xlink:title="&lt;TABLE&gt;">
<g id="a_node2_1"><a xlink:href="AbstractNode.html" xlink:title="de.lmu.ifi.dbs.elki.index.tree.AbstractNode" target="_parent">
<polygon fill="#fffacd" stroke="transparent" points="129,-44.5 129,-61.5 191,-61.5 191,-44.5 129,-44.5"/>
<polygon fill="none" stroke="#000000" points="129,-44 129,-61 191,-61 191,-44 129,-44"/>
<text text-anchor="start" x="133" y="-51.6" font-family="Roboto" font-size="8.00" fill="#000000"> </text>
<text text-anchor="start" x="136" y="-51.6" font-family="Roboto" font-style="italic" font-size="8.00" fill="#000000">AbstractNode</text>
<text text-anchor="start" x="184" y="-51.6" font-family="Roboto" font-size="8.00" fill="#000000"> </text>
</a>
</g>
</a>
</g>
</g>
<!-- c1191014&#45;&gt;c1191018 -->
<g id="edge3" class="edge">
<title>c1191014&#45;&gt;c1191018</title>
<path fill="none" stroke="#000000" stroke-dasharray="5,2" d="M90.8203,-79.4158C97.5319,-76.9838 104.4902,-74.4346 111,-72 119.8878,-68.676 129.6412,-64.917 138.09,-61.625"/>
<polygon fill="none" stroke="#000000" points="89.4647,-76.1839 81.2444,-82.868 91.8388,-82.7691 89.4647,-76.1839"/>
</g>
<!-- c1191020 -->
<g id="node3" class="node">
<title>c1191020</title>
<g id="a_node3"><a xlink:href="Entry.html" xlink:title="&lt;TABLE&gt;">
<g id="a_node3_2"><a xlink:href="Entry.html" xlink:title="de.lmu.ifi.dbs.elki.index.tree.Entry" target="_parent">
<polygon fill="none" stroke="#000000" points="275.5,-78 275.5,-106 326.5,-106 326.5,-78 275.5,-78"/>
<text text-anchor="start" x="279.5" y="-95.6" font-family="Roboto" font-size="8.00" fill="#000000"> «interface» </text>
<text text-anchor="start" x="288.5" y="-85.6" font-family="Roboto" font-size="8.00" fill="#000000"> </text>
<text text-anchor="start" x="291.5" y="-85.6" font-family="Roboto" font-size="8.00" fill="#000000">Entry</text>
<text text-anchor="start" x="310.5" y="-85.6" font-family="Roboto" font-size="8.00" fill="#000000"> </text>
</a>
</g>
</a>
</g>
</g>
<!-- c1191014&#45;&gt;c1191020 -->
<g id="edge1" class="edge">
<title>c1191014&#45;&gt;c1191020</title>
<path fill="none" stroke="#000000" d="M93.5124,-92C143.8852,-92 231.4197,-92 274.7212,-92"/>
<polygon fill="#000000" stroke="#000000" points="93.2562,-92.0001 87.2562,-96 81.2562,-92 87.2563,-88 93.2562,-92.0001"/>
</g>
<!-- c1191018&#45;&gt;c1191020 -->
<g id="edge6" class="edge">
<title>c1191018&#45;&gt;c1191020</title>
<path fill="none" stroke="#000000" d="M180.2567,-61.6664C188.9916,-65.1905 199.3899,-69.1055 209,-72 227.1799,-77.4757 247.8113,-82.1171 264.8758,-85.5461"/>
<polygon fill="#000000" stroke="#000000" points="274.986,-87.5211 264.3087,-90.0203 270.0788,-86.5625 265.1715,-85.6038 265.1715,-85.6038 265.1715,-85.6038 270.0788,-86.5625 266.0343,-81.1873 274.986,-87.5211 274.986,-87.5211"/>
<text text-anchor="middle" x="272.986" y="-81.9211" font-family="Roboto" font-size="7.00" fill="#000000">*</text>
</g>
<!-- c1191128 -->
<g id="node5" class="node">
<title>c1191128</title>
<g id="a_node5"><a xlink:href="metrical/mtreevariants/AbstractMTreeNode.html" xlink:title="&lt;TABLE&gt;">
<g id="a_node5_3"><a xlink:href="metrical/mtreevariants/AbstractMTreeNode.html" xlink:title="de.lmu.ifi.dbs.elki.index.tree.metrical.mtreevariants.AbstractMTreeNode" target="_parent">
<polygon fill="none" stroke="#000000" points="209.5,-39 209.5,-67 392.5,-67 392.5,-39 209.5,-39"/>
<text text-anchor="start" x="263" y="-57.6" font-family="Roboto" font-size="8.00" fill="#000000"> </text>
<text text-anchor="start" x="266" y="-57.6" font-family="Roboto" font-style="italic" font-size="8.00" fill="#000000">AbstractMTreeNode</text>
<text text-anchor="start" x="336" y="-57.6" font-family="Roboto" font-size="8.00" fill="#000000"> </text>
<text text-anchor="start" x="213.5" y="-46.6" font-family="Roboto" font-size="8.00" fill="#000000"> </text>
<text text-anchor="start" x="216.5" y="-46.6" font-family="Roboto" font-size="7.00" fill="#000000">de.lmu.ifi.dbs.elki.index.tree.metrical.mtreevariants</text>
<text text-anchor="start" x="385.5" y="-46.6" font-family="Roboto" font-size="8.00" fill="#000000"> </text>
</a>
</g>
</a>
</g>
</g>
<!-- c1191018&#45;&gt;c1191128 -->
<g id="edge4" class="edge">
<title>c1191018&#45;&gt;c1191128</title>
<path fill="none" stroke="#000000" d="M201.4225,-53C203.8499,-53 206.3329,-53 208.8566,-53"/>
<polygon fill="none" stroke="#000000" points="201.1815,-49.5001 191.1815,-53 201.1815,-56.5001 201.1815,-49.5001"/>
</g>
<!-- c1191224 -->
<g id="node6" class="node">
<title>c1191224</title>
<g id="a_node6"><a xlink:href="spatial/rstarvariants/AbstractRStarTreeNode.html" xlink:title="&lt;TABLE&gt;">
<g id="a_node6_4"><a xlink:href="spatial/rstarvariants/AbstractRStarTreeNode.html" xlink:title="de.lmu.ifi.dbs.elki.index.tree.spatial.rstarvariants.AbstractRStarTreeNode" target="_parent">
<polygon fill="none" stroke="#000000" points="214.5,0 214.5,-28 387.5,-28 387.5,0 214.5,0"/>
<text text-anchor="start" x="257" y="-18.6" font-family="Roboto" font-size="8.00" fill="#000000"> </text>
<text text-anchor="start" x="260" y="-18.6" font-family="Roboto" font-style="italic" font-size="8.00" fill="#000000">AbstractRStarTreeNode</text>
<text text-anchor="start" x="342" y="-18.6" font-family="Roboto" font-size="8.00" fill="#000000"> </text>
<text text-anchor="start" x="218.5" y="-7.6" font-family="Roboto" font-size="8.00" fill="#000000"> </text>
<text text-anchor="start" x="221.5" y="-7.6" font-family="Roboto" font-size="7.00" fill="#000000">de.lmu.ifi.dbs.elki.index.tree.spatial.rstarvariants</text>
<text text-anchor="start" x="380.5" y="-7.6" font-family="Roboto" font-size="8.00" fill="#000000"> </text>
</a>
</g>
</a>
</g>
</g>
<!-- c1191018&#45;&gt;c1191224 -->
<g id="edge5" class="edge">
<title>c1191018&#45;&gt;c1191224</title>
<path fill="none" stroke="#000000" d="M188.1993,-40.4655C194.9301,-37.7608 202.1506,-35.0898 209,-33 214.7417,-31.2482 220.735,-29.6059 226.7874,-28.078"/>
<polygon fill="none" stroke="#000000" points="186.672,-37.3102 178.7886,-44.3885 189.3654,-43.7713 186.672,-37.3102"/>
</g>
<!-- c1191027 -->
<g id="node4" class="node">
<title>c1191027</title>
<g id="a_node4"><a xlink:href="../../persistent/AbstractExternalizablePage.html" xlink:title="&lt;TABLE&gt;">
<g id="a_node4_5"><a xlink:href="../../persistent/AbstractExternalizablePage.html" xlink:title="de.lmu.ifi.dbs.elki.persistent.AbstractExternalizablePage" target="_parent">
<polygon fill="none" stroke="#000000" points=".5,-39 .5,-67 111.5,-67 111.5,-39 .5,-39"/>
<text text-anchor="start" x="4.5" y="-57.6" font-family="Roboto" font-size="8.00" fill="#000000"> </text>
<text text-anchor="start" x="7.5" y="-57.6" font-family="Roboto" font-style="italic" font-size="8.00" fill="#000000">AbstractExternalizablePage</text>
<text text-anchor="start" x="104.5" y="-57.6" font-family="Roboto" font-size="8.00" fill="#000000"> </text>
<text text-anchor="start" x="7" y="-46.6" font-family="Roboto" font-size="8.00" fill="#000000"> </text>
<text text-anchor="start" x="10" y="-46.6" font-family="Roboto" font-size="7.00" fill="#000000">de.lmu.ifi.dbs.elki.persistent</text>
<text text-anchor="start" x="102" y="-46.6" font-family="Roboto" font-size="8.00" fill="#000000"> </text>
</a>
</g>
</a>
</g>
</g>
<!-- c1191027&#45;&gt;c1191018 -->
<g id="edge2" class="edge">
<title>c1191027&#45;&gt;c1191018</title>
<path fill="none" stroke="#000000" d="M121.1999,-53C123.7695,-53 126.2925,-53 128.7417,-53"/>
<polygon fill="none" stroke="#000000" points="121.1156,-49.5001 111.1156,-53 121.1156,-56.5001 121.1156,-49.5001"/>
</g>
</g>
</svg>
