<?xml version="1.0" encoding="UTF-8" standalone="no"?>
<!DOCTYPE svg PUBLIC "-//W3C//DTD SVG 1.1//EN"
 "http://www.w3.org/Graphics/SVG/1.1/DTD/svg11.dtd">
<!-- Generated by graphviz version 2.40.1 (20161225.0304)
 -->
<!-- Title: G Pages: 1 -->
<svg width="804pt" height="180pt"
 viewBox="0.00 0.00 804.00 180.00" xmlns="http://www.w3.org/2000/svg" xmlns:xlink="http://www.w3.org/1999/xlink">
<g id="graph0" class="graph" transform="scale(1 1) rotate(0) translate(4 176)">
<title>G</title>
<polygon fill="#ffffff" stroke="transparent" points="-4,4 -4,-176 800,-176 800,4 -4,4"/>
<!-- c3867146 -->
<g id="node1" class="node">
<title>c3867146</title>
<g id="a_node1"><a xlink:href="Node.html" xlink:title="&lt;TABLE&gt;">
<g id="a_node1_0"><a xlink:href="Node.html" xlink:title="de.lmu.ifi.dbs.elki.index.tree.Node" target="_parent">
<polygon fill="none" stroke="#000000" points="154.5,-103.5 154.5,-131.5 205.5,-131.5 205.5,-103.5 154.5,-103.5"/>
<text text-anchor="start" x="158.5" y="-121.1" font-family="Roboto" font-size="8.00" fill="#000000"> «interface» </text>
<text text-anchor="start" x="167.5" y="-111.1" font-family="Roboto" font-size="8.00" fill="#000000"> </text>
<text text-anchor="start" x="170.5" y="-111.1" font-family="Roboto" font-size="8.00" fill="#000000">Node</text>
<text text-anchor="start" x="189.5" y="-111.1" font-family="Roboto" font-size="8.00" fill="#000000"> </text>
</a>
</g>
</a>
</g>
</g>
<!-- c3867150 -->
<g id="node5" class="node">
<title>c3867150</title>
<g id="a_node5"><a xlink:href="AbstractNode.html" xlink:title="&lt;TABLE&gt;">
<g id="a_node5_1"><a xlink:href="AbstractNode.html" xlink:title="de.lmu.ifi.dbs.elki.index.tree.AbstractNode" target="_parent">
<polygon fill="none" stroke="#000000" points="329,-108.5 329,-125.5 391,-125.5 391,-108.5 329,-108.5"/>
<text text-anchor="start" x="333" y="-116.1" font-family="Roboto" font-size="8.00" fill="#000000"> </text>
<text text-anchor="start" x="336" y="-116.1" font-family="Roboto" font-style="italic" font-size="8.00" fill="#000000">AbstractNode</text>
<text text-anchor="start" x="384" y="-116.1" font-family="Roboto" font-size="8.00" fill="#000000"> </text>
</a>
</g>
</a>
</g>
</g>
<!-- c3867146&#45;&gt;c3867150 -->
<g id="edge5" class="edge">
<title>c3867146&#45;&gt;c3867150</title>
<path fill="none" stroke="#000000" stroke-dasharray="5,2" d="M215.526,-117.5C248.6351,-117.5 297.2169,-117.5 328.73,-117.5"/>
<polygon fill="none" stroke="#000000" points="215.3613,-114.0001 205.3612,-117.5 215.3612,-121.0001 215.3613,-114.0001"/>
</g>
<!-- c3867152 -->
<g id="node6" class="node">
<title>c3867152</title>
<g id="a_node6"><a xlink:href="Entry.html" xlink:title="&lt;TABLE&gt;">
<g id="a_node6_2"><a xlink:href="Entry.html" xlink:title="de.lmu.ifi.dbs.elki.index.tree.Entry" target="_parent">
<polygon fill="#fffacd" stroke="transparent" points="543,-77.5 543,-105.5 594,-105.5 594,-77.5 543,-77.5"/>
<polygon fill="none" stroke="#000000" points="543.5,-77.5 543.5,-105.5 594.5,-105.5 594.5,-77.5 543.5,-77.5"/>
<text text-anchor="start" x="547.5" y="-95.1" font-family="Roboto" font-size="8.00" fill="#000000"> «interface» </text>
<text text-anchor="start" x="556.5" y="-85.1" font-family="Roboto" font-size="8.00" fill="#000000"> </text>
<text text-anchor="start" x="559.5" y="-85.1" font-family="Roboto" font-size="8.00" fill="#000000">Entry</text>
<text text-anchor="start" x="578.5" y="-85.1" font-family="Roboto" font-size="8.00" fill="#000000"> </text>
</a>
</g>
</a>
</g>
</g>
<!-- c3867146&#45;&gt;c3867152 -->
<g id="edge1" class="edge">
<title>c3867146&#45;&gt;c3867152</title>
<path fill="none" stroke="#000000" d="M216.8945,-104.9488C219.2828,-104.392 221.6651,-103.9003 224,-103.5 341.6741,-83.3233 485.1582,-87.3062 542.7611,-90.0471"/>
<polygon fill="#000000" stroke="#000000" points="216.6735,-105.0088 211.9324,-110.4421 205.0934,-108.1555 209.8346,-102.7221 216.6735,-105.0088"/>
</g>
<!-- c3867147 -->
<g id="node2" class="node">
<title>c3867147</title>
<g id="a_node2"><a xlink:href="IndexTreePath.html" xlink:title="&lt;TABLE&gt;">
<g id="a_node2_3"><a xlink:href="IndexTreePath.html" xlink:title="de.lmu.ifi.dbs.elki.index.tree.IndexTreePath" target="_parent">
<polygon fill="none" stroke="#000000" points="328,-136.5 328,-153.5 393,-153.5 393,-136.5 328,-136.5"/>
<text text-anchor="start" x="332" y="-144.1" font-family="Roboto" font-size="8.00" fill="#000000"> </text>
<text text-anchor="start" x="335" y="-144.1" font-family="Roboto" font-size="8.00" fill="#000000">IndexTreePath</text>
<text text-anchor="start" x="386" y="-144.1" font-family="Roboto" font-size="8.00" fill="#000000"> </text>
</a>
</g>
</a>
</g>
</g>
<!-- c3867147&#45;&gt;c3867147 -->
<g id="edge9" class="edge">
<title>c3867147&#45;&gt;c3867147</title>
<path fill="none" stroke="#000000" d="M335.1357,-154.1212C328.6494,-159.6648 336.9375,-165 360,-165 368.8286,-165 375.4921,-164.2182 379.9905,-162.9421"/>
<polygon fill="#000000" stroke="#000000" points="384.8643,-154.1212 383.9668,-165.0503 382.4461,-158.4976 380.028,-162.874 380.028,-162.874 380.028,-162.874 382.4461,-158.4976 376.0893,-160.6977 384.8643,-154.1212 384.8643,-154.1212"/>
</g>
<!-- c3867147&#45;&gt;c3867152 -->
<g id="edge2" class="edge">
<title>c3867147&#45;&gt;c3867152</title>
<path fill="none" stroke="#000000" d="M404.7847,-145.3729C431.7524,-144.2032 466.4719,-140.7433 496,-131.5 511.1241,-126.7656 526.6671,-118.691 539.4635,-111.0309"/>
<polygon fill="none" stroke="#000000" points="404.6003,-145.3788 398.7339,-149.5724 392.6067,-145.7702 398.473,-141.5766 404.6003,-145.3788"/>
<polygon fill="#000000" stroke="#000000" points="548.2506,-105.5802 542.1249,-114.6756 544.0017,-108.2159 539.7527,-110.8516 539.7527,-110.8516 539.7527,-110.8516 544.0017,-108.2159 537.3806,-107.0275 548.2506,-105.5802 548.2506,-105.5802"/>
<text text-anchor="middle" x="519.5" y="-129.9" font-family="Roboto" font-size="7.00" fill="#000000">contains</text>
</g>
<!-- c3867148 -->
<g id="node3" class="node">
<title>c3867148</title>
<g id="a_node3"><a xlink:href="DirectoryEntry.html" xlink:title="&lt;TABLE&gt;">
<g id="a_node3_4"><a xlink:href="DirectoryEntry.html" xlink:title="de.lmu.ifi.dbs.elki.index.tree.DirectoryEntry" target="_parent">
<polygon fill="none" stroke="#000000" points="672.5,-139.5 672.5,-167.5 736.5,-167.5 736.5,-139.5 672.5,-139.5"/>
<text text-anchor="start" x="683" y="-157.1" font-family="Roboto" font-size="8.00" fill="#000000"> «interface» </text>
<text text-anchor="start" x="676.5" y="-147.1" font-family="Roboto" font-size="8.00" fill="#000000"> </text>
<text text-anchor="start" x="679.5" y="-147.1" font-family="Roboto" font-size="8.00" fill="#000000">DirectoryEntry</text>
<text text-anchor="start" x="729.5" y="-147.1" font-family="Roboto" font-size="8.00" fill="#000000"> </text>
</a>
</g>
</a>
</g>
</g>
<!-- c3867149 -->
<g id="node4" class="node">
<title>c3867149</title>
<g id="a_node4"><a xlink:href="LeafEntry.html" xlink:title="&lt;TABLE&gt;">
<g id="a_node4_5"><a xlink:href="LeafEntry.html" xlink:title="de.lmu.ifi.dbs.elki.index.tree.LeafEntry" target="_parent">
<polygon fill="none" stroke="#000000" points="679.5,-100.5 679.5,-128.5 730.5,-128.5 730.5,-100.5 679.5,-100.5"/>
<text text-anchor="start" x="683.5" y="-118.1" font-family="Roboto" font-size="8.00" fill="#000000"> «interface» </text>
<text text-anchor="start" x="685" y="-108.1" font-family="Roboto" font-size="8.00" fill="#000000"> </text>
<text text-anchor="start" x="688" y="-108.1" font-family="Roboto" font-size="8.00" fill="#000000">LeafEntry</text>
<text text-anchor="start" x="722" y="-108.1" font-family="Roboto" font-size="8.00" fill="#000000"> </text>
</a>
</g>
</a>
</g>
</g>
<!-- c3867150&#45;&gt;c3867152 -->
<g id="edge10" class="edge">
<title>c3867150&#45;&gt;c3867152</title>
<path fill="none" stroke="#000000" d="M391.2747,-115.4458C424.2472,-113.0219 477.9068,-108.3482 533.0117,-99.4482"/>
<polygon fill="#000000" stroke="#000000" points="542.9489,-97.799 533.8207,-103.8756 538.0164,-98.6176 533.0839,-99.4363 533.0839,-99.4363 533.0839,-99.4363 538.0164,-98.6176 532.3471,-94.997 542.9489,-97.799 542.9489,-97.799"/>
<text text-anchor="middle" x="540.9489" y="-92.199" font-family="Roboto" font-size="7.00" fill="#000000">*</text>
</g>
<!-- c3867152&#45;&gt;c3867148 -->
<g id="edge3" class="edge">
<title>c3867152&#45;&gt;c3867148</title>
<path fill="none" stroke="#000000" stroke-dasharray="5,2" d="M586.2747,-113.2279C593.7505,-121.0446 603.0284,-129.226 613,-134.5 631.2142,-144.1335 653.8754,-148.8848 672.0888,-151.2271"/>
<polygon fill="none" stroke="#000000" points="588.7384,-110.7337 579.4407,-105.654 583.5413,-115.4231 588.7384,-110.7337"/>
</g>
<!-- c3867152&#45;&gt;c3867149 -->
<g id="edge4" class="edge">
<title>c3867152&#45;&gt;c3867149</title>
<path fill="none" stroke="#000000" stroke-dasharray="5,2" d="M603.9663,-97.498C627.3413,-101.4511 657.4268,-106.5391 678.5717,-110.1151"/>
<polygon fill="none" stroke="#000000" points="604.5242,-94.0427 594.0806,-95.8261 603.3569,-100.9447 604.5242,-94.0427"/>
</g>
<!-- c3867181 -->
<g id="node8" class="node">
<title>c3867181</title>
<g id="a_node8"><a xlink:href="metrical/mtreevariants/MTreeEntry.html" xlink:title="&lt;TABLE&gt;">
<g id="a_node8_6"><a xlink:href="metrical/mtreevariants/MTreeEntry.html" xlink:title="de.lmu.ifi.dbs.elki.index.tree.metrical.mtreevariants.MTreeEntry" target="_parent">
<polygon fill="none" stroke="#000000" points="613.5,-49.5 613.5,-88.5 796.5,-88.5 796.5,-49.5 613.5,-49.5"/>
<text text-anchor="start" x="683.5" y="-78.1" font-family="Roboto" font-size="8.00" fill="#000000"> «interface» </text>
<text text-anchor="start" x="681" y="-68.1" font-family="Roboto" font-size="8.00" fill="#000000"> </text>
<text text-anchor="start" x="684" y="-68.1" font-family="Roboto" font-size="8.00" fill="#000000">MTreeEntry</text>
<text text-anchor="start" x="726" y="-68.1" font-family="Roboto" font-size="8.00" fill="#000000"> </text>
<text text-anchor="start" x="617.5" y="-57.1" font-family="Roboto" font-size="8.00" fill="#000000"> </text>
<text text-anchor="start" x="620.5" y="-57.1" font-family="Roboto" font-size="7.00" fill="#000000">de.lmu.ifi.dbs.elki.index.tree.metrical.mtreevariants</text>
<text text-anchor="start" x="789.5" y="-57.1" font-family="Roboto" font-size="8.00" fill="#000000"> </text>
</a>
</g>
</a>
</g>
</g>
<!-- c3867152&#45;&gt;c3867181 -->
<g id="edge6" class="edge">
<title>c3867152&#45;&gt;c3867181</title>
<path fill="none" stroke="#000000" stroke-dasharray="5,2" d="M603.9643,-85.7631C606.8298,-85.2996 609.7961,-84.8197 612.8345,-84.3282"/>
<polygon fill="none" stroke="#000000" points="603.3933,-82.3099 594.0806,-87.362 604.5112,-89.2201 603.3933,-82.3099"/>
</g>
<!-- c3867417 -->
<g id="node10" class="node">
<title>c3867417</title>
<g id="a_node10"><a xlink:href="spatial/SpatialEntry.html" xlink:title="&lt;TABLE&gt;">
<g id="a_node10_7"><a xlink:href="spatial/SpatialEntry.html" xlink:title="de.lmu.ifi.dbs.elki.index.tree.spatial.SpatialEntry" target="_parent">
<polygon fill="none" stroke="#000000" points="640.5,.5 640.5,-38.5 769.5,-38.5 769.5,.5 640.5,.5"/>
<text text-anchor="start" x="683.5" y="-28.1" font-family="Roboto" font-size="8.00" fill="#000000"> «interface» </text>
<text text-anchor="start" x="680.5" y="-18.1" font-family="Roboto" font-size="8.00" fill="#000000"> </text>
<text text-anchor="start" x="683.5" y="-18.1" font-family="Roboto" font-size="8.00" fill="#000000">SpatialEntry</text>
<text text-anchor="start" x="726.5" y="-18.1" font-family="Roboto" font-size="8.00" fill="#000000"> </text>
<text text-anchor="start" x="644.5" y="-7.1" font-family="Roboto" font-size="8.00" fill="#000000"> </text>
<text text-anchor="start" x="647.5" y="-7.1" font-family="Roboto" font-size="7.00" fill="#000000">de.lmu.ifi.dbs.elki.index.tree.spatial</text>
<text text-anchor="start" x="762.5" y="-7.1" font-family="Roboto" font-size="8.00" fill="#000000"> </text>
</a>
</g>
</a>
</g>
</g>
<!-- c3867152&#45;&gt;c3867417 -->
<g id="edge8" class="edge">
<title>c3867152&#45;&gt;c3867417</title>
<path fill="none" stroke="#000000" stroke-dasharray="5,2" d="M585.0138,-69.334C592.6451,-60.4664 602.3723,-50.8664 613,-44.5 621.1936,-39.5917 630.3712,-35.6242 639.6664,-32.4232"/>
<polygon fill="none" stroke="#000000" points="582.2398,-67.1975 578.6291,-77.1581 587.6633,-71.6232 582.2398,-67.1975"/>
</g>
<!-- c3867179 -->
<g id="node7" class="node">
<title>c3867179</title>
<g id="a_node7"><a xlink:href="metrical/MetricalIndexTree.html" xlink:title="&lt;TABLE&gt;">
<g id="a_node7_8"><a xlink:href="metrical/MetricalIndexTree.html" xlink:title="de.lmu.ifi.dbs.elki.index.tree.metrical.MetricalIndexTree" target="_parent">
<polygon fill="none" stroke="#000000" points=".5,-80.5 .5,-108.5 135.5,-108.5 135.5,-80.5 .5,-80.5"/>
<text text-anchor="start" x="33.5" y="-99.1" font-family="Roboto" font-size="8.00" fill="#000000"> </text>
<text text-anchor="start" x="36.5" y="-99.1" font-family="Roboto" font-style="italic" font-size="8.00" fill="#000000">MetricalIndexTree</text>
<text text-anchor="start" x="99.5" y="-99.1" font-family="Roboto" font-size="8.00" fill="#000000"> </text>
<text text-anchor="start" x="4.5" y="-88.1" font-family="Roboto" font-size="8.00" fill="#000000"> </text>
<text text-anchor="start" x="7.5" y="-88.1" font-family="Roboto" font-size="7.00" fill="#000000">de.lmu.ifi.dbs.elki.index.tree.metrical</text>
<text text-anchor="start" x="128.5" y="-88.1" font-family="Roboto" font-size="8.00" fill="#000000"> </text>
</a>
</g>
</a>
</g>
</g>
<!-- c3867179&#45;&gt;c3867146 -->
<g id="edge12" class="edge">
<title>c3867179&#45;&gt;c3867146</title>
<path fill="none" stroke="#000000" stroke-dasharray="5,2" d="M135.2346,-108.4098C138.0563,-108.9892 140.8363,-109.5601 143.5443,-110.1162"/>
<polygon fill="#000000" stroke="#000000" points="153.5675,-112.1746 142.8666,-114.5709 148.6697,-111.1687 143.7719,-110.1629 143.7719,-110.1629 143.7719,-110.1629 148.6697,-111.1687 144.6772,-105.7549 153.5675,-112.1746 153.5675,-112.1746"/>
</g>
<!-- c3867179&#45;&gt;c3867152 -->
<g id="edge11" class="edge">
<title>c3867179&#45;&gt;c3867152</title>
<path fill="none" stroke="#000000" stroke-dasharray="5,2" d="M135.2521,-89.7524C162.7762,-88.0458 194.8919,-86.3363 224,-85.5 344.839,-82.0283 375.1216,-83.9098 496,-85.5 510.3857,-85.6893 515.6198,-85.2398 532.7577,-86.5761"/>
<polygon fill="#000000" stroke="#000000" points="542.9163,-87.4505 532.5672,-91.0763 537.9348,-87.0217 532.9532,-86.5929 532.9532,-86.5929 532.9532,-86.5929 537.9348,-87.0217 533.3391,-82.1094 542.9163,-87.4505 542.9163,-87.4505"/>
</g>
<!-- c3867257 -->
<g id="node9" class="node">
<title>c3867257</title>
<g id="a_node9"><a xlink:href="metrical/mtreevariants/strategies/split/distribution/DistanceEntry.html" xlink:title="&lt;TABLE&gt;">
<g id="a_node9_9"><a xlink:href="metrical/mtreevariants/strategies/split/distribution/DistanceEntry.html" xlink:title="de.lmu.ifi.dbs.elki.index.tree.metrical.mtreevariants.strategies.split.distribution.DistanceEntry" target="_parent">
<polygon fill="none" stroke="#000000" points="224,-23.5 224,-51.5 496,-51.5 496,-23.5 224,-23.5"/>
<text text-anchor="start" x="332.5" y="-42.1" font-family="Roboto" font-size="8.00" fill="#000000"> </text>
<text text-anchor="start" x="335.5" y="-42.1" font-family="Roboto" font-size="8.00" fill="#000000">DistanceEntry</text>
<text text-anchor="start" x="384.5" y="-42.1" font-family="Roboto" font-size="8.00" fill="#000000"> </text>
<text text-anchor="start" x="228" y="-31.1" font-family="Roboto" font-size="8.00" fill="#000000"> </text>
<text text-anchor="start" x="231" y="-31.1" font-family="Roboto" font-size="7.00" fill="#000000">de.lmu.ifi.dbs.elki.index.tree.metrical.mtreevariants.strategies.split.distribution</text>
<text text-anchor="start" x="489" y="-31.1" font-family="Roboto" font-size="8.00" fill="#000000"> </text>
</a>
</g>
</a>
</g>
</g>
<!-- c3867257&#45;&gt;c3867152 -->
<g id="edge7" class="edge">
<title>c3867257&#45;&gt;c3867152</title>
<path fill="none" stroke="#000000" d="M496.4189,-45.6889C509.3907,-49.0526 522.1211,-53.2656 534,-58.5 543.6003,-62.7303 552.7371,-70.3683 559.1934,-77.349"/>
</g>
<!-- c3867257&#45;&gt;c3867152 -->
<g id="edge13" class="edge">
<title>c3867257&#45;&gt;c3867152</title>
<path fill="none" stroke="#000000" stroke-dasharray="5,2" d="M474.3222,-51.5794C494.7413,-55.62 515.413,-61.3097 534,-69.5 535.6015,-70.2057 537.1901,-71.0062 538.7556,-71.8751"/>
<polygon fill="#000000" stroke="#000000" points="547.396,-77.4134 536.5487,-75.8055 543.1865,-74.7152 538.977,-72.017 538.977,-72.017 538.977,-72.017 543.1865,-74.7152 541.4054,-68.2284 547.396,-77.4134 547.396,-77.4134"/>
</g>
</g>
</svg>
