<?xml version="1.0" encoding="UTF-8" standalone="no"?>
<!DOCTYPE svg PUBLIC "-//W3C//DTD SVG 1.1//EN"
 "http://www.w3.org/Graphics/SVG/1.1/DTD/svg11.dtd">
<!-- Generated by graphviz version 2.40.1 (20161225.0304)
 -->
<!-- Title: G Pages: 1 -->
<svg width="332pt" height="47pt"
 viewBox="0.00 0.00 332.00 47.00" xmlns="http://www.w3.org/2000/svg" xmlns:xlink="http://www.w3.org/1999/xlink">
<g id="graph0" class="graph" transform="scale(1 1) rotate(0) translate(4 43)">
<title>G</title>
<polygon fill="#ffffff" stroke="transparent" points="-4,4 -4,-43 328,-43 328,4 -4,4"/>
<!-- c1749264 -->
<g id="node1" class="node">
<title>c1749264</title>
<g id="a_node1"><a xlink:href="AutotuningPCA.html" xlink:title="&lt;TABLE&gt;">
<g id="a_node1_0"><a xlink:href="AutotuningPCA.html" xlink:title="de.lmu.ifi.dbs.elki.math.linearalgebra.pca.AutotuningPCA" target="_parent">
<polygon fill="#fffacd" stroke="transparent" points="73,-11 73,-28 141,-28 141,-11 73,-11"/>
<polygon fill="none" stroke="#000000" points="73,-10.5 73,-27.5 141,-27.5 141,-10.5 73,-10.5"/>
<text text-anchor="start" x="77" y="-18.1" font-family="Roboto" font-size="8.00" fill="#000000"> </text>
<text text-anchor="start" x="80" y="-18.1" font-family="Roboto" font-size="8.00" fill="#000000">AutotuningPCA</text>
<text text-anchor="start" x="134" y="-18.1" font-family="Roboto" font-size="8.00" fill="#000000"> </text>
</a>
</g>
</a>
</g>
</g>
<!-- c1750081 -->
<g id="node2" class="node">
<title>c1750081</title>
<g id="a_node2"><a xlink:href="filter/EigenPairFilter.html" xlink:title="&lt;TABLE&gt;">
<g id="a_node2_1"><a xlink:href="filter/EigenPairFilter.html" xlink:title="de.lmu.ifi.dbs.elki.math.linearalgebra.pca.filter.EigenPairFilter" target="_parent">
<polygon fill="none" stroke="#000000" points="159.5,.5 159.5,-38.5 324.5,-38.5 324.5,.5 159.5,.5"/>
<text text-anchor="start" x="220.5" y="-28.1" font-family="Roboto" font-size="8.00" fill="#000000"> «interface» </text>
<text text-anchor="start" x="213" y="-18.1" font-family="Roboto" font-size="8.00" fill="#000000"> </text>
<text text-anchor="start" x="216" y="-18.1" font-family="Roboto" font-size="8.00" fill="#000000">EigenPairFilter</text>
<text text-anchor="start" x="268" y="-18.1" font-family="Roboto" font-size="8.00" fill="#000000"> </text>
<text text-anchor="start" x="163.5" y="-7.1" font-family="Roboto" font-size="8.00" fill="#000000"> </text>
<text text-anchor="start" x="166.5" y="-7.1" font-family="Roboto" font-size="7.00" fill="#000000">de.lmu.ifi.dbs.elki.math.linearalgebra.pca.filter</text>
<text text-anchor="start" x="317.5" y="-7.1" font-family="Roboto" font-size="8.00" fill="#000000"> </text>
</a>
</g>
</a>
</g>
</g>
<!-- c1749264&#45;&gt;c1750081 -->
<g id="edge2" class="edge">
<title>c1749264&#45;&gt;c1750081</title>
<path fill="none" stroke="#000000" d="M141.288,-19.5C143.7056,-19.5 146.1987,-19.5 148.7493,-19.5"/>
<polygon fill="#000000" stroke="#000000" points="158.8336,-19.5 148.8337,-24.0001 153.8336,-19.5 148.8336,-19.5001 148.8336,-19.5001 148.8336,-19.5001 153.8336,-19.5 148.8336,-15.0001 158.8336,-19.5 158.8336,-19.5"/>
</g>
<!-- c1750093 -->
<g id="node3" class="node">
<title>c1750093</title>
<g id="a_node3"><a xlink:href="PCARunner.html" xlink:title="&lt;TABLE&gt;">
<g id="a_node3_2"><a xlink:href="PCARunner.html" xlink:title="de.lmu.ifi.dbs.elki.math.linearalgebra.pca.PCARunner" target="_parent">
<polygon fill="#fffacd" stroke="transparent" points="0,-11 0,-28 55,-28 55,-11 0,-11"/>
<polygon fill="none" stroke="#000000" points=".5,-10.5 .5,-27.5 55.5,-27.5 55.5,-10.5 .5,-10.5"/>
<text text-anchor="start" x="4.5" y="-18.1" font-family="Roboto" font-size="8.00" fill="#000000"> </text>
<text text-anchor="start" x="7.5" y="-18.1" font-family="Roboto" font-size="8.00" fill="#000000">PCARunner</text>
<text text-anchor="start" x="48.5" y="-18.1" font-family="Roboto" font-size="8.00" fill="#000000"> </text>
</a>
</g>
</a>
</g>
</g>
<!-- c1750093&#45;&gt;c1749264 -->
<g id="edge1" class="edge">
<title>c1750093&#45;&gt;c1749264</title>
<path fill="none" stroke="#000000" d="M65.3455,-19.5C67.8255,-19.5 70.3154,-19.5 72.7766,-19.5"/>
<polygon fill="none" stroke="#000000" points="65.3053,-16.0001 55.3052,-19.5 65.3052,-23.0001 65.3053,-16.0001"/>
</g>
</g>
</svg>
