<?xml version="1.0" encoding="UTF-8" standalone="no"?>
<!DOCTYPE svg PUBLIC "-//W3C//DTD SVG 1.1//EN"
 "http://www.w3.org/Graphics/SVG/1.1/DTD/svg11.dtd">
<!-- Generated by graphviz version 2.40.1 (20161225.0304)
 -->
<!-- Title: G Pages: 1 -->
<svg width="605pt" height="332pt"
 viewBox="0.00 0.00 605.00 332.00" xmlns="http://www.w3.org/2000/svg" xmlns:xlink="http://www.w3.org/1999/xlink">
<g id="graph0" class="graph" transform="scale(1 1) rotate(0) translate(4 328)">
<title>G</title>
<polygon fill="#ffffff" stroke="transparent" points="-4,4 -4,-328 601,-328 601,4 -4,4"/>
<!-- c7887152 -->
<g id="node1" class="node">
<title>c7887152</title>
<g id="a_node1"><a xlink:href="../../../algorithm/DependencyDerivator.html" xlink:title="&lt;TABLE&gt;">
<g id="a_node1_0"><a xlink:href="../../../algorithm/DependencyDerivator.html" xlink:title="de.lmu.ifi.dbs.elki.algorithm.DependencyDerivator" target="_parent">
<polygon fill="none" stroke="#000000" points="241,-296 241,-324 346,-324 346,-296 241,-296"/>
<text text-anchor="start" x="252.5" y="-314.6" font-family="Roboto" font-size="8.00" fill="#000000"> </text>
<text text-anchor="start" x="255.5" y="-314.6" font-family="Roboto" font-size="8.00" fill="#000000">DependencyDerivator</text>
<text text-anchor="start" x="331.5" y="-314.6" font-family="Roboto" font-size="8.00" fill="#000000"> </text>
<text text-anchor="start" x="245" y="-303.6" font-family="Roboto" font-size="8.00" fill="#000000"> </text>
<text text-anchor="start" x="248" y="-303.6" font-family="Roboto" font-size="7.00" fill="#000000">de.lmu.ifi.dbs.elki.algorithm</text>
<text text-anchor="start" x="339" y="-303.6" font-family="Roboto" font-size="8.00" fill="#000000"> </text>
</a>
</g>
</a>
</g>
</g>
<!-- c7888901 -->
<g id="node11" class="node">
<title>c7888901</title>
<g id="a_node11"><a xlink:href="PCARunner.html" xlink:title="&lt;TABLE&gt;">
<g id="a_node11_1"><a xlink:href="PCARunner.html" xlink:title="de.lmu.ifi.dbs.elki.math.linearalgebra.pca.PCARunner" target="_parent">
<polygon fill="#fffacd" stroke="transparent" points="401,-122.5 401,-139.5 456,-139.5 456,-122.5 401,-122.5"/>
<polygon fill="none" stroke="#000000" points="401.5,-122 401.5,-139 456.5,-139 456.5,-122 401.5,-122"/>
<text text-anchor="start" x="405.5" y="-129.6" font-family="Roboto" font-size="8.00" fill="#000000"> </text>
<text text-anchor="start" x="408.5" y="-129.6" font-family="Roboto" font-size="8.00" fill="#000000">PCARunner</text>
<text text-anchor="start" x="449.5" y="-129.6" font-family="Roboto" font-size="8.00" fill="#000000"> </text>
</a>
</g>
</a>
</g>
</g>
<!-- c7887152&#45;&gt;c7888901 -->
<g id="edge7" class="edge">
<title>c7887152&#45;&gt;c7888901</title>
<path fill="none" stroke="#000000" d="M345.9168,-308.135C359.0504,-305.3128 372.1659,-300.1457 382,-291 402.8284,-271.6296 419.0968,-187.6013 425.52,-149.6847"/>
<polygon fill="#000000" stroke="#000000" points="427.1914,-139.5205 430.009,-150.1182 426.3801,-144.4543 425.5687,-149.388 425.5687,-149.388 425.5687,-149.388 426.3801,-144.4543 421.1283,-148.6577 427.1914,-139.5205 427.1914,-139.5205"/>
</g>
<!-- c7887537 -->
<g id="node2" class="node">
<title>c7887537</title>
<g id="a_node2"><a xlink:href="../../../index/preprocessed/localpca/AbstractFilteredPCAIndex.html" xlink:title="&lt;TABLE&gt;">
<g id="a_node2_2"><a xlink:href="../../../index/preprocessed/localpca/AbstractFilteredPCAIndex.html" xlink:title="de.lmu.ifi.dbs.elki.index.preprocessed.localpca.AbstractFilteredPCAIndex" target="_parent">
<polygon fill="none" stroke="#000000" points="211,-257 211,-285 376,-285 376,-257 211,-257"/>
<text text-anchor="start" x="245" y="-275.6" font-family="Roboto" font-size="8.00" fill="#000000"> </text>
<text text-anchor="start" x="248" y="-275.6" font-family="Roboto" font-style="italic" font-size="8.00" fill="#000000">AbstractFilteredPCAIndex</text>
<text text-anchor="start" x="339" y="-275.6" font-family="Roboto" font-size="8.00" fill="#000000"> </text>
<text text-anchor="start" x="215" y="-264.6" font-family="Roboto" font-size="8.00" fill="#000000"> </text>
<text text-anchor="start" x="218" y="-264.6" font-family="Roboto" font-size="7.00" fill="#000000">de.lmu.ifi.dbs.elki.index.preprocessed.localpca</text>
<text text-anchor="start" x="369" y="-264.6" font-family="Roboto" font-size="8.00" fill="#000000"> </text>
</a>
</g>
</a>
</g>
</g>
<!-- c7887537&#45;&gt;c7888901 -->
<g id="edge8" class="edge">
<title>c7887537&#45;&gt;c7888901</title>
<path fill="none" stroke="#000000" d="M375.8896,-259.0554C381.7461,-256.0809 387.2156,-252.4423 392,-248 406.5179,-234.5202 419.2274,-178.7468 425.078,-149.3394"/>
<polygon fill="#000000" stroke="#000000" points="426.9739,-139.5029 429.4999,-150.1738 426.0276,-144.4125 425.0812,-149.3221 425.0812,-149.3221 425.0812,-149.3221 426.0276,-144.4125 420.6626,-148.4704 426.9739,-139.5029 426.9739,-139.5029"/>
</g>
<!-- c7887538 -->
<g id="node3" class="node">
<title>c7887538</title>
<g id="a_node3"><a xlink:href="../../../index/preprocessed/localpca/AbstractFilteredPCAIndex.Factory.html" xlink:title="&lt;TABLE&gt;">
<g id="a_node3_3"><a xlink:href="../../../index/preprocessed/localpca/AbstractFilteredPCAIndex.Factory.html" xlink:title="de.lmu.ifi.dbs.elki.index.preprocessed.localpca.AbstractFilteredPCAIndex.Factory" target="_parent">
<polygon fill="none" stroke="#000000" points=".5,-231 .5,-270 165.5,-270 165.5,-231 .5,-231"/>
<text text-anchor="start" x="64.5" y="-259.6" font-family="Roboto" font-size="8.00" fill="#000000"> «factory» </text>
<text text-anchor="start" x="20.5" y="-249.6" font-family="Roboto" font-size="8.00" fill="#000000"> </text>
<text text-anchor="start" x="23.5" y="-249.6" font-family="Roboto" font-style="italic" font-size="8.00" fill="#000000">AbstractFilteredPCAIndex.Factory</text>
<text text-anchor="start" x="142.5" y="-249.6" font-family="Roboto" font-size="8.00" fill="#000000"> </text>
<text text-anchor="start" x="4.5" y="-238.6" font-family="Roboto" font-size="8.00" fill="#000000"> </text>
<text text-anchor="start" x="7.5" y="-238.6" font-family="Roboto" font-size="7.00" fill="#000000">de.lmu.ifi.dbs.elki.index.preprocessed.localpca</text>
<text text-anchor="start" x="158.5" y="-238.6" font-family="Roboto" font-size="8.00" fill="#000000"> </text>
</a>
</g>
</a>
</g>
</g>
<!-- c7887538&#45;&gt;c7887537 -->
<g id="edge1" class="edge">
<title>c7887538&#45;&gt;c7887537</title>
<path fill="none" stroke="#000000" d="M165.091,-258.8471C176.583,-259.939 188.4534,-261.0668 200.1183,-262.1751"/>
<polygon fill="#000000" stroke="#000000" points="210.3017,-263.1427 199.9208,-266.6766 205.3241,-262.6697 200.3465,-262.1967 200.3465,-262.1967 200.3465,-262.1967 205.3241,-262.6697 200.7722,-257.7169 210.3017,-263.1427 210.3017,-263.1427"/>
<text text-anchor="middle" x="184.5" y="-263.4" font-family="Roboto" font-size="7.00" fill="#000000">create</text>
</g>
<!-- c7887538&#45;&gt;c7888901 -->
<g id="edge9" class="edge">
<title>c7887538&#45;&gt;c7888901</title>
<path fill="none" stroke="#000000" d="M165.0411,-249.1641C247.4861,-246.6592 364.4448,-241.0242 382,-229 408.8376,-210.6179 420.6287,-172.4249 425.4597,-149.5245"/>
<polygon fill="#000000" stroke="#000000" points="427.3077,-139.6648 429.8884,-150.3226 426.3865,-144.5792 425.4654,-149.4936 425.4654,-149.4936 425.4654,-149.4936 426.3865,-144.5792 421.0424,-148.6646 427.3077,-139.6648 427.3077,-139.6648"/>
</g>
<!-- c7887767 -->
<g id="node4" class="node">
<title>c7887767</title>
<g id="a_node4"><a xlink:href="../../../algorithm/clustering/correlation/COPAC.Settings.html" xlink:title="&lt;TABLE&gt;">
<g id="a_node4_4"><a xlink:href="../../../algorithm/clustering/correlation/COPAC.Settings.html" xlink:title="de.lmu.ifi.dbs.elki.algorithm.clustering.correlation.COPAC.Settings" target="_parent">
<polygon fill="none" stroke="#000000" points="204,-195 204,-223 382,-223 382,-195 204,-195"/>
<text text-anchor="start" x="262" y="-213.6" font-family="Roboto" font-size="8.00" fill="#000000"> </text>
<text text-anchor="start" x="265" y="-213.6" font-family="Roboto" font-size="8.00" fill="#000000">COPAC.Settings</text>
<text text-anchor="start" x="321" y="-213.6" font-family="Roboto" font-size="8.00" fill="#000000"> </text>
<text text-anchor="start" x="208" y="-202.6" font-family="Roboto" font-size="8.00" fill="#000000"> </text>
<text text-anchor="start" x="211" y="-202.6" font-family="Roboto" font-size="7.00" fill="#000000">de.lmu.ifi.dbs.elki.algorithm.clustering.correlation</text>
<text text-anchor="start" x="375" y="-202.6" font-family="Roboto" font-size="8.00" fill="#000000"> </text>
</a>
</g>
</a>
</g>
</g>
<!-- c7887767&#45;&gt;c7888901 -->
<g id="edge10" class="edge">
<title>c7887767&#45;&gt;c7888901</title>
<path fill="none" stroke="#000000" d="M373.181,-194.7954C376.2298,-193.3472 379.1833,-191.7535 382,-190 398.2149,-179.9055 411.0958,-162.0514 419.1504,-148.6196"/>
<polygon fill="#000000" stroke="#000000" points="424.1412,-139.795 423.1354,-150.7146 421.6798,-144.1472 419.2184,-148.4994 419.2184,-148.4994 419.2184,-148.4994 421.6798,-144.1472 415.3014,-146.2841 424.1412,-139.795 424.1412,-139.795"/>
</g>
<!-- c7887770 -->
<g id="node5" class="node">
<title>c7887770</title>
<g id="a_node5"><a xlink:href="../../../algorithm/clustering/correlation/ERiC.Settings.html" xlink:title="&lt;TABLE&gt;">
<g id="a_node5_5"><a xlink:href="../../../algorithm/clustering/correlation/ERiC.Settings.html" xlink:title="de.lmu.ifi.dbs.elki.algorithm.clustering.correlation.ERiC.Settings" target="_parent">
<polygon fill="none" stroke="#000000" points="204,-156 204,-184 382,-184 382,-156 204,-156"/>
<text text-anchor="start" x="266" y="-174.6" font-family="Roboto" font-size="8.00" fill="#000000"> </text>
<text text-anchor="start" x="269" y="-174.6" font-family="Roboto" font-size="8.00" fill="#000000">ERiC.Settings</text>
<text text-anchor="start" x="317" y="-174.6" font-family="Roboto" font-size="8.00" fill="#000000"> </text>
<text text-anchor="start" x="208" y="-163.6" font-family="Roboto" font-size="8.00" fill="#000000"> </text>
<text text-anchor="start" x="211" y="-163.6" font-family="Roboto" font-size="7.00" fill="#000000">de.lmu.ifi.dbs.elki.algorithm.clustering.correlation</text>
<text text-anchor="start" x="375" y="-163.6" font-family="Roboto" font-size="8.00" fill="#000000"> </text>
</a>
</g>
</a>
</g>
</g>
<!-- c7887770&#45;&gt;c7888901 -->
<g id="edge11" class="edge">
<title>c7887770&#45;&gt;c7888901</title>
<path fill="none" stroke="#000000" d="M364.7305,-155.9699C370.6104,-154.4314 376.4297,-152.7736 382,-151 388.3745,-148.9703 395.0697,-146.3792 401.3312,-143.7401"/>
<polygon fill="#000000" stroke="#000000" points="410.7052,-139.6272 403.3559,-147.7659 406.1265,-141.6361 401.5478,-143.6451 401.5478,-143.6451 401.5478,-143.6451 406.1265,-141.6361 399.7398,-139.5243 410.7052,-139.6272 410.7052,-139.6272"/>
</g>
<!-- c7887776 -->
<g id="node6" class="node">
<title>c7887776</title>
<g id="a_node6"><a xlink:href="../../../algorithm/clustering/correlation/ORCLUS.html" xlink:title="&lt;TABLE&gt;">
<g id="a_node6_6"><a xlink:href="../../../algorithm/clustering/correlation/ORCLUS.html" xlink:title="de.lmu.ifi.dbs.elki.algorithm.clustering.correlation.ORCLUS" target="_parent">
<polygon fill="none" stroke="#000000" points="204,-117 204,-145 382,-145 382,-117 204,-117"/>
<text text-anchor="start" x="274" y="-135.6" font-family="Roboto" font-size="8.00" fill="#000000"> </text>
<text text-anchor="start" x="277" y="-135.6" font-family="Roboto" font-size="8.00" fill="#000000">ORCLUS</text>
<text text-anchor="start" x="309" y="-135.6" font-family="Roboto" font-size="8.00" fill="#000000"> </text>
<text text-anchor="start" x="208" y="-124.6" font-family="Roboto" font-size="8.00" fill="#000000"> </text>
<text text-anchor="start" x="211" y="-124.6" font-family="Roboto" font-size="7.00" fill="#000000">de.lmu.ifi.dbs.elki.algorithm.clustering.correlation</text>
<text text-anchor="start" x="375" y="-124.6" font-family="Roboto" font-size="8.00" fill="#000000"> </text>
</a>
</g>
</a>
</g>
</g>
<!-- c7887776&#45;&gt;c7888901 -->
<g id="edge2" class="edge">
<title>c7887776&#45;&gt;c7888901</title>
<path fill="none" stroke="#000000" d="M394.2651,-131C396.5678,-131 398.8015,-131 400.9507,-131"/>
<polygon fill="none" stroke="#000000" points="394.2476,-131.0001 388.2475,-135 382.2476,-131 388.2476,-127 394.2476,-131.0001"/>
</g>
<!-- c7888002 -->
<g id="node7" class="node">
<title>c7888002</title>
<g id="a_node7"><a xlink:href="../../../algorithm/clustering/gdbscan/FourCNeighborPredicate.html" xlink:title="&lt;TABLE&gt;">
<g id="a_node7_7"><a xlink:href="../../../algorithm/clustering/gdbscan/FourCNeighborPredicate.html" xlink:title="de.lmu.ifi.dbs.elki.algorithm.clustering.gdbscan.FourCNeighborPredicate" target="_parent">
<polygon fill="none" stroke="#000000" points="209,-78 209,-106 378,-106 378,-78 209,-78"/>
<text text-anchor="start" x="247.5" y="-96.6" font-family="Roboto" font-size="8.00" fill="#000000"> </text>
<text text-anchor="start" x="250.5" y="-96.6" font-family="Roboto" font-size="8.00" fill="#000000">FourCNeighborPredicate</text>
<text text-anchor="start" x="336.5" y="-96.6" font-family="Roboto" font-size="8.00" fill="#000000"> </text>
<text text-anchor="start" x="213" y="-85.6" font-family="Roboto" font-size="8.00" fill="#000000"> </text>
<text text-anchor="start" x="216" y="-85.6" font-family="Roboto" font-size="7.00" fill="#000000">de.lmu.ifi.dbs.elki.algorithm.clustering.gdbscan</text>
<text text-anchor="start" x="371" y="-85.6" font-family="Roboto" font-size="8.00" fill="#000000"> </text>
</a>
</g>
</a>
</g>
</g>
<!-- c7888002&#45;&gt;c7888901 -->
<g id="edge12" class="edge">
<title>c7888002&#45;&gt;c7888901</title>
<path fill="none" stroke="#000000" d="M360.8609,-106.0092C368.0427,-107.8602 375.2013,-109.8635 382,-112 387.8628,-113.8424 394.0213,-116.1101 399.8686,-118.4295"/>
<polygon fill="#000000" stroke="#000000" points="409.308,-122.3155 398.3478,-122.6698 404.6844,-120.412 400.0609,-118.5086 400.0609,-118.5086 400.0609,-118.5086 404.6844,-120.412 401.774,-114.3474 409.308,-122.3155 409.308,-122.3155"/>
</g>
<!-- c7888072 -->
<g id="node8" class="node">
<title>c7888072</title>
<g id="a_node8"><a xlink:href="AutotuningPCA.html" xlink:title="&lt;TABLE&gt;">
<g id="a_node8_8"><a xlink:href="AutotuningPCA.html" xlink:title="de.lmu.ifi.dbs.elki.math.linearalgebra.pca.AutotuningPCA" target="_parent">
<polygon fill="none" stroke="#000000" points="512,-122 512,-139 580,-139 580,-122 512,-122"/>
<text text-anchor="start" x="516" y="-129.6" font-family="Roboto" font-size="8.00" fill="#000000"> </text>
<text text-anchor="start" x="519" y="-129.6" font-family="Roboto" font-size="8.00" fill="#000000">AutotuningPCA</text>
<text text-anchor="start" x="573" y="-129.6" font-family="Roboto" font-size="8.00" fill="#000000"> </text>
</a>
</g>
</a>
</g>
</g>
<!-- c7888867 -->
<g id="node9" class="node">
<title>c7888867</title>
<g id="a_node9"><a xlink:href="PCAResult.html" xlink:title="&lt;TABLE&gt;">
<g id="a_node9_9"><a xlink:href="PCAResult.html" xlink:title="de.lmu.ifi.dbs.elki.math.linearalgebra.pca.PCAResult" target="_parent">
<polygon fill="#fffacd" stroke="transparent" points="520.5,-94.5 520.5,-111.5 571.5,-111.5 571.5,-94.5 520.5,-94.5"/>
<polygon fill="none" stroke="#000000" points="521,-94 521,-111 572,-111 572,-94 521,-94"/>
<text text-anchor="start" x="525" y="-101.6" font-family="Roboto" font-size="8.00" fill="#000000"> </text>
<text text-anchor="start" x="528" y="-101.6" font-family="Roboto" font-size="8.00" fill="#000000">PCAResult</text>
<text text-anchor="start" x="565" y="-101.6" font-family="Roboto" font-size="8.00" fill="#000000"> </text>
</a>
</g>
</a>
</g>
</g>
<!-- c7888900 -->
<g id="node10" class="node">
<title>c7888900</title>
<g id="a_node10"><a xlink:href="CovarianceMatrixBuilder.html" xlink:title="&lt;TABLE&gt;">
<g id="a_node10_10"><a xlink:href="CovarianceMatrixBuilder.html" xlink:title="de.lmu.ifi.dbs.elki.math.linearalgebra.pca.CovarianceMatrixBuilder" target="_parent">
<polygon fill="none" stroke="#000000" points="495,-55 495,-83 597,-83 597,-55 495,-55"/>
<text text-anchor="start" x="524.5" y="-72.6" font-family="Roboto" font-size="8.00" fill="#000000"> «interface» </text>
<text text-anchor="start" x="499" y="-62.6" font-family="Roboto" font-size="8.00" fill="#000000"> </text>
<text text-anchor="start" x="502" y="-62.6" font-family="Roboto" font-size="8.00" fill="#000000">CovarianceMatrixBuilder</text>
<text text-anchor="start" x="590" y="-62.6" font-family="Roboto" font-size="8.00" fill="#000000"> </text>
</a>
</g>
</a>
</g>
</g>
<!-- c7888901&#45;&gt;c7888072 -->
<g id="edge3" class="edge">
<title>c7888901&#45;&gt;c7888072</title>
<path fill="none" stroke="#000000" d="M466.3045,-131C480.9611,-131 497.6189,-131 511.9019,-131"/>
<polygon fill="none" stroke="#000000" points="466.0486,-127.5001 456.0485,-131 466.0485,-134.5001 466.0486,-127.5001"/>
</g>
<!-- c7888901&#45;&gt;c7888867 -->
<g id="edge5" class="edge">
<title>c7888901&#45;&gt;c7888867</title>
<path fill="none" stroke="#000000" d="M456.363,-123.216C459.2743,-122.4477 462.194,-121.6957 465,-121 479.8517,-117.3177 496.3236,-113.5922 510.5144,-110.4934"/>
<polygon fill="#000000" stroke="#000000" points="520.3885,-108.3573 511.5661,-114.8701 515.5016,-109.4146 510.6146,-110.4718 510.6146,-110.4718 510.6146,-110.4718 515.5016,-109.4146 509.6631,-106.0736 520.3885,-108.3573 520.3885,-108.3573"/>
<text text-anchor="middle" x="475.5" y="-123.4" font-family="Roboto" font-size="7.00" fill="#000000">create</text>
</g>
<!-- c7888901&#45;&gt;c7888900 -->
<g id="edge4" class="edge">
<title>c7888901&#45;&gt;c7888900</title>
<path fill="none" stroke="#000000" d="M450.8653,-115.3767C463.4819,-106.9504 479.7345,-96.726 495,-89 499.0732,-86.9385 503.4119,-84.947 507.7733,-83.0716"/>
<polygon fill="#000000" stroke="#000000" points="450.7486,-115.4561 448.041,-122.1396 440.8302,-122.2108 443.5379,-115.5273 450.7486,-115.4561"/>
</g>
<!-- c7889707 -->
<g id="node12" class="node">
<title>c7889707</title>
<g id="a_node12"><a xlink:href="../../../datasource/filter/transform/GlobalPrincipalComponentAnalysisTransform.html" xlink:title="&lt;TABLE&gt;">
<g id="a_node12_11"><a xlink:href="../../../datasource/filter/transform/GlobalPrincipalComponentAnalysisTransform.html" xlink:title="de.lmu.ifi.dbs.elki.datasource.filter.transform.GlobalPrincipalComponentAnalysisTransform" target="_parent">
<polygon fill="none" stroke="#000000" points="205,-39 205,-67 381,-67 381,-39 205,-39"/>
<text text-anchor="start" x="209" y="-57.6" font-family="Roboto" font-size="8.00" fill="#000000"> </text>
<text text-anchor="start" x="212" y="-57.6" font-family="Roboto" font-size="8.00" fill="#000000">GlobalPrincipalComponentAnalysisTransform</text>
<text text-anchor="start" x="374" y="-57.6" font-family="Roboto" font-size="8.00" fill="#000000"> </text>
<text text-anchor="start" x="217" y="-46.6" font-family="Roboto" font-size="8.00" fill="#000000"> </text>
<text text-anchor="start" x="220" y="-46.6" font-family="Roboto" font-size="7.00" fill="#000000">de.lmu.ifi.dbs.elki.datasource.filter.transform</text>
<text text-anchor="start" x="366" y="-46.6" font-family="Roboto" font-size="8.00" fill="#000000"> </text>
</a>
</g>
</a>
</g>
</g>
<!-- c7889707&#45;&gt;c7888901 -->
<g id="edge6" class="edge">
<title>c7889707&#45;&gt;c7888901</title>
<path fill="none" stroke="#000000" d="M381.6719,-72.7963C381.7815,-72.864 381.8908,-72.9319 382,-73 401.9257,-85.4377 417.0222,-109.5056 424.0848,-122.3806"/>
<polygon fill="#000000" stroke="#000000" points="381.5838,-72.7498 374.4101,-73.4831 370.974,-67.1433 378.1478,-66.4099 381.5838,-72.7498"/>
</g>
<!-- c7890001 -->
<g id="node13" class="node">
<title>c7890001</title>
<g id="a_node13"><a xlink:href="../../../algorithm/outlier/COP.html" xlink:title="&lt;TABLE&gt;">
<g id="a_node13_12"><a xlink:href="../../../algorithm/outlier/COP.html" xlink:title="de.lmu.ifi.dbs.elki.algorithm.outlier.COP" target="_parent">
<polygon fill="none" stroke="#000000" points="229,0 229,-28 358,-28 358,0 229,0"/>
<text text-anchor="start" x="282.5" y="-18.6" font-family="Roboto" font-size="8.00" fill="#000000"> </text>
<text text-anchor="start" x="285.5" y="-18.6" font-family="Roboto" font-size="8.00" fill="#000000">COP</text>
<text text-anchor="start" x="301.5" y="-18.6" font-family="Roboto" font-size="8.00" fill="#000000"> </text>
<text text-anchor="start" x="233" y="-7.6" font-family="Roboto" font-size="8.00" fill="#000000"> </text>
<text text-anchor="start" x="236" y="-7.6" font-family="Roboto" font-size="7.00" fill="#000000">de.lmu.ifi.dbs.elki.algorithm.outlier</text>
<text text-anchor="start" x="351" y="-7.6" font-family="Roboto" font-size="8.00" fill="#000000"> </text>
</a>
</g>
</a>
</g>
</g>
<!-- c7890001&#45;&gt;c7888901 -->
<g id="edge13" class="edge">
<title>c7890001&#45;&gt;c7888901</title>
<path fill="none" stroke="#000000" d="M357.9262,-21.2743C366.6086,-24.267 374.938,-28.3773 382,-34 406.9969,-53.9023 419.3514,-90.5289 424.7969,-112.6352"/>
<polygon fill="#000000" stroke="#000000" points="426.9929,-122.4457 420.4171,-113.6702 425.9006,-117.5664 424.8084,-112.6872 424.8084,-112.6872 424.8084,-112.6872 425.9006,-117.5664 429.1997,-111.7041 426.9929,-122.4457 426.9929,-122.4457"/>
</g>
</g>
</svg>
