<?xml version="1.0" encoding="UTF-8" standalone="no"?><svg xmlns="http://www.w3.org/2000/svg" xmlns:xlink="http://www.w3.org/1999/xlink" contentStyleType="text/css" height="301px" preserveAspectRatio="none" style="width:877px;height:301px;background:#FFFFFF;" version="1.1" viewBox="0 0 877 301" width="877px" zoomAndPan="magnify"><defs/><g><!--MD5=[018cbef444889e5e9d877f7262f24ca4]
class elki.datasource.filter.transform.HistogramJitterFilter--><a href="HistogramJitterFilter.html" target="_top" title="HistogramJitterFilter.html" xlink:actuate="onRequest" xlink:href="HistogramJitterFilter.html" xlink:show="new" xlink:title="HistogramJitterFilter.html" xlink:type="simple"><g id="elem_elki.datasource.filter.transform.HistogramJitterFilter"><rect codeLine="6" fill="#F1F1F1" height="168.0156" id="elki.datasource.filter.transform.HistogramJitterFilter" rx="2.5" ry="2.5" style="stroke:#181818;stroke-width:0.5;" width="857" x="9" y="108"/><ellipse cx="281.75" cy="126.9688" fill="#ADD1B2" rx="11" ry="11" style="stroke:#181818;stroke-width:1.0;"/><path d="M284.7188,132.6094 Q284.1406,132.9063 283.5,133.0469 Q282.8594,133.2031 282.1563,133.2031 Q279.6563,133.2031 278.3281,131.5625 Q277.0156,129.9063 277.0156,126.7813 Q277.0156,123.6563 278.3281,122 Q279.6563,120.3438 282.1563,120.3438 Q282.8594,120.3438 283.5,120.5 Q284.1563,120.6563 284.7188,120.9531 L284.7188,123.6719 Q284.0938,123.0938 283.5,122.8281 Q282.9063,122.5469 282.2813,122.5469 Q280.9375,122.5469 280.25,123.625 Q279.5625,124.6875 279.5625,126.7813 Q279.5625,128.875 280.25,129.9531 Q280.9375,131.0156 282.2813,131.0156 Q282.9063,131.0156 283.5,130.75 Q284.0938,130.4688 284.7188,129.8906 L284.7188,132.6094 Z " fill="#000000"/><text fill="#000000" font-family="sans-serif" font-size="14" lengthAdjust="spacing" textLength="133" x="310.25" y="125.9951">HistogramJitterFilter</text><text fill="#000000" font-family="sans-serif" font-size="10" lengthAdjust="spacing" textLength="149" x="302.25" y="138.5791">elki.datasource.filter.transform</text><rect fill="#FFFFFF" height="15.9688" style="stroke:#181818;stroke-width:1.0;stroke-dasharray:2.0,2.0;" width="152" x="717" y="105"/><text fill="#000000" font-family="sans-serif" font-size="12" font-style="italic" lengthAdjust="spacing" textLength="150" x="718" y="117.1387">V extends NumberVector</text><line style="stroke:#181818;stroke-width:0.5;" x1="10" x2="865" y1="145.9375" y2="145.9375"/><polygon fill="none" points="20,155.5859,16,161.5859,24,161.5859" style="stroke:#1963A0;stroke-width:1.0;"/><text fill="#000000" font-family="sans-serif" font-size="14" lengthAdjust="spacing" textLength="87" x="29" y="162.9326">jitter: double</text><polygon fill="none" points="20,171.8828,16,177.8828,24,177.8828" style="stroke:#1963A0;stroke-width:1.0;"/><text fill="#000000" font-family="sans-serif" font-size="14" lengthAdjust="spacing" textLength="113" x="29" y="179.2295">dist: Distribution</text><polygon fill="none" points="20,188.1797,16,194.1797,24,194.1797" style="stroke:#1963A0;stroke-width:1.0;"/><text fill="#000000" font-family="sans-serif" font-size="14" lengthAdjust="spacing" textLength="90" x="29" y="195.5264">rnd: Random</text><line style="stroke:#181818;stroke-width:0.5;" x1="10" x2="865" y1="202.8281" y2="202.8281"/><ellipse cx="20" cy="216.4766" fill="#84BE84" rx="3" ry="3" style="stroke:#038048;stroke-width:1.0;"/><text fill="#000000" font-family="sans-serif" font-size="14" lengthAdjust="spacing" textLength="307" x="29" y="219.8232">HistogramJitterFilter(double, RandomFactory)</text><polygon fill="#FFFF44" points="20,227.7734,24,231.7734,20,235.7734,16,231.7734" style="stroke:#B38D22;stroke-width:1.0;"/><text fill="#000000" font-family="sans-serif" font-size="14" lengthAdjust="spacing" textLength="481" x="29" y="236.1201">filterSingleObject(V extends NumberVector): V extends NumberVector</text><polygon fill="#FFFF44" points="20,244.0703,24,248.0703,20,252.0703,16,248.0703" style="stroke:#B38D22;stroke-width:1.0;"/><text fill="#000000" font-family="sans-serif" font-size="14" lengthAdjust="spacing" textLength="521" x="29" y="252.417">getInputTypeRestriction(): SimpleTypeInformation&lt;? super NumberVector&gt;</text><polygon fill="#FFFF44" points="20,260.3672,24,264.3672,20,268.3672,16,264.3672" style="stroke:#B38D22;stroke-width:1.0;"/><text fill="#000000" font-family="sans-serif" font-size="14" lengthAdjust="spacing" textLength="831" x="29" y="268.7139">convertedType(SimpleTypeInformation&lt;V extends NumberVector&gt;): SimpleTypeInformation&lt;V extends NumberVector&gt;</text></g></a><!--MD5=[956acd795b0e7153355bab9290a15dee]
class elki.datasource.filter.AbstractVectorStreamConversionFilter--><a href="../AbstractVectorStreamConversionFilter.html" target="_top" title="../AbstractVectorStreamConversionFilter.html" xlink:actuate="onRequest" xlink:href="../AbstractVectorStreamConversionFilter.html" xlink:show="new" xlink:title="../AbstractVectorStreamConversionFilter.html" xlink:type="simple"><g id="elem_elki.datasource.filter.AbstractVectorStreamConversionFilter"><rect codeLine="16" fill="#F1F1F1" height="37.9375" id="elki.datasource.filter.AbstractVectorStreamConversionFilter" rx="2.5" ry="2.5" style="stroke:#181818;stroke-width:0.5;" width="613" x="131" y="10"/><ellipse cx="146" cy="28.9688" fill="#A9DCDF" rx="11" ry="11" style="stroke:#181818;stroke-width:1.0;"/><path d="M146.1094,24.3125 L144.9531,29.3906 L147.2813,29.3906 L146.1094,24.3125 Z M144.625,22.0781 L147.6094,22.0781 L150.9688,34.4688 L148.5156,34.4688 L147.75,31.4063 L144.4688,31.4063 L143.7188,34.4688 L141.2813,34.4688 L144.625,22.0781 Z " fill="#000000"/><text fill="#000000" font-family="sans-serif" font-size="14" font-style="italic" lengthAdjust="spacing" textLength="269" x="160" y="27.9951">AbstractVectorStreamConversionFilter</text><text fill="#000000" font-family="sans-serif" font-size="10" font-style="italic" lengthAdjust="spacing" textLength="103" x="243" y="40.5791">elki.datasource.filter</text><rect fill="#FFFFFF" height="15.9688" style="stroke:#181818;stroke-width:1.0;stroke-dasharray:2.0,2.0;" width="310" x="437" y="7"/><text fill="#000000" font-family="sans-serif" font-size="12" font-style="italic" lengthAdjust="spacing" textLength="308" x="438" y="19.1387">V extends NumberVector, V extends NumberVector</text></g></a><!--MD5=[72ae03c411a87208c052fc6ddc14130d]
reverse link elki.datasource.filter.AbstractVectorStreamConversionFilter to elki.datasource.filter.transform.HistogramJitterFilter--><g id="link_elki.datasource.filter.AbstractVectorStreamConversionFilter_elki.datasource.filter.transform.HistogramJitterFilter"><path codeLine="19" d="M437.5,68.53 C437.5,80.44 437.5,94.04 437.5,107.75 " fill="none" id="elki.datasource.filter.AbstractVectorStreamConversionFilter-backto-elki.datasource.filter.transform.HistogramJitterFilter" style="stroke:#181818;stroke-width:1.0;"/><polygon fill="none" points="430.5,68.16,437.5,48.16,444.5,68.16,430.5,68.16" style="stroke:#181818;stroke-width:1.0;"/></g><rect fill="none" height="11.6406" style="stroke:none;stroke-width:1.0;" width="186" x="338.5" y="282.0156"/><text fill="#888888" font-family="sans-serif" font-size="10" lengthAdjust="spacing" textLength="186" x="338.5" y="291.2979">UMLDoclet 2.0.19, PlantUML 1.2022.8</text><!--MD5=[290ee13d44e87dff29ca53232a297f92]
@startuml
    remove .*\.(Instance|Par|Parameterizer|Factory)$
    set namespaceSeparator none
    hide empty fields
    hide empty methods

    class "<size:14>HistogramJitterFilter\n<size:10>elki.datasource.filter.transform" as elki.datasource.filter.transform.HistogramJitterFilter<V extends NumberVector> [[HistogramJitterFilter.html]] {
        ~jitter: double
        ~dist: Distribution
        ~rnd: Random
        +HistogramJitterFilter(double, RandomFactory)
        #filterSingleObject(V extends NumberVector): V extends NumberVector
        #getInputTypeRestriction(): SimpleTypeInformation<? super NumberVector>
        #convertedType(SimpleTypeInformation<V extends NumberVector>): SimpleTypeInformation<V extends NumberVector>
    }

    abstract class "<size:14>AbstractVectorStreamConversionFilter\n<size:10>elki.datasource.filter" as elki.datasource.filter.AbstractVectorStreamConversionFilter<V extends NumberVector, V extends NumberVector> [[../AbstractVectorStreamConversionFilter.html]]
    class "<size:14>HistogramJitterFilter.Par\n<size:10>elki.datasource.filter.transform" as elki.datasource.filter.transform.HistogramJitterFilter.Par [[HistogramJitterFilter.Par.html]]

    elki.datasource.filter.AbstractVectorStreamConversionFilter <|- - elki.datasource.filter.transform.HistogramJitterFilter
    elki.datasource.filter.transform.HistogramJitterFilter +- - elki.datasource.filter.transform.HistogramJitterFilter.Par

    center footer UMLDoclet 2.0.19, PlantUML 1.2022.8
@enduml

PlantUML version 1.2022.8(Sun Sep 25 11:00:33 CEST 2022)
(APACHE source distribution)
Java Runtime: OpenJDK Runtime Environment
JVM: OpenJDK 64-Bit Server VM
Default Encoding: UTF-8
Language: de
Country: DE
--></g></svg>