<?xml version="1.0" encoding="UTF-8" standalone="no"?>
<!DOCTYPE svg PUBLIC "-//W3C//DTD SVG 1.1//EN"
 "http://www.w3.org/Graphics/SVG/1.1/DTD/svg11.dtd">
<!-- Generated by graphviz version 2.40.1 (20161225.0304)
 -->
<!-- Title: G Pages: 1 -->
<svg width="351pt" height="70pt"
 viewBox="0.00 0.00 351.00 70.00" xmlns="http://www.w3.org/2000/svg" xmlns:xlink="http://www.w3.org/1999/xlink">
<g id="graph0" class="graph" transform="scale(1 1) rotate(0) translate(4 66)">
<title>G</title>
<polygon fill="#ffffff" stroke="transparent" points="-4,4 -4,-66 347,-66 347,4 -4,4"/>
<!-- c7295575 -->
<g id="node1" class="node">
<title>c7295575</title>
<g id="a_node1"><a xlink:href="../TextWriter.html" xlink:title="&lt;TABLE&gt;">
<g id="a_node1_0"><a xlink:href="../TextWriter.html" xlink:title="de.lmu.ifi.dbs.elki.result.textwriter.TextWriter" target="_parent">
<polygon fill="#fffacd" stroke="transparent" points="0,-34 0,-62 126,-62 126,-34 0,-34"/>
<polygon fill="none" stroke="#000000" points="0,-34 0,-62 126,-62 126,-34 0,-34"/>
<text text-anchor="start" x="42" y="-52.6" font-family="Roboto" font-size="8.00" fill="#000000"> </text>
<text text-anchor="start" x="45" y="-52.6" font-family="Roboto" font-size="8.00" fill="#000000">TextWriter</text>
<text text-anchor="start" x="81" y="-52.6" font-family="Roboto" font-size="8.00" fill="#000000"> </text>
<text text-anchor="start" x="4" y="-41.6" font-family="Roboto" font-size="8.00" fill="#000000"> </text>
<text text-anchor="start" x="7" y="-41.6" font-family="Roboto" font-size="7.00" fill="#000000">de.lmu.ifi.dbs.elki.result.textwriter</text>
<text text-anchor="start" x="119" y="-41.6" font-family="Roboto" font-size="8.00" fill="#000000"> </text>
</a>
</g>
</a>
</g>
</g>
<!-- c7295576 -->
<g id="node2" class="node">
<title>c7295576</title>
<g id="a_node2"><a xlink:href="NamingScheme.html" xlink:title="&lt;TABLE&gt;">
<g id="a_node2_1"><a xlink:href="NamingScheme.html" xlink:title="de.lmu.ifi.dbs.elki.result.textwriter.naming.NamingScheme" target="_parent">
<polygon fill="#fffacd" stroke="transparent" points="144,-34 144,-62 214,-62 214,-34 144,-34"/>
<polygon fill="none" stroke="#000000" points="144,-34 144,-62 214,-62 214,-34 144,-34"/>
<text text-anchor="start" x="157.5" y="-51.6" font-family="Roboto" font-size="8.00" fill="#000000"> «interface» </text>
<text text-anchor="start" x="148" y="-41.6" font-family="Roboto" font-size="8.00" fill="#000000"> </text>
<text text-anchor="start" x="151" y="-41.6" font-family="Roboto" font-size="8.00" fill="#000000">NamingScheme</text>
<text text-anchor="start" x="207" y="-41.6" font-family="Roboto" font-size="8.00" fill="#000000"> </text>
</a>
</g>
</a>
</g>
</g>
<!-- c7295575&#45;&gt;c7295576 -->
<g id="edge1" class="edge">
<title>c7295575&#45;&gt;c7295576</title>
<path fill="none" stroke="#000000" d="M138.12,-48C140.0353,-48 141.9231,-48 143.7742,-48"/>
<polygon fill="none" stroke="#000000" points="138.0918,-48.0001 132.0918,-52 126.0918,-48 132.0919,-44 138.0918,-48.0001"/>
</g>
<!-- c7295577 -->
<g id="node3" class="node">
<title>c7295577</title>
<g id="a_node3"><a xlink:href="SimpleEnumeratingScheme.html" xlink:title="&lt;TABLE&gt;">
<g id="a_node3_2"><a xlink:href="SimpleEnumeratingScheme.html" xlink:title="de.lmu.ifi.dbs.elki.result.textwriter.naming.SimpleEnumeratingScheme" target="_parent">
<polygon fill="none" stroke="#000000" points="232.5,-39 232.5,-56 343.5,-56 343.5,-39 232.5,-39"/>
<text text-anchor="start" x="236.5" y="-46.6" font-family="Roboto" font-size="8.00" fill="#000000"> </text>
<text text-anchor="start" x="239.5" y="-46.6" font-family="Roboto" font-size="8.00" fill="#000000">SimpleEnumeratingScheme</text>
<text text-anchor="start" x="336.5" y="-46.6" font-family="Roboto" font-size="8.00" fill="#000000"> </text>
</a>
</g>
</a>
</g>
</g>
<!-- c7295576&#45;&gt;c7295577 -->
<g id="edge3" class="edge">
<title>c7295576&#45;&gt;c7295577</title>
<path fill="none" stroke="#000000" stroke-dasharray="5,2" d="M224.3633,-48C226.8789,-48 229.4206,-48 231.9662,-48"/>
<polygon fill="none" stroke="#000000" points="224.2269,-44.5001 214.2268,-48 224.2268,-51.5001 224.2269,-44.5001"/>
</g>
<!-- c7296109 -->
<g id="node4" class="node">
<title>c7296109</title>
<g id="a_node4"><a xlink:href="../../../data/Cluster.html" xlink:title="&lt;TABLE&gt;">
<g id="a_node4_3"><a xlink:href="../../../data/Cluster.html" xlink:title="de.lmu.ifi.dbs.elki.data.Cluster" target="_parent">
<polygon fill="#fffacd" stroke="transparent" points="244,0 244,-28 331,-28 331,0 244,0"/>
<polygon fill="none" stroke="#000000" points="244.5,0 244.5,-28 331.5,-28 331.5,0 244.5,0"/>
<text text-anchor="start" x="272.5" y="-18.6" font-family="Roboto" font-size="8.00" fill="#000000"> </text>
<text text-anchor="start" x="275.5" y="-18.6" font-family="Roboto" font-size="8.00" fill="#000000">Cluster</text>
<text text-anchor="start" x="300.5" y="-18.6" font-family="Roboto" font-size="8.00" fill="#000000"> </text>
<text text-anchor="start" x="248.5" y="-7.6" font-family="Roboto" font-size="8.00" fill="#000000"> </text>
<text text-anchor="start" x="251.5" y="-7.6" font-family="Roboto" font-size="7.00" fill="#000000">de.lmu.ifi.dbs.elki.data</text>
<text text-anchor="start" x="324.5" y="-7.6" font-family="Roboto" font-size="8.00" fill="#000000"> </text>
</a>
</g>
</a>
</g>
</g>
<!-- c7295576&#45;&gt;c7296109 -->
<g id="edge2" class="edge">
<title>c7295576&#45;&gt;c7296109</title>
<path fill="none" stroke="#000000" d="M214.2268,-36.9612C223.6322,-34.0139 233.9111,-30.7928 243.7158,-27.7204"/>
</g>
</g>
</svg>
