<?xml version="1.0" encoding="UTF-8" standalone="no"?><svg xmlns="http://www.w3.org/2000/svg" xmlns:xlink="http://www.w3.org/1999/xlink" contentStyleType="text/css" height="397px" preserveAspectRatio="none" style="width:468px;height:397px;background:#FFFFFF;" version="1.1" viewBox="0 0 468 397" width="468px" zoomAndPan="magnify"><defs/><g><!--MD5=[0f129ef2cf4c06b7bb4940862ef458bc]
class elki.clustering.subspace.clique.CLIQUEUnit--><a href="CLIQUEUnit.html" target="_top" title="CLIQUEUnit.html" xlink:actuate="onRequest" xlink:href="CLIQUEUnit.html" xlink:show="new" xlink:title="CLIQUEUnit.html" xlink:type="simple"><g id="elem_elki.clustering.subspace.clique.CLIQUEUnit"><rect codeLine="6" fill="#F1F1F1" height="363.5781" id="elki.clustering.subspace.clique.CLIQUEUnit" rx="2.5" ry="2.5" style="stroke:#181818;stroke-width:0.5;" width="447" x="7" y="7"/><ellipse cx="155.25" cy="25.9688" fill="#ADD1B2" rx="11" ry="11" style="stroke:#181818;stroke-width:1.0;"/><path d="M158.2188,31.6094 Q157.6406,31.9063 157,32.0469 Q156.3594,32.2031 155.6563,32.2031 Q153.1563,32.2031 151.8281,30.5625 Q150.5156,28.9063 150.5156,25.7813 Q150.5156,22.6563 151.8281,21 Q153.1563,19.3438 155.6563,19.3438 Q156.3594,19.3438 157,19.5 Q157.6563,19.6563 158.2188,19.9531 L158.2188,22.6719 Q157.5938,22.0938 157,21.8281 Q156.4063,21.5469 155.7813,21.5469 Q154.4375,21.5469 153.75,22.625 Q153.0625,23.6875 153.0625,25.7813 Q153.0625,27.875 153.75,28.9531 Q154.4375,30.0156 155.7813,30.0156 Q156.4063,30.0156 157,29.75 Q157.5938,29.4688 158.2188,28.8906 L158.2188,31.6094 Z " fill="#000000"/><text fill="#000000" font-family="sans-serif" font-size="14" lengthAdjust="spacing" textLength="77" x="208.25" y="24.9951">CLIQUEUnit</text><text fill="#000000" font-family="sans-serif" font-size="10" lengthAdjust="spacing" textLength="142" x="175.75" y="37.5791">elki.clustering.subspace.clique</text><line style="stroke:#181818;stroke-width:0.5;" x1="8" x2="453" y1="44.9375" y2="44.9375"/><rect fill="none" height="6" style="stroke:#C82930;stroke-width:1.0;" width="6" x="15" y="55.5859"/><text fill="#000000" font-family="sans-serif" font-size="14" lengthAdjust="spacing" textLength="69" x="27" y="61.9326">dims: int[]</text><rect fill="none" height="6" style="stroke:#C82930;stroke-width:1.0;" width="6" x="15" y="71.8828"/><text fill="#000000" font-family="sans-serif" font-size="14" lengthAdjust="spacing" textLength="120" x="27" y="78.2295">bounds: double[]</text><rect fill="none" height="6" style="stroke:#C82930;stroke-width:1.0;" width="6" x="15" y="88.1797"/><text fill="#000000" font-family="sans-serif" font-size="14" lengthAdjust="spacing" textLength="141" x="27" y="94.5264">ids: ModifiableDBIDs</text><rect fill="none" height="6" style="stroke:#C82930;stroke-width:1.0;" width="6" x="15" y="104.4766"/><text fill="#000000" font-family="sans-serif" font-size="14" lengthAdjust="spacing" textLength="128" x="27" y="110.8232">assigned: boolean</text><line style="stroke:#181818;stroke-width:0.5;" x1="8" x2="453" y1="118.125" y2="118.125"/><rect fill="#F24D5C" height="6" style="stroke:#C82930;stroke-width:1.0;" width="6" x="15" y="128.7734"/><text fill="#000000" font-family="sans-serif" font-size="14" lengthAdjust="spacing" textLength="421" x="27" y="135.1201">CLIQUEUnit(CLIQUEUnit, int, double, double, ModifiableDBIDs)</text><ellipse cx="18" cy="148.0703" fill="#84BE84" rx="3" ry="3" style="stroke:#038048;stroke-width:1.0;"/><text fill="#000000" font-family="sans-serif" font-size="14" lengthAdjust="spacing" textLength="216" x="27" y="151.417">CLIQUEUnit(int, double, double)</text><ellipse cx="18" cy="164.3672" fill="#84BE84" rx="3" ry="3" style="stroke:#038048;stroke-width:1.0;"/><text fill="#000000" font-family="sans-serif" font-size="14" lengthAdjust="spacing" textLength="134" x="27" y="167.7139">dimensionality(): int</text><ellipse cx="18" cy="180.6641" fill="#84BE84" rx="3" ry="3" style="stroke:#038048;stroke-width:1.0;"/><text fill="#000000" font-family="sans-serif" font-size="14" lengthAdjust="spacing" textLength="150" x="27" y="184.0107">getDimension(int): int</text><ellipse cx="18" cy="196.9609" fill="#84BE84" rx="3" ry="3" style="stroke:#038048;stroke-width:1.0;"/><text fill="#000000" font-family="sans-serif" font-size="14" lengthAdjust="spacing" textLength="234" x="27" y="200.3076">contains(NumberVector): boolean</text><ellipse cx="18" cy="213.2578" fill="#84BE84" rx="3" ry="3" style="stroke:#038048;stroke-width:1.0;"/><text fill="#000000" font-family="sans-serif" font-size="14" lengthAdjust="spacing" textLength="365" x="27" y="216.6045">addFeatureVector(DBIDRef, NumberVector): boolean</text><ellipse cx="18" cy="229.5547" fill="#84BE84" rx="3" ry="3" style="stroke:#038048;stroke-width:1.0;"/><text fill="#000000" font-family="sans-serif" font-size="14" lengthAdjust="spacing" textLength="211" x="27" y="232.9014">numberOfFeatureVectors(): int</text><ellipse cx="18" cy="245.8516" fill="#84BE84" rx="3" ry="3" style="stroke:#038048;stroke-width:1.0;"/><text fill="#000000" font-family="sans-serif" font-size="14" lengthAdjust="spacing" textLength="182" x="27" y="249.1982">selectivity(double): double</text><polygon fill="#FFFF44" points="18,257.1484,22,261.1484,18,265.1484,14,261.1484" style="stroke:#B38D22;stroke-width:1.0;"/><text fill="#000000" font-family="sans-serif" font-size="14" lengthAdjust="spacing" textLength="324" x="27" y="265.4951">containsLeftNeighbor(CLIQUEUnit, int): boolean</text><polygon fill="#FFFF44" points="18,273.4453,22,277.4453,18,281.4453,14,277.4453" style="stroke:#B38D22;stroke-width:1.0;"/><text fill="#000000" font-family="sans-serif" font-size="14" lengthAdjust="spacing" textLength="335" x="27" y="281.792">containsRightNeighbor(CLIQUEUnit, int): boolean</text><ellipse cx="18" cy="294.7422" fill="#84BE84" rx="3" ry="3" style="stroke:#038048;stroke-width:1.0;"/><text fill="#000000" font-family="sans-serif" font-size="14" lengthAdjust="spacing" textLength="150" x="27" y="298.0889">isAssigned(): boolean</text><ellipse cx="18" cy="311.0391" fill="#84BE84" rx="3" ry="3" style="stroke:#038048;stroke-width:1.0;"/><text fill="#000000" font-family="sans-serif" font-size="14" lengthAdjust="spacing" textLength="162" x="27" y="314.3857">markAsAssigned(): void</text><ellipse cx="18" cy="327.3359" fill="#84BE84" rx="3" ry="3" style="stroke:#038048;stroke-width:1.0;"/><text fill="#000000" font-family="sans-serif" font-size="14" lengthAdjust="spacing" textLength="105" x="27" y="330.6826">getIds(): DBIDs</text><polygon fill="#FFFF44" points="18,338.6328,22,342.6328,18,346.6328,14,342.6328" style="stroke:#B38D22;stroke-width:1.0;"/><text fill="#000000" font-family="sans-serif" font-size="14" lengthAdjust="spacing" textLength="309" x="27" y="346.9795">join(CLIQUEUnit, double, double): CLIQUEUnit</text><rect fill="#F24D5C" height="6" style="stroke:#C82930;stroke-width:1.0;" width="6" x="15" y="356.9297"/><text fill="#000000" font-family="sans-serif" font-size="14" lengthAdjust="spacing" textLength="301" x="27" y="363.2764">checkDimensions(CLIQUEUnit, int): boolean</text></g></a><rect fill="none" height="11.6406" style="stroke:none;stroke-width:1.0;" width="186" x="137" y="377.5781"/><text fill="#888888" font-family="sans-serif" font-size="10" lengthAdjust="spacing" textLength="186" x="137" y="386.8604">UMLDoclet 2.0.19, PlantUML 1.2022.8</text><!--MD5=[633f831ee2b7868e1b8ad8ff51257d45]
@startuml
    remove .*\.(Instance|Par|Parameterizer|Factory)$
    set namespaceSeparator none
    hide empty fields
    hide empty methods

    class "<size:14>CLIQUEUnit\n<size:10>elki.clustering.subspace.clique" as elki.clustering.subspace.clique.CLIQUEUnit [[CLIQUEUnit.html]] {
        -dims: int[]
        -bounds: double[]
        -ids: ModifiableDBIDs
        -assigned: boolean
        -CLIQUEUnit(CLIQUEUnit, int, double, double, ModifiableDBIDs)
        +CLIQUEUnit(int, double, double)
        +dimensionality(): int
        +getDimension(int): int
        +contains(NumberVector): boolean
        +addFeatureVector(DBIDRef, NumberVector): boolean
        +numberOfFeatureVectors(): int
        +selectivity(double): double
        #containsLeftNeighbor(CLIQUEUnit, int): boolean
        #containsRightNeighbor(CLIQUEUnit, int): boolean
        +isAssigned(): boolean
        +markAsAssigned(): void
        +getIds(): DBIDs
        #join(CLIQUEUnit, double, double): CLIQUEUnit
        -checkDimensions(CLIQUEUnit, int): boolean
    }

    center footer UMLDoclet 2.0.19, PlantUML 1.2022.8
@enduml

PlantUML version 1.2022.8(Sun Sep 25 11:00:33 CEST 2022)
(APACHE source distribution)
Java Runtime: OpenJDK Runtime Environment
JVM: OpenJDK 64-Bit Server VM
Default Encoding: UTF-8
Language: de
Country: DE
--></g></svg>