<?xml version="1.0" encoding="UTF-8" standalone="no"?>
<!DOCTYPE svg PUBLIC "-//W3C//DTD SVG 1.1//EN"
 "http://www.w3.org/Graphics/SVG/1.1/DTD/svg11.dtd">
<!-- Generated by graphviz version 2.40.1 (20161225.0304)
 -->
<!-- Title: G Pages: 1 -->
<svg width="688pt" height="99pt"
 viewBox="0.00 0.00 688.00 98.50" xmlns="http://www.w3.org/2000/svg" xmlns:xlink="http://www.w3.org/1999/xlink">
<g id="graph0" class="graph" transform="scale(1 1) rotate(0) translate(4 94.5)">
<title>G</title>
<polygon fill="#ffffff" stroke="transparent" points="-4,4 -4,-94.5 684,-94.5 684,4 -4,4"/>
<!-- c8032915 -->
<g id="node1" class="node">
<title>c8032915</title>
<g id="a_node1"><a xlink:href="InternalParameterizationErrors.html" xlink:title="&lt;TABLE&gt;">
<g id="a_node1_0"><a xlink:href="InternalParameterizationErrors.html" xlink:title="de.lmu.ifi.dbs.elki.utilities.optionhandling.InternalParameterizationErrors" target="_parent">
<polygon fill="none" stroke="#000000" points="556,-73 556,-90 679,-90 679,-73 556,-73"/>
<text text-anchor="start" x="560" y="-80.6" font-family="Roboto" font-size="8.00" fill="#000000"> </text>
<text text-anchor="start" x="563" y="-80.6" font-family="Roboto" font-size="8.00" fill="#000000">InternalParameterizationErrors</text>
<text text-anchor="start" x="672" y="-80.6" font-family="Roboto" font-size="8.00" fill="#000000"> </text>
</a>
</g>
</a>
</g>
</g>
<!-- c8032917 -->
<g id="node2" class="node">
<title>c8032917</title>
<g id="a_node2"><a xlink:href="ParameterException.html" xlink:title="&lt;TABLE&gt;">
<g id="a_node2_1"><a xlink:href="ParameterException.html" xlink:title="de.lmu.ifi.dbs.elki.utilities.optionhandling.ParameterException" target="_parent">
<polygon fill="#fffacd" stroke="transparent" points="452,-59.5 452,-76.5 536,-76.5 536,-59.5 452,-59.5"/>
<polygon fill="none" stroke="#000000" points="452,-59 452,-76 536,-76 536,-59 452,-59"/>
<text text-anchor="start" x="456" y="-66.6" font-family="Roboto" font-size="8.00" fill="#000000"> </text>
<text text-anchor="start" x="459" y="-66.6" font-family="Roboto" font-size="8.00" fill="#000000">ParameterException</text>
<text text-anchor="start" x="529" y="-66.6" font-family="Roboto" font-size="8.00" fill="#000000"> </text>
</a>
</g>
</a>
</g>
</g>
<!-- c8032917&#45;&gt;c8032915 -->
<g id="edge1" class="edge">
<title>c8032917&#45;&gt;c8032915</title>
<path fill="none" stroke="#000000" d="M546.2721,-73.9497C549.2419,-74.2877 552.241,-74.6291 555.241,-74.9705"/>
<polygon fill="none" stroke="#000000" points="546.6613,-70.4715 536.3296,-72.818 545.8696,-77.4266 546.6613,-70.4715"/>
</g>
<!-- c8032918 -->
<g id="node3" class="node">
<title>c8032918</title>
<g id="a_node3"><a xlink:href="WrongParameterValueException.html" xlink:title="&lt;TABLE&gt;">
<g id="a_node3_2"><a xlink:href="WrongParameterValueException.html" xlink:title="de.lmu.ifi.dbs.elki.utilities.optionhandling.WrongParameterValueException" target="_parent">
<polygon fill="none" stroke="#000000" points="554,-45 554,-62 680,-62 680,-45 554,-45"/>
<text text-anchor="start" x="558" y="-52.6" font-family="Roboto" font-size="8.00" fill="#000000"> </text>
<text text-anchor="start" x="561" y="-52.6" font-family="Roboto" font-size="8.00" fill="#000000">WrongParameterValueException</text>
<text text-anchor="start" x="673" y="-52.6" font-family="Roboto" font-size="8.00" fill="#000000"> </text>
</a>
</g>
</a>
</g>
</g>
<!-- c8032917&#45;&gt;c8032918 -->
<g id="edge2" class="edge">
<title>c8032917&#45;&gt;c8032918</title>
<path fill="none" stroke="#000000" d="M546.4139,-62.0342C548.9052,-61.7506 551.4169,-61.4647 553.9321,-61.1785"/>
<polygon fill="none" stroke="#000000" points="545.8696,-58.5735 536.3296,-63.182 546.6613,-65.5285 545.8696,-58.5735"/>
</g>
<!-- c8032922 -->
<g id="node4" class="node">
<title>c8032922</title>
<g id="a_node4"><a xlink:href="parameterization/UnParameterization.html" xlink:title="&lt;TABLE&gt;">
<g id="a_node4_3"><a xlink:href="parameterization/UnParameterization.html" xlink:title="de.lmu.ifi.dbs.elki.utilities.optionhandling.parameterization.UnParameterization" target="_parent">
<polygon fill="none" stroke="#000000" points="226,-39 226,-67 434,-67 434,-39 226,-39"/>
<text text-anchor="start" x="291.5" y="-57.6" font-family="Roboto" font-size="8.00" fill="#000000"> </text>
<text text-anchor="start" x="294.5" y="-57.6" font-family="Roboto" font-size="8.00" fill="#000000">UnParameterization</text>
<text text-anchor="start" x="365.5" y="-57.6" font-family="Roboto" font-size="8.00" fill="#000000"> </text>
<text text-anchor="start" x="230" y="-46.6" font-family="Roboto" font-size="8.00" fill="#000000"> </text>
<text text-anchor="start" x="233" y="-46.6" font-family="Roboto" font-size="7.00" fill="#000000">de.lmu.ifi.dbs.elki.utilities.optionhandling.parameterization</text>
<text text-anchor="start" x="427" y="-46.6" font-family="Roboto" font-size="8.00" fill="#000000"> </text>
</a>
</g>
</a>
</g>
</g>
<!-- c8032922&#45;&gt;c8032917 -->
<g id="edge6" class="edge">
<title>c8032922&#45;&gt;c8032917</title>
<path fill="none" stroke="#000000" d="M434.3283,-62.5422C436.792,-62.7676 439.2267,-62.9902 441.6223,-63.2094"/>
<polygon fill="#000000" stroke="#000000" points="451.8458,-64.1444 441.4775,-67.7148 446.8666,-63.689 441.8874,-63.2335 441.8874,-63.2335 441.8874,-63.2335 446.8666,-63.689 442.2973,-58.7522 451.8458,-64.1444 451.8458,-64.1444"/>
<text text-anchor="middle" x="449.8458" y="-58.5444" font-family="Roboto" font-size="7.00" fill="#000000">*</text>
</g>
<!-- c8032925 -->
<g id="node5" class="node">
<title>c8032925</title>
<g id="a_node5"><a xlink:href="parameterization/Parameterization.html" xlink:title="&lt;TABLE&gt;">
<g id="a_node5_4"><a xlink:href="parameterization/Parameterization.html" xlink:title="de.lmu.ifi.dbs.elki.utilities.optionhandling.parameterization.Parameterization" target="_parent">
<polygon fill="#fffacd" stroke="transparent" points="0,-33.5 0,-72.5 208,-72.5 208,-33.5 0,-33.5"/>
<polygon fill="none" stroke="#000000" points="0,-33 0,-72 208,-72 208,-33 0,-33"/>
<text text-anchor="start" x="82.5" y="-61.6" font-family="Roboto" font-size="8.00" fill="#000000"> «interface» </text>
<text text-anchor="start" x="70.5" y="-51.6" font-family="Roboto" font-size="8.00" fill="#000000"> </text>
<text text-anchor="start" x="73.5" y="-51.6" font-family="Roboto" font-size="8.00" fill="#000000">Parameterization</text>
<text text-anchor="start" x="134.5" y="-51.6" font-family="Roboto" font-size="8.00" fill="#000000"> </text>
<text text-anchor="start" x="4" y="-40.6" font-family="Roboto" font-size="8.00" fill="#000000"> </text>
<text text-anchor="start" x="7" y="-40.6" font-family="Roboto" font-size="7.00" fill="#000000">de.lmu.ifi.dbs.elki.utilities.optionhandling.parameterization</text>
<text text-anchor="start" x="201" y="-40.6" font-family="Roboto" font-size="8.00" fill="#000000"> </text>
</a>
</g>
</a>
</g>
</g>
<!-- c8032925&#45;&gt;c8032917 -->
<g id="edge4" class="edge">
<title>c8032925&#45;&gt;c8032917</title>
<path fill="none" stroke="#000000" d="M208.0183,-71.2123C214.0902,-71.9141 220.1171,-72.521 226,-73 318.1395,-80.5023 341.6354,-76.8419 434,-73 439.7441,-72.7611 445.7894,-72.394 451.7415,-71.9649"/>
</g>
<!-- c8032925&#45;&gt;c8032922 -->
<g id="edge3" class="edge">
<title>c8032925&#45;&gt;c8032922</title>
<path fill="none" stroke="#000000" stroke-dasharray="5,2" d="M218.3372,-53C220.8365,-53 223.335,-53 225.8277,-53"/>
<polygon fill="none" stroke="#000000" points="218.0698,-49.5001 208.0698,-53 218.0698,-56.5001 218.0698,-49.5001"/>
</g>
<!-- c8032931 -->
<g id="node6" class="node">
<title>c8032931</title>
<g id="a_node6"><a xlink:href="parameterization/AbstractParameterization.html" xlink:title="&lt;TABLE&gt;">
<g id="a_node6_5"><a xlink:href="parameterization/AbstractParameterization.html" xlink:title="de.lmu.ifi.dbs.elki.utilities.optionhandling.parameterization.AbstractParameterization" target="_parent">
<polygon fill="none" stroke="#000000" points="226,0 226,-28 434,-28 434,0 226,0"/>
<text text-anchor="start" x="281.5" y="-18.6" font-family="Roboto" font-size="8.00" fill="#000000"> </text>
<text text-anchor="start" x="284.5" y="-18.6" font-family="Roboto" font-style="italic" font-size="8.00" fill="#000000">AbstractParameterization</text>
<text text-anchor="start" x="375.5" y="-18.6" font-family="Roboto" font-size="8.00" fill="#000000"> </text>
<text text-anchor="start" x="230" y="-7.6" font-family="Roboto" font-size="8.00" fill="#000000"> </text>
<text text-anchor="start" x="233" y="-7.6" font-family="Roboto" font-size="7.00" fill="#000000">de.lmu.ifi.dbs.elki.utilities.optionhandling.parameterization</text>
<text text-anchor="start" x="427" y="-7.6" font-family="Roboto" font-size="8.00" fill="#000000"> </text>
</a>
</g>
</a>
</g>
</g>
<!-- c8032925&#45;&gt;c8032931 -->
<g id="edge5" class="edge">
<title>c8032925&#45;&gt;c8032931</title>
<path fill="none" stroke="#000000" stroke-dasharray="5,2" d="M218.0213,-33.3237C228.4092,-31.5312 238.7855,-29.7406 248.7992,-28.0125"/>
<polygon fill="none" stroke="#000000" points="217.3289,-29.8914 208.0698,-35.0411 218.5194,-36.7895 217.3289,-29.8914"/>
</g>
<!-- c8032931&#45;&gt;c8032917 -->
<g id="edge7" class="edge">
<title>c8032931&#45;&gt;c8032917</title>
<path fill="none" stroke="#000000" d="M415.198,-28.0098C421.6294,-29.7874 427.961,-31.7766 434,-34 447.6934,-39.0415 461.9474,-46.9887 473.1247,-53.9323"/>
<polygon fill="#000000" stroke="#000000" points="481.7102,-59.4431 470.8638,-57.8284 477.5024,-56.7423 473.2946,-54.0414 473.2946,-54.0414 473.2946,-54.0414 477.5024,-56.7423 475.7254,-50.2544 481.7102,-59.4431 481.7102,-59.4431"/>
<text text-anchor="middle" x="479.7102" y="-53.8431" font-family="Roboto" font-size="7.00" fill="#000000">*</text>
</g>
</g>
</svg>
