<?xml version="1.0" encoding="UTF-8" standalone="no"?>
<!DOCTYPE svg PUBLIC "-//W3C//DTD SVG 1.1//EN"
 "http://www.w3.org/Graphics/SVG/1.1/DTD/svg11.dtd">
<!-- Generated by graphviz version 2.40.1 (20161225.0304)
 -->
<!-- Title: G Pages: 1 -->
<svg width="379pt" height="25pt"
 viewBox="0.00 0.00 379.00 25.00" xmlns="http://www.w3.org/2000/svg" xmlns:xlink="http://www.w3.org/1999/xlink">
<g id="graph0" class="graph" transform="scale(1 1) rotate(0) translate(4 21)">
<title>G</title>
<polygon fill="#ffffff" stroke="transparent" points="-4,4 -4,-21 375,-21 375,4 -4,4"/>
<!-- c10980771 -->
<g id="node1" class="node">
<title>c10980771</title>
<g id="a_node1"><a xlink:href="UnspecifiedParameterException.html" xlink:title="&lt;TABLE&gt;">
<g id="a_node1_0"><a xlink:href="UnspecifiedParameterException.html" xlink:title="de.lmu.ifi.dbs.elki.utilities.optionhandling.UnspecifiedParameterException" target="_parent">
<polygon fill="none" stroke="#000000" points="246.5,.5 246.5,-16.5 371.5,-16.5 371.5,.5 246.5,.5"/>
<text text-anchor="start" x="250.5" y="-7.1" font-family="Roboto" font-size="8.00" fill="#000000"> </text>
<text text-anchor="start" x="253.5" y="-7.1" font-family="Roboto" font-size="8.00" fill="#000000">UnspecifiedParameterException</text>
<text text-anchor="start" x="364.5" y="-7.1" font-family="Roboto" font-size="8.00" fill="#000000"> </text>
</a>
</g>
</a>
</g>
</g>
<!-- c10980783 -->
<g id="node2" class="node">
<title>c10980783</title>
<g id="a_node2"><a xlink:href="ParameterException.html" xlink:title="&lt;TABLE&gt;">
<g id="a_node2_1"><a xlink:href="ParameterException.html" xlink:title="de.lmu.ifi.dbs.elki.utilities.optionhandling.ParameterException" target="_parent">
<polygon fill="none" stroke="#000000" points="0,.5 0,-16.5 84,-16.5 84,.5 0,.5"/>
<text text-anchor="start" x="4" y="-7.1" font-family="Roboto" font-size="8.00" fill="#000000"> </text>
<text text-anchor="start" x="7" y="-7.1" font-family="Roboto" font-size="8.00" fill="#000000">ParameterException</text>
<text text-anchor="start" x="77" y="-7.1" font-family="Roboto" font-size="8.00" fill="#000000"> </text>
</a>
</g>
</a>
</g>
</g>
<!-- c10980784 -->
<g id="node3" class="node">
<title>c10980784</title>
<g id="a_node3"><a xlink:href="WrongParameterValueException.html" xlink:title="&lt;TABLE&gt;">
<g id="a_node3_2"><a xlink:href="WrongParameterValueException.html" xlink:title="de.lmu.ifi.dbs.elki.utilities.optionhandling.WrongParameterValueException" target="_parent">
<polygon fill="#fffacd" stroke="transparent" points="102,0 102,-17 228,-17 228,0 102,0"/>
<polygon fill="none" stroke="#000000" points="102,.5 102,-16.5 228,-16.5 228,.5 102,.5"/>
<text text-anchor="start" x="106" y="-7.1" font-family="Roboto" font-size="8.00" fill="#000000"> </text>
<text text-anchor="start" x="109" y="-7.1" font-family="Roboto" font-size="8.00" fill="#000000">WrongParameterValueException</text>
<text text-anchor="start" x="221" y="-7.1" font-family="Roboto" font-size="8.00" fill="#000000"> </text>
</a>
</g>
</a>
</g>
</g>
<!-- c10980783&#45;&gt;c10980784 -->
<g id="edge2" class="edge">
<title>c10980783&#45;&gt;c10980784</title>
<path fill="none" stroke="#000000" d="M94.4139,-8.5C96.9052,-8.5 99.4169,-8.5 101.9321,-8.5"/>
<polygon fill="none" stroke="#000000" points="94.3297,-5.0001 84.3296,-8.5 94.3296,-12.0001 94.3297,-5.0001"/>
</g>
<!-- c10980784&#45;&gt;c10980771 -->
<g id="edge1" class="edge">
<title>c10980784&#45;&gt;c10980771</title>
<path fill="none" stroke="#000000" d="M238.5611,-8.5C241.0462,-8.5 243.5284,-8.5 245.9958,-8.5"/>
<polygon fill="none" stroke="#000000" points="238.3589,-5.0001 228.3589,-8.5 238.3589,-12.0001 238.3589,-5.0001"/>
</g>
</g>
</svg>
