<?xml version="1.0" encoding="UTF-8" standalone="no"?><svg xmlns="http://www.w3.org/2000/svg" xmlns:xlink="http://www.w3.org/1999/xlink" contentStyleType="text/css" height="252px" preserveAspectRatio="none" style="width:706px;height:252px;background:#FFFFFF;" version="1.1" viewBox="0 0 706 252" width="706px" zoomAndPan="magnify"><defs/><g><!--MD5=[e308ef02e3b1110f31deeda9bfe72ec3]
class elki.index.tree.spatial.rstarvariants.query.EuclideanRStarTreeKNNQuery--><a href="EuclideanRStarTreeKNNQuery.html" target="_top" title="EuclideanRStarTreeKNNQuery.html" xlink:actuate="onRequest" xlink:href="EuclideanRStarTreeKNNQuery.html" xlink:show="new" xlink:title="EuclideanRStarTreeKNNQuery.html" xlink:type="simple"><g id="elem_elki.index.tree.spatial.rstarvariants.query.EuclideanRStarTreeKNNQuery"><rect codeLine="6" fill="#F1F1F1" height="119.125" id="elki.index.tree.spatial.rstarvariants.query.EuclideanRStarTreeKNNQuery" rx="2.5" ry="2.5" style="stroke:#181818;stroke-width:0.5;" width="688" x="7" y="108"/><ellipse cx="166.75" cy="126.9688" fill="#ADD1B2" rx="11" ry="11" style="stroke:#181818;stroke-width:1.0;"/><path d="M169.7188,132.6094 Q169.1406,132.9063 168.5,133.0469 Q167.8594,133.2031 167.1563,133.2031 Q164.6563,133.2031 163.3281,131.5625 Q162.0156,129.9063 162.0156,126.7813 Q162.0156,123.6563 163.3281,122 Q164.6563,120.3438 167.1563,120.3438 Q167.8594,120.3438 168.5,120.5 Q169.1563,120.6563 169.7188,120.9531 L169.7188,123.6719 Q169.0938,123.0938 168.5,122.8281 Q167.9063,122.5469 167.2813,122.5469 Q165.9375,122.5469 165.25,123.625 Q164.5625,124.6875 164.5625,126.7813 Q164.5625,128.875 165.25,129.9531 Q165.9375,131.0156 167.2813,131.0156 Q167.9063,131.0156 168.5,130.75 Q169.0938,130.4688 169.7188,129.8906 L169.7188,132.6094 Z " fill="#000000"/><text fill="#000000" font-family="sans-serif" font-size="14" lengthAdjust="spacing" textLength="206" x="187.25" y="125.9951">EuclideanRStarTreeKNNQuery</text><text fill="#000000" font-family="sans-serif" font-size="10" lengthAdjust="spacing" textLength="197" x="191.75" y="138.5791">elki.index.tree.spatial.rstarvariants.query</text><rect fill="#FFFFFF" height="15.9688" style="stroke:#181818;stroke-width:1.0;stroke-dasharray:2.0,2.0;" width="152" x="546" y="105"/><text fill="#000000" font-family="sans-serif" font-size="12" font-style="italic" lengthAdjust="spacing" textLength="150" x="547" y="117.1387">O extends NumberVector</text><line style="stroke:#181818;stroke-width:0.5;" x1="8" x2="694" y1="145.9375" y2="145.9375"/><rect fill="none" height="6" style="stroke:#C82930;stroke-width:1.0;" width="6" x="15" y="156.5859"/><text fill="#000000" font-family="sans-serif" font-size="14" lengthAdjust="spacing" text-decoration="underline" textLength="264" x="27" y="162.9326">SQUARED: SquaredEuclideanDistance</text><line style="stroke:#181818;stroke-width:0.5;" x1="8" x2="694" y1="170.2344" y2="170.2344"/><ellipse cx="18" cy="183.8828" fill="#84BE84" rx="3" ry="3" style="stroke:#038048;stroke-width:1.0;"/><text fill="#000000" font-family="sans-serif" font-size="14" lengthAdjust="spacing" textLength="662" x="27" y="187.2295">EuclideanRStarTreeKNNQuery(AbstractRStarTree&lt;?, ?, ?&gt;, Relation&lt;? extends NumberVector&gt;)</text><ellipse cx="18" cy="200.1797" fill="#84BE84" rx="3" ry="3" style="stroke:#038048;stroke-width:1.0;"/><text fill="#000000" font-family="sans-serif" font-size="14" lengthAdjust="spacing" textLength="323" x="27" y="203.5264">getKNN(O extends NumberVector, int): KNNList</text><rect fill="#F24D5C" height="6" style="stroke:#C82930;stroke-width:1.0;" width="6" x="15" y="213.4766"/><text fill="#000000" font-family="sans-serif" font-size="14" lengthAdjust="spacing" textLength="651" x="27" y="219.8232">expandNode(O extends NumberVector, KNNHeap, DoubleIntegerMinHeap, double, int): double</text></g></a><!--MD5=[2f86cbd70e076edff3d7ea550500b1d9]
class elki.index.tree.spatial.rstarvariants.query.RStarTreeKNNSearcher--><a href="RStarTreeKNNSearcher.html" target="_top" title="RStarTreeKNNSearcher.html" xlink:actuate="onRequest" xlink:href="RStarTreeKNNSearcher.html" xlink:show="new" xlink:title="RStarTreeKNNSearcher.html" xlink:type="simple"><g id="elem_elki.index.tree.spatial.rstarvariants.query.RStarTreeKNNSearcher"><rect codeLine="13" fill="#F1F1F1" height="37.9375" id="elki.index.tree.spatial.rstarvariants.query.RStarTreeKNNSearcher" rx="2.5" ry="2.5" style="stroke:#181818;stroke-width:0.5;" width="383" x="159.5" y="10"/><ellipse cx="174.5" cy="28.9688" fill="#ADD1B2" rx="11" ry="11" style="stroke:#181818;stroke-width:1.0;"/><path d="M177.4688,34.6094 Q176.8906,34.9063 176.25,35.0469 Q175.6094,35.2031 174.9063,35.2031 Q172.4063,35.2031 171.0781,33.5625 Q169.7656,31.9063 169.7656,28.7813 Q169.7656,25.6563 171.0781,24 Q172.4063,22.3438 174.9063,22.3438 Q175.6094,22.3438 176.25,22.5 Q176.9063,22.6563 177.4688,22.9531 L177.4688,25.6719 Q176.8438,25.0938 176.25,24.8281 Q175.6563,24.5469 175.0313,24.5469 Q173.6875,24.5469 173,25.625 Q172.3125,26.6875 172.3125,28.7813 Q172.3125,30.875 173,31.9531 Q173.6875,33.0156 175.0313,33.0156 Q175.6563,33.0156 176.25,32.75 Q176.8438,32.4688 177.4688,31.8906 L177.4688,34.6094 Z " fill="#000000"/><text fill="#000000" font-family="sans-serif" font-size="14" lengthAdjust="spacing" textLength="160" x="207" y="27.9951">RStarTreeKNNSearcher</text><text fill="#000000" font-family="sans-serif" font-size="10" lengthAdjust="spacing" textLength="197" x="188.5" y="40.5791">elki.index.tree.spatial.rstarvariants.query</text><rect fill="#FFFFFF" height="15.9688" style="stroke:#181818;stroke-width:1.0;stroke-dasharray:2.0,2.0;" width="152" x="393.5" y="7"/><text fill="#000000" font-family="sans-serif" font-size="12" font-style="italic" lengthAdjust="spacing" textLength="150" x="394.5" y="19.1387">O extends NumberVector</text></g></a><!--MD5=[c5fb243eef63288c71c7cbfe80a2d8b3]
reverse link elki.index.tree.spatial.rstarvariants.query.RStarTreeKNNSearcher to elki.index.tree.spatial.rstarvariants.query.EuclideanRStarTreeKNNQuery--><g id="link_elki.index.tree.spatial.rstarvariants.query.RStarTreeKNNSearcher_elki.index.tree.spatial.rstarvariants.query.EuclideanRStarTreeKNNQuery"><path codeLine="15" d="M351,68.5 C351,80.69 351,94.46 351,107.73 " fill="none" id="elki.index.tree.spatial.rstarvariants.query.RStarTreeKNNSearcher-backto-elki.index.tree.spatial.rstarvariants.query.EuclideanRStarTreeKNNQuery" style="stroke:#181818;stroke-width:1.0;"/><polygon fill="none" points="344,68.13,351,48.13,358,68.13,344,68.13" style="stroke:#181818;stroke-width:1.0;"/></g><rect fill="none" height="11.6406" style="stroke:none;stroke-width:1.0;" width="186" x="253" y="233.125"/><text fill="#888888" font-family="sans-serif" font-size="10" lengthAdjust="spacing" textLength="186" x="253" y="242.4072">UMLDoclet 2.0.19, PlantUML 1.2022.8</text><!--MD5=[c35a5f9687b773c3da08c03acf8c1569]
@startuml
    remove .*\.(Instance|Par|Parameterizer|Factory)$
    set namespaceSeparator none
    hide empty fields
    hide empty methods

    class "<size:14>EuclideanRStarTreeKNNQuery\n<size:10>elki.index.tree.spatial.rstarvariants.query" as elki.index.tree.spatial.rstarvariants.query.EuclideanRStarTreeKNNQuery<O extends NumberVector> [[EuclideanRStarTreeKNNQuery.html]] {
        {static} -SQUARED: SquaredEuclideanDistance
        +EuclideanRStarTreeKNNQuery(AbstractRStarTree<?, ?, ?>, Relation<? extends NumberVector>)
        +getKNN(O extends NumberVector, int): KNNList
        -expandNode(O extends NumberVector, KNNHeap, DoubleIntegerMinHeap, double, int): double
    }

    class "<size:14>RStarTreeKNNSearcher\n<size:10>elki.index.tree.spatial.rstarvariants.query" as elki.index.tree.spatial.rstarvariants.query.RStarTreeKNNSearcher<O extends NumberVector> [[RStarTreeKNNSearcher.html]]

    elki.index.tree.spatial.rstarvariants.query.RStarTreeKNNSearcher <|- - elki.index.tree.spatial.rstarvariants.query.EuclideanRStarTreeKNNQuery

    center footer UMLDoclet 2.0.19, PlantUML 1.2022.8
@enduml

PlantUML version 1.2022.8(Sun Sep 25 11:00:33 CEST 2022)
(APACHE source distribution)
Java Runtime: OpenJDK Runtime Environment
JVM: OpenJDK 64-Bit Server VM
Default Encoding: UTF-8
Language: de
Country: DE
--></g></svg>