<?xml version="1.0" encoding="UTF-8" standalone="no"?>
<!DOCTYPE svg PUBLIC "-//W3C//DTD SVG 1.1//EN"
 "http://www.w3.org/Graphics/SVG/1.1/DTD/svg11.dtd">
<!-- Generated by graphviz version 2.40.1 (20161225.0304)
 -->
<!-- Title: G Pages: 1 -->
<svg width="454pt" height="97pt"
 viewBox="0.00 0.00 454.00 97.00" xmlns="http://www.w3.org/2000/svg" xmlns:xlink="http://www.w3.org/1999/xlink">
<g id="graph0" class="graph" transform="scale(1 1) rotate(0) translate(4 93)">
<title>G</title>
<polygon fill="#ffffff" stroke="transparent" points="-4,4 -4,-93 450,-93 450,4 -4,4"/>
<!-- c3421534 -->
<g id="node1" class="node">
<title>c3421534</title>
<g id="a_node1"><a xlink:href="similarity/SimilarityQuery.html" xlink:title="&lt;TABLE&gt;">
<g id="a_node1_0"><a xlink:href="similarity/SimilarityQuery.html" xlink:title="de.lmu.ifi.dbs.elki.database.query.similarity.SimilarityQuery" target="_parent">
<polygon fill="#fffacd" stroke="transparent" points="0,-50 0,-89 154,-89 154,-50 0,-50"/>
<polygon fill="none" stroke="#000000" points="0,-49.5 0,-88.5 154,-88.5 154,-49.5 0,-49.5"/>
<text text-anchor="start" x="55.5" y="-78.1" font-family="Roboto" font-size="8.00" fill="#000000"> «interface» </text>
<text text-anchor="start" x="46.5" y="-68.1" font-family="Roboto" font-size="8.00" fill="#000000"> </text>
<text text-anchor="start" x="49.5" y="-68.1" font-family="Roboto" font-size="8.00" fill="#000000">SimilarityQuery</text>
<text text-anchor="start" x="104.5" y="-68.1" font-family="Roboto" font-size="8.00" fill="#000000"> </text>
<text text-anchor="start" x="4" y="-57.1" font-family="Roboto" font-size="8.00" fill="#000000"> </text>
<text text-anchor="start" x="7" y="-57.1" font-family="Roboto" font-size="7.00" fill="#000000">de.lmu.ifi.dbs.elki.database.query.similarity</text>
<text text-anchor="start" x="147" y="-57.1" font-family="Roboto" font-size="8.00" fill="#000000"> </text>
</a>
</g>
</a>
</g>
</g>
<!-- c3421544 -->
<g id="node5" class="node">
<title>c3421544</title>
<g id="a_node5"><a xlink:href="DistanceSimilarityQuery.html" xlink:title="&lt;TABLE&gt;">
<g id="a_node5_1"><a xlink:href="DistanceSimilarityQuery.html" xlink:title="de.lmu.ifi.dbs.elki.database.query.DistanceSimilarityQuery" target="_parent">
<polygon fill="#fffacd" stroke="transparent" points="172,-30.5 172,-58.5 272,-58.5 272,-30.5 172,-30.5"/>
<polygon fill="none" stroke="#000000" points="172,-30.5 172,-58.5 272,-58.5 272,-30.5 172,-30.5"/>
<text text-anchor="start" x="200.5" y="-48.1" font-family="Roboto" font-size="8.00" fill="#000000"> «interface» </text>
<text text-anchor="start" x="176" y="-38.1" font-family="Roboto" font-size="8.00" fill="#000000"> </text>
<text text-anchor="start" x="179" y="-38.1" font-family="Roboto" font-size="8.00" fill="#000000">DistanceSimilarityQuery</text>
<text text-anchor="start" x="265" y="-38.1" font-family="Roboto" font-size="8.00" fill="#000000"> </text>
</a>
</g>
</a>
</g>
</g>
<!-- c3421534&#45;&gt;c3421544 -->
<g id="edge4" class="edge">
<title>c3421534&#45;&gt;c3421544</title>
<path fill="none" stroke="#000000" stroke-dasharray="5,2" d="M164.1448,-54.475C166.7056,-54.0335 169.241,-53.5964 171.7374,-53.166"/>
<polygon fill="none" stroke="#000000" points="163.4299,-51.0466 154.17,-56.1948 164.6193,-57.9448 163.4299,-51.0466"/>
</g>
<!-- c3421536 -->
<g id="node2" class="node">
<title>c3421536</title>
<g id="a_node2"><a xlink:href="distance/PrimitiveDistanceSimilarityQuery.html" xlink:title="&lt;TABLE&gt;">
<g id="a_node2_2"><a xlink:href="distance/PrimitiveDistanceSimilarityQuery.html" xlink:title="de.lmu.ifi.dbs.elki.database.query.distance.PrimitiveDistanceSimilarityQuery" target="_parent">
<polygon fill="none" stroke="#000000" points="293,-50.5 293,-78.5 443,-78.5 443,-50.5 293,-50.5"/>
<text text-anchor="start" x="306.5" y="-69.1" font-family="Roboto" font-size="8.00" fill="#000000"> </text>
<text text-anchor="start" x="309.5" y="-69.1" font-family="Roboto" font-size="8.00" fill="#000000">PrimitiveDistanceSimilarityQuery</text>
<text text-anchor="start" x="426.5" y="-69.1" font-family="Roboto" font-size="8.00" fill="#000000"> </text>
<text text-anchor="start" x="297" y="-58.1" font-family="Roboto" font-size="8.00" fill="#000000"> </text>
<text text-anchor="start" x="300" y="-58.1" font-family="Roboto" font-size="7.00" fill="#000000">de.lmu.ifi.dbs.elki.database.query.distance</text>
<text text-anchor="start" x="436" y="-58.1" font-family="Roboto" font-size="8.00" fill="#000000"> </text>
</a>
</g>
</a>
</g>
</g>
<!-- c3421537 -->
<g id="node3" class="node">
<title>c3421537</title>
<g id="a_node3"><a xlink:href="distance/DistanceQuery.html" xlink:title="&lt;TABLE&gt;">
<g id="a_node3_3"><a xlink:href="distance/DistanceQuery.html" xlink:title="de.lmu.ifi.dbs.elki.database.query.distance.DistanceQuery" target="_parent">
<polygon fill="#fffacd" stroke="transparent" points="2,0 2,-39 152,-39 152,0 2,0"/>
<polygon fill="none" stroke="#000000" points="2,.5 2,-38.5 152,-38.5 152,.5 2,.5"/>
<text text-anchor="start" x="55.5" y="-28.1" font-family="Roboto" font-size="8.00" fill="#000000"> «interface» </text>
<text text-anchor="start" x="48" y="-18.1" font-family="Roboto" font-size="8.00" fill="#000000"> </text>
<text text-anchor="start" x="51" y="-18.1" font-family="Roboto" font-size="8.00" fill="#000000">DistanceQuery</text>
<text text-anchor="start" x="103" y="-18.1" font-family="Roboto" font-size="8.00" fill="#000000"> </text>
<text text-anchor="start" x="6" y="-7.1" font-family="Roboto" font-size="8.00" fill="#000000"> </text>
<text text-anchor="start" x="9" y="-7.1" font-family="Roboto" font-size="7.00" fill="#000000">de.lmu.ifi.dbs.elki.database.query.distance</text>
<text text-anchor="start" x="145" y="-7.1" font-family="Roboto" font-size="8.00" fill="#000000"> </text>
</a>
</g>
</a>
</g>
</g>
<!-- c3421537&#45;&gt;c3421544 -->
<g id="edge3" class="edge">
<title>c3421537&#45;&gt;c3421544</title>
<path fill="none" stroke="#000000" stroke-dasharray="5,2" d="M161.9501,-34.1466C165.225,-34.7112 168.4649,-35.2698 171.6421,-35.8176"/>
<polygon fill="none" stroke="#000000" points="162.4977,-30.6894 152.0484,-32.4394 161.3083,-37.5876 162.4977,-30.6894"/>
</g>
<!-- c3421539 -->
<g id="node4" class="node">
<title>c3421539</title>
<g id="a_node4"><a xlink:href="distance/SpatialPrimitiveDistanceSimilarityQuery.html" xlink:title="&lt;TABLE&gt;">
<g id="a_node4_4"><a xlink:href="distance/SpatialPrimitiveDistanceSimilarityQuery.html" xlink:title="de.lmu.ifi.dbs.elki.database.query.distance.SpatialPrimitiveDistanceSimilarityQuery" target="_parent">
<polygon fill="none" stroke="#000000" points="290,-11.5 290,-39.5 446,-39.5 446,-11.5 290,-11.5"/>
<text text-anchor="start" x="294" y="-30.1" font-family="Roboto" font-size="8.00" fill="#000000"> </text>
<text text-anchor="start" x="297" y="-30.1" font-family="Roboto" font-size="8.00" fill="#000000">SpatialPrimitiveDistanceSimilarityQuery</text>
<text text-anchor="start" x="439" y="-30.1" font-family="Roboto" font-size="8.00" fill="#000000"> </text>
<text text-anchor="start" x="297" y="-19.1" font-family="Roboto" font-size="8.00" fill="#000000"> </text>
<text text-anchor="start" x="300" y="-19.1" font-family="Roboto" font-size="7.00" fill="#000000">de.lmu.ifi.dbs.elki.database.query.distance</text>
<text text-anchor="start" x="436" y="-19.1" font-family="Roboto" font-size="8.00" fill="#000000"> </text>
</a>
</g>
</a>
</g>
</g>
<!-- c3421544&#45;&gt;c3421536 -->
<g id="edge1" class="edge">
<title>c3421544&#45;&gt;c3421536</title>
<path fill="none" stroke="#000000" stroke-dasharray="5,2" d="M282.4468,-52.7804C285.8966,-53.253 289.3851,-53.7308 292.88,-54.2096"/>
<polygon fill="none" stroke="#000000" points="282.6274,-49.2725 272.2449,-51.3829 281.6773,-56.2078 282.6274,-49.2725"/>
</g>
<!-- c3421544&#45;&gt;c3421539 -->
<g id="edge2" class="edge">
<title>c3421544&#45;&gt;c3421539</title>
<path fill="none" stroke="#000000" stroke-dasharray="5,2" d="M282.2911,-36.6539C284.7698,-36.3313 287.2687,-36.0061 289.7759,-35.6798"/>
<polygon fill="none" stroke="#000000" points="281.7096,-33.2 272.2449,-37.9613 282.613,-40.1414 281.7096,-33.2"/>
</g>
</g>
</svg>
