<?xml version="1.0" encoding="UTF-8" standalone="no"?><svg xmlns="http://www.w3.org/2000/svg" xmlns:xlink="http://www.w3.org/1999/xlink" contentStyleType="text/css" height="589px" preserveAspectRatio="none" style="width:1702px;height:589px;background:#FFFFFF;" version="1.1" viewBox="0 0 1702 589" width="1702px" zoomAndPan="magnify"><defs/><g><!--MD5=[d3c9ec3667f858edfc5ab4dc8421dd70]
cluster elki.visualization.visualizers.scatterplot.index--><g id="cluster_elki.visualization.visualizers.scatterplot.index"><path d="M18.5,194 L376.5,194 A3.75,3.75 0 0 1 379,196.5 L386,216.2969 L1692.5,216.2969 A2.5,2.5 0 0 1 1695,218.7969 L1695,561.5 A2.5,2.5 0 0 1 1692.5,564 L18.5,564 A2.5,2.5 0 0 1 16,561.5 L16,196.5 A2.5,2.5 0 0 1 18.5,194 " fill="none" style="stroke:#000000;stroke-width:1.5;"/><line style="stroke:#000000;stroke-width:1.5;" x1="16" x2="386" y1="216.2969" y2="216.2969"/><text fill="#000000" font-family="sans-serif" font-size="14" font-weight="bold" lengthAdjust="spacing" textLength="357" x="20" y="208.9951">elki.visualization.visualizers.scatterplot.index</text></g><!--MD5=[b7dcee99b15c750db49f82c8e7ad2f52]
cluster elki.visualization.visualizers--><g id="cluster_elki.visualization.visualizers"><path d="M8.5,6 L227.5,6 A3.75,3.75 0 0 1 230,8.5 L237,28.2969 L953.5,28.2969 A2.5,2.5 0 0 1 956,30.7969 L956,167.5 A2.5,2.5 0 0 1 953.5,170 L8.5,170 A2.5,2.5 0 0 1 6,167.5 L6,8.5 A2.5,2.5 0 0 1 8.5,6 " fill="none" style="stroke:#000000;stroke-width:1.5;"/><line style="stroke:#000000;stroke-width:1.5;" x1="6" x2="237" y1="28.2969" y2="28.2969"/><text fill="#000000" font-family="sans-serif" font-size="14" font-weight="bold" lengthAdjust="spacing" textLength="218" x="10" y="20.9951">elki.visualization.visualizers</text></g><!--MD5=[124cd7d445112daec6244593c2ca7b56]
cluster elki.visualization.visualizers.scatterplot--><g id="cluster_elki.visualization.visualizers.scatterplot"><path d="M991.5,14 L1301.5,14 A3.75,3.75 0 0 1 1304,16.5 L1311,36.2969 L1322.5,36.2969 A2.5,2.5 0 0 1 1325,38.7969 L1325,159.5 A2.5,2.5 0 0 1 1322.5,162 L991.5,162 A2.5,2.5 0 0 1 989,159.5 L989,16.5 A2.5,2.5 0 0 1 991.5,14 " fill="none" style="stroke:#000000;stroke-width:1.5;"/><line style="stroke:#000000;stroke-width:1.5;" x1="989" x2="1311" y1="36.2969" y2="36.2969"/><text fill="#000000" font-family="sans-serif" font-size="14" font-weight="bold" lengthAdjust="spacing" textLength="309" x="993" y="28.9951">elki.visualization.visualizers.scatterplot</text></g><!--MD5=[c89e124e458aaaa4e23a54ee33d86be6]
cluster elki.database.datastore--><g id="cluster_elki.database.datastore"><path d="M1356.5,30.5 L1542.5,30.5 A3.75,3.75 0 0 1 1545,33 L1552,52.7969 L1687.5,52.7969 A2.5,2.5 0 0 1 1690,55.2969 L1690,143 A2.5,2.5 0 0 1 1687.5,145.5 L1356.5,145.5 A2.5,2.5 0 0 1 1354,143 L1354,33 A2.5,2.5 0 0 1 1356.5,30.5 " fill="none" style="stroke:#000000;stroke-width:1.5;"/><line style="stroke:#000000;stroke-width:1.5;" x1="1354" x2="1552" y1="52.7969" y2="52.7969"/><text fill="#000000" font-family="sans-serif" font-size="14" font-weight="bold" lengthAdjust="spacing" textLength="185" x="1358" y="45.4951">elki.database.datastore</text></g><!--MD5=[6844c14d4583d111c17d26860038eba0]
class elki.visualization.visualizers.scatterplot.index.TreeMBRVisualization--><a href="TreeMBRVisualization.html" target="_top" title="TreeMBRVisualization.html" xlink:actuate="onRequest" xlink:href="TreeMBRVisualization.html" xlink:show="new" xlink:title="TreeMBRVisualization.html" xlink:type="simple"><g id="elem_elki.visualization.visualizers.scatterplot.index.TreeMBRVisualization"><rect codeLine="4" fill="#F1F1F1" height="129.4844" id="elki.visualization.visualizers.scatterplot.index.TreeMBRVisualization" rx="2.5" ry="2.5" style="stroke:#181818;stroke-width:0.5;" width="806" x="873" y="245.5"/><ellipse cx="1197.25" cy="261.5" fill="#ADD1B2" rx="11" ry="11" style="stroke:#181818;stroke-width:1.0;"/><path d="M1200.2188,267.1406 Q1199.6406,267.4375 1199,267.5781 Q1198.3594,267.7344 1197.6563,267.7344 Q1195.1563,267.7344 1193.8281,266.0938 Q1192.5156,264.4375 1192.5156,261.3125 Q1192.5156,258.1875 1193.8281,256.5313 Q1195.1563,254.875 1197.6563,254.875 Q1198.3594,254.875 1199,255.0313 Q1199.6563,255.1875 1200.2188,255.4844 L1200.2188,258.2031 Q1199.5938,257.625 1199,257.3594 Q1198.4063,257.0781 1197.7813,257.0781 Q1196.4375,257.0781 1195.75,258.1563 Q1195.0625,259.2188 1195.0625,261.3125 Q1195.0625,263.4063 1195.75,264.4844 Q1196.4375,265.5469 1197.7813,265.5469 Q1198.4063,265.5469 1199,265.2813 Q1199.5938,265 1200.2188,264.4219 L1200.2188,267.1406 Z " fill="#000000"/><text fill="#000000" font-family="sans-serif" font-size="14" lengthAdjust="spacing" textLength="149" x="1217.75" y="266.3467">TreeMBRVisualization</text><line style="stroke:#181818;stroke-width:0.5;" x1="874" x2="1678" y1="277.5" y2="277.5"/><ellipse cx="884" cy="291.1484" fill="none" rx="3" ry="3" style="stroke:#038048;stroke-width:1.0;"/><text fill="#000000" font-family="sans-serif" font-size="14" lengthAdjust="spacing" text-decoration="underline" textLength="93" x="893" y="294.4951">INDEX: String</text><ellipse cx="884" cy="307.4453" fill="none" rx="3" ry="3" style="stroke:#038048;stroke-width:1.0;"/><text fill="#000000" font-family="sans-serif" font-size="14" lengthAdjust="spacing" text-decoration="underline" textLength="89" x="893" y="310.792">NAME: String</text><line style="stroke:#181818;stroke-width:0.5;" x1="874" x2="1678" y1="318.0938" y2="318.0938"/><ellipse cx="884" cy="331.7422" fill="#84BE84" rx="3" ry="3" style="stroke:#038048;stroke-width:1.0;"/><text fill="#000000" font-family="sans-serif" font-size="14" lengthAdjust="spacing" textLength="181" x="893" y="335.0889">TreeMBRVisualization(Par)</text><ellipse cx="884" cy="348.0391" fill="#84BE84" rx="3" ry="3" style="stroke:#038048;stroke-width:1.0;"/><text fill="#000000" font-family="sans-serif" font-size="14" lengthAdjust="spacing" textLength="780" x="893" y="351.3857">makeVisualization(VisualizerContext, VisualizationTask, VisualizationPlot, double, double, Projection): Visualization</text><ellipse cx="884" cy="364.3359" fill="#84BE84" rx="3" ry="3" style="stroke:#038048;stroke-width:1.0;"/><text fill="#000000" font-family="sans-serif" font-size="14" lengthAdjust="spacing" textLength="349" x="893" y="367.6826">processNewResult(VisualizerContext, Object): void</text></g></a><!--MD5=[68610f2807a76f0c0865f04cb72c6da4]
class elki.visualization.visualizers.scatterplot.index.TreeSphereVisualization--><a href="TreeSphereVisualization.html" target="_top" title="TreeSphereVisualization.html" xlink:actuate="onRequest" xlink:href="TreeSphereVisualization.html" xlink:show="new" xlink:title="TreeSphereVisualization.html" xlink:type="simple"><g id="elem_elki.visualization.visualizers.scatterplot.index.TreeSphereVisualization"><rect codeLine="27" fill="#F1F1F1" height="162.0781" id="elki.visualization.visualizers.scatterplot.index.TreeSphereVisualization" rx="2.5" ry="2.5" style="stroke:#181818;stroke-width:0.5;" width="806" x="32" y="229"/><ellipse cx="347.25" cy="245" fill="#ADD1B2" rx="11" ry="11" style="stroke:#181818;stroke-width:1.0;"/><path d="M350.2188,250.6406 Q349.6406,250.9375 349,251.0781 Q348.3594,251.2344 347.6563,251.2344 Q345.1563,251.2344 343.8281,249.5938 Q342.5156,247.9375 342.5156,244.8125 Q342.5156,241.6875 343.8281,240.0313 Q345.1563,238.375 347.6563,238.375 Q348.3594,238.375 349,238.5313 Q349.6563,238.6875 350.2188,238.9844 L350.2188,241.7031 Q349.5938,241.125 349,240.8594 Q348.4063,240.5781 347.7813,240.5781 Q346.4375,240.5781 345.75,241.6563 Q345.0625,242.7188 345.0625,244.8125 Q345.0625,246.9063 345.75,247.9844 Q346.4375,249.0469 347.7813,249.0469 Q348.4063,249.0469 349,248.7813 Q349.5938,248.5 350.2188,247.9219 L350.2188,250.6406 Z " fill="#000000"/><text fill="#000000" font-family="sans-serif" font-size="14" lengthAdjust="spacing" textLength="167" x="367.75" y="249.8467">TreeSphereVisualization</text><line style="stroke:#181818;stroke-width:0.5;" x1="33" x2="837" y1="261" y2="261"/><ellipse cx="43" cy="274.6484" fill="none" rx="3" ry="3" style="stroke:#038048;stroke-width:1.0;"/><text fill="#000000" font-family="sans-serif" font-size="14" lengthAdjust="spacing" text-decoration="underline" textLength="93" x="52" y="277.9951">INDEX: String</text><ellipse cx="43" cy="290.9453" fill="none" rx="3" ry="3" style="stroke:#038048;stroke-width:1.0;"/><text fill="#000000" font-family="sans-serif" font-size="14" lengthAdjust="spacing" text-decoration="underline" textLength="89" x="52" y="294.292">NAME: String</text><line style="stroke:#181818;stroke-width:0.5;" x1="33" x2="837" y1="301.5938" y2="301.5938"/><ellipse cx="43" cy="315.2422" fill="#84BE84" rx="3" ry="3" style="stroke:#038048;stroke-width:1.0;"/><text fill="#000000" font-family="sans-serif" font-size="14" lengthAdjust="spacing" textLength="199" x="52" y="318.5889">TreeSphereVisualization(Par)</text><ellipse cx="43" cy="331.5391" fill="#84BE84" rx="3" ry="3" style="stroke:#038048;stroke-width:1.0;"/><text fill="#000000" font-family="sans-serif" font-size="14" lengthAdjust="spacing" textLength="349" x="52" y="334.8857">processNewResult(VisualizerContext, Object): void</text><ellipse cx="43" cy="347.8359" fill="#84BE84" rx="3" ry="3" style="stroke:#038048;stroke-width:1.0;"/><text fill="#000000" font-family="sans-serif" font-size="14" lengthAdjust="spacing" textLength="780" x="52" y="351.1826">makeVisualization(VisualizerContext, VisualizationTask, VisualizationPlot, double, double, Projection): Visualization</text><ellipse cx="43" cy="364.1328" fill="#84BE84" rx="3" ry="3" style="stroke:#038048;stroke-width:1.0;"/><text fill="#000000" font-family="sans-serif" font-size="14" lengthAdjust="spacing" text-decoration="underline" textLength="329" x="52" y="367.4795">getLPNormP(AbstractMTree&lt;?, ?, ?, ?&gt;): double</text><ellipse cx="43" cy="380.4297" fill="#84BE84" rx="3" ry="3" style="stroke:#038048;stroke-width:1.0;"/><text fill="#000000" font-family="sans-serif" font-size="14" lengthAdjust="spacing" text-decoration="underline" textLength="432" x="52" y="383.7764">canVisualize(Relation&lt;?&gt;, AbstractMTree&lt;?, ?, ?, ?&gt;): boolean</text></g></a><!--MD5=[84e262b4972520a5bffbabd428b1b332]
class elki.visualization.visualizers.scatterplot.index.TreeSphereVisualization.Mode--><a href="TreeSphereVisualization.Mode.html" target="_top" title="TreeSphereVisualization.Mode.html" xlink:actuate="onRequest" xlink:href="TreeSphereVisualization.Mode.html" xlink:show="new" xlink:title="TreeSphereVisualization.Mode.html" xlink:type="simple"><g id="elem_elki.visualization.visualizers.scatterplot.index.TreeSphereVisualization.Mode"><rect codeLine="37" fill="#F1F1F1" height="96.8906" id="elki.visualization.visualizers.scatterplot.index.TreeSphereVisualization.Mode" rx="2.5" ry="2.5" style="stroke:#181818;stroke-width:0.5;" width="242" x="314" y="451"/><ellipse cx="329" cy="467" fill="#EB937F" rx="11" ry="11" style="stroke:#181818;stroke-width:1.0;"/><path d="M333.1094,473 L325.3906,473 L325.3906,460.6094 L333.1094,460.6094 L333.1094,462.7656 L327.8438,462.7656 L327.8438,465.4375 L332.6094,465.4375 L332.6094,467.5938 L327.8438,467.5938 L327.8438,470.8438 L333.1094,470.8438 L333.1094,473 Z " fill="#000000"/><text fill="#000000" font-family="sans-serif" font-size="14" lengthAdjust="spacing" textLength="210" x="343" y="471.8467">TreeSphereVisualization.Mode</text><line style="stroke:#181818;stroke-width:0.5;" x1="315" x2="555" y1="483" y2="483"/><ellipse cx="325" cy="496.6484" fill="none" rx="3" ry="3" style="stroke:#038048;stroke-width:1.0;"/><text fill="#000000" font-family="sans-serif" font-size="14" lengthAdjust="spacing" text-decoration="underline" textLength="87" x="334" y="499.9951">MANHATTAN</text><ellipse cx="325" cy="512.9453" fill="none" rx="3" ry="3" style="stroke:#038048;stroke-width:1.0;"/><text fill="#000000" font-family="sans-serif" font-size="14" lengthAdjust="spacing" text-decoration="underline" textLength="78" x="334" y="516.292">EUCLIDEAN</text><ellipse cx="325" cy="529.2422" fill="none" rx="3" ry="3" style="stroke:#038048;stroke-width:1.0;"/><text fill="#000000" font-family="sans-serif" font-size="14" lengthAdjust="spacing" text-decoration="underline" textLength="65" x="334" y="532.5889">LPCROSS</text><line style="stroke:#181818;stroke-width:0.5;" x1="315" x2="555" y1="539.8906" y2="539.8906"/></g></a><!--MD5=[7011c8faa60a6bab1ad66099509fb406]
class elki.visualization.visualizers.VisFactory--><a href="../../VisFactory.html" target="_top" title="../../VisFactory.html" xlink:actuate="onRequest" xlink:href="../../VisFactory.html" xlink:show="new" xlink:title="../../VisFactory.html" xlink:type="simple"><g id="elem_elki.visualization.visualizers.VisFactory"><rect codeLine="77" fill="#F1F1F1" height="113.1875" id="elki.visualization.visualizers.VisFactory" rx="2.5" ry="2.5" style="stroke:#181818;stroke-width:0.5;" width="919" x="21.5" y="41"/><ellipse cx="440.25" cy="57" fill="#B4A7E5" rx="11" ry="11" style="stroke:#181818;stroke-width:1.0;"/><path d="M436.1719,52.7656 L436.1719,50.6094 L443.5625,50.6094 L443.5625,52.7656 L441.0938,52.7656 L441.0938,60.8438 L443.5625,60.8438 L443.5625,63 L436.1719,63 L436.1719,60.8438 L438.6406,60.8438 L438.6406,52.7656 L436.1719,52.7656 Z " fill="#000000"/><text fill="#000000" font-family="sans-serif" font-size="14" font-style="italic" lengthAdjust="spacing" textLength="73" x="460.75" y="61.8467">VisFactory</text><line style="stroke:#181818;stroke-width:0.5;" x1="22.5" x2="939.5" y1="73" y2="73"/><line style="stroke:#181818;stroke-width:0.5;" x1="22.5" x2="939.5" y1="81" y2="81"/><ellipse cx="32.5" cy="94.6484" fill="#84BE84" rx="3" ry="3" style="stroke:#038048;stroke-width:1.0;"/><text fill="#000000" font-family="sans-serif" font-size="14" font-style="italic" lengthAdjust="spacing" textLength="355" x="41.5" y="97.9951">processNewResult(VisualizerContext, Object): void</text><ellipse cx="32.5" cy="110.9453" fill="#84BE84" rx="3" ry="3" style="stroke:#038048;stroke-width:1.0;"/><text fill="#000000" font-family="sans-serif" font-size="14" font-style="italic" lengthAdjust="spacing" textLength="809" x="41.5" y="114.292">makeVisualization(VisualizerContext, VisualizationTask, VisualizationPlot, double, double, Projection): Visualization</text><ellipse cx="32.5" cy="127.2422" fill="#84BE84" rx="3" ry="3" style="stroke:#038048;stroke-width:1.0;"/><text fill="#000000" font-family="sans-serif" font-size="14" lengthAdjust="spacing" textLength="307" x="41.5" y="130.5889">allowThumbnails(VisualizationTask): boolean</text><ellipse cx="32.5" cy="143.5391" fill="#84BE84" rx="3" ry="3" style="stroke:#038048;stroke-width:1.0;"/><text fill="#000000" font-family="sans-serif" font-size="14" lengthAdjust="spacing" textLength="893" x="41.5" y="146.8857">makeVisualizationOrThumbnail(VisualizerContext, VisualizationTask, VisualizationPlot, double, double, Projection, int): Visualization</text></g></a><!--MD5=[8200b35217aeac05b42c3e4cc92f9623]
class elki.visualization.visualizers.scatterplot.AbstractScatterplotVisualization--><a href="../AbstractScatterplotVisualization.html" target="_top" title="../AbstractScatterplotVisualization.html" xlink:actuate="onRequest" xlink:href="../AbstractScatterplotVisualization.html" xlink:show="new" xlink:title="../AbstractScatterplotVisualization.html" xlink:type="simple"><g id="elem_elki.visualization.visualizers.scatterplot.AbstractScatterplotVisualization"><rect codeLine="86" fill="#F1F1F1" height="96.8906" id="elki.visualization.visualizers.scatterplot.AbstractScatterplotVisualization" rx="2.5" ry="2.5" style="stroke:#181818;stroke-width:0.5;" width="303" x="1005.5" y="49"/><ellipse cx="1041.2" cy="65" fill="#A9DCDF" rx="11" ry="11" style="stroke:#181818;stroke-width:1.0;"/><path d="M1041.3094,60.3438 L1040.1531,65.4219 L1042.4813,65.4219 L1041.3094,60.3438 Z M1039.825,58.1094 L1042.8094,58.1094 L1046.1688,70.5 L1043.7156,70.5 L1042.95,67.4375 L1039.6688,67.4375 L1038.9188,70.5 L1036.4813,70.5 L1039.825,58.1094 Z " fill="#000000"/><text fill="#000000" font-family="sans-serif" font-size="14" font-style="italic" lengthAdjust="spacing" textLength="225" x="1059.8" y="69.8467">AbstractScatterplotVisualization</text><line style="stroke:#181818;stroke-width:0.5;" x1="1006.5" x2="1307.5" y1="81" y2="81"/><polygon fill="none" points="1016.5,89.6484,1020.5,93.6484,1016.5,97.6484,1012.5,93.6484" style="stroke:#B38D22;stroke-width:1.0;"/><text fill="#000000" font-family="sans-serif" font-size="14" lengthAdjust="spacing" textLength="124" x="1025.5" y="97.9951">proj: Projection2D</text><polygon fill="none" points="1016.5,105.9453,1020.5,109.9453,1016.5,113.9453,1012.5,109.9453" style="stroke:#B38D22;stroke-width:1.0;"/><text fill="#000000" font-family="sans-serif" font-size="14" lengthAdjust="spacing" textLength="277" x="1025.5" y="114.292">rel: Relation&lt;? extends NumberVector&gt;</text><polygon fill="none" points="1016.5,122.2422,1020.5,126.2422,1016.5,130.2422,1012.5,126.2422" style="stroke:#B38D22;stroke-width:1.0;"/><text fill="#000000" font-family="sans-serif" font-size="14" lengthAdjust="spacing" textLength="166" x="1025.5" y="130.5889">sample: SamplingResult</text><line style="stroke:#181818;stroke-width:0.5;" x1="1006.5" x2="1307.5" y1="137.8906" y2="137.8906"/></g></a><!--MD5=[8cace74366cfd75dded1cbbbff903427]
class elki.database.datastore.DataStoreListener--><a href="../../../../database/datastore/DataStoreListener.html" target="_top" title="../../../../database/datastore/DataStoreListener.html" xlink:actuate="onRequest" xlink:href="../../../../database/datastore/DataStoreListener.html" xlink:show="new" xlink:title="../../../../database/datastore/DataStoreListener.html" xlink:type="simple"><g id="elem_elki.database.datastore.DataStoreListener"><rect codeLine="94" fill="#F1F1F1" height="64.2969" id="elki.database.datastore.DataStoreListener" rx="2.5" ry="2.5" style="stroke:#181818;stroke-width:0.5;" width="304" x="1370" y="65.5"/><ellipse cx="1454.25" cy="81.5" fill="#B4A7E5" rx="11" ry="11" style="stroke:#181818;stroke-width:1.0;"/><path d="M1450.1719,77.2656 L1450.1719,75.1094 L1457.5625,75.1094 L1457.5625,77.2656 L1455.0938,77.2656 L1455.0938,85.3438 L1457.5625,85.3438 L1457.5625,87.5 L1450.1719,87.5 L1450.1719,85.3438 L1452.6406,85.3438 L1452.6406,77.2656 L1450.1719,77.2656 Z " fill="#000000"/><text fill="#000000" font-family="sans-serif" font-size="14" font-style="italic" lengthAdjust="spacing" textLength="127" x="1474.75" y="86.3467">DataStoreListener</text><line style="stroke:#181818;stroke-width:0.5;" x1="1371" x2="1673" y1="97.5" y2="97.5"/><line style="stroke:#181818;stroke-width:0.5;" x1="1371" x2="1673" y1="105.5" y2="105.5"/><ellipse cx="1381" cy="119.1484" fill="#84BE84" rx="3" ry="3" style="stroke:#038048;stroke-width:1.0;"/><text fill="#000000" font-family="sans-serif" font-size="14" font-style="italic" lengthAdjust="spacing" textLength="278" x="1390" y="122.4951">contentChanged(DataStoreEvent): void</text></g></a><!--MD5=[6e3f5a097067e698c6f43752c98e5a8a]
reverse link elki.visualization.visualizers.VisFactory to elki.visualization.visualizers.scatterplot.index.TreeMBRVisualization--><g id="link_elki.visualization.visualizers.VisFactory_elki.visualization.visualizers.scatterplot.index.TreeMBRVisualization"><path codeLine="58" d="M747.48,158.75 C784.02,167.57 820.99,176.8 856,186 C925.17,204.18 1000.25,225.62 1067.55,245.47 " fill="none" id="elki.visualization.visualizers.VisFactory-backto-elki.visualization.visualizers.scatterplot.index.TreeMBRVisualization" style="stroke:#181818;stroke-width:1.0;stroke-dasharray:7.0,7.0;"/><polygon fill="none" points="745.64,165.51,727.83,154.03,748.91,151.89,745.64,165.51" style="stroke:#181818;stroke-width:1.0;"/></g><!--MD5=[99773505250a2e1e4ef9f8b0318c9fb6]
reverse link elki.visualization.visualizers.VisFactory to elki.visualization.visualizers.scatterplot.index.TreeSphereVisualization--><g id="link_elki.visualization.visualizers.VisFactory_elki.visualization.visualizers.scatterplot.index.TreeSphereVisualization"><path codeLine="65" d="M464.58,173.66 C460.66,191.58 456.46,210.78 452.5,228.91 " fill="none" id="elki.visualization.visualizers.VisFactory-backto-elki.visualization.visualizers.scatterplot.index.TreeSphereVisualization" style="stroke:#181818;stroke-width:1.0;stroke-dasharray:7.0,7.0;"/><polygon fill="none" points="457.75,172.13,468.85,154.08,471.42,175.12,457.75,172.13" style="stroke:#181818;stroke-width:1.0;"/></g><!--MD5=[04f19eba045f5432623bab0aa00022c2]
reverse link elki.visualization.visualizers.scatterplot.index.TreeSphereVisualization to elki.visualization.visualizers.scatterplot.index.TreeSphereVisualization.Mode--><g id="link_elki.visualization.visualizers.scatterplot.index.TreeSphereVisualization_elki.visualization.visualizers.scatterplot.index.TreeSphereVisualization.Mode"><path codeLine="67" d="M435,406.47 C435,421.92 435,437.3 435,450.95 " fill="none" id="elki.visualization.visualizers.scatterplot.index.TreeSphereVisualization-backto-elki.visualization.visualizers.scatterplot.index.TreeSphereVisualization.Mode" style="stroke:#181818;stroke-width:1.0;"/><ellipse cx="435" cy="399.06" fill="#FFFFFF" rx="8" ry="8" style="stroke:#181818;stroke-width:1.0;"/><line style="stroke:#181818;stroke-width:1.0;" x1="435" x2="435" y1="407.06" y2="391.06"/><line style="stroke:#181818;stroke-width:1.0;" x1="427" x2="443" y1="399.06" y2="399.06"/></g><rect fill="none" height="11.6406" style="stroke:none;stroke-width:1.0;" width="186" x="751" y="570"/><text fill="#888888" font-family="sans-serif" font-size="10" lengthAdjust="spacing" textLength="186" x="751" y="579.2822">UMLDoclet 2.0.19, PlantUML 1.2022.8</text><!--MD5=[4732d6f7b300c773ca1fedc50f38e06f]
@startuml
    remove .*\.(Instance|Par|Parameterizer|Factory)$
    namespace elki.visualization.visualizers.scatterplot.index {

        class TreeMBRVisualization [[TreeMBRVisualization.html]] {
            {static} +INDEX: String
            {static} +NAME: String
            +TreeMBRVisualization(Par)
            +makeVisualization(VisualizerContext, VisualizationTask, VisualizationPlot, double, double, Projection): Visualization
            +processNewResult(VisualizerContext, Object): void
        }

        class elki.visualization.visualizers.scatterplot.index.TreeMBRVisualization.Instance<N extends AbstractRStarTreeNode<N, E extends SpatialEntry>, E extends SpatialEntry> [[TreeMBRVisualization.Instance.html]] {
            #tree: AbstractRStarTree<N extends AbstractRStarTreeNode<N, E extends SpatialEntry>, E extends SpatialEntry, ?>
            +Instance(VisualizerContext, VisualizationTask, VisualizationPlot, double, double, Projection)
            +fullRedraw(): void
            -visualizeRTreeEntry(SVGPlot, Element, Projection2D, AbstractRStarTree<? extends AbstractRStarTreeNode<N, E extends SpatialEntry>, E extends SpatialEntry, ?>, E extends SpatialEntry, int): void
            +destroy(): void
        }

        class elki.visualization.visualizers.scatterplot.index.TreeMBRVisualization.Par [[TreeMBRVisualization.Par.html]] {
            {static} +FILL_ID: OptionID
            #fill: boolean
            +configure(Parameterization): void
            +make(): TreeMBRVisualization
        }

        class TreeSphereVisualization [[TreeSphereVisualization.html]] {
            {static} +INDEX: String
            {static} +NAME: String
            +TreeSphereVisualization(Par)
            +processNewResult(VisualizerContext, Object): void
            +makeVisualization(VisualizerContext, VisualizationTask, VisualizationPlot, double, double, Projection): Visualization
            {static} +getLPNormP(AbstractMTree<?, ?, ?, ?>): double
            {static} +canVisualize(Relation<?>, AbstractMTree<?, ?, ?, ?>): boolean
        }

        enum elki.visualization.visualizers.scatterplot.index.TreeSphereVisualization.Mode [[TreeSphereVisualization.Mode.html]] {
            {static} +MANHATTAN
            {static} +EUCLIDEAN
            {static} +LPCROSS
        }

        class elki.visualization.visualizers.scatterplot.index.TreeSphereVisualization.Instance<N extends AbstractMTreeNode<?, N, E extends MTreeEntry>, E extends MTreeEntry> [[TreeSphereVisualization.Instance.html]] {
            #p: double
            #tree: AbstractMTree<?, N extends AbstractMTreeNode<?, N, E extends MTreeEntry>, E extends MTreeEntry, ?>
            +Instance(VisualizerContext, VisualizationTask, VisualizationPlot, double, double, Projection)
            +fullRedraw(): void
            -visualizeMTreeEntry(SVGPlot, Element, Projection2D, AbstractMTree<?, N extends AbstractMTreeNode<?, N, E extends MTreeEntry>, E extends MTreeEntry, ?>, E extends MTreeEntry, int): void
            +destroy(): void
        }

        class elki.visualization.visualizers.scatterplot.index.TreeSphereVisualization.Par [[TreeSphereVisualization.Par.html]] {
            #fill: boolean
            +configure(Parameterization): void
            +make(): TreeSphereVisualization
        }

        elki.visualization.visualizers.VisFactory <|.. TreeMBRVisualization
        TreeMBRVisualization - -> elki.visualization.visualizers.scatterplot.index.TreeMBRVisualization.Par: settings
        elki.visualization.visualizers.scatterplot.AbstractScatterplotVisualization <|- - elki.visualization.visualizers.scatterplot.index.TreeMBRVisualization.Instance
        elki.database.datastore.DataStoreListener <|.. elki.visualization.visualizers.scatterplot.index.TreeMBRVisualization.Instance
        TreeMBRVisualization +- - elki.visualization.visualizers.scatterplot.index.TreeMBRVisualization.Instance
        elki.utilities.optionhandling.Parameterizer <|.. elki.visualization.visualizers.scatterplot.index.TreeMBRVisualization.Par
        TreeMBRVisualization +- - elki.visualization.visualizers.scatterplot.index.TreeMBRVisualization.Par
        elki.visualization.visualizers.VisFactory <|.. TreeSphereVisualization
        TreeSphereVisualization - -> elki.visualization.visualizers.scatterplot.index.TreeSphereVisualization.Par: settings
        TreeSphereVisualization +- - elki.visualization.visualizers.scatterplot.index.TreeSphereVisualization.Mode
        elki.visualization.visualizers.scatterplot.AbstractScatterplotVisualization <|- - elki.visualization.visualizers.scatterplot.index.TreeSphereVisualization.Instance
        elki.database.datastore.DataStoreListener <|.. elki.visualization.visualizers.scatterplot.index.TreeSphereVisualization.Instance
        TreeSphereVisualization +- - elki.visualization.visualizers.scatterplot.index.TreeSphereVisualization.Instance
        elki.visualization.visualizers.scatterplot.index.TreeSphereVisualization.Instance - -> elki.visualization.visualizers.scatterplot.index.TreeSphereVisualization.Mode: dist
        elki.utilities.optionhandling.Parameterizer <|.. elki.visualization.visualizers.scatterplot.index.TreeSphereVisualization.Par
        TreeSphereVisualization +- - elki.visualization.visualizers.scatterplot.index.TreeSphereVisualization.Par
    }

    namespace elki.visualization.visualizers {
        interface VisFactory [[../../VisFactory.html]] {
            {abstract} +processNewResult(VisualizerContext, Object): void
            {abstract} +makeVisualization(VisualizerContext, VisualizationTask, VisualizationPlot, double, double, Projection): Visualization
            +allowThumbnails(VisualizationTask): boolean
            +makeVisualizationOrThumbnail(VisualizerContext, VisualizationTask, VisualizationPlot, double, double, Projection, int): Visualization
        }
    }

    namespace elki.visualization.visualizers.scatterplot {
        abstract class AbstractScatterplotVisualization [[../AbstractScatterplotVisualization.html]] {
            #proj: Projection2D
            #rel: Relation<? extends NumberVector>
            #sample: SamplingResult
        }
    }

    namespace elki.database.datastore {
        interface DataStoreListener [[../../../../database/datastore/DataStoreListener.html]] {
            {abstract} +contentChanged(DataStoreEvent): void
        }
    }

    namespace elki.utilities.optionhandling {
        interface Parameterizer [[../../../../utilities/optionhandling/Parameterizer.html]] {
            +configure(Parameterization): void
            {abstract} +make(): Object
        }
    }

    center footer UMLDoclet 2.0.19, PlantUML 1.2022.8
@enduml

PlantUML version 1.2022.8(Sun Sep 25 11:00:33 CEST 2022)
(APACHE source distribution)
Java Runtime: OpenJDK Runtime Environment
JVM: OpenJDK 64-Bit Server VM
Default Encoding: UTF-8
Language: de
Country: DE
--></g></svg>