<?xml version="1.0" encoding="UTF-8" standalone="no"?>
<!DOCTYPE svg PUBLIC "-//W3C//DTD SVG 1.1//EN"
 "http://www.w3.org/Graphics/SVG/1.1/DTD/svg11.dtd">
<!-- Generated by graphviz version 2.40.1 (20161225.0304)
 -->
<!-- Title: G Pages: 1 -->
<svg width="537pt" height="67pt"
 viewBox="0.00 0.00 537.00 67.00" xmlns="http://www.w3.org/2000/svg" xmlns:xlink="http://www.w3.org/1999/xlink">
<g id="graph0" class="graph" transform="scale(1 1) rotate(0) translate(4 63)">
<title>G</title>
<polygon fill="#ffffff" stroke="transparent" points="-4,4 -4,-63 533,-63 533,4 -4,4"/>
<!-- c365582 -->
<g id="node1" class="node">
<title>c365582</title>
<g id="a_node1"><a xlink:href="KNNQuery.html" xlink:title="&lt;TABLE&gt;">
<g id="a_node1_0"><a xlink:href="KNNQuery.html" xlink:title="de.lmu.ifi.dbs.elki.database.query.knn.KNNQuery" target="_parent">
<polygon fill="#fffacd" stroke="transparent" points="0,-8.5 0,-36.5 53,-36.5 53,-8.5 0,-8.5"/>
<polygon fill="none" stroke="#000000" points=".5,-8.5 .5,-36.5 53.5,-36.5 53.5,-8.5 .5,-8.5"/>
<text text-anchor="start" x="5.5" y="-26.1" font-family="Roboto" font-size="8.00" fill="#000000"> «interface» </text>
<text text-anchor="start" x="4.5" y="-16.1" font-family="Roboto" font-size="8.00" fill="#000000"> </text>
<text text-anchor="start" x="7.5" y="-16.1" font-family="Roboto" font-size="8.00" fill="#000000">KNNQuery</text>
<text text-anchor="start" x="46.5" y="-16.1" font-family="Roboto" font-size="8.00" fill="#000000"> </text>
</a>
</g>
</a>
</g>
</g>
<!-- c366651 -->
<g id="node5" class="node">
<title>c366651</title>
<g id="a_node5"><a xlink:href="AbstractDistanceKNNQuery.html" xlink:title="&lt;TABLE&gt;">
<g id="a_node5_1"><a xlink:href="AbstractDistanceKNNQuery.html" xlink:title="de.lmu.ifi.dbs.elki.database.query.knn.AbstractDistanceKNNQuery" target="_parent">
<polygon fill="none" stroke="#000000" points="71,-27.5 71,-44.5 181,-44.5 181,-27.5 71,-27.5"/>
<text text-anchor="start" x="75" y="-35.1" font-family="Roboto" font-size="8.00" fill="#000000"> </text>
<text text-anchor="start" x="78" y="-35.1" font-family="Roboto" font-style="italic" font-size="8.00" fill="#000000">AbstractDistanceKNNQuery</text>
<text text-anchor="start" x="174" y="-35.1" font-family="Roboto" font-size="8.00" fill="#000000"> </text>
</a>
</g>
</a>
</g>
</g>
<!-- c365582&#45;&gt;c366651 -->
<g id="edge4" class="edge">
<title>c365582&#45;&gt;c366651</title>
<path fill="none" stroke="#000000" stroke-dasharray="5,2" d="M63.1654,-27.6589C65.6817,-28.013 68.2462,-28.3738 70.8303,-28.7374"/>
<polygon fill="none" stroke="#000000" points="63.5543,-24.1793 53.1642,-26.2517 62.5789,-31.111 63.5543,-24.1793"/>
</g>
<!-- c366955 -->
<g id="node6" class="node">
<title>c366955</title>
<g id="a_node6"><a xlink:href="PreprocessorKNNQuery.html" xlink:title="&lt;TABLE&gt;">
<g id="a_node6_2"><a xlink:href="PreprocessorKNNQuery.html" xlink:title="de.lmu.ifi.dbs.elki.database.query.knn.PreprocessorKNNQuery" target="_parent">
<polygon fill="none" stroke="#000000" points="78,.5 78,-16.5 175,-16.5 175,.5 78,.5"/>
<text text-anchor="start" x="82" y="-7.1" font-family="Roboto" font-size="8.00" fill="#000000"> </text>
<text text-anchor="start" x="85" y="-7.1" font-family="Roboto" font-size="8.00" fill="#000000">PreprocessorKNNQuery</text>
<text text-anchor="start" x="168" y="-7.1" font-family="Roboto" font-size="8.00" fill="#000000"> </text>
</a>
</g>
</a>
</g>
</g>
<!-- c365582&#45;&gt;c366955 -->
<g id="edge5" class="edge">
<title>c365582&#45;&gt;c366955</title>
<path fill="none" stroke="#000000" stroke-dasharray="5,2" d="M63.4218,-17.305C67.9711,-16.6649 72.6739,-16.0032 77.3636,-15.3433"/>
<polygon fill="none" stroke="#000000" points="62.5789,-13.889 53.1642,-18.7483 63.5543,-20.8207 62.5789,-13.889"/>
</g>
<!-- c366648 -->
<g id="node2" class="node">
<title>c366648</title>
<g id="a_node2"><a xlink:href="LinearScanPrimitiveDistanceKNNQuery.html" xlink:title="&lt;TABLE&gt;">
<g id="a_node2_3"><a xlink:href="LinearScanPrimitiveDistanceKNNQuery.html" xlink:title="de.lmu.ifi.dbs.elki.database.query.knn.LinearScanPrimitiveDistanceKNNQuery" target="_parent">
<polygon fill="none" stroke="#000000" points="199,-41.5 199,-58.5 353,-58.5 353,-41.5 199,-41.5"/>
<text text-anchor="start" x="203" y="-49.1" font-family="Roboto" font-size="8.00" fill="#000000"> </text>
<text text-anchor="start" x="206" y="-49.1" font-family="Roboto" font-size="8.00" fill="#000000">LinearScanPrimitiveDistanceKNNQuery</text>
<text text-anchor="start" x="346" y="-49.1" font-family="Roboto" font-size="8.00" fill="#000000"> </text>
</a>
</g>
</a>
</g>
</g>
<!-- c366650 -->
<g id="node4" class="node">
<title>c366650</title>
<g id="a_node4"><a xlink:href="LinearScanEuclideanDistanceKNNQuery.html" xlink:title="&lt;TABLE&gt;">
<g id="a_node4_4"><a xlink:href="LinearScanEuclideanDistanceKNNQuery.html" xlink:title="de.lmu.ifi.dbs.elki.database.query.knn.LinearScanEuclideanDistanceKNNQuery" target="_parent">
<polygon fill="none" stroke="#000000" points="371,-41.5 371,-58.5 529,-58.5 529,-41.5 371,-41.5"/>
<text text-anchor="start" x="375" y="-49.1" font-family="Roboto" font-size="8.00" fill="#000000"> </text>
<text text-anchor="start" x="378" y="-49.1" font-family="Roboto" font-size="8.00" fill="#000000">LinearScanEuclideanDistanceKNNQuery</text>
<text text-anchor="start" x="522" y="-49.1" font-family="Roboto" font-size="8.00" fill="#000000"> </text>
</a>
</g>
</a>
</g>
</g>
<!-- c366648&#45;&gt;c366650 -->
<g id="edge3" class="edge">
<title>c366648&#45;&gt;c366650</title>
<path fill="none" stroke="#000000" d="M363.0886,-50.5C365.6887,-50.5 368.2887,-50.5 370.8793,-50.5"/>
<polygon fill="none" stroke="#000000" points="363.0788,-47.0001 353.0788,-50.5 363.0788,-54.0001 363.0788,-47.0001"/>
</g>
<!-- c366649 -->
<g id="node3" class="node">
<title>c366649</title>
<g id="a_node3"><a xlink:href="LinearScanDistanceKNNQuery.html" xlink:title="&lt;TABLE&gt;">
<g id="a_node3_5"><a xlink:href="LinearScanDistanceKNNQuery.html" xlink:title="de.lmu.ifi.dbs.elki.database.query.knn.LinearScanDistanceKNNQuery" target="_parent">
<polygon fill="none" stroke="#000000" points="215,-13.5 215,-30.5 338,-30.5 338,-13.5 215,-13.5"/>
<text text-anchor="start" x="219" y="-21.1" font-family="Roboto" font-size="8.00" fill="#000000"> </text>
<text text-anchor="start" x="222" y="-21.1" font-family="Roboto" font-size="8.00" fill="#000000">LinearScanDistanceKNNQuery</text>
<text text-anchor="start" x="331" y="-21.1" font-family="Roboto" font-size="8.00" fill="#000000"> </text>
</a>
</g>
</a>
</g>
</g>
<!-- c366651&#45;&gt;c366648 -->
<g id="edge1" class="edge">
<title>c366651&#45;&gt;c366648</title>
<path fill="none" stroke="#000000" d="M191.0179,-42.5683C193.643,-42.8134 196.2848,-43.0599 198.93,-43.3068"/>
<polygon fill="none" stroke="#000000" points="191.2847,-39.0781 181.0027,-41.6336 190.6342,-46.0478 191.2847,-39.0781"/>
</g>
<!-- c366651&#45;&gt;c366649 -->
<g id="edge2" class="edge">
<title>c366651&#45;&gt;c366649</title>
<path fill="none" stroke="#000000" d="M191.0782,-30.426C198.8271,-29.7028 206.7199,-28.9661 214.4177,-28.2477"/>
<polygon fill="none" stroke="#000000" points="190.6342,-26.9522 181.0027,-31.3664 191.2847,-33.9219 190.6342,-26.9522"/>
</g>
</g>
</svg>
