<?xml version="1.0" encoding="UTF-8" standalone="no"?><svg xmlns="http://www.w3.org/2000/svg" xmlns:xlink="http://www.w3.org/1999/xlink" contentStyleType="text/css" height="276px" preserveAspectRatio="none" style="width:532px;height:276px;background:#FFFFFF;" version="1.1" viewBox="0 0 532 276" width="532px" zoomAndPan="magnify"><defs/><g><!--MD5=[bfba96be4ac722c67c3e7ac3c179bb8b]
class elki.clustering.kmeans.HartiganWongKMeans--><a href="HartiganWongKMeans.html" target="_top" title="HartiganWongKMeans.html" xlink:actuate="onRequest" xlink:href="HartiganWongKMeans.html" xlink:show="new" xlink:title="HartiganWongKMeans.html" xlink:type="simple"><g id="elem_elki.clustering.kmeans.HartiganWongKMeans"><rect codeLine="6" fill="#F1F1F1" height="119.125" id="elki.clustering.kmeans.HartiganWongKMeans" rx="2.5" ry="2.5" style="stroke:#181818;stroke-width:0.5;" width="512" x="9" y="132"/><ellipse cx="107.75" cy="150.9688" fill="#ADD1B2" rx="11" ry="11" style="stroke:#181818;stroke-width:1.0;"/><path d="M110.7188,156.6094 Q110.1406,156.9063 109.5,157.0469 Q108.8594,157.2031 108.1563,157.2031 Q105.6563,157.2031 104.3281,155.5625 Q103.0156,153.9063 103.0156,150.7813 Q103.0156,147.6563 104.3281,146 Q105.6563,144.3438 108.1563,144.3438 Q108.8594,144.3438 109.5,144.5 Q110.1563,144.6563 110.7188,144.9531 L110.7188,147.6719 Q110.0938,147.0938 109.5,146.8281 Q108.9063,146.5469 108.2813,146.5469 Q106.9375,146.5469 106.25,147.625 Q105.5625,148.6875 105.5625,150.7813 Q105.5625,152.875 106.25,153.9531 Q106.9375,155.0156 108.2813,155.0156 Q108.9063,155.0156 109.5,154.75 Q110.0938,154.4688 110.7188,153.8906 L110.7188,156.6094 Z " fill="#000000"/><text fill="#000000" font-family="sans-serif" font-size="14" lengthAdjust="spacing" textLength="152" x="128.25" y="149.9951">HartiganWongKMeans</text><text fill="#000000" font-family="sans-serif" font-size="10" lengthAdjust="spacing" textLength="105" x="151.75" y="162.5791">elki.clustering.kmeans</text><rect fill="#FFFFFF" height="15.9688" style="stroke:#181818;stroke-width:1.0;stroke-dasharray:2.0,2.0;" width="152" x="372" y="129"/><text fill="#000000" font-family="sans-serif" font-size="12" font-style="italic" lengthAdjust="spacing" textLength="150" x="373" y="141.1387">V extends NumberVector</text><line style="stroke:#181818;stroke-width:0.5;" x1="10" x2="520" y1="169.9375" y2="169.9375"/><rect fill="none" height="6" style="stroke:#C82930;stroke-width:1.0;" width="6" x="17" y="180.5859"/><text fill="#000000" font-family="sans-serif" font-size="14" lengthAdjust="spacing" text-decoration="underline" textLength="93" x="29" y="186.9326">LOG: Logging</text><line style="stroke:#181818;stroke-width:0.5;" x1="10" x2="520" y1="194.2344" y2="194.2344"/><ellipse cx="20" cy="207.8828" fill="#84BE84" rx="3" ry="3" style="stroke:#038048;stroke-width:1.0;"/><text fill="#000000" font-family="sans-serif" font-size="14" lengthAdjust="spacing" textLength="321" x="29" y="211.2295">HartiganWongKMeans(int, KMeansInitialization)</text><ellipse cx="20" cy="224.1797" fill="#84BE84" rx="3" ry="3" style="stroke:#038048;stroke-width:1.0;"/><text fill="#000000" font-family="sans-serif" font-size="14" lengthAdjust="spacing" textLength="486" x="29" y="227.5264">run(Relation&lt;V extends NumberVector&gt;): Clustering&lt;KMeansModel&gt;</text><polygon fill="#FFFF44" points="20,235.4766,24,239.4766,20,243.4766,16,239.4766" style="stroke:#B38D22;stroke-width:1.0;"/><text fill="#000000" font-family="sans-serif" font-size="14" lengthAdjust="spacing" textLength="145" x="29" y="243.8232">getLogger(): Logging</text></g></a><!--MD5=[65741f9ab1d9b71be36c274839b2c01a]
class elki.clustering.kmeans.AbstractKMeans--><a href="AbstractKMeans.html" target="_top" title="AbstractKMeans.html" xlink:actuate="onRequest" xlink:href="AbstractKMeans.html" xlink:show="new" xlink:title="AbstractKMeans.html" xlink:type="simple"><g id="elem_elki.clustering.kmeans.AbstractKMeans"><rect codeLine="13" fill="#F1F1F1" height="62.2344" id="elki.clustering.kmeans.AbstractKMeans" rx="2.5" ry="2.5" style="stroke:#181818;stroke-width:0.5;" width="387" x="71.5" y="10"/><ellipse cx="86.5" cy="28.9688" fill="#A9DCDF" rx="11" ry="11" style="stroke:#181818;stroke-width:1.0;"/><path d="M86.6094,24.3125 L85.4531,29.3906 L87.7813,29.3906 L86.6094,24.3125 Z M85.125,22.0781 L88.1094,22.0781 L91.4688,34.4688 L89.0156,34.4688 L88.25,31.4063 L84.9688,31.4063 L84.2188,34.4688 L81.7813,34.4688 L85.125,22.0781 Z " fill="#000000"/><text fill="#000000" font-family="sans-serif" font-size="14" font-style="italic" lengthAdjust="spacing" textLength="113" x="100.5" y="27.9951">AbstractKMeans</text><text fill="#000000" font-family="sans-serif" font-size="10" font-style="italic" lengthAdjust="spacing" textLength="112" x="101" y="40.5791">elki.clustering.kmeans</text><rect fill="#FFFFFF" height="15.9688" style="stroke:#181818;stroke-width:1.0;stroke-dasharray:2.0,2.0;" width="240" x="221.5" y="7"/><text fill="#000000" font-family="sans-serif" font-size="12" font-style="italic" lengthAdjust="spacing" textLength="238" x="222.5" y="19.1387">V extends NumberVector, KMeansModel</text><line style="stroke:#181818;stroke-width:0.5;" x1="72.5" x2="457.5" y1="47.9375" y2="47.9375"/><polygon fill="#FFFF44" points="82.5,56.5859,86.5,60.5859,82.5,64.5859,78.5,60.5859" style="stroke:#B38D22;stroke-width:1.0;"/><text fill="#000000" font-family="sans-serif" font-size="14" font-style="italic" lengthAdjust="spacing" textLength="148" x="91.5" y="64.9326">getLogger(): Logging</text></g></a><!--MD5=[20714771230a1e96ba932296a30925b4]
reverse link elki.clustering.kmeans.AbstractKMeans to elki.clustering.kmeans.HartiganWongKMeans--><g id="link_elki.clustering.kmeans.AbstractKMeans_elki.clustering.kmeans.HartiganWongKMeans"><path codeLine="19" d="M265,92.22 C265,104.98 265,118.81 265,131.95 " fill="none" id="elki.clustering.kmeans.AbstractKMeans-backto-elki.clustering.kmeans.HartiganWongKMeans" style="stroke:#181818;stroke-width:1.0;"/><polygon fill="none" points="258,92.05,265,72.05,272,92.05,258,92.05" style="stroke:#181818;stroke-width:1.0;"/></g><rect fill="none" height="11.6406" style="stroke:none;stroke-width:1.0;" width="186" x="166" y="257.125"/><text fill="#888888" font-family="sans-serif" font-size="10" lengthAdjust="spacing" textLength="186" x="166" y="266.4072">UMLDoclet 2.0.19, PlantUML 1.2022.8</text><!--MD5=[c18ef880d7e75a9b42166428bd12002c]
@startuml
    remove .*\.(Instance|Par|Parameterizer|Factory)$
    set namespaceSeparator none
    hide empty fields
    hide empty methods

    class "<size:14>HartiganWongKMeans\n<size:10>elki.clustering.kmeans" as elki.clustering.kmeans.HartiganWongKMeans<V extends NumberVector> [[HartiganWongKMeans.html]] {
        {static} -LOG: Logging
        +HartiganWongKMeans(int, KMeansInitialization)
        +run(Relation<V extends NumberVector>): Clustering<KMeansModel>
        #getLogger(): Logging
    }

    abstract class "<size:14>AbstractKMeans\n<size:10>elki.clustering.kmeans" as elki.clustering.kmeans.AbstractKMeans<V extends NumberVector, KMeansModel> [[AbstractKMeans.html]] {
        {abstract} #getLogger(): Logging
    }
    class "<size:14>HartiganWongKMeans.Instance\n<size:10>elki.clustering.kmeans" as elki.clustering.kmeans.HartiganWongKMeans.Instance [[HartiganWongKMeans.Instance.html]]
    class "<size:14>HartiganWongKMeans.Parameterizer\n<size:10>elki.clustering.kmeans" as elki.clustering.kmeans.HartiganWongKMeans.Parameterizer<V extends NumberVector> [[HartiganWongKMeans.Parameterizer.html]]

    elki.clustering.kmeans.AbstractKMeans <|- - elki.clustering.kmeans.HartiganWongKMeans
    elki.clustering.kmeans.HartiganWongKMeans +- - elki.clustering.kmeans.HartiganWongKMeans.Instance
    elki.clustering.kmeans.HartiganWongKMeans +- - elki.clustering.kmeans.HartiganWongKMeans.Parameterizer

    center footer UMLDoclet 2.0.19, PlantUML 1.2022.8
@enduml

PlantUML version 1.2022.8(Sun Sep 25 11:00:33 CEST 2022)
(APACHE source distribution)
Java Runtime: OpenJDK Runtime Environment
JVM: OpenJDK 64-Bit Server VM
Default Encoding: UTF-8
Language: de
Country: DE
--></g></svg>