<?xml version="1.0" encoding="UTF-8" standalone="no"?><svg xmlns="http://www.w3.org/2000/svg" xmlns:xlink="http://www.w3.org/1999/xlink" contentStyleType="text/css" height="276px" preserveAspectRatio="none" style="width:690px;height:276px;background:#FFFFFF;" version="1.1" viewBox="0 0 690 276" width="690px" zoomAndPan="magnify"><defs/><g><!--MD5=[d2c2661589e5e4c8d8569483c0f654ae]
class elki.clustering.kmeans.KMediansLloyd--><a href="KMediansLloyd.html" target="_top" title="KMediansLloyd.html" xlink:actuate="onRequest" xlink:href="KMediansLloyd.html" xlink:show="new" xlink:title="KMediansLloyd.html" xlink:type="simple"><g id="elem_elki.clustering.kmeans.KMediansLloyd"><rect codeLine="6" fill="#F1F1F1" height="119.125" id="elki.clustering.kmeans.KMediansLloyd" rx="2.5" ry="2.5" style="stroke:#181818;stroke-width:0.5;" width="670" x="9" y="132"/><ellipse cx="210.25" cy="150.9688" fill="#ADD1B2" rx="11" ry="11" style="stroke:#181818;stroke-width:1.0;"/><path d="M213.2188,156.6094 Q212.6406,156.9063 212,157.0469 Q211.3594,157.2031 210.6563,157.2031 Q208.1563,157.2031 206.8281,155.5625 Q205.5156,153.9063 205.5156,150.7813 Q205.5156,147.6563 206.8281,146 Q208.1563,144.3438 210.6563,144.3438 Q211.3594,144.3438 212,144.5 Q212.6563,144.6563 213.2188,144.9531 L213.2188,147.6719 Q212.5938,147.0938 212,146.8281 Q211.4063,146.5469 210.7813,146.5469 Q209.4375,146.5469 208.75,147.625 Q208.0625,148.6875 208.0625,150.7813 Q208.0625,152.875 208.75,153.9531 Q209.4375,155.0156 210.7813,155.0156 Q211.4063,155.0156 212,154.75 Q212.5938,154.4688 213.2188,153.8906 L213.2188,156.6094 Z " fill="#000000"/><text fill="#000000" font-family="sans-serif" font-size="14" lengthAdjust="spacing" textLength="102" x="232.25" y="149.9951">KMediansLloyd</text><text fill="#000000" font-family="sans-serif" font-size="10" lengthAdjust="spacing" textLength="105" x="230.75" y="162.5791">elki.clustering.kmeans</text><rect fill="#FFFFFF" height="15.9688" style="stroke:#181818;stroke-width:1.0;stroke-dasharray:2.0,2.0;" width="152" x="530" y="129"/><text fill="#000000" font-family="sans-serif" font-size="12" font-style="italic" lengthAdjust="spacing" textLength="150" x="531" y="141.1387">V extends NumberVector</text><line style="stroke:#181818;stroke-width:0.5;" x1="10" x2="678" y1="169.9375" y2="169.9375"/><rect fill="none" height="6" style="stroke:#C82930;stroke-width:1.0;" width="6" x="17" y="180.5859"/><text fill="#000000" font-family="sans-serif" font-size="14" lengthAdjust="spacing" text-decoration="underline" textLength="93" x="29" y="186.9326">LOG: Logging</text><line style="stroke:#181818;stroke-width:0.5;" x1="10" x2="678" y1="194.2344" y2="194.2344"/><ellipse cx="20" cy="207.8828" fill="#84BE84" rx="3" ry="3" style="stroke:#038048;stroke-width:1.0;"/><text fill="#000000" font-family="sans-serif" font-size="14" lengthAdjust="spacing" textLength="644" x="29" y="211.2295">KMediansLloyd(NumberVectorDistance&lt;? super NumberVector&gt;, int, int, KMeansInitialization)</text><ellipse cx="20" cy="224.1797" fill="#84BE84" rx="3" ry="3" style="stroke:#038048;stroke-width:1.0;"/><text fill="#000000" font-family="sans-serif" font-size="14" lengthAdjust="spacing" textLength="469" x="29" y="227.5264">run(Relation&lt;V extends NumberVector&gt;): Clustering&lt;MeanModel&gt;</text><polygon fill="#FFFF44" points="20,235.4766,24,239.4766,20,243.4766,16,239.4766" style="stroke:#B38D22;stroke-width:1.0;"/><text fill="#000000" font-family="sans-serif" font-size="14" lengthAdjust="spacing" textLength="145" x="29" y="243.8232">getLogger(): Logging</text></g></a><!--MD5=[65741f9ab1d9b71be36c274839b2c01a]
class elki.clustering.kmeans.AbstractKMeans--><a href="AbstractKMeans.html" target="_top" title="AbstractKMeans.html" xlink:actuate="onRequest" xlink:href="AbstractKMeans.html" xlink:show="new" xlink:title="AbstractKMeans.html" xlink:type="simple"><g id="elem_elki.clustering.kmeans.AbstractKMeans"><rect codeLine="13" fill="#F1F1F1" height="62.2344" id="elki.clustering.kmeans.AbstractKMeans" rx="2.5" ry="2.5" style="stroke:#181818;stroke-width:0.5;" width="373" x="157.5" y="10"/><ellipse cx="172.5" cy="28.9688" fill="#A9DCDF" rx="11" ry="11" style="stroke:#181818;stroke-width:1.0;"/><path d="M172.6094,24.3125 L171.4531,29.3906 L173.7813,29.3906 L172.6094,24.3125 Z M171.125,22.0781 L174.1094,22.0781 L177.4688,34.4688 L175.0156,34.4688 L174.25,31.4063 L170.9688,31.4063 L170.2188,34.4688 L167.7813,34.4688 L171.125,22.0781 Z " fill="#000000"/><text fill="#000000" font-family="sans-serif" font-size="14" font-style="italic" lengthAdjust="spacing" textLength="113" x="186.5" y="27.9951">AbstractKMeans</text><text fill="#000000" font-family="sans-serif" font-size="10" font-style="italic" lengthAdjust="spacing" textLength="112" x="187" y="40.5791">elki.clustering.kmeans</text><rect fill="#FFFFFF" height="15.9688" style="stroke:#181818;stroke-width:1.0;stroke-dasharray:2.0,2.0;" width="226" x="307.5" y="7"/><text fill="#000000" font-family="sans-serif" font-size="12" font-style="italic" lengthAdjust="spacing" textLength="224" x="308.5" y="19.1387">V extends NumberVector, MeanModel</text><line style="stroke:#181818;stroke-width:0.5;" x1="158.5" x2="529.5" y1="47.9375" y2="47.9375"/><polygon fill="#FFFF44" points="168.5,56.5859,172.5,60.5859,168.5,64.5859,164.5,60.5859" style="stroke:#B38D22;stroke-width:1.0;"/><text fill="#000000" font-family="sans-serif" font-size="14" font-style="italic" lengthAdjust="spacing" textLength="148" x="177.5" y="64.9326">getLogger(): Logging</text></g></a><!--MD5=[255c313437ffb9d8a55a3eb18a86ba59]
reverse link elki.clustering.kmeans.AbstractKMeans to elki.clustering.kmeans.KMediansLloyd--><g id="link_elki.clustering.kmeans.AbstractKMeans_elki.clustering.kmeans.KMediansLloyd"><path codeLine="19" d="M344,92.22 C344,104.98 344,118.81 344,131.95 " fill="none" id="elki.clustering.kmeans.AbstractKMeans-backto-elki.clustering.kmeans.KMediansLloyd" style="stroke:#181818;stroke-width:1.0;"/><polygon fill="none" points="337,92.05,344,72.05,351,92.05,337,92.05" style="stroke:#181818;stroke-width:1.0;"/></g><rect fill="none" height="11.6406" style="stroke:none;stroke-width:1.0;" width="186" x="245" y="257.125"/><text fill="#888888" font-family="sans-serif" font-size="10" lengthAdjust="spacing" textLength="186" x="245" y="266.4072">UMLDoclet 2.0.19, PlantUML 1.2022.8</text><!--MD5=[cf2a95a436c982298b9870961287f540]
@startuml
    remove .*\.(Instance|Par|Parameterizer|Factory)$
    set namespaceSeparator none
    hide empty fields
    hide empty methods

    class "<size:14>KMediansLloyd\n<size:10>elki.clustering.kmeans" as elki.clustering.kmeans.KMediansLloyd<V extends NumberVector> [[KMediansLloyd.html]] {
        {static} -LOG: Logging
        +KMediansLloyd(NumberVectorDistance<? super NumberVector>, int, int, KMeansInitialization)
        +run(Relation<V extends NumberVector>): Clustering<MeanModel>
        #getLogger(): Logging
    }

    abstract class "<size:14>AbstractKMeans\n<size:10>elki.clustering.kmeans" as elki.clustering.kmeans.AbstractKMeans<V extends NumberVector, MeanModel> [[AbstractKMeans.html]] {
        {abstract} #getLogger(): Logging
    }
    class "<size:14>KMediansLloyd.Instance\n<size:10>elki.clustering.kmeans" as elki.clustering.kmeans.KMediansLloyd.Instance [[KMediansLloyd.Instance.html]]
    class "<size:14>KMediansLloyd.Par\n<size:10>elki.clustering.kmeans" as elki.clustering.kmeans.KMediansLloyd.Par<V extends NumberVector> [[KMediansLloyd.Par.html]]

    elki.clustering.kmeans.AbstractKMeans <|- - elki.clustering.kmeans.KMediansLloyd
    elki.clustering.kmeans.KMediansLloyd +- - elki.clustering.kmeans.KMediansLloyd.Instance
    elki.clustering.kmeans.KMediansLloyd +- - elki.clustering.kmeans.KMediansLloyd.Par

    center footer UMLDoclet 2.0.19, PlantUML 1.2022.8
@enduml

PlantUML version 1.2022.8(Sun Sep 25 11:00:33 CEST 2022)
(APACHE source distribution)
Java Runtime: OpenJDK Runtime Environment
JVM: OpenJDK 64-Bit Server VM
Default Encoding: UTF-8
Language: de
Country: DE
--></g></svg>