<?xml version="1.0" encoding="UTF-8" standalone="no"?><svg xmlns="http://www.w3.org/2000/svg" xmlns:xlink="http://www.w3.org/1999/xlink" contentStyleType="text/css" height="276px" preserveAspectRatio="none" style="width:718px;height:276px;background:#FFFFFF;" version="1.1" viewBox="0 0 718 276" width="718px" zoomAndPan="magnify"><defs/><g><!--MD5=[e499bed26fb5dee54b25855a8310f81f]
class elki.clustering.kmeans.MacQueenKMeans--><a href="MacQueenKMeans.html" target="_top" title="MacQueenKMeans.html" xlink:actuate="onRequest" xlink:href="MacQueenKMeans.html" xlink:show="new" xlink:title="MacQueenKMeans.html" xlink:type="simple"><g id="elem_elki.clustering.kmeans.MacQueenKMeans"><rect codeLine="6" fill="#F1F1F1" height="119.125" id="elki.clustering.kmeans.MacQueenKMeans" rx="2.5" ry="2.5" style="stroke:#181818;stroke-width:0.5;" width="698" x="9" y="132"/><ellipse cx="211.75" cy="150.9688" fill="#ADD1B2" rx="11" ry="11" style="stroke:#181818;stroke-width:1.0;"/><path d="M214.7188,156.6094 Q214.1406,156.9063 213.5,157.0469 Q212.8594,157.2031 212.1563,157.2031 Q209.6563,157.2031 208.3281,155.5625 Q207.0156,153.9063 207.0156,150.7813 Q207.0156,147.6563 208.3281,146 Q209.6563,144.3438 212.1563,144.3438 Q212.8594,144.3438 213.5,144.5 Q214.1563,144.6563 214.7188,144.9531 L214.7188,147.6719 Q214.0938,147.0938 213.5,146.8281 Q212.9063,146.5469 212.2813,146.5469 Q210.9375,146.5469 210.25,147.625 Q209.5625,148.6875 209.5625,150.7813 Q209.5625,152.875 210.25,153.9531 Q210.9375,155.0156 212.2813,155.0156 Q212.9063,155.0156 213.5,154.75 Q214.0938,154.4688 214.7188,153.8906 L214.7188,156.6094 Z " fill="#000000"/><text fill="#000000" font-family="sans-serif" font-size="14" lengthAdjust="spacing" textLength="130" x="232.25" y="149.9951">MacQueenKMeans</text><text fill="#000000" font-family="sans-serif" font-size="10" lengthAdjust="spacing" textLength="105" x="244.75" y="162.5791">elki.clustering.kmeans</text><rect fill="#FFFFFF" height="15.9688" style="stroke:#181818;stroke-width:1.0;stroke-dasharray:2.0,2.0;" width="152" x="558" y="129"/><text fill="#000000" font-family="sans-serif" font-size="12" font-style="italic" lengthAdjust="spacing" textLength="150" x="559" y="141.1387">V extends NumberVector</text><line style="stroke:#181818;stroke-width:0.5;" x1="10" x2="706" y1="169.9375" y2="169.9375"/><rect fill="none" height="6" style="stroke:#C82930;stroke-width:1.0;" width="6" x="17" y="180.5859"/><text fill="#000000" font-family="sans-serif" font-size="14" lengthAdjust="spacing" text-decoration="underline" textLength="93" x="29" y="186.9326">LOG: Logging</text><line style="stroke:#181818;stroke-width:0.5;" x1="10" x2="706" y1="194.2344" y2="194.2344"/><ellipse cx="20" cy="207.8828" fill="#84BE84" rx="3" ry="3" style="stroke:#038048;stroke-width:1.0;"/><text fill="#000000" font-family="sans-serif" font-size="14" lengthAdjust="spacing" textLength="672" x="29" y="211.2295">MacQueenKMeans(NumberVectorDistance&lt;? super NumberVector&gt;, int, int, KMeansInitialization)</text><ellipse cx="20" cy="224.1797" fill="#84BE84" rx="3" ry="3" style="stroke:#038048;stroke-width:1.0;"/><text fill="#000000" font-family="sans-serif" font-size="14" lengthAdjust="spacing" textLength="486" x="29" y="227.5264">run(Relation&lt;V extends NumberVector&gt;): Clustering&lt;KMeansModel&gt;</text><polygon fill="#FFFF44" points="20,235.4766,24,239.4766,20,243.4766,16,239.4766" style="stroke:#B38D22;stroke-width:1.0;"/><text fill="#000000" font-family="sans-serif" font-size="14" lengthAdjust="spacing" textLength="145" x="29" y="243.8232">getLogger(): Logging</text></g></a><!--MD5=[65741f9ab1d9b71be36c274839b2c01a]
class elki.clustering.kmeans.AbstractKMeans--><a href="AbstractKMeans.html" target="_top" title="AbstractKMeans.html" xlink:actuate="onRequest" xlink:href="AbstractKMeans.html" xlink:show="new" xlink:title="AbstractKMeans.html" xlink:type="simple"><g id="elem_elki.clustering.kmeans.AbstractKMeans"><rect codeLine="13" fill="#F1F1F1" height="62.2344" id="elki.clustering.kmeans.AbstractKMeans" rx="2.5" ry="2.5" style="stroke:#181818;stroke-width:0.5;" width="387" x="164.5" y="10"/><ellipse cx="179.5" cy="28.9688" fill="#A9DCDF" rx="11" ry="11" style="stroke:#181818;stroke-width:1.0;"/><path d="M179.6094,24.3125 L178.4531,29.3906 L180.7813,29.3906 L179.6094,24.3125 Z M178.125,22.0781 L181.1094,22.0781 L184.4688,34.4688 L182.0156,34.4688 L181.25,31.4063 L177.9688,31.4063 L177.2188,34.4688 L174.7813,34.4688 L178.125,22.0781 Z " fill="#000000"/><text fill="#000000" font-family="sans-serif" font-size="14" font-style="italic" lengthAdjust="spacing" textLength="113" x="193.5" y="27.9951">AbstractKMeans</text><text fill="#000000" font-family="sans-serif" font-size="10" font-style="italic" lengthAdjust="spacing" textLength="112" x="194" y="40.5791">elki.clustering.kmeans</text><rect fill="#FFFFFF" height="15.9688" style="stroke:#181818;stroke-width:1.0;stroke-dasharray:2.0,2.0;" width="240" x="314.5" y="7"/><text fill="#000000" font-family="sans-serif" font-size="12" font-style="italic" lengthAdjust="spacing" textLength="238" x="315.5" y="19.1387">V extends NumberVector, KMeansModel</text><line style="stroke:#181818;stroke-width:0.5;" x1="165.5" x2="550.5" y1="47.9375" y2="47.9375"/><polygon fill="#FFFF44" points="175.5,56.5859,179.5,60.5859,175.5,64.5859,171.5,60.5859" style="stroke:#B38D22;stroke-width:1.0;"/><text fill="#000000" font-family="sans-serif" font-size="14" font-style="italic" lengthAdjust="spacing" textLength="148" x="184.5" y="64.9326">getLogger(): Logging</text></g></a><!--MD5=[47ff14fedeb19c4923a72b742f33367d]
reverse link elki.clustering.kmeans.AbstractKMeans to elki.clustering.kmeans.MacQueenKMeans--><g id="link_elki.clustering.kmeans.AbstractKMeans_elki.clustering.kmeans.MacQueenKMeans"><path codeLine="19" d="M358,92.22 C358,104.98 358,118.81 358,131.95 " fill="none" id="elki.clustering.kmeans.AbstractKMeans-backto-elki.clustering.kmeans.MacQueenKMeans" style="stroke:#181818;stroke-width:1.0;"/><polygon fill="none" points="351,92.05,358,72.05,365,92.05,351,92.05" style="stroke:#181818;stroke-width:1.0;"/></g><rect fill="none" height="11.6406" style="stroke:none;stroke-width:1.0;" width="186" x="259" y="257.125"/><text fill="#888888" font-family="sans-serif" font-size="10" lengthAdjust="spacing" textLength="186" x="259" y="266.4072">UMLDoclet 2.0.19, PlantUML 1.2022.8</text><!--MD5=[38c6ac6f6568f58d6b98903c11cdd296]
@startuml
    remove .*\.(Instance|Par|Parameterizer|Factory)$
    set namespaceSeparator none
    hide empty fields
    hide empty methods

    class "<size:14>MacQueenKMeans\n<size:10>elki.clustering.kmeans" as elki.clustering.kmeans.MacQueenKMeans<V extends NumberVector> [[MacQueenKMeans.html]] {
        {static} -LOG: Logging
        +MacQueenKMeans(NumberVectorDistance<? super NumberVector>, int, int, KMeansInitialization)
        +run(Relation<V extends NumberVector>): Clustering<KMeansModel>
        #getLogger(): Logging
    }

    abstract class "<size:14>AbstractKMeans\n<size:10>elki.clustering.kmeans" as elki.clustering.kmeans.AbstractKMeans<V extends NumberVector, KMeansModel> [[AbstractKMeans.html]] {
        {abstract} #getLogger(): Logging
    }
    class "<size:14>MacQueenKMeans.Instance\n<size:10>elki.clustering.kmeans" as elki.clustering.kmeans.MacQueenKMeans.Instance [[MacQueenKMeans.Instance.html]]
    class "<size:14>MacQueenKMeans.Par\n<size:10>elki.clustering.kmeans" as elki.clustering.kmeans.MacQueenKMeans.Par<V extends NumberVector> [[MacQueenKMeans.Par.html]]

    elki.clustering.kmeans.AbstractKMeans <|- - elki.clustering.kmeans.MacQueenKMeans
    elki.clustering.kmeans.MacQueenKMeans +- - elki.clustering.kmeans.MacQueenKMeans.Instance
    elki.clustering.kmeans.MacQueenKMeans +- - elki.clustering.kmeans.MacQueenKMeans.Par

    center footer UMLDoclet 2.0.19, PlantUML 1.2022.8
@enduml

PlantUML version 1.2022.8(Sun Sep 25 11:00:33 CEST 2022)
(APACHE source distribution)
Java Runtime: OpenJDK Runtime Environment
JVM: OpenJDK 64-Bit Server VM
Default Encoding: UTF-8
Language: de
Country: DE
--></g></svg>