<?xml version="1.0" encoding="UTF-8" standalone="no"?><svg xmlns="http://www.w3.org/2000/svg" xmlns:xlink="http://www.w3.org/1999/xlink" contentStyleType="text/css" height="309px" preserveAspectRatio="none" style="width:532px;height:309px;background:#FFFFFF;" version="1.1" viewBox="0 0 532 309" width="532px" zoomAndPan="magnify"><defs/><g><!--MD5=[0a33868f3944db44f2cf283714de4689]
class elki.clustering.kmeans.YinYangKMeans--><a href="YinYangKMeans.html" target="_top" title="YinYangKMeans.html" xlink:actuate="onRequest" xlink:href="YinYangKMeans.html" xlink:show="new" xlink:title="YinYangKMeans.html" xlink:type="simple"><g id="elem_elki.clustering.kmeans.YinYangKMeans"><rect codeLine="6" fill="#F1F1F1" height="151.7188" id="elki.clustering.kmeans.YinYangKMeans" rx="2.5" ry="2.5" style="stroke:#181818;stroke-width:0.5;" width="512" x="9" y="132"/><ellipse cx="128.25" cy="150.9688" fill="#ADD1B2" rx="11" ry="11" style="stroke:#181818;stroke-width:1.0;"/><path d="M131.2188,156.6094 Q130.6406,156.9063 130,157.0469 Q129.3594,157.2031 128.6563,157.2031 Q126.1563,157.2031 124.8281,155.5625 Q123.5156,153.9063 123.5156,150.7813 Q123.5156,147.6563 124.8281,146 Q126.1563,144.3438 128.6563,144.3438 Q129.3594,144.3438 130,144.5 Q130.6563,144.6563 131.2188,144.9531 L131.2188,147.6719 Q130.5938,147.0938 130,146.8281 Q129.4063,146.5469 128.7813,146.5469 Q127.4375,146.5469 126.75,147.625 Q126.0625,148.6875 126.0625,150.7813 Q126.0625,152.875 126.75,153.9531 Q127.4375,155.0156 128.7813,155.0156 Q129.4063,155.0156 130,154.75 Q130.5938,154.4688 131.2188,153.8906 L131.2188,156.6094 Z " fill="#000000"/><text fill="#000000" font-family="sans-serif" font-size="14" lengthAdjust="spacing" textLength="111" x="148.75" y="149.9951">YinYangKMeans</text><text fill="#000000" font-family="sans-serif" font-size="10" lengthAdjust="spacing" textLength="105" x="151.75" y="162.5791">elki.clustering.kmeans</text><rect fill="#FFFFFF" height="15.9688" style="stroke:#181818;stroke-width:1.0;stroke-dasharray:2.0,2.0;" width="152" x="372" y="129"/><text fill="#000000" font-family="sans-serif" font-size="12" font-style="italic" lengthAdjust="spacing" textLength="150" x="373" y="141.1387">V extends NumberVector</text><line style="stroke:#181818;stroke-width:0.5;" x1="10" x2="520" y1="169.9375" y2="169.9375"/><rect fill="none" height="6" style="stroke:#C82930;stroke-width:1.0;" width="6" x="17" y="180.5859"/><text fill="#000000" font-family="sans-serif" font-size="14" lengthAdjust="spacing" text-decoration="underline" textLength="93" x="29" y="186.9326">LOG: Logging</text><rect fill="none" height="6" style="stroke:#C82930;stroke-width:1.0;" width="6" x="17" y="196.8828"/><text fill="#000000" font-family="sans-serif" font-size="14" lengthAdjust="spacing" text-decoration="underline" textLength="212" x="29" y="203.2295">GROUP_KMEANS_MAXITER: int</text><rect fill="none" height="6" style="stroke:#C82930;stroke-width:1.0;" width="6" x="17" y="213.1797"/><text fill="#000000" font-family="sans-serif" font-size="14" lengthAdjust="spacing" textLength="31" x="29" y="219.5264">t: int</text><line style="stroke:#181818;stroke-width:0.5;" x1="10" x2="520" y1="226.8281" y2="226.8281"/><ellipse cx="20" cy="240.4766" fill="#84BE84" rx="3" ry="3" style="stroke:#038048;stroke-width:1.0;"/><text fill="#000000" font-family="sans-serif" font-size="14" lengthAdjust="spacing" textLength="330" x="29" y="243.8232">YinYangKMeans(int, int, KMeansInitialization, int)</text><ellipse cx="20" cy="256.7734" fill="#84BE84" rx="3" ry="3" style="stroke:#038048;stroke-width:1.0;"/><text fill="#000000" font-family="sans-serif" font-size="14" lengthAdjust="spacing" textLength="486" x="29" y="260.1201">run(Relation&lt;V extends NumberVector&gt;): Clustering&lt;KMeansModel&gt;</text><polygon fill="#FFFF44" points="20,268.0703,24,272.0703,20,276.0703,16,272.0703" style="stroke:#B38D22;stroke-width:1.0;"/><text fill="#000000" font-family="sans-serif" font-size="14" lengthAdjust="spacing" textLength="145" x="29" y="276.417">getLogger(): Logging</text></g></a><!--MD5=[65741f9ab1d9b71be36c274839b2c01a]
class elki.clustering.kmeans.AbstractKMeans--><a href="AbstractKMeans.html" target="_top" title="AbstractKMeans.html" xlink:actuate="onRequest" xlink:href="AbstractKMeans.html" xlink:show="new" xlink:title="AbstractKMeans.html" xlink:type="simple"><g id="elem_elki.clustering.kmeans.AbstractKMeans"><rect codeLine="15" fill="#F1F1F1" height="62.2344" id="elki.clustering.kmeans.AbstractKMeans" rx="2.5" ry="2.5" style="stroke:#181818;stroke-width:0.5;" width="387" x="71.5" y="10"/><ellipse cx="86.5" cy="28.9688" fill="#A9DCDF" rx="11" ry="11" style="stroke:#181818;stroke-width:1.0;"/><path d="M86.6094,24.3125 L85.4531,29.3906 L87.7813,29.3906 L86.6094,24.3125 Z M85.125,22.0781 L88.1094,22.0781 L91.4688,34.4688 L89.0156,34.4688 L88.25,31.4063 L84.9688,31.4063 L84.2188,34.4688 L81.7813,34.4688 L85.125,22.0781 Z " fill="#000000"/><text fill="#000000" font-family="sans-serif" font-size="14" font-style="italic" lengthAdjust="spacing" textLength="113" x="100.5" y="27.9951">AbstractKMeans</text><text fill="#000000" font-family="sans-serif" font-size="10" font-style="italic" lengthAdjust="spacing" textLength="112" x="101" y="40.5791">elki.clustering.kmeans</text><rect fill="#FFFFFF" height="15.9688" style="stroke:#181818;stroke-width:1.0;stroke-dasharray:2.0,2.0;" width="240" x="221.5" y="7"/><text fill="#000000" font-family="sans-serif" font-size="12" font-style="italic" lengthAdjust="spacing" textLength="238" x="222.5" y="19.1387">V extends NumberVector, KMeansModel</text><line style="stroke:#181818;stroke-width:0.5;" x1="72.5" x2="457.5" y1="47.9375" y2="47.9375"/><polygon fill="#FFFF44" points="82.5,56.5859,86.5,60.5859,82.5,64.5859,78.5,60.5859" style="stroke:#B38D22;stroke-width:1.0;"/><text fill="#000000" font-family="sans-serif" font-size="14" font-style="italic" lengthAdjust="spacing" textLength="148" x="91.5" y="64.9326">getLogger(): Logging</text></g></a><!--MD5=[ae381b93ed75d59bbe8dae5b2d012e71]
reverse link elki.clustering.kmeans.AbstractKMeans to elki.clustering.kmeans.YinYangKMeans--><g id="link_elki.clustering.kmeans.AbstractKMeans_elki.clustering.kmeans.YinYangKMeans"><path codeLine="21" d="M265,92.53 C265,105 265,118.63 265,131.99 " fill="none" id="elki.clustering.kmeans.AbstractKMeans-backto-elki.clustering.kmeans.YinYangKMeans" style="stroke:#181818;stroke-width:1.0;"/><polygon fill="none" points="258,92.26,265,72.26,272,92.26,258,92.26" style="stroke:#181818;stroke-width:1.0;"/></g><rect fill="none" height="11.6406" style="stroke:none;stroke-width:1.0;" width="186" x="166" y="289.7188"/><text fill="#888888" font-family="sans-serif" font-size="10" lengthAdjust="spacing" textLength="186" x="166" y="299.001">UMLDoclet 2.0.19, PlantUML 1.2022.8</text><!--MD5=[f5f7afdc3bce62571ea76f7317bb582f]
@startuml
    remove .*\.(Instance|Par|Parameterizer|Factory)$
    set namespaceSeparator none
    hide empty fields
    hide empty methods

    class "<size:14>YinYangKMeans\n<size:10>elki.clustering.kmeans" as elki.clustering.kmeans.YinYangKMeans<V extends NumberVector> [[YinYangKMeans.html]] {
        {static} -LOG: Logging
        {static} -GROUP_KMEANS_MAXITER: int
        -t: int
        +YinYangKMeans(int, int, KMeansInitialization, int)
        +run(Relation<V extends NumberVector>): Clustering<KMeansModel>
        #getLogger(): Logging
    }

    abstract class "<size:14>AbstractKMeans\n<size:10>elki.clustering.kmeans" as elki.clustering.kmeans.AbstractKMeans<V extends NumberVector, KMeansModel> [[AbstractKMeans.html]] {
        {abstract} #getLogger(): Logging
    }
    class "<size:14>YinYangKMeans.Instance\n<size:10>elki.clustering.kmeans" as elki.clustering.kmeans.YinYangKMeans.Instance [[YinYangKMeans.Instance.html]]
    class "<size:14>YinYangKMeans.Par\n<size:10>elki.clustering.kmeans" as elki.clustering.kmeans.YinYangKMeans.Par<V extends NumberVector> [[YinYangKMeans.Par.html]]

    elki.clustering.kmeans.AbstractKMeans <|- - elki.clustering.kmeans.YinYangKMeans
    elki.clustering.kmeans.YinYangKMeans +- - elki.clustering.kmeans.YinYangKMeans.Instance
    elki.clustering.kmeans.YinYangKMeans +- - elki.clustering.kmeans.YinYangKMeans.Par

    center footer UMLDoclet 2.0.19, PlantUML 1.2022.8
@enduml

PlantUML version 1.2022.8(Sun Sep 25 11:00:33 CEST 2022)
(APACHE source distribution)
Java Runtime: OpenJDK Runtime Environment
JVM: OpenJDK 64-Bit Server VM
Default Encoding: UTF-8
Language: de
Country: DE
--></g></svg>