<?xml version="1.0" encoding="UTF-8" standalone="no"?>
<!DOCTYPE svg PUBLIC "-//W3C//DTD SVG 1.1//EN"
 "http://www.w3.org/Graphics/SVG/1.1/DTD/svg11.dtd">
<!-- Generated by graphviz version 2.40.1 (20161225.0304)
 -->
<!-- Title: G Pages: 1 -->
<svg width="385pt" height="47pt"
 viewBox="0.00 0.00 385.00 47.00" xmlns="http://www.w3.org/2000/svg" xmlns:xlink="http://www.w3.org/1999/xlink">
<g id="graph0" class="graph" transform="scale(1 1) rotate(0) translate(4 43)">
<title>G</title>
<polygon fill="#ffffff" stroke="transparent" points="-4,4 -4,-43 381,-43 381,4 -4,4"/>
<!-- c1605669 -->
<g id="node1" class="node">
<title>c1605669</title>
<g id="a_node1"><a xlink:href="../DataStoreIDMap.html" xlink:title="&lt;TABLE&gt;">
<g id="a_node1_0"><a xlink:href="../DataStoreIDMap.html" xlink:title="de.lmu.ifi.dbs.elki.database.datastore.DataStoreIDMap" target="_parent">
<polygon fill="none" stroke="#000000" points="244.5,.5 244.5,-38.5 377.5,-38.5 377.5,.5 244.5,.5"/>
<text text-anchor="start" x="289.5" y="-28.1" font-family="Roboto" font-size="8.00" fill="#000000"> «interface» </text>
<text text-anchor="start" x="278" y="-18.1" font-family="Roboto" font-size="8.00" fill="#000000"> </text>
<text text-anchor="start" x="281" y="-18.1" font-family="Roboto" font-size="8.00" fill="#000000">DataStoreIDMap</text>
<text text-anchor="start" x="341" y="-18.1" font-family="Roboto" font-size="8.00" fill="#000000"> </text>
<text text-anchor="start" x="248.5" y="-7.1" font-family="Roboto" font-size="8.00" fill="#000000"> </text>
<text text-anchor="start" x="251.5" y="-7.1" font-family="Roboto" font-size="7.00" fill="#000000">de.lmu.ifi.dbs.elki.database.datastore</text>
<text text-anchor="start" x="370.5" y="-7.1" font-family="Roboto" font-size="8.00" fill="#000000"> </text>
</a>
</g>
</a>
</g>
</g>
<!-- c1605670 -->
<g id="node2" class="node">
<title>c1605670</title>
<g id="a_node2"><a xlink:href="../WritableIntegerDataStore.html" xlink:title="&lt;TABLE&gt;">
<g id="a_node2_1"><a xlink:href="../WritableIntegerDataStore.html" xlink:title="de.lmu.ifi.dbs.elki.database.datastore.WritableIntegerDataStore" target="_parent">
<polygon fill="none" stroke="#000000" points=".5,.5 .5,-38.5 133.5,-38.5 133.5,.5 .5,.5"/>
<text text-anchor="start" x="45.5" y="-28.1" font-family="Roboto" font-size="8.00" fill="#000000"> «interface» </text>
<text text-anchor="start" x="20" y="-18.1" font-family="Roboto" font-size="8.00" fill="#000000"> </text>
<text text-anchor="start" x="23" y="-18.1" font-family="Roboto" font-size="8.00" fill="#000000">WritableIntegerDataStore</text>
<text text-anchor="start" x="111" y="-18.1" font-family="Roboto" font-size="8.00" fill="#000000"> </text>
<text text-anchor="start" x="4.5" y="-7.1" font-family="Roboto" font-size="8.00" fill="#000000"> </text>
<text text-anchor="start" x="7.5" y="-7.1" font-family="Roboto" font-size="7.00" fill="#000000">de.lmu.ifi.dbs.elki.database.datastore</text>
<text text-anchor="start" x="126.5" y="-7.1" font-family="Roboto" font-size="8.00" fill="#000000"> </text>
</a>
</g>
</a>
</g>
</g>
<!-- c1605692 -->
<g id="node3" class="node">
<title>c1605692</title>
<g id="a_node3"><a xlink:href="ArrayIntegerStore.html" xlink:title="&lt;TABLE&gt;">
<g id="a_node3_2"><a xlink:href="ArrayIntegerStore.html" xlink:title="de.lmu.ifi.dbs.elki.database.datastore.memory.ArrayIntegerStore" target="_parent">
<polygon fill="#fffacd" stroke="transparent" points="151,-11 151,-28 226,-28 226,-11 151,-11"/>
<polygon fill="none" stroke="#000000" points="151.5,-10.5 151.5,-27.5 226.5,-27.5 226.5,-10.5 151.5,-10.5"/>
<text text-anchor="start" x="155.5" y="-18.1" font-family="Roboto" font-size="8.00" fill="#000000"> </text>
<text text-anchor="start" x="158.5" y="-18.1" font-family="Roboto" font-size="8.00" fill="#000000">ArrayIntegerStore</text>
<text text-anchor="start" x="219.5" y="-18.1" font-family="Roboto" font-size="8.00" fill="#000000"> </text>
</a>
</g>
</a>
</g>
</g>
<!-- c1605670&#45;&gt;c1605692 -->
<g id="edge1" class="edge">
<title>c1605670&#45;&gt;c1605692</title>
<path fill="none" stroke="#000000" stroke-dasharray="5,2" d="M143.237,-19.5C145.7961,-19.5 148.3155,-19.5 150.7756,-19.5"/>
<polygon fill="none" stroke="#000000" points="143.2113,-16.0001 133.2113,-19.5 143.2113,-23.0001 143.2113,-16.0001"/>
</g>
<!-- c1605692&#45;&gt;c1605669 -->
<g id="edge2" class="edge">
<title>c1605692&#45;&gt;c1605669</title>
<path fill="none" stroke="#000000" d="M238.293,-19.5C240.0511,-19.5 241.822,-19.5 243.5996,-19.5"/>
<polygon fill="#000000" stroke="#000000" points="238.0995,-19.5001 232.0995,-23.5 226.0995,-19.5 232.0995,-15.5 238.0995,-19.5001"/>
</g>
</g>
</svg>
