<?xml version="1.0" encoding="UTF-8" standalone="no"?>
<!DOCTYPE svg PUBLIC "-//W3C//DTD SVG 1.1//EN"
 "http://www.w3.org/Graphics/SVG/1.1/DTD/svg11.dtd">
<!-- Generated by graphviz version 2.40.1 (20161225.0304)
 -->
<!-- Title: G Pages: 1 -->
<svg width="385pt" height="47pt"
 viewBox="0.00 0.00 385.00 47.00" xmlns="http://www.w3.org/2000/svg" xmlns:xlink="http://www.w3.org/1999/xlink">
<g id="graph0" class="graph" transform="scale(1 1) rotate(0) translate(4 43)">
<title>G</title>
<polygon fill="#ffffff" stroke="transparent" points="-4,4 -4,-43 381,-43 381,4 -4,4"/>
<!-- c6759715 -->
<g id="node1" class="node">
<title>c6759715</title>
<g id="a_node1"><a xlink:href="../WritableIntegerDataStore.html" xlink:title="&lt;TABLE&gt;">
<g id="a_node1_0"><a xlink:href="../WritableIntegerDataStore.html" xlink:title="de.lmu.ifi.dbs.elki.database.datastore.WritableIntegerDataStore" target="_parent">
<polygon fill="none" stroke="#000000" points=".5,.5 .5,-38.5 133.5,-38.5 133.5,.5 .5,.5"/>
<text text-anchor="start" x="45.5" y="-28.1" font-family="Roboto" font-size="8.00" fill="#000000"> «interface» </text>
<text text-anchor="start" x="20" y="-18.1" font-family="Roboto" font-size="8.00" fill="#000000"> </text>
<text text-anchor="start" x="23" y="-18.1" font-family="Roboto" font-size="8.00" fill="#000000">WritableIntegerDataStore</text>
<text text-anchor="start" x="111" y="-18.1" font-family="Roboto" font-size="8.00" fill="#000000"> </text>
<text text-anchor="start" x="4.5" y="-7.1" font-family="Roboto" font-size="8.00" fill="#000000"> </text>
<text text-anchor="start" x="7.5" y="-7.1" font-family="Roboto" font-size="7.00" fill="#000000">de.lmu.ifi.dbs.elki.database.datastore</text>
<text text-anchor="start" x="126.5" y="-7.1" font-family="Roboto" font-size="8.00" fill="#000000"> </text>
</a>
</g>
</a>
</g>
</g>
<!-- c6759729 -->
<g id="node2" class="node">
<title>c6759729</title>
<g id="a_node2"><a xlink:href="MapIntegerDBIDIntegerStore.html" xlink:title="&lt;TABLE&gt;">
<g id="a_node2_1"><a xlink:href="MapIntegerDBIDIntegerStore.html" xlink:title="de.lmu.ifi.dbs.elki.database.datastore.memory.MapIntegerDBIDIntegerStore" target="_parent">
<polygon fill="#fffacd" stroke="transparent" points="151,-11 151,-28 267,-28 267,-11 151,-11"/>
<polygon fill="none" stroke="#000000" points="151,-10.5 151,-27.5 267,-27.5 267,-10.5 151,-10.5"/>
<text text-anchor="start" x="155" y="-18.1" font-family="Roboto" font-size="8.00" fill="#000000"> </text>
<text text-anchor="start" x="158" y="-18.1" font-family="Roboto" font-size="8.00" fill="#000000">MapIntegerDBIDIntegerStore</text>
<text text-anchor="start" x="260" y="-18.1" font-family="Roboto" font-size="8.00" fill="#000000"> </text>
</a>
</g>
</a>
</g>
</g>
<!-- c6759715&#45;&gt;c6759729 -->
<g id="edge1" class="edge">
<title>c6759715&#45;&gt;c6759729</title>
<path fill="none" stroke="#000000" stroke-dasharray="5,2" d="M143.1948,-19.5C145.7915,-19.5 148.3785,-19.5 150.9419,-19.5"/>
<polygon fill="none" stroke="#000000" points="143.1606,-16.0001 133.1605,-19.5 143.1605,-23.0001 143.1606,-16.0001"/>
</g>
<!-- c6761599 -->
<g id="node3" class="node">
<title>c6761599</title>
<g id="a_node3"><a xlink:href="http://docs.oracle.com/javase/7/docs/api/it/unimi/dsi/fastutil/ints/Int2IntOpenHashMap.html" xlink:title="&lt;TABLE&gt;">
<g id="a_node3_2"><a xlink:href="http://docs.oracle.com/javase/7/docs/api/it/unimi/dsi/fastutil/ints/Int2IntOpenHashMap.html" xlink:title="it.unimi.dsi.fastutil.ints.Int2IntOpenHashMap" target="_parent">
<polygon fill="none" stroke="#000000" points="285,-5.5 285,-33.5 377,-33.5 377,-5.5 285,-5.5"/>
<text text-anchor="start" x="289" y="-24.1" font-family="Roboto" font-size="8.00" fill="#000000"> </text>
<text text-anchor="start" x="292" y="-24.1" font-family="Roboto" font-size="8.00" fill="#000000">Int2IntOpenHashMap</text>
<text text-anchor="start" x="370" y="-24.1" font-family="Roboto" font-size="8.00" fill="#000000"> </text>
<text text-anchor="start" x="289.5" y="-13.1" font-family="Roboto" font-size="8.00" fill="#000000"> </text>
<text text-anchor="start" x="292.5" y="-13.1" font-family="Roboto" font-size="7.00" fill="#000000">it.unimi.dsi.fastutil.ints</text>
<text text-anchor="start" x="369.5" y="-13.1" font-family="Roboto" font-size="8.00" fill="#000000"> </text>
</a>
</g>
</a>
</g>
</g>
<!-- c6759729&#45;&gt;c6761599 -->
<g id="edge2" class="edge">
<title>c6759729&#45;&gt;c6761599</title>
<path fill="none" stroke="#000000" d="M267.1416,-19.5C269.6271,-19.5 272.119,-19.5 274.6007,-19.5"/>
<polygon fill="#000000" stroke="#000000" points="284.7031,-19.5 274.7031,-24.0001 279.7031,-19.5 274.7031,-19.5001 274.7031,-19.5001 274.7031,-19.5001 279.7031,-19.5 274.703,-15.0001 284.7031,-19.5 284.7031,-19.5"/>
</g>
</g>
</svg>
