<?xml version="1.0" encoding="UTF-8" standalone="no"?>
<!DOCTYPE svg PUBLIC "-//W3C//DTD SVG 1.1//EN"
 "http://www.w3.org/Graphics/SVG/1.1/DTD/svg11.dtd">
<!-- Generated by graphviz version 2.40.1 (20161225.0304)
 -->
<!-- Title: G Pages: 1 -->
<svg width="503pt" height="86pt"
 viewBox="0.00 0.00 503.00 86.00" xmlns="http://www.w3.org/2000/svg" xmlns:xlink="http://www.w3.org/1999/xlink">
<g id="graph0" class="graph" transform="scale(1 1) rotate(0) translate(4 82)">
<title>G</title>
<polygon fill="#ffffff" stroke="transparent" points="-4,4 -4,-82 499,-82 499,4 -4,4"/>
<!-- c6762926 -->
<g id="node1" class="node">
<title>c6762926</title>
<g id="a_node1"><a xlink:href="../WritableRecordStore.html" xlink:title="&lt;TABLE&gt;">
<g id="a_node1_0"><a xlink:href="../WritableRecordStore.html" xlink:title="de.lmu.ifi.dbs.elki.database.datastore.WritableRecordStore" target="_parent">
<polygon fill="#fffacd" stroke="transparent" points="0,-39 0,-78 133,-78 133,-39 0,-39"/>
<polygon fill="none" stroke="#000000" points=".5,-38.5 .5,-77.5 133.5,-77.5 133.5,-38.5 .5,-38.5"/>
<text text-anchor="start" x="45.5" y="-67.1" font-family="Roboto" font-size="8.00" fill="#000000"> «interface» </text>
<text text-anchor="start" x="28.5" y="-57.1" font-family="Roboto" font-size="8.00" fill="#000000"> </text>
<text text-anchor="start" x="31.5" y="-57.1" font-family="Roboto" font-size="8.00" fill="#000000">WritableRecordStore</text>
<text text-anchor="start" x="102.5" y="-57.1" font-family="Roboto" font-size="8.00" fill="#000000"> </text>
<text text-anchor="start" x="4.5" y="-46.1" font-family="Roboto" font-size="8.00" fill="#000000"> </text>
<text text-anchor="start" x="7.5" y="-46.1" font-family="Roboto" font-size="7.00" fill="#000000">de.lmu.ifi.dbs.elki.database.datastore</text>
<text text-anchor="start" x="126.5" y="-46.1" font-family="Roboto" font-size="8.00" fill="#000000"> </text>
</a>
</g>
</a>
</g>
</g>
<!-- c6762941 -->
<g id="node2" class="node">
<title>c6762941</title>
<g id="a_node2"><a xlink:href="MapIntegerDBIDRecordStore.html" xlink:title="&lt;TABLE&gt;">
<g id="a_node2_1"><a xlink:href="MapIntegerDBIDRecordStore.html" xlink:title="de.lmu.ifi.dbs.elki.database.datastore.memory.MapIntegerDBIDRecordStore" target="_parent">
<polygon fill="#fffacd" stroke="transparent" points="152,-50 152,-67 268,-67 268,-50 152,-50"/>
<polygon fill="none" stroke="#000000" points="152,-49.5 152,-66.5 268,-66.5 268,-49.5 152,-49.5"/>
<text text-anchor="start" x="156" y="-57.1" font-family="Roboto" font-size="8.00" fill="#000000"> </text>
<text text-anchor="start" x="159" y="-57.1" font-family="Roboto" font-size="8.00" fill="#000000">MapIntegerDBIDRecordStore</text>
<text text-anchor="start" x="261" y="-57.1" font-family="Roboto" font-size="8.00" fill="#000000"> </text>
</a>
</g>
</a>
</g>
</g>
<!-- c6762926&#45;&gt;c6762941 -->
<g id="edge1" class="edge">
<title>c6762926&#45;&gt;c6762941</title>
<path fill="none" stroke="#000000" stroke-dasharray="5,2" d="M143.3103,-58.5C146.0961,-58.5 148.8717,-58.5 151.6201,-58.5"/>
<polygon fill="none" stroke="#000000" points="143.2088,-55.0001 133.2088,-58.5 143.2087,-62.0001 143.2088,-55.0001"/>
</g>
<!-- c6762942 -->
<g id="node3" class="node">
<title>c6762942</title>
<g id="a_node3"><a xlink:href="MapIntegerDBIDRecordStore.StorageAccessor.html" xlink:title="&lt;TABLE&gt;">
<g id="a_node3_2"><a xlink:href="MapIntegerDBIDRecordStore.StorageAccessor.html" xlink:title="de.lmu.ifi.dbs.elki.database.datastore.memory.MapIntegerDBIDRecordStore.StorageAccessor" target="_parent">
<polygon fill="none" stroke="#000000" points="320.5,-49.5 320.5,-66.5 495.5,-66.5 495.5,-49.5 320.5,-49.5"/>
<text text-anchor="start" x="324.5" y="-57.1" font-family="Roboto" font-size="8.00" fill="#000000"> </text>
<text text-anchor="start" x="327.5" y="-57.1" font-family="Roboto" font-size="8.00" fill="#000000">MapIntegerDBIDRecordStore.StorageAccessor</text>
<text text-anchor="start" x="488.5" y="-57.1" font-family="Roboto" font-size="8.00" fill="#000000"> </text>
</a>
</g>
</a>
</g>
</g>
<!-- c6762941&#45;&gt;c6762942 -->
<g id="edge2" class="edge">
<title>c6762941&#45;&gt;c6762942</title>
<path fill="none" stroke="#000000" d="M280.2047,-58.5C289.6969,-58.5 299.574,-58.5 309.4419,-58.5"/>
<polygon fill="none" stroke="#000000" points="280.1883,-58.5001 274.1883,-62.5 268.1883,-58.5 274.1883,-54.5 280.1883,-58.5001"/>
<polygon fill="#000000" stroke="#000000" points="319.7055,-58.5 309.7055,-63.0001 314.7055,-58.5 309.7055,-58.5001 309.7055,-58.5001 309.7055,-58.5001 314.7055,-58.5 309.7054,-54.0001 319.7055,-58.5 319.7055,-58.5"/>
<text text-anchor="middle" x="294" y="-60.9" font-family="Roboto" font-size="7.00" fill="#000000">projectsTo</text>
</g>
<!-- c6764798 -->
<g id="node4" class="node">
<title>c6764798</title>
<g id="a_node4"><a xlink:href="http://docs.oracle.com/javase/7/docs/api/it/unimi/dsi/fastutil/ints/Int2ObjectMap.html" xlink:title="&lt;TABLE&gt;">
<g id="a_node4_3"><a xlink:href="http://docs.oracle.com/javase/7/docs/api/it/unimi/dsi/fastutil/ints/Int2ObjectMap.html" xlink:title="it.unimi.dsi.fastutil.ints.Int2ObjectMap" target="_parent">
<polygon fill="none" stroke="#000000" points="362.5,.5 362.5,-38.5 453.5,-38.5 453.5,.5 362.5,.5"/>
<text text-anchor="start" x="386.5" y="-28.1" font-family="Roboto" font-size="8.00" fill="#000000"> «interface» </text>
<text text-anchor="start" x="378" y="-18.1" font-family="Roboto" font-size="8.00" fill="#000000"> </text>
<text text-anchor="start" x="381" y="-18.1" font-family="Roboto" font-size="8.00" fill="#000000">Int2ObjectMap</text>
<text text-anchor="start" x="435" y="-18.1" font-family="Roboto" font-size="8.00" fill="#000000"> </text>
<text text-anchor="start" x="366.5" y="-7.1" font-family="Roboto" font-size="8.00" fill="#000000"> </text>
<text text-anchor="start" x="369.5" y="-7.1" font-family="Roboto" font-size="7.00" fill="#000000">it.unimi.dsi.fastutil.ints</text>
<text text-anchor="start" x="446.5" y="-7.1" font-family="Roboto" font-size="8.00" fill="#000000"> </text>
</a>
</g>
</a>
</g>
</g>
<!-- c6762941&#45;&gt;c6764798 -->
<g id="edge3" class="edge">
<title>c6762941&#45;&gt;c6764798</title>
<path fill="none" stroke="#000000" d="M253.3422,-49.9413C282.3386,-44.2154 320.7587,-36.6287 351.9891,-30.4616"/>
<polygon fill="#000000" stroke="#000000" points="361.8552,-28.5134 352.9165,-34.8655 356.9499,-29.4821 352.0447,-30.4508 352.0447,-30.4508 352.0447,-30.4508 356.9499,-29.4821 351.1728,-26.036 361.8552,-28.5134 361.8552,-28.5134"/>
</g>
</g>
</svg>
