<?xml version="1.0" encoding="UTF-8" standalone="no"?>
<!DOCTYPE svg PUBLIC "-//W3C//DTD SVG 1.1//EN"
 "http://www.w3.org/Graphics/SVG/1.1/DTD/svg11.dtd">
<!-- Generated by graphviz version 2.40.1 (20161225.0304)
 -->
<!-- Title: G Pages: 1 -->
<svg width="262pt" height="43pt"
 viewBox="0.00 0.00 262.00 42.58" xmlns="http://www.w3.org/2000/svg" xmlns:xlink="http://www.w3.org/1999/xlink">
<g id="graph0" class="graph" transform="scale(1 1) rotate(0) translate(4 38.5795)">
<title>G</title>
<polygon fill="#ffffff" stroke="transparent" points="-4,4 -4,-38.5795 258,-38.5795 258,4 -4,4"/>
<!-- c7504104 -->
<g id="node1" class="node">
<title>c7504104</title>
<g id="a_node1"><a xlink:href="OPTICSList.html" xlink:title="&lt;TABLE&gt;">
<g id="a_node1_0"><a xlink:href="OPTICSList.html" xlink:title="de.lmu.ifi.dbs.elki.algorithm.clustering.optics.OPTICSList" target="_parent">
<polygon fill="#fffacd" stroke="transparent" points="90,-17.5795 90,-34.5795 145,-34.5795 145,-17.5795 90,-17.5795"/>
<polygon fill="none" stroke="#000000" points="90.5,-17.0795 90.5,-34.0795 145.5,-34.0795 145.5,-17.0795 90.5,-17.0795"/>
<text text-anchor="start" x="94.5" y="-24.6795" font-family="Roboto" font-size="8.00" fill="#000000"> </text>
<text text-anchor="start" x="97.5" y="-24.6795" font-family="Roboto" font-size="8.00" fill="#000000">OPTICSList</text>
<text text-anchor="start" x="138.5" y="-24.6795" font-family="Roboto" font-size="8.00" fill="#000000"> </text>
</a>
</g>
</a>
</g>
</g>
<!-- c7504110 -->
<g id="node2" class="node">
<title>c7504110</title>
<g id="a_node2"><a xlink:href="ClusterOrder.html" xlink:title="&lt;TABLE&gt;">
<g id="a_node2_1"><a xlink:href="ClusterOrder.html" xlink:title="de.lmu.ifi.dbs.elki.algorithm.clustering.optics.ClusterOrder" target="_parent">
<polygon fill="#fffacd" stroke="transparent" points="194,-.5795 194,-17.5795 254,-17.5795 254,-.5795 194,-.5795"/>
<polygon fill="none" stroke="#000000" points="194,-.0795 194,-17.0795 254,-17.0795 254,-.0795 194,-.0795"/>
<text text-anchor="start" x="198" y="-7.6795" font-family="Roboto" font-size="8.00" fill="#000000"> </text>
<text text-anchor="start" x="201" y="-7.6795" font-family="Roboto" font-size="8.00" fill="#000000">ClusterOrder</text>
<text text-anchor="start" x="247" y="-7.6795" font-family="Roboto" font-size="8.00" fill="#000000"> </text>
</a>
</g>
</a>
</g>
</g>
<!-- c7504104&#45;&gt;c7504110 -->
<g id="edge2" class="edge">
<title>c7504104&#45;&gt;c7504110</title>
<path fill="none" stroke="#000000" d="M145.2036,-21.6573C156.9724,-19.7787 170.9229,-17.5519 183.7909,-15.4978"/>
<polygon fill="#000000" stroke="#000000" points="193.8162,-13.8975 184.6506,-19.9177 188.8788,-14.6857 183.9413,-15.4739 183.9413,-15.4739 183.9413,-15.4739 188.8788,-14.6857 183.2319,-11.0302 193.8162,-13.8975 193.8162,-13.8975"/>
<text text-anchor="middle" x="169.5" y="-22.4795" font-family="Roboto" font-size="7.00" fill="#000000">produces</text>
</g>
<!-- c7504111 -->
<g id="node3" class="node">
<title>c7504111</title>
<g id="a_node3"><a xlink:href="AbstractOPTICS.html" xlink:title="&lt;TABLE&gt;">
<g id="a_node3_2"><a xlink:href="AbstractOPTICS.html" xlink:title="de.lmu.ifi.dbs.elki.algorithm.clustering.optics.AbstractOPTICS" target="_parent">
<polygon fill="none" stroke="#000000" points=".5,-17.0795 .5,-34.0795 71.5,-34.0795 71.5,-17.0795 .5,-17.0795"/>
<text text-anchor="start" x="4.5" y="-24.6795" font-family="Roboto" font-size="8.00" fill="#000000"> </text>
<text text-anchor="start" x="7.5" y="-24.6795" font-family="Roboto" font-style="italic" font-size="8.00" fill="#000000">AbstractOPTICS</text>
<text text-anchor="start" x="64.5" y="-24.6795" font-family="Roboto" font-size="8.00" fill="#000000"> </text>
</a>
</g>
</a>
</g>
</g>
<!-- c7504111&#45;&gt;c7504104 -->
<g id="edge1" class="edge">
<title>c7504111&#45;&gt;c7504104</title>
<path fill="none" stroke="#000000" d="M81.476,-26.0795C84.2945,-26.0795 87.081,-26.0795 89.7814,-26.0795"/>
<polygon fill="none" stroke="#000000" points="81.2279,-22.5796 71.2279,-26.0795 81.2278,-29.5796 81.2279,-22.5796"/>
</g>
<!-- c7504111&#45;&gt;c7504110 -->
<g id="edge3" class="edge">
<title>c7504111&#45;&gt;c7504110</title>
<path fill="none" stroke="#000000" d="M52.1669,-17.4024C62.7016,-12.4163 76.7783,-6.6474 90,-4.0795 121.0694,1.9549 156.9313,.1698 183.7327,-2.8314"/>
<polygon fill="#000000" stroke="#000000" points="193.8946,-4.0753 183.4218,-7.3268 188.9316,-3.4677 183.9686,-2.8602 183.9686,-2.8602 183.9686,-2.8602 188.9316,-3.4677 184.5155,1.6065 193.8946,-4.0753 193.8946,-4.0753"/>
<text text-anchor="middle" x="117.5" y="-6.4795" font-family="Roboto" font-size="7.00" fill="#000000">produces</text>
</g>
</g>
</svg>
