<?xml version="1.0" encoding="UTF-8" standalone="no"?>
<!DOCTYPE svg PUBLIC "-//W3C//DTD SVG 1.1//EN"
 "http://www.w3.org/Graphics/SVG/1.1/DTD/svg11.dtd">
<!-- Generated by graphviz version 2.40.1 (20161225.0304)
 -->
<!-- Title: G Pages: 1 -->
<svg width="364pt" height="75pt"
 viewBox="0.00 0.00 364.00 75.00" xmlns="http://www.w3.org/2000/svg" xmlns:xlink="http://www.w3.org/1999/xlink">
<g id="graph0" class="graph" transform="scale(1 1) rotate(0) translate(4 71)">
<title>G</title>
<polygon fill="#ffffff" stroke="transparent" points="-4,4 -4,-71 360,-71 360,4 -4,4"/>
<!-- c7577652 -->
<g id="node1" class="node">
<title>c7577652</title>
<g id="a_node1"><a xlink:href="OPTICSXi.html" xlink:title="&lt;TABLE&gt;">
<g id="a_node1_0"><a xlink:href="OPTICSXi.html" xlink:title="de.lmu.ifi.dbs.elki.algorithm.clustering.optics.OPTICSXi" target="_parent">
<polygon fill="none" stroke="#000000" points="21.5,-49.5 21.5,-66.5 71.5,-66.5 71.5,-49.5 21.5,-49.5"/>
<text text-anchor="start" x="25.5" y="-57.1" font-family="Roboto" font-size="8.00" fill="#000000"> </text>
<text text-anchor="start" x="28.5" y="-57.1" font-family="Roboto" font-size="8.00" fill="#000000">OPTICSXi</text>
<text text-anchor="start" x="64.5" y="-57.1" font-family="Roboto" font-size="8.00" fill="#000000"> </text>
</a>
</g>
</a>
</g>
</g>
<!-- c7577657 -->
<g id="node3" class="node">
<title>c7577657</title>
<g id="a_node3"><a xlink:href="OPTICSXi.SteepAreaResult.html" xlink:title="&lt;TABLE&gt;">
<g id="a_node3_1"><a xlink:href="OPTICSXi.SteepAreaResult.html" xlink:title="de.lmu.ifi.dbs.elki.algorithm.clustering.optics.OPTICSXi.SteepAreaResult" target="_parent">
<polygon fill="#fffacd" stroke="transparent" points="142,-11 142,-28 251,-28 251,-11 142,-11"/>
<polygon fill="none" stroke="#000000" points="142.5,-10.5 142.5,-27.5 251.5,-27.5 251.5,-10.5 142.5,-10.5"/>
<text text-anchor="start" x="146.5" y="-18.1" font-family="Roboto" font-size="8.00" fill="#000000"> </text>
<text text-anchor="start" x="149.5" y="-18.1" font-family="Roboto" font-size="8.00" fill="#000000">OPTICSXi.SteepAreaResult</text>
<text text-anchor="start" x="244.5" y="-18.1" font-family="Roboto" font-size="8.00" fill="#000000"> </text>
</a>
</g>
</a>
</g>
</g>
<!-- c7577652&#45;&gt;c7577657 -->
<g id="edge1" class="edge">
<title>c7577652&#45;&gt;c7577657</title>
<path fill="none" stroke="#000000" d="M71.6066,-51.9723C94.0145,-46.1462 127.2969,-37.4928 153.8704,-30.5837"/>
<polygon fill="#000000" stroke="#000000" points="163.6898,-28.0307 155.1439,-34.9023 158.8507,-29.2889 154.0116,-30.5471 154.0116,-30.5471 154.0116,-30.5471 158.8507,-29.2889 152.8792,-26.1919 163.6898,-28.0307 163.6898,-28.0307"/>
<text text-anchor="middle" x="117.5" y="-45.9" font-family="Roboto" font-size="7.00" fill="#000000">produces</text>
</g>
<!-- c7577654 -->
<g id="node2" class="node">
<title>c7577654</title>
<g id="a_node2"><a xlink:href="OPTICSXi.SteepArea.html" xlink:title="&lt;TABLE&gt;">
<g id="a_node2_2"><a xlink:href="OPTICSXi.SteepArea.html" xlink:title="de.lmu.ifi.dbs.elki.algorithm.clustering.optics.OPTICSXi.SteepArea" target="_parent">
<polygon fill="none" stroke="#000000" points="270,-10.5 270,-27.5 356,-27.5 356,-10.5 270,-10.5"/>
<text text-anchor="start" x="274" y="-18.1" font-family="Roboto" font-size="8.00" fill="#000000"> </text>
<text text-anchor="start" x="277" y="-18.1" font-family="Roboto" font-style="italic" font-size="8.00" fill="#000000">OPTICSXi.SteepArea</text>
<text text-anchor="start" x="349" y="-18.1" font-family="Roboto" font-size="8.00" fill="#000000"> </text>
</a>
</g>
</a>
</g>
</g>
<!-- c7577657&#45;&gt;c7577654 -->
<g id="edge3" class="edge">
<title>c7577657&#45;&gt;c7577654</title>
<path fill="none" stroke="#000000" d="M263.35,-19.5C265.5797,-19.5 267.7921,-19.5 269.974,-19.5"/>
<polygon fill="none" stroke="#000000" points="263.3387,-19.5001 257.3386,-23.5 251.3387,-19.5 257.3387,-15.5 263.3387,-19.5001"/>
</g>
<!-- c7577946 -->
<g id="node4" class="node">
<title>c7577946</title>
<g id="a_node4"><a xlink:href="../../../result/IterableResult.html" xlink:title="&lt;TABLE&gt;">
<g id="a_node4_3"><a xlink:href="../../../result/IterableResult.html" xlink:title="de.lmu.ifi.dbs.elki.result.IterableResult" target="_parent">
<polygon fill="#fffacd" stroke="transparent" points="0,0 0,-39 93,-39 93,0 0,0"/>
<polygon fill="none" stroke="#000000" points=".5,.5 .5,-38.5 93.5,-38.5 93.5,.5 .5,.5"/>
<text text-anchor="start" x="25.5" y="-28.1" font-family="Roboto" font-size="8.00" fill="#000000"> «interface» </text>
<text text-anchor="start" x="19.5" y="-18.1" font-family="Roboto" font-size="8.00" fill="#000000"> </text>
<text text-anchor="start" x="22.5" y="-18.1" font-family="Roboto" font-size="8.00" fill="#000000">IterableResult</text>
<text text-anchor="start" x="71.5" y="-18.1" font-family="Roboto" font-size="8.00" fill="#000000"> </text>
<text text-anchor="start" x="4.5" y="-7.1" font-family="Roboto" font-size="8.00" fill="#000000"> </text>
<text text-anchor="start" x="7.5" y="-7.1" font-family="Roboto" font-size="7.00" fill="#000000">de.lmu.ifi.dbs.elki.result</text>
<text text-anchor="start" x="86.5" y="-7.1" font-family="Roboto" font-size="8.00" fill="#000000"> </text>
</a>
</g>
</a>
</g>
</g>
<!-- c7577946&#45;&gt;c7577657 -->
<g id="edge2" class="edge">
<title>c7577946&#45;&gt;c7577657</title>
<path fill="none" stroke="#000000" stroke-dasharray="5,2" d="M103.4762,-19.5C116.0228,-19.5 129.2847,-19.5 141.7414,-19.5"/>
<polygon fill="none" stroke="#000000" points="103.1387,-16.0001 93.1387,-19.5 103.1387,-23.0001 103.1387,-16.0001"/>
</g>
</g>
</svg>
