<?xml version="1.0" encoding="UTF-8" standalone="no"?>
<!DOCTYPE svg PUBLIC "-//W3C//DTD SVG 1.1//EN"
 "http://www.w3.org/Graphics/SVG/1.1/DTD/svg11.dtd">
<!-- Generated by graphviz version 2.40.1 (20161225.0304)
 -->
<!-- Title: G Pages: 1 -->
<svg width="481pt" height="47pt"
 viewBox="0.00 0.00 481.00 47.00" xmlns="http://www.w3.org/2000/svg" xmlns:xlink="http://www.w3.org/1999/xlink">
<g id="graph0" class="graph" transform="scale(1 1) rotate(0) translate(4 43)">
<title>G</title>
<polygon fill="#ffffff" stroke="transparent" points="-4,4 -4,-43 477,-43 477,4 -4,4"/>
<!-- c747727 -->
<g id="node1" class="node">
<title>c747727</title>
<g id="a_node1"><a xlink:href="LibSVMOneClassOutlierDetection.html" xlink:title="&lt;TABLE&gt;">
<g id="a_node1_0"><a xlink:href="LibSVMOneClassOutlierDetection.html" xlink:title="de.lmu.ifi.dbs.elki.algorithm.outlier.svm.LibSVMOneClassOutlierDetection" target="_parent">
<polygon fill="none" stroke="#000000" points="147.5,-10.5 147.5,-27.5 280.5,-27.5 280.5,-10.5 147.5,-10.5"/>
<text text-anchor="start" x="151.5" y="-18.1" font-family="Roboto" font-size="8.00" fill="#000000"> </text>
<text text-anchor="start" x="154.5" y="-18.1" font-family="Roboto" font-size="8.00" fill="#000000">LibSVMOneClassOutlierDetection</text>
<text text-anchor="start" x="273.5" y="-18.1" font-family="Roboto" font-size="8.00" fill="#000000"> </text>
</a>
</g>
</a>
</g>
</g>
<!-- c747728 -->
<g id="node2" class="node">
<title>c747728</title>
<g id="a_node2"><a xlink:href="LibSVMOneClassOutlierDetection.SVMKernel.html" xlink:title="&lt;TABLE&gt;">
<g id="a_node2_1"><a xlink:href="LibSVMOneClassOutlierDetection.SVMKernel.html" xlink:title="de.lmu.ifi.dbs.elki.algorithm.outlier.svm.LibSVMOneClassOutlierDetection.SVMKernel" target="_parent">
<polygon fill="none" stroke="#000000" points="298.5,-5.5 298.5,-33.5 473.5,-33.5 473.5,-5.5 298.5,-5.5"/>
<text text-anchor="start" x="358" y="-23.1" font-family="Roboto" font-size="8.00" fill="#000000"> «enumeration» </text>
<text text-anchor="start" x="302.5" y="-13.1" font-family="Roboto" font-size="8.00" fill="#000000"> </text>
<text text-anchor="start" x="305.5" y="-13.1" font-family="Roboto" font-size="8.00" fill="#000000">LibSVMOneClassOutlierDetection.SVMKernel</text>
<text text-anchor="start" x="466.5" y="-13.1" font-family="Roboto" font-size="8.00" fill="#000000"> </text>
</a>
</g>
</a>
</g>
</g>
<!-- c747727&#45;&gt;c747728 -->
<g id="edge2" class="edge">
<title>c747727&#45;&gt;c747728</title>
<path fill="none" stroke="#000000" d="M280.4922,-19.5C282.8798,-19.5 285.288,-19.5 287.7089,-19.5"/>
<polygon fill="#000000" stroke="#000000" points="297.7128,-19.5 287.7129,-24.0001 292.7128,-19.5 287.7128,-19.5001 287.7128,-19.5001 287.7128,-19.5001 292.7128,-19.5 287.7128,-15.0001 297.7128,-19.5 297.7128,-19.5"/>
</g>
<!-- c747867 -->
<g id="node3" class="node">
<title>c747867</title>
<g id="a_node3"><a xlink:href="../OutlierAlgorithm.html" xlink:title="&lt;TABLE&gt;">
<g id="a_node3_2"><a xlink:href="../OutlierAlgorithm.html" xlink:title="de.lmu.ifi.dbs.elki.algorithm.outlier.OutlierAlgorithm" target="_parent">
<polygon fill="#fffacd" stroke="transparent" points="0,0 0,-39 129,-39 129,0 0,0"/>
<polygon fill="none" stroke="#000000" points=".5,.5 .5,-38.5 129.5,-38.5 129.5,.5 .5,.5"/>
<text text-anchor="start" x="43.5" y="-28.1" font-family="Roboto" font-size="8.00" fill="#000000"> «interface» </text>
<text text-anchor="start" x="32.5" y="-18.1" font-family="Roboto" font-size="8.00" fill="#000000"> </text>
<text text-anchor="start" x="35.5" y="-18.1" font-family="Roboto" font-size="8.00" fill="#000000">OutlierAlgorithm</text>
<text text-anchor="start" x="94.5" y="-18.1" font-family="Roboto" font-size="8.00" fill="#000000"> </text>
<text text-anchor="start" x="4.5" y="-7.1" font-family="Roboto" font-size="8.00" fill="#000000"> </text>
<text text-anchor="start" x="7.5" y="-7.1" font-family="Roboto" font-size="7.00" fill="#000000">de.lmu.ifi.dbs.elki.algorithm.outlier</text>
<text text-anchor="start" x="122.5" y="-7.1" font-family="Roboto" font-size="8.00" fill="#000000"> </text>
</a>
</g>
</a>
</g>
</g>
<!-- c747867&#45;&gt;c747727 -->
<g id="edge1" class="edge">
<title>c747867&#45;&gt;c747727</title>
<path fill="none" stroke="#000000" stroke-dasharray="5,2" d="M139.5364,-19.5C142.0028,-19.5 144.4685,-19.5 146.9225,-19.5"/>
<polygon fill="none" stroke="#000000" points="139.4202,-16.0001 129.4201,-19.5 139.4201,-23.0001 139.4202,-16.0001"/>
</g>
</g>
</svg>
