<?xml version="1.0" encoding="UTF-8" standalone="no"?>
<!DOCTYPE svg PUBLIC "-//W3C//DTD SVG 1.1//EN"
 "http://www.w3.org/Graphics/SVG/1.1/DTD/svg11.dtd">
<!-- Generated by graphviz version 2.40.1 (20161225.0304)
 -->
<!-- Title: G Pages: 1 -->
<svg width="481pt" height="165pt"
 viewBox="0.00 0.00 481.00 165.00" xmlns="http://www.w3.org/2000/svg" xmlns:xlink="http://www.w3.org/1999/xlink">
<g id="graph0" class="graph" transform="scale(1 1) rotate(0) translate(4 161)">
<title>G</title>
<polygon fill="#ffffff" stroke="transparent" points="-4,4 -4,-161 477,-161 477,4 -4,4"/>
<!-- c6289560 -->
<g id="node1" class="node">
<title>c6289560</title>
<g id="a_node1"><a xlink:href="../../../data/NumberVector.html" xlink:title="&lt;TABLE&gt;">
<g id="a_node1_0"><a xlink:href="../../../data/NumberVector.html" xlink:title="de.lmu.ifi.dbs.elki.data.NumberVector" target="_parent">
<polygon fill="#fffacd" stroke="transparent" points="342,-118 342,-157 429,-157 429,-118 342,-118"/>
<polygon fill="none" stroke="#000000" points="342.5,-117.5 342.5,-156.5 429.5,-156.5 429.5,-117.5 342.5,-117.5"/>
<text text-anchor="start" x="364.5" y="-146.1" font-family="Roboto" font-size="8.00" fill="#000000"> «interface» </text>
<text text-anchor="start" x="357.5" y="-136.1" font-family="Roboto" font-size="8.00" fill="#000000"> </text>
<text text-anchor="start" x="360.5" y="-136.1" font-family="Roboto" font-size="8.00" fill="#000000">NumberVector</text>
<text text-anchor="start" x="411.5" y="-136.1" font-family="Roboto" font-size="8.00" fill="#000000"> </text>
<text text-anchor="start" x="346.5" y="-125.1" font-family="Roboto" font-size="8.00" fill="#000000"> </text>
<text text-anchor="start" x="349.5" y="-125.1" font-family="Roboto" font-size="7.00" fill="#000000">de.lmu.ifi.dbs.elki.data</text>
<text text-anchor="start" x="422.5" y="-125.1" font-family="Roboto" font-size="8.00" fill="#000000"> </text>
</a>
</g>
</a>
</g>
</g>
<!-- c6289582 -->
<g id="node2" class="node">
<title>c6289582</title>
<g id="a_node2"><a xlink:href="../../AbstractAlgorithm.html" xlink:title="&lt;TABLE&gt;">
<g id="a_node2_1"><a xlink:href="../../AbstractAlgorithm.html" xlink:title="de.lmu.ifi.dbs.elki.algorithm.AbstractAlgorithm" target="_parent">
<polygon fill="#fffacd" stroke="transparent" points="12,-50.5 12,-134.5 117,-134.5 117,-50.5 12,-50.5"/>
<polygon fill="none" stroke="#000000" points="12.5,-106.5 12.5,-134.5 117.5,-134.5 117.5,-106.5 12.5,-106.5"/>
<text text-anchor="start" x="29.5" y="-125.1" font-family="Roboto" font-size="8.00" fill="#000000"> </text>
<text text-anchor="start" x="32.5" y="-125.1" font-family="Roboto" font-style="italic" font-size="8.00" fill="#000000">AbstractAlgorithm</text>
<text text-anchor="start" x="97.5" y="-125.1" font-family="Roboto" font-size="8.00" fill="#000000"> </text>
<text text-anchor="start" x="16.5" y="-114.1" font-family="Roboto" font-size="8.00" fill="#000000"> </text>
<text text-anchor="start" x="19.5" y="-114.1" font-family="Roboto" font-size="7.00" fill="#000000">de.lmu.ifi.dbs.elki.algorithm</text>
<text text-anchor="start" x="110.5" y="-114.1" font-family="Roboto" font-size="8.00" fill="#000000"> </text>
<polygon fill="none" stroke="#000000" points="12.5,-89.5 12.5,-106.5 117.5,-106.5 117.5,-89.5 12.5,-89.5"/>
<text text-anchor="start" x="16.5" y="-96.1" font-family="Roboto" font-size="8.00" fill="#000000"> &#160;</text>
<polygon fill="none" stroke="#000000" points="12.5,-50.5 12.5,-89.5 117.5,-89.5 117.5,-50.5 12.5,-50.5"/>
<text text-anchor="start" x="16.5" y="-79.1" font-family="Roboto" font-size="8.00" fill="#000000"> &#160;run() </text>
<text text-anchor="start" x="16.5" y="-69.1" font-family="Roboto" font-size="8.00" fill="#000000"> </text>
<text text-anchor="start" x="19.5" y="-69.1" font-family="Roboto" font-style="italic" font-size="8.00" fill="#000000"> getInputTypeRestriction()</text>
<text text-anchor="start" x="110.5" y="-69.1" font-family="Roboto" font-size="8.00" fill="#000000"> </text>
<text text-anchor="start" x="16.5" y="-58.1" font-family="Roboto" font-size="8.00" fill="#000000"> </text>
<text text-anchor="start" x="19.5" y="-58.1" font-family="Roboto" font-style="italic" font-size="8.00" fill="#000000"> getLogger()</text>
<text text-anchor="start" x="63.5" y="-58.1" font-family="Roboto" font-size="8.00" fill="#000000"> </text>
</a>
</g>
</a>
</g>
</g>
<!-- c6291227 -->
<g id="node3" class="node">
<title>c6291227</title>
<g id="a_node3"><a xlink:href="LibSVMOneClassOutlierDetection.html" xlink:title="&lt;TABLE&gt;">
<g id="a_node3_2"><a xlink:href="LibSVMOneClassOutlierDetection.html" xlink:title="de.lmu.ifi.dbs.elki.algorithm.outlier.svm.LibSVMOneClassOutlierDetection" target="_parent">
<polygon fill="#fffacd" stroke="transparent" points="147,-84 147,-101 280,-101 280,-84 147,-84"/>
<polygon fill="none" stroke="#000000" points="147.5,-83.5 147.5,-100.5 280.5,-100.5 280.5,-83.5 147.5,-83.5"/>
<text text-anchor="start" x="151.5" y="-91.1" font-family="Roboto" font-size="8.00" fill="#000000"> </text>
<text text-anchor="start" x="154.5" y="-91.1" font-family="Roboto" font-size="8.00" fill="#000000">LibSVMOneClassOutlierDetection</text>
<text text-anchor="start" x="273.5" y="-91.1" font-family="Roboto" font-size="8.00" fill="#000000"> </text>
</a>
</g>
</a>
</g>
</g>
<!-- c6289582&#45;&gt;c6291227 -->
<g id="edge1" class="edge">
<title>c6289582&#45;&gt;c6291227</title>
<path fill="none" stroke="#000000" d="M127.1295,-92.5C133.6391,-92.5 140.2729,-92.5 146.825,-92.5"/>
<polygon fill="none" stroke="#000000" points="127.0319,-89.0001 117.0318,-92.5 127.0318,-96.0001 127.0319,-89.0001"/>
</g>
<!-- c6291227&#45;&gt;c6289560 -->
<g id="edge4" class="edge">
<title>c6291227&#45;&gt;c6289560</title>
<path fill="none" stroke="#000000" stroke-dasharray="5,2" d="M246.2567,-101.0701C270.4953,-107.4116 304.0369,-116.187 332.1264,-123.536"/>
<polygon fill="#000000" stroke="#000000" points="341.8105,-126.0696 330.997,-127.8919 336.9733,-124.804 332.1361,-123.5384 332.1361,-123.5384 332.1361,-123.5384 336.9733,-124.804 333.2751,-119.185 341.8105,-126.0696 341.8105,-126.0696"/>
</g>
<!-- c6291228 -->
<g id="node4" class="node">
<title>c6291228</title>
<g id="a_node4"><a xlink:href="LibSVMOneClassOutlierDetection.SVMKernel.html" xlink:title="&lt;TABLE&gt;">
<g id="a_node4_3"><a xlink:href="LibSVMOneClassOutlierDetection.SVMKernel.html" xlink:title="de.lmu.ifi.dbs.elki.algorithm.outlier.svm.LibSVMOneClassOutlierDetection.SVMKernel" target="_parent">
<polygon fill="none" stroke="#000000" points="298.5,-78.5 298.5,-106.5 473.5,-106.5 473.5,-78.5 298.5,-78.5"/>
<text text-anchor="start" x="358" y="-96.1" font-family="Roboto" font-size="8.00" fill="#000000"> «enumeration» </text>
<text text-anchor="start" x="302.5" y="-86.1" font-family="Roboto" font-size="8.00" fill="#000000"> </text>
<text text-anchor="start" x="305.5" y="-86.1" font-family="Roboto" font-size="8.00" fill="#000000">LibSVMOneClassOutlierDetection.SVMKernel</text>
<text text-anchor="start" x="466.5" y="-86.1" font-family="Roboto" font-size="8.00" fill="#000000"> </text>
</a>
</g>
</a>
</g>
</g>
<!-- c6291227&#45;&gt;c6291228 -->
<g id="edge3" class="edge">
<title>c6291227&#45;&gt;c6291228</title>
<path fill="none" stroke="#000000" d="M280.4922,-92.5C282.8798,-92.5 285.288,-92.5 287.7089,-92.5"/>
<polygon fill="#000000" stroke="#000000" points="297.7128,-92.5 287.7129,-97.0001 292.7128,-92.5 287.7128,-92.5001 287.7128,-92.5001 287.7128,-92.5001 292.7128,-92.5 287.7128,-88.0001 297.7128,-92.5 297.7128,-92.5"/>
</g>
<!-- c6291367 -->
<g id="node5" class="node">
<title>c6291367</title>
<g id="a_node5"><a xlink:href="../OutlierAlgorithm.html" xlink:title="&lt;TABLE&gt;">
<g id="a_node5_4"><a xlink:href="../OutlierAlgorithm.html" xlink:title="de.lmu.ifi.dbs.elki.algorithm.outlier.OutlierAlgorithm" target="_parent">
<polygon fill="#fffacd" stroke="transparent" points="0,0 0,-39 129,-39 129,0 0,0"/>
<polygon fill="none" stroke="#000000" points=".5,.5 .5,-38.5 129.5,-38.5 129.5,.5 .5,.5"/>
<text text-anchor="start" x="43.5" y="-28.1" font-family="Roboto" font-size="8.00" fill="#000000"> «interface» </text>
<text text-anchor="start" x="32.5" y="-18.1" font-family="Roboto" font-size="8.00" fill="#000000"> </text>
<text text-anchor="start" x="35.5" y="-18.1" font-family="Roboto" font-size="8.00" fill="#000000">OutlierAlgorithm</text>
<text text-anchor="start" x="94.5" y="-18.1" font-family="Roboto" font-size="8.00" fill="#000000"> </text>
<text text-anchor="start" x="4.5" y="-7.1" font-family="Roboto" font-size="8.00" fill="#000000"> </text>
<text text-anchor="start" x="7.5" y="-7.1" font-family="Roboto" font-size="7.00" fill="#000000">de.lmu.ifi.dbs.elki.algorithm.outlier</text>
<text text-anchor="start" x="122.5" y="-7.1" font-family="Roboto" font-size="8.00" fill="#000000"> </text>
</a>
</g>
</a>
</g>
</g>
<!-- c6291367&#45;&gt;c6291227 -->
<g id="edge2" class="edge">
<title>c6291367&#45;&gt;c6291227</title>
<path fill="none" stroke="#000000" stroke-dasharray="5,2" d="M124.2058,-43.2553C125.8262,-44.0001 127.4269,-44.7491 129,-45.5 154.4504,-57.6495 182.8883,-74.094 199.432,-83.964"/>
<polygon fill="none" stroke="#000000" points="125.3268,-39.9232 114.768,-39.0505 122.478,-46.3173 125.3268,-39.9232"/>
</g>
</g>
</svg>
