<?xml version="1.0" encoding="UTF-8" standalone="no"?><svg xmlns="http://www.w3.org/2000/svg" xmlns:xlink="http://www.w3.org/1999/xlink" contentStyleType="text/css" height="580px" preserveAspectRatio="none" style="width:1258px;height:580px;background:#FFFFFF;" version="1.1" viewBox="0 0 1258 580" width="1258px" zoomAndPan="magnify"><defs/><g><!--MD5=[9ee591cba36cbf50ec6d3de7f27f7333]
cluster elki.utilities.pairs--><g id="cluster_elki.utilities.pairs"><path d="M8.5,6 L142.5,6 A3.75,3.75 0 0 1 145,8.5 L152,28.2969 L1248.5,28.2969 A2.5,2.5 0 0 1 1251,30.7969 L1251,552.5 A2.5,2.5 0 0 1 1248.5,555 L8.5,555 A2.5,2.5 0 0 1 6,552.5 L6,8.5 A2.5,2.5 0 0 1 8.5,6 " fill="none" style="stroke:#000000;stroke-width:1.5;"/><line style="stroke:#000000;stroke-width:1.5;" x1="6" x2="152" y1="28.2969" y2="28.2969"/><text fill="#000000" font-family="sans-serif" font-size="14" font-weight="bold" lengthAdjust="spacing" textLength="133" x="10" y="20.9951">elki.utilities.pairs</text></g><!--MD5=[b1c5aa12d417b829ba6a0faff262f5c8]
class elki.utilities.pairs.DoubleObjPair--><a href="DoubleObjPair.html" target="_top" title="DoubleObjPair.html" xlink:actuate="onRequest" xlink:href="DoubleObjPair.html" xlink:show="new" xlink:title="DoubleObjPair.html" xlink:type="simple"><g id="elem_elki.utilities.pairs.DoubleObjPair"><rect codeLine="4" fill="#F1F1F1" height="113.1875" id="elki.utilities.pairs.DoubleObjPair" rx="2.5" ry="2.5" style="stroke:#181818;stroke-width:0.5;" width="274" x="22" y="98"/><ellipse cx="99.75" cy="114" fill="#ADD1B2" rx="11" ry="11" style="stroke:#181818;stroke-width:1.0;"/><path d="M102.7188,119.6406 Q102.1406,119.9375 101.5,120.0781 Q100.8594,120.2344 100.1563,120.2344 Q97.6563,120.2344 96.3281,118.5938 Q95.0156,116.9375 95.0156,113.8125 Q95.0156,110.6875 96.3281,109.0313 Q97.6563,107.375 100.1563,107.375 Q100.8594,107.375 101.5,107.5313 Q102.1563,107.6875 102.7188,107.9844 L102.7188,110.7031 Q102.0938,110.125 101.5,109.8594 Q100.9063,109.5781 100.2813,109.5781 Q98.9375,109.5781 98.25,110.6563 Q97.5625,111.7188 97.5625,113.8125 Q97.5625,115.9063 98.25,116.9844 Q98.9375,118.0469 100.2813,118.0469 Q100.9063,118.0469 101.5,117.7813 Q102.0938,117.5 102.7188,116.9219 L102.7188,119.6406 Z " fill="#000000"/><text fill="#000000" font-family="sans-serif" font-size="14" lengthAdjust="spacing" textLength="98" x="120.25" y="118.8467">DoubleObjPair</text><rect fill="#FFFFFF" height="15.9688" style="stroke:#181818;stroke-width:1.0;stroke-dasharray:2.0,2.0;" width="10" x="289" y="95"/><text fill="#000000" font-family="sans-serif" font-size="12" font-style="italic" lengthAdjust="spacing" textLength="8" x="290" y="107.1387">O</text><line style="stroke:#181818;stroke-width:0.5;" x1="23" x2="295" y1="130" y2="130"/><ellipse cx="33" cy="143.6484" fill="none" rx="3" ry="3" style="stroke:#038048;stroke-width:1.0;"/><text fill="#000000" font-family="sans-serif" font-size="14" lengthAdjust="spacing" textLength="82" x="42" y="146.9951">first: double</text><ellipse cx="33" cy="159.9453" fill="none" rx="3" ry="3" style="stroke:#038048;stroke-width:1.0;"/><text fill="#000000" font-family="sans-serif" font-size="14" lengthAdjust="spacing" textLength="72" x="42" y="163.292">second: O</text><line style="stroke:#181818;stroke-width:0.5;" x1="23" x2="295" y1="170.5938" y2="170.5938"/><ellipse cx="33" cy="184.2422" fill="#84BE84" rx="3" ry="3" style="stroke:#038048;stroke-width:1.0;"/><text fill="#000000" font-family="sans-serif" font-size="14" lengthAdjust="spacing" textLength="175" x="42" y="187.5889">DoubleObjPair(double, O)</text><ellipse cx="33" cy="200.5391" fill="#84BE84" rx="3" ry="3" style="stroke:#038048;stroke-width:1.0;"/><text fill="#000000" font-family="sans-serif" font-size="14" lengthAdjust="spacing" textLength="248" x="42" y="203.8857">compareTo(DoubleObjPair&lt;O&gt;): int</text></g></a><!--MD5=[9e9e6b420615a4171255ddc4ca50bfdd]
class elki.utilities.pairs.DoubleIntPair--><a href="DoubleIntPair.html" target="_top" title="DoubleIntPair.html" xlink:actuate="onRequest" xlink:href="DoubleIntPair.html" xlink:show="new" xlink:title="DoubleIntPair.html" xlink:type="simple"><g id="elem_elki.utilities.pairs.DoubleIntPair"><rect codeLine="11" fill="#F1F1F1" height="210.9688" id="elki.utilities.pairs.DoubleIntPair" rx="2.5" ry="2.5" style="stroke:#181818;stroke-width:0.5;" width="418" x="331" y="49"/><ellipse cx="489.75" cy="65" fill="#ADD1B2" rx="11" ry="11" style="stroke:#181818;stroke-width:1.0;"/><path d="M492.7188,70.6406 Q492.1406,70.9375 491.5,71.0781 Q490.8594,71.2344 490.1563,71.2344 Q487.6563,71.2344 486.3281,69.5938 Q485.0156,67.9375 485.0156,64.8125 Q485.0156,61.6875 486.3281,60.0313 Q487.6563,58.375 490.1563,58.375 Q490.8594,58.375 491.5,58.5313 Q492.1563,58.6875 492.7188,58.9844 L492.7188,61.7031 Q492.0938,61.125 491.5,60.8594 Q490.9063,60.5781 490.2813,60.5781 Q488.9375,60.5781 488.25,61.6563 Q487.5625,62.7188 487.5625,64.8125 Q487.5625,66.9063 488.25,67.9844 Q488.9375,69.0469 490.2813,69.0469 Q490.9063,69.0469 491.5,68.7813 Q492.0938,68.5 492.7188,67.9219 L492.7188,70.6406 Z " fill="#000000"/><text fill="#000000" font-family="sans-serif" font-size="14" lengthAdjust="spacing" textLength="92" x="510.25" y="69.8467">DoubleIntPair</text><line style="stroke:#181818;stroke-width:0.5;" x1="332" x2="748" y1="81" y2="81"/><ellipse cx="342" cy="94.6484" fill="none" rx="3" ry="3" style="stroke:#038048;stroke-width:1.0;"/><text fill="#000000" font-family="sans-serif" font-size="14" lengthAdjust="spacing" textLength="82" x="351" y="97.9951">first: double</text><ellipse cx="342" cy="110.9453" fill="none" rx="3" ry="3" style="stroke:#038048;stroke-width:1.0;"/><text fill="#000000" font-family="sans-serif" font-size="14" lengthAdjust="spacing" textLength="78" x="351" y="114.292">second: int</text><ellipse cx="342" cy="127.2422" fill="none" rx="3" ry="3" style="stroke:#038048;stroke-width:1.0;"/><text fill="#000000" font-family="sans-serif" font-size="14" lengthAdjust="spacing" text-decoration="underline" textLength="371" x="351" y="130.5889">BYFIRST_COMPARATOR: Comparator&lt;DoubleIntPair&gt;</text><ellipse cx="342" cy="143.5391" fill="none" rx="3" ry="3" style="stroke:#038048;stroke-width:1.0;"/><text fill="#000000" font-family="sans-serif" font-size="14" lengthAdjust="spacing" text-decoration="underline" textLength="392" x="351" y="146.8857">BYSECOND_COMPARATOR: Comparator&lt;DoubleIntPair&gt;</text><ellipse cx="342" cy="159.8359" fill="none" rx="3" ry="3" style="stroke:#038048;stroke-width:1.0;"/><text fill="#000000" font-family="sans-serif" font-size="14" lengthAdjust="spacing" text-decoration="underline" textLength="382" x="351" y="163.1826">SWAPPED_COMPARATOR: Comparator&lt;DoubleIntPair&gt;</text><line style="stroke:#181818;stroke-width:0.5;" x1="332" x2="748" y1="170.4844" y2="170.4844"/><ellipse cx="342" cy="184.1328" fill="#84BE84" rx="3" ry="3" style="stroke:#038048;stroke-width:1.0;"/><text fill="#000000" font-family="sans-serif" font-size="14" lengthAdjust="spacing" textLength="175" x="351" y="187.4795">DoubleIntPair(double, int)</text><ellipse cx="342" cy="200.4297" fill="#84BE84" rx="3" ry="3" style="stroke:#038048;stroke-width:1.0;"/><text fill="#000000" font-family="sans-serif" font-size="14" lengthAdjust="spacing" textLength="207" x="351" y="203.7764">compareTo(DoubleIntPair): int</text><ellipse cx="342" cy="216.7266" fill="#84BE84" rx="3" ry="3" style="stroke:#038048;stroke-width:1.0;"/><text fill="#000000" font-family="sans-serif" font-size="14" lengthAdjust="spacing" textLength="271" x="351" y="220.0732">compareSwappedTo(DoubleIntPair): int</text><ellipse cx="342" cy="233.0234" fill="#84BE84" rx="3" ry="3" style="stroke:#038048;stroke-width:1.0;"/><text fill="#000000" font-family="sans-serif" font-size="14" lengthAdjust="spacing" textLength="146" x="351" y="236.3701">setFirst(double): void</text><ellipse cx="342" cy="249.3203" fill="#84BE84" rx="3" ry="3" style="stroke:#038048;stroke-width:1.0;"/><text fill="#000000" font-family="sans-serif" font-size="14" lengthAdjust="spacing" textLength="139" x="351" y="252.667">setSecond(int): void</text></g></a><!--MD5=[b75607708eddcdf38d4508cc61aac5cf]
class elki.utilities.pairs.DoubleDoublePair--><a href="DoubleDoublePair.html" target="_top" title="DoubleDoublePair.html" xlink:actuate="onRequest" xlink:href="DoubleDoublePair.html" xlink:show="new" xlink:title="DoubleDoublePair.html" xlink:type="simple"><g id="elem_elki.utilities.pairs.DoubleDoublePair"><rect codeLine="24" fill="#F1F1F1" height="227.2656" id="elki.utilities.pairs.DoubleDoublePair" rx="2.5" ry="2.5" style="stroke:#181818;stroke-width:0.5;" width="451" x="784.5" y="41"/><ellipse cx="943.25" cy="57" fill="#ADD1B2" rx="11" ry="11" style="stroke:#181818;stroke-width:1.0;"/><path d="M946.2188,62.6406 Q945.6406,62.9375 945,63.0781 Q944.3594,63.2344 943.6563,63.2344 Q941.1563,63.2344 939.8281,61.5938 Q938.5156,59.9375 938.5156,56.8125 Q938.5156,53.6875 939.8281,52.0313 Q941.1563,50.375 943.6563,50.375 Q944.3594,50.375 945,50.5313 Q945.6563,50.6875 946.2188,50.9844 L946.2188,53.7031 Q945.5938,53.125 945,52.8594 Q944.4063,52.5781 943.7813,52.5781 Q942.4375,52.5781 941.75,53.6563 Q941.0625,54.7188 941.0625,56.8125 Q941.0625,58.9063 941.75,59.9844 Q942.4375,61.0469 943.7813,61.0469 Q944.4063,61.0469 945,60.7813 Q945.5938,60.5 946.2188,59.9219 L946.2188,62.6406 Z " fill="#000000"/><text fill="#000000" font-family="sans-serif" font-size="14" lengthAdjust="spacing" textLength="125" x="963.75" y="61.8467">DoubleDoublePair</text><line style="stroke:#181818;stroke-width:0.5;" x1="785.5" x2="1234.5" y1="73" y2="73"/><ellipse cx="795.5" cy="86.6484" fill="none" rx="3" ry="3" style="stroke:#038048;stroke-width:1.0;"/><text fill="#000000" font-family="sans-serif" font-size="14" lengthAdjust="spacing" textLength="82" x="804.5" y="89.9951">first: double</text><ellipse cx="795.5" cy="102.9453" fill="none" rx="3" ry="3" style="stroke:#038048;stroke-width:1.0;"/><text fill="#000000" font-family="sans-serif" font-size="14" lengthAdjust="spacing" textLength="109" x="804.5" y="106.292">second: double</text><ellipse cx="795.5" cy="119.2422" fill="none" rx="3" ry="3" style="stroke:#038048;stroke-width:1.0;"/><text fill="#000000" font-family="sans-serif" font-size="14" lengthAdjust="spacing" text-decoration="underline" textLength="404" x="804.5" y="122.5889">BYFIRST_COMPARATOR: Comparator&lt;DoubleDoublePair&gt;</text><ellipse cx="795.5" cy="135.5391" fill="none" rx="3" ry="3" style="stroke:#038048;stroke-width:1.0;"/><text fill="#000000" font-family="sans-serif" font-size="14" lengthAdjust="spacing" text-decoration="underline" textLength="425" x="804.5" y="138.8857">BYSECOND_COMPARATOR: Comparator&lt;DoubleDoublePair&gt;</text><ellipse cx="795.5" cy="151.8359" fill="none" rx="3" ry="3" style="stroke:#038048;stroke-width:1.0;"/><text fill="#000000" font-family="sans-serif" font-size="14" lengthAdjust="spacing" text-decoration="underline" textLength="415" x="804.5" y="155.1826">SWAPPED_COMPARATOR: Comparator&lt;DoubleDoublePair&gt;</text><line style="stroke:#181818;stroke-width:0.5;" x1="785.5" x2="1234.5" y1="162.4844" y2="162.4844"/><ellipse cx="795.5" cy="176.1328" fill="#84BE84" rx="3" ry="3" style="stroke:#038048;stroke-width:1.0;"/><text fill="#000000" font-family="sans-serif" font-size="14" lengthAdjust="spacing" textLength="239" x="804.5" y="179.4795">DoubleDoublePair(double, double)</text><ellipse cx="795.5" cy="192.4297" fill="#84BE84" rx="3" ry="3" style="stroke:#038048;stroke-width:1.0;"/><text fill="#000000" font-family="sans-serif" font-size="14" lengthAdjust="spacing" textLength="260" x="804.5" y="195.7764">DoubleDoublePair(DoubleDoublePair)</text><ellipse cx="795.5" cy="208.7266" fill="#84BE84" rx="3" ry="3" style="stroke:#038048;stroke-width:1.0;"/><text fill="#000000" font-family="sans-serif" font-size="14" lengthAdjust="spacing" textLength="240" x="804.5" y="212.0732">compareTo(DoubleDoublePair): int</text><ellipse cx="795.5" cy="225.0234" fill="#84BE84" rx="3" ry="3" style="stroke:#038048;stroke-width:1.0;"/><text fill="#000000" font-family="sans-serif" font-size="14" lengthAdjust="spacing" textLength="304" x="804.5" y="228.3701">compareSwappedTo(DoubleDoublePair): int</text><ellipse cx="795.5" cy="241.3203" fill="#84BE84" rx="3" ry="3" style="stroke:#038048;stroke-width:1.0;"/><text fill="#000000" font-family="sans-serif" font-size="14" lengthAdjust="spacing" textLength="146" x="804.5" y="244.667">setFirst(double): void</text><ellipse cx="795.5" cy="257.6172" fill="#84BE84" rx="3" ry="3" style="stroke:#038048;stroke-width:1.0;"/><text fill="#000000" font-family="sans-serif" font-size="14" lengthAdjust="spacing" textLength="170" x="804.5" y="260.9639">setSecond(double): void</text></g></a><!--MD5=[cc303042a40e97331cfaeb9c33f59ef3]
class elki.utilities.pairs.IntIntPair--><a href="IntIntPair.html" target="_top" title="IntIntPair.html" xlink:actuate="onRequest" xlink:href="IntIntPair.html" xlink:show="new" xlink:title="IntIntPair.html" xlink:type="simple"><g id="elem_elki.utilities.pairs.IntIntPair"><rect codeLine="38" fill="#F1F1F1" height="210.9688" id="elki.utilities.pairs.IntIntPair" rx="2.5" ry="2.5" style="stroke:#181818;stroke-width:0.5;" width="385" x="22.5" y="328"/><ellipse cx="181.25" cy="344" fill="#ADD1B2" rx="11" ry="11" style="stroke:#181818;stroke-width:1.0;"/><path d="M184.2188,349.6406 Q183.6406,349.9375 183,350.0781 Q182.3594,350.2344 181.6563,350.2344 Q179.1563,350.2344 177.8281,348.5938 Q176.5156,346.9375 176.5156,343.8125 Q176.5156,340.6875 177.8281,339.0313 Q179.1563,337.375 181.6563,337.375 Q182.3594,337.375 183,337.5313 Q183.6563,337.6875 184.2188,337.9844 L184.2188,340.7031 Q183.5938,340.125 183,339.8594 Q182.4063,339.5781 181.7813,339.5781 Q180.4375,339.5781 179.75,340.6563 Q179.0625,341.7188 179.0625,343.8125 Q179.0625,345.9063 179.75,346.9844 Q180.4375,348.0469 181.7813,348.0469 Q182.4063,348.0469 183,347.7813 Q183.5938,347.5 184.2188,346.9219 L184.2188,349.6406 Z " fill="#000000"/><text fill="#000000" font-family="sans-serif" font-size="14" lengthAdjust="spacing" textLength="59" x="201.75" y="348.8467">IntIntPair</text><line style="stroke:#181818;stroke-width:0.5;" x1="23.5" x2="406.5" y1="360" y2="360"/><ellipse cx="33.5" cy="373.6484" fill="none" rx="3" ry="3" style="stroke:#038048;stroke-width:1.0;"/><text fill="#000000" font-family="sans-serif" font-size="14" lengthAdjust="spacing" textLength="51" x="42.5" y="376.9951">first: int</text><ellipse cx="33.5" cy="389.9453" fill="none" rx="3" ry="3" style="stroke:#038048;stroke-width:1.0;"/><text fill="#000000" font-family="sans-serif" font-size="14" lengthAdjust="spacing" textLength="78" x="42.5" y="393.292">second: int</text><ellipse cx="33.5" cy="406.2422" fill="none" rx="3" ry="3" style="stroke:#038048;stroke-width:1.0;"/><text fill="#000000" font-family="sans-serif" font-size="14" lengthAdjust="spacing" text-decoration="underline" textLength="338" x="42.5" y="409.5889">BYFIRST_COMPARATOR: Comparator&lt;IntIntPair&gt;</text><ellipse cx="33.5" cy="422.5391" fill="none" rx="3" ry="3" style="stroke:#038048;stroke-width:1.0;"/><text fill="#000000" font-family="sans-serif" font-size="14" lengthAdjust="spacing" text-decoration="underline" textLength="359" x="42.5" y="425.8857">BYSECOND_COMPARATOR: Comparator&lt;IntIntPair&gt;</text><ellipse cx="33.5" cy="438.8359" fill="none" rx="3" ry="3" style="stroke:#038048;stroke-width:1.0;"/><text fill="#000000" font-family="sans-serif" font-size="14" lengthAdjust="spacing" text-decoration="underline" textLength="349" x="42.5" y="442.1826">SWAPPED_COMPARATOR: Comparator&lt;IntIntPair&gt;</text><line style="stroke:#181818;stroke-width:0.5;" x1="23.5" x2="406.5" y1="449.4844" y2="449.4844"/><ellipse cx="33.5" cy="463.1328" fill="#84BE84" rx="3" ry="3" style="stroke:#038048;stroke-width:1.0;"/><text fill="#000000" font-family="sans-serif" font-size="14" lengthAdjust="spacing" textLength="111" x="42.5" y="466.4795">IntIntPair(int, int)</text><ellipse cx="33.5" cy="479.4297" fill="#84BE84" rx="3" ry="3" style="stroke:#038048;stroke-width:1.0;"/><text fill="#000000" font-family="sans-serif" font-size="14" lengthAdjust="spacing" textLength="174" x="42.5" y="482.7764">compareTo(IntIntPair): int</text><ellipse cx="33.5" cy="495.7266" fill="#84BE84" rx="3" ry="3" style="stroke:#038048;stroke-width:1.0;"/><text fill="#000000" font-family="sans-serif" font-size="14" lengthAdjust="spacing" textLength="238" x="42.5" y="499.0732">compareSwappedTo(IntIntPair): int</text><ellipse cx="33.5" cy="512.0234" fill="#84BE84" rx="3" ry="3" style="stroke:#038048;stroke-width:1.0;"/><text fill="#000000" font-family="sans-serif" font-size="14" lengthAdjust="spacing" textLength="115" x="42.5" y="515.3701">setFirst(int): void</text><ellipse cx="33.5" cy="528.3203" fill="#84BE84" rx="3" ry="3" style="stroke:#038048;stroke-width:1.0;"/><text fill="#000000" font-family="sans-serif" font-size="14" lengthAdjust="spacing" textLength="139" x="42.5" y="531.667">setSecond(int): void</text></g></a><!--MD5=[f617473f98e1371dc9bb9dd6492b796f]
class elki.utilities.pairs.Pair--><a href="Pair.html" target="_top" title="Pair.html" xlink:actuate="onRequest" xlink:href="Pair.html" xlink:show="new" xlink:title="Pair.html" xlink:type="simple"><g id="elem_elki.utilities.pairs.Pair"><rect codeLine="51" fill="#F1F1F1" height="162.0781" id="elki.utilities.pairs.Pair" rx="2.5" ry="2.5" style="stroke:#181818;stroke-width:0.5;" width="157" x="442.5" y="352.5"/><ellipse cx="490.75" cy="368.5" fill="#ADD1B2" rx="11" ry="11" style="stroke:#181818;stroke-width:1.0;"/><path d="M493.7188,374.1406 Q493.1406,374.4375 492.5,374.5781 Q491.8594,374.7344 491.1563,374.7344 Q488.6563,374.7344 487.3281,373.0938 Q486.0156,371.4375 486.0156,368.3125 Q486.0156,365.1875 487.3281,363.5313 Q488.6563,361.875 491.1563,361.875 Q491.8594,361.875 492.5,362.0313 Q493.1563,362.1875 493.7188,362.4844 L493.7188,365.2031 Q493.0938,364.625 492.5,364.3594 Q491.9063,364.0781 491.2813,364.0781 Q489.9375,364.0781 489.25,365.1563 Q488.5625,366.2188 488.5625,368.3125 Q488.5625,370.4063 489.25,371.4844 Q489.9375,372.5469 491.2813,372.5469 Q491.9063,372.5469 492.5,372.2813 Q493.0938,372 493.7188,371.4219 L493.7188,374.1406 Z " fill="#000000"/><text fill="#000000" font-family="sans-serif" font-size="14" lengthAdjust="spacing" textLength="25" x="511.25" y="373.3467">Pair</text><rect fill="#FFFFFF" height="15.9688" style="stroke:#181818;stroke-width:1.0;stroke-dasharray:2.0,2.0;" width="25" x="577.5" y="349.5"/><text fill="#000000" font-family="sans-serif" font-size="12" font-style="italic" lengthAdjust="spacing" textLength="23" x="578.5" y="361.6387">F, S</text><line style="stroke:#181818;stroke-width:0.5;" x1="443.5" x2="598.5" y1="384.5" y2="384.5"/><ellipse cx="453.5" cy="398.1484" fill="none" rx="3" ry="3" style="stroke:#038048;stroke-width:1.0;"/><text fill="#000000" font-family="sans-serif" font-size="14" lengthAdjust="spacing" textLength="42" x="462.5" y="401.4951">first: F</text><ellipse cx="453.5" cy="414.4453" fill="none" rx="3" ry="3" style="stroke:#038048;stroke-width:1.0;"/><text fill="#000000" font-family="sans-serif" font-size="14" lengthAdjust="spacing" textLength="70" x="462.5" y="417.792">second: S</text><line style="stroke:#181818;stroke-width:0.5;" x1="443.5" x2="598.5" y1="425.0938" y2="425.0938"/><ellipse cx="453.5" cy="438.7422" fill="#84BE84" rx="3" ry="3" style="stroke:#038048;stroke-width:1.0;"/><text fill="#000000" font-family="sans-serif" font-size="14" lengthAdjust="spacing" textLength="60" x="462.5" y="442.0889">Pair(F, S)</text><ellipse cx="453.5" cy="455.0391" fill="#84BE84" rx="3" ry="3" style="stroke:#038048;stroke-width:1.0;"/><text fill="#000000" font-family="sans-serif" font-size="14" lengthAdjust="spacing" textLength="79" x="462.5" y="458.3857">getFirst(): F</text><ellipse cx="453.5" cy="471.3359" fill="#84BE84" rx="3" ry="3" style="stroke:#038048;stroke-width:1.0;"/><text fill="#000000" font-family="sans-serif" font-size="14" lengthAdjust="spacing" textLength="106" x="462.5" y="474.6826">setFirst(F): void</text><ellipse cx="453.5" cy="487.6328" fill="#84BE84" rx="3" ry="3" style="stroke:#038048;stroke-width:1.0;"/><text fill="#000000" font-family="sans-serif" font-size="14" lengthAdjust="spacing" textLength="104" x="462.5" y="490.9795">getSecond(): S</text><ellipse cx="453.5" cy="503.9297" fill="#84BE84" rx="3" ry="3" style="stroke:#038048;stroke-width:1.0;"/><text fill="#000000" font-family="sans-serif" font-size="14" lengthAdjust="spacing" textLength="131" x="462.5" y="507.2764">setSecond(S): void</text></g></a><!--MD5=[514ff4e12005a4c2b9e03396d11536f1]
class elki.utilities.pairs.IntDoublePair--><a href="IntDoublePair.html" target="_top" title="IntDoublePair.html" xlink:actuate="onRequest" xlink:href="IntDoublePair.html" xlink:show="new" xlink:title="IntDoublePair.html" xlink:type="simple"><g id="elem_elki.utilities.pairs.IntDoublePair"><rect codeLine="61" fill="#F1F1F1" height="210.9688" id="elki.utilities.pairs.IntDoublePair" rx="2.5" ry="2.5" style="stroke:#181818;stroke-width:0.5;" width="418" x="635" y="328"/><ellipse cx="793.75" cy="344" fill="#ADD1B2" rx="11" ry="11" style="stroke:#181818;stroke-width:1.0;"/><path d="M796.7188,349.6406 Q796.1406,349.9375 795.5,350.0781 Q794.8594,350.2344 794.1563,350.2344 Q791.6563,350.2344 790.3281,348.5938 Q789.0156,346.9375 789.0156,343.8125 Q789.0156,340.6875 790.3281,339.0313 Q791.6563,337.375 794.1563,337.375 Q794.8594,337.375 795.5,337.5313 Q796.1563,337.6875 796.7188,337.9844 L796.7188,340.7031 Q796.0938,340.125 795.5,339.8594 Q794.9063,339.5781 794.2813,339.5781 Q792.9375,339.5781 792.25,340.6563 Q791.5625,341.7188 791.5625,343.8125 Q791.5625,345.9063 792.25,346.9844 Q792.9375,348.0469 794.2813,348.0469 Q794.9063,348.0469 795.5,347.7813 Q796.0938,347.5 796.7188,346.9219 L796.7188,349.6406 Z " fill="#000000"/><text fill="#000000" font-family="sans-serif" font-size="14" lengthAdjust="spacing" textLength="92" x="814.25" y="348.8467">IntDoublePair</text><line style="stroke:#181818;stroke-width:0.5;" x1="636" x2="1052" y1="360" y2="360"/><ellipse cx="646" cy="373.6484" fill="none" rx="3" ry="3" style="stroke:#038048;stroke-width:1.0;"/><text fill="#000000" font-family="sans-serif" font-size="14" lengthAdjust="spacing" textLength="51" x="655" y="376.9951">first: int</text><ellipse cx="646" cy="389.9453" fill="none" rx="3" ry="3" style="stroke:#038048;stroke-width:1.0;"/><text fill="#000000" font-family="sans-serif" font-size="14" lengthAdjust="spacing" textLength="109" x="655" y="393.292">second: double</text><ellipse cx="646" cy="406.2422" fill="none" rx="3" ry="3" style="stroke:#038048;stroke-width:1.0;"/><text fill="#000000" font-family="sans-serif" font-size="14" lengthAdjust="spacing" text-decoration="underline" textLength="371" x="655" y="409.5889">BYFIRST_COMPARATOR: Comparator&lt;IntDoublePair&gt;</text><ellipse cx="646" cy="422.5391" fill="none" rx="3" ry="3" style="stroke:#038048;stroke-width:1.0;"/><text fill="#000000" font-family="sans-serif" font-size="14" lengthAdjust="spacing" text-decoration="underline" textLength="392" x="655" y="425.8857">BYSECOND_COMPARATOR: Comparator&lt;IntDoublePair&gt;</text><ellipse cx="646" cy="438.8359" fill="none" rx="3" ry="3" style="stroke:#038048;stroke-width:1.0;"/><text fill="#000000" font-family="sans-serif" font-size="14" lengthAdjust="spacing" text-decoration="underline" textLength="382" x="655" y="442.1826">SWAPPED_COMPARATOR: Comparator&lt;IntDoublePair&gt;</text><line style="stroke:#181818;stroke-width:0.5;" x1="636" x2="1052" y1="449.4844" y2="449.4844"/><ellipse cx="646" cy="463.1328" fill="#84BE84" rx="3" ry="3" style="stroke:#038048;stroke-width:1.0;"/><text fill="#000000" font-family="sans-serif" font-size="14" lengthAdjust="spacing" textLength="175" x="655" y="466.4795">IntDoublePair(int, double)</text><ellipse cx="646" cy="479.4297" fill="#84BE84" rx="3" ry="3" style="stroke:#038048;stroke-width:1.0;"/><text fill="#000000" font-family="sans-serif" font-size="14" lengthAdjust="spacing" textLength="207" x="655" y="482.7764">compareTo(IntDoublePair): int</text><ellipse cx="646" cy="495.7266" fill="#84BE84" rx="3" ry="3" style="stroke:#038048;stroke-width:1.0;"/><text fill="#000000" font-family="sans-serif" font-size="14" lengthAdjust="spacing" textLength="271" x="655" y="499.0732">compareSwappedTo(IntDoublePair): int</text><ellipse cx="646" cy="512.0234" fill="#84BE84" rx="3" ry="3" style="stroke:#038048;stroke-width:1.0;"/><text fill="#000000" font-family="sans-serif" font-size="14" lengthAdjust="spacing" textLength="115" x="655" y="515.3701">setFirst(int): void</text><ellipse cx="646" cy="528.3203" fill="#84BE84" rx="3" ry="3" style="stroke:#038048;stroke-width:1.0;"/><text fill="#000000" font-family="sans-serif" font-size="14" lengthAdjust="spacing" textLength="170" x="655" y="531.667">setSecond(double): void</text></g></a><rect fill="none" height="11.6406" style="stroke:none;stroke-width:1.0;" width="186" x="529" y="561"/><text fill="#888888" font-family="sans-serif" font-size="10" lengthAdjust="spacing" textLength="186" x="529" y="570.2822">UMLDoclet 2.0.19, PlantUML 1.2022.8</text><!--MD5=[abf4307b28d6b3db69e2d9c3c37c26a7]
@startuml
    remove .*\.(Instance|Par|Parameterizer|Factory)$
    namespace elki.utilities.pairs {

        class DoubleObjPair<O> [[DoubleObjPair.html]] {
            +first: double
            +second: O
            +DoubleObjPair(double, O)
            +compareTo(DoubleObjPair<O>): int
        }

        class DoubleIntPair [[DoubleIntPair.html]] {
            +first: double
            +second: int
            {static} +BYFIRST_COMPARATOR: Comparator<DoubleIntPair>
            {static} +BYSECOND_COMPARATOR: Comparator<DoubleIntPair>
            {static} +SWAPPED_COMPARATOR: Comparator<DoubleIntPair>
            +DoubleIntPair(double, int)
            +compareTo(DoubleIntPair): int
            +compareSwappedTo(DoubleIntPair): int
            +setFirst(double): void
            +setSecond(int): void
        }

        class DoubleDoublePair [[DoubleDoublePair.html]] {
            +first: double
            +second: double
            {static} +BYFIRST_COMPARATOR: Comparator<DoubleDoublePair>
            {static} +BYSECOND_COMPARATOR: Comparator<DoubleDoublePair>
            {static} +SWAPPED_COMPARATOR: Comparator<DoubleDoublePair>
            +DoubleDoublePair(double, double)
            +DoubleDoublePair(DoubleDoublePair)
            +compareTo(DoubleDoublePair): int
            +compareSwappedTo(DoubleDoublePair): int
            +setFirst(double): void
            +setSecond(double): void
        }

        class IntIntPair [[IntIntPair.html]] {
            +first: int
            +second: int
            {static} +BYFIRST_COMPARATOR: Comparator<IntIntPair>
            {static} +BYSECOND_COMPARATOR: Comparator<IntIntPair>
            {static} +SWAPPED_COMPARATOR: Comparator<IntIntPair>
            +IntIntPair(int, int)
            +compareTo(IntIntPair): int
            +compareSwappedTo(IntIntPair): int
            +setFirst(int): void
            +setSecond(int): void
        }

        class Pair<F, S> [[Pair.html]] {
            +first: F
            +second: S
            +Pair(F, S)
            +getFirst(): F
            +setFirst(F): void
            +getSecond(): S
            +setSecond(S): void
        }

        class IntDoublePair [[IntDoublePair.html]] {
            +first: int
            +second: double
            {static} +BYFIRST_COMPARATOR: Comparator<IntDoublePair>
            {static} +BYSECOND_COMPARATOR: Comparator<IntDoublePair>
            {static} +SWAPPED_COMPARATOR: Comparator<IntDoublePair>
            +IntDoublePair(int, double)
            +compareTo(IntDoublePair): int
            +compareSwappedTo(IntDoublePair): int
            +setFirst(int): void
            +setSecond(double): void
        }

    }

    center footer UMLDoclet 2.0.19, PlantUML 1.2022.8
@enduml

PlantUML version 1.2022.8(Sun Sep 25 11:00:33 CEST 2022)
(APACHE source distribution)
Java Runtime: OpenJDK Runtime Environment
JVM: OpenJDK 64-Bit Server VM
Default Encoding: UTF-8
Language: de
Country: DE
--></g></svg>