<?xml version="1.0" encoding="UTF-8" standalone="no"?><svg xmlns="http://www.w3.org/2000/svg" xmlns:xlink="http://www.w3.org/1999/xlink" contentStyleType="text/css" height="201px" preserveAspectRatio="none" style="width:194px;height:201px;background:#FFFFFF;" version="1.1" viewBox="0 0 194 201" width="194px" zoomAndPan="magnify"><defs/><g><!--MD5=[f617473f98e1371dc9bb9dd6492b796f]
class elki.utilities.pairs.Pair--><a href="Pair.html" target="_top" title="Pair.html" xlink:actuate="onRequest" xlink:href="Pair.html" xlink:show="new" xlink:title="Pair.html" xlink:type="simple"><g id="elem_elki.utilities.pairs.Pair"><rect codeLine="6" fill="#F1F1F1" height="168.0156" id="elki.utilities.pairs.Pair" rx="2.5" ry="2.5" style="stroke:#181818;stroke-width:0.5;" width="157" x="15" y="7"/><ellipse cx="39.45" cy="25.9688" fill="#ADD1B2" rx="11" ry="11" style="stroke:#181818;stroke-width:1.0;"/><path d="M42.4188,31.6094 Q41.8406,31.9063 41.2,32.0469 Q40.5594,32.2031 39.8563,32.2031 Q37.3563,32.2031 36.0281,30.5625 Q34.7156,28.9063 34.7156,25.7813 Q34.7156,22.6563 36.0281,21 Q37.3563,19.3438 39.8563,19.3438 Q40.5594,19.3438 41.2,19.5 Q41.8563,19.6563 42.4188,19.9531 L42.4188,22.6719 Q41.7938,22.0938 41.2,21.8281 Q40.6063,21.5469 39.9813,21.5469 Q38.6375,21.5469 37.95,22.625 Q37.2625,23.6875 37.2625,25.7813 Q37.2625,27.875 37.95,28.9531 Q38.6375,30.0156 39.9813,30.0156 Q40.6063,30.0156 41.2,29.75 Q41.7938,29.4688 42.4188,28.8906 L42.4188,31.6094 Z " fill="#000000"/><text fill="#000000" font-family="sans-serif" font-size="14" lengthAdjust="spacing" textLength="25" x="81.55" y="24.9951">Pair</text><text fill="#000000" font-family="sans-serif" font-size="10" lengthAdjust="spacing" textLength="77" x="55.55" y="37.5791">elki.utilities.pairs</text><rect fill="#FFFFFF" height="15.9688" style="stroke:#181818;stroke-width:1.0;stroke-dasharray:2.0,2.0;" width="25" x="150" y="4"/><text fill="#000000" font-family="sans-serif" font-size="12" font-style="italic" lengthAdjust="spacing" textLength="23" x="151" y="16.1387">F, S</text><line style="stroke:#181818;stroke-width:0.5;" x1="16" x2="171" y1="44.9375" y2="44.9375"/><ellipse cx="26" cy="58.5859" fill="none" rx="3" ry="3" style="stroke:#038048;stroke-width:1.0;"/><text fill="#000000" font-family="sans-serif" font-size="14" lengthAdjust="spacing" textLength="42" x="35" y="61.9326">first: F</text><ellipse cx="26" cy="74.8828" fill="none" rx="3" ry="3" style="stroke:#038048;stroke-width:1.0;"/><text fill="#000000" font-family="sans-serif" font-size="14" lengthAdjust="spacing" textLength="70" x="35" y="78.2295">second: S</text><line style="stroke:#181818;stroke-width:0.5;" x1="16" x2="171" y1="85.5313" y2="85.5313"/><ellipse cx="26" cy="99.1797" fill="#84BE84" rx="3" ry="3" style="stroke:#038048;stroke-width:1.0;"/><text fill="#000000" font-family="sans-serif" font-size="14" lengthAdjust="spacing" textLength="60" x="35" y="102.5264">Pair(F, S)</text><ellipse cx="26" cy="115.4766" fill="#84BE84" rx="3" ry="3" style="stroke:#038048;stroke-width:1.0;"/><text fill="#000000" font-family="sans-serif" font-size="14" lengthAdjust="spacing" textLength="79" x="35" y="118.8232">getFirst(): F</text><ellipse cx="26" cy="131.7734" fill="#84BE84" rx="3" ry="3" style="stroke:#038048;stroke-width:1.0;"/><text fill="#000000" font-family="sans-serif" font-size="14" lengthAdjust="spacing" textLength="106" x="35" y="135.1201">setFirst(F): void</text><ellipse cx="26" cy="148.0703" fill="#84BE84" rx="3" ry="3" style="stroke:#038048;stroke-width:1.0;"/><text fill="#000000" font-family="sans-serif" font-size="14" lengthAdjust="spacing" textLength="104" x="35" y="151.417">getSecond(): S</text><ellipse cx="26" cy="164.3672" fill="#84BE84" rx="3" ry="3" style="stroke:#038048;stroke-width:1.0;"/><text fill="#000000" font-family="sans-serif" font-size="14" lengthAdjust="spacing" textLength="131" x="35" y="167.7139">setSecond(S): void</text></g></a><rect fill="none" height="11.6406" style="stroke:none;stroke-width:1.0;" width="186" x="0" y="182.0156"/><text fill="#888888" font-family="sans-serif" font-size="10" lengthAdjust="spacing" textLength="186" x="0" y="191.2979">UMLDoclet 2.0.19, PlantUML 1.2022.8</text><!--MD5=[cc5c42e04ff9f1eaa491007d25b38a45]
@startuml
    remove .*\.(Instance|Par|Parameterizer|Factory)$
    set namespaceSeparator none
    hide empty fields
    hide empty methods

    class "<size:14>Pair\n<size:10>elki.utilities.pairs" as elki.utilities.pairs.Pair<F, S> [[Pair.html]] {
        +first: F
        +second: S
        +Pair(F, S)
        +getFirst(): F
        +setFirst(F): void
        +getSecond(): S
        +setSecond(S): void
    }

    center footer UMLDoclet 2.0.19, PlantUML 1.2022.8
@enduml

PlantUML version 1.2022.8(Sun Sep 25 11:00:33 CEST 2022)
(APACHE source distribution)
Java Runtime: OpenJDK Runtime Environment
JVM: OpenJDK 64-Bit Server VM
Default Encoding: UTF-8
Language: de
Country: DE
--></g></svg>