<?xml version="1.0" encoding="UTF-8" standalone="no"?><svg xmlns="http://www.w3.org/2000/svg" xmlns:xlink="http://www.w3.org/1999/xlink" contentStyleType="text/css" height="355px" preserveAspectRatio="none" style="width:702px;height:355px;background:#FFFFFF;" version="1.1" viewBox="0 0 702 355" width="702px" zoomAndPan="magnify"><defs/><g><!--MD5=[3391e792309ce001e2d4147d6a570362]
class elki.datasource.InputStreamDatabaseConnection--><a href="InputStreamDatabaseConnection.html" target="_top" title="InputStreamDatabaseConnection.html" xlink:actuate="onRequest" xlink:href="InputStreamDatabaseConnection.html" xlink:show="new" xlink:title="InputStreamDatabaseConnection.html" xlink:type="simple"><g id="elem_elki.datasource.InputStreamDatabaseConnection"><rect codeLine="6" fill="#F1F1F1" height="200.6094" id="elki.datasource.InputStreamDatabaseConnection" rx="2.5" ry="2.5" style="stroke:#181818;stroke-width:0.5;" width="686" x="9" y="129"/><ellipse cx="232.75" cy="147.9688" fill="#ADD1B2" rx="11" ry="11" style="stroke:#181818;stroke-width:1.0;"/><path d="M235.7188,153.6094 Q235.1406,153.9063 234.5,154.0469 Q233.8594,154.2031 233.1563,154.2031 Q230.6563,154.2031 229.3281,152.5625 Q228.0156,150.9063 228.0156,147.7813 Q228.0156,144.6563 229.3281,143 Q230.6563,141.3438 233.1563,141.3438 Q233.8594,141.3438 234.5,141.5 Q235.1563,141.6563 235.7188,141.9531 L235.7188,144.6719 Q235.0938,144.0938 234.5,143.8281 Q233.9063,143.5469 233.2813,143.5469 Q231.9375,143.5469 231.25,144.625 Q230.5625,145.6875 230.5625,147.7813 Q230.5625,149.875 231.25,150.9531 Q231.9375,152.0156 233.2813,152.0156 Q233.9063,152.0156 234.5,151.75 Q235.0938,151.4688 235.7188,150.8906 L235.7188,153.6094 Z " fill="#000000"/><text fill="#000000" font-family="sans-serif" font-size="14" lengthAdjust="spacing" textLength="230" x="253.25" y="146.9951">InputStreamDatabaseConnection</text><text fill="#000000" font-family="sans-serif" font-size="10" lengthAdjust="spacing" textLength="72" x="332.25" y="159.5791">elki.datasource</text><line style="stroke:#181818;stroke-width:0.5;" x1="10" x2="694" y1="166.9375" y2="166.9375"/><rect fill="none" height="6" style="stroke:#C82930;stroke-width:1.0;" width="6" x="17" y="177.5859"/><text fill="#000000" font-family="sans-serif" font-size="14" lengthAdjust="spacing" text-decoration="underline" textLength="93" x="29" y="183.9326">LOG: Logging</text><polygon fill="none" points="20,192.8828,16,198.8828,24,198.8828" style="stroke:#1963A0;stroke-width:1.0;"/><text fill="#000000" font-family="sans-serif" font-size="14" lengthAdjust="spacing" textLength="97" x="29" y="200.2295">parser: Parser</text><polygon fill="none" points="20,209.1797,16,215.1797,24,215.1797" style="stroke:#1963A0;stroke-width:1.0;"/><text fill="#000000" font-family="sans-serif" font-size="14" lengthAdjust="spacing" textLength="185" x="29" y="216.5264">in: Supplier&lt;InputStream&gt;</text><polygon fill="none" points="20,225.4766,16,231.4766,24,231.4766" style="stroke:#1963A0;stroke-width:1.0;"/><text fill="#000000" font-family="sans-serif" font-size="14" lengthAdjust="spacing" textLength="113" x="29" y="232.8232">ins: InputStream</text><line style="stroke:#181818;stroke-width:0.5;" x1="10" x2="694" y1="240.125" y2="240.125"/><ellipse cx="20" cy="253.7734" fill="#84BE84" rx="3" ry="3" style="stroke:#038048;stroke-width:1.0;"/><text fill="#000000" font-family="sans-serif" font-size="14" lengthAdjust="spacing" textLength="660" x="29" y="257.1201">InputStreamDatabaseConnection(Supplier&lt;InputStream&gt;, List&lt;? extends ObjectFilter&gt;, Parser)</text><ellipse cx="20" cy="270.0703" fill="#84BE84" rx="3" ry="3" style="stroke:#038048;stroke-width:1.0;"/><text fill="#000000" font-family="sans-serif" font-size="14" lengthAdjust="spacing" textLength="580" x="29" y="273.417">InputStreamDatabaseConnection(InputStream, List&lt;? extends ObjectFilter&gt;, Parser)</text><ellipse cx="20" cy="286.3672" fill="#84BE84" rx="3" ry="3" style="stroke:#038048;stroke-width:1.0;"/><text fill="#000000" font-family="sans-serif" font-size="14" lengthAdjust="spacing" textLength="235" x="29" y="289.7139">loadData(): MultipleObjectsBundle</text><ellipse cx="20" cy="302.6641" fill="#84BE84" rx="3" ry="3" style="stroke:#038048;stroke-width:1.0;"/><text fill="#000000" font-family="sans-serif" font-size="14" lengthAdjust="spacing" textLength="84" x="29" y="306.0107">close(): void</text><polygon fill="#FFFF44" points="20,313.9609,24,317.9609,20,321.9609,16,317.9609" style="stroke:#B38D22;stroke-width:1.0;"/><text fill="#000000" font-family="sans-serif" font-size="14" lengthAdjust="spacing" textLength="145" x="29" y="322.3076">getLogger(): Logging</text></g></a><!--MD5=[f3c3cd2b6a8bb5dce217b3c654570892]
class elki.datasource.AbstractDatabaseConnection--><a href="AbstractDatabaseConnection.html" target="_top" title="AbstractDatabaseConnection.html" xlink:actuate="onRequest" xlink:href="AbstractDatabaseConnection.html" xlink:show="new" xlink:title="AbstractDatabaseConnection.html" xlink:type="simple"><g id="elem_elki.datasource.AbstractDatabaseConnection"><rect codeLine="18" fill="#F1F1F1" height="62.2344" id="elki.datasource.AbstractDatabaseConnection" rx="2.5" ry="2.5" style="stroke:#181818;stroke-width:0.5;" width="239" x="121.5" y="7"/><ellipse cx="136.5" cy="25.9688" fill="#A9DCDF" rx="11" ry="11" style="stroke:#181818;stroke-width:1.0;"/><path d="M136.6094,21.3125 L135.4531,26.3906 L137.7813,26.3906 L136.6094,21.3125 Z M135.125,19.0781 L138.1094,19.0781 L141.4688,31.4688 L139.0156,31.4688 L138.25,28.4063 L134.9688,28.4063 L134.2188,31.4688 L131.7813,31.4688 L135.125,19.0781 Z " fill="#000000"/><text fill="#000000" font-family="sans-serif" font-size="14" font-style="italic" lengthAdjust="spacing" textLength="207" x="150.5" y="24.9951">AbstractDatabaseConnection</text><text fill="#000000" font-family="sans-serif" font-size="10" font-style="italic" lengthAdjust="spacing" textLength="76" x="216" y="37.5791">elki.datasource</text><line style="stroke:#181818;stroke-width:0.5;" x1="122.5" x2="359.5" y1="44.9375" y2="44.9375"/><polygon fill="#FFFF44" points="132.5,53.5859,136.5,57.5859,132.5,61.5859,128.5,57.5859" style="stroke:#B38D22;stroke-width:1.0;"/><text fill="#000000" font-family="sans-serif" font-size="14" font-style="italic" lengthAdjust="spacing" textLength="148" x="141.5" y="61.9326">getLogger(): Logging</text></g></a><!--MD5=[d9a338895fcb7cd0ffc5af645c326d7f]
class java.lang.AutoCloseable--><g id="elem_java.lang.AutoCloseable"><rect codeLine="21" fill="#F1F1F1" height="62.2344" id="java.lang.AutoCloseable" rx="2.5" ry="2.5" style="stroke:#181818;stroke-width:0.5;" width="135" x="395.5" y="7"/><ellipse cx="410.5" cy="25.9688" fill="#B4A7E5" rx="11" ry="11" style="stroke:#181818;stroke-width:1.0;"/><path d="M406.4219,21.7344 L406.4219,19.5781 L413.8125,19.5781 L413.8125,21.7344 L411.3438,21.7344 L411.3438,29.8125 L413.8125,29.8125 L413.8125,31.9688 L406.4219,31.9688 L406.4219,29.8125 L408.8906,29.8125 L408.8906,21.7344 L406.4219,21.7344 Z " fill="#000000"/><text fill="#000000" font-family="sans-serif" font-size="14" font-style="italic" lengthAdjust="spacing" textLength="103" x="424.5" y="24.9951">AutoCloseable</text><text fill="#000000" font-family="sans-serif" font-size="10" font-style="italic" lengthAdjust="spacing" textLength="45" x="453.5" y="37.5791">java.lang</text><line style="stroke:#181818;stroke-width:0.5;" x1="396.5" x2="529.5" y1="44.9375" y2="44.9375"/><ellipse cx="406.5" cy="58.5859" fill="#84BE84" rx="3" ry="3" style="stroke:#038048;stroke-width:1.0;"/><text fill="#000000" font-family="sans-serif" font-size="14" font-style="italic" lengthAdjust="spacing" textLength="86" x="415.5" y="61.9326">close(): void</text></g><!--MD5=[e47e0f547d218140a8e40744a42ebfcd]
reverse link elki.datasource.AbstractDatabaseConnection to elki.datasource.InputStreamDatabaseConnection--><g id="link_elki.datasource.AbstractDatabaseConnection_elki.datasource.InputStreamDatabaseConnection"><path codeLine="26" d="M268.95,86.71 C276.53,99.66 285.04,114.18 293.64,128.86 " fill="none" id="elki.datasource.AbstractDatabaseConnection-backto-elki.datasource.InputStreamDatabaseConnection" style="stroke:#181818;stroke-width:1.0;"/><polygon fill="none" points="262.66,89.82,258.59,69.03,274.74,82.75,262.66,89.82" style="stroke:#181818;stroke-width:1.0;"/></g><!--MD5=[3abb4cf9956feace5872b326d4b80d40]
reverse link java.lang.AutoCloseable to elki.datasource.InputStreamDatabaseConnection--><g id="link_java.lang.AutoCloseable_elki.datasource.InputStreamDatabaseConnection"><path codeLine="27" d="M435.05,86.71 C427.47,99.66 418.96,114.18 410.36,128.86 " fill="none" id="java.lang.AutoCloseable-backto-elki.datasource.InputStreamDatabaseConnection" style="stroke:#181818;stroke-width:1.0;stroke-dasharray:7.0,7.0;"/><polygon fill="none" points="429.26,82.75,445.41,69.03,441.34,89.82,429.26,82.75" style="stroke:#181818;stroke-width:1.0;"/></g><rect fill="none" height="11.6406" style="stroke:none;stroke-width:1.0;" width="186" x="251" y="335.6094"/><text fill="#888888" font-family="sans-serif" font-size="10" lengthAdjust="spacing" textLength="186" x="251" y="344.8916">UMLDoclet 2.0.19, PlantUML 1.2022.8</text><!--MD5=[3bd4201d5f4c431ebece1a7effc67cd1]
@startuml
    remove .*\.(Instance|Par|Parameterizer|Factory)$
    set namespaceSeparator none
    hide empty fields
    hide empty methods

    class "<size:14>InputStreamDatabaseConnection\n<size:10>elki.datasource" as elki.datasource.InputStreamDatabaseConnection [[InputStreamDatabaseConnection.html]] {
        {static} -LOG: Logging
        ~parser: Parser
        ~in: Supplier<InputStream>
        ~ins: InputStream
        +InputStreamDatabaseConnection(Supplier<InputStream>, List<? extends ObjectFilter>, Parser)
        +InputStreamDatabaseConnection(InputStream, List<? extends ObjectFilter>, Parser)
        +loadData(): MultipleObjectsBundle
        +close(): void
        #getLogger(): Logging
    }

    abstract class "<size:14>AbstractDatabaseConnection\n<size:10>elki.datasource" as elki.datasource.AbstractDatabaseConnection [[AbstractDatabaseConnection.html]] {
        {abstract} #getLogger(): Logging
    }
    interface "<size:14>AutoCloseable\n<size:10>java.lang" as java.lang.AutoCloseable {
        {abstract} +close(): void
    }
    class "<size:14>InputStreamDatabaseConnection.Par\n<size:10>elki.datasource" as elki.datasource.InputStreamDatabaseConnection.Par [[InputStreamDatabaseConnection.Par.html]]

    elki.datasource.AbstractDatabaseConnection <|- - elki.datasource.InputStreamDatabaseConnection
    java.lang.AutoCloseable <|.. elki.datasource.InputStreamDatabaseConnection
    elki.datasource.InputStreamDatabaseConnection +- - elki.datasource.InputStreamDatabaseConnection.Par

    center footer UMLDoclet 2.0.19, PlantUML 1.2022.8
@enduml

PlantUML version 1.2022.8(Sun Sep 25 11:00:33 CEST 2022)
(APACHE source distribution)
Java Runtime: OpenJDK Runtime Environment
JVM: OpenJDK 64-Bit Server VM
Default Encoding: UTF-8
Language: de
Country: DE
--></g></svg>