<?xml version="1.0" encoding="UTF-8" standalone="no"?>
<!DOCTYPE svg PUBLIC "-//W3C//DTD SVG 1.1//EN"
 "http://www.w3.org/Graphics/SVG/1.1/DTD/svg11.dtd">
<!-- Generated by graphviz version 2.40.1 (20161225.0304)
 -->
<!-- Title: G Pages: 1 -->
<svg width="620pt" height="509pt"
 viewBox="0.00 0.00 620.00 509.43" xmlns="http://www.w3.org/2000/svg" xmlns:xlink="http://www.w3.org/1999/xlink">
<g id="graph0" class="graph" transform="scale(1 1) rotate(0) translate(4 505.4287)">
<title>G</title>
<polygon fill="#ffffff" stroke="transparent" points="-4,4 -4,-505.4287 616,-505.4287 616,4 -4,4"/>
<!-- c10946987 -->
<g id="node1" class="node">
<title>c10946987</title>
<g id="a_node1"><a xlink:href="../../algorithm/clustering/subspace/DiSH.DiSHClusterOrder.html" xlink:title="&lt;TABLE&gt;">
<g id="a_node1_0"><a xlink:href="../../algorithm/clustering/subspace/DiSH.DiSHClusterOrder.html" xlink:title="de.lmu.ifi.dbs.elki.algorithm.clustering.subspace.DiSH.DiSHClusterOrder" target="_parent">
<polygon fill="none" stroke="#000000" points="115.5,-137.4287 115.5,-165.4287 288.5,-165.4287 288.5,-137.4287 115.5,-137.4287"/>
<text text-anchor="start" x="156.5" y="-156.0287" font-family="Roboto" font-size="8.00" fill="#000000"> </text>
<text text-anchor="start" x="159.5" y="-156.0287" font-family="Roboto" font-size="8.00" fill="#000000">DiSH.DiSHClusterOrder</text>
<text text-anchor="start" x="244.5" y="-156.0287" font-family="Roboto" font-size="8.00" fill="#000000"> </text>
<text text-anchor="start" x="119.5" y="-145.0287" font-family="Roboto" font-size="8.00" fill="#000000"> </text>
<text text-anchor="start" x="122.5" y="-145.0287" font-family="Roboto" font-size="7.00" fill="#000000">de.lmu.ifi.dbs.elki.algorithm.clustering.subspace</text>
<text text-anchor="start" x="281.5" y="-145.0287" font-family="Roboto" font-size="8.00" fill="#000000"> </text>
</a>
</g>
</a>
</g>
</g>
<!-- c10948139 -->
<g id="node5" class="node">
<title>c10948139</title>
<g id="a_node5"><a xlink:href="WritableDataStore.html" xlink:title="&lt;TABLE&gt;">
<g id="a_node5_1"><a xlink:href="WritableDataStore.html" xlink:title="de.lmu.ifi.dbs.elki.database.datastore.WritableDataStore" target="_parent">
<polygon fill="#fffacd" stroke="transparent" points="340,-176.4287 340,-204.4287 418,-204.4287 418,-176.4287 340,-176.4287"/>
<polygon fill="none" stroke="#000000" points="340,-176.4287 340,-204.4287 418,-204.4287 418,-176.4287 340,-176.4287"/>
<text text-anchor="start" x="357.5" y="-194.0287" font-family="Roboto" font-size="8.00" fill="#000000"> «interface» </text>
<text text-anchor="start" x="344" y="-184.0287" font-family="Roboto" font-size="8.00" fill="#000000"> </text>
<text text-anchor="start" x="347" y="-184.0287" font-family="Roboto" font-size="8.00" fill="#000000">WritableDataStore</text>
<text text-anchor="start" x="411" y="-184.0287" font-family="Roboto" font-size="8.00" fill="#000000"> </text>
</a>
</g>
</a>
</g>
</g>
<!-- c10946987&#45;&gt;c10948139 -->
<g id="edge19" class="edge">
<title>c10946987&#45;&gt;c10948139</title>
<path fill="none" stroke="#000000" d="M265.3308,-165.4535C286.672,-170.1425 310.1052,-175.2912 330.1221,-179.6893"/>
<polygon fill="#000000" stroke="#000000" points="339.9486,-181.8484 329.2159,-184.0974 335.0651,-180.7753 330.1816,-179.7023 330.1816,-179.7023 330.1816,-179.7023 335.0651,-180.7753 331.1473,-175.3071 339.9486,-181.8484 339.9486,-181.8484"/>
</g>
<!-- c10948127 -->
<g id="node2" class="node">
<title>c10948127</title>
<g id="a_node2"><a xlink:href="WritableIntegerDataStore.html" xlink:title="&lt;TABLE&gt;">
<g id="a_node2_2"><a xlink:href="WritableIntegerDataStore.html" xlink:title="de.lmu.ifi.dbs.elki.database.datastore.WritableIntegerDataStore" target="_parent">
<polygon fill="none" stroke="#000000" points="473.5,-335.4287 473.5,-363.4287 575.5,-363.4287 575.5,-335.4287 473.5,-335.4287"/>
<text text-anchor="start" x="503" y="-353.0287" font-family="Roboto" font-size="8.00" fill="#000000"> «interface» </text>
<text text-anchor="start" x="477.5" y="-343.0287" font-family="Roboto" font-size="8.00" fill="#000000"> </text>
<text text-anchor="start" x="480.5" y="-343.0287" font-family="Roboto" font-size="8.00" fill="#000000">WritableIntegerDataStore</text>
<text text-anchor="start" x="568.5" y="-343.0287" font-family="Roboto" font-size="8.00" fill="#000000"> </text>
</a>
</g>
</a>
</g>
</g>
<!-- c10948128 -->
<g id="node3" class="node">
<title>c10948128</title>
<g id="a_node3"><a xlink:href="WritableDBIDDataStore.html" xlink:title="&lt;TABLE&gt;">
<g id="a_node3_3"><a xlink:href="WritableDBIDDataStore.html" xlink:title="de.lmu.ifi.dbs.elki.database.datastore.WritableDBIDDataStore" target="_parent">
<polygon fill="none" stroke="#000000" points="475.5,-296.4287 475.5,-324.4287 573.5,-324.4287 573.5,-296.4287 475.5,-296.4287"/>
<text text-anchor="start" x="503" y="-314.0287" font-family="Roboto" font-size="8.00" fill="#000000"> «interface» </text>
<text text-anchor="start" x="479.5" y="-304.0287" font-family="Roboto" font-size="8.00" fill="#000000"> </text>
<text text-anchor="start" x="482.5" y="-304.0287" font-family="Roboto" font-size="8.00" fill="#000000">WritableDBIDDataStore</text>
<text text-anchor="start" x="566.5" y="-304.0287" font-family="Roboto" font-size="8.00" fill="#000000"> </text>
</a>
</g>
</a>
</g>
</g>
<!-- c10948138 -->
<g id="node4" class="node">
<title>c10948138</title>
<g id="a_node4"><a xlink:href="WritableRecordStore.html" xlink:title="&lt;TABLE&gt;">
<g id="a_node4_4"><a xlink:href="WritableRecordStore.html" xlink:title="de.lmu.ifi.dbs.elki.database.datastore.WritableRecordStore" target="_parent">
<polygon fill="#fffacd" stroke="transparent" points="159,-98.4287 159,-126.4287 244,-126.4287 244,-98.4287 159,-98.4287"/>
<polygon fill="none" stroke="#000000" points="159.5,-98.4287 159.5,-126.4287 244.5,-126.4287 244.5,-98.4287 159.5,-98.4287"/>
<text text-anchor="start" x="180.5" y="-116.0287" font-family="Roboto" font-size="8.00" fill="#000000"> «interface» </text>
<text text-anchor="start" x="163.5" y="-106.0287" font-family="Roboto" font-size="8.00" fill="#000000"> </text>
<text text-anchor="start" x="166.5" y="-106.0287" font-family="Roboto" font-size="8.00" fill="#000000">WritableRecordStore</text>
<text text-anchor="start" x="237.5" y="-106.0287" font-family="Roboto" font-size="8.00" fill="#000000"> </text>
</a>
</g>
</a>
</g>
</g>
<!-- c10948138&#45;&gt;c10948139 -->
<g id="edge3" class="edge">
<title>c10948138&#45;&gt;c10948139</title>
<path fill="none" stroke="#000000" d="M256.1602,-122.0929C266.926,-124.8203 277.9833,-128.2252 288,-132.4287 311.0962,-142.121 334.8881,-157.5088 352.3497,-169.9996"/>
<polygon fill="none" stroke="#000000" points="255.8846,-122.0286 249.1312,-124.5567 244.2001,-119.2951 250.9535,-116.767 255.8846,-122.0286"/>
<polygon fill="#000000" stroke="#000000" points="360.8668,-176.222 350.1375,-173.9564 356.8294,-173.2724 352.7921,-170.3228 352.7921,-170.3228 352.7921,-170.3228 356.8294,-173.2724 355.4467,-166.6892 360.8668,-176.222 360.8668,-176.222"/>
<text text-anchor="middle" x="314" y="-156.8287" font-family="Roboto" font-size="7.00" fill="#000000">projectsTo</text>
</g>
<!-- c10948139&#45;&gt;c10948127 -->
<g id="edge1" class="edge">
<title>c10948139&#45;&gt;c10948127</title>
<path fill="none" stroke="#000000" stroke-dasharray="5,2" d="M382.1027,-214.5643C387.4838,-246.1234 401.5997,-300.8568 437,-330.4287 447.1406,-338.8996 460.1936,-343.84 473.1071,-346.6604"/>
<polygon fill="none" stroke="#000000" points="385.5259,-213.7972 380.543,-204.4472 378.6076,-214.8637 385.5259,-213.7972"/>
</g>
<!-- c10948139&#45;&gt;c10948128 -->
<g id="edge2" class="edge">
<title>c10948139&#45;&gt;c10948128</title>
<path fill="none" stroke="#000000" stroke-dasharray="5,2" d="M386.2921,-214.2033C394.7047,-237.5256 410.8443,-272.2911 437,-291.4287 448.04,-299.5064 461.8293,-304.2758 475.1733,-307.0568"/>
<polygon fill="none" stroke="#000000" points="389.5901,-213.0303 383.0576,-204.689 382.9627,-215.2834 389.5901,-213.0303"/>
</g>
<!-- c10948143 -->
<g id="node6" class="node">
<title>c10948143</title>
<g id="a_node6"><a xlink:href="memory/MapRecordStore.StorageAccessor.html" xlink:title="&lt;TABLE&gt;">
<g id="a_node6_5"><a xlink:href="memory/MapRecordStore.StorageAccessor.html" xlink:title="de.lmu.ifi.dbs.elki.database.datastore.memory.MapRecordStore.StorageAccessor" target="_parent">
<polygon fill="none" stroke="#000000" points="443.5,-62.4287 443.5,-90.4287 605.5,-90.4287 605.5,-62.4287 443.5,-62.4287"/>
<text text-anchor="start" x="462.5" y="-81.0287" font-family="Roboto" font-size="8.00" fill="#000000"> </text>
<text text-anchor="start" x="465.5" y="-81.0287" font-family="Roboto" font-size="8.00" fill="#000000">MapRecordStore.StorageAccessor</text>
<text text-anchor="start" x="583.5" y="-81.0287" font-family="Roboto" font-size="8.00" fill="#000000"> </text>
<text text-anchor="start" x="447.5" y="-70.0287" font-family="Roboto" font-size="8.00" fill="#000000"> </text>
<text text-anchor="start" x="450.5" y="-70.0287" font-family="Roboto" font-size="7.00" fill="#000000">de.lmu.ifi.dbs.elki.database.datastore.memory</text>
<text text-anchor="start" x="598.5" y="-70.0287" font-family="Roboto" font-size="8.00" fill="#000000"> </text>
</a>
</g>
</a>
</g>
</g>
<!-- c10948139&#45;&gt;c10948143 -->
<g id="edge5" class="edge">
<title>c10948139&#45;&gt;c10948143</title>
<path fill="none" stroke="#000000" stroke-dasharray="5,2" d="M387.2014,-166.7335C396.0397,-144.8074 412.2588,-113.0263 437,-95.4287 439.5335,-93.6267 442.2052,-91.9902 444.9781,-90.5046"/>
<polygon fill="none" stroke="#000000" points="383.8411,-165.7229 383.553,-176.3138 390.3828,-168.2141 383.8411,-165.7229"/>
</g>
<!-- c10948144 -->
<g id="node7" class="node">
<title>c10948144</title>
<g id="a_node7"><a xlink:href="memory/ArrayStore.html" xlink:title="&lt;TABLE&gt;">
<g id="a_node7_6"><a xlink:href="memory/ArrayStore.html" xlink:title="de.lmu.ifi.dbs.elki.database.datastore.memory.ArrayStore" target="_parent">
<polygon fill="none" stroke="#000000" points="443.5,-257.4287 443.5,-285.4287 605.5,-285.4287 605.5,-257.4287 443.5,-257.4287"/>
<text text-anchor="start" x="503" y="-276.0287" font-family="Roboto" font-size="8.00" fill="#000000"> </text>
<text text-anchor="start" x="506" y="-276.0287" font-family="Roboto" font-size="8.00" fill="#000000">ArrayStore</text>
<text text-anchor="start" x="543" y="-276.0287" font-family="Roboto" font-size="8.00" fill="#000000"> </text>
<text text-anchor="start" x="447.5" y="-265.0287" font-family="Roboto" font-size="8.00" fill="#000000"> </text>
<text text-anchor="start" x="450.5" y="-265.0287" font-family="Roboto" font-size="7.00" fill="#000000">de.lmu.ifi.dbs.elki.database.datastore.memory</text>
<text text-anchor="start" x="598.5" y="-265.0287" font-family="Roboto" font-size="8.00" fill="#000000"> </text>
</a>
</g>
</a>
</g>
</g>
<!-- c10948139&#45;&gt;c10948144 -->
<g id="edge6" class="edge">
<title>c10948139&#45;&gt;c10948144</title>
<path fill="none" stroke="#000000" stroke-dasharray="5,2" d="M394.5205,-212.9445C404.9871,-226.4218 419.9654,-242.7595 437,-252.4287 440.1094,-254.1936 443.3663,-255.7948 446.7192,-257.2473"/>
<polygon fill="none" stroke="#000000" points="397.0923,-210.5375 388.3176,-204.5999 391.4744,-214.7135 397.0923,-210.5375"/>
</g>
<!-- c10948145 -->
<g id="node8" class="node">
<title>c10948145</title>
<g id="a_node8"><a xlink:href="memory/MapStore.html" xlink:title="&lt;TABLE&gt;">
<g id="a_node8_7"><a xlink:href="memory/MapStore.html" xlink:title="de.lmu.ifi.dbs.elki.database.datastore.memory.MapStore" target="_parent">
<polygon fill="none" stroke="#000000" points="443.5,-218.4287 443.5,-246.4287 605.5,-246.4287 605.5,-218.4287 443.5,-218.4287"/>
<text text-anchor="start" x="504.5" y="-237.0287" font-family="Roboto" font-size="8.00" fill="#000000"> </text>
<text text-anchor="start" x="507.5" y="-237.0287" font-family="Roboto" font-size="8.00" fill="#000000">MapStore</text>
<text text-anchor="start" x="541.5" y="-237.0287" font-family="Roboto" font-size="8.00" fill="#000000"> </text>
<text text-anchor="start" x="447.5" y="-226.0287" font-family="Roboto" font-size="8.00" fill="#000000"> </text>
<text text-anchor="start" x="450.5" y="-226.0287" font-family="Roboto" font-size="7.00" fill="#000000">de.lmu.ifi.dbs.elki.database.datastore.memory</text>
<text text-anchor="start" x="598.5" y="-226.0287" font-family="Roboto" font-size="8.00" fill="#000000"> </text>
</a>
</g>
</a>
</g>
</g>
<!-- c10948139&#45;&gt;c10948145 -->
<g id="edge7" class="edge">
<title>c10948139&#45;&gt;c10948145</title>
<path fill="none" stroke="#000000" stroke-dasharray="5,2" d="M421.1621,-208.0735C426.4491,-210.0114 431.8189,-211.8505 437,-213.4287 442.7995,-215.1952 448.8627,-216.8645 454.9746,-218.4251"/>
<polygon fill="none" stroke="#000000" points="422.3844,-204.7938 411.7932,-204.5137 419.898,-211.3374 422.3844,-204.7938"/>
</g>
<!-- c10948148 -->
<g id="node9" class="node">
<title>c10948148</title>
<g id="a_node9"><a xlink:href="memory/ArrayRecordStore.StorageAccessor.html" xlink:title="&lt;TABLE&gt;">
<g id="a_node9_8"><a xlink:href="memory/ArrayRecordStore.StorageAccessor.html" xlink:title="de.lmu.ifi.dbs.elki.database.datastore.memory.ArrayRecordStore.StorageAccessor" target="_parent">
<polygon fill="none" stroke="#000000" points="443.5,-179.4287 443.5,-207.4287 605.5,-207.4287 605.5,-179.4287 443.5,-179.4287"/>
<text text-anchor="start" x="461" y="-198.0287" font-family="Roboto" font-size="8.00" fill="#000000"> </text>
<text text-anchor="start" x="464" y="-198.0287" font-family="Roboto" font-size="8.00" fill="#000000">ArrayRecordStore.StorageAccessor</text>
<text text-anchor="start" x="585" y="-198.0287" font-family="Roboto" font-size="8.00" fill="#000000"> </text>
<text text-anchor="start" x="447.5" y="-187.0287" font-family="Roboto" font-size="8.00" fill="#000000"> </text>
<text text-anchor="start" x="450.5" y="-187.0287" font-family="Roboto" font-size="7.00" fill="#000000">de.lmu.ifi.dbs.elki.database.datastore.memory</text>
<text text-anchor="start" x="598.5" y="-187.0287" font-family="Roboto" font-size="8.00" fill="#000000"> </text>
</a>
</g>
</a>
</g>
</g>
<!-- c10948139&#45;&gt;c10948148 -->
<g id="edge8" class="edge">
<title>c10948139&#45;&gt;c10948148</title>
<path fill="none" stroke="#000000" stroke-dasharray="5,2" d="M428.5944,-191.4512C433.3892,-191.5501 438.3338,-191.652 443.3322,-191.7551"/>
<polygon fill="none" stroke="#000000" points="428.4445,-187.9475 418.3744,-191.2405 428.3001,-194.946 428.4445,-187.9475"/>
</g>
<!-- c10948152 -->
<g id="node10" class="node">
<title>c10948152</title>
<g id="a_node10"><a xlink:href="memory/MapIntegerDBIDStore.html" xlink:title="&lt;TABLE&gt;">
<g id="a_node10_9"><a xlink:href="memory/MapIntegerDBIDStore.html" xlink:title="de.lmu.ifi.dbs.elki.database.datastore.memory.MapIntegerDBIDStore" target="_parent">
<polygon fill="none" stroke="#000000" points="443.5,-140.4287 443.5,-168.4287 605.5,-168.4287 605.5,-140.4287 443.5,-140.4287"/>
<text text-anchor="start" x="482.5" y="-159.0287" font-family="Roboto" font-size="8.00" fill="#000000"> </text>
<text text-anchor="start" x="485.5" y="-159.0287" font-family="Roboto" font-size="8.00" fill="#000000">MapIntegerDBIDStore</text>
<text text-anchor="start" x="563.5" y="-159.0287" font-family="Roboto" font-size="8.00" fill="#000000"> </text>
<text text-anchor="start" x="447.5" y="-148.0287" font-family="Roboto" font-size="8.00" fill="#000000"> </text>
<text text-anchor="start" x="450.5" y="-148.0287" font-family="Roboto" font-size="7.00" fill="#000000">de.lmu.ifi.dbs.elki.database.datastore.memory</text>
<text text-anchor="start" x="598.5" y="-148.0287" font-family="Roboto" font-size="8.00" fill="#000000"> </text>
</a>
</g>
</a>
</g>
</g>
<!-- c10948139&#45;&gt;c10948152 -->
<g id="edge9" class="edge">
<title>c10948139&#45;&gt;c10948152</title>
<path fill="none" stroke="#000000" stroke-dasharray="5,2" d="M427.9875,-176.7498C431.0335,-175.9505 434.0563,-175.1707 437,-174.4287 444.8572,-172.448 453.1327,-170.4467 461.3323,-168.515"/>
<polygon fill="none" stroke="#000000" points="427.0085,-173.3885 418.2483,-179.3474 428.8125,-180.1521 427.0085,-173.3885"/>
</g>
<!-- c10948154 -->
<g id="node11" class="node">
<title>c10948154</title>
<g id="a_node11"><a xlink:href="memory/MapIntegerDBIDRecordStore.StorageAccessor.html" xlink:title="&lt;TABLE&gt;">
<g id="a_node11_10"><a xlink:href="memory/MapIntegerDBIDRecordStore.StorageAccessor.html" xlink:title="de.lmu.ifi.dbs.elki.database.datastore.memory.MapIntegerDBIDRecordStore.StorageAccessor" target="_parent">
<polygon fill="none" stroke="#000000" points="437.5,-101.4287 437.5,-129.4287 612.5,-129.4287 612.5,-101.4287 437.5,-101.4287"/>
<text text-anchor="start" x="441.5" y="-120.0287" font-family="Roboto" font-size="8.00" fill="#000000"> </text>
<text text-anchor="start" x="444.5" y="-120.0287" font-family="Roboto" font-size="8.00" fill="#000000">MapIntegerDBIDRecordStore.StorageAccessor</text>
<text text-anchor="start" x="605.5" y="-120.0287" font-family="Roboto" font-size="8.00" fill="#000000"> </text>
<text text-anchor="start" x="448" y="-109.0287" font-family="Roboto" font-size="8.00" fill="#000000"> </text>
<text text-anchor="start" x="451" y="-109.0287" font-family="Roboto" font-size="7.00" fill="#000000">de.lmu.ifi.dbs.elki.database.datastore.memory</text>
<text text-anchor="start" x="599" y="-109.0287" font-family="Roboto" font-size="8.00" fill="#000000"> </text>
</a>
</g>
</a>
</g>
</g>
<!-- c10948139&#45;&gt;c10948154 -->
<g id="edge10" class="edge">
<title>c10948139&#45;&gt;c10948154</title>
<path fill="none" stroke="#000000" stroke-dasharray="5,2" d="M396.9761,-168.4309C407.4945,-156.9511 421.6942,-143.6277 437,-135.4287 441.1208,-133.2212 445.4775,-131.2565 449.958,-129.5079"/>
<polygon fill="none" stroke="#000000" points="394.2948,-166.1798 390.3139,-175.9983 399.5488,-170.8053 394.2948,-166.1798"/>
</g>
<!-- c10948161 -->
<g id="node14" class="node">
<title>c10948161</title>
<g id="a_node14"><a xlink:href="WritableDoubleDataStore.html" xlink:title="&lt;TABLE&gt;">
<g id="a_node14_11"><a xlink:href="WritableDoubleDataStore.html" xlink:title="de.lmu.ifi.dbs.elki.database.datastore.WritableDoubleDataStore" target="_parent">
<polygon fill="none" stroke="#000000" points="473.5,-23.4287 473.5,-51.4287 576.5,-51.4287 576.5,-23.4287 473.5,-23.4287"/>
<text text-anchor="start" x="503.5" y="-41.0287" font-family="Roboto" font-size="8.00" fill="#000000"> «interface» </text>
<text text-anchor="start" x="477.5" y="-31.0287" font-family="Roboto" font-size="8.00" fill="#000000"> </text>
<text text-anchor="start" x="480.5" y="-31.0287" font-family="Roboto" font-size="8.00" fill="#000000">WritableDoubleDataStore</text>
<text text-anchor="start" x="569.5" y="-31.0287" font-family="Roboto" font-size="8.00" fill="#000000"> </text>
</a>
</g>
</a>
</g>
</g>
<!-- c10948139&#45;&gt;c10948161 -->
<g id="edge16" class="edge">
<title>c10948139&#45;&gt;c10948161</title>
<path fill="none" stroke="#000000" stroke-dasharray="5,2" d="M382.6763,-165.9721C388.5825,-135.5527 403.166,-84.2432 437,-56.4287 447.0868,-48.1364 459.9749,-43.2403 472.74,-40.4044"/>
<polygon fill="none" stroke="#000000" points="379.171,-165.6948 380.8734,-176.1519 386.0638,-166.9156 379.171,-165.6948"/>
</g>
<!-- c10948156 -->
<g id="node12" class="node">
<title>c10948156</title>
<g id="a_node12"><a xlink:href="DataStore.html" xlink:title="&lt;TABLE&gt;">
<g id="a_node12_12"><a xlink:href="DataStore.html" xlink:title="de.lmu.ifi.dbs.elki.database.datastore.DataStore" target="_parent">
<polygon fill="none" stroke="#000000" points="176.5,-59.4287 176.5,-87.4287 227.5,-87.4287 227.5,-59.4287 176.5,-59.4287"/>
<text text-anchor="start" x="180.5" y="-77.0287" font-family="Roboto" font-size="8.00" fill="#000000"> «interface» </text>
<text text-anchor="start" x="181.5" y="-67.0287" font-family="Roboto" font-size="8.00" fill="#000000"> </text>
<text text-anchor="start" x="184.5" y="-67.0287" font-family="Roboto" font-size="8.00" fill="#000000">DataStore</text>
<text text-anchor="start" x="219.5" y="-67.0287" font-family="Roboto" font-size="8.00" fill="#000000"> </text>
</a>
</g>
</a>
</g>
</g>
<!-- c10948156&#45;&gt;c10948139 -->
<g id="edge4" class="edge">
<title>c10948156&#45;&gt;c10948139</title>
<path fill="none" stroke="#000000" stroke-dasharray="5,2" d="M237.2217,-76.7386C253.456,-79.3561 272.4612,-84.0419 288,-92.4287 325.5945,-112.7197 356.1576,-154.4693 370.3756,-176.3484"/>
<polygon fill="none" stroke="#000000" points="237.4087,-73.2304 227.0178,-75.299 236.4308,-80.1617 237.4087,-73.2304"/>
</g>
<!-- c10948160 -->
<g id="node13" class="node">
<title>c10948160</title>
<g id="a_node13"><a xlink:href="DataStoreFactory.html" xlink:title="&lt;TABLE&gt;">
<g id="a_node13_13"><a xlink:href="DataStoreFactory.html" xlink:title="de.lmu.ifi.dbs.elki.database.datastore.DataStoreFactory" target="_parent">
<polygon fill="none" stroke="#000000" points="0,-401.4287 0,-440.4287 76,-440.4287 76,-401.4287 0,-401.4287"/>
<text text-anchor="start" x="16.5" y="-430.0287" font-family="Roboto" font-size="8.00" fill="#000000"> «interface» </text>
<text text-anchor="start" x="4" y="-419.0287" font-family="Roboto" font-size="8.00" fill="#000000"> «factory,interface» </text>
<text text-anchor="start" x="4.5" y="-409.0287" font-family="Roboto" font-size="8.00" fill="#000000"> </text>
<text text-anchor="start" x="7.5" y="-409.0287" font-family="Roboto" font-size="8.00" fill="#000000">DataStoreFactory</text>
<text text-anchor="start" x="68.5" y="-409.0287" font-family="Roboto" font-size="8.00" fill="#000000"> </text>
</a>
</g>
</a>
</g>
</g>
<!-- c10948160&#45;&gt;c10948127 -->
<g id="edge12" class="edge">
<title>c10948160&#45;&gt;c10948127</title>
<path fill="none" stroke="#000000" d="M69.9353,-447.537C74.7489,-450.3503 79.8375,-452.7839 85,-454.4287 230.2506,-500.7058 288.7384,-516.4409 428,-454.4287 465.8701,-437.5654 495.4833,-397.8436 511.4403,-372.3785"/>
<polygon fill="none" stroke="#000000" points="69.9337,-447.536 62.7226,-447.5726 59.9153,-440.9304 67.1264,-440.8937 69.9337,-447.536"/>
<polygon fill="#000000" stroke="#000000" points="516.6914,-363.7105 515.3589,-374.5951 514.1007,-367.987 511.51,-372.2635 511.51,-372.2635 511.51,-372.2635 514.1007,-367.987 507.6611,-369.9319 516.6914,-363.7105 516.6914,-363.7105"/>
<text text-anchor="middle" x="314" y="-495.8287" font-family="Roboto" font-size="7.00" fill="#000000">create</text>
</g>
<!-- c10948160&#45;&gt;c10948128 -->
<g id="edge14" class="edge">
<title>c10948160&#45;&gt;c10948128</title>
<path fill="none" stroke="#000000" d="M88.3695,-433.4399C139.7845,-443.4569 221.2863,-453.0762 288,-432.4287 364.6649,-408.7012 363.4788,-362.6021 437,-330.4287 445.9,-326.5339 455.6545,-323.3501 465.3195,-320.7618"/>
<polygon fill="none" stroke="#000000" points="88.0473,-433.3742 81.3677,-436.0914 76.2904,-430.9708 82.97,-428.2535 88.0473,-433.3742"/>
<polygon fill="#000000" stroke="#000000" points="475.3195,-318.2752 466.7009,-325.0554 470.4673,-319.4818 465.615,-320.6884 465.615,-320.6884 465.615,-320.6884 470.4673,-319.4818 464.5291,-316.3213 475.3195,-318.2752 475.3195,-318.2752"/>
<text text-anchor="middle" x="314" y="-430.8287" font-family="Roboto" font-size="7.00" fill="#000000">create</text>
</g>
<!-- c10948160&#45;&gt;c10948138 -->
<g id="edge15" class="edge">
<title>c10948160&#45;&gt;c10948138</title>
<path fill="none" stroke="#000000" d="M42.3352,-389.4385C52.1234,-321.941 78.0012,-168.2203 115,-132.4287 124.1785,-123.5496 136.4762,-118.3229 148.9126,-115.3146"/>
<polygon fill="none" stroke="#000000" points="42.2775,-389.8466 45.396,-396.3485 40.5936,-401.7279 37.4751,-395.2259 42.2775,-389.8466"/>
<polygon fill="#000000" stroke="#000000" points="158.8593,-113.3501 149.9207,-119.7025 153.954,-114.3189 149.0488,-115.2877 149.0488,-115.2877 149.0488,-115.2877 153.954,-114.3189 148.1768,-110.873 158.8593,-113.3501 158.8593,-113.3501"/>
<text text-anchor="middle" x="95.5" y="-188.8287" font-family="Roboto" font-size="7.00" fill="#000000">create</text>
</g>
<!-- c10948160&#45;&gt;c10948139 -->
<g id="edge11" class="edge">
<title>c10948160&#45;&gt;c10948139</title>
<path fill="none" stroke="#000000" d="M88.3433,-423.0379C151.2295,-424.2257 254.6315,-423.2244 288,-405.4287 315.6883,-390.6622 316.6765,-377.3487 331,-349.4287 354.0588,-304.4815 368.0372,-246.5874 374.5643,-214.5178"/>
<polygon fill="none" stroke="#000000" points="88.3362,-423.0379 82.2502,-426.9057 76.339,-422.7755 82.4251,-418.9076 88.3362,-423.0379"/>
<polygon fill="#000000" stroke="#000000" points="376.4945,-204.688 378.9832,-215.3677 375.531,-209.5943 374.5675,-214.5006 374.5675,-214.5006 374.5675,-214.5006 375.531,-209.5943 370.1519,-213.6335 376.4945,-204.688 376.4945,-204.688"/>
<text text-anchor="middle" x="201.5" y="-424.8287" font-family="Roboto" font-size="7.00" fill="#000000">create</text>
</g>
<!-- c10948160&#45;&gt;c10948161 -->
<g id="edge13" class="edge">
<title>c10948160&#45;&gt;c10948161</title>
<path fill="none" stroke="#000000" d="M39.5032,-389.7168C44.1256,-308.0236 61.241,-93.9328 115,-53.4287 218.0345,24.2017 380.5461,-.11 466.5924,-20.9004"/>
<polygon fill="none" stroke="#000000" points="39.4947,-389.878 43.1687,-396.083 38.854,-401.8609 35.1801,-395.6559 39.4947,-389.878"/>
<polygon fill="#000000" stroke="#000000" points="476.4451,-23.3468 465.6553,-25.3043 471.5924,-22.1419 466.7398,-20.9369 466.7398,-20.9369 466.7398,-20.9369 471.5924,-22.1419 467.8242,-16.5696 476.4451,-23.3468 476.4451,-23.3468"/>
<text text-anchor="middle" x="314" y="-3.8287" font-family="Roboto" font-size="7.00" fill="#000000">create</text>
</g>
<!-- c10948735 -->
<g id="node15" class="node">
<title>c10948735</title>
<g id="a_node15"><a xlink:href="../../parallel/processor/WriteDataStoreProcessor.html" xlink:title="&lt;TABLE&gt;">
<g id="a_node15_14"><a xlink:href="../../parallel/processor/WriteDataStoreProcessor.html" xlink:title="de.lmu.ifi.dbs.elki.parallel.processor.WriteDataStoreProcessor" target="_parent">
<polygon fill="none" stroke="#000000" points="135.5,-371.4287 135.5,-399.4287 267.5,-399.4287 267.5,-371.4287 135.5,-371.4287"/>
<text text-anchor="start" x="155.5" y="-390.0287" font-family="Roboto" font-size="8.00" fill="#000000"> </text>
<text text-anchor="start" x="158.5" y="-390.0287" font-family="Roboto" font-size="8.00" fill="#000000">WriteDataStoreProcessor</text>
<text text-anchor="start" x="244.5" y="-390.0287" font-family="Roboto" font-size="8.00" fill="#000000"> </text>
<text text-anchor="start" x="139.5" y="-379.0287" font-family="Roboto" font-size="8.00" fill="#000000"> </text>
<text text-anchor="start" x="142.5" y="-379.0287" font-family="Roboto" font-size="7.00" fill="#000000">de.lmu.ifi.dbs.elki.parallel.processor</text>
<text text-anchor="start" x="260.5" y="-379.0287" font-family="Roboto" font-size="8.00" fill="#000000"> </text>
</a>
</g>
</a>
</g>
</g>
<!-- c10948735&#45;&gt;c10948139 -->
<g id="edge17" class="edge">
<title>c10948735&#45;&gt;c10948139</title>
<path fill="none" stroke="#000000" d="M267.6471,-375.9674C274.8091,-373.4846 281.7539,-370.3597 288,-366.4287 347.3893,-329.0513 369.9128,-239.4824 376.6126,-204.6372"/>
</g>
<!-- c10949262 -->
<g id="node16" class="node">
<title>c10949262</title>
<g id="a_node16"><a xlink:href="../../index/preprocessed/knn/NNDescent.html" xlink:title="&lt;TABLE&gt;">
<g id="a_node16_15"><a xlink:href="../../index/preprocessed/knn/NNDescent.html" xlink:title="de.lmu.ifi.dbs.elki.index.preprocessed.knn.NNDescent" target="_parent">
<polygon fill="none" stroke="#000000" points="126.5,-332.4287 126.5,-360.4287 276.5,-360.4287 276.5,-332.4287 126.5,-332.4287"/>
<text text-anchor="start" x="178.5" y="-351.0287" font-family="Roboto" font-size="8.00" fill="#000000"> </text>
<text text-anchor="start" x="181.5" y="-351.0287" font-family="Roboto" font-size="8.00" fill="#000000">NNDescent</text>
<text text-anchor="start" x="221.5" y="-351.0287" font-family="Roboto" font-size="8.00" fill="#000000"> </text>
<text text-anchor="start" x="130.5" y="-340.0287" font-family="Roboto" font-size="8.00" fill="#000000"> </text>
<text text-anchor="start" x="133.5" y="-340.0287" font-family="Roboto" font-size="7.00" fill="#000000">de.lmu.ifi.dbs.elki.index.preprocessed.knn</text>
<text text-anchor="start" x="269.5" y="-340.0287" font-family="Roboto" font-size="8.00" fill="#000000"> </text>
</a>
</g>
</a>
</g>
</g>
<!-- c10949262&#45;&gt;c10948139 -->
<g id="edge20" class="edge">
<title>c10949262&#45;&gt;c10948139</title>
<path fill="none" stroke="#000000" d="M276.7856,-333.1696C280.6801,-331.4792 284.4463,-329.5746 288,-327.4287 331.2292,-301.3239 358.1608,-245.9006 370.6808,-214.128"/>
<polygon fill="#000000" stroke="#000000" points="374.2418,-204.7104 374.9141,-215.6557 372.4734,-209.3872 370.7049,-214.0641 370.7049,-214.0641 370.7049,-214.0641 372.4734,-209.3872 366.4958,-212.4725 374.2418,-204.7104 374.2418,-204.7104"/>
</g>
<!-- c10949266 -->
<g id="node17" class="node">
<title>c10949266</title>
<g id="a_node17"><a xlink:href="../../index/preprocessed/knn/NaiveProjectedKNNPreprocessor.html" xlink:title="&lt;TABLE&gt;">
<g id="a_node17_16"><a xlink:href="../../index/preprocessed/knn/NaiveProjectedKNNPreprocessor.html" xlink:title="de.lmu.ifi.dbs.elki.index.preprocessed.knn.NaiveProjectedKNNPreprocessor" target="_parent">
<polygon fill="none" stroke="#000000" points="126.5,-293.4287 126.5,-321.4287 276.5,-321.4287 276.5,-293.4287 126.5,-293.4287"/>
<text text-anchor="start" x="141.5" y="-312.0287" font-family="Roboto" font-size="8.00" fill="#000000"> </text>
<text text-anchor="start" x="144.5" y="-312.0287" font-family="Roboto" font-size="8.00" fill="#000000">NaiveProjectedKNNPreprocessor</text>
<text text-anchor="start" x="258.5" y="-312.0287" font-family="Roboto" font-size="8.00" fill="#000000"> </text>
<text text-anchor="start" x="130.5" y="-301.0287" font-family="Roboto" font-size="8.00" fill="#000000"> </text>
<text text-anchor="start" x="133.5" y="-301.0287" font-family="Roboto" font-size="7.00" fill="#000000">de.lmu.ifi.dbs.elki.index.preprocessed.knn</text>
<text text-anchor="start" x="269.5" y="-301.0287" font-family="Roboto" font-size="8.00" fill="#000000"> </text>
</a>
</g>
</a>
</g>
</g>
<!-- c10949266&#45;&gt;c10948139 -->
<g id="edge21" class="edge">
<title>c10949266&#45;&gt;c10948139</title>
<path fill="none" stroke="#000000" d="M276.6296,-293.9019C280.5638,-292.2798 284.3813,-290.4631 288,-288.4287 320.6964,-270.0463 348.3662,-235.8364 364.3323,-213.0964"/>
<polygon fill="#000000" stroke="#000000" points="370.0561,-204.7108 368.1351,-215.5072 367.2373,-208.8405 364.4184,-212.9702 364.4184,-212.9702 364.4184,-212.9702 367.2373,-208.8405 360.7017,-210.4332 370.0561,-204.7108 370.0561,-204.7108"/>
</g>
<!-- c10949282 -->
<g id="node18" class="node">
<title>c10949282</title>
<g id="a_node18"><a xlink:href="../../index/preprocessed/knn/MaterializeKNNAndRKNNPreprocessor.html" xlink:title="&lt;TABLE&gt;">
<g id="a_node18_17"><a xlink:href="../../index/preprocessed/knn/MaterializeKNNAndRKNNPreprocessor.html" xlink:title="de.lmu.ifi.dbs.elki.index.preprocessed.knn.MaterializeKNNAndRKNNPreprocessor" target="_parent">
<polygon fill="none" stroke="#000000" points="125.5,-254.4287 125.5,-282.4287 278.5,-282.4287 278.5,-254.4287 125.5,-254.4287"/>
<text text-anchor="start" x="129.5" y="-273.0287" font-family="Roboto" font-size="8.00" fill="#000000"> </text>
<text text-anchor="start" x="132.5" y="-273.0287" font-family="Roboto" font-size="8.00" fill="#000000">MaterializeKNNAndRKNNPreprocessor</text>
<text text-anchor="start" x="271.5" y="-273.0287" font-family="Roboto" font-size="8.00" fill="#000000"> </text>
<text text-anchor="start" x="131" y="-262.0287" font-family="Roboto" font-size="8.00" fill="#000000"> </text>
<text text-anchor="start" x="134" y="-262.0287" font-family="Roboto" font-size="7.00" fill="#000000">de.lmu.ifi.dbs.elki.index.preprocessed.knn</text>
<text text-anchor="start" x="270" y="-262.0287" font-family="Roboto" font-size="8.00" fill="#000000"> </text>
</a>
</g>
</a>
</g>
</g>
<!-- c10949282&#45;&gt;c10948139 -->
<g id="edge22" class="edge">
<title>c10949282&#45;&gt;c10948139</title>
<path fill="none" stroke="#000000" d="M274.7635,-254.3074C279.2973,-252.8289 283.7439,-251.2067 288,-249.4287 311.7393,-239.5115 336.0619,-223.3723 353.582,-210.4785"/>
<polygon fill="#000000" stroke="#000000" points="361.604,-204.451 356.3125,-214.0557 357.6066,-207.4545 353.6093,-210.4581 353.6093,-210.4581 353.6093,-210.4581 357.6066,-207.4545 350.9061,-206.8604 361.604,-204.451 361.604,-204.451"/>
</g>
<!-- c10949285 -->
<g id="node19" class="node">
<title>c10949285</title>
<g id="a_node19"><a xlink:href="../../index/preprocessed/knn/SpacefillingKNNPreprocessor.html" xlink:title="&lt;TABLE&gt;">
<g id="a_node19_18"><a xlink:href="../../index/preprocessed/knn/SpacefillingKNNPreprocessor.html" xlink:title="de.lmu.ifi.dbs.elki.index.preprocessed.knn.SpacefillingKNNPreprocessor" target="_parent">
<polygon fill="none" stroke="#000000" points="126.5,-215.4287 126.5,-243.4287 276.5,-243.4287 276.5,-215.4287 126.5,-215.4287"/>
<text text-anchor="start" x="147" y="-234.0287" font-family="Roboto" font-size="8.00" fill="#000000"> </text>
<text text-anchor="start" x="150" y="-234.0287" font-family="Roboto" font-size="8.00" fill="#000000">SpacefillingKNNPreprocessor</text>
<text text-anchor="start" x="253" y="-234.0287" font-family="Roboto" font-size="8.00" fill="#000000"> </text>
<text text-anchor="start" x="130.5" y="-223.0287" font-family="Roboto" font-size="8.00" fill="#000000"> </text>
<text text-anchor="start" x="133.5" y="-223.0287" font-family="Roboto" font-size="7.00" fill="#000000">de.lmu.ifi.dbs.elki.index.preprocessed.knn</text>
<text text-anchor="start" x="269.5" y="-223.0287" font-family="Roboto" font-size="8.00" fill="#000000"> </text>
</a>
</g>
</a>
</g>
</g>
<!-- c10949285&#45;&gt;c10948139 -->
<g id="edge23" class="edge">
<title>c10949285&#45;&gt;c10948139</title>
<path fill="none" stroke="#000000" d="M265.3308,-215.4039C286.672,-210.7148 310.1052,-205.5661 330.1221,-201.168"/>
<polygon fill="#000000" stroke="#000000" points="339.9486,-199.009 331.1473,-205.5502 335.0651,-200.082 330.1816,-201.155 330.1816,-201.155 330.1816,-201.155 335.0651,-200.082 329.2159,-196.7599 339.9486,-199.009 339.9486,-199.009"/>
</g>
<!-- c10949299 -->
<g id="node20" class="node">
<title>c10949299</title>
<g id="a_node20"><a xlink:href="../../index/preprocessed/AbstractPreprocessorIndex.html" xlink:title="&lt;TABLE&gt;">
<g id="a_node20_19"><a xlink:href="../../index/preprocessed/AbstractPreprocessorIndex.html" xlink:title="de.lmu.ifi.dbs.elki.index.preprocessed.AbstractPreprocessorIndex" target="_parent">
<polygon fill="none" stroke="#000000" points="133.5,-176.4287 133.5,-204.4287 269.5,-204.4287 269.5,-176.4287 133.5,-176.4287"/>
<text text-anchor="start" x="151" y="-195.0287" font-family="Roboto" font-size="8.00" fill="#000000"> </text>
<text text-anchor="start" x="154" y="-195.0287" font-family="Roboto" font-style="italic" font-size="8.00" fill="#000000">AbstractPreprocessorIndex</text>
<text text-anchor="start" x="249" y="-195.0287" font-family="Roboto" font-size="8.00" fill="#000000"> </text>
<text text-anchor="start" x="137.5" y="-184.0287" font-family="Roboto" font-size="8.00" fill="#000000"> </text>
<text text-anchor="start" x="140.5" y="-184.0287" font-family="Roboto" font-size="7.00" fill="#000000">de.lmu.ifi.dbs.elki.index.preprocessed</text>
<text text-anchor="start" x="262.5" y="-184.0287" font-family="Roboto" font-size="8.00" fill="#000000"> </text>
</a>
</g>
</a>
</g>
</g>
<!-- c10949299&#45;&gt;c10948139 -->
<g id="edge18" class="edge">
<title>c10949299&#45;&gt;c10948139</title>
<path fill="none" stroke="#000000" d="M281.7318,-190.4287C301.9098,-190.4287 322.6807,-190.4287 339.8203,-190.4287"/>
<polygon fill="#000000" stroke="#000000" points="281.6185,-190.4288 275.6185,-194.4287 269.6185,-190.4287 275.6185,-186.4287 281.6185,-190.4288"/>
</g>
</g>
</svg>
