<?xml version="1.0" encoding="UTF-8" standalone="no"?>
<!DOCTYPE svg PUBLIC "-//W3C//DTD SVG 1.1//EN"
 "http://www.w3.org/Graphics/SVG/1.1/DTD/svg11.dtd">
<!-- Generated by graphviz version 2.40.1 (20161225.0304)
 -->
<!-- Title: G Pages: 1 -->
<svg width="503pt" height="176pt"
 viewBox="0.00 0.00 503.00 175.50" xmlns="http://www.w3.org/2000/svg" xmlns:xlink="http://www.w3.org/1999/xlink">
<g id="graph0" class="graph" transform="scale(1 1) rotate(0) translate(4 171.5)">
<title>G</title>
<polygon fill="#ffffff" stroke="transparent" points="-4,4 -4,-171.5 499,-171.5 499,4 -4,4"/>
<!-- c7315830 -->
<g id="node1" class="node">
<title>c7315830</title>
<g id="a_node1"><a xlink:href="../../../../result/Result.html" xlink:title="&lt;TABLE&gt;">
<g id="a_node1_0"><a xlink:href="../../../../result/Result.html" xlink:title="de.lmu.ifi.dbs.elki.result.Result" target="_parent">
<polygon fill="#fffacd" stroke="transparent" points="67.5,-128.5 67.5,-167.5 160.5,-167.5 160.5,-128.5 67.5,-128.5"/>
<polygon fill="none" stroke="#000000" points="68,-128 68,-167 161,-167 161,-128 68,-128"/>
<text text-anchor="start" x="93" y="-156.6" font-family="Roboto" font-size="8.00" fill="#000000"> «interface» </text>
<text text-anchor="start" x="100.5" y="-146.6" font-family="Roboto" font-size="8.00" fill="#000000"> </text>
<text text-anchor="start" x="103.5" y="-146.6" font-family="Roboto" font-size="8.00" fill="#000000">Result</text>
<text text-anchor="start" x="125.5" y="-146.6" font-family="Roboto" font-size="8.00" fill="#000000"> </text>
<text text-anchor="start" x="72" y="-135.6" font-family="Roboto" font-size="8.00" fill="#000000"> </text>
<text text-anchor="start" x="75" y="-135.6" font-family="Roboto" font-size="7.00" fill="#000000">de.lmu.ifi.dbs.elki.result</text>
<text text-anchor="start" x="154" y="-135.6" font-family="Roboto" font-size="8.00" fill="#000000"> </text>
</a>
</g>
</a>
</g>
</g>
<!-- c7317649 -->
<g id="node3" class="node">
<title>c7317649</title>
<g id="a_node3"><a xlink:href="NeighborSetPredicate.html" xlink:title="&lt;TABLE&gt;">
<g id="a_node3_1"><a xlink:href="NeighborSetPredicate.html" xlink:title="de.lmu.ifi.dbs.elki.algorithm.outlier.spatial.neighborhood.NeighborSetPredicate" target="_parent">
<polygon fill="#fffacd" stroke="transparent" points="246,-134 246,-162 336,-162 336,-134 246,-134"/>
<polygon fill="none" stroke="#000000" points="246,-134 246,-162 336,-162 336,-134 246,-134"/>
<text text-anchor="start" x="269.5" y="-151.6" font-family="Roboto" font-size="8.00" fill="#000000"> «interface» </text>
<text text-anchor="start" x="250" y="-141.6" font-family="Roboto" font-size="8.00" fill="#000000"> </text>
<text text-anchor="start" x="253" y="-141.6" font-family="Roboto" font-size="8.00" fill="#000000">NeighborSetPredicate</text>
<text text-anchor="start" x="329" y="-141.6" font-family="Roboto" font-size="8.00" fill="#000000"> </text>
</a>
</g>
</a>
</g>
</g>
<!-- c7315830&#45;&gt;c7317649 -->
<g id="edge2" class="edge">
<title>c7315830&#45;&gt;c7317649</title>
<path fill="none" stroke="#000000" stroke-dasharray="5,2" d="M170.6528,-148C194.9182,-148 222.8693,-148 245.7233,-148"/>
<polygon fill="none" stroke="#000000" points="170.5047,-144.5001 160.5047,-148 170.5046,-151.5001 170.5047,-144.5001"/>
</g>
<!-- c7317641 -->
<g id="node2" class="node">
<title>c7317641</title>
<g id="a_node2"><a xlink:href="AbstractPrecomputedNeighborhood.html" xlink:title="&lt;TABLE&gt;">
<g id="a_node2_2"><a xlink:href="AbstractPrecomputedNeighborhood.html" xlink:title="de.lmu.ifi.dbs.elki.algorithm.outlier.spatial.neighborhood.AbstractPrecomputedNeighborhood" target="_parent">
<polygon fill="none" stroke="#000000" points="354.5,-139 354.5,-156 495.5,-156 495.5,-139 354.5,-139"/>
<text text-anchor="start" x="358.5" y="-146.6" font-family="Roboto" font-size="8.00" fill="#000000"> </text>
<text text-anchor="start" x="361.5" y="-146.6" font-family="Roboto" font-style="italic" font-size="8.00" fill="#000000">AbstractPrecomputedNeighborhood</text>
<text text-anchor="start" x="488.5" y="-146.6" font-family="Roboto" font-size="8.00" fill="#000000"> </text>
</a>
</g>
</a>
</g>
</g>
<!-- c7317649&#45;&gt;c7317641 -->
<g id="edge1" class="edge">
<title>c7317649&#45;&gt;c7317641</title>
<path fill="none" stroke="#000000" stroke-dasharray="5,2" d="M346.3691,-148C348.8831,-148 351.4193,-148 353.9629,-148"/>
<polygon fill="none" stroke="#000000" points="346.197,-144.5001 336.197,-148 346.197,-151.5001 346.197,-144.5001"/>
</g>
<!-- c7317650 -->
<g id="node4" class="node">
<title>c7317650</title>
<g id="a_node4"><a xlink:href="NeighborSetPredicate.Factory.html" xlink:title="&lt;TABLE&gt;">
<g id="a_node4_3"><a xlink:href="NeighborSetPredicate.Factory.html" xlink:title="de.lmu.ifi.dbs.elki.algorithm.outlier.spatial.neighborhood.NeighborSetPredicate.Factory" target="_parent">
<polygon fill="none" stroke="#000000" points="56,-78 56,-117 173,-117 173,-78 56,-78"/>
<text text-anchor="start" x="93" y="-106.6" font-family="Roboto" font-size="8.00" fill="#000000"> «interface» </text>
<text text-anchor="start" x="96" y="-95.6" font-family="Roboto" font-size="8.00" fill="#000000"> «factory» </text>
<text text-anchor="start" x="60" y="-85.6" font-family="Roboto" font-size="8.00" fill="#000000"> </text>
<text text-anchor="start" x="63" y="-85.6" font-family="Roboto" font-size="8.00" fill="#000000">NeighborSetPredicate.Factory</text>
<text text-anchor="start" x="166" y="-85.6" font-family="Roboto" font-size="8.00" fill="#000000"> </text>
</a>
</g>
</a>
</g>
</g>
<!-- c7317650&#45;&gt;c7317649 -->
<g id="edge3" class="edge">
<title>c7317650&#45;&gt;c7317649</title>
<path fill="none" stroke="#000000" d="M184.7111,-111.6383C199.1448,-114.9438 214.1492,-118.7636 228,-123 238.0148,-126.0631 248.6807,-130.0181 258.3345,-133.8745"/>
<polygon fill="none" stroke="#000000" points="184.4735,-111.5856 177.7492,-114.1901 172.7588,-108.9847 179.4831,-106.3802 184.4735,-111.5856"/>
</g>
<!-- c7317654 -->
<g id="node5" class="node">
<title>c7317654</title>
<g id="a_node5"><a xlink:href="weighted/LinearWeightedExtendedNeighborhood.html" xlink:title="&lt;TABLE&gt;">
<g id="a_node5_4"><a xlink:href="weighted/LinearWeightedExtendedNeighborhood.html" xlink:title="de.lmu.ifi.dbs.elki.algorithm.outlier.spatial.neighborhood.weighted.LinearWeightedExtendedNeighborhood" target="_parent">
<polygon fill="none" stroke="#000000" points="0,-39 0,-67 228,-67 228,-39 0,-39"/>
<text text-anchor="start" x="43" y="-57.6" font-family="Roboto" font-size="8.00" fill="#000000"> </text>
<text text-anchor="start" x="46" y="-57.6" font-family="Roboto" font-size="8.00" fill="#000000">LinearWeightedExtendedNeighborhood</text>
<text text-anchor="start" x="182" y="-57.6" font-family="Roboto" font-size="8.00" fill="#000000"> </text>
<text text-anchor="start" x="4" y="-46.6" font-family="Roboto" font-size="8.00" fill="#000000"> </text>
<text text-anchor="start" x="7" y="-46.6" font-family="Roboto" font-size="7.00" fill="#000000">de.lmu.ifi.dbs.elki.algorithm.outlier.spatial.neighborhood.weighted</text>
<text text-anchor="start" x="221" y="-46.6" font-family="Roboto" font-size="8.00" fill="#000000"> </text>
</a>
</g>
</a>
</g>
</g>
<!-- c7317654&#45;&gt;c7317649 -->
<g id="edge4" class="edge">
<title>c7317654&#45;&gt;c7317649</title>
<path fill="none" stroke="#000000" d="M216.0191,-67.0487C220.1565,-68.8164 224.1701,-70.7923 228,-73 249.3808,-85.3244 266.7666,-107.7783 277.8157,-124.9162"/>
<polygon fill="#000000" stroke="#000000" points="283.2873,-133.7923 274.2091,-127.6411 280.6635,-129.536 278.0397,-125.2797 278.0397,-125.2797 278.0397,-125.2797 280.6635,-129.536 281.8704,-122.9183 283.2873,-133.7923 283.2873,-133.7923"/>
</g>
<!-- c7317657 -->
<g id="node6" class="node">
<title>c7317657</title>
<g id="a_node6"><a xlink:href="weighted/UnweightedNeighborhoodAdapter.html" xlink:title="&lt;TABLE&gt;">
<g id="a_node6_5"><a xlink:href="weighted/UnweightedNeighborhoodAdapter.html" xlink:title="de.lmu.ifi.dbs.elki.algorithm.outlier.spatial.neighborhood.weighted.UnweightedNeighborhoodAdapter" target="_parent">
<polygon fill="none" stroke="#000000" points="0,0 0,-28 228,-28 228,0 0,0"/>
<text text-anchor="start" x="51.5" y="-18.6" font-family="Roboto" font-size="8.00" fill="#000000"> </text>
<text text-anchor="start" x="54.5" y="-18.6" font-family="Roboto" font-size="8.00" fill="#000000">UnweightedNeighborhoodAdapter</text>
<text text-anchor="start" x="173.5" y="-18.6" font-family="Roboto" font-size="8.00" fill="#000000"> </text>
<text text-anchor="start" x="4" y="-7.6" font-family="Roboto" font-size="8.00" fill="#000000"> </text>
<text text-anchor="start" x="7" y="-7.6" font-family="Roboto" font-size="7.00" fill="#000000">de.lmu.ifi.dbs.elki.algorithm.outlier.spatial.neighborhood.weighted</text>
<text text-anchor="start" x="221" y="-7.6" font-family="Roboto" font-size="8.00" fill="#000000"> </text>
</a>
</g>
</a>
</g>
</g>
<!-- c7317657&#45;&gt;c7317649 -->
<g id="edge5" class="edge">
<title>c7317657&#45;&gt;c7317649</title>
<path fill="none" stroke="#000000" d="M218.4869,-28.1262C221.7902,-29.889 224.9741,-31.8407 228,-34 258.7118,-55.9163 276.1521,-97.6909 284.5744,-124.1279"/>
<polygon fill="#000000" stroke="#000000" points="287.4616,-133.7629 280.2804,-125.4755 286.0263,-128.9733 284.591,-124.1837 284.591,-124.1837 284.591,-124.1837 286.0263,-128.9733 288.9016,-122.8919 287.4616,-133.7629 287.4616,-133.7629"/>
</g>
</g>
</svg>
