<?xml version="1.0" encoding="UTF-8" standalone="no"?>
<!DOCTYPE svg PUBLIC "-//W3C//DTD SVG 1.1//EN"
 "http://www.w3.org/Graphics/SVG/1.1/DTD/svg11.dtd">
<!-- Generated by graphviz version 2.40.1 (20161225.0304)
 -->
<!-- Title: G Pages: 1 -->
<svg width="273pt" height="59pt"
 viewBox="0.00 0.00 273.00 58.50" xmlns="http://www.w3.org/2000/svg" xmlns:xlink="http://www.w3.org/1999/xlink">
<g id="graph0" class="graph" transform="scale(1 1) rotate(0) translate(4 54.5)">
<title>G</title>
<polygon fill="#ffffff" stroke="transparent" points="-4,4 -4,-54.5 269,-54.5 269,4 -4,4"/>
<!-- c8430199 -->
<g id="node1" class="node">
<title>c8430199</title>
<g id="a_node1"><a xlink:href="Progress.html" xlink:title="&lt;TABLE&gt;">
<g id="a_node1_0"><a xlink:href="Progress.html" xlink:title="de.lmu.ifi.dbs.elki.logging.progress.Progress" target="_parent">
<polygon fill="#fffacd" stroke="transparent" points="120,0 120,-28 171,-28 171,0 120,0"/>
<polygon fill="none" stroke="#000000" points="120.5,0 120.5,-28 171.5,-28 171.5,0 120.5,0"/>
<text text-anchor="start" x="124.5" y="-17.6" font-family="Roboto" font-size="8.00" fill="#000000"> «interface» </text>
<text text-anchor="start" x="127.5" y="-7.6" font-family="Roboto" font-size="8.00" fill="#000000"> </text>
<text text-anchor="start" x="130.5" y="-7.6" font-family="Roboto" font-size="8.00" fill="#000000">Progress</text>
<text text-anchor="start" x="161.5" y="-7.6" font-family="Roboto" font-size="8.00" fill="#000000"> </text>
</a>
</g>
</a>
</g>
</g>
<!-- c8430204 -->
<g id="node3" class="node">
<title>c8430204</title>
<g id="a_node3"><a xlink:href="AbstractProgress.html" xlink:title="&lt;TABLE&gt;">
<g id="a_node3_1"><a xlink:href="AbstractProgress.html" xlink:title="de.lmu.ifi.dbs.elki.logging.progress.AbstractProgress" target="_parent">
<polygon fill="none" stroke="#000000" points="190.5,-5 190.5,-22 265.5,-22 265.5,-5 190.5,-5"/>
<text text-anchor="start" x="194.5" y="-12.6" font-family="Roboto" font-size="8.00" fill="#000000"> </text>
<text text-anchor="start" x="197.5" y="-12.6" font-family="Roboto" font-style="italic" font-size="8.00" fill="#000000">AbstractProgress</text>
<text text-anchor="start" x="258.5" y="-12.6" font-family="Roboto" font-size="8.00" fill="#000000"> </text>
</a>
</g>
</a>
</g>
</g>
<!-- c8430199&#45;&gt;c8430204 -->
<g id="edge2" class="edge">
<title>c8430199&#45;&gt;c8430204</title>
<path fill="none" stroke="#000000" stroke-dasharray="5,2" d="M181.6081,-14C184.306,-14 187.0326,-14 189.7402,-14"/>
<polygon fill="none" stroke="#000000" points="181.4453,-10.5001 171.4453,-14 181.4453,-17.5001 181.4453,-10.5001"/>
</g>
<!-- c8430201 -->
<g id="node2" class="node">
<title>c8430201</title>
<g id="a_node2"><a xlink:href="ProgressTracker.html" xlink:title="&lt;TABLE&gt;">
<g id="a_node2_2"><a xlink:href="ProgressTracker.html" xlink:title="de.lmu.ifi.dbs.elki.logging.progress.ProgressTracker" target="_parent">
<polygon fill="none" stroke="#000000" points="4.5,-33 4.5,-50 76.5,-50 76.5,-33 4.5,-33"/>
<text text-anchor="start" x="8.5" y="-40.6" font-family="Roboto" font-size="8.00" fill="#000000"> </text>
<text text-anchor="start" x="11.5" y="-40.6" font-family="Roboto" font-size="8.00" fill="#000000">ProgressTracker</text>
<text text-anchor="start" x="69.5" y="-40.6" font-family="Roboto" font-size="8.00" fill="#000000"> </text>
</a>
</g>
</a>
</g>
</g>
<!-- c8430201&#45;&gt;c8430199 -->
<g id="edge1" class="edge">
<title>c8430201&#45;&gt;c8430199</title>
<path fill="none" stroke="#000000" d="M72.574,-33.4469C84.4475,-30.2807 97.9723,-26.674 110.123,-23.4339"/>
<polygon fill="#000000" stroke="#000000" points="119.94,-20.816 111.4372,-27.7408 115.1088,-22.1044 110.2776,-23.3927 110.2776,-23.3927 110.2776,-23.3927 115.1088,-22.1044 109.1181,-19.0446 119.94,-20.816 119.94,-20.816"/>
<text text-anchor="middle" x="100.5" y="-30.4" font-family="Roboto" font-size="7.00" fill="#000000">tracks</text>
</g>
<!-- c8430205 -->
<g id="node4" class="node">
<title>c8430205</title>
<g id="a_node4"><a xlink:href="ProgressLogRecord.html" xlink:title="&lt;TABLE&gt;">
<g id="a_node4_3"><a xlink:href="ProgressLogRecord.html" xlink:title="de.lmu.ifi.dbs.elki.logging.progress.ProgressLogRecord" target="_parent">
<polygon fill="none" stroke="#000000" points=".5,-5 .5,-22 81.5,-22 81.5,-5 .5,-5"/>
<text text-anchor="start" x="4.5" y="-12.6" font-family="Roboto" font-size="8.00" fill="#000000"> </text>
<text text-anchor="start" x="7.5" y="-12.6" font-family="Roboto" font-size="8.00" fill="#000000">ProgressLogRecord</text>
<text text-anchor="start" x="74.5" y="-12.6" font-family="Roboto" font-size="8.00" fill="#000000"> </text>
</a>
</g>
</a>
</g>
</g>
<!-- c8430205&#45;&gt;c8430199 -->
<g id="edge3" class="edge">
<title>c8430205&#45;&gt;c8430199</title>
<path fill="none" stroke="#000000" d="M93.2076,-14C102.4914,-14 111.7666,-14 119.8718,-14"/>
<polygon fill="none" stroke="#000000" points="93.0957,-14.0001 87.0957,-18 81.0957,-14 87.0958,-10 93.0957,-14.0001"/>
</g>
</g>
</svg>
