<?xml version="1.0" encoding="UTF-8" standalone="no"?>
<!DOCTYPE svg PUBLIC "-//W3C//DTD SVG 1.1//EN"
 "http://www.w3.org/Graphics/SVG/1.1/DTD/svg11.dtd">
<!-- Generated by graphviz version 2.40.1 (20161225.0304)
 -->
<!-- Title: G Pages: 1 -->
<svg width="228pt" height="25pt"
 viewBox="0.00 0.00 228.00 25.00" xmlns="http://www.w3.org/2000/svg" xmlns:xlink="http://www.w3.org/1999/xlink">
<g id="graph0" class="graph" transform="scale(1 1) rotate(0) translate(4 21)">
<title>G</title>
<polygon fill="#ffffff" stroke="transparent" points="-4,4 -4,-21 224,-21 224,4 -4,4"/>
<!-- c9932320 -->
<g id="node1" class="node">
<title>c9932320</title>
<g id="a_node1"><a xlink:href="SphericalVincentyEarthModel.html" xlink:title="&lt;TABLE&gt;">
<g id="a_node1_0"><a xlink:href="SphericalVincentyEarthModel.html" xlink:title="de.lmu.ifi.dbs.elki.math.geodesy.SphericalVincentyEarthModel" target="_parent">
<polygon fill="#fffacd" stroke="transparent" points="102,0 102,-17 220,-17 220,0 102,0"/>
<polygon fill="none" stroke="#000000" points="102,.5 102,-16.5 220,-16.5 220,.5 102,.5"/>
<text text-anchor="start" x="106" y="-7.1" font-family="Roboto" font-size="8.00" fill="#000000"> </text>
<text text-anchor="start" x="109" y="-7.1" font-family="Roboto" font-size="8.00" fill="#000000">SphericalVincentyEarthModel</text>
<text text-anchor="start" x="213" y="-7.1" font-family="Roboto" font-size="8.00" fill="#000000"> </text>
</a>
</g>
</a>
</g>
</g>
<!-- c9932326 -->
<g id="node2" class="node">
<title>c9932326</title>
<g id="a_node2"><a xlink:href="AbstractEarthModel.html" xlink:title="&lt;TABLE&gt;">
<g id="a_node2_1"><a xlink:href="AbstractEarthModel.html" xlink:title="de.lmu.ifi.dbs.elki.math.geodesy.AbstractEarthModel" target="_parent">
<polygon fill="none" stroke="#000000" points="0,.5 0,-16.5 84,-16.5 84,.5 0,.5"/>
<text text-anchor="start" x="4" y="-7.1" font-family="Roboto" font-size="8.00" fill="#000000"> </text>
<text text-anchor="start" x="7" y="-7.1" font-family="Roboto" font-style="italic" font-size="8.00" fill="#000000">AbstractEarthModel</text>
<text text-anchor="start" x="77" y="-7.1" font-family="Roboto" font-size="8.00" fill="#000000"> </text>
</a>
</g>
</a>
</g>
</g>
<!-- c9932326&#45;&gt;c9932320 -->
<g id="edge1" class="edge">
<title>c9932326&#45;&gt;c9932320</title>
<path fill="none" stroke="#000000" d="M94.4427,-8.5C96.9468,-8.5 99.4677,-8.5 101.9875,-8.5"/>
<polygon fill="none" stroke="#000000" points="94.29,-5.0001 84.29,-8.5 94.29,-12.0001 94.29,-5.0001"/>
</g>
</g>
</svg>
