<?xml version="1.0" encoding="UTF-8" standalone="no"?><svg xmlns="http://www.w3.org/2000/svg" xmlns:xlink="http://www.w3.org/1999/xlink" contentStyleType="text/css" height="273px" preserveAspectRatio="none" style="width:723px;height:273px;background:#FFFFFF;" version="1.1" viewBox="0 0 723 273" width="723px" zoomAndPan="magnify"><defs/><g><!--MD5=[65c30cce6be8d5839befbfaf84db74fb]
class elki.utilities.referencepoints.RandomSampleReferencePoints--><a href="RandomSampleReferencePoints.html" target="_top" title="RandomSampleReferencePoints.html" xlink:actuate="onRequest" xlink:href="RandomSampleReferencePoints.html" xlink:show="new" xlink:title="RandomSampleReferencePoints.html" xlink:type="simple"><g id="elem_elki.utilities.referencepoints.RandomSampleReferencePoints"><rect codeLine="6" fill="#F1F1F1" height="119.125" id="elki.utilities.referencepoints.RandomSampleReferencePoints" rx="2.5" ry="2.5" style="stroke:#181818;stroke-width:0.5;" width="697" x="13" y="129"/><ellipse cx="245.25" cy="147.9688" fill="#ADD1B2" rx="11" ry="11" style="stroke:#181818;stroke-width:1.0;"/><path d="M248.2188,153.6094 Q247.6406,153.9063 247,154.0469 Q246.3594,154.2031 245.6563,154.2031 Q243.1563,154.2031 241.8281,152.5625 Q240.5156,150.9063 240.5156,147.7813 Q240.5156,144.6563 241.8281,143 Q243.1563,141.3438 245.6563,141.3438 Q246.3594,141.3438 247,141.5 Q247.6563,141.6563 248.2188,141.9531 L248.2188,144.6719 Q247.5938,144.0938 247,143.8281 Q246.4063,143.5469 245.7813,143.5469 Q244.4375,143.5469 243.75,144.625 Q243.0625,145.6875 243.0625,147.7813 Q243.0625,149.875 243.75,150.9531 Q244.4375,152.0156 245.7813,152.0156 Q246.4063,152.0156 247,151.75 Q247.5938,151.4688 248.2188,150.8906 L248.2188,153.6094 Z " fill="#000000"/><text fill="#000000" font-family="sans-serif" font-size="14" lengthAdjust="spacing" textLength="224" x="265.75" y="146.9951">RandomSampleReferencePoints</text><text fill="#000000" font-family="sans-serif" font-size="10" lengthAdjust="spacing" textLength="130" x="312.75" y="159.5791">elki.utilities.referencepoints</text><line style="stroke:#181818;stroke-width:0.5;" x1="14" x2="709" y1="166.9375" y2="166.9375"/><polygon fill="none" points="24,175.5859,28,179.5859,24,183.5859,20,179.5859" style="stroke:#B38D22;stroke-width:1.0;"/><text fill="#000000" font-family="sans-serif" font-size="14" lengthAdjust="spacing" textLength="104" x="33" y="183.9326">samplesize: int</text><polygon fill="none" points="24,191.8828,28,195.8828,24,199.8828,20,195.8828" style="stroke:#B38D22;stroke-width:1.0;"/><text fill="#000000" font-family="sans-serif" font-size="14" lengthAdjust="spacing" textLength="140" x="33" y="200.2295">rnd: RandomFactory</text><line style="stroke:#181818;stroke-width:0.5;" x1="14" x2="709" y1="207.5313" y2="207.5313"/><ellipse cx="24" cy="221.1797" fill="#84BE84" rx="3" ry="3" style="stroke:#038048;stroke-width:1.0;"/><text fill="#000000" font-family="sans-serif" font-size="14" lengthAdjust="spacing" textLength="367" x="33" y="224.5264">RandomSampleReferencePoints(int, RandomFactory)</text><ellipse cx="24" cy="237.4766" fill="#84BE84" rx="3" ry="3" style="stroke:#038048;stroke-width:1.0;"/><text fill="#000000" font-family="sans-serif" font-size="14" lengthAdjust="spacing" textLength="671" x="33" y="240.8232">getReferencePoints(Relation&lt;? extends NumberVector&gt;): Collection&lt;? extends NumberVector&gt;</text></g></a><!--MD5=[84a817de7fe3eeab1ccc53ba403c2547]
class elki.utilities.referencepoints.ReferencePointsHeuristic--><a href="ReferencePointsHeuristic.html" target="_top" title="ReferencePointsHeuristic.html" xlink:actuate="onRequest" xlink:href="ReferencePointsHeuristic.html" xlink:show="new" xlink:title="ReferencePointsHeuristic.html" xlink:type="simple"><g id="elem_elki.utilities.referencepoints.ReferencePointsHeuristic"><rect codeLine="13" fill="#F1F1F1" height="62.2344" id="elki.utilities.referencepoints.ReferencePointsHeuristic" rx="2.5" ry="2.5" style="stroke:#181818;stroke-width:0.5;" width="709" x="7" y="7"/><ellipse cx="268.75" cy="25.9688" fill="#B4A7E5" rx="11" ry="11" style="stroke:#181818;stroke-width:1.0;"/><path d="M264.6719,21.7344 L264.6719,19.5781 L272.0625,19.5781 L272.0625,21.7344 L269.5938,21.7344 L269.5938,29.8125 L272.0625,29.8125 L272.0625,31.9688 L264.6719,31.9688 L264.6719,29.8125 L267.1406,29.8125 L267.1406,21.7344 L264.6719,21.7344 Z " fill="#000000"/><text fill="#000000" font-family="sans-serif" font-size="14" font-style="italic" lengthAdjust="spacing" textLength="177" x="289.25" y="24.9951">ReferencePointsHeuristic</text><text fill="#000000" font-family="sans-serif" font-size="10" font-style="italic" lengthAdjust="spacing" textLength="139" x="308.25" y="37.5791">elki.utilities.referencepoints</text><line style="stroke:#181818;stroke-width:0.5;" x1="8" x2="715" y1="44.9375" y2="44.9375"/><ellipse cx="18" cy="58.5859" fill="#84BE84" rx="3" ry="3" style="stroke:#038048;stroke-width:1.0;"/><text fill="#000000" font-family="sans-serif" font-size="14" font-style="italic" lengthAdjust="spacing" textLength="683" x="27" y="61.9326">getReferencePoints(Relation&lt;? extends NumberVector&gt;): Collection&lt;? extends NumberVector&gt;</text></g></a><!--MD5=[2688a3a125d56f7d9ce4ec372bee7801]
reverse link elki.utilities.referencepoints.ReferencePointsHeuristic to elki.utilities.referencepoints.RandomSampleReferencePoints--><g id="link_elki.utilities.referencepoints.ReferencePointsHeuristic_elki.utilities.referencepoints.RandomSampleReferencePoints"><path codeLine="18" d="M361.5,89.22 C361.5,101.98 361.5,115.81 361.5,128.95 " fill="none" id="elki.utilities.referencepoints.ReferencePointsHeuristic-backto-elki.utilities.referencepoints.RandomSampleReferencePoints" style="stroke:#181818;stroke-width:1.0;stroke-dasharray:7.0,7.0;"/><polygon fill="none" points="354.5,89.05,361.5,69.05,368.5,89.05,354.5,89.05" style="stroke:#181818;stroke-width:1.0;"/></g><rect fill="none" height="11.6406" style="stroke:none;stroke-width:1.0;" width="186" x="261.5" y="254.125"/><text fill="#888888" font-family="sans-serif" font-size="10" lengthAdjust="spacing" textLength="186" x="261.5" y="263.4072">UMLDoclet 2.0.19, PlantUML 1.2022.8</text><!--MD5=[3bbcfdf645a25fcc9f31d99aee940b10]
@startuml
    remove .*\.(Instance|Par|Parameterizer|Factory)$
    set namespaceSeparator none
    hide empty fields
    hide empty methods

    class "<size:14>RandomSampleReferencePoints\n<size:10>elki.utilities.referencepoints" as elki.utilities.referencepoints.RandomSampleReferencePoints [[RandomSampleReferencePoints.html]] {
        #samplesize: int
        #rnd: RandomFactory
        +RandomSampleReferencePoints(int, RandomFactory)
        +getReferencePoints(Relation<? extends NumberVector>): Collection<? extends NumberVector>
    }

    interface "<size:14>ReferencePointsHeuristic\n<size:10>elki.utilities.referencepoints" as elki.utilities.referencepoints.ReferencePointsHeuristic [[ReferencePointsHeuristic.html]] {
        {abstract} +getReferencePoints(Relation<? extends NumberVector>): Collection<? extends NumberVector>
    }
    class "<size:14>RandomSampleReferencePoints.Par\n<size:10>elki.utilities.referencepoints" as elki.utilities.referencepoints.RandomSampleReferencePoints.Par [[RandomSampleReferencePoints.Par.html]]

    elki.utilities.referencepoints.ReferencePointsHeuristic <|.. elki.utilities.referencepoints.RandomSampleReferencePoints
    elki.utilities.referencepoints.RandomSampleReferencePoints +- - elki.utilities.referencepoints.RandomSampleReferencePoints.Par

    center footer UMLDoclet 2.0.19, PlantUML 1.2022.8
@enduml

PlantUML version 1.2022.8(Sun Sep 25 11:00:33 CEST 2022)
(APACHE source distribution)
Java Runtime: OpenJDK Runtime Environment
JVM: OpenJDK 64-Bit Server VM
Default Encoding: UTF-8
Language: de
Country: DE
--></g></svg>