<?xml version="1.0" encoding="UTF-8" standalone="no"?>
<!DOCTYPE svg PUBLIC "-//W3C//DTD SVG 1.1//EN"
 "http://www.w3.org/Graphics/SVG/1.1/DTD/svg11.dtd">
<!-- Generated by graphviz version 2.40.1 (20161225.0304)
 -->
<!-- Title: G Pages: 1 -->
<svg width="584pt" height="336pt"
 viewBox="0.00 0.00 584.00 335.50" xmlns="http://www.w3.org/2000/svg" xmlns:xlink="http://www.w3.org/1999/xlink">
<g id="graph0" class="graph" transform="scale(1 1) rotate(0) translate(4 331.5)">
<title>G</title>
<polygon fill="#ffffff" stroke="transparent" points="-4,4 -4,-331.5 580,-331.5 580,4 -4,4"/>
<!-- c80065 -->
<g id="node1" class="node">
<title>c80065</title>
<g id="a_node1"><a xlink:href="DistanceStatisticsWithClasses.html" xlink:title="&lt;TABLE&gt;">
<g id="a_node1_0"><a xlink:href="DistanceStatisticsWithClasses.html" xlink:title="de.lmu.ifi.dbs.elki.algorithm.statistics.DistanceStatisticsWithClasses" target="_parent">
<polygon fill="none" stroke="#000000" points="208.5,-195.5 208.5,-212.5 328.5,-212.5 328.5,-195.5 208.5,-195.5"/>
<text text-anchor="start" x="212.5" y="-203.1" font-family="Roboto" font-size="8.00" fill="#000000"> </text>
<text text-anchor="start" x="215.5" y="-203.1" font-family="Roboto" font-size="8.00" fill="#000000">DistanceStatisticsWithClasses</text>
<text text-anchor="start" x="321.5" y="-203.1" font-family="Roboto" font-size="8.00" fill="#000000"> </text>
</a>
</g>
</a>
</g>
</g>
<!-- c80067 -->
<g id="node2" class="node">
<title>c80067</title>
<g id="a_node2"><a xlink:href="AddUniformScale.html" xlink:title="&lt;TABLE&gt;">
<g id="a_node2_1"><a xlink:href="AddUniformScale.html" xlink:title="de.lmu.ifi.dbs.elki.algorithm.statistics.AddUniformScale" target="_parent">
<polygon fill="none" stroke="#000000" points="230.5,-251.5 230.5,-268.5 307.5,-268.5 307.5,-251.5 230.5,-251.5"/>
<text text-anchor="start" x="234.5" y="-259.1" font-family="Roboto" font-size="8.00" fill="#000000"> </text>
<text text-anchor="start" x="237.5" y="-259.1" font-family="Roboto" font-size="8.00" fill="#000000">AddUniformScale</text>
<text text-anchor="start" x="300.5" y="-259.1" font-family="Roboto" font-size="8.00" fill="#000000"> </text>
</a>
</g>
</a>
</g>
</g>
<!-- c80068 -->
<g id="node3" class="node">
<title>c80068</title>
<g id="a_node3"><a xlink:href="EvaluateRankingQuality.html" xlink:title="&lt;TABLE&gt;">
<g id="a_node3_2"><a xlink:href="EvaluateRankingQuality.html" xlink:title="de.lmu.ifi.dbs.elki.algorithm.statistics.EvaluateRankingQuality" target="_parent">
<polygon fill="none" stroke="#000000" points="218.5,-167.5 218.5,-184.5 318.5,-184.5 318.5,-167.5 218.5,-167.5"/>
<text text-anchor="start" x="222.5" y="-175.1" font-family="Roboto" font-size="8.00" fill="#000000"> </text>
<text text-anchor="start" x="225.5" y="-175.1" font-family="Roboto" font-size="8.00" fill="#000000">EvaluateRankingQuality</text>
<text text-anchor="start" x="311.5" y="-175.1" font-family="Roboto" font-size="8.00" fill="#000000"> </text>
</a>
</g>
</a>
</g>
</g>
<!-- c80070 -->
<g id="node4" class="node">
<title>c80070</title>
<g id="a_node4"><a xlink:href="RankingQualityHistogram.html" xlink:title="&lt;TABLE&gt;">
<g id="a_node4_3"><a xlink:href="RankingQualityHistogram.html" xlink:title="de.lmu.ifi.dbs.elki.algorithm.statistics.RankingQualityHistogram" target="_parent">
<polygon fill="none" stroke="#000000" points="215.5,-139.5 215.5,-156.5 322.5,-156.5 322.5,-139.5 215.5,-139.5"/>
<text text-anchor="start" x="219.5" y="-147.1" font-family="Roboto" font-size="8.00" fill="#000000"> </text>
<text text-anchor="start" x="222.5" y="-147.1" font-family="Roboto" font-size="8.00" fill="#000000">RankingQualityHistogram</text>
<text text-anchor="start" x="315.5" y="-147.1" font-family="Roboto" font-size="8.00" fill="#000000"> </text>
</a>
</g>
</a>
</g>
</g>
<!-- c80072 -->
<g id="node5" class="node">
<title>c80072</title>
<g id="a_node5"><a xlink:href="AddSingleScale.html" xlink:title="&lt;TABLE&gt;">
<g id="a_node5_4"><a xlink:href="AddSingleScale.html" xlink:title="de.lmu.ifi.dbs.elki.algorithm.statistics.AddSingleScale" target="_parent">
<polygon fill="none" stroke="#000000" points="234.5,-223.5 234.5,-240.5 303.5,-240.5 303.5,-223.5 234.5,-223.5"/>
<text text-anchor="start" x="238.5" y="-231.1" font-family="Roboto" font-size="8.00" fill="#000000"> </text>
<text text-anchor="start" x="241.5" y="-231.1" font-family="Roboto" font-size="8.00" fill="#000000">AddSingleScale</text>
<text text-anchor="start" x="296.5" y="-231.1" font-family="Roboto" font-size="8.00" fill="#000000"> </text>
</a>
</g>
</a>
</g>
</g>
<!-- c80074 -->
<g id="node6" class="node">
<title>c80074</title>
<g id="a_node6"><a xlink:href="EstimateIntrinsicDimensionality.html" xlink:title="&lt;TABLE&gt;">
<g id="a_node6_5"><a xlink:href="EstimateIntrinsicDimensionality.html" xlink:title="de.lmu.ifi.dbs.elki.algorithm.statistics.EstimateIntrinsicDimensionality" target="_parent">
<polygon fill="none" stroke="#000000" points="205.5,-111.5 205.5,-128.5 331.5,-128.5 331.5,-111.5 205.5,-111.5"/>
<text text-anchor="start" x="209.5" y="-119.1" font-family="Roboto" font-size="8.00" fill="#000000"> </text>
<text text-anchor="start" x="212.5" y="-119.1" font-family="Roboto" font-size="8.00" fill="#000000">EstimateIntrinsicDimensionality</text>
<text text-anchor="start" x="324.5" y="-119.1" font-family="Roboto" font-size="8.00" fill="#000000"> </text>
</a>
</g>
</a>
</g>
</g>
<!-- c80076 -->
<g id="node7" class="node">
<title>c80076</title>
<g id="a_node7"><a xlink:href="AveragePrecisionAtK.html" xlink:title="&lt;TABLE&gt;">
<g id="a_node7_6"><a xlink:href="AveragePrecisionAtK.html" xlink:title="de.lmu.ifi.dbs.elki.algorithm.statistics.AveragePrecisionAtK" target="_parent">
<polygon fill="none" stroke="#000000" points="225.5,-83.5 225.5,-100.5 312.5,-100.5 312.5,-83.5 225.5,-83.5"/>
<text text-anchor="start" x="229.5" y="-91.1" font-family="Roboto" font-size="8.00" fill="#000000"> </text>
<text text-anchor="start" x="232.5" y="-91.1" font-family="Roboto" font-size="8.00" fill="#000000">AveragePrecisionAtK</text>
<text text-anchor="start" x="305.5" y="-91.1" font-family="Roboto" font-size="8.00" fill="#000000"> </text>
</a>
</g>
</a>
</g>
</g>
<!-- c80078 -->
<g id="node8" class="node">
<title>c80078</title>
<g id="a_node8"><a xlink:href="HopkinsStatisticClusteringTendency.html" xlink:title="&lt;TABLE&gt;">
<g id="a_node8_7"><a xlink:href="HopkinsStatisticClusteringTendency.html" xlink:title="de.lmu.ifi.dbs.elki.algorithm.statistics.HopkinsStatisticClusteringTendency" target="_parent">
<polygon fill="none" stroke="#000000" points="198.5,-304.5 198.5,-321.5 339.5,-321.5 339.5,-304.5 198.5,-304.5"/>
<text text-anchor="start" x="202.5" y="-312.1" font-family="Roboto" font-size="8.00" fill="#000000"> </text>
<text text-anchor="start" x="205.5" y="-312.1" font-family="Roboto" font-size="8.00" fill="#000000">HopkinsStatisticClusteringTendency</text>
<text text-anchor="start" x="332.5" y="-312.1" font-family="Roboto" font-size="8.00" fill="#000000"> </text>
</a>
</g>
</a>
</g>
</g>
<!-- c80080 -->
<g id="node9" class="node">
<title>c80080</title>
<g id="a_node9"><a xlink:href="EvaluateRetrievalPerformance.html" xlink:title="&lt;TABLE&gt;">
<g id="a_node9_8"><a xlink:href="EvaluateRetrievalPerformance.html" xlink:title="de.lmu.ifi.dbs.elki.algorithm.statistics.EvaluateRetrievalPerformance" target="_parent">
<polygon fill="none" stroke="#000000" points="208.5,-55.5 208.5,-72.5 328.5,-72.5 328.5,-55.5 208.5,-55.5"/>
<text text-anchor="start" x="212.5" y="-63.1" font-family="Roboto" font-size="8.00" fill="#000000"> </text>
<text text-anchor="start" x="215.5" y="-63.1" font-family="Roboto" font-size="8.00" fill="#000000">EvaluateRetrievalPerformance</text>
<text text-anchor="start" x="321.5" y="-63.1" font-family="Roboto" font-size="8.00" fill="#000000"> </text>
</a>
</g>
</a>
</g>
</g>
<!-- c80081 -->
<g id="node10" class="node">
<title>c80081</title>
<g id="a_node10"><a xlink:href="EvaluateRetrievalPerformance.KNNEvaluator.html" xlink:title="&lt;TABLE&gt;">
<g id="a_node10_9"><a xlink:href="EvaluateRetrievalPerformance.KNNEvaluator.html" xlink:title="de.lmu.ifi.dbs.elki.algorithm.statistics.EvaluateRetrievalPerformance.KNNEvaluator" target="_parent">
<polygon fill="none" stroke="#000000" points="380.5,-55.5 380.5,-72.5 552.5,-72.5 552.5,-55.5 380.5,-55.5"/>
<text text-anchor="start" x="384.5" y="-63.1" font-family="Roboto" font-size="8.00" fill="#000000"> </text>
<text text-anchor="start" x="387.5" y="-63.1" font-family="Roboto" font-size="8.00" fill="#000000">EvaluateRetrievalPerformance.KNNEvaluator</text>
<text text-anchor="start" x="545.5" y="-63.1" font-family="Roboto" font-size="8.00" fill="#000000"> </text>
</a>
</g>
</a>
</g>
</g>
<!-- c80080&#45;&gt;c80081 -->
<g id="edge10" class="edge">
<title>c80080&#45;&gt;c80081</title>
<path fill="none" stroke="#000000" d="M340.7949,-64.5C353.6361,-64.5 367.1252,-64.5 380.3062,-64.5"/>
<polygon fill="#000000" stroke="#000000" points="340.713,-64.5001 334.7129,-68.5 328.713,-64.5 334.713,-60.5 340.713,-64.5001"/>
</g>
<!-- c80082 -->
<g id="node11" class="node">
<title>c80082</title>
<g id="a_node11"><a xlink:href="EvaluateRetrievalPerformance.RetrievalPerformanceResult.html" xlink:title="&lt;TABLE&gt;">
<g id="a_node11_10"><a xlink:href="EvaluateRetrievalPerformance.RetrievalPerformanceResult.html" xlink:title="de.lmu.ifi.dbs.elki.algorithm.statistics.EvaluateRetrievalPerformance.RetrievalPerformanceResult" target="_parent">
<polygon fill="none" stroke="#000000" points="357.5,-27.5 357.5,-44.5 576.5,-44.5 576.5,-27.5 357.5,-27.5"/>
<text text-anchor="start" x="361.5" y="-35.1" font-family="Roboto" font-size="8.00" fill="#000000"> </text>
<text text-anchor="start" x="364.5" y="-35.1" font-family="Roboto" font-size="8.00" fill="#000000">EvaluateRetrievalPerformance.RetrievalPerformanceResult</text>
<text text-anchor="start" x="569.5" y="-35.1" font-family="Roboto" font-size="8.00" fill="#000000"> </text>
</a>
</g>
</a>
</g>
</g>
<!-- c80080&#45;&gt;c80082 -->
<g id="edge11" class="edge">
<title>c80080&#45;&gt;c80082</title>
<path fill="none" stroke="#000000" d="M333.009,-54.0667C341.0813,-52.8285 349.2283,-51.6113 357,-50.5 370.0908,-48.6281 384.0797,-46.7483 397.5316,-45.0007"/>
<polygon fill="none" stroke="#000000" points="332.7316,-54.1097 327.4164,-58.983 320.8737,-55.951 326.1889,-51.0777 332.7316,-54.1097"/>
</g>
<!-- c80084 -->
<g id="node12" class="node">
<title>c80084</title>
<g id="a_node12"><a xlink:href="DistanceQuantileSampler.html" xlink:title="&lt;TABLE&gt;">
<g id="a_node12_11"><a xlink:href="DistanceQuantileSampler.html" xlink:title="de.lmu.ifi.dbs.elki.algorithm.statistics.DistanceQuantileSampler" target="_parent">
<polygon fill="none" stroke="#000000" points="216.5,-27.5 216.5,-44.5 321.5,-44.5 321.5,-27.5 216.5,-27.5"/>
<text text-anchor="start" x="220.5" y="-35.1" font-family="Roboto" font-size="8.00" fill="#000000"> </text>
<text text-anchor="start" x="223.5" y="-35.1" font-family="Roboto" font-size="8.00" fill="#000000">DistanceQuantileSampler</text>
<text text-anchor="start" x="314.5" y="-35.1" font-family="Roboto" font-size="8.00" fill="#000000"> </text>
</a>
</g>
</a>
</g>
</g>
<!-- c80086 -->
<g id="node13" class="node">
<title>c80086</title>
<g id="a_node13"><a xlink:href="RangeQuerySelectivity.html" xlink:title="&lt;TABLE&gt;">
<g id="a_node13_12"><a xlink:href="RangeQuerySelectivity.html" xlink:title="de.lmu.ifi.dbs.elki.algorithm.statistics.RangeQuerySelectivity" target="_parent">
<polygon fill="none" stroke="#000000" points="222.5,.5 222.5,-16.5 315.5,-16.5 315.5,.5 222.5,.5"/>
<text text-anchor="start" x="226.5" y="-7.1" font-family="Roboto" font-size="8.00" fill="#000000"> </text>
<text text-anchor="start" x="229.5" y="-7.1" font-family="Roboto" font-size="8.00" fill="#000000">RangeQuerySelectivity</text>
<text text-anchor="start" x="308.5" y="-7.1" font-family="Roboto" font-size="8.00" fill="#000000"> </text>
</a>
</g>
</a>
</g>
</g>
<!-- c81009 -->
<g id="node14" class="node">
<title>c81009</title>
<g id="a_node14"><a xlink:href="../AbstractDistanceBasedAlgorithm.html" xlink:title="&lt;TABLE&gt;">
<g id="a_node14_13"><a xlink:href="../AbstractDistanceBasedAlgorithm.html" xlink:title="de.lmu.ifi.dbs.elki.algorithm.AbstractDistanceBasedAlgorithm" target="_parent">
<polygon fill="#fffacd" stroke="transparent" points="25,-92.5 25,-120.5 155,-120.5 155,-92.5 25,-92.5"/>
<polygon fill="none" stroke="#000000" points="25,-92.5 25,-120.5 155,-120.5 155,-92.5 25,-92.5"/>
<text text-anchor="start" x="29" y="-111.1" font-family="Roboto" font-size="8.00" fill="#000000"> </text>
<text text-anchor="start" x="32" y="-111.1" font-family="Roboto" font-style="italic" font-size="8.00" fill="#000000">AbstractDistanceBasedAlgorithm</text>
<text text-anchor="start" x="148" y="-111.1" font-family="Roboto" font-size="8.00" fill="#000000"> </text>
<text text-anchor="start" x="41.5" y="-100.1" font-family="Roboto" font-size="8.00" fill="#000000"> </text>
<text text-anchor="start" x="44.5" y="-100.1" font-family="Roboto" font-size="7.00" fill="#000000">de.lmu.ifi.dbs.elki.algorithm</text>
<text text-anchor="start" x="135.5" y="-100.1" font-family="Roboto" font-size="8.00" fill="#000000"> </text>
</a>
</g>
</a>
</g>
</g>
<!-- c81009&#45;&gt;c80065 -->
<g id="edge1" class="edge">
<title>c81009&#45;&gt;c80065</title>
<path fill="none" stroke="#000000" d="M110.7634,-127.5369C131.1652,-146.9387 164.09,-175.0082 198,-190.5 202.6536,-192.626 207.6249,-194.4301 212.6928,-195.9609"/>
<polygon fill="none" stroke="#000000" points="113.1961,-125.0205 103.5815,-120.5696 108.322,-130.0448 113.1961,-125.0205"/>
</g>
<!-- c81009&#45;&gt;c80068 -->
<g id="edge3" class="edge">
<title>c81009&#45;&gt;c80068</title>
<path fill="none" stroke="#000000" d="M121.532,-125.8779C142.522,-138.0052 171.0888,-153.0655 198,-162.5 204.4767,-164.7706 211.4246,-166.7118 218.3423,-168.3603"/>
<polygon fill="none" stroke="#000000" points="123.1365,-122.7613 112.7413,-120.7145 119.5912,-128.7971 123.1365,-122.7613"/>
</g>
<!-- c81009&#45;&gt;c80070 -->
<g id="edge4" class="edge">
<title>c81009&#45;&gt;c80070</title>
<path fill="none" stroke="#000000" d="M151.5427,-123.1096C166.6905,-127.017 182.8978,-131.0458 198,-134.5 206.2718,-136.3919 215.1235,-138.2666 223.6633,-139.9996"/>
<polygon fill="none" stroke="#000000" points="152.3226,-119.6961 141.7636,-120.5668 150.5609,-126.4708 152.3226,-119.6961"/>
</g>
<!-- c81009&#45;&gt;c80074 -->
<g id="edge6" class="edge">
<title>c81009&#45;&gt;c80074</title>
<path fill="none" stroke="#000000" d="M165.2767,-112.4041C178.5884,-113.4481 192.3255,-114.5255 205.2634,-115.5403"/>
<polygon fill="none" stroke="#000000" points="165.4434,-108.9065 155.2003,-111.6137 164.896,-115.885 165.4434,-108.9065"/>
</g>
<!-- c81009&#45;&gt;c80076 -->
<g id="edge7" class="edge">
<title>c81009&#45;&gt;c80076</title>
<path fill="none" stroke="#000000" d="M165.3877,-100.5872C185.6944,-98.9946 206.9824,-97.3249 224.9076,-95.919"/>
<polygon fill="none" stroke="#000000" points="164.896,-97.115 155.2003,-101.3863 165.4434,-104.0935 164.896,-97.115"/>
</g>
<!-- c81009&#45;&gt;c80080 -->
<g id="edge9" class="edge">
<title>c81009&#45;&gt;c80080</title>
<path fill="none" stroke="#000000" d="M151.5427,-89.8904C166.6905,-85.983 182.8978,-81.9542 198,-78.5 206.2718,-76.6081 215.1235,-74.7334 223.6633,-73.0004"/>
<polygon fill="none" stroke="#000000" points="150.5609,-86.5292 141.7636,-92.4332 152.3226,-93.3039 150.5609,-86.5292"/>
</g>
<!-- c81009&#45;&gt;c80084 -->
<g id="edge12" class="edge">
<title>c81009&#45;&gt;c80084</title>
<path fill="none" stroke="#000000" d="M121.532,-87.1221C142.522,-74.9948 171.0888,-59.9345 198,-50.5 204.0057,-48.3945 210.4165,-46.5723 216.8327,-45.0041"/>
<polygon fill="none" stroke="#000000" points="119.5912,-84.2029 112.7413,-92.2855 123.1365,-90.2387 119.5912,-84.2029"/>
</g>
<!-- c81009&#45;&gt;c80086 -->
<g id="edge13" class="edge">
<title>c81009&#45;&gt;c80086</title>
<path fill="none" stroke="#000000" d="M110.7634,-85.4631C131.1652,-66.0613 164.09,-37.9918 198,-22.5 205.3776,-19.1295 213.5538,-16.568 221.6474,-14.6221"/>
<polygon fill="none" stroke="#000000" points="108.322,-82.9552 103.5815,-92.4304 113.1961,-87.9795 108.322,-82.9552"/>
</g>
<!-- c81011 -->
<g id="node15" class="node">
<title>c81011</title>
<g id="a_node15"><a xlink:href="../AbstractNumberVectorDistanceBasedAlgorithm.html" xlink:title="&lt;TABLE&gt;">
<g id="a_node15_14"><a xlink:href="../AbstractNumberVectorDistanceBasedAlgorithm.html" xlink:title="de.lmu.ifi.dbs.elki.algorithm.AbstractNumberVectorDistanceBasedAlgorithm" target="_parent">
<polygon fill="none" stroke="#000000" points="0,-299.5 0,-327.5 180,-327.5 180,-299.5 0,-299.5"/>
<text text-anchor="start" x="4" y="-318.1" font-family="Roboto" font-size="8.00" fill="#000000"> </text>
<text text-anchor="start" x="7" y="-318.1" font-family="Roboto" font-style="italic" font-size="8.00" fill="#000000">AbstractNumberVectorDistanceBasedAlgorithm</text>
<text text-anchor="start" x="173" y="-318.1" font-family="Roboto" font-size="8.00" fill="#000000"> </text>
<text text-anchor="start" x="41.5" y="-307.1" font-family="Roboto" font-size="8.00" fill="#000000"> </text>
<text text-anchor="start" x="44.5" y="-307.1" font-family="Roboto" font-size="7.00" fill="#000000">de.lmu.ifi.dbs.elki.algorithm</text>
<text text-anchor="start" x="135.5" y="-307.1" font-family="Roboto" font-size="8.00" fill="#000000"> </text>
</a>
</g>
</a>
</g>
</g>
<!-- c81011&#45;&gt;c80078 -->
<g id="edge8" class="edge">
<title>c81011&#45;&gt;c80078</title>
<path fill="none" stroke="#000000" d="M190.0995,-313.5C192.6979,-313.5 195.2839,-313.5 197.8484,-313.5"/>
<polygon fill="none" stroke="#000000" points="190.0344,-310.0001 180.0344,-313.5 190.0344,-317.0001 190.0344,-310.0001"/>
</g>
<!-- c81105 -->
<g id="node16" class="node">
<title>c81105</title>
<g id="a_node16"><a xlink:href="../Algorithm.html" xlink:title="&lt;TABLE&gt;">
<g id="a_node16_15"><a xlink:href="../Algorithm.html" xlink:title="de.lmu.ifi.dbs.elki.algorithm.Algorithm" target="_parent">
<polygon fill="#fffacd" stroke="transparent" points="37.5,-204.5 37.5,-288.5 142.5,-288.5 142.5,-204.5 37.5,-204.5"/>
<polygon fill="none" stroke="#000000" points="38,-249.5 38,-288.5 143,-288.5 143,-249.5 38,-249.5"/>
<text text-anchor="start" x="69" y="-278.1" font-family="Roboto" font-size="8.00" fill="#000000"> «interface» </text>
<text text-anchor="start" x="70" y="-268.1" font-family="Roboto" font-size="8.00" fill="#000000"> </text>
<text text-anchor="start" x="73" y="-268.1" font-family="Roboto" font-size="8.00" fill="#000000">Algorithm</text>
<text text-anchor="start" x="108" y="-268.1" font-family="Roboto" font-size="8.00" fill="#000000"> </text>
<text text-anchor="start" x="42" y="-257.1" font-family="Roboto" font-size="8.00" fill="#000000"> </text>
<text text-anchor="start" x="45" y="-257.1" font-family="Roboto" font-size="7.00" fill="#000000">de.lmu.ifi.dbs.elki.algorithm</text>
<text text-anchor="start" x="136" y="-257.1" font-family="Roboto" font-size="8.00" fill="#000000"> </text>
<polygon fill="none" stroke="#000000" points="38,-232.5 38,-249.5 143,-249.5 143,-232.5 38,-232.5"/>
<text text-anchor="start" x="42" y="-239.1" font-family="Roboto" font-size="8.00" fill="#000000"> &#160;</text>
<polygon fill="none" stroke="#000000" points="38,-204.5 38,-232.5 143,-232.5 143,-204.5 38,-204.5"/>
<text text-anchor="start" x="42" y="-223.1" font-family="Roboto" font-size="8.00" fill="#000000"> </text>
<text text-anchor="start" x="45" y="-223.1" font-family="Roboto" font-style="italic" font-size="8.00" fill="#000000"> run()</text>
<text text-anchor="start" x="66" y="-223.1" font-family="Roboto" font-size="8.00" fill="#000000"> </text>
<text text-anchor="start" x="42" y="-212.1" font-family="Roboto" font-size="8.00" fill="#000000"> </text>
<text text-anchor="start" x="45" y="-212.1" font-family="Roboto" font-style="italic" font-size="8.00" fill="#000000"> getInputTypeRestriction()</text>
<text text-anchor="start" x="136" y="-212.1" font-family="Roboto" font-size="8.00" fill="#000000"> </text>
</a>
</g>
</a>
</g>
</g>
<!-- c81105&#45;&gt;c80067 -->
<g id="edge2" class="edge">
<title>c81105&#45;&gt;c80067</title>
<path fill="none" stroke="#000000" stroke-dasharray="5,2" d="M152.6412,-251.413C178.3678,-253.4308 207.3408,-255.7032 229.8781,-257.4708"/>
<polygon fill="none" stroke="#000000" points="152.8335,-247.9175 142.5904,-250.6247 152.2861,-254.896 152.8335,-247.9175"/>
</g>
<!-- c81105&#45;&gt;c80072 -->
<g id="edge5" class="edge">
<title>c81105&#45;&gt;c80072</title>
<path fill="none" stroke="#000000" stroke-dasharray="5,2" d="M152.8095,-241.5738C179.9948,-239.4416 210.7777,-237.0272 233.7525,-235.2253"/>
<polygon fill="none" stroke="#000000" points="152.2861,-238.104 142.5904,-242.3753 152.8335,-245.0825 152.2861,-238.104"/>
</g>
</g>
</svg>
