<?xml version="1.0" encoding="UTF-8" standalone="no"?>
<!DOCTYPE svg PUBLIC "-//W3C//DTD SVG 1.1//EN"
 "http://www.w3.org/Graphics/SVG/1.1/DTD/svg11.dtd">
<!-- Generated by graphviz version 2.40.1 (20161225.0304)
 -->
<!-- Title: G Pages: 1 -->
<svg width="491pt" height="36pt"
 viewBox="0.00 0.00 491.00 36.00" xmlns="http://www.w3.org/2000/svg" xmlns:xlink="http://www.w3.org/1999/xlink">
<g id="graph0" class="graph" transform="scale(1 1) rotate(0) translate(4 32)">
<title>G</title>
<polygon fill="#ffffff" stroke="transparent" points="-4,4 -4,-32 487,-32 487,4 -4,4"/>
<!-- c5118336 -->
<g id="node1" class="node">
<title>c5118336</title>
<g id="a_node1"><a xlink:href="HopkinsStatisticClusteringTendency.html" xlink:title="&lt;TABLE&gt;">
<g id="a_node1_0"><a xlink:href="HopkinsStatisticClusteringTendency.html" xlink:title="de.lmu.ifi.dbs.elki.algorithm.statistics.HopkinsStatisticClusteringTendency" target="_parent">
<polygon fill="#fffacd" stroke="transparent" points="198,-5.5 198,-22.5 339,-22.5 339,-5.5 198,-5.5"/>
<polygon fill="none" stroke="#000000" points="198.5,-5 198.5,-22 339.5,-22 339.5,-5 198.5,-5"/>
<text text-anchor="start" x="202.5" y="-12.6" font-family="Roboto" font-size="8.00" fill="#000000"> </text>
<text text-anchor="start" x="205.5" y="-12.6" font-family="Roboto" font-size="8.00" fill="#000000">HopkinsStatisticClusteringTendency</text>
<text text-anchor="start" x="332.5" y="-12.6" font-family="Roboto" font-size="8.00" fill="#000000"> </text>
</a>
</g>
</a>
</g>
</g>
<!-- c5120136 -->
<g id="node3" class="node">
<title>c5120136</title>
<g id="a_node3"><a xlink:href="../../utilities/random/RandomFactory.html" xlink:title="&lt;TABLE&gt;">
<g id="a_node3_1"><a xlink:href="../../utilities/random/RandomFactory.html" xlink:title="de.lmu.ifi.dbs.elki.utilities.random.RandomFactory" target="_parent">
<polygon fill="none" stroke="#000000" points="357,0 357,-28 483,-28 483,0 357,0"/>
<text text-anchor="start" x="389.5" y="-18.6" font-family="Roboto" font-size="8.00" fill="#000000"> </text>
<text text-anchor="start" x="392.5" y="-18.6" font-family="Roboto" font-size="8.00" fill="#000000">RandomFactory</text>
<text text-anchor="start" x="447.5" y="-18.6" font-family="Roboto" font-size="8.00" fill="#000000"> </text>
<text text-anchor="start" x="361" y="-7.6" font-family="Roboto" font-size="8.00" fill="#000000"> </text>
<text text-anchor="start" x="364" y="-7.6" font-family="Roboto" font-size="7.00" fill="#000000">de.lmu.ifi.dbs.elki.utilities.random</text>
<text text-anchor="start" x="476" y="-7.6" font-family="Roboto" font-size="8.00" fill="#000000"> </text>
</a>
</g>
</a>
</g>
</g>
<!-- c5118336&#45;&gt;c5120136 -->
<g id="edge2" class="edge">
<title>c5118336&#45;&gt;c5120136</title>
<path fill="none" stroke="#000000" d="M339.3707,-14C341.8398,-14 344.3159,-14 346.7884,-14"/>
<polygon fill="#000000" stroke="#000000" points="356.9056,-14 346.9057,-18.5001 351.9056,-14 346.9056,-14.0001 346.9056,-14.0001 346.9056,-14.0001 351.9056,-14 346.9056,-9.5001 356.9056,-14 356.9056,-14"/>
</g>
<!-- c5119269 -->
<g id="node2" class="node">
<title>c5119269</title>
<g id="a_node2"><a xlink:href="../AbstractNumberVectorDistanceBasedAlgorithm.html" xlink:title="&lt;TABLE&gt;">
<g id="a_node2_2"><a xlink:href="../AbstractNumberVectorDistanceBasedAlgorithm.html" xlink:title="de.lmu.ifi.dbs.elki.algorithm.AbstractNumberVectorDistanceBasedAlgorithm" target="_parent">
<polygon fill="none" stroke="#000000" points="0,0 0,-28 180,-28 180,0 0,0"/>
<text text-anchor="start" x="4" y="-18.6" font-family="Roboto" font-size="8.00" fill="#000000"> </text>
<text text-anchor="start" x="7" y="-18.6" font-family="Roboto" font-style="italic" font-size="8.00" fill="#000000">AbstractNumberVectorDistanceBasedAlgorithm</text>
<text text-anchor="start" x="173" y="-18.6" font-family="Roboto" font-size="8.00" fill="#000000"> </text>
<text text-anchor="start" x="41.5" y="-7.6" font-family="Roboto" font-size="8.00" fill="#000000"> </text>
<text text-anchor="start" x="44.5" y="-7.6" font-family="Roboto" font-size="7.00" fill="#000000">de.lmu.ifi.dbs.elki.algorithm</text>
<text text-anchor="start" x="135.5" y="-7.6" font-family="Roboto" font-size="8.00" fill="#000000"> </text>
</a>
</g>
</a>
</g>
</g>
<!-- c5119269&#45;&gt;c5118336 -->
<g id="edge1" class="edge">
<title>c5119269&#45;&gt;c5118336</title>
<path fill="none" stroke="#000000" d="M190.0995,-14C192.6979,-14 195.2839,-14 197.8484,-14"/>
<polygon fill="none" stroke="#000000" points="190.0344,-10.5001 180.0344,-14 190.0344,-17.5001 190.0344,-10.5001"/>
</g>
</g>
</svg>
