<?xml version="1.0" encoding="UTF-8" standalone="no"?>
<!DOCTYPE svg PUBLIC "-//W3C//DTD SVG 1.1//EN"
 "http://www.w3.org/Graphics/SVG/1.1/DTD/svg11.dtd">
<!-- Generated by graphviz version 2.40.1 (20161225.0304)
 -->
<!-- Title: G Pages: 1 -->
<svg width="196pt" height="25pt"
 viewBox="0.00 0.00 196.00 25.00" xmlns="http://www.w3.org/2000/svg" xmlns:xlink="http://www.w3.org/1999/xlink">
<g id="graph0" class="graph" transform="scale(1 1) rotate(0) translate(4 21)">
<title>G</title>
<polygon fill="#ffffff" stroke="transparent" points="-4,4 -4,-21 192,-21 192,4 -4,4"/>
<!-- c10254962 -->
<g id="node1" class="node">
<title>c10254962</title>
<g id="a_node1"><a xlink:href="AbortException.html" xlink:title="&lt;TABLE&gt;">
<g id="a_node1_0"><a xlink:href="AbortException.html" xlink:title="de.lmu.ifi.dbs.elki.utilities.exceptions.AbortException" target="_parent">
<polygon fill="none" stroke="#000000" points="0,.5 0,-16.5 66,-16.5 66,.5 0,.5"/>
<text text-anchor="start" x="4" y="-7.1" font-family="Roboto" font-size="8.00" fill="#000000"> </text>
<text text-anchor="start" x="7" y="-7.1" font-family="Roboto" font-size="8.00" fill="#000000">AbortException</text>
<text text-anchor="start" x="59" y="-7.1" font-family="Roboto" font-size="8.00" fill="#000000"> </text>
</a>
</g>
</a>
</g>
</g>
<!-- c10254965 -->
<g id="node2" class="node">
<title>c10254965</title>
<g id="a_node2"><a xlink:href="TooManyRetriesException.html" xlink:title="&lt;TABLE&gt;">
<g id="a_node2_1"><a xlink:href="TooManyRetriesException.html" xlink:title="de.lmu.ifi.dbs.elki.utilities.exceptions.TooManyRetriesException" target="_parent">
<polygon fill="#fffacd" stroke="transparent" points="84,0 84,-17 188,-17 188,0 84,0"/>
<polygon fill="none" stroke="#000000" points="84,.5 84,-16.5 188,-16.5 188,.5 84,.5"/>
<text text-anchor="start" x="88" y="-7.1" font-family="Roboto" font-size="8.00" fill="#000000"> </text>
<text text-anchor="start" x="91" y="-7.1" font-family="Roboto" font-size="8.00" fill="#000000">TooManyRetriesException</text>
<text text-anchor="start" x="181" y="-7.1" font-family="Roboto" font-size="8.00" fill="#000000"> </text>
</a>
</g>
</a>
</g>
</g>
<!-- c10254962&#45;&gt;c10254965 -->
<g id="edge1" class="edge">
<title>c10254962&#45;&gt;c10254965</title>
<path fill="none" stroke="#000000" d="M76.2248,-8.5C78.7258,-8.5 81.2534,-8.5 83.7833,-8.5"/>
<polygon fill="none" stroke="#000000" points="76.1568,-5.0001 66.1568,-8.5 76.1568,-12.0001 76.1568,-5.0001"/>
</g>
</g>
</svg>
