<?xml version="1.0" encoding="UTF-8" standalone="no"?>
<!DOCTYPE svg PUBLIC "-//W3C//DTD SVG 1.1//EN"
 "http://www.w3.org/Graphics/SVG/1.1/DTD/svg11.dtd">
<!-- Generated by graphviz version 2.40.1 (20161225.0304)
 -->
<!-- Title: G Pages: 1 -->
<svg width="489pt" height="159pt"
 viewBox="0.00 0.00 489.00 158.78" xmlns="http://www.w3.org/2000/svg" xmlns:xlink="http://www.w3.org/1999/xlink">
<g id="graph0" class="graph" transform="scale(1 1) rotate(0) translate(4 154.7769)">
<title>G</title>
<polygon fill="#ffffff" stroke="transparent" points="-4,4 -4,-154.7769 485,-154.7769 485,4 -4,4"/>
<!-- c6200036 -->
<g id="node1" class="node">
<title>c6200036</title>
<g id="a_node1"><a xlink:href="../NumberVector.html" xlink:title="&lt;TABLE&gt;">
<g id="a_node1_0"><a xlink:href="../NumberVector.html" xlink:title="de.lmu.ifi.dbs.elki.data.NumberVector" target="_parent">
<polygon fill="#fffacd" stroke="transparent" points="394,-87.9419 394,-126.9419 481,-126.9419 481,-87.9419 394,-87.9419"/>
<polygon fill="none" stroke="#000000" points="394.5,-87.4419 394.5,-126.4419 481.5,-126.4419 481.5,-87.4419 394.5,-87.4419"/>
<text text-anchor="start" x="416.5" y="-116.0419" font-family="Roboto" font-size="8.00" fill="#000000"> «interface» </text>
<text text-anchor="start" x="409.5" y="-106.0419" font-family="Roboto" font-size="8.00" fill="#000000"> </text>
<text text-anchor="start" x="412.5" y="-106.0419" font-family="Roboto" font-size="8.00" fill="#000000">NumberVector</text>
<text text-anchor="start" x="463.5" y="-106.0419" font-family="Roboto" font-size="8.00" fill="#000000"> </text>
<text text-anchor="start" x="398.5" y="-95.0419" font-family="Roboto" font-size="8.00" fill="#000000"> </text>
<text text-anchor="start" x="401.5" y="-95.0419" font-family="Roboto" font-size="7.00" fill="#000000">de.lmu.ifi.dbs.elki.data</text>
<text text-anchor="start" x="474.5" y="-95.0419" font-family="Roboto" font-size="8.00" fill="#000000"> </text>
</a>
</g>
</a>
</g>
</g>
<!-- c6200037 -->
<g id="node2" class="node">
<title>c6200037</title>
<g id="a_node2"><a xlink:href="../NumberVector.Factory.html" xlink:title="&lt;TABLE&gt;">
<g id="a_node2_1"><a xlink:href="../NumberVector.Factory.html" xlink:title="de.lmu.ifi.dbs.elki.data.NumberVector.Factory" target="_parent">
<polygon fill="none" stroke="#000000" points="271.5,-87.4419 271.5,-126.4419 363.5,-126.4419 363.5,-87.4419 271.5,-87.4419"/>
<text text-anchor="start" x="296" y="-116.0419" font-family="Roboto" font-size="8.00" fill="#000000"> «interface» </text>
<text text-anchor="start" x="275.5" y="-106.0419" font-family="Roboto" font-size="8.00" fill="#000000"> </text>
<text text-anchor="start" x="278.5" y="-106.0419" font-family="Roboto" font-size="8.00" fill="#000000">NumberVector.Factory</text>
<text text-anchor="start" x="356.5" y="-106.0419" font-family="Roboto" font-size="8.00" fill="#000000"> </text>
<text text-anchor="start" x="278" y="-95.0419" font-family="Roboto" font-size="8.00" fill="#000000"> </text>
<text text-anchor="start" x="281" y="-95.0419" font-family="Roboto" font-size="7.00" fill="#000000">de.lmu.ifi.dbs.elki.data</text>
<text text-anchor="start" x="354" y="-95.0419" font-family="Roboto" font-size="8.00" fill="#000000"> </text>
</a>
</g>
</a>
</g>
</g>
<!-- c6200037&#45;&gt;c6200036 -->
<g id="edge1" class="edge">
<title>c6200037&#45;&gt;c6200036</title>
<path fill="none" stroke="#000000" d="M375.8231,-107.4419C381.8549,-107.4419 387.9093,-107.4419 393.7422,-107.4419"/>
<polygon fill="none" stroke="#000000" points="375.5519,-107.442 369.5519,-111.4419 363.5519,-107.4419 369.552,-103.4419 375.5519,-107.442"/>
</g>
<!-- c6200060 -->
<g id="node3" class="node">
<title>c6200060</title>
<g id="a_node3"><a xlink:href="Projection.html" xlink:title="&lt;TABLE&gt;">
<g id="a_node3_2"><a xlink:href="Projection.html" xlink:title="de.lmu.ifi.dbs.elki.data.projection.Projection" target="_parent">
<polygon fill="none" stroke="#000000" points="36.5,-43.4419 36.5,-71.4419 87.5,-71.4419 87.5,-43.4419 36.5,-43.4419"/>
<text text-anchor="start" x="40.5" y="-61.0419" font-family="Roboto" font-size="8.00" fill="#000000"> «interface» </text>
<text text-anchor="start" x="42" y="-51.0419" font-family="Roboto" font-size="8.00" fill="#000000"> </text>
<text text-anchor="start" x="45" y="-51.0419" font-family="Roboto" font-size="8.00" fill="#000000">Projection</text>
<text text-anchor="start" x="79" y="-51.0419" font-family="Roboto" font-size="8.00" fill="#000000"> </text>
</a>
</g>
</a>
</g>
</g>
<!-- c6201133 -->
<g id="node6" class="node">
<title>c6201133</title>
<g id="a_node6"><a xlink:href="LatLngToECEFProjection.html" xlink:title="&lt;TABLE&gt;">
<g id="a_node6_3"><a xlink:href="LatLngToECEFProjection.html" xlink:title="de.lmu.ifi.dbs.elki.data.projection.LatLngToECEFProjection" target="_parent">
<polygon fill="#fffacd" stroke="transparent" points="141,-48.9419 141,-65.9419 241,-65.9419 241,-48.9419 141,-48.9419"/>
<polygon fill="none" stroke="#000000" points="141,-48.4419 141,-65.4419 241,-65.4419 241,-48.4419 141,-48.4419"/>
<text text-anchor="start" x="145" y="-56.0419" font-family="Roboto" font-size="8.00" fill="#000000"> </text>
<text text-anchor="start" x="148" y="-56.0419" font-family="Roboto" font-size="8.00" fill="#000000">LatLngToECEFProjection</text>
<text text-anchor="start" x="234" y="-56.0419" font-family="Roboto" font-size="8.00" fill="#000000"> </text>
</a>
</g>
</a>
</g>
</g>
<!-- c6200060&#45;&gt;c6201133 -->
<g id="edge3" class="edge">
<title>c6200060&#45;&gt;c6201133</title>
<path fill="none" stroke="#000000" stroke-dasharray="5,2" d="M97.3542,-57.4419C110.7915,-57.4419 126.3176,-57.4419 140.8161,-57.4419"/>
<polygon fill="none" stroke="#000000" points="97.0851,-53.942 87.085,-57.4419 97.085,-60.942 97.0851,-53.942"/>
</g>
<!-- c6201098 -->
<g id="node4" class="node">
<title>c6201098</title>
<g id="a_node4"><a xlink:href="../../index/projected/LatLngAsECEFIndex.html" xlink:title="&lt;TABLE&gt;">
<g id="a_node4_4"><a xlink:href="../../index/projected/LatLngAsECEFIndex.html" xlink:title="de.lmu.ifi.dbs.elki.index.projected.LatLngAsECEFIndex" target="_parent">
<polygon fill="none" stroke="#000000" points=".5,-4.4419 .5,-32.4419 123.5,-32.4419 123.5,-4.4419 .5,-4.4419"/>
<text text-anchor="start" x="23" y="-23.0419" font-family="Roboto" font-size="8.00" fill="#000000"> </text>
<text text-anchor="start" x="26" y="-23.0419" font-family="Roboto" font-size="8.00" fill="#000000">LatLngAsECEFIndex</text>
<text text-anchor="start" x="98" y="-23.0419" font-family="Roboto" font-size="8.00" fill="#000000"> </text>
<text text-anchor="start" x="4.5" y="-12.0419" font-family="Roboto" font-size="8.00" fill="#000000"> </text>
<text text-anchor="start" x="7.5" y="-12.0419" font-family="Roboto" font-size="7.00" fill="#000000">de.lmu.ifi.dbs.elki.index.projected</text>
<text text-anchor="start" x="116.5" y="-12.0419" font-family="Roboto" font-size="8.00" fill="#000000"> </text>
</a>
</g>
</a>
</g>
</g>
<!-- c6201098&#45;&gt;c6200036 -->
<g id="edge7" class="edge">
<title>c6201098&#45;&gt;c6200036</title>
<path fill="none" stroke="#000000" stroke-dasharray="5,2" d="M123.1061,-7.0173C189.3231,2.1488 295.8525,7.6904 376,-32.4419 395.9453,-42.4291 411.7162,-62.1625 422.2924,-78.8814"/>
<polygon fill="#000000" stroke="#000000" points="427.6271,-87.7786 418.6252,-81.5162 425.0558,-83.4903 422.4846,-79.2021 422.4846,-79.2021 422.4846,-79.2021 425.0558,-83.4903 426.344,-76.888 427.6271,-87.7786 427.6271,-87.7786"/>
</g>
<!-- c6201098&#45;&gt;c6201133 -->
<g id="edge2" class="edge">
<title>c6201098&#45;&gt;c6201133</title>
<path fill="none" stroke="#000000" d="M119.9273,-36.0378C134.6767,-40.4797 149.8679,-45.0546 162.4003,-48.8289"/>
<polygon fill="#000000" stroke="#000000" points="119.7427,-35.9822 112.8441,-38.0821 108.2525,-32.5218 115.1511,-30.4219 119.7427,-35.9822"/>
</g>
<!-- c6201110 -->
<g id="node5" class="node">
<title>c6201110</title>
<g id="a_node5"><a xlink:href="../../math/geodesy/EarthModel.html" xlink:title="&lt;TABLE&gt;">
<g id="a_node5_5"><a xlink:href="../../math/geodesy/EarthModel.html" xlink:title="de.lmu.ifi.dbs.elki.math.geodesy.EarthModel" target="_parent">
<polygon fill="none" stroke="#000000" points="259.5,-37.4419 259.5,-76.4419 376.5,-76.4419 376.5,-37.4419 259.5,-37.4419"/>
<text text-anchor="start" x="296.5" y="-66.0419" font-family="Roboto" font-size="8.00" fill="#000000"> «interface» </text>
<text text-anchor="start" x="294.5" y="-56.0419" font-family="Roboto" font-size="8.00" fill="#000000"> </text>
<text text-anchor="start" x="297.5" y="-56.0419" font-family="Roboto" font-size="8.00" fill="#000000">EarthModel</text>
<text text-anchor="start" x="338.5" y="-56.0419" font-family="Roboto" font-size="8.00" fill="#000000"> </text>
<text text-anchor="start" x="263.5" y="-45.0419" font-family="Roboto" font-size="8.00" fill="#000000"> </text>
<text text-anchor="start" x="266.5" y="-45.0419" font-family="Roboto" font-size="7.00" fill="#000000">de.lmu.ifi.dbs.elki.math.geodesy</text>
<text text-anchor="start" x="369.5" y="-45.0419" font-family="Roboto" font-size="8.00" fill="#000000"> </text>
</a>
</g>
</a>
</g>
</g>
<!-- c6201133&#45;&gt;c6200036 -->
<g id="edge5" class="edge">
<title>c6201133&#45;&gt;c6200036</title>
<path fill="none" stroke="#000000" d="M197.4299,-66.1671C207.7233,-82.0418 229.7549,-114.4815 259,-127.4419 306.5408,-148.5103 324.966,-137.4183 376,-127.4419 381.8819,-126.2921 387.9118,-124.5779 393.7869,-122.6179"/>
</g>
<!-- c6201133&#45;&gt;c6200036 -->
<g id="edge8" class="edge">
<title>c6201133&#45;&gt;c6200036</title>
<path fill="none" stroke="#000000" stroke-dasharray="5,2" d="M193.9805,-66.1023C202.0382,-84.1475 225.8985,-123.7725 259,-138.4419 306.5408,-159.5103 324.966,-148.4183 376,-138.4419 384.1221,-136.8541 392.5264,-134.1902 400.4154,-131.0464"/>
<polygon fill="#000000" stroke="#000000" points="409.7293,-127.0137 402.3406,-135.1166 405.1409,-129.0004 400.5525,-130.9871 400.5525,-130.9871 400.5525,-130.9871 405.1409,-129.0004 398.7645,-126.8576 409.7293,-127.0137 409.7293,-127.0137"/>
</g>
<!-- c6201133&#45;&gt;c6200037 -->
<g id="edge6" class="edge">
<title>c6201133&#45;&gt;c6200037</title>
<path fill="none" stroke="#000000" d="M212.7461,-66.0372C226.3357,-71.4086 244.5018,-78.5888 261.8868,-85.4604"/>
<polygon fill="#000000" stroke="#000000" points="271.4308,-89.2327 260.4767,-89.7418 266.7808,-87.3948 262.1309,-85.5568 262.1309,-85.5568 262.1309,-85.5568 266.7808,-87.3948 263.785,-81.3718 271.4308,-89.2327 271.4308,-89.2327"/>
</g>
<!-- c6201133&#45;&gt;c6201110 -->
<g id="edge4" class="edge">
<title>c6201133&#45;&gt;c6201110</title>
<path fill="none" stroke="#000000" d="M253.4431,-57.4419C255.2861,-57.4419 257.1299,-57.4419 258.9684,-57.4419"/>
<polygon fill="#000000" stroke="#000000" points="253.3596,-57.442 247.3596,-61.4419 241.3596,-57.4419 247.3597,-53.4419 253.3596,-57.442"/>
</g>
</g>
</svg>
