<?xml version="1.0" encoding="UTF-8" standalone="no"?>
<!DOCTYPE svg PUBLIC "-//W3C//DTD SVG 1.1//EN"
 "http://www.w3.org/Graphics/SVG/1.1/DTD/svg11.dtd">
<!-- Generated by graphviz version 2.40.1 (20161225.0304)
 -->
<!-- Title: G Pages: 1 -->
<svg width="437pt" height="92pt"
 viewBox="0.00 0.00 437.00 92.00" xmlns="http://www.w3.org/2000/svg" xmlns:xlink="http://www.w3.org/1999/xlink">
<g id="graph0" class="graph" transform="scale(1 1) rotate(0) translate(4 88)">
<title>G</title>
<polygon fill="#ffffff" stroke="transparent" points="-4,4 -4,-88 433,-88 433,4 -4,4"/>
<!-- c1720612 -->
<g id="node1" class="node">
<title>c1720612</title>
<g id="a_node1"><a xlink:href="../../../../data/NumberVector.html" xlink:title="&lt;TABLE&gt;">
<g id="a_node1_0"><a xlink:href="../../../../data/NumberVector.html" xlink:title="de.lmu.ifi.dbs.elki.data.NumberVector" target="_parent">
<polygon fill="#fffacd" stroke="transparent" points="342,-45 342,-84 429,-84 429,-45 342,-45"/>
<polygon fill="none" stroke="#000000" points="342.5,-44.5 342.5,-83.5 429.5,-83.5 429.5,-44.5 342.5,-44.5"/>
<text text-anchor="start" x="364.5" y="-73.1" font-family="Roboto" font-size="8.00" fill="#000000"> «interface» </text>
<text text-anchor="start" x="357.5" y="-63.1" font-family="Roboto" font-size="8.00" fill="#000000"> </text>
<text text-anchor="start" x="360.5" y="-63.1" font-family="Roboto" font-size="8.00" fill="#000000">NumberVector</text>
<text text-anchor="start" x="411.5" y="-63.1" font-family="Roboto" font-size="8.00" fill="#000000"> </text>
<text text-anchor="start" x="346.5" y="-52.1" font-family="Roboto" font-size="8.00" fill="#000000"> </text>
<text text-anchor="start" x="349.5" y="-52.1" font-family="Roboto" font-size="7.00" fill="#000000">de.lmu.ifi.dbs.elki.data</text>
<text text-anchor="start" x="422.5" y="-52.1" font-family="Roboto" font-size="8.00" fill="#000000"> </text>
</a>
</g>
</a>
</g>
</g>
<!-- c1722138 -->
<g id="node2" class="node">
<title>c1722138</title>
<g id="a_node2"><a xlink:href="../../AbstractVectorConversionFilter.html" xlink:title="&lt;TABLE&gt;">
<g id="a_node2_1"><a xlink:href="../../AbstractVectorConversionFilter.html" xlink:title="de.lmu.ifi.dbs.elki.datasource.filter.AbstractVectorConversionFilter" target="_parent">
<polygon fill="none" stroke="#000000" points="24,-50.5 24,-78.5 150,-78.5 150,-50.5 24,-50.5"/>
<text text-anchor="start" x="29" y="-69.1" font-family="Roboto" font-size="8.00" fill="#000000"> </text>
<text text-anchor="start" x="32" y="-69.1" font-family="Roboto" font-style="italic" font-size="8.00" fill="#000000">AbstractVectorConversionFilter</text>
<text text-anchor="start" x="142" y="-69.1" font-family="Roboto" font-size="8.00" fill="#000000"> </text>
<text text-anchor="start" x="28" y="-58.1" font-family="Roboto" font-size="8.00" fill="#000000"> </text>
<text text-anchor="start" x="31" y="-58.1" font-family="Roboto" font-size="7.00" fill="#000000">de.lmu.ifi.dbs.elki.datasource.filter</text>
<text text-anchor="start" x="143" y="-58.1" font-family="Roboto" font-size="8.00" fill="#000000"> </text>
</a>
</g>
</a>
</g>
</g>
<!-- c1722138&#45;&gt;c1720612 -->
<g id="edge4" class="edge">
<title>c1722138&#45;&gt;c1720612</title>
<path fill="none" stroke="#000000" stroke-dasharray="5,2" d="M150.1618,-74.3003C163.9187,-76.0487 178.4209,-77.5987 192,-78.5 250.5379,-82.3853 265.7003,-85.0519 324,-78.5 326.5232,-78.2164 329.0939,-77.8694 331.6827,-77.4727"/>
<polygon fill="#000000" stroke="#000000" points="341.696,-75.7256 332.6183,-81.8775 336.7704,-76.585 331.8448,-77.4445 331.8448,-77.4445 331.8448,-77.4445 336.7704,-76.585 331.0713,-73.0114 341.696,-75.7256 341.696,-75.7256"/>
</g>
<!-- c1722197 -->
<g id="node3" class="node">
<title>c1722197</title>
<g id="a_node3"><a xlink:href="AttributeWiseMeanNormalization.html" xlink:title="&lt;TABLE&gt;">
<g id="a_node3_2"><a xlink:href="AttributeWiseMeanNormalization.html" xlink:title="de.lmu.ifi.dbs.elki.datasource.filter.normalization.columnwise.AttributeWiseMeanNormalization" target="_parent">
<polygon fill="#fffacd" stroke="transparent" points="192,-56 192,-73 324,-73 324,-56 192,-56"/>
<polygon fill="none" stroke="#000000" points="192,-55.5 192,-72.5 324,-72.5 324,-55.5 192,-55.5"/>
<text text-anchor="start" x="196" y="-63.1" font-family="Roboto" font-size="8.00" fill="#000000"> </text>
<text text-anchor="start" x="199" y="-63.1" font-family="Roboto" font-size="8.00" fill="#000000">AttributeWiseMeanNormalization</text>
<text text-anchor="start" x="317" y="-63.1" font-family="Roboto" font-size="8.00" fill="#000000"> </text>
</a>
</g>
</a>
</g>
</g>
<!-- c1722138&#45;&gt;c1722197 -->
<g id="edge1" class="edge">
<title>c1722138&#45;&gt;c1722197</title>
<path fill="none" stroke="#000000" d="M160.1942,-64.5C170.7344,-64.5 181.5294,-64.5 191.9204,-64.5"/>
<polygon fill="none" stroke="#000000" points="160.1883,-61.0001 150.1883,-64.5 160.1882,-68.0001 160.1883,-61.0001"/>
</g>
<!-- c1722197&#45;&gt;c1720612 -->
<g id="edge3" class="edge">
<title>c1722197&#45;&gt;c1720612</title>
<path fill="none" stroke="#000000" d="M324.3641,-60.7528C330.2939,-60.7655 336.1935,-60.8216 341.8572,-60.921"/>
</g>
<!-- c1722197&#45;&gt;c1720612 -->
<g id="edge5" class="edge">
<title>c1722197&#45;&gt;c1720612</title>
<path fill="none" stroke="#000000" stroke-dasharray="5,2" d="M324.3641,-68.9966C326.8657,-68.9902 329.362,-68.9745 331.8374,-68.9495"/>
<polygon fill="#000000" stroke="#000000" points="341.8572,-68.7948 331.9279,-73.4488 336.8578,-68.8721 331.8584,-68.9493 331.8584,-68.9493 331.8584,-68.9493 336.8578,-68.8721 331.7889,-64.4499 341.8572,-68.7948 341.8572,-68.7948"/>
</g>
<!-- c1722198 -->
<g id="node4" class="node">
<title>c1722198</title>
<g id="a_node4"><a xlink:href="../Normalization.html" xlink:title="&lt;TABLE&gt;">
<g id="a_node4_3"><a xlink:href="../Normalization.html" xlink:title="de.lmu.ifi.dbs.elki.datasource.filter.normalization.Normalization" target="_parent">
<polygon fill="#fffacd" stroke="transparent" points="0,0 0,-39 174,-39 174,0 0,0"/>
<polygon fill="none" stroke="#000000" points="0,.5 0,-38.5 174,-38.5 174,.5 0,.5"/>
<text text-anchor="start" x="65.5" y="-28.1" font-family="Roboto" font-size="8.00" fill="#000000"> «interface» </text>
<text text-anchor="start" x="58.5" y="-18.1" font-family="Roboto" font-size="8.00" fill="#000000"> </text>
<text text-anchor="start" x="61.5" y="-18.1" font-family="Roboto" font-size="8.00" fill="#000000">Normalization</text>
<text text-anchor="start" x="112.5" y="-18.1" font-family="Roboto" font-size="8.00" fill="#000000"> </text>
<text text-anchor="start" x="4" y="-7.1" font-family="Roboto" font-size="8.00" fill="#000000"> </text>
<text text-anchor="start" x="7" y="-7.1" font-family="Roboto" font-size="7.00" fill="#000000">de.lmu.ifi.dbs.elki.datasource.filter.normalization</text>
<text text-anchor="start" x="167" y="-7.1" font-family="Roboto" font-size="8.00" fill="#000000"> </text>
</a>
</g>
</a>
</g>
</g>
<!-- c1722198&#45;&gt;c1722197 -->
<g id="edge2" class="edge">
<title>c1722198&#45;&gt;c1722197</title>
<path fill="none" stroke="#000000" stroke-dasharray="5,2" d="M171.2286,-41.6654C190.4632,-46.7272 209.7837,-51.8115 225.2949,-55.8934"/>
<polygon fill="none" stroke="#000000" points="172.0671,-38.267 161.5056,-39.1067 170.2856,-45.0365 172.0671,-38.267"/>
</g>
</g>
</svg>
