<?xml version="1.0" encoding="UTF-8" standalone="no"?>
<!DOCTYPE svg PUBLIC "-//W3C//DTD SVG 1.1//EN"
 "http://www.w3.org/Graphics/SVG/1.1/DTD/svg11.dtd">
<!-- Generated by graphviz version 2.40.1 (20161225.0304)
 -->
<!-- Title: G Pages: 1 -->
<svg width="650pt" height="165pt"
 viewBox="0.00 0.00 650.00 165.00" xmlns="http://www.w3.org/2000/svg" xmlns:xlink="http://www.w3.org/1999/xlink">
<g id="graph0" class="graph" transform="scale(1 1) rotate(0) translate(4 161)">
<title>G</title>
<polygon fill="#ffffff" stroke="transparent" points="-4,4 -4,-161 646,-161 646,4 -4,4"/>
<!-- c733281 -->
<g id="node1" class="node">
<title>c733281</title>
<g id="a_node1"><a xlink:href="../../ObjectFilter.html" xlink:title="&lt;TABLE&gt;">
<g id="a_node1_0"><a xlink:href="../../ObjectFilter.html" xlink:title="de.lmu.ifi.dbs.elki.datasource.filter.ObjectFilter" target="_parent">
<polygon fill="#fffacd" stroke="transparent" points="0,-78 0,-117 126,-117 126,-78 0,-78"/>
<polygon fill="none" stroke="#000000" points="0,-77.5 0,-116.5 126,-116.5 126,-77.5 0,-77.5"/>
<text text-anchor="start" x="41.5" y="-106.1" font-family="Roboto" font-size="8.00" fill="#000000"> «interface» </text>
<text text-anchor="start" x="39.5" y="-96.1" font-family="Roboto" font-size="8.00" fill="#000000"> </text>
<text text-anchor="start" x="42.5" y="-96.1" font-family="Roboto" font-size="8.00" fill="#000000">ObjectFilter</text>
<text text-anchor="start" x="83.5" y="-96.1" font-family="Roboto" font-size="8.00" fill="#000000"> </text>
<text text-anchor="start" x="4" y="-85.1" font-family="Roboto" font-size="8.00" fill="#000000"> </text>
<text text-anchor="start" x="7" y="-85.1" font-family="Roboto" font-size="7.00" fill="#000000">de.lmu.ifi.dbs.elki.datasource.filter</text>
<text text-anchor="start" x="119" y="-85.1" font-family="Roboto" font-size="8.00" fill="#000000"> </text>
</a>
</g>
</a>
</g>
</g>
<!-- c734855 -->
<g id="node8" class="node">
<title>c734855</title>
<g id="a_node8"><a xlink:href="IntegerRankTieNormalization.html" xlink:title="&lt;TABLE&gt;">
<g id="a_node8_1"><a xlink:href="IntegerRankTieNormalization.html" xlink:title="de.lmu.ifi.dbs.elki.datasource.filter.normalization.columnwise.IntegerRankTieNormalization" target="_parent">
<polygon fill="none" stroke="#000000" points="172,-108.5 172,-125.5 291,-125.5 291,-108.5 172,-108.5"/>
<text text-anchor="start" x="176" y="-116.1" font-family="Roboto" font-size="8.00" fill="#000000"> </text>
<text text-anchor="start" x="179" y="-116.1" font-family="Roboto" font-size="8.00" fill="#000000">IntegerRankTieNormalization</text>
<text text-anchor="start" x="284" y="-116.1" font-family="Roboto" font-size="8.00" fill="#000000"> </text>
</a>
</g>
</a>
</g>
</g>
<!-- c733281&#45;&gt;c734855 -->
<g id="edge7" class="edge">
<title>c733281&#45;&gt;c734855</title>
<path fill="none" stroke="#000000" stroke-dasharray="5,2" d="M136.2167,-106.2163C147.9123,-107.6086 159.8916,-109.0347 171.2271,-110.3842"/>
<polygon fill="none" stroke="#000000" points="136.3786,-102.7109 126.035,-105.0042 135.5511,-109.6618 136.3786,-102.7109"/>
</g>
<!-- c734858 -->
<g id="node10" class="node">
<title>c734858</title>
<g id="a_node10"><a xlink:href="../Normalization.html" xlink:title="&lt;TABLE&gt;">
<g id="a_node10_2"><a xlink:href="../Normalization.html" xlink:title="de.lmu.ifi.dbs.elki.datasource.filter.normalization.Normalization" target="_parent">
<polygon fill="#fffacd" stroke="transparent" points="144,-59 144,-98 318,-98 318,-59 144,-59"/>
<polygon fill="none" stroke="#000000" points="144,-58.5 144,-97.5 318,-97.5 318,-58.5 144,-58.5"/>
<text text-anchor="start" x="209.5" y="-87.1" font-family="Roboto" font-size="8.00" fill="#000000"> «interface» </text>
<text text-anchor="start" x="202.5" y="-77.1" font-family="Roboto" font-size="8.00" fill="#000000"> </text>
<text text-anchor="start" x="205.5" y="-77.1" font-family="Roboto" font-size="8.00" fill="#000000">Normalization</text>
<text text-anchor="start" x="256.5" y="-77.1" font-family="Roboto" font-size="8.00" fill="#000000"> </text>
<text text-anchor="start" x="148" y="-66.1" font-family="Roboto" font-size="8.00" fill="#000000"> </text>
<text text-anchor="start" x="151" y="-66.1" font-family="Roboto" font-size="7.00" fill="#000000">de.lmu.ifi.dbs.elki.datasource.filter.normalization</text>
<text text-anchor="start" x="311" y="-66.1" font-family="Roboto" font-size="8.00" fill="#000000"> </text>
</a>
</g>
</a>
</g>
</g>
<!-- c733281&#45;&gt;c734858 -->
<g id="edge9" class="edge">
<title>c733281&#45;&gt;c734858</title>
<path fill="none" stroke="#000000" stroke-dasharray="5,2" d="M136.0495,-89.2384C138.6702,-88.9421 141.3054,-88.644 143.9446,-88.3455"/>
<polygon fill="none" stroke="#000000" points="135.5783,-85.7693 126.035,-90.371 136.365,-92.725 135.5783,-85.7693"/>
</g>
<!-- c734844 -->
<g id="node2" class="node">
<title>c734844</title>
<g id="a_node2"><a xlink:href="AttributeWiseMADNormalization.html" xlink:title="&lt;TABLE&gt;">
<g id="a_node2_3"><a xlink:href="AttributeWiseMADNormalization.html" xlink:title="de.lmu.ifi.dbs.elki.datasource.filter.normalization.columnwise.AttributeWiseMADNormalization" target="_parent">
<polygon fill="none" stroke="#000000" points="351.5,-139.5 351.5,-156.5 481.5,-156.5 481.5,-139.5 351.5,-139.5"/>
<text text-anchor="start" x="355.5" y="-147.1" font-family="Roboto" font-size="8.00" fill="#000000"> </text>
<text text-anchor="start" x="358.5" y="-147.1" font-family="Roboto" font-size="8.00" fill="#000000">AttributeWiseMADNormalization</text>
<text text-anchor="start" x="474.5" y="-147.1" font-family="Roboto" font-size="8.00" fill="#000000"> </text>
</a>
</g>
</a>
</g>
</g>
<!-- c734845 -->
<g id="node3" class="node">
<title>c734845</title>
<g id="a_node3"><a xlink:href="AttributeWiseVarianceNormalization.html" xlink:title="&lt;TABLE&gt;">
<g id="a_node3_4"><a xlink:href="AttributeWiseVarianceNormalization.html" xlink:title="de.lmu.ifi.dbs.elki.datasource.filter.normalization.columnwise.AttributeWiseVarianceNormalization" target="_parent">
<polygon fill="none" stroke="#000000" points="345.5,-111.5 345.5,-128.5 488.5,-128.5 488.5,-111.5 345.5,-111.5"/>
<text text-anchor="start" x="349.5" y="-119.1" font-family="Roboto" font-size="8.00" fill="#000000"> </text>
<text text-anchor="start" x="352.5" y="-119.1" font-family="Roboto" font-size="8.00" fill="#000000">AttributeWiseVarianceNormalization</text>
<text text-anchor="start" x="481.5" y="-119.1" font-family="Roboto" font-size="8.00" fill="#000000"> </text>
</a>
</g>
</a>
</g>
</g>
<!-- c734847 -->
<g id="node4" class="node">
<title>c734847</title>
<g id="a_node4"><a xlink:href="AttributeWiseMinMaxNormalization.html" xlink:title="&lt;TABLE&gt;">
<g id="a_node4_5"><a xlink:href="AttributeWiseMinMaxNormalization.html" xlink:title="de.lmu.ifi.dbs.elki.datasource.filter.normalization.columnwise.AttributeWiseMinMaxNormalization" target="_parent">
<polygon fill="none" stroke="#000000" points="346.5,-83.5 346.5,-100.5 487.5,-100.5 487.5,-83.5 346.5,-83.5"/>
<text text-anchor="start" x="350.5" y="-91.1" font-family="Roboto" font-size="8.00" fill="#000000"> </text>
<text text-anchor="start" x="353.5" y="-91.1" font-family="Roboto" font-size="8.00" fill="#000000">AttributeWiseMinMaxNormalization</text>
<text text-anchor="start" x="480.5" y="-91.1" font-family="Roboto" font-size="8.00" fill="#000000"> </text>
</a>
</g>
</a>
</g>
</g>
<!-- c734849 -->
<g id="node5" class="node">
<title>c734849</title>
<g id="a_node5"><a xlink:href="AttributeWiseBetaNormalization.html" xlink:title="&lt;TABLE&gt;">
<g id="a_node5_6"><a xlink:href="AttributeWiseBetaNormalization.html" xlink:title="de.lmu.ifi.dbs.elki.datasource.filter.normalization.columnwise.AttributeWiseBetaNormalization" target="_parent">
<polygon fill="none" stroke="#000000" points="515.5,-55.5 515.5,-72.5 642.5,-72.5 642.5,-55.5 515.5,-55.5"/>
<text text-anchor="start" x="519.5" y="-63.1" font-family="Roboto" font-size="8.00" fill="#000000"> </text>
<text text-anchor="start" x="522.5" y="-63.1" font-family="Roboto" font-size="8.00" fill="#000000">AttributeWiseBetaNormalization</text>
<text text-anchor="start" x="635.5" y="-63.1" font-family="Roboto" font-size="8.00" fill="#000000"> </text>
</a>
</g>
</a>
</g>
</g>
<!-- c734851 -->
<g id="node6" class="node">
<title>c734851</title>
<g id="a_node6"><a xlink:href="AttributeWiseCDFNormalization.html" xlink:title="&lt;TABLE&gt;">
<g id="a_node6_7"><a xlink:href="AttributeWiseCDFNormalization.html" xlink:title="de.lmu.ifi.dbs.elki.datasource.filter.normalization.columnwise.AttributeWiseCDFNormalization" target="_parent">
<polygon fill="none" stroke="#000000" points="353.5,-55.5 353.5,-72.5 480.5,-72.5 480.5,-55.5 353.5,-55.5"/>
<text text-anchor="start" x="357.5" y="-63.1" font-family="Roboto" font-size="8.00" fill="#000000"> </text>
<text text-anchor="start" x="360.5" y="-63.1" font-family="Roboto" font-size="8.00" fill="#000000">AttributeWiseCDFNormalization</text>
<text text-anchor="start" x="473.5" y="-63.1" font-family="Roboto" font-size="8.00" fill="#000000"> </text>
</a>
</g>
</a>
</g>
</g>
<!-- c734851&#45;&gt;c734849 -->
<g id="edge4" class="edge">
<title>c734851&#45;&gt;c734849</title>
<path fill="none" stroke="#000000" d="M490.0765,-64.5C498.3484,-64.5 506.7245,-64.5 514.8557,-64.5"/>
<polygon fill="none" stroke="#000000" points="490.0618,-61.0001 480.0617,-64.5 490.0617,-68.0001 490.0618,-61.0001"/>
</g>
<!-- c734854 -->
<g id="node7" class="node">
<title>c734854</title>
<g id="a_node7"><a xlink:href="InverseDocumentFrequencyNormalization.html" xlink:title="&lt;TABLE&gt;">
<g id="a_node7_8"><a xlink:href="InverseDocumentFrequencyNormalization.html" xlink:title="de.lmu.ifi.dbs.elki.datasource.filter.normalization.columnwise.InverseDocumentFrequencyNormalization" target="_parent">
<polygon fill="none" stroke="#000000" points="336.5,-27.5 336.5,-44.5 497.5,-44.5 497.5,-27.5 336.5,-27.5"/>
<text text-anchor="start" x="340.5" y="-35.1" font-family="Roboto" font-size="8.00" fill="#000000"> </text>
<text text-anchor="start" x="343.5" y="-35.1" font-family="Roboto" font-size="8.00" fill="#000000">InverseDocumentFrequencyNormalization</text>
<text text-anchor="start" x="490.5" y="-35.1" font-family="Roboto" font-size="8.00" fill="#000000"> </text>
</a>
</g>
</a>
</g>
</g>
<!-- c734857 -->
<g id="node9" class="node">
<title>c734857</title>
<g id="a_node9"><a xlink:href="AttributeWiseMeanNormalization.html" xlink:title="&lt;TABLE&gt;">
<g id="a_node9_9"><a xlink:href="AttributeWiseMeanNormalization.html" xlink:title="de.lmu.ifi.dbs.elki.datasource.filter.normalization.columnwise.AttributeWiseMeanNormalization" target="_parent">
<polygon fill="none" stroke="#000000" points="350.5,.5 350.5,-16.5 482.5,-16.5 482.5,.5 350.5,.5"/>
<text text-anchor="start" x="354.5" y="-7.1" font-family="Roboto" font-size="8.00" fill="#000000"> </text>
<text text-anchor="start" x="357.5" y="-7.1" font-family="Roboto" font-size="8.00" fill="#000000">AttributeWiseMeanNormalization</text>
<text text-anchor="start" x="475.5" y="-7.1" font-family="Roboto" font-size="8.00" fill="#000000"> </text>
</a>
</g>
</a>
</g>
</g>
<!-- c734858&#45;&gt;c734844 -->
<g id="edge1" class="edge">
<title>c734858&#45;&gt;c734844</title>
<path fill="none" stroke="#000000" stroke-dasharray="5,2" d="M317.8629,-105.02C328.6831,-117.0039 324.97,-126.8162 336,-134.5 340.6558,-137.7434 345.8221,-140.315 351.2255,-142.3456"/>
<polygon fill="none" stroke="#000000" points="319.9571,-102.1973 310.1706,-98.1385 315.29,-107.4144 319.9571,-102.1973"/>
</g>
<!-- c734858&#45;&gt;c734845 -->
<g id="edge2" class="edge">
<title>c734858&#45;&gt;c734845</title>
<path fill="none" stroke="#000000" stroke-dasharray="5,2" d="M310.7589,-100.5559C319.2547,-102.6697 327.7888,-104.6949 336,-106.5 344.867,-108.4493 354.3317,-110.299 363.5411,-111.9769"/>
<polygon fill="none" stroke="#000000" points="311.3779,-97.1023 300.8248,-98.0416 309.6603,-103.8883 311.3779,-97.1023"/>
</g>
<!-- c734858&#45;&gt;c734847 -->
<g id="edge3" class="edge">
<title>c734858&#45;&gt;c734847</title>
<path fill="none" stroke="#000000" stroke-dasharray="5,2" d="M328.1064,-85.8288C334.0806,-86.2797 340.0308,-86.7287 345.8573,-87.1685"/>
<polygon fill="none" stroke="#000000" points="328.282,-82.3322 318.0469,-85.0696 327.7551,-89.3123 328.282,-82.3322"/>
</g>
<!-- c734858&#45;&gt;c734851 -->
<g id="edge5" class="edge">
<title>c734858&#45;&gt;c734851</title>
<path fill="none" stroke="#000000" stroke-dasharray="5,2" d="M328.2631,-71.1594C336.6337,-70.5276 344.9551,-69.8996 352.9539,-69.2959"/>
<polygon fill="none" stroke="#000000" points="327.7551,-67.6877 318.0469,-71.9304 328.282,-74.6678 327.7551,-67.6877"/>
</g>
<!-- c734858&#45;&gt;c734854 -->
<g id="edge6" class="edge">
<title>c734858&#45;&gt;c734854</title>
<path fill="none" stroke="#000000" stroke-dasharray="5,2" d="M310.7589,-56.4441C319.2547,-54.3303 327.7888,-52.3051 336,-50.5 344.867,-48.5507 354.3317,-46.701 363.5411,-45.0231"/>
<polygon fill="none" stroke="#000000" points="309.6603,-53.1117 300.8248,-58.9584 311.3779,-59.8977 309.6603,-53.1117"/>
</g>
<!-- c734858&#45;&gt;c734857 -->
<g id="edge8" class="edge">
<title>c734858&#45;&gt;c734857</title>
<path fill="none" stroke="#000000" stroke-dasharray="5,2" d="M270.2586,-53.7185C289.4309,-42.6331 313.2301,-30.3266 336,-22.5 342.171,-20.3789 348.7234,-18.568 355.3209,-17.0244"/>
<polygon fill="none" stroke="#000000" points="268.3566,-50.7768 261.5202,-58.8708 271.912,-56.8067 268.3566,-50.7768"/>
</g>
</g>
</svg>
