<?xml version="1.0" encoding="UTF-8" standalone="no"?>
<!DOCTYPE svg PUBLIC "-//W3C//DTD SVG 1.1//EN"
 "http://www.w3.org/Graphics/SVG/1.1/DTD/svg11.dtd">
<!-- Generated by graphviz version 2.40.1 (20161225.0304)
 -->
<!-- Title: G Pages: 1 -->
<svg width="271pt" height="47pt"
 viewBox="0.00 0.00 271.00 47.00" xmlns="http://www.w3.org/2000/svg" xmlns:xlink="http://www.w3.org/1999/xlink">
<g id="graph0" class="graph" transform="scale(1 1) rotate(0) translate(4 43)">
<title>G</title>
<polygon fill="#ffffff" stroke="transparent" points="-4,4 -4,-43 267,-43 267,4 -4,4"/>
<!-- c5445461 -->
<g id="node1" class="node">
<title>c5445461</title>
<g id="a_node1"><a xlink:href="../../ObjectFilter.html" xlink:title="&lt;TABLE&gt;">
<g id="a_node1_0"><a xlink:href="../../ObjectFilter.html" xlink:title="de.lmu.ifi.dbs.elki.datasource.filter.ObjectFilter" target="_parent">
<polygon fill="#fffacd" stroke="transparent" points="0,0 0,-39 126,-39 126,0 0,0"/>
<polygon fill="none" stroke="#000000" points="0,.5 0,-38.5 126,-38.5 126,.5 0,.5"/>
<text text-anchor="start" x="41.5" y="-28.1" font-family="Roboto" font-size="8.00" fill="#000000"> «interface» </text>
<text text-anchor="start" x="39.5" y="-18.1" font-family="Roboto" font-size="8.00" fill="#000000"> </text>
<text text-anchor="start" x="42.5" y="-18.1" font-family="Roboto" font-size="8.00" fill="#000000">ObjectFilter</text>
<text text-anchor="start" x="83.5" y="-18.1" font-family="Roboto" font-size="8.00" fill="#000000"> </text>
<text text-anchor="start" x="4" y="-7.1" font-family="Roboto" font-size="8.00" fill="#000000"> </text>
<text text-anchor="start" x="7" y="-7.1" font-family="Roboto" font-size="7.00" fill="#000000">de.lmu.ifi.dbs.elki.datasource.filter</text>
<text text-anchor="start" x="119" y="-7.1" font-family="Roboto" font-size="8.00" fill="#000000"> </text>
</a>
</g>
</a>
</g>
</g>
<!-- c5447035 -->
<g id="node2" class="node">
<title>c5447035</title>
<g id="a_node2"><a xlink:href="IntegerRankTieNormalization.html" xlink:title="&lt;TABLE&gt;">
<g id="a_node2_1"><a xlink:href="IntegerRankTieNormalization.html" xlink:title="de.lmu.ifi.dbs.elki.datasource.filter.normalization.columnwise.IntegerRankTieNormalization" target="_parent">
<polygon fill="#fffacd" stroke="transparent" points="144,-11 144,-28 263,-28 263,-11 144,-11"/>
<polygon fill="none" stroke="#000000" points="144.5,-10.5 144.5,-27.5 263.5,-27.5 263.5,-10.5 144.5,-10.5"/>
<text text-anchor="start" x="148.5" y="-18.1" font-family="Roboto" font-size="8.00" fill="#000000"> </text>
<text text-anchor="start" x="151.5" y="-18.1" font-family="Roboto" font-size="8.00" fill="#000000">IntegerRankTieNormalization</text>
<text text-anchor="start" x="256.5" y="-18.1" font-family="Roboto" font-size="8.00" fill="#000000"> </text>
</a>
</g>
</a>
</g>
</g>
<!-- c5445461&#45;&gt;c5447035 -->
<g id="edge1" class="edge">
<title>c5445461&#45;&gt;c5447035</title>
<path fill="none" stroke="#000000" stroke-dasharray="5,2" d="M136.4023,-19.5C138.8693,-19.5 141.331,-19.5 143.7753,-19.5"/>
<polygon fill="none" stroke="#000000" points="136.2628,-16.0001 126.2627,-19.5 136.2627,-23.0001 136.2628,-16.0001"/>
</g>
</g>
</svg>
