<?xml version="1.0" encoding="UTF-8" standalone="no"?>
<!DOCTYPE svg PUBLIC "-//W3C//DTD SVG 1.1//EN"
 "http://www.w3.org/Graphics/SVG/1.1/DTD/svg11.dtd">
<!-- Generated by graphviz version 2.40.1 (20161225.0304)
 -->
<!-- Title: G Pages: 1 -->
<svg width="419pt" height="97pt"
 viewBox="0.00 0.00 419.00 97.00" xmlns="http://www.w3.org/2000/svg" xmlns:xlink="http://www.w3.org/1999/xlink">
<g id="graph0" class="graph" transform="scale(1 1) rotate(0) translate(4 93)">
<title>G</title>
<polygon fill="#ffffff" stroke="transparent" points="-4,4 -4,-93 415,-93 415,4 -4,4"/>
<!-- c6458950 -->
<g id="node1" class="node">
<title>c6458950</title>
<g id="a_node1"><a xlink:href="../NumberVectorDistanceFunction.html" xlink:title="&lt;TABLE&gt;">
<g id="a_node1_0"><a xlink:href="../NumberVectorDistanceFunction.html" xlink:title="de.lmu.ifi.dbs.elki.distance.distancefunction.NumberVectorDistanceFunction" target="_parent">
<polygon fill="#fffacd" stroke="transparent" points="0,-50 0,-89 158,-89 158,-50 0,-50"/>
<polygon fill="none" stroke="#000000" points="0,-49.5 0,-88.5 158,-88.5 158,-49.5 0,-49.5"/>
<text text-anchor="start" x="57.5" y="-78.1" font-family="Roboto" font-size="8.00" fill="#000000"> «interface» </text>
<text text-anchor="start" x="20" y="-68.1" font-family="Roboto" font-size="8.00" fill="#000000"> </text>
<text text-anchor="start" x="23" y="-68.1" font-family="Roboto" font-size="8.00" fill="#000000">NumberVectorDistanceFunction</text>
<text text-anchor="start" x="135" y="-68.1" font-family="Roboto" font-size="8.00" fill="#000000"> </text>
<text text-anchor="start" x="4" y="-57.1" font-family="Roboto" font-size="8.00" fill="#000000"> </text>
<text text-anchor="start" x="7" y="-57.1" font-family="Roboto" font-size="7.00" fill="#000000">de.lmu.ifi.dbs.elki.distance.distancefunction</text>
<text text-anchor="start" x="151" y="-57.1" font-family="Roboto" font-size="8.00" fill="#000000"> </text>
</a>
</g>
</a>
</g>
</g>
<!-- c6460082 -->
<g id="node3" class="node">
<title>c6460082</title>
<g id="a_node3"><a xlink:href="LngLatDistanceFunction.html" xlink:title="&lt;TABLE&gt;">
<g id="a_node3_1"><a xlink:href="LngLatDistanceFunction.html" xlink:title="de.lmu.ifi.dbs.elki.distance.distancefunction.geo.LngLatDistanceFunction" target="_parent">
<polygon fill="#fffacd" stroke="transparent" points="176,-36 176,-53 276,-53 276,-36 176,-36"/>
<polygon fill="none" stroke="#000000" points="176,-35.5 176,-52.5 276,-52.5 276,-35.5 176,-35.5"/>
<text text-anchor="start" x="180" y="-43.1" font-family="Roboto" font-size="8.00" fill="#000000"> </text>
<text text-anchor="start" x="183" y="-43.1" font-family="Roboto" font-size="8.00" fill="#000000">LngLatDistanceFunction</text>
<text text-anchor="start" x="269" y="-43.1" font-family="Roboto" font-size="8.00" fill="#000000"> </text>
</a>
</g>
</a>
</g>
</g>
<!-- c6458950&#45;&gt;c6460082 -->
<g id="edge2" class="edge">
<title>c6458950&#45;&gt;c6460082</title>
<path fill="none" stroke="#000000" stroke-dasharray="5,2" d="M168.1098,-54.3453C170.6796,-53.9082 173.2227,-53.4757 175.7258,-53.05"/>
<polygon fill="none" stroke="#000000" points="167.3654,-50.9215 158.0938,-56.0487 168.5391,-57.8224 167.3654,-50.9215"/>
</g>
<!-- c6458953 -->
<g id="node2" class="node">
<title>c6458953</title>
<g id="a_node2"><a xlink:href="../SpatialPrimitiveDistanceFunction.html" xlink:title="&lt;TABLE&gt;">
<g id="a_node2_2"><a xlink:href="../SpatialPrimitiveDistanceFunction.html" xlink:title="de.lmu.ifi.dbs.elki.distance.distancefunction.SpatialPrimitiveDistanceFunction" target="_parent">
<polygon fill="none" stroke="#000000" points="0,.5 0,-38.5 158,-38.5 158,.5 0,.5"/>
<text text-anchor="start" x="57.5" y="-28.1" font-family="Roboto" font-size="8.00" fill="#000000"> «interface» </text>
<text text-anchor="start" x="17.5" y="-18.1" font-family="Roboto" font-size="8.00" fill="#000000"> </text>
<text text-anchor="start" x="20.5" y="-18.1" font-family="Roboto" font-size="8.00" fill="#000000">SpatialPrimitiveDistanceFunction</text>
<text text-anchor="start" x="137.5" y="-18.1" font-family="Roboto" font-size="8.00" fill="#000000"> </text>
<text text-anchor="start" x="4" y="-7.1" font-family="Roboto" font-size="8.00" fill="#000000"> </text>
<text text-anchor="start" x="7" y="-7.1" font-family="Roboto" font-size="7.00" fill="#000000">de.lmu.ifi.dbs.elki.distance.distancefunction</text>
<text text-anchor="start" x="151" y="-7.1" font-family="Roboto" font-size="8.00" fill="#000000"> </text>
</a>
</g>
</a>
</g>
</g>
<!-- c6458953&#45;&gt;c6460082 -->
<g id="edge1" class="edge">
<title>c6458953&#45;&gt;c6460082</title>
<path fill="none" stroke="#000000" stroke-dasharray="5,2" d="M168.1098,-34.6547C170.6796,-35.0918 173.2227,-35.5243 175.7258,-35.95"/>
<polygon fill="none" stroke="#000000" points="168.5391,-31.1776 158.0938,-32.9513 167.3654,-38.0785 168.5391,-31.1776"/>
</g>
<!-- c6460084 -->
<g id="node4" class="node">
<title>c6460084</title>
<g id="a_node4"><a xlink:href="../../../math/geodesy/EarthModel.html" xlink:title="&lt;TABLE&gt;">
<g id="a_node4_3"><a xlink:href="../../../math/geodesy/EarthModel.html" xlink:title="de.lmu.ifi.dbs.elki.math.geodesy.EarthModel" target="_parent">
<polygon fill="none" stroke="#000000" points="294.5,-24.5 294.5,-63.5 411.5,-63.5 411.5,-24.5 294.5,-24.5"/>
<text text-anchor="start" x="331.5" y="-53.1" font-family="Roboto" font-size="8.00" fill="#000000"> «interface» </text>
<text text-anchor="start" x="329.5" y="-43.1" font-family="Roboto" font-size="8.00" fill="#000000"> </text>
<text text-anchor="start" x="332.5" y="-43.1" font-family="Roboto" font-size="8.00" fill="#000000">EarthModel</text>
<text text-anchor="start" x="373.5" y="-43.1" font-family="Roboto" font-size="8.00" fill="#000000"> </text>
<text text-anchor="start" x="298.5" y="-32.1" font-family="Roboto" font-size="8.00" fill="#000000"> </text>
<text text-anchor="start" x="301.5" y="-32.1" font-family="Roboto" font-size="7.00" fill="#000000">de.lmu.ifi.dbs.elki.math.geodesy</text>
<text text-anchor="start" x="404.5" y="-32.1" font-family="Roboto" font-size="8.00" fill="#000000"> </text>
</a>
</g>
</a>
</g>
</g>
<!-- c6460082&#45;&gt;c6460084 -->
<g id="edge3" class="edge">
<title>c6460082&#45;&gt;c6460084</title>
<path fill="none" stroke="#000000" d="M288.4431,-44.5C290.2861,-44.5 292.1299,-44.5 293.9684,-44.5"/>
<polygon fill="#000000" stroke="#000000" points="288.3596,-44.5001 282.3596,-48.5 276.3596,-44.5 282.3597,-40.5 288.3596,-44.5001"/>
</g>
</g>
</svg>
