<?xml version="1.0" encoding="UTF-8" standalone="no"?>
<!DOCTYPE svg PUBLIC "-//W3C//DTD SVG 1.1//EN"
 "http://www.w3.org/Graphics/SVG/1.1/DTD/svg11.dtd">
<!-- Generated by graphviz version 2.40.1 (20161225.0304)
 -->
<!-- Title: G Pages: 1 -->
<svg width="295pt" height="215pt"
 viewBox="0.00 0.00 295.00 215.00" xmlns="http://www.w3.org/2000/svg" xmlns:xlink="http://www.w3.org/1999/xlink">
<g id="graph0" class="graph" transform="scale(1 1) rotate(0) translate(4 211)">
<title>G</title>
<polygon fill="#ffffff" stroke="transparent" points="-4,4 -4,-211 291,-211 291,4 -4,4"/>
<!-- c1816007 -->
<g id="node1" class="node">
<title>c1816007</title>
<g id="a_node1"><a xlink:href="CentroidEuclideanDistance.html" xlink:title="&lt;TABLE&gt;">
<g id="a_node1_0"><a xlink:href="CentroidEuclideanDistance.html" xlink:title="de.lmu.ifi.dbs.elki.algorithm.clustering.hierarchical.birch.CentroidEuclideanDistance" target="_parent">
<polygon fill="none" stroke="#000000" points="176,-189.5 176,-206.5 285,-206.5 285,-189.5 176,-189.5"/>
<text text-anchor="start" x="180" y="-197.1" font-family="Roboto" font-size="8.00" fill="#000000"> </text>
<text text-anchor="start" x="183" y="-197.1" font-family="Roboto" font-size="8.00" fill="#000000">CentroidEuclideanDistance</text>
<text text-anchor="start" x="278" y="-197.1" font-family="Roboto" font-size="8.00" fill="#000000"> </text>
</a>
</g>
</a>
</g>
</g>
<!-- c1816013 -->
<g id="node2" class="node">
<title>c1816013</title>
<g id="a_node2"><a xlink:href="CFTree.html" xlink:title="&lt;TABLE&gt;">
<g id="a_node2_1"><a xlink:href="CFTree.html" xlink:title="de.lmu.ifi.dbs.elki.algorithm.clustering.hierarchical.birch.CFTree" target="_parent">
<polygon fill="none" stroke="#000000" points="14,.5 14,-16.5 54,-16.5 54,.5 14,.5"/>
<text text-anchor="start" x="18" y="-7.1" font-family="Roboto" font-size="8.00" fill="#000000"> </text>
<text text-anchor="start" x="21" y="-7.1" font-family="Roboto" font-size="8.00" fill="#000000">CFTree</text>
<text text-anchor="start" x="47" y="-7.1" font-family="Roboto" font-size="8.00" fill="#000000"> </text>
</a>
</g>
</a>
</g>
</g>
<!-- c1816020 -->
<g id="node4" class="node">
<title>c1816020</title>
<g id="a_node4"><a xlink:href="BIRCHDistance.html" xlink:title="&lt;TABLE&gt;">
<g id="a_node4_2"><a xlink:href="BIRCHDistance.html" xlink:title="de.lmu.ifi.dbs.elki.algorithm.clustering.hierarchical.birch.BIRCHDistance" target="_parent">
<polygon fill="#fffacd" stroke="transparent" points="86,-128.5 86,-156.5 155,-156.5 155,-128.5 86,-128.5"/>
<polygon fill="none" stroke="#000000" points="86.5,-128.5 86.5,-156.5 155.5,-156.5 155.5,-128.5 86.5,-128.5"/>
<text text-anchor="start" x="99.5" y="-146.1" font-family="Roboto" font-size="8.00" fill="#000000"> «interface» </text>
<text text-anchor="start" x="90.5" y="-136.1" font-family="Roboto" font-size="8.00" fill="#000000"> </text>
<text text-anchor="start" x="93.5" y="-136.1" font-family="Roboto" font-size="8.00" fill="#000000">BIRCHDistance</text>
<text text-anchor="start" x="148.5" y="-136.1" font-family="Roboto" font-size="8.00" fill="#000000"> </text>
</a>
</g>
</a>
</g>
</g>
<!-- c1816013&#45;&gt;c1816020 -->
<g id="edge9" class="edge">
<title>c1816013&#45;&gt;c1816020</title>
<path fill="none" stroke="#000000" d="M39.6755,-17.2921C52.9597,-37.8712 86.4184,-89.7031 105.8681,-119.8333"/>
<polygon fill="#000000" stroke="#000000" points="111.4167,-128.4287 102.2125,-122.4676 108.7049,-124.2279 105.9932,-120.0271 105.9932,-120.0271 105.9932,-120.0271 108.7049,-124.2279 109.7739,-117.5865 111.4167,-128.4287 111.4167,-128.4287"/>
</g>
<!-- c1816028 -->
<g id="node7" class="node">
<title>c1816028</title>
<g id="a_node7"><a xlink:href="ClusteringFeature.html" xlink:title="&lt;TABLE&gt;">
<g id="a_node7_3"><a xlink:href="ClusteringFeature.html" xlink:title="de.lmu.ifi.dbs.elki.algorithm.clustering.hierarchical.birch.ClusteringFeature" target="_parent">
<polygon fill="none" stroke="#000000" points="192,.5 192,-16.5 269,-16.5 269,.5 192,.5"/>
<text text-anchor="start" x="196" y="-7.1" font-family="Roboto" font-size="8.00" fill="#000000"> </text>
<text text-anchor="start" x="199" y="-7.1" font-family="Roboto" font-size="8.00" fill="#000000">ClusteringFeature</text>
<text text-anchor="start" x="262" y="-7.1" font-family="Roboto" font-size="8.00" fill="#000000"> </text>
</a>
</g>
</a>
</g>
</g>
<!-- c1816013&#45;&gt;c1816028 -->
<g id="edge2" class="edge">
<title>c1816013&#45;&gt;c1816028</title>
<path fill="none" stroke="#000000" d="M66.3371,-8.5C100.654,-8.5 154.8663,-8.5 191.3974,-8.5"/>
<polygon fill="none" stroke="#000000" points="66.2372,-8.5001 60.2372,-12.5 54.2372,-8.5 60.2372,-4.5 66.2372,-8.5001"/>
</g>
<!-- c1816016 -->
<g id="node3" class="node">
<title>c1816016</title>
<g id="a_node3"><a xlink:href="CFTree.Factory.html" xlink:title="&lt;TABLE&gt;">
<g id="a_node3_4"><a xlink:href="CFTree.Factory.html" xlink:title="de.lmu.ifi.dbs.elki.algorithm.clustering.hierarchical.birch.CFTree.Factory" target="_parent">
<polygon fill="none" stroke="#000000" points="0,-133.5 0,-150.5 68,-150.5 68,-133.5 0,-133.5"/>
<text text-anchor="start" x="4" y="-141.1" font-family="Roboto" font-size="8.00" fill="#000000"> </text>
<text text-anchor="start" x="7" y="-141.1" font-family="Roboto" font-size="8.00" fill="#000000">CFTree.Factory</text>
<text text-anchor="start" x="61" y="-141.1" font-family="Roboto" font-size="8.00" fill="#000000"> </text>
</a>
</g>
</a>
</g>
</g>
<!-- c1816016&#45;&gt;c1816020 -->
<g id="edge10" class="edge">
<title>c1816016&#45;&gt;c1816020</title>
<path fill="none" stroke="#000000" d="M68.1871,-142.5C70.7489,-142.5 73.3552,-142.5 75.9677,-142.5"/>
<polygon fill="#000000" stroke="#000000" points="85.9944,-142.5 75.9945,-147.0001 80.9944,-142.5 75.9944,-142.5001 75.9944,-142.5001 75.9944,-142.5001 80.9944,-142.5 75.9944,-138.0001 85.9944,-142.5 85.9944,-142.5"/>
</g>
<!-- c1816020&#45;&gt;c1816007 -->
<g id="edge1" class="edge">
<title>c1816020&#45;&gt;c1816007</title>
<path fill="none" stroke="#000000" stroke-dasharray="5,2" d="M142.107,-163.3031C151.0635,-170.9437 161.9373,-179.0494 173,-184.5 177.2961,-186.6167 181.936,-188.4281 186.6487,-189.9749"/>
<polygon fill="none" stroke="#000000" points="144.2672,-160.5402 134.4703,-156.5064 139.6134,-165.7692 144.2672,-160.5402"/>
</g>
<!-- c1816021 -->
<g id="node5" class="node">
<title>c1816021</title>
<g id="a_node5"><a xlink:href="AverageIntraclusterDistance.html" xlink:title="&lt;TABLE&gt;">
<g id="a_node5_5"><a xlink:href="AverageIntraclusterDistance.html" xlink:title="de.lmu.ifi.dbs.elki.algorithm.clustering.hierarchical.birch.AverageIntraclusterDistance" target="_parent">
<polygon fill="none" stroke="#000000" points="173,-161.5 173,-178.5 287,-178.5 287,-161.5 173,-161.5"/>
<text text-anchor="start" x="177" y="-169.1" font-family="Roboto" font-size="8.00" fill="#000000"> </text>
<text text-anchor="start" x="180" y="-169.1" font-family="Roboto" font-size="8.00" fill="#000000">AverageIntraclusterDistance</text>
<text text-anchor="start" x="280" y="-169.1" font-family="Roboto" font-size="8.00" fill="#000000"> </text>
</a>
</g>
</a>
</g>
</g>
<!-- c1816020&#45;&gt;c1816021 -->
<g id="edge5" class="edge">
<title>c1816020&#45;&gt;c1816021</title>
<path fill="none" stroke="#000000" stroke-dasharray="5,2" d="M165.0092,-154.4343C167.7117,-155.1387 170.3913,-155.8319 173,-156.5 180.0087,-158.295 187.5141,-160.1712 194.7017,-161.9455"/>
<polygon fill="none" stroke="#000000" points="165.7711,-151.0158 155.2099,-151.8596 163.9922,-157.786 165.7711,-151.0158"/>
</g>
<!-- c1816026 -->
<g id="node6" class="node">
<title>c1816026</title>
<g id="a_node6"><a xlink:href="VarianceIncreaseDistance.html" xlink:title="&lt;TABLE&gt;">
<g id="a_node6_6"><a xlink:href="VarianceIncreaseDistance.html" xlink:title="de.lmu.ifi.dbs.elki.algorithm.clustering.hierarchical.birch.VarianceIncreaseDistance" target="_parent">
<polygon fill="none" stroke="#000000" points="177,-133.5 177,-150.5 283,-150.5 283,-133.5 177,-133.5"/>
<text text-anchor="start" x="181" y="-141.1" font-family="Roboto" font-size="8.00" fill="#000000"> </text>
<text text-anchor="start" x="184" y="-141.1" font-family="Roboto" font-size="8.00" fill="#000000">VarianceIncreaseDistance</text>
<text text-anchor="start" x="276" y="-141.1" font-family="Roboto" font-size="8.00" fill="#000000"> </text>
</a>
</g>
</a>
</g>
</g>
<!-- c1816020&#45;&gt;c1816026 -->
<g id="edge6" class="edge">
<title>c1816020&#45;&gt;c1816026</title>
<path fill="none" stroke="#000000" stroke-dasharray="5,2" d="M165.4489,-142.5C169.1851,-142.5 172.9842,-142.5 176.7736,-142.5"/>
<polygon fill="none" stroke="#000000" points="165.1465,-139.0001 155.1465,-142.5 165.1465,-146.0001 165.1465,-139.0001"/>
</g>
<!-- c1816020&#45;&gt;c1816028 -->
<g id="edge3" class="edge">
<title>c1816020&#45;&gt;c1816028</title>
<path fill="none" stroke="#000000" d="M122.5778,-128.2321C127.0361,-102.9464 139.9437,-50.3213 173,-22.5 178.2235,-18.1038 184.6171,-15.0497 191.2106,-12.9365"/>
</g>
<!-- c1816029 -->
<g id="node8" class="node">
<title>c1816029</title>
<g id="a_node8"><a xlink:href="CentroidManhattanDistance.html" xlink:title="&lt;TABLE&gt;">
<g id="a_node8_7"><a xlink:href="CentroidManhattanDistance.html" xlink:title="de.lmu.ifi.dbs.elki.algorithm.clustering.hierarchical.birch.CentroidManhattanDistance" target="_parent">
<polygon fill="none" stroke="#000000" points="173,-105.5 173,-122.5 287,-122.5 287,-105.5 173,-105.5"/>
<text text-anchor="start" x="177" y="-113.1" font-family="Roboto" font-size="8.00" fill="#000000"> </text>
<text text-anchor="start" x="180" y="-113.1" font-family="Roboto" font-size="8.00" fill="#000000">CentroidManhattanDistance</text>
<text text-anchor="start" x="280" y="-113.1" font-family="Roboto" font-size="8.00" fill="#000000"> </text>
</a>
</g>
</a>
</g>
</g>
<!-- c1816020&#45;&gt;c1816029 -->
<g id="edge7" class="edge">
<title>c1816020&#45;&gt;c1816029</title>
<path fill="none" stroke="#000000" stroke-dasharray="5,2" d="M165.0092,-130.5657C167.7117,-129.8613 170.3913,-129.1681 173,-128.5 180.0087,-126.705 187.5141,-124.8288 194.7017,-123.0545"/>
<polygon fill="none" stroke="#000000" points="163.9922,-127.214 155.2099,-133.1404 165.7711,-133.9842 163.9922,-127.214"/>
</g>
<!-- c1816031 -->
<g id="node9" class="node">
<title>c1816031</title>
<g id="a_node9"><a xlink:href="AverageInterclusterDistance.html" xlink:title="&lt;TABLE&gt;">
<g id="a_node9_8"><a xlink:href="AverageInterclusterDistance.html" xlink:title="de.lmu.ifi.dbs.elki.algorithm.clustering.hierarchical.birch.AverageInterclusterDistance" target="_parent">
<polygon fill="none" stroke="#000000" points="174,-77.5 174,-94.5 287,-94.5 287,-77.5 174,-77.5"/>
<text text-anchor="start" x="178" y="-85.1" font-family="Roboto" font-size="8.00" fill="#000000"> </text>
<text text-anchor="start" x="181" y="-85.1" font-family="Roboto" font-size="8.00" fill="#000000">AverageInterclusterDistance</text>
<text text-anchor="start" x="280" y="-85.1" font-family="Roboto" font-size="8.00" fill="#000000"> </text>
</a>
</g>
</a>
</g>
</g>
<!-- c1816020&#45;&gt;c1816031 -->
<g id="edge8" class="edge">
<title>c1816020&#45;&gt;c1816031</title>
<path fill="none" stroke="#000000" stroke-dasharray="5,2" d="M142.107,-121.6969C151.0635,-114.0563 161.9373,-105.9506 173,-100.5 177.2961,-98.3833 181.936,-96.5719 186.6487,-95.0251"/>
<polygon fill="none" stroke="#000000" points="139.6134,-119.2308 134.4703,-128.4936 144.2672,-124.4598 139.6134,-119.2308"/>
</g>
<!-- c1816533 -->
<g id="node10" class="node">
<title>c1816533</title>
<g id="a_node10"><a xlink:href="../../../../data/NumberVector.html" xlink:title="&lt;TABLE&gt;">
<g id="a_node10_9"><a xlink:href="../../../../data/NumberVector.html" xlink:title="de.lmu.ifi.dbs.elki.data.NumberVector" target="_parent">
<polygon fill="#fffacd" stroke="transparent" points="186.5,-28 186.5,-67 273.5,-67 273.5,-28 186.5,-28"/>
<polygon fill="none" stroke="#000000" points="187,-27.5 187,-66.5 274,-66.5 274,-27.5 187,-27.5"/>
<text text-anchor="start" x="209" y="-56.1" font-family="Roboto" font-size="8.00" fill="#000000"> «interface» </text>
<text text-anchor="start" x="202" y="-46.1" font-family="Roboto" font-size="8.00" fill="#000000"> </text>
<text text-anchor="start" x="205" y="-46.1" font-family="Roboto" font-size="8.00" fill="#000000">NumberVector</text>
<text text-anchor="start" x="256" y="-46.1" font-family="Roboto" font-size="8.00" fill="#000000"> </text>
<text text-anchor="start" x="191" y="-35.1" font-family="Roboto" font-size="8.00" fill="#000000"> </text>
<text text-anchor="start" x="194" y="-35.1" font-family="Roboto" font-size="7.00" fill="#000000">de.lmu.ifi.dbs.elki.data</text>
<text text-anchor="start" x="267" y="-35.1" font-family="Roboto" font-size="8.00" fill="#000000"> </text>
</a>
</g>
</a>
</g>
</g>
<!-- c1816020&#45;&gt;c1816533 -->
<g id="edge4" class="edge">
<title>c1816020&#45;&gt;c1816533</title>
<path fill="none" stroke="#000000" d="M128.0769,-128.4367C137.031,-112.9479 153.2393,-88.1656 173,-72.5 177.0645,-69.2778 181.6087,-66.385 186.3099,-63.8114"/>
</g>
</g>
</svg>
