<?xml version="1.0" encoding="UTF-8" standalone="no"?>
<!DOCTYPE svg PUBLIC "-//W3C//DTD SVG 1.1//EN"
 "http://www.w3.org/Graphics/SVG/1.1/DTD/svg11.dtd">
<!-- Generated by graphviz version 2.40.1 (20161225.0304)
 -->
<!-- Title: G Pages: 1 -->
<svg width="209pt" height="36pt"
 viewBox="0.00 0.00 209.00 36.00" xmlns="http://www.w3.org/2000/svg" xmlns:xlink="http://www.w3.org/1999/xlink">
<g id="graph0" class="graph" transform="scale(1 1) rotate(0) translate(4 32)">
<title>G</title>
<polygon fill="#ffffff" stroke="transparent" points="-4,4 -4,-32 205,-32 205,4 -4,4"/>
<!-- c2375559 -->
<g id="node1" class="node">
<title>c2375559</title>
<g id="a_node1"><a xlink:href="BIRCHDistance.html" xlink:title="&lt;TABLE&gt;">
<g id="a_node1_0"><a xlink:href="BIRCHDistance.html" xlink:title="de.lmu.ifi.dbs.elki.algorithm.clustering.hierarchical.birch.BIRCHDistance" target="_parent">
<polygon fill="none" stroke="#000000" points=".5,0 .5,-28 69.5,-28 69.5,0 .5,0"/>
<text text-anchor="start" x="13.5" y="-17.6" font-family="Roboto" font-size="8.00" fill="#000000"> «interface» </text>
<text text-anchor="start" x="4.5" y="-7.6" font-family="Roboto" font-size="8.00" fill="#000000"> </text>
<text text-anchor="start" x="7.5" y="-7.6" font-family="Roboto" font-size="8.00" fill="#000000">BIRCHDistance</text>
<text text-anchor="start" x="62.5" y="-7.6" font-family="Roboto" font-size="8.00" fill="#000000"> </text>
</a>
</g>
</a>
</g>
</g>
<!-- c2375568 -->
<g id="node2" class="node">
<title>c2375568</title>
<g id="a_node2"><a xlink:href="CentroidManhattanDistance.html" xlink:title="&lt;TABLE&gt;">
<g id="a_node2_1"><a xlink:href="CentroidManhattanDistance.html" xlink:title="de.lmu.ifi.dbs.elki.algorithm.clustering.hierarchical.birch.CentroidManhattanDistance" target="_parent">
<polygon fill="#fffacd" stroke="transparent" points="87,-5.5 87,-22.5 201,-22.5 201,-5.5 87,-5.5"/>
<polygon fill="none" stroke="#000000" points="87,-5 87,-22 201,-22 201,-5 87,-5"/>
<text text-anchor="start" x="91" y="-12.6" font-family="Roboto" font-size="8.00" fill="#000000"> </text>
<text text-anchor="start" x="94" y="-12.6" font-family="Roboto" font-size="8.00" fill="#000000">CentroidManhattanDistance</text>
<text text-anchor="start" x="194" y="-12.6" font-family="Roboto" font-size="8.00" fill="#000000"> </text>
</a>
</g>
</a>
</g>
</g>
<!-- c2375559&#45;&gt;c2375568 -->
<g id="edge1" class="edge">
<title>c2375559&#45;&gt;c2375568</title>
<path fill="none" stroke="#000000" stroke-dasharray="5,2" d="M79.2019,-14C81.7012,-14 84.2293,-14 86.7646,-14"/>
<polygon fill="none" stroke="#000000" points="79.1465,-10.5001 69.1465,-14 79.1464,-17.5001 79.1465,-10.5001"/>
</g>
</g>
</svg>
