<?xml version="1.0" encoding="UTF-8" standalone="no"?>
<!DOCTYPE svg PUBLIC "-//W3C//DTD SVG 1.1//EN"
 "http://www.w3.org/Graphics/SVG/1.1/DTD/svg11.dtd">
<!-- Generated by graphviz version 2.40.1 (20161225.0304)
 -->
<!-- Title: G Pages: 1 -->
<svg width="599pt" height="253pt"
 viewBox="0.00 0.00 599.00 253.00" xmlns="http://www.w3.org/2000/svg" xmlns:xlink="http://www.w3.org/1999/xlink">
<g id="graph0" class="graph" transform="scale(1 1) rotate(0) translate(4 249)">
<title>G</title>
<polygon fill="#ffffff" stroke="transparent" points="-4,4 -4,-249 595,-249 595,4 -4,4"/>
<!-- c259590 -->
<g id="node1" class="node">
<title>c259590</title>
<g id="a_node1"><a xlink:href="CentroidEuclideanDistance.html" xlink:title="&lt;TABLE&gt;">
<g id="a_node1_0"><a xlink:href="CentroidEuclideanDistance.html" xlink:title="de.lmu.ifi.dbs.elki.algorithm.clustering.hierarchical.birch.CentroidEuclideanDistance" target="_parent">
<polygon fill="none" stroke="#000000" points="480,-227.5 480,-244.5 589,-244.5 589,-227.5 480,-227.5"/>
<text text-anchor="start" x="484" y="-235.1" font-family="Roboto" font-size="8.00" fill="#000000"> </text>
<text text-anchor="start" x="487" y="-235.1" font-family="Roboto" font-size="8.00" fill="#000000">CentroidEuclideanDistance</text>
<text text-anchor="start" x="582" y="-235.1" font-family="Roboto" font-size="8.00" fill="#000000"> </text>
</a>
</g>
</a>
</g>
</g>
<!-- c259592 -->
<g id="node2" class="node">
<title>c259592</title>
<g id="a_node2"><a xlink:href="BIRCHLeafClustering.html" xlink:title="&lt;TABLE&gt;">
<g id="a_node2_1"><a xlink:href="BIRCHLeafClustering.html" xlink:title="de.lmu.ifi.dbs.elki.algorithm.clustering.hierarchical.birch.BIRCHLeafClustering" target="_parent">
<polygon fill="none" stroke="#000000" points="159,-43.5 159,-60.5 249,-60.5 249,-43.5 159,-43.5"/>
<text text-anchor="start" x="163" y="-51.1" font-family="Roboto" font-size="8.00" fill="#000000"> </text>
<text text-anchor="start" x="166" y="-51.1" font-family="Roboto" font-size="8.00" fill="#000000">BIRCHLeafClustering</text>
<text text-anchor="start" x="242" y="-51.1" font-family="Roboto" font-size="8.00" fill="#000000"> </text>
</a>
</g>
</a>
</g>
</g>
<!-- c259596 -->
<g id="node4" class="node">
<title>c259596</title>
<g id="a_node4"><a xlink:href="CFTree.html" xlink:title="&lt;TABLE&gt;">
<g id="a_node4_2"><a xlink:href="CFTree.html" xlink:title="de.lmu.ifi.dbs.elki.algorithm.clustering.hierarchical.birch.CFTree" target="_parent">
<polygon fill="none" stroke="#000000" points="281,-74.5 281,-91.5 321,-91.5 321,-74.5 281,-74.5"/>
<text text-anchor="start" x="285" y="-82.1" font-family="Roboto" font-size="8.00" fill="#000000"> </text>
<text text-anchor="start" x="288" y="-82.1" font-family="Roboto" font-size="8.00" fill="#000000">CFTree</text>
<text text-anchor="start" x="314" y="-82.1" font-family="Roboto" font-size="8.00" fill="#000000"> </text>
</a>
</g>
</a>
</g>
</g>
<!-- c259592&#45;&gt;c259596 -->
<g id="edge3" class="edge">
<title>c259592&#45;&gt;c259596</title>
<path fill="none" stroke="#000000" stroke-dasharray="5,2" d="M230.7624,-61.0529C243.2405,-65.0408 258.1389,-69.8021 270.9971,-73.9114"/>
<polygon fill="#000000" stroke="#000000" points="280.7865,-77.04 269.8912,-78.2822 276.0238,-75.5179 271.2611,-73.9957 271.2611,-73.9957 271.2611,-73.9957 276.0238,-75.5179 272.631,-69.7093 280.7865,-77.04 280.7865,-77.04"/>
</g>
<!-- c259599 -->
<g id="node6" class="node">
<title>c259599</title>
<g id="a_node6"><a xlink:href="CFTree.Factory.html" xlink:title="&lt;TABLE&gt;">
<g id="a_node6_3"><a xlink:href="CFTree.Factory.html" xlink:title="de.lmu.ifi.dbs.elki.algorithm.clustering.hierarchical.birch.CFTree.Factory" target="_parent">
<polygon fill="none" stroke="#000000" points="267,-43.5 267,-60.5 335,-60.5 335,-43.5 267,-43.5"/>
<text text-anchor="start" x="271" y="-51.1" font-family="Roboto" font-size="8.00" fill="#000000"> </text>
<text text-anchor="start" x="274" y="-51.1" font-family="Roboto" font-size="8.00" fill="#000000">CFTree.Factory</text>
<text text-anchor="start" x="328" y="-51.1" font-family="Roboto" font-size="8.00" fill="#000000"> </text>
</a>
</g>
</a>
</g>
</g>
<!-- c259592&#45;&gt;c259599 -->
<g id="edge15" class="edge">
<title>c259592&#45;&gt;c259599</title>
<path fill="none" stroke="#000000" d="M249.0923,-52.5C251.597,-52.5 254.1138,-52.5 256.6159,-52.5"/>
<polygon fill="#000000" stroke="#000000" points="266.7503,-52.5 256.7503,-57.0001 261.7503,-52.5 256.7503,-52.5001 256.7503,-52.5001 256.7503,-52.5001 261.7503,-52.5 256.7502,-48.0001 266.7503,-52.5 266.7503,-52.5"/>
</g>
<!-- c259594 -->
<g id="node3" class="node">
<title>c259594</title>
<g id="a_node3"><a xlink:href="DiameterCriterion.html" xlink:title="&lt;TABLE&gt;">
<g id="a_node3_4"><a xlink:href="DiameterCriterion.html" xlink:title="de.lmu.ifi.dbs.elki.algorithm.clustering.hierarchical.birch.DiameterCriterion" target="_parent">
<polygon fill="none" stroke="#000000" points="496,-55.5 496,-72.5 573,-72.5 573,-55.5 496,-55.5"/>
<text text-anchor="start" x="500" y="-63.1" font-family="Roboto" font-size="8.00" fill="#000000"> </text>
<text text-anchor="start" x="503" y="-63.1" font-family="Roboto" font-size="8.00" fill="#000000">DiameterCriterion</text>
<text text-anchor="start" x="566" y="-63.1" font-family="Roboto" font-size="8.00" fill="#000000"> </text>
</a>
</g>
</a>
</g>
</g>
<!-- c259597 -->
<g id="node5" class="node">
<title>c259597</title>
<g id="a_node5"><a xlink:href="CFTree.LeafIterator.html" xlink:title="&lt;TABLE&gt;">
<g id="a_node5_5"><a xlink:href="CFTree.LeafIterator.html" xlink:title="de.lmu.ifi.dbs.elki.algorithm.clustering.hierarchical.birch.CFTree.LeafIterator" target="_parent">
<polygon fill="none" stroke="#000000" points="365,-61.5 365,-78.5 448,-78.5 448,-61.5 365,-61.5"/>
<text text-anchor="start" x="369" y="-69.1" font-family="Roboto" font-size="8.00" fill="#000000"> </text>
<text text-anchor="start" x="372" y="-69.1" font-family="Roboto" font-size="8.00" fill="#000000">CFTree.LeafIterator</text>
<text text-anchor="start" x="441" y="-69.1" font-family="Roboto" font-size="8.00" fill="#000000"> </text>
</a>
</g>
</a>
</g>
</g>
<!-- c259596&#45;&gt;c259597 -->
<g id="edge6" class="edge">
<title>c259596&#45;&gt;c259597</title>
<path fill="none" stroke="#000000" d="M333.2671,-79.505C342.9979,-78.3003 353.8237,-76.9599 364.0863,-75.6893"/>
<polygon fill="none" stroke="#000000" points="333.1541,-79.5189 327.6911,-84.2259 321.2451,-80.9935 326.7081,-76.2865 333.1541,-79.5189"/>
</g>
<!-- c259603 -->
<g id="node8" class="node">
<title>c259603</title>
<g id="a_node8"><a xlink:href="BIRCHDistance.html" xlink:title="&lt;TABLE&gt;">
<g id="a_node8_6"><a xlink:href="BIRCHDistance.html" xlink:title="de.lmu.ifi.dbs.elki.algorithm.clustering.hierarchical.birch.BIRCHDistance" target="_parent">
<polygon fill="none" stroke="#000000" points="372,-166.5 372,-194.5 441,-194.5 441,-166.5 372,-166.5"/>
<text text-anchor="start" x="385" y="-184.1" font-family="Roboto" font-size="8.00" fill="#000000"> «interface» </text>
<text text-anchor="start" x="376" y="-174.1" font-family="Roboto" font-size="8.00" fill="#000000"> </text>
<text text-anchor="start" x="379" y="-174.1" font-family="Roboto" font-size="8.00" fill="#000000">BIRCHDistance</text>
<text text-anchor="start" x="434" y="-174.1" font-family="Roboto" font-size="8.00" fill="#000000"> </text>
</a>
</g>
</a>
</g>
</g>
<!-- c259596&#45;&gt;c259603 -->
<g id="edge16" class="edge">
<title>c259596&#45;&gt;c259603</title>
<path fill="none" stroke="#000000" d="M310.318,-92.1081C326.4809,-107.0395 360.1637,-138.156 382.9335,-159.1909"/>
<polygon fill="#000000" stroke="#000000" points="390.4857,-166.1678 380.0868,-162.6874 386.813,-162.7749 383.1403,-159.382 383.1403,-159.382 383.1403,-159.382 386.813,-162.7749 386.1939,-156.0766 390.4857,-166.1678 390.4857,-166.1678"/>
</g>
<!-- c259608 -->
<g id="node11" class="node">
<title>c259608</title>
<g id="a_node11"><a xlink:href="BIRCHAbsorptionCriterion.html" xlink:title="&lt;TABLE&gt;">
<g id="a_node11_7"><a xlink:href="BIRCHAbsorptionCriterion.html" xlink:title="de.lmu.ifi.dbs.elki.algorithm.clustering.hierarchical.birch.BIRCHAbsorptionCriterion" target="_parent">
<polygon fill="none" stroke="#000000" points="353,-22.5 353,-50.5 459,-50.5 459,-22.5 353,-22.5"/>
<text text-anchor="start" x="384.5" y="-40.1" font-family="Roboto" font-size="8.00" fill="#000000"> «interface» </text>
<text text-anchor="start" x="357" y="-30.1" font-family="Roboto" font-size="8.00" fill="#000000"> </text>
<text text-anchor="start" x="360" y="-30.1" font-family="Roboto" font-size="8.00" fill="#000000">BIRCHAbsorptionCriterion</text>
<text text-anchor="start" x="452" y="-30.1" font-family="Roboto" font-size="8.00" fill="#000000"> </text>
</a>
</g>
</a>
</g>
</g>
<!-- c259596&#45;&gt;c259608 -->
<g id="edge17" class="edge">
<title>c259596&#45;&gt;c259608</title>
<path fill="none" stroke="#000000" d="M318.3709,-74.9961C323.7282,-72.3248 329.6297,-69.3326 335,-66.5 343.0947,-62.2304 344.6966,-60.348 353,-56.5 354.3663,-55.8668 355.7589,-55.2378 357.1695,-54.6147"/>
<polygon fill="#000000" stroke="#000000" points="366.658,-50.6078 359.1964,-58.6437 362.0519,-52.553 357.4457,-54.4981 357.4457,-54.4981 357.4457,-54.4981 362.0519,-52.553 355.6951,-50.3526 366.658,-50.6078 366.658,-50.6078"/>
</g>
<!-- c259611 -->
<g id="node13" class="node">
<title>c259611</title>
<g id="a_node13"><a xlink:href="ClusteringFeature.html" xlink:title="&lt;TABLE&gt;">
<g id="a_node13_8"><a xlink:href="ClusteringFeature.html" xlink:title="de.lmu.ifi.dbs.elki.algorithm.clustering.hierarchical.birch.ClusteringFeature" target="_parent">
<polygon fill="none" stroke="#000000" points="496,-87.5 496,-104.5 573,-104.5 573,-87.5 496,-87.5"/>
<text text-anchor="start" x="500" y="-95.1" font-family="Roboto" font-size="8.00" fill="#000000"> </text>
<text text-anchor="start" x="503" y="-95.1" font-family="Roboto" font-size="8.00" fill="#000000">ClusteringFeature</text>
<text text-anchor="start" x="566" y="-95.1" font-family="Roboto" font-size="8.00" fill="#000000"> </text>
</a>
</g>
</a>
</g>
</g>
<!-- c259596&#45;&gt;c259611 -->
<g id="edge5" class="edge">
<title>c259596&#45;&gt;c259611</title>
<path fill="none" stroke="#000000" d="M333.3254,-85.3036C375.6831,-87.6669 449.8906,-91.8072 495.2244,-94.3366"/>
<polygon fill="none" stroke="#000000" points="333.251,-85.2995 327.0374,-88.959 321.2696,-84.6309 327.4832,-80.9714 333.251,-85.2995"/>
</g>
<!-- c259597&#45;&gt;c259611 -->
<g id="edge18" class="edge">
<title>c259597&#45;&gt;c259611</title>
<path fill="none" stroke="#000000" d="M447.5579,-78.9415C459.5342,-81.3741 472.711,-84.0507 485.0892,-86.565"/>
<polygon fill="#000000" stroke="#000000" points="495.2552,-88.63 484.5595,-91.0492 490.3553,-87.6346 485.4553,-86.6393 485.4553,-86.6393 485.4553,-86.6393 490.3553,-87.6346 486.3511,-82.2293 495.2552,-88.63 495.2552,-88.63"/>
<text text-anchor="middle" x="493.2552" y="-83.03" font-family="Roboto" font-size="7.00" fill="#000000">*</text>
</g>
<!-- c259599&#45;&gt;c259603 -->
<g id="edge19" class="edge">
<title>c259599&#45;&gt;c259603</title>
<path fill="none" stroke="#000000" d="M322.6149,-61.1068C326.9971,-63.4349 331.3696,-66.2335 335,-69.5 362.6503,-94.3792 383.8188,-132.4332 395.5849,-156.8896"/>
<polygon fill="#000000" stroke="#000000" points="399.9051,-166.1538 391.6003,-158.9927 397.7919,-161.6223 395.6787,-157.0908 395.6787,-157.0908 395.6787,-157.0908 397.7919,-161.6223 399.757,-155.1889 399.9051,-166.1538 399.9051,-166.1538"/>
</g>
<!-- c259599&#45;&gt;c259608 -->
<g id="edge20" class="edge">
<title>c259599&#45;&gt;c259608</title>
<path fill="none" stroke="#000000" d="M335.0905,-47.3053C337.5531,-46.93 340.0776,-46.5453 342.6382,-46.1551"/>
<polygon fill="#000000" stroke="#000000" points="352.6385,-44.6313 343.4305,-50.5864 347.6955,-45.3845 342.7526,-46.1378 342.7526,-46.1378 342.7526,-46.1378 347.6955,-45.3845 342.0747,-41.6891 352.6385,-44.6313 352.6385,-44.6313"/>
</g>
<!-- c259601 -->
<g id="node7" class="node">
<title>c259601</title>
<g id="a_node7"><a xlink:href="EuclideanDistanceCriterion.html" xlink:title="&lt;TABLE&gt;">
<g id="a_node7_9"><a xlink:href="EuclideanDistanceCriterion.html" xlink:title="de.lmu.ifi.dbs.elki.algorithm.clustering.hierarchical.birch.EuclideanDistanceCriterion" target="_parent">
<polygon fill="none" stroke="#000000" points="479,-27.5 479,-44.5 589,-44.5 589,-27.5 479,-27.5"/>
<text text-anchor="start" x="483" y="-35.1" font-family="Roboto" font-size="8.00" fill="#000000"> </text>
<text text-anchor="start" x="486" y="-35.1" font-family="Roboto" font-size="8.00" fill="#000000">EuclideanDistanceCriterion</text>
<text text-anchor="start" x="582" y="-35.1" font-family="Roboto" font-size="8.00" fill="#000000"> </text>
</a>
</g>
</a>
</g>
</g>
<!-- c259603&#45;&gt;c259590 -->
<g id="edge1" class="edge">
<title>c259603&#45;&gt;c259590</title>
<path fill="none" stroke="#000000" stroke-dasharray="5,2" d="M434.8994,-200.2123C447.4095,-208.043 462.4889,-216.5773 477,-222.5 482.0946,-224.5794 487.5761,-226.4044 493.0546,-227.9899"/>
<polygon fill="none" stroke="#000000" points="436.5946,-197.1413 426.2891,-194.6821 432.8117,-203.0311 436.5946,-197.1413"/>
</g>
<!-- c259604 -->
<g id="node9" class="node">
<title>c259604</title>
<g id="a_node9"><a xlink:href="AverageIntraclusterDistance.html" xlink:title="&lt;TABLE&gt;">
<g id="a_node9_10"><a xlink:href="AverageIntraclusterDistance.html" xlink:title="de.lmu.ifi.dbs.elki.algorithm.clustering.hierarchical.birch.AverageIntraclusterDistance" target="_parent">
<polygon fill="none" stroke="#000000" points="477,-199.5 477,-216.5 591,-216.5 591,-199.5 477,-199.5"/>
<text text-anchor="start" x="481" y="-207.1" font-family="Roboto" font-size="8.00" fill="#000000"> </text>
<text text-anchor="start" x="484" y="-207.1" font-family="Roboto" font-size="8.00" fill="#000000">AverageIntraclusterDistance</text>
<text text-anchor="start" x="584" y="-207.1" font-family="Roboto" font-size="8.00" fill="#000000"> </text>
</a>
</g>
</a>
</g>
</g>
<!-- c259603&#45;&gt;c259604 -->
<g id="edge9" class="edge">
<title>c259603&#45;&gt;c259604</title>
<path fill="none" stroke="#000000" stroke-dasharray="5,2" d="M450.7874,-190.2972C465.1339,-193.4355 480.9,-196.8844 494.8145,-199.9282"/>
<polygon fill="none" stroke="#000000" points="451.1556,-186.7951 440.6386,-188.0772 449.6597,-193.6334 451.1556,-186.7951"/>
</g>
<!-- c259609 -->
<g id="node12" class="node">
<title>c259609</title>
<g id="a_node12"><a xlink:href="VarianceIncreaseDistance.html" xlink:title="&lt;TABLE&gt;">
<g id="a_node12_11"><a xlink:href="VarianceIncreaseDistance.html" xlink:title="de.lmu.ifi.dbs.elki.algorithm.clustering.hierarchical.birch.VarianceIncreaseDistance" target="_parent">
<polygon fill="none" stroke="#000000" points="481,-171.5 481,-188.5 587,-188.5 587,-171.5 481,-171.5"/>
<text text-anchor="start" x="485" y="-179.1" font-family="Roboto" font-size="8.00" fill="#000000"> </text>
<text text-anchor="start" x="488" y="-179.1" font-family="Roboto" font-size="8.00" fill="#000000">VarianceIncreaseDistance</text>
<text text-anchor="start" x="580" y="-179.1" font-family="Roboto" font-size="8.00" fill="#000000"> </text>
</a>
</g>
</a>
</g>
</g>
<!-- c259603&#45;&gt;c259609 -->
<g id="edge12" class="edge">
<title>c259603&#45;&gt;c259609</title>
<path fill="none" stroke="#000000" stroke-dasharray="5,2" d="M450.7763,-180.5C460.3927,-180.5 470.6474,-180.5 480.5551,-180.5"/>
<polygon fill="none" stroke="#000000" points="450.6387,-177.0001 440.6386,-180.5 450.6386,-184.0001 450.6387,-177.0001"/>
</g>
<!-- c259603&#45;&gt;c259611 -->
<g id="edge8" class="edge">
<title>c259603&#45;&gt;c259611</title>
<path fill="none" stroke="#000000" d="M416.402,-166.4009C428.9701,-150.3991 451.6141,-124.6857 477,-110.5 482.6041,-107.3684 488.9019,-104.9303 495.2127,-103.034"/>
</g>
<!-- c259612 -->
<g id="node14" class="node">
<title>c259612</title>
<g id="a_node14"><a xlink:href="CentroidManhattanDistance.html" xlink:title="&lt;TABLE&gt;">
<g id="a_node14_12"><a xlink:href="CentroidManhattanDistance.html" xlink:title="de.lmu.ifi.dbs.elki.algorithm.clustering.hierarchical.birch.CentroidManhattanDistance" target="_parent">
<polygon fill="none" stroke="#000000" points="477,-143.5 477,-160.5 591,-160.5 591,-143.5 477,-143.5"/>
<text text-anchor="start" x="481" y="-151.1" font-family="Roboto" font-size="8.00" fill="#000000"> </text>
<text text-anchor="start" x="484" y="-151.1" font-family="Roboto" font-size="8.00" fill="#000000">CentroidManhattanDistance</text>
<text text-anchor="start" x="584" y="-151.1" font-family="Roboto" font-size="8.00" fill="#000000"> </text>
</a>
</g>
</a>
</g>
</g>
<!-- c259603&#45;&gt;c259612 -->
<g id="edge13" class="edge">
<title>c259603&#45;&gt;c259612</title>
<path fill="none" stroke="#000000" stroke-dasharray="5,2" d="M450.7874,-170.7028C465.1339,-167.5645 480.9,-164.1156 494.8145,-161.0718"/>
<polygon fill="none" stroke="#000000" points="449.6597,-167.3666 440.6386,-172.9228 451.1556,-174.2049 449.6597,-167.3666"/>
</g>
<!-- c259614 -->
<g id="node15" class="node">
<title>c259614</title>
<g id="a_node15"><a xlink:href="AverageInterclusterDistance.html" xlink:title="&lt;TABLE&gt;">
<g id="a_node15_13"><a xlink:href="AverageInterclusterDistance.html" xlink:title="de.lmu.ifi.dbs.elki.algorithm.clustering.hierarchical.birch.AverageInterclusterDistance" target="_parent">
<polygon fill="none" stroke="#000000" points="478,-115.5 478,-132.5 591,-132.5 591,-115.5 478,-115.5"/>
<text text-anchor="start" x="482" y="-123.1" font-family="Roboto" font-size="8.00" fill="#000000"> </text>
<text text-anchor="start" x="485" y="-123.1" font-family="Roboto" font-size="8.00" fill="#000000">AverageInterclusterDistance</text>
<text text-anchor="start" x="584" y="-123.1" font-family="Roboto" font-size="8.00" fill="#000000"> </text>
</a>
</g>
</a>
</g>
</g>
<!-- c259603&#45;&gt;c259614 -->
<g id="edge14" class="edge">
<title>c259603&#45;&gt;c259614</title>
<path fill="none" stroke="#000000" stroke-dasharray="5,2" d="M434.8994,-160.7877C447.4095,-152.957 462.4889,-144.4227 477,-138.5 482.0946,-136.4206 487.5761,-134.5956 493.0546,-133.0101"/>
<polygon fill="none" stroke="#000000" points="432.8117,-157.9689 426.2891,-166.3179 436.5946,-163.8587 432.8117,-157.9689"/>
</g>
<!-- c259606 -->
<g id="node10" class="node">
<title>c259606</title>
<g id="a_node10"><a xlink:href="RadiusCriterion.html" xlink:title="&lt;TABLE&gt;">
<g id="a_node10_14"><a xlink:href="RadiusCriterion.html" xlink:title="de.lmu.ifi.dbs.elki.algorithm.clustering.hierarchical.birch.RadiusCriterion" target="_parent">
<polygon fill="none" stroke="#000000" points="500,.5 500,-16.5 569,-16.5 569,.5 500,.5"/>
<text text-anchor="start" x="504" y="-7.1" font-family="Roboto" font-size="8.00" fill="#000000"> </text>
<text text-anchor="start" x="507" y="-7.1" font-family="Roboto" font-size="8.00" fill="#000000">RadiusCriterion</text>
<text text-anchor="start" x="562" y="-7.1" font-family="Roboto" font-size="8.00" fill="#000000"> </text>
</a>
</g>
</a>
</g>
</g>
<!-- c259608&#45;&gt;c259594 -->
<g id="edge4" class="edge">
<title>c259608&#45;&gt;c259594</title>
<path fill="none" stroke="#000000" stroke-dasharray="5,2" d="M469.1706,-50.3186C478.0675,-52.2648 486.9858,-54.2156 495.2376,-56.0207"/>
<polygon fill="none" stroke="#000000" points="469.6885,-46.8492 459.1715,-48.1313 468.1926,-53.6875 469.6885,-46.8492"/>
</g>
<!-- c259608&#45;&gt;c259601 -->
<g id="edge7" class="edge">
<title>c259608&#45;&gt;c259601</title>
<path fill="none" stroke="#000000" stroke-dasharray="5,2" d="M469.2424,-36.5C472.4103,-36.5 475.5806,-36.5 478.7224,-36.5"/>
<polygon fill="none" stroke="#000000" points="469.1716,-33.0001 459.1715,-36.5 469.1715,-40.0001 469.1716,-33.0001"/>
</g>
<!-- c259608&#45;&gt;c259606 -->
<g id="edge10" class="edge">
<title>c259608&#45;&gt;c259606</title>
<path fill="none" stroke="#000000" stroke-dasharray="5,2" d="M469.1348,-22.6893C479.5742,-20.4056 490.0443,-18.1153 499.4338,-16.0613"/>
<polygon fill="none" stroke="#000000" points="468.1926,-19.3125 459.1715,-24.8687 469.6885,-26.1508 468.1926,-19.3125"/>
</g>
<!-- c259608&#45;&gt;c259611 -->
<g id="edge11" class="edge">
<title>c259608&#45;&gt;c259611</title>
<path fill="none" stroke="#000000" stroke-dasharray="5,2" d="M449.2403,-50.5654C452.6629,-52.3458 455.9648,-54.3196 459,-56.5 469.2604,-63.8708 466.5409,-71.4139 477,-78.5 480.058,-80.5718 483.3675,-82.4155 486.7996,-84.0544"/>
<polygon fill="#000000" stroke="#000000" points="496.0817,-87.9305 485.1199,-88.2296 491.4678,-86.0038 486.854,-84.0771 486.854,-84.0771 486.854,-84.0771 491.4678,-86.0038 488.588,-79.9246 496.0817,-87.9305 496.0817,-87.9305"/>
</g>
<!-- c259857 -->
<g id="node16" class="node">
<title>c259857</title>
<g id="a_node16"><a xlink:href="../../ClusteringAlgorithm.html" xlink:title="&lt;TABLE&gt;">
<g id="a_node16_15"><a xlink:href="../../ClusteringAlgorithm.html" xlink:title="de.lmu.ifi.dbs.elki.algorithm.clustering.ClusteringAlgorithm" target="_parent">
<polygon fill="none" stroke="#000000" points=".5,-49.5 .5,-88.5 141.5,-88.5 141.5,-49.5 .5,-49.5"/>
<text text-anchor="start" x="49.5" y="-78.1" font-family="Roboto" font-size="8.00" fill="#000000"> «interface» </text>
<text text-anchor="start" x="32.5" y="-68.1" font-family="Roboto" font-size="8.00" fill="#000000"> </text>
<text text-anchor="start" x="35.5" y="-68.1" font-family="Roboto" font-size="8.00" fill="#000000">ClusteringAlgorithm</text>
<text text-anchor="start" x="106.5" y="-68.1" font-family="Roboto" font-size="8.00" fill="#000000"> </text>
<text text-anchor="start" x="4.5" y="-57.1" font-family="Roboto" font-size="8.00" fill="#000000"> </text>
<text text-anchor="start" x="7.5" y="-57.1" font-family="Roboto" font-size="7.00" fill="#000000">de.lmu.ifi.dbs.elki.algorithm.clustering</text>
<text text-anchor="start" x="134.5" y="-57.1" font-family="Roboto" font-size="8.00" fill="#000000"> </text>
<polygon fill="none" stroke="#000000" points=".5,-32.5 .5,-49.5 141.5,-49.5 141.5,-32.5 .5,-32.5"/>
<text text-anchor="start" x="4.5" y="-39.1" font-family="Roboto" font-size="8.00" fill="#000000"> &#160;</text>
<polygon fill="none" stroke="#000000" points=".5,-15.5 .5,-32.5 141.5,-32.5 141.5,-15.5 .5,-15.5"/>
<text text-anchor="start" x="4.5" y="-23.1" font-family="Roboto" font-size="8.00" fill="#000000"> </text>
<text text-anchor="start" x="7.5" y="-23.1" font-family="Roboto" font-style="italic" font-size="8.00" fill="#000000"> run()</text>
<text text-anchor="start" x="28.5" y="-23.1" font-family="Roboto" font-size="8.00" fill="#000000"> </text>
</a>
</g>
</a>
</g>
</g>
<!-- c259857&#45;&gt;c259592 -->
<g id="edge2" class="edge">
<title>c259857&#45;&gt;c259592</title>
<path fill="none" stroke="#000000" stroke-dasharray="5,2" d="M151.2163,-52.5C153.7953,-52.5 156.3451,-52.5 158.8495,-52.5"/>
<polygon fill="none" stroke="#000000" points="151.1592,-49.0001 141.1591,-52.5 151.1591,-56.0001 151.1592,-49.0001"/>
</g>
</g>
</svg>
