<?xml version="1.0" encoding="UTF-8" standalone="no"?>
<!DOCTYPE svg PUBLIC "-//W3C//DTD SVG 1.1//EN"
 "http://www.w3.org/Graphics/SVG/1.1/DTD/svg11.dtd">
<!-- Generated by graphviz version 2.40.1 (20161225.0304)
 -->
<!-- Title: G Pages: 1 -->
<svg width="307pt" height="25pt"
 viewBox="0.00 0.00 307.00 25.00" xmlns="http://www.w3.org/2000/svg" xmlns:xlink="http://www.w3.org/1999/xlink">
<g id="graph0" class="graph" transform="scale(1 1) rotate(0) translate(4 21)">
<title>G</title>
<polygon fill="#ffffff" stroke="transparent" points="-4,4 -4,-21 303,-21 303,4 -4,4"/>
<!-- c9621847 -->
<g id="node1" class="node">
<title>c9621847</title>
<g id="a_node1"><a xlink:href="SingleThreadedExecutor.html" xlink:title="&lt;TABLE&gt;">
<g id="a_node1_0"><a xlink:href="SingleThreadedExecutor.html" xlink:title="de.lmu.ifi.dbs.elki.parallel.SingleThreadedExecutor" target="_parent">
<polygon fill="#fffacd" stroke="transparent" points="0,0 0,-17 99,-17 99,0 0,0"/>
<polygon fill="none" stroke="#000000" points=".5,.5 .5,-16.5 99.5,-16.5 99.5,.5 .5,.5"/>
<text text-anchor="start" x="4.5" y="-7.1" font-family="Roboto" font-size="8.00" fill="#000000"> </text>
<text text-anchor="start" x="7.5" y="-7.1" font-family="Roboto" font-size="8.00" fill="#000000">SingleThreadedExecutor</text>
<text text-anchor="start" x="92.5" y="-7.1" font-family="Roboto" font-size="8.00" fill="#000000"> </text>
</a>
</g>
</a>
</g>
</g>
<!-- c9621848 -->
<g id="node2" class="node">
<title>c9621848</title>
<g id="a_node2"><a xlink:href="SingleThreadedExecutor.SingleThreadedRunner.html" xlink:title="&lt;TABLE&gt;">
<g id="a_node2_1"><a xlink:href="SingleThreadedExecutor.SingleThreadedRunner.html" xlink:title="de.lmu.ifi.dbs.elki.parallel.SingleThreadedExecutor.SingleThreadedRunner" target="_parent">
<polygon fill="none" stroke="#000000" points="117,.5 117,-16.5 299,-16.5 299,.5 117,.5"/>
<text text-anchor="start" x="121" y="-7.1" font-family="Roboto" font-size="8.00" fill="#000000"> </text>
<text text-anchor="start" x="124" y="-7.1" font-family="Roboto" font-size="8.00" fill="#000000">SingleThreadedExecutor.SingleThreadedRunner</text>
<text text-anchor="start" x="292" y="-7.1" font-family="Roboto" font-size="8.00" fill="#000000"> </text>
</a>
</g>
</a>
</g>
</g>
<!-- c9621847&#45;&gt;c9621848 -->
<g id="edge1" class="edge">
<title>c9621847&#45;&gt;c9621848</title>
<path fill="none" stroke="#000000" d="M111.3044,-8.5C113.1732,-8.5 115.0556,-8.5 116.9472,-8.5"/>
<polygon fill="none" stroke="#000000" points="111.2155,-8.5001 105.2155,-12.5 99.2155,-8.5 105.2155,-4.5 111.2155,-8.5001"/>
</g>
</g>
</svg>
