<?xml version="1.0" encoding="UTF-8" standalone="no"?>
<!DOCTYPE svg PUBLIC "-//W3C//DTD SVG 1.1//EN"
 "http://www.w3.org/Graphics/SVG/1.1/DTD/svg11.dtd">
<!-- Generated by graphviz version 2.40.1 (20161225.0304)
 -->
<!-- Title: G Pages: 1 -->
<svg width="292pt" height="75pt"
 viewBox="0.00 0.00 292.00 75.00" xmlns="http://www.w3.org/2000/svg" xmlns:xlink="http://www.w3.org/1999/xlink">
<g id="graph0" class="graph" transform="scale(1 1) rotate(0) translate(4 71)">
<title>G</title>
<polygon fill="#ffffff" stroke="transparent" points="-4,4 -4,-71 288,-71 288,4 -4,4"/>
<!-- c4412302 -->
<g id="node1" class="node">
<title>c4412302</title>
<g id="a_node1"><a xlink:href="../../../../algorithm/clustering/correlation/ERiC.html" xlink:title="&lt;TABLE&gt;">
<g id="a_node1_0"><a xlink:href="../../../../algorithm/clustering/correlation/ERiC.html" xlink:title="de.lmu.ifi.dbs.elki.algorithm.clustering.correlation.ERiC" target="_parent">
<polygon fill="none" stroke="#000000" points="0,-39 0,-67 178,-67 178,-39 0,-39"/>
<text text-anchor="start" x="77" y="-57.6" font-family="Roboto" font-size="8.00" fill="#000000"> </text>
<text text-anchor="start" x="80" y="-57.6" font-family="Roboto" font-size="8.00" fill="#000000">ERiC</text>
<text text-anchor="start" x="98" y="-57.6" font-family="Roboto" font-size="8.00" fill="#000000"> </text>
<text text-anchor="start" x="4" y="-46.6" font-family="Roboto" font-size="8.00" fill="#000000"> </text>
<text text-anchor="start" x="7" y="-46.6" font-family="Roboto" font-size="7.00" fill="#000000">de.lmu.ifi.dbs.elki.algorithm.clustering.correlation</text>
<text text-anchor="start" x="171" y="-46.6" font-family="Roboto" font-size="8.00" fill="#000000"> </text>
</a>
</g>
</a>
</g>
</g>
<!-- c4413418 -->
<g id="node2" class="node">
<title>c4413418</title>
<g id="a_node2"><a xlink:href="FirstNEigenPairFilter.html" xlink:title="&lt;TABLE&gt;">
<g id="a_node2_1"><a xlink:href="FirstNEigenPairFilter.html" xlink:title="de.lmu.ifi.dbs.elki.math.linearalgebra.pca.filter.FirstNEigenPairFilter" target="_parent">
<polygon fill="#fffacd" stroke="transparent" points="196,-5.5 196,-22.5 284,-22.5 284,-5.5 196,-5.5"/>
<polygon fill="none" stroke="#000000" points="196,-5 196,-22 284,-22 284,-5 196,-5"/>
<text text-anchor="start" x="200" y="-12.6" font-family="Roboto" font-size="8.00" fill="#000000"> </text>
<text text-anchor="start" x="203" y="-12.6" font-family="Roboto" font-size="8.00" fill="#000000">FirstNEigenPairFilter</text>
<text text-anchor="start" x="277" y="-12.6" font-family="Roboto" font-size="8.00" fill="#000000"> </text>
</a>
</g>
</a>
</g>
</g>
<!-- c4412302&#45;&gt;c4413418 -->
<g id="edge1" class="edge">
<title>c4412302&#45;&gt;c4413418</title>
<path fill="none" stroke="#000000" d="M170.0603,-36.0612C172.7431,-35.3839 175.3956,-34.6961 178,-34 190.4562,-30.6706 204.1134,-26.3404 215.4318,-22.5609"/>
<polygon fill="#000000" stroke="#000000" points="169.8194,-36.1198 164.936,-41.4257 158.16,-38.9586 163.0434,-33.6528 169.8194,-36.1198"/>
</g>
<!-- c4413422 -->
<g id="node3" class="node">
<title>c4413422</title>
<g id="a_node3"><a xlink:href="EigenPairFilter.html" xlink:title="&lt;TABLE&gt;">
<g id="a_node3_2"><a xlink:href="EigenPairFilter.html" xlink:title="de.lmu.ifi.dbs.elki.math.linearalgebra.pca.filter.EigenPairFilter" target="_parent">
<polygon fill="none" stroke="#000000" points="56,0 56,-28 122,-28 122,0 56,0"/>
<text text-anchor="start" x="67.5" y="-17.6" font-family="Roboto" font-size="8.00" fill="#000000"> «interface» </text>
<text text-anchor="start" x="60" y="-7.6" font-family="Roboto" font-size="8.00" fill="#000000"> </text>
<text text-anchor="start" x="63" y="-7.6" font-family="Roboto" font-size="8.00" fill="#000000">EigenPairFilter</text>
<text text-anchor="start" x="115" y="-7.6" font-family="Roboto" font-size="8.00" fill="#000000"> </text>
</a>
</g>
</a>
</g>
</g>
<!-- c4413422&#45;&gt;c4413418 -->
<g id="edge2" class="edge">
<title>c4413422&#45;&gt;c4413418</title>
<path fill="none" stroke="#000000" stroke-dasharray="5,2" d="M132.1782,-14C152.0973,-14 175.7164,-14 195.7638,-14"/>
<polygon fill="none" stroke="#000000" points="132.1376,-10.5001 122.1376,-14 132.1376,-17.5001 132.1376,-10.5001"/>
</g>
</g>
</svg>
