<?xml version="1.0" encoding="UTF-8" standalone="no"?>
<!DOCTYPE svg PUBLIC "-//W3C//DTD SVG 1.1//EN"
 "http://www.w3.org/Graphics/SVG/1.1/DTD/svg11.dtd">
<!-- Generated by graphviz version 2.40.1 (20161225.0304)
 -->
<!-- Title: G Pages: 1 -->
<svg width="405pt" height="87pt"
 viewBox="0.00 0.00 405.00 86.50" xmlns="http://www.w3.org/2000/svg" xmlns:xlink="http://www.w3.org/1999/xlink">
<g id="graph0" class="graph" transform="scale(1 1) rotate(0) translate(4 82.5)">
<title>G</title>
<polygon fill="#ffffff" stroke="transparent" points="-4,4 -4,-82.5 401,-82.5 401,4 -4,4"/>
<!-- c4993512 -->
<g id="node1" class="node">
<title>c4993512</title>
<g id="a_node1"><a xlink:href="HiCSDependenceMeasure.html" xlink:title="&lt;TABLE&gt;">
<g id="a_node1_0"><a xlink:href="HiCSDependenceMeasure.html" xlink:title="de.lmu.ifi.dbs.elki.math.statistics.dependence.HiCSDependenceMeasure" target="_parent">
<polygon fill="#fffacd" stroke="transparent" points="134,-27.5 134,-44.5 240,-44.5 240,-27.5 134,-27.5"/>
<polygon fill="none" stroke="#000000" points="134,-27 134,-44 240,-44 240,-27 134,-27"/>
<text text-anchor="start" x="138" y="-34.6" font-family="Roboto" font-size="8.00" fill="#000000"> </text>
<text text-anchor="start" x="141" y="-34.6" font-family="Roboto" font-size="8.00" fill="#000000">HiCSDependenceMeasure</text>
<text text-anchor="start" x="233" y="-34.6" font-family="Roboto" font-size="8.00" fill="#000000"> </text>
</a>
</g>
</a>
</g>
</g>
<!-- c4995123 -->
<g id="node2" class="node">
<title>c4995123</title>
<g id="a_node2"><a xlink:href="../tests/GoodnessOfFitTest.html" xlink:title="&lt;TABLE&gt;">
<g id="a_node2_1"><a xlink:href="../tests/GoodnessOfFitTest.html" xlink:title="de.lmu.ifi.dbs.elki.math.statistics.tests.GoodnessOfFitTest" target="_parent">
<polygon fill="none" stroke="#000000" points="258.5,-39 258.5,-78 397.5,-78 397.5,-39 258.5,-39"/>
<text text-anchor="start" x="306.5" y="-67.6" font-family="Roboto" font-size="8.00" fill="#000000"> «interface» </text>
<text text-anchor="start" x="291.5" y="-57.6" font-family="Roboto" font-size="8.00" fill="#000000"> </text>
<text text-anchor="start" x="294.5" y="-57.6" font-family="Roboto" font-size="8.00" fill="#000000">GoodnessOfFitTest</text>
<text text-anchor="start" x="361.5" y="-57.6" font-family="Roboto" font-size="8.00" fill="#000000"> </text>
<text text-anchor="start" x="262.5" y="-46.6" font-family="Roboto" font-size="8.00" fill="#000000"> </text>
<text text-anchor="start" x="265.5" y="-46.6" font-family="Roboto" font-size="7.00" fill="#000000">de.lmu.ifi.dbs.elki.math.statistics.tests</text>
<text text-anchor="start" x="390.5" y="-46.6" font-family="Roboto" font-size="8.00" fill="#000000"> </text>
</a>
</g>
</a>
</g>
</g>
<!-- c4993512&#45;&gt;c4995123 -->
<g id="edge2" class="edge">
<title>c4993512&#45;&gt;c4995123</title>
<path fill="none" stroke="#000000" d="M239.317,-44.5644C242.1696,-45.0313 245.0645,-45.5052 247.9811,-45.9827"/>
<polygon fill="#000000" stroke="#000000" points="257.951,-47.6148 247.3554,-50.4401 253.0167,-46.807 248.0824,-45.9992 248.0824,-45.9992 248.0824,-45.9992 253.0167,-46.807 248.8094,-41.5583 257.951,-47.6148 257.951,-47.6148"/>
</g>
<!-- c4995441 -->
<g id="node4" class="node">
<title>c4995441</title>
<g id="a_node4"><a xlink:href="../../../utilities/random/RandomFactory.html" xlink:title="&lt;TABLE&gt;">
<g id="a_node4_2"><a xlink:href="../../../utilities/random/RandomFactory.html" xlink:title="de.lmu.ifi.dbs.elki.utilities.random.RandomFactory" target="_parent">
<polygon fill="none" stroke="#000000" points="264.5,0 264.5,-28 390.5,-28 390.5,0 264.5,0"/>
<text text-anchor="start" x="297" y="-18.6" font-family="Roboto" font-size="8.00" fill="#000000"> </text>
<text text-anchor="start" x="300" y="-18.6" font-family="Roboto" font-size="8.00" fill="#000000">RandomFactory</text>
<text text-anchor="start" x="355" y="-18.6" font-family="Roboto" font-size="8.00" fill="#000000"> </text>
<text text-anchor="start" x="268.5" y="-7.6" font-family="Roboto" font-size="8.00" fill="#000000"> </text>
<text text-anchor="start" x="271.5" y="-7.6" font-family="Roboto" font-size="7.00" fill="#000000">de.lmu.ifi.dbs.elki.utilities.random</text>
<text text-anchor="start" x="383.5" y="-7.6" font-family="Roboto" font-size="8.00" fill="#000000"> </text>
</a>
</g>
</a>
</g>
</g>
<!-- c4993512&#45;&gt;c4995441 -->
<g id="edge3" class="edge">
<title>c4993512&#45;&gt;c4995441</title>
<path fill="none" stroke="#000000" d="M240.117,-27.6827C244.8233,-26.9458 249.6388,-26.1918 254.4719,-25.435"/>
<polygon fill="#000000" stroke="#000000" points="264.3877,-23.8823 255.2043,-29.8752 259.4479,-24.6559 254.5081,-25.4294 254.5081,-25.4294 254.5081,-25.4294 259.4479,-24.6559 253.8119,-20.9836 264.3877,-23.8823 264.3877,-23.8823"/>
</g>
<!-- c4995141 -->
<g id="node3" class="node">
<title>c4995141</title>
<g id="a_node3"><a xlink:href="AbstractDependenceMeasure.html" xlink:title="&lt;TABLE&gt;">
<g id="a_node3_3"><a xlink:href="AbstractDependenceMeasure.html" xlink:title="de.lmu.ifi.dbs.elki.math.statistics.dependence.AbstractDependenceMeasure" target="_parent">
<polygon fill="none" stroke="#000000" points="0,-27 0,-44 116,-44 116,-27 0,-27"/>
<text text-anchor="start" x="4" y="-34.6" font-family="Roboto" font-size="8.00" fill="#000000"> </text>
<text text-anchor="start" x="7" y="-34.6" font-family="Roboto" font-style="italic" font-size="8.00" fill="#000000">AbstractDependenceMeasure</text>
<text text-anchor="start" x="109" y="-34.6" font-family="Roboto" font-size="8.00" fill="#000000"> </text>
</a>
</g>
</a>
</g>
</g>
<!-- c4995141&#45;&gt;c4993512 -->
<g id="edge1" class="edge">
<title>c4995141&#45;&gt;c4993512</title>
<path fill="none" stroke="#000000" d="M126.3252,-36C128.815,-36 131.2972,-36 133.7569,-36"/>
<polygon fill="none" stroke="#000000" points="126.0847,-32.5001 116.0846,-36 126.0846,-39.5001 126.0847,-32.5001"/>
</g>
</g>
</svg>
