<?xml version="1.0" encoding="UTF-8" standalone="no"?>
<!DOCTYPE svg PUBLIC "-//W3C//DTD SVG 1.1//EN"
 "http://www.w3.org/Graphics/SVG/1.1/DTD/svg11.dtd">
<!-- Generated by graphviz version 2.40.1 (20161225.0304)
 -->
<!-- Title: G Pages: 1 -->
<svg width="265pt" height="25pt"
 viewBox="0.00 0.00 265.00 25.00" xmlns="http://www.w3.org/2000/svg" xmlns:xlink="http://www.w3.org/1999/xlink">
<g id="graph0" class="graph" transform="scale(1 1) rotate(0) translate(4 21)">
<title>G</title>
<polygon fill="#ffffff" stroke="transparent" points="-4,4 -4,-21 261,-21 261,4 -4,4"/>
<!-- c9033307 -->
<g id="node1" class="node">
<title>c9033307</title>
<g id="a_node1"><a xlink:href="AbstractDependenceMeasure.html" xlink:title="&lt;TABLE&gt;">
<g id="a_node1_0"><a xlink:href="AbstractDependenceMeasure.html" xlink:title="de.lmu.ifi.dbs.elki.math.statistics.dependence.AbstractDependenceMeasure" target="_parent">
<polygon fill="none" stroke="#000000" points="0,.5 0,-16.5 116,-16.5 116,.5 0,.5"/>
<text text-anchor="start" x="4" y="-7.1" font-family="Roboto" font-size="8.00" fill="#000000"> </text>
<text text-anchor="start" x="7" y="-7.1" font-family="Roboto" font-style="italic" font-size="8.00" fill="#000000">AbstractDependenceMeasure</text>
<text text-anchor="start" x="109" y="-7.1" font-family="Roboto" font-size="8.00" fill="#000000"> </text>
</a>
</g>
</a>
</g>
</g>
<!-- c9033308 -->
<g id="node2" class="node">
<title>c9033308</title>
<g id="a_node2"><a xlink:href="SURFINGDependenceMeasure.html" xlink:title="&lt;TABLE&gt;">
<g id="a_node2_1"><a xlink:href="SURFINGDependenceMeasure.html" xlink:title="de.lmu.ifi.dbs.elki.math.statistics.dependence.SURFINGDependenceMeasure" target="_parent">
<polygon fill="#fffacd" stroke="transparent" points="134,0 134,-17 257,-17 257,0 134,0"/>
<polygon fill="none" stroke="#000000" points="134.5,.5 134.5,-16.5 257.5,-16.5 257.5,.5 134.5,.5"/>
<text text-anchor="start" x="138.5" y="-7.1" font-family="Roboto" font-size="8.00" fill="#000000"> </text>
<text text-anchor="start" x="141.5" y="-7.1" font-family="Roboto" font-size="8.00" fill="#000000">SURFINGDependenceMeasure</text>
<text text-anchor="start" x="250.5" y="-7.1" font-family="Roboto" font-size="8.00" fill="#000000"> </text>
</a>
</g>
</a>
</g>
</g>
<!-- c9033307&#45;&gt;c9033308 -->
<g id="edge1" class="edge">
<title>c9033307&#45;&gt;c9033308</title>
<path fill="none" stroke="#000000" d="M126.5518,-8.5C128.8953,-8.5 131.2392,-8.5 133.5724,-8.5"/>
<polygon fill="none" stroke="#000000" points="126.3124,-5.0001 116.3124,-8.5 126.3123,-12.0001 126.3124,-5.0001"/>
</g>
</g>
</svg>
