<?xml version="1.0" encoding="UTF-8" standalone="no"?>
<!DOCTYPE svg PUBLIC "-//W3C//DTD SVG 1.1//EN"
 "http://www.w3.org/Graphics/SVG/1.1/DTD/svg11.dtd">
<!-- Generated by graphviz version 2.40.1 (20161225.0304)
 -->
<!-- Title: G Pages: 1 -->
<svg width="213pt" height="36pt"
 viewBox="0.00 0.00 213.00 36.00" xmlns="http://www.w3.org/2000/svg" xmlns:xlink="http://www.w3.org/1999/xlink">
<g id="graph0" class="graph" transform="scale(1 1) rotate(0) translate(4 32)">
<title>G</title>
<polygon fill="#ffffff" stroke="transparent" points="-4,4 -4,-32 209,-32 209,4 -4,4"/>
<!-- c7368606 -->
<g id="node1" class="node">
<title>c7368606</title>
<g id="a_node1"><a xlink:href="NonNumericFeaturesException.html" xlink:title="&lt;TABLE&gt;">
<g id="a_node1_0"><a xlink:href="NonNumericFeaturesException.html" xlink:title="de.lmu.ifi.dbs.elki.datasource.filter.normalization.NonNumericFeaturesException" target="_parent">
<polygon fill="#fffacd" stroke="transparent" points="83,-5.5 83,-22.5 205,-22.5 205,-5.5 83,-5.5"/>
<polygon fill="none" stroke="#000000" points="83,-5 83,-22 205,-22 205,-5 83,-5"/>
<text text-anchor="start" x="87" y="-12.6" font-family="Roboto" font-size="8.00" fill="#000000"> </text>
<text text-anchor="start" x="90" y="-12.6" font-family="Roboto" font-size="8.00" fill="#000000">NonNumericFeaturesException</text>
<text text-anchor="start" x="198" y="-12.6" font-family="Roboto" font-size="8.00" fill="#000000"> </text>
</a>
</g>
</a>
</g>
</g>
<!-- c7368621 -->
<g id="node2" class="node">
<title>c7368621</title>
<g id="a_node2"><a xlink:href="Normalization.html" xlink:title="&lt;TABLE&gt;">
<g id="a_node2_1"><a xlink:href="Normalization.html" xlink:title="de.lmu.ifi.dbs.elki.datasource.filter.normalization.Normalization" target="_parent">
<polygon fill="#fffacd" stroke="transparent" points="0,0 0,-28 65,-28 65,0 0,0"/>
<polygon fill="none" stroke="#000000" points=".5,0 .5,-28 65.5,-28 65.5,0 .5,0"/>
<text text-anchor="start" x="11.5" y="-17.6" font-family="Roboto" font-size="8.00" fill="#000000"> «interface» </text>
<text text-anchor="start" x="4.5" y="-7.6" font-family="Roboto" font-size="8.00" fill="#000000"> </text>
<text text-anchor="start" x="7.5" y="-7.6" font-family="Roboto" font-size="8.00" fill="#000000">Normalization</text>
<text text-anchor="start" x="58.5" y="-7.6" font-family="Roboto" font-size="8.00" fill="#000000"> </text>
</a>
</g>
</a>
</g>
</g>
<!-- c7368621&#45;&gt;c7368606 -->
<g id="edge1" class="edge">
<title>c7368621&#45;&gt;c7368606</title>
<path fill="none" stroke="#000000" d="M77.1691,-14C79.059,-14 80.9666,-14 82.8828,-14"/>
<polygon fill="none" stroke="#000000" points="77.0502,-14.0001 71.0501,-18 65.0502,-14 71.0502,-10 77.0502,-14.0001"/>
</g>
</g>
</svg>
