<?xml version="1.0" encoding="UTF-8" standalone="no"?>
<!DOCTYPE svg PUBLIC "-//W3C//DTD SVG 1.1//EN"
 "http://www.w3.org/Graphics/SVG/1.1/DTD/svg11.dtd">
<!-- Generated by graphviz version 2.40.1 (20161225.0304)
 -->
<!-- Title: G Pages: 1 -->
<svg width="209pt" height="25pt"
 viewBox="0.00 0.00 209.00 25.00" xmlns="http://www.w3.org/2000/svg" xmlns:xlink="http://www.w3.org/1999/xlink">
<g id="graph0" class="graph" transform="scale(1 1) rotate(0) translate(4 21)">
<title>G</title>
<polygon fill="#ffffff" stroke="transparent" points="-4,4 -4,-21 205,-21 205,4 -4,4"/>
<!-- c3760841 -->
<g id="node1" class="node">
<title>c3760841</title>
<g id="a_node1"><a xlink:href="ERPDistanceFunction.html" xlink:title="&lt;TABLE&gt;">
<g id="a_node1_0"><a xlink:href="ERPDistanceFunction.html" xlink:title="de.lmu.ifi.dbs.elki.distance.distancefunction.timeseries.ERPDistanceFunction" target="_parent">
<polygon fill="#fffacd" stroke="transparent" points="111,0 111,-17 201,-17 201,0 111,0"/>
<polygon fill="none" stroke="#000000" points="111,.5 111,-16.5 201,-16.5 201,.5 111,.5"/>
<text text-anchor="start" x="115" y="-7.1" font-family="Roboto" font-size="8.00" fill="#000000"> </text>
<text text-anchor="start" x="118" y="-7.1" font-family="Roboto" font-size="8.00" fill="#000000">ERPDistanceFunction</text>
<text text-anchor="start" x="194" y="-7.1" font-family="Roboto" font-size="8.00" fill="#000000"> </text>
</a>
</g>
</a>
</g>
</g>
<!-- c3760843 -->
<g id="node2" class="node">
<title>c3760843</title>
<g id="a_node2"><a xlink:href="DTWDistanceFunction.html" xlink:title="&lt;TABLE&gt;">
<g id="a_node2_1"><a xlink:href="DTWDistanceFunction.html" xlink:title="de.lmu.ifi.dbs.elki.distance.distancefunction.timeseries.DTWDistanceFunction" target="_parent">
<polygon fill="none" stroke="#000000" points=".5,.5 .5,-16.5 93.5,-16.5 93.5,.5 .5,.5"/>
<text text-anchor="start" x="4.5" y="-7.1" font-family="Roboto" font-size="8.00" fill="#000000"> </text>
<text text-anchor="start" x="7.5" y="-7.1" font-family="Roboto" font-size="8.00" fill="#000000">DTWDistanceFunction</text>
<text text-anchor="start" x="86.5" y="-7.1" font-family="Roboto" font-size="8.00" fill="#000000"> </text>
</a>
</g>
</a>
</g>
</g>
<!-- c3760843&#45;&gt;c3760841 -->
<g id="edge1" class="edge">
<title>c3760843&#45;&gt;c3760841</title>
<path fill="none" stroke="#000000" d="M103.4082,-8.5C105.8824,-8.5 108.3507,-8.5 110.7929,-8.5"/>
<polygon fill="none" stroke="#000000" points="103.2555,-5.0001 93.2555,-8.5 103.2554,-12.0001 103.2555,-5.0001"/>
</g>
</g>
</svg>
