<?xml version="1.0" encoding="UTF-8" standalone="no"?><svg xmlns="http://www.w3.org/2000/svg" xmlns:xlink="http://www.w3.org/1999/xlink" contentStyleType="text/css" height="494px" preserveAspectRatio="none" style="width:2582px;height:494px;background:#FFFFFF;" version="1.1" viewBox="0 0 2582 494" width="2582px" zoomAndPan="magnify"><defs/><g><!--MD5=[2c2d9c24d0b589d87822e2a85fbfadc8]
cluster elki.database.query.rknn--><g id="cluster_elki.database.query.rknn"><path d="M218.5,6 L415.5,6 A3.75,3.75 0 0 1 418,8.5 L425,28.2969 L2572.5,28.2969 A2.5,2.5 0 0 1 2575,30.7969 L2575,466.5 A2.5,2.5 0 0 1 2572.5,469 L218.5,469 A2.5,2.5 0 0 1 216,466.5 L216,8.5 A2.5,2.5 0 0 1 218.5,6 " fill="none" style="stroke:#000000;stroke-width:1.5;"/><line style="stroke:#000000;stroke-width:1.5;" x1="216" x2="425" y1="28.2969" y2="28.2969"/><text fill="#000000" font-family="sans-serif" font-size="14" font-weight="bold" lengthAdjust="spacing" textLength="196" x="220" y="20.9951">elki.database.query.rknn</text></g><!--MD5=[bd1a5eb782b537313726e2600c9c4d7b]
cluster elki.database.query--><g id="cluster_elki.database.query"><path d="M8.5,14 L164.5,14 A3.75,3.75 0 0 1 167,16.5 L174,36.2969 L189.5,36.2969 A2.5,2.5 0 0 1 192,38.7969 L192,110.5 A2.5,2.5 0 0 1 189.5,113 L8.5,113 A2.5,2.5 0 0 1 6,110.5 L6,16.5 A2.5,2.5 0 0 1 8.5,14 " fill="none" style="stroke:#000000;stroke-width:1.5;"/><line style="stroke:#000000;stroke-width:1.5;" x1="6" x2="174" y1="36.2969" y2="36.2969"/><text fill="#000000" font-family="sans-serif" font-size="14" font-weight="bold" lengthAdjust="spacing" textLength="155" x="10" y="28.9951">elki.database.query</text></g><!--MD5=[f0d33a5edb858ddea8062ebd85b04ecf]
class elki.database.query.rknn.PreprocessorRKNNQuery--><a href="PreprocessorRKNNQuery.html" target="_top" title="PreprocessorRKNNQuery.html" xlink:actuate="onRequest" xlink:href="PreprocessorRKNNQuery.html" xlink:show="new" xlink:title="PreprocessorRKNNQuery.html" xlink:type="simple"><g id="elem_elki.database.query.rknn.PreprocessorRKNNQuery"><rect codeLine="4" fill="#F1F1F1" height="145.7813" id="elki.database.query.rknn.PreprocessorRKNNQuery" rx="2.5" ry="2.5" style="stroke:#181818;stroke-width:0.5;" width="604" x="1352" y="182"/><ellipse cx="1557.25" cy="198" fill="#ADD1B2" rx="11" ry="11" style="stroke:#181818;stroke-width:1.0;"/><path d="M1560.2188,203.6406 Q1559.6406,203.9375 1559,204.0781 Q1558.3594,204.2344 1557.6563,204.2344 Q1555.1563,204.2344 1553.8281,202.5938 Q1552.5156,200.9375 1552.5156,197.8125 Q1552.5156,194.6875 1553.8281,193.0313 Q1555.1563,191.375 1557.6563,191.375 Q1558.3594,191.375 1559,191.5313 Q1559.6563,191.6875 1560.2188,191.9844 L1560.2188,194.7031 Q1559.5938,194.125 1559,193.8594 Q1558.4063,193.5781 1557.7813,193.5781 Q1556.4375,193.5781 1555.75,194.6563 Q1555.0625,195.7188 1555.0625,197.8125 Q1555.0625,199.9063 1555.75,200.9844 Q1556.4375,202.0469 1557.7813,202.0469 Q1558.4063,202.0469 1559,201.7813 Q1559.5938,201.5 1560.2188,200.9219 L1560.2188,203.6406 Z " fill="#000000"/><text fill="#000000" font-family="sans-serif" font-size="14" lengthAdjust="spacing" textLength="173" x="1577.75" y="202.8467">PreprocessorRKNNQuery</text><rect fill="#FFFFFF" height="15.9688" style="stroke:#181818;stroke-width:1.0;stroke-dasharray:2.0,2.0;" width="10" x="1949" y="179"/><text fill="#000000" font-family="sans-serif" font-size="12" font-style="italic" lengthAdjust="spacing" textLength="8" x="1950" y="191.1387">O</text><line style="stroke:#181818;stroke-width:0.5;" x1="1353" x2="1955" y1="214" y2="214"/><polygon fill="none" points="1363,222.6484,1367,226.6484,1363,230.6484,1359,226.6484" style="stroke:#B38D22;stroke-width:1.0;"/><text fill="#000000" font-family="sans-serif" font-size="14" lengthAdjust="spacing" textLength="222" x="1372" y="230.9951">relation: Relation&lt;? extends O&gt;</text><rect fill="none" height="6" style="stroke:#C82930;stroke-width:1.0;" width="6" x="1360" y="240.9453"/><text fill="#000000" font-family="sans-serif" font-size="14" lengthAdjust="spacing" textLength="398" x="1372" y="247.292">preprocessor: MaterializeKNNAndRKNNPreprocessor&lt;O&gt;</text><rect fill="none" height="6" style="stroke:#C82930;stroke-width:1.0;" width="6" x="1360" y="257.2422"/><text fill="#000000" font-family="sans-serif" font-size="14" lengthAdjust="spacing" textLength="116" x="1372" y="263.5889">warned: boolean</text><line style="stroke:#181818;stroke-width:0.5;" x1="1353" x2="1955" y1="270.8906" y2="270.8906"/><ellipse cx="1363" cy="284.5391" fill="#84BE84" rx="3" ry="3" style="stroke:#038048;stroke-width:1.0;"/><text fill="#000000" font-family="sans-serif" font-size="14" lengthAdjust="spacing" textLength="578" x="1372" y="287.8857">PreprocessorRKNNQuery(Relation&lt;O&gt;, MaterializeKNNAndRKNNPreprocessor&lt;O&gt;)</text><ellipse cx="1363" cy="300.8359" fill="#84BE84" rx="3" ry="3" style="stroke:#038048;stroke-width:1.0;"/><text fill="#000000" font-family="sans-serif" font-size="14" lengthAdjust="spacing" textLength="367" x="1372" y="304.1826">PreprocessorRKNNQuery(Relation&lt;O&gt;, Factory&lt;O&gt;)</text><ellipse cx="1363" cy="317.1328" fill="#84BE84" rx="3" ry="3" style="stroke:#038048;stroke-width:1.0;"/><text fill="#000000" font-family="sans-serif" font-size="14" lengthAdjust="spacing" textLength="272" x="1372" y="320.4795">getRKNN(DBIDRef, int): DoubleDBIDList</text></g></a><!--MD5=[a586a5bd011450b74f11bc0077fb0da6]
class elki.database.query.rknn.LinearScanRKNNByObject--><a href="LinearScanRKNNByObject.html" target="_top" title="LinearScanRKNNByObject.html" xlink:actuate="onRequest" xlink:href="LinearScanRKNNByObject.html" xlink:show="new" xlink:title="LinearScanRKNNByObject.html" xlink:type="simple"><g id="elem_elki.database.query.rknn.LinearScanRKNNByObject"><rect codeLine="13" fill="#F1F1F1" height="113.1875" id="elki.database.query.rknn.LinearScanRKNNByObject" rx="2.5" ry="2.5" style="stroke:#181818;stroke-width:0.5;" width="530" x="787" y="198.5"/><ellipse cx="953.75" cy="214.5" fill="#ADD1B2" rx="11" ry="11" style="stroke:#181818;stroke-width:1.0;"/><path d="M956.7188,220.1406 Q956.1406,220.4375 955.5,220.5781 Q954.8594,220.7344 954.1563,220.7344 Q951.6563,220.7344 950.3281,219.0938 Q949.0156,217.4375 949.0156,214.3125 Q949.0156,211.1875 950.3281,209.5313 Q951.6563,207.875 954.1563,207.875 Q954.8594,207.875 955.5,208.0313 Q956.1563,208.1875 956.7188,208.4844 L956.7188,211.2031 Q956.0938,210.625 955.5,210.3594 Q954.9063,210.0781 954.2813,210.0781 Q952.9375,210.0781 952.25,211.1563 Q951.5625,212.2188 951.5625,214.3125 Q951.5625,216.4063 952.25,217.4844 Q952.9375,218.5469 954.2813,218.5469 Q954.9063,218.5469 955.5,218.2813 Q956.0938,218 956.7188,217.4219 L956.7188,220.1406 Z " fill="#000000"/><text fill="#000000" font-family="sans-serif" font-size="14" lengthAdjust="spacing" textLength="176" x="974.25" y="219.3467">LinearScanRKNNByObject</text><rect fill="#FFFFFF" height="15.9688" style="stroke:#181818;stroke-width:1.0;stroke-dasharray:2.0,2.0;" width="10" x="1310" y="195.5"/><text fill="#000000" font-family="sans-serif" font-size="12" font-style="italic" lengthAdjust="spacing" textLength="8" x="1311" y="207.6387">O</text><line style="stroke:#181818;stroke-width:0.5;" x1="788" x2="1316" y1="230.5" y2="230.5"/><rect fill="none" height="6" style="stroke:#C82930;stroke-width:1.0;" width="6" x="795" y="241.1484"/><text fill="#000000" font-family="sans-serif" font-size="14" lengthAdjust="spacing" textLength="246" x="807" y="247.4951">distanceQuery: DistanceQuery&lt;O&gt;</text><rect fill="none" height="6" style="stroke:#C82930;stroke-width:1.0;" width="6" x="795" y="257.4453"/><text fill="#000000" font-family="sans-serif" font-size="14" lengthAdjust="spacing" textLength="249" x="807" y="263.792">knnQuery: KNNSearcher&lt;DBIDRef&gt;</text><line style="stroke:#181818;stroke-width:0.5;" x1="788" x2="1316" y1="271.0938" y2="271.0938"/><ellipse cx="798" cy="284.7422" fill="#84BE84" rx="3" ry="3" style="stroke:#038048;stroke-width:1.0;"/><text fill="#000000" font-family="sans-serif" font-size="14" lengthAdjust="spacing" textLength="504" x="807" y="288.0889">LinearScanRKNNByObject(DistanceQuery&lt;O&gt;, KNNSearcher&lt;DBIDRef&gt;)</text><ellipse cx="798" cy="301.0391" fill="#84BE84" rx="3" ry="3" style="stroke:#038048;stroke-width:1.0;"/><text fill="#000000" font-family="sans-serif" font-size="14" lengthAdjust="spacing" textLength="225" x="807" y="304.3857">getRKNN(O, int): DoubleDBIDList</text></g></a><!--MD5=[9dd95b3b3b600d49ca01c842a2c52574]
class elki.database.query.rknn.LinearScanRKNNByDBID--><a href="LinearScanRKNNByDBID.html" target="_top" title="LinearScanRKNNByDBID.html" xlink:actuate="onRequest" xlink:href="LinearScanRKNNByDBID.html" xlink:show="new" xlink:title="LinearScanRKNNByDBID.html" xlink:type="simple"><g id="elem_elki.database.query.rknn.LinearScanRKNNByDBID"><rect codeLine="20" fill="#F1F1F1" height="113.1875" id="elki.database.query.rknn.LinearScanRKNNByDBID" rx="2.5" ry="2.5" style="stroke:#181818;stroke-width:0.5;" width="520" x="232" y="198.5"/><ellipse cx="398.75" cy="214.5" fill="#ADD1B2" rx="11" ry="11" style="stroke:#181818;stroke-width:1.0;"/><path d="M401.7188,220.1406 Q401.1406,220.4375 400.5,220.5781 Q399.8594,220.7344 399.1563,220.7344 Q396.6563,220.7344 395.3281,219.0938 Q394.0156,217.4375 394.0156,214.3125 Q394.0156,211.1875 395.3281,209.5313 Q396.6563,207.875 399.1563,207.875 Q399.8594,207.875 400.5,208.0313 Q401.1563,208.1875 401.7188,208.4844 L401.7188,211.2031 Q401.0938,210.625 400.5,210.3594 Q399.9063,210.0781 399.2813,210.0781 Q397.9375,210.0781 397.25,211.1563 Q396.5625,212.2188 396.5625,214.3125 Q396.5625,216.4063 397.25,217.4844 Q397.9375,218.5469 399.2813,218.5469 Q399.9063,218.5469 400.5,218.2813 Q401.0938,218 401.7188,217.4219 L401.7188,220.1406 Z " fill="#000000"/><text fill="#000000" font-family="sans-serif" font-size="14" lengthAdjust="spacing" textLength="166" x="419.25" y="219.3467">LinearScanRKNNByDBID</text><rect fill="#FFFFFF" height="15.9688" style="stroke:#181818;stroke-width:1.0;stroke-dasharray:2.0,2.0;" width="10" x="745" y="195.5"/><text fill="#000000" font-family="sans-serif" font-size="12" font-style="italic" lengthAdjust="spacing" textLength="8" x="746" y="207.6387">O</text><line style="stroke:#181818;stroke-width:0.5;" x1="233" x2="751" y1="230.5" y2="230.5"/><rect fill="none" height="6" style="stroke:#C82930;stroke-width:1.0;" width="6" x="240" y="241.1484"/><text fill="#000000" font-family="sans-serif" font-size="14" lengthAdjust="spacing" textLength="246" x="252" y="247.4951">distanceQuery: DistanceQuery&lt;O&gt;</text><rect fill="none" height="6" style="stroke:#C82930;stroke-width:1.0;" width="6" x="240" y="257.4453"/><text fill="#000000" font-family="sans-serif" font-size="14" lengthAdjust="spacing" textLength="249" x="252" y="263.792">knnQuery: KNNSearcher&lt;DBIDRef&gt;</text><line style="stroke:#181818;stroke-width:0.5;" x1="233" x2="751" y1="271.0938" y2="271.0938"/><ellipse cx="243" cy="284.7422" fill="#84BE84" rx="3" ry="3" style="stroke:#038048;stroke-width:1.0;"/><text fill="#000000" font-family="sans-serif" font-size="14" lengthAdjust="spacing" textLength="494" x="252" y="288.0889">LinearScanRKNNByDBID(DistanceQuery&lt;O&gt;, KNNSearcher&lt;DBIDRef&gt;)</text><ellipse cx="243" cy="301.0391" fill="#84BE84" rx="3" ry="3" style="stroke:#038048;stroke-width:1.0;"/><text fill="#000000" font-family="sans-serif" font-size="14" lengthAdjust="spacing" textLength="272" x="252" y="304.3857">getRKNN(DBIDRef, int): DoubleDBIDList</text></g></a><!--MD5=[31599d7a965114866488f3ce267e970e]
class elki.database.query.rknn.RKNNSearcher--><a href="RKNNSearcher.html" target="_top" title="RKNNSearcher.html" xlink:actuate="onRequest" xlink:href="RKNNSearcher.html" xlink:show="new" xlink:title="RKNNSearcher.html" xlink:type="simple"><g id="elem_elki.database.query.rknn.RKNNSearcher"><rect codeLine="27" fill="#F1F1F1" height="64.2969" id="elki.database.query.rknn.RKNNSearcher" rx="2.5" ry="2.5" style="stroke:#181818;stroke-width:0.5;" width="257" x="1525.5" y="41"/><ellipse cx="1591.75" cy="57" fill="#B4A7E5" rx="11" ry="11" style="stroke:#181818;stroke-width:1.0;"/><path d="M1587.6719,52.7656 L1587.6719,50.6094 L1595.0625,50.6094 L1595.0625,52.7656 L1592.5938,52.7656 L1592.5938,60.8438 L1595.0625,60.8438 L1595.0625,63 L1587.6719,63 L1587.6719,60.8438 L1590.1406,60.8438 L1590.1406,52.7656 L1587.6719,52.7656 Z " fill="#000000"/><text fill="#000000" font-family="sans-serif" font-size="14" font-style="italic" lengthAdjust="spacing" textLength="104" x="1612.25" y="61.8467">RKNNSearcher</text><rect fill="#FFFFFF" height="15.9688" style="stroke:#181818;stroke-width:1.0;stroke-dasharray:2.0,2.0;" width="10" x="1775.5" y="38"/><text fill="#000000" font-family="sans-serif" font-size="12" font-style="italic" lengthAdjust="spacing" textLength="8" x="1776.5" y="50.1387">O</text><line style="stroke:#181818;stroke-width:0.5;" x1="1526.5" x2="1781.5" y1="73" y2="73"/><line style="stroke:#181818;stroke-width:0.5;" x1="1526.5" x2="1781.5" y1="81" y2="81"/><ellipse cx="1536.5" cy="94.6484" fill="#84BE84" rx="3" ry="3" style="stroke:#038048;stroke-width:1.0;"/><text fill="#000000" font-family="sans-serif" font-size="14" font-style="italic" lengthAdjust="spacing" textLength="231" x="1545.5" y="97.9951">getRKNN(O, int): DoubleDBIDList</text></g></a><!--MD5=[8ec0c4a0dd42c29095f4cabe07511639]
class elki.database.query.rknn.WrappedRKNNDBIDByLookup--><a href="WrappedRKNNDBIDByLookup.html" target="_top" title="WrappedRKNNDBIDByLookup.html" xlink:actuate="onRequest" xlink:href="WrappedRKNNDBIDByLookup.html" xlink:show="new" xlink:title="WrappedRKNNDBIDByLookup.html" xlink:type="simple"><g id="elem_elki.database.query.rknn.WrappedRKNNDBIDByLookup"><rect codeLine="31" fill="#F1F1F1" height="113.1875" id="elki.database.query.rknn.WrappedRKNNDBIDByLookup" rx="2.5" ry="2.5" style="stroke:#181818;stroke-width:0.5;" width="567" x="1991.5" y="198.5"/><ellipse cx="2162.75" cy="214.5" fill="#ADD1B2" rx="11" ry="11" style="stroke:#181818;stroke-width:1.0;"/><path d="M2165.7188,220.1406 Q2165.1406,220.4375 2164.5,220.5781 Q2163.8594,220.7344 2163.1563,220.7344 Q2160.6563,220.7344 2159.3281,219.0938 Q2158.0156,217.4375 2158.0156,214.3125 Q2158.0156,211.1875 2159.3281,209.5313 Q2160.6563,207.875 2163.1563,207.875 Q2163.8594,207.875 2164.5,208.0313 Q2165.1563,208.1875 2165.7188,208.4844 L2165.7188,211.2031 Q2165.0938,210.625 2164.5,210.3594 Q2163.9063,210.0781 2163.2813,210.0781 Q2161.9375,210.0781 2161.25,211.1563 Q2160.5625,212.2188 2160.5625,214.3125 Q2160.5625,216.4063 2161.25,217.4844 Q2161.9375,218.5469 2163.2813,218.5469 Q2163.9063,218.5469 2164.5,218.2813 Q2165.0938,218 2165.7188,217.4219 L2165.7188,220.1406 Z " fill="#000000"/><text fill="#000000" font-family="sans-serif" font-size="14" lengthAdjust="spacing" textLength="204" x="2183.25" y="219.3467">WrappedRKNNDBIDByLookup</text><rect fill="#FFFFFF" height="15.9688" style="stroke:#181818;stroke-width:1.0;stroke-dasharray:2.0,2.0;" width="10" x="2551.5" y="195.5"/><text fill="#000000" font-family="sans-serif" font-size="12" font-style="italic" lengthAdjust="spacing" textLength="8" x="2552.5" y="207.6387">O</text><line style="stroke:#181818;stroke-width:0.5;" x1="1992.5" x2="2557.5" y1="230.5" y2="230.5"/><rect fill="none" height="6" style="stroke:#C82930;stroke-width:1.0;" width="6" x="1999.5" y="241.1484"/><text fill="#000000" font-family="sans-serif" font-size="14" lengthAdjust="spacing" textLength="222" x="2011.5" y="247.4951">relation: Relation&lt;? extends O&gt;</text><line style="stroke:#181818;stroke-width:0.5;" x1="1992.5" x2="2557.5" y1="254.7969" y2="254.7969"/><rect fill="#F24D5C" height="6" style="stroke:#C82930;stroke-width:1.0;" width="6" x="1999.5" y="265.4453"/><text fill="#000000" font-family="sans-serif" font-size="14" lengthAdjust="spacing" textLength="520" x="2011.5" y="271.792">WrappedRKNNDBIDByLookup(Relation&lt;? extends O&gt;, RKNNSearcher&lt;O&gt;)</text><ellipse cx="2002.5" cy="284.7422" fill="#84BE84" rx="3" ry="3" style="stroke:#038048;stroke-width:1.0;"/><text fill="#000000" font-family="sans-serif" font-size="14" lengthAdjust="spacing" textLength="272" x="2011.5" y="288.0889">getRKNN(DBIDRef, int): DoubleDBIDList</text><ellipse cx="2002.5" cy="301.0391" fill="#84BE84" rx="3" ry="3" style="stroke:#038048;stroke-width:1.0;"/><text fill="#000000" font-family="sans-serif" font-size="14" lengthAdjust="spacing" text-decoration="underline" textLength="541" x="2011.5" y="304.3857">wrap(Relation&lt;? extends O&gt;, RKNNSearcher&lt;O&gt;): RKNNSearcher&lt;DBIDRef&gt;</text></g></a><!--MD5=[63759dab4d42128e88018e7b11e80e9d]
class elki.database.query.rknn.WrappedRKNNDBIDByLookup.Linear--><a href="WrappedRKNNDBIDByLookup.Linear.html" target="_top" title="WrappedRKNNDBIDByLookup.Linear.html" xlink:actuate="onRequest" xlink:href="WrappedRKNNDBIDByLookup.Linear.html" xlink:show="new" xlink:title="WrappedRKNNDBIDByLookup.Linear.html" xlink:type="simple"><g id="elem_elki.database.query.rknn.WrappedRKNNDBIDByLookup.Linear"><rect codeLine="38" fill="#F1F1F1" height="64.2969" id="elki.database.query.rknn.WrappedRKNNDBIDByLookup.Linear" rx="2.5" ry="2.5" style="stroke:#181818;stroke-width:0.5;" width="383" x="2083.5" y="389"/><ellipse cx="2140.25" cy="405" fill="#ADD1B2" rx="11" ry="11" style="stroke:#181818;stroke-width:1.0;"/><path d="M2143.2188,410.6406 Q2142.6406,410.9375 2142,411.0781 Q2141.3594,411.2344 2140.6563,411.2344 Q2138.1563,411.2344 2136.8281,409.5938 Q2135.5156,407.9375 2135.5156,404.8125 Q2135.5156,401.6875 2136.8281,400.0313 Q2138.1563,398.375 2140.6563,398.375 Q2141.3594,398.375 2142,398.5313 Q2142.6563,398.6875 2143.2188,398.9844 L2143.2188,401.7031 Q2142.5938,401.125 2142,400.8594 Q2141.4063,400.5781 2140.7813,400.5781 Q2139.4375,400.5781 2138.75,401.6563 Q2138.0625,402.7188 2138.0625,404.8125 Q2138.0625,406.9063 2138.75,407.9844 Q2139.4375,409.0469 2140.7813,409.0469 Q2141.4063,409.0469 2142,408.7813 Q2142.5938,408.5 2143.2188,407.9219 L2143.2188,410.6406 Z " fill="#000000"/><text fill="#000000" font-family="sans-serif" font-size="14" lengthAdjust="spacing" textLength="249" x="2160.75" y="409.8467">WrappedRKNNDBIDByLookup.Linear</text><rect fill="#FFFFFF" height="15.9688" style="stroke:#181818;stroke-width:1.0;stroke-dasharray:2.0,2.0;" width="10" x="2459.5" y="386"/><text fill="#000000" font-family="sans-serif" font-size="12" font-style="italic" lengthAdjust="spacing" textLength="8" x="2460.5" y="398.1387">O</text><line style="stroke:#181818;stroke-width:0.5;" x1="2084.5" x2="2465.5" y1="421" y2="421"/><line style="stroke:#181818;stroke-width:0.5;" x1="2084.5" x2="2465.5" y1="429" y2="429"/><rect fill="#F24D5C" height="6" style="stroke:#C82930;stroke-width:1.0;" width="6" x="2091.5" y="439.6484"/><text fill="#000000" font-family="sans-serif" font-size="14" lengthAdjust="spacing" textLength="357" x="2103.5" y="445.9951">Linear(Relation&lt;? extends O&gt;, RKNNSearcher&lt;O&gt;)</text></g></a><!--MD5=[ba0adf94593ee5aa5eed3a577176cfc5]
class elki.database.query.LinearScanQuery--><a href="../LinearScanQuery.html" target="_top" title="../LinearScanQuery.html" xlink:actuate="onRequest" xlink:href="../LinearScanQuery.html" xlink:show="new" xlink:title="../LinearScanQuery.html" xlink:type="simple"><g id="elem_elki.database.query.LinearScanQuery"><rect codeLine="55" fill="#F1F1F1" height="48" id="elki.database.query.LinearScanQuery" rx="2.5" ry="2.5" style="stroke:#181818;stroke-width:0.5;" width="153" x="22.5" y="49"/><ellipse cx="37.5" cy="65" fill="#B4A7E5" rx="11" ry="11" style="stroke:#181818;stroke-width:1.0;"/><path d="M33.4219,60.7656 L33.4219,58.6094 L40.8125,58.6094 L40.8125,60.7656 L38.3438,60.7656 L38.3438,68.8438 L40.8125,68.8438 L40.8125,71 L33.4219,71 L33.4219,68.8438 L35.8906,68.8438 L35.8906,60.7656 L33.4219,60.7656 Z " fill="#000000"/><text fill="#000000" font-family="sans-serif" font-size="14" font-style="italic" lengthAdjust="spacing" textLength="121" x="51.5" y="69.8467">LinearScanQuery</text><line style="stroke:#181818;stroke-width:0.5;" x1="23.5" x2="174.5" y1="81" y2="81"/><line style="stroke:#181818;stroke-width:0.5;" x1="23.5" x2="174.5" y1="89" y2="89"/></g></a><!--MD5=[bc6c9e4d7eb46d50d3edbd117e43ba46]
reverse link elki.database.query.rknn.RKNNSearcher to elki.database.query.rknn.PreprocessorRKNNQuery--><g id="link_elki.database.query.rknn.RKNNSearcher_elki.database.query.rknn.PreprocessorRKNNQuery"><path codeLine="42" d="M1654,125.38 C1654,142.98 1654,163.01 1654,181.94 " fill="none" id="elki.database.query.rknn.RKNNSearcher-backto-elki.database.query.rknn.PreprocessorRKNNQuery" style="stroke:#181818;stroke-width:1.0;stroke-dasharray:7.0,7.0;"/><polygon fill="none" points="1647,125.35,1654,105.35,1661,125.35,1647,125.35" style="stroke:#181818;stroke-width:1.0;"/></g><!--MD5=[e529c5dd5063b21d97cff70dfe4ce6f9]
reverse link elki.database.query.rknn.RKNNSearcher to elki.database.query.rknn.LinearScanRKNNByObject--><g id="link_elki.database.query.rknn.RKNNSearcher_elki.database.query.rknn.LinearScanRKNNByObject"><path codeLine="43" d="M1531,110.78 C1446.6,136.01 1333.07,169.96 1237.71,198.47 " fill="none" id="elki.database.query.rknn.RKNNSearcher-backto-elki.database.query.rknn.LinearScanRKNNByObject" style="stroke:#181818;stroke-width:1.0;stroke-dasharray:7.0,7.0;"/><polygon fill="none" points="1529,104.07,1550.17,105.05,1533.01,117.48,1529,104.07" style="stroke:#181818;stroke-width:1.0;"/></g><!--MD5=[af6139c44917485f12c2d02fadd2e31b]
reverse link elki.database.query.LinearScanQuery to elki.database.query.rknn.LinearScanRKNNByObject--><g id="link_elki.database.query.LinearScanQuery_elki.database.query.rknn.LinearScanRKNNByObject"><path codeLine="44" d="M166.55,104.75 C182.49,110.99 199.62,116.89 216,121 C456.26,181.28 526.28,137.7 770,182 C795.6,186.65 822.32,192.35 848.66,198.48 " fill="none" id="elki.database.query.LinearScanQuery-backto-elki.database.query.rknn.LinearScanRKNNByObject" style="stroke:#181818;stroke-width:1.0;stroke-dasharray:7.0,7.0;"/><polygon fill="none" points="163.67,111.14,147.82,97.07,168.98,98.18,163.67,111.14" style="stroke:#181818;stroke-width:1.0;"/></g><!--MD5=[4624ee6d31916be3e01885e19a1330d3]
reverse link elki.database.query.rknn.RKNNSearcher to elki.database.query.rknn.LinearScanRKNNByDBID--><g id="link_elki.database.query.rknn.RKNNSearcher_elki.database.query.rknn.LinearScanRKNNByDBID"><path codeLine="45" d="M1505.37,86.13 C1328.96,101.91 1026.38,133.36 770,182 C745.14,186.72 719.21,192.39 693.62,198.46 " fill="none" id="elki.database.query.rknn.RKNNSearcher-backto-elki.database.query.rknn.LinearScanRKNNByDBID" style="stroke:#181818;stroke-width:1.0;stroke-dasharray:7.0,7.0;"/><polygon fill="none" points="1504.91,79.14,1525.45,84.35,1506.15,93.09,1504.91,79.14" style="stroke:#181818;stroke-width:1.0;"/></g><!--MD5=[a53289a4fa6c29b222aa8ed5477c901e]
reverse link elki.database.query.LinearScanQuery to elki.database.query.rknn.LinearScanRKNNByDBID--><g id="link_elki.database.query.LinearScanQuery_elki.database.query.rknn.LinearScanRKNNByDBID"><path codeLine="46" d="M167.92,105.56 C223.84,131.18 304.04,167.91 370.67,198.43 " fill="none" id="elki.database.query.LinearScanQuery-backto-elki.database.query.rknn.LinearScanRKNNByDBID" style="stroke:#181818;stroke-width:1.0;stroke-dasharray:7.0,7.0;"/><polygon fill="none" points="164.84,111.86,149.57,97.16,170.67,99.13,164.84,111.86" style="stroke:#181818;stroke-width:1.0;"/></g><!--MD5=[f7c6c52096cd497be17e4ae10bfc63f6]
reverse link elki.database.query.rknn.RKNNSearcher to elki.database.query.rknn.WrappedRKNNDBIDByLookup--><g id="link_elki.database.query.rknn.RKNNSearcher_elki.database.query.rknn.WrappedRKNNDBIDByLookup"><path codeLine="47" d="M1780.33,110.62 C1867.45,135.87 1984.86,169.9 2083.42,198.47 " fill="none" id="elki.database.query.rknn.RKNNSearcher-backto-elki.database.query.rknn.WrappedRKNNDBIDByLookup" style="stroke:#181818;stroke-width:1.0;stroke-dasharray:7.0,7.0;"/><polygon fill="none" points="1778.37,117.34,1761.11,105.05,1782.27,103.89,1778.37,117.34" style="stroke:#181818;stroke-width:1.0;"/></g><!--MD5=[cd859d2b24fdb591a2e6b09c5263e79a]
link elki.database.query.rknn.WrappedRKNNDBIDByLookup to elki.database.query.rknn.RKNNSearcher--><g id="link_elki.database.query.rknn.WrappedRKNNDBIDByLookup_elki.database.query.rknn.RKNNSearcher"><path codeLine="48" d="M2107.22,198.43 C2042.43,177.62 1967.53,154.35 1899,135 C1862.97,124.82 1823.71,114.65 1787.38,105.6 " fill="none" id="elki.database.query.rknn.WrappedRKNNDBIDByLookup-to-elki.database.query.rknn.RKNNSearcher" style="stroke:#181818;stroke-width:1.0;"/><polygon fill="#181818" points="1782.51,104.39,1790.2879,110.4319,1787.3641,105.5892,1792.2067,102.6654,1782.51,104.39" style="stroke:#181818;stroke-width:1.0;"/><text fill="#000000" font-family="sans-serif" font-size="13" lengthAdjust="spacing" textLength="32" x="1951" y="148.0669">inner</text></g><!--MD5=[0d405fda667460b2d35d1e910d1d60bc]
reverse link elki.database.query.rknn.WrappedRKNNDBIDByLookup to elki.database.query.rknn.WrappedRKNNDBIDByLookup.Linear--><g id="link_elki.database.query.rknn.WrappedRKNNDBIDByLookup_elki.database.query.rknn.WrappedRKNNDBIDByLookup.Linear"><path codeLine="49" d="M2262.28,331.77 C2262.07,351.96 2262.89,372.65 2264.75,388.92 " fill="none" id="elki.database.query.rknn.WrappedRKNNDBIDByLookup-backto-elki.database.query.rknn.WrappedRKNNDBIDByLookup.Linear" style="stroke:#181818;stroke-width:1.0;"/><polygon fill="none" points="2255.29,331.32,2262.86,311.52,2269.29,331.71,2255.29,331.32" style="stroke:#181818;stroke-width:1.0;"/></g><!--MD5=[0d405fda667460b2d35d1e910d1d60bc]
reverse link elki.database.query.rknn.WrappedRKNNDBIDByLookup to elki.database.query.rknn.WrappedRKNNDBIDByLookup.Linear--><g id="link_elki.database.query.rknn.WrappedRKNNDBIDByLookup_elki.database.query.rknn.WrappedRKNNDBIDByLookup.Linear"><path codeLine="51" d="M2288.39,326.71 C2288.83,348.46 2287.98,371.29 2285.85,388.92 " fill="none" id="elki.database.query.rknn.WrappedRKNNDBIDByLookup-backto-elki.database.query.rknn.WrappedRKNNDBIDByLookup.Linear-1" style="stroke:#181818;stroke-width:1.0;"/><ellipse cx="2288.1317" cy="319.515" fill="#FFFFFF" rx="8" ry="8" style="stroke:#181818;stroke-width:1.0;"/><line style="stroke:#181818;stroke-width:1.0;" x1="2288.4135" x2="2287.85" y1="327.5101" y2="311.52"/><line style="stroke:#181818;stroke-width:1.0;" x1="2280.1367" x2="2296.1268" y1="319.7968" y2="319.2333"/></g><!--MD5=[a2e8931f5e6863d16f75e35abdc4a174]
reverse link elki.database.query.LinearScanQuery to elki.database.query.rknn.WrappedRKNNDBIDByLookup.Linear--><g id="link_elki.database.query.LinearScanQuery_elki.database.query.rknn.WrappedRKNNDBIDByLookup.Linear"><path codeLine="50" d="M104.87,117.19 C115.41,176.1 143.57,279.81 215,328 C291.65,379.71 1586.57,407.88 2083.22,416.82 " fill="none" id="elki.database.query.LinearScanQuery-backto-elki.database.query.rknn.WrappedRKNNDBIDByLookup.Linear" style="stroke:#181818;stroke-width:1.0;stroke-dasharray:7.0,7.0;"/><polygon fill="none" points="97.94,118.22,101.69,97.36,111.77,116,97.94,118.22" style="stroke:#181818;stroke-width:1.0;"/></g><rect fill="none" height="11.6406" style="stroke:none;stroke-width:1.0;" width="186" x="1191" y="475"/><text fill="#888888" font-family="sans-serif" font-size="10" lengthAdjust="spacing" textLength="186" x="1191" y="484.2822">UMLDoclet 2.0.19, PlantUML 1.2022.8</text><!--MD5=[5d84323efd7c3091c563ba059bb483b8]
@startuml
    remove .*\.(Instance|Par|Parameterizer|Factory)$
    namespace elki.database.query.rknn {

        class PreprocessorRKNNQuery<O> [[PreprocessorRKNNQuery.html]] {
            #relation: Relation<? extends O>
            -preprocessor: MaterializeKNNAndRKNNPreprocessor<O>
            -warned: boolean
            +PreprocessorRKNNQuery(Relation<O>, MaterializeKNNAndRKNNPreprocessor<O>)
            +PreprocessorRKNNQuery(Relation<O>, Factory<O>)
            +getRKNN(DBIDRef, int): DoubleDBIDList
        }

        class LinearScanRKNNByObject<O> [[LinearScanRKNNByObject.html]] {
            -distanceQuery: DistanceQuery<O>
            -knnQuery: KNNSearcher<DBIDRef>
            +LinearScanRKNNByObject(DistanceQuery<O>, KNNSearcher<DBIDRef>)
            +getRKNN(O, int): DoubleDBIDList
        }

        class LinearScanRKNNByDBID<O> [[LinearScanRKNNByDBID.html]] {
            -distanceQuery: DistanceQuery<O>
            -knnQuery: KNNSearcher<DBIDRef>
            +LinearScanRKNNByDBID(DistanceQuery<O>, KNNSearcher<DBIDRef>)
            +getRKNN(DBIDRef, int): DoubleDBIDList
        }

        interface RKNNSearcher<O> [[RKNNSearcher.html]] {
            {abstract} +getRKNN(O, int): DoubleDBIDList
        }

        class WrappedRKNNDBIDByLookup<O> [[WrappedRKNNDBIDByLookup.html]] {
            -relation: Relation<? extends O>
            -WrappedRKNNDBIDByLookup(Relation<? extends O>, RKNNSearcher<O>)
            +getRKNN(DBIDRef, int): DoubleDBIDList
            {static} +wrap(Relation<? extends O>, RKNNSearcher<O>): RKNNSearcher<DBIDRef>
        }

        class elki.database.query.rknn.WrappedRKNNDBIDByLookup.Linear<O> [[WrappedRKNNDBIDByLookup.Linear.html]] {
            -Linear(Relation<? extends O>, RKNNSearcher<O>)
        }

        RKNNSearcher <|.. PreprocessorRKNNQuery
        RKNNSearcher <|.. LinearScanRKNNByObject
        elki.database.query.LinearScanQuery <|.. LinearScanRKNNByObject
        RKNNSearcher <|.. LinearScanRKNNByDBID
        elki.database.query.LinearScanQuery <|.. LinearScanRKNNByDBID
        RKNNSearcher <|.. WrappedRKNNDBIDByLookup
        WrappedRKNNDBIDByLookup - -> RKNNSearcher: inner
        WrappedRKNNDBIDByLookup <|- - elki.database.query.rknn.WrappedRKNNDBIDByLookup.Linear
        elki.database.query.LinearScanQuery <|.. elki.database.query.rknn.WrappedRKNNDBIDByLookup.Linear
        WrappedRKNNDBIDByLookup +- - elki.database.query.rknn.WrappedRKNNDBIDByLookup.Linear
    }

    namespace elki.database.query {
        interface LinearScanQuery [[../LinearScanQuery.html]]
    }

    center footer UMLDoclet 2.0.19, PlantUML 1.2022.8
@enduml

PlantUML version 1.2022.8(Sun Sep 25 11:00:33 CEST 2022)
(APACHE source distribution)
Java Runtime: OpenJDK Runtime Environment
JVM: OpenJDK 64-Bit Server VM
Default Encoding: UTF-8
Language: de
Country: DE
--></g></svg>