<?xml version="1.0" encoding="UTF-8" standalone="no"?>
<!DOCTYPE svg PUBLIC "-//W3C//DTD SVG 1.1//EN"
 "http://www.w3.org/Graphics/SVG/1.1/DTD/svg11.dtd">
<!-- Generated by graphviz version 2.40.1 (20161225.0304)
 -->
<!-- Title: G Pages: 1 -->
<svg width="243pt" height="74pt"
 viewBox="0.00 0.00 243.00 74.00" xmlns="http://www.w3.org/2000/svg" xmlns:xlink="http://www.w3.org/1999/xlink">
<g id="graph0" class="graph" transform="scale(1 1) rotate(0) translate(4 70)">
<title>G</title>
<polygon fill="#ffffff" stroke="transparent" points="-4,4 -4,-70 239,-70 239,4 -4,4"/>
<!-- c1666066 -->
<g id="node1" class="node">
<title>c1666066</title>
<g id="a_node1"><a xlink:href="Assignment.html" xlink:title="&lt;TABLE&gt;">
<g id="a_node1_0"><a xlink:href="Assignment.html" xlink:title="de.lmu.ifi.dbs.elki.algorithm.clustering.gdbscan.util.Assignment" target="_parent">
<polygon fill="#fffacd" stroke="transparent" points="0,-17.5 0,-45.5 56,-45.5 56,-17.5 0,-17.5"/>
<polygon fill="none" stroke="#000000" points="0,-17.5 0,-45.5 56,-45.5 56,-17.5 0,-17.5"/>
<text text-anchor="start" x="6.5" y="-35.1" font-family="Roboto" font-size="8.00" fill="#000000"> «interface» </text>
<text text-anchor="start" x="4" y="-25.1" font-family="Roboto" font-size="8.00" fill="#000000"> </text>
<text text-anchor="start" x="7" y="-25.1" font-family="Roboto" font-size="8.00" fill="#000000">Assignment</text>
<text text-anchor="start" x="49" y="-25.1" font-family="Roboto" font-size="8.00" fill="#000000"> </text>
</a>
</g>
</a>
</g>
</g>
<!-- c1666067 -->
<g id="node2" class="node">
<title>c1666067</title>
<g id="a_node2"><a xlink:href="MultiBorder.html" xlink:title="&lt;TABLE&gt;">
<g id="a_node2_1"><a xlink:href="MultiBorder.html" xlink:title="de.lmu.ifi.dbs.elki.algorithm.clustering.gdbscan.util.MultiBorder" target="_parent">
<polygon fill="none" stroke="#000000" points="74.5,-48.5 74.5,-65.5 131.5,-65.5 131.5,-48.5 74.5,-48.5"/>
<text text-anchor="start" x="78.5" y="-56.1" font-family="Roboto" font-size="8.00" fill="#000000"> </text>
<text text-anchor="start" x="81.5" y="-56.1" font-family="Roboto" font-size="8.00" fill="#000000">MultiBorder</text>
<text text-anchor="start" x="124.5" y="-56.1" font-family="Roboto" font-size="8.00" fill="#000000"> </text>
</a>
</g>
</a>
</g>
</g>
<!-- c1666066&#45;&gt;c1666067 -->
<g id="edge1" class="edge">
<title>c1666066&#45;&gt;c1666067</title>
<path fill="none" stroke="#000000" stroke-dasharray="5,2" d="M65.6424,-44.6369C69.7391,-46.0667 73.8294,-47.4942 77.7152,-48.8503"/>
<polygon fill="none" stroke="#000000" points="66.7601,-41.32 56.1653,-41.3295 64.4535,-47.9291 66.7601,-41.32"/>
</g>
<!-- c1666068 -->
<g id="node3" class="node">
<title>c1666068</title>
<g id="a_node3"><a xlink:href="Border.html" xlink:title="&lt;TABLE&gt;">
<g id="a_node3_2"><a xlink:href="Border.html" xlink:title="de.lmu.ifi.dbs.elki.algorithm.clustering.gdbscan.util.Border" target="_parent">
<polygon fill="none" stroke="#000000" points="149,-25.5 149,-42.5 187,-42.5 187,-25.5 149,-25.5"/>
<text text-anchor="start" x="153" y="-33.1" font-family="Roboto" font-size="8.00" fill="#000000"> </text>
<text text-anchor="start" x="156" y="-33.1" font-family="Roboto" font-size="8.00" fill="#000000">Border</text>
<text text-anchor="start" x="180" y="-33.1" font-family="Roboto" font-size="8.00" fill="#000000"> </text>
</a>
</g>
</a>
</g>
</g>
<!-- c1666066&#45;&gt;c1666068 -->
<g id="edge2" class="edge">
<title>c1666066&#45;&gt;c1666068</title>
<path fill="none" stroke="#000000" stroke-dasharray="5,2" d="M66.5,-32.325C93.1827,-32.8968 127.5808,-33.6339 148.6989,-34.0864"/>
<polygon fill="none" stroke="#000000" points="66.4038,-28.8222 56.3311,-32.1071 66.2538,-35.8206 66.4038,-28.8222"/>
</g>
<!-- c1666069 -->
<g id="node4" class="node">
<title>c1666069</title>
<g id="a_node4"><a xlink:href="Core.html" xlink:title="&lt;TABLE&gt;">
<g id="a_node4_3"><a xlink:href="Core.html" xlink:title="de.lmu.ifi.dbs.elki.algorithm.clustering.gdbscan.util.Core" target="_parent">
<polygon fill="none" stroke="#000000" points="205,.5 205,-16.5 235,-16.5 235,.5 205,.5"/>
<text text-anchor="start" x="209" y="-7.1" font-family="Roboto" font-size="8.00" fill="#000000"> </text>
<text text-anchor="start" x="212" y="-7.1" font-family="Roboto" font-size="8.00" fill="#000000">Core</text>
<text text-anchor="start" x="228" y="-7.1" font-family="Roboto" font-size="8.00" fill="#000000"> </text>
</a>
</g>
</a>
</g>
</g>
<!-- c1666066&#45;&gt;c1666069 -->
<g id="edge3" class="edge">
<title>c1666066&#45;&gt;c1666069</title>
<path fill="none" stroke="#000000" stroke-dasharray="5,2" d="M66.3276,-26.9087C108.861,-21.8135 175.3941,-13.8434 204.9641,-10.3012"/>
<polygon fill="none" stroke="#000000" points="65.8429,-23.4416 56.3303,-28.1063 66.6756,-30.3919 65.8429,-23.4416"/>
</g>
<!-- c1666067&#45;&gt;c1666068 -->
<g id="edge4" class="edge">
<title>c1666067&#45;&gt;c1666068</title>
<path fill="none" stroke="#000000" d="M126.8898,-48.9356C130.9817,-47.4988 135.2601,-45.9964 139.4457,-44.5267"/>
<polygon fill="#000000" stroke="#000000" points="148.9117,-41.2028 140.9674,-48.7618 144.194,-42.8594 139.4764,-44.516 139.4764,-44.516 139.4764,-44.516 144.194,-42.8594 137.9855,-40.2701 148.9117,-41.2028 148.9117,-41.2028"/>
<text text-anchor="middle" x="146.9117" y="-35.6028" font-family="Roboto" font-size="7.00" fill="#000000">*</text>
</g>
<!-- c1666068&#45;&gt;c1666069 -->
<g id="edge5" class="edge">
<title>c1666068&#45;&gt;c1666069</title>
<path fill="none" stroke="#000000" d="M185.0267,-25.9866C188.4256,-24.2872 192.0577,-22.4711 195.6477,-20.6761"/>
<polygon fill="#000000" stroke="#000000" points="204.8634,-16.0683 197.9316,-24.5654 200.3912,-18.3044 195.9191,-20.5405 195.9191,-20.5405 195.9191,-20.5405 200.3912,-18.3044 193.9066,-16.5156 204.8634,-16.0683 204.8634,-16.0683"/>
</g>
</g>
</svg>
