<?xml version="1.0" encoding="UTF-8" standalone="no"?>
<!DOCTYPE svg PUBLIC "-//W3C//DTD SVG 1.1//EN"
 "http://www.w3.org/Graphics/SVG/1.1/DTD/svg11.dtd">
<!-- Generated by graphviz version 2.40.1 (20161225.0304)
 -->
<!-- Title: G Pages: 1 -->
<svg width="195pt" height="51pt"
 viewBox="0.00 0.00 195.00 51.00" xmlns="http://www.w3.org/2000/svg" xmlns:xlink="http://www.w3.org/1999/xlink">
<g id="graph0" class="graph" transform="scale(1 1) rotate(0) translate(4 47)">
<title>G</title>
<polygon fill="#ffffff" stroke="transparent" points="-4,4 -4,-47 191,-47 191,4 -4,4"/>
<!-- c7152629 -->
<g id="node1" class="node">
<title>c7152629</title>
<g id="a_node1"><a xlink:href="Assignment.html" xlink:title="&lt;TABLE&gt;">
<g id="a_node1_0"><a xlink:href="Assignment.html" xlink:title="de.lmu.ifi.dbs.elki.algorithm.clustering.gdbscan.util.Assignment" target="_parent">
<polygon fill="none" stroke="#000000" points="0,-7.5 0,-35.5 56,-35.5 56,-7.5 0,-7.5"/>
<text text-anchor="start" x="6.5" y="-25.1" font-family="Roboto" font-size="8.00" fill="#000000"> «interface» </text>
<text text-anchor="start" x="4" y="-15.1" font-family="Roboto" font-size="8.00" fill="#000000"> </text>
<text text-anchor="start" x="7" y="-15.1" font-family="Roboto" font-size="8.00" fill="#000000">Assignment</text>
<text text-anchor="start" x="49" y="-15.1" font-family="Roboto" font-size="8.00" fill="#000000"> </text>
</a>
</g>
</a>
</g>
</g>
<!-- c7152630 -->
<g id="node2" class="node">
<title>c7152630</title>
<g id="a_node2"><a xlink:href="MultiBorder.html" xlink:title="&lt;TABLE&gt;">
<g id="a_node2_1"><a xlink:href="MultiBorder.html" xlink:title="de.lmu.ifi.dbs.elki.algorithm.clustering.gdbscan.util.MultiBorder" target="_parent">
<polygon fill="#fffacd" stroke="transparent" points="74,-26 74,-43 131,-43 131,-26 74,-26"/>
<polygon fill="none" stroke="#000000" points="74.5,-25.5 74.5,-42.5 131.5,-42.5 131.5,-25.5 74.5,-25.5"/>
<text text-anchor="start" x="78.5" y="-33.1" font-family="Roboto" font-size="8.00" fill="#000000"> </text>
<text text-anchor="start" x="81.5" y="-33.1" font-family="Roboto" font-size="8.00" fill="#000000">MultiBorder</text>
<text text-anchor="start" x="124.5" y="-33.1" font-family="Roboto" font-size="8.00" fill="#000000"> </text>
</a>
</g>
</a>
</g>
</g>
<!-- c7152629&#45;&gt;c7152630 -->
<g id="edge1" class="edge">
<title>c7152629&#45;&gt;c7152630</title>
<path fill="none" stroke="#000000" stroke-dasharray="5,2" d="M66.087,-28.146C68.68,-28.5985 71.2677,-29.0501 73.7996,-29.4919"/>
<polygon fill="none" stroke="#000000" points="66.6181,-24.6859 56.1653,-26.4147 65.4147,-31.5817 66.6181,-24.6859"/>
</g>
<!-- c7152631 -->
<g id="node3" class="node">
<title>c7152631</title>
<g id="a_node3"><a xlink:href="Border.html" xlink:title="&lt;TABLE&gt;">
<g id="a_node3_2"><a xlink:href="Border.html" xlink:title="de.lmu.ifi.dbs.elki.algorithm.clustering.gdbscan.util.Border" target="_parent">
<polygon fill="none" stroke="#000000" points="149,.5 149,-16.5 187,-16.5 187,.5 149,.5"/>
<text text-anchor="start" x="153" y="-7.1" font-family="Roboto" font-size="8.00" fill="#000000"> </text>
<text text-anchor="start" x="156" y="-7.1" font-family="Roboto" font-size="8.00" fill="#000000">Border</text>
<text text-anchor="start" x="180" y="-7.1" font-family="Roboto" font-size="8.00" fill="#000000"> </text>
</a>
</g>
</a>
</g>
</g>
<!-- c7152629&#45;&gt;c7152631 -->
<g id="edge2" class="edge">
<title>c7152629&#45;&gt;c7152631</title>
<path fill="none" stroke="#000000" stroke-dasharray="5,2" d="M66.5,-17.925C93.1827,-15.4473 127.5808,-12.2532 148.6989,-10.2922"/>
<polygon fill="none" stroke="#000000" points="65.9646,-14.4596 56.3311,-18.8693 66.6119,-21.4296 65.9646,-14.4596"/>
</g>
<!-- c7152630&#45;&gt;c7152631 -->
<g id="edge3" class="edge">
<title>c7152630&#45;&gt;c7152631</title>
<path fill="none" stroke="#000000" d="M123.9471,-25.9866C128.858,-24.0373 134.1554,-21.9345 139.316,-19.886"/>
<polygon fill="#000000" stroke="#000000" points="148.9337,-16.0683 141.2994,-23.9403 144.2864,-17.9131 139.6392,-19.7578 139.6392,-19.7578 139.6392,-19.7578 144.2864,-17.9131 137.9789,-15.5753 148.9337,-16.0683 148.9337,-16.0683"/>
<text text-anchor="middle" x="146.9337" y="-10.4683" font-family="Roboto" font-size="7.00" fill="#000000">*</text>
</g>
</g>
</svg>
