<?xml version="1.0" encoding="UTF-8" standalone="no"?><svg xmlns="http://www.w3.org/2000/svg" xmlns:xlink="http://www.w3.org/1999/xlink" contentStyleType="text/css" height="192px" preserveAspectRatio="none" style="width:315px;height:192px;background:#FFFFFF;" version="1.1" viewBox="0 0 315 192" width="315px" zoomAndPan="magnify"><defs/><g><!--MD5=[cf8ca8da59deccf123340ba89e9592e4]
class elki.clustering.trivial.ByLabelOrAllInOneClustering--><a href="ByLabelOrAllInOneClustering.html" target="_top" title="ByLabelOrAllInOneClustering.html" xlink:actuate="onRequest" xlink:href="ByLabelOrAllInOneClustering.html" xlink:show="new" xlink:title="ByLabelOrAllInOneClustering.html" xlink:type="simple"><g id="elem_elki.clustering.trivial.ByLabelOrAllInOneClustering"><rect codeLine="6" fill="#F1F1F1" height="62.2344" id="elki.clustering.trivial.ByLabelOrAllInOneClustering" rx="2.5" ry="2.5" style="stroke:#181818;stroke-width:0.5;" width="301" x="7" y="105"/><ellipse cx="55.75" cy="123.9688" fill="#ADD1B2" rx="11" ry="11" style="stroke:#181818;stroke-width:1.0;"/><path d="M58.7188,129.6094 Q58.1406,129.9063 57.5,130.0469 Q56.8594,130.2031 56.1563,130.2031 Q53.6563,130.2031 52.3281,128.5625 Q51.0156,126.9063 51.0156,123.7813 Q51.0156,120.6563 52.3281,119 Q53.6563,117.3438 56.1563,117.3438 Q56.8594,117.3438 57.5,117.5 Q58.1563,117.6563 58.7188,117.9531 L58.7188,120.6719 Q58.0938,120.0938 57.5,119.8281 Q56.9063,119.5469 56.2813,119.5469 Q54.9375,119.5469 54.25,120.625 Q53.5625,121.6875 53.5625,123.7813 Q53.5625,125.875 54.25,126.9531 Q54.9375,128.0156 56.2813,128.0156 Q56.9063,128.0156 57.5,127.75 Q58.0938,127.4688 58.7188,126.8906 L58.7188,129.6094 Z " fill="#000000"/><text fill="#000000" font-family="sans-serif" font-size="14" lengthAdjust="spacing" textLength="195" x="76.25" y="122.9951">ByLabelOrAllInOneClustering</text><text fill="#000000" font-family="sans-serif" font-size="10" lengthAdjust="spacing" textLength="93" x="127.25" y="135.5791">elki.clustering.trivial</text><line style="stroke:#181818;stroke-width:0.5;" x1="8" x2="307" y1="142.9375" y2="142.9375"/><ellipse cx="18" cy="156.5859" fill="#84BE84" rx="3" ry="3" style="stroke:#038048;stroke-width:1.0;"/><text fill="#000000" font-family="sans-serif" font-size="14" lengthAdjust="spacing" textLength="275" x="27" y="159.9326">autorun(Database): Clustering&lt;Model&gt;</text></g></a><!--MD5=[1f0dd64a0c32ef0cc6a1ccb0aefc2846]
class elki.clustering.trivial.ByLabelClustering--><a href="ByLabelClustering.html" target="_top" title="ByLabelClustering.html" xlink:actuate="onRequest" xlink:href="ByLabelClustering.html" xlink:show="new" xlink:title="ByLabelClustering.html" xlink:type="simple"><g id="elem_elki.clustering.trivial.ByLabelClustering"><rect codeLine="10" fill="#F1F1F1" height="37.9375" id="elki.clustering.trivial.ByLabelClustering" rx="2.5" ry="2.5" style="stroke:#181818;stroke-width:0.5;" width="155" x="80" y="7"/><ellipse cx="95" cy="25.9688" fill="#ADD1B2" rx="11" ry="11" style="stroke:#181818;stroke-width:1.0;"/><path d="M97.9688,31.6094 Q97.3906,31.9063 96.75,32.0469 Q96.1094,32.2031 95.4063,32.2031 Q92.9063,32.2031 91.5781,30.5625 Q90.2656,28.9063 90.2656,25.7813 Q90.2656,22.6563 91.5781,21 Q92.9063,19.3438 95.4063,19.3438 Q96.1094,19.3438 96.75,19.5 Q97.4063,19.6563 97.9688,19.9531 L97.9688,22.6719 Q97.3438,22.0938 96.75,21.8281 Q96.1563,21.5469 95.5313,21.5469 Q94.1875,21.5469 93.5,22.625 Q92.8125,23.6875 92.8125,25.7813 Q92.8125,27.875 93.5,28.9531 Q94.1875,30.0156 95.5313,30.0156 Q96.1563,30.0156 96.75,29.75 Q97.3438,29.4688 97.9688,28.8906 L97.9688,31.6094 Z " fill="#000000"/><text fill="#000000" font-family="sans-serif" font-size="14" lengthAdjust="spacing" textLength="123" x="109" y="24.9951">ByLabelClustering</text><text fill="#000000" font-family="sans-serif" font-size="10" lengthAdjust="spacing" textLength="93" x="124" y="37.5791">elki.clustering.trivial</text></g></a><!--MD5=[464f2ff5c6a875396ba47e0b8374a55c]
reverse link elki.clustering.trivial.ByLabelClustering to elki.clustering.trivial.ByLabelOrAllInOneClustering--><g id="link_elki.clustering.trivial.ByLabelClustering_elki.clustering.trivial.ByLabelOrAllInOneClustering"><path codeLine="12" d="M157.5,65.74 C157.5,78.56 157.5,92.64 157.5,104.73 " fill="none" id="elki.clustering.trivial.ByLabelClustering-backto-elki.clustering.trivial.ByLabelOrAllInOneClustering" style="stroke:#181818;stroke-width:1.0;"/><polygon fill="none" points="150.5,65.32,157.5,45.32,164.5,65.32,150.5,65.32" style="stroke:#181818;stroke-width:1.0;"/></g><rect fill="none" height="11.6406" style="stroke:none;stroke-width:1.0;" width="186" x="57.5" y="173.2344"/><text fill="#888888" font-family="sans-serif" font-size="10" lengthAdjust="spacing" textLength="186" x="57.5" y="182.5166">UMLDoclet 2.0.19, PlantUML 1.2022.8</text><!--MD5=[55f4f1adb388ee13c34d3840696b9389]
@startuml
    remove .*\.(Instance|Par|Parameterizer|Factory)$
    set namespaceSeparator none
    hide empty fields
    hide empty methods

    class "<size:14>ByLabelOrAllInOneClustering\n<size:10>elki.clustering.trivial" as elki.clustering.trivial.ByLabelOrAllInOneClustering [[ByLabelOrAllInOneClustering.html]] {
        +autorun(Database): Clustering<Model>
    }

    class "<size:14>ByLabelClustering\n<size:10>elki.clustering.trivial" as elki.clustering.trivial.ByLabelClustering [[ByLabelClustering.html]]

    elki.clustering.trivial.ByLabelClustering <|- - elki.clustering.trivial.ByLabelOrAllInOneClustering

    center footer UMLDoclet 2.0.19, PlantUML 1.2022.8
@enduml

PlantUML version 1.2022.8(Sun Sep 25 11:00:33 CEST 2022)
(APACHE source distribution)
Java Runtime: OpenJDK Runtime Environment
JVM: OpenJDK 64-Bit Server VM
Default Encoding: UTF-8
Language: de
Country: DE
--></g></svg>