<?xml version="1.0" encoding="UTF-8" standalone="no"?><svg xmlns="http://www.w3.org/2000/svg" xmlns:xlink="http://www.w3.org/1999/xlink" contentStyleType="text/css" height="589px" preserveAspectRatio="none" style="width:2438px;height:589px;background:#FFFFFF;" version="1.1" viewBox="0 0 2438 589" width="2438px" zoomAndPan="magnify"><defs/><g><!--MD5=[b0b0af95fd2ac1d32f8b4039eb46499b]
cluster elki.clustering.trivial--><g id="cluster_elki.clustering.trivial"><path d="M8.5,178 L168.5,178 A3.75,3.75 0 0 1 171,180.5 L178,200.2969 L2344.5,200.2969 A2.5,2.5 0 0 1 2347,202.7969 L2347,561.5 A2.5,2.5 0 0 1 2344.5,564 L8.5,564 A2.5,2.5 0 0 1 6,561.5 L6,180.5 A2.5,2.5 0 0 1 8.5,178 " fill="none" style="stroke:#000000;stroke-width:1.5;"/><line style="stroke:#000000;stroke-width:1.5;" x1="6" x2="178" y1="200.2969" y2="200.2969"/><text fill="#000000" font-family="sans-serif" font-size="14" font-weight="bold" lengthAdjust="spacing" textLength="159" x="10" y="192.9951">elki.clustering.trivial</text></g><!--MD5=[5a16a86ac2d7d394fc35a681d34e2667]
cluster elki.clustering--><g id="cluster_elki.clustering"><path d="M823.5,22.5 L935.5,22.5 A3.75,3.75 0 0 1 938,25 L945,44.7969 L1296.5,44.7969 A2.5,2.5 0 0 1 1299,47.2969 L1299,135 A2.5,2.5 0 0 1 1296.5,137.5 L823.5,137.5 A2.5,2.5 0 0 1 821,135 L821,25 A2.5,2.5 0 0 1 823.5,22.5 " fill="none" style="stroke:#000000;stroke-width:1.5;"/><line style="stroke:#000000;stroke-width:1.5;" x1="821" x2="945" y1="44.7969" y2="44.7969"/><text fill="#000000" font-family="sans-serif" font-size="14" font-weight="bold" lengthAdjust="spacing" textLength="111" x="825" y="37.4951">elki.clustering</text></g><!--MD5=[e23e625bb5c92ed55b9d7cb685855574]
cluster elki.data--><g id="cluster_elki.data"><path d="M1955.5,6 L2022.5,6 A3.75,3.75 0 0 1 2025,8.5 L2032,28.2969 L2428.5,28.2969 A2.5,2.5 0 0 1 2431,30.7969 L2431,151.5 A2.5,2.5 0 0 1 2428.5,154 L1955.5,154 A2.5,2.5 0 0 1 1953,151.5 L1953,8.5 A2.5,2.5 0 0 1 1955.5,6 " fill="none" style="stroke:#000000;stroke-width:1.5;"/><line style="stroke:#000000;stroke-width:1.5;" x1="1953" x2="2032" y1="28.2969" y2="28.2969"/><text fill="#000000" font-family="sans-serif" font-size="14" font-weight="bold" lengthAdjust="spacing" textLength="66" x="1957" y="20.9951">elki.data</text></g><!--MD5=[a50069a7409cc1c4d2865369b8406d92]
class elki.clustering.trivial.ByModelClustering--><a href="ByModelClustering.html" target="_top" title="ByModelClustering.html" xlink:actuate="onRequest" xlink:href="ByModelClustering.html" xlink:show="new" xlink:title="ByModelClustering.html" xlink:type="simple"><g id="elem_elki.clustering.trivial.ByModelClustering"><rect codeLine="4" fill="#F1F1F1" height="129.4844" id="elki.clustering.trivial.ByModelClustering" rx="2.5" ry="2.5" style="stroke:#181818;stroke-width:0.5;" width="332" x="1686" y="254"/><ellipse cx="1783.25" cy="270" fill="#ADD1B2" rx="11" ry="11" style="stroke:#181818;stroke-width:1.0;"/><path d="M1786.2188,275.6406 Q1785.6406,275.9375 1785,276.0781 Q1784.3594,276.2344 1783.6563,276.2344 Q1781.1563,276.2344 1779.8281,274.5938 Q1778.5156,272.9375 1778.5156,269.8125 Q1778.5156,266.6875 1779.8281,265.0313 Q1781.1563,263.375 1783.6563,263.375 Q1784.3594,263.375 1785,263.5313 Q1785.6563,263.6875 1786.2188,263.9844 L1786.2188,266.7031 Q1785.5938,266.125 1785,265.8594 Q1784.4063,265.5781 1783.7813,265.5781 Q1782.4375,265.5781 1781.75,266.6563 Q1781.0625,267.7188 1781.0625,269.8125 Q1781.0625,271.9063 1781.75,272.9844 Q1782.4375,274.0469 1783.7813,274.0469 Q1784.4063,274.0469 1785,273.7813 Q1785.5938,273.5 1786.2188,272.9219 L1786.2188,275.6406 Z " fill="#000000"/><text fill="#000000" font-family="sans-serif" font-size="14" lengthAdjust="spacing" textLength="129" x="1803.75" y="274.8467">ByModelClustering</text><line style="stroke:#181818;stroke-width:0.5;" x1="1687" x2="2017" y1="286" y2="286"/><rect fill="none" height="6" style="stroke:#C82930;stroke-width:1.0;" width="6" x="1694" y="296.6484"/><text fill="#000000" font-family="sans-serif" font-size="14" lengthAdjust="spacing" textLength="147" x="1706" y="302.9951">noisepattern: Pattern</text><line style="stroke:#181818;stroke-width:0.5;" x1="1687" x2="2017" y1="310.2969" y2="310.2969"/><ellipse cx="1697" cy="323.9453" fill="#84BE84" rx="3" ry="3" style="stroke:#038048;stroke-width:1.0;"/><text fill="#000000" font-family="sans-serif" font-size="14" lengthAdjust="spacing" textLength="189" x="1706" y="327.292">ByModelClustering(Pattern)</text><ellipse cx="1697" cy="340.2422" fill="#84BE84" rx="3" ry="3" style="stroke:#038048;stroke-width:1.0;"/><text fill="#000000" font-family="sans-serif" font-size="14" lengthAdjust="spacing" textLength="139" x="1706" y="343.5889">ByModelClustering()</text><ellipse cx="1697" cy="356.5391" fill="#84BE84" rx="3" ry="3" style="stroke:#038048;stroke-width:1.0;"/><text fill="#000000" font-family="sans-serif" font-size="14" lengthAdjust="spacing" textLength="306" x="1706" y="359.8857">getInputTypeRestriction(): TypeInformation[]</text><ellipse cx="1697" cy="372.8359" fill="#84BE84" rx="3" ry="3" style="stroke:#038048;stroke-width:1.0;"/><text fill="#000000" font-family="sans-serif" font-size="14" lengthAdjust="spacing" textLength="300" x="1706" y="376.1826">run(Relation&lt;Model&gt;): Clustering&lt;Model&gt;</text></g></a><!--MD5=[e333591ba240a38f280b80dd766f08e6]
class elki.clustering.trivial.TrivialAllNoise--><a href="TrivialAllNoise.html" target="_top" title="TrivialAllNoise.html" xlink:actuate="onRequest" xlink:href="TrivialAllNoise.html" xlink:show="new" xlink:title="TrivialAllNoise.html" xlink:type="simple"><g id="elem_elki.clustering.trivial.TrivialAllNoise"><rect codeLine="19" fill="#F1F1F1" height="80.5938" id="elki.clustering.trivial.TrivialAllNoise" rx="2.5" ry="2.5" style="stroke:#181818;stroke-width:0.5;" width="332" x="1319" y="278"/><ellipse cx="1434.75" cy="294" fill="#ADD1B2" rx="11" ry="11" style="stroke:#181818;stroke-width:1.0;"/><path d="M1437.7188,299.6406 Q1437.1406,299.9375 1436.5,300.0781 Q1435.8594,300.2344 1435.1563,300.2344 Q1432.6563,300.2344 1431.3281,298.5938 Q1430.0156,296.9375 1430.0156,293.8125 Q1430.0156,290.6875 1431.3281,289.0313 Q1432.6563,287.375 1435.1563,287.375 Q1435.8594,287.375 1436.5,287.5313 Q1437.1563,287.6875 1437.7188,287.9844 L1437.7188,290.7031 Q1437.0938,290.125 1436.5,289.8594 Q1435.9063,289.5781 1435.2813,289.5781 Q1433.9375,289.5781 1433.25,290.6563 Q1432.5625,291.7188 1432.5625,293.8125 Q1432.5625,295.9063 1433.25,296.9844 Q1433.9375,298.0469 1435.2813,298.0469 Q1435.9063,298.0469 1436.5,297.7813 Q1437.0938,297.5 1437.7188,296.9219 L1437.7188,299.6406 Z " fill="#000000"/><text fill="#000000" font-family="sans-serif" font-size="14" lengthAdjust="spacing" textLength="92" x="1455.25" y="298.8467">TrivialAllNoise</text><line style="stroke:#181818;stroke-width:0.5;" x1="1320" x2="1650" y1="310" y2="310"/><line style="stroke:#181818;stroke-width:0.5;" x1="1320" x2="1650" y1="318" y2="318"/><ellipse cx="1330" cy="331.6484" fill="#84BE84" rx="3" ry="3" style="stroke:#038048;stroke-width:1.0;"/><text fill="#000000" font-family="sans-serif" font-size="14" lengthAdjust="spacing" textLength="306" x="1339" y="334.9951">getInputTypeRestriction(): TypeInformation[]</text><ellipse cx="1330" cy="347.9453" fill="#84BE84" rx="3" ry="3" style="stroke:#038048;stroke-width:1.0;"/><text fill="#000000" font-family="sans-serif" font-size="14" lengthAdjust="spacing" textLength="265" x="1339" y="351.292">run(Relation&lt;?&gt;): Clustering&lt;Model&gt;</text></g></a><!--MD5=[1f0dd64a0c32ef0cc6a1ccb0aefc2846]
class elki.clustering.trivial.ByLabelClustering--><a href="ByLabelClustering.html" target="_top" title="ByLabelClustering.html" xlink:actuate="onRequest" xlink:href="ByLabelClustering.html" xlink:show="new" xlink:title="ByLabelClustering.html" xlink:type="simple"><g id="elem_elki.clustering.trivial.ByLabelClustering"><rect codeLine="24" fill="#F1F1F1" height="210.9688" id="elki.clustering.trivial.ByLabelClustering" rx="2.5" ry="2.5" style="stroke:#181818;stroke-width:0.5;" width="447" x="836.5" y="213"/><ellipse cx="994.25" cy="229" fill="#ADD1B2" rx="11" ry="11" style="stroke:#181818;stroke-width:1.0;"/><path d="M997.2188,234.6406 Q996.6406,234.9375 996,235.0781 Q995.3594,235.2344 994.6563,235.2344 Q992.1563,235.2344 990.8281,233.5938 Q989.5156,231.9375 989.5156,228.8125 Q989.5156,225.6875 990.8281,224.0313 Q992.1563,222.375 994.6563,222.375 Q995.3594,222.375 996,222.5313 Q996.6563,222.6875 997.2188,222.9844 L997.2188,225.7031 Q996.5938,225.125 996,224.8594 Q995.4063,224.5781 994.7813,224.5781 Q993.4375,224.5781 992.75,225.6563 Q992.0625,226.7188 992.0625,228.8125 Q992.0625,230.9063 992.75,231.9844 Q993.4375,233.0469 994.7813,233.0469 Q995.4063,233.0469 996,232.7813 Q996.5938,232.5 997.2188,231.9219 L997.2188,234.6406 Z " fill="#000000"/><text fill="#000000" font-family="sans-serif" font-size="14" lengthAdjust="spacing" textLength="123" x="1014.75" y="233.8467">ByLabelClustering</text><line style="stroke:#181818;stroke-width:0.5;" x1="837.5" x2="1282.5" y1="245" y2="245"/><rect fill="none" height="6" style="stroke:#C82930;stroke-width:1.0;" width="6" x="844.5" y="255.6484"/><text fill="#000000" font-family="sans-serif" font-size="14" lengthAdjust="spacing" textLength="119" x="856.5" y="261.9951">multiple: boolean</text><rect fill="none" height="6" style="stroke:#C82930;stroke-width:1.0;" width="6" x="844.5" y="271.9453"/><text fill="#000000" font-family="sans-serif" font-size="14" lengthAdjust="spacing" textLength="147" x="856.5" y="278.292">noisepattern: Pattern</text><line style="stroke:#181818;stroke-width:0.5;" x1="837.5" x2="1282.5" y1="285.5938" y2="285.5938"/><ellipse cx="847.5" cy="299.2422" fill="#84BE84" rx="3" ry="3" style="stroke:#038048;stroke-width:1.0;"/><text fill="#000000" font-family="sans-serif" font-size="14" lengthAdjust="spacing" textLength="247" x="856.5" y="302.5889">ByLabelClustering(boolean, Pattern)</text><ellipse cx="847.5" cy="315.5391" fill="#84BE84" rx="3" ry="3" style="stroke:#038048;stroke-width:1.0;"/><text fill="#000000" font-family="sans-serif" font-size="14" lengthAdjust="spacing" textLength="133" x="856.5" y="318.8857">ByLabelClustering()</text><ellipse cx="847.5" cy="331.8359" fill="#84BE84" rx="3" ry="3" style="stroke:#038048;stroke-width:1.0;"/><text fill="#000000" font-family="sans-serif" font-size="14" lengthAdjust="spacing" textLength="306" x="856.5" y="335.1826">getInputTypeRestriction(): TypeInformation[]</text><ellipse cx="847.5" cy="348.1328" fill="#84BE84" rx="3" ry="3" style="stroke:#038048;stroke-width:1.0;"/><text fill="#000000" font-family="sans-serif" font-size="14" lengthAdjust="spacing" textLength="275" x="856.5" y="351.4795">autorun(Database): Clustering&lt;Model&gt;</text><ellipse cx="847.5" cy="364.4297" fill="#84BE84" rx="3" ry="3" style="stroke:#038048;stroke-width:1.0;"/><text fill="#000000" font-family="sans-serif" font-size="14" lengthAdjust="spacing" textLength="265" x="856.5" y="367.7764">run(Relation&lt;?&gt;): Clustering&lt;Model&gt;</text><rect fill="#F24D5C" height="6" style="stroke:#C82930;stroke-width:1.0;" width="6" x="844.5" y="377.7266"/><text fill="#000000" font-family="sans-serif" font-size="14" lengthAdjust="spacing" textLength="408" x="856.5" y="384.0732">singleAssignment(Relation&lt;?&gt;): HashMap&lt;String, DBIDs&gt;</text><rect fill="#F24D5C" height="6" style="stroke:#C82930;stroke-width:1.0;" width="6" x="844.5" y="394.0234"/><text fill="#000000" font-family="sans-serif" font-size="14" lengthAdjust="spacing" textLength="421" x="856.5" y="400.3701">multipleAssignment(Relation&lt;?&gt;): HashMap&lt;String, DBIDs&gt;</text><rect fill="#F24D5C" height="6" style="stroke:#C82930;stroke-width:1.0;" width="6" x="844.5" y="410.3203"/><text fill="#000000" font-family="sans-serif" font-size="14" lengthAdjust="spacing" textLength="385" x="856.5" y="416.667">assign(HashMap&lt;String, DBIDs&gt;, String, DBIDRef): void</text></g></a><!--MD5=[cf8ca8da59deccf123340ba89e9592e4]
class elki.clustering.trivial.ByLabelOrAllInOneClustering--><a href="ByLabelOrAllInOneClustering.html" target="_top" title="ByLabelOrAllInOneClustering.html" xlink:actuate="onRequest" xlink:href="ByLabelOrAllInOneClustering.html" xlink:show="new" xlink:title="ByLabelOrAllInOneClustering.html" xlink:type="simple"><g id="elem_elki.clustering.trivial.ByLabelOrAllInOneClustering"><rect codeLine="46" fill="#F1F1F1" height="64.2969" id="elki.clustering.trivial.ByLabelOrAllInOneClustering" rx="2.5" ry="2.5" style="stroke:#181818;stroke-width:0.5;" width="301" x="909.5" y="484"/><ellipse cx="958.25" cy="500" fill="#ADD1B2" rx="11" ry="11" style="stroke:#181818;stroke-width:1.0;"/><path d="M961.2188,505.6406 Q960.6406,505.9375 960,506.0781 Q959.3594,506.2344 958.6563,506.2344 Q956.1563,506.2344 954.8281,504.5938 Q953.5156,502.9375 953.5156,499.8125 Q953.5156,496.6875 954.8281,495.0313 Q956.1563,493.375 958.6563,493.375 Q959.3594,493.375 960,493.5313 Q960.6563,493.6875 961.2188,493.9844 L961.2188,496.7031 Q960.5938,496.125 960,495.8594 Q959.4063,495.5781 958.7813,495.5781 Q957.4375,495.5781 956.75,496.6563 Q956.0625,497.7188 956.0625,499.8125 Q956.0625,501.9063 956.75,502.9844 Q957.4375,504.0469 958.7813,504.0469 Q959.4063,504.0469 960,503.7813 Q960.5938,503.5 961.2188,502.9219 L961.2188,505.6406 Z " fill="#000000"/><text fill="#000000" font-family="sans-serif" font-size="14" lengthAdjust="spacing" textLength="195" x="978.75" y="504.8467">ByLabelOrAllInOneClustering</text><line style="stroke:#181818;stroke-width:0.5;" x1="910.5" x2="1209.5" y1="516" y2="516"/><line style="stroke:#181818;stroke-width:0.5;" x1="910.5" x2="1209.5" y1="524" y2="524"/><ellipse cx="920.5" cy="537.6484" fill="#84BE84" rx="3" ry="3" style="stroke:#038048;stroke-width:1.0;"/><text fill="#000000" font-family="sans-serif" font-size="14" lengthAdjust="spacing" textLength="275" x="929.5" y="540.9951">autorun(Database): Clustering&lt;Model&gt;</text></g></a><!--MD5=[3c91917eddd7069094dd4603bd565c89]
class elki.clustering.trivial.TrivialAllInOne--><a href="TrivialAllInOne.html" target="_top" title="TrivialAllInOne.html" xlink:actuate="onRequest" xlink:href="TrivialAllInOne.html" xlink:show="new" xlink:title="TrivialAllInOne.html" xlink:type="simple"><g id="elem_elki.clustering.trivial.TrivialAllInOne"><rect codeLine="50" fill="#F1F1F1" height="80.5938" id="elki.clustering.trivial.TrivialAllInOne" rx="2.5" ry="2.5" style="stroke:#181818;stroke-width:0.5;" width="332" x="469" y="278"/><ellipse cx="583.75" cy="294" fill="#ADD1B2" rx="11" ry="11" style="stroke:#181818;stroke-width:1.0;"/><path d="M586.7188,299.6406 Q586.1406,299.9375 585.5,300.0781 Q584.8594,300.2344 584.1563,300.2344 Q581.6563,300.2344 580.3281,298.5938 Q579.0156,296.9375 579.0156,293.8125 Q579.0156,290.6875 580.3281,289.0313 Q581.6563,287.375 584.1563,287.375 Q584.8594,287.375 585.5,287.5313 Q586.1563,287.6875 586.7188,287.9844 L586.7188,290.7031 Q586.0938,290.125 585.5,289.8594 Q584.9063,289.5781 584.2813,289.5781 Q582.9375,289.5781 582.25,290.6563 Q581.5625,291.7188 581.5625,293.8125 Q581.5625,295.9063 582.25,296.9844 Q582.9375,298.0469 584.2813,298.0469 Q584.9063,298.0469 585.5,297.7813 Q586.0938,297.5 586.7188,296.9219 L586.7188,299.6406 Z " fill="#000000"/><text fill="#000000" font-family="sans-serif" font-size="14" lengthAdjust="spacing" textLength="94" x="604.25" y="298.8467">TrivialAllInOne</text><line style="stroke:#181818;stroke-width:0.5;" x1="470" x2="800" y1="310" y2="310"/><line style="stroke:#181818;stroke-width:0.5;" x1="470" x2="800" y1="318" y2="318"/><ellipse cx="480" cy="331.6484" fill="#84BE84" rx="3" ry="3" style="stroke:#038048;stroke-width:1.0;"/><text fill="#000000" font-family="sans-serif" font-size="14" lengthAdjust="spacing" textLength="306" x="489" y="334.9951">getInputTypeRestriction(): TypeInformation[]</text><ellipse cx="480" cy="347.9453" fill="#84BE84" rx="3" ry="3" style="stroke:#038048;stroke-width:1.0;"/><text fill="#000000" font-family="sans-serif" font-size="14" lengthAdjust="spacing" textLength="265" x="489" y="351.292">run(Relation&lt;?&gt;): Clustering&lt;Model&gt;</text></g></a><!--MD5=[2422c33778ab1d1ca33b1396ae842ea6]
class elki.clustering.trivial.ByLabelHierarchicalClustering--><a href="ByLabelHierarchicalClustering.html" target="_top" title="ByLabelHierarchicalClustering.html" xlink:actuate="onRequest" xlink:href="ByLabelHierarchicalClustering.html" xlink:show="new" xlink:title="ByLabelHierarchicalClustering.html" xlink:type="simple"><g id="elem_elki.clustering.trivial.ByLabelHierarchicalClustering"><rect codeLine="55" fill="#F1F1F1" height="129.4844" id="elki.clustering.trivial.ByLabelHierarchicalClustering" rx="2.5" ry="2.5" style="stroke:#181818;stroke-width:0.5;" width="411" x="22.5" y="254"/><ellipse cx="122.75" cy="270" fill="#ADD1B2" rx="11" ry="11" style="stroke:#181818;stroke-width:1.0;"/><path d="M125.7188,275.6406 Q125.1406,275.9375 124.5,276.0781 Q123.8594,276.2344 123.1563,276.2344 Q120.6563,276.2344 119.3281,274.5938 Q118.0156,272.9375 118.0156,269.8125 Q118.0156,266.6875 119.3281,265.0313 Q120.6563,263.375 123.1563,263.375 Q123.8594,263.375 124.5,263.5313 Q125.1563,263.6875 125.7188,263.9844 L125.7188,266.7031 Q125.0938,266.125 124.5,265.8594 Q123.9063,265.5781 123.2813,265.5781 Q121.9375,265.5781 121.25,266.6563 Q120.5625,267.7188 120.5625,269.8125 Q120.5625,271.9063 121.25,272.9844 Q121.9375,274.0469 123.2813,274.0469 Q123.9063,274.0469 124.5,273.7813 Q125.0938,273.5 125.7188,272.9219 L125.7188,275.6406 Z " fill="#000000"/><text fill="#000000" font-family="sans-serif" font-size="14" lengthAdjust="spacing" textLength="202" x="143.25" y="274.8467">ByLabelHierarchicalClustering</text><line style="stroke:#181818;stroke-width:0.5;" x1="23.5" x2="432.5" y1="286" y2="286"/><rect fill="none" height="6" style="stroke:#C82930;stroke-width:1.0;" width="6" x="30.5" y="296.6484"/><text fill="#000000" font-family="sans-serif" font-size="14" lengthAdjust="spacing" text-decoration="underline" textLength="93" x="42.5" y="302.9951">LOG: Logging</text><line style="stroke:#181818;stroke-width:0.5;" x1="23.5" x2="432.5" y1="310.2969" y2="310.2969"/><ellipse cx="33.5" cy="323.9453" fill="#84BE84" rx="3" ry="3" style="stroke:#038048;stroke-width:1.0;"/><text fill="#000000" font-family="sans-serif" font-size="14" lengthAdjust="spacing" textLength="275" x="42.5" y="327.292">autorun(Database): Clustering&lt;Model&gt;</text><ellipse cx="33.5" cy="340.2422" fill="#84BE84" rx="3" ry="3" style="stroke:#038048;stroke-width:1.0;"/><text fill="#000000" font-family="sans-serif" font-size="14" lengthAdjust="spacing" textLength="265" x="42.5" y="343.5889">run(Relation&lt;?&gt;): Clustering&lt;Model&gt;</text><rect fill="#F24D5C" height="6" style="stroke:#C82930;stroke-width:1.0;" width="6" x="30.5" y="353.5391"/><text fill="#000000" font-family="sans-serif" font-size="14" lengthAdjust="spacing" textLength="385" x="42.5" y="359.8857">assign(HashMap&lt;String, DBIDs&gt;, String, DBIDRef): void</text><ellipse cx="33.5" cy="372.8359" fill="#84BE84" rx="3" ry="3" style="stroke:#038048;stroke-width:1.0;"/><text fill="#000000" font-family="sans-serif" font-size="14" lengthAdjust="spacing" textLength="306" x="42.5" y="376.1826">getInputTypeRestriction(): TypeInformation[]</text></g></a><!--MD5=[8ed14486521ac2afe98eb0a0e3f5cff6]
class elki.clustering.trivial.ReferenceClustering--><a href="ReferenceClustering.html" target="_top" title="ReferenceClustering.html" xlink:actuate="onRequest" xlink:href="ReferenceClustering.html" xlink:show="new" xlink:title="ReferenceClustering.html" xlink:type="simple"><g id="elem_elki.clustering.trivial.ReferenceClustering"><rect codeLine="63" fill="#F1F1F1" height="48" id="elki.clustering.trivial.ReferenceClustering" rx="2.5" ry="2.5" style="stroke:#181818;stroke-width:0.5;" width="278" x="2053" y="294.5"/><ellipse cx="2068" cy="310.5" fill="#ADD1B2" rx="11" ry="11" style="stroke:#181818;stroke-width:1.0;"/><path d="M2070.9688,316.1406 Q2070.3906,316.4375 2069.75,316.5781 Q2069.1094,316.7344 2068.4063,316.7344 Q2065.9063,316.7344 2064.5781,315.0938 Q2063.2656,313.4375 2063.2656,310.3125 Q2063.2656,307.1875 2064.5781,305.5313 Q2065.9063,303.875 2068.4063,303.875 Q2069.1094,303.875 2069.75,304.0313 Q2070.4063,304.1875 2070.9688,304.4844 L2070.9688,307.2031 Q2070.3438,306.625 2069.75,306.3594 Q2069.1563,306.0781 2068.5313,306.0781 Q2067.1875,306.0781 2066.5,307.1563 Q2065.8125,308.2188 2065.8125,310.3125 Q2065.8125,312.4063 2066.5,313.4844 Q2067.1875,314.5469 2068.5313,314.5469 Q2069.1563,314.5469 2069.75,314.2813 Q2070.3438,314 2070.9688,313.4219 L2070.9688,316.1406 Z " fill="#000000"/><text fill="#000000" font-family="sans-serif" font-size="14" lengthAdjust="spacing" textLength="142" x="2082" y="315.3467">ReferenceClustering</text><rect fill="#FFFFFF" height="15.9688" style="stroke:#181818;stroke-width:1.0;stroke-dasharray:2.0,2.0;" width="102" x="2232" y="291.5"/><text fill="#000000" font-family="sans-serif" font-size="12" font-style="italic" lengthAdjust="spacing" textLength="100" x="2233" y="303.6387">M extends Model</text><line style="stroke:#181818;stroke-width:0.5;" x1="2054" x2="2330" y1="326.5" y2="326.5"/><line style="stroke:#181818;stroke-width:0.5;" x1="2054" x2="2330" y1="334.5" y2="334.5"/></g></a><!--MD5=[4fc33484231348e70db2dde04bb5858c]
class elki.clustering.ClusteringAlgorithm--><a href="../ClusteringAlgorithm.html" target="_top" title="../ClusteringAlgorithm.html" xlink:actuate="onRequest" xlink:href="../ClusteringAlgorithm.html" xlink:show="new" xlink:title="../ClusteringAlgorithm.html" xlink:type="simple"><g id="elem_elki.clustering.ClusteringAlgorithm"><rect codeLine="79" fill="#F1F1F1" height="64.2969" id="elki.clustering.ClusteringAlgorithm" rx="2.5" ry="2.5" style="stroke:#181818;stroke-width:0.5;" width="446" x="837" y="57.5"/><ellipse cx="865.95" cy="73.5" fill="#B4A7E5" rx="11" ry="11" style="stroke:#181818;stroke-width:1.0;"/><path d="M861.8719,69.2656 L861.8719,67.1094 L869.2625,67.1094 L869.2625,69.2656 L866.7938,69.2656 L866.7938,77.3438 L869.2625,77.3438 L869.2625,79.5 L861.8719,79.5 L861.8719,77.3438 L864.3406,77.3438 L864.3406,69.2656 L861.8719,69.2656 Z " fill="#000000"/><text fill="#000000" font-family="sans-serif" font-size="14" font-style="italic" lengthAdjust="spacing" textLength="140" x="883.05" y="78.3467">ClusteringAlgorithm</text><rect fill="#FFFFFF" height="15.9688" style="stroke:#181818;stroke-width:1.0;stroke-dasharray:2.0,2.0;" width="241" x="1045" y="54.5"/><text fill="#000000" font-family="sans-serif" font-size="12" font-style="italic" lengthAdjust="spacing" textLength="239" x="1046" y="66.6387">C extends Clustering&lt;? extends Model&gt;</text><line style="stroke:#181818;stroke-width:0.5;" x1="838" x2="1282" y1="89.5" y2="89.5"/><line style="stroke:#181818;stroke-width:0.5;" x1="838" x2="1282" y1="97.5" y2="97.5"/><ellipse cx="848" cy="111.1484" fill="#84BE84" rx="3" ry="3" style="stroke:#038048;stroke-width:1.0;"/><text fill="#000000" font-family="sans-serif" font-size="14" lengthAdjust="spacing" textLength="420" x="857" y="114.4951">autorun(Database): C extends Clustering&lt;? extends Model&gt;</text></g></a><!--MD5=[98566fc09ca9ca28d0e159eccd3a790a]
class elki.data.Clustering--><a href="../../data/Clustering.html" target="_top" title="../../data/Clustering.html" xlink:actuate="onRequest" xlink:href="../../data/Clustering.html" xlink:show="new" xlink:title="../../data/Clustering.html" xlink:type="simple"><g id="elem_elki.data.Clustering"><rect codeLine="92" fill="#F1F1F1" height="96.8906" id="elki.data.Clustering" rx="2.5" ry="2.5" style="stroke:#181818;stroke-width:0.5;" width="446" x="1969" y="41"/><ellipse cx="2100.75" cy="57" fill="#ADD1B2" rx="11" ry="11" style="stroke:#181818;stroke-width:1.0;"/><path d="M2103.7188,62.6406 Q2103.1406,62.9375 2102.5,63.0781 Q2101.8594,63.2344 2101.1563,63.2344 Q2098.6563,63.2344 2097.3281,61.5938 Q2096.0156,59.9375 2096.0156,56.8125 Q2096.0156,53.6875 2097.3281,52.0313 Q2098.6563,50.375 2101.1563,50.375 Q2101.8594,50.375 2102.5,50.5313 Q2103.1563,50.6875 2103.7188,50.9844 L2103.7188,53.7031 Q2103.0938,53.125 2102.5,52.8594 Q2101.9063,52.5781 2101.2813,52.5781 Q2099.9375,52.5781 2099.25,53.6563 Q2098.5625,54.7188 2098.5625,56.8125 Q2098.5625,58.9063 2099.25,59.9844 Q2099.9375,61.0469 2101.2813,61.0469 Q2101.9063,61.0469 2102.5,60.7813 Q2103.0938,60.5 2103.7188,59.9219 L2103.7188,62.6406 Z " fill="#000000"/><text fill="#000000" font-family="sans-serif" font-size="14" lengthAdjust="spacing" textLength="70" x="2121.25" y="61.8467">Clustering</text><rect fill="#FFFFFF" height="15.9688" style="stroke:#181818;stroke-width:1.0;stroke-dasharray:2.0,2.0;" width="102" x="2316" y="38"/><text fill="#000000" font-family="sans-serif" font-size="12" font-style="italic" lengthAdjust="spacing" textLength="100" x="2317" y="50.1387">M extends Model</text><line style="stroke:#181818;stroke-width:0.5;" x1="1970" x2="2414" y1="73" y2="73"/><ellipse cx="1980" cy="86.6484" fill="none" rx="3" ry="3" style="stroke:#038048;stroke-width:1.0;"/><text fill="#000000" font-family="sans-serif" font-size="14" lengthAdjust="spacing" text-decoration="underline" textLength="327" x="1989" y="89.9951">TYPE: SimpleTypeInformation&lt;Clustering&lt;?&gt;&gt;</text><rect fill="none" height="6" style="stroke:#C82930;stroke-width:1.0;" width="6" x="1977" y="99.9453"/><text fill="#000000" font-family="sans-serif" font-size="14" lengthAdjust="spacing" textLength="356" x="1989" y="106.292">toplevelclusters: List&lt;Cluster&lt;M extends Model&gt;&gt;</text><rect fill="none" height="6" style="stroke:#C82930;stroke-width:1.0;" width="6" x="1977" y="116.2422"/><text fill="#000000" font-family="sans-serif" font-size="14" lengthAdjust="spacing" textLength="420" x="1989" y="122.5889">hierarchy: ModifiableHierarchy&lt;Cluster&lt;M extends Model&gt;&gt;</text><line style="stroke:#181818;stroke-width:0.5;" x1="1970" x2="2414" y1="129.8906" y2="129.8906"/></g></a><!--MD5=[84240c9ed3adb88546708ca468fd1b5d]
reverse link elki.clustering.ClusteringAlgorithm to elki.clustering.trivial.ByModelClustering--><g id="link_elki.clustering.ClusteringAlgorithm_elki.clustering.trivial.ByModelClustering"><path codeLine="65" d="M1303.1,108.76 C1443.19,121.9 1604.05,142.22 1669,170 C1714.4,189.41 1757.76,223.43 1790.88,253.9 " fill="none" id="elki.clustering.ClusteringAlgorithm-backto-elki.clustering.trivial.ByModelClustering" style="stroke:#181818;stroke-width:1.0;stroke-dasharray:7.0,7.0;"/><polygon fill="none" points="1302.31,115.72,1283.04,106.92,1303.6,101.78,1302.31,115.72" style="stroke:#181818;stroke-width:1.0;"/></g><!--MD5=[6ff970423ead9d300853bdd387b87175]
reverse link elki.clustering.ClusteringAlgorithm to elki.clustering.trivial.TrivialAllNoise--><g id="link_elki.clustering.ClusteringAlgorithm_elki.clustering.trivial.TrivialAllNoise"><path codeLine="68" d="M1201.45,127.82 C1235.06,139.2 1270.1,153.23 1301,170 C1355.16,199.39 1409.23,245.2 1444.6,277.97 " fill="none" id="elki.clustering.ClusteringAlgorithm-backto-elki.clustering.trivial.TrivialAllNoise" style="stroke:#181818;stroke-width:1.0;stroke-dasharray:7.0,7.0;"/><polygon fill="none" points="1199.25,134.46,1182.42,121.59,1203.6,121.16,1199.25,134.46" style="stroke:#181818;stroke-width:1.0;"/></g><!--MD5=[28a91f9f71e5a2130d2a9ff2a68e34a2]
reverse link elki.clustering.ClusteringAlgorithm to elki.clustering.trivial.ByLabelClustering--><g id="link_elki.clustering.ClusteringAlgorithm_elki.clustering.trivial.ByLabelClustering"><path codeLine="69" d="M1060,141.89 C1060,163 1060,188.25 1060,212.93 " fill="none" id="elki.clustering.ClusteringAlgorithm-backto-elki.clustering.trivial.ByLabelClustering" style="stroke:#181818;stroke-width:1.0;stroke-dasharray:7.0,7.0;"/><polygon fill="none" points="1053,141.59,1060,121.59,1067,141.59,1053,141.59" style="stroke:#181818;stroke-width:1.0;"/></g><!--MD5=[464f2ff5c6a875396ba47e0b8374a55c]
reverse link elki.clustering.trivial.ByLabelClustering to elki.clustering.trivial.ByLabelOrAllInOneClustering--><g id="link_elki.clustering.trivial.ByLabelClustering_elki.clustering.trivial.ByLabelOrAllInOneClustering"><path codeLine="72" d="M1060,444.28 C1060,458.77 1060,472.4 1060,483.75 " fill="none" id="elki.clustering.trivial.ByLabelClustering-backto-elki.clustering.trivial.ByLabelOrAllInOneClustering" style="stroke:#181818;stroke-width:1.0;"/><polygon fill="none" points="1053,444.12,1060,424.12,1067,444.12,1053,444.12" style="stroke:#181818;stroke-width:1.0;"/></g><!--MD5=[28632dedd2c2ba07bfcf7f9f493c561b]
reverse link elki.clustering.ClusteringAlgorithm to elki.clustering.trivial.TrivialAllInOne--><g id="link_elki.clustering.ClusteringAlgorithm_elki.clustering.trivial.TrivialAllInOne"><path codeLine="73" d="M918.55,127.82 C884.94,139.2 849.9,153.23 819,170 C764.84,199.39 710.77,245.2 675.4,277.97 " fill="none" id="elki.clustering.ClusteringAlgorithm-backto-elki.clustering.trivial.TrivialAllInOne" style="stroke:#181818;stroke-width:1.0;stroke-dasharray:7.0,7.0;"/><polygon fill="none" points="916.4,121.16,937.58,121.59,920.75,134.46,916.4,121.16" style="stroke:#181818;stroke-width:1.0;"/></g><!--MD5=[680e34a2f1cccc49fd7aedd4ca912e09]
reverse link elki.clustering.ClusteringAlgorithm to elki.clustering.trivial.ByLabelHierarchicalClustering--><g id="link_elki.clustering.ClusteringAlgorithm_elki.clustering.trivial.ByLabelHierarchicalClustering"><path codeLine="74" d="M816.62,97.24 C702.95,106.65 567.53,127.02 452,170 C399.3,189.6 346.48,223.53 305.38,253.91 " fill="none" id="elki.clustering.ClusteringAlgorithm-backto-elki.clustering.trivial.ByLabelHierarchicalClustering" style="stroke:#181818;stroke-width:1.0;stroke-dasharray:7.0,7.0;"/><polygon fill="none" points="816.37,90.24,836.85,95.66,817.46,104.2,816.37,90.24" style="stroke:#181818;stroke-width:1.0;"/></g><!--MD5=[0783c1ea65585236e53bd87c51679cb2]
reverse link elki.data.Clustering to elki.clustering.trivial.ReferenceClustering--><g id="link_elki.data.Clustering_elki.clustering.trivial.ReferenceClustering"><path codeLine="75" d="M2192,158.28 C2192,204.37 2192,262.54 2192,294.26 " fill="none" id="elki.data.Clustering-backto-elki.clustering.trivial.ReferenceClustering" style="stroke:#181818;stroke-width:1.0;"/><polygon fill="none" points="2185,158.09,2192,138.09,2199,158.09,2185,158.09" style="stroke:#181818;stroke-width:1.0;"/></g><rect fill="none" height="11.6406" style="stroke:none;stroke-width:1.0;" width="186" x="1119" y="570"/><text fill="#888888" font-family="sans-serif" font-size="10" lengthAdjust="spacing" textLength="186" x="1119" y="579.2822">UMLDoclet 2.0.19, PlantUML 1.2022.8</text><!--MD5=[7b46ec2377fa0482dba1e0132cad0d65]
@startuml
    remove .*\.(Instance|Par|Parameterizer|Factory)$
    namespace elki.clustering.trivial {

        class ByModelClustering [[ByModelClustering.html]] {
            -noisepattern: Pattern
            +ByModelClustering(Pattern)
            +ByModelClustering()
            +getInputTypeRestriction(): TypeInformation[]
            +run(Relation<Model>): Clustering<Model>
        }

        class elki.clustering.trivial.ByModelClustering.Par [[ByModelClustering.Par.html]] {
            {static} +NOISE_ID: OptionID
            #noisepat: Pattern
            +configure(Parameterization): void
            +make(): ByModelClustering
        }

        class TrivialAllNoise [[TrivialAllNoise.html]] {
            +getInputTypeRestriction(): TypeInformation[]
            +run(Relation<?>): Clustering<Model>
        }

        class ByLabelClustering [[ByLabelClustering.html]] {
            -multiple: boolean
            -noisepattern: Pattern
            +ByLabelClustering(boolean, Pattern)
            +ByLabelClustering()
            +getInputTypeRestriction(): TypeInformation[]
            +autorun(Database): Clustering<Model>
            +run(Relation<?>): Clustering<Model>
            -singleAssignment(Relation<?>): HashMap<String, DBIDs>
            -multipleAssignment(Relation<?>): HashMap<String, DBIDs>
            -assign(HashMap<String, DBIDs>, String, DBIDRef): void
        }

        class elki.clustering.trivial.ByLabelClustering.Par [[ByLabelClustering.Par.html]] {
            {static} +MULTIPLE_ID: OptionID
            {static} +NOISE_ID: OptionID
            #multiple: boolean
            #noisepat: Pattern
            +configure(Parameterization): void
            +make(): ByLabelClustering
        }

        class ByLabelOrAllInOneClustering [[ByLabelOrAllInOneClustering.html]] {
            +autorun(Database): Clustering<Model>
        }

        class TrivialAllInOne [[TrivialAllInOne.html]] {
            +getInputTypeRestriction(): TypeInformation[]
            +run(Relation<?>): Clustering<Model>
        }

        class ByLabelHierarchicalClustering [[ByLabelHierarchicalClustering.html]] {
            {static} -LOG: Logging
            +autorun(Database): Clustering<Model>
            +run(Relation<?>): Clustering<Model>
            -assign(HashMap<String, DBIDs>, String, DBIDRef): void
            +getInputTypeRestriction(): TypeInformation[]
        }

        class ReferenceClustering<M extends Model> [[ReferenceClustering.html]]

        elki.clustering.ClusteringAlgorithm <|.. ByModelClustering
        elki.utilities.optionhandling.Parameterizer <|.. elki.clustering.trivial.ByModelClustering.Par
        ByModelClustering +- - elki.clustering.trivial.ByModelClustering.Par
        elki.clustering.ClusteringAlgorithm <|.. TrivialAllNoise
        elki.clustering.ClusteringAlgorithm <|.. ByLabelClustering
        elki.utilities.optionhandling.Parameterizer <|.. elki.clustering.trivial.ByLabelClustering.Par
        ByLabelClustering +- - elki.clustering.trivial.ByLabelClustering.Par
        ByLabelClustering <|- - ByLabelOrAllInOneClustering
        elki.clustering.ClusteringAlgorithm <|.. TrivialAllInOne
        elki.clustering.ClusteringAlgorithm <|.. ByLabelHierarchicalClustering
        elki.data.Clustering <|- - ReferenceClustering
    }

    namespace elki.clustering {
        interface ClusteringAlgorithm<C extends Clustering<? extends Model>> [[../ClusteringAlgorithm.html]] {
            +autorun(Database): C extends Clustering<? extends Model>
        }
    }

    namespace elki.utilities.optionhandling {
        interface Parameterizer [[../../utilities/optionhandling/Parameterizer.html]] {
            +configure(Parameterization): void
            {abstract} +make(): Object
        }
    }

    namespace elki.data {
        class Clustering<M extends Model> [[../../data/Clustering.html]] {
            {static} +TYPE: SimpleTypeInformation<Clustering<?>>
            -toplevelclusters: List<Cluster<M extends Model>>
            -hierarchy: ModifiableHierarchy<Cluster<M extends Model>>
        }
    }

    center footer UMLDoclet 2.0.19, PlantUML 1.2022.8
@enduml

PlantUML version 1.2022.8(Sun Sep 25 11:00:33 CEST 2022)
(APACHE source distribution)
Java Runtime: OpenJDK Runtime Environment
JVM: OpenJDK 64-Bit Server VM
Default Encoding: UTF-8
Language: de
Country: DE
--></g></svg>