<?xml version="1.0" encoding="UTF-8" standalone="no"?>
<!DOCTYPE svg PUBLIC "-//W3C//DTD SVG 1.1//EN"
 "http://www.w3.org/Graphics/SVG/1.1/DTD/svg11.dtd">
<!-- Generated by graphviz version 2.40.1 (20161225.0304)
 -->
<!-- Title: G Pages: 1 -->
<svg width="466pt" height="44pt"
 viewBox="0.00 0.00 466.00 43.50" xmlns="http://www.w3.org/2000/svg" xmlns:xlink="http://www.w3.org/1999/xlink">
<g id="graph0" class="graph" transform="scale(1 1) rotate(0) translate(4 39.5)">
<title>G</title>
<polygon fill="#ffffff" stroke="transparent" points="-4,4 -4,-39.5 462,-39.5 462,4 -4,4"/>
<!-- c6891500 -->
<g id="node1" class="node">
<title>c6891500</title>
<g id="a_node1"><a xlink:href="ListParameterization.html" xlink:title="&lt;TABLE&gt;">
<g id="a_node1_0"><a xlink:href="ListParameterization.html" xlink:title="de.lmu.ifi.dbs.elki.utilities.optionhandling.parameterization.ListParameterization" target="_parent">
<polygon fill="none" stroke="#000000" points="213.5,-18 213.5,-35 300.5,-35 300.5,-18 213.5,-18"/>
<text text-anchor="start" x="217.5" y="-25.6" font-family="Roboto" font-size="8.00" fill="#000000"> </text>
<text text-anchor="start" x="220.5" y="-25.6" font-family="Roboto" font-size="8.00" fill="#000000">ListParameterization</text>
<text text-anchor="start" x="293.5" y="-25.6" font-family="Roboto" font-size="8.00" fill="#000000"> </text>
</a>
</g>
</a>
</g>
</g>
<!-- c6891501 -->
<g id="node2" class="node">
<title>c6891501</title>
<g id="a_node2"><a xlink:href="ListParameterization.ParameterPair.html" xlink:title="&lt;TABLE&gt;">
<g id="a_node2_1"><a xlink:href="ListParameterization.ParameterPair.html" xlink:title="de.lmu.ifi.dbs.elki.utilities.optionhandling.parameterization.ListParameterization.ParameterPair" target="_parent">
<polygon fill="none" stroke="#000000" points="318,-5 318,-22 458,-22 458,-5 318,-5"/>
<text text-anchor="start" x="322" y="-12.6" font-family="Roboto" font-size="8.00" fill="#000000"> </text>
<text text-anchor="start" x="325" y="-12.6" font-family="Roboto" font-size="8.00" fill="#000000">ListParameterization.ParameterPair</text>
<text text-anchor="start" x="451" y="-12.6" font-family="Roboto" font-size="8.00" fill="#000000"> </text>
</a>
</g>
</a>
</g>
</g>
<!-- c6891500&#45;&gt;c6891501 -->
<g id="edge2" class="edge">
<title>c6891500&#45;&gt;c6891501</title>
<path fill="none" stroke="#000000" d="M300.2876,-22.6712C302.7718,-22.4256 305.3033,-22.1753 307.8654,-21.922"/>
<polygon fill="#000000" stroke="#000000" points="317.8646,-20.9335 308.3559,-26.3956 312.8889,-21.4255 307.9131,-21.9174 307.9131,-21.9174 307.9131,-21.9174 312.8889,-21.4255 307.4704,-17.4393 317.8646,-20.9335 317.8646,-20.9335"/>
<text text-anchor="middle" x="315.8646" y="-15.3335" font-family="Roboto" font-size="7.00" fill="#000000">*</text>
</g>
<!-- c6891502 -->
<g id="node3" class="node">
<title>c6891502</title>
<g id="a_node3"><a xlink:href="Parameterization.html" xlink:title="&lt;TABLE&gt;">
<g id="a_node3_2"><a xlink:href="Parameterization.html" xlink:title="de.lmu.ifi.dbs.elki.utilities.optionhandling.parameterization.Parameterization" target="_parent">
<polygon fill="#fffacd" stroke="transparent" points="0,0 0,-28 75,-28 75,0 0,0"/>
<polygon fill="none" stroke="#000000" points=".5,0 .5,-28 75.5,-28 75.5,0 .5,0"/>
<text text-anchor="start" x="16.5" y="-17.6" font-family="Roboto" font-size="8.00" fill="#000000"> «interface» </text>
<text text-anchor="start" x="4.5" y="-7.6" font-family="Roboto" font-size="8.00" fill="#000000"> </text>
<text text-anchor="start" x="7.5" y="-7.6" font-family="Roboto" font-size="8.00" fill="#000000">Parameterization</text>
<text text-anchor="start" x="68.5" y="-7.6" font-family="Roboto" font-size="8.00" fill="#000000"> </text>
</a>
</g>
</a>
</g>
</g>
<!-- c6891505 -->
<g id="node4" class="node">
<title>c6891505</title>
<g id="a_node4"><a xlink:href="MergedParameterization.html" xlink:title="&lt;TABLE&gt;">
<g id="a_node4_3"><a xlink:href="MergedParameterization.html" xlink:title="de.lmu.ifi.dbs.elki.utilities.optionhandling.parameterization.MergedParameterization" target="_parent">
<polygon fill="#fffacd" stroke="transparent" points="93,-5.5 93,-22.5 195,-22.5 195,-5.5 93,-5.5"/>
<polygon fill="none" stroke="#000000" points="93,-5 93,-22 195,-22 195,-5 93,-5"/>
<text text-anchor="start" x="97" y="-12.6" font-family="Roboto" font-size="8.00" fill="#000000"> </text>
<text text-anchor="start" x="100" y="-12.6" font-family="Roboto" font-size="8.00" fill="#000000">MergedParameterization</text>
<text text-anchor="start" x="188" y="-12.6" font-family="Roboto" font-size="8.00" fill="#000000"> </text>
</a>
</g>
</a>
</g>
</g>
<!-- c6891502&#45;&gt;c6891505 -->
<g id="edge1" class="edge">
<title>c6891502&#45;&gt;c6891505</title>
<path fill="none" stroke="#000000" stroke-dasharray="5,2" d="M85.2295,-14C87.743,-14 90.2731,-14 92.7971,-14"/>
<polygon fill="none" stroke="#000000" points="85.048,-10.5001 75.0479,-14 85.0479,-17.5001 85.048,-10.5001"/>
</g>
<!-- c6891505&#45;&gt;c6891500 -->
<g id="edge3" class="edge">
<title>c6891505&#45;&gt;c6891500</title>
<path fill="none" stroke="#000000" d="M195.3118,-19.9294C197.7566,-20.2119 200.2139,-20.4958 202.6651,-20.7791"/>
<polygon fill="#000000" stroke="#000000" points="212.6598,-21.934 202.2093,-25.2563 207.6928,-21.36 202.7259,-20.786 202.7259,-20.786 202.7259,-20.786 207.6928,-21.36 203.2425,-16.3158 212.6598,-21.934 212.6598,-21.934"/>
</g>
<!-- c6891505&#45;&gt;c6891501 -->
<g id="edge4" class="edge">
<title>c6891505&#45;&gt;c6891501</title>
<path fill="none" stroke="#000000" d="M195.2437,-13.1748C201.2297,-13.1029 207.2495,-13.0417 213,-13 251.6657,-12.7198 261.334,-12.7803 300,-13 302.5401,-13.0144 305.1213,-13.0312 307.7278,-13.05"/>
<polygon fill="#000000" stroke="#000000" points="317.8717,-13.1313 307.8359,-17.5509 312.8719,-13.0912 307.872,-13.051 307.872,-13.051 307.872,-13.051 312.8719,-13.0912 307.9082,-8.5512 317.8717,-13.1313 317.8717,-13.1313"/>
<text text-anchor="middle" x="315.8717" y="-7.5313" font-family="Roboto" font-size="7.00" fill="#000000">*</text>
</g>
</g>
</svg>
