<?xml version="1.0" encoding="UTF-8" standalone="no"?><svg xmlns="http://www.w3.org/2000/svg" xmlns:xlink="http://www.w3.org/1999/xlink" contentStyleType="text/css" height="285px" preserveAspectRatio="none" style="width:438px;height:285px;background:#FFFFFF;" version="1.1" viewBox="0 0 438 285" width="438px" zoomAndPan="magnify"><defs/><g><!--MD5=[fac719e7c52bdc4d218d7a297c826bd6]
class elki.clustering.BetulaLeafPreClustering--><a href="BetulaLeafPreClustering.html" target="_top" title="BetulaLeafPreClustering.html" xlink:actuate="onRequest" xlink:href="BetulaLeafPreClustering.html" xlink:show="new" xlink:title="BetulaLeafPreClustering.html" xlink:type="simple"><g id="elem_elki.clustering.BetulaLeafPreClustering"><rect codeLine="6" fill="#F1F1F1" height="151.7188" id="elki.clustering.BetulaLeafPreClustering" rx="2.5" ry="2.5" style="stroke:#181818;stroke-width:0.5;" width="422" x="9" y="108"/><ellipse cx="133.25" cy="126.9688" fill="#ADD1B2" rx="11" ry="11" style="stroke:#181818;stroke-width:1.0;"/><path d="M136.2188,132.6094 Q135.6406,132.9063 135,133.0469 Q134.3594,133.2031 133.6563,133.2031 Q131.1563,133.2031 129.8281,131.5625 Q128.5156,129.9063 128.5156,126.7813 Q128.5156,123.6563 129.8281,122 Q131.1563,120.3438 133.6563,120.3438 Q134.3594,120.3438 135,120.5 Q135.6563,120.6563 136.2188,120.9531 L136.2188,123.6719 Q135.5938,123.0938 135,122.8281 Q134.4063,122.5469 133.7813,122.5469 Q132.4375,122.5469 131.75,123.625 Q131.0625,124.6875 131.0625,126.7813 Q131.0625,128.875 131.75,129.9531 Q132.4375,131.0156 133.7813,131.0156 Q134.4063,131.0156 135,130.75 Q135.5938,130.4688 136.2188,129.8906 L136.2188,132.6094 Z " fill="#000000"/><text fill="#000000" font-family="sans-serif" font-size="14" lengthAdjust="spacing" textLength="165" x="153.75" y="125.9951">BetulaLeafPreClustering</text><text fill="#000000" font-family="sans-serif" font-size="10" lengthAdjust="spacing" textLength="64" x="204.25" y="138.5791">elki.clustering</text><line style="stroke:#181818;stroke-width:0.5;" x1="10" x2="430" y1="145.9375" y2="145.9375"/><rect fill="none" height="6" style="stroke:#C82930;stroke-width:1.0;" width="6" x="17" y="156.5859"/><text fill="#000000" font-family="sans-serif" font-size="14" lengthAdjust="spacing" text-decoration="underline" textLength="93" x="29" y="162.9326">LOG: Logging</text><polygon fill="none" points="20,171.8828,16,177.8828,24,177.8828" style="stroke:#1963A0;stroke-width:1.0;"/><text fill="#000000" font-family="sans-serif" font-size="14" lengthAdjust="spacing" textLength="148" x="29" y="179.2295">cffactory: Factory&lt;?&gt;</text><polygon fill="none" points="20,188.1797,16,194.1797,24,194.1797" style="stroke:#1963A0;stroke-width:1.0;"/><text fill="#000000" font-family="sans-serif" font-size="14" lengthAdjust="spacing" textLength="121" x="29" y="195.5264">storeIds: boolean</text><line style="stroke:#181818;stroke-width:0.5;" x1="10" x2="430" y1="202.8281" y2="202.8281"/><ellipse cx="20" cy="216.4766" fill="#84BE84" rx="3" ry="3" style="stroke:#038048;stroke-width:1.0;"/><text fill="#000000" font-family="sans-serif" font-size="14" lengthAdjust="spacing" textLength="320" x="29" y="219.8232">BetulaLeafPreClustering(Factory&lt;?&gt;, boolean)</text><ellipse cx="20" cy="232.7734" fill="#84BE84" rx="3" ry="3" style="stroke:#038048;stroke-width:1.0;"/><text fill="#000000" font-family="sans-serif" font-size="14" lengthAdjust="spacing" textLength="306" x="29" y="236.1201">getInputTypeRestriction(): TypeInformation[]</text><ellipse cx="20" cy="249.0703" fill="#84BE84" rx="3" ry="3" style="stroke:#038048;stroke-width:1.0;"/><text fill="#000000" font-family="sans-serif" font-size="14" lengthAdjust="spacing" textLength="396" x="29" y="252.417">run(Relation&lt;NumberVector&gt;): Clustering&lt;MeanModel&gt;</text></g></a><!--MD5=[4fc33484231348e70db2dde04bb5858c]
class elki.clustering.ClusteringAlgorithm--><a href="ClusteringAlgorithm.html" target="_top" title="ClusteringAlgorithm.html" xlink:actuate="onRequest" xlink:href="ClusteringAlgorithm.html" xlink:show="new" xlink:title="ClusteringAlgorithm.html" xlink:type="simple"><g id="elem_elki.clustering.ClusteringAlgorithm"><rect codeLine="15" fill="#F1F1F1" height="37.9375" id="elki.clustering.ClusteringAlgorithm" rx="2.5" ry="2.5" style="stroke:#181818;stroke-width:0.5;" width="322" x="59" y="10"/><ellipse cx="74" cy="28.9688" fill="#B4A7E5" rx="11" ry="11" style="stroke:#181818;stroke-width:1.0;"/><path d="M69.9219,24.7344 L69.9219,22.5781 L77.3125,22.5781 L77.3125,24.7344 L74.8438,24.7344 L74.8438,32.8125 L77.3125,32.8125 L77.3125,34.9688 L69.9219,34.9688 L69.9219,32.8125 L72.3906,32.8125 L72.3906,24.7344 L69.9219,24.7344 Z " fill="#000000"/><text fill="#000000" font-family="sans-serif" font-size="14" font-style="italic" lengthAdjust="spacing" textLength="140" x="88" y="27.9951">ClusteringAlgorithm</text><text fill="#000000" font-family="sans-serif" font-size="10" font-style="italic" lengthAdjust="spacing" textLength="70" x="123" y="40.5791">elki.clustering</text><rect fill="#FFFFFF" height="15.9688" style="stroke:#181818;stroke-width:1.0;stroke-dasharray:2.0,2.0;" width="148" x="236" y="7"/><text fill="#000000" font-family="sans-serif" font-size="12" font-style="italic" lengthAdjust="spacing" textLength="146" x="237" y="19.1387">Clustering&lt;MeanModel&gt;</text></g></a><!--MD5=[4cfb0b207858d7a08d73a584d201527b]
reverse link elki.clustering.ClusteringAlgorithm to elki.clustering.BetulaLeafPreClustering--><g id="link_elki.clustering.ClusteringAlgorithm_elki.clustering.BetulaLeafPreClustering"><path codeLine="18" d="M220,68.26 C220,80.35 220,94.17 220,107.93 " fill="none" id="elki.clustering.ClusteringAlgorithm-backto-elki.clustering.BetulaLeafPreClustering" style="stroke:#181818;stroke-width:1.0;stroke-dasharray:7.0,7.0;"/><polygon fill="none" points="213,68.15,220,48.15,227,68.15,213,68.15" style="stroke:#181818;stroke-width:1.0;"/></g><rect fill="none" height="11.6406" style="stroke:none;stroke-width:1.0;" width="186" x="119" y="265.7188"/><text fill="#888888" font-family="sans-serif" font-size="10" lengthAdjust="spacing" textLength="186" x="119" y="275.001">UMLDoclet 2.0.19, PlantUML 1.2022.8</text><!--MD5=[a275837c9ff7cd018a91983e92b45bf9]
@startuml
    remove .*\.(Instance|Par|Parameterizer|Factory)$
    set namespaceSeparator none
    hide empty fields
    hide empty methods

    class "<size:14>BetulaLeafPreClustering\n<size:10>elki.clustering" as elki.clustering.BetulaLeafPreClustering [[BetulaLeafPreClustering.html]] {
        {static} -LOG: Logging
        ~cffactory: Factory<?>
        ~storeIds: boolean
        +BetulaLeafPreClustering(Factory<?>, boolean)
        +getInputTypeRestriction(): TypeInformation[]
        +run(Relation<NumberVector>): Clustering<MeanModel>
    }

    interface "<size:14>ClusteringAlgorithm\n<size:10>elki.clustering" as elki.clustering.ClusteringAlgorithm<Clustering<MeanModel>> [[ClusteringAlgorithm.html]]
    class "<size:14>BetulaLeafPreClustering.Par\n<size:10>elki.clustering" as elki.clustering.BetulaLeafPreClustering.Par [[BetulaLeafPreClustering.Par.html]]

    elki.clustering.ClusteringAlgorithm <|.. elki.clustering.BetulaLeafPreClustering
    elki.clustering.BetulaLeafPreClustering +- - elki.clustering.BetulaLeafPreClustering.Par

    center footer UMLDoclet 2.0.19, PlantUML 1.2022.8
@enduml

PlantUML version 1.2022.8(Sun Sep 25 11:00:33 CEST 2022)
(APACHE source distribution)
Java Runtime: OpenJDK Runtime Environment
JVM: OpenJDK 64-Bit Server VM
Default Encoding: UTF-8
Language: de
Country: DE
--></g></svg>