<?xml version="1.0" encoding="UTF-8" standalone="no"?><svg xmlns="http://www.w3.org/2000/svg" xmlns:xlink="http://www.w3.org/1999/xlink" contentStyleType="text/css" height="606px" preserveAspectRatio="none" style="width:3750px;height:606px;background:#FFFFFF;" version="1.1" viewBox="0 0 3750 606" width="3750px" zoomAndPan="magnify"><defs/><g><!--MD5=[5a16a86ac2d7d394fc35a681d34e2667]
cluster elki.clustering--><g id="cluster_elki.clustering"><path d="M8.5,162 L120.5,162 A3.75,3.75 0 0 1 123,164.5 L130,184.2969 L3740.5,184.2969 A2.5,2.5 0 0 1 3743,186.7969 L3743,578.5 A2.5,2.5 0 0 1 3740.5,581 L8.5,581 A2.5,2.5 0 0 1 6,578.5 L6,164.5 A2.5,2.5 0 0 1 8.5,162 " fill="none" style="stroke:#000000;stroke-width:1.5;"/><line style="stroke:#000000;stroke-width:1.5;" x1="6" x2="130" y1="184.2969" y2="184.2969"/><text fill="#000000" font-family="sans-serif" font-size="14" font-weight="bold" lengthAdjust="spacing" textLength="111" x="10" y="176.9951">elki.clustering</text></g><!--MD5=[160e40e4de9325fe07c8e87e0e7695ed]
cluster elki--><g id="cluster_elki"><path d="M1992.5,6 L2020.5,6 A3.75,3.75 0 0 1 2023,8.5 L2030,28.2969 L2361.5,28.2969 A2.5,2.5 0 0 1 2364,30.7969 L2364,135.5 A2.5,2.5 0 0 1 2361.5,138 L1992.5,138 A2.5,2.5 0 0 1 1990,135.5 L1990,8.5 A2.5,2.5 0 0 1 1992.5,6 " fill="none" style="stroke:#000000;stroke-width:1.5;"/><line style="stroke:#000000;stroke-width:1.5;" x1="1990" x2="2030" y1="28.2969" y2="28.2969"/><text fill="#000000" font-family="sans-serif" font-size="14" font-weight="bold" lengthAdjust="spacing" textLength="27" x="1994" y="20.9951">elki</text></g><!--MD5=[f919e714e23a9246a68a37f035bac851]
class elki.clustering.NaiveMeanShiftClustering--><a href="NaiveMeanShiftClustering.html" target="_top" title="NaiveMeanShiftClustering.html" xlink:actuate="onRequest" xlink:href="NaiveMeanShiftClustering.html" xlink:show="new" xlink:title="NaiveMeanShiftClustering.html" xlink:type="simple"><g id="elem_elki.clustering.NaiveMeanShiftClustering"><rect codeLine="4" fill="#F1F1F1" height="178.375" id="elki.clustering.NaiveMeanShiftClustering" rx="2.5" ry="2.5" style="stroke:#181818;stroke-width:0.5;" width="771" x="21.5" y="354"/><ellipse cx="238.25" cy="370" fill="#ADD1B2" rx="11" ry="11" style="stroke:#181818;stroke-width:1.0;"/><path d="M241.2188,375.6406 Q240.6406,375.9375 240,376.0781 Q239.3594,376.2344 238.6563,376.2344 Q236.1563,376.2344 234.8281,374.5938 Q233.5156,372.9375 233.5156,369.8125 Q233.5156,366.6875 234.8281,365.0313 Q236.1563,363.375 238.6563,363.375 Q239.3594,363.375 240,363.5313 Q240.6563,363.6875 241.2188,363.9844 L241.2188,366.7031 Q240.5938,366.125 240,365.8594 Q239.4063,365.5781 238.7813,365.5781 Q237.4375,365.5781 236.75,366.6563 Q236.0625,367.7188 236.0625,369.8125 Q236.0625,371.9063 236.75,372.9844 Q237.4375,374.0469 238.7813,374.0469 Q239.4063,374.0469 240,373.7813 Q240.5938,373.5 241.2188,372.9219 L241.2188,375.6406 Z " fill="#000000"/><text fill="#000000" font-family="sans-serif" font-size="14" lengthAdjust="spacing" textLength="175" x="258.75" y="374.8467">NaiveMeanShiftClustering</text><rect fill="#FFFFFF" height="15.9688" style="stroke:#181818;stroke-width:1.0;stroke-dasharray:2.0,2.0;" width="152" x="643.5" y="351"/><text fill="#000000" font-family="sans-serif" font-size="12" font-style="italic" lengthAdjust="spacing" textLength="150" x="644.5" y="363.1387">V extends NumberVector</text><line style="stroke:#181818;stroke-width:0.5;" x1="22.5" x2="791.5" y1="386" y2="386"/><rect fill="none" height="6" style="stroke:#C82930;stroke-width:1.0;" width="6" x="29.5" y="396.6484"/><text fill="#000000" font-family="sans-serif" font-size="14" lengthAdjust="spacing" text-decoration="underline" textLength="93" x="41.5" y="402.9951">LOG: Logging</text><polygon fill="none" points="32.5,410.9453,36.5,414.9453,32.5,418.9453,28.5,414.9453" style="stroke:#B38D22;stroke-width:1.0;"/><text fill="#000000" font-family="sans-serif" font-size="14" lengthAdjust="spacing" textLength="408" x="41.5" y="419.292">distance: NumberVectorDistance&lt;? super NumberVector&gt;</text><polygon fill="none" points="32.5,427.2422,36.5,431.2422,32.5,435.2422,28.5,431.2422" style="stroke:#B38D22;stroke-width:1.0;"/><text fill="#000000" font-family="sans-serif" font-size="14" lengthAdjust="spacing" textLength="208" x="41.5" y="435.5889">kernel: KernelDensityFunction</text><polygon fill="none" points="32.5,443.5391,36.5,447.5391,32.5,451.5391,28.5,447.5391" style="stroke:#B38D22;stroke-width:1.0;"/><text fill="#000000" font-family="sans-serif" font-size="14" lengthAdjust="spacing" textLength="129" x="41.5" y="451.8857">bandwidth: double</text><polygon fill="none" points="32.5,459.8359,36.5,463.8359,32.5,467.8359,28.5,463.8359" style="stroke:#B38D22;stroke-width:1.0;"/><text fill="#000000" font-family="sans-serif" font-size="14" lengthAdjust="spacing" text-decoration="underline" textLength="89" x="41.5" y="468.1826">MAXITER: int</text><line style="stroke:#181818;stroke-width:0.5;" x1="22.5" x2="791.5" y1="475.4844" y2="475.4844"/><ellipse cx="32.5" cy="489.1328" fill="#84BE84" rx="3" ry="3" style="stroke:#038048;stroke-width:1.0;"/><text fill="#000000" font-family="sans-serif" font-size="14" lengthAdjust="spacing" textLength="745" x="41.5" y="492.4795">NaiveMeanShiftClustering(NumberVectorDistance&lt;? super NumberVector&gt;, KernelDensityFunction, double)</text><ellipse cx="32.5" cy="505.4297" fill="#84BE84" rx="3" ry="3" style="stroke:#038048;stroke-width:1.0;"/><text fill="#000000" font-family="sans-serif" font-size="14" lengthAdjust="spacing" textLength="306" x="41.5" y="508.7764">getInputTypeRestriction(): TypeInformation[]</text><ellipse cx="32.5" cy="521.7266" fill="#84BE84" rx="3" ry="3" style="stroke:#038048;stroke-width:1.0;"/><text fill="#000000" font-family="sans-serif" font-size="14" lengthAdjust="spacing" textLength="469" x="41.5" y="525.0732">run(Relation&lt;V extends NumberVector&gt;): Clustering&lt;MeanModel&gt;</text></g></a><!--MD5=[4fc33484231348e70db2dde04bb5858c]
class elki.clustering.ClusteringAlgorithm--><a href="ClusteringAlgorithm.html" target="_top" title="ClusteringAlgorithm.html" xlink:actuate="onRequest" xlink:href="ClusteringAlgorithm.html" xlink:show="new" xlink:title="ClusteringAlgorithm.html" xlink:type="simple"><g id="elem_elki.clustering.ClusteringAlgorithm"><rect codeLine="25" fill="#F1F1F1" height="64.2969" id="elki.clustering.ClusteringAlgorithm" rx="2.5" ry="2.5" style="stroke:#181818;stroke-width:0.5;" width="446" x="1954" y="197"/><ellipse cx="1982.95" cy="213" fill="#B4A7E5" rx="11" ry="11" style="stroke:#181818;stroke-width:1.0;"/><path d="M1978.8719,208.7656 L1978.8719,206.6094 L1986.2625,206.6094 L1986.2625,208.7656 L1983.7938,208.7656 L1983.7938,216.8438 L1986.2625,216.8438 L1986.2625,219 L1978.8719,219 L1978.8719,216.8438 L1981.3406,216.8438 L1981.3406,208.7656 L1978.8719,208.7656 Z " fill="#000000"/><text fill="#000000" font-family="sans-serif" font-size="14" font-style="italic" lengthAdjust="spacing" textLength="140" x="2000.05" y="217.8467">ClusteringAlgorithm</text><rect fill="#FFFFFF" height="15.9688" style="stroke:#181818;stroke-width:1.0;stroke-dasharray:2.0,2.0;" width="241" x="2162" y="194"/><text fill="#000000" font-family="sans-serif" font-size="12" font-style="italic" lengthAdjust="spacing" textLength="239" x="2163" y="206.1387">C extends Clustering&lt;? extends Model&gt;</text><line style="stroke:#181818;stroke-width:0.5;" x1="1955" x2="2399" y1="229" y2="229"/><line style="stroke:#181818;stroke-width:0.5;" x1="1955" x2="2399" y1="237" y2="237"/><ellipse cx="1965" cy="250.6484" fill="#84BE84" rx="3" ry="3" style="stroke:#038048;stroke-width:1.0;"/><text fill="#000000" font-family="sans-serif" font-size="14" lengthAdjust="spacing" textLength="420" x="1974" y="253.9951">autorun(Database): C extends Clustering&lt;? extends Model&gt;</text></g></a><!--MD5=[feac879035275046540743f3eb2ab8c0]
class elki.clustering.SNNClustering--><a href="SNNClustering.html" target="_top" title="SNNClustering.html" xlink:actuate="onRequest" xlink:href="SNNClustering.html" xlink:show="new" xlink:title="SNNClustering.html" xlink:type="simple"><g id="elem_elki.clustering.SNNClustering"><rect codeLine="29" fill="#F1F1F1" height="243.5625" id="elki.clustering.SNNClustering" rx="2.5" ry="2.5" style="stroke:#181818;stroke-width:0.5;" width="614" x="827" y="321"/><ellipse cx="1074.25" cy="337" fill="#ADD1B2" rx="11" ry="11" style="stroke:#181818;stroke-width:1.0;"/><path d="M1077.2188,342.6406 Q1076.6406,342.9375 1076,343.0781 Q1075.3594,343.2344 1074.6563,343.2344 Q1072.1563,343.2344 1070.8281,341.5938 Q1069.5156,339.9375 1069.5156,336.8125 Q1069.5156,333.6875 1070.8281,332.0313 Q1072.1563,330.375 1074.6563,330.375 Q1075.3594,330.375 1076,330.5313 Q1076.6563,330.6875 1077.2188,330.9844 L1077.2188,333.7031 Q1076.5938,333.125 1076,332.8594 Q1075.4063,332.5781 1074.7813,332.5781 Q1073.4375,332.5781 1072.75,333.6563 Q1072.0625,334.7188 1072.0625,336.8125 Q1072.0625,338.9063 1072.75,339.9844 Q1073.4375,341.0469 1074.7813,341.0469 Q1075.4063,341.0469 1076,340.7813 Q1076.5938,340.5 1077.2188,339.9219 L1077.2188,342.6406 Z " fill="#000000"/><text fill="#000000" font-family="sans-serif" font-size="14" lengthAdjust="spacing" textLength="99" x="1094.75" y="341.8467">SNNClustering</text><rect fill="#FFFFFF" height="15.9688" style="stroke:#181818;stroke-width:1.0;stroke-dasharray:2.0,2.0;" width="10" x="1434" y="318"/><text fill="#000000" font-family="sans-serif" font-size="12" font-style="italic" lengthAdjust="spacing" textLength="8" x="1435" y="330.1387">O</text><line style="stroke:#181818;stroke-width:0.5;" x1="828" x2="1440" y1="353" y2="353"/><rect fill="none" height="6" style="stroke:#C82930;stroke-width:1.0;" width="6" x="835" y="363.6484"/><text fill="#000000" font-family="sans-serif" font-size="14" lengthAdjust="spacing" text-decoration="underline" textLength="93" x="847" y="369.9951">LOG: Logging</text><rect fill="none" height="6" style="stroke:#C82930;stroke-width:1.0;" width="6" x="835" y="379.9453"/><text fill="#000000" font-family="sans-serif" font-size="14" lengthAdjust="spacing" textLength="76" x="847" y="386.292">epsilon: int</text><rect fill="none" height="6" style="stroke:#C82930;stroke-width:1.0;" width="6" x="835" y="396.2422"/><text fill="#000000" font-family="sans-serif" font-size="14" lengthAdjust="spacing" textLength="73" x="847" y="402.5889">minpts: int</text><polygon fill="none" points="838,410.5391,842,414.5391,838,418.5391,834,414.5391" style="stroke:#B38D22;stroke-width:1.0;"/><text fill="#000000" font-family="sans-serif" font-size="14" lengthAdjust="spacing" textLength="230" x="847" y="418.8857">resultList: List&lt;ModifiableDBIDs&gt;</text><polygon fill="none" points="838,426.8359,842,430.8359,838,434.8359,834,430.8359" style="stroke:#B38D22;stroke-width:1.0;"/><text fill="#000000" font-family="sans-serif" font-size="14" lengthAdjust="spacing" textLength="159" x="847" y="435.1826">noise: ModifiableDBIDs</text><polygon fill="none" points="838,443.1328,842,447.1328,838,451.1328,834,447.1328" style="stroke:#B38D22;stroke-width:1.0;"/><text fill="#000000" font-family="sans-serif" font-size="14" lengthAdjust="spacing" textLength="217" x="847" y="451.4795">processedIDs: ModifiableDBIDs</text><rect fill="none" height="6" style="stroke:#C82930;stroke-width:1.0;" width="6" x="835" y="461.4297"/><text fill="#000000" font-family="sans-serif" font-size="14" lengthAdjust="spacing" textLength="387" x="847" y="467.7764">similarityFunction: SharedNearestNeighborSimilarity&lt;O&gt;</text><line style="stroke:#181818;stroke-width:0.5;" x1="828" x2="1440" y1="475.0781" y2="475.0781"/><ellipse cx="838" cy="488.7266" fill="#84BE84" rx="3" ry="3" style="stroke:#038048;stroke-width:1.0;"/><text fill="#000000" font-family="sans-serif" font-size="14" lengthAdjust="spacing" textLength="419" x="847" y="492.0732">SNNClustering(SharedNearestNeighborSimilarity&lt;O&gt;, int, int)</text><ellipse cx="838" cy="505.0234" fill="#84BE84" rx="3" ry="3" style="stroke:#038048;stroke-width:1.0;"/><text fill="#000000" font-family="sans-serif" font-size="14" lengthAdjust="spacing" textLength="306" x="847" y="508.3701">getInputTypeRestriction(): TypeInformation[]</text><ellipse cx="838" cy="521.3203" fill="#84BE84" rx="3" ry="3" style="stroke:#038048;stroke-width:1.0;"/><text fill="#000000" font-family="sans-serif" font-size="14" lengthAdjust="spacing" textLength="269" x="847" y="524.667">run(Relation&lt;O&gt;): Clustering&lt;Model&gt;</text><polygon fill="#FFFF44" points="838,532.6172,842,536.6172,838,540.6172,834,536.6172" style="stroke:#B38D22;stroke-width:1.0;"/><text fill="#000000" font-family="sans-serif" font-size="14" lengthAdjust="spacing" textLength="491" x="847" y="540.9639">findSNNNeighbors(SimilarityQuery&lt;O&gt;, DBIDRef): ArrayModifiableDBIDs</text><polygon fill="#FFFF44" points="838,548.9141,842,552.9141,838,556.9141,834,552.9141" style="stroke:#B38D22;stroke-width:1.0;"/><text fill="#000000" font-family="sans-serif" font-size="14" lengthAdjust="spacing" textLength="588" x="847" y="557.2607">expandCluster(SimilarityQuery&lt;O&gt;, DBIDRef, FiniteProgress, IndefiniteProgress): void</text></g></a><!--MD5=[599ef6717ee5668b6929fabefb7c8a5a]
class elki.clustering.CFSFDP--><a href="CFSFDP.html" target="_top" title="CFSFDP.html" xlink:actuate="onRequest" xlink:href="CFSFDP.html" xlink:show="new" xlink:title="CFSFDP.html" xlink:type="simple"><g id="elem_elki.clustering.CFSFDP"><rect codeLine="54" fill="#F1F1F1" height="162.0781" id="elki.clustering.CFSFDP" rx="2.5" ry="2.5" style="stroke:#181818;stroke-width:0.5;" width="467" x="1476.5" y="362"/><ellipse cx="1672.25" cy="378" fill="#ADD1B2" rx="11" ry="11" style="stroke:#181818;stroke-width:1.0;"/><path d="M1675.2188,383.6406 Q1674.6406,383.9375 1674,384.0781 Q1673.3594,384.2344 1672.6563,384.2344 Q1670.1563,384.2344 1668.8281,382.5938 Q1667.5156,380.9375 1667.5156,377.8125 Q1667.5156,374.6875 1668.8281,373.0313 Q1670.1563,371.375 1672.6563,371.375 Q1673.3594,371.375 1674,371.5313 Q1674.6563,371.6875 1675.2188,371.9844 L1675.2188,374.7031 Q1674.5938,374.125 1674,373.8594 Q1673.4063,373.5781 1672.7813,373.5781 Q1671.4375,373.5781 1670.75,374.6563 Q1670.0625,375.7188 1670.0625,377.8125 Q1670.0625,379.9063 1670.75,380.9844 Q1671.4375,382.0469 1672.7813,382.0469 Q1673.4063,382.0469 1674,381.7813 Q1674.5938,381.5 1675.2188,380.9219 L1675.2188,383.6406 Z " fill="#000000"/><text fill="#000000" font-family="sans-serif" font-size="14" lengthAdjust="spacing" textLength="55" x="1692.75" y="382.8467">CFSFDP</text><rect fill="#FFFFFF" height="15.9688" style="stroke:#181818;stroke-width:1.0;stroke-dasharray:2.0,2.0;" width="10" x="1936.5" y="359"/><text fill="#000000" font-family="sans-serif" font-size="12" font-style="italic" lengthAdjust="spacing" textLength="8" x="1937.5" y="371.1387">O</text><line style="stroke:#181818;stroke-width:0.5;" x1="1477.5" x2="1942.5" y1="394" y2="394"/><rect fill="none" height="6" style="stroke:#C82930;stroke-width:1.0;" width="6" x="1484.5" y="404.6484"/><text fill="#000000" font-family="sans-serif" font-size="14" lengthAdjust="spacing" text-decoration="underline" textLength="93" x="1496.5" y="410.9951">LOG: Logging</text><polygon fill="none" points="1487.5,418.9453,1491.5,422.9453,1487.5,426.9453,1483.5,422.9453" style="stroke:#B38D22;stroke-width:1.0;"/><text fill="#000000" font-family="sans-serif" font-size="14" lengthAdjust="spacing" textLength="219" x="1496.5" y="427.292">distance: Distance&lt;? super O&gt;</text><polygon fill="none" points="1487.5,435.2422,1491.5,439.2422,1487.5,443.2422,1483.5,439.2422" style="stroke:#B38D22;stroke-width:1.0;"/><text fill="#000000" font-family="sans-serif" font-size="14" lengthAdjust="spacing" textLength="74" x="1496.5" y="443.5889">dc: double</text><polygon fill="none" points="1487.5,451.5391,1491.5,455.5391,1487.5,459.5391,1483.5,455.5391" style="stroke:#B38D22;stroke-width:1.0;"/><text fill="#000000" font-family="sans-serif" font-size="14" lengthAdjust="spacing" textLength="34" x="1496.5" y="459.8857">k: int</text><line style="stroke:#181818;stroke-width:0.5;" x1="1477.5" x2="1942.5" y1="467.1875" y2="467.1875"/><polygon fill="#FFFF44" points="1487.5,475.8359,1491.5,479.8359,1487.5,483.8359,1483.5,479.8359" style="stroke:#B38D22;stroke-width:1.0;"/><text fill="#000000" font-family="sans-serif" font-size="14" lengthAdjust="spacing" textLength="297" x="1496.5" y="484.1826">CFSFDP(Distance&lt;? super O&gt;, double, int)</text><ellipse cx="1487.5" cy="497.1328" fill="#84BE84" rx="3" ry="3" style="stroke:#038048;stroke-width:1.0;"/><text fill="#000000" font-family="sans-serif" font-size="14" lengthAdjust="spacing" textLength="306" x="1496.5" y="500.4795">getInputTypeRestriction(): TypeInformation[]</text><ellipse cx="1487.5" cy="513.4297" fill="#84BE84" rx="3" ry="3" style="stroke:#038048;stroke-width:1.0;"/><text fill="#000000" font-family="sans-serif" font-size="14" lengthAdjust="spacing" textLength="441" x="1496.5" y="516.7764">run(Relation&lt;O&gt;): Clustering&lt;SimplePrototypeModel&lt;DBID&gt;&gt;</text></g></a><!--MD5=[8504e2e98aaf1846673bfe7c33dc49ec]
class elki.clustering.Leader--><a href="Leader.html" target="_top" title="Leader.html" xlink:actuate="onRequest" xlink:href="Leader.html" xlink:show="new" xlink:title="Leader.html" xlink:type="simple"><g id="elem_elki.clustering.Leader"><rect codeLine="74" fill="#F1F1F1" height="145.7813" id="elki.clustering.Leader" rx="2.5" ry="2.5" style="stroke:#181818;stroke-width:0.5;" width="397" x="1978.5" y="370"/><ellipse cx="2143.25" cy="386" fill="#ADD1B2" rx="11" ry="11" style="stroke:#181818;stroke-width:1.0;"/><path d="M2146.2188,391.6406 Q2145.6406,391.9375 2145,392.0781 Q2144.3594,392.2344 2143.6563,392.2344 Q2141.1563,392.2344 2139.8281,390.5938 Q2138.5156,388.9375 2138.5156,385.8125 Q2138.5156,382.6875 2139.8281,381.0313 Q2141.1563,379.375 2143.6563,379.375 Q2144.3594,379.375 2145,379.5313 Q2145.6563,379.6875 2146.2188,379.9844 L2146.2188,382.7031 Q2145.5938,382.125 2145,381.8594 Q2144.4063,381.5781 2143.7813,381.5781 Q2142.4375,381.5781 2141.75,382.6563 Q2141.0625,383.7188 2141.0625,385.8125 Q2141.0625,387.9063 2141.75,388.9844 Q2142.4375,390.0469 2143.7813,390.0469 Q2144.4063,390.0469 2145,389.7813 Q2145.5938,389.5 2146.2188,388.9219 L2146.2188,391.6406 Z " fill="#000000"/><text fill="#000000" font-family="sans-serif" font-size="14" lengthAdjust="spacing" textLength="47" x="2163.75" y="390.8467">Leader</text><rect fill="#FFFFFF" height="15.9688" style="stroke:#181818;stroke-width:1.0;stroke-dasharray:2.0,2.0;" width="10" x="2368.5" y="367"/><text fill="#000000" font-family="sans-serif" font-size="12" font-style="italic" lengthAdjust="spacing" textLength="8" x="2369.5" y="379.1387">O</text><line style="stroke:#181818;stroke-width:0.5;" x1="1979.5" x2="2374.5" y1="402" y2="402"/><rect fill="none" height="6" style="stroke:#C82930;stroke-width:1.0;" width="6" x="1986.5" y="412.6484"/><text fill="#000000" font-family="sans-serif" font-size="14" lengthAdjust="spacing" text-decoration="underline" textLength="93" x="1998.5" y="418.9951">LOG: Logging</text><polygon fill="none" points="1989.5,426.9453,1993.5,430.9453,1989.5,434.9453,1985.5,430.9453" style="stroke:#B38D22;stroke-width:1.0;"/><text fill="#000000" font-family="sans-serif" font-size="14" lengthAdjust="spacing" textLength="219" x="1998.5" y="435.292">distance: Distance&lt;? super O&gt;</text><polygon fill="none" points="1989.5,443.2422,1993.5,447.2422,1989.5,451.2422,1985.5,447.2422" style="stroke:#B38D22;stroke-width:1.0;"/><text fill="#000000" font-family="sans-serif" font-size="14" lengthAdjust="spacing" textLength="123" x="1998.5" y="451.5889">threshold: double</text><line style="stroke:#181818;stroke-width:0.5;" x1="1979.5" x2="2374.5" y1="458.8906" y2="458.8906"/><ellipse cx="1989.5" cy="472.5391" fill="#84BE84" rx="3" ry="3" style="stroke:#038048;stroke-width:1.0;"/><text fill="#000000" font-family="sans-serif" font-size="14" lengthAdjust="spacing" textLength="264" x="1998.5" y="475.8857">Leader(Distance&lt;? super O&gt;, double)</text><ellipse cx="1989.5" cy="488.8359" fill="#84BE84" rx="3" ry="3" style="stroke:#038048;stroke-width:1.0;"/><text fill="#000000" font-family="sans-serif" font-size="14" lengthAdjust="spacing" textLength="306" x="1998.5" y="492.1826">getInputTypeRestriction(): TypeInformation[]</text><ellipse cx="1989.5" cy="505.1328" fill="#84BE84" rx="3" ry="3" style="stroke:#038048;stroke-width:1.0;"/><text fill="#000000" font-family="sans-serif" font-size="14" lengthAdjust="spacing" textLength="371" x="1998.5" y="508.4795">run(Relation&lt;O&gt;): Clustering&lt;PrototypeModel&lt;O&gt;&gt;</text></g></a><!--MD5=[63d495ed84ad769999667a091a4a1b7f]
class elki.clustering.AbstractProjectedClustering--><a href="AbstractProjectedClustering.html" target="_top" title="AbstractProjectedClustering.html" xlink:actuate="onRequest" xlink:href="AbstractProjectedClustering.html" xlink:show="new" xlink:title="AbstractProjectedClustering.html" xlink:type="simple"><g id="elem_elki.clustering.AbstractProjectedClustering"><rect codeLine="91" fill="#F1F1F1" height="113.1875" id="elki.clustering.AbstractProjectedClustering" rx="2.5" ry="2.5" style="stroke:#181818;stroke-width:0.5;" width="380" x="2411" y="386.5"/><ellipse cx="2426" cy="402.5" fill="#A9DCDF" rx="11" ry="11" style="stroke:#181818;stroke-width:1.0;"/><path d="M2426.1094,397.8438 L2424.9531,402.9219 L2427.2813,402.9219 L2426.1094,397.8438 Z M2424.625,395.6094 L2427.6094,395.6094 L2430.9688,408 L2428.5156,408 L2427.75,404.9375 L2424.4688,404.9375 L2423.7188,408 L2421.2813,408 L2424.625,395.6094 Z " fill="#000000"/><text fill="#000000" font-family="sans-serif" font-size="14" font-style="italic" lengthAdjust="spacing" textLength="195" x="2440" y="407.3467">AbstractProjectedClustering</text><rect fill="#FFFFFF" height="15.9688" style="stroke:#181818;stroke-width:1.0;stroke-dasharray:2.0,2.0;" width="151" x="2643" y="383.5"/><text fill="#000000" font-family="sans-serif" font-size="12" font-style="italic" lengthAdjust="spacing" textLength="149" x="2644" y="395.6387">R extends Clustering&lt;?&gt;</text><line style="stroke:#181818;stroke-width:0.5;" x1="2412" x2="2790" y1="418.5" y2="418.5"/><polygon fill="none" points="2422,427.1484,2426,431.1484,2422,435.1484,2418,431.1484" style="stroke:#B38D22;stroke-width:1.0;"/><text fill="#000000" font-family="sans-serif" font-size="14" lengthAdjust="spacing" textLength="34" x="2431" y="435.4951">k: int</text><polygon fill="none" points="2422,443.4453,2426,447.4453,2422,451.4453,2418,447.4453" style="stroke:#B38D22;stroke-width:1.0;"/><text fill="#000000" font-family="sans-serif" font-size="14" lengthAdjust="spacing" textLength="44" x="2431" y="451.792">k_i: int</text><polygon fill="none" points="2422,459.7422,2426,463.7422,2422,467.7422,2418,463.7422" style="stroke:#B38D22;stroke-width:1.0;"/><text fill="#000000" font-family="sans-serif" font-size="14" lengthAdjust="spacing" textLength="29" x="2431" y="468.0889">l: int</text><line style="stroke:#181818;stroke-width:0.5;" x1="2412" x2="2790" y1="475.3906" y2="475.3906"/><ellipse cx="2422" cy="489.0391" fill="#84BE84" rx="3" ry="3" style="stroke:#038048;stroke-width:1.0;"/><text fill="#000000" font-family="sans-serif" font-size="14" lengthAdjust="spacing" textLength="270" x="2431" y="492.3857">AbstractProjectedClustering(int, int, int)</text></g></a><!--MD5=[566c4726afe8bc5c621d631a75cd9266]
class elki.clustering.ClusteringAlgorithmUtil--><a href="ClusteringAlgorithmUtil.html" target="_top" title="ClusteringAlgorithmUtil.html" xlink:actuate="onRequest" xlink:href="ClusteringAlgorithmUtil.html" xlink:show="new" xlink:title="ClusteringAlgorithmUtil.html" xlink:type="simple"><g id="elem_elki.clustering.ClusteringAlgorithmUtil"><rect codeLine="107" fill="#F1F1F1" height="64.2969" id="elki.clustering.ClusteringAlgorithmUtil" rx="2.5" ry="2.5" style="stroke:#181818;stroke-width:0.5;" width="587" x="677.5" y="197"/><ellipse cx="888.75" cy="213" fill="#ADD1B2" rx="11" ry="11" style="stroke:#181818;stroke-width:1.0;"/><path d="M891.7188,218.6406 Q891.1406,218.9375 890.5,219.0781 Q889.8594,219.2344 889.1563,219.2344 Q886.6563,219.2344 885.3281,217.5938 Q884.0156,215.9375 884.0156,212.8125 Q884.0156,209.6875 885.3281,208.0313 Q886.6563,206.375 889.1563,206.375 Q889.8594,206.375 890.5,206.5313 Q891.1563,206.6875 891.7188,206.9844 L891.7188,209.7031 Q891.0938,209.125 890.5,208.8594 Q889.9063,208.5781 889.2813,208.5781 Q887.9375,208.5781 887.25,209.6563 Q886.5625,210.7188 886.5625,212.8125 Q886.5625,214.9063 887.25,215.9844 Q887.9375,217.0469 889.2813,217.0469 Q889.9063,217.0469 890.5,216.7813 Q891.0938,216.5 891.7188,215.9219 L891.7188,218.6406 Z " fill="#000000"/><text fill="#000000" font-family="sans-serif" font-size="14" lengthAdjust="spacing" textLength="156" x="909.25" y="217.8467">ClusteringAlgorithmUtil</text><line style="stroke:#181818;stroke-width:0.5;" x1="678.5" x2="1263.5" y1="229" y2="229"/><line style="stroke:#181818;stroke-width:0.5;" x1="678.5" x2="1263.5" y1="237" y2="237"/><ellipse cx="688.5" cy="250.6484" fill="#84BE84" rx="3" ry="3" style="stroke:#038048;stroke-width:1.0;"/><text fill="#000000" font-family="sans-serif" font-size="14" lengthAdjust="spacing" text-decoration="underline" textLength="561" x="697.5" y="253.9951">partitionsFromIntegerLabels(DBIDs, IntegerDataStore, int): ArrayModifiableDBIDs[]</text></g></a><!--MD5=[9330c3e920861212c5700937e7af3c9a]
class elki.clustering.CanopyPreClustering--><a href="CanopyPreClustering.html" target="_top" title="CanopyPreClustering.html" xlink:actuate="onRequest" xlink:href="CanopyPreClustering.html" xlink:show="new" xlink:title="CanopyPreClustering.html" xlink:type="simple"><g id="elem_elki.clustering.CanopyPreClustering"><rect codeLine="111" fill="#F1F1F1" height="162.0781" id="elki.clustering.CanopyPreClustering" rx="2.5" ry="2.5" style="stroke:#181818;stroke-width:0.5;" width="444" x="2826" y="362"/><ellipse cx="2965.25" cy="378" fill="#ADD1B2" rx="11" ry="11" style="stroke:#181818;stroke-width:1.0;"/><path d="M2968.2188,383.6406 Q2967.6406,383.9375 2967,384.0781 Q2966.3594,384.2344 2965.6563,384.2344 Q2963.1563,384.2344 2961.8281,382.5938 Q2960.5156,380.9375 2960.5156,377.8125 Q2960.5156,374.6875 2961.8281,373.0313 Q2963.1563,371.375 2965.6563,371.375 Q2966.3594,371.375 2967,371.5313 Q2967.6563,371.6875 2968.2188,371.9844 L2968.2188,374.7031 Q2967.5938,374.125 2967,373.8594 Q2966.4063,373.5781 2965.7813,373.5781 Q2964.4375,373.5781 2963.75,374.6563 Q2963.0625,375.7188 2963.0625,377.8125 Q2963.0625,379.9063 2963.75,380.9844 Q2964.4375,382.0469 2965.7813,382.0469 Q2966.4063,382.0469 2967,381.7813 Q2967.5938,381.5 2968.2188,380.9219 L2968.2188,383.6406 Z " fill="#000000"/><text fill="#000000" font-family="sans-serif" font-size="14" lengthAdjust="spacing" textLength="145" x="2985.75" y="382.8467">CanopyPreClustering</text><rect fill="#FFFFFF" height="15.9688" style="stroke:#181818;stroke-width:1.0;stroke-dasharray:2.0,2.0;" width="10" x="3263" y="359"/><text fill="#000000" font-family="sans-serif" font-size="12" font-style="italic" lengthAdjust="spacing" textLength="8" x="3264" y="371.1387">O</text><line style="stroke:#181818;stroke-width:0.5;" x1="2827" x2="3269" y1="394" y2="394"/><rect fill="none" height="6" style="stroke:#C82930;stroke-width:1.0;" width="6" x="2834" y="404.6484"/><text fill="#000000" font-family="sans-serif" font-size="14" lengthAdjust="spacing" text-decoration="underline" textLength="93" x="2846" y="410.9951">LOG: Logging</text><rect fill="none" height="6" style="stroke:#C82930;stroke-width:1.0;" width="6" x="2834" y="420.9453"/><text fill="#000000" font-family="sans-serif" font-size="14" lengthAdjust="spacing" textLength="219" x="2846" y="427.292">distance: Distance&lt;? super O&gt;</text><rect fill="none" height="6" style="stroke:#C82930;stroke-width:1.0;" width="6" x="2834" y="437.2422"/><text fill="#000000" font-family="sans-serif" font-size="14" lengthAdjust="spacing" textLength="71" x="2846" y="443.5889">t1: double</text><rect fill="none" height="6" style="stroke:#C82930;stroke-width:1.0;" width="6" x="2834" y="453.5391"/><text fill="#000000" font-family="sans-serif" font-size="14" lengthAdjust="spacing" textLength="71" x="2846" y="459.8857">t2: double</text><line style="stroke:#181818;stroke-width:0.5;" x1="2827" x2="3269" y1="467.1875" y2="467.1875"/><ellipse cx="2837" cy="480.8359" fill="#84BE84" rx="3" ry="3" style="stroke:#038048;stroke-width:1.0;"/><text fill="#000000" font-family="sans-serif" font-size="14" lengthAdjust="spacing" textLength="418" x="2846" y="484.1826">CanopyPreClustering(Distance&lt;? super O&gt;, double, double)</text><ellipse cx="2837" cy="497.1328" fill="#84BE84" rx="3" ry="3" style="stroke:#038048;stroke-width:1.0;"/><text fill="#000000" font-family="sans-serif" font-size="14" lengthAdjust="spacing" textLength="371" x="2846" y="500.4795">run(Relation&lt;O&gt;): Clustering&lt;PrototypeModel&lt;O&gt;&gt;</text><ellipse cx="2837" cy="513.4297" fill="#84BE84" rx="3" ry="3" style="stroke:#038048;stroke-width:1.0;"/><text fill="#000000" font-family="sans-serif" font-size="14" lengthAdjust="spacing" textLength="306" x="2846" y="516.7764">getInputTypeRestriction(): TypeInformation[]</text></g></a><!--MD5=[fac719e7c52bdc4d218d7a297c826bd6]
class elki.clustering.BetulaLeafPreClustering--><a href="BetulaLeafPreClustering.html" target="_top" title="BetulaLeafPreClustering.html" xlink:actuate="onRequest" xlink:href="BetulaLeafPreClustering.html" xlink:show="new" xlink:title="BetulaLeafPreClustering.html" xlink:type="simple"><g id="elem_elki.clustering.BetulaLeafPreClustering"><rect codeLine="131" fill="#F1F1F1" height="145.7813" id="elki.clustering.BetulaLeafPreClustering" rx="2.5" ry="2.5" style="stroke:#181818;stroke-width:0.5;" width="422" x="3305" y="370"/><ellipse cx="3429.25" cy="386" fill="#ADD1B2" rx="11" ry="11" style="stroke:#181818;stroke-width:1.0;"/><path d="M3432.2188,391.6406 Q3431.6406,391.9375 3431,392.0781 Q3430.3594,392.2344 3429.6563,392.2344 Q3427.1563,392.2344 3425.8281,390.5938 Q3424.5156,388.9375 3424.5156,385.8125 Q3424.5156,382.6875 3425.8281,381.0313 Q3427.1563,379.375 3429.6563,379.375 Q3430.3594,379.375 3431,379.5313 Q3431.6563,379.6875 3432.2188,379.9844 L3432.2188,382.7031 Q3431.5938,382.125 3431,381.8594 Q3430.4063,381.5781 3429.7813,381.5781 Q3428.4375,381.5781 3427.75,382.6563 Q3427.0625,383.7188 3427.0625,385.8125 Q3427.0625,387.9063 3427.75,388.9844 Q3428.4375,390.0469 3429.7813,390.0469 Q3430.4063,390.0469 3431,389.7813 Q3431.5938,389.5 3432.2188,388.9219 L3432.2188,391.6406 Z " fill="#000000"/><text fill="#000000" font-family="sans-serif" font-size="14" lengthAdjust="spacing" textLength="165" x="3449.75" y="390.8467">BetulaLeafPreClustering</text><line style="stroke:#181818;stroke-width:0.5;" x1="3306" x2="3726" y1="402" y2="402"/><rect fill="none" height="6" style="stroke:#C82930;stroke-width:1.0;" width="6" x="3313" y="412.6484"/><text fill="#000000" font-family="sans-serif" font-size="14" lengthAdjust="spacing" text-decoration="underline" textLength="93" x="3325" y="418.9951">LOG: Logging</text><polygon fill="none" points="3316,427.9453,3312,433.9453,3320,433.9453" style="stroke:#1963A0;stroke-width:1.0;"/><text fill="#000000" font-family="sans-serif" font-size="14" lengthAdjust="spacing" textLength="148" x="3325" y="435.292">cffactory: Factory&lt;?&gt;</text><polygon fill="none" points="3316,444.2422,3312,450.2422,3320,450.2422" style="stroke:#1963A0;stroke-width:1.0;"/><text fill="#000000" font-family="sans-serif" font-size="14" lengthAdjust="spacing" textLength="121" x="3325" y="451.5889">storeIds: boolean</text><line style="stroke:#181818;stroke-width:0.5;" x1="3306" x2="3726" y1="458.8906" y2="458.8906"/><ellipse cx="3316" cy="472.5391" fill="#84BE84" rx="3" ry="3" style="stroke:#038048;stroke-width:1.0;"/><text fill="#000000" font-family="sans-serif" font-size="14" lengthAdjust="spacing" textLength="320" x="3325" y="475.8857">BetulaLeafPreClustering(Factory&lt;?&gt;, boolean)</text><ellipse cx="3316" cy="488.8359" fill="#84BE84" rx="3" ry="3" style="stroke:#038048;stroke-width:1.0;"/><text fill="#000000" font-family="sans-serif" font-size="14" lengthAdjust="spacing" textLength="306" x="3325" y="492.1826">getInputTypeRestriction(): TypeInformation[]</text><ellipse cx="3316" cy="505.1328" fill="#84BE84" rx="3" ry="3" style="stroke:#038048;stroke-width:1.0;"/><text fill="#000000" font-family="sans-serif" font-size="14" lengthAdjust="spacing" textLength="396" x="3325" y="508.4795">run(Relation&lt;NumberVector&gt;): Clustering&lt;MeanModel&gt;</text></g></a><!--MD5=[6617a5df6c1f5d3bd235afcb3413924f]
class elki.Algorithm--><a href="../Algorithm.html" target="_top" title="../Algorithm.html" xlink:actuate="onRequest" xlink:href="../Algorithm.html" xlink:show="new" xlink:title="../Algorithm.html" xlink:type="simple"><g id="elem_elki.Algorithm"><rect codeLine="180" fill="#F1F1F1" height="80.5938" id="elki.Algorithm" rx="2.5" ry="2.5" style="stroke:#181818;stroke-width:0.5;" width="341" x="2006.5" y="41"/><ellipse cx="2138.25" cy="57" fill="#B4A7E5" rx="11" ry="11" style="stroke:#181818;stroke-width:1.0;"/><path d="M2134.1719,52.7656 L2134.1719,50.6094 L2141.5625,50.6094 L2141.5625,52.7656 L2139.0938,52.7656 L2139.0938,60.8438 L2141.5625,60.8438 L2141.5625,63 L2134.1719,63 L2134.1719,60.8438 L2136.6406,60.8438 L2136.6406,52.7656 L2134.1719,52.7656 Z " fill="#000000"/><text fill="#000000" font-family="sans-serif" font-size="14" font-style="italic" lengthAdjust="spacing" textLength="69" x="2158.75" y="61.8467">Algorithm</text><line style="stroke:#181818;stroke-width:0.5;" x1="2007.5" x2="2346.5" y1="73" y2="73"/><line style="stroke:#181818;stroke-width:0.5;" x1="2007.5" x2="2346.5" y1="81" y2="81"/><ellipse cx="2017.5" cy="94.6484" fill="#84BE84" rx="3" ry="3" style="stroke:#038048;stroke-width:1.0;"/><text fill="#000000" font-family="sans-serif" font-size="14" lengthAdjust="spacing" textLength="184" x="2026.5" y="97.9951">autorun(Database): Object</text><ellipse cx="2017.5" cy="110.9453" fill="#84BE84" rx="3" ry="3" style="stroke:#038048;stroke-width:1.0;"/><text fill="#000000" font-family="sans-serif" font-size="14" font-style="italic" lengthAdjust="spacing" textLength="315" x="2026.5" y="114.292">getInputTypeRestriction(): TypeInformation[]</text></g></a><!--MD5=[9a88df51f2bd98b30db9cf22b07046a5]
reverse link elki.clustering.ClusteringAlgorithm to elki.clustering.NaiveMeanShiftClustering--><g id="link_elki.clustering.ClusteringAlgorithm_elki.clustering.NaiveMeanShiftClustering"><path codeLine="148" d="M1933.63,239.61 C1600.15,253.91 1018.72,283.22 810,321 C764,329.33 715.81,341.05 669.4,353.96 " fill="none" id="elki.clustering.ClusteringAlgorithm-backto-elki.clustering.NaiveMeanShiftClustering" style="stroke:#181818;stroke-width:1.0;stroke-dasharray:7.0,7.0;"/><polygon fill="none" points="1933.48,232.61,1953.76,238.75,1934.07,246.6,1933.48,232.61" style="stroke:#181818;stroke-width:1.0;"/></g><!--MD5=[2afb88a91bb277ce8e4de62b26504050]
reverse link elki.Algorithm to elki.clustering.ClusteringAlgorithm--><g id="link_elki.Algorithm_elki.clustering.ClusteringAlgorithm"><path codeLine="151" d="M2177,142.47 C2177,161.05 2177,180.77 2177,196.59 " fill="none" id="elki.Algorithm-backto-elki.clustering.ClusteringAlgorithm" style="stroke:#181818;stroke-width:1.0;"/><polygon fill="none" points="2170,142.26,2177,122.26,2184,142.26,2170,142.26" style="stroke:#181818;stroke-width:1.0;"/></g><!--MD5=[31513f56032c8f4a1f4243f5c2830bc4]
reverse link elki.clustering.ClusteringAlgorithm to elki.clustering.SNNClustering--><g id="link_elki.clustering.ClusteringAlgorithm_elki.clustering.SNNClustering"><path codeLine="152" d="M1933.85,246.8 C1793.58,259.96 1614.7,282.69 1459,321 C1453.15,322.44 1447.27,323.95 1441.36,325.52 " fill="none" id="elki.clustering.ClusteringAlgorithm-backto-elki.clustering.SNNClustering" style="stroke:#181818;stroke-width:1.0;stroke-dasharray:7.0,7.0;"/><polygon fill="none" points="1933.26,239.83,1953.82,244.97,1934.54,253.77,1933.26,239.83" style="stroke:#181818;stroke-width:1.0;"/></g><!--MD5=[bddf15d17fc3a5499ede5fd0a2cd8970]
reverse link elki.clustering.ClusteringAlgorithm to elki.clustering.CFSFDP--><g id="link_elki.clustering.ClusteringAlgorithm_elki.clustering.CFSFDP"><path codeLine="155" d="M2082.01,268.8 C2044.17,284.58 2000.34,303.24 1961,321 C1932.45,333.89 1902.29,347.99 1873.15,361.88 " fill="none" id="elki.clustering.ClusteringAlgorithm-backto-elki.clustering.CFSFDP" style="stroke:#181818;stroke-width:1.0;stroke-dasharray:7.0,7.0;"/><polygon fill="none" points="2079.47,262.28,2100.62,261.08,2084.83,275.21,2079.47,262.28" style="stroke:#181818;stroke-width:1.0;"/></g><!--MD5=[478baeafcdf60417faf119459f4ae709]
reverse link elki.clustering.ClusteringAlgorithm to elki.clustering.Leader--><g id="link_elki.clustering.ClusteringAlgorithm_elki.clustering.Leader"><path codeLine="158" d="M2177,281.44 C2177,307.95 2177,340.73 2177,369.74 " fill="none" id="elki.clustering.ClusteringAlgorithm-backto-elki.clustering.Leader" style="stroke:#181818;stroke-width:1.0;stroke-dasharray:7.0,7.0;"/><polygon fill="none" points="2170,281.28,2177,261.28,2184,281.28,2170,281.28" style="stroke:#181818;stroke-width:1.0;"/></g><!--MD5=[14e196ea0a8bb4778f5beec672d4ebe2]
reverse link elki.clustering.ClusteringAlgorithm to elki.clustering.AbstractProjectedClustering--><g id="link_elki.clustering.ClusteringAlgorithm_elki.clustering.AbstractProjectedClustering"><path codeLine="161" d="M2276.21,268.68 C2313.33,283.96 2355.55,302.32 2393,321 C2432.63,340.77 2475.1,364.91 2511.26,386.42 " fill="none" id="elki.clustering.ClusteringAlgorithm-backto-elki.clustering.AbstractProjectedClustering" style="stroke:#181818;stroke-width:1.0;stroke-dasharray:7.0,7.0;"/><polygon fill="none" points="2273.49,275.12,2257.61,261.1,2278.77,262.16,2273.49,275.12" style="stroke:#181818;stroke-width:1.0;"/></g><!--MD5=[6277524afb36e83d4085efd66f10bfc1]
reverse link elki.clustering.ClusteringAlgorithm to elki.clustering.CanopyPreClustering--><g id="link_elki.clustering.ClusteringAlgorithm_elki.clustering.CanopyPreClustering"><path codeLine="164" d="M2420.35,246.4 C2539.54,259.1 2683.96,281.52 2809,321 C2842.37,331.54 2876.78,346.33 2908.72,361.98 " fill="none" id="elki.clustering.ClusteringAlgorithm-backto-elki.clustering.CanopyPreClustering" style="stroke:#181818;stroke-width:1.0;stroke-dasharray:7.0,7.0;"/><polygon fill="none" points="2419.48,253.34,2400.3,244.33,2420.92,239.42,2419.48,253.34" style="stroke:#181818;stroke-width:1.0;"/></g><!--MD5=[4cfb0b207858d7a08d73a584d201527b]
reverse link elki.clustering.ClusteringAlgorithm to elki.clustering.BetulaLeafPreClustering--><g id="link_elki.clustering.ClusteringAlgorithm_elki.clustering.BetulaLeafPreClustering"><path codeLine="167" d="M2420.13,238.46 C2696.92,250.1 3131.02,275.04 3288,321 C3326.92,332.4 3366.82,350.86 3402.14,369.96 " fill="none" id="elki.clustering.ClusteringAlgorithm-backto-elki.clustering.BetulaLeafPreClustering" style="stroke:#181818;stroke-width:1.0;stroke-dasharray:7.0,7.0;"/><polygon fill="none" points="2419.76,245.45,2400.07,237.62,2420.34,231.46,2419.76,245.45" style="stroke:#181818;stroke-width:1.0;"/></g><rect fill="none" height="11.6406" style="stroke:none;stroke-width:1.0;" width="186" x="1775" y="587"/><text fill="#888888" font-family="sans-serif" font-size="10" lengthAdjust="spacing" textLength="186" x="1775" y="596.2822">UMLDoclet 2.0.19, PlantUML 1.2022.8</text><!--MD5=[07f8273be0fafd516eaf2e7dd8c27df5]
@startuml
    remove .*\.(Instance|Par|Parameterizer|Factory)$
    namespace elki.clustering {

        class NaiveMeanShiftClustering<V extends NumberVector> [[NaiveMeanShiftClustering.html]] {
            {static} -LOG: Logging
            #distance: NumberVectorDistance<? super NumberVector>
            #kernel: KernelDensityFunction
            #bandwidth: double
            {static} #MAXITER: int
            +NaiveMeanShiftClustering(NumberVectorDistance<? super NumberVector>, KernelDensityFunction, double)
            +getInputTypeRestriction(): TypeInformation[]
            +run(Relation<V extends NumberVector>): Clustering<MeanModel>
        }

        class elki.clustering.NaiveMeanShiftClustering.Par<V extends NumberVector> {
            {static} +KERNEL_ID: OptionID
            {static} +RANGE_ID: OptionID
            ~kernel: KernelDensityFunction
            ~range: double
            #distance: NumberVectorDistance<? super NumberVector>
            +configure(Parameterization): void
            +make(): NaiveMeanShiftClustering<V extends NumberVector>
        }

        interface ClusteringAlgorithm<C extends Clustering<? extends Model>> [[ClusteringAlgorithm.html]] {
            +autorun(Database): C extends Clustering<? extends Model>
        }

        class SNNClustering<O> [[SNNClustering.html]] {
            {static} -LOG: Logging
            -epsilon: int
            -minpts: int
            #resultList: List<ModifiableDBIDs>
            #noise: ModifiableDBIDs
            #processedIDs: ModifiableDBIDs
            -similarityFunction: SharedNearestNeighborSimilarity<O>
            +SNNClustering(SharedNearestNeighborSimilarity<O>, int, int)
            +getInputTypeRestriction(): TypeInformation[]
            +run(Relation<O>): Clustering<Model>
            #findSNNNeighbors(SimilarityQuery<O>, DBIDRef): ArrayModifiableDBIDs
            #expandCluster(SimilarityQuery<O>, DBIDRef, FiniteProgress, IndefiniteProgress): void
        }

        class elki.clustering.SNNClustering.Par<O> {
            {static} +EPSILON_ID: OptionID
            {static} +MINPTS_ID: OptionID
            #epsilon: int
            #minpts: int
            -similarityFunction: SharedNearestNeighborSimilarity<O>
            +configure(Parameterization): void
            +make(): SNNClustering<O>
        }

        class CFSFDP<O> [[CFSFDP.html]] {
            {static} -LOG: Logging
            #distance: Distance<? super O>
            #dc: double
            #k: int
            #CFSFDP(Distance<? super O>, double, int)
            +getInputTypeRestriction(): TypeInformation[]
            +run(Relation<O>): Clustering<SimplePrototypeModel<DBID>>
        }

        class elki.clustering.CFSFDP.Par<O> [[CFSFDP.Par.html]] {
            {static} +DC_ID: OptionID
            {static} +K_ID: OptionID
            #distance: Distance<? super O>
            #dc: double
            #k: int
            +configure(Parameterization): void
            +make(): CFSFDP<O>
        }

        class Leader<O> [[Leader.html]] {
            {static} -LOG: Logging
            #distance: Distance<? super O>
            #threshold: double
            +Leader(Distance<? super O>, double)
            +getInputTypeRestriction(): TypeInformation[]
            +run(Relation<O>): Clustering<PrototypeModel<O>>
        }

        class elki.clustering.Leader.Par<O> {
            {static} +THRESHOLD_ID: OptionID
            -threshold: double
            #distance: Distance<? super O>
            +configure(Parameterization): void
            +make(): Leader<O>
        }

        abstract class AbstractProjectedClustering<R extends Clustering<?>> [[AbstractProjectedClustering.html]] {
            #k: int
            #k_i: int
            #l: int
            +AbstractProjectedClustering(int, int, int)
        }

        abstract class elki.clustering.AbstractProjectedClustering.Par [[AbstractProjectedClustering.Par.html]] {
            {static} +K_ID: OptionID
            {static} +K_I_ID: OptionID
            {static} +L_ID: OptionID
            #k: int
            #k_i: int
            #l: int
        }

        class ClusteringAlgorithmUtil [[ClusteringAlgorithmUtil.html]] {
            {static} +partitionsFromIntegerLabels(DBIDs, IntegerDataStore, int): ArrayModifiableDBIDs[]
        }

        class CanopyPreClustering<O> [[CanopyPreClustering.html]] {
            {static} -LOG: Logging
            -distance: Distance<? super O>
            -t1: double
            -t2: double
            +CanopyPreClustering(Distance<? super O>, double, double)
            +run(Relation<O>): Clustering<PrototypeModel<O>>
            +getInputTypeRestriction(): TypeInformation[]
        }

        class elki.clustering.CanopyPreClustering.Par<O> {
            {static} +T1_ID: OptionID
            {static} +T2_ID: OptionID
            -t1: double
            -t2: double
            #distance: Distance<? super O>
            +configure(Parameterization): void
            +make(): CanopyPreClustering<O>
        }

        class BetulaLeafPreClustering [[BetulaLeafPreClustering.html]] {
            {static} -LOG: Logging
            ~cffactory: Factory<?>
            ~storeIds: boolean
            +BetulaLeafPreClustering(Factory<?>, boolean)
            +getInputTypeRestriction(): TypeInformation[]
            +run(Relation<NumberVector>): Clustering<MeanModel>
        }

        class elki.clustering.BetulaLeafPreClustering.Par [[BetulaLeafPreClustering.Par.html]] {
            {static} +STORE_IDS_ID: OptionID
            ~cffactory: Factory<?>
            ~storeIds: boolean
            +configure(Parameterization): void
            +make(): BetulaLeafPreClustering
        }

        ClusteringAlgorithm <|.. NaiveMeanShiftClustering
        elki.utilities.optionhandling.Parameterizer <|.. elki.clustering.NaiveMeanShiftClustering.Par
        NaiveMeanShiftClustering +- - elki.clustering.NaiveMeanShiftClustering.Par
        elki.Algorithm <|- - ClusteringAlgorithm
        ClusteringAlgorithm <|.. SNNClustering
        elki.utilities.optionhandling.Parameterizer <|.. elki.clustering.SNNClustering.Par
        SNNClustering +- - elki.clustering.SNNClustering.Par
        ClusteringAlgorithm <|.. CFSFDP
        elki.utilities.optionhandling.Parameterizer <|.. elki.clustering.CFSFDP.Par
        CFSFDP +- - elki.clustering.CFSFDP.Par
        ClusteringAlgorithm <|.. Leader
        elki.utilities.optionhandling.Parameterizer <|.. elki.clustering.Leader.Par
        Leader +- - elki.clustering.Leader.Par
        ClusteringAlgorithm <|.. AbstractProjectedClustering
        elki.utilities.optionhandling.Parameterizer <|.. elki.clustering.AbstractProjectedClustering.Par
        AbstractProjectedClustering +- - elki.clustering.AbstractProjectedClustering.Par
        ClusteringAlgorithm <|.. CanopyPreClustering
        elki.utilities.optionhandling.Parameterizer <|.. elki.clustering.CanopyPreClustering.Par
        CanopyPreClustering +- - elki.clustering.CanopyPreClustering.Par
        ClusteringAlgorithm <|.. BetulaLeafPreClustering
        elki.utilities.optionhandling.Parameterizer <|.. elki.clustering.BetulaLeafPreClustering.Par
        BetulaLeafPreClustering +- - elki.clustering.BetulaLeafPreClustering.Par
    }

    namespace elki.utilities.optionhandling {
        interface Parameterizer [[../utilities/optionhandling/Parameterizer.html]] {
            +configure(Parameterization): void
            {abstract} +make(): Object
        }
    }

    namespace elki {
        interface Algorithm [[../Algorithm.html]] {
            +autorun(Database): Object
            {abstract} +getInputTypeRestriction(): TypeInformation[]
        }
    }

    center footer UMLDoclet 2.0.19, PlantUML 1.2022.8
@enduml

PlantUML version 1.2022.8(Sun Sep 25 11:00:33 CEST 2022)
(APACHE source distribution)
Java Runtime: OpenJDK Runtime Environment
JVM: OpenJDK 64-Bit Server VM
Default Encoding: UTF-8
Language: de
Country: DE
--></g></svg>