<?xml version="1.0" encoding="UTF-8" standalone="no"?>
<!DOCTYPE svg PUBLIC "-//W3C//DTD SVG 1.1//EN"
 "http://www.w3.org/Graphics/SVG/1.1/DTD/svg11.dtd">
<!-- Generated by graphviz version 2.40.1 (20161225.0304)
 -->
<!-- Title: G Pages: 1 -->
<svg width="361pt" height="117pt"
 viewBox="0.00 0.00 361.00 117.00" xmlns="http://www.w3.org/2000/svg" xmlns:xlink="http://www.w3.org/1999/xlink">
<g id="graph0" class="graph" transform="scale(1 1) rotate(0) translate(4 113)">
<title>G</title>
<polygon fill="#ffffff" stroke="transparent" points="-4,4 -4,-113 357,-113 357,4 -4,4"/>
<!-- c980822 -->
<g id="node1" class="node">
<title>c980822</title>
<g id="a_node1"><a xlink:href="../UncertainObject.html" xlink:title="&lt;TABLE&gt;">
<g id="a_node1_0"><a xlink:href="../UncertainObject.html" xlink:title="de.lmu.ifi.dbs.elki.data.uncertain.UncertainObject" target="_parent">
<polygon fill="none" stroke="#000000" points="226.5,-69.5 226.5,-108.5 346.5,-108.5 346.5,-69.5 226.5,-69.5"/>
<text text-anchor="start" x="265" y="-98.1" font-family="Roboto" font-size="8.00" fill="#000000"> «interface» </text>
<text text-anchor="start" x="254.5" y="-88.1" font-family="Roboto" font-size="8.00" fill="#000000"> </text>
<text text-anchor="start" x="257.5" y="-88.1" font-family="Roboto" font-size="8.00" fill="#000000">UncertainObject</text>
<text text-anchor="start" x="315.5" y="-88.1" font-family="Roboto" font-size="8.00" fill="#000000"> </text>
<text text-anchor="start" x="230.5" y="-77.1" font-family="Roboto" font-size="8.00" fill="#000000"> </text>
<text text-anchor="start" x="233.5" y="-77.1" font-family="Roboto" font-size="7.00" fill="#000000">de.lmu.ifi.dbs.elki.data.uncertain</text>
<text text-anchor="start" x="339.5" y="-77.1" font-family="Roboto" font-size="8.00" fill="#000000"> </text>
</a>
</g>
</a>
</g>
</g>
<!-- c980828 -->
<g id="node2" class="node">
<title>c980828</title>
<g id="a_node2"><a xlink:href="AbstractDiscreteUncertainifier.html" xlink:title="&lt;TABLE&gt;">
<g id="a_node2_1"><a xlink:href="AbstractDiscreteUncertainifier.html" xlink:title="de.lmu.ifi.dbs.elki.data.uncertain.uncertainifier.AbstractDiscreteUncertainifier" target="_parent">
<polygon fill="#fffacd" stroke="transparent" points="82,-27 82,-44 201,-44 201,-27 82,-27"/>
<polygon fill="none" stroke="#000000" points="82.5,-26.5 82.5,-43.5 201.5,-43.5 201.5,-26.5 82.5,-26.5"/>
<text text-anchor="start" x="86.5" y="-34.1" font-family="Roboto" font-size="8.00" fill="#000000"> </text>
<text text-anchor="start" x="89.5" y="-34.1" font-family="Roboto" font-style="italic" font-size="8.00" fill="#000000">AbstractDiscreteUncertainifier</text>
<text text-anchor="start" x="194.5" y="-34.1" font-family="Roboto" font-size="8.00" fill="#000000"> </text>
</a>
</g>
</a>
</g>
</g>
<!-- c980828&#45;&gt;c980822 -->
<g id="edge5" class="edge">
<title>c980828&#45;&gt;c980822</title>
<path fill="none" stroke="#000000" stroke-dasharray="5,2" d="M171.9705,-44.0493C181.3488,-46.8593 191.6601,-50.1314 201,-53.5 211.4397,-57.2653 222.4539,-61.6117 232.9769,-65.9538"/>
<polygon fill="#000000" stroke="#000000" points="242.4722,-69.9233 231.5103,-70.218 237.8591,-67.9948 233.246,-66.0662 233.246,-66.0662 233.246,-66.0662 237.8591,-67.9948 234.9817,-61.9144 242.4722,-69.9233 242.4722,-69.9233"/>
</g>
<!-- c980831 -->
<g id="node4" class="node">
<title>c980831</title>
<g id="a_node4"><a xlink:href="WeightedDiscreteUncertainifier.html" xlink:title="&lt;TABLE&gt;">
<g id="a_node4_2"><a xlink:href="WeightedDiscreteUncertainifier.html" xlink:title="de.lmu.ifi.dbs.elki.data.uncertain.uncertainifier.WeightedDiscreteUncertainifier" target="_parent">
<polygon fill="none" stroke="#000000" points="225.5,-27.5 225.5,-44.5 348.5,-44.5 348.5,-27.5 225.5,-27.5"/>
<text text-anchor="start" x="229.5" y="-35.1" font-family="Roboto" font-size="8.00" fill="#000000"> </text>
<text text-anchor="start" x="232.5" y="-35.1" font-family="Roboto" font-size="8.00" fill="#000000">WeightedDiscreteUncertainifier</text>
<text text-anchor="start" x="341.5" y="-35.1" font-family="Roboto" font-size="8.00" fill="#000000"> </text>
</a>
</g>
</a>
</g>
</g>
<!-- c980828&#45;&gt;c980831 -->
<g id="edge3" class="edge">
<title>c980828&#45;&gt;c980831</title>
<path fill="none" stroke="#000000" d="M211.6378,-35.9837C216.085,-36.0144 220.544,-36.0451 224.9478,-36.0755"/>
<polygon fill="none" stroke="#000000" points="211.3381,-32.4817 201.3142,-35.9125 211.2898,-39.4815 211.3381,-32.4817"/>
</g>
<!-- c980833 -->
<g id="node5" class="node">
<title>c980833</title>
<g id="a_node5"><a xlink:href="UnweightedDiscreteUncertainifier.html" xlink:title="&lt;TABLE&gt;">
<g id="a_node5_3"><a xlink:href="UnweightedDiscreteUncertainifier.html" xlink:title="de.lmu.ifi.dbs.elki.data.uncertain.uncertainifier.UnweightedDiscreteUncertainifier" target="_parent">
<polygon fill="none" stroke="#000000" points="220.5,.5 220.5,-16.5 353.5,-16.5 353.5,.5 220.5,.5"/>
<text text-anchor="start" x="224.5" y="-7.1" font-family="Roboto" font-size="8.00" fill="#000000"> </text>
<text text-anchor="start" x="227.5" y="-7.1" font-family="Roboto" font-size="8.00" fill="#000000">UnweightedDiscreteUncertainifier</text>
<text text-anchor="start" x="346.5" y="-7.1" font-family="Roboto" font-size="8.00" fill="#000000"> </text>
</a>
</g>
</a>
</g>
</g>
<!-- c980828&#45;&gt;c980833 -->
<g id="edge4" class="edge">
<title>c980828&#45;&gt;c980833</title>
<path fill="none" stroke="#000000" d="M197.5203,-25.0686C211.7094,-22.4265 226.7877,-19.6188 240.4219,-17.0801"/>
<polygon fill="none" stroke="#000000" points="196.5692,-21.6855 187.3789,-26.957 197.8507,-28.5672 196.5692,-21.6855"/>
</g>
<!-- c980830 -->
<g id="node3" class="node">
<title>c980830</title>
<g id="a_node3"><a xlink:href="Uncertainifier.html" xlink:title="&lt;TABLE&gt;">
<g id="a_node3_4"><a xlink:href="Uncertainifier.html" xlink:title="de.lmu.ifi.dbs.elki.data.uncertain.uncertainifier.Uncertainifier" target="_parent">
<polygon fill="none" stroke="#000000" points=".5,-21.5 .5,-49.5 63.5,-49.5 63.5,-21.5 .5,-21.5"/>
<text text-anchor="start" x="10.5" y="-39.1" font-family="Roboto" font-size="8.00" fill="#000000"> «interface» </text>
<text text-anchor="start" x="4.5" y="-29.1" font-family="Roboto" font-size="8.00" fill="#000000"> </text>
<text text-anchor="start" x="7.5" y="-29.1" font-family="Roboto" font-size="8.00" fill="#000000">Uncertainifier</text>
<text text-anchor="start" x="56.5" y="-29.1" font-family="Roboto" font-size="8.00" fill="#000000"> </text>
</a>
</g>
</a>
</g>
</g>
<!-- c980830&#45;&gt;c980822 -->
<g id="edge2" class="edge">
<title>c980830&#45;&gt;c980822</title>
<path fill="none" stroke="#000000" d="M51.289,-58.3422C57.3495,-63.9152 64.4328,-69.2139 72,-72.5 117.2038,-92.1297 172.7812,-96.0425 216.0362,-95.2242"/>
<polygon fill="none" stroke="#000000" points="51.1066,-58.1571 44.0463,-56.6901 42.6849,-49.6086 49.7452,-51.0756 51.1066,-58.1571"/>
<polygon fill="#000000" stroke="#000000" points="226.19,-94.9418 216.319,-99.7182 221.1919,-95.0809 216.1939,-95.2199 216.1939,-95.2199 216.1939,-95.2199 221.1919,-95.0809 216.0687,-90.7217 226.19,-94.9418 226.19,-94.9418"/>
<text text-anchor="middle" x="141.5" y="-96.9" font-family="Roboto" font-size="7.00" fill="#000000">produces</text>
</g>
<!-- c980830&#45;&gt;c980822 -->
<g id="edge6" class="edge">
<title>c980830&#45;&gt;c980822</title>
<path fill="none" stroke="#000000" stroke-dasharray="5,2" d="M63.1914,-44.6886C69.4054,-46.376 75.8903,-48.0578 82,-49.5 126.3733,-59.9739 176.6193,-69.8296 216.2014,-77.1373"/>
<polygon fill="#000000" stroke="#000000" points="226.2848,-78.9865 215.6371,-81.6088 221.3669,-78.0846 216.4489,-77.1826 216.4489,-77.1826 216.4489,-77.1826 221.3669,-78.0846 217.2606,-72.7564 226.2848,-78.9865 226.2848,-78.9865"/>
</g>
<!-- c980830&#45;&gt;c980828 -->
<g id="edge1" class="edge">
<title>c980830&#45;&gt;c980828</title>
<path fill="none" stroke="#000000" stroke-dasharray="5,2" d="M73.1595,-35.5C76.0387,-35.5 78.9699,-35.5 81.9187,-35.5"/>
<polygon fill="none" stroke="#000000" points="73.0216,-32.0001 63.0216,-35.5 73.0216,-39.0001 73.0216,-32.0001"/>
</g>
</g>
</svg>
