<?xml version="1.0" encoding="UTF-8" standalone="no"?>
<!DOCTYPE svg PUBLIC "-//W3C//DTD SVG 1.1//EN"
 "http://www.w3.org/Graphics/SVG/1.1/DTD/svg11.dtd">
<!-- Generated by graphviz version 2.40.1 (20161225.0304)
 -->
<!-- Title: G Pages: 1 -->
<svg width="438pt" height="36pt"
 viewBox="0.00 0.00 438.00 36.00" xmlns="http://www.w3.org/2000/svg" xmlns:xlink="http://www.w3.org/1999/xlink">
<g id="graph0" class="graph" transform="scale(1 1) rotate(0) translate(4 32)">
<title>G</title>
<polygon fill="#ffffff" stroke="transparent" points="-4,4 -4,-32 434,-32 434,4 -4,4"/>
<!-- c10582275 -->
<g id="node1" class="node">
<title>c10582275</title>
<g id="a_node1"><a xlink:href="../UnweightedDiscreteUncertainObject.html" xlink:title="&lt;TABLE&gt;">
<g id="a_node1_0"><a xlink:href="../UnweightedDiscreteUncertainObject.html" xlink:title="de.lmu.ifi.dbs.elki.data.uncertain.UnweightedDiscreteUncertainObject" target="_parent">
<polygon fill="none" stroke="#000000" points="288,0 288,-28 430,-28 430,0 288,0"/>
<text text-anchor="start" x="292" y="-18.6" font-family="Roboto" font-size="8.00" fill="#000000"> </text>
<text text-anchor="start" x="295" y="-18.6" font-family="Roboto" font-size="8.00" fill="#000000">UnweightedDiscreteUncertainObject</text>
<text text-anchor="start" x="423" y="-18.6" font-family="Roboto" font-size="8.00" fill="#000000"> </text>
<text text-anchor="start" x="303" y="-7.6" font-family="Roboto" font-size="8.00" fill="#000000"> </text>
<text text-anchor="start" x="306" y="-7.6" font-family="Roboto" font-size="7.00" fill="#000000">de.lmu.ifi.dbs.elki.data.uncertain</text>
<text text-anchor="start" x="412" y="-7.6" font-family="Roboto" font-size="8.00" fill="#000000"> </text>
</a>
</g>
</a>
</g>
</g>
<!-- c10582283 -->
<g id="node2" class="node">
<title>c10582283</title>
<g id="a_node2"><a xlink:href="AbstractDiscreteUncertainifier.html" xlink:title="&lt;TABLE&gt;">
<g id="a_node2_1"><a xlink:href="AbstractDiscreteUncertainifier.html" xlink:title="de.lmu.ifi.dbs.elki.data.uncertain.uncertainifier.AbstractDiscreteUncertainifier" target="_parent">
<polygon fill="none" stroke="#000000" points=".5,-5 .5,-22 119.5,-22 119.5,-5 .5,-5"/>
<text text-anchor="start" x="4.5" y="-12.6" font-family="Roboto" font-size="8.00" fill="#000000"> </text>
<text text-anchor="start" x="7.5" y="-12.6" font-family="Roboto" font-style="italic" font-size="8.00" fill="#000000">AbstractDiscreteUncertainifier</text>
<text text-anchor="start" x="112.5" y="-12.6" font-family="Roboto" font-size="8.00" fill="#000000"> </text>
</a>
</g>
</a>
</g>
</g>
<!-- c10582288 -->
<g id="node3" class="node">
<title>c10582288</title>
<g id="a_node3"><a xlink:href="UnweightedDiscreteUncertainifier.html" xlink:title="&lt;TABLE&gt;">
<g id="a_node3_2"><a xlink:href="UnweightedDiscreteUncertainifier.html" xlink:title="de.lmu.ifi.dbs.elki.data.uncertain.uncertainifier.UnweightedDiscreteUncertainifier" target="_parent">
<polygon fill="#fffacd" stroke="transparent" points="137,-5.5 137,-22.5 270,-22.5 270,-5.5 137,-5.5"/>
<polygon fill="none" stroke="#000000" points="137.5,-5 137.5,-22 270.5,-22 270.5,-5 137.5,-5"/>
<text text-anchor="start" x="141.5" y="-12.6" font-family="Roboto" font-size="8.00" fill="#000000"> </text>
<text text-anchor="start" x="144.5" y="-12.6" font-family="Roboto" font-size="8.00" fill="#000000">UnweightedDiscreteUncertainifier</text>
<text text-anchor="start" x="263.5" y="-12.6" font-family="Roboto" font-size="8.00" fill="#000000"> </text>
</a>
</g>
</a>
</g>
</g>
<!-- c10582283&#45;&gt;c10582288 -->
<g id="edge1" class="edge">
<title>c10582283&#45;&gt;c10582288</title>
<path fill="none" stroke="#000000" d="M129.5838,-14C131.9363,-14 134.2915,-14 136.6394,-14"/>
<polygon fill="none" stroke="#000000" points="129.318,-10.5001 119.318,-14 129.3179,-17.5001 129.318,-10.5001"/>
</g>
<!-- c10582288&#45;&gt;c10582275 -->
<g id="edge2" class="edge">
<title>c10582288&#45;&gt;c10582275</title>
<path fill="none" stroke="#000000" d="M282.5786,-14C284.3042,-14 286.0289,-14 287.7493,-14"/>
<polygon fill="none" stroke="#000000" points="282.3484,-14.0001 276.3484,-18 270.3484,-14 276.3485,-10 282.3484,-14.0001"/>
</g>
</g>
</svg>
