<?xml version="1.0" encoding="UTF-8" standalone="no"?>
<!DOCTYPE svg PUBLIC "-//W3C//DTD SVG 1.1//EN"
 "http://www.w3.org/Graphics/SVG/1.1/DTD/svg11.dtd">
<!-- Generated by graphviz version 2.40.1 (20161225.0304)
 -->
<!-- Title: G Pages: 1 -->
<svg width="409pt" height="98pt"
 viewBox="0.00 0.00 409.00 98.00" xmlns="http://www.w3.org/2000/svg" xmlns:xlink="http://www.w3.org/1999/xlink">
<g id="graph0" class="graph" transform="scale(1 1) rotate(0) translate(4 94)">
<title>G</title>
<polygon fill="#ffffff" stroke="transparent" points="-4,4 -4,-94 405,-94 405,4 -4,4"/>
<!-- c3199109 -->
<g id="node1" class="node">
<title>c3199109</title>
<g id="a_node1"><a xlink:href="../NonFlatRStarTree.html" xlink:title="&lt;TABLE&gt;">
<g id="a_node1_0"><a xlink:href="../NonFlatRStarTree.html" xlink:title="de.lmu.ifi.dbs.elki.index.tree.spatial.rstarvariants.NonFlatRStarTree" target="_parent">
<polygon fill="none" stroke="#000000" points=".5,-62 .5,-90 173.5,-90 173.5,-62 .5,-62"/>
<text text-anchor="start" x="53" y="-80.6" font-family="Roboto" font-size="8.00" fill="#000000"> </text>
<text text-anchor="start" x="56" y="-80.6" font-family="Roboto" font-style="italic" font-size="8.00" fill="#000000">NonFlatRStarTree</text>
<text text-anchor="start" x="118" y="-80.6" font-family="Roboto" font-size="8.00" fill="#000000"> </text>
<text text-anchor="start" x="4.5" y="-69.6" font-family="Roboto" font-size="8.00" fill="#000000"> </text>
<text text-anchor="start" x="7.5" y="-69.6" font-family="Roboto" font-size="7.00" fill="#000000">de.lmu.ifi.dbs.elki.index.tree.spatial.rstarvariants</text>
<text text-anchor="start" x="166.5" y="-69.6" font-family="Roboto" font-size="8.00" fill="#000000"> </text>
</a>
</g>
</a>
</g>
</g>
<!-- c3199128 -->
<g id="node3" class="node">
<title>c3199128</title>
<g id="a_node3"><a xlink:href="DeLiCluTree.html" xlink:title="&lt;TABLE&gt;">
<g id="a_node3_1"><a xlink:href="DeLiCluTree.html" xlink:title="de.lmu.ifi.dbs.elki.index.tree.spatial.rstarvariants.deliclu.DeLiCluTree" target="_parent">
<polygon fill="#fffacd" stroke="transparent" points="192,-67.5 192,-84.5 249,-84.5 249,-67.5 192,-67.5"/>
<polygon fill="none" stroke="#000000" points="192.5,-67 192.5,-84 249.5,-84 249.5,-67 192.5,-67"/>
<text text-anchor="start" x="196.5" y="-74.6" font-family="Roboto" font-size="8.00" fill="#000000"> </text>
<text text-anchor="start" x="199.5" y="-74.6" font-family="Roboto" font-style="italic" font-size="8.00" fill="#000000">DeLiCluTree</text>
<text text-anchor="start" x="242.5" y="-74.6" font-family="Roboto" font-size="8.00" fill="#000000"> </text>
</a>
</g>
</a>
</g>
</g>
<!-- c3199109&#45;&gt;c3199128 -->
<g id="edge2" class="edge">
<title>c3199109&#45;&gt;c3199128</title>
<path fill="none" stroke="#000000" d="M183.4055,-76C186.297,-76 189.0949,-76 191.7703,-76"/>
<polygon fill="none" stroke="#000000" points="183.2566,-72.5001 173.2566,-76 183.2566,-79.5001 183.2566,-72.5001"/>
</g>
<!-- c3199125 -->
<g id="node2" class="node">
<title>c3199125</title>
<g id="a_node2"><a xlink:href="DeLiCluTreeIndex.html" xlink:title="&lt;TABLE&gt;">
<g id="a_node2_2"><a xlink:href="DeLiCluTreeIndex.html" xlink:title="de.lmu.ifi.dbs.elki.index.tree.spatial.rstarvariants.deliclu.DeLiCluTreeIndex" target="_parent">
<polygon fill="none" stroke="#000000" points="309.5,-67 309.5,-84 387.5,-84 387.5,-67 309.5,-67"/>
<text text-anchor="start" x="313.5" y="-74.6" font-family="Roboto" font-size="8.00" fill="#000000"> </text>
<text text-anchor="start" x="316.5" y="-74.6" font-family="Roboto" font-size="8.00" fill="#000000">DeLiCluTreeIndex</text>
<text text-anchor="start" x="380.5" y="-74.6" font-family="Roboto" font-size="8.00" fill="#000000"> </text>
</a>
</g>
</a>
</g>
</g>
<!-- c3199128&#45;&gt;c3199125 -->
<g id="edge1" class="edge">
<title>c3199128&#45;&gt;c3199125</title>
<path fill="none" stroke="#000000" d="M259.6699,-76C275.3851,-76 293.4643,-76 309.1932,-76"/>
<polygon fill="none" stroke="#000000" points="259.2257,-72.5001 249.2257,-76 259.2257,-79.5001 259.2257,-72.5001"/>
</g>
<!-- c3199129 -->
<g id="node4" class="node">
<title>c3199129</title>
<g id="a_node4"><a xlink:href="DeLiCluNode.html" xlink:title="&lt;TABLE&gt;">
<g id="a_node4_3"><a xlink:href="DeLiCluNode.html" xlink:title="de.lmu.ifi.dbs.elki.index.tree.spatial.rstarvariants.deliclu.DeLiCluNode" target="_parent">
<polygon fill="none" stroke="#000000" points="318.5,-39 318.5,-56 379.5,-56 379.5,-39 318.5,-39"/>
<text text-anchor="start" x="322.5" y="-46.6" font-family="Roboto" font-size="8.00" fill="#000000"> </text>
<text text-anchor="start" x="325.5" y="-46.6" font-family="Roboto" font-size="8.00" fill="#000000">DeLiCluNode</text>
<text text-anchor="start" x="372.5" y="-46.6" font-family="Roboto" font-size="8.00" fill="#000000"> </text>
</a>
</g>
</a>
</g>
</g>
<!-- c3199128&#45;&gt;c3199129 -->
<g id="edge3" class="edge">
<title>c3199128&#45;&gt;c3199129</title>
<path fill="none" stroke="#000000" d="M260.856,-65.442C279.1401,-61.2731 294.6317,-58.0895 307.7722,-55.5257"/>
<polygon fill="none" stroke="#000000" points="260.8059,-65.4536 255.8654,-70.7063 249.1165,-68.1661 254.057,-62.9134 260.8059,-65.4536"/>
<polygon fill="#000000" stroke="#000000" points="317.815,-53.5954 308.8442,-59.9021 312.9049,-54.5392 307.9947,-55.483 307.9947,-55.483 307.9947,-55.483 312.9049,-54.5392 307.1453,-51.0639 317.815,-53.5954 317.815,-53.5954"/>
<text text-anchor="middle" x="272.5" y="-68.4" font-family="Roboto" font-size="7.00" fill="#000000">contains</text>
</g>
<!-- c3199805 -->
<g id="node5" class="node">
<title>c3199805</title>
<g id="a_node5"><a xlink:href="http://docs.oracle.com/javase/7/docs/api/it/unimi/dsi/fastutil/ints/Int2ObjectOpenHashMap.html" xlink:title="&lt;TABLE&gt;">
<g id="a_node5_4"><a xlink:href="http://docs.oracle.com/javase/7/docs/api/it/unimi/dsi/fastutil/ints/Int2ObjectOpenHashMap.html" xlink:title="it.unimi.dsi.fastutil.ints.Int2ObjectOpenHashMap" target="_parent">
<polygon fill="none" stroke="#000000" points="296.5,0 296.5,-28 401.5,-28 401.5,0 296.5,0"/>
<text text-anchor="start" x="300.5" y="-18.6" font-family="Roboto" font-size="8.00" fill="#000000"> </text>
<text text-anchor="start" x="303.5" y="-18.6" font-family="Roboto" font-size="8.00" fill="#000000">Int2ObjectOpenHashMap</text>
<text text-anchor="start" x="394.5" y="-18.6" font-family="Roboto" font-size="8.00" fill="#000000"> </text>
<text text-anchor="start" x="307.5" y="-7.6" font-family="Roboto" font-size="8.00" fill="#000000"> </text>
<text text-anchor="start" x="310.5" y="-7.6" font-family="Roboto" font-size="7.00" fill="#000000">it.unimi.dsi.fastutil.ints</text>
<text text-anchor="start" x="387.5" y="-7.6" font-family="Roboto" font-size="8.00" fill="#000000"> </text>
</a>
</g>
</a>
</g>
</g>
<!-- c3199128&#45;&gt;c3199805 -->
<g id="edge4" class="edge">
<title>c3199128&#45;&gt;c3199805</title>
<path fill="none" stroke="#000000" d="M234.3775,-67.485C249.2883,-58.5262 273.8365,-44.3212 296,-34 297.3815,-33.3566 298.79,-32.7173 300.217,-32.0839"/>
<polygon fill="#000000" stroke="#000000" points="309.8138,-28.0099 302.3673,-36.0598 305.2113,-29.9638 300.6088,-31.9176 300.6088,-31.9176 300.6088,-31.9176 305.2113,-29.9638 298.8504,-27.7754 309.8138,-28.0099 309.8138,-28.0099"/>
</g>
</g>
</svg>
