<?xml version="1.0" encoding="UTF-8" standalone="no"?>
<!DOCTYPE svg PUBLIC "-//W3C//DTD SVG 1.1//EN"
 "http://www.w3.org/Graphics/SVG/1.1/DTD/svg11.dtd">
<!-- Generated by graphviz version 2.40.1 (20161225.0304)
 -->
<!-- Title: G Pages: 1 -->
<svg width="254pt" height="39pt"
 viewBox="0.00 0.00 254.00 39.37" xmlns="http://www.w3.org/2000/svg" xmlns:xlink="http://www.w3.org/1999/xlink">
<g id="graph0" class="graph" transform="scale(1 1) rotate(0) translate(4 35.3744)">
<title>G</title>
<polygon fill="#ffffff" stroke="transparent" points="-4,4 -4,-35.3744 250,-35.3744 250,4 -4,4"/>
<!-- c2846053 -->
<g id="node1" class="node">
<title>c2846053</title>
<g id="a_node1"><a xlink:href="Relation.html" xlink:title="&lt;TABLE&gt;">
<g id="a_node1_0"><a xlink:href="Relation.html" xlink:title="de.lmu.ifi.dbs.elki.database.relation.Relation" target="_parent">
<polygon fill="none" stroke="#000000" points=".5,-3.3744 .5,-31.3744 51.5,-31.3744 51.5,-3.3744 .5,-3.3744"/>
<text text-anchor="start" x="4.5" y="-20.9744" font-family="Roboto" font-size="8.00" fill="#000000"> «interface» </text>
<text text-anchor="start" x="8.5" y="-10.9744" font-family="Roboto" font-size="8.00" fill="#000000"> </text>
<text text-anchor="start" x="11.5" y="-10.9744" font-family="Roboto" font-size="8.00" fill="#000000">Relation</text>
<text text-anchor="start" x="40.5" y="-10.9744" font-family="Roboto" font-size="8.00" fill="#000000"> </text>
</a>
</g>
</a>
</g>
</g>
<!-- c2847124 -->
<g id="node2" class="node">
<title>c2847124</title>
<g id="a_node2"><a xlink:href="AbstractRelation.html" xlink:title="&lt;TABLE&gt;">
<g id="a_node2_1"><a xlink:href="AbstractRelation.html" xlink:title="de.lmu.ifi.dbs.elki.database.relation.AbstractRelation" target="_parent">
<polygon fill="none" stroke="#000000" points="69,-8.3744 69,-25.3744 141,-25.3744 141,-8.3744 69,-8.3744"/>
<text text-anchor="start" x="73" y="-15.9744" font-family="Roboto" font-size="8.00" fill="#000000"> </text>
<text text-anchor="start" x="76" y="-15.9744" font-family="Roboto" font-style="italic" font-size="8.00" fill="#000000">AbstractRelation</text>
<text text-anchor="start" x="134" y="-15.9744" font-family="Roboto" font-size="8.00" fill="#000000"> </text>
</a>
</g>
</a>
</g>
</g>
<!-- c2846053&#45;&gt;c2847124 -->
<g id="edge1" class="edge">
<title>c2846053&#45;&gt;c2847124</title>
<path fill="none" stroke="#000000" stroke-dasharray="5,2" d="M61.1861,-17.3744C63.6969,-17.3744 66.2295,-17.3744 68.7433,-17.3744"/>
<polygon fill="none" stroke="#000000" points="61.0919,-13.8745 51.0919,-17.3744 61.0919,-20.8745 61.0919,-13.8745"/>
</g>
<!-- c2847127 -->
<g id="node3" class="node">
<title>c2847127</title>
<g id="a_node3"><a xlink:href="ConvertToStringView.html" xlink:title="&lt;TABLE&gt;">
<g id="a_node3_2"><a xlink:href="ConvertToStringView.html" xlink:title="de.lmu.ifi.dbs.elki.database.relation.ConvertToStringView" target="_parent">
<polygon fill="#fffacd" stroke="transparent" points="159,-8.8744 159,-25.8744 246,-25.8744 246,-8.8744 159,-8.8744"/>
<polygon fill="none" stroke="#000000" points="159.5,-8.3744 159.5,-25.3744 246.5,-25.3744 246.5,-8.3744 159.5,-8.3744"/>
<text text-anchor="start" x="163.5" y="-15.9744" font-family="Roboto" font-size="8.00" fill="#000000"> </text>
<text text-anchor="start" x="166.5" y="-15.9744" font-family="Roboto" font-size="8.00" fill="#000000">ConvertToStringView</text>
<text text-anchor="start" x="239.5" y="-15.9744" font-family="Roboto" font-size="8.00" fill="#000000"> </text>
</a>
</g>
</a>
</g>
</g>
<!-- c2847124&#45;&gt;c2847127 -->
<g id="edge2" class="edge">
<title>c2847124&#45;&gt;c2847127</title>
<path fill="none" stroke="#000000" d="M151.1879,-17.3744C153.688,-17.3744 156.1971,-17.3744 158.6888,-17.3744"/>
<polygon fill="none" stroke="#000000" points="151.0284,-13.8745 141.0284,-17.3744 151.0284,-20.8745 151.0284,-13.8745"/>
</g>
<!-- c2847127&#45;&gt;c2846053 -->
<g id="edge3" class="edge">
<title>c2847127&#45;&gt;c2846053</title>
<path fill="none" stroke="#000000" d="M171.1293,-8.8107C161.5358,-6.5779 150.9024,-4.4872 141,-3.3744 109.2002,.1994 100.613,1.5875 69,-3.3744 66.4626,-3.7726 63.8712,-4.2941 61.2802,-4.9011"/>
<polygon fill="#000000" stroke="#000000" points="51.4029,-7.5878 59.8712,-.6208 56.2276,-6.2754 61.0523,-4.9631 61.0523,-4.9631 61.0523,-4.9631 56.2276,-6.2754 62.2334,-9.3053 51.4029,-7.5878 51.4029,-7.5878"/>
</g>
</g>
</svg>
