<?xml version="1.0" encoding="UTF-8" standalone="no"?>
<!DOCTYPE svg PUBLIC "-//W3C//DTD SVG 1.1//EN"
 "http://www.w3.org/Graphics/SVG/1.1/DTD/svg11.dtd">
<!-- Generated by graphviz version 2.40.1 (20161225.0304)
 -->
<!-- Title: G Pages: 1 -->
<svg width="362pt" height="101pt"
 viewBox="0.00 0.00 362.00 100.50" xmlns="http://www.w3.org/2000/svg" xmlns:xlink="http://www.w3.org/1999/xlink">
<g id="graph0" class="graph" transform="scale(1 1) rotate(0) translate(4 96.5)">
<title>G</title>
<polygon fill="#ffffff" stroke="transparent" points="-4,4 -4,-96.5 358,-96.5 358,4 -4,4"/>
<!-- c6810696 -->
<g id="node1" class="node">
<title>c6810696</title>
<g id="a_node1"><a xlink:href="DoubleRelation.html" xlink:title="&lt;TABLE&gt;">
<g id="a_node1_0"><a xlink:href="DoubleRelation.html" xlink:title="de.lmu.ifi.dbs.elki.database.relation.DoubleRelation" target="_parent">
<polygon fill="none" stroke="#000000" points="2,-64.5 2,-92.5 70,-92.5 70,-64.5 2,-64.5"/>
<text text-anchor="start" x="14.5" y="-82.1" font-family="Roboto" font-size="8.00" fill="#000000"> «interface» </text>
<text text-anchor="start" x="6" y="-72.1" font-family="Roboto" font-size="8.00" fill="#000000"> </text>
<text text-anchor="start" x="9" y="-72.1" font-family="Roboto" font-size="8.00" fill="#000000">DoubleRelation</text>
<text text-anchor="start" x="63" y="-72.1" font-family="Roboto" font-size="8.00" fill="#000000"> </text>
</a>
</g>
</a>
</g>
</g>
<!-- c6811773 -->
<g id="node5" class="node">
<title>c6811773</title>
<g id="a_node5"><a xlink:href="MaterializedDoubleRelation.html" xlink:title="&lt;TABLE&gt;">
<g id="a_node5_1"><a xlink:href="MaterializedDoubleRelation.html" xlink:title="de.lmu.ifi.dbs.elki.database.relation.MaterializedDoubleRelation" target="_parent">
<polygon fill="#fffacd" stroke="transparent" points="90,-36 90,-53 203,-53 203,-36 90,-36"/>
<polygon fill="none" stroke="#000000" points="90.5,-35.5 90.5,-52.5 203.5,-52.5 203.5,-35.5 90.5,-35.5"/>
<text text-anchor="start" x="94.5" y="-43.1" font-family="Roboto" font-size="8.00" fill="#000000"> </text>
<text text-anchor="start" x="97.5" y="-43.1" font-family="Roboto" font-size="8.00" fill="#000000">MaterializedDoubleRelation</text>
<text text-anchor="start" x="196.5" y="-43.1" font-family="Roboto" font-size="8.00" fill="#000000"> </text>
</a>
</g>
</a>
</g>
</g>
<!-- c6810696&#45;&gt;c6811773 -->
<g id="edge2" class="edge">
<title>c6810696&#45;&gt;c6811773</title>
<path fill="none" stroke="#000000" stroke-dasharray="5,2" d="M79.8386,-65.0112C92.9274,-60.9839 106.9095,-56.6817 118.6708,-53.0628"/>
<polygon fill="none" stroke="#000000" points="78.5838,-61.7353 70.0553,-68.0214 80.6424,-68.4258 78.5838,-61.7353"/>
</g>
<!-- c6810856 -->
<g id="node2" class="node">
<title>c6810856</title>
<g id="a_node2"><a xlink:href="../ids/StaticDBIDs.html" xlink:title="&lt;TABLE&gt;">
<g id="a_node2_2"><a xlink:href="../ids/StaticDBIDs.html" xlink:title="de.lmu.ifi.dbs.elki.database.ids.StaticDBIDs" target="_parent">
<polygon fill="none" stroke="#000000" points="231.5,-49.5 231.5,-88.5 344.5,-88.5 344.5,-49.5 231.5,-49.5"/>
<text text-anchor="start" x="266.5" y="-78.1" font-family="Roboto" font-size="8.00" fill="#000000"> «interface» </text>
<text text-anchor="start" x="263.5" y="-68.1" font-family="Roboto" font-size="8.00" fill="#000000"> </text>
<text text-anchor="start" x="266.5" y="-68.1" font-family="Roboto" font-size="8.00" fill="#000000">StaticDBIDs</text>
<text text-anchor="start" x="309.5" y="-68.1" font-family="Roboto" font-size="8.00" fill="#000000"> </text>
<text text-anchor="start" x="235.5" y="-57.1" font-family="Roboto" font-size="8.00" fill="#000000"> </text>
<text text-anchor="start" x="238.5" y="-57.1" font-family="Roboto" font-size="7.00" fill="#000000">de.lmu.ifi.dbs.elki.database.ids</text>
<text text-anchor="start" x="337.5" y="-57.1" font-family="Roboto" font-size="8.00" fill="#000000"> </text>
</a>
</g>
</a>
</g>
</g>
<!-- c6810906 -->
<g id="node3" class="node">
<title>c6810906</title>
<g id="a_node3"><a xlink:href="../datastore/DoubleDataStore.html" xlink:title="&lt;TABLE&gt;">
<g id="a_node3_3"><a xlink:href="../datastore/DoubleDataStore.html" xlink:title="de.lmu.ifi.dbs.elki.database.datastore.DoubleDataStore" target="_parent">
<polygon fill="none" stroke="#000000" points="221.5,.5 221.5,-38.5 354.5,-38.5 354.5,.5 221.5,.5"/>
<text text-anchor="start" x="266.5" y="-28.1" font-family="Roboto" font-size="8.00" fill="#000000"> «interface» </text>
<text text-anchor="start" x="255" y="-18.1" font-family="Roboto" font-size="8.00" fill="#000000"> </text>
<text text-anchor="start" x="258" y="-18.1" font-family="Roboto" font-size="8.00" fill="#000000">DoubleDataStore</text>
<text text-anchor="start" x="318" y="-18.1" font-family="Roboto" font-size="8.00" fill="#000000"> </text>
<text text-anchor="start" x="225.5" y="-7.1" font-family="Roboto" font-size="8.00" fill="#000000"> </text>
<text text-anchor="start" x="228.5" y="-7.1" font-family="Roboto" font-size="7.00" fill="#000000">de.lmu.ifi.dbs.elki.database.datastore</text>
<text text-anchor="start" x="347.5" y="-7.1" font-family="Roboto" font-size="8.00" fill="#000000"> </text>
</a>
</g>
</a>
</g>
</g>
<!-- c6811769 -->
<g id="node4" class="node">
<title>c6811769</title>
<g id="a_node4"><a xlink:href="AbstractRelation.html" xlink:title="&lt;TABLE&gt;">
<g id="a_node4_4"><a xlink:href="AbstractRelation.html" xlink:title="de.lmu.ifi.dbs.elki.database.relation.AbstractRelation" target="_parent">
<polygon fill="none" stroke="#000000" points="0,-35.5 0,-52.5 72,-52.5 72,-35.5 0,-35.5"/>
<text text-anchor="start" x="4" y="-43.1" font-family="Roboto" font-size="8.00" fill="#000000"> </text>
<text text-anchor="start" x="7" y="-43.1" font-family="Roboto" font-style="italic" font-size="8.00" fill="#000000">AbstractRelation</text>
<text text-anchor="start" x="65" y="-43.1" font-family="Roboto" font-size="8.00" fill="#000000"> </text>
</a>
</g>
</a>
</g>
</g>
<!-- c6811769&#45;&gt;c6811773 -->
<g id="edge1" class="edge">
<title>c6811769&#45;&gt;c6811773</title>
<path fill="none" stroke="#000000" d="M82.2579,-44.5C84.7566,-44.5 87.2805,-44.5 89.8085,-44.5"/>
<polygon fill="none" stroke="#000000" points="82.1819,-41.0001 72.1818,-44.5 82.1818,-48.0001 82.1819,-41.0001"/>
</g>
<!-- c6811773&#45;&gt;c6810856 -->
<g id="edge4" class="edge">
<title>c6811773&#45;&gt;c6810856</title>
<path fill="none" stroke="#000000" d="M194.6298,-53.0337C203.0926,-54.5341 212.0351,-56.1197 220.8954,-57.6907"/>
<polygon fill="#000000" stroke="#000000" points="230.8339,-59.4528 220.2018,-62.1378 225.9107,-58.5799 220.9875,-57.7069 220.9875,-57.7069 220.9875,-57.7069 225.9107,-58.5799 221.7732,-53.276 230.8339,-59.4528 230.8339,-59.4528"/>
</g>
<!-- c6811773&#45;&gt;c6810906 -->
<g id="edge3" class="edge">
<title>c6811773&#45;&gt;c6810906</title>
<path fill="none" stroke="#000000" d="M194.6298,-35.9663C199.9152,-35.0292 205.3876,-34.0589 210.9103,-33.0797"/>
<polygon fill="#000000" stroke="#000000" points="220.8758,-31.3128 211.815,-37.4896 215.9526,-32.1858 211.0294,-33.0587 211.0294,-33.0587 211.0294,-33.0587 215.9526,-32.1858 210.2437,-28.6278 220.8758,-31.3128 220.8758,-31.3128"/>
</g>
</g>
</svg>
