<?xml version="1.0" encoding="UTF-8" standalone="no"?>
<!DOCTYPE svg PUBLIC "-//W3C//DTD SVG 1.1//EN"
 "http://www.w3.org/Graphics/SVG/1.1/DTD/svg11.dtd">
<!-- Generated by graphviz version 2.40.1 (20161225.0304)
 -->
<!-- Title: G Pages: 1 -->
<svg width="217pt" height="53pt"
 viewBox="0.00 0.00 217.00 53.00" xmlns="http://www.w3.org/2000/svg" xmlns:xlink="http://www.w3.org/1999/xlink">
<g id="graph0" class="graph" transform="scale(1 1) rotate(0) translate(4 49)">
<title>G</title>
<polygon fill="#ffffff" stroke="transparent" points="-4,4 -4,-49 213,-49 213,4 -4,4"/>
<!-- c1364723 -->
<g id="node1" class="node">
<title>c1364723</title>
<g id="a_node1"><a xlink:href="SimpleMessageOverlay.html" xlink:title="&lt;TABLE&gt;">
<g id="a_node1_0"><a xlink:href="SimpleMessageOverlay.html" xlink:title="de.lmu.ifi.dbs.elki.visualization.parallel3d.util.SimpleMessageOverlay" target="_parent">
<polygon fill="none" stroke="#000000" points="112.5,-27.5 112.5,-44.5 209.5,-44.5 209.5,-27.5 112.5,-27.5"/>
<text text-anchor="start" x="116.5" y="-35.1" font-family="Roboto" font-size="8.00" fill="#000000"> </text>
<text text-anchor="start" x="119.5" y="-35.1" font-family="Roboto" font-size="8.00" fill="#000000">SimpleMessageOverlay</text>
<text text-anchor="start" x="202.5" y="-35.1" font-family="Roboto" font-size="8.00" fill="#000000"> </text>
</a>
</g>
</a>
</g>
</g>
<!-- c1364724 -->
<g id="node2" class="node">
<title>c1364724</title>
<g id="a_node2"><a xlink:href="AbstractSimpleOverlay.html" xlink:title="&lt;TABLE&gt;">
<g id="a_node2_1"><a xlink:href="AbstractSimpleOverlay.html" xlink:title="de.lmu.ifi.dbs.elki.visualization.parallel3d.util.AbstractSimpleOverlay" target="_parent">
<polygon fill="#fffacd" stroke="transparent" points="0,-14 0,-31 94,-31 94,-14 0,-14"/>
<polygon fill="none" stroke="#000000" points="0,-13.5 0,-30.5 94,-30.5 94,-13.5 0,-13.5"/>
<text text-anchor="start" x="4" y="-21.1" font-family="Roboto" font-size="8.00" fill="#000000"> </text>
<text text-anchor="start" x="7" y="-21.1" font-family="Roboto" font-style="italic" font-size="8.00" fill="#000000">AbstractSimpleOverlay</text>
<text text-anchor="start" x="87" y="-21.1" font-family="Roboto" font-size="8.00" fill="#000000"> </text>
</a>
</g>
</a>
</g>
</g>
<!-- c1364724&#45;&gt;c1364723 -->
<g id="edge1" class="edge">
<title>c1364724&#45;&gt;c1364723</title>
<path fill="none" stroke="#000000" d="M104.102,-29.5434C106.6933,-29.863 109.2836,-30.1826 111.8513,-30.4993"/>
<polygon fill="none" stroke="#000000" points="104.5015,-26.0663 94.1482,-28.3156 103.6445,-33.0136 104.5015,-26.0663"/>
</g>
<!-- c1364727 -->
<g id="node3" class="node">
<title>c1364727</title>
<g id="a_node3"><a xlink:href="SimpleMenuOverlay.html" xlink:title="&lt;TABLE&gt;">
<g id="a_node3_2"><a xlink:href="SimpleMenuOverlay.html" xlink:title="de.lmu.ifi.dbs.elki.visualization.parallel3d.util.SimpleMenuOverlay" target="_parent">
<polygon fill="none" stroke="#000000" points="118.5,.5 118.5,-16.5 202.5,-16.5 202.5,.5 118.5,.5"/>
<text text-anchor="start" x="122.5" y="-7.1" font-family="Roboto" font-size="8.00" fill="#000000"> </text>
<text text-anchor="start" x="125.5" y="-7.1" font-family="Roboto" font-style="italic" font-size="8.00" fill="#000000">SimpleMenuOverlay</text>
<text text-anchor="start" x="195.5" y="-7.1" font-family="Roboto" font-size="8.00" fill="#000000"> </text>
</a>
</g>
</a>
</g>
</g>
<!-- c1364724&#45;&gt;c1364727 -->
<g id="edge2" class="edge">
<title>c1364724&#45;&gt;c1364727</title>
<path fill="none" stroke="#000000" d="M104.4143,-15.4181C109.1224,-14.8373 113.8243,-14.2574 118.3905,-13.6941"/>
<polygon fill="none" stroke="#000000" points="103.6445,-11.9864 94.1482,-16.6844 104.5015,-18.9338 103.6445,-11.9864"/>
</g>
</g>
</svg>
