<?xml version="1.0" encoding="UTF-8" standalone="no"?>
<!DOCTYPE svg PUBLIC "-//W3C//DTD SVG 1.1//EN"
 "http://www.w3.org/Graphics/SVG/1.1/DTD/svg11.dtd">
<!-- Generated by graphviz version 2.40.1 (20161225.0304)
 -->
<!-- Title: G Pages: 1 -->
<svg width="648pt" height="164pt"
 viewBox="0.00 0.00 648.00 164.03" xmlns="http://www.w3.org/2000/svg" xmlns:xlink="http://www.w3.org/1999/xlink">
<g id="graph0" class="graph" transform="scale(1 1) rotate(0) translate(4 160.0265)">
<title>G</title>
<polygon fill="#ffffff" stroke="transparent" points="-4,4 -4,-160.0265 644,-160.0265 644,4 -4,4"/>
<!-- c3298928 -->
<g id="node1" class="node">
<title>c3298928</title>
<g id="a_node1"><a xlink:href="DiSHPreferenceVectorIndex.html" xlink:title="&lt;TABLE&gt;">
<g id="a_node1_0"><a xlink:href="DiSHPreferenceVectorIndex.html" xlink:title="de.lmu.ifi.dbs.elki.index.preprocessed.preference.DiSHPreferenceVectorIndex" target="_parent">
<polygon fill="#fffacd" stroke="transparent" points="369,-52 369,-69 480,-69 480,-52 369,-52"/>
<polygon fill="none" stroke="#000000" points="369.5,-51.5 369.5,-68.5 480.5,-68.5 480.5,-51.5 369.5,-51.5"/>
<text text-anchor="start" x="373.5" y="-59.1" font-family="Roboto" font-size="8.00" fill="#000000"> </text>
<text text-anchor="start" x="376.5" y="-59.1" font-family="Roboto" font-size="8.00" fill="#000000">DiSHPreferenceVectorIndex</text>
<text text-anchor="start" x="473.5" y="-59.1" font-family="Roboto" font-size="8.00" fill="#000000"> </text>
</a>
</g>
</a>
</g>
</g>
<!-- c3298929 -->
<g id="node2" class="node">
<title>c3298929</title>
<g id="a_node2"><a xlink:href="DiSHPreferenceVectorIndex.Strategy.html" xlink:title="&lt;TABLE&gt;">
<g id="a_node2_1"><a xlink:href="DiSHPreferenceVectorIndex.Strategy.html" xlink:title="de.lmu.ifi.dbs.elki.index.preprocessed.preference.DiSHPreferenceVectorIndex.Strategy" target="_parent">
<polygon fill="none" stroke="#000000" points="499.5,-54.5 499.5,-82.5 640.5,-82.5 640.5,-54.5 499.5,-54.5"/>
<text text-anchor="start" x="542" y="-72.1" font-family="Roboto" font-size="8.00" fill="#000000"> «enumeration» </text>
<text text-anchor="start" x="503.5" y="-62.1" font-family="Roboto" font-size="8.00" fill="#000000"> </text>
<text text-anchor="start" x="506.5" y="-62.1" font-family="Roboto" font-size="8.00" fill="#000000">DiSHPreferenceVectorIndex.Strategy</text>
<text text-anchor="start" x="633.5" y="-62.1" font-family="Roboto" font-size="8.00" fill="#000000"> </text>
</a>
</g>
</a>
</g>
</g>
<!-- c3298928&#45;&gt;c3298929 -->
<g id="edge6" class="edge">
<title>c3298928&#45;&gt;c3298929</title>
<path fill="none" stroke="#000000" d="M480.1461,-63.5701C482.8964,-63.7219 485.681,-63.8755 488.4828,-64.0301"/>
<polygon fill="#000000" stroke="#000000" points="498.6725,-64.5923 488.4398,-68.5345 493.6801,-64.3168 488.6877,-64.0413 488.6877,-64.0413 488.6877,-64.0413 493.6801,-64.3168 488.9357,-59.5481 498.6725,-64.5923 498.6725,-64.5923"/>
</g>
<!-- c3300079 -->
<g id="node7" class="node">
<title>c3300079</title>
<g id="a_node7"><a xlink:href="../../../data/NumberVector.html" xlink:title="&lt;TABLE&gt;">
<g id="a_node7_2"><a xlink:href="../../../data/NumberVector.html" xlink:title="de.lmu.ifi.dbs.elki.data.NumberVector" target="_parent">
<polygon fill="#fffacd" stroke="transparent" points="526,0 526,-39 613,-39 613,0 526,0"/>
<polygon fill="none" stroke="#000000" points="526.5,.5 526.5,-38.5 613.5,-38.5 613.5,.5 526.5,.5"/>
<text text-anchor="start" x="548.5" y="-28.1" font-family="Roboto" font-size="8.00" fill="#000000"> «interface» </text>
<text text-anchor="start" x="541.5" y="-18.1" font-family="Roboto" font-size="8.00" fill="#000000"> </text>
<text text-anchor="start" x="544.5" y="-18.1" font-family="Roboto" font-size="8.00" fill="#000000">NumberVector</text>
<text text-anchor="start" x="595.5" y="-18.1" font-family="Roboto" font-size="8.00" fill="#000000"> </text>
<text text-anchor="start" x="530.5" y="-7.1" font-family="Roboto" font-size="8.00" fill="#000000"> </text>
<text text-anchor="start" x="533.5" y="-7.1" font-family="Roboto" font-size="7.00" fill="#000000">de.lmu.ifi.dbs.elki.data</text>
<text text-anchor="start" x="606.5" y="-7.1" font-family="Roboto" font-size="8.00" fill="#000000"> </text>
</a>
</g>
</a>
</g>
</g>
<!-- c3298928&#45;&gt;c3300079 -->
<g id="edge9" class="edge">
<title>c3298928&#45;&gt;c3300079</title>
<path fill="none" stroke="#000000" stroke-dasharray="5,2" d="M454.8968,-51.9051C472.676,-46.8778 495.6249,-40.3888 516.3113,-34.5396"/>
<polygon fill="#000000" stroke="#000000" points="525.9399,-31.817 517.5417,-38.8682 521.1286,-33.1775 516.3172,-34.538 516.3172,-34.538 516.3172,-34.538 521.1286,-33.1775 515.0928,-30.2077 525.9399,-31.817 525.9399,-31.817"/>
</g>
<!-- c3298930 -->
<g id="node3" class="node">
<title>c3298930</title>
<g id="a_node3"><a xlink:href="DiSHPreferenceVectorIndex.Factory.html" xlink:title="&lt;TABLE&gt;">
<g id="a_node3_3"><a xlink:href="DiSHPreferenceVectorIndex.Factory.html" xlink:title="de.lmu.ifi.dbs.elki.index.preprocessed.preference.DiSHPreferenceVectorIndex.Factory" target="_parent">
<polygon fill="none" stroke="#000000" points="192,-123.5 192,-151.5 330,-151.5 330,-123.5 192,-123.5"/>
<text text-anchor="start" x="242.5" y="-141.1" font-family="Roboto" font-size="8.00" fill="#000000"> «factory» </text>
<text text-anchor="start" x="196" y="-131.1" font-family="Roboto" font-size="8.00" fill="#000000"> </text>
<text text-anchor="start" x="199" y="-131.1" font-family="Roboto" font-size="8.00" fill="#000000">DiSHPreferenceVectorIndex.Factory</text>
<text text-anchor="start" x="323" y="-131.1" font-family="Roboto" font-size="8.00" fill="#000000"> </text>
</a>
</g>
</a>
</g>
</g>
<!-- c3298930&#45;&gt;c3298928 -->
<g id="edge3" class="edge">
<title>c3298930&#45;&gt;c3298928</title>
<path fill="none" stroke="#000000" d="M330.0617,-125.0133C340.372,-121.945 350.6634,-118.1588 360,-113.5 361.3355,-112.8336 387.6704,-91.0702 406.2716,-75.6426"/>
<polygon fill="#000000" stroke="#000000" points="414.1562,-69.0986 409.3352,-78.9479 410.3087,-72.2919 406.4612,-75.4852 406.4612,-75.4852 406.4612,-75.4852 410.3087,-72.2919 403.5873,-72.0225 414.1562,-69.0986 414.1562,-69.0986"/>
<text text-anchor="middle" x="349.5" y="-123.9" font-family="Roboto" font-size="7.00" fill="#000000">create</text>
</g>
<!-- c3298930&#45;&gt;c3298929 -->
<g id="edge7" class="edge">
<title>c3298930&#45;&gt;c3298929</title>
<path fill="none" stroke="#000000" d="M318.7023,-151.5202C325.5095,-152.7446 332.3857,-153.7876 339,-154.5 395.6877,-160.6058 482.4437,-132.8947 490,-129.5 511.5571,-119.8154 532.6216,-103.2326 547.6462,-89.7995"/>
<polygon fill="#000000" stroke="#000000" points="555.3366,-82.7245 551.0239,-92.8067 551.6569,-86.1097 547.9772,-89.495 547.9772,-89.495 547.9772,-89.495 551.6569,-86.1097 544.9305,-86.1832 555.3366,-82.7245 555.3366,-82.7245"/>
</g>
<!-- c3298930&#45;&gt;c3300079 -->
<g id="edge10" class="edge">
<title>c3298930&#45;&gt;c3300079</title>
<path fill="none" stroke="#000000" stroke-dasharray="5,2" d="M330.2312,-136.6961C340.3149,-135.602 350.4951,-133.9472 360,-131.5 417.1795,-116.7784 434.1701,-111.7269 480,-74.5 490.8325,-65.701 487.9889,-58.0744 499,-49.5 504.359,-45.3269 510.385,-41.625 516.5988,-38.3724"/>
<polygon fill="#000000" stroke="#000000" points="525.7811,-33.9257 518.7422,-42.3343 521.281,-36.105 516.7809,-38.2842 516.7809,-38.2842 516.7809,-38.2842 521.281,-36.105 514.8196,-34.2341 525.7811,-33.9257 525.7811,-33.9257"/>
</g>
<!-- c3299092 -->
<g id="node4" class="node">
<title>c3299092</title>
<g id="a_node4"><a xlink:href="../../../algorithm/clustering/subspace/DiSH.html" xlink:title="&lt;TABLE&gt;">
<g id="a_node4_4"><a xlink:href="../../../algorithm/clustering/subspace/DiSH.html" xlink:title="de.lmu.ifi.dbs.elki.algorithm.clustering.subspace.DiSH" target="_parent">
<polygon fill="none" stroke="#000000" points=".5,-92.5 .5,-120.5 173.5,-120.5 173.5,-92.5 .5,-92.5"/>
<text text-anchor="start" x="74.5" y="-111.1" font-family="Roboto" font-size="8.00" fill="#000000"> </text>
<text text-anchor="start" x="77.5" y="-111.1" font-family="Roboto" font-size="8.00" fill="#000000">DiSH</text>
<text text-anchor="start" x="96.5" y="-111.1" font-family="Roboto" font-size="8.00" fill="#000000"> </text>
<text text-anchor="start" x="4.5" y="-100.1" font-family="Roboto" font-size="8.00" fill="#000000"> </text>
<text text-anchor="start" x="7.5" y="-100.1" font-family="Roboto" font-size="7.00" fill="#000000">de.lmu.ifi.dbs.elki.algorithm.clustering.subspace</text>
<text text-anchor="start" x="166.5" y="-100.1" font-family="Roboto" font-size="8.00" fill="#000000"> </text>
</a>
</g>
</a>
</g>
</g>
<!-- c3299092&#45;&gt;c3298928 -->
<g id="edge4" class="edge">
<title>c3299092&#45;&gt;c3298928</title>
<path fill="none" stroke="#000000" d="M173.1813,-110.996C227.6607,-111.644 298.9387,-108.4721 360,-92.5 378.8657,-87.5652 398.6902,-76.7619 411.2993,-69.0748"/>
</g>
<!-- c3299092&#45;&gt;c3298930 -->
<g id="edge8" class="edge">
<title>c3299092&#45;&gt;c3298930</title>
<path fill="none" stroke="#000000" d="M165.3264,-120.5035C170.8585,-121.4863 176.4362,-122.4772 181.9694,-123.4602"/>
<polygon fill="#000000" stroke="#000000" points="191.8617,-125.2175 181.2287,-127.899 186.9387,-124.3429 182.0158,-123.4683 182.0158,-123.4683 182.0158,-123.4683 186.9387,-124.3429 182.803,-119.0377 191.8617,-125.2175 191.8617,-125.2175"/>
</g>
<!-- c3299092&#45;&gt;c3300079 -->
<g id="edge11" class="edge">
<title>c3299092&#45;&gt;c3300079</title>
<path fill="none" stroke="#000000" stroke-dasharray="5,2" d="M146.0421,-92.488C203.0403,-79.3993 291.5608,-59.9181 369,-46.5 418.5054,-37.9221 475.2887,-30.5002 515.7591,-25.6207"/>
<polygon fill="#000000" stroke="#000000" points="525.9414,-24.4051 516.5454,-30.0588 520.9767,-24.9978 516.012,-25.5906 516.012,-25.5906 516.012,-25.5906 520.9767,-24.9978 515.4785,-21.1223 525.9414,-24.4051 525.9414,-24.4051"/>
</g>
<!-- c3299427 -->
<g id="node5" class="node">
<title>c3299427</title>
<g id="a_node5"><a xlink:href="PreferenceVectorIndex.html" xlink:title="&lt;TABLE&gt;">
<g id="a_node5_5"><a xlink:href="PreferenceVectorIndex.html" xlink:title="de.lmu.ifi.dbs.elki.index.preprocessed.preference.PreferenceVectorIndex" target="_parent">
<polygon fill="none" stroke="#000000" points="40.5,-36.5 40.5,-64.5 132.5,-64.5 132.5,-36.5 40.5,-36.5"/>
<text text-anchor="start" x="65" y="-54.1" font-family="Roboto" font-size="8.00" fill="#000000"> «interface» </text>
<text text-anchor="start" x="44.5" y="-44.1" font-family="Roboto" font-size="8.00" fill="#000000"> </text>
<text text-anchor="start" x="47.5" y="-44.1" font-family="Roboto" font-size="8.00" fill="#000000">PreferenceVectorIndex</text>
<text text-anchor="start" x="125.5" y="-44.1" font-family="Roboto" font-size="8.00" fill="#000000"> </text>
</a>
</g>
</a>
</g>
</g>
<!-- c3299427&#45;&gt;c3298928 -->
<g id="edge2" class="edge">
<title>c3299427&#45;&gt;c3298928</title>
<path fill="none" stroke="#000000" stroke-dasharray="5,2" d="M142.9082,-52.1689C205.6963,-54.0265 306.5237,-57.0096 368.959,-58.8568"/>
<polygon fill="none" stroke="#000000" points="142.8879,-48.6668 132.7887,-51.8695 142.6808,-55.6638 142.8879,-48.6668"/>
</g>
<!-- c3299429 -->
<g id="node6" class="node">
<title>c3299429</title>
<g id="a_node6"><a xlink:href="AbstractPreferenceVectorIndex.html" xlink:title="&lt;TABLE&gt;">
<g id="a_node6_6"><a xlink:href="AbstractPreferenceVectorIndex.html" xlink:title="de.lmu.ifi.dbs.elki.index.preprocessed.preference.AbstractPreferenceVectorIndex" target="_parent">
<polygon fill="none" stroke="#000000" points="200,-25.5 200,-42.5 323,-42.5 323,-25.5 200,-25.5"/>
<text text-anchor="start" x="204" y="-33.1" font-family="Roboto" font-size="8.00" fill="#000000"> </text>
<text text-anchor="start" x="207" y="-33.1" font-family="Roboto" font-style="italic" font-size="8.00" fill="#000000">AbstractPreferenceVectorIndex</text>
<text text-anchor="start" x="316" y="-33.1" font-family="Roboto" font-size="8.00" fill="#000000"> </text>
</a>
</g>
</a>
</g>
</g>
<!-- c3299427&#45;&gt;c3299429 -->
<g id="edge5" class="edge">
<title>c3299427&#45;&gt;c3299429</title>
<path fill="none" stroke="#000000" stroke-dasharray="5,2" d="M142.8758,-45.3309C160.9097,-43.6773 180.9638,-41.8386 199.3531,-40.1524"/>
<polygon fill="none" stroke="#000000" points="142.4433,-41.8558 132.8047,-46.2543 143.0825,-48.8265 142.4433,-41.8558"/>
</g>
<!-- c3299427&#45;&gt;c3300079 -->
<g id="edge12" class="edge">
<title>c3299427&#45;&gt;c3300079</title>
<path fill="none" stroke="#000000" stroke-dasharray="5,2" d="M127.0498,-36.3549C146.4495,-30.2658 170.1586,-23.797 192,-20.5 306.1137,-3.2743 441.8509,-9.2729 515.4725,-14.6962"/>
<polygon fill="#000000" stroke="#000000" points="525.874,-15.4894 515.5608,-19.2159 520.8885,-15.1092 515.903,-14.7289 515.903,-14.7289 515.903,-14.7289 520.8885,-15.1092 516.2452,-10.242 525.874,-15.4894 525.874,-15.4894"/>
</g>
<!-- c3299429&#45;&gt;c3298928 -->
<g id="edge1" class="edge">
<title>c3299429&#45;&gt;c3298928</title>
<path fill="none" stroke="#000000" d="M324.4543,-44.5906C339.7824,-47.0281 356.015,-49.6094 370.8437,-51.9675"/>
<polygon fill="none" stroke="#000000" points="324.9616,-41.1274 314.536,-43.0134 323.8622,-48.0405 324.9616,-41.1274"/>
</g>
<!-- c3299429&#45;&gt;c3300079 -->
<g id="edge13" class="edge">
<title>c3299429&#45;&gt;c3300079</title>
<path fill="none" stroke="#000000" stroke-dasharray="5,2" d="M322.6376,-27.6429C368.6873,-23.1409 433.2094,-18.1428 490,-18.5 498.2429,-18.5518 506.9663,-18.6339 515.4974,-18.7293"/>
<polygon fill="#000000" stroke="#000000" points="525.763,-18.8511 515.7102,-23.232 520.7633,-18.7917 515.7637,-18.7324 515.7637,-18.7324 515.7637,-18.7324 520.7633,-18.7917 515.8171,-14.2327 525.763,-18.8511 525.763,-18.8511"/>
</g>
</g>
</svg>
