<?xml version="1.0" encoding="UTF-8" standalone="no"?><svg xmlns="http://www.w3.org/2000/svg" xmlns:xlink="http://www.w3.org/1999/xlink" contentStyleType="text/css" height="219px" preserveAspectRatio="none" style="width:367px;height:219px;background:#FFFFFF;" version="1.1" viewBox="0 0 367 219" width="367px" zoomAndPan="magnify"><defs/><g><!--MD5=[792969a2056e461f9efe3a1409f108cf]
class elki.result.textwriter.writers.TextWriterDoubleArray--><a href="TextWriterDoubleArray.html" target="_top" title="TextWriterDoubleArray.html" xlink:actuate="onRequest" xlink:href="TextWriterDoubleArray.html" xlink:show="new" xlink:title="TextWriterDoubleArray.html" xlink:type="simple"><g id="elem_elki.result.textwriter.writers.TextWriterDoubleArray"><rect codeLine="6" fill="#F1F1F1" height="62.2344" id="elki.result.textwriter.writers.TextWriterDoubleArray" rx="2.5" ry="2.5" style="stroke:#181818;stroke-width:0.5;" width="339" x="12" y="132"/><ellipse cx="100.25" cy="150.9688" fill="#ADD1B2" rx="11" ry="11" style="stroke:#181818;stroke-width:1.0;"/><path d="M103.2188,156.6094 Q102.6406,156.9063 102,157.0469 Q101.3594,157.2031 100.6563,157.2031 Q98.1563,157.2031 96.8281,155.5625 Q95.5156,153.9063 95.5156,150.7813 Q95.5156,147.6563 96.8281,146 Q98.1563,144.3438 100.6563,144.3438 Q101.3594,144.3438 102,144.5 Q102.6563,144.6563 103.2188,144.9531 L103.2188,147.6719 Q102.5938,147.0938 102,146.8281 Q101.4063,146.5469 100.7813,146.5469 Q99.4375,146.5469 98.75,147.625 Q98.0625,148.6875 98.0625,150.7813 Q98.0625,152.875 98.75,153.9531 Q99.4375,155.0156 100.7813,155.0156 Q101.4063,155.0156 102,154.75 Q102.5938,154.4688 103.2188,153.8906 L103.2188,156.6094 Z " fill="#000000"/><text fill="#000000" font-family="sans-serif" font-size="14" lengthAdjust="spacing" textLength="154" x="120.75" y="149.9951">TextWriterDoubleArray</text><text fill="#000000" font-family="sans-serif" font-size="10" lengthAdjust="spacing" textLength="132" x="131.75" y="162.5791">elki.result.textwriter.writers</text><line style="stroke:#181818;stroke-width:0.5;" x1="13" x2="350" y1="169.9375" y2="169.9375"/><ellipse cx="23" cy="183.5859" fill="#84BE84" rx="3" ry="3" style="stroke:#038048;stroke-width:1.0;"/><text fill="#000000" font-family="sans-serif" font-size="14" lengthAdjust="spacing" textLength="313" x="32" y="186.9326">write(TextWriterStream, String, double[]): void</text></g></a><!--MD5=[f25ec50f0f54fdf13b81573d6f45a7ab]
class elki.result.textwriter.TextWriterWriterInterface--><a href="../TextWriterWriterInterface.html" target="_top" title="../TextWriterWriterInterface.html" xlink:actuate="onRequest" xlink:href="../TextWriterWriterInterface.html" xlink:show="new" xlink:title="../TextWriterWriterInterface.html" xlink:type="simple"><g id="elem_elki.result.textwriter.TextWriterWriterInterface"><rect codeLine="10" fill="#F1F1F1" height="62.2344" id="elki.result.textwriter.TextWriterWriterInterface" rx="2.5" ry="2.5" style="stroke:#181818;stroke-width:0.5;" width="349" x="7" y="10"/><ellipse cx="60.75" cy="28.9688" fill="#A9DCDF" rx="11" ry="11" style="stroke:#181818;stroke-width:1.0;"/><path d="M60.8594,24.3125 L59.7031,29.3906 L62.0313,29.3906 L60.8594,24.3125 Z M59.375,22.0781 L62.3594,22.0781 L65.7188,34.4688 L63.2656,34.4688 L62.5,31.4063 L59.2188,31.4063 L58.4688,34.4688 L56.0313,34.4688 L59.375,22.0781 Z " fill="#000000"/><text fill="#000000" font-family="sans-serif" font-size="14" font-style="italic" lengthAdjust="spacing" textLength="178" x="81.25" y="27.9951">TextWriterWriterInterface</text><text fill="#000000" font-family="sans-serif" font-size="10" font-style="italic" lengthAdjust="spacing" textLength="101" x="119.75" y="40.5791">elki.result.textwriter</text><rect fill="#FFFFFF" height="15.9688" style="stroke:#181818;stroke-width:1.0;stroke-dasharray:2.0,2.0;" width="53" x="306" y="7"/><text fill="#000000" font-family="sans-serif" font-size="12" font-style="italic" lengthAdjust="spacing" textLength="51" x="307" y="19.1387">double[]</text><line style="stroke:#181818;stroke-width:0.5;" x1="8" x2="355" y1="47.9375" y2="47.9375"/><ellipse cx="18" cy="61.5859" fill="#84BE84" rx="3" ry="3" style="stroke:#038048;stroke-width:1.0;"/><text fill="#000000" font-family="sans-serif" font-size="14" font-style="italic" lengthAdjust="spacing" textLength="323" x="27" y="64.9326">write(TextWriterStream, String, double[]): void</text></g></a><!--MD5=[c1b5913e098bdd205055c66520b33bd5]
reverse link elki.result.textwriter.TextWriterWriterInterface to elki.result.textwriter.writers.TextWriterDoubleArray--><g id="link_elki.result.textwriter.TextWriterWriterInterface_elki.result.textwriter.writers.TextWriterDoubleArray"><path codeLine="14" d="M181.5,92.37 C181.5,105.75 181.5,119.79 181.5,131.73 " fill="none" id="elki.result.textwriter.TextWriterWriterInterface-backto-elki.result.textwriter.writers.TextWriterDoubleArray" style="stroke:#181818;stroke-width:1.0;"/><polygon fill="none" points="174.5,92.28,181.5,72.28,188.5,92.28,174.5,92.28" style="stroke:#181818;stroke-width:1.0;"/></g><rect fill="none" height="11.6406" style="stroke:none;stroke-width:1.0;" width="186" x="83.5" y="200.2344"/><text fill="#888888" font-family="sans-serif" font-size="10" lengthAdjust="spacing" textLength="186" x="83.5" y="209.5166">UMLDoclet 2.0.19, PlantUML 1.2022.8</text><!--MD5=[62f33e6890acf6994789da73b0eb3601]
@startuml
    remove .*\.(Instance|Par|Parameterizer|Factory)$
    set namespaceSeparator none
    hide empty fields
    hide empty methods

    class "<size:14>TextWriterDoubleArray\n<size:10>elki.result.textwriter.writers" as elki.result.textwriter.writers.TextWriterDoubleArray [[TextWriterDoubleArray.html]] {
        +write(TextWriterStream, String, double[]): void
    }

    abstract class "<size:14>TextWriterWriterInterface\n<size:10>elki.result.textwriter" as elki.result.textwriter.TextWriterWriterInterface<double[]> [[../TextWriterWriterInterface.html]] {
        {abstract} +write(TextWriterStream, String, double[]): void
    }

    elki.result.textwriter.TextWriterWriterInterface <|- - elki.result.textwriter.writers.TextWriterDoubleArray

    center footer UMLDoclet 2.0.19, PlantUML 1.2022.8
@enduml

PlantUML version 1.2022.8(Sun Sep 25 11:00:33 CEST 2022)
(APACHE source distribution)
Java Runtime: OpenJDK Runtime Environment
JVM: OpenJDK 64-Bit Server VM
Default Encoding: UTF-8
Language: de
Country: DE
--></g></svg>