<?xml version="1.0" encoding="UTF-8" standalone="no"?><svg xmlns="http://www.w3.org/2000/svg" xmlns:xlink="http://www.w3.org/1999/xlink" contentStyleType="text/css" height="298px" preserveAspectRatio="none" style="width:348px;height:298px;background:#FFFFFF;" version="1.1" viewBox="0 0 348 298" width="348px" zoomAndPan="magnify"><defs/><g><!--MD5=[6a34acd2b9081744584b8d8ed4af6f55]
class elki.outlier.trivial.ByLabelOutlier--><a href="ByLabelOutlier.html" target="_top" title="ByLabelOutlier.html" xlink:actuate="onRequest" xlink:href="ByLabelOutlier.html" xlink:show="new" xlink:title="ByLabelOutlier.html" xlink:type="simple"><g id="elem_elki.outlier.trivial.ByLabelOutlier"><rect codeLine="6" fill="#F1F1F1" height="168.0156" id="elki.outlier.trivial.ByLabelOutlier" rx="2.5" ry="2.5" style="stroke:#181818;stroke-width:0.5;" width="332" x="9" y="105"/><ellipse cx="121.75" cy="123.9688" fill="#ADD1B2" rx="11" ry="11" style="stroke:#181818;stroke-width:1.0;"/><path d="M124.7188,129.6094 Q124.1406,129.9063 123.5,130.0469 Q122.8594,130.2031 122.1563,130.2031 Q119.6563,130.2031 118.3281,128.5625 Q117.0156,126.9063 117.0156,123.7813 Q117.0156,120.6563 118.3281,119 Q119.6563,117.3438 122.1563,117.3438 Q122.8594,117.3438 123.5,117.5 Q124.1563,117.6563 124.7188,117.9531 L124.7188,120.6719 Q124.0938,120.0938 123.5,119.8281 Q122.9063,119.5469 122.2813,119.5469 Q120.9375,119.5469 120.25,120.625 Q119.5625,121.6875 119.5625,123.7813 Q119.5625,125.875 120.25,126.9531 Q120.9375,128.0156 122.2813,128.0156 Q122.9063,128.0156 123.5,127.75 Q124.0938,127.4688 124.7188,126.8906 L124.7188,129.6094 Z " fill="#000000"/><text fill="#000000" font-family="sans-serif" font-size="14" lengthAdjust="spacing" textLength="98" x="142.25" y="122.9951">ByLabelOutlier</text><text fill="#000000" font-family="sans-serif" font-size="10" lengthAdjust="spacing" textLength="77" x="152.75" y="135.5791">elki.outlier.trivial</text><line style="stroke:#181818;stroke-width:0.5;" x1="10" x2="340" y1="142.9375" y2="142.9375"/><ellipse cx="20" cy="156.5859" fill="none" rx="3" ry="3" style="stroke:#038048;stroke-width:1.0;"/><text fill="#000000" font-family="sans-serif" font-size="14" lengthAdjust="spacing" text-decoration="underline" textLength="184" x="29" y="159.9326">DEFAULT_PATTERN: String</text><polygon fill="none" points="20,168.8828,16,174.8828,24,174.8828" style="stroke:#1963A0;stroke-width:1.0;"/><text fill="#000000" font-family="sans-serif" font-size="14" lengthAdjust="spacing" textLength="109" x="29" y="176.2295">pattern: Pattern</text><line style="stroke:#181818;stroke-width:0.5;" x1="10" x2="340" y1="183.5313" y2="183.5313"/><ellipse cx="20" cy="197.1797" fill="#84BE84" rx="3" ry="3" style="stroke:#038048;stroke-width:1.0;"/><text fill="#000000" font-family="sans-serif" font-size="14" lengthAdjust="spacing" textLength="158" x="29" y="200.5264">ByLabelOutlier(Pattern)</text><ellipse cx="20" cy="213.4766" fill="#84BE84" rx="3" ry="3" style="stroke:#038048;stroke-width:1.0;"/><text fill="#000000" font-family="sans-serif" font-size="14" lengthAdjust="spacing" textLength="108" x="29" y="216.8232">ByLabelOutlier()</text><ellipse cx="20" cy="229.7734" fill="#84BE84" rx="3" ry="3" style="stroke:#038048;stroke-width:1.0;"/><text fill="#000000" font-family="sans-serif" font-size="14" lengthAdjust="spacing" textLength="306" x="29" y="233.1201">getInputTypeRestriction(): TypeInformation[]</text><ellipse cx="20" cy="246.0703" fill="#84BE84" rx="3" ry="3" style="stroke:#038048;stroke-width:1.0;"/><text fill="#000000" font-family="sans-serif" font-size="14" lengthAdjust="spacing" textLength="228" x="29" y="249.417">autorun(Database): OutlierResult</text><ellipse cx="20" cy="262.3672" fill="#84BE84" rx="3" ry="3" style="stroke:#038048;stroke-width:1.0;"/><text fill="#000000" font-family="sans-serif" font-size="14" lengthAdjust="spacing" textLength="218" x="29" y="265.7139">run(Relation&lt;?&gt;): OutlierResult</text></g></a><!--MD5=[81019799438b1b9471ca37184b444d57]
class elki.outlier.OutlierAlgorithm--><a href="../OutlierAlgorithm.html" target="_top" title="../OutlierAlgorithm.html" xlink:actuate="onRequest" xlink:href="../OutlierAlgorithm.html" xlink:show="new" xlink:title="../OutlierAlgorithm.html" xlink:type="simple"><g id="elem_elki.outlier.OutlierAlgorithm"><rect codeLine="16" fill="#F1F1F1" height="37.9375" id="elki.outlier.OutlierAlgorithm" rx="2.5" ry="2.5" style="stroke:#181818;stroke-width:0.5;" width="148" x="101" y="7"/><ellipse cx="116" cy="25.9688" fill="#B4A7E5" rx="11" ry="11" style="stroke:#181818;stroke-width:1.0;"/><path d="M111.9219,21.7344 L111.9219,19.5781 L119.3125,19.5781 L119.3125,21.7344 L116.8438,21.7344 L116.8438,29.8125 L119.3125,29.8125 L119.3125,31.9688 L111.9219,31.9688 L111.9219,29.8125 L114.3906,29.8125 L114.3906,21.7344 L111.9219,21.7344 Z " fill="#000000"/><text fill="#000000" font-family="sans-serif" font-size="14" font-style="italic" lengthAdjust="spacing" textLength="116" x="130" y="24.9951">OutlierAlgorithm</text><text fill="#000000" font-family="sans-serif" font-size="10" font-style="italic" lengthAdjust="spacing" textLength="53" x="161.5" y="37.5791">elki.outlier</text></g></a><!--MD5=[376540c26e43e6bf6e5b0721f6eb1958]
reverse link elki.outlier.OutlierAlgorithm to elki.outlier.trivial.ByLabelOutlier--><g id="link_elki.outlier.OutlierAlgorithm_elki.outlier.trivial.ByLabelOutlier"><path codeLine="19" d="M175,65.53 C175,77.44 175,91.04 175,104.75 " fill="none" id="elki.outlier.OutlierAlgorithm-backto-elki.outlier.trivial.ByLabelOutlier" style="stroke:#181818;stroke-width:1.0;stroke-dasharray:7.0,7.0;"/><polygon fill="none" points="168,65.16,175,45.16,182,65.16,168,65.16" style="stroke:#181818;stroke-width:1.0;"/></g><rect fill="none" height="11.6406" style="stroke:none;stroke-width:1.0;" width="186" x="74" y="279.0156"/><text fill="#888888" font-family="sans-serif" font-size="10" lengthAdjust="spacing" textLength="186" x="74" y="288.2979">UMLDoclet 2.0.19, PlantUML 1.2022.8</text><!--MD5=[7fafb84e3befa823fb921b03c479dd88]
@startuml
    remove .*\.(Instance|Par|Parameterizer|Factory)$
    set namespaceSeparator none
    hide empty fields
    hide empty methods

    class "<size:14>ByLabelOutlier\n<size:10>elki.outlier.trivial" as elki.outlier.trivial.ByLabelOutlier [[ByLabelOutlier.html]] {
        {static} +DEFAULT_PATTERN: String
        ~pattern: Pattern
        +ByLabelOutlier(Pattern)
        +ByLabelOutlier()
        +getInputTypeRestriction(): TypeInformation[]
        +autorun(Database): OutlierResult
        +run(Relation<?>): OutlierResult
    }

    interface "<size:14>OutlierAlgorithm\n<size:10>elki.outlier" as elki.outlier.OutlierAlgorithm [[../OutlierAlgorithm.html]]
    class "<size:14>ByLabelOutlier.Par\n<size:10>elki.outlier.trivial" as elki.outlier.trivial.ByLabelOutlier.Par [[ByLabelOutlier.Par.html]]

    elki.outlier.OutlierAlgorithm <|.. elki.outlier.trivial.ByLabelOutlier
    elki.outlier.trivial.ByLabelOutlier +- - elki.outlier.trivial.ByLabelOutlier.Par

    center footer UMLDoclet 2.0.19, PlantUML 1.2022.8
@enduml

PlantUML version 1.2022.8(Sun Sep 25 11:00:33 CEST 2022)
(APACHE source distribution)
Java Runtime: OpenJDK Runtime Environment
JVM: OpenJDK 64-Bit Server VM
Default Encoding: UTF-8
Language: de
Country: DE
--></g></svg>