<?xml version="1.0" encoding="UTF-8" standalone="no"?><svg xmlns="http://www.w3.org/2000/svg" xmlns:xlink="http://www.w3.org/1999/xlink" contentStyleType="text/css" height="209px" preserveAspectRatio="none" style="width:346px;height:209px;background:#FFFFFF;" version="1.1" viewBox="0 0 346 209" width="346px" zoomAndPan="magnify"><defs/><g><!--MD5=[c53fe820443a7887bc88a75748e452da]
class elki.outlier.trivial.TrivialNoOutlier--><a href="TrivialNoOutlier.html" target="_top" title="TrivialNoOutlier.html" xlink:actuate="onRequest" xlink:href="TrivialNoOutlier.html" xlink:show="new" xlink:title="TrivialNoOutlier.html" xlink:type="simple"><g id="elem_elki.outlier.trivial.TrivialNoOutlier"><rect codeLine="6" fill="#F1F1F1" height="78.5313" id="elki.outlier.trivial.TrivialNoOutlier" rx="2.5" ry="2.5" style="stroke:#181818;stroke-width:0.5;" width="332" x="7" y="105"/><ellipse cx="117.75" cy="123.9688" fill="#ADD1B2" rx="11" ry="11" style="stroke:#181818;stroke-width:1.0;"/><path d="M120.7188,129.6094 Q120.1406,129.9063 119.5,130.0469 Q118.8594,130.2031 118.1563,130.2031 Q115.6563,130.2031 114.3281,128.5625 Q113.0156,126.9063 113.0156,123.7813 Q113.0156,120.6563 114.3281,119 Q115.6563,117.3438 118.1563,117.3438 Q118.8594,117.3438 119.5,117.5 Q120.1563,117.6563 120.7188,117.9531 L120.7188,120.6719 Q120.0938,120.0938 119.5,119.8281 Q118.9063,119.5469 118.2813,119.5469 Q116.9375,119.5469 116.25,120.625 Q115.5625,121.6875 115.5625,123.7813 Q115.5625,125.875 116.25,126.9531 Q116.9375,128.0156 118.2813,128.0156 Q118.9063,128.0156 119.5,127.75 Q120.0938,127.4688 120.7188,126.8906 L120.7188,129.6094 Z " fill="#000000"/><text fill="#000000" font-family="sans-serif" font-size="14" lengthAdjust="spacing" textLength="102" x="138.25" y="122.9951">TrivialNoOutlier</text><text fill="#000000" font-family="sans-serif" font-size="10" lengthAdjust="spacing" textLength="77" x="150.75" y="135.5791">elki.outlier.trivial</text><line style="stroke:#181818;stroke-width:0.5;" x1="8" x2="338" y1="142.9375" y2="142.9375"/><ellipse cx="18" cy="156.5859" fill="#84BE84" rx="3" ry="3" style="stroke:#038048;stroke-width:1.0;"/><text fill="#000000" font-family="sans-serif" font-size="14" lengthAdjust="spacing" textLength="306" x="27" y="159.9326">getInputTypeRestriction(): TypeInformation[]</text><ellipse cx="18" cy="172.8828" fill="#84BE84" rx="3" ry="3" style="stroke:#038048;stroke-width:1.0;"/><text fill="#000000" font-family="sans-serif" font-size="14" lengthAdjust="spacing" textLength="218" x="27" y="176.2295">run(Relation&lt;?&gt;): OutlierResult</text></g></a><!--MD5=[81019799438b1b9471ca37184b444d57]
class elki.outlier.OutlierAlgorithm--><a href="../OutlierAlgorithm.html" target="_top" title="../OutlierAlgorithm.html" xlink:actuate="onRequest" xlink:href="../OutlierAlgorithm.html" xlink:show="new" xlink:title="../OutlierAlgorithm.html" xlink:type="simple"><g id="elem_elki.outlier.OutlierAlgorithm"><rect codeLine="11" fill="#F1F1F1" height="37.9375" id="elki.outlier.OutlierAlgorithm" rx="2.5" ry="2.5" style="stroke:#181818;stroke-width:0.5;" width="148" x="99" y="7"/><ellipse cx="114" cy="25.9688" fill="#B4A7E5" rx="11" ry="11" style="stroke:#181818;stroke-width:1.0;"/><path d="M109.9219,21.7344 L109.9219,19.5781 L117.3125,19.5781 L117.3125,21.7344 L114.8438,21.7344 L114.8438,29.8125 L117.3125,29.8125 L117.3125,31.9688 L109.9219,31.9688 L109.9219,29.8125 L112.3906,29.8125 L112.3906,21.7344 L109.9219,21.7344 Z " fill="#000000"/><text fill="#000000" font-family="sans-serif" font-size="14" font-style="italic" lengthAdjust="spacing" textLength="116" x="128" y="24.9951">OutlierAlgorithm</text><text fill="#000000" font-family="sans-serif" font-size="10" font-style="italic" lengthAdjust="spacing" textLength="53" x="159.5" y="37.5791">elki.outlier</text></g></a><!--MD5=[dd6c7a8c97860f3c73b6c12098361b2b]
reverse link elki.outlier.OutlierAlgorithm to elki.outlier.trivial.TrivialNoOutlier--><g id="link_elki.outlier.OutlierAlgorithm_elki.outlier.trivial.TrivialNoOutlier"><path codeLine="13" d="M173,65.24 C173,77.9 173,92 173,104.71 " fill="none" id="elki.outlier.OutlierAlgorithm-backto-elki.outlier.trivial.TrivialNoOutlier" style="stroke:#181818;stroke-width:1.0;stroke-dasharray:7.0,7.0;"/><polygon fill="none" points="166,65.2,173,45.2,180,65.2,166,65.2" style="stroke:#181818;stroke-width:1.0;"/></g><rect fill="none" height="11.6406" style="stroke:none;stroke-width:1.0;" width="186" x="73" y="189.5313"/><text fill="#888888" font-family="sans-serif" font-size="10" lengthAdjust="spacing" textLength="186" x="73" y="198.8135">UMLDoclet 2.0.19, PlantUML 1.2022.8</text><!--MD5=[3ab6446eaf9c4a787aa23a25926467ab]
@startuml
    remove .*\.(Instance|Par|Parameterizer|Factory)$
    set namespaceSeparator none
    hide empty fields
    hide empty methods

    class "<size:14>TrivialNoOutlier\n<size:10>elki.outlier.trivial" as elki.outlier.trivial.TrivialNoOutlier [[TrivialNoOutlier.html]] {
        +getInputTypeRestriction(): TypeInformation[]
        +run(Relation<?>): OutlierResult
    }

    interface "<size:14>OutlierAlgorithm\n<size:10>elki.outlier" as elki.outlier.OutlierAlgorithm [[../OutlierAlgorithm.html]]

    elki.outlier.OutlierAlgorithm <|.. elki.outlier.trivial.TrivialNoOutlier

    center footer UMLDoclet 2.0.19, PlantUML 1.2022.8
@enduml

PlantUML version 1.2022.8(Sun Sep 25 11:00:33 CEST 2022)
(APACHE source distribution)
Java Runtime: OpenJDK Runtime Environment
JVM: OpenJDK 64-Bit Server VM
Default Encoding: UTF-8
Language: de
Country: DE
--></g></svg>