<?xml version="1.0" encoding="UTF-8" standalone="no"?><svg xmlns="http://www.w3.org/2000/svg" xmlns:xlink="http://www.w3.org/1999/xlink" contentStyleType="text/css" height="209px" preserveAspectRatio="none" style="width:422px;height:209px;background:#FFFFFF;" version="1.1" viewBox="0 0 422 209" width="422px" zoomAndPan="magnify"><defs/><g><!--MD5=[8b9f6adfa54e92be486857602a53d4cd]
class elki.outlier.trivial.TrivialAverageCoordinateOutlier--><a href="TrivialAverageCoordinateOutlier.html" target="_top" title="TrivialAverageCoordinateOutlier.html" xlink:actuate="onRequest" xlink:href="TrivialAverageCoordinateOutlier.html" xlink:show="new" xlink:title="TrivialAverageCoordinateOutlier.html" xlink:type="simple"><g id="elem_elki.outlier.trivial.TrivialAverageCoordinateOutlier"><rect codeLine="6" fill="#F1F1F1" height="78.5313" id="elki.outlier.trivial.TrivialAverageCoordinateOutlier" rx="2.5" ry="2.5" style="stroke:#181818;stroke-width:0.5;" width="408" x="7" y="105"/><ellipse cx="99.25" cy="123.9688" fill="#ADD1B2" rx="11" ry="11" style="stroke:#181818;stroke-width:1.0;"/><path d="M102.2188,129.6094 Q101.6406,129.9063 101,130.0469 Q100.3594,130.2031 99.6563,130.2031 Q97.1563,130.2031 95.8281,128.5625 Q94.5156,126.9063 94.5156,123.7813 Q94.5156,120.6563 95.8281,119 Q97.1563,117.3438 99.6563,117.3438 Q100.3594,117.3438 101,117.5 Q101.6563,117.6563 102.2188,117.9531 L102.2188,120.6719 Q101.5938,120.0938 101,119.8281 Q100.4063,119.5469 99.7813,119.5469 Q98.4375,119.5469 97.75,120.625 Q97.0625,121.6875 97.0625,123.7813 Q97.0625,125.875 97.75,126.9531 Q98.4375,128.0156 99.7813,128.0156 Q100.4063,128.0156 101,127.75 Q101.5938,127.4688 102.2188,126.8906 L102.2188,129.6094 Z " fill="#000000"/><text fill="#000000" font-family="sans-serif" font-size="14" lengthAdjust="spacing" textLength="215" x="119.75" y="122.9951">TrivialAverageCoordinateOutlier</text><text fill="#000000" font-family="sans-serif" font-size="10" lengthAdjust="spacing" textLength="77" x="188.75" y="135.5791">elki.outlier.trivial</text><line style="stroke:#181818;stroke-width:0.5;" x1="8" x2="414" y1="142.9375" y2="142.9375"/><ellipse cx="18" cy="156.5859" fill="#84BE84" rx="3" ry="3" style="stroke:#038048;stroke-width:1.0;"/><text fill="#000000" font-family="sans-serif" font-size="14" lengthAdjust="spacing" textLength="306" x="27" y="159.9326">getInputTypeRestriction(): TypeInformation[]</text><ellipse cx="18" cy="172.8828" fill="#84BE84" rx="3" ry="3" style="stroke:#038048;stroke-width:1.0;"/><text fill="#000000" font-family="sans-serif" font-size="14" lengthAdjust="spacing" textLength="382" x="27" y="176.2295">run(Relation&lt;? extends NumberVector&gt;): OutlierResult</text></g></a><!--MD5=[81019799438b1b9471ca37184b444d57]
class elki.outlier.OutlierAlgorithm--><a href="../OutlierAlgorithm.html" target="_top" title="../OutlierAlgorithm.html" xlink:actuate="onRequest" xlink:href="../OutlierAlgorithm.html" xlink:show="new" xlink:title="../OutlierAlgorithm.html" xlink:type="simple"><g id="elem_elki.outlier.OutlierAlgorithm"><rect codeLine="11" fill="#F1F1F1" height="37.9375" id="elki.outlier.OutlierAlgorithm" rx="2.5" ry="2.5" style="stroke:#181818;stroke-width:0.5;" width="148" x="137" y="7"/><ellipse cx="152" cy="25.9688" fill="#B4A7E5" rx="11" ry="11" style="stroke:#181818;stroke-width:1.0;"/><path d="M147.9219,21.7344 L147.9219,19.5781 L155.3125,19.5781 L155.3125,21.7344 L152.8438,21.7344 L152.8438,29.8125 L155.3125,29.8125 L155.3125,31.9688 L147.9219,31.9688 L147.9219,29.8125 L150.3906,29.8125 L150.3906,21.7344 L147.9219,21.7344 Z " fill="#000000"/><text fill="#000000" font-family="sans-serif" font-size="14" font-style="italic" lengthAdjust="spacing" textLength="116" x="166" y="24.9951">OutlierAlgorithm</text><text fill="#000000" font-family="sans-serif" font-size="10" font-style="italic" lengthAdjust="spacing" textLength="53" x="197.5" y="37.5791">elki.outlier</text></g></a><!--MD5=[8c1233281a84d09e51ef8563b9cbeed3]
reverse link elki.outlier.OutlierAlgorithm to elki.outlier.trivial.TrivialAverageCoordinateOutlier--><g id="link_elki.outlier.OutlierAlgorithm_elki.outlier.trivial.TrivialAverageCoordinateOutlier"><path codeLine="13" d="M211,65.24 C211,77.9 211,92 211,104.71 " fill="none" id="elki.outlier.OutlierAlgorithm-backto-elki.outlier.trivial.TrivialAverageCoordinateOutlier" style="stroke:#181818;stroke-width:1.0;stroke-dasharray:7.0,7.0;"/><polygon fill="none" points="204,65.2,211,45.2,218,65.2,204,65.2" style="stroke:#181818;stroke-width:1.0;"/></g><rect fill="none" height="11.6406" style="stroke:none;stroke-width:1.0;" width="186" x="111" y="189.5313"/><text fill="#888888" font-family="sans-serif" font-size="10" lengthAdjust="spacing" textLength="186" x="111" y="198.8135">UMLDoclet 2.0.19, PlantUML 1.2022.8</text><!--MD5=[ac292db61f1e6fd7e2a92d6a5ef578b4]
@startuml
    remove .*\.(Instance|Par|Parameterizer|Factory)$
    set namespaceSeparator none
    hide empty fields
    hide empty methods

    class "<size:14>TrivialAverageCoordinateOutlier\n<size:10>elki.outlier.trivial" as elki.outlier.trivial.TrivialAverageCoordinateOutlier [[TrivialAverageCoordinateOutlier.html]] {
        +getInputTypeRestriction(): TypeInformation[]
        +run(Relation<? extends NumberVector>): OutlierResult
    }

    interface "<size:14>OutlierAlgorithm\n<size:10>elki.outlier" as elki.outlier.OutlierAlgorithm [[../OutlierAlgorithm.html]]

    elki.outlier.OutlierAlgorithm <|.. elki.outlier.trivial.TrivialAverageCoordinateOutlier

    center footer UMLDoclet 2.0.19, PlantUML 1.2022.8
@enduml

PlantUML version 1.2022.8(Sun Sep 25 11:00:33 CEST 2022)
(APACHE source distribution)
Java Runtime: OpenJDK Runtime Environment
JVM: OpenJDK 64-Bit Server VM
Default Encoding: UTF-8
Language: de
Country: DE
--></g></svg>