<?xml version="1.0" encoding="UTF-8" standalone="no"?><svg xmlns="http://www.w3.org/2000/svg" xmlns:xlink="http://www.w3.org/1999/xlink" contentStyleType="text/css" height="285px" preserveAspectRatio="none" style="width:382px;height:285px;background:#FFFFFF;" version="1.1" viewBox="0 0 382 285" width="382px" zoomAndPan="magnify"><defs/><g><!--MD5=[8d0cf2bbeba9ab2d99c959784d0d94ed]
class elki.index.tree.spatial.rstarvariants.rdknn.RdKNNNode--><a href="RdKNNNode.html" target="_top" title="RdKNNNode.html" xlink:actuate="onRequest" xlink:href="RdKNNNode.html" xlink:show="new" xlink:title="RdKNNNode.html" xlink:type="simple"><g id="elem_elki.index.tree.spatial.rstarvariants.rdknn.RdKNNNode"><rect codeLine="6" fill="#F1F1F1" height="151.7188" id="elki.index.tree.spatial.rstarvariants.rdknn.RdKNNNode" rx="2.5" ry="2.5" style="stroke:#181818;stroke-width:0.5;" width="361" x="9" y="108"/><ellipse cx="87.25" cy="126.9688" fill="#ADD1B2" rx="11" ry="11" style="stroke:#181818;stroke-width:1.0;"/><path d="M90.2188,132.6094 Q89.6406,132.9063 89,133.0469 Q88.3594,133.2031 87.6563,133.2031 Q85.1563,133.2031 83.8281,131.5625 Q82.5156,129.9063 82.5156,126.7813 Q82.5156,123.6563 83.8281,122 Q85.1563,120.3438 87.6563,120.3438 Q88.3594,120.3438 89,120.5 Q89.6563,120.6563 90.2188,120.9531 L90.2188,123.6719 Q89.5938,123.0938 89,122.8281 Q88.4063,122.5469 87.7813,122.5469 Q86.4375,122.5469 85.75,123.625 Q85.0625,124.6875 85.0625,126.7813 Q85.0625,128.875 85.75,129.9531 Q86.4375,131.0156 87.7813,131.0156 Q88.4063,131.0156 89,130.75 Q89.5938,130.4688 90.2188,129.8906 L90.2188,132.6094 Z " fill="#000000"/><text fill="#000000" font-family="sans-serif" font-size="14" lengthAdjust="spacing" textLength="85" x="163.25" y="125.9951">RdKNNNode</text><text fill="#000000" font-family="sans-serif" font-size="10" lengthAdjust="spacing" textLength="196" x="107.75" y="138.5791">elki.index.tree.spatial.rstarvariants.rdknn</text><line style="stroke:#181818;stroke-width:0.5;" x1="10" x2="369" y1="145.9375" y2="145.9375"/><rect fill="none" height="6" style="stroke:#C82930;stroke-width:1.0;" width="6" x="17" y="156.5859"/><text fill="#000000" font-family="sans-serif" font-size="14" lengthAdjust="spacing" text-decoration="underline" textLength="151" x="29" y="162.9326">serialVersionUID: long</text><line style="stroke:#181818;stroke-width:0.5;" x1="10" x2="369" y1="170.2344" y2="170.2344"/><ellipse cx="20" cy="183.8828" fill="#84BE84" rx="3" ry="3" style="stroke:#038048;stroke-width:1.0;"/><text fill="#000000" font-family="sans-serif" font-size="14" lengthAdjust="spacing" textLength="95" x="29" y="187.2295">RdKNNNode()</text><ellipse cx="20" cy="200.1797" fill="#84BE84" rx="3" ry="3" style="stroke:#038048;stroke-width:1.0;"/><text fill="#000000" font-family="sans-serif" font-size="14" lengthAdjust="spacing" textLength="176" x="29" y="203.5264">RdKNNNode(int, boolean)</text><polygon fill="#FFFF44" points="20,211.4766,24,215.4766,20,219.4766,16,215.4766" style="stroke:#B38D22;stroke-width:1.0;"/><text fill="#000000" font-family="sans-serif" font-size="14" lengthAdjust="spacing" textLength="156" x="29" y="219.8232">kNNDistance(): double</text><ellipse cx="20" cy="232.7734" fill="#84BE84" rx="3" ry="3" style="stroke:#038048;stroke-width:1.0;"/><text fill="#000000" font-family="sans-serif" font-size="14" lengthAdjust="spacing" textLength="235" x="29" y="236.1201">adjustEntry(RdKNNEntry): boolean</text><polygon fill="#FFFF44" points="20,244.0703,24,248.0703,20,252.0703,16,248.0703" style="stroke:#B38D22;stroke-width:1.0;"/><text fill="#000000" font-family="sans-serif" font-size="14" lengthAdjust="spacing" textLength="335" x="29" y="252.417">integrityCheckParameters(RdKNNNode, int): void</text></g></a><!--MD5=[d249a8e7dbaa4fe5f03483d028aab7a5]
class elki.index.tree.spatial.rstarvariants.AbstractRStarTreeNode--><a href="../AbstractRStarTreeNode.html" target="_top" title="../AbstractRStarTreeNode.html" xlink:actuate="onRequest" xlink:href="../AbstractRStarTreeNode.html" xlink:show="new" xlink:title="../AbstractRStarTreeNode.html" xlink:type="simple"><g id="elem_elki.index.tree.spatial.rstarvariants.AbstractRStarTreeNode"><rect codeLine="15" fill="#F1F1F1" height="37.9375" id="elki.index.tree.spatial.rstarvariants.AbstractRStarTreeNode" rx="2.5" ry="2.5" style="stroke:#181818;stroke-width:0.5;" width="364" x="7.5" y="10"/><ellipse cx="22.5" cy="28.9688" fill="#A9DCDF" rx="11" ry="11" style="stroke:#181818;stroke-width:1.0;"/><path d="M22.6094,24.3125 L21.4531,29.3906 L23.7813,29.3906 L22.6094,24.3125 Z M21.125,22.0781 L24.1094,22.0781 L27.4688,34.4688 L25.0156,34.4688 L24.25,31.4063 L20.9688,31.4063 L20.2188,34.4688 L17.7813,34.4688 L21.125,22.0781 Z " fill="#000000"/><text fill="#000000" font-family="sans-serif" font-size="14" font-style="italic" lengthAdjust="spacing" textLength="166" x="40" y="27.9951">AbstractRStarTreeNode</text><text fill="#000000" font-family="sans-serif" font-size="10" font-style="italic" lengthAdjust="spacing" textLength="173" x="36.5" y="40.5791">elki.index.tree.spatial.rstarvariants</text><rect fill="#FFFFFF" height="15.9688" style="stroke:#181818;stroke-width:1.0;stroke-dasharray:2.0,2.0;" width="157" x="217.5" y="7"/><text fill="#000000" font-family="sans-serif" font-size="12" font-style="italic" lengthAdjust="spacing" textLength="155" x="218.5" y="19.1387">RdKNNNode, RdKNNEntry</text></g></a><!--MD5=[4ea42a424555fe2b1d371dc362a8bf90]
reverse link elki.index.tree.spatial.rstarvariants.AbstractRStarTreeNode to elki.index.tree.spatial.rstarvariants.rdknn.RdKNNNode--><g id="link_elki.index.tree.spatial.rstarvariants.AbstractRStarTreeNode_elki.index.tree.spatial.rstarvariants.rdknn.RdKNNNode"><path codeLine="17" d="M189.5,68.26 C189.5,80.35 189.5,94.17 189.5,107.93 " fill="none" id="elki.index.tree.spatial.rstarvariants.AbstractRStarTreeNode-backto-elki.index.tree.spatial.rstarvariants.rdknn.RdKNNNode" style="stroke:#181818;stroke-width:1.0;"/><polygon fill="none" points="182.5,68.15,189.5,48.15,196.5,68.15,182.5,68.15" style="stroke:#181818;stroke-width:1.0;"/></g><rect fill="none" height="11.6406" style="stroke:none;stroke-width:1.0;" width="186" x="91.25" y="265.7188"/><text fill="#888888" font-family="sans-serif" font-size="10" lengthAdjust="spacing" textLength="186" x="91.25" y="275.001">UMLDoclet 2.0.19, PlantUML 1.2022.8</text><!--MD5=[f0b511da13c89529ad0c271385285379]
@startuml
    remove .*\.(Instance|Par|Parameterizer|Factory)$
    set namespaceSeparator none
    hide empty fields
    hide empty methods

    class "<size:14>RdKNNNode\n<size:10>elki.index.tree.spatial.rstarvariants.rdknn" as elki.index.tree.spatial.rstarvariants.rdknn.RdKNNNode [[RdKNNNode.html]] {
        {static} -serialVersionUID: long
        +RdKNNNode()
        +RdKNNNode(int, boolean)
        #kNNDistance(): double
        +adjustEntry(RdKNNEntry): boolean
        #integrityCheckParameters(RdKNNNode, int): void
    }

    abstract class "<size:14>AbstractRStarTreeNode\n<size:10>elki.index.tree.spatial.rstarvariants" as elki.index.tree.spatial.rstarvariants.AbstractRStarTreeNode<RdKNNNode, RdKNNEntry> [[../AbstractRStarTreeNode.html]]

    elki.index.tree.spatial.rstarvariants.AbstractRStarTreeNode <|- - elki.index.tree.spatial.rstarvariants.rdknn.RdKNNNode

    center footer UMLDoclet 2.0.19, PlantUML 1.2022.8
@enduml

PlantUML version 1.2022.8(Sun Sep 25 11:00:33 CEST 2022)
(APACHE source distribution)
Java Runtime: OpenJDK Runtime Environment
JVM: OpenJDK 64-Bit Server VM
Default Encoding: UTF-8
Language: de
Country: DE
--></g></svg>