<?xml version="1.0" encoding="UTF-8" standalone="no"?><svg xmlns="http://www.w3.org/2000/svg" xmlns:xlink="http://www.w3.org/1999/xlink" contentStyleType="text/css" height="355px" preserveAspectRatio="none" style="width:484px;height:355px;background:#FFFFFF;" version="1.1" viewBox="0 0 484 355" width="484px" zoomAndPan="magnify"><defs/><g><!--MD5=[786e224b3c8bfc8a6851f1127c982d2f]
class elki.index.tree.spatial.rstarvariants.rdknn.RdKNNDirectoryEntry--><a href="RdKNNDirectoryEntry.html" target="_top" title="RdKNNDirectoryEntry.html" xlink:actuate="onRequest" xlink:href="RdKNNDirectoryEntry.html" xlink:show="new" xlink:title="RdKNNDirectoryEntry.html" xlink:type="simple"><g id="elem_elki.index.tree.spatial.rstarvariants.rdknn.RdKNNDirectoryEntry"><rect codeLine="6" fill="#F1F1F1" height="184.3125" id="elki.index.tree.spatial.rstarvariants.rdknn.RdKNNDirectoryEntry" rx="2.5" ry="2.5" style="stroke:#181818;stroke-width:0.5;" width="464" x="7" y="146"/><ellipse cx="136.75" cy="164.9688" fill="#ADD1B2" rx="11" ry="11" style="stroke:#181818;stroke-width:1.0;"/><path d="M139.7188,170.6094 Q139.1406,170.9063 138.5,171.0469 Q137.8594,171.2031 137.1563,171.2031 Q134.6563,171.2031 133.3281,169.5625 Q132.0156,167.9063 132.0156,164.7813 Q132.0156,161.6563 133.3281,160 Q134.6563,158.3438 137.1563,158.3438 Q137.8594,158.3438 138.5,158.5 Q139.1563,158.6563 139.7188,158.9531 L139.7188,161.6719 Q139.0938,161.0938 138.5,160.8281 Q137.9063,160.5469 137.2813,160.5469 Q135.9375,160.5469 135.25,161.625 Q134.5625,162.6875 134.5625,164.7813 Q134.5625,166.875 135.25,167.9531 Q135.9375,169.0156 137.2813,169.0156 Q137.9063,169.0156 138.5,168.75 Q139.0938,168.4688 139.7188,167.8906 L139.7188,170.6094 Z " fill="#000000"/><text fill="#000000" font-family="sans-serif" font-size="14" lengthAdjust="spacing" textLength="145" x="182.75" y="163.9951">RdKNNDirectoryEntry</text><text fill="#000000" font-family="sans-serif" font-size="10" lengthAdjust="spacing" textLength="196" x="157.25" y="176.5791">elki.index.tree.spatial.rstarvariants.rdknn</text><line style="stroke:#181818;stroke-width:0.5;" x1="8" x2="470" y1="183.9375" y2="183.9375"/><rect fill="none" height="6" style="stroke:#C82930;stroke-width:1.0;" width="6" x="15" y="194.5859"/><text fill="#000000" font-family="sans-serif" font-size="14" lengthAdjust="spacing" text-decoration="underline" textLength="151" x="27" y="200.9326">serialVersionUID: long</text><rect fill="none" height="6" style="stroke:#C82930;stroke-width:1.0;" width="6" x="15" y="210.8828"/><text fill="#000000" font-family="sans-serif" font-size="14" lengthAdjust="spacing" textLength="144" x="27" y="217.2295">knnDistance: double</text><line style="stroke:#181818;stroke-width:0.5;" x1="8" x2="470" y1="224.5313" y2="224.5313"/><ellipse cx="18" cy="238.1797" fill="#84BE84" rx="3" ry="3" style="stroke:#038048;stroke-width:1.0;"/><text fill="#000000" font-family="sans-serif" font-size="14" lengthAdjust="spacing" textLength="155" x="27" y="241.5264">RdKNNDirectoryEntry()</text><ellipse cx="18" cy="254.4766" fill="#84BE84" rx="3" ry="3" style="stroke:#038048;stroke-width:1.0;"/><text fill="#000000" font-family="sans-serif" font-size="14" lengthAdjust="spacing" textLength="438" x="27" y="257.8232">RdKNNDirectoryEntry(int, ModifiableHyperBoundingBox, double)</text><ellipse cx="18" cy="270.7734" fill="#84BE84" rx="3" ry="3" style="stroke:#038048;stroke-width:1.0;"/><text fill="#000000" font-family="sans-serif" font-size="14" lengthAdjust="spacing" textLength="178" x="27" y="274.1201">getKnnDistance(): double</text><ellipse cx="18" cy="287.0703" fill="#84BE84" rx="3" ry="3" style="stroke:#038048;stroke-width:1.0;"/><text fill="#000000" font-family="sans-serif" font-size="14" lengthAdjust="spacing" textLength="205" x="27" y="290.417">setKnnDistance(double): void</text><ellipse cx="18" cy="303.3672" fill="#84BE84" rx="3" ry="3" style="stroke:#038048;stroke-width:1.0;"/><text fill="#000000" font-family="sans-serif" font-size="14" lengthAdjust="spacing" textLength="228" x="27" y="306.7139">writeExternal(ObjectOutput): void</text><ellipse cx="18" cy="319.6641" fill="#84BE84" rx="3" ry="3" style="stroke:#038048;stroke-width:1.0;"/><text fill="#000000" font-family="sans-serif" font-size="14" lengthAdjust="spacing" textLength="213" x="27" y="323.0107">readExternal(ObjectInput): void</text></g></a><!--MD5=[844b57bfa1d6fbb82bc17f6beacd64bc]
class elki.index.tree.spatial.SpatialDirectoryEntry--><a href="../../SpatialDirectoryEntry.html" target="_top" title="../../SpatialDirectoryEntry.html" xlink:actuate="onRequest" xlink:href="../../SpatialDirectoryEntry.html" xlink:show="new" xlink:title="../../SpatialDirectoryEntry.html" xlink:type="simple"><g id="elem_elki.index.tree.spatial.SpatialDirectoryEntry"><rect codeLine="17" fill="#F1F1F1" height="37.9375" id="elki.index.tree.spatial.SpatialDirectoryEntry" rx="2.5" ry="2.5" style="stroke:#181818;stroke-width:0.5;" width="174" x="32" y="27.5"/><ellipse cx="47" cy="46.4688" fill="#ADD1B2" rx="11" ry="11" style="stroke:#181818;stroke-width:1.0;"/><path d="M49.9688,52.1094 Q49.3906,52.4063 48.75,52.5469 Q48.1094,52.7031 47.4063,52.7031 Q44.9063,52.7031 43.5781,51.0625 Q42.2656,49.4063 42.2656,46.2813 Q42.2656,43.1563 43.5781,41.5 Q44.9063,39.8438 47.4063,39.8438 Q48.1094,39.8438 48.75,40 Q49.4063,40.1563 49.9688,40.4531 L49.9688,43.1719 Q49.3438,42.5938 48.75,42.3281 Q48.1563,42.0469 47.5313,42.0469 Q46.1875,42.0469 45.5,43.125 Q44.8125,44.1875 44.8125,46.2813 Q44.8125,48.375 45.5,49.4531 Q46.1875,50.5156 47.5313,50.5156 Q48.1563,50.5156 48.75,50.25 Q49.3438,49.9688 49.9688,49.3906 L49.9688,52.1094 Z " fill="#000000"/><text fill="#000000" font-family="sans-serif" font-size="14" lengthAdjust="spacing" textLength="142" x="61" y="45.4951">SpatialDirectoryEntry</text><text fill="#000000" font-family="sans-serif" font-size="10" lengthAdjust="spacing" textLength="101" x="81.5" y="58.0791">elki.index.tree.spatial</text></g></a><!--MD5=[2f9e3555ce47f36baad5c715343601ba]
class elki.index.tree.spatial.rstarvariants.rdknn.RdKNNEntry--><a href="RdKNNEntry.html" target="_top" title="RdKNNEntry.html" xlink:actuate="onRequest" xlink:href="RdKNNEntry.html" xlink:show="new" xlink:title="RdKNNEntry.html" xlink:type="simple"><g id="elem_elki.index.tree.spatial.rstarvariants.rdknn.RdKNNEntry"><rect codeLine="18" fill="#F1F1F1" height="78.5313" id="elki.index.tree.spatial.rstarvariants.rdknn.RdKNNEntry" rx="2.5" ry="2.5" style="stroke:#181818;stroke-width:0.5;" width="236" x="241" y="7"/><ellipse cx="256" cy="25.9688" fill="#B4A7E5" rx="11" ry="11" style="stroke:#181818;stroke-width:1.0;"/><path d="M251.9219,21.7344 L251.9219,19.5781 L259.3125,19.5781 L259.3125,21.7344 L256.8438,21.7344 L256.8438,29.8125 L259.3125,29.8125 L259.3125,31.9688 L251.9219,31.9688 L251.9219,29.8125 L254.3906,29.8125 L254.3906,21.7344 L251.9219,21.7344 Z " fill="#000000"/><text fill="#000000" font-family="sans-serif" font-size="14" font-style="italic" lengthAdjust="spacing" textLength="86" x="329" y="24.9951">RdKNNEntry</text><text fill="#000000" font-family="sans-serif" font-size="10" font-style="italic" lengthAdjust="spacing" textLength="204" x="270" y="37.5791">elki.index.tree.spatial.rstarvariants.rdknn</text><line style="stroke:#181818;stroke-width:0.5;" x1="242" x2="476" y1="44.9375" y2="44.9375"/><ellipse cx="252" cy="58.5859" fill="#84BE84" rx="3" ry="3" style="stroke:#038048;stroke-width:1.0;"/><text fill="#000000" font-family="sans-serif" font-size="14" font-style="italic" lengthAdjust="spacing" textLength="180" x="261" y="61.9326">getKnnDistance(): double</text><ellipse cx="252" cy="74.8828" fill="#84BE84" rx="3" ry="3" style="stroke:#038048;stroke-width:1.0;"/><text fill="#000000" font-family="sans-serif" font-size="14" font-style="italic" lengthAdjust="spacing" textLength="208" x="261" y="78.2295">setKnnDistance(double): void</text></g></a><!--MD5=[0ae223f7dbf140ceeda9b33792b23702]
reverse link elki.index.tree.spatial.SpatialDirectoryEntry to elki.index.tree.spatial.rstarvariants.rdknn.RdKNNDirectoryEntry--><g id="link_elki.index.tree.spatial.SpatialDirectoryEntry_elki.index.tree.spatial.rstarvariants.rdknn.RdKNNDirectoryEntry"><path codeLine="23" d="M141.28,82.68 C152.61,100.58 166.97,123.25 181.16,145.66 " fill="none" id="elki.index.tree.spatial.SpatialDirectoryEntry-backto-elki.index.tree.spatial.rstarvariants.rdknn.RdKNNDirectoryEntry" style="stroke:#181818;stroke-width:1.0;"/><polygon fill="none" points="135.29,86.31,130.51,65.67,147.12,78.82,135.29,86.31" style="stroke:#181818;stroke-width:1.0;"/></g><!--MD5=[90ad221f886cb00dd46d535c7cc9f371]
reverse link elki.index.tree.spatial.rstarvariants.rdknn.RdKNNEntry to elki.index.tree.spatial.rstarvariants.rdknn.RdKNNDirectoryEntry--><g id="link_elki.index.tree.spatial.rstarvariants.rdknn.RdKNNEntry_elki.index.tree.spatial.rstarvariants.rdknn.RdKNNDirectoryEntry"><path codeLine="24" d="M323.5,103.56 C315.07,116.87 305.87,131.4 296.74,145.82 " fill="none" id="elki.index.tree.spatial.rstarvariants.rdknn.RdKNNEntry-backto-elki.index.tree.spatial.rstarvariants.rdknn.RdKNNDirectoryEntry" style="stroke:#181818;stroke-width:1.0;stroke-dasharray:7.0,7.0;"/><polygon fill="none" points="317.81,99.46,334.43,86.31,329.64,106.95,317.81,99.46" style="stroke:#181818;stroke-width:1.0;"/></g><rect fill="none" height="11.6406" style="stroke:none;stroke-width:1.0;" width="186" x="142" y="336.3125"/><text fill="#888888" font-family="sans-serif" font-size="10" lengthAdjust="spacing" textLength="186" x="142" y="345.5947">UMLDoclet 2.0.19, PlantUML 1.2022.8</text><!--MD5=[b1cf39ab64b8b8e06683e7532b991dec]
@startuml
    remove .*\.(Instance|Par|Parameterizer|Factory)$
    set namespaceSeparator none
    hide empty fields
    hide empty methods

    class "<size:14>RdKNNDirectoryEntry\n<size:10>elki.index.tree.spatial.rstarvariants.rdknn" as elki.index.tree.spatial.rstarvariants.rdknn.RdKNNDirectoryEntry [[RdKNNDirectoryEntry.html]] {
        {static} -serialVersionUID: long
        -knnDistance: double
        +RdKNNDirectoryEntry()
        +RdKNNDirectoryEntry(int, ModifiableHyperBoundingBox, double)
        +getKnnDistance(): double
        +setKnnDistance(double): void
        +writeExternal(ObjectOutput): void
        +readExternal(ObjectInput): void
    }

    class "<size:14>SpatialDirectoryEntry\n<size:10>elki.index.tree.spatial" as elki.index.tree.spatial.SpatialDirectoryEntry [[../../SpatialDirectoryEntry.html]]
    interface "<size:14>RdKNNEntry\n<size:10>elki.index.tree.spatial.rstarvariants.rdknn" as elki.index.tree.spatial.rstarvariants.rdknn.RdKNNEntry [[RdKNNEntry.html]] {
        {abstract} +getKnnDistance(): double
        {abstract} +setKnnDistance(double): void
    }

    elki.index.tree.spatial.SpatialDirectoryEntry <|- - elki.index.tree.spatial.rstarvariants.rdknn.RdKNNDirectoryEntry
    elki.index.tree.spatial.rstarvariants.rdknn.RdKNNEntry <|.. elki.index.tree.spatial.rstarvariants.rdknn.RdKNNDirectoryEntry

    center footer UMLDoclet 2.0.19, PlantUML 1.2022.8
@enduml

PlantUML version 1.2022.8(Sun Sep 25 11:00:33 CEST 2022)
(APACHE source distribution)
Java Runtime: OpenJDK Runtime Environment
JVM: OpenJDK 64-Bit Server VM
Default Encoding: UTF-8
Language: de
Country: DE
--></g></svg>