<?xml version="1.0" encoding="UTF-8" standalone="no"?>
<!DOCTYPE svg PUBLIC "-//W3C//DTD SVG 1.1//EN"
 "http://www.w3.org/Graphics/SVG/1.1/DTD/svg11.dtd">
<!-- Generated by graphviz version 2.40.1 (20161225.0304)
 -->
<!-- Title: G Pages: 1 -->
<svg width="547pt" height="274pt"
 viewBox="0.00 0.00 547.00 273.92" xmlns="http://www.w3.org/2000/svg" xmlns:xlink="http://www.w3.org/1999/xlink">
<g id="graph0" class="graph" transform="scale(1 1) rotate(0) translate(4 269.9151)">
<title>G</title>
<polygon fill="#ffffff" stroke="transparent" points="-4,4 -4,-269.9151 543,-269.9151 543,4 -4,4"/>
<!-- c705939 -->
<g id="node1" class="node">
<title>c705939</title>
<g id="a_node1"><a xlink:href="VALPNormDistance.html" xlink:title="&lt;TABLE&gt;">
<g id="a_node1_0"><a xlink:href="VALPNormDistance.html" xlink:title="de.lmu.ifi.dbs.elki.index.vafile.VALPNormDistance" target="_parent">
<polygon fill="none" stroke="#000000" points="315.5,-79.5 315.5,-96.5 399.5,-96.5 399.5,-79.5 315.5,-79.5"/>
<text text-anchor="start" x="319.5" y="-87.1" font-family="Roboto" font-size="8.00" fill="#000000"> </text>
<text text-anchor="start" x="322.5" y="-87.1" font-family="Roboto" font-size="8.00" fill="#000000">VALPNormDistance</text>
<text text-anchor="start" x="392.5" y="-87.1" font-family="Roboto" font-size="8.00" fill="#000000"> </text>
</a>
</g>
</a>
</g>
</g>
<!-- c705940 -->
<g id="node2" class="node">
<title>c705940</title>
<g id="a_node2"><a xlink:href="VectorApproximation.html" xlink:title="&lt;TABLE&gt;">
<g id="a_node2_1"><a xlink:href="VectorApproximation.html" xlink:title="de.lmu.ifi.dbs.elki.index.vafile.VectorApproximation" target="_parent">
<polygon fill="none" stroke="#000000" points="452.5,-53.5 452.5,-70.5 539.5,-70.5 539.5,-53.5 452.5,-53.5"/>
<text text-anchor="start" x="456.5" y="-61.1" font-family="Roboto" font-size="8.00" fill="#000000"> </text>
<text text-anchor="start" x="459.5" y="-61.1" font-family="Roboto" font-size="8.00" fill="#000000">VectorApproximation</text>
<text text-anchor="start" x="532.5" y="-61.1" font-family="Roboto" font-size="8.00" fill="#000000"> </text>
</a>
</g>
</a>
</g>
</g>
<!-- c705939&#45;&gt;c705940 -->
<g id="edge11" class="edge">
<title>c705939&#45;&gt;c705940</title>
<path fill="none" stroke="#000000" d="M399.6544,-80.5579C412.9212,-78.0583 427.7568,-75.2632 441.7176,-72.6329"/>
<polygon fill="#000000" stroke="#000000" points="451.6937,-70.7534 442.6998,-77.0271 446.7802,-71.6791 441.8666,-72.6049 441.8666,-72.6049 441.8666,-72.6049 446.7802,-71.6791 441.0334,-68.1827 451.6937,-70.7534 451.6937,-70.7534"/>
</g>
<!-- c705941 -->
<g id="node3" class="node">
<title>c705941</title>
<g id="a_node3"><a xlink:href="DAFile.html" xlink:title="&lt;TABLE&gt;">
<g id="a_node3_2"><a xlink:href="DAFile.html" xlink:title="de.lmu.ifi.dbs.elki.index.vafile.DAFile" target="_parent">
<polygon fill="none" stroke="#000000" points="338.5,-219.5 338.5,-236.5 377.5,-236.5 377.5,-219.5 338.5,-219.5"/>
<text text-anchor="start" x="342.5" y="-227.1" font-family="Roboto" font-size="8.00" fill="#000000"> </text>
<text text-anchor="start" x="345.5" y="-227.1" font-family="Roboto" font-size="8.00" fill="#000000">DAFile</text>
<text text-anchor="start" x="370.5" y="-227.1" font-family="Roboto" font-size="8.00" fill="#000000"> </text>
</a>
</g>
</a>
</g>
</g>
<!-- c705942 -->
<g id="node4" class="node">
<title>c705942</title>
<g id="a_node4"><a xlink:href="PartialVAFile.html" xlink:title="&lt;TABLE&gt;">
<g id="a_node4_3"><a xlink:href="PartialVAFile.html" xlink:title="de.lmu.ifi.dbs.elki.index.vafile.PartialVAFile" target="_parent">
<polygon fill="#fffacd" stroke="transparent" points="154.5,-164 154.5,-181 215.5,-181 215.5,-164 154.5,-164"/>
<polygon fill="none" stroke="#000000" points="155,-163.5 155,-180.5 216,-180.5 216,-163.5 155,-163.5"/>
<text text-anchor="start" x="159" y="-171.1" font-family="Roboto" font-size="8.00" fill="#000000"> </text>
<text text-anchor="start" x="162" y="-171.1" font-family="Roboto" font-size="8.00" fill="#000000">PartialVAFile</text>
<text text-anchor="start" x="209" y="-171.1" font-family="Roboto" font-size="8.00" fill="#000000"> </text>
</a>
</g>
</a>
</g>
</g>
<!-- c705942&#45;&gt;c705940 -->
<g id="edge13" class="edge">
<title>c705942&#45;&gt;c705940</title>
<path fill="none" stroke="#000000" d="M192.9397,-181.1368C208.1726,-196.9898 243.3453,-230.2295 281,-242.5 345.6538,-263.5686 378.6872,-282.0537 434,-242.5 460.9438,-223.2327 483.425,-123.6304 491.8924,-81.4291"/>
<polygon fill="#000000" stroke="#000000" points="493.8606,-71.3752 496.3555,-82.0535 492.9,-76.282 491.9393,-81.1889 491.9393,-81.1889 491.9393,-81.1889 492.9,-76.282 487.5232,-80.3243 493.8606,-71.3752 493.8606,-71.3752"/>
<text text-anchor="middle" x="491.8606" y="-73.7752" font-family="Roboto" font-size="7.00" fill="#000000">*</text>
</g>
<!-- c705942&#45;&gt;c705941 -->
<g id="edge1" class="edge">
<title>c705942&#45;&gt;c705941</title>
<path fill="none" stroke="#000000" d="M212.3025,-186.4716C231.1716,-195.6182 257.0845,-207.1883 281,-214.5 299.8513,-220.2634 322.0825,-224.0065 337.7068,-226.1592"/>
<polygon fill="#000000" stroke="#000000" points="212.3006,-186.4707 205.149,-187.3953 201.5449,-181.1494 208.6965,-180.2248 212.3006,-186.4707"/>
</g>
<!-- c705943 -->
<g id="node5" class="node">
<title>c705943</title>
<g id="a_node5"><a xlink:href="PartialVAFile.Statistics.html" xlink:title="&lt;TABLE&gt;">
<g id="a_node5_4"><a xlink:href="PartialVAFile.Statistics.html" xlink:title="de.lmu.ifi.dbs.elki.index.vafile.PartialVAFile.Statistics" target="_parent">
<polygon fill="none" stroke="#000000" points="310.5,-191.5 310.5,-208.5 405.5,-208.5 405.5,-191.5 310.5,-191.5"/>
<text text-anchor="start" x="314.5" y="-199.1" font-family="Roboto" font-size="8.00" fill="#000000"> </text>
<text text-anchor="start" x="317.5" y="-199.1" font-family="Roboto" font-size="8.00" fill="#000000">PartialVAFile.Statistics</text>
<text text-anchor="start" x="398.5" y="-199.1" font-family="Roboto" font-size="8.00" fill="#000000"> </text>
</a>
</g>
</a>
</g>
</g>
<!-- c705942&#45;&gt;c705943 -->
<g id="edge12" class="edge">
<title>c705942&#45;&gt;c705943</title>
<path fill="none" stroke="#000000" d="M215.8395,-177.5058C239.0567,-181.2744 271.5632,-186.5508 299.5822,-191.0989"/>
<polygon fill="#000000" stroke="#000000" points="309.6764,-192.7373 299.0846,-195.5769 304.741,-191.9362 299.8056,-191.135 299.8056,-191.135 299.8056,-191.135 304.741,-191.9362 300.5266,-186.6932 309.6764,-192.7373 309.6764,-192.7373"/>
</g>
<!-- c705944 -->
<g id="node6" class="node">
<title>c705944</title>
<g id="a_node6"><a xlink:href="PartialVAFile.PartialVACandidate.html" xlink:title="&lt;TABLE&gt;">
<g id="a_node6_5"><a xlink:href="PartialVAFile.PartialVACandidate.html" xlink:title="de.lmu.ifi.dbs.elki.index.vafile.PartialVAFile.PartialVACandidate" target="_parent">
<polygon fill="none" stroke="#000000" points="291.5,-163.5 291.5,-180.5 424.5,-180.5 424.5,-163.5 291.5,-163.5"/>
<text text-anchor="start" x="295.5" y="-171.1" font-family="Roboto" font-size="8.00" fill="#000000"> </text>
<text text-anchor="start" x="298.5" y="-171.1" font-family="Roboto" font-size="8.00" fill="#000000">PartialVAFile.PartialVACandidate</text>
<text text-anchor="start" x="417.5" y="-171.1" font-family="Roboto" font-size="8.00" fill="#000000"> </text>
</a>
</g>
</a>
</g>
</g>
<!-- c705942&#45;&gt;c705944 -->
<g id="edge2" class="edge">
<title>c705942&#45;&gt;c705944</title>
<path fill="none" stroke="#000000" d="M228.0101,-172.5C246.9889,-172.5 269.7356,-172.5 290.8321,-172.5"/>
<polygon fill="none" stroke="#000000" points="227.8395,-172.5001 221.8395,-176.5 215.8395,-172.5 221.8396,-168.5 227.8395,-172.5001"/>
</g>
<!-- c705945 -->
<g id="node7" class="node">
<title>c705945</title>
<g id="a_node7"><a xlink:href="PartialVAFile.PartialVAFileRangeQuery.html" xlink:title="&lt;TABLE&gt;">
<g id="a_node7_6"><a xlink:href="PartialVAFile.PartialVAFileRangeQuery.html" xlink:title="de.lmu.ifi.dbs.elki.index.vafile.PartialVAFile.PartialVAFileRangeQuery" target="_parent">
<polygon fill="none" stroke="#000000" points="281.5,-135.5 281.5,-152.5 434.5,-152.5 434.5,-135.5 281.5,-135.5"/>
<text text-anchor="start" x="285.5" y="-143.1" font-family="Roboto" font-size="8.00" fill="#000000"> </text>
<text text-anchor="start" x="288.5" y="-143.1" font-family="Roboto" font-size="8.00" fill="#000000">PartialVAFile.PartialVAFileRangeQuery</text>
<text text-anchor="start" x="427.5" y="-143.1" font-family="Roboto" font-size="8.00" fill="#000000"> </text>
</a>
</g>
</a>
</g>
</g>
<!-- c705942&#45;&gt;c705945 -->
<g id="edge3" class="edge">
<title>c705942&#45;&gt;c705945</title>
<path fill="none" stroke="#000000" d="M227.8075,-165.5515C251.1457,-161.7633 280.227,-157.0429 304.9336,-153.0325"/>
<polygon fill="none" stroke="#000000" points="227.6845,-165.5714 222.4029,-170.4811 215.8395,-167.4942 221.1211,-162.5845 227.6845,-165.5714"/>
</g>
<!-- c705946 -->
<g id="node8" class="node">
<title>c705946</title>
<g id="a_node8"><a xlink:href="PartialVAFile.PartialVAFileKNNQuery.html" xlink:title="&lt;TABLE&gt;">
<g id="a_node8_7"><a xlink:href="PartialVAFile.PartialVAFileKNNQuery.html" xlink:title="de.lmu.ifi.dbs.elki.index.vafile.PartialVAFile.PartialVAFileKNNQuery" target="_parent">
<polygon fill="none" stroke="#000000" points="283.5,-107.5 283.5,-124.5 431.5,-124.5 431.5,-107.5 283.5,-107.5"/>
<text text-anchor="start" x="287.5" y="-115.1" font-family="Roboto" font-size="8.00" fill="#000000"> </text>
<text text-anchor="start" x="290.5" y="-115.1" font-family="Roboto" font-size="8.00" fill="#000000">PartialVAFile.PartialVAFileKNNQuery</text>
<text text-anchor="start" x="424.5" y="-115.1" font-family="Roboto" font-size="8.00" fill="#000000"> </text>
</a>
</g>
</a>
</g>
</g>
<!-- c705942&#45;&gt;c705946 -->
<g id="edge4" class="edge">
<title>c705942&#45;&gt;c705946</title>
<path fill="none" stroke="#000000" d="M212.3025,-158.5284C231.1716,-149.3818 257.0845,-137.8117 281,-130.5 287.8433,-128.4078 295.132,-126.5818 302.3883,-125.0015"/>
<polygon fill="none" stroke="#000000" points="212.3006,-158.5293 208.6965,-164.7752 201.5449,-163.8506 205.149,-157.6047 212.3006,-158.5293"/>
</g>
<!-- c705944&#45;&gt;c705940 -->
<g id="edge14" class="edge">
<title>c705944&#45;&gt;c705940</title>
<path fill="none" stroke="#000000" d="M423.9845,-163.9786C427.4931,-162.4197 430.8608,-160.6065 434,-158.5 462.2491,-139.5438 480.2878,-102.7685 489.0928,-80.6458"/>
<polygon fill="#000000" stroke="#000000" points="492.6778,-71.1049 493.3728,-82.0488 490.9191,-75.7854 489.1603,-80.4659 489.1603,-80.4659 489.1603,-80.4659 490.9191,-75.7854 484.9479,-78.8831 492.6778,-71.1049 492.6778,-71.1049"/>
</g>
<!-- c705947 -->
<g id="node9" class="node">
<title>c705947</title>
<g id="a_node9"><a xlink:href="PartialVAFile.WorstCaseDistComparator.html" xlink:title="&lt;TABLE&gt;">
<g id="a_node9_8"><a xlink:href="PartialVAFile.WorstCaseDistComparator.html" xlink:title="de.lmu.ifi.dbs.elki.index.vafile.PartialVAFile.WorstCaseDistComparator" target="_parent">
<polygon fill="none" stroke="#000000" points="107,-79.5 107,-96.5 263,-96.5 263,-79.5 107,-79.5"/>
<text text-anchor="start" x="111" y="-87.1" font-family="Roboto" font-size="8.00" fill="#000000"> </text>
<text text-anchor="start" x="114" y="-87.1" font-family="Roboto" font-size="8.00" fill="#000000">PartialVAFile.WorstCaseDistComparator</text>
<text text-anchor="start" x="256" y="-87.1" font-family="Roboto" font-size="8.00" fill="#000000"> </text>
</a>
</g>
</a>
</g>
</g>
<!-- c705947&#45;&gt;c705939 -->
<g id="edge15" class="edge">
<title>c705947&#45;&gt;c705939</title>
<path fill="none" stroke="#000000" d="M263.1746,-88.5C277.3832,-88.5 291.8867,-88.5 305.1244,-88.5"/>
<polygon fill="#000000" stroke="#000000" points="315.4397,-88.5 305.4397,-93.0001 310.4397,-88.5 305.4397,-88.5001 305.4397,-88.5001 305.4397,-88.5001 310.4397,-88.5 305.4396,-84.0001 315.4397,-88.5 315.4397,-88.5"/>
</g>
<!-- c705948 -->
<g id="node10" class="node">
<title>c705948</title>
<g id="a_node10"><a xlink:href="PartialVAFile.Factory.html" xlink:title="&lt;TABLE&gt;">
<g id="a_node10_9"><a xlink:href="PartialVAFile.Factory.html" xlink:title="de.lmu.ifi.dbs.elki.index.vafile.PartialVAFile.Factory" target="_parent">
<polygon fill="none" stroke="#000000" points=".5,-158.5 .5,-186.5 89.5,-186.5 89.5,-158.5 .5,-158.5"/>
<text text-anchor="start" x="26.5" y="-176.1" font-family="Roboto" font-size="8.00" fill="#000000"> «factory» </text>
<text text-anchor="start" x="4.5" y="-166.1" font-family="Roboto" font-size="8.00" fill="#000000"> </text>
<text text-anchor="start" x="7.5" y="-166.1" font-family="Roboto" font-size="8.00" fill="#000000">PartialVAFile.Factory</text>
<text text-anchor="start" x="82.5" y="-166.1" font-family="Roboto" font-size="8.00" fill="#000000"> </text>
</a>
</g>
</a>
</g>
</g>
<!-- c705948&#45;&gt;c705942 -->
<g id="edge5" class="edge">
<title>c705948&#45;&gt;c705942</title>
<path fill="none" stroke="#000000" d="M101.5822,-172.5C119.6297,-172.5 138.8797,-172.5 154.3349,-172.5"/>
<polygon fill="none" stroke="#000000" points="101.3414,-172.5001 95.3413,-176.5 89.3414,-172.5 95.3414,-168.5 101.3414,-172.5001"/>
</g>
<!-- c705950 -->
<g id="node11" class="node">
<title>c705950</title>
<g id="a_node11"><a xlink:href="VAFile.html" xlink:title="&lt;TABLE&gt;">
<g id="a_node11_10"><a xlink:href="VAFile.html" xlink:title="de.lmu.ifi.dbs.elki.index.vafile.VAFile" target="_parent">
<polygon fill="#fffacd" stroke="transparent" points="166,-40 166,-57 204,-57 204,-40 166,-40"/>
<polygon fill="none" stroke="#000000" points="166,-39.5 166,-56.5 204,-56.5 204,-39.5 166,-39.5"/>
<text text-anchor="start" x="170" y="-47.1" font-family="Roboto" font-size="8.00" fill="#000000"> </text>
<text text-anchor="start" x="173" y="-47.1" font-family="Roboto" font-size="8.00" fill="#000000">VAFile</text>
<text text-anchor="start" x="197" y="-47.1" font-family="Roboto" font-size="8.00" fill="#000000"> </text>
</a>
</g>
</a>
</g>
</g>
<!-- c705950&#45;&gt;c705939 -->
<g id="edge9" class="edge">
<title>c705950&#45;&gt;c705939</title>
<path fill="none" stroke="#000000" d="M204.1196,-52.9335C232.1899,-59.4426 285.0866,-71.7085 320.8116,-79.9926"/>
</g>
<!-- c705950&#45;&gt;c705940 -->
<g id="edge6" class="edge">
<title>c705950&#45;&gt;c705940</title>
<path fill="none" stroke="#000000" d="M216.623,-49.9258C272.4165,-52.4415 388.4118,-57.6715 451.8086,-60.53"/>
<polygon fill="#000000" stroke="#000000" points="216.411,-49.9164 210.2369,-53.642 204.4232,-49.3758 210.5973,-45.6501 216.411,-49.9164"/>
</g>
<!-- c705951 -->
<g id="node12" class="node">
<title>c705951</title>
<g id="a_node12"><a xlink:href="VAFile.VAFileRangeQuery.html" xlink:title="&lt;TABLE&gt;">
<g id="a_node12_11"><a xlink:href="VAFile.VAFileRangeQuery.html" xlink:title="de.lmu.ifi.dbs.elki.index.vafile.VAFile.VAFileRangeQuery" target="_parent">
<polygon fill="none" stroke="#000000" points="304.5,-27.5 304.5,-44.5 411.5,-44.5 411.5,-27.5 304.5,-27.5"/>
<text text-anchor="start" x="308.5" y="-35.1" font-family="Roboto" font-size="8.00" fill="#000000"> </text>
<text text-anchor="start" x="311.5" y="-35.1" font-family="Roboto" font-size="8.00" fill="#000000">VAFile.VAFileRangeQuery</text>
<text text-anchor="start" x="404.5" y="-35.1" font-family="Roboto" font-size="8.00" fill="#000000"> </text>
</a>
</g>
</a>
</g>
</g>
<!-- c705950&#45;&gt;c705951 -->
<g id="edge7" class="edge">
<title>c705950&#45;&gt;c705951</title>
<path fill="none" stroke="#000000" d="M216.182,-46.3308C240.532,-44.6369 274.947,-42.2428 303.718,-40.2414"/>
<polygon fill="none" stroke="#000000" points="216.0907,-46.3371 210.3828,-50.7439 204.1196,-47.1699 209.8275,-42.7632 216.0907,-46.3371"/>
</g>
<!-- c705952 -->
<g id="node13" class="node">
<title>c705952</title>
<g id="a_node13"><a xlink:href="VAFile.VAFileKNNQuery.html" xlink:title="&lt;TABLE&gt;">
<g id="a_node13_12"><a xlink:href="VAFile.VAFileKNNQuery.html" xlink:title="de.lmu.ifi.dbs.elki.index.vafile.VAFile.VAFileKNNQuery" target="_parent">
<polygon fill="none" stroke="#000000" points="306.5,.5 306.5,-16.5 408.5,-16.5 408.5,.5 306.5,.5"/>
<text text-anchor="start" x="310.5" y="-7.1" font-family="Roboto" font-size="8.00" fill="#000000"> </text>
<text text-anchor="start" x="313.5" y="-7.1" font-family="Roboto" font-size="8.00" fill="#000000">VAFile.VAFileKNNQuery</text>
<text text-anchor="start" x="401.5" y="-7.1" font-family="Roboto" font-size="8.00" fill="#000000"> </text>
</a>
</g>
</a>
</g>
</g>
<!-- c705950&#45;&gt;c705952 -->
<g id="edge8" class="edge">
<title>c705950&#45;&gt;c705952</title>
<path fill="none" stroke="#000000" d="M215.695,-39.4851C234.4587,-34.1498 259.0021,-27.4826 281,-22.5 289.5594,-20.5613 298.704,-18.7045 307.5849,-17.013"/>
<polygon fill="none" stroke="#000000" points="215.5397,-39.5297 210.8798,-45.033 204.0077,-42.8482 208.6675,-37.3449 215.5397,-39.5297"/>
</g>
<!-- c705953 -->
<g id="node14" class="node">
<title>c705953</title>
<g id="a_node14"><a xlink:href="VAFile.Factory.html" xlink:title="&lt;TABLE&gt;">
<g id="a_node14_13"><a xlink:href="VAFile.Factory.html" xlink:title="de.lmu.ifi.dbs.elki.index.vafile.VAFile.Factory" target="_parent">
<polygon fill="none" stroke="#000000" points="11.5,-34.5 11.5,-62.5 77.5,-62.5 77.5,-34.5 11.5,-34.5"/>
<text text-anchor="start" x="26" y="-52.1" font-family="Roboto" font-size="8.00" fill="#000000"> «factory» </text>
<text text-anchor="start" x="15.5" y="-42.1" font-family="Roboto" font-size="8.00" fill="#000000"> </text>
<text text-anchor="start" x="18.5" y="-42.1" font-family="Roboto" font-size="8.00" fill="#000000">VAFile.Factory</text>
<text text-anchor="start" x="70.5" y="-42.1" font-family="Roboto" font-size="8.00" fill="#000000"> </text>
</a>
</g>
</a>
</g>
</g>
<!-- c705953&#45;&gt;c705950 -->
<g id="edge10" class="edge">
<title>c705953&#45;&gt;c705950</title>
<path fill="none" stroke="#000000" d="M89.9192,-48.5C115.5907,-48.5 146.3393,-48.5 165.7747,-48.5"/>
<polygon fill="none" stroke="#000000" points="89.7965,-48.5001 83.7965,-52.5 77.7965,-48.5 83.7966,-44.5 89.7965,-48.5001"/>
</g>
</g>
</svg>
