<?xml version="1.0" encoding="UTF-8" standalone="no"?><svg xmlns="http://www.w3.org/2000/svg" xmlns:xlink="http://www.w3.org/1999/xlink" contentStyleType="text/css" height="298px" preserveAspectRatio="none" style="width:373px;height:298px;background:#FFFFFF;" version="1.1" viewBox="0 0 373 298" width="373px" zoomAndPan="magnify"><defs/><g><!--MD5=[b755b24e4f32501064c2fc8d8effc711]
class elki.clustering.dbscan.predicates.COPACNeighborPredicate.COPACModel--><a href="COPACNeighborPredicate.COPACModel.html" target="_top" title="COPACNeighborPredicate.COPACModel.html" xlink:actuate="onRequest" xlink:href="COPACNeighborPredicate.COPACModel.html" xlink:show="new" xlink:title="COPACNeighborPredicate.COPACModel.html" xlink:type="simple"><g id="elem_elki.clustering.dbscan.predicates.COPACNeighborPredicate.COPACModel"><rect codeLine="6" fill="#F1F1F1" height="168.0156" id="elki.clustering.dbscan.predicates.COPACNeighborPredicate.COPACModel" rx="2.5" ry="2.5" style="stroke:#181818;stroke-width:0.5;" width="304" x="10.5" y="105"/><ellipse cx="25.5" cy="123.9688" fill="#ADD1B2" rx="11" ry="11" style="stroke:#181818;stroke-width:1.0;"/><path d="M28.4688,129.6094 Q27.8906,129.9063 27.25,130.0469 Q26.6094,130.2031 25.9063,130.2031 Q23.4063,130.2031 22.0781,128.5625 Q20.7656,126.9063 20.7656,123.7813 Q20.7656,120.6563 22.0781,119 Q23.4063,117.3438 25.9063,117.3438 Q26.6094,117.3438 27.25,117.5 Q27.9063,117.6563 28.4688,117.9531 L28.4688,120.6719 Q27.8438,120.0938 27.25,119.8281 Q26.6563,119.5469 26.0313,119.5469 Q24.6875,119.5469 24,120.625 Q23.3125,121.6875 23.3125,123.7813 Q23.3125,125.875 24,126.9531 Q24.6875,128.0156 26.0313,128.0156 Q26.6563,128.0156 27.25,127.75 Q27.8438,127.4688 28.4688,126.8906 L28.4688,129.6094 Z " fill="#000000"/><text fill="#000000" font-family="sans-serif" font-size="14" lengthAdjust="spacing" textLength="272" x="39.5" y="122.9951">COPACNeighborPredicate.COPACModel</text><text fill="#000000" font-family="sans-serif" font-size="10" lengthAdjust="spacing" textLength="154" x="98.5" y="135.5791">elki.clustering.dbscan.predicates</text><line style="stroke:#181818;stroke-width:0.5;" x1="11.5" x2="313.5" y1="142.9375" y2="142.9375"/><polygon fill="none" points="21.5,152.5859,17.5,158.5859,25.5,158.5859" style="stroke:#1963A0;stroke-width:1.0;"/><text fill="#000000" font-family="sans-serif" font-size="14" lengthAdjust="spacing" textLength="59" x="30.5" y="159.9326">cdim: int</text><polygon fill="none" points="21.5,168.8828,17.5,174.8828,25.5,174.8828" style="stroke:#1963A0;stroke-width:1.0;"/><text fill="#000000" font-family="sans-serif" font-size="14" lengthAdjust="spacing" textLength="95" x="30.5" y="176.2295">ids: SetDBIDs</text><line style="stroke:#181818;stroke-width:0.5;" x1="11.5" x2="313.5" y1="183.5313" y2="183.5313"/><ellipse cx="21.5" cy="197.1797" fill="#84BE84" rx="3" ry="3" style="stroke:#038048;stroke-width:1.0;"/><text fill="#000000" font-family="sans-serif" font-size="14" lengthAdjust="spacing" textLength="192" x="30.5" y="200.5264">COPACModel(int, SetDBIDs)</text><ellipse cx="21.5" cy="213.4766" fill="#84BE84" rx="3" ry="3" style="stroke:#038048;stroke-width:1.0;"/><text fill="#000000" font-family="sans-serif" font-size="14" lengthAdjust="spacing" textLength="98" x="30.5" y="216.8232">iter(): DBIDIter</text><ellipse cx="21.5" cy="229.7734" fill="#84BE84" rx="3" ry="3" style="stroke:#038048;stroke-width:1.0;"/><text fill="#000000" font-family="sans-serif" font-size="14" lengthAdjust="spacing" textLength="64" x="30.5" y="233.1201">size(): int</text><ellipse cx="21.5" cy="246.0703" fill="#84BE84" rx="3" ry="3" style="stroke:#038048;stroke-width:1.0;"/><text fill="#000000" font-family="sans-serif" font-size="14" lengthAdjust="spacing" textLength="192" x="30.5" y="249.417">contains(DBIDRef): boolean</text><ellipse cx="21.5" cy="262.3672" fill="#84BE84" rx="3" ry="3" style="stroke:#038048;stroke-width:1.0;"/><text fill="#000000" font-family="sans-serif" font-size="14" lengthAdjust="spacing" textLength="129" x="30.5" y="265.7139">isEmpty(): boolean</text></g></a><!--MD5=[64fb8f1c068d35f1735c6fa363479295]
class elki.database.ids.SetDBIDs--><a href="../../../database/ids/SetDBIDs.html" target="_top" title="../../../database/ids/SetDBIDs.html" xlink:actuate="onRequest" xlink:href="../../../database/ids/SetDBIDs.html" xlink:show="new" xlink:title="../../../database/ids/SetDBIDs.html" xlink:type="simple"><g id="elem_elki.database.ids.SetDBIDs"><rect codeLine="16" fill="#F1F1F1" height="37.9375" id="elki.database.ids.SetDBIDs" rx="2.5" ry="2.5" style="stroke:#181818;stroke-width:0.5;" width="115" x="7" y="7"/><ellipse cx="22" cy="25.9688" fill="#B4A7E5" rx="11" ry="11" style="stroke:#181818;stroke-width:1.0;"/><path d="M17.9219,21.7344 L17.9219,19.5781 L25.3125,19.5781 L25.3125,21.7344 L22.8438,21.7344 L22.8438,29.8125 L25.3125,29.8125 L25.3125,31.9688 L17.9219,31.9688 L17.9219,29.8125 L20.3906,29.8125 L20.3906,21.7344 L17.9219,21.7344 Z " fill="#000000"/><text fill="#000000" font-family="sans-serif" font-size="14" font-style="italic" lengthAdjust="spacing" textLength="66" x="44.5" y="24.9951">SetDBIDs</text><text fill="#000000" font-family="sans-serif" font-size="10" font-style="italic" lengthAdjust="spacing" textLength="83" x="36" y="37.5791">elki.database.ids</text></g></a><!--MD5=[97a186e84fede40ced7e9793b07107a5]
class elki.clustering.dbscan.predicates.COPACNeighborPredicate--><a href="COPACNeighborPredicate.html" target="_top" title="COPACNeighborPredicate.html" xlink:actuate="onRequest" xlink:href="COPACNeighborPredicate.html" xlink:show="new" xlink:title="COPACNeighborPredicate.html" xlink:type="simple"><g id="elem_elki.clustering.dbscan.predicates.COPACNeighborPredicate"><rect codeLine="17" fill="#F1F1F1" height="37.9375" id="elki.clustering.dbscan.predicates.COPACNeighborPredicate" rx="2.5" ry="2.5" style="stroke:#181818;stroke-width:0.5;" width="209" x="157" y="7"/><ellipse cx="172" cy="25.9688" fill="#ADD1B2" rx="11" ry="11" style="stroke:#181818;stroke-width:1.0;"/><path d="M174.9688,31.6094 Q174.3906,31.9063 173.75,32.0469 Q173.1094,32.2031 172.4063,32.2031 Q169.9063,32.2031 168.5781,30.5625 Q167.2656,28.9063 167.2656,25.7813 Q167.2656,22.6563 168.5781,21 Q169.9063,19.3438 172.4063,19.3438 Q173.1094,19.3438 173.75,19.5 Q174.4063,19.6563 174.9688,19.9531 L174.9688,22.6719 Q174.3438,22.0938 173.75,21.8281 Q173.1563,21.5469 172.5313,21.5469 Q171.1875,21.5469 170.5,22.625 Q169.8125,23.6875 169.8125,25.7813 Q169.8125,27.875 170.5,28.9531 Q171.1875,30.0156 172.5313,30.0156 Q173.1563,30.0156 173.75,29.75 Q174.3438,29.4688 174.9688,28.8906 L174.9688,31.6094 Z " fill="#000000"/><text fill="#000000" font-family="sans-serif" font-size="14" lengthAdjust="spacing" textLength="177" x="186" y="24.9951">COPACNeighborPredicate</text><text fill="#000000" font-family="sans-serif" font-size="10" lengthAdjust="spacing" textLength="154" x="197.5" y="37.5791">elki.clustering.dbscan.predicates</text></g></a><!--MD5=[b2bc72ac4624f7e52982a610d71a250c]
reverse link elki.database.ids.SetDBIDs to elki.clustering.dbscan.predicates.COPACNeighborPredicate.COPACModel--><g id="link_elki.database.ids.SetDBIDs_elki.clustering.dbscan.predicates.COPACNeighborPredicate.COPACModel"><path codeLine="19" d="M86.03,62.37 C93.72,75 102.73,89.81 111.83,104.75 " fill="none" id="elki.database.ids.SetDBIDs-backto-elki.clustering.dbscan.predicates.COPACNeighborPredicate.COPACModel" style="stroke:#181818;stroke-width:1.0;stroke-dasharray:7.0,7.0;"/><polygon fill="none" points="79.97,65.88,75.55,45.16,91.93,58.6,79.97,65.88" style="stroke:#181818;stroke-width:1.0;"/></g><!--MD5=[c14dd3b831b9a0abc1b3eaa5e549801c]
reverse link elki.clustering.dbscan.predicates.COPACNeighborPredicate to elki.clustering.dbscan.predicates.COPACNeighborPredicate.COPACModel--><g id="link_elki.clustering.dbscan.predicates.COPACNeighborPredicate_elki.clustering.dbscan.predicates.COPACNeighborPredicate.COPACModel"><path codeLine="20" d="M242.43,58.01 C234.13,71.51 223.96,88.05 213.69,104.75 " fill="none" id="elki.clustering.dbscan.predicates.COPACNeighborPredicate-backto-elki.clustering.dbscan.predicates.COPACNeighborPredicate.COPACModel" style="stroke:#181818;stroke-width:1.0;"/><ellipse cx="246.1481" cy="51.9738" fill="#FFFFFF" rx="8" ry="8" style="stroke:#181818;stroke-width:1.0;"/><line style="stroke:#181818;stroke-width:1.0;" x1="241.9561" x2="250.34" y1="58.7876" y2="45.16"/><line style="stroke:#181818;stroke-width:1.0;" x1="239.3343" x2="252.9619" y1="47.7819" y2="56.1657"/></g><rect fill="none" height="11.6406" style="stroke:none;stroke-width:1.0;" width="186" x="86.5" y="279.0156"/><text fill="#888888" font-family="sans-serif" font-size="10" lengthAdjust="spacing" textLength="186" x="86.5" y="288.2979">UMLDoclet 2.0.19, PlantUML 1.2022.8</text><!--MD5=[7d6a85db584773a41e0233b28a5ac223]
@startuml
    remove .*\.(Instance|Par|Parameterizer|Factory)$
    set namespaceSeparator none
    hide empty fields
    hide empty methods

    class "<size:14>COPACNeighborPredicate.COPACModel\n<size:10>elki.clustering.dbscan.predicates" as elki.clustering.dbscan.predicates.COPACNeighborPredicate.COPACModel [[COPACNeighborPredicate.COPACModel.html]] {
        ~cdim: int
        ~ids: SetDBIDs
        +COPACModel(int, SetDBIDs)
        +iter(): DBIDIter
        +size(): int
        +contains(DBIDRef): boolean
        +isEmpty(): boolean
    }

    interface "<size:14>SetDBIDs\n<size:10>elki.database.ids" as elki.database.ids.SetDBIDs [[../../../database/ids/SetDBIDs.html]]
    class "<size:14>COPACNeighborPredicate\n<size:10>elki.clustering.dbscan.predicates" as elki.clustering.dbscan.predicates.COPACNeighborPredicate [[COPACNeighborPredicate.html]]

    elki.database.ids.SetDBIDs <|.. elki.clustering.dbscan.predicates.COPACNeighborPredicate.COPACModel
    elki.clustering.dbscan.predicates.COPACNeighborPredicate +- - elki.clustering.dbscan.predicates.COPACNeighborPredicate.COPACModel

    center footer UMLDoclet 2.0.19, PlantUML 1.2022.8
@enduml

PlantUML version 1.2022.8(Sun Sep 25 11:00:33 CEST 2022)
(APACHE source distribution)
Java Runtime: OpenJDK Runtime Environment
JVM: OpenJDK 64-Bit Server VM
Default Encoding: UTF-8
Language: de
Country: DE
--></g></svg>