<?xml version="1.0" encoding="UTF-8" standalone="no"?><svg xmlns="http://www.w3.org/2000/svg" xmlns:xlink="http://www.w3.org/1999/xlink" contentStyleType="text/css" height="472px" preserveAspectRatio="none" style="width:746px;height:472px;background:#FFFFFF;" version="1.1" viewBox="0 0 746 472" width="746px" zoomAndPan="magnify"><defs/><g><!--MD5=[2cd609e82fd3b8cb51ed33c427c4ed0e]
class elki.clustering.dbscan.predicates.PreDeConNeighborPredicate--><a href="PreDeConNeighborPredicate.html" target="_top" title="PreDeConNeighborPredicate.html" xlink:actuate="onRequest" xlink:href="PreDeConNeighborPredicate.html" xlink:show="new" xlink:title="PreDeConNeighborPredicate.html" xlink:type="simple"><g id="elem_elki.clustering.dbscan.predicates.PreDeConNeighborPredicate"><rect codeLine="6" fill="#F1F1F1" height="200.6094" id="elki.clustering.dbscan.predicates.PreDeConNeighborPredicate" rx="2.5" ry="2.5" style="stroke:#181818;stroke-width:0.5;" width="730" x="9" y="149"/><ellipse cx="270.25" cy="167.9688" fill="#ADD1B2" rx="11" ry="11" style="stroke:#181818;stroke-width:1.0;"/><path d="M273.2188,173.6094 Q272.6406,173.9063 272,174.0469 Q271.3594,174.2031 270.6563,174.2031 Q268.1563,174.2031 266.8281,172.5625 Q265.5156,170.9063 265.5156,167.7813 Q265.5156,164.6563 266.8281,163 Q268.1563,161.3438 270.6563,161.3438 Q271.3594,161.3438 272,161.5 Q272.6563,161.6563 273.2188,161.9531 L273.2188,164.6719 Q272.5938,164.0938 272,163.8281 Q271.4063,163.5469 270.7813,163.5469 Q269.4375,163.5469 268.75,164.625 Q268.0625,165.6875 268.0625,167.7813 Q268.0625,169.875 268.75,170.9531 Q269.4375,172.0156 270.7813,172.0156 Q271.4063,172.0156 272,171.75 Q272.5938,171.4688 273.2188,170.8906 L273.2188,173.6094 Z " fill="#000000"/><text fill="#000000" font-family="sans-serif" font-size="14" lengthAdjust="spacing" textLength="199" x="290.75" y="166.9951">PreDeConNeighborPredicate</text><text fill="#000000" font-family="sans-serif" font-size="10" lengthAdjust="spacing" textLength="154" x="313.25" y="179.5791">elki.clustering.dbscan.predicates</text><line style="stroke:#181818;stroke-width:0.5;" x1="10" x2="738" y1="186.9375" y2="186.9375"/><rect fill="none" height="6" style="stroke:#C82930;stroke-width:1.0;" width="6" x="17" y="197.5859"/><text fill="#000000" font-family="sans-serif" font-size="14" lengthAdjust="spacing" text-decoration="underline" textLength="93" x="29" y="203.9326">LOG: Logging</text><rect fill="none" height="6" style="stroke:#C82930;stroke-width:1.0;" width="6" x="17" y="213.8828"/><text fill="#000000" font-family="sans-serif" font-size="14" lengthAdjust="spacing" textLength="155" x="29" y="220.2295">mvSize: MeanVariance</text><rect fill="none" height="6" style="stroke:#C82930;stroke-width:1.0;" width="6" x="17" y="230.1797"/><text fill="#000000" font-family="sans-serif" font-size="14" lengthAdjust="spacing" textLength="148" x="29" y="236.5264">mvVar: MeanVariance</text><rect fill="none" height="6" style="stroke:#C82930;stroke-width:1.0;" width="6" x="17" y="246.4766"/><text fill="#000000" font-family="sans-serif" font-size="14" lengthAdjust="spacing" textLength="122" x="29" y="252.8232">settings: Settings</text><line style="stroke:#181818;stroke-width:0.5;" x1="10" x2="738" y1="260.125" y2="260.125"/><ellipse cx="20" cy="273.7734" fill="#84BE84" rx="3" ry="3" style="stroke:#038048;stroke-width:1.0;"/><text fill="#000000" font-family="sans-serif" font-size="14" lengthAdjust="spacing" textLength="266" x="29" y="277.1201">PreDeConNeighborPredicate(Settings)</text><ellipse cx="20" cy="290.0703" fill="#84BE84" rx="3" ry="3" style="stroke:#038048;stroke-width:1.0;"/><text fill="#000000" font-family="sans-serif" font-size="14" lengthAdjust="spacing" textLength="216" x="29" y="293.417">instantiate(Database): Instance</text><polygon fill="#FFFF44" points="20,301.3672,24,305.3672,20,309.3672,16,305.3672" style="stroke:#B38D22;stroke-width:1.0;"/><text fill="#000000" font-family="sans-serif" font-size="14" lengthAdjust="spacing" textLength="704" x="29" y="309.7139">computeLocalModel(DBIDRef, DoubleDBIDList, Relation&lt;? extends NumberVector&gt;): PreDeConModel</text><polygon fill="#4177AF" points="20,318.6641,16,324.6641,24,324.6641" style="stroke:#1963A0;stroke-width:1.0;"/><text fill="#000000" font-family="sans-serif" font-size="14" lengthAdjust="spacing" textLength="145" x="29" y="326.0107">getLogger(): Logging</text><ellipse cx="20" cy="338.9609" fill="#84BE84" rx="3" ry="3" style="stroke:#038048;stroke-width:1.0;"/><text fill="#000000" font-family="sans-serif" font-size="14" lengthAdjust="spacing" textLength="418" x="29" y="342.3076">getOutputType(): SimpleTypeInformation&lt;PreDeConModel&gt;</text></g></a><!--MD5=[d4b28d15ca62d37c236a3d5cad149579]
class elki.clustering.dbscan.predicates.AbstractRangeQueryNeighborPredicate--><a href="AbstractRangeQueryNeighborPredicate.html" target="_top" title="AbstractRangeQueryNeighborPredicate.html" xlink:actuate="onRequest" xlink:href="AbstractRangeQueryNeighborPredicate.html" xlink:show="new" xlink:title="AbstractRangeQueryNeighborPredicate.html" xlink:type="simple"><g id="elem_elki.clustering.dbscan.predicates.AbstractRangeQueryNeighborPredicate"><rect codeLine="18" fill="#F1F1F1" height="78.5313" id="elki.clustering.dbscan.predicates.AbstractRangeQueryNeighborPredicate" rx="2.5" ry="2.5" style="stroke:#181818;stroke-width:0.5;" width="654" x="47" y="10"/><ellipse cx="86.3" cy="28.9688" fill="#A9DCDF" rx="11" ry="11" style="stroke:#181818;stroke-width:1.0;"/><path d="M86.4094,24.3125 L85.2531,29.3906 L87.5813,29.3906 L86.4094,24.3125 Z M84.925,22.0781 L87.9094,22.0781 L91.2688,34.4688 L88.8156,34.4688 L88.05,31.4063 L84.7688,31.4063 L84.0188,34.4688 L81.5813,34.4688 L84.925,22.0781 Z " fill="#000000"/><text fill="#000000" font-family="sans-serif" font-size="14" font-style="italic" lengthAdjust="spacing" textLength="277" x="105.7" y="27.9951">AbstractRangeQueryNeighborPredicate</text><text fill="#000000" font-family="sans-serif" font-size="10" font-style="italic" lengthAdjust="spacing" textLength="163" x="162.7" y="40.5791">elki.clustering.dbscan.predicates</text><rect fill="#FFFFFF" height="15.9688" style="stroke:#181818;stroke-width:1.0;stroke-dasharray:2.0,2.0;" width="289" x="415" y="7"/><text fill="#000000" font-family="sans-serif" font-size="12" font-style="italic" lengthAdjust="spacing" textLength="287" x="416" y="19.1387">NumberVector, PreDeConModel, PreDeConModel</text><line style="stroke:#181818;stroke-width:0.5;" x1="48" x2="700" y1="47.9375" y2="47.9375"/><polygon fill="#FFFF44" points="58,56.5859,62,60.5859,58,64.5859,54,60.5859" style="stroke:#B38D22;stroke-width:1.0;"/><text fill="#000000" font-family="sans-serif" font-size="14" font-style="italic" lengthAdjust="spacing" textLength="628" x="67" y="64.9326">computeLocalModel(DBIDRef, DoubleDBIDList, Relation&lt;? extends O&gt;): PreDeConModel</text><polygon fill="#4177AF" points="58,73.8828,54,79.8828,62,79.8828" style="stroke:#1963A0;stroke-width:1.0;"/><text fill="#000000" font-family="sans-serif" font-size="14" font-style="italic" lengthAdjust="spacing" textLength="148" x="67" y="81.2295">getLogger(): Logging</text></g></a><!--MD5=[402bf4017883e9d368ea3b6de799f2f3]
class elki.clustering.dbscan.predicates.PreDeConNeighborPredicate.PreDeConModel--><a href="PreDeConNeighborPredicate.PreDeConModel.html" target="_top" title="PreDeConNeighborPredicate.PreDeConModel.html" xlink:actuate="onRequest" xlink:href="PreDeConNeighborPredicate.PreDeConModel.html" xlink:show="new" xlink:title="PreDeConNeighborPredicate.PreDeConModel.html" xlink:type="simple"><g id="elem_elki.clustering.dbscan.predicates.PreDeConNeighborPredicate.PreDeConModel"><rect codeLine="22" fill="#F1F1F1" height="37.9375" id="elki.clustering.dbscan.predicates.PreDeConNeighborPredicate.PreDeConModel" rx="2.5" ry="2.5" style="stroke:#181818;stroke-width:0.5;" width="348" x="200" y="410"/><ellipse cx="215" cy="428.9688" fill="#ADD1B2" rx="11" ry="11" style="stroke:#181818;stroke-width:1.0;"/><path d="M217.9688,434.6094 Q217.3906,434.9063 216.75,435.0469 Q216.1094,435.2031 215.4063,435.2031 Q212.9063,435.2031 211.5781,433.5625 Q210.2656,431.9063 210.2656,428.7813 Q210.2656,425.6563 211.5781,424 Q212.9063,422.3438 215.4063,422.3438 Q216.1094,422.3438 216.75,422.5 Q217.4063,422.6563 217.9688,422.9531 L217.9688,425.6719 Q217.3438,425.0938 216.75,424.8281 Q216.1563,424.5469 215.5313,424.5469 Q214.1875,424.5469 213.5,425.625 Q212.8125,426.6875 212.8125,428.7813 Q212.8125,430.875 213.5,431.9531 Q214.1875,433.0156 215.5313,433.0156 Q216.1563,433.0156 216.75,432.75 Q217.3438,432.4688 217.9688,431.8906 L217.9688,434.6094 Z " fill="#000000"/><text fill="#000000" font-family="sans-serif" font-size="14" lengthAdjust="spacing" textLength="316" x="229" y="427.9951">PreDeConNeighborPredicate.PreDeConModel</text><text fill="#000000" font-family="sans-serif" font-size="10" lengthAdjust="spacing" textLength="154" x="310" y="440.5791">elki.clustering.dbscan.predicates</text></g></a><!--MD5=[865f55aa05ae4b1484781af6fc16fa9c]
reverse link elki.clustering.dbscan.predicates.AbstractRangeQueryNeighborPredicate to elki.clustering.dbscan.predicates.PreDeConNeighborPredicate--><g id="link_elki.clustering.dbscan.predicates.AbstractRangeQueryNeighborPredicate_elki.clustering.dbscan.predicates.PreDeConNeighborPredicate"><path codeLine="26" d="M374,109.51 C374,121.91 374,135.31 374,148.73 " fill="none" id="elki.clustering.dbscan.predicates.AbstractRangeQueryNeighborPredicate-backto-elki.clustering.dbscan.predicates.PreDeConNeighborPredicate" style="stroke:#181818;stroke-width:1.0;"/><polygon fill="none" points="367,109.15,374,89.15,381,109.15,367,109.15" style="stroke:#181818;stroke-width:1.0;"/></g><!--MD5=[e8fec41be4176a7a8e152caeb1c130c0]
reverse link elki.clustering.dbscan.predicates.PreDeConNeighborPredicate to elki.clustering.dbscan.predicates.PreDeConNeighborPredicate.PreDeConModel--><g id="link_elki.clustering.dbscan.predicates.PreDeConNeighborPredicate_elki.clustering.dbscan.predicates.PreDeConNeighborPredicate.PreDeConModel"><path codeLine="27" d="M374,365.24 C374,382.47 374,398.27 374,409.71 " fill="none" id="elki.clustering.dbscan.predicates.PreDeConNeighborPredicate-backto-elki.clustering.dbscan.predicates.PreDeConNeighborPredicate.PreDeConModel" style="stroke:#181818;stroke-width:1.0;"/><ellipse cx="374" cy="358.15" fill="#FFFFFF" rx="8" ry="8" style="stroke:#181818;stroke-width:1.0;"/><line style="stroke:#181818;stroke-width:1.0;" x1="374" x2="374" y1="366.15" y2="350.15"/><line style="stroke:#181818;stroke-width:1.0;" x1="366" x2="382" y1="358.15" y2="358.15"/></g><rect fill="none" height="11.6406" style="stroke:none;stroke-width:1.0;" width="186" x="273" y="452.9375"/><text fill="#888888" font-family="sans-serif" font-size="10" lengthAdjust="spacing" textLength="186" x="273" y="462.2197">UMLDoclet 2.0.19, PlantUML 1.2022.8</text><!--MD5=[3a9f258d50fbf5d05c8b02923fe155db]
@startuml
    remove .*\.(Instance|Par|Parameterizer|Factory)$
    set namespaceSeparator none
    hide empty fields
    hide empty methods

    class "<size:14>PreDeConNeighborPredicate\n<size:10>elki.clustering.dbscan.predicates" as elki.clustering.dbscan.predicates.PreDeConNeighborPredicate [[PreDeConNeighborPredicate.html]] {
        {static} -LOG: Logging
        -mvSize: MeanVariance
        -mvVar: MeanVariance
        -settings: Settings
        +PreDeConNeighborPredicate(Settings)
        +instantiate(Database): Instance
        #computeLocalModel(DBIDRef, DoubleDBIDList, Relation<? extends NumberVector>): PreDeConModel
        ~getLogger(): Logging
        +getOutputType(): SimpleTypeInformation<PreDeConModel>
    }

    abstract class "<size:14>AbstractRangeQueryNeighborPredicate\n<size:10>elki.clustering.dbscan.predicates" as elki.clustering.dbscan.predicates.AbstractRangeQueryNeighborPredicate<NumberVector, PreDeConModel, PreDeConModel> [[AbstractRangeQueryNeighborPredicate.html]] {
        {abstract} #computeLocalModel(DBIDRef, DoubleDBIDList, Relation<? extends O>): PreDeConModel
        {abstract} ~getLogger(): Logging
    }
    class "<size:14>PreDeConNeighborPredicate.PreDeConModel\n<size:10>elki.clustering.dbscan.predicates" as elki.clustering.dbscan.predicates.PreDeConNeighborPredicate.PreDeConModel [[PreDeConNeighborPredicate.PreDeConModel.html]]
    class "<size:14>PreDeConNeighborPredicate.Instance\n<size:10>elki.clustering.dbscan.predicates" as elki.clustering.dbscan.predicates.PreDeConNeighborPredicate.Instance [[PreDeConNeighborPredicate.Instance.html]]
    class "<size:14>PreDeConNeighborPredicate.Par\n<size:10>elki.clustering.dbscan.predicates" as elki.clustering.dbscan.predicates.PreDeConNeighborPredicate.Par [[PreDeConNeighborPredicate.Par.html]]

    elki.clustering.dbscan.predicates.AbstractRangeQueryNeighborPredicate <|- - elki.clustering.dbscan.predicates.PreDeConNeighborPredicate
    elki.clustering.dbscan.predicates.PreDeConNeighborPredicate +- - elki.clustering.dbscan.predicates.PreDeConNeighborPredicate.PreDeConModel
    elki.clustering.dbscan.predicates.PreDeConNeighborPredicate +- - elki.clustering.dbscan.predicates.PreDeConNeighborPredicate.Instance
    elki.clustering.dbscan.predicates.PreDeConNeighborPredicate +- - elki.clustering.dbscan.predicates.PreDeConNeighborPredicate.Par

    center footer UMLDoclet 2.0.19, PlantUML 1.2022.8
@enduml

PlantUML version 1.2022.8(Sun Sep 25 11:00:33 CEST 2022)
(APACHE source distribution)
Java Runtime: OpenJDK Runtime Environment
JVM: OpenJDK 64-Bit Server VM
Default Encoding: UTF-8
Language: de
Country: DE
--></g></svg>