<?xml version="1.0" encoding="UTF-8" standalone="no"?>
<!DOCTYPE svg PUBLIC "-//W3C//DTD SVG 1.1//EN"
 "http://www.w3.org/Graphics/SVG/1.1/DTD/svg11.dtd">
<!-- Generated by graphviz version 2.40.1 (20161225.0304)
 -->
<!-- Title: G Pages: 1 -->
<svg width="437pt" height="107pt"
 viewBox="0.00 0.00 437.00 107.00" xmlns="http://www.w3.org/2000/svg" xmlns:xlink="http://www.w3.org/1999/xlink">
<g id="graph0" class="graph" transform="scale(1 1) rotate(0) translate(4 103)">
<title>G</title>
<polygon fill="#ffffff" stroke="transparent" points="-4,4 -4,-103 433,-103 433,4 -4,4"/>
<!-- c7734608 -->
<g id="node1" class="node">
<title>c7734608</title>
<g id="a_node1"><a xlink:href="../OrderingResult.html" xlink:title="&lt;TABLE&gt;">
<g id="a_node1_0"><a xlink:href="../OrderingResult.html" xlink:title="de.lmu.ifi.dbs.elki.result.OrderingResult" target="_parent">
<polygon fill="none" stroke="#000000" points="78.5,-59.5 78.5,-98.5 171.5,-98.5 171.5,-59.5 78.5,-59.5"/>
<text text-anchor="start" x="103.5" y="-88.1" font-family="Roboto" font-size="8.00" fill="#000000"> «interface» </text>
<text text-anchor="start" x="95" y="-78.1" font-family="Roboto" font-size="8.00" fill="#000000"> </text>
<text text-anchor="start" x="98" y="-78.1" font-family="Roboto" font-size="8.00" fill="#000000">OrderingResult</text>
<text text-anchor="start" x="152" y="-78.1" font-family="Roboto" font-size="8.00" fill="#000000"> </text>
<text text-anchor="start" x="82.5" y="-67.1" font-family="Roboto" font-size="8.00" fill="#000000"> </text>
<text text-anchor="start" x="85.5" y="-67.1" font-family="Roboto" font-size="7.00" fill="#000000">de.lmu.ifi.dbs.elki.result</text>
<text text-anchor="start" x="164.5" y="-67.1" font-family="Roboto" font-size="8.00" fill="#000000"> </text>
</a>
</g>
</a>
</g>
</g>
<!-- c7736452 -->
<g id="node4" class="node">
<title>c7736452</title>
<g id="a_node4"><a xlink:href="OrderingFromRelation.html" xlink:title="&lt;TABLE&gt;">
<g id="a_node4_1"><a xlink:href="OrderingFromRelation.html" xlink:title="de.lmu.ifi.dbs.elki.result.outlier.OrderingFromRelation" target="_parent">
<polygon fill="#fffacd" stroke="transparent" points="189,-71 189,-88 282,-88 282,-71 189,-71"/>
<polygon fill="none" stroke="#000000" points="189.5,-70.5 189.5,-87.5 282.5,-87.5 282.5,-70.5 189.5,-70.5"/>
<text text-anchor="start" x="193.5" y="-78.1" font-family="Roboto" font-size="8.00" fill="#000000"> </text>
<text text-anchor="start" x="196.5" y="-78.1" font-family="Roboto" font-size="8.00" fill="#000000">OrderingFromRelation</text>
<text text-anchor="start" x="275.5" y="-78.1" font-family="Roboto" font-size="8.00" fill="#000000"> </text>
</a>
</g>
</a>
</g>
</g>
<!-- c7734608&#45;&gt;c7736452 -->
<g id="edge3" class="edge">
<title>c7734608&#45;&gt;c7736452</title>
<path fill="none" stroke="#000000" stroke-dasharray="5,2" d="M181.4034,-79.5C183.8798,-79.5 186.3525,-79.5 188.8017,-79.5"/>
<polygon fill="none" stroke="#000000" points="181.2523,-76.0001 171.2523,-79.5 181.2522,-83.0001 181.2523,-76.0001"/>
</g>
<!-- c7734700 -->
<g id="node2" class="node">
<title>c7734700</title>
<g id="a_node2"><a xlink:href="../../database/relation/DoubleRelation.html" xlink:title="&lt;TABLE&gt;">
<g id="a_node2_2"><a xlink:href="../../database/relation/DoubleRelation.html" xlink:title="de.lmu.ifi.dbs.elki.database.relation.DoubleRelation" target="_parent">
<polygon fill="none" stroke="#000000" points="300.5,.5 300.5,-38.5 429.5,-38.5 429.5,.5 300.5,.5"/>
<text text-anchor="start" x="343.5" y="-28.1" font-family="Roboto" font-size="8.00" fill="#000000"> «interface» </text>
<text text-anchor="start" x="335" y="-18.1" font-family="Roboto" font-size="8.00" fill="#000000"> </text>
<text text-anchor="start" x="338" y="-18.1" font-family="Roboto" font-size="8.00" fill="#000000">DoubleRelation</text>
<text text-anchor="start" x="392" y="-18.1" font-family="Roboto" font-size="8.00" fill="#000000"> </text>
<text text-anchor="start" x="304.5" y="-7.1" font-family="Roboto" font-size="8.00" fill="#000000"> </text>
<text text-anchor="start" x="307.5" y="-7.1" font-family="Roboto" font-size="7.00" fill="#000000">de.lmu.ifi.dbs.elki.database.relation</text>
<text text-anchor="start" x="422.5" y="-7.1" font-family="Roboto" font-size="8.00" fill="#000000"> </text>
</a>
</g>
</a>
</g>
</g>
<!-- c7736448 -->
<g id="node3" class="node">
<title>c7736448</title>
<g id="a_node3"><a xlink:href="OutlierResult.html" xlink:title="&lt;TABLE&gt;">
<g id="a_node3_3"><a xlink:href="OutlierResult.html" xlink:title="de.lmu.ifi.dbs.elki.result.outlier.OutlierResult" target="_parent">
<polygon fill="#fffacd" stroke="transparent" points="0,-34 0,-51 60,-51 60,-34 0,-34"/>
<polygon fill="none" stroke="#000000" points="0,-33.5 0,-50.5 60,-50.5 60,-33.5 0,-33.5"/>
<text text-anchor="start" x="4" y="-41.1" font-family="Roboto" font-size="8.00" fill="#000000"> </text>
<text text-anchor="start" x="7" y="-41.1" font-family="Roboto" font-size="8.00" fill="#000000">OutlierResult</text>
<text text-anchor="start" x="53" y="-41.1" font-family="Roboto" font-size="8.00" fill="#000000"> </text>
</a>
</g>
</a>
</g>
</g>
<!-- c7736448&#45;&gt;c7734608 -->
<g id="edge5" class="edge">
<title>c7736448&#45;&gt;c7734608</title>
<path fill="none" stroke="#000000" d="M51.9177,-51.0815C56.8777,-53.0235 62.3664,-55.1726 68.0394,-57.3938"/>
<polygon fill="#000000" stroke="#000000" points="77.6999,-61.1761 66.7475,-61.7205 73.044,-59.3532 68.3882,-57.5302 68.3882,-57.5302 68.3882,-57.5302 73.044,-59.3532 70.0288,-53.34 77.6999,-61.1761 77.6999,-61.1761"/>
</g>
<!-- c7736448&#45;&gt;c7734700 -->
<g id="edge2" class="edge">
<title>c7736448&#45;&gt;c7734700</title>
<path fill="none" stroke="#000000" d="M72.4897,-39.5784C127.1172,-35.8223 222.8932,-29.2368 289.8115,-24.6355"/>
<polygon fill="#000000" stroke="#000000" points="72.2463,-39.5951 66.5349,-43.9973 60.2746,-40.4183 65.9861,-36.0161 72.2463,-39.5951"/>
<polygon fill="#000000" stroke="#000000" points="299.8796,-23.9433 290.2119,-29.1187 294.8914,-24.2863 289.9032,-24.6293 289.9032,-24.6293 289.9032,-24.6293 294.8914,-24.2863 289.5945,-20.1399 299.8796,-23.9433 299.8796,-23.9433"/>
</g>
<!-- c7736448&#45;&gt;c7736452 -->
<g id="edge1" class="edge">
<title>c7736448&#45;&gt;c7736452</title>
<path fill="none" stroke="#000000" d="M72.3489,-42.9708C100.6058,-44.0471 138.4121,-46.9613 171,-54.5 187.2639,-58.2624 204.8818,-65.3094 217.5885,-70.965"/>
<polygon fill="#000000" stroke="#000000" points="72.0855,-42.9628 65.9658,-46.7773 60.0911,-42.5956 66.2107,-38.7811 72.0855,-42.9628"/>
</g>
<!-- c7736452&#45;&gt;c7734700 -->
<g id="edge4" class="edge">
<title>c7736452&#45;&gt;c7734700</title>
<path fill="none" stroke="#000000" d="M253.9826,-70.9035C271.7477,-62.6406 299.231,-49.8577 322.3457,-39.1067"/>
</g>
</g>
</svg>
