<?xml version="1.0" encoding="UTF-8" standalone="no"?>
<!DOCTYPE svg PUBLIC "-//W3C//DTD SVG 1.1//EN"
 "http://www.w3.org/Graphics/SVG/1.1/DTD/svg11.dtd">
<!-- Generated by graphviz version 2.40.1 (20161225.0304)
 -->
<!-- Title: G Pages: 1 -->
<svg width="265pt" height="36pt"
 viewBox="0.00 0.00 265.00 36.00" xmlns="http://www.w3.org/2000/svg" xmlns:xlink="http://www.w3.org/1999/xlink">
<g id="graph0" class="graph" transform="scale(1 1) rotate(0) translate(4 32)">
<title>G</title>
<polygon fill="#ffffff" stroke="transparent" points="-4,4 -4,-32 261,-32 261,4 -4,4"/>
<!-- c2056325 -->
<g id="node1" class="node">
<title>c2056325</title>
<g id="a_node1"><a xlink:href="NumberVector.Factory.html" xlink:title="&lt;TABLE&gt;">
<g id="a_node1_0"><a xlink:href="NumberVector.Factory.html" xlink:title="de.lmu.ifi.dbs.elki.data.NumberVector.Factory" target="_parent">
<polygon fill="none" stroke="#000000" points="0,0 0,-28 92,-28 92,0 0,0"/>
<text text-anchor="start" x="24.5" y="-17.6" font-family="Roboto" font-size="8.00" fill="#000000"> «interface» </text>
<text text-anchor="start" x="4" y="-7.6" font-family="Roboto" font-size="8.00" fill="#000000"> </text>
<text text-anchor="start" x="7" y="-7.6" font-family="Roboto" font-size="8.00" fill="#000000">NumberVector.Factory</text>
<text text-anchor="start" x="85" y="-7.6" font-family="Roboto" font-size="8.00" fill="#000000"> </text>
</a>
</g>
</a>
</g>
</g>
<!-- c2056434 -->
<g id="node3" class="node">
<title>c2056434</title>
<g id="a_node3"><a xlink:href="ByteVector.Factory.html" xlink:title="&lt;TABLE&gt;">
<g id="a_node3_1"><a xlink:href="ByteVector.Factory.html" xlink:title="de.lmu.ifi.dbs.elki.data.ByteVector.Factory" target="_parent">
<polygon fill="#fffacd" stroke="transparent" points="110,-5.5 110,-22.5 188,-22.5 188,-5.5 110,-5.5"/>
<polygon fill="none" stroke="#000000" points="110,-5 110,-22 188,-22 188,-5 110,-5"/>
<text text-anchor="start" x="114" y="-12.6" font-family="Roboto" font-size="8.00" fill="#000000"> </text>
<text text-anchor="start" x="117" y="-12.6" font-family="Roboto" font-size="8.00" fill="#000000">ByteVector.Factory</text>
<text text-anchor="start" x="181" y="-12.6" font-family="Roboto" font-size="8.00" fill="#000000"> </text>
</a>
</g>
</a>
</g>
</g>
<!-- c2056325&#45;&gt;c2056434 -->
<g id="edge1" class="edge">
<title>c2056325&#45;&gt;c2056434</title>
<path fill="none" stroke="#000000" stroke-dasharray="5,2" d="M102.3316,-14C104.8198,-14 107.2929,-14 109.7272,-14"/>
<polygon fill="none" stroke="#000000" points="102.0773,-10.5001 92.0773,-14 102.0773,-17.5001 102.0773,-10.5001"/>
</g>
<!-- c2056433 -->
<g id="node2" class="node">
<title>c2056433</title>
<g id="a_node2"><a xlink:href="ByteVector.html" xlink:title="&lt;TABLE&gt;">
<g id="a_node2_2"><a xlink:href="ByteVector.html" xlink:title="de.lmu.ifi.dbs.elki.data.ByteVector" target="_parent">
<polygon fill="none" stroke="#000000" points="206.5,-5 206.5,-22 257.5,-22 257.5,-5 206.5,-5"/>
<text text-anchor="start" x="210.5" y="-12.6" font-family="Roboto" font-size="8.00" fill="#000000"> </text>
<text text-anchor="start" x="213.5" y="-12.6" font-family="Roboto" font-size="8.00" fill="#000000">ByteVector</text>
<text text-anchor="start" x="250.5" y="-12.6" font-family="Roboto" font-size="8.00" fill="#000000"> </text>
</a>
</g>
</a>
</g>
</g>
<!-- c2056434&#45;&gt;c2056433 -->
<g id="edge2" class="edge">
<title>c2056434&#45;&gt;c2056433</title>
<path fill="none" stroke="#000000" d="M200.5563,-14C202.3729,-14 204.1609,-14 205.9051,-14"/>
<polygon fill="none" stroke="#000000" points="200.317,-14.0001 194.317,-18 188.317,-14 194.3171,-10 200.317,-14.0001"/>
</g>
</g>
</svg>
