<?xml version="1.0" encoding="UTF-8" standalone="no"?>
<!DOCTYPE svg PUBLIC "-//W3C//DTD SVG 1.1//EN"
 "http://www.w3.org/Graphics/SVG/1.1/DTD/svg11.dtd">
<!-- Generated by graphviz version 2.40.1 (20161225.0304)
 -->
<!-- Title: G Pages: 1 -->
<svg width="457pt" height="116pt"
 viewBox="0.00 0.00 457.00 116.00" xmlns="http://www.w3.org/2000/svg" xmlns:xlink="http://www.w3.org/1999/xlink">
<g id="graph0" class="graph" transform="scale(1 1) rotate(0) translate(4 112)">
<title>G</title>
<polygon fill="#ffffff" stroke="transparent" points="-4,4 -4,-112 453,-112 453,4 -4,4"/>
<!-- c2488048 -->
<g id="node1" class="node">
<title>c2488048</title>
<g id="a_node1"><a xlink:href="ClassLabel.html" xlink:title="&lt;TABLE&gt;">
<g id="a_node1_0"><a xlink:href="ClassLabel.html" xlink:title="de.lmu.ifi.dbs.elki.data.ClassLabel" target="_parent">
<polygon fill="none" stroke="#000000" points="359.5,-82 359.5,-99 413.5,-99 413.5,-82 359.5,-82"/>
<text text-anchor="start" x="363.5" y="-89.6" font-family="Roboto" font-size="8.00" fill="#000000"> </text>
<text text-anchor="start" x="366.5" y="-89.6" font-family="Roboto" font-style="italic" font-size="8.00" fill="#000000">ClassLabel</text>
<text text-anchor="start" x="406.5" y="-89.6" font-family="Roboto" font-size="8.00" fill="#000000"> </text>
</a>
</g>
</a>
</g>
</g>
<!-- c2488049 -->
<g id="node2" class="node">
<title>c2488049</title>
<g id="a_node2"><a xlink:href="ClassLabel.Factory.html" xlink:title="&lt;TABLE&gt;">
<g id="a_node2_1"><a xlink:href="ClassLabel.Factory.html" xlink:title="de.lmu.ifi.dbs.elki.data.ClassLabel.Factory" target="_parent">
<polygon fill="#fffacd" stroke="transparent" points="199,-39 199,-67 281,-67 281,-39 199,-39"/>
<polygon fill="none" stroke="#000000" points="199,-39 199,-67 281,-67 281,-39 199,-39"/>
<text text-anchor="start" x="221.5" y="-56.6" font-family="Roboto" font-size="8.00" fill="#000000"> «factory» </text>
<text text-anchor="start" x="203" y="-46.6" font-family="Roboto" font-size="8.00" fill="#000000"> </text>
<text text-anchor="start" x="206" y="-46.6" font-family="Roboto" font-style="italic" font-size="8.00" fill="#000000">ClassLabel.Factory</text>
<text text-anchor="start" x="274" y="-46.6" font-family="Roboto" font-size="8.00" fill="#000000"> </text>
</a>
</g>
</a>
</g>
</g>
<!-- c2488049&#45;&gt;c2488048 -->
<g id="edge1" class="edge">
<title>c2488049&#45;&gt;c2488048</title>
<path fill="none" stroke="#000000" d="M293.026,-66.7542C315.563,-72.5999 340.8713,-79.1646 359.4643,-83.9873"/>
<polygon fill="none" stroke="#000000" points="292.8139,-66.6992 286.0018,-69.0646 281.1983,-63.6862 288.0104,-61.3209 292.8139,-66.6992"/>
<text text-anchor="middle" x="302.5" y="-74.4" font-family="Roboto" font-size="7.00" fill="#000000">creates</text>
</g>
<!-- c2488085 -->
<g id="node3" class="node">
<title>c2488085</title>
<g id="a_node3"><a xlink:href="SimpleClassLabel.Factory.html" xlink:title="&lt;TABLE&gt;">
<g id="a_node3_2"><a xlink:href="SimpleClassLabel.Factory.html" xlink:title="de.lmu.ifi.dbs.elki.data.SimpleClassLabel.Factory" target="_parent">
<polygon fill="none" stroke="#000000" points="334.5,-39 334.5,-67 439.5,-67 439.5,-39 334.5,-39"/>
<text text-anchor="start" x="368.5" y="-56.6" font-family="Roboto" font-size="8.00" fill="#000000"> «factory» </text>
<text text-anchor="start" x="338.5" y="-46.6" font-family="Roboto" font-size="8.00" fill="#000000"> </text>
<text text-anchor="start" x="341.5" y="-46.6" font-family="Roboto" font-size="8.00" fill="#000000">SimpleClassLabel.Factory</text>
<text text-anchor="start" x="432.5" y="-46.6" font-family="Roboto" font-size="8.00" fill="#000000"> </text>
</a>
</g>
</a>
</g>
</g>
<!-- c2488049&#45;&gt;c2488085 -->
<g id="edge2" class="edge">
<title>c2488049&#45;&gt;c2488085</title>
<path fill="none" stroke="#000000" d="M291.4433,-53C305.1748,-53 320.0312,-53 333.8276,-53"/>
<polygon fill="none" stroke="#000000" points="291.1983,-49.5001 281.1983,-53 291.1982,-56.5001 291.1983,-49.5001"/>
</g>
<!-- c2488100 -->
<g id="node4" class="node">
<title>c2488100</title>
<g id="a_node4"><a xlink:href="HierarchicalClassLabel.Factory.html" xlink:title="&lt;TABLE&gt;">
<g id="a_node4_3"><a xlink:href="HierarchicalClassLabel.Factory.html" xlink:title="de.lmu.ifi.dbs.elki.data.HierarchicalClassLabel.Factory" target="_parent">
<polygon fill="none" stroke="#000000" points="324.5,0 324.5,-28 449.5,-28 449.5,0 324.5,0"/>
<text text-anchor="start" x="368.5" y="-17.6" font-family="Roboto" font-size="8.00" fill="#000000"> «factory» </text>
<text text-anchor="start" x="328.5" y="-7.6" font-family="Roboto" font-size="8.00" fill="#000000"> </text>
<text text-anchor="start" x="331.5" y="-7.6" font-family="Roboto" font-size="8.00" fill="#000000">HierarchicalClassLabel.Factory</text>
<text text-anchor="start" x="442.5" y="-7.6" font-family="Roboto" font-size="8.00" fill="#000000"> </text>
</a>
</g>
</a>
</g>
</g>
<!-- c2488049&#45;&gt;c2488100 -->
<g id="edge3" class="edge">
<title>c2488049&#45;&gt;c2488100</title>
<path fill="none" stroke="#000000" d="M291.0398,-39.4126C304.8834,-35.7273 319.8959,-31.7308 333.8276,-28.022"/>
<polygon fill="none" stroke="#000000" points="289.9613,-36.0777 281.1983,-42.0325 291.7621,-42.8422 289.9613,-36.0777"/>
</g>
<!-- c2489516 -->
<g id="node5" class="node">
<title>c2489516</title>
<g id="a_node5"><a xlink:href="../datasource/filter/typeconversions/ClassLabelFilter.html" xlink:title="&lt;TABLE&gt;">
<g id="a_node5_4"><a xlink:href="../datasource/filter/typeconversions/ClassLabelFilter.html" xlink:title="de.lmu.ifi.dbs.elki.datasource.filter.typeconversions.ClassLabelFilter" target="_parent">
<polygon fill="none" stroke="#000000" points="0,-80 0,-108 180,-108 180,-80 0,-80"/>
<text text-anchor="start" x="58" y="-98.6" font-family="Roboto" font-size="8.00" fill="#000000"> </text>
<text text-anchor="start" x="61" y="-98.6" font-family="Roboto" font-size="8.00" fill="#000000">ClassLabelFilter</text>
<text text-anchor="start" x="119" y="-98.6" font-family="Roboto" font-size="8.00" fill="#000000"> </text>
<text text-anchor="start" x="4" y="-87.6" font-family="Roboto" font-size="8.00" fill="#000000"> </text>
<text text-anchor="start" x="7" y="-87.6" font-family="Roboto" font-size="7.00" fill="#000000">de.lmu.ifi.dbs.elki.datasource.filter.typeconversions</text>
<text text-anchor="start" x="173" y="-87.6" font-family="Roboto" font-size="8.00" fill="#000000"> </text>
</a>
</g>
</a>
</g>
</g>
<!-- c2489516&#45;&gt;c2488048 -->
<g id="edge4" class="edge">
<title>c2489516&#45;&gt;c2488048</title>
<path fill="none" stroke="#000000" d="M192.2433,-92.9655C251.4894,-92.366 321.6169,-91.6565 359.2949,-91.2753"/>
<polygon fill="none" stroke="#000000" points="192.1668,-92.9662 186.2076,-97.0267 180.1674,-93.0877 186.1266,-89.0271 192.1668,-92.9662"/>
</g>
<!-- c2489516&#45;&gt;c2488049 -->
<g id="edge5" class="edge">
<title>c2489516&#45;&gt;c2488049</title>
<path fill="none" stroke="#000000" d="M141.6215,-79.8901C156.9154,-75.7098 173.6504,-71.1356 188.9104,-66.9645"/>
<polygon fill="#000000" stroke="#000000" points="198.6955,-64.2899 190.2359,-71.2674 193.8724,-65.6082 189.0494,-66.9266 189.0494,-66.9266 189.0494,-66.9266 193.8724,-65.6082 187.8628,-62.5858 198.6955,-64.2899 198.6955,-64.2899"/>
</g>
</g>
</svg>
