<?xml version="1.0" encoding="UTF-8" standalone="no"?>
<!DOCTYPE svg PUBLIC "-//W3C//DTD SVG 1.1//EN"
 "http://www.w3.org/Graphics/SVG/1.1/DTD/svg11.dtd">
<!-- Generated by graphviz version 2.40.1 (20161225.0304)
 -->
<!-- Title: G Pages: 1 -->
<svg width="600pt" height="293pt"
 viewBox="0.00 0.00 600.00 293.00" xmlns="http://www.w3.org/2000/svg" xmlns:xlink="http://www.w3.org/1999/xlink">
<g id="graph0" class="graph" transform="scale(1 1) rotate(0) translate(4 289)">
<title>G</title>
<polygon fill="#ffffff" stroke="transparent" points="-4,4 -4,-289 596,-289 596,4 -4,4"/>
<!-- c2484099 -->
<g id="node1" class="node">
<title>c2484099</title>
<g id="a_node1"><a xlink:href="../evaluation/classification/holdout/TrainingAndTestSet.html" xlink:title="&lt;TABLE&gt;">
<g id="a_node1_0"><a xlink:href="../evaluation/classification/holdout/TrainingAndTestSet.html" xlink:title="de.lmu.ifi.dbs.elki.evaluation.classification.holdout.TrainingAndTestSet" target="_parent">
<polygon fill="none" stroke="#000000" points="199,-257 199,-285 379,-285 379,-257 199,-257"/>
<text text-anchor="start" x="251" y="-275.6" font-family="Roboto" font-size="8.00" fill="#000000"> </text>
<text text-anchor="start" x="254" y="-275.6" font-family="Roboto" font-size="8.00" fill="#000000">TrainingAndTestSet</text>
<text text-anchor="start" x="324" y="-275.6" font-family="Roboto" font-size="8.00" fill="#000000"> </text>
<text text-anchor="start" x="203" y="-264.6" font-family="Roboto" font-size="8.00" fill="#000000"> </text>
<text text-anchor="start" x="206" y="-264.6" font-family="Roboto" font-size="7.00" fill="#000000">de.lmu.ifi.dbs.elki.evaluation.classification.holdout</text>
<text text-anchor="start" x="372" y="-264.6" font-family="Roboto" font-size="8.00" fill="#000000"> </text>
</a>
</g>
</a>
</g>
</g>
<!-- c2484851 -->
<g id="node7" class="node">
<title>c2484851</title>
<g id="a_node7"><a xlink:href="ClassLabel.html" xlink:title="&lt;TABLE&gt;">
<g id="a_node7_1"><a xlink:href="ClassLabel.html" xlink:title="de.lmu.ifi.dbs.elki.data.ClassLabel" target="_parent">
<polygon fill="#fffacd" stroke="transparent" points="422,-51.5 422,-68.5 476,-68.5 476,-51.5 422,-51.5"/>
<polygon fill="none" stroke="#000000" points="422,-51 422,-68 476,-68 476,-51 422,-51"/>
<text text-anchor="start" x="426" y="-58.6" font-family="Roboto" font-size="8.00" fill="#000000"> </text>
<text text-anchor="start" x="429" y="-58.6" font-family="Roboto" font-style="italic" font-size="8.00" fill="#000000">ClassLabel</text>
<text text-anchor="start" x="469" y="-58.6" font-family="Roboto" font-size="8.00" fill="#000000"> </text>
</a>
</g>
</a>
</g>
</g>
<!-- c2484099&#45;&gt;c2484851 -->
<g id="edge7" class="edge">
<title>c2484099&#45;&gt;c2484851</title>
<path fill="none" stroke="#000000" d="M370.7563,-256.9844C373.6188,-255.482 376.3793,-253.8256 379,-252 402.2709,-235.7886 401.7327,-224.0268 413,-198 430.6446,-157.2419 441.2371,-105.8487 445.9974,-78.7346"/>
<polygon fill="#000000" stroke="#000000" points="447.6839,-68.7025 450.4637,-79.3103 446.8549,-73.6334 446.0259,-78.5642 446.0259,-78.5642 446.0259,-78.5642 446.8549,-73.6334 441.5882,-77.8181 447.6839,-68.7025 447.6839,-68.7025"/>
<text text-anchor="middle" x="445.6839" y="-71.1025" font-family="Roboto" font-size="7.00" fill="#000000">*</text>
</g>
<!-- c2484110 -->
<g id="node2" class="node">
<title>c2484110</title>
<g id="a_node2"><a xlink:href="../evaluation/classification/holdout/AbstractHoldout.html" xlink:title="&lt;TABLE&gt;">
<g id="a_node2_2"><a xlink:href="../evaluation/classification/holdout/AbstractHoldout.html" xlink:title="de.lmu.ifi.dbs.elki.evaluation.classification.holdout.AbstractHoldout" target="_parent">
<polygon fill="none" stroke="#000000" points="199,-218 199,-246 379,-246 379,-218 199,-218"/>
<text text-anchor="start" x="257" y="-236.6" font-family="Roboto" font-size="8.00" fill="#000000"> </text>
<text text-anchor="start" x="260" y="-236.6" font-family="Roboto" font-style="italic" font-size="8.00" fill="#000000">AbstractHoldout</text>
<text text-anchor="start" x="318" y="-236.6" font-family="Roboto" font-size="8.00" fill="#000000"> </text>
<text text-anchor="start" x="203" y="-225.6" font-family="Roboto" font-size="8.00" fill="#000000"> </text>
<text text-anchor="start" x="206" y="-225.6" font-family="Roboto" font-size="7.00" fill="#000000">de.lmu.ifi.dbs.elki.evaluation.classification.holdout</text>
<text text-anchor="start" x="372" y="-225.6" font-family="Roboto" font-size="8.00" fill="#000000"> </text>
</a>
</g>
</a>
</g>
</g>
<!-- c2484110&#45;&gt;c2484851 -->
<g id="edge8" class="edge">
<title>c2484110&#45;&gt;c2484851</title>
<path fill="none" stroke="#000000" d="M370.7167,-217.9269C373.5902,-216.4404 376.3638,-214.8031 379,-213 424.9387,-181.5791 441.2715,-112.1757 446.6208,-78.7344"/>
<polygon fill="#000000" stroke="#000000" points="448.0853,-68.5268 451.1194,-79.0646 447.3752,-73.4761 446.665,-78.4255 446.665,-78.4255 446.665,-78.4255 447.3752,-73.4761 442.2106,-77.7863 448.0853,-68.5268 448.0853,-68.5268"/>
<text text-anchor="middle" x="450.0853" y="-70.9268" font-family="Roboto" font-size="7.00" fill="#000000">*</text>
</g>
<!-- c2484112 -->
<g id="node3" class="node">
<title>c2484112</title>
<g id="a_node3"><a xlink:href="../evaluation/classification/ConfusionMatrix.html" xlink:title="&lt;TABLE&gt;">
<g id="a_node3_3"><a xlink:href="../evaluation/classification/ConfusionMatrix.html" xlink:title="de.lmu.ifi.dbs.elki.evaluation.classification.ConfusionMatrix" target="_parent">
<polygon fill="none" stroke="#000000" points="213,-179 213,-207 366,-207 366,-179 213,-179"/>
<text text-anchor="start" x="257" y="-197.6" font-family="Roboto" font-size="8.00" fill="#000000"> </text>
<text text-anchor="start" x="260" y="-197.6" font-family="Roboto" font-size="8.00" fill="#000000">ConfusionMatrix</text>
<text text-anchor="start" x="319" y="-197.6" font-family="Roboto" font-size="8.00" fill="#000000"> </text>
<text text-anchor="start" x="217" y="-186.6" font-family="Roboto" font-size="8.00" fill="#000000"> </text>
<text text-anchor="start" x="220" y="-186.6" font-family="Roboto" font-size="7.00" fill="#000000">de.lmu.ifi.dbs.elki.evaluation.classification</text>
<text text-anchor="start" x="359" y="-186.6" font-family="Roboto" font-size="8.00" fill="#000000"> </text>
</a>
</g>
</a>
</g>
</g>
<!-- c2484112&#45;&gt;c2484851 -->
<g id="edge9" class="edge">
<title>c2484112&#45;&gt;c2484851</title>
<path fill="none" stroke="#000000" d="M365.7722,-181.0678C370.4074,-179.0569 374.8626,-176.7183 379,-174 413.8177,-151.1249 434.21,-104.3371 443.2982,-78.3777"/>
<polygon fill="#000000" stroke="#000000" points="446.5102,-68.6579 447.6452,-79.5649 444.9413,-73.4054 443.3724,-78.1529 443.3724,-78.1529 443.3724,-78.1529 444.9413,-73.4054 439.0997,-76.741 446.5102,-68.6579 446.5102,-68.6579"/>
<text text-anchor="middle" x="444.5102" y="-71.0579" font-family="Roboto" font-size="7.00" fill="#000000">*</text>
</g>
<!-- c2484117 -->
<g id="node4" class="node">
<title>c2484117</title>
<g id="a_node4"><a xlink:href="../algorithm/classification/PriorProbabilityClassifier.html" xlink:title="&lt;TABLE&gt;">
<g id="a_node4_4"><a xlink:href="../algorithm/classification/PriorProbabilityClassifier.html" xlink:title="de.lmu.ifi.dbs.elki.algorithm.classification.PriorProbabilityClassifier" target="_parent">
<polygon fill="none" stroke="#000000" points="214,-140 214,-168 365,-168 365,-140 214,-140"/>
<text text-anchor="start" x="242.5" y="-158.6" font-family="Roboto" font-size="8.00" fill="#000000"> </text>
<text text-anchor="start" x="245.5" y="-158.6" font-family="Roboto" font-size="8.00" fill="#000000">PriorProbabilityClassifier</text>
<text text-anchor="start" x="333.5" y="-158.6" font-family="Roboto" font-size="8.00" fill="#000000"> </text>
<text text-anchor="start" x="218" y="-147.6" font-family="Roboto" font-size="8.00" fill="#000000"> </text>
<text text-anchor="start" x="221" y="-147.6" font-family="Roboto" font-size="7.00" fill="#000000">de.lmu.ifi.dbs.elki.algorithm.classification</text>
<text text-anchor="start" x="358" y="-147.6" font-family="Roboto" font-size="8.00" fill="#000000"> </text>
</a>
</g>
</a>
</g>
</g>
<!-- c2484117&#45;&gt;c2484851 -->
<g id="edge10" class="edge">
<title>c2484117&#45;&gt;c2484851</title>
<path fill="none" stroke="#000000" d="M364.9118,-141.5869C369.8063,-139.6935 374.55,-137.5123 379,-135 404.126,-120.8146 425.4835,-94.5487 437.7803,-77.1723"/>
<polygon fill="#000000" stroke="#000000" points="443.6461,-68.5664 441.7323,-79.364 440.83,-72.698 438.0139,-76.8296 438.0139,-76.8296 438.0139,-76.8296 440.83,-72.698 434.2955,-74.2951 443.6461,-68.5664 443.6461,-68.5664"/>
</g>
<!-- c2484505 -->
<g id="node5" class="node">
<title>c2484505</title>
<g id="a_node5"><a xlink:href="../algorithm/clustering/trivial/ByLabelHierarchicalClustering.html" xlink:title="&lt;TABLE&gt;">
<g id="a_node5_5"><a xlink:href="../algorithm/clustering/trivial/ByLabelHierarchicalClustering.html" xlink:title="de.lmu.ifi.dbs.elki.algorithm.clustering.trivial.ByLabelHierarchicalClustering" target="_parent">
<polygon fill="none" stroke="#000000" points="208,-101 208,-129 370,-129 370,-101 208,-101"/>
<text text-anchor="start" x="231.5" y="-119.6" font-family="Roboto" font-size="8.00" fill="#000000"> </text>
<text text-anchor="start" x="234.5" y="-119.6" font-family="Roboto" font-size="8.00" fill="#000000">ByLabelHierarchicalClustering</text>
<text text-anchor="start" x="343.5" y="-119.6" font-family="Roboto" font-size="8.00" fill="#000000"> </text>
<text text-anchor="start" x="212" y="-108.6" font-family="Roboto" font-size="8.00" fill="#000000"> </text>
<text text-anchor="start" x="215" y="-108.6" font-family="Roboto" font-size="7.00" fill="#000000">de.lmu.ifi.dbs.elki.algorithm.clustering.trivial</text>
<text text-anchor="start" x="363" y="-108.6" font-family="Roboto" font-size="8.00" fill="#000000"> </text>
</a>
</g>
</a>
</g>
</g>
<!-- c2484505&#45;&gt;c2484851 -->
<g id="edge1" class="edge">
<title>c2484505&#45;&gt;c2484851</title>
<path fill="none" stroke="#000000" d="M363.5954,-100.8838C368.8536,-99.3908 374.0345,-97.7651 379,-96 399.3448,-88.7682 421.2409,-76.75 435.0237,-68.6084"/>
</g>
<!-- c2484507 -->
<g id="node6" class="node">
<title>c2484507</title>
<g id="a_node6"><a xlink:href="../algorithm/clustering/trivial/ByLabelClustering.html" xlink:title="&lt;TABLE&gt;">
<g id="a_node6_6"><a xlink:href="../algorithm/clustering/trivial/ByLabelClustering.html" xlink:title="de.lmu.ifi.dbs.elki.algorithm.clustering.trivial.ByLabelClustering" target="_parent">
<polygon fill="none" stroke="#000000" points="208,-62 208,-90 370,-90 370,-62 208,-62"/>
<text text-anchor="start" x="253.5" y="-80.6" font-family="Roboto" font-size="8.00" fill="#000000"> </text>
<text text-anchor="start" x="256.5" y="-80.6" font-family="Roboto" font-size="8.00" fill="#000000">ByLabelClustering</text>
<text text-anchor="start" x="321.5" y="-80.6" font-family="Roboto" font-size="8.00" fill="#000000"> </text>
<text text-anchor="start" x="212" y="-69.6" font-family="Roboto" font-size="8.00" fill="#000000"> </text>
<text text-anchor="start" x="215" y="-69.6" font-family="Roboto" font-size="7.00" fill="#000000">de.lmu.ifi.dbs.elki.algorithm.clustering.trivial</text>
<text text-anchor="start" x="363" y="-69.6" font-family="Roboto" font-size="8.00" fill="#000000"> </text>
</a>
</g>
</a>
</g>
</g>
<!-- c2484507&#45;&gt;c2484851 -->
<g id="edge2" class="edge">
<title>c2484507&#45;&gt;c2484851</title>
<path fill="none" stroke="#000000" d="M370.4062,-67.8594C388.9339,-66.0066 407.361,-64.1639 421.7109,-62.7289"/>
</g>
<!-- c2484886 -->
<g id="node9" class="node">
<title>c2484886</title>
<g id="a_node9"><a xlink:href="SimpleClassLabel.html" xlink:title="&lt;TABLE&gt;">
<g id="a_node9_7"><a xlink:href="SimpleClassLabel.html" xlink:title="de.lmu.ifi.dbs.elki.data.SimpleClassLabel" target="_parent">
<polygon fill="none" stroke="#000000" points="504.5,-65 504.5,-82 582.5,-82 582.5,-65 504.5,-65"/>
<text text-anchor="start" x="508.5" y="-72.6" font-family="Roboto" font-size="8.00" fill="#000000"> </text>
<text text-anchor="start" x="511.5" y="-72.6" font-family="Roboto" font-size="8.00" fill="#000000">SimpleClassLabel</text>
<text text-anchor="start" x="575.5" y="-72.6" font-family="Roboto" font-size="8.00" fill="#000000"> </text>
</a>
</g>
</a>
</g>
</g>
<!-- c2484851&#45;&gt;c2484886 -->
<g id="edge4" class="edge">
<title>c2484851&#45;&gt;c2484886</title>
<path fill="none" stroke="#000000" d="M485.9794,-65.4784C492.0392,-66.3762 498.3359,-67.309 504.444,-68.2139"/>
<polygon fill="none" stroke="#000000" points="486.4849,-62.0152 476.0799,-64.0118 485.459,-68.9396 486.4849,-62.0152"/>
</g>
<!-- c2484902 -->
<g id="node10" class="node">
<title>c2484902</title>
<g id="a_node10"><a xlink:href="HierarchicalClassLabel.html" xlink:title="&lt;TABLE&gt;">
<g id="a_node10_8"><a xlink:href="HierarchicalClassLabel.html" xlink:title="de.lmu.ifi.dbs.elki.data.HierarchicalClassLabel" target="_parent">
<polygon fill="none" stroke="#000000" points="495.5,-37 495.5,-54 592.5,-54 592.5,-37 495.5,-37"/>
<text text-anchor="start" x="499.5" y="-44.6" font-family="Roboto" font-size="8.00" fill="#000000"> </text>
<text text-anchor="start" x="502.5" y="-44.6" font-family="Roboto" font-size="8.00" fill="#000000">HierarchicalClassLabel</text>
<text text-anchor="start" x="585.5" y="-44.6" font-family="Roboto" font-size="8.00" fill="#000000"> </text>
</a>
</g>
</a>
</g>
</g>
<!-- c2484851&#45;&gt;c2484902 -->
<g id="edge5" class="edge">
<title>c2484851&#45;&gt;c2484902</title>
<path fill="none" stroke="#000000" d="M486.1273,-54.4997C488.9866,-54.0761 491.8977,-53.6448 494.8162,-53.2124"/>
<polygon fill="none" stroke="#000000" points="485.459,-51.0604 476.0799,-55.9882 486.4849,-57.9848 485.459,-51.0604"/>
</g>
<!-- c2484852 -->
<g id="node8" class="node">
<title>c2484852</title>
<g id="a_node8"><a xlink:href="ClassLabel.Factory.html" xlink:title="&lt;TABLE&gt;">
<g id="a_node8_9"><a xlink:href="ClassLabel.Factory.html" xlink:title="de.lmu.ifi.dbs.elki.data.ClassLabel.Factory" target="_parent">
<polygon fill="none" stroke="#000000" points="248,0 248,-28 330,-28 330,0 248,0"/>
<text text-anchor="start" x="270.5" y="-17.6" font-family="Roboto" font-size="8.00" fill="#000000"> «factory» </text>
<text text-anchor="start" x="252" y="-7.6" font-family="Roboto" font-size="8.00" fill="#000000"> </text>
<text text-anchor="start" x="255" y="-7.6" font-family="Roboto" font-style="italic" font-size="8.00" fill="#000000">ClassLabel.Factory</text>
<text text-anchor="start" x="323" y="-7.6" font-family="Roboto" font-size="8.00" fill="#000000"> </text>
</a>
</g>
</a>
</g>
</g>
<!-- c2484852&#45;&gt;c2484851 -->
<g id="edge3" class="edge">
<title>c2484852&#45;&gt;c2484851</title>
<path fill="none" stroke="#000000" d="M342.3725,-13.6509C364.9639,-15.2049 391.0724,-19.322 413,-29 424.4694,-34.0621 435.0103,-44.0417 441.6819,-51.3146"/>
<polygon fill="none" stroke="#000000" points="342.2169,-13.6431 336.0211,-17.3325 330.2324,-13.0322 336.4283,-9.3429 342.2169,-13.6431"/>
<text text-anchor="middle" x="400.5" y="-31.4" font-family="Roboto" font-size="7.00" fill="#000000">creates</text>
</g>
<!-- c2486319 -->
<g id="node11" class="node">
<title>c2486319</title>
<g id="a_node11"><a xlink:href="../datasource/filter/typeconversions/ClassLabelFilter.html" xlink:title="&lt;TABLE&gt;">
<g id="a_node11_10"><a xlink:href="../datasource/filter/typeconversions/ClassLabelFilter.html" xlink:title="de.lmu.ifi.dbs.elki.datasource.filter.typeconversions.ClassLabelFilter" target="_parent">
<polygon fill="none" stroke="#000000" points="0,-31 0,-59 180,-59 180,-31 0,-31"/>
<text text-anchor="start" x="58" y="-49.6" font-family="Roboto" font-size="8.00" fill="#000000"> </text>
<text text-anchor="start" x="61" y="-49.6" font-family="Roboto" font-size="8.00" fill="#000000">ClassLabelFilter</text>
<text text-anchor="start" x="119" y="-49.6" font-family="Roboto" font-size="8.00" fill="#000000"> </text>
<text text-anchor="start" x="4" y="-38.6" font-family="Roboto" font-size="8.00" fill="#000000"> </text>
<text text-anchor="start" x="7" y="-38.6" font-family="Roboto" font-size="7.00" fill="#000000">de.lmu.ifi.dbs.elki.datasource.filter.typeconversions</text>
<text text-anchor="start" x="173" y="-38.6" font-family="Roboto" font-size="8.00" fill="#000000"> </text>
</a>
</g>
</a>
</g>
</g>
<!-- c2486319&#45;&gt;c2484851 -->
<g id="edge6" class="edge">
<title>c2486319&#45;&gt;c2484851</title>
<path fill="none" stroke="#000000" d="M192.4328,-49.22C247.6942,-51.5051 317.0795,-54.3876 379,-57 393.0976,-57.5948 408.7918,-58.2665 421.7412,-58.8233"/>
<polygon fill="none" stroke="#000000" points="192.1359,-49.2078 185.9758,-52.9566 180.1462,-48.7122 186.3063,-44.9634 192.1359,-49.2078"/>
</g>
<!-- c2486319&#45;&gt;c2484852 -->
<g id="edge11" class="edge">
<title>c2486319&#45;&gt;c2484852</title>
<path fill="none" stroke="#000000" d="M179.8937,-30.9965C199.7834,-27.8981 220.1898,-24.7192 237.8941,-21.9612"/>
<polygon fill="#000000" stroke="#000000" points="247.9815,-20.3898 238.7934,-26.3755 243.0411,-21.1595 238.1007,-21.9291 238.1007,-21.9291 238.1007,-21.9291 243.0411,-21.1595 237.408,-17.4827 247.9815,-20.3898 247.9815,-20.3898"/>
</g>
</g>
</svg>
