<?xml version="1.0" encoding="UTF-8" standalone="no"?>
<!DOCTYPE svg PUBLIC "-//W3C//DTD SVG 1.1//EN"
 "http://www.w3.org/Graphics/SVG/1.1/DTD/svg11.dtd">
<!-- Generated by graphviz version 2.40.1 (20161225.0304)
 -->
<!-- Title: G Pages: 1 -->
<svg width="233pt" height="149pt"
 viewBox="0.00 0.00 233.00 148.50" xmlns="http://www.w3.org/2000/svg" xmlns:xlink="http://www.w3.org/1999/xlink">
<g id="graph0" class="graph" transform="scale(1 1) rotate(0) translate(4 144.5)">
<title>G</title>
<polygon fill="#ffffff" stroke="transparent" points="-4,4 -4,-144.5 229,-144.5 229,4 -4,4"/>
<!-- c4489465 -->
<g id="node1" class="node">
<title>c4489465</title>
<g id="a_node1"><a xlink:href="NumberVector.html" xlink:title="&lt;TABLE&gt;">
<g id="a_node1_0"><a xlink:href="NumberVector.html" xlink:title="de.lmu.ifi.dbs.elki.data.NumberVector" target="_parent">
<polygon fill="#fffacd" stroke="transparent" points="27,-112.5 27,-140.5 92,-140.5 92,-112.5 27,-112.5"/>
<polygon fill="none" stroke="#000000" points="27.5,-112.5 27.5,-140.5 92.5,-140.5 92.5,-112.5 27.5,-112.5"/>
<text text-anchor="start" x="38.5" y="-130.1" font-family="Roboto" font-size="8.00" fill="#000000"> «interface» </text>
<text text-anchor="start" x="31.5" y="-120.1" font-family="Roboto" font-size="8.00" fill="#000000"> </text>
<text text-anchor="start" x="34.5" y="-120.1" font-family="Roboto" font-size="8.00" fill="#000000">NumberVector</text>
<text text-anchor="start" x="85.5" y="-120.1" font-family="Roboto" font-size="8.00" fill="#000000"> </text>
</a>
</g>
</a>
</g>
</g>
<!-- c4489579 -->
<g id="node2" class="node">
<title>c4489579</title>
<g id="a_node2"><a xlink:href="FloatVector.html" xlink:title="&lt;TABLE&gt;">
<g id="a_node2_1"><a xlink:href="FloatVector.html" xlink:title="de.lmu.ifi.dbs.elki.data.FloatVector" target="_parent">
<polygon fill="#fffacd" stroke="transparent" points="171,-84 171,-101 225,-101 225,-84 171,-84"/>
<polygon fill="none" stroke="#000000" points="171,-83.5 171,-100.5 225,-100.5 225,-83.5 171,-83.5"/>
<text text-anchor="start" x="175" y="-91.1" font-family="Roboto" font-size="8.00" fill="#000000"> </text>
<text text-anchor="start" x="178" y="-91.1" font-family="Roboto" font-size="8.00" fill="#000000">FloatVector</text>
<text text-anchor="start" x="218" y="-91.1" font-family="Roboto" font-size="8.00" fill="#000000"> </text>
</a>
</g>
</a>
</g>
</g>
<!-- c4489465&#45;&gt;c4489579 -->
<g id="edge1" class="edge">
<title>c4489465&#45;&gt;c4489579</title>
<path fill="none" stroke="#000000" stroke-dasharray="5,2" d="M102.2743,-115.9995C124.692,-110.4962 151.4676,-103.9231 170.9928,-99.1299"/>
<polygon fill="none" stroke="#000000" points="101.1998,-112.6592 92.3226,-118.4425 102.8687,-119.4574 101.1998,-112.6592"/>
</g>
<!-- c4489580 -->
<g id="node3" class="node">
<title>c4489580</title>
<g id="a_node3"><a xlink:href="FloatVector.Factory.html" xlink:title="&lt;TABLE&gt;">
<g id="a_node3_2"><a xlink:href="FloatVector.Factory.html" xlink:title="de.lmu.ifi.dbs.elki.data.FloatVector.Factory" target="_parent">
<polygon fill="none" stroke="#000000" points="19.5,-83.5 19.5,-100.5 100.5,-100.5 100.5,-83.5 19.5,-83.5"/>
<text text-anchor="start" x="23.5" y="-91.1" font-family="Roboto" font-size="8.00" fill="#000000"> </text>
<text text-anchor="start" x="26.5" y="-91.1" font-family="Roboto" font-size="8.00" fill="#000000">FloatVector.Factory</text>
<text text-anchor="start" x="93.5" y="-91.1" font-family="Roboto" font-size="8.00" fill="#000000"> </text>
</a>
</g>
</a>
</g>
</g>
<!-- c4489580&#45;&gt;c4489579 -->
<g id="edge2" class="edge">
<title>c4489580&#45;&gt;c4489579</title>
<path fill="none" stroke="#000000" d="M112.363,-92.5C132.2254,-92.5 153.9961,-92.5 170.6162,-92.5"/>
<polygon fill="none" stroke="#000000" points="112.3055,-92.5001 106.3054,-96.5 100.3055,-92.5 106.3055,-88.5 112.3055,-92.5001"/>
</g>
<!-- c4489582 -->
<g id="node4" class="node">
<title>c4489582</title>
<g id="a_node4"><a xlink:href="FloatVector.SmallSerializer.html" xlink:title="&lt;TABLE&gt;">
<g id="a_node4_3"><a xlink:href="FloatVector.SmallSerializer.html" xlink:title="de.lmu.ifi.dbs.elki.data.FloatVector.SmallSerializer" target="_parent">
<polygon fill="none" stroke="#000000" points="5.5,-55.5 5.5,-72.5 114.5,-72.5 114.5,-55.5 5.5,-55.5"/>
<text text-anchor="start" x="9.5" y="-63.1" font-family="Roboto" font-size="8.00" fill="#000000"> </text>
<text text-anchor="start" x="12.5" y="-63.1" font-family="Roboto" font-size="8.00" fill="#000000">FloatVector.SmallSerializer</text>
<text text-anchor="start" x="107.5" y="-63.1" font-family="Roboto" font-size="8.00" fill="#000000"> </text>
</a>
</g>
</a>
</g>
</g>
<!-- c4489582&#45;&gt;c4489579 -->
<g id="edge3" class="edge">
<title>c4489582&#45;&gt;c4489579</title>
<path fill="none" stroke="#000000" d="M113.6901,-73.0043C129.3415,-75.7337 146.4041,-78.9733 162,-82.5 164.9104,-83.1581 167.9372,-83.9026 170.9446,-84.6812"/>
<text text-anchor="middle" x="145" y="-84.9" font-family="Roboto" font-size="7.00" fill="#000000">serializes</text>
</g>
<!-- c4489583 -->
<g id="node5" class="node">
<title>c4489583</title>
<g id="a_node5"><a xlink:href="FloatVector.ShortSerializer.html" xlink:title="&lt;TABLE&gt;">
<g id="a_node5_4"><a xlink:href="FloatVector.ShortSerializer.html" xlink:title="de.lmu.ifi.dbs.elki.data.FloatVector.ShortSerializer" target="_parent">
<polygon fill="none" stroke="#000000" points="6.5,-27.5 6.5,-44.5 113.5,-44.5 113.5,-27.5 6.5,-27.5"/>
<text text-anchor="start" x="10.5" y="-35.1" font-family="Roboto" font-size="8.00" fill="#000000"> </text>
<text text-anchor="start" x="13.5" y="-35.1" font-family="Roboto" font-size="8.00" fill="#000000">FloatVector.ShortSerializer</text>
<text text-anchor="start" x="106.5" y="-35.1" font-family="Roboto" font-size="8.00" fill="#000000"> </text>
</a>
</g>
</a>
</g>
</g>
<!-- c4489583&#45;&gt;c4489579 -->
<g id="edge4" class="edge">
<title>c4489583&#45;&gt;c4489579</title>
<path fill="none" stroke="#000000" d="M105.2452,-45.0162C123.5703,-49.5402 144.4546,-56.1512 162,-65.5 171.5148,-70.5698 181.2327,-78.0196 188.1697,-83.8103"/>
<text text-anchor="middle" x="145" y="-67.9" font-family="Roboto" font-size="7.00" fill="#000000">serializes</text>
</g>
<!-- c4489584 -->
<g id="node6" class="node">
<title>c4489584</title>
<g id="a_node6"><a xlink:href="FloatVector.VariableSerializer.html" xlink:title="&lt;TABLE&gt;">
<g id="a_node6_5"><a xlink:href="FloatVector.VariableSerializer.html" xlink:title="de.lmu.ifi.dbs.elki.data.FloatVector.VariableSerializer" target="_parent">
<polygon fill="none" stroke="#000000" points=".5,.5 .5,-16.5 119.5,-16.5 119.5,.5 .5,.5"/>
<text text-anchor="start" x="4.5" y="-7.1" font-family="Roboto" font-size="8.00" fill="#000000"> </text>
<text text-anchor="start" x="7.5" y="-7.1" font-family="Roboto" font-size="8.00" fill="#000000">FloatVector.VariableSerializer</text>
<text text-anchor="start" x="112.5" y="-7.1" font-family="Roboto" font-size="8.00" fill="#000000"> </text>
</a>
</g>
</a>
</g>
</g>
<!-- c4489584&#45;&gt;c4489579 -->
<g id="edge5" class="edge">
<title>c4489584&#45;&gt;c4489579</title>
<path fill="none" stroke="#000000" d="M110.9214,-17.0606C128.543,-21.9542 147.4632,-29.5973 162,-41.5 176.5908,-53.4469 187.9783,-72.7142 193.7764,-83.8316"/>
<text text-anchor="middle" x="145" y="-43.9" font-family="Roboto" font-size="7.00" fill="#000000">serializes</text>
</g>
</g>
</svg>
