<?xml version="1.0" encoding="UTF-8" standalone="no"?>
<!DOCTYPE svg PUBLIC "-//W3C//DTD SVG 1.1//EN"
 "http://www.w3.org/Graphics/SVG/1.1/DTD/svg11.dtd">
<!-- Generated by graphviz version 2.40.1 (20161225.0304)
 -->
<!-- Title: G Pages: 1 -->
<svg width="348pt" height="47pt"
 viewBox="0.00 0.00 348.00 47.00" xmlns="http://www.w3.org/2000/svg" xmlns:xlink="http://www.w3.org/1999/xlink">
<g id="graph0" class="graph" transform="scale(1 1) rotate(0) translate(4 43)">
<title>G</title>
<polygon fill="#ffffff" stroke="transparent" points="-4,4 -4,-43 344,-43 344,4 -4,4"/>
<!-- c4502368 -->
<g id="node1" class="node">
<title>c4502368</title>
<g id="a_node1"><a xlink:href="FloatVector.html" xlink:title="&lt;TABLE&gt;">
<g id="a_node1_0"><a xlink:href="FloatVector.html" xlink:title="de.lmu.ifi.dbs.elki.data.FloatVector" target="_parent">
<polygon fill="none" stroke="#000000" points="286,-10.5 286,-27.5 340,-27.5 340,-10.5 286,-10.5"/>
<text text-anchor="start" x="290" y="-18.1" font-family="Roboto" font-size="8.00" fill="#000000"> </text>
<text text-anchor="start" x="293" y="-18.1" font-family="Roboto" font-size="8.00" fill="#000000">FloatVector</text>
<text text-anchor="start" x="333" y="-18.1" font-family="Roboto" font-size="8.00" fill="#000000"> </text>
</a>
</g>
</a>
</g>
</g>
<!-- c4502371 -->
<g id="node2" class="node">
<title>c4502371</title>
<g id="a_node2"><a xlink:href="FloatVector.SmallSerializer.html" xlink:title="&lt;TABLE&gt;">
<g id="a_node2_1"><a xlink:href="FloatVector.SmallSerializer.html" xlink:title="de.lmu.ifi.dbs.elki.data.FloatVector.SmallSerializer" target="_parent">
<polygon fill="#fffacd" stroke="transparent" points="125,-11 125,-28 234,-28 234,-11 125,-11"/>
<polygon fill="none" stroke="#000000" points="125.5,-10.5 125.5,-27.5 234.5,-27.5 234.5,-10.5 125.5,-10.5"/>
<text text-anchor="start" x="129.5" y="-18.1" font-family="Roboto" font-size="8.00" fill="#000000"> </text>
<text text-anchor="start" x="132.5" y="-18.1" font-family="Roboto" font-size="8.00" fill="#000000">FloatVector.SmallSerializer</text>
<text text-anchor="start" x="227.5" y="-18.1" font-family="Roboto" font-size="8.00" fill="#000000"> </text>
</a>
</g>
</a>
</g>
</g>
<!-- c4502371&#45;&gt;c4502368 -->
<g id="edge2" class="edge">
<title>c4502371&#45;&gt;c4502368</title>
<path fill="none" stroke="#000000" d="M234.1848,-19.5C252.0426,-19.5 271.0922,-19.5 285.9893,-19.5"/>
<text text-anchor="middle" x="260" y="-21.9" font-family="Roboto" font-size="7.00" fill="#000000">serializes</text>
</g>
<!-- c4503027 -->
<g id="node3" class="node">
<title>c4503027</title>
<g id="a_node3"><a xlink:href="../utilities/io/ByteBufferSerializer.html" xlink:title="&lt;TABLE&gt;">
<g id="a_node3_2"><a xlink:href="../utilities/io/ByteBufferSerializer.html" xlink:title="de.lmu.ifi.dbs.elki.utilities.io.ByteBufferSerializer" target="_parent">
<polygon fill="none" stroke="#000000" points="0,.5 0,-38.5 106,-38.5 106,.5 0,.5"/>
<text text-anchor="start" x="31.5" y="-28.1" font-family="Roboto" font-size="8.00" fill="#000000"> «interface» </text>
<text text-anchor="start" x="14" y="-18.1" font-family="Roboto" font-size="8.00" fill="#000000"> </text>
<text text-anchor="start" x="17" y="-18.1" font-family="Roboto" font-size="8.00" fill="#000000">ByteBufferSerializer</text>
<text text-anchor="start" x="89" y="-18.1" font-family="Roboto" font-size="8.00" fill="#000000"> </text>
<text text-anchor="start" x="4" y="-7.1" font-family="Roboto" font-size="8.00" fill="#000000"> </text>
<text text-anchor="start" x="7" y="-7.1" font-family="Roboto" font-size="7.00" fill="#000000">de.lmu.ifi.dbs.elki.utilities.io</text>
<text text-anchor="start" x="99" y="-7.1" font-family="Roboto" font-size="8.00" fill="#000000"> </text>
</a>
</g>
</a>
</g>
</g>
<!-- c4503027&#45;&gt;c4502371 -->
<g id="edge1" class="edge">
<title>c4503027&#45;&gt;c4502371</title>
<path fill="none" stroke="#000000" stroke-dasharray="5,2" d="M116.3259,-19.5C119.1106,-19.5 121.895,-19.5 124.6576,-19.5"/>
<polygon fill="none" stroke="#000000" points="116.2808,-16.0001 106.2808,-19.5 116.2807,-23.0001 116.2808,-16.0001"/>
</g>
</g>
</svg>
