<?xml version="1.0" encoding="UTF-8" standalone="no"?>
<!DOCTYPE svg PUBLIC "-//W3C//DTD SVG 1.1//EN"
 "http://www.w3.org/Graphics/SVG/1.1/DTD/svg11.dtd">
<!-- Generated by graphviz version 2.40.1 (20161225.0304)
 -->
<!-- Title: G Pages: 1 -->
<svg width="361pt" height="47pt"
 viewBox="0.00 0.00 361.00 47.00" xmlns="http://www.w3.org/2000/svg" xmlns:xlink="http://www.w3.org/1999/xlink">
<g id="graph0" class="graph" transform="scale(1 1) rotate(0) translate(4 43)">
<title>G</title>
<polygon fill="#ffffff" stroke="transparent" points="-4,4 -4,-43 357,-43 357,4 -4,4"/>
<!-- c5464729 -->
<g id="node1" class="node">
<title>c5464729</title>
<g id="a_node1"><a xlink:href="IntegerVector.html" xlink:title="&lt;TABLE&gt;">
<g id="a_node1_0"><a xlink:href="IntegerVector.html" xlink:title="de.lmu.ifi.dbs.elki.data.IntegerVector" target="_parent">
<polygon fill="none" stroke="#000000" points="293,-10.5 293,-27.5 353,-27.5 353,-10.5 293,-10.5"/>
<text text-anchor="start" x="297" y="-18.1" font-family="Roboto" font-size="8.00" fill="#000000"> </text>
<text text-anchor="start" x="300" y="-18.1" font-family="Roboto" font-size="8.00" fill="#000000">IntegerVector</text>
<text text-anchor="start" x="346" y="-18.1" font-family="Roboto" font-size="8.00" fill="#000000"> </text>
</a>
</g>
</a>
</g>
</g>
<!-- c5464732 -->
<g id="node2" class="node">
<title>c5464732</title>
<g id="a_node2"><a xlink:href="IntegerVector.SmallSerializer.html" xlink:title="&lt;TABLE&gt;">
<g id="a_node2_1"><a xlink:href="IntegerVector.SmallSerializer.html" xlink:title="de.lmu.ifi.dbs.elki.data.IntegerVector.SmallSerializer" target="_parent">
<polygon fill="#fffacd" stroke="transparent" points="125,-11 125,-28 241,-28 241,-11 125,-11"/>
<polygon fill="none" stroke="#000000" points="125,-10.5 125,-27.5 241,-27.5 241,-10.5 125,-10.5"/>
<text text-anchor="start" x="129" y="-18.1" font-family="Roboto" font-size="8.00" fill="#000000"> </text>
<text text-anchor="start" x="132" y="-18.1" font-family="Roboto" font-size="8.00" fill="#000000">IntegerVector.SmallSerializer</text>
<text text-anchor="start" x="234" y="-18.1" font-family="Roboto" font-size="8.00" fill="#000000"> </text>
</a>
</g>
</a>
</g>
</g>
<!-- c5464732&#45;&gt;c5464729 -->
<g id="edge2" class="edge">
<title>c5464732&#45;&gt;c5464729</title>
<path fill="none" stroke="#000000" d="M241.1563,-19.5C258.8862,-19.5 277.6602,-19.5 292.7487,-19.5"/>
<text text-anchor="middle" x="267" y="-21.9" font-family="Roboto" font-size="7.00" fill="#000000">serializes</text>
</g>
<!-- c5465408 -->
<g id="node3" class="node">
<title>c5465408</title>
<g id="a_node3"><a xlink:href="../utilities/io/ByteBufferSerializer.html" xlink:title="&lt;TABLE&gt;">
<g id="a_node3_2"><a xlink:href="../utilities/io/ByteBufferSerializer.html" xlink:title="de.lmu.ifi.dbs.elki.utilities.io.ByteBufferSerializer" target="_parent">
<polygon fill="none" stroke="#000000" points="0,.5 0,-38.5 106,-38.5 106,.5 0,.5"/>
<text text-anchor="start" x="31.5" y="-28.1" font-family="Roboto" font-size="8.00" fill="#000000"> «interface» </text>
<text text-anchor="start" x="14" y="-18.1" font-family="Roboto" font-size="8.00" fill="#000000"> </text>
<text text-anchor="start" x="17" y="-18.1" font-family="Roboto" font-size="8.00" fill="#000000">ByteBufferSerializer</text>
<text text-anchor="start" x="89" y="-18.1" font-family="Roboto" font-size="8.00" fill="#000000"> </text>
<text text-anchor="start" x="4" y="-7.1" font-family="Roboto" font-size="8.00" fill="#000000"> </text>
<text text-anchor="start" x="7" y="-7.1" font-family="Roboto" font-size="7.00" fill="#000000">de.lmu.ifi.dbs.elki.utilities.io</text>
<text text-anchor="start" x="99" y="-7.1" font-family="Roboto" font-size="8.00" fill="#000000"> </text>
</a>
</g>
</a>
</g>
</g>
<!-- c5465408&#45;&gt;c5464732 -->
<g id="edge1" class="edge">
<title>c5465408&#45;&gt;c5464732</title>
<path fill="none" stroke="#000000" stroke-dasharray="5,2" d="M116.4677,-19.5C119.3046,-19.5 122.1454,-19.5 124.9685,-19.5"/>
<polygon fill="none" stroke="#000000" points="116.2511,-16.0001 106.2511,-19.5 116.251,-23.0001 116.2511,-16.0001"/>
</g>
</g>
</svg>
