<?xml version="1.0" encoding="UTF-8" standalone="no"?>
<!DOCTYPE svg PUBLIC "-//W3C//DTD SVG 1.1//EN"
 "http://www.w3.org/Graphics/SVG/1.1/DTD/svg11.dtd">
<!-- Generated by graphviz version 2.40.1 (20161225.0304)
 -->
<!-- Title: G Pages: 1 -->
<svg width="283pt" height="36pt"
 viewBox="0.00 0.00 283.00 36.00" xmlns="http://www.w3.org/2000/svg" xmlns:xlink="http://www.w3.org/1999/xlink">
<g id="graph0" class="graph" transform="scale(1 1) rotate(0) translate(4 32)">
<title>G</title>
<polygon fill="#ffffff" stroke="transparent" points="-4,4 -4,-32 279,-32 279,4 -4,4"/>
<!-- c5455044 -->
<g id="node1" class="node">
<title>c5455044</title>
<g id="a_node1"><a xlink:href="NumberVector.Factory.html" xlink:title="&lt;TABLE&gt;">
<g id="a_node1_0"><a xlink:href="NumberVector.Factory.html" xlink:title="de.lmu.ifi.dbs.elki.data.NumberVector.Factory" target="_parent">
<polygon fill="none" stroke="#000000" points="0,0 0,-28 92,-28 92,0 0,0"/>
<text text-anchor="start" x="24.5" y="-17.6" font-family="Roboto" font-size="8.00" fill="#000000"> «interface» </text>
<text text-anchor="start" x="4" y="-7.6" font-family="Roboto" font-size="8.00" fill="#000000"> </text>
<text text-anchor="start" x="7" y="-7.6" font-family="Roboto" font-size="8.00" fill="#000000">NumberVector.Factory</text>
<text text-anchor="start" x="85" y="-7.6" font-family="Roboto" font-size="8.00" fill="#000000"> </text>
</a>
</g>
</a>
</g>
</g>
<!-- c5455138 -->
<g id="node3" class="node">
<title>c5455138</title>
<g id="a_node3"><a xlink:href="IntegerVector.Factory.html" xlink:title="&lt;TABLE&gt;">
<g id="a_node3_1"><a xlink:href="IntegerVector.Factory.html" xlink:title="de.lmu.ifi.dbs.elki.data.IntegerVector.Factory" target="_parent">
<polygon fill="#fffacd" stroke="transparent" points="110,-5.5 110,-22.5 197,-22.5 197,-5.5 110,-5.5"/>
<polygon fill="none" stroke="#000000" points="110.5,-5 110.5,-22 197.5,-22 197.5,-5 110.5,-5"/>
<text text-anchor="start" x="114.5" y="-12.6" font-family="Roboto" font-size="8.00" fill="#000000"> </text>
<text text-anchor="start" x="117.5" y="-12.6" font-family="Roboto" font-size="8.00" fill="#000000">IntegerVector.Factory</text>
<text text-anchor="start" x="190.5" y="-12.6" font-family="Roboto" font-size="8.00" fill="#000000"> </text>
</a>
</g>
</a>
</g>
</g>
<!-- c5455044&#45;&gt;c5455138 -->
<g id="edge1" class="edge">
<title>c5455044&#45;&gt;c5455138</title>
<path fill="none" stroke="#000000" stroke-dasharray="5,2" d="M102.3469,-14C104.8148,-14 107.2754,-14 109.7078,-14"/>
<polygon fill="none" stroke="#000000" points="102.2136,-10.5001 92.2136,-14 102.2135,-17.5001 102.2136,-10.5001"/>
</g>
<!-- c5455137 -->
<g id="node2" class="node">
<title>c5455137</title>
<g id="a_node2"><a xlink:href="IntegerVector.html" xlink:title="&lt;TABLE&gt;">
<g id="a_node2_2"><a xlink:href="IntegerVector.html" xlink:title="de.lmu.ifi.dbs.elki.data.IntegerVector" target="_parent">
<polygon fill="none" stroke="#000000" points="215,-5 215,-22 275,-22 275,-5 215,-5"/>
<text text-anchor="start" x="219" y="-12.6" font-family="Roboto" font-size="8.00" fill="#000000"> </text>
<text text-anchor="start" x="222" y="-12.6" font-family="Roboto" font-size="8.00" fill="#000000">IntegerVector</text>
<text text-anchor="start" x="268" y="-12.6" font-family="Roboto" font-size="8.00" fill="#000000"> </text>
</a>
</g>
</a>
</g>
</g>
<!-- c5455138&#45;&gt;c5455137 -->
<g id="edge2" class="edge">
<title>c5455138&#45;&gt;c5455137</title>
<path fill="none" stroke="#000000" d="M209.109,-14C211.0332,-14 212.933,-14 214.7938,-14"/>
<polygon fill="none" stroke="#000000" points="209.1062,-14.0001 203.1061,-18 197.1062,-14 203.1062,-10 209.1062,-14.0001"/>
</g>
</g>
</svg>
