<?xml version="1.0" encoding="UTF-8" standalone="no"?>
<!DOCTYPE svg PUBLIC "-//W3C//DTD SVG 1.1//EN"
 "http://www.w3.org/Graphics/SVG/1.1/DTD/svg11.dtd">
<!-- Generated by graphviz version 2.40.1 (20161225.0304)
 -->
<!-- Title: G Pages: 1 -->
<svg width="359pt" height="47pt"
 viewBox="0.00 0.00 359.00 47.00" xmlns="http://www.w3.org/2000/svg" xmlns:xlink="http://www.w3.org/1999/xlink">
<g id="graph0" class="graph" transform="scale(1 1) rotate(0) translate(4 43)">
<title>G</title>
<polygon fill="#ffffff" stroke="transparent" points="-4,4 -4,-43 355,-43 355,4 -4,4"/>
<!-- c9330210 -->
<g id="node1" class="node">
<title>c9330210</title>
<g id="a_node1"><a xlink:href="ShortVector.html" xlink:title="&lt;TABLE&gt;">
<g id="a_node1_0"><a xlink:href="ShortVector.html" xlink:title="de.lmu.ifi.dbs.elki.data.ShortVector" target="_parent">
<polygon fill="none" stroke="#000000" points="297,-10.5 297,-27.5 351,-27.5 351,-10.5 297,-10.5"/>
<text text-anchor="start" x="301" y="-18.1" font-family="Roboto" font-size="8.00" fill="#000000"> </text>
<text text-anchor="start" x="304" y="-18.1" font-family="Roboto" font-size="8.00" fill="#000000">ShortVector</text>
<text text-anchor="start" x="344" y="-18.1" font-family="Roboto" font-size="8.00" fill="#000000"> </text>
</a>
</g>
</a>
</g>
</g>
<!-- c9330214 -->
<g id="node2" class="node">
<title>c9330214</title>
<g id="a_node2"><a xlink:href="ShortVector.VariableSerializer.html" xlink:title="&lt;TABLE&gt;">
<g id="a_node2_1"><a xlink:href="ShortVector.VariableSerializer.html" xlink:title="de.lmu.ifi.dbs.elki.data.ShortVector.VariableSerializer" target="_parent">
<polygon fill="#fffacd" stroke="transparent" points="125,-11 125,-28 245,-28 245,-11 125,-11"/>
<polygon fill="none" stroke="#000000" points="125,-10.5 125,-27.5 245,-27.5 245,-10.5 125,-10.5"/>
<text text-anchor="start" x="129" y="-18.1" font-family="Roboto" font-size="8.00" fill="#000000"> </text>
<text text-anchor="start" x="132" y="-18.1" font-family="Roboto" font-size="8.00" fill="#000000">ShortVector.VariableSerializer</text>
<text text-anchor="start" x="238" y="-18.1" font-family="Roboto" font-size="8.00" fill="#000000"> </text>
</a>
</g>
</a>
</g>
</g>
<!-- c9330214&#45;&gt;c9330210 -->
<g id="edge2" class="edge">
<title>c9330214&#45;&gt;c9330210</title>
<path fill="none" stroke="#000000" d="M245.159,-19.5C263.2085,-19.5 282.114,-19.5 296.8862,-19.5"/>
<text text-anchor="middle" x="271" y="-21.9" font-family="Roboto" font-size="7.00" fill="#000000">serializes</text>
</g>
<!-- c9330924 -->
<g id="node3" class="node">
<title>c9330924</title>
<g id="a_node3"><a xlink:href="../utilities/io/ByteBufferSerializer.html" xlink:title="&lt;TABLE&gt;">
<g id="a_node3_2"><a xlink:href="../utilities/io/ByteBufferSerializer.html" xlink:title="de.lmu.ifi.dbs.elki.utilities.io.ByteBufferSerializer" target="_parent">
<polygon fill="none" stroke="#000000" points="0,.5 0,-38.5 106,-38.5 106,.5 0,.5"/>
<text text-anchor="start" x="31.5" y="-28.1" font-family="Roboto" font-size="8.00" fill="#000000"> «interface» </text>
<text text-anchor="start" x="14" y="-18.1" font-family="Roboto" font-size="8.00" fill="#000000"> </text>
<text text-anchor="start" x="17" y="-18.1" font-family="Roboto" font-size="8.00" fill="#000000">ByteBufferSerializer</text>
<text text-anchor="start" x="89" y="-18.1" font-family="Roboto" font-size="8.00" fill="#000000"> </text>
<text text-anchor="start" x="4" y="-7.1" font-family="Roboto" font-size="8.00" fill="#000000"> </text>
<text text-anchor="start" x="7" y="-7.1" font-family="Roboto" font-size="7.00" fill="#000000">de.lmu.ifi.dbs.elki.utilities.io</text>
<text text-anchor="start" x="99" y="-7.1" font-family="Roboto" font-size="8.00" fill="#000000"> </text>
</a>
</g>
</a>
</g>
</g>
<!-- c9330924&#45;&gt;c9330214 -->
<g id="edge1" class="edge">
<title>c9330924&#45;&gt;c9330214</title>
<path fill="none" stroke="#000000" stroke-dasharray="5,2" d="M116.5527,-19.5C119.2251,-19.5 121.9028,-19.5 124.5683,-19.5"/>
<polygon fill="none" stroke="#000000" points="116.309,-16.0001 106.309,-19.5 116.3089,-23.0001 116.309,-16.0001"/>
</g>
</g>
</svg>
