<?xml version="1.0" encoding="UTF-8" standalone="no"?>
<!DOCTYPE svg PUBLIC "-//W3C//DTD SVG 1.1//EN"
 "http://www.w3.org/Graphics/SVG/1.1/DTD/svg11.dtd">
<!-- Generated by graphviz version 2.40.1 (20161225.0304)
 -->
<!-- Title: G Pages: 1 -->
<svg width="234pt" height="121pt"
 viewBox="0.00 0.00 234.00 120.50" xmlns="http://www.w3.org/2000/svg" xmlns:xlink="http://www.w3.org/1999/xlink">
<g id="graph0" class="graph" transform="scale(1 1) rotate(0) translate(4 116.5)">
<title>G</title>
<polygon fill="#ffffff" stroke="transparent" points="-4,4 -4,-116.5 230,-116.5 230,4 -4,4"/>
<!-- c9317362 -->
<g id="node1" class="node">
<title>c9317362</title>
<g id="a_node1"><a xlink:href="NumberVector.html" xlink:title="&lt;TABLE&gt;">
<g id="a_node1_0"><a xlink:href="NumberVector.html" xlink:title="de.lmu.ifi.dbs.elki.data.NumberVector" target="_parent">
<polygon fill="#fffacd" stroke="transparent" points="27.5,-84.5 27.5,-112.5 92.5,-112.5 92.5,-84.5 27.5,-84.5"/>
<polygon fill="none" stroke="#000000" points="28,-84.5 28,-112.5 93,-112.5 93,-84.5 28,-84.5"/>
<text text-anchor="start" x="39" y="-102.1" font-family="Roboto" font-size="8.00" fill="#000000"> «interface» </text>
<text text-anchor="start" x="32" y="-92.1" font-family="Roboto" font-size="8.00" fill="#000000"> </text>
<text text-anchor="start" x="35" y="-92.1" font-family="Roboto" font-size="8.00" fill="#000000">NumberVector</text>
<text text-anchor="start" x="86" y="-92.1" font-family="Roboto" font-size="8.00" fill="#000000"> </text>
</a>
</g>
</a>
</g>
</g>
<!-- c9317421 -->
<g id="node2" class="node">
<title>c9317421</title>
<g id="a_node2"><a xlink:href="ShortVector.html" xlink:title="&lt;TABLE&gt;">
<g id="a_node2_1"><a xlink:href="ShortVector.html" xlink:title="de.lmu.ifi.dbs.elki.data.ShortVector" target="_parent">
<polygon fill="#fffacd" stroke="transparent" points="172,-90 172,-107 226,-107 226,-90 172,-90"/>
<polygon fill="none" stroke="#000000" points="172,-89.5 172,-106.5 226,-106.5 226,-89.5 172,-89.5"/>
<text text-anchor="start" x="176" y="-97.1" font-family="Roboto" font-size="8.00" fill="#000000"> </text>
<text text-anchor="start" x="179" y="-97.1" font-family="Roboto" font-size="8.00" fill="#000000">ShortVector</text>
<text text-anchor="start" x="219" y="-97.1" font-family="Roboto" font-size="8.00" fill="#000000"> </text>
</a>
</g>
</a>
</g>
</g>
<!-- c9317362&#45;&gt;c9317421 -->
<g id="edge1" class="edge">
<title>c9317362&#45;&gt;c9317421</title>
<path fill="none" stroke="#000000" stroke-dasharray="5,2" d="M102.8836,-98.5C125.3391,-98.5 152.1614,-98.5 171.7583,-98.5"/>
<polygon fill="none" stroke="#000000" points="102.5894,-95.0001 92.5893,-98.5 102.5893,-102.0001 102.5894,-95.0001"/>
</g>
<!-- c9317422 -->
<g id="node3" class="node">
<title>c9317422</title>
<g id="a_node3"><a xlink:href="ShortVector.Factory.html" xlink:title="&lt;TABLE&gt;">
<g id="a_node3_2"><a xlink:href="ShortVector.Factory.html" xlink:title="de.lmu.ifi.dbs.elki.data.ShortVector.Factory" target="_parent">
<polygon fill="none" stroke="#000000" points="20,-55.5 20,-72.5 101,-72.5 101,-55.5 20,-55.5"/>
<text text-anchor="start" x="24" y="-63.1" font-family="Roboto" font-size="8.00" fill="#000000"> </text>
<text text-anchor="start" x="27" y="-63.1" font-family="Roboto" font-size="8.00" fill="#000000">ShortVector.Factory</text>
<text text-anchor="start" x="94" y="-63.1" font-family="Roboto" font-size="8.00" fill="#000000"> </text>
</a>
</g>
</a>
</g>
</g>
<!-- c9317422&#45;&gt;c9317421 -->
<g id="edge2" class="edge">
<title>c9317422&#45;&gt;c9317421</title>
<path fill="none" stroke="#000000" d="M107.0013,-75.9967C128.5828,-81.2757 153.4087,-87.3482 171.8281,-91.8536"/>
<polygon fill="none" stroke="#000000" points="106.7319,-75.9309 99.9533,-78.3907 95.0756,-73.0796 101.8542,-70.6198 106.7319,-75.9309"/>
</g>
<!-- c9317424 -->
<g id="node4" class="node">
<title>c9317424</title>
<g id="a_node4"><a xlink:href="ShortVector.ShortSerializer.html" xlink:title="&lt;TABLE&gt;">
<g id="a_node4_3"><a xlink:href="ShortVector.ShortSerializer.html" xlink:title="de.lmu.ifi.dbs.elki.data.ShortVector.ShortSerializer" target="_parent">
<polygon fill="none" stroke="#000000" points="6,-27.5 6,-44.5 114,-44.5 114,-27.5 6,-27.5"/>
<text text-anchor="start" x="10" y="-35.1" font-family="Roboto" font-size="8.00" fill="#000000"> </text>
<text text-anchor="start" x="13" y="-35.1" font-family="Roboto" font-size="8.00" fill="#000000">ShortVector.ShortSerializer</text>
<text text-anchor="start" x="107" y="-35.1" font-family="Roboto" font-size="8.00" fill="#000000"> </text>
</a>
</g>
</a>
</g>
</g>
<!-- c9317424&#45;&gt;c9317421 -->
<g id="edge3" class="edge">
<title>c9317424&#45;&gt;c9317421</title>
<path fill="none" stroke="#000000" d="M101.9876,-45.0226C108.0948,-46.6291 114.2556,-48.4566 120,-50.5 140.0383,-57.6282 144.856,-60.4032 163,-71.5 172.0642,-77.0436 181.6578,-84.3172 188.6602,-89.9182"/>
<text text-anchor="middle" x="146" y="-73.9" font-family="Roboto" font-size="7.00" fill="#000000">serializes</text>
</g>
<!-- c9317425 -->
<g id="node5" class="node">
<title>c9317425</title>
<g id="a_node5"><a xlink:href="ShortVector.VariableSerializer.html" xlink:title="&lt;TABLE&gt;">
<g id="a_node5_4"><a xlink:href="ShortVector.VariableSerializer.html" xlink:title="de.lmu.ifi.dbs.elki.data.ShortVector.VariableSerializer" target="_parent">
<polygon fill="none" stroke="#000000" points="0,.5 0,-16.5 120,-16.5 120,.5 0,.5"/>
<text text-anchor="start" x="4" y="-7.1" font-family="Roboto" font-size="8.00" fill="#000000"> </text>
<text text-anchor="start" x="7" y="-7.1" font-family="Roboto" font-size="8.00" fill="#000000">ShortVector.VariableSerializer</text>
<text text-anchor="start" x="113" y="-7.1" font-family="Roboto" font-size="8.00" fill="#000000"> </text>
</a>
</g>
</a>
</g>
</g>
<!-- c9317425&#45;&gt;c9317421 -->
<g id="edge4" class="edge">
<title>c9317425&#45;&gt;c9317421</title>
<path fill="none" stroke="#000000" d="M109.9717,-17.0491C128.3181,-22.2166 148.1984,-30.4454 163,-43.5 178.0637,-56.7858 189.4304,-77.7997 195.0636,-89.636"/>
<text text-anchor="middle" x="146" y="-45.9" font-family="Roboto" font-size="7.00" fill="#000000">serializes</text>
</g>
</g>
</svg>
