<?xml version="1.0" encoding="UTF-8" standalone="no"?>
<!DOCTYPE svg PUBLIC "-//W3C//DTD SVG 1.1//EN"
 "http://www.w3.org/Graphics/SVG/1.1/DTD/svg11.dtd">
<!-- Generated by graphviz version 2.40.1 (20161225.0304)
 -->
<!-- Title: G Pages: 1 -->
<svg width="378pt" height="47pt"
 viewBox="0.00 0.00 378.00 47.00" xmlns="http://www.w3.org/2000/svg" xmlns:xlink="http://www.w3.org/1999/xlink">
<g id="graph0" class="graph" transform="scale(1 1) rotate(0) translate(4 43)">
<title>G</title>
<polygon fill="#ffffff" stroke="transparent" points="-4,4 -4,-43 374,-43 374,4 -4,4"/>
<!-- c10679372 -->
<g id="node1" class="node">
<title>c10679372</title>
<g id="a_node1"><a xlink:href="../database/relation/Relation.html" xlink:title="&lt;TABLE&gt;">
<g id="a_node1_0"><a xlink:href="../database/relation/Relation.html" xlink:title="de.lmu.ifi.dbs.elki.database.relation.Relation" target="_parent">
<polygon fill="none" stroke="#000000" points="241.5,.5 241.5,-38.5 370.5,-38.5 370.5,.5 241.5,.5"/>
<text text-anchor="start" x="284.5" y="-28.1" font-family="Roboto" font-size="8.00" fill="#000000"> «interface» </text>
<text text-anchor="start" x="288.5" y="-18.1" font-family="Roboto" font-size="8.00" fill="#000000"> </text>
<text text-anchor="start" x="291.5" y="-18.1" font-family="Roboto" font-size="8.00" fill="#000000">Relation</text>
<text text-anchor="start" x="320.5" y="-18.1" font-family="Roboto" font-size="8.00" fill="#000000"> </text>
<text text-anchor="start" x="245.5" y="-7.1" font-family="Roboto" font-size="8.00" fill="#000000"> </text>
<text text-anchor="start" x="248.5" y="-7.1" font-family="Roboto" font-size="7.00" fill="#000000">de.lmu.ifi.dbs.elki.database.relation</text>
<text text-anchor="start" x="363.5" y="-7.1" font-family="Roboto" font-size="8.00" fill="#000000"> </text>
</a>
</g>
</a>
</g>
</g>
<!-- c10679397 -->
<g id="node2" class="node">
<title>c10679397</title>
<g id="a_node2"><a xlink:href="VectorUtil.html" xlink:title="&lt;TABLE&gt;">
<g id="a_node2_1"><a xlink:href="VectorUtil.html" xlink:title="de.lmu.ifi.dbs.elki.data.VectorUtil" target="_parent">
<polygon fill="none" stroke="#000000" points=".5,-10.5 .5,-27.5 49.5,-27.5 49.5,-10.5 .5,-10.5"/>
<text text-anchor="start" x="4.5" y="-18.1" font-family="Roboto" font-size="8.00" fill="#000000"> </text>
<text text-anchor="start" x="7.5" y="-18.1" font-family="Roboto" font-size="8.00" fill="#000000">VectorUtil</text>
<text text-anchor="start" x="42.5" y="-18.1" font-family="Roboto" font-size="8.00" fill="#000000"> </text>
</a>
</g>
</a>
</g>
</g>
<!-- c10679398 -->
<g id="node3" class="node">
<title>c10679398</title>
<g id="a_node3"><a xlink:href="VectorUtil.SortDBIDsBySingleDimension.html" xlink:title="&lt;TABLE&gt;">
<g id="a_node3_2"><a xlink:href="VectorUtil.SortDBIDsBySingleDimension.html" xlink:title="de.lmu.ifi.dbs.elki.data.VectorUtil.SortDBIDsBySingleDimension" target="_parent">
<polygon fill="#fffacd" stroke="transparent" points="67,-11 67,-28 223,-28 223,-11 67,-11"/>
<polygon fill="none" stroke="#000000" points="67,-10.5 67,-27.5 223,-27.5 223,-10.5 67,-10.5"/>
<text text-anchor="start" x="71" y="-18.1" font-family="Roboto" font-size="8.00" fill="#000000"> </text>
<text text-anchor="start" x="74" y="-18.1" font-family="Roboto" font-size="8.00" fill="#000000">VectorUtil.SortDBIDsBySingleDimension</text>
<text text-anchor="start" x="216" y="-18.1" font-family="Roboto" font-size="8.00" fill="#000000"> </text>
</a>
</g>
</a>
</g>
</g>
<!-- c10679397&#45;&gt;c10679398 -->
<g id="edge1" class="edge">
<title>c10679397&#45;&gt;c10679398</title>
<path fill="none" stroke="#000000" d="M61.2705,-19.5C63.0656,-19.5 64.8937,-19.5 66.7469,-19.5"/>
<polygon fill="none" stroke="#000000" points="61.1757,-19.5001 55.1757,-23.5 49.1757,-19.5 55.1758,-15.5 61.1757,-19.5001"/>
</g>
<!-- c10679398&#45;&gt;c10679372 -->
<g id="edge2" class="edge">
<title>c10679398&#45;&gt;c10679372</title>
<path fill="none" stroke="#000000" d="M223.3693,-19.5C225.8535,-19.5 228.3401,-19.5 230.8196,-19.5"/>
<polygon fill="#000000" stroke="#000000" points="240.9484,-19.5 230.9484,-24.0001 235.9484,-19.5 230.9484,-19.5001 230.9484,-19.5001 230.9484,-19.5001 235.9484,-19.5 230.9483,-15.0001 240.9484,-19.5 240.9484,-19.5"/>
</g>
</g>
</svg>
