<?xml version="1.0" encoding="UTF-8" standalone="no"?>
<!DOCTYPE svg PUBLIC "-//W3C//DTD SVG 1.1//EN"
 "http://www.w3.org/Graphics/SVG/1.1/DTD/svg11.dtd">
<!-- Generated by graphviz version 2.40.1 (20161225.0304)
 -->
<!-- Title: G Pages: 1 -->
<svg width="230pt" height="36pt"
 viewBox="0.00 0.00 230.00 36.00" xmlns="http://www.w3.org/2000/svg" xmlns:xlink="http://www.w3.org/1999/xlink">
<g id="graph0" class="graph" transform="scale(1 1) rotate(0) translate(4 32)">
<title>G</title>
<polygon fill="#ffffff" stroke="transparent" points="-4,4 -4,-32 226,-32 226,4 -4,4"/>
<!-- c10173104 -->
<g id="node1" class="node">
<title>c10173104</title>
<g id="a_node1"><a xlink:href="TextWriterIntArray.html" xlink:title="&lt;TABLE&gt;">
<g id="a_node1_0"><a xlink:href="TextWriterIntArray.html" xlink:title="de.lmu.ifi.dbs.elki.result.textwriter.writers.TextWriterIntArray" target="_parent">
<polygon fill="#fffacd" stroke="transparent" points="144,-5.5 144,-22.5 222,-22.5 222,-5.5 144,-5.5"/>
<polygon fill="none" stroke="#000000" points="144,-5 144,-22 222,-22 222,-5 144,-5"/>
<text text-anchor="start" x="148" y="-12.6" font-family="Roboto" font-size="8.00" fill="#000000"> </text>
<text text-anchor="start" x="151" y="-12.6" font-family="Roboto" font-size="8.00" fill="#000000">TextWriterIntArray</text>
<text text-anchor="start" x="215" y="-12.6" font-family="Roboto" font-size="8.00" fill="#000000"> </text>
</a>
</g>
</a>
</g>
</g>
<!-- c10174115 -->
<g id="node2" class="node">
<title>c10174115</title>
<g id="a_node2"><a xlink:href="../TextWriterWriterInterface.html" xlink:title="&lt;TABLE&gt;">
<g id="a_node2_1"><a xlink:href="../TextWriterWriterInterface.html" xlink:title="de.lmu.ifi.dbs.elki.result.textwriter.TextWriterWriterInterface" target="_parent">
<polygon fill="none" stroke="#000000" points="0,0 0,-28 126,-28 126,0 0,0"/>
<text text-anchor="start" x="16.5" y="-18.6" font-family="Roboto" font-size="8.00" fill="#000000"> </text>
<text text-anchor="start" x="19.5" y="-18.6" font-family="Roboto" font-style="italic" font-size="8.00" fill="#000000">TextWriterWriterInterface</text>
<text text-anchor="start" x="106.5" y="-18.6" font-family="Roboto" font-size="8.00" fill="#000000"> </text>
<text text-anchor="start" x="4" y="-7.6" font-family="Roboto" font-size="8.00" fill="#000000"> </text>
<text text-anchor="start" x="7" y="-7.6" font-family="Roboto" font-size="7.00" fill="#000000">de.lmu.ifi.dbs.elki.result.textwriter</text>
<text text-anchor="start" x="119" y="-7.6" font-family="Roboto" font-size="8.00" fill="#000000"> </text>
</a>
</g>
</a>
</g>
</g>
<!-- c10174115&#45;&gt;c10173104 -->
<g id="edge1" class="edge">
<title>c10174115&#45;&gt;c10173104</title>
<path fill="none" stroke="#000000" d="M136.1802,-14C138.7449,-14 141.2758,-14 143.7529,-14"/>
<polygon fill="none" stroke="#000000" points="136.1628,-10.5001 126.1628,-14 136.1627,-17.5001 136.1628,-10.5001"/>
</g>
</g>
</svg>
