<?xml version="1.0" encoding="UTF-8" standalone="no"?><svg xmlns="http://www.w3.org/2000/svg" xmlns:xlink="http://www.w3.org/1999/xlink" contentStyleType="text/css" height="95px" preserveAspectRatio="none" style="width:194px;height:95px;background:#FFFFFF;" version="1.1" viewBox="0 0 194 95" width="194px" zoomAndPan="magnify"><defs/><g><!--MD5=[f0742b0a096755a4149ab5519b4a8089]
class elki.math.Primes--><a href="Primes.html" target="_top" title="Primes.html" xlink:actuate="onRequest" xlink:href="Primes.html" xlink:show="new" xlink:title="Primes.html" xlink:type="simple"><g id="elem_elki.math.Primes"><rect codeLine="6" fill="#F1F1F1" height="62.2344" id="elki.math.Primes" rx="2.5" ry="2.5" style="stroke:#181818;stroke-width:0.5;" width="160" x="13.5" y="7"/><ellipse cx="65.75" cy="25.9688" fill="#ADD1B2" rx="11" ry="11" style="stroke:#181818;stroke-width:1.0;"/><path d="M68.7188,31.6094 Q68.1406,31.9063 67.5,32.0469 Q66.8594,32.2031 66.1563,32.2031 Q63.6563,32.2031 62.3281,30.5625 Q61.0156,28.9063 61.0156,25.7813 Q61.0156,22.6563 62.3281,21 Q63.6563,19.3438 66.1563,19.3438 Q66.8594,19.3438 67.5,19.5 Q68.1563,19.6563 68.7188,19.9531 L68.7188,22.6719 Q68.0938,22.0938 67.5,21.8281 Q66.9063,21.5469 66.2813,21.5469 Q64.9375,21.5469 64.25,22.625 Q63.5625,23.6875 63.5625,25.7813 Q63.5625,27.875 64.25,28.9531 Q64.9375,30.0156 66.2813,30.0156 Q66.9063,30.0156 67.5,29.75 Q68.0938,29.4688 68.7188,28.8906 L68.7188,31.6094 Z " fill="#000000"/><text fill="#000000" font-family="sans-serif" font-size="14" lengthAdjust="spacing" textLength="47" x="86.25" y="24.9951">Primes</text><text fill="#000000" font-family="sans-serif" font-size="10" lengthAdjust="spacing" textLength="44" x="87.75" y="37.5791">elki.math</text><line style="stroke:#181818;stroke-width:0.5;" x1="14.5" x2="172.5" y1="44.9375" y2="44.9375"/><ellipse cx="24.5" cy="58.5859" fill="none" rx="3" ry="3" style="stroke:#038048;stroke-width:1.0;"/><text fill="#000000" font-family="sans-serif" font-size="14" lengthAdjust="spacing" text-decoration="underline" textLength="134" x="33.5" y="61.9326">FIRST_PRIMES: int[]</text></g></a><rect fill="none" height="11.6406" style="stroke:none;stroke-width:1.0;" width="186" x="0" y="76.2344"/><text fill="#888888" font-family="sans-serif" font-size="10" lengthAdjust="spacing" textLength="186" x="0" y="85.5166">UMLDoclet 2.0.19, PlantUML 1.2022.8</text><!--MD5=[42481ff26796dec33dd20dafc735f52c]
@startuml
    remove .*\.(Instance|Par|Parameterizer|Factory)$
    set namespaceSeparator none
    hide empty fields
    hide empty methods

    class "<size:14>Primes\n<size:10>elki.math" as elki.math.Primes [[Primes.html]] {
        {static} +FIRST_PRIMES: int[]
    }

    center footer UMLDoclet 2.0.19, PlantUML 1.2022.8
@enduml

PlantUML version 1.2022.8(Sun Sep 25 11:00:33 CEST 2022)
(APACHE source distribution)
Java Runtime: OpenJDK Runtime Environment
JVM: OpenJDK 64-Bit Server VM
Default Encoding: UTF-8
Language: de
Country: DE
--></g></svg>