<?xml version="1.0" encoding="UTF-8" standalone="no"?>
<!DOCTYPE svg PUBLIC "-//W3C//DTD SVG 1.1//EN"
 "http://www.w3.org/Graphics/SVG/1.1/DTD/svg11.dtd">
<!-- Generated by graphviz version 2.40.1 (20161225.0304)
 -->
<!-- Title: G Pages: 1 -->
<svg width="342pt" height="47pt"
 viewBox="0.00 0.00 342.00 47.00" xmlns="http://www.w3.org/2000/svg" xmlns:xlink="http://www.w3.org/1999/xlink">
<g id="graph0" class="graph" transform="scale(1 1) rotate(0) translate(4 43)">
<title>G</title>
<polygon fill="#ffffff" stroke="transparent" points="-4,4 -4,-43 338,-43 338,4 -4,4"/>
<!-- c1879902 -->
<g id="node1" class="node">
<title>c1879902</title>
<g id="a_node1"><a xlink:href="BiclusterModel.html" xlink:title="&lt;TABLE&gt;">
<g id="a_node1_0"><a xlink:href="BiclusterModel.html" xlink:title="de.lmu.ifi.dbs.elki.data.model.BiclusterModel" target="_parent">
<polygon fill="none" stroke="#000000" points=".5,-10.5 .5,-27.5 67.5,-27.5 67.5,-10.5 .5,-10.5"/>
<text text-anchor="start" x="4.5" y="-18.1" font-family="Roboto" font-size="8.00" fill="#000000"> </text>
<text text-anchor="start" x="7.5" y="-18.1" font-family="Roboto" font-size="8.00" fill="#000000">BiclusterModel</text>
<text text-anchor="start" x="60.5" y="-18.1" font-family="Roboto" font-size="8.00" fill="#000000"> </text>
</a>
</g>
</a>
</g>
</g>
<!-- c1879909 -->
<g id="node2" class="node">
<title>c1879909</title>
<g id="a_node2"><a xlink:href="BiclusterWithInversionsModel.html" xlink:title="&lt;TABLE&gt;">
<g id="a_node2_1"><a xlink:href="BiclusterWithInversionsModel.html" xlink:title="de.lmu.ifi.dbs.elki.data.model.BiclusterWithInversionsModel" target="_parent">
<polygon fill="#fffacd" stroke="transparent" points="85,-11 85,-28 203,-28 203,-11 85,-11"/>
<polygon fill="none" stroke="#000000" points="85,-10.5 85,-27.5 203,-27.5 203,-10.5 85,-10.5"/>
<text text-anchor="start" x="89" y="-18.1" font-family="Roboto" font-size="8.00" fill="#000000"> </text>
<text text-anchor="start" x="92" y="-18.1" font-family="Roboto" font-size="8.00" fill="#000000">BiclusterWithInversionsModel</text>
<text text-anchor="start" x="196" y="-18.1" font-family="Roboto" font-size="8.00" fill="#000000"> </text>
</a>
</g>
</a>
</g>
</g>
<!-- c1879902&#45;&gt;c1879909 -->
<g id="edge1" class="edge">
<title>c1879902&#45;&gt;c1879909</title>
<path fill="none" stroke="#000000" d="M77.5105,-19.5C79.9063,-19.5 82.3315,-19.5 84.7671,-19.5"/>
<polygon fill="none" stroke="#000000" points="77.2541,-16.0001 67.2541,-19.5 77.254,-23.0001 77.2541,-16.0001"/>
</g>
<!-- c1880601 -->
<g id="node3" class="node">
<title>c1880601</title>
<g id="a_node3"><a xlink:href="../../database/ids/DBIDs.html" xlink:title="&lt;TABLE&gt;">
<g id="a_node3_2"><a xlink:href="../../database/ids/DBIDs.html" xlink:title="de.lmu.ifi.dbs.elki.database.ids.DBIDs" target="_parent">
<polygon fill="#fffacd" stroke="transparent" points="221,0 221,-39 334,-39 334,0 221,0"/>
<polygon fill="none" stroke="#000000" points="221.5,.5 221.5,-38.5 334.5,-38.5 334.5,.5 221.5,.5"/>
<text text-anchor="start" x="256.5" y="-28.1" font-family="Roboto" font-size="8.00" fill="#000000"> «interface» </text>
<text text-anchor="start" x="263" y="-18.1" font-family="Roboto" font-size="8.00" fill="#000000"> </text>
<text text-anchor="start" x="266" y="-18.1" font-family="Roboto" font-size="8.00" fill="#000000">DBIDs</text>
<text text-anchor="start" x="290" y="-18.1" font-family="Roboto" font-size="8.00" fill="#000000"> </text>
<text text-anchor="start" x="225.5" y="-7.1" font-family="Roboto" font-size="8.00" fill="#000000"> </text>
<text text-anchor="start" x="228.5" y="-7.1" font-family="Roboto" font-size="7.00" fill="#000000">de.lmu.ifi.dbs.elki.database.ids</text>
<text text-anchor="start" x="327.5" y="-7.1" font-family="Roboto" font-size="8.00" fill="#000000"> </text>
</a>
</g>
</a>
</g>
</g>
<!-- c1879909&#45;&gt;c1880601 -->
<g id="edge2" class="edge">
<title>c1879909&#45;&gt;c1880601</title>
<path fill="none" stroke="#000000" d="M203.3325,-19.5C205.8003,-19.5 208.2818,-19.5 210.7632,-19.5"/>
<polygon fill="#000000" stroke="#000000" points="220.9293,-19.5 210.9294,-24.0001 215.9293,-19.5 210.9293,-19.5001 210.9293,-19.5001 210.9293,-19.5001 215.9293,-19.5 210.9293,-15.0001 220.9293,-19.5 220.9293,-19.5"/>
</g>
</g>
</svg>
