<?xml version="1.0" encoding="UTF-8" standalone="no"?>
<!DOCTYPE svg PUBLIC "-//W3C//DTD SVG 1.1//EN"
 "http://www.w3.org/Graphics/SVG/1.1/DTD/svg11.dtd">
<!-- Generated by graphviz version 2.40.1 (20161225.0304)
 -->
<!-- Title: G Pages: 1 -->
<svg width="416pt" height="142pt"
 viewBox="0.00 0.00 416.00 142.00" xmlns="http://www.w3.org/2000/svg" xmlns:xlink="http://www.w3.org/1999/xlink">
<g id="graph0" class="graph" transform="scale(1 1) rotate(0) translate(4 138)">
<title>G</title>
<polygon fill="#ffffff" stroke="transparent" points="-4,4 -4,-138 412,-138 412,4 -4,4"/>
<!-- c2867385 -->
<g id="node1" class="node">
<title>c2867385</title>
<g id="a_node1"><a xlink:href="CorrelationAnalysisSolution.html" xlink:title="&lt;TABLE&gt;">
<g id="a_node1_0"><a xlink:href="CorrelationAnalysisSolution.html" xlink:title="de.lmu.ifi.dbs.elki.data.model.CorrelationAnalysisSolution" target="_parent">
<polygon fill="#fffacd" stroke="transparent" points="144,-61 144,-78 255,-78 255,-61 144,-61"/>
<polygon fill="none" stroke="#000000" points="144.5,-60.5 144.5,-77.5 255.5,-77.5 255.5,-60.5 144.5,-60.5"/>
<text text-anchor="start" x="148.5" y="-68.1" font-family="Roboto" font-size="8.00" fill="#000000"> </text>
<text text-anchor="start" x="151.5" y="-68.1" font-family="Roboto" font-size="8.00" fill="#000000">CorrelationAnalysisSolution</text>
<text text-anchor="start" x="248.5" y="-68.1" font-family="Roboto" font-size="8.00" fill="#000000"> </text>
</a>
</g>
</a>
</g>
</g>
<!-- c2868454 -->
<g id="node5" class="node">
<title>c2868454</title>
<g id="a_node5"><a xlink:href="../NumberVector.html" xlink:title="&lt;TABLE&gt;">
<g id="a_node5_1"><a xlink:href="../NumberVector.html" xlink:title="de.lmu.ifi.dbs.elki.data.NumberVector" target="_parent">
<polygon fill="#fffacd" stroke="transparent" points="297,-95 297,-134 384,-134 384,-95 297,-95"/>
<polygon fill="none" stroke="#000000" points="297.5,-94.5 297.5,-133.5 384.5,-133.5 384.5,-94.5 297.5,-94.5"/>
<text text-anchor="start" x="319.5" y="-123.1" font-family="Roboto" font-size="8.00" fill="#000000"> «interface» </text>
<text text-anchor="start" x="312.5" y="-113.1" font-family="Roboto" font-size="8.00" fill="#000000"> </text>
<text text-anchor="start" x="315.5" y="-113.1" font-family="Roboto" font-size="8.00" fill="#000000">NumberVector</text>
<text text-anchor="start" x="366.5" y="-113.1" font-family="Roboto" font-size="8.00" fill="#000000"> </text>
<text text-anchor="start" x="301.5" y="-102.1" font-family="Roboto" font-size="8.00" fill="#000000"> </text>
<text text-anchor="start" x="304.5" y="-102.1" font-family="Roboto" font-size="7.00" fill="#000000">de.lmu.ifi.dbs.elki.data</text>
<text text-anchor="start" x="377.5" y="-102.1" font-family="Roboto" font-size="8.00" fill="#000000"> </text>
</a>
</g>
</a>
</g>
</g>
<!-- c2867385&#45;&gt;c2868454 -->
<g id="edge5" class="edge">
<title>c2867385&#45;&gt;c2868454</title>
<path fill="none" stroke="#000000" stroke-dasharray="5,2" d="M226.3529,-78.0701C243.5284,-83.5516 266.4021,-90.8517 287.1619,-97.4772"/>
<polygon fill="#000000" stroke="#000000" points="296.835,-100.5644 285.9402,-101.8109 292.0717,-99.0441 287.3084,-97.5239 287.3084,-97.5239 287.3084,-97.5239 292.0717,-99.0441 288.6766,-93.2369 296.835,-100.5644 296.835,-100.5644"/>
</g>
<!-- c2869169 -->
<g id="node6" class="node">
<title>c2869169</title>
<g id="a_node6"><a xlink:href="../../math/linearalgebra/LinearEquationSystem.html" xlink:title="&lt;TABLE&gt;">
<g id="a_node6_2"><a xlink:href="../../math/linearalgebra/LinearEquationSystem.html" xlink:title="de.lmu.ifi.dbs.elki.math.linearalgebra.LinearEquationSystem" target="_parent">
<polygon fill="none" stroke="#000000" points="273.5,-55.5 273.5,-83.5 408.5,-83.5 408.5,-55.5 273.5,-55.5"/>
<text text-anchor="start" x="298.5" y="-74.1" font-family="Roboto" font-size="8.00" fill="#000000"> </text>
<text text-anchor="start" x="301.5" y="-74.1" font-family="Roboto" font-size="8.00" fill="#000000">LinearEquationSystem</text>
<text text-anchor="start" x="380.5" y="-74.1" font-family="Roboto" font-size="8.00" fill="#000000"> </text>
<text text-anchor="start" x="277.5" y="-63.1" font-family="Roboto" font-size="8.00" fill="#000000"> </text>
<text text-anchor="start" x="280.5" y="-63.1" font-family="Roboto" font-size="7.00" fill="#000000">de.lmu.ifi.dbs.elki.math.linearalgebra</text>
<text text-anchor="start" x="401.5" y="-63.1" font-family="Roboto" font-size="8.00" fill="#000000"> </text>
</a>
</g>
</a>
</g>
</g>
<!-- c2867385&#45;&gt;c2869169 -->
<g id="edge4" class="edge">
<title>c2867385&#45;&gt;c2869169</title>
<path fill="none" stroke="#000000" d="M267.3874,-69.5C269.1115,-69.5 270.8377,-69.5 272.5619,-69.5"/>
<polygon fill="#000000" stroke="#000000" points="267.2269,-69.5001 261.2269,-73.5 255.2269,-69.5 261.227,-65.5 267.2269,-69.5001"/>
</g>
<!-- c2867882 -->
<g id="node2" class="node">
<title>c2867882</title>
<g id="a_node2"><a xlink:href="Model.html" xlink:title="&lt;TABLE&gt;">
<g id="a_node2_3"><a xlink:href="Model.html" xlink:title="de.lmu.ifi.dbs.elki.data.model.Model" target="_parent">
<polygon fill="#fffacd" stroke="transparent" points="37.5,-100.5 37.5,-128.5 88.5,-128.5 88.5,-100.5 37.5,-100.5"/>
<polygon fill="none" stroke="#000000" points="38,-100.5 38,-128.5 89,-128.5 89,-100.5 38,-100.5"/>
<text text-anchor="start" x="42" y="-118.1" font-family="Roboto" font-size="8.00" fill="#000000"> «interface» </text>
<text text-anchor="start" x="49.5" y="-108.1" font-family="Roboto" font-size="8.00" fill="#000000"> </text>
<text text-anchor="start" x="52.5" y="-108.1" font-family="Roboto" font-size="8.00" fill="#000000">Model</text>
<text text-anchor="start" x="74.5" y="-108.1" font-family="Roboto" font-size="8.00" fill="#000000"> </text>
</a>
</g>
</a>
</g>
</g>
<!-- c2867882&#45;&gt;c2867385 -->
<g id="edge3" class="edge">
<title>c2867882&#45;&gt;c2867385</title>
<path fill="none" stroke="#000000" stroke-dasharray="5,2" d="M98.5669,-103.3488C107.532,-100.4996 117.129,-97.4164 126,-94.5 142.2613,-89.1539 160.4773,-82.9595 174.7066,-78.074"/>
<polygon fill="none" stroke="#000000" points="97.2634,-100.0902 88.7859,-106.4449 99.376,-106.7638 97.2634,-100.0902"/>
</g>
<!-- c2868335 -->
<g id="node3" class="node">
<title>c2868335</title>
<g id="a_node3"><a xlink:href="../../result/textwriter/TextWriteable.html" xlink:title="&lt;TABLE&gt;">
<g id="a_node3_4"><a xlink:href="../../result/textwriter/TextWriteable.html" xlink:title="de.lmu.ifi.dbs.elki.result.textwriter.TextWriteable" target="_parent">
<polygon fill="none" stroke="#000000" points="0,-49.5 0,-88.5 126,-88.5 126,-49.5 0,-49.5"/>
<text text-anchor="start" x="41.5" y="-78.1" font-family="Roboto" font-size="8.00" fill="#000000"> «interface» </text>
<text text-anchor="start" x="36" y="-68.1" font-family="Roboto" font-size="8.00" fill="#000000"> </text>
<text text-anchor="start" x="39" y="-68.1" font-family="Roboto" font-size="8.00" fill="#000000">TextWriteable</text>
<text text-anchor="start" x="87" y="-68.1" font-family="Roboto" font-size="8.00" fill="#000000"> </text>
<text text-anchor="start" x="4" y="-57.1" font-family="Roboto" font-size="8.00" fill="#000000"> </text>
<text text-anchor="start" x="7" y="-57.1" font-family="Roboto" font-size="7.00" fill="#000000">de.lmu.ifi.dbs.elki.result.textwriter</text>
<text text-anchor="start" x="119" y="-57.1" font-family="Roboto" font-size="8.00" fill="#000000"> </text>
</a>
</g>
</a>
</g>
</g>
<!-- c2868335&#45;&gt;c2867385 -->
<g id="edge1" class="edge">
<title>c2868335&#45;&gt;c2867385</title>
<path fill="none" stroke="#000000" stroke-dasharray="5,2" d="M136.2505,-69.5C138.7264,-69.5 141.1935,-69.5 143.6387,-69.5"/>
<polygon fill="none" stroke="#000000" points="136.0558,-66.0001 126.0557,-69.5 136.0557,-73.0001 136.0558,-66.0001"/>
</g>
<!-- c2868406 -->
<g id="node4" class="node">
<title>c2868406</title>
<g id="a_node4"><a xlink:href="../../result/Result.html" xlink:title="&lt;TABLE&gt;">
<g id="a_node4_5"><a xlink:href="../../result/Result.html" xlink:title="de.lmu.ifi.dbs.elki.result.Result" target="_parent">
<polygon fill="#fffacd" stroke="transparent" points="16.5,0 16.5,-39 109.5,-39 109.5,0 16.5,0"/>
<polygon fill="none" stroke="#000000" points="17,.5 17,-38.5 110,-38.5 110,.5 17,.5"/>
<text text-anchor="start" x="42" y="-28.1" font-family="Roboto" font-size="8.00" fill="#000000"> «interface» </text>
<text text-anchor="start" x="49.5" y="-18.1" font-family="Roboto" font-size="8.00" fill="#000000"> </text>
<text text-anchor="start" x="52.5" y="-18.1" font-family="Roboto" font-size="8.00" fill="#000000">Result</text>
<text text-anchor="start" x="74.5" y="-18.1" font-family="Roboto" font-size="8.00" fill="#000000"> </text>
<text text-anchor="start" x="21" y="-7.1" font-family="Roboto" font-size="8.00" fill="#000000"> </text>
<text text-anchor="start" x="24" y="-7.1" font-family="Roboto" font-size="7.00" fill="#000000">de.lmu.ifi.dbs.elki.result</text>
<text text-anchor="start" x="103" y="-7.1" font-family="Roboto" font-size="8.00" fill="#000000"> </text>
</a>
</g>
</a>
</g>
</g>
<!-- c2868406&#45;&gt;c2867385 -->
<g id="edge2" class="edge">
<title>c2868406&#45;&gt;c2867385</title>
<path fill="none" stroke="#000000" stroke-dasharray="5,2" d="M119.2177,-40.0926C139.1155,-47.3812 160.4224,-55.1859 176.0821,-60.922"/>
<polygon fill="none" stroke="#000000" points="120.1875,-36.7204 109.5938,-36.5673 117.7798,-43.2934 120.1875,-36.7204"/>
</g>
</g>
</svg>
