<?xml version="1.0" encoding="UTF-8" standalone="no"?>
<!DOCTYPE svg PUBLIC "-//W3C//DTD SVG 1.1//EN"
 "http://www.w3.org/Graphics/SVG/1.1/DTD/svg11.dtd">
<!-- Generated by graphviz version 2.40.1 (20161225.0304)
 -->
<!-- Title: G Pages: 1 -->
<svg width="278pt" height="126pt"
 viewBox="0.00 0.00 278.00 125.50" xmlns="http://www.w3.org/2000/svg" xmlns:xlink="http://www.w3.org/1999/xlink">
<g id="graph0" class="graph" transform="scale(1 1) rotate(0) translate(4 121.5)">
<title>G</title>
<polygon fill="#ffffff" stroke="transparent" points="-4,4 -4,-121.5 274,-121.5 274,4 -4,4"/>
<!-- c3328270 -->
<g id="node1" class="node">
<title>c3328270</title>
<g id="a_node1"><a xlink:href="DimensionModel.html" xlink:title="&lt;TABLE&gt;">
<g id="a_node1_0"><a xlink:href="DimensionModel.html" xlink:title="de.lmu.ifi.dbs.elki.data.model.DimensionModel" target="_parent">
<polygon fill="#fffacd" stroke="transparent" points="196,-56 196,-73 270,-73 270,-56 196,-56"/>
<polygon fill="none" stroke="#000000" points="196,-55.5 196,-72.5 270,-72.5 270,-55.5 196,-55.5"/>
<text text-anchor="start" x="200" y="-63.1" font-family="Roboto" font-size="8.00" fill="#000000"> </text>
<text text-anchor="start" x="203" y="-63.1" font-family="Roboto" font-size="8.00" fill="#000000">DimensionModel</text>
<text text-anchor="start" x="263" y="-63.1" font-family="Roboto" font-size="8.00" fill="#000000"> </text>
</a>
</g>
</a>
</g>
</g>
<!-- c3328283 -->
<g id="node2" class="node">
<title>c3328283</title>
<g id="a_node2"><a xlink:href="Model.html" xlink:title="&lt;TABLE&gt;">
<g id="a_node2_1"><a xlink:href="Model.html" xlink:title="de.lmu.ifi.dbs.elki.data.model.Model" target="_parent">
<polygon fill="#fffacd" stroke="transparent" points="63.5,-89.5 63.5,-117.5 114.5,-117.5 114.5,-89.5 63.5,-89.5"/>
<polygon fill="none" stroke="#000000" points="64,-89.5 64,-117.5 115,-117.5 115,-89.5 64,-89.5"/>
<text text-anchor="start" x="68" y="-107.1" font-family="Roboto" font-size="8.00" fill="#000000"> «interface» </text>
<text text-anchor="start" x="75.5" y="-97.1" font-family="Roboto" font-size="8.00" fill="#000000"> </text>
<text text-anchor="start" x="78.5" y="-97.1" font-family="Roboto" font-size="8.00" fill="#000000">Model</text>
<text text-anchor="start" x="100.5" y="-97.1" font-family="Roboto" font-size="8.00" fill="#000000"> </text>
</a>
</g>
</a>
</g>
</g>
<!-- c3328283&#45;&gt;c3328270 -->
<g id="edge1" class="edge">
<title>c3328283&#45;&gt;c3328270</title>
<path fill="none" stroke="#000000" stroke-dasharray="5,2" d="M124.7817,-97.0369C141.1371,-93.7829 160.6841,-89.4708 178,-84.5 189.2308,-81.276 201.4703,-76.9126 211.5459,-73.0841"/>
<polygon fill="none" stroke="#000000" points="123.7022,-93.6809 114.5503,-99.0188 125.0334,-100.5531 123.7022,-93.6809"/>
</g>
<!-- c3328424 -->
<g id="node3" class="node">
<title>c3328424</title>
<g id="a_node3"><a xlink:href="../../algorithm/clustering/correlation/COPAC.html" xlink:title="&lt;TABLE&gt;">
<g id="a_node3_2"><a xlink:href="../../algorithm/clustering/correlation/COPAC.html" xlink:title="de.lmu.ifi.dbs.elki.algorithm.clustering.correlation.COPAC" target="_parent">
<polygon fill="none" stroke="#000000" points="0,-50.5 0,-78.5 178,-78.5 178,-50.5 0,-50.5"/>
<text text-anchor="start" x="73" y="-69.1" font-family="Roboto" font-size="8.00" fill="#000000"> </text>
<text text-anchor="start" x="76" y="-69.1" font-family="Roboto" font-size="8.00" fill="#000000">COPAC</text>
<text text-anchor="start" x="102" y="-69.1" font-family="Roboto" font-size="8.00" fill="#000000"> </text>
<text text-anchor="start" x="4" y="-58.1" font-family="Roboto" font-size="8.00" fill="#000000"> </text>
<text text-anchor="start" x="7" y="-58.1" font-family="Roboto" font-size="7.00" fill="#000000">de.lmu.ifi.dbs.elki.algorithm.clustering.correlation</text>
<text text-anchor="start" x="171" y="-58.1" font-family="Roboto" font-size="8.00" fill="#000000"> </text>
</a>
</g>
</a>
</g>
</g>
<!-- c3328424&#45;&gt;c3328270 -->
<g id="edge3" class="edge">
<title>c3328424&#45;&gt;c3328270</title>
<path fill="none" stroke="#000000" d="M190.4193,-64.5C192.2224,-64.5 193.9957,-64.5 195.7335,-64.5"/>
<polygon fill="none" stroke="#000000" points="190.149,-64.5001 184.149,-68.5 178.149,-64.5 184.149,-60.5 190.149,-64.5001"/>
</g>
<!-- c3328736 -->
<g id="node4" class="node">
<title>c3328736</title>
<g id="a_node4"><a xlink:href="../../result/textwriter/TextWriteable.html" xlink:title="&lt;TABLE&gt;">
<g id="a_node4_3"><a xlink:href="../../result/textwriter/TextWriteable.html" xlink:title="de.lmu.ifi.dbs.elki.result.textwriter.TextWriteable" target="_parent">
<polygon fill="none" stroke="#000000" points="26,.5 26,-38.5 152,-38.5 152,.5 26,.5"/>
<text text-anchor="start" x="67.5" y="-28.1" font-family="Roboto" font-size="8.00" fill="#000000"> «interface» </text>
<text text-anchor="start" x="62" y="-18.1" font-family="Roboto" font-size="8.00" fill="#000000"> </text>
<text text-anchor="start" x="65" y="-18.1" font-family="Roboto" font-size="8.00" fill="#000000">TextWriteable</text>
<text text-anchor="start" x="113" y="-18.1" font-family="Roboto" font-size="8.00" fill="#000000"> </text>
<text text-anchor="start" x="30" y="-7.1" font-family="Roboto" font-size="8.00" fill="#000000"> </text>
<text text-anchor="start" x="33" y="-7.1" font-family="Roboto" font-size="7.00" fill="#000000">de.lmu.ifi.dbs.elki.result.textwriter</text>
<text text-anchor="start" x="145" y="-7.1" font-family="Roboto" font-size="8.00" fill="#000000"> </text>
</a>
</g>
</a>
</g>
</g>
<!-- c3328736&#45;&gt;c3328270 -->
<g id="edge2" class="edge">
<title>c3328736&#45;&gt;c3328270</title>
<path fill="none" stroke="#000000" stroke-dasharray="5,2" d="M162.0626,-40.5345C167.4651,-42.1846 172.8235,-43.8508 178,-45.5 188.2032,-48.7506 199.3865,-52.5668 208.9889,-55.9229"/>
<polygon fill="none" stroke="#000000" points="162.9054,-37.1329 152.3203,-37.5888 160.8794,-43.8333 162.9054,-37.1329"/>
</g>
</g>
</svg>
