<?xml version="1.0" encoding="UTF-8" standalone="no"?>
<!DOCTYPE svg PUBLIC "-//W3C//DTD SVG 1.1//EN"
 "http://www.w3.org/Graphics/SVG/1.1/DTD/svg11.dtd">
<!-- Generated by graphviz version 2.40.1 (20161225.0304)
 -->
<!-- Title: G Pages: 1 -->
<svg width="1035pt" height="368pt"
 viewBox="0.00 0.00 1035.00 368.01" xmlns="http://www.w3.org/2000/svg" xmlns:xlink="http://www.w3.org/1999/xlink">
<g id="graph0" class="graph" transform="scale(1 1) rotate(0) translate(4 364.0138)">
<title>G</title>
<polygon fill="#ffffff" stroke="transparent" points="-4,4 -4,-364.0138 1031,-364.0138 1031,4 -4,4"/>
<!-- c6854901 -->
<g id="node1" class="node">
<title>c6854901</title>
<g id="a_node1"><a xlink:href="SubspaceModel.html" xlink:title="&lt;TABLE&gt;">
<g id="a_node1_0"><a xlink:href="SubspaceModel.html" xlink:title="de.lmu.ifi.dbs.elki.data.model.SubspaceModel" target="_parent">
<polygon fill="none" stroke="#000000" points="956.5,-342.5138 956.5,-359.5138 1026.5,-359.5138 1026.5,-342.5138 956.5,-342.5138"/>
<text text-anchor="start" x="960.5" y="-350.1138" font-family="Roboto" font-size="8.00" fill="#000000"> </text>
<text text-anchor="start" x="963.5" y="-350.1138" font-family="Roboto" font-size="8.00" fill="#000000">SubspaceModel</text>
<text text-anchor="start" x="1019.5" y="-350.1138" font-family="Roboto" font-size="8.00" fill="#000000"> </text>
</a>
</g>
</a>
</g>
</g>
<!-- c6854903 -->
<g id="node2" class="node">
<title>c6854903</title>
<g id="a_node2"><a xlink:href="SimplePrototypeModel.html" xlink:title="&lt;TABLE&gt;">
<g id="a_node2_1"><a xlink:href="SimplePrototypeModel.html" xlink:title="de.lmu.ifi.dbs.elki.data.model.SimplePrototypeModel" target="_parent">
<polygon fill="none" stroke="#000000" points="731,-322.5138 731,-339.5138 823,-339.5138 823,-322.5138 731,-322.5138"/>
<text text-anchor="start" x="735" y="-330.1138" font-family="Roboto" font-size="8.00" fill="#000000"> </text>
<text text-anchor="start" x="738" y="-330.1138" font-family="Roboto" font-size="8.00" fill="#000000">SimplePrototypeModel</text>
<text text-anchor="start" x="816" y="-330.1138" font-family="Roboto" font-size="8.00" fill="#000000"> </text>
</a>
</g>
</a>
</g>
</g>
<!-- c6854916 -->
<g id="node5" class="node">
<title>c6854916</title>
<g id="a_node5"><a xlink:href="MeanModel.html" xlink:title="&lt;TABLE&gt;">
<g id="a_node5_2"><a xlink:href="MeanModel.html" xlink:title="de.lmu.ifi.dbs.elki.data.model.MeanModel" target="_parent">
<polygon fill="#fffacd" stroke="transparent" points="880,-306.0138 880,-323.0138 937,-323.0138 937,-306.0138 880,-306.0138"/>
<polygon fill="none" stroke="#000000" points="880.5,-305.5138 880.5,-322.5138 937.5,-322.5138 937.5,-305.5138 880.5,-305.5138"/>
<text text-anchor="start" x="884.5" y="-313.1138" font-family="Roboto" font-size="8.00" fill="#000000"> </text>
<text text-anchor="start" x="887.5" y="-313.1138" font-family="Roboto" font-size="8.00" fill="#000000">MeanModel</text>
<text text-anchor="start" x="930.5" y="-313.1138" font-family="Roboto" font-size="8.00" fill="#000000"> </text>
</a>
</g>
</a>
</g>
</g>
<!-- c6854903&#45;&gt;c6854916 -->
<g id="edge6" class="edge">
<title>c6854903&#45;&gt;c6854916</title>
<path fill="none" stroke="#000000" d="M833.671,-324.1875C849.5781,-322.1311 866.2079,-319.9812 879.7396,-318.2319"/>
<polygon fill="none" stroke="#000000" points="832.8307,-320.7669 823.362,-325.5202 833.7282,-327.7091 832.8307,-320.7669"/>
</g>
<!-- c6854912 -->
<g id="node3" class="node">
<title>c6854912</title>
<g id="a_node3"><a xlink:href="EMModel.html" xlink:title="&lt;TABLE&gt;">
<g id="a_node3_3"><a xlink:href="EMModel.html" xlink:title="de.lmu.ifi.dbs.elki.data.model.EMModel" target="_parent">
<polygon fill="none" stroke="#000000" points="967.5,-314.5138 967.5,-331.5138 1015.5,-331.5138 1015.5,-314.5138 967.5,-314.5138"/>
<text text-anchor="start" x="971.5" y="-322.1138" font-family="Roboto" font-size="8.00" fill="#000000"> </text>
<text text-anchor="start" x="974.5" y="-322.1138" font-family="Roboto" font-size="8.00" fill="#000000">EMModel</text>
<text text-anchor="start" x="1008.5" y="-322.1138" font-family="Roboto" font-size="8.00" fill="#000000"> </text>
</a>
</g>
</a>
</g>
</g>
<!-- c6854915 -->
<g id="node4" class="node">
<title>c6854915</title>
<g id="a_node4"><a xlink:href="KMeansModel.html" xlink:title="&lt;TABLE&gt;">
<g id="a_node4_4"><a xlink:href="KMeansModel.html" xlink:title="de.lmu.ifi.dbs.elki.data.model.KMeansModel" target="_parent">
<polygon fill="none" stroke="#000000" points="958.5,-286.5138 958.5,-303.5138 1024.5,-303.5138 1024.5,-286.5138 958.5,-286.5138"/>
<text text-anchor="start" x="962.5" y="-294.1138" font-family="Roboto" font-size="8.00" fill="#000000"> </text>
<text text-anchor="start" x="965.5" y="-294.1138" font-family="Roboto" font-size="8.00" fill="#000000">KMeansModel</text>
<text text-anchor="start" x="1017.5" y="-294.1138" font-family="Roboto" font-size="8.00" fill="#000000"> </text>
</a>
</g>
</a>
</g>
</g>
<!-- c6854916&#45;&gt;c6854901 -->
<g id="edge1" class="edge">
<title>c6854916&#45;&gt;c6854901</title>
<path fill="none" stroke="#000000" d="M934.4994,-327.5389C941.437,-330.8944 948.9621,-334.4273 956,-337.5138 960.1258,-339.3231 964.5645,-341.1591 968.8588,-342.8798"/>
<polygon fill="none" stroke="#000000" points="936.0243,-324.3885 925.5043,-323.1317 932.9444,-330.6746 936.0243,-324.3885"/>
</g>
<!-- c6854916&#45;&gt;c6854912 -->
<g id="edge4" class="edge">
<title>c6854916&#45;&gt;c6854912</title>
<path fill="none" stroke="#000000" d="M947.0164,-318.6903C953.9248,-319.4394 960.944,-320.2005 967.303,-320.89"/>
<polygon fill="none" stroke="#000000" points="947.383,-315.2096 937.0639,-317.6111 946.6283,-322.1688 947.383,-315.2096"/>
</g>
<!-- c6854916&#45;&gt;c6854915 -->
<g id="edge5" class="edge">
<title>c6854916&#45;&gt;c6854915</title>
<path fill="none" stroke="#000000" d="M946.9475,-305.7125C950.7448,-304.8433 954.5764,-303.9662 958.3141,-303.1106"/>
<polygon fill="none" stroke="#000000" points="946.0307,-302.3318 937.0639,-307.9751 947.5928,-309.1553 946.0307,-302.3318"/>
</g>
<!-- c6856474 -->
<g id="node15" class="node">
<title>c6856474</title>
<g id="a_node15"><a xlink:href="GeneratorModel.html" xlink:title="&lt;TABLE&gt;">
<g id="a_node15_5"><a xlink:href="GeneratorModel.html" xlink:title="de.lmu.ifi.dbs.elki.data.model.GeneratorModel" target="_parent">
<polygon fill="none" stroke="#000000" points="956.5,-258.5138 956.5,-275.5138 1027.5,-275.5138 1027.5,-258.5138 956.5,-258.5138"/>
<text text-anchor="start" x="960.5" y="-266.1138" font-family="Roboto" font-size="8.00" fill="#000000"> </text>
<text text-anchor="start" x="963.5" y="-266.1138" font-family="Roboto" font-size="8.00" fill="#000000">GeneratorModel</text>
<text text-anchor="start" x="1020.5" y="-266.1138" font-family="Roboto" font-size="8.00" fill="#000000"> </text>
</a>
</g>
</a>
</g>
</g>
<!-- c6854916&#45;&gt;c6856474 -->
<g id="edge12" class="edge">
<title>c6854916&#45;&gt;c6856474</title>
<path fill="none" stroke="#000000" d="M927.4209,-299.8623C935.8772,-293.7167 946.144,-286.7888 956,-281.5138 959.6215,-279.5755 963.5711,-277.7549 967.4775,-276.1087"/>
<polygon fill="none" stroke="#000000" points="925.2771,-297.0949 919.3569,-305.8814 929.4643,-302.7045 925.2771,-297.0949"/>
</g>
<!-- c6854925 -->
<g id="node6" class="node">
<title>c6854925</title>
<g id="a_node6"><a xlink:href="../../algorithm/clustering/em/AbstractEMModelFactory.html" xlink:title="&lt;TABLE&gt;">
<g id="a_node6_6"><a xlink:href="../../algorithm/clustering/em/AbstractEMModelFactory.html" xlink:title="de.lmu.ifi.dbs.elki.algorithm.clustering.em.AbstractEMModelFactory" target="_parent">
<polygon fill="none" stroke="#000000" points="701,-214.5138 701,-242.5138 854,-242.5138 854,-214.5138 701,-214.5138"/>
<text text-anchor="start" x="730" y="-233.1138" font-family="Roboto" font-size="8.00" fill="#000000"> </text>
<text text-anchor="start" x="733" y="-233.1138" font-family="Roboto" font-style="italic" font-size="8.00" fill="#000000">AbstractEMModelFactory</text>
<text text-anchor="start" x="822" y="-233.1138" font-family="Roboto" font-size="8.00" fill="#000000"> </text>
<text text-anchor="start" x="705" y="-222.1138" font-family="Roboto" font-size="8.00" fill="#000000"> </text>
<text text-anchor="start" x="708" y="-222.1138" font-family="Roboto" font-size="7.00" fill="#000000">de.lmu.ifi.dbs.elki.algorithm.clustering.em</text>
<text text-anchor="start" x="847" y="-222.1138" font-family="Roboto" font-size="8.00" fill="#000000"> </text>
</a>
</g>
</a>
</g>
</g>
<!-- c6854925&#45;&gt;c6854916 -->
<g id="edge13" class="edge">
<title>c6854925&#45;&gt;c6854916</title>
<path fill="none" stroke="#000000" stroke-dasharray="5,2" d="M849.3215,-242.6942C857.2059,-246.3055 864.657,-250.8345 871,-256.5138 883.547,-267.748 893.6143,-284.1136 900.1459,-296.5985"/>
<polygon fill="#000000" stroke="#000000" points="904.6061,-305.6069 896.1362,-298.6418 902.3875,-301.126 900.169,-296.6451 900.169,-296.6451 900.169,-296.6451 902.3875,-301.126 904.2018,-294.6484 904.6061,-305.6069 904.6061,-305.6069"/>
</g>
<!-- c6854929 -->
<g id="node7" class="node">
<title>c6854929</title>
<g id="a_node7"><a xlink:href="../../algorithm/clustering/em/EM.html" xlink:title="&lt;TABLE&gt;">
<g id="a_node7_7"><a xlink:href="../../algorithm/clustering/em/EM.html" xlink:title="de.lmu.ifi.dbs.elki.algorithm.clustering.em.EM" target="_parent">
<polygon fill="none" stroke="#000000" points="8,-214.5138 8,-242.5138 161,-242.5138 161,-214.5138 8,-214.5138"/>
<text text-anchor="start" x="75" y="-233.1138" font-family="Roboto" font-size="8.00" fill="#000000"> </text>
<text text-anchor="start" x="78" y="-233.1138" font-family="Roboto" font-size="8.00" fill="#000000">EM</text>
<text text-anchor="start" x="91" y="-233.1138" font-family="Roboto" font-size="8.00" fill="#000000"> </text>
<text text-anchor="start" x="12" y="-222.1138" font-family="Roboto" font-size="8.00" fill="#000000"> </text>
<text text-anchor="start" x="15" y="-222.1138" font-family="Roboto" font-size="7.00" fill="#000000">de.lmu.ifi.dbs.elki.algorithm.clustering.em</text>
<text text-anchor="start" x="154" y="-222.1138" font-family="Roboto" font-size="8.00" fill="#000000"> </text>
</a>
</g>
</a>
</g>
</g>
<!-- c6854929&#45;&gt;c6854916 -->
<g id="edge14" class="edge">
<title>c6854929&#45;&gt;c6854916</title>
<path fill="none" stroke="#000000" stroke-dasharray="5,2" d="M160.8266,-236.5272C332.4989,-254.4336 742.1585,-297.1634 869.8283,-310.4801"/>
<polygon fill="#000000" stroke="#000000" points="879.9155,-311.5323 869.5026,-314.9705 874.9425,-311.0135 869.9694,-310.4947 869.9694,-310.4947 869.9694,-310.4947 874.9425,-311.0135 870.4363,-306.019 879.9155,-311.5323 879.9155,-311.5323"/>
</g>
<!-- c6854934 -->
<g id="node9" class="node">
<title>c6854934</title>
<g id="a_node9"><a xlink:href="../../algorithm/clustering/em/EMClusterModelFactory.html" xlink:title="&lt;TABLE&gt;">
<g id="a_node9_8"><a xlink:href="../../algorithm/clustering/em/EMClusterModelFactory.html" xlink:title="de.lmu.ifi.dbs.elki.algorithm.clustering.em.EMClusterModelFactory" target="_parent">
<polygon fill="none" stroke="#000000" points="354.5,-208.5138 354.5,-247.5138 507.5,-247.5138 507.5,-208.5138 354.5,-208.5138"/>
<text text-anchor="start" x="409.5" y="-237.1138" font-family="Roboto" font-size="8.00" fill="#000000"> «interface» </text>
<text text-anchor="start" x="385.5" y="-227.1138" font-family="Roboto" font-size="8.00" fill="#000000"> </text>
<text text-anchor="start" x="388.5" y="-227.1138" font-family="Roboto" font-size="8.00" fill="#000000">EMClusterModelFactory</text>
<text text-anchor="start" x="473.5" y="-227.1138" font-family="Roboto" font-size="8.00" fill="#000000"> </text>
<text text-anchor="start" x="358.5" y="-216.1138" font-family="Roboto" font-size="8.00" fill="#000000"> </text>
<text text-anchor="start" x="361.5" y="-216.1138" font-family="Roboto" font-size="7.00" fill="#000000">de.lmu.ifi.dbs.elki.algorithm.clustering.em</text>
<text text-anchor="start" x="500.5" y="-216.1138" font-family="Roboto" font-size="8.00" fill="#000000"> </text>
</a>
</g>
</a>
</g>
</g>
<!-- c6854929&#45;&gt;c6854934 -->
<g id="edge9" class="edge">
<title>c6854929&#45;&gt;c6854934</title>
<path fill="none" stroke="#000000" d="M172.9524,-228.5138C228.9048,-228.5138 300.3679,-228.5138 353.8154,-228.5138"/>
<polygon fill="#000000" stroke="#000000" points="172.8996,-228.5139 166.8995,-232.5138 160.8996,-228.5138 166.8996,-224.5138 172.8996,-228.5139"/>
</g>
<!-- c6854932 -->
<g id="node8" class="node">
<title>c6854932</title>
<g id="a_node8"><a xlink:href="../../algorithm/clustering/em/EMClusterModel.html" xlink:title="&lt;TABLE&gt;">
<g id="a_node8_9"><a xlink:href="../../algorithm/clustering/em/EMClusterModel.html" xlink:title="de.lmu.ifi.dbs.elki.algorithm.clustering.em.EMClusterModel" target="_parent">
<polygon fill="none" stroke="#000000" points="701,-163.5138 701,-202.5138 854,-202.5138 854,-163.5138 701,-163.5138"/>
<text text-anchor="start" x="756" y="-192.1138" font-family="Roboto" font-size="8.00" fill="#000000"> «interface» </text>
<text text-anchor="start" x="745" y="-182.1138" font-family="Roboto" font-size="8.00" fill="#000000"> </text>
<text text-anchor="start" x="748" y="-182.1138" font-family="Roboto" font-size="8.00" fill="#000000">EMClusterModel</text>
<text text-anchor="start" x="807" y="-182.1138" font-family="Roboto" font-size="8.00" fill="#000000"> </text>
<text text-anchor="start" x="705" y="-171.1138" font-family="Roboto" font-size="8.00" fill="#000000"> </text>
<text text-anchor="start" x="708" y="-171.1138" font-family="Roboto" font-size="7.00" fill="#000000">de.lmu.ifi.dbs.elki.algorithm.clustering.em</text>
<text text-anchor="start" x="847" y="-171.1138" font-family="Roboto" font-size="8.00" fill="#000000"> </text>
</a>
</g>
</a>
</g>
</g>
<!-- c6854932&#45;&gt;c6854916 -->
<g id="edge15" class="edge">
<title>c6854932&#45;&gt;c6854916</title>
<path fill="none" stroke="#000000" stroke-dasharray="5,2" d="M852.5453,-203.1481C855.5298,-205.0748 858.3674,-207.1905 861,-209.5138 886.9125,-232.3818 899.4822,-272.194 904.9176,-295.6731"/>
<polygon fill="#000000" stroke="#000000" points="907.04,-305.7414 900.574,-296.8846 906.0086,-300.8489 904.9772,-295.9564 904.9772,-295.9564 904.9772,-295.9564 906.0086,-300.8489 909.3804,-295.0282 907.04,-305.7414 907.04,-305.7414"/>
</g>
<!-- c6854934&#45;&gt;c6854916 -->
<g id="edge16" class="edge">
<title>c6854934&#45;&gt;c6854916</title>
<path fill="none" stroke="#000000" stroke-dasharray="5,2" d="M507.0982,-236.1506C626.2343,-248.1068 844.108,-270.3177 861,-274.5138 874.9191,-277.9714 887.1989,-288.6371 895.7844,-298.0857"/>
<polygon fill="#000000" stroke="#000000" points="902.3266,-305.864 892.4459,-301.1076 899.1082,-302.0375 895.8898,-298.211 895.8898,-298.211 895.8898,-298.211 899.1082,-302.0375 899.3336,-295.3145 902.3266,-305.864 902.3266,-305.864"/>
</g>
<!-- c6854934&#45;&gt;c6854925 -->
<g id="edge8" class="edge">
<title>c6854934&#45;&gt;c6854925</title>
<path fill="none" stroke="#000000" stroke-dasharray="5,2" d="M517.698,-228.5138C573.9046,-228.5138 646.3077,-228.5138 700.3154,-228.5138"/>
<polygon fill="none" stroke="#000000" points="517.3996,-225.0139 507.3996,-228.5138 517.3995,-232.0139 517.3996,-225.0139"/>
</g>
<!-- c6854934&#45;&gt;c6854932 -->
<g id="edge10" class="edge">
<title>c6854934&#45;&gt;c6854932</title>
<path fill="none" stroke="#000000" d="M507.3996,-218.5268C561.5682,-211.4919 634.1624,-202.0641 690.3749,-194.7638"/>
<polygon fill="#000000" stroke="#000000" points="700.3154,-193.4728 690.9782,-199.2233 695.357,-194.1168 690.3987,-194.7608 690.3987,-194.7608 690.3987,-194.7608 695.357,-194.1168 689.8191,-190.2983 700.3154,-193.4728 700.3154,-193.4728"/>
<text text-anchor="middle" x="600" y="-217.9138" font-family="Roboto" font-size="7.00" fill="#000000">creates</text>
</g>
<!-- c6855120 -->
<g id="node10" class="node">
<title>c6855120</title>
<g id="a_node10"><a xlink:href="../../algorithm/clustering/kmeans/BestOfMultipleKMeans.html" xlink:title="&lt;TABLE&gt;">
<g id="a_node10_10"><a xlink:href="../../algorithm/clustering/kmeans/BestOfMultipleKMeans.html" xlink:title="de.lmu.ifi.dbs.elki.algorithm.clustering.kmeans.BestOfMultipleKMeans" target="_parent">
<polygon fill="none" stroke="#000000" points="177,-179.5138 177,-207.5138 345,-207.5138 345,-179.5138 177,-179.5138"/>
<text text-anchor="start" x="216.5" y="-198.1138" font-family="Roboto" font-size="8.00" fill="#000000"> </text>
<text text-anchor="start" x="219.5" y="-198.1138" font-family="Roboto" font-size="8.00" fill="#000000">BestOfMultipleKMeans</text>
<text text-anchor="start" x="302.5" y="-198.1138" font-family="Roboto" font-size="8.00" fill="#000000"> </text>
<text text-anchor="start" x="181" y="-187.1138" font-family="Roboto" font-size="8.00" fill="#000000"> </text>
<text text-anchor="start" x="184" y="-187.1138" font-family="Roboto" font-size="7.00" fill="#000000">de.lmu.ifi.dbs.elki.algorithm.clustering.kmeans</text>
<text text-anchor="start" x="338" y="-187.1138" font-family="Roboto" font-size="8.00" fill="#000000"> </text>
</a>
</g>
</a>
</g>
</g>
<!-- c6855120&#45;&gt;c6854916 -->
<g id="edge17" class="edge">
<title>c6855120&#45;&gt;c6854916</title>
<path fill="none" stroke="#000000" stroke-dasharray="5,2" d="M345.0791,-182.7158C500.4794,-163.6106 820.5724,-128.5633 861,-158.5138 883.265,-175.0086 899.2528,-257.4892 905.5451,-295.3994"/>
<polygon fill="#000000" stroke="#000000" points="907.1828,-305.6113 901.156,-296.4501 906.391,-300.6744 905.5993,-295.7375 905.5993,-295.7375 905.5993,-295.7375 906.391,-300.6744 910.0425,-295.0248 907.1828,-305.6113 907.1828,-305.6113"/>
</g>
<!-- c6855147 -->
<g id="node11" class="node">
<title>c6855147</title>
<g id="a_node11"><a xlink:href="../../algorithm/clustering/kmeans/KMediansLloyd.html" xlink:title="&lt;TABLE&gt;">
<g id="a_node11_11"><a xlink:href="../../algorithm/clustering/kmeans/KMediansLloyd.html" xlink:title="de.lmu.ifi.dbs.elki.algorithm.clustering.kmeans.KMediansLloyd" target="_parent">
<polygon fill="none" stroke="#000000" points="693,-101.5138 693,-129.5138 861,-129.5138 861,-101.5138 693,-101.5138"/>
<text text-anchor="start" x="746.5" y="-120.1138" font-family="Roboto" font-size="8.00" fill="#000000"> </text>
<text text-anchor="start" x="749.5" y="-120.1138" font-family="Roboto" font-size="8.00" fill="#000000">KMediansLloyd</text>
<text text-anchor="start" x="804.5" y="-120.1138" font-family="Roboto" font-size="8.00" fill="#000000"> </text>
<text text-anchor="start" x="697" y="-109.1138" font-family="Roboto" font-size="8.00" fill="#000000"> </text>
<text text-anchor="start" x="700" y="-109.1138" font-family="Roboto" font-size="7.00" fill="#000000">de.lmu.ifi.dbs.elki.algorithm.clustering.kmeans</text>
<text text-anchor="start" x="854" y="-109.1138" font-family="Roboto" font-size="8.00" fill="#000000"> </text>
</a>
</g>
</a>
</g>
</g>
<!-- c6855147&#45;&gt;c6854916 -->
<g id="edge11" class="edge">
<title>c6855147&#45;&gt;c6854916</title>
<path fill="none" stroke="#000000" d="M855.8971,-129.6891C861.4881,-132.896 866.6312,-136.7902 871,-141.5138 891.7461,-163.9446 902.8879,-255.8999 906.8291,-295.8456"/>
<polygon fill="#000000" stroke="#000000" points="907.77,-305.8355 902.352,-296.3016 907.3011,-300.8575 906.8322,-295.8796 906.8322,-295.8796 906.8322,-295.8796 907.3011,-300.8575 911.3124,-295.4576 907.77,-305.8355 907.77,-305.8355"/>
</g>
<!-- c6855162 -->
<g id="node12" class="node">
<title>c6855162</title>
<g id="a_node12"><a xlink:href="../../algorithm/clustering/kmeans/KMeansBisecting.html" xlink:title="&lt;TABLE&gt;">
<g id="a_node12_12"><a xlink:href="../../algorithm/clustering/kmeans/KMeansBisecting.html" xlink:title="de.lmu.ifi.dbs.elki.algorithm.clustering.kmeans.KMeansBisecting" target="_parent">
<polygon fill="none" stroke="#000000" points="516,-115.5138 516,-143.5138 684,-143.5138 684,-115.5138 516,-115.5138"/>
<text text-anchor="start" x="566" y="-134.1138" font-family="Roboto" font-size="8.00" fill="#000000"> </text>
<text text-anchor="start" x="569" y="-134.1138" font-family="Roboto" font-size="8.00" fill="#000000">KMeansBisecting</text>
<text text-anchor="start" x="631" y="-134.1138" font-family="Roboto" font-size="8.00" fill="#000000"> </text>
<text text-anchor="start" x="520" y="-123.1138" font-family="Roboto" font-size="8.00" fill="#000000"> </text>
<text text-anchor="start" x="523" y="-123.1138" font-family="Roboto" font-size="7.00" fill="#000000">de.lmu.ifi.dbs.elki.algorithm.clustering.kmeans</text>
<text text-anchor="start" x="677" y="-123.1138" font-family="Roboto" font-size="8.00" fill="#000000"> </text>
</a>
</g>
</a>
</g>
</g>
<!-- c6855162&#45;&gt;c6854916 -->
<g id="edge18" class="edge">
<title>c6855162&#45;&gt;c6854916</title>
<path fill="none" stroke="#000000" stroke-dasharray="5,2" d="M625.143,-115.3766C675.7859,-89.0006 791.1812,-39.7825 861,-95.5138 892.3863,-120.5672 904.0417,-247.6388 907.3778,-295.8916"/>
<polygon fill="#000000" stroke="#000000" points="908.0257,-305.8838 902.888,-296.1959 907.7021,-300.8943 907.3786,-295.9047 907.3786,-295.9047 907.3786,-295.9047 907.7021,-300.8943 911.8692,-295.6136 908.0257,-305.8838 908.0257,-305.8838"/>
</g>
<!-- c6855197 -->
<g id="node13" class="node">
<title>c6855197</title>
<g id="a_node13"><a xlink:href="../../algorithm/clustering/kmeans/XMeans.html" xlink:title="&lt;TABLE&gt;">
<g id="a_node13_13"><a xlink:href="../../algorithm/clustering/kmeans/XMeans.html" xlink:title="de.lmu.ifi.dbs.elki.algorithm.clustering.kmeans.XMeans" target="_parent">
<polygon fill="none" stroke="#000000" points="0,-165.5138 0,-193.5138 168,-193.5138 168,-165.5138 0,-165.5138"/>
<text text-anchor="start" x="66" y="-184.1138" font-family="Roboto" font-size="8.00" fill="#000000"> </text>
<text text-anchor="start" x="69" y="-184.1138" font-family="Roboto" font-size="8.00" fill="#000000">XMeans</text>
<text text-anchor="start" x="99" y="-184.1138" font-family="Roboto" font-size="8.00" fill="#000000"> </text>
<text text-anchor="start" x="4" y="-173.1138" font-family="Roboto" font-size="8.00" fill="#000000"> </text>
<text text-anchor="start" x="7" y="-173.1138" font-family="Roboto" font-size="7.00" fill="#000000">de.lmu.ifi.dbs.elki.algorithm.clustering.kmeans</text>
<text text-anchor="start" x="161" y="-173.1138" font-family="Roboto" font-size="8.00" fill="#000000"> </text>
</a>
</g>
</a>
</g>
</g>
<!-- c6855197&#45;&gt;c6854916 -->
<g id="edge19" class="edge">
<title>c6855197&#45;&gt;c6854916</title>
<path fill="none" stroke="#000000" stroke-dasharray="5,2" d="M107.6251,-165.3233C209.633,-106.0693 618.0993,110.2337 861,-71.5138 896.9976,-98.4485 905.8814,-243.6088 907.9269,-295.8052"/>
<polygon fill="#000000" stroke="#000000" points="908.2825,-305.9614 903.4353,-296.125 908.1075,-300.9645 907.9325,-295.9676 907.9325,-295.9676 907.9325,-295.9676 908.1075,-300.9645 912.4298,-295.8101 908.2825,-305.9614 908.2825,-305.9614"/>
</g>
<!-- c6855363 -->
<g id="node14" class="node">
<title>c6855363</title>
<g id="a_node14"><a xlink:href="../../result/textwriter/TextWriteable.html" xlink:title="&lt;TABLE&gt;">
<g id="a_node14_14"><a xlink:href="../../result/textwriter/TextWriteable.html" xlink:title="de.lmu.ifi.dbs.elki.result.textwriter.TextWriteable" target="_parent">
<polygon fill="none" stroke="#000000" points="367.5,-311.5138 367.5,-350.5138 493.5,-350.5138 493.5,-311.5138 367.5,-311.5138"/>
<text text-anchor="start" x="409" y="-340.1138" font-family="Roboto" font-size="8.00" fill="#000000"> «interface» </text>
<text text-anchor="start" x="403.5" y="-330.1138" font-family="Roboto" font-size="8.00" fill="#000000"> </text>
<text text-anchor="start" x="406.5" y="-330.1138" font-family="Roboto" font-size="8.00" fill="#000000">TextWriteable</text>
<text text-anchor="start" x="454.5" y="-330.1138" font-family="Roboto" font-size="8.00" fill="#000000"> </text>
<text text-anchor="start" x="371.5" y="-319.1138" font-family="Roboto" font-size="8.00" fill="#000000"> </text>
<text text-anchor="start" x="374.5" y="-319.1138" font-family="Roboto" font-size="7.00" fill="#000000">de.lmu.ifi.dbs.elki.result.textwriter</text>
<text text-anchor="start" x="486.5" y="-319.1138" font-family="Roboto" font-size="8.00" fill="#000000"> </text>
</a>
</g>
</a>
</g>
</g>
<!-- c6855363&#45;&gt;c6854901 -->
<g id="edge2" class="edge">
<title>c6855363&#45;&gt;c6854901</title>
<path fill="none" stroke="#000000" stroke-dasharray="5,2" d="M503.7978,-338.6586C507.9239,-338.9715 512.013,-339.2599 516,-339.5138 680.4109,-349.9829 877.3449,-351.4225 956.2643,-351.5481"/>
<polygon fill="none" stroke="#000000" points="503.7489,-335.1437 493.5019,-337.8361 503.1914,-342.1214 503.7489,-335.1437"/>
</g>
<!-- c6855363&#45;&gt;c6854903 -->
<g id="edge3" class="edge">
<title>c6855363&#45;&gt;c6854903</title>
<path fill="none" stroke="#000000" stroke-dasharray="5,2" d="M503.9575,-331.5138C572.5759,-331.5138 672.885,-331.5138 730.8917,-331.5138"/>
<polygon fill="none" stroke="#000000" points="503.6506,-328.0139 493.6505,-331.5138 503.6505,-335.0139 503.6506,-328.0139"/>
</g>
<!-- c6855363&#45;&gt;c6854916 -->
<g id="edge7" class="edge">
<title>c6855363&#45;&gt;c6854916</title>
<path fill="none" stroke="#000000" stroke-dasharray="5,2" d="M503.8374,-326.8281C556.4615,-323.655 629.072,-319.6627 693,-317.5138 759.9383,-315.2637 838.627,-314.6935 879.9073,-314.5541"/>
<polygon fill="none" stroke="#000000" points="503.3568,-323.3507 493.5875,-327.451 503.7814,-330.3378 503.3568,-323.3507"/>
</g>
</g>
</svg>
