<?xml version="1.0" encoding="UTF-8" standalone="no"?>
<!DOCTYPE svg PUBLIC "-//W3C//DTD SVG 1.1//EN"
 "http://www.w3.org/Graphics/SVG/1.1/DTD/svg11.dtd">
<!-- Generated by graphviz version 2.40.1 (20161225.0304)
 -->
<!-- Title: G Pages: 1 -->
<svg width="162pt" height="87pt"
 viewBox="0.00 0.00 162.00 86.50" xmlns="http://www.w3.org/2000/svg" xmlns:xlink="http://www.w3.org/1999/xlink">
<g id="graph0" class="graph" transform="scale(1 1) rotate(0) translate(4 82.5)">
<title>G</title>
<polygon fill="#ffffff" stroke="transparent" points="-4,4 -4,-82.5 158,-82.5 158,4 -4,4"/>
<!-- c7126672 -->
<g id="node1" class="node">
<title>c7126672</title>
<g id="a_node1"><a xlink:href="ModelUtil.html" xlink:title="&lt;TABLE&gt;">
<g id="a_node1_0"><a xlink:href="ModelUtil.html" xlink:title="de.lmu.ifi.dbs.elki.data.model.ModelUtil" target="_parent">
<polygon fill="#fffacd" stroke="transparent" points="0,-33 0,-50 49,-50 49,-33 0,-33"/>
<polygon fill="none" stroke="#000000" points=".5,-32.5 .5,-49.5 49.5,-49.5 49.5,-32.5 .5,-32.5"/>
<text text-anchor="start" x="4.5" y="-40.1" font-family="Roboto" font-size="8.00" fill="#000000"> </text>
<text text-anchor="start" x="7.5" y="-40.1" font-family="Roboto" font-size="8.00" fill="#000000">ModelUtil</text>
<text text-anchor="start" x="42.5" y="-40.1" font-family="Roboto" font-size="8.00" fill="#000000"> </text>
</a>
</g>
</a>
</g>
</g>
<!-- c7126673 -->
<g id="node2" class="node">
<title>c7126673</title>
<g id="a_node2"><a xlink:href="Model.html" xlink:title="&lt;TABLE&gt;">
<g id="a_node2_1"><a xlink:href="Model.html" xlink:title="de.lmu.ifi.dbs.elki.data.model.Model" target="_parent">
<polygon fill="#fffacd" stroke="transparent" points="85,-50.5 85,-78.5 136,-78.5 136,-50.5 85,-50.5"/>
<polygon fill="none" stroke="#000000" points="85.5,-50.5 85.5,-78.5 136.5,-78.5 136.5,-50.5 85.5,-50.5"/>
<text text-anchor="start" x="89.5" y="-68.1" font-family="Roboto" font-size="8.00" fill="#000000"> «interface» </text>
<text text-anchor="start" x="97" y="-58.1" font-family="Roboto" font-size="8.00" fill="#000000"> </text>
<text text-anchor="start" x="100" y="-58.1" font-family="Roboto" font-size="8.00" fill="#000000">Model</text>
<text text-anchor="start" x="122" y="-58.1" font-family="Roboto" font-size="8.00" fill="#000000"> </text>
</a>
</g>
</a>
</g>
</g>
<!-- c7126672&#45;&gt;c7126673 -->
<g id="edge1" class="edge">
<title>c7126672&#45;&gt;c7126673</title>
<path fill="none" stroke="#000000" d="M49.3748,-48.1526C60.4869,-51.1244 73.5756,-54.6249 84.7845,-57.6226"/>
</g>
<!-- c7127245 -->
<g id="node3" class="node">
<title>c7127245</title>
<g id="a_node3"><a xlink:href="../NumberVector.html" xlink:title="&lt;TABLE&gt;">
<g id="a_node3_2"><a xlink:href="../NumberVector.html" xlink:title="de.lmu.ifi.dbs.elki.data.NumberVector" target="_parent">
<polygon fill="#fffacd" stroke="transparent" points="67,0 67,-39 154,-39 154,0 67,0"/>
<polygon fill="none" stroke="#000000" points="67.5,.5 67.5,-38.5 154.5,-38.5 154.5,.5 67.5,.5"/>
<text text-anchor="start" x="89.5" y="-28.1" font-family="Roboto" font-size="8.00" fill="#000000"> «interface» </text>
<text text-anchor="start" x="82.5" y="-18.1" font-family="Roboto" font-size="8.00" fill="#000000"> </text>
<text text-anchor="start" x="85.5" y="-18.1" font-family="Roboto" font-size="8.00" fill="#000000">NumberVector</text>
<text text-anchor="start" x="136.5" y="-18.1" font-family="Roboto" font-size="8.00" fill="#000000"> </text>
<text text-anchor="start" x="71.5" y="-7.1" font-family="Roboto" font-size="8.00" fill="#000000"> </text>
<text text-anchor="start" x="74.5" y="-7.1" font-family="Roboto" font-size="7.00" fill="#000000">de.lmu.ifi.dbs.elki.data</text>
<text text-anchor="start" x="147.5" y="-7.1" font-family="Roboto" font-size="8.00" fill="#000000"> </text>
</a>
</g>
</a>
</g>
</g>
<!-- c7126672&#45;&gt;c7127245 -->
<g id="edge2" class="edge">
<title>c7126672&#45;&gt;c7127245</title>
<path fill="none" stroke="#000000" d="M49.3748,-35.1367C54.8316,-33.7408 60.7651,-32.2229 66.7186,-30.6999"/>
</g>
</g>
</svg>
