<?xml version="1.0" encoding="UTF-8" standalone="no"?><svg xmlns="http://www.w3.org/2000/svg" xmlns:xlink="http://www.w3.org/1999/xlink" contentStyleType="text/css" height="276px" preserveAspectRatio="none" style="width:522px;height:276px;background:#FFFFFF;" version="1.1" viewBox="0 0 522 276" width="522px" zoomAndPan="magnify"><defs/><g><!--MD5=[2684b108595f1ee0ffe7afa8dca37a61]
class elki.index.tree.metrical.mtreevariants.query.MkTreeRKNNQuery--><a href="MkTreeRKNNQuery.html" target="_top" title="MkTreeRKNNQuery.html" xlink:actuate="onRequest" xlink:href="MkTreeRKNNQuery.html" xlink:show="new" xlink:title="MkTreeRKNNQuery.html" xlink:type="simple"><g id="elem_elki.index.tree.metrical.mtreevariants.query.MkTreeRKNNQuery"><rect codeLine="6" fill="#F1F1F1" height="119.125" id="elki.index.tree.metrical.mtreevariants.query.MkTreeRKNNQuery" rx="2.5" ry="2.5" style="stroke:#181818;stroke-width:0.5;" width="502" x="9" y="132"/><ellipse cx="143.75" cy="150.9688" fill="#ADD1B2" rx="11" ry="11" style="stroke:#181818;stroke-width:1.0;"/><path d="M146.7188,156.6094 Q146.1406,156.9063 145.5,157.0469 Q144.8594,157.2031 144.1563,157.2031 Q141.6563,157.2031 140.3281,155.5625 Q139.0156,153.9063 139.0156,150.7813 Q139.0156,147.6563 140.3281,146 Q141.6563,144.3438 144.1563,144.3438 Q144.8594,144.3438 145.5,144.5 Q146.1563,144.6563 146.7188,144.9531 L146.7188,147.6719 Q146.0938,147.0938 145.5,146.8281 Q144.9063,146.5469 144.2813,146.5469 Q142.9375,146.5469 142.25,147.625 Q141.5625,148.6875 141.5625,150.7813 Q141.5625,152.875 142.25,153.9531 Q142.9375,155.0156 144.2813,155.0156 Q144.9063,155.0156 145.5,154.75 Q146.0938,154.4688 146.7188,153.8906 L146.7188,156.6094 Z " fill="#000000"/><text fill="#000000" font-family="sans-serif" font-size="14" lengthAdjust="spacing" textLength="132" x="204.25" y="149.9951">MkTreeRKNNQuery</text><text fill="#000000" font-family="sans-serif" font-size="10" lengthAdjust="spacing" textLength="212" x="164.25" y="162.5791">elki.index.tree.metrical.mtreevariants.query</text><rect fill="#FFFFFF" height="15.9688" style="stroke:#181818;stroke-width:1.0;stroke-dasharray:2.0,2.0;" width="10" x="504" y="129"/><text fill="#000000" font-family="sans-serif" font-size="12" font-style="italic" lengthAdjust="spacing" textLength="8" x="505" y="141.1387">O</text><line style="stroke:#181818;stroke-width:0.5;" x1="10" x2="510" y1="169.9375" y2="169.9375"/><polygon fill="none" points="20,178.5859,24,182.5859,20,186.5859,16,182.5859" style="stroke:#B38D22;stroke-width:1.0;"/><text fill="#000000" font-family="sans-serif" font-size="14" lengthAdjust="spacing" textLength="246" x="29" y="186.9326">distanceQuery: DistanceQuery&lt;O&gt;</text><polygon fill="none" points="20,194.8828,24,198.8828,20,202.8828,16,198.8828" style="stroke:#B38D22;stroke-width:1.0;"/><text fill="#000000" font-family="sans-serif" font-size="14" lengthAdjust="spacing" textLength="235" x="29" y="203.2295">index: AbstractMkTree&lt;O, ?, ?, ?&gt;</text><line style="stroke:#181818;stroke-width:0.5;" x1="10" x2="510" y1="210.5313" y2="210.5313"/><ellipse cx="20" cy="224.1797" fill="#84BE84" rx="3" ry="3" style="stroke:#038048;stroke-width:1.0;"/><text fill="#000000" font-family="sans-serif" font-size="14" lengthAdjust="spacing" textLength="476" x="29" y="227.5264">MkTreeRKNNQuery(AbstractMkTree&lt;O, ?, ?, ?&gt;, DistanceQuery&lt;O&gt;)</text><ellipse cx="20" cy="240.4766" fill="#84BE84" rx="3" ry="3" style="stroke:#038048;stroke-width:1.0;"/><text fill="#000000" font-family="sans-serif" font-size="14" lengthAdjust="spacing" textLength="272" x="29" y="243.8232">getRKNN(DBIDRef, int): DoubleDBIDList</text></g></a><!--MD5=[31599d7a965114866488f3ce267e970e]
class elki.database.query.rknn.RKNNSearcher--><a href="../../../../../database/query/rknn/RKNNSearcher.html" target="_top" title="../../../../../database/query/rknn/RKNNSearcher.html" xlink:actuate="onRequest" xlink:href="../../../../../database/query/rknn/RKNNSearcher.html" xlink:show="new" xlink:title="../../../../../database/query/rknn/RKNNSearcher.html" xlink:type="simple"><g id="elem_elki.database.query.rknn.RKNNSearcher"><rect codeLine="13" fill="#F1F1F1" height="62.2344" id="elki.database.query.rknn.RKNNSearcher" rx="2.5" ry="2.5" style="stroke:#181818;stroke-width:0.5;" width="306" x="107" y="10"/><ellipse cx="168.25" cy="28.9688" fill="#B4A7E5" rx="11" ry="11" style="stroke:#181818;stroke-width:1.0;"/><path d="M164.1719,24.7344 L164.1719,22.5781 L171.5625,22.5781 L171.5625,24.7344 L169.0938,24.7344 L169.0938,32.8125 L171.5625,32.8125 L171.5625,34.9688 L164.1719,34.9688 L164.1719,32.8125 L166.6406,32.8125 L166.6406,24.7344 L164.1719,24.7344 Z " fill="#000000"/><text fill="#000000" font-family="sans-serif" font-size="14" font-style="italic" lengthAdjust="spacing" textLength="104" x="197.75" y="27.9951">RKNNSearcher</text><text fill="#000000" font-family="sans-serif" font-size="10" font-style="italic" lengthAdjust="spacing" textLength="122" x="188.75" y="40.5791">elki.database.query.rknn</text><rect fill="#FFFFFF" height="15.9688" style="stroke:#181818;stroke-width:1.0;stroke-dasharray:2.0,2.0;" width="51" x="365" y="7"/><text fill="#000000" font-family="sans-serif" font-size="12" font-style="italic" lengthAdjust="spacing" textLength="49" x="366" y="19.1387">DBIDRef</text><line style="stroke:#181818;stroke-width:0.5;" x1="108" x2="412" y1="47.9375" y2="47.9375"/><ellipse cx="118" cy="61.5859" fill="#84BE84" rx="3" ry="3" style="stroke:#038048;stroke-width:1.0;"/><text fill="#000000" font-family="sans-serif" font-size="14" font-style="italic" lengthAdjust="spacing" textLength="280" x="127" y="64.9326">getRKNN(DBIDRef, int): DoubleDBIDList</text></g></a><!--MD5=[4e1f1309ccd98caadde527990627386f]
reverse link elki.database.query.rknn.RKNNSearcher to elki.index.tree.metrical.mtreevariants.query.MkTreeRKNNQuery--><g id="link_elki.database.query.rknn.RKNNSearcher_elki.index.tree.metrical.mtreevariants.query.MkTreeRKNNQuery"><path codeLine="17" d="M260,92.22 C260,104.98 260,118.81 260,131.95 " fill="none" id="elki.database.query.rknn.RKNNSearcher-backto-elki.index.tree.metrical.mtreevariants.query.MkTreeRKNNQuery" style="stroke:#181818;stroke-width:1.0;stroke-dasharray:7.0,7.0;"/><polygon fill="none" points="253,92.05,260,72.05,267,92.05,253,92.05" style="stroke:#181818;stroke-width:1.0;"/></g><rect fill="none" height="11.6406" style="stroke:none;stroke-width:1.0;" width="186" x="161" y="257.125"/><text fill="#888888" font-family="sans-serif" font-size="10" lengthAdjust="spacing" textLength="186" x="161" y="266.4072">UMLDoclet 2.0.19, PlantUML 1.2022.8</text><!--MD5=[bbdd671c8f6315700eb241e3323ad1c9]
@startuml
    remove .*\.(Instance|Par|Parameterizer|Factory)$
    set namespaceSeparator none
    hide empty fields
    hide empty methods

    class "<size:14>MkTreeRKNNQuery\n<size:10>elki.index.tree.metrical.mtreevariants.query" as elki.index.tree.metrical.mtreevariants.query.MkTreeRKNNQuery<O> [[MkTreeRKNNQuery.html]] {
        #distanceQuery: DistanceQuery<O>
        #index: AbstractMkTree<O, ?, ?, ?>
        +MkTreeRKNNQuery(AbstractMkTree<O, ?, ?, ?>, DistanceQuery<O>)
        +getRKNN(DBIDRef, int): DoubleDBIDList
    }

    interface "<size:14>RKNNSearcher\n<size:10>elki.database.query.rknn" as elki.database.query.rknn.RKNNSearcher<DBIDRef> [[../../../../../database/query/rknn/RKNNSearcher.html]] {
        {abstract} +getRKNN(DBIDRef, int): DoubleDBIDList
    }

    elki.database.query.rknn.RKNNSearcher <|.. elki.index.tree.metrical.mtreevariants.query.MkTreeRKNNQuery

    center footer UMLDoclet 2.0.19, PlantUML 1.2022.8
@enduml

PlantUML version 1.2022.8(Sun Sep 25 11:00:33 CEST 2022)
(APACHE source distribution)
Java Runtime: OpenJDK Runtime Environment
JVM: OpenJDK 64-Bit Server VM
Default Encoding: UTF-8
Language: de
Country: DE
--></g></svg>