<?xml version="1.0" encoding="UTF-8" standalone="no"?>
<!DOCTYPE svg PUBLIC "-//W3C//DTD SVG 1.1//EN"
 "http://www.w3.org/Graphics/SVG/1.1/DTD/svg11.dtd">
<!-- Generated by graphviz version 2.40.1 (20161225.0304)
 -->
<!-- Title: G Pages: 1 -->
<svg width="689pt" height="162pt"
 viewBox="0.00 0.00 689.00 161.50" xmlns="http://www.w3.org/2000/svg" xmlns:xlink="http://www.w3.org/1999/xlink">
<g id="graph0" class="graph" transform="scale(1 1) rotate(0) translate(4 157.5)">
<title>G</title>
<polygon fill="#ffffff" stroke="transparent" points="-4,4 -4,-157.5 685,-157.5 685,4 -4,4"/>
<!-- c3282940 -->
<g id="node1" class="node">
<title>c3282940</title>
<g id="a_node1"><a xlink:href="../../../index/preprocessed/preference/DiSHPreferenceVectorIndex.html" xlink:title="&lt;TABLE&gt;">
<g id="a_node1_0"><a xlink:href="../../../index/preprocessed/preference/DiSHPreferenceVectorIndex.html" xlink:title="de.lmu.ifi.dbs.elki.index.preprocessed.preference.DiSHPreferenceVectorIndex" target="_parent">
<polygon fill="none" stroke="#000000" points="402.5,-43.5 402.5,-71.5 575.5,-71.5 575.5,-43.5 402.5,-43.5"/>
<text text-anchor="start" x="437.5" y="-62.1" font-family="Roboto" font-size="8.00" fill="#000000"> </text>
<text text-anchor="start" x="440.5" y="-62.1" font-family="Roboto" font-size="8.00" fill="#000000">DiSHPreferenceVectorIndex</text>
<text text-anchor="start" x="537.5" y="-62.1" font-family="Roboto" font-size="8.00" fill="#000000"> </text>
<text text-anchor="start" x="406.5" y="-51.1" font-family="Roboto" font-size="8.00" fill="#000000"> </text>
<text text-anchor="start" x="409.5" y="-51.1" font-family="Roboto" font-size="7.00" fill="#000000">de.lmu.ifi.dbs.elki.index.preprocessed.preference</text>
<text text-anchor="start" x="568.5" y="-51.1" font-family="Roboto" font-size="8.00" fill="#000000"> </text>
</a>
</g>
</a>
</g>
</g>
<!-- c3284091 -->
<g id="node7" class="node">
<title>c3284091</title>
<g id="a_node7"><a xlink:href="../../../data/NumberVector.html" xlink:title="&lt;TABLE&gt;">
<g id="a_node7_1"><a xlink:href="../../../data/NumberVector.html" xlink:title="de.lmu.ifi.dbs.elki.data.NumberVector" target="_parent">
<polygon fill="#fffacd" stroke="transparent" points="594,-24 594,-63 681,-63 681,-24 594,-24"/>
<polygon fill="none" stroke="#000000" points="594.5,-23.5 594.5,-62.5 681.5,-62.5 681.5,-23.5 594.5,-23.5"/>
<text text-anchor="start" x="616.5" y="-52.1" font-family="Roboto" font-size="8.00" fill="#000000"> «interface» </text>
<text text-anchor="start" x="609.5" y="-42.1" font-family="Roboto" font-size="8.00" fill="#000000"> </text>
<text text-anchor="start" x="612.5" y="-42.1" font-family="Roboto" font-size="8.00" fill="#000000">NumberVector</text>
<text text-anchor="start" x="663.5" y="-42.1" font-family="Roboto" font-size="8.00" fill="#000000"> </text>
<text text-anchor="start" x="598.5" y="-31.1" font-family="Roboto" font-size="8.00" fill="#000000"> </text>
<text text-anchor="start" x="601.5" y="-31.1" font-family="Roboto" font-size="7.00" fill="#000000">de.lmu.ifi.dbs.elki.data</text>
<text text-anchor="start" x="674.5" y="-31.1" font-family="Roboto" font-size="8.00" fill="#000000"> </text>
</a>
</g>
</a>
</g>
</g>
<!-- c3282940&#45;&gt;c3284091 -->
<g id="edge8" class="edge">
<title>c3282940&#45;&gt;c3284091</title>
<path fill="none" stroke="#000000" stroke-dasharray="5,2" d="M575.1739,-49.3561C578.0749,-49.0836 580.9505,-48.8134 583.7826,-48.5473"/>
<polygon fill="#000000" stroke="#000000" points="593.8144,-47.6047 584.2793,-53.0205 588.8363,-48.0725 583.8583,-48.5403 583.8583,-48.5403 583.8583,-48.5403 588.8363,-48.0725 583.4372,-44.06 593.8144,-47.6047 593.8144,-47.6047"/>
</g>
<!-- c3282942 -->
<g id="node2" class="node">
<title>c3282942</title>
<g id="a_node2"><a xlink:href="../../../index/preprocessed/preference/DiSHPreferenceVectorIndex.Factory.html" xlink:title="&lt;TABLE&gt;">
<g id="a_node2_2"><a xlink:href="../../../index/preprocessed/preference/DiSHPreferenceVectorIndex.Factory.html" xlink:title="de.lmu.ifi.dbs.elki.index.preprocessed.preference.DiSHPreferenceVectorIndex.Factory" target="_parent">
<polygon fill="none" stroke="#000000" points="190.5,-74.5 190.5,-113.5 363.5,-113.5 363.5,-74.5 190.5,-74.5"/>
<text text-anchor="start" x="258.5" y="-103.1" font-family="Roboto" font-size="8.00" fill="#000000"> «factory» </text>
<text text-anchor="start" x="212" y="-93.1" font-family="Roboto" font-size="8.00" fill="#000000"> </text>
<text text-anchor="start" x="215" y="-93.1" font-family="Roboto" font-size="8.00" fill="#000000">DiSHPreferenceVectorIndex.Factory</text>
<text text-anchor="start" x="339" y="-93.1" font-family="Roboto" font-size="8.00" fill="#000000"> </text>
<text text-anchor="start" x="194.5" y="-82.1" font-family="Roboto" font-size="8.00" fill="#000000"> </text>
<text text-anchor="start" x="197.5" y="-82.1" font-family="Roboto" font-size="7.00" fill="#000000">de.lmu.ifi.dbs.elki.index.preprocessed.preference</text>
<text text-anchor="start" x="356.5" y="-82.1" font-family="Roboto" font-size="8.00" fill="#000000"> </text>
</a>
</g>
</a>
</g>
</g>
<!-- c3282942&#45;&gt;c3282940 -->
<g id="edge1" class="edge">
<title>c3282942&#45;&gt;c3282940</title>
<path fill="none" stroke="#000000" d="M363.0343,-79.3973C374.5462,-77.3882 386.3753,-75.3237 397.953,-73.303"/>
<polygon fill="#000000" stroke="#000000" points="408.0484,-71.5411 398.971,-77.6934 403.1229,-72.4008 398.1973,-73.2605 398.1973,-73.2605 398.1973,-73.2605 403.1229,-72.4008 397.4236,-68.8275 408.0484,-71.5411 408.0484,-71.5411"/>
<text text-anchor="middle" x="382.5" y="-79.9" font-family="Roboto" font-size="7.00" fill="#000000">create</text>
</g>
<!-- c3282942&#45;&gt;c3284091 -->
<g id="edge9" class="edge">
<title>c3282942&#45;&gt;c3284091</title>
<path fill="none" stroke="#000000" stroke-dasharray="5,2" d="M363.013,-98.8533C423.4789,-99.5969 505.5094,-95.9628 575,-76.5 582.6432,-74.3593 590.4144,-71.1934 597.7609,-67.6571"/>
<polygon fill="#000000" stroke="#000000" points="606.7977,-63.0289 599.9484,-71.5927 602.3474,-65.3082 597.897,-67.5874 597.897,-67.5874 597.897,-67.5874 602.3474,-65.3082 595.8457,-63.5821 606.7977,-63.0289 606.7977,-63.0289"/>
</g>
<!-- c3283104 -->
<g id="node3" class="node">
<title>c3283104</title>
<g id="a_node3"><a xlink:href="DiSH.html" xlink:title="&lt;TABLE&gt;">
<g id="a_node3_3"><a xlink:href="DiSH.html" xlink:title="de.lmu.ifi.dbs.elki.algorithm.clustering.subspace.DiSH" target="_parent">
<polygon fill="#fffacd" stroke="transparent" points="138,-49 138,-66 171,-66 171,-49 138,-49"/>
<polygon fill="none" stroke="#000000" points="138.5,-48.5 138.5,-65.5 171.5,-65.5 171.5,-48.5 138.5,-48.5"/>
<text text-anchor="start" x="142.5" y="-56.1" font-family="Roboto" font-size="8.00" fill="#000000"> </text>
<text text-anchor="start" x="145.5" y="-56.1" font-family="Roboto" font-size="8.00" fill="#000000">DiSH</text>
<text text-anchor="start" x="164.5" y="-56.1" font-family="Roboto" font-size="8.00" fill="#000000"> </text>
</a>
</g>
</a>
</g>
</g>
<!-- c3283104&#45;&gt;c3282940 -->
<g id="edge6" class="edge">
<title>c3283104&#45;&gt;c3282940</title>
<path fill="none" stroke="#000000" d="M171.0631,-57.5C212.4606,-57.5 322.7736,-57.5 401.7185,-57.5"/>
</g>
<!-- c3283104&#45;&gt;c3282942 -->
<g id="edge7" class="edge">
<title>c3283104&#45;&gt;c3282942</title>
<path fill="none" stroke="#000000" d="M171.2254,-62.7789C174.1483,-63.6923 177.1614,-64.6282 180,-65.5 186.8981,-67.6185 194.0788,-69.8072 201.2717,-71.9885"/>
<polygon fill="#000000" stroke="#000000" points="211.0626,-74.9512 200.1878,-76.362 206.2769,-73.503 201.4912,-72.0549 201.4912,-72.0549 201.4912,-72.0549 206.2769,-73.503 202.7945,-67.7477 211.0626,-74.9512 211.0626,-74.9512"/>
</g>
<!-- c3283107 -->
<g id="node4" class="node">
<title>c3283107</title>
<g id="a_node4"><a xlink:href="DiSH.DiSHClusterOrder.html" xlink:title="&lt;TABLE&gt;">
<g id="a_node4_4"><a xlink:href="DiSH.DiSHClusterOrder.html" xlink:title="de.lmu.ifi.dbs.elki.algorithm.clustering.subspace.DiSH.DiSHClusterOrder" target="_parent">
<polygon fill="none" stroke="#000000" points="227.5,.5 227.5,-16.5 326.5,-16.5 326.5,.5 227.5,.5"/>
<text text-anchor="start" x="231.5" y="-7.1" font-family="Roboto" font-size="8.00" fill="#000000"> </text>
<text text-anchor="start" x="234.5" y="-7.1" font-family="Roboto" font-size="8.00" fill="#000000">DiSH.DiSHClusterOrder</text>
<text text-anchor="start" x="319.5" y="-7.1" font-family="Roboto" font-size="8.00" fill="#000000"> </text>
</a>
</g>
</a>
</g>
</g>
<!-- c3283104&#45;&gt;c3283107 -->
<g id="edge5" class="edge">
<title>c3283104&#45;&gt;c3283107</title>
<path fill="none" stroke="#000000" d="M166.8074,-39.0622C170.559,-34.6707 175.0247,-30.4175 180,-27.5 193.993,-19.2946 210.8896,-14.5627 226.6079,-11.8562"/>
<polygon fill="none" stroke="#000000" points="166.5903,-39.3553 166.232,-46.5575 159.4459,-48.9968 159.8043,-41.7946 166.5903,-39.3553"/>
</g>
<!-- c3283510 -->
<g id="node5" class="node">
<title>c3283510</title>
<g id="a_node5"><a xlink:href="../../../data/model/SubspaceModel.html" xlink:title="&lt;TABLE&gt;">
<g id="a_node5_5"><a xlink:href="../../../data/model/SubspaceModel.html" xlink:title="de.lmu.ifi.dbs.elki.data.model.SubspaceModel" target="_parent">
<polygon fill="none" stroke="#000000" points="222.5,-125.5 222.5,-153.5 330.5,-153.5 330.5,-125.5 222.5,-125.5"/>
<text text-anchor="start" x="245.5" y="-144.1" font-family="Roboto" font-size="8.00" fill="#000000"> </text>
<text text-anchor="start" x="248.5" y="-144.1" font-family="Roboto" font-size="8.00" fill="#000000">SubspaceModel</text>
<text text-anchor="start" x="304.5" y="-144.1" font-family="Roboto" font-size="8.00" fill="#000000"> </text>
<text text-anchor="start" x="226.5" y="-133.1" font-family="Roboto" font-size="8.00" fill="#000000"> </text>
<text text-anchor="start" x="229.5" y="-133.1" font-family="Roboto" font-size="7.00" fill="#000000">de.lmu.ifi.dbs.elki.data.model</text>
<text text-anchor="start" x="323.5" y="-133.1" font-family="Roboto" font-size="8.00" fill="#000000"> </text>
</a>
</g>
</a>
</g>
</g>
<!-- c3283104&#45;&gt;c3283510 -->
<g id="edge4" class="edge">
<title>c3283104&#45;&gt;c3283510</title>
<path fill="none" stroke="#000000" d="M168.806,-76.0453C169.5713,-77.1987 170.3087,-78.3558 171,-79.5 181.1775,-96.3457 174.6627,-107.1661 190,-119.5 199.2488,-126.9377 210.7595,-131.7105 222.3346,-134.7487"/>
<polygon fill="none" stroke="#000000" points="168.7139,-75.9183 161.952,-73.4128 161.6641,-66.2074 168.426,-68.7129 168.7139,-75.9183"/>
</g>
<!-- c3283104&#45;&gt;c3284091 -->
<g id="edge10" class="edge">
<title>c3283104&#45;&gt;c3284091</title>
<path fill="none" stroke="#000000" stroke-dasharray="5,2" d="M171.2771,-55.6742C211.1947,-51.4331 314.991,-41.0098 402,-37.5 478.8264,-34.401 498.1991,-33.822 575,-37.5 577.8581,-37.6369 580.7873,-37.8088 583.7428,-38.0071"/>
<polygon fill="#000000" stroke="#000000" points="593.8283,-38.7704 583.5171,-42.5028 588.8425,-38.393 583.8568,-38.0156 583.8568,-38.0156 583.8568,-38.0156 588.8425,-38.393 584.1965,-33.5284 593.8283,-38.7704 593.8283,-38.7704"/>
</g>
<!-- c3283844 -->
<g id="node6" class="node">
<title>c3283844</title>
<g id="a_node6"><a xlink:href="SubspaceClusteringAlgorithm.html" xlink:title="&lt;TABLE&gt;">
<g id="a_node6_6"><a xlink:href="SubspaceClusteringAlgorithm.html" xlink:title="de.lmu.ifi.dbs.elki.algorithm.clustering.subspace.SubspaceClusteringAlgorithm" target="_parent">
<polygon fill="none" stroke="#000000" points=".5,-110.5 .5,-138.5 119.5,-138.5 119.5,-110.5 .5,-110.5"/>
<text text-anchor="start" x="38.5" y="-128.1" font-family="Roboto" font-size="8.00" fill="#000000"> «interface» </text>
<text text-anchor="start" x="4.5" y="-118.1" font-family="Roboto" font-size="8.00" fill="#000000"> </text>
<text text-anchor="start" x="7.5" y="-118.1" font-family="Roboto" font-size="8.00" fill="#000000">SubspaceClusteringAlgorithm</text>
<text text-anchor="start" x="112.5" y="-118.1" font-family="Roboto" font-size="8.00" fill="#000000"> </text>
</a>
</g>
</a>
</g>
</g>
<!-- c3283844&#45;&gt;c3283104 -->
<g id="edge3" class="edge">
<title>c3283844&#45;&gt;c3283104</title>
<path fill="none" stroke="#000000" stroke-dasharray="5,2" d="M118.1478,-105.1031C118.434,-104.904 118.7181,-104.703 119,-104.5 119.4823,-104.1527 138.004,-79.4991 148.0969,-66.0426"/>
<polygon fill="none" stroke="#000000" points="116.1443,-102.2227 109.3467,-110.3494 119.7285,-108.2355 116.1443,-102.2227"/>
</g>
<!-- c3283844&#45;&gt;c3283510 -->
<g id="edge11" class="edge">
<title>c3283844&#45;&gt;c3283510</title>
<path fill="none" stroke="#000000" stroke-dasharray="5,2" d="M119.0832,-128.6187C147.9281,-130.6125 182.6067,-133.0097 212.0647,-135.0459"/>
<polygon fill="#000000" stroke="#000000" points="222.2486,-135.7499 211.962,-139.5495 217.2605,-135.4051 212.2724,-135.0602 212.2724,-135.0602 212.2724,-135.0602 217.2605,-135.4051 212.5827,-130.5709 222.2486,-135.7499 222.2486,-135.7499"/>
</g>
<!-- c3284113 -->
<g id="node8" class="node">
<title>c3284113</title>
<g id="a_node8"><a xlink:href="../../AbstractAlgorithm.html" xlink:title="&lt;TABLE&gt;">
<g id="a_node8_7"><a xlink:href="../../AbstractAlgorithm.html" xlink:title="de.lmu.ifi.dbs.elki.algorithm.AbstractAlgorithm" target="_parent">
<polygon fill="#fffacd" stroke="transparent" points="7,-15.5 7,-99.5 112,-99.5 112,-15.5 7,-15.5"/>
<polygon fill="none" stroke="#000000" points="7.5,-71.5 7.5,-99.5 112.5,-99.5 112.5,-71.5 7.5,-71.5"/>
<text text-anchor="start" x="24.5" y="-90.1" font-family="Roboto" font-size="8.00" fill="#000000"> </text>
<text text-anchor="start" x="27.5" y="-90.1" font-family="Roboto" font-style="italic" font-size="8.00" fill="#000000">AbstractAlgorithm</text>
<text text-anchor="start" x="92.5" y="-90.1" font-family="Roboto" font-size="8.00" fill="#000000"> </text>
<text text-anchor="start" x="11.5" y="-79.1" font-family="Roboto" font-size="8.00" fill="#000000"> </text>
<text text-anchor="start" x="14.5" y="-79.1" font-family="Roboto" font-size="7.00" fill="#000000">de.lmu.ifi.dbs.elki.algorithm</text>
<text text-anchor="start" x="105.5" y="-79.1" font-family="Roboto" font-size="8.00" fill="#000000"> </text>
<polygon fill="none" stroke="#000000" points="7.5,-54.5 7.5,-71.5 112.5,-71.5 112.5,-54.5 7.5,-54.5"/>
<text text-anchor="start" x="11.5" y="-61.1" font-family="Roboto" font-size="8.00" fill="#000000"> &#160;</text>
<polygon fill="none" stroke="#000000" points="7.5,-15.5 7.5,-54.5 112.5,-54.5 112.5,-15.5 7.5,-15.5"/>
<text text-anchor="start" x="11.5" y="-44.1" font-family="Roboto" font-size="8.00" fill="#000000"> &#160;run() </text>
<text text-anchor="start" x="11.5" y="-34.1" font-family="Roboto" font-size="8.00" fill="#000000"> </text>
<text text-anchor="start" x="14.5" y="-34.1" font-family="Roboto" font-style="italic" font-size="8.00" fill="#000000"> getInputTypeRestriction()</text>
<text text-anchor="start" x="105.5" y="-34.1" font-family="Roboto" font-size="8.00" fill="#000000"> </text>
<text text-anchor="start" x="11.5" y="-23.1" font-family="Roboto" font-size="8.00" fill="#000000"> </text>
<text text-anchor="start" x="14.5" y="-23.1" font-family="Roboto" font-style="italic" font-size="8.00" fill="#000000"> getLogger()</text>
<text text-anchor="start" x="58.5" y="-23.1" font-family="Roboto" font-size="8.00" fill="#000000"> </text>
</a>
</g>
</a>
</g>
</g>
<!-- c3284113&#45;&gt;c3283104 -->
<g id="edge2" class="edge">
<title>c3284113&#45;&gt;c3283104</title>
<path fill="none" stroke="#000000" d="M122.2452,-57.5C127.7919,-57.5 133.0284,-57.5 137.6049,-57.5"/>
<polygon fill="none" stroke="#000000" points="122.0015,-54.0001 112.0015,-57.5 122.0015,-61.0001 122.0015,-54.0001"/>
</g>
</g>
</svg>
