<?xml version="1.0" encoding="UTF-8" standalone="no"?>
<!DOCTYPE svg PUBLIC "-//W3C//DTD SVG 1.1//EN"
 "http://www.w3.org/Graphics/SVG/1.1/DTD/svg11.dtd">
<!-- Generated by graphviz version 2.40.1 (20161225.0304)
 -->
<!-- Title: G Pages: 1 -->
<svg width="437pt" height="97pt"
 viewBox="0.00 0.00 437.00 97.00" xmlns="http://www.w3.org/2000/svg" xmlns:xlink="http://www.w3.org/1999/xlink">
<g id="graph0" class="graph" transform="scale(1 1) rotate(0) translate(4 93)">
<title>G</title>
<polygon fill="#ffffff" stroke="transparent" points="-4,4 -4,-93 433,-93 433,4 -4,4"/>
<!-- c2283282 -->
<g id="node1" class="node">
<title>c2283282</title>
<g id="a_node1"><a xlink:href="../../distance/distancefunction/DistanceFunction.html" xlink:title="&lt;TABLE&gt;">
<g id="a_node1_0"><a xlink:href="../../distance/distancefunction/DistanceFunction.html" xlink:title="de.lmu.ifi.dbs.elki.distance.distancefunction.DistanceFunction" target="_parent">
<polygon fill="#fffacd" stroke="transparent" points="271,-50 271,-89 429,-89 429,-50 271,-50"/>
<polygon fill="none" stroke="#000000" points="271,-49.5 271,-88.5 429,-88.5 429,-49.5 271,-49.5"/>
<text text-anchor="start" x="328.5" y="-78.1" font-family="Roboto" font-size="8.00" fill="#000000"> «interface» </text>
<text text-anchor="start" x="316.5" y="-68.1" font-family="Roboto" font-size="8.00" fill="#000000"> </text>
<text text-anchor="start" x="319.5" y="-68.1" font-family="Roboto" font-size="8.00" fill="#000000">DistanceFunction</text>
<text text-anchor="start" x="380.5" y="-68.1" font-family="Roboto" font-size="8.00" fill="#000000"> </text>
<text text-anchor="start" x="275" y="-57.1" font-family="Roboto" font-size="8.00" fill="#000000"> </text>
<text text-anchor="start" x="278" y="-57.1" font-family="Roboto" font-size="7.00" fill="#000000">de.lmu.ifi.dbs.elki.distance.distancefunction</text>
<text text-anchor="start" x="422" y="-57.1" font-family="Roboto" font-size="8.00" fill="#000000"> </text>
</a>
</g>
</a>
</g>
</g>
<!-- c2283324 -->
<g id="node2" class="node">
<title>c2283324</title>
<g id="a_node2"><a xlink:href="../../database/Database.html" xlink:title="&lt;TABLE&gt;">
<g id="a_node2_1"><a xlink:href="../../database/Database.html" xlink:title="de.lmu.ifi.dbs.elki.database.Database" target="_parent">
<polygon fill="#fffacd" stroke="transparent" points="299,0 299,-39 401,-39 401,0 299,0"/>
<polygon fill="none" stroke="#000000" points="299,.5 299,-38.5 401,-38.5 401,.5 299,.5"/>
<text text-anchor="start" x="328.5" y="-28.1" font-family="Roboto" font-size="8.00" fill="#000000"> «interface» </text>
<text text-anchor="start" x="330" y="-18.1" font-family="Roboto" font-size="8.00" fill="#000000"> </text>
<text text-anchor="start" x="333" y="-18.1" font-family="Roboto" font-size="8.00" fill="#000000">Database</text>
<text text-anchor="start" x="367" y="-18.1" font-family="Roboto" font-size="8.00" fill="#000000"> </text>
<text text-anchor="start" x="303" y="-7.1" font-family="Roboto" font-size="8.00" fill="#000000"> </text>
<text text-anchor="start" x="306" y="-7.1" font-family="Roboto" font-size="7.00" fill="#000000">de.lmu.ifi.dbs.elki.database</text>
<text text-anchor="start" x="394" y="-7.1" font-family="Roboto" font-size="8.00" fill="#000000"> </text>
</a>
</g>
</a>
</g>
</g>
<!-- c2283326 -->
<g id="node3" class="node">
<title>c2283326</title>
<g id="a_node3"><a xlink:href="../AbstractApplication.html" xlink:title="&lt;TABLE&gt;">
<g id="a_node3_2"><a xlink:href="../AbstractApplication.html" xlink:title="de.lmu.ifi.dbs.elki.application.AbstractApplication" target="_parent">
<polygon fill="none" stroke="#000000" points=".5,-55.5 .5,-83.5 109.5,-83.5 109.5,-55.5 .5,-55.5"/>
<text text-anchor="start" x="17" y="-74.1" font-family="Roboto" font-size="8.00" fill="#000000"> </text>
<text text-anchor="start" x="20" y="-74.1" font-family="Roboto" font-style="italic" font-size="8.00" fill="#000000">AbstractApplication</text>
<text text-anchor="start" x="90" y="-74.1" font-family="Roboto" font-size="8.00" fill="#000000"> </text>
<text text-anchor="start" x="4.5" y="-63.1" font-family="Roboto" font-size="8.00" fill="#000000"> </text>
<text text-anchor="start" x="7.5" y="-63.1" font-family="Roboto" font-size="7.00" fill="#000000">de.lmu.ifi.dbs.elki.application</text>
<text text-anchor="start" x="102.5" y="-63.1" font-family="Roboto" font-size="8.00" fill="#000000"> </text>
</a>
</g>
</a>
</g>
</g>
<!-- c2285304 -->
<g id="node4" class="node">
<title>c2285304</title>
<g id="a_node4"><a xlink:href="CacheDoubleDistanceKNNLists.html" xlink:title="&lt;TABLE&gt;">
<g id="a_node4_3"><a xlink:href="CacheDoubleDistanceKNNLists.html" xlink:title="de.lmu.ifi.dbs.elki.application.cache.CacheDoubleDistanceKNNLists" target="_parent">
<polygon fill="#fffacd" stroke="transparent" points="127,-61 127,-78 253,-78 253,-61 127,-61"/>
<polygon fill="none" stroke="#000000" points="127,-60.5 127,-77.5 253,-77.5 253,-60.5 127,-60.5"/>
<text text-anchor="start" x="131" y="-68.1" font-family="Roboto" font-size="8.00" fill="#000000"> </text>
<text text-anchor="start" x="134" y="-68.1" font-family="Roboto" font-size="8.00" fill="#000000">CacheDoubleDistanceKNNLists</text>
<text text-anchor="start" x="246" y="-68.1" font-family="Roboto" font-size="8.00" fill="#000000"> </text>
</a>
</g>
</a>
</g>
</g>
<!-- c2283326&#45;&gt;c2285304 -->
<g id="edge1" class="edge">
<title>c2283326&#45;&gt;c2285304</title>
<path fill="none" stroke="#000000" d="M119.255,-69.5C121.7107,-69.5 124.1716,-69.5 126.6248,-69.5"/>
<polygon fill="none" stroke="#000000" points="119.2225,-66.0001 109.2225,-69.5 119.2224,-73.0001 119.2225,-66.0001"/>
</g>
<!-- c2285304&#45;&gt;c2283282 -->
<g id="edge2" class="edge">
<title>c2285304&#45;&gt;c2283282</title>
<path fill="none" stroke="#000000" d="M265.2578,-69.5C267.0928,-69.5 268.9312,-69.5 270.769,-69.5"/>
<polygon fill="none" stroke="#000000" points="265.2362,-69.5001 259.2362,-73.5 253.2362,-69.5 259.2363,-65.5 265.2362,-69.5001"/>
</g>
<!-- c2285304&#45;&gt;c2283324 -->
<g id="edge3" class="edge">
<title>c2285304&#45;&gt;c2283324</title>
<path fill="none" stroke="#000000" d="M217.505,-60.9047C237.2244,-54.7424 264.5627,-46.1992 289.2872,-38.4727"/>
<polygon fill="#000000" stroke="#000000" points="298.9712,-35.4465 290.7687,-42.7245 294.1988,-36.9379 289.4264,-38.4293 289.4264,-38.4293 289.4264,-38.4293 294.1988,-36.9379 288.0841,-34.1342 298.9712,-35.4465 298.9712,-35.4465"/>
</g>
</g>
</svg>
