<?xml version="1.0" encoding="UTF-8" standalone="no"?>
<!DOCTYPE svg PUBLIC "-//W3C//DTD SVG 1.1//EN"
 "http://www.w3.org/Graphics/SVG/1.1/DTD/svg11.dtd">
<!-- Generated by graphviz version 2.40.1 (20161225.0304)
 -->
<!-- Title: G Pages: 1 -->
<svg width="175pt" height="36pt"
 viewBox="0.00 0.00 175.00 36.00" xmlns="http://www.w3.org/2000/svg" xmlns:xlink="http://www.w3.org/1999/xlink">
<g id="graph0" class="graph" transform="scale(1 1) rotate(0) translate(4 32)">
<title>G</title>
<polygon fill="#ffffff" stroke="transparent" points="-4,4 -4,-32 171,-32 171,4 -4,4"/>
<!-- c7174079 -->
<g id="node1" class="node">
<title>c7174079</title>
<g id="a_node1"><a xlink:href="MultipleFilesOutput.html" xlink:title="&lt;TABLE&gt;">
<g id="a_node1_0"><a xlink:href="MultipleFilesOutput.html" xlink:title="de.lmu.ifi.dbs.elki.result.textwriter.MultipleFilesOutput" target="_parent">
<polygon fill="#fffacd" stroke="transparent" points="83,-5.5 83,-22.5 167,-22.5 167,-5.5 83,-5.5"/>
<polygon fill="none" stroke="#000000" points="83,-5 83,-22 167,-22 167,-5 83,-5"/>
<text text-anchor="start" x="87" y="-12.6" font-family="Roboto" font-size="8.00" fill="#000000"> </text>
<text text-anchor="start" x="90" y="-12.6" font-family="Roboto" font-size="8.00" fill="#000000">MultipleFilesOutput</text>
<text text-anchor="start" x="160" y="-12.6" font-family="Roboto" font-size="8.00" fill="#000000"> </text>
</a>
</g>
</a>
</g>
</g>
<!-- c7175080 -->
<g id="node2" class="node">
<title>c7175080</title>
<g id="a_node2"><a xlink:href="StreamFactory.html" xlink:title="&lt;TABLE&gt;">
<g id="a_node2_1"><a xlink:href="StreamFactory.html" xlink:title="de.lmu.ifi.dbs.elki.result.textwriter.StreamFactory" target="_parent">
<polygon fill="none" stroke="#000000" points=".5,0 .5,-28 65.5,-28 65.5,0 .5,0"/>
<text text-anchor="start" x="11.5" y="-17.6" font-family="Roboto" font-size="8.00" fill="#000000"> «interface» </text>
<text text-anchor="start" x="4.5" y="-7.6" font-family="Roboto" font-size="8.00" fill="#000000"> </text>
<text text-anchor="start" x="7.5" y="-7.6" font-family="Roboto" font-size="8.00" fill="#000000">StreamFactory</text>
<text text-anchor="start" x="58.5" y="-7.6" font-family="Roboto" font-size="8.00" fill="#000000"> </text>
</a>
</g>
</a>
</g>
</g>
<!-- c7175080&#45;&gt;c7174079 -->
<g id="edge1" class="edge">
<title>c7175080&#45;&gt;c7174079</title>
<path fill="none" stroke="#000000" stroke-dasharray="5,2" d="M75.2656,-14C77.7728,-14 80.2937,-14 82.7987,-14"/>
<polygon fill="none" stroke="#000000" points="75.1121,-10.5001 65.112,-14 75.112,-17.5001 75.1121,-10.5001"/>
</g>
</g>
</svg>
