<?xml version="1.0" encoding="UTF-8" standalone="no"?>
<!DOCTYPE svg PUBLIC "-//W3C//DTD SVG 1.1//EN"
 "http://www.w3.org/Graphics/SVG/1.1/DTD/svg11.dtd">
<!-- Generated by graphviz version 2.40.1 (20161225.0304)
 -->
<!-- Title: G Pages: 1 -->
<svg width="332pt" height="81pt"
 viewBox="0.00 0.00 332.00 81.00" xmlns="http://www.w3.org/2000/svg" xmlns:xlink="http://www.w3.org/1999/xlink">
<g id="graph0" class="graph" transform="scale(1 1) rotate(0) translate(4 77)">
<title>G</title>
<polygon fill="#ffffff" stroke="transparent" points="-4,4 -4,-77 328,-77 328,4 -4,4"/>
<!-- c1220718 -->
<g id="node1" class="node">
<title>c1220718</title>
<g id="a_node1"><a xlink:href="PersistentPageFileFactory.html" xlink:title="&lt;TABLE&gt;">
<g id="a_node1_0"><a xlink:href="PersistentPageFileFactory.html" xlink:title="de.lmu.ifi.dbs.elki.persistent.PersistentPageFileFactory" target="_parent">
<polygon fill="none" stroke="#000000" points="213.5,-55.5 213.5,-72.5 317.5,-72.5 317.5,-55.5 213.5,-55.5"/>
<text text-anchor="start" x="217.5" y="-63.1" font-family="Roboto" font-size="8.00" fill="#000000"> </text>
<text text-anchor="start" x="220.5" y="-63.1" font-family="Roboto" font-size="8.00" fill="#000000">PersistentPageFileFactory</text>
<text text-anchor="start" x="310.5" y="-63.1" font-family="Roboto" font-size="8.00" fill="#000000"> </text>
</a>
</g>
</a>
</g>
</g>
<!-- c1220720 -->
<g id="node2" class="node">
<title>c1220720</title>
<g id="a_node2"><a xlink:href="OnDiskArrayPageFileFactory.html" xlink:title="&lt;TABLE&gt;">
<g id="a_node2_1"><a xlink:href="OnDiskArrayPageFileFactory.html" xlink:title="de.lmu.ifi.dbs.elki.persistent.OnDiskArrayPageFileFactory" target="_parent">
<polygon fill="none" stroke="#000000" points="207.5,-27.5 207.5,-44.5 324.5,-44.5 324.5,-27.5 207.5,-27.5"/>
<text text-anchor="start" x="211.5" y="-35.1" font-family="Roboto" font-size="8.00" fill="#000000"> </text>
<text text-anchor="start" x="214.5" y="-35.1" font-family="Roboto" font-size="8.00" fill="#000000">OnDiskArrayPageFileFactory</text>
<text text-anchor="start" x="317.5" y="-35.1" font-family="Roboto" font-size="8.00" fill="#000000"> </text>
</a>
</g>
</a>
</g>
</g>
<!-- c1223753 -->
<g id="node3" class="node">
<title>c1223753</title>
<g id="a_node3"><a xlink:href="AbstractPageFileFactory.html" xlink:title="&lt;TABLE&gt;">
<g id="a_node3_2"><a xlink:href="AbstractPageFileFactory.html" xlink:title="de.lmu.ifi.dbs.elki.persistent.AbstractPageFileFactory" target="_parent">
<polygon fill="#fffacd" stroke="transparent" points="88,-28 88,-45 189,-45 189,-28 88,-28"/>
<polygon fill="none" stroke="#000000" points="88.5,-27.5 88.5,-44.5 189.5,-44.5 189.5,-27.5 88.5,-27.5"/>
<text text-anchor="start" x="92.5" y="-35.1" font-family="Roboto" font-size="8.00" fill="#000000"> </text>
<text text-anchor="start" x="95.5" y="-35.1" font-family="Roboto" font-style="italic" font-size="8.00" fill="#000000">AbstractPageFileFactory</text>
<text text-anchor="start" x="182.5" y="-35.1" font-family="Roboto" font-size="8.00" fill="#000000"> </text>
</a>
</g>
</a>
</g>
</g>
<!-- c1223753&#45;&gt;c1220718 -->
<g id="edge1" class="edge">
<title>c1223753&#45;&gt;c1220718</title>
<path fill="none" stroke="#000000" d="M187.1529,-47.2266C200.3282,-50.1314 214.4068,-53.2354 226.9433,-55.9993"/>
<polygon fill="none" stroke="#000000" points="187.8133,-43.7882 177.2943,-45.0531 186.3062,-50.6241 187.8133,-43.7882"/>
</g>
<!-- c1223753&#45;&gt;c1220720 -->
<g id="edge2" class="edge">
<title>c1223753&#45;&gt;c1220720</title>
<path fill="none" stroke="#000000" d="M199.2478,-36.5C201.7437,-36.5 204.2453,-36.5 206.7371,-36.5"/>
<polygon fill="none" stroke="#000000" points="199.0587,-33.0001 189.0587,-36.5 199.0586,-40.0001 199.0587,-33.0001"/>
</g>
<!-- c1223755 -->
<g id="node4" class="node">
<title>c1223755</title>
<g id="a_node4"><a xlink:href="MemoryPageFileFactory.html" xlink:title="&lt;TABLE&gt;">
<g id="a_node4_3"><a xlink:href="MemoryPageFileFactory.html" xlink:title="de.lmu.ifi.dbs.elki.persistent.MemoryPageFileFactory" target="_parent">
<polygon fill="none" stroke="#000000" points="216.5,.5 216.5,-16.5 315.5,-16.5 315.5,.5 216.5,.5"/>
<text text-anchor="start" x="220.5" y="-7.1" font-family="Roboto" font-size="8.00" fill="#000000"> </text>
<text text-anchor="start" x="223.5" y="-7.1" font-family="Roboto" font-size="8.00" fill="#000000">MemoryPageFileFactory</text>
<text text-anchor="start" x="308.5" y="-7.1" font-family="Roboto" font-size="8.00" fill="#000000"> </text>
</a>
</g>
</a>
</g>
</g>
<!-- c1223753&#45;&gt;c1223755 -->
<g id="edge4" class="edge">
<title>c1223753&#45;&gt;c1223755</title>
<path fill="none" stroke="#000000" d="M187.1529,-25.7734C200.3282,-22.8686 214.4068,-19.7646 226.9433,-17.0007"/>
<polygon fill="none" stroke="#000000" points="186.3062,-22.3759 177.2943,-27.9469 187.8133,-29.2118 186.3062,-22.3759"/>
</g>
<!-- c1223757 -->
<g id="node5" class="node">
<title>c1223757</title>
<g id="a_node5"><a xlink:href="PageFileFactory.html" xlink:title="&lt;TABLE&gt;">
<g id="a_node5_4"><a xlink:href="PageFileFactory.html" xlink:title="de.lmu.ifi.dbs.elki.persistent.PageFileFactory" target="_parent">
<polygon fill="none" stroke="#000000" points="0,-22.5 0,-50.5 70,-50.5 70,-22.5 0,-22.5"/>
<text text-anchor="start" x="13.5" y="-40.1" font-family="Roboto" font-size="8.00" fill="#000000"> «interface» </text>
<text text-anchor="start" x="4" y="-30.1" font-family="Roboto" font-size="8.00" fill="#000000"> </text>
<text text-anchor="start" x="7" y="-30.1" font-family="Roboto" font-size="8.00" fill="#000000">PageFileFactory</text>
<text text-anchor="start" x="63" y="-30.1" font-family="Roboto" font-size="8.00" fill="#000000"> </text>
</a>
</g>
</a>
</g>
</g>
<!-- c1223757&#45;&gt;c1223753 -->
<g id="edge3" class="edge">
<title>c1223757&#45;&gt;c1223753</title>
<path fill="none" stroke="#000000" stroke-dasharray="5,2" d="M80.2535,-36.5C82.7821,-36.5 85.3316,-36.5 87.8775,-36.5"/>
<polygon fill="none" stroke="#000000" points="80.0404,-33.0001 70.0404,-36.5 80.0403,-40.0001 80.0404,-33.0001"/>
</g>
</g>
</svg>
