<?xml version="1.0" encoding="UTF-8" standalone="no"?>
<!DOCTYPE svg PUBLIC "-//W3C//DTD SVG 1.1//EN"
 "http://www.w3.org/Graphics/SVG/1.1/DTD/svg11.dtd">
<!-- Generated by graphviz version 2.40.1 (20161225.0304)
 -->
<!-- Title: G Pages: 1 -->
<svg width="283pt" height="59pt"
 viewBox="0.00 0.00 283.00 58.50" xmlns="http://www.w3.org/2000/svg" xmlns:xlink="http://www.w3.org/1999/xlink">
<g id="graph0" class="graph" transform="scale(1 1) rotate(0) translate(4 54.5)">
<title>G</title>
<polygon fill="#ffffff" stroke="transparent" points="-4,4 -4,-54.5 279,-54.5 279,4 -4,4"/>
<!-- c8168450 -->
<g id="node1" class="node">
<title>c8168450</title>
<g id="a_node1"><a xlink:href="PersistentPageFileFactory.html" xlink:title="&lt;TABLE&gt;">
<g id="a_node1_0"><a xlink:href="PersistentPageFileFactory.html" xlink:title="de.lmu.ifi.dbs.elki.persistent.PersistentPageFileFactory" target="_parent">
<polygon fill="none" stroke="#000000" points="0,-33 0,-50 104,-50 104,-33 0,-33"/>
<text text-anchor="start" x="4" y="-40.6" font-family="Roboto" font-size="8.00" fill="#000000"> </text>
<text text-anchor="start" x="7" y="-40.6" font-family="Roboto" font-size="8.00" fill="#000000">PersistentPageFileFactory</text>
<text text-anchor="start" x="97" y="-40.6" font-family="Roboto" font-size="8.00" fill="#000000"> </text>
</a>
</g>
</a>
</g>
</g>
<!-- c8168454 -->
<g id="node2" class="node">
<title>c8168454</title>
<g id="a_node2"><a xlink:href="PersistentPageFile.html" xlink:title="&lt;TABLE&gt;">
<g id="a_node2_1"><a xlink:href="PersistentPageFile.html" xlink:title="de.lmu.ifi.dbs.elki.persistent.PersistentPageFile" target="_parent">
<polygon fill="#fffacd" stroke="transparent" points="122,-5.5 122,-22.5 200,-22.5 200,-5.5 122,-5.5"/>
<polygon fill="none" stroke="#000000" points="122,-5 122,-22 200,-22 200,-5 122,-5"/>
<text text-anchor="start" x="126" y="-12.6" font-family="Roboto" font-size="8.00" fill="#000000"> </text>
<text text-anchor="start" x="129" y="-12.6" font-family="Roboto" font-size="8.00" fill="#000000">PersistentPageFile</text>
<text text-anchor="start" x="193" y="-12.6" font-family="Roboto" font-size="8.00" fill="#000000"> </text>
</a>
</g>
</a>
</g>
</g>
<!-- c8168450&#45;&gt;c8168454 -->
<g id="edge1" class="edge">
<title>c8168450&#45;&gt;c8168454</title>
<path fill="none" stroke="#000000" d="M97.1034,-30.4138C107.4217,-27.7632 118.2033,-24.9937 127.908,-22.5007"/>
<polygon fill="none" stroke="#000000" points="96.9185,-30.4612 92.1024,-35.8283 85.2959,-33.4469 90.112,-28.0799 96.9185,-30.4612"/>
</g>
<!-- c8171481 -->
<g id="node4" class="node">
<title>c8171481</title>
<g id="a_node4"><a xlink:href="PageHeader.html" xlink:title="&lt;TABLE&gt;">
<g id="a_node4_2"><a xlink:href="PageHeader.html" xlink:title="de.lmu.ifi.dbs.elki.persistent.PageHeader" target="_parent">
<polygon fill="none" stroke="#000000" points="218.5,0 218.5,-28 275.5,-28 275.5,0 218.5,0"/>
<text text-anchor="start" x="225.5" y="-17.6" font-family="Roboto" font-size="8.00" fill="#000000"> «interface» </text>
<text text-anchor="start" x="222.5" y="-7.6" font-family="Roboto" font-size="8.00" fill="#000000"> </text>
<text text-anchor="start" x="225.5" y="-7.6" font-family="Roboto" font-size="8.00" fill="#000000">PageHeader</text>
<text text-anchor="start" x="268.5" y="-7.6" font-family="Roboto" font-size="8.00" fill="#000000"> </text>
</a>
</g>
</a>
</g>
</g>
<!-- c8168454&#45;&gt;c8171481 -->
<g id="edge3" class="edge">
<title>c8168454&#45;&gt;c8171481</title>
<path fill="none" stroke="#000000" d="M212.2623,-14C214.1921,-14 216.0979,-14 217.9629,-14"/>
<polygon fill="#000000" stroke="#000000" points="212.2467,-14.0001 206.2466,-18 200.2467,-14 206.2467,-10 212.2467,-14.0001"/>
</g>
<!-- c8171478 -->
<g id="node3" class="node">
<title>c8171478</title>
<g id="a_node3"><a xlink:href="AbstractStoringPageFile.html" xlink:title="&lt;TABLE&gt;">
<g id="a_node3_3"><a xlink:href="AbstractStoringPageFile.html" xlink:title="de.lmu.ifi.dbs.elki.persistent.AbstractStoringPageFile" target="_parent">
<polygon fill="none" stroke="#000000" points="2,-5 2,-22 102,-22 102,-5 2,-5"/>
<text text-anchor="start" x="6" y="-12.6" font-family="Roboto" font-size="8.00" fill="#000000"> </text>
<text text-anchor="start" x="9" y="-12.6" font-family="Roboto" font-style="italic" font-size="8.00" fill="#000000">AbstractStoringPageFile</text>
<text text-anchor="start" x="95" y="-12.6" font-family="Roboto" font-size="8.00" fill="#000000"> </text>
</a>
</g>
</a>
</g>
</g>
<!-- c8171478&#45;&gt;c8168454 -->
<g id="edge2" class="edge">
<title>c8171478&#45;&gt;c8168454</title>
<path fill="none" stroke="#000000" d="M112.2658,-14C115.4581,-14 118.6238,-14 121.7183,-14"/>
<polygon fill="none" stroke="#000000" points="112.0338,-10.5001 102.0338,-14 112.0337,-17.5001 112.0338,-10.5001"/>
</g>
</g>
</svg>
