<?xml version="1.0" encoding="UTF-8" standalone="no"?>
<!DOCTYPE svg PUBLIC "-//W3C//DTD SVG 1.1//EN"
 "http://www.w3.org/Graphics/SVG/1.1/DTD/svg11.dtd">
<!-- Generated by graphviz version 2.40.1 (20161225.0304)
 -->
<!-- Title: G Pages: 1 -->
<svg width="374pt" height="71pt"
 viewBox="0.00 0.00 374.00 71.00" xmlns="http://www.w3.org/2000/svg" xmlns:xlink="http://www.w3.org/1999/xlink">
<g id="graph0" class="graph" transform="scale(1 1) rotate(0) translate(4 67)">
<title>G</title>
<polygon fill="#ffffff" stroke="transparent" points="-4,4 -4,-67 370,-67 370,4 -4,4"/>
<!-- c7167843 -->
<g id="node1" class="node">
<title>c7167843</title>
<g id="a_node1"><a xlink:href="MultidimensionalScalingMSTLayout3DPC.html" xlink:title="&lt;TABLE&gt;">
<g id="a_node1_0"><a xlink:href="MultidimensionalScalingMSTLayout3DPC.html" xlink:title="de.lmu.ifi.dbs.elki.visualization.parallel3d.layout.MultidimensionalScalingMSTLayout3DPC" target="_parent">
<polygon fill="none" stroke="#000000" points="0,-45.5 0,-62.5 164,-62.5 164,-45.5 0,-45.5"/>
<text text-anchor="start" x="4" y="-53.1" font-family="Roboto" font-size="8.00" fill="#000000"> </text>
<text text-anchor="start" x="7" y="-53.1" font-family="Roboto" font-size="8.00" fill="#000000">MultidimensionalScalingMSTLayout3DPC</text>
<text text-anchor="start" x="157" y="-53.1" font-family="Roboto" font-size="8.00" fill="#000000"> </text>
</a>
</g>
</a>
</g>
</g>
<!-- c7167844 -->
<g id="node2" class="node">
<title>c7167844</title>
<g id="a_node2"><a xlink:href="MultidimensionalScalingMSTLayout3DPC.Node.html" xlink:title="&lt;TABLE&gt;">
<g id="a_node2_1"><a xlink:href="MultidimensionalScalingMSTLayout3DPC.Node.html" xlink:title="de.lmu.ifi.dbs.elki.visualization.parallel3d.layout.MultidimensionalScalingMSTLayout3DPC.Node" target="_parent">
<polygon fill="#fffacd" stroke="transparent" points="182,0 182,-17 366,-17 366,0 182,0"/>
<polygon fill="none" stroke="#000000" points="182,.5 182,-16.5 366,-16.5 366,.5 182,.5"/>
<text text-anchor="start" x="186" y="-7.1" font-family="Roboto" font-size="8.00" fill="#000000"> </text>
<text text-anchor="start" x="189" y="-7.1" font-family="Roboto" font-size="8.00" fill="#000000">MultidimensionalScalingMSTLayout3DPC.Node</text>
<text text-anchor="start" x="359" y="-7.1" font-family="Roboto" font-size="8.00" fill="#000000"> </text>
</a>
</g>
</a>
</g>
</g>
<!-- c7167843&#45;&gt;c7167844 -->
<g id="edge1" class="edge">
<title>c7167843&#45;&gt;c7167844</title>
<path fill="none" stroke="#000000" d="M149.111,-43.6863C154.1628,-42.6755 159.1707,-41.6109 164,-40.5 192.8802,-33.8566 225.4057,-24.1062 247.5496,-17.1161"/>
<polygon fill="none" stroke="#000000" points="149.0936,-43.6895 143.9517,-48.7453 137.3071,-45.9435 142.449,-40.8877 149.0936,-43.6895"/>
</g>
<!-- c7167856 -->
<g id="node3" class="node">
<title>c7167856</title>
<g id="a_node3"><a xlink:href="AbstractLayout3DPC.AbstractNode.html" xlink:title="&lt;TABLE&gt;">
<g id="a_node3_2"><a xlink:href="AbstractLayout3DPC.AbstractNode.html" xlink:title="de.lmu.ifi.dbs.elki.visualization.parallel3d.layout.AbstractLayout3DPC.AbstractNode" target="_parent">
<polygon fill="none" stroke="#000000" points="13,.5 13,-16.5 151,-16.5 151,.5 13,.5"/>
<text text-anchor="start" x="17" y="-7.1" font-family="Roboto" font-size="8.00" fill="#000000"> </text>
<text text-anchor="start" x="20" y="-7.1" font-family="Roboto" font-size="8.00" fill="#000000">AbstractLayout3DPC.AbstractNode</text>
<text text-anchor="start" x="144" y="-7.1" font-family="Roboto" font-size="8.00" fill="#000000"> </text>
</a>
</g>
</a>
</g>
</g>
<!-- c7167856&#45;&gt;c7167844 -->
<g id="edge2" class="edge">
<title>c7167856&#45;&gt;c7167844</title>
<path fill="none" stroke="#000000" d="M161.4867,-8.5C168.2021,-8.5 175.0286,-8.5 181.8295,-8.5"/>
<polygon fill="none" stroke="#000000" points="161.0452,-5.0001 151.0451,-8.5 161.0451,-12.0001 161.0452,-5.0001"/>
</g>
<!-- c7167856&#45;&gt;c7167856 -->
<g id="edge3" class="edge">
<title>c7167856&#45;&gt;c7167856</title>
<path fill="none" stroke="#000000" d="M48.8477,-17.1212C40.1992,-22.6648 51.25,-28 82,-28 94.4922,-28 103.7332,-27.1195 109.7231,-25.7022"/>
<polygon fill="#000000" stroke="#000000" points="115.1523,-17.1212 113.6084,-27.9778 112.479,-21.3465 109.8056,-25.5718 109.8056,-25.5718 109.8056,-25.5718 112.479,-21.3465 106.0028,-23.1658 115.1523,-17.1212 115.1523,-17.1212"/>
<text text-anchor="middle" x="113.1523" y="-19.5212" font-family="Roboto" font-size="7.00" fill="#000000">*</text>
</g>
</g>
</svg>
