<?xml version="1.0" encoding="UTF-8" standalone="no"?>
<!DOCTYPE svg PUBLIC "-//W3C//DTD SVG 1.1//EN"
 "http://www.w3.org/Graphics/SVG/1.1/DTD/svg11.dtd">
<!-- Generated by graphviz version 2.40.1 (20161225.0304)
 -->
<!-- Title: G Pages: 1 -->
<svg width="479pt" height="53pt"
 viewBox="0.00 0.00 479.00 53.00" xmlns="http://www.w3.org/2000/svg" xmlns:xlink="http://www.w3.org/1999/xlink">
<g id="graph0" class="graph" transform="scale(1 1) rotate(0) translate(4 49)">
<title>G</title>
<polygon fill="#ffffff" stroke="transparent" points="-4,4 -4,-49 475,-49 475,4 -4,4"/>
<!-- c1477080 -->
<g id="node1" class="node">
<title>c1477080</title>
<g id="a_node1"><a xlink:href="DistanceBasedInitializationWithMedian.html" xlink:title="&lt;TABLE&gt;">
<g id="a_node1_0"><a xlink:href="DistanceBasedInitializationWithMedian.html" xlink:title="de.lmu.ifi.dbs.elki.algorithm.clustering.affinitypropagation.DistanceBasedInitializationWithMedian" target="_parent">
<polygon fill="none" stroke="#000000" points="315.5,-27.5 315.5,-44.5 469.5,-44.5 469.5,-27.5 315.5,-27.5"/>
<text text-anchor="start" x="319.5" y="-35.1" font-family="Roboto" font-size="8.00" fill="#000000"> </text>
<text text-anchor="start" x="322.5" y="-35.1" font-family="Roboto" font-size="8.00" fill="#000000">DistanceBasedInitializationWithMedian</text>
<text text-anchor="start" x="462.5" y="-35.1" font-family="Roboto" font-size="8.00" fill="#000000"> </text>
</a>
</g>
</a>
</g>
</g>
<!-- c1477082 -->
<g id="node2" class="node">
<title>c1477082</title>
<g id="a_node2"><a xlink:href="AffinityPropagationInitialization.html" xlink:title="&lt;TABLE&gt;">
<g id="a_node2_1"><a xlink:href="AffinityPropagationInitialization.html" xlink:title="de.lmu.ifi.dbs.elki.algorithm.clustering.affinitypropagation.AffinityPropagationInitialization" target="_parent">
<polygon fill="#fffacd" stroke="transparent" points="170,-8.5 170,-36.5 296,-36.5 296,-8.5 170,-8.5"/>
<polygon fill="none" stroke="#000000" points="170,-8.5 170,-36.5 296,-36.5 296,-8.5 170,-8.5"/>
<text text-anchor="start" x="211.5" y="-26.1" font-family="Roboto" font-size="8.00" fill="#000000"> «interface» </text>
<text text-anchor="start" x="174" y="-16.1" font-family="Roboto" font-size="8.00" fill="#000000"> </text>
<text text-anchor="start" x="177" y="-16.1" font-family="Roboto" font-size="8.00" fill="#000000">AffinityPropagationInitialization</text>
<text text-anchor="start" x="289" y="-16.1" font-family="Roboto" font-size="8.00" fill="#000000"> </text>
</a>
</g>
</a>
</g>
</g>
<!-- c1477082&#45;&gt;c1477080 -->
<g id="edge1" class="edge">
<title>c1477082&#45;&gt;c1477080</title>
<path fill="none" stroke="#000000" stroke-dasharray="5,2" d="M306.2692,-28.9312C309.3001,-29.1972 312.3434,-29.4643 315.3817,-29.731"/>
<polygon fill="none" stroke="#000000" points="306.3064,-25.421 296.0386,-28.0332 305.6943,-32.3942 306.3064,-25.421"/>
</g>
<!-- c1477083 -->
<g id="node3" class="node">
<title>c1477083</title>
<g id="a_node3"><a xlink:href="SimilarityBasedInitializationWithMedian.html" xlink:title="&lt;TABLE&gt;">
<g id="a_node3_2"><a xlink:href="SimilarityBasedInitializationWithMedian.html" xlink:title="de.lmu.ifi.dbs.elki.algorithm.clustering.affinitypropagation.SimilarityBasedInitializationWithMedian" target="_parent">
<polygon fill="none" stroke="#000000" points="314.5,.5 314.5,-16.5 471.5,-16.5 471.5,.5 314.5,.5"/>
<text text-anchor="start" x="318.5" y="-7.1" font-family="Roboto" font-size="8.00" fill="#000000"> </text>
<text text-anchor="start" x="321.5" y="-7.1" font-family="Roboto" font-size="8.00" fill="#000000">SimilarityBasedInitializationWithMedian</text>
<text text-anchor="start" x="464.5" y="-7.1" font-family="Roboto" font-size="8.00" fill="#000000"> </text>
</a>
</g>
</a>
</g>
</g>
<!-- c1477082&#45;&gt;c1477083 -->
<g id="edge2" class="edge">
<title>c1477082&#45;&gt;c1477083</title>
<path fill="none" stroke="#000000" stroke-dasharray="5,2" d="M306.2568,-16.0699C308.7603,-15.8502 311.2724,-15.6297 313.7831,-15.4093"/>
<polygon fill="none" stroke="#000000" points="305.6943,-12.6058 296.0386,-16.9668 306.3064,-19.579 305.6943,-12.6058"/>
</g>
<!-- c1477085 -->
<g id="node4" class="node">
<title>c1477085</title>
<g id="a_node4"><a xlink:href="AffinityPropagationClusteringAlgorithm.html" xlink:title="&lt;TABLE&gt;">
<g id="a_node4_3"><a xlink:href="AffinityPropagationClusteringAlgorithm.html" xlink:title="de.lmu.ifi.dbs.elki.algorithm.clustering.affinitypropagation.AffinityPropagationClusteringAlgorithm" target="_parent">
<polygon fill="none" stroke="#000000" points="0,-13.5 0,-30.5 152,-30.5 152,-13.5 0,-13.5"/>
<text text-anchor="start" x="4" y="-21.1" font-family="Roboto" font-size="8.00" fill="#000000"> </text>
<text text-anchor="start" x="7" y="-21.1" font-family="Roboto" font-size="8.00" fill="#000000">AffinityPropagationClusteringAlgorithm</text>
<text text-anchor="start" x="145" y="-21.1" font-family="Roboto" font-size="8.00" fill="#000000"> </text>
</a>
</g>
</a>
</g>
</g>
<!-- c1477085&#45;&gt;c1477082 -->
<g id="edge3" class="edge">
<title>c1477085&#45;&gt;c1477082</title>
<path fill="none" stroke="#000000" d="M164.4277,-22.5C166.2707,-22.5 168.1062,-22.5 169.9302,-22.5"/>
<polygon fill="#000000" stroke="#000000" points="164.2005,-22.5001 158.2005,-26.5 152.2005,-22.5 158.2005,-18.5 164.2005,-22.5001"/>
</g>
</g>
</svg>
