<?xml version="1.0" encoding="UTF-8" standalone="no"?>
<!DOCTYPE svg PUBLIC "-//W3C//DTD SVG 1.1//EN"
 "http://www.w3.org/Graphics/SVG/1.1/DTD/svg11.dtd">
<!-- Generated by graphviz version 2.40.1 (20161225.0304)
 -->
<!-- Title: G Pages: 1 -->
<svg width="482pt" height="47pt"
 viewBox="0.00 0.00 482.00 47.00" xmlns="http://www.w3.org/2000/svg" xmlns:xlink="http://www.w3.org/1999/xlink">
<g id="graph0" class="graph" transform="scale(1 1) rotate(0) translate(4 43)">
<title>G</title>
<polygon fill="#ffffff" stroke="transparent" points="-4,4 -4,-43 478,-43 478,4 -4,4"/>
<!-- c3373076 -->
<g id="node1" class="node">
<title>c3373076</title>
<g id="a_node1"><a xlink:href="DistanceBasedInitializationWithMedian.html" xlink:title="&lt;TABLE&gt;">
<g id="a_node1_0"><a xlink:href="DistanceBasedInitializationWithMedian.html" xlink:title="de.lmu.ifi.dbs.elki.algorithm.clustering.affinitypropagation.DistanceBasedInitializationWithMedian" target="_parent">
<polygon fill="#fffacd" stroke="transparent" points="144,-11 144,-28 298,-28 298,-11 144,-11"/>
<polygon fill="none" stroke="#000000" points="144,-10.5 144,-27.5 298,-27.5 298,-10.5 144,-10.5"/>
<text text-anchor="start" x="148" y="-18.1" font-family="Roboto" font-size="8.00" fill="#000000"> </text>
<text text-anchor="start" x="151" y="-18.1" font-family="Roboto" font-size="8.00" fill="#000000">DistanceBasedInitializationWithMedian</text>
<text text-anchor="start" x="291" y="-18.1" font-family="Roboto" font-size="8.00" fill="#000000"> </text>
</a>
</g>
</a>
</g>
</g>
<!-- c3373556 -->
<g id="node3" class="node">
<title>c3373556</title>
<g id="a_node3"><a xlink:href="../../../distance/distancefunction/DistanceFunction.html" xlink:title="&lt;TABLE&gt;">
<g id="a_node3_1"><a xlink:href="../../../distance/distancefunction/DistanceFunction.html" xlink:title="de.lmu.ifi.dbs.elki.distance.distancefunction.DistanceFunction" target="_parent">
<polygon fill="#fffacd" stroke="transparent" points="316,0 316,-39 474,-39 474,0 316,0"/>
<polygon fill="none" stroke="#000000" points="316,.5 316,-38.5 474,-38.5 474,.5 316,.5"/>
<text text-anchor="start" x="373.5" y="-28.1" font-family="Roboto" font-size="8.00" fill="#000000"> «interface» </text>
<text text-anchor="start" x="361.5" y="-18.1" font-family="Roboto" font-size="8.00" fill="#000000"> </text>
<text text-anchor="start" x="364.5" y="-18.1" font-family="Roboto" font-size="8.00" fill="#000000">DistanceFunction</text>
<text text-anchor="start" x="425.5" y="-18.1" font-family="Roboto" font-size="8.00" fill="#000000"> </text>
<text text-anchor="start" x="320" y="-7.1" font-family="Roboto" font-size="8.00" fill="#000000"> </text>
<text text-anchor="start" x="323" y="-7.1" font-family="Roboto" font-size="7.00" fill="#000000">de.lmu.ifi.dbs.elki.distance.distancefunction</text>
<text text-anchor="start" x="467" y="-7.1" font-family="Roboto" font-size="8.00" fill="#000000"> </text>
</a>
</g>
</a>
</g>
</g>
<!-- c3373076&#45;&gt;c3373556 -->
<g id="edge2" class="edge">
<title>c3373076&#45;&gt;c3373556</title>
<path fill="none" stroke="#000000" d="M298.0788,-19.5C300.6638,-19.5 303.2607,-19.5 305.8601,-19.5"/>
<polygon fill="#000000" stroke="#000000" points="315.8793,-19.5 305.8794,-24.0001 310.8793,-19.5 305.8793,-19.5001 305.8793,-19.5001 305.8793,-19.5001 310.8793,-19.5 305.8793,-15.0001 315.8793,-19.5 315.8793,-19.5"/>
</g>
<!-- c3373078 -->
<g id="node2" class="node">
<title>c3373078</title>
<g id="a_node2"><a xlink:href="AffinityPropagationInitialization.html" xlink:title="&lt;TABLE&gt;">
<g id="a_node2_2"><a xlink:href="AffinityPropagationInitialization.html" xlink:title="de.lmu.ifi.dbs.elki.algorithm.clustering.affinitypropagation.AffinityPropagationInitialization" target="_parent">
<polygon fill="none" stroke="#000000" points="0,-5.5 0,-33.5 126,-33.5 126,-5.5 0,-5.5"/>
<text text-anchor="start" x="41.5" y="-23.1" font-family="Roboto" font-size="8.00" fill="#000000"> «interface» </text>
<text text-anchor="start" x="4" y="-13.1" font-family="Roboto" font-size="8.00" fill="#000000"> </text>
<text text-anchor="start" x="7" y="-13.1" font-family="Roboto" font-size="8.00" fill="#000000">AffinityPropagationInitialization</text>
<text text-anchor="start" x="119" y="-13.1" font-family="Roboto" font-size="8.00" fill="#000000"> </text>
</a>
</g>
</a>
</g>
</g>
<!-- c3373078&#45;&gt;c3373076 -->
<g id="edge1" class="edge">
<title>c3373078&#45;&gt;c3373076</title>
<path fill="none" stroke="#000000" stroke-dasharray="5,2" d="M136.4214,-19.5C138.8862,-19.5 141.3582,-19.5 143.8279,-19.5"/>
<polygon fill="none" stroke="#000000" points="136.3543,-16.0001 126.3543,-19.5 136.3542,-23.0001 136.3543,-16.0001"/>
</g>
</g>
</svg>
