<?xml version="1.0" encoding="UTF-8" standalone="no"?><svg xmlns="http://www.w3.org/2000/svg" xmlns:xlink="http://www.w3.org/1999/xlink" contentStyleType="text/css" height="414px" preserveAspectRatio="none" style="width:554px;height:414px;background:#FFFFFF;" version="1.1" viewBox="0 0 554 414" width="554px" zoomAndPan="magnify"><defs/><g><!--MD5=[860a960f07e5ce18e05d8c63a09678ee]
class elki.clustering.hierarchical.extraction.HDBSCANHierarchyExtraction--><a href="HDBSCANHierarchyExtraction.html" target="_top" title="HDBSCANHierarchyExtraction.html" xlink:actuate="onRequest" xlink:href="HDBSCANHierarchyExtraction.html" xlink:show="new" xlink:title="HDBSCANHierarchyExtraction.html" xlink:type="simple"><g id="elem_elki.clustering.hierarchical.extraction.HDBSCANHierarchyExtraction"><rect codeLine="6" fill="#F1F1F1" height="184.3125" id="elki.clustering.hierarchical.extraction.HDBSCANHierarchyExtraction" rx="2.5" ry="2.5" style="stroke:#181818;stroke-width:0.5;" width="540" x="7" y="108"/><ellipse cx="172.25" cy="126.9688" fill="#ADD1B2" rx="11" ry="11" style="stroke:#181818;stroke-width:1.0;"/><path d="M175.2188,132.6094 Q174.6406,132.9063 174,133.0469 Q173.3594,133.2031 172.6563,133.2031 Q170.1563,133.2031 168.8281,131.5625 Q167.5156,129.9063 167.5156,126.7813 Q167.5156,123.6563 168.8281,122 Q170.1563,120.3438 172.6563,120.3438 Q173.3594,120.3438 174,120.5 Q174.6563,120.6563 175.2188,120.9531 L175.2188,123.6719 Q174.5938,123.0938 174,122.8281 Q173.4063,122.5469 172.7813,122.5469 Q171.4375,122.5469 170.75,123.625 Q170.0625,124.6875 170.0625,126.7813 Q170.0625,128.875 170.75,129.9531 Q171.4375,131.0156 172.7813,131.0156 Q173.4063,131.0156 174,130.75 Q174.5938,130.4688 175.2188,129.8906 L175.2188,132.6094 Z " fill="#000000"/><text fill="#000000" font-family="sans-serif" font-size="14" lengthAdjust="spacing" textLength="201" x="192.75" y="125.9951">HDBSCANHierarchyExtraction</text><text fill="#000000" font-family="sans-serif" font-size="10" lengthAdjust="spacing" textLength="173" x="206.75" y="138.5791">elki.clustering.hierarchical.extraction</text><line style="stroke:#181818;stroke-width:0.5;" x1="8" x2="546" y1="145.9375" y2="145.9375"/><rect fill="none" height="6" style="stroke:#C82930;stroke-width:1.0;" width="6" x="15" y="156.5859"/><text fill="#000000" font-family="sans-serif" font-size="14" lengthAdjust="spacing" text-decoration="underline" textLength="93" x="27" y="162.9326">LOG: Logging</text><rect fill="none" height="6" style="stroke:#C82930;stroke-width:1.0;" width="6" x="15" y="172.8828"/><text fill="#000000" font-family="sans-serif" font-size="14" lengthAdjust="spacing" textLength="93" x="27" y="179.2295">minClSize: int</text><rect fill="none" height="6" style="stroke:#C82930;stroke-width:1.0;" width="6" x="15" y="189.1797"/><text fill="#000000" font-family="sans-serif" font-size="14" lengthAdjust="spacing" textLength="287" x="27" y="195.5264">algorithm: HierarchicalClusteringAlgorithm</text><rect fill="none" height="6" style="stroke:#C82930;stroke-width:1.0;" width="6" x="15" y="205.4766"/><text fill="#000000" font-family="sans-serif" font-size="14" lengthAdjust="spacing" textLength="143" x="27" y="211.8232">hierarchical: boolean</text><line style="stroke:#181818;stroke-width:0.5;" x1="8" x2="546" y1="219.125" y2="219.125"/><ellipse cx="18" cy="232.7734" fill="#84BE84" rx="3" ry="3" style="stroke:#038048;stroke-width:1.0;"/><text fill="#000000" font-family="sans-serif" font-size="14" lengthAdjust="spacing" textLength="514" x="27" y="236.1201">HDBSCANHierarchyExtraction(HierarchicalClusteringAlgorithm, int, boolean)</text><ellipse cx="18" cy="249.0703" fill="#84BE84" rx="3" ry="3" style="stroke:#038048;stroke-width:1.0;"/><text fill="#000000" font-family="sans-serif" font-size="14" lengthAdjust="spacing" textLength="362" x="27" y="252.417">autorun(Database): Clustering&lt;DendrogramModel&gt;</text><ellipse cx="18" cy="265.3672" fill="#84BE84" rx="3" ry="3" style="stroke:#038048;stroke-width:1.0;"/><text fill="#000000" font-family="sans-serif" font-size="14" lengthAdjust="spacing" textLength="405" x="27" y="268.7139">run(ClusterMergeHistory): Clustering&lt;DendrogramModel&gt;</text><ellipse cx="18" cy="281.6641" fill="#84BE84" rx="3" ry="3" style="stroke:#038048;stroke-width:1.0;"/><text fill="#000000" font-family="sans-serif" font-size="14" lengthAdjust="spacing" textLength="306" x="27" y="285.0107">getInputTypeRestriction(): TypeInformation[]</text></g></a><!--MD5=[4fc33484231348e70db2dde04bb5858c]
class elki.clustering.ClusteringAlgorithm--><a href="../../ClusteringAlgorithm.html" target="_top" title="../../ClusteringAlgorithm.html" xlink:actuate="onRequest" xlink:href="../../ClusteringAlgorithm.html" xlink:show="new" xlink:title="../../ClusteringAlgorithm.html" xlink:type="simple"><g id="elem_elki.clustering.ClusteringAlgorithm"><rect codeLine="17" fill="#F1F1F1" height="37.9375" id="elki.clustering.ClusteringAlgorithm" rx="2.5" ry="2.5" style="stroke:#181818;stroke-width:0.5;" width="365" x="94.5" y="10"/><ellipse cx="109.5" cy="28.9688" fill="#B4A7E5" rx="11" ry="11" style="stroke:#181818;stroke-width:1.0;"/><path d="M105.4219,24.7344 L105.4219,22.5781 L112.8125,22.5781 L112.8125,24.7344 L110.3438,24.7344 L110.3438,32.8125 L112.8125,32.8125 L112.8125,34.9688 L105.4219,34.9688 L105.4219,32.8125 L107.8906,32.8125 L107.8906,24.7344 L105.4219,24.7344 Z " fill="#000000"/><text fill="#000000" font-family="sans-serif" font-size="14" font-style="italic" lengthAdjust="spacing" textLength="140" x="123.5" y="27.9951">ClusteringAlgorithm</text><text fill="#000000" font-family="sans-serif" font-size="10" font-style="italic" lengthAdjust="spacing" textLength="70" x="158.5" y="40.5791">elki.clustering</text><rect fill="#FFFFFF" height="15.9688" style="stroke:#181818;stroke-width:1.0;stroke-dasharray:2.0,2.0;" width="191" x="271.5" y="7"/><text fill="#000000" font-family="sans-serif" font-size="12" font-style="italic" lengthAdjust="spacing" textLength="189" x="272.5" y="19.1387">Clustering&lt;DendrogramModel&gt;</text></g></a><!--MD5=[3ce292ee662553956aef1d01550ed1bf]
class elki.clustering.hierarchical.extraction.HDBSCANHierarchyExtraction.TempCluster--><a href="HDBSCANHierarchyExtraction.TempCluster.html" target="_top" title="HDBSCANHierarchyExtraction.TempCluster.html" xlink:actuate="onRequest" xlink:href="HDBSCANHierarchyExtraction.TempCluster.html" xlink:show="new" xlink:title="HDBSCANHierarchyExtraction.TempCluster.html" xlink:type="simple"><g id="elem_elki.clustering.hierarchical.extraction.HDBSCANHierarchyExtraction.TempCluster"><rect codeLine="19" fill="#F1F1F1" height="37.9375" id="elki.clustering.hierarchical.extraction.HDBSCANHierarchyExtraction.TempCluster" rx="2.5" ry="2.5" style="stroke:#181818;stroke-width:0.5;" width="326" x="114" y="352"/><ellipse cx="129" cy="370.9688" fill="#ADD1B2" rx="11" ry="11" style="stroke:#181818;stroke-width:1.0;"/><path d="M131.9688,376.6094 Q131.3906,376.9063 130.75,377.0469 Q130.1094,377.2031 129.4063,377.2031 Q126.9063,377.2031 125.5781,375.5625 Q124.2656,373.9063 124.2656,370.7813 Q124.2656,367.6563 125.5781,366 Q126.9063,364.3438 129.4063,364.3438 Q130.1094,364.3438 130.75,364.5 Q131.4063,364.6563 131.9688,364.9531 L131.9688,367.6719 Q131.3438,367.0938 130.75,366.8281 Q130.1563,366.5469 129.5313,366.5469 Q128.1875,366.5469 127.5,367.625 Q126.8125,368.6875 126.8125,370.7813 Q126.8125,372.875 127.5,373.9531 Q128.1875,375.0156 129.5313,375.0156 Q130.1563,375.0156 130.75,374.75 Q131.3438,374.4688 131.9688,373.8906 L131.9688,376.6094 Z " fill="#000000"/><text fill="#000000" font-family="sans-serif" font-size="14" lengthAdjust="spacing" textLength="294" x="143" y="369.9951">HDBSCANHierarchyExtraction.TempCluster</text><text fill="#000000" font-family="sans-serif" font-size="10" lengthAdjust="spacing" textLength="173" x="203.5" y="382.5791">elki.clustering.hierarchical.extraction</text></g></a><!--MD5=[674b93c03e4c4e89461e957c0ee3aed1]
reverse link elki.clustering.ClusteringAlgorithm to elki.clustering.hierarchical.extraction.HDBSCANHierarchyExtraction--><g id="link_elki.clustering.ClusteringAlgorithm_elki.clustering.hierarchical.extraction.HDBSCANHierarchyExtraction"><path codeLine="22" d="M277,68.42 C277,80.33 277,93.99 277,107.9 " fill="none" id="elki.clustering.ClusteringAlgorithm-backto-elki.clustering.hierarchical.extraction.HDBSCANHierarchyExtraction" style="stroke:#181818;stroke-width:1.0;stroke-dasharray:7.0,7.0;"/><polygon fill="none" points="270,68.09,277,48.09,284,68.09,270,68.09" style="stroke:#181818;stroke-width:1.0;"/></g><!--MD5=[4099bc082f61a7db9bfc72c6739d97a4]
reverse link elki.clustering.hierarchical.extraction.HDBSCANHierarchyExtraction to elki.clustering.hierarchical.extraction.HDBSCANHierarchyExtraction.TempCluster--><g id="link_elki.clustering.hierarchical.extraction.HDBSCANHierarchyExtraction_elki.clustering.hierarchical.extraction.HDBSCANHierarchyExtraction.TempCluster"><path codeLine="24" d="M277,307.68 C277,324.75 277,340.51 277,351.92 " fill="none" id="elki.clustering.hierarchical.extraction.HDBSCANHierarchyExtraction-backto-elki.clustering.hierarchical.extraction.HDBSCANHierarchyExtraction.TempCluster" style="stroke:#181818;stroke-width:1.0;"/><ellipse cx="277" cy="300.42" fill="#FFFFFF" rx="8" ry="8" style="stroke:#181818;stroke-width:1.0;"/><line style="stroke:#181818;stroke-width:1.0;" x1="277" x2="277" y1="308.42" y2="292.42"/><line style="stroke:#181818;stroke-width:1.0;" x1="269" x2="285" y1="300.42" y2="300.42"/></g><rect fill="none" height="11.6406" style="stroke:none;stroke-width:1.0;" width="186" x="177" y="394.9375"/><text fill="#888888" font-family="sans-serif" font-size="10" lengthAdjust="spacing" textLength="186" x="177" y="404.2197">UMLDoclet 2.0.19, PlantUML 1.2022.8</text><!--MD5=[eff5b6c017e412893666651ad11d3f4a]
@startuml
    remove .*\.(Instance|Par|Parameterizer|Factory)$
    set namespaceSeparator none
    hide empty fields
    hide empty methods

    class "<size:14>HDBSCANHierarchyExtraction\n<size:10>elki.clustering.hierarchical.extraction" as elki.clustering.hierarchical.extraction.HDBSCANHierarchyExtraction [[HDBSCANHierarchyExtraction.html]] {
        {static} -LOG: Logging
        -minClSize: int
        -algorithm: HierarchicalClusteringAlgorithm
        -hierarchical: boolean
        +HDBSCANHierarchyExtraction(HierarchicalClusteringAlgorithm, int, boolean)
        +autorun(Database): Clustering<DendrogramModel>
        +run(ClusterMergeHistory): Clustering<DendrogramModel>
        +getInputTypeRestriction(): TypeInformation[]
    }

    interface "<size:14>ClusteringAlgorithm\n<size:10>elki.clustering" as elki.clustering.ClusteringAlgorithm<Clustering<DendrogramModel>> [[../../ClusteringAlgorithm.html]]
    class "<size:14>HDBSCANHierarchyExtraction.Instance\n<size:10>elki.clustering.hierarchical.extraction" as elki.clustering.hierarchical.extraction.HDBSCANHierarchyExtraction.Instance [[HDBSCANHierarchyExtraction.Instance.html]]
    class "<size:14>HDBSCANHierarchyExtraction.TempCluster\n<size:10>elki.clustering.hierarchical.extraction" as elki.clustering.hierarchical.extraction.HDBSCANHierarchyExtraction.TempCluster [[HDBSCANHierarchyExtraction.TempCluster.html]]
    class "<size:14>HDBSCANHierarchyExtraction.Par\n<size:10>elki.clustering.hierarchical.extraction" as elki.clustering.hierarchical.extraction.HDBSCANHierarchyExtraction.Par [[HDBSCANHierarchyExtraction.Par.html]]

    elki.clustering.ClusteringAlgorithm <|.. elki.clustering.hierarchical.extraction.HDBSCANHierarchyExtraction
    elki.clustering.hierarchical.extraction.HDBSCANHierarchyExtraction +- - elki.clustering.hierarchical.extraction.HDBSCANHierarchyExtraction.Instance
    elki.clustering.hierarchical.extraction.HDBSCANHierarchyExtraction +- - elki.clustering.hierarchical.extraction.HDBSCANHierarchyExtraction.TempCluster
    elki.clustering.hierarchical.extraction.HDBSCANHierarchyExtraction +- - elki.clustering.hierarchical.extraction.HDBSCANHierarchyExtraction.Par

    center footer UMLDoclet 2.0.19, PlantUML 1.2022.8
@enduml

PlantUML version 1.2022.8(Sun Sep 25 11:00:33 CEST 2022)
(APACHE source distribution)
Java Runtime: OpenJDK Runtime Environment
JVM: OpenJDK 64-Bit Server VM
Default Encoding: UTF-8
Language: de
Country: DE
--></g></svg>