<?xml version="1.0" encoding="UTF-8" standalone="no"?><svg xmlns="http://www.w3.org/2000/svg" xmlns:xlink="http://www.w3.org/1999/xlink" contentStyleType="text/css" height="493px" preserveAspectRatio="none" style="width:6165px;height:493px;background:#FFFFFF;" version="1.1" viewBox="0 0 6165 493" width="6165px" zoomAndPan="magnify"><defs/><g><!--MD5=[5d0c4902e6a0285812a0dc1546ca1285]
cluster elki.clustering.kmeans.quality--><g id="cluster_elki.clustering.kmeans.quality"><path d="M8.5,6 L243.5,6 A3.75,3.75 0 0 1 246,8.5 L253,28.2969 L6155.5,28.2969 A2.5,2.5 0 0 1 6158,30.7969 L6158,465.5 A2.5,2.5 0 0 1 6155.5,468 L8.5,468 A2.5,2.5 0 0 1 6,465.5 L6,8.5 A2.5,2.5 0 0 1 8.5,6 " fill="none" style="stroke:#000000;stroke-width:1.5;"/><line style="stroke:#000000;stroke-width:1.5;" x1="6" x2="253" y1="28.2969" y2="28.2969"/><text fill="#000000" font-family="sans-serif" font-size="14" font-weight="bold" lengthAdjust="spacing" textLength="234" x="10" y="20.9951">elki.clustering.kmeans.quality</text></g><!--MD5=[20d48023f94091c1ac27fd138e8942f5]
class elki.clustering.kmeans.quality.WithinClusterVariance--><a href="WithinClusterVariance.html" target="_top" title="WithinClusterVariance.html" xlink:actuate="onRequest" xlink:href="WithinClusterVariance.html" xlink:show="new" xlink:title="WithinClusterVariance.html" xlink:type="simple"><g id="elem_elki.clustering.kmeans.quality.WithinClusterVariance"><rect codeLine="4" fill="#F1F1F1" height="80.5938" id="elki.clustering.kmeans.quality.WithinClusterVariance" rx="2.5" ry="2.5" style="stroke:#181818;stroke-width:0.5;" width="991" x="21.5" y="363"/><ellipse cx="437.75" cy="379" fill="#ADD1B2" rx="11" ry="11" style="stroke:#181818;stroke-width:1.0;"/><path d="M440.7188,384.6406 Q440.1406,384.9375 439.5,385.0781 Q438.8594,385.2344 438.1563,385.2344 Q435.6563,385.2344 434.3281,383.5938 Q433.0156,381.9375 433.0156,378.8125 Q433.0156,375.6875 434.3281,374.0313 Q435.6563,372.375 438.1563,372.375 Q438.8594,372.375 439.5,372.5313 Q440.1563,372.6875 440.7188,372.9844 L440.7188,375.7031 Q440.0938,375.125 439.5,374.8594 Q438.9063,374.5781 438.2813,374.5781 Q436.9375,374.5781 436.25,375.6563 Q435.5625,376.7188 435.5625,378.8125 Q435.5625,380.9063 436.25,381.9844 Q436.9375,383.0469 438.2813,383.0469 Q438.9063,383.0469 439.5,382.7813 Q440.0938,382.5 440.7188,381.9219 L440.7188,384.6406 Z " fill="#000000"/><text fill="#000000" font-family="sans-serif" font-size="14" lengthAdjust="spacing" textLength="150" x="458.25" y="383.8467">WithinClusterVariance</text><line style="stroke:#181818;stroke-width:0.5;" x1="22.5" x2="1011.5" y1="395" y2="395"/><line style="stroke:#181818;stroke-width:0.5;" x1="22.5" x2="1011.5" y1="403" y2="403"/><ellipse cx="32.5" cy="416.6484" fill="#84BE84" rx="3" ry="3" style="stroke:#038048;stroke-width:1.0;"/><text fill="#000000" font-family="sans-serif" font-size="14" lengthAdjust="spacing" textLength="965" x="41.5" y="419.9951">quality(Clustering&lt;? extends MeanModel&gt;, NumberVectorDistance&lt;? super NumberVector&gt;, Relation&lt;V extends NumberVector&gt;): double</text><ellipse cx="32.5" cy="432.9453" fill="#84BE84" rx="3" ry="3" style="stroke:#038048;stroke-width:1.0;"/><text fill="#000000" font-family="sans-serif" font-size="14" lengthAdjust="spacing" textLength="233" x="41.5" y="436.292">isBetter(double, double): boolean</text></g></a><!--MD5=[f857cabdbdc02bfcc80f05af8a0d5de6]
class elki.clustering.kmeans.quality.AkaikeInformationCriterionXMeans--><a href="AkaikeInformationCriterionXMeans.html" target="_top" title="AkaikeInformationCriterionXMeans.html" xlink:actuate="onRequest" xlink:href="AkaikeInformationCriterionXMeans.html" xlink:show="new" xlink:title="AkaikeInformationCriterionXMeans.html" xlink:type="simple"><g id="elem_elki.clustering.kmeans.quality.AkaikeInformationCriterionXMeans"><rect codeLine="9" fill="#F1F1F1" height="80.5938" id="elki.clustering.kmeans.quality.AkaikeInformationCriterionXMeans" rx="2.5" ry="2.5" style="stroke:#181818;stroke-width:0.5;" width="991" x="1047.5" y="363"/><ellipse cx="1420.25" cy="379" fill="#ADD1B2" rx="11" ry="11" style="stroke:#181818;stroke-width:1.0;"/><path d="M1423.2188,384.6406 Q1422.6406,384.9375 1422,385.0781 Q1421.3594,385.2344 1420.6563,385.2344 Q1418.1563,385.2344 1416.8281,383.5938 Q1415.5156,381.9375 1415.5156,378.8125 Q1415.5156,375.6875 1416.8281,374.0313 Q1418.1563,372.375 1420.6563,372.375 Q1421.3594,372.375 1422,372.5313 Q1422.6563,372.6875 1423.2188,372.9844 L1423.2188,375.7031 Q1422.5938,375.125 1422,374.8594 Q1421.4063,374.5781 1420.7813,374.5781 Q1419.4375,374.5781 1418.75,375.6563 Q1418.0625,376.7188 1418.0625,378.8125 Q1418.0625,380.9063 1418.75,381.9844 Q1419.4375,383.0469 1420.7813,383.0469 Q1421.4063,383.0469 1422,382.7813 Q1422.5938,382.5 1423.2188,381.9219 L1423.2188,384.6406 Z " fill="#000000"/><text fill="#000000" font-family="sans-serif" font-size="14" lengthAdjust="spacing" textLength="237" x="1440.75" y="383.8467">AkaikeInformationCriterionXMeans</text><line style="stroke:#181818;stroke-width:0.5;" x1="1048.5" x2="2037.5" y1="395" y2="395"/><line style="stroke:#181818;stroke-width:0.5;" x1="1048.5" x2="2037.5" y1="403" y2="403"/><ellipse cx="1058.5" cy="416.6484" fill="#84BE84" rx="3" ry="3" style="stroke:#038048;stroke-width:1.0;"/><text fill="#000000" font-family="sans-serif" font-size="14" lengthAdjust="spacing" textLength="965" x="1067.5" y="419.9951">quality(Clustering&lt;? extends MeanModel&gt;, NumberVectorDistance&lt;? super NumberVector&gt;, Relation&lt;V extends NumberVector&gt;): double</text><ellipse cx="1058.5" cy="432.9453" fill="#84BE84" rx="3" ry="3" style="stroke:#038048;stroke-width:1.0;"/><text fill="#000000" font-family="sans-serif" font-size="14" lengthAdjust="spacing" textLength="233" x="1067.5" y="436.292">isBetter(double, double): boolean</text></g></a><!--MD5=[4ba0fa95c5fd784e310d24586475e9ba]
class elki.clustering.kmeans.quality.AkaikeInformationCriterion--><a href="AkaikeInformationCriterion.html" target="_top" title="AkaikeInformationCriterion.html" xlink:actuate="onRequest" xlink:href="AkaikeInformationCriterion.html" xlink:show="new" xlink:title="AkaikeInformationCriterion.html" xlink:type="simple"><g id="elem_elki.clustering.kmeans.quality.AkaikeInformationCriterion"><rect codeLine="14" fill="#F1F1F1" height="80.5938" id="elki.clustering.kmeans.quality.AkaikeInformationCriterion" rx="2.5" ry="2.5" style="stroke:#181818;stroke-width:0.5;" width="991" x="2073.5" y="363"/><ellipse cx="2474.75" cy="379" fill="#ADD1B2" rx="11" ry="11" style="stroke:#181818;stroke-width:1.0;"/><path d="M2477.7188,384.6406 Q2477.1406,384.9375 2476.5,385.0781 Q2475.8594,385.2344 2475.1563,385.2344 Q2472.6563,385.2344 2471.3281,383.5938 Q2470.0156,381.9375 2470.0156,378.8125 Q2470.0156,375.6875 2471.3281,374.0313 Q2472.6563,372.375 2475.1563,372.375 Q2475.8594,372.375 2476.5,372.5313 Q2477.1563,372.6875 2477.7188,372.9844 L2477.7188,375.7031 Q2477.0938,375.125 2476.5,374.8594 Q2475.9063,374.5781 2475.2813,374.5781 Q2473.9375,374.5781 2473.25,375.6563 Q2472.5625,376.7188 2472.5625,378.8125 Q2472.5625,380.9063 2473.25,381.9844 Q2473.9375,383.0469 2475.2813,383.0469 Q2475.9063,383.0469 2476.5,382.7813 Q2477.0938,382.5 2477.7188,381.9219 L2477.7188,384.6406 Z " fill="#000000"/><text fill="#000000" font-family="sans-serif" font-size="14" lengthAdjust="spacing" textLength="180" x="2495.25" y="383.8467">AkaikeInformationCriterion</text><line style="stroke:#181818;stroke-width:0.5;" x1="2074.5" x2="3063.5" y1="395" y2="395"/><line style="stroke:#181818;stroke-width:0.5;" x1="2074.5" x2="3063.5" y1="403" y2="403"/><ellipse cx="2084.5" cy="416.6484" fill="#84BE84" rx="3" ry="3" style="stroke:#038048;stroke-width:1.0;"/><text fill="#000000" font-family="sans-serif" font-size="14" lengthAdjust="spacing" textLength="965" x="2093.5" y="419.9951">quality(Clustering&lt;? extends MeanModel&gt;, NumberVectorDistance&lt;? super NumberVector&gt;, Relation&lt;V extends NumberVector&gt;): double</text><ellipse cx="2084.5" cy="432.9453" fill="#84BE84" rx="3" ry="3" style="stroke:#038048;stroke-width:1.0;"/><text fill="#000000" font-family="sans-serif" font-size="14" lengthAdjust="spacing" textLength="233" x="2093.5" y="436.292">isBetter(double, double): boolean</text></g></a><!--MD5=[279ac94f1c8492134a28e579fbe3bcef]
class elki.clustering.kmeans.quality.BayesianInformationCriterionZhao--><a href="BayesianInformationCriterionZhao.html" target="_top" title="BayesianInformationCriterionZhao.html" xlink:actuate="onRequest" xlink:href="BayesianInformationCriterionZhao.html" xlink:show="new" xlink:title="BayesianInformationCriterionZhao.html" xlink:type="simple"><g id="elem_elki.clustering.kmeans.quality.BayesianInformationCriterionZhao"><rect codeLine="19" fill="#F1F1F1" height="96.8906" id="elki.clustering.kmeans.quality.BayesianInformationCriterionZhao" rx="2.5" ry="2.5" style="stroke:#181818;stroke-width:0.5;" width="991" x="3099.5" y="355"/><ellipse cx="3474.25" cy="371" fill="#ADD1B2" rx="11" ry="11" style="stroke:#181818;stroke-width:1.0;"/><path d="M3477.2188,376.6406 Q3476.6406,376.9375 3476,377.0781 Q3475.3594,377.2344 3474.6563,377.2344 Q3472.1563,377.2344 3470.8281,375.5938 Q3469.5156,373.9375 3469.5156,370.8125 Q3469.5156,367.6875 3470.8281,366.0313 Q3472.1563,364.375 3474.6563,364.375 Q3475.3594,364.375 3476,364.5313 Q3476.6563,364.6875 3477.2188,364.9844 L3477.2188,367.7031 Q3476.5938,367.125 3476,366.8594 Q3475.4063,366.5781 3474.7813,366.5781 Q3473.4375,366.5781 3472.75,367.6563 Q3472.0625,368.7188 3472.0625,370.8125 Q3472.0625,372.9063 3472.75,373.9844 Q3473.4375,375.0469 3474.7813,375.0469 Q3475.4063,375.0469 3476,374.7813 Q3476.5938,374.5 3477.2188,373.9219 L3477.2188,376.6406 Z " fill="#000000"/><text fill="#000000" font-family="sans-serif" font-size="14" lengthAdjust="spacing" textLength="233" x="3494.75" y="375.8467">BayesianInformationCriterionZhao</text><line style="stroke:#181818;stroke-width:0.5;" x1="3100.5" x2="4089.5" y1="387" y2="387"/><line style="stroke:#181818;stroke-width:0.5;" x1="3100.5" x2="4089.5" y1="395" y2="395"/><ellipse cx="3110.5" cy="408.6484" fill="#84BE84" rx="3" ry="3" style="stroke:#038048;stroke-width:1.0;"/><text fill="#000000" font-family="sans-serif" font-size="14" lengthAdjust="spacing" textLength="965" x="3119.5" y="411.9951">quality(Clustering&lt;? extends MeanModel&gt;, NumberVectorDistance&lt;? super NumberVector&gt;, Relation&lt;V extends NumberVector&gt;): double</text><ellipse cx="3110.5" cy="424.9453" fill="#84BE84" rx="3" ry="3" style="stroke:#038048;stroke-width:1.0;"/><text fill="#000000" font-family="sans-serif" font-size="14" lengthAdjust="spacing" text-decoration="underline" textLength="897" x="3119.5" y="428.292">logLikelihoodZhao(Relation&lt;? extends NumberVector&gt;, Clustering&lt;? extends MeanModel&gt;, NumberVectorDistance&lt;?&gt;): double</text><ellipse cx="3110.5" cy="441.2422" fill="#84BE84" rx="3" ry="3" style="stroke:#038048;stroke-width:1.0;"/><text fill="#000000" font-family="sans-serif" font-size="14" lengthAdjust="spacing" textLength="233" x="3119.5" y="444.5889">isBetter(double, double): boolean</text></g></a><!--MD5=[27ff86cde2ee9a829e18a2cdf2548f82]
class elki.clustering.kmeans.quality.BayesianInformationCriterionXMeans--><a href="BayesianInformationCriterionXMeans.html" target="_top" title="BayesianInformationCriterionXMeans.html" xlink:actuate="onRequest" xlink:href="BayesianInformationCriterionXMeans.html" xlink:show="new" xlink:title="BayesianInformationCriterionXMeans.html" xlink:type="simple"><g id="elem_elki.clustering.kmeans.quality.BayesianInformationCriterionXMeans"><rect codeLine="25" fill="#F1F1F1" height="96.8906" id="elki.clustering.kmeans.quality.BayesianInformationCriterionXMeans" rx="2.5" ry="2.5" style="stroke:#181818;stroke-width:0.5;" width="991" x="4125.5" y="355"/><ellipse cx="4489.75" cy="371" fill="#ADD1B2" rx="11" ry="11" style="stroke:#181818;stroke-width:1.0;"/><path d="M4492.7188,376.6406 Q4492.1406,376.9375 4491.5,377.0781 Q4490.8594,377.2344 4490.1563,377.2344 Q4487.6563,377.2344 4486.3281,375.5938 Q4485.0156,373.9375 4485.0156,370.8125 Q4485.0156,367.6875 4486.3281,366.0313 Q4487.6563,364.375 4490.1563,364.375 Q4490.8594,364.375 4491.5,364.5313 Q4492.1563,364.6875 4492.7188,364.9844 L4492.7188,367.7031 Q4492.0938,367.125 4491.5,366.8594 Q4490.9063,366.5781 4490.2813,366.5781 Q4488.9375,366.5781 4488.25,367.6563 Q4487.5625,368.7188 4487.5625,370.8125 Q4487.5625,372.9063 4488.25,373.9844 Q4488.9375,375.0469 4490.2813,375.0469 Q4490.9063,375.0469 4491.5,374.7813 Q4492.0938,374.5 4492.7188,373.9219 L4492.7188,376.6406 Z " fill="#000000"/><text fill="#000000" font-family="sans-serif" font-size="14" lengthAdjust="spacing" textLength="254" x="4510.25" y="375.8467">BayesianInformationCriterionXMeans</text><line style="stroke:#181818;stroke-width:0.5;" x1="4126.5" x2="5115.5" y1="387" y2="387"/><line style="stroke:#181818;stroke-width:0.5;" x1="4126.5" x2="5115.5" y1="395" y2="395"/><ellipse cx="4136.5" cy="408.6484" fill="#84BE84" rx="3" ry="3" style="stroke:#038048;stroke-width:1.0;"/><text fill="#000000" font-family="sans-serif" font-size="14" lengthAdjust="spacing" textLength="965" x="4145.5" y="411.9951">quality(Clustering&lt;? extends MeanModel&gt;, NumberVectorDistance&lt;? super NumberVector&gt;, Relation&lt;V extends NumberVector&gt;): double</text><ellipse cx="4136.5" cy="424.9453" fill="#84BE84" rx="3" ry="3" style="stroke:#038048;stroke-width:1.0;"/><text fill="#000000" font-family="sans-serif" font-size="14" lengthAdjust="spacing" text-decoration="underline" textLength="918" x="4145.5" y="428.292">logLikelihoodXMeans(Relation&lt;? extends NumberVector&gt;, Clustering&lt;? extends MeanModel&gt;, NumberVectorDistance&lt;?&gt;): double</text><ellipse cx="4136.5" cy="441.2422" fill="#84BE84" rx="3" ry="3" style="stroke:#038048;stroke-width:1.0;"/><text fill="#000000" font-family="sans-serif" font-size="14" lengthAdjust="spacing" textLength="233" x="4145.5" y="444.5889">isBetter(double, double): boolean</text></g></a><!--MD5=[7408a2c40f9c85e4873c45147941cdfa]
class elki.clustering.kmeans.quality.KMeansQualityMeasure--><a href="KMeansQualityMeasure.html" target="_top" title="KMeansQualityMeasure.html" xlink:actuate="onRequest" xlink:href="KMeansQualityMeasure.html" xlink:show="new" xlink:title="KMeansQualityMeasure.html" xlink:type="simple"><g id="elem_elki.clustering.kmeans.quality.KMeansQualityMeasure"><rect codeLine="31" fill="#F1F1F1" height="80.5938" id="elki.clustering.kmeans.quality.KMeansQualityMeasure" rx="2.5" ry="2.5" style="stroke:#181818;stroke-width:0.5;" width="1012" x="3087" y="41"/><ellipse cx="3429.25" cy="57" fill="#B4A7E5" rx="11" ry="11" style="stroke:#181818;stroke-width:1.0;"/><path d="M3425.1719,52.7656 L3425.1719,50.6094 L3432.5625,50.6094 L3432.5625,52.7656 L3430.0938,52.7656 L3430.0938,60.8438 L3432.5625,60.8438 L3432.5625,63 L3425.1719,63 L3425.1719,60.8438 L3427.6406,60.8438 L3427.6406,52.7656 L3425.1719,52.7656 Z " fill="#000000"/><text fill="#000000" font-family="sans-serif" font-size="14" font-style="italic" lengthAdjust="spacing" textLength="165" x="3449.75" y="61.8467">KMeansQualityMeasure</text><rect fill="#FFFFFF" height="15.9688" style="stroke:#181818;stroke-width:1.0;stroke-dasharray:2.0,2.0;" width="152" x="3950" y="38"/><text fill="#000000" font-family="sans-serif" font-size="12" font-style="italic" lengthAdjust="spacing" textLength="150" x="3951" y="50.1387">O extends NumberVector</text><line style="stroke:#181818;stroke-width:0.5;" x1="3088" x2="4098" y1="73" y2="73"/><line style="stroke:#181818;stroke-width:0.5;" x1="3088" x2="4098" y1="81" y2="81"/><ellipse cx="3098" cy="94.6484" fill="#84BE84" rx="3" ry="3" style="stroke:#038048;stroke-width:1.0;"/><text fill="#000000" font-family="sans-serif" font-size="14" font-style="italic" lengthAdjust="spacing" textLength="986" x="3107" y="97.9951">quality(Clustering&lt;? extends MeanModel&gt;, NumberVectorDistance&lt;? super NumberVector&gt;, Relation&lt;V extends NumberVector&gt;): double</text><ellipse cx="3098" cy="110.9453" fill="#84BE84" rx="3" ry="3" style="stroke:#038048;stroke-width:1.0;"/><text fill="#000000" font-family="sans-serif" font-size="14" font-style="italic" lengthAdjust="spacing" textLength="237" x="3107" y="114.292">isBetter(double, double): boolean</text></g></a><!--MD5=[60b460a000b68787e0a1647575411489]
class elki.clustering.kmeans.quality.AbstractKMeansQualityMeasure--><a href="AbstractKMeansQualityMeasure.html" target="_top" title="AbstractKMeansQualityMeasure.html" xlink:actuate="onRequest" xlink:href="AbstractKMeansQualityMeasure.html" xlink:show="new" xlink:title="AbstractKMeansQualityMeasure.html" xlink:type="simple"><g id="elem_elki.clustering.kmeans.quality.AbstractKMeansQualityMeasure"><rect codeLine="36" fill="#F1F1F1" height="113.1875" id="elki.clustering.kmeans.quality.AbstractKMeansQualityMeasure" rx="2.5" ry="2.5" style="stroke:#181818;stroke-width:0.5;" width="982" x="2591" y="182"/><ellipse cx="2889.25" cy="198" fill="#A9DCDF" rx="11" ry="11" style="stroke:#181818;stroke-width:1.0;"/><path d="M2889.3594,193.3438 L2888.2031,198.4219 L2890.5313,198.4219 L2889.3594,193.3438 Z M2887.875,191.1094 L2890.8594,191.1094 L2894.2188,203.5 L2891.7656,203.5 L2891,200.4375 L2887.7188,200.4375 L2886.9688,203.5 L2884.5313,203.5 L2887.875,191.1094 Z " fill="#000000"/><text fill="#000000" font-family="sans-serif" font-size="14" font-style="italic" lengthAdjust="spacing" textLength="223" x="2909.75" y="202.8467">AbstractKMeansQualityMeasure</text><rect fill="#FFFFFF" height="15.9688" style="stroke:#181818;stroke-width:1.0;stroke-dasharray:2.0,2.0;" width="152" x="3424" y="179"/><text fill="#000000" font-family="sans-serif" font-size="12" font-style="italic" lengthAdjust="spacing" textLength="150" x="3425" y="191.1387">O extends NumberVector</text><line style="stroke:#181818;stroke-width:0.5;" x1="2592" x2="3572" y1="214" y2="214"/><line style="stroke:#181818;stroke-width:0.5;" x1="2592" x2="3572" y1="222" y2="222"/><ellipse cx="2602" cy="235.6484" fill="#84BE84" rx="3" ry="3" style="stroke:#038048;stroke-width:1.0;"/><text fill="#000000" font-family="sans-serif" font-size="14" lengthAdjust="spacing" text-decoration="underline" textLength="355" x="2611" y="238.9951">numPoints(Clustering&lt;? extends MeanModel&gt;): int</text><ellipse cx="2602" cy="251.9453" fill="#84BE84" rx="3" ry="3" style="stroke:#038048;stroke-width:1.0;"/><text fill="#000000" font-family="sans-serif" font-size="14" lengthAdjust="spacing" text-decoration="underline" textLength="956" x="2611" y="255.292">varianceContributionOfCluster(Cluster&lt;? extends MeanModel&gt;, NumberVectorDistance&lt;?&gt;, Relation&lt;? extends NumberVector&gt;): double</text><ellipse cx="2602" cy="268.2422" fill="#84BE84" rx="3" ry="3" style="stroke:#038048;stroke-width:1.0;"/><text fill="#000000" font-family="sans-serif" font-size="14" lengthAdjust="spacing" text-decoration="underline" textLength="861" x="2611" y="271.5889">logLikelihood(Relation&lt;? extends NumberVector&gt;, Clustering&lt;? extends MeanModel&gt;, NumberVectorDistance&lt;?&gt;): double</text><ellipse cx="2602" cy="284.5391" fill="#84BE84" rx="3" ry="3" style="stroke:#038048;stroke-width:1.0;"/><text fill="#000000" font-family="sans-serif" font-size="14" lengthAdjust="spacing" text-decoration="underline" textLength="719" x="2611" y="287.8857">numberOfFreeParameters(Relation&lt;? extends NumberVector&gt;, Clustering&lt;? extends MeanModel&gt;): int</text></g></a><!--MD5=[cfc87effa5f222032eb484974e1a0a97]
class elki.clustering.kmeans.quality.WithinClusterMeanDistance--><a href="WithinClusterMeanDistance.html" target="_top" title="WithinClusterMeanDistance.html" xlink:actuate="onRequest" xlink:href="WithinClusterMeanDistance.html" xlink:show="new" xlink:title="WithinClusterMeanDistance.html" xlink:type="simple"><g id="elem_elki.clustering.kmeans.quality.WithinClusterMeanDistance"><rect codeLine="43" fill="#F1F1F1" height="80.5938" id="elki.clustering.kmeans.quality.WithinClusterMeanDistance" rx="2.5" ry="2.5" style="stroke:#181818;stroke-width:0.5;" width="991" x="3608.5" y="198"/><ellipse cx="4004.75" cy="214" fill="#ADD1B2" rx="11" ry="11" style="stroke:#181818;stroke-width:1.0;"/><path d="M4007.7188,219.6406 Q4007.1406,219.9375 4006.5,220.0781 Q4005.8594,220.2344 4005.1563,220.2344 Q4002.6563,220.2344 4001.3281,218.5938 Q4000.0156,216.9375 4000.0156,213.8125 Q4000.0156,210.6875 4001.3281,209.0313 Q4002.6563,207.375 4005.1563,207.375 Q4005.8594,207.375 4006.5,207.5313 Q4007.1563,207.6875 4007.7188,207.9844 L4007.7188,210.7031 Q4007.0938,210.125 4006.5,209.8594 Q4005.9063,209.5781 4005.2813,209.5781 Q4003.9375,209.5781 4003.25,210.6563 Q4002.5625,211.7188 4002.5625,213.8125 Q4002.5625,215.9063 4003.25,216.9844 Q4003.9375,218.0469 4005.2813,218.0469 Q4005.9063,218.0469 4006.5,217.7813 Q4007.0938,217.5 4007.7188,216.9219 L4007.7188,219.6406 Z " fill="#000000"/><text fill="#000000" font-family="sans-serif" font-size="14" lengthAdjust="spacing" textLength="190" x="4025.25" y="218.8467">WithinClusterMeanDistance</text><line style="stroke:#181818;stroke-width:0.5;" x1="3609.5" x2="4598.5" y1="230" y2="230"/><line style="stroke:#181818;stroke-width:0.5;" x1="3609.5" x2="4598.5" y1="238" y2="238"/><ellipse cx="3619.5" cy="251.6484" fill="#84BE84" rx="3" ry="3" style="stroke:#038048;stroke-width:1.0;"/><text fill="#000000" font-family="sans-serif" font-size="14" lengthAdjust="spacing" textLength="965" x="3628.5" y="254.9951">quality(Clustering&lt;? extends MeanModel&gt;, NumberVectorDistance&lt;? super NumberVector&gt;, Relation&lt;V extends NumberVector&gt;): double</text><ellipse cx="3619.5" cy="267.9453" fill="#84BE84" rx="3" ry="3" style="stroke:#038048;stroke-width:1.0;"/><text fill="#000000" font-family="sans-serif" font-size="14" lengthAdjust="spacing" textLength="233" x="3628.5" y="271.292">isBetter(double, double): boolean</text></g></a><!--MD5=[00bc0c9ab960ef2c37e9083fabc9e8c7]
class elki.clustering.kmeans.quality.BayesianInformationCriterion--><a href="BayesianInformationCriterion.html" target="_top" title="BayesianInformationCriterion.html" xlink:actuate="onRequest" xlink:href="BayesianInformationCriterion.html" xlink:show="new" xlink:title="BayesianInformationCriterion.html" xlink:type="simple"><g id="elem_elki.clustering.kmeans.quality.BayesianInformationCriterion"><rect codeLine="48" fill="#F1F1F1" height="80.5938" id="elki.clustering.kmeans.quality.BayesianInformationCriterion" rx="2.5" ry="2.5" style="stroke:#181818;stroke-width:0.5;" width="991" x="5151.5" y="363"/><ellipse cx="5544.25" cy="379" fill="#ADD1B2" rx="11" ry="11" style="stroke:#181818;stroke-width:1.0;"/><path d="M5547.2188,384.6406 Q5546.6406,384.9375 5546,385.0781 Q5545.3594,385.2344 5544.6563,385.2344 Q5542.1563,385.2344 5540.8281,383.5938 Q5539.5156,381.9375 5539.5156,378.8125 Q5539.5156,375.6875 5540.8281,374.0313 Q5542.1563,372.375 5544.6563,372.375 Q5545.3594,372.375 5546,372.5313 Q5546.6563,372.6875 5547.2188,372.9844 L5547.2188,375.7031 Q5546.5938,375.125 5546,374.8594 Q5545.4063,374.5781 5544.7813,374.5781 Q5543.4375,374.5781 5542.75,375.6563 Q5542.0625,376.7188 5542.0625,378.8125 Q5542.0625,380.9063 5542.75,381.9844 Q5543.4375,383.0469 5544.7813,383.0469 Q5545.4063,383.0469 5546,382.7813 Q5546.5938,382.5 5547.2188,381.9219 L5547.2188,384.6406 Z " fill="#000000"/><text fill="#000000" font-family="sans-serif" font-size="14" lengthAdjust="spacing" textLength="197" x="5564.75" y="383.8467">BayesianInformationCriterion</text><line style="stroke:#181818;stroke-width:0.5;" x1="5152.5" x2="6141.5" y1="395" y2="395"/><line style="stroke:#181818;stroke-width:0.5;" x1="5152.5" x2="6141.5" y1="403" y2="403"/><ellipse cx="5162.5" cy="416.6484" fill="#84BE84" rx="3" ry="3" style="stroke:#038048;stroke-width:1.0;"/><text fill="#000000" font-family="sans-serif" font-size="14" lengthAdjust="spacing" textLength="965" x="5171.5" y="419.9951">quality(Clustering&lt;? extends MeanModel&gt;, NumberVectorDistance&lt;? super NumberVector&gt;, Relation&lt;V extends NumberVector&gt;): double</text><ellipse cx="5162.5" cy="432.9453" fill="#84BE84" rx="3" ry="3" style="stroke:#038048;stroke-width:1.0;"/><text fill="#000000" font-family="sans-serif" font-size="14" lengthAdjust="spacing" textLength="233" x="5171.5" y="436.292">isBetter(double, double): boolean</text></g></a><!--MD5=[a3c44e4211f94329ffb2a0ff31cc81a9]
reverse link elki.clustering.kmeans.quality.AbstractKMeansQualityMeasure to elki.clustering.kmeans.quality.WithinClusterVariance--><g id="link_elki.clustering.kmeans.quality.AbstractKMeansQualityMeasure_elki.clustering.kmeans.quality.WithinClusterVariance"><path codeLine="53" d="M2570.62,263.15 C2155.28,283.59 1554.49,315.97 1030,355 C997.33,357.43 963.51,360.14 929.54,362.99 " fill="none" id="elki.clustering.kmeans.quality.AbstractKMeansQualityMeasure-backto-elki.clustering.kmeans.quality.WithinClusterVariance" style="stroke:#181818;stroke-width:1.0;"/><polygon fill="none" points="2570.56,256.14,2590.88,262.16,2571.25,270.13,2570.56,256.14" style="stroke:#181818;stroke-width:1.0;"/></g><!--MD5=[a6a696d8dcaa88da038493cf9f057453]
reverse link elki.clustering.kmeans.quality.AbstractKMeansQualityMeasure to elki.clustering.kmeans.quality.AkaikeInformationCriterionXMeans--><g id="link_elki.clustering.kmeans.quality.AbstractKMeansQualityMeasure_elki.clustering.kmeans.quality.AkaikeInformationCriterionXMeans"><path codeLine="54" d="M2570.87,293.63 C2356.93,316.29 2112.84,342.15 1916.23,362.97 " fill="none" id="elki.clustering.kmeans.quality.AbstractKMeansQualityMeasure-backto-elki.clustering.kmeans.quality.AkaikeInformationCriterionXMeans" style="stroke:#181818;stroke-width:1.0;"/><polygon fill="none" points="2570.19,286.67,2590.82,291.52,2571.67,300.59,2570.19,286.67" style="stroke:#181818;stroke-width:1.0;"/></g><!--MD5=[f12ba2d4ecb6349527b4be6003360ddd]
reverse link elki.clustering.kmeans.quality.AbstractKMeansQualityMeasure to elki.clustering.kmeans.quality.AkaikeInformationCriterion--><g id="link_elki.clustering.kmeans.quality.AbstractKMeansQualityMeasure_elki.clustering.kmeans.quality.AkaikeInformationCriterion"><path codeLine="55" d="M2888.1,301.11 C2822.83,321.85 2751.8,344.42 2693.36,362.99 " fill="none" id="elki.clustering.kmeans.quality.AbstractKMeansQualityMeasure-backto-elki.clustering.kmeans.quality.AkaikeInformationCriterion" style="stroke:#181818;stroke-width:1.0;"/><polygon fill="none" points="2886.07,294.41,2907.25,295.03,2890.31,307.75,2886.07,294.41" style="stroke:#181818;stroke-width:1.0;"/></g><!--MD5=[d433177784f50489b8510f8fbe0c3c8b]
reverse link elki.clustering.kmeans.quality.AbstractKMeansQualityMeasure to elki.clustering.kmeans.quality.BayesianInformationCriterionZhao--><g id="link_elki.clustering.kmeans.quality.AbstractKMeansQualityMeasure_elki.clustering.kmeans.quality.BayesianInformationCriterionZhao"><path codeLine="56" d="M3275.98,301.14 C3332.04,318.95 3392.35,338.11 3445.27,354.92 " fill="none" id="elki.clustering.kmeans.quality.AbstractKMeansQualityMeasure-backto-elki.clustering.kmeans.quality.BayesianInformationCriterionZhao" style="stroke:#181818;stroke-width:1.0;"/><polygon fill="none" points="3273.69,307.75,3256.75,295.03,3277.93,294.41,3273.69,307.75" style="stroke:#181818;stroke-width:1.0;"/></g><!--MD5=[4d51e258780f3eb8ad16814917c7ef3a]
reverse link elki.clustering.kmeans.quality.AbstractKMeansQualityMeasure to elki.clustering.kmeans.quality.BayesianInformationCriterionXMeans--><g id="link_elki.clustering.kmeans.quality.AbstractKMeansQualityMeasure_elki.clustering.kmeans.quality.BayesianInformationCriterionXMeans"><path codeLine="57" d="M3593.38,295.25 C3791.02,316.32 3989.08,337.06 4161.41,354.99 " fill="none" id="elki.clustering.kmeans.quality.AbstractKMeansQualityMeasure-backto-elki.clustering.kmeans.quality.BayesianInformationCriterionXMeans" style="stroke:#181818;stroke-width:1.0;"/><polygon fill="none" points="3592.47,302.19,3573.32,293.11,3593.95,288.27,3592.47,302.19" style="stroke:#181818;stroke-width:1.0;"/></g><!--MD5=[12f0af5a64136d7ac76ef187ee7939d0]
reverse link elki.clustering.kmeans.quality.KMeansQualityMeasure to elki.clustering.kmeans.quality.AbstractKMeansQualityMeasure--><g id="link_elki.clustering.kmeans.quality.KMeansQualityMeasure_elki.clustering.kmeans.quality.AbstractKMeansQualityMeasure"><path codeLine="58" d="M3443.35,127.89 C3387.54,144.82 3323.53,164.24 3265.05,181.98 " fill="none" id="elki.clustering.kmeans.quality.KMeansQualityMeasure-backto-elki.clustering.kmeans.quality.AbstractKMeansQualityMeasure" style="stroke:#181818;stroke-width:1.0;stroke-dasharray:7.0,7.0;"/><polygon fill="none" points="3441.56,121.12,3462.73,122.01,3445.62,134.52,3441.56,121.12" style="stroke:#181818;stroke-width:1.0;"/></g><!--MD5=[30b87c2b23182a4e1eb8b232b07ee61e]
reverse link elki.clustering.kmeans.quality.KMeansQualityMeasure to elki.clustering.kmeans.quality.WithinClusterMeanDistance--><g id="link_elki.clustering.kmeans.quality.KMeansQualityMeasure_elki.clustering.kmeans.quality.WithinClusterMeanDistance"><path codeLine="59" d="M3742.53,127.86 C3815.74,150.06 3903.05,176.55 3973.53,197.92 " fill="none" id="elki.clustering.kmeans.quality.KMeansQualityMeasure-backto-elki.clustering.kmeans.quality.WithinClusterMeanDistance" style="stroke:#181818;stroke-width:1.0;stroke-dasharray:7.0,7.0;"/><polygon fill="none" points="3740.38,134.52,3723.27,122.01,3744.44,121.12,3740.38,134.52" style="stroke:#181818;stroke-width:1.0;"/></g><!--MD5=[5081ef18a9889d5e4f626b670a9944da]
reverse link elki.clustering.kmeans.quality.AbstractKMeansQualityMeasure to elki.clustering.kmeans.quality.BayesianInformationCriterion--><g id="link_elki.clustering.kmeans.quality.AbstractKMeansQualityMeasure_elki.clustering.kmeans.quality.BayesianInformationCriterion"><path codeLine="60" d="M3593.44,295.13 C4278.83,344.88 4455.78,310.45 5134,355 C5169.14,357.31 5205.61,360.03 5242.17,362.98 " fill="none" id="elki.clustering.kmeans.quality.AbstractKMeansQualityMeasure-backto-elki.clustering.kmeans.quality.BayesianInformationCriterion" style="stroke:#181818;stroke-width:1.0;"/><polygon fill="none" points="3592.71,302.1,3573.28,293.66,3593.73,288.14,3592.71,302.1" style="stroke:#181818;stroke-width:1.0;"/></g><rect fill="none" height="11.6406" style="stroke:none;stroke-width:1.0;" width="186" x="2982.5" y="474"/><text fill="#888888" font-family="sans-serif" font-size="10" lengthAdjust="spacing" textLength="186" x="2982.5" y="483.2822">UMLDoclet 2.0.19, PlantUML 1.2022.8</text><!--MD5=[2c27a01620963d45e427487241a643a9]
@startuml
    remove .*\.(Instance|Par|Parameterizer|Factory)$
    namespace elki.clustering.kmeans.quality {

        class WithinClusterVariance [[WithinClusterVariance.html]] {
            +quality(Clustering<? extends MeanModel>, NumberVectorDistance<? super NumberVector>, Relation<V extends NumberVector>): double
            +isBetter(double, double): boolean
        }

        class AkaikeInformationCriterionXMeans [[AkaikeInformationCriterionXMeans.html]] {
            +quality(Clustering<? extends MeanModel>, NumberVectorDistance<? super NumberVector>, Relation<V extends NumberVector>): double
            +isBetter(double, double): boolean
        }

        class AkaikeInformationCriterion [[AkaikeInformationCriterion.html]] {
            +quality(Clustering<? extends MeanModel>, NumberVectorDistance<? super NumberVector>, Relation<V extends NumberVector>): double
            +isBetter(double, double): boolean
        }

        class BayesianInformationCriterionZhao [[BayesianInformationCriterionZhao.html]] {
            +quality(Clustering<? extends MeanModel>, NumberVectorDistance<? super NumberVector>, Relation<V extends NumberVector>): double
            {static} +logLikelihoodZhao(Relation<? extends NumberVector>, Clustering<? extends MeanModel>, NumberVectorDistance<?>): double
            +isBetter(double, double): boolean
        }

        class BayesianInformationCriterionXMeans [[BayesianInformationCriterionXMeans.html]] {
            +quality(Clustering<? extends MeanModel>, NumberVectorDistance<? super NumberVector>, Relation<V extends NumberVector>): double
            {static} +logLikelihoodXMeans(Relation<? extends NumberVector>, Clustering<? extends MeanModel>, NumberVectorDistance<?>): double
            +isBetter(double, double): boolean
        }

        interface KMeansQualityMeasure<O extends NumberVector> [[KMeansQualityMeasure.html]] {
            {abstract} +quality(Clustering<? extends MeanModel>, NumberVectorDistance<? super NumberVector>, Relation<V extends NumberVector>): double
            {abstract} +isBetter(double, double): boolean
        }

        abstract class AbstractKMeansQualityMeasure<O extends NumberVector> [[AbstractKMeansQualityMeasure.html]] {
            {static} +numPoints(Clustering<? extends MeanModel>): int
            {static} +varianceContributionOfCluster(Cluster<? extends MeanModel>, NumberVectorDistance<?>, Relation<? extends NumberVector>): double
            {static} +logLikelihood(Relation<? extends NumberVector>, Clustering<? extends MeanModel>, NumberVectorDistance<?>): double
            {static} +numberOfFreeParameters(Relation<? extends NumberVector>, Clustering<? extends MeanModel>): int
        }

        class WithinClusterMeanDistance [[WithinClusterMeanDistance.html]] {
            +quality(Clustering<? extends MeanModel>, NumberVectorDistance<? super NumberVector>, Relation<V extends NumberVector>): double
            +isBetter(double, double): boolean
        }

        class BayesianInformationCriterion [[BayesianInformationCriterion.html]] {
            +quality(Clustering<? extends MeanModel>, NumberVectorDistance<? super NumberVector>, Relation<V extends NumberVector>): double
            +isBetter(double, double): boolean
        }

        AbstractKMeansQualityMeasure <|- - WithinClusterVariance
        AbstractKMeansQualityMeasure <|- - AkaikeInformationCriterionXMeans
        AbstractKMeansQualityMeasure <|- - AkaikeInformationCriterion
        AbstractKMeansQualityMeasure <|- - BayesianInformationCriterionZhao
        AbstractKMeansQualityMeasure <|- - BayesianInformationCriterionXMeans
        KMeansQualityMeasure <|.. AbstractKMeansQualityMeasure
        KMeansQualityMeasure <|.. WithinClusterMeanDistance
        AbstractKMeansQualityMeasure <|- - BayesianInformationCriterion
    }

    center footer UMLDoclet 2.0.19, PlantUML 1.2022.8
@enduml

PlantUML version 1.2022.8(Sun Sep 25 11:00:33 CEST 2022)
(APACHE source distribution)
Java Runtime: OpenJDK Runtime Environment
JVM: OpenJDK 64-Bit Server VM
Default Encoding: UTF-8
Language: de
Country: DE
--></g></svg>