<?xml version="1.0" encoding="UTF-8" standalone="no"?><svg xmlns="http://www.w3.org/2000/svg" xmlns:xlink="http://www.w3.org/1999/xlink" contentStyleType="text/css" height="233px" preserveAspectRatio="none" style="width:373px;height:233px;background:#FFFFFF;" version="1.1" viewBox="0 0 373 233" width="373px" zoomAndPan="magnify"><defs/><g><!--MD5=[a4c3799105fa0c75da54e8dcb05aa9ce]
class elki.similarity.kernel.LaplaceKernel--><a href="LaplaceKernel.html" target="_top" title="LaplaceKernel.html" xlink:actuate="onRequest" xlink:href="LaplaceKernel.html" xlink:show="new" xlink:title="LaplaceKernel.html" xlink:type="simple"><g id="elem_elki.similarity.kernel.LaplaceKernel"><rect codeLine="6" fill="#F1F1F1" height="102.8281" id="elki.similarity.kernel.LaplaceKernel" rx="2.5" ry="2.5" style="stroke:#181818;stroke-width:0.5;" width="359" x="7" y="105"/><ellipse cx="134.25" cy="123.9688" fill="#ADD1B2" rx="11" ry="11" style="stroke:#181818;stroke-width:1.0;"/><path d="M137.2188,129.6094 Q136.6406,129.9063 136,130.0469 Q135.3594,130.2031 134.6563,130.2031 Q132.1563,130.2031 130.8281,128.5625 Q129.5156,126.9063 129.5156,123.7813 Q129.5156,120.6563 130.8281,119 Q132.1563,117.3438 134.6563,117.3438 Q135.3594,117.3438 136,117.5 Q136.6563,117.6563 137.2188,117.9531 L137.2188,120.6719 Q136.5938,120.0938 136,119.8281 Q135.4063,119.5469 134.7813,119.5469 Q133.4375,119.5469 132.75,120.625 Q132.0625,121.6875 132.0625,123.7813 Q132.0625,125.875 132.75,126.9531 Q133.4375,128.0156 134.7813,128.0156 Q135.4063,128.0156 136,127.75 Q136.5938,127.4688 137.2188,126.8906 L137.2188,129.6094 Z " fill="#000000"/><text fill="#000000" font-family="sans-serif" font-size="14" lengthAdjust="spacing" textLength="96" x="154.75" y="122.9951">LaplaceKernel</text><text fill="#000000" font-family="sans-serif" font-size="10" lengthAdjust="spacing" textLength="93" x="156.25" y="135.5791">elki.similarity.kernel</text><line style="stroke:#181818;stroke-width:0.5;" x1="8" x2="365" y1="142.9375" y2="142.9375"/><rect fill="none" height="6" style="stroke:#C82930;stroke-width:1.0;" width="6" x="15" y="153.5859"/><text fill="#000000" font-family="sans-serif" font-size="14" lengthAdjust="spacing" textLength="121" x="27" y="159.9326">mgamma: double</text><line style="stroke:#181818;stroke-width:0.5;" x1="8" x2="365" y1="167.2344" y2="167.2344"/><ellipse cx="18" cy="180.8828" fill="#84BE84" rx="3" ry="3" style="stroke:#038048;stroke-width:1.0;"/><text fill="#000000" font-family="sans-serif" font-size="14" lengthAdjust="spacing" textLength="154" x="27" y="184.2295">LaplaceKernel(double)</text><ellipse cx="18" cy="197.1797" fill="#84BE84" rx="3" ry="3" style="stroke:#038048;stroke-width:1.0;"/><text fill="#000000" font-family="sans-serif" font-size="14" lengthAdjust="spacing" textLength="333" x="27" y="200.5264">similarity(NumberVector, NumberVector): double</text></g></a><!--MD5=[a18595805cb4bf2100af827178645cdb]
class elki.similarity.AbstractVectorSimilarity--><a href="../AbstractVectorSimilarity.html" target="_top" title="../AbstractVectorSimilarity.html" xlink:actuate="onRequest" xlink:href="../AbstractVectorSimilarity.html" xlink:show="new" xlink:title="../AbstractVectorSimilarity.html" xlink:type="simple"><g id="elem_elki.similarity.AbstractVectorSimilarity"><rect codeLine="12" fill="#F1F1F1" height="37.9375" id="elki.similarity.AbstractVectorSimilarity" rx="2.5" ry="2.5" style="stroke:#181818;stroke-width:0.5;" width="202" x="85.5" y="7"/><ellipse cx="100.5" cy="25.9688" fill="#A9DCDF" rx="11" ry="11" style="stroke:#181818;stroke-width:1.0;"/><path d="M100.6094,21.3125 L99.4531,26.3906 L101.7813,26.3906 L100.6094,21.3125 Z M99.125,19.0781 L102.1094,19.0781 L105.4688,31.4688 L103.0156,31.4688 L102.25,28.4063 L98.9688,28.4063 L98.2188,31.4688 L95.7813,31.4688 L99.125,19.0781 Z " fill="#000000"/><text fill="#000000" font-family="sans-serif" font-size="14" font-style="italic" lengthAdjust="spacing" textLength="170" x="114.5" y="24.9951">AbstractVectorSimilarity</text><text fill="#000000" font-family="sans-serif" font-size="10" font-style="italic" lengthAdjust="spacing" textLength="68" x="165.5" y="37.5791">elki.similarity</text></g></a><!--MD5=[432bd16c6c9d336bfa29e96c7c5c962b]
reverse link elki.similarity.AbstractVectorSimilarity to elki.similarity.kernel.LaplaceKernel--><g id="link_elki.similarity.AbstractVectorSimilarity_elki.similarity.kernel.LaplaceKernel"><path codeLine="15" d="M186.5,65.26 C186.5,77.65 186.5,91.59 186.5,104.74 " fill="none" id="elki.similarity.AbstractVectorSimilarity-backto-elki.similarity.kernel.LaplaceKernel" style="stroke:#181818;stroke-width:1.0;"/><polygon fill="none" points="179.5,65.14,186.5,45.14,193.5,65.14,179.5,65.14" style="stroke:#181818;stroke-width:1.0;"/></g><rect fill="none" height="11.6406" style="stroke:none;stroke-width:1.0;" width="186" x="86.5" y="213.8281"/><text fill="#888888" font-family="sans-serif" font-size="10" lengthAdjust="spacing" textLength="186" x="86.5" y="223.1104">UMLDoclet 2.0.19, PlantUML 1.2022.8</text><!--MD5=[2cc557ae2d0abcc96407ca912faae931]
@startuml
    remove .*\.(Instance|Par|Parameterizer|Factory)$
    set namespaceSeparator none
    hide empty fields
    hide empty methods

    class "<size:14>LaplaceKernel\n<size:10>elki.similarity.kernel" as elki.similarity.kernel.LaplaceKernel [[LaplaceKernel.html]] {
        -mgamma: double
        +LaplaceKernel(double)
        +similarity(NumberVector, NumberVector): double
    }

    abstract class "<size:14>AbstractVectorSimilarity\n<size:10>elki.similarity" as elki.similarity.AbstractVectorSimilarity [[../AbstractVectorSimilarity.html]]
    class "<size:14>LaplaceKernel.Par\n<size:10>elki.similarity.kernel" as elki.similarity.kernel.LaplaceKernel.Par [[LaplaceKernel.Par.html]]

    elki.similarity.AbstractVectorSimilarity <|- - elki.similarity.kernel.LaplaceKernel
    elki.similarity.kernel.LaplaceKernel +- - elki.similarity.kernel.LaplaceKernel.Par

    center footer UMLDoclet 2.0.19, PlantUML 1.2022.8
@enduml

PlantUML version 1.2022.8(Sun Sep 25 11:00:33 CEST 2022)
(APACHE source distribution)
Java Runtime: OpenJDK Runtime Environment
JVM: OpenJDK 64-Bit Server VM
Default Encoding: UTF-8
Language: de
Country: DE
--></g></svg>