<?xml version="1.0" encoding="UTF-8" standalone="no"?><svg xmlns="http://www.w3.org/2000/svg" xmlns:xlink="http://www.w3.org/1999/xlink" contentStyleType="text/css" height="249px" preserveAspectRatio="none" style="width:373px;height:249px;background:#FFFFFF;" version="1.1" viewBox="0 0 373 249" width="373px" zoomAndPan="magnify"><defs/><g><!--MD5=[c517ee3deead792a6cdd660e0efbf4cc]
class elki.similarity.kernel.SigmoidKernel--><a href="SigmoidKernel.html" target="_top" title="SigmoidKernel.html" xlink:actuate="onRequest" xlink:href="SigmoidKernel.html" xlink:show="new" xlink:title="SigmoidKernel.html" xlink:type="simple"><g id="elem_elki.similarity.kernel.SigmoidKernel"><rect codeLine="6" fill="#F1F1F1" height="119.125" id="elki.similarity.kernel.SigmoidKernel" rx="2.5" ry="2.5" style="stroke:#181818;stroke-width:0.5;" width="359" x="7" y="105"/><ellipse cx="132.75" cy="123.9688" fill="#ADD1B2" rx="11" ry="11" style="stroke:#181818;stroke-width:1.0;"/><path d="M135.7188,129.6094 Q135.1406,129.9063 134.5,130.0469 Q133.8594,130.2031 133.1563,130.2031 Q130.6563,130.2031 129.3281,128.5625 Q128.0156,126.9063 128.0156,123.7813 Q128.0156,120.6563 129.3281,119 Q130.6563,117.3438 133.1563,117.3438 Q133.8594,117.3438 134.5,117.5 Q135.1563,117.6563 135.7188,117.9531 L135.7188,120.6719 Q135.0938,120.0938 134.5,119.8281 Q133.9063,119.5469 133.2813,119.5469 Q131.9375,119.5469 131.25,120.625 Q130.5625,121.6875 130.5625,123.7813 Q130.5625,125.875 131.25,126.9531 Q131.9375,128.0156 133.2813,128.0156 Q133.9063,128.0156 134.5,127.75 Q135.0938,127.4688 135.7188,126.8906 L135.7188,129.6094 Z " fill="#000000"/><text fill="#000000" font-family="sans-serif" font-size="14" lengthAdjust="spacing" textLength="99" x="153.25" y="122.9951">SigmoidKernel</text><text fill="#000000" font-family="sans-serif" font-size="10" lengthAdjust="spacing" textLength="93" x="156.25" y="135.5791">elki.similarity.kernel</text><line style="stroke:#181818;stroke-width:0.5;" x1="8" x2="365" y1="142.9375" y2="142.9375"/><rect fill="none" height="6" style="stroke:#C82930;stroke-width:1.0;" width="6" x="15" y="153.5859"/><text fill="#000000" font-family="sans-serif" font-size="14" lengthAdjust="spacing" textLength="65" x="27" y="159.9326">c: double</text><rect fill="none" height="6" style="stroke:#C82930;stroke-width:1.0;" width="6" x="15" y="169.8828"/><text fill="#000000" font-family="sans-serif" font-size="14" lengthAdjust="spacing" textLength="93" x="27" y="176.2295">theta: double</text><line style="stroke:#181818;stroke-width:0.5;" x1="8" x2="365" y1="183.5313" y2="183.5313"/><ellipse cx="18" cy="197.1797" fill="#84BE84" rx="3" ry="3" style="stroke:#038048;stroke-width:1.0;"/><text fill="#000000" font-family="sans-serif" font-size="14" lengthAdjust="spacing" textLength="213" x="27" y="200.5264">SigmoidKernel(double, double)</text><ellipse cx="18" cy="213.4766" fill="#84BE84" rx="3" ry="3" style="stroke:#038048;stroke-width:1.0;"/><text fill="#000000" font-family="sans-serif" font-size="14" lengthAdjust="spacing" textLength="333" x="27" y="216.8232">similarity(NumberVector, NumberVector): double</text></g></a><!--MD5=[a18595805cb4bf2100af827178645cdb]
class elki.similarity.AbstractVectorSimilarity--><a href="../AbstractVectorSimilarity.html" target="_top" title="../AbstractVectorSimilarity.html" xlink:actuate="onRequest" xlink:href="../AbstractVectorSimilarity.html" xlink:show="new" xlink:title="../AbstractVectorSimilarity.html" xlink:type="simple"><g id="elem_elki.similarity.AbstractVectorSimilarity"><rect codeLine="13" fill="#F1F1F1" height="37.9375" id="elki.similarity.AbstractVectorSimilarity" rx="2.5" ry="2.5" style="stroke:#181818;stroke-width:0.5;" width="202" x="85.5" y="7"/><ellipse cx="100.5" cy="25.9688" fill="#A9DCDF" rx="11" ry="11" style="stroke:#181818;stroke-width:1.0;"/><path d="M100.6094,21.3125 L99.4531,26.3906 L101.7813,26.3906 L100.6094,21.3125 Z M99.125,19.0781 L102.1094,19.0781 L105.4688,31.4688 L103.0156,31.4688 L102.25,28.4063 L98.9688,28.4063 L98.2188,31.4688 L95.7813,31.4688 L99.125,19.0781 Z " fill="#000000"/><text fill="#000000" font-family="sans-serif" font-size="14" font-style="italic" lengthAdjust="spacing" textLength="170" x="114.5" y="24.9951">AbstractVectorSimilarity</text><text fill="#000000" font-family="sans-serif" font-size="10" font-style="italic" lengthAdjust="spacing" textLength="68" x="165.5" y="37.5791">elki.similarity</text></g></a><!--MD5=[bb2696855d9988d272826764dc84f6ba]
reverse link elki.similarity.AbstractVectorSimilarity to elki.similarity.kernel.SigmoidKernel--><g id="link_elki.similarity.AbstractVectorSimilarity_elki.similarity.kernel.SigmoidKernel"><path codeLine="16" d="M186.5,65.5 C186.5,77.69 186.5,91.46 186.5,104.73 " fill="none" id="elki.similarity.AbstractVectorSimilarity-backto-elki.similarity.kernel.SigmoidKernel" style="stroke:#181818;stroke-width:1.0;"/><polygon fill="none" points="179.5,65.13,186.5,45.13,193.5,65.13,179.5,65.13" style="stroke:#181818;stroke-width:1.0;"/></g><rect fill="none" height="11.6406" style="stroke:none;stroke-width:1.0;" width="186" x="86.5" y="230.125"/><text fill="#888888" font-family="sans-serif" font-size="10" lengthAdjust="spacing" textLength="186" x="86.5" y="239.4072">UMLDoclet 2.0.19, PlantUML 1.2022.8</text><!--MD5=[cfbfcb598b846fb855a07b6d1a0350a0]
@startuml
    remove .*\.(Instance|Par|Parameterizer|Factory)$
    set namespaceSeparator none
    hide empty fields
    hide empty methods

    class "<size:14>SigmoidKernel\n<size:10>elki.similarity.kernel" as elki.similarity.kernel.SigmoidKernel [[SigmoidKernel.html]] {
        -c: double
        -theta: double
        +SigmoidKernel(double, double)
        +similarity(NumberVector, NumberVector): double
    }

    abstract class "<size:14>AbstractVectorSimilarity\n<size:10>elki.similarity" as elki.similarity.AbstractVectorSimilarity [[../AbstractVectorSimilarity.html]]
    class "<size:14>SigmoidKernel.Par\n<size:10>elki.similarity.kernel" as elki.similarity.kernel.SigmoidKernel.Par [[SigmoidKernel.Par.html]]

    elki.similarity.AbstractVectorSimilarity <|- - elki.similarity.kernel.SigmoidKernel
    elki.similarity.kernel.SigmoidKernel +- - elki.similarity.kernel.SigmoidKernel.Par

    center footer UMLDoclet 2.0.19, PlantUML 1.2022.8
@enduml

PlantUML version 1.2022.8(Sun Sep 25 11:00:33 CEST 2022)
(APACHE source distribution)
Java Runtime: OpenJDK Runtime Environment
JVM: OpenJDK 64-Bit Server VM
Default Encoding: UTF-8
Language: de
Country: DE
--></g></svg>