<?xml version="1.0" encoding="UTF-8" standalone="no"?><svg xmlns="http://www.w3.org/2000/svg" xmlns:xlink="http://www.w3.org/1999/xlink" contentStyleType="text/css" height="69px" preserveAspectRatio="none" style="width:194px;height:69px;background:#FFFFFF;" version="1.1" viewBox="0 0 194 69" width="194px" zoomAndPan="magnify"><defs/><g><!--MD5=[c87f405b1c617221a018f732f6a191ad]
class elki.datasource.filter.selection.ShuffleObjectsFilter--><a href="ShuffleObjectsFilter.html" target="_top" title="ShuffleObjectsFilter.html" xlink:actuate="onRequest" xlink:href="ShuffleObjectsFilter.html" xlink:show="new" xlink:title="ShuffleObjectsFilter.html" xlink:type="simple"><g id="elem_elki.datasource.filter.selection.ShuffleObjectsFilter"><rect codeLine="16" fill="#F1F1F1" height="37.9375" id="elki.datasource.filter.selection.ShuffleObjectsFilter" rx="2.5" ry="2.5" style="stroke:#181818;stroke-width:0.5;" width="174" x="13" y="7"/><ellipse cx="28" cy="25.9688" fill="#ADD1B2" rx="11" ry="11" style="stroke:#181818;stroke-width:1.0;"/><path d="M30.9688,31.6094 Q30.3906,31.9063 29.75,32.0469 Q29.1094,32.2031 28.4063,32.2031 Q25.9063,32.2031 24.5781,30.5625 Q23.2656,28.9063 23.2656,25.7813 Q23.2656,22.6563 24.5781,21 Q25.9063,19.3438 28.4063,19.3438 Q29.1094,19.3438 29.75,19.5 Q30.4063,19.6563 30.9688,19.9531 L30.9688,22.6719 Q30.3438,22.0938 29.75,21.8281 Q29.1563,21.5469 28.5313,21.5469 Q27.1875,21.5469 26.5,22.625 Q25.8125,23.6875 25.8125,25.7813 Q25.8125,27.875 26.5,28.9531 Q27.1875,30.0156 28.5313,30.0156 Q29.1563,30.0156 29.75,29.75 Q30.3438,29.4688 30.9688,28.8906 L30.9688,31.6094 Z " fill="#000000"/><text fill="#000000" font-family="sans-serif" font-size="14" lengthAdjust="spacing" textLength="133" x="46.5" y="24.9951">ShuffleObjectsFilter</text><text fill="#000000" font-family="sans-serif" font-size="10" lengthAdjust="spacing" textLength="142" x="42" y="37.5791">elki.datasource.filter.selection</text></g></a><rect fill="none" height="11.6406" style="stroke:none;stroke-width:1.0;" width="186" x="0" y="49.9375"/><text fill="#888888" font-family="sans-serif" font-size="10" lengthAdjust="spacing" textLength="186" x="0" y="59.2197">UMLDoclet 2.0.19, PlantUML 1.2022.8</text><!--MD5=[7ac446457b6e49ca73fac0b18b1ee86a]
@startuml
    remove .*\.(Instance|Par|Parameterizer|Factory)$
    set namespaceSeparator none
    hide empty fields
    hide empty methods

    class "<size:14>ShuffleObjectsFilter.Par\n<size:10>elki.datasource.filter.selection" as elki.datasource.filter.selection.ShuffleObjectsFilter.Par [[ShuffleObjectsFilter.Par.html]] {
        {static} +SEED_ID: OptionID
        ~rnd: RandomFactory
        +configure(Parameterization): void
        +make(): ShuffleObjectsFilter
    }

    interface "<size:14>Parameterizer\n<size:10>elki.utilities.optionhandling" as elki.utilities.optionhandling.Parameterizer [[../../../utilities/optionhandling/Parameterizer.html]] {
        {abstract} +make(): Object
    }
    class "<size:14>ShuffleObjectsFilter\n<size:10>elki.datasource.filter.selection" as elki.datasource.filter.selection.ShuffleObjectsFilter [[ShuffleObjectsFilter.html]]

    elki.utilities.optionhandling.Parameterizer <|.. elki.datasource.filter.selection.ShuffleObjectsFilter.Par
    elki.datasource.filter.selection.ShuffleObjectsFilter +- - elki.datasource.filter.selection.ShuffleObjectsFilter.Par

    center footer UMLDoclet 2.0.19, PlantUML 1.2022.8
@enduml

PlantUML version 1.2022.8(Sun Sep 25 11:00:33 CEST 2022)
(APACHE source distribution)
Java Runtime: OpenJDK Runtime Environment
JVM: OpenJDK 64-Bit Server VM
Default Encoding: UTF-8
Language: de
Country: DE
--></g></svg>