<?xml version="1.0" encoding="UTF-8" standalone="no"?>
<!DOCTYPE svg PUBLIC "-//W3C//DTD SVG 1.1//EN"
 "http://www.w3.org/Graphics/SVG/1.1/DTD/svg11.dtd">
<!-- Generated by graphviz version 2.40.1 (20161225.0304)
 -->
<!-- Title: G Pages: 1 -->
<svg width="449pt" height="36pt"
 viewBox="0.00 0.00 449.00 36.00" xmlns="http://www.w3.org/2000/svg" xmlns:xlink="http://www.w3.org/1999/xlink">
<g id="graph0" class="graph" transform="scale(1 1) rotate(0) translate(4 32)">
<title>G</title>
<polygon fill="#ffffff" stroke="transparent" points="-4,4 -4,-32 445,-32 445,4 -4,4"/>
<!-- c6725427 -->
<g id="node1" class="node">
<title>c6725427</title>
<g id="a_node1"><a xlink:href="../../../../../database/query/range/AbstractDistanceRangeQuery.html" xlink:title="&lt;TABLE&gt;">
<g id="a_node1_0"><a xlink:href="../../../../../database/query/range/AbstractDistanceRangeQuery.html" xlink:title="de.lmu.ifi.dbs.elki.database.query.range.AbstractDistanceRangeQuery" target="_parent">
<polygon fill="none" stroke="#000000" points=".5,0 .5,-28 141.5,-28 141.5,0 .5,0"/>
<text text-anchor="start" x="17" y="-18.6" font-family="Roboto" font-size="8.00" fill="#000000"> </text>
<text text-anchor="start" x="20" y="-18.6" font-family="Roboto" font-style="italic" font-size="8.00" fill="#000000">AbstractDistanceRangeQuery</text>
<text text-anchor="start" x="122" y="-18.6" font-family="Roboto" font-size="8.00" fill="#000000"> </text>
<text text-anchor="start" x="4.5" y="-7.6" font-family="Roboto" font-size="8.00" fill="#000000"> </text>
<text text-anchor="start" x="7.5" y="-7.6" font-family="Roboto" font-size="7.00" fill="#000000">de.lmu.ifi.dbs.elki.database.query.range</text>
<text text-anchor="start" x="134.5" y="-7.6" font-family="Roboto" font-size="8.00" fill="#000000"> </text>
</a>
</g>
</a>
</g>
</g>
<!-- c6725590 -->
<g id="node2" class="node">
<title>c6725590</title>
<g id="a_node2"><a xlink:href="MTreeRangeQuery.html" xlink:title="&lt;TABLE&gt;">
<g id="a_node2_1"><a xlink:href="MTreeRangeQuery.html" xlink:title="de.lmu.ifi.dbs.elki.index.tree.metrical.mtreevariants.query.MTreeRangeQuery" target="_parent">
<polygon fill="#fffacd" stroke="transparent" points="159,-5.5 159,-22.5 240,-22.5 240,-5.5 159,-5.5"/>
<polygon fill="none" stroke="#000000" points="159.5,-5 159.5,-22 240.5,-22 240.5,-5 159.5,-5"/>
<text text-anchor="start" x="163.5" y="-12.6" font-family="Roboto" font-size="8.00" fill="#000000"> </text>
<text text-anchor="start" x="166.5" y="-12.6" font-family="Roboto" font-size="8.00" fill="#000000">MTreeRangeQuery</text>
<text text-anchor="start" x="233.5" y="-12.6" font-family="Roboto" font-size="8.00" fill="#000000"> </text>
</a>
</g>
</a>
</g>
</g>
<!-- c6725427&#45;&gt;c6725590 -->
<g id="edge1" class="edge">
<title>c6725427&#45;&gt;c6725590</title>
<path fill="none" stroke="#000000" d="M151.253,-14C153.8626,-14 156.4342,-14 158.9491,-14"/>
<polygon fill="none" stroke="#000000" points="151.039,-10.5001 141.039,-14 151.039,-17.5001 151.039,-10.5001"/>
</g>
<!-- c6725599 -->
<g id="node3" class="node">
<title>c6725599</title>
<g id="a_node3"><a xlink:href="../AbstractMTree.html" xlink:title="&lt;TABLE&gt;">
<g id="a_node3_2"><a xlink:href="../AbstractMTree.html" xlink:title="de.lmu.ifi.dbs.elki.index.tree.metrical.mtreevariants.AbstractMTree" target="_parent">
<polygon fill="none" stroke="#000000" points="258.5,0 258.5,-28 441.5,-28 441.5,0 258.5,0"/>
<text text-anchor="start" x="321" y="-18.6" font-family="Roboto" font-size="8.00" fill="#000000"> </text>
<text text-anchor="start" x="324" y="-18.6" font-family="Roboto" font-style="italic" font-size="8.00" fill="#000000">AbstractMTree</text>
<text text-anchor="start" x="376" y="-18.6" font-family="Roboto" font-size="8.00" fill="#000000"> </text>
<text text-anchor="start" x="262.5" y="-7.6" font-family="Roboto" font-size="8.00" fill="#000000"> </text>
<text text-anchor="start" x="265.5" y="-7.6" font-family="Roboto" font-size="7.00" fill="#000000">de.lmu.ifi.dbs.elki.index.tree.metrical.mtreevariants</text>
<text text-anchor="start" x="434.5" y="-7.6" font-family="Roboto" font-size="8.00" fill="#000000"> </text>
</a>
</g>
</a>
</g>
</g>
<!-- c6725590&#45;&gt;c6725599 -->
<g id="edge2" class="edge">
<title>c6725590&#45;&gt;c6725599</title>
<path fill="none" stroke="#000000" d="M240.0922,-14C245.7318,-14 251.7029,-14 257.8303,-14"/>
</g>
</g>
</svg>
