<?xml version="1.0" encoding="UTF-8" standalone="no"?><svg xmlns="http://www.w3.org/2000/svg" xmlns:xlink="http://www.w3.org/1999/xlink" contentStyleType="text/css" height="323px" preserveAspectRatio="none" style="width:297px;height:323px;background:#FFFFFF;" version="1.1" viewBox="0 0 297 323" width="297px" zoomAndPan="magnify"><defs/><g><!--MD5=[f147f4717ec1e27f36672ce97e723bcd]
class elki.visualization.colors.ListBasedColorLibrary--><a href="ListBasedColorLibrary.html" target="_top" title="ListBasedColorLibrary.html" xlink:actuate="onRequest" xlink:href="ListBasedColorLibrary.html" xlink:show="new" xlink:title="ListBasedColorLibrary.html" xlink:type="simple"><g id="elem_elki.visualization.colors.ListBasedColorLibrary"><rect codeLine="6" fill="#F1F1F1" height="151.7188" id="elki.visualization.colors.ListBasedColorLibrary" rx="2.5" ry="2.5" style="stroke:#181818;stroke-width:0.5;" width="281" x="9" y="146"/><ellipse cx="71.75" cy="164.9688" fill="#ADD1B2" rx="11" ry="11" style="stroke:#181818;stroke-width:1.0;"/><path d="M74.7188,170.6094 Q74.1406,170.9063 73.5,171.0469 Q72.8594,171.2031 72.1563,171.2031 Q69.6563,171.2031 68.3281,169.5625 Q67.0156,167.9063 67.0156,164.7813 Q67.0156,161.6563 68.3281,160 Q69.6563,158.3438 72.1563,158.3438 Q72.8594,158.3438 73.5,158.5 Q74.1563,158.6563 74.7188,158.9531 L74.7188,161.6719 Q74.0938,161.0938 73.5,160.8281 Q72.9063,160.5469 72.2813,160.5469 Q70.9375,160.5469 70.25,161.625 Q69.5625,162.6875 69.5625,164.7813 Q69.5625,166.875 70.25,167.9531 Q70.9375,169.0156 72.2813,169.0156 Q72.9063,169.0156 73.5,168.75 Q74.0938,168.4688 74.7188,167.8906 L74.7188,170.6094 Z " fill="#000000"/><text fill="#000000" font-family="sans-serif" font-size="14" lengthAdjust="spacing" textLength="147" x="92.25" y="163.9951">ListBasedColorLibrary</text><text fill="#000000" font-family="sans-serif" font-size="10" lengthAdjust="spacing" textLength="107" x="112.25" y="176.5791">elki.visualization.colors</text><line style="stroke:#181818;stroke-width:0.5;" x1="10" x2="289" y1="183.9375" y2="183.9375"/><rect fill="none" height="6" style="stroke:#C82930;stroke-width:1.0;" width="6" x="17" y="194.5859"/><text fill="#000000" font-family="sans-serif" font-size="14" lengthAdjust="spacing" textLength="101" x="29" y="200.9326">colors: String[]</text><rect fill="none" height="6" style="stroke:#C82930;stroke-width:1.0;" width="6" x="17" y="210.8828"/><text fill="#000000" font-family="sans-serif" font-size="14" lengthAdjust="spacing" textLength="88" x="29" y="217.2295">name: String</text><line style="stroke:#181818;stroke-width:0.5;" x1="10" x2="289" y1="224.5313" y2="224.5313"/><ellipse cx="20" cy="238.1797" fill="#84BE84" rx="3" ry="3" style="stroke:#038048;stroke-width:1.0;"/><text fill="#000000" font-family="sans-serif" font-size="14" lengthAdjust="spacing" textLength="255" x="29" y="241.5264">ListBasedColorLibrary(String[], String)</text><ellipse cx="20" cy="254.4766" fill="#84BE84" rx="3" ry="3" style="stroke:#038048;stroke-width:1.0;"/><text fill="#000000" font-family="sans-serif" font-size="14" lengthAdjust="spacing" textLength="135" x="29" y="257.8232">getColor(int): String</text><ellipse cx="20" cy="270.7734" fill="#84BE84" rx="3" ry="3" style="stroke:#038048;stroke-width:1.0;"/><text fill="#000000" font-family="sans-serif" font-size="14" lengthAdjust="spacing" textLength="215" x="29" y="274.1201">getNumberOfNativeColors(): int</text><polygon fill="#FFFF44" points="20,282.0703,24,286.0703,20,290.0703,16,286.0703" style="stroke:#B38D22;stroke-width:1.0;"/><text fill="#000000" font-family="sans-serif" font-size="14" lengthAdjust="spacing" textLength="122" x="29" y="290.417">getName(): String</text></g></a><!--MD5=[aed4ca0ae341962dcb6bab7d8aea3a9c]
class elki.visualization.colors.ColorLibrary--><a href="ColorLibrary.html" target="_top" title="ColorLibrary.html" xlink:actuate="onRequest" xlink:href="ColorLibrary.html" xlink:show="new" xlink:title="ColorLibrary.html" xlink:type="simple"><g id="elem_elki.visualization.colors.ColorLibrary"><rect codeLine="15" fill="#F1F1F1" height="78.5313" id="elki.visualization.colors.ColorLibrary" rx="2.5" ry="2.5" style="stroke:#181818;stroke-width:0.5;" width="249" x="25" y="7"/><ellipse cx="87.25" cy="25.9688" fill="#B4A7E5" rx="11" ry="11" style="stroke:#181818;stroke-width:1.0;"/><path d="M83.1719,21.7344 L83.1719,19.5781 L90.5625,19.5781 L90.5625,21.7344 L88.0938,21.7344 L88.0938,29.8125 L90.5625,29.8125 L90.5625,31.9688 L83.1719,31.9688 L83.1719,29.8125 L85.6406,29.8125 L85.6406,21.7344 L83.1719,21.7344 Z " fill="#000000"/><text fill="#000000" font-family="sans-serif" font-size="14" font-style="italic" lengthAdjust="spacing" textLength="85" x="123.25" y="24.9951">ColorLibrary</text><text fill="#000000" font-family="sans-serif" font-size="10" font-style="italic" lengthAdjust="spacing" textLength="116" x="107.75" y="37.5791">elki.visualization.colors</text><line style="stroke:#181818;stroke-width:0.5;" x1="26" x2="273" y1="44.9375" y2="44.9375"/><ellipse cx="36" cy="58.5859" fill="#84BE84" rx="3" ry="3" style="stroke:#038048;stroke-width:1.0;"/><text fill="#000000" font-family="sans-serif" font-size="14" font-style="italic" lengthAdjust="spacing" textLength="223" x="45" y="61.9326">getNumberOfNativeColors(): int</text><ellipse cx="36" cy="74.8828" fill="#84BE84" rx="3" ry="3" style="stroke:#038048;stroke-width:1.0;"/><text fill="#000000" font-family="sans-serif" font-size="14" font-style="italic" lengthAdjust="spacing" textLength="138" x="45" y="78.2295">getColor(int): String</text></g></a><!--MD5=[556186e77f6ea2a8df555ce52ef9b964]
reverse link elki.visualization.colors.ColorLibrary to elki.visualization.colors.ListBasedColorLibrary--><g id="link_elki.visualization.colors.ColorLibrary_elki.visualization.colors.ListBasedColorLibrary"><path codeLine="20" d="M149.5,106.35 C149.5,119.07 149.5,132.69 149.5,145.94 " fill="none" id="elki.visualization.colors.ColorLibrary-backto-elki.visualization.colors.ListBasedColorLibrary" style="stroke:#181818;stroke-width:1.0;stroke-dasharray:7.0,7.0;"/><polygon fill="none" points="142.5,106.01,149.5,86.01,156.5,106.01,142.5,106.01" style="stroke:#181818;stroke-width:1.0;"/></g><rect fill="none" height="11.6406" style="stroke:none;stroke-width:1.0;" width="186" x="48.5" y="303.7188"/><text fill="#888888" font-family="sans-serif" font-size="10" lengthAdjust="spacing" textLength="186" x="48.5" y="313.001">UMLDoclet 2.0.19, PlantUML 1.2022.8</text><!--MD5=[b0abc12cf460e143dd6691372bc2658f]
@startuml
    remove .*\.(Instance|Par|Parameterizer|Factory)$
    set namespaceSeparator none
    hide empty fields
    hide empty methods

    class "<size:14>ListBasedColorLibrary\n<size:10>elki.visualization.colors" as elki.visualization.colors.ListBasedColorLibrary [[ListBasedColorLibrary.html]] {
        -colors: String[]
        -name: String
        +ListBasedColorLibrary(String[], String)
        +getColor(int): String
        +getNumberOfNativeColors(): int
        #getName(): String
    }

    interface "<size:14>ColorLibrary\n<size:10>elki.visualization.colors" as elki.visualization.colors.ColorLibrary [[ColorLibrary.html]] {
        {abstract} +getNumberOfNativeColors(): int
        {abstract} +getColor(int): String
    }

    elki.visualization.colors.ColorLibrary <|.. elki.visualization.colors.ListBasedColorLibrary

    center footer UMLDoclet 2.0.19, PlantUML 1.2022.8
@enduml

PlantUML version 1.2022.8(Sun Sep 25 11:00:33 CEST 2022)
(APACHE source distribution)
Java Runtime: OpenJDK Runtime Environment
JVM: OpenJDK 64-Bit Server VM
Default Encoding: UTF-8
Language: de
Country: DE
--></g></svg>