<?xml version="1.0" encoding="UTF-8" standalone="no"?>
<!DOCTYPE svg PUBLIC "-//W3C//DTD SVG 1.1//EN"
 "http://www.w3.org/Graphics/SVG/1.1/DTD/svg11.dtd">
<!-- Generated by graphviz version 2.40.1 (20161225.0304)
 -->
<!-- Title: G Pages: 1 -->
<svg width="200pt" height="75pt"
 viewBox="0.00 0.00 200.00 75.00" xmlns="http://www.w3.org/2000/svg" xmlns:xlink="http://www.w3.org/1999/xlink">
<g id="graph0" class="graph" transform="scale(1 1) rotate(0) translate(4 71)">
<title>G</title>
<polygon fill="#ffffff" stroke="transparent" points="-4,4 -4,-71 196,-71 196,4 -4,4"/>
<!-- c4405945 -->
<g id="node1" class="node">
<title>c4405945</title>
<g id="a_node1"><a xlink:href="FirstKInitialMeans.html" xlink:title="&lt;TABLE&gt;">
<g id="a_node1_0"><a xlink:href="FirstKInitialMeans.html" xlink:title="de.lmu.ifi.dbs.elki.algorithm.clustering.kmeans.initialization.FirstKInitialMeans" target="_parent">
<polygon fill="#fffacd" stroke="transparent" points="112,-24.5 112,-41.5 192,-41.5 192,-24.5 112,-24.5"/>
<polygon fill="none" stroke="#000000" points="112,-24 112,-41 192,-41 192,-24 112,-24"/>
<text text-anchor="start" x="116" y="-31.6" font-family="Roboto" font-size="8.00" fill="#000000"> </text>
<text text-anchor="start" x="119" y="-31.6" font-family="Roboto" font-size="8.00" fill="#000000">FirstKInitialMeans</text>
<text text-anchor="start" x="185" y="-31.6" font-family="Roboto" font-size="8.00" fill="#000000"> </text>
</a>
</g>
</a>
</g>
</g>
<!-- c4405951 -->
<g id="node2" class="node">
<title>c4405951</title>
<g id="a_node2"><a xlink:href="KMeansInitialization.html" xlink:title="&lt;TABLE&gt;">
<g id="a_node2_1"><a xlink:href="KMeansInitialization.html" xlink:title="de.lmu.ifi.dbs.elki.algorithm.clustering.kmeans.initialization.KMeansInitialization" target="_parent">
<polygon fill="#fffacd" stroke="transparent" points="3,-39 3,-67 91,-67 91,-39 3,-39"/>
<polygon fill="none" stroke="#000000" points="3,-39 3,-67 91,-67 91,-39 3,-39"/>
<text text-anchor="start" x="25.5" y="-56.6" font-family="Roboto" font-size="8.00" fill="#000000"> «interface» </text>
<text text-anchor="start" x="7" y="-46.6" font-family="Roboto" font-size="8.00" fill="#000000"> </text>
<text text-anchor="start" x="10" y="-46.6" font-family="Roboto" font-size="8.00" fill="#000000">KMeansInitialization</text>
<text text-anchor="start" x="84" y="-46.6" font-family="Roboto" font-size="8.00" fill="#000000"> </text>
</a>
</g>
</a>
</g>
</g>
<!-- c4405951&#45;&gt;c4405945 -->
<g id="edge1" class="edge">
<title>c4405951&#45;&gt;c4405945</title>
<path fill="none" stroke="#000000" stroke-dasharray="5,2" d="M101.2418,-42.6682C104.8054,-41.9895 108.3583,-41.3127 111.8346,-40.6505"/>
<polygon fill="none" stroke="#000000" points="100.3936,-39.2668 91.2251,-44.5762 101.7034,-46.1432 100.3936,-39.2668"/>
</g>
<!-- c4405964 -->
<g id="node3" class="node">
<title>c4405964</title>
<g id="a_node3"><a xlink:href="KMedoidsInitialization.html" xlink:title="&lt;TABLE&gt;">
<g id="a_node3_2"><a xlink:href="KMedoidsInitialization.html" xlink:title="de.lmu.ifi.dbs.elki.algorithm.clustering.kmeans.initialization.KMedoidsInitialization" target="_parent">
<polygon fill="none" stroke="#000000" points="0,0 0,-28 94,-28 94,0 0,0"/>
<text text-anchor="start" x="25.5" y="-17.6" font-family="Roboto" font-size="8.00" fill="#000000"> «interface» </text>
<text text-anchor="start" x="4" y="-7.6" font-family="Roboto" font-size="8.00" fill="#000000"> </text>
<text text-anchor="start" x="7" y="-7.6" font-family="Roboto" font-size="8.00" fill="#000000">KMedoidsInitialization</text>
<text text-anchor="start" x="87" y="-7.6" font-family="Roboto" font-size="8.00" fill="#000000"> </text>
</a>
</g>
</a>
</g>
</g>
<!-- c4405964&#45;&gt;c4405945 -->
<g id="edge2" class="edge">
<title>c4405964&#45;&gt;c4405945</title>
<path fill="none" stroke="#000000" stroke-dasharray="5,2" d="M104.2292,-24.3558C106.8032,-24.8215 109.3619,-25.2845 111.8803,-25.7403"/>
<polygon fill="none" stroke="#000000" points="104.7416,-20.8917 94.2782,-22.5551 103.4952,-27.7799 104.7416,-20.8917"/>
</g>
</g>
</svg>
