<?xml version="1.0" encoding="UTF-8" standalone="no"?>
<!DOCTYPE svg PUBLIC "-//W3C//DTD SVG 1.1//EN"
 "http://www.w3.org/Graphics/SVG/1.1/DTD/svg11.dtd">
<!-- Generated by graphviz version 2.40.1 (20161225.0304)
 -->
<!-- Title: G Pages: 1 -->
<svg width="417pt" height="137pt"
 viewBox="0.00 0.00 417.00 137.00" xmlns="http://www.w3.org/2000/svg" xmlns:xlink="http://www.w3.org/1999/xlink">
<g id="graph0" class="graph" transform="scale(1 1) rotate(0) translate(4 133)">
<title>G</title>
<polygon fill="#ffffff" stroke="transparent" points="-4,4 -4,-133 413,-133 413,4 -4,4"/>
<!-- c5684699 -->
<g id="node1" class="node">
<title>c5684699</title>
<g id="a_node1"><a xlink:href="../../em/AbstractEMModelFactory.html" xlink:title="&lt;TABLE&gt;">
<g id="a_node1_0"><a xlink:href="../../em/AbstractEMModelFactory.html" xlink:title="de.lmu.ifi.dbs.elki.algorithm.clustering.em.AbstractEMModelFactory" target="_parent">
<polygon fill="none" stroke="#000000" points="8,-89.5 8,-117.5 161,-117.5 161,-89.5 8,-89.5"/>
<text text-anchor="start" x="37" y="-108.1" font-family="Roboto" font-size="8.00" fill="#000000"> </text>
<text text-anchor="start" x="40" y="-108.1" font-family="Roboto" font-style="italic" font-size="8.00" fill="#000000">AbstractEMModelFactory</text>
<text text-anchor="start" x="129" y="-108.1" font-family="Roboto" font-size="8.00" fill="#000000"> </text>
<text text-anchor="start" x="12" y="-97.1" font-family="Roboto" font-size="8.00" fill="#000000"> </text>
<text text-anchor="start" x="15" y="-97.1" font-family="Roboto" font-size="7.00" fill="#000000">de.lmu.ifi.dbs.elki.algorithm.clustering.em</text>
<text text-anchor="start" x="154" y="-97.1" font-family="Roboto" font-size="8.00" fill="#000000"> </text>
</a>
</g>
</a>
</g>
</g>
<!-- c5684872 -->
<g id="node4" class="node">
<title>c5684872</title>
<g id="a_node4"><a xlink:href="KMeansInitialization.html" xlink:title="&lt;TABLE&gt;">
<g id="a_node4_1"><a xlink:href="KMeansInitialization.html" xlink:title="de.lmu.ifi.dbs.elki.algorithm.clustering.kmeans.initialization.KMeansInitialization" target="_parent">
<polygon fill="#fffacd" stroke="transparent" points="186,-50.5 186,-78.5 274,-78.5 274,-50.5 186,-50.5"/>
<polygon fill="none" stroke="#000000" points="186,-50.5 186,-78.5 274,-78.5 274,-50.5 186,-50.5"/>
<text text-anchor="start" x="208.5" y="-68.1" font-family="Roboto" font-size="8.00" fill="#000000"> «interface» </text>
<text text-anchor="start" x="190" y="-58.1" font-family="Roboto" font-size="8.00" fill="#000000"> </text>
<text text-anchor="start" x="193" y="-58.1" font-family="Roboto" font-size="8.00" fill="#000000">KMeansInitialization</text>
<text text-anchor="start" x="267" y="-58.1" font-family="Roboto" font-size="8.00" fill="#000000"> </text>
</a>
</g>
</a>
</g>
</g>
<!-- c5684699&#45;&gt;c5684872 -->
<g id="edge7" class="edge">
<title>c5684699&#45;&gt;c5684872</title>
<path fill="none" stroke="#000000" d="M148.8079,-89.4541C155.3112,-87.8613 161.799,-86.1978 168,-84.5 171.3748,-83.576 174.8395,-82.5832 178.3229,-81.5518"/>
<polygon fill="#000000" stroke="#000000" points="188.1308,-78.5677 179.8737,-85.7837 183.3473,-80.0232 178.5638,-81.4786 178.5638,-81.4786 178.5638,-81.4786 183.3473,-80.0232 177.2539,-77.1734 188.1308,-78.5677 188.1308,-78.5677"/>
</g>
<!-- c5684864 -->
<g id="node2" class="node">
<title>c5684864</title>
<g id="a_node2"><a xlink:href="PAMInitialMeans.html" xlink:title="&lt;TABLE&gt;">
<g id="a_node2_2"><a xlink:href="PAMInitialMeans.html" xlink:title="de.lmu.ifi.dbs.elki.algorithm.clustering.kmeans.initialization.PAMInitialMeans" target="_parent">
<polygon fill="none" stroke="#000000" points="313.5,-111.5 313.5,-128.5 388.5,-128.5 388.5,-111.5 313.5,-111.5"/>
<text text-anchor="start" x="317.5" y="-119.1" font-family="Roboto" font-size="8.00" fill="#000000"> </text>
<text text-anchor="start" x="320.5" y="-119.1" font-family="Roboto" font-size="8.00" fill="#000000">PAMInitialMeans</text>
<text text-anchor="start" x="381.5" y="-119.1" font-family="Roboto" font-size="8.00" fill="#000000"> </text>
</a>
</g>
</a>
</g>
</g>
<!-- c5684866 -->
<g id="node3" class="node">
<title>c5684866</title>
<g id="a_node3"><a xlink:href="FirstKInitialMeans.html" xlink:title="&lt;TABLE&gt;">
<g id="a_node3_3"><a xlink:href="FirstKInitialMeans.html" xlink:title="de.lmu.ifi.dbs.elki.algorithm.clustering.kmeans.initialization.FirstKInitialMeans" target="_parent">
<polygon fill="none" stroke="#000000" points="310.5,-83.5 310.5,-100.5 390.5,-100.5 390.5,-83.5 310.5,-83.5"/>
<text text-anchor="start" x="314.5" y="-91.1" font-family="Roboto" font-size="8.00" fill="#000000"> </text>
<text text-anchor="start" x="317.5" y="-91.1" font-family="Roboto" font-size="8.00" fill="#000000">FirstKInitialMeans</text>
<text text-anchor="start" x="383.5" y="-91.1" font-family="Roboto" font-size="8.00" fill="#000000"> </text>
</a>
</g>
</a>
</g>
</g>
<!-- c5684872&#45;&gt;c5684864 -->
<g id="edge1" class="edge">
<title>c5684872&#45;&gt;c5684864</title>
<path fill="none" stroke="#000000" stroke-dasharray="5,2" d="M255.2931,-84.6814C266.0847,-92.461 279.1394,-100.8314 292,-106.5 298.498,-109.3642 305.6716,-111.6945 312.7032,-113.5726"/>
<polygon fill="none" stroke="#000000" points="257.2812,-81.7981 247.1705,-78.6319 253.0999,-87.4121 257.2812,-81.7981"/>
</g>
<!-- c5684872&#45;&gt;c5684866 -->
<g id="edge2" class="edge">
<title>c5684872&#45;&gt;c5684866</title>
<path fill="none" stroke="#000000" stroke-dasharray="5,2" d="M284.1194,-77.0755C294.172,-79.4113 304.4546,-81.8007 313.8322,-83.9797"/>
<polygon fill="none" stroke="#000000" points="284.7182,-73.6214 274.1855,-74.7672 283.1338,-80.4398 284.7182,-73.6214"/>
</g>
<!-- c5684873 -->
<g id="node5" class="node">
<title>c5684873</title>
<g id="a_node5"><a xlink:href="ParkInitialMeans.html" xlink:title="&lt;TABLE&gt;">
<g id="a_node5_4"><a xlink:href="ParkInitialMeans.html" xlink:title="de.lmu.ifi.dbs.elki.algorithm.clustering.kmeans.initialization.ParkInitialMeans" target="_parent">
<polygon fill="none" stroke="#000000" points="313.5,-55.5 313.5,-72.5 388.5,-72.5 388.5,-55.5 313.5,-55.5"/>
<text text-anchor="start" x="317.5" y="-63.1" font-family="Roboto" font-size="8.00" fill="#000000"> </text>
<text text-anchor="start" x="320.5" y="-63.1" font-family="Roboto" font-size="8.00" fill="#000000">ParkInitialMeans</text>
<text text-anchor="start" x="381.5" y="-63.1" font-family="Roboto" font-size="8.00" fill="#000000"> </text>
</a>
</g>
</a>
</g>
</g>
<!-- c5684872&#45;&gt;c5684873 -->
<g id="edge3" class="edge">
<title>c5684872&#45;&gt;c5684873</title>
<path fill="none" stroke="#000000" stroke-dasharray="5,2" d="M284.4174,-64.5C293.9603,-64.5 303.7003,-64.5 312.6675,-64.5"/>
<polygon fill="none" stroke="#000000" points="284.1856,-61.0001 274.1855,-64.5 284.1855,-68.0001 284.1856,-61.0001"/>
</g>
<!-- c5684879 -->
<g id="node6" class="node">
<title>c5684879</title>
<g id="a_node6"><a xlink:href="LABInitialMeans.html" xlink:title="&lt;TABLE&gt;">
<g id="a_node6_5"><a xlink:href="LABInitialMeans.html" xlink:title="de.lmu.ifi.dbs.elki.algorithm.clustering.kmeans.initialization.LABInitialMeans" target="_parent">
<polygon fill="none" stroke="#000000" points="313.5,-27.5 313.5,-44.5 387.5,-44.5 387.5,-27.5 313.5,-27.5"/>
<text text-anchor="start" x="317.5" y="-35.1" font-family="Roboto" font-size="8.00" fill="#000000"> </text>
<text text-anchor="start" x="320.5" y="-35.1" font-family="Roboto" font-size="8.00" fill="#000000">LABInitialMeans</text>
<text text-anchor="start" x="380.5" y="-35.1" font-family="Roboto" font-size="8.00" fill="#000000"> </text>
</a>
</g>
</a>
</g>
</g>
<!-- c5684872&#45;&gt;c5684879 -->
<g id="edge4" class="edge">
<title>c5684872&#45;&gt;c5684879</title>
<path fill="none" stroke="#000000" stroke-dasharray="5,2" d="M284.1194,-51.9245C294.172,-49.5887 304.4546,-47.1993 313.8322,-45.0203"/>
<polygon fill="none" stroke="#000000" points="283.1338,-48.5602 274.1855,-54.2328 284.7182,-55.3786 283.1338,-48.5602"/>
</g>
<!-- c5684892 -->
<g id="node7" class="node">
<title>c5684892</title>
<g id="a_node7"><a xlink:href="AbstractKMeansInitialization.html" xlink:title="&lt;TABLE&gt;">
<g id="a_node7_6"><a xlink:href="AbstractKMeansInitialization.html" xlink:title="de.lmu.ifi.dbs.elki.algorithm.clustering.kmeans.initialization.AbstractKMeansInitialization" target="_parent">
<polygon fill="none" stroke="#000000" points="292.5,.5 292.5,-16.5 409.5,-16.5 409.5,.5 292.5,.5"/>
<text text-anchor="start" x="296.5" y="-7.1" font-family="Roboto" font-size="8.00" fill="#000000"> </text>
<text text-anchor="start" x="299.5" y="-7.1" font-family="Roboto" font-style="italic" font-size="8.00" fill="#000000">AbstractKMeansInitialization</text>
<text text-anchor="start" x="402.5" y="-7.1" font-family="Roboto" font-size="8.00" fill="#000000"> </text>
</a>
</g>
</a>
</g>
</g>
<!-- c5684872&#45;&gt;c5684892 -->
<g id="edge5" class="edge">
<title>c5684872&#45;&gt;c5684892</title>
<path fill="none" stroke="#000000" stroke-dasharray="5,2" d="M255.2931,-44.3186C266.0847,-36.539 279.1394,-28.1686 292,-22.5 296.778,-20.394 301.9211,-18.5766 307.1046,-17.0154"/>
<polygon fill="none" stroke="#000000" points="253.0999,-41.5879 247.1705,-50.3681 257.2812,-47.2019 253.0999,-41.5879"/>
</g>
<!-- c5684899 -->
<g id="node8" class="node">
<title>c5684899</title>
<g id="a_node8"><a xlink:href="../AbstractKMeans.html" xlink:title="&lt;TABLE&gt;">
<g id="a_node8_7"><a xlink:href="../AbstractKMeans.html" xlink:title="de.lmu.ifi.dbs.elki.algorithm.clustering.kmeans.AbstractKMeans" target="_parent">
<polygon fill="none" stroke="#000000" points="0,-50.5 0,-78.5 168,-78.5 168,-50.5 0,-50.5"/>
<text text-anchor="start" x="52" y="-69.1" font-family="Roboto" font-size="8.00" fill="#000000"> </text>
<text text-anchor="start" x="55" y="-69.1" font-family="Roboto" font-style="italic" font-size="8.00" fill="#000000">AbstractKMeans</text>
<text text-anchor="start" x="113" y="-69.1" font-family="Roboto" font-size="8.00" fill="#000000"> </text>
<text text-anchor="start" x="4" y="-58.1" font-family="Roboto" font-size="8.00" fill="#000000"> </text>
<text text-anchor="start" x="7" y="-58.1" font-family="Roboto" font-size="7.00" fill="#000000">de.lmu.ifi.dbs.elki.algorithm.clustering.kmeans</text>
<text text-anchor="start" x="161" y="-58.1" font-family="Roboto" font-size="8.00" fill="#000000"> </text>
</a>
</g>
</a>
</g>
</g>
<!-- c5684899&#45;&gt;c5684872 -->
<g id="edge6" class="edge">
<title>c5684899&#45;&gt;c5684872</title>
<path fill="none" stroke="#000000" d="M180.1531,-64.5C182.0776,-64.5 183.9781,-64.5 185.8486,-64.5"/>
<polygon fill="#000000" stroke="#000000" points="180.0829,-64.5001 174.0828,-68.5 168.0829,-64.5 174.0829,-60.5 180.0829,-64.5001"/>
</g>
<!-- c5687241 -->
<g id="node9" class="node">
<title>c5687241</title>
<g id="a_node9"><a xlink:href="../../../../../../../../../tutorial/clustering/SameSizeKMeansAlgorithm.Parameterizer.html" xlink:title="&lt;TABLE&gt;">
<g id="a_node9_8"><a xlink:href="../../../../../../../../../tutorial/clustering/SameSizeKMeansAlgorithm.Parameterizer.html" xlink:title="tutorial.clustering.SameSizeKMeansAlgorithm.Parameterizer" target="_parent">
<polygon fill="none" stroke="#000000" points="2,-11.5 2,-39.5 167,-39.5 167,-11.5 2,-11.5"/>
<text text-anchor="start" x="6" y="-30.1" font-family="Roboto" font-size="8.00" fill="#000000"> </text>
<text text-anchor="start" x="9" y="-30.1" font-family="Roboto" font-size="8.00" fill="#000000">SameSizeKMeansAlgorithm.Parameterizer</text>
<text text-anchor="start" x="160" y="-30.1" font-family="Roboto" font-size="8.00" fill="#000000"> </text>
<text text-anchor="start" x="51.5" y="-19.1" font-family="Roboto" font-size="8.00" fill="#000000"> </text>
<text text-anchor="start" x="54.5" y="-19.1" font-family="Roboto" font-size="7.00" fill="#000000">tutorial.clustering</text>
<text text-anchor="start" x="114.5" y="-19.1" font-family="Roboto" font-size="8.00" fill="#000000"> </text>
</a>
</g>
</a>
</g>
</g>
<!-- c5687241&#45;&gt;c5684872 -->
<g id="edge8" class="edge">
<title>c5687241&#45;&gt;c5684872</title>
<path fill="none" stroke="#000000" d="M145.1346,-39.575C152.8508,-41.4927 160.6226,-43.4935 168,-45.5 170.6089,-46.2096 173.274,-46.9532 175.9616,-47.7183"/>
<polygon fill="#000000" stroke="#000000" points="185.7331,-50.5599 174.8742,-52.0884 180.932,-49.1637 176.1308,-47.7674 176.1308,-47.7674 176.1308,-47.7674 180.932,-49.1637 177.3875,-43.4464 185.7331,-50.5599 185.7331,-50.5599"/>
</g>
</g>
</svg>
