<?xml version="1.0" encoding="UTF-8" standalone="no"?>
<!DOCTYPE svg PUBLIC "-//W3C//DTD SVG 1.1//EN"
 "http://www.w3.org/Graphics/SVG/1.1/DTD/svg11.dtd">
<!-- Generated by graphviz version 2.40.1 (20161225.0304)
 -->
<!-- Title: G Pages: 1 -->
<svg width="350pt" height="25pt"
 viewBox="0.00 0.00 350.00 25.00" xmlns="http://www.w3.org/2000/svg" xmlns:xlink="http://www.w3.org/1999/xlink">
<g id="graph0" class="graph" transform="scale(1 1) rotate(0) translate(4 21)">
<title>G</title>
<polygon fill="#ffffff" stroke="transparent" points="-4,4 -4,-21 346,-21 346,4 -4,4"/>
<!-- c9529859 -->
<g id="node1" class="node">
<title>c9529859</title>
<g id="a_node1"><a xlink:href="SimplifiedCoverTree.html" xlink:title="&lt;TABLE&gt;">
<g id="a_node1_0"><a xlink:href="SimplifiedCoverTree.html" xlink:title="de.lmu.ifi.dbs.elki.index.tree.metrical.covertree.SimplifiedCoverTree" target="_parent">
<polygon fill="none" stroke="#000000" points="257.5,.5 257.5,-16.5 342.5,-16.5 342.5,.5 257.5,.5"/>
<text text-anchor="start" x="261.5" y="-7.1" font-family="Roboto" font-size="8.00" fill="#000000"> </text>
<text text-anchor="start" x="264.5" y="-7.1" font-family="Roboto" font-size="8.00" fill="#000000">SimplifiedCoverTree</text>
<text text-anchor="start" x="335.5" y="-7.1" font-family="Roboto" font-size="8.00" fill="#000000"> </text>
</a>
</g>
</a>
</g>
</g>
<!-- c9529863 -->
<g id="node2" class="node">
<title>c9529863</title>
<g id="a_node2"><a xlink:href="SimplifiedCoverTree.Factory.html" xlink:title="&lt;TABLE&gt;">
<g id="a_node2_1"><a xlink:href="SimplifiedCoverTree.Factory.html" xlink:title="de.lmu.ifi.dbs.elki.index.tree.metrical.covertree.SimplifiedCoverTree.Factory" target="_parent">
<polygon fill="#fffacd" stroke="transparent" points="126,0 126,-17 239,-17 239,0 126,0"/>
<polygon fill="none" stroke="#000000" points="126.5,.5 126.5,-16.5 239.5,-16.5 239.5,.5 126.5,.5"/>
<text text-anchor="start" x="130.5" y="-7.1" font-family="Roboto" font-size="8.00" fill="#000000"> </text>
<text text-anchor="start" x="133.5" y="-7.1" font-family="Roboto" font-size="8.00" fill="#000000">SimplifiedCoverTree.Factory</text>
<text text-anchor="start" x="232.5" y="-7.1" font-family="Roboto" font-size="8.00" fill="#000000"> </text>
</a>
</g>
</a>
</g>
</g>
<!-- c9529863&#45;&gt;c9529859 -->
<g id="edge2" class="edge">
<title>c9529863&#45;&gt;c9529859</title>
<path fill="none" stroke="#000000" d="M251.4887,-8.5C253.3185,-8.5 255.1341,-8.5 256.928,-8.5"/>
<polygon fill="none" stroke="#000000" points="251.2864,-8.5001 245.2863,-12.5 239.2864,-8.5 245.2864,-4.5 251.2864,-8.5001"/>
</g>
<!-- c9529866 -->
<g id="node3" class="node">
<title>c9529866</title>
<g id="a_node3"><a xlink:href="AbstractCoverTree.Factory.html" xlink:title="&lt;TABLE&gt;">
<g id="a_node3_2"><a xlink:href="AbstractCoverTree.Factory.html" xlink:title="de.lmu.ifi.dbs.elki.index.tree.metrical.covertree.AbstractCoverTree.Factory" target="_parent">
<polygon fill="none" stroke="#000000" points="0,.5 0,-16.5 108,-16.5 108,.5 0,.5"/>
<text text-anchor="start" x="4" y="-7.1" font-family="Roboto" font-size="8.00" fill="#000000"> </text>
<text text-anchor="start" x="7" y="-7.1" font-family="Roboto" font-style="italic" font-size="8.00" fill="#000000">AbstractCoverTree.Factory</text>
<text text-anchor="start" x="101" y="-7.1" font-family="Roboto" font-size="8.00" fill="#000000"> </text>
</a>
</g>
</a>
</g>
</g>
<!-- c9529866&#45;&gt;c9529863 -->
<g id="edge1" class="edge">
<title>c9529866&#45;&gt;c9529863</title>
<path fill="none" stroke="#000000" d="M118.1516,-8.5C120.7613,-8.5 123.3712,-8.5 125.9642,-8.5"/>
<polygon fill="none" stroke="#000000" points="118.1232,-5.0001 108.1231,-8.5 118.1231,-12.0001 118.1232,-5.0001"/>
</g>
</g>
</svg>
