<?xml version="1.0" encoding="UTF-8" standalone="no"?>
<!DOCTYPE svg PUBLIC "-//W3C//DTD SVG 1.1//EN"
 "http://www.w3.org/Graphics/SVG/1.1/DTD/svg11.dtd">
<!-- Generated by graphviz version 2.40.1 (20161225.0304)
 -->
<!-- Title: G Pages: 1 -->
<svg width="901pt" height="138pt"
 viewBox="0.00 0.00 901.00 137.50" xmlns="http://www.w3.org/2000/svg" xmlns:xlink="http://www.w3.org/1999/xlink">
<g id="graph0" class="graph" transform="scale(1 1) rotate(0) translate(4 133.5)">
<title>G</title>
<polygon fill="#ffffff" stroke="transparent" points="-4,4 -4,-133.5 897,-133.5 897,4 -4,4"/>
<!-- c2944565 -->
<g id="node1" class="node">
<title>c2944565</title>
<g id="a_node1"><a xlink:href="../../../../evaluation/clustering/extractor/CutDendrogramByHeightExtractor.html" xlink:title="&lt;TABLE&gt;">
<g id="a_node1_0"><a xlink:href="../../../../evaluation/clustering/extractor/CutDendrogramByHeightExtractor.html" xlink:title="de.lmu.ifi.dbs.elki.evaluation.clustering.extractor.CutDendrogramByHeightExtractor" target="_parent">
<polygon fill="none" stroke="#000000" points="160,-45.5 160,-73.5 334,-73.5 334,-45.5 160,-45.5"/>
<text text-anchor="start" x="184" y="-64.1" font-family="Roboto" font-size="8.00" fill="#000000"> </text>
<text text-anchor="start" x="187" y="-64.1" font-family="Roboto" font-size="8.00" fill="#000000">CutDendrogramByHeightExtractor</text>
<text text-anchor="start" x="307" y="-64.1" font-family="Roboto" font-size="8.00" fill="#000000"> </text>
<text text-anchor="start" x="164" y="-53.1" font-family="Roboto" font-size="8.00" fill="#000000"> </text>
<text text-anchor="start" x="167" y="-53.1" font-family="Roboto" font-size="7.00" fill="#000000">de.lmu.ifi.dbs.elki.evaluation.clustering.extractor</text>
<text text-anchor="start" x="327" y="-53.1" font-family="Roboto" font-size="8.00" fill="#000000"> </text>
</a>
</g>
</a>
</g>
</g>
<!-- c2944730 -->
<g id="node3" class="node">
<title>c2944730</title>
<g id="a_node3"><a xlink:href="CutDendrogramByHeight.html" xlink:title="&lt;TABLE&gt;">
<g id="a_node3_1"><a xlink:href="CutDendrogramByHeight.html" xlink:title="de.lmu.ifi.dbs.elki.algorithm.clustering.hierarchical.extraction.CutDendrogramByHeight" target="_parent">
<polygon fill="#fffacd" stroke="transparent" points="353,-52 353,-69 456,-69 456,-52 353,-52"/>
<polygon fill="none" stroke="#000000" points="353.5,-51.5 353.5,-68.5 456.5,-68.5 456.5,-51.5 353.5,-51.5"/>
<text text-anchor="start" x="357.5" y="-59.1" font-family="Roboto" font-size="8.00" fill="#000000"> </text>
<text text-anchor="start" x="360.5" y="-59.1" font-family="Roboto" font-size="8.00" fill="#000000">CutDendrogramByHeight</text>
<text text-anchor="start" x="449.5" y="-59.1" font-family="Roboto" font-size="8.00" fill="#000000"> </text>
</a>
</g>
</a>
</g>
</g>
<!-- c2944565&#45;&gt;c2944730 -->
<g id="edge9" class="edge">
<title>c2944565&#45;&gt;c2944730</title>
<path fill="none" stroke="#000000" d="M334.042,-60.0526C336.9433,-60.0711 339.8294,-60.0894 342.6844,-60.1075"/>
<polygon fill="#000000" stroke="#000000" points="352.8571,-60.1721 342.8286,-64.6084 347.8572,-60.1403 342.8573,-60.1085 342.8573,-60.1085 342.8573,-60.1085 347.8572,-60.1403 342.8859,-55.6086 352.8571,-60.1721 352.8571,-60.1721"/>
</g>
<!-- c2944660 -->
<g id="node2" class="node">
<title>c2944660</title>
<g id="a_node2"><a xlink:href="../PointerHierarchyRepresentationResult.html" xlink:title="&lt;TABLE&gt;">
<g id="a_node2_2"><a xlink:href="../PointerHierarchyRepresentationResult.html" xlink:title="de.lmu.ifi.dbs.elki.algorithm.clustering.hierarchical.PointerHierarchyRepresentationResult" target="_parent">
<polygon fill="none" stroke="#000000" points="710.5,-79.5 710.5,-107.5 893.5,-107.5 893.5,-79.5 710.5,-79.5"/>
<text text-anchor="start" x="732.5" y="-98.1" font-family="Roboto" font-size="8.00" fill="#000000"> </text>
<text text-anchor="start" x="735.5" y="-98.1" font-family="Roboto" font-size="8.00" fill="#000000">PointerHierarchyRepresentationResult</text>
<text text-anchor="start" x="868.5" y="-98.1" font-family="Roboto" font-size="8.00" fill="#000000"> </text>
<text text-anchor="start" x="714.5" y="-87.1" font-family="Roboto" font-size="8.00" fill="#000000"> </text>
<text text-anchor="start" x="717.5" y="-87.1" font-family="Roboto" font-size="7.00" fill="#000000">de.lmu.ifi.dbs.elki.algorithm.clustering.hierarchical</text>
<text text-anchor="start" x="886.5" y="-87.1" font-family="Roboto" font-size="8.00" fill="#000000"> </text>
</a>
</g>
</a>
</g>
</g>
<!-- c2944730&#45;&gt;c2944660 -->
<g id="edge4" class="edge">
<title>c2944730&#45;&gt;c2944660</title>
<path fill="none" stroke="#000000" d="M456.227,-58.932C513.78,-57.8864 609.417,-58.2315 691,-68.5 710.1246,-70.9071 730.8002,-75.1349 749.0367,-79.4367"/>
</g>
<!-- c2944748 -->
<g id="node5" class="node">
<title>c2944748</title>
<g id="a_node5"><a xlink:href="../HierarchicalClusteringAlgorithm.html" xlink:title="&lt;TABLE&gt;">
<g id="a_node5_3"><a xlink:href="../HierarchicalClusteringAlgorithm.html" xlink:title="de.lmu.ifi.dbs.elki.algorithm.clustering.hierarchical.HierarchicalClusteringAlgorithm" target="_parent">
<polygon fill="none" stroke="#000000" points="508.5,-73.5 508.5,-112.5 691.5,-112.5 691.5,-73.5 508.5,-73.5"/>
<text text-anchor="start" x="578.5" y="-102.1" font-family="Roboto" font-size="8.00" fill="#000000"> «interface» </text>
<text text-anchor="start" x="539.5" y="-92.1" font-family="Roboto" font-size="8.00" fill="#000000"> </text>
<text text-anchor="start" x="542.5" y="-92.1" font-family="Roboto" font-size="8.00" fill="#000000">HierarchicalClusteringAlgorithm</text>
<text text-anchor="start" x="657.5" y="-92.1" font-family="Roboto" font-size="8.00" fill="#000000"> </text>
<text text-anchor="start" x="512.5" y="-81.1" font-family="Roboto" font-size="8.00" fill="#000000"> </text>
<text text-anchor="start" x="515.5" y="-81.1" font-family="Roboto" font-size="7.00" fill="#000000">de.lmu.ifi.dbs.elki.algorithm.clustering.hierarchical</text>
<text text-anchor="start" x="684.5" y="-81.1" font-family="Roboto" font-size="8.00" fill="#000000"> </text>
</a>
</g>
</a>
</g>
</g>
<!-- c2944730&#45;&gt;c2944748 -->
<g id="edge3" class="edge">
<title>c2944730&#45;&gt;c2944748</title>
<path fill="none" stroke="#000000" d="M454.9709,-69.0412C471.1081,-71.7721 489.5054,-74.8855 507.6415,-77.9547"/>
</g>
<!-- c2944744 -->
<g id="node4" class="node">
<title>c2944744</title>
<g id="a_node4"><a xlink:href="AbstractCutDendrogram.html" xlink:title="&lt;TABLE&gt;">
<g id="a_node4_4"><a xlink:href="AbstractCutDendrogram.html" xlink:title="de.lmu.ifi.dbs.elki.algorithm.clustering.hierarchical.extraction.AbstractCutDendrogram" target="_parent">
<polygon fill="none" stroke="#000000" points="197,-84.5 197,-101.5 297,-101.5 297,-84.5 197,-84.5"/>
<text text-anchor="start" x="201" y="-92.1" font-family="Roboto" font-size="8.00" fill="#000000"> </text>
<text text-anchor="start" x="204" y="-92.1" font-family="Roboto" font-style="italic" font-size="8.00" fill="#000000">AbstractCutDendrogram</text>
<text text-anchor="start" x="290" y="-92.1" font-family="Roboto" font-size="8.00" fill="#000000"> </text>
</a>
</g>
</a>
</g>
</g>
<!-- c2944744&#45;&gt;c2944660 -->
<g id="edge7" class="edge">
<title>c2944744&#45;&gt;c2944660</title>
<path fill="none" stroke="#000000" d="M297.0894,-101.7612C379.4808,-114.1309 548.6693,-134.3998 691,-118.5 710.645,-116.3054 731.8956,-111.981 750.4635,-107.5372"/>
<text text-anchor="middle" x="482" y="-123.9" font-family="Roboto" font-size="7.00" fill="#000000">processes</text>
</g>
<!-- c2944744&#45;&gt;c2944730 -->
<g id="edge1" class="edge">
<title>c2944744&#45;&gt;c2944730</title>
<path fill="none" stroke="#000000" d="M307.3388,-84.6226C316.3052,-83.0626 325.4144,-81.3425 334,-79.5 347.7574,-76.5476 362.8388,-72.5834 375.5096,-69.0399"/>
<polygon fill="none" stroke="#000000" points="306.5903,-81.1993 297.3116,-86.3137 307.7545,-88.1018 306.5903,-81.1993"/>
</g>
<!-- c2944744&#45;&gt;c2944748 -->
<g id="edge6" class="edge">
<title>c2944744&#45;&gt;c2944748</title>
<path fill="none" stroke="#000000" d="M309.1636,-93.5C364.2571,-93.5 445.4295,-93.5 507.9485,-93.5"/>
<polygon fill="#000000" stroke="#000000" points="309.1303,-93.5001 303.1303,-97.5 297.1303,-93.5 303.1303,-89.5 309.1303,-93.5001"/>
<text text-anchor="middle" x="404.5" y="-95.9" font-family="Roboto" font-size="7.00" fill="#000000">runs</text>
</g>
<!-- c2944748&#45;&gt;c2944660 -->
<g id="edge8" class="edge">
<title>c2944748&#45;&gt;c2944660</title>
<path fill="none" stroke="#000000" d="M703.1154,-93.5C705.3745,-93.5 707.6317,-93.5 709.8827,-93.5"/>
<polygon fill="none" stroke="#000000" points="703.0436,-93.5001 697.0435,-97.5 691.0436,-93.5 697.0436,-89.5 703.0436,-93.5001"/>
</g>
<!-- c2944930 -->
<g id="node6" class="node">
<title>c2944930</title>
<g id="a_node6"><a xlink:href="../../ClusteringAlgorithm.html" xlink:title="&lt;TABLE&gt;">
<g id="a_node6_5"><a xlink:href="../../ClusteringAlgorithm.html" xlink:title="de.lmu.ifi.dbs.elki.algorithm.clustering.ClusteringAlgorithm" target="_parent">
<polygon fill="none" stroke="#000000" points=".5,-33.5 .5,-72.5 141.5,-72.5 141.5,-33.5 .5,-33.5"/>
<text text-anchor="start" x="49.5" y="-62.1" font-family="Roboto" font-size="8.00" fill="#000000"> «interface» </text>
<text text-anchor="start" x="32.5" y="-52.1" font-family="Roboto" font-size="8.00" fill="#000000"> </text>
<text text-anchor="start" x="35.5" y="-52.1" font-family="Roboto" font-size="8.00" fill="#000000">ClusteringAlgorithm</text>
<text text-anchor="start" x="106.5" y="-52.1" font-family="Roboto" font-size="8.00" fill="#000000"> </text>
<text text-anchor="start" x="4.5" y="-41.1" font-family="Roboto" font-size="8.00" fill="#000000"> </text>
<text text-anchor="start" x="7.5" y="-41.1" font-family="Roboto" font-size="7.00" fill="#000000">de.lmu.ifi.dbs.elki.algorithm.clustering</text>
<text text-anchor="start" x="134.5" y="-41.1" font-family="Roboto" font-size="8.00" fill="#000000"> </text>
<polygon fill="none" stroke="#000000" points=".5,-16.5 .5,-33.5 141.5,-33.5 141.5,-16.5 .5,-16.5"/>
<text text-anchor="start" x="4.5" y="-23.1" font-family="Roboto" font-size="8.00" fill="#000000"> &#160;</text>
<polygon fill="none" stroke="#000000" points=".5,.5 .5,-16.5 141.5,-16.5 141.5,.5 .5,.5"/>
<text text-anchor="start" x="4.5" y="-7.1" font-family="Roboto" font-size="8.00" fill="#000000"> </text>
<text text-anchor="start" x="7.5" y="-7.1" font-family="Roboto" font-style="italic" font-size="8.00" fill="#000000"> run()</text>
<text text-anchor="start" x="28.5" y="-7.1" font-family="Roboto" font-size="8.00" fill="#000000"> </text>
</a>
</g>
</a>
</g>
</g>
<!-- c2944930&#45;&gt;c2944730 -->
<g id="edge2" class="edge">
<title>c2944930&#45;&gt;c2944730</title>
<path fill="none" stroke="#000000" stroke-dasharray="5,2" d="M151.3179,-32.2999C203.6835,-30.9115 273.2087,-31.5731 334,-40.5 349.7345,-42.8105 366.9118,-47.633 380.3715,-51.9636"/>
<polygon fill="none" stroke="#000000" points="150.9732,-28.8085 141.0812,-32.6031 151.1805,-35.8054 150.9732,-28.8085"/>
</g>
<!-- c2944930&#45;&gt;c2944744 -->
<g id="edge5" class="edge">
<title>c2944930&#45;&gt;c2944744</title>
<path fill="none" stroke="#000000" stroke-dasharray="5,2" d="M150.5581,-76.3059C153.7201,-77.4494 156.8746,-78.5205 160,-79.5 171.6786,-83.1602 184.5542,-85.9 196.7382,-87.9372"/>
<polygon fill="none" stroke="#000000" points="151.6614,-72.9807 141.0709,-72.677 149.1605,-79.5187 151.6614,-72.9807"/>
</g>
</g>
</svg>
