<?xml version="1.0" encoding="UTF-8" standalone="no"?><svg xmlns="http://www.w3.org/2000/svg" xmlns:xlink="http://www.w3.org/1999/xlink" contentStyleType="text/css" height="266px" preserveAspectRatio="none" style="width:289px;height:266px;background:#FFFFFF;" version="1.1" viewBox="0 0 289 266" width="289px" zoomAndPan="magnify"><defs/><g><!--MD5=[b1fc510b3f5f64801202aab0d92bc5dc]
class elki.gui.util.DynamicParameters.Node--><a href="DynamicParameters.Node.html" target="_top" title="DynamicParameters.Node.html" xlink:actuate="onRequest" xlink:href="DynamicParameters.Node.html" xlink:show="new" xlink:title="DynamicParameters.Node.html" xlink:type="simple"><g id="elem_elki.gui.util.DynamicParameters.Node"><rect codeLine="6" fill="#F1F1F1" height="135.4219" id="elki.gui.util.DynamicParameters.Node" rx="2.5" ry="2.5" style="stroke:#181818;stroke-width:0.5;" width="273" x="9" y="105"/><ellipse cx="51.9" cy="123.9688" fill="#ADD1B2" rx="11" ry="11" style="stroke:#181818;stroke-width:1.0;"/><path d="M54.8688,129.6094 Q54.2906,129.9063 53.65,130.0469 Q53.0094,130.2031 52.3063,130.2031 Q49.8063,130.2031 48.4781,128.5625 Q47.1656,126.9063 47.1656,123.7813 Q47.1656,120.6563 48.4781,119 Q49.8063,117.3438 52.3063,117.3438 Q53.0094,117.3438 53.65,117.5 Q54.3063,117.6563 54.8688,117.9531 L54.8688,120.6719 Q54.2438,120.0938 53.65,119.8281 Q53.0563,119.5469 52.4313,119.5469 Q51.0875,119.5469 50.4,120.625 Q49.7125,121.6875 49.7125,123.7813 Q49.7125,125.875 50.4,126.9531 Q51.0875,128.0156 52.4313,128.0156 Q53.0563,128.0156 53.65,127.75 Q54.2438,127.4688 54.8688,126.8906 L54.8688,129.6094 Z " fill="#000000"/><text fill="#000000" font-family="sans-serif" font-size="14" lengthAdjust="spacing" textLength="179" x="72.1" y="122.9951">DynamicParameters.Node</text><text fill="#000000" font-family="sans-serif" font-size="10" lengthAdjust="spacing" textLength="49" x="137.1" y="135.5791">elki.gui.util</text><line style="stroke:#181818;stroke-width:0.5;" x1="10" x2="281" y1="142.9375" y2="142.9375"/><polygon fill="none" points="20,151.5859,24,155.5859,20,159.5859,16,155.5859" style="stroke:#B38D22;stroke-width:1.0;"/><text fill="#000000" font-family="sans-serif" font-size="14" lengthAdjust="spacing" textLength="154" x="29" y="159.9326">param: Parameter&lt;?&gt;</text><polygon fill="none" points="20,167.8828,24,171.8828,20,175.8828,16,171.8828" style="stroke:#B38D22;stroke-width:1.0;"/><text fill="#000000" font-family="sans-serif" font-size="14" lengthAdjust="spacing" textLength="85" x="29" y="176.2295">value: String</text><polygon fill="none" points="20,184.1797,24,188.1797,20,192.1797,16,188.1797" style="stroke:#B38D22;stroke-width:1.0;"/><text fill="#000000" font-family="sans-serif" font-size="14" lengthAdjust="spacing" textLength="58" x="29" y="192.5264">flags: int</text><polygon fill="none" points="20,200.4766,24,204.4766,20,208.4766,16,204.4766" style="stroke:#B38D22;stroke-width:1.0;"/><text fill="#000000" font-family="sans-serif" font-size="14" lengthAdjust="spacing" textLength="67" x="29" y="208.8232">depth: int</text><line style="stroke:#181818;stroke-width:0.5;" x1="10" x2="281" y1="216.125" y2="216.125"/><ellipse cx="20" cy="229.7734" fill="#84BE84" rx="3" ry="3" style="stroke:#038048;stroke-width:1.0;"/><text fill="#000000" font-family="sans-serif" font-size="14" lengthAdjust="spacing" textLength="247" x="29" y="233.1201">Node(Parameter&lt;?&gt;, String, int, int)</text></g></a><!--MD5=[151ca73678af0a143a407a02463e55a3]
class elki.gui.util.DynamicParameters--><a href="DynamicParameters.html" target="_top" title="DynamicParameters.html" xlink:actuate="onRequest" xlink:href="DynamicParameters.html" xlink:show="new" xlink:title="DynamicParameters.html" xlink:type="simple"><g id="elem_elki.gui.util.DynamicParameters"><rect codeLine="14" fill="#F1F1F1" height="37.9375" id="elki.gui.util.DynamicParameters" rx="2.5" ry="2.5" style="stroke:#181818;stroke-width:0.5;" width="170" x="60.5" y="7"/><ellipse cx="75.5" cy="25.9688" fill="#ADD1B2" rx="11" ry="11" style="stroke:#181818;stroke-width:1.0;"/><path d="M78.4688,31.6094 Q77.8906,31.9063 77.25,32.0469 Q76.6094,32.2031 75.9063,32.2031 Q73.4063,32.2031 72.0781,30.5625 Q70.7656,28.9063 70.7656,25.7813 Q70.7656,22.6563 72.0781,21 Q73.4063,19.3438 75.9063,19.3438 Q76.6094,19.3438 77.25,19.5 Q77.9063,19.6563 78.4688,19.9531 L78.4688,22.6719 Q77.8438,22.0938 77.25,21.8281 Q76.6563,21.5469 76.0313,21.5469 Q74.6875,21.5469 74,22.625 Q73.3125,23.6875 73.3125,25.7813 Q73.3125,27.875 74,28.9531 Q74.6875,30.0156 76.0313,30.0156 Q76.6563,30.0156 77.25,29.75 Q77.8438,29.4688 78.4688,28.8906 L78.4688,31.6094 Z " fill="#000000"/><text fill="#000000" font-family="sans-serif" font-size="14" lengthAdjust="spacing" textLength="138" x="89.5" y="24.9951">DynamicParameters</text><text fill="#000000" font-family="sans-serif" font-size="10" lengthAdjust="spacing" textLength="49" x="134" y="37.5791">elki.gui.util</text></g></a><!--MD5=[62eedc7263646a6e760aef434781d5ad]
reverse link elki.gui.util.DynamicParameters to elki.gui.util.DynamicParameters.Node--><g id="link_elki.gui.util.DynamicParameters_elki.gui.util.DynamicParameters.Node"><path codeLine="16" d="M145.5,60.25 C145.5,73.51 145.5,89.26 145.5,104.69 " fill="none" id="elki.gui.util.DynamicParameters-backto-elki.gui.util.DynamicParameters.Node" style="stroke:#181818;stroke-width:1.0;"/><ellipse cx="145.5" cy="53.01" fill="#FFFFFF" rx="8" ry="8" style="stroke:#181818;stroke-width:1.0;"/><line style="stroke:#181818;stroke-width:1.0;" x1="145.5" x2="145.5" y1="61.01" y2="45.01"/><line style="stroke:#181818;stroke-width:1.0;" x1="137.5" x2="153.5" y1="53.01" y2="53.01"/></g><rect fill="none" height="11.6406" style="stroke:none;stroke-width:1.0;" width="186" x="44.5" y="246.4219"/><text fill="#888888" font-family="sans-serif" font-size="10" lengthAdjust="spacing" textLength="186" x="44.5" y="255.7041">UMLDoclet 2.0.19, PlantUML 1.2022.8</text><!--MD5=[25c15e64824ff9221753145f1e12696a]
@startuml
    remove .*\.(Instance|Par|Parameterizer|Factory)$
    set namespaceSeparator none
    hide empty fields
    hide empty methods

    class "<size:14>DynamicParameters.Node\n<size:10>elki.gui.util" as elki.gui.util.DynamicParameters.Node [[DynamicParameters.Node.html]] {
        #param: Parameter<?>
        #value: String
        #flags: int
        #depth: int
        +Node(Parameter<?>, String, int, int)
    }

    class "<size:14>DynamicParameters\n<size:10>elki.gui.util" as elki.gui.util.DynamicParameters [[DynamicParameters.html]]

    elki.gui.util.DynamicParameters +- - elki.gui.util.DynamicParameters.Node

    center footer UMLDoclet 2.0.19, PlantUML 1.2022.8
@enduml

PlantUML version 1.2022.8(Sun Sep 25 11:00:33 CEST 2022)
(APACHE source distribution)
Java Runtime: OpenJDK Runtime Environment
JVM: OpenJDK 64-Bit Server VM
Default Encoding: UTF-8
Language: de
Country: DE
--></g></svg>