<?xml version="1.0" encoding="UTF-8" standalone="no"?><svg xmlns="http://www.w3.org/2000/svg" xmlns:xlink="http://www.w3.org/1999/xlink" contentStyleType="text/css" height="282px" preserveAspectRatio="none" style="width:346px;height:282px;background:#FFFFFF;" version="1.1" viewBox="0 0 346 282" width="346px" zoomAndPan="magnify"><defs/><g><!--MD5=[71c1aec9cf085eeb41347d54d9caf1cf]
class elki.gui.util.LogPanel.LogPanelHandler--><a href="LogPanel.LogPanelHandler.html" target="_top" title="LogPanel.LogPanelHandler.html" xlink:actuate="onRequest" xlink:href="LogPanel.LogPanelHandler.html" xlink:show="new" xlink:title="LogPanel.LogPanelHandler.html" xlink:type="simple"><g id="elem_elki.gui.util.LogPanel.LogPanelHandler"><rect codeLine="6" fill="#F1F1F1" height="94.8281" id="elki.gui.util.LogPanel.LogPanelHandler" rx="2.5" ry="2.5" style="stroke:#181818;stroke-width:0.5;" width="215" x="92.5" y="162"/><ellipse cx="107.5" cy="180.9688" fill="#ADD1B2" rx="11" ry="11" style="stroke:#181818;stroke-width:1.0;"/><path d="M110.4688,186.6094 Q109.8906,186.9063 109.25,187.0469 Q108.6094,187.2031 107.9063,187.2031 Q105.4063,187.2031 104.0781,185.5625 Q102.7656,183.9063 102.7656,180.7813 Q102.7656,177.6563 104.0781,176 Q105.4063,174.3438 107.9063,174.3438 Q108.6094,174.3438 109.25,174.5 Q109.9063,174.6563 110.4688,174.9531 L110.4688,177.6719 Q109.8438,177.0938 109.25,176.8281 Q108.6563,176.5469 108.0313,176.5469 Q106.6875,176.5469 106,177.625 Q105.3125,178.6875 105.3125,180.7813 Q105.3125,182.875 106,183.9531 Q106.6875,185.0156 108.0313,185.0156 Q108.6563,185.0156 109.25,184.75 Q109.8438,184.4688 110.4688,183.8906 L110.4688,186.6094 Z " fill="#000000"/><text fill="#000000" font-family="sans-serif" font-size="14" lengthAdjust="spacing" textLength="183" x="121.5" y="179.9951">LogPanel.LogPanelHandler</text><text fill="#000000" font-family="sans-serif" font-size="10" lengthAdjust="spacing" textLength="49" x="188.5" y="192.5791">elki.gui.util</text><line style="stroke:#181818;stroke-width:0.5;" x1="93.5" x2="306.5" y1="199.9375" y2="199.9375"/><ellipse cx="103.5" cy="213.5859" fill="#84BE84" rx="3" ry="3" style="stroke:#038048;stroke-width:1.0;"/><text fill="#000000" font-family="sans-serif" font-size="14" lengthAdjust="spacing" textLength="84" x="112.5" y="216.9326">close(): void</text><ellipse cx="103.5" cy="229.8828" fill="#84BE84" rx="3" ry="3" style="stroke:#038048;stroke-width:1.0;"/><text fill="#000000" font-family="sans-serif" font-size="14" lengthAdjust="spacing" textLength="80" x="112.5" y="233.2295">flush(): void</text><ellipse cx="103.5" cy="246.1797" fill="#84BE84" rx="3" ry="3" style="stroke:#038048;stroke-width:1.0;"/><text fill="#000000" font-family="sans-serif" font-size="14" lengthAdjust="spacing" textLength="172" x="112.5" y="249.5264">publish(LogRecord): void</text></g></a><!--MD5=[eafdfb2280e4d25e0fdfaf8dff485424]
class java.util.logging.Handler--><g id="elem_java.util.logging.Handler"><rect codeLine="12" fill="#F1F1F1" height="94.8281" id="java.util.logging.Handler" rx="2.5" ry="2.5" style="stroke:#181818;stroke-width:0.5;" width="202" x="7" y="7"/><ellipse cx="64.25" cy="25.9688" fill="#A9DCDF" rx="11" ry="11" style="stroke:#181818;stroke-width:1.0;"/><path d="M64.3594,21.3125 L63.2031,26.3906 L65.5313,26.3906 L64.3594,21.3125 Z M62.875,19.0781 L65.8594,19.0781 L69.2188,31.4688 L66.7656,31.4688 L66,28.4063 L62.7188,28.4063 L61.9688,31.4688 L59.5313,31.4688 L62.875,19.0781 Z " fill="#000000"/><text fill="#000000" font-family="sans-serif" font-size="14" font-style="italic" lengthAdjust="spacing" textLength="56" x="96.25" y="24.9951">Handler</text><text fill="#000000" font-family="sans-serif" font-size="10" font-style="italic" lengthAdjust="spacing" textLength="79" x="84.75" y="37.5791">java.util.logging</text><line style="stroke:#181818;stroke-width:0.5;" x1="8" x2="208" y1="44.9375" y2="44.9375"/><ellipse cx="18" cy="58.5859" fill="#84BE84" rx="3" ry="3" style="stroke:#038048;stroke-width:1.0;"/><text fill="#000000" font-family="sans-serif" font-size="14" font-style="italic" lengthAdjust="spacing" textLength="176" x="27" y="61.9326">publish(LogRecord): void</text><ellipse cx="18" cy="74.8828" fill="#84BE84" rx="3" ry="3" style="stroke:#038048;stroke-width:1.0;"/><text fill="#000000" font-family="sans-serif" font-size="14" font-style="italic" lengthAdjust="spacing" textLength="83" x="27" y="78.2295">flush(): void</text><ellipse cx="18" cy="91.1797" fill="#84BE84" rx="3" ry="3" style="stroke:#038048;stroke-width:1.0;"/><text fill="#000000" font-family="sans-serif" font-size="14" font-style="italic" lengthAdjust="spacing" textLength="86" x="27" y="94.5264">close(): void</text></g><!--MD5=[f44bd903f493a93cb06e13a0fe4a1e2d]
class elki.gui.util.LogPanel--><a href="LogPanel.html" target="_top" title="LogPanel.html" xlink:actuate="onRequest" xlink:href="LogPanel.html" xlink:show="new" xlink:title="LogPanel.html" xlink:type="simple"><g id="elem_elki.gui.util.LogPanel"><rect codeLine="17" fill="#F1F1F1" height="37.9375" id="elki.gui.util.LogPanel" rx="2.5" ry="2.5" style="stroke:#181818;stroke-width:0.5;" width="95" x="244.5" y="35.5"/><ellipse cx="259.5" cy="54.4688" fill="#ADD1B2" rx="11" ry="11" style="stroke:#181818;stroke-width:1.0;"/><path d="M262.4688,60.1094 Q261.8906,60.4063 261.25,60.5469 Q260.6094,60.7031 259.9063,60.7031 Q257.4063,60.7031 256.0781,59.0625 Q254.7656,57.4063 254.7656,54.2813 Q254.7656,51.1563 256.0781,49.5 Q257.4063,47.8438 259.9063,47.8438 Q260.6094,47.8438 261.25,48 Q261.9063,48.1563 262.4688,48.4531 L262.4688,51.1719 Q261.8438,50.5938 261.25,50.3281 Q260.6563,50.0469 260.0313,50.0469 Q258.6875,50.0469 258,51.125 Q257.3125,52.1875 257.3125,54.2813 Q257.3125,56.375 258,57.4531 Q258.6875,58.5156 260.0313,58.5156 Q260.6563,58.5156 261.25,58.25 Q261.8438,57.9688 262.4688,57.3906 L262.4688,60.1094 Z " fill="#000000"/><text fill="#000000" font-family="sans-serif" font-size="14" lengthAdjust="spacing" textLength="63" x="273.5" y="53.4951">LogPanel</text><text fill="#000000" font-family="sans-serif" font-size="10" lengthAdjust="spacing" textLength="49" x="280.5" y="66.0791">elki.gui.util</text></g></a><!--MD5=[e6bd1fb74b6762d30b7ad19564171e36]
reverse link java.util.logging.Handler to elki.gui.util.LogPanel.LogPanelHandler--><g id="link_java.util.logging.Handler_elki.gui.util.LogPanel.LogPanelHandler"><path codeLine="19" d="M146.59,119.67 C155.08,133.8 163.92,148.5 171.91,161.79 " fill="none" id="java.util.logging.Handler-backto-elki.gui.util.LogPanel.LogPanelHandler" style="stroke:#181818;stroke-width:1.0;"/><polygon fill="none" points="140.41,122.98,136.1,102.24,152.41,115.77,140.41,122.98" style="stroke:#181818;stroke-width:1.0;"/></g><!--MD5=[a61a6ef9146415df9afe1fce3e3fbf6f]
reverse link elki.gui.util.LogPanel to elki.gui.util.LogPanel.LogPanelHandler--><g id="link_elki.gui.util.LogPanel_elki.gui.util.LogPanel.LogPanelHandler"><path codeLine="20" d="M273.27,86.65 C260.26,108.29 242.69,137.51 228.02,161.91 " fill="none" id="elki.gui.util.LogPanel-backto-elki.gui.util.LogPanel.LogPanelHandler" style="stroke:#181818;stroke-width:1.0;"/><ellipse cx="276.9651" cy="80.5046" fill="#FFFFFF" rx="8" ry="8" style="stroke:#181818;stroke-width:1.0;"/><line style="stroke:#181818;stroke-width:1.0;" x1="272.8401" x2="281.09" y1="87.3591" y2="73.65"/><line style="stroke:#181818;stroke-width:1.0;" x1="270.1105" x2="283.8196" y1="76.3796" y2="84.6295"/></g><rect fill="none" height="11.6406" style="stroke:none;stroke-width:1.0;" width="186" x="73.25" y="262.8281"/><text fill="#888888" font-family="sans-serif" font-size="10" lengthAdjust="spacing" textLength="186" x="73.25" y="272.1104">UMLDoclet 2.0.19, PlantUML 1.2022.8</text><!--MD5=[20d4f85e4da0e624d2000790397683b3]
@startuml
    remove .*\.(Instance|Par|Parameterizer|Factory)$
    set namespaceSeparator none
    hide empty fields
    hide empty methods

    class "<size:14>LogPanel.LogPanelHandler\n<size:10>elki.gui.util" as elki.gui.util.LogPanel.LogPanelHandler [[LogPanel.LogPanelHandler.html]] {
        +close(): void
        +flush(): void
        +publish(LogRecord): void
    }

    abstract class "<size:14>Handler\n<size:10>java.util.logging" as java.util.logging.Handler {
        {abstract} +publish(LogRecord): void
        {abstract} +flush(): void
        {abstract} +close(): void
    }
    class "<size:14>LogPanel\n<size:10>elki.gui.util" as elki.gui.util.LogPanel [[LogPanel.html]]

    java.util.logging.Handler <|- - elki.gui.util.LogPanel.LogPanelHandler
    elki.gui.util.LogPanel +- - elki.gui.util.LogPanel.LogPanelHandler

    center footer UMLDoclet 2.0.19, PlantUML 1.2022.8
@enduml

PlantUML version 1.2022.8(Sun Sep 25 11:00:33 CEST 2022)
(APACHE source distribution)
Java Runtime: OpenJDK Runtime Environment
JVM: OpenJDK 64-Bit Server VM
Default Encoding: UTF-8
Language: de
Country: DE
--></g></svg>