<?xml version="1.0" encoding="UTF-8" standalone="no"?>
<!DOCTYPE svg PUBLIC "-//W3C//DTD SVG 1.1//EN"
 "http://www.w3.org/Graphics/SVG/1.1/DTD/svg11.dtd">
<!-- Generated by graphviz version 2.40.1 (20161225.0304)
 -->
<!-- Title: G Pages: 1 -->
<svg width="150pt" height="36pt"
 viewBox="0.00 0.00 150.00 36.00" xmlns="http://www.w3.org/2000/svg" xmlns:xlink="http://www.w3.org/1999/xlink">
<g id="graph0" class="graph" transform="scale(1 1) rotate(0) translate(4 32)">
<title>G</title>
<polygon fill="#ffffff" stroke="transparent" points="-4,4 -4,-32 146,-32 146,4 -4,4"/>
<!-- c1611775 -->
<g id="node1" class="node">
<title>c1611775</title>
<g id="a_node1"><a xlink:href="ArrayLikeUtil.html" xlink:title="&lt;TABLE&gt;">
<g id="a_node1_0"><a xlink:href="ArrayLikeUtil.html" xlink:title="de.lmu.ifi.dbs.elki.utilities.datastructures.arraylike.ArrayLikeUtil" target="_parent">
<polygon fill="#fffacd" stroke="transparent" points="0,-5.5 0,-22.5 62,-22.5 62,-5.5 0,-5.5"/>
<polygon fill="none" stroke="#000000" points="0,-5 0,-22 62,-22 62,-5 0,-5"/>
<text text-anchor="start" x="4" y="-12.6" font-family="Roboto" font-size="8.00" fill="#000000"> </text>
<text text-anchor="start" x="7" y="-12.6" font-family="Roboto" font-size="8.00" fill="#000000">ArrayLikeUtil</text>
<text text-anchor="start" x="55" y="-12.6" font-family="Roboto" font-size="8.00" fill="#000000"> </text>
</a>
</g>
</a>
</g>
</g>
<!-- c1612800 -->
<g id="node2" class="node">
<title>c1612800</title>
<g id="a_node2"><a xlink:href="ArrayAdapter.html" xlink:title="&lt;TABLE&gt;">
<g id="a_node2_1"><a xlink:href="ArrayAdapter.html" xlink:title="de.lmu.ifi.dbs.elki.utilities.datastructures.arraylike.ArrayAdapter" target="_parent">
<polygon fill="none" stroke="#000000" points="80,0 80,-28 142,-28 142,0 80,0"/>
<text text-anchor="start" x="89.5" y="-17.6" font-family="Roboto" font-size="8.00" fill="#000000"> «interface» </text>
<text text-anchor="start" x="84" y="-7.6" font-family="Roboto" font-size="8.00" fill="#000000"> </text>
<text text-anchor="start" x="87" y="-7.6" font-family="Roboto" font-size="8.00" fill="#000000">ArrayAdapter</text>
<text text-anchor="start" x="135" y="-7.6" font-family="Roboto" font-size="8.00" fill="#000000"> </text>
</a>
</g>
</a>
</g>
</g>
<!-- c1611775&#45;&gt;c1612800 -->
<g id="edge1" class="edge">
<title>c1611775&#45;&gt;c1612800</title>
<path fill="none" stroke="#000000" d="M74.3038,-14C76.1487,-14 77.9841,-14 79.7943,-14"/>
<polygon fill="#000000" stroke="#000000" points="74.1592,-14.0001 68.1591,-18 62.1592,-14 68.1592,-10 74.1592,-14.0001"/>
</g>
</g>
</svg>
