<?xml version="1.0" encoding="UTF-8" standalone="no"?>
<!DOCTYPE svg PUBLIC "-//W3C//DTD SVG 1.1//EN"
 "http://www.w3.org/Graphics/SVG/1.1/DTD/svg11.dtd">
<!-- Generated by graphviz version 2.40.1 (20161225.0304)
 -->
<!-- Title: G Pages: 1 -->
<svg width="244pt" height="153pt"
 viewBox="0.00 0.00 244.00 153.00" xmlns="http://www.w3.org/2000/svg" xmlns:xlink="http://www.w3.org/1999/xlink">
<g id="graph0" class="graph" transform="scale(1 1) rotate(0) translate(4 149)">
<title>G</title>
<polygon fill="#ffffff" stroke="transparent" points="-4,4 -4,-149 240,-149 240,4 -4,4"/>
<!-- c3446283 -->
<g id="node1" class="node">
<title>c3446283</title>
<g id="a_node1"><a xlink:href="../../../visualization/gui/overview/RectangleArranger.html" xlink:title="&lt;TABLE&gt;">
<g id="a_node1_0"><a xlink:href="../../../visualization/gui/overview/RectangleArranger.html" xlink:title="de.lmu.ifi.dbs.elki.visualization.gui.overview.RectangleArranger" target="_parent">
<polygon fill="none" stroke="#000000" points=".5,-117 .5,-145 159.5,-145 159.5,-117 .5,-117"/>
<text text-anchor="start" x="43.5" y="-135.6" font-family="Roboto" font-size="8.00" fill="#000000"> </text>
<text text-anchor="start" x="46.5" y="-135.6" font-family="Roboto" font-size="8.00" fill="#000000">RectangleArranger</text>
<text text-anchor="start" x="113.5" y="-135.6" font-family="Roboto" font-size="8.00" fill="#000000"> </text>
<text text-anchor="start" x="4.5" y="-124.6" font-family="Roboto" font-size="8.00" fill="#000000"> </text>
<text text-anchor="start" x="7.5" y="-124.6" font-family="Roboto" font-size="7.00" fill="#000000">de.lmu.ifi.dbs.elki.visualization.gui.overview</text>
<text text-anchor="start" x="152.5" y="-124.6" font-family="Roboto" font-size="8.00" fill="#000000"> </text>
</a>
</g>
</a>
</g>
</g>
<!-- c3448131 -->
<g id="node4" class="node">
<title>c3448131</title>
<g id="a_node4"><a xlink:href="DoubleArray.html" xlink:title="&lt;TABLE&gt;">
<g id="a_node4_1"><a xlink:href="DoubleArray.html" xlink:title="de.lmu.ifi.dbs.elki.utilities.datastructures.arraylike.DoubleArray" target="_parent">
<polygon fill="#fffacd" stroke="transparent" points="177,-44.5 177,-61.5 236,-61.5 236,-44.5 177,-44.5"/>
<polygon fill="none" stroke="#000000" points="177.5,-44 177.5,-61 236.5,-61 236.5,-44 177.5,-44"/>
<text text-anchor="start" x="181.5" y="-51.6" font-family="Roboto" font-size="8.00" fill="#000000"> </text>
<text text-anchor="start" x="184.5" y="-51.6" font-family="Roboto" font-size="8.00" fill="#000000">DoubleArray</text>
<text text-anchor="start" x="229.5" y="-51.6" font-family="Roboto" font-size="8.00" fill="#000000"> </text>
</a>
</g>
</a>
</g>
</g>
<!-- c3446283&#45;&gt;c3448131 -->
<g id="edge2" class="edge">
<title>c3446283&#45;&gt;c3448131</title>
<path fill="none" stroke="#000000" d="M149.942,-116.9539C153.0836,-115.4657 156.1213,-113.82 159,-112 175.2783,-101.7084 188.4773,-83.8827 196.7926,-70.5113"/>
<polygon fill="#000000" stroke="#000000" points="201.9586,-61.7336 200.7647,-72.6343 199.4225,-66.0427 196.8865,-70.3518 196.8865,-70.3518 196.8865,-70.3518 199.4225,-66.0427 193.0082,-68.0694 201.9586,-61.7336 201.9586,-61.7336"/>
</g>
<!-- c3447882 -->
<g id="node2" class="node">
<title>c3447882</title>
<g id="a_node2"><a xlink:href="../../../math/geometry/XYCurve.html" xlink:title="&lt;TABLE&gt;">
<g id="a_node2_2"><a xlink:href="../../../math/geometry/XYCurve.html" xlink:title="de.lmu.ifi.dbs.elki.math.geometry.XYCurve" target="_parent">
<polygon fill="none" stroke="#000000" points="18.5,-78 18.5,-106 140.5,-106 140.5,-78 18.5,-78"/>
<text text-anchor="start" x="61" y="-96.6" font-family="Roboto" font-size="8.00" fill="#000000"> </text>
<text text-anchor="start" x="64" y="-96.6" font-family="Roboto" font-size="8.00" fill="#000000">XYCurve</text>
<text text-anchor="start" x="95" y="-96.6" font-family="Roboto" font-size="8.00" fill="#000000"> </text>
<text text-anchor="start" x="22.5" y="-85.6" font-family="Roboto" font-size="8.00" fill="#000000"> </text>
<text text-anchor="start" x="25.5" y="-85.6" font-family="Roboto" font-size="7.00" fill="#000000">de.lmu.ifi.dbs.elki.math.geometry</text>
<text text-anchor="start" x="133.5" y="-85.6" font-family="Roboto" font-size="8.00" fill="#000000"> </text>
</a>
</g>
</a>
</g>
</g>
<!-- c3447882&#45;&gt;c3448131 -->
<g id="edge3" class="edge">
<title>c3447882&#45;&gt;c3448131</title>
<path fill="none" stroke="#000000" d="M140.5539,-78.4899C146.8238,-76.7806 153.0663,-74.9437 159,-73 165.473,-70.8796 172.2965,-68.2518 178.6897,-65.6058"/>
<polygon fill="#000000" stroke="#000000" points="188.2697,-61.5032 180.8487,-69.5765 183.6735,-63.4715 179.0772,-65.4399 179.0772,-65.4399 179.0772,-65.4399 183.6735,-63.4715 177.3057,-61.3033 188.2697,-61.5032 188.2697,-61.5032"/>
</g>
<!-- c3448048 -->
<g id="node3" class="node">
<title>c3448048</title>
<g id="a_node3"><a xlink:href="NumberArrayAdapter.html" xlink:title="&lt;TABLE&gt;">
<g id="a_node3_3"><a xlink:href="NumberArrayAdapter.html" xlink:title="de.lmu.ifi.dbs.elki.utilities.datastructures.arraylike.NumberArrayAdapter" target="_parent">
<polygon fill="none" stroke="#000000" points="34.5,-39 34.5,-67 124.5,-67 124.5,-39 34.5,-39"/>
<text text-anchor="start" x="58" y="-56.6" font-family="Roboto" font-size="8.00" fill="#000000"> «interface» </text>
<text text-anchor="start" x="38.5" y="-46.6" font-family="Roboto" font-size="8.00" fill="#000000"> </text>
<text text-anchor="start" x="41.5" y="-46.6" font-family="Roboto" font-size="8.00" fill="#000000">NumberArrayAdapter</text>
<text text-anchor="start" x="117.5" y="-46.6" font-family="Roboto" font-size="8.00" fill="#000000"> </text>
</a>
</g>
</a>
</g>
</g>
<!-- c3448048&#45;&gt;c3448131 -->
<g id="edge1" class="edge">
<title>c3448048&#45;&gt;c3448131</title>
<path fill="none" stroke="#000000" stroke-dasharray="5,2" d="M135.0127,-53C149.4635,-53 164.4751,-53 176.9895,-53"/>
<polygon fill="none" stroke="#000000" points="134.6331,-49.5001 124.633,-53 134.633,-56.5001 134.6331,-49.5001"/>
</g>
<!-- c3448740 -->
<g id="node5" class="node">
<title>c3448740</title>
<g id="a_node5"><a xlink:href="../../../datasource/parser/NumberVectorLabelParser.html" xlink:title="&lt;TABLE&gt;">
<g id="a_node5_4"><a xlink:href="../../../datasource/parser/NumberVectorLabelParser.html" xlink:title="de.lmu.ifi.dbs.elki.datasource.parser.NumberVectorLabelParser" target="_parent">
<polygon fill="#fffacd" stroke="transparent" points="13.5,0 13.5,-28 145.5,-28 145.5,0 13.5,0"/>
<polygon fill="none" stroke="#000000" points="13.5,0 13.5,-28 145.5,-28 145.5,0 13.5,0"/>
<text text-anchor="start" x="30" y="-18.6" font-family="Roboto" font-size="8.00" fill="#000000"> </text>
<text text-anchor="start" x="33" y="-18.6" font-family="Roboto" font-size="8.00" fill="#000000">NumberVectorLabelParser</text>
<text text-anchor="start" x="126" y="-18.6" font-family="Roboto" font-size="8.00" fill="#000000"> </text>
<text text-anchor="start" x="17.5" y="-7.6" font-family="Roboto" font-size="8.00" fill="#000000"> </text>
<text text-anchor="start" x="20.5" y="-7.6" font-family="Roboto" font-size="7.00" fill="#000000">de.lmu.ifi.dbs.elki.datasource.parser</text>
<text text-anchor="start" x="138.5" y="-7.6" font-family="Roboto" font-size="8.00" fill="#000000"> </text>
</a>
</g>
</a>
</g>
</g>
<!-- c3448740&#45;&gt;c3448131 -->
<g id="edge4" class="edge">
<title>c3448740&#45;&gt;c3448131</title>
<path fill="none" stroke="#000000" d="M139.2215,-28.1006C145.9305,-29.9578 152.6369,-31.9373 159,-34 164.9539,-35.9301 171.2291,-38.2372 177.1977,-40.5677"/>
<polygon fill="#000000" stroke="#000000" points="186.8419,-44.4491 175.8849,-44.8901 182.2034,-42.5823 177.565,-40.7155 177.565,-40.7155 177.565,-40.7155 182.2034,-42.5823 179.2451,-36.5409 186.8419,-44.4491 186.8419,-44.4491"/>
</g>
</g>
</svg>
