<?xml version="1.0" encoding="UTF-8" standalone="no"?>
<!DOCTYPE svg PUBLIC "-//W3C//DTD SVG 1.1//EN"
 "http://www.w3.org/Graphics/SVG/1.1/DTD/svg11.dtd">
<!-- Generated by graphviz version 2.40.1 (20161225.0304)
 -->
<!-- Title: G Pages: 1 -->
<svg width="219pt" height="36pt"
 viewBox="0.00 0.00 219.00 36.00" xmlns="http://www.w3.org/2000/svg" xmlns:xlink="http://www.w3.org/1999/xlink">
<g id="graph0" class="graph" transform="scale(1 1) rotate(0) translate(4 32)">
<title>G</title>
<polygon fill="#ffffff" stroke="transparent" points="-4,4 -4,-32 215,-32 215,4 -4,4"/>
<!-- c7431874 -->
<g id="node1" class="node">
<title>c7431874</title>
<g id="a_node1"><a xlink:href="NumberListArrayAdapter.html" xlink:title="&lt;TABLE&gt;">
<g id="a_node1_0"><a xlink:href="NumberListArrayAdapter.html" xlink:title="de.lmu.ifi.dbs.elki.utilities.datastructures.arraylike.NumberListArrayAdapter" target="_parent">
<polygon fill="#fffacd" stroke="transparent" points="108,-5.5 108,-22.5 211,-22.5 211,-5.5 108,-5.5"/>
<polygon fill="none" stroke="#000000" points="108.5,-5 108.5,-22 211.5,-22 211.5,-5 108.5,-5"/>
<text text-anchor="start" x="112.5" y="-12.6" font-family="Roboto" font-size="8.00" fill="#000000"> </text>
<text text-anchor="start" x="115.5" y="-12.6" font-family="Roboto" font-size="8.00" fill="#000000">NumberListArrayAdapter</text>
<text text-anchor="start" x="204.5" y="-12.6" font-family="Roboto" font-size="8.00" fill="#000000"> </text>
</a>
</g>
</a>
</g>
</g>
<!-- c7431876 -->
<g id="node2" class="node">
<title>c7431876</title>
<g id="a_node2"><a xlink:href="NumberArrayAdapter.html" xlink:title="&lt;TABLE&gt;">
<g id="a_node2_1"><a xlink:href="NumberArrayAdapter.html" xlink:title="de.lmu.ifi.dbs.elki.utilities.datastructures.arraylike.NumberArrayAdapter" target="_parent">
<polygon fill="none" stroke="#000000" points="0,0 0,-28 90,-28 90,0 0,0"/>
<text text-anchor="start" x="23.5" y="-17.6" font-family="Roboto" font-size="8.00" fill="#000000"> «interface» </text>
<text text-anchor="start" x="4" y="-7.6" font-family="Roboto" font-size="8.00" fill="#000000"> </text>
<text text-anchor="start" x="7" y="-7.6" font-family="Roboto" font-size="8.00" fill="#000000">NumberArrayAdapter</text>
<text text-anchor="start" x="83" y="-7.6" font-family="Roboto" font-size="8.00" fill="#000000"> </text>
</a>
</g>
</a>
</g>
</g>
<!-- c7431876&#45;&gt;c7431874 -->
<g id="edge1" class="edge">
<title>c7431876&#45;&gt;c7431874</title>
<path fill="none" stroke="#000000" stroke-dasharray="5,2" d="M100.3495,-14C102.8234,-14 105.302,-14 107.7668,-14"/>
<polygon fill="none" stroke="#000000" points="100.2535,-10.5001 90.2534,-14 100.2534,-17.5001 100.2535,-10.5001"/>
</g>
</g>
</svg>
