<?xml version="1.0" encoding="UTF-8" standalone="no"?><svg xmlns="http://www.w3.org/2000/svg" xmlns:xlink="http://www.w3.org/1999/xlink" contentStyleType="text/css" height="314px" preserveAspectRatio="none" style="width:479px;height:314px;background:#FFFFFF;" version="1.1" viewBox="0 0 479 314" width="479px" zoomAndPan="magnify"><defs/><g><!--MD5=[b0945c29d3286cd9f67a1417f55c607f]
class elki.result.AutomaticVisualization--><a href="AutomaticVisualization.html" target="_top" title="AutomaticVisualization.html" xlink:actuate="onRequest" xlink:href="AutomaticVisualization.html" xlink:show="new" xlink:title="AutomaticVisualization.html" xlink:type="simple"><g id="elem_elki.result.AutomaticVisualization"><rect codeLine="6" fill="#F1F1F1" height="184.3125" id="elki.result.AutomaticVisualization" rx="2.5" ry="2.5" style="stroke:#181818;stroke-width:0.5;" width="463" x="9" y="105"/><ellipse cx="159.25" cy="123.9688" fill="#ADD1B2" rx="11" ry="11" style="stroke:#181818;stroke-width:1.0;"/><path d="M162.2188,129.6094 Q161.6406,129.9063 161,130.0469 Q160.3594,130.2031 159.6563,130.2031 Q157.1563,130.2031 155.8281,128.5625 Q154.5156,126.9063 154.5156,123.7813 Q154.5156,120.6563 155.8281,119 Q157.1563,117.3438 159.6563,117.3438 Q160.3594,117.3438 161,117.5 Q161.6563,117.6563 162.2188,117.9531 L162.2188,120.6719 Q161.5938,120.0938 161,119.8281 Q160.4063,119.5469 159.7813,119.5469 Q158.4375,119.5469 157.75,120.625 Q157.0625,121.6875 157.0625,123.7813 Q157.0625,125.875 157.75,126.9531 Q158.4375,128.0156 159.7813,128.0156 Q160.4063,128.0156 161,127.75 Q161.5938,127.4688 162.2188,126.8906 L162.2188,129.6094 Z " fill="#000000"/><text fill="#000000" font-family="sans-serif" font-size="14" lengthAdjust="spacing" textLength="154" x="179.75" y="122.9951">AutomaticVisualization</text><text fill="#000000" font-family="sans-serif" font-size="10" lengthAdjust="spacing" textLength="45" x="234.25" y="135.5791">elki.result</text><line style="stroke:#181818;stroke-width:0.5;" x1="10" x2="471" y1="142.9375" y2="142.9375"/><rect fill="none" height="6" style="stroke:#C82930;stroke-width:1.0;" width="6" x="17" y="153.5859"/><text fill="#000000" font-family="sans-serif" font-size="14" lengthAdjust="spacing" text-decoration="underline" textLength="93" x="29" y="159.9326">LOG: Logging</text><polygon fill="none" points="20,168.8828,16,174.8828,24,174.8828" style="stroke:#1963A0;stroke-width:1.0;"/><text fill="#000000" font-family="sans-serif" font-size="14" lengthAdjust="spacing" textLength="74" x="29" y="176.2295">title: String</text><polygon fill="none" points="20,184.1797,24,188.1797,20,192.1797,16,188.1797" style="stroke:#B38D22;stroke-width:1.0;"/><text fill="#000000" font-family="sans-serif" font-size="14" lengthAdjust="spacing" text-decoration="underline" textLength="156" x="29" y="192.5264">DEFAULT_TITLE: String</text><polygon fill="none" points="20,201.4766,16,207.4766,24,207.4766" style="stroke:#1963A0;stroke-width:1.0;"/><text fill="#000000" font-family="sans-serif" font-size="14" lengthAdjust="spacing" textLength="231" x="29" y="208.8232">manager: VisualizerParameterizer</text><polygon fill="none" points="20,217.7734,16,223.7734,24,223.7734" style="stroke:#1963A0;stroke-width:1.0;"/><text fill="#000000" font-family="sans-serif" font-size="14" lengthAdjust="spacing" textLength="106" x="29" y="225.1201">single: boolean</text><polygon fill="none" points="20,234.0703,16,240.0703,24,240.0703" style="stroke:#1963A0;stroke-width:1.0;"/><text fill="#000000" font-family="sans-serif" font-size="14" lengthAdjust="spacing" textLength="159" x="29" y="241.417">window: ResultWindow</text><line style="stroke:#181818;stroke-width:0.5;" x1="10" x2="471" y1="248.7188" y2="248.7188"/><ellipse cx="20" cy="262.3672" fill="#84BE84" rx="3" ry="3" style="stroke:#038048;stroke-width:1.0;"/><text fill="#000000" font-family="sans-serif" font-size="14" lengthAdjust="spacing" textLength="437" x="29" y="265.7139">AutomaticVisualization(String, VisualizerParameterizer, boolean)</text><ellipse cx="20" cy="278.6641" fill="#84BE84" rx="3" ry="3" style="stroke:#038048;stroke-width:1.0;"/><text fill="#000000" font-family="sans-serif" font-size="14" lengthAdjust="spacing" textLength="222" x="29" y="282.0107">processNewResult(Object): void</text></g></a><!--MD5=[017fcb68bb9ce3f98882c4c8405eda7a]
class elki.result.ResultHandler--><a href="ResultHandler.html" target="_top" title="ResultHandler.html" xlink:actuate="onRequest" xlink:href="ResultHandler.html" xlink:show="new" xlink:title="ResultHandler.html" xlink:type="simple"><g id="elem_elki.result.ResultHandler"><rect codeLine="17" fill="#F1F1F1" height="37.9375" id="elki.result.ResultHandler" rx="2.5" ry="2.5" style="stroke:#181818;stroke-width:0.5;" width="132" x="174.5" y="7"/><ellipse cx="189.5" cy="25.9688" fill="#B4A7E5" rx="11" ry="11" style="stroke:#181818;stroke-width:1.0;"/><path d="M185.4219,21.7344 L185.4219,19.5781 L192.8125,19.5781 L192.8125,21.7344 L190.3438,21.7344 L190.3438,29.8125 L192.8125,29.8125 L192.8125,31.9688 L185.4219,31.9688 L185.4219,29.8125 L187.8906,29.8125 L187.8906,21.7344 L185.4219,21.7344 Z " fill="#000000"/><text fill="#000000" font-family="sans-serif" font-size="14" font-style="italic" lengthAdjust="spacing" textLength="100" x="203.5" y="24.9951">ResultHandler</text><text fill="#000000" font-family="sans-serif" font-size="10" font-style="italic" lengthAdjust="spacing" textLength="49" x="229" y="37.5791">elki.result</text></g></a><!--MD5=[50d93207af44dc2027fff7dc9fbb9006]
reverse link elki.result.ResultHandler to elki.result.AutomaticVisualization--><g id="link_elki.result.ResultHandler_elki.result.AutomaticVisualization"><path codeLine="20" d="M240.5,65.42 C240.5,77.33 240.5,90.99 240.5,104.9 " fill="none" id="elki.result.ResultHandler-backto-elki.result.AutomaticVisualization" style="stroke:#181818;stroke-width:1.0;stroke-dasharray:7.0,7.0;"/><polygon fill="none" points="233.5,65.09,240.5,45.09,247.5,65.09,233.5,65.09" style="stroke:#181818;stroke-width:1.0;"/></g><rect fill="none" height="11.6406" style="stroke:none;stroke-width:1.0;" width="186" x="139.5" y="295.3125"/><text fill="#888888" font-family="sans-serif" font-size="10" lengthAdjust="spacing" textLength="186" x="139.5" y="304.5947">UMLDoclet 2.0.19, PlantUML 1.2022.8</text><!--MD5=[b27bb6032a5b5fc579f092f6f4d94c49]
@startuml
    remove .*\.(Instance|Par|Parameterizer|Factory)$
    set namespaceSeparator none
    hide empty fields
    hide empty methods

    class "<size:14>AutomaticVisualization\n<size:10>elki.result" as elki.result.AutomaticVisualization [[AutomaticVisualization.html]] {
        {static} -LOG: Logging
        ~title: String
        {static} #DEFAULT_TITLE: String
        ~manager: VisualizerParameterizer
        ~single: boolean
        ~window: ResultWindow
        +AutomaticVisualization(String, VisualizerParameterizer, boolean)
        +processNewResult(Object): void
    }

    interface "<size:14>ResultHandler\n<size:10>elki.result" as elki.result.ResultHandler [[ResultHandler.html]]
    class "<size:14>AutomaticVisualization.Par\n<size:10>elki.result" as elki.result.AutomaticVisualization.Par [[AutomaticVisualization.Par.html]]

    elki.result.ResultHandler <|.. elki.result.AutomaticVisualization
    elki.result.AutomaticVisualization +- - elki.result.AutomaticVisualization.Par

    center footer UMLDoclet 2.0.19, PlantUML 1.2022.8
@enduml

PlantUML version 1.2022.8(Sun Sep 25 11:00:33 CEST 2022)
(APACHE source distribution)
Java Runtime: OpenJDK Runtime Environment
JVM: OpenJDK 64-Bit Server VM
Default Encoding: UTF-8
Language: de
Country: DE
--></g></svg>