<?xml version="1.0" encoding="UTF-8" standalone="no"?><svg xmlns="http://www.w3.org/2000/svg" xmlns:xlink="http://www.w3.org/1999/xlink" contentStyleType="text/css" height="314px" preserveAspectRatio="none" style="width:439px;height:314px;background:#FFFFFF;" version="1.1" viewBox="0 0 439 314" width="439px" zoomAndPan="magnify"><defs/><g><!--MD5=[3f873290ff0ca459f705cd7a60c857e7]
class elki.result.ClusteringVectorDumper--><a href="ClusteringVectorDumper.html" target="_top" title="ClusteringVectorDumper.html" xlink:actuate="onRequest" xlink:href="ClusteringVectorDumper.html" xlink:show="new" xlink:title="ClusteringVectorDumper.html" xlink:type="simple"><g id="elem_elki.result.ClusteringVectorDumper"><rect codeLine="6" fill="#F1F1F1" height="184.3125" id="elki.result.ClusteringVectorDumper" rx="2.5" ry="2.5" style="stroke:#181818;stroke-width:0.5;" width="423" x="9" y="105"/><ellipse cx="130.75" cy="123.9688" fill="#ADD1B2" rx="11" ry="11" style="stroke:#181818;stroke-width:1.0;"/><path d="M133.7188,129.6094 Q133.1406,129.9063 132.5,130.0469 Q131.8594,130.2031 131.1563,130.2031 Q128.6563,130.2031 127.3281,128.5625 Q126.0156,126.9063 126.0156,123.7813 Q126.0156,120.6563 127.3281,119 Q128.6563,117.3438 131.1563,117.3438 Q131.8594,117.3438 132.5,117.5 Q133.1563,117.6563 133.7188,117.9531 L133.7188,120.6719 Q133.0938,120.0938 132.5,119.8281 Q131.9063,119.5469 131.2813,119.5469 Q129.9375,119.5469 129.25,120.625 Q128.5625,121.6875 128.5625,123.7813 Q128.5625,125.875 129.25,126.9531 Q129.9375,128.0156 131.2813,128.0156 Q131.9063,128.0156 132.5,127.75 Q133.0938,127.4688 133.7188,126.8906 L133.7188,129.6094 Z " fill="#000000"/><text fill="#000000" font-family="sans-serif" font-size="14" lengthAdjust="spacing" textLength="171" x="151.25" y="122.9951">ClusteringVectorDumper</text><text fill="#000000" font-family="sans-serif" font-size="10" lengthAdjust="spacing" textLength="45" x="214.25" y="135.5791">elki.result</text><line style="stroke:#181818;stroke-width:0.5;" x1="10" x2="431" y1="142.9375" y2="142.9375"/><rect fill="none" height="6" style="stroke:#C82930;stroke-width:1.0;" width="6" x="17" y="153.5859"/><text fill="#000000" font-family="sans-serif" font-size="14" lengthAdjust="spacing" text-decoration="underline" textLength="93" x="29" y="159.9326">LOG: Logging</text><rect fill="none" height="6" style="stroke:#C82930;stroke-width:1.0;" width="6" x="17" y="169.8828"/><text fill="#000000" font-family="sans-serif" font-size="14" lengthAdjust="spacing" textLength="109" x="29" y="176.2295">outputFile: Path</text><rect fill="none" height="6" style="stroke:#C82930;stroke-width:1.0;" width="6" x="17" y="186.1797"/><text fill="#000000" font-family="sans-serif" font-size="14" lengthAdjust="spacing" textLength="120" x="29" y="192.5264">forceLabel: String</text><rect fill="none" height="6" style="stroke:#C82930;stroke-width:1.0;" width="6" x="17" y="202.4766"/><text fill="#000000" font-family="sans-serif" font-size="14" lengthAdjust="spacing" textLength="118" x="29" y="208.8232">append: boolean</text><line style="stroke:#181818;stroke-width:0.5;" x1="10" x2="431" y1="216.125" y2="216.125"/><ellipse cx="20" cy="229.7734" fill="#84BE84" rx="3" ry="3" style="stroke:#038048;stroke-width:1.0;"/><text fill="#000000" font-family="sans-serif" font-size="14" lengthAdjust="spacing" textLength="324" x="29" y="233.1201">ClusteringVectorDumper(Path, boolean, String)</text><ellipse cx="20" cy="246.0703" fill="#84BE84" rx="3" ry="3" style="stroke:#038048;stroke-width:1.0;"/><text fill="#000000" font-family="sans-serif" font-size="14" lengthAdjust="spacing" textLength="276" x="29" y="249.417">ClusteringVectorDumper(Path, boolean)</text><ellipse cx="20" cy="262.3672" fill="#84BE84" rx="3" ry="3" style="stroke:#038048;stroke-width:1.0;"/><text fill="#000000" font-family="sans-serif" font-size="14" lengthAdjust="spacing" textLength="222" x="29" y="265.7139">processNewResult(Object): void</text><polygon fill="#FFFF44" points="20,273.6641,24,277.6641,20,281.6641,16,277.6641" style="stroke:#B38D22;stroke-width:1.0;"/><text fill="#000000" font-family="sans-serif" font-size="14" lengthAdjust="spacing" textLength="397" x="29" y="282.0107">dumpClusteringOutput(Appendable, Clustering&lt;?&gt;): void</text></g></a><!--MD5=[017fcb68bb9ce3f98882c4c8405eda7a]
class elki.result.ResultHandler--><a href="ResultHandler.html" target="_top" title="ResultHandler.html" xlink:actuate="onRequest" xlink:href="ResultHandler.html" xlink:show="new" xlink:title="ResultHandler.html" xlink:type="simple"><g id="elem_elki.result.ResultHandler"><rect codeLine="17" fill="#F1F1F1" height="37.9375" id="elki.result.ResultHandler" rx="2.5" ry="2.5" style="stroke:#181818;stroke-width:0.5;" width="132" x="154.5" y="7"/><ellipse cx="169.5" cy="25.9688" fill="#B4A7E5" rx="11" ry="11" style="stroke:#181818;stroke-width:1.0;"/><path d="M165.4219,21.7344 L165.4219,19.5781 L172.8125,19.5781 L172.8125,21.7344 L170.3438,21.7344 L170.3438,29.8125 L172.8125,29.8125 L172.8125,31.9688 L165.4219,31.9688 L165.4219,29.8125 L167.8906,29.8125 L167.8906,21.7344 L165.4219,21.7344 Z " fill="#000000"/><text fill="#000000" font-family="sans-serif" font-size="14" font-style="italic" lengthAdjust="spacing" textLength="100" x="183.5" y="24.9951">ResultHandler</text><text fill="#000000" font-family="sans-serif" font-size="10" font-style="italic" lengthAdjust="spacing" textLength="49" x="209" y="37.5791">elki.result</text></g></a><!--MD5=[ff3b950c6b2e0379c71c9fe7ccfcc021]
reverse link elki.result.ResultHandler to elki.result.ClusteringVectorDumper--><g id="link_elki.result.ResultHandler_elki.result.ClusteringVectorDumper"><path codeLine="20" d="M220.5,65.42 C220.5,77.33 220.5,90.99 220.5,104.9 " fill="none" id="elki.result.ResultHandler-backto-elki.result.ClusteringVectorDumper" style="stroke:#181818;stroke-width:1.0;stroke-dasharray:7.0,7.0;"/><polygon fill="none" points="213.5,65.09,220.5,45.09,227.5,65.09,213.5,65.09" style="stroke:#181818;stroke-width:1.0;"/></g><rect fill="none" height="11.6406" style="stroke:none;stroke-width:1.0;" width="186" x="119.5" y="295.3125"/><text fill="#888888" font-family="sans-serif" font-size="10" lengthAdjust="spacing" textLength="186" x="119.5" y="304.5947">UMLDoclet 2.0.19, PlantUML 1.2022.8</text><!--MD5=[4b64114dbc3e4a9c68819bb6a6169352]
@startuml
    remove .*\.(Instance|Par|Parameterizer|Factory)$
    set namespaceSeparator none
    hide empty fields
    hide empty methods

    class "<size:14>ClusteringVectorDumper\n<size:10>elki.result" as elki.result.ClusteringVectorDumper [[ClusteringVectorDumper.html]] {
        {static} -LOG: Logging
        -outputFile: Path
        -forceLabel: String
        -append: boolean
        +ClusteringVectorDumper(Path, boolean, String)
        +ClusteringVectorDumper(Path, boolean)
        +processNewResult(Object): void
        #dumpClusteringOutput(Appendable, Clustering<?>): void
    }

    interface "<size:14>ResultHandler\n<size:10>elki.result" as elki.result.ResultHandler [[ResultHandler.html]]
    class "<size:14>ClusteringVectorDumper.Par\n<size:10>elki.result" as elki.result.ClusteringVectorDumper.Par [[ClusteringVectorDumper.Par.html]]

    elki.result.ResultHandler <|.. elki.result.ClusteringVectorDumper
    elki.result.ClusteringVectorDumper +- - elki.result.ClusteringVectorDumper.Par

    center footer UMLDoclet 2.0.19, PlantUML 1.2022.8
@enduml

PlantUML version 1.2022.8(Sun Sep 25 11:00:33 CEST 2022)
(APACHE source distribution)
Java Runtime: OpenJDK Runtime Environment
JVM: OpenJDK 64-Bit Server VM
Default Encoding: UTF-8
Language: de
Country: DE
--></g></svg>