<?xml version="1.0" encoding="UTF-8" standalone="no"?><svg xmlns="http://www.w3.org/2000/svg" xmlns:xlink="http://www.w3.org/1999/xlink" contentStyleType="text/css" height="274px" preserveAspectRatio="none" style="width:235px;height:274px;background:#FFFFFF;" version="1.1" viewBox="0 0 235 274" width="235px" zoomAndPan="magnify"><defs/><g><!--MD5=[f816cf38b7ddc66499c77de28d531185]
class elki.result.ExportVisualizations.Format--><a href="ExportVisualizations.Format.html" target="_top" title="ExportVisualizations.Format.html" xlink:actuate="onRequest" xlink:href="ExportVisualizations.Format.html" xlink:show="new" xlink:title="ExportVisualizations.Format.html" xlink:type="simple"><g id="elem_elki.result.ExportVisualizations.Format"><rect codeLine="6" fill="#F1F1F1" height="143.7188" id="elki.result.ExportVisualizations.Format" rx="2.5" ry="2.5" style="stroke:#181818;stroke-width:0.5;" width="221" x="7" y="105"/><ellipse cx="22" cy="123.9688" fill="#EB937F" rx="11" ry="11" style="stroke:#181818;stroke-width:1.0;"/><path d="M26.1094,129.9688 L18.3906,129.9688 L18.3906,117.5781 L26.1094,117.5781 L26.1094,119.7344 L20.8438,119.7344 L20.8438,122.4063 L25.6094,122.4063 L25.6094,124.5625 L20.8438,124.5625 L20.8438,127.8125 L26.1094,127.8125 L26.1094,129.9688 Z " fill="#000000"/><text fill="#000000" font-family="sans-serif" font-size="14" lengthAdjust="spacing" textLength="189" x="36" y="122.9951">ExportVisualizations.Format</text><text fill="#000000" font-family="sans-serif" font-size="10" lengthAdjust="spacing" textLength="45" x="108" y="135.5791">elki.result</text><line style="stroke:#181818;stroke-width:0.5;" x1="8" x2="227" y1="142.9375" y2="142.9375"/><ellipse cx="18" cy="156.5859" fill="none" rx="3" ry="3" style="stroke:#038048;stroke-width:1.0;"/><text fill="#000000" font-family="sans-serif" font-size="14" lengthAdjust="spacing" text-decoration="underline" textLength="29" x="27" y="159.9326">SVG</text><ellipse cx="18" cy="172.8828" fill="none" rx="3" ry="3" style="stroke:#038048;stroke-width:1.0;"/><text fill="#000000" font-family="sans-serif" font-size="14" lengthAdjust="spacing" text-decoration="underline" textLength="30" x="27" y="176.2295">PNG</text><ellipse cx="18" cy="189.1797" fill="none" rx="3" ry="3" style="stroke:#038048;stroke-width:1.0;"/><text fill="#000000" font-family="sans-serif" font-size="14" lengthAdjust="spacing" text-decoration="underline" textLength="28" x="27" y="192.5264">PDF</text><ellipse cx="18" cy="205.4766" fill="none" rx="3" ry="3" style="stroke:#038048;stroke-width:1.0;"/><text fill="#000000" font-family="sans-serif" font-size="14" lengthAdjust="spacing" text-decoration="underline" textLength="18" x="27" y="208.8232">PS</text><ellipse cx="18" cy="221.7734" fill="none" rx="3" ry="3" style="stroke:#038048;stroke-width:1.0;"/><text fill="#000000" font-family="sans-serif" font-size="14" lengthAdjust="spacing" text-decoration="underline" textLength="27" x="27" y="225.1201">EPS</text><ellipse cx="18" cy="238.0703" fill="none" rx="3" ry="3" style="stroke:#038048;stroke-width:1.0;"/><text fill="#000000" font-family="sans-serif" font-size="14" lengthAdjust="spacing" text-decoration="underline" textLength="32" x="27" y="241.417">JPEG</text></g></a><!--MD5=[27add722f6d1fe9fce400c73197ff9ec]
class elki.result.ExportVisualizations--><a href="ExportVisualizations.html" target="_top" title="ExportVisualizations.html" xlink:actuate="onRequest" xlink:href="ExportVisualizations.html" xlink:show="new" xlink:title="ExportVisualizations.html" xlink:type="simple"><g id="elem_elki.result.ExportVisualizations"><rect codeLine="15" fill="#F1F1F1" height="37.9375" id="elki.result.ExportVisualizations" rx="2.5" ry="2.5" style="stroke:#181818;stroke-width:0.5;" width="169" x="33" y="7"/><ellipse cx="48" cy="25.9688" fill="#ADD1B2" rx="11" ry="11" style="stroke:#181818;stroke-width:1.0;"/><path d="M50.9688,31.6094 Q50.3906,31.9063 49.75,32.0469 Q49.1094,32.2031 48.4063,32.2031 Q45.9063,32.2031 44.5781,30.5625 Q43.2656,28.9063 43.2656,25.7813 Q43.2656,22.6563 44.5781,21 Q45.9063,19.3438 48.4063,19.3438 Q49.1094,19.3438 49.75,19.5 Q50.4063,19.6563 50.9688,19.9531 L50.9688,22.6719 Q50.3438,22.0938 49.75,21.8281 Q49.1563,21.5469 48.5313,21.5469 Q47.1875,21.5469 46.5,22.625 Q45.8125,23.6875 45.8125,25.7813 Q45.8125,27.875 46.5,28.9531 Q47.1875,30.0156 48.5313,30.0156 Q49.1563,30.0156 49.75,29.75 Q50.3438,29.4688 50.9688,28.8906 L50.9688,31.6094 Z " fill="#000000"/><text fill="#000000" font-family="sans-serif" font-size="14" lengthAdjust="spacing" textLength="137" x="62" y="24.9951">ExportVisualizations</text><text fill="#000000" font-family="sans-serif" font-size="10" lengthAdjust="spacing" textLength="45" x="108" y="37.5791">elki.result</text></g></a><!--MD5=[626a4d4a91b53f3b62c289cf19f30a64]
reverse link elki.result.ExportVisualizations to elki.result.ExportVisualizations.Format--><g id="link_elki.result.ExportVisualizations_elki.result.ExportVisualizations.Format"><path codeLine="17" d="M117.5,60.44 C117.5,73.62 117.5,89.31 117.5,104.8 " fill="none" id="elki.result.ExportVisualizations-backto-elki.result.ExportVisualizations.Format" style="stroke:#181818;stroke-width:1.0;"/><ellipse cx="117.5" cy="53.27" fill="#FFFFFF" rx="8" ry="8" style="stroke:#181818;stroke-width:1.0;"/><line style="stroke:#181818;stroke-width:1.0;" x1="117.5" x2="117.5" y1="61.27" y2="45.27"/><line style="stroke:#181818;stroke-width:1.0;" x1="109.5" x2="125.5" y1="53.27" y2="53.27"/></g><rect fill="none" height="11.6406" style="stroke:none;stroke-width:1.0;" width="186" x="17.5" y="254.7188"/><text fill="#888888" font-family="sans-serif" font-size="10" lengthAdjust="spacing" textLength="186" x="17.5" y="264.001">UMLDoclet 2.0.19, PlantUML 1.2022.8</text><!--MD5=[9fb497c66785eafc25fcb7fe2e1e4813]
@startuml
    remove .*\.(Instance|Par|Parameterizer|Factory)$
    set namespaceSeparator none
    hide empty fields
    hide empty methods

    enum "<size:14>ExportVisualizations.Format\n<size:10>elki.result" as elki.result.ExportVisualizations.Format [[ExportVisualizations.Format.html]] {
        {static} +SVG
        {static} +PNG
        {static} +PDF
        {static} +PS
        {static} +EPS
        {static} +JPEG
    }

    class "<size:14>ExportVisualizations\n<size:10>elki.result" as elki.result.ExportVisualizations [[ExportVisualizations.html]]

    elki.result.ExportVisualizations +- - elki.result.ExportVisualizations.Format

    center footer UMLDoclet 2.0.19, PlantUML 1.2022.8
@enduml

PlantUML version 1.2022.8(Sun Sep 25 11:00:33 CEST 2022)
(APACHE source distribution)
Java Runtime: OpenJDK Runtime Environment
JVM: OpenJDK 64-Bit Server VM
Default Encoding: UTF-8
Language: de
Country: DE
--></g></svg>