<?xml version="1.0" encoding="UTF-8" standalone="no"?><svg xmlns="http://www.w3.org/2000/svg" xmlns:xlink="http://www.w3.org/1999/xlink" contentStyleType="text/css" height="212px" preserveAspectRatio="none" style="width:454px;height:212px;background:#FFFFFF;" version="1.1" viewBox="0 0 454 212" width="454px" zoomAndPan="magnify"><defs/><g><!--MD5=[5b57ef70e4f5f9d7a93a4366da1d38e4]
class elki.result.HistogramResult--><a href="HistogramResult.html" target="_top" title="HistogramResult.html" xlink:actuate="onRequest" xlink:href="HistogramResult.html" xlink:show="new" xlink:title="HistogramResult.html" xlink:type="simple"><g id="elem_elki.result.HistogramResult"><rect codeLine="6" fill="#F1F1F1" height="78.5313" id="elki.result.HistogramResult" rx="2.5" ry="2.5" style="stroke:#181818;stroke-width:0.5;" width="440" x="7" y="108"/><ellipse cx="165.75" cy="126.9688" fill="#ADD1B2" rx="11" ry="11" style="stroke:#181818;stroke-width:1.0;"/><path d="M168.7188,132.6094 Q168.1406,132.9063 167.5,133.0469 Q166.8594,133.2031 166.1563,133.2031 Q163.6563,133.2031 162.3281,131.5625 Q161.0156,129.9063 161.0156,126.7813 Q161.0156,123.6563 162.3281,122 Q163.6563,120.3438 166.1563,120.3438 Q166.8594,120.3438 167.5,120.5 Q168.1563,120.6563 168.7188,120.9531 L168.7188,123.6719 Q168.0938,123.0938 167.5,122.8281 Q166.9063,122.5469 166.2813,122.5469 Q164.9375,122.5469 164.25,123.625 Q163.5625,124.6875 163.5625,126.7813 Q163.5625,128.875 164.25,129.9531 Q164.9375,131.0156 166.2813,131.0156 Q166.9063,131.0156 167.5,130.75 Q168.0938,130.4688 168.7188,129.8906 L168.7188,132.6094 Z " fill="#000000"/><text fill="#000000" font-family="sans-serif" font-size="14" lengthAdjust="spacing" textLength="114" x="186.25" y="125.9951">HistogramResult</text><text fill="#000000" font-family="sans-serif" font-size="10" lengthAdjust="spacing" textLength="45" x="220.75" y="138.5791">elki.result</text><line style="stroke:#181818;stroke-width:0.5;" x1="8" x2="446" y1="145.9375" y2="145.9375"/><ellipse cx="18" cy="159.5859" fill="#84BE84" rx="3" ry="3" style="stroke:#038048;stroke-width:1.0;"/><text fill="#000000" font-family="sans-serif" font-size="14" lengthAdjust="spacing" textLength="274" x="27" y="162.9326">HistogramResult(Collection&lt;double[]&gt;)</text><ellipse cx="18" cy="175.8828" fill="#84BE84" rx="3" ry="3" style="stroke:#038048;stroke-width:1.0;"/><text fill="#000000" font-family="sans-serif" font-size="14" lengthAdjust="spacing" textLength="414" x="27" y="179.2295">HistogramResult(Collection&lt;double[]&gt;, Collection&lt;String&gt;)</text></g></a><!--MD5=[629918ecf1711e611fc283950451388b]
class elki.result.CollectionResult--><a href="CollectionResult.html" target="_top" title="CollectionResult.html" xlink:actuate="onRequest" xlink:href="CollectionResult.html" xlink:show="new" xlink:title="CollectionResult.html" xlink:type="simple"><g id="elem_elki.result.CollectionResult"><rect codeLine="11" fill="#F1F1F1" height="37.9375" id="elki.result.CollectionResult" rx="2.5" ry="2.5" style="stroke:#181818;stroke-width:0.5;" width="199" x="127.5" y="10"/><ellipse cx="142.5" cy="28.9688" fill="#ADD1B2" rx="11" ry="11" style="stroke:#181818;stroke-width:1.0;"/><path d="M145.4688,34.6094 Q144.8906,34.9063 144.25,35.0469 Q143.6094,35.2031 142.9063,35.2031 Q140.4063,35.2031 139.0781,33.5625 Q137.7656,31.9063 137.7656,28.7813 Q137.7656,25.6563 139.0781,24 Q140.4063,22.3438 142.9063,22.3438 Q143.6094,22.3438 144.25,22.5 Q144.9063,22.6563 145.4688,22.9531 L145.4688,25.6719 Q144.8438,25.0938 144.25,24.8281 Q143.6563,24.5469 143.0313,24.5469 Q141.6875,24.5469 141,25.625 Q140.3125,26.6875 140.3125,28.7813 Q140.3125,30.875 141,31.9531 Q141.6875,33.0156 143.0313,33.0156 Q143.6563,33.0156 144.25,32.75 Q144.8438,32.4688 145.4688,31.8906 L145.4688,34.6094 Z " fill="#000000"/><text fill="#000000" font-family="sans-serif" font-size="14" lengthAdjust="spacing" textLength="112" x="156.5" y="27.9951">CollectionResult</text><text fill="#000000" font-family="sans-serif" font-size="10" lengthAdjust="spacing" textLength="45" x="190" y="40.5791">elki.result</text><rect fill="#FFFFFF" height="15.9688" style="stroke:#181818;stroke-width:1.0;stroke-dasharray:2.0,2.0;" width="53" x="276.5" y="7"/><text fill="#000000" font-family="sans-serif" font-size="12" font-style="italic" lengthAdjust="spacing" textLength="51" x="277.5" y="19.1387">double[]</text></g></a><!--MD5=[b68f29d2affe64819f581f7422524e3f]
reverse link elki.result.CollectionResult to elki.result.HistogramResult--><g id="link_elki.result.CollectionResult_elki.result.HistogramResult"><path codeLine="13" d="M227,68.24 C227,80.9 227,95 227,107.71 " fill="none" id="elki.result.CollectionResult-backto-elki.result.HistogramResult" style="stroke:#181818;stroke-width:1.0;"/><polygon fill="none" points="220,68.2,227,48.2,234,68.2,220,68.2" style="stroke:#181818;stroke-width:1.0;"/></g><rect fill="none" height="11.6406" style="stroke:none;stroke-width:1.0;" width="186" x="127" y="192.5313"/><text fill="#888888" font-family="sans-serif" font-size="10" lengthAdjust="spacing" textLength="186" x="127" y="201.8135">UMLDoclet 2.0.19, PlantUML 1.2022.8</text><!--MD5=[ca68b144f1b8c7d424f9f34820db5ed4]
@startuml
    remove .*\.(Instance|Par|Parameterizer|Factory)$
    set namespaceSeparator none
    hide empty fields
    hide empty methods

    class "<size:14>HistogramResult\n<size:10>elki.result" as elki.result.HistogramResult [[HistogramResult.html]] {
        +HistogramResult(Collection<double[]>)
        +HistogramResult(Collection<double[]>, Collection<String>)
    }

    class "<size:14>CollectionResult\n<size:10>elki.result" as elki.result.CollectionResult<double[]> [[CollectionResult.html]]

    elki.result.CollectionResult <|- - elki.result.HistogramResult

    center footer UMLDoclet 2.0.19, PlantUML 1.2022.8
@enduml

PlantUML version 1.2022.8(Sun Sep 25 11:00:33 CEST 2022)
(APACHE source distribution)
Java Runtime: OpenJDK Runtime Environment
JVM: OpenJDK 64-Bit Server VM
Default Encoding: UTF-8
Language: de
Country: DE
--></g></svg>