<?xml version="1.0" encoding="UTF-8" standalone="no"?><svg xmlns="http://www.w3.org/2000/svg" xmlns:xlink="http://www.w3.org/1999/xlink" contentStyleType="text/css" height="277px" preserveAspectRatio="none" style="width:362px;height:277px;background:#FFFFFF;" version="1.1" viewBox="0 0 362 277" width="362px" zoomAndPan="magnify"><defs/><g><!--MD5=[225e6ffb6df5c8e73196580f6f9863e5]
class elki.result.Metadata.EagerIt--><a href="Metadata.EagerIt.html" target="_top" title="Metadata.EagerIt.html" xlink:actuate="onRequest" xlink:href="Metadata.EagerIt.html" xlink:show="new" xlink:title="Metadata.EagerIt.html" xlink:type="simple"><g id="elem_elki.result.Metadata.EagerIt"><rect codeLine="6" fill="#F1F1F1" height="102.8281" id="elki.result.Metadata.EagerIt" rx="2.5" ry="2.5" style="stroke:#181818;stroke-width:0.5;" width="165" x="129" y="149"/><ellipse cx="144" cy="167.9688" fill="#A9DCDF" rx="11" ry="11" style="stroke:#181818;stroke-width:1.0;"/><path d="M144.1094,163.3125 L142.9531,168.3906 L145.2813,168.3906 L144.1094,163.3125 Z M142.625,161.0781 L145.6094,161.0781 L148.9688,173.4688 L146.5156,173.4688 L145.75,170.4063 L142.4688,170.4063 L141.7188,173.4688 L139.2813,173.4688 L142.625,161.0781 Z " fill="#000000"/><text fill="#000000" font-family="sans-serif" font-size="14" font-style="italic" lengthAdjust="spacing" textLength="121" x="158" y="166.9951">Metadata.EagerIt</text><text fill="#000000" font-family="sans-serif" font-size="10" font-style="italic" lengthAdjust="spacing" textLength="49" x="194" y="179.5791">elki.result</text><rect fill="#FFFFFF" height="15.9688" style="stroke:#181818;stroke-width:1.0;stroke-dasharray:2.0,2.0;" width="10" x="287" y="146"/><text fill="#000000" font-family="sans-serif" font-size="12" font-style="italic" lengthAdjust="spacing" textLength="8" x="288" y="158.1387">O</text><line style="stroke:#181818;stroke-width:0.5;" x1="130" x2="293" y1="186.9375" y2="186.9375"/><polygon fill="none" points="140,195.5859,144,199.5859,140,203.5859,136,199.5859" style="stroke:#B38D22;stroke-width:1.0;"/><text fill="#000000" font-family="sans-serif" font-size="14" lengthAdjust="spacing" textLength="104" x="149" y="203.9326">current: Object</text><line style="stroke:#181818;stroke-width:0.5;" x1="130" x2="293" y1="211.2344" y2="211.2344"/><ellipse cx="140" cy="224.8828" fill="#84BE84" rx="3" ry="3" style="stroke:#038048;stroke-width:1.0;"/><text fill="#000000" font-family="sans-serif" font-size="14" lengthAdjust="spacing" textLength="105" x="149" y="228.2295">valid(): boolean</text><ellipse cx="140" cy="241.1797" fill="#84BE84" rx="3" ry="3" style="stroke:#038048;stroke-width:1.0;"/><text fill="#000000" font-family="sans-serif" font-size="14" lengthAdjust="spacing" textLength="53" x="149" y="244.5264">get(): O</text></g></a><!--MD5=[2d9fce021190a906c1c5dfa1fad69cb4]
class elki.utilities.datastructures.iterator.It--><a href="../utilities/datastructures/iterator/It.html" target="_top" title="../utilities/datastructures/iterator/It.html" xlink:actuate="onRequest" xlink:href="../utilities/datastructures/iterator/It.html" xlink:show="new" xlink:title="../utilities/datastructures/iterator/It.html" xlink:type="simple"><g id="elem_elki.utilities.datastructures.iterator.It"><rect codeLine="12" fill="#F1F1F1" height="78.5313" id="elki.utilities.datastructures.iterator.It" rx="2.5" ry="2.5" style="stroke:#181818;stroke-width:0.5;" width="217" x="7" y="10"/><ellipse cx="22" cy="28.9688" fill="#B4A7E5" rx="11" ry="11" style="stroke:#181818;stroke-width:1.0;"/><path d="M17.9219,24.7344 L17.9219,22.5781 L25.3125,22.5781 L25.3125,24.7344 L22.8438,24.7344 L22.8438,32.8125 L25.3125,32.8125 L25.3125,34.9688 L17.9219,34.9688 L17.9219,32.8125 L20.3906,32.8125 L20.3906,24.7344 L17.9219,24.7344 Z " fill="#000000"/><text fill="#000000" font-family="sans-serif" font-size="14" font-style="italic" lengthAdjust="spacing" textLength="9" x="118" y="27.9951">It</text><text fill="#000000" font-family="sans-serif" font-size="10" font-style="italic" lengthAdjust="spacing" textLength="173" x="36" y="40.5791">elki.utilities.datastructures.iterator</text><rect fill="#FFFFFF" height="15.9688" style="stroke:#181818;stroke-width:1.0;stroke-dasharray:2.0,2.0;" width="10" x="217" y="7"/><text fill="#000000" font-family="sans-serif" font-size="12" font-style="italic" lengthAdjust="spacing" textLength="8" x="218" y="19.1387">O</text><line style="stroke:#181818;stroke-width:0.5;" x1="8" x2="223" y1="47.9375" y2="47.9375"/><ellipse cx="18" cy="61.5859" fill="#84BE84" rx="3" ry="3" style="stroke:#038048;stroke-width:1.0;"/><text fill="#000000" font-family="sans-serif" font-size="14" font-style="italic" lengthAdjust="spacing" textLength="53" x="27" y="64.9326">get(): O</text><ellipse cx="18" cy="77.8828" fill="#84BE84" rx="3" ry="3" style="stroke:#038048;stroke-width:1.0;"/><text fill="#000000" font-family="sans-serif" font-size="14" font-style="italic" lengthAdjust="spacing" textLength="124" x="27" y="81.2295">advance(): It&lt;O&gt;</text></g></a><!--MD5=[5b9a59c67a1e8fba80d53d5d8314e6d3]
class elki.result.Metadata--><a href="Metadata.html" target="_top" title="Metadata.html" xlink:actuate="onRequest" xlink:href="Metadata.html" xlink:show="new" xlink:title="Metadata.html" xlink:type="simple"><g id="elem_elki.result.Metadata"><rect codeLine="16" fill="#F1F1F1" height="37.9375" id="elki.result.Metadata" rx="2.5" ry="2.5" style="stroke:#181818;stroke-width:0.5;" width="96" x="259.5" y="30.5"/><ellipse cx="274.5" cy="49.4688" fill="#ADD1B2" rx="11" ry="11" style="stroke:#181818;stroke-width:1.0;"/><path d="M277.4688,55.1094 Q276.8906,55.4063 276.25,55.5469 Q275.6094,55.7031 274.9063,55.7031 Q272.4063,55.7031 271.0781,54.0625 Q269.7656,52.4063 269.7656,49.2813 Q269.7656,46.1563 271.0781,44.5 Q272.4063,42.8438 274.9063,42.8438 Q275.6094,42.8438 276.25,43 Q276.9063,43.1563 277.4688,43.4531 L277.4688,46.1719 Q276.8438,45.5938 276.25,45.3281 Q275.6563,45.0469 275.0313,45.0469 Q273.6875,45.0469 273,46.125 Q272.3125,47.1875 272.3125,49.2813 Q272.3125,51.375 273,52.4531 Q273.6875,53.5156 275.0313,53.5156 Q275.6563,53.5156 276.25,53.25 Q276.8438,52.9688 277.4688,52.3906 L277.4688,55.1094 Z " fill="#000000"/><text fill="#000000" font-family="sans-serif" font-size="14" lengthAdjust="spacing" textLength="64" x="288.5" y="48.4951">Metadata</text><text fill="#000000" font-family="sans-serif" font-size="10" lengthAdjust="spacing" textLength="45" x="298" y="61.0791">elki.result</text></g></a><!--MD5=[6e545ced5f1c11b7a012499c9ae86345]
reverse link elki.utilities.datastructures.iterator.It to elki.result.Metadata.EagerIt--><g id="link_elki.utilities.datastructures.iterator.It_elki.result.Metadata.EagerIt"><path codeLine="18" d="M151.44,106.29 C160.44,120.25 170.05,135.16 178.87,148.86 " fill="none" id="elki.utilities.datastructures.iterator.It-backto-elki.result.Metadata.EagerIt" style="stroke:#181818;stroke-width:1.0;stroke-dasharray:7.0,7.0;"/><polygon fill="none" points="145.42,109.86,140.47,89.26,157.19,102.28,145.42,109.86" style="stroke:#181818;stroke-width:1.0;"/></g><!--MD5=[101b2123e513ccf759ba60e192abf71b]
reverse link elki.result.Metadata to elki.result.Metadata.EagerIt--><g id="link_elki.result.Metadata_elki.result.Metadata.EagerIt"><path codeLine="19" d="M287.58,81.42 C275.06,100.85 258.61,126.38 244.21,148.73 " fill="none" id="elki.result.Metadata-backto-elki.result.Metadata.EagerIt" style="stroke:#181818;stroke-width:1.0;"/><ellipse cx="291.402" cy="75.4982" fill="#FFFFFF" rx="8" ry="8" style="stroke:#181818;stroke-width:1.0;"/><line style="stroke:#181818;stroke-width:1.0;" x1="287.074" x2="295.73" y1="82.2264" y2="68.77"/><line style="stroke:#181818;stroke-width:1.0;" x1="284.6738" x2="298.1302" y1="71.1702" y2="79.8262"/></g><rect fill="none" height="11.6406" style="stroke:none;stroke-width:1.0;" width="186" x="81.25" y="257.8281"/><text fill="#888888" font-family="sans-serif" font-size="10" lengthAdjust="spacing" textLength="186" x="81.25" y="267.1104">UMLDoclet 2.0.19, PlantUML 1.2022.8</text><!--MD5=[e927f30d7d46c92fd8740909f32f9efe]
@startuml
    remove .*\.(Instance|Par|Parameterizer|Factory)$
    set namespaceSeparator none
    hide empty fields
    hide empty methods

    abstract class "<size:14>Metadata.EagerIt\n<size:10>elki.result" as elki.result.Metadata.EagerIt<O> [[Metadata.EagerIt.html]] {
        #current: Object
        +valid(): boolean
        +get(): O
    }

    interface "<size:14>It\n<size:10>elki.utilities.datastructures.iterator" as elki.utilities.datastructures.iterator.It<O> [[../utilities/datastructures/iterator/It.html]] {
        {abstract} +get(): O
        {abstract} +advance(): It<O>
    }
    class "<size:14>Metadata\n<size:10>elki.result" as elki.result.Metadata [[Metadata.html]]

    elki.utilities.datastructures.iterator.It <|.. elki.result.Metadata.EagerIt
    elki.result.Metadata +- - elki.result.Metadata.EagerIt

    center footer UMLDoclet 2.0.19, PlantUML 1.2022.8
@enduml

PlantUML version 1.2022.8(Sun Sep 25 11:00:33 CEST 2022)
(APACHE source distribution)
Java Runtime: OpenJDK Runtime Environment
JVM: OpenJDK 64-Bit Server VM
Default Encoding: UTF-8
Language: de
Country: DE
--></g></svg>