<?xml version="1.0" encoding="UTF-8" standalone="no"?><svg xmlns="http://www.w3.org/2000/svg" xmlns:xlink="http://www.w3.org/1999/xlink" contentStyleType="text/css" height="185px" preserveAspectRatio="none" style="width:397px;height:185px;background:#FFFFFF;" version="1.1" viewBox="0 0 397 185" width="397px" zoomAndPan="magnify"><defs/><g><!--MD5=[f5b98f7051d363b0fc20d7827f87c909]
class elki.result.SelectionResult--><a href="SelectionResult.html" target="_top" title="SelectionResult.html" xlink:actuate="onRequest" xlink:href="SelectionResult.html" xlink:show="new" xlink:title="SelectionResult.html" xlink:type="simple"><g id="elem_elki.result.SelectionResult"><rect codeLine="6" fill="#F1F1F1" height="151.7188" id="elki.result.SelectionResult" rx="2.5" ry="2.5" style="stroke:#181818;stroke-width:0.5;" width="376" x="7" y="7"/><ellipse cx="136.75" cy="25.9688" fill="#ADD1B2" rx="11" ry="11" style="stroke:#181818;stroke-width:1.0;"/><path d="M139.7188,31.6094 Q139.1406,31.9063 138.5,32.0469 Q137.8594,32.2031 137.1563,32.2031 Q134.6563,32.2031 133.3281,30.5625 Q132.0156,28.9063 132.0156,25.7813 Q132.0156,22.6563 133.3281,21 Q134.6563,19.3438 137.1563,19.3438 Q137.8594,19.3438 138.5,19.5 Q139.1563,19.6563 139.7188,19.9531 L139.7188,22.6719 Q139.0938,22.0938 138.5,21.8281 Q137.9063,21.5469 137.2813,21.5469 Q135.9375,21.5469 135.25,22.625 Q134.5625,23.6875 134.5625,25.7813 Q134.5625,27.875 135.25,28.9531 Q135.9375,30.0156 137.2813,30.0156 Q137.9063,30.0156 138.5,29.75 Q139.0938,29.4688 139.7188,28.8906 L139.7188,31.6094 Z " fill="#000000"/><text fill="#000000" font-family="sans-serif" font-size="14" lengthAdjust="spacing" textLength="108" x="157.25" y="24.9951">SelectionResult</text><text fill="#000000" font-family="sans-serif" font-size="10" lengthAdjust="spacing" textLength="45" x="188.75" y="37.5791">elki.result</text><line style="stroke:#181818;stroke-width:0.5;" x1="8" x2="382" y1="44.9375" y2="44.9375"/><polygon fill="none" points="18,54.5859,14,60.5859,22,60.5859" style="stroke:#1963A0;stroke-width:1.0;"/><text fill="#000000" font-family="sans-serif" font-size="14" lengthAdjust="spacing" textLength="171" x="27" y="61.9326">selection: DBIDSelection</text><line style="stroke:#181818;stroke-width:0.5;" x1="8" x2="382" y1="69.2344" y2="69.2344"/><ellipse cx="18" cy="82.8828" fill="#84BE84" rx="3" ry="3" style="stroke:#038048;stroke-width:1.0;"/><text fill="#000000" font-family="sans-serif" font-size="14" lengthAdjust="spacing" textLength="205" x="27" y="86.2295">getSelection(): DBIDSelection</text><ellipse cx="18" cy="99.1797" fill="#84BE84" rx="3" ry="3" style="stroke:#038048;stroke-width:1.0;"/><text fill="#000000" font-family="sans-serif" font-size="14" lengthAdjust="spacing" textLength="232" x="27" y="102.5264">setSelection(DBIDSelection): void</text><ellipse cx="18" cy="115.4766" fill="#84BE84" rx="3" ry="3" style="stroke:#038048;stroke-width:1.0;"/><text fill="#000000" font-family="sans-serif" font-size="14" lengthAdjust="spacing" textLength="156" x="27" y="118.8232">getLongName(): String</text><ellipse cx="18" cy="131.7734" fill="#84BE84" rx="3" ry="3" style="stroke:#038048;stroke-width:1.0;"/><text fill="#000000" font-family="sans-serif" font-size="14" lengthAdjust="spacing" textLength="159" x="27" y="135.1201">getShortName(): String</text><ellipse cx="18" cy="148.0703" fill="#84BE84" rx="3" ry="3" style="stroke:#038048;stroke-width:1.0;"/><text fill="#000000" font-family="sans-serif" font-size="14" lengthAdjust="spacing" text-decoration="underline" textLength="350" x="27" y="151.417">ensureSelectionResult(Database): SelectionResult</text></g></a><rect fill="none" height="11.6406" style="stroke:none;stroke-width:1.0;" width="186" x="101.5" y="165.7188"/><text fill="#888888" font-family="sans-serif" font-size="10" lengthAdjust="spacing" textLength="186" x="101.5" y="175.001">UMLDoclet 2.0.19, PlantUML 1.2022.8</text><!--MD5=[cbea711df0b0edaec97068bf83702828]
@startuml
    remove .*\.(Instance|Par|Parameterizer|Factory)$
    set namespaceSeparator none
    hide empty fields
    hide empty methods

    class "<size:14>SelectionResult\n<size:10>elki.result" as elki.result.SelectionResult [[SelectionResult.html]] {
        ~selection: DBIDSelection
        +getSelection(): DBIDSelection
        +setSelection(DBIDSelection): void
        +getLongName(): String
        +getShortName(): String
        {static} +ensureSelectionResult(Database): SelectionResult
    }

    center footer UMLDoclet 2.0.19, PlantUML 1.2022.8
@enduml

PlantUML version 1.2022.8(Sun Sep 25 11:00:33 CEST 2022)
(APACHE source distribution)
Java Runtime: OpenJDK Runtime Environment
JVM: OpenJDK 64-Bit Server VM
Default Encoding: UTF-8
Language: de
Country: DE
--></g></svg>