<?xml version="1.0" encoding="UTF-8" standalone="no"?>
<!DOCTYPE svg PUBLIC "-//W3C//DTD SVG 1.1//EN"
 "http://www.w3.org/Graphics/SVG/1.1/DTD/svg11.dtd">
<!-- Generated by graphviz version 2.40.1 (20161225.0304)
 -->
<!-- Title: G Pages: 1 -->
<svg width="426pt" height="138pt"
 viewBox="0.00 0.00 426.00 138.29" xmlns="http://www.w3.org/2000/svg" xmlns:xlink="http://www.w3.org/1999/xlink">
<g id="graph0" class="graph" transform="scale(1 1) rotate(0) translate(4 134.289)">
<title>G</title>
<polygon fill="#ffffff" stroke="transparent" points="-4,4 -4,-134.289 422,-134.289 422,4 -4,4"/>
<!-- c3734326 -->
<g id="node1" class="node">
<title>c3734326</title>
<g id="a_node1"><a xlink:href="../../../data/model/MeanModel.html" xlink:title="&lt;TABLE&gt;">
<g id="a_node1_0"><a xlink:href="../../../data/model/MeanModel.html" xlink:title="de.lmu.ifi.dbs.elki.data.model.MeanModel" target="_parent">
<polygon fill="none" stroke="#000000" points="310,0 310,-28 418,-28 418,0 310,0"/>
<text text-anchor="start" x="339.5" y="-18.6" font-family="Roboto" font-size="8.00" fill="#000000"> </text>
<text text-anchor="start" x="342.5" y="-18.6" font-family="Roboto" font-size="8.00" fill="#000000">MeanModel</text>
<text text-anchor="start" x="385.5" y="-18.6" font-family="Roboto" font-size="8.00" fill="#000000"> </text>
<text text-anchor="start" x="314" y="-7.6" font-family="Roboto" font-size="8.00" fill="#000000"> </text>
<text text-anchor="start" x="317" y="-7.6" font-family="Roboto" font-size="7.00" fill="#000000">de.lmu.ifi.dbs.elki.data.model</text>
<text text-anchor="start" x="411" y="-7.6" font-family="Roboto" font-size="8.00" fill="#000000"> </text>
</a>
</g>
</a>
</g>
</g>
<!-- c3734335 -->
<g id="node2" class="node">
<title>c3734335</title>
<g id="a_node2"><a xlink:href="AbstractEMModelFactory.html" xlink:title="&lt;TABLE&gt;">
<g id="a_node2_1"><a xlink:href="AbstractEMModelFactory.html" xlink:title="de.lmu.ifi.dbs.elki.algorithm.clustering.em.AbstractEMModelFactory" target="_parent">
<polygon fill="none" stroke="#000000" points="188.5,-78 188.5,-95 291.5,-95 291.5,-78 188.5,-78"/>
<text text-anchor="start" x="192.5" y="-85.6" font-family="Roboto" font-size="8.00" fill="#000000"> </text>
<text text-anchor="start" x="195.5" y="-85.6" font-family="Roboto" font-style="italic" font-size="8.00" fill="#000000">AbstractEMModelFactory</text>
<text text-anchor="start" x="284.5" y="-85.6" font-family="Roboto" font-size="8.00" fill="#000000"> </text>
</a>
</g>
</a>
</g>
</g>
<!-- c3734335&#45;&gt;c3734326 -->
<g id="edge4" class="edge">
<title>c3734335&#45;&gt;c3734326</title>
<path fill="none" stroke="#000000" stroke-dasharray="5,2" d="M272.3317,-78.4149C278.8209,-75.9374 285.3615,-72.8355 291,-69 301.6823,-61.7335 300.1478,-55.3574 310,-47 315.7026,-42.1626 322.19,-37.5647 328.6418,-33.421"/>
<polygon fill="#000000" stroke="#000000" points="337.3405,-28.0722 331.1792,-37.1435 333.0813,-30.6912 328.8221,-33.3102 328.8221,-33.3102 328.8221,-33.3102 333.0813,-30.6912 326.465,-29.4769 337.3405,-28.0722 337.3405,-28.0722"/>
</g>
<!-- c3734892 -->
<g id="node6" class="node">
<title>c3734892</title>
<g id="a_node6"><a xlink:href="../../../data/NumberVector.html" xlink:title="&lt;TABLE&gt;">
<g id="a_node6_2"><a xlink:href="../../../data/NumberVector.html" xlink:title="de.lmu.ifi.dbs.elki.data.NumberVector" target="_parent">
<polygon fill="#fffacd" stroke="transparent" points="320.5,-52.5 320.5,-91.5 407.5,-91.5 407.5,-52.5 320.5,-52.5"/>
<polygon fill="none" stroke="#000000" points="321,-52 321,-91 408,-91 408,-52 321,-52"/>
<text text-anchor="start" x="343" y="-80.6" font-family="Roboto" font-size="8.00" fill="#000000"> «interface» </text>
<text text-anchor="start" x="336" y="-70.6" font-family="Roboto" font-size="8.00" fill="#000000"> </text>
<text text-anchor="start" x="339" y="-70.6" font-family="Roboto" font-size="8.00" fill="#000000">NumberVector</text>
<text text-anchor="start" x="390" y="-70.6" font-family="Roboto" font-size="8.00" fill="#000000"> </text>
<text text-anchor="start" x="325" y="-59.6" font-family="Roboto" font-size="8.00" fill="#000000"> </text>
<text text-anchor="start" x="328" y="-59.6" font-family="Roboto" font-size="7.00" fill="#000000">de.lmu.ifi.dbs.elki.data</text>
<text text-anchor="start" x="401" y="-59.6" font-family="Roboto" font-size="8.00" fill="#000000"> </text>
</a>
</g>
</a>
</g>
</g>
<!-- c3734335&#45;&gt;c3734892 -->
<g id="edge5" class="edge">
<title>c3734335&#45;&gt;c3734892</title>
<path fill="none" stroke="#000000" stroke-dasharray="5,2" d="M291.2176,-80.769C297.3807,-80.0264 303.6857,-79.2668 309.8814,-78.5203"/>
<polygon fill="#000000" stroke="#000000" points="320.1607,-77.2818 310.7708,-82.9458 315.1966,-77.88 310.2325,-78.4781 310.2325,-78.4781 310.2325,-78.4781 315.1966,-77.88 309.6942,-74.0104 320.1607,-77.2818 320.1607,-77.2818"/>
</g>
<!-- c3734339 -->
<g id="node3" class="node">
<title>c3734339</title>
<g id="a_node3"><a xlink:href="EM.html" xlink:title="&lt;TABLE&gt;">
<g id="a_node3_3"><a xlink:href="EM.html" xlink:title="de.lmu.ifi.dbs.elki.algorithm.clustering.em.EM" target="_parent">
<polygon fill="none" stroke="#000000" points=".5,-78 .5,-95 27.5,-95 27.5,-78 .5,-78"/>
<text text-anchor="start" x="4.5" y="-85.6" font-family="Roboto" font-size="8.00" fill="#000000"> </text>
<text text-anchor="start" x="7.5" y="-85.6" font-family="Roboto" font-size="8.00" fill="#000000">EM</text>
<text text-anchor="start" x="20.5" y="-85.6" font-family="Roboto" font-size="8.00" fill="#000000"> </text>
</a>
</g>
</a>
</g>
</g>
<!-- c3734339&#45;&gt;c3734326 -->
<g id="edge6" class="edge">
<title>c3734339&#45;&gt;c3734326</title>
<path fill="none" stroke="#000000" stroke-dasharray="5,2" d="M26.4908,-78.3038C32.3243,-74.584 39.3733,-70.3386 46,-67 106.7335,-36.4021 121.2291,-22.9009 188,-10 224.5775,-2.9328 266.2234,-3.5023 299.8188,-6.0385"/>
<polygon fill="#000000" stroke="#000000" points="309.9721,-6.8824 299.6336,-10.5385 304.9892,-6.4682 300.0064,-6.054 300.0064,-6.054 300.0064,-6.054 304.9892,-6.4682 300.3792,-1.5694 309.9721,-6.8824 309.9721,-6.8824"/>
</g>
<!-- c3734344 -->
<g id="node5" class="node">
<title>c3734344</title>
<g id="a_node5"><a xlink:href="EMClusterModelFactory.html" xlink:title="&lt;TABLE&gt;">
<g id="a_node5_4"><a xlink:href="EMClusterModelFactory.html" xlink:title="de.lmu.ifi.dbs.elki.algorithm.clustering.em.EMClusterModelFactory" target="_parent">
<polygon fill="#fffacd" stroke="transparent" points="46,-73 46,-101 145,-101 145,-73 46,-73"/>
<polygon fill="none" stroke="#000000" points="46.5,-73 46.5,-101 145.5,-101 145.5,-73 46.5,-73"/>
<text text-anchor="start" x="74.5" y="-90.6" font-family="Roboto" font-size="8.00" fill="#000000"> «interface» </text>
<text text-anchor="start" x="50.5" y="-80.6" font-family="Roboto" font-size="8.00" fill="#000000"> </text>
<text text-anchor="start" x="53.5" y="-80.6" font-family="Roboto" font-size="8.00" fill="#000000">EMClusterModelFactory</text>
<text text-anchor="start" x="138.5" y="-80.6" font-family="Roboto" font-size="8.00" fill="#000000"> </text>
</a>
</g>
</a>
</g>
</g>
<!-- c3734339&#45;&gt;c3734344 -->
<g id="edge2" class="edge">
<title>c3734339&#45;&gt;c3734344</title>
<path fill="none" stroke="#000000" d="M39.1847,-87C41.3368,-87 43.5547,-87 45.8093,-87"/>
<polygon fill="#000000" stroke="#000000" points="39.0406,-87.0001 33.0406,-91 27.0406,-87 33.0407,-83 39.0406,-87.0001"/>
</g>
<!-- c3734339&#45;&gt;c3734892 -->
<g id="edge7" class="edge">
<title>c3734339&#45;&gt;c3734892</title>
<path fill="none" stroke="#000000" stroke-dasharray="5,2" d="M24.9,-95.5184C30.8633,-99.4772 38.4748,-103.7901 46,-106 150.5085,-136.6899 184.9922,-137.025 291,-112 303.7628,-108.9871 316.6497,-103.0844 327.9692,-96.7191"/>
<polygon fill="#000000" stroke="#000000" points="336.6788,-91.5614 330.3673,-100.5289 332.3765,-94.1091 328.0743,-96.6569 328.0743,-96.6569 328.0743,-96.6569 332.3765,-94.1091 325.7814,-92.7849 336.6788,-91.5614 336.6788,-91.5614"/>
</g>
<!-- c3734342 -->
<g id="node4" class="node">
<title>c3734342</title>
<g id="a_node4"><a xlink:href="EMClusterModel.html" xlink:title="&lt;TABLE&gt;">
<g id="a_node4_5"><a xlink:href="EMClusterModel.html" xlink:title="de.lmu.ifi.dbs.elki.algorithm.clustering.em.EMClusterModel" target="_parent">
<polygon fill="none" stroke="#000000" points="203.5,-16 203.5,-44 276.5,-44 276.5,-16 203.5,-16"/>
<text text-anchor="start" x="218.5" y="-33.6" font-family="Roboto" font-size="8.00" fill="#000000"> «interface» </text>
<text text-anchor="start" x="207.5" y="-23.6" font-family="Roboto" font-size="8.00" fill="#000000"> </text>
<text text-anchor="start" x="210.5" y="-23.6" font-family="Roboto" font-size="8.00" fill="#000000">EMClusterModel</text>
<text text-anchor="start" x="269.5" y="-23.6" font-family="Roboto" font-size="8.00" fill="#000000"> </text>
</a>
</g>
</a>
</g>
</g>
<!-- c3734342&#45;&gt;c3734326 -->
<g id="edge8" class="edge">
<title>c3734342&#45;&gt;c3734326</title>
<path fill="none" stroke="#000000" stroke-dasharray="5,2" d="M276.1807,-25.286C283.544,-24.3397 291.485,-23.3192 299.476,-22.2922"/>
<polygon fill="#000000" stroke="#000000" points="309.5849,-20.9931 300.2401,-26.7311 304.6257,-21.6305 299.6665,-22.2678 299.6665,-22.2678 299.6665,-22.2678 304.6257,-21.6305 299.0929,-17.8046 309.5849,-20.9931 309.5849,-20.9931"/>
</g>
<!-- c3734344&#45;&gt;c3734326 -->
<g id="edge9" class="edge">
<title>c3734344&#45;&gt;c3734326</title>
<path fill="none" stroke="#000000" stroke-dasharray="5,2" d="M145.3688,-78.7969C194.0629,-70.5189 264.575,-57.7431 291,-49 303.9506,-44.7151 317.5739,-38.6486 329.4985,-32.7672"/>
<polygon fill="#000000" stroke="#000000" points="338.6523,-28.1277 331.767,-36.6625 334.1925,-30.3882 329.7326,-32.6486 329.7326,-32.6486 329.7326,-32.6486 334.1925,-30.3882 327.6982,-28.6347 338.6523,-28.1277 338.6523,-28.1277"/>
</g>
<!-- c3734344&#45;&gt;c3734335 -->
<g id="edge1" class="edge">
<title>c3734344&#45;&gt;c3734335</title>
<path fill="none" stroke="#000000" stroke-dasharray="5,2" d="M155.2881,-87C166.1156,-87 177.3226,-87 187.8908,-87"/>
<polygon fill="none" stroke="#000000" points="155.0567,-83.5001 145.0566,-87 155.0566,-90.5001 155.0567,-83.5001"/>
</g>
<!-- c3734344&#45;&gt;c3734342 -->
<g id="edge3" class="edge">
<title>c3734344&#45;&gt;c3734342</title>
<path fill="none" stroke="#000000" d="M111.7626,-72.7301C122.9137,-63.7021 138.4522,-52.5396 154,-46 166.0823,-40.9181 179.8002,-37.4429 192.6558,-35.0692"/>
<polygon fill="#000000" stroke="#000000" points="202.7331,-33.3919 193.6076,-39.4727 197.8009,-34.2129 192.8687,-35.0338 192.8687,-35.0338 192.8687,-35.0338 197.8009,-34.2129 192.1299,-30.5949 202.7331,-33.3919 202.7331,-33.3919"/>
<text text-anchor="middle" x="166.5" y="-48.4" font-family="Roboto" font-size="7.00" fill="#000000">creates</text>
</g>
<!-- c3734344&#45;&gt;c3734892 -->
<g id="edge10" class="edge">
<title>c3734344&#45;&gt;c3734892</title>
<path fill="none" stroke="#000000" stroke-dasharray="5,2" d="M145.3316,-97.6355C185.0902,-104.4303 242.0375,-110.3693 291,-101 298.2746,-99.608 305.7483,-97.5012 313.0092,-95.0458"/>
<polygon fill="#000000" stroke="#000000" points="322.7397,-91.5156 314.874,-99.1563 318.0395,-93.2209 313.3392,-94.9261 313.3392,-94.9261 313.3392,-94.9261 318.0395,-93.2209 311.8045,-90.6959 322.7397,-91.5156 322.7397,-91.5156"/>
</g>
</g>
</svg>
