<?xml version="1.0" encoding="UTF-8" standalone="no"?>
<!DOCTYPE svg PUBLIC "-//W3C//DTD SVG 1.1//EN"
 "http://www.w3.org/Graphics/SVG/1.1/DTD/svg11.dtd">
<!-- Generated by graphviz version 2.40.1 (20161225.0304)
 -->
<!-- Title: G Pages: 1 -->
<svg width="379pt" height="75pt"
 viewBox="0.00 0.00 379.00 75.00" xmlns="http://www.w3.org/2000/svg" xmlns:xlink="http://www.w3.org/1999/xlink">
<g id="graph0" class="graph" transform="scale(1 1) rotate(0) translate(4 71)">
<title>G</title>
<polygon fill="#ffffff" stroke="transparent" points="-4,4 -4,-71 375,-71 375,4 -4,4"/>
<!-- c9917894 -->
<g id="node1" class="node">
<title>c9917894</title>
<g id="a_node1"><a xlink:href="SphericalGaussianModelFactory.html" xlink:title="&lt;TABLE&gt;">
<g id="a_node1_0"><a xlink:href="SphericalGaussianModelFactory.html" xlink:title="de.lmu.ifi.dbs.elki.algorithm.clustering.em.SphericalGaussianModelFactory" target="_parent">
<polygon fill="#fffacd" stroke="transparent" points="121,-50 121,-67 250,-67 250,-50 121,-50"/>
<polygon fill="none" stroke="#000000" points="121.5,-49.5 121.5,-66.5 250.5,-66.5 250.5,-49.5 121.5,-49.5"/>
<text text-anchor="start" x="125.5" y="-57.1" font-family="Roboto" font-size="8.00" fill="#000000"> </text>
<text text-anchor="start" x="128.5" y="-57.1" font-family="Roboto" font-size="8.00" fill="#000000">SphericalGaussianModelFactory</text>
<text text-anchor="start" x="243.5" y="-57.1" font-family="Roboto" font-size="8.00" fill="#000000"> </text>
</a>
</g>
</a>
</g>
</g>
<!-- c9917906 -->
<g id="node3" class="node">
<title>c9917906</title>
<g id="a_node3"><a xlink:href="SphericalGaussianModel.html" xlink:title="&lt;TABLE&gt;">
<g id="a_node3_1"><a xlink:href="SphericalGaussianModel.html" xlink:title="de.lmu.ifi.dbs.elki.algorithm.clustering.em.SphericalGaussianModel" target="_parent">
<polygon fill="none" stroke="#000000" points="268.5,-49.5 268.5,-66.5 371.5,-66.5 371.5,-49.5 268.5,-49.5"/>
<text text-anchor="start" x="272.5" y="-57.1" font-family="Roboto" font-size="8.00" fill="#000000"> </text>
<text text-anchor="start" x="275.5" y="-57.1" font-family="Roboto" font-size="8.00" fill="#000000">SphericalGaussianModel</text>
<text text-anchor="start" x="364.5" y="-57.1" font-family="Roboto" font-size="8.00" fill="#000000"> </text>
</a>
</g>
</a>
</g>
</g>
<!-- c9917894&#45;&gt;c9917906 -->
<g id="edge2" class="edge">
<title>c9917894&#45;&gt;c9917906</title>
<path fill="none" stroke="#000000" d="M262.2673,-58.5C264.0913,-58.5 265.9054,-58.5 267.7041,-58.5"/>
<polygon fill="none" stroke="#000000" points="262.145,-58.5001 256.1449,-62.5 250.145,-58.5 256.145,-54.5 262.145,-58.5001"/>
</g>
<!-- c9918453 -->
<g id="node4" class="node">
<title>c9918453</title>
<g id="a_node4"><a xlink:href="../../../data/NumberVector.html" xlink:title="&lt;TABLE&gt;">
<g id="a_node4_2"><a xlink:href="../../../data/NumberVector.html" xlink:title="de.lmu.ifi.dbs.elki.data.NumberVector" target="_parent">
<polygon fill="#fffacd" stroke="transparent" points="276,0 276,-39 363,-39 363,0 276,0"/>
<polygon fill="none" stroke="#000000" points="276.5,.5 276.5,-38.5 363.5,-38.5 363.5,.5 276.5,.5"/>
<text text-anchor="start" x="298.5" y="-28.1" font-family="Roboto" font-size="8.00" fill="#000000"> «interface» </text>
<text text-anchor="start" x="291.5" y="-18.1" font-family="Roboto" font-size="8.00" fill="#000000"> </text>
<text text-anchor="start" x="294.5" y="-18.1" font-family="Roboto" font-size="8.00" fill="#000000">NumberVector</text>
<text text-anchor="start" x="345.5" y="-18.1" font-family="Roboto" font-size="8.00" fill="#000000"> </text>
<text text-anchor="start" x="280.5" y="-7.1" font-family="Roboto" font-size="8.00" fill="#000000"> </text>
<text text-anchor="start" x="283.5" y="-7.1" font-family="Roboto" font-size="7.00" fill="#000000">de.lmu.ifi.dbs.elki.data</text>
<text text-anchor="start" x="356.5" y="-7.1" font-family="Roboto" font-size="8.00" fill="#000000"> </text>
</a>
</g>
</a>
</g>
</g>
<!-- c9917894&#45;&gt;c9918453 -->
<g id="edge3" class="edge">
<title>c9917894&#45;&gt;c9918453</title>
<path fill="none" stroke="#000000" stroke-dasharray="5,2" d="M214.9069,-49.9413C229.848,-45.5927 248.477,-40.1709 265.8563,-35.1127"/>
<polygon fill="#000000" stroke="#000000" points="275.9072,-32.1874 267.5632,-39.3027 271.1064,-33.5847 266.3056,-34.982 266.3056,-34.982 266.3056,-34.982 271.1064,-33.5847 265.0481,-30.6613 275.9072,-32.1874 275.9072,-32.1874"/>
</g>
<!-- c9917896 -->
<g id="node2" class="node">
<title>c9917896</title>
<g id="a_node2"><a xlink:href="AbstractEMModelFactory.html" xlink:title="&lt;TABLE&gt;">
<g id="a_node2_3"><a xlink:href="AbstractEMModelFactory.html" xlink:title="de.lmu.ifi.dbs.elki.algorithm.clustering.em.AbstractEMModelFactory" target="_parent">
<polygon fill="none" stroke="#000000" points=".5,-49.5 .5,-66.5 103.5,-66.5 103.5,-49.5 .5,-49.5"/>
<text text-anchor="start" x="4.5" y="-57.1" font-family="Roboto" font-size="8.00" fill="#000000"> </text>
<text text-anchor="start" x="7.5" y="-57.1" font-family="Roboto" font-style="italic" font-size="8.00" fill="#000000">AbstractEMModelFactory</text>
<text text-anchor="start" x="96.5" y="-57.1" font-family="Roboto" font-size="8.00" fill="#000000"> </text>
</a>
</g>
</a>
</g>
</g>
<!-- c9917896&#45;&gt;c9917894 -->
<g id="edge1" class="edge">
<title>c9917896&#45;&gt;c9917894</title>
<path fill="none" stroke="#000000" d="M113.3937,-58.5C115.8684,-58.5 118.3523,-58.5 120.832,-58.5"/>
<polygon fill="none" stroke="#000000" points="113.3079,-55.0001 103.3079,-58.5 113.3079,-62.0001 113.3079,-55.0001"/>
</g>
<!-- c9917896&#45;&gt;c9918453 -->
<g id="edge4" class="edge">
<title>c9917896&#45;&gt;c9918453</title>
<path fill="none" stroke="#000000" stroke-dasharray="5,2" d="M91.1012,-49.9995C100.8511,-48.0514 111.2823,-46.0885 121,-44.5 169.8778,-36.5102 225.8882,-29.665 265.9223,-25.168"/>
<polygon fill="#000000" stroke="#000000" points="275.9986,-24.0478 266.5571,-29.6253 271.0292,-24.6003 266.0598,-25.1528 266.0598,-25.1528 266.0598,-25.1528 271.0292,-24.6003 265.5626,-20.6804 275.9986,-24.0478 275.9986,-24.0478"/>
</g>
</g>
</svg>
