<?xml version="1.0" encoding="UTF-8" standalone="no"?>
<!DOCTYPE svg PUBLIC "-//W3C//DTD SVG 1.1//EN"
 "http://www.w3.org/Graphics/SVG/1.1/DTD/svg11.dtd">
<!-- Generated by graphviz version 2.40.1 (20161225.0304)
 -->
<!-- Title: G Pages: 1 -->
<svg width="493pt" height="65pt"
 viewBox="0.00 0.00 493.00 64.50" xmlns="http://www.w3.org/2000/svg" xmlns:xlink="http://www.w3.org/1999/xlink">
<g id="graph0" class="graph" transform="scale(1 1) rotate(0) translate(4 60.5)">
<title>G</title>
<polygon fill="#ffffff" stroke="transparent" points="-4,4 -4,-60.5 489,-60.5 489,4 -4,4"/>
<!-- c10413473 -->
<g id="node1" class="node">
<title>c10413473</title>
<g id="a_node1"><a xlink:href="EMClusterModel.html" xlink:title="&lt;TABLE&gt;">
<g id="a_node1_0"><a xlink:href="EMClusterModel.html" xlink:title="de.lmu.ifi.dbs.elki.algorithm.clustering.em.EMClusterModel" target="_parent">
<polygon fill="none" stroke="#000000" points="49,-28.5 49,-56.5 122,-56.5 122,-28.5 49,-28.5"/>
<text text-anchor="start" x="64" y="-46.1" font-family="Roboto" font-size="8.00" fill="#000000"> «interface» </text>
<text text-anchor="start" x="53" y="-36.1" font-family="Roboto" font-size="8.00" fill="#000000"> </text>
<text text-anchor="start" x="56" y="-36.1" font-family="Roboto" font-size="8.00" fill="#000000">EMClusterModel</text>
<text text-anchor="start" x="115" y="-36.1" font-family="Roboto" font-size="8.00" fill="#000000"> </text>
</a>
</g>
</a>
</g>
</g>
<!-- c10413480 -->
<g id="node3" class="node">
<title>c10413480</title>
<g id="a_node3"><a xlink:href="TwoPassMultivariateGaussianModel.html" xlink:title="&lt;TABLE&gt;">
<g id="a_node3_1"><a xlink:href="TwoPassMultivariateGaussianModel.html" xlink:title="de.lmu.ifi.dbs.elki.algorithm.clustering.em.TwoPassMultivariateGaussianModel" target="_parent">
<polygon fill="#fffacd" stroke="transparent" points="188,-34 188,-51 332,-51 332,-34 188,-34"/>
<polygon fill="none" stroke="#000000" points="188,-33.5 188,-50.5 332,-50.5 332,-33.5 188,-33.5"/>
<text text-anchor="start" x="192" y="-41.1" font-family="Roboto" font-size="8.00" fill="#000000"> </text>
<text text-anchor="start" x="195" y="-41.1" font-family="Roboto" font-size="8.00" fill="#000000">TwoPassMultivariateGaussianModel</text>
<text text-anchor="start" x="325" y="-41.1" font-family="Roboto" font-size="8.00" fill="#000000"> </text>
</a>
</g>
</a>
</g>
</g>
<!-- c10413473&#45;&gt;c10413480 -->
<g id="edge2" class="edge">
<title>c10413473&#45;&gt;c10413480</title>
<path fill="none" stroke="#000000" stroke-dasharray="5,2" d="M131.9642,-42.5C149.0749,-42.5 168.8403,-42.5 187.6435,-42.5"/>
<polygon fill="none" stroke="#000000" points="131.6858,-39.0001 121.6857,-42.5 131.6857,-46.0001 131.6858,-39.0001"/>
</g>
<!-- c10413477 -->
<g id="node2" class="node">
<title>c10413477</title>
<g id="a_node2"><a xlink:href="TwoPassMultivariateGaussianModelFactory.html" xlink:title="&lt;TABLE&gt;">
<g id="a_node2_2"><a xlink:href="TwoPassMultivariateGaussianModelFactory.html" xlink:title="de.lmu.ifi.dbs.elki.algorithm.clustering.em.TwoPassMultivariateGaussianModelFactory" target="_parent">
<polygon fill="none" stroke="#000000" points="0,.5 0,-16.5 170,-16.5 170,.5 0,.5"/>
<text text-anchor="start" x="4" y="-7.1" font-family="Roboto" font-size="8.00" fill="#000000"> </text>
<text text-anchor="start" x="7" y="-7.1" font-family="Roboto" font-size="8.00" fill="#000000">TwoPassMultivariateGaussianModelFactory</text>
<text text-anchor="start" x="163" y="-7.1" font-family="Roboto" font-size="8.00" fill="#000000"> </text>
</a>
</g>
</a>
</g>
</g>
<!-- c10413477&#45;&gt;c10413480 -->
<g id="edge1" class="edge">
<title>c10413477&#45;&gt;c10413480</title>
<path fill="none" stroke="#000000" d="M147.0057,-19.1942C154.7552,-20.6037 162.5661,-22.0598 170,-23.5 186.7753,-26.75 205.2503,-30.6024 221.0736,-33.986"/>
<polygon fill="none" stroke="#000000" points="146.7524,-19.1487 140.1395,-22.0245 134.9416,-17.0264 141.5544,-14.1506 146.7524,-19.1487"/>
</g>
<!-- c10414736 -->
<g id="node4" class="node">
<title>c10414736</title>
<g id="a_node4"><a xlink:href="../../../math/linearalgebra/CholeskyDecomposition.html" xlink:title="&lt;TABLE&gt;">
<g id="a_node4_3"><a xlink:href="../../../math/linearalgebra/CholeskyDecomposition.html" xlink:title="de.lmu.ifi.dbs.elki.math.linearalgebra.CholeskyDecomposition" target="_parent">
<polygon fill="none" stroke="#000000" points="350.5,-28.5 350.5,-56.5 485.5,-56.5 485.5,-28.5 350.5,-28.5"/>
<text text-anchor="start" x="373.5" y="-47.1" font-family="Roboto" font-size="8.00" fill="#000000"> </text>
<text text-anchor="start" x="376.5" y="-47.1" font-family="Roboto" font-size="8.00" fill="#000000">CholeskyDecomposition</text>
<text text-anchor="start" x="459.5" y="-47.1" font-family="Roboto" font-size="8.00" fill="#000000"> </text>
<text text-anchor="start" x="354.5" y="-36.1" font-family="Roboto" font-size="8.00" fill="#000000"> </text>
<text text-anchor="start" x="357.5" y="-36.1" font-family="Roboto" font-size="7.00" fill="#000000">de.lmu.ifi.dbs.elki.math.linearalgebra</text>
<text text-anchor="start" x="478.5" y="-36.1" font-family="Roboto" font-size="8.00" fill="#000000"> </text>
</a>
</g>
</a>
</g>
</g>
<!-- c10413480&#45;&gt;c10414736 -->
<g id="edge3" class="edge">
<title>c10413480&#45;&gt;c10414736</title>
<path fill="none" stroke="#000000" d="M332.2965,-42.5C334.7528,-42.5 337.2176,-42.5 339.6812,-42.5"/>
<polygon fill="#000000" stroke="#000000" points="349.7775,-42.5 339.7775,-47.0001 344.7775,-42.5 339.7775,-42.5001 339.7775,-42.5001 339.7775,-42.5001 344.7775,-42.5 339.7774,-38.0001 349.7775,-42.5 349.7775,-42.5"/>
</g>
</g>
</svg>
