<?xml version="1.0" encoding="UTF-8" standalone="no"?><svg xmlns="http://www.w3.org/2000/svg" xmlns:xlink="http://www.w3.org/1999/xlink" contentStyleType="text/css" height="399px" preserveAspectRatio="none" style="width:1702px;height:399px;background:#FFFFFF;" version="1.1" viewBox="0 0 1702 399" width="1702px" zoomAndPan="magnify"><defs/><g><!--MD5=[70051569f8da30f5c52a60ce63f0377f]
cluster elki.visualization.visualizers.scatterplot.outlier--><g id="cluster_elki.visualization.visualizers.scatterplot.outlier"><path d="M18.5,194 L384.5,194 A3.75,3.75 0 0 1 387,196.5 L394,216.2969 L1692.5,216.2969 A2.5,2.5 0 0 1 1695,218.7969 L1695,371.5 A2.5,2.5 0 0 1 1692.5,374 L18.5,374 A2.5,2.5 0 0 1 16,371.5 L16,196.5 A2.5,2.5 0 0 1 18.5,194 " fill="none" style="stroke:#000000;stroke-width:1.5;"/><line style="stroke:#000000;stroke-width:1.5;" x1="16" x2="394" y1="216.2969" y2="216.2969"/><text fill="#000000" font-family="sans-serif" font-size="14" font-weight="bold" lengthAdjust="spacing" textLength="365" x="20" y="208.9951">elki.visualization.visualizers.scatterplot.outlier</text></g><!--MD5=[b7dcee99b15c750db49f82c8e7ad2f52]
cluster elki.visualization.visualizers--><g id="cluster_elki.visualization.visualizers"><path d="M8.5,6 L227.5,6 A3.75,3.75 0 0 1 230,8.5 L237,28.2969 L953.5,28.2969 A2.5,2.5 0 0 1 956,30.7969 L956,167.5 A2.5,2.5 0 0 1 953.5,170 L8.5,170 A2.5,2.5 0 0 1 6,167.5 L6,8.5 A2.5,2.5 0 0 1 8.5,6 " fill="none" style="stroke:#000000;stroke-width:1.5;"/><line style="stroke:#000000;stroke-width:1.5;" x1="6" x2="237" y1="28.2969" y2="28.2969"/><text fill="#000000" font-family="sans-serif" font-size="14" font-weight="bold" lengthAdjust="spacing" textLength="218" x="10" y="20.9951">elki.visualization.visualizers</text></g><!--MD5=[124cd7d445112daec6244593c2ca7b56]
cluster elki.visualization.visualizers.scatterplot--><g id="cluster_elki.visualization.visualizers.scatterplot"><path d="M991.5,14 L1301.5,14 A3.75,3.75 0 0 1 1304,16.5 L1311,36.2969 L1322.5,36.2969 A2.5,2.5 0 0 1 1325,38.7969 L1325,159.5 A2.5,2.5 0 0 1 1322.5,162 L991.5,162 A2.5,2.5 0 0 1 989,159.5 L989,16.5 A2.5,2.5 0 0 1 991.5,14 " fill="none" style="stroke:#000000;stroke-width:1.5;"/><line style="stroke:#000000;stroke-width:1.5;" x1="989" x2="1311" y1="36.2969" y2="36.2969"/><text fill="#000000" font-family="sans-serif" font-size="14" font-weight="bold" lengthAdjust="spacing" textLength="309" x="993" y="28.9951">elki.visualization.visualizers.scatterplot</text></g><!--MD5=[c89e124e458aaaa4e23a54ee33d86be6]
cluster elki.database.datastore--><g id="cluster_elki.database.datastore"><path d="M1356.5,30.5 L1542.5,30.5 A3.75,3.75 0 0 1 1545,33 L1552,52.7969 L1687.5,52.7969 A2.5,2.5 0 0 1 1690,55.2969 L1690,143 A2.5,2.5 0 0 1 1687.5,145.5 L1356.5,145.5 A2.5,2.5 0 0 1 1354,143 L1354,33 A2.5,2.5 0 0 1 1356.5,30.5 " fill="none" style="stroke:#000000;stroke-width:1.5;"/><line style="stroke:#000000;stroke-width:1.5;" x1="1354" x2="1552" y1="52.7969" y2="52.7969"/><text fill="#000000" font-family="sans-serif" font-size="14" font-weight="bold" lengthAdjust="spacing" textLength="185" x="1358" y="45.4951">elki.database.datastore</text></g><!--MD5=[4171cdff0d53e6b07ab7e991a6701dc3]
class elki.visualization.visualizers.scatterplot.outlier.BubbleVisualization--><a href="BubbleVisualization.html" target="_top" title="BubbleVisualization.html" xlink:actuate="onRequest" xlink:href="BubbleVisualization.html" xlink:show="new" xlink:title="BubbleVisualization.html" xlink:type="simple"><g id="elem_elki.visualization.visualizers.scatterplot.outlier.BubbleVisualization"><rect codeLine="4" fill="#F1F1F1" height="129.4844" id="elki.visualization.visualizers.scatterplot.outlier.BubbleVisualization" rx="2.5" ry="2.5" style="stroke:#181818;stroke-width:0.5;" width="806" x="873" y="229"/><ellipse cx="1204.75" cy="245" fill="#ADD1B2" rx="11" ry="11" style="stroke:#181818;stroke-width:1.0;"/><path d="M1207.7188,250.6406 Q1207.1406,250.9375 1206.5,251.0781 Q1205.8594,251.2344 1205.1563,251.2344 Q1202.6563,251.2344 1201.3281,249.5938 Q1200.0156,247.9375 1200.0156,244.8125 Q1200.0156,241.6875 1201.3281,240.0313 Q1202.6563,238.375 1205.1563,238.375 Q1205.8594,238.375 1206.5,238.5313 Q1207.1563,238.6875 1207.7188,238.9844 L1207.7188,241.7031 Q1207.0938,241.125 1206.5,240.8594 Q1205.9063,240.5781 1205.2813,240.5781 Q1203.9375,240.5781 1203.25,241.6563 Q1202.5625,242.7188 1202.5625,244.8125 Q1202.5625,246.9063 1203.25,247.9844 Q1203.9375,249.0469 1205.2813,249.0469 Q1205.9063,249.0469 1206.5,248.7813 Q1207.0938,248.5 1207.7188,247.9219 L1207.7188,250.6406 Z " fill="#000000"/><text fill="#000000" font-family="sans-serif" font-size="14" lengthAdjust="spacing" textLength="134" x="1225.25" y="249.8467">BubbleVisualization</text><line style="stroke:#181818;stroke-width:0.5;" x1="874" x2="1678" y1="261" y2="261"/><ellipse cx="884" cy="274.6484" fill="none" rx="3" ry="3" style="stroke:#038048;stroke-width:1.0;"/><text fill="#000000" font-family="sans-serif" font-size="14" lengthAdjust="spacing" text-decoration="underline" textLength="105" x="893" y="277.9951">BUBBLE: String</text><ellipse cx="884" cy="290.9453" fill="none" rx="3" ry="3" style="stroke:#038048;stroke-width:1.0;"/><text fill="#000000" font-family="sans-serif" font-size="14" lengthAdjust="spacing" text-decoration="underline" textLength="89" x="893" y="294.292">NAME: String</text><line style="stroke:#181818;stroke-width:0.5;" x1="874" x2="1678" y1="301.5938" y2="301.5938"/><ellipse cx="884" cy="315.2422" fill="#84BE84" rx="3" ry="3" style="stroke:#038048;stroke-width:1.0;"/><text fill="#000000" font-family="sans-serif" font-size="14" lengthAdjust="spacing" textLength="166" x="893" y="318.5889">BubbleVisualization(Par)</text><ellipse cx="884" cy="331.5391" fill="#84BE84" rx="3" ry="3" style="stroke:#038048;stroke-width:1.0;"/><text fill="#000000" font-family="sans-serif" font-size="14" lengthAdjust="spacing" textLength="780" x="893" y="334.8857">makeVisualization(VisualizerContext, VisualizationTask, VisualizationPlot, double, double, Projection): Visualization</text><ellipse cx="884" cy="347.8359" fill="#84BE84" rx="3" ry="3" style="stroke:#038048;stroke-width:1.0;"/><text fill="#000000" font-family="sans-serif" font-size="14" lengthAdjust="spacing" textLength="349" x="893" y="351.1826">processNewResult(VisualizerContext, Object): void</text></g></a><!--MD5=[1052fcfc26b367521d6f6528d38a3489]
class elki.visualization.visualizers.scatterplot.outlier.COPVectorVisualization--><a href="COPVectorVisualization.html" target="_top" title="COPVectorVisualization.html" xlink:actuate="onRequest" xlink:href="COPVectorVisualization.html" xlink:show="new" xlink:title="COPVectorVisualization.html" xlink:type="simple"><g id="elem_elki.visualization.visualizers.scatterplot.outlier.COPVectorVisualization"><rect codeLine="29" fill="#F1F1F1" height="96.8906" id="elki.visualization.visualizers.scatterplot.outlier.COPVectorVisualization" rx="2.5" ry="2.5" style="stroke:#181818;stroke-width:0.5;" width="806" x="32" y="245"/><ellipse cx="350.75" cy="261" fill="#ADD1B2" rx="11" ry="11" style="stroke:#181818;stroke-width:1.0;"/><path d="M353.7188,266.6406 Q353.1406,266.9375 352.5,267.0781 Q351.8594,267.2344 351.1563,267.2344 Q348.6563,267.2344 347.3281,265.5938 Q346.0156,263.9375 346.0156,260.8125 Q346.0156,257.6875 347.3281,256.0313 Q348.6563,254.375 351.1563,254.375 Q351.8594,254.375 352.5,254.5313 Q353.1563,254.6875 353.7188,254.9844 L353.7188,257.7031 Q353.0938,257.125 352.5,256.8594 Q351.9063,256.5781 351.2813,256.5781 Q349.9375,256.5781 349.25,257.6563 Q348.5625,258.7188 348.5625,260.8125 Q348.5625,262.9063 349.25,263.9844 Q349.9375,265.0469 351.2813,265.0469 Q351.9063,265.0469 352.5,264.7813 Q353.0938,264.5 353.7188,263.9219 L353.7188,266.6406 Z " fill="#000000"/><text fill="#000000" font-family="sans-serif" font-size="14" lengthAdjust="spacing" textLength="160" x="371.25" y="265.8467">COPVectorVisualization</text><line style="stroke:#181818;stroke-width:0.5;" x1="33" x2="837" y1="277" y2="277"/><ellipse cx="43" cy="290.6484" fill="none" rx="3" ry="3" style="stroke:#038048;stroke-width:1.0;"/><text fill="#000000" font-family="sans-serif" font-size="14" lengthAdjust="spacing" text-decoration="underline" textLength="89" x="52" y="293.9951">NAME: String</text><line style="stroke:#181818;stroke-width:0.5;" x1="33" x2="837" y1="301.2969" y2="301.2969"/><ellipse cx="43" cy="314.9453" fill="#84BE84" rx="3" ry="3" style="stroke:#038048;stroke-width:1.0;"/><text fill="#000000" font-family="sans-serif" font-size="14" lengthAdjust="spacing" textLength="780" x="52" y="318.292">makeVisualization(VisualizerContext, VisualizationTask, VisualizationPlot, double, double, Projection): Visualization</text><ellipse cx="43" cy="331.2422" fill="#84BE84" rx="3" ry="3" style="stroke:#038048;stroke-width:1.0;"/><text fill="#000000" font-family="sans-serif" font-size="14" lengthAdjust="spacing" textLength="349" x="52" y="334.5889">processNewResult(VisualizerContext, Object): void</text></g></a><!--MD5=[7011c8faa60a6bab1ad66099509fb406]
class elki.visualization.visualizers.VisFactory--><a href="../../VisFactory.html" target="_top" title="../../VisFactory.html" xlink:actuate="onRequest" xlink:href="../../VisFactory.html" xlink:show="new" xlink:title="../../VisFactory.html" xlink:type="simple"><g id="elem_elki.visualization.visualizers.VisFactory"><rect codeLine="57" fill="#F1F1F1" height="113.1875" id="elki.visualization.visualizers.VisFactory" rx="2.5" ry="2.5" style="stroke:#181818;stroke-width:0.5;" width="919" x="21.5" y="41"/><ellipse cx="440.25" cy="57" fill="#B4A7E5" rx="11" ry="11" style="stroke:#181818;stroke-width:1.0;"/><path d="M436.1719,52.7656 L436.1719,50.6094 L443.5625,50.6094 L443.5625,52.7656 L441.0938,52.7656 L441.0938,60.8438 L443.5625,60.8438 L443.5625,63 L436.1719,63 L436.1719,60.8438 L438.6406,60.8438 L438.6406,52.7656 L436.1719,52.7656 Z " fill="#000000"/><text fill="#000000" font-family="sans-serif" font-size="14" font-style="italic" lengthAdjust="spacing" textLength="73" x="460.75" y="61.8467">VisFactory</text><line style="stroke:#181818;stroke-width:0.5;" x1="22.5" x2="939.5" y1="73" y2="73"/><line style="stroke:#181818;stroke-width:0.5;" x1="22.5" x2="939.5" y1="81" y2="81"/><ellipse cx="32.5" cy="94.6484" fill="#84BE84" rx="3" ry="3" style="stroke:#038048;stroke-width:1.0;"/><text fill="#000000" font-family="sans-serif" font-size="14" font-style="italic" lengthAdjust="spacing" textLength="355" x="41.5" y="97.9951">processNewResult(VisualizerContext, Object): void</text><ellipse cx="32.5" cy="110.9453" fill="#84BE84" rx="3" ry="3" style="stroke:#038048;stroke-width:1.0;"/><text fill="#000000" font-family="sans-serif" font-size="14" font-style="italic" lengthAdjust="spacing" textLength="809" x="41.5" y="114.292">makeVisualization(VisualizerContext, VisualizationTask, VisualizationPlot, double, double, Projection): Visualization</text><ellipse cx="32.5" cy="127.2422" fill="#84BE84" rx="3" ry="3" style="stroke:#038048;stroke-width:1.0;"/><text fill="#000000" font-family="sans-serif" font-size="14" lengthAdjust="spacing" textLength="307" x="41.5" y="130.5889">allowThumbnails(VisualizationTask): boolean</text><ellipse cx="32.5" cy="143.5391" fill="#84BE84" rx="3" ry="3" style="stroke:#038048;stroke-width:1.0;"/><text fill="#000000" font-family="sans-serif" font-size="14" lengthAdjust="spacing" textLength="893" x="41.5" y="146.8857">makeVisualizationOrThumbnail(VisualizerContext, VisualizationTask, VisualizationPlot, double, double, Projection, int): Visualization</text></g></a><!--MD5=[8200b35217aeac05b42c3e4cc92f9623]
class elki.visualization.visualizers.scatterplot.AbstractScatterplotVisualization--><a href="../AbstractScatterplotVisualization.html" target="_top" title="../AbstractScatterplotVisualization.html" xlink:actuate="onRequest" xlink:href="../AbstractScatterplotVisualization.html" xlink:show="new" xlink:title="../AbstractScatterplotVisualization.html" xlink:type="simple"><g id="elem_elki.visualization.visualizers.scatterplot.AbstractScatterplotVisualization"><rect codeLine="66" fill="#F1F1F1" height="96.8906" id="elki.visualization.visualizers.scatterplot.AbstractScatterplotVisualization" rx="2.5" ry="2.5" style="stroke:#181818;stroke-width:0.5;" width="303" x="1005.5" y="49"/><ellipse cx="1041.2" cy="65" fill="#A9DCDF" rx="11" ry="11" style="stroke:#181818;stroke-width:1.0;"/><path d="M1041.3094,60.3438 L1040.1531,65.4219 L1042.4813,65.4219 L1041.3094,60.3438 Z M1039.825,58.1094 L1042.8094,58.1094 L1046.1688,70.5 L1043.7156,70.5 L1042.95,67.4375 L1039.6688,67.4375 L1038.9188,70.5 L1036.4813,70.5 L1039.825,58.1094 Z " fill="#000000"/><text fill="#000000" font-family="sans-serif" font-size="14" font-style="italic" lengthAdjust="spacing" textLength="225" x="1059.8" y="69.8467">AbstractScatterplotVisualization</text><line style="stroke:#181818;stroke-width:0.5;" x1="1006.5" x2="1307.5" y1="81" y2="81"/><polygon fill="none" points="1016.5,89.6484,1020.5,93.6484,1016.5,97.6484,1012.5,93.6484" style="stroke:#B38D22;stroke-width:1.0;"/><text fill="#000000" font-family="sans-serif" font-size="14" lengthAdjust="spacing" textLength="124" x="1025.5" y="97.9951">proj: Projection2D</text><polygon fill="none" points="1016.5,105.9453,1020.5,109.9453,1016.5,113.9453,1012.5,109.9453" style="stroke:#B38D22;stroke-width:1.0;"/><text fill="#000000" font-family="sans-serif" font-size="14" lengthAdjust="spacing" textLength="277" x="1025.5" y="114.292">rel: Relation&lt;? extends NumberVector&gt;</text><polygon fill="none" points="1016.5,122.2422,1020.5,126.2422,1016.5,130.2422,1012.5,126.2422" style="stroke:#B38D22;stroke-width:1.0;"/><text fill="#000000" font-family="sans-serif" font-size="14" lengthAdjust="spacing" textLength="166" x="1025.5" y="130.5889">sample: SamplingResult</text><line style="stroke:#181818;stroke-width:0.5;" x1="1006.5" x2="1307.5" y1="137.8906" y2="137.8906"/></g></a><!--MD5=[8cace74366cfd75dded1cbbbff903427]
class elki.database.datastore.DataStoreListener--><a href="../../../../database/datastore/DataStoreListener.html" target="_top" title="../../../../database/datastore/DataStoreListener.html" xlink:actuate="onRequest" xlink:href="../../../../database/datastore/DataStoreListener.html" xlink:show="new" xlink:title="../../../../database/datastore/DataStoreListener.html" xlink:type="simple"><g id="elem_elki.database.datastore.DataStoreListener"><rect codeLine="74" fill="#F1F1F1" height="64.2969" id="elki.database.datastore.DataStoreListener" rx="2.5" ry="2.5" style="stroke:#181818;stroke-width:0.5;" width="304" x="1370" y="65.5"/><ellipse cx="1454.25" cy="81.5" fill="#B4A7E5" rx="11" ry="11" style="stroke:#181818;stroke-width:1.0;"/><path d="M1450.1719,77.2656 L1450.1719,75.1094 L1457.5625,75.1094 L1457.5625,77.2656 L1455.0938,77.2656 L1455.0938,85.3438 L1457.5625,85.3438 L1457.5625,87.5 L1450.1719,87.5 L1450.1719,85.3438 L1452.6406,85.3438 L1452.6406,77.2656 L1450.1719,77.2656 Z " fill="#000000"/><text fill="#000000" font-family="sans-serif" font-size="14" font-style="italic" lengthAdjust="spacing" textLength="127" x="1474.75" y="86.3467">DataStoreListener</text><line style="stroke:#181818;stroke-width:0.5;" x1="1371" x2="1673" y1="97.5" y2="97.5"/><line style="stroke:#181818;stroke-width:0.5;" x1="1371" x2="1673" y1="105.5" y2="105.5"/><ellipse cx="1381" cy="119.1484" fill="#84BE84" rx="3" ry="3" style="stroke:#038048;stroke-width:1.0;"/><text fill="#000000" font-family="sans-serif" font-size="14" font-style="italic" lengthAdjust="spacing" textLength="278" x="1390" y="122.4951">contentChanged(DataStoreEvent): void</text></g></a><!--MD5=[897bdac0928e1f9952b40e47a93a4f07]
reverse link elki.visualization.visualizers.VisFactory to elki.visualization.visualizers.scatterplot.outlier.BubbleVisualization--><g id="link_elki.visualization.visualizers.VisFactory_elki.visualization.visualizers.scatterplot.outlier.BubbleVisualization"><path codeLine="43" d="M741.66,158.64 C780.03,167.69 819.06,177.01 856,186 C912.01,199.63 972.11,214.65 1028.85,228.99 " fill="none" id="elki.visualization.visualizers.VisFactory-backto-elki.visualization.visualizers.scatterplot.outlier.BubbleVisualization" style="stroke:#181818;stroke-width:1.0;stroke-dasharray:7.0,7.0;"/><polygon fill="none" points="739.84,165.41,721.98,154.01,743.05,151.78,739.84,165.41" style="stroke:#181818;stroke-width:1.0;"/></g><!--MD5=[386a13b281c53b2e7b68d8053f19bf98]
reverse link elki.visualization.visualizers.VisFactory to elki.visualization.visualizers.scatterplot.outlier.COPVectorVisualization--><g id="link_elki.visualization.visualizers.VisFactory_elki.visualization.visualizers.scatterplot.outlier.COPVectorVisualization"><path codeLine="50" d="M463.19,173.62 C457.51,197.55 451.39,223.36 446.31,244.79 " fill="none" id="elki.visualization.visualizers.VisFactory-backto-elki.visualization.visualizers.scatterplot.outlier.COPVectorVisualization" style="stroke:#181818;stroke-width:1.0;stroke-dasharray:7.0,7.0;"/><polygon fill="none" points="456.39,171.94,467.82,154.09,470.01,175.17,456.39,171.94" style="stroke:#181818;stroke-width:1.0;"/></g><rect fill="none" height="11.6406" style="stroke:none;stroke-width:1.0;" width="186" x="751" y="380"/><text fill="#888888" font-family="sans-serif" font-size="10" lengthAdjust="spacing" textLength="186" x="751" y="389.2822">UMLDoclet 2.0.19, PlantUML 1.2022.8</text><!--MD5=[107a31a1d670aa0b89cd598d69b11379]
@startuml
    remove .*\.(Instance|Par|Parameterizer|Factory)$
    namespace elki.visualization.visualizers.scatterplot.outlier {

        class BubbleVisualization [[BubbleVisualization.html]] {
            {static} +BUBBLE: String
            {static} +NAME: String
            +BubbleVisualization(Par)
            +makeVisualization(VisualizerContext, VisualizationTask, VisualizationPlot, double, double, Projection): Visualization
            +processNewResult(VisualizerContext, Object): void
        }

        class elki.visualization.visualizers.scatterplot.outlier.BubbleVisualization.Instance [[BubbleVisualization.Instance.html]] {
            #result: OutlierResult
            +Instance(VisualizerContext, VisualizationTask, VisualizationPlot, double, double, Projection)
            +fullRedraw(): void
            -setupCSS(SVGPlot, ClassStylingPolicy): void
            #getScaledForId(DBIDRef): double
        }

        class elki.visualization.visualizers.scatterplot.outlier.BubbleVisualization.Par [[BubbleVisualization.Par.html]] {
            {static} +FILL_ID: OptionID
            {static} +SCALING_ID: OptionID
            #fill: boolean
            #scaling: ScalingFunction
            +configure(Parameterization): void
            +make(): BubbleVisualization
        }

        class COPVectorVisualization [[COPVectorVisualization.html]] {
            {static} +NAME: String
            +makeVisualization(VisualizerContext, VisualizationTask, VisualizationPlot, double, double, Projection): Visualization
            +processNewResult(VisualizerContext, Object): void
        }

        class elki.visualization.visualizers.scatterplot.outlier.COPVectorVisualization.Instance [[COPVectorVisualization.Instance.html]] {
            {static} +VEC: String
            #result: Relation<double[]>
            +Instance(VisualizerContext, VisualizationTask, VisualizationPlot, double, double, Projection)
            +fullRedraw(): void
            -setupCSS(SVGPlot): void
        }

        elki.visualization.visualizers.VisFactory <|.. BubbleVisualization
        BubbleVisualization - -> elki.visualization.visualizers.scatterplot.outlier.BubbleVisualization.Par: settings
        elki.visualization.visualizers.scatterplot.AbstractScatterplotVisualization <|- - elki.visualization.visualizers.scatterplot.outlier.BubbleVisualization.Instance
        elki.database.datastore.DataStoreListener <|.. elki.visualization.visualizers.scatterplot.outlier.BubbleVisualization.Instance
        BubbleVisualization +- - elki.visualization.visualizers.scatterplot.outlier.BubbleVisualization.Instance
        elki.utilities.optionhandling.Parameterizer <|.. elki.visualization.visualizers.scatterplot.outlier.BubbleVisualization.Par
        BubbleVisualization +- - elki.visualization.visualizers.scatterplot.outlier.BubbleVisualization.Par
        elki.visualization.visualizers.VisFactory <|.. COPVectorVisualization
        elki.visualization.visualizers.scatterplot.AbstractScatterplotVisualization <|- - elki.visualization.visualizers.scatterplot.outlier.COPVectorVisualization.Instance
        elki.database.datastore.DataStoreListener <|.. elki.visualization.visualizers.scatterplot.outlier.COPVectorVisualization.Instance
        COPVectorVisualization +- - elki.visualization.visualizers.scatterplot.outlier.COPVectorVisualization.Instance
    }

    namespace elki.visualization.visualizers {
        interface VisFactory [[../../VisFactory.html]] {
            {abstract} +processNewResult(VisualizerContext, Object): void
            {abstract} +makeVisualization(VisualizerContext, VisualizationTask, VisualizationPlot, double, double, Projection): Visualization
            +allowThumbnails(VisualizationTask): boolean
            +makeVisualizationOrThumbnail(VisualizerContext, VisualizationTask, VisualizationPlot, double, double, Projection, int): Visualization
        }
    }

    namespace elki.visualization.visualizers.scatterplot {
        abstract class AbstractScatterplotVisualization [[../AbstractScatterplotVisualization.html]] {
            #proj: Projection2D
            #rel: Relation<? extends NumberVector>
            #sample: SamplingResult
        }
    }

    namespace elki.database.datastore {
        interface DataStoreListener [[../../../../database/datastore/DataStoreListener.html]] {
            {abstract} +contentChanged(DataStoreEvent): void
        }
    }

    namespace elki.utilities.optionhandling {
        interface Parameterizer [[../../../../utilities/optionhandling/Parameterizer.html]] {
            +configure(Parameterization): void
            {abstract} +make(): Object
        }
    }

    center footer UMLDoclet 2.0.19, PlantUML 1.2022.8
@enduml

PlantUML version 1.2022.8(Sun Sep 25 11:00:33 CEST 2022)
(APACHE source distribution)
Java Runtime: OpenJDK Runtime Environment
JVM: OpenJDK 64-Bit Server VM
Default Encoding: UTF-8
Language: de
Country: DE
--></g></svg>