<?xml version="1.0" encoding="UTF-8" standalone="no"?>
<!DOCTYPE svg PUBLIC "-//W3C//DTD SVG 1.1//EN"
 "http://www.w3.org/Graphics/SVG/1.1/DTD/svg11.dtd">
<!-- Generated by graphviz version 2.40.1 (20161225.0304)
 -->
<!-- Title: G Pages: 1 -->
<svg width="402pt" height="87pt"
 viewBox="0.00 0.00 402.00 86.50" xmlns="http://www.w3.org/2000/svg" xmlns:xlink="http://www.w3.org/1999/xlink">
<g id="graph0" class="graph" transform="scale(1 1) rotate(0) translate(4 82.5)">
<title>G</title>
<polygon fill="#ffffff" stroke="transparent" points="-4,4 -4,-82.5 398,-82.5 398,4 -4,4"/>
<!-- c10727335 -->
<g id="node1" class="node">
<title>c10727335</title>
<g id="a_node1"><a xlink:href="../AbstractApplication.html" xlink:title="&lt;TABLE&gt;">
<g id="a_node1_0"><a xlink:href="../AbstractApplication.html" xlink:title="de.lmu.ifi.dbs.elki.application.AbstractApplication" target="_parent">
<polygon fill="none" stroke="#000000" points=".5,-22 .5,-50 109.5,-50 109.5,-22 .5,-22"/>
<text text-anchor="start" x="17" y="-40.6" font-family="Roboto" font-size="8.00" fill="#000000"> </text>
<text text-anchor="start" x="20" y="-40.6" font-family="Roboto" font-style="italic" font-size="8.00" fill="#000000">AbstractApplication</text>
<text text-anchor="start" x="90" y="-40.6" font-family="Roboto" font-size="8.00" fill="#000000"> </text>
<text text-anchor="start" x="4.5" y="-29.6" font-family="Roboto" font-size="8.00" fill="#000000"> </text>
<text text-anchor="start" x="7.5" y="-29.6" font-family="Roboto" font-size="7.00" fill="#000000">de.lmu.ifi.dbs.elki.application</text>
<text text-anchor="start" x="102.5" y="-29.6" font-family="Roboto" font-size="8.00" fill="#000000"> </text>
</a>
</g>
</a>
</g>
</g>
<!-- c10728447 -->
<g id="node3" class="node">
<title>c10728447</title>
<g id="a_node3"><a xlink:href="VisualizeGeodesicDistances.html" xlink:title="&lt;TABLE&gt;">
<g id="a_node3_1"><a xlink:href="VisualizeGeodesicDistances.html" xlink:title="de.lmu.ifi.dbs.elki.application.experiments.VisualizeGeodesicDistances" target="_parent">
<polygon fill="#fffacd" stroke="transparent" points="127,-27.5 127,-44.5 241,-44.5 241,-27.5 127,-27.5"/>
<polygon fill="none" stroke="#000000" points="127,-27 127,-44 241,-44 241,-27 127,-27"/>
<text text-anchor="start" x="131" y="-34.6" font-family="Roboto" font-size="8.00" fill="#000000"> </text>
<text text-anchor="start" x="134" y="-34.6" font-family="Roboto" font-size="8.00" fill="#000000">VisualizeGeodesicDistances</text>
<text text-anchor="start" x="234" y="-34.6" font-family="Roboto" font-size="8.00" fill="#000000"> </text>
</a>
</g>
</a>
</g>
</g>
<!-- c10727335&#45;&gt;c10728447 -->
<g id="edge1" class="edge">
<title>c10727335&#45;&gt;c10728447</title>
<path fill="none" stroke="#000000" d="M119.1901,-36C121.6672,-36 124.1445,-36 126.6074,-36"/>
<polygon fill="none" stroke="#000000" points="119.0444,-32.5001 109.0443,-36 119.0443,-39.5001 119.0444,-32.5001"/>
</g>
<!-- c10728427 -->
<g id="node2" class="node">
<title>c10728427</title>
<g id="a_node2"><a xlink:href="../../math/geodesy/EarthModel.html" xlink:title="&lt;TABLE&gt;">
<g id="a_node2_2"><a xlink:href="../../math/geodesy/EarthModel.html" xlink:title="de.lmu.ifi.dbs.elki.math.geodesy.EarthModel" target="_parent">
<polygon fill="none" stroke="#000000" points="268.5,-39 268.5,-78 385.5,-78 385.5,-39 268.5,-39"/>
<text text-anchor="start" x="305.5" y="-67.6" font-family="Roboto" font-size="8.00" fill="#000000"> «interface» </text>
<text text-anchor="start" x="303.5" y="-57.6" font-family="Roboto" font-size="8.00" fill="#000000"> </text>
<text text-anchor="start" x="306.5" y="-57.6" font-family="Roboto" font-size="8.00" fill="#000000">EarthModel</text>
<text text-anchor="start" x="347.5" y="-57.6" font-family="Roboto" font-size="8.00" fill="#000000"> </text>
<text text-anchor="start" x="272.5" y="-46.6" font-family="Roboto" font-size="8.00" fill="#000000"> </text>
<text text-anchor="start" x="275.5" y="-46.6" font-family="Roboto" font-size="7.00" fill="#000000">de.lmu.ifi.dbs.elki.math.geodesy</text>
<text text-anchor="start" x="378.5" y="-46.6" font-family="Roboto" font-size="8.00" fill="#000000"> </text>
</a>
</g>
</a>
</g>
</g>
<!-- c10728447&#45;&gt;c10728427 -->
<g id="edge3" class="edge">
<title>c10728447&#45;&gt;c10728427</title>
<path fill="none" stroke="#000000" d="M237.0617,-44.5644C243.7606,-45.6456 250.6894,-46.7639 257.5889,-47.8775"/>
<polygon fill="#000000" stroke="#000000" points="267.6463,-49.5008 257.057,-52.3498 262.7102,-48.7041 257.7741,-47.9073 257.7741,-47.9073 257.7741,-47.9073 262.7102,-48.7041 258.4911,-43.4648 267.6463,-49.5008 267.6463,-49.5008"/>
</g>
<!-- c10728448 -->
<g id="node4" class="node">
<title>c10728448</title>
<g id="a_node4"><a xlink:href="VisualizeGeodesicDistances.Mode.html" xlink:title="&lt;TABLE&gt;">
<g id="a_node4_3"><a xlink:href="VisualizeGeodesicDistances.Mode.html" xlink:title="de.lmu.ifi.dbs.elki.application.experiments.VisualizeGeodesicDistances.Mode" target="_parent">
<polygon fill="none" stroke="#000000" points="259.5,0 259.5,-28 394.5,-28 394.5,0 259.5,0"/>
<text text-anchor="start" x="299" y="-17.6" font-family="Roboto" font-size="8.00" fill="#000000"> «enumeration» </text>
<text text-anchor="start" x="263.5" y="-7.6" font-family="Roboto" font-size="8.00" fill="#000000"> </text>
<text text-anchor="start" x="266.5" y="-7.6" font-family="Roboto" font-size="8.00" fill="#000000">VisualizeGeodesicDistances.Mode</text>
<text text-anchor="start" x="387.5" y="-7.6" font-family="Roboto" font-size="8.00" fill="#000000"> </text>
</a>
</g>
</a>
</g>
</g>
<!-- c10728447&#45;&gt;c10728448 -->
<g id="edge2" class="edge">
<title>c10728447&#45;&gt;c10728448</title>
<path fill="none" stroke="#000000" d="M239.0942,-27.4942C242.205,-27.014 245.3591,-26.527 248.5311,-26.0373"/>
<polygon fill="#000000" stroke="#000000" points="258.6914,-24.4687 249.4951,-30.4419 253.7499,-25.2316 248.8085,-25.9946 248.8085,-25.9946 248.8085,-25.9946 253.7499,-25.2316 248.1218,-21.5473 258.6914,-24.4687 258.6914,-24.4687"/>
</g>
</g>
</svg>
