<?xml version="1.0" encoding="UTF-8" standalone="no"?>
<!DOCTYPE svg PUBLIC "-//W3C//DTD SVG 1.1//EN"
 "http://www.w3.org/Graphics/SVG/1.1/DTD/svg11.dtd">
<!-- Generated by graphviz version 2.40.1 (20161225.0304)
 -->
<!-- Title: G Pages: 1 -->
<svg width="275pt" height="36pt"
 viewBox="0.00 0.00 275.00 36.00" xmlns="http://www.w3.org/2000/svg" xmlns:xlink="http://www.w3.org/1999/xlink">
<g id="graph0" class="graph" transform="scale(1 1) rotate(0) translate(4 32)">
<title>G</title>
<polygon fill="#ffffff" stroke="transparent" points="-4,4 -4,-32 271,-32 271,4 -4,4"/>
<!-- c10731644 -->
<g id="node1" class="node">
<title>c10731644</title>
<g id="a_node1"><a xlink:href="VisualizeGeodesicDistances.html" xlink:title="&lt;TABLE&gt;">
<g id="a_node1_0"><a xlink:href="VisualizeGeodesicDistances.html" xlink:title="de.lmu.ifi.dbs.elki.application.experiments.VisualizeGeodesicDistances" target="_parent">
<polygon fill="none" stroke="#000000" points="0,-5 0,-22 114,-22 114,-5 0,-5"/>
<text text-anchor="start" x="4" y="-12.6" font-family="Roboto" font-size="8.00" fill="#000000"> </text>
<text text-anchor="start" x="7" y="-12.6" font-family="Roboto" font-size="8.00" fill="#000000">VisualizeGeodesicDistances</text>
<text text-anchor="start" x="107" y="-12.6" font-family="Roboto" font-size="8.00" fill="#000000"> </text>
</a>
</g>
</a>
</g>
</g>
<!-- c10731645 -->
<g id="node2" class="node">
<title>c10731645</title>
<g id="a_node2"><a xlink:href="VisualizeGeodesicDistances.Mode.html" xlink:title="&lt;TABLE&gt;">
<g id="a_node2_1"><a xlink:href="VisualizeGeodesicDistances.Mode.html" xlink:title="de.lmu.ifi.dbs.elki.application.experiments.VisualizeGeodesicDistances.Mode" target="_parent">
<polygon fill="#fffacd" stroke="transparent" points="132,0 132,-28 267,-28 267,0 132,0"/>
<polygon fill="none" stroke="#000000" points="132.5,0 132.5,-28 267.5,-28 267.5,0 132.5,0"/>
<text text-anchor="start" x="172" y="-17.6" font-family="Roboto" font-size="8.00" fill="#000000"> «enumeration» </text>
<text text-anchor="start" x="136.5" y="-7.6" font-family="Roboto" font-size="8.00" fill="#000000"> </text>
<text text-anchor="start" x="139.5" y="-7.6" font-family="Roboto" font-size="8.00" fill="#000000">VisualizeGeodesicDistances.Mode</text>
<text text-anchor="start" x="260.5" y="-7.6" font-family="Roboto" font-size="8.00" fill="#000000"> </text>
</a>
</g>
</a>
</g>
</g>
<!-- c10731644&#45;&gt;c10731645 -->
<g id="edge1" class="edge">
<title>c10731644&#45;&gt;c10731645</title>
<path fill="none" stroke="#000000" d="M114.1391,-14C116.5564,-14 118.9963,-14 121.447,-14"/>
<polygon fill="#000000" stroke="#000000" points="131.5529,-14 121.553,-18.5001 126.5529,-14 121.5529,-14.0001 121.5529,-14.0001 121.5529,-14.0001 126.5529,-14 121.5529,-9.5001 131.5529,-14 131.5529,-14"/>
</g>
</g>
</svg>
