<?xml version="1.0" encoding="UTF-8" standalone="no"?><svg xmlns="http://www.w3.org/2000/svg" xmlns:xlink="http://www.w3.org/1999/xlink" contentStyleType="text/css" height="250px" preserveAspectRatio="none" style="width:366px;height:250px;background:#FFFFFF;" version="1.1" viewBox="0 0 366 250" width="366px" zoomAndPan="magnify"><defs/><g><!--MD5=[c31d584be6edb8176297587d55de9a89]
class elki.visualization.svg.UpdateRunner--><a href="UpdateRunner.html" target="_top" title="UpdateRunner.html" xlink:actuate="onRequest" xlink:href="UpdateRunner.html" xlink:show="new" xlink:title="UpdateRunner.html" xlink:type="simple"><g id="elem_elki.visualization.svg.UpdateRunner"><rect codeLine="6" fill="#F1F1F1" height="216.9063" id="elki.visualization.svg.UpdateRunner" rx="2.5" ry="2.5" style="stroke:#181818;stroke-width:0.5;" width="345" x="7" y="7"/><ellipse cx="124.75" cy="25.9688" fill="#ADD1B2" rx="11" ry="11" style="stroke:#181818;stroke-width:1.0;"/><path d="M127.7188,31.6094 Q127.1406,31.9063 126.5,32.0469 Q125.8594,32.2031 125.1563,32.2031 Q122.6563,32.2031 121.3281,30.5625 Q120.0156,28.9063 120.0156,25.7813 Q120.0156,22.6563 121.3281,21 Q122.6563,19.3438 125.1563,19.3438 Q125.8594,19.3438 126.5,19.5 Q127.1563,19.6563 127.7188,19.9531 L127.7188,22.6719 Q127.0938,22.0938 126.5,21.8281 Q125.9063,21.5469 125.2813,21.5469 Q123.9375,21.5469 123.25,22.625 Q122.5625,23.6875 122.5625,25.7813 Q122.5625,27.875 123.25,28.9531 Q123.9375,30.0156 125.2813,30.0156 Q125.9063,30.0156 126.5,29.75 Q127.0938,29.4688 127.7188,28.8906 L127.7188,31.6094 Z " fill="#000000"/><text fill="#000000" font-family="sans-serif" font-size="14" lengthAdjust="spacing" textLength="101" x="145.25" y="24.9951">UpdateRunner</text><text fill="#000000" font-family="sans-serif" font-size="10" lengthAdjust="spacing" textLength="96" x="147.75" y="37.5791">elki.visualization.svg</text><line style="stroke:#181818;stroke-width:0.5;" x1="8" x2="351" y1="44.9375" y2="44.9375"/><rect fill="none" height="6" style="stroke:#C82930;stroke-width:1.0;" width="6" x="15" y="55.5859"/><text fill="#000000" font-family="sans-serif" font-size="14" lengthAdjust="spacing" textLength="86" x="27" y="61.9326">sync: Object</text><rect fill="none" height="6" style="stroke:#C82930;stroke-width:1.0;" width="6" x="15" y="71.8828"/><text fill="#000000" font-family="sans-serif" font-size="14" lengthAdjust="spacing" textLength="314" x="27" y="78.2295">queue: ConcurrentLinkedQueue&lt;Runnable&gt;</text><rect fill="none" height="6" style="stroke:#C82930;stroke-width:1.0;" width="6" x="15" y="88.1797"/><text fill="#000000" font-family="sans-serif" font-size="14" lengthAdjust="spacing" textLength="238" x="27" y="94.5264">synchronizer: UpdateSynchronizer</text><line style="stroke:#181818;stroke-width:0.5;" x1="8" x2="351" y1="101.8281" y2="101.8281"/><polygon fill="#FFFF44" points="18,110.4766,22,114.4766,18,118.4766,14,114.4766" style="stroke:#B38D22;stroke-width:1.0;"/><text fill="#000000" font-family="sans-serif" font-size="14" lengthAdjust="spacing" textLength="156" x="27" y="118.8232">UpdateRunner(Object)</text><ellipse cx="18" cy="131.7734" fill="#84BE84" rx="3" ry="3" style="stroke:#038048;stroke-width:1.0;"/><text fill="#000000" font-family="sans-serif" font-size="14" lengthAdjust="spacing" textLength="192" x="27" y="135.1201">invokeLater(Runnable): void</text><ellipse cx="18" cy="148.0703" fill="#84BE84" rx="3" ry="3" style="stroke:#038048;stroke-width:1.0;"/><text fill="#000000" font-family="sans-serif" font-size="14" lengthAdjust="spacing" textLength="117" x="27" y="151.417">runQueue(): void</text><ellipse cx="18" cy="164.3672" fill="#84BE84" rx="3" ry="3" style="stroke:#038048;stroke-width:1.0;"/><text fill="#000000" font-family="sans-serif" font-size="14" lengthAdjust="spacing" textLength="80" x="27" y="167.7139">clear(): void</text><ellipse cx="18" cy="180.6641" fill="#84BE84" rx="3" ry="3" style="stroke:#038048;stroke-width:1.0;"/><text fill="#000000" font-family="sans-serif" font-size="14" lengthAdjust="spacing" textLength="129" x="27" y="184.0107">isEmpty(): boolean</text><ellipse cx="18" cy="196.9609" fill="#84BE84" rx="3" ry="3" style="stroke:#038048;stroke-width:1.0;"/><text fill="#000000" font-family="sans-serif" font-size="14" lengthAdjust="spacing" textLength="301" x="27" y="200.3076">synchronizeWith(UpdateSynchronizer): void</text><ellipse cx="18" cy="213.2578" fill="#84BE84" rx="3" ry="3" style="stroke:#038048;stroke-width:1.0;"/><text fill="#000000" font-family="sans-serif" font-size="14" lengthAdjust="spacing" textLength="319" x="27" y="216.6045">unsynchronizeWith(UpdateSynchronizer): void</text></g></a><rect fill="none" height="11.6406" style="stroke:none;stroke-width:1.0;" width="186" x="86" y="230.9063"/><text fill="#888888" font-family="sans-serif" font-size="10" lengthAdjust="spacing" textLength="186" x="86" y="240.1885">UMLDoclet 2.0.19, PlantUML 1.2022.8</text><!--MD5=[dce2a84d00477cf0a3ad2cec0f1acb21]
@startuml
    remove .*\.(Instance|Par|Parameterizer|Factory)$
    set namespaceSeparator none
    hide empty fields
    hide empty methods

    class "<size:14>UpdateRunner\n<size:10>elki.visualization.svg" as elki.visualization.svg.UpdateRunner [[UpdateRunner.html]] {
        -sync: Object
        -queue: ConcurrentLinkedQueue<Runnable>
        -synchronizer: UpdateSynchronizer
        #UpdateRunner(Object)
        +invokeLater(Runnable): void
        +runQueue(): void
        +clear(): void
        +isEmpty(): boolean
        +synchronizeWith(UpdateSynchronizer): void
        +unsynchronizeWith(UpdateSynchronizer): void
    }

    center footer UMLDoclet 2.0.19, PlantUML 1.2022.8
@enduml

PlantUML version 1.2022.8(Sun Sep 25 11:00:33 CEST 2022)
(APACHE source distribution)
Java Runtime: OpenJDK Runtime Environment
JVM: OpenJDK 64-Bit Server VM
Default Encoding: UTF-8
Language: de
Country: DE
--></g></svg>