<?xml version="1.0" encoding="UTF-8" standalone="no"?><svg xmlns="http://www.w3.org/2000/svg" xmlns:xlink="http://www.w3.org/1999/xlink" contentStyleType="text/css" height="436px" preserveAspectRatio="none" style="width:475px;height:436px;background:#FFFFFF;" version="1.1" viewBox="0 0 475 436" width="475px" zoomAndPan="magnify"><defs/><g><!--MD5=[0acd2cc83b6444760c20890c1fb38ff0]
class elki.utilities.datastructures.iterator.ArrayListIter--><a href="ArrayListIter.html" target="_top" title="ArrayListIter.html" xlink:actuate="onRequest" xlink:href="ArrayListIter.html" xlink:show="new" xlink:title="ArrayListIter.html" xlink:type="simple"><g id="elem_elki.utilities.datastructures.iterator.ArrayListIter"><rect codeLine="6" fill="#F1F1F1" height="216.9063" id="elki.utilities.datastructures.iterator.ArrayListIter" rx="2.5" ry="2.5" style="stroke:#181818;stroke-width:0.5;" width="234" x="115.5" y="194"/><ellipse cx="142.2" cy="212.9688" fill="#ADD1B2" rx="11" ry="11" style="stroke:#181818;stroke-width:1.0;"/><path d="M145.1688,218.6094 Q144.5906,218.9063 143.95,219.0469 Q143.3094,219.2031 142.6063,219.2031 Q140.1063,219.2031 138.7781,217.5625 Q137.4656,215.9063 137.4656,212.7813 Q137.4656,209.6563 138.7781,208 Q140.1063,206.3438 142.6063,206.3438 Q143.3094,206.3438 143.95,206.5 Q144.6063,206.6563 145.1688,206.9531 L145.1688,209.6719 Q144.5438,209.0938 143.95,208.8281 Q143.3563,208.5469 142.7313,208.5469 Q141.3875,208.5469 140.7,209.625 Q140.0125,210.6875 140.0125,212.7813 Q140.0125,214.875 140.7,215.9531 Q141.3875,217.0156 142.7313,217.0156 Q143.3563,217.0156 143.95,216.75 Q144.5438,216.4688 145.1688,215.8906 L145.1688,218.6094 Z " fill="#000000"/><text fill="#000000" font-family="sans-serif" font-size="14" lengthAdjust="spacing" textLength="79" x="201.3" y="211.9951">ArrayListIter</text><text fill="#000000" font-family="sans-serif" font-size="10" lengthAdjust="spacing" textLength="164" x="158.8" y="224.5791">elki.utilities.datastructures.iterator</text><rect fill="#FFFFFF" height="15.9688" style="stroke:#181818;stroke-width:1.0;stroke-dasharray:2.0,2.0;" width="10" x="342.5" y="191"/><text fill="#000000" font-family="sans-serif" font-size="12" font-style="italic" lengthAdjust="spacing" textLength="8" x="343.5" y="203.1387">O</text><line style="stroke:#181818;stroke-width:0.5;" x1="116.5" x2="348.5" y1="231.9375" y2="231.9375"/><polygon fill="none" points="126.5,241.5859,122.5,247.5859,130.5,247.5859" style="stroke:#1963A0;stroke-width:1.0;"/><text fill="#000000" font-family="sans-serif" font-size="14" lengthAdjust="spacing" textLength="97" x="135.5" y="248.9326">data: List&lt;O&gt;</text><polygon fill="none" points="126.5,257.8828,122.5,263.8828,130.5,263.8828" style="stroke:#1963A0;stroke-width:1.0;"/><text fill="#000000" font-family="sans-serif" font-size="14" lengthAdjust="spacing" textLength="52" x="135.5" y="265.2295">pos: int</text><line style="stroke:#181818;stroke-width:0.5;" x1="116.5" x2="348.5" y1="272.5313" y2="272.5313"/><ellipse cx="126.5" cy="286.1797" fill="#84BE84" rx="3" ry="3" style="stroke:#038048;stroke-width:1.0;"/><text fill="#000000" font-family="sans-serif" font-size="14" lengthAdjust="spacing" textLength="147" x="135.5" y="289.5264">ArrayListIter(List&lt;O&gt;)</text><ellipse cx="126.5" cy="302.4766" fill="#84BE84" rx="3" ry="3" style="stroke:#038048;stroke-width:1.0;"/><text fill="#000000" font-family="sans-serif" font-size="14" lengthAdjust="spacing" textLength="105" x="135.5" y="305.8232">valid(): boolean</text><ellipse cx="126.5" cy="318.7734" fill="#84BE84" rx="3" ry="3" style="stroke:#038048;stroke-width:1.0;"/><text fill="#000000" font-family="sans-serif" font-size="14" lengthAdjust="spacing" textLength="191" x="135.5" y="322.1201">advance(): ArrayListIter&lt;O&gt;</text><ellipse cx="126.5" cy="335.0703" fill="#84BE84" rx="3" ry="3" style="stroke:#038048;stroke-width:1.0;"/><text fill="#000000" font-family="sans-serif" font-size="14" lengthAdjust="spacing" textLength="100" x="135.5" y="338.417">getOffset(): int</text><ellipse cx="126.5" cy="351.3672" fill="#84BE84" rx="3" ry="3" style="stroke:#038048;stroke-width:1.0;"/><text fill="#000000" font-family="sans-serif" font-size="14" lengthAdjust="spacing" textLength="208" x="135.5" y="354.7139">advance(int): ArrayListIter&lt;O&gt;</text><ellipse cx="126.5" cy="367.6641" fill="#84BE84" rx="3" ry="3" style="stroke:#038048;stroke-width:1.0;"/><text fill="#000000" font-family="sans-serif" font-size="14" lengthAdjust="spacing" textLength="178" x="135.5" y="371.0107">retract(): ArrayListIter&lt;O&gt;</text><ellipse cx="126.5" cy="383.9609" fill="#84BE84" rx="3" ry="3" style="stroke:#038048;stroke-width:1.0;"/><text fill="#000000" font-family="sans-serif" font-size="14" lengthAdjust="spacing" textLength="184" x="135.5" y="387.3076">seek(int): ArrayListIter&lt;O&gt;</text><ellipse cx="126.5" cy="400.2578" fill="#84BE84" rx="3" ry="3" style="stroke:#038048;stroke-width:1.0;"/><text fill="#000000" font-family="sans-serif" font-size="14" lengthAdjust="spacing" textLength="53" x="135.5" y="403.6045">get(): O</text></g></a><!--MD5=[383d127aa29e9c3713c4518838a32c2e]
class elki.utilities.datastructures.iterator.ArrayIter--><a href="ArrayIter.html" target="_top" title="ArrayIter.html" xlink:actuate="onRequest" xlink:href="ArrayIter.html" xlink:show="new" xlink:title="ArrayIter.html" xlink:type="simple"><g id="elem_elki.utilities.datastructures.iterator.ArrayIter"><rect codeLine="19" fill="#F1F1F1" height="127.4219" id="elki.utilities.datastructures.iterator.ArrayIter" rx="2.5" ry="2.5" style="stroke:#181818;stroke-width:0.5;" width="205" x="7" y="7"/><ellipse cx="22" cy="25.9688" fill="#B4A7E5" rx="11" ry="11" style="stroke:#181818;stroke-width:1.0;"/><path d="M17.9219,21.7344 L17.9219,19.5781 L25.3125,19.5781 L25.3125,21.7344 L22.8438,21.7344 L22.8438,29.8125 L25.3125,29.8125 L25.3125,31.9688 L17.9219,31.9688 L17.9219,29.8125 L20.3906,29.8125 L20.3906,21.7344 L17.9219,21.7344 Z " fill="#000000"/><text fill="#000000" font-family="sans-serif" font-size="14" font-style="italic" lengthAdjust="spacing" textLength="60" x="92.5" y="24.9951">ArrayIter</text><text fill="#000000" font-family="sans-serif" font-size="10" font-style="italic" lengthAdjust="spacing" textLength="173" x="36" y="37.5791">elki.utilities.datastructures.iterator</text><line style="stroke:#181818;stroke-width:0.5;" x1="8" x2="211" y1="44.9375" y2="44.9375"/><ellipse cx="18" cy="58.5859" fill="#84BE84" rx="3" ry="3" style="stroke:#038048;stroke-width:1.0;"/><text fill="#000000" font-family="sans-serif" font-size="14" font-style="italic" lengthAdjust="spacing" textLength="140" x="27" y="61.9326">advance(): ArrayIter</text><ellipse cx="18" cy="74.8828" fill="#84BE84" rx="3" ry="3" style="stroke:#038048;stroke-width:1.0;"/><text fill="#000000" font-family="sans-serif" font-size="14" font-style="italic" lengthAdjust="spacing" textLength="158" x="27" y="78.2295">advance(int): ArrayIter</text><ellipse cx="18" cy="91.1797" fill="#84BE84" rx="3" ry="3" style="stroke:#038048;stroke-width:1.0;"/><text fill="#000000" font-family="sans-serif" font-size="14" font-style="italic" lengthAdjust="spacing" textLength="125" x="27" y="94.5264">retract(): ArrayIter</text><ellipse cx="18" cy="107.4766" fill="#84BE84" rx="3" ry="3" style="stroke:#038048;stroke-width:1.0;"/><text fill="#000000" font-family="sans-serif" font-size="14" font-style="italic" lengthAdjust="spacing" textLength="130" x="27" y="110.8232">seek(int): ArrayIter</text><ellipse cx="18" cy="123.7734" fill="#84BE84" rx="3" ry="3" style="stroke:#038048;stroke-width:1.0;"/><text fill="#000000" font-family="sans-serif" font-size="14" font-style="italic" lengthAdjust="spacing" textLength="102" x="27" y="127.1201">getOffset(): int</text></g></a><!--MD5=[2d9fce021190a906c1c5dfa1fad69cb4]
class elki.utilities.datastructures.iterator.It--><a href="It.html" target="_top" title="It.html" xlink:actuate="onRequest" xlink:href="It.html" xlink:show="new" xlink:title="It.html" xlink:type="simple"><g id="elem_elki.utilities.datastructures.iterator.It"><rect codeLine="26" fill="#F1F1F1" height="78.5313" id="elki.utilities.datastructures.iterator.It" rx="2.5" ry="2.5" style="stroke:#181818;stroke-width:0.5;" width="217" x="247" y="31"/><ellipse cx="262" cy="49.9688" fill="#B4A7E5" rx="11" ry="11" style="stroke:#181818;stroke-width:1.0;"/><path d="M257.9219,45.7344 L257.9219,43.5781 L265.3125,43.5781 L265.3125,45.7344 L262.8438,45.7344 L262.8438,53.8125 L265.3125,53.8125 L265.3125,55.9688 L257.9219,55.9688 L257.9219,53.8125 L260.3906,53.8125 L260.3906,45.7344 L257.9219,45.7344 Z " fill="#000000"/><text fill="#000000" font-family="sans-serif" font-size="14" font-style="italic" lengthAdjust="spacing" textLength="9" x="358" y="48.9951">It</text><text fill="#000000" font-family="sans-serif" font-size="10" font-style="italic" lengthAdjust="spacing" textLength="173" x="276" y="61.5791">elki.utilities.datastructures.iterator</text><rect fill="#FFFFFF" height="15.9688" style="stroke:#181818;stroke-width:1.0;stroke-dasharray:2.0,2.0;" width="10" x="457" y="28"/><text fill="#000000" font-family="sans-serif" font-size="12" font-style="italic" lengthAdjust="spacing" textLength="8" x="458" y="40.1387">O</text><line style="stroke:#181818;stroke-width:0.5;" x1="248" x2="463" y1="68.9375" y2="68.9375"/><ellipse cx="258" cy="82.5859" fill="#84BE84" rx="3" ry="3" style="stroke:#038048;stroke-width:1.0;"/><text fill="#000000" font-family="sans-serif" font-size="14" font-style="italic" lengthAdjust="spacing" textLength="53" x="267" y="85.9326">get(): O</text><ellipse cx="258" cy="98.8828" fill="#84BE84" rx="3" ry="3" style="stroke:#038048;stroke-width:1.0;"/><text fill="#000000" font-family="sans-serif" font-size="14" font-style="italic" lengthAdjust="spacing" textLength="124" x="267" y="102.2295">advance(): It&lt;O&gt;</text></g></a><!--MD5=[5ad38f01f7a4e522c6122f333ed932c1]
reverse link elki.utilities.datastructures.iterator.ArrayIter to elki.utilities.datastructures.iterator.ArrayListIter--><g id="link_elki.utilities.datastructures.iterator.ArrayIter_elki.utilities.datastructures.iterator.ArrayListIter"><path codeLine="31" d="M152.54,151.97 C159.77,165.5 167.38,179.73 174.91,193.81 " fill="none" id="elki.utilities.datastructures.iterator.ArrayIter-backto-elki.utilities.datastructures.iterator.ArrayListIter" style="stroke:#181818;stroke-width:1.0;stroke-dasharray:7.0,7.0;"/><polygon fill="none" points="146.21,154.98,142.95,134.04,158.55,148.38,146.21,154.98" style="stroke:#181818;stroke-width:1.0;"/></g><!--MD5=[839d29b9a1bde40634cc459bd2a287a2]
reverse link elki.utilities.datastructures.iterator.It to elki.utilities.datastructures.iterator.ArrayListIter--><g id="link_elki.utilities.datastructures.iterator.It_elki.utilities.datastructures.iterator.ArrayListIter"><path codeLine="32" d="M325.18,128.19 C314.58,148.03 302.29,171.01 290.19,193.62 " fill="none" id="elki.utilities.datastructures.iterator.It-backto-elki.utilities.datastructures.iterator.ArrayListIter" style="stroke:#181818;stroke-width:1.0;stroke-dasharray:7.0,7.0;"/><polygon fill="none" points="319.17,124.59,334.77,110.26,331.51,131.19,319.17,124.59" style="stroke:#181818;stroke-width:1.0;"/></g><rect fill="none" height="11.6406" style="stroke:none;stroke-width:1.0;" width="186" x="137.5" y="416.9063"/><text fill="#888888" font-family="sans-serif" font-size="10" lengthAdjust="spacing" textLength="186" x="137.5" y="426.1885">UMLDoclet 2.0.19, PlantUML 1.2022.8</text><!--MD5=[ed6087dce3955e2bbc612c7811d20477]
@startuml
    remove .*\.(Instance|Par|Parameterizer|Factory)$
    set namespaceSeparator none
    hide empty fields
    hide empty methods

    class "<size:14>ArrayListIter\n<size:10>elki.utilities.datastructures.iterator" as elki.utilities.datastructures.iterator.ArrayListIter<O> [[ArrayListIter.html]] {
        ~data: List<O>
        ~pos: int
        +ArrayListIter(List<O>)
        +valid(): boolean
        +advance(): ArrayListIter<O>
        +getOffset(): int
        +advance(int): ArrayListIter<O>
        +retract(): ArrayListIter<O>
        +seek(int): ArrayListIter<O>
        +get(): O
    }

    interface "<size:14>ArrayIter\n<size:10>elki.utilities.datastructures.iterator" as elki.utilities.datastructures.iterator.ArrayIter [[ArrayIter.html]] {
        {abstract} +advance(): ArrayIter
        {abstract} +advance(int): ArrayIter
        {abstract} +retract(): ArrayIter
        {abstract} +seek(int): ArrayIter
        {abstract} +getOffset(): int
    }
    interface "<size:14>It\n<size:10>elki.utilities.datastructures.iterator" as elki.utilities.datastructures.iterator.It<O> [[It.html]] {
        {abstract} +get(): O
        {abstract} +advance(): It<O>
    }

    elki.utilities.datastructures.iterator.ArrayIter <|.. elki.utilities.datastructures.iterator.ArrayListIter
    elki.utilities.datastructures.iterator.It <|.. elki.utilities.datastructures.iterator.ArrayListIter

    center footer UMLDoclet 2.0.19, PlantUML 1.2022.8
@enduml

PlantUML version 1.2022.8(Sun Sep 25 11:00:33 CEST 2022)
(APACHE source distribution)
Java Runtime: OpenJDK Runtime Environment
JVM: OpenJDK 64-Bit Server VM
Default Encoding: UTF-8
Language: de
Country: DE
--></g></svg>