<?xml version="1.0" encoding="UTF-8" standalone="no"?><svg xmlns="http://www.w3.org/2000/svg" xmlns:xlink="http://www.w3.org/1999/xlink" contentStyleType="text/css" height="249px" preserveAspectRatio="none" style="width:237px;height:249px;background:#FFFFFF;" version="1.1" viewBox="0 0 237 249" width="237px" zoomAndPan="magnify"><defs/><g><!--MD5=[05a74523eb6c9abae2b3f71970b008e7]
class elki.clustering.dbscan.util.MultiBorder--><a href="MultiBorder.html" target="_top" title="MultiBorder.html" xlink:actuate="onRequest" xlink:href="MultiBorder.html" xlink:show="new" xlink:title="MultiBorder.html" xlink:type="simple"><g id="elem_elki.clustering.dbscan.util.MultiBorder"><rect codeLine="6" fill="#F1F1F1" height="119.125" id="elki.clustering.dbscan.util.MultiBorder" rx="2.5" ry="2.5" style="stroke:#181818;stroke-width:0.5;" width="223" x="7" y="105"/><ellipse cx="55.25" cy="123.9688" fill="#ADD1B2" rx="11" ry="11" style="stroke:#181818;stroke-width:1.0;"/><path d="M58.2188,129.6094 Q57.6406,129.9063 57,130.0469 Q56.3594,130.2031 55.6563,130.2031 Q53.1563,130.2031 51.8281,128.5625 Q50.5156,126.9063 50.5156,123.7813 Q50.5156,120.6563 51.8281,119 Q53.1563,117.3438 55.6563,117.3438 Q56.3594,117.3438 57,117.5 Q57.6563,117.6563 58.2188,117.9531 L58.2188,120.6719 Q57.5938,120.0938 57,119.8281 Q56.4063,119.5469 55.7813,119.5469 Q54.4375,119.5469 53.75,120.625 Q53.0625,121.6875 53.0625,123.7813 Q53.0625,125.875 53.75,126.9531 Q54.4375,128.0156 55.7813,128.0156 Q56.4063,128.0156 57,127.75 Q57.5938,127.4688 58.2188,126.8906 L58.2188,129.6094 Z " fill="#000000"/><text fill="#000000" font-family="sans-serif" font-size="14" lengthAdjust="spacing" textLength="79" x="95.25" y="122.9951">MultiBorder</text><text fill="#000000" font-family="sans-serif" font-size="10" lengthAdjust="spacing" textLength="118" x="75.75" y="135.5791">elki.clustering.dbscan.util</text><line style="stroke:#181818;stroke-width:0.5;" x1="8" x2="229" y1="142.9375" y2="142.9375"/><ellipse cx="18" cy="156.5859" fill="none" rx="3" ry="3" style="stroke:#038048;stroke-width:1.0;"/><text fill="#000000" font-family="sans-serif" font-size="14" lengthAdjust="spacing" textLength="82" x="27" y="159.9326">cs: Border[]</text><line style="stroke:#181818;stroke-width:0.5;" x1="8" x2="229" y1="167.2344" y2="167.2344"/><ellipse cx="18" cy="180.8828" fill="#84BE84" rx="3" ry="3" style="stroke:#038048;stroke-width:1.0;"/><text fill="#000000" font-family="sans-serif" font-size="14" lengthAdjust="spacing" textLength="191" x="27" y="184.2295">MultiBorder(Border, Border)</text><ellipse cx="18" cy="197.1797" fill="#84BE84" rx="3" ry="3" style="stroke:#038048;stroke-width:1.0;"/><text fill="#000000" font-family="sans-serif" font-size="14" lengthAdjust="spacing" textLength="197" x="27" y="200.5264">update(Border): Assignment</text><ellipse cx="18" cy="213.4766" fill="#84BE84" rx="3" ry="3" style="stroke:#038048;stroke-width:1.0;"/><text fill="#000000" font-family="sans-serif" font-size="14" lengthAdjust="spacing" textLength="108" x="27" y="216.8232">getCore(): Core</text></g></a><!--MD5=[cbeaa53bf5d01d4430e82cf1da4c6253]
class elki.clustering.dbscan.util.Assignment--><a href="Assignment.html" target="_top" title="Assignment.html" xlink:actuate="onRequest" xlink:href="Assignment.html" xlink:show="new" xlink:title="Assignment.html" xlink:type="simple"><g id="elem_elki.clustering.dbscan.util.Assignment"><rect codeLine="13" fill="#F1F1F1" height="37.9375" id="elki.clustering.dbscan.util.Assignment" rx="2.5" ry="2.5" style="stroke:#181818;stroke-width:0.5;" width="159" x="39" y="7"/><ellipse cx="54" cy="25.9688" fill="#B4A7E5" rx="11" ry="11" style="stroke:#181818;stroke-width:1.0;"/><path d="M49.9219,21.7344 L49.9219,19.5781 L57.3125,19.5781 L57.3125,21.7344 L54.8438,21.7344 L54.8438,29.8125 L57.3125,29.8125 L57.3125,31.9688 L49.9219,31.9688 L49.9219,29.8125 L52.3906,29.8125 L52.3906,21.7344 L49.9219,21.7344 Z " fill="#000000"/><text fill="#000000" font-family="sans-serif" font-size="14" font-style="italic" lengthAdjust="spacing" textLength="83" x="90" y="24.9951">Assignment</text><text fill="#000000" font-family="sans-serif" font-size="10" font-style="italic" lengthAdjust="spacing" textLength="127" x="68" y="37.5791">elki.clustering.dbscan.util</text></g></a><!--MD5=[624936662910fefc19a9b3fada8a72ed]
reverse link elki.clustering.dbscan.util.Assignment to elki.clustering.dbscan.util.MultiBorder--><g id="link_elki.clustering.dbscan.util.Assignment_elki.clustering.dbscan.util.MultiBorder"><path codeLine="15" d="M118.5,65.5 C118.5,77.69 118.5,91.46 118.5,104.73 " fill="none" id="elki.clustering.dbscan.util.Assignment-backto-elki.clustering.dbscan.util.MultiBorder" style="stroke:#181818;stroke-width:1.0;stroke-dasharray:7.0,7.0;"/><polygon fill="none" points="111.5,65.13,118.5,45.13,125.5,65.13,111.5,65.13" style="stroke:#181818;stroke-width:1.0;"/></g><rect fill="none" height="11.6406" style="stroke:none;stroke-width:1.0;" width="186" x="18.5" y="230.125"/><text fill="#888888" font-family="sans-serif" font-size="10" lengthAdjust="spacing" textLength="186" x="18.5" y="239.4072">UMLDoclet 2.0.19, PlantUML 1.2022.8</text><!--MD5=[a08b433fa8be4d871924b27276f7c038]
@startuml
    remove .*\.(Instance|Par|Parameterizer|Factory)$
    set namespaceSeparator none
    hide empty fields
    hide empty methods

    class "<size:14>MultiBorder\n<size:10>elki.clustering.dbscan.util" as elki.clustering.dbscan.util.MultiBorder [[MultiBorder.html]] {
        +cs: Border[]
        +MultiBorder(Border, Border)
        +update(Border): Assignment
        +getCore(): Core
    }

    interface "<size:14>Assignment\n<size:10>elki.clustering.dbscan.util" as elki.clustering.dbscan.util.Assignment [[Assignment.html]]

    elki.clustering.dbscan.util.Assignment <|.. elki.clustering.dbscan.util.MultiBorder

    center footer UMLDoclet 2.0.19, PlantUML 1.2022.8
@enduml

PlantUML version 1.2022.8(Sun Sep 25 11:00:33 CEST 2022)
(APACHE source distribution)
Java Runtime: OpenJDK Runtime Environment
JVM: OpenJDK 64-Bit Server VM
Default Encoding: UTF-8
Language: de
Country: DE
--></g></svg>