<?xml version="1.0" encoding="UTF-8" standalone="no"?><svg xmlns="http://www.w3.org/2000/svg" xmlns:xlink="http://www.w3.org/1999/xlink" contentStyleType="text/css" height="209px" preserveAspectRatio="none" style="width:301px;height:209px;background:#FFFFFF;" version="1.1" viewBox="0 0 301 209" width="301px" zoomAndPan="magnify"><defs/><g><!--MD5=[c36c3c85dcf220707dc4cc67792592b9]
class elki.svm.model.RegressionModel--><a href="RegressionModel.html" target="_top" title="RegressionModel.html" xlink:actuate="onRequest" xlink:href="RegressionModel.html" xlink:show="new" xlink:title="RegressionModel.html" xlink:type="simple"><g id="elem_elki.svm.model.RegressionModel"><rect codeLine="6" fill="#F1F1F1" height="78.5313" id="elki.svm.model.RegressionModel" rx="2.5" ry="2.5" style="stroke:#181818;stroke-width:0.5;" width="287" x="7" y="105"/><ellipse cx="85.75" cy="123.9688" fill="#ADD1B2" rx="11" ry="11" style="stroke:#181818;stroke-width:1.0;"/><path d="M88.7188,129.6094 Q88.1406,129.9063 87.5,130.0469 Q86.8594,130.2031 86.1563,130.2031 Q83.6563,130.2031 82.3281,128.5625 Q81.0156,126.9063 81.0156,123.7813 Q81.0156,120.6563 82.3281,119 Q83.6563,117.3438 86.1563,117.3438 Q86.8594,117.3438 87.5,117.5 Q88.1563,117.6563 88.7188,117.9531 L88.7188,120.6719 Q88.0938,120.0938 87.5,119.8281 Q86.9063,119.5469 86.2813,119.5469 Q84.9375,119.5469 84.25,120.625 Q83.5625,121.6875 83.5625,123.7813 Q83.5625,125.875 84.25,126.9531 Q84.9375,128.0156 86.2813,128.0156 Q86.9063,128.0156 87.5,127.75 Q88.0938,127.4688 88.7188,126.8906 L88.7188,129.6094 Z " fill="#000000"/><text fill="#000000" font-family="sans-serif" font-size="14" lengthAdjust="spacing" textLength="121" x="106.25" y="122.9951">RegressionModel</text><text fill="#000000" font-family="sans-serif" font-size="10" lengthAdjust="spacing" textLength="72" x="130.75" y="135.5791">elki.svm.model</text><line style="stroke:#181818;stroke-width:0.5;" x1="8" x2="293" y1="142.9375" y2="142.9375"/><ellipse cx="18" cy="156.5859" fill="#84BE84" rx="3" ry="3" style="stroke:#038048;stroke-width:1.0;"/><text fill="#000000" font-family="sans-serif" font-size="14" lengthAdjust="spacing" textLength="261" x="27" y="159.9326">predict(DataSet, int, double[]): double</text><ellipse cx="18" cy="172.8828" fill="#84BE84" rx="3" ry="3" style="stroke:#038048;stroke-width:1.0;"/><text fill="#000000" font-family="sans-serif" font-size="14" lengthAdjust="spacing" textLength="195" x="27" y="176.2295">predict(DataSet, int): double</text></g></a><!--MD5=[ffdc01ec2365cec7215956ee6782e343]
class elki.svm.model.Model--><a href="Model.html" target="_top" title="Model.html" xlink:actuate="onRequest" xlink:href="Model.html" xlink:show="new" xlink:title="Model.html" xlink:type="simple"><g id="elem_elki.svm.model.Model"><rect codeLine="11" fill="#F1F1F1" height="37.9375" id="elki.svm.model.Model" rx="2.5" ry="2.5" style="stroke:#181818;stroke-width:0.5;" width="104" x="98.5" y="7"/><ellipse cx="113.5" cy="25.9688" fill="#ADD1B2" rx="11" ry="11" style="stroke:#181818;stroke-width:1.0;"/><path d="M116.4688,31.6094 Q115.8906,31.9063 115.25,32.0469 Q114.6094,32.2031 113.9063,32.2031 Q111.4063,32.2031 110.0781,30.5625 Q108.7656,28.9063 108.7656,25.7813 Q108.7656,22.6563 110.0781,21 Q111.4063,19.3438 113.9063,19.3438 Q114.6094,19.3438 115.25,19.5 Q115.9063,19.6563 116.4688,19.9531 L116.4688,22.6719 Q115.8438,22.0938 115.25,21.8281 Q114.6563,21.5469 114.0313,21.5469 Q112.6875,21.5469 112,22.625 Q111.3125,23.6875 111.3125,25.7813 Q111.3125,27.875 112,28.9531 Q112.6875,30.0156 114.0313,30.0156 Q114.6563,30.0156 115.25,29.75 Q115.8438,29.4688 116.4688,28.8906 L116.4688,31.6094 Z " fill="#000000"/><text fill="#000000" font-family="sans-serif" font-size="14" lengthAdjust="spacing" textLength="42" x="142.5" y="24.9951">Model</text><text fill="#000000" font-family="sans-serif" font-size="10" lengthAdjust="spacing" textLength="72" x="127.5" y="37.5791">elki.svm.model</text></g></a><!--MD5=[f8a5571283b15d18b4f38cde2a9805e8]
reverse link elki.svm.model.Model to elki.svm.model.RegressionModel--><g id="link_elki.svm.model.Model_elki.svm.model.RegressionModel"><path codeLine="13" d="M150.5,65.24 C150.5,77.9 150.5,92 150.5,104.71 " fill="none" id="elki.svm.model.Model-backto-elki.svm.model.RegressionModel" style="stroke:#181818;stroke-width:1.0;"/><polygon fill="none" points="143.5,65.2,150.5,45.2,157.5,65.2,143.5,65.2" style="stroke:#181818;stroke-width:1.0;"/></g><rect fill="none" height="11.6406" style="stroke:none;stroke-width:1.0;" width="186" x="50.5" y="189.5313"/><text fill="#888888" font-family="sans-serif" font-size="10" lengthAdjust="spacing" textLength="186" x="50.5" y="198.8135">UMLDoclet 2.0.19, PlantUML 1.2022.8</text><!--MD5=[a1e74f8a557c242a782ed83a24aa4621]
@startuml
    remove .*\.(Instance|Par|Parameterizer|Factory)$
    set namespaceSeparator none
    hide empty fields
    hide empty methods

    class "<size:14>RegressionModel\n<size:10>elki.svm.model" as elki.svm.model.RegressionModel [[RegressionModel.html]] {
        +predict(DataSet, int, double[]): double
        +predict(DataSet, int): double
    }

    class "<size:14>Model\n<size:10>elki.svm.model" as elki.svm.model.Model [[Model.html]]

    elki.svm.model.Model <|- - elki.svm.model.RegressionModel

    center footer UMLDoclet 2.0.19, PlantUML 1.2022.8
@enduml

PlantUML version 1.2022.8(Sun Sep 25 11:00:33 CEST 2022)
(APACHE source distribution)
Java Runtime: OpenJDK Runtime Environment
JVM: OpenJDK 64-Bit Server VM
Default Encoding: UTF-8
Language: de
Country: DE
--></g></svg>