<?xml version="1.0" encoding="UTF-8" standalone="no"?>
<!DOCTYPE svg PUBLIC "-//W3C//DTD SVG 1.1//EN"
 "http://www.w3.org/Graphics/SVG/1.1/DTD/svg11.dtd">
<!-- Generated by graphviz version 2.40.1 (20161225.0304)
 -->
<!-- Title: G Pages: 1 -->
<svg width="206pt" height="36pt"
 viewBox="0.00 0.00 206.00 36.00" xmlns="http://www.w3.org/2000/svg" xmlns:xlink="http://www.w3.org/1999/xlink">
<g id="graph0" class="graph" transform="scale(1 1) rotate(0) translate(4 32)">
<title>G</title>
<polygon fill="#ffffff" stroke="transparent" points="-4,4 -4,-32 202,-32 202,4 -4,4"/>
<!-- c2396112 -->
<g id="node1" class="node">
<title>c2396112</title>
<g id="a_node1"><a xlink:href="../../utilities/ELKIServiceLoader.html" xlink:title="&lt;TABLE&gt;">
<g id="a_node1_0"><a xlink:href="../../utilities/ELKIServiceLoader.html" xlink:title="de.lmu.ifi.dbs.elki.utilities.ELKIServiceLoader" target="_parent">
<polygon fill="none" stroke="#000000" points="99.5,0 99.5,-28 198.5,-28 198.5,0 99.5,0"/>
<text text-anchor="start" x="113" y="-18.6" font-family="Roboto" font-size="8.00" fill="#000000"> </text>
<text text-anchor="start" x="116" y="-18.6" font-family="Roboto" font-size="8.00" fill="#000000">ELKIServiceLoader</text>
<text text-anchor="start" x="182" y="-18.6" font-family="Roboto" font-size="8.00" fill="#000000"> </text>
<text text-anchor="start" x="103.5" y="-7.6" font-family="Roboto" font-size="8.00" fill="#000000"> </text>
<text text-anchor="start" x="106.5" y="-7.6" font-family="Roboto" font-size="7.00" fill="#000000">de.lmu.ifi.dbs.elki.utilities</text>
<text text-anchor="start" x="191.5" y="-7.6" font-family="Roboto" font-size="8.00" fill="#000000"> </text>
</a>
</g>
</a>
</g>
</g>
<!-- c2396183 -->
<g id="node2" class="node">
<title>c2396183</title>
<g id="a_node2"><a xlink:href="CheckELKIServices.html" xlink:title="&lt;TABLE&gt;">
<g id="a_node2_1"><a xlink:href="CheckELKIServices.html" xlink:title="de.lmu.ifi.dbs.elki.application.internal.CheckELKIServices" target="_parent">
<polygon fill="#fffacd" stroke="transparent" points="0,-5.5 0,-22.5 81,-22.5 81,-5.5 0,-5.5"/>
<polygon fill="none" stroke="#000000" points=".5,-5 .5,-22 81.5,-22 81.5,-5 .5,-5"/>
<text text-anchor="start" x="4.5" y="-12.6" font-family="Roboto" font-size="8.00" fill="#000000"> </text>
<text text-anchor="start" x="7.5" y="-12.6" font-family="Roboto" font-size="8.00" fill="#000000">CheckELKIServices</text>
<text text-anchor="start" x="74.5" y="-12.6" font-family="Roboto" font-size="8.00" fill="#000000"> </text>
</a>
</g>
</a>
</g>
</g>
<!-- c2396183&#45;&gt;c2396112 -->
<g id="edge1" class="edge">
<title>c2396183&#45;&gt;c2396112</title>
<path fill="none" stroke="#000000" d="M81.0225,-14C86.8882,-14 92.9806,-14 98.998,-14"/>
</g>
</g>
</svg>
