<?xml version="1.0" encoding="UTF-8" standalone="no"?>
<!DOCTYPE svg PUBLIC "-//W3C//DTD SVG 1.1//EN"
 "http://www.w3.org/Graphics/SVG/1.1/DTD/svg11.dtd">
<!-- Generated by graphviz version 2.40.1 (20161225.0304)
 -->
<!-- Title: G Pages: 1 -->
<svg width="288pt" height="25pt"
 viewBox="0.00 0.00 288.00 25.00" xmlns="http://www.w3.org/2000/svg" xmlns:xlink="http://www.w3.org/1999/xlink">
<g id="graph0" class="graph" transform="scale(1 1) rotate(0) translate(4 21)">
<title>G</title>
<polygon fill="#ffffff" stroke="transparent" points="-4,4 -4,-21 284,-21 284,4 -4,4"/>
<!-- c9739721 -->
<g id="node1" class="node">
<title>c9739721</title>
<g id="a_node1"><a xlink:href="SparseEuclideanDistanceFunction.html" xlink:title="&lt;TABLE&gt;">
<g id="a_node1_0"><a xlink:href="SparseEuclideanDistanceFunction.html" xlink:title="de.lmu.ifi.dbs.elki.distance.distancefunction.minkowski.SparseEuclideanDistanceFunction" target="_parent">
<polygon fill="#fffacd" stroke="transparent" points="146,0 146,-17 280,-17 280,0 146,0"/>
<polygon fill="none" stroke="#000000" points="146,.5 146,-16.5 280,-16.5 280,.5 146,.5"/>
<text text-anchor="start" x="150" y="-7.1" font-family="Roboto" font-size="8.00" fill="#000000"> </text>
<text text-anchor="start" x="153" y="-7.1" font-family="Roboto" font-size="8.00" fill="#000000">SparseEuclideanDistanceFunction</text>
<text text-anchor="start" x="273" y="-7.1" font-family="Roboto" font-size="8.00" fill="#000000"> </text>
</a>
</g>
</a>
</g>
</g>
<!-- c9739723 -->
<g id="node2" class="node">
<title>c9739723</title>
<g id="a_node2"><a xlink:href="SparseLPNormDistanceFunction.html" xlink:title="&lt;TABLE&gt;">
<g id="a_node2_1"><a xlink:href="SparseLPNormDistanceFunction.html" xlink:title="de.lmu.ifi.dbs.elki.distance.distancefunction.minkowski.SparseLPNormDistanceFunction" target="_parent">
<polygon fill="none" stroke="#000000" points="0,.5 0,-16.5 128,-16.5 128,.5 0,.5"/>
<text text-anchor="start" x="4" y="-7.1" font-family="Roboto" font-size="8.00" fill="#000000"> </text>
<text text-anchor="start" x="7" y="-7.1" font-family="Roboto" font-size="8.00" fill="#000000">SparseLPNormDistanceFunction</text>
<text text-anchor="start" x="121" y="-7.1" font-family="Roboto" font-size="8.00" fill="#000000"> </text>
</a>
</g>
</a>
</g>
</g>
<!-- c9739723&#45;&gt;c9739721 -->
<g id="edge1" class="edge">
<title>c9739723&#45;&gt;c9739721</title>
<path fill="none" stroke="#000000" d="M138.2363,-8.5C140.7205,-8.5 143.2051,-8.5 145.6791,-8.5"/>
<polygon fill="none" stroke="#000000" points="138.0542,-5.0001 128.0541,-8.5 138.0541,-12.0001 138.0542,-5.0001"/>
</g>
</g>
</svg>
