<?xml version="1.0" encoding="UTF-8" standalone="no"?><svg xmlns="http://www.w3.org/2000/svg" xmlns:xlink="http://www.w3.org/1999/xlink" contentStyleType="text/css" height="241px" preserveAspectRatio="none" style="width:354px;height:241px;background:#FFFFFF;" version="1.1" viewBox="0 0 354 241" width="354px" zoomAndPan="magnify"><defs/><g><!--MD5=[1d403e715ac786e5173dce31304c27e5]
class elki.math.linearalgebra.fitting.GaussianFittingFunction--><a href="GaussianFittingFunction.html" target="_top" title="GaussianFittingFunction.html" xlink:actuate="onRequest" xlink:href="GaussianFittingFunction.html" xlink:show="new" xlink:title="GaussianFittingFunction.html" xlink:type="simple"><g id="elem_elki.math.linearalgebra.fitting.GaussianFittingFunction"><rect codeLine="6" fill="#F1F1F1" height="86.5313" id="elki.math.linearalgebra.fitting.GaussianFittingFunction" rx="2.5" ry="2.5" style="stroke:#181818;stroke-width:0.5;" width="332" x="11" y="129"/><ellipse cx="89.75" cy="147.9688" fill="#ADD1B2" rx="11" ry="11" style="stroke:#181818;stroke-width:1.0;"/><path d="M92.7188,153.6094 Q92.1406,153.9063 91.5,154.0469 Q90.8594,154.2031 90.1563,154.2031 Q87.6563,154.2031 86.3281,152.5625 Q85.0156,150.9063 85.0156,147.7813 Q85.0156,144.6563 86.3281,143 Q87.6563,141.3438 90.1563,141.3438 Q90.8594,141.3438 91.5,141.5 Q92.1563,141.6563 92.7188,141.9531 L92.7188,144.6719 Q92.0938,144.0938 91.5,143.8281 Q90.9063,143.5469 90.2813,143.5469 Q88.9375,143.5469 88.25,144.625 Q87.5625,145.6875 87.5625,147.7813 Q87.5625,149.875 88.25,150.9531 Q88.9375,152.0156 90.2813,152.0156 Q90.9063,152.0156 91.5,151.75 Q92.0938,151.4688 92.7188,150.8906 L92.7188,153.6094 Z " fill="#000000"/><text fill="#000000" font-family="sans-serif" font-size="14" lengthAdjust="spacing" textLength="166" x="110.25" y="146.9951">GaussianFittingFunction</text><text fill="#000000" font-family="sans-serif" font-size="10" lengthAdjust="spacing" textLength="140" x="123.25" y="159.5791">elki.math.linearalgebra.fitting</text><line style="stroke:#181818;stroke-width:0.5;" x1="12" x2="342" y1="166.9375" y2="166.9375"/><ellipse cx="22" cy="180.5859" fill="none" rx="3" ry="3" style="stroke:#038048;stroke-width:1.0;"/><text fill="#000000" font-family="sans-serif" font-size="14" lengthAdjust="spacing" text-decoration="underline" textLength="224" x="31" y="183.9326">STATIC: GaussianFittingFunction</text><line style="stroke:#181818;stroke-width:0.5;" x1="12" x2="342" y1="191.2344" y2="191.2344"/><ellipse cx="22" cy="204.8828" fill="#84BE84" rx="3" ry="3" style="stroke:#038048;stroke-width:1.0;"/><text fill="#000000" font-family="sans-serif" font-size="14" lengthAdjust="spacing" textLength="306" x="31" y="208.2295">eval(double, double[]): FittingFunctionResult</text></g></a><!--MD5=[3b42388e7c33f01f42692d1cecc2788a]
class elki.math.linearalgebra.fitting.FittingFunction--><a href="FittingFunction.html" target="_top" title="FittingFunction.html" xlink:actuate="onRequest" xlink:href="FittingFunction.html" xlink:show="new" xlink:title="FittingFunction.html" xlink:type="simple"><g id="elem_elki.math.linearalgebra.fitting.FittingFunction"><rect codeLine="11" fill="#F1F1F1" height="62.2344" id="elki.math.linearalgebra.fitting.FittingFunction" rx="2.5" ry="2.5" style="stroke:#181818;stroke-width:0.5;" width="340" x="7" y="7"/><ellipse cx="98.75" cy="25.9688" fill="#B4A7E5" rx="11" ry="11" style="stroke:#181818;stroke-width:1.0;"/><path d="M94.6719,21.7344 L94.6719,19.5781 L102.0625,19.5781 L102.0625,21.7344 L99.5938,21.7344 L99.5938,29.8125 L102.0625,29.8125 L102.0625,31.9688 L94.6719,31.9688 L94.6719,29.8125 L97.1406,29.8125 L97.1406,21.7344 L94.6719,21.7344 Z " fill="#000000"/><text fill="#000000" font-family="sans-serif" font-size="14" font-style="italic" lengthAdjust="spacing" textLength="105" x="140.75" y="24.9951">FittingFunction</text><text fill="#000000" font-family="sans-serif" font-size="10" font-style="italic" lengthAdjust="spacing" textLength="148" x="119.25" y="37.5791">elki.math.linearalgebra.fitting</text><line style="stroke:#181818;stroke-width:0.5;" x1="8" x2="346" y1="44.9375" y2="44.9375"/><ellipse cx="18" cy="58.5859" fill="#84BE84" rx="3" ry="3" style="stroke:#038048;stroke-width:1.0;"/><text fill="#000000" font-family="sans-serif" font-size="14" font-style="italic" lengthAdjust="spacing" textLength="314" x="27" y="61.9326">eval(double, double[]): FittingFunctionResult</text></g></a><!--MD5=[764d4bbc9025e7493a05abdade61095e]
reverse link elki.math.linearalgebra.fitting.FittingFunction to elki.math.linearalgebra.fitting.GaussianFittingFunction--><g id="link_elki.math.linearalgebra.fitting.FittingFunction_elki.math.linearalgebra.fitting.GaussianFittingFunction"><path codeLine="15" d="M177,89.24 C177,102.34 177,116.34 177,129 " fill="none" id="elki.math.linearalgebra.fitting.FittingFunction-backto-elki.math.linearalgebra.fitting.GaussianFittingFunction" style="stroke:#181818;stroke-width:1.0;stroke-dasharray:7.0,7.0;"/><polygon fill="none" points="170,89.07,177,69.07,184,89.07,170,89.07" style="stroke:#181818;stroke-width:1.0;"/></g><rect fill="none" height="11.6406" style="stroke:none;stroke-width:1.0;" width="186" x="77" y="221.5313"/><text fill="#888888" font-family="sans-serif" font-size="10" lengthAdjust="spacing" textLength="186" x="77" y="230.8135">UMLDoclet 2.0.19, PlantUML 1.2022.8</text><!--MD5=[3daf59bbfaa735b6ad60d1cdd5acdee1]
@startuml
    remove .*\.(Instance|Par|Parameterizer|Factory)$
    set namespaceSeparator none
    hide empty fields
    hide empty methods

    class "<size:14>GaussianFittingFunction\n<size:10>elki.math.linearalgebra.fitting" as elki.math.linearalgebra.fitting.GaussianFittingFunction [[GaussianFittingFunction.html]] {
        {static} +STATIC: GaussianFittingFunction
        +eval(double, double[]): FittingFunctionResult
    }

    interface "<size:14>FittingFunction\n<size:10>elki.math.linearalgebra.fitting" as elki.math.linearalgebra.fitting.FittingFunction [[FittingFunction.html]] {
        {abstract} +eval(double, double[]): FittingFunctionResult
    }

    elki.math.linearalgebra.fitting.FittingFunction <|.. elki.math.linearalgebra.fitting.GaussianFittingFunction

    center footer UMLDoclet 2.0.19, PlantUML 1.2022.8
@enduml

PlantUML version 1.2022.8(Sun Sep 25 11:00:33 CEST 2022)
(APACHE source distribution)
Java Runtime: OpenJDK Runtime Environment
JVM: OpenJDK 64-Bit Server VM
Default Encoding: UTF-8
Language: de
Country: DE
--></g></svg>