<?xml version="1.0" encoding="UTF-8" standalone="no"?>
<!DOCTYPE svg PUBLIC "-//W3C//DTD SVG 1.1//EN"
 "http://www.w3.org/Graphics/SVG/1.1/DTD/svg11.dtd">
<!-- Generated by graphviz version 2.40.1 (20161225.0304)
 -->
<!-- Title: G Pages: 1 -->
<svg width="505pt" height="123pt"
 viewBox="0.00 0.00 505.00 122.50" xmlns="http://www.w3.org/2000/svg" xmlns:xlink="http://www.w3.org/1999/xlink">
<g id="graph0" class="graph" transform="scale(1 1) rotate(0) translate(4 118.5)">
<title>G</title>
<polygon fill="#ffffff" stroke="transparent" points="-4,4 -4,-118.5 501,-118.5 501,4 -4,4"/>
<!-- c2177396 -->
<g id="node1" class="node">
<title>c2177396</title>
<g id="a_node1"><a xlink:href="../correlation/COPAC.html" xlink:title="&lt;TABLE&gt;">
<g id="a_node1_0"><a xlink:href="../correlation/COPAC.html" xlink:title="de.lmu.ifi.dbs.elki.algorithm.clustering.correlation.COPAC" target="_parent">
<polygon fill="none" stroke="#000000" points="0,-39 0,-67 178,-67 178,-39 0,-39"/>
<text text-anchor="start" x="73" y="-57.6" font-family="Roboto" font-size="8.00" fill="#000000"> </text>
<text text-anchor="start" x="76" y="-57.6" font-family="Roboto" font-size="8.00" fill="#000000">COPAC</text>
<text text-anchor="start" x="102" y="-57.6" font-family="Roboto" font-size="8.00" fill="#000000"> </text>
<text text-anchor="start" x="4" y="-46.6" font-family="Roboto" font-size="8.00" fill="#000000"> </text>
<text text-anchor="start" x="7" y="-46.6" font-family="Roboto" font-size="7.00" fill="#000000">de.lmu.ifi.dbs.elki.algorithm.clustering.correlation</text>
<text text-anchor="start" x="171" y="-46.6" font-family="Roboto" font-size="8.00" fill="#000000"> </text>
</a>
</g>
</a>
</g>
</g>
<!-- c2177397 -->
<g id="node2" class="node">
<title>c2177397</title>
<g id="a_node2"><a xlink:href="../correlation/COPAC.Settings.html" xlink:title="&lt;TABLE&gt;">
<g id="a_node2_1"><a xlink:href="../correlation/COPAC.Settings.html" xlink:title="de.lmu.ifi.dbs.elki.algorithm.clustering.correlation.COPAC.Settings" target="_parent">
<polygon fill="none" stroke="#000000" points="319,-36 319,-64 497,-64 497,-36 319,-36"/>
<text text-anchor="start" x="377" y="-54.6" font-family="Roboto" font-size="8.00" fill="#000000"> </text>
<text text-anchor="start" x="380" y="-54.6" font-family="Roboto" font-size="8.00" fill="#000000">COPAC.Settings</text>
<text text-anchor="start" x="436" y="-54.6" font-family="Roboto" font-size="8.00" fill="#000000"> </text>
<text text-anchor="start" x="323" y="-43.6" font-family="Roboto" font-size="8.00" fill="#000000"> </text>
<text text-anchor="start" x="326" y="-43.6" font-family="Roboto" font-size="7.00" fill="#000000">de.lmu.ifi.dbs.elki.algorithm.clustering.correlation</text>
<text text-anchor="start" x="490" y="-43.6" font-family="Roboto" font-size="8.00" fill="#000000"> </text>
</a>
</g>
</a>
</g>
</g>
<!-- c2177396&#45;&gt;c2177397 -->
<g id="edge4" class="edge">
<title>c2177396&#45;&gt;c2177397</title>
<path fill="none" stroke="#000000" d="M178.2835,-52.1603C218.8099,-51.7792 266.8926,-51.327 308.5679,-50.9351"/>
<polygon fill="#000000" stroke="#000000" points="318.7381,-50.8395 308.7809,-55.4334 313.7383,-50.8865 308.7385,-50.9336 308.7385,-50.9336 308.7385,-50.9336 313.7383,-50.8865 308.6962,-46.4338 318.7381,-50.8395 318.7381,-50.8395"/>
</g>
<!-- c2177619 -->
<g id="node3" class="node">
<title>c2177619</title>
<g id="a_node3"><a xlink:href="COPACNeighborPredicate.html" xlink:title="&lt;TABLE&gt;">
<g id="a_node3_2"><a xlink:href="COPACNeighborPredicate.html" xlink:title="de.lmu.ifi.dbs.elki.algorithm.clustering.gdbscan.COPACNeighborPredicate" target="_parent">
<polygon fill="#fffacd" stroke="transparent" points="196,-5.5 196,-22.5 301,-22.5 301,-5.5 196,-5.5"/>
<polygon fill="none" stroke="#000000" points="196.5,-5 196.5,-22 301.5,-22 301.5,-5 196.5,-5"/>
<text text-anchor="start" x="200.5" y="-12.6" font-family="Roboto" font-size="8.00" fill="#000000"> </text>
<text text-anchor="start" x="203.5" y="-12.6" font-family="Roboto" font-size="8.00" fill="#000000">COPACNeighborPredicate</text>
<text text-anchor="start" x="294.5" y="-12.6" font-family="Roboto" font-size="8.00" fill="#000000"> </text>
</a>
</g>
</a>
</g>
</g>
<!-- c2177396&#45;&gt;c2177619 -->
<g id="edge1" class="edge">
<title>c2177396&#45;&gt;c2177619</title>
<path fill="none" stroke="#000000" d="M164.9743,-36.153C169.3858,-35.1046 173.7527,-34.049 178,-33 191.1679,-29.7476 205.6445,-25.8947 218.0353,-22.5116"/>
<polygon fill="#000000" stroke="#000000" points="164.9284,-36.1637 159.9996,-41.4274 153.245,-38.9022 158.1739,-33.6385 164.9284,-36.1637"/>
</g>
<!-- c2177827 -->
<g id="node6" class="node">
<title>c2177827</title>
<g id="a_node6"><a xlink:href="../../../data/NumberVector.html" xlink:title="&lt;TABLE&gt;">
<g id="a_node6_3"><a xlink:href="../../../data/NumberVector.html" xlink:title="de.lmu.ifi.dbs.elki.data.NumberVector" target="_parent">
<polygon fill="#fffacd" stroke="transparent" points="364.5,-75.5 364.5,-114.5 451.5,-114.5 451.5,-75.5 364.5,-75.5"/>
<polygon fill="none" stroke="#000000" points="365,-75 365,-114 452,-114 452,-75 365,-75"/>
<text text-anchor="start" x="387" y="-103.6" font-family="Roboto" font-size="8.00" fill="#000000"> «interface» </text>
<text text-anchor="start" x="380" y="-93.6" font-family="Roboto" font-size="8.00" fill="#000000"> </text>
<text text-anchor="start" x="383" y="-93.6" font-family="Roboto" font-size="8.00" fill="#000000">NumberVector</text>
<text text-anchor="start" x="434" y="-93.6" font-family="Roboto" font-size="8.00" fill="#000000"> </text>
<text text-anchor="start" x="369" y="-82.6" font-family="Roboto" font-size="8.00" fill="#000000"> </text>
<text text-anchor="start" x="372" y="-82.6" font-family="Roboto" font-size="7.00" fill="#000000">de.lmu.ifi.dbs.elki.data</text>
<text text-anchor="start" x="445" y="-82.6" font-family="Roboto" font-size="8.00" fill="#000000"> </text>
</a>
</g>
</a>
</g>
</g>
<!-- c2177396&#45;&gt;c2177827 -->
<g id="edge6" class="edge">
<title>c2177396&#45;&gt;c2177827</title>
<path fill="none" stroke="#000000" stroke-dasharray="5,2" d="M178.2835,-64.7552C234.7791,-72.1935 305.9591,-81.5651 353.9946,-87.8896"/>
<polygon fill="#000000" stroke="#000000" points="364.1797,-89.2306 353.6778,-92.3866 359.2225,-88.5778 354.2653,-87.9251 354.2653,-87.9251 354.2653,-87.9251 359.2225,-88.5778 354.8527,-83.4636 364.1797,-89.2306 364.1797,-89.2306"/>
</g>
<!-- c2177619&#45;&gt;c2177397 -->
<g id="edge5" class="edge">
<title>c2177619&#45;&gt;c2177397</title>
<path fill="none" stroke="#000000" d="M286.2993,-22.5315C301.1618,-25.8861 318.7418,-29.854 335.851,-33.7156"/>
<polygon fill="#000000" stroke="#000000" points="345.8461,-35.9715 335.1007,-38.1594 340.9688,-34.8707 336.0914,-33.7698 336.0914,-33.7698 336.0914,-33.7698 340.9688,-34.8707 337.0822,-29.3802 345.8461,-35.9715 345.8461,-35.9715"/>
</g>
<!-- c2177620 -->
<g id="node4" class="node">
<title>c2177620</title>
<g id="a_node4"><a xlink:href="COPACNeighborPredicate.COPACModel.html" xlink:title="&lt;TABLE&gt;">
<g id="a_node4_4"><a xlink:href="COPACNeighborPredicate.COPACModel.html" xlink:title="de.lmu.ifi.dbs.elki.algorithm.clustering.gdbscan.COPACNeighborPredicate.COPACModel" target="_parent">
<polygon fill="none" stroke="#000000" points="331,-5 331,-22 485,-22 485,-5 331,-5"/>
<text text-anchor="start" x="335" y="-12.6" font-family="Roboto" font-size="8.00" fill="#000000"> </text>
<text text-anchor="start" x="338" y="-12.6" font-family="Roboto" font-size="8.00" fill="#000000">COPACNeighborPredicate.COPACModel</text>
<text text-anchor="start" x="478" y="-12.6" font-family="Roboto" font-size="8.00" fill="#000000"> </text>
</a>
</g>
</a>
</g>
</g>
<!-- c2177619&#45;&gt;c2177620 -->
<g id="edge3" class="edge">
<title>c2177619&#45;&gt;c2177620</title>
<path fill="none" stroke="#000000" d="M301.1683,-14C307.4209,-14 313.9254,-14 320.5009,-14"/>
<polygon fill="#000000" stroke="#000000" points="330.8662,-14 320.8662,-18.5001 325.8662,-14 320.8662,-14.0001 320.8662,-14.0001 320.8662,-14.0001 325.8662,-14 320.8662,-9.5001 330.8662,-14 330.8662,-14"/>
</g>
<!-- c2177619&#45;&gt;c2177827 -->
<g id="edge7" class="edge">
<title>c2177619&#45;&gt;c2177827</title>
<path fill="none" stroke="#000000" stroke-dasharray="5,2" d="M257.2968,-22.6979C269.9294,-34.7333 294.4064,-56.4029 319,-69 329.9692,-74.6186 342.3378,-79.202 354.2876,-82.8668"/>
<polygon fill="#000000" stroke="#000000" points="364.187,-85.7318 353.3301,-87.2743 359.3841,-84.3418 354.5812,-82.9517 354.5812,-82.9517 354.5812,-82.9517 359.3841,-84.3418 355.8322,-78.6291 364.187,-85.7318 364.187,-85.7318"/>
</g>
<!-- c2177627 -->
<g id="node5" class="node">
<title>c2177627</title>
<g id="a_node5"><a xlink:href="NeighborPredicate.html" xlink:title="&lt;TABLE&gt;">
<g id="a_node5_5"><a xlink:href="NeighborPredicate.html" xlink:title="de.lmu.ifi.dbs.elki.algorithm.clustering.gdbscan.NeighborPredicate" target="_parent">
<polygon fill="none" stroke="#000000" points="50,0 50,-28 129,-28 129,0 50,0"/>
<text text-anchor="start" x="68" y="-17.6" font-family="Roboto" font-size="8.00" fill="#000000"> «interface» </text>
<text text-anchor="start" x="54" y="-7.6" font-family="Roboto" font-size="8.00" fill="#000000"> </text>
<text text-anchor="start" x="57" y="-7.6" font-family="Roboto" font-size="8.00" fill="#000000">NeighborPredicate</text>
<text text-anchor="start" x="122" y="-7.6" font-family="Roboto" font-size="8.00" fill="#000000"> </text>
</a>
</g>
</a>
</g>
</g>
<!-- c2177627&#45;&gt;c2177619 -->
<g id="edge2" class="edge">
<title>c2177627&#45;&gt;c2177619</title>
<path fill="none" stroke="#000000" stroke-dasharray="5,2" d="M138.9164,-14C157.0486,-14 177.585,-14 195.9388,-14"/>
<polygon fill="none" stroke="#000000" points="138.8372,-10.5001 128.8371,-14 138.8371,-17.5001 138.8372,-10.5001"/>
</g>
</g>
</svg>
