<?xml version="1.0" encoding="UTF-8" standalone="no"?>
<!DOCTYPE svg PUBLIC "-//W3C//DTD SVG 1.1//EN"
 "http://www.w3.org/Graphics/SVG/1.1/DTD/svg11.dtd">
<!-- Generated by graphviz version 2.40.1 (20161225.0304)
 -->
<!-- Title: G Pages: 1 -->
<svg width="453pt" height="227pt"
 viewBox="0.00 0.00 453.00 226.50" xmlns="http://www.w3.org/2000/svg" xmlns:xlink="http://www.w3.org/1999/xlink">
<g id="graph0" class="graph" transform="scale(1 1) rotate(0) translate(4 222.5)">
<title>G</title>
<polygon fill="#ffffff" stroke="transparent" points="-4,4 -4,-222.5 449,-222.5 449,4 -4,4"/>
<!-- c4658502 -->
<g id="node1" class="node">
<title>c4658502</title>
<g id="a_node1"><a xlink:href="../correlation/FourC.html" xlink:title="&lt;TABLE&gt;">
<g id="a_node1_0"><a xlink:href="../correlation/FourC.html" xlink:title="de.lmu.ifi.dbs.elki.algorithm.clustering.correlation.FourC" target="_parent">
<polygon fill="none" stroke="#000000" points="267,-156 267,-184 445,-184 445,-156 267,-156"/>
<text text-anchor="start" x="342" y="-174.6" font-family="Roboto" font-size="8.00" fill="#000000"> </text>
<text text-anchor="start" x="345" y="-174.6" font-family="Roboto" font-size="8.00" fill="#000000">FourC</text>
<text text-anchor="start" x="367" y="-174.6" font-family="Roboto" font-size="8.00" fill="#000000"> </text>
<text text-anchor="start" x="271" y="-163.6" font-family="Roboto" font-size="8.00" fill="#000000"> </text>
<text text-anchor="start" x="274" y="-163.6" font-family="Roboto" font-size="7.00" fill="#000000">de.lmu.ifi.dbs.elki.algorithm.clustering.correlation</text>
<text text-anchor="start" x="438" y="-163.6" font-family="Roboto" font-size="8.00" fill="#000000"> </text>
</a>
</g>
</a>
</g>
</g>
<!-- c4658668 -->
<g id="node2" class="node">
<title>c4658668</title>
<g id="a_node2"><a xlink:href="../ClusteringAlgorithm.html" xlink:title="&lt;TABLE&gt;">
<g id="a_node2_1"><a xlink:href="../ClusteringAlgorithm.html" xlink:title="de.lmu.ifi.dbs.elki.algorithm.clustering.ClusteringAlgorithm" target="_parent">
<polygon fill="none" stroke="#000000" points=".5,-179 .5,-218 141.5,-218 141.5,-179 .5,-179"/>
<text text-anchor="start" x="49.5" y="-207.6" font-family="Roboto" font-size="8.00" fill="#000000"> «interface» </text>
<text text-anchor="start" x="32.5" y="-197.6" font-family="Roboto" font-size="8.00" fill="#000000"> </text>
<text text-anchor="start" x="35.5" y="-197.6" font-family="Roboto" font-size="8.00" fill="#000000">ClusteringAlgorithm</text>
<text text-anchor="start" x="106.5" y="-197.6" font-family="Roboto" font-size="8.00" fill="#000000"> </text>
<text text-anchor="start" x="4.5" y="-186.6" font-family="Roboto" font-size="8.00" fill="#000000"> </text>
<text text-anchor="start" x="7.5" y="-186.6" font-family="Roboto" font-size="7.00" fill="#000000">de.lmu.ifi.dbs.elki.algorithm.clustering</text>
<text text-anchor="start" x="134.5" y="-186.6" font-family="Roboto" font-size="8.00" fill="#000000"> </text>
<polygon fill="none" stroke="#000000" points=".5,-162 .5,-179 141.5,-179 141.5,-162 .5,-162"/>
<text text-anchor="start" x="4.5" y="-168.6" font-family="Roboto" font-size="8.00" fill="#000000"> &#160;</text>
<polygon fill="none" stroke="#000000" points=".5,-145 .5,-162 141.5,-162 141.5,-145 .5,-145"/>
<text text-anchor="start" x="4.5" y="-152.6" font-family="Roboto" font-size="8.00" fill="#000000"> </text>
<text text-anchor="start" x="7.5" y="-152.6" font-family="Roboto" font-style="italic" font-size="8.00" fill="#000000"> run()</text>
<text text-anchor="start" x="28.5" y="-152.6" font-family="Roboto" font-size="8.00" fill="#000000"> </text>
</a>
</g>
</a>
</g>
</g>
<!-- c4658729 -->
<g id="node5" class="node">
<title>c4658729</title>
<g id="a_node5"><a xlink:href="GeneralizedDBSCAN.html" xlink:title="&lt;TABLE&gt;">
<g id="a_node5_2"><a xlink:href="GeneralizedDBSCAN.html" xlink:title="de.lmu.ifi.dbs.elki.algorithm.clustering.gdbscan.GeneralizedDBSCAN" target="_parent">
<polygon fill="#fffacd" stroke="transparent" points="159,-83.5 159,-100.5 249,-100.5 249,-83.5 159,-83.5"/>
<polygon fill="none" stroke="#000000" points="159,-83 159,-100 249,-100 249,-83 159,-83"/>
<text text-anchor="start" x="163" y="-90.6" font-family="Roboto" font-size="8.00" fill="#000000"> </text>
<text text-anchor="start" x="166" y="-90.6" font-family="Roboto" font-size="8.00" fill="#000000">GeneralizedDBSCAN</text>
<text text-anchor="start" x="242" y="-90.6" font-family="Roboto" font-size="8.00" fill="#000000"> </text>
</a>
</g>
</a>
</g>
</g>
<!-- c4658668&#45;&gt;c4658729 -->
<g id="edge4" class="edge">
<title>c4658668&#45;&gt;c4658729</title>
<path fill="none" stroke="#000000" stroke-dasharray="5,2" d="M139.8373,-139.7836C140.2264,-139.5221 140.614,-139.2609 141,-139 159.7679,-126.316 180.6859,-110.3194 193.0742,-100.6395"/>
<polygon fill="none" stroke="#000000" points="137.9053,-136.865 131.4874,-145.2949 141.7614,-142.7072 137.9053,-136.865"/>
</g>
<!-- c4658681 -->
<g id="node3" class="node">
<title>c4658681</title>
<g id="a_node3"><a xlink:href="../subspace/PreDeCon.html" xlink:title="&lt;TABLE&gt;">
<g id="a_node3_3"><a xlink:href="../subspace/PreDeCon.html" xlink:title="de.lmu.ifi.dbs.elki.algorithm.clustering.subspace.PreDeCon" target="_parent">
<polygon fill="none" stroke="#000000" points="270,-117 270,-145 443,-145 443,-117 270,-117"/>
<text text-anchor="start" x="336" y="-135.6" font-family="Roboto" font-size="8.00" fill="#000000"> </text>
<text text-anchor="start" x="339" y="-135.6" font-family="Roboto" font-size="8.00" fill="#000000">PreDeCon</text>
<text text-anchor="start" x="374" y="-135.6" font-family="Roboto" font-size="8.00" fill="#000000"> </text>
<text text-anchor="start" x="274" y="-124.6" font-family="Roboto" font-size="8.00" fill="#000000"> </text>
<text text-anchor="start" x="277" y="-124.6" font-family="Roboto" font-size="7.00" fill="#000000">de.lmu.ifi.dbs.elki.algorithm.clustering.subspace</text>
<text text-anchor="start" x="436" y="-124.6" font-family="Roboto" font-size="8.00" fill="#000000"> </text>
</a>
</g>
</a>
</g>
</g>
<!-- c4658727 -->
<g id="node4" class="node">
<title>c4658727</title>
<g id="a_node4"><a xlink:href="NeighborPredicate.html" xlink:title="&lt;TABLE&gt;">
<g id="a_node4_4"><a xlink:href="NeighborPredicate.html" xlink:title="de.lmu.ifi.dbs.elki.algorithm.clustering.gdbscan.NeighborPredicate" target="_parent">
<polygon fill="none" stroke="#000000" points="317,-78 317,-106 396,-106 396,-78 317,-78"/>
<text text-anchor="start" x="335" y="-95.6" font-family="Roboto" font-size="8.00" fill="#000000"> «interface» </text>
<text text-anchor="start" x="321" y="-85.6" font-family="Roboto" font-size="8.00" fill="#000000"> </text>
<text text-anchor="start" x="324" y="-85.6" font-family="Roboto" font-size="8.00" fill="#000000">NeighborPredicate</text>
<text text-anchor="start" x="389" y="-85.6" font-family="Roboto" font-size="8.00" fill="#000000"> </text>
</a>
</g>
</a>
</g>
</g>
<!-- c4658729&#45;&gt;c4658502 -->
<g id="edge1" class="edge">
<title>c4658729&#45;&gt;c4658502</title>
<path fill="none" stroke="#000000" d="M217.3765,-108.8059C229.0434,-122.297 247.1713,-140.6398 267,-151 270.5008,-152.8291 274.1667,-154.4822 277.9319,-155.9762"/>
<polygon fill="none" stroke="#000000" points="219.7777,-106.2198 210.6897,-100.7737 214.3979,-110.6984 219.7777,-106.2198"/>
</g>
<!-- c4658729&#45;&gt;c4658681 -->
<g id="edge2" class="edge">
<title>c4658729&#45;&gt;c4658681</title>
<path fill="none" stroke="#000000" d="M238.5759,-103.6409C247.7626,-106.5511 257.713,-109.5408 267,-112 273.4147,-113.6986 280.1202,-115.3513 286.8483,-116.9274"/>
<polygon fill="none" stroke="#000000" points="239.5662,-100.2828 228.9746,-100.5431 237.4167,-106.9447 239.5662,-100.2828"/>
</g>
<!-- c4658729&#45;&gt;c4658727 -->
<g id="edge6" class="edge">
<title>c4658729&#45;&gt;c4658727</title>
<path fill="none" stroke="#000000" d="M261.2959,-92C279.6632,-92 299.5845,-92 316.3956,-92"/>
<polygon fill="#000000" stroke="#000000" points="261.1935,-92.0001 255.1934,-96 249.1935,-92 255.1935,-88 261.1935,-92.0001"/>
</g>
<!-- c4658742 -->
<g id="node6" class="node">
<title>c4658742</title>
<g id="a_node6"><a xlink:href="CorePredicate.html" xlink:title="&lt;TABLE&gt;">
<g id="a_node6_5"><a xlink:href="CorePredicate.html" xlink:title="de.lmu.ifi.dbs.elki.algorithm.clustering.gdbscan.CorePredicate" target="_parent">
<polygon fill="none" stroke="#000000" points="325,-39 325,-67 388,-67 388,-39 325,-39"/>
<text text-anchor="start" x="335" y="-56.6" font-family="Roboto" font-size="8.00" fill="#000000"> «interface» </text>
<text text-anchor="start" x="329" y="-46.6" font-family="Roboto" font-size="8.00" fill="#000000"> </text>
<text text-anchor="start" x="332" y="-46.6" font-family="Roboto" font-size="8.00" fill="#000000">CorePredicate</text>
<text text-anchor="start" x="381" y="-46.6" font-family="Roboto" font-size="8.00" fill="#000000"> </text>
</a>
</g>
</a>
</g>
</g>
<!-- c4658729&#45;&gt;c4658742 -->
<g id="edge5" class="edge">
<title>c4658729&#45;&gt;c4658742</title>
<path fill="none" stroke="#000000" d="M240.6403,-79.7079C249.2409,-77.0066 258.4046,-74.2761 267,-72 285.786,-67.0254 307.0655,-62.4449 324.1056,-59.0282"/>
<polygon fill="#000000" stroke="#000000" points="240.3991,-79.7853 235.9107,-85.4293 228.9746,-83.4569 233.463,-77.8129 240.3991,-79.7853"/>
</g>
<!-- c4660954 -->
<g id="node8" class="node">
<title>c4660954</title>
<g id="a_node8"><a xlink:href="../uncertain/FDBSCAN.html" xlink:title="&lt;TABLE&gt;">
<g id="a_node8_6"><a xlink:href="../uncertain/FDBSCAN.html" xlink:title="de.lmu.ifi.dbs.elki.algorithm.clustering.uncertain.FDBSCAN" target="_parent">
<polygon fill="none" stroke="#000000" points="269,0 269,-28 443,-28 443,0 269,0"/>
<text text-anchor="start" x="334.5" y="-18.6" font-family="Roboto" font-size="8.00" fill="#000000"> </text>
<text text-anchor="start" x="337.5" y="-18.6" font-family="Roboto" font-size="8.00" fill="#000000">FDBSCAN</text>
<text text-anchor="start" x="374.5" y="-18.6" font-family="Roboto" font-size="8.00" fill="#000000"> </text>
<text text-anchor="start" x="273" y="-7.6" font-family="Roboto" font-size="8.00" fill="#000000"> </text>
<text text-anchor="start" x="276" y="-7.6" font-family="Roboto" font-size="7.00" fill="#000000">de.lmu.ifi.dbs.elki.algorithm.clustering.uncertain</text>
<text text-anchor="start" x="436" y="-7.6" font-family="Roboto" font-size="8.00" fill="#000000"> </text>
</a>
</g>
</a>
</g>
</g>
<!-- c4658729&#45;&gt;c4660954 -->
<g id="edge7" class="edge">
<title>c4658729&#45;&gt;c4660954</title>
<path fill="none" stroke="#000000" d="M217.3765,-75.1941C229.0434,-61.703 247.1713,-43.3602 267,-33 270.5008,-31.1709 274.1667,-29.5178 277.9319,-28.0238"/>
<polygon fill="none" stroke="#000000" points="214.3979,-73.3016 210.6897,-83.2263 219.7777,-77.7802 214.3979,-73.3016"/>
</g>
<!-- c4658949 -->
<g id="node7" class="node">
<title>c4658949</title>
<g id="a_node7"><a xlink:href="../../AbstractAlgorithm.html" xlink:title="&lt;TABLE&gt;">
<g id="a_node7_7"><a xlink:href="../../AbstractAlgorithm.html" xlink:title="de.lmu.ifi.dbs.elki.algorithm.AbstractAlgorithm" target="_parent">
<polygon fill="#fffacd" stroke="transparent" points="18,-50 18,-134 123,-134 123,-50 18,-50"/>
<polygon fill="none" stroke="#000000" points="18.5,-106 18.5,-134 123.5,-134 123.5,-106 18.5,-106"/>
<text text-anchor="start" x="35.5" y="-124.6" font-family="Roboto" font-size="8.00" fill="#000000"> </text>
<text text-anchor="start" x="38.5" y="-124.6" font-family="Roboto" font-style="italic" font-size="8.00" fill="#000000">AbstractAlgorithm</text>
<text text-anchor="start" x="103.5" y="-124.6" font-family="Roboto" font-size="8.00" fill="#000000"> </text>
<text text-anchor="start" x="22.5" y="-113.6" font-family="Roboto" font-size="8.00" fill="#000000"> </text>
<text text-anchor="start" x="25.5" y="-113.6" font-family="Roboto" font-size="7.00" fill="#000000">de.lmu.ifi.dbs.elki.algorithm</text>
<text text-anchor="start" x="116.5" y="-113.6" font-family="Roboto" font-size="8.00" fill="#000000"> </text>
<polygon fill="none" stroke="#000000" points="18.5,-89 18.5,-106 123.5,-106 123.5,-89 18.5,-89"/>
<text text-anchor="start" x="22.5" y="-95.6" font-family="Roboto" font-size="8.00" fill="#000000"> &#160;</text>
<polygon fill="none" stroke="#000000" points="18.5,-50 18.5,-89 123.5,-89 123.5,-50 18.5,-50"/>
<text text-anchor="start" x="22.5" y="-78.6" font-family="Roboto" font-size="8.00" fill="#000000"> &#160;run() </text>
<text text-anchor="start" x="22.5" y="-68.6" font-family="Roboto" font-size="8.00" fill="#000000"> </text>
<text text-anchor="start" x="25.5" y="-68.6" font-family="Roboto" font-style="italic" font-size="8.00" fill="#000000"> getInputTypeRestriction()</text>
<text text-anchor="start" x="116.5" y="-68.6" font-family="Roboto" font-size="8.00" fill="#000000"> </text>
<text text-anchor="start" x="22.5" y="-57.6" font-family="Roboto" font-size="8.00" fill="#000000"> </text>
<text text-anchor="start" x="25.5" y="-57.6" font-family="Roboto" font-style="italic" font-size="8.00" fill="#000000"> getLogger()</text>
<text text-anchor="start" x="69.5" y="-57.6" font-family="Roboto" font-size="8.00" fill="#000000"> </text>
</a>
</g>
</a>
</g>
</g>
<!-- c4658949&#45;&gt;c4658729 -->
<g id="edge3" class="edge">
<title>c4658949&#45;&gt;c4658729</title>
<path fill="none" stroke="#000000" d="M133.3349,-92C141.9791,-92 150.7111,-92 158.9484,-92"/>
<polygon fill="none" stroke="#000000" points="133.2628,-88.5001 123.2627,-92 133.2627,-95.5001 133.2628,-88.5001"/>
</g>
</g>
</svg>
