<?xml version="1.0" encoding="UTF-8" standalone="no"?>
<!DOCTYPE svg PUBLIC "-//W3C//DTD SVG 1.1//EN"
 "http://www.w3.org/Graphics/SVG/1.1/DTD/svg11.dtd">
<!-- Generated by graphviz version 2.40.1 (20161225.0304)
 -->
<!-- Title: G Pages: 1 -->
<svg width="492pt" height="177pt"
 viewBox="0.00 0.00 492.00 176.50" xmlns="http://www.w3.org/2000/svg" xmlns:xlink="http://www.w3.org/1999/xlink">
<g id="graph0" class="graph" transform="scale(1 1) rotate(0) translate(4 172.5)">
<title>G</title>
<polygon fill="#ffffff" stroke="transparent" points="-4,4 -4,-172.5 488,-172.5 488,4 -4,4"/>
<!-- c7309255 -->
<g id="node1" class="node">
<title>c7309255</title>
<g id="a_node1"><a xlink:href="EpsilonNeighborPredicate.html" xlink:title="&lt;TABLE&gt;">
<g id="a_node1_0"><a xlink:href="EpsilonNeighborPredicate.html" xlink:title="de.lmu.ifi.dbs.elki.algorithm.clustering.gdbscan.EpsilonNeighborPredicate" target="_parent">
<polygon fill="none" stroke="#000000" points="345,-151 345,-168 450,-168 450,-151 345,-151"/>
<text text-anchor="start" x="349" y="-158.6" font-family="Roboto" font-size="8.00" fill="#000000"> </text>
<text text-anchor="start" x="352" y="-158.6" font-family="Roboto" font-size="8.00" fill="#000000">EpsilonNeighborPredicate</text>
<text text-anchor="start" x="443" y="-158.6" font-family="Roboto" font-size="8.00" fill="#000000"> </text>
</a>
</g>
</a>
</g>
</g>
<!-- c7309258 -->
<g id="node2" class="node">
<title>c7309258</title>
<g id="a_node2"><a xlink:href="SimilarityNeighborPredicate.html" xlink:title="&lt;TABLE&gt;">
<g id="a_node2_1"><a xlink:href="SimilarityNeighborPredicate.html" xlink:title="de.lmu.ifi.dbs.elki.algorithm.clustering.gdbscan.SimilarityNeighborPredicate" target="_parent">
<polygon fill="none" stroke="#000000" points="341,-123 341,-140 454,-140 454,-123 341,-123"/>
<text text-anchor="start" x="345" y="-130.6" font-family="Roboto" font-size="8.00" fill="#000000"> </text>
<text text-anchor="start" x="348" y="-130.6" font-family="Roboto" font-size="8.00" fill="#000000">SimilarityNeighborPredicate</text>
<text text-anchor="start" x="447" y="-130.6" font-family="Roboto" font-size="8.00" fill="#000000"> </text>
</a>
</g>
</a>
</g>
</g>
<!-- c7309269 -->
<g id="node3" class="node">
<title>c7309269</title>
<g id="a_node3"><a xlink:href="parallel/ParallelGeneralizedDBSCAN.html" xlink:title="&lt;TABLE&gt;">
<g id="a_node3_2"><a xlink:href="parallel/ParallelGeneralizedDBSCAN.html" xlink:title="de.lmu.ifi.dbs.elki.algorithm.clustering.gdbscan.parallel.ParallelGeneralizedDBSCAN" target="_parent">
<polygon fill="#fffacd" stroke="transparent" points="0,-93 0,-121 195,-121 195,-93 0,-93"/>
<polygon fill="none" stroke="#000000" points=".5,-93 .5,-121 195.5,-121 195.5,-93 .5,-93"/>
<text text-anchor="start" x="43.5" y="-111.6" font-family="Roboto" font-size="8.00" fill="#000000"> </text>
<text text-anchor="start" x="46.5" y="-111.6" font-family="Roboto" font-size="8.00" fill="#000000">ParallelGeneralizedDBSCAN</text>
<text text-anchor="start" x="149.5" y="-111.6" font-family="Roboto" font-size="8.00" fill="#000000"> </text>
<text text-anchor="start" x="4.5" y="-100.6" font-family="Roboto" font-size="8.00" fill="#000000"> </text>
<text text-anchor="start" x="7.5" y="-100.6" font-family="Roboto" font-size="7.00" fill="#000000">de.lmu.ifi.dbs.elki.algorithm.clustering.gdbscan.parallel</text>
<text text-anchor="start" x="188.5" y="-100.6" font-family="Roboto" font-size="8.00" fill="#000000"> </text>
</a>
</g>
</a>
</g>
</g>
<!-- c7309284 -->
<g id="node6" class="node">
<title>c7309284</title>
<g id="a_node6"><a xlink:href="NeighborPredicate.html" xlink:title="&lt;TABLE&gt;">
<g id="a_node6_3"><a xlink:href="NeighborPredicate.html" xlink:title="de.lmu.ifi.dbs.elki.algorithm.clustering.gdbscan.NeighborPredicate" target="_parent">
<polygon fill="#fffacd" stroke="transparent" points="213,-76 213,-104 292,-104 292,-76 213,-76"/>
<polygon fill="none" stroke="#000000" points="213.5,-76 213.5,-104 292.5,-104 292.5,-76 213.5,-76"/>
<text text-anchor="start" x="231.5" y="-93.6" font-family="Roboto" font-size="8.00" fill="#000000"> «interface» </text>
<text text-anchor="start" x="217.5" y="-83.6" font-family="Roboto" font-size="8.00" fill="#000000"> </text>
<text text-anchor="start" x="220.5" y="-83.6" font-family="Roboto" font-size="8.00" fill="#000000">NeighborPredicate</text>
<text text-anchor="start" x="285.5" y="-83.6" font-family="Roboto" font-size="8.00" fill="#000000"> </text>
</a>
</g>
</a>
</g>
</g>
<!-- c7309269&#45;&gt;c7309284 -->
<g id="edge3" class="edge">
<title>c7309269&#45;&gt;c7309284</title>
<path fill="none" stroke="#000000" d="M207.3896,-94.9476C209.179,-94.7513 210.9403,-94.5582 212.6686,-94.3686"/>
<polygon fill="#000000" stroke="#000000" points="207.1526,-94.9735 201.6245,-99.6038 195.2241,-96.2819 200.7522,-91.6515 207.1526,-94.9735"/>
</g>
<!-- c7309273 -->
<g id="node4" class="node">
<title>c7309273</title>
<g id="a_node4"><a xlink:href="ERiCNeighborPredicate.html" xlink:title="&lt;TABLE&gt;">
<g id="a_node4_4"><a xlink:href="ERiCNeighborPredicate.html" xlink:title="de.lmu.ifi.dbs.elki.algorithm.clustering.gdbscan.ERiCNeighborPredicate" target="_parent">
<polygon fill="none" stroke="#000000" points="349,-95 349,-112 445,-112 445,-95 349,-95"/>
<text text-anchor="start" x="353" y="-102.6" font-family="Roboto" font-size="8.00" fill="#000000"> </text>
<text text-anchor="start" x="356" y="-102.6" font-family="Roboto" font-size="8.00" fill="#000000">ERiCNeighborPredicate</text>
<text text-anchor="start" x="438" y="-102.6" font-family="Roboto" font-size="8.00" fill="#000000"> </text>
</a>
</g>
</a>
</g>
</g>
<!-- c7309276 -->
<g id="node5" class="node">
<title>c7309276</title>
<g id="a_node5"><a xlink:href="COPACNeighborPredicate.html" xlink:title="&lt;TABLE&gt;">
<g id="a_node5_5"><a xlink:href="COPACNeighborPredicate.html" xlink:title="de.lmu.ifi.dbs.elki.algorithm.clustering.gdbscan.COPACNeighborPredicate" target="_parent">
<polygon fill="none" stroke="#000000" points="345,-67 345,-84 450,-84 450,-67 345,-67"/>
<text text-anchor="start" x="349" y="-74.6" font-family="Roboto" font-size="8.00" fill="#000000"> </text>
<text text-anchor="start" x="352" y="-74.6" font-family="Roboto" font-size="8.00" fill="#000000">COPACNeighborPredicate</text>
<text text-anchor="start" x="443" y="-74.6" font-family="Roboto" font-size="8.00" fill="#000000"> </text>
</a>
</g>
</a>
</g>
</g>
<!-- c7309284&#45;&gt;c7309255 -->
<g id="edge1" class="edge">
<title>c7309284&#45;&gt;c7309255</title>
<path fill="none" stroke="#000000" stroke-dasharray="5,2" d="M269.405,-112.114C279.7877,-124.0836 294.1189,-138.0153 310,-146 320.5245,-151.2915 332.5887,-154.6664 344.3142,-156.7989"/>
<polygon fill="none" stroke="#000000" points="271.9534,-109.704 262.8773,-104.2381 266.5639,-114.1709 271.9534,-109.704"/>
</g>
<!-- c7309284&#45;&gt;c7309258 -->
<g id="edge2" class="edge">
<title>c7309284&#45;&gt;c7309258</title>
<path fill="none" stroke="#000000" stroke-dasharray="5,2" d="M286.2866,-108.4828C293.9145,-112.0777 302.0975,-115.5003 310,-118 319.6269,-121.0451 330.0725,-123.4506 340.2749,-125.3439"/>
<polygon fill="none" stroke="#000000" points="287.8311,-105.342 277.3137,-104.063 284.7379,-111.6216 287.8311,-105.342"/>
</g>
<!-- c7309284&#45;&gt;c7309273 -->
<g id="edge4" class="edge">
<title>c7309284&#45;&gt;c7309273</title>
<path fill="none" stroke="#000000" stroke-dasharray="5,2" d="M302.4878,-94.8431C317.4854,-96.2962 333.9014,-97.8866 348.7824,-99.3284"/>
<polygon fill="none" stroke="#000000" points="302.6587,-91.3434 292.3678,-93.8626 301.9836,-98.3107 302.6587,-91.3434"/>
</g>
<!-- c7309284&#45;&gt;c7309276 -->
<g id="edge5" class="edge">
<title>c7309284&#45;&gt;c7309276</title>
<path fill="none" stroke="#000000" stroke-dasharray="5,2" d="M302.4382,-85.1617C315.9481,-83.8528 330.6121,-82.432 344.27,-81.1088"/>
<polygon fill="none" stroke="#000000" points="301.9836,-81.6893 292.3678,-86.1374 302.6587,-88.6566 301.9836,-81.6893"/>
</g>
<!-- c7309296 -->
<g id="node8" class="node">
<title>c7309296</title>
<g id="a_node8"><a xlink:href="AbstractRangeQueryNeighborPredicate.html" xlink:title="&lt;TABLE&gt;">
<g id="a_node8_6"><a xlink:href="AbstractRangeQueryNeighborPredicate.html" xlink:title="de.lmu.ifi.dbs.elki.algorithm.clustering.gdbscan.AbstractRangeQueryNeighborPredicate" target="_parent">
<polygon fill="none" stroke="#000000" points="322,-39 322,-56 473,-56 473,-39 322,-39"/>
<text text-anchor="start" x="326" y="-46.6" font-family="Roboto" font-size="8.00" fill="#000000"> </text>
<text text-anchor="start" x="329" y="-46.6" font-family="Roboto" font-style="italic" font-size="8.00" fill="#000000">AbstractRangeQueryNeighborPredicate</text>
<text text-anchor="start" x="466" y="-46.6" font-family="Roboto" font-size="8.00" fill="#000000"> </text>
</a>
</g>
</a>
</g>
</g>
<!-- c7309284&#45;&gt;c7309296 -->
<g id="edge7" class="edge">
<title>c7309284&#45;&gt;c7309296</title>
<path fill="none" stroke="#000000" stroke-dasharray="5,2" d="M286.2866,-71.5172C293.9145,-67.9223 302.0975,-64.4997 310,-62 316.7096,-59.8777 323.817,-58.066 330.9626,-56.5219"/>
<polygon fill="none" stroke="#000000" points="284.7379,-68.3784 277.3137,-75.937 287.8311,-74.658 284.7379,-68.3784"/>
</g>
<!-- c7311519 -->
<g id="node9" class="node">
<title>c7311519</title>
<g id="a_node9"><a xlink:href="../uncertain/FDBSCANNeighborPredicate.html" xlink:title="&lt;TABLE&gt;">
<g id="a_node9_7"><a xlink:href="../uncertain/FDBSCANNeighborPredicate.html" xlink:title="de.lmu.ifi.dbs.elki.algorithm.clustering.uncertain.FDBSCANNeighborPredicate" target="_parent">
<polygon fill="none" stroke="#000000" points="310,0 310,-28 484,-28 484,0 310,0"/>
<text text-anchor="start" x="343" y="-18.6" font-family="Roboto" font-size="8.00" fill="#000000"> </text>
<text text-anchor="start" x="346" y="-18.6" font-family="Roboto" font-size="8.00" fill="#000000">FDBSCANNeighborPredicate</text>
<text text-anchor="start" x="448" y="-18.6" font-family="Roboto" font-size="8.00" fill="#000000"> </text>
<text text-anchor="start" x="314" y="-7.6" font-family="Roboto" font-size="8.00" fill="#000000"> </text>
<text text-anchor="start" x="317" y="-7.6" font-family="Roboto" font-size="7.00" fill="#000000">de.lmu.ifi.dbs.elki.algorithm.clustering.uncertain</text>
<text text-anchor="start" x="477" y="-7.6" font-family="Roboto" font-size="8.00" fill="#000000"> </text>
</a>
</g>
</a>
</g>
</g>
<!-- c7309284&#45;&gt;c7311519 -->
<g id="edge8" class="edge">
<title>c7309284&#45;&gt;c7311519</title>
<path fill="none" stroke="#000000" stroke-dasharray="5,2" d="M269.8119,-68.0543C280.2451,-56.2637 294.4921,-42.4533 310,-34 314.0823,-31.7747 318.4026,-29.7964 322.8491,-28.0376"/>
<polygon fill="none" stroke="#000000" points="267.036,-65.916 263.2297,-75.8036 272.3712,-70.4477 267.036,-65.916"/>
</g>
<!-- c7309286 -->
<g id="node7" class="node">
<title>c7309286</title>
<g id="a_node7"><a xlink:href="GeneralizedDBSCAN.html" xlink:title="&lt;TABLE&gt;">
<g id="a_node7_8"><a xlink:href="GeneralizedDBSCAN.html" xlink:title="de.lmu.ifi.dbs.elki.algorithm.clustering.gdbscan.GeneralizedDBSCAN" target="_parent">
<polygon fill="#fffacd" stroke="transparent" points="52.5,-64.5 52.5,-81.5 142.5,-81.5 142.5,-64.5 52.5,-64.5"/>
<polygon fill="none" stroke="#000000" points="52.5,-64 52.5,-81 142.5,-81 142.5,-64 52.5,-64"/>
<text text-anchor="start" x="56.5" y="-71.6" font-family="Roboto" font-size="8.00" fill="#000000"> </text>
<text text-anchor="start" x="59.5" y="-71.6" font-family="Roboto" font-size="8.00" fill="#000000">GeneralizedDBSCAN</text>
<text text-anchor="start" x="135.5" y="-71.6" font-family="Roboto" font-size="8.00" fill="#000000"> </text>
</a>
</g>
</a>
</g>
</g>
<!-- c7309286&#45;&gt;c7309284 -->
<g id="edge6" class="edge">
<title>c7309286&#45;&gt;c7309284</title>
<path fill="none" stroke="#000000" d="M154.8311,-79.2879C174.1795,-81.41 195.3305,-83.7298 212.9867,-85.6663"/>
<polygon fill="#000000" stroke="#000000" points="154.6776,-79.2712 148.2772,-82.5931 142.7491,-77.9628 149.1494,-74.6408 154.6776,-79.2712"/>
</g>
</g>
</svg>
