<?xml version="1.0" encoding="UTF-8" standalone="no"?>
<!DOCTYPE svg PUBLIC "-//W3C//DTD SVG 1.1//EN"
 "http://www.w3.org/Graphics/SVG/1.1/DTD/svg11.dtd">
<!-- Generated by graphviz version 2.40.1 (20161225.0304)
 -->
<!-- Title: G Pages: 1 -->
<svg width="443pt" height="47pt"
 viewBox="0.00 0.00 443.00 47.00" xmlns="http://www.w3.org/2000/svg" xmlns:xlink="http://www.w3.org/1999/xlink">
<g id="graph0" class="graph" transform="scale(1 1) rotate(0) translate(4 43)">
<title>G</title>
<polygon fill="#ffffff" stroke="transparent" points="-4,4 -4,-43 439,-43 439,4 -4,4"/>
<!-- c8287647 -->
<g id="node1" class="node">
<title>c8287647</title>
<g id="a_node1"><a xlink:href="PreDeConNeighborPredicate.html" xlink:title="&lt;TABLE&gt;">
<g id="a_node1_0"><a xlink:href="PreDeConNeighborPredicate.html" xlink:title="de.lmu.ifi.dbs.elki.algorithm.clustering.gdbscan.PreDeConNeighborPredicate" target="_parent">
<polygon fill="none" stroke="#000000" points="0,-10.5 0,-27.5 114,-27.5 114,-10.5 0,-10.5"/>
<text text-anchor="start" x="4" y="-18.1" font-family="Roboto" font-size="8.00" fill="#000000"> </text>
<text text-anchor="start" x="7" y="-18.1" font-family="Roboto" font-size="8.00" fill="#000000">PreDeConNeighborPredicate</text>
<text text-anchor="start" x="107" y="-18.1" font-family="Roboto" font-size="8.00" fill="#000000"> </text>
</a>
</g>
</a>
</g>
</g>
<!-- c8287648 -->
<g id="node2" class="node">
<title>c8287648</title>
<g id="a_node2"><a xlink:href="PreDeConNeighborPredicate.PreDeConModel.html" xlink:title="&lt;TABLE&gt;">
<g id="a_node2_1"><a xlink:href="PreDeConNeighborPredicate.PreDeConModel.html" xlink:title="de.lmu.ifi.dbs.elki.algorithm.clustering.gdbscan.PreDeConNeighborPredicate.PreDeConModel" target="_parent">
<polygon fill="#fffacd" stroke="transparent" points="132,-11 132,-28 304,-28 304,-11 132,-11"/>
<polygon fill="none" stroke="#000000" points="132,-10.5 132,-27.5 304,-27.5 304,-10.5 132,-10.5"/>
<text text-anchor="start" x="136" y="-18.1" font-family="Roboto" font-size="8.00" fill="#000000"> </text>
<text text-anchor="start" x="139" y="-18.1" font-family="Roboto" font-size="8.00" fill="#000000">PreDeConNeighborPredicate.PreDeConModel</text>
<text text-anchor="start" x="297" y="-18.1" font-family="Roboto" font-size="8.00" fill="#000000"> </text>
</a>
</g>
</a>
</g>
</g>
<!-- c8287647&#45;&gt;c8287648 -->
<g id="edge1" class="edge">
<title>c8287647&#45;&gt;c8287648</title>
<path fill="none" stroke="#000000" d="M114.2159,-19.5C116.7466,-19.5 119.3109,-19.5 121.8976,-19.5"/>
<polygon fill="#000000" stroke="#000000" points="131.9617,-19.5 121.9617,-24.0001 126.9617,-19.5 121.9617,-19.5001 121.9617,-19.5001 121.9617,-19.5001 126.9617,-19.5 121.9616,-15.0001 131.9617,-19.5 131.9617,-19.5"/>
</g>
<!-- c8287983 -->
<g id="node3" class="node">
<title>c8287983</title>
<g id="a_node3"><a xlink:href="../../../database/ids/SetDBIDs.html" xlink:title="&lt;TABLE&gt;">
<g id="a_node3_2"><a xlink:href="../../../database/ids/SetDBIDs.html" xlink:title="de.lmu.ifi.dbs.elki.database.ids.SetDBIDs" target="_parent">
<polygon fill="none" stroke="#000000" points="322.5,.5 322.5,-38.5 435.5,-38.5 435.5,.5 322.5,.5"/>
<text text-anchor="start" x="357.5" y="-28.1" font-family="Roboto" font-size="8.00" fill="#000000"> «interface» </text>
<text text-anchor="start" x="359" y="-18.1" font-family="Roboto" font-size="8.00" fill="#000000"> </text>
<text text-anchor="start" x="362" y="-18.1" font-family="Roboto" font-size="8.00" fill="#000000">SetDBIDs</text>
<text text-anchor="start" x="396" y="-18.1" font-family="Roboto" font-size="8.00" fill="#000000"> </text>
<text text-anchor="start" x="326.5" y="-7.1" font-family="Roboto" font-size="8.00" fill="#000000"> </text>
<text text-anchor="start" x="329.5" y="-7.1" font-family="Roboto" font-size="7.00" fill="#000000">de.lmu.ifi.dbs.elki.database.ids</text>
<text text-anchor="start" x="428.5" y="-7.1" font-family="Roboto" font-size="8.00" fill="#000000"> </text>
</a>
</g>
</a>
</g>
</g>
<!-- c8287648&#45;&gt;c8287983 -->
<g id="edge2" class="edge">
<title>c8287648&#45;&gt;c8287983</title>
<path fill="none" stroke="#000000" d="M304.3575,-19.5C306.8617,-19.5 309.3579,-19.5 311.8363,-19.5"/>
<polygon fill="#000000" stroke="#000000" points="321.8996,-19.5 311.8996,-24.0001 316.8996,-19.5 311.8996,-19.5001 311.8996,-19.5001 311.8996,-19.5001 316.8996,-19.5 311.8995,-15.0001 321.8996,-19.5 321.8996,-19.5"/>
</g>
</g>
</svg>
