<?xml version="1.0" encoding="UTF-8" standalone="no"?><svg xmlns="http://www.w3.org/2000/svg" xmlns:xlink="http://www.w3.org/1999/xlink" contentStyleType="text/css" height="323px" preserveAspectRatio="none" style="width:387px;height:323px;background:#FFFFFF;" version="1.1" viewBox="0 0 387 323" width="387px" zoomAndPan="magnify"><defs/><g><!--MD5=[04b3e0bc58c0e598bb41e84923f6486b]
class elki.parallel.processor.WriteDataStoreProcessor--><a href="WriteDataStoreProcessor.html" target="_top" title="WriteDataStoreProcessor.html" xlink:actuate="onRequest" xlink:href="WriteDataStoreProcessor.html" xlink:show="new" xlink:title="WriteDataStoreProcessor.html" xlink:type="simple"><g id="elem_elki.parallel.processor.WriteDataStoreProcessor"><rect codeLine="6" fill="#F1F1F1" height="151.7188" id="elki.parallel.processor.WriteDataStoreProcessor" rx="2.5" ry="2.5" style="stroke:#181818;stroke-width:0.5;" width="367" x="9" y="146"/><ellipse cx="95.75" cy="164.9688" fill="#ADD1B2" rx="11" ry="11" style="stroke:#181818;stroke-width:1.0;"/><path d="M98.7188,170.6094 Q98.1406,170.9063 97.5,171.0469 Q96.8594,171.2031 96.1563,171.2031 Q93.6563,171.2031 92.3281,169.5625 Q91.0156,167.9063 91.0156,164.7813 Q91.0156,161.6563 92.3281,160 Q93.6563,158.3438 96.1563,158.3438 Q96.8594,158.3438 97.5,158.5 Q98.1563,158.6563 98.7188,158.9531 L98.7188,161.6719 Q98.0938,161.0938 97.5,160.8281 Q96.9063,160.5469 96.2813,160.5469 Q94.9375,160.5469 94.25,161.625 Q93.5625,162.6875 93.5625,164.7813 Q93.5625,166.875 94.25,167.9531 Q94.9375,169.0156 96.2813,169.0156 Q96.9063,169.0156 97.5,168.75 Q98.0938,168.4688 98.7188,167.8906 L98.7188,170.6094 Z " fill="#000000"/><text fill="#000000" font-family="sans-serif" font-size="14" lengthAdjust="spacing" textLength="174" x="116.25" y="163.9951">WriteDataStoreProcessor</text><text fill="#000000" font-family="sans-serif" font-size="10" lengthAdjust="spacing" textLength="102" x="152.25" y="176.5791">elki.parallel.processor</text><rect fill="#FFFFFF" height="15.9688" style="stroke:#181818;stroke-width:1.0;stroke-dasharray:2.0,2.0;" width="9" x="370" y="143"/><text fill="#000000" font-family="sans-serif" font-size="12" font-style="italic" lengthAdjust="spacing" textLength="7" x="371" y="155.1387">T</text><line style="stroke:#181818;stroke-width:0.5;" x1="10" x2="375" y1="183.9375" y2="183.9375"/><polygon fill="none" points="20,193.5859,16,199.5859,24,199.5859" style="stroke:#1963A0;stroke-width:1.0;"/><text fill="#000000" font-family="sans-serif" font-size="14" lengthAdjust="spacing" textLength="202" x="29" y="200.9326">store: WritableDataStore&lt;T&gt;</text><polygon fill="none" points="20,209.8828,16,215.8828,24,215.8828" style="stroke:#1963A0;stroke-width:1.0;"/><text fill="#000000" font-family="sans-serif" font-size="14" lengthAdjust="spacing" textLength="171" x="29" y="217.2295">input: SharedObject&lt;T&gt;</text><line style="stroke:#181818;stroke-width:0.5;" x1="10" x2="375" y1="224.5313" y2="224.5313"/><ellipse cx="20" cy="238.1797" fill="#84BE84" rx="3" ry="3" style="stroke:#038048;stroke-width:1.0;"/><text fill="#000000" font-family="sans-serif" font-size="14" lengthAdjust="spacing" textLength="341" x="29" y="241.5264">WriteDataStoreProcessor(WritableDataStore&lt;T&gt;)</text><ellipse cx="20" cy="254.4766" fill="#84BE84" rx="3" ry="3" style="stroke:#038048;stroke-width:1.0;"/><text fill="#000000" font-family="sans-serif" font-size="14" lengthAdjust="spacing" textLength="266" x="29" y="257.8232">connectInput(SharedObject&lt;T&gt;): void</text><ellipse cx="20" cy="270.7734" fill="#84BE84" rx="3" ry="3" style="stroke:#038048;stroke-width:1.0;"/><text fill="#000000" font-family="sans-serif" font-size="14" lengthAdjust="spacing" textLength="211" x="29" y="274.1201">instantiate(Executor): Instance</text><ellipse cx="20" cy="287.0703" fill="#84BE84" rx="3" ry="3" style="stroke:#038048;stroke-width:1.0;"/><text fill="#000000" font-family="sans-serif" font-size="14" lengthAdjust="spacing" textLength="161" x="29" y="290.417">cleanup(Instance): void</text></g></a><!--MD5=[719923b03e71ed1cee0f12ce46dc978a]
class elki.parallel.processor.Processor--><a href="Processor.html" target="_top" title="Processor.html" xlink:actuate="onRequest" xlink:href="Processor.html" xlink:show="new" xlink:title="Processor.html" xlink:type="simple"><g id="elem_elki.parallel.processor.Processor"><rect codeLine="15" fill="#F1F1F1" height="78.5313" id="elki.parallel.processor.Processor" rx="2.5" ry="2.5" style="stroke:#181818;stroke-width:0.5;" width="242" x="71.5" y="7"/><ellipse cx="133.75" cy="25.9688" fill="#B4A7E5" rx="11" ry="11" style="stroke:#181818;stroke-width:1.0;"/><path d="M129.6719,21.7344 L129.6719,19.5781 L137.0625,19.5781 L137.0625,21.7344 L134.5938,21.7344 L134.5938,29.8125 L137.0625,29.8125 L137.0625,31.9688 L129.6719,31.9688 L129.6719,29.8125 L132.1406,29.8125 L132.1406,21.7344 L129.6719,21.7344 Z " fill="#000000"/><text fill="#000000" font-family="sans-serif" font-size="14" font-style="italic" lengthAdjust="spacing" textLength="67" x="175.25" y="24.9951">Processor</text><text fill="#000000" font-family="sans-serif" font-size="10" font-style="italic" lengthAdjust="spacing" textLength="109" x="154.25" y="37.5791">elki.parallel.processor</text><line style="stroke:#181818;stroke-width:0.5;" x1="72.5" x2="312.5" y1="44.9375" y2="44.9375"/><ellipse cx="82.5" cy="58.5859" fill="#84BE84" rx="3" ry="3" style="stroke:#038048;stroke-width:1.0;"/><text fill="#000000" font-family="sans-serif" font-size="14" font-style="italic" lengthAdjust="spacing" textLength="216" x="91.5" y="61.9326">instantiate(Executor): Instance</text><ellipse cx="82.5" cy="74.8828" fill="#84BE84" rx="3" ry="3" style="stroke:#038048;stroke-width:1.0;"/><text fill="#000000" font-family="sans-serif" font-size="14" font-style="italic" lengthAdjust="spacing" textLength="166" x="91.5" y="78.2295">cleanup(Instance): void</text></g></a><!--MD5=[49d105751452e71ce91ad6a3b40d955a]
reverse link elki.parallel.processor.Processor to elki.parallel.processor.WriteDataStoreProcessor--><g id="link_elki.parallel.processor.Processor_elki.parallel.processor.WriteDataStoreProcessor"><path codeLine="21" d="M192.5,106.35 C192.5,119.07 192.5,132.69 192.5,145.94 " fill="none" id="elki.parallel.processor.Processor-backto-elki.parallel.processor.WriteDataStoreProcessor" style="stroke:#181818;stroke-width:1.0;stroke-dasharray:7.0,7.0;"/><polygon fill="none" points="185.5,106.01,192.5,86.01,199.5,106.01,185.5,106.01" style="stroke:#181818;stroke-width:1.0;"/></g><rect fill="none" height="11.6406" style="stroke:none;stroke-width:1.0;" width="186" x="93.5" y="303.7188"/><text fill="#888888" font-family="sans-serif" font-size="10" lengthAdjust="spacing" textLength="186" x="93.5" y="313.001">UMLDoclet 2.0.19, PlantUML 1.2022.8</text><!--MD5=[ebf576896c5e1d89b9e770db14575227]
@startuml
    remove .*\.(Instance|Par|Parameterizer|Factory)$
    set namespaceSeparator none
    hide empty fields
    hide empty methods

    class "<size:14>WriteDataStoreProcessor\n<size:10>elki.parallel.processor" as elki.parallel.processor.WriteDataStoreProcessor<T> [[WriteDataStoreProcessor.html]] {
        ~store: WritableDataStore<T>
        ~input: SharedObject<T>
        +WriteDataStoreProcessor(WritableDataStore<T>)
        +connectInput(SharedObject<T>): void
        +instantiate(Executor): Instance
        +cleanup(Instance): void
    }

    interface "<size:14>Processor\n<size:10>elki.parallel.processor" as elki.parallel.processor.Processor [[Processor.html]] {
        {abstract} +instantiate(Executor): Instance
        {abstract} +cleanup(Instance): void
    }
    class "<size:14>WriteDataStoreProcessor.Instance\n<size:10>elki.parallel.processor" as elki.parallel.processor.WriteDataStoreProcessor.Instance [[WriteDataStoreProcessor.Instance.html]]

    elki.parallel.processor.Processor <|.. elki.parallel.processor.WriteDataStoreProcessor
    elki.parallel.processor.WriteDataStoreProcessor +- - elki.parallel.processor.WriteDataStoreProcessor.Instance

    center footer UMLDoclet 2.0.19, PlantUML 1.2022.8
@enduml

PlantUML version 1.2022.8(Sun Sep 25 11:00:33 CEST 2022)
(APACHE source distribution)
Java Runtime: OpenJDK Runtime Environment
JVM: OpenJDK 64-Bit Server VM
Default Encoding: UTF-8
Language: de
Country: DE
--></g></svg>