<?xml version="1.0" encoding="UTF-8" standalone="no"?><svg xmlns="http://www.w3.org/2000/svg" xmlns:xlink="http://www.w3.org/1999/xlink" contentStyleType="text/css" height="257px" preserveAspectRatio="none" style="width:507px;height:257px;background:#FFFFFF;" version="1.1" viewBox="0 0 507 257" width="507px" zoomAndPan="magnify"><defs/><g><!--MD5=[6472f3ae0a4faea0822cdf0f8265d488]
class elki.outlier.spatial.neighborhood.PrecomputedKNearestNeighborNeighborhood--><a href="PrecomputedKNearestNeighborNeighborhood.html" target="_top" title="PrecomputedKNearestNeighborNeighborhood.html" xlink:actuate="onRequest" xlink:href="PrecomputedKNearestNeighborNeighborhood.html" xlink:show="new" xlink:title="PrecomputedKNearestNeighborNeighborhood.html" xlink:type="simple"><g id="elem_elki.outlier.spatial.neighborhood.PrecomputedKNearestNeighborNeighborhood"><rect codeLine="6" fill="#F1F1F1" height="102.8281" id="elki.outlier.spatial.neighborhood.PrecomputedKNearestNeighborNeighborhood" rx="2.5" ry="2.5" style="stroke:#181818;stroke-width:0.5;" width="491" x="9" y="129"/><ellipse cx="90.75" cy="147.9688" fill="#ADD1B2" rx="11" ry="11" style="stroke:#181818;stroke-width:1.0;"/><path d="M93.7188,153.6094 Q93.1406,153.9063 92.5,154.0469 Q91.8594,154.2031 91.1563,154.2031 Q88.6563,154.2031 87.3281,152.5625 Q86.0156,150.9063 86.0156,147.7813 Q86.0156,144.6563 87.3281,143 Q88.6563,141.3438 91.1563,141.3438 Q91.8594,141.3438 92.5,141.5 Q93.1563,141.6563 93.7188,141.9531 L93.7188,144.6719 Q93.0938,144.0938 92.5,143.8281 Q91.9063,143.5469 91.2813,143.5469 Q89.9375,143.5469 89.25,144.625 Q88.5625,145.6875 88.5625,147.7813 Q88.5625,149.875 89.25,150.9531 Q89.9375,152.0156 91.2813,152.0156 Q91.9063,152.0156 92.5,151.75 Q93.0938,151.4688 93.7188,150.8906 L93.7188,153.6094 Z " fill="#000000"/><text fill="#000000" font-family="sans-serif" font-size="14" lengthAdjust="spacing" textLength="319" x="111.25" y="146.9951">PrecomputedKNearestNeighborNeighborhood</text><text fill="#000000" font-family="sans-serif" font-size="10" lengthAdjust="spacing" textLength="151" x="195.25" y="159.5791">elki.outlier.spatial.neighborhood</text><line style="stroke:#181818;stroke-width:0.5;" x1="10" x2="499" y1="166.9375" y2="166.9375"/><rect fill="none" height="6" style="stroke:#C82930;stroke-width:1.0;" width="6" x="17" y="177.5859"/><text fill="#000000" font-family="sans-serif" font-size="14" lengthAdjust="spacing" text-decoration="underline" textLength="93" x="29" y="183.9326">LOG: Logging</text><line style="stroke:#181818;stroke-width:0.5;" x1="10" x2="499" y1="191.2344" y2="191.2344"/><ellipse cx="20" cy="204.8828" fill="#84BE84" rx="3" ry="3" style="stroke:#038048;stroke-width:1.0;"/><text fill="#000000" font-family="sans-serif" font-size="14" lengthAdjust="spacing" textLength="465" x="29" y="208.2295">PrecomputedKNearestNeighborNeighborhood(DataStore&lt;DBIDs&gt;)</text><polygon fill="#FFFF44" points="20,216.1797,24,220.1797,20,224.1797,16,220.1797" style="stroke:#B38D22;stroke-width:1.0;"/><text fill="#000000" font-family="sans-serif" font-size="14" lengthAdjust="spacing" textLength="145" x="29" y="224.5264">getLogger(): Logging</text></g></a><!--MD5=[3a436871fc7db8ba1cbd859b6fee1b6f]
class elki.outlier.spatial.neighborhood.AbstractPrecomputedNeighborhood--><a href="AbstractPrecomputedNeighborhood.html" target="_top" title="AbstractPrecomputedNeighborhood.html" xlink:actuate="onRequest" xlink:href="AbstractPrecomputedNeighborhood.html" xlink:show="new" xlink:title="AbstractPrecomputedNeighborhood.html" xlink:type="simple"><g id="elem_elki.outlier.spatial.neighborhood.AbstractPrecomputedNeighborhood"><rect codeLine="12" fill="#F1F1F1" height="62.2344" id="elki.outlier.spatial.neighborhood.AbstractPrecomputedNeighborhood" rx="2.5" ry="2.5" style="stroke:#181818;stroke-width:0.5;" width="285" x="112" y="7"/><ellipse cx="127" cy="25.9688" fill="#A9DCDF" rx="11" ry="11" style="stroke:#181818;stroke-width:1.0;"/><path d="M127.1094,21.3125 L125.9531,26.3906 L128.2813,26.3906 L127.1094,21.3125 Z M125.625,19.0781 L128.6094,19.0781 L131.9688,31.4688 L129.5156,31.4688 L128.75,28.4063 L125.4688,28.4063 L124.7188,31.4688 L122.2813,31.4688 L125.625,19.0781 Z " fill="#000000"/><text fill="#000000" font-family="sans-serif" font-size="14" font-style="italic" lengthAdjust="spacing" textLength="253" x="141" y="24.9951">AbstractPrecomputedNeighborhood</text><text fill="#000000" font-family="sans-serif" font-size="10" font-style="italic" lengthAdjust="spacing" textLength="159" x="188" y="37.5791">elki.outlier.spatial.neighborhood</text><line style="stroke:#181818;stroke-width:0.5;" x1="113" x2="396" y1="44.9375" y2="44.9375"/><polygon fill="#FFFF44" points="123,53.5859,127,57.5859,123,61.5859,119,57.5859" style="stroke:#B38D22;stroke-width:1.0;"/><text fill="#000000" font-family="sans-serif" font-size="14" font-style="italic" lengthAdjust="spacing" textLength="148" x="132" y="61.9326">getLogger(): Logging</text></g></a><!--MD5=[d9bd00343cd7fda655d7eac904a28581]
reverse link elki.outlier.spatial.neighborhood.AbstractPrecomputedNeighborhood to elki.outlier.spatial.neighborhood.PrecomputedKNearestNeighborNeighborhood--><g id="link_elki.outlier.spatial.neighborhood.AbstractPrecomputedNeighborhood_elki.outlier.spatial.neighborhood.PrecomputedKNearestNeighborNeighborhood"><path codeLine="17" d="M254.5,89.5 C254.5,102.33 254.5,116.12 254.5,128.96 " fill="none" id="elki.outlier.spatial.neighborhood.AbstractPrecomputedNeighborhood-backto-elki.outlier.spatial.neighborhood.PrecomputedKNearestNeighborNeighborhood" style="stroke:#181818;stroke-width:1.0;"/><polygon fill="none" points="247.5,89.14,254.5,69.14,261.5,89.14,247.5,89.14" style="stroke:#181818;stroke-width:1.0;"/></g><rect fill="none" height="11.6406" style="stroke:none;stroke-width:1.0;" width="186" x="153.5" y="237.8281"/><text fill="#888888" font-family="sans-serif" font-size="10" lengthAdjust="spacing" textLength="186" x="153.5" y="247.1104">UMLDoclet 2.0.19, PlantUML 1.2022.8</text><!--MD5=[a53850b0a3f7b03dca00025d40f07453]
@startuml
    remove .*\.(Instance|Par|Parameterizer|Factory)$
    set namespaceSeparator none
    hide empty fields
    hide empty methods

    class "<size:14>PrecomputedKNearestNeighborNeighborhood\n<size:10>elki.outlier.spatial.neighborhood" as elki.outlier.spatial.neighborhood.PrecomputedKNearestNeighborNeighborhood [[PrecomputedKNearestNeighborNeighborhood.html]] {
        {static} -LOG: Logging
        +PrecomputedKNearestNeighborNeighborhood(DataStore<DBIDs>)
        #getLogger(): Logging
    }

    abstract class "<size:14>AbstractPrecomputedNeighborhood\n<size:10>elki.outlier.spatial.neighborhood" as elki.outlier.spatial.neighborhood.AbstractPrecomputedNeighborhood [[AbstractPrecomputedNeighborhood.html]] {
        {abstract} #getLogger(): Logging
    }
    class "<size:14>PrecomputedKNearestNeighborNeighborhood.Factory\n<size:10>elki.outlier.spatial.neighborhood" as elki.outlier.spatial.neighborhood.PrecomputedKNearestNeighborNeighborhood.Factory<O> [[PrecomputedKNearestNeighborNeighborhood.Factory.html]]

    elki.outlier.spatial.neighborhood.AbstractPrecomputedNeighborhood <|- - elki.outlier.spatial.neighborhood.PrecomputedKNearestNeighborNeighborhood
    elki.outlier.spatial.neighborhood.PrecomputedKNearestNeighborNeighborhood +- - elki.outlier.spatial.neighborhood.PrecomputedKNearestNeighborNeighborhood.Factory

    center footer UMLDoclet 2.0.19, PlantUML 1.2022.8
@enduml

PlantUML version 1.2022.8(Sun Sep 25 11:00:33 CEST 2022)
(APACHE source distribution)
Java Runtime: OpenJDK Runtime Environment
JVM: OpenJDK 64-Bit Server VM
Default Encoding: UTF-8
Language: de
Country: DE
--></g></svg>