<?xml version="1.0" encoding="UTF-8" standalone="no"?>
<!DOCTYPE svg PUBLIC "-//W3C//DTD SVG 1.1//EN"
 "http://www.w3.org/Graphics/SVG/1.1/DTD/svg11.dtd">
<!-- Generated by graphviz version 2.40.1 (20161225.0304)
 -->
<!-- Title: G Pages: 1 -->
<svg width="421pt" height="47pt"
 viewBox="0.00 0.00 421.00 47.00" xmlns="http://www.w3.org/2000/svg" xmlns:xlink="http://www.w3.org/1999/xlink">
<g id="graph0" class="graph" transform="scale(1 1) rotate(0) translate(4 43)">
<title>G</title>
<polygon fill="#ffffff" stroke="transparent" points="-4,4 -4,-43 417,-43 417,4 -4,4"/>
<!-- c1178260 -->
<g id="node1" class="node">
<title>c1178260</title>
<g id="a_node1"><a xlink:href="../MTreeEntry.html" xlink:title="&lt;TABLE&gt;">
<g id="a_node1_0"><a xlink:href="../MTreeEntry.html" xlink:title="de.lmu.ifi.dbs.elki.index.tree.metrical.mtreevariants.MTreeEntry" target="_parent">
<polygon fill="none" stroke="#000000" points="230.5,.5 230.5,-38.5 413.5,-38.5 413.5,.5 230.5,.5"/>
<text text-anchor="start" x="300.5" y="-28.1" font-family="Roboto" font-size="8.00" fill="#000000"> «interface» </text>
<text text-anchor="start" x="298" y="-18.1" font-family="Roboto" font-size="8.00" fill="#000000"> </text>
<text text-anchor="start" x="301" y="-18.1" font-family="Roboto" font-size="8.00" fill="#000000">MTreeEntry</text>
<text text-anchor="start" x="343" y="-18.1" font-family="Roboto" font-size="8.00" fill="#000000"> </text>
<text text-anchor="start" x="234.5" y="-7.1" font-family="Roboto" font-size="8.00" fill="#000000"> </text>
<text text-anchor="start" x="237.5" y="-7.1" font-family="Roboto" font-size="7.00" fill="#000000">de.lmu.ifi.dbs.elki.index.tree.metrical.mtreevariants</text>
<text text-anchor="start" x="406.5" y="-7.1" font-family="Roboto" font-size="8.00" fill="#000000"> </text>
</a>
</g>
</a>
</g>
</g>
<!-- c1178339 -->
<g id="node2" class="node">
<title>c1178339</title>
<g id="a_node2"><a xlink:href="../AbstractMTreeNode.html" xlink:title="&lt;TABLE&gt;">
<g id="a_node2_1"><a xlink:href="../AbstractMTreeNode.html" xlink:title="de.lmu.ifi.dbs.elki.index.tree.metrical.mtreevariants.AbstractMTreeNode" target="_parent">
<polygon fill="none" stroke="#000000" points=".5,-5.5 .5,-33.5 183.5,-33.5 183.5,-5.5 .5,-5.5"/>
<text text-anchor="start" x="54" y="-24.1" font-family="Roboto" font-size="8.00" fill="#000000"> </text>
<text text-anchor="start" x="57" y="-24.1" font-family="Roboto" font-style="italic" font-size="8.00" fill="#000000">AbstractMTreeNode</text>
<text text-anchor="start" x="127" y="-24.1" font-family="Roboto" font-size="8.00" fill="#000000"> </text>
<text text-anchor="start" x="4.5" y="-13.1" font-family="Roboto" font-size="8.00" fill="#000000"> </text>
<text text-anchor="start" x="7.5" y="-13.1" font-family="Roboto" font-size="7.00" fill="#000000">de.lmu.ifi.dbs.elki.index.tree.metrical.mtreevariants</text>
<text text-anchor="start" x="176.5" y="-13.1" font-family="Roboto" font-size="8.00" fill="#000000"> </text>
</a>
</g>
</a>
</g>
</g>
<!-- c1178339&#45;&gt;c1178260 -->
<g id="edge1" class="edge">
<title>c1178339&#45;&gt;c1178260</title>
<path fill="none" stroke="#000000" d="M195.0773,-19.5C203.2354,-19.5 211.4709,-19.5 219.6175,-19.5"/>
<polygon fill="none" stroke="#000000" points="195.063,-19.5001 189.0629,-23.5 183.063,-19.5 189.063,-15.5 195.063,-19.5001"/>
<polygon fill="#000000" stroke="#000000" points="229.8763,-19.5 219.8764,-24.0001 224.8763,-19.5 219.8763,-19.5001 219.8763,-19.5001 219.8763,-19.5001 224.8763,-19.5 219.8763,-15.0001 229.8763,-19.5 229.8763,-19.5"/>
<text text-anchor="middle" x="206.5" y="-21.9" font-family="Roboto" font-size="7.00" fill="#000000">contains</text>
</g>
</g>
</svg>
