<?xml version="1.0" encoding="UTF-8" standalone="no"?><svg xmlns="http://www.w3.org/2000/svg" xmlns:xlink="http://www.w3.org/1999/xlink" contentStyleType="text/css" height="1228px" preserveAspectRatio="none" style="width:1534px;height:1228px;background:#FFFFFF;" version="1.1" viewBox="0 0 1534 1228" width="1534px" zoomAndPan="magnify"><defs/><g><!--MD5=[49b8f20aaa071a724fe1a68f61284271]
cluster elki.visualization.visualizers.thumbs--><g id="cluster_elki.visualization.visualizers.thumbs"><path d="M8.5,594 L291.5,594 A3.75,3.75 0 0 1 294,596.5 L301,616.2969 L1243.5,616.2969 A2.5,2.5 0 0 1 1246,618.7969 L1246,1200.5 A2.5,2.5 0 0 1 1243.5,1203 L8.5,1203 A2.5,2.5 0 0 1 6,1200.5 L6,596.5 A2.5,2.5 0 0 1 8.5,594 " fill="none" style="stroke:#000000;stroke-width:1.5;"/><line style="stroke:#000000;stroke-width:1.5;" x1="6" x2="301" y1="616.2969" y2="616.2969"/><text fill="#000000" font-family="sans-serif" font-size="14" font-weight="bold" lengthAdjust="spacing" textLength="282" x="10" y="608.9951">elki.visualization.visualizers.thumbs</text></g><!--MD5=[b7dcee99b15c750db49f82c8e7ad2f52]
cluster elki.visualization.visualizers--><g id="cluster_elki.visualization.visualizers"><path d="M11.5,177 L230.5,177 A3.75,3.75 0 0 1 233,179.5 L240,199.2969 L244.5,199.2969 A2.5,2.5 0 0 1 247,201.7969 L247,387.5 A2.5,2.5 0 0 1 244.5,390 L11.5,390 A2.5,2.5 0 0 1 9,387.5 L9,179.5 A2.5,2.5 0 0 1 11.5,177 " fill="none" style="stroke:#000000;stroke-width:1.5;"/><line style="stroke:#000000;stroke-width:1.5;" x1="9" x2="240" y1="199.2969" y2="199.2969"/><text fill="#000000" font-family="sans-serif" font-size="14" font-weight="bold" lengthAdjust="spacing" textLength="218" x="13" y="191.9951">elki.visualization.visualizers</text></g><!--MD5=[c89e124e458aaaa4e23a54ee33d86be6]
cluster elki.database.datastore--><g id="cluster_elki.database.datastore"><path d="M273.5,226 L459.5,226 A3.75,3.75 0 0 1 462,228.5 L469,248.2969 L604.5,248.2969 A2.5,2.5 0 0 1 607,250.7969 L607,338.5 A2.5,2.5 0 0 1 604.5,341 L273.5,341 A2.5,2.5 0 0 1 271,338.5 L271,228.5 A2.5,2.5 0 0 1 273.5,226 " fill="none" style="stroke:#000000;stroke-width:1.5;"/><line style="stroke:#000000;stroke-width:1.5;" x1="271" x2="469" y1="248.2969" y2="248.2969"/><text fill="#000000" font-family="sans-serif" font-size="14" font-weight="bold" lengthAdjust="spacing" textLength="185" x="275" y="240.9951">elki.database.datastore</text></g><!--MD5=[0951ab2b90911d8f30d278100c9bcc4a]
cluster elki.visualization--><g id="cluster_elki.visualization"><path d="M633.5,226 L763.5,226 A3.75,3.75 0 0 1 766,228.5 L773,248.2969 L1010.5,248.2969 A2.5,2.5 0 0 1 1013,250.7969 L1013,338.5 A2.5,2.5 0 0 1 1010.5,341 L633.5,341 A2.5,2.5 0 0 1 631,338.5 L631,228.5 A2.5,2.5 0 0 1 633.5,226 " fill="none" style="stroke:#000000;stroke-width:1.5;"/><line style="stroke:#000000;stroke-width:1.5;" x1="631" x2="773" y1="248.2969" y2="248.2969"/><text fill="#000000" font-family="sans-serif" font-size="14" font-weight="bold" lengthAdjust="spacing" textLength="129" x="635" y="240.9951">elki.visualization</text></g><!--MD5=[aa8f7b917213fcc1c2766e2d59b49067]
cluster java.lang--><g id="cluster_java.lang"><path d="M1039.5,6 L1109.5,6 A3.75,3.75 0 0 1 1112,8.5 L1119,28.2969 L1524.5,28.2969 A2.5,2.5 0 0 1 1527,30.7969 L1527,558.5 A2.5,2.5 0 0 1 1524.5,561 L1039.5,561 A2.5,2.5 0 0 1 1037,558.5 L1037,8.5 A2.5,2.5 0 0 1 1039.5,6 " fill="none" style="stroke:#000000;stroke-width:1.5;"/><line style="stroke:#000000;stroke-width:1.5;" x1="1037" x2="1119" y1="28.2969" y2="28.2969"/><text fill="#000000" font-family="sans-serif" font-size="14" font-weight="bold" lengthAdjust="spacing" textLength="69" x="1041" y="20.9951">java.lang</text></g><!--MD5=[e35135a07348687f7bd8afe6e48cbb63]
class elki.visualization.visualizers.thumbs.ThumbnailVisualization--><a href="ThumbnailVisualization.html" target="_top" title="ThumbnailVisualization.html" xlink:actuate="onRequest" xlink:href="ThumbnailVisualization.html" xlink:show="new" xlink:title="ThumbnailVisualization.html" xlink:type="simple"><g id="elem_elki.visualization.visualizers.thumbs.ThumbnailVisualization"><rect codeLine="4" fill="#F1F1F1" height="276.1563" id="elki.visualization.visualizers.thumbs.ThumbnailVisualization" rx="2.5" ry="2.5" style="stroke:#181818;stroke-width:0.5;" width="849" x="22.5" y="629"/><ellipse cx="364.25" cy="645" fill="#ADD1B2" rx="11" ry="11" style="stroke:#181818;stroke-width:1.0;"/><path d="M367.2188,650.6406 Q366.6406,650.9375 366,651.0781 Q365.3594,651.2344 364.6563,651.2344 Q362.1563,651.2344 360.8281,649.5938 Q359.5156,647.9375 359.5156,644.8125 Q359.5156,641.6875 360.8281,640.0313 Q362.1563,638.375 364.6563,638.375 Q365.3594,638.375 366,638.5313 Q366.6563,638.6875 367.2188,638.9844 L367.2188,641.7031 Q366.5938,641.125 366,640.8594 Q365.4063,640.5781 364.7813,640.5781 Q363.4375,640.5781 362.75,641.6563 Q362.0625,642.7188 362.0625,644.8125 Q362.0625,646.9063 362.75,647.9844 Q363.4375,649.0469 364.7813,649.0469 Q365.4063,649.0469 366,648.7813 Q366.5938,648.5 367.2188,647.9219 L367.2188,650.6406 Z " fill="#000000"/><text fill="#000000" font-family="sans-serif" font-size="14" lengthAdjust="spacing" textLength="157" x="384.75" y="649.8467">ThumbnailVisualization</text><line style="stroke:#181818;stroke-width:0.5;" x1="23.5" x2="870.5" y1="661" y2="661"/><polygon fill="none" points="33.5,669.6484,37.5,673.6484,33.5,677.6484,29.5,673.6484" style="stroke:#B38D22;stroke-width:1.0;"/><text fill="#000000" font-family="sans-serif" font-size="14" lengthAdjust="spacing" textLength="147" x="42.5" y="677.9951">visFactory: VisFactory</text><polygon fill="none" points="33.5,685.9453,37.5,689.9453,33.5,693.9453,29.5,689.9453" style="stroke:#B38D22;stroke-width:1.0;"/><text fill="#000000" font-family="sans-serif" font-size="14" lengthAdjust="spacing" textLength="83" x="42.5" y="694.292">thumbid: int</text><polygon fill="none" points="33.5,702.2422,37.5,706.2422,33.5,710.2422,29.5,706.2422" style="stroke:#B38D22;stroke-width:1.0;"/><text fill="#000000" font-family="sans-serif" font-size="14" lengthAdjust="spacing" textLength="100" x="42.5" y="710.5889">tresolution: int</text><rect fill="none" height="6" style="stroke:#C82930;stroke-width:1.0;" width="6" x="30.5" y="720.5391"/><text fill="#000000" font-family="sans-serif" font-size="14" lengthAdjust="spacing" textLength="155" x="42.5" y="726.8857">thumb: BufferedImage</text><rect fill="none" height="6" style="stroke:#C82930;stroke-width:1.0;" width="6" x="30.5" y="736.8359"/><text fill="#000000" font-family="sans-serif" font-size="14" lengthAdjust="spacing" textLength="90" x="42.5" y="743.1826">plot: SVGPlot</text><rect fill="none" height="6" style="stroke:#C82930;stroke-width:1.0;" width="6" x="30.5" y="753.1328"/><text fill="#000000" font-family="sans-serif" font-size="14" lengthAdjust="spacing" textLength="104" x="42.5" y="759.4795">proj: Projection</text><line style="stroke:#181818;stroke-width:0.5;" x1="23.5" x2="870.5" y1="766.7813" y2="766.7813"/><ellipse cx="33.5" cy="780.4297" fill="#84BE84" rx="3" ry="3" style="stroke:#038048;stroke-width:1.0;"/><text fill="#000000" font-family="sans-serif" font-size="14" lengthAdjust="spacing" textLength="823" x="42.5" y="783.7764">ThumbnailVisualization(VisualizerContext, VisFactory, VisualizationTask, VisualizationPlot, double, double, Projection, int)</text><ellipse cx="33.5" cy="796.7266" fill="#84BE84" rx="3" ry="3" style="stroke:#038048;stroke-width:1.0;"/><text fill="#000000" font-family="sans-serif" font-size="14" lengthAdjust="spacing" textLength="99" x="42.5" y="800.0732">destroy(): void</text><ellipse cx="33.5" cy="813.0234" fill="#84BE84" rx="3" ry="3" style="stroke:#038048;stroke-width:1.0;"/><text fill="#000000" font-family="sans-serif" font-size="14" lengthAdjust="spacing" textLength="135" x="42.5" y="816.3701">getLayer(): Element</text><ellipse cx="33.5" cy="829.3203" fill="#84BE84" rx="3" ry="3" style="stroke:#038048;stroke-width:1.0;"/><text fill="#000000" font-family="sans-serif" font-size="14" lengthAdjust="spacing" textLength="118" x="42.5" y="832.667">fullRedraw(): void</text><ellipse cx="33.5" cy="845.6172" fill="#84BE84" rx="3" ry="3" style="stroke:#038048;stroke-width:1.0;"/><text fill="#000000" font-family="sans-serif" font-size="14" lengthAdjust="spacing" textLength="137" x="42.5" y="848.9639">doThumbnail(): void</text><rect fill="#F24D5C" height="6" style="stroke:#C82930;stroke-width:1.0;" width="6" x="30.5" y="858.9141"/><text fill="#000000" font-family="sans-serif" font-size="14" lengthAdjust="spacing" textLength="168" x="42.5" y="865.2607">refreshThumbnail(): void</text><ellipse cx="33.5" cy="878.2109" fill="#84BE84" rx="3" ry="3" style="stroke:#038048;stroke-width:1.0;"/><text fill="#000000" font-family="sans-serif" font-size="14" lengthAdjust="spacing" textLength="194" x="42.5" y="881.5576">resultChanged(Object): void</text><ellipse cx="33.5" cy="894.5078" fill="#84BE84" rx="3" ry="3" style="stroke:#038048;stroke-width:1.0;"/><text fill="#000000" font-family="sans-serif" font-size="14" lengthAdjust="spacing" textLength="308" x="42.5" y="897.8545">visualizationChanged(VisualizationItem): void</text></g></a><!--MD5=[963c33df343dd10b71f835cda35f44c8]
class elki.visualization.visualizers.thumbs.ThumbnailThread--><a href="ThumbnailThread.html" target="_top" title="ThumbnailThread.html" xlink:actuate="onRequest" xlink:href="ThumbnailThread.html" xlink:show="new" xlink:title="ThumbnailThread.html" xlink:type="simple"><g id="elem_elki.visualization.visualizers.thumbs.ThumbnailThread"><rect codeLine="21" fill="#F1F1F1" height="129.4844" id="elki.visualization.visualizers.thumbs.ThumbnailThread" rx="2.5" ry="2.5" style="stroke:#181818;stroke-width:0.5;" width="241" x="906.5" y="702.5"/><ellipse cx="962.25" cy="718.5" fill="#ADD1B2" rx="11" ry="11" style="stroke:#181818;stroke-width:1.0;"/><path d="M965.2188,724.1406 Q964.6406,724.4375 964,724.5781 Q963.3594,724.7344 962.6563,724.7344 Q960.1563,724.7344 958.8281,723.0938 Q957.5156,721.4375 957.5156,718.3125 Q957.5156,715.1875 958.8281,713.5313 Q960.1563,711.875 962.6563,711.875 Q963.3594,711.875 964,712.0313 Q964.6563,712.1875 965.2188,712.4844 L965.2188,715.2031 Q964.5938,714.625 964,714.3594 Q963.4063,714.0781 962.7813,714.0781 Q961.4375,714.0781 960.75,715.1563 Q960.0625,716.2188 960.0625,718.3125 Q960.0625,720.4063 960.75,721.4844 Q961.4375,722.5469 962.7813,722.5469 Q963.4063,722.5469 964,722.2813 Q964.5938,722 965.2188,721.4219 L965.2188,724.1406 Z " fill="#000000"/><text fill="#000000" font-family="sans-serif" font-size="14" lengthAdjust="spacing" textLength="121" x="982.75" y="723.3467">ThumbnailThread</text><line style="stroke:#181818;stroke-width:0.5;" x1="907.5" x2="1146.5" y1="734.5" y2="734.5"/><rect fill="none" height="6" style="stroke:#C82930;stroke-width:1.0;" width="6" x="914.5" y="745.1484"/><text fill="#000000" font-family="sans-serif" font-size="14" lengthAdjust="spacing" textLength="134" x="926.5" y="751.4951">shutdown: boolean</text><line style="stroke:#181818;stroke-width:0.5;" x1="907.5" x2="1146.5" y1="758.7969" y2="758.7969"/><ellipse cx="917.5" cy="772.4453" fill="#84BE84" rx="3" ry="3" style="stroke:#038048;stroke-width:1.0;"/><text fill="#000000" font-family="sans-serif" font-size="14" lengthAdjust="spacing" text-decoration="underline" textLength="152" x="926.5" y="775.792">queue(Listener): Task</text><ellipse cx="917.5" cy="788.7422" fill="#84BE84" rx="3" ry="3" style="stroke:#038048;stroke-width:1.0;"/><text fill="#000000" font-family="sans-serif" font-size="14" lengthAdjust="spacing" text-decoration="underline" textLength="143" x="926.5" y="792.0889">unqueue(Task): void</text><rect fill="#F24D5C" height="6" style="stroke:#C82930;stroke-width:1.0;" width="6" x="914.5" y="802.0391"/><text fill="#000000" font-family="sans-serif" font-size="14" lengthAdjust="spacing" textLength="215" x="926.5" y="808.3857">generateThumbnail(Task): void</text><ellipse cx="917.5" cy="821.3359" fill="#84BE84" rx="3" ry="3" style="stroke:#038048;stroke-width:1.0;"/><text fill="#000000" font-family="sans-serif" font-size="14" lengthAdjust="spacing" textLength="70" x="926.5" y="824.6826">run(): void</text></g></a><!--MD5=[b5ee93ee6ec9c90b67ed7b228862dc43]
class elki.visualization.visualizers.thumbs.ThumbnailThread.Task--><a href="ThumbnailThread.Task.html" target="_top" title="ThumbnailThread.Task.html" xlink:actuate="onRequest" xlink:href="ThumbnailThread.Task.html" xlink:show="new" xlink:title="ThumbnailThread.Task.html" xlink:type="simple"><g id="elem_elki.visualization.visualizers.thumbs.ThumbnailThread.Task"><rect codeLine="29" fill="#F1F1F1" height="64.2969" id="elki.visualization.visualizers.thumbs.ThumbnailThread.Task" rx="2.5" ry="2.5" style="stroke:#181818;stroke-width:0.5;" width="190" x="801" y="982"/><ellipse cx="816" cy="998" fill="#ADD1B2" rx="11" ry="11" style="stroke:#181818;stroke-width:1.0;"/><path d="M818.9688,1003.6406 Q818.3906,1003.9375 817.75,1004.0781 Q817.1094,1004.2344 816.4063,1004.2344 Q813.9063,1004.2344 812.5781,1002.5938 Q811.2656,1000.9375 811.2656,997.8125 Q811.2656,994.6875 812.5781,993.0313 Q813.9063,991.375 816.4063,991.375 Q817.1094,991.375 817.75,991.5313 Q818.4063,991.6875 818.9688,991.9844 L818.9688,994.7031 Q818.3438,994.125 817.75,993.8594 Q817.1563,993.5781 816.5313,993.5781 Q815.1875,993.5781 814.5,994.6563 Q813.8125,995.7188 813.8125,997.8125 Q813.8125,999.9063 814.5,1000.9844 Q815.1875,1002.0469 816.5313,1002.0469 Q817.1563,1002.0469 817.75,1001.7813 Q818.3438,1001.5 818.9688,1000.9219 L818.9688,1003.6406 Z " fill="#000000"/><text fill="#000000" font-family="sans-serif" font-size="14" lengthAdjust="spacing" textLength="158" x="830" y="1002.8467">ThumbnailThread.Task</text><line style="stroke:#181818;stroke-width:0.5;" x1="802" x2="990" y1="1014" y2="1014"/><line style="stroke:#181818;stroke-width:0.5;" x1="802" x2="990" y1="1022" y2="1022"/><ellipse cx="812" cy="1035.6484" fill="#84BE84" rx="3" ry="3" style="stroke:#038048;stroke-width:1.0;"/><text fill="#000000" font-family="sans-serif" font-size="14" lengthAdjust="spacing" textLength="98" x="821" y="1038.9951">Task(Listener)</text></g></a><!--MD5=[9068d3c3e5ab5c9922c51c5b0771f465]
class elki.visualization.visualizers.thumbs.ThumbnailThread.Listener--><a href="ThumbnailThread.Listener.html" target="_top" title="ThumbnailThread.Listener.html" xlink:actuate="onRequest" xlink:href="ThumbnailThread.Listener.html" xlink:show="new" xlink:title="ThumbnailThread.Listener.html" xlink:type="simple"><g id="elem_elki.visualization.visualizers.thumbs.ThumbnailThread.Listener"><rect codeLine="33" fill="#F1F1F1" height="64.2969" id="elki.visualization.visualizers.thumbs.ThumbnailThread.Listener" rx="2.5" ry="2.5" style="stroke:#181818;stroke-width:0.5;" width="218" x="787" y="1123"/><ellipse cx="802" cy="1139" fill="#B4A7E5" rx="11" ry="11" style="stroke:#181818;stroke-width:1.0;"/><path d="M797.9219,1134.7656 L797.9219,1132.6094 L805.3125,1132.6094 L805.3125,1134.7656 L802.8438,1134.7656 L802.8438,1142.8438 L805.3125,1142.8438 L805.3125,1145 L797.9219,1145 L797.9219,1142.8438 L800.3906,1142.8438 L800.3906,1134.7656 L797.9219,1134.7656 Z " fill="#000000"/><text fill="#000000" font-family="sans-serif" font-size="14" font-style="italic" lengthAdjust="spacing" textLength="186" x="816" y="1143.8467">ThumbnailThread.Listener</text><line style="stroke:#181818;stroke-width:0.5;" x1="788" x2="1004" y1="1155" y2="1155"/><line style="stroke:#181818;stroke-width:0.5;" x1="788" x2="1004" y1="1163" y2="1163"/><ellipse cx="798" cy="1176.6484" fill="#84BE84" rx="3" ry="3" style="stroke:#038048;stroke-width:1.0;"/><text fill="#000000" font-family="sans-serif" font-size="14" font-style="italic" lengthAdjust="spacing" textLength="143" x="807" y="1179.9951">doThumbnail(): void</text></g></a><!--MD5=[7b03e77d9dd7e61ac1f6975aca4577d2]
class elki.visualization.visualizers.AbstractVisualization--><a href="../AbstractVisualization.html" target="_top" title="../AbstractVisualization.html" xlink:actuate="onRequest" xlink:href="../AbstractVisualization.html" xlink:show="new" xlink:title="../AbstractVisualization.html" xlink:type="simple"><g id="elem_elki.visualization.visualizers.AbstractVisualization"><rect codeLine="51" fill="#F1F1F1" height="162.0781" id="elki.visualization.visualizers.AbstractVisualization" rx="2.5" ry="2.5" style="stroke:#181818;stroke-width:0.5;" width="206" x="25" y="212"/><ellipse cx="51.7" cy="228" fill="#A9DCDF" rx="11" ry="11" style="stroke:#181818;stroke-width:1.0;"/><path d="M51.8094,223.3438 L50.6531,228.4219 L52.9813,228.4219 L51.8094,223.3438 Z M50.325,221.1094 L53.3094,221.1094 L56.6688,233.5 L54.2156,233.5 L53.45,230.4375 L50.1688,230.4375 L49.4188,233.5 L46.9813,233.5 L50.325,221.1094 Z " fill="#000000"/><text fill="#000000" font-family="sans-serif" font-size="14" font-style="italic" lengthAdjust="spacing" textLength="148" x="68.3" y="232.8467">AbstractVisualization</text><line style="stroke:#181818;stroke-width:0.5;" x1="26" x2="230" y1="244" y2="244"/><polygon fill="none" points="36,252.6484,40,256.6484,36,260.6484,32,256.6484" style="stroke:#B38D22;stroke-width:1.0;"/><text fill="#000000" font-family="sans-serif" font-size="14" lengthAdjust="spacing" textLength="156" x="45" y="260.9951">task: VisualizationTask</text><polygon fill="none" points="36,268.9453,40,272.9453,36,276.9453,32,272.9453" style="stroke:#B38D22;stroke-width:1.0;"/><text fill="#000000" font-family="sans-serif" font-size="14" lengthAdjust="spacing" textLength="180" x="45" y="277.292">context: VisualizerContext</text><polygon fill="none" points="36,285.2422,40,289.2422,36,293.2422,32,289.2422" style="stroke:#B38D22;stroke-width:1.0;"/><text fill="#000000" font-family="sans-serif" font-size="14" lengthAdjust="spacing" textLength="153" x="45" y="293.5889">svgp: VisualizationPlot</text><polygon fill="none" points="36,301.5391,40,305.5391,36,309.5391,32,305.5391" style="stroke:#B38D22;stroke-width:1.0;"/><text fill="#000000" font-family="sans-serif" font-size="14" lengthAdjust="spacing" textLength="98" x="45" y="309.8857">layer: Element</text><rect fill="none" height="6" style="stroke:#C82930;stroke-width:1.0;" width="6" x="33" y="319.8359"/><text fill="#000000" font-family="sans-serif" font-size="14" lengthAdjust="spacing" textLength="94" x="45" y="326.1826">width: double</text><rect fill="none" height="6" style="stroke:#C82930;stroke-width:1.0;" width="6" x="33" y="336.1328"/><text fill="#000000" font-family="sans-serif" font-size="14" lengthAdjust="spacing" textLength="101" x="45" y="342.4795">height: double</text><line style="stroke:#181818;stroke-width:0.5;" x1="26" x2="230" y1="349.7813" y2="349.7813"/><ellipse cx="36" cy="363.4297" fill="#84BE84" rx="3" ry="3" style="stroke:#038048;stroke-width:1.0;"/><text fill="#000000" font-family="sans-serif" font-size="14" font-style="italic" lengthAdjust="spacing" textLength="124" x="45" y="366.7764">fullRedraw(): void</text></g></a><!--MD5=[8cace74366cfd75dded1cbbbff903427]
class elki.database.datastore.DataStoreListener--><a href="../../../database/datastore/DataStoreListener.html" target="_top" title="../../../database/datastore/DataStoreListener.html" xlink:actuate="onRequest" xlink:href="../../../database/datastore/DataStoreListener.html" xlink:show="new" xlink:title="../../../database/datastore/DataStoreListener.html" xlink:type="simple"><g id="elem_elki.database.datastore.DataStoreListener"><rect codeLine="63" fill="#F1F1F1" height="64.2969" id="elki.database.datastore.DataStoreListener" rx="2.5" ry="2.5" style="stroke:#181818;stroke-width:0.5;" width="304" x="287" y="261"/><ellipse cx="371.25" cy="277" fill="#B4A7E5" rx="11" ry="11" style="stroke:#181818;stroke-width:1.0;"/><path d="M367.1719,272.7656 L367.1719,270.6094 L374.5625,270.6094 L374.5625,272.7656 L372.0938,272.7656 L372.0938,280.8438 L374.5625,280.8438 L374.5625,283 L367.1719,283 L367.1719,280.8438 L369.6406,280.8438 L369.6406,272.7656 L367.1719,272.7656 Z " fill="#000000"/><text fill="#000000" font-family="sans-serif" font-size="14" font-style="italic" lengthAdjust="spacing" textLength="127" x="391.75" y="281.8467">DataStoreListener</text><line style="stroke:#181818;stroke-width:0.5;" x1="288" x2="590" y1="293" y2="293"/><line style="stroke:#181818;stroke-width:0.5;" x1="288" x2="590" y1="301" y2="301"/><ellipse cx="298" cy="314.6484" fill="#84BE84" rx="3" ry="3" style="stroke:#038048;stroke-width:1.0;"/><text fill="#000000" font-family="sans-serif" font-size="14" font-style="italic" lengthAdjust="spacing" textLength="278" x="307" y="317.9951">contentChanged(DataStoreEvent): void</text></g></a><!--MD5=[b223ed7d011924cfb678242597388aa1]
class elki.visualization.VisualizationListener--><a href="../../VisualizationListener.html" target="_top" title="../../VisualizationListener.html" xlink:actuate="onRequest" xlink:href="../../VisualizationListener.html" xlink:show="new" xlink:title="../../VisualizationListener.html" xlink:type="simple"><g id="elem_elki.visualization.VisualizationListener"><rect codeLine="69" fill="#F1F1F1" height="64.2969" id="elki.visualization.VisualizationListener" rx="2.5" ry="2.5" style="stroke:#181818;stroke-width:0.5;" width="349" x="647.5" y="261"/><ellipse cx="744.75" cy="277" fill="#B4A7E5" rx="11" ry="11" style="stroke:#181818;stroke-width:1.0;"/><path d="M740.6719,272.7656 L740.6719,270.6094 L748.0625,270.6094 L748.0625,272.7656 L745.5938,272.7656 L745.5938,280.8438 L748.0625,280.8438 L748.0625,283 L740.6719,283 L740.6719,280.8438 L743.1406,280.8438 L743.1406,272.7656 L740.6719,272.7656 Z " fill="#000000"/><text fill="#000000" font-family="sans-serif" font-size="14" font-style="italic" lengthAdjust="spacing" textLength="146" x="765.25" y="281.8467">VisualizationListener</text><line style="stroke:#181818;stroke-width:0.5;" x1="648.5" x2="995.5" y1="293" y2="293"/><line style="stroke:#181818;stroke-width:0.5;" x1="648.5" x2="995.5" y1="301" y2="301"/><ellipse cx="658.5" cy="314.6484" fill="#84BE84" rx="3" ry="3" style="stroke:#038048;stroke-width:1.0;"/><text fill="#000000" font-family="sans-serif" font-size="14" font-style="italic" lengthAdjust="spacing" textLength="323" x="667.5" y="317.9951">visualizationChanged(VisualizationItem): void</text></g></a><!--MD5=[0d73d898558f5941c48aa254e51fef11]
class java.lang.Thread--><g id="elem_java.lang.Thread"><rect codeLine="75" fill="#F1F1F1" height="504.3125" id="java.lang.Thread" rx="2.5" ry="2.5" style="stroke:#181818;stroke-width:0.5;" width="458" x="1053" y="41"/><ellipse cx="1253.25" cy="57" fill="#ADD1B2" rx="11" ry="11" style="stroke:#181818;stroke-width:1.0;"/><path d="M1256.2188,62.6406 Q1255.6406,62.9375 1255,63.0781 Q1254.3594,63.2344 1253.6563,63.2344 Q1251.1563,63.2344 1249.8281,61.5938 Q1248.5156,59.9375 1248.5156,56.8125 Q1248.5156,53.6875 1249.8281,52.0313 Q1251.1563,50.375 1253.6563,50.375 Q1254.3594,50.375 1255,50.5313 Q1255.6563,50.6875 1256.2188,50.9844 L1256.2188,53.7031 Q1255.5938,53.125 1255,52.8594 Q1254.4063,52.5781 1253.7813,52.5781 Q1252.4375,52.5781 1251.75,53.6563 Q1251.0625,54.7188 1251.0625,56.8125 Q1251.0625,58.9063 1251.75,59.9844 Q1252.4375,61.0469 1253.7813,61.0469 Q1254.4063,61.0469 1255,60.7813 Q1255.5938,60.5 1256.2188,59.9219 L1256.2188,62.6406 Z " fill="#000000"/><text fill="#000000" font-family="sans-serif" font-size="14" lengthAdjust="spacing" textLength="49" x="1273.75" y="61.8467">Thread</text><line style="stroke:#181818;stroke-width:0.5;" x1="1054" x2="1510" y1="73" y2="73"/><rect fill="none" height="6" style="stroke:#C82930;stroke-width:1.0;" width="6" x="1061" y="83.6484"/><text fill="#000000" font-family="sans-serif" font-size="14" lengthAdjust="spacing" textLength="88" x="1073" y="89.9951">name: String</text><rect fill="none" height="6" style="stroke:#C82930;stroke-width:1.0;" width="6" x="1061" y="99.9453"/><text fill="#000000" font-family="sans-serif" font-size="14" lengthAdjust="spacing" textLength="72" x="1073" y="106.292">priority: int</text><rect fill="none" height="6" style="stroke:#C82930;stroke-width:1.0;" width="6" x="1061" y="116.2422"/><text fill="#000000" font-family="sans-serif" font-size="14" lengthAdjust="spacing" textLength="122" x="1073" y="122.5889">daemon: boolean</text><rect fill="none" height="6" style="stroke:#C82930;stroke-width:1.0;" width="6" x="1061" y="132.5391"/><text fill="#000000" font-family="sans-serif" font-size="14" lengthAdjust="spacing" textLength="119" x="1073" y="138.8857">stillborn: boolean</text><rect fill="none" height="6" style="stroke:#C82930;stroke-width:1.0;" width="6" x="1061" y="148.8359"/><text fill="#000000" font-family="sans-serif" font-size="14" lengthAdjust="spacing" textLength="80" x="1073" y="155.1826">eetop: long</text><rect fill="none" height="6" style="stroke:#C82930;stroke-width:1.0;" width="6" x="1061" y="165.1328"/><text fill="#000000" font-family="sans-serif" font-size="14" lengthAdjust="spacing" textLength="116" x="1073" y="171.4795">target: Runnable</text><rect fill="none" height="6" style="stroke:#C82930;stroke-width:1.0;" width="6" x="1061" y="181.4297"/><text fill="#000000" font-family="sans-serif" font-size="14" lengthAdjust="spacing" textLength="142" x="1073" y="187.7764">group: ThreadGroup</text><rect fill="none" height="6" style="stroke:#C82930;stroke-width:1.0;" width="6" x="1061" y="197.7266"/><text fill="#000000" font-family="sans-serif" font-size="14" lengthAdjust="spacing" textLength="229" x="1073" y="204.0732">contextClassLoader: ClassLoader</text><rect fill="none" height="6" style="stroke:#C82930;stroke-width:1.0;" width="6" x="1061" y="214.0234"/><text fill="#000000" font-family="sans-serif" font-size="14" lengthAdjust="spacing" textLength="378" x="1073" y="220.3701">inheritedAccessControlContext: AccessControlContext</text><rect fill="none" height="6" style="stroke:#C82930;stroke-width:1.0;" width="6" x="1061" y="230.3203"/><text fill="#000000" font-family="sans-serif" font-size="14" lengthAdjust="spacing" text-decoration="underline" textLength="146" x="1073" y="236.667">threadInitNumber: int</text><polygon fill="none" points="1064,245.6172,1060,251.6172,1068,251.6172" style="stroke:#1963A0;stroke-width:1.0;"/><text fill="#000000" font-family="sans-serif" font-size="14" lengthAdjust="spacing" textLength="210" x="1073" y="252.9639">threadLocals: ThreadLocalMap</text><polygon fill="none" points="1064,261.9141,1060,267.9141,1068,267.9141" style="stroke:#1963A0;stroke-width:1.0;"/><text fill="#000000" font-family="sans-serif" font-size="14" lengthAdjust="spacing" textLength="286" x="1073" y="269.2607">inheritableThreadLocals: ThreadLocalMap</text><rect fill="none" height="6" style="stroke:#C82930;stroke-width:1.0;" width="6" x="1061" y="279.2109"/><text fill="#000000" font-family="sans-serif" font-size="14" lengthAdjust="spacing" textLength="105" x="1073" y="285.5576">stackSize: long</text><rect fill="none" height="6" style="stroke:#C82930;stroke-width:1.0;" width="6" x="1061" y="295.5078"/><text fill="#000000" font-family="sans-serif" font-size="14" lengthAdjust="spacing" textLength="56" x="1073" y="301.8545">tid: long</text><rect fill="none" height="6" style="stroke:#C82930;stroke-width:1.0;" width="6" x="1061" y="311.8047"/><text fill="#000000" font-family="sans-serif" font-size="14" lengthAdjust="spacing" text-decoration="underline" textLength="166" x="1073" y="318.1514">threadSeqNumber: long</text><rect fill="none" height="6" style="stroke:#C82930;stroke-width:1.0;" width="6" x="1061" y="328.1016"/><text fill="#000000" font-family="sans-serif" font-size="14" lengthAdjust="spacing" textLength="115" x="1073" y="334.4482">threadStatus: int</text><polygon fill="none" points="1064,343.3984,1060,349.3984,1068,349.3984" style="stroke:#1963A0;stroke-width:1.0;"/><text fill="#000000" font-family="sans-serif" font-size="14" lengthAdjust="spacing" textLength="136" x="1073" y="350.7451">parkBlocker: Object</text><rect fill="none" height="6" style="stroke:#C82930;stroke-width:1.0;" width="6" x="1061" y="360.6953"/><text fill="#000000" font-family="sans-serif" font-size="14" lengthAdjust="spacing" textLength="143" x="1073" y="367.042">blocker: Interruptible</text><rect fill="none" height="6" style="stroke:#C82930;stroke-width:1.0;" width="6" x="1061" y="376.9922"/><text fill="#000000" font-family="sans-serif" font-size="14" lengthAdjust="spacing" textLength="137" x="1073" y="383.3389">blockerLock: Object</text><ellipse cx="1064" cy="396.2891" fill="none" rx="3" ry="3" style="stroke:#038048;stroke-width:1.0;"/><text fill="#000000" font-family="sans-serif" font-size="14" lengthAdjust="spacing" text-decoration="underline" textLength="122" x="1073" y="399.6357">MIN_PRIORITY: int</text><ellipse cx="1064" cy="412.5859" fill="none" rx="3" ry="3" style="stroke:#038048;stroke-width:1.0;"/><text fill="#000000" font-family="sans-serif" font-size="14" lengthAdjust="spacing" text-decoration="underline" textLength="140" x="1073" y="415.9326">NORM_PRIORITY: int</text><ellipse cx="1064" cy="428.8828" fill="none" rx="3" ry="3" style="stroke:#038048;stroke-width:1.0;"/><text fill="#000000" font-family="sans-serif" font-size="14" lengthAdjust="spacing" text-decoration="underline" textLength="129" x="1073" y="432.2295">MAX_PRIORITY: int</text><rect fill="none" height="6" style="stroke:#C82930;stroke-width:1.0;" width="6" x="1061" y="442.1797"/><text fill="#000000" font-family="sans-serif" font-size="14" lengthAdjust="spacing" text-decoration="underline" textLength="308" x="1073" y="448.5264">EMPTY_STACK_TRACE: StackTraceElement[]</text><rect fill="none" height="6" style="stroke:#C82930;stroke-width:1.0;" width="6" x="1061" y="458.4766"/><text fill="#000000" font-family="sans-serif" font-size="14" lengthAdjust="spacing" textLength="384" x="1073" y="464.8232">uncaughtExceptionHandler: UncaughtExceptionHandler</text><rect fill="none" height="6" style="stroke:#C82930;stroke-width:1.0;" width="6" x="1061" y="474.7734"/><text fill="#000000" font-family="sans-serif" font-size="14" lengthAdjust="spacing" text-decoration="underline" textLength="432" x="1073" y="481.1201">defaultUncaughtExceptionHandler: UncaughtExceptionHandler</text><polygon fill="none" points="1064,490.0703,1060,496.0703,1068,496.0703" style="stroke:#1963A0;stroke-width:1.0;"/><text fill="#000000" font-family="sans-serif" font-size="14" lengthAdjust="spacing" textLength="213" x="1073" y="497.417">threadLocalRandomSeed: long</text><polygon fill="none" points="1064,506.3672,1060,512.3672,1068,512.3672" style="stroke:#1963A0;stroke-width:1.0;"/><text fill="#000000" font-family="sans-serif" font-size="14" lengthAdjust="spacing" textLength="205" x="1073" y="513.7139">threadLocalRandomProbe: int</text><polygon fill="none" points="1064,522.6641,1060,528.6641,1068,528.6641" style="stroke:#1963A0;stroke-width:1.0;"/><text fill="#000000" font-family="sans-serif" font-size="14" lengthAdjust="spacing" textLength="273" x="1073" y="530.0107">threadLocalRandomSecondarySeed: int</text><line style="stroke:#181818;stroke-width:0.5;" x1="1054" x2="1510" y1="537.3125" y2="537.3125"/></g><!--MD5=[e1d1af6e3f662afb4c4ea8a5d6a25503]
reverse link elki.visualization.visualizers.AbstractVisualization to elki.visualization.visualizers.thumbs.ThumbnailVisualization--><g id="link_elki.visualization.visualizers.AbstractVisualization_elki.visualization.visualizers.thumbs.ThumbnailVisualization"><path codeLine="37" d="M171.67,392.19 C197.5,446.24 232.62,513.42 271,569 C284.88,589.1 300.6,609.36 316.79,628.84 " fill="none" id="elki.visualization.visualizers.AbstractVisualization-backto-elki.visualization.visualizers.thumbs.ThumbnailVisualization" style="stroke:#181818;stroke-width:1.0;"/><polygon fill="none" points="165.31,395.11,163.11,374.03,177.97,389.14,165.31,395.11" style="stroke:#181818;stroke-width:1.0;"/></g><!--MD5=[124b96f45a94903911cb3b8fad9a9026]
reverse link elki.visualization.visualizers.thumbs.ThumbnailThread.Listener to elki.visualization.visualizers.thumbs.ThumbnailVisualization--><g id="link_elki.visualization.visualizers.thumbs.ThumbnailThread.Listener_elki.visualization.visualizers.thumbs.ThumbnailVisualization"><path codeLine="38" d="M844.28,1109.54 C786.46,1059.83 689.97,976.88 606.56,905.18 " fill="none" id="elki.visualization.visualizers.thumbs.ThumbnailThread.Listener-backto-elki.visualization.visualizers.thumbs.ThumbnailVisualization" style="stroke:#181818;stroke-width:1.0;stroke-dasharray:7.0,7.0;"/><polygon fill="none" points="848.92,1104.3,859.52,1122.64,839.79,1114.91,848.92,1104.3" style="stroke:#181818;stroke-width:1.0;"/></g><!--MD5=[e1793b84e44d07312714e724b4432edd]
reverse link elki.database.datastore.DataStoreListener to elki.visualization.visualizers.thumbs.ThumbnailVisualization--><g id="link_elki.database.datastore.DataStoreListener_elki.visualization.visualizers.thumbs.ThumbnailVisualization"><path codeLine="39" d="M439.88,345.69 C441.02,413.23 443.07,534.07 444.68,628.89 " fill="none" id="elki.database.datastore.DataStoreListener-backto-elki.visualization.visualizers.thumbs.ThumbnailVisualization" style="stroke:#181818;stroke-width:1.0;stroke-dasharray:7.0,7.0;"/><polygon fill="none" points="432.87,345.45,439.53,325.33,446.87,345.21,432.87,345.45" style="stroke:#181818;stroke-width:1.0;"/></g><!--MD5=[3fec1b2e2e4014525d2b328c2c6f699b]
reverse link elki.visualization.VisualizationListener to elki.visualization.visualizers.thumbs.ThumbnailVisualization--><g id="link_elki.visualization.VisualizationListener_elki.visualization.visualizers.thumbs.ThumbnailVisualization"><path codeLine="40" d="M785.55,341.17 C743,396.11 670.35,489.5 607,569 C591.55,588.38 575.17,608.76 559.01,628.76 " fill="none" id="elki.visualization.VisualizationListener-backto-elki.visualization.visualizers.thumbs.ThumbnailVisualization" style="stroke:#181818;stroke-width:1.0;stroke-dasharray:7.0,7.0;"/><polygon fill="none" points="780.23,336.61,798,325.08,791.3,345.18,780.23,336.61" style="stroke:#181818;stroke-width:1.0;"/></g><!--MD5=[6a728d2c287f5bf489a61f1201bb43f6]
link elki.visualization.visualizers.thumbs.ThumbnailVisualization to elki.visualization.visualizers.thumbs.ThumbnailThread.Task--><g id="link_elki.visualization.visualizers.thumbs.ThumbnailVisualization_elki.visualization.visualizers.thumbs.ThumbnailThread.Task"><path codeLine="41" d="M698.08,905 C748.98,932.78 798.03,959.54 834.57,979.48 " fill="none" id="elki.visualization.visualizers.thumbs.ThumbnailVisualization-to-elki.visualization.visualizers.thumbs.ThumbnailThread.Task" style="stroke:#181818;stroke-width:1.0;"/><polygon fill="#181818" points="838.96,981.88,832.9743,974.0587,834.5705,979.4857,829.1435,981.0819,838.96,981.88" style="stroke:#181818;stroke-width:1.0;"/><text fill="#000000" font-family="sans-serif" font-size="13" lengthAdjust="spacing" textLength="117" x="776" y="948.0669">pendingThumbnail</text></g><!--MD5=[2b13f6a838291c650b8049e2f276a906]
reverse link java.lang.Thread to elki.visualization.visualizers.thumbs.ThumbnailThread--><g id="link_java.lang.Thread_elki.visualization.visualizers.thumbs.ThumbnailThread"><path codeLine="42" d="M1136.71,562.92 C1108.59,614.98 1081.64,664.86 1061.49,702.15 " fill="none" id="java.lang.Thread-backto-elki.visualization.visualizers.thumbs.ThumbnailThread" style="stroke:#181818;stroke-width:1.0;"/><polygon fill="none" points="1130.62,559.47,1146.29,545.2,1142.94,566.13,1130.62,559.47" style="stroke:#181818;stroke-width:1.0;"/></g><!--MD5=[39ac40cfb28f58e2061553404911dfa1]
link elki.visualization.visualizers.thumbs.ThumbnailThread to elki.visualization.visualizers.thumbs.ThumbnailThread.Task--><g id="link_elki.visualization.visualizers.thumbs.ThumbnailThread_elki.visualization.visualizers.thumbs.ThumbnailThread.Task"><path codeLine="43" d="M992.92,831.73 C968.15,878.05 935.53,939.07 915.16,977.16 " fill="none" id="elki.visualization.visualizers.thumbs.ThumbnailThread-to-elki.visualization.visualizers.thumbs.ThumbnailThread.Task" style="stroke:#181818;stroke-width:1.0;"/><polygon fill="#181818" points="912.74,981.69,920.5078,975.6351,915.0952,977.2794,913.4508,971.8668,912.74,981.69" style="stroke:#181818;stroke-width:1.0;"/><text fill="#000000" font-family="sans-serif" font-size="13" lengthAdjust="spacing" textLength="40" x="935" y="948.0669">queue</text><text fill="#000000" font-family="sans-serif" font-size="13" lengthAdjust="spacing" textLength="7" x="908.3466" y="970.9032">*</text></g><!--MD5=[731ff4448d12d755a8301949d08ffb10]
reverse link elki.visualization.visualizers.thumbs.ThumbnailThread to elki.visualization.visualizers.thumbs.ThumbnailThread.Task--><g id="link_elki.visualization.visualizers.thumbs.ThumbnailThread_elki.visualization.visualizers.thumbs.ThumbnailThread.Task"><path codeLine="45" d="M1021.35,846.78 C1015.79,881.43 1004.97,921.16 984,952 C976.16,963.53 965.36,973.54 954.01,981.93 " fill="none" id="elki.visualization.visualizers.thumbs.ThumbnailThread-backto-elki.visualization.visualizers.thumbs.ThumbnailThread.Task" style="stroke:#181818;stroke-width:1.0;"/><ellipse cx="1022.3529" cy="839.7002" fill="#FFFFFF" rx="8" ry="8" style="stroke:#181818;stroke-width:1.0;"/><line style="stroke:#181818;stroke-width:1.0;" x1="1021.2258" x2="1023.48" y1="847.6204" y2="831.78"/><line style="stroke:#181818;stroke-width:1.0;" x1="1014.4327" x2="1030.2731" y1="838.5731" y2="840.8273"/></g><!--MD5=[d06f20663674cc8c4258d13adfaf2873]
link elki.visualization.visualizers.thumbs.ThumbnailThread to elki.visualization.visualizers.thumbs.ThumbnailThread--><g id="link_elki.visualization.visualizers.thumbs.ThumbnailThread_elki.visualization.visualizers.thumbs.ThumbnailThread"><path codeLine="44" d="M1147.62,736.19 C1168.22,740.4 1182.5,750.67 1182.5,767 C1182.5,781.92 1170.57,791.79 1152.79,796.59 " fill="none" id="elki.visualization.visualizers.thumbs.ThumbnailThread-to-elki.visualization.visualizers.thumbs.ThumbnailThread" style="stroke:#181818;stroke-width:1.0;"/><polygon fill="#181818" points="1147.62,797.81,1157.3008,799.6218,1152.4846,796.6545,1155.4519,791.8383,1147.62,797.81" style="stroke:#181818;stroke-width:1.0;"/><text fill="#000000" font-family="sans-serif" font-size="13" lengthAdjust="spacing" textLength="52" x="1188.5" y="771.5669">THREAD</text></g><!--MD5=[1bc7b22a00f6186d81f19a62c6fe5238]
link elki.visualization.visualizers.thumbs.ThumbnailThread.Task to elki.visualization.visualizers.thumbs.ThumbnailThread.Listener--><g id="link_elki.visualization.visualizers.thumbs.ThumbnailThread.Task_elki.visualization.visualizers.thumbs.ThumbnailThread.Listener"><path codeLine="46" d="M896,1046.19 C896,1067.39 896,1095.49 896,1117.69 " fill="none" id="elki.visualization.visualizers.thumbs.ThumbnailThread.Task-to-elki.visualization.visualizers.thumbs.ThumbnailThread.Listener" style="stroke:#181818;stroke-width:1.0;"/><polygon fill="#181818" points="896,1122.91,900,1113.91,896,1117.91,892,1113.91,896,1122.91" style="stroke:#181818;stroke-width:1.0;"/><text fill="#000000" font-family="sans-serif" font-size="13" lengthAdjust="spacing" textLength="51" x="897" y="1089.0669">callback</text></g><!--MD5=[427a0b543263c59e706e658aad7ea44a]
reverse link elki.visualization.visualizers.thumbs.ThumbnailThread to elki.visualization.visualizers.thumbs.ThumbnailThread.Listener--><g id="link_elki.visualization.visualizers.thumbs.ThumbnailThread_elki.visualization.visualizers.thumbs.ThumbnailThread.Listener"><path codeLine="47" d="M1036.7,846.63 C1040.41,904.46 1038.13,983.53 1009,1046 C994.49,1077.11 966.73,1103.85 942.36,1122.94 " fill="none" id="elki.visualization.visualizers.thumbs.ThumbnailThread-backto-elki.visualization.visualizers.thumbs.ThumbnailThread.Listener" style="stroke:#181818;stroke-width:1.0;"/><ellipse cx="1036.1743" cy="839.6379" fill="#FFFFFF" rx="8" ry="8" style="stroke:#181818;stroke-width:1.0;"/><line style="stroke:#181818;stroke-width:1.0;" x1="1036.7687" x2="1035.58" y1="847.6158" y2="831.66"/><line style="stroke:#181818;stroke-width:1.0;" x1="1028.1964" x2="1044.1522" y1="840.2322" y2="839.0436"/></g><rect fill="none" height="11.6406" style="stroke:none;stroke-width:1.0;" width="186" x="667" y="1209"/><text fill="#888888" font-family="sans-serif" font-size="10" lengthAdjust="spacing" textLength="186" x="667" y="1218.2822">UMLDoclet 2.0.19, PlantUML 1.2022.8</text><!--MD5=[b0f9033991c9a959410ebc7ce070d15b]
@startuml
    remove .*\.(Instance|Par|Parameterizer|Factory)$
    namespace elki.visualization.visualizers.thumbs {

        class ThumbnailVisualization [[ThumbnailVisualization.html]] {
            #visFactory: VisFactory
            #thumbid: int
            #tresolution: int
            -thumb: BufferedImage
            -plot: SVGPlot
            -proj: Projection
            +ThumbnailVisualization(VisualizerContext, VisFactory, VisualizationTask, VisualizationPlot, double, double, Projection, int)
            +destroy(): void
            +getLayer(): Element
            +fullRedraw(): void
            +doThumbnail(): void
            -refreshThumbnail(): void
            +resultChanged(Object): void
            +visualizationChanged(VisualizationItem): void
        }

        class ThumbnailThread [[ThumbnailThread.html]] {
            -shutdown: boolean
            {static} +queue(Listener): Task
            {static} +unqueue(Task): void
            -generateThumbnail(Task): void
            +run(): void
        }

        class elki.visualization.visualizers.thumbs.ThumbnailThread.Task [[ThumbnailThread.Task.html]] {
            +Task(Listener)
        }

        interface elki.visualization.visualizers.thumbs.ThumbnailThread.Listener [[ThumbnailThread.Listener.html]] {
            {abstract} +doThumbnail(): void
        }

        elki.visualization.visualizers.AbstractVisualization <|- - ThumbnailVisualization
        elki.visualization.visualizers.thumbs.ThumbnailThread.Listener <|.. ThumbnailVisualization
        elki.database.datastore.DataStoreListener <|.. ThumbnailVisualization
        elki.visualization.VisualizationListener <|.. ThumbnailVisualization
        ThumbnailVisualization - -> elki.visualization.visualizers.thumbs.ThumbnailThread.Task: pendingThumbnail
        java.lang.Thread <|- - ThumbnailThread
        ThumbnailThread - -> "*" elki.visualization.visualizers.thumbs.ThumbnailThread.Task: queue
        ThumbnailThread - -> ThumbnailThread: THREAD
        ThumbnailThread +- - elki.visualization.visualizers.thumbs.ThumbnailThread.Task
        elki.visualization.visualizers.thumbs.ThumbnailThread.Task - -> elki.visualization.visualizers.thumbs.ThumbnailThread.Listener: callback
        ThumbnailThread +- - elki.visualization.visualizers.thumbs.ThumbnailThread.Listener
    }

    namespace elki.visualization.visualizers {
        abstract class AbstractVisualization [[../AbstractVisualization.html]] {
            #task: VisualizationTask
            #context: VisualizerContext
            #svgp: VisualizationPlot
            #layer: Element
            -width: double
            -height: double
            {abstract} +fullRedraw(): void
        }
    }

    namespace elki.database.datastore {
        interface DataStoreListener [[../../../database/datastore/DataStoreListener.html]] {
            {abstract} +contentChanged(DataStoreEvent): void
        }
    }

    namespace elki.visualization {
        interface VisualizationListener [[../../VisualizationListener.html]] {
            {abstract} +visualizationChanged(VisualizationItem): void
        }
    }

    namespace java.lang {
        class Thread {
            -name: String
            -priority: int
            -daemon: boolean
            -stillborn: boolean
            -eetop: long
            -target: Runnable
            -group: ThreadGroup
            -contextClassLoader: ClassLoader
            -inheritedAccessControlContext: AccessControlContext
            {static} -threadInitNumber: int
            ~threadLocals: ThreadLocalMap
            ~inheritableThreadLocals: ThreadLocalMap
            -stackSize: long
            -tid: long
            {static} -threadSeqNumber: long
            -threadStatus: int
            ~parkBlocker: Object
            -blocker: Interruptible
            -blockerLock: Object
            {static} +MIN_PRIORITY: int
            {static} +NORM_PRIORITY: int
            {static} +MAX_PRIORITY: int
            {static} -EMPTY_STACK_TRACE: StackTraceElement[]
            -uncaughtExceptionHandler: UncaughtExceptionHandler
            {static} -defaultUncaughtExceptionHandler: UncaughtExceptionHandler
            ~threadLocalRandomSeed: long
            ~threadLocalRandomProbe: int
            ~threadLocalRandomSecondarySeed: int
        }
    }

    center footer UMLDoclet 2.0.19, PlantUML 1.2022.8
@enduml

PlantUML version 1.2022.8(Sun Sep 25 11:00:33 CEST 2022)
(APACHE source distribution)
Java Runtime: OpenJDK Runtime Environment
JVM: OpenJDK 64-Bit Server VM
Default Encoding: UTF-8
Language: de
Country: DE
--></g></svg>