<?xml version="1.0" encoding="UTF-8" standalone="no"?>
<!DOCTYPE svg PUBLIC "-//W3C//DTD SVG 1.1//EN"
 "http://www.w3.org/Graphics/SVG/1.1/DTD/svg11.dtd">
<!-- Generated by graphviz version 2.40.1 (20161225.0304)
 -->
<!-- Title: G Pages: 1 -->
<svg width="431pt" height="105pt"
 viewBox="0.00 0.00 431.00 105.00" xmlns="http://www.w3.org/2000/svg" xmlns:xlink="http://www.w3.org/1999/xlink">
<g id="graph0" class="graph" transform="scale(1 1) rotate(0) translate(4 101)">
<title>G</title>
<polygon fill="#ffffff" stroke="transparent" points="-4,4 -4,-101 427,-101 427,4 -4,4"/>
<!-- c5272809 -->
<g id="node1" class="node">
<title>c5272809</title>
<g id="a_node1"><a xlink:href="../../../../data/NumberVector.html" xlink:title="&lt;TABLE&gt;">
<g id="a_node1_0"><a xlink:href="../../../../data/NumberVector.html" xlink:title="de.lmu.ifi.dbs.elki.data.NumberVector" target="_parent">
<polygon fill="#fffacd" stroke="transparent" points="336,-58 336,-97 423,-97 423,-58 336,-58"/>
<polygon fill="none" stroke="#000000" points="336.5,-57.5 336.5,-96.5 423.5,-96.5 423.5,-57.5 336.5,-57.5"/>
<text text-anchor="start" x="358.5" y="-86.1" font-family="Roboto" font-size="8.00" fill="#000000"> «interface» </text>
<text text-anchor="start" x="351.5" y="-76.1" font-family="Roboto" font-size="8.00" fill="#000000"> </text>
<text text-anchor="start" x="354.5" y="-76.1" font-family="Roboto" font-size="8.00" fill="#000000">NumberVector</text>
<text text-anchor="start" x="405.5" y="-76.1" font-family="Roboto" font-size="8.00" fill="#000000"> </text>
<text text-anchor="start" x="340.5" y="-65.1" font-family="Roboto" font-size="8.00" fill="#000000"> </text>
<text text-anchor="start" x="343.5" y="-65.1" font-family="Roboto" font-size="7.00" fill="#000000">de.lmu.ifi.dbs.elki.data</text>
<text text-anchor="start" x="416.5" y="-65.1" font-family="Roboto" font-size="8.00" fill="#000000"> </text>
</a>
</g>
</a>
</g>
</g>
<!-- c5274312 -->
<g id="node2" class="node">
<title>c5274312</title>
<g id="a_node2"><a xlink:href="../../AbstractVectorStreamConversionFilter.html" xlink:title="&lt;TABLE&gt;">
<g id="a_node2_1"><a xlink:href="../../AbstractVectorStreamConversionFilter.html" xlink:title="de.lmu.ifi.dbs.elki.datasource.filter.AbstractVectorStreamConversionFilter" target="_parent">
<polygon fill="none" stroke="#000000" points="13,-50.5 13,-78.5 162,-78.5 162,-50.5 13,-50.5"/>
<text text-anchor="start" x="17" y="-69.1" font-family="Roboto" font-size="8.00" fill="#000000"> </text>
<text text-anchor="start" x="20" y="-69.1" font-family="Roboto" font-style="italic" font-size="8.00" fill="#000000">AbstractVectorStreamConversionFilter</text>
<text text-anchor="start" x="155" y="-69.1" font-family="Roboto" font-size="8.00" fill="#000000"> </text>
<text text-anchor="start" x="28.5" y="-58.1" font-family="Roboto" font-size="8.00" fill="#000000"> </text>
<text text-anchor="start" x="31.5" y="-58.1" font-family="Roboto" font-size="7.00" fill="#000000">de.lmu.ifi.dbs.elki.datasource.filter</text>
<text text-anchor="start" x="143.5" y="-58.1" font-family="Roboto" font-size="8.00" fill="#000000"> </text>
</a>
</g>
</a>
</g>
</g>
<!-- c5274312&#45;&gt;c5272809 -->
<g id="edge3" class="edge">
<title>c5274312&#45;&gt;c5272809</title>
<path fill="none" stroke="#000000" stroke-dasharray="5,2" d="M161.731,-75.6981C171.8829,-76.8577 182.1827,-77.8484 192,-78.5 247.8771,-82.2087 262.0019,-78.9552 318,-78.5 320.5227,-78.4795 323.1036,-78.4543 325.7104,-78.4253"/>
<polygon fill="#000000" stroke="#000000" points="335.8253,-78.2977 325.8829,-82.9236 330.8257,-78.3608 325.8261,-78.424 325.8261,-78.424 325.8261,-78.424 330.8257,-78.3608 325.7693,-73.9243 335.8253,-78.2977 335.8253,-78.2977"/>
</g>
<!-- c5274372 -->
<g id="node3" class="node">
<title>c5274372</title>
<g id="a_node3"><a xlink:href="InstanceLogRankNormalization.html" xlink:title="&lt;TABLE&gt;">
<g id="a_node3_2"><a xlink:href="InstanceLogRankNormalization.html" xlink:title="de.lmu.ifi.dbs.elki.datasource.filter.normalization.instancewise.InstanceLogRankNormalization" target="_parent">
<polygon fill="#fffacd" stroke="transparent" points="192,-56 192,-73 318,-73 318,-56 192,-56"/>
<polygon fill="none" stroke="#000000" points="192,-55.5 192,-72.5 318,-72.5 318,-55.5 192,-55.5"/>
<text text-anchor="start" x="196" y="-63.1" font-family="Roboto" font-size="8.00" fill="#000000"> </text>
<text text-anchor="start" x="199" y="-63.1" font-family="Roboto" font-size="8.00" fill="#000000">InstanceLogRankNormalization</text>
<text text-anchor="start" x="311" y="-63.1" font-family="Roboto" font-size="8.00" fill="#000000"> </text>
</a>
</g>
</a>
</g>
</g>
<!-- c5274312&#45;&gt;c5274372 -->
<g id="edge1" class="edge">
<title>c5274312&#45;&gt;c5274372</title>
<path fill="none" stroke="#000000" d="M172.0988,-64.5C178.7486,-64.5 185.3892,-64.5 191.8538,-64.5"/>
<polygon fill="none" stroke="#000000" points="171.6656,-61.0001 161.6656,-64.5 171.6656,-68.0001 171.6656,-61.0001"/>
</g>
<!-- c5274372&#45;&gt;c5272809 -->
<g id="edge4" class="edge">
<title>c5274372&#45;&gt;c5272809</title>
<path fill="none" stroke="#000000" stroke-dasharray="5,2" d="M318.3442,-71.1143C320.8277,-71.3736 323.3089,-71.6327 325.772,-71.8898"/>
<polygon fill="#000000" stroke="#000000" points="335.755,-72.9323 325.3417,-76.3693 330.7821,-72.4129 325.8091,-71.8936 325.8091,-71.8936 325.8091,-71.8936 330.7821,-72.4129 326.2765,-67.418 335.755,-72.9323 335.755,-72.9323"/>
</g>
<!-- c5274395 -->
<g id="node4" class="node">
<title>c5274395</title>
<g id="a_node4"><a xlink:href="../Normalization.html" xlink:title="&lt;TABLE&gt;">
<g id="a_node4_3"><a xlink:href="../Normalization.html" xlink:title="de.lmu.ifi.dbs.elki.datasource.filter.normalization.Normalization" target="_parent">
<polygon fill="#fffacd" stroke="transparent" points="0,0 0,-39 174,-39 174,0 0,0"/>
<polygon fill="none" stroke="#000000" points="0,.5 0,-38.5 174,-38.5 174,.5 0,.5"/>
<text text-anchor="start" x="65.5" y="-28.1" font-family="Roboto" font-size="8.00" fill="#000000"> «interface» </text>
<text text-anchor="start" x="58.5" y="-18.1" font-family="Roboto" font-size="8.00" fill="#000000"> </text>
<text text-anchor="start" x="61.5" y="-18.1" font-family="Roboto" font-size="8.00" fill="#000000">Normalization</text>
<text text-anchor="start" x="112.5" y="-18.1" font-family="Roboto" font-size="8.00" fill="#000000"> </text>
<text text-anchor="start" x="4" y="-7.1" font-family="Roboto" font-size="8.00" fill="#000000"> </text>
<text text-anchor="start" x="7" y="-7.1" font-family="Roboto" font-size="7.00" fill="#000000">de.lmu.ifi.dbs.elki.datasource.filter.normalization</text>
<text text-anchor="start" x="167" y="-7.1" font-family="Roboto" font-size="8.00" fill="#000000"> </text>
</a>
</g>
</a>
</g>
</g>
<!-- c5274395&#45;&gt;c5274372 -->
<g id="edge2" class="edge">
<title>c5274395&#45;&gt;c5274372</title>
<path fill="none" stroke="#000000" stroke-dasharray="5,2" d="M170.0098,-41.7348C188.8213,-46.7736 207.6992,-51.8301 222.8687,-55.8934"/>
<polygon fill="none" stroke="#000000" points="170.7636,-38.3134 160.1985,-39.1067 168.9524,-45.075 170.7636,-38.3134"/>
</g>
</g>
</svg>
