<?xml version="1.0" encoding="UTF-8" standalone="no"?>
<!DOCTYPE svg PUBLIC "-//W3C//DTD SVG 1.1//EN"
 "http://www.w3.org/Graphics/SVG/1.1/DTD/svg11.dtd">
<!-- Generated by graphviz version 2.40.1 (20161225.0304)
 -->
<!-- Title: G Pages: 1 -->
<svg width="207pt" height="171pt"
 viewBox="0.00 0.00 207.00 170.50" xmlns="http://www.w3.org/2000/svg" xmlns:xlink="http://www.w3.org/1999/xlink">
<g id="graph0" class="graph" transform="scale(1 1) rotate(0) translate(4 166.5)">
<title>G</title>
<polygon fill="#ffffff" stroke="transparent" points="-4,4 -4,-166.5 203,-166.5 203,4 -4,4"/>
<!-- c545531 -->
<g id="node1" class="node">
<title>c545531</title>
<g id="a_node1"><a xlink:href="EmptyIterator.html" xlink:title="&lt;TABLE&gt;">
<g id="a_node1_0"><a xlink:href="EmptyIterator.html" xlink:title="de.lmu.ifi.dbs.elki.utilities.datastructures.iterator.EmptyIterator" target="_parent">
<polygon fill="none" stroke="#000000" points="138.5,-117 138.5,-134 199.5,-134 199.5,-117 138.5,-117"/>
<text text-anchor="start" x="142.5" y="-124.6" font-family="Roboto" font-size="8.00" fill="#000000"> </text>
<text text-anchor="start" x="145.5" y="-124.6" font-family="Roboto" font-size="8.00" fill="#000000">EmptyIterator</text>
<text text-anchor="start" x="192.5" y="-124.6" font-family="Roboto" font-size="8.00" fill="#000000"> </text>
</a>
</g>
</a>
</g>
</g>
<!-- c545532 -->
<g id="node2" class="node">
<title>c545532</title>
<g id="a_node2"><a xlink:href="Iter.html" xlink:title="&lt;TABLE&gt;">
<g id="a_node2_1"><a xlink:href="Iter.html" xlink:title="de.lmu.ifi.dbs.elki.utilities.datastructures.iterator.Iter" target="_parent">
<polygon fill="#fffacd" stroke="transparent" points="0,-39 0,-67 51,-67 51,-39 0,-39"/>
<polygon fill="none" stroke="#000000" points=".5,-39 .5,-67 51.5,-67 51.5,-39 .5,-39"/>
<text text-anchor="start" x="4.5" y="-56.6" font-family="Roboto" font-size="8.00" fill="#000000"> «interface» </text>
<text text-anchor="start" x="17" y="-46.6" font-family="Roboto" font-size="8.00" fill="#000000"> </text>
<text text-anchor="start" x="20" y="-46.6" font-family="Roboto" font-size="8.00" fill="#000000">Iter</text>
<text text-anchor="start" x="32" y="-46.6" font-family="Roboto" font-size="8.00" fill="#000000"> </text>
</a>
</g>
</a>
</g>
</g>
<!-- c545534 -->
<g id="node4" class="node">
<title>c545534</title>
<g id="a_node4"><a xlink:href="It.html" xlink:title="&lt;TABLE&gt;">
<g id="a_node4_2"><a xlink:href="It.html" xlink:title="de.lmu.ifi.dbs.elki.utilities.datastructures.iterator.It" target="_parent">
<polygon fill="none" stroke="#000000" points="69.5,-78 69.5,-106 120.5,-106 120.5,-78 69.5,-78"/>
<text text-anchor="start" x="73.5" y="-95.6" font-family="Roboto" font-size="8.00" fill="#000000"> «interface» </text>
<text text-anchor="start" x="89.5" y="-85.6" font-family="Roboto" font-size="8.00" fill="#000000"> </text>
<text text-anchor="start" x="92.5" y="-85.6" font-family="Roboto" font-size="8.00" fill="#000000">It</text>
<text text-anchor="start" x="97.5" y="-85.6" font-family="Roboto" font-size="8.00" fill="#000000"> </text>
</a>
</g>
</a>
</g>
</g>
<!-- c545532&#45;&gt;c545534 -->
<g id="edge4" class="edge">
<title>c545532&#45;&gt;c545534</title>
<path fill="none" stroke="#000000" stroke-dasharray="5,2" d="M59.2988,-72.1037C62.6989,-74.0255 66.1081,-75.9524 69.3942,-77.8098"/>
<polygon fill="none" stroke="#000000" points="60.8384,-68.9535 50.4106,-67.0799 57.394,-75.0475 60.8384,-68.9535"/>
</g>
<!-- c545535 -->
<g id="node5" class="node">
<title>c545535</title>
<g id="a_node5"><a xlink:href="MIter.html" xlink:title="&lt;TABLE&gt;">
<g id="a_node5_3"><a xlink:href="MIter.html" xlink:title="de.lmu.ifi.dbs.elki.utilities.datastructures.iterator.MIter" target="_parent">
<polygon fill="none" stroke="#000000" points="69.5,-39 69.5,-67 120.5,-67 120.5,-39 69.5,-39"/>
<text text-anchor="start" x="73.5" y="-56.6" font-family="Roboto" font-size="8.00" fill="#000000"> «interface» </text>
<text text-anchor="start" x="82.5" y="-46.6" font-family="Roboto" font-size="8.00" fill="#000000"> </text>
<text text-anchor="start" x="85.5" y="-46.6" font-family="Roboto" font-size="8.00" fill="#000000">MIter</text>
<text text-anchor="start" x="104.5" y="-46.6" font-family="Roboto" font-size="8.00" fill="#000000"> </text>
</a>
</g>
</a>
</g>
</g>
<!-- c545532&#45;&gt;c545535 -->
<g id="edge5" class="edge">
<title>c545532&#45;&gt;c545535</title>
<path fill="none" stroke="#000000" stroke-dasharray="5,2" d="M61.2398,-53C63.7035,-53 66.1589,-53 68.5554,-53"/>
<polygon fill="none" stroke="#000000" points="61.1931,-49.5001 51.1931,-53 61.193,-56.5001 61.1931,-49.5001"/>
</g>
<!-- c545538 -->
<g id="node8" class="node">
<title>c545538</title>
<g id="a_node8"><a xlink:href="ArrayIter.html" xlink:title="&lt;TABLE&gt;">
<g id="a_node8_4"><a xlink:href="ArrayIter.html" xlink:title="de.lmu.ifi.dbs.elki.utilities.datastructures.iterator.ArrayIter" target="_parent">
<polygon fill="none" stroke="#000000" points="69.5,0 69.5,-28 120.5,-28 120.5,0 69.5,0"/>
<text text-anchor="start" x="73.5" y="-17.6" font-family="Roboto" font-size="8.00" fill="#000000"> «interface» </text>
<text text-anchor="start" x="76.5" y="-7.6" font-family="Roboto" font-size="8.00" fill="#000000"> </text>
<text text-anchor="start" x="79.5" y="-7.6" font-family="Roboto" font-size="8.00" fill="#000000">ArrayIter</text>
<text text-anchor="start" x="110.5" y="-7.6" font-family="Roboto" font-size="8.00" fill="#000000"> </text>
</a>
</g>
</a>
</g>
</g>
<!-- c545532&#45;&gt;c545538 -->
<g id="edge9" class="edge">
<title>c545532&#45;&gt;c545538</title>
<path fill="none" stroke="#000000" stroke-dasharray="5,2" d="M59.2988,-33.8963C62.6989,-31.9745 66.1081,-30.0476 69.3942,-28.1902"/>
<polygon fill="none" stroke="#000000" points="57.394,-30.9525 50.4106,-38.9201 60.8384,-37.0465 57.394,-30.9525"/>
</g>
<!-- c545533 -->
<g id="node3" class="node">
<title>c545533</title>
<g id="a_node3"><a xlink:href="FilteredIt.html" xlink:title="&lt;TABLE&gt;">
<g id="a_node3_5"><a xlink:href="FilteredIt.html" xlink:title="de.lmu.ifi.dbs.elki.utilities.datastructures.iterator.FilteredIt" target="_parent">
<polygon fill="none" stroke="#000000" points="146.5,-145 146.5,-162 191.5,-162 191.5,-145 146.5,-145"/>
<text text-anchor="start" x="150.5" y="-152.6" font-family="Roboto" font-size="8.00" fill="#000000"> </text>
<text text-anchor="start" x="153.5" y="-152.6" font-family="Roboto" font-size="8.00" fill="#000000">FilteredIt</text>
<text text-anchor="start" x="184.5" y="-152.6" font-family="Roboto" font-size="8.00" fill="#000000"> </text>
</a>
</g>
</a>
</g>
</g>
<!-- c545533&#45;&gt;c545534 -->
<g id="edge3" class="edge">
<title>c545533&#45;&gt;c545534</title>
<path fill="none" stroke="#000000" d="M135.8894,-143.4279C118.9927,-130.0099 108.2202,-116.5703 101.5522,-106.3404"/>
<polygon fill="#000000" stroke="#000000" points="136.2777,-143.7156 143.4799,-144.0737 145.9194,-150.8596 138.7172,-150.5015 136.2777,-143.7156"/>
</g>
<!-- c545534&#45;&gt;c545531 -->
<g id="edge1" class="edge">
<title>c545534&#45;&gt;c545531</title>
<path fill="none" stroke="#000000" stroke-dasharray="5,2" d="M129.6824,-108.1649C136.6088,-111.3473 143.6204,-114.5688 149.743,-117.3819"/>
<polygon fill="none" stroke="#000000" points="130.9297,-104.8862 120.3816,-103.8916 128.0071,-111.247 130.9297,-104.8862"/>
</g>
<!-- c545534&#45;&gt;c545533 -->
<g id="edge2" class="edge">
<title>c545534&#45;&gt;c545533</title>
<path fill="none" stroke="#000000" stroke-dasharray="5,2" d="M115.1166,-113.7867C121.8517,-121.1259 129.7396,-128.9464 138,-135 143.6394,-139.1328 150.6935,-142.4673 156.5969,-145.3587"/>
<polygon fill="none" stroke="#000000" points="117.5581,-111.2652 108.2975,-106.118 112.327,-115.9167 117.5581,-111.2652"/>
</g>
<!-- c545536 -->
<g id="node6" class="node">
<title>c545536</title>
<g id="a_node6"><a xlink:href="IterableIt.html" xlink:title="&lt;TABLE&gt;">
<g id="a_node6_6"><a xlink:href="IterableIt.html" xlink:title="de.lmu.ifi.dbs.elki.utilities.datastructures.iterator.IterableIt" target="_parent">
<polygon fill="none" stroke="#000000" points="146.5,-89 146.5,-106 191.5,-106 191.5,-89 146.5,-89"/>
<text text-anchor="start" x="150.5" y="-96.6" font-family="Roboto" font-size="8.00" fill="#000000"> </text>
<text text-anchor="start" x="153.5" y="-96.6" font-family="Roboto" font-size="8.00" fill="#000000">IterableIt</text>
<text text-anchor="start" x="184.5" y="-96.6" font-family="Roboto" font-size="8.00" fill="#000000"> </text>
</a>
</g>
</a>
</g>
</g>
<!-- c545534&#45;&gt;c545536 -->
<g id="edge6" class="edge">
<title>c545534&#45;&gt;c545536</title>
<path fill="none" stroke="#000000" stroke-dasharray="5,2" d="M130.4155,-94.9121C135.7117,-95.3415 141.0375,-95.7733 145.9584,-96.1723"/>
<polygon fill="none" stroke="#000000" points="130.6318,-91.4182 120.3816,-94.0985 130.066,-98.3953 130.6318,-91.4182"/>
</g>
<!-- c545537 -->
<g id="node7" class="node">
<title>c545537</title>
<g id="a_node7"><a xlink:href="SubtypeIt.html" xlink:title="&lt;TABLE&gt;">
<g id="a_node7_7"><a xlink:href="SubtypeIt.html" xlink:title="de.lmu.ifi.dbs.elki.utilities.datastructures.iterator.SubtypeIt" target="_parent">
<polygon fill="none" stroke="#000000" points="145.5,-61 145.5,-78 192.5,-78 192.5,-61 145.5,-61"/>
<text text-anchor="start" x="149.5" y="-68.6" font-family="Roboto" font-size="8.00" fill="#000000"> </text>
<text text-anchor="start" x="152.5" y="-68.6" font-family="Roboto" font-size="8.00" fill="#000000">SubtypeIt</text>
<text text-anchor="start" x="185.5" y="-68.6" font-family="Roboto" font-size="8.00" fill="#000000"> </text>
</a>
</g>
</a>
</g>
</g>
<!-- c545534&#45;&gt;c545537 -->
<g id="edge7" class="edge">
<title>c545534&#45;&gt;c545537</title>
<path fill="none" stroke="#000000" stroke-dasharray="5,2" d="M130.0082,-77.6962C135.0908,-76.1667 140.2109,-74.7205 144.9843,-73.4719"/>
<polygon fill="none" stroke="#000000" points="128.879,-74.3821 120.3816,-80.7102 130.9706,-81.0624 128.879,-74.3821"/>
</g>
<!-- c545539 -->
<g id="node9" class="node">
<title>c545539</title>
<g id="a_node9"><a xlink:href="ConcatIt.html" xlink:title="&lt;TABLE&gt;">
<g id="a_node9_8"><a xlink:href="ConcatIt.html" xlink:title="de.lmu.ifi.dbs.elki.utilities.datastructures.iterator.ConcatIt" target="_parent">
<polygon fill="none" stroke="#000000" points="147.5,-33 147.5,-50 190.5,-50 190.5,-33 147.5,-33"/>
<text text-anchor="start" x="151.5" y="-40.6" font-family="Roboto" font-size="8.00" fill="#000000"> </text>
<text text-anchor="start" x="154.5" y="-40.6" font-family="Roboto" font-size="8.00" fill="#000000">ConcatIt</text>
<text text-anchor="start" x="183.5" y="-40.6" font-family="Roboto" font-size="8.00" fill="#000000"> </text>
</a>
</g>
</a>
</g>
</g>
<!-- c545534&#45;&gt;c545539 -->
<g id="edge10" class="edge">
<title>c545534&#45;&gt;c545539</title>
<path fill="none" stroke="#000000" stroke-dasharray="5,2" d="M121.6505,-71.1158C129.0389,-64.1602 130.8737,-60.8085 138,-56 140.8978,-54.0447 144.1127,-52.2369 147.3368,-50.6149"/>
<polygon fill="none" stroke="#000000" points="119.1078,-68.6906 113.9001,-77.9172 123.7249,-73.9519 119.1078,-68.6906"/>
</g>
<!-- c545540 -->
<g id="node10" class="node">
<title>c545540</title>
<g id="a_node10"><a xlink:href="ArrayListIter.html" xlink:title="&lt;TABLE&gt;">
<g id="a_node10_9"><a xlink:href="ArrayListIter.html" xlink:title="de.lmu.ifi.dbs.elki.utilities.datastructures.iterator.ArrayListIter" target="_parent">
<polygon fill="none" stroke="#000000" points="139.5,-5 139.5,-22 197.5,-22 197.5,-5 139.5,-5"/>
<text text-anchor="start" x="143.5" y="-12.6" font-family="Roboto" font-size="8.00" fill="#000000"> </text>
<text text-anchor="start" x="146.5" y="-12.6" font-family="Roboto" font-size="8.00" fill="#000000">ArrayListIter</text>
<text text-anchor="start" x="190.5" y="-12.6" font-family="Roboto" font-size="8.00" fill="#000000"> </text>
</a>
</g>
</a>
</g>
</g>
<!-- c545534&#45;&gt;c545540 -->
<g id="edge12" class="edge">
<title>c545534&#45;&gt;c545540</title>
<path fill="none" stroke="#000000" stroke-dasharray="5,2" d="M121.155,-69.6804C130.9175,-52.5937 125.1245,-41.5335 138,-28 140.008,-25.8894 142.3951,-24.0692 144.9366,-22.5065"/>
<polygon fill="none" stroke="#000000" points="118.2275,-67.7608 115.452,-77.9857 123.998,-71.7233 118.2275,-67.7608"/>
</g>
<!-- c545537&#45;&gt;c545534 -->
<g id="edge8" class="edge">
<title>c545537&#45;&gt;c545534</title>
<path fill="none" stroke="#000000" d="M140.9977,-82.5419C134.25,-84.743 127.0502,-86.8664 120.3816,-88.6198"/>
<polygon fill="#000000" stroke="#000000" points="141.1096,-82.503 145.4618,-76.7533 152.4431,-78.5593 148.0909,-84.309 141.1096,-82.503"/>
</g>
<!-- c545538&#45;&gt;c545540 -->
<g id="edge11" class="edge">
<title>c545538&#45;&gt;c545540</title>
<path fill="none" stroke="#000000" stroke-dasharray="5,2" d="M130.4807,-14C133.4956,-14 136.5195,-14 139.4723,-14"/>
<polygon fill="none" stroke="#000000" points="130.3816,-10.5001 120.3816,-14 130.3816,-17.5001 130.3816,-10.5001"/>
</g>
</g>
</svg>
