<?xml version="1.0" encoding="UTF-8" standalone="no"?>
<!DOCTYPE svg PUBLIC "-//W3C//DTD SVG 1.1//EN"
 "http://www.w3.org/Graphics/SVG/1.1/DTD/svg11.dtd">
<!-- Generated by graphviz version 2.40.1 (20161225.0304)
 -->
<!-- Title: G Pages: 1 -->
<svg width="122pt" height="36pt"
 viewBox="0.00 0.00 122.00 36.00" xmlns="http://www.w3.org/2000/svg" xmlns:xlink="http://www.w3.org/1999/xlink">
<g id="graph0" class="graph" transform="scale(1 1) rotate(0) translate(4 32)">
<title>G</title>
<polygon fill="#ffffff" stroke="transparent" points="-4,4 -4,-32 118,-32 118,4 -4,4"/>
<!-- c4394431 -->
<g id="node1" class="node">
<title>c4394431</title>
<g id="a_node1"><a xlink:href="FilteredIt.html" xlink:title="&lt;TABLE&gt;">
<g id="a_node1_0"><a xlink:href="FilteredIt.html" xlink:title="de.lmu.ifi.dbs.elki.utilities.datastructures.iterator.FilteredIt" target="_parent">
<polygon fill="#fffacd" stroke="transparent" points="0,-5.5 0,-22.5 45,-22.5 45,-5.5 0,-5.5"/>
<polygon fill="none" stroke="#000000" points=".5,-5 .5,-22 45.5,-22 45.5,-5 .5,-5"/>
<text text-anchor="start" x="4.5" y="-12.6" font-family="Roboto" font-size="8.00" fill="#000000"> </text>
<text text-anchor="start" x="7.5" y="-12.6" font-family="Roboto" font-size="8.00" fill="#000000">FilteredIt</text>
<text text-anchor="start" x="38.5" y="-12.6" font-family="Roboto" font-size="8.00" fill="#000000"> </text>
</a>
</g>
</a>
</g>
</g>
<!-- c4394432 -->
<g id="node2" class="node">
<title>c4394432</title>
<g id="a_node2"><a xlink:href="It.html" xlink:title="&lt;TABLE&gt;">
<g id="a_node2_1"><a xlink:href="It.html" xlink:title="de.lmu.ifi.dbs.elki.utilities.datastructures.iterator.It" target="_parent">
<polygon fill="none" stroke="#000000" points="63.5,0 63.5,-28 114.5,-28 114.5,0 63.5,0"/>
<text text-anchor="start" x="67.5" y="-17.6" font-family="Roboto" font-size="8.00" fill="#000000"> «interface» </text>
<text text-anchor="start" x="83.5" y="-7.6" font-family="Roboto" font-size="8.00" fill="#000000"> </text>
<text text-anchor="start" x="86.5" y="-7.6" font-family="Roboto" font-size="8.00" fill="#000000">It</text>
<text text-anchor="start" x="91.5" y="-7.6" font-family="Roboto" font-size="8.00" fill="#000000"> </text>
</a>
</g>
</a>
</g>
</g>
<!-- c4394431&#45;&gt;c4394432 -->
<g id="edge2" class="edge">
<title>c4394431&#45;&gt;c4394432</title>
<path fill="none" stroke="#000000" d="M57.2919,-10.2549C59.1432,-10.2651 60.9869,-10.291 62.7996,-10.3328"/>
<polygon fill="#000000" stroke="#000000" points="57.2124,-10.2559 51.2666,-14.336 45.2135,-10.4169 51.1593,-6.3367 57.2124,-10.2559"/>
</g>
<!-- c4394432&#45;&gt;c4394431 -->
<g id="edge1" class="edge">
<title>c4394432&#45;&gt;c4394431</title>
<path fill="none" stroke="#000000" stroke-dasharray="5,2" d="M52.5693,-18.4842C50.0757,-18.4572 47.6045,-18.3957 45.2135,-18.2998"/>
<polygon fill="none" stroke="#000000" points="52.8285,-21.9823 62.7996,-18.4007 52.7713,-14.9825 52.8285,-21.9823"/>
</g>
</g>
</svg>
