<?xml version="1.0" encoding="UTF-8" standalone="no"?>
<!DOCTYPE svg PUBLIC "-//W3C//DTD SVG 1.1//EN"
 "http://www.w3.org/Graphics/SVG/1.1/DTD/svg11.dtd">
<!-- Generated by graphviz version 2.40.1 (20161225.0304)
 -->
<!-- Title: G Pages: 1 -->
<svg width="526pt" height="238pt"
 viewBox="0.00 0.00 526.00 238.42" xmlns="http://www.w3.org/2000/svg" xmlns:xlink="http://www.w3.org/1999/xlink">
<g id="graph0" class="graph" transform="scale(1 1) rotate(0) translate(4 234.4169)">
<title>G</title>
<polygon fill="#ffffff" stroke="transparent" points="-4,4 -4,-234.4169 522,-234.4169 522,4 -4,4"/>
<!-- c5532661 -->
<g id="node1" class="node">
<title>c5532661</title>
<g id="a_node1"><a xlink:href="EmptyIterator.html" xlink:title="&lt;TABLE&gt;">
<g id="a_node1_0"><a xlink:href="EmptyIterator.html" xlink:title="de.lmu.ifi.dbs.elki.utilities.datastructures.iterator.EmptyIterator" target="_parent">
<polygon fill="none" stroke="#000000" points="198.5,-184.9169 198.5,-201.9169 259.5,-201.9169 259.5,-184.9169 198.5,-184.9169"/>
<text text-anchor="start" x="202.5" y="-192.5169" font-family="Roboto" font-size="8.00" fill="#000000"> </text>
<text text-anchor="start" x="205.5" y="-192.5169" font-family="Roboto" font-size="8.00" fill="#000000">EmptyIterator</text>
<text text-anchor="start" x="252.5" y="-192.5169" font-family="Roboto" font-size="8.00" fill="#000000"> </text>
</a>
</g>
</a>
</g>
</g>
<!-- c5532662 -->
<g id="node2" class="node">
<title>c5532662</title>
<g id="a_node2"><a xlink:href="Iter.html" xlink:title="&lt;TABLE&gt;">
<g id="a_node2_1"><a xlink:href="Iter.html" xlink:title="de.lmu.ifi.dbs.elki.utilities.datastructures.iterator.Iter" target="_parent">
<polygon fill="#fffacd" stroke="transparent" points="0,-123.9169 0,-151.9169 51,-151.9169 51,-123.9169 0,-123.9169"/>
<polygon fill="none" stroke="#000000" points=".5,-123.9169 .5,-151.9169 51.5,-151.9169 51.5,-123.9169 .5,-123.9169"/>
<text text-anchor="start" x="4.5" y="-141.5169" font-family="Roboto" font-size="8.00" fill="#000000"> «interface» </text>
<text text-anchor="start" x="17" y="-131.5169" font-family="Roboto" font-size="8.00" fill="#000000"> </text>
<text text-anchor="start" x="20" y="-131.5169" font-family="Roboto" font-size="8.00" fill="#000000">Iter</text>
<text text-anchor="start" x="32" y="-131.5169" font-family="Roboto" font-size="8.00" fill="#000000"> </text>
</a>
</g>
</a>
</g>
</g>
<!-- c5532664 -->
<g id="node4" class="node">
<title>c5532664</title>
<g id="a_node4"><a xlink:href="It.html" xlink:title="&lt;TABLE&gt;">
<g id="a_node4_2"><a xlink:href="It.html" xlink:title="de.lmu.ifi.dbs.elki.utilities.datastructures.iterator.It" target="_parent">
<polygon fill="#fffacd" stroke="transparent" points="69,-123.9169 69,-151.9169 120,-151.9169 120,-123.9169 69,-123.9169"/>
<polygon fill="none" stroke="#000000" points="69.5,-123.9169 69.5,-151.9169 120.5,-151.9169 120.5,-123.9169 69.5,-123.9169"/>
<text text-anchor="start" x="73.5" y="-141.5169" font-family="Roboto" font-size="8.00" fill="#000000"> «interface» </text>
<text text-anchor="start" x="89.5" y="-131.5169" font-family="Roboto" font-size="8.00" fill="#000000"> </text>
<text text-anchor="start" x="92.5" y="-131.5169" font-family="Roboto" font-size="8.00" fill="#000000">It</text>
<text text-anchor="start" x="97.5" y="-131.5169" font-family="Roboto" font-size="8.00" fill="#000000"> </text>
</a>
</g>
</a>
</g>
</g>
<!-- c5532662&#45;&gt;c5532664 -->
<g id="edge4" class="edge">
<title>c5532662&#45;&gt;c5532664</title>
<path fill="none" stroke="#000000" stroke-dasharray="5,2" d="M61.2398,-137.9169C63.7035,-137.9169 66.1589,-137.9169 68.5554,-137.9169"/>
<polygon fill="none" stroke="#000000" points="61.1931,-134.417 51.1931,-137.9169 61.193,-141.417 61.1931,-134.417"/>
</g>
<!-- c5532663 -->
<g id="node3" class="node">
<title>c5532663</title>
<g id="a_node3"><a xlink:href="FilteredIt.html" xlink:title="&lt;TABLE&gt;">
<g id="a_node3_3"><a xlink:href="FilteredIt.html" xlink:title="de.lmu.ifi.dbs.elki.utilities.datastructures.iterator.FilteredIt" target="_parent">
<polygon fill="none" stroke="#000000" points="206.5,-212.9169 206.5,-229.9169 251.5,-229.9169 251.5,-212.9169 206.5,-212.9169"/>
<text text-anchor="start" x="210.5" y="-220.5169" font-family="Roboto" font-size="8.00" fill="#000000"> </text>
<text text-anchor="start" x="213.5" y="-220.5169" font-family="Roboto" font-size="8.00" fill="#000000">FilteredIt</text>
<text text-anchor="start" x="244.5" y="-220.5169" font-family="Roboto" font-size="8.00" fill="#000000"> </text>
</a>
</g>
</a>
</g>
</g>
<!-- c5532663&#45;&gt;c5532664 -->
<g id="edge3" class="edge">
<title>c5532663&#45;&gt;c5532664</title>
<path fill="none" stroke="#000000" d="M193.7682,-228.5733C175.8094,-228.3487 154.3006,-224.6929 138,-213.9169 116.1575,-199.4773 103.3144,-169.9117 97.7659,-152.0325"/>
<polygon fill="#000000" stroke="#000000" points="193.8142,-228.572 199.689,-224.3904 205.8086,-228.205 199.9337,-232.3866 193.8142,-228.572"/>
</g>
<!-- c5532664&#45;&gt;c5532661 -->
<g id="edge1" class="edge">
<title>c5532664&#45;&gt;c5532661</title>
<path fill="none" stroke="#000000" stroke-dasharray="5,2" d="M112.2017,-159.8814C119.4135,-167.4006 128.3321,-175.1189 138,-179.9169 156.5138,-189.1049 179.562,-192.5716 197.7652,-193.7583"/>
<polygon fill="none" stroke="#000000" points="114.372,-157.0588 105.0913,-151.9481 109.1593,-161.7308 114.372,-157.0588"/>
</g>
<!-- c5532664&#45;&gt;c5532663 -->
<g id="edge2" class="edge">
<title>c5532664&#45;&gt;c5532663</title>
<path fill="none" stroke="#000000" stroke-dasharray="5,2" d="M104.9994,-161.3883C112.06,-175.6581 122.8714,-192.9157 138,-202.9169 158.1592,-216.2437 186.2841,-218.6805 205.8086,-219.5075"/>
<polygon fill="none" stroke="#000000" points="108.082,-159.7157 100.7036,-152.1124 101.7301,-162.6574 108.082,-159.7157"/>
</g>
<!-- c5532666 -->
<g id="node5" class="node">
<title>c5532666</title>
<g id="a_node5"><a xlink:href="IterableIt.html" xlink:title="&lt;TABLE&gt;">
<g id="a_node5_4"><a xlink:href="IterableIt.html" xlink:title="de.lmu.ifi.dbs.elki.utilities.datastructures.iterator.IterableIt" target="_parent">
<polygon fill="none" stroke="#000000" points="206.5,-156.9169 206.5,-173.9169 251.5,-173.9169 251.5,-156.9169 206.5,-156.9169"/>
<text text-anchor="start" x="210.5" y="-164.5169" font-family="Roboto" font-size="8.00" fill="#000000"> </text>
<text text-anchor="start" x="213.5" y="-164.5169" font-family="Roboto" font-size="8.00" fill="#000000">IterableIt</text>
<text text-anchor="start" x="244.5" y="-164.5169" font-family="Roboto" font-size="8.00" fill="#000000"> </text>
</a>
</g>
</a>
</g>
</g>
<!-- c5532664&#45;&gt;c5532666 -->
<g id="edge5" class="edge">
<title>c5532664&#45;&gt;c5532666</title>
<path fill="none" stroke="#000000" stroke-dasharray="5,2" d="M129.8758,-149.8109C132.6108,-150.5743 135.3413,-151.2876 138,-151.9169 160.8974,-157.3368 187.5673,-161.1691 205.9949,-163.4381"/>
<polygon fill="none" stroke="#000000" points="130.6557,-146.3912 120.0725,-146.888 128.6556,-153.0994 130.6557,-146.3912"/>
</g>
<!-- c5532667 -->
<g id="node6" class="node">
<title>c5532667</title>
<g id="a_node6"><a xlink:href="SubtypeIt.html" xlink:title="&lt;TABLE&gt;">
<g id="a_node6_5"><a xlink:href="SubtypeIt.html" xlink:title="de.lmu.ifi.dbs.elki.utilities.datastructures.iterator.SubtypeIt" target="_parent">
<polygon fill="none" stroke="#000000" points="205.5,-128.9169 205.5,-145.9169 252.5,-145.9169 252.5,-128.9169 205.5,-128.9169"/>
<text text-anchor="start" x="209.5" y="-136.5169" font-family="Roboto" font-size="8.00" fill="#000000"> </text>
<text text-anchor="start" x="212.5" y="-136.5169" font-family="Roboto" font-size="8.00" fill="#000000">SubtypeIt</text>
<text text-anchor="start" x="245.5" y="-136.5169" font-family="Roboto" font-size="8.00" fill="#000000"> </text>
</a>
</g>
</a>
</g>
</g>
<!-- c5532664&#45;&gt;c5532667 -->
<g id="edge6" class="edge">
<title>c5532664&#45;&gt;c5532667</title>
<path fill="none" stroke="#000000" stroke-dasharray="5,2" d="M130.0278,-134.5619C153.6948,-133.9212 184.1414,-134.0599 204.8724,-134.9781"/>
<polygon fill="none" stroke="#000000" points="129.8968,-131.0642 120.0198,-134.8976 130.1315,-138.0603 129.8968,-131.0642"/>
</g>
<!-- c5532669 -->
<g id="node7" class="node">
<title>c5532669</title>
<g id="a_node7"><a xlink:href="ConcatIt.html" xlink:title="&lt;TABLE&gt;">
<g id="a_node7_6"><a xlink:href="ConcatIt.html" xlink:title="de.lmu.ifi.dbs.elki.utilities.datastructures.iterator.ConcatIt" target="_parent">
<polygon fill="none" stroke="#000000" points="207.5,-100.9169 207.5,-117.9169 250.5,-117.9169 250.5,-100.9169 207.5,-100.9169"/>
<text text-anchor="start" x="211.5" y="-108.5169" font-family="Roboto" font-size="8.00" fill="#000000"> </text>
<text text-anchor="start" x="214.5" y="-108.5169" font-family="Roboto" font-size="8.00" fill="#000000">ConcatIt</text>
<text text-anchor="start" x="243.5" y="-108.5169" font-family="Roboto" font-size="8.00" fill="#000000"> </text>
</a>
</g>
</a>
</g>
</g>
<!-- c5532664&#45;&gt;c5532669 -->
<g id="edge8" class="edge">
<title>c5532664&#45;&gt;c5532669</title>
<path fill="none" stroke="#000000" stroke-dasharray="5,2" d="M129.8758,-126.023C132.6108,-125.2596 135.3413,-124.5462 138,-123.9169 161.2068,-118.4238 188.2888,-114.5614 206.7374,-112.3047"/>
<polygon fill="none" stroke="#000000" points="128.6556,-122.7344 120.0725,-128.9458 130.6557,-129.4426 128.6556,-122.7344"/>
</g>
<!-- c5532670 -->
<g id="node8" class="node">
<title>c5532670</title>
<g id="a_node8"><a xlink:href="ArrayListIter.html" xlink:title="&lt;TABLE&gt;">
<g id="a_node8_7"><a xlink:href="ArrayListIter.html" xlink:title="de.lmu.ifi.dbs.elki.utilities.datastructures.iterator.ArrayListIter" target="_parent">
<polygon fill="none" stroke="#000000" points="199.5,-72.9169 199.5,-89.9169 257.5,-89.9169 257.5,-72.9169 199.5,-72.9169"/>
<text text-anchor="start" x="203.5" y="-80.5169" font-family="Roboto" font-size="8.00" fill="#000000"> </text>
<text text-anchor="start" x="206.5" y="-80.5169" font-family="Roboto" font-size="8.00" fill="#000000">ArrayListIter</text>
<text text-anchor="start" x="250.5" y="-80.5169" font-family="Roboto" font-size="8.00" fill="#000000"> </text>
</a>
</g>
</a>
</g>
</g>
<!-- c5532664&#45;&gt;c5532670 -->
<g id="edge9" class="edge">
<title>c5532664&#45;&gt;c5532670</title>
<path fill="none" stroke="#000000" stroke-dasharray="5,2" d="M112.2017,-115.9525C119.4135,-108.4333 128.3321,-100.7149 138,-95.9169 157.0834,-86.4462 180.9847,-83.0543 199.4315,-81.9723"/>
<polygon fill="none" stroke="#000000" points="109.1593,-114.103 105.0913,-123.8858 114.372,-118.775 109.1593,-114.103"/>
</g>
<!-- c5532687 -->
<g id="node9" class="node">
<title>c5532687</title>
<g id="a_node9"><a xlink:href="../hierarchy/StackedIter.html" xlink:title="&lt;TABLE&gt;">
<g id="a_node9_8"><a xlink:href="../hierarchy/StackedIter.html" xlink:title="de.lmu.ifi.dbs.elki.utilities.datastructures.hierarchy.StackedIter" target="_parent">
<polygon fill="none" stroke="#000000" points="138.5,-33.9169 138.5,-61.9169 319.5,-61.9169 319.5,-33.9169 138.5,-33.9169"/>
<text text-anchor="start" x="206" y="-52.5169" font-family="Roboto" font-size="8.00" fill="#000000"> </text>
<text text-anchor="start" x="209" y="-52.5169" font-family="Roboto" font-size="8.00" fill="#000000">StackedIter</text>
<text text-anchor="start" x="249" y="-52.5169" font-family="Roboto" font-size="8.00" fill="#000000"> </text>
<text text-anchor="start" x="142.5" y="-41.5169" font-family="Roboto" font-size="8.00" fill="#000000"> </text>
<text text-anchor="start" x="145.5" y="-41.5169" font-family="Roboto" font-size="7.00" fill="#000000">de.lmu.ifi.dbs.elki.utilities.datastructures.hierarchy</text>
<text text-anchor="start" x="312.5" y="-41.5169" font-family="Roboto" font-size="8.00" fill="#000000"> </text>
</a>
</g>
</a>
</g>
</g>
<!-- c5532664&#45;&gt;c5532687 -->
<g id="edge10" class="edge">
<title>c5532664&#45;&gt;c5532687</title>
<path fill="none" stroke="#000000" stroke-dasharray="5,2" d="M101.8181,-113.917C108.7095,-96.9471 120.5937,-75.2421 138,-62.9169 138.394,-62.638 138.7911,-62.3628 139.1913,-62.0914"/>
<polygon fill="none" stroke="#000000" points="98.3686,-113.1521 98.1677,-123.745 104.9306,-115.5894 98.3686,-113.1521"/>
</g>
<!-- c5532667&#45;&gt;c5532664 -->
<g id="edge7" class="edge">
<title>c5532667&#45;&gt;c5532664</title>
<path fill="none" stroke="#000000" d="M192.8741,-141.9461C169.9319,-142.6883 140.6505,-142.553 120.0198,-141.5401"/>
<polygon fill="#000000" stroke="#000000" points="192.8829,-141.9458 198.7102,-137.6982 204.8724,-141.4435 199.0451,-145.6911 192.8829,-141.9458"/>
</g>
<!-- c5532687&#45;&gt;c5532664 -->
<g id="edge12" class="edge">
<title>c5532687&#45;&gt;c5532664</title>
<path fill="none" stroke="#000000" d="M150.6831,-66.609C146.2209,-68.7043 141.9499,-71.12 138,-73.9169 120.1339,-86.5677 108.0855,-109.1003 101.2824,-123.9033"/>
<polygon fill="#000000" stroke="#000000" points="150.959,-66.4983 155.0361,-60.5504 162.0946,-62.0262 158.0175,-67.9741 150.959,-66.4983"/>
</g>
<!-- c5532688 -->
<g id="node10" class="node">
<title>c5532688</title>
<g id="a_node10"><a xlink:href="../hierarchy/Hierarchy.html" xlink:title="&lt;TABLE&gt;">
<g id="a_node10_9"><a xlink:href="../hierarchy/Hierarchy.html" xlink:title="de.lmu.ifi.dbs.elki.utilities.datastructures.hierarchy.Hierarchy" target="_parent">
<polygon fill="none" stroke="#000000" points="337.5,-27.9169 337.5,-66.9169 518.5,-66.9169 518.5,-27.9169 337.5,-27.9169"/>
<text text-anchor="start" x="406.5" y="-56.5169" font-family="Roboto" font-size="8.00" fill="#000000"> «interface» </text>
<text text-anchor="start" x="407.5" y="-46.5169" font-family="Roboto" font-size="8.00" fill="#000000"> </text>
<text text-anchor="start" x="410.5" y="-46.5169" font-family="Roboto" font-size="8.00" fill="#000000">Hierarchy</text>
<text text-anchor="start" x="445.5" y="-46.5169" font-family="Roboto" font-size="8.00" fill="#000000"> </text>
<text text-anchor="start" x="341.5" y="-35.5169" font-family="Roboto" font-size="8.00" fill="#000000"> </text>
<text text-anchor="start" x="344.5" y="-35.5169" font-family="Roboto" font-size="7.00" fill="#000000">de.lmu.ifi.dbs.elki.utilities.datastructures.hierarchy</text>
<text text-anchor="start" x="511.5" y="-35.5169" font-family="Roboto" font-size="8.00" fill="#000000"> </text>
</a>
</g>
</a>
</g>
</g>
<!-- c5532687&#45;&gt;c5532688 -->
<g id="edge11" class="edge">
<title>c5532687&#45;&gt;c5532688</title>
<path fill="none" stroke="#000000" d="M331.347,-47.9169C333.1783,-47.9169 335.008,-47.9169 336.8338,-47.9169"/>
<polygon fill="#000000" stroke="#000000" points="331.2649,-47.917 325.2649,-51.917 319.2649,-47.9169 325.2649,-43.917 331.2649,-47.917"/>
</g>
<!-- c5532688&#45;&gt;c5532664 -->
<g id="edge13" class="edge">
<title>c5532688&#45;&gt;c5532664</title>
<path fill="none" stroke="#000000" d="M369.4117,-24.2742C306.6976,-2.902 206.5931,18.7194 138,-27.9169 105.9026,-49.7399 97.4889,-99.2964 95.2835,-123.7413"/>
<polygon fill="none" stroke="#000000" points="369.7376,-24.3892 376.7272,-22.6154 381.0529,-28.385 374.0633,-30.1589 369.7376,-24.3892"/>
</g>
</g>
</svg>
