<?xml version="1.0" encoding="UTF-8" standalone="no"?>
<!DOCTYPE svg PUBLIC "-//W3C//DTD SVG 1.1//EN"
 "http://www.w3.org/Graphics/SVG/1.1/DTD/svg11.dtd">
<!-- Generated by graphviz version 2.40.1 (20161225.0304)
 -->
<!-- Title: G Pages: 1 -->
<svg width="124pt" height="36pt"
 viewBox="0.00 0.00 124.00 36.00" xmlns="http://www.w3.org/2000/svg" xmlns:xlink="http://www.w3.org/1999/xlink">
<g id="graph0" class="graph" transform="scale(1 1) rotate(0) translate(4 32)">
<title>G</title>
<polygon fill="#ffffff" stroke="transparent" points="-4,4 -4,-32 120,-32 120,4 -4,4"/>
<!-- c10127163 -->
<g id="node1" class="node">
<title>c10127163</title>
<g id="a_node1"><a xlink:href="It.html" xlink:title="&lt;TABLE&gt;">
<g id="a_node1_0"><a xlink:href="It.html" xlink:title="de.lmu.ifi.dbs.elki.utilities.datastructures.iterator.It" target="_parent">
<polygon fill="none" stroke="#000000" points=".5,0 .5,-28 51.5,-28 51.5,0 .5,0"/>
<text text-anchor="start" x="4.5" y="-17.6" font-family="Roboto" font-size="8.00" fill="#000000"> «interface» </text>
<text text-anchor="start" x="20.5" y="-7.6" font-family="Roboto" font-size="8.00" fill="#000000"> </text>
<text text-anchor="start" x="23.5" y="-7.6" font-family="Roboto" font-size="8.00" fill="#000000">It</text>
<text text-anchor="start" x="28.5" y="-7.6" font-family="Roboto" font-size="8.00" fill="#000000"> </text>
</a>
</g>
</a>
</g>
</g>
<!-- c10127166 -->
<g id="node2" class="node">
<title>c10127166</title>
<g id="a_node2"><a xlink:href="SubtypeIt.html" xlink:title="&lt;TABLE&gt;">
<g id="a_node2_1"><a xlink:href="SubtypeIt.html" xlink:title="de.lmu.ifi.dbs.elki.utilities.datastructures.iterator.SubtypeIt" target="_parent">
<polygon fill="#fffacd" stroke="transparent" points="69,-5.5 69,-22.5 116,-22.5 116,-5.5 69,-5.5"/>
<polygon fill="none" stroke="#000000" points="69.5,-5 69.5,-22 116.5,-22 116.5,-5 69.5,-5"/>
<text text-anchor="start" x="73.5" y="-12.6" font-family="Roboto" font-size="8.00" fill="#000000"> </text>
<text text-anchor="start" x="76.5" y="-12.6" font-family="Roboto" font-size="8.00" fill="#000000">SubtypeIt</text>
<text text-anchor="start" x="109.5" y="-12.6" font-family="Roboto" font-size="8.00" fill="#000000"> </text>
</a>
</g>
</a>
</g>
</g>
<!-- c10127163&#45;&gt;c10127166 -->
<g id="edge1" class="edge">
<title>c10127163&#45;&gt;c10127166</title>
<path fill="none" stroke="#000000" stroke-dasharray="5,2" d="M61.3811,-10.2584C63.865,-10.2761 66.3313,-10.3213 68.7251,-10.3941"/>
<polygon fill="none" stroke="#000000" points="61.1834,-6.7598 51.2123,-10.3416 61.2406,-13.7596 61.1834,-6.7598"/>
</g>
<!-- c10127166&#45;&gt;c10127163 -->
<g id="edge2" class="edge">
<title>c10127166&#45;&gt;c10127163</title>
<path fill="none" stroke="#000000" d="M56.6822,-18.4904C54.8421,-18.4752 53.0114,-18.4417 51.2123,-18.3901"/>
<polygon fill="#000000" stroke="#000000" points="56.7262,-18.4899 62.6713,-14.4088 68.7251,-18.327 62.7799,-22.4081 56.7262,-18.4899"/>
</g>
</g>
</svg>
