<?xml version="1.0" encoding="UTF-8" standalone="no"?><svg xmlns="http://www.w3.org/2000/svg" xmlns:xlink="http://www.w3.org/1999/xlink" contentStyleType="text/css" height="380px" preserveAspectRatio="none" style="width:270px;height:380px;background:#FFFFFF;" version="1.1" viewBox="0 0 270 380" width="270px" zoomAndPan="magnify"><defs/><g><!--MD5=[98e87e96ea870b3ee317e10791742693]
class elki.clustering.optics.OPTICSXi.SteepScanPosition--><a href="OPTICSXi.SteepScanPosition.html" target="_top" title="OPTICSXi.SteepScanPosition.html" xlink:actuate="onRequest" xlink:href="OPTICSXi.SteepScanPosition.html" xlink:show="new" xlink:title="OPTICSXi.SteepScanPosition.html" xlink:type="simple"><g id="elem_elki.clustering.optics.OPTICSXi.SteepScanPosition"><rect codeLine="6" fill="#F1F1F1" height="249.5" id="elki.clustering.optics.OPTICSXi.SteepScanPosition" rx="2.5" ry="2.5" style="stroke:#181818;stroke-width:0.5;" width="254" x="9" y="105"/><ellipse cx="34.35" cy="123.9688" fill="#ADD1B2" rx="11" ry="11" style="stroke:#181818;stroke-width:1.0;"/><path d="M37.3188,129.6094 Q36.7406,129.9063 36.1,130.0469 Q35.4594,130.2031 34.7563,130.2031 Q32.2563,130.2031 30.9281,128.5625 Q29.6156,126.9063 29.6156,123.7813 Q29.6156,120.6563 30.9281,119 Q32.2563,117.3438 34.7563,117.3438 Q35.4594,117.3438 36.1,117.5 Q36.7563,117.6563 37.3188,117.9531 L37.3188,120.6719 Q36.6938,120.0938 36.1,119.8281 Q35.5063,119.5469 34.8813,119.5469 Q33.5375,119.5469 32.85,120.625 Q32.1625,121.6875 32.1625,123.7813 Q32.1625,125.875 32.85,126.9531 Q33.5375,128.0156 34.8813,128.0156 Q35.5063,128.0156 36.1,127.75 Q36.6938,127.4688 37.3188,126.8906 L37.3188,129.6094 Z " fill="#000000"/><text fill="#000000" font-family="sans-serif" font-size="14" lengthAdjust="spacing" textLength="199" x="50.65" y="122.9951">OPTICSXi.SteepScanPosition</text><text fill="#000000" font-family="sans-serif" font-size="10" lengthAdjust="spacing" textLength="95" x="102.65" y="135.5791">elki.clustering.optics</text><line style="stroke:#181818;stroke-width:0.5;" x1="10" x2="262" y1="142.9375" y2="142.9375"/><polygon fill="none" points="20,152.5859,16,158.5859,24,158.5859" style="stroke:#1963A0;stroke-width:1.0;"/><text fill="#000000" font-family="sans-serif" font-size="14" lengthAdjust="spacing" textLength="114" x="29" y="159.9326">co: ClusterOrder</text><polygon fill="none" points="20,168.8828,16,174.8828,24,174.8828" style="stroke:#1963A0;stroke-width:1.0;"/><text fill="#000000" font-family="sans-serif" font-size="14" lengthAdjust="spacing" textLength="63" x="29" y="176.2295">index: int</text><rect fill="none" height="6" style="stroke:#C82930;stroke-width:1.0;" width="6" x="17" y="186.1797"/><text fill="#000000" font-family="sans-serif" font-size="14" lengthAdjust="spacing" textLength="122" x="29" y="192.5264">cur: DBIDArrayIter</text><rect fill="none" height="6" style="stroke:#C82930;stroke-width:1.0;" width="6" x="17" y="202.4766"/><text fill="#000000" font-family="sans-serif" font-size="14" lengthAdjust="spacing" textLength="130" x="29" y="208.8232">next: DBIDArrayIter</text><rect fill="none" height="6" style="stroke:#C82930;stroke-width:1.0;" width="6" x="17" y="218.7734"/><text fill="#000000" font-family="sans-serif" font-size="14" lengthAdjust="spacing" textLength="140" x="29" y="225.1201">prog: FiniteProgress</text><line style="stroke:#181818;stroke-width:0.5;" x1="10" x2="262" y1="232.4219" y2="232.4219"/><ellipse cx="20" cy="246.0703" fill="#84BE84" rx="3" ry="3" style="stroke:#038048;stroke-width:1.0;"/><text fill="#000000" font-family="sans-serif" font-size="14" lengthAdjust="spacing" textLength="228" x="29" y="249.417">SteepScanPosition(ClusterOrder)</text><ellipse cx="20" cy="262.3672" fill="#84BE84" rx="3" ry="3" style="stroke:#038048;stroke-width:1.0;"/><text fill="#000000" font-family="sans-serif" font-size="14" lengthAdjust="spacing" textLength="77" x="29" y="265.7139">next(): void</text><ellipse cx="20" cy="278.6641" fill="#84BE84" rx="3" ry="3" style="stroke:#038048;stroke-width:1.0;"/><text fill="#000000" font-family="sans-serif" font-size="14" lengthAdjust="spacing" textLength="131" x="29" y="282.0107">hasNext(): boolean</text><ellipse cx="20" cy="294.9609" fill="#84BE84" rx="3" ry="3" style="stroke:#038048;stroke-width:1.0;"/><text fill="#000000" font-family="sans-serif" font-size="14" lengthAdjust="spacing" textLength="182" x="29" y="298.3076">steepUp(double): boolean</text><ellipse cx="20" cy="311.2578" fill="#84BE84" rx="3" ry="3" style="stroke:#038048;stroke-width:1.0;"/><text fill="#000000" font-family="sans-serif" font-size="14" lengthAdjust="spacing" textLength="203" x="29" y="314.6045">steepDown(double): boolean</text><ellipse cx="20" cy="327.5547" fill="#84BE84" rx="3" ry="3" style="stroke:#038048;stroke-width:1.0;"/><text fill="#000000" font-family="sans-serif" font-size="14" lengthAdjust="spacing" textLength="172" x="29" y="330.9014">getReachability(): double</text><ellipse cx="20" cy="343.8516" fill="#84BE84" rx="3" ry="3" style="stroke:#038048;stroke-width:1.0;"/><text fill="#000000" font-family="sans-serif" font-size="14" lengthAdjust="spacing" textLength="203" x="29" y="347.1982">getNextReachability(): double</text></g></a><!--MD5=[5ce57a2e2f1b36f6d2936ea849a60e28]
class elki.clustering.optics.OPTICSXi--><a href="OPTICSXi.html" target="_top" title="OPTICSXi.html" xlink:actuate="onRequest" xlink:href="OPTICSXi.html" xlink:show="new" xlink:title="OPTICSXi.html" xlink:type="simple"><g id="elem_elki.clustering.optics.OPTICSXi"><rect codeLine="21" fill="#F1F1F1" height="37.9375" id="elki.clustering.optics.OPTICSXi" rx="2.5" ry="2.5" style="stroke:#181818;stroke-width:0.5;" width="127" x="72.5" y="7"/><ellipse cx="87.5" cy="25.9688" fill="#ADD1B2" rx="11" ry="11" style="stroke:#181818;stroke-width:1.0;"/><path d="M90.4688,31.6094 Q89.8906,31.9063 89.25,32.0469 Q88.6094,32.2031 87.9063,32.2031 Q85.4063,32.2031 84.0781,30.5625 Q82.7656,28.9063 82.7656,25.7813 Q82.7656,22.6563 84.0781,21 Q85.4063,19.3438 87.9063,19.3438 Q88.6094,19.3438 89.25,19.5 Q89.9063,19.6563 90.4688,19.9531 L90.4688,22.6719 Q89.8438,22.0938 89.25,21.8281 Q88.6563,21.5469 88.0313,21.5469 Q86.6875,21.5469 86,22.625 Q85.3125,23.6875 85.3125,25.7813 Q85.3125,27.875 86,28.9531 Q86.6875,30.0156 88.0313,30.0156 Q88.6563,30.0156 89.25,29.75 Q89.8438,29.4688 90.4688,28.8906 L90.4688,31.6094 Z " fill="#000000"/><text fill="#000000" font-family="sans-serif" font-size="14" lengthAdjust="spacing" textLength="65" x="116.5" y="24.9951">OPTICSXi</text><text fill="#000000" font-family="sans-serif" font-size="10" lengthAdjust="spacing" textLength="95" x="101.5" y="37.5791">elki.clustering.optics</text></g></a><!--MD5=[c297225478118939e2f9fe171a81c9fe]
reverse link elki.clustering.optics.OPTICSXi to elki.clustering.optics.OPTICSXi.SteepScanPosition--><g id="link_elki.clustering.optics.OPTICSXi_elki.clustering.optics.OPTICSXi.SteepScanPosition"><path codeLine="23" d="M136,60.34 C136,73.08 136,88.48 136,104.72 " fill="none" id="elki.clustering.optics.OPTICSXi-backto-elki.clustering.optics.OPTICSXi.SteepScanPosition" style="stroke:#181818;stroke-width:1.0;"/><ellipse cx="136" cy="53.28" fill="#FFFFFF" rx="8" ry="8" style="stroke:#181818;stroke-width:1.0;"/><line style="stroke:#181818;stroke-width:1.0;" x1="136" x2="136" y1="61.28" y2="45.28"/><line style="stroke:#181818;stroke-width:1.0;" x1="128" x2="144" y1="53.28" y2="53.28"/></g><rect fill="none" height="11.6406" style="stroke:none;stroke-width:1.0;" width="186" x="35" y="360.5"/><text fill="#888888" font-family="sans-serif" font-size="10" lengthAdjust="spacing" textLength="186" x="35" y="369.7822">UMLDoclet 2.0.19, PlantUML 1.2022.8</text><!--MD5=[8b7ee70a9b3e573e356bf974d91bc452]
@startuml
    remove .*\.(Instance|Par|Parameterizer|Factory)$
    set namespaceSeparator none
    hide empty fields
    hide empty methods

    class "<size:14>OPTICSXi.SteepScanPosition\n<size:10>elki.clustering.optics" as elki.clustering.optics.OPTICSXi.SteepScanPosition [[OPTICSXi.SteepScanPosition.html]] {
        ~co: ClusterOrder
        ~index: int
        -cur: DBIDArrayIter
        -next: DBIDArrayIter
        -prog: FiniteProgress
        +SteepScanPosition(ClusterOrder)
        +next(): void
        +hasNext(): boolean
        +steepUp(double): boolean
        +steepDown(double): boolean
        +getReachability(): double
        +getNextReachability(): double
    }

    class "<size:14>OPTICSXi\n<size:10>elki.clustering.optics" as elki.clustering.optics.OPTICSXi [[OPTICSXi.html]]

    elki.clustering.optics.OPTICSXi +- - elki.clustering.optics.OPTICSXi.SteepScanPosition

    center footer UMLDoclet 2.0.19, PlantUML 1.2022.8
@enduml

PlantUML version 1.2022.8(Sun Sep 25 11:00:33 CEST 2022)
(APACHE source distribution)
Java Runtime: OpenJDK Runtime Environment
JVM: OpenJDK 64-Bit Server VM
Default Encoding: UTF-8
Language: de
Country: DE
--></g></svg>