<?xml version="1.0" encoding="UTF-8" standalone="no"?><svg xmlns="http://www.w3.org/2000/svg" xmlns:xlink="http://www.w3.org/1999/xlink" contentStyleType="text/css" height="192px" preserveAspectRatio="none" style="width:351px;height:192px;background:#FFFFFF;" version="1.1" viewBox="0 0 351 192" width="351px" zoomAndPan="magnify"><defs/><g><!--MD5=[4a843c2df601b551df29bc1dfe26d72c]
class elki.clustering.optics.OPTICSXi.SteepUpArea--><a href="OPTICSXi.SteepUpArea.html" target="_top" title="OPTICSXi.SteepUpArea.html" xlink:actuate="onRequest" xlink:href="OPTICSXi.SteepUpArea.html" xlink:show="new" xlink:title="OPTICSXi.SteepUpArea.html" xlink:type="simple"><g id="elem_elki.clustering.optics.OPTICSXi.SteepUpArea"><rect codeLine="6" fill="#F1F1F1" height="62.2344" id="elki.clustering.optics.OPTICSXi.SteepUpArea" rx="2.5" ry="2.5" style="stroke:#181818;stroke-width:0.5;" width="225" x="75" y="105"/><ellipse cx="104.85" cy="123.9688" fill="#ADD1B2" rx="11" ry="11" style="stroke:#181818;stroke-width:1.0;"/><path d="M107.8188,129.6094 Q107.2406,129.9063 106.6,130.0469 Q105.9594,130.2031 105.2563,130.2031 Q102.7563,130.2031 101.4281,128.5625 Q100.1156,126.9063 100.1156,123.7813 Q100.1156,120.6563 101.4281,119 Q102.7563,117.3438 105.2563,117.3438 Q105.9594,117.3438 106.6,117.5 Q107.2563,117.6563 107.8188,117.9531 L107.8188,120.6719 Q107.1938,120.0938 106.6,119.8281 Q106.0063,119.5469 105.3813,119.5469 Q104.0375,119.5469 103.35,120.625 Q102.6625,121.6875 102.6625,123.7813 Q102.6625,125.875 103.35,126.9531 Q104.0375,128.0156 105.3813,128.0156 Q106.0063,128.0156 106.6,127.75 Q107.1938,127.4688 107.8188,126.8906 L107.8188,129.6094 Z " fill="#000000"/><text fill="#000000" font-family="sans-serif" font-size="14" lengthAdjust="spacing" textLength="160" x="122.15" y="122.9951">OPTICSXi.SteepUpArea</text><text fill="#000000" font-family="sans-serif" font-size="10" lengthAdjust="spacing" textLength="95" x="154.65" y="135.5791">elki.clustering.optics</text><line style="stroke:#181818;stroke-width:0.5;" x1="76" x2="299" y1="142.9375" y2="142.9375"/><ellipse cx="86" cy="156.5859" fill="#84BE84" rx="3" ry="3" style="stroke:#038048;stroke-width:1.0;"/><text fill="#000000" font-family="sans-serif" font-size="14" lengthAdjust="spacing" textLength="199" x="95" y="159.9326">SteepUpArea(int, int, double)</text></g></a><!--MD5=[20d9b0998ddc614dc98d3acbe66946c3]
class elki.clustering.optics.OPTICSXi.SteepArea--><a href="OPTICSXi.SteepArea.html" target="_top" title="OPTICSXi.SteepArea.html" xlink:actuate="onRequest" xlink:href="OPTICSXi.SteepArea.html" xlink:show="new" xlink:title="OPTICSXi.SteepArea.html" xlink:type="simple"><g id="elem_elki.clustering.optics.OPTICSXi.SteepArea"><rect codeLine="10" fill="#F1F1F1" height="37.9375" id="elki.clustering.optics.OPTICSXi.SteepArea" rx="2.5" ry="2.5" style="stroke:#181818;stroke-width:0.5;" width="175" x="7" y="7"/><ellipse cx="22" cy="25.9688" fill="#A9DCDF" rx="11" ry="11" style="stroke:#181818;stroke-width:1.0;"/><path d="M22.1094,21.3125 L20.9531,26.3906 L23.2813,26.3906 L22.1094,21.3125 Z M20.625,19.0781 L23.6094,19.0781 L26.9688,31.4688 L24.5156,31.4688 L23.75,28.4063 L20.4688,28.4063 L19.7188,31.4688 L17.2813,31.4688 L20.625,19.0781 Z " fill="#000000"/><text fill="#000000" font-family="sans-serif" font-size="14" font-style="italic" lengthAdjust="spacing" textLength="143" x="36" y="24.9951">OPTICSXi.SteepArea</text><text fill="#000000" font-family="sans-serif" font-size="10" font-style="italic" lengthAdjust="spacing" textLength="103" x="56" y="37.5791">elki.clustering.optics</text></g></a><!--MD5=[5ce57a2e2f1b36f6d2936ea849a60e28]
class elki.clustering.optics.OPTICSXi--><a href="OPTICSXi.html" target="_top" title="OPTICSXi.html" xlink:actuate="onRequest" xlink:href="OPTICSXi.html" xlink:show="new" xlink:title="OPTICSXi.html" xlink:type="simple"><g id="elem_elki.clustering.optics.OPTICSXi"><rect codeLine="11" fill="#F1F1F1" height="37.9375" id="elki.clustering.optics.OPTICSXi" rx="2.5" ry="2.5" style="stroke:#181818;stroke-width:0.5;" width="127" x="217" y="7"/><ellipse cx="232" cy="25.9688" fill="#ADD1B2" rx="11" ry="11" style="stroke:#181818;stroke-width:1.0;"/><path d="M234.9688,31.6094 Q234.3906,31.9063 233.75,32.0469 Q233.1094,32.2031 232.4063,32.2031 Q229.9063,32.2031 228.5781,30.5625 Q227.2656,28.9063 227.2656,25.7813 Q227.2656,22.6563 228.5781,21 Q229.9063,19.3438 232.4063,19.3438 Q233.1094,19.3438 233.75,19.5 Q234.4063,19.6563 234.9688,19.9531 L234.9688,22.6719 Q234.3438,22.0938 233.75,21.8281 Q233.1563,21.5469 232.5313,21.5469 Q231.1875,21.5469 230.5,22.625 Q229.8125,23.6875 229.8125,25.7813 Q229.8125,27.875 230.5,28.9531 Q231.1875,30.0156 232.5313,30.0156 Q233.1563,30.0156 233.75,29.75 Q234.3438,29.4688 234.9688,28.8906 L234.9688,31.6094 Z " fill="#000000"/><text fill="#000000" font-family="sans-serif" font-size="14" lengthAdjust="spacing" textLength="65" x="261" y="24.9951">OPTICSXi</text><text fill="#000000" font-family="sans-serif" font-size="10" lengthAdjust="spacing" textLength="95" x="246" y="37.5791">elki.clustering.optics</text></g></a><!--MD5=[cfecad5cc6e2b05f4ecf8e57d2a0d303]
reverse link elki.clustering.optics.OPTICSXi.SteepArea to elki.clustering.optics.OPTICSXi.SteepUpArea--><g id="link_elki.clustering.optics.OPTICSXi.SteepArea_elki.clustering.optics.OPTICSXi.SteepUpArea"><path codeLine="13" d="M123.43,60.6 C135.58,74.71 149.61,90.99 161.43,104.73 " fill="none" id="elki.clustering.optics.OPTICSXi.SteepArea-backto-elki.clustering.optics.OPTICSXi.SteepUpArea" style="stroke:#181818;stroke-width:1.0;"/><polygon fill="none" points="118.02,65.04,110.28,45.32,128.63,55.91,118.02,65.04" style="stroke:#181818;stroke-width:1.0;"/></g><!--MD5=[17b6db0ca05db7fc5b4699dd5adf0fdd]
reverse link elki.clustering.optics.OPTICSXi to elki.clustering.optics.OPTICSXi.SteepUpArea--><g id="link_elki.clustering.optics.OPTICSXi_elki.clustering.optics.OPTICSXi.SteepUpArea"><path codeLine="14" d="M254.69,56.97 C241.87,71.86 226.42,89.8 213.57,104.73 " fill="none" id="elki.clustering.optics.OPTICSXi-backto-elki.clustering.optics.OPTICSXi.SteepUpArea" style="stroke:#181818;stroke-width:1.0;"/><ellipse cx="259.498" cy="51.3806" fill="#FFFFFF" rx="8" ry="8" style="stroke:#181818;stroke-width:1.0;"/><line style="stroke:#181818;stroke-width:1.0;" x1="254.276" x2="264.72" y1="57.4412" y2="45.32"/><line style="stroke:#181818;stroke-width:1.0;" x1="253.4374" x2="265.5586" y1="46.1586" y2="56.6026"/></g><rect fill="none" height="11.6406" style="stroke:none;stroke-width:1.0;" width="186" x="75.5" y="173.2344"/><text fill="#888888" font-family="sans-serif" font-size="10" lengthAdjust="spacing" textLength="186" x="75.5" y="182.5166">UMLDoclet 2.0.19, PlantUML 1.2022.8</text><!--MD5=[bb9da2f7feb9fb20ee7526db067cc178]
@startuml
    remove .*\.(Instance|Par|Parameterizer|Factory)$
    set namespaceSeparator none
    hide empty fields
    hide empty methods

    class "<size:14>OPTICSXi.SteepUpArea\n<size:10>elki.clustering.optics" as elki.clustering.optics.OPTICSXi.SteepUpArea [[OPTICSXi.SteepUpArea.html]] {
        +SteepUpArea(int, int, double)
    }

    abstract class "<size:14>OPTICSXi.SteepArea\n<size:10>elki.clustering.optics" as elki.clustering.optics.OPTICSXi.SteepArea [[OPTICSXi.SteepArea.html]]
    class "<size:14>OPTICSXi\n<size:10>elki.clustering.optics" as elki.clustering.optics.OPTICSXi [[OPTICSXi.html]]

    elki.clustering.optics.OPTICSXi.SteepArea <|- - elki.clustering.optics.OPTICSXi.SteepUpArea
    elki.clustering.optics.OPTICSXi +- - elki.clustering.optics.OPTICSXi.SteepUpArea

    center footer UMLDoclet 2.0.19, PlantUML 1.2022.8
@enduml

PlantUML version 1.2022.8(Sun Sep 25 11:00:33 CEST 2022)
(APACHE source distribution)
Java Runtime: OpenJDK Runtime Environment
JVM: OpenJDK 64-Bit Server VM
Default Encoding: UTF-8
Language: de
Country: DE
--></g></svg>