<?xml version="1.0" encoding="UTF-8" standalone="no"?><svg xmlns="http://www.w3.org/2000/svg" xmlns:xlink="http://www.w3.org/1999/xlink" contentStyleType="text/css" height="1020px" preserveAspectRatio="none" style="width:695px;height:1020px;background:#FFFFFF;" version="1.1" viewBox="0 0 695 1020" width="695px" zoomAndPan="magnify"><defs/><g><!--MD5=[c81f628f4ddc08406776a428d8bb2d82]
cluster elki.svm.solver--><g id="cluster_elki.svm.solver"><path d="M8.5,6 L127.5,6 A3.75,3.75 0 0 1 130,8.5 L137,28.2969 L685.5,28.2969 A2.5,2.5 0 0 1 688,30.7969 L688,992.5 A2.5,2.5 0 0 1 685.5,995 L8.5,995 A2.5,2.5 0 0 1 6,992.5 L6,8.5 A2.5,2.5 0 0 1 8.5,6 " fill="none" style="stroke:#000000;stroke-width:1.5;"/><line style="stroke:#000000;stroke-width:1.5;" x1="6" x2="137" y1="28.2969" y2="28.2969"/><text fill="#000000" font-family="sans-serif" font-size="14" font-weight="bold" lengthAdjust="spacing" textLength="118" x="10" y="20.9951">elki.svm.solver</text></g><!--MD5=[d31430b0063e3b5cef4f0527e6197cbe]
class elki.svm.solver.Solver--><a href="Solver.html" target="_top" title="Solver.html" xlink:actuate="onRequest" xlink:href="Solver.html" xlink:show="new" xlink:title="Solver.html" xlink:type="simple"><g id="elem_elki.svm.solver.Solver"><rect codeLine="4" fill="#F1F1F1" height="732.4688" id="elki.svm.solver.Solver" rx="2.5" ry="2.5" style="stroke:#181818;stroke-width:0.5;" width="650" x="22" y="41"/><ellipse cx="321.75" cy="57" fill="#ADD1B2" rx="11" ry="11" style="stroke:#181818;stroke-width:1.0;"/><path d="M324.7188,62.6406 Q324.1406,62.9375 323.5,63.0781 Q322.8594,63.2344 322.1563,63.2344 Q319.6563,63.2344 318.3281,61.5938 Q317.0156,59.9375 317.0156,56.8125 Q317.0156,53.6875 318.3281,52.0313 Q319.6563,50.375 322.1563,50.375 Q322.8594,50.375 323.5,50.5313 Q324.1563,50.6875 324.7188,50.9844 L324.7188,53.7031 Q324.0938,53.125 323.5,52.8594 Q322.9063,52.5781 322.2813,52.5781 Q320.9375,52.5781 320.25,53.6563 Q319.5625,54.7188 319.5625,56.8125 Q319.5625,58.9063 320.25,59.9844 Q320.9375,61.0469 322.2813,61.0469 Q322.9063,61.0469 323.5,60.7813 Q324.0938,60.5 324.7188,59.9219 L324.7188,62.6406 Z " fill="#000000"/><text fill="#000000" font-family="sans-serif" font-size="14" lengthAdjust="spacing" textLength="42" x="342.25" y="61.8467">Solver</text><line style="stroke:#181818;stroke-width:0.5;" x1="23" x2="671" y1="73" y2="73"/><rect fill="none" height="6" style="stroke:#C82930;stroke-width:1.0;" width="6" x="30" y="83.6484"/><text fill="#000000" font-family="sans-serif" font-size="14" lengthAdjust="spacing" text-decoration="underline" textLength="93" x="42" y="89.9951">LOG: Logging</text><polygon fill="none" points="33,98.9453,29,104.9453,37,104.9453" style="stroke:#1963A0;stroke-width:1.0;"/><text fill="#000000" font-family="sans-serif" font-size="14" lengthAdjust="spacing" textLength="101" x="42" y="106.292">active_size: int</text><polygon fill="none" points="33,115.2422,29,121.2422,37,121.2422" style="stroke:#1963A0;stroke-width:1.0;"/><text fill="#000000" font-family="sans-serif" font-size="14" lengthAdjust="spacing" textLength="56" x="42" y="122.5889">y: byte[]</text><polygon fill="none" points="33,131.5391,29,137.5391,37,137.5391" style="stroke:#1963A0;stroke-width:1.0;"/><text fill="#000000" font-family="sans-serif" font-size="14" lengthAdjust="spacing" textLength="78" x="42" y="138.8857">G: double[]</text><polygon fill="none" points="33,147.8359,29,153.8359,37,153.8359" style="stroke:#1963A0;stroke-width:1.0;"/><text fill="#000000" font-family="sans-serif" font-size="14" lengthAdjust="spacing" text-decoration="underline" textLength="148" x="42" y="155.1826">LOWER_BOUND: byte</text><polygon fill="none" points="33,164.1328,29,170.1328,37,170.1328" style="stroke:#1963A0;stroke-width:1.0;"/><text fill="#000000" font-family="sans-serif" font-size="14" lengthAdjust="spacing" text-decoration="underline" textLength="145" x="42" y="171.4795">UPPER_BOUND: byte</text><polygon fill="none" points="33,180.4297,29,186.4297,37,186.4297" style="stroke:#1963A0;stroke-width:1.0;"/><text fill="#000000" font-family="sans-serif" font-size="14" lengthAdjust="spacing" text-decoration="underline" textLength="75" x="42" y="187.7764">FREE: byte</text><polygon fill="none" points="33,196.7266,29,202.7266,37,202.7266" style="stroke:#1963A0;stroke-width:1.0;"/><text fill="#000000" font-family="sans-serif" font-size="14" lengthAdjust="spacing" textLength="136" x="42" y="204.0732">alpha_status: byte[]</text><polygon fill="none" points="33,213.0234,29,219.0234,37,219.0234" style="stroke:#1963A0;stroke-width:1.0;"/><text fill="#000000" font-family="sans-serif" font-size="14" lengthAdjust="spacing" textLength="104" x="42" y="220.3701">alpha: double[]</text><polygon fill="none" points="33,229.3203,29,235.3203,37,235.3203" style="stroke:#1963A0;stroke-width:1.0;"/><text fill="#000000" font-family="sans-serif" font-size="14" lengthAdjust="spacing" textLength="71" x="42" y="236.667">Q: QMatrix</text><polygon fill="none" points="33,245.6172,29,251.6172,37,251.6172" style="stroke:#1963A0;stroke-width:1.0;"/><text fill="#000000" font-family="sans-serif" font-size="14" lengthAdjust="spacing" textLength="83" x="42" y="252.9639">eps: double</text><polygon fill="none" points="33,261.9141,29,267.9141,37,267.9141" style="stroke:#1963A0;stroke-width:1.0;"/><text fill="#000000" font-family="sans-serif" font-size="14" lengthAdjust="spacing" textLength="76" x="42" y="269.2607">Cp: double</text><polygon fill="none" points="33,278.2109,29,284.2109,37,284.2109" style="stroke:#1963A0;stroke-width:1.0;"/><text fill="#000000" font-family="sans-serif" font-size="14" lengthAdjust="spacing" textLength="76" x="42" y="285.5576">Cn: double</text><polygon fill="none" points="33,294.5078,29,300.5078,37,300.5078" style="stroke:#1963A0;stroke-width:1.0;"/><text fill="#000000" font-family="sans-serif" font-size="14" lengthAdjust="spacing" textLength="76" x="42" y="301.8545">p: double[]</text><polygon fill="none" points="33,310.8047,29,316.8047,37,316.8047" style="stroke:#1963A0;stroke-width:1.0;"/><text fill="#000000" font-family="sans-serif" font-size="14" lengthAdjust="spacing" textLength="105" x="42" y="318.1514">active_set: int[]</text><polygon fill="none" points="33,327.1016,29,333.1016,37,333.1016" style="stroke:#1963A0;stroke-width:1.0;"/><text fill="#000000" font-family="sans-serif" font-size="14" lengthAdjust="spacing" textLength="107" x="42" y="334.4482">G_bar: double[]</text><polygon fill="none" points="33,343.3984,29,349.3984,37,349.3984" style="stroke:#1963A0;stroke-width:1.0;"/><text fill="#000000" font-family="sans-serif" font-size="14" lengthAdjust="spacing" textLength="69" x="42" y="350.7451">Q_i: float[]</text><polygon fill="none" points="33,359.6953,29,365.6953,37,365.6953" style="stroke:#1963A0;stroke-width:1.0;"/><text fill="#000000" font-family="sans-serif" font-size="14" lengthAdjust="spacing" textLength="69" x="42" y="367.042">Q_j: float[]</text><polygon fill="none" points="33,375.9922,29,381.9922,37,381.9922" style="stroke:#1963A0;stroke-width:1.0;"/><text fill="#000000" font-family="sans-serif" font-size="14" lengthAdjust="spacing" textLength="29" x="42" y="383.3389">l: int</text><polygon fill="none" points="33,392.2891,29,398.2891,37,398.2891" style="stroke:#1963A0;stroke-width:1.0;"/><text fill="#000000" font-family="sans-serif" font-size="14" lengthAdjust="spacing" textLength="125" x="42" y="399.6357">unshrink: boolean</text><line style="stroke:#181818;stroke-width:0.5;" x1="23" x2="671" y1="406.9375" y2="406.9375"/><polygon fill="#4177AF" points="33,416.5859,29,422.5859,37,422.5859" style="stroke:#1963A0;stroke-width:1.0;"/><text fill="#000000" font-family="sans-serif" font-size="14" lengthAdjust="spacing" textLength="124" x="42" y="423.9326">get_C(int): double</text><polygon fill="#4177AF" points="33,432.8828,29,438.8828,37,438.8828" style="stroke:#1963A0;stroke-width:1.0;"/><text fill="#000000" font-family="sans-serif" font-size="14" lengthAdjust="spacing" textLength="207" x="42" y="440.2295">update_alpha_status(int): void</text><polygon fill="#4177AF" points="33,449.1797,29,455.1797,37,455.1797" style="stroke:#1963A0;stroke-width:1.0;"/><text fill="#000000" font-family="sans-serif" font-size="14" lengthAdjust="spacing" textLength="203" x="42" y="456.5264">is_upper_bound(int): boolean</text><polygon fill="#4177AF" points="33,465.4766,29,471.4766,37,471.4766" style="stroke:#1963A0;stroke-width:1.0;"/><text fill="#000000" font-family="sans-serif" font-size="14" lengthAdjust="spacing" textLength="199" x="42" y="472.8232">is_lower_bound(int): boolean</text><polygon fill="#4177AF" points="33,481.7734,29,487.7734,37,487.7734" style="stroke:#1963A0;stroke-width:1.0;"/><text fill="#000000" font-family="sans-serif" font-size="14" lengthAdjust="spacing" textLength="137" x="42" y="489.1201">is_free(int): boolean</text><polygon fill="#4177AF" points="33,498.0703,29,504.0703,37,504.0703" style="stroke:#1963A0;stroke-width:1.0;"/><text fill="#000000" font-family="sans-serif" font-size="14" lengthAdjust="spacing" textLength="169" x="42" y="505.417">swap_index(int, int): void</text><polygon fill="#4177AF" points="33,514.3672,29,520.3672,37,520.3672" style="stroke:#1963A0;stroke-width:1.0;"/><text fill="#000000" font-family="sans-serif" font-size="14" lengthAdjust="spacing" textLength="191" x="42" y="521.7139">reconstruct_gradient(): void</text><ellipse cx="33" cy="534.6641" fill="#84BE84" rx="3" ry="3" style="stroke:#038048;stroke-width:1.0;"/><text fill="#000000" font-family="sans-serif" font-size="14" lengthAdjust="spacing" textLength="624" x="42" y="538.0107">solve(int, QMatrix, double[], byte[], double[], double, double, double, boolean): SolutionInfo</text><polygon fill="#4177AF" points="33,546.9609,29,552.9609,37,552.9609" style="stroke:#1963A0;stroke-width:1.0;"/><text fill="#000000" font-family="sans-serif" font-size="14" lengthAdjust="spacing" textLength="343" x="42" y="554.3076">buildSolutionInfo(int, double, double): SolutionInfo</text><polygon fill="#FFFF44" points="33,562.2578,37,566.2578,33,570.2578,29,566.2578" style="stroke:#B38D22;stroke-width:1.0;"/><text fill="#000000" font-family="sans-serif" font-size="14" lengthAdjust="spacing" textLength="139" x="42" y="570.6045">initializeAlpha(): void</text><polygon fill="#FFFF44" points="33,578.5547,37,582.5547,33,586.5547,29,582.5547" style="stroke:#B38D22;stroke-width:1.0;"/><text fill="#000000" font-family="sans-serif" font-size="14" lengthAdjust="spacing" textLength="165" x="42" y="586.9014">initializeActiveSet(): void</text><rect fill="#F24D5C" height="6" style="stroke:#C82930;stroke-width:1.0;" width="6" x="30" y="596.8516"/><text fill="#000000" font-family="sans-serif" font-size="14" lengthAdjust="spacing" textLength="268" x="42" y="603.1982">update_G(int, int, double, double): void</text><rect fill="#F24D5C" height="6" style="stroke:#C82930;stroke-width:1.0;" width="6" x="30" y="613.1484"/><text fill="#000000" font-family="sans-serif" font-size="14" lengthAdjust="spacing" textLength="238" x="42" y="619.4951">update_G_bar(double, float[]): void</text><ellipse cx="33" cy="632.4453" fill="#84BE84" rx="3" ry="3" style="stroke:#038048;stroke-width:1.0;"/><text fill="#000000" font-family="sans-serif" font-size="14" lengthAdjust="spacing" textLength="160" x="42" y="635.792">initializeGradient(): void</text><polygon fill="#FFFF44" points="33,643.7422,37,647.7422,33,651.7422,29,647.7422" style="stroke:#B38D22;stroke-width:1.0;"/><text fill="#000000" font-family="sans-serif" font-size="14" lengthAdjust="spacing" textLength="156" x="42" y="652.0889">calculate_obj(): double</text><polygon fill="#FFFF44" points="33,660.0391,37,664.0391,33,668.0391,29,664.0391" style="stroke:#B38D22;stroke-width:1.0;"/><text fill="#000000" font-family="sans-serif" font-size="14" lengthAdjust="spacing" text-decoration="underline" textLength="173" x="42" y="668.3857">nonzero(double): double</text><polygon fill="#4177AF" points="33,677.3359,29,683.3359,37,683.3359" style="stroke:#1963A0;stroke-width:1.0;"/><text fill="#000000" font-family="sans-serif" font-size="14" lengthAdjust="spacing" textLength="234" x="42" y="684.6826">select_working_set(int[]): boolean</text><polygon fill="#FFFF44" points="33,692.6328,37,696.6328,33,700.6328,29,696.6328" style="stroke:#B38D22;stroke-width:1.0;"/><text fill="#000000" font-family="sans-serif" font-size="14" lengthAdjust="spacing" textLength="180" x="42" y="700.9795">maxViolating(int[]): double</text><polygon fill="#FFFF44" points="33,708.9297,37,712.9297,33,716.9297,29,712.9297" style="stroke:#B38D22;stroke-width:1.0;"/><text fill="#000000" font-family="sans-serif" font-size="14" lengthAdjust="spacing" textLength="233" x="42" y="717.2764">minViolating(int[], double): double</text><polygon fill="#4177AF" points="33,726.2266,29,732.2266,37,732.2266" style="stroke:#1963A0;stroke-width:1.0;"/><text fill="#000000" font-family="sans-serif" font-size="14" lengthAdjust="spacing" textLength="135" x="42" y="733.5732">do_shrinking(): void</text><rect fill="#F24D5C" height="6" style="stroke:#C82930;stroke-width:1.0;" width="6" x="30" y="743.5234"/><text fill="#000000" font-family="sans-serif" font-size="14" lengthAdjust="spacing" textLength="277" x="42" y="749.8701">be_shrunk(int, double, double): boolean</text><polygon fill="#4177AF" points="33,758.8203,29,764.8203,37,764.8203" style="stroke:#1963A0;stroke-width:1.0;"/><text fill="#000000" font-family="sans-serif" font-size="14" lengthAdjust="spacing" textLength="158" x="42" y="766.167">calculate_rho(): double</text></g></a><!--MD5=[09d38eb88e26ef8442812816352a2bfa]
class elki.svm.solver.Solver.SolutionInfo--><a href="Solver.SolutionInfo.html" target="_top" title="Solver.SolutionInfo.html" xlink:actuate="onRequest" xlink:href="Solver.SolutionInfo.html" xlink:show="new" xlink:title="Solver.SolutionInfo.html" xlink:type="simple"><g id="elem_elki.svm.solver.Solver.SolutionInfo"><rect codeLine="49" fill="#F1F1F1" height="145.7813" id="elki.svm.solver.Solver.SolutionInfo" rx="2.5" ry="2.5" style="stroke:#181818;stroke-width:0.5;" width="192" x="26" y="833"/><ellipse cx="55.85" cy="849" fill="#ADD1B2" rx="11" ry="11" style="stroke:#181818;stroke-width:1.0;"/><path d="M58.8188,854.6406 Q58.2406,854.9375 57.6,855.0781 Q56.9594,855.2344 56.2563,855.2344 Q53.7563,855.2344 52.4281,853.5938 Q51.1156,851.9375 51.1156,848.8125 Q51.1156,845.6875 52.4281,844.0313 Q53.7563,842.375 56.2563,842.375 Q56.9594,842.375 57.6,842.5313 Q58.2563,842.6875 58.8188,842.9844 L58.8188,845.7031 Q58.1938,845.125 57.6,844.8594 Q57.0063,844.5781 56.3813,844.5781 Q55.0375,844.5781 54.35,845.6563 Q53.6625,846.7188 53.6625,848.8125 Q53.6625,850.9063 54.35,851.9844 Q55.0375,853.0469 56.3813,853.0469 Q57.0063,853.0469 57.6,852.7813 Q58.1938,852.5 58.8188,851.9219 L58.8188,854.6406 Z " fill="#000000"/><text fill="#000000" font-family="sans-serif" font-size="14" lengthAdjust="spacing" textLength="127" x="73.15" y="853.8467">Solver.SolutionInfo</text><line style="stroke:#181818;stroke-width:0.5;" x1="27" x2="217" y1="865" y2="865"/><ellipse cx="37" cy="878.6484" fill="none" rx="3" ry="3" style="stroke:#038048;stroke-width:1.0;"/><text fill="#000000" font-family="sans-serif" font-size="14" lengthAdjust="spacing" textLength="78" x="46" y="881.9951">obj: double</text><ellipse cx="37" cy="894.9453" fill="none" rx="3" ry="3" style="stroke:#038048;stroke-width:1.0;"/><text fill="#000000" font-family="sans-serif" font-size="14" lengthAdjust="spacing" textLength="80" x="46" y="898.292">rho: double</text><ellipse cx="37" cy="911.2422" fill="none" rx="3" ry="3" style="stroke:#038048;stroke-width:1.0;"/><text fill="#000000" font-family="sans-serif" font-size="14" lengthAdjust="spacing" textLength="166" x="46" y="914.5889">upper_bound_p: double</text><ellipse cx="37" cy="927.5391" fill="none" rx="3" ry="3" style="stroke:#038048;stroke-width:1.0;"/><text fill="#000000" font-family="sans-serif" font-size="14" lengthAdjust="spacing" textLength="166" x="46" y="930.8857">upper_bound_n: double</text><ellipse cx="37" cy="943.8359" fill="none" rx="3" ry="3" style="stroke:#038048;stroke-width:1.0;"/><text fill="#000000" font-family="sans-serif" font-size="14" lengthAdjust="spacing" textLength="104" x="46" y="947.1826">alpha: double[]</text><ellipse cx="37" cy="960.1328" fill="none" rx="3" ry="3" style="stroke:#038048;stroke-width:1.0;"/><text fill="#000000" font-family="sans-serif" font-size="14" lengthAdjust="spacing" textLength="117" x="46" y="963.4795">r_square: double</text><line style="stroke:#181818;stroke-width:0.5;" x1="27" x2="217" y1="970.7813" y2="970.7813"/></g></a><!--MD5=[4bd548433b7388ace8474d4759136431]
class elki.svm.solver.NuSolver--><a href="NuSolver.html" target="_top" title="NuSolver.html" xlink:actuate="onRequest" xlink:href="NuSolver.html" xlink:show="new" xlink:title="NuSolver.html" xlink:type="simple"><g id="elem_elki.svm.solver.NuSolver"><rect codeLine="58" fill="#F1F1F1" height="129.4844" id="elki.svm.solver.NuSolver" rx="2.5" ry="2.5" style="stroke:#181818;stroke-width:0.5;" width="415" x="253.5" y="841.5"/><ellipse cx="426.25" cy="857.5" fill="#ADD1B2" rx="11" ry="11" style="stroke:#181818;stroke-width:1.0;"/><path d="M429.2188,863.1406 Q428.6406,863.4375 428,863.5781 Q427.3594,863.7344 426.6563,863.7344 Q424.1563,863.7344 422.8281,862.0938 Q421.5156,860.4375 421.5156,857.3125 Q421.5156,854.1875 422.8281,852.5313 Q424.1563,850.875 426.6563,850.875 Q427.3594,850.875 428,851.0313 Q428.6563,851.1875 429.2188,851.4844 L429.2188,854.2031 Q428.5938,853.625 428,853.3594 Q427.4063,853.0781 426.7813,853.0781 Q425.4375,853.0781 424.75,854.1563 Q424.0625,855.2188 424.0625,857.3125 Q424.0625,859.4063 424.75,860.4844 Q425.4375,861.5469 426.7813,861.5469 Q427.4063,861.5469 428,861.2813 Q428.5938,861 429.2188,860.4219 L429.2188,863.1406 Z " fill="#000000"/><text fill="#000000" font-family="sans-serif" font-size="14" lengthAdjust="spacing" textLength="61" x="446.75" y="862.3467">NuSolver</text><line style="stroke:#181818;stroke-width:0.5;" x1="254.5" x2="667.5" y1="873.5" y2="873.5"/><ellipse cx="264.5" cy="887.1484" fill="none" rx="3" ry="3" style="stroke:#038048;stroke-width:1.0;"/><text fill="#000000" font-family="sans-serif" font-size="14" lengthAdjust="spacing" textLength="62" x="273.5" y="890.4951">r: double</text><line style="stroke:#181818;stroke-width:0.5;" x1="254.5" x2="667.5" y1="897.7969" y2="897.7969"/><polygon fill="#4177AF" points="264.5,907.4453,260.5,913.4453,268.5,913.4453" style="stroke:#1963A0;stroke-width:1.0;"/><text fill="#000000" font-family="sans-serif" font-size="14" lengthAdjust="spacing" textLength="234" x="273.5" y="914.792">select_working_set(int[]): boolean</text><rect fill="#F24D5C" height="6" style="stroke:#C82930;stroke-width:1.0;" width="6" x="261.5" y="924.7422"/><text fill="#000000" font-family="sans-serif" font-size="14" lengthAdjust="spacing" textLength="389" x="273.5" y="931.0889">be_shrunk(int, double, double, double, double): boolean</text><polygon fill="#4177AF" points="264.5,940.0391,260.5,946.0391,268.5,946.0391" style="stroke:#1963A0;stroke-width:1.0;"/><text fill="#000000" font-family="sans-serif" font-size="14" lengthAdjust="spacing" textLength="135" x="273.5" y="947.3857">do_shrinking(): void</text><polygon fill="#4177AF" points="264.5,956.3359,260.5,962.3359,268.5,962.3359" style="stroke:#1963A0;stroke-width:1.0;"/><text fill="#000000" font-family="sans-serif" font-size="14" lengthAdjust="spacing" textLength="158" x="273.5" y="963.6826">calculate_rho(): double</text></g></a><!--MD5=[5319eed230132bdab4579d97d78a1548]
reverse link elki.svm.solver.Solver to elki.svm.solver.Solver.SolutionInfo--><g id="link_elki.svm.solver.Solver_elki.svm.solver.Solver.SolutionInfo"><path codeLine="66" d="M175.36,787.14 C167.93,803.55 160.98,818.9 154.71,832.74 " fill="none" id="elki.svm.solver.Solver-backto-elki.svm.solver.Solver.SolutionInfo" style="stroke:#181818;stroke-width:1.0;"/><ellipse cx="178.4093" cy="780.4074" fill="#FFFFFF" rx="8" ry="8" style="stroke:#181818;stroke-width:1.0;"/><line style="stroke:#181818;stroke-width:1.0;" x1="175.1087" x2="181.71" y1="787.6947" y2="773.12"/><line style="stroke:#181818;stroke-width:1.0;" x1="171.122" x2="185.6967" y1="777.1067" y2="783.708"/></g><!--MD5=[c823dc18e7f0dfcf77b71536bd5320e7]
reverse link elki.svm.solver.Solver to elki.svm.solver.NuSolver--><g id="link_elki.svm.solver.Solver_elki.svm.solver.NuSolver"><path codeLine="67" d="M435.26,792.77 C439.31,810.42 443.05,826.74 446.36,841.16 " fill="none" id="elki.svm.solver.Solver-backto-elki.svm.solver.NuSolver" style="stroke:#181818;stroke-width:1.0;"/><polygon fill="none" points="428.4,794.18,430.75,773.12,442.04,791.05,428.4,794.18" style="stroke:#181818;stroke-width:1.0;"/></g><rect fill="none" height="11.6406" style="stroke:none;stroke-width:1.0;" width="186" x="247.5" y="1001"/><text fill="#888888" font-family="sans-serif" font-size="10" lengthAdjust="spacing" textLength="186" x="247.5" y="1010.2822">UMLDoclet 2.0.19, PlantUML 1.2022.8</text><!--MD5=[c3ea2d2580c970e2638c887ab8d80938]
@startuml
    remove .*\.(Instance|Par|Parameterizer|Factory)$
    namespace elki.svm.solver {

        class Solver [[Solver.html]] {
            {static} -LOG: Logging
            ~active_size: int
            ~y: byte[]
            ~G: double[]
            {static} ~LOWER_BOUND: byte
            {static} ~UPPER_BOUND: byte
            {static} ~FREE: byte
            ~alpha_status: byte[]
            ~alpha: double[]
            ~Q: QMatrix
            ~eps: double
            ~Cp: double
            ~Cn: double
            ~p: double[]
            ~active_set: int[]
            ~G_bar: double[]
            ~Q_i: float[]
            ~Q_j: float[]
            ~l: int
            ~unshrink: boolean
            ~get_C(int): double
            ~update_alpha_status(int): void
            ~is_upper_bound(int): boolean
            ~is_lower_bound(int): boolean
            ~is_free(int): boolean
            ~swap_index(int, int): void
            ~reconstruct_gradient(): void
            +solve(int, QMatrix, double[], byte[], double[], double, double, double, boolean): SolutionInfo
            ~buildSolutionInfo(int, double, double): SolutionInfo
            #initializeAlpha(): void
            #initializeActiveSet(): void
            -update_G(int, int, double, double): void
            -update_G_bar(double, float[]): void
            +initializeGradient(): void
            #calculate_obj(): double
            {static} #nonzero(double): double
            ~select_working_set(int[]): boolean
            #maxViolating(int[]): double
            #minViolating(int[], double): double
            ~do_shrinking(): void
            -be_shrunk(int, double, double): boolean
            ~calculate_rho(): double
        }

        class elki.svm.solver.Solver.SolutionInfo [[Solver.SolutionInfo.html]] {
            +obj: double
            +rho: double
            +upper_bound_p: double
            +upper_bound_n: double
            +alpha: double[]
            +r_square: double
        }

        class NuSolver [[NuSolver.html]] {
            +r: double
            ~select_working_set(int[]): boolean
            -be_shrunk(int, double, double, double, double): boolean
            ~do_shrinking(): void
            ~calculate_rho(): double
        }

        Solver +- - elki.svm.solver.Solver.SolutionInfo
        Solver <|- - NuSolver
    }

    center footer UMLDoclet 2.0.19, PlantUML 1.2022.8
@enduml

PlantUML version 1.2022.8(Sun Sep 25 11:00:33 CEST 2022)
(APACHE source distribution)
Java Runtime: OpenJDK Runtime Environment
JVM: OpenJDK 64-Bit Server VM
Default Encoding: UTF-8
Language: de
Country: DE
--></g></svg>