<?xml version="1.0" encoding="UTF-8" standalone="no"?><svg xmlns="http://www.w3.org/2000/svg" xmlns:xlink="http://www.w3.org/1999/xlink" contentStyleType="text/css" height="72px" preserveAspectRatio="none" style="width:196px;height:72px;background:#FFFFFF;" version="1.1" viewBox="0 0 196 72" width="196px" zoomAndPan="magnify"><defs/><g><!--MD5=[e5ef0ce32ae6f9088aeb1bd41d645b1a]
class elki.index.lsh.InMemoryLSHIndex--><a href="InMemoryLSHIndex.html" target="_top" title="InMemoryLSHIndex.html" xlink:actuate="onRequest" xlink:href="InMemoryLSHIndex.html" xlink:show="new" xlink:title="InMemoryLSHIndex.html" xlink:type="simple"><g id="elem_elki.index.lsh.InMemoryLSHIndex"><rect codeLine="20" fill="#F1F1F1" height="37.9375" id="elki.index.lsh.InMemoryLSHIndex" rx="2.5" ry="2.5" style="stroke:#181818;stroke-width:0.5;" width="174" x="11" y="10"/><ellipse cx="26" cy="28.9688" fill="#ADD1B2" rx="11" ry="11" style="stroke:#181818;stroke-width:1.0;"/><path d="M28.9688,34.6094 Q28.3906,34.9063 27.75,35.0469 Q27.1094,35.2031 26.4063,35.2031 Q23.9063,35.2031 22.5781,33.5625 Q21.2656,31.9063 21.2656,28.7813 Q21.2656,25.6563 22.5781,24 Q23.9063,22.3438 26.4063,22.3438 Q27.1094,22.3438 27.75,22.5 Q28.4063,22.6563 28.9688,22.9531 L28.9688,25.6719 Q28.3438,25.0938 27.75,24.8281 Q27.1563,24.5469 26.5313,24.5469 Q25.1875,24.5469 24.5,25.625 Q23.8125,26.6875 23.8125,28.7813 Q23.8125,30.875 24.5,31.9531 Q25.1875,33.0156 26.5313,33.0156 Q27.1563,33.0156 27.75,32.75 Q28.3438,32.4688 28.9688,31.8906 L28.9688,34.6094 Z " fill="#000000"/><text fill="#000000" font-family="sans-serif" font-size="14" lengthAdjust="spacing" textLength="130" x="40" y="27.9951">InMemoryLSHIndex</text><text fill="#000000" font-family="sans-serif" font-size="10" lengthAdjust="spacing" textLength="60" x="75" y="40.5791">elki.index.lsh</text><rect fill="#FFFFFF" height="15.9688" style="stroke:#181818;stroke-width:1.0;stroke-dasharray:2.0,2.0;" width="10" x="178" y="7"/><text fill="#000000" font-family="sans-serif" font-size="12" font-style="italic" lengthAdjust="spacing" textLength="8" x="179" y="19.1387">V</text></g></a><rect fill="none" height="11.6406" style="stroke:none;stroke-width:1.0;" width="186" x="0" y="52.9375"/><text fill="#888888" font-family="sans-serif" font-size="10" lengthAdjust="spacing" textLength="186" x="0" y="62.2197">UMLDoclet 2.0.19, PlantUML 1.2022.8</text><!--MD5=[949c6fe7958814fb3290a606c01e4b8c]
@startuml
    remove .*\.(Instance|Par|Parameterizer|Factory)$
    set namespaceSeparator none
    hide empty fields
    hide empty methods

    class "<size:14>InMemoryLSHIndex.Par\n<size:10>elki.index.lsh" as elki.index.lsh.InMemoryLSHIndex.Par<V> [[InMemoryLSHIndex.Par.html]] {
        {static} +FAMILY_ID: OptionID
        {static} +L_ID: OptionID
        {static} +BUCKETS_ID: OptionID
        ~family: LocalitySensitiveHashFunctionFamily<? super V>
        ~l: int
        ~numberOfBuckets: int
        +configure(Parameterization): void
        +make(): InMemoryLSHIndex<V>
    }

    interface "<size:14>Parameterizer\n<size:10>elki.utilities.optionhandling" as elki.utilities.optionhandling.Parameterizer [[../../utilities/optionhandling/Parameterizer.html]] {
        {abstract} +make(): Object
    }
    class "<size:14>InMemoryLSHIndex\n<size:10>elki.index.lsh" as elki.index.lsh.InMemoryLSHIndex<V> [[InMemoryLSHIndex.html]]

    elki.utilities.optionhandling.Parameterizer <|.. elki.index.lsh.InMemoryLSHIndex.Par
    elki.index.lsh.InMemoryLSHIndex +- - elki.index.lsh.InMemoryLSHIndex.Par

    center footer UMLDoclet 2.0.19, PlantUML 1.2022.8
@enduml

PlantUML version 1.2022.8(Sun Sep 25 11:00:33 CEST 2022)
(APACHE source distribution)
Java Runtime: OpenJDK Runtime Environment
JVM: OpenJDK 64-Bit Server VM
Default Encoding: UTF-8
Language: de
Country: DE
--></g></svg>