<?xml version="1.0" encoding="UTF-8" standalone="no"?>
<!DOCTYPE svg PUBLIC "-//W3C//DTD SVG 1.1//EN"
 "http://www.w3.org/Graphics/SVG/1.1/DTD/svg11.dtd">
<!-- Generated by graphviz version 2.40.1 (20161225.0304)
 -->
<!-- Title: G Pages: 1 -->
<svg width="340pt" height="47pt"
 viewBox="0.00 0.00 340.00 47.00" xmlns="http://www.w3.org/2000/svg" xmlns:xlink="http://www.w3.org/1999/xlink">
<g id="graph0" class="graph" transform="scale(1 1) rotate(0) translate(4 43)">
<title>G</title>
<polygon fill="#ffffff" stroke="transparent" points="-4,4 -4,-43 336,-43 336,4 -4,4"/>
<!-- c1139902 -->
<g id="node1" class="node">
<title>c1139902</title>
<g id="a_node1"><a xlink:href="AbstractMTree.html" xlink:title="&lt;TABLE&gt;">
<g id="a_node1_0"><a xlink:href="AbstractMTree.html" xlink:title="de.lmu.ifi.dbs.elki.index.tree.metrical.mtreevariants.AbstractMTree" target="_parent">
<polygon fill="none" stroke="#000000" points="0,-10.5 0,-27.5 66,-27.5 66,-10.5 0,-10.5"/>
<text text-anchor="start" x="4" y="-18.1" font-family="Roboto" font-size="8.00" fill="#000000"> </text>
<text text-anchor="start" x="7" y="-18.1" font-family="Roboto" font-style="italic" font-size="8.00" fill="#000000">AbstractMTree</text>
<text text-anchor="start" x="59" y="-18.1" font-family="Roboto" font-size="8.00" fill="#000000"> </text>
</a>
</g>
</a>
</g>
</g>
<!-- c1139903 -->
<g id="node2" class="node">
<title>c1139903</title>
<g id="a_node2"><a xlink:href="AbstractMTree.Statistics.html" xlink:title="&lt;TABLE&gt;">
<g id="a_node2_1"><a xlink:href="AbstractMTree.Statistics.html" xlink:title="de.lmu.ifi.dbs.elki.index.tree.metrical.mtreevariants.AbstractMTree.Statistics" target="_parent">
<polygon fill="#fffacd" stroke="transparent" points="84,-11 84,-28 185,-28 185,-11 84,-11"/>
<polygon fill="none" stroke="#000000" points="84.5,-10.5 84.5,-27.5 185.5,-27.5 185.5,-10.5 84.5,-10.5"/>
<text text-anchor="start" x="88.5" y="-18.1" font-family="Roboto" font-size="8.00" fill="#000000"> </text>
<text text-anchor="start" x="91.5" y="-18.1" font-family="Roboto" font-size="8.00" fill="#000000">AbstractMTree.Statistics</text>
<text text-anchor="start" x="178.5" y="-18.1" font-family="Roboto" font-size="8.00" fill="#000000"> </text>
</a>
</g>
</a>
</g>
</g>
<!-- c1139902&#45;&gt;c1139903 -->
<g id="edge1" class="edge">
<title>c1139902&#45;&gt;c1139903</title>
<path fill="none" stroke="#000000" d="M78.2829,-19.5C80.1467,-19.5 82.0205,-19.5 83.894,-19.5"/>
<polygon fill="#000000" stroke="#000000" points="78.2349,-19.5001 72.2349,-23.5 66.2349,-19.5 72.2349,-15.5 78.2349,-19.5001"/>
</g>
<!-- c1140385 -->
<g id="node3" class="node">
<title>c1140385</title>
<g id="a_node3"><a xlink:href="../../../../logging/statistics/Counter.html" xlink:title="&lt;TABLE&gt;">
<g id="a_node3_2"><a xlink:href="../../../../logging/statistics/Counter.html" xlink:title="de.lmu.ifi.dbs.elki.logging.statistics.Counter" target="_parent">
<polygon fill="none" stroke="#000000" points="203.5,.5 203.5,-38.5 332.5,-38.5 332.5,.5 203.5,.5"/>
<text text-anchor="start" x="246.5" y="-28.1" font-family="Roboto" font-size="8.00" fill="#000000"> «interface» </text>
<text text-anchor="start" x="251" y="-18.1" font-family="Roboto" font-size="8.00" fill="#000000"> </text>
<text text-anchor="start" x="254" y="-18.1" font-family="Roboto" font-size="8.00" fill="#000000">Counter</text>
<text text-anchor="start" x="282" y="-18.1" font-family="Roboto" font-size="8.00" fill="#000000"> </text>
<text text-anchor="start" x="207.5" y="-7.1" font-family="Roboto" font-size="8.00" fill="#000000"> </text>
<text text-anchor="start" x="210.5" y="-7.1" font-family="Roboto" font-size="7.00" fill="#000000">de.lmu.ifi.dbs.elki.logging.statistics</text>
<text text-anchor="start" x="325.5" y="-7.1" font-family="Roboto" font-size="8.00" fill="#000000"> </text>
</a>
</g>
</a>
</g>
</g>
<!-- c1139903&#45;&gt;c1140385 -->
<g id="edge2" class="edge">
<title>c1139903&#45;&gt;c1140385</title>
<path fill="none" stroke="#000000" d="M197.4221,-19.5C199.1645,-19.5 200.9102,-19.5 202.6543,-19.5"/>
<polygon fill="#000000" stroke="#000000" points="197.161,-19.5001 191.161,-23.5 185.161,-19.5 191.161,-15.5 197.161,-19.5001"/>
</g>
</g>
</svg>
