<?xml version="1.0" encoding="UTF-8" standalone="no"?><svg xmlns="http://www.w3.org/2000/svg" xmlns:xlink="http://www.w3.org/1999/xlink" contentStyleType="text/css" height="417px" preserveAspectRatio="none" style="width:867px;height:417px;background:#FFFFFF;" version="1.1" viewBox="0 0 867 417" width="867px" zoomAndPan="magnify"><defs/><g><!--MD5=[84ea54dfd76b410c3c93d180c2947ce8]
cluster elki.visualization.style.lines--><g id="cluster_elki.visualization.style.lines"><path d="M8.5,6 L223.5,6 A3.75,3.75 0 0 1 226,8.5 L233,28.2969 L857.5,28.2969 A2.5,2.5 0 0 1 860,30.7969 L860,389.5 A2.5,2.5 0 0 1 857.5,392 L8.5,392 A2.5,2.5 0 0 1 6,389.5 L6,8.5 A2.5,2.5 0 0 1 8.5,6 " fill="none" style="stroke:#000000;stroke-width:1.5;"/><line style="stroke:#000000;stroke-width:1.5;" x1="6" x2="233" y1="28.2969" y2="28.2969"/><text fill="#000000" font-family="sans-serif" font-size="14" font-weight="bold" lengthAdjust="spacing" textLength="214" x="10" y="20.9951">elki.visualization.style.lines</text></g><!--MD5=[f8e6565fdf5d86b7fe0b7c5725717245]
class elki.visualization.style.lines.DashedLineStyleLibrary--><a href="DashedLineStyleLibrary.html" target="_top" title="DashedLineStyleLibrary.html" xlink:actuate="onRequest" xlink:href="DashedLineStyleLibrary.html" xlink:show="new" xlink:title="DashedLineStyleLibrary.html" xlink:type="simple"><g id="elem_elki.visualization.style.lines.DashedLineStyleLibrary"><rect codeLine="4" fill="#F1F1F1" height="162.0781" id="elki.visualization.style.lines.DashedLineStyleLibrary" rx="2.5" ry="2.5" style="stroke:#181818;stroke-width:0.5;" width="393" x="22.5" y="214"/><ellipse cx="135.25" cy="230" fill="#ADD1B2" rx="11" ry="11" style="stroke:#181818;stroke-width:1.0;"/><path d="M138.2188,235.6406 Q137.6406,235.9375 137,236.0781 Q136.3594,236.2344 135.6563,236.2344 Q133.1563,236.2344 131.8281,234.5938 Q130.5156,232.9375 130.5156,229.8125 Q130.5156,226.6875 131.8281,225.0313 Q133.1563,223.375 135.6563,223.375 Q136.3594,223.375 137,223.5313 Q137.6563,223.6875 138.2188,223.9844 L138.2188,226.7031 Q137.5938,226.125 137,225.8594 Q136.4063,225.5781 135.7813,225.5781 Q134.4375,225.5781 133.75,226.6563 Q133.0625,227.7188 133.0625,229.8125 Q133.0625,231.9063 133.75,232.9844 Q134.4375,234.0469 135.7813,234.0469 Q136.4063,234.0469 137,233.7813 Q137.5938,233.5 138.2188,232.9219 L138.2188,235.6406 Z " fill="#000000"/><text fill="#000000" font-family="sans-serif" font-size="14" lengthAdjust="spacing" textLength="159" x="155.75" y="234.8467">DashedLineStyleLibrary</text><line style="stroke:#181818;stroke-width:0.5;" x1="23.5" x2="414.5" y1="246" y2="246"/><rect fill="none" height="6" style="stroke:#C82930;stroke-width:1.0;" width="6" x="30.5" y="256.6484"/><text fill="#000000" font-family="sans-serif" font-size="14" lengthAdjust="spacing" textLength="131" x="42.5" y="262.9951">colors: ColorLibrary</text><rect fill="none" height="6" style="stroke:#C82930;stroke-width:1.0;" width="6" x="30.5" y="272.9453"/><text fill="#000000" font-family="sans-serif" font-size="14" lengthAdjust="spacing" textLength="159" x="42.5" y="279.292">dashpatterns: double[]</text><rect fill="none" height="6" style="stroke:#C82930;stroke-width:1.0;" width="6" x="30.5" y="289.2422"/><text fill="#000000" font-family="sans-serif" font-size="14" lengthAdjust="spacing" textLength="186" x="42.5" y="295.5889">solidreplacement: double[]</text><rect fill="none" height="6" style="stroke:#C82930;stroke-width:1.0;" width="6" x="30.5" y="305.5391"/><text fill="#000000" font-family="sans-serif" font-size="14" lengthAdjust="spacing" textLength="106" x="42.5" y="311.8857">dotcolor: String</text><rect fill="none" height="6" style="stroke:#C82930;stroke-width:1.0;" width="6" x="30.5" y="321.8359"/><text fill="#000000" font-family="sans-serif" font-size="14" lengthAdjust="spacing" textLength="112" x="42.5" y="328.1826">graycolor: String</text><line style="stroke:#181818;stroke-width:0.5;" x1="23.5" x2="414.5" y1="335.4844" y2="335.4844"/><ellipse cx="33.5" cy="349.1328" fill="#84BE84" rx="3" ry="3" style="stroke:#038048;stroke-width:1.0;"/><text fill="#000000" font-family="sans-serif" font-size="14" lengthAdjust="spacing" textLength="246" x="42.5" y="352.4795">DashedLineStyleLibrary(StyleLibrary)</text><ellipse cx="33.5" cy="365.4297" fill="#84BE84" rx="3" ry="3" style="stroke:#038048;stroke-width:1.0;"/><text fill="#000000" font-family="sans-serif" font-size="14" lengthAdjust="spacing" textLength="367" x="42.5" y="368.7764">formatCSSClass(CSSClass, int, double, Object...): void</text></g></a><!--MD5=[0c788e6602390b2585aa122731cad275]
class elki.visualization.style.lines.SolidLineStyleLibrary--><a href="SolidLineStyleLibrary.html" target="_top" title="SolidLineStyleLibrary.html" xlink:actuate="onRequest" xlink:href="SolidLineStyleLibrary.html" xlink:show="new" xlink:title="SolidLineStyleLibrary.html" xlink:type="simple"><g id="elem_elki.visualization.style.lines.SolidLineStyleLibrary"><rect codeLine="14" fill="#F1F1F1" height="129.4844" id="elki.visualization.style.lines.SolidLineStyleLibrary" rx="2.5" ry="2.5" style="stroke:#181818;stroke-width:0.5;" width="393" x="450.5" y="230.5"/><ellipse cx="573.75" cy="246.5" fill="#ADD1B2" rx="11" ry="11" style="stroke:#181818;stroke-width:1.0;"/><path d="M576.7188,252.1406 Q576.1406,252.4375 575.5,252.5781 Q574.8594,252.7344 574.1563,252.7344 Q571.6563,252.7344 570.3281,251.0938 Q569.0156,249.4375 569.0156,246.3125 Q569.0156,243.1875 570.3281,241.5313 Q571.6563,239.875 574.1563,239.875 Q574.8594,239.875 575.5,240.0313 Q576.1563,240.1875 576.7188,240.4844 L576.7188,243.2031 Q576.0938,242.625 575.5,242.3594 Q574.9063,242.0781 574.2813,242.0781 Q572.9375,242.0781 572.25,243.1563 Q571.5625,244.2188 571.5625,246.3125 Q571.5625,248.4063 572.25,249.4844 Q572.9375,250.5469 574.2813,250.5469 Q574.9063,250.5469 575.5,250.2813 Q576.0938,250 576.7188,249.4219 L576.7188,252.1406 Z " fill="#000000"/><text fill="#000000" font-family="sans-serif" font-size="14" lengthAdjust="spacing" textLength="138" x="594.25" y="251.3467">SolidLineStyleLibrary</text><line style="stroke:#181818;stroke-width:0.5;" x1="451.5" x2="842.5" y1="262.5" y2="262.5"/><rect fill="none" height="6" style="stroke:#C82930;stroke-width:1.0;" width="6" x="458.5" y="273.1484"/><text fill="#000000" font-family="sans-serif" font-size="14" lengthAdjust="spacing" textLength="131" x="470.5" y="279.4951">colors: ColorLibrary</text><rect fill="none" height="6" style="stroke:#C82930;stroke-width:1.0;" width="6" x="458.5" y="289.4453"/><text fill="#000000" font-family="sans-serif" font-size="14" lengthAdjust="spacing" textLength="106" x="470.5" y="295.792">dotcolor: String</text><rect fill="none" height="6" style="stroke:#C82930;stroke-width:1.0;" width="6" x="458.5" y="305.7422"/><text fill="#000000" font-family="sans-serif" font-size="14" lengthAdjust="spacing" textLength="112" x="470.5" y="312.0889">graycolor: String</text><line style="stroke:#181818;stroke-width:0.5;" x1="451.5" x2="842.5" y1="319.3906" y2="319.3906"/><ellipse cx="461.5" cy="333.0391" fill="#84BE84" rx="3" ry="3" style="stroke:#038048;stroke-width:1.0;"/><text fill="#000000" font-family="sans-serif" font-size="14" lengthAdjust="spacing" textLength="225" x="470.5" y="336.3857">SolidLineStyleLibrary(StyleLibrary)</text><ellipse cx="461.5" cy="349.3359" fill="#84BE84" rx="3" ry="3" style="stroke:#038048;stroke-width:1.0;"/><text fill="#000000" font-family="sans-serif" font-size="14" lengthAdjust="spacing" textLength="367" x="470.5" y="352.6826">formatCSSClass(CSSClass, int, double, Object...): void</text></g></a><!--MD5=[6a2be1fde9b90d4ddbbf5884b382fc2f]
class elki.visualization.style.lines.LineStyleLibrary--><a href="LineStyleLibrary.html" target="_top" title="LineStyleLibrary.html" xlink:actuate="onRequest" xlink:href="LineStyleLibrary.html" xlink:show="new" xlink:title="LineStyleLibrary.html" xlink:type="simple"><g id="elem_elki.visualization.style.lines.LineStyleLibrary"><rect codeLine="22" fill="#F1F1F1" height="113.1875" id="elki.visualization.style.lines.LineStyleLibrary" rx="2.5" ry="2.5" style="stroke:#181818;stroke-width:0.5;" width="401" x="232.5" y="41"/><ellipse cx="372.25" cy="57" fill="#B4A7E5" rx="11" ry="11" style="stroke:#181818;stroke-width:1.0;"/><path d="M368.1719,52.7656 L368.1719,50.6094 L375.5625,50.6094 L375.5625,52.7656 L373.0938,52.7656 L373.0938,60.8438 L375.5625,60.8438 L375.5625,63 L368.1719,63 L368.1719,60.8438 L370.6406,60.8438 L370.6406,52.7656 L368.1719,52.7656 Z " fill="#000000"/><text fill="#000000" font-family="sans-serif" font-size="14" font-style="italic" lengthAdjust="spacing" textLength="113" x="392.75" y="61.8467">LineStyleLibrary</text><line style="stroke:#181818;stroke-width:0.5;" x1="233.5" x2="632.5" y1="73" y2="73"/><ellipse cx="243.5" cy="86.6484" fill="none" rx="3" ry="3" style="stroke:#038048;stroke-width:1.0;"/><text fill="#000000" font-family="sans-serif" font-size="14" lengthAdjust="spacing" text-decoration="underline" textLength="151" x="252.5" y="89.9951">FLAG_STRONG: String</text><ellipse cx="243.5" cy="102.9453" fill="none" rx="3" ry="3" style="stroke:#038048;stroke-width:1.0;"/><text fill="#000000" font-family="sans-serif" font-size="14" lengthAdjust="spacing" text-decoration="underline" textLength="131" x="252.5" y="106.292">FLAG_WEAK: String</text><ellipse cx="243.5" cy="119.2422" fill="none" rx="3" ry="3" style="stroke:#038048;stroke-width:1.0;"/><text fill="#000000" font-family="sans-serif" font-size="14" lengthAdjust="spacing" text-decoration="underline" textLength="197" x="252.5" y="122.5889">FLAG_INTERPOLATED: String</text><line style="stroke:#181818;stroke-width:0.5;" x1="233.5" x2="632.5" y1="129.8906" y2="129.8906"/><ellipse cx="243.5" cy="143.5391" fill="#84BE84" rx="3" ry="3" style="stroke:#038048;stroke-width:1.0;"/><text fill="#000000" font-family="sans-serif" font-size="14" font-style="italic" lengthAdjust="spacing" textLength="375" x="252.5" y="146.8857">formatCSSClass(CSSClass, int, double, Object...): void</text></g></a><!--MD5=[ea12d93e0338ff3f1a3ecc06cc0a8b34]
reverse link elki.visualization.style.lines.LineStyleLibrary to elki.visualization.style.lines.DashedLineStyleLibrary--><g id="link_elki.visualization.style.lines.LineStyleLibrary_elki.visualization.style.lines.DashedLineStyleLibrary"><path codeLine="29" d="M357.07,167.87 C340.82,182.72 323.52,198.52 306.85,213.74 " fill="none" id="elki.visualization.style.lines.LineStyleLibrary-backto-elki.visualization.style.lines.DashedLineStyleLibrary" style="stroke:#181818;stroke-width:1.0;stroke-dasharray:7.0,7.0;"/><polygon fill="none" points="352.48,162.58,371.96,154.26,361.92,172.92,352.48,162.58" style="stroke:#181818;stroke-width:1.0;"/></g><!--MD5=[e95cacdd7e7cd5ee18a186c31c069ef8]
reverse link elki.visualization.style.lines.LineStyleLibrary to elki.visualization.style.lines.SolidLineStyleLibrary--><g id="link_elki.visualization.style.lines.LineStyleLibrary_elki.visualization.style.lines.SolidLineStyleLibrary"><path codeLine="30" d="M509.05,167.97 C531.25,188.26 555.41,210.32 577.2,230.24 " fill="none" id="elki.visualization.style.lines.LineStyleLibrary-backto-elki.visualization.style.lines.SolidLineStyleLibrary" style="stroke:#181818;stroke-width:1.0;stroke-dasharray:7.0,7.0;"/><polygon fill="none" points="504.08,172.92,494.04,154.26,513.52,162.58,504.08,172.92" style="stroke:#181818;stroke-width:1.0;"/></g><rect fill="none" height="11.6406" style="stroke:none;stroke-width:1.0;" width="186" x="333.5" y="398"/><text fill="#888888" font-family="sans-serif" font-size="10" lengthAdjust="spacing" textLength="186" x="333.5" y="407.2822">UMLDoclet 2.0.19, PlantUML 1.2022.8</text><!--MD5=[b9912d7f72c5671b9229d31d028ae1b1]
@startuml
    remove .*\.(Instance|Par|Parameterizer|Factory)$
    namespace elki.visualization.style.lines {

        class DashedLineStyleLibrary [[DashedLineStyleLibrary.html]] {
            -colors: ColorLibrary
            -dashpatterns: double[]
            -solidreplacement: double[]
            -dotcolor: String
            -graycolor: String
            +DashedLineStyleLibrary(StyleLibrary)
            +formatCSSClass(CSSClass, int, double, Object...): void
        }

        class SolidLineStyleLibrary [[SolidLineStyleLibrary.html]] {
            -colors: ColorLibrary
            -dotcolor: String
            -graycolor: String
            +SolidLineStyleLibrary(StyleLibrary)
            +formatCSSClass(CSSClass, int, double, Object...): void
        }

        interface LineStyleLibrary [[LineStyleLibrary.html]] {
            {static} +FLAG_STRONG: String
            {static} +FLAG_WEAK: String
            {static} +FLAG_INTERPOLATED: String
            {abstract} +formatCSSClass(CSSClass, int, double, Object...): void
        }

        LineStyleLibrary <|.. DashedLineStyleLibrary
        LineStyleLibrary <|.. SolidLineStyleLibrary
    }

    center footer UMLDoclet 2.0.19, PlantUML 1.2022.8
@enduml

PlantUML version 1.2022.8(Sun Sep 25 11:00:33 CEST 2022)
(APACHE source distribution)
Java Runtime: OpenJDK Runtime Environment
JVM: OpenJDK 64-Bit Server VM
Default Encoding: UTF-8
Language: de
Country: DE
--></g></svg>