<?xml version="1.0" encoding="UTF-8" standalone="no"?>
<!DOCTYPE svg PUBLIC "-//W3C//DTD SVG 1.1//EN"
 "http://www.w3.org/Graphics/SVG/1.1/DTD/svg11.dtd">
<!-- Generated by graphviz version 2.40.1 (20161225.0304)
 -->
<!-- Title: G Pages: 1 -->
<svg width="343pt" height="36pt"
 viewBox="0.00 0.00 343.00 36.00" xmlns="http://www.w3.org/2000/svg" xmlns:xlink="http://www.w3.org/1999/xlink">
<g id="graph0" class="graph" transform="scale(1 1) rotate(0) translate(4 32)">
<title>G</title>
<polygon fill="#ffffff" stroke="transparent" points="-4,4 -4,-32 339,-32 339,4 -4,4"/>
<!-- c1958594 -->
<g id="node1" class="node">
<title>c1958594</title>
<g id="a_node1"><a xlink:href="../../RTreeSettings.html" xlink:title="&lt;TABLE&gt;">
<g id="a_node1_0"><a xlink:href="../../RTreeSettings.html" xlink:title="de.lmu.ifi.dbs.elki.index.tree.spatial.rstarvariants.RTreeSettings" target="_parent">
<polygon fill="none" stroke="#000000" points=".5,0 .5,-28 173.5,-28 173.5,0 .5,0"/>
<text text-anchor="start" x="59.5" y="-18.6" font-family="Roboto" font-size="8.00" fill="#000000"> </text>
<text text-anchor="start" x="62.5" y="-18.6" font-family="Roboto" font-size="8.00" fill="#000000">RTreeSettings</text>
<text text-anchor="start" x="111.5" y="-18.6" font-family="Roboto" font-size="8.00" fill="#000000"> </text>
<text text-anchor="start" x="4.5" y="-7.6" font-family="Roboto" font-size="8.00" fill="#000000"> </text>
<text text-anchor="start" x="7.5" y="-7.6" font-family="Roboto" font-size="7.00" fill="#000000">de.lmu.ifi.dbs.elki.index.tree.spatial.rstarvariants</text>
<text text-anchor="start" x="166.5" y="-7.6" font-family="Roboto" font-size="8.00" fill="#000000"> </text>
</a>
</g>
</a>
</g>
</g>
<!-- c1958619 -->
<g id="node3" class="node">
<title>c1958619</title>
<g id="a_node3"><a xlink:href="BulkSplit.html" xlink:title="&lt;TABLE&gt;">
<g id="a_node3_1"><a xlink:href="BulkSplit.html" xlink:title="de.lmu.ifi.dbs.elki.index.tree.spatial.rstarvariants.strategies.bulk.BulkSplit" target="_parent">
<polygon fill="#fffacd" stroke="transparent" points="191,0 191,-28 242,-28 242,0 191,0"/>
<polygon fill="none" stroke="#000000" points="191.5,0 191.5,-28 242.5,-28 242.5,0 191.5,0"/>
<text text-anchor="start" x="195.5" y="-17.6" font-family="Roboto" font-size="8.00" fill="#000000"> «interface» </text>
<text text-anchor="start" x="197.5" y="-7.6" font-family="Roboto" font-size="8.00" fill="#000000"> </text>
<text text-anchor="start" x="200.5" y="-7.6" font-family="Roboto" font-size="8.00" fill="#000000">BulkSplit</text>
<text text-anchor="start" x="233.5" y="-7.6" font-family="Roboto" font-size="8.00" fill="#000000"> </text>
</a>
</g>
</a>
</g>
</g>
<!-- c1958594&#45;&gt;c1958619 -->
<g id="edge1" class="edge">
<title>c1958594&#45;&gt;c1958619</title>
<path fill="none" stroke="#000000" d="M185.3931,-14C187.1504,-14 188.8619,-14 190.5196,-14"/>
<polygon fill="#000000" stroke="#000000" points="185.2119,-14.0001 179.2118,-18 173.2119,-14 179.2119,-10 185.2119,-14.0001"/>
</g>
<!-- c1958618 -->
<g id="node2" class="node">
<title>c1958618</title>
<g id="a_node2"><a xlink:href="AbstractBulkSplit.html" xlink:title="&lt;TABLE&gt;">
<g id="a_node2_2"><a xlink:href="AbstractBulkSplit.html" xlink:title="de.lmu.ifi.dbs.elki.index.tree.spatial.rstarvariants.strategies.bulk.AbstractBulkSplit" target="_parent">
<polygon fill="none" stroke="#000000" points="260.5,-5 260.5,-22 335.5,-22 335.5,-5 260.5,-5"/>
<text text-anchor="start" x="264.5" y="-12.6" font-family="Roboto" font-size="8.00" fill="#000000"> </text>
<text text-anchor="start" x="267.5" y="-12.6" font-family="Roboto" font-style="italic" font-size="8.00" fill="#000000">AbstractBulkSplit</text>
<text text-anchor="start" x="328.5" y="-12.6" font-family="Roboto" font-size="8.00" fill="#000000"> </text>
</a>
</g>
</a>
</g>
</g>
<!-- c1958619&#45;&gt;c1958618 -->
<g id="edge2" class="edge">
<title>c1958619&#45;&gt;c1958618</title>
<path fill="none" stroke="#000000" stroke-dasharray="5,2" d="M252.2829,-14C254.812,-14 257.3661,-14 259.9048,-14"/>
<polygon fill="none" stroke="#000000" points="252.1289,-10.5001 242.1289,-14 252.1289,-17.5001 252.1289,-10.5001"/>
</g>
</g>
</svg>
