<?xml version="1.0" encoding="UTF-8" standalone="no"?><svg xmlns="http://www.w3.org/2000/svg" xmlns:xlink="http://www.w3.org/1999/xlink" contentStyleType="text/css" height="273px" preserveAspectRatio="none" style="width:409px;height:273px;background:#FFFFFF;" version="1.1" viewBox="0 0 409 273" width="409px" zoomAndPan="magnify"><defs/><g><!--MD5=[26d3b6f134380ebae76d1f29216b8534]
class elki.datasource.filter.FixedDBIDsFilter--><a href="FixedDBIDsFilter.html" target="_top" title="FixedDBIDsFilter.html" xlink:actuate="onRequest" xlink:href="FixedDBIDsFilter.html" xlink:show="new" xlink:title="FixedDBIDsFilter.html" xlink:type="simple"><g id="elem_elki.datasource.filter.FixedDBIDsFilter"><rect codeLine="6" fill="#F1F1F1" height="119.125" id="elki.datasource.filter.FixedDBIDsFilter" rx="2.5" ry="2.5" style="stroke:#181818;stroke-width:0.5;" width="384" x="12.5" y="129"/><ellipse cx="144.25" cy="147.9688" fill="#ADD1B2" rx="11" ry="11" style="stroke:#181818;stroke-width:1.0;"/><path d="M147.2188,153.6094 Q146.6406,153.9063 146,154.0469 Q145.3594,154.2031 144.6563,154.2031 Q142.1563,154.2031 140.8281,152.5625 Q139.5156,150.9063 139.5156,147.7813 Q139.5156,144.6563 140.8281,143 Q142.1563,141.3438 144.6563,141.3438 Q145.3594,141.3438 146,141.5 Q146.6563,141.6563 147.2188,141.9531 L147.2188,144.6719 Q146.5938,144.0938 146,143.8281 Q145.4063,143.5469 144.7813,143.5469 Q143.4375,143.5469 142.75,144.625 Q142.0625,145.6875 142.0625,147.7813 Q142.0625,149.875 142.75,150.9531 Q143.4375,152.0156 144.7813,152.0156 Q145.4063,152.0156 146,151.75 Q146.5938,151.4688 147.2188,150.8906 L147.2188,153.6094 Z " fill="#000000"/><text fill="#000000" font-family="sans-serif" font-size="14" lengthAdjust="spacing" textLength="112" x="164.75" y="146.9951">FixedDBIDsFilter</text><text fill="#000000" font-family="sans-serif" font-size="10" lengthAdjust="spacing" textLength="97" x="172.25" y="159.5791">elki.datasource.filter</text><line style="stroke:#181818;stroke-width:0.5;" x1="13.5" x2="395.5" y1="166.9375" y2="166.9375"/><polygon fill="none" points="23.5,176.5859,19.5,182.5859,27.5,182.5859" style="stroke:#1963A0;stroke-width:1.0;"/><text fill="#000000" font-family="sans-serif" font-size="14" lengthAdjust="spacing" textLength="127" x="32.5" y="183.9326">meta: BundleMeta</text><polygon fill="none" points="23.5,192.8828,19.5,198.8828,27.5,198.8828" style="stroke:#1963A0;stroke-width:1.0;"/><text fill="#000000" font-family="sans-serif" font-size="14" lengthAdjust="spacing" textLength="60" x="32.5" y="200.2295">curid: int</text><line style="stroke:#181818;stroke-width:0.5;" x1="13.5" x2="395.5" y1="207.5313" y2="207.5313"/><ellipse cx="23.5" cy="221.1797" fill="#84BE84" rx="3" ry="3" style="stroke:#038048;stroke-width:1.0;"/><text fill="#000000" font-family="sans-serif" font-size="14" lengthAdjust="spacing" textLength="139" x="32.5" y="224.5264">FixedDBIDsFilter(int)</text><ellipse cx="23.5" cy="237.4766" fill="#84BE84" rx="3" ry="3" style="stroke:#038048;stroke-width:1.0;"/><text fill="#000000" font-family="sans-serif" font-size="14" lengthAdjust="spacing" textLength="358" x="32.5" y="240.8232">filter(MultipleObjectsBundle): MultipleObjectsBundle</text></g></a><!--MD5=[2502255f6ec676c003de073264617d05]
class elki.datasource.filter.ObjectFilter--><a href="ObjectFilter.html" target="_top" title="ObjectFilter.html" xlink:actuate="onRequest" xlink:href="ObjectFilter.html" xlink:show="new" xlink:title="ObjectFilter.html" xlink:type="simple"><g id="elem_elki.datasource.filter.ObjectFilter"><rect codeLine="13" fill="#F1F1F1" height="62.2344" id="elki.datasource.filter.ObjectFilter" rx="2.5" ry="2.5" style="stroke:#181818;stroke-width:0.5;" width="395" x="7" y="7"/><ellipse cx="148.75" cy="25.9688" fill="#B4A7E5" rx="11" ry="11" style="stroke:#181818;stroke-width:1.0;"/><path d="M144.6719,21.7344 L144.6719,19.5781 L152.0625,19.5781 L152.0625,21.7344 L149.5938,21.7344 L149.5938,29.8125 L152.0625,29.8125 L152.0625,31.9688 L144.6719,31.9688 L144.6719,29.8125 L147.1406,29.8125 L147.1406,21.7344 L144.6719,21.7344 Z " fill="#000000"/><text fill="#000000" font-family="sans-serif" font-size="14" font-style="italic" lengthAdjust="spacing" textLength="81" x="180.25" y="24.9951">ObjectFilter</text><text fill="#000000" font-family="sans-serif" font-size="10" font-style="italic" lengthAdjust="spacing" textLength="103" x="169.25" y="37.5791">elki.datasource.filter</text><line style="stroke:#181818;stroke-width:0.5;" x1="8" x2="401" y1="44.9375" y2="44.9375"/><ellipse cx="18" cy="58.5859" fill="#84BE84" rx="3" ry="3" style="stroke:#038048;stroke-width:1.0;"/><text fill="#000000" font-family="sans-serif" font-size="14" font-style="italic" lengthAdjust="spacing" textLength="369" x="27" y="61.9326">filter(MultipleObjectsBundle): MultipleObjectsBundle</text></g></a><!--MD5=[c65f77255e1ce8c4022eda807d56a325]
reverse link elki.datasource.filter.ObjectFilter to elki.datasource.filter.FixedDBIDsFilter--><g id="link_elki.datasource.filter.ObjectFilter_elki.datasource.filter.FixedDBIDsFilter"><path codeLine="18" d="M204.5,89.22 C204.5,101.98 204.5,115.81 204.5,128.95 " fill="none" id="elki.datasource.filter.ObjectFilter-backto-elki.datasource.filter.FixedDBIDsFilter" style="stroke:#181818;stroke-width:1.0;stroke-dasharray:7.0,7.0;"/><polygon fill="none" points="197.5,89.05,204.5,69.05,211.5,89.05,197.5,89.05" style="stroke:#181818;stroke-width:1.0;"/></g><rect fill="none" height="11.6406" style="stroke:none;stroke-width:1.0;" width="186" x="104.5" y="254.125"/><text fill="#888888" font-family="sans-serif" font-size="10" lengthAdjust="spacing" textLength="186" x="104.5" y="263.4072">UMLDoclet 2.0.19, PlantUML 1.2022.8</text><!--MD5=[bb2fc9c9e14a49449ae139378b74d966]
@startuml
    remove .*\.(Instance|Par|Parameterizer|Factory)$
    set namespaceSeparator none
    hide empty fields
    hide empty methods

    class "<size:14>FixedDBIDsFilter\n<size:10>elki.datasource.filter" as elki.datasource.filter.FixedDBIDsFilter [[FixedDBIDsFilter.html]] {
        ~meta: BundleMeta
        ~curid: int
        +FixedDBIDsFilter(int)
        +filter(MultipleObjectsBundle): MultipleObjectsBundle
    }

    interface "<size:14>ObjectFilter\n<size:10>elki.datasource.filter" as elki.datasource.filter.ObjectFilter [[ObjectFilter.html]] {
        {abstract} +filter(MultipleObjectsBundle): MultipleObjectsBundle
    }
    class "<size:14>FixedDBIDsFilter.Par\n<size:10>elki.datasource.filter" as elki.datasource.filter.FixedDBIDsFilter.Par [[FixedDBIDsFilter.Par.html]]

    elki.datasource.filter.ObjectFilter <|.. elki.datasource.filter.FixedDBIDsFilter
    elki.datasource.filter.FixedDBIDsFilter +- - elki.datasource.filter.FixedDBIDsFilter.Par

    center footer UMLDoclet 2.0.19, PlantUML 1.2022.8
@enduml

PlantUML version 1.2022.8(Sun Sep 25 11:00:33 CEST 2022)
(APACHE source distribution)
Java Runtime: OpenJDK Runtime Environment
JVM: OpenJDK 64-Bit Server VM
Default Encoding: UTF-8
Language: de
Country: DE
--></g></svg>