<?xml version="1.0" encoding="UTF-8" standalone="no"?>
<!DOCTYPE svg PUBLIC "-//W3C//DTD SVG 1.1//EN"
 "http://www.w3.org/Graphics/SVG/1.1/DTD/svg11.dtd">
<!-- Generated by graphviz version 2.40.1 (20161225.0304)
 -->
<!-- Title: G Pages: 1 -->
<svg width="303pt" height="87pt"
 viewBox="0.00 0.00 303.00 86.50" xmlns="http://www.w3.org/2000/svg" xmlns:xlink="http://www.w3.org/1999/xlink">
<g id="graph0" class="graph" transform="scale(1 1) rotate(0) translate(4 82.5)">
<title>G</title>
<polygon fill="#ffffff" stroke="transparent" points="-4,4 -4,-82.5 299,-82.5 299,4 -4,4"/>
<!-- c3486400 -->
<g id="node1" class="node">
<title>c3486400</title>
<g id="a_node1"><a xlink:href="../iterator/Iter.html" xlink:title="&lt;TABLE&gt;">
<g id="a_node1_0"><a xlink:href="../iterator/Iter.html" xlink:title="de.lmu.ifi.dbs.elki.utilities.datastructures.iterator.Iter" target="_parent">
<polygon fill="#fffacd" stroke="transparent" points="0,-39.5 0,-78.5 174,-78.5 174,-39.5 0,-39.5"/>
<polygon fill="none" stroke="#000000" points="0,-39 0,-78 174,-78 174,-39 0,-39"/>
<text text-anchor="start" x="65.5" y="-67.6" font-family="Roboto" font-size="8.00" fill="#000000"> «interface» </text>
<text text-anchor="start" x="78" y="-57.6" font-family="Roboto" font-size="8.00" fill="#000000"> </text>
<text text-anchor="start" x="81" y="-57.6" font-family="Roboto" font-size="8.00" fill="#000000">Iter</text>
<text text-anchor="start" x="93" y="-57.6" font-family="Roboto" font-size="8.00" fill="#000000"> </text>
<text text-anchor="start" x="4" y="-46.6" font-family="Roboto" font-size="8.00" fill="#000000"> </text>
<text text-anchor="start" x="7" y="-46.6" font-family="Roboto" font-size="7.00" fill="#000000">de.lmu.ifi.dbs.elki.utilities.datastructures.iterator</text>
<text text-anchor="start" x="167" y="-46.6" font-family="Roboto" font-size="8.00" fill="#000000"> </text>
</a>
</g>
</a>
</g>
</g>
<!-- c3486465 -->
<g id="node3" class="node">
<title>c3486465</title>
<g id="a_node3"><a xlink:href="DoubleHeap.UnsortedIter.html" xlink:title="&lt;TABLE&gt;">
<g id="a_node3_1"><a xlink:href="DoubleHeap.UnsortedIter.html" xlink:title="de.lmu.ifi.dbs.elki.utilities.datastructures.heap.DoubleHeap.UnsortedIter" target="_parent">
<polygon fill="#fffacd" stroke="transparent" points="192,-45 192,-73 295,-73 295,-45 192,-45"/>
<polygon fill="none" stroke="#000000" points="192.5,-45 192.5,-73 295.5,-73 295.5,-45 192.5,-45"/>
<text text-anchor="start" x="222.5" y="-62.6" font-family="Roboto" font-size="8.00" fill="#000000"> «interface» </text>
<text text-anchor="start" x="196.5" y="-52.6" font-family="Roboto" font-size="8.00" fill="#000000"> </text>
<text text-anchor="start" x="199.5" y="-52.6" font-family="Roboto" font-size="8.00" fill="#000000">DoubleHeap.UnsortedIter</text>
<text text-anchor="start" x="288.5" y="-52.6" font-family="Roboto" font-size="8.00" fill="#000000"> </text>
</a>
</g>
</a>
</g>
</g>
<!-- c3486400&#45;&gt;c3486465 -->
<g id="edge2" class="edge">
<title>c3486400&#45;&gt;c3486465</title>
<path fill="none" stroke="#000000" stroke-dasharray="5,2" d="M184.5055,-59C186.9335,-59 189.3351,-59 191.7002,-59"/>
<polygon fill="none" stroke="#000000" points="184.4013,-55.5001 174.4013,-59 184.4012,-62.5001 184.4013,-55.5001"/>
</g>
<!-- c3486464 -->
<g id="node2" class="node">
<title>c3486464</title>
<g id="a_node2"><a xlink:href="DoubleHeap.html" xlink:title="&lt;TABLE&gt;">
<g id="a_node2_2"><a xlink:href="DoubleHeap.html" xlink:title="de.lmu.ifi.dbs.elki.utilities.datastructures.heap.DoubleHeap" target="_parent">
<polygon fill="none" stroke="#000000" points="58,0 58,-28 116,-28 116,0 58,0"/>
<text text-anchor="start" x="65.5" y="-17.6" font-family="Roboto" font-size="8.00" fill="#000000"> «interface» </text>
<text text-anchor="start" x="62" y="-7.6" font-family="Roboto" font-size="8.00" fill="#000000"> </text>
<text text-anchor="start" x="65" y="-7.6" font-family="Roboto" font-size="8.00" fill="#000000">DoubleHeap</text>
<text text-anchor="start" x="109" y="-7.6" font-family="Roboto" font-size="8.00" fill="#000000"> </text>
</a>
</g>
</a>
</g>
</g>
<!-- c3486464&#45;&gt;c3486465 -->
<g id="edge1" class="edge">
<title>c3486464&#45;&gt;c3486465</title>
<path fill="none" stroke="#000000" d="M127.9801,-22.3643C142.6018,-25.6262 159.1298,-29.6332 174,-34 184.8269,-37.1794 196.4228,-41.1271 206.9795,-44.9392"/>
<polygon fill="none" stroke="#000000" points="127.9505,-22.3579 121.2376,-24.9915 116.2246,-19.8079 122.9376,-17.1742 127.9505,-22.3579"/>
</g>
</g>
</svg>
