<?xml version="1.0" encoding="UTF-8" standalone="no"?>
<!DOCTYPE svg PUBLIC "-//W3C//DTD SVG 1.1//EN"
 "http://www.w3.org/Graphics/SVG/1.1/DTD/svg11.dtd">
<!-- Generated by graphviz version 2.40.1 (20161225.0304)
 -->
<!-- Title: G Pages: 1 -->
<svg width="422pt" height="93pt"
 viewBox="0.00 0.00 422.00 93.00" xmlns="http://www.w3.org/2000/svg" xmlns:xlink="http://www.w3.org/1999/xlink">
<g id="graph0" class="graph" transform="scale(1 1) rotate(0) translate(4 89)">
<title>G</title>
<polygon fill="#ffffff" stroke="transparent" points="-4,4 -4,-89 418,-89 418,4 -4,4"/>
<!-- c3558550 -->
<g id="node1" class="node">
<title>c3558550</title>
<g id="a_node1"><a xlink:href="../../../algorithm/clustering/hierarchical/AbstractHDBSCAN.HeapMSTCollector.html" xlink:title="&lt;TABLE&gt;">
<g id="a_node1_0"><a xlink:href="../../../algorithm/clustering/hierarchical/AbstractHDBSCAN.HeapMSTCollector.html" xlink:title="de.lmu.ifi.dbs.elki.algorithm.clustering.hierarchical.AbstractHDBSCAN.HeapMSTCollector" target="_parent">
<polygon fill="none" stroke="#000000" points=".5,-28.5 .5,-56.5 183.5,-56.5 183.5,-28.5 .5,-28.5"/>
<text text-anchor="start" x="21" y="-47.1" font-family="Roboto" font-size="8.00" fill="#000000"> </text>
<text text-anchor="start" x="24" y="-47.1" font-family="Roboto" font-size="8.00" fill="#000000">AbstractHDBSCAN.HeapMSTCollector</text>
<text text-anchor="start" x="160" y="-47.1" font-family="Roboto" font-size="8.00" fill="#000000"> </text>
<text text-anchor="start" x="4.5" y="-36.1" font-family="Roboto" font-size="8.00" fill="#000000"> </text>
<text text-anchor="start" x="7.5" y="-36.1" font-family="Roboto" font-size="7.00" fill="#000000">de.lmu.ifi.dbs.elki.algorithm.clustering.hierarchical</text>
<text text-anchor="start" x="176.5" y="-36.1" font-family="Roboto" font-size="8.00" fill="#000000"> </text>
</a>
</g>
</a>
</g>
</g>
<!-- c3560007 -->
<g id="node3" class="node">
<title>c3560007</title>
<g id="a_node3"><a xlink:href="DoubleLongHeap.html" xlink:title="&lt;TABLE&gt;">
<g id="a_node3_1"><a xlink:href="DoubleLongHeap.html" xlink:title="de.lmu.ifi.dbs.elki.utilities.datastructures.heap.DoubleLongHeap" target="_parent">
<polygon fill="#fffacd" stroke="transparent" points="201,-28.5 201,-56.5 276,-56.5 276,-28.5 201,-28.5"/>
<polygon fill="none" stroke="#000000" points="201.5,-28.5 201.5,-56.5 276.5,-56.5 276.5,-28.5 201.5,-28.5"/>
<text text-anchor="start" x="217.5" y="-46.1" font-family="Roboto" font-size="8.00" fill="#000000"> «interface» </text>
<text text-anchor="start" x="205.5" y="-36.1" font-family="Roboto" font-size="8.00" fill="#000000"> </text>
<text text-anchor="start" x="208.5" y="-36.1" font-family="Roboto" font-size="8.00" fill="#000000">DoubleLongHeap</text>
<text text-anchor="start" x="269.5" y="-36.1" font-family="Roboto" font-size="8.00" fill="#000000"> </text>
</a>
</g>
</a>
</g>
</g>
<!-- c3558550&#45;&gt;c3560007 -->
<g id="edge4" class="edge">
<title>c3558550&#45;&gt;c3560007</title>
<path fill="none" stroke="#000000" d="M183.3444,-42.5C185.7964,-42.5 188.2193,-42.5 190.6013,-42.5"/>
<polygon fill="#000000" stroke="#000000" points="200.7453,-42.5 190.7453,-47.0001 195.7453,-42.5 190.7453,-42.5001 190.7453,-42.5001 190.7453,-42.5001 195.7453,-42.5 190.7452,-38.0001 200.7453,-42.5 200.7453,-42.5"/>
</g>
<!-- c3559989 -->
<g id="node2" class="node">
<title>c3559989</title>
<g id="a_node2"><a xlink:href="DoubleLongMinHeap.html" xlink:title="&lt;TABLE&gt;">
<g id="a_node2_2"><a xlink:href="DoubleLongMinHeap.html" xlink:title="de.lmu.ifi.dbs.elki.utilities.datastructures.heap.DoubleLongMinHeap" target="_parent">
<polygon fill="none" stroke="#000000" points="309,-67.5 309,-84.5 399,-84.5 399,-67.5 309,-67.5"/>
<text text-anchor="start" x="313" y="-75.1" font-family="Roboto" font-size="8.00" fill="#000000"> </text>
<text text-anchor="start" x="316" y="-75.1" font-family="Roboto" font-size="8.00" fill="#000000">DoubleLongMinHeap</text>
<text text-anchor="start" x="392" y="-75.1" font-family="Roboto" font-size="8.00" fill="#000000"> </text>
</a>
</g>
</a>
</g>
</g>
<!-- c3560007&#45;&gt;c3559989 -->
<g id="edge1" class="edge">
<title>c3560007&#45;&gt;c3559989</title>
<path fill="none" stroke="#000000" stroke-dasharray="5,2" d="M285.1405,-59.7475C288.1267,-60.7152 291.0981,-61.6418 294,-62.5 300.5647,-64.4415 307.597,-66.2872 314.4529,-67.9638"/>
<polygon fill="none" stroke="#000000" points="286.2139,-56.4159 275.6199,-56.5503 283.9854,-63.0518 286.2139,-56.4159"/>
</g>
<!-- c3560008 -->
<g id="node4" class="node">
<title>c3560008</title>
<g id="a_node4"><a xlink:href="DoubleLongHeap.UnsortedIter.html" xlink:title="&lt;TABLE&gt;">
<g id="a_node4_3"><a xlink:href="DoubleLongHeap.UnsortedIter.html" xlink:title="de.lmu.ifi.dbs.elki.utilities.datastructures.heap.DoubleLongHeap.UnsortedIter" target="_parent">
<polygon fill="none" stroke="#000000" points="294,-28.5 294,-56.5 414,-56.5 414,-28.5 294,-28.5"/>
<text text-anchor="start" x="332.5" y="-46.1" font-family="Roboto" font-size="8.00" fill="#000000"> «interface» </text>
<text text-anchor="start" x="298" y="-36.1" font-family="Roboto" font-size="8.00" fill="#000000"> </text>
<text text-anchor="start" x="301" y="-36.1" font-family="Roboto" font-size="8.00" fill="#000000">DoubleLongHeap.UnsortedIter</text>
<text text-anchor="start" x="407" y="-36.1" font-family="Roboto" font-size="8.00" fill="#000000"> </text>
</a>
</g>
</a>
</g>
</g>
<!-- c3560007&#45;&gt;c3560008 -->
<g id="edge2" class="edge">
<title>c3560007&#45;&gt;c3560008</title>
<path fill="none" stroke="#000000" d="M288.5958,-42.5C290.3592,-42.5 292.1323,-42.5 293.9084,-42.5"/>
<polygon fill="none" stroke="#000000" points="288.319,-42.5001 282.319,-46.5 276.319,-42.5 282.3191,-38.5 288.319,-42.5001"/>
</g>
<!-- c3560011 -->
<g id="node5" class="node">
<title>c3560011</title>
<g id="a_node5"><a xlink:href="DoubleLongMaxHeap.html" xlink:title="&lt;TABLE&gt;">
<g id="a_node5_4"><a xlink:href="DoubleLongMaxHeap.html" xlink:title="de.lmu.ifi.dbs.elki.utilities.datastructures.heap.DoubleLongMaxHeap" target="_parent">
<polygon fill="none" stroke="#000000" points="309,.5 309,-16.5 400,-16.5 400,.5 309,.5"/>
<text text-anchor="start" x="313" y="-7.1" font-family="Roboto" font-size="8.00" fill="#000000"> </text>
<text text-anchor="start" x="316" y="-7.1" font-family="Roboto" font-size="8.00" fill="#000000">DoubleLongMaxHeap</text>
<text text-anchor="start" x="393" y="-7.1" font-family="Roboto" font-size="8.00" fill="#000000"> </text>
</a>
</g>
</a>
</g>
</g>
<!-- c3560007&#45;&gt;c3560011 -->
<g id="edge3" class="edge">
<title>c3560007&#45;&gt;c3560011</title>
<path fill="none" stroke="#000000" stroke-dasharray="5,2" d="M286.0281,-25.9354C288.718,-25.0896 291.3889,-24.2718 294,-23.5 301.6197,-21.2477 309.8476,-19.0441 317.6956,-17.0494"/>
<polygon fill="none" stroke="#000000" points="284.716,-22.6812 276.278,-29.0884 286.8699,-29.3416 284.716,-22.6812"/>
</g>
</g>
</svg>
