<?xml version="1.0" encoding="UTF-8" standalone="no"?>
<!DOCTYPE svg PUBLIC "-//W3C//DTD SVG 1.1//EN"
 "http://www.w3.org/Graphics/SVG/1.1/DTD/svg11.dtd">
<!-- Generated by graphviz version 2.40.1 (20161225.0304)
 -->
<!-- Title: G Pages: 1 -->
<svg width="533pt" height="149pt"
 viewBox="0.00 0.00 533.00 148.50" xmlns="http://www.w3.org/2000/svg" xmlns:xlink="http://www.w3.org/1999/xlink">
<g id="graph0" class="graph" transform="scale(1 1) rotate(0) translate(4 144.5)">
<title>G</title>
<polygon fill="#ffffff" stroke="transparent" points="-4,4 -4,-144.5 529,-144.5 529,4 -4,4"/>
<!-- c7630149 -->
<g id="node1" class="node">
<title>c7630149</title>
<g id="a_node1"><a xlink:href="ComparableMinHeap.html" xlink:title="&lt;TABLE&gt;">
<g id="a_node1_0"><a xlink:href="ComparableMinHeap.html" xlink:title="de.lmu.ifi.dbs.elki.utilities.datastructures.heap.ComparableMinHeap" target="_parent">
<polygon fill="none" stroke="#000000" points="429.5,-123 429.5,-140 519.5,-140 519.5,-123 429.5,-123"/>
<text text-anchor="start" x="433.5" y="-130.6" font-family="Roboto" font-size="8.00" fill="#000000"> </text>
<text text-anchor="start" x="436.5" y="-130.6" font-family="Roboto" font-size="8.00" fill="#000000">ComparableMinHeap</text>
<text text-anchor="start" x="512.5" y="-130.6" font-family="Roboto" font-size="8.00" fill="#000000"> </text>
</a>
</g>
</a>
</g>
</g>
<!-- c7630153 -->
<g id="node2" class="node">
<title>c7630153</title>
<g id="a_node2"><a xlink:href="ComparatorMinHeap.html" xlink:title="&lt;TABLE&gt;">
<g id="a_node2_1"><a xlink:href="ComparatorMinHeap.html" xlink:title="de.lmu.ifi.dbs.elki.utilities.datastructures.heap.ComparatorMinHeap" target="_parent">
<polygon fill="none" stroke="#000000" points="430.5,-95 430.5,-112 519.5,-112 519.5,-95 430.5,-95"/>
<text text-anchor="start" x="434.5" y="-102.6" font-family="Roboto" font-size="8.00" fill="#000000"> </text>
<text text-anchor="start" x="437.5" y="-102.6" font-family="Roboto" font-size="8.00" fill="#000000">ComparatorMinHeap</text>
<text text-anchor="start" x="512.5" y="-102.6" font-family="Roboto" font-size="8.00" fill="#000000"> </text>
</a>
</g>
</a>
</g>
</g>
<!-- c7630163 -->
<g id="node3" class="node">
<title>c7630163</title>
<g id="a_node3"><a xlink:href="ComparableMaxHeap.html" xlink:title="&lt;TABLE&gt;">
<g id="a_node3_2"><a xlink:href="ComparableMaxHeap.html" xlink:title="de.lmu.ifi.dbs.elki.utilities.datastructures.heap.ComparableMaxHeap" target="_parent">
<polygon fill="none" stroke="#000000" points="428.5,-67 428.5,-84 520.5,-84 520.5,-67 428.5,-67"/>
<text text-anchor="start" x="432.5" y="-74.6" font-family="Roboto" font-size="8.00" fill="#000000"> </text>
<text text-anchor="start" x="435.5" y="-74.6" font-family="Roboto" font-size="8.00" fill="#000000">ComparableMaxHeap</text>
<text text-anchor="start" x="513.5" y="-74.6" font-family="Roboto" font-size="8.00" fill="#000000"> </text>
</a>
</g>
</a>
</g>
</g>
<!-- c7630175 -->
<g id="node4" class="node">
<title>c7630175</title>
<g id="a_node4"><a xlink:href="ComparatorMaxHeap.html" xlink:title="&lt;TABLE&gt;">
<g id="a_node4_3"><a xlink:href="ComparatorMaxHeap.html" xlink:title="de.lmu.ifi.dbs.elki.utilities.datastructures.heap.ComparatorMaxHeap" target="_parent">
<polygon fill="none" stroke="#000000" points="429.5,-39 429.5,-56 519.5,-56 519.5,-39 429.5,-39"/>
<text text-anchor="start" x="433.5" y="-46.6" font-family="Roboto" font-size="8.00" fill="#000000"> </text>
<text text-anchor="start" x="436.5" y="-46.6" font-family="Roboto" font-size="8.00" fill="#000000">ComparatorMaxHeap</text>
<text text-anchor="start" x="512.5" y="-46.6" font-family="Roboto" font-size="8.00" fill="#000000"> </text>
</a>
</g>
</a>
</g>
</g>
<!-- c7630177 -->
<g id="node5" class="node">
<title>c7630177</title>
<g id="a_node5"><a xlink:href="ObjectHeap.html" xlink:title="&lt;TABLE&gt;">
<g id="a_node5_4"><a xlink:href="ObjectHeap.html" xlink:title="de.lmu.ifi.dbs.elki.utilities.datastructures.heap.ObjectHeap" target="_parent">
<polygon fill="#fffacd" stroke="transparent" points="350,-62 350,-90 406,-90 406,-62 350,-62"/>
<polygon fill="none" stroke="#000000" points="350,-62 350,-90 406,-90 406,-62 350,-62"/>
<text text-anchor="start" x="356.5" y="-79.6" font-family="Roboto" font-size="8.00" fill="#000000"> «interface» </text>
<text text-anchor="start" x="354" y="-69.6" font-family="Roboto" font-size="8.00" fill="#000000"> </text>
<text text-anchor="start" x="357" y="-69.6" font-family="Roboto" font-size="8.00" fill="#000000">ObjectHeap</text>
<text text-anchor="start" x="399" y="-69.6" font-family="Roboto" font-size="8.00" fill="#000000"> </text>
</a>
</g>
</a>
</g>
</g>
<!-- c7630177&#45;&gt;c7630149 -->
<g id="edge1" class="edge">
<title>c7630177&#45;&gt;c7630149</title>
<path fill="none" stroke="#000000" stroke-dasharray="5,2" d="M397.4324,-97.5147C405.0842,-104.9094 414.3475,-112.6614 424,-118 427.8215,-120.1136 431.9853,-121.9268 436.2288,-123.4779"/>
<polygon fill="none" stroke="#000000" points="399.8752,-95.0072 390.3629,-90.3417 394.8896,-99.9208 399.8752,-95.0072"/>
</g>
<!-- c7630177&#45;&gt;c7630153 -->
<g id="edge2" class="edge">
<title>c7630177&#45;&gt;c7630153</title>
<path fill="none" stroke="#000000" stroke-dasharray="5,2" d="M415.9759,-87.6392C418.6891,-88.4458 421.3848,-89.2397 424,-90 430.2028,-91.8034 436.8494,-93.6833 443.2165,-95.4586"/>
<polygon fill="none" stroke="#000000" points="416.7703,-84.2234 406.1861,-84.7001 414.7574,-90.9278 416.7703,-84.2234"/>
</g>
<!-- c7630177&#45;&gt;c7630163 -->
<g id="edge3" class="edge">
<title>c7630177&#45;&gt;c7630163</title>
<path fill="none" stroke="#000000" stroke-dasharray="5,2" d="M416.2363,-76C420.1481,-76 424.1516,-76 428.138,-76"/>
<polygon fill="none" stroke="#000000" points="416.1712,-72.5001 406.1712,-76 416.1712,-79.5001 416.1712,-72.5001"/>
</g>
<!-- c7630177&#45;&gt;c7630175 -->
<g id="edge4" class="edge">
<title>c7630177&#45;&gt;c7630175</title>
<path fill="none" stroke="#000000" stroke-dasharray="5,2" d="M415.9759,-64.3608C418.6891,-63.5542 421.3848,-62.7603 424,-62 430.2028,-60.1966 436.8494,-58.3167 443.2165,-56.5414"/>
<polygon fill="none" stroke="#000000" points="414.7574,-61.0722 406.1861,-67.2999 416.7703,-67.7766 414.7574,-61.0722"/>
</g>
<!-- c7630178 -->
<g id="node6" class="node">
<title>c7630178</title>
<g id="a_node6"><a xlink:href="ObjectHeap.UnsortedIter.html" xlink:title="&lt;TABLE&gt;">
<g id="a_node6_5"><a xlink:href="ObjectHeap.UnsortedIter.html" xlink:title="de.lmu.ifi.dbs.elki.utilities.datastructures.heap.ObjectHeap.UnsortedIter" target="_parent">
<polygon fill="none" stroke="#000000" points="424.5,0 424.5,-28 525.5,-28 525.5,0 424.5,0"/>
<text text-anchor="start" x="453.5" y="-17.6" font-family="Roboto" font-size="8.00" fill="#000000"> «interface» </text>
<text text-anchor="start" x="428.5" y="-7.6" font-family="Roboto" font-size="8.00" fill="#000000"> </text>
<text text-anchor="start" x="431.5" y="-7.6" font-family="Roboto" font-size="8.00" fill="#000000">ObjectHeap.UnsortedIter</text>
<text text-anchor="start" x="518.5" y="-7.6" font-family="Roboto" font-size="8.00" fill="#000000"> </text>
</a>
</g>
</a>
</g>
</g>
<!-- c7630177&#45;&gt;c7630178 -->
<g id="edge5" class="edge">
<title>c7630177&#45;&gt;c7630178</title>
<path fill="none" stroke="#000000" d="M400.0302,-52.8929C407.2264,-46.1984 415.5514,-39.2796 424,-34 427.4387,-31.8512 431.1469,-29.8599 434.9372,-28.034"/>
<polygon fill="none" stroke="#000000" points="399.5931,-53.3201 398.098,-60.3745 391.0112,-61.7077 392.5062,-54.6533 399.5931,-53.3201"/>
</g>
<!-- c7631026 -->
<g id="node7" class="node">
<title>c7631026</title>
<g id="a_node7"><a xlink:href="../../../algorithm/outlier/distance/HilOut.HilbertFeatures.html" xlink:title="&lt;TABLE&gt;">
<g id="a_node7_6"><a xlink:href="../../../algorithm/outlier/distance/HilOut.HilbertFeatures.html" xlink:title="de.lmu.ifi.dbs.elki.algorithm.outlier.distance.HilOut.HilbertFeatures" target="_parent">
<polygon fill="none" stroke="#000000" points=".5,-47 .5,-75 157.5,-75 157.5,-47 .5,-47"/>
<text text-anchor="start" x="36" y="-65.6" font-family="Roboto" font-size="8.00" fill="#000000"> </text>
<text text-anchor="start" x="39" y="-65.6" font-family="Roboto" font-size="8.00" fill="#000000">HilOut.HilbertFeatures</text>
<text text-anchor="start" x="119" y="-65.6" font-family="Roboto" font-size="8.00" fill="#000000"> </text>
<text text-anchor="start" x="4.5" y="-54.6" font-family="Roboto" font-size="8.00" fill="#000000"> </text>
<text text-anchor="start" x="7.5" y="-54.6" font-family="Roboto" font-size="7.00" fill="#000000">de.lmu.ifi.dbs.elki.algorithm.outlier.distance</text>
<text text-anchor="start" x="150.5" y="-54.6" font-family="Roboto" font-size="8.00" fill="#000000"> </text>
</a>
</g>
</a>
</g>
</g>
<!-- c7631026&#45;&gt;c7630177 -->
<g id="edge7" class="edge">
<title>c7631026&#45;&gt;c7630177</title>
<path fill="none" stroke="#000000" d="M136.6306,-75.0451C149.209,-77.5225 162.4901,-79.7173 175,-81 244.4138,-88.1175 262.3244,-84.7756 332,-81 334.5267,-80.8631 337.1281,-80.6842 339.7475,-80.4756"/>
<polygon fill="#000000" stroke="#000000" points="349.82,-79.5509 340.2733,-84.9464 344.8409,-80.0081 339.8619,-80.4652 339.8619,-80.4652 339.8619,-80.4652 344.8409,-80.0081 339.4504,-75.9841 349.82,-79.5509 349.82,-79.5509"/>
</g>
<!-- c7631027 -->
<g id="node8" class="node">
<title>c7631027</title>
<g id="a_node8"><a xlink:href="../../../algorithm/outlier/distance/HilOut.HilFeature.html" xlink:title="&lt;TABLE&gt;">
<g id="a_node8_7"><a xlink:href="../../../algorithm/outlier/distance/HilOut.HilFeature.html" xlink:title="de.lmu.ifi.dbs.elki.algorithm.outlier.distance.HilOut.HilFeature" target="_parent">
<polygon fill="none" stroke="#000000" points="175.5,-47 175.5,-75 332.5,-75 332.5,-47 175.5,-47"/>
<text text-anchor="start" x="219.5" y="-65.6" font-family="Roboto" font-size="8.00" fill="#000000"> </text>
<text text-anchor="start" x="222.5" y="-65.6" font-family="Roboto" font-size="8.00" fill="#000000">HilOut.HilFeature</text>
<text text-anchor="start" x="285.5" y="-65.6" font-family="Roboto" font-size="8.00" fill="#000000"> </text>
<text text-anchor="start" x="179.5" y="-54.6" font-family="Roboto" font-size="8.00" fill="#000000"> </text>
<text text-anchor="start" x="182.5" y="-54.6" font-family="Roboto" font-size="7.00" fill="#000000">de.lmu.ifi.dbs.elki.algorithm.outlier.distance</text>
<text text-anchor="start" x="325.5" y="-54.6" font-family="Roboto" font-size="8.00" fill="#000000"> </text>
</a>
</g>
</a>
</g>
</g>
<!-- c7631026&#45;&gt;c7631027 -->
<g id="edge6" class="edge">
<title>c7631026&#45;&gt;c7631027</title>
<path fill="none" stroke="#000000" d="M169.2658,-61C171.119,-61 172.9702,-61 174.8162,-61"/>
<polygon fill="#000000" stroke="#000000" points="169.0418,-61.0001 163.0418,-65 157.0418,-61 163.0418,-57 169.0418,-61.0001"/>
</g>
<!-- c7631027&#45;&gt;c7630177 -->
<g id="edge8" class="edge">
<title>c7631027&#45;&gt;c7630177</title>
<path fill="none" stroke="#000000" d="M332.3477,-70.4997C334.8571,-70.8021 337.3277,-71.0997 339.7415,-71.3905"/>
<polygon fill="#000000" stroke="#000000" points="349.9045,-72.615 339.438,-75.8864 344.9404,-72.0169 339.9763,-71.4187 339.9763,-71.4187 339.9763,-71.4187 344.9404,-72.0169 340.5146,-66.9511 349.9045,-72.615 349.9045,-72.615"/>
</g>
</g>
</svg>
