<?xml version="1.0" encoding="UTF-8" standalone="no"?>
<!DOCTYPE svg PUBLIC "-//W3C//DTD SVG 1.1//EN"
 "http://www.w3.org/Graphics/SVG/1.1/DTD/svg11.dtd">
<!-- Generated by graphviz version 2.40.1 (20161225.0304)
 -->
<!-- Title: G Pages: 1 -->
<svg width="247pt" height="25pt"
 viewBox="0.00 0.00 247.00 25.00" xmlns="http://www.w3.org/2000/svg" xmlns:xlink="http://www.w3.org/1999/xlink">
<g id="graph0" class="graph" transform="scale(1 1) rotate(0) translate(4 21)">
<title>G</title>
<polygon fill="#ffffff" stroke="transparent" points="-4,4 -4,-21 243,-21 243,4 -4,4"/>
<!-- c10274218 -->
<g id="node1" class="node">
<title>c10274218</title>
<g id="a_node1"><a xlink:href="Heap.html" xlink:title="&lt;TABLE&gt;">
<g id="a_node1_0"><a xlink:href="Heap.html" xlink:title="de.lmu.ifi.dbs.elki.utilities.datastructures.heap.Heap" target="_parent">
<polygon fill="none" stroke="#000000" points=".5,.5 .5,-16.5 33.5,-16.5 33.5,.5 .5,.5"/>
<text text-anchor="start" x="4.5" y="-7.1" font-family="Roboto" font-size="8.00" fill="#000000"> </text>
<text text-anchor="start" x="7.5" y="-7.1" font-family="Roboto" font-size="8.00" fill="#000000">Heap</text>
<text text-anchor="start" x="26.5" y="-7.1" font-family="Roboto" font-size="8.00" fill="#000000"> </text>
</a>
</g>
</a>
</g>
</g>
<!-- c10274221 -->
<g id="node2" class="node">
<title>c10274221</title>
<g id="a_node2"><a xlink:href="TopBoundedHeap.html" xlink:title="&lt;TABLE&gt;">
<g id="a_node2_1"><a xlink:href="TopBoundedHeap.html" xlink:title="de.lmu.ifi.dbs.elki.utilities.datastructures.heap.TopBoundedHeap" target="_parent">
<polygon fill="#fffacd" stroke="transparent" points="51,0 51,-17 128,-17 128,0 51,0"/>
<polygon fill="none" stroke="#000000" points="51.5,.5 51.5,-16.5 128.5,-16.5 128.5,.5 51.5,.5"/>
<text text-anchor="start" x="55.5" y="-7.1" font-family="Roboto" font-size="8.00" fill="#000000"> </text>
<text text-anchor="start" x="58.5" y="-7.1" font-family="Roboto" font-size="8.00" fill="#000000">TopBoundedHeap</text>
<text text-anchor="start" x="121.5" y="-7.1" font-family="Roboto" font-size="8.00" fill="#000000"> </text>
</a>
</g>
</a>
</g>
</g>
<!-- c10274218&#45;&gt;c10274221 -->
<g id="edge1" class="edge">
<title>c10274218&#45;&gt;c10274221</title>
<path fill="none" stroke="#000000" d="M43.0951,-8.5C45.6676,-8.5 48.3112,-8.5 50.9692,-8.5"/>
<polygon fill="none" stroke="#000000" points="43.0649,-5.0001 33.0648,-8.5 43.0648,-12.0001 43.0649,-5.0001"/>
</g>
<!-- c10274224 -->
<g id="node3" class="node">
<title>c10274224</title>
<g id="a_node3"><a xlink:href="TiedTopBoundedHeap.html" xlink:title="&lt;TABLE&gt;">
<g id="a_node3_2"><a xlink:href="TiedTopBoundedHeap.html" xlink:title="de.lmu.ifi.dbs.elki.utilities.datastructures.heap.TiedTopBoundedHeap" target="_parent">
<polygon fill="none" stroke="#000000" points="146.5,.5 146.5,-16.5 239.5,-16.5 239.5,.5 146.5,.5"/>
<text text-anchor="start" x="150.5" y="-7.1" font-family="Roboto" font-size="8.00" fill="#000000"> </text>
<text text-anchor="start" x="153.5" y="-7.1" font-family="Roboto" font-size="8.00" fill="#000000">TiedTopBoundedHeap</text>
<text text-anchor="start" x="232.5" y="-7.1" font-family="Roboto" font-size="8.00" fill="#000000"> </text>
</a>
</g>
</a>
</g>
</g>
<!-- c10274221&#45;&gt;c10274224 -->
<g id="edge2" class="edge">
<title>c10274221&#45;&gt;c10274224</title>
<path fill="none" stroke="#000000" d="M138.417,-8.5C140.9418,-8.5 143.475,-8.5 145.9921,-8.5"/>
<polygon fill="none" stroke="#000000" points="138.1465,-5.0001 128.1464,-8.5 138.1464,-12.0001 138.1465,-5.0001"/>
</g>
</g>
</svg>
