<?xml version="1.0" encoding="UTF-8" standalone="no"?>
<!DOCTYPE svg PUBLIC "-//W3C//DTD SVG 1.1//EN"
 "http://www.w3.org/Graphics/SVG/1.1/DTD/svg11.dtd">
<!-- Generated by graphviz version 2.40.1 (20161225.0304)
 -->
<!-- Title: G Pages: 1 -->
<svg width="289pt" height="75pt"
 viewBox="0.00 0.00 289.00 75.00" xmlns="http://www.w3.org/2000/svg" xmlns:xlink="http://www.w3.org/1999/xlink">
<g id="graph0" class="graph" transform="scale(1 1) rotate(0) translate(4 71)">
<title>G</title>
<polygon fill="#ffffff" stroke="transparent" points="-4,4 -4,-71 285,-71 285,4 -4,4"/>
<!-- c3036793 -->
<g id="node1" class="node">
<title>c3036793</title>
<g id="a_node1"><a xlink:href="DBIDSelection.html" xlink:title="&lt;TABLE&gt;">
<g id="a_node1_0"><a xlink:href="DBIDSelection.html" xlink:title="de.lmu.ifi.dbs.elki.result.DBIDSelection" target="_parent">
<polygon fill="#fffacd" stroke="transparent" points="85,-50 85,-67 150,-67 150,-50 85,-50"/>
<polygon fill="none" stroke="#000000" points="85.5,-49.5 85.5,-66.5 150.5,-66.5 150.5,-49.5 85.5,-49.5"/>
<text text-anchor="start" x="89.5" y="-57.1" font-family="Roboto" font-size="8.00" fill="#000000"> </text>
<text text-anchor="start" x="92.5" y="-57.1" font-family="Roboto" font-size="8.00" fill="#000000">DBIDSelection</text>
<text text-anchor="start" x="143.5" y="-57.1" font-family="Roboto" font-size="8.00" fill="#000000"> </text>
</a>
</g>
</a>
</g>
</g>
<!-- c3036800 -->
<g id="node3" class="node">
<title>c3036800</title>
<g id="a_node3"><a xlink:href="RangeSelection.html" xlink:title="&lt;TABLE&gt;">
<g id="a_node3_1"><a xlink:href="RangeSelection.html" xlink:title="de.lmu.ifi.dbs.elki.result.RangeSelection" target="_parent">
<polygon fill="none" stroke="#000000" points="190.5,-49.5 190.5,-66.5 258.5,-66.5 258.5,-49.5 190.5,-49.5"/>
<text text-anchor="start" x="194.5" y="-57.1" font-family="Roboto" font-size="8.00" fill="#000000"> </text>
<text text-anchor="start" x="197.5" y="-57.1" font-family="Roboto" font-size="8.00" fill="#000000">RangeSelection</text>
<text text-anchor="start" x="251.5" y="-57.1" font-family="Roboto" font-size="8.00" fill="#000000"> </text>
</a>
</g>
</a>
</g>
</g>
<!-- c3036793&#45;&gt;c3036800 -->
<g id="edge2" class="edge">
<title>c3036793&#45;&gt;c3036800</title>
<path fill="none" stroke="#000000" d="M160.2839,-58.5C170.2111,-58.5 180.6517,-58.5 190.1616,-58.5"/>
<polygon fill="none" stroke="#000000" points="160.185,-55.0001 150.1849,-58.5 160.1849,-62.0001 160.185,-55.0001"/>
</g>
<!-- c3038032 -->
<g id="node4" class="node">
<title>c3038032</title>
<g id="a_node4"><a xlink:href="../database/ids/DBIDs.html" xlink:title="&lt;TABLE&gt;">
<g id="a_node4_2"><a xlink:href="../database/ids/DBIDs.html" xlink:title="de.lmu.ifi.dbs.elki.database.ids.DBIDs" target="_parent">
<polygon fill="#fffacd" stroke="transparent" points="168,0 168,-39 281,-39 281,0 168,0"/>
<polygon fill="none" stroke="#000000" points="168.5,.5 168.5,-38.5 281.5,-38.5 281.5,.5 168.5,.5"/>
<text text-anchor="start" x="203.5" y="-28.1" font-family="Roboto" font-size="8.00" fill="#000000"> «interface» </text>
<text text-anchor="start" x="210" y="-18.1" font-family="Roboto" font-size="8.00" fill="#000000"> </text>
<text text-anchor="start" x="213" y="-18.1" font-family="Roboto" font-size="8.00" fill="#000000">DBIDs</text>
<text text-anchor="start" x="237" y="-18.1" font-family="Roboto" font-size="8.00" fill="#000000"> </text>
<text text-anchor="start" x="172.5" y="-7.1" font-family="Roboto" font-size="8.00" fill="#000000"> </text>
<text text-anchor="start" x="175.5" y="-7.1" font-family="Roboto" font-size="7.00" fill="#000000">de.lmu.ifi.dbs.elki.database.ids</text>
<text text-anchor="start" x="274.5" y="-7.1" font-family="Roboto" font-size="8.00" fill="#000000"> </text>
</a>
</g>
</a>
</g>
</g>
<!-- c3036793&#45;&gt;c3038032 -->
<g id="edge3" class="edge">
<title>c3036793&#45;&gt;c3038032</title>
<path fill="none" stroke="#000000" d="M140.9816,-49.9413C147.0719,-47.7215 153.9295,-45.222 161.03,-42.6339"/>
<polygon fill="#000000" stroke="#000000" points="170.8139,-39.0678 162.9595,-46.7203 166.1162,-40.7801 161.4185,-42.4924 161.4185,-42.4924 161.4185,-42.4924 166.1162,-40.7801 159.8775,-38.2645 170.8139,-39.0678 170.8139,-39.0678"/>
</g>
<!-- c3036799 -->
<g id="node2" class="node">
<title>c3036799</title>
<g id="a_node2"><a xlink:href="SelectionResult.html" xlink:title="&lt;TABLE&gt;">
<g id="a_node2_3"><a xlink:href="SelectionResult.html" xlink:title="de.lmu.ifi.dbs.elki.result.SelectionResult" target="_parent">
<polygon fill="none" stroke="#000000" points=".5,-49.5 .5,-66.5 67.5,-66.5 67.5,-49.5 .5,-49.5"/>
<text text-anchor="start" x="4.5" y="-57.1" font-family="Roboto" font-size="8.00" fill="#000000"> </text>
<text text-anchor="start" x="7.5" y="-57.1" font-family="Roboto" font-size="8.00" fill="#000000">SelectionResult</text>
<text text-anchor="start" x="60.5" y="-57.1" font-family="Roboto" font-size="8.00" fill="#000000"> </text>
</a>
</g>
</a>
</g>
</g>
<!-- c3036799&#45;&gt;c3036793 -->
<g id="edge1" class="edge">
<title>c3036799&#45;&gt;c3036793</title>
<path fill="none" stroke="#000000" d="M79.3941,-58.5C81.2455,-58.5 83.0867,-58.5 84.9032,-58.5"/>
<polygon fill="#000000" stroke="#000000" points="79.182,-58.5001 73.182,-62.5 67.182,-58.5 73.182,-54.5 79.182,-58.5001"/>
</g>
</g>
</svg>
