<?xml version="1.0" encoding="UTF-8" standalone="no"?>
<!DOCTYPE svg PUBLIC "-//W3C//DTD SVG 1.1//EN"
 "http://www.w3.org/Graphics/SVG/1.1/DTD/svg11.dtd">
<!-- Generated by graphviz version 2.40.1 (20161225.0304)
 -->
<!-- Title: G Pages: 1 -->
<svg width="294pt" height="25pt"
 viewBox="0.00 0.00 294.00 25.00" xmlns="http://www.w3.org/2000/svg" xmlns:xlink="http://www.w3.org/1999/xlink">
<g id="graph0" class="graph" transform="scale(1 1) rotate(0) translate(4 21)">
<title>G</title>
<polygon fill="#ffffff" stroke="transparent" points="-4,4 -4,-21 290,-21 290,4 -4,4"/>
<!-- c4041722 -->
<g id="node1" class="node">
<title>c4041722</title>
<g id="a_node1"><a xlink:href="EvaluationResult.MeasurementGroup.html" xlink:title="&lt;TABLE&gt;">
<g id="a_node1_0"><a xlink:href="EvaluationResult.MeasurementGroup.html" xlink:title="de.lmu.ifi.dbs.elki.result.EvaluationResult.MeasurementGroup" target="_parent">
<polygon fill="none" stroke="#000000" points=".5,.5 .5,-16.5 145.5,-16.5 145.5,.5 .5,.5"/>
<text text-anchor="start" x="4.5" y="-7.1" font-family="Roboto" font-size="8.00" fill="#000000"> </text>
<text text-anchor="start" x="7.5" y="-7.1" font-family="Roboto" font-size="8.00" fill="#000000">EvaluationResult.MeasurementGroup</text>
<text text-anchor="start" x="138.5" y="-7.1" font-family="Roboto" font-size="8.00" fill="#000000"> </text>
</a>
</g>
</a>
</g>
</g>
<!-- c4041723 -->
<g id="node2" class="node">
<title>c4041723</title>
<g id="a_node2"><a xlink:href="EvaluationResult.Measurement.html" xlink:title="&lt;TABLE&gt;">
<g id="a_node2_1"><a xlink:href="EvaluationResult.Measurement.html" xlink:title="de.lmu.ifi.dbs.elki.result.EvaluationResult.Measurement" target="_parent">
<polygon fill="#fffacd" stroke="transparent" points="163,0 163,-17 286,-17 286,0 163,0"/>
<polygon fill="none" stroke="#000000" points="163.5,.5 163.5,-16.5 286.5,-16.5 286.5,.5 163.5,.5"/>
<text text-anchor="start" x="167.5" y="-7.1" font-family="Roboto" font-size="8.00" fill="#000000"> </text>
<text text-anchor="start" x="170.5" y="-7.1" font-family="Roboto" font-size="8.00" fill="#000000">EvaluationResult.Measurement</text>
<text text-anchor="start" x="279.5" y="-7.1" font-family="Roboto" font-size="8.00" fill="#000000"> </text>
</a>
</g>
</a>
</g>
</g>
<!-- c4041722&#45;&gt;c4041723 -->
<g id="edge1" class="edge">
<title>c4041722&#45;&gt;c4041723</title>
<path fill="none" stroke="#000000" d="M157.587,-8.5C159.2964,-8.5 160.9995,-8.5 162.6929,-8.5"/>
<polygon fill="#000000" stroke="#000000" points="157.3836,-8.5001 151.3836,-12.5 145.3836,-8.5 151.3836,-4.5 157.3836,-8.5001"/>
</g>
</g>
</svg>
