<?xml version="1.0" encoding="UTF-8" standalone="no"?>
<!DOCTYPE svg PUBLIC "-//W3C//DTD SVG 1.1//EN"
 "http://www.w3.org/Graphics/SVG/1.1/DTD/svg11.dtd">
<!-- Generated by graphviz version 2.40.1 (20161225.0304)
 -->
<!-- Title: G Pages: 1 -->
<svg width="458pt" height="189pt"
 viewBox="0.00 0.00 458.00 189.00" xmlns="http://www.w3.org/2000/svg" xmlns:xlink="http://www.w3.org/1999/xlink">
<g id="graph0" class="graph" transform="scale(1 1) rotate(0) translate(4 185)">
<title>G</title>
<polygon fill="#ffffff" stroke="transparent" points="-4,4 -4,-185 454,-185 454,4 -4,4"/>
<!-- c8938946 -->
<g id="node1" class="node">
<title>c8938946</title>
<g id="a_node1"><a xlink:href="../workflow/OutputStep.html" xlink:title="&lt;TABLE&gt;">
<g id="a_node1_0"><a xlink:href="../workflow/OutputStep.html" xlink:title="de.lmu.ifi.dbs.elki.workflow.OutputStep" target="_parent">
<polygon fill="none" stroke="#000000" points="137.5,-153 137.5,-181 239.5,-181 239.5,-153 137.5,-153"/>
<text text-anchor="start" x="165.5" y="-171.6" font-family="Roboto" font-size="8.00" fill="#000000"> </text>
<text text-anchor="start" x="168.5" y="-171.6" font-family="Roboto" font-size="8.00" fill="#000000">OutputStep</text>
<text text-anchor="start" x="208.5" y="-171.6" font-family="Roboto" font-size="8.00" fill="#000000"> </text>
<text text-anchor="start" x="141.5" y="-160.6" font-family="Roboto" font-size="8.00" fill="#000000"> </text>
<text text-anchor="start" x="144.5" y="-160.6" font-family="Roboto" font-size="7.00" fill="#000000">de.lmu.ifi.dbs.elki.workflow</text>
<text text-anchor="start" x="232.5" y="-160.6" font-family="Roboto" font-size="8.00" fill="#000000"> </text>
</a>
</g>
</a>
</g>
</g>
<!-- c8940045 -->
<g id="node7" class="node">
<title>c8940045</title>
<g id="a_node7"><a xlink:href="ResultHierarchy.html" xlink:title="&lt;TABLE&gt;">
<g id="a_node7_1"><a xlink:href="ResultHierarchy.html" xlink:title="de.lmu.ifi.dbs.elki.result.ResultHierarchy" target="_parent">
<polygon fill="#fffacd" stroke="transparent" points="297,-36.5 297,-53.5 368,-53.5 368,-36.5 297,-36.5"/>
<polygon fill="none" stroke="#000000" points="297.5,-36 297.5,-53 368.5,-53 368.5,-36 297.5,-36"/>
<text text-anchor="start" x="301.5" y="-43.6" font-family="Roboto" font-size="8.00" fill="#000000"> </text>
<text text-anchor="start" x="304.5" y="-43.6" font-family="Roboto" font-size="8.00" fill="#000000">ResultHierarchy</text>
<text text-anchor="start" x="361.5" y="-43.6" font-family="Roboto" font-size="8.00" fill="#000000"> </text>
</a>
</g>
</a>
</g>
</g>
<!-- c8938946&#45;&gt;c8940045 -->
<g id="edge1" class="edge">
<title>c8938946&#45;&gt;c8940045</title>
<path fill="none" stroke="#000000" d="M239.7337,-161.6162C253.5386,-158.229 267.7485,-152.7705 279,-144 309.8169,-119.9783 325.1362,-73.0657 330.3638,-53.6909"/>
</g>
<!-- c8939021 -->
<g id="node2" class="node">
<title>c8939021</title>
<g id="a_node2"><a xlink:href="../KDDTask.html" xlink:title="&lt;TABLE&gt;">
<g id="a_node2_2"><a xlink:href="../KDDTask.html" xlink:title="de.lmu.ifi.dbs.elki.KDDTask" target="_parent">
<polygon fill="none" stroke="#000000" points="4,-153 4,-181 76,-181 76,-153 4,-153"/>
<text text-anchor="start" x="19.5" y="-171.6" font-family="Roboto" font-size="8.00" fill="#000000"> </text>
<text text-anchor="start" x="22.5" y="-171.6" font-family="Roboto" font-size="8.00" fill="#000000">KDDTask</text>
<text text-anchor="start" x="57.5" y="-171.6" font-family="Roboto" font-size="8.00" fill="#000000"> </text>
<text text-anchor="start" x="8" y="-160.6" font-family="Roboto" font-size="8.00" fill="#000000"> </text>
<text text-anchor="start" x="11" y="-160.6" font-family="Roboto" font-size="7.00" fill="#000000">de.lmu.ifi.dbs.elki</text>
<text text-anchor="start" x="69" y="-160.6" font-family="Roboto" font-size="8.00" fill="#000000"> </text>
</a>
</g>
</a>
</g>
</g>
<!-- c8939021&#45;&gt;c8938946 -->
<g id="edge2" class="edge">
<title>c8939021&#45;&gt;c8938946</title>
<path fill="none" stroke="#000000" d="M88.4573,-167C104.1296,-167 121.5524,-167 137.4093,-167"/>
<polygon fill="#000000" stroke="#000000" points="88.3272,-167.0001 82.3272,-171 76.3272,-167 82.3272,-163 88.3272,-167.0001"/>
</g>
<!-- c8939021&#45;&gt;c8940045 -->
<g id="edge7" class="edge">
<title>c8939021&#45;&gt;c8940045</title>
<path fill="none" stroke="#000000" d="M76.2132,-153.9678C83.3661,-151.7267 90.8674,-149.6061 98,-148 177.1105,-130.1862 210.0324,-167.6529 279,-125 302.2723,-110.6073 317.6636,-81.8895 325.7332,-63.065"/>
<polygon fill="#000000" stroke="#000000" points="329.5548,-53.543 330.0063,-64.4996 327.6924,-58.1832 325.8301,-62.8234 325.8301,-62.8234 325.8301,-62.8234 327.6924,-58.1832 321.6538,-61.1473 329.5548,-53.543 329.5548,-53.543"/>
</g>
<!-- c8939152 -->
<g id="node3" class="node">
<title>c8939152</title>
<g id="a_node3"><a xlink:href="../visualization/VisualizerContext.html" xlink:title="&lt;TABLE&gt;">
<g id="a_node3_3"><a xlink:href="../visualization/VisualizerContext.html" xlink:title="de.lmu.ifi.dbs.elki.visualization.VisualizerContext" target="_parent">
<polygon fill="#fffacd" stroke="transparent" points="130,-91 130,-119 247,-119 247,-91 130,-91"/>
<polygon fill="none" stroke="#000000" points="130.5,-91 130.5,-119 247.5,-119 247.5,-91 130.5,-91"/>
<text text-anchor="start" x="155" y="-109.6" font-family="Roboto" font-size="8.00" fill="#000000"> </text>
<text text-anchor="start" x="158" y="-109.6" font-family="Roboto" font-size="8.00" fill="#000000">VisualizerContext</text>
<text text-anchor="start" x="220" y="-109.6" font-family="Roboto" font-size="8.00" fill="#000000"> </text>
<text text-anchor="start" x="134.5" y="-98.6" font-family="Roboto" font-size="8.00" fill="#000000"> </text>
<text text-anchor="start" x="137.5" y="-98.6" font-family="Roboto" font-size="7.00" fill="#000000">de.lmu.ifi.dbs.elki.visualization</text>
<text text-anchor="start" x="240.5" y="-98.6" font-family="Roboto" font-size="8.00" fill="#000000"> </text>
</a>
</g>
</a>
</g>
</g>
<!-- c8939152&#45;&gt;c8940045 -->
<g id="edge3" class="edge">
<title>c8939152&#45;&gt;c8940045</title>
<path fill="none" stroke="#000000" d="M258.866,-92.5737C265.8037,-90.4262 272.6278,-87.9205 279,-85 296.29,-77.0756 313.3836,-62.8883 323.4366,-53.7147"/>
<polygon fill="#000000" stroke="#000000" points="258.6976,-92.6208 253.9998,-98.0918 247.1429,-95.8596 251.8406,-90.3886 258.6976,-92.6208"/>
</g>
<!-- c8940042 -->
<g id="node4" class="node">
<title>c8940042</title>
<g id="a_node4"><a xlink:href="AbstractHierarchicalResult.html" xlink:title="&lt;TABLE&gt;">
<g id="a_node4_4"><a xlink:href="AbstractHierarchicalResult.html" xlink:title="de.lmu.ifi.dbs.elki.result.AbstractHierarchicalResult" target="_parent">
<polygon fill="none" stroke="#000000" points="134.5,-62 134.5,-79 242.5,-79 242.5,-62 134.5,-62"/>
<text text-anchor="start" x="138.5" y="-69.6" font-family="Roboto" font-size="8.00" fill="#000000"> </text>
<text text-anchor="start" x="141.5" y="-69.6" font-family="Roboto" font-style="italic" font-size="8.00" fill="#000000">AbstractHierarchicalResult</text>
<text text-anchor="start" x="235.5" y="-69.6" font-family="Roboto" font-size="8.00" fill="#000000"> </text>
</a>
</g>
</a>
</g>
</g>
<!-- c8940042&#45;&gt;c8940045 -->
<g id="edge8" class="edge">
<title>c8940042&#45;&gt;c8940045</title>
<path fill="none" stroke="#000000" d="M235.651,-62.4866C252.0892,-59.5186 270.497,-56.195 286.8142,-53.2488"/>
<polygon fill="#000000" stroke="#000000" points="296.6674,-51.4698 287.6261,-57.6751 291.7469,-52.3582 286.8265,-53.2467 286.8265,-53.2467 286.8265,-53.2467 291.7469,-52.3582 286.0269,-48.8183 296.6674,-51.4698 296.6674,-51.4698"/>
</g>
<!-- c8940043 -->
<g id="node5" class="node">
<title>c8940043</title>
<g id="a_node5"><a xlink:href="HierarchicalResult.html" xlink:title="&lt;TABLE&gt;">
<g id="a_node5_5"><a xlink:href="HierarchicalResult.html" xlink:title="de.lmu.ifi.dbs.elki.result.HierarchicalResult" target="_parent">
<polygon fill="none" stroke="#000000" points="0,-57 0,-85 80,-85 80,-57 0,-57"/>
<text text-anchor="start" x="18.5" y="-74.6" font-family="Roboto" font-size="8.00" fill="#000000"> «interface» </text>
<text text-anchor="start" x="4" y="-64.6" font-family="Roboto" font-size="8.00" fill="#000000"> </text>
<text text-anchor="start" x="7" y="-64.6" font-family="Roboto" font-size="8.00" fill="#000000">HierarchicalResult</text>
<text text-anchor="start" x="73" y="-64.6" font-family="Roboto" font-size="8.00" fill="#000000"> </text>
</a>
</g>
</a>
</g>
</g>
<!-- c8940043&#45;&gt;c8940042 -->
<g id="edge4" class="edge">
<title>c8940043&#45;&gt;c8940042</title>
<path fill="none" stroke="#000000" stroke-dasharray="5,2" d="M90.2504,-71C104.4368,-71 119.9329,-71 134.3383,-71"/>
<polygon fill="none" stroke="#000000" points="90.1863,-67.5001 80.1862,-71 90.1862,-74.5001 90.1863,-67.5001"/>
</g>
<!-- c8940043&#45;&gt;c8940045 -->
<g id="edge5" class="edge">
<title>c8940043&#45;&gt;c8940045</title>
<path fill="none" stroke="#000000" d="M91.8939,-57.9786C93.9504,-57.6199 95.9914,-57.2912 98,-57 167.9955,-46.8512 250.8257,-44.9469 296.943,-44.7735"/>
<polygon fill="#000000" stroke="#000000" points="91.8354,-57.99 86.7214,-63.0741 80.0615,-60.309 85.1755,-55.2249 91.8354,-57.99"/>
</g>
<!-- c8940044 -->
<g id="node6" class="node">
<title>c8940044</title>
<g id="a_node6"><a xlink:href="ResultListener.html" xlink:title="&lt;TABLE&gt;">
<g id="a_node6_6"><a xlink:href="ResultListener.html" xlink:title="de.lmu.ifi.dbs.elki.result.ResultListener" target="_parent">
<polygon fill="none" stroke="#000000" points="386,-31 386,-59 450,-59 450,-31 386,-31"/>
<text text-anchor="start" x="396.5" y="-48.6" font-family="Roboto" font-size="8.00" fill="#000000"> «interface» </text>
<text text-anchor="start" x="390" y="-38.6" font-family="Roboto" font-size="8.00" fill="#000000"> </text>
<text text-anchor="start" x="393" y="-38.6" font-family="Roboto" font-size="8.00" fill="#000000">ResultListener</text>
<text text-anchor="start" x="443" y="-38.6" font-family="Roboto" font-size="8.00" fill="#000000"> </text>
</a>
</g>
</a>
</g>
</g>
<!-- c8940045&#45;&gt;c8940044 -->
<g id="edge9" class="edge">
<title>c8940045&#45;&gt;c8940044</title>
<path fill="none" stroke="#000000" d="M368.2643,-45C370.7353,-45 373.2384,-45 375.7392,-45"/>
<polygon fill="#000000" stroke="#000000" points="385.9197,-45 375.9197,-49.5001 380.9197,-45 375.9197,-45.0001 375.9197,-45.0001 375.9197,-45.0001 380.9197,-45 375.9197,-40.5001 385.9197,-45 385.9197,-45"/>
<text text-anchor="middle" x="383.9197" y="-39.4" font-family="Roboto" font-size="7.00" fill="#000000">*</text>
</g>
<!-- c8940999 -->
<g id="node8" class="node">
<title>c8940999</title>
<g id="a_node8"><a xlink:href="../utilities/datastructures/hierarchy/HashMapHierarchy.html" xlink:title="&lt;TABLE&gt;">
<g id="a_node8_7"><a xlink:href="../utilities/datastructures/hierarchy/HashMapHierarchy.html" xlink:title="de.lmu.ifi.dbs.elki.utilities.datastructures.hierarchy.HashMapHierarchy" target="_parent">
<polygon fill="none" stroke="#000000" points="98.5,0 98.5,-28 279.5,-28 279.5,0 98.5,0"/>
<text text-anchor="start" x="151" y="-18.6" font-family="Roboto" font-size="8.00" fill="#000000"> </text>
<text text-anchor="start" x="154" y="-18.6" font-family="Roboto" font-size="8.00" fill="#000000">HashMapHierarchy</text>
<text text-anchor="start" x="224" y="-18.6" font-family="Roboto" font-size="8.00" fill="#000000"> </text>
<text text-anchor="start" x="102.5" y="-7.6" font-family="Roboto" font-size="8.00" fill="#000000"> </text>
<text text-anchor="start" x="105.5" y="-7.6" font-family="Roboto" font-size="7.00" fill="#000000">de.lmu.ifi.dbs.elki.utilities.datastructures.hierarchy</text>
<text text-anchor="start" x="272.5" y="-7.6" font-family="Roboto" font-size="8.00" fill="#000000"> </text>
</a>
</g>
</a>
</g>
</g>
<!-- c8940999&#45;&gt;c8940045 -->
<g id="edge6" class="edge">
<title>c8940999&#45;&gt;c8940045</title>
<path fill="none" stroke="#000000" d="M263.5545,-30.1576C275.2181,-32.6685 286.7747,-35.1564 296.9969,-37.357"/>
<polygon fill="none" stroke="#000000" points="264.2714,-26.7318 253.7588,-28.0488 262.7982,-33.575 264.2714,-26.7318"/>
</g>
</g>
</svg>
