<?xml version="1.0" encoding="UTF-8" standalone="no"?>
<!DOCTYPE svg PUBLIC "-//W3C//DTD SVG 1.1//EN"
 "http://www.w3.org/Graphics/SVG/1.1/DTD/svg11.dtd">
<!-- Generated by graphviz version 2.40.1 (20161225.0304)
 -->
<!-- Title: G Pages: 1 -->
<svg width="362pt" height="62pt"
 viewBox="0.00 0.00 362.00 61.50" xmlns="http://www.w3.org/2000/svg" xmlns:xlink="http://www.w3.org/1999/xlink">
<g id="graph0" class="graph" transform="scale(1 1) rotate(0) translate(4 57.5)">
<title>G</title>
<polygon fill="#ffffff" stroke="transparent" points="-4,4 -4,-57.5 358,-57.5 358,4 -4,4"/>
<!-- c9197952 -->
<g id="node1" class="node">
<title>c9197952</title>
<g id="a_node1"><a xlink:href="DBIDSelection.html" xlink:title="&lt;TABLE&gt;">
<g id="a_node1_0"><a xlink:href="DBIDSelection.html" xlink:title="de.lmu.ifi.dbs.elki.result.DBIDSelection" target="_parent">
<polygon fill="none" stroke="#000000" points="289.5,-36 289.5,-53 354.5,-53 354.5,-36 289.5,-36"/>
<text text-anchor="start" x="293.5" y="-43.6" font-family="Roboto" font-size="8.00" fill="#000000"> </text>
<text text-anchor="start" x="296.5" y="-43.6" font-family="Roboto" font-size="8.00" fill="#000000">DBIDSelection</text>
<text text-anchor="start" x="347.5" y="-43.6" font-family="Roboto" font-size="8.00" fill="#000000"> </text>
</a>
</g>
</a>
</g>
</g>
<!-- c9197958 -->
<g id="node2" class="node">
<title>c9197958</title>
<g id="a_node2"><a xlink:href="SelectionResult.html" xlink:title="&lt;TABLE&gt;">
<g id="a_node2_1"><a xlink:href="SelectionResult.html" xlink:title="de.lmu.ifi.dbs.elki.result.SelectionResult" target="_parent">
<polygon fill="#fffacd" stroke="transparent" points="204,-36.5 204,-53.5 271,-53.5 271,-36.5 204,-36.5"/>
<polygon fill="none" stroke="#000000" points="204.5,-36 204.5,-53 271.5,-53 271.5,-36 204.5,-36"/>
<text text-anchor="start" x="208.5" y="-43.6" font-family="Roboto" font-size="8.00" fill="#000000"> </text>
<text text-anchor="start" x="211.5" y="-43.6" font-family="Roboto" font-size="8.00" fill="#000000">SelectionResult</text>
<text text-anchor="start" x="264.5" y="-43.6" font-family="Roboto" font-size="8.00" fill="#000000"> </text>
</a>
</g>
</a>
</g>
</g>
<!-- c9197958&#45;&gt;c9197952 -->
<g id="edge2" class="edge">
<title>c9197958&#45;&gt;c9197952</title>
<path fill="none" stroke="#000000" d="M283.3941,-45C285.2455,-45 287.0867,-45 288.9032,-45"/>
<polygon fill="#000000" stroke="#000000" points="283.182,-45.0001 277.182,-49 271.182,-45 277.182,-41 283.182,-45.0001"/>
</g>
<!-- c9198131 -->
<g id="node3" class="node">
<title>c9198131</title>
<g id="a_node3"><a xlink:href="../visualization/VisualizerContext.html" xlink:title="&lt;TABLE&gt;">
<g id="a_node3_2"><a xlink:href="../visualization/VisualizerContext.html" xlink:title="de.lmu.ifi.dbs.elki.visualization.VisualizerContext" target="_parent">
<polygon fill="#fffacd" stroke="transparent" points="69,0 69,-28 186,-28 186,0 69,0"/>
<polygon fill="none" stroke="#000000" points="69.5,0 69.5,-28 186.5,-28 186.5,0 69.5,0"/>
<text text-anchor="start" x="94" y="-18.6" font-family="Roboto" font-size="8.00" fill="#000000"> </text>
<text text-anchor="start" x="97" y="-18.6" font-family="Roboto" font-size="8.00" fill="#000000">VisualizerContext</text>
<text text-anchor="start" x="159" y="-18.6" font-family="Roboto" font-size="8.00" fill="#000000"> </text>
<text text-anchor="start" x="73.5" y="-7.6" font-family="Roboto" font-size="8.00" fill="#000000"> </text>
<text text-anchor="start" x="76.5" y="-7.6" font-family="Roboto" font-size="7.00" fill="#000000">de.lmu.ifi.dbs.elki.visualization</text>
<text text-anchor="start" x="179.5" y="-7.6" font-family="Roboto" font-size="8.00" fill="#000000"> </text>
</a>
</g>
</a>
</g>
</g>
<!-- c9198131&#45;&gt;c9197958 -->
<g id="edge4" class="edge">
<title>c9198131&#45;&gt;c9197958</title>
<path fill="none" stroke="#000000" d="M189.3655,-31.4348C195.5816,-33.1866 201.6789,-34.905 207.3329,-36.4984"/>
<polygon fill="#000000" stroke="#000000" points="188.9006,-31.3039 182.0405,-33.5264 177.3505,-28.0488 184.2105,-25.8263 188.9006,-31.3039"/>
</g>
<!-- c9199020 -->
<g id="node4" class="node">
<title>c9199020</title>
<g id="a_node4"><a xlink:href="Result.html" xlink:title="&lt;TABLE&gt;">
<g id="a_node4_3"><a xlink:href="Result.html" xlink:title="de.lmu.ifi.dbs.elki.result.Result" target="_parent">
<polygon fill="#fffacd" stroke="transparent" points="0,-15 0,-43 51,-43 51,-15 0,-15"/>
<polygon fill="none" stroke="#000000" points=".5,-15 .5,-43 51.5,-43 51.5,-15 .5,-15"/>
<text text-anchor="start" x="4.5" y="-32.6" font-family="Roboto" font-size="8.00" fill="#000000"> «interface» </text>
<text text-anchor="start" x="12" y="-22.6" font-family="Roboto" font-size="8.00" fill="#000000"> </text>
<text text-anchor="start" x="15" y="-22.6" font-family="Roboto" font-size="8.00" fill="#000000">Result</text>
<text text-anchor="start" x="37" y="-22.6" font-family="Roboto" font-size="8.00" fill="#000000"> </text>
</a>
</g>
</a>
</g>
</g>
<!-- c9199020&#45;&gt;c9197958 -->
<g id="edge1" class="edge">
<title>c9199020&#45;&gt;c9197958</title>
<path fill="none" stroke="#000000" stroke-dasharray="5,2" d="M61.2806,-32.3494C63.8924,-32.5757 66.4867,-32.795 69,-33 115.7687,-36.8152 169.8969,-40.5489 203.9161,-42.8127"/>
<polygon fill="none" stroke="#000000" points="61.5255,-28.8575 51.2545,-31.4566 60.9046,-35.8299 61.5255,-28.8575"/>
</g>
<!-- c9199020&#45;&gt;c9198131 -->
<g id="edge3" class="edge">
<title>c9199020&#45;&gt;c9198131</title>
<path fill="none" stroke="#000000" stroke-dasharray="5,2" d="M61.3757,-23.7242C63.7765,-23.3711 66.2266,-23.0108 68.7017,-22.6468"/>
<polygon fill="none" stroke="#000000" points="60.6232,-20.2971 51.2389,-25.2149 61.6418,-27.2226 60.6232,-20.2971"/>
</g>
</g>
</svg>
