<?xml version="1.0" encoding="UTF-8" standalone="no"?><svg xmlns="http://www.w3.org/2000/svg" xmlns:xlink="http://www.w3.org/1999/xlink" contentStyleType="text/css" height="1212px" preserveAspectRatio="none" style="width:1389px;height:1212px;background:#FFFFFF;" version="1.1" viewBox="0 0 1389 1212" width="1389px" zoomAndPan="magnify"><defs/><g><!--MD5=[df4b7d8af849f6ed9f974e84d5fd8e74]
cluster elki.visualization.parallel3d.util--><g id="cluster_elki.visualization.parallel3d.util"><path d="M8.5,138 L249.5,138 A3.75,3.75 0 0 1 252,140.5 L259,160.2969 L1047.5,160.2969 A2.5,2.5 0 0 1 1050,162.7969 L1050,1184.5 A2.5,2.5 0 0 1 1047.5,1187 L8.5,1187 A2.5,2.5 0 0 1 6,1184.5 L6,140.5 A2.5,2.5 0 0 1 8.5,138 " fill="none" style="stroke:#000000;stroke-width:1.5;"/><line style="stroke:#000000;stroke-width:1.5;" x1="6" x2="259" y1="160.2969" y2="160.2969"/><text fill="#000000" font-family="sans-serif" font-size="14" font-weight="bold" lengthAdjust="spacing" textLength="240" x="10" y="152.9951">elki.visualization.parallel3d.util</text></g><!--MD5=[d63c23c2d4b14118d71bd46d55a646bd]
cluster java.awt.event--><g id="cluster_java.awt.event"><path d="M1076.5,195.5 L1192.5,195.5 A3.75,3.75 0 0 1 1195,198 L1202,217.7969 L1379.5,217.7969 A2.5,2.5 0 0 1 1382,220.2969 L1382,373 A2.5,2.5 0 0 1 1379.5,375.5 L1076.5,375.5 A2.5,2.5 0 0 1 1074,373 L1074,198 A2.5,2.5 0 0 1 1076.5,195.5 " fill="none" style="stroke:#000000;stroke-width:1.5;"/><line style="stroke:#000000;stroke-width:1.5;" x1="1074" x2="1202" y1="217.7969" y2="217.7969"/><text fill="#000000" font-family="sans-serif" font-size="14" font-weight="bold" lengthAdjust="spacing" textLength="115" x="1078" y="210.4951">java.awt.event</text></g><!--MD5=[a77ce62c8c742147d9013f50f761222f]
cluster javax.swing.event--><g id="cluster_javax.swing.event"><path d="M153.5,6 L296.5,6 A3.75,3.75 0 0 1 299,8.5 L306,28.2969 L350.5,28.2969 A2.5,2.5 0 0 1 353,30.7969 L353,102.5 A2.5,2.5 0 0 1 350.5,105 L153.5,105 A2.5,2.5 0 0 1 151,102.5 L151,8.5 A2.5,2.5 0 0 1 153.5,6 " fill="none" style="stroke:#000000;stroke-width:1.5;"/><line style="stroke:#000000;stroke-width:1.5;" x1="151" x2="306" y1="28.2969" y2="28.2969"/><text fill="#000000" font-family="sans-serif" font-size="14" font-weight="bold" lengthAdjust="spacing" textLength="142" x="155" y="20.9951">javax.swing.event</text></g><!--MD5=[4c9b1072ce237ba4619c5094a7b86195]
class elki.visualization.parallel3d.util.SimpleMessageOverlay--><a href="SimpleMessageOverlay.html" target="_top" title="SimpleMessageOverlay.html" xlink:actuate="onRequest" xlink:href="SimpleMessageOverlay.html" xlink:show="new" xlink:title="SimpleMessageOverlay.html" xlink:type="simple"><g id="elem_elki.visualization.parallel3d.util.SimpleMessageOverlay"><rect codeLine="4" fill="#F1F1F1" height="145.7813" id="elki.visualization.parallel3d.util.SimpleMessageOverlay" rx="2.5" ry="2.5" style="stroke:#181818;stroke-width:0.5;" width="210" x="517" y="696.5"/><ellipse cx="540.55" cy="712.5" fill="#ADD1B2" rx="11" ry="11" style="stroke:#181818;stroke-width:1.0;"/><path d="M543.5188,718.1406 Q542.9406,718.4375 542.3,718.5781 Q541.6594,718.7344 540.9563,718.7344 Q538.4563,718.7344 537.1281,717.0938 Q535.8156,715.4375 535.8156,712.3125 Q535.8156,709.1875 537.1281,707.5313 Q538.4563,705.875 540.9563,705.875 Q541.6594,705.875 542.3,706.0313 Q542.9563,706.1875 543.5188,706.4844 L543.5188,709.2031 Q542.8938,708.625 542.3,708.3594 Q541.7063,708.0781 541.0813,708.0781 Q539.7375,708.0781 539.05,709.1563 Q538.3625,710.2188 538.3625,712.3125 Q538.3625,714.4063 539.05,715.4844 Q539.7375,716.5469 541.0813,716.5469 Q541.7063,716.5469 542.3,716.2813 Q542.8938,716 543.5188,715.4219 L543.5188,718.1406 Z " fill="#000000"/><text fill="#000000" font-family="sans-serif" font-size="14" lengthAdjust="spacing" textLength="159" x="556.45" y="717.3467">SimpleMessageOverlay</text><line style="stroke:#181818;stroke-width:0.5;" x1="518" x2="726" y1="728.5" y2="728.5"/><polygon fill="none" points="528,738.1484,524,744.1484,532,744.1484" style="stroke:#1963A0;stroke-width:1.0;"/><text fill="#000000" font-family="sans-serif" font-size="14" lengthAdjust="spacing" textLength="164" x="537" y="745.4951">renderer: TextRenderer</text><rect fill="none" height="6" style="stroke:#C82930;stroke-width:1.0;" width="6" x="525" y="755.4453"/><text fill="#000000" font-family="sans-serif" font-size="14" lengthAdjust="spacing" textLength="113" x="537" y="761.792">message: String</text><polygon fill="none" points="528,770.7422,524,776.7422,532,776.7422" style="stroke:#1963A0;stroke-width:1.0;"/><text fill="#000000" font-family="sans-serif" font-size="14" lengthAdjust="spacing" textLength="81" x="537" y="778.0889">fontsize: int</text><line style="stroke:#181818;stroke-width:0.5;" x1="518" x2="726" y1="785.3906" y2="785.3906"/><polygon fill="#4177AF" points="528,795.0391,524,801.0391,532,801.0391" style="stroke:#1963A0;stroke-width:1.0;"/><text fill="#000000" font-family="sans-serif" font-size="14" lengthAdjust="spacing" textLength="184" x="537" y="802.3857">renderContents(GL2): void</text><ellipse cx="528" cy="815.3359" fill="#84BE84" rx="3" ry="3" style="stroke:#038048;stroke-width:1.0;"/><text fill="#000000" font-family="sans-serif" font-size="14" lengthAdjust="spacing" textLength="145" x="537" y="818.6826">getMessage(): String</text><ellipse cx="528" cy="831.6328" fill="#84BE84" rx="3" ry="3" style="stroke:#038048;stroke-width:1.0;"/><text fill="#000000" font-family="sans-serif" font-size="14" lengthAdjust="spacing" textLength="172" x="537" y="834.9795">setMessage(String): void</text></g></a><!--MD5=[a9fb6da8e1613bee275c00f1b1bcba3e]
class elki.visualization.parallel3d.util.AbstractSimpleOverlay--><a href="AbstractSimpleOverlay.html" target="_top" title="AbstractSimpleOverlay.html" xlink:actuate="onRequest" xlink:href="AbstractSimpleOverlay.html" xlink:show="new" xlink:title="AbstractSimpleOverlay.html" xlink:type="simple"><g id="elem_elki.visualization.parallel3d.util.AbstractSimpleOverlay"><rect codeLine="13" fill="#F1F1F1" height="129.4844" id="elki.visualization.parallel3d.util.AbstractSimpleOverlay" rx="2.5" ry="2.5" style="stroke:#181818;stroke-width:0.5;" width="212" x="685" y="230.5"/><ellipse cx="708.55" cy="246.5" fill="#A9DCDF" rx="11" ry="11" style="stroke:#181818;stroke-width:1.0;"/><path d="M708.6594,241.8438 L707.5031,246.9219 L709.8313,246.9219 L708.6594,241.8438 Z M707.175,239.6094 L710.1594,239.6094 L713.5188,252 L711.0656,252 L710.3,248.9375 L707.0188,248.9375 L706.2688,252 L703.8313,252 L707.175,239.6094 Z " fill="#000000"/><text fill="#000000" font-family="sans-serif" font-size="14" font-style="italic" lengthAdjust="spacing" textLength="161" x="724.45" y="251.3467">AbstractSimpleOverlay</text><line style="stroke:#181818;stroke-width:0.5;" x1="686" x2="896" y1="262.5" y2="262.5"/><polygon fill="none" points="696,272.1484,692,278.1484,700,278.1484" style="stroke:#1963A0;stroke-width:1.0;"/><text fill="#000000" font-family="sans-serif" font-size="14" lengthAdjust="spacing" textLength="63" x="705" y="279.4951">width: int</text><polygon fill="none" points="696,288.4453,692,294.4453,700,294.4453" style="stroke:#1963A0;stroke-width:1.0;"/><text fill="#000000" font-family="sans-serif" font-size="14" lengthAdjust="spacing" textLength="70" x="705" y="295.792">height: int</text><line style="stroke:#181818;stroke-width:0.5;" x1="686" x2="896" y1="303.0938" y2="303.0938"/><ellipse cx="696" cy="316.7422" fill="#84BE84" rx="3" ry="3" style="stroke:#038048;stroke-width:1.0;"/><text fill="#000000" font-family="sans-serif" font-size="14" lengthAdjust="spacing" textLength="120" x="705" y="320.0889">render(GL2): void</text><polygon fill="#4177AF" points="696,329.0391,692,335.0391,700,335.0391" style="stroke:#1963A0;stroke-width:1.0;"/><text fill="#000000" font-family="sans-serif" font-size="14" font-style="italic" lengthAdjust="spacing" textLength="186" x="705" y="336.3857">renderContents(GL2): void</text><ellipse cx="696" cy="349.3359" fill="#84BE84" rx="3" ry="3" style="stroke:#038048;stroke-width:1.0;"/><text fill="#000000" font-family="sans-serif" font-size="14" lengthAdjust="spacing" textLength="140" x="705" y="352.6826">setSize(int, int): void</text></g></a><!--MD5=[14ff58992bde1d7d21ad441f565ba2bb]
class elki.visualization.parallel3d.util.SimpleMenuOverlay--><a href="SimpleMenuOverlay.html" target="_top" title="SimpleMenuOverlay.html" xlink:actuate="onRequest" xlink:href="SimpleMenuOverlay.html" xlink:show="new" xlink:title="SimpleMenuOverlay.html" xlink:type="simple"><g id="elem_elki.visualization.parallel3d.util.SimpleMenuOverlay"><rect codeLine="21" fill="#F1F1F1" height="243.5625" id="elki.visualization.parallel3d.util.SimpleMenuOverlay" rx="2.5" ry="2.5" style="stroke:#181818;stroke-width:0.5;" width="272" x="762" y="647.5"/><ellipse cx="822.75" cy="663.5" fill="#A9DCDF" rx="11" ry="11" style="stroke:#181818;stroke-width:1.0;"/><path d="M822.8594,658.8438 L821.7031,663.9219 L824.0313,663.9219 L822.8594,658.8438 Z M821.375,656.6094 L824.3594,656.6094 L827.7188,669 L825.2656,669 L824.5,665.9375 L821.2188,665.9375 L820.4688,669 L818.0313,669 L821.375,656.6094 Z " fill="#000000"/><text fill="#000000" font-family="sans-serif" font-size="14" font-style="italic" lengthAdjust="spacing" textLength="142" x="843.25" y="668.3467">SimpleMenuOverlay</text><line style="stroke:#181818;stroke-width:0.5;" x1="763" x2="1033" y1="679.5" y2="679.5"/><polygon fill="none" points="773,689.1484,769,695.1484,777,695.1484" style="stroke:#1963A0;stroke-width:1.0;"/><text fill="#000000" font-family="sans-serif" font-size="14" lengthAdjust="spacing" textLength="164" x="782" y="696.4951">renderer: TextRenderer</text><rect fill="none" height="6" style="stroke:#C82930;stroke-width:1.0;" width="6" x="770" y="706.4453"/><text fill="#000000" font-family="sans-serif" font-size="14" lengthAdjust="spacing" textLength="182" x="782" y="712.792">options: ArrayList&lt;String&gt;</text><polygon fill="none" points="773,721.7422,769,727.7422,777,727.7422" style="stroke:#1963A0;stroke-width:1.0;"/><text fill="#000000" font-family="sans-serif" font-size="14" lengthAdjust="spacing" textLength="81" x="782" y="729.0889">fontsize: int</text><line style="stroke:#181818;stroke-width:0.5;" x1="763" x2="1033" y1="736.3906" y2="736.3906"/><polygon fill="#4177AF" points="773,746.0391,769,752.0391,777,752.0391" style="stroke:#1963A0;stroke-width:1.0;"/><text fill="#000000" font-family="sans-serif" font-size="14" lengthAdjust="spacing" textLength="184" x="782" y="753.3857">renderContents(GL2): void</text><ellipse cx="773" cy="766.3359" fill="#84BE84" rx="3" ry="3" style="stroke:#038048;stroke-width:1.0;"/><text fill="#000000" font-family="sans-serif" font-size="14" lengthAdjust="spacing" textLength="231" x="782" y="769.6826">mouseClicked(MouseEvent): void</text><ellipse cx="773" cy="782.6328" fill="#84BE84" rx="3" ry="3" style="stroke:#038048;stroke-width:1.0;"/><text fill="#000000" font-family="sans-serif" font-size="14" font-style="italic" lengthAdjust="spacing" textLength="192" x="782" y="785.9795">menuItemClicked(int): void</text><ellipse cx="773" cy="798.9297" fill="#84BE84" rx="3" ry="3" style="stroke:#038048;stroke-width:1.0;"/><text fill="#000000" font-family="sans-serif" font-size="14" lengthAdjust="spacing" textLength="238" x="782" y="802.2764">mousePressed(MouseEvent): void</text><ellipse cx="773" cy="815.2266" fill="#84BE84" rx="3" ry="3" style="stroke:#038048;stroke-width:1.0;"/><text fill="#000000" font-family="sans-serif" font-size="14" lengthAdjust="spacing" textLength="246" x="782" y="818.5732">mouseReleased(MouseEvent): void</text><ellipse cx="773" cy="831.5234" fill="#84BE84" rx="3" ry="3" style="stroke:#038048;stroke-width:1.0;"/><text fill="#000000" font-family="sans-serif" font-size="14" lengthAdjust="spacing" textLength="236" x="782" y="834.8701">mouseEntered(MouseEvent): void</text><ellipse cx="773" cy="847.8203" fill="#84BE84" rx="3" ry="3" style="stroke:#038048;stroke-width:1.0;"/><text fill="#000000" font-family="sans-serif" font-size="14" lengthAdjust="spacing" textLength="223" x="782" y="851.167">mouseExited(MouseEvent): void</text><ellipse cx="773" cy="864.1172" fill="#84BE84" rx="3" ry="3" style="stroke:#038048;stroke-width:1.0;"/><text fill="#000000" font-family="sans-serif" font-size="14" lengthAdjust="spacing" textLength="217" x="782" y="867.4639">getOptions(): ArrayList&lt;String&gt;</text><ellipse cx="773" cy="880.4141" fill="#84BE84" rx="3" ry="3" style="stroke:#038048;stroke-width:1.0;"/><text fill="#000000" font-family="sans-serif" font-size="14" lengthAdjust="spacing" textLength="244" x="782" y="883.7607">setOptions(ArrayList&lt;String&gt;): void</text></g></a><!--MD5=[29689db669d809b76510dccf9af53d7d]
class elki.visualization.parallel3d.util.Simple1DOFCamera--><a href="Simple1DOFCamera.html" target="_top" title="Simple1DOFCamera.html" xlink:actuate="onRequest" xlink:href="Simple1DOFCamera.html" xlink:show="new" xlink:title="Simple1DOFCamera.html" xlink:type="simple"><g id="elem_elki.visualization.parallel3d.util.Simple1DOFCamera"><rect codeLine="36" fill="#F1F1F1" height="520.6094" id="elki.visualization.parallel3d.util.Simple1DOFCamera" rx="2.5" ry="2.5" style="stroke:#181818;stroke-width:0.5;" width="459" x="22.5" y="509"/><ellipse cx="178.75" cy="525" fill="#ADD1B2" rx="11" ry="11" style="stroke:#181818;stroke-width:1.0;"/><path d="M181.7188,530.6406 Q181.1406,530.9375 180.5,531.0781 Q179.8594,531.2344 179.1563,531.2344 Q176.6563,531.2344 175.3281,529.5938 Q174.0156,527.9375 174.0156,524.8125 Q174.0156,521.6875 175.3281,520.0313 Q176.6563,518.375 179.1563,518.375 Q179.8594,518.375 180.5,518.5313 Q181.1563,518.6875 181.7188,518.9844 L181.7188,521.7031 Q181.0938,521.125 180.5,520.8594 Q179.9063,520.5781 179.2813,520.5781 Q177.9375,520.5781 177.25,521.6563 Q176.5625,522.7188 176.5625,524.8125 Q176.5625,526.9063 177.25,527.9844 Q177.9375,529.0469 179.2813,529.0469 Q179.9063,529.0469 180.5,528.7813 Q181.0938,528.5 181.7188,527.9219 L181.7188,530.6406 Z " fill="#000000"/><text fill="#000000" font-family="sans-serif" font-size="14" lengthAdjust="spacing" textLength="138" x="199.25" y="529.8467">Simple1DOFCamera</text><line style="stroke:#181818;stroke-width:0.5;" x1="23.5" x2="480.5" y1="541" y2="541"/><rect fill="none" height="6" style="stroke:#C82930;stroke-width:1.0;" width="6" x="30.5" y="551.6484"/><text fill="#000000" font-family="sans-serif" font-size="14" lengthAdjust="spacing" textLength="120" x="42.5" y="557.9951">rotationZ: double</text><rect fill="none" height="6" style="stroke:#C82930;stroke-width:1.0;" width="6" x="30.5" y="567.9453"/><text fill="#000000" font-family="sans-serif" font-size="14" lengthAdjust="spacing" textLength="116" x="42.5" y="574.292">distance: double</text><rect fill="none" height="6" style="stroke:#C82930;stroke-width:1.0;" width="6" x="30.5" y="584.2422"/><text fill="#000000" font-family="sans-serif" font-size="14" lengthAdjust="spacing" textLength="101" x="42.5" y="590.5889">height: double</text><rect fill="none" height="6" style="stroke:#C82930;stroke-width:1.0;" width="6" x="30.5" y="600.5391"/><text fill="#000000" font-family="sans-serif" font-size="14" lengthAdjust="spacing" textLength="87" x="42.5" y="606.8857">ratio: double</text><rect fill="none" height="6" style="stroke:#C82930;stroke-width:1.0;" width="6" x="30.5" y="616.8359"/><text fill="#000000" font-family="sans-serif" font-size="14" lengthAdjust="spacing" textLength="75" x="42.5" y="623.1826">viewp: int[]</text><rect fill="none" height="6" style="stroke:#C82930;stroke-width:1.0;" width="6" x="30.5" y="633.1328"/><text fill="#000000" font-family="sans-serif" font-size="14" lengthAdjust="spacing" textLength="140" x="42.5" y="639.4795">modelview: double[]</text><rect fill="none" height="6" style="stroke:#C82930;stroke-width:1.0;" width="6" x="30.5" y="649.4297"/><text fill="#000000" font-family="sans-serif" font-size="14" lengthAdjust="spacing" textLength="136" x="42.5" y="655.7764">projection: double[]</text><rect fill="none" height="6" style="stroke:#C82930;stroke-width:1.0;" width="6" x="30.5" y="665.7266"/><text fill="#000000" font-family="sans-serif" font-size="14" lengthAdjust="spacing" textLength="58" x="42.5" y="672.0732">glu: GLU</text><rect fill="none" height="6" style="stroke:#C82930;stroke-width:1.0;" width="6" x="30.5" y="682.0234"/><text fill="#000000" font-family="sans-serif" font-size="14" lengthAdjust="spacing" textLength="92" x="42.5" y="688.3701">cosZ: double</text><rect fill="none" height="6" style="stroke:#C82930;stroke-width:1.0;" width="6" x="30.5" y="698.3203"/><text fill="#000000" font-family="sans-serif" font-size="14" lengthAdjust="spacing" textLength="87" x="42.5" y="704.667">sinZ: double</text><line style="stroke:#181818;stroke-width:0.5;" x1="23.5" x2="480.5" y1="711.9688" y2="711.9688"/><ellipse cx="33.5" cy="725.6172" fill="#84BE84" rx="3" ry="3" style="stroke:#038048;stroke-width:1.0;"/><text fill="#000000" font-family="sans-serif" font-size="14" lengthAdjust="spacing" textLength="176" x="42.5" y="728.9639">Simple1DOFCamera(GLU)</text><ellipse cx="33.5" cy="741.9141" fill="#84BE84" rx="3" ry="3" style="stroke:#038048;stroke-width:1.0;"/><text fill="#000000" font-family="sans-serif" font-size="14" lengthAdjust="spacing" textLength="286" x="42.5" y="745.2607">Simple1DOFCamera(Simple1DOFCamera)</text><ellipse cx="33.5" cy="758.2109" fill="#84BE84" rx="3" ry="3" style="stroke:#038048;stroke-width:1.0;"/><text fill="#000000" font-family="sans-serif" font-size="14" lengthAdjust="spacing" textLength="151" x="42.5" y="761.5576">getDistance(): double</text><ellipse cx="33.5" cy="774.5078" fill="#84BE84" rx="3" ry="3" style="stroke:#038048;stroke-width:1.0;"/><text fill="#000000" font-family="sans-serif" font-size="14" lengthAdjust="spacing" textLength="178" x="42.5" y="777.8545">setDistance(double): void</text><ellipse cx="33.5" cy="790.8047" fill="#84BE84" rx="3" ry="3" style="stroke:#038048;stroke-width:1.0;"/><text fill="#000000" font-family="sans-serif" font-size="14" lengthAdjust="spacing" textLength="135" x="42.5" y="794.1514">getHeight(): double</text><ellipse cx="33.5" cy="807.1016" fill="#84BE84" rx="3" ry="3" style="stroke:#038048;stroke-width:1.0;"/><text fill="#000000" font-family="sans-serif" font-size="14" lengthAdjust="spacing" textLength="162" x="42.5" y="810.4482">setHeight(double): void</text><ellipse cx="33.5" cy="823.3984" fill="#84BE84" rx="3" ry="3" style="stroke:#038048;stroke-width:1.0;"/><text fill="#000000" font-family="sans-serif" font-size="14" lengthAdjust="spacing" textLength="125" x="42.5" y="826.7451">getRatio(): double</text><ellipse cx="33.5" cy="839.6953" fill="#84BE84" rx="3" ry="3" style="stroke:#038048;stroke-width:1.0;"/><text fill="#000000" font-family="sans-serif" font-size="14" lengthAdjust="spacing" textLength="152" x="42.5" y="843.042">setRatio(double): void</text><ellipse cx="33.5" cy="855.9922" fill="#84BE84" rx="3" ry="3" style="stroke:#038048;stroke-width:1.0;"/><text fill="#000000" font-family="sans-serif" font-size="14" lengthAdjust="spacing" textLength="158" x="42.5" y="859.3389">getRotationZ(): double</text><ellipse cx="33.5" cy="872.2891" fill="#84BE84" rx="3" ry="3" style="stroke:#038048;stroke-width:1.0;"/><text fill="#000000" font-family="sans-serif" font-size="14" lengthAdjust="spacing" textLength="185" x="42.5" y="875.6357">setRotationZ(double): void</text><ellipse cx="33.5" cy="888.5859" fill="#84BE84" rx="3" ry="3" style="stroke:#038048;stroke-width:1.0;"/><text fill="#000000" font-family="sans-serif" font-size="14" lengthAdjust="spacing" textLength="110" x="42.5" y="891.9326">apply(GL2): void</text><ellipse cx="33.5" cy="904.8828" fill="#84BE84" rx="3" ry="3" style="stroke:#038048;stroke-width:1.0;"/><text fill="#000000" font-family="sans-serif" font-size="14" lengthAdjust="spacing" textLength="303" x="42.5" y="908.2295">unproject(double, double, double): double[]</text><ellipse cx="33.5" cy="921.1797" fill="#84BE84" rx="3" ry="3" style="stroke:#038048;stroke-width:1.0;"/><text fill="#000000" font-family="sans-serif" font-size="14" lengthAdjust="spacing" textLength="339" x="42.5" y="924.5264">unproject(double, double, double, double[]): void</text><ellipse cx="33.5" cy="937.4766" fill="#84BE84" rx="3" ry="3" style="stroke:#038048;stroke-width:1.0;"/><text fill="#000000" font-family="sans-serif" font-size="14" lengthAdjust="spacing" textLength="321" x="42.5" y="940.8232">project(double, double, double, double[]): void</text><ellipse cx="33.5" cy="953.7734" fill="#84BE84" rx="3" ry="3" style="stroke:#038048;stroke-width:1.0;"/><text fill="#000000" font-family="sans-serif" font-size="14" lengthAdjust="spacing" textLength="377" x="42.5" y="957.1201">squaredDistanceFromCamera(double, double): double</text><ellipse cx="33.5" cy="970.0703" fill="#84BE84" rx="3" ry="3" style="stroke:#038048;stroke-width:1.0;"/><text fill="#000000" font-family="sans-serif" font-size="14" lengthAdjust="spacing" textLength="433" x="42.5" y="973.417">squaredDistanceFromCamera(double, double, double): double</text><ellipse cx="33.5" cy="986.3672" fill="#84BE84" rx="3" ry="3" style="stroke:#038048;stroke-width:1.0;"/><text fill="#000000" font-family="sans-serif" font-size="14" lengthAdjust="spacing" textLength="289" x="42.5" y="989.7139">addCameraListener(CameraListener): void</text><ellipse cx="33.5" cy="1002.6641" fill="#84BE84" rx="3" ry="3" style="stroke:#038048;stroke-width:1.0;"/><text fill="#000000" font-family="sans-serif" font-size="14" lengthAdjust="spacing" textLength="315" x="42.5" y="1006.0107">removeCameraListener(CameraListener): void</text><polygon fill="#FFFF44" points="33.5,1013.9609,37.5,1017.9609,33.5,1021.9609,29.5,1017.9609" style="stroke:#B38D22;stroke-width:1.0;"/><text fill="#000000" font-family="sans-serif" font-size="14" lengthAdjust="spacing" textLength="223" x="42.5" y="1022.3076">fireCameraChangedEvent(): void</text></g></a><!--MD5=[7793afb919cda6601b959786b981b75a]
class elki.visualization.parallel3d.util.Simple1DOFCamera.CameraListener--><a href="Simple1DOFCamera.CameraListener.html" target="_top" title="Simple1DOFCamera.CameraListener.html" xlink:actuate="onRequest" xlink:href="Simple1DOFCamera.CameraListener.html" xlink:show="new" xlink:title="Simple1DOFCamera.CameraListener.html" xlink:type="simple"><g id="elem_elki.visualization.parallel3d.util.Simple1DOFCamera.CameraListener"><rect codeLine="68" fill="#F1F1F1" height="64.2969" id="elki.visualization.parallel3d.util.Simple1DOFCamera.CameraListener" rx="2.5" ry="2.5" style="stroke:#181818;stroke-width:0.5;" width="292" x="106" y="1107"/><ellipse cx="121" cy="1123" fill="#B4A7E5" rx="11" ry="11" style="stroke:#181818;stroke-width:1.0;"/><path d="M116.9219,1118.7656 L116.9219,1116.6094 L124.3125,1116.6094 L124.3125,1118.7656 L121.8438,1118.7656 L121.8438,1126.8438 L124.3125,1126.8438 L124.3125,1129 L116.9219,1129 L116.9219,1126.8438 L119.3906,1126.8438 L119.3906,1118.7656 L116.9219,1118.7656 Z " fill="#000000"/><text fill="#000000" font-family="sans-serif" font-size="14" font-style="italic" lengthAdjust="spacing" textLength="260" x="135" y="1127.8467">Simple1DOFCamera.CameraListener</text><line style="stroke:#181818;stroke-width:0.5;" x1="107" x2="397" y1="1139" y2="1139"/><line style="stroke:#181818;stroke-width:0.5;" x1="107" x2="397" y1="1147" y2="1147"/><ellipse cx="117" cy="1160.6484" fill="#84BE84" rx="3" ry="3" style="stroke:#038048;stroke-width:1.0;"/><text fill="#000000" font-family="sans-serif" font-size="14" font-style="italic" lengthAdjust="spacing" textLength="167" x="126" y="1163.9951">cameraChanged(): void</text></g></a><!--MD5=[bc0c5d9ec09dbc21a2cac7e0f8e67fee]
class elki.visualization.parallel3d.util.Arcball1DOFAdapter--><a href="Arcball1DOFAdapter.html" target="_top" title="Arcball1DOFAdapter.html" xlink:actuate="onRequest" xlink:href="Arcball1DOFAdapter.html" xlink:show="new" xlink:title="Arcball1DOFAdapter.html" xlink:type="simple"><g id="elem_elki.visualization.parallel3d.util.Arcball1DOFAdapter"><rect codeLine="72" fill="#F1F1F1" height="243.5625" id="elki.visualization.parallel3d.util.Arcball1DOFAdapter" rx="2.5" ry="2.5" style="stroke:#181818;stroke-width:0.5;" width="453" x="25.5" y="173"/><ellipse cx="178.75" cy="189" fill="#ADD1B2" rx="11" ry="11" style="stroke:#181818;stroke-width:1.0;"/><path d="M181.7188,194.6406 Q181.1406,194.9375 180.5,195.0781 Q179.8594,195.2344 179.1563,195.2344 Q176.6563,195.2344 175.3281,193.5938 Q174.0156,191.9375 174.0156,188.8125 Q174.0156,185.6875 175.3281,184.0313 Q176.6563,182.375 179.1563,182.375 Q179.8594,182.375 180.5,182.5313 Q181.1563,182.6875 181.7188,182.9844 L181.7188,185.7031 Q181.0938,185.125 180.5,184.8594 Q179.9063,184.5781 179.2813,184.5781 Q177.9375,184.5781 177.25,185.6563 Q176.5625,186.7188 176.5625,188.8125 Q176.5625,190.9063 177.25,191.9844 Q177.9375,193.0469 179.2813,193.0469 Q179.9063,193.0469 180.5,192.7813 Q181.0938,192.5 181.7188,191.9219 L181.7188,194.6406 Z " fill="#000000"/><text fill="#000000" font-family="sans-serif" font-size="14" lengthAdjust="spacing" textLength="138" x="199.25" y="193.8467">Arcball1DOFAdapter</text><line style="stroke:#181818;stroke-width:0.5;" x1="26.5" x2="477.5" y1="205" y2="205"/><rect fill="none" height="6" style="stroke:#C82930;stroke-width:1.0;" width="6" x="33.5" y="215.6484"/><text fill="#000000" font-family="sans-serif" font-size="14" lengthAdjust="spacing" text-decoration="underline" textLength="116" x="45.5" y="221.9951">DEBUG: boolean</text><rect fill="none" height="6" style="stroke:#C82930;stroke-width:1.0;" width="6" x="33.5" y="231.9453"/><text fill="#000000" font-family="sans-serif" font-size="14" lengthAdjust="spacing" textLength="122" x="45.5" y="238.292">startvec: double[]</text><rect fill="none" height="6" style="stroke:#C82930;stroke-width:1.0;" width="6" x="33.5" y="248.2422"/><text fill="#000000" font-family="sans-serif" font-size="14" lengthAdjust="spacing" textLength="118" x="45.5" y="254.5889">endvec: double[]</text><rect fill="none" height="6" style="stroke:#C82930;stroke-width:1.0;" width="6" x="33.5" y="264.5391"/><text fill="#000000" font-family="sans-serif" font-size="14" lengthAdjust="spacing" textLength="98" x="45.5" y="270.8857">near: double[]</text><rect fill="none" height="6" style="stroke:#C82930;stroke-width:1.0;" width="6" x="33.5" y="280.8359"/><text fill="#000000" font-family="sans-serif" font-size="14" lengthAdjust="spacing" textLength="84" x="45.5" y="287.1826">far: double[]</text><polygon fill="none" points="36.5,296.1328,32.5,302.1328,40.5,302.1328" style="stroke:#1963A0;stroke-width:1.0;"/><text fill="#000000" font-family="sans-serif" font-size="14" lengthAdjust="spacing" textLength="126" x="45.5" y="303.4795">startangle: double</text><line style="stroke:#181818;stroke-width:0.5;" x1="26.5" x2="477.5" y1="310.7813" y2="310.7813"/><ellipse cx="36.5" cy="324.4297" fill="#84BE84" rx="3" ry="3" style="stroke:#038048;stroke-width:1.0;"/><text fill="#000000" font-family="sans-serif" font-size="14" lengthAdjust="spacing" textLength="286" x="45.5" y="327.7764">Arcball1DOFAdapter(Simple1DOFCamera)</text><ellipse cx="36.5" cy="340.7266" fill="#84BE84" rx="3" ry="3" style="stroke:#038048;stroke-width:1.0;"/><text fill="#000000" font-family="sans-serif" font-size="14" lengthAdjust="spacing" textLength="313" x="45.5" y="344.0732">mouseWheelMoved(MouseWheelEvent): void</text><ellipse cx="36.5" cy="357.0234" fill="#84BE84" rx="3" ry="3" style="stroke:#038048;stroke-width:1.0;"/><text fill="#000000" font-family="sans-serif" font-size="14" lengthAdjust="spacing" textLength="238" x="45.5" y="360.3701">mousePressed(MouseEvent): void</text><rect fill="#F24D5C" height="6" style="stroke:#C82930;stroke-width:1.0;" width="6" x="33.5" y="370.3203"/><text fill="#000000" font-family="sans-serif" font-size="14" lengthAdjust="spacing" textLength="427" x="45.5" y="376.667">mapMouseToPlane(Simple1DOFCamera, Point, double[]): void</text><ellipse cx="36.5" cy="389.6172" fill="#84BE84" rx="3" ry="3" style="stroke:#038048;stroke-width:1.0;"/><text fill="#000000" font-family="sans-serif" font-size="14" lengthAdjust="spacing" textLength="241" x="45.5" y="392.9639">mouseDragged(MouseEvent): void</text><ellipse cx="36.5" cy="405.9141" fill="#84BE84" rx="3" ry="3" style="stroke:#038048;stroke-width:1.0;"/><text fill="#000000" font-family="sans-serif" font-size="14" lengthAdjust="spacing" textLength="170" x="45.5" y="409.2607">debugRender(GL2): void</text></g></a><!--MD5=[da93d464c7abf89634cf306b9e3855c2]
class java.awt.event.MouseListener--><g id="elem_java.awt.event.MouseListener"><rect codeLine="97" fill="#F1F1F1" height="129.4844" id="java.awt.event.MouseListener" rx="2.5" ry="2.5" style="stroke:#181818;stroke-width:0.5;" width="275" x="1090.5" y="230.5"/><ellipse cx="1172.75" cy="246.5" fill="#B4A7E5" rx="11" ry="11" style="stroke:#181818;stroke-width:1.0;"/><path d="M1168.6719,242.2656 L1168.6719,240.1094 L1176.0625,240.1094 L1176.0625,242.2656 L1173.5938,242.2656 L1173.5938,250.3438 L1176.0625,250.3438 L1176.0625,252.5 L1168.6719,252.5 L1168.6719,250.3438 L1171.1406,250.3438 L1171.1406,242.2656 L1168.6719,242.2656 Z " fill="#000000"/><text fill="#000000" font-family="sans-serif" font-size="14" font-style="italic" lengthAdjust="spacing" textLength="102" x="1193.25" y="251.3467">MouseListener</text><line style="stroke:#181818;stroke-width:0.5;" x1="1091.5" x2="1364.5" y1="262.5" y2="262.5"/><line style="stroke:#181818;stroke-width:0.5;" x1="1091.5" x2="1364.5" y1="270.5" y2="270.5"/><ellipse cx="1101.5" cy="284.1484" fill="#84BE84" rx="3" ry="3" style="stroke:#038048;stroke-width:1.0;"/><text fill="#000000" font-family="sans-serif" font-size="14" font-style="italic" lengthAdjust="spacing" textLength="235" x="1110.5" y="287.4951">mouseClicked(MouseEvent): void</text><ellipse cx="1101.5" cy="300.4453" fill="#84BE84" rx="3" ry="3" style="stroke:#038048;stroke-width:1.0;"/><text fill="#000000" font-family="sans-serif" font-size="14" font-style="italic" lengthAdjust="spacing" textLength="237" x="1110.5" y="303.792">mousePressed(MouseEvent): void</text><ellipse cx="1101.5" cy="316.7422" fill="#84BE84" rx="3" ry="3" style="stroke:#038048;stroke-width:1.0;"/><text fill="#000000" font-family="sans-serif" font-size="14" font-style="italic" lengthAdjust="spacing" textLength="249" x="1110.5" y="320.0889">mouseReleased(MouseEvent): void</text><ellipse cx="1101.5" cy="333.0391" fill="#84BE84" rx="3" ry="3" style="stroke:#038048;stroke-width:1.0;"/><text fill="#000000" font-family="sans-serif" font-size="14" font-style="italic" lengthAdjust="spacing" textLength="238" x="1110.5" y="336.3857">mouseEntered(MouseEvent): void</text><ellipse cx="1101.5" cy="349.3359" fill="#84BE84" rx="3" ry="3" style="stroke:#038048;stroke-width:1.0;"/><text fill="#000000" font-family="sans-serif" font-size="14" font-style="italic" lengthAdjust="spacing" textLength="227" x="1110.5" y="352.6826">mouseExited(MouseEvent): void</text></g><!--MD5=[0df3bf66c1ea09e113d54b885c88f11a]
class javax.swing.event.MouseInputAdapter--><g id="elem_javax.swing.event.MouseInputAdapter"><rect codeLine="107" fill="#F1F1F1" height="48" id="javax.swing.event.MouseInputAdapter" rx="2.5" ry="2.5" style="stroke:#181818;stroke-width:0.5;" width="170" x="167" y="41"/><ellipse cx="182" cy="57" fill="#A9DCDF" rx="11" ry="11" style="stroke:#181818;stroke-width:1.0;"/><path d="M182.1094,52.3438 L180.9531,57.4219 L183.2813,57.4219 L182.1094,52.3438 Z M180.625,50.1094 L183.6094,50.1094 L186.9688,62.5 L184.5156,62.5 L183.75,59.4375 L180.4688,59.4375 L179.7188,62.5 L177.2813,62.5 L180.625,50.1094 Z " fill="#000000"/><text fill="#000000" font-family="sans-serif" font-size="14" font-style="italic" lengthAdjust="spacing" textLength="138" x="196" y="61.8467">MouseInputAdapter</text><line style="stroke:#181818;stroke-width:0.5;" x1="168" x2="336" y1="73" y2="73"/><line style="stroke:#181818;stroke-width:0.5;" x1="168" x2="336" y1="81" y2="81"/></g><!--MD5=[2b843960988f56184fd9199b1e172564]
reverse link elki.visualization.parallel3d.util.AbstractSimpleOverlay to elki.visualization.parallel3d.util.SimpleMessageOverlay--><g id="link_elki.visualization.parallel3d.util.AbstractSimpleOverlay_elki.visualization.parallel3d.util.SimpleMessageOverlay"><path codeLine="87" d="M761.45,378.61 C729.33,468.42 678.49,610.55 647.88,696.13 " fill="none" id="elki.visualization.parallel3d.util.AbstractSimpleOverlay-backto-elki.visualization.parallel3d.util.SimpleMessageOverlay" style="stroke:#181818;stroke-width:1.0;"/><polygon fill="none" points="754.88,376.2,768.21,359.72,768.06,380.91,754.88,376.2" style="stroke:#181818;stroke-width:1.0;"/></g><!--MD5=[b3aa4fc6132ab5c6a607b470a25a85b4]
reverse link elki.visualization.parallel3d.util.AbstractSimpleOverlay to elki.visualization.parallel3d.util.SimpleMenuOverlay--><g id="link_elki.visualization.parallel3d.util.AbstractSimpleOverlay_elki.visualization.parallel3d.util.SimpleMenuOverlay"><path codeLine="88" d="M809.95,379.69 C826.77,453.95 851.54,563.36 870.53,647.21 " fill="none" id="elki.visualization.parallel3d.util.AbstractSimpleOverlay-backto-elki.visualization.parallel3d.util.SimpleMenuOverlay" style="stroke:#181818;stroke-width:1.0;"/><polygon fill="none" points="803.02,380.78,805.43,359.72,816.67,377.68,803.02,380.78" style="stroke:#181818;stroke-width:1.0;"/></g><!--MD5=[9b3c219f34552afb5f069f6b1c40eb69]
reverse link java.awt.event.MouseListener to elki.visualization.parallel3d.util.SimpleMenuOverlay--><g id="link_java.awt.event.MouseListener_elki.visualization.parallel3d.util.SimpleMenuOverlay"><path codeLine="89" d="M1171.86,376.38 C1119.98,450.67 1042.15,562.1 982.71,647.21 " fill="none" id="java.awt.event.MouseListener-backto-elki.visualization.parallel3d.util.SimpleMenuOverlay" style="stroke:#181818;stroke-width:1.0;stroke-dasharray:7.0,7.0;"/><polygon fill="none" points="1166.3,372.11,1183.49,359.72,1177.78,380.13,1166.3,372.11" style="stroke:#181818;stroke-width:1.0;"/></g><!--MD5=[810936d17b291696f0551e3406266e5d]
link elki.visualization.parallel3d.util.Simple1DOFCamera to elki.visualization.parallel3d.util.Simple1DOFCamera.CameraListener--><g id="link_elki.visualization.parallel3d.util.Simple1DOFCamera_elki.visualization.parallel3d.util.Simple1DOFCamera.CameraListener"><path codeLine="90" d="M220.01,1030.38 C219.24,1040.38 218.57,1050.28 218,1060 C217.56,1067.54 216.1,1069.69 218,1077 C220.2,1085.45 223.85,1093.98 227.97,1101.87 " fill="none" id="elki.visualization.parallel3d.util.Simple1DOFCamera-to-elki.visualization.parallel3d.util.Simple1DOFCamera.CameraListener" style="stroke:#181818;stroke-width:1.0;"/><polygon fill="#181818" points="230.58,1106.69,229.8065,1096.8716,228.1967,1102.2945,222.7738,1100.6848,230.58,1106.69" style="stroke:#181818;stroke-width:1.0;"/><text fill="#000000" font-family="sans-serif" font-size="13" lengthAdjust="spacing" textLength="54" x="219" y="1073.0669">listeners</text><text fill="#000000" font-family="sans-serif" font-size="13" lengthAdjust="spacing" textLength="7" x="218.6739" y="1095.9032">*</text></g><!--MD5=[d2d068bdba568e2bbd7a7cd3c15fd4b8]
reverse link elki.visualization.parallel3d.util.Simple1DOFCamera to elki.visualization.parallel3d.util.Simple1DOFCamera.CameraListener--><g id="link_elki.visualization.parallel3d.util.Simple1DOFCamera_elki.visualization.parallel3d.util.Simple1DOFCamera.CameraListener"><path codeLine="91" d="M277.28,1045.13 C277.54,1050.12 277.78,1055.08 278,1060 C278.34,1067.55 279.51,1069.6 278,1077 C275.95,1087.04 272.18,1097.47 268.14,1106.81 " fill="none" id="elki.visualization.parallel3d.util.Simple1DOFCamera-backto-elki.visualization.parallel3d.util.Simple1DOFCamera.CameraListener" style="stroke:#181818;stroke-width:1.0;"/><ellipse cx="276.8821" cy="1038.0378" fill="#FFFFFF" rx="8" ry="8" style="stroke:#181818;stroke-width:1.0;"/><line style="stroke:#181818;stroke-width:1.0;" x1="277.3241" x2="276.44" y1="1046.0256" y2="1030.05"/><line style="stroke:#181818;stroke-width:1.0;" x1="268.8943" x2="284.8698" y1="1038.4798" y2="1037.5957"/></g><!--MD5=[99d6f0a62046d79167439363efbd71f9]
reverse link javax.swing.event.MouseInputAdapter to elki.visualization.parallel3d.util.Arcball1DOFAdapter--><g id="link_javax.swing.event.MouseInputAdapter_elki.visualization.parallel3d.util.Arcball1DOFAdapter"><path codeLine="92" d="M252,109.3 C252,127.69 252,150.15 252,172.99 " fill="none" id="javax.swing.event.MouseInputAdapter-backto-elki.visualization.parallel3d.util.Arcball1DOFAdapter" style="stroke:#181818;stroke-width:1.0;"/><polygon fill="none" points="245,109.12,252,89.12,259,109.12,245,109.12" style="stroke:#181818;stroke-width:1.0;"/></g><!--MD5=[97be0ef87a694cf0400cf263f77765c3]
link elki.visualization.parallel3d.util.Arcball1DOFAdapter to elki.visualization.parallel3d.util.Simple1DOFCamera--><g id="link_elki.visualization.parallel3d.util.Arcball1DOFAdapter_elki.visualization.parallel3d.util.Simple1DOFCamera"><path codeLine="93" d="M252,417.07 C252,443.95 252,473.46 252,503.61 " fill="none" id="elki.visualization.parallel3d.util.Arcball1DOFAdapter-to-elki.visualization.parallel3d.util.Simple1DOFCamera" style="stroke:#181818;stroke-width:1.0;"/><polygon fill="#181818" points="252,508.85,256,499.85,252,503.85,248,499.85,252,508.85" style="stroke:#181818;stroke-width:1.0;"/><text fill="#000000" font-family="sans-serif" font-size="13" lengthAdjust="spacing" textLength="49" x="268" y="460.0669">camera</text><text fill="#000000" font-family="sans-serif" font-size="13" lengthAdjust="spacing" textLength="79" x="253" y="475.1997">startcamera</text></g><rect fill="none" height="11.6406" style="stroke:none;stroke-width:1.0;" width="186" x="594.5" y="1193"/><text fill="#888888" font-family="sans-serif" font-size="10" lengthAdjust="spacing" textLength="186" x="594.5" y="1202.2822">UMLDoclet 2.0.19, PlantUML 1.2022.8</text><!--MD5=[84dd29367dda96569bd4d5052a10a70d]
@startuml
    remove .*\.(Instance|Par|Parameterizer|Factory)$
    namespace elki.visualization.parallel3d.util {

        class SimpleMessageOverlay [[SimpleMessageOverlay.html]] {
            ~renderer: TextRenderer
            -message: String
            ~fontsize: int
            ~renderContents(GL2): void
            +getMessage(): String
            +setMessage(String): void
        }

        abstract class AbstractSimpleOverlay [[AbstractSimpleOverlay.html]] {
            ~width: int
            ~height: int
            +render(GL2): void
            {abstract} ~renderContents(GL2): void
            +setSize(int, int): void
        }

        abstract class SimpleMenuOverlay [[SimpleMenuOverlay.html]] {
            ~renderer: TextRenderer
            -options: ArrayList<String>
            ~fontsize: int
            ~renderContents(GL2): void
            +mouseClicked(MouseEvent): void
            {abstract} +menuItemClicked(int): void
            +mousePressed(MouseEvent): void
            +mouseReleased(MouseEvent): void
            +mouseEntered(MouseEvent): void
            +mouseExited(MouseEvent): void
            +getOptions(): ArrayList<String>
            +setOptions(ArrayList<String>): void
        }

        class Simple1DOFCamera [[Simple1DOFCamera.html]] {
            -rotationZ: double
            -distance: double
            -height: double
            -ratio: double
            -viewp: int[]
            -modelview: double[]
            -projection: double[]
            -glu: GLU
            -cosZ: double
            -sinZ: double
            +Simple1DOFCamera(GLU)
            +Simple1DOFCamera(Simple1DOFCamera)
            +getDistance(): double
            +setDistance(double): void
            +getHeight(): double
            +setHeight(double): void
            +getRatio(): double
            +setRatio(double): void
            +getRotationZ(): double
            +setRotationZ(double): void
            +apply(GL2): void
            +unproject(double, double, double): double[]
            +unproject(double, double, double, double[]): void
            +project(double, double, double, double[]): void
            +squaredDistanceFromCamera(double, double): double
            +squaredDistanceFromCamera(double, double, double): double
            +addCameraListener(CameraListener): void
            +removeCameraListener(CameraListener): void
            #fireCameraChangedEvent(): void
        }

        interface elki.visualization.parallel3d.util.Simple1DOFCamera.CameraListener [[Simple1DOFCamera.CameraListener.html]] {
            {abstract} +cameraChanged(): void
        }

        class Arcball1DOFAdapter [[Arcball1DOFAdapter.html]] {
            {static} -DEBUG: boolean
            -startvec: double[]
            -endvec: double[]
            -near: double[]
            -far: double[]
            ~startangle: double
            +Arcball1DOFAdapter(Simple1DOFCamera)
            +mouseWheelMoved(MouseWheelEvent): void
            +mousePressed(MouseEvent): void
            -mapMouseToPlane(Simple1DOFCamera, Point, double[]): void
            +mouseDragged(MouseEvent): void
            +debugRender(GL2): void
        }

        AbstractSimpleOverlay <|- - SimpleMessageOverlay
        AbstractSimpleOverlay <|- - SimpleMenuOverlay
        java.awt.event.MouseListener <|.. SimpleMenuOverlay
        Simple1DOFCamera - -> "*" elki.visualization.parallel3d.util.Simple1DOFCamera.CameraListener: listeners
        Simple1DOFCamera +- - elki.visualization.parallel3d.util.Simple1DOFCamera.CameraListener
        javax.swing.event.MouseInputAdapter <|- - Arcball1DOFAdapter
        Arcball1DOFAdapter - -> Simple1DOFCamera: camera\nstartcamera
    }

    namespace java.awt.event {
        interface MouseListener {
            {abstract} +mouseClicked(MouseEvent): void
            {abstract} +mousePressed(MouseEvent): void
            {abstract} +mouseReleased(MouseEvent): void
            {abstract} +mouseEntered(MouseEvent): void
            {abstract} +mouseExited(MouseEvent): void
        }
    }

    namespace javax.swing.event {
        abstract class MouseInputAdapter
    }

    center footer UMLDoclet 2.0.19, PlantUML 1.2022.8
@enduml

PlantUML version 1.2022.8(Sun Sep 25 11:00:33 CEST 2022)
(APACHE source distribution)
Java Runtime: OpenJDK Runtime Environment
JVM: OpenJDK 64-Bit Server VM
Default Encoding: UTF-8
Language: de
Country: DE
--></g></svg>