<?xml version="1.0" encoding="UTF-8" standalone="no"?>
<!DOCTYPE svg PUBLIC "-//W3C//DTD SVG 1.1//EN"
 "http://www.w3.org/Graphics/SVG/1.1/DTD/svg11.dtd">
<!-- Generated by graphviz version 2.40.1 (20161225.0304)
 -->
<!-- Title: G Pages: 1 -->
<svg width="236pt" height="36pt"
 viewBox="0.00 0.00 236.00 36.00" xmlns="http://www.w3.org/2000/svg" xmlns:xlink="http://www.w3.org/1999/xlink">
<g id="graph0" class="graph" transform="scale(1 1) rotate(0) translate(4 32)">
<title>G</title>
<polygon fill="#ffffff" stroke="transparent" points="-4,4 -4,-32 232,-32 232,4 -4,4"/>
<!-- c2900888 -->
<g id="node1" class="node">
<title>c2900888</title>
<g id="a_node1"><a xlink:href="CosineKernelDensityFunction.html" xlink:title="&lt;TABLE&gt;">
<g id="a_node1_0"><a xlink:href="CosineKernelDensityFunction.html" xlink:title="de.lmu.ifi.dbs.elki.math.statistics.kernelfunctions.CosineKernelDensityFunction" target="_parent">
<polygon fill="#fffacd" stroke="transparent" points="111,-5.5 111,-22.5 228,-22.5 228,-5.5 111,-5.5"/>
<polygon fill="none" stroke="#000000" points="111.5,-5 111.5,-22 228.5,-22 228.5,-5 111.5,-5"/>
<text text-anchor="start" x="115.5" y="-12.6" font-family="Roboto" font-size="8.00" fill="#000000"> </text>
<text text-anchor="start" x="118.5" y="-12.6" font-family="Roboto" font-size="8.00" fill="#000000">CosineKernelDensityFunction</text>
<text text-anchor="start" x="221.5" y="-12.6" font-family="Roboto" font-size="8.00" fill="#000000"> </text>
</a>
</g>
</a>
</g>
</g>
<!-- c2900892 -->
<g id="node2" class="node">
<title>c2900892</title>
<g id="a_node2"><a xlink:href="KernelDensityFunction.html" xlink:title="&lt;TABLE&gt;">
<g id="a_node2_1"><a xlink:href="KernelDensityFunction.html" xlink:title="de.lmu.ifi.dbs.elki.math.statistics.kernelfunctions.KernelDensityFunction" target="_parent">
<polygon fill="none" stroke="#000000" points=".5,0 .5,-28 93.5,-28 93.5,0 .5,0"/>
<text text-anchor="start" x="25.5" y="-17.6" font-family="Roboto" font-size="8.00" fill="#000000"> «interface» </text>
<text text-anchor="start" x="4.5" y="-7.6" font-family="Roboto" font-size="8.00" fill="#000000"> </text>
<text text-anchor="start" x="7.5" y="-7.6" font-family="Roboto" font-size="8.00" fill="#000000">KernelDensityFunction</text>
<text text-anchor="start" x="86.5" y="-7.6" font-family="Roboto" font-size="8.00" fill="#000000"> </text>
</a>
</g>
</a>
</g>
</g>
<!-- c2900892&#45;&gt;c2900888 -->
<g id="edge1" class="edge">
<title>c2900892&#45;&gt;c2900888</title>
<path fill="none" stroke="#000000" stroke-dasharray="5,2" d="M103.0161,-14C105.6388,-14 108.2737,-14 110.9016,-14"/>
<polygon fill="none" stroke="#000000" points="103.0011,-10.5001 93.001,-14 103.001,-17.5001 103.0011,-10.5001"/>
</g>
</g>
</svg>
