<?xml version="1.0" encoding="UTF-8" standalone="no"?>
<!DOCTYPE svg PUBLIC "-//W3C//DTD SVG 1.1//EN"
 "http://www.w3.org/Graphics/SVG/1.1/DTD/svg11.dtd">
<!-- Generated by graphviz version 2.40.1 (20161225.0304)
 -->
<!-- Title: G Pages: 1 -->
<svg width="600pt" height="76pt"
 viewBox="0.00 0.00 600.00 76.27" xmlns="http://www.w3.org/2000/svg" xmlns:xlink="http://www.w3.org/1999/xlink">
<g id="graph0" class="graph" transform="scale(1 1) rotate(0) translate(4 72.2678)">
<title>G</title>
<polygon fill="#ffffff" stroke="transparent" points="-4,4 -4,-72.2678 596,-72.2678 596,4 -4,4"/>
<!-- c6668037 -->
<g id="node1" class="node">
<title>c6668037</title>
<g id="a_node1"><a xlink:href="../../MTreeEntry.html" xlink:title="&lt;TABLE&gt;">
<g id="a_node1_0"><a xlink:href="../../MTreeEntry.html" xlink:title="de.lmu.ifi.dbs.elki.index.tree.metrical.mtreevariants.MTreeEntry" target="_parent">
<polygon fill="none" stroke="#000000" points="409.5,.5 409.5,-38.5 592.5,-38.5 592.5,.5 409.5,.5"/>
<text text-anchor="start" x="479.5" y="-28.1" font-family="Roboto" font-size="8.00" fill="#000000"> «interface» </text>
<text text-anchor="start" x="477" y="-18.1" font-family="Roboto" font-size="8.00" fill="#000000"> </text>
<text text-anchor="start" x="480" y="-18.1" font-family="Roboto" font-size="8.00" fill="#000000">MTreeEntry</text>
<text text-anchor="start" x="522" y="-18.1" font-family="Roboto" font-size="8.00" fill="#000000"> </text>
<text text-anchor="start" x="413.5" y="-7.1" font-family="Roboto" font-size="8.00" fill="#000000"> </text>
<text text-anchor="start" x="416.5" y="-7.1" font-family="Roboto" font-size="7.00" fill="#000000">de.lmu.ifi.dbs.elki.index.tree.metrical.mtreevariants</text>
<text text-anchor="start" x="585.5" y="-7.1" font-family="Roboto" font-size="8.00" fill="#000000"> </text>
</a>
</g>
</a>
</g>
</g>
<!-- c6668096 -->
<g id="node2" class="node">
<title>c6668096</title>
<g id="a_node2"><a xlink:href="MMRadSplit.html" xlink:title="&lt;TABLE&gt;">
<g id="a_node2_1"><a xlink:href="MMRadSplit.html" xlink:title="de.lmu.ifi.dbs.elki.index.tree.metrical.mtreevariants.strategies.split.MMRadSplit" target="_parent">
<polygon fill="#fffacd" stroke="transparent" points="100,-44 100,-61 160,-61 160,-44 100,-44"/>
<polygon fill="none" stroke="#000000" points="100,-43.5 100,-60.5 160,-60.5 160,-43.5 100,-43.5"/>
<text text-anchor="start" x="104" y="-51.1" font-family="Roboto" font-size="8.00" fill="#000000"> </text>
<text text-anchor="start" x="107" y="-51.1" font-family="Roboto" font-size="8.00" fill="#000000">MMRadSplit</text>
<text text-anchor="start" x="153" y="-51.1" font-family="Roboto" font-size="8.00" fill="#000000"> </text>
</a>
</g>
</a>
</g>
</g>
<!-- c6668096&#45;&gt;c6668037 -->
<g id="edge4" class="edge">
<title>c6668096&#45;&gt;c6668037</title>
<path fill="none" stroke="#000000" stroke-dasharray="5,2" d="M160.0898,-51.4157C204.3858,-49.6539 289.7188,-45.6284 362,-38.5 374.0068,-37.3159 386.5729,-35.8752 399.0285,-34.3223"/>
<polygon fill="#000000" stroke="#000000" points="408.9812,-33.0555 399.6294,-38.7822 404.0212,-33.6868 399.0612,-34.3182 399.0612,-34.3182 399.0612,-34.3182 404.0212,-33.6868 398.493,-29.8542 408.9812,-33.0555 408.9812,-33.0555"/>
</g>
<!-- c6668116 -->
<g id="node4" class="node">
<title>c6668116</title>
<g id="a_node4"><a xlink:href="../../AbstractMTreeNode.html" xlink:title="&lt;TABLE&gt;">
<g id="a_node4_2"><a xlink:href="../../AbstractMTreeNode.html" xlink:title="de.lmu.ifi.dbs.elki.index.tree.metrical.mtreevariants.AbstractMTreeNode" target="_parent">
<polygon fill="none" stroke="#000000" points="179.5,-5.5 179.5,-33.5 362.5,-33.5 362.5,-5.5 179.5,-5.5"/>
<text text-anchor="start" x="233" y="-24.1" font-family="Roboto" font-size="8.00" fill="#000000"> </text>
<text text-anchor="start" x="236" y="-24.1" font-family="Roboto" font-style="italic" font-size="8.00" fill="#000000">AbstractMTreeNode</text>
<text text-anchor="start" x="306" y="-24.1" font-family="Roboto" font-size="8.00" fill="#000000"> </text>
<text text-anchor="start" x="183.5" y="-13.1" font-family="Roboto" font-size="8.00" fill="#000000"> </text>
<text text-anchor="start" x="186.5" y="-13.1" font-family="Roboto" font-size="7.00" fill="#000000">de.lmu.ifi.dbs.elki.index.tree.metrical.mtreevariants</text>
<text text-anchor="start" x="355.5" y="-13.1" font-family="Roboto" font-size="8.00" fill="#000000"> </text>
</a>
</g>
</a>
</g>
</g>
<!-- c6668096&#45;&gt;c6668116 -->
<g id="edge3" class="edge">
<title>c6668096&#45;&gt;c6668116</title>
<path fill="none" stroke="#000000" stroke-dasharray="5,2" d="M160.1408,-45.4207C172.1297,-42.6048 186.4625,-39.2383 200.7668,-35.8786"/>
<polygon fill="#000000" stroke="#000000" points="210.636,-33.5606 201.9299,-40.228 205.7685,-34.7039 200.9009,-35.8472 200.9009,-35.8472 200.9009,-35.8472 205.7685,-34.7039 199.8719,-31.4664 210.636,-33.5606 210.636,-33.5606"/>
</g>
<!-- c6668098 -->
<g id="node3" class="node">
<title>c6668098</title>
<g id="a_node3"><a xlink:href="AbstractMTreeSplit.html" xlink:title="&lt;TABLE&gt;">
<g id="a_node3_3"><a xlink:href="AbstractMTreeSplit.html" xlink:title="de.lmu.ifi.dbs.elki.index.tree.metrical.mtreevariants.strategies.split.AbstractMTreeSplit" target="_parent">
<polygon fill="none" stroke="#000000" points=".5,-43.5 .5,-60.5 81.5,-60.5 81.5,-43.5 .5,-43.5"/>
<text text-anchor="start" x="4.5" y="-51.1" font-family="Roboto" font-size="8.00" fill="#000000"> </text>
<text text-anchor="start" x="7.5" y="-51.1" font-family="Roboto" font-style="italic" font-size="8.00" fill="#000000">AbstractMTreeSplit</text>
<text text-anchor="start" x="74.5" y="-51.1" font-family="Roboto" font-size="8.00" fill="#000000"> </text>
</a>
</g>
</a>
</g>
</g>
<!-- c6668098&#45;&gt;c6668037 -->
<g id="edge6" class="edge">
<title>c6668098&#45;&gt;c6668037</title>
<path fill="none" stroke="#000000" stroke-dasharray="5,2" d="M70.8354,-61.0631C80.1164,-63.2958 90.4075,-65.3867 100,-66.5 126.4889,-69.5744 133.3493,-67.4224 160,-66.5 249.9393,-63.387 273.0292,-66.0264 362,-52.5 379.1589,-49.8913 383.1148,-47.5157 400,-43.5 402.9586,-42.7964 405.9661,-42.0807 409.0031,-41.3576"/>
<polygon fill="#000000" stroke="#000000" points="418.7783,-39.029 410.0933,-45.7239 413.9144,-40.1877 409.0505,-41.3464 409.0505,-41.3464 409.0505,-41.3464 413.9144,-40.1877 408.0077,-36.9689 418.7783,-39.029 418.7783,-39.029"/>
</g>
<!-- c6668098&#45;&gt;c6668096 -->
<g id="edge1" class="edge">
<title>c6668098&#45;&gt;c6668096</title>
<path fill="none" stroke="#000000" d="M91.104,-52.5C94.0414,-52.5 96.9446,-52.5 99.7618,-52.5"/>
<polygon fill="none" stroke="#000000" points="91.0602,-49.0001 81.0602,-52.5 91.0601,-56.0001 91.0602,-49.0001"/>
</g>
<!-- c6668098&#45;&gt;c6668116 -->
<g id="edge5" class="edge">
<title>c6668098&#45;&gt;c6668116</title>
<path fill="none" stroke="#000000" stroke-dasharray="5,2" d="M73.7126,-43.9417C82.2389,-41.9497 91.4252,-39.9811 100,-38.5 122.1146,-34.6803 145.9819,-31.4631 168.6543,-28.8247"/>
<polygon fill="#000000" stroke="#000000" points="178.6316,-27.6913 169.2035,-33.2913 173.6636,-28.2557 168.6955,-28.8201 168.6955,-28.8201 168.6955,-28.8201 173.6636,-28.2557 168.1876,-24.3489 178.6316,-27.6913 178.6316,-27.6913"/>
</g>
<!-- c6668116&#45;&gt;c6668037 -->
<g id="edge2" class="edge">
<title>c6668116&#45;&gt;c6668037</title>
<path fill="none" stroke="#000000" d="M374.0773,-19.5C382.2354,-19.5 390.4709,-19.5 398.6175,-19.5"/>
<polygon fill="none" stroke="#000000" points="374.063,-19.5001 368.0629,-23.5 362.063,-19.5 368.063,-15.5 374.063,-19.5001"/>
<polygon fill="#000000" stroke="#000000" points="408.8763,-19.5 398.8764,-24.0001 403.8763,-19.5 398.8763,-19.5001 398.8763,-19.5001 398.8763,-19.5001 403.8763,-19.5 398.8763,-15.0001 408.8763,-19.5 408.8763,-19.5"/>
<text text-anchor="middle" x="385.5" y="-21.9" font-family="Roboto" font-size="7.00" fill="#000000">contains</text>
</g>
</g>
</svg>
