<?xml version="1.0" encoding="UTF-8" standalone="no"?>
<!DOCTYPE svg PUBLIC "-//W3C//DTD SVG 1.1//EN"
 "http://www.w3.org/Graphics/SVG/1.1/DTD/svg11.dtd">
<!-- Generated by graphviz version 2.40.1 (20161225.0304)
 -->
<!-- Title: G Pages: 1 -->
<svg width="796pt" height="89pt"
 viewBox="0.00 0.00 796.00 89.27" xmlns="http://www.w3.org/2000/svg" xmlns:xlink="http://www.w3.org/1999/xlink">
<g id="graph0" class="graph" transform="scale(1 1) rotate(0) translate(4 85.2683)">
<title>G</title>
<polygon fill="#ffffff" stroke="transparent" points="-4,4 -4,-85.2683 792,-85.2683 792,4 -4,4"/>
<!-- c6735178 -->
<g id="node1" class="node">
<title>c6735178</title>
<g id="a_node1"><a xlink:href="../../MTreeEntry.html" xlink:title="&lt;TABLE&gt;">
<g id="a_node1_0"><a xlink:href="../../MTreeEntry.html" xlink:title="de.lmu.ifi.dbs.elki.index.tree.metrical.mtreevariants.MTreeEntry" target="_parent">
<polygon fill="none" stroke="#000000" points="605.5,-36.7683 605.5,-75.7683 788.5,-75.7683 788.5,-36.7683 605.5,-36.7683"/>
<text text-anchor="start" x="675.5" y="-65.3683" font-family="Roboto" font-size="8.00" fill="#000000"> «interface» </text>
<text text-anchor="start" x="673" y="-55.3683" font-family="Roboto" font-size="8.00" fill="#000000"> </text>
<text text-anchor="start" x="676" y="-55.3683" font-family="Roboto" font-size="8.00" fill="#000000">MTreeEntry</text>
<text text-anchor="start" x="718" y="-55.3683" font-family="Roboto" font-size="8.00" fill="#000000"> </text>
<text text-anchor="start" x="609.5" y="-44.3683" font-family="Roboto" font-size="8.00" fill="#000000"> </text>
<text text-anchor="start" x="612.5" y="-44.3683" font-family="Roboto" font-size="7.00" fill="#000000">de.lmu.ifi.dbs.elki.index.tree.metrical.mtreevariants</text>
<text text-anchor="start" x="781.5" y="-44.3683" font-family="Roboto" font-size="8.00" fill="#000000"> </text>
</a>
</g>
</a>
</g>
</g>
<!-- c6735239 -->
<g id="node2" class="node">
<title>c6735239</title>
<g id="a_node2"><a xlink:href="AbstractMTreeSplit.html" xlink:title="&lt;TABLE&gt;">
<g id="a_node2_1"><a xlink:href="AbstractMTreeSplit.html" xlink:title="de.lmu.ifi.dbs.elki.index.tree.metrical.mtreevariants.strategies.split.AbstractMTreeSplit" target="_parent">
<polygon fill="none" stroke="#000000" points="275.5,-63.7683 275.5,-80.7683 356.5,-80.7683 356.5,-63.7683 275.5,-63.7683"/>
<text text-anchor="start" x="279.5" y="-71.3683" font-family="Roboto" font-size="8.00" fill="#000000"> </text>
<text text-anchor="start" x="282.5" y="-71.3683" font-family="Roboto" font-style="italic" font-size="8.00" fill="#000000">AbstractMTreeSplit</text>
<text text-anchor="start" x="349.5" y="-71.3683" font-family="Roboto" font-size="8.00" fill="#000000"> </text>
</a>
</g>
</a>
</g>
</g>
<!-- c6735239&#45;&gt;c6735178 -->
<g id="edge5" class="edge">
<title>c6735239&#45;&gt;c6735178</title>
<path fill="none" stroke="#000000" stroke-dasharray="5,2" d="M356.1379,-75.0906C362.4507,-75.3724 368.8996,-75.6146 375,-75.7683 456.3075,-77.8167 476.8556,-81.3082 558,-75.7683 569.8232,-74.9611 582.1749,-73.7706 594.4232,-72.3724"/>
<polygon fill="#000000" stroke="#000000" points="604.6736,-71.1529 595.2753,-76.8028 599.7086,-71.7436 594.7436,-72.3343 594.7436,-72.3343 594.7436,-72.3343 599.7086,-71.7436 594.212,-67.8658 604.6736,-71.1529 604.6736,-71.1529"/>
</g>
<!-- c6735257 -->
<g id="node5" class="node">
<title>c6735257</title>
<g id="a_node5"><a xlink:href="../../AbstractMTreeNode.html" xlink:title="&lt;TABLE&gt;">
<g id="a_node5_2"><a xlink:href="../../AbstractMTreeNode.html" xlink:title="de.lmu.ifi.dbs.elki.index.tree.metrical.mtreevariants.AbstractMTreeNode" target="_parent">
<polygon fill="none" stroke="#000000" points="375.5,-42.7683 375.5,-70.7683 558.5,-70.7683 558.5,-42.7683 375.5,-42.7683"/>
<text text-anchor="start" x="429" y="-61.3683" font-family="Roboto" font-size="8.00" fill="#000000"> </text>
<text text-anchor="start" x="432" y="-61.3683" font-family="Roboto" font-style="italic" font-size="8.00" fill="#000000">AbstractMTreeNode</text>
<text text-anchor="start" x="502" y="-61.3683" font-family="Roboto" font-size="8.00" fill="#000000"> </text>
<text text-anchor="start" x="379.5" y="-50.3683" font-family="Roboto" font-size="8.00" fill="#000000"> </text>
<text text-anchor="start" x="382.5" y="-50.3683" font-family="Roboto" font-size="7.00" fill="#000000">de.lmu.ifi.dbs.elki.index.tree.metrical.mtreevariants</text>
<text text-anchor="start" x="551.5" y="-50.3683" font-family="Roboto" font-size="8.00" fill="#000000"> </text>
</a>
</g>
</a>
</g>
</g>
<!-- c6735239&#45;&gt;c6735257 -->
<g id="edge6" class="edge">
<title>c6735239&#45;&gt;c6735257</title>
<path fill="none" stroke="#000000" stroke-dasharray="5,2" d="M356.3628,-68.4384C359.1059,-68.1478 361.9268,-67.8488 364.8058,-67.5438"/>
<polygon fill="#000000" stroke="#000000" points="374.789,-66.486 365.3188,-72.0147 369.8168,-67.0129 364.8446,-67.5398 364.8446,-67.5398 364.8446,-67.5398 369.8168,-67.0129 364.3704,-63.0648 374.789,-66.486 374.789,-66.486"/>
</g>
<!-- c6735245 -->
<g id="node3" class="node">
<title>c6735245</title>
<g id="a_node3"><a xlink:href="MSTSplit.html" xlink:title="&lt;TABLE&gt;">
<g id="a_node3_3"><a xlink:href="MSTSplit.html" xlink:title="de.lmu.ifi.dbs.elki.index.tree.metrical.mtreevariants.strategies.split.MSTSplit" target="_parent">
<polygon fill="none" stroke="#000000" points="291.5,-35.7683 291.5,-52.7683 339.5,-52.7683 339.5,-35.7683 291.5,-35.7683"/>
<text text-anchor="start" x="295.5" y="-43.3683" font-family="Roboto" font-size="8.00" fill="#000000"> </text>
<text text-anchor="start" x="298.5" y="-43.3683" font-family="Roboto" font-size="8.00" fill="#000000">MSTSplit</text>
<text text-anchor="start" x="332.5" y="-43.3683" font-family="Roboto" font-size="8.00" fill="#000000"> </text>
</a>
</g>
</a>
</g>
</g>
<!-- c6735245&#45;&gt;c6735178 -->
<g id="edge8" class="edge">
<title>c6735245&#45;&gt;c6735178</title>
<path fill="none" stroke="#000000" stroke-dasharray="5,2" d="M339.7431,-40.7621C350.5079,-39.1765 363.3525,-37.5478 375,-36.7683 456.1518,-31.3371 476.8757,-30.9411 558,-36.7683 569.8321,-37.6181 582.1892,-38.8714 594.4406,-40.3433"/>
<polygon fill="#000000" stroke="#000000" points="604.6931,-41.627 594.2114,-44.8497 599.7318,-41.0058 594.7705,-40.3845 594.7705,-40.3845 594.7705,-40.3845 599.7318,-41.0058 595.3297,-35.9194 604.6931,-41.627 604.6931,-41.627"/>
</g>
<!-- c6735245&#45;&gt;c6735257 -->
<g id="edge7" class="edge">
<title>c6735245&#45;&gt;c6735257</title>
<path fill="none" stroke="#000000" stroke-dasharray="5,2" d="M339.7608,-46.6963C347.1075,-47.2801 355.6799,-47.9614 364.8383,-48.6892"/>
<polygon fill="#000000" stroke="#000000" points="374.976,-49.4948 364.6509,-53.1884 369.9917,-49.0987 365.0074,-48.7025 365.0074,-48.7025 365.0074,-48.7025 369.9917,-49.0987 365.3639,-44.2167 374.976,-49.4948 374.976,-49.4948"/>
</g>
<!-- c6735246 -->
<g id="node4" class="node">
<title>c6735246</title>
<g id="a_node4"><a xlink:href="MTreeSplit.html" xlink:title="&lt;TABLE&gt;">
<g id="a_node4_4"><a xlink:href="MTreeSplit.html" xlink:title="de.lmu.ifi.dbs.elki.index.tree.metrical.mtreevariants.strategies.split.MTreeSplit" target="_parent">
<polygon fill="#fffacd" stroke="transparent" points="202,-44.7683 202,-72.7683 256,-72.7683 256,-44.7683 202,-44.7683"/>
<polygon fill="none" stroke="#000000" points="202,-44.7683 202,-72.7683 256,-72.7683 256,-44.7683 202,-44.7683"/>
<text text-anchor="start" x="207.5" y="-62.3683" font-family="Roboto" font-size="8.00" fill="#000000"> «interface» </text>
<text text-anchor="start" x="206" y="-52.3683" font-family="Roboto" font-size="8.00" fill="#000000"> </text>
<text text-anchor="start" x="209" y="-52.3683" font-family="Roboto" font-size="8.00" fill="#000000">MTreeSplit</text>
<text text-anchor="start" x="249" y="-52.3683" font-family="Roboto" font-size="8.00" fill="#000000"> </text>
</a>
</g>
</a>
</g>
</g>
<!-- c6735246&#45;&gt;c6735178 -->
<g id="edge10" class="edge">
<title>c6735246&#45;&gt;c6735178</title>
<path fill="none" stroke="#000000" stroke-dasharray="5,2" d="M242.0149,-44.6829C250.5104,-36.5665 262.3449,-27.1316 275,-22.7683 406.9536,22.7276 453.1584,-10.2775 594.8888,-35.5821"/>
<polygon fill="#000000" stroke="#000000" points="604.812,-37.3131 594.1874,-40.0276 599.8863,-36.4538 594.9607,-35.5946 594.9607,-35.5946 594.9607,-35.5946 599.8863,-36.4538 595.7341,-31.1615 604.812,-37.3131 604.812,-37.3131"/>
</g>
<!-- c6735246&#45;&gt;c6735239 -->
<g id="edge1" class="edge">
<title>c6735246&#45;&gt;c6735239</title>
<path fill="none" stroke="#000000" stroke-dasharray="5,2" d="M266.2692,-64.8003C269.068,-65.2532 271.9008,-65.7117 274.7196,-66.168"/>
<polygon fill="none" stroke="#000000" points="266.7999,-61.3407 256.3691,-63.1979 265.6815,-68.2508 266.7999,-61.3407"/>
</g>
<!-- c6735246&#45;&gt;c6735245 -->
<g id="edge2" class="edge">
<title>c6735246&#45;&gt;c6735245</title>
<path fill="none" stroke="#000000" stroke-dasharray="5,2" d="M266.3944,-52.716C274.8076,-51.3543 283.522,-49.9439 291.2323,-48.696"/>
<polygon fill="none" stroke="#000000" points="265.6815,-49.2857 256.3691,-54.3386 266.7999,-56.1958 265.6815,-49.2857"/>
</g>
<!-- c6735246&#45;&gt;c6735257 -->
<g id="edge9" class="edge">
<title>c6735246&#45;&gt;c6735257</title>
<path fill="none" stroke="#000000" stroke-dasharray="5,2" d="M247.1573,-44.544C255.2122,-39.1051 265.0978,-33.545 275,-30.7683 322.9484,-17.3228 379.6686,-28.2075 418.8721,-39.73"/>
<polygon fill="#000000" stroke="#000000" points="428.4456,-42.6587 417.5666,-44.0364 423.6644,-41.196 418.8831,-39.7333 418.8831,-39.7333 418.8831,-39.7333 423.6644,-41.196 420.1996,-35.4301 428.4456,-42.6587 428.4456,-42.6587"/>
</g>
<!-- c6735257&#45;&gt;c6735178 -->
<g id="edge3" class="edge">
<title>c6735257&#45;&gt;c6735178</title>
<path fill="none" stroke="#000000" d="M570.0773,-56.7683C578.2354,-56.7683 586.4709,-56.7683 594.6175,-56.7683"/>
<polygon fill="none" stroke="#000000" points="570.063,-56.7684 564.0629,-60.7683 558.063,-56.7683 564.063,-52.7683 570.063,-56.7684"/>
<polygon fill="#000000" stroke="#000000" points="604.8763,-56.7683 594.8764,-61.2683 599.8763,-56.7683 594.8763,-56.7683 594.8763,-56.7683 594.8763,-56.7683 599.8763,-56.7683 594.8763,-52.2683 604.8763,-56.7683 604.8763,-56.7683"/>
<text text-anchor="middle" x="581.5" y="-59.1683" font-family="Roboto" font-size="7.00" fill="#000000">contains</text>
</g>
<!-- c6735258 -->
<g id="node6" class="node">
<title>c6735258</title>
<g id="a_node6"><a xlink:href="../../MTreeSettings.html" xlink:title="&lt;TABLE&gt;">
<g id="a_node6_5"><a xlink:href="../../MTreeSettings.html" xlink:title="de.lmu.ifi.dbs.elki.index.tree.metrical.mtreevariants.MTreeSettings" target="_parent">
<polygon fill="none" stroke="#000000" points=".5,-44.7683 .5,-72.7683 183.5,-72.7683 183.5,-44.7683 .5,-44.7683"/>
<text text-anchor="start" x="63" y="-63.3683" font-family="Roboto" font-size="8.00" fill="#000000"> </text>
<text text-anchor="start" x="66" y="-63.3683" font-family="Roboto" font-size="8.00" fill="#000000">MTreeSettings</text>
<text text-anchor="start" x="118" y="-63.3683" font-family="Roboto" font-size="8.00" fill="#000000"> </text>
<text text-anchor="start" x="4.5" y="-52.3683" font-family="Roboto" font-size="8.00" fill="#000000"> </text>
<text text-anchor="start" x="7.5" y="-52.3683" font-family="Roboto" font-size="7.00" fill="#000000">de.lmu.ifi.dbs.elki.index.tree.metrical.mtreevariants</text>
<text text-anchor="start" x="176.5" y="-52.3683" font-family="Roboto" font-size="8.00" fill="#000000"> </text>
</a>
</g>
</a>
</g>
</g>
<!-- c6735258&#45;&gt;c6735246 -->
<g id="edge4" class="edge">
<title>c6735258&#45;&gt;c6735246</title>
<path fill="none" stroke="#000000" d="M183.2145,-58.7683C186.1025,-58.7683 188.9294,-58.7683 191.6713,-58.7683"/>
<polygon fill="#000000" stroke="#000000" points="201.7754,-58.7683 191.7754,-63.2683 196.7754,-58.7683 191.7754,-58.7683 191.7754,-58.7683 191.7754,-58.7683 196.7754,-58.7683 191.7753,-54.2683 201.7754,-58.7683 201.7754,-58.7683"/>
</g>
</g>
</svg>
