<?xml version="1.0" encoding="UTF-8" standalone="no"?><svg xmlns="http://www.w3.org/2000/svg" xmlns:xlink="http://www.w3.org/1999/xlink" contentStyleType="text/css" height="423px" preserveAspectRatio="none" style="width:603px;height:423px;background:#FFFFFF;" version="1.1" viewBox="0 0 603 423" width="603px" zoomAndPan="magnify"><defs/><g><!--MD5=[38b23791dd2b44dd75a4651af2bd6f6b]
cluster elki.index.preprocessed.fastoptics--><g id="cluster_elki.index.preprocessed.fastoptics"><path d="M8.5,6 L283.5,6 A3.75,3.75 0 0 1 286,8.5 L293,28.2969 L593.5,28.2969 A2.5,2.5 0 0 1 596,30.7969 L596,395.5 A2.5,2.5 0 0 1 593.5,398 L8.5,398 A2.5,2.5 0 0 1 6,395.5 L6,8.5 A2.5,2.5 0 0 1 8.5,6 " fill="none" style="stroke:#000000;stroke-width:1.5;"/><line style="stroke:#000000;stroke-width:1.5;" x1="6" x2="293" y1="28.2969" y2="28.2969"/><text fill="#000000" font-family="sans-serif" font-size="14" font-weight="bold" lengthAdjust="spacing" textLength="274" x="10" y="20.9951">elki.index.preprocessed.fastoptics</text></g><!--MD5=[618a9d56dee2d09753576f2813a7b351]
class elki.index.preprocessed.fastoptics.RandomProjectedNeighborsAndDensities--><a href="RandomProjectedNeighborsAndDensities.html" target="_top" title="RandomProjectedNeighborsAndDensities.html" xlink:actuate="onRequest" xlink:href="RandomProjectedNeighborsAndDensities.html" xlink:show="new" xlink:title="RandomProjectedNeighborsAndDensities.html" xlink:type="simple"><g id="elem_elki.index.preprocessed.fastoptics.RandomProjectedNeighborsAndDensities"><rect codeLine="4" fill="#F1F1F1" height="341.3438" id="elki.index.preprocessed.fastoptics.RandomProjectedNeighborsAndDensities" rx="2.5" ry="2.5" style="stroke:#181818;stroke-width:0.5;" width="557" x="22.5" y="41"/><ellipse cx="153.25" cy="57" fill="#ADD1B2" rx="11" ry="11" style="stroke:#181818;stroke-width:1.0;"/><path d="M156.2188,62.6406 Q155.6406,62.9375 155,63.0781 Q154.3594,63.2344 153.6563,63.2344 Q151.1563,63.2344 149.8281,61.5938 Q148.5156,59.9375 148.5156,56.8125 Q148.5156,53.6875 149.8281,52.0313 Q151.1563,50.375 153.6563,50.375 Q154.3594,50.375 155,50.5313 Q155.6563,50.6875 156.2188,50.9844 L156.2188,53.7031 Q155.5938,53.125 155,52.8594 Q154.4063,52.5781 153.7813,52.5781 Q152.4375,52.5781 151.75,53.6563 Q151.0625,54.7188 151.0625,56.8125 Q151.0625,58.9063 151.75,59.9844 Q152.4375,61.0469 153.7813,61.0469 Q154.4063,61.0469 155,60.7813 Q155.5938,60.5 156.2188,59.9219 L156.2188,62.6406 Z " fill="#000000"/><text fill="#000000" font-family="sans-serif" font-size="14" lengthAdjust="spacing" textLength="287" x="173.75" y="61.8467">RandomProjectedNeighborsAndDensities</text><line style="stroke:#181818;stroke-width:0.5;" x1="23.5" x2="578.5" y1="73" y2="73"/><rect fill="none" height="6" style="stroke:#C82930;stroke-width:1.0;" width="6" x="30.5" y="83.6484"/><text fill="#000000" font-family="sans-serif" font-size="14" lengthAdjust="spacing" text-decoration="underline" textLength="93" x="42.5" y="89.9951">LOG: Logging</text><rect fill="none" height="6" style="stroke:#C82930;stroke-width:1.0;" width="6" x="30.5" y="99.9453"/><text fill="#000000" font-family="sans-serif" font-size="14" lengthAdjust="spacing" text-decoration="underline" textLength="99" x="42.5" y="106.292">PREFIX: String</text><rect fill="none" height="6" style="stroke:#C82930;stroke-width:1.0;" width="6" x="30.5" y="116.2422"/><text fill="#000000" font-family="sans-serif" font-size="14" lengthAdjust="spacing" text-decoration="underline" textLength="168" x="42.5" y="122.5889">logOProjectionConst: int</text><rect fill="none" height="6" style="stroke:#C82930;stroke-width:1.0;" width="6" x="30.5" y="132.5391"/><text fill="#000000" font-family="sans-serif" font-size="14" lengthAdjust="spacing" text-decoration="underline" textLength="135" x="42.5" y="138.8857">sizeTolerance: float</text><polygon fill="none" points="33.5,147.8359,29.5,153.8359,37.5,153.8359" style="stroke:#1963A0;stroke-width:1.0;"/><text fill="#000000" font-family="sans-serif" font-size="14" lengthAdjust="spacing" textLength="109" x="42.5" y="155.1826">minSplitSize: int</text><polygon fill="none" points="33.5,164.1328,29.5,170.1328,37.5,170.1328" style="stroke:#1963A0;stroke-width:1.0;"/><text fill="#000000" font-family="sans-serif" font-size="14" lengthAdjust="spacing" textLength="303" x="42.5" y="171.4795">points: Relation&lt;? extends NumberVector&gt;</text><polygon fill="none" points="33.5,180.4297,29.5,186.4297,37.5,186.4297" style="stroke:#1963A0;stroke-width:1.0;"/><text fill="#000000" font-family="sans-serif" font-size="14" lengthAdjust="spacing" textLength="225" x="42.5" y="187.7764">splitsets: ArrayList&lt;ArrayDBIDs&gt;</text><polygon fill="none" points="33.5,196.7266,29.5,202.7266,37.5,202.7266" style="stroke:#1963A0;stroke-width:1.0;"/><text fill="#000000" font-family="sans-serif" font-size="14" lengthAdjust="spacing" textLength="247" x="42.5" y="204.0732">projectedPoints: DoubleDataStore[]</text><polygon fill="none" points="33.5,213.0234,29.5,219.0234,37.5,219.0234" style="stroke:#1963A0;stroke-width:1.0;"/><text fill="#000000" font-family="sans-serif" font-size="14" lengthAdjust="spacing" textLength="140" x="42.5" y="220.3701">rnd: RandomFactory</text><polygon fill="none" points="33.5,229.3203,29.5,235.3203,37.5,235.3203" style="stroke:#1963A0;stroke-width:1.0;"/><text fill="#000000" font-family="sans-serif" font-size="14" lengthAdjust="spacing" textLength="195" x="42.5" y="236.667">distanceComputations: long</text><line style="stroke:#181818;stroke-width:0.5;" x1="23.5" x2="578.5" y1="243.9688" y2="243.9688"/><ellipse cx="33.5" cy="257.6172" fill="#84BE84" rx="3" ry="3" style="stroke:#038048;stroke-width:1.0;"/><text fill="#000000" font-family="sans-serif" font-size="14" lengthAdjust="spacing" textLength="405" x="42.5" y="260.9639">RandomProjectedNeighborsAndDensities(RandomFactory)</text><ellipse cx="33.5" cy="273.9141" fill="#84BE84" rx="3" ry="3" style="stroke:#038048;stroke-width:1.0;"/><text fill="#000000" font-family="sans-serif" font-size="14" lengthAdjust="spacing" textLength="521" x="42.5" y="277.2607">computeSetsBounds(Relation&lt;? extends NumberVector&gt;, int, DBIDs): void</text><ellipse cx="33.5" cy="290.2109" fill="#84BE84" rx="3" ry="3" style="stroke:#038048;stroke-width:1.0;"/><text fill="#000000" font-family="sans-serif" font-size="14" lengthAdjust="spacing" textLength="427" x="42.5" y="293.5576">splitupNoSort(ArrayModifiableDBIDs, int, int, int, Random): void</text><ellipse cx="33.5" cy="306.5078" fill="#84BE84" rx="3" ry="3" style="stroke:#038048;stroke-width:1.0;"/><text fill="#000000" font-family="sans-serif" font-size="14" lengthAdjust="spacing" textLength="521" x="42.5" y="309.8545">splitRandomly(ArrayModifiableDBIDs, int, int, DoubleDataStore, Random): int</text><ellipse cx="33.5" cy="322.8047" fill="#84BE84" rx="3" ry="3" style="stroke:#038048;stroke-width:1.0;"/><text fill="#000000" font-family="sans-serif" font-size="14" lengthAdjust="spacing" textLength="531" x="42.5" y="326.1514">splitByDistance(ArrayModifiableDBIDs, int, int, DoubleDataStore, Random): int</text><ellipse cx="33.5" cy="339.1016" fill="#84BE84" rx="3" ry="3" style="stroke:#038048;stroke-width:1.0;"/><text fill="#000000" font-family="sans-serif" font-size="14" lengthAdjust="spacing" textLength="226" x="42.5" y="342.4482">getNeighs(): DataStore&lt;DBIDs&gt;</text><ellipse cx="33.5" cy="355.3984" fill="#84BE84" rx="3" ry="3" style="stroke:#038048;stroke-width:1.0;"/><text fill="#000000" font-family="sans-serif" font-size="14" lengthAdjust="spacing" textLength="318" x="42.5" y="358.7451">computeAverageDistInSet(): DoubleDataStore</text><ellipse cx="33.5" cy="371.6953" fill="#84BE84" rx="3" ry="3" style="stroke:#038048;stroke-width:1.0;"/><text fill="#000000" font-family="sans-serif" font-size="14" lengthAdjust="spacing" textLength="130" x="42.5" y="375.042">logStatistics(): void</text></g></a><rect fill="none" height="11.6406" style="stroke:none;stroke-width:1.0;" width="186" x="201.5" y="404"/><text fill="#888888" font-family="sans-serif" font-size="10" lengthAdjust="spacing" textLength="186" x="201.5" y="413.2822">UMLDoclet 2.0.19, PlantUML 1.2022.8</text><!--MD5=[07f31a76e12df696892882fbbb0043dc]
@startuml
    remove .*\.(Instance|Par|Parameterizer|Factory)$
    namespace elki.index.preprocessed.fastoptics {

        class RandomProjectedNeighborsAndDensities [[RandomProjectedNeighborsAndDensities.html]] {
            {static} -LOG: Logging
            {static} -PREFIX: String
            {static} -logOProjectionConst: int
            {static} -sizeTolerance: float
            ~minSplitSize: int
            ~points: Relation<? extends NumberVector>
            ~splitsets: ArrayList<ArrayDBIDs>
            ~projectedPoints: DoubleDataStore[]
            ~rnd: RandomFactory
            ~distanceComputations: long
            +RandomProjectedNeighborsAndDensities(RandomFactory)
            +computeSetsBounds(Relation<? extends NumberVector>, int, DBIDs): void
            +splitupNoSort(ArrayModifiableDBIDs, int, int, int, Random): void
            +splitRandomly(ArrayModifiableDBIDs, int, int, DoubleDataStore, Random): int
            +splitByDistance(ArrayModifiableDBIDs, int, int, DoubleDataStore, Random): int
            +getNeighs(): DataStore<DBIDs>
            +computeAverageDistInSet(): DoubleDataStore
            +logStatistics(): void
        }

        class elki.index.preprocessed.fastoptics.RandomProjectedNeighborsAndDensities.Par [[RandomProjectedNeighborsAndDensities.Par.html]] {
            {static} +RANDOM_ID: OptionID
            ~rnd: RandomFactory
            +configure(Parameterization): void
            +make(): RandomProjectedNeighborsAndDensities
        }

        elki.utilities.optionhandling.Parameterizer <|.. elki.index.preprocessed.fastoptics.RandomProjectedNeighborsAndDensities.Par
        RandomProjectedNeighborsAndDensities +- - elki.index.preprocessed.fastoptics.RandomProjectedNeighborsAndDensities.Par
    }

    namespace elki.utilities.optionhandling {
        interface Parameterizer [[../../../utilities/optionhandling/Parameterizer.html]] {
            +configure(Parameterization): void
            {abstract} +make(): Object
        }
    }

    center footer UMLDoclet 2.0.19, PlantUML 1.2022.8
@enduml

PlantUML version 1.2022.8(Sun Sep 25 11:00:33 CEST 2022)
(APACHE source distribution)
Java Runtime: OpenJDK Runtime Environment
JVM: OpenJDK 64-Bit Server VM
Default Encoding: UTF-8
Language: de
Country: DE
--></g></svg>