<?xml version="1.0" encoding="UTF-8" standalone="no"?>
<!DOCTYPE svg PUBLIC "-//W3C//DTD SVG 1.1//EN"
 "http://www.w3.org/Graphics/SVG/1.1/DTD/svg11.dtd">
<!-- Generated by graphviz version 2.40.1 (20161225.0304)
 -->
<!-- Title: G Pages: 1 -->
<svg width="409pt" height="126pt"
 viewBox="0.00 0.00 409.00 125.50" xmlns="http://www.w3.org/2000/svg" xmlns:xlink="http://www.w3.org/1999/xlink">
<g id="graph0" class="graph" transform="scale(1 1) rotate(0) translate(4 121.5)">
<title>G</title>
<polygon fill="#ffffff" stroke="transparent" points="-4,4 -4,-121.5 405,-121.5 405,4 -4,4"/>
<!-- c3009261 -->
<g id="node1" class="node">
<title>c3009261</title>
<g id="a_node1"><a xlink:href="DBIDMIter.html" xlink:title="&lt;TABLE&gt;">
<g id="a_node1_0"><a xlink:href="DBIDMIter.html" xlink:title="de.lmu.ifi.dbs.elki.database.ids.DBIDMIter" target="_parent">
<polygon fill="#fffacd" stroke="transparent" points="192,-50.5 192,-78.5 245,-78.5 245,-50.5 192,-50.5"/>
<polygon fill="none" stroke="#000000" points="192.5,-50.5 192.5,-78.5 245.5,-78.5 245.5,-50.5 192.5,-50.5"/>
<text text-anchor="start" x="197.5" y="-68.1" font-family="Roboto" font-size="8.00" fill="#000000"> «interface» </text>
<text text-anchor="start" x="196.5" y="-58.1" font-family="Roboto" font-size="8.00" fill="#000000"> </text>
<text text-anchor="start" x="199.5" y="-58.1" font-family="Roboto" font-size="8.00" fill="#000000">DBIDMIter</text>
<text text-anchor="start" x="238.5" y="-58.1" font-family="Roboto" font-size="8.00" fill="#000000"> </text>
</a>
</g>
</a>
</g>
</g>
<!-- c3009266 -->
<g id="node3" class="node">
<title>c3009266</title>
<g id="a_node3"><a xlink:href="DBIDArrayMIter.html" xlink:title="&lt;TABLE&gt;">
<g id="a_node3_1"><a xlink:href="DBIDArrayMIter.html" xlink:title="de.lmu.ifi.dbs.elki.database.ids.DBIDArrayMIter" target="_parent">
<polygon fill="none" stroke="#000000" points="296,-73.5 296,-101.5 368,-101.5 368,-73.5 296,-73.5"/>
<text text-anchor="start" x="310.5" y="-91.1" font-family="Roboto" font-size="8.00" fill="#000000"> «interface» </text>
<text text-anchor="start" x="300" y="-81.1" font-family="Roboto" font-size="8.00" fill="#000000"> </text>
<text text-anchor="start" x="303" y="-81.1" font-family="Roboto" font-size="8.00" fill="#000000">DBIDArrayMIter</text>
<text text-anchor="start" x="361" y="-81.1" font-family="Roboto" font-size="8.00" fill="#000000"> </text>
</a>
</g>
</a>
</g>
</g>
<!-- c3009261&#45;&gt;c3009266 -->
<g id="edge3" class="edge">
<title>c3009261&#45;&gt;c3009266</title>
<path fill="none" stroke="#000000" stroke-dasharray="5,2" d="M255.1182,-71.9204C268.1063,-74.5524 282.7109,-77.5119 295.6745,-80.1389"/>
<polygon fill="none" stroke="#000000" points="255.6067,-68.4483 245.1107,-69.8925 254.2164,-75.3089 255.6067,-68.4483"/>
</g>
<!-- c3009335 -->
<g id="node5" class="node">
<title>c3009335</title>
<g id="a_node5"><a xlink:href="integer/IntegerDBIDMIter.html" xlink:title="&lt;TABLE&gt;">
<g id="a_node5_2"><a xlink:href="integer/IntegerDBIDMIter.html" xlink:title="de.lmu.ifi.dbs.elki.database.ids.integer.IntegerDBIDMIter" target="_parent">
<polygon fill="none" stroke="#000000" points="263,-22.5 263,-61.5 401,-61.5 401,-22.5 263,-22.5"/>
<text text-anchor="start" x="310.5" y="-51.1" font-family="Roboto" font-size="8.00" fill="#000000"> «interface» </text>
<text text-anchor="start" x="297.5" y="-41.1" font-family="Roboto" font-size="8.00" fill="#000000"> </text>
<text text-anchor="start" x="300.5" y="-41.1" font-family="Roboto" font-size="8.00" fill="#000000">IntegerDBIDMIter</text>
<text text-anchor="start" x="363.5" y="-41.1" font-family="Roboto" font-size="8.00" fill="#000000"> </text>
<text text-anchor="start" x="267" y="-30.1" font-family="Roboto" font-size="8.00" fill="#000000"> </text>
<text text-anchor="start" x="270" y="-30.1" font-family="Roboto" font-size="7.00" fill="#000000">de.lmu.ifi.dbs.elki.database.ids.integer</text>
<text text-anchor="start" x="394" y="-30.1" font-family="Roboto" font-size="8.00" fill="#000000"> </text>
</a>
</g>
</a>
</g>
</g>
<!-- c3009261&#45;&gt;c3009335 -->
<g id="edge5" class="edge">
<title>c3009261&#45;&gt;c3009335</title>
<path fill="none" stroke="#000000" stroke-dasharray="5,2" d="M255.1283,-57.4003C257.6645,-56.9086 260.2624,-56.4051 262.8977,-55.8943"/>
<polygon fill="none" stroke="#000000" points="254.2619,-54.0029 245.1107,-59.342 255.594,-60.875 254.2619,-54.0029"/>
</g>
<!-- c3009263 -->
<g id="node2" class="node">
<title>c3009263</title>
<g id="a_node2"><a xlink:href="DBIDIter.html" xlink:title="&lt;TABLE&gt;">
<g id="a_node2_3"><a xlink:href="DBIDIter.html" xlink:title="de.lmu.ifi.dbs.elki.database.ids.DBIDIter" target="_parent">
<polygon fill="#fffacd" stroke="transparent" points="61.5,-89.5 61.5,-117.5 112.5,-117.5 112.5,-89.5 61.5,-89.5"/>
<polygon fill="none" stroke="#000000" points="62,-89.5 62,-117.5 113,-117.5 113,-89.5 62,-89.5"/>
<text text-anchor="start" x="66" y="-107.1" font-family="Roboto" font-size="8.00" fill="#000000"> «interface» </text>
<text text-anchor="start" x="69" y="-97.1" font-family="Roboto" font-size="8.00" fill="#000000"> </text>
<text text-anchor="start" x="72" y="-97.1" font-family="Roboto" font-size="8.00" fill="#000000">DBIDIter</text>
<text text-anchor="start" x="103" y="-97.1" font-family="Roboto" font-size="8.00" fill="#000000"> </text>
</a>
</g>
</a>
</g>
</g>
<!-- c3009263&#45;&gt;c3009261 -->
<g id="edge1" class="edge">
<title>c3009263&#45;&gt;c3009261</title>
<path fill="none" stroke="#000000" stroke-dasharray="5,2" d="M122.843,-97.4101C138.7209,-94.2699 157.5004,-89.944 174,-84.5 179.7914,-82.5891 185.8451,-80.1711 191.5556,-77.6823"/>
<polygon fill="none" stroke="#000000" points="122.0523,-93.9977 112.8811,-99.3024 123.3586,-100.8747 122.0523,-93.9977"/>
</g>
<!-- c3009284 -->
<g id="node4" class="node">
<title>c3009284</title>
<g id="a_node4"><a xlink:href="ModifiableDBIDs.html" xlink:title="&lt;TABLE&gt;">
<g id="a_node4_4"><a xlink:href="ModifiableDBIDs.html" xlink:title="de.lmu.ifi.dbs.elki.database.ids.ModifiableDBIDs" target="_parent">
<polygon fill="none" stroke="#000000" points="50,-50.5 50,-78.5 125,-78.5 125,-50.5 50,-50.5"/>
<text text-anchor="start" x="66" y="-68.1" font-family="Roboto" font-size="8.00" fill="#000000"> «interface» </text>
<text text-anchor="start" x="54" y="-58.1" font-family="Roboto" font-size="8.00" fill="#000000"> </text>
<text text-anchor="start" x="57" y="-58.1" font-family="Roboto" font-size="8.00" fill="#000000">ModifiableDBIDs</text>
<text text-anchor="start" x="118" y="-58.1" font-family="Roboto" font-size="8.00" fill="#000000"> </text>
</a>
</g>
</a>
</g>
</g>
<!-- c3009284&#45;&gt;c3009261 -->
<g id="edge4" class="edge">
<title>c3009284&#45;&gt;c3009261</title>
<path fill="none" stroke="#000000" d="M136.891,-64.5C155.5015,-64.5 175.9147,-64.5 191.6698,-64.5"/>
<polygon fill="none" stroke="#000000" points="136.6826,-64.5001 130.6826,-68.5 124.6826,-64.5 130.6827,-60.5 136.6826,-64.5001"/>
</g>
<!-- c3010021 -->
<g id="node6" class="node">
<title>c3010021</title>
<g id="a_node6"><a xlink:href="../../utilities/datastructures/iterator/MIter.html" xlink:title="&lt;TABLE&gt;">
<g id="a_node6_5"><a xlink:href="../../utilities/datastructures/iterator/MIter.html" xlink:title="de.lmu.ifi.dbs.elki.utilities.datastructures.iterator.MIter" target="_parent">
<polygon fill="none" stroke="#000000" points="0,.5 0,-38.5 174,-38.5 174,.5 0,.5"/>
<text text-anchor="start" x="65.5" y="-28.1" font-family="Roboto" font-size="8.00" fill="#000000"> «interface» </text>
<text text-anchor="start" x="74.5" y="-18.1" font-family="Roboto" font-size="8.00" fill="#000000"> </text>
<text text-anchor="start" x="77.5" y="-18.1" font-family="Roboto" font-size="8.00" fill="#000000">MIter</text>
<text text-anchor="start" x="96.5" y="-18.1" font-family="Roboto" font-size="8.00" fill="#000000"> </text>
<text text-anchor="start" x="4" y="-7.1" font-family="Roboto" font-size="8.00" fill="#000000"> </text>
<text text-anchor="start" x="7" y="-7.1" font-family="Roboto" font-size="7.00" fill="#000000">de.lmu.ifi.dbs.elki.utilities.datastructures.iterator</text>
<text text-anchor="start" x="167" y="-7.1" font-family="Roboto" font-size="8.00" fill="#000000"> </text>
</a>
</g>
</a>
</g>
</g>
<!-- c3010021&#45;&gt;c3009261 -->
<g id="edge2" class="edge">
<title>c3010021&#45;&gt;c3009261</title>
<path fill="none" stroke="#000000" stroke-dasharray="5,2" d="M164.7001,-42.2366C167.8507,-43.3114 170.9609,-44.4011 174,-45.5 179.8459,-47.6138 186.0304,-50.0932 191.8693,-52.5502"/>
<polygon fill="none" stroke="#000000" points="165.7522,-38.8981 155.1586,-39.0622 163.5424,-45.5401 165.7522,-38.8981"/>
</g>
</g>
</svg>
