<?xml version="1.0" encoding="UTF-8" standalone="no"?>
<!DOCTYPE svg PUBLIC "-//W3C//DTD SVG 1.1//EN"
 "http://www.w3.org/Graphics/SVG/1.1/DTD/svg11.dtd">
<!-- Generated by graphviz version 2.40.1 (20161225.0304)
 -->
<!-- Title: G Pages: 1 -->
<svg width="736pt" height="768pt"
 viewBox="0.00 0.00 736.00 768.00" xmlns="http://www.w3.org/2000/svg" xmlns:xlink="http://www.w3.org/1999/xlink">
<g id="graph0" class="graph" transform="scale(1 1) rotate(0) translate(4 764)">
<title>G</title>
<polygon fill="#ffffff" stroke="transparent" points="-4,4 -4,-764 732,-764 732,4 -4,4"/>
<!-- c3052778 -->
<g id="node1" class="node">
<title>c3052778</title>
<g id="a_node1"><a xlink:href="../../result/DBIDSelection.html" xlink:title="&lt;TABLE&gt;">
<g id="a_node1_0"><a xlink:href="../../result/DBIDSelection.html" xlink:title="de.lmu.ifi.dbs.elki.result.DBIDSelection" target="_parent">
<polygon fill="none" stroke="#000000" points="250.5,-642.5 250.5,-670.5 343.5,-670.5 343.5,-642.5 250.5,-642.5"/>
<text text-anchor="start" x="268.5" y="-661.1" font-family="Roboto" font-size="8.00" fill="#000000"> </text>
<text text-anchor="start" x="271.5" y="-661.1" font-family="Roboto" font-size="8.00" fill="#000000">DBIDSelection</text>
<text text-anchor="start" x="322.5" y="-661.1" font-family="Roboto" font-size="8.00" fill="#000000"> </text>
<text text-anchor="start" x="254.5" y="-650.1" font-family="Roboto" font-size="8.00" fill="#000000"> </text>
<text text-anchor="start" x="257.5" y="-650.1" font-family="Roboto" font-size="7.00" fill="#000000">de.lmu.ifi.dbs.elki.result</text>
<text text-anchor="start" x="336.5" y="-650.1" font-family="Roboto" font-size="8.00" fill="#000000"> </text>
</a>
</g>
</a>
</g>
</g>
<!-- c3054017 -->
<g id="node15" class="node">
<title>c3054017</title>
<g id="a_node15"><a xlink:href="DBIDs.html" xlink:title="&lt;TABLE&gt;">
<g id="a_node15_1"><a xlink:href="DBIDs.html" xlink:title="de.lmu.ifi.dbs.elki.database.ids.DBIDs" target="_parent">
<polygon fill="#fffacd" stroke="transparent" points="430,-424.5 430,-452.5 481,-452.5 481,-424.5 430,-424.5"/>
<polygon fill="none" stroke="#000000" points="430.5,-424.5 430.5,-452.5 481.5,-452.5 481.5,-424.5 430.5,-424.5"/>
<text text-anchor="start" x="434.5" y="-442.1" font-family="Roboto" font-size="8.00" fill="#000000"> «interface» </text>
<text text-anchor="start" x="441" y="-432.1" font-family="Roboto" font-size="8.00" fill="#000000"> </text>
<text text-anchor="start" x="444" y="-432.1" font-family="Roboto" font-size="8.00" fill="#000000">DBIDs</text>
<text text-anchor="start" x="468" y="-432.1" font-family="Roboto" font-size="8.00" fill="#000000"> </text>
</a>
</g>
</a>
</g>
</g>
<!-- c3052778&#45;&gt;c3054017 -->
<g id="edge22" class="edge">
<title>c3052778&#45;&gt;c3054017</title>
<path fill="none" stroke="#000000" d="M343.2734,-659.9939C369.5691,-659.3084 401.0263,-653.6255 421,-633.5 444.5417,-609.7794 452.2242,-509.624 454.5581,-462.808"/>
<polygon fill="#000000" stroke="#000000" points="455.0217,-452.6438 459.0613,-462.8384 454.7938,-457.6386 454.5659,-462.6334 454.5659,-462.6334 454.5659,-462.6334 454.7938,-457.6386 450.0706,-462.4283 455.0217,-452.6438 455.0217,-452.6438"/>
</g>
<!-- c3052779 -->
<g id="node2" class="node">
<title>c3052779</title>
<g id="a_node2"><a xlink:href="../../result/SamplingResult.html" xlink:title="&lt;TABLE&gt;">
<g id="a_node2_2"><a xlink:href="../../result/SamplingResult.html" xlink:title="de.lmu.ifi.dbs.elki.result.SamplingResult" target="_parent">
<polygon fill="none" stroke="#000000" points="250.5,-541.5 250.5,-569.5 343.5,-569.5 343.5,-541.5 250.5,-541.5"/>
<text text-anchor="start" x="266" y="-560.1" font-family="Roboto" font-size="8.00" fill="#000000"> </text>
<text text-anchor="start" x="269" y="-560.1" font-family="Roboto" font-size="8.00" fill="#000000">SamplingResult</text>
<text text-anchor="start" x="325" y="-560.1" font-family="Roboto" font-size="8.00" fill="#000000"> </text>
<text text-anchor="start" x="254.5" y="-549.1" font-family="Roboto" font-size="8.00" fill="#000000"> </text>
<text text-anchor="start" x="257.5" y="-549.1" font-family="Roboto" font-size="7.00" fill="#000000">de.lmu.ifi.dbs.elki.result</text>
<text text-anchor="start" x="336.5" y="-549.1" font-family="Roboto" font-size="8.00" fill="#000000"> </text>
</a>
</g>
</a>
</g>
</g>
<!-- c3052779&#45;&gt;c3054017 -->
<g id="edge1" class="edge">
<title>c3052779&#45;&gt;c3054017</title>
<path fill="none" stroke="#000000" d="M355.0247,-551.095C367.6367,-548.1985 380.3612,-543.6326 391,-536.5 421.9599,-515.7436 441.6164,-474.5842 450.3093,-452.7983"/>
<polygon fill="#000000" stroke="#000000" points="354.8248,-551.1332 349.6841,-556.1902 343.0389,-553.3899 348.1796,-548.3329 354.8248,-551.1332"/>
</g>
<!-- c3053054 -->
<g id="node3" class="node">
<title>c3053054</title>
<g id="a_node3"><a xlink:href="../../visualization/style/ClusterStylingPolicy.html" xlink:title="&lt;TABLE&gt;">
<g id="a_node3_3"><a xlink:href="../../visualization/style/ClusterStylingPolicy.html" xlink:title="de.lmu.ifi.dbs.elki.visualization.style.ClusterStylingPolicy" target="_parent">
<polygon fill="none" stroke="#000000" points="230.5,-502.5 230.5,-530.5 363.5,-530.5 363.5,-502.5 230.5,-502.5"/>
<text text-anchor="start" x="259" y="-521.1" font-family="Roboto" font-size="8.00" fill="#000000"> </text>
<text text-anchor="start" x="262" y="-521.1" font-family="Roboto" font-size="8.00" fill="#000000">ClusterStylingPolicy</text>
<text text-anchor="start" x="332" y="-521.1" font-family="Roboto" font-size="8.00" fill="#000000"> </text>
<text text-anchor="start" x="234.5" y="-510.1" font-family="Roboto" font-size="8.00" fill="#000000"> </text>
<text text-anchor="start" x="237.5" y="-510.1" font-family="Roboto" font-size="7.00" fill="#000000">de.lmu.ifi.dbs.elki.visualization.style</text>
<text text-anchor="start" x="356.5" y="-510.1" font-family="Roboto" font-size="8.00" fill="#000000"> </text>
</a>
</g>
</a>
</g>
</g>
<!-- c3053054&#45;&gt;c3054017 -->
<g id="edge23" class="edge">
<title>c3053054&#45;&gt;c3054017</title>
<path fill="none" stroke="#000000" d="M363.1131,-507.8672C372.7609,-505.2703 382.3449,-501.8927 391,-497.5 408.9311,-488.3994 425.5794,-472.914 437.4693,-460.091"/>
<polygon fill="#000000" stroke="#000000" points="444.2265,-452.5318 440.917,-462.9864 440.8942,-456.2596 437.562,-459.9874 437.562,-459.9874 437.562,-459.9874 440.8942,-456.2596 434.207,-456.9883 444.2265,-452.5318 444.2265,-452.5318"/>
<text text-anchor="middle" x="442.2265" y="-454.9318" font-family="Roboto" font-size="7.00" fill="#000000">*</text>
</g>
<!-- c3053304 -->
<g id="node4" class="node">
<title>c3053304</title>
<g id="a_node4"><a xlink:href="../../evaluation/clustering/pairsegments/Segment.html" xlink:title="&lt;TABLE&gt;">
<g id="a_node4_4"><a xlink:href="../../evaluation/clustering/pairsegments/Segment.html" xlink:title="de.lmu.ifi.dbs.elki.evaluation.clustering.pairsegments.Segment" target="_parent">
<polygon fill="none" stroke="#000000" points="202.5,-463.5 202.5,-491.5 391.5,-491.5 391.5,-463.5 202.5,-463.5"/>
<text text-anchor="start" x="278.5" y="-482.1" font-family="Roboto" font-size="8.00" fill="#000000"> </text>
<text text-anchor="start" x="281.5" y="-482.1" font-family="Roboto" font-size="8.00" fill="#000000">Segment</text>
<text text-anchor="start" x="312.5" y="-482.1" font-family="Roboto" font-size="8.00" fill="#000000"> </text>
<text text-anchor="start" x="206.5" y="-471.1" font-family="Roboto" font-size="8.00" fill="#000000"> </text>
<text text-anchor="start" x="209.5" y="-471.1" font-family="Roboto" font-size="7.00" fill="#000000">de.lmu.ifi.dbs.elki.evaluation.clustering.pairsegments</text>
<text text-anchor="start" x="384.5" y="-471.1" font-family="Roboto" font-size="8.00" fill="#000000"> </text>
</a>
</g>
</a>
</g>
</g>
<!-- c3053304&#45;&gt;c3054017 -->
<g id="edge24" class="edge">
<title>c3053304&#45;&gt;c3054017</title>
<path fill="none" stroke="#000000" d="M370.1809,-463.4484C377.239,-461.8735 384.2703,-460.2151 391,-458.5 400.5111,-456.076 410.6994,-453.0985 420.1049,-450.1888"/>
<polygon fill="#000000" stroke="#000000" points="429.9345,-447.0874 421.752,-454.3879 425.1662,-448.5919 420.398,-450.0964 420.398,-450.0964 420.398,-450.0964 425.1662,-448.5919 419.0439,-445.805 429.9345,-447.0874 429.9345,-447.0874"/>
</g>
<!-- c3053308 -->
<g id="node5" class="node">
<title>c3053308</title>
<g id="a_node5"><a xlink:href="../../data/Cluster.html" xlink:title="&lt;TABLE&gt;">
<g id="a_node5_5"><a xlink:href="../../data/Cluster.html" xlink:title="de.lmu.ifi.dbs.elki.data.Cluster" target="_parent">
<polygon fill="#fffacd" stroke="transparent" points="253,-424.5 253,-452.5 340,-452.5 340,-424.5 253,-424.5"/>
<polygon fill="none" stroke="#000000" points="253.5,-424.5 253.5,-452.5 340.5,-452.5 340.5,-424.5 253.5,-424.5"/>
<text text-anchor="start" x="281.5" y="-443.1" font-family="Roboto" font-size="8.00" fill="#000000"> </text>
<text text-anchor="start" x="284.5" y="-443.1" font-family="Roboto" font-size="8.00" fill="#000000">Cluster</text>
<text text-anchor="start" x="309.5" y="-443.1" font-family="Roboto" font-size="8.00" fill="#000000"> </text>
<text text-anchor="start" x="257.5" y="-432.1" font-family="Roboto" font-size="8.00" fill="#000000"> </text>
<text text-anchor="start" x="260.5" y="-432.1" font-family="Roboto" font-size="7.00" fill="#000000">de.lmu.ifi.dbs.elki.data</text>
<text text-anchor="start" x="333.5" y="-432.1" font-family="Roboto" font-size="8.00" fill="#000000"> </text>
</a>
</g>
</a>
</g>
</g>
<!-- c3053308&#45;&gt;c3054017 -->
<g id="edge2" class="edge">
<title>c3053308&#45;&gt;c3054017</title>
<path fill="none" stroke="#000000" d="M352.5171,-438.5C378.7912,-438.5 408.8247,-438.5 429.6499,-438.5"/>
<polygon fill="#000000" stroke="#000000" points="352.3683,-438.5001 346.3683,-442.5 340.3683,-438.5 346.3684,-434.5 352.3683,-438.5001"/>
</g>
<!-- c3053320 -->
<g id="node6" class="node">
<title>c3053320</title>
<g id="a_node6"><a xlink:href="../../data/model/CoreObjectsModel.html" xlink:title="&lt;TABLE&gt;">
<g id="a_node6_6"><a xlink:href="../../data/model/CoreObjectsModel.html" xlink:title="de.lmu.ifi.dbs.elki.data.model.CoreObjectsModel" target="_parent">
<polygon fill="none" stroke="#000000" points="242.5,-385.5 242.5,-413.5 350.5,-413.5 350.5,-385.5 242.5,-385.5"/>
<text text-anchor="start" x="261.5" y="-404.1" font-family="Roboto" font-size="8.00" fill="#000000"> </text>
<text text-anchor="start" x="264.5" y="-404.1" font-family="Roboto" font-size="8.00" fill="#000000">CoreObjectsModel</text>
<text text-anchor="start" x="328.5" y="-404.1" font-family="Roboto" font-size="8.00" fill="#000000"> </text>
<text text-anchor="start" x="246.5" y="-393.1" font-family="Roboto" font-size="8.00" fill="#000000"> </text>
<text text-anchor="start" x="249.5" y="-393.1" font-family="Roboto" font-size="7.00" fill="#000000">de.lmu.ifi.dbs.elki.data.model</text>
<text text-anchor="start" x="343.5" y="-393.1" font-family="Roboto" font-size="8.00" fill="#000000"> </text>
</a>
</g>
</a>
</g>
</g>
<!-- c3053320&#45;&gt;c3054017 -->
<g id="edge25" class="edge">
<title>c3053320&#45;&gt;c3054017</title>
<path fill="none" stroke="#000000" d="M350.6389,-410.2007C363.887,-413.0275 377.9931,-416.2132 391,-419.5 400.4752,-421.8944 410.6511,-424.7547 420.0562,-427.5201"/>
<polygon fill="#000000" stroke="#000000" points="429.8894,-430.4571 419.0198,-431.9069 425.0986,-429.0261 420.3077,-427.5951 420.3077,-427.5951 420.3077,-427.5951 425.0986,-429.0261 421.5956,-423.2834 429.8894,-430.4571 429.8894,-430.4571"/>
</g>
<!-- c3053325 -->
<g id="node7" class="node">
<title>c3053325</title>
<g id="a_node7"><a xlink:href="../../data/model/BiclusterWithInversionsModel.html" xlink:title="&lt;TABLE&gt;">
<g id="a_node7_7"><a xlink:href="../../data/model/BiclusterWithInversionsModel.html" xlink:title="de.lmu.ifi.dbs.elki.data.model.BiclusterWithInversionsModel" target="_parent">
<polygon fill="none" stroke="#000000" points="237.5,-346.5 237.5,-374.5 355.5,-374.5 355.5,-346.5 237.5,-346.5"/>
<text text-anchor="start" x="241.5" y="-365.1" font-family="Roboto" font-size="8.00" fill="#000000"> </text>
<text text-anchor="start" x="244.5" y="-365.1" font-family="Roboto" font-size="8.00" fill="#000000">BiclusterWithInversionsModel</text>
<text text-anchor="start" x="348.5" y="-365.1" font-family="Roboto" font-size="8.00" fill="#000000"> </text>
<text text-anchor="start" x="246.5" y="-354.1" font-family="Roboto" font-size="8.00" fill="#000000"> </text>
<text text-anchor="start" x="249.5" y="-354.1" font-family="Roboto" font-size="7.00" fill="#000000">de.lmu.ifi.dbs.elki.data.model</text>
<text text-anchor="start" x="343.5" y="-354.1" font-family="Roboto" font-size="8.00" fill="#000000"> </text>
</a>
</g>
</a>
</g>
</g>
<!-- c3053325&#45;&gt;c3054017 -->
<g id="edge26" class="edge">
<title>c3053325&#45;&gt;c3054017</title>
<path fill="none" stroke="#000000" d="M355.602,-368.0415C367.7153,-370.9399 380.0882,-374.9507 391,-380.5 408.5635,-389.4322 425.0228,-404.3852 436.9184,-416.871"/>
<polygon fill="#000000" stroke="#000000" points="443.7044,-424.2506 433.6231,-419.9357 440.32,-420.5701 436.9355,-416.8897 436.9355,-416.8897 436.9355,-416.8897 440.32,-420.5701 440.2479,-413.8437 443.7044,-424.2506 443.7044,-424.2506"/>
</g>
<!-- c3053365 -->
<g id="node8" class="node">
<title>c3053365</title>
<g id="a_node8"><a xlink:href="../../algorithm/clustering/hierarchical/PointerHierarchyRepresentationResult.html" xlink:title="&lt;TABLE&gt;">
<g id="a_node8_8"><a xlink:href="../../algorithm/clustering/hierarchical/PointerHierarchyRepresentationResult.html" xlink:title="de.lmu.ifi.dbs.elki.algorithm.clustering.hierarchical.PointerHierarchyRepresentationResult" target="_parent">
<polygon fill="none" stroke="#000000" points="205.5,-307.5 205.5,-335.5 388.5,-335.5 388.5,-307.5 205.5,-307.5"/>
<text text-anchor="start" x="227.5" y="-326.1" font-family="Roboto" font-size="8.00" fill="#000000"> </text>
<text text-anchor="start" x="230.5" y="-326.1" font-family="Roboto" font-size="8.00" fill="#000000">PointerHierarchyRepresentationResult</text>
<text text-anchor="start" x="363.5" y="-326.1" font-family="Roboto" font-size="8.00" fill="#000000"> </text>
<text text-anchor="start" x="209.5" y="-315.1" font-family="Roboto" font-size="8.00" fill="#000000"> </text>
<text text-anchor="start" x="212.5" y="-315.1" font-family="Roboto" font-size="7.00" fill="#000000">de.lmu.ifi.dbs.elki.algorithm.clustering.hierarchical</text>
<text text-anchor="start" x="381.5" y="-315.1" font-family="Roboto" font-size="8.00" fill="#000000"> </text>
</a>
</g>
</a>
</g>
</g>
<!-- c3053365&#45;&gt;c3054017 -->
<g id="edge27" class="edge">
<title>c3053365&#45;&gt;c3054017</title>
<path fill="none" stroke="#000000" d="M380.3669,-335.5749C384.0658,-337.3292 387.6325,-339.2959 391,-341.5 417.974,-359.1553 436.3647,-392.4346 446.4025,-415.0341"/>
<polygon fill="#000000" stroke="#000000" points="450.3107,-424.2801 442.2723,-416.8212 448.364,-419.6747 446.4172,-415.0692 446.4172,-415.0692 446.4172,-415.0692 448.364,-419.6747 450.5622,-413.3171 450.3107,-424.2801 450.3107,-424.2801"/>
</g>
<!-- c3053427 -->
<g id="node9" class="node">
<title>c3053427</title>
<g id="a_node9"><a xlink:href="../../algorithm/clustering/hierarchical/PointerHierarchyRepresentationBuilder.html" xlink:title="&lt;TABLE&gt;">
<g id="a_node9_9"><a xlink:href="../../algorithm/clustering/hierarchical/PointerHierarchyRepresentationBuilder.html" xlink:title="de.lmu.ifi.dbs.elki.algorithm.clustering.hierarchical.PointerHierarchyRepresentationBuilder" target="_parent">
<polygon fill="none" stroke="#000000" points=".5,-307.5 .5,-335.5 183.5,-335.5 183.5,-307.5 .5,-307.5"/>
<text text-anchor="start" x="21" y="-326.1" font-family="Roboto" font-size="8.00" fill="#000000"> </text>
<text text-anchor="start" x="24" y="-326.1" font-family="Roboto" font-size="8.00" fill="#000000">PointerHierarchyRepresentationBuilder</text>
<text text-anchor="start" x="160" y="-326.1" font-family="Roboto" font-size="8.00" fill="#000000"> </text>
<text text-anchor="start" x="4.5" y="-315.1" font-family="Roboto" font-size="8.00" fill="#000000"> </text>
<text text-anchor="start" x="7.5" y="-315.1" font-family="Roboto" font-size="7.00" fill="#000000">de.lmu.ifi.dbs.elki.algorithm.clustering.hierarchical</text>
<text text-anchor="start" x="176.5" y="-315.1" font-family="Roboto" font-size="8.00" fill="#000000"> </text>
</a>
</g>
</a>
</g>
</g>
<!-- c3053427&#45;&gt;c3053365 -->
<g id="edge3" class="edge">
<title>c3053427&#45;&gt;c3053365</title>
<path fill="none" stroke="#000000" d="M195.3025,-321.5C198.4427,-321.5 201.5812,-321.5 204.7064,-321.5"/>
<polygon fill="none" stroke="#000000" points="195.2073,-321.5001 189.2072,-325.5 183.2073,-321.5 189.2073,-317.5 195.2073,-321.5001"/>
</g>
<!-- c3053427&#45;&gt;c3054017 -->
<g id="edge28" class="edge">
<title>c3053427&#45;&gt;c3054017</title>
<path fill="none" stroke="#000000" d="M158.1447,-307.4526C172.5426,-304.9753 187.728,-302.7812 202,-301.5 285.6636,-293.9896 317.1405,-261.4904 391,-301.5 432.12,-323.7746 447.2374,-381.2452 452.6345,-414.2418"/>
<polygon fill="#000000" stroke="#000000" points="454.1157,-424.4075 448.2208,-415.1608 453.3947,-419.4597 452.6738,-414.512 452.6738,-414.512 452.6738,-414.512 453.3947,-419.4597 457.1268,-413.8631 454.1157,-424.4075 454.1157,-424.4075"/>
</g>
<!-- c3053607 -->
<g id="node10" class="node">
<title>c3053607</title>
<g id="a_node10"><a xlink:href="../../algorithm/clustering/kmeans/CLARANS.Assignment.html" xlink:title="&lt;TABLE&gt;">
<g id="a_node10_10"><a xlink:href="../../algorithm/clustering/kmeans/CLARANS.Assignment.html" xlink:title="de.lmu.ifi.dbs.elki.algorithm.clustering.kmeans.CLARANS.Assignment" target="_parent">
<polygon fill="none" stroke="#000000" points="212.5,-245.5 212.5,-273.5 380.5,-273.5 380.5,-245.5 212.5,-245.5"/>
<text text-anchor="start" x="253.5" y="-264.1" font-family="Roboto" font-size="8.00" fill="#000000"> </text>
<text text-anchor="start" x="256.5" y="-264.1" font-family="Roboto" font-size="8.00" fill="#000000">CLARANS.Assignment</text>
<text text-anchor="start" x="336.5" y="-264.1" font-family="Roboto" font-size="8.00" fill="#000000"> </text>
<text text-anchor="start" x="216.5" y="-253.1" font-family="Roboto" font-size="8.00" fill="#000000"> </text>
<text text-anchor="start" x="219.5" y="-253.1" font-family="Roboto" font-size="7.00" fill="#000000">de.lmu.ifi.dbs.elki.algorithm.clustering.kmeans</text>
<text text-anchor="start" x="373.5" y="-253.1" font-family="Roboto" font-size="8.00" fill="#000000"> </text>
</a>
</g>
</a>
</g>
</g>
<!-- c3053607&#45;&gt;c3054017 -->
<g id="edge29" class="edge">
<title>c3053607&#45;&gt;c3054017</title>
<path fill="none" stroke="#000000" d="M380.6362,-261.3554C395.6078,-265.2496 409.9317,-271.8122 421,-282.5 439.6035,-300.464 449.4099,-375.0252 453.3645,-414.2026"/>
<polygon fill="#000000" stroke="#000000" points="454.3271,-424.2379 448.8927,-414.7133 453.8496,-419.2607 453.3721,-414.2836 453.3721,-414.2836 453.3721,-414.2836 453.8496,-419.2607 457.8516,-413.8538 454.3271,-424.2379 454.3271,-424.2379"/>
</g>
<!-- c3053783 -->
<g id="node11" class="node">
<title>c3053783</title>
<g id="a_node11"><a xlink:href="../../result/OrderingFromDataStore.html" xlink:title="&lt;TABLE&gt;">
<g id="a_node11_11"><a xlink:href="../../result/OrderingFromDataStore.html" xlink:title="de.lmu.ifi.dbs.elki.result.OrderingFromDataStore" target="_parent">
<polygon fill="none" stroke="#000000" points="247.5,-206.5 247.5,-234.5 346.5,-234.5 346.5,-206.5 247.5,-206.5"/>
<text text-anchor="start" x="251.5" y="-225.1" font-family="Roboto" font-size="8.00" fill="#000000"> </text>
<text text-anchor="start" x="254.5" y="-225.1" font-family="Roboto" font-size="8.00" fill="#000000">OrderingFromDataStore</text>
<text text-anchor="start" x="339.5" y="-225.1" font-family="Roboto" font-size="8.00" fill="#000000"> </text>
<text text-anchor="start" x="254.5" y="-214.1" font-family="Roboto" font-size="8.00" fill="#000000"> </text>
<text text-anchor="start" x="257.5" y="-214.1" font-family="Roboto" font-size="7.00" fill="#000000">de.lmu.ifi.dbs.elki.result</text>
<text text-anchor="start" x="336.5" y="-214.1" font-family="Roboto" font-size="8.00" fill="#000000"> </text>
</a>
</g>
</a>
</g>
</g>
<!-- c3053783&#45;&gt;c3054017 -->
<g id="edge30" class="edge">
<title>c3053783&#45;&gt;c3054017</title>
<path fill="none" stroke="#000000" d="M346.004,-224.2756C373.9838,-229.3902 406.2389,-241.0781 421,-267.5 434.9321,-292.438 447.065,-373.4761 452.4851,-414.3943"/>
<polygon fill="#000000" stroke="#000000" points="453.7739,-424.334 448.0254,-414.9957 453.1309,-419.3755 452.488,-414.417 452.488,-414.417 452.488,-414.417 453.1309,-419.3755 456.9507,-413.8384 453.7739,-424.334 453.7739,-424.334"/>
</g>
<!-- c3053793 -->
<g id="node12" class="node">
<title>c3053793</title>
<g id="a_node12"><a xlink:href="../../evaluation/scores/ScoreEvaluation.html" xlink:title="&lt;TABLE&gt;">
<g id="a_node12_12"><a xlink:href="../../evaluation/scores/ScoreEvaluation.html" xlink:title="de.lmu.ifi.dbs.elki.evaluation.scores.ScoreEvaluation" target="_parent">
<polygon fill="none" stroke="#000000" points="231.5,.5 231.5,-38.5 362.5,-38.5 362.5,.5 231.5,.5"/>
<text text-anchor="start" x="275.5" y="-28.1" font-family="Roboto" font-size="8.00" fill="#000000"> «interface» </text>
<text text-anchor="start" x="266" y="-18.1" font-family="Roboto" font-size="8.00" fill="#000000"> </text>
<text text-anchor="start" x="269" y="-18.1" font-family="Roboto" font-size="8.00" fill="#000000">ScoreEvaluation</text>
<text text-anchor="start" x="325" y="-18.1" font-family="Roboto" font-size="8.00" fill="#000000"> </text>
<text text-anchor="start" x="235.5" y="-7.1" font-family="Roboto" font-size="8.00" fill="#000000"> </text>
<text text-anchor="start" x="238.5" y="-7.1" font-family="Roboto" font-size="7.00" fill="#000000">de.lmu.ifi.dbs.elki.evaluation.scores</text>
<text text-anchor="start" x="355.5" y="-7.1" font-family="Roboto" font-size="8.00" fill="#000000"> </text>
</a>
</g>
</a>
</g>
</g>
<!-- c3053793&#45;&gt;c3054017 -->
<g id="edge5" class="edge">
<title>c3053793&#45;&gt;c3054017</title>
<path fill="none" stroke="#000000" d="M362.2555,-30.345C372.4366,-33.8263 382.4091,-38.425 391,-44.5 410.3249,-58.1654 412.9211,-66.253 421,-88.5 444.0297,-151.9174 453.0085,-366.6798 455.0331,-424.2185"/>
</g>
<!-- c3054032 -->
<g id="node21" class="node">
<title>c3054032</title>
<g id="a_node21"><a xlink:href="DoubleDBIDList.html" xlink:title="&lt;TABLE&gt;">
<g id="a_node21_13"><a xlink:href="DoubleDBIDList.html" xlink:title="de.lmu.ifi.dbs.elki.database.ids.DoubleDBIDList" target="_parent">
<polygon fill="#fffacd" stroke="transparent" points="553,-295.5 553,-323.5 625,-323.5 625,-295.5 553,-295.5"/>
<polygon fill="none" stroke="#000000" points="553,-295.5 553,-323.5 625,-323.5 625,-295.5 553,-295.5"/>
<text text-anchor="start" x="567.5" y="-313.1" font-family="Roboto" font-size="8.00" fill="#000000"> «interface» </text>
<text text-anchor="start" x="557" y="-303.1" font-family="Roboto" font-size="8.00" fill="#000000"> </text>
<text text-anchor="start" x="560" y="-303.1" font-family="Roboto" font-size="8.00" fill="#000000">DoubleDBIDList</text>
<text text-anchor="start" x="618" y="-303.1" font-family="Roboto" font-size="8.00" fill="#000000"> </text>
</a>
</g>
</a>
</g>
</g>
<!-- c3053793&#45;&gt;c3054032 -->
<g id="edge4" class="edge">
<title>c3053793&#45;&gt;c3054032</title>
<path fill="none" stroke="#000000" d="M362.1713,-26.3495C382.4151,-30.8508 403.8647,-38.2746 421,-50.5 513.7142,-116.6478 568.2653,-251.4386 584.1272,-295.3365"/>
</g>
<!-- c3053800 -->
<g id="node13" class="node">
<title>c3053800</title>
<g id="a_node13"><a xlink:href="../../evaluation/scores/adapter/DBIDsTest.html" xlink:title="&lt;TABLE&gt;">
<g id="a_node13_14"><a xlink:href="../../evaluation/scores/adapter/DBIDsTest.html" xlink:title="de.lmu.ifi.dbs.elki.evaluation.scores.adapter.DBIDsTest" target="_parent">
<polygon fill="none" stroke="#000000" points="218.5,-167.5 218.5,-195.5 374.5,-195.5 374.5,-167.5 218.5,-167.5"/>
<text text-anchor="start" x="274.5" y="-186.1" font-family="Roboto" font-size="8.00" fill="#000000"> </text>
<text text-anchor="start" x="277.5" y="-186.1" font-family="Roboto" font-size="8.00" fill="#000000">DBIDsTest</text>
<text text-anchor="start" x="315.5" y="-186.1" font-family="Roboto" font-size="8.00" fill="#000000"> </text>
<text text-anchor="start" x="222.5" y="-175.1" font-family="Roboto" font-size="8.00" fill="#000000"> </text>
<text text-anchor="start" x="225.5" y="-175.1" font-family="Roboto" font-size="7.00" fill="#000000">de.lmu.ifi.dbs.elki.evaluation.scores.adapter</text>
<text text-anchor="start" x="367.5" y="-175.1" font-family="Roboto" font-size="8.00" fill="#000000"> </text>
</a>
</g>
</a>
</g>
</g>
<!-- c3053800&#45;&gt;c3054017 -->
<g id="edge6" class="edge">
<title>c3053800&#45;&gt;c3054017</title>
<path fill="none" stroke="#000000" d="M385.6854,-197.2379C387.5053,-198.2607 389.2799,-199.3468 391,-200.5 410.9653,-213.8853 412.0296,-223.1995 421,-245.5 446.5324,-308.9738 453.2392,-391.7527 454.9425,-424.3919"/>
<polygon fill="#000000" stroke="#000000" points="385.6576,-197.2246 378.5188,-198.2435 374.8327,-192.0457 381.9715,-191.0268 385.6576,-197.2246"/>
</g>
<!-- c3054016 -->
<g id="node14" class="node">
<title>c3054016</title>
<g id="a_node14"><a xlink:href="DBID.html" xlink:title="&lt;TABLE&gt;">
<g id="a_node14_15"><a xlink:href="DBID.html" xlink:title="de.lmu.ifi.dbs.elki.database.ids.DBID" target="_parent">
<polygon fill="#fffacd" stroke="transparent" points="677,-541.5 677,-569.5 728,-569.5 728,-541.5 677,-541.5"/>
<polygon fill="none" stroke="#000000" points="677.5,-541.5 677.5,-569.5 728.5,-569.5 728.5,-541.5 677.5,-541.5"/>
<text text-anchor="start" x="681.5" y="-559.1" font-family="Roboto" font-size="8.00" fill="#000000"> «interface» </text>
<text text-anchor="start" x="690" y="-549.1" font-family="Roboto" font-size="8.00" fill="#000000"> </text>
<text text-anchor="start" x="693" y="-549.1" font-family="Roboto" font-size="8.00" fill="#000000">DBID</text>
<text text-anchor="start" x="713" y="-549.1" font-family="Roboto" font-size="8.00" fill="#000000"> </text>
</a>
</g>
</a>
</g>
</g>
<!-- c3054017&#45;&gt;c3054016 -->
<g id="edge9" class="edge">
<title>c3054017&#45;&gt;c3054016</title>
<path fill="none" stroke="#000000" d="M458.8702,-464.7758C464.7177,-497.8259 480.2144,-552.9738 520,-575.5 573.3723,-605.7189 598.0294,-588.3571 658,-575.5 664.2943,-574.1506 670.7733,-571.8397 676.7727,-569.2571"/>
<polygon fill="#000000" stroke="#000000" points="458.8689,-464.7668 453.9911,-459.4558 457.0175,-452.9104 461.8953,-458.2215 458.8689,-464.7668"/>
</g>
<!-- c3054019 -->
<g id="node17" class="node">
<title>c3054019</title>
<g id="a_node17"><a xlink:href="ArrayDBIDs.html" xlink:title="&lt;TABLE&gt;">
<g id="a_node17_16"><a xlink:href="ArrayDBIDs.html" xlink:title="de.lmu.ifi.dbs.elki.database.ids.ArrayDBIDs" target="_parent">
<polygon fill="none" stroke="#000000" points="561,-541.5 561,-569.5 618,-569.5 618,-541.5 561,-541.5"/>
<text text-anchor="start" x="568" y="-559.1" font-family="Roboto" font-size="8.00" fill="#000000"> «interface» </text>
<text text-anchor="start" x="565" y="-549.1" font-family="Roboto" font-size="8.00" fill="#000000"> </text>
<text text-anchor="start" x="568" y="-549.1" font-family="Roboto" font-size="8.00" fill="#000000">ArrayDBIDs</text>
<text text-anchor="start" x="611" y="-549.1" font-family="Roboto" font-size="8.00" fill="#000000"> </text>
</a>
</g>
</a>
</g>
</g>
<!-- c3054017&#45;&gt;c3054019 -->
<g id="edge13" class="edge">
<title>c3054017&#45;&gt;c3054019</title>
<path fill="none" stroke="#000000" stroke-dasharray="5,2" d="M464.8781,-461.7039C475.1311,-484.1499 493.683,-517.4827 520,-536.5 531.7828,-545.0145 547.208,-549.7149 560.4849,-552.3091"/>
<polygon fill="none" stroke="#000000" points="468.0837,-460.2988 460.8733,-452.536 461.669,-463.1009 468.0837,-460.2988"/>
</g>
<!-- c3054022 -->
<g id="node18" class="node">
<title>c3054022</title>
<g id="a_node18"><a xlink:href="DBIDIter.html" xlink:title="&lt;TABLE&gt;">
<g id="a_node18_17"><a xlink:href="DBIDIter.html" xlink:title="de.lmu.ifi.dbs.elki.database.ids.DBIDIter" target="_parent">
<polygon fill="#fffacd" stroke="transparent" points="563.5,-502.5 563.5,-530.5 614.5,-530.5 614.5,-502.5 563.5,-502.5"/>
<polygon fill="none" stroke="#000000" points="564,-502.5 564,-530.5 615,-530.5 615,-502.5 564,-502.5"/>
<text text-anchor="start" x="568" y="-520.1" font-family="Roboto" font-size="8.00" fill="#000000"> «interface» </text>
<text text-anchor="start" x="571" y="-510.1" font-family="Roboto" font-size="8.00" fill="#000000"> </text>
<text text-anchor="start" x="574" y="-510.1" font-family="Roboto" font-size="8.00" fill="#000000">DBIDIter</text>
<text text-anchor="start" x="605" y="-510.1" font-family="Roboto" font-size="8.00" fill="#000000"> </text>
</a>
</g>
</a>
</g>
</g>
<!-- c3054017&#45;&gt;c3054022 -->
<g id="edge10" class="edge">
<title>c3054017&#45;&gt;c3054022</title>
<path fill="none" stroke="#000000" d="M475.5842,-461.5644C487.4003,-473.8364 503.2756,-488.259 520,-497.5 533.3766,-504.8912 549.8278,-509.5661 563.3111,-512.4286"/>
<polygon fill="none" stroke="#000000" points="475.5472,-461.5244 468.5354,-459.8406 467.3929,-452.7205 474.4046,-454.4043 475.5472,-461.5244"/>
</g>
<!-- c3054026 -->
<g id="node19" class="node">
<title>c3054026</title>
<g id="a_node19"><a xlink:href="SetDBIDs.html" xlink:title="&lt;TABLE&gt;">
<g id="a_node19_18"><a xlink:href="SetDBIDs.html" xlink:title="de.lmu.ifi.dbs.elki.database.ids.SetDBIDs" target="_parent">
<polygon fill="none" stroke="#000000" points="564,-463.5 564,-491.5 615,-491.5 615,-463.5 564,-463.5"/>
<text text-anchor="start" x="568" y="-481.1" font-family="Roboto" font-size="8.00" fill="#000000"> «interface» </text>
<text text-anchor="start" x="569.5" y="-471.1" font-family="Roboto" font-size="8.00" fill="#000000"> </text>
<text text-anchor="start" x="572.5" y="-471.1" font-family="Roboto" font-size="8.00" fill="#000000">SetDBIDs</text>
<text text-anchor="start" x="606.5" y="-471.1" font-family="Roboto" font-size="8.00" fill="#000000"> </text>
</a>
</g>
</a>
</g>
</g>
<!-- c3054017&#45;&gt;c3054026 -->
<g id="edge14" class="edge">
<title>c3054017&#45;&gt;c3054026</title>
<path fill="none" stroke="#000000" stroke-dasharray="5,2" d="M491.0188,-449.7368C500.4231,-452.6507 510.58,-455.7433 520,-458.5 534.3099,-462.6876 550.3654,-467.1242 563.3857,-470.6561"/>
<polygon fill="none" stroke="#000000" points="491.7685,-446.3044 481.1799,-446.6692 489.6849,-452.9871 491.7685,-446.3044"/>
</g>
<!-- c3054030 -->
<g id="node20" class="node">
<title>c3054030</title>
<g id="a_node20"><a xlink:href="StaticDBIDs.html" xlink:title="&lt;TABLE&gt;">
<g id="a_node20_19"><a xlink:href="StaticDBIDs.html" xlink:title="de.lmu.ifi.dbs.elki.database.ids.StaticDBIDs" target="_parent">
<polygon fill="none" stroke="#000000" points="561,-424.5 561,-452.5 618,-452.5 618,-424.5 561,-424.5"/>
<text text-anchor="start" x="568" y="-442.1" font-family="Roboto" font-size="8.00" fill="#000000"> «interface» </text>
<text text-anchor="start" x="565" y="-432.1" font-family="Roboto" font-size="8.00" fill="#000000"> </text>
<text text-anchor="start" x="568" y="-432.1" font-family="Roboto" font-size="8.00" fill="#000000">StaticDBIDs</text>
<text text-anchor="start" x="611" y="-432.1" font-family="Roboto" font-size="8.00" fill="#000000"> </text>
</a>
</g>
</a>
</g>
</g>
<!-- c3054017&#45;&gt;c3054030 -->
<g id="edge15" class="edge">
<title>c3054017&#45;&gt;c3054030</title>
<path fill="none" stroke="#000000" stroke-dasharray="5,2" d="M491.3177,-438.5C512.8599,-438.5 539.9207,-438.5 560.0942,-438.5"/>
<polygon fill="none" stroke="#000000" points="491.2402,-435.0001 481.2401,-438.5 491.2401,-442.0001 491.2402,-435.0001"/>
</g>
<!-- c3054017&#45;&gt;c3054032 -->
<g id="edge16" class="edge">
<title>c3054017&#45;&gt;c3054032</title>
<path fill="none" stroke="#000000" stroke-dasharray="5,2" d="M463.5515,-414.7064C473.1601,-389.8649 491.5874,-351.5192 520,-329.5 529.464,-322.1656 541.5331,-317.5195 552.9227,-314.5769"/>
<polygon fill="none" stroke="#000000" points="460.2536,-413.5338 460.0791,-424.1272 466.8217,-415.9547 460.2536,-413.5338"/>
</g>
<!-- c3054043 -->
<g id="node22" class="node">
<title>c3054043</title>
<g id="a_node22"><a xlink:href="ModifiableDBIDs.html" xlink:title="&lt;TABLE&gt;">
<g id="a_node22_20"><a xlink:href="ModifiableDBIDs.html" xlink:title="de.lmu.ifi.dbs.elki.database.ids.ModifiableDBIDs" target="_parent">
<polygon fill="none" stroke="#000000" points="552,-385.5 552,-413.5 627,-413.5 627,-385.5 552,-385.5"/>
<text text-anchor="start" x="568" y="-403.1" font-family="Roboto" font-size="8.00" fill="#000000"> «interface» </text>
<text text-anchor="start" x="556" y="-393.1" font-family="Roboto" font-size="8.00" fill="#000000"> </text>
<text text-anchor="start" x="559" y="-393.1" font-family="Roboto" font-size="8.00" fill="#000000">ModifiableDBIDs</text>
<text text-anchor="start" x="620" y="-393.1" font-family="Roboto" font-size="8.00" fill="#000000"> </text>
</a>
</g>
</a>
</g>
</g>
<!-- c3054017&#45;&gt;c3054043 -->
<g id="edge17" class="edge">
<title>c3054017&#45;&gt;c3054043</title>
<path fill="none" stroke="#000000" stroke-dasharray="5,2" d="M491.0722,-427.9913C500.476,-425.2215 510.6193,-422.2412 520,-419.5 530.1759,-416.5265 541.2012,-413.3227 551.3901,-410.3693"/>
<polygon fill="none" stroke="#000000" points="489.8314,-424.7081 481.2293,-430.893 491.8109,-431.4224 489.8314,-424.7081"/>
</g>
<!-- c3054125 -->
<g id="node25" class="node">
<title>c3054125</title>
<g id="a_node25"><a xlink:href="integer/IntegerDBIDs.html" xlink:title="&lt;TABLE&gt;">
<g id="a_node25_21"><a xlink:href="integer/IntegerDBIDs.html" xlink:title="de.lmu.ifi.dbs.elki.database.ids.integer.IntegerDBIDs" target="_parent">
<polygon fill="none" stroke="#000000" points="520,-334.5 520,-373.5 658,-373.5 658,-334.5 520,-334.5"/>
<text text-anchor="start" x="567.5" y="-363.1" font-family="Roboto" font-size="8.00" fill="#000000"> «interface» </text>
<text text-anchor="start" x="562" y="-353.1" font-family="Roboto" font-size="8.00" fill="#000000"> </text>
<text text-anchor="start" x="565" y="-353.1" font-family="Roboto" font-size="8.00" fill="#000000">IntegerDBIDs</text>
<text text-anchor="start" x="613" y="-353.1" font-family="Roboto" font-size="8.00" fill="#000000"> </text>
<text text-anchor="start" x="524" y="-342.1" font-family="Roboto" font-size="8.00" fill="#000000"> </text>
<text text-anchor="start" x="527" y="-342.1" font-family="Roboto" font-size="7.00" fill="#000000">de.lmu.ifi.dbs.elki.database.ids.integer</text>
<text text-anchor="start" x="651" y="-342.1" font-family="Roboto" font-size="8.00" fill="#000000"> </text>
</a>
</g>
</a>
</g>
</g>
<!-- c3054017&#45;&gt;c3054125 -->
<g id="edge20" class="edge">
<title>c3054017&#45;&gt;c3054125</title>
<path fill="none" stroke="#000000" stroke-dasharray="5,2" d="M475.4065,-417.003C487.4131,-405.0086 503.5342,-390.5132 520,-380.5 523.7188,-378.2385 527.6669,-376.1191 531.7178,-374.1439"/>
<polygon fill="none" stroke="#000000" points="472.6205,-414.8469 468.1483,-424.4516 477.6339,-419.7322 472.6205,-414.8469"/>
</g>
<!-- c3054018 -->
<g id="node16" class="node">
<title>c3054018</title>
<g id="a_node16"><a xlink:href="DBIDFactory.html" xlink:title="&lt;TABLE&gt;">
<g id="a_node16_22"><a xlink:href="DBIDFactory.html" xlink:title="de.lmu.ifi.dbs.elki.database.ids.DBIDFactory" target="_parent">
<polygon fill="none" stroke="#000000" points="266.5,-720.5 266.5,-759.5 326.5,-759.5 326.5,-720.5 266.5,-720.5"/>
<text text-anchor="start" x="275" y="-749.1" font-family="Roboto" font-size="8.00" fill="#000000"> «interface» </text>
<text text-anchor="start" x="278" y="-738.1" font-family="Roboto" font-size="8.00" fill="#000000"> «factory» </text>
<text text-anchor="start" x="270.5" y="-728.1" font-family="Roboto" font-size="8.00" fill="#000000"> </text>
<text text-anchor="start" x="273.5" y="-728.1" font-family="Roboto" font-size="8.00" fill="#000000">DBIDFactory</text>
<text text-anchor="start" x="319.5" y="-728.1" font-family="Roboto" font-size="8.00" fill="#000000"> </text>
</a>
</g>
</a>
</g>
</g>
<!-- c3054018&#45;&gt;c3054016 -->
<g id="edge11" class="edge">
<title>c3054018&#45;&gt;c3054016</title>
<path fill="none" stroke="#000000" d="M326.5915,-737.5528C352.227,-734.4302 389.7657,-728.3965 421,-717.5 533.6367,-678.2053 558.5048,-657.3165 658,-591.5 664.993,-586.8741 672.2103,-581.3869 678.7445,-576.1085"/>
<polygon fill="#000000" stroke="#000000" points="686.5875,-569.615 681.7547,-579.4585 682.7362,-572.8036 678.8849,-575.9923 678.8849,-575.9923 678.8849,-575.9923 682.7362,-572.8036 676.0151,-572.5262 686.5875,-569.615 686.5875,-569.615"/>
<text text-anchor="middle" x="500.5" y="-692.9" font-family="Roboto" font-size="7.00" fill="#000000">create</text>
</g>
<!-- c3054018&#45;&gt;c3054017 -->
<g id="edge12" class="edge">
<title>c3054018&#45;&gt;c3054017</title>
<path fill="none" stroke="#000000" d="M326.6863,-738.3171C346.5989,-735.5686 372.3518,-729.3851 391,-715.5 411.4814,-700.25 412.2494,-690.4891 421,-666.5 434.5801,-629.2712 447.7889,-513.2685 453.0791,-462.5936"/>
<polygon fill="#000000" stroke="#000000" points="454.1128,-452.5508 457.5652,-462.959 453.6008,-457.5245 453.0888,-462.4983 453.0888,-462.4983 453.0888,-462.4983 453.6008,-457.5245 448.6125,-462.0375 454.1128,-452.5508 454.1128,-452.5508"/>
<text text-anchor="middle" x="410.5" y="-709.9" font-family="Roboto" font-size="7.00" fill="#000000">create</text>
</g>
<!-- c3054019&#45;&gt;c3054016 -->
<g id="edge7" class="edge">
<title>c3054019&#45;&gt;c3054016</title>
<path fill="none" stroke="#000000" stroke-dasharray="5,2" d="M627.9212,-555.5C644.1361,-555.5 662.5123,-555.5 676.9665,-555.5"/>
<polygon fill="none" stroke="#000000" points="627.6409,-552.0001 617.6408,-555.5 627.6408,-559.0001 627.6409,-552.0001"/>
</g>
<!-- c3054026&#45;&gt;c3054016 -->
<g id="edge8" class="edge">
<title>c3054026&#45;&gt;c3054016</title>
<path fill="none" stroke="#000000" stroke-dasharray="5,2" d="M624.6868,-483.2858C636.0132,-486.2739 648.1434,-490.7678 658,-497.5 674.559,-508.8101 687.629,-528.2527 695.209,-541.481"/>
<polygon fill="none" stroke="#000000" points="625.1318,-479.7961 614.5993,-480.9439 623.5487,-486.6148 625.1318,-479.7961"/>
</g>
<!-- c3054046 -->
<g id="node23" class="node">
<title>c3054046</title>
<g id="a_node23"><a xlink:href="DBIDUtil.html" xlink:title="&lt;TABLE&gt;">
<g id="a_node23_23"><a xlink:href="DBIDUtil.html" xlink:title="de.lmu.ifi.dbs.elki.database.ids.DBIDUtil" target="_parent">
<polygon fill="#fffacd" stroke="transparent" points="68,-732 68,-749 115,-749 115,-732 68,-732"/>
<polygon fill="none" stroke="#000000" points="68.5,-731.5 68.5,-748.5 115.5,-748.5 115.5,-731.5 68.5,-731.5"/>
<text text-anchor="start" x="72.5" y="-739.1" font-family="Roboto" font-size="8.00" fill="#000000"> </text>
<text text-anchor="start" x="75.5" y="-739.1" font-family="Roboto" font-size="8.00" fill="#000000">DBIDUtil</text>
<text text-anchor="start" x="108.5" y="-739.1" font-family="Roboto" font-size="8.00" fill="#000000"> </text>
</a>
</g>
</a>
</g>
</g>
<!-- c3054046&#45;&gt;c3054017 -->
<g id="edge19" class="edge">
<title>c3054046&#45;&gt;c3054017</title>
<path fill="none" stroke="#000000" d="M104.8568,-722.3338C123.602,-698.377 160.1454,-656.9844 202,-637.5 278.7144,-601.7874 320.0217,-660.5715 391,-614.5 419.4567,-596.0289 444.3452,-490.8987 452.6014,-452.5215"/>
<polygon fill="none" stroke="#000000" points="104.7961,-722.4139 104.3551,-729.6116 97.5415,-731.9728 97.9825,-724.7752 104.7961,-722.4139"/>
</g>
<!-- c3054046&#45;&gt;c3054018 -->
<g id="edge18" class="edge">
<title>c3054046&#45;&gt;c3054018</title>
<path fill="none" stroke="#000000" d="M127.1625,-740.5C166.5422,-740.5 229.2591,-740.5 266.3032,-740.5"/>
<polygon fill="#000000" stroke="#000000" points="127.0161,-740.5001 121.0161,-744.5 115.0161,-740.5 121.0161,-736.5 127.0161,-740.5001"/>
</g>
<!-- c3054048 -->
<g id="node24" class="node">
<title>c3054048</title>
<g id="a_node24"><a xlink:href="../datastore/DataStoreEvent.html" xlink:title="&lt;TABLE&gt;">
<g id="a_node24_24"><a xlink:href="../datastore/DataStoreEvent.html" xlink:title="de.lmu.ifi.dbs.elki.database.datastore.DataStoreEvent" target="_parent">
<polygon fill="none" stroke="#000000" points="230.5,-128.5 230.5,-156.5 363.5,-156.5 363.5,-128.5 230.5,-128.5"/>
<text text-anchor="start" x="267" y="-147.1" font-family="Roboto" font-size="8.00" fill="#000000"> </text>
<text text-anchor="start" x="270" y="-147.1" font-family="Roboto" font-size="8.00" fill="#000000">DataStoreEvent</text>
<text text-anchor="start" x="324" y="-147.1" font-family="Roboto" font-size="8.00" fill="#000000"> </text>
<text text-anchor="start" x="234.5" y="-136.1" font-family="Roboto" font-size="8.00" fill="#000000"> </text>
<text text-anchor="start" x="237.5" y="-136.1" font-family="Roboto" font-size="7.00" fill="#000000">de.lmu.ifi.dbs.elki.database.datastore</text>
<text text-anchor="start" x="356.5" y="-136.1" font-family="Roboto" font-size="8.00" fill="#000000"> </text>
</a>
</g>
</a>
</g>
</g>
<!-- c3054048&#45;&gt;c3054017 -->
<g id="edge31" class="edge">
<title>c3054048&#45;&gt;c3054017</title>
<path fill="none" stroke="#000000" d="M363.1431,-149.1021C372.9941,-151.9612 382.6311,-155.9522 391,-161.5 410.7275,-174.5775 412.3813,-183.4565 421,-205.5 435.7744,-243.2877 448.3737,-362.4941 453.2926,-414.1899"/>
<polygon fill="#000000" stroke="#000000" points="454.2492,-424.4202 448.8377,-414.8826 453.7836,-419.4419 453.3181,-414.4636 453.3181,-414.4636 453.3181,-414.4636 453.7836,-419.4419 457.7986,-414.0446 454.2492,-424.4202 454.2492,-424.4202"/>
</g>
<!-- c3054635 -->
<g id="node26" class="node">
<title>c3054635</title>
<g id="a_node26"><a xlink:href="../../parallel/SingleThreadedExecutor.SingleThreadedRunner.html" xlink:title="&lt;TABLE&gt;">
<g id="a_node26_25"><a xlink:href="../../parallel/SingleThreadedExecutor.SingleThreadedRunner.html" xlink:title="de.lmu.ifi.dbs.elki.parallel.SingleThreadedExecutor.SingleThreadedRunner" target="_parent">
<polygon fill="none" stroke="#000000" points="205.5,-89.5 205.5,-117.5 387.5,-117.5 387.5,-89.5 205.5,-89.5"/>
<text text-anchor="start" x="209.5" y="-108.1" font-family="Roboto" font-size="8.00" fill="#000000"> </text>
<text text-anchor="start" x="212.5" y="-108.1" font-family="Roboto" font-size="8.00" fill="#000000">SingleThreadedExecutor.SingleThreadedRunner</text>
<text text-anchor="start" x="380.5" y="-108.1" font-family="Roboto" font-size="8.00" fill="#000000"> </text>
<text text-anchor="start" x="251.5" y="-97.1" font-family="Roboto" font-size="8.00" fill="#000000"> </text>
<text text-anchor="start" x="254.5" y="-97.1" font-family="Roboto" font-size="7.00" fill="#000000">de.lmu.ifi.dbs.elki.parallel</text>
<text text-anchor="start" x="338.5" y="-97.1" font-family="Roboto" font-size="8.00" fill="#000000"> </text>
</a>
</g>
</a>
</g>
</g>
<!-- c3054635&#45;&gt;c3054017 -->
<g id="edge32" class="edge">
<title>c3054635&#45;&gt;c3054017</title>
<path fill="none" stroke="#000000" d="M382.7015,-117.6844C385.5725,-119.1425 388.3498,-120.7432 391,-122.5 410.7275,-135.5775 412.6115,-144.3679 421,-166.5 438.117,-211.6609 449.7748,-356.1288 453.8732,-414.0944"/>
<polygon fill="#000000" stroke="#000000" points="454.5708,-424.1742 449.391,-414.5088 454.2256,-419.1861 453.8803,-414.198 453.8803,-414.198 453.8803,-414.198 454.2256,-419.1861 458.3695,-413.8873 454.5708,-424.1742 454.5708,-424.1742"/>
</g>
<!-- c3054942 -->
<g id="node27" class="node">
<title>c3054942</title>
<g id="a_node27"><a xlink:href="../relation/DBIDView.html" xlink:title="&lt;TABLE&gt;">
<g id="a_node27_26"><a xlink:href="../relation/DBIDView.html" xlink:title="de.lmu.ifi.dbs.elki.database.relation.DBIDView" target="_parent">
<polygon fill="none" stroke="#000000" points="232.5,-50.5 232.5,-78.5 361.5,-78.5 361.5,-50.5 232.5,-50.5"/>
<text text-anchor="start" x="275.5" y="-69.1" font-family="Roboto" font-size="8.00" fill="#000000"> </text>
<text text-anchor="start" x="278.5" y="-69.1" font-family="Roboto" font-size="8.00" fill="#000000">DBIDView</text>
<text text-anchor="start" x="315.5" y="-69.1" font-family="Roboto" font-size="8.00" fill="#000000"> </text>
<text text-anchor="start" x="236.5" y="-58.1" font-family="Roboto" font-size="8.00" fill="#000000"> </text>
<text text-anchor="start" x="239.5" y="-58.1" font-family="Roboto" font-size="7.00" fill="#000000">de.lmu.ifi.dbs.elki.database.relation</text>
<text text-anchor="start" x="354.5" y="-58.1" font-family="Roboto" font-size="8.00" fill="#000000"> </text>
</a>
</g>
</a>
</g>
</g>
<!-- c3054942&#45;&gt;c3054017 -->
<g id="edge33" class="edge">
<title>c3054942&#45;&gt;c3054017</title>
<path fill="none" stroke="#000000" d="M361.1704,-70.5452C371.7035,-73.436 382.0732,-77.5823 391,-83.5 410.7275,-96.5775 412.7853,-105.3028 421,-127.5 440.4764,-180.1275 450.9862,-350.3584 454.3173,-414.1026"/>
<polygon fill="#000000" stroke="#000000" points="454.8401,-424.3843 449.838,-414.6257 454.5862,-419.3907 454.3322,-414.3972 454.3322,-414.3972 454.3322,-414.3972 454.5862,-419.3907 458.8264,-414.1686 454.8401,-424.3843 454.8401,-424.3843"/>
</g>
<!-- c3054945 -->
<g id="node28" class="node">
<title>c3054945</title>
<g id="a_node28"><a xlink:href="../relation/ProxyView.html" xlink:title="&lt;TABLE&gt;">
<g id="a_node28_27"><a xlink:href="../relation/ProxyView.html" xlink:title="de.lmu.ifi.dbs.elki.database.relation.ProxyView" target="_parent">
<polygon fill="none" stroke="#000000" points="232.5,-681.5 232.5,-709.5 361.5,-709.5 361.5,-681.5 232.5,-681.5"/>
<text text-anchor="start" x="275.5" y="-700.1" font-family="Roboto" font-size="8.00" fill="#000000"> </text>
<text text-anchor="start" x="278.5" y="-700.1" font-family="Roboto" font-size="8.00" fill="#000000">ProxyView</text>
<text text-anchor="start" x="315.5" y="-700.1" font-family="Roboto" font-size="8.00" fill="#000000"> </text>
<text text-anchor="start" x="236.5" y="-689.1" font-family="Roboto" font-size="8.00" fill="#000000"> </text>
<text text-anchor="start" x="239.5" y="-689.1" font-family="Roboto" font-size="7.00" fill="#000000">de.lmu.ifi.dbs.elki.database.relation</text>
<text text-anchor="start" x="354.5" y="-689.1" font-family="Roboto" font-size="8.00" fill="#000000"> </text>
</a>
</g>
</a>
</g>
</g>
<!-- c3054945&#45;&gt;c3054017 -->
<g id="edge34" class="edge">
<title>c3054945&#45;&gt;c3054017</title>
<path fill="none" stroke="#000000" d="M361.2399,-688.2268C385.185,-681.7729 409.3273,-669.7595 421,-647.5 437.6767,-615.698 448.9866,-510.7923 453.413,-462.823"/>
<polygon fill="#000000" stroke="#000000" points="454.3214,-452.7112 457.9086,-463.0737 453.874,-457.6911 453.4266,-462.671 453.4266,-462.671 453.4266,-462.671 453.874,-457.6911 448.9447,-462.2684 454.3214,-452.7112 454.3214,-452.7112"/>
</g>
<!-- c3055212 -->
<g id="node29" class="node">
<title>c3055212</title>
<g id="a_node29"><a xlink:href="../../index/preprocessed/knn/KNNChangeEvent.html" xlink:title="&lt;TABLE&gt;">
<g id="a_node29_28"><a xlink:href="../../index/preprocessed/knn/KNNChangeEvent.html" xlink:title="de.lmu.ifi.dbs.elki.index.preprocessed.knn.KNNChangeEvent" target="_parent">
<polygon fill="none" stroke="#000000" points="221.5,-580.5 221.5,-608.5 371.5,-608.5 371.5,-580.5 221.5,-580.5"/>
<text text-anchor="start" x="261.5" y="-599.1" font-family="Roboto" font-size="8.00" fill="#000000"> </text>
<text text-anchor="start" x="264.5" y="-599.1" font-family="Roboto" font-size="8.00" fill="#000000">KNNChangeEvent</text>
<text text-anchor="start" x="328.5" y="-599.1" font-family="Roboto" font-size="8.00" fill="#000000"> </text>
<text text-anchor="start" x="225.5" y="-588.1" font-family="Roboto" font-size="8.00" fill="#000000"> </text>
<text text-anchor="start" x="228.5" y="-588.1" font-family="Roboto" font-size="7.00" fill="#000000">de.lmu.ifi.dbs.elki.index.preprocessed.knn</text>
<text text-anchor="start" x="364.5" y="-588.1" font-family="Roboto" font-size="8.00" fill="#000000"> </text>
</a>
</g>
</a>
</g>
</g>
<!-- c3055212&#45;&gt;c3054017 -->
<g id="edge21" class="edge">
<title>c3055212&#45;&gt;c3054017</title>
<path fill="none" stroke="#000000" d="M382.9192,-580.4664C385.7228,-578.9655 388.4275,-577.3148 391,-575.5 433.1033,-545.797 448.5446,-481.2698 453.47,-452.6544"/>
<polygon fill="none" stroke="#000000" points="382.6208,-580.6012 378.8005,-586.7172 371.6856,-585.5431 375.5059,-579.4271 382.6208,-580.6012"/>
</g>
</g>
</svg>
