<?xml version="1.0" encoding="UTF-8" standalone="no"?>
<!DOCTYPE svg PUBLIC "-//W3C//DTD SVG 1.1//EN"
 "http://www.w3.org/Graphics/SVG/1.1/DTD/svg11.dtd">
<!-- Generated by graphviz version 2.40.1 (20161225.0304)
 -->
<!-- Title: G Pages: 1 -->
<svg width="348pt" height="90pt"
 viewBox="0.00 0.00 348.00 90.23" xmlns="http://www.w3.org/2000/svg" xmlns:xlink="http://www.w3.org/1999/xlink">
<g id="graph0" class="graph" transform="scale(1 1) rotate(0) translate(4 86.2308)">
<title>G</title>
<polygon fill="#ffffff" stroke="transparent" points="-4,4 -4,-86.2308 344,-86.2308 344,4 -4,4"/>
<!-- c5854863 -->
<g id="node1" class="node">
<title>c5854863</title>
<g id="a_node1"><a xlink:href="DoubleDBIDPair.html" xlink:title="&lt;TABLE&gt;">
<g id="a_node1_0"><a xlink:href="DoubleDBIDPair.html" xlink:title="de.lmu.ifi.dbs.elki.database.ids.DoubleDBIDPair" target="_parent">
<polygon fill="none" stroke="#000000" points="267.5,-54 267.5,-82 340.5,-82 340.5,-54 267.5,-54"/>
<text text-anchor="start" x="282.5" y="-71.6" font-family="Roboto" font-size="8.00" fill="#000000"> «interface» </text>
<text text-anchor="start" x="271.5" y="-61.6" font-family="Roboto" font-size="8.00" fill="#000000"> </text>
<text text-anchor="start" x="274.5" y="-61.6" font-family="Roboto" font-size="8.00" fill="#000000">DoubleDBIDPair</text>
<text text-anchor="start" x="333.5" y="-61.6" font-family="Roboto" font-size="8.00" fill="#000000"> </text>
</a>
</g>
</a>
</g>
</g>
<!-- c5854864 -->
<g id="node2" class="node">
<title>c5854864</title>
<g id="a_node2"><a xlink:href="KNNList.html" xlink:title="&lt;TABLE&gt;">
<g id="a_node2_1"><a xlink:href="KNNList.html" xlink:title="de.lmu.ifi.dbs.elki.database.ids.KNNList" target="_parent">
<polygon fill="#fffacd" stroke="transparent" points="153.5,-39 153.5,-67 204.5,-67 204.5,-39 153.5,-39"/>
<polygon fill="none" stroke="#000000" points="154,-39 154,-67 205,-67 205,-39 154,-39"/>
<text text-anchor="start" x="158" y="-56.6" font-family="Roboto" font-size="8.00" fill="#000000"> «interface» </text>
<text text-anchor="start" x="161" y="-46.6" font-family="Roboto" font-size="8.00" fill="#000000"> </text>
<text text-anchor="start" x="164" y="-46.6" font-family="Roboto" font-size="8.00" fill="#000000">KNNList</text>
<text text-anchor="start" x="195" y="-46.6" font-family="Roboto" font-size="8.00" fill="#000000"> </text>
</a>
</g>
</a>
</g>
</g>
<!-- c5854864&#45;&gt;c5854863 -->
<g id="edge1" class="edge">
<title>c5854864&#45;&gt;c5854863</title>
<path fill="none" stroke="#000000" d="M216.8893,-57.565C232.7615,-59.4773 251.1425,-61.6919 266.877,-63.5876"/>
<polygon fill="#000000" stroke="#000000" points="216.7103,-57.5435 210.2749,-60.797 204.7965,-56.108 211.2319,-52.8545 216.7103,-57.5435"/>
</g>
<!-- c5854868 -->
<g id="node3" class="node">
<title>c5854868</title>
<g id="a_node3"><a xlink:href="KNNHeap.html" xlink:title="&lt;TABLE&gt;">
<g id="a_node3_2"><a xlink:href="KNNHeap.html" xlink:title="de.lmu.ifi.dbs.elki.database.ids.KNNHeap" target="_parent">
<polygon fill="#fffacd" stroke="transparent" points="0,0 0,-28 51,-28 51,0 0,0"/>
<polygon fill="none" stroke="#000000" points=".5,0 .5,-28 51.5,-28 51.5,0 .5,0"/>
<text text-anchor="start" x="4.5" y="-17.6" font-family="Roboto" font-size="8.00" fill="#000000"> «interface» </text>
<text text-anchor="start" x="4.5" y="-7.6" font-family="Roboto" font-size="8.00" fill="#000000"> </text>
<text text-anchor="start" x="7.5" y="-7.6" font-family="Roboto" font-size="8.00" fill="#000000">KNNHeap</text>
<text text-anchor="start" x="44.5" y="-7.6" font-family="Roboto" font-size="8.00" fill="#000000"> </text>
</a>
</g>
</a>
</g>
</g>
<!-- c5854868&#45;&gt;c5854863 -->
<g id="edge2" class="edge">
<title>c5854868&#45;&gt;c5854863</title>
<path fill="none" stroke="#000000" d="M48.1128,-36.2614C63.9561,-50.1059 86.439,-66.474 110,-73 162.9505,-87.6664 227.194,-81.5593 266.7068,-75.2311"/>
<polygon fill="#000000" stroke="#000000" points="48.0151,-36.1721 40.8874,-35.0781 39.1559,-28.078 46.2835,-29.172 48.0151,-36.1721"/>
</g>
<!-- c5854868&#45;&gt;c5854864 -->
<g id="edge3" class="edge">
<title>c5854868&#45;&gt;c5854864</title>
<path fill="none" stroke="#000000" d="M51.1924,-20.5277C79.613,-27.7486 125.1283,-39.3127 153.4796,-46.516"/>
<text text-anchor="middle" x="80.5" y="-35.4" font-family="Roboto" font-size="7.00" fill="#000000">serializes to</text>
</g>
<!-- c5854963 -->
<g id="node4" class="node">
<title>c5854963</title>
<g id="a_node4"><a xlink:href="integer/DoubleIntegerDBIDKNNHeap.html" xlink:title="&lt;TABLE&gt;">
<g id="a_node4_3"><a xlink:href="integer/DoubleIntegerDBIDKNNHeap.html" xlink:title="de.lmu.ifi.dbs.elki.database.ids.integer.DoubleIntegerDBIDKNNHeap" target="_parent">
<polygon fill="none" stroke="#000000" points="110,0 110,-28 248,-28 248,0 110,0"/>
<text text-anchor="start" x="123.5" y="-18.6" font-family="Roboto" font-size="8.00" fill="#000000"> </text>
<text text-anchor="start" x="126.5" y="-18.6" font-family="Roboto" font-size="8.00" fill="#000000">DoubleIntegerDBIDKNNHeap</text>
<text text-anchor="start" x="231.5" y="-18.6" font-family="Roboto" font-size="8.00" fill="#000000"> </text>
<text text-anchor="start" x="114" y="-7.6" font-family="Roboto" font-size="8.00" fill="#000000"> </text>
<text text-anchor="start" x="117" y="-7.6" font-family="Roboto" font-size="7.00" fill="#000000">de.lmu.ifi.dbs.elki.database.ids.integer</text>
<text text-anchor="start" x="241" y="-7.6" font-family="Roboto" font-size="8.00" fill="#000000"> </text>
</a>
</g>
</a>
</g>
</g>
<!-- c5854868&#45;&gt;c5854963 -->
<g id="edge4" class="edge">
<title>c5854868&#45;&gt;c5854963</title>
<path fill="none" stroke="#000000" stroke-dasharray="5,2" d="M61.2275,-14C75.7463,-14 93.0386,-14 109.8409,-14"/>
<polygon fill="none" stroke="#000000" points="61.1925,-10.5001 51.1924,-14 61.1924,-17.5001 61.1925,-10.5001"/>
</g>
</g>
</svg>
