<?xml version="1.0" encoding="UTF-8" standalone="no"?>
<!DOCTYPE svg PUBLIC "-//W3C//DTD SVG 1.1//EN"
 "http://www.w3.org/Graphics/SVG/1.1/DTD/svg11.dtd">
<!-- Generated by graphviz version 2.40.1 (20161225.0304)
 -->
<!-- Title: G Pages: 1 -->
<svg width="561pt" height="214pt"
 viewBox="0.00 0.00 561.00 213.50" xmlns="http://www.w3.org/2000/svg" xmlns:xlink="http://www.w3.org/1999/xlink">
<g id="graph0" class="graph" transform="scale(1 1) rotate(0) translate(4 209.5)">
<title>G</title>
<polygon fill="#ffffff" stroke="transparent" points="-4,4 -4,-209.5 557,-209.5 557,4 -4,4"/>
<!-- c5889855 -->
<g id="node1" class="node">
<title>c5889855</title>
<g id="a_node1"><a xlink:href="../query/knn/KNNQuery.html" xlink:title="&lt;TABLE&gt;">
<g id="a_node1_0"><a xlink:href="../query/knn/KNNQuery.html" xlink:title="de.lmu.ifi.dbs.elki.database.query.knn.KNNQuery" target="_parent">
<polygon fill="#fffacd" stroke="transparent" points="151,-88 151,-127 286,-127 286,-88 151,-88"/>
<polygon fill="none" stroke="#000000" points="151.5,-87.5 151.5,-126.5 286.5,-126.5 286.5,-87.5 151.5,-87.5"/>
<text text-anchor="start" x="197.5" y="-116.1" font-family="Roboto" font-size="8.00" fill="#000000"> «interface» </text>
<text text-anchor="start" x="196.5" y="-106.1" font-family="Roboto" font-size="8.00" fill="#000000"> </text>
<text text-anchor="start" x="199.5" y="-106.1" font-family="Roboto" font-size="8.00" fill="#000000">KNNQuery</text>
<text text-anchor="start" x="238.5" y="-106.1" font-family="Roboto" font-size="8.00" fill="#000000"> </text>
<text text-anchor="start" x="155.5" y="-95.1" font-family="Roboto" font-size="8.00" fill="#000000"> </text>
<text text-anchor="start" x="158.5" y="-95.1" font-family="Roboto" font-size="7.00" fill="#000000">de.lmu.ifi.dbs.elki.database.query.knn</text>
<text text-anchor="start" x="279.5" y="-95.1" font-family="Roboto" font-size="8.00" fill="#000000"> </text>
</a>
</g>
</a>
</g>
</g>
<!-- c5890034 -->
<g id="node4" class="node">
<title>c5890034</title>
<g id="a_node4"><a xlink:href="KNNList.html" xlink:title="&lt;TABLE&gt;">
<g id="a_node4_1"><a xlink:href="KNNList.html" xlink:title="de.lmu.ifi.dbs.elki.database.ids.KNNList" target="_parent">
<polygon fill="#fffacd" stroke="transparent" points="345,-53.5 345,-81.5 396,-81.5 396,-53.5 345,-53.5"/>
<polygon fill="none" stroke="#000000" points="345.5,-53.5 345.5,-81.5 396.5,-81.5 396.5,-53.5 345.5,-53.5"/>
<text text-anchor="start" x="349.5" y="-71.1" font-family="Roboto" font-size="8.00" fill="#000000"> «interface» </text>
<text text-anchor="start" x="352.5" y="-61.1" font-family="Roboto" font-size="8.00" fill="#000000"> </text>
<text text-anchor="start" x="355.5" y="-61.1" font-family="Roboto" font-size="8.00" fill="#000000">KNNList</text>
<text text-anchor="start" x="386.5" y="-61.1" font-family="Roboto" font-size="8.00" fill="#000000"> </text>
</a>
</g>
</a>
</g>
</g>
<!-- c5889855&#45;&gt;c5890034 -->
<g id="edge1" class="edge">
<title>c5889855&#45;&gt;c5890034</title>
<path fill="none" stroke="#000000" d="M297.7794,-88.6985C308.4926,-85.9742 319.4026,-83.1074 335.1027,-78.6672"/>
<polygon fill="none" stroke="#000000" points="297.7577,-88.7039 292.9136,-94.0457 286.1196,-91.6288 290.9637,-86.287 297.7577,-88.7039"/>
<polygon fill="#000000" stroke="#000000" points="344.935,-75.8602 336.5546,-82.9326 340.1271,-77.2329 335.3192,-78.6055 335.3192,-78.6055 335.3192,-78.6055 340.1271,-77.2329 334.0838,-74.2784 344.935,-75.8602 344.935,-75.8602"/>
<text text-anchor="middle" x="315.5" y="-91.9" font-family="Roboto" font-size="7.00" fill="#000000">create</text>
</g>
<!-- c5890028 -->
<g id="node2" class="node">
<title>c5890028</title>
<g id="a_node2"><a xlink:href="DoubleDBIDList.html" xlink:title="&lt;TABLE&gt;">
<g id="a_node2_2"><a xlink:href="DoubleDBIDList.html" xlink:title="de.lmu.ifi.dbs.elki.database.ids.DoubleDBIDList" target="_parent">
<polygon fill="#fffacd" stroke="transparent" points="182.5,-25.5 182.5,-53.5 254.5,-53.5 254.5,-25.5 182.5,-25.5"/>
<polygon fill="none" stroke="#000000" points="182.5,-25.5 182.5,-53.5 254.5,-53.5 254.5,-25.5 182.5,-25.5"/>
<text text-anchor="start" x="197" y="-43.1" font-family="Roboto" font-size="8.00" fill="#000000"> «interface» </text>
<text text-anchor="start" x="186.5" y="-33.1" font-family="Roboto" font-size="8.00" fill="#000000"> </text>
<text text-anchor="start" x="189.5" y="-33.1" font-family="Roboto" font-size="8.00" fill="#000000">DoubleDBIDList</text>
<text text-anchor="start" x="247.5" y="-33.1" font-family="Roboto" font-size="8.00" fill="#000000"> </text>
</a>
</g>
</a>
</g>
</g>
<!-- c5890033 -->
<g id="node3" class="node">
<title>c5890033</title>
<g id="a_node3"><a xlink:href="DoubleDBIDPair.html" xlink:title="&lt;TABLE&gt;">
<g id="a_node3_3"><a xlink:href="DoubleDBIDPair.html" xlink:title="de.lmu.ifi.dbs.elki.database.ids.DoubleDBIDPair" target="_parent">
<polygon fill="none" stroke="#000000" points="448,-53.5 448,-81.5 521,-81.5 521,-53.5 448,-53.5"/>
<text text-anchor="start" x="463" y="-71.1" font-family="Roboto" font-size="8.00" fill="#000000"> «interface» </text>
<text text-anchor="start" x="452" y="-61.1" font-family="Roboto" font-size="8.00" fill="#000000"> </text>
<text text-anchor="start" x="455" y="-61.1" font-family="Roboto" font-size="8.00" fill="#000000">DoubleDBIDPair</text>
<text text-anchor="start" x="514" y="-61.1" font-family="Roboto" font-size="8.00" fill="#000000"> </text>
</a>
</g>
</a>
</g>
</g>
<!-- c5890028&#45;&gt;c5890033 -->
<g id="edge2" class="edge">
<title>c5890028&#45;&gt;c5890033</title>
<path fill="none" stroke="#000000" d="M266.7489,-39.356C302.5642,-39.8107 352.5206,-41.6272 396,-47.5 413.079,-49.8069 431.7283,-53.8239 447.4451,-57.6555"/>
<polygon fill="#000000" stroke="#000000" points="266.7037,-39.3557 260.6679,-43.3015 254.7042,-39.2476 260.74,-35.3018 266.7037,-39.3557"/>
</g>
<!-- c5890028&#45;&gt;c5890034 -->
<g id="edge3" class="edge">
<title>c5890028&#45;&gt;c5890034</title>
<path fill="none" stroke="#000000" stroke-dasharray="5,2" d="M264.6474,-48.0008C290.9168,-52.8399 322.844,-58.7213 344.7206,-62.7512"/>
<polygon fill="none" stroke="#000000" points="264.9905,-44.5052 254.5219,-46.1356 263.7223,-51.3894 264.9905,-44.5052"/>
</g>
<!-- c5890034&#45;&gt;c5890033 -->
<g id="edge4" class="edge">
<title>c5890034&#45;&gt;c5890033</title>
<path fill="none" stroke="#000000" d="M408.609,-67.5C421.0424,-67.5 434.8186,-67.5 447.1572,-67.5"/>
<polygon fill="#000000" stroke="#000000" points="408.2549,-67.5001 402.2549,-71.5 396.2549,-67.5 402.2549,-63.5 408.2549,-67.5001"/>
</g>
<!-- c5890105 -->
<g id="node6" class="node">
<title>c5890105</title>
<g id="a_node6"><a xlink:href="integer/IntegerDBIDKNNList.html" xlink:title="&lt;TABLE&gt;">
<g id="a_node6_4"><a xlink:href="integer/IntegerDBIDKNNList.html" xlink:title="de.lmu.ifi.dbs.elki.database.ids.integer.IntegerDBIDKNNList" target="_parent">
<polygon fill="none" stroke="#000000" points="415,.5 415,-38.5 553,-38.5 553,.5 415,.5"/>
<text text-anchor="start" x="462.5" y="-28.1" font-family="Roboto" font-size="8.00" fill="#000000"> «interface» </text>
<text text-anchor="start" x="444" y="-18.1" font-family="Roboto" font-size="8.00" fill="#000000"> </text>
<text text-anchor="start" x="447" y="-18.1" font-family="Roboto" font-size="8.00" fill="#000000">IntegerDBIDKNNList</text>
<text text-anchor="start" x="521" y="-18.1" font-family="Roboto" font-size="8.00" fill="#000000"> </text>
<text text-anchor="start" x="419" y="-7.1" font-family="Roboto" font-size="8.00" fill="#000000"> </text>
<text text-anchor="start" x="422" y="-7.1" font-family="Roboto" font-size="7.00" fill="#000000">de.lmu.ifi.dbs.elki.database.ids.integer</text>
<text text-anchor="start" x="546" y="-7.1" font-family="Roboto" font-size="8.00" fill="#000000"> </text>
</a>
</g>
</a>
</g>
</g>
<!-- c5890034&#45;&gt;c5890105 -->
<g id="edge7" class="edge">
<title>c5890034&#45;&gt;c5890105</title>
<path fill="none" stroke="#000000" stroke-dasharray="5,2" d="M405.6688,-51.5498C408.8177,-50.1653 411.9625,-48.7984 415,-47.5 421.5381,-44.7053 428.4518,-41.8191 435.2778,-39.0096"/>
<polygon fill="none" stroke="#000000" points="404.0316,-48.4472 396.313,-55.7049 406.8729,-54.8447 404.0316,-48.4472"/>
</g>
<!-- c5890038 -->
<g id="node5" class="node">
<title>c5890038</title>
<g id="a_node5"><a xlink:href="KNNHeap.html" xlink:title="&lt;TABLE&gt;">
<g id="a_node5_5"><a xlink:href="KNNHeap.html" xlink:title="de.lmu.ifi.dbs.elki.database.ids.KNNHeap" target="_parent">
<polygon fill="#fffacd" stroke="transparent" points="193,-177.5 193,-205.5 244,-205.5 244,-177.5 193,-177.5"/>
<polygon fill="none" stroke="#000000" points="193.5,-177.5 193.5,-205.5 244.5,-205.5 244.5,-177.5 193.5,-177.5"/>
<text text-anchor="start" x="197.5" y="-195.1" font-family="Roboto" font-size="8.00" fill="#000000"> «interface» </text>
<text text-anchor="start" x="197.5" y="-185.1" font-family="Roboto" font-size="8.00" fill="#000000"> </text>
<text text-anchor="start" x="200.5" y="-185.1" font-family="Roboto" font-size="8.00" fill="#000000">KNNHeap</text>
<text text-anchor="start" x="237.5" y="-185.1" font-family="Roboto" font-size="8.00" fill="#000000"> </text>
</a>
</g>
</a>
</g>
</g>
<!-- c5890038&#45;&gt;c5890033 -->
<g id="edge5" class="edge">
<title>c5890038&#45;&gt;c5890033</title>
<path fill="none" stroke="#000000" d="M256.1809,-191.483C279.848,-190.3236 310.5932,-186.6739 336,-176.5 391.6933,-154.1983 445.4044,-105.8678 470.009,-81.7657"/>
<polygon fill="#000000" stroke="#000000" points="256.1714,-191.4832 250.3105,-195.6844 244.1783,-191.8901 250.0392,-187.689 256.1714,-191.4832"/>
</g>
<!-- c5890038&#45;&gt;c5890034 -->
<g id="edge6" class="edge">
<title>c5890038&#45;&gt;c5890034</title>
<path fill="none" stroke="#000000" d="M244.118,-187.5551C257.2927,-184.7403 273.2217,-180.0704 286,-172.5 323.4444,-150.3166 351.0843,-104.9397 363.4003,-81.7828"/>
<text text-anchor="middle" x="315.5" y="-168.9" font-family="Roboto" font-size="7.00" fill="#000000">serializes to</text>
</g>
<!-- c5890640 -->
<g id="node7" class="node">
<title>c5890640</title>
<g id="a_node7"><a xlink:href="../../parallel/processor/KNNProcessor.html" xlink:title="&lt;TABLE&gt;">
<g id="a_node7_6"><a xlink:href="../../parallel/processor/KNNProcessor.html" xlink:title="de.lmu.ifi.dbs.elki.parallel.processor.KNNProcessor" target="_parent">
<polygon fill="none" stroke="#000000" points="0,-56.5 0,-84.5 132,-84.5 132,-56.5 0,-56.5"/>
<text text-anchor="start" x="37.5" y="-75.1" font-family="Roboto" font-size="8.00" fill="#000000"> </text>
<text text-anchor="start" x="40.5" y="-75.1" font-family="Roboto" font-size="8.00" fill="#000000">KNNProcessor</text>
<text text-anchor="start" x="91.5" y="-75.1" font-family="Roboto" font-size="8.00" fill="#000000"> </text>
<text text-anchor="start" x="4" y="-64.1" font-family="Roboto" font-size="8.00" fill="#000000"> </text>
<text text-anchor="start" x="7" y="-64.1" font-family="Roboto" font-size="7.00" fill="#000000">de.lmu.ifi.dbs.elki.parallel.processor</text>
<text text-anchor="start" x="125" y="-64.1" font-family="Roboto" font-size="8.00" fill="#000000"> </text>
</a>
</g>
</a>
</g>
</g>
<!-- c5890640&#45;&gt;c5889855 -->
<g id="edge9" class="edge">
<title>c5890640&#45;&gt;c5889855</title>
<path fill="none" stroke="#000000" d="M124.0887,-84.5937C132.8427,-86.7176 141.9358,-88.9238 150.869,-91.0912"/>
</g>
<!-- c5890640&#45;&gt;c5890034 -->
<g id="edge8" class="edge">
<title>c5890640&#45;&gt;c5890034</title>
<path fill="none" stroke="#000000" d="M144.1075,-69.7305C210.1912,-69.0794 300.9298,-68.1854 344.7498,-67.7537"/>
<polygon fill="none" stroke="#000000" points="144.0714,-69.7307 138.1111,-73.7897 132.072,-69.849 138.0322,-65.7901 144.0714,-69.7307"/>
</g>
<!-- c5890648 -->
<g id="node8" class="node">
<title>c5890648</title>
<g id="a_node8"><a xlink:href="../../parallel/processor/KDistanceProcessor.html" xlink:title="&lt;TABLE&gt;">
<g id="a_node8_7"><a xlink:href="../../parallel/processor/KDistanceProcessor.html" xlink:title="de.lmu.ifi.dbs.elki.parallel.processor.KDistanceProcessor" target="_parent">
<polygon fill="none" stroke="#000000" points="152.5,-138.5 152.5,-166.5 284.5,-166.5 284.5,-138.5 152.5,-138.5"/>
<text text-anchor="start" x="180.5" y="-157.1" font-family="Roboto" font-size="8.00" fill="#000000"> </text>
<text text-anchor="start" x="183.5" y="-157.1" font-family="Roboto" font-size="8.00" fill="#000000">KDistanceProcessor</text>
<text text-anchor="start" x="253.5" y="-157.1" font-family="Roboto" font-size="8.00" fill="#000000"> </text>
<text text-anchor="start" x="156.5" y="-146.1" font-family="Roboto" font-size="8.00" fill="#000000"> </text>
<text text-anchor="start" x="159.5" y="-146.1" font-family="Roboto" font-size="7.00" fill="#000000">de.lmu.ifi.dbs.elki.parallel.processor</text>
<text text-anchor="start" x="277.5" y="-146.1" font-family="Roboto" font-size="8.00" fill="#000000"> </text>
</a>
</g>
</a>
</g>
</g>
<!-- c5890648&#45;&gt;c5890034 -->
<g id="edge10" class="edge">
<title>c5890648&#45;&gt;c5890034</title>
<path fill="none" stroke="#000000" d="M271.3895,-138.4803C276.4026,-136.6606 281.3462,-134.6666 286,-132.5 310.1382,-121.2623 315.0575,-115.9423 336,-99.5 342.9397,-94.0516 350.1643,-87.5049 356.1983,-81.7564"/>
</g>
</g>
</svg>
