<?xml version="1.0" encoding="UTF-8" standalone="no"?>
<!DOCTYPE svg PUBLIC "-//W3C//DTD SVG 1.1//EN"
 "http://www.w3.org/Graphics/SVG/1.1/DTD/svg11.dtd">
<!-- Generated by graphviz version 2.40.1 (20161225.0304)
 -->
<!-- Title: G Pages: 1 -->
<svg width="622pt" height="311pt"
 viewBox="0.00 0.00 622.00 311.00" xmlns="http://www.w3.org/2000/svg" xmlns:xlink="http://www.w3.org/1999/xlink">
<g id="graph0" class="graph" transform="scale(1 1) rotate(0) translate(4 307)">
<title>G</title>
<polygon fill="#ffffff" stroke="transparent" points="-4,4 -4,-307 618,-307 618,4 -4,4"/>
<!-- c7129446 -->
<g id="node1" class="node">
<title>c7129446</title>
<g id="a_node1"><a xlink:href="../../algorithm/clustering/correlation/cash/CASHInterval.html" xlink:title="&lt;TABLE&gt;">
<g id="a_node1_0"><a xlink:href="../../algorithm/clustering/correlation/cash/CASHInterval.html" xlink:title="de.lmu.ifi.dbs.elki.algorithm.clustering.correlation.cash.CASHInterval" target="_parent">
<polygon fill="none" stroke="#000000" points="200,-257 200,-285 395,-285 395,-257 200,-257"/>
<text text-anchor="start" x="270.5" y="-275.6" font-family="Roboto" font-size="8.00" fill="#000000"> </text>
<text text-anchor="start" x="273.5" y="-275.6" font-family="Roboto" font-size="8.00" fill="#000000">CASHInterval</text>
<text text-anchor="start" x="321.5" y="-275.6" font-family="Roboto" font-size="8.00" fill="#000000"> </text>
<text text-anchor="start" x="204" y="-264.6" font-family="Roboto" font-size="8.00" fill="#000000"> </text>
<text text-anchor="start" x="207" y="-264.6" font-family="Roboto" font-size="7.00" fill="#000000">de.lmu.ifi.dbs.elki.algorithm.clustering.correlation.cash</text>
<text text-anchor="start" x="388" y="-264.6" font-family="Roboto" font-size="8.00" fill="#000000"> </text>
</a>
</g>
</a>
</g>
</g>
<!-- c7129446&#45;&gt;c7129446 -->
<g id="edge8" class="edge">
<title>c7129446&#45;&gt;c7129446</title>
<path fill="none" stroke="#000000" d="M268.0071,-285.1353C266.0076,-291.0155 275.6719,-296 297,-296 306.9976,-296 314.4323,-294.9048 319.3041,-293.1354"/>
<polygon fill="#000000" stroke="#000000" points="325.9929,-285.1353 323.0309,-295.6936 322.7858,-288.9712 319.5786,-292.8071 319.5786,-292.8071 319.5786,-292.8071 322.7858,-288.9712 316.1263,-289.9207 325.9929,-285.1353 325.9929,-285.1353"/>
</g>
<!-- c7130591 -->
<g id="node12" class="node">
<title>c7130591</title>
<g id="a_node12"><a xlink:href="ModifiableDBIDs.html" xlink:title="&lt;TABLE&gt;">
<g id="a_node12_1"><a xlink:href="ModifiableDBIDs.html" xlink:title="de.lmu.ifi.dbs.elki.database.ids.ModifiableDBIDs" target="_parent">
<polygon fill="#fffacd" stroke="transparent" points="416,-39 416,-67 491,-67 491,-39 416,-39"/>
<polygon fill="none" stroke="#000000" points="416.5,-39 416.5,-67 491.5,-67 491.5,-39 416.5,-39"/>
<text text-anchor="start" x="432.5" y="-56.6" font-family="Roboto" font-size="8.00" fill="#000000"> «interface» </text>
<text text-anchor="start" x="420.5" y="-46.6" font-family="Roboto" font-size="8.00" fill="#000000"> </text>
<text text-anchor="start" x="423.5" y="-46.6" font-family="Roboto" font-size="8.00" fill="#000000">ModifiableDBIDs</text>
<text text-anchor="start" x="484.5" y="-46.6" font-family="Roboto" font-size="8.00" fill="#000000"> </text>
</a>
</g>
</a>
</g>
</g>
<!-- c7129446&#45;&gt;c7130591 -->
<g id="edge7" class="edge">
<title>c7129446&#45;&gt;c7130591</title>
<path fill="none" stroke="#000000" d="M386.4074,-256.7328C390.5722,-254.2323 394.4762,-251.3406 398,-248 422.8835,-224.4105 442.0366,-123.7876 449.7696,-77.0434"/>
<polygon fill="#000000" stroke="#000000" points="451.3661,-67.1627 454.2133,-77.7525 450.5685,-72.0986 449.771,-77.0346 449.771,-77.0346 449.771,-77.0346 450.5685,-72.0986 445.3286,-76.3168 451.3661,-67.1627 451.3661,-67.1627"/>
</g>
<!-- c7129450 -->
<g id="node2" class="node">
<title>c7129450</title>
<g id="a_node2"><a xlink:href="../../algorithm/clustering/correlation/CASH.html" xlink:title="&lt;TABLE&gt;">
<g id="a_node2_2"><a xlink:href="../../algorithm/clustering/correlation/CASH.html" xlink:title="de.lmu.ifi.dbs.elki.algorithm.clustering.correlation.CASH" target="_parent">
<polygon fill="none" stroke="#000000" points="0,-257 0,-285 178,-285 178,-257 0,-257"/>
<text text-anchor="start" x="75" y="-275.6" font-family="Roboto" font-size="8.00" fill="#000000"> </text>
<text text-anchor="start" x="78" y="-275.6" font-family="Roboto" font-size="8.00" fill="#000000">CASH</text>
<text text-anchor="start" x="100" y="-275.6" font-family="Roboto" font-size="8.00" fill="#000000"> </text>
<text text-anchor="start" x="4" y="-264.6" font-family="Roboto" font-size="8.00" fill="#000000"> </text>
<text text-anchor="start" x="7" y="-264.6" font-family="Roboto" font-size="7.00" fill="#000000">de.lmu.ifi.dbs.elki.algorithm.clustering.correlation</text>
<text text-anchor="start" x="171" y="-264.6" font-family="Roboto" font-size="8.00" fill="#000000"> </text>
</a>
</g>
</a>
</g>
</g>
<!-- c7129450&#45;&gt;c7129446 -->
<g id="edge1" class="edge">
<title>c7129450&#45;&gt;c7129446</title>
<path fill="none" stroke="#000000" d="M190.4229,-271C193.4267,-271 196.4334,-271 199.4329,-271"/>
<polygon fill="none" stroke="#000000" points="190.1159,-271.0001 184.1159,-275 178.1159,-271 184.1159,-267 190.1159,-271.0001"/>
</g>
<!-- c7129450&#45;&gt;c7130591 -->
<g id="edge9" class="edge">
<title>c7129450&#45;&gt;c7130591</title>
<path fill="none" stroke="#000000" d="M164.9009,-256.9669C175.3343,-255.2004 185.9217,-253.4923 196,-252 240.7171,-245.3789 363.1641,-256.8083 398,-228 421.4926,-208.5723 440.8648,-120.4684 449.1574,-77.1684"/>
<polygon fill="#000000" stroke="#000000" points="451.0227,-67.1944 453.6076,-77.8512 450.1035,-72.1092 449.1843,-77.0239 449.1843,-77.0239 449.1843,-77.0239 450.1035,-72.1092 444.761,-76.1967 451.0227,-67.1944 451.0227,-67.1944"/>
</g>
<!-- c7129730 -->
<g id="node3" class="node">
<title>c7129730</title>
<g id="a_node3"><a xlink:href="../../visualization/visualizers/pairsegments/SegmentsStylingPolicy.html" xlink:title="&lt;TABLE&gt;">
<g id="a_node3_3"><a xlink:href="../../visualization/visualizers/pairsegments/SegmentsStylingPolicy.html" xlink:title="de.lmu.ifi.dbs.elki.visualization.visualizers.pairsegments.SegmentsStylingPolicy" target="_parent">
<polygon fill="none" stroke="#000000" points="196,-195 196,-223 398,-223 398,-195 196,-195"/>
<text text-anchor="start" x="254.5" y="-213.6" font-family="Roboto" font-size="8.00" fill="#000000"> </text>
<text text-anchor="start" x="257.5" y="-213.6" font-family="Roboto" font-size="8.00" fill="#000000">SegmentsStylingPolicy</text>
<text text-anchor="start" x="336.5" y="-213.6" font-family="Roboto" font-size="8.00" fill="#000000"> </text>
<text text-anchor="start" x="200" y="-202.6" font-family="Roboto" font-size="8.00" fill="#000000"> </text>
<text text-anchor="start" x="203" y="-202.6" font-family="Roboto" font-size="7.00" fill="#000000">de.lmu.ifi.dbs.elki.visualization.visualizers.pairsegments</text>
<text text-anchor="start" x="391" y="-202.6" font-family="Roboto" font-size="8.00" fill="#000000"> </text>
</a>
</g>
</a>
</g>
</g>
<!-- c7129730&#45;&gt;c7130591 -->
<g id="edge10" class="edge">
<title>c7129730&#45;&gt;c7130591</title>
<path fill="none" stroke="#000000" d="M389.6753,-194.8688C392.5914,-193.1102 395.3794,-191.1603 398,-189 432.3241,-160.7049 445.6401,-107.8272 450.6411,-77.004"/>
<polygon fill="#000000" stroke="#000000" points="452.0841,-67.0976 455.0956,-77.6419 451.3634,-72.0454 450.6426,-76.9932 450.6426,-76.9932 450.6426,-76.9932 451.3634,-72.0454 446.1896,-76.3445 452.0841,-67.0976 452.0841,-67.0976"/>
</g>
<!-- c7130025 -->
<g id="node4" class="node">
<title>c7130025</title>
<g id="a_node4"><a xlink:href="../../algorithm/clustering/SNNClustering.html" xlink:title="&lt;TABLE&gt;">
<g id="a_node4_4"><a xlink:href="../../algorithm/clustering/SNNClustering.html" xlink:title="de.lmu.ifi.dbs.elki.algorithm.clustering.SNNClustering" target="_parent">
<polygon fill="none" stroke="#000000" points="227,-156 227,-184 368,-184 368,-156 227,-156"/>
<text text-anchor="start" x="268" y="-174.6" font-family="Roboto" font-size="8.00" fill="#000000"> </text>
<text text-anchor="start" x="271" y="-174.6" font-family="Roboto" font-size="8.00" fill="#000000">SNNClustering</text>
<text text-anchor="start" x="324" y="-174.6" font-family="Roboto" font-size="8.00" fill="#000000"> </text>
<text text-anchor="start" x="231" y="-163.6" font-family="Roboto" font-size="8.00" fill="#000000"> </text>
<text text-anchor="start" x="234" y="-163.6" font-family="Roboto" font-size="7.00" fill="#000000">de.lmu.ifi.dbs.elki.algorithm.clustering</text>
<text text-anchor="start" x="361" y="-163.6" font-family="Roboto" font-size="8.00" fill="#000000"> </text>
</a>
</g>
</a>
</g>
</g>
<!-- c7130025&#45;&gt;c7130591 -->
<g id="edge11" class="edge">
<title>c7130025&#45;&gt;c7130591</title>
<path fill="none" stroke="#000000" d="M367.5939,-164.0962C378.4373,-160.9778 389.0013,-156.4691 398,-150 423.0003,-132.0275 438.3326,-99.0622 446.3762,-76.5988"/>
<polygon fill="#000000" stroke="#000000" points="449.5676,-67.1084 450.6455,-78.0211 447.9739,-71.8476 446.3802,-76.5868 446.3802,-76.5868 446.3802,-76.5868 447.9739,-71.8476 442.1149,-75.1525 449.5676,-67.1084 449.5676,-67.1084"/>
<text text-anchor="middle" x="447.5676" y="-69.5084" font-family="Roboto" font-size="7.00" fill="#000000">*</text>
</g>
<!-- c7130048 -->
<g id="node5" class="node">
<title>c7130048</title>
<g id="a_node5"><a xlink:href="../../algorithm/clustering/optics/FastOPTICS.html" xlink:title="&lt;TABLE&gt;">
<g id="a_node5_5"><a xlink:href="../../algorithm/clustering/optics/FastOPTICS.html" xlink:title="de.lmu.ifi.dbs.elki.algorithm.clustering.optics.FastOPTICS" target="_parent">
<polygon fill="none" stroke="#000000" points="216,-117 216,-145 378,-145 378,-117 216,-117"/>
<text text-anchor="start" x="272.5" y="-135.6" font-family="Roboto" font-size="8.00" fill="#000000"> </text>
<text text-anchor="start" x="275.5" y="-135.6" font-family="Roboto" font-size="8.00" fill="#000000">FastOPTICS</text>
<text text-anchor="start" x="318.5" y="-135.6" font-family="Roboto" font-size="8.00" fill="#000000"> </text>
<text text-anchor="start" x="220" y="-124.6" font-family="Roboto" font-size="8.00" fill="#000000"> </text>
<text text-anchor="start" x="223" y="-124.6" font-family="Roboto" font-size="7.00" fill="#000000">de.lmu.ifi.dbs.elki.algorithm.clustering.optics</text>
<text text-anchor="start" x="371" y="-124.6" font-family="Roboto" font-size="8.00" fill="#000000"> </text>
</a>
</g>
</a>
</g>
</g>
<!-- c7130048&#45;&gt;c7130591 -->
<g id="edge12" class="edge">
<title>c7130048&#45;&gt;c7130591</title>
<path fill="none" stroke="#000000" d="M378.2438,-119.564C385.1232,-117.217 391.8086,-114.3941 398,-111 413.788,-102.3451 427.7751,-87.6551 437.7584,-75.2252"/>
<polygon fill="#000000" stroke="#000000" points="444.0032,-67.0828 441.4882,-77.7564 440.9603,-71.0503 437.9174,-75.0178 437.9174,-75.0178 437.9174,-75.0178 440.9603,-71.0503 434.3467,-72.2792 444.0032,-67.0828 444.0032,-67.0828"/>
</g>
<!-- c7130176 -->
<g id="node6" class="node">
<title>c7130176</title>
<g id="a_node6"><a xlink:href="../../algorithm/clustering/DBSCAN.html" xlink:title="&lt;TABLE&gt;">
<g id="a_node6_6"><a xlink:href="../../algorithm/clustering/DBSCAN.html" xlink:title="de.lmu.ifi.dbs.elki.algorithm.clustering.DBSCAN" target="_parent">
<polygon fill="none" stroke="#000000" points="227,-78 227,-106 368,-106 368,-78 227,-78"/>
<text text-anchor="start" x="278" y="-96.6" font-family="Roboto" font-size="8.00" fill="#000000"> </text>
<text text-anchor="start" x="281" y="-96.6" font-family="Roboto" font-size="8.00" fill="#000000">DBSCAN</text>
<text text-anchor="start" x="314" y="-96.6" font-family="Roboto" font-size="8.00" fill="#000000"> </text>
<text text-anchor="start" x="231" y="-85.6" font-family="Roboto" font-size="8.00" fill="#000000"> </text>
<text text-anchor="start" x="234" y="-85.6" font-family="Roboto" font-size="7.00" fill="#000000">de.lmu.ifi.dbs.elki.algorithm.clustering</text>
<text text-anchor="start" x="361" y="-85.6" font-family="Roboto" font-size="8.00" fill="#000000"> </text>
</a>
</g>
</a>
</g>
</g>
<!-- c7130176&#45;&gt;c7130591 -->
<g id="edge13" class="edge">
<title>c7130176&#45;&gt;c7130591</title>
<path fill="none" stroke="#000000" d="M367.6432,-79.2703C377.8792,-77.0614 388.2469,-74.6224 398,-72 400.6294,-71.293 403.3148,-70.5265 406.016,-69.7206"/>
<polygon fill="#000000" stroke="#000000" points="415.7937,-66.6658 407.5906,-73.9432 411.0212,-68.1569 406.2487,-69.648 406.2487,-69.648 406.2487,-69.648 411.0212,-68.1569 404.9067,-65.3527 415.7937,-66.6658 415.7937,-66.6658"/>
<text text-anchor="middle" x="413.7937" y="-61.0658" font-family="Roboto" font-size="7.00" fill="#000000">*</text>
</g>
<!-- c7130194 -->
<g id="node7" class="node">
<title>c7130194</title>
<g id="a_node7"><a xlink:href="../../algorithm/clustering/subspace/clique/CLIQUEUnit.html" xlink:title="&lt;TABLE&gt;">
<g id="a_node7_7"><a xlink:href="../../algorithm/clustering/subspace/clique/CLIQUEUnit.html" xlink:title="de.lmu.ifi.dbs.elki.algorithm.clustering.subspace.clique.CLIQUEUnit" target="_parent">
<polygon fill="none" stroke="#000000" points="200,-39 200,-67 395,-67 395,-39 200,-39"/>
<text text-anchor="start" x="272.5" y="-57.6" font-family="Roboto" font-size="8.00" fill="#000000"> </text>
<text text-anchor="start" x="275.5" y="-57.6" font-family="Roboto" font-size="8.00" fill="#000000">CLIQUEUnit</text>
<text text-anchor="start" x="319.5" y="-57.6" font-family="Roboto" font-size="8.00" fill="#000000"> </text>
<text text-anchor="start" x="204" y="-46.6" font-family="Roboto" font-size="8.00" fill="#000000"> </text>
<text text-anchor="start" x="207" y="-46.6" font-family="Roboto" font-size="7.00" fill="#000000">de.lmu.ifi.dbs.elki.algorithm.clustering.subspace.clique</text>
<text text-anchor="start" x="388" y="-46.6" font-family="Roboto" font-size="8.00" fill="#000000"> </text>
</a>
</g>
</a>
</g>
</g>
<!-- c7130194&#45;&gt;c7130591 -->
<g id="edge2" class="edge">
<title>c7130194&#45;&gt;c7130591</title>
<path fill="none" stroke="#000000" d="M407.0029,-53C410.0835,-53 413.0851,-53 415.9833,-53"/>
<polygon fill="#000000" stroke="#000000" points="406.7799,-53.0001 400.7799,-57 394.7799,-53 400.78,-49 406.7799,-53.0001"/>
</g>
<!-- c7130565 -->
<g id="node8" class="node">
<title>c7130565</title>
<g id="a_node8"><a xlink:href="DBIDs.html" xlink:title="&lt;TABLE&gt;">
<g id="a_node8_8"><a xlink:href="DBIDs.html" xlink:title="de.lmu.ifi.dbs.elki.database.ids.DBIDs" target="_parent">
<polygon fill="#fffacd" stroke="transparent" points="271.5,0 271.5,-28 322.5,-28 322.5,0 271.5,0"/>
<polygon fill="none" stroke="#000000" points="272,0 272,-28 323,-28 323,0 272,0"/>
<text text-anchor="start" x="276" y="-17.6" font-family="Roboto" font-size="8.00" fill="#000000"> «interface» </text>
<text text-anchor="start" x="282.5" y="-7.6" font-family="Roboto" font-size="8.00" fill="#000000"> </text>
<text text-anchor="start" x="285.5" y="-7.6" font-family="Roboto" font-size="8.00" fill="#000000">DBIDs</text>
<text text-anchor="start" x="309.5" y="-7.6" font-family="Roboto" font-size="8.00" fill="#000000"> </text>
</a>
</g>
</a>
</g>
</g>
<!-- c7130565&#45;&gt;c7130591 -->
<g id="edge5" class="edge">
<title>c7130565&#45;&gt;c7130591</title>
<path fill="none" stroke="#000000" stroke-dasharray="5,2" d="M332.5555,-19.2605C352.0515,-22.5012 376.5489,-27.1576 398,-33 404.2257,-34.6956 410.7483,-36.7679 417.0448,-38.9288"/>
<polygon fill="none" stroke="#000000" points="333.0047,-15.7878 322.5751,-17.6517 331.8906,-22.6986 333.0047,-15.7878"/>
</g>
<!-- c7130568 -->
<g id="node9" class="node">
<title>c7130568</title>
<g id="a_node9"><a xlink:href="DBIDMIter.html" xlink:title="&lt;TABLE&gt;">
<g id="a_node9_9"><a xlink:href="DBIDMIter.html" xlink:title="de.lmu.ifi.dbs.elki.database.ids.DBIDMIter" target="_parent">
<polygon fill="none" stroke="#000000" points="535.5,-78 535.5,-106 588.5,-106 588.5,-78 535.5,-78"/>
<text text-anchor="start" x="540.5" y="-95.6" font-family="Roboto" font-size="8.00" fill="#000000"> «interface» </text>
<text text-anchor="start" x="539.5" y="-85.6" font-family="Roboto" font-size="8.00" fill="#000000"> </text>
<text text-anchor="start" x="542.5" y="-85.6" font-family="Roboto" font-size="8.00" fill="#000000">DBIDMIter</text>
<text text-anchor="start" x="581.5" y="-85.6" font-family="Roboto" font-size="8.00" fill="#000000"> </text>
</a>
</g>
</a>
</g>
</g>
<!-- c7130582 -->
<g id="node10" class="node">
<title>c7130582</title>
<g id="a_node10"><a xlink:href="HashSetModifiableDBIDs.html" xlink:title="&lt;TABLE&gt;">
<g id="a_node10_10"><a xlink:href="HashSetModifiableDBIDs.html" xlink:title="de.lmu.ifi.dbs.elki.database.ids.HashSetModifiableDBIDs" target="_parent">
<polygon fill="none" stroke="#000000" points="509.5,-39 509.5,-67 614.5,-67 614.5,-39 509.5,-39"/>
<text text-anchor="start" x="540.5" y="-56.6" font-family="Roboto" font-size="8.00" fill="#000000"> «interface» </text>
<text text-anchor="start" x="513.5" y="-46.6" font-family="Roboto" font-size="8.00" fill="#000000"> </text>
<text text-anchor="start" x="516.5" y="-46.6" font-family="Roboto" font-size="8.00" fill="#000000">HashSetModifiableDBIDs</text>
<text text-anchor="start" x="607.5" y="-46.6" font-family="Roboto" font-size="8.00" fill="#000000"> </text>
</a>
</g>
</a>
</g>
</g>
<!-- c7130589 -->
<g id="node11" class="node">
<title>c7130589</title>
<g id="a_node11"><a xlink:href="ArrayModifiableDBIDs.html" xlink:title="&lt;TABLE&gt;">
<g id="a_node11_11"><a xlink:href="ArrayModifiableDBIDs.html" xlink:title="de.lmu.ifi.dbs.elki.database.ids.ArrayModifiableDBIDs" target="_parent">
<polygon fill="none" stroke="#000000" points="514.5,0 514.5,-28 609.5,-28 609.5,0 514.5,0"/>
<text text-anchor="start" x="540.5" y="-17.6" font-family="Roboto" font-size="8.00" fill="#000000"> «interface» </text>
<text text-anchor="start" x="518.5" y="-7.6" font-family="Roboto" font-size="8.00" fill="#000000"> </text>
<text text-anchor="start" x="521.5" y="-7.6" font-family="Roboto" font-size="8.00" fill="#000000">ArrayModifiableDBIDs</text>
<text text-anchor="start" x="602.5" y="-7.6" font-family="Roboto" font-size="8.00" fill="#000000"> </text>
</a>
</g>
</a>
</g>
</g>
<!-- c7130591&#45;&gt;c7130568 -->
<g id="edge6" class="edge">
<title>c7130591&#45;&gt;c7130568</title>
<path fill="none" stroke="#000000" d="M502.6336,-70.7427C513.7064,-74.7412 525.0543,-78.8391 534.7947,-82.3564"/>
<polygon fill="none" stroke="#000000" points="502.5598,-70.7161 495.5579,-72.4404 491.2732,-66.6403 498.2751,-64.916 502.5598,-70.7161"/>
</g>
<!-- c7130591&#45;&gt;c7130582 -->
<g id="edge3" class="edge">
<title>c7130591&#45;&gt;c7130582</title>
<path fill="none" stroke="#000000" stroke-dasharray="5,2" d="M501.4021,-53C503.9039,-53 506.4233,-53 508.9385,-53"/>
<polygon fill="none" stroke="#000000" points="501.2732,-49.5001 491.2732,-53 501.2731,-56.5001 501.2732,-49.5001"/>
</g>
<!-- c7130591&#45;&gt;c7130589 -->
<g id="edge4" class="edge">
<title>c7130591&#45;&gt;c7130589</title>
<path fill="none" stroke="#000000" stroke-dasharray="5,2" d="M500.9351,-35.8706C508.1281,-33.2732 515.4789,-30.6187 522.4666,-28.0954"/>
<polygon fill="none" stroke="#000000" points="499.4899,-32.6712 491.2732,-39.3597 501.8675,-39.2551 499.4899,-32.6712"/>
</g>
</g>
</svg>
