<?xml version="1.0" encoding="UTF-8" standalone="no"?><svg xmlns="http://www.w3.org/2000/svg" xmlns:xlink="http://www.w3.org/1999/xlink" contentStyleType="text/css" height="285px" preserveAspectRatio="none" style="width:400px;height:285px;background:#FFFFFF;" version="1.1" viewBox="0 0 400 285" width="400px" zoomAndPan="magnify"><defs/><g><!--MD5=[ed6b375fcda55bc264e9b780c2f01023]
class elki.clustering.kmedoids.FastCLARANS.Assignment--><a href="FastCLARANS.Assignment.html" target="_top" title="FastCLARANS.Assignment.html" xlink:actuate="onRequest" xlink:href="FastCLARANS.Assignment.html" xlink:show="new" xlink:title="FastCLARANS.Assignment.html" xlink:type="simple"><g id="elem_elki.clustering.kmedoids.FastCLARANS.Assignment"><rect codeLine="6" fill="#F1F1F1" height="151.7188" id="elki.clustering.kmedoids.FastCLARANS.Assignment" rx="2.5" ry="2.5" style="stroke:#181818;stroke-width:0.5;" width="384" x="9" y="108"/><ellipse cx="107.25" cy="126.9688" fill="#ADD1B2" rx="11" ry="11" style="stroke:#181818;stroke-width:1.0;"/><path d="M110.2188,132.6094 Q109.6406,132.9063 109,133.0469 Q108.3594,133.2031 107.6563,133.2031 Q105.1563,133.2031 103.8281,131.5625 Q102.5156,129.9063 102.5156,126.7813 Q102.5156,123.6563 103.8281,122 Q105.1563,120.3438 107.6563,120.3438 Q108.3594,120.3438 109,120.5 Q109.6563,120.6563 110.2188,120.9531 L110.2188,123.6719 Q109.5938,123.0938 109,122.8281 Q108.4063,122.5469 107.7813,122.5469 Q106.4375,122.5469 105.75,123.625 Q105.0625,124.6875 105.0625,126.7813 Q105.0625,128.875 105.75,129.9531 Q106.4375,131.0156 107.7813,131.0156 Q108.4063,131.0156 109,130.75 Q109.5938,130.4688 110.2188,129.8906 L110.2188,132.6094 Z " fill="#000000"/><text fill="#000000" font-family="sans-serif" font-size="14" lengthAdjust="spacing" textLength="179" x="127.75" y="125.9951">FastCLARANS.Assignment</text><text fill="#000000" font-family="sans-serif" font-size="10" lengthAdjust="spacing" textLength="113" x="160.75" y="138.5791">elki.clustering.kmedoids</text><line style="stroke:#181818;stroke-width:0.5;" x1="10" x2="392" y1="145.9375" y2="145.9375"/><polygon fill="none" points="20,155.5859,16,161.5859,24,161.5859" style="stroke:#1963A0;stroke-width:1.0;"/><text fill="#000000" font-family="sans-serif" font-size="14" lengthAdjust="spacing" textLength="95" x="29" y="162.9326">loss: double[]</text><polygon fill="none" points="20,170.8828,24,174.8828,20,178.8828,16,174.8828" style="stroke:#B38D22;stroke-width:1.0;"/><text fill="#000000" font-family="sans-serif" font-size="14" lengthAdjust="spacing" textLength="81" x="29" y="179.2295">lastbest: int</text><line style="stroke:#181818;stroke-width:0.5;" x1="10" x2="392" y1="186.5313" y2="186.5313"/><ellipse cx="20" cy="200.1797" fill="#84BE84" rx="3" ry="3" style="stroke:#038048;stroke-width:1.0;"/><text fill="#000000" font-family="sans-serif" font-size="14" lengthAdjust="spacing" textLength="301" x="29" y="203.5264">Assignment(DistanceQuery&lt;?&gt;, DBIDs, int)</text><polygon fill="#FFFF44" points="20,211.4766,24,215.4766,20,219.4766,16,215.4766" style="stroke:#B38D22;stroke-width:1.0;"/><text fill="#000000" font-family="sans-serif" font-size="14" lengthAdjust="spacing" textLength="258" x="29" y="219.8232">computeRemovalCost(double[]): void</text><polygon fill="#FFFF44" points="20,227.7734,24,231.7734,20,235.7734,16,231.7734" style="stroke:#B38D22;stroke-width:1.0;"/><text fill="#000000" font-family="sans-serif" font-size="14" lengthAdjust="spacing" textLength="358" x="29" y="236.1201">computeCostDifferential(DBIDRef, double[]): double</text><polygon fill="#FFFF44" points="20,244.0703,24,248.0703,20,252.0703,16,248.0703" style="stroke:#B38D22;stroke-width:1.0;"/><text fill="#000000" font-family="sans-serif" font-size="14" lengthAdjust="spacing" textLength="224" x="29" y="252.417">performLastSwap(DBIDRef): void</text></g></a><!--MD5=[c55cdd8b63d3510c3ef5d90911437130]
class elki.clustering.kmedoids.CLARANS.Assignment--><a href="CLARANS.Assignment.html" target="_top" title="CLARANS.Assignment.html" xlink:actuate="onRequest" xlink:href="CLARANS.Assignment.html" xlink:show="new" xlink:title="CLARANS.Assignment.html" xlink:type="simple"><g id="elem_elki.clustering.kmedoids.CLARANS.Assignment"><rect codeLine="15" fill="#F1F1F1" height="37.9375" id="elki.clustering.kmedoids.CLARANS.Assignment" rx="2.5" ry="2.5" style="stroke:#181818;stroke-width:0.5;" width="182" x="8" y="10"/><ellipse cx="23" cy="28.9688" fill="#ADD1B2" rx="11" ry="11" style="stroke:#181818;stroke-width:1.0;"/><path d="M25.9688,34.6094 Q25.3906,34.9063 24.75,35.0469 Q24.1094,35.2031 23.4063,35.2031 Q20.9063,35.2031 19.5781,33.5625 Q18.2656,31.9063 18.2656,28.7813 Q18.2656,25.6563 19.5781,24 Q20.9063,22.3438 23.4063,22.3438 Q24.1094,22.3438 24.75,22.5 Q25.4063,22.6563 25.9688,22.9531 L25.9688,25.6719 Q25.3438,25.0938 24.75,24.8281 Q24.1563,24.5469 23.5313,24.5469 Q22.1875,24.5469 21.5,25.625 Q20.8125,26.6875 20.8125,28.7813 Q20.8125,30.875 21.5,31.9531 Q22.1875,33.0156 23.5313,33.0156 Q24.1563,33.0156 24.75,32.75 Q25.3438,32.4688 25.9688,31.8906 L25.9688,34.6094 Z " fill="#000000"/><text fill="#000000" font-family="sans-serif" font-size="14" lengthAdjust="spacing" textLength="150" x="37" y="27.9951">CLARANS.Assignment</text><text fill="#000000" font-family="sans-serif" font-size="10" lengthAdjust="spacing" textLength="113" x="55.5" y="40.5791">elki.clustering.kmedoids</text></g></a><!--MD5=[44a8a5edbf923d77b5ceaf2113be1237]
class elki.clustering.kmedoids.FastCLARANS--><a href="FastCLARANS.html" target="_top" title="FastCLARANS.html" xlink:actuate="onRequest" xlink:href="FastCLARANS.html" xlink:show="new" xlink:title="FastCLARANS.html" xlink:type="simple"><g id="elem_elki.clustering.kmedoids.FastCLARANS"><rect codeLine="16" fill="#F1F1F1" height="37.9375" id="elki.clustering.kmedoids.FastCLARANS" rx="2.5" ry="2.5" style="stroke:#181818;stroke-width:0.5;" width="157" x="225.5" y="10"/><ellipse cx="240.5" cy="28.9688" fill="#ADD1B2" rx="11" ry="11" style="stroke:#181818;stroke-width:1.0;"/><path d="M243.4688,34.6094 Q242.8906,34.9063 242.25,35.0469 Q241.6094,35.2031 240.9063,35.2031 Q238.4063,35.2031 237.0781,33.5625 Q235.7656,31.9063 235.7656,28.7813 Q235.7656,25.6563 237.0781,24 Q238.4063,22.3438 240.9063,22.3438 Q241.6094,22.3438 242.25,22.5 Q242.9063,22.6563 243.4688,22.9531 L243.4688,25.6719 Q242.8438,25.0938 242.25,24.8281 Q241.6563,24.5469 241.0313,24.5469 Q239.6875,24.5469 239,25.625 Q238.3125,26.6875 238.3125,28.7813 Q238.3125,30.875 239,31.9531 Q239.6875,33.0156 241.0313,33.0156 Q241.6563,33.0156 242.25,32.75 Q242.8438,32.4688 243.4688,31.8906 L243.4688,34.6094 Z " fill="#000000"/><text fill="#000000" font-family="sans-serif" font-size="14" lengthAdjust="spacing" textLength="93" x="264.5" y="27.9951">FastCLARANS</text><text fill="#000000" font-family="sans-serif" font-size="10" lengthAdjust="spacing" textLength="113" x="254.5" y="40.5791">elki.clustering.kmedoids</text><rect fill="#FFFFFF" height="15.9688" style="stroke:#181818;stroke-width:1.0;stroke-dasharray:2.0,2.0;" width="10" x="375.5" y="7"/><text fill="#000000" font-family="sans-serif" font-size="12" font-style="italic" lengthAdjust="spacing" textLength="8" x="376.5" y="19.1387">V</text></g></a><!--MD5=[7fd9e55311968c1a9c8a183e629ef734]
reverse link elki.clustering.kmedoids.CLARANS.Assignment to elki.clustering.kmedoids.FastCLARANS.Assignment--><g id="link_elki.clustering.kmedoids.CLARANS.Assignment_elki.clustering.kmedoids.FastCLARANS.Assignment"><path codeLine="18" d="M122.39,65.08 C130.94,77.91 140.97,92.95 150.95,107.93 " fill="none" id="elki.clustering.kmedoids.CLARANS.Assignment-backto-elki.clustering.kmedoids.FastCLARANS.Assignment" style="stroke:#181818;stroke-width:1.0;"/><polygon fill="none" points="116.37,68.68,111.1,48.15,128.02,60.91,116.37,68.68" style="stroke:#181818;stroke-width:1.0;"/></g><!--MD5=[32f2a7d835988286eed2c72edb62ec22]
reverse link elki.clustering.kmedoids.FastCLARANS to elki.clustering.kmedoids.FastCLARANS.Assignment--><g id="link_elki.clustering.kmedoids.FastCLARANS_elki.clustering.kmedoids.FastCLARANS.Assignment"><path codeLine="19" d="M283.33,60.7 C274.11,74.41 262.79,91.21 251.54,107.93 " fill="none" id="elki.clustering.kmedoids.FastCLARANS-backto-elki.clustering.kmedoids.FastCLARANS.Assignment" style="stroke:#181818;stroke-width:1.0;"/><ellipse cx="287.3091" cy="54.7841" fill="#FFFFFF" rx="8" ry="8" style="stroke:#181818;stroke-width:1.0;"/><line style="stroke:#181818;stroke-width:1.0;" x1="282.8381" x2="291.78" y1="61.4181" y2="48.15"/><line style="stroke:#181818;stroke-width:1.0;" x1="280.675" x2="293.9431" y1="50.3131" y2="59.255"/></g><rect fill="none" height="11.6406" style="stroke:none;stroke-width:1.0;" width="186" x="100" y="265.7188"/><text fill="#888888" font-family="sans-serif" font-size="10" lengthAdjust="spacing" textLength="186" x="100" y="275.001">UMLDoclet 2.0.19, PlantUML 1.2022.8</text><!--MD5=[7932ddb7879a51c87e663b04e2299d78]
@startuml
    remove .*\.(Instance|Par|Parameterizer|Factory)$
    set namespaceSeparator none
    hide empty fields
    hide empty methods

    class "<size:14>FastCLARANS.Assignment\n<size:10>elki.clustering.kmedoids" as elki.clustering.kmedoids.FastCLARANS.Assignment [[FastCLARANS.Assignment.html]] {
        ~loss: double[]
        #lastbest: int
        +Assignment(DistanceQuery<?>, DBIDs, int)
        #computeRemovalCost(double[]): void
        #computeCostDifferential(DBIDRef, double[]): double
        #performLastSwap(DBIDRef): void
    }

    class "<size:14>CLARANS.Assignment\n<size:10>elki.clustering.kmedoids" as elki.clustering.kmedoids.CLARANS.Assignment [[CLARANS.Assignment.html]]
    class "<size:14>FastCLARANS\n<size:10>elki.clustering.kmedoids" as elki.clustering.kmedoids.FastCLARANS<V> [[FastCLARANS.html]]

    elki.clustering.kmedoids.CLARANS.Assignment <|- - elki.clustering.kmedoids.FastCLARANS.Assignment
    elki.clustering.kmedoids.FastCLARANS +- - elki.clustering.kmedoids.FastCLARANS.Assignment

    center footer UMLDoclet 2.0.19, PlantUML 1.2022.8
@enduml

PlantUML version 1.2022.8(Sun Sep 25 11:00:33 CEST 2022)
(APACHE source distribution)
Java Runtime: OpenJDK Runtime Environment
JVM: OpenJDK 64-Bit Server VM
Default Encoding: UTF-8
Language: de
Country: DE
--></g></svg>