<?xml version="1.0" encoding="UTF-8" standalone="no"?>
<!DOCTYPE svg PUBLIC "-//W3C//DTD SVG 1.1//EN"
 "http://www.w3.org/Graphics/SVG/1.1/DTD/svg11.dtd">
<!-- Generated by graphviz version 2.40.1 (20161225.0304)
 -->
<!-- Title: G Pages: 1 -->
<svg width="164pt" height="36pt"
 viewBox="0.00 0.00 164.00 36.00" xmlns="http://www.w3.org/2000/svg" xmlns:xlink="http://www.w3.org/1999/xlink">
<g id="graph0" class="graph" transform="scale(1 1) rotate(0) translate(4 32)">
<title>G</title>
<polygon fill="#ffffff" stroke="transparent" points="-4,4 -4,-32 160,-32 160,4 -4,4"/>
<!-- c2837162 -->
<g id="node1" class="node">
<title>c2837162</title>
<g id="a_node1"><a xlink:href="WeightFunction.html" xlink:title="&lt;TABLE&gt;">
<g id="a_node1_0"><a xlink:href="WeightFunction.html" xlink:title="de.lmu.ifi.dbs.elki.math.linearalgebra.pca.weightfunctions.WeightFunction" target="_parent">
<polygon fill="none" stroke="#000000" points=".5,0 .5,-28 69.5,-28 69.5,0 .5,0"/>
<text text-anchor="start" x="13.5" y="-17.6" font-family="Roboto" font-size="8.00" fill="#000000"> «interface» </text>
<text text-anchor="start" x="4.5" y="-7.6" font-family="Roboto" font-size="8.00" fill="#000000"> </text>
<text text-anchor="start" x="7.5" y="-7.6" font-family="Roboto" font-size="8.00" fill="#000000">WeightFunction</text>
<text text-anchor="start" x="62.5" y="-7.6" font-family="Roboto" font-size="8.00" fill="#000000"> </text>
</a>
</g>
</a>
</g>
</g>
<!-- c2837165 -->
<g id="node2" class="node">
<title>c2837165</title>
<g id="a_node2"><a xlink:href="ConstantWeight.html" xlink:title="&lt;TABLE&gt;">
<g id="a_node2_1"><a xlink:href="ConstantWeight.html" xlink:title="de.lmu.ifi.dbs.elki.math.linearalgebra.pca.weightfunctions.ConstantWeight" target="_parent">
<polygon fill="#fffacd" stroke="transparent" points="87,-5.5 87,-22.5 156,-22.5 156,-5.5 87,-5.5"/>
<polygon fill="none" stroke="#000000" points="87.5,-5 87.5,-22 156.5,-22 156.5,-5 87.5,-5"/>
<text text-anchor="start" x="91.5" y="-12.6" font-family="Roboto" font-size="8.00" fill="#000000"> </text>
<text text-anchor="start" x="94.5" y="-12.6" font-family="Roboto" font-size="8.00" fill="#000000">ConstantWeight</text>
<text text-anchor="start" x="149.5" y="-12.6" font-family="Roboto" font-size="8.00" fill="#000000"> </text>
</a>
</g>
</a>
</g>
</g>
<!-- c2837162&#45;&gt;c2837165 -->
<g id="edge1" class="edge">
<title>c2837162&#45;&gt;c2837165</title>
<path fill="none" stroke="#000000" stroke-dasharray="5,2" d="M79.1833,-14C81.8021,-14 84.4151,-14 86.9845,-14"/>
<polygon fill="none" stroke="#000000" points="79.1347,-10.5001 69.1347,-14 79.1346,-17.5001 79.1347,-10.5001"/>
</g>
</g>
</svg>
