<?xml version="1.0" encoding="UTF-8" standalone="no"?>
<!DOCTYPE svg PUBLIC "-//W3C//DTD SVG 1.1//EN"
 "http://www.w3.org/Graphics/SVG/1.1/DTD/svg11.dtd">
<!-- Generated by graphviz version 2.40.1 (20161225.0304)
 -->
<!-- Title: G Pages: 1 -->
<svg width="390pt" height="361pt"
 viewBox="0.00 0.00 390.00 361.00" xmlns="http://www.w3.org/2000/svg" xmlns:xlink="http://www.w3.org/1999/xlink">
<g id="graph0" class="graph" transform="scale(1 1) rotate(0) translate(4 357)">
<title>G</title>
<polygon fill="#ffffff" stroke="transparent" points="-4,4 -4,-357 386,-357 386,4 -4,4"/>
<!-- c10816753 -->
<g id="node1" class="node">
<title>c10816753</title>
<g id="a_node1"><a xlink:href="../WeightedCovarianceMatrixBuilder.html" xlink:title="&lt;TABLE&gt;">
<g id="a_node1_0"><a xlink:href="../WeightedCovarianceMatrixBuilder.html" xlink:title="de.lmu.ifi.dbs.elki.math.linearalgebra.pca.WeightedCovarianceMatrixBuilder" target="_parent">
<polygon fill="none" stroke="#000000" points="0,-162.5 0,-190.5 148,-190.5 148,-162.5 0,-162.5"/>
<text text-anchor="start" x="10.5" y="-181.1" font-family="Roboto" font-size="8.00" fill="#000000"> </text>
<text text-anchor="start" x="13.5" y="-181.1" font-family="Roboto" font-size="8.00" fill="#000000">WeightedCovarianceMatrixBuilder</text>
<text text-anchor="start" x="134.5" y="-181.1" font-family="Roboto" font-size="8.00" fill="#000000"> </text>
<text text-anchor="start" x="4" y="-170.1" font-family="Roboto" font-size="8.00" fill="#000000"> </text>
<text text-anchor="start" x="7" y="-170.1" font-family="Roboto" font-size="7.00" fill="#000000">de.lmu.ifi.dbs.elki.math.linearalgebra.pca</text>
<text text-anchor="start" x="141" y="-170.1" font-family="Roboto" font-size="8.00" fill="#000000"> </text>
</a>
</g>
</a>
</g>
</g>
<!-- c10817559 -->
<g id="node9" class="node">
<title>c10817559</title>
<g id="a_node9"><a xlink:href="WeightFunction.html" xlink:title="&lt;TABLE&gt;">
<g id="a_node9_1"><a xlink:href="WeightFunction.html" xlink:title="de.lmu.ifi.dbs.elki.math.linearalgebra.pca.weightfunctions.WeightFunction" target="_parent">
<polygon fill="#fffacd" stroke="transparent" points="166,-162.5 166,-190.5 235,-190.5 235,-162.5 166,-162.5"/>
<polygon fill="none" stroke="#000000" points="166.5,-162.5 166.5,-190.5 235.5,-190.5 235.5,-162.5 166.5,-162.5"/>
<text text-anchor="start" x="179.5" y="-180.1" font-family="Roboto" font-size="8.00" fill="#000000"> «interface» </text>
<text text-anchor="start" x="170.5" y="-170.1" font-family="Roboto" font-size="8.00" fill="#000000"> </text>
<text text-anchor="start" x="173.5" y="-170.1" font-family="Roboto" font-size="8.00" fill="#000000">WeightFunction</text>
<text text-anchor="start" x="228.5" y="-170.1" font-family="Roboto" font-size="8.00" fill="#000000"> </text>
</a>
</g>
</a>
</g>
</g>
<!-- c10816753&#45;&gt;c10817559 -->
<g id="edge1" class="edge">
<title>c10816753&#45;&gt;c10817559</title>
<path fill="none" stroke="#000000" d="M160.4705,-176.5C162.2598,-176.5 164.0203,-176.5 165.7451,-176.5"/>
<polygon fill="none" stroke="#000000" points="160.3173,-176.5001 154.3172,-180.5 148.3173,-176.5 154.3173,-172.5 160.3173,-176.5001"/>
</g>
<!-- c10817552 -->
<g id="node2" class="node">
<title>c10817552</title>
<g id="a_node2"><a xlink:href="ErfcWeight.html" xlink:title="&lt;TABLE&gt;">
<g id="a_node2_2"><a xlink:href="ErfcWeight.html" xlink:title="de.lmu.ifi.dbs.elki.math.linearalgebra.pca.weightfunctions.ErfcWeight" target="_parent">
<polygon fill="none" stroke="#000000" points="291.5,-335.5 291.5,-352.5 344.5,-352.5 344.5,-335.5 291.5,-335.5"/>
<text text-anchor="start" x="295.5" y="-343.1" font-family="Roboto" font-size="8.00" fill="#000000"> </text>
<text text-anchor="start" x="298.5" y="-343.1" font-family="Roboto" font-size="8.00" fill="#000000">ErfcWeight</text>
<text text-anchor="start" x="337.5" y="-343.1" font-family="Roboto" font-size="8.00" fill="#000000"> </text>
</a>
</g>
</a>
</g>
</g>
<!-- c10817553 -->
<g id="node3" class="node">
<title>c10817553</title>
<g id="a_node3"><a xlink:href="QuadraticStddevWeight.html" xlink:title="&lt;TABLE&gt;">
<g id="a_node3_3"><a xlink:href="QuadraticStddevWeight.html" xlink:title="de.lmu.ifi.dbs.elki.math.linearalgebra.pca.weightfunctions.QuadraticStddevWeight" target="_parent">
<polygon fill="none" stroke="#000000" points="269.5,-307.5 269.5,-324.5 366.5,-324.5 366.5,-307.5 269.5,-307.5"/>
<text text-anchor="start" x="273.5" y="-315.1" font-family="Roboto" font-size="8.00" fill="#000000"> </text>
<text text-anchor="start" x="276.5" y="-315.1" font-family="Roboto" font-size="8.00" fill="#000000">QuadraticStddevWeight</text>
<text text-anchor="start" x="359.5" y="-315.1" font-family="Roboto" font-size="8.00" fill="#000000"> </text>
</a>
</g>
</a>
</g>
</g>
<!-- c10817554 -->
<g id="node4" class="node">
<title>c10817554</title>
<g id="a_node4"><a xlink:href="GaussStddevWeight.html" xlink:title="&lt;TABLE&gt;">
<g id="a_node4_4"><a xlink:href="GaussStddevWeight.html" xlink:title="de.lmu.ifi.dbs.elki.math.linearalgebra.pca.weightfunctions.GaussStddevWeight" target="_parent">
<polygon fill="none" stroke="#000000" points="275.5,-279.5 275.5,-296.5 359.5,-296.5 359.5,-279.5 275.5,-279.5"/>
<text text-anchor="start" x="279.5" y="-287.1" font-family="Roboto" font-size="8.00" fill="#000000"> </text>
<text text-anchor="start" x="282.5" y="-287.1" font-family="Roboto" font-size="8.00" fill="#000000">GaussStddevWeight</text>
<text text-anchor="start" x="352.5" y="-287.1" font-family="Roboto" font-size="8.00" fill="#000000"> </text>
</a>
</g>
</a>
</g>
</g>
<!-- c10817555 -->
<g id="node5" class="node">
<title>c10817555</title>
<g id="a_node5"><a xlink:href="GaussWeight.html" xlink:title="&lt;TABLE&gt;">
<g id="a_node5_5"><a xlink:href="GaussWeight.html" xlink:title="de.lmu.ifi.dbs.elki.math.linearalgebra.pca.weightfunctions.GaussWeight" target="_parent">
<polygon fill="none" stroke="#000000" points="287.5,-251.5 287.5,-268.5 348.5,-268.5 348.5,-251.5 287.5,-251.5"/>
<text text-anchor="start" x="291.5" y="-259.1" font-family="Roboto" font-size="8.00" fill="#000000"> </text>
<text text-anchor="start" x="294.5" y="-259.1" font-family="Roboto" font-size="8.00" fill="#000000">GaussWeight</text>
<text text-anchor="start" x="341.5" y="-259.1" font-family="Roboto" font-size="8.00" fill="#000000"> </text>
</a>
</g>
</a>
</g>
</g>
<!-- c10817556 -->
<g id="node6" class="node">
<title>c10817556</title>
<g id="a_node6"><a xlink:href="ErfcStddevWeight.html" xlink:title="&lt;TABLE&gt;">
<g id="a_node6_6"><a xlink:href="ErfcStddevWeight.html" xlink:title="de.lmu.ifi.dbs.elki.math.linearalgebra.pca.weightfunctions.ErfcStddevWeight" target="_parent">
<polygon fill="none" stroke="#000000" points="279.5,-223.5 279.5,-240.5 355.5,-240.5 355.5,-223.5 279.5,-223.5"/>
<text text-anchor="start" x="283.5" y="-231.1" font-family="Roboto" font-size="8.00" fill="#000000"> </text>
<text text-anchor="start" x="286.5" y="-231.1" font-family="Roboto" font-size="8.00" fill="#000000">ErfcStddevWeight</text>
<text text-anchor="start" x="348.5" y="-231.1" font-family="Roboto" font-size="8.00" fill="#000000"> </text>
</a>
</g>
</a>
</g>
</g>
<!-- c10817557 -->
<g id="node7" class="node">
<title>c10817557</title>
<g id="a_node7"><a xlink:href="ExponentialWeight.html" xlink:title="&lt;TABLE&gt;">
<g id="a_node7_7"><a xlink:href="ExponentialWeight.html" xlink:title="de.lmu.ifi.dbs.elki.math.linearalgebra.pca.weightfunctions.ExponentialWeight" target="_parent">
<polygon fill="none" stroke="#000000" points="278.5,-195.5 278.5,-212.5 357.5,-212.5 357.5,-195.5 278.5,-195.5"/>
<text text-anchor="start" x="282.5" y="-203.1" font-family="Roboto" font-size="8.00" fill="#000000"> </text>
<text text-anchor="start" x="285.5" y="-203.1" font-family="Roboto" font-size="8.00" fill="#000000">ExponentialWeight</text>
<text text-anchor="start" x="350.5" y="-203.1" font-family="Roboto" font-size="8.00" fill="#000000"> </text>
</a>
</g>
</a>
</g>
</g>
<!-- c10817558 -->
<g id="node8" class="node">
<title>c10817558</title>
<g id="a_node8"><a xlink:href="ExponentialStddevWeight.html" xlink:title="&lt;TABLE&gt;">
<g id="a_node8_8"><a xlink:href="ExponentialStddevWeight.html" xlink:title="de.lmu.ifi.dbs.elki.math.linearalgebra.pca.weightfunctions.ExponentialStddevWeight" target="_parent">
<polygon fill="none" stroke="#000000" points="266.5,-167.5 266.5,-184.5 368.5,-184.5 368.5,-167.5 266.5,-167.5"/>
<text text-anchor="start" x="270.5" y="-175.1" font-family="Roboto" font-size="8.00" fill="#000000"> </text>
<text text-anchor="start" x="273.5" y="-175.1" font-family="Roboto" font-size="8.00" fill="#000000">ExponentialStddevWeight</text>
<text text-anchor="start" x="361.5" y="-175.1" font-family="Roboto" font-size="8.00" fill="#000000"> </text>
</a>
</g>
</a>
</g>
</g>
<!-- c10817559&#45;&gt;c10817552 -->
<g id="edge2" class="edge">
<title>c10817559&#45;&gt;c10817552</title>
<path fill="none" stroke="#000000" stroke-dasharray="5,2" d="M205.664,-200.5325C214.4661,-239.2754 233.3399,-312.9768 253,-330.5 263.2648,-339.6491 278.0788,-343.2971 290.9215,-344.591"/>
<polygon fill="none" stroke="#000000" points="209.0442,-199.6091 203.4561,-190.6078 202.2112,-201.1292 209.0442,-199.6091"/>
</g>
<!-- c10817559&#45;&gt;c10817553 -->
<g id="edge3" class="edge">
<title>c10817559&#45;&gt;c10817553</title>
<path fill="none" stroke="#000000" stroke-dasharray="5,2" d="M203.7937,-200.7452C209.0189,-229.4671 222.009,-276.6672 253,-302.5 257.665,-306.3885 263.1629,-309.267 268.949,-311.387"/>
<polygon fill="none" stroke="#000000" points="207.2227,-200.0265 202.15,-190.7251 200.315,-201.1598 207.2227,-200.0265"/>
</g>
<!-- c10817559&#45;&gt;c10817554 -->
<g id="edge4" class="edge">
<title>c10817559&#45;&gt;c10817554</title>
<path fill="none" stroke="#000000" stroke-dasharray="5,2" d="M206.9904,-200.5222C214.3664,-223.1153 228.6584,-256.1347 253,-274.5 259.4945,-279.4 267.3479,-282.6589 275.3069,-284.8101"/>
<polygon fill="none" stroke="#000000" points="210.2529,-199.2205 203.994,-190.6721 203.5559,-201.2578 210.2529,-199.2205"/>
</g>
<!-- c10817559&#45;&gt;c10817555 -->
<g id="edge5" class="edge">
<title>c10817559&#45;&gt;c10817555</title>
<path fill="none" stroke="#000000" stroke-dasharray="5,2" d="M212.2141,-199.8114C221.2531,-215.4038 235.2128,-235.086 253,-246.5 263.0296,-252.936 275.5552,-256.4533 286.8935,-258.3611"/>
<polygon fill="none" stroke="#000000" points="215.1142,-197.8212 207.2318,-190.7419 208.979,-201.1916 215.1142,-197.8212"/>
</g>
<!-- c10817559&#45;&gt;c10817556 -->
<g id="edge6" class="edge">
<title>c10817559&#45;&gt;c10817556</title>
<path fill="none" stroke="#000000" stroke-dasharray="5,2" d="M222.0316,-197.4587C230.9779,-205.1204 241.8644,-213.1998 253,-218.5 261.1737,-222.3904 270.445,-225.213 279.3582,-227.2562"/>
<polygon fill="none" stroke="#000000" points="224.1937,-194.6965 214.4096,-190.6316 219.5232,-199.9107 224.1937,-194.6965"/>
</g>
<!-- c10817559&#45;&gt;c10817557 -->
<g id="edge7" class="edge">
<title>c10817559&#45;&gt;c10817557</title>
<path fill="none" stroke="#000000" stroke-dasharray="5,2" d="M244.9883,-188.5182C247.696,-189.2016 250.3825,-189.8673 253,-190.5 261.0193,-192.4384 269.6298,-194.3939 277.8646,-196.2035"/>
<polygon fill="none" stroke="#000000" points="245.7336,-185.096 235.1768,-185.9928 243.9887,-191.8751 245.7336,-185.096"/>
</g>
<!-- c10817559&#45;&gt;c10817558 -->
<g id="edge8" class="edge">
<title>c10817559&#45;&gt;c10817558</title>
<path fill="none" stroke="#000000" stroke-dasharray="5,2" d="M245.6061,-176.5C252.3389,-176.5 259.3218,-176.5 266.1715,-176.5"/>
<polygon fill="none" stroke="#000000" points="245.2871,-173.0001 235.2871,-176.5 245.287,-180.0001 245.2871,-173.0001"/>
</g>
<!-- c10817560 -->
<g id="node10" class="node">
<title>c10817560</title>
<g id="a_node10"><a xlink:href="LinearWeight.html" xlink:title="&lt;TABLE&gt;">
<g id="a_node10_9"><a xlink:href="LinearWeight.html" xlink:title="de.lmu.ifi.dbs.elki.math.linearalgebra.pca.weightfunctions.LinearWeight" target="_parent">
<polygon fill="none" stroke="#000000" points="287.5,-139.5 287.5,-156.5 348.5,-156.5 348.5,-139.5 287.5,-139.5"/>
<text text-anchor="start" x="291.5" y="-147.1" font-family="Roboto" font-size="8.00" fill="#000000"> </text>
<text text-anchor="start" x="294.5" y="-147.1" font-family="Roboto" font-size="8.00" fill="#000000">LinearWeight</text>
<text text-anchor="start" x="341.5" y="-147.1" font-family="Roboto" font-size="8.00" fill="#000000"> </text>
</a>
</g>
</a>
</g>
</g>
<!-- c10817559&#45;&gt;c10817560 -->
<g id="edge9" class="edge">
<title>c10817559&#45;&gt;c10817560</title>
<path fill="none" stroke="#000000" stroke-dasharray="5,2" d="M244.9883,-164.4818C247.696,-163.7984 250.3825,-163.1327 253,-162.5 264.0265,-159.8347 276.1708,-157.1371 286.9192,-154.8308"/>
<polygon fill="none" stroke="#000000" points="243.9887,-161.1249 235.1768,-167.0072 245.7336,-167.904 243.9887,-161.1249"/>
</g>
<!-- c10817561 -->
<g id="node11" class="node">
<title>c10817561</title>
<g id="a_node11"><a xlink:href="InverseProportionalWeight.html" xlink:title="&lt;TABLE&gt;">
<g id="a_node11_10"><a xlink:href="InverseProportionalWeight.html" xlink:title="de.lmu.ifi.dbs.elki.math.linearalgebra.pca.weightfunctions.InverseProportionalWeight" target="_parent">
<polygon fill="none" stroke="#000000" points="265.5,-111.5 265.5,-128.5 370.5,-128.5 370.5,-111.5 265.5,-111.5"/>
<text text-anchor="start" x="269.5" y="-119.1" font-family="Roboto" font-size="8.00" fill="#000000"> </text>
<text text-anchor="start" x="272.5" y="-119.1" font-family="Roboto" font-size="8.00" fill="#000000">InverseProportionalWeight</text>
<text text-anchor="start" x="363.5" y="-119.1" font-family="Roboto" font-size="8.00" fill="#000000"> </text>
</a>
</g>
</a>
</g>
</g>
<!-- c10817559&#45;&gt;c10817561 -->
<g id="edge10" class="edge">
<title>c10817559&#45;&gt;c10817561</title>
<path fill="none" stroke="#000000" stroke-dasharray="5,2" d="M222.0316,-155.5413C230.9779,-147.8796 241.8644,-139.8002 253,-134.5 257.449,-132.3824 262.2231,-130.5812 267.0877,-129.0499"/>
<polygon fill="none" stroke="#000000" points="219.5232,-153.0893 214.4096,-162.3684 224.1937,-158.3035 219.5232,-153.0893"/>
</g>
<!-- c10817562 -->
<g id="node12" class="node">
<title>c10817562</title>
<g id="a_node12"><a xlink:href="ConstantWeight.html" xlink:title="&lt;TABLE&gt;">
<g id="a_node12_11"><a xlink:href="ConstantWeight.html" xlink:title="de.lmu.ifi.dbs.elki.math.linearalgebra.pca.weightfunctions.ConstantWeight" target="_parent">
<polygon fill="none" stroke="#000000" points="283.5,-83.5 283.5,-100.5 352.5,-100.5 352.5,-83.5 283.5,-83.5"/>
<text text-anchor="start" x="287.5" y="-91.1" font-family="Roboto" font-size="8.00" fill="#000000"> </text>
<text text-anchor="start" x="290.5" y="-91.1" font-family="Roboto" font-size="8.00" fill="#000000">ConstantWeight</text>
<text text-anchor="start" x="345.5" y="-91.1" font-family="Roboto" font-size="8.00" fill="#000000"> </text>
</a>
</g>
</a>
</g>
</g>
<!-- c10817559&#45;&gt;c10817562 -->
<g id="edge11" class="edge">
<title>c10817559&#45;&gt;c10817562</title>
<path fill="none" stroke="#000000" stroke-dasharray="5,2" d="M212.2141,-153.1886C221.2531,-137.5962 235.2128,-117.914 253,-106.5 261.8724,-100.8066 272.6979,-97.3973 282.9269,-95.3656"/>
<polygon fill="none" stroke="#000000" points="208.979,-151.8084 207.2318,-162.2581 215.1142,-155.1788 208.979,-151.8084"/>
</g>
<!-- c10817563 -->
<g id="node13" class="node">
<title>c10817563</title>
<g id="a_node13"><a xlink:href="QuadraticWeight.html" xlink:title="&lt;TABLE&gt;">
<g id="a_node13_12"><a xlink:href="QuadraticWeight.html" xlink:title="de.lmu.ifi.dbs.elki.math.linearalgebra.pca.weightfunctions.QuadraticWeight" target="_parent">
<polygon fill="none" stroke="#000000" points="280.5,-55.5 280.5,-72.5 354.5,-72.5 354.5,-55.5 280.5,-55.5"/>
<text text-anchor="start" x="284.5" y="-63.1" font-family="Roboto" font-size="8.00" fill="#000000"> </text>
<text text-anchor="start" x="287.5" y="-63.1" font-family="Roboto" font-size="8.00" fill="#000000">QuadraticWeight</text>
<text text-anchor="start" x="347.5" y="-63.1" font-family="Roboto" font-size="8.00" fill="#000000"> </text>
</a>
</g>
</a>
</g>
</g>
<!-- c10817559&#45;&gt;c10817563 -->
<g id="edge12" class="edge">
<title>c10817559&#45;&gt;c10817563</title>
<path fill="none" stroke="#000000" stroke-dasharray="5,2" d="M206.9904,-152.4778C214.3664,-129.8847 228.6584,-96.8653 253,-78.5 260.8666,-72.5648 270.7269,-69.0373 280.3536,-66.9698"/>
<polygon fill="none" stroke="#000000" points="203.5559,-151.7422 203.994,-162.3279 210.2529,-153.7795 203.5559,-151.7422"/>
</g>
<!-- c10817564 -->
<g id="node14" class="node">
<title>c10817564</title>
<g id="a_node14"><a xlink:href="InverseProportionalStddevWeight.html" xlink:title="&lt;TABLE&gt;">
<g id="a_node14_13"><a xlink:href="InverseProportionalStddevWeight.html" xlink:title="de.lmu.ifi.dbs.elki.math.linearalgebra.pca.weightfunctions.InverseProportionalStddevWeight" target="_parent">
<polygon fill="none" stroke="#000000" points="253.5,-27.5 253.5,-44.5 382.5,-44.5 382.5,-27.5 253.5,-27.5"/>
<text text-anchor="start" x="257.5" y="-35.1" font-family="Roboto" font-size="8.00" fill="#000000"> </text>
<text text-anchor="start" x="260.5" y="-35.1" font-family="Roboto" font-size="8.00" fill="#000000">InverseProportionalStddevWeight</text>
<text text-anchor="start" x="375.5" y="-35.1" font-family="Roboto" font-size="8.00" fill="#000000"> </text>
</a>
</g>
</a>
</g>
</g>
<!-- c10817559&#45;&gt;c10817564 -->
<g id="edge13" class="edge">
<title>c10817559&#45;&gt;c10817564</title>
<path fill="none" stroke="#000000" stroke-dasharray="5,2" d="M203.7937,-152.2548C209.0189,-123.5329 222.009,-76.3328 253,-50.5 255.4645,-48.4457 258.1615,-46.6733 261.0107,-45.1457"/>
<polygon fill="none" stroke="#000000" points="200.315,-151.8402 202.15,-162.2749 207.2227,-152.9735 200.315,-151.8402"/>
</g>
<!-- c10817565 -->
<g id="node15" class="node">
<title>c10817565</title>
<g id="a_node15"><a xlink:href="InverseLinearWeight.html" xlink:title="&lt;TABLE&gt;">
<g id="a_node15_14"><a xlink:href="InverseLinearWeight.html" xlink:title="de.lmu.ifi.dbs.elki.math.linearalgebra.pca.weightfunctions.InverseLinearWeight" target="_parent">
<polygon fill="none" stroke="#000000" points="274.5,.5 274.5,-16.5 360.5,-16.5 360.5,.5 274.5,.5"/>
<text text-anchor="start" x="278.5" y="-7.1" font-family="Roboto" font-size="8.00" fill="#000000"> </text>
<text text-anchor="start" x="281.5" y="-7.1" font-family="Roboto" font-size="8.00" fill="#000000">InverseLinearWeight</text>
<text text-anchor="start" x="353.5" y="-7.1" font-family="Roboto" font-size="8.00" fill="#000000"> </text>
</a>
</g>
</a>
</g>
</g>
<!-- c10817559&#45;&gt;c10817565 -->
<g id="edge14" class="edge">
<title>c10817559&#45;&gt;c10817565</title>
<path fill="none" stroke="#000000" stroke-dasharray="5,2" d="M205.664,-152.4675C214.4661,-113.7246 233.3399,-40.0232 253,-22.5 258.9878,-17.163 266.5236,-13.6979 274.3131,-11.4801"/>
<polygon fill="none" stroke="#000000" points="202.2112,-151.8708 203.4561,-162.3922 209.0442,-153.3909 202.2112,-151.8708"/>
</g>
</g>
</svg>
