<?xml version="1.0" encoding="UTF-8" standalone="no"?>
<!DOCTYPE svg PUBLIC "-//W3C//DTD SVG 1.1//EN"
 "http://www.w3.org/Graphics/SVG/1.1/DTD/svg11.dtd">
<!-- Generated by graphviz version 2.40.1 (20161225.0304)
 -->
<!-- Title: G Pages: 1 -->
<svg width="501pt" height="70pt"
 viewBox="0.00 0.00 501.00 70.00" xmlns="http://www.w3.org/2000/svg" xmlns:xlink="http://www.w3.org/1999/xlink">
<g id="graph0" class="graph" transform="scale(1 1) rotate(0) translate(4 66)">
<title>G</title>
<polygon fill="#ffffff" stroke="transparent" points="-4,4 -4,-66 497,-66 497,4 -4,4"/>
<!-- c4543765 -->
<g id="node1" class="node">
<title>c4543765</title>
<g id="a_node1"><a xlink:href="NormalizedSimilarityFunction.html" xlink:title="&lt;TABLE&gt;">
<g id="a_node1_0"><a xlink:href="NormalizedSimilarityFunction.html" xlink:title="de.lmu.ifi.dbs.elki.distance.similarityfunction.NormalizedSimilarityFunction" target="_parent">
<polygon fill="none" stroke="#000000" points="14,-34 14,-62 134,-62 134,-34 14,-34"/>
<text text-anchor="start" x="52.5" y="-51.6" font-family="Roboto" font-size="8.00" fill="#000000"> «interface» </text>
<text text-anchor="start" x="18" y="-41.6" font-family="Roboto" font-size="8.00" fill="#000000"> </text>
<text text-anchor="start" x="21" y="-41.6" font-family="Roboto" font-size="8.00" fill="#000000">NormalizedSimilarityFunction</text>
<text text-anchor="start" x="127" y="-41.6" font-family="Roboto" font-size="8.00" fill="#000000"> </text>
</a>
</g>
</a>
</g>
</g>
<!-- c4545152 -->
<g id="node3" class="node">
<title>c4545152</title>
<g id="a_node3"><a xlink:href="FractionalSharedNearestNeighborSimilarityFunction.html" xlink:title="&lt;TABLE&gt;">
<g id="a_node3_1"><a xlink:href="FractionalSharedNearestNeighborSimilarityFunction.html" xlink:title="de.lmu.ifi.dbs.elki.distance.similarityfunction.FractionalSharedNearestNeighborSimilarityFunction" target="_parent">
<polygon fill="#fffacd" stroke="transparent" points="166,-5.5 166,-22.5 364,-22.5 364,-5.5 166,-5.5"/>
<polygon fill="none" stroke="#000000" points="166,-5 166,-22 364,-22 364,-5 166,-5"/>
<text text-anchor="start" x="170" y="-12.6" font-family="Roboto" font-size="8.00" fill="#000000"> </text>
<text text-anchor="start" x="173" y="-12.6" font-family="Roboto" font-size="8.00" fill="#000000">FractionalSharedNearestNeighborSimilarityFunction</text>
<text text-anchor="start" x="357" y="-12.6" font-family="Roboto" font-size="8.00" fill="#000000"> </text>
</a>
</g>
</a>
</g>
</g>
<!-- c4543765&#45;&gt;c4545152 -->
<g id="edge2" class="edge">
<title>c4543765&#45;&gt;c4545152</title>
<path fill="none" stroke="#000000" stroke-dasharray="5,2" d="M144.0755,-35.5258C168.4083,-31.1943 195.116,-26.4401 217.2285,-22.5038"/>
<polygon fill="none" stroke="#000000" points="143.4032,-32.0904 134.1714,-37.2889 144.6301,-38.9821 143.4032,-32.0904"/>
</g>
<!-- c4544843 -->
<g id="node2" class="node">
<title>c4544843</title>
<g id="a_node2"><a xlink:href="AbstractIndexBasedSimilarityFunction.html" xlink:title="&lt;TABLE&gt;">
<g id="a_node2_2"><a xlink:href="AbstractIndexBasedSimilarityFunction.html" xlink:title="de.lmu.ifi.dbs.elki.distance.similarityfunction.AbstractIndexBasedSimilarityFunction" target="_parent">
<polygon fill="none" stroke="#000000" points="0,-5 0,-22 148,-22 148,-5 0,-5"/>
<text text-anchor="start" x="4" y="-12.6" font-family="Roboto" font-size="8.00" fill="#000000"> </text>
<text text-anchor="start" x="7" y="-12.6" font-family="Roboto" font-style="italic" font-size="8.00" fill="#000000">AbstractIndexBasedSimilarityFunction</text>
<text text-anchor="start" x="141" y="-12.6" font-family="Roboto" font-size="8.00" fill="#000000"> </text>
</a>
</g>
</a>
</g>
</g>
<!-- c4544843&#45;&gt;c4545152 -->
<g id="edge1" class="edge">
<title>c4544843&#45;&gt;c4545152</title>
<path fill="none" stroke="#000000" d="M158.1193,-14C160.7312,-14 163.3546,-14 165.9815,-14"/>
<polygon fill="none" stroke="#000000" points="158.119,-10.5001 148.119,-14 158.1189,-17.5001 158.119,-10.5001"/>
</g>
<!-- c4545858 -->
<g id="node4" class="node">
<title>c4545858</title>
<g id="a_node4_3"><a xlink:href="http://docs.oracle.com/javase/7/docs/api/SharedNearestNeighborIndex.Factory.html" xlink:title="SharedNearestNeighborIndex.Factory" target="_parent">
<polygon fill="none" stroke="#000000" points="382.5,0 382.5,-28 493.5,-28 493.5,0 382.5,0"/>
<text text-anchor="start" x="422" y="-18.6" font-family="Roboto" font-size="8.00" fill="#000000"> </text>
<text text-anchor="start" x="425" y="-18.6" font-family="Roboto" font-size="8.00" fill="#000000">Factory</text>
<text text-anchor="start" x="451" y="-18.6" font-family="Roboto" font-size="8.00" fill="#000000"> </text>
<text text-anchor="start" x="386.5" y="-7.6" font-family="Roboto" font-size="8.00" fill="#000000"> </text>
<text text-anchor="start" x="389.5" y="-7.6" font-family="Roboto" font-size="7.00" fill="#000000">SharedNearestNeighborIndex</text>
<text text-anchor="start" x="486.5" y="-7.6" font-family="Roboto" font-size="8.00" fill="#000000"> </text>
</a>
</g>
</g>
<!-- c4545152&#45;&gt;c4545858 -->
<g id="edge3" class="edge">
<title>c4545152&#45;&gt;c4545858</title>
<path fill="none" stroke="#000000" d="M376.324,-14C376.4379,-14 376.5518,-14 376.6656,-14"/>
<polygon fill="none" stroke="#000000" points="376.0943,-14.0001 370.0943,-18 364.0943,-14 370.0944,-10 376.0943,-14.0001"/>
<polygon fill="#000000" stroke="#000000" points="381.7399,-14 371.7399,-18.5002 376.7399,-14.0001 371.7399,-14.0002 371.7399,-14.0002 371.7399,-14.0002 376.7399,-14.0001 371.7398,-9.5002 381.7399,-14 381.7399,-14"/>
</g>
</g>
</svg>
