<?xml version="1.0" encoding="UTF-8" standalone="no"?>
<!DOCTYPE svg PUBLIC "-//W3C//DTD SVG 1.1//EN"
 "http://www.w3.org/Graphics/SVG/1.1/DTD/svg11.dtd">
<!-- Generated by graphviz version 2.40.1 (20161225.0304)
 -->
<!-- Title: G Pages: 1 -->
<svg width="448pt" height="47pt"
 viewBox="0.00 0.00 448.00 47.00" xmlns="http://www.w3.org/2000/svg" xmlns:xlink="http://www.w3.org/1999/xlink">
<g id="graph0" class="graph" transform="scale(1 1) rotate(0) translate(4 43)">
<title>G</title>
<polygon fill="#ffffff" stroke="transparent" points="-4,4 -4,-43 444,-43 444,4 -4,4"/>
<!-- c5525324 -->
<g id="node1" class="node">
<title>c5525324</title>
<g id="a_node1"><a xlink:href="../distancefunction/PrimitiveDistanceFunction.html" xlink:title="&lt;TABLE&gt;">
<g id="a_node1_0"><a xlink:href="../distancefunction/PrimitiveDistanceFunction.html" xlink:title="de.lmu.ifi.dbs.elki.distance.distancefunction.PrimitiveDistanceFunction" target="_parent">
<polygon fill="#fffacd" stroke="transparent" points="282,0 282,-39 440,-39 440,0 282,0"/>
<polygon fill="none" stroke="#000000" points="282,.5 282,-38.5 440,-38.5 440,.5 282,.5"/>
<text text-anchor="start" x="339.5" y="-28.1" font-family="Roboto" font-size="8.00" fill="#000000"> «interface» </text>
<text text-anchor="start" x="312" y="-18.1" font-family="Roboto" font-size="8.00" fill="#000000"> </text>
<text text-anchor="start" x="315" y="-18.1" font-family="Roboto" font-size="8.00" fill="#000000">PrimitiveDistanceFunction</text>
<text text-anchor="start" x="407" y="-18.1" font-family="Roboto" font-size="8.00" fill="#000000"> </text>
<text text-anchor="start" x="286" y="-7.1" font-family="Roboto" font-size="8.00" fill="#000000"> </text>
<text text-anchor="start" x="289" y="-7.1" font-family="Roboto" font-size="7.00" fill="#000000">de.lmu.ifi.dbs.elki.distance.distancefunction</text>
<text text-anchor="start" x="433" y="-7.1" font-family="Roboto" font-size="8.00" fill="#000000"> </text>
</a>
</g>
</a>
</g>
</g>
<!-- c5525331 -->
<g id="node2" class="node">
<title>c5525331</title>
<g id="a_node2"><a xlink:href="PrimitiveSimilarityFunction.html" xlink:title="&lt;TABLE&gt;">
<g id="a_node2_1"><a xlink:href="PrimitiveSimilarityFunction.html" xlink:title="de.lmu.ifi.dbs.elki.distance.similarityfunction.PrimitiveSimilarityFunction" target="_parent">
<polygon fill="#fffacd" stroke="transparent" points="0,-5.5 0,-33.5 109,-33.5 109,-5.5 0,-5.5"/>
<polygon fill="none" stroke="#000000" points=".5,-5.5 .5,-33.5 109.5,-33.5 109.5,-5.5 .5,-5.5"/>
<text text-anchor="start" x="33.5" y="-23.1" font-family="Roboto" font-size="8.00" fill="#000000"> «interface» </text>
<text text-anchor="start" x="4.5" y="-13.1" font-family="Roboto" font-size="8.00" fill="#000000"> </text>
<text text-anchor="start" x="7.5" y="-13.1" font-family="Roboto" font-size="8.00" fill="#000000">PrimitiveSimilarityFunction</text>
<text text-anchor="start" x="102.5" y="-13.1" font-family="Roboto" font-size="8.00" fill="#000000"> </text>
</a>
</g>
</a>
</g>
</g>
<!-- c5525786 -->
<g id="node3" class="node">
<title>c5525786</title>
<g id="a_node3"><a xlink:href="InvertedDistanceSimilarityFunction.html" xlink:title="&lt;TABLE&gt;">
<g id="a_node3_2"><a xlink:href="InvertedDistanceSimilarityFunction.html" xlink:title="de.lmu.ifi.dbs.elki.distance.similarityfunction.InvertedDistanceSimilarityFunction" target="_parent">
<polygon fill="#fffacd" stroke="transparent" points="127,-11 127,-28 264,-28 264,-11 127,-11"/>
<polygon fill="none" stroke="#000000" points="127.5,-10.5 127.5,-27.5 264.5,-27.5 264.5,-10.5 127.5,-10.5"/>
<text text-anchor="start" x="131.5" y="-18.1" font-family="Roboto" font-size="8.00" fill="#000000"> </text>
<text text-anchor="start" x="134.5" y="-18.1" font-family="Roboto" font-size="8.00" fill="#000000">InvertedDistanceSimilarityFunction</text>
<text text-anchor="start" x="257.5" y="-18.1" font-family="Roboto" font-size="8.00" fill="#000000"> </text>
</a>
</g>
</a>
</g>
</g>
<!-- c5525331&#45;&gt;c5525786 -->
<g id="edge1" class="edge">
<title>c5525331&#45;&gt;c5525786</title>
<path fill="none" stroke="#000000" stroke-dasharray="5,2" d="M119.0707,-19.5C121.7004,-19.5 124.3411,-19.5 126.9781,-19.5"/>
<polygon fill="none" stroke="#000000" points="119.0143,-16.0001 109.0143,-19.5 119.0142,-23.0001 119.0143,-16.0001"/>
</g>
<!-- c5525786&#45;&gt;c5525324 -->
<g id="edge2" class="edge">
<title>c5525786&#45;&gt;c5525324</title>
<path fill="none" stroke="#000000" d="M264.2491,-19.5C266.6845,-19.5 269.1365,-19.5 271.5964,-19.5"/>
<polygon fill="#000000" stroke="#000000" points="281.7312,-19.5 271.7312,-24.0001 276.7312,-19.5 271.7312,-19.5001 271.7312,-19.5001 271.7312,-19.5001 276.7312,-19.5 271.7312,-15.0001 281.7312,-19.5 281.7312,-19.5"/>
</g>
</g>
</svg>
