<?xml version="1.0" encoding="UTF-8" standalone="no"?>
<!DOCTYPE svg PUBLIC "-//W3C//DTD SVG 1.1//EN"
 "http://www.w3.org/Graphics/SVG/1.1/DTD/svg11.dtd">
<!-- Generated by graphviz version 2.40.1 (20161225.0304)
 -->
<!-- Title: G Pages: 1 -->
<svg width="618pt" height="108pt"
 viewBox="0.00 0.00 618.00 107.56" xmlns="http://www.w3.org/2000/svg" xmlns:xlink="http://www.w3.org/1999/xlink">
<g id="graph0" class="graph" transform="scale(1 1) rotate(0) translate(4 103.5604)">
<title>G</title>
<polygon fill="#ffffff" stroke="transparent" points="-4,4 -4,-103.5604 614,-103.5604 614,4 -4,4"/>
<!-- c1235434 -->
<g id="node1" class="node">
<title>c1235434</title>
<g id="a_node1"><a xlink:href="../../utilities/optionhandling/parameters/Parameter.html" xlink:title="&lt;TABLE&gt;">
<g id="a_node1_0"><a xlink:href="../../utilities/optionhandling/parameters/Parameter.html" xlink:title="de.lmu.ifi.dbs.elki.utilities.optionhandling.parameters.Parameter" target="_parent">
<polygon fill="none" stroke="#000000" points="421.5,-55 421.5,-94 610.5,-94 610.5,-55 421.5,-55"/>
<text text-anchor="start" x="494.5" y="-83.6" font-family="Roboto" font-size="8.00" fill="#000000"> «interface» </text>
<text text-anchor="start" x="494.5" y="-73.6" font-family="Roboto" font-size="8.00" fill="#000000"> </text>
<text text-anchor="start" x="497.5" y="-73.6" font-family="Roboto" font-size="8.00" fill="#000000">Parameter</text>
<text text-anchor="start" x="534.5" y="-73.6" font-family="Roboto" font-size="8.00" fill="#000000"> </text>
<text text-anchor="start" x="425.5" y="-62.6" font-family="Roboto" font-size="8.00" fill="#000000"> </text>
<text text-anchor="start" x="428.5" y="-62.6" font-family="Roboto" font-size="7.00" fill="#000000">de.lmu.ifi.dbs.elki.utilities.optionhandling.parameters</text>
<text text-anchor="start" x="603.5" y="-62.6" font-family="Roboto" font-size="8.00" fill="#000000"> </text>
</a>
</g>
</a>
</g>
</g>
<!-- c1235749 -->
<g id="node2" class="node">
<title>c1235749</title>
<g id="a_node2"><a xlink:href="ParameterConfigurator.html" xlink:title="&lt;TABLE&gt;">
<g id="a_node2_1"><a xlink:href="ParameterConfigurator.html" xlink:title="de.lmu.ifi.dbs.elki.gui.configurator.ParameterConfigurator" target="_parent">
<polygon fill="none" stroke="#000000" points="0,-34 0,-62 94,-62 94,-34 0,-34"/>
<text text-anchor="start" x="25.5" y="-51.6" font-family="Roboto" font-size="8.00" fill="#000000"> «interface» </text>
<text text-anchor="start" x="4" y="-41.6" font-family="Roboto" font-size="8.00" fill="#000000"> </text>
<text text-anchor="start" x="7" y="-41.6" font-family="Roboto" font-size="8.00" fill="#000000">ParameterConfigurator</text>
<text text-anchor="start" x="87" y="-41.6" font-family="Roboto" font-size="8.00" fill="#000000"> </text>
</a>
</g>
</a>
</g>
</g>
<!-- c1235751 -->
<g id="node3" class="node">
<title>c1235751</title>
<g id="a_node3"><a xlink:href="AbstractParameterConfigurator.html" xlink:title="&lt;TABLE&gt;">
<g id="a_node3_2"><a xlink:href="AbstractParameterConfigurator.html" xlink:title="de.lmu.ifi.dbs.elki.gui.configurator.AbstractParameterConfigurator" target="_parent">
<polygon fill="#fffacd" stroke="transparent" points="112,-39.5 112,-56.5 238,-56.5 238,-39.5 112,-39.5"/>
<polygon fill="none" stroke="#000000" points="112,-39 112,-56 238,-56 238,-39 112,-39"/>
<text text-anchor="start" x="116" y="-46.6" font-family="Roboto" font-size="8.00" fill="#000000"> </text>
<text text-anchor="start" x="119" y="-46.6" font-family="Roboto" font-style="italic" font-size="8.00" fill="#000000">AbstractParameterConfigurator</text>
<text text-anchor="start" x="231" y="-46.6" font-family="Roboto" font-size="8.00" fill="#000000"> </text>
</a>
</g>
</a>
</g>
</g>
<!-- c1235749&#45;&gt;c1235751 -->
<g id="edge1" class="edge">
<title>c1235749&#45;&gt;c1235751</title>
<path fill="none" stroke="#000000" stroke-dasharray="5,2" d="M104.332,-48C106.8002,-48 109.2817,-48 111.7617,-48"/>
<polygon fill="none" stroke="#000000" points="104.2988,-44.5001 94.2988,-48 104.2988,-51.5001 104.2988,-44.5001"/>
</g>
<!-- c1235751&#45;&gt;c1235434 -->
<g id="edge5" class="edge">
<title>c1235751&#45;&gt;c1235434</title>
<path fill="none" stroke="#000000" stroke-dasharray="5,2" d="M186.8899,-56.5136C202.0643,-66.8047 229.5299,-83.5454 256,-90 306.0384,-102.2016 363.0386,-100.5421 410.8474,-94.9557"/>
<polygon fill="#000000" stroke="#000000" points="420.9039,-93.7076 411.5343,-99.405 415.942,-94.3234 410.98,-94.9393 410.98,-94.9393 410.98,-94.9393 415.942,-94.3234 410.4257,-90.4736 420.9039,-93.7076 420.9039,-93.7076"/>
</g>
<!-- c1235755 -->
<g id="node4" class="node">
<title>c1235755</title>
<g id="a_node4"><a xlink:href="FlagParameterConfigurator.html" xlink:title="&lt;TABLE&gt;">
<g id="a_node4_3"><a xlink:href="FlagParameterConfigurator.html" xlink:title="de.lmu.ifi.dbs.elki.gui.configurator.FlagParameterConfigurator" target="_parent">
<polygon fill="none" stroke="#000000" points="274.5,-67 274.5,-84 384.5,-84 384.5,-67 274.5,-67"/>
<text text-anchor="start" x="278.5" y="-74.6" font-family="Roboto" font-size="8.00" fill="#000000"> </text>
<text text-anchor="start" x="281.5" y="-74.6" font-family="Roboto" font-size="8.00" fill="#000000">FlagParameterConfigurator</text>
<text text-anchor="start" x="377.5" y="-74.6" font-family="Roboto" font-size="8.00" fill="#000000"> </text>
</a>
</g>
</a>
</g>
</g>
<!-- c1235751&#45;&gt;c1235755 -->
<g id="edge3" class="edge">
<title>c1235751&#45;&gt;c1235755</title>
<path fill="none" stroke="#000000" d="M232.3075,-58.3858C248.87,-61.3874 266.7453,-64.627 282.5944,-67.4993"/>
<polygon fill="none" stroke="#000000" points="232.6585,-54.8925 222.1946,-56.5531 231.4102,-61.7803 232.6585,-54.8925"/>
</g>
<!-- c1235756 -->
<g id="node5" class="node">
<title>c1235756</title>
<g id="a_node5"><a xlink:href="AbstractSingleParameterConfigurator.html" xlink:title="&lt;TABLE&gt;">
<g id="a_node5_4"><a xlink:href="AbstractSingleParameterConfigurator.html" xlink:title="de.lmu.ifi.dbs.elki.gui.configurator.AbstractSingleParameterConfigurator" target="_parent">
<polygon fill="none" stroke="#000000" points="256.5,-39 256.5,-56 403.5,-56 403.5,-39 256.5,-39"/>
<text text-anchor="start" x="260.5" y="-46.6" font-family="Roboto" font-size="8.00" fill="#000000"> </text>
<text text-anchor="start" x="263.5" y="-46.6" font-family="Roboto" font-style="italic" font-size="8.00" fill="#000000">AbstractSingleParameterConfigurator</text>
<text text-anchor="start" x="396.5" y="-46.6" font-family="Roboto" font-size="8.00" fill="#000000"> </text>
</a>
</g>
</a>
</g>
</g>
<!-- c1235751&#45;&gt;c1235756 -->
<g id="edge4" class="edge">
<title>c1235751&#45;&gt;c1235756</title>
<path fill="none" stroke="#000000" d="M248.4875,-48C250.9824,-48 253.4827,-48 255.9777,-48"/>
<polygon fill="none" stroke="#000000" points="248.2869,-44.5001 238.2868,-48 248.2868,-51.5001 248.2869,-44.5001"/>
</g>
<!-- c1235759 -->
<g id="node6" class="node">
<title>c1235759</title>
<g id="a_node6"><a xlink:href="../icons/StockIcon.html" xlink:title="&lt;TABLE&gt;">
<g id="a_node6_5"><a xlink:href="../icons/StockIcon.html" xlink:title="de.lmu.ifi.dbs.elki.gui.icons.StockIcon" target="_parent">
<polygon fill="#fffacd" stroke="transparent" points="278,0 278,-28 381,-28 381,0 278,0"/>
<polygon fill="none" stroke="#000000" points="278.5,0 278.5,-28 381.5,-28 381.5,0 278.5,0"/>
<text text-anchor="start" x="310" y="-18.6" font-family="Roboto" font-size="8.00" fill="#000000"> </text>
<text text-anchor="start" x="313" y="-18.6" font-family="Roboto" font-size="8.00" fill="#000000">StockIcon</text>
<text text-anchor="start" x="347" y="-18.6" font-family="Roboto" font-size="8.00" fill="#000000"> </text>
<text text-anchor="start" x="282.5" y="-7.6" font-family="Roboto" font-size="8.00" fill="#000000"> </text>
<text text-anchor="start" x="285.5" y="-7.6" font-family="Roboto" font-size="7.00" fill="#000000">de.lmu.ifi.dbs.elki.gui.icons</text>
<text text-anchor="start" x="374.5" y="-7.6" font-family="Roboto" font-size="8.00" fill="#000000"> </text>
</a>
</g>
</a>
</g>
</g>
<!-- c1235751&#45;&gt;c1235759 -->
<g id="edge2" class="edge">
<title>c1235751&#45;&gt;c1235759</title>
<path fill="none" stroke="#000000" d="M225.7928,-36.8223C242.537,-33.1375 261.1675,-29.0376 277.9665,-25.3407"/>
<polygon fill="none" stroke="#000000" points="225.7065,-36.8412 220.7064,-42.0373 213.9869,-39.4204 218.9869,-34.2243 225.7065,-36.8412"/>
</g>
<!-- c1235756&#45;&gt;c1235434 -->
<g id="edge6" class="edge">
<title>c1235756&#45;&gt;c1235434</title>
<path fill="none" stroke="#000000" stroke-dasharray="5,2" d="M388.0963,-56.5059C395.4337,-57.571 403.1038,-58.6844 410.8841,-59.8138"/>
<polygon fill="#000000" stroke="#000000" points="420.7812,-61.2505 410.2385,-64.2672 415.8331,-60.5322 410.885,-59.8139 410.885,-59.8139 410.885,-59.8139 415.8331,-60.5322 411.5315,-55.3605 420.7812,-61.2505 420.7812,-61.2505"/>
</g>
</g>
</svg>
