<?xml version="1.0" encoding="UTF-8" standalone="no"?>
<!DOCTYPE svg PUBLIC "-//W3C//DTD SVG 1.1//EN"
 "http://www.w3.org/Graphics/SVG/1.1/DTD/svg11.dtd">
<!-- Generated by graphviz version 2.40.1 (20161225.0304)
 -->
<!-- Title: G Pages: 1 -->
<svg width="469pt" height="36pt"
 viewBox="0.00 0.00 469.00 36.00" xmlns="http://www.w3.org/2000/svg" xmlns:xlink="http://www.w3.org/1999/xlink">
<g id="graph0" class="graph" transform="scale(1 1) rotate(0) translate(4 32)">
<title>G</title>
<polygon fill="#ffffff" stroke="transparent" points="-4,4 -4,-32 465,-32 465,4 -4,4"/>
<!-- c4451926 -->
<g id="node1" class="node">
<title>c4451926</title>
<g id="a_node1"><a xlink:href="../../utilities/optionhandling/parameters/Flag.html" xlink:title="&lt;TABLE&gt;">
<g id="a_node1_0"><a xlink:href="../../utilities/optionhandling/parameters/Flag.html" xlink:title="de.lmu.ifi.dbs.elki.utilities.optionhandling.parameters.Flag" target="_parent">
<polygon fill="none" stroke="#000000" points="272.5,0 272.5,-28 461.5,-28 461.5,0 272.5,0"/>
<text text-anchor="start" x="356" y="-18.6" font-family="Roboto" font-size="8.00" fill="#000000"> </text>
<text text-anchor="start" x="359" y="-18.6" font-family="Roboto" font-size="8.00" fill="#000000">Flag</text>
<text text-anchor="start" x="375" y="-18.6" font-family="Roboto" font-size="8.00" fill="#000000"> </text>
<text text-anchor="start" x="276.5" y="-7.6" font-family="Roboto" font-size="8.00" fill="#000000"> </text>
<text text-anchor="start" x="279.5" y="-7.6" font-family="Roboto" font-size="7.00" fill="#000000">de.lmu.ifi.dbs.elki.utilities.optionhandling.parameters</text>
<text text-anchor="start" x="454.5" y="-7.6" font-family="Roboto" font-size="8.00" fill="#000000"> </text>
</a>
</g>
</a>
</g>
</g>
<!-- c4452240 -->
<g id="node2" class="node">
<title>c4452240</title>
<g id="a_node2"><a xlink:href="AbstractParameterConfigurator.html" xlink:title="&lt;TABLE&gt;">
<g id="a_node2_1"><a xlink:href="AbstractParameterConfigurator.html" xlink:title="de.lmu.ifi.dbs.elki.gui.configurator.AbstractParameterConfigurator" target="_parent">
<polygon fill="none" stroke="#000000" points="0,-5 0,-22 126,-22 126,-5 0,-5"/>
<text text-anchor="start" x="4" y="-12.6" font-family="Roboto" font-size="8.00" fill="#000000"> </text>
<text text-anchor="start" x="7" y="-12.6" font-family="Roboto" font-style="italic" font-size="8.00" fill="#000000">AbstractParameterConfigurator</text>
<text text-anchor="start" x="119" y="-12.6" font-family="Roboto" font-size="8.00" fill="#000000"> </text>
</a>
</g>
</a>
</g>
</g>
<!-- c4452244 -->
<g id="node3" class="node">
<title>c4452244</title>
<g id="a_node3"><a xlink:href="FlagParameterConfigurator.html" xlink:title="&lt;TABLE&gt;">
<g id="a_node3_2"><a xlink:href="FlagParameterConfigurator.html" xlink:title="de.lmu.ifi.dbs.elki.gui.configurator.FlagParameterConfigurator" target="_parent">
<polygon fill="#fffacd" stroke="transparent" points="144,-5.5 144,-22.5 254,-22.5 254,-5.5 144,-5.5"/>
<polygon fill="none" stroke="#000000" points="144,-5 144,-22 254,-22 254,-5 144,-5"/>
<text text-anchor="start" x="148" y="-12.6" font-family="Roboto" font-size="8.00" fill="#000000"> </text>
<text text-anchor="start" x="151" y="-12.6" font-family="Roboto" font-size="8.00" fill="#000000">FlagParameterConfigurator</text>
<text text-anchor="start" x="247" y="-12.6" font-family="Roboto" font-size="8.00" fill="#000000"> </text>
</a>
</g>
</a>
</g>
</g>
<!-- c4452240&#45;&gt;c4452244 -->
<g id="edge1" class="edge">
<title>c4452240&#45;&gt;c4452244</title>
<path fill="none" stroke="#000000" d="M136.3419,-14C138.7987,-14 141.2462,-14 143.6713,-14"/>
<polygon fill="none" stroke="#000000" points="136.2223,-10.5001 126.2223,-14 136.2222,-17.5001 136.2223,-10.5001"/>
</g>
<!-- c4452244&#45;&gt;c4451926 -->
<g id="edge2" class="edge">
<title>c4452244&#45;&gt;c4451926</title>
<path fill="none" stroke="#000000" d="M254.31,-14C260.0274,-14 265.9456,-14 271.9388,-14"/>
</g>
</g>
</svg>
