<?xml version="1.0" encoding="UTF-8" standalone="no"?><svg xmlns="http://www.w3.org/2000/svg" xmlns:xlink="http://www.w3.org/1999/xlink" contentStyleType="text/css" height="266px" preserveAspectRatio="none" style="width:359px;height:266px;background:#FFFFFF;" version="1.1" viewBox="0 0 359 266" width="359px" zoomAndPan="magnify"><defs/><g><!--MD5=[99f256a84f18cd88584cea28170ed697]
class elki.utilities.exceptions.ClassInstantiationException--><a href="ClassInstantiationException.html" target="_top" title="ClassInstantiationException.html" xlink:actuate="onRequest" xlink:href="ClassInstantiationException.html" xlink:show="new" xlink:title="ClassInstantiationException.html" xlink:type="simple"><g id="elem_elki.utilities.exceptions.ClassInstantiationException"><rect codeLine="6" fill="#F1F1F1" height="135.4219" id="elki.utilities.exceptions.ClassInstantiationException" rx="2.5" ry="2.5" style="stroke:#181818;stroke-width:0.5;" width="345" x="7" y="105"/><ellipse cx="80.75" cy="123.9688" fill="#ADD1B2" rx="11" ry="11" style="stroke:#181818;stroke-width:1.0;"/><path d="M83.7188,129.6094 Q83.1406,129.9063 82.5,130.0469 Q81.8594,130.2031 81.1563,130.2031 Q78.6563,130.2031 77.3281,128.5625 Q76.0156,126.9063 76.0156,123.7813 Q76.0156,120.6563 77.3281,119 Q78.6563,117.3438 81.1563,117.3438 Q81.8594,117.3438 82.5,117.5 Q83.1563,117.6563 83.7188,117.9531 L83.7188,120.6719 Q83.0938,120.0938 82.5,119.8281 Q81.9063,119.5469 81.2813,119.5469 Q79.9375,119.5469 79.25,120.625 Q78.5625,121.6875 78.5625,123.7813 Q78.5625,125.875 79.25,126.9531 Q79.9375,128.0156 81.2813,128.0156 Q81.9063,128.0156 82.5,127.75 Q83.0938,127.4688 83.7188,126.8906 L83.7188,129.6094 Z " fill="#000000"/><text fill="#000000" font-family="sans-serif" font-size="14" lengthAdjust="spacing" textLength="189" x="101.25" y="122.9951">ClassInstantiationException</text><text fill="#000000" font-family="sans-serif" font-size="10" lengthAdjust="spacing" textLength="106" x="142.75" y="135.5791">elki.utilities.exceptions</text><line style="stroke:#181818;stroke-width:0.5;" x1="8" x2="351" y1="142.9375" y2="142.9375"/><rect fill="none" height="6" style="stroke:#C82930;stroke-width:1.0;" width="6" x="15" y="153.5859"/><text fill="#000000" font-family="sans-serif" font-size="14" lengthAdjust="spacing" text-decoration="underline" textLength="151" x="27" y="159.9326">serialVersionUID: long</text><line style="stroke:#181818;stroke-width:0.5;" x1="8" x2="351" y1="167.2344" y2="167.2344"/><ellipse cx="18" cy="180.8828" fill="#84BE84" rx="3" ry="3" style="stroke:#038048;stroke-width:1.0;"/><text fill="#000000" font-family="sans-serif" font-size="14" lengthAdjust="spacing" textLength="199" x="27" y="184.2295">ClassInstantiationException()</text><ellipse cx="18" cy="197.1797" fill="#84BE84" rx="3" ry="3" style="stroke:#038048;stroke-width:1.0;"/><text fill="#000000" font-family="sans-serif" font-size="14" lengthAdjust="spacing" textLength="239" x="27" y="200.5264">ClassInstantiationException(String)</text><ellipse cx="18" cy="213.4766" fill="#84BE84" rx="3" ry="3" style="stroke:#038048;stroke-width:1.0;"/><text fill="#000000" font-family="sans-serif" font-size="14" lengthAdjust="spacing" textLength="271" x="27" y="216.8232">ClassInstantiationException(Throwable)</text><ellipse cx="18" cy="229.7734" fill="#84BE84" rx="3" ry="3" style="stroke:#038048;stroke-width:1.0;"/><text fill="#000000" font-family="sans-serif" font-size="14" lengthAdjust="spacing" textLength="319" x="27" y="233.1201">ClassInstantiationException(String, Throwable)</text></g></a><!--MD5=[5ef02dca109d1a4f4d4642e8503ad6a0]
class java.lang.ReflectiveOperationException--><g id="elem_java.lang.ReflectiveOperationException"><rect codeLine="14" fill="#F1F1F1" height="37.9375" id="java.lang.ReflectiveOperationException" rx="2.5" ry="2.5" style="stroke:#181818;stroke-width:0.5;" width="235" x="62" y="7"/><ellipse cx="77" cy="25.9688" fill="#ADD1B2" rx="11" ry="11" style="stroke:#181818;stroke-width:1.0;"/><path d="M79.9688,31.6094 Q79.3906,31.9063 78.75,32.0469 Q78.1094,32.2031 77.4063,32.2031 Q74.9063,32.2031 73.5781,30.5625 Q72.2656,28.9063 72.2656,25.7813 Q72.2656,22.6563 73.5781,21 Q74.9063,19.3438 77.4063,19.3438 Q78.1094,19.3438 78.75,19.5 Q79.4063,19.6563 79.9688,19.9531 L79.9688,22.6719 Q79.3438,22.0938 78.75,21.8281 Q78.1563,21.5469 77.5313,21.5469 Q76.1875,21.5469 75.5,22.625 Q74.8125,23.6875 74.8125,25.7813 Q74.8125,27.875 75.5,28.9531 Q76.1875,30.0156 77.5313,30.0156 Q78.1563,30.0156 78.75,29.75 Q79.3438,29.4688 79.9688,28.8906 L79.9688,31.6094 Z " fill="#000000"/><text fill="#000000" font-family="sans-serif" font-size="14" lengthAdjust="spacing" textLength="203" x="91" y="24.9951">ReflectiveOperationException</text><text fill="#000000" font-family="sans-serif" font-size="10" lengthAdjust="spacing" textLength="43" x="171" y="37.5791">java.lang</text></g><!--MD5=[4cb0a44d3fe8e4249923ec44e29175b3]
reverse link java.lang.ReflectiveOperationException to elki.utilities.exceptions.ClassInstantiationException--><g id="link_java.lang.ReflectiveOperationException_elki.utilities.exceptions.ClassInstantiationException"><path codeLine="16" d="M179.5,65.22 C179.5,77.35 179.5,91.15 179.5,104.69 " fill="none" id="java.lang.ReflectiveOperationException-backto-elki.utilities.exceptions.ClassInstantiationException" style="stroke:#181818;stroke-width:1.0;"/><polygon fill="none" points="172.5,65.01,179.5,45.01,186.5,65.01,172.5,65.01" style="stroke:#181818;stroke-width:1.0;"/></g><rect fill="none" height="11.6406" style="stroke:none;stroke-width:1.0;" width="186" x="79.5" y="246.4219"/><text fill="#888888" font-family="sans-serif" font-size="10" lengthAdjust="spacing" textLength="186" x="79.5" y="255.7041">UMLDoclet 2.0.19, PlantUML 1.2022.8</text><!--MD5=[477e82016e2dc8752803599cf96a69f0]
@startuml
    remove .*\.(Instance|Par|Parameterizer|Factory)$
    set namespaceSeparator none
    hide empty fields
    hide empty methods

    class "<size:14>ClassInstantiationException\n<size:10>elki.utilities.exceptions" as elki.utilities.exceptions.ClassInstantiationException [[ClassInstantiationException.html]] {
        {static} -serialVersionUID: long
        +ClassInstantiationException()
        +ClassInstantiationException(String)
        +ClassInstantiationException(Throwable)
        +ClassInstantiationException(String, Throwable)
    }

    class "<size:14>ReflectiveOperationException\n<size:10>java.lang" as java.lang.ReflectiveOperationException

    java.lang.ReflectiveOperationException <|- - elki.utilities.exceptions.ClassInstantiationException

    center footer UMLDoclet 2.0.19, PlantUML 1.2022.8
@enduml

PlantUML version 1.2022.8(Sun Sep 25 11:00:33 CEST 2022)
(APACHE source distribution)
Java Runtime: OpenJDK Runtime Environment
JVM: OpenJDK 64-Bit Server VM
Default Encoding: UTF-8
Language: de
Country: DE
--></g></svg>