<?xml version="1.0" encoding="UTF-8" standalone="no"?>
<!DOCTYPE svg PUBLIC "-//W3C//DTD SVG 1.1//EN"
 "http://www.w3.org/Graphics/SVG/1.1/DTD/svg11.dtd">
<!-- Generated by graphviz version 2.40.1 (20161225.0304)
 -->
<!-- Title: G Pages: 1 -->
<svg width="441pt" height="259pt"
 viewBox="0.00 0.00 441.00 259.00" xmlns="http://www.w3.org/2000/svg" xmlns:xlink="http://www.w3.org/1999/xlink">
<g id="graph0" class="graph" transform="scale(1 1) rotate(0) translate(4 255)">
<title>G</title>
<polygon fill="#ffffff" stroke="transparent" points="-4,4 -4,-255 437,-255 437,4 -4,4"/>
<!-- c5167234 -->
<g id="node1" class="node">
<title>c5167234</title>
<g id="a_node1"><a xlink:href="../RangeIndex.html" xlink:title="&lt;TABLE&gt;">
<g id="a_node1_0"><a xlink:href="../RangeIndex.html" xlink:title="de.lmu.ifi.dbs.elki.index.RangeIndex" target="_parent">
<polygon fill="#fffacd" stroke="transparent" points="16.5,-95 16.5,-134 107.5,-134 107.5,-95 16.5,-95"/>
<polygon fill="none" stroke="#000000" points="17,-94.5 17,-133.5 108,-133.5 108,-94.5 17,-94.5"/>
<text text-anchor="start" x="41" y="-123.1" font-family="Roboto" font-size="8.00" fill="#000000"> «interface» </text>
<text text-anchor="start" x="38.5" y="-113.1" font-family="Roboto" font-size="8.00" fill="#000000"> </text>
<text text-anchor="start" x="41.5" y="-113.1" font-family="Roboto" font-size="8.00" fill="#000000">RangeIndex</text>
<text text-anchor="start" x="83.5" y="-113.1" font-family="Roboto" font-size="8.00" fill="#000000"> </text>
<text text-anchor="start" x="21" y="-102.1" font-family="Roboto" font-size="8.00" fill="#000000"> </text>
<text text-anchor="start" x="24" y="-102.1" font-family="Roboto" font-size="7.00" fill="#000000">de.lmu.ifi.dbs.elki.index</text>
<text text-anchor="start" x="101" y="-102.1" font-family="Roboto" font-size="8.00" fill="#000000"> </text>
</a>
</g>
</a>
</g>
</g>
<!-- c5168786 -->
<g id="node7" class="node">
<title>c5168786</title>
<g id="a_node7"><a xlink:href="InMemoryInvertedIndex.html" xlink:title="&lt;TABLE&gt;">
<g id="a_node7_1"><a xlink:href="InMemoryInvertedIndex.html" xlink:title="de.lmu.ifi.dbs.elki.index.invertedlist.InMemoryInvertedIndex" target="_parent">
<polygon fill="#fffacd" stroke="transparent" points="142,-56 142,-73 238,-73 238,-56 142,-56"/>
<polygon fill="none" stroke="#000000" points="142,-55.5 142,-72.5 238,-72.5 238,-55.5 142,-55.5"/>
<text text-anchor="start" x="146" y="-63.1" font-family="Roboto" font-size="8.00" fill="#000000"> </text>
<text text-anchor="start" x="149" y="-63.1" font-family="Roboto" font-size="8.00" fill="#000000">InMemoryInvertedIndex</text>
<text text-anchor="start" x="231" y="-63.1" font-family="Roboto" font-size="8.00" fill="#000000"> </text>
</a>
</g>
</a>
</g>
</g>
<!-- c5167234&#45;&gt;c5168786 -->
<g id="edge3" class="edge">
<title>c5167234&#45;&gt;c5168786</title>
<path fill="none" stroke="#000000" stroke-dasharray="5,2" d="M117.6291,-92.7699C135.4606,-85.8045 154.1741,-78.4945 168.104,-73.0531"/>
<polygon fill="none" stroke="#000000" points="115.8905,-89.6914 107.8494,-96.5901 118.4375,-96.2116 115.8905,-89.6914"/>
</g>
<!-- c5167238 -->
<g id="node2" class="node">
<title>c5167238</title>
<g id="a_node2"><a xlink:href="../KNNIndex.html" xlink:title="&lt;TABLE&gt;">
<g id="a_node2_2"><a xlink:href="../KNNIndex.html" xlink:title="de.lmu.ifi.dbs.elki.index.KNNIndex" target="_parent">
<polygon fill="#fffacd" stroke="transparent" points="16.5,-45 16.5,-84 107.5,-84 107.5,-45 16.5,-45"/>
<polygon fill="none" stroke="#000000" points="17,-44.5 17,-83.5 108,-83.5 108,-44.5 17,-44.5"/>
<text text-anchor="start" x="41" y="-73.1" font-family="Roboto" font-size="8.00" fill="#000000"> «interface» </text>
<text text-anchor="start" x="41" y="-63.1" font-family="Roboto" font-size="8.00" fill="#000000"> </text>
<text text-anchor="start" x="44" y="-63.1" font-family="Roboto" font-size="8.00" fill="#000000">KNNIndex</text>
<text text-anchor="start" x="81" y="-63.1" font-family="Roboto" font-size="8.00" fill="#000000"> </text>
<text text-anchor="start" x="21" y="-52.1" font-family="Roboto" font-size="8.00" fill="#000000"> </text>
<text text-anchor="start" x="24" y="-52.1" font-family="Roboto" font-size="7.00" fill="#000000">de.lmu.ifi.dbs.elki.index</text>
<text text-anchor="start" x="101" y="-52.1" font-family="Roboto" font-size="8.00" fill="#000000"> </text>
</a>
</g>
</a>
</g>
</g>
<!-- c5167238&#45;&gt;c5168786 -->
<g id="edge2" class="edge">
<title>c5167238&#45;&gt;c5168786</title>
<path fill="none" stroke="#000000" stroke-dasharray="5,2" d="M117.8577,-64.5C125.8624,-64.5 134.0397,-64.5 141.878,-64.5"/>
<polygon fill="none" stroke="#000000" points="117.8494,-61.0001 107.8494,-64.5 117.8494,-68.0001 117.8494,-61.0001"/>
</g>
<!-- c5167302 -->
<g id="node3" class="node">
<title>c5167302</title>
<g id="a_node3"><a xlink:href="../../data/NumberVector.html" xlink:title="&lt;TABLE&gt;">
<g id="a_node3_3"><a xlink:href="../../data/NumberVector.html" xlink:title="de.lmu.ifi.dbs.elki.data.NumberVector" target="_parent">
<polygon fill="#fffacd" stroke="transparent" points="301,-212 301,-251 388,-251 388,-212 301,-212"/>
<polygon fill="none" stroke="#000000" points="301.5,-211.5 301.5,-250.5 388.5,-250.5 388.5,-211.5 301.5,-211.5"/>
<text text-anchor="start" x="323.5" y="-240.1" font-family="Roboto" font-size="8.00" fill="#000000"> «interface» </text>
<text text-anchor="start" x="316.5" y="-230.1" font-family="Roboto" font-size="8.00" fill="#000000"> </text>
<text text-anchor="start" x="319.5" y="-230.1" font-family="Roboto" font-size="8.00" fill="#000000">NumberVector</text>
<text text-anchor="start" x="370.5" y="-230.1" font-family="Roboto" font-size="8.00" fill="#000000"> </text>
<text text-anchor="start" x="305.5" y="-219.1" font-family="Roboto" font-size="8.00" fill="#000000"> </text>
<text text-anchor="start" x="308.5" y="-219.1" font-family="Roboto" font-size="7.00" fill="#000000">de.lmu.ifi.dbs.elki.data</text>
<text text-anchor="start" x="381.5" y="-219.1" font-family="Roboto" font-size="8.00" fill="#000000"> </text>
</a>
</g>
</a>
</g>
</g>
<!-- c5167448 -->
<g id="node4" class="node">
<title>c5167448</title>
<g id="a_node4"><a xlink:href="../../database/ids/ModifiableDoubleDBIDList.html" xlink:title="&lt;TABLE&gt;">
<g id="a_node4_4"><a xlink:href="../../database/ids/ModifiableDoubleDBIDList.html" xlink:title="de.lmu.ifi.dbs.elki.database.ids.ModifiableDoubleDBIDList" target="_parent">
<polygon fill="none" stroke="#000000" points="288.5,-161.5 288.5,-200.5 401.5,-200.5 401.5,-161.5 288.5,-161.5"/>
<text text-anchor="start" x="323.5" y="-190.1" font-family="Roboto" font-size="8.00" fill="#000000"> «interface» </text>
<text text-anchor="start" x="294.5" y="-180.1" font-family="Roboto" font-size="8.00" fill="#000000"> </text>
<text text-anchor="start" x="297.5" y="-180.1" font-family="Roboto" font-size="8.00" fill="#000000">ModifiableDoubleDBIDList</text>
<text text-anchor="start" x="392.5" y="-180.1" font-family="Roboto" font-size="8.00" fill="#000000"> </text>
<text text-anchor="start" x="292.5" y="-169.1" font-family="Roboto" font-size="8.00" fill="#000000"> </text>
<text text-anchor="start" x="295.5" y="-169.1" font-family="Roboto" font-size="7.00" fill="#000000">de.lmu.ifi.dbs.elki.database.ids</text>
<text text-anchor="start" x="394.5" y="-169.1" font-family="Roboto" font-size="8.00" fill="#000000"> </text>
</a>
</g>
</a>
</g>
</g>
<!-- c5167492 -->
<g id="node5" class="node">
<title>c5167492</title>
<g id="a_node5"><a xlink:href="../../database/datastore/WritableDoubleDataStore.html" xlink:title="&lt;TABLE&gt;">
<g id="a_node5_5"><a xlink:href="../../database/datastore/WritableDoubleDataStore.html" xlink:title="de.lmu.ifi.dbs.elki.database.datastore.WritableDoubleDataStore" target="_parent">
<polygon fill="none" stroke="#000000" points="278.5,-111.5 278.5,-150.5 411.5,-150.5 411.5,-111.5 278.5,-111.5"/>
<text text-anchor="start" x="323.5" y="-140.1" font-family="Roboto" font-size="8.00" fill="#000000"> «interface» </text>
<text text-anchor="start" x="297.5" y="-130.1" font-family="Roboto" font-size="8.00" fill="#000000"> </text>
<text text-anchor="start" x="300.5" y="-130.1" font-family="Roboto" font-size="8.00" fill="#000000">WritableDoubleDataStore</text>
<text text-anchor="start" x="389.5" y="-130.1" font-family="Roboto" font-size="8.00" fill="#000000"> </text>
<text text-anchor="start" x="282.5" y="-119.1" font-family="Roboto" font-size="8.00" fill="#000000"> </text>
<text text-anchor="start" x="285.5" y="-119.1" font-family="Roboto" font-size="7.00" fill="#000000">de.lmu.ifi.dbs.elki.database.datastore</text>
<text text-anchor="start" x="404.5" y="-119.1" font-family="Roboto" font-size="8.00" fill="#000000"> </text>
</a>
</g>
</a>
</g>
</g>
<!-- c5168454 -->
<g id="node6" class="node">
<title>c5168454</title>
<g id="a_node6"><a xlink:href="../AbstractIndex.html" xlink:title="&lt;TABLE&gt;">
<g id="a_node6_6"><a xlink:href="../AbstractIndex.html" xlink:title="de.lmu.ifi.dbs.elki.index.AbstractIndex" target="_parent">
<polygon fill="none" stroke="#000000" points="17,-5.5 17,-33.5 108,-33.5 108,-5.5 17,-5.5"/>
<text text-anchor="start" x="35" y="-24.1" font-family="Roboto" font-size="8.00" fill="#000000"> </text>
<text text-anchor="start" x="38" y="-24.1" font-family="Roboto" font-style="italic" font-size="8.00" fill="#000000">AbstractIndex</text>
<text text-anchor="start" x="87" y="-24.1" font-family="Roboto" font-size="8.00" fill="#000000"> </text>
<text text-anchor="start" x="21" y="-13.1" font-family="Roboto" font-size="8.00" fill="#000000"> </text>
<text text-anchor="start" x="24" y="-13.1" font-family="Roboto" font-size="7.00" fill="#000000">de.lmu.ifi.dbs.elki.index</text>
<text text-anchor="start" x="101" y="-13.1" font-family="Roboto" font-size="8.00" fill="#000000"> </text>
</a>
</g>
</a>
</g>
</g>
<!-- c5168454&#45;&gt;c5168786 -->
<g id="edge1" class="edge">
<title>c5168454&#45;&gt;c5168786</title>
<path fill="none" stroke="#000000" d="M116.1506,-36.792C118.8086,-37.6959 121.4367,-38.6017 124,-39.5 138.8011,-44.6869 155.3011,-50.9369 168.1008,-55.8901"/>
<polygon fill="none" stroke="#000000" points="117.0505,-33.4024 106.4566,-33.5436 114.8263,-40.0396 117.0505,-33.4024"/>
</g>
<!-- c5168786&#45;&gt;c5167302 -->
<g id="edge11" class="edge">
<title>c5168786&#45;&gt;c5167302</title>
<path fill="none" stroke="#000000" stroke-dasharray="5,2" d="M201.8742,-73.2193C213.0236,-82.0782 229.2591,-96.8381 238,-113.5 257.5581,-150.7817 227.5087,-175.505 256,-206.5 265.1267,-216.4287 277.8657,-222.5271 290.8395,-226.242"/>
<polygon fill="#000000" stroke="#000000" points="300.7505,-228.642 289.9722,-230.662 295.8909,-227.4652 291.0314,-226.2884 291.0314,-226.2884 291.0314,-226.2884 295.8909,-227.4652 292.0906,-221.9148 300.7505,-228.642 300.7505,-228.642"/>
</g>
<!-- c5168786&#45;&gt;c5167448 -->
<g id="edge9" class="edge">
<title>c5168786&#45;&gt;c5167448</title>
<path fill="none" stroke="#000000" d="M200.7437,-73.3057C211.3498,-82.4515 227.4665,-97.6228 238,-113.5 249.4537,-130.7641 240.4903,-142.7638 256,-156.5 262.443,-162.2063 270.0967,-166.6179 278.1655,-170.0271"/>
<polygon fill="#000000" stroke="#000000" points="287.7806,-173.5862 276.8403,-174.3349 283.0915,-171.8505 278.4025,-170.1147 278.4025,-170.1147 278.4025,-170.1147 283.0915,-171.8505 279.9646,-165.8946 287.7806,-173.5862 287.7806,-173.5862"/>
<text text-anchor="middle" x="285.7806" y="-167.9862" font-family="Roboto" font-size="7.00" fill="#000000">*</text>
</g>
<!-- c5168786&#45;&gt;c5167492 -->
<g id="edge10" class="edge">
<title>c5168786&#45;&gt;c5167492</title>
<path fill="none" stroke="#000000" d="M201.1068,-73.0066C213.7809,-82.3615 235.4233,-97.2858 256,-106.5 259.8524,-108.2251 263.8529,-109.8605 267.9299,-111.4063"/>
<polygon fill="#000000" stroke="#000000" points="277.548,-114.8508 266.6163,-115.7157 272.8408,-113.165 268.1336,-111.4792 268.1336,-111.4792 268.1336,-111.4792 272.8408,-113.165 269.6508,-107.2427 277.548,-114.8508 277.548,-114.8508"/>
</g>
<!-- c5168787 -->
<g id="node8" class="node">
<title>c5168787</title>
<g id="a_node8"><a xlink:href="InMemoryInvertedIndex.CosineKNNQuery.html" xlink:title="&lt;TABLE&gt;">
<g id="a_node8_7"><a xlink:href="InMemoryInvertedIndex.CosineKNNQuery.html" xlink:title="de.lmu.ifi.dbs.elki.index.invertedlist.InMemoryInvertedIndex.CosineKNNQuery" target="_parent">
<polygon fill="none" stroke="#000000" points="264.5,-83.5 264.5,-100.5 424.5,-100.5 424.5,-83.5 264.5,-83.5"/>
<text text-anchor="start" x="268.5" y="-91.1" font-family="Roboto" font-size="8.00" fill="#000000"> </text>
<text text-anchor="start" x="271.5" y="-91.1" font-family="Roboto" font-size="8.00" fill="#000000">InMemoryInvertedIndex.CosineKNNQuery</text>
<text text-anchor="start" x="417.5" y="-91.1" font-family="Roboto" font-size="8.00" fill="#000000"> </text>
</a>
</g>
</a>
</g>
</g>
<!-- c5168786&#45;&gt;c5168787 -->
<g id="edge6" class="edge">
<title>c5168786&#45;&gt;c5168787</title>
<path fill="none" stroke="#000000" d="M240.6413,-75.522C245.8215,-76.5655 251.0114,-77.577 256,-78.5 266.2483,-80.3962 277.1943,-82.2588 287.7707,-83.9756"/>
<polygon fill="none" stroke="#000000" points="240.4242,-75.4773 233.7403,-78.1841 228.6711,-73.0554 235.3549,-70.3487 240.4242,-75.4773"/>
</g>
<!-- c5168788 -->
<g id="node9" class="node">
<title>c5168788</title>
<g id="a_node9"><a xlink:href="InMemoryInvertedIndex.ArcCosineKNNQuery.html" xlink:title="&lt;TABLE&gt;">
<g id="a_node9_8"><a xlink:href="InMemoryInvertedIndex.ArcCosineKNNQuery.html" xlink:title="de.lmu.ifi.dbs.elki.index.invertedlist.InMemoryInvertedIndex.ArcCosineKNNQuery" target="_parent">
<polygon fill="none" stroke="#000000" points="258.5,-55.5 258.5,-72.5 430.5,-72.5 430.5,-55.5 258.5,-55.5"/>
<text text-anchor="start" x="262.5" y="-63.1" font-family="Roboto" font-size="8.00" fill="#000000"> </text>
<text text-anchor="start" x="265.5" y="-63.1" font-family="Roboto" font-size="8.00" fill="#000000">InMemoryInvertedIndex.ArcCosineKNNQuery</text>
<text text-anchor="start" x="423.5" y="-63.1" font-family="Roboto" font-size="8.00" fill="#000000"> </text>
</a>
</g>
</a>
</g>
</g>
<!-- c5168786&#45;&gt;c5168788 -->
<g id="edge4" class="edge">
<title>c5168786&#45;&gt;c5168788</title>
<path fill="none" stroke="#000000" d="M250.3354,-64.5C253.019,-64.5 255.7312,-64.5 258.4582,-64.5"/>
<polygon fill="none" stroke="#000000" points="250.0379,-64.5001 244.0378,-68.5 238.0379,-64.5 244.0379,-60.5 250.0379,-64.5001"/>
</g>
<!-- c5168789 -->
<g id="node10" class="node">
<title>c5168789</title>
<g id="a_node10"><a xlink:href="InMemoryInvertedIndex.CosineRangeQuery.html" xlink:title="&lt;TABLE&gt;">
<g id="a_node10_9"><a xlink:href="InMemoryInvertedIndex.CosineRangeQuery.html" xlink:title="de.lmu.ifi.dbs.elki.index.invertedlist.InMemoryInvertedIndex.CosineRangeQuery" target="_parent">
<polygon fill="none" stroke="#000000" points="262.5,-27.5 262.5,-44.5 427.5,-44.5 427.5,-27.5 262.5,-27.5"/>
<text text-anchor="start" x="266.5" y="-35.1" font-family="Roboto" font-size="8.00" fill="#000000"> </text>
<text text-anchor="start" x="269.5" y="-35.1" font-family="Roboto" font-size="8.00" fill="#000000">InMemoryInvertedIndex.CosineRangeQuery</text>
<text text-anchor="start" x="420.5" y="-35.1" font-family="Roboto" font-size="8.00" fill="#000000"> </text>
</a>
</g>
</a>
</g>
</g>
<!-- c5168786&#45;&gt;c5168789 -->
<g id="edge7" class="edge">
<title>c5168786&#45;&gt;c5168789</title>
<path fill="none" stroke="#000000" d="M240.6413,-53.478C245.8215,-52.4345 251.0114,-51.423 256,-50.5 266.2483,-48.6038 277.1943,-46.7412 287.7707,-45.0244"/>
<polygon fill="none" stroke="#000000" points="240.4242,-53.5227 235.3549,-58.6513 228.6711,-55.9446 233.7403,-50.8159 240.4242,-53.5227"/>
</g>
<!-- c5168790 -->
<g id="node11" class="node">
<title>c5168790</title>
<g id="a_node11"><a xlink:href="InMemoryInvertedIndex.ArcCosineRangeQuery.html" xlink:title="&lt;TABLE&gt;">
<g id="a_node11_10"><a xlink:href="InMemoryInvertedIndex.ArcCosineRangeQuery.html" xlink:title="de.lmu.ifi.dbs.elki.index.invertedlist.InMemoryInvertedIndex.ArcCosineRangeQuery" target="_parent">
<polygon fill="none" stroke="#000000" points="256.5,.5 256.5,-16.5 433.5,-16.5 433.5,.5 256.5,.5"/>
<text text-anchor="start" x="260.5" y="-7.1" font-family="Roboto" font-size="8.00" fill="#000000"> </text>
<text text-anchor="start" x="263.5" y="-7.1" font-family="Roboto" font-size="8.00" fill="#000000">InMemoryInvertedIndex.ArcCosineRangeQuery</text>
<text text-anchor="start" x="426.5" y="-7.1" font-family="Roboto" font-size="8.00" fill="#000000"> </text>
</a>
</g>
</a>
</g>
</g>
<!-- c5168786&#45;&gt;c5168790 -->
<g id="edge5" class="edge">
<title>c5168786&#45;&gt;c5168790</title>
<path fill="none" stroke="#000000" d="M210.2439,-48.5211C222.7414,-39.4724 239.4949,-28.7467 256,-22.5 261.5284,-20.4076 267.3656,-18.628 273.298,-17.1143"/>
<polygon fill="none" stroke="#000000" points="210.0535,-48.6645 207.669,-55.47 200.4699,-55.8864 202.8544,-49.0809 210.0535,-48.6645"/>
</g>
<!-- c5168791 -->
<g id="node12" class="node">
<title>c5168791</title>
<g id="a_node12"><a xlink:href="InMemoryInvertedIndex.Factory.html" xlink:title="&lt;TABLE&gt;">
<g id="a_node12_11"><a xlink:href="InMemoryInvertedIndex.Factory.html" xlink:title="de.lmu.ifi.dbs.elki.index.invertedlist.InMemoryInvertedIndex.Factory" target="_parent">
<polygon fill="none" stroke="#000000" points="0,-144.5 0,-161.5 124,-161.5 124,-144.5 0,-144.5"/>
<text text-anchor="start" x="4" y="-152.1" font-family="Roboto" font-size="8.00" fill="#000000"> </text>
<text text-anchor="start" x="7" y="-152.1" font-family="Roboto" font-size="8.00" fill="#000000">InMemoryInvertedIndex.Factory</text>
<text text-anchor="start" x="117" y="-152.1" font-family="Roboto" font-size="8.00" fill="#000000"> </text>
</a>
</g>
</a>
</g>
</g>
<!-- c5168791&#45;&gt;c5167302 -->
<g id="edge12" class="edge">
<title>c5168791&#45;&gt;c5167302</title>
<path fill="none" stroke="#000000" stroke-dasharray="5,2" d="M93.0405,-162.0705C140.7342,-175.239 232.6451,-200.6162 291.155,-216.7711"/>
<polygon fill="#000000" stroke="#000000" points="300.9592,-219.4781 290.1222,-221.1543 296.1395,-218.1473 291.3199,-216.8166 291.3199,-216.8166 291.3199,-216.8166 296.1395,-218.1473 292.5176,-212.4789 300.9592,-219.4781 300.9592,-219.4781"/>
</g>
<!-- c5168791&#45;&gt;c5168786 -->
<g id="edge8" class="edge">
<title>c5168791&#45;&gt;c5168786</title>
<path fill="none" stroke="#000000" d="M123.853,-138.0116C135.081,-128.7756 134.7284,-122.3048 142,-113.5 154.4363,-98.4415 170.6378,-82.5671 180.6765,-73.1022"/>
<polygon fill="none" stroke="#000000" points="123.8257,-138.0307 121.2028,-144.7478 113.9935,-144.9103 116.6164,-138.1931 123.8257,-138.0307"/>
</g>
</g>
</svg>
