<?xml version="1.0" encoding="UTF-8" standalone="no"?><svg xmlns="http://www.w3.org/2000/svg" xmlns:xlink="http://www.w3.org/1999/xlink" contentStyleType="text/css" height="260px" preserveAspectRatio="none" style="width:825px;height:260px;background:#FFFFFF;" version="1.1" viewBox="0 0 825 260" width="825px" zoomAndPan="magnify"><defs/><g><!--MD5=[1cffc88094c1445ca461253ae3e3c8b6]
class elki.database.query.range.LinearScanDistanceRangeByDBID--><a href="LinearScanDistanceRangeByDBID.html" target="_top" title="LinearScanDistanceRangeByDBID.html" xlink:actuate="onRequest" xlink:href="LinearScanDistanceRangeByDBID.html" xlink:show="new" xlink:title="LinearScanDistanceRangeByDBID.html" xlink:type="simple"><g id="elem_elki.database.query.range.LinearScanDistanceRangeByDBID"><rect codeLine="6" fill="#F1F1F1" height="102.8281" id="elki.database.query.range.LinearScanDistanceRangeByDBID" rx="2.5" ry="2.5" style="stroke:#181818;stroke-width:0.5;" width="589" x="225" y="132"/><ellipse cx="392.75" cy="150.9688" fill="#ADD1B2" rx="11" ry="11" style="stroke:#181818;stroke-width:1.0;"/><path d="M395.7188,156.6094 Q395.1406,156.9063 394.5,157.0469 Q393.8594,157.2031 393.1563,157.2031 Q390.6563,157.2031 389.3281,155.5625 Q388.0156,153.9063 388.0156,150.7813 Q388.0156,147.6563 389.3281,146 Q390.6563,144.3438 393.1563,144.3438 Q393.8594,144.3438 394.5,144.5 Q395.1563,144.6563 395.7188,144.9531 L395.7188,147.6719 Q395.0938,147.0938 394.5,146.8281 Q393.9063,146.5469 393.2813,146.5469 Q391.9375,146.5469 391.25,147.625 Q390.5625,148.6875 390.5625,150.7813 Q390.5625,152.875 391.25,153.9531 Q391.9375,155.0156 393.2813,155.0156 Q393.9063,155.0156 394.5,154.75 Q395.0938,154.4688 395.7188,153.8906 L395.7188,156.6094 Z " fill="#000000"/><text fill="#000000" font-family="sans-serif" font-size="14" lengthAdjust="spacing" textLength="233" x="413.25" y="149.9951">LinearScanDistanceRangeByDBID</text><text fill="#000000" font-family="sans-serif" font-size="10" lengthAdjust="spacing" textLength="125" x="467.25" y="162.5791">elki.database.query.range</text><rect fill="#FFFFFF" height="15.9688" style="stroke:#181818;stroke-width:1.0;stroke-dasharray:2.0,2.0;" width="10" x="807" y="129"/><text fill="#000000" font-family="sans-serif" font-size="12" font-style="italic" lengthAdjust="spacing" textLength="8" x="808" y="141.1387">O</text><line style="stroke:#181818;stroke-width:0.5;" x1="226" x2="813" y1="169.9375" y2="169.9375"/><rect fill="none" height="6" style="stroke:#C82930;stroke-width:1.0;" width="6" x="233" y="180.5859"/><text fill="#000000" font-family="sans-serif" font-size="14" lengthAdjust="spacing" textLength="246" x="245" y="186.9326">distanceQuery: DistanceQuery&lt;O&gt;</text><line style="stroke:#181818;stroke-width:0.5;" x1="226" x2="813" y1="194.2344" y2="194.2344"/><ellipse cx="236" cy="207.8828" fill="#84BE84" rx="3" ry="3" style="stroke:#038048;stroke-width:1.0;"/><text fill="#000000" font-family="sans-serif" font-size="14" lengthAdjust="spacing" textLength="380" x="245" y="211.2295">LinearScanDistanceRangeByDBID(DistanceQuery&lt;O&gt;)</text><ellipse cx="236" cy="224.1797" fill="#84BE84" rx="3" ry="3" style="stroke:#038048;stroke-width:1.0;"/><text fill="#000000" font-family="sans-serif" font-size="14" lengthAdjust="spacing" textLength="563" x="245" y="227.5264">getRange(DBIDRef, double, ModifiableDoubleDBIDList): ModifiableDoubleDBIDList</text></g></a><!--MD5=[955d5a67b0ef7a37e4bb5766aebdb7f3]
class elki.database.query.range.RangeSearcher--><a href="RangeSearcher.html" target="_top" title="RangeSearcher.html" xlink:actuate="onRequest" xlink:href="RangeSearcher.html" xlink:show="new" xlink:title="RangeSearcher.html" xlink:type="simple"><g id="elem_elki.database.query.range.RangeSearcher"><rect codeLine="12" fill="#F1F1F1" height="62.2344" id="elki.database.query.range.RangeSearcher" rx="2.5" ry="2.5" style="stroke:#181818;stroke-width:0.5;" width="609" x="7" y="10"/><ellipse cx="216.75" cy="28.9688" fill="#B4A7E5" rx="11" ry="11" style="stroke:#181818;stroke-width:1.0;"/><path d="M212.6719,24.7344 L212.6719,22.5781 L220.0625,22.5781 L220.0625,24.7344 L217.5938,24.7344 L217.5938,32.8125 L220.0625,32.8125 L220.0625,34.9688 L212.6719,34.9688 L212.6719,32.8125 L215.1406,32.8125 L215.1406,24.7344 L212.6719,24.7344 Z " fill="#000000"/><text fill="#000000" font-family="sans-serif" font-size="14" font-style="italic" lengthAdjust="spacing" textLength="109" x="246.75" y="27.9951">RangeSearcher</text><text fill="#000000" font-family="sans-serif" font-size="10" font-style="italic" lengthAdjust="spacing" textLength="128" x="237.25" y="40.5791">elki.database.query.range</text><rect fill="#FFFFFF" height="15.9688" style="stroke:#181818;stroke-width:1.0;stroke-dasharray:2.0,2.0;" width="51" x="568" y="7"/><text fill="#000000" font-family="sans-serif" font-size="12" font-style="italic" lengthAdjust="spacing" textLength="49" x="569" y="19.1387">DBIDRef</text><line style="stroke:#181818;stroke-width:0.5;" x1="8" x2="615" y1="47.9375" y2="47.9375"/><ellipse cx="18" cy="61.5859" fill="#84BE84" rx="3" ry="3" style="stroke:#038048;stroke-width:1.0;"/><text fill="#000000" font-family="sans-serif" font-size="14" font-style="italic" lengthAdjust="spacing" textLength="583" x="27" y="64.9326">getRange(DBIDRef, double, ModifiableDoubleDBIDList): ModifiableDoubleDBIDList</text></g></a><!--MD5=[ba0adf94593ee5aa5eed3a577176cfc5]
class elki.database.query.LinearScanQuery--><a href="../LinearScanQuery.html" target="_top" title="../LinearScanQuery.html" xlink:actuate="onRequest" xlink:href="../LinearScanQuery.html" xlink:show="new" xlink:title="../LinearScanQuery.html" xlink:type="simple"><g id="elem_elki.database.query.LinearScanQuery"><rect codeLine="15" fill="#F1F1F1" height="37.9375" id="elki.database.query.LinearScanQuery" rx="2.5" ry="2.5" style="stroke:#181818;stroke-width:0.5;" width="153" x="651" y="22"/><ellipse cx="666" cy="40.9688" fill="#B4A7E5" rx="11" ry="11" style="stroke:#181818;stroke-width:1.0;"/><path d="M661.9219,36.7344 L661.9219,34.5781 L669.3125,34.5781 L669.3125,36.7344 L666.8438,36.7344 L666.8438,44.8125 L669.3125,44.8125 L669.3125,46.9688 L661.9219,46.9688 L661.9219,44.8125 L664.3906,44.8125 L664.3906,36.7344 L661.9219,36.7344 Z " fill="#000000"/><text fill="#000000" font-family="sans-serif" font-size="14" font-style="italic" lengthAdjust="spacing" textLength="121" x="680" y="39.9951">LinearScanQuery</text><text fill="#000000" font-family="sans-serif" font-size="10" font-style="italic" lengthAdjust="spacing" textLength="97" x="692" y="52.5791">elki.database.query</text></g></a><!--MD5=[4c69e3d2a766fad6e7a596da9663206a]
reverse link elki.database.query.range.RangeSearcher to elki.database.query.range.LinearScanDistanceRangeByDBID--><g id="link_elki.database.query.range.RangeSearcher_elki.database.query.range.LinearScanDistanceRangeByDBID"><path codeLine="17" d="M372.98,83.53 C395.47,98.72 421.15,116.07 444.67,131.96 " fill="none" id="elki.database.query.range.RangeSearcher-backto-elki.database.query.range.LinearScanDistanceRangeByDBID" style="stroke:#181818;stroke-width:1.0;stroke-dasharray:7.0,7.0;"/><polygon fill="none" points="368.78,89.14,356.12,72.14,376.61,77.54,368.78,89.14" style="stroke:#181818;stroke-width:1.0;"/></g><!--MD5=[5182b551f8c5e13391019cf8a45e854c]
reverse link elki.database.query.LinearScanQuery to elki.database.query.range.LinearScanDistanceRangeByDBID--><g id="link_elki.database.query.LinearScanQuery_elki.database.query.range.LinearScanDistanceRangeByDBID"><path codeLine="18" d="M683.79,71.53 C657.92,89 624.45,111.61 594.48,131.85 " fill="none" id="elki.database.query.LinearScanQuery-backto-elki.database.query.range.LinearScanDistanceRangeByDBID" style="stroke:#181818;stroke-width:1.0;stroke-dasharray:7.0,7.0;"/><polygon fill="none" points="680.24,65.47,700.73,60.08,688.08,77.08,680.24,65.47" style="stroke:#181818;stroke-width:1.0;"/></g><rect fill="none" height="11.6406" style="stroke:none;stroke-width:1.0;" width="186" x="312.5" y="240.8281"/><text fill="#888888" font-family="sans-serif" font-size="10" lengthAdjust="spacing" textLength="186" x="312.5" y="250.1104">UMLDoclet 2.0.19, PlantUML 1.2022.8</text><!--MD5=[a6838beff4b7b1e518bd0141ac025531]
@startuml
    remove .*\.(Instance|Par|Parameterizer|Factory)$
    set namespaceSeparator none
    hide empty fields
    hide empty methods

    class "<size:14>LinearScanDistanceRangeByDBID\n<size:10>elki.database.query.range" as elki.database.query.range.LinearScanDistanceRangeByDBID<O> [[LinearScanDistanceRangeByDBID.html]] {
        -distanceQuery: DistanceQuery<O>
        +LinearScanDistanceRangeByDBID(DistanceQuery<O>)
        +getRange(DBIDRef, double, ModifiableDoubleDBIDList): ModifiableDoubleDBIDList
    }

    interface "<size:14>RangeSearcher\n<size:10>elki.database.query.range" as elki.database.query.range.RangeSearcher<DBIDRef> [[RangeSearcher.html]] {
        {abstract} +getRange(DBIDRef, double, ModifiableDoubleDBIDList): ModifiableDoubleDBIDList
    }
    interface "<size:14>LinearScanQuery\n<size:10>elki.database.query" as elki.database.query.LinearScanQuery [[../LinearScanQuery.html]]

    elki.database.query.range.RangeSearcher <|.. elki.database.query.range.LinearScanDistanceRangeByDBID
    elki.database.query.LinearScanQuery <|.. elki.database.query.range.LinearScanDistanceRangeByDBID

    center footer UMLDoclet 2.0.19, PlantUML 1.2022.8
@enduml

PlantUML version 1.2022.8(Sun Sep 25 11:00:33 CEST 2022)
(APACHE source distribution)
Java Runtime: OpenJDK Runtime Environment
JVM: OpenJDK 64-Bit Server VM
Default Encoding: UTF-8
Language: de
Country: DE
--></g></svg>