<?xml version="1.0" encoding="UTF-8" standalone="no"?><svg xmlns="http://www.w3.org/2000/svg" xmlns:xlink="http://www.w3.org/1999/xlink" contentStyleType="text/css" height="209px" preserveAspectRatio="none" style="width:430px;height:209px;background:#FFFFFF;" version="1.1" viewBox="0 0 430 209" width="430px" zoomAndPan="magnify"><defs/><g><!--MD5=[5032cbb63180d008e4318a51a561b0a3]
class elki.application.experiments.EvaluateIntrinsicDimensionalityEstimators.OutputFormat--><a href="EvaluateIntrinsicDimensionalityEstimators.OutputFormat.html" target="_top" title="EvaluateIntrinsicDimensionalityEstimators.OutputFormat.html" xlink:actuate="onRequest" xlink:href="EvaluateIntrinsicDimensionalityEstimators.OutputFormat.html" xlink:show="new" xlink:title="EvaluateIntrinsicDimensionalityEstimators.OutputFormat.html" xlink:type="simple"><g id="elem_elki.application.experiments.EvaluateIntrinsicDimensionalityEstimators.OutputFormat"><rect codeLine="6" fill="#F1F1F1" height="78.5313" id="elki.application.experiments.EvaluateIntrinsicDimensionalityEstimators.OutputFormat" rx="2.5" ry="2.5" style="stroke:#181818;stroke-width:0.5;" width="416" x="7" y="105"/><ellipse cx="22" cy="123.9688" fill="#EB937F" rx="11" ry="11" style="stroke:#181818;stroke-width:1.0;"/><path d="M26.1094,129.9688 L18.3906,129.9688 L18.3906,117.5781 L26.1094,117.5781 L26.1094,119.7344 L20.8438,119.7344 L20.8438,122.4063 L25.6094,122.4063 L25.6094,124.5625 L20.8438,124.5625 L20.8438,127.8125 L26.1094,127.8125 L26.1094,129.9688 Z " fill="#000000"/><text fill="#000000" font-family="sans-serif" font-size="14" lengthAdjust="spacing" textLength="384" x="36" y="122.9951">EvaluateIntrinsicDimensionalityEstimators.OutputFormat</text><text fill="#000000" font-family="sans-serif" font-size="10" lengthAdjust="spacing" textLength="133" x="161.5" y="135.5791">elki.application.experiments</text><line style="stroke:#181818;stroke-width:0.5;" x1="8" x2="422" y1="142.9375" y2="142.9375"/><ellipse cx="18" cy="156.5859" fill="none" rx="3" ry="3" style="stroke:#038048;stroke-width:1.0;"/><text fill="#000000" font-family="sans-serif" font-size="14" lengthAdjust="spacing" text-decoration="underline" textLength="64" x="27" y="159.9326">TABULAR</text><ellipse cx="18" cy="172.8828" fill="none" rx="3" ry="3" style="stroke:#038048;stroke-width:1.0;"/><text fill="#000000" font-family="sans-serif" font-size="14" lengthAdjust="spacing" text-decoration="underline" textLength="27" x="27" y="176.2295">TSV</text></g></a><!--MD5=[ac9fac24ad5b95489621ae3cf555aac4]
class elki.application.experiments.EvaluateIntrinsicDimensionalityEstimators--><a href="EvaluateIntrinsicDimensionalityEstimators.html" target="_top" title="EvaluateIntrinsicDimensionalityEstimators.html" xlink:actuate="onRequest" xlink:href="EvaluateIntrinsicDimensionalityEstimators.html" xlink:show="new" xlink:title="EvaluateIntrinsicDimensionalityEstimators.html" xlink:type="simple"><g id="elem_elki.application.experiments.EvaluateIntrinsicDimensionalityEstimators"><rect codeLine="11" fill="#F1F1F1" height="37.9375" id="elki.application.experiments.EvaluateIntrinsicDimensionalityEstimators" rx="2.5" ry="2.5" style="stroke:#181818;stroke-width:0.5;" width="316" x="57" y="7"/><ellipse cx="72" cy="25.9688" fill="#ADD1B2" rx="11" ry="11" style="stroke:#181818;stroke-width:1.0;"/><path d="M74.9688,31.6094 Q74.3906,31.9063 73.75,32.0469 Q73.1094,32.2031 72.4063,32.2031 Q69.9063,32.2031 68.5781,30.5625 Q67.2656,28.9063 67.2656,25.7813 Q67.2656,22.6563 68.5781,21 Q69.9063,19.3438 72.4063,19.3438 Q73.1094,19.3438 73.75,19.5 Q74.4063,19.6563 74.9688,19.9531 L74.9688,22.6719 Q74.3438,22.0938 73.75,21.8281 Q73.1563,21.5469 72.5313,21.5469 Q71.1875,21.5469 70.5,22.625 Q69.8125,23.6875 69.8125,25.7813 Q69.8125,27.875 70.5,28.9531 Q71.1875,30.0156 72.5313,30.0156 Q73.1563,30.0156 73.75,29.75 Q74.3438,29.4688 74.9688,28.8906 L74.9688,31.6094 Z " fill="#000000"/><text fill="#000000" font-family="sans-serif" font-size="14" lengthAdjust="spacing" textLength="284" x="86" y="24.9951">EvaluateIntrinsicDimensionalityEstimators</text><text fill="#000000" font-family="sans-serif" font-size="10" lengthAdjust="spacing" textLength="133" x="161.5" y="37.5791">elki.application.experiments</text></g></a><!--MD5=[6496dc4cea1c3b655b5ac367c0edefbe]
reverse link elki.application.experiments.EvaluateIntrinsicDimensionalityEstimators to elki.application.experiments.EvaluateIntrinsicDimensionalityEstimators.OutputFormat--><g id="link_elki.application.experiments.EvaluateIntrinsicDimensionalityEstimators_elki.application.experiments.EvaluateIntrinsicDimensionalityEstimators.OutputFormat"><path codeLine="13" d="M215,60.62 C215,74.4 215,90.44 215,104.71 " fill="none" id="elki.application.experiments.EvaluateIntrinsicDimensionalityEstimators-backto-elki.application.experiments.EvaluateIntrinsicDimensionalityEstimators.OutputFormat" style="stroke:#181818;stroke-width:1.0;"/><ellipse cx="215" cy="53.2" fill="#FFFFFF" rx="8" ry="8" style="stroke:#181818;stroke-width:1.0;"/><line style="stroke:#181818;stroke-width:1.0;" x1="215" x2="215" y1="61.2" y2="45.2"/><line style="stroke:#181818;stroke-width:1.0;" x1="207" x2="223" y1="53.2" y2="53.2"/></g><rect fill="none" height="11.6406" style="stroke:none;stroke-width:1.0;" width="186" x="115" y="189.5313"/><text fill="#888888" font-family="sans-serif" font-size="10" lengthAdjust="spacing" textLength="186" x="115" y="198.8135">UMLDoclet 2.0.19, PlantUML 1.2022.8</text><!--MD5=[bd8055c976fafb0c1bd656d51e795365]
@startuml
    remove .*\.(Instance|Par|Parameterizer|Factory)$
    set namespaceSeparator none
    hide empty fields
    hide empty methods

    enum "<size:14>EvaluateIntrinsicDimensionalityEstimators.OutputFormat\n<size:10>elki.application.experiments" as elki.application.experiments.EvaluateIntrinsicDimensionalityEstimators.OutputFormat [[EvaluateIntrinsicDimensionalityEstimators.OutputFormat.html]] {
        {static} +TABULAR
        {static} +TSV
    }

    class "<size:14>EvaluateIntrinsicDimensionalityEstimators\n<size:10>elki.application.experiments" as elki.application.experiments.EvaluateIntrinsicDimensionalityEstimators [[EvaluateIntrinsicDimensionalityEstimators.html]]

    elki.application.experiments.EvaluateIntrinsicDimensionalityEstimators +- - elki.application.experiments.EvaluateIntrinsicDimensionalityEstimators.OutputFormat

    center footer UMLDoclet 2.0.19, PlantUML 1.2022.8
@enduml

PlantUML version 1.2022.8(Sun Sep 25 11:00:33 CEST 2022)
(APACHE source distribution)
Java Runtime: OpenJDK Runtime Environment
JVM: OpenJDK 64-Bit Server VM
Default Encoding: UTF-8
Language: de
Country: DE
--></g></svg>