<?xml version="1.0" encoding="UTF-8" standalone="no"?>
<!DOCTYPE svg PUBLIC "-//W3C//DTD SVG 1.1//EN"
 "http://www.w3.org/Graphics/SVG/1.1/DTD/svg11.dtd">
<!-- Generated by graphviz version 2.40.1 (20161225.0304)
 -->
<!-- Title: G Pages: 1 -->
<svg width="530pt" height="114pt"
 viewBox="0.00 0.00 530.00 114.00" xmlns="http://www.w3.org/2000/svg" xmlns:xlink="http://www.w3.org/1999/xlink">
<g id="graph0" class="graph" transform="scale(1 1) rotate(0) translate(4 110)">
<title>G</title>
<polygon fill="#ffffff" stroke="transparent" points="-4,4 -4,-110 526,-110 526,4 -4,4"/>
<!-- c1338960 -->
<g id="node1" class="node">
<title>c1338960</title>
<g id="a_node1"><a xlink:href="idistance/InMemoryIDistanceIndex.IDistanceRangeQuery.html" xlink:title="&lt;TABLE&gt;">
<g id="a_node1_0"><a xlink:href="idistance/InMemoryIDistanceIndex.IDistanceRangeQuery.html" xlink:title="de.lmu.ifi.dbs.elki.index.idistance.InMemoryIDistanceIndex.IDistanceRangeQuery" target="_parent">
<polygon fill="none" stroke="#000000" points="342,-78 342,-106 522,-106 522,-78 342,-78"/>
<text text-anchor="start" x="346" y="-96.6" font-family="Roboto" font-size="8.00" fill="#000000"> </text>
<text text-anchor="start" x="349" y="-96.6" font-family="Roboto" font-size="8.00" fill="#000000">InMemoryIDistanceIndex.IDistanceRangeQuery</text>
<text text-anchor="start" x="515" y="-96.6" font-family="Roboto" font-size="8.00" fill="#000000"> </text>
<text text-anchor="start" x="374.5" y="-85.6" font-family="Roboto" font-size="8.00" fill="#000000"> </text>
<text text-anchor="start" x="377.5" y="-85.6" font-family="Roboto" font-size="7.00" fill="#000000">de.lmu.ifi.dbs.elki.index.idistance</text>
<text text-anchor="start" x="486.5" y="-85.6" font-family="Roboto" font-size="8.00" fill="#000000"> </text>
</a>
</g>
</a>
</g>
</g>
<!-- c1341157 -->
<g id="node2" class="node">
<title>c1341157</title>
<g id="a_node2"><a xlink:href="../database/query/range/AbstractDistanceRangeQuery.html" xlink:title="&lt;TABLE&gt;">
<g id="a_node2_1"><a xlink:href="../database/query/range/AbstractDistanceRangeQuery.html" xlink:title="de.lmu.ifi.dbs.elki.database.query.range.AbstractDistanceRangeQuery" target="_parent">
<polygon fill="none" stroke="#000000" points=".5,-39 .5,-67 141.5,-67 141.5,-39 .5,-39"/>
<text text-anchor="start" x="17" y="-57.6" font-family="Roboto" font-size="8.00" fill="#000000"> </text>
<text text-anchor="start" x="20" y="-57.6" font-family="Roboto" font-style="italic" font-size="8.00" fill="#000000">AbstractDistanceRangeQuery</text>
<text text-anchor="start" x="122" y="-57.6" font-family="Roboto" font-size="8.00" fill="#000000"> </text>
<text text-anchor="start" x="4.5" y="-46.6" font-family="Roboto" font-size="8.00" fill="#000000"> </text>
<text text-anchor="start" x="7.5" y="-46.6" font-family="Roboto" font-size="7.00" fill="#000000">de.lmu.ifi.dbs.elki.database.query.range</text>
<text text-anchor="start" x="134.5" y="-46.6" font-family="Roboto" font-size="8.00" fill="#000000"> </text>
</a>
</g>
</a>
</g>
</g>
<!-- c1341271 -->
<g id="node4" class="node">
<title>c1341271</title>
<g id="a_node4"><a xlink:href="AbstractRefiningIndex.AbstractRangeQuery.html" xlink:title="&lt;TABLE&gt;">
<g id="a_node4_2"><a xlink:href="AbstractRefiningIndex.AbstractRangeQuery.html" xlink:title="de.lmu.ifi.dbs.elki.index.AbstractRefiningIndex.AbstractRangeQuery" target="_parent">
<polygon fill="#fffacd" stroke="transparent" points="159,-44.5 159,-61.5 324,-61.5 324,-44.5 159,-44.5"/>
<polygon fill="none" stroke="#000000" points="159.5,-44 159.5,-61 324.5,-61 324.5,-44 159.5,-44"/>
<text text-anchor="start" x="163.5" y="-51.6" font-family="Roboto" font-size="8.00" fill="#000000"> </text>
<text text-anchor="start" x="166.5" y="-51.6" font-family="Roboto" font-style="italic" font-size="8.00" fill="#000000">AbstractRefiningIndex.AbstractRangeQuery</text>
<text text-anchor="start" x="317.5" y="-51.6" font-family="Roboto" font-size="8.00" fill="#000000"> </text>
</a>
</g>
</a>
</g>
</g>
<!-- c1341157&#45;&gt;c1341271 -->
<g id="edge3" class="edge">
<title>c1341157&#45;&gt;c1341271</title>
<path fill="none" stroke="#000000" d="M151.0475,-53C153.6555,-53 156.2696,-53 158.8801,-53"/>
<polygon fill="none" stroke="#000000" points="151.0395,-49.5001 141.0395,-53 151.0395,-56.5001 151.0395,-49.5001"/>
</g>
<!-- c1341270 -->
<g id="node3" class="node">
<title>c1341270</title>
<g id="a_node3"><a xlink:href="AbstractRefiningIndex.html" xlink:title="&lt;TABLE&gt;">
<g id="a_node3_3"><a xlink:href="AbstractRefiningIndex.html" xlink:title="de.lmu.ifi.dbs.elki.index.AbstractRefiningIndex" target="_parent">
<polygon fill="none" stroke="#000000" points="25.5,-10 25.5,-27 116.5,-27 116.5,-10 25.5,-10"/>
<text text-anchor="start" x="29.5" y="-17.6" font-family="Roboto" font-size="8.00" fill="#000000"> </text>
<text text-anchor="start" x="32.5" y="-17.6" font-family="Roboto" font-style="italic" font-size="8.00" fill="#000000">AbstractRefiningIndex</text>
<text text-anchor="start" x="109.5" y="-17.6" font-family="Roboto" font-size="8.00" fill="#000000"> </text>
</a>
</g>
</a>
</g>
</g>
<!-- c1341270&#45;&gt;c1341271 -->
<g id="edge2" class="edge">
<title>c1341270&#45;&gt;c1341271</title>
<path fill="none" stroke="#000000" d="M125.6549,-29.9665C149.3199,-34.6718 176.5487,-40.0857 198.6598,-44.4821"/>
<polygon fill="none" stroke="#000000" points="125.4201,-29.9199 118.7552,-32.673 113.6505,-27.5796 120.3154,-24.8265 125.4201,-29.9199"/>
</g>
<!-- c1341271&#45;&gt;c1338960 -->
<g id="edge1" class="edge">
<title>c1341271&#45;&gt;c1338960</title>
<path fill="none" stroke="#000000" d="M293.2533,-63.5952C314.8418,-68.0149 340.2268,-73.2118 363.3408,-77.9438"/>
<polygon fill="none" stroke="#000000" points="293.8048,-60.1356 283.306,-61.5587 292.4008,-66.9933 293.8048,-60.1356"/>
</g>
<!-- c1341563 -->
<g id="node5" class="node">
<title>c1341563</title>
<g id="a_node5"><a xlink:href="vafile/PartialVAFile.PartialVAFileRangeQuery.html" xlink:title="&lt;TABLE&gt;">
<g id="a_node5_4"><a xlink:href="vafile/PartialVAFile.PartialVAFileRangeQuery.html" xlink:title="de.lmu.ifi.dbs.elki.index.vafile.PartialVAFile.PartialVAFileRangeQuery" target="_parent">
<polygon fill="none" stroke="#000000" points="356,-39 356,-67 509,-67 509,-39 356,-39"/>
<text text-anchor="start" x="360" y="-57.6" font-family="Roboto" font-size="8.00" fill="#000000"> </text>
<text text-anchor="start" x="363" y="-57.6" font-family="Roboto" font-size="8.00" fill="#000000">PartialVAFile.PartialVAFileRangeQuery</text>
<text text-anchor="start" x="502" y="-57.6" font-family="Roboto" font-size="8.00" fill="#000000"> </text>
<text text-anchor="start" x="381" y="-46.6" font-family="Roboto" font-size="8.00" fill="#000000"> </text>
<text text-anchor="start" x="384" y="-46.6" font-family="Roboto" font-size="7.00" fill="#000000">de.lmu.ifi.dbs.elki.index.vafile</text>
<text text-anchor="start" x="481" y="-46.6" font-family="Roboto" font-size="8.00" fill="#000000"> </text>
</a>
</g>
</a>
</g>
</g>
<!-- c1341271&#45;&gt;c1341563 -->
<g id="edge4" class="edge">
<title>c1341271&#45;&gt;c1341563</title>
<path fill="none" stroke="#000000" d="M334.4528,-53C341.4539,-53 348.4715,-53 355.3543,-53"/>
<polygon fill="none" stroke="#000000" points="334.225,-49.5001 324.225,-53 334.2249,-56.5001 334.225,-49.5001"/>
</g>
<!-- c1341569 -->
<g id="node6" class="node">
<title>c1341569</title>
<g id="a_node6"><a xlink:href="vafile/VAFile.VAFileRangeQuery.html" xlink:title="&lt;TABLE&gt;">
<g id="a_node6_5"><a xlink:href="vafile/VAFile.VAFileRangeQuery.html" xlink:title="de.lmu.ifi.dbs.elki.index.vafile.VAFile.VAFileRangeQuery" target="_parent">
<polygon fill="none" stroke="#000000" points="377,0 377,-28 488,-28 488,0 377,0"/>
<text text-anchor="start" x="383" y="-18.6" font-family="Roboto" font-size="8.00" fill="#000000"> </text>
<text text-anchor="start" x="386" y="-18.6" font-family="Roboto" font-size="8.00" fill="#000000">VAFile.VAFileRangeQuery</text>
<text text-anchor="start" x="479" y="-18.6" font-family="Roboto" font-size="8.00" fill="#000000"> </text>
<text text-anchor="start" x="381" y="-7.6" font-family="Roboto" font-size="8.00" fill="#000000"> </text>
<text text-anchor="start" x="384" y="-7.6" font-family="Roboto" font-size="7.00" fill="#000000">de.lmu.ifi.dbs.elki.index.vafile</text>
<text text-anchor="start" x="481" y="-7.6" font-family="Roboto" font-size="8.00" fill="#000000"> </text>
</a>
</g>
</a>
</g>
</g>
<!-- c1341271&#45;&gt;c1341569 -->
<g id="edge5" class="edge">
<title>c1341271&#45;&gt;c1341569</title>
<path fill="none" stroke="#000000" d="M293.2259,-42.4104C318.9098,-37.1523 349.9723,-30.7931 376.192,-25.4253"/>
<polygon fill="none" stroke="#000000" points="292.4008,-39.0067 283.306,-44.4413 293.8048,-45.8644 292.4008,-39.0067"/>
</g>
</g>
</svg>
