<?xml version="1.0" encoding="UTF-8" standalone="no"?>
<!DOCTYPE svg PUBLIC "-//W3C//DTD SVG 1.1//EN"
 "http://www.w3.org/Graphics/SVG/1.1/DTD/svg11.dtd">
<!-- Generated by graphviz version 2.40.1 (20161225.0304)
 -->
<!-- Title: G Pages: 1 -->
<svg width="608pt" height="313pt"
 viewBox="0.00 0.00 608.00 312.50" xmlns="http://www.w3.org/2000/svg" xmlns:xlink="http://www.w3.org/1999/xlink">
<g id="graph0" class="graph" transform="scale(1 1) rotate(0) translate(4 308.5)">
<title>G</title>
<polygon fill="#ffffff" stroke="transparent" points="-4,4 -4,-308.5 604,-308.5 604,4 -4,4"/>
<!-- c349561 -->
<g id="node1" class="node">
<title>c349561</title>
<g id="a_node1"><a xlink:href="SimilarityRangeIndex.html" xlink:title="&lt;TABLE&gt;">
<g id="a_node1_0"><a xlink:href="SimilarityRangeIndex.html" xlink:title="de.lmu.ifi.dbs.elki.index.SimilarityRangeIndex" target="_parent">
<polygon fill="#fffacd" stroke="transparent" points="216,-276.5 216,-304.5 306,-304.5 306,-276.5 216,-276.5"/>
<polygon fill="none" stroke="#000000" points="216,-276.5 216,-304.5 306,-304.5 306,-276.5 216,-276.5"/>
<text text-anchor="start" x="239.5" y="-294.1" font-family="Roboto" font-size="8.00" fill="#000000"> «interface» </text>
<text text-anchor="start" x="220" y="-284.1" font-family="Roboto" font-size="8.00" fill="#000000"> </text>
<text text-anchor="start" x="223" y="-284.1" font-family="Roboto" font-size="8.00" fill="#000000">SimilarityRangeIndex</text>
<text text-anchor="start" x="299" y="-284.1" font-family="Roboto" font-size="8.00" fill="#000000"> </text>
</a>
</g>
</a>
</g>
</g>
<!-- c349562 -->
<g id="node2" class="node">
<title>c349562</title>
<g id="a_node2"><a xlink:href="DynamicIndex.html" xlink:title="&lt;TABLE&gt;">
<g id="a_node2_1"><a xlink:href="DynamicIndex.html" xlink:title="de.lmu.ifi.dbs.elki.index.DynamicIndex" target="_parent">
<polygon fill="none" stroke="#000000" points="229,-237.5 229,-265.5 294,-265.5 294,-237.5 229,-237.5"/>
<text text-anchor="start" x="240" y="-255.1" font-family="Roboto" font-size="8.00" fill="#000000"> «interface» </text>
<text text-anchor="start" x="233" y="-245.1" font-family="Roboto" font-size="8.00" fill="#000000"> </text>
<text text-anchor="start" x="236" y="-245.1" font-family="Roboto" font-size="8.00" fill="#000000">DynamicIndex</text>
<text text-anchor="start" x="287" y="-245.1" font-family="Roboto" font-size="8.00" fill="#000000"> </text>
</a>
</g>
</a>
</g>
</g>
<!-- c349563 -->
<g id="node3" class="node">
<title>c349563</title>
<g id="a_node3"><a xlink:href="SimilarityIndex.html" xlink:title="&lt;TABLE&gt;">
<g id="a_node3_2"><a xlink:href="SimilarityIndex.html" xlink:title="de.lmu.ifi.dbs.elki.index.SimilarityIndex" target="_parent">
<polygon fill="#fffacd" stroke="transparent" points="227.5,-198.5 227.5,-226.5 294.5,-226.5 294.5,-198.5 227.5,-198.5"/>
<polygon fill="none" stroke="#000000" points="228,-198.5 228,-226.5 295,-226.5 295,-198.5 228,-198.5"/>
<text text-anchor="start" x="240" y="-216.1" font-family="Roboto" font-size="8.00" fill="#000000"> «interface» </text>
<text text-anchor="start" x="232" y="-206.1" font-family="Roboto" font-size="8.00" fill="#000000"> </text>
<text text-anchor="start" x="235" y="-206.1" font-family="Roboto" font-size="8.00" fill="#000000">SimilarityIndex</text>
<text text-anchor="start" x="288" y="-206.1" font-family="Roboto" font-size="8.00" fill="#000000"> </text>
</a>
</g>
</a>
</g>
</g>
<!-- c349564 -->
<g id="node4" class="node">
<title>c349564</title>
<g id="a_node4"><a xlink:href="RangeIndex.html" xlink:title="&lt;TABLE&gt;">
<g id="a_node4_3"><a xlink:href="RangeIndex.html" xlink:title="de.lmu.ifi.dbs.elki.index.RangeIndex" target="_parent">
<polygon fill="#fffacd" stroke="transparent" points="233,-159.5 233,-187.5 289,-187.5 289,-159.5 233,-159.5"/>
<polygon fill="none" stroke="#000000" points="233,-159.5 233,-187.5 289,-187.5 289,-159.5 233,-159.5"/>
<text text-anchor="start" x="239.5" y="-177.1" font-family="Roboto" font-size="8.00" fill="#000000"> «interface» </text>
<text text-anchor="start" x="237" y="-167.1" font-family="Roboto" font-size="8.00" fill="#000000"> </text>
<text text-anchor="start" x="240" y="-167.1" font-family="Roboto" font-size="8.00" fill="#000000">RangeIndex</text>
<text text-anchor="start" x="282" y="-167.1" font-family="Roboto" font-size="8.00" fill="#000000"> </text>
</a>
</g>
</a>
</g>
</g>
<!-- c349565 -->
<g id="node5" class="node">
<title>c349565</title>
<g id="a_node5"><a xlink:href="Index.html" xlink:title="&lt;TABLE&gt;">
<g id="a_node5_4"><a xlink:href="Index.html" xlink:title="de.lmu.ifi.dbs.elki.index.Index" target="_parent">
<polygon fill="none" stroke="#000000" points="131,-139.5 131,-167.5 182,-167.5 182,-139.5 131,-139.5"/>
<text text-anchor="start" x="135" y="-157.1" font-family="Roboto" font-size="8.00" fill="#000000"> «interface» </text>
<text text-anchor="start" x="144" y="-147.1" font-family="Roboto" font-size="8.00" fill="#000000"> </text>
<text text-anchor="start" x="147" y="-147.1" font-family="Roboto" font-size="8.00" fill="#000000">Index</text>
<text text-anchor="start" x="166" y="-147.1" font-family="Roboto" font-size="8.00" fill="#000000"> </text>
</a>
</g>
</a>
</g>
</g>
<!-- c349565&#45;&gt;c349561 -->
<g id="edge1" class="edge">
<title>c349565&#45;&gt;c349561</title>
<path fill="none" stroke="#000000" stroke-dasharray="5,2" d="M162.7999,-177.7207C171.3001,-203.9867 188.2131,-245.6162 216,-271.5 217.8616,-273.2341 219.9048,-274.8226 222.0616,-276.276"/>
<polygon fill="none" stroke="#000000" points="166.041,-176.352 159.7592,-167.8204 159.3495,-178.4073 166.041,-176.352"/>
</g>
<!-- c349565&#45;&gt;c349562 -->
<g id="edge2" class="edge">
<title>c349565&#45;&gt;c349562</title>
<path fill="none" stroke="#000000" stroke-dasharray="5,2" d="M168.9073,-176.4924C179.6194,-193.8312 196.2606,-217.1681 216,-232.5 219.7506,-235.4131 224.0136,-237.9609 228.3853,-240.1638"/>
<polygon fill="none" stroke="#000000" points="171.7119,-174.362 163.584,-167.5658 165.6998,-177.9472 171.7119,-174.362"/>
</g>
<!-- c349565&#45;&gt;c349563 -->
<g id="edge3" class="edge">
<title>c349565&#45;&gt;c349563</title>
<path fill="none" stroke="#000000" stroke-dasharray="5,2" d="M183.4739,-173.3943C193.4617,-180.1987 205.001,-187.5801 216,-193.5 219.5844,-195.4292 223.4066,-197.3029 227.2515,-199.0741"/>
<polygon fill="none" stroke="#000000" points="185.3592,-170.4424 175.1488,-167.6144 181.3671,-176.1925 185.3592,-170.4424"/>
</g>
<!-- c349565&#45;&gt;c349564 -->
<g id="edge4" class="edge">
<title>c349565&#45;&gt;c349564</title>
<path fill="none" stroke="#000000" stroke-dasharray="5,2" d="M191.6192,-160.2846C205.1235,-162.8568 220.2954,-165.7467 232.9999,-168.1666"/>
<polygon fill="none" stroke="#000000" points="192.1642,-156.8256 181.6859,-158.3926 190.8544,-163.7019 192.1642,-156.8256"/>
</g>
<!-- c349566 -->
<g id="node6" class="node">
<title>c349566</title>
<g id="a_node6"><a xlink:href="DistanceIndex.html" xlink:title="&lt;TABLE&gt;">
<g id="a_node6_5"><a xlink:href="DistanceIndex.html" xlink:title="de.lmu.ifi.dbs.elki.index.DistanceIndex" target="_parent">
<polygon fill="#fffacd" stroke="transparent" points="229,-120.5 229,-148.5 293,-148.5 293,-120.5 229,-120.5"/>
<polygon fill="none" stroke="#000000" points="229,-120.5 229,-148.5 293,-148.5 293,-120.5 229,-120.5"/>
<text text-anchor="start" x="239.5" y="-138.1" font-family="Roboto" font-size="8.00" fill="#000000"> «interface» </text>
<text text-anchor="start" x="233" y="-128.1" font-family="Roboto" font-size="8.00" fill="#000000"> </text>
<text text-anchor="start" x="236" y="-128.1" font-family="Roboto" font-size="8.00" fill="#000000">DistanceIndex</text>
<text text-anchor="start" x="286" y="-128.1" font-family="Roboto" font-size="8.00" fill="#000000"> </text>
</a>
</g>
</a>
</g>
</g>
<!-- c349565&#45;&gt;c349566 -->
<g id="edge5" class="edge">
<title>c349565&#45;&gt;c349566</title>
<path fill="none" stroke="#000000" stroke-dasharray="5,2" d="M191.821,-147.0181C203.8163,-144.8475 217.1081,-142.4424 228.8087,-140.3251"/>
<polygon fill="none" stroke="#000000" points="190.9028,-143.6273 181.6859,-148.8521 192.1493,-150.5155 190.9028,-143.6273"/>
</g>
<!-- c349568 -->
<g id="node8" class="node">
<title>c349568</title>
<g id="a_node8"><a xlink:href="KNNIndex.html" xlink:title="&lt;TABLE&gt;">
<g id="a_node8_6"><a xlink:href="KNNIndex.html" xlink:title="de.lmu.ifi.dbs.elki.index.KNNIndex" target="_parent">
<polygon fill="#fffacd" stroke="transparent" points="235.5,-81.5 235.5,-109.5 286.5,-109.5 286.5,-81.5 235.5,-81.5"/>
<polygon fill="none" stroke="#000000" points="236,-81.5 236,-109.5 287,-109.5 287,-81.5 236,-81.5"/>
<text text-anchor="start" x="240" y="-99.1" font-family="Roboto" font-size="8.00" fill="#000000"> «interface» </text>
<text text-anchor="start" x="240" y="-89.1" font-family="Roboto" font-size="8.00" fill="#000000"> </text>
<text text-anchor="start" x="243" y="-89.1" font-family="Roboto" font-size="8.00" fill="#000000">KNNIndex</text>
<text text-anchor="start" x="280" y="-89.1" font-family="Roboto" font-size="8.00" fill="#000000"> </text>
</a>
</g>
</a>
</g>
</g>
<!-- c349565&#45;&gt;c349568 -->
<g id="edge7" class="edge">
<title>c349565&#45;&gt;c349568</title>
<path fill="none" stroke="#000000" stroke-dasharray="5,2" d="M191.0779,-137.3899C193.1239,-136.1442 195.1141,-134.8453 197,-133.5 206.7222,-126.5648 206.0931,-121.1686 216,-114.5 221.9094,-110.5222 228.7858,-107.1092 235.3582,-104.3186"/>
<polygon fill="none" stroke="#000000" points="188.9423,-134.5724 181.9003,-142.4883 192.3417,-140.6916 188.9423,-134.5724"/>
</g>
<!-- c349569 -->
<g id="node9" class="node">
<title>c349569</title>
<g id="a_node9"><a xlink:href="RKNNIndex.html" xlink:title="&lt;TABLE&gt;">
<g id="a_node9_7"><a xlink:href="RKNNIndex.html" xlink:title="de.lmu.ifi.dbs.elki.index.RKNNIndex" target="_parent">
<polygon fill="#fffacd" stroke="transparent" points="233,-42.5 233,-70.5 289,-70.5 289,-42.5 233,-42.5"/>
<polygon fill="none" stroke="#000000" points="233,-42.5 233,-70.5 289,-70.5 289,-42.5 233,-42.5"/>
<text text-anchor="start" x="239.5" y="-60.1" font-family="Roboto" font-size="8.00" fill="#000000"> «interface» </text>
<text text-anchor="start" x="237" y="-50.1" font-family="Roboto" font-size="8.00" fill="#000000"> </text>
<text text-anchor="start" x="240" y="-50.1" font-family="Roboto" font-size="8.00" fill="#000000">RKNNIndex</text>
<text text-anchor="start" x="282" y="-50.1" font-family="Roboto" font-size="8.00" fill="#000000"> </text>
</a>
</g>
</a>
</g>
</g>
<!-- c349565&#45;&gt;c349569 -->
<g id="edge8" class="edge">
<title>c349565&#45;&gt;c349569</title>
<path fill="none" stroke="#000000" stroke-dasharray="5,2" d="M190.3544,-139.5553C192.7897,-137.7514 195.0489,-135.7391 197,-133.5 214.8201,-113.0489 197.631,-95.4595 216,-75.5 220.5942,-70.508 226.7115,-66.7806 232.9514,-64.0148"/>
<polygon fill="none" stroke="#000000" points="188.2965,-136.7111 181.5887,-144.9121 191.9466,-142.6841 188.2965,-136.7111"/>
</g>
<!-- c350784 -->
<g id="node10" class="node">
<title>c350784</title>
<g id="a_node10"><a xlink:href="AbstractIndex.html" xlink:title="&lt;TABLE&gt;">
<g id="a_node10_8"><a xlink:href="AbstractIndex.html" xlink:title="de.lmu.ifi.dbs.elki.index.AbstractIndex" target="_parent">
<polygon fill="none" stroke="#000000" points="230,-13.5 230,-30.5 293,-30.5 293,-13.5 230,-13.5"/>
<text text-anchor="start" x="234" y="-21.1" font-family="Roboto" font-size="8.00" fill="#000000"> </text>
<text text-anchor="start" x="237" y="-21.1" font-family="Roboto" font-style="italic" font-size="8.00" fill="#000000">AbstractIndex</text>
<text text-anchor="start" x="286" y="-21.1" font-family="Roboto" font-size="8.00" fill="#000000"> </text>
</a>
</g>
</a>
</g>
</g>
<!-- c349565&#45;&gt;c350784 -->
<g id="edge9" class="edge">
<title>c349565&#45;&gt;c350784</title>
<path fill="none" stroke="#000000" stroke-dasharray="5,2" d="M190.4857,-139.9474C192.923,-138.0537 195.1452,-135.9138 197,-133.5 210.3836,-116.0831 201.3308,-52.8488 216,-36.5 219.6063,-32.4807 224.3442,-29.6034 229.3904,-27.5462"/>
<polygon fill="none" stroke="#000000" points="188.2349,-137.2254 181.5909,-145.4782 191.9313,-143.1699 188.2349,-137.2254"/>
</g>
<!-- c349567 -->
<g id="node7" class="node">
<title>c349567</title>
<g id="a_node7"><a xlink:href="IndexFactory.html" xlink:title="&lt;TABLE&gt;">
<g id="a_node7_9"><a xlink:href="IndexFactory.html" xlink:title="de.lmu.ifi.dbs.elki.index.IndexFactory" target="_parent">
<polygon fill="none" stroke="#000000" points="0,-94.5 0,-133.5 76,-133.5 76,-94.5 0,-94.5"/>
<text text-anchor="start" x="16.5" y="-123.1" font-family="Roboto" font-size="8.00" fill="#000000"> «interface» </text>
<text text-anchor="start" x="4" y="-112.1" font-family="Roboto" font-size="8.00" fill="#000000"> «factory,interface» </text>
<text text-anchor="start" x="12.5" y="-102.1" font-family="Roboto" font-size="8.00" fill="#000000"> </text>
<text text-anchor="start" x="15.5" y="-102.1" font-family="Roboto" font-size="8.00" fill="#000000">IndexFactory</text>
<text text-anchor="start" x="60.5" y="-102.1" font-family="Roboto" font-size="8.00" fill="#000000"> </text>
</a>
</g>
</a>
</g>
</g>
<!-- c349567&#45;&gt;c349565 -->
<g id="edge6" class="edge">
<title>c349567&#45;&gt;c349565</title>
<path fill="none" stroke="#000000" d="M87.7749,-130.951C98.8301,-134.6049 110.3283,-138.4051 120.665,-141.8215"/>
<polygon fill="none" stroke="#000000" points="87.705,-130.928 80.7529,-132.843 76.3112,-127.1622 83.2634,-125.2472 87.705,-130.928"/>
<polygon fill="#000000" stroke="#000000" points="130.1671,-144.962 119.26,-146.0965 125.4197,-143.3929 120.6722,-141.8238 120.6722,-141.8238 120.6722,-141.8238 125.4197,-143.3929 122.0844,-137.5511 130.1671,-144.962 130.1671,-144.962"/>
<text text-anchor="middle" x="95.5" y="-137.9" font-family="Roboto" font-size="7.00" fill="#000000">create</text>
</g>
<!-- c350794 -->
<g id="node14" class="node">
<title>c350794</title>
<g id="a_node14"><a xlink:href="PagedIndexFactory.html" xlink:title="&lt;TABLE&gt;">
<g id="a_node14_10"><a xlink:href="PagedIndexFactory.html" xlink:title="de.lmu.ifi.dbs.elki.index.PagedIndexFactory" target="_parent">
<polygon fill="none" stroke="#000000" points="115,-100.5 115,-128.5 197,-128.5 197,-100.5 115,-100.5"/>
<text text-anchor="start" x="122" y="-118.1" font-family="Roboto" font-size="8.00" fill="#000000"> «factory,interface» </text>
<text text-anchor="start" x="119" y="-108.1" font-family="Roboto" font-size="8.00" fill="#000000"> </text>
<text text-anchor="start" x="122" y="-108.1" font-family="Roboto" font-style="italic" font-size="8.00" fill="#000000">PagedIndexFactory</text>
<text text-anchor="start" x="190" y="-108.1" font-family="Roboto" font-size="8.00" fill="#000000"> </text>
</a>
</g>
</a>
</g>
</g>
<!-- c349567&#45;&gt;c350794 -->
<g id="edge13" class="edge">
<title>c349567&#45;&gt;c350794</title>
<path fill="none" stroke="#000000" stroke-dasharray="5,2" d="M86.3123,-114.5C95.7077,-114.5 105.4772,-114.5 114.6244,-114.5"/>
<polygon fill="none" stroke="#000000" points="86.3113,-111.0001 76.3112,-114.5 86.3112,-118.0001 86.3113,-111.0001"/>
</g>
<!-- c350785 -->
<g id="node11" class="node">
<title>c350785</title>
<g id="a_node11"><a xlink:href="AbstractRefiningIndex.html" xlink:title="&lt;TABLE&gt;">
<g id="a_node11_11"><a xlink:href="AbstractRefiningIndex.html" xlink:title="de.lmu.ifi.dbs.elki.index.AbstractRefiningIndex" target="_parent">
<polygon fill="none" stroke="#000000" points="325.5,-13.5 325.5,-30.5 416.5,-30.5 416.5,-13.5 325.5,-13.5"/>
<text text-anchor="start" x="329.5" y="-21.1" font-family="Roboto" font-size="8.00" fill="#000000"> </text>
<text text-anchor="start" x="332.5" y="-21.1" font-family="Roboto" font-style="italic" font-size="8.00" fill="#000000">AbstractRefiningIndex</text>
<text text-anchor="start" x="409.5" y="-21.1" font-family="Roboto" font-size="8.00" fill="#000000"> </text>
</a>
</g>
</a>
</g>
</g>
<!-- c350784&#45;&gt;c350785 -->
<g id="edge10" class="edge">
<title>c350784&#45;&gt;c350785</title>
<path fill="none" stroke="#000000" d="M302.8394,-22.5C309.972,-22.5 317.4146,-22.5 324.6446,-22.5"/>
<polygon fill="none" stroke="#000000" points="302.672,-19.0001 292.6719,-22.5 302.6719,-26.0001 302.672,-19.0001"/>
</g>
<!-- c350786 -->
<g id="node12" class="node">
<title>c350786</title>
<g id="a_node12"><a xlink:href="AbstractRefiningIndex.AbstractRangeQuery.html" xlink:title="&lt;TABLE&gt;">
<g id="a_node12_12"><a xlink:href="AbstractRefiningIndex.AbstractRangeQuery.html" xlink:title="de.lmu.ifi.dbs.elki.index.AbstractRefiningIndex.AbstractRangeQuery" target="_parent">
<polygon fill="none" stroke="#000000" points="435.5,-27.5 435.5,-44.5 600.5,-44.5 600.5,-27.5 435.5,-27.5"/>
<text text-anchor="start" x="439.5" y="-35.1" font-family="Roboto" font-size="8.00" fill="#000000"> </text>
<text text-anchor="start" x="442.5" y="-35.1" font-family="Roboto" font-style="italic" font-size="8.00" fill="#000000">AbstractRefiningIndex.AbstractRangeQuery</text>
<text text-anchor="start" x="593.5" y="-35.1" font-family="Roboto" font-size="8.00" fill="#000000"> </text>
</a>
</g>
</a>
</g>
</g>
<!-- c350785&#45;&gt;c350786 -->
<g id="edge11" class="edge">
<title>c350785&#45;&gt;c350786</title>
<path fill="none" stroke="#000000" d="M428.3042,-28.0052C430.4624,-28.2107 432.6395,-28.418 434.8276,-28.6264"/>
<polygon fill="none" stroke="#000000" points="428.1519,-27.9907 421.7996,-31.4038 416.2059,-26.8529 422.5582,-23.4399 428.1519,-27.9907"/>
</g>
<!-- c350787 -->
<g id="node13" class="node">
<title>c350787</title>
<g id="a_node13"><a xlink:href="AbstractRefiningIndex.AbstractKNNQuery.html" xlink:title="&lt;TABLE&gt;">
<g id="a_node13_13"><a xlink:href="AbstractRefiningIndex.AbstractKNNQuery.html" xlink:title="de.lmu.ifi.dbs.elki.index.AbstractRefiningIndex.AbstractKNNQuery" target="_parent">
<polygon fill="none" stroke="#000000" points="438.5,.5 438.5,-16.5 597.5,-16.5 597.5,.5 438.5,.5"/>
<text text-anchor="start" x="442.5" y="-7.1" font-family="Roboto" font-size="8.00" fill="#000000"> </text>
<text text-anchor="start" x="445.5" y="-7.1" font-family="Roboto" font-style="italic" font-size="8.00" fill="#000000">AbstractRefiningIndex.AbstractKNNQuery</text>
<text text-anchor="start" x="590.5" y="-7.1" font-family="Roboto" font-size="8.00" fill="#000000"> </text>
</a>
</g>
</a>
</g>
</g>
<!-- c350785&#45;&gt;c350787 -->
<g id="edge12" class="edge">
<title>c350785&#45;&gt;c350787</title>
<path fill="none" stroke="#000000" d="M428.1799,-17.0067C431.3511,-16.7047 434.5636,-16.3987 437.7922,-16.0912"/>
<polygon fill="none" stroke="#000000" points="428.1519,-17.0093 422.5582,-21.5601 416.2059,-18.1471 421.7996,-13.5962 428.1519,-17.0093"/>
</g>
</g>
</svg>
