<?xml version="1.0" encoding="UTF-8" standalone="no"?><svg xmlns="http://www.w3.org/2000/svg" xmlns:xlink="http://www.w3.org/1999/xlink" contentStyleType="text/css" height="518px" preserveAspectRatio="none" style="width:434px;height:518px;background:#FFFFFF;" version="1.1" viewBox="0 0 434 518" width="434px" zoomAndPan="magnify"><defs/><g><!--MD5=[84be3d5037b3e7736acc44bb0643f639]
class elki.data.spatial.Polygon--><a href="Polygon.html" target="_top" title="Polygon.html" xlink:actuate="onRequest" xlink:href="Polygon.html" xlink:show="new" xlink:title="Polygon.html" xlink:type="simple"><g id="elem_elki.data.spatial.Polygon"><rect codeLine="6" fill="#F1F1F1" height="330.9844" id="elki.data.spatial.Polygon" rx="2.5" ry="2.5" style="stroke:#181818;stroke-width:0.5;" width="420" x="7" y="162"/><ellipse cx="175.75" cy="180.9688" fill="#ADD1B2" rx="11" ry="11" style="stroke:#181818;stroke-width:1.0;"/><path d="M178.7188,186.6094 Q178.1406,186.9063 177.5,187.0469 Q176.8594,187.2031 176.1563,187.2031 Q173.6563,187.2031 172.3281,185.5625 Q171.0156,183.9063 171.0156,180.7813 Q171.0156,177.6563 172.3281,176 Q173.6563,174.3438 176.1563,174.3438 Q176.8594,174.3438 177.5,174.5 Q178.1563,174.6563 178.7188,174.9531 L178.7188,177.6719 Q178.0938,177.0938 177.5,176.8281 Q176.9063,176.5469 176.2813,176.5469 Q174.9375,176.5469 174.25,177.625 Q173.5625,178.6875 173.5625,180.7813 Q173.5625,182.875 174.25,183.9531 Q174.9375,185.0156 176.2813,185.0156 Q176.9063,185.0156 177.5,184.75 Q178.0938,184.4688 178.7188,183.8906 L178.7188,186.6094 Z " fill="#000000"/><text fill="#000000" font-family="sans-serif" font-size="14" lengthAdjust="spacing" textLength="55" x="205.75" y="179.9951">Polygon</text><text fill="#000000" font-family="sans-serif" font-size="10" lengthAdjust="spacing" textLength="74" x="196.25" y="192.5791">elki.data.spatial</text><line style="stroke:#181818;stroke-width:0.5;" x1="8" x2="426" y1="199.9375" y2="199.9375"/><rect fill="none" height="6" style="stroke:#C82930;stroke-width:1.0;" width="6" x="15" y="210.5859"/><text fill="#000000" font-family="sans-serif" font-size="14" lengthAdjust="spacing" textLength="157" x="27" y="216.9326">points: List&lt;double[]&gt;</text><rect fill="none" height="6" style="stroke:#C82930;stroke-width:1.0;" width="6" x="15" y="226.8828"/><text fill="#000000" font-family="sans-serif" font-size="14" lengthAdjust="spacing" textLength="92" x="27" y="233.2295">min: double[]</text><rect fill="none" height="6" style="stroke:#C82930;stroke-width:1.0;" width="6" x="15" y="243.1797"/><text fill="#000000" font-family="sans-serif" font-size="14" lengthAdjust="spacing" textLength="95" x="27" y="249.5264">max: double[]</text><line style="stroke:#181818;stroke-width:0.5;" x1="8" x2="426" y1="256.8281" y2="256.8281"/><ellipse cx="18" cy="270.4766" fill="#84BE84" rx="3" ry="3" style="stroke:#038048;stroke-width:1.0;"/><text fill="#000000" font-family="sans-serif" font-size="14" lengthAdjust="spacing" textLength="170" x="27" y="273.8232">Polygon(List&lt;double[]&gt;)</text><ellipse cx="18" cy="286.7734" fill="#84BE84" rx="3" ry="3" style="stroke:#038048;stroke-width:1.0;"/><text fill="#000000" font-family="sans-serif" font-size="14" lengthAdjust="spacing" textLength="394" x="27" y="290.1201">Polygon(List&lt;double[]&gt;, double, double, double, double)</text><ellipse cx="18" cy="303.0703" fill="#84BE84" rx="3" ry="3" style="stroke:#038048;stroke-width:1.0;"/><text fill="#000000" font-family="sans-serif" font-size="14" lengthAdjust="spacing" textLength="202" x="27" y="306.417">iter(): ArrayListIter&lt;double[]&gt;</text><ellipse cx="18" cy="319.3672" fill="#84BE84" rx="3" ry="3" style="stroke:#038048;stroke-width:1.0;"/><text fill="#000000" font-family="sans-serif" font-size="14" lengthAdjust="spacing" textLength="307" x="27" y="322.7139">appendToBuffer(StringBuilder): StringBuilder</text><ellipse cx="18" cy="335.6641" fill="#84BE84" rx="3" ry="3" style="stroke:#038048;stroke-width:1.0;"/><text fill="#000000" font-family="sans-serif" font-size="14" lengthAdjust="spacing" textLength="64" x="27" y="339.0107">size(): int</text><ellipse cx="18" cy="351.9609" fill="#84BE84" rx="3" ry="3" style="stroke:#038048;stroke-width:1.0;"/><text fill="#000000" font-family="sans-serif" font-size="14" lengthAdjust="spacing" textLength="117" x="27" y="355.3076">get(int): double[]</text><ellipse cx="18" cy="368.2578" fill="#84BE84" rx="3" ry="3" style="stroke:#038048;stroke-width:1.0;"/><text fill="#000000" font-family="sans-serif" font-size="14" lengthAdjust="spacing" textLength="159" x="27" y="371.6045">getDimensionality(): int</text><ellipse cx="18" cy="384.5547" fill="#84BE84" rx="3" ry="3" style="stroke:#038048;stroke-width:1.0;"/><text fill="#000000" font-family="sans-serif" font-size="14" lengthAdjust="spacing" textLength="131" x="27" y="387.9014">getMin(int): double</text><ellipse cx="18" cy="400.8516" fill="#84BE84" rx="3" ry="3" style="stroke:#038048;stroke-width:1.0;"/><text fill="#000000" font-family="sans-serif" font-size="14" lengthAdjust="spacing" textLength="134" x="27" y="404.1982">getMax(int): double</text><ellipse cx="18" cy="417.1484" fill="#84BE84" rx="3" ry="3" style="stroke:#038048;stroke-width:1.0;"/><text fill="#000000" font-family="sans-serif" font-size="14" lengthAdjust="spacing" textLength="132" x="27" y="420.4951">testClockwise(): int</text><ellipse cx="18" cy="433.4453" fill="#84BE84" rx="3" ry="3" style="stroke:#038048;stroke-width:1.0;"/><text fill="#000000" font-family="sans-serif" font-size="14" lengthAdjust="spacing" textLength="296" x="27" y="436.792">intersects2DIncomplete(Polygon): boolean</text><ellipse cx="18" cy="449.7422" fill="#84BE84" rx="3" ry="3" style="stroke:#038048;stroke-width:1.0;"/><text fill="#000000" font-family="sans-serif" font-size="14" lengthAdjust="spacing" textLength="247" x="27" y="453.0889">containsPoint2D(double[]): boolean</text><ellipse cx="18" cy="466.0391" fill="#84BE84" rx="3" ry="3" style="stroke:#038048;stroke-width:1.0;"/><text fill="#000000" font-family="sans-serif" font-size="14" lengthAdjust="spacing" textLength="161" x="27" y="469.3857">areaShoelace(): double</text><ellipse cx="18" cy="482.3359" fill="#84BE84" rx="3" ry="3" style="stroke:#038048;stroke-width:1.0;"/><text fill="#000000" font-family="sans-serif" font-size="14" lengthAdjust="spacing" textLength="199" x="27" y="485.6826">iterator(): Iterator&lt;double[]&gt;</text></g></a><!--MD5=[fcd46920285db0b2ccf06276dd312c21]
class elki.data.spatial.SpatialComparable--><a href="SpatialComparable.html" target="_top" title="SpatialComparable.html" xlink:actuate="onRequest" xlink:href="SpatialComparable.html" xlink:show="new" xlink:title="SpatialComparable.html" xlink:type="simple"><g id="elem_elki.data.spatial.SpatialComparable"><rect codeLine="26" fill="#F1F1F1" height="94.8281" id="elki.data.spatial.SpatialComparable" rx="2.5" ry="2.5" style="stroke:#181818;stroke-width:0.5;" width="192" x="11" y="7"/><ellipse cx="36.8" cy="25.9688" fill="#B4A7E5" rx="11" ry="11" style="stroke:#181818;stroke-width:1.0;"/><path d="M32.7219,21.7344 L32.7219,19.5781 L40.1125,19.5781 L40.1125,21.7344 L37.6438,21.7344 L37.6438,29.8125 L40.1125,29.8125 L40.1125,31.9688 L32.7219,31.9688 L32.7219,29.8125 L35.1906,29.8125 L35.1906,21.7344 L32.7219,21.7344 Z " fill="#000000"/><text fill="#000000" font-family="sans-serif" font-size="14" font-style="italic" lengthAdjust="spacing" textLength="136" x="53.2" y="24.9951">SpatialComparable</text><text fill="#000000" font-family="sans-serif" font-size="10" font-style="italic" lengthAdjust="spacing" textLength="79" x="81.7" y="37.5791">elki.data.spatial</text><line style="stroke:#181818;stroke-width:0.5;" x1="12" x2="202" y1="44.9375" y2="44.9375"/><ellipse cx="22" cy="58.5859" fill="#84BE84" rx="3" ry="3" style="stroke:#038048;stroke-width:1.0;"/><text fill="#000000" font-family="sans-serif" font-size="14" font-style="italic" lengthAdjust="spacing" textLength="166" x="31" y="61.9326">getDimensionality(): int</text><ellipse cx="22" cy="74.8828" fill="#84BE84" rx="3" ry="3" style="stroke:#038048;stroke-width:1.0;"/><text fill="#000000" font-family="sans-serif" font-size="14" font-style="italic" lengthAdjust="spacing" textLength="134" x="31" y="78.2295">getMin(int): double</text><ellipse cx="22" cy="91.1797" fill="#84BE84" rx="3" ry="3" style="stroke:#038048;stroke-width:1.0;"/><text fill="#000000" font-family="sans-serif" font-size="14" font-style="italic" lengthAdjust="spacing" textLength="138" x="31" y="94.5264">getMax(int): double</text></g></a><!--MD5=[f06cde10779025ee1fafe9aaebbf62cd]
class java.lang.Iterable--><g id="elem_java.lang.Iterable"><rect codeLine="31" fill="#F1F1F1" height="62.2344" id="java.lang.Iterable" rx="2.5" ry="2.5" style="stroke:#181818;stroke-width:0.5;" width="180" x="238" y="23.5"/><ellipse cx="270.55" cy="42.4688" fill="#B4A7E5" rx="11" ry="11" style="stroke:#181818;stroke-width:1.0;"/><path d="M266.4719,38.2344 L266.4719,36.0781 L273.8625,36.0781 L273.8625,38.2344 L271.3938,38.2344 L271.3938,46.3125 L273.8625,46.3125 L273.8625,48.4688 L266.4719,48.4688 L266.4719,46.3125 L268.9406,46.3125 L268.9406,38.2344 L266.4719,38.2344 Z " fill="#000000"/><text fill="#000000" font-family="sans-serif" font-size="14" font-style="italic" lengthAdjust="spacing" textLength="54" x="288.45" y="41.4951">Iterable</text><text fill="#000000" font-family="sans-serif" font-size="10" font-style="italic" lengthAdjust="spacing" textLength="45" x="292.95" y="54.0791">java.lang</text><rect fill="#FFFFFF" height="15.9688" style="stroke:#181818;stroke-width:1.0;stroke-dasharray:2.0,2.0;" width="53" x="368" y="20.5"/><text fill="#000000" font-family="sans-serif" font-size="12" font-style="italic" lengthAdjust="spacing" textLength="51" x="369" y="32.6387">double[]</text><line style="stroke:#181818;stroke-width:0.5;" x1="239" x2="417" y1="61.4375" y2="61.4375"/><ellipse cx="249" cy="75.0859" fill="#84BE84" rx="3" ry="3" style="stroke:#038048;stroke-width:1.0;"/><text fill="#000000" font-family="sans-serif" font-size="14" font-style="italic" lengthAdjust="spacing" textLength="154" x="258" y="78.4326">iterator(): Iterator&lt;T&gt;</text></g><!--MD5=[5c766f11a1db2b5c6ea70972a14bb761]
reverse link elki.data.spatial.SpatialComparable to elki.data.spatial.Polygon--><g id="link_elki.data.spatial.SpatialComparable_elki.data.spatial.Polygon"><path codeLine="35" d="M133.59,121 C138.74,133.69 144.35,147.51 150.14,161.78 " fill="none" id="elki.data.spatial.SpatialComparable-backto-elki.data.spatial.Polygon" style="stroke:#181818;stroke-width:1.0;stroke-dasharray:7.0,7.0;"/><polygon fill="none" points="126.95,123.25,125.91,102.09,139.92,117.99,126.95,123.25" style="stroke:#181818;stroke-width:1.0;"/></g><!--MD5=[0330c1439538753d934cb0b0f6aaec80]
reverse link java.lang.Iterable to elki.data.spatial.Polygon--><g id="link_java.lang.Iterable_elki.data.spatial.Polygon"><path codeLine="36" d="M308.1,104.09 C301.2,120.94 293.02,140.9 284.45,161.83 " fill="none" id="java.lang.Iterable-backto-elki.data.spatial.Polygon" style="stroke:#181818;stroke-width:1.0;stroke-dasharray:7.0,7.0;"/><polygon fill="none" points="301.64,101.39,315.7,85.54,314.59,106.7,301.64,101.39" style="stroke:#181818;stroke-width:1.0;"/></g><rect fill="none" height="11.6406" style="stroke:none;stroke-width:1.0;" width="186" x="117" y="498.9844"/><text fill="#888888" font-family="sans-serif" font-size="10" lengthAdjust="spacing" textLength="186" x="117" y="508.2666">UMLDoclet 2.0.19, PlantUML 1.2022.8</text><!--MD5=[2d43cc39f021dd4defe4588d17b9926d]
@startuml
    remove .*\.(Instance|Par|Parameterizer|Factory)$
    set namespaceSeparator none
    hide empty fields
    hide empty methods

    class "<size:14>Polygon\n<size:10>elki.data.spatial" as elki.data.spatial.Polygon [[Polygon.html]] {
        -points: List<double[]>
        -min: double[]
        -max: double[]
        +Polygon(List<double[]>)
        +Polygon(List<double[]>, double, double, double, double)
        +iter(): ArrayListIter<double[]>
        +appendToBuffer(StringBuilder): StringBuilder
        +size(): int
        +get(int): double[]
        +getDimensionality(): int
        +getMin(int): double
        +getMax(int): double
        +testClockwise(): int
        +intersects2DIncomplete(Polygon): boolean
        +containsPoint2D(double[]): boolean
        +areaShoelace(): double
        +iterator(): Iterator<double[]>
    }

    interface "<size:14>SpatialComparable\n<size:10>elki.data.spatial" as elki.data.spatial.SpatialComparable [[SpatialComparable.html]] {
        {abstract} +getDimensionality(): int
        {abstract} +getMin(int): double
        {abstract} +getMax(int): double
    }
    interface "<size:14>Iterable\n<size:10>java.lang" as java.lang.Iterable<double[]> {
        {abstract} +iterator(): Iterator<T>
    }

    elki.data.spatial.SpatialComparable <|.. elki.data.spatial.Polygon
    java.lang.Iterable <|.. elki.data.spatial.Polygon

    center footer UMLDoclet 2.0.19, PlantUML 1.2022.8
@enduml

PlantUML version 1.2022.8(Sun Sep 25 11:00:33 CEST 2022)
(APACHE source distribution)
Java Runtime: OpenJDK Runtime Environment
JVM: OpenJDK 64-Bit Server VM
Default Encoding: UTF-8
Language: de
Country: DE
--></g></svg>