<?xml version="1.0" encoding="UTF-8" standalone="no"?><svg xmlns="http://www.w3.org/2000/svg" xmlns:xlink="http://www.w3.org/1999/xlink" contentStyleType="text/css" height="260px" preserveAspectRatio="none" style="width:547px;height:260px;background:#FFFFFF;" version="1.1" viewBox="0 0 547 260" width="547px" zoomAndPan="magnify"><defs/><g><!--MD5=[404de96610a0788859fe10cbf08b7551]
class elki.index.vafile.PartialVAFile.WorstCaseDistComparator--><a href="PartialVAFile.WorstCaseDistComparator.html" target="_top" title="PartialVAFile.WorstCaseDistComparator.html" xlink:actuate="onRequest" xlink:href="PartialVAFile.WorstCaseDistComparator.html" xlink:show="new" xlink:title="PartialVAFile.WorstCaseDistComparator.html" xlink:type="simple"><g id="elem_elki.index.vafile.PartialVAFile.WorstCaseDistComparator"><rect codeLine="6" fill="#F1F1F1" height="102.8281" id="elki.index.vafile.PartialVAFile.WorstCaseDistComparator" rx="2.5" ry="2.5" style="stroke:#181818;stroke-width:0.5;" width="351" x="85.5" y="132"/><ellipse cx="123" cy="150.9688" fill="#ADD1B2" rx="11" ry="11" style="stroke:#181818;stroke-width:1.0;"/><path d="M125.9688,156.6094 Q125.3906,156.9063 124.75,157.0469 Q124.1094,157.2031 123.4063,157.2031 Q120.9063,157.2031 119.5781,155.5625 Q118.2656,153.9063 118.2656,150.7813 Q118.2656,147.6563 119.5781,146 Q120.9063,144.3438 123.4063,144.3438 Q124.1094,144.3438 124.75,144.5 Q125.4063,144.6563 125.9688,144.9531 L125.9688,147.6719 Q125.3438,147.0938 124.75,146.8281 Q124.1563,146.5469 123.5313,146.5469 Q122.1875,146.5469 121.5,147.625 Q120.8125,148.6875 120.8125,150.7813 Q120.8125,152.875 121.5,153.9531 Q122.1875,155.0156 123.5313,155.0156 Q124.1563,155.0156 124.75,154.75 Q125.3438,154.4688 125.9688,153.8906 L125.9688,156.6094 Z " fill="#000000"/><text fill="#000000" font-family="sans-serif" font-size="14" lengthAdjust="spacing" textLength="269" x="142" y="149.9951">PartialVAFile.WorstCaseDistComparator</text><text fill="#000000" font-family="sans-serif" font-size="10" lengthAdjust="spacing" textLength="73" x="240" y="162.5791">elki.index.vafile</text><line style="stroke:#181818;stroke-width:0.5;" x1="86.5" x2="435.5" y1="169.9375" y2="169.9375"/><rect fill="none" height="6" style="stroke:#C82930;stroke-width:1.0;" width="6" x="93.5" y="180.5859"/><text fill="#000000" font-family="sans-serif" font-size="14" lengthAdjust="spacing" textLength="166" x="105.5" y="186.9326">dist: VALPNormDistance</text><line style="stroke:#181818;stroke-width:0.5;" x1="86.5" x2="435.5" y1="194.2344" y2="194.2344"/><ellipse cx="96.5" cy="207.8828" fill="#84BE84" rx="3" ry="3" style="stroke:#038048;stroke-width:1.0;"/><text fill="#000000" font-family="sans-serif" font-size="14" lengthAdjust="spacing" textLength="325" x="105.5" y="211.2295">WorstCaseDistComparator(VALPNormDistance)</text><ellipse cx="96.5" cy="224.1797" fill="#84BE84" rx="3" ry="3" style="stroke:#038048;stroke-width:1.0;"/><text fill="#000000" font-family="sans-serif" font-size="14" lengthAdjust="spacing" textLength="191" x="105.5" y="227.5264">compare(DAFile, DAFile): int</text></g></a><!--MD5=[ab8fa349a1e2e86ca8104897b03d4899]
class java.util.Comparator--><g id="elem_java.util.Comparator"><rect codeLine="12" fill="#F1F1F1" height="62.2344" id="java.util.Comparator" rx="2.5" ry="2.5" style="stroke:#181818;stroke-width:0.5;" width="226" x="7" y="10"/><ellipse cx="53.25" cy="28.9688" fill="#B4A7E5" rx="11" ry="11" style="stroke:#181818;stroke-width:1.0;"/><path d="M49.1719,24.7344 L49.1719,22.5781 L56.5625,22.5781 L56.5625,24.7344 L54.0938,24.7344 L54.0938,32.8125 L56.5625,32.8125 L56.5625,34.9688 L49.1719,34.9688 L49.1719,32.8125 L51.6406,32.8125 L51.6406,24.7344 L49.1719,24.7344 Z " fill="#000000"/><text fill="#000000" font-family="sans-serif" font-size="14" font-style="italic" lengthAdjust="spacing" textLength="84" x="73.75" y="27.9951">Comparator</text><text fill="#000000" font-family="sans-serif" font-size="10" font-style="italic" lengthAdjust="spacing" textLength="40" x="95.75" y="40.5791">java.util</text><rect fill="#FFFFFF" height="15.9688" style="stroke:#181818;stroke-width:1.0;stroke-dasharray:2.0,2.0;" width="39" x="197" y="7"/><text fill="#000000" font-family="sans-serif" font-size="12" font-style="italic" lengthAdjust="spacing" textLength="37" x="198" y="19.1387">DAFile</text><line style="stroke:#181818;stroke-width:0.5;" x1="8" x2="232" y1="47.9375" y2="47.9375"/><ellipse cx="18" cy="61.5859" fill="#84BE84" rx="3" ry="3" style="stroke:#038048;stroke-width:1.0;"/><text fill="#000000" font-family="sans-serif" font-size="14" font-style="italic" lengthAdjust="spacing" textLength="200" x="27" y="64.9326">compare(DAFile, DAFile): int</text></g><!--MD5=[5405ff2db7cfdfdfc5cf498b3549739e]
class elki.index.vafile.PartialVAFile--><a href="PartialVAFile.html" target="_top" title="PartialVAFile.html" xlink:actuate="onRequest" xlink:href="PartialVAFile.html" xlink:show="new" xlink:title="PartialVAFile.html" xlink:type="simple"><g id="elem_elki.index.vafile.PartialVAFile"><rect codeLine="15" fill="#F1F1F1" height="37.9375" id="elki.index.vafile.PartialVAFile" rx="2.5" ry="2.5" style="stroke:#181818;stroke-width:0.5;" width="268" x="268" y="22"/><ellipse cx="283" cy="40.9688" fill="#ADD1B2" rx="11" ry="11" style="stroke:#181818;stroke-width:1.0;"/><path d="M285.9688,46.6094 Q285.3906,46.9063 284.75,47.0469 Q284.1094,47.2031 283.4063,47.2031 Q280.9063,47.2031 279.5781,45.5625 Q278.2656,43.9063 278.2656,40.7813 Q278.2656,37.6563 279.5781,36 Q280.9063,34.3438 283.4063,34.3438 Q284.1094,34.3438 284.75,34.5 Q285.4063,34.6563 285.9688,34.9531 L285.9688,37.6719 Q285.3438,37.0938 284.75,36.8281 Q284.1563,36.5469 283.5313,36.5469 Q282.1875,36.5469 281.5,37.625 Q280.8125,38.6875 280.8125,40.7813 Q280.8125,42.875 281.5,43.9531 Q282.1875,45.0156 283.5313,45.0156 Q284.1563,45.0156 284.75,44.75 Q285.3438,44.4688 285.9688,43.8906 L285.9688,46.6094 Z " fill="#000000"/><text fill="#000000" font-family="sans-serif" font-size="14" lengthAdjust="spacing" textLength="82" x="297" y="39.9951">PartialVAFile</text><text fill="#000000" font-family="sans-serif" font-size="10" lengthAdjust="spacing" textLength="73" x="301.5" y="52.5791">elki.index.vafile</text><rect fill="#FFFFFF" height="15.9688" style="stroke:#181818;stroke-width:1.0;stroke-dasharray:2.0,2.0;" width="152" x="387" y="19"/><text fill="#000000" font-family="sans-serif" font-size="12" font-style="italic" lengthAdjust="spacing" textLength="150" x="388" y="31.1387">V extends NumberVector</text></g></a><!--MD5=[06a06533b8ba7eb423a401cd09602572]
reverse link java.util.Comparator to elki.index.vafile.PartialVAFile.WorstCaseDistComparator--><g id="link_java.util.Comparator_elki.index.vafile.PartialVAFile.WorstCaseDistComparator"><path codeLine="17" d="M164.63,86.47 C179.14,100.93 195.35,117.09 210.28,131.96 " fill="none" id="java.util.Comparator-backto-elki.index.vafile.PartialVAFile.WorstCaseDistComparator" style="stroke:#181818;stroke-width:1.0;stroke-dasharray:7.0,7.0;"/><polygon fill="none" points="159.47,91.22,150.25,72.14,169.36,81.3,159.47,91.22" style="stroke:#181818;stroke-width:1.0;"/></g><!--MD5=[82a7958d4eb5d9b2dc31c8f43c5b7c07]
reverse link elki.index.vafile.PartialVAFile to elki.index.vafile.PartialVAFile.WorstCaseDistComparator--><g id="link_elki.index.vafile.PartialVAFile_elki.index.vafile.PartialVAFile.WorstCaseDistComparator"><path codeLine="18" d="M373.13,70.77 C355.49,88.34 332.44,111.31 311.83,131.85 " fill="none" id="elki.index.vafile.PartialVAFile-backto-elki.index.vafile.PartialVAFile.WorstCaseDistComparator" style="stroke:#181818;stroke-width:1.0;"/><ellipse cx="378.1955" cy="65.7292" fill="#FFFFFF" rx="8" ry="8" style="stroke:#181818;stroke-width:1.0;"/><line style="stroke:#181818;stroke-width:1.0;" x1="372.5311" x2="383.86" y1="71.3785" y2="60.08"/><line style="stroke:#181818;stroke-width:1.0;" x1="372.5463" x2="383.8448" y1="60.0648" y2="71.3937"/></g><rect fill="none" height="11.6406" style="stroke:none;stroke-width:1.0;" width="186" x="173.5" y="240.8281"/><text fill="#888888" font-family="sans-serif" font-size="10" lengthAdjust="spacing" textLength="186" x="173.5" y="250.1104">UMLDoclet 2.0.19, PlantUML 1.2022.8</text><!--MD5=[e43a96cee4edc049dfc0170df1482e76]
@startuml
    remove .*\.(Instance|Par|Parameterizer|Factory)$
    set namespaceSeparator none
    hide empty fields
    hide empty methods

    class "<size:14>PartialVAFile.WorstCaseDistComparator\n<size:10>elki.index.vafile" as elki.index.vafile.PartialVAFile.WorstCaseDistComparator [[PartialVAFile.WorstCaseDistComparator.html]] {
        -dist: VALPNormDistance
        +WorstCaseDistComparator(VALPNormDistance)
        +compare(DAFile, DAFile): int
    }

    interface "<size:14>Comparator\n<size:10>java.util" as java.util.Comparator<DAFile> {
        {abstract} +compare(DAFile, DAFile): int
    }
    class "<size:14>PartialVAFile\n<size:10>elki.index.vafile" as elki.index.vafile.PartialVAFile<V extends NumberVector> [[PartialVAFile.html]]

    java.util.Comparator <|.. elki.index.vafile.PartialVAFile.WorstCaseDistComparator
    elki.index.vafile.PartialVAFile +- - elki.index.vafile.PartialVAFile.WorstCaseDistComparator

    center footer UMLDoclet 2.0.19, PlantUML 1.2022.8
@enduml

PlantUML version 1.2022.8(Sun Sep 25 11:00:33 CEST 2022)
(APACHE source distribution)
Java Runtime: OpenJDK Runtime Environment
JVM: OpenJDK 64-Bit Server VM
Default Encoding: UTF-8
Language: de
Country: DE
--></g></svg>