<?xml version="1.0" encoding="UTF-8" standalone="no"?><svg xmlns="http://www.w3.org/2000/svg" xmlns:xlink="http://www.w3.org/1999/xlink" contentStyleType="text/css" height="552px" preserveAspectRatio="none" style="width:1406px;height:552px;background:#FFFFFF;" version="1.1" viewBox="0 0 1406 552" width="1406px" zoomAndPan="magnify"><defs/><g><!--MD5=[d5496ae5767dc2ea3e40cdfd8230e32e]
class elki.index.vafile.VAFile--><a href="VAFile.html" target="_top" title="VAFile.html" xlink:actuate="onRequest" xlink:href="VAFile.html" xlink:show="new" xlink:title="VAFile.html" xlink:type="simple"><g id="elem_elki.index.vafile.VAFile"><rect codeLine="6" fill="#F1F1F1" height="298.3906" id="elki.index.vafile.VAFile" rx="2.5" ry="2.5" style="stroke:#181818;stroke-width:0.5;" width="831" x="198.5" y="132"/><ellipse cx="496.25" cy="150.9688" fill="#ADD1B2" rx="11" ry="11" style="stroke:#181818;stroke-width:1.0;"/><path d="M499.2188,156.6094 Q498.6406,156.9063 498,157.0469 Q497.3594,157.2031 496.6563,157.2031 Q494.1563,157.2031 492.8281,155.5625 Q491.5156,153.9063 491.5156,150.7813 Q491.5156,147.6563 492.8281,146 Q494.1563,144.3438 496.6563,144.3438 Q497.3594,144.3438 498,144.5 Q498.6563,144.6563 499.2188,144.9531 L499.2188,147.6719 Q498.5938,147.0938 498,146.8281 Q497.4063,146.5469 496.7813,146.5469 Q495.4375,146.5469 494.75,147.625 Q494.0625,148.6875 494.0625,150.7813 Q494.0625,152.875 494.75,153.9531 Q495.4375,155.0156 496.7813,155.0156 Q497.4063,155.0156 498,154.75 Q498.5938,154.4688 499.2188,153.8906 L499.2188,156.6094 Z " fill="#000000"/><text fill="#000000" font-family="sans-serif" font-size="14" lengthAdjust="spacing" textLength="41" x="532.75" y="149.9951">VAFile</text><text fill="#000000" font-family="sans-serif" font-size="10" lengthAdjust="spacing" textLength="73" x="516.75" y="162.5791">elki.index.vafile</text><rect fill="#FFFFFF" height="15.9688" style="stroke:#181818;stroke-width:1.0;stroke-dasharray:2.0,2.0;" width="152" x="880.5" y="129"/><text fill="#000000" font-family="sans-serif" font-size="12" font-style="italic" lengthAdjust="spacing" textLength="150" x="881.5" y="141.1387">V extends NumberVector</text><line style="stroke:#181818;stroke-width:0.5;" x1="199.5" x2="1028.5" y1="169.9375" y2="169.9375"/><rect fill="none" height="6" style="stroke:#C82930;stroke-width:1.0;" width="6" x="206.5" y="180.5859"/><text fill="#000000" font-family="sans-serif" font-size="14" lengthAdjust="spacing" text-decoration="underline" textLength="93" x="218.5" y="186.9326">LOG: Logging</text><rect fill="none" height="6" style="stroke:#C82930;stroke-width:1.0;" width="6" x="206.5" y="196.8828"/><text fill="#000000" font-family="sans-serif" font-size="14" lengthAdjust="spacing" textLength="290" x="218.5" y="203.2295">vectorApprox: List&lt;VectorApproximation&gt;</text><rect fill="none" height="6" style="stroke:#C82930;stroke-width:1.0;" width="6" x="206.5" y="213.1797"/><text fill="#000000" font-family="sans-serif" font-size="14" lengthAdjust="spacing" textLength="90" x="218.5" y="219.5264">partitions: int</text><rect fill="none" height="6" style="stroke:#C82930;stroke-width:1.0;" width="6" x="206.5" y="229.4766"/><text fill="#000000" font-family="sans-serif" font-size="14" lengthAdjust="spacing" textLength="158" x="218.5" y="235.8232">splitPositions: double[]</text><polygon fill="none" points="209.5,244.7734,205.5,250.7734,213.5,250.7734" style="stroke:#1963A0;stroke-width:1.0;"/><text fill="#000000" font-family="sans-serif" font-size="14" lengthAdjust="spacing" textLength="90" x="218.5" y="252.1201">pageSize: int</text><polygon fill="none" points="209.5,261.0703,205.5,267.0703,213.5,267.0703" style="stroke:#1963A0;stroke-width:1.0;"/><text fill="#000000" font-family="sans-serif" font-size="14" lengthAdjust="spacing" textLength="67" x="218.5" y="268.417">scans: int</text><line style="stroke:#181818;stroke-width:0.5;" x1="199.5" x2="1028.5" y1="275.7188" y2="275.7188"/><ellipse cx="209.5" cy="289.3672" fill="#84BE84" rx="3" ry="3" style="stroke:#038048;stroke-width:1.0;"/><text fill="#000000" font-family="sans-serif" font-size="14" lengthAdjust="spacing" textLength="354" x="218.5" y="292.7139">VAFile(int, Relation&lt;V extends NumberVector&gt;, int)</text><ellipse cx="209.5" cy="305.6641" fill="#84BE84" rx="3" ry="3" style="stroke:#038048;stroke-width:1.0;"/><text fill="#000000" font-family="sans-serif" font-size="14" lengthAdjust="spacing" textLength="101" x="218.5" y="309.0107">initialize(): void</text><ellipse cx="209.5" cy="321.9609" fill="#84BE84" rx="3" ry="3" style="stroke:#038048;stroke-width:1.0;"/><text fill="#000000" font-family="sans-serif" font-size="14" lengthAdjust="spacing" textLength="386" x="218.5" y="325.3076">setPartitions(Relation&lt;V extends NumberVector&gt;): void</text><ellipse cx="209.5" cy="338.2578" fill="#84BE84" rx="3" ry="3" style="stroke:#038048;stroke-width:1.0;"/><text fill="#000000" font-family="sans-serif" font-size="14" lengthAdjust="spacing" textLength="560" x="218.5" y="341.6045">calculateApproximation(DBIDRef, V extends NumberVector): VectorApproximation</text><ellipse cx="209.5" cy="354.5547" fill="#84BE84" rx="3" ry="3" style="stroke:#038048;stroke-width:1.0;"/><text fill="#000000" font-family="sans-serif" font-size="14" lengthAdjust="spacing" textLength="176" x="218.5" y="357.9014">getScannedPages(): long</text><ellipse cx="209.5" cy="370.8516" fill="#84BE84" rx="3" ry="3" style="stroke:#038048;stroke-width:1.0;"/><text fill="#000000" font-family="sans-serif" font-size="14" lengthAdjust="spacing" textLength="145" x="218.5" y="374.1982">getLogger(): Logging</text><ellipse cx="209.5" cy="387.1484" fill="#84BE84" rx="3" ry="3" style="stroke:#038048;stroke-width:1.0;"/><text fill="#000000" font-family="sans-serif" font-size="14" lengthAdjust="spacing" textLength="130" x="218.5" y="390.4951">logStatistics(): void</text><ellipse cx="209.5" cy="403.4453" fill="#84BE84" rx="3" ry="3" style="stroke:#038048;stroke-width:1.0;"/><text fill="#000000" font-family="sans-serif" font-size="14" lengthAdjust="spacing" textLength="746" x="218.5" y="406.792">kNNByObject(DistanceQuery&lt;V extends NumberVector&gt;, int, int): KNNSearcher&lt;V extends NumberVector&gt;</text><ellipse cx="209.5" cy="419.7422" fill="#84BE84" rx="3" ry="3" style="stroke:#038048;stroke-width:1.0;"/><text fill="#000000" font-family="sans-serif" font-size="14" lengthAdjust="spacing" textLength="805" x="218.5" y="423.0889">rangeByObject(DistanceQuery&lt;V extends NumberVector&gt;, double, int): RangeSearcher&lt;V extends NumberVector&gt;</text></g></a><!--MD5=[e2b1d2478a08bb558c7ab12e84da3807]
class elki.index.AbstractRefiningIndex--><a href="../AbstractRefiningIndex.html" target="_top" title="../AbstractRefiningIndex.html" xlink:actuate="onRequest" xlink:href="../AbstractRefiningIndex.html" xlink:show="new" xlink:title="../AbstractRefiningIndex.html" xlink:type="simple"><g id="elem_elki.index.AbstractRefiningIndex"><rect codeLine="24" fill="#F1F1F1" height="62.2344" id="elki.index.AbstractRefiningIndex" rx="2.5" ry="2.5" style="stroke:#181818;stroke-width:0.5;" width="342" x="7" y="10"/><ellipse cx="22" cy="28.9688" fill="#A9DCDF" rx="11" ry="11" style="stroke:#181818;stroke-width:1.0;"/><path d="M22.1094,24.3125 L20.9531,29.3906 L23.2813,29.3906 L22.1094,24.3125 Z M20.625,22.0781 L23.6094,22.0781 L26.9688,34.4688 L24.5156,34.4688 L23.75,31.4063 L20.4688,31.4063 L19.7188,34.4688 L17.2813,34.4688 L20.625,22.0781 Z " fill="#000000"/><text fill="#000000" font-family="sans-serif" font-size="14" font-style="italic" lengthAdjust="spacing" textLength="156" x="36" y="27.9951">AbstractRefiningIndex</text><text fill="#000000" font-family="sans-serif" font-size="10" font-style="italic" lengthAdjust="spacing" textLength="48" x="90" y="40.5791">elki.index</text><rect fill="#FFFFFF" height="15.9688" style="stroke:#181818;stroke-width:1.0;stroke-dasharray:2.0,2.0;" width="152" x="200" y="7"/><text fill="#000000" font-family="sans-serif" font-size="12" font-style="italic" lengthAdjust="spacing" textLength="150" x="201" y="19.1387">V extends NumberVector</text><line style="stroke:#181818;stroke-width:0.5;" x1="8" x2="348" y1="47.9375" y2="47.9375"/><ellipse cx="18" cy="61.5859" fill="#84BE84" rx="3" ry="3" style="stroke:#038048;stroke-width:1.0;"/><text fill="#000000" font-family="sans-serif" font-size="14" font-style="italic" lengthAdjust="spacing" textLength="148" x="27" y="64.9326">getLogger(): Logging</text></g></a><!--MD5=[99bbc9fd62e1c8a19e49de62d4f5faa0]
class elki.index.KNNIndex--><a href="../KNNIndex.html" target="_top" title="../KNNIndex.html" xlink:actuate="onRequest" xlink:href="../KNNIndex.html" xlink:show="new" xlink:title="../KNNIndex.html" xlink:type="simple"><g id="elem_elki.index.KNNIndex"><rect codeLine="27" fill="#F1F1F1" height="62.2344" id="elki.index.KNNIndex" rx="2.5" ry="2.5" style="stroke:#181818;stroke-width:0.5;" width="459" x="384.5" y="10"/><ellipse cx="497.75" cy="28.9688" fill="#B4A7E5" rx="11" ry="11" style="stroke:#181818;stroke-width:1.0;"/><path d="M493.6719,24.7344 L493.6719,22.5781 L501.0625,22.5781 L501.0625,24.7344 L498.5938,24.7344 L498.5938,32.8125 L501.0625,32.8125 L501.0625,34.9688 L493.6719,34.9688 L493.6719,32.8125 L496.1406,32.8125 L496.1406,24.7344 L493.6719,24.7344 Z " fill="#000000"/><text fill="#000000" font-family="sans-serif" font-size="14" font-style="italic" lengthAdjust="spacing" textLength="70" x="518.25" y="27.9951">KNNIndex</text><text fill="#000000" font-family="sans-serif" font-size="10" font-style="italic" lengthAdjust="spacing" textLength="48" x="529.25" y="40.5791">elki.index</text><rect fill="#FFFFFF" height="15.9688" style="stroke:#181818;stroke-width:1.0;stroke-dasharray:2.0,2.0;" width="152" x="694.5" y="7"/><text fill="#000000" font-family="sans-serif" font-size="12" font-style="italic" lengthAdjust="spacing" textLength="150" x="695.5" y="19.1387">V extends NumberVector</text><line style="stroke:#181818;stroke-width:0.5;" x1="385.5" x2="842.5" y1="47.9375" y2="47.9375"/><ellipse cx="395.5" cy="61.5859" fill="#84BE84" rx="3" ry="3" style="stroke:#038048;stroke-width:1.0;"/><text fill="#000000" font-family="sans-serif" font-size="14" font-style="italic" lengthAdjust="spacing" textLength="433" x="404.5" y="64.9326">kNNByObject(DistanceQuery&lt;O&gt;, int, int): KNNSearcher&lt;O&gt;</text></g></a><!--MD5=[4641656ba7980eea7bba45e65d2418bd]
class elki.index.RangeIndex--><a href="../RangeIndex.html" target="_top" title="../RangeIndex.html" xlink:actuate="onRequest" xlink:href="../RangeIndex.html" xlink:show="new" xlink:title="../RangeIndex.html" xlink:type="simple"><g id="elem_elki.index.RangeIndex"><rect codeLine="30" fill="#F1F1F1" height="62.2344" id="elki.index.RangeIndex" rx="2.5" ry="2.5" style="stroke:#181818;stroke-width:0.5;" width="516" x="879" y="10"/><ellipse cx="1013.25" cy="28.9688" fill="#B4A7E5" rx="11" ry="11" style="stroke:#181818;stroke-width:1.0;"/><path d="M1009.1719,24.7344 L1009.1719,22.5781 L1016.5625,22.5781 L1016.5625,24.7344 L1014.0938,24.7344 L1014.0938,32.8125 L1016.5625,32.8125 L1016.5625,34.9688 L1009.1719,34.9688 L1009.1719,32.8125 L1011.6406,32.8125 L1011.6406,24.7344 L1009.1719,24.7344 Z " fill="#000000"/><text fill="#000000" font-family="sans-serif" font-size="14" font-style="italic" lengthAdjust="spacing" textLength="85" x="1033.75" y="27.9951">RangeIndex</text><text fill="#000000" font-family="sans-serif" font-size="10" font-style="italic" lengthAdjust="spacing" textLength="48" x="1052.25" y="40.5791">elki.index</text><rect fill="#FFFFFF" height="15.9688" style="stroke:#181818;stroke-width:1.0;stroke-dasharray:2.0,2.0;" width="152" x="1246" y="7"/><text fill="#000000" font-family="sans-serif" font-size="12" font-style="italic" lengthAdjust="spacing" textLength="150" x="1247" y="19.1387">V extends NumberVector</text><line style="stroke:#181818;stroke-width:0.5;" x1="880" x2="1394" y1="47.9375" y2="47.9375"/><ellipse cx="890" cy="61.5859" fill="#84BE84" rx="3" ry="3" style="stroke:#038048;stroke-width:1.0;"/><text fill="#000000" font-family="sans-serif" font-size="14" font-style="italic" lengthAdjust="spacing" textLength="490" x="899" y="64.9326">rangeByObject(DistanceQuery&lt;O&gt;, double, int): RangeSearcher&lt;O&gt;</text></g></a><!--MD5=[5206ec8c635d4448e938ab3d1ebc1355]
class elki.index.vafile.VAFile.VAFileRangeQuery--><a href="VAFile.VAFileRangeQuery.html" target="_top" title="VAFile.VAFileRangeQuery.html" xlink:actuate="onRequest" xlink:href="VAFile.VAFileRangeQuery.html" xlink:show="new" xlink:title="VAFile.VAFileRangeQuery.html" xlink:type="simple"><g id="elem_elki.index.vafile.VAFile.VAFileRangeQuery"><rect codeLine="33" fill="#F1F1F1" height="37.9375" id="elki.index.vafile.VAFile.VAFileRangeQuery" rx="2.5" ry="2.5" style="stroke:#181818;stroke-width:0.5;" width="204" x="397" y="490"/><ellipse cx="412" cy="508.9688" fill="#ADD1B2" rx="11" ry="11" style="stroke:#181818;stroke-width:1.0;"/><path d="M414.9688,514.6094 Q414.3906,514.9063 413.75,515.0469 Q413.1094,515.2031 412.4063,515.2031 Q409.9063,515.2031 408.5781,513.5625 Q407.2656,511.9063 407.2656,508.7813 Q407.2656,505.6563 408.5781,504 Q409.9063,502.3438 412.4063,502.3438 Q413.1094,502.3438 413.75,502.5 Q414.4063,502.6563 414.9688,502.9531 L414.9688,505.6719 Q414.3438,505.0938 413.75,504.8281 Q413.1563,504.5469 412.5313,504.5469 Q411.1875,504.5469 410.5,505.625 Q409.8125,506.6875 409.8125,508.7813 Q409.8125,510.875 410.5,511.9531 Q411.1875,513.0156 412.5313,513.0156 Q413.1563,513.0156 413.75,512.75 Q414.3438,512.4688 414.9688,511.8906 L414.9688,514.6094 Z " fill="#000000"/><text fill="#000000" font-family="sans-serif" font-size="14" lengthAdjust="spacing" textLength="172" x="426" y="507.9951">VAFile.VAFileRangeQuery</text><text fill="#000000" font-family="sans-serif" font-size="10" lengthAdjust="spacing" textLength="73" x="475.5" y="520.5791">elki.index.vafile</text></g></a><!--MD5=[0cf30b0dab132c0589f3f56f786cf21d]
class elki.index.vafile.VAFile.VAFileKNNQuery--><a href="VAFile.VAFileKNNQuery.html" target="_top" title="VAFile.VAFileKNNQuery.html" xlink:actuate="onRequest" xlink:href="VAFile.VAFileKNNQuery.html" xlink:show="new" xlink:title="VAFile.VAFileKNNQuery.html" xlink:type="simple"><g id="elem_elki.index.vafile.VAFile.VAFileKNNQuery"><rect codeLine="34" fill="#F1F1F1" height="37.9375" id="elki.index.vafile.VAFile.VAFileKNNQuery" rx="2.5" ry="2.5" style="stroke:#181818;stroke-width:0.5;" width="188" x="636" y="490"/><ellipse cx="651" cy="508.9688" fill="#ADD1B2" rx="11" ry="11" style="stroke:#181818;stroke-width:1.0;"/><path d="M653.9688,514.6094 Q653.3906,514.9063 652.75,515.0469 Q652.1094,515.2031 651.4063,515.2031 Q648.9063,515.2031 647.5781,513.5625 Q646.2656,511.9063 646.2656,508.7813 Q646.2656,505.6563 647.5781,504 Q648.9063,502.3438 651.4063,502.3438 Q652.1094,502.3438 652.75,502.5 Q653.4063,502.6563 653.9688,502.9531 L653.9688,505.6719 Q653.3438,505.0938 652.75,504.8281 Q652.1563,504.5469 651.5313,504.5469 Q650.1875,504.5469 649.5,505.625 Q648.8125,506.6875 648.8125,508.7813 Q648.8125,510.875 649.5,511.9531 Q650.1875,513.0156 651.5313,513.0156 Q652.1563,513.0156 652.75,512.75 Q653.3438,512.4688 653.9688,511.8906 L653.9688,514.6094 Z " fill="#000000"/><text fill="#000000" font-family="sans-serif" font-size="14" lengthAdjust="spacing" textLength="156" x="665" y="507.9951">VAFile.VAFileKNNQuery</text><text fill="#000000" font-family="sans-serif" font-size="10" lengthAdjust="spacing" textLength="73" x="706.5" y="520.5791">elki.index.vafile</text></g></a><!--MD5=[5ddafd2ab89f908808795a42890889e4]
reverse link elki.index.AbstractRefiningIndex to elki.index.vafile.VAFile--><g id="link_elki.index.AbstractRefiningIndex_elki.index.vafile.VAFile"><path codeLine="37" d="M251.09,81.9 C277.56,96.35 309.24,113.64 342.69,131.9 " fill="none" id="elki.index.AbstractRefiningIndex-backto-elki.index.vafile.VAFile" style="stroke:#181818;stroke-width:1.0;"/><polygon fill="none" points="247.42,87.87,233.22,72.14,254.13,75.58,247.42,87.87" style="stroke:#181818;stroke-width:1.0;"/></g><!--MD5=[d54b93874cdcaee1f0f2f442bc374d08]
reverse link elki.index.KNNIndex to elki.index.vafile.VAFile--><g id="link_elki.index.KNNIndex_elki.index.vafile.VAFile"><path codeLine="38" d="M614,92.16 C614,104.25 614,117.78 614,131.9 " fill="none" id="elki.index.KNNIndex-backto-elki.index.vafile.VAFile" style="stroke:#181818;stroke-width:1.0;stroke-dasharray:7.0,7.0;"/><polygon fill="none" points="607,92.14,614,72.14,621,92.14,607,92.14" style="stroke:#181818;stroke-width:1.0;"/></g><!--MD5=[be4de24e2d4d611fde99f4c7ee278922]
reverse link elki.index.RangeIndex to elki.index.vafile.VAFile--><g id="link_elki.index.RangeIndex_elki.index.vafile.VAFile"><path codeLine="39" d="M1052.76,80.33 C1020.33,95.09 981.03,112.98 939.43,131.91 " fill="none" id="elki.index.RangeIndex-backto-elki.index.vafile.VAFile" style="stroke:#181818;stroke-width:1.0;stroke-dasharray:7.0,7.0;"/><polygon fill="none" points="1049.92,73.93,1071.03,72.02,1055.72,86.68,1049.92,73.93" style="stroke:#181818;stroke-width:1.0;"/></g><!--MD5=[729427ca7e728ff70bc57686a519f1e4]
reverse link elki.index.vafile.VAFile to elki.index.vafile.VAFile.VAFileRangeQuery--><g id="link_elki.index.vafile.VAFile_elki.index.vafile.VAFile.VAFileRangeQuery"><path codeLine="40" d="M531.77,443.6 C522.42,461.98 514.14,478.24 508.25,489.83 " fill="none" id="elki.index.vafile.VAFile-backto-elki.index.vafile.VAFile.VAFileRangeQuery" style="stroke:#181818;stroke-width:1.0;"/><ellipse cx="534.9536" cy="437.3509" fill="#FFFFFF" rx="8" ry="8" style="stroke:#181818;stroke-width:1.0;"/><line style="stroke:#181818;stroke-width:1.0;" x1="531.3272" x2="538.58" y1="444.4817" y2="430.22"/><line style="stroke:#181818;stroke-width:1.0;" x1="527.8227" x2="542.0845" y1="433.7245" y2="440.9773"/></g><!--MD5=[f2a90d1e0ab3a976ae0a9df4125ed281]
reverse link elki.index.vafile.VAFile to elki.index.vafile.VAFile.VAFileKNNQuery--><g id="link_elki.index.vafile.VAFile_elki.index.vafile.VAFile.VAFileKNNQuery"><path codeLine="41" d="M696.94,443.6 C706.38,461.98 714.73,478.24 720.67,489.83 " fill="none" id="elki.index.vafile.VAFile-backto-elki.index.vafile.VAFile.VAFileKNNQuery" style="stroke:#181818;stroke-width:1.0;"/><ellipse cx="693.7367" cy="437.3354" fill="#FFFFFF" rx="8" ry="8" style="stroke:#181818;stroke-width:1.0;"/><line style="stroke:#181818;stroke-width:1.0;" x1="697.3934" x2="690.08" y1="444.4507" y2="430.22"/><line style="stroke:#181818;stroke-width:1.0;" x1="686.6214" x2="700.8521" y1="440.9921" y2="433.6786"/></g><rect fill="none" height="11.6406" style="stroke:none;stroke-width:1.0;" width="186" x="603" y="532.9375"/><text fill="#888888" font-family="sans-serif" font-size="10" lengthAdjust="spacing" textLength="186" x="603" y="542.2197">UMLDoclet 2.0.19, PlantUML 1.2022.8</text><!--MD5=[0af7d969ad51405064037e8ae1381075]
@startuml
    remove .*\.(Instance|Par|Parameterizer|Factory)$
    set namespaceSeparator none
    hide empty fields
    hide empty methods

    class "<size:14>VAFile\n<size:10>elki.index.vafile" as elki.index.vafile.VAFile<V extends NumberVector> [[VAFile.html]] {
        {static} -LOG: Logging
        -vectorApprox: List<VectorApproximation>
        -partitions: int
        -splitPositions: double[]
        ~pageSize: int
        ~scans: int
        +VAFile(int, Relation<V extends NumberVector>, int)
        +initialize(): void
        +setPartitions(Relation<V extends NumberVector>): void
        +calculateApproximation(DBIDRef, V extends NumberVector): VectorApproximation
        +getScannedPages(): long
        +getLogger(): Logging
        +logStatistics(): void
        +kNNByObject(DistanceQuery<V extends NumberVector>, int, int): KNNSearcher<V extends NumberVector>
        +rangeByObject(DistanceQuery<V extends NumberVector>, double, int): RangeSearcher<V extends NumberVector>
    }

    abstract class "<size:14>AbstractRefiningIndex\n<size:10>elki.index" as elki.index.AbstractRefiningIndex<V extends NumberVector> [[../AbstractRefiningIndex.html]] {
        {abstract} +getLogger(): Logging
    }
    interface "<size:14>KNNIndex\n<size:10>elki.index" as elki.index.KNNIndex<V extends NumberVector> [[../KNNIndex.html]] {
        {abstract} +kNNByObject(DistanceQuery<O>, int, int): KNNSearcher<O>
    }
    interface "<size:14>RangeIndex\n<size:10>elki.index" as elki.index.RangeIndex<V extends NumberVector> [[../RangeIndex.html]] {
        {abstract} +rangeByObject(DistanceQuery<O>, double, int): RangeSearcher<O>
    }
    class "<size:14>VAFile.VAFileRangeQuery\n<size:10>elki.index.vafile" as elki.index.vafile.VAFile.VAFileRangeQuery [[VAFile.VAFileRangeQuery.html]]
    class "<size:14>VAFile.VAFileKNNQuery\n<size:10>elki.index.vafile" as elki.index.vafile.VAFile.VAFileKNNQuery [[VAFile.VAFileKNNQuery.html]]
    class "<size:14>VAFile.Factory\n<size:10>elki.index.vafile" as elki.index.vafile.VAFile.Factory<V extends NumberVector> [[VAFile.Factory.html]]

    elki.index.AbstractRefiningIndex <|- - elki.index.vafile.VAFile
    elki.index.KNNIndex <|.. elki.index.vafile.VAFile
    elki.index.RangeIndex <|.. elki.index.vafile.VAFile
    elki.index.vafile.VAFile +- - elki.index.vafile.VAFile.VAFileRangeQuery
    elki.index.vafile.VAFile +- - elki.index.vafile.VAFile.VAFileKNNQuery
    elki.index.vafile.VAFile +- - elki.index.vafile.VAFile.Factory

    center footer UMLDoclet 2.0.19, PlantUML 1.2022.8
@enduml

PlantUML version 1.2022.8(Sun Sep 25 11:00:33 CEST 2022)
(APACHE source distribution)
Java Runtime: OpenJDK Runtime Environment
JVM: OpenJDK 64-Bit Server VM
Default Encoding: UTF-8
Language: de
Country: DE
--></g></svg>