<?xml version="1.0" encoding="UTF-8" standalone="no"?><svg xmlns="http://www.w3.org/2000/svg" xmlns:xlink="http://www.w3.org/1999/xlink" contentStyleType="text/css" height="161px" preserveAspectRatio="none" style="width:460px;height:161px;background:#FFFFFF;" version="1.1" viewBox="0 0 460 161" width="460px" zoomAndPan="magnify"><defs/><g><!--MD5=[3724e008ef0bea1282a317fa805d9dbd]
class elki.math.statistics.ProbabilityWeightedMoments--><a href="ProbabilityWeightedMoments.html" target="_top" title="ProbabilityWeightedMoments.html" xlink:actuate="onRequest" xlink:href="ProbabilityWeightedMoments.html" xlink:show="new" xlink:title="ProbabilityWeightedMoments.html" xlink:type="simple"><g id="elem_elki.math.statistics.ProbabilityWeightedMoments"><rect codeLine="6" fill="#F1F1F1" height="127.4219" id="elki.math.statistics.ProbabilityWeightedMoments" rx="2.5" ry="2.5" style="stroke:#181818;stroke-width:0.5;" width="439" x="7" y="7"/><ellipse cx="121.75" cy="25.9688" fill="#ADD1B2" rx="11" ry="11" style="stroke:#181818;stroke-width:1.0;"/><path d="M124.7188,31.6094 Q124.1406,31.9063 123.5,32.0469 Q122.8594,32.2031 122.1563,32.2031 Q119.6563,32.2031 118.3281,30.5625 Q117.0156,28.9063 117.0156,25.7813 Q117.0156,22.6563 118.3281,21 Q119.6563,19.3438 122.1563,19.3438 Q122.8594,19.3438 123.5,19.5 Q124.1563,19.6563 124.7188,19.9531 L124.7188,22.6719 Q124.0938,22.0938 123.5,21.8281 Q122.9063,21.5469 122.2813,21.5469 Q120.9375,21.5469 120.25,22.625 Q119.5625,23.6875 119.5625,25.7813 Q119.5625,27.875 120.25,28.9531 Q120.9375,30.0156 122.2813,30.0156 Q122.9063,30.0156 123.5,29.75 Q124.0938,29.4688 124.7188,28.8906 L124.7188,31.6094 Z " fill="#000000"/><text fill="#000000" font-family="sans-serif" font-size="14" lengthAdjust="spacing" textLength="201" x="142.25" y="24.9951">ProbabilityWeightedMoments</text><text fill="#000000" font-family="sans-serif" font-size="10" lengthAdjust="spacing" textLength="89" x="198.25" y="37.5791">elki.math.statistics</text><line style="stroke:#181818;stroke-width:0.5;" x1="8" x2="445" y1="44.9375" y2="44.9375"/><ellipse cx="18" cy="58.5859" fill="#84BE84" rx="3" ry="3" style="stroke:#038048;stroke-width:1.0;"/><text fill="#000000" font-family="sans-serif" font-size="14" lengthAdjust="spacing" text-decoration="underline" textLength="381" x="27" y="61.9326">alphaPWM(A, NumberArrayAdapter&lt;?, A&gt;, int): double[]</text><ellipse cx="18" cy="74.8828" fill="#84BE84" rx="3" ry="3" style="stroke:#038048;stroke-width:1.0;"/><text fill="#000000" font-family="sans-serif" font-size="14" lengthAdjust="spacing" text-decoration="underline" textLength="375" x="27" y="78.2295">betaPWM(A, NumberArrayAdapter&lt;?, A&gt;, int): double[]</text><ellipse cx="18" cy="91.1797" fill="#84BE84" rx="3" ry="3" style="stroke:#038048;stroke-width:1.0;"/><text fill="#000000" font-family="sans-serif" font-size="14" lengthAdjust="spacing" text-decoration="underline" textLength="413" x="27" y="94.5264">alphaBetaPWM(A, NumberArrayAdapter&lt;?, A&gt;, int): double[]</text><ellipse cx="18" cy="107.4766" fill="#84BE84" rx="3" ry="3" style="stroke:#038048;stroke-width:1.0;"/><text fill="#000000" font-family="sans-serif" font-size="14" lengthAdjust="spacing" text-decoration="underline" textLength="368" x="27" y="110.8232">samLMR(A, NumberArrayAdapter&lt;?, A&gt;, int): double[]</text><rect fill="#F24D5C" height="6" style="stroke:#C82930;stroke-width:1.0;" width="6" x="15" y="120.7734"/><text fill="#000000" font-family="sans-serif" font-size="14" lengthAdjust="spacing" text-decoration="underline" textLength="226" x="27" y="127.1201">normalizeLMR(double[], int): void</text></g></a><rect fill="none" height="11.6406" style="stroke:none;stroke-width:1.0;" width="186" x="133" y="141.4219"/><text fill="#888888" font-family="sans-serif" font-size="10" lengthAdjust="spacing" textLength="186" x="133" y="150.7041">UMLDoclet 2.0.19, PlantUML 1.2022.8</text><!--MD5=[19ac751f0b0c99030c01277555b19ba7]
@startuml
    remove .*\.(Instance|Par|Parameterizer|Factory)$
    set namespaceSeparator none
    hide empty fields
    hide empty methods

    class "<size:14>ProbabilityWeightedMoments\n<size:10>elki.math.statistics" as elki.math.statistics.ProbabilityWeightedMoments [[ProbabilityWeightedMoments.html]] {
        {static} +alphaPWM(A, NumberArrayAdapter<?, A>, int): double[]
        {static} +betaPWM(A, NumberArrayAdapter<?, A>, int): double[]
        {static} +alphaBetaPWM(A, NumberArrayAdapter<?, A>, int): double[]
        {static} +samLMR(A, NumberArrayAdapter<?, A>, int): double[]
        {static} -normalizeLMR(double[], int): void
    }

    center footer UMLDoclet 2.0.19, PlantUML 1.2022.8
@enduml

PlantUML version 1.2022.8(Sun Sep 25 11:00:33 CEST 2022)
(APACHE source distribution)
Java Runtime: OpenJDK Runtime Environment
JVM: OpenJDK 64-Bit Server VM
Default Encoding: UTF-8
Language: de
Country: DE
--></g></svg>