<?xml version="1.0" encoding="UTF-8" standalone="no"?>
<!DOCTYPE svg PUBLIC "-//W3C//DTD SVG 1.1//EN"
 "http://www.w3.org/Graphics/SVG/1.1/DTD/svg11.dtd">
<!-- Generated by graphviz version 2.40.1 (20161225.0304)
 -->
<!-- Title: G Pages: 1 -->
<svg width="192pt" height="36pt"
 viewBox="0.00 0.00 192.00 36.00" xmlns="http://www.w3.org/2000/svg" xmlns:xlink="http://www.w3.org/1999/xlink">
<g id="graph0" class="graph" transform="scale(1 1) rotate(0) translate(4 32)">
<title>G</title>
<polygon fill="#ffffff" stroke="transparent" points="-4,4 -4,-32 188,-32 188,4 -4,4"/>
<!-- c6992800 -->
<g id="node1" class="node">
<title>c6992800</title>
<g id="a_node1"><a xlink:href="StaticScalingFunction.html" xlink:title="&lt;TABLE&gt;">
<g id="a_node1_0"><a xlink:href="StaticScalingFunction.html" xlink:title="de.lmu.ifi.dbs.elki.utilities.scaling.StaticScalingFunction" target="_parent">
<polygon fill="none" stroke="#000000" points="0,0 0,-28 90,-28 90,0 0,0"/>
<text text-anchor="start" x="23.5" y="-17.6" font-family="Roboto" font-size="8.00" fill="#000000"> «interface» </text>
<text text-anchor="start" x="4" y="-7.6" font-family="Roboto" font-size="8.00" fill="#000000"> </text>
<text text-anchor="start" x="7" y="-7.6" font-family="Roboto" font-size="8.00" fill="#000000">StaticScalingFunction</text>
<text text-anchor="start" x="83" y="-7.6" font-family="Roboto" font-size="8.00" fill="#000000"> </text>
</a>
</g>
</a>
</g>
</g>
<!-- c6992801 -->
<g id="node2" class="node">
<title>c6992801</title>
<g id="a_node2"><a xlink:href="MinusLogScaling.html" xlink:title="&lt;TABLE&gt;">
<g id="a_node2_1"><a xlink:href="MinusLogScaling.html" xlink:title="de.lmu.ifi.dbs.elki.utilities.scaling.MinusLogScaling" target="_parent">
<polygon fill="#fffacd" stroke="transparent" points="108,-5.5 108,-22.5 184,-22.5 184,-5.5 108,-5.5"/>
<polygon fill="none" stroke="#000000" points="108,-5 108,-22 184,-22 184,-5 108,-5"/>
<text text-anchor="start" x="112" y="-12.6" font-family="Roboto" font-size="8.00" fill="#000000"> </text>
<text text-anchor="start" x="115" y="-12.6" font-family="Roboto" font-size="8.00" fill="#000000">MinusLogScaling</text>
<text text-anchor="start" x="177" y="-12.6" font-family="Roboto" font-size="8.00" fill="#000000"> </text>
</a>
</g>
</a>
</g>
</g>
<!-- c6992800&#45;&gt;c6992801 -->
<g id="edge1" class="edge">
<title>c6992800&#45;&gt;c6992801</title>
<path fill="none" stroke="#000000" stroke-dasharray="5,2" d="M100.4202,-14C102.9037,-14 105.3711,-14 107.7982,-14"/>
<polygon fill="none" stroke="#000000" points="100.1826,-10.5001 90.1826,-14 100.1826,-17.5001 100.1826,-10.5001"/>
</g>
</g>
</svg>
