<?xml version="1.0" encoding="UTF-8" standalone="no"?>
<!DOCTYPE svg PUBLIC "-//W3C//DTD SVG 1.1//EN"
 "http://www.w3.org/Graphics/SVG/1.1/DTD/svg11.dtd">
<!-- Generated by graphviz version 2.40.1 (20161225.0304)
 -->
<!-- Title: G Pages: 1 -->
<svg width="407pt" height="36pt"
 viewBox="0.00 0.00 407.00 36.00" xmlns="http://www.w3.org/2000/svg" xmlns:xlink="http://www.w3.org/1999/xlink">
<g id="graph0" class="graph" transform="scale(1 1) rotate(0) translate(4 32)">
<title>G</title>
<polygon fill="#ffffff" stroke="transparent" points="-4,4 -4,-32 403,-32 403,4 -4,4"/>
<!-- c6249378 -->
<g id="node1" class="node">
<title>c6249378</title>
<g id="a_node1"><a xlink:href="InsertionStrategy.html" xlink:title="&lt;TABLE&gt;">
<g id="a_node1_0"><a xlink:href="InsertionStrategy.html" xlink:title="de.lmu.ifi.dbs.elki.index.tree.spatial.rstarvariants.strategies.insert.InsertionStrategy" target="_parent">
<polygon fill="none" stroke="#000000" points=".5,0 .5,-28 73.5,-28 73.5,0 .5,0"/>
<text text-anchor="start" x="15.5" y="-17.6" font-family="Roboto" font-size="8.00" fill="#000000"> «interface» </text>
<text text-anchor="start" x="4.5" y="-7.6" font-family="Roboto" font-size="8.00" fill="#000000"> </text>
<text text-anchor="start" x="7.5" y="-7.6" font-family="Roboto" font-size="8.00" fill="#000000">InsertionStrategy</text>
<text text-anchor="start" x="66.5" y="-7.6" font-family="Roboto" font-size="8.00" fill="#000000"> </text>
</a>
</g>
</a>
</g>
</g>
<!-- c6249383 -->
<g id="node3" class="node">
<title>c6249383</title>
<g id="a_node3"><a xlink:href="LeastOverlapInsertionStrategy.html" xlink:title="&lt;TABLE&gt;">
<g id="a_node3_1"><a xlink:href="LeastOverlapInsertionStrategy.html" xlink:title="de.lmu.ifi.dbs.elki.index.tree.spatial.rstarvariants.strategies.insert.LeastOverlapInsertionStrategy" target="_parent">
<polygon fill="#fffacd" stroke="transparent" points="91,-5.5 91,-22.5 211,-22.5 211,-5.5 91,-5.5"/>
<polygon fill="none" stroke="#000000" points="91,-5 91,-22 211,-22 211,-5 91,-5"/>
<text text-anchor="start" x="95" y="-12.6" font-family="Roboto" font-size="8.00" fill="#000000"> </text>
<text text-anchor="start" x="98" y="-12.6" font-family="Roboto" font-size="8.00" fill="#000000">LeastOverlapInsertionStrategy</text>
<text text-anchor="start" x="204" y="-12.6" font-family="Roboto" font-size="8.00" fill="#000000"> </text>
</a>
</g>
</a>
</g>
</g>
<!-- c6249378&#45;&gt;c6249383 -->
<g id="edge2" class="edge">
<title>c6249378&#45;&gt;c6249383</title>
<path fill="none" stroke="#000000" stroke-dasharray="5,2" d="M83.064,-14C85.552,-14 88.068,-14 90.5922,-14"/>
<polygon fill="none" stroke="#000000" points="83.0434,-10.5001 73.0433,-14 83.0433,-17.5001 83.0434,-10.5001"/>
</g>
<!-- c6249381 -->
<g id="node2" class="node">
<title>c6249381</title>
<g id="a_node2"><a xlink:href="ApproximativeLeastOverlapInsertionStrategy.html" xlink:title="&lt;TABLE&gt;">
<g id="a_node2_2"><a xlink:href="ApproximativeLeastOverlapInsertionStrategy.html" xlink:title="de.lmu.ifi.dbs.elki.index.tree.spatial.rstarvariants.strategies.insert.ApproximativeLeastOverlapInsertionStrategy" target="_parent">
<polygon fill="none" stroke="#000000" points="229,-5 229,-22 399,-22 399,-5 229,-5"/>
<text text-anchor="start" x="233" y="-12.6" font-family="Roboto" font-size="8.00" fill="#000000"> </text>
<text text-anchor="start" x="236" y="-12.6" font-family="Roboto" font-size="8.00" fill="#000000">ApproximativeLeastOverlapInsertionStrategy</text>
<text text-anchor="start" x="392" y="-12.6" font-family="Roboto" font-size="8.00" fill="#000000"> </text>
</a>
</g>
</a>
</g>
</g>
<!-- c6249383&#45;&gt;c6249381 -->
<g id="edge1" class="edge">
<title>c6249383&#45;&gt;c6249381</title>
<path fill="none" stroke="#000000" d="M221.4287,-14C223.9345,-14 226.4546,-14 228.9791,-14"/>
<polygon fill="none" stroke="#000000" points="221.2321,-10.5001 211.2321,-14 221.232,-17.5001 221.2321,-10.5001"/>
</g>
</g>
</svg>
