<?xml version="1.0" encoding="UTF-8" standalone="no"?>
<!DOCTYPE svg PUBLIC "-//W3C//DTD SVG 1.1//EN"
 "http://www.w3.org/Graphics/SVG/1.1/DTD/svg11.dtd">
<!-- Generated by graphviz version 2.40.1 (20161225.0304)
 -->
<!-- Title: G Pages: 1 -->
<svg width="325pt" height="92pt"
 viewBox="0.00 0.00 325.00 92.00" xmlns="http://www.w3.org/2000/svg" xmlns:xlink="http://www.w3.org/1999/xlink">
<g id="graph0" class="graph" transform="scale(1 1) rotate(0) translate(4 88)">
<title>G</title>
<polygon fill="#ffffff" stroke="transparent" points="-4,4 -4,-88 321,-88 321,4 -4,4"/>
<!-- c9349357 -->
<g id="node1" class="node">
<title>c9349357</title>
<g id="a_node1"><a xlink:href="../AbstractAlgorithm.html" xlink:title="&lt;TABLE&gt;">
<g id="a_node1_0"><a xlink:href="../AbstractAlgorithm.html" xlink:title="de.lmu.ifi.dbs.elki.algorithm.AbstractAlgorithm" target="_parent">
<polygon fill="#fffacd" stroke="transparent" points="0,0 0,-84 105,-84 105,0 0,0"/>
<polygon fill="none" stroke="#000000" points=".5,-56 .5,-84 105.5,-84 105.5,-56 .5,-56"/>
<text text-anchor="start" x="17.5" y="-74.6" font-family="Roboto" font-size="8.00" fill="#000000"> </text>
<text text-anchor="start" x="20.5" y="-74.6" font-family="Roboto" font-style="italic" font-size="8.00" fill="#000000">AbstractAlgorithm</text>
<text text-anchor="start" x="85.5" y="-74.6" font-family="Roboto" font-size="8.00" fill="#000000"> </text>
<text text-anchor="start" x="4.5" y="-63.6" font-family="Roboto" font-size="8.00" fill="#000000"> </text>
<text text-anchor="start" x="7.5" y="-63.6" font-family="Roboto" font-size="7.00" fill="#000000">de.lmu.ifi.dbs.elki.algorithm</text>
<text text-anchor="start" x="98.5" y="-63.6" font-family="Roboto" font-size="8.00" fill="#000000"> </text>
<polygon fill="none" stroke="#000000" points=".5,-39 .5,-56 105.5,-56 105.5,-39 .5,-39"/>
<text text-anchor="start" x="4.5" y="-45.6" font-family="Roboto" font-size="8.00" fill="#000000"> &#160;</text>
<polygon fill="none" stroke="#000000" points=".5,0 .5,-39 105.5,-39 105.5,0 .5,0"/>
<text text-anchor="start" x="4.5" y="-28.6" font-family="Roboto" font-size="8.00" fill="#000000"> &#160;run() </text>
<text text-anchor="start" x="4.5" y="-18.6" font-family="Roboto" font-size="8.00" fill="#000000"> </text>
<text text-anchor="start" x="7.5" y="-18.6" font-family="Roboto" font-style="italic" font-size="8.00" fill="#000000"> getInputTypeRestriction()</text>
<text text-anchor="start" x="98.5" y="-18.6" font-family="Roboto" font-size="8.00" fill="#000000"> </text>
<text text-anchor="start" x="4.5" y="-7.6" font-family="Roboto" font-size="8.00" fill="#000000"> </text>
<text text-anchor="start" x="7.5" y="-7.6" font-family="Roboto" font-style="italic" font-size="8.00" fill="#000000"> getLogger()</text>
<text text-anchor="start" x="51.5" y="-7.6" font-family="Roboto" font-size="8.00" fill="#000000"> </text>
</a>
</g>
</a>
</g>
</g>
<!-- c9351300 -->
<g id="node3" class="node">
<title>c9351300</title>
<g id="a_node3"><a xlink:href="SigniTrendChangeDetection.html" xlink:title="&lt;TABLE&gt;">
<g id="a_node3_1"><a xlink:href="SigniTrendChangeDetection.html" xlink:title="de.lmu.ifi.dbs.elki.algorithm.timeseries.SigniTrendChangeDetection" target="_parent">
<polygon fill="#fffacd" stroke="transparent" points="123,-33.5 123,-50.5 236,-50.5 236,-33.5 123,-33.5"/>
<polygon fill="none" stroke="#000000" points="123.5,-33 123.5,-50 236.5,-50 236.5,-33 123.5,-33"/>
<text text-anchor="start" x="127.5" y="-40.6" font-family="Roboto" font-size="8.00" fill="#000000"> </text>
<text text-anchor="start" x="130.5" y="-40.6" font-family="Roboto" font-size="8.00" fill="#000000">SigniTrendChangeDetection</text>
<text text-anchor="start" x="229.5" y="-40.6" font-family="Roboto" font-size="8.00" fill="#000000"> </text>
</a>
</g>
</a>
</g>
</g>
<!-- c9349357&#45;&gt;c9351300 -->
<g id="edge1" class="edge">
<title>c9349357&#45;&gt;c9351300</title>
<path fill="none" stroke="#000000" d="M115.2677,-42C117.7141,-42 120.1618,-42 122.5966,-42"/>
<polygon fill="none" stroke="#000000" points="115.2562,-38.5001 105.2561,-42 115.2561,-45.5001 115.2562,-38.5001"/>
</g>
<!-- c9351299 -->
<g id="node2" class="node">
<title>c9351299</title>
<g id="a_node2"><a xlink:href="ChangePoints.html" xlink:title="&lt;TABLE&gt;">
<g id="a_node2_2"><a xlink:href="ChangePoints.html" xlink:title="de.lmu.ifi.dbs.elki.algorithm.timeseries.ChangePoints" target="_parent">
<polygon fill="none" stroke="#000000" points="254.5,-33 254.5,-50 317.5,-50 317.5,-33 254.5,-33"/>
<text text-anchor="start" x="258.5" y="-40.6" font-family="Roboto" font-size="8.00" fill="#000000"> </text>
<text text-anchor="start" x="261.5" y="-40.6" font-family="Roboto" font-size="8.00" fill="#000000">ChangePoints</text>
<text text-anchor="start" x="310.5" y="-40.6" font-family="Roboto" font-size="8.00" fill="#000000"> </text>
</a>
</g>
</a>
</g>
</g>
<!-- c9351300&#45;&gt;c9351299 -->
<g id="edge2" class="edge">
<title>c9351300&#45;&gt;c9351299</title>
<path fill="none" stroke="#000000" d="M236.2238,-42C242.2291,-42 248.1702,-42 253.7369,-42"/>
</g>
</g>
</svg>
