<?xml version="1.0" encoding="UTF-8" standalone="no"?>
<!DOCTYPE svg PUBLIC "-//W3C//DTD SVG 1.1//EN"
 "http://www.w3.org/Graphics/SVG/1.1/DTD/svg11.dtd">
<!-- Generated by graphviz version 2.40.1 (20161225.0304)
 -->
<!-- Title: G Pages: 1 -->
<svg width="306pt" height="58pt"
 viewBox="0.00 0.00 306.00 58.00" xmlns="http://www.w3.org/2000/svg" xmlns:xlink="http://www.w3.org/1999/xlink">
<g id="graph0" class="graph" transform="scale(1 1) rotate(0) translate(4 54)">
<title>G</title>
<polygon fill="#ffffff" stroke="transparent" points="-4,4 -4,-54 302,-54 302,4 -4,4"/>
<!-- c9214308 -->
<g id="node1" class="node">
<title>c9214308</title>
<g id="a_node1"><a xlink:href="SelectionToolCubeVisualization.html" xlink:title="&lt;TABLE&gt;">
<g id="a_node1_0"><a xlink:href="SelectionToolCubeVisualization.html" xlink:title="de.lmu.ifi.dbs.elki.visualization.visualizers.scatterplot.selection.SelectionToolCubeVisualization" target="_parent">
<polygon fill="#fffacd" stroke="transparent" points="174,-11 174,-39 298,-39 298,-11 174,-11"/>
<polygon fill="none" stroke="#000000" points="174,-11 174,-39 298,-39 298,-11 174,-11"/>
<text text-anchor="start" x="217.5" y="-28.6" font-family="Roboto" font-size="8.00" fill="#000000"> «factory» </text>
<text text-anchor="start" x="178" y="-18.6" font-family="Roboto" font-size="8.00" fill="#000000"> </text>
<text text-anchor="start" x="181" y="-18.6" font-family="Roboto" font-size="8.00" fill="#000000">SelectionToolCubeVisualization</text>
<text text-anchor="start" x="291" y="-18.6" font-family="Roboto" font-size="8.00" fill="#000000"> </text>
</a>
</g>
</a>
</g>
</g>
<!-- c9214333 -->
<g id="node2" class="node">
<title>c9214333</title>
<g id="a_node2"><a xlink:href="../../VisFactory.html" xlink:title="&lt;TABLE&gt;">
<g id="a_node2_1"><a xlink:href="../../VisFactory.html" xlink:title="de.lmu.ifi.dbs.elki.visualization.visualizers.VisFactory" target="_parent">
<polygon fill="#fffacd" stroke="transparent" points="0,0 0,-50 156,-50 156,0 0,0"/>
<polygon fill="none" stroke="#000000" points="0,0 0,-50 156,-50 156,0 0,0"/>
<text text-anchor="start" x="56.5" y="-39.6" font-family="Roboto" font-size="8.00" fill="#000000"> «interface» </text>
<text text-anchor="start" x="59.5" y="-28.6" font-family="Roboto" font-size="8.00" fill="#000000"> «factory» </text>
<text text-anchor="start" x="56.5" y="-18.6" font-family="Roboto" font-size="8.00" fill="#000000"> </text>
<text text-anchor="start" x="59.5" y="-18.6" font-family="Roboto" font-size="8.00" fill="#000000">VisFactory</text>
<text text-anchor="start" x="96.5" y="-18.6" font-family="Roboto" font-size="8.00" fill="#000000"> </text>
<text text-anchor="start" x="4" y="-7.6" font-family="Roboto" font-size="8.00" fill="#000000"> </text>
<text text-anchor="start" x="7" y="-7.6" font-family="Roboto" font-size="7.00" fill="#000000">de.lmu.ifi.dbs.elki.visualization.visualizers</text>
<text text-anchor="start" x="149" y="-7.6" font-family="Roboto" font-size="8.00" fill="#000000"> </text>
</a>
</g>
</a>
</g>
</g>
<!-- c9214333&#45;&gt;c9214308 -->
<g id="edge1" class="edge">
<title>c9214333&#45;&gt;c9214308</title>
<path fill="none" stroke="#000000" stroke-dasharray="5,2" d="M166.3036,-25C168.781,-25 171.2461,-25 173.6889,-25"/>
<polygon fill="none" stroke="#000000" points="166.0743,-21.5001 156.0742,-25 166.0742,-28.5001 166.0743,-21.5001"/>
</g>
</g>
</svg>
