<?xml version="1.0" encoding="UTF-8" standalone="no"?>
<!DOCTYPE svg PUBLIC "-//W3C//DTD SVG 1.1//EN"
 "http://www.w3.org/Graphics/SVG/1.1/DTD/svg11.dtd">
<!-- Generated by graphviz version 2.40.1 (20161225.0304)
 -->
<!-- Title: G Pages: 1 -->
<svg width="338pt" height="36pt"
 viewBox="0.00 0.00 338.00 36.00" xmlns="http://www.w3.org/2000/svg" xmlns:xlink="http://www.w3.org/1999/xlink">
<g id="graph0" class="graph" transform="scale(1 1) rotate(0) translate(4 32)">
<title>G</title>
<polygon fill="#ffffff" stroke="transparent" points="-4,4 -4,-32 334,-32 334,4 -4,4"/>
<!-- c551951 -->
<g id="node1" class="node">
<title>c551951</title>
<g id="a_node1"><a xlink:href="StackedIter.html" xlink:title="&lt;TABLE&gt;">
<g id="a_node1_0"><a xlink:href="StackedIter.html" xlink:title="de.lmu.ifi.dbs.elki.utilities.datastructures.hierarchy.StackedIter" target="_parent">
<polygon fill="none" stroke="#000000" points="0,-5 0,-22 54,-22 54,-5 0,-5"/>
<text text-anchor="start" x="4" y="-12.6" font-family="Roboto" font-size="8.00" fill="#000000"> </text>
<text text-anchor="start" x="7" y="-12.6" font-family="Roboto" font-size="8.00" fill="#000000">StackedIter</text>
<text text-anchor="start" x="47" y="-12.6" font-family="Roboto" font-size="8.00" fill="#000000"> </text>
</a>
</g>
</a>
</g>
</g>
<!-- c551952 -->
<g id="node2" class="node">
<title>c551952</title>
<g id="a_node2"><a xlink:href="Hierarchy.html" xlink:title="&lt;TABLE&gt;">
<g id="a_node2_1"><a xlink:href="Hierarchy.html" xlink:title="de.lmu.ifi.dbs.elki.utilities.datastructures.hierarchy.Hierarchy" target="_parent">
<polygon fill="none" stroke="#000000" points="72.5,0 72.5,-28 123.5,-28 123.5,0 72.5,0"/>
<text text-anchor="start" x="76.5" y="-17.6" font-family="Roboto" font-size="8.00" fill="#000000"> «interface» </text>
<text text-anchor="start" x="77.5" y="-7.6" font-family="Roboto" font-size="8.00" fill="#000000"> </text>
<text text-anchor="start" x="80.5" y="-7.6" font-family="Roboto" font-size="8.00" fill="#000000">Hierarchy</text>
<text text-anchor="start" x="115.5" y="-7.6" font-family="Roboto" font-size="8.00" fill="#000000"> </text>
</a>
</g>
</a>
</g>
</g>
<!-- c551951&#45;&gt;c551952 -->
<g id="edge1" class="edge">
<title>c551951&#45;&gt;c551952</title>
<path fill="none" stroke="#000000" d="M66.131,-14C67.9619,-14 69.7787,-14 71.5612,-14"/>
<polygon fill="#000000" stroke="#000000" points="66.0555,-14.0001 60.0555,-18 54.0555,-14 60.0555,-10 66.0555,-14.0001"/>
</g>
<!-- c551962 -->
<g id="node4" class="node">
<title>c551962</title>
<g id="a_node4"><a xlink:href="ModifiableHierarchy.html" xlink:title="&lt;TABLE&gt;">
<g id="a_node4_2"><a xlink:href="ModifiableHierarchy.html" xlink:title="de.lmu.ifi.dbs.elki.utilities.datastructures.hierarchy.ModifiableHierarchy" target="_parent">
<polygon fill="none" stroke="#000000" points="141.5,0 141.5,-28 228.5,-28 228.5,0 141.5,0"/>
<text text-anchor="start" x="163.5" y="-17.6" font-family="Roboto" font-size="8.00" fill="#000000"> «interface» </text>
<text text-anchor="start" x="145.5" y="-7.6" font-family="Roboto" font-size="8.00" fill="#000000"> </text>
<text text-anchor="start" x="148.5" y="-7.6" font-family="Roboto" font-size="8.00" fill="#000000">ModifiableHierarchy</text>
<text text-anchor="start" x="221.5" y="-7.6" font-family="Roboto" font-size="8.00" fill="#000000"> </text>
</a>
</g>
</a>
</g>
</g>
<!-- c551952&#45;&gt;c551962 -->
<g id="edge3" class="edge">
<title>c551952&#45;&gt;c551962</title>
<path fill="none" stroke="#000000" stroke-dasharray="5,2" d="M133.2579,-14C135.7931,-14 138.3646,-14 140.9363,-14"/>
<polygon fill="none" stroke="#000000" points="133.1324,-10.5001 123.1323,-14 133.1323,-17.5001 133.1324,-10.5001"/>
</g>
<!-- c551953 -->
<g id="node3" class="node">
<title>c551953</title>
<g id="a_node3"><a xlink:href="HashMapHierarchy.html" xlink:title="&lt;TABLE&gt;">
<g id="a_node3_3"><a xlink:href="HashMapHierarchy.html" xlink:title="de.lmu.ifi.dbs.elki.utilities.datastructures.hierarchy.HashMapHierarchy" target="_parent">
<polygon fill="none" stroke="#000000" points="246,-5 246,-22 330,-22 330,-5 246,-5"/>
<text text-anchor="start" x="250" y="-12.6" font-family="Roboto" font-size="8.00" fill="#000000"> </text>
<text text-anchor="start" x="253" y="-12.6" font-family="Roboto" font-size="8.00" fill="#000000">HashMapHierarchy</text>
<text text-anchor="start" x="323" y="-12.6" font-family="Roboto" font-size="8.00" fill="#000000"> </text>
</a>
</g>
</a>
</g>
</g>
<!-- c551962&#45;&gt;c551953 -->
<g id="edge2" class="edge">
<title>c551962&#45;&gt;c551953</title>
<path fill="none" stroke="#000000" stroke-dasharray="5,2" d="M238.3333,-14C240.8298,-14 243.3199,-14 245.7801,-14"/>
<polygon fill="none" stroke="#000000" points="238.0934,-10.5001 228.0933,-14 238.0933,-17.5001 238.0934,-10.5001"/>
</g>
</g>
</svg>
