<?xml version="1.0" encoding="UTF-8" standalone="no"?><svg xmlns="http://www.w3.org/2000/svg" xmlns:xlink="http://www.w3.org/1999/xlink" contentStyleType="text/css" height="585px" preserveAspectRatio="none" style="width:860px;height:585px;background:#FFFFFF;" version="1.1" viewBox="0 0 860 585" width="860px" zoomAndPan="magnify"><defs/><g><!--MD5=[9dab8ac0a430be4dc8c14dec351bbc70]
class elki.index.preprocessed.knn.NaiveProjectedKNNPreprocessor--><a href="NaiveProjectedKNNPreprocessor.html" target="_top" title="NaiveProjectedKNNPreprocessor.html" xlink:actuate="onRequest" xlink:href="NaiveProjectedKNNPreprocessor.html" xlink:show="new" xlink:title="NaiveProjectedKNNPreprocessor.html" xlink:type="simple"><g id="elem_elki.index.preprocessed.knn.NaiveProjectedKNNPreprocessor"><rect codeLine="6" fill="#F1F1F1" height="330.9844" id="elki.index.preprocessed.knn.NaiveProjectedKNNPreprocessor" rx="2.5" ry="2.5" style="stroke:#181818;stroke-width:0.5;" width="840" x="9" y="132"/><ellipse cx="235.25" cy="150.9688" fill="#ADD1B2" rx="11" ry="11" style="stroke:#181818;stroke-width:1.0;"/><path d="M238.2188,156.6094 Q237.6406,156.9063 237,157.0469 Q236.3594,157.2031 235.6563,157.2031 Q233.1563,157.2031 231.8281,155.5625 Q230.5156,153.9063 230.5156,150.7813 Q230.5156,147.6563 231.8281,146 Q233.1563,144.3438 235.6563,144.3438 Q236.3594,144.3438 237,144.5 Q237.6563,144.6563 238.2188,144.9531 L238.2188,147.6719 Q237.5938,147.0938 237,146.8281 Q236.4063,146.5469 235.7813,146.5469 Q234.4375,146.5469 233.75,147.625 Q233.0625,148.6875 233.0625,150.7813 Q233.0625,152.875 233.75,153.9531 Q234.4375,155.0156 235.7813,155.0156 Q236.4063,155.0156 237,154.75 Q237.5938,154.4688 238.2188,153.8906 L238.2188,156.6094 Z " fill="#000000"/><text fill="#000000" font-family="sans-serif" font-size="14" lengthAdjust="spacing" textLength="225" x="255.75" y="149.9951">NaiveProjectedKNNPreprocessor</text><text fill="#000000" font-family="sans-serif" font-size="10" lengthAdjust="spacing" textLength="132" x="302.25" y="162.5791">elki.index.preprocessed.knn</text><rect fill="#FFFFFF" height="15.9688" style="stroke:#181818;stroke-width:1.0;stroke-dasharray:2.0,2.0;" width="152" x="700" y="129"/><text fill="#000000" font-family="sans-serif" font-size="12" font-style="italic" lengthAdjust="spacing" textLength="150" x="701" y="141.1387">O extends NumberVector</text><line style="stroke:#181818;stroke-width:0.5;" x1="10" x2="848" y1="169.9375" y2="169.9375"/><polygon fill="none" points="20,178.5859,24,182.5859,20,186.5859,16,182.5859" style="stroke:#B38D22;stroke-width:1.0;"/><text fill="#000000" font-family="sans-serif" font-size="14" lengthAdjust="spacing" textLength="315" x="29" y="186.9326">relation: Relation&lt;O extends NumberVector&gt;</text><rect fill="none" height="6" style="stroke:#C82930;stroke-width:1.0;" width="6" x="17" y="196.8828"/><text fill="#000000" font-family="sans-serif" font-size="14" lengthAdjust="spacing" text-decoration="underline" textLength="93" x="29" y="203.2295">LOG: Logging</text><polygon fill="none" points="20,212.1797,16,218.1797,24,218.1797" style="stroke:#1963A0;stroke-width:1.0;"/><text fill="#000000" font-family="sans-serif" font-size="14" lengthAdjust="spacing" textLength="109" x="29" y="219.5264">window: double</text><polygon fill="none" points="20,228.4766,16,234.4766,24,234.4766" style="stroke:#1963A0;stroke-width:1.0;"/><text fill="#000000" font-family="sans-serif" font-size="14" lengthAdjust="spacing" textLength="103" x="29" y="235.8232">projections: int</text><polygon fill="none" points="20,244.7734,16,250.7734,24,250.7734" style="stroke:#1963A0;stroke-width:1.0;"/><text fill="#000000" font-family="sans-serif" font-size="14" lengthAdjust="spacing" textLength="247" x="29" y="252.1201">positions: WritableDataStore&lt;int[]&gt;</text><polygon fill="none" points="20,261.0703,16,267.0703,24,267.0703" style="stroke:#1963A0;stroke-width:1.0;"/><text fill="#000000" font-family="sans-serif" font-size="14" lengthAdjust="spacing" textLength="86" x="29" y="268.417">mean: Mean</text><polygon fill="none" points="20,277.3672,16,283.3672,24,283.3672" style="stroke:#1963A0;stroke-width:1.0;"/><text fill="#000000" font-family="sans-serif" font-size="14" lengthAdjust="spacing" textLength="204" x="29" y="284.7139">proj: RandomProjectionFamily</text><polygon fill="none" points="20,293.6641,16,299.6641,24,299.6641" style="stroke:#1963A0;stroke-width:1.0;"/><text fill="#000000" font-family="sans-serif" font-size="14" lengthAdjust="spacing" textLength="120" x="29" y="301.0107">random: Random</text><polygon fill="none" points="20,309.9609,16,315.9609,24,315.9609" style="stroke:#1963A0;stroke-width:1.0;"/><text fill="#000000" font-family="sans-serif" font-size="14" lengthAdjust="spacing" textLength="299" x="29" y="317.3076">projected: List&lt;ModifiableDoubleDBIDList&gt;</text><line style="stroke:#181818;stroke-width:0.5;" x1="10" x2="848" y1="324.6094" y2="324.6094"/><ellipse cx="20" cy="338.2578" fill="#84BE84" rx="3" ry="3" style="stroke:#038048;stroke-width:1.0;"/><text fill="#000000" font-family="sans-serif" font-size="14" lengthAdjust="spacing" textLength="814" x="29" y="341.6045">NaiveProjectedKNNPreprocessor(Relation&lt;O extends NumberVector&gt;, double, int, RandomProjectionFamily, Random)</text><ellipse cx="20" cy="354.5547" fill="#84BE84" rx="3" ry="3" style="stroke:#038048;stroke-width:1.0;"/><text fill="#000000" font-family="sans-serif" font-size="14" lengthAdjust="spacing" textLength="101" x="29" y="357.9014">initialize(): void</text><polygon fill="#FFFF44" points="20,365.8516,24,369.8516,20,373.8516,16,369.8516" style="stroke:#B38D22;stroke-width:1.0;"/><text fill="#000000" font-family="sans-serif" font-size="14" lengthAdjust="spacing" textLength="126" x="29" y="374.1982">preprocess(): void</text><ellipse cx="20" cy="387.1484" fill="#84BE84" rx="3" ry="3" style="stroke:#038048;stroke-width:1.0;"/><text fill="#000000" font-family="sans-serif" font-size="14" lengthAdjust="spacing" text-decoration="underline" textLength="128" x="29" y="390.4951">range(int, int): int[]</text><ellipse cx="20" cy="403.4453" fill="#84BE84" rx="3" ry="3" style="stroke:#038048;stroke-width:1.0;"/><text fill="#000000" font-family="sans-serif" font-size="14" lengthAdjust="spacing" text-decoration="underline" textLength="276" x="29" y="406.792">randomPermutation(int[], Random): int[]</text><ellipse cx="20" cy="419.7422" fill="#84BE84" rx="3" ry="3" style="stroke:#038048;stroke-width:1.0;"/><text fill="#000000" font-family="sans-serif" font-size="14" lengthAdjust="spacing" textLength="130" x="29" y="423.0889">logStatistics(): void</text><ellipse cx="20" cy="436.0391" fill="#84BE84" rx="3" ry="3" style="stroke:#038048;stroke-width:1.0;"/><text fill="#000000" font-family="sans-serif" font-size="14" lengthAdjust="spacing" textLength="750" x="29" y="439.3857">kNNByObject(DistanceQuery&lt;O extends NumberVector&gt;, int, int): KNNSearcher&lt;O extends NumberVector&gt;</text><ellipse cx="20" cy="452.3359" fill="#84BE84" rx="3" ry="3" style="stroke:#038048;stroke-width:1.0;"/><text fill="#000000" font-family="sans-serif" font-size="14" lengthAdjust="spacing" textLength="623" x="29" y="455.6826">kNNByDBID(DistanceQuery&lt;O extends NumberVector&gt;, int, int): KNNSearcher&lt;DBIDRef&gt;</text></g></a><!--MD5=[99bbc9fd62e1c8a19e49de62d4f5faa0]
class elki.index.KNNIndex--><a href="../../KNNIndex.html" target="_top" title="../../KNNIndex.html" xlink:actuate="onRequest" xlink:href="../../KNNIndex.html" xlink:show="new" xlink:title="../../KNNIndex.html" xlink:type="simple"><g id="elem_elki.index.KNNIndex"><rect codeLine="26" fill="#F1F1F1" height="62.2344" id="elki.index.KNNIndex" rx="2.5" ry="2.5" style="stroke:#181818;stroke-width:0.5;" width="459" x="199.5" y="10"/><ellipse cx="312.75" cy="28.9688" fill="#B4A7E5" rx="11" ry="11" style="stroke:#181818;stroke-width:1.0;"/><path d="M308.6719,24.7344 L308.6719,22.5781 L316.0625,22.5781 L316.0625,24.7344 L313.5938,24.7344 L313.5938,32.8125 L316.0625,32.8125 L316.0625,34.9688 L308.6719,34.9688 L308.6719,32.8125 L311.1406,32.8125 L311.1406,24.7344 L308.6719,24.7344 Z " fill="#000000"/><text fill="#000000" font-family="sans-serif" font-size="14" font-style="italic" lengthAdjust="spacing" textLength="70" x="333.25" y="27.9951">KNNIndex</text><text fill="#000000" font-family="sans-serif" font-size="10" font-style="italic" lengthAdjust="spacing" textLength="48" x="344.25" y="40.5791">elki.index</text><rect fill="#FFFFFF" height="15.9688" style="stroke:#181818;stroke-width:1.0;stroke-dasharray:2.0,2.0;" width="152" x="509.5" y="7"/><text fill="#000000" font-family="sans-serif" font-size="12" font-style="italic" lengthAdjust="spacing" textLength="150" x="510.5" y="19.1387">O extends NumberVector</text><line style="stroke:#181818;stroke-width:0.5;" x1="200.5" x2="657.5" y1="47.9375" y2="47.9375"/><ellipse cx="210.5" cy="61.5859" fill="#84BE84" rx="3" ry="3" style="stroke:#038048;stroke-width:1.0;"/><text fill="#000000" font-family="sans-serif" font-size="14" font-style="italic" lengthAdjust="spacing" textLength="433" x="219.5" y="64.9326">kNNByObject(DistanceQuery&lt;O&gt;, int, int): KNNSearcher&lt;O&gt;</text></g></a><!--MD5=[dbf521aae66e029e380a72e64878b7b1]
class elki.index.preprocessed.knn.NaiveProjectedKNNPreprocessor.NaiveProjectedKNNQuery--><a href="NaiveProjectedKNNPreprocessor.NaiveProjectedKNNQuery.html" target="_top" title="NaiveProjectedKNNPreprocessor.NaiveProjectedKNNQuery.html" xlink:actuate="onRequest" xlink:href="NaiveProjectedKNNPreprocessor.NaiveProjectedKNNQuery.html" xlink:show="new" xlink:title="NaiveProjectedKNNPreprocessor.NaiveProjectedKNNQuery.html" xlink:type="simple"><g id="elem_elki.index.preprocessed.knn.NaiveProjectedKNNPreprocessor.NaiveProjectedKNNQuery"><rect codeLine="29" fill="#F1F1F1" height="37.9375" id="elki.index.preprocessed.knn.NaiveProjectedKNNPreprocessor.NaiveProjectedKNNQuery" rx="2.5" ry="2.5" style="stroke:#181818;stroke-width:0.5;" width="434" x="212" y="523"/><ellipse cx="227" cy="541.9688" fill="#ADD1B2" rx="11" ry="11" style="stroke:#181818;stroke-width:1.0;"/><path d="M229.9688,547.6094 Q229.3906,547.9063 228.75,548.0469 Q228.1094,548.2031 227.4063,548.2031 Q224.9063,548.2031 223.5781,546.5625 Q222.2656,544.9063 222.2656,541.7813 Q222.2656,538.6563 223.5781,537 Q224.9063,535.3438 227.4063,535.3438 Q228.1094,535.3438 228.75,535.5 Q229.4063,535.6563 229.9688,535.9531 L229.9688,538.6719 Q229.3438,538.0938 228.75,537.8281 Q228.1563,537.5469 227.5313,537.5469 Q226.1875,537.5469 225.5,538.625 Q224.8125,539.6875 224.8125,541.7813 Q224.8125,543.875 225.5,544.9531 Q226.1875,546.0156 227.5313,546.0156 Q228.1563,546.0156 228.75,545.75 Q229.3438,545.4688 229.9688,544.8906 L229.9688,547.6094 Z " fill="#000000"/><text fill="#000000" font-family="sans-serif" font-size="14" lengthAdjust="spacing" textLength="402" x="241" y="540.9951">NaiveProjectedKNNPreprocessor.NaiveProjectedKNNQuery</text><text fill="#000000" font-family="sans-serif" font-size="10" lengthAdjust="spacing" textLength="132" x="376" y="553.5791">elki.index.preprocessed.knn</text></g></a><!--MD5=[c65871ef1477cd00658b65ab591ddc63]
reverse link elki.index.KNNIndex to elki.index.preprocessed.knn.NaiveProjectedKNNPreprocessor--><g id="link_elki.index.KNNIndex_elki.index.preprocessed.knn.NaiveProjectedKNNPreprocessor"><path codeLine="32" d="M429,92.51 C429,104.41 429,117.74 429,131.73 " fill="none" id="elki.index.KNNIndex-backto-elki.index.preprocessed.knn.NaiveProjectedKNNPreprocessor" style="stroke:#181818;stroke-width:1.0;stroke-dasharray:7.0,7.0;"/><polygon fill="none" points="422,92.19,429,72.19,436,92.19,422,92.19" style="stroke:#181818;stroke-width:1.0;"/></g><!--MD5=[e726445a346485686e867900fdd0af98]
reverse link elki.index.preprocessed.knn.NaiveProjectedKNNPreprocessor to elki.index.preprocessed.knn.NaiveProjectedKNNPreprocessor.NaiveProjectedKNNQuery--><g id="link_elki.index.preprocessed.knn.NaiveProjectedKNNPreprocessor_elki.index.preprocessed.knn.NaiveProjectedKNNPreprocessor.NaiveProjectedKNNQuery"><path codeLine="33" d="M429,478.27 C429,496 429,511.53 429,522.71 " fill="none" id="elki.index.preprocessed.knn.NaiveProjectedKNNPreprocessor-backto-elki.index.preprocessed.knn.NaiveProjectedKNNPreprocessor.NaiveProjectedKNNQuery" style="stroke:#181818;stroke-width:1.0;"/><ellipse cx="429" cy="471.27" fill="#FFFFFF" rx="8" ry="8" style="stroke:#181818;stroke-width:1.0;"/><line style="stroke:#181818;stroke-width:1.0;" x1="429" x2="429" y1="479.27" y2="463.27"/><line style="stroke:#181818;stroke-width:1.0;" x1="421" x2="437" y1="471.27" y2="471.27"/></g><rect fill="none" height="11.6406" style="stroke:none;stroke-width:1.0;" width="186" x="330" y="565.9375"/><text fill="#888888" font-family="sans-serif" font-size="10" lengthAdjust="spacing" textLength="186" x="330" y="575.2197">UMLDoclet 2.0.19, PlantUML 1.2022.8</text><!--MD5=[0c0acdff5bea181aac43ebb72192ed07]
@startuml
    remove .*\.(Instance|Par|Parameterizer|Factory)$
    set namespaceSeparator none
    hide empty fields
    hide empty methods

    class "<size:14>NaiveProjectedKNNPreprocessor\n<size:10>elki.index.preprocessed.knn" as elki.index.preprocessed.knn.NaiveProjectedKNNPreprocessor<O extends NumberVector> [[NaiveProjectedKNNPreprocessor.html]] {
        #relation: Relation<O extends NumberVector>
        {static} -LOG: Logging
        ~window: double
        ~projections: int
        ~positions: WritableDataStore<int[]>
        ~mean: Mean
        ~proj: RandomProjectionFamily
        ~random: Random
        ~projected: List<ModifiableDoubleDBIDList>
        +NaiveProjectedKNNPreprocessor(Relation<O extends NumberVector>, double, int, RandomProjectionFamily, Random)
        +initialize(): void
        #preprocess(): void
        {static} +range(int, int): int[]
        {static} +randomPermutation(int[], Random): int[]
        +logStatistics(): void
        +kNNByObject(DistanceQuery<O extends NumberVector>, int, int): KNNSearcher<O extends NumberVector>
        +kNNByDBID(DistanceQuery<O extends NumberVector>, int, int): KNNSearcher<DBIDRef>
    }

    interface "<size:14>KNNIndex\n<size:10>elki.index" as elki.index.KNNIndex<O extends NumberVector> [[../../KNNIndex.html]] {
        {abstract} +kNNByObject(DistanceQuery<O>, int, int): KNNSearcher<O>
    }
    class "<size:14>NaiveProjectedKNNPreprocessor.NaiveProjectedKNNQuery\n<size:10>elki.index.preprocessed.knn" as elki.index.preprocessed.knn.NaiveProjectedKNNPreprocessor.NaiveProjectedKNNQuery [[NaiveProjectedKNNPreprocessor.NaiveProjectedKNNQuery.html]]
    class "<size:14>NaiveProjectedKNNPreprocessor.Factory\n<size:10>elki.index.preprocessed.knn" as elki.index.preprocessed.knn.NaiveProjectedKNNPreprocessor.Factory<V extends NumberVector> [[NaiveProjectedKNNPreprocessor.Factory.html]]

    elki.index.KNNIndex <|.. elki.index.preprocessed.knn.NaiveProjectedKNNPreprocessor
    elki.index.preprocessed.knn.NaiveProjectedKNNPreprocessor +- - elki.index.preprocessed.knn.NaiveProjectedKNNPreprocessor.NaiveProjectedKNNQuery
    elki.index.preprocessed.knn.NaiveProjectedKNNPreprocessor +- - elki.index.preprocessed.knn.NaiveProjectedKNNPreprocessor.Factory

    center footer UMLDoclet 2.0.19, PlantUML 1.2022.8
@enduml

PlantUML version 1.2022.8(Sun Sep 25 11:00:33 CEST 2022)
(APACHE source distribution)
Java Runtime: OpenJDK Runtime Environment
JVM: OpenJDK 64-Bit Server VM
Default Encoding: UTF-8
Language: de
Country: DE
--></g></svg>