<?xml version="1.0" encoding="UTF-8" standalone="no"?><svg xmlns="http://www.w3.org/2000/svg" xmlns:xlink="http://www.w3.org/1999/xlink" contentStyleType="text/css" height="326px" preserveAspectRatio="none" style="width:734px;height:326px;background:#FFFFFF;" version="1.1" viewBox="0 0 734 326" width="734px" zoomAndPan="magnify"><defs/><g><!--MD5=[146a4dae88ae928a715a9056843b624f]
class elki.index.preprocessed.knn.RandomSampleKNNPreprocessor--><a href="RandomSampleKNNPreprocessor.html" target="_top" title="RandomSampleKNNPreprocessor.html" xlink:actuate="onRequest" xlink:href="RandomSampleKNNPreprocessor.html" xlink:show="new" xlink:title="RandomSampleKNNPreprocessor.html" xlink:type="simple"><g id="elem_elki.index.preprocessed.knn.RandomSampleKNNPreprocessor"><rect codeLine="6" fill="#F1F1F1" height="151.7188" id="elki.index.preprocessed.knn.RandomSampleKNNPreprocessor" rx="2.5" ry="2.5" style="stroke:#181818;stroke-width:0.5;" width="714" x="9" y="149"/><ellipse cx="240.25" cy="167.9688" fill="#ADD1B2" rx="11" ry="11" style="stroke:#181818;stroke-width:1.0;"/><path d="M243.2188,173.6094 Q242.6406,173.9063 242,174.0469 Q241.3594,174.2031 240.6563,174.2031 Q238.1563,174.2031 236.8281,172.5625 Q235.5156,170.9063 235.5156,167.7813 Q235.5156,164.6563 236.8281,163 Q238.1563,161.3438 240.6563,161.3438 Q241.3594,161.3438 242,161.5 Q242.6563,161.6563 243.2188,161.9531 L243.2188,164.6719 Q242.5938,164.0938 242,163.8281 Q241.4063,163.5469 240.7813,163.5469 Q239.4375,163.5469 238.75,164.625 Q238.0625,165.6875 238.0625,167.7813 Q238.0625,169.875 238.75,170.9531 Q239.4375,172.0156 240.7813,172.0156 Q241.4063,172.0156 242,171.75 Q242.5938,171.4688 243.2188,170.8906 L243.2188,173.6094 Z " fill="#000000"/><text fill="#000000" font-family="sans-serif" font-size="14" lengthAdjust="spacing" textLength="231" x="260.75" y="166.9951">RandomSampleKNNPreprocessor</text><text fill="#000000" font-family="sans-serif" font-size="10" lengthAdjust="spacing" textLength="132" x="310.25" y="179.5791">elki.index.preprocessed.knn</text><rect fill="#FFFFFF" height="15.9688" style="stroke:#181818;stroke-width:1.0;stroke-dasharray:2.0,2.0;" width="10" x="716" y="146"/><text fill="#000000" font-family="sans-serif" font-size="12" font-style="italic" lengthAdjust="spacing" textLength="8" x="717" y="158.1387">O</text><line style="stroke:#181818;stroke-width:0.5;" x1="10" x2="722" y1="186.9375" y2="186.9375"/><rect fill="none" height="6" style="stroke:#C82930;stroke-width:1.0;" width="6" x="17" y="197.5859"/><text fill="#000000" font-family="sans-serif" font-size="14" lengthAdjust="spacing" text-decoration="underline" textLength="93" x="29" y="203.9326">LOG: Logging</text><rect fill="none" height="6" style="stroke:#C82930;stroke-width:1.0;" width="6" x="17" y="213.8828"/><text fill="#000000" font-family="sans-serif" font-size="14" lengthAdjust="spacing" textLength="96" x="29" y="220.2295">share: double</text><rect fill="none" height="6" style="stroke:#C82930;stroke-width:1.0;" width="6" x="17" y="230.1797"/><text fill="#000000" font-family="sans-serif" font-size="14" lengthAdjust="spacing" textLength="140" x="29" y="236.5264">rnd: RandomFactory</text><line style="stroke:#181818;stroke-width:0.5;" x1="10" x2="722" y1="243.8281" y2="243.8281"/><ellipse cx="20" cy="257.4766" fill="#84BE84" rx="3" ry="3" style="stroke:#038048;stroke-width:1.0;"/><text fill="#000000" font-family="sans-serif" font-size="14" lengthAdjust="spacing" textLength="688" x="29" y="260.8232">RandomSampleKNNPreprocessor(Relation&lt;O&gt;, Distance&lt;? super O&gt;, int, double, RandomFactory)</text><polygon fill="#FFFF44" points="20,268.7734,24,272.7734,20,276.7734,16,272.7734" style="stroke:#B38D22;stroke-width:1.0;"/><text fill="#000000" font-family="sans-serif" font-size="14" lengthAdjust="spacing" textLength="126" x="29" y="277.1201">preprocess(): void</text><polygon fill="#FFFF44" points="20,285.0703,24,289.0703,20,293.0703,16,289.0703" style="stroke:#B38D22;stroke-width:1.0;"/><text fill="#000000" font-family="sans-serif" font-size="14" lengthAdjust="spacing" textLength="145" x="29" y="293.417">getLogger(): Logging</text></g></a><!--MD5=[ff7daba0672d44e15f5231631d432705]
class elki.index.preprocessed.knn.AbstractMaterializeKNNPreprocessor--><a href="AbstractMaterializeKNNPreprocessor.html" target="_top" title="AbstractMaterializeKNNPreprocessor.html" xlink:actuate="onRequest" xlink:href="AbstractMaterializeKNNPreprocessor.html" xlink:show="new" xlink:title="AbstractMaterializeKNNPreprocessor.html" xlink:type="simple"><g id="elem_elki.index.preprocessed.knn.AbstractMaterializeKNNPreprocessor"><rect codeLine="15" fill="#F1F1F1" height="78.5313" id="elki.index.preprocessed.knn.AbstractMaterializeKNNPreprocessor" rx="2.5" ry="2.5" style="stroke:#181818;stroke-width:0.5;" width="300" x="216" y="10"/><ellipse cx="231" cy="28.9688" fill="#A9DCDF" rx="11" ry="11" style="stroke:#181818;stroke-width:1.0;"/><path d="M231.1094,24.3125 L229.9531,29.3906 L232.2813,29.3906 L231.1094,24.3125 Z M229.625,22.0781 L232.6094,22.0781 L235.9688,34.4688 L233.5156,34.4688 L232.75,31.4063 L229.4688,31.4063 L228.7188,34.4688 L226.2813,34.4688 L229.625,22.0781 Z " fill="#000000"/><text fill="#000000" font-family="sans-serif" font-size="14" font-style="italic" lengthAdjust="spacing" textLength="256" x="245" y="27.9951">AbstractMaterializeKNNPreprocessor</text><text fill="#000000" font-family="sans-serif" font-size="10" font-style="italic" lengthAdjust="spacing" textLength="138" x="304" y="40.5791">elki.index.preprocessed.knn</text><rect fill="#FFFFFF" height="15.9688" style="stroke:#181818;stroke-width:1.0;stroke-dasharray:2.0,2.0;" width="10" x="509" y="7"/><text fill="#000000" font-family="sans-serif" font-size="12" font-style="italic" lengthAdjust="spacing" textLength="8" x="510" y="19.1387">O</text><line style="stroke:#181818;stroke-width:0.5;" x1="217" x2="515" y1="47.9375" y2="47.9375"/><polygon fill="#FFFF44" points="227,56.5859,231,60.5859,227,64.5859,223,60.5859" style="stroke:#B38D22;stroke-width:1.0;"/><text fill="#000000" font-family="sans-serif" font-size="14" font-style="italic" lengthAdjust="spacing" textLength="126" x="236" y="64.9326">preprocess(): void</text><polygon fill="#FFFF44" points="227,72.8828,231,76.8828,227,80.8828,223,76.8828" style="stroke:#B38D22;stroke-width:1.0;"/><text fill="#000000" font-family="sans-serif" font-size="14" font-style="italic" lengthAdjust="spacing" textLength="148" x="236" y="81.2295">getLogger(): Logging</text></g></a><!--MD5=[9277d4fb1b1eaa8fca6916197c1cb0ca]
reverse link elki.index.preprocessed.knn.AbstractMaterializeKNNPreprocessor to elki.index.preprocessed.knn.RandomSampleKNNPreprocessor--><g id="link_elki.index.preprocessed.knn.AbstractMaterializeKNNPreprocessor_elki.index.preprocessed.knn.RandomSampleKNNPreprocessor"><path codeLine="21" d="M366,109.35 C366,122.07 366,135.69 366,148.94 " fill="none" id="elki.index.preprocessed.knn.AbstractMaterializeKNNPreprocessor-backto-elki.index.preprocessed.knn.RandomSampleKNNPreprocessor" style="stroke:#181818;stroke-width:1.0;"/><polygon fill="none" points="359,109.01,366,89.01,373,109.01,359,109.01" style="stroke:#181818;stroke-width:1.0;"/></g><rect fill="none" height="11.6406" style="stroke:none;stroke-width:1.0;" width="186" x="267" y="306.7188"/><text fill="#888888" font-family="sans-serif" font-size="10" lengthAdjust="spacing" textLength="186" x="267" y="316.001">UMLDoclet 2.0.19, PlantUML 1.2022.8</text><!--MD5=[a701774684d7d512d5af790bab36d7f9]
@startuml
    remove .*\.(Instance|Par|Parameterizer|Factory)$
    set namespaceSeparator none
    hide empty fields
    hide empty methods

    class "<size:14>RandomSampleKNNPreprocessor\n<size:10>elki.index.preprocessed.knn" as elki.index.preprocessed.knn.RandomSampleKNNPreprocessor<O> [[RandomSampleKNNPreprocessor.html]] {
        {static} -LOG: Logging
        -share: double
        -rnd: RandomFactory
        +RandomSampleKNNPreprocessor(Relation<O>, Distance<? super O>, int, double, RandomFactory)
        #preprocess(): void
        #getLogger(): Logging
    }

    abstract class "<size:14>AbstractMaterializeKNNPreprocessor\n<size:10>elki.index.preprocessed.knn" as elki.index.preprocessed.knn.AbstractMaterializeKNNPreprocessor<O> [[AbstractMaterializeKNNPreprocessor.html]] {
        {abstract} #preprocess(): void
        {abstract} #getLogger(): Logging
    }
    class "<size:14>RandomSampleKNNPreprocessor.Factory\n<size:10>elki.index.preprocessed.knn" as elki.index.preprocessed.knn.RandomSampleKNNPreprocessor.Factory<O> [[RandomSampleKNNPreprocessor.Factory.html]]

    elki.index.preprocessed.knn.AbstractMaterializeKNNPreprocessor <|- - elki.index.preprocessed.knn.RandomSampleKNNPreprocessor
    elki.index.preprocessed.knn.RandomSampleKNNPreprocessor +- - elki.index.preprocessed.knn.RandomSampleKNNPreprocessor.Factory

    center footer UMLDoclet 2.0.19, PlantUML 1.2022.8
@enduml

PlantUML version 1.2022.8(Sun Sep 25 11:00:33 CEST 2022)
(APACHE source distribution)
Java Runtime: OpenJDK Runtime Environment
JVM: OpenJDK 64-Bit Server VM
Default Encoding: UTF-8
Language: de
Country: DE
--></g></svg>