<?xml version="1.0" encoding="UTF-8" standalone="no"?><svg xmlns="http://www.w3.org/2000/svg" xmlns:xlink="http://www.w3.org/1999/xlink" contentStyleType="text/css" height="618px" preserveAspectRatio="none" style="width:1072px;height:618px;background:#FFFFFF;" version="1.1" viewBox="0 0 1072 618" width="1072px" zoomAndPan="magnify"><defs/><g><!--MD5=[4e7c354dad90a574b6c052f7d2065d37]
class elki.index.preprocessed.knn.SpacefillingKNNPreprocessor--><a href="SpacefillingKNNPreprocessor.html" target="_top" title="SpacefillingKNNPreprocessor.html" xlink:actuate="onRequest" xlink:href="SpacefillingKNNPreprocessor.html" xlink:show="new" xlink:title="SpacefillingKNNPreprocessor.html" xlink:type="simple"><g id="elem_elki.index.preprocessed.knn.SpacefillingKNNPreprocessor"><rect codeLine="6" fill="#F1F1F1" height="363.5781" id="elki.index.preprocessed.knn.SpacefillingKNNPreprocessor" rx="2.5" ry="2.5" style="stroke:#181818;stroke-width:0.5;" width="1052" x="9" y="132"/><ellipse cx="354.25" cy="150.9688" fill="#ADD1B2" rx="11" ry="11" style="stroke:#181818;stroke-width:1.0;"/><path d="M357.2188,156.6094 Q356.6406,156.9063 356,157.0469 Q355.3594,157.2031 354.6563,157.2031 Q352.1563,157.2031 350.8281,155.5625 Q349.5156,153.9063 349.5156,150.7813 Q349.5156,147.6563 350.8281,146 Q352.1563,144.3438 354.6563,144.3438 Q355.3594,144.3438 356,144.5 Q356.6563,144.6563 357.2188,144.9531 L357.2188,147.6719 Q356.5938,147.0938 356,146.8281 Q355.4063,146.5469 354.7813,146.5469 Q353.4375,146.5469 352.75,147.625 Q352.0625,148.6875 352.0625,150.7813 Q352.0625,152.875 352.75,153.9531 Q353.4375,155.0156 354.7813,155.0156 Q355.4063,155.0156 356,154.75 Q356.5938,154.4688 357.2188,153.8906 L357.2188,156.6094 Z " fill="#000000"/><text fill="#000000" font-family="sans-serif" font-size="14" lengthAdjust="spacing" textLength="199" x="374.75" y="149.9951">SpacefillingKNNPreprocessor</text><text fill="#000000" font-family="sans-serif" font-size="10" lengthAdjust="spacing" textLength="132" x="408.25" y="162.5791">elki.index.preprocessed.knn</text><rect fill="#FFFFFF" height="15.9688" style="stroke:#181818;stroke-width:1.0;stroke-dasharray:2.0,2.0;" width="152" x="912" y="129"/><text fill="#000000" font-family="sans-serif" font-size="12" font-style="italic" lengthAdjust="spacing" textLength="150" x="913" y="141.1387">O extends NumberVector</text><line style="stroke:#181818;stroke-width:0.5;" x1="10" x2="1060" y1="169.9375" y2="169.9375"/><rect fill="none" height="6" style="stroke:#C82930;stroke-width:1.0;" width="6" x="17" y="180.5859"/><text fill="#000000" font-family="sans-serif" font-size="14" lengthAdjust="spacing" text-decoration="underline" textLength="93" x="29" y="186.9326">LOG: Logging</text><polygon fill="none" points="20,194.8828,24,198.8828,20,202.8828,16,198.8828" style="stroke:#B38D22;stroke-width:1.0;"/><text fill="#000000" font-family="sans-serif" font-size="14" lengthAdjust="spacing" textLength="315" x="29" y="203.2295">relation: Relation&lt;O extends NumberVector&gt;</text><polygon fill="none" points="20,212.1797,16,218.1797,24,218.1797" style="stroke:#1963A0;stroke-width:1.0;"/><text fill="#000000" font-family="sans-serif" font-size="14" lengthAdjust="spacing" textLength="279" x="29" y="219.5264">curvegen: List&lt;? extends SpatialSorter&gt;</text><polygon fill="none" points="20,228.4766,16,234.4766,24,234.4766" style="stroke:#1963A0;stroke-width:1.0;"/><text fill="#000000" font-family="sans-serif" font-size="14" lengthAdjust="spacing" textLength="109" x="29" y="235.8232">window: double</text><polygon fill="none" points="20,244.7734,16,250.7734,24,250.7734" style="stroke:#1963A0;stroke-width:1.0;"/><text fill="#000000" font-family="sans-serif" font-size="14" lengthAdjust="spacing" textLength="79" x="29" y="252.1201">variants: int</text><polygon fill="none" points="20,261.0703,16,267.0703,24,267.0703" style="stroke:#1963A0;stroke-width:1.0;"/><text fill="#000000" font-family="sans-serif" font-size="14" lengthAdjust="spacing" textLength="386" x="29" y="268.417">curves: List&lt;List&lt;SpatialPair&lt;DBID, NumberVector&gt;&gt;&gt;</text><polygon fill="none" points="20,277.3672,16,283.3672,24,283.3672" style="stroke:#1963A0;stroke-width:1.0;"/><text fill="#000000" font-family="sans-serif" font-size="14" lengthAdjust="spacing" textLength="247" x="29" y="284.7139">positions: WritableDataStore&lt;int[]&gt;</text><polygon fill="none" points="20,293.6641,16,299.6641,24,299.6641" style="stroke:#1963A0;stroke-width:1.0;"/><text fill="#000000" font-family="sans-serif" font-size="14" lengthAdjust="spacing" textLength="86" x="29" y="301.0107">mean: Mean</text><polygon fill="none" points="20,309.9609,16,315.9609,24,315.9609" style="stroke:#1963A0;stroke-width:1.0;"/><text fill="#000000" font-family="sans-serif" font-size="14" lengthAdjust="spacing" textLength="60" x="29" y="317.3076">odim: int</text><polygon fill="none" points="20,326.2578,16,332.2578,24,332.2578" style="stroke:#1963A0;stroke-width:1.0;"/><text fill="#000000" font-family="sans-serif" font-size="14" lengthAdjust="spacing" textLength="204" x="29" y="333.6045">proj: RandomProjectionFamily</text><polygon fill="none" points="20,342.5547,16,348.5547,24,348.5547" style="stroke:#1963A0;stroke-width:1.0;"/><text fill="#000000" font-family="sans-serif" font-size="14" lengthAdjust="spacing" textLength="120" x="29" y="349.9014">random: Random</text><line style="stroke:#181818;stroke-width:0.5;" x1="10" x2="1060" y1="357.2031" y2="357.2031"/><ellipse cx="20" cy="370.8516" fill="#84BE84" rx="3" ry="3" style="stroke:#038048;stroke-width:1.0;"/><text fill="#000000" font-family="sans-serif" font-size="14" lengthAdjust="spacing" textLength="1026" x="29" y="374.1982">SpacefillingKNNPreprocessor(Relation&lt;O extends NumberVector&gt;, List&lt;? extends SpatialSorter&gt;, double, int, int, RandomProjectionFamily, Random)</text><ellipse cx="20" cy="387.1484" fill="#84BE84" rx="3" ry="3" style="stroke:#038048;stroke-width:1.0;"/><text fill="#000000" font-family="sans-serif" font-size="14" lengthAdjust="spacing" textLength="101" x="29" y="390.4951">initialize(): void</text><polygon fill="#FFFF44" points="20,398.4453,24,402.4453,20,406.4453,16,402.4453" style="stroke:#B38D22;stroke-width:1.0;"/><text fill="#000000" font-family="sans-serif" font-size="14" lengthAdjust="spacing" textLength="126" x="29" y="406.792">preprocess(): void</text><ellipse cx="20" cy="419.7422" fill="#84BE84" rx="3" ry="3" style="stroke:#038048;stroke-width:1.0;"/><text fill="#000000" font-family="sans-serif" font-size="14" lengthAdjust="spacing" text-decoration="underline" textLength="128" x="29" y="423.0889">range(int, int): int[]</text><ellipse cx="20" cy="436.0391" fill="#84BE84" rx="3" ry="3" style="stroke:#038048;stroke-width:1.0;"/><text fill="#000000" font-family="sans-serif" font-size="14" lengthAdjust="spacing" text-decoration="underline" textLength="276" x="29" y="439.3857">randomPermutation(int[], Random): int[]</text><ellipse cx="20" cy="452.3359" fill="#84BE84" rx="3" ry="3" style="stroke:#038048;stroke-width:1.0;"/><text fill="#000000" font-family="sans-serif" font-size="14" lengthAdjust="spacing" textLength="130" x="29" y="455.6826">logStatistics(): void</text><ellipse cx="20" cy="468.6328" fill="#84BE84" rx="3" ry="3" style="stroke:#038048;stroke-width:1.0;"/><text fill="#000000" font-family="sans-serif" font-size="14" lengthAdjust="spacing" textLength="750" x="29" y="471.9795">kNNByObject(DistanceQuery&lt;O extends NumberVector&gt;, int, int): KNNSearcher&lt;O extends NumberVector&gt;</text><ellipse cx="20" cy="484.9297" fill="#84BE84" rx="3" ry="3" style="stroke:#038048;stroke-width:1.0;"/><text fill="#000000" font-family="sans-serif" font-size="14" lengthAdjust="spacing" textLength="623" x="29" y="488.2764">kNNByDBID(DistanceQuery&lt;O extends NumberVector&gt;, int, int): KNNSearcher&lt;DBIDRef&gt;</text></g></a><!--MD5=[99bbc9fd62e1c8a19e49de62d4f5faa0]
class elki.index.KNNIndex--><a href="../../KNNIndex.html" target="_top" title="../../KNNIndex.html" xlink:actuate="onRequest" xlink:href="../../KNNIndex.html" xlink:show="new" xlink:title="../../KNNIndex.html" xlink:type="simple"><g id="elem_elki.index.KNNIndex"><rect codeLine="28" fill="#F1F1F1" height="62.2344" id="elki.index.KNNIndex" rx="2.5" ry="2.5" style="stroke:#181818;stroke-width:0.5;" width="459" x="305.5" y="10"/><ellipse cx="418.75" cy="28.9688" fill="#B4A7E5" rx="11" ry="11" style="stroke:#181818;stroke-width:1.0;"/><path d="M414.6719,24.7344 L414.6719,22.5781 L422.0625,22.5781 L422.0625,24.7344 L419.5938,24.7344 L419.5938,32.8125 L422.0625,32.8125 L422.0625,34.9688 L414.6719,34.9688 L414.6719,32.8125 L417.1406,32.8125 L417.1406,24.7344 L414.6719,24.7344 Z " fill="#000000"/><text fill="#000000" font-family="sans-serif" font-size="14" font-style="italic" lengthAdjust="spacing" textLength="70" x="439.25" y="27.9951">KNNIndex</text><text fill="#000000" font-family="sans-serif" font-size="10" font-style="italic" lengthAdjust="spacing" textLength="48" x="450.25" y="40.5791">elki.index</text><rect fill="#FFFFFF" height="15.9688" style="stroke:#181818;stroke-width:1.0;stroke-dasharray:2.0,2.0;" width="152" x="615.5" y="7"/><text fill="#000000" font-family="sans-serif" font-size="12" font-style="italic" lengthAdjust="spacing" textLength="150" x="616.5" y="19.1387">O extends NumberVector</text><line style="stroke:#181818;stroke-width:0.5;" x1="306.5" x2="763.5" y1="47.9375" y2="47.9375"/><ellipse cx="316.5" cy="61.5859" fill="#84BE84" rx="3" ry="3" style="stroke:#038048;stroke-width:1.0;"/><text fill="#000000" font-family="sans-serif" font-size="14" font-style="italic" lengthAdjust="spacing" textLength="433" x="325.5" y="64.9326">kNNByObject(DistanceQuery&lt;O&gt;, int, int): KNNSearcher&lt;O&gt;</text></g></a><!--MD5=[0b1bdc8e62734abea8d5d92065995f44]
class elki.index.preprocessed.knn.SpacefillingKNNPreprocessor.SpaceFillingKNNQuery--><a href="SpacefillingKNNPreprocessor.SpaceFillingKNNQuery.html" target="_top" title="SpacefillingKNNPreprocessor.SpaceFillingKNNQuery.html" xlink:actuate="onRequest" xlink:href="SpacefillingKNNPreprocessor.SpaceFillingKNNQuery.html" xlink:show="new" xlink:title="SpacefillingKNNPreprocessor.SpaceFillingKNNQuery.html" xlink:type="simple"><g id="elem_elki.index.preprocessed.knn.SpacefillingKNNPreprocessor.SpaceFillingKNNQuery"><rect codeLine="31" fill="#F1F1F1" height="37.9375" id="elki.index.preprocessed.knn.SpacefillingKNNPreprocessor.SpaceFillingKNNQuery" rx="2.5" ry="2.5" style="stroke:#181818;stroke-width:0.5;" width="386" x="342" y="556"/><ellipse cx="357" cy="574.9688" fill="#ADD1B2" rx="11" ry="11" style="stroke:#181818;stroke-width:1.0;"/><path d="M359.9688,580.6094 Q359.3906,580.9063 358.75,581.0469 Q358.1094,581.2031 357.4063,581.2031 Q354.9063,581.2031 353.5781,579.5625 Q352.2656,577.9063 352.2656,574.7813 Q352.2656,571.6563 353.5781,570 Q354.9063,568.3438 357.4063,568.3438 Q358.1094,568.3438 358.75,568.5 Q359.4063,568.6563 359.9688,568.9531 L359.9688,571.6719 Q359.3438,571.0938 358.75,570.8281 Q358.1563,570.5469 357.5313,570.5469 Q356.1875,570.5469 355.5,571.625 Q354.8125,572.6875 354.8125,574.7813 Q354.8125,576.875 355.5,577.9531 Q356.1875,579.0156 357.5313,579.0156 Q358.1563,579.0156 358.75,578.75 Q359.3438,578.4688 359.9688,577.8906 L359.9688,580.6094 Z " fill="#000000"/><text fill="#000000" font-family="sans-serif" font-size="14" lengthAdjust="spacing" textLength="354" x="371" y="573.9951">SpacefillingKNNPreprocessor.SpaceFillingKNNQuery</text><text fill="#000000" font-family="sans-serif" font-size="10" lengthAdjust="spacing" textLength="132" x="482" y="586.5791">elki.index.preprocessed.knn</text></g></a><!--MD5=[90159ea7f321ea16d2546db355649d1b]
reverse link elki.index.KNNIndex to elki.index.preprocessed.knn.SpacefillingKNNPreprocessor--><g id="link_elki.index.KNNIndex_elki.index.preprocessed.knn.SpacefillingKNNPreprocessor"><path codeLine="34" d="M535,92.38 C535,104.32 535,117.75 535,131.93 " fill="none" id="elki.index.KNNIndex-backto-elki.index.preprocessed.knn.SpacefillingKNNPreprocessor" style="stroke:#181818;stroke-width:1.0;stroke-dasharray:7.0,7.0;"/><polygon fill="none" points="528,92.04,535,72.04,542,92.04,528,92.04" style="stroke:#181818;stroke-width:1.0;"/></g><!--MD5=[54106d48a5eb2706d7d9795042b840bf]
reverse link elki.index.preprocessed.knn.SpacefillingKNNPreprocessor to elki.index.preprocessed.knn.SpacefillingKNNPreprocessor.SpaceFillingKNNQuery--><g id="link_elki.index.preprocessed.knn.SpacefillingKNNPreprocessor_elki.index.preprocessed.knn.SpacefillingKNNPreprocessor.SpaceFillingKNNQuery"><path codeLine="35" d="M535,511.41 C535,529.25 535,544.75 535,555.86 " fill="none" id="elki.index.preprocessed.knn.SpacefillingKNNPreprocessor-backto-elki.index.preprocessed.knn.SpacefillingKNNPreprocessor.SpaceFillingKNNQuery" style="stroke:#181818;stroke-width:1.0;"/><ellipse cx="535" cy="504.29" fill="#FFFFFF" rx="8" ry="8" style="stroke:#181818;stroke-width:1.0;"/><line style="stroke:#181818;stroke-width:1.0;" x1="535" x2="535" y1="512.29" y2="496.29"/><line style="stroke:#181818;stroke-width:1.0;" x1="527" x2="543" y1="504.29" y2="504.29"/></g><rect fill="none" height="11.6406" style="stroke:none;stroke-width:1.0;" width="186" x="436" y="598.9375"/><text fill="#888888" font-family="sans-serif" font-size="10" lengthAdjust="spacing" textLength="186" x="436" y="608.2197">UMLDoclet 2.0.19, PlantUML 1.2022.8</text><!--MD5=[c18f327c87f17d8d10226a770687c490]
@startuml
    remove .*\.(Instance|Par|Parameterizer|Factory)$
    set namespaceSeparator none
    hide empty fields
    hide empty methods

    class "<size:14>SpacefillingKNNPreprocessor\n<size:10>elki.index.preprocessed.knn" as elki.index.preprocessed.knn.SpacefillingKNNPreprocessor<O extends NumberVector> [[SpacefillingKNNPreprocessor.html]] {
        {static} -LOG: Logging
        #relation: Relation<O extends NumberVector>
        ~curvegen: List<? extends SpatialSorter>
        ~window: double
        ~variants: int
        ~curves: List<List<SpatialPair<DBID, NumberVector>>>
        ~positions: WritableDataStore<int[]>
        ~mean: Mean
        ~odim: int
        ~proj: RandomProjectionFamily
        ~random: Random
        +SpacefillingKNNPreprocessor(Relation<O extends NumberVector>, List<? extends SpatialSorter>, double, int, int, RandomProjectionFamily, Random)
        +initialize(): void
        #preprocess(): void
        {static} +range(int, int): int[]
        {static} +randomPermutation(int[], Random): int[]
        +logStatistics(): void
        +kNNByObject(DistanceQuery<O extends NumberVector>, int, int): KNNSearcher<O extends NumberVector>
        +kNNByDBID(DistanceQuery<O extends NumberVector>, int, int): KNNSearcher<DBIDRef>
    }

    interface "<size:14>KNNIndex\n<size:10>elki.index" as elki.index.KNNIndex<O extends NumberVector> [[../../KNNIndex.html]] {
        {abstract} +kNNByObject(DistanceQuery<O>, int, int): KNNSearcher<O>
    }
    class "<size:14>SpacefillingKNNPreprocessor.SpaceFillingKNNQuery\n<size:10>elki.index.preprocessed.knn" as elki.index.preprocessed.knn.SpacefillingKNNPreprocessor.SpaceFillingKNNQuery [[SpacefillingKNNPreprocessor.SpaceFillingKNNQuery.html]]
    class "<size:14>SpacefillingKNNPreprocessor.Factory\n<size:10>elki.index.preprocessed.knn" as elki.index.preprocessed.knn.SpacefillingKNNPreprocessor.Factory<V extends NumberVector> [[SpacefillingKNNPreprocessor.Factory.html]]

    elki.index.KNNIndex <|.. elki.index.preprocessed.knn.SpacefillingKNNPreprocessor
    elki.index.preprocessed.knn.SpacefillingKNNPreprocessor +- - elki.index.preprocessed.knn.SpacefillingKNNPreprocessor.SpaceFillingKNNQuery
    elki.index.preprocessed.knn.SpacefillingKNNPreprocessor +- - elki.index.preprocessed.knn.SpacefillingKNNPreprocessor.Factory

    center footer UMLDoclet 2.0.19, PlantUML 1.2022.8
@enduml

PlantUML version 1.2022.8(Sun Sep 25 11:00:33 CEST 2022)
(APACHE source distribution)
Java Runtime: OpenJDK Runtime Environment
JVM: OpenJDK 64-Bit Server VM
Default Encoding: UTF-8
Language: de
Country: DE
--></g></svg>