<?xml version="1.0" encoding="UTF-8" standalone="no"?><svg xmlns="http://www.w3.org/2000/svg" xmlns:xlink="http://www.w3.org/1999/xlink" contentStyleType="text/css" height="383px" preserveAspectRatio="none" style="width:775px;height:383px;background:#FFFFFF;" version="1.1" viewBox="0 0 775 383" width="775px" zoomAndPan="magnify"><defs/><g><!--MD5=[41fe4718789e46c7eb710d27cb32cb7b]
class elki.clustering.dbscan.LSDBC--><a href="LSDBC.html" target="_top" title="LSDBC.html" xlink:actuate="onRequest" xlink:href="LSDBC.html" xlink:show="new" xlink:title="LSDBC.html" xlink:type="simple"><g id="elem_elki.clustering.dbscan.LSDBC"><rect codeLine="6" fill="#F1F1F1" height="249.5" id="elki.clustering.dbscan.LSDBC" rx="2.5" ry="2.5" style="stroke:#181818;stroke-width:0.5;" width="755" x="9" y="108"/><ellipse cx="254.75" cy="126.9688" fill="#ADD1B2" rx="11" ry="11" style="stroke:#181818;stroke-width:1.0;"/><path d="M257.7188,132.6094 Q257.1406,132.9063 256.5,133.0469 Q255.8594,133.2031 255.1563,133.2031 Q252.6563,133.2031 251.3281,131.5625 Q250.0156,129.9063 250.0156,126.7813 Q250.0156,123.6563 251.3281,122 Q252.6563,120.3438 255.1563,120.3438 Q255.8594,120.3438 256.5,120.5 Q257.1563,120.6563 257.7188,120.9531 L257.7188,123.6719 Q257.0938,123.0938 256.5,122.8281 Q255.9063,122.5469 255.2813,122.5469 Q253.9375,122.5469 253.25,123.625 Q252.5625,124.6875 252.5625,126.7813 Q252.5625,128.875 253.25,129.9531 Q253.9375,131.0156 255.2813,131.0156 Q255.9063,131.0156 256.5,130.75 Q257.0938,130.4688 257.7188,129.8906 L257.7188,132.6094 Z " fill="#000000"/><text fill="#000000" font-family="sans-serif" font-size="14" lengthAdjust="spacing" textLength="47" x="302.25" y="125.9951">LSDBC</text><text fill="#000000" font-family="sans-serif" font-size="10" lengthAdjust="spacing" textLength="101" x="275.25" y="138.5791">elki.clustering.dbscan</text><rect fill="#FFFFFF" height="15.9688" style="stroke:#181818;stroke-width:1.0;stroke-dasharray:2.0,2.0;" width="152" x="615" y="105"/><text fill="#000000" font-family="sans-serif" font-size="12" font-style="italic" lengthAdjust="spacing" textLength="150" x="616" y="117.1387">O extends NumberVector</text><line style="stroke:#181818;stroke-width:0.5;" x1="10" x2="763" y1="145.9375" y2="145.9375"/><rect fill="none" height="6" style="stroke:#C82930;stroke-width:1.0;" width="6" x="17" y="156.5859"/><text fill="#000000" font-family="sans-serif" font-size="14" lengthAdjust="spacing" text-decoration="underline" textLength="93" x="29" y="162.9326">LOG: Logging</text><polygon fill="none" points="20,170.8828,24,174.8828,20,178.8828,16,174.8828" style="stroke:#B38D22;stroke-width:1.0;"/><text fill="#000000" font-family="sans-serif" font-size="14" lengthAdjust="spacing" textLength="63" x="29" y="179.2295">kplus: int</text><polygon fill="none" points="20,187.1797,24,191.1797,20,195.1797,16,191.1797" style="stroke:#B38D22;stroke-width:1.0;"/><text fill="#000000" font-family="sans-serif" font-size="14" lengthAdjust="spacing" textLength="94" x="29" y="195.5264">alpha: double</text><polygon fill="none" points="20,203.4766,24,207.4766,20,211.4766,16,207.4766" style="stroke:#B38D22;stroke-width:1.0;"/><text fill="#000000" font-family="sans-serif" font-size="14" lengthAdjust="spacing" textLength="308" x="29" y="211.8232">distance: Distance&lt;? super NumberVector&gt;</text><polygon fill="none" points="20,219.7734,24,223.7734,20,227.7734,16,223.7734" style="stroke:#B38D22;stroke-width:1.0;"/><text fill="#000000" font-family="sans-serif" font-size="14" lengthAdjust="spacing" text-decoration="underline" textLength="133" x="29" y="228.1201">UNPROCESSED: int</text><polygon fill="none" points="20,236.0703,24,240.0703,20,244.0703,16,240.0703" style="stroke:#B38D22;stroke-width:1.0;"/><text fill="#000000" font-family="sans-serif" font-size="14" lengthAdjust="spacing" text-decoration="underline" textLength="68" x="29" y="244.417">NOISE: int</text><line style="stroke:#181818;stroke-width:0.5;" x1="10" x2="763" y1="251.7188" y2="251.7188"/><ellipse cx="20" cy="265.3672" fill="#84BE84" rx="3" ry="3" style="stroke:#038048;stroke-width:1.0;"/><text fill="#000000" font-family="sans-serif" font-size="14" lengthAdjust="spacing" textLength="378" x="29" y="268.7139">LSDBC(Distance&lt;? super NumberVector&gt;, int, double)</text><ellipse cx="20" cy="281.6641" fill="#84BE84" rx="3" ry="3" style="stroke:#038048;stroke-width:1.0;"/><text fill="#000000" font-family="sans-serif" font-size="14" lengthAdjust="spacing" textLength="306" x="29" y="285.0107">getInputTypeRestriction(): TypeInformation[]</text><ellipse cx="20" cy="297.9609" fill="#84BE84" rx="3" ry="3" style="stroke:#038048;stroke-width:1.0;"/><text fill="#000000" font-family="sans-serif" font-size="14" lengthAdjust="spacing" textLength="433" x="29" y="301.3076">run(Relation&lt;O extends NumberVector&gt;): Clustering&lt;Model&gt;</text><rect fill="#F24D5C" height="6" style="stroke:#C82930;stroke-width:1.0;" width="6" x="17" y="311.2578"/><text fill="#000000" font-family="sans-serif" font-size="14" lengthAdjust="spacing" textLength="467" x="29" y="317.6045">isLocalMaximum(double, DBIDs, WritableDoubleDataStore): boolean</text><polygon fill="#FFFF44" points="20,325.5547,24,329.5547,20,333.5547,16,329.5547" style="stroke:#B38D22;stroke-width:1.0;"/><text fill="#000000" font-family="sans-serif" font-size="14" lengthAdjust="spacing" textLength="729" x="29" y="333.9014">expandCluster(int, WritableIntegerDataStore, KNNSearcher&lt;DBIDRef&gt;, DBIDs, double, FiniteProgress): int</text><rect fill="#F24D5C" height="6" style="stroke:#C82930;stroke-width:1.0;" width="6" x="17" y="343.8516"/><text fill="#000000" font-family="sans-serif" font-size="14" lengthAdjust="spacing" textLength="531" x="29" y="350.1982">fillDensities(KNNSearcher&lt;DBIDRef&gt;, DBIDs, WritableDoubleDataStore): void</text></g></a><!--MD5=[4fc33484231348e70db2dde04bb5858c]
class elki.clustering.ClusteringAlgorithm--><a href="../ClusteringAlgorithm.html" target="_top" title="../ClusteringAlgorithm.html" xlink:actuate="onRequest" xlink:href="../ClusteringAlgorithm.html" xlink:show="new" xlink:title="../ClusteringAlgorithm.html" xlink:type="simple"><g id="elem_elki.clustering.ClusteringAlgorithm"><rect codeLine="21" fill="#F1F1F1" height="37.9375" id="elki.clustering.ClusteringAlgorithm" rx="2.5" ry="2.5" style="stroke:#181818;stroke-width:0.5;" width="291" x="241" y="10"/><ellipse cx="256" cy="28.9688" fill="#B4A7E5" rx="11" ry="11" style="stroke:#181818;stroke-width:1.0;"/><path d="M251.9219,24.7344 L251.9219,22.5781 L259.3125,22.5781 L259.3125,24.7344 L256.8438,24.7344 L256.8438,32.8125 L259.3125,32.8125 L259.3125,34.9688 L251.9219,34.9688 L251.9219,32.8125 L254.3906,32.8125 L254.3906,24.7344 L251.9219,24.7344 Z " fill="#000000"/><text fill="#000000" font-family="sans-serif" font-size="14" font-style="italic" lengthAdjust="spacing" textLength="140" x="270" y="27.9951">ClusteringAlgorithm</text><text fill="#000000" font-family="sans-serif" font-size="10" font-style="italic" lengthAdjust="spacing" textLength="70" x="305" y="40.5791">elki.clustering</text><rect fill="#FFFFFF" height="15.9688" style="stroke:#181818;stroke-width:1.0;stroke-dasharray:2.0,2.0;" width="117" x="418" y="7"/><text fill="#000000" font-family="sans-serif" font-size="12" font-style="italic" lengthAdjust="spacing" textLength="115" x="419" y="19.1387">Clustering&lt;Model&gt;</text></g></a><!--MD5=[e0271b0de6199f12e2169602e57531c7]
reverse link elki.clustering.ClusteringAlgorithm to elki.clustering.dbscan.LSDBC--><g id="link_elki.clustering.ClusteringAlgorithm_elki.clustering.dbscan.LSDBC"><path codeLine="24" d="M386.5,68.64 C386.5,80.25 386.5,93.67 386.5,107.72 " fill="none" id="elki.clustering.ClusteringAlgorithm-backto-elki.clustering.dbscan.LSDBC" style="stroke:#181818;stroke-width:1.0;stroke-dasharray:7.0,7.0;"/><polygon fill="none" points="379.5,68.28,386.5,48.28,393.5,68.28,379.5,68.28" style="stroke:#181818;stroke-width:1.0;"/></g><rect fill="none" height="11.6406" style="stroke:none;stroke-width:1.0;" width="186" x="287.5" y="363.5"/><text fill="#888888" font-family="sans-serif" font-size="10" lengthAdjust="spacing" textLength="186" x="287.5" y="372.7822">UMLDoclet 2.0.19, PlantUML 1.2022.8</text><!--MD5=[87d3bb6f923c3ee8eccce0fc2a53305f]
@startuml
    remove .*\.(Instance|Par|Parameterizer|Factory)$
    set namespaceSeparator none
    hide empty fields
    hide empty methods

    class "<size:14>LSDBC\n<size:10>elki.clustering.dbscan" as elki.clustering.dbscan.LSDBC<O extends NumberVector> [[LSDBC.html]] {
        {static} -LOG: Logging
        #kplus: int
        #alpha: double
        #distance: Distance<? super NumberVector>
        {static} #UNPROCESSED: int
        {static} #NOISE: int
        +LSDBC(Distance<? super NumberVector>, int, double)
        +getInputTypeRestriction(): TypeInformation[]
        +run(Relation<O extends NumberVector>): Clustering<Model>
        -isLocalMaximum(double, DBIDs, WritableDoubleDataStore): boolean
        #expandCluster(int, WritableIntegerDataStore, KNNSearcher<DBIDRef>, DBIDs, double, FiniteProgress): int
        -fillDensities(KNNSearcher<DBIDRef>, DBIDs, WritableDoubleDataStore): void
    }

    interface "<size:14>ClusteringAlgorithm\n<size:10>elki.clustering" as elki.clustering.ClusteringAlgorithm<Clustering<Model>> [[../ClusteringAlgorithm.html]]
    class "<size:14>LSDBC.Par\n<size:10>elki.clustering.dbscan" as elki.clustering.dbscan.LSDBC.Par<O extends NumberVector> [[LSDBC.Par.html]]

    elki.clustering.ClusteringAlgorithm <|.. elki.clustering.dbscan.LSDBC
    elki.clustering.dbscan.LSDBC +- - elki.clustering.dbscan.LSDBC.Par

    center footer UMLDoclet 2.0.19, PlantUML 1.2022.8
@enduml

PlantUML version 1.2022.8(Sun Sep 25 11:00:33 CEST 2022)
(APACHE source distribution)
Java Runtime: OpenJDK Runtime Environment
JVM: OpenJDK 64-Bit Server VM
Default Encoding: UTF-8
Language: de
Country: DE
--></g></svg>