<?xml version="1.0" encoding="UTF-8" standalone="no"?><svg xmlns="http://www.w3.org/2000/svg" xmlns:xlink="http://www.w3.org/1999/xlink" contentStyleType="text/css" height="69px" preserveAspectRatio="none" style="width:194px;height:69px;background:#FFFFFF;" version="1.1" viewBox="0 0 194 69" width="194px" zoomAndPan="magnify"><defs/><g><!--MD5=[ccdbdcce8d45d87c0185816cc1075fba]
class elki.distance.probabilistic.ChiDistance--><a href="ChiDistance.html" target="_top" title="ChiDistance.html" xlink:actuate="onRequest" xlink:href="ChiDistance.html" xlink:show="new" xlink:title="ChiDistance.html" xlink:type="simple"><g id="elem_elki.distance.probabilistic.ChiDistance"><rect codeLine="13" fill="#F1F1F1" height="37.9375" id="elki.distance.probabilistic.ChiDistance" rx="2.5" ry="2.5" style="stroke:#181818;stroke-width:0.5;" width="149" x="25.5" y="7"/><ellipse cx="40.5" cy="25.9688" fill="#ADD1B2" rx="11" ry="11" style="stroke:#181818;stroke-width:1.0;"/><path d="M43.4688,31.6094 Q42.8906,31.9063 42.25,32.0469 Q41.6094,32.2031 40.9063,32.2031 Q38.4063,32.2031 37.0781,30.5625 Q35.7656,28.9063 35.7656,25.7813 Q35.7656,22.6563 37.0781,21 Q38.4063,19.3438 40.9063,19.3438 Q41.6094,19.3438 42.25,19.5 Q42.9063,19.6563 43.4688,19.9531 L43.4688,22.6719 Q42.8438,22.0938 42.25,21.8281 Q41.6563,21.5469 41.0313,21.5469 Q39.6875,21.5469 39,22.625 Q38.3125,23.6875 38.3125,25.7813 Q38.3125,27.875 39,28.9531 Q39.6875,30.0156 41.0313,30.0156 Q41.6563,30.0156 42.25,29.75 Q42.8438,29.4688 43.4688,28.8906 L43.4688,31.6094 Z " fill="#000000"/><text fill="#000000" font-family="sans-serif" font-size="14" lengthAdjust="spacing" textLength="83" x="71.5" y="24.9951">ChiDistance</text><text fill="#000000" font-family="sans-serif" font-size="10" lengthAdjust="spacing" textLength="117" x="54.5" y="37.5791">elki.distance.probabilistic</text></g></a><rect fill="none" height="11.6406" style="stroke:none;stroke-width:1.0;" width="186" x="0" y="49.9375"/><text fill="#888888" font-family="sans-serif" font-size="10" lengthAdjust="spacing" textLength="186" x="0" y="59.2197">UMLDoclet 2.0.19, PlantUML 1.2022.8</text><!--MD5=[a1c6984d55cd200cbd46fc8f0259fbf6]
@startuml
    remove .*\.(Instance|Par|Parameterizer|Factory)$
    set namespaceSeparator none
    hide empty fields
    hide empty methods

    class "<size:14>ChiDistance.Par\n<size:10>elki.distance.probabilistic" as elki.distance.probabilistic.ChiDistance.Par [[ChiDistance.Par.html]] {
        +make(): ChiDistance
    }

    interface "<size:14>Parameterizer\n<size:10>elki.utilities.optionhandling" as elki.utilities.optionhandling.Parameterizer [[../../utilities/optionhandling/Parameterizer.html]] {
        {abstract} +make(): Object
    }
    class "<size:14>ChiDistance\n<size:10>elki.distance.probabilistic" as elki.distance.probabilistic.ChiDistance [[ChiDistance.html]]

    elki.utilities.optionhandling.Parameterizer <|.. elki.distance.probabilistic.ChiDistance.Par
    elki.distance.probabilistic.ChiDistance +- - elki.distance.probabilistic.ChiDistance.Par

    center footer UMLDoclet 2.0.19, PlantUML 1.2022.8
@enduml

PlantUML version 1.2022.8(Sun Sep 25 11:00:33 CEST 2022)
(APACHE source distribution)
Java Runtime: OpenJDK Runtime Environment
JVM: OpenJDK 64-Bit Server VM
Default Encoding: UTF-8
Language: de
Country: DE
--></g></svg>