<?xml version="1.0" encoding="UTF-8" standalone="no"?><svg xmlns="http://www.w3.org/2000/svg" xmlns:xlink="http://www.w3.org/1999/xlink" contentStyleType="text/css" height="69px" preserveAspectRatio="none" style="width:194px;height:69px;background:#FFFFFF;" version="1.1" viewBox="0 0 194 69" width="194px" zoomAndPan="magnify"><defs/><g><!--MD5=[c653fa581d1b7d6c35db3cb13351b3dd]
class elki.distance.probabilistic.TriangularDistance--><a href="TriangularDistance.html" target="_top" title="TriangularDistance.html" xlink:actuate="onRequest" xlink:href="TriangularDistance.html" xlink:show="new" xlink:title="TriangularDistance.html" xlink:type="simple"><g id="elem_elki.distance.probabilistic.TriangularDistance"><rect codeLine="13" fill="#F1F1F1" height="37.9375" id="elki.distance.probabilistic.TriangularDistance" rx="2.5" ry="2.5" style="stroke:#181818;stroke-width:0.5;" width="161" x="19.5" y="7"/><ellipse cx="34.5" cy="25.9688" fill="#ADD1B2" rx="11" ry="11" style="stroke:#181818;stroke-width:1.0;"/><path d="M37.4688,31.6094 Q36.8906,31.9063 36.25,32.0469 Q35.6094,32.2031 34.9063,32.2031 Q32.4063,32.2031 31.0781,30.5625 Q29.7656,28.9063 29.7656,25.7813 Q29.7656,22.6563 31.0781,21 Q32.4063,19.3438 34.9063,19.3438 Q35.6094,19.3438 36.25,19.5 Q36.9063,19.6563 37.4688,19.9531 L37.4688,22.6719 Q36.8438,22.0938 36.25,21.8281 Q35.6563,21.5469 35.0313,21.5469 Q33.6875,21.5469 33,22.625 Q32.3125,23.6875 32.3125,25.7813 Q32.3125,27.875 33,28.9531 Q33.6875,30.0156 35.0313,30.0156 Q35.6563,30.0156 36.25,29.75 Q36.8438,29.4688 37.4688,28.8906 L37.4688,31.6094 Z " fill="#000000"/><text fill="#000000" font-family="sans-serif" font-size="14" lengthAdjust="spacing" textLength="129" x="48.5" y="24.9951">TriangularDistance</text><text fill="#000000" font-family="sans-serif" font-size="10" lengthAdjust="spacing" textLength="117" x="54.5" y="37.5791">elki.distance.probabilistic</text></g></a><rect fill="none" height="11.6406" style="stroke:none;stroke-width:1.0;" width="186" x="0" y="49.9375"/><text fill="#888888" font-family="sans-serif" font-size="10" lengthAdjust="spacing" textLength="186" x="0" y="59.2197">UMLDoclet 2.0.19, PlantUML 1.2022.8</text><!--MD5=[4cc297399ee4d6c202452740f73492aa]
@startuml
    remove .*\.(Instance|Par|Parameterizer|Factory)$
    set namespaceSeparator none
    hide empty fields
    hide empty methods

    class "<size:14>TriangularDistance.Par\n<size:10>elki.distance.probabilistic" as elki.distance.probabilistic.TriangularDistance.Par [[TriangularDistance.Par.html]] {
        +make(): TriangularDistance
    }

    interface "<size:14>Parameterizer\n<size:10>elki.utilities.optionhandling" as elki.utilities.optionhandling.Parameterizer [[../../utilities/optionhandling/Parameterizer.html]] {
        {abstract} +make(): Object
    }
    class "<size:14>TriangularDistance\n<size:10>elki.distance.probabilistic" as elki.distance.probabilistic.TriangularDistance [[TriangularDistance.html]]

    elki.utilities.optionhandling.Parameterizer <|.. elki.distance.probabilistic.TriangularDistance.Par
    elki.distance.probabilistic.TriangularDistance +- - elki.distance.probabilistic.TriangularDistance.Par

    center footer UMLDoclet 2.0.19, PlantUML 1.2022.8
@enduml

PlantUML version 1.2022.8(Sun Sep 25 11:00:33 CEST 2022)
(APACHE source distribution)
Java Runtime: OpenJDK Runtime Environment
JVM: OpenJDK 64-Bit Server VM
Default Encoding: UTF-8
Language: de
Country: DE
--></g></svg>