<?xml version="1.0" encoding="UTF-8" standalone="no"?><svg xmlns="http://www.w3.org/2000/svg" xmlns:xlink="http://www.w3.org/1999/xlink" contentStyleType="text/css" height="317px" preserveAspectRatio="none" style="width:461px;height:317px;background:#FFFFFF;" version="1.1" viewBox="0 0 461 317" width="461px" zoomAndPan="magnify"><defs/><g><!--MD5=[729f665e57af8fa221b33c74fab1f960]
class elki.datasource.filter.normalization.columnwise.AttributeWiseMADNormalization--><a href="AttributeWiseMADNormalization.html" target="_top" title="AttributeWiseMADNormalization.html" xlink:actuate="onRequest" xlink:href="AttributeWiseMADNormalization.html" xlink:show="new" xlink:title="AttributeWiseMADNormalization.html" xlink:type="simple"><g id="elem_elki.datasource.filter.normalization.columnwise.AttributeWiseMADNormalization"><rect codeLine="6" fill="#F1F1F1" height="184.3125" id="elki.datasource.filter.normalization.columnwise.AttributeWiseMADNormalization" rx="2.5" ry="2.5" style="stroke:#181818;stroke-width:0.5;" width="441" x="9" y="108"/><ellipse cx="37.95" cy="126.9688" fill="#ADD1B2" rx="11" ry="11" style="stroke:#181818;stroke-width:1.0;"/><path d="M40.9188,132.6094 Q40.3406,132.9063 39.7,133.0469 Q39.0594,133.2031 38.3563,133.2031 Q35.8563,133.2031 34.5281,131.5625 Q33.2156,129.9063 33.2156,126.7813 Q33.2156,123.6563 34.5281,122 Q35.8563,120.3438 38.3563,120.3438 Q39.0594,120.3438 39.7,120.5 Q40.3563,120.6563 40.9188,120.9531 L40.9188,123.6719 Q40.2938,123.0938 39.7,122.8281 Q39.1063,122.5469 38.4813,122.5469 Q37.1375,122.5469 36.45,123.625 Q35.7625,124.6875 35.7625,126.7813 Q35.7625,128.875 36.45,129.9531 Q37.1375,131.0156 38.4813,131.0156 Q39.1063,131.0156 39.7,130.75 Q40.2938,130.4688 40.9188,129.8906 L40.9188,132.6094 Z " fill="#000000"/><text fill="#000000" font-family="sans-serif" font-size="14" lengthAdjust="spacing" textLength="217" x="58.55" y="125.9951">AttributeWiseMADNormalization</text><text fill="#000000" font-family="sans-serif" font-size="10" lengthAdjust="spacing" textLength="224" x="55.05" y="138.5791">elki.datasource.filter.normalization.columnwise</text><rect fill="#FFFFFF" height="15.9688" style="stroke:#181818;stroke-width:1.0;stroke-dasharray:2.0,2.0;" width="152" x="301" y="105"/><text fill="#000000" font-family="sans-serif" font-size="12" font-style="italic" lengthAdjust="spacing" textLength="150" x="302" y="117.1387">V extends NumberVector</text><line style="stroke:#181818;stroke-width:0.5;" x1="10" x2="449" y1="145.9375" y2="145.9375"/><rect fill="none" height="6" style="stroke:#C82930;stroke-width:1.0;" width="6" x="17" y="156.5859"/><text fill="#000000" font-family="sans-serif" font-size="14" lengthAdjust="spacing" text-decoration="underline" textLength="93" x="29" y="162.9326">LOG: Logging</text><polygon fill="none" points="20,170.8828,24,174.8828,20,178.8828,16,174.8828" style="stroke:#B38D22;stroke-width:1.0;"/><text fill="#000000" font-family="sans-serif" font-size="14" lengthAdjust="spacing" textLength="302" x="29" y="179.2295">factory: Factory&lt;V extends NumberVector&gt;</text><rect fill="none" height="6" style="stroke:#C82930;stroke-width:1.0;" width="6" x="17" y="189.1797"/><text fill="#000000" font-family="sans-serif" font-size="14" lengthAdjust="spacing" textLength="118" x="29" y="195.5264">median: double[]</text><rect fill="none" height="6" style="stroke:#C82930;stroke-width:1.0;" width="6" x="17" y="205.4766"/><text fill="#000000" font-family="sans-serif" font-size="14" lengthAdjust="spacing" textLength="141" x="29" y="211.8232">imadsigma: double[]</text><line style="stroke:#181818;stroke-width:0.5;" x1="10" x2="449" y1="219.125" y2="219.125"/><ellipse cx="20" cy="232.7734" fill="#84BE84" rx="3" ry="3" style="stroke:#038048;stroke-width:1.0;"/><text fill="#000000" font-family="sans-serif" font-size="14" lengthAdjust="spacing" textLength="358" x="29" y="236.1201">filter(MultipleObjectsBundle): MultipleObjectsBundle</text><ellipse cx="20" cy="249.0703" fill="#84BE84" rx="3" ry="3" style="stroke:#038048;stroke-width:1.0;"/><text fill="#000000" font-family="sans-serif" font-size="14" lengthAdjust="spacing" textLength="415" x="29" y="252.417">restore(V extends NumberVector): V extends NumberVector</text><rect fill="#F24D5C" height="6" style="stroke:#C82930;stroke-width:1.0;" width="6" x="17" y="262.3672"/><text fill="#000000" font-family="sans-serif" font-size="14" lengthAdjust="spacing" textLength="207" x="29" y="268.7139">normalize(int, double): double</text><rect fill="#F24D5C" height="6" style="stroke:#C82930;stroke-width:1.0;" width="6" x="17" y="278.6641"/><text fill="#000000" font-family="sans-serif" font-size="14" lengthAdjust="spacing" textLength="190" x="29" y="285.0107">restore(int, double): double</text></g></a><!--MD5=[bfddee1e6bb553d1301cd80d511f060f]
class elki.datasource.filter.normalization.Normalization--><a href="../Normalization.html" target="_top" title="../Normalization.html" xlink:actuate="onRequest" xlink:href="../Normalization.html" xlink:show="new" xlink:title="../Normalization.html" xlink:type="simple"><g id="elem_elki.datasource.filter.normalization.Normalization"><rect codeLine="17" fill="#F1F1F1" height="37.9375" id="elki.datasource.filter.normalization.Normalization" rx="2.5" ry="2.5" style="stroke:#181818;stroke-width:0.5;" width="360" x="49.5" y="10"/><ellipse cx="64.5" cy="28.9688" fill="#B4A7E5" rx="11" ry="11" style="stroke:#181818;stroke-width:1.0;"/><path d="M60.4219,24.7344 L60.4219,22.5781 L67.8125,22.5781 L67.8125,24.7344 L65.3438,24.7344 L65.3438,32.8125 L67.8125,32.8125 L67.8125,34.9688 L60.4219,34.9688 L60.4219,32.8125 L62.8906,32.8125 L62.8906,24.7344 L60.4219,24.7344 Z " fill="#000000"/><text fill="#000000" font-family="sans-serif" font-size="14" font-style="italic" lengthAdjust="spacing" textLength="99" x="116" y="27.9951">Normalization</text><text fill="#000000" font-family="sans-serif" font-size="10" font-style="italic" lengthAdjust="spacing" textLength="174" x="78.5" y="40.5791">elki.datasource.filter.normalization</text><rect fill="#FFFFFF" height="15.9688" style="stroke:#181818;stroke-width:1.0;stroke-dasharray:2.0,2.0;" width="152" x="260.5" y="7"/><text fill="#000000" font-family="sans-serif" font-size="12" font-style="italic" lengthAdjust="spacing" textLength="150" x="261.5" y="19.1387">V extends NumberVector</text></g></a><!--MD5=[0bfa270cf875aa0f68e499c04df26475]
reverse link elki.datasource.filter.normalization.Normalization to elki.datasource.filter.normalization.columnwise.AttributeWiseMADNormalization--><g id="link_elki.datasource.filter.normalization.Normalization_elki.datasource.filter.normalization.columnwise.AttributeWiseMADNormalization"><path codeLine="19" d="M229.5,68.42 C229.5,80.33 229.5,93.99 229.5,107.9 " fill="none" id="elki.datasource.filter.normalization.Normalization-backto-elki.datasource.filter.normalization.columnwise.AttributeWiseMADNormalization" style="stroke:#181818;stroke-width:1.0;stroke-dasharray:7.0,7.0;"/><polygon fill="none" points="222.5,68.09,229.5,48.09,236.5,68.09,222.5,68.09" style="stroke:#181818;stroke-width:1.0;"/></g><rect fill="none" height="11.6406" style="stroke:none;stroke-width:1.0;" width="186" x="130.5" y="298.3125"/><text fill="#888888" font-family="sans-serif" font-size="10" lengthAdjust="spacing" textLength="186" x="130.5" y="307.5947">UMLDoclet 2.0.19, PlantUML 1.2022.8</text><!--MD5=[62ece9cb49cb3974676fddf43a8222fb]
@startuml
    remove .*\.(Instance|Par|Parameterizer|Factory)$
    set namespaceSeparator none
    hide empty fields
    hide empty methods

    class "<size:14>AttributeWiseMADNormalization\n<size:10>elki.datasource.filter.normalization.columnwise" as elki.datasource.filter.normalization.columnwise.AttributeWiseMADNormalization<V extends NumberVector> [[AttributeWiseMADNormalization.html]] {
        {static} -LOG: Logging
        #factory: Factory<V extends NumberVector>
        -median: double[]
        -imadsigma: double[]
        +filter(MultipleObjectsBundle): MultipleObjectsBundle
        +restore(V extends NumberVector): V extends NumberVector
        -normalize(int, double): double
        -restore(int, double): double
    }

    interface "<size:14>Normalization\n<size:10>elki.datasource.filter.normalization" as elki.datasource.filter.normalization.Normalization<V extends NumberVector> [[../Normalization.html]]

    elki.datasource.filter.normalization.Normalization <|.. elki.datasource.filter.normalization.columnwise.AttributeWiseMADNormalization

    center footer UMLDoclet 2.0.19, PlantUML 1.2022.8
@enduml

PlantUML version 1.2022.8(Sun Sep 25 11:00:33 CEST 2022)
(APACHE source distribution)
Java Runtime: OpenJDK Runtime Environment
JVM: OpenJDK 64-Bit Server VM
Default Encoding: UTF-8
Language: de
Country: DE
--></g></svg>