<?xml version="1.0" encoding="UTF-8" standalone="no"?><svg xmlns="http://www.w3.org/2000/svg" xmlns:xlink="http://www.w3.org/1999/xlink" contentStyleType="text/css" height="414px" preserveAspectRatio="none" style="width:590px;height:414px;background:#FFFFFF;" version="1.1" viewBox="0 0 590 414" width="590px" zoomAndPan="magnify"><defs/><g><!--MD5=[6652dff0d345defb32155ee376d6e86c]
class elki.datasource.filter.normalization.columnwise.AttributeWiseCDFNormalization--><a href="AttributeWiseCDFNormalization.html" target="_top" title="AttributeWiseCDFNormalization.html" xlink:actuate="onRequest" xlink:href="AttributeWiseCDFNormalization.html" xlink:show="new" xlink:title="AttributeWiseCDFNormalization.html" xlink:type="simple"><g id="elem_elki.datasource.filter.normalization.columnwise.AttributeWiseCDFNormalization"><rect codeLine="6" fill="#F1F1F1" height="184.3125" id="elki.datasource.filter.normalization.columnwise.AttributeWiseCDFNormalization" rx="2.5" ry="2.5" style="stroke:#181818;stroke-width:0.5;" width="570" x="9" y="108"/><ellipse cx="100.75" cy="126.9688" fill="#ADD1B2" rx="11" ry="11" style="stroke:#181818;stroke-width:1.0;"/><path d="M103.7188,132.6094 Q103.1406,132.9063 102.5,133.0469 Q101.8594,133.2031 101.1563,133.2031 Q98.6563,133.2031 97.3281,131.5625 Q96.0156,129.9063 96.0156,126.7813 Q96.0156,123.6563 97.3281,122 Q98.6563,120.3438 101.1563,120.3438 Q101.8594,120.3438 102.5,120.5 Q103.1563,120.6563 103.7188,120.9531 L103.7188,123.6719 Q103.0938,123.0938 102.5,122.8281 Q101.9063,122.5469 101.2813,122.5469 Q99.9375,122.5469 99.25,123.625 Q98.5625,124.6875 98.5625,126.7813 Q98.5625,128.875 99.25,129.9531 Q99.9375,131.0156 101.2813,131.0156 Q101.9063,131.0156 102.5,130.75 Q103.0938,130.4688 103.7188,129.8906 L103.7188,132.6094 Z " fill="#000000"/><text fill="#000000" font-family="sans-serif" font-size="14" lengthAdjust="spacing" textLength="214" x="126.25" y="125.9951">AttributeWiseCDFNormalization</text><text fill="#000000" font-family="sans-serif" font-size="10" lengthAdjust="spacing" textLength="224" x="121.25" y="138.5791">elki.datasource.filter.normalization.columnwise</text><rect fill="#FFFFFF" height="15.9688" style="stroke:#181818;stroke-width:1.0;stroke-dasharray:2.0,2.0;" width="152" x="430" y="105"/><text fill="#000000" font-family="sans-serif" font-size="12" font-style="italic" lengthAdjust="spacing" textLength="150" x="431" y="117.1387">V extends NumberVector</text><line style="stroke:#181818;stroke-width:0.5;" x1="10" x2="578" y1="145.9375" y2="145.9375"/><rect fill="none" height="6" style="stroke:#C82930;stroke-width:1.0;" width="6" x="17" y="156.5859"/><text fill="#000000" font-family="sans-serif" font-size="14" lengthAdjust="spacing" text-decoration="underline" textLength="93" x="29" y="162.9326">LOG: Logging</text><polygon fill="none" points="20,170.8828,24,174.8828,20,178.8828,16,174.8828" style="stroke:#B38D22;stroke-width:1.0;"/><text fill="#000000" font-family="sans-serif" font-size="14" lengthAdjust="spacing" textLength="375" x="29" y="179.2295">estimators: List&lt;? extends DistributionEstimator&lt;?&gt;&gt;</text><polygon fill="none" points="20,187.1797,24,191.1797,20,195.1797,16,191.1797" style="stroke:#B38D22;stroke-width:1.0;"/><text fill="#000000" font-family="sans-serif" font-size="14" lengthAdjust="spacing" textLength="168" x="29" y="195.5264">dists: List&lt;Distribution&gt;</text><polygon fill="none" points="20,203.4766,24,207.4766,20,211.4766,16,207.4766" style="stroke:#B38D22;stroke-width:1.0;"/><text fill="#000000" font-family="sans-serif" font-size="14" lengthAdjust="spacing" textLength="302" x="29" y="211.8232">factory: Factory&lt;V extends NumberVector&gt;</text><line style="stroke:#181818;stroke-width:0.5;" x1="10" x2="578" y1="219.125" y2="219.125"/><ellipse cx="20" cy="232.7734" fill="#84BE84" rx="3" ry="3" style="stroke:#038048;stroke-width:1.0;"/><text fill="#000000" font-family="sans-serif" font-size="14" lengthAdjust="spacing" textLength="517" x="29" y="236.1201">AttributeWiseCDFNormalization(List&lt;? extends DistributionEstimator&lt;?&gt;&gt;)</text><ellipse cx="20" cy="249.0703" fill="#84BE84" rx="3" ry="3" style="stroke:#038048;stroke-width:1.0;"/><text fill="#000000" font-family="sans-serif" font-size="14" lengthAdjust="spacing" textLength="358" x="29" y="252.417">filter(MultipleObjectsBundle): MultipleObjectsBundle</text><polygon fill="#FFFF44" points="20,260.3672,24,264.3672,20,268.3672,16,264.3672" style="stroke:#B38D22;stroke-width:1.0;"/><text fill="#000000" font-family="sans-serif" font-size="14" lengthAdjust="spacing" textLength="544" x="29" y="268.7139">findBestFit(List&lt;V extends NumberVector&gt;, Adapter, int, double[]): Distribution</text><polygon fill="#FFFF44" points="20,276.6641,24,280.6641,20,284.6641,16,280.6641" style="stroke:#B38D22;stroke-width:1.0;"/><text fill="#000000" font-family="sans-serif" font-size="14" lengthAdjust="spacing" textLength="451" x="29" y="285.0107">constantZero(List&lt;V extends NumberVector&gt;, Adapter): boolean</text></g></a><!--MD5=[bfddee1e6bb553d1301cd80d511f060f]
class elki.datasource.filter.normalization.Normalization--><a href="../Normalization.html" target="_top" title="../Normalization.html" xlink:actuate="onRequest" xlink:href="../Normalization.html" xlink:show="new" xlink:title="../Normalization.html" xlink:type="simple"><g id="elem_elki.datasource.filter.normalization.Normalization"><rect codeLine="17" fill="#F1F1F1" height="37.9375" id="elki.datasource.filter.normalization.Normalization" rx="2.5" ry="2.5" style="stroke:#181818;stroke-width:0.5;" width="360" x="114" y="10"/><ellipse cx="129" cy="28.9688" fill="#B4A7E5" rx="11" ry="11" style="stroke:#181818;stroke-width:1.0;"/><path d="M124.9219,24.7344 L124.9219,22.5781 L132.3125,22.5781 L132.3125,24.7344 L129.8438,24.7344 L129.8438,32.8125 L132.3125,32.8125 L132.3125,34.9688 L124.9219,34.9688 L124.9219,32.8125 L127.3906,32.8125 L127.3906,24.7344 L124.9219,24.7344 Z " fill="#000000"/><text fill="#000000" font-family="sans-serif" font-size="14" font-style="italic" lengthAdjust="spacing" textLength="99" x="180.5" y="27.9951">Normalization</text><text fill="#000000" font-family="sans-serif" font-size="10" font-style="italic" lengthAdjust="spacing" textLength="174" x="143" y="40.5791">elki.datasource.filter.normalization</text><rect fill="#FFFFFF" height="15.9688" style="stroke:#181818;stroke-width:1.0;stroke-dasharray:2.0,2.0;" width="152" x="325" y="7"/><text fill="#000000" font-family="sans-serif" font-size="12" font-style="italic" lengthAdjust="spacing" textLength="150" x="326" y="19.1387">V extends NumberVector</text></g></a><!--MD5=[c45b35fbc53616bffd0c53b5598fc94e]
class elki.datasource.filter.normalization.columnwise.AttributeWiseCDFNormalization.Adapter--><g id="elem_elki.datasource.filter.normalization.columnwise.AttributeWiseCDFNormalization.Adapter"><rect codeLine="18" fill="#F1F1F1" height="37.9375" id="elki.datasource.filter.normalization.columnwise.AttributeWiseCDFNormalization.Adapter" rx="2.5" ry="2.5" style="stroke:#181818;stroke-width:0.5;" width="304" x="142" y="352"/><ellipse cx="157" cy="370.9688" fill="#ADD1B2" rx="11" ry="11" style="stroke:#181818;stroke-width:1.0;"/><path d="M159.9688,376.6094 Q159.3906,376.9063 158.75,377.0469 Q158.1094,377.2031 157.4063,377.2031 Q154.9063,377.2031 153.5781,375.5625 Q152.2656,373.9063 152.2656,370.7813 Q152.2656,367.6563 153.5781,366 Q154.9063,364.3438 157.4063,364.3438 Q158.1094,364.3438 158.75,364.5 Q159.4063,364.6563 159.9688,364.9531 L159.9688,367.6719 Q159.3438,367.0938 158.75,366.8281 Q158.1563,366.5469 157.5313,366.5469 Q156.1875,366.5469 155.5,367.625 Q154.8125,368.6875 154.8125,370.7813 Q154.8125,372.875 155.5,373.9531 Q156.1875,375.0156 157.5313,375.0156 Q158.1563,375.0156 158.75,374.75 Q159.3438,374.4688 159.9688,373.8906 L159.9688,376.6094 Z " fill="#000000"/><text fill="#000000" font-family="sans-serif" font-size="14" lengthAdjust="spacing" textLength="272" x="171" y="369.9951">AttributeWiseCDFNormalization.Adapter</text><text fill="#000000" font-family="sans-serif" font-size="10" lengthAdjust="spacing" textLength="224" x="195" y="382.5791">elki.datasource.filter.normalization.columnwise</text></g><!--MD5=[3b32cb2d2db56f3a1df7d54ee26c4e7d]
reverse link elki.datasource.filter.normalization.Normalization to elki.datasource.filter.normalization.columnwise.AttributeWiseCDFNormalization--><g id="link_elki.datasource.filter.normalization.Normalization_elki.datasource.filter.normalization.columnwise.AttributeWiseCDFNormalization"><path codeLine="21" d="M294,68.42 C294,80.33 294,93.99 294,107.9 " fill="none" id="elki.datasource.filter.normalization.Normalization-backto-elki.datasource.filter.normalization.columnwise.AttributeWiseCDFNormalization" style="stroke:#181818;stroke-width:1.0;stroke-dasharray:7.0,7.0;"/><polygon fill="none" points="287,68.09,294,48.09,301,68.09,287,68.09" style="stroke:#181818;stroke-width:1.0;"/></g><!--MD5=[df73f8718fbe24fc5a6f56b039a1992c]
reverse link elki.datasource.filter.normalization.columnwise.AttributeWiseCDFNormalization to elki.datasource.filter.normalization.columnwise.AttributeWiseCDFNormalization.Adapter--><g id="link_elki.datasource.filter.normalization.columnwise.AttributeWiseCDFNormalization_elki.datasource.filter.normalization.columnwise.AttributeWiseCDFNormalization.Adapter"><path codeLine="22" d="M294,307.68 C294,324.75 294,340.51 294,351.92 " fill="none" id="elki.datasource.filter.normalization.columnwise.AttributeWiseCDFNormalization-backto-elki.datasource.filter.normalization.columnwise.AttributeWiseCDFNormalization.Adapter" style="stroke:#181818;stroke-width:1.0;"/><ellipse cx="294" cy="300.42" fill="#FFFFFF" rx="8" ry="8" style="stroke:#181818;stroke-width:1.0;"/><line style="stroke:#181818;stroke-width:1.0;" x1="294" x2="294" y1="308.42" y2="292.42"/><line style="stroke:#181818;stroke-width:1.0;" x1="286" x2="302" y1="300.42" y2="300.42"/></g><rect fill="none" height="11.6406" style="stroke:none;stroke-width:1.0;" width="186" x="195" y="394.9375"/><text fill="#888888" font-family="sans-serif" font-size="10" lengthAdjust="spacing" textLength="186" x="195" y="404.2197">UMLDoclet 2.0.19, PlantUML 1.2022.8</text><!--MD5=[fb3a325312318073b8adaa11c4871cb3]
@startuml
    remove .*\.(Instance|Par|Parameterizer|Factory)$
    set namespaceSeparator none
    hide empty fields
    hide empty methods

    class "<size:14>AttributeWiseCDFNormalization\n<size:10>elki.datasource.filter.normalization.columnwise" as elki.datasource.filter.normalization.columnwise.AttributeWiseCDFNormalization<V extends NumberVector> [[AttributeWiseCDFNormalization.html]] {
        {static} -LOG: Logging
        #estimators: List<? extends DistributionEstimator<?>>
        #dists: List<Distribution>
        #factory: Factory<V extends NumberVector>
        +AttributeWiseCDFNormalization(List<? extends DistributionEstimator<?>>)
        +filter(MultipleObjectsBundle): MultipleObjectsBundle
        #findBestFit(List<V extends NumberVector>, Adapter, int, double[]): Distribution
        #constantZero(List<V extends NumberVector>, Adapter): boolean
    }

    interface "<size:14>Normalization\n<size:10>elki.datasource.filter.normalization" as elki.datasource.filter.normalization.Normalization<V extends NumberVector> [[../Normalization.html]]
    class "<size:14>AttributeWiseCDFNormalization.Adapter\n<size:10>elki.datasource.filter.normalization.columnwise" as elki.datasource.filter.normalization.columnwise.AttributeWiseCDFNormalization.Adapter
    class "<size:14>AttributeWiseCDFNormalization.Par\n<size:10>elki.datasource.filter.normalization.columnwise" as elki.datasource.filter.normalization.columnwise.AttributeWiseCDFNormalization.Par<V extends NumberVector> [[AttributeWiseCDFNormalization.Par.html]]

    elki.datasource.filter.normalization.Normalization <|.. elki.datasource.filter.normalization.columnwise.AttributeWiseCDFNormalization
    elki.datasource.filter.normalization.columnwise.AttributeWiseCDFNormalization +- - elki.datasource.filter.normalization.columnwise.AttributeWiseCDFNormalization.Adapter
    elki.datasource.filter.normalization.columnwise.AttributeWiseCDFNormalization +- - elki.datasource.filter.normalization.columnwise.AttributeWiseCDFNormalization.Par

    center footer UMLDoclet 2.0.19, PlantUML 1.2022.8
@enduml

PlantUML version 1.2022.8(Sun Sep 25 11:00:33 CEST 2022)
(APACHE source distribution)
Java Runtime: OpenJDK Runtime Environment
JVM: OpenJDK 64-Bit Server VM
Default Encoding: UTF-8
Language: de
Country: DE
--></g></svg>