<?xml version="1.0" encoding="UTF-8" standalone="no"?><svg xmlns="http://www.w3.org/2000/svg" xmlns:xlink="http://www.w3.org/1999/xlink" contentStyleType="text/css" height="367px" preserveAspectRatio="none" style="width:1266px;height:367px;background:#FFFFFF;" version="1.1" viewBox="0 0 1266 367" width="1266px" zoomAndPan="magnify"><defs/><g><!--MD5=[d2aef81931abdc097bf6f7bfb1f70428]
cluster elki.outlier.distance.parallel--><g id="cluster_elki.outlier.distance.parallel"><path d="M8.5,162 L226.5,162 A3.75,3.75 0 0 1 229,164.5 L236,184.2969 L1256.5,184.2969 A2.5,2.5 0 0 1 1259,186.7969 L1259,339.5 A2.5,2.5 0 0 1 1256.5,342 L8.5,342 A2.5,2.5 0 0 1 6,339.5 L6,164.5 A2.5,2.5 0 0 1 8.5,162 " fill="none" style="stroke:#000000;stroke-width:1.5;"/><line style="stroke:#000000;stroke-width:1.5;" x1="6" x2="236" y1="184.2969" y2="184.2969"/><text fill="#000000" font-family="sans-serif" font-size="14" font-weight="bold" lengthAdjust="spacing" textLength="217" x="10" y="176.9951">elki.outlier.distance.parallel</text></g><!--MD5=[818c9b6dcb677b5c637864e1a2fd25ae]
cluster elki.parallel.processor--><g id="cluster_elki.parallel.processor"><path d="M104.5,6 L280.5,6 A3.75,3.75 0 0 1 283,8.5 L290,28.2969 L373.5,28.2969 A2.5,2.5 0 0 1 376,30.7969 L376,135.5 A2.5,2.5 0 0 1 373.5,138 L104.5,138 A2.5,2.5 0 0 1 102,135.5 L102,8.5 A2.5,2.5 0 0 1 104.5,6 " fill="none" style="stroke:#000000;stroke-width:1.5;"/><line style="stroke:#000000;stroke-width:1.5;" x1="102" x2="290" y1="28.2969" y2="28.2969"/><text fill="#000000" font-family="sans-serif" font-size="14" font-weight="bold" lengthAdjust="spacing" textLength="175" x="106" y="20.9951">elki.parallel.processor</text></g><!--MD5=[f3ad7c6249ed4f07ffda096754b241b1]
cluster elki.outlier--><g id="cluster_elki.outlier"><path d="M738.5,14.5 L822.5,14.5 A3.75,3.75 0 0 1 825,17 L832,36.7969 L1019.5,36.7969 A2.5,2.5 0 0 1 1022,39.2969 L1022,127 A2.5,2.5 0 0 1 1019.5,129.5 L738.5,129.5 A2.5,2.5 0 0 1 736,127 L736,17 A2.5,2.5 0 0 1 738.5,14.5 " fill="none" style="stroke:#000000;stroke-width:1.5;"/><line style="stroke:#000000;stroke-width:1.5;" x1="736" x2="832" y1="36.7969" y2="36.7969"/><text fill="#000000" font-family="sans-serif" font-size="14" font-weight="bold" lengthAdjust="spacing" textLength="83" x="740" y="29.4951">elki.outlier</text></g><!--MD5=[683738f770a053cb8da4675a6a0508de]
class elki.outlier.distance.parallel.KNNWeightProcessor--><a href="KNNWeightProcessor.html" target="_top" title="KNNWeightProcessor.html" xlink:actuate="onRequest" xlink:href="KNNWeightProcessor.html" xlink:show="new" xlink:title="KNNWeightProcessor.html" xlink:type="simple"><g id="elem_elki.outlier.distance.parallel.KNNWeightProcessor"><rect codeLine="4" fill="#F1F1F1" height="129.4844" id="elki.outlier.distance.parallel.KNNWeightProcessor" rx="2.5" ry="2.5" style="stroke:#181818;stroke-width:0.5;" width="435" x="21.5" y="197"/><ellipse cx="161.25" cy="213" fill="#ADD1B2" rx="11" ry="11" style="stroke:#181818;stroke-width:1.0;"/><path d="M164.2188,218.6406 Q163.6406,218.9375 163,219.0781 Q162.3594,219.2344 161.6563,219.2344 Q159.1563,219.2344 157.8281,217.5938 Q156.5156,215.9375 156.5156,212.8125 Q156.5156,209.6875 157.8281,208.0313 Q159.1563,206.375 161.6563,206.375 Q162.3594,206.375 163,206.5313 Q163.6563,206.6875 164.2188,206.9844 L164.2188,209.7031 Q163.5938,209.125 163,208.8594 Q162.4063,208.5781 161.7813,208.5781 Q160.4375,208.5781 159.75,209.6563 Q159.0625,210.7188 159.0625,212.8125 Q159.0625,214.9063 159.75,215.9844 Q160.4375,217.0469 161.7813,217.0469 Q162.4063,217.0469 163,216.7813 Q163.5938,216.5 164.2188,215.9219 L164.2188,218.6406 Z " fill="#000000"/><text fill="#000000" font-family="sans-serif" font-size="14" lengthAdjust="spacing" textLength="147" x="181.75" y="217.8467">KNNWeightProcessor</text><line style="stroke:#181818;stroke-width:0.5;" x1="22.5" x2="455.5" y1="229" y2="229"/><polygon fill="none" points="32.5,238.6484,28.5,244.6484,36.5,244.6484" style="stroke:#1963A0;stroke-width:1.0;"/><text fill="#000000" font-family="sans-serif" font-size="14" lengthAdjust="spacing" textLength="34" x="41.5" y="245.9951">k: int</text><polygon fill="none" points="32.5,254.9453,28.5,260.9453,36.5,260.9453" style="stroke:#1963A0;stroke-width:1.0;"/><text fill="#000000" font-family="sans-serif" font-size="14" lengthAdjust="spacing" textLength="285" x="41.5" y="262.292">input: SharedObject&lt;? extends KNNList&gt;</text><line style="stroke:#181818;stroke-width:0.5;" x1="22.5" x2="455.5" y1="269.5938" y2="269.5938"/><ellipse cx="32.5" cy="283.2422" fill="#84BE84" rx="3" ry="3" style="stroke:#038048;stroke-width:1.0;"/><text fill="#000000" font-family="sans-serif" font-size="14" lengthAdjust="spacing" textLength="174" x="41.5" y="286.5889">KNNWeightProcessor(int)</text><ellipse cx="32.5" cy="299.5391" fill="#84BE84" rx="3" ry="3" style="stroke:#038048;stroke-width:1.0;"/><text fill="#000000" font-family="sans-serif" font-size="14" lengthAdjust="spacing" textLength="409" x="41.5" y="302.8857">connectKNNInput(SharedObject&lt;? extends KNNList&gt;): void</text><ellipse cx="32.5" cy="315.8359" fill="#84BE84" rx="3" ry="3" style="stroke:#038048;stroke-width:1.0;"/><text fill="#000000" font-family="sans-serif" font-size="14" lengthAdjust="spacing" textLength="211" x="41.5" y="319.1826">instantiate(Executor): Instance</text></g></a><!--MD5=[98aed00438c4c76b5db7a58e5d4baaff]
class elki.outlier.distance.parallel.ParallelKNNWeightOutlier--><a href="ParallelKNNWeightOutlier.html" target="_top" title="ParallelKNNWeightOutlier.html" xlink:actuate="onRequest" xlink:href="ParallelKNNWeightOutlier.html" xlink:show="new" xlink:title="ParallelKNNWeightOutlier.html" xlink:type="simple"><g id="elem_elki.outlier.distance.parallel.ParallelKNNWeightOutlier"><rect codeLine="19" fill="#F1F1F1" height="129.4844" id="elki.outlier.distance.parallel.ParallelKNNWeightOutlier" rx="2.5" ry="2.5" style="stroke:#181818;stroke-width:0.5;" width="382" x="492" y="197"/><ellipse cx="587.75" cy="213" fill="#ADD1B2" rx="11" ry="11" style="stroke:#181818;stroke-width:1.0;"/><path d="M590.7188,218.6406 Q590.1406,218.9375 589.5,219.0781 Q588.8594,219.2344 588.1563,219.2344 Q585.6563,219.2344 584.3281,217.5938 Q583.0156,215.9375 583.0156,212.8125 Q583.0156,209.6875 584.3281,208.0313 Q585.6563,206.375 588.1563,206.375 Q588.8594,206.375 589.5,206.5313 Q590.1563,206.6875 590.7188,206.9844 L590.7188,209.7031 Q590.0938,209.125 589.5,208.8594 Q588.9063,208.5781 588.2813,208.5781 Q586.9375,208.5781 586.25,209.6563 Q585.5625,210.7188 585.5625,212.8125 Q585.5625,214.9063 586.25,215.9844 Q586.9375,217.0469 588.2813,217.0469 Q588.9063,217.0469 589.5,216.7813 Q590.0938,216.5 590.7188,215.9219 L590.7188,218.6406 Z " fill="#000000"/><text fill="#000000" font-family="sans-serif" font-size="14" lengthAdjust="spacing" textLength="170" x="608.25" y="217.8467">ParallelKNNWeightOutlier</text><rect fill="#FFFFFF" height="15.9688" style="stroke:#181818;stroke-width:1.0;stroke-dasharray:2.0,2.0;" width="10" x="867" y="194"/><text fill="#000000" font-family="sans-serif" font-size="12" font-style="italic" lengthAdjust="spacing" textLength="8" x="868" y="206.1387">O</text><line style="stroke:#181818;stroke-width:0.5;" x1="493" x2="873" y1="229" y2="229"/><polygon fill="none" points="503,237.6484,507,241.6484,503,245.6484,499,241.6484" style="stroke:#B38D22;stroke-width:1.0;"/><text fill="#000000" font-family="sans-serif" font-size="14" lengthAdjust="spacing" textLength="219" x="512" y="245.9951">distance: Distance&lt;? super O&gt;</text><polygon fill="none" points="503,253.9453,507,257.9453,503,261.9453,499,257.9453" style="stroke:#B38D22;stroke-width:1.0;"/><text fill="#000000" font-family="sans-serif" font-size="14" lengthAdjust="spacing" textLength="63" x="512" y="262.292">kplus: int</text><line style="stroke:#181818;stroke-width:0.5;" x1="493" x2="873" y1="269.5938" y2="269.5938"/><ellipse cx="503" cy="283.2422" fill="#84BE84" rx="3" ry="3" style="stroke:#038048;stroke-width:1.0;"/><text fill="#000000" font-family="sans-serif" font-size="14" lengthAdjust="spacing" textLength="356" x="512" y="286.5889">ParallelKNNWeightOutlier(Distance&lt;? super O&gt;, int)</text><ellipse cx="503" cy="299.5391" fill="#84BE84" rx="3" ry="3" style="stroke:#038048;stroke-width:1.0;"/><text fill="#000000" font-family="sans-serif" font-size="14" lengthAdjust="spacing" textLength="306" x="512" y="302.8857">getInputTypeRestriction(): TypeInformation[]</text><ellipse cx="503" cy="315.8359" fill="#84BE84" rx="3" ry="3" style="stroke:#038048;stroke-width:1.0;"/><text fill="#000000" font-family="sans-serif" font-size="14" lengthAdjust="spacing" textLength="222" x="512" y="319.1826">run(Relation&lt;O&gt;): OutlierResult</text></g></a><!--MD5=[18cb536763df5211174414cb690bd41e]
class elki.outlier.distance.parallel.ParallelKNNOutlier--><a href="ParallelKNNOutlier.html" target="_top" title="ParallelKNNOutlier.html" xlink:actuate="onRequest" xlink:href="ParallelKNNOutlier.html" xlink:show="new" xlink:title="ParallelKNNOutlier.html" xlink:type="simple"><g id="elem_elki.outlier.distance.parallel.ParallelKNNOutlier"><rect codeLine="34" fill="#F1F1F1" height="129.4844" id="elki.outlier.distance.parallel.ParallelKNNOutlier" rx="2.5" ry="2.5" style="stroke:#181818;stroke-width:0.5;" width="334" x="909" y="197"/><ellipse cx="1004.75" cy="213" fill="#ADD1B2" rx="11" ry="11" style="stroke:#181818;stroke-width:1.0;"/><path d="M1007.7188,218.6406 Q1007.1406,218.9375 1006.5,219.0781 Q1005.8594,219.2344 1005.1563,219.2344 Q1002.6563,219.2344 1001.3281,217.5938 Q1000.0156,215.9375 1000.0156,212.8125 Q1000.0156,209.6875 1001.3281,208.0313 Q1002.6563,206.375 1005.1563,206.375 Q1005.8594,206.375 1006.5,206.5313 Q1007.1563,206.6875 1007.7188,206.9844 L1007.7188,209.7031 Q1007.0938,209.125 1006.5,208.8594 Q1005.9063,208.5781 1005.2813,208.5781 Q1003.9375,208.5781 1003.25,209.6563 Q1002.5625,210.7188 1002.5625,212.8125 Q1002.5625,214.9063 1003.25,215.9844 Q1003.9375,217.0469 1005.2813,217.0469 Q1005.9063,217.0469 1006.5,216.7813 Q1007.0938,216.5 1007.7188,215.9219 L1007.7188,218.6406 Z " fill="#000000"/><text fill="#000000" font-family="sans-serif" font-size="14" lengthAdjust="spacing" textLength="122" x="1025.25" y="217.8467">ParallelKNNOutlier</text><rect fill="#FFFFFF" height="15.9688" style="stroke:#181818;stroke-width:1.0;stroke-dasharray:2.0,2.0;" width="10" x="1236" y="194"/><text fill="#000000" font-family="sans-serif" font-size="12" font-style="italic" lengthAdjust="spacing" textLength="8" x="1237" y="206.1387">O</text><line style="stroke:#181818;stroke-width:0.5;" x1="910" x2="1242" y1="229" y2="229"/><polygon fill="none" points="920,237.6484,924,241.6484,920,245.6484,916,241.6484" style="stroke:#B38D22;stroke-width:1.0;"/><text fill="#000000" font-family="sans-serif" font-size="14" lengthAdjust="spacing" textLength="219" x="929" y="245.9951">distance: Distance&lt;? super O&gt;</text><polygon fill="none" points="920,253.9453,924,257.9453,920,261.9453,916,257.9453" style="stroke:#B38D22;stroke-width:1.0;"/><text fill="#000000" font-family="sans-serif" font-size="14" lengthAdjust="spacing" textLength="63" x="929" y="262.292">kplus: int</text><line style="stroke:#181818;stroke-width:0.5;" x1="910" x2="1242" y1="269.5938" y2="269.5938"/><ellipse cx="920" cy="283.2422" fill="#84BE84" rx="3" ry="3" style="stroke:#038048;stroke-width:1.0;"/><text fill="#000000" font-family="sans-serif" font-size="14" lengthAdjust="spacing" textLength="308" x="929" y="286.5889">ParallelKNNOutlier(Distance&lt;? super O&gt;, int)</text><ellipse cx="920" cy="299.5391" fill="#84BE84" rx="3" ry="3" style="stroke:#038048;stroke-width:1.0;"/><text fill="#000000" font-family="sans-serif" font-size="14" lengthAdjust="spacing" textLength="306" x="929" y="302.8857">getInputTypeRestriction(): TypeInformation[]</text><ellipse cx="920" cy="315.8359" fill="#84BE84" rx="3" ry="3" style="stroke:#038048;stroke-width:1.0;"/><text fill="#000000" font-family="sans-serif" font-size="14" lengthAdjust="spacing" textLength="222" x="929" y="319.1826">run(Relation&lt;O&gt;): OutlierResult</text></g></a><!--MD5=[a036fe86152ba8fe97cb74b572509015]
class elki.parallel.processor.AbstractDoubleProcessor--><a href="../../../parallel/processor/AbstractDoubleProcessor.html" target="_top" title="../../../parallel/processor/AbstractDoubleProcessor.html" xlink:actuate="onRequest" xlink:href="../../../parallel/processor/AbstractDoubleProcessor.html" xlink:show="new" xlink:title="../../../parallel/processor/AbstractDoubleProcessor.html" xlink:type="simple"><g id="elem_elki.parallel.processor.AbstractDoubleProcessor"><rect codeLine="61" fill="#F1F1F1" height="80.5938" id="elki.parallel.processor.AbstractDoubleProcessor" rx="2.5" ry="2.5" style="stroke:#181818;stroke-width:0.5;" width="242" x="118" y="41"/><ellipse cx="148.3" cy="57" fill="#A9DCDF" rx="11" ry="11" style="stroke:#181818;stroke-width:1.0;"/><path d="M148.4094,52.3438 L147.2531,57.4219 L149.5813,57.4219 L148.4094,52.3438 Z M146.925,50.1094 L149.9094,50.1094 L153.2688,62.5 L150.8156,62.5 L150.05,59.4375 L146.7688,59.4375 L146.0188,62.5 L143.5813,62.5 L146.925,50.1094 Z " fill="#000000"/><text fill="#000000" font-family="sans-serif" font-size="14" font-style="italic" lengthAdjust="spacing" textLength="176" x="165.7" y="61.8467">AbstractDoubleProcessor</text><line style="stroke:#181818;stroke-width:0.5;" x1="119" x2="359" y1="73" y2="73"/><polygon fill="none" points="129,81.6484,133,85.6484,129,89.6484,125,85.6484" style="stroke:#B38D22;stroke-width:1.0;"/><text fill="#000000" font-family="sans-serif" font-size="14" lengthAdjust="spacing" textLength="154" x="138" y="89.9951">output: SharedDouble</text><line style="stroke:#181818;stroke-width:0.5;" x1="119" x2="359" y1="97.2969" y2="97.2969"/><ellipse cx="129" cy="110.9453" fill="#84BE84" rx="3" ry="3" style="stroke:#038048;stroke-width:1.0;"/><text fill="#000000" font-family="sans-serif" font-size="14" font-style="italic" lengthAdjust="spacing" textLength="216" x="138" y="114.292">instantiate(Executor): Instance</text></g></a><!--MD5=[81019799438b1b9471ca37184b444d57]
class elki.outlier.OutlierAlgorithm--><a href="../../OutlierAlgorithm.html" target="_top" title="../../OutlierAlgorithm.html" xlink:actuate="onRequest" xlink:href="../../OutlierAlgorithm.html" xlink:show="new" xlink:title="../../OutlierAlgorithm.html" xlink:type="simple"><g id="elem_elki.outlier.OutlierAlgorithm"><rect codeLine="72" fill="#F1F1F1" height="64.2969" id="elki.outlier.OutlierAlgorithm" rx="2.5" ry="2.5" style="stroke:#181818;stroke-width:0.5;" width="254" x="752" y="49.5"/><ellipse cx="816.75" cy="65.5" fill="#B4A7E5" rx="11" ry="11" style="stroke:#181818;stroke-width:1.0;"/><path d="M812.6719,61.2656 L812.6719,59.1094 L820.0625,59.1094 L820.0625,61.2656 L817.5938,61.2656 L817.5938,69.3438 L820.0625,69.3438 L820.0625,71.5 L812.6719,71.5 L812.6719,69.3438 L815.1406,69.3438 L815.1406,61.2656 L812.6719,61.2656 Z " fill="#000000"/><text fill="#000000" font-family="sans-serif" font-size="14" font-style="italic" lengthAdjust="spacing" textLength="116" x="837.25" y="70.3467">OutlierAlgorithm</text><line style="stroke:#181818;stroke-width:0.5;" x1="753" x2="1005" y1="81.5" y2="81.5"/><line style="stroke:#181818;stroke-width:0.5;" x1="753" x2="1005" y1="89.5" y2="89.5"/><ellipse cx="763" cy="103.1484" fill="#84BE84" rx="3" ry="3" style="stroke:#038048;stroke-width:1.0;"/><text fill="#000000" font-family="sans-serif" font-size="14" lengthAdjust="spacing" textLength="228" x="772" y="106.4951">autorun(Database): OutlierResult</text></g></a><!--MD5=[2107364e5cd1bfa545757779266112bb]
reverse link elki.parallel.processor.AbstractDoubleProcessor to elki.outlier.distance.parallel.KNNWeightProcessor--><g id="link_elki.parallel.processor.AbstractDoubleProcessor_elki.outlier.distance.parallel.KNNWeightProcessor"><path codeLine="49" d="M239,142.08 C239,159.73 239,179.11 239,196.99 " fill="none" id="elki.parallel.processor.AbstractDoubleProcessor-backto-elki.outlier.distance.parallel.KNNWeightProcessor" style="stroke:#181818;stroke-width:1.0;"/><polygon fill="none" points="232,142,239,122,246,142,232,142" style="stroke:#181818;stroke-width:1.0;"/></g><!--MD5=[ec528b3a2808d16ec26b521923e51c68]
reverse link elki.outlier.OutlierAlgorithm to elki.outlier.distance.parallel.ParallelKNNWeightOutlier--><g id="link_elki.outlier.OutlierAlgorithm_elki.outlier.distance.parallel.ParallelKNNWeightOutlier"><path codeLine="52" d="M830.04,126.96 C806.84,148.04 778.69,173.6 753.26,196.69 " fill="none" id="elki.outlier.OutlierAlgorithm-backto-elki.outlier.distance.parallel.ParallelKNNWeightOutlier" style="stroke:#181818;stroke-width:1.0;stroke-dasharray:7.0,7.0;"/><polygon fill="none" points="825.35,121.77,844.86,113.51,834.76,132.13,825.35,121.77" style="stroke:#181818;stroke-width:1.0;"/></g><!--MD5=[30ff1b41a439ec218d84b11fbba8f758]
reverse link elki.outlier.OutlierAlgorithm to elki.outlier.distance.parallel.ParallelKNNOutlier--><g id="link_elki.outlier.OutlierAlgorithm_elki.outlier.distance.parallel.ParallelKNNOutlier"><path codeLine="55" d="M928.21,126.96 C951.53,148.04 979.82,173.6 1005.38,196.69 " fill="none" id="elki.outlier.OutlierAlgorithm-backto-elki.outlier.distance.parallel.ParallelKNNOutlier" style="stroke:#181818;stroke-width:1.0;stroke-dasharray:7.0,7.0;"/><polygon fill="none" points="923.46,132.11,913.31,113.51,932.85,121.72,923.46,132.11" style="stroke:#181818;stroke-width:1.0;"/></g><rect fill="none" height="11.6406" style="stroke:none;stroke-width:1.0;" width="186" x="533" y="348"/><text fill="#888888" font-family="sans-serif" font-size="10" lengthAdjust="spacing" textLength="186" x="533" y="357.2822">UMLDoclet 2.0.19, PlantUML 1.2022.8</text><!--MD5=[20027d19c59c842527a3d23d0d231cb2]
@startuml
    remove .*\.(Instance|Par|Parameterizer|Factory)$
    namespace elki.outlier.distance.parallel {

        class KNNWeightProcessor [[KNNWeightProcessor.html]] {
            ~k: int
            ~input: SharedObject<? extends KNNList>
            +KNNWeightProcessor(int)
            +connectKNNInput(SharedObject<? extends KNNList>): void
            +instantiate(Executor): Instance
        }

        class elki.outlier.distance.parallel.KNNWeightProcessor.Instance [[KNNWeightProcessor.Instance.html]] {
            ~k: int
            ~input: Instance<? extends KNNList>
            #Instance(int, Instance<? extends KNNList>, Instance)
            +map(DBIDRef): void
        }

        class ParallelKNNWeightOutlier<O> [[ParallelKNNWeightOutlier.html]] {
            #distance: Distance<? super O>
            #kplus: int
            +ParallelKNNWeightOutlier(Distance<? super O>, int)
            +getInputTypeRestriction(): TypeInformation[]
            +run(Relation<O>): OutlierResult
        }

        class elki.outlier.distance.parallel.ParallelKNNWeightOutlier.Par<O> {
            #distance: Distance<? super O>
            #k: int
            +configure(Parameterization): void
            +make(): ParallelKNNWeightOutlier<O>
        }

        class ParallelKNNOutlier<O> [[ParallelKNNOutlier.html]] {
            #distance: Distance<? super O>
            #kplus: int
            +ParallelKNNOutlier(Distance<? super O>, int)
            +getInputTypeRestriction(): TypeInformation[]
            +run(Relation<O>): OutlierResult
        }

        class elki.outlier.distance.parallel.ParallelKNNOutlier.Par<O> {
            #distance: Distance<? super O>
            #k: int
            +configure(Parameterization): void
            +make(): ParallelKNNOutlier<O>
        }

        elki.parallel.processor.AbstractDoubleProcessor <|- - KNNWeightProcessor
        elki.parallel.processor.AbstractDoubleProcessor.Instance <|- - elki.outlier.distance.parallel.KNNWeightProcessor.Instance
        KNNWeightProcessor +- - elki.outlier.distance.parallel.KNNWeightProcessor.Instance
        elki.outlier.OutlierAlgorithm <|.. ParallelKNNWeightOutlier
        elki.utilities.optionhandling.Parameterizer <|.. elki.outlier.distance.parallel.ParallelKNNWeightOutlier.Par
        ParallelKNNWeightOutlier +- - elki.outlier.distance.parallel.ParallelKNNWeightOutlier.Par
        elki.outlier.OutlierAlgorithm <|.. ParallelKNNOutlier
        elki.utilities.optionhandling.Parameterizer <|.. elki.outlier.distance.parallel.ParallelKNNOutlier.Par
        ParallelKNNOutlier +- - elki.outlier.distance.parallel.ParallelKNNOutlier.Par
    }

    namespace elki.parallel.processor {
        abstract class AbstractDoubleProcessor [[../../../parallel/processor/AbstractDoubleProcessor.html]] {
            #output: SharedDouble
            {abstract} +instantiate(Executor): Instance
        }
        abstract class elki.parallel.processor.AbstractDoubleProcessor.Instance [[../../../parallel/processor/AbstractDoubleProcessor.Instance.html]] {
            #output: Instance
            {abstract} +map(DBIDRef): void
        }
    }

    namespace elki.outlier {
        interface OutlierAlgorithm [[../../OutlierAlgorithm.html]] {
            +autorun(Database): OutlierResult
        }
    }

    namespace elki.utilities.optionhandling {
        interface Parameterizer [[../../../utilities/optionhandling/Parameterizer.html]] {
            +configure(Parameterization): void
            {abstract} +make(): Object
        }
    }

    center footer UMLDoclet 2.0.19, PlantUML 1.2022.8
@enduml

PlantUML version 1.2022.8(Sun Sep 25 11:00:33 CEST 2022)
(APACHE source distribution)
Java Runtime: OpenJDK Runtime Environment
JVM: OpenJDK 64-Bit Server VM
Default Encoding: UTF-8
Language: de
Country: DE
--></g></svg>