<?xml version="1.0" encoding="UTF-8" standalone="no"?>
<!DOCTYPE svg PUBLIC "-//W3C//DTD SVG 1.1//EN"
 "http://www.w3.org/Graphics/SVG/1.1/DTD/svg11.dtd">
<!-- Generated by graphviz version 2.40.1 (20161225.0304)
 -->
<!-- Title: G Pages: 1 -->
<svg width="318pt" height="42pt"
 viewBox="0.00 0.00 318.00 42.21" xmlns="http://www.w3.org/2000/svg" xmlns:xlink="http://www.w3.org/1999/xlink">
<g id="graph0" class="graph" transform="scale(1 1) rotate(0) translate(4 38.2108)">
<title>G</title>
<polygon fill="#ffffff" stroke="transparent" points="-4,4 -4,-38.2108 314,-38.2108 314,4 -4,4"/>
<!-- c6926936 -->
<g id="node1" class="node">
<title>c6926936</title>
<g id="a_node1"><a xlink:href="MiniGUI.html" xlink:title="&lt;TABLE&gt;">
<g id="a_node1_0"><a xlink:href="MiniGUI.html" xlink:title="de.lmu.ifi.dbs.elki.gui.minigui.MiniGUI" target="_parent">
<polygon fill="none" stroke="#000000" points=".5,-11.2108 .5,-28.2108 45.5,-28.2108 45.5,-11.2108 .5,-11.2108"/>
<text text-anchor="start" x="4.5" y="-18.8108" font-family="Roboto" font-size="8.00" fill="#000000"> </text>
<text text-anchor="start" x="7.5" y="-18.8108" font-family="Roboto" font-size="8.00" fill="#000000">MiniGUI</text>
<text text-anchor="start" x="38.5" y="-18.8108" font-family="Roboto" font-size="8.00" fill="#000000"> </text>
</a>
</g>
</a>
</g>
</g>
<!-- c6926937 -->
<g id="node2" class="node">
<title>c6926937</title>
<g id="a_node2"><a xlink:href="MiniGUI.SettingsComboboxModel.html" xlink:title="&lt;TABLE&gt;">
<g id="a_node2_1"><a xlink:href="MiniGUI.SettingsComboboxModel.html" xlink:title="de.lmu.ifi.dbs.elki.gui.minigui.MiniGUI.SettingsComboboxModel" target="_parent">
<polygon fill="#fffacd" stroke="transparent" points="63,-11.7108 63,-28.7108 196,-28.7108 196,-11.7108 63,-11.7108"/>
<polygon fill="none" stroke="#000000" points="63.5,-11.2108 63.5,-28.2108 196.5,-28.2108 196.5,-11.2108 63.5,-11.2108"/>
<text text-anchor="start" x="67.5" y="-18.8108" font-family="Roboto" font-size="8.00" fill="#000000"> </text>
<text text-anchor="start" x="70.5" y="-18.8108" font-family="Roboto" font-size="8.00" fill="#000000">MiniGUI.SettingsComboboxModel</text>
<text text-anchor="start" x="189.5" y="-18.8108" font-family="Roboto" font-size="8.00" fill="#000000"> </text>
</a>
</g>
</a>
</g>
</g>
<!-- c6926936&#45;&gt;c6926937 -->
<g id="edge1" class="edge">
<title>c6926936&#45;&gt;c6926937</title>
<path fill="none" stroke="#000000" d="M57.3895,-20.2108C59.2017,-20.2108 61.0465,-20.2108 62.914,-20.2108"/>
<polygon fill="#000000" stroke="#000000" points="57.1919,-20.2109 51.1919,-24.2108 45.1919,-20.2108 51.192,-16.2108 57.1919,-20.2109"/>
</g>
<!-- c6926958 -->
<g id="node3" class="node">
<title>c6926958</title>
<g id="a_node3"><a xlink:href="../util/SavedSettingsFile.html" xlink:title="&lt;TABLE&gt;">
<g id="a_node3_2"><a xlink:href="../util/SavedSettingsFile.html" xlink:title="de.lmu.ifi.dbs.elki.gui.util.SavedSettingsFile" target="_parent">
<polygon fill="none" stroke="#000000" points="214,-6.2108 214,-34.2108 310,-34.2108 310,-6.2108 214,-6.2108"/>
<text text-anchor="start" x="228" y="-24.8108" font-family="Roboto" font-size="8.00" fill="#000000"> </text>
<text text-anchor="start" x="231" y="-24.8108" font-family="Roboto" font-size="8.00" fill="#000000">SavedSettingsFile</text>
<text text-anchor="start" x="293" y="-24.8108" font-family="Roboto" font-size="8.00" fill="#000000"> </text>
<text text-anchor="start" x="218" y="-13.8108" font-family="Roboto" font-size="8.00" fill="#000000"> </text>
<text text-anchor="start" x="221" y="-13.8108" font-family="Roboto" font-size="7.00" fill="#000000">de.lmu.ifi.dbs.elki.gui.util</text>
<text text-anchor="start" x="303" y="-13.8108" font-family="Roboto" font-size="8.00" fill="#000000"> </text>
</a>
</g>
</a>
</g>
</g>
<!-- c6926936&#45;&gt;c6926958 -->
<g id="edge3" class="edge">
<title>c6926936&#45;&gt;c6926958</title>
<path fill="none" stroke="#000000" d="M43.1735,-11.5841C49.431,-9.3794 56.3969,-7.3198 63,-6.2108 121.2945,3.5806 137.2114,-.0442 196,-6.2108 198.5483,-6.4781 201.143,-6.8019 203.7576,-7.1707"/>
<polygon fill="#000000" stroke="#000000" points="213.8845,-8.7912 203.299,-11.6545 208.9473,-8.0011 204.0101,-7.211 204.0101,-7.211 204.0101,-7.211 208.9473,-8.0011 204.7212,-2.7675 213.8845,-8.7912 213.8845,-8.7912"/>
</g>
<!-- c6926937&#45;&gt;c6926958 -->
<g id="edge2" class="edge">
<title>c6926937&#45;&gt;c6926958</title>
<path fill="none" stroke="#000000" d="M208.2987,-20.2108C210.1217,-20.2108 211.9314,-20.2108 213.7222,-20.2108"/>
<polygon fill="#000000" stroke="#000000" points="208.1382,-20.2109 202.1381,-24.2108 196.1382,-20.2108 202.1382,-16.2108 208.1382,-20.2109"/>
</g>
</g>
</svg>
